<?xml version="1.0" encoding="utf-8" standalone="no"?>
<!DOCTYPE svg PUBLIC "-//W3C//DTD SVG 1.1//EN"
  "http://www.w3.org/Graphics/SVG/1.1/DTD/svg11.dtd">
<svg height="612pt" version="1.1" viewBox="0 0 792 612" width="792pt" xmlns="http://www.w3.org/2000/svg" xmlns:xlink="http://www.w3.org/1999/xlink">
 <metadata>
  <rdf:RDF xmlns:cc="http://creativecommons.org/ns#" xmlns:dc="http://purl.org/dc/elements/1.1/" xmlns:rdf="http://www.w3.org/1999/02/22-rdf-syntax-ns#">
   <cc:Work>
    <dc:type rdf:resource="http://purl.org/dc/dcmitype/StillImage"/>
    <dc:format>image/svg+xml</dc:format>
    <dc:creator>
     <cc:Agent>
      <dc:title>Matplotlib v3.4.2, https://matplotlib.org/</dc:title>
     </cc:Agent>
    </dc:creator>
   </cc:Work>
  </rdf:RDF>
 </metadata>
 <defs>
  <style type="text/css">*{stroke-linecap:butt;stroke-linejoin:round;}</style>
 </defs>
 <g id="figure_1">
  <g id="patch_1">
   <path d="M 0 612 
L 792 612 
L 792 0 
L 0 0 
z
" style="fill:#ffffff;"/>
  </g>
  <g id="axes_1">
   <g id="patch_2">
    <path d="M 99 544.68 
L 712.8 544.68 
L 712.8 73.44 
L 99 73.44 
z
" style="fill:#ffffff;"/>
   </g>
   <g id="PolyCollection_1">
    <path clip-path="url(#p68e2955192)" d="M 99 135032.490349 
L 99 135032.490349 
L 100.187234 135032.490349 
L 101.374468 135032.490349 
L 102.561702 135032.490349 
L 103.748936 135032.490349 
L 104.93617 135032.490349 
L 106.123404 135032.490349 
L 107.310638 135032.490349 
L 108.497872 135032.490349 
L 109.685106 135032.490349 
L 110.87234 135032.490349 
L 112.059574 135032.490349 
L 113.246809 135032.490349 
L 114.434043 338.041937 
L 115.621277 333.781687 
L 116.808511 322.975897 
L 117.995745 318.240318 
L 119.182979 318.240318 
L 120.370213 318.240318 
L 121.557447 318.240318 
L 122.744681 318.240318 
L 123.931915 318.240318 
L 125.119149 318.240318 
L 126.306383 318.240318 
L 127.493617 318.240318 
L 128.680851 318.240318 
L 129.868085 317.199919 
L 131.055319 318.240318 
L 132.242553 318.240318 
L 133.429787 320.378394 
L 134.617021 329.811044 
L 135.804255 325.694257 
L 136.991489 325.694257 
L 138.178723 325.694257 
L 139.365957 325.694257 
L 140.553191 325.694257 
L 141.740426 325.694257 
L 142.92766 325.694257 
L 144.114894 326.899129 
L 145.302128 326.899129 
L 146.489362 335.636897 
L 147.676596 342.637386 
L 148.86383 342.637386 
L 150.051064 345.914929 
L 151.238298 356.344429 
L 152.425532 361.245977 
L 153.612766 361.245977 
L 154.8 361.245977 
L 155.987234 363.479403 
L 157.174468 365.801598 
L 158.361702 365.801598 
L 159.548936 365.801598 
L 160.73617 365.801598 
L 161.923404 365.801598 
L 163.110638 378.056451 
L 164.297872 384.213109 
L 165.485106 384.213109 
L 166.67234 384.213109 
L 167.859574 384.213109 
L 169.046809 384.213109 
L 170.234043 384.213109 
L 171.421277 406.305103 
L 172.608511 418.559956 
L 173.795745 406.305103 
L 174.982979 418.559956 
L 176.170213 406.305103 
L 177.357447 401.749483 
L 178.544681 401.749483 
L 179.731915 401.749483 
L 180.919149 401.749483 
L 182.106383 401.749483 
L 183.293617 401.749483 
L 184.480851 401.749483 
L 185.668085 401.749483 
L 186.855319 401.749483 
L 188.042553 401.749483 
L 189.229787 401.749483 
L 190.417021 392.325906 
L 191.604255 381.053734 
L 192.791489 381.053734 
L 193.978723 343.171035 
L 195.165957 341.584488 
L 196.353191 311.943865 
L 197.540426 306.546104 
L 198.72766 295.844567 
L 199.914894 294.430767 
L 201.102128 294.430767 
L 202.289362 294.430767 
L 203.476596 294.430767 
L 204.66383 294.430767 
L 205.851064 294.430767 
L 207.038298 293.736492 
L 208.225532 293.736492 
L 209.412766 289.307539 
L 210.6 293.736492 
L 211.787234 293.736492 
L 212.974468 293.736492 
L 214.161702 293.050368 
L 215.348936 295.36949 
L 216.53617 293.050368 
L 217.723404 293.050368 
L 218.910638 293.050368 
L 220.097872 293.050368 
L 221.285106 280.973996 
L 222.47234 280.973996 
L 223.659574 274.338518 
L 224.846809 274.338518 
L 226.034043 276.35369 
L 227.221277 274.835833 
L 228.408511 274.835833 
L 229.595745 263.932831 
L 230.782979 261.49772 
L 231.970213 258.526943 
L 233.157447 255.22193 
L 234.344681 250.206953 
L 235.531915 250.206953 
L 236.719149 250.206953 
L 237.906383 250.206953 
L 239.093617 250.206953 
L 240.280851 250.206953 
L 241.468085 246.401573 
L 242.655319 244.094 
L 243.842553 232.934116 
L 245.029787 230.311883 
L 246.217021 230.311883 
L 247.404255 230.311883 
L 248.591489 229.15778 
L 249.778723 229.15778 
L 250.965957 229.15778 
L 252.153191 211.196878 
L 253.340426 204.283203 
L 254.52766 204.283203 
L 255.714894 204.283203 
L 256.902128 204.283203 
L 258.089362 204.283203 
L 259.276596 203.296115 
L 260.46383 197.478121 
L 261.651064 197.478121 
L 262.838298 193.207836 
L 264.025532 193.207836 
L 265.212766 193.207836 
L 266.4 193.207836 
L 267.587234 190.669446 
L 268.774468 188.085659 
L 269.961702 188.085659 
L 271.148936 188.085659 
L 272.33617 188.085659 
L 273.523404 188.085659 
L 274.710638 188.085659 
L 275.897872 188.085659 
L 277.085106 190.669446 
L 278.27234 190.669446 
L 279.459574 193.828821 
L 280.646809 193.828821 
L 281.834043 193.828821 
L 283.021277 193.704095 
L 284.208511 206.360407 
L 285.395745 211.25293 
L 286.582979 211.25293 
L 287.770213 211.25293 
L 288.957447 211.25293 
L 290.144681 211.25293 
L 291.331915 211.25293 
L 292.519149 211.25293 
L 293.706383 212.100226 
L 294.893617 212.100226 
L 296.080851 212.100226 
L 297.268085 212.100226 
L 298.455319 212.787022 
L 299.642553 212.787022 
L 300.829787 208.353867 
L 302.017021 210.806012 
L 303.204255 210.806012 
L 304.391489 210.806012 
L 305.578723 210.806012 
L 306.765957 208.353867 
L 307.953191 203.639702 
L 309.140426 203.639702 
L 310.32766 203.639702 
L 311.514894 203.639702 
L 312.702128 203.639702 
L 313.889362 203.639702 
L 315.076596 201.040058 
L 316.26383 202.614942 
L 317.451064 203.051926 
L 318.638298 203.051926 
L 319.825532 203.051926 
L 321.012766 203.051926 
L 322.2 203.051926 
L 323.387234 203.051926 
L 324.574468 206.567071 
L 325.761702 206.567071 
L 326.948936 206.567071 
L 328.13617 206.567071 
L 329.323404 206.567071 
L 330.510638 206.567071 
L 331.697872 206.567071 
L 332.885106 204.432715 
L 334.07234 204.432715 
L 335.259574 204.432715 
L 336.446809 203.985322 
L 337.634043 201.607844 
L 338.821277 201.607844 
L 340.008511 198.686685 
L 341.195745 198.551159 
L 342.382979 195.133492 
L 343.570213 191.985318 
L 344.757447 180.490708 
L 345.944681 180.490708 
L 347.131915 180.490708 
L 348.319149 180.490708 
L 349.506383 177.299959 
L 350.693617 171.881905 
L 351.880851 162.74369 
L 353.068085 162.74369 
L 354.255319 162.74369 
L 355.442553 162.74369 
L 356.629787 162.74369 
L 357.817021 161.509885 
L 359.004255 161.509885 
L 360.191489 161.509885 
L 361.378723 161.509885 
L 362.565957 161.509885 
L 363.753191 161.509885 
L 364.940426 161.294833 
L 366.12766 158.751278 
L 367.314894 155.336472 
L 368.502128 141.548226 
L 369.689362 138.032699 
L 370.876596 135.693448 
L 372.06383 135.693448 
L 373.251064 135.693448 
L 374.438298 134.868265 
L 375.625532 128.887889 
L 376.812766 128.887889 
L 378 128.887889 
L 379.187234 128.682784 
L 380.374468 127.86949 
L 381.561702 127.86949 
L 382.748936 119.529048 
L 383.93617 116.448963 
L 385.123404 116.993989 
L 386.310638 116.993989 
L 387.497872 116.371515 
L 388.685106 116.371515 
L 389.87234 116.371515 
L 391.059574 111.535454 
L 392.246809 108.820795 
L 393.434043 104.930634 
L 394.621277 104.930634 
L 395.808511 103.957008 
L 396.995745 103.957008 
L 398.182979 103.957008 
L 399.370213 103.957008 
L 400.557447 102.430441 
L 401.744681 102.430441 
L 402.931915 102.430441 
L 404.119149 102.430441 
L 405.306383 101.867027 
L 406.493617 101.867027 
L 407.680851 101.867027 
L 408.868085 102.091741 
L 410.055319 102.091741 
L 411.242553 102.091741 
L 412.429787 102.091741 
L 413.617021 101.867027 
L 414.804255 100.326171 
L 415.991489 96.418545 
L 417.178723 94.959554 
L 418.365957 94.86 
L 419.553191 94.86 
L 420.740426 94.86 
L 421.92766 94.86 
L 423.114894 94.86 
L 424.302128 94.86 
L 425.489362 94.86 
L 426.676596 94.86 
L 427.86383 94.86 
L 429.051064 94.86 
L 430.238298 94.86 
L 431.425532 94.905927 
L 432.612766 97.729764 
L 433.8 105.231395 
L 434.987234 105.800683 
L 436.174468 105.800683 
L 437.361702 105.800683 
L 438.548936 105.800683 
L 439.73617 106.833955 
L 440.923404 110.566407 
L 442.110638 111.382977 
L 443.297872 122.35031 
L 444.485106 122.35031 
L 445.67234 122.35031 
L 446.859574 129.314066 
L 448.046809 122.35031 
L 449.234043 129.314066 
L 450.421277 121.838154 
L 451.608511 121.838154 
L 452.795745 121.838154 
L 453.982979 123.876548 
L 455.170213 123.876548 
L 456.357447 123.876548 
L 457.544681 123.127061 
L 458.731915 123.127061 
L 459.919149 123.127061 
L 461.106383 123.127061 
L 462.293617 123.127061 
L 463.480851 123.127061 
L 464.668085 135.035416 
L 465.855319 135.035416 
L 467.042553 143.06474 
L 468.229787 143.06474 
L 469.417021 143.06474 
L 470.604255 143.06474 
L 471.791489 143.538036 
L 472.978723 144.068456 
L 474.165957 147.337461 
L 475.353191 149.772972 
L 476.540426 149.772972 
L 477.72766 149.772972 
L 478.914894 149.772972 
L 480.102128 149.772972 
L 481.289362 151.866183 
L 482.476596 155.078579 
L 483.66383 155.078579 
L 484.851064 163.929209 
L 486.038298 163.929209 
L 487.225532 163.929209 
L 488.412766 162.305248 
L 489.6 162.305248 
L 490.787234 162.305248 
L 491.974468 168.278845 
L 493.161702 168.278845 
L 494.348936 162.135628 
L 495.53617 162.135628 
L 496.723404 162.135628 
L 497.910638 162.135628 
L 499.097872 162.135628 
L 500.285106 162.135628 
L 501.47234 162.135628 
L 502.659574 162.135628 
L 503.846809 129.729477 
L 505.034043 129.729477 
L 506.221277 129.729477 
L 507.408511 131.335533 
L 508.595745 131.335533 
L 509.782979 131.335533 
L 510.970213 149.616521 
L 512.157447 149.616521 
L 513.344681 149.616521 
L 514.531915 149.616521 
L 515.719149 149.616521 
L 516.906383 149.616521 
L 518.093617 149.616521 
L 519.280851 137.332117 
L 520.468085 149.616521 
L 521.655319 149.616521 
L 522.842553 149.616521 
L 524.029787 150.800239 
L 525.217021 150.800239 
L 526.404255 150.800239 
L 527.591489 150.383205 
L 528.778723 150.383205 
L 529.965957 150.383205 
L 531.153191 147.657649 
L 532.340426 147.657649 
L 533.52766 147.657649 
L 534.714894 147.657649 
L 535.902128 147.657649 
L 537.089362 147.657649 
L 538.276596 147.657649 
L 539.46383 147.657649 
L 540.651064 147.657649 
L 541.838298 147.657649 
L 543.025532 147.657649 
L 544.212766 146.221206 
L 545.4 146.221206 
L 546.587234 146.221206 
L 547.774468 148.418027 
L 548.961702 148.418027 
L 550.148936 148.418027 
L 551.33617 148.418027 
L 552.523404 174.602988 
L 553.710638 148.418027 
L 554.897872 148.418027 
L 556.085106 146.888397 
L 557.27234 146.888397 
L 558.459574 146.888397 
L 559.646809 146.888397 
L 560.834043 130.203874 
L 562.021277 130.203874 
L 563.208511 130.203874 
L 564.395745 130.119877 
L 565.582979 129.369284 
L 566.770213 129.369284 
L 567.957447 129.369284 
L 569.144681 123.463141 
L 570.331915 140.286099 
L 571.519149 140.286099 
L 572.706383 140.286099 
L 573.893617 140.286099 
L 575.080851 140.286099 
L 576.268085 140.286099 
L 577.455319 140.286099 
L 578.642553 140.286099 
L 579.829787 140.286099 
L 581.017021 140.286099 
L 582.204255 141.192074 
L 583.391489 141.192074 
L 584.578723 141.192074 
L 585.765957 135.662677 
L 586.953191 135.662677 
L 588.140426 135.662677 
L 589.32766 135.662677 
L 590.514894 135.662677 
L 591.702128 135.662677 
L 592.889362 135.662677 
L 594.076596 157.777541 
L 595.26383 157.777541 
L 596.451064 157.777541 
L 597.638298 160.677983 
L 598.825532 160.677983 
L 600.012766 160.677983 
L 601.2 160.677983 
L 602.387234 167.504517 
L 603.574468 167.504517 
L 604.761702 168.954705 
L 605.948936 170.609395 
L 607.13617 170.609395 
L 608.323404 170.609395 
L 609.510638 170.609395 
L 610.697872 192.30883 
L 611.885106 192.30883 
L 613.07234 198.641475 
L 614.259574 198.641475 
L 615.446809 199.18632 
L 616.634043 199.18632 
L 617.821277 199.18632 
L 619.008511 209.268181 
L 620.195745 209.268181 
L 621.382979 209.268181 
L 622.570213 209.268181 
L 623.757447 215.376676 
L 624.944681 215.376676 
L 626.131915 215.376676 
L 627.319149 220.073971 
L 628.506383 215.376676 
L 629.693617 220.073971 
L 630.880851 222.266757 
L 632.068085 222.266757 
L 633.255319 222.266757 
L 634.442553 222.266757 
L 635.629787 239.553137 
L 636.817021 239.553137 
L 638.004255 238.919453 
L 639.191489 238.919453 
L 640.378723 238.649963 
L 641.565957 238.649963 
L 642.753191 238.649963 
L 643.940426 237.058615 
L 645.12766 238.649963 
L 646.314894 238.649963 
L 647.502128 238.649963 
L 648.689362 237.058615 
L 649.876596 237.058615 
L 651.06383 237.058615 
L 652.251064 225.970343 
L 653.438298 225.970343 
L 654.625532 225.111001 
L 655.812766 225.111001 
L 657 225.111001 
L 658.187234 225.111001 
L 659.374468 225.111001 
L 660.561702 217.709443 
L 661.748936 217.709443 
L 662.93617 217.521853 
L 664.123404 217.521853 
L 665.310638 217.521853 
L 666.497872 217.521853 
L 667.685106 217.521853 
L 668.87234 217.521853 
L 670.059574 217.521853 
L 671.246809 212.328263 
L 672.434043 212.328263 
L 673.621277 201.134307 
L 674.808511 201.134307 
L 675.995745 201.134307 
L 677.182979 185.937645 
L 678.370213 185.937645 
L 679.557447 173.065935 
L 680.744681 173.065935 
L 681.931915 163.185445 
L 683.119149 163.185445 
L 684.306383 163.185445 
L 685.493617 154.481218 
L 686.680851 154.481218 
L 687.868085 131.981856 
L 689.055319 131.981856 
L 690.242553 125.741492 
L 691.429787 125.741492 
L 692.617021 125.741492 
L 693.804255 123.52559 
L 694.991489 123.52559 
L 696.178723 118.442191 
L 697.365957 118.442191 
L 698.553191 113.76584 
L 699.740426 113.76584 
L 700.92766 113.76584 
L 702.114894 112.139087 
L 703.302128 112.139087 
L 704.489362 112.139087 
L 705.676596 112.139087 
L 706.86383 112.139087 
L 708.051064 112.139087 
L 709.238298 112.139087 
L 710.425532 100.519732 
L 711.612766 100.519732 
L 712.8 100.519732 
L 712.8 135032.490349 
L 712.8 135032.490349 
L 711.612766 135032.490349 
L 710.425532 135032.490349 
L 709.238298 135032.490349 
L 708.051064 135032.490349 
L 706.86383 135032.490349 
L 705.676596 135032.490349 
L 704.489362 135032.490349 
L 703.302128 135032.490349 
L 702.114894 135032.490349 
L 700.92766 135032.490349 
L 699.740426 135032.490349 
L 698.553191 135032.490349 
L 697.365957 135032.490349 
L 696.178723 135032.490349 
L 694.991489 135032.490349 
L 693.804255 135032.490349 
L 692.617021 135032.490349 
L 691.429787 135032.490349 
L 690.242553 135032.490349 
L 689.055319 135032.490349 
L 687.868085 135032.490349 
L 686.680851 135032.490349 
L 685.493617 135032.490349 
L 684.306383 135032.490349 
L 683.119149 135032.490349 
L 681.931915 135032.490349 
L 680.744681 135032.490349 
L 679.557447 135032.490349 
L 678.370213 135032.490349 
L 677.182979 135032.490349 
L 675.995745 135032.490349 
L 674.808511 135032.490349 
L 673.621277 135032.490349 
L 672.434043 135032.490349 
L 671.246809 135032.490349 
L 670.059574 135032.490349 
L 668.87234 135032.490349 
L 667.685106 135032.490349 
L 666.497872 135032.490349 
L 665.310638 135032.490349 
L 664.123404 135032.490349 
L 662.93617 135032.490349 
L 661.748936 135032.490349 
L 660.561702 135032.490349 
L 659.374468 135032.490349 
L 658.187234 135032.490349 
L 657 135032.490349 
L 655.812766 135032.490349 
L 654.625532 135032.490349 
L 653.438298 135032.490349 
L 652.251064 135032.490349 
L 651.06383 135032.490349 
L 649.876596 135032.490349 
L 648.689362 135032.490349 
L 647.502128 135032.490349 
L 646.314894 135032.490349 
L 645.12766 135032.490349 
L 643.940426 135032.490349 
L 642.753191 135032.490349 
L 641.565957 135032.490349 
L 640.378723 135032.490349 
L 639.191489 135032.490349 
L 638.004255 135032.490349 
L 636.817021 135032.490349 
L 635.629787 135032.490349 
L 634.442553 135032.490349 
L 633.255319 135032.490349 
L 632.068085 135032.490349 
L 630.880851 135032.490349 
L 629.693617 135032.490349 
L 628.506383 135032.490349 
L 627.319149 135032.490349 
L 626.131915 271.913514 
L 624.944681 271.913514 
L 623.757447 271.913514 
L 622.570213 271.913514 
L 621.382979 258.025359 
L 620.195745 258.025359 
L 619.008511 253.694919 
L 617.821277 253.694919 
L 616.634043 253.694919 
L 615.446809 253.694919 
L 614.259574 253.694919 
L 613.07234 253.694919 
L 611.885106 253.694919 
L 610.697872 251.644385 
L 609.510638 251.644385 
L 608.323404 251.644385 
L 607.13617 251.644385 
L 605.948936 251.644385 
L 604.761702 251.644385 
L 603.574468 251.644385 
L 602.387234 224.686023 
L 601.2 224.686023 
L 600.012766 224.686023 
L 598.825532 224.686023 
L 597.638298 224.686023 
L 596.451064 224.686023 
L 595.26383 224.686023 
L 594.076596 214.777959 
L 592.889362 214.777959 
L 591.702128 214.777959 
L 590.514894 214.777959 
L 589.32766 214.777959 
L 588.140426 214.777959 
L 586.953191 214.777959 
L 585.765957 214.777959 
L 584.578723 214.777959 
L 583.391489 214.777959 
L 582.204255 214.777959 
L 581.017021 214.777959 
L 579.829787 214.777959 
L 578.642553 214.777959 
L 577.455319 232.852901 
L 576.268085 232.852901 
L 575.080851 232.852901 
L 573.893617 232.852901 
L 572.706383 232.852901 
L 571.519149 232.852901 
L 570.331915 232.852901 
L 569.144681 232.852901 
L 567.957447 135032.490349 
L 566.770213 135032.490349 
L 565.582979 135032.490349 
L 564.395745 135032.490349 
L 563.208511 135032.490349 
L 562.021277 135032.490349 
L 560.834043 135032.490349 
L 559.646809 135032.490349 
L 558.459574 135032.490349 
L 557.27234 135032.490349 
L 556.085106 135032.490349 
L 554.897872 135032.490349 
L 553.710638 135032.490349 
L 552.523404 135032.490349 
L 551.33617 235.086327 
L 550.148936 235.086327 
L 548.961702 235.086327 
L 547.774468 235.086327 
L 546.587234 235.086327 
L 545.4 235.086327 
L 544.212766 235.086327 
L 543.025532 235.086327 
L 541.838298 235.086327 
L 540.651064 235.086327 
L 539.46383 226.623246 
L 538.276596 226.623246 
L 537.089362 226.623246 
L 535.902128 226.623246 
L 534.714894 226.623246 
L 533.52766 226.623246 
L 532.340426 226.623246 
L 531.153191 226.623246 
L 529.965957 226.623246 
L 528.778723 226.623246 
L 527.591489 254.747816 
L 526.404255 254.747816 
L 525.217021 254.747816 
L 524.029787 254.747816 
L 522.842553 254.747816 
L 521.655319 254.747816 
L 520.468085 254.747816 
L 519.280851 254.747816 
L 518.093617 135032.490349 
L 516.906383 135032.490349 
L 515.719149 135032.490349 
L 514.531915 135032.490349 
L 513.344681 135032.490349 
L 512.157447 135032.490349 
L 510.970213 135032.490349 
L 509.782979 135032.490349 
L 508.595745 135032.490349 
L 507.408511 135032.490349 
L 506.221277 135032.490349 
L 505.034043 135032.490349 
L 503.846809 135032.490349 
L 502.659574 135032.490349 
L 501.47234 216.408787 
L 500.285106 201.087164 
L 499.097872 197.700052 
L 497.910638 197.700052 
L 496.723404 197.700052 
L 495.53617 197.700052 
L 494.348936 198.596299 
L 493.161702 211.590375 
L 491.974468 198.596299 
L 490.787234 196.64239 
L 489.6 196.64239 
L 488.412766 196.64239 
L 487.225532 196.64239 
L 486.038298 196.773556 
L 484.851064 192.025659 
L 483.66383 188.388231 
L 482.476596 185.719878 
L 481.289362 185.719878 
L 480.102128 185.719878 
L 478.914894 185.719878 
L 477.72766 185.719878 
L 476.540426 183.8658 
L 475.353191 180.92294 
L 474.165957 180.92294 
L 472.978723 180.92294 
L 471.791489 180.92294 
L 470.604255 178.280475 
L 469.417021 175.782906 
L 468.229787 160.630801 
L 467.042553 160.630801 
L 465.855319 157.152092 
L 464.668085 160.630801 
L 463.480851 160.630801 
L 462.293617 160.630801 
L 461.106383 160.630801 
L 459.919149 160.630801 
L 458.731915 158.546126 
L 457.544681 158.546126 
L 456.357447 175.844062 
L 455.170213 175.844062 
L 453.982979 175.844062 
L 452.795745 158.774117 
L 451.608511 179.635718 
L 450.421277 179.930263 
L 449.234043 179.930263 
L 448.046809 178.696606 
L 446.859574 178.696606 
L 445.67234 178.696606 
L 444.485106 156.775596 
L 443.297872 153.242135 
L 442.110638 153.242135 
L 440.923404 153.242135 
L 439.73617 143.784966 
L 438.548936 139.050658 
L 437.361702 135.909301 
L 436.174468 135.909301 
L 434.987234 129.190017 
L 433.8 121.198203 
L 432.612766 119.377528 
L 431.425532 117.510315 
L 430.238298 112.19053 
L 429.051064 112.19053 
L 427.86383 112.19053 
L 426.676596 112.19053 
L 425.489362 112.19053 
L 424.302128 110.376507 
L 423.114894 110.376507 
L 421.92766 111.841607 
L 420.740426 111.841607 
L 419.553191 111.200528 
L 418.365957 111.200528 
L 417.178723 113.660192 
L 415.991489 113.660192 
L 414.804255 114.457251 
L 413.617021 118.419285 
L 412.429787 118.419285 
L 411.242553 114.940759 
L 410.055319 114.09457 
L 408.868085 114.09457 
L 407.680851 114.09457 
L 406.493617 114.09457 
L 405.306383 115.070372 
L 404.119149 119.762925 
L 402.931915 119.762925 
L 401.744681 120.127295 
L 400.557447 120.127295 
L 399.370213 120.127295 
L 398.182979 117.792852 
L 396.995745 117.792852 
L 395.808511 120.292597 
L 394.621277 122.301339 
L 393.434043 123.625649 
L 392.246809 131.349818 
L 391.059574 131.349818 
L 389.87234 134.054573 
L 388.685106 135.065858 
L 387.497872 138.321739 
L 386.310638 138.321739 
L 385.123404 139.838325 
L 383.93617 139.838325 
L 382.748936 139.838325 
L 381.561702 140.302749 
L 380.374468 140.302749 
L 379.187234 140.486216 
L 378 141.992205 
L 376.812766 155.100027 
L 375.625532 164.910474 
L 374.438298 166.7927 
L 373.251064 166.7927 
L 372.06383 169.281916 
L 370.876596 170.052609 
L 369.689362 170.4697 
L 368.502128 172.197224 
L 367.314894 172.197224 
L 366.12766 172.197224 
L 364.940426 174.543117 
L 363.753191 179.799171 
L 362.565957 184.749844 
L 361.378723 188.426163 
L 360.191489 188.426163 
L 359.004255 188.426163 
L 357.817021 191.22408 
L 356.629787 192.025659 
L 355.442553 193.084426 
L 354.255319 196.294048 
L 353.068085 198.012177 
L 351.880851 199.323328 
L 350.693617 200.198591 
L 349.506383 200.945961 
L 348.319149 203.985322 
L 347.131915 203.985322 
L 345.944681 204.134072 
L 344.757447 205.693752 
L 343.570213 207.875549 
L 342.382979 211.590375 
L 341.195745 219.554553 
L 340.008511 219.554553 
L 338.821277 219.554553 
L 337.634043 224.124151 
L 336.446809 235.086327 
L 335.259574 235.086327 
L 334.07234 242.349566 
L 332.885106 242.349566 
L 331.697872 242.349566 
L 330.510638 242.349566 
L 329.323404 239.099805 
L 328.13617 239.099805 
L 326.948936 242.54084 
L 325.761702 242.54084 
L 324.574468 242.54084 
L 323.387234 242.54084 
L 322.2 242.54084 
L 321.012766 239.099805 
L 319.825532 239.099805 
L 318.638298 243.799621 
L 317.451064 254.394738 
L 316.26383 254.394738 
L 315.076596 254.394738 
L 313.889362 254.394738 
L 312.702128 255.460437 
L 311.514894 255.460437 
L 310.32766 253.118071 
L 309.140426 253.118071 
L 307.953191 253.118071 
L 306.765957 253.118071 
L 305.578723 253.118071 
L 304.391489 253.118071 
L 303.204255 240.934625 
L 302.017021 240.934625 
L 300.829787 237.320849 
L 299.642553 237.320849 
L 298.455319 237.320849 
L 297.268085 237.320849 
L 296.080851 237.145896 
L 294.893617 237.145896 
L 293.706383 237.937342 
L 292.519149 237.145896 
L 291.331915 237.145896 
L 290.144681 237.937342 
L 288.957447 238.025946 
L 287.770213 239.462189 
L 286.582979 242.82893 
L 285.395745 239.190191 
L 284.208511 239.190191 
L 283.021277 239.190191 
L 281.834043 239.190191 
L 280.646809 239.190191 
L 279.459574 239.190191 
L 278.27234 238.025946 
L 277.085106 227.802286 
L 275.897872 227.802286 
L 274.710638 227.802286 
L 273.523404 227.876772 
L 272.33617 227.802286 
L 271.148936 219.296564 
L 269.961702 217.397127 
L 268.774468 211.929781 
L 267.587234 211.929781 
L 266.4 217.397127 
L 265.212766 219.683975 
L 264.025532 229.847503 
L 262.838298 231.966907 
L 261.651064 238.919453 
L 260.46383 238.919453 
L 259.276596 238.919453 
L 258.089362 238.919453 
L 256.902128 239.190191 
L 255.714894 242.82893 
L 254.52766 245.892118 
L 253.340426 250.206953 
L 252.153191 255.341061 
L 250.965957 255.341061 
L 249.778723 255.341061 
L 248.591489 255.341061 
L 247.404255 255.341061 
L 246.217021 256.181856 
L 245.029787 258.401143 
L 243.842553 265.756856 
L 242.655319 278.61819 
L 241.468085 280.605325 
L 240.280851 284.010223 
L 239.093617 284.010223 
L 237.906383 284.794586 
L 236.719149 284.010223 
L 235.531915 284.794586 
L 234.344681 292.597387 
L 233.157447 294.898244 
L 231.970213 294.898244 
L 230.782979 297.78447 
L 229.595745 297.78447 
L 228.408511 305.411423 
L 227.221277 312.258875 
L 226.034043 328.964157 
L 224.846809 328.964157 
L 223.659574 328.964157 
L 222.47234 328.964157 
L 221.285106 328.964157 
L 220.097872 332.875713 
L 218.910638 328.964157 
L 217.723404 332.875713 
L 216.53617 332.875713 
L 215.348936 332.875713 
L 214.161702 332.875713 
L 212.974468 332.875713 
L 211.787234 328.964157 
L 210.6 328.964157 
L 209.412766 312.258875 
L 208.225532 328.964157 
L 207.038298 334.70193 
L 205.851064 334.70193 
L 204.66383 355.676602 
L 203.476596 369.889572 
L 202.289362 379.038561 
L 201.102128 389.890795 
L 199.914894 389.890795 
L 198.72766 403.228909 
L 197.540426 420.540967 
L 196.353191 420.540967 
L 195.165957 445.250271 
L 193.978723 445.250271 
L 192.791489 445.250271 
L 191.604255 445.250271 
L 190.417021 482.756494 
L 189.229787 482.756494 
L 188.042553 488.913152 
L 186.855319 488.913152 
L 185.668085 488.913152 
L 184.480851 482.756494 
L 183.293617 482.756494 
L 182.106383 482.756494 
L 180.919149 482.756494 
L 179.731915 482.756494 
L 178.544681 482.756494 
L 177.357447 482.756494 
L 176.170213 482.756494 
L 174.982979 482.756494 
L 173.795745 482.756494 
L 172.608511 482.756494 
L 171.421277 482.756494 
L 170.234043 482.756494 
L 169.046809 482.756494 
L 167.859574 482.756494 
L 166.67234 482.756494 
L 165.485106 482.756494 
L 164.297872 482.756494 
L 163.110638 445.250271 
L 161.923404 442.252988 
L 160.73617 442.252988 
L 159.548936 442.252988 
L 158.361702 442.252988 
L 157.174468 442.252988 
L 155.987234 442.252988 
L 154.8 442.252988 
L 153.612766 442.252988 
L 152.425532 442.252988 
L 151.238298 392.325906 
L 150.051064 388.710266 
L 148.86383 388.710266 
L 147.676596 379.038561 
L 146.489362 370.742642 
L 145.302128 370.742642 
L 144.114894 369.889572 
L 142.92766 361.981008 
L 141.740426 361.245977 
L 140.553191 361.245977 
L 139.365957 361.245977 
L 138.178723 355.016321 
L 136.991489 348.794044 
L 135.804255 348.794044 
L 134.617021 348.794044 
L 133.429787 348.794044 
L 132.242553 348.794044 
L 131.055319 348.20676 
L 129.868085 348.20676 
L 128.680851 350.592161 
L 127.493617 348.20676 
L 126.306383 350.592161 
L 125.119149 369.889572 
L 123.931915 378.056451 
L 122.744681 378.056451 
L 121.557447 381.053734 
L 120.370213 418.559956 
L 119.182979 418.559956 
L 117.995745 420.540967 
L 116.808511 442.252988 
L 115.621277 445.250271 
L 114.434043 482.756494 
L 113.246809 135032.490349 
L 112.059574 135032.490349 
L 110.87234 135032.490349 
L 109.685106 135032.490349 
L 108.497872 135032.490349 
L 107.310638 135032.490349 
L 106.123404 135032.490349 
L 104.93617 135032.490349 
L 103.748936 135032.490349 
L 102.561702 135032.490349 
L 101.374468 135032.490349 
L 100.187234 135032.490349 
L 99 135032.490349 
z
" style="fill:#8080ff;fill-opacity:0.5;stroke:#8080ff;stroke-opacity:0.5;"/>
   </g>
   <g id="PolyCollection_2">
    <path clip-path="url(#p68e2955192)" d="M 99 135032.490349 
L 99 135032.490349 
L 100.187234 135032.490349 
L 101.374468 135032.490349 
L 102.561702 135032.490349 
L 103.748936 135032.490349 
L 104.93617 135032.490349 
L 106.123404 135032.490349 
L 107.310638 135032.490349 
L 108.497872 135032.490349 
L 109.685106 135032.490349 
L 110.87234 135032.490349 
L 112.059574 135032.490349 
L 113.246809 135032.490349 
L 114.434043 135032.490349 
L 115.621277 135032.490349 
L 116.808511 135032.490349 
L 117.995745 135032.490349 
L 119.182979 503.598512 
L 120.370213 503.598512 
L 121.557447 503.598512 
L 122.744681 503.598512 
L 123.931915 503.598512 
L 125.119149 503.598512 
L 126.306383 482.756494 
L 127.493617 482.756494 
L 128.680851 482.756494 
L 129.868085 482.756494 
L 131.055319 482.756494 
L 132.242553 482.756494 
L 133.429787 482.756494 
L 134.617021 482.756494 
L 135.804255 482.756494 
L 136.991489 482.756494 
L 138.178723 482.756494 
L 139.365957 482.756494 
L 140.553191 482.756494 
L 141.740426 482.756494 
L 142.92766 482.756494 
L 144.114894 482.756494 
L 145.302128 482.756494 
L 146.489362 482.756494 
L 147.676596 503.598512 
L 148.86383 503.598512 
L 150.051064 503.598512 
L 151.238298 135032.490349 
L 152.425532 135032.490349 
L 153.612766 135032.490349 
L 154.8 135032.490349 
L 155.987234 135032.490349 
L 157.174468 135032.490349 
L 158.361702 135032.490349 
L 159.548936 135032.490349 
L 160.73617 135032.490349 
L 161.923404 135032.490349 
L 163.110638 135032.490349 
L 164.297872 135032.490349 
L 165.485106 135032.490349 
L 166.67234 135032.490349 
L 167.859574 135032.490349 
L 169.046809 135032.490349 
L 170.234043 135032.490349 
L 171.421277 135032.490349 
L 172.608511 135032.490349 
L 173.795745 135032.490349 
L 174.982979 135032.490349 
L 176.170213 135032.490349 
L 177.357447 135032.490349 
L 178.544681 135032.490349 
L 179.731915 135032.490349 
L 180.919149 135032.490349 
L 182.106383 135032.490349 
L 183.293617 135032.490349 
L 184.480851 135032.490349 
L 185.668085 135032.490349 
L 186.855319 135032.490349 
L 188.042553 135032.490349 
L 189.229787 135032.490349 
L 190.417021 135032.490349 
L 191.604255 135032.490349 
L 192.791489 135032.490349 
L 193.978723 135032.490349 
L 195.165957 135032.490349 
L 196.353191 135032.490349 
L 197.540426 135032.490349 
L 198.72766 135032.490349 
L 199.914894 135032.490349 
L 201.102128 135032.490349 
L 202.289362 135032.490349 
L 203.476596 135032.490349 
L 204.66383 135032.490349 
L 205.851064 135032.490349 
L 207.038298 135032.490349 
L 208.225532 503.598512 
L 209.412766 503.598512 
L 210.6 503.598512 
L 211.787234 503.598512 
L 212.974468 503.598512 
L 214.161702 503.598512 
L 215.348936 503.598512 
L 216.53617 503.598512 
L 217.723404 503.598512 
L 218.910638 503.598512 
L 220.097872 503.598512 
L 221.285106 135032.490349 
L 222.47234 135032.490349 
L 223.659574 135032.490349 
L 224.846809 135032.490349 
L 226.034043 135032.490349 
L 227.221277 135032.490349 
L 228.408511 135032.490349 
L 229.595745 135032.490349 
L 230.782979 135032.490349 
L 231.970213 135032.490349 
L 233.157447 503.598512 
L 234.344681 482.756494 
L 235.531915 482.756494 
L 236.719149 482.756494 
L 237.906383 482.756494 
L 239.093617 482.756494 
L 240.280851 482.756494 
L 241.468085 482.756494 
L 242.655319 482.756494 
L 243.842553 482.756494 
L 245.029787 482.756494 
L 246.217021 482.756494 
L 247.404255 482.756494 
L 248.591489 482.756494 
L 249.778723 503.598512 
L 250.965957 503.598512 
L 252.153191 503.598512 
L 253.340426 503.598512 
L 254.52766 135032.490349 
L 255.714894 503.598512 
L 256.902128 503.598512 
L 258.089362 503.598512 
L 259.276596 482.756494 
L 260.46383 482.756494 
L 261.651064 482.756494 
L 262.838298 482.756494 
L 264.025532 482.756494 
L 265.212766 482.756494 
L 266.4 482.756494 
L 267.587234 482.756494 
L 268.774468 482.756494 
L 269.961702 482.756494 
L 271.148936 482.756494 
L 272.33617 482.756494 
L 273.523404 482.756494 
L 274.710638 482.756494 
L 275.897872 482.756494 
L 277.085106 482.756494 
L 278.27234 482.756494 
L 279.459574 482.756494 
L 280.646809 482.756494 
L 281.834043 482.756494 
L 283.021277 482.756494 
L 284.208511 482.756494 
L 285.395745 482.756494 
L 286.582979 482.756494 
L 287.770213 482.756494 
L 288.957447 482.756494 
L 290.144681 482.756494 
L 291.331915 482.756494 
L 292.519149 482.756494 
L 293.706383 482.756494 
L 294.893617 482.756494 
L 296.080851 482.756494 
L 297.268085 482.756494 
L 298.455319 482.756494 
L 299.642553 482.756494 
L 300.829787 482.756494 
L 302.017021 482.756494 
L 303.204255 482.756494 
L 304.391489 451.749653 
L 305.578723 451.749653 
L 306.765957 451.749653 
L 307.953191 451.749653 
L 309.140426 442.252988 
L 310.32766 442.252988 
L 311.514894 442.252988 
L 312.702128 451.749653 
L 313.889362 451.749653 
L 315.076596 451.749653 
L 316.26383 451.749653 
L 317.451064 451.749653 
L 318.638298 451.749653 
L 319.825532 451.749653 
L 321.012766 482.756494 
L 322.2 482.756494 
L 323.387234 482.756494 
L 324.574468 482.756494 
L 325.761702 482.756494 
L 326.948936 482.756494 
L 328.13617 482.756494 
L 329.323404 482.756494 
L 330.510638 482.756494 
L 331.697872 482.756494 
L 332.885106 482.756494 
L 334.07234 482.756494 
L 335.259574 416.643909 
L 336.446809 416.643909 
L 337.634043 416.643909 
L 338.821277 416.643909 
L 340.008511 416.643909 
L 341.195745 416.643909 
L 342.382979 416.643909 
L 343.570213 416.643909 
L 344.757447 416.643909 
L 345.944681 416.643909 
L 347.131915 416.643909 
L 348.319149 416.643909 
L 349.506383 482.756494 
L 350.693617 482.756494 
L 351.880851 482.756494 
L 353.068085 482.756494 
L 354.255319 482.756494 
L 355.442553 482.756494 
L 356.629787 482.756494 
L 357.817021 482.756494 
L 359.004255 482.756494 
L 360.191489 482.756494 
L 361.378723 482.756494 
L 362.565957 482.756494 
L 363.753191 482.756494 
L 364.940426 482.756494 
L 366.12766 482.756494 
L 367.314894 482.756494 
L 368.502128 482.756494 
L 369.689362 482.756494 
L 370.876596 451.749653 
L 372.06383 482.756494 
L 373.251064 451.749653 
L 374.438298 411.246147 
L 375.625532 411.246147 
L 376.812766 411.246147 
L 378 411.246147 
L 379.187234 411.246147 
L 380.374468 411.246147 
L 381.561702 411.246147 
L 382.748936 411.246147 
L 383.93617 411.246147 
L 385.123404 411.246147 
L 386.310638 411.246147 
L 387.497872 392.325906 
L 388.685106 392.325906 
L 389.87234 406.305103 
L 391.059574 431.599173 
L 392.246809 431.599173 
L 393.434043 431.599173 
L 394.621277 431.599173 
L 395.808511 424.716615 
L 396.995745 424.716615 
L 398.182979 424.716615 
L 399.370213 424.716615 
L 400.557447 424.716615 
L 401.744681 424.716615 
L 402.931915 424.716615 
L 404.119149 424.716615 
L 405.306383 442.252988 
L 406.493617 424.716615 
L 407.680851 424.716615 
L 408.868085 424.716615 
L 410.055319 424.716615 
L 411.242553 424.716615 
L 412.429787 424.716615 
L 413.617021 424.716615 
L 414.804255 373.379218 
L 415.991489 347.625321 
L 417.178723 347.625321 
L 418.365957 347.625321 
L 419.553191 347.625321 
L 420.740426 373.379218 
L 421.92766 370.742642 
L 423.114894 368.21991 
L 424.302128 368.21991 
L 425.489362 347.625321 
L 426.676596 347.625321 
L 427.86383 347.625321 
L 429.051064 347.625321 
L 430.238298 347.625321 
L 431.425532 353.079099 
L 432.612766 392.325906 
L 433.8 392.325906 
L 434.987234 392.325906 
L 436.174468 392.325906 
L 437.361702 357.703425 
L 438.548936 357.703425 
L 439.73617 361.981008 
L 440.923404 361.981008 
L 442.110638 418.559956 
L 443.297872 418.559956 
L 444.485106 418.559956 
L 445.67234 424.716615 
L 446.859574 424.716615 
L 448.046809 418.559956 
L 449.234043 418.559956 
L 450.421277 367.402635 
L 451.608511 367.402635 
L 452.795745 367.402635 
L 453.982979 418.559956 
L 455.170213 424.716615 
L 456.357447 418.559956 
L 457.544681 418.559956 
L 458.731915 418.559956 
L 459.919149 418.559956 
L 461.106383 418.559956 
L 462.293617 418.559956 
L 463.480851 418.559956 
L 464.668085 424.716615 
L 465.855319 424.716615 
L 467.042553 442.252988 
L 468.229787 442.252988 
L 469.417021 442.252988 
L 470.604255 442.252988 
L 471.791489 424.716615 
L 472.978723 451.749653 
L 474.165957 451.749653 
L 475.353191 400.306589 
L 476.540426 400.306589 
L 477.72766 400.306589 
L 478.914894 400.306589 
L 480.102128 400.306589 
L 481.289362 404.746766 
L 482.476596 404.746766 
L 483.66383 404.746766 
L 484.851064 404.746766 
L 486.038298 404.746766 
L 487.225532 334.239997 
L 488.412766 404.746766 
L 489.6 404.746766 
L 490.787234 404.746766 
L 491.974468 482.756494 
L 493.161702 482.756494 
L 494.348936 482.756494 
L 495.53617 482.756494 
L 496.723404 503.598512 
L 497.910638 135032.490349 
L 499.097872 463.095006 
L 500.285106 463.095006 
L 501.47234 463.095006 
L 502.659574 463.095006 
L 503.846809 463.095006 
L 505.034043 451.749653 
L 506.221277 451.749653 
L 507.408511 451.749653 
L 508.595745 451.749653 
L 509.782979 451.749653 
L 510.970213 451.749653 
L 512.157447 451.749653 
L 513.344681 451.749653 
L 514.531915 451.749653 
L 515.719149 482.756494 
L 516.906383 482.756494 
L 518.093617 482.756494 
L 519.280851 404.746766 
L 520.468085 482.756494 
L 521.655319 482.756494 
L 522.842553 482.756494 
L 524.029787 482.756494 
L 525.217021 482.756494 
L 526.404255 482.756494 
L 527.591489 482.756494 
L 528.778723 482.756494 
L 529.965957 482.756494 
L 531.153191 482.756494 
L 532.340426 482.756494 
L 533.52766 482.756494 
L 534.714894 482.756494 
L 535.902128 482.756494 
L 537.089362 482.756494 
L 538.276596 482.756494 
L 539.46383 482.756494 
L 540.651064 482.756494 
L 541.838298 482.756494 
L 543.025532 482.756494 
L 544.212766 482.756494 
L 545.4 451.749653 
L 546.587234 451.749653 
L 547.774468 451.749653 
L 548.961702 451.749653 
L 550.148936 451.749653 
L 551.33617 451.749653 
L 552.523404 451.749653 
L 553.710638 451.749653 
L 554.897872 451.749653 
L 556.085106 503.598512 
L 557.27234 503.598512 
L 558.459574 503.598512 
L 559.646809 503.598512 
L 560.834043 503.598512 
L 562.021277 135032.490349 
L 563.208511 135032.490349 
L 564.395745 135032.490349 
L 565.582979 135032.490349 
L 566.770213 135032.490349 
L 567.957447 135032.490349 
L 569.144681 135032.490349 
L 570.331915 135032.490349 
L 571.519149 135032.490349 
L 572.706383 503.598512 
L 573.893617 503.598512 
L 575.080851 503.598512 
L 576.268085 503.598512 
L 577.455319 503.598512 
L 578.642553 503.598512 
L 579.829787 503.598512 
L 581.017021 503.598512 
L 582.204255 503.598512 
L 583.391489 503.598512 
L 584.578723 503.598512 
L 585.765957 358.394962 
L 586.953191 358.394962 
L 588.140426 358.394962 
L 589.32766 135032.490349 
L 590.514894 135032.490349 
L 591.702128 135032.490349 
L 592.889362 135032.490349 
L 594.076596 503.598512 
L 595.26383 503.598512 
L 596.451064 503.598512 
L 597.638298 482.756494 
L 598.825532 482.756494 
L 600.012766 482.756494 
L 601.2 482.756494 
L 602.387234 503.598512 
L 603.574468 482.756494 
L 604.761702 451.749653 
L 605.948936 451.749653 
L 607.13617 451.749653 
L 608.323404 451.749653 
L 609.510638 451.749653 
L 610.697872 442.252988 
L 611.885106 411.246147 
L 613.07234 411.246147 
L 614.259574 411.246147 
L 615.446809 411.246147 
L 616.634043 411.246147 
L 617.821277 411.246147 
L 619.008511 411.246147 
L 620.195745 411.246147 
L 621.382979 416.643909 
L 622.570213 416.643909 
L 623.757447 416.643909 
L 624.944681 416.643909 
L 626.131915 416.643909 
L 627.319149 503.598512 
L 628.506383 135032.490349 
L 629.693617 135032.490349 
L 630.880851 135032.490349 
L 632.068085 135032.490349 
L 633.255319 135032.490349 
L 634.442553 135032.490349 
L 635.629787 135032.490349 
L 636.817021 135032.490349 
L 638.004255 135032.490349 
L 639.191489 135032.490349 
L 640.378723 135032.490349 
L 641.565957 135032.490349 
L 642.753191 135032.490349 
L 643.940426 135032.490349 
L 645.12766 135032.490349 
L 646.314894 135032.490349 
L 647.502128 135032.490349 
L 648.689362 135032.490349 
L 649.876596 135032.490349 
L 651.06383 135032.490349 
L 652.251064 135032.490349 
L 653.438298 135032.490349 
L 654.625532 503.598512 
L 655.812766 503.598512 
L 657 135032.490349 
L 658.187234 135032.490349 
L 659.374468 135032.490349 
L 660.561702 135032.490349 
L 661.748936 135032.490349 
L 662.93617 503.598512 
L 664.123404 503.598512 
L 665.310638 503.598512 
L 666.497872 503.598512 
L 667.685106 503.598512 
L 668.87234 503.598512 
L 670.059574 503.598512 
L 671.246809 135032.490349 
L 672.434043 135032.490349 
L 673.621277 463.095006 
L 674.808511 463.095006 
L 675.995745 463.095006 
L 677.182979 442.252988 
L 678.370213 442.252988 
L 679.557447 463.095006 
L 680.744681 463.095006 
L 681.931915 463.095006 
L 683.119149 463.095006 
L 684.306383 463.095006 
L 685.493617 463.095006 
L 686.680851 463.095006 
L 687.868085 451.749653 
L 689.055319 451.749653 
L 690.242553 451.749653 
L 691.429787 451.749653 
L 692.617021 451.749653 
L 693.804255 503.598512 
L 694.991489 503.598512 
L 696.178723 451.749653 
L 697.365957 451.749653 
L 698.553191 442.252988 
L 699.740426 442.252988 
L 700.92766 442.252988 
L 702.114894 442.252988 
L 703.302128 442.252988 
L 704.489362 442.252988 
L 705.676596 424.716615 
L 706.86383 424.716615 
L 708.051064 424.716615 
L 709.238298 424.716615 
L 710.425532 424.716615 
L 711.612766 424.716615 
L 712.8 424.716615 
L 712.8 135032.490349 
L 712.8 135032.490349 
L 711.612766 135032.490349 
L 710.425532 135032.490349 
L 709.238298 135032.490349 
L 708.051064 135032.490349 
L 706.86383 135032.490349 
L 705.676596 135032.490349 
L 704.489362 135032.490349 
L 703.302128 135032.490349 
L 702.114894 135032.490349 
L 700.92766 135032.490349 
L 699.740426 135032.490349 
L 698.553191 135032.490349 
L 697.365957 135032.490349 
L 696.178723 135032.490349 
L 694.991489 135032.490349 
L 693.804255 135032.490349 
L 692.617021 135032.490349 
L 691.429787 135032.490349 
L 690.242553 135032.490349 
L 689.055319 135032.490349 
L 687.868085 135032.490349 
L 686.680851 135032.490349 
L 685.493617 135032.490349 
L 684.306383 135032.490349 
L 683.119149 135032.490349 
L 681.931915 135032.490349 
L 680.744681 135032.490349 
L 679.557447 135032.490349 
L 678.370213 135032.490349 
L 677.182979 135032.490349 
L 675.995745 135032.490349 
L 674.808511 135032.490349 
L 673.621277 135032.490349 
L 672.434043 135032.490349 
L 671.246809 135032.490349 
L 670.059574 135032.490349 
L 668.87234 135032.490349 
L 667.685106 135032.490349 
L 666.497872 135032.490349 
L 665.310638 135032.490349 
L 664.123404 135032.490349 
L 662.93617 135032.490349 
L 661.748936 135032.490349 
L 660.561702 135032.490349 
L 659.374468 135032.490349 
L 658.187234 135032.490349 
L 657 135032.490349 
L 655.812766 135032.490349 
L 654.625532 135032.490349 
L 653.438298 135032.490349 
L 652.251064 135032.490349 
L 651.06383 135032.490349 
L 649.876596 135032.490349 
L 648.689362 135032.490349 
L 647.502128 135032.490349 
L 646.314894 135032.490349 
L 645.12766 135032.490349 
L 643.940426 135032.490349 
L 642.753191 135032.490349 
L 641.565957 135032.490349 
L 640.378723 135032.490349 
L 639.191489 135032.490349 
L 638.004255 135032.490349 
L 636.817021 135032.490349 
L 635.629787 135032.490349 
L 634.442553 135032.490349 
L 633.255319 135032.490349 
L 632.068085 135032.490349 
L 630.880851 135032.490349 
L 629.693617 135032.490349 
L 628.506383 135032.490349 
L 627.319149 135032.490349 
L 626.131915 135032.490349 
L 624.944681 135032.490349 
L 623.757447 135032.490349 
L 622.570213 135032.490349 
L 621.382979 135032.490349 
L 620.195745 135032.490349 
L 619.008511 135032.490349 
L 617.821277 135032.490349 
L 616.634043 135032.490349 
L 615.446809 135032.490349 
L 614.259574 135032.490349 
L 613.07234 135032.490349 
L 611.885106 135032.490349 
L 610.697872 135032.490349 
L 609.510638 135032.490349 
L 608.323404 135032.490349 
L 607.13617 135032.490349 
L 605.948936 135032.490349 
L 604.761702 135032.490349 
L 603.574468 135032.490349 
L 602.387234 135032.490349 
L 601.2 135032.490349 
L 600.012766 135032.490349 
L 598.825532 135032.490349 
L 597.638298 135032.490349 
L 596.451064 135032.490349 
L 595.26383 135032.490349 
L 594.076596 135032.490349 
L 592.889362 135032.490349 
L 591.702128 135032.490349 
L 590.514894 135032.490349 
L 589.32766 135032.490349 
L 588.140426 135032.490349 
L 586.953191 135032.490349 
L 585.765957 135032.490349 
L 584.578723 135032.490349 
L 583.391489 135032.490349 
L 582.204255 135032.490349 
L 581.017021 135032.490349 
L 579.829787 135032.490349 
L 578.642553 135032.490349 
L 577.455319 135032.490349 
L 576.268085 135032.490349 
L 575.080851 135032.490349 
L 573.893617 135032.490349 
L 572.706383 135032.490349 
L 571.519149 135032.490349 
L 570.331915 135032.490349 
L 569.144681 135032.490349 
L 567.957447 135032.490349 
L 566.770213 135032.490349 
L 565.582979 135032.490349 
L 564.395745 135032.490349 
L 563.208511 135032.490349 
L 562.021277 135032.490349 
L 560.834043 135032.490349 
L 559.646809 135032.490349 
L 558.459574 135032.490349 
L 557.27234 135032.490349 
L 556.085106 135032.490349 
L 554.897872 135032.490349 
L 553.710638 135032.490349 
L 552.523404 135032.490349 
L 551.33617 135032.490349 
L 550.148936 135032.490349 
L 548.961702 135032.490349 
L 547.774468 135032.490349 
L 546.587234 135032.490349 
L 545.4 135032.490349 
L 544.212766 135032.490349 
L 543.025532 135032.490349 
L 541.838298 135032.490349 
L 540.651064 135032.490349 
L 539.46383 135032.490349 
L 538.276596 135032.490349 
L 537.089362 135032.490349 
L 535.902128 135032.490349 
L 534.714894 135032.490349 
L 533.52766 135032.490349 
L 532.340426 135032.490349 
L 531.153191 135032.490349 
L 529.965957 135032.490349 
L 528.778723 135032.490349 
L 527.591489 135032.490349 
L 526.404255 135032.490349 
L 525.217021 135032.490349 
L 524.029787 135032.490349 
L 522.842553 135032.490349 
L 521.655319 135032.490349 
L 520.468085 135032.490349 
L 519.280851 135032.490349 
L 518.093617 135032.490349 
L 516.906383 135032.490349 
L 515.719149 135032.490349 
L 514.531915 135032.490349 
L 513.344681 135032.490349 
L 512.157447 135032.490349 
L 510.970213 135032.490349 
L 509.782979 135032.490349 
L 508.595745 135032.490349 
L 507.408511 135032.490349 
L 506.221277 135032.490349 
L 505.034043 135032.490349 
L 503.846809 135032.490349 
L 502.659574 135032.490349 
L 501.47234 135032.490349 
L 500.285106 135032.490349 
L 499.097872 135032.490349 
L 497.910638 135032.490349 
L 496.723404 135032.490349 
L 495.53617 135032.490349 
L 494.348936 135032.490349 
L 493.161702 135032.490349 
L 491.974468 135032.490349 
L 490.787234 135032.490349 
L 489.6 135032.490349 
L 488.412766 135032.490349 
L 487.225532 135032.490349 
L 486.038298 135032.490349 
L 484.851064 135032.490349 
L 483.66383 135032.490349 
L 482.476596 135032.490349 
L 481.289362 135032.490349 
L 480.102128 135032.490349 
L 478.914894 135032.490349 
L 477.72766 135032.490349 
L 476.540426 135032.490349 
L 475.353191 135032.490349 
L 474.165957 135032.490349 
L 472.978723 135032.490349 
L 471.791489 135032.490349 
L 470.604255 135032.490349 
L 469.417021 135032.490349 
L 468.229787 135032.490349 
L 467.042553 135032.490349 
L 465.855319 135032.490349 
L 464.668085 135032.490349 
L 463.480851 135032.490349 
L 462.293617 135032.490349 
L 461.106383 135032.490349 
L 459.919149 135032.490349 
L 458.731915 135032.490349 
L 457.544681 135032.490349 
L 456.357447 135032.490349 
L 455.170213 135032.490349 
L 453.982979 135032.490349 
L 452.795745 135032.490349 
L 451.608511 135032.490349 
L 450.421277 135032.490349 
L 449.234043 135032.490349 
L 448.046809 135032.490349 
L 446.859574 135032.490349 
L 445.67234 135032.490349 
L 444.485106 135032.490349 
L 443.297872 135032.490349 
L 442.110638 135032.490349 
L 440.923404 135032.490349 
L 439.73617 135032.490349 
L 438.548936 135032.490349 
L 437.361702 135032.490349 
L 436.174468 135032.490349 
L 434.987234 135032.490349 
L 433.8 135032.490349 
L 432.612766 135032.490349 
L 431.425532 488.913152 
L 430.238298 488.913152 
L 429.051064 135032.490349 
L 427.86383 135032.490349 
L 426.676596 135032.490349 
L 425.489362 135032.490349 
L 424.302128 135032.490349 
L 423.114894 135032.490349 
L 421.92766 135032.490349 
L 420.740426 135032.490349 
L 419.553191 135032.490349 
L 418.365957 135032.490349 
L 417.178723 135032.490349 
L 415.991489 135032.490349 
L 414.804255 135032.490349 
L 413.617021 135032.490349 
L 412.429787 135032.490349 
L 411.242553 135032.490349 
L 410.055319 135032.490349 
L 408.868085 135032.490349 
L 407.680851 135032.490349 
L 406.493617 135032.490349 
L 405.306383 135032.490349 
L 404.119149 135032.490349 
L 402.931915 135032.490349 
L 401.744681 135032.490349 
L 400.557447 135032.490349 
L 399.370213 135032.490349 
L 398.182979 135032.490349 
L 396.995745 135032.490349 
L 395.808511 135032.490349 
L 394.621277 135032.490349 
L 393.434043 135032.490349 
L 392.246809 135032.490349 
L 391.059574 135032.490349 
L 389.87234 135032.490349 
L 388.685106 135032.490349 
L 387.497872 135032.490349 
L 386.310638 135032.490349 
L 385.123404 135032.490349 
L 383.93617 135032.490349 
L 382.748936 135032.490349 
L 381.561702 135032.490349 
L 380.374468 135032.490349 
L 379.187234 135032.490349 
L 378 135032.490349 
L 376.812766 135032.490349 
L 375.625532 135032.490349 
L 374.438298 135032.490349 
L 373.251064 135032.490349 
L 372.06383 135032.490349 
L 370.876596 135032.490349 
L 369.689362 135032.490349 
L 368.502128 135032.490349 
L 367.314894 135032.490349 
L 366.12766 135032.490349 
L 364.940426 135032.490349 
L 363.753191 135032.490349 
L 362.565957 135032.490349 
L 361.378723 135032.490349 
L 360.191489 135032.490349 
L 359.004255 135032.490349 
L 357.817021 135032.490349 
L 356.629787 135032.490349 
L 355.442553 135032.490349 
L 354.255319 135032.490349 
L 353.068085 135032.490349 
L 351.880851 135032.490349 
L 350.693617 135032.490349 
L 349.506383 135032.490349 
L 348.319149 135032.490349 
L 347.131915 135032.490349 
L 345.944681 135032.490349 
L 344.757447 135032.490349 
L 343.570213 135032.490349 
L 342.382979 135032.490349 
L 341.195745 135032.490349 
L 340.008511 135032.490349 
L 338.821277 135032.490349 
L 337.634043 135032.490349 
L 336.446809 135032.490349 
L 335.259574 135032.490349 
L 334.07234 135032.490349 
L 332.885106 135032.490349 
L 331.697872 135032.490349 
L 330.510638 135032.490349 
L 329.323404 135032.490349 
L 328.13617 135032.490349 
L 326.948936 135032.490349 
L 325.761702 135032.490349 
L 324.574468 135032.490349 
L 323.387234 135032.490349 
L 322.2 135032.490349 
L 321.012766 135032.490349 
L 319.825532 135032.490349 
L 318.638298 135032.490349 
L 317.451064 135032.490349 
L 316.26383 135032.490349 
L 315.076596 135032.490349 
L 313.889362 135032.490349 
L 312.702128 135032.490349 
L 311.514894 135032.490349 
L 310.32766 135032.490349 
L 309.140426 135032.490349 
L 307.953191 135032.490349 
L 306.765957 135032.490349 
L 305.578723 135032.490349 
L 304.391489 135032.490349 
L 303.204255 135032.490349 
L 302.017021 135032.490349 
L 300.829787 135032.490349 
L 299.642553 135032.490349 
L 298.455319 135032.490349 
L 297.268085 135032.490349 
L 296.080851 135032.490349 
L 294.893617 135032.490349 
L 293.706383 135032.490349 
L 292.519149 135032.490349 
L 291.331915 135032.490349 
L 290.144681 135032.490349 
L 288.957447 135032.490349 
L 287.770213 135032.490349 
L 286.582979 135032.490349 
L 285.395745 135032.490349 
L 284.208511 135032.490349 
L 283.021277 135032.490349 
L 281.834043 135032.490349 
L 280.646809 135032.490349 
L 279.459574 135032.490349 
L 278.27234 135032.490349 
L 277.085106 135032.490349 
L 275.897872 135032.490349 
L 274.710638 135032.490349 
L 273.523404 135032.490349 
L 272.33617 135032.490349 
L 271.148936 135032.490349 
L 269.961702 135032.490349 
L 268.774468 135032.490349 
L 267.587234 135032.490349 
L 266.4 135032.490349 
L 265.212766 135032.490349 
L 264.025532 135032.490349 
L 262.838298 135032.490349 
L 261.651064 135032.490349 
L 260.46383 135032.490349 
L 259.276596 135032.490349 
L 258.089362 135032.490349 
L 256.902128 135032.490349 
L 255.714894 135032.490349 
L 254.52766 135032.490349 
L 253.340426 135032.490349 
L 252.153191 135032.490349 
L 250.965957 135032.490349 
L 249.778723 135032.490349 
L 248.591489 135032.490349 
L 247.404255 135032.490349 
L 246.217021 135032.490349 
L 245.029787 135032.490349 
L 243.842553 135032.490349 
L 242.655319 135032.490349 
L 241.468085 135032.490349 
L 240.280851 135032.490349 
L 239.093617 135032.490349 
L 237.906383 135032.490349 
L 236.719149 135032.490349 
L 235.531915 135032.490349 
L 234.344681 135032.490349 
L 233.157447 135032.490349 
L 231.970213 135032.490349 
L 230.782979 135032.490349 
L 229.595745 135032.490349 
L 228.408511 135032.490349 
L 227.221277 135032.490349 
L 226.034043 135032.490349 
L 224.846809 135032.490349 
L 223.659574 135032.490349 
L 222.47234 135032.490349 
L 221.285106 135032.490349 
L 220.097872 135032.490349 
L 218.910638 135032.490349 
L 217.723404 135032.490349 
L 216.53617 135032.490349 
L 215.348936 135032.490349 
L 214.161702 135032.490349 
L 212.974468 135032.490349 
L 211.787234 135032.490349 
L 210.6 135032.490349 
L 209.412766 135032.490349 
L 208.225532 135032.490349 
L 207.038298 135032.490349 
L 205.851064 135032.490349 
L 204.66383 135032.490349 
L 203.476596 135032.490349 
L 202.289362 135032.490349 
L 201.102128 135032.490349 
L 199.914894 135032.490349 
L 198.72766 135032.490349 
L 197.540426 135032.490349 
L 196.353191 135032.490349 
L 195.165957 135032.490349 
L 193.978723 135032.490349 
L 192.791489 135032.490349 
L 191.604255 135032.490349 
L 190.417021 135032.490349 
L 189.229787 135032.490349 
L 188.042553 135032.490349 
L 186.855319 135032.490349 
L 185.668085 135032.490349 
L 184.480851 135032.490349 
L 183.293617 135032.490349 
L 182.106383 135032.490349 
L 180.919149 135032.490349 
L 179.731915 135032.490349 
L 178.544681 135032.490349 
L 177.357447 135032.490349 
L 176.170213 135032.490349 
L 174.982979 135032.490349 
L 173.795745 135032.490349 
L 172.608511 135032.490349 
L 171.421277 135032.490349 
L 170.234043 135032.490349 
L 169.046809 135032.490349 
L 167.859574 135032.490349 
L 166.67234 135032.490349 
L 165.485106 135032.490349 
L 164.297872 135032.490349 
L 163.110638 135032.490349 
L 161.923404 135032.490349 
L 160.73617 135032.490349 
L 159.548936 135032.490349 
L 158.361702 135032.490349 
L 157.174468 135032.490349 
L 155.987234 135032.490349 
L 154.8 135032.490349 
L 153.612766 135032.490349 
L 152.425532 135032.490349 
L 151.238298 135032.490349 
L 150.051064 135032.490349 
L 148.86383 135032.490349 
L 147.676596 135032.490349 
L 146.489362 135032.490349 
L 145.302128 135032.490349 
L 144.114894 135032.490349 
L 142.92766 135032.490349 
L 141.740426 135032.490349 
L 140.553191 135032.490349 
L 139.365957 135032.490349 
L 138.178723 135032.490349 
L 136.991489 135032.490349 
L 135.804255 135032.490349 
L 134.617021 135032.490349 
L 133.429787 135032.490349 
L 132.242553 135032.490349 
L 131.055319 135032.490349 
L 129.868085 135032.490349 
L 128.680851 135032.490349 
L 127.493617 135032.490349 
L 126.306383 135032.490349 
L 125.119149 135032.490349 
L 123.931915 135032.490349 
L 122.744681 135032.490349 
L 121.557447 135032.490349 
L 120.370213 135032.490349 
L 119.182979 135032.490349 
L 117.995745 135032.490349 
L 116.808511 135032.490349 
L 115.621277 135032.490349 
L 114.434043 135032.490349 
L 113.246809 135032.490349 
L 112.059574 135032.490349 
L 110.87234 135032.490349 
L 109.685106 135032.490349 
L 108.497872 135032.490349 
L 107.310638 135032.490349 
L 106.123404 135032.490349 
L 104.93617 135032.490349 
L 103.748936 135032.490349 
L 102.561702 135032.490349 
L 101.374468 135032.490349 
L 100.187234 135032.490349 
L 99 135032.490349 
z
" style="fill:#ff8080;fill-opacity:0.5;stroke:#ff8080;stroke-opacity:0.5;"/>
   </g>
   <g id="matplotlib.axis_1">
    <g id="xtick_1">
     <g id="line2d_1">
      <path clip-path="url(#p68e2955192)" d="M 99 544.68 
L 99 73.44 
" style="fill:none;stroke:#b0b0b0;stroke-linecap:square;stroke-width:0.8;"/>
     </g>
     <g id="line2d_2">
      <defs>
       <path d="M 0 0 
L 0 3.5 
" id="m4abed1d830" style="stroke:#000000;stroke-width:0.8;"/>
      </defs>
      <g>
       <use style="stroke:#000000;stroke-width:0.8;" x="99" xlink:href="#m4abed1d830" y="544.68"/>
      </g>
     </g>
    </g>
    <g id="xtick_2">
     <g id="line2d_3">
      <path clip-path="url(#p68e2955192)" d="M 122.744681 544.68 
L 122.744681 73.44 
" style="fill:none;stroke:#b0b0b0;stroke-linecap:square;stroke-width:0.8;"/>
     </g>
     <g id="line2d_4">
      <g>
       <use style="stroke:#000000;stroke-width:0.8;" x="122.744681" xlink:href="#m4abed1d830" y="544.68"/>
      </g>
     </g>
     <g id="text_1">
      <!-- Apr -->
      <g transform="translate(114.094681 559.278437)scale(0.1 -0.1)">
       <defs>
        <path d="M 2188 4044 
L 1331 1722 
L 3047 1722 
L 2188 4044 
z
M 1831 4666 
L 2547 4666 
L 4325 0 
L 3669 0 
L 3244 1197 
L 1141 1197 
L 716 0 
L 50 0 
L 1831 4666 
z
" id="DejaVuSans-41" transform="scale(0.015625)"/>
        <path d="M 1159 525 
L 1159 -1331 
L 581 -1331 
L 581 3500 
L 1159 3500 
L 1159 2969 
Q 1341 3281 1617 3432 
Q 1894 3584 2278 3584 
Q 2916 3584 3314 3078 
Q 3713 2572 3713 1747 
Q 3713 922 3314 415 
Q 2916 -91 2278 -91 
Q 1894 -91 1617 61 
Q 1341 213 1159 525 
z
M 3116 1747 
Q 3116 2381 2855 2742 
Q 2594 3103 2138 3103 
Q 1681 3103 1420 2742 
Q 1159 2381 1159 1747 
Q 1159 1113 1420 752 
Q 1681 391 2138 391 
Q 2594 391 2855 752 
Q 3116 1113 3116 1747 
z
" id="DejaVuSans-70" transform="scale(0.015625)"/>
        <path d="M 2631 2963 
Q 2534 3019 2420 3045 
Q 2306 3072 2169 3072 
Q 1681 3072 1420 2755 
Q 1159 2438 1159 1844 
L 1159 0 
L 581 0 
L 581 3500 
L 1159 3500 
L 1159 2956 
Q 1341 3275 1631 3429 
Q 1922 3584 2338 3584 
Q 2397 3584 2469 3576 
Q 2541 3569 2628 3553 
L 2631 2963 
z
" id="DejaVuSans-72" transform="scale(0.015625)"/>
       </defs>
       <use xlink:href="#DejaVuSans-41"/>
       <use x="68.408203" xlink:href="#DejaVuSans-70"/>
       <use x="131.884766" xlink:href="#DejaVuSans-72"/>
      </g>
     </g>
    </g>
    <g id="xtick_3">
     <g id="line2d_5">
      <path clip-path="url(#p68e2955192)" d="M 230.782979 544.68 
L 230.782979 73.44 
" style="fill:none;stroke:#b0b0b0;stroke-linecap:square;stroke-width:0.8;"/>
     </g>
     <g id="line2d_6">
      <g>
       <use style="stroke:#000000;stroke-width:0.8;" x="230.782979" xlink:href="#m4abed1d830" y="544.68"/>
      </g>
     </g>
     <g id="text_2">
      <!-- Jul -->
      <g transform="translate(224.750166 559.278437)scale(0.1 -0.1)">
       <defs>
        <path d="M 628 4666 
L 1259 4666 
L 1259 325 
Q 1259 -519 939 -900 
Q 619 -1281 -91 -1281 
L -331 -1281 
L -331 -750 
L -134 -750 
Q 284 -750 456 -515 
Q 628 -281 628 325 
L 628 4666 
z
" id="DejaVuSans-4a" transform="scale(0.015625)"/>
        <path d="M 544 1381 
L 544 3500 
L 1119 3500 
L 1119 1403 
Q 1119 906 1312 657 
Q 1506 409 1894 409 
Q 2359 409 2629 706 
Q 2900 1003 2900 1516 
L 2900 3500 
L 3475 3500 
L 3475 0 
L 2900 0 
L 2900 538 
Q 2691 219 2414 64 
Q 2138 -91 1772 -91 
Q 1169 -91 856 284 
Q 544 659 544 1381 
z
M 1991 3584 
L 1991 3584 
z
" id="DejaVuSans-75" transform="scale(0.015625)"/>
        <path d="M 603 4863 
L 1178 4863 
L 1178 0 
L 603 0 
L 603 4863 
z
" id="DejaVuSans-6c" transform="scale(0.015625)"/>
       </defs>
       <use xlink:href="#DejaVuSans-4a"/>
       <use x="29.492188" xlink:href="#DejaVuSans-75"/>
       <use x="92.871094" xlink:href="#DejaVuSans-6c"/>
      </g>
     </g>
    </g>
    <g id="xtick_4">
     <g id="line2d_7">
      <path clip-path="url(#p68e2955192)" d="M 340.008511 544.68 
L 340.008511 73.44 
" style="fill:none;stroke:#b0b0b0;stroke-linecap:square;stroke-width:0.8;"/>
     </g>
     <g id="line2d_8">
      <g>
       <use style="stroke:#000000;stroke-width:0.8;" x="340.008511" xlink:href="#m4abed1d830" y="544.68"/>
      </g>
     </g>
     <g id="text_3">
      <!-- Oct -->
      <g transform="translate(331.363198 559.278437)scale(0.1 -0.1)">
       <defs>
        <path d="M 2522 4238 
Q 1834 4238 1429 3725 
Q 1025 3213 1025 2328 
Q 1025 1447 1429 934 
Q 1834 422 2522 422 
Q 3209 422 3611 934 
Q 4013 1447 4013 2328 
Q 4013 3213 3611 3725 
Q 3209 4238 2522 4238 
z
M 2522 4750 
Q 3503 4750 4090 4092 
Q 4678 3434 4678 2328 
Q 4678 1225 4090 567 
Q 3503 -91 2522 -91 
Q 1538 -91 948 565 
Q 359 1222 359 2328 
Q 359 3434 948 4092 
Q 1538 4750 2522 4750 
z
" id="DejaVuSans-4f" transform="scale(0.015625)"/>
        <path d="M 3122 3366 
L 3122 2828 
Q 2878 2963 2633 3030 
Q 2388 3097 2138 3097 
Q 1578 3097 1268 2742 
Q 959 2388 959 1747 
Q 959 1106 1268 751 
Q 1578 397 2138 397 
Q 2388 397 2633 464 
Q 2878 531 3122 666 
L 3122 134 
Q 2881 22 2623 -34 
Q 2366 -91 2075 -91 
Q 1284 -91 818 406 
Q 353 903 353 1747 
Q 353 2603 823 3093 
Q 1294 3584 2113 3584 
Q 2378 3584 2631 3529 
Q 2884 3475 3122 3366 
z
" id="DejaVuSans-63" transform="scale(0.015625)"/>
        <path d="M 1172 4494 
L 1172 3500 
L 2356 3500 
L 2356 3053 
L 1172 3053 
L 1172 1153 
Q 1172 725 1289 603 
Q 1406 481 1766 481 
L 2356 481 
L 2356 0 
L 1766 0 
Q 1100 0 847 248 
Q 594 497 594 1153 
L 594 3053 
L 172 3053 
L 172 3500 
L 594 3500 
L 594 4494 
L 1172 4494 
z
" id="DejaVuSans-74" transform="scale(0.015625)"/>
       </defs>
       <use xlink:href="#DejaVuSans-4f"/>
       <use x="78.710938" xlink:href="#DejaVuSans-63"/>
       <use x="133.691406" xlink:href="#DejaVuSans-74"/>
      </g>
     </g>
    </g>
    <g id="xtick_5">
     <g id="line2d_9">
      <path clip-path="url(#p68e2955192)" d="M 449.234043 544.68 
L 449.234043 73.44 
" style="fill:none;stroke:#b0b0b0;stroke-linecap:square;stroke-width:0.8;"/>
     </g>
     <g id="line2d_10">
      <g>
       <use style="stroke:#000000;stroke-width:0.8;" x="449.234043" xlink:href="#m4abed1d830" y="544.68"/>
      </g>
     </g>
     <g id="text_4">
      <!-- Jan -->
      <g transform="translate(441.52623 559.278437)scale(0.1 -0.1)">
       <defs>
        <path d="M 2194 1759 
Q 1497 1759 1228 1600 
Q 959 1441 959 1056 
Q 959 750 1161 570 
Q 1363 391 1709 391 
Q 2188 391 2477 730 
Q 2766 1069 2766 1631 
L 2766 1759 
L 2194 1759 
z
M 3341 1997 
L 3341 0 
L 2766 0 
L 2766 531 
Q 2569 213 2275 61 
Q 1981 -91 1556 -91 
Q 1019 -91 701 211 
Q 384 513 384 1019 
Q 384 1609 779 1909 
Q 1175 2209 1959 2209 
L 2766 2209 
L 2766 2266 
Q 2766 2663 2505 2880 
Q 2244 3097 1772 3097 
Q 1472 3097 1187 3025 
Q 903 2953 641 2809 
L 641 3341 
Q 956 3463 1253 3523 
Q 1550 3584 1831 3584 
Q 2591 3584 2966 3190 
Q 3341 2797 3341 1997 
z
" id="DejaVuSans-61" transform="scale(0.015625)"/>
        <path d="M 3513 2113 
L 3513 0 
L 2938 0 
L 2938 2094 
Q 2938 2591 2744 2837 
Q 2550 3084 2163 3084 
Q 1697 3084 1428 2787 
Q 1159 2491 1159 1978 
L 1159 0 
L 581 0 
L 581 3500 
L 1159 3500 
L 1159 2956 
Q 1366 3272 1645 3428 
Q 1925 3584 2291 3584 
Q 2894 3584 3203 3211 
Q 3513 2838 3513 2113 
z
" id="DejaVuSans-6e" transform="scale(0.015625)"/>
       </defs>
       <use xlink:href="#DejaVuSans-4a"/>
       <use x="29.492188" xlink:href="#DejaVuSans-61"/>
       <use x="90.771484" xlink:href="#DejaVuSans-6e"/>
      </g>
      <!-- 2021 -->
      <g transform="translate(436.509043 570.47625)scale(0.1 -0.1)">
       <defs>
        <path d="M 1228 531 
L 3431 531 
L 3431 0 
L 469 0 
L 469 531 
Q 828 903 1448 1529 
Q 2069 2156 2228 2338 
Q 2531 2678 2651 2914 
Q 2772 3150 2772 3378 
Q 2772 3750 2511 3984 
Q 2250 4219 1831 4219 
Q 1534 4219 1204 4116 
Q 875 4013 500 3803 
L 500 4441 
Q 881 4594 1212 4672 
Q 1544 4750 1819 4750 
Q 2544 4750 2975 4387 
Q 3406 4025 3406 3419 
Q 3406 3131 3298 2873 
Q 3191 2616 2906 2266 
Q 2828 2175 2409 1742 
Q 1991 1309 1228 531 
z
" id="DejaVuSans-32" transform="scale(0.015625)"/>
        <path d="M 2034 4250 
Q 1547 4250 1301 3770 
Q 1056 3291 1056 2328 
Q 1056 1369 1301 889 
Q 1547 409 2034 409 
Q 2525 409 2770 889 
Q 3016 1369 3016 2328 
Q 3016 3291 2770 3770 
Q 2525 4250 2034 4250 
z
M 2034 4750 
Q 2819 4750 3233 4129 
Q 3647 3509 3647 2328 
Q 3647 1150 3233 529 
Q 2819 -91 2034 -91 
Q 1250 -91 836 529 
Q 422 1150 422 2328 
Q 422 3509 836 4129 
Q 1250 4750 2034 4750 
z
" id="DejaVuSans-30" transform="scale(0.015625)"/>
        <path d="M 794 531 
L 1825 531 
L 1825 4091 
L 703 3866 
L 703 4441 
L 1819 4666 
L 2450 4666 
L 2450 531 
L 3481 531 
L 3481 0 
L 794 0 
L 794 531 
z
" id="DejaVuSans-31" transform="scale(0.015625)"/>
       </defs>
       <use xlink:href="#DejaVuSans-32"/>
       <use x="63.623047" xlink:href="#DejaVuSans-30"/>
       <use x="127.246094" xlink:href="#DejaVuSans-32"/>
       <use x="190.869141" xlink:href="#DejaVuSans-31"/>
      </g>
     </g>
    </g>
    <g id="xtick_6">
     <g id="line2d_11">
      <path clip-path="url(#p68e2955192)" d="M 556.085106 544.68 
L 556.085106 73.44 
" style="fill:none;stroke:#b0b0b0;stroke-linecap:square;stroke-width:0.8;"/>
     </g>
     <g id="line2d_12">
      <g>
       <use style="stroke:#000000;stroke-width:0.8;" x="556.085106" xlink:href="#m4abed1d830" y="544.68"/>
      </g>
     </g>
     <g id="text_5">
      <!-- Apr -->
      <g transform="translate(547.435106 559.278437)scale(0.1 -0.1)">
       <use xlink:href="#DejaVuSans-41"/>
       <use x="68.408203" xlink:href="#DejaVuSans-70"/>
       <use x="131.884766" xlink:href="#DejaVuSans-72"/>
      </g>
     </g>
    </g>
    <g id="xtick_7">
     <g id="line2d_13">
      <path clip-path="url(#p68e2955192)" d="M 664.123404 544.68 
L 664.123404 73.44 
" style="fill:none;stroke:#b0b0b0;stroke-linecap:square;stroke-width:0.8;"/>
     </g>
     <g id="line2d_14">
      <g>
       <use style="stroke:#000000;stroke-width:0.8;" x="664.123404" xlink:href="#m4abed1d830" y="544.68"/>
      </g>
     </g>
     <g id="text_6">
      <!-- Jul -->
      <g transform="translate(658.090592 559.278437)scale(0.1 -0.1)">
       <use xlink:href="#DejaVuSans-4a"/>
       <use x="29.492188" xlink:href="#DejaVuSans-75"/>
       <use x="92.871094" xlink:href="#DejaVuSans-6c"/>
      </g>
     </g>
    </g>
    <g id="xtick_8">
     <g id="line2d_15">
      <path clip-path="url(#p68e2955192)" d="M 712.8 544.68 
L 712.8 73.44 
" style="fill:none;stroke:#b0b0b0;stroke-linecap:square;stroke-width:0.8;"/>
     </g>
     <g id="line2d_16">
      <g>
       <use style="stroke:#000000;stroke-width:0.8;" x="712.8" xlink:href="#m4abed1d830" y="544.68"/>
      </g>
     </g>
    </g>
    <g id="xtick_9">
     <g id="line2d_17">
      <defs>
       <path d="M 0 0 
L 0 2 
" id="mbe9820739d" style="stroke:#000000;stroke-width:0.6;"/>
      </defs>
      <g>
       <use style="stroke:#000000;stroke-width:0.6;" x="158.361702" xlink:href="#mbe9820739d" y="544.68"/>
      </g>
     </g>
    </g>
    <g id="xtick_10">
     <g id="line2d_18">
      <g>
       <use style="stroke:#000000;stroke-width:0.6;" x="195.165957" xlink:href="#mbe9820739d" y="544.68"/>
      </g>
     </g>
    </g>
    <g id="xtick_11">
     <g id="line2d_19">
      <g>
       <use style="stroke:#000000;stroke-width:0.6;" x="267.587234" xlink:href="#mbe9820739d" y="544.68"/>
      </g>
     </g>
    </g>
    <g id="xtick_12">
     <g id="line2d_20">
      <g>
       <use style="stroke:#000000;stroke-width:0.6;" x="304.391489" xlink:href="#mbe9820739d" y="544.68"/>
      </g>
     </g>
    </g>
    <g id="xtick_13">
     <g id="line2d_21">
      <g>
       <use style="stroke:#000000;stroke-width:0.6;" x="376.812766" xlink:href="#mbe9820739d" y="544.68"/>
      </g>
     </g>
    </g>
    <g id="xtick_14">
     <g id="line2d_22">
      <g>
       <use style="stroke:#000000;stroke-width:0.6;" x="412.429787" xlink:href="#mbe9820739d" y="544.68"/>
      </g>
     </g>
    </g>
    <g id="xtick_15">
     <g id="line2d_23">
      <g>
       <use style="stroke:#000000;stroke-width:0.6;" x="486.038298" xlink:href="#mbe9820739d" y="544.68"/>
      </g>
     </g>
    </g>
    <g id="xtick_16">
     <g id="line2d_24">
      <g>
       <use style="stroke:#000000;stroke-width:0.6;" x="519.280851" xlink:href="#mbe9820739d" y="544.68"/>
      </g>
     </g>
    </g>
    <g id="xtick_17">
     <g id="line2d_25">
      <g>
       <use style="stroke:#000000;stroke-width:0.6;" x="591.702128" xlink:href="#mbe9820739d" y="544.68"/>
      </g>
     </g>
    </g>
    <g id="xtick_18">
     <g id="line2d_26">
      <g>
       <use style="stroke:#000000;stroke-width:0.6;" x="628.506383" xlink:href="#mbe9820739d" y="544.68"/>
      </g>
     </g>
    </g>
    <g id="xtick_19">
     <g id="line2d_27">
      <g>
       <use style="stroke:#000000;stroke-width:0.6;" x="700.92766" xlink:href="#mbe9820739d" y="544.68"/>
      </g>
     </g>
    </g>
    <g id="text_7">
     <!-- Date -->
     <g transform="translate(393.949219 584.154375)scale(0.1 -0.1)">
      <defs>
       <path d="M 1259 4147 
L 1259 519 
L 2022 519 
Q 2988 519 3436 956 
Q 3884 1394 3884 2338 
Q 3884 3275 3436 3711 
Q 2988 4147 2022 4147 
L 1259 4147 
z
M 628 4666 
L 1925 4666 
Q 3281 4666 3915 4102 
Q 4550 3538 4550 2338 
Q 4550 1131 3912 565 
Q 3275 0 1925 0 
L 628 0 
L 628 4666 
z
" id="DejaVuSans-44" transform="scale(0.015625)"/>
       <path d="M 3597 1894 
L 3597 1613 
L 953 1613 
Q 991 1019 1311 708 
Q 1631 397 2203 397 
Q 2534 397 2845 478 
Q 3156 559 3463 722 
L 3463 178 
Q 3153 47 2828 -22 
Q 2503 -91 2169 -91 
Q 1331 -91 842 396 
Q 353 884 353 1716 
Q 353 2575 817 3079 
Q 1281 3584 2069 3584 
Q 2775 3584 3186 3129 
Q 3597 2675 3597 1894 
z
M 3022 2063 
Q 3016 2534 2758 2815 
Q 2500 3097 2075 3097 
Q 1594 3097 1305 2825 
Q 1016 2553 972 2059 
L 3022 2063 
z
" id="DejaVuSans-65" transform="scale(0.015625)"/>
      </defs>
      <use xlink:href="#DejaVuSans-44"/>
      <use x="77.001953" xlink:href="#DejaVuSans-61"/>
      <use x="138.28125" xlink:href="#DejaVuSans-74"/>
      <use x="177.490234" xlink:href="#DejaVuSans-65"/>
     </g>
    </g>
   </g>
   <g id="matplotlib.axis_2">
    <g id="ytick_1">
     <g id="line2d_28">
      <path clip-path="url(#p68e2955192)" d="M 99 482.756494 
L 712.8 482.756494 
" style="fill:none;stroke:#b0b0b0;stroke-linecap:square;stroke-width:0.8;"/>
     </g>
     <g id="line2d_29">
      <defs>
       <path d="M 0 0 
L -3.5 0 
" id="me91a084207" style="stroke:#000000;stroke-width:0.8;"/>
      </defs>
      <g>
       <use style="stroke:#000000;stroke-width:0.8;" x="99" xlink:href="#me91a084207" y="482.756494"/>
      </g>
     </g>
     <g id="text_8">
      <!-- $\mathdefault{10^{0}}$ -->
      <g transform="translate(74.4 486.555713)scale(0.1 -0.1)">
       <use transform="translate(0 0.765625)" xlink:href="#DejaVuSans-31"/>
       <use transform="translate(63.623047 0.765625)" xlink:href="#DejaVuSans-30"/>
       <use transform="translate(128.203125 39.046875)scale(0.7)" xlink:href="#DejaVuSans-30"/>
      </g>
     </g>
    </g>
    <g id="ytick_2">
     <g id="line2d_30">
      <path clip-path="url(#p68e2955192)" d="M 99 348.20676 
L 712.8 348.20676 
" style="fill:none;stroke:#b0b0b0;stroke-linecap:square;stroke-width:0.8;"/>
     </g>
     <g id="line2d_31">
      <g>
       <use style="stroke:#000000;stroke-width:0.8;" x="99" xlink:href="#me91a084207" y="348.20676"/>
      </g>
     </g>
     <g id="text_9">
      <!-- $\mathdefault{10^{1}}$ -->
      <g transform="translate(74.4 352.005979)scale(0.1 -0.1)">
       <use transform="translate(0 0.684375)" xlink:href="#DejaVuSans-31"/>
       <use transform="translate(63.623047 0.684375)" xlink:href="#DejaVuSans-30"/>
       <use transform="translate(128.203125 38.965625)scale(0.7)" xlink:href="#DejaVuSans-31"/>
      </g>
     </g>
    </g>
    <g id="ytick_3">
     <g id="line2d_32">
      <path clip-path="url(#p68e2955192)" d="M 99 213.657026 
L 712.8 213.657026 
" style="fill:none;stroke:#b0b0b0;stroke-linecap:square;stroke-width:0.8;"/>
     </g>
     <g id="line2d_33">
      <g>
       <use style="stroke:#000000;stroke-width:0.8;" x="99" xlink:href="#me91a084207" y="213.657026"/>
      </g>
     </g>
     <g id="text_10">
      <!-- $\mathdefault{10^{2}}$ -->
      <g transform="translate(74.4 217.456245)scale(0.1 -0.1)">
       <use transform="translate(0 0.765625)" xlink:href="#DejaVuSans-31"/>
       <use transform="translate(63.623047 0.765625)" xlink:href="#DejaVuSans-30"/>
       <use transform="translate(128.203125 39.046875)scale(0.7)" xlink:href="#DejaVuSans-32"/>
      </g>
     </g>
    </g>
    <g id="ytick_4">
     <g id="line2d_34">
      <path clip-path="url(#p68e2955192)" d="M 99 79.107293 
L 712.8 79.107293 
" style="fill:none;stroke:#b0b0b0;stroke-linecap:square;stroke-width:0.8;"/>
     </g>
     <g id="line2d_35">
      <g>
       <use style="stroke:#000000;stroke-width:0.8;" x="99" xlink:href="#me91a084207" y="79.107293"/>
      </g>
     </g>
     <g id="text_11">
      <!-- $\mathdefault{10^{3}}$ -->
      <g transform="translate(74.4 82.906511)scale(0.1 -0.1)">
       <defs>
        <path d="M 2597 2516 
Q 3050 2419 3304 2112 
Q 3559 1806 3559 1356 
Q 3559 666 3084 287 
Q 2609 -91 1734 -91 
Q 1441 -91 1130 -33 
Q 819 25 488 141 
L 488 750 
Q 750 597 1062 519 
Q 1375 441 1716 441 
Q 2309 441 2620 675 
Q 2931 909 2931 1356 
Q 2931 1769 2642 2001 
Q 2353 2234 1838 2234 
L 1294 2234 
L 1294 2753 
L 1863 2753 
Q 2328 2753 2575 2939 
Q 2822 3125 2822 3475 
Q 2822 3834 2567 4026 
Q 2313 4219 1838 4219 
Q 1578 4219 1281 4162 
Q 984 4106 628 3988 
L 628 4550 
Q 988 4650 1302 4700 
Q 1616 4750 1894 4750 
Q 2613 4750 3031 4423 
Q 3450 4097 3450 3541 
Q 3450 3153 3228 2886 
Q 3006 2619 2597 2516 
z
" id="DejaVuSans-33" transform="scale(0.015625)"/>
       </defs>
       <use transform="translate(0 0.765625)" xlink:href="#DejaVuSans-31"/>
       <use transform="translate(63.623047 0.765625)" xlink:href="#DejaVuSans-30"/>
       <use transform="translate(128.203125 39.046875)scale(0.7)" xlink:href="#DejaVuSans-33"/>
      </g>
     </g>
    </g>
    <g id="ytick_5">
     <g id="line2d_36">
      <path clip-path="url(#p68e2955192)" d="M 99 536.299216 
L 712.8 536.299216 
" style="fill:none;stroke:#b0b0b0;stroke-linecap:square;stroke-width:0.8;"/>
     </g>
     <g id="line2d_37">
      <defs>
       <path d="M 0 0 
L -2 0 
" id="m0cb60b688e" style="stroke:#000000;stroke-width:0.6;"/>
      </defs>
      <g>
       <use style="stroke:#000000;stroke-width:0.6;" x="99" xlink:href="#m0cb60b688e" y="536.299216"/>
      </g>
     </g>
    </g>
    <g id="ytick_6">
     <g id="line2d_38">
      <path clip-path="url(#p68e2955192)" d="M 99 523.26 
L 712.8 523.26 
" style="fill:none;stroke:#b0b0b0;stroke-linecap:square;stroke-width:0.8;"/>
     </g>
     <g id="line2d_39">
      <g>
       <use style="stroke:#000000;stroke-width:0.6;" x="99" xlink:href="#m0cb60b688e" y="523.26"/>
      </g>
     </g>
    </g>
    <g id="ytick_7">
     <g id="line2d_40">
      <path clip-path="url(#p68e2955192)" d="M 99 512.606184 
L 712.8 512.606184 
" style="fill:none;stroke:#b0b0b0;stroke-linecap:square;stroke-width:0.8;"/>
     </g>
     <g id="line2d_41">
      <g>
       <use style="stroke:#000000;stroke-width:0.6;" x="99" xlink:href="#m0cb60b688e" y="512.606184"/>
      </g>
     </g>
    </g>
    <g id="ytick_8">
     <g id="line2d_42">
      <path clip-path="url(#p68e2955192)" d="M 99 503.598512 
L 712.8 503.598512 
" style="fill:none;stroke:#b0b0b0;stroke-linecap:square;stroke-width:0.8;"/>
     </g>
     <g id="line2d_43">
      <g>
       <use style="stroke:#000000;stroke-width:0.6;" x="99" xlink:href="#m0cb60b688e" y="503.598512"/>
      </g>
     </g>
    </g>
    <g id="ytick_9">
     <g id="line2d_44">
      <path clip-path="url(#p68e2955192)" d="M 99 495.795711 
L 712.8 495.795711 
" style="fill:none;stroke:#b0b0b0;stroke-linecap:square;stroke-width:0.8;"/>
     </g>
     <g id="line2d_45">
      <g>
       <use style="stroke:#000000;stroke-width:0.6;" x="99" xlink:href="#m0cb60b688e" y="495.795711"/>
      </g>
     </g>
    </g>
    <g id="ytick_10">
     <g id="line2d_46">
      <path clip-path="url(#p68e2955192)" d="M 99 488.913152 
L 712.8 488.913152 
" style="fill:none;stroke:#b0b0b0;stroke-linecap:square;stroke-width:0.8;"/>
     </g>
     <g id="line2d_47">
      <g>
       <use style="stroke:#000000;stroke-width:0.6;" x="99" xlink:href="#m0cb60b688e" y="488.913152"/>
      </g>
     </g>
    </g>
    <g id="ytick_11">
     <g id="line2d_48">
      <path clip-path="url(#p68e2955192)" d="M 99 442.252988 
L 712.8 442.252988 
" style="fill:none;stroke:#b0b0b0;stroke-linecap:square;stroke-width:0.8;"/>
     </g>
     <g id="line2d_49">
      <g>
       <use style="stroke:#000000;stroke-width:0.6;" x="99" xlink:href="#m0cb60b688e" y="442.252988"/>
      </g>
     </g>
    </g>
    <g id="ytick_12">
     <g id="line2d_50">
      <path clip-path="url(#p68e2955192)" d="M 99 418.559956 
L 712.8 418.559956 
" style="fill:none;stroke:#b0b0b0;stroke-linecap:square;stroke-width:0.8;"/>
     </g>
     <g id="line2d_51">
      <g>
       <use style="stroke:#000000;stroke-width:0.6;" x="99" xlink:href="#m0cb60b688e" y="418.559956"/>
      </g>
     </g>
    </g>
    <g id="ytick_13">
     <g id="line2d_52">
      <path clip-path="url(#p68e2955192)" d="M 99 401.749483 
L 712.8 401.749483 
" style="fill:none;stroke:#b0b0b0;stroke-linecap:square;stroke-width:0.8;"/>
     </g>
     <g id="line2d_53">
      <g>
       <use style="stroke:#000000;stroke-width:0.6;" x="99" xlink:href="#m0cb60b688e" y="401.749483"/>
      </g>
     </g>
    </g>
    <g id="ytick_14">
     <g id="line2d_54">
      <path clip-path="url(#p68e2955192)" d="M 99 388.710266 
L 712.8 388.710266 
" style="fill:none;stroke:#b0b0b0;stroke-linecap:square;stroke-width:0.8;"/>
     </g>
     <g id="line2d_55">
      <g>
       <use style="stroke:#000000;stroke-width:0.6;" x="99" xlink:href="#m0cb60b688e" y="388.710266"/>
      </g>
     </g>
    </g>
    <g id="ytick_15">
     <g id="line2d_56">
      <path clip-path="url(#p68e2955192)" d="M 99 378.056451 
L 712.8 378.056451 
" style="fill:none;stroke:#b0b0b0;stroke-linecap:square;stroke-width:0.8;"/>
     </g>
     <g id="line2d_57">
      <g>
       <use style="stroke:#000000;stroke-width:0.6;" x="99" xlink:href="#m0cb60b688e" y="378.056451"/>
      </g>
     </g>
    </g>
    <g id="ytick_16">
     <g id="line2d_58">
      <path clip-path="url(#p68e2955192)" d="M 99 369.048778 
L 712.8 369.048778 
" style="fill:none;stroke:#b0b0b0;stroke-linecap:square;stroke-width:0.8;"/>
     </g>
     <g id="line2d_59">
      <g>
       <use style="stroke:#000000;stroke-width:0.6;" x="99" xlink:href="#m0cb60b688e" y="369.048778"/>
      </g>
     </g>
    </g>
    <g id="ytick_17">
     <g id="line2d_60">
      <path clip-path="url(#p68e2955192)" d="M 99 361.245977 
L 712.8 361.245977 
" style="fill:none;stroke:#b0b0b0;stroke-linecap:square;stroke-width:0.8;"/>
     </g>
     <g id="line2d_61">
      <g>
       <use style="stroke:#000000;stroke-width:0.6;" x="99" xlink:href="#m0cb60b688e" y="361.245977"/>
      </g>
     </g>
    </g>
    <g id="ytick_18">
     <g id="line2d_62">
      <path clip-path="url(#p68e2955192)" d="M 99 354.363419 
L 712.8 354.363419 
" style="fill:none;stroke:#b0b0b0;stroke-linecap:square;stroke-width:0.8;"/>
     </g>
     <g id="line2d_63">
      <g>
       <use style="stroke:#000000;stroke-width:0.6;" x="99" xlink:href="#m0cb60b688e" y="354.363419"/>
      </g>
     </g>
    </g>
    <g id="ytick_19">
     <g id="line2d_64">
      <path clip-path="url(#p68e2955192)" d="M 99 307.703255 
L 712.8 307.703255 
" style="fill:none;stroke:#b0b0b0;stroke-linecap:square;stroke-width:0.8;"/>
     </g>
     <g id="line2d_65">
      <g>
       <use style="stroke:#000000;stroke-width:0.6;" x="99" xlink:href="#m0cb60b688e" y="307.703255"/>
      </g>
     </g>
    </g>
    <g id="ytick_20">
     <g id="line2d_66">
      <path clip-path="url(#p68e2955192)" d="M 99 284.010223 
L 712.8 284.010223 
" style="fill:none;stroke:#b0b0b0;stroke-linecap:square;stroke-width:0.8;"/>
     </g>
     <g id="line2d_67">
      <g>
       <use style="stroke:#000000;stroke-width:0.6;" x="99" xlink:href="#m0cb60b688e" y="284.010223"/>
      </g>
     </g>
    </g>
    <g id="ytick_21">
     <g id="line2d_68">
      <path clip-path="url(#p68e2955192)" d="M 99 267.199749 
L 712.8 267.199749 
" style="fill:none;stroke:#b0b0b0;stroke-linecap:square;stroke-width:0.8;"/>
     </g>
     <g id="line2d_69">
      <g>
       <use style="stroke:#000000;stroke-width:0.6;" x="99" xlink:href="#m0cb60b688e" y="267.199749"/>
      </g>
     </g>
    </g>
    <g id="ytick_22">
     <g id="line2d_70">
      <path clip-path="url(#p68e2955192)" d="M 99 254.160532 
L 712.8 254.160532 
" style="fill:none;stroke:#b0b0b0;stroke-linecap:square;stroke-width:0.8;"/>
     </g>
     <g id="line2d_71">
      <g>
       <use style="stroke:#000000;stroke-width:0.6;" x="99" xlink:href="#m0cb60b688e" y="254.160532"/>
      </g>
     </g>
    </g>
    <g id="ytick_23">
     <g id="line2d_72">
      <path clip-path="url(#p68e2955192)" d="M 99 243.506717 
L 712.8 243.506717 
" style="fill:none;stroke:#b0b0b0;stroke-linecap:square;stroke-width:0.8;"/>
     </g>
     <g id="line2d_73">
      <g>
       <use style="stroke:#000000;stroke-width:0.6;" x="99" xlink:href="#m0cb60b688e" y="243.506717"/>
      </g>
     </g>
    </g>
    <g id="ytick_24">
     <g id="line2d_74">
      <path clip-path="url(#p68e2955192)" d="M 99 234.499044 
L 712.8 234.499044 
" style="fill:none;stroke:#b0b0b0;stroke-linecap:square;stroke-width:0.8;"/>
     </g>
     <g id="line2d_75">
      <g>
       <use style="stroke:#000000;stroke-width:0.6;" x="99" xlink:href="#m0cb60b688e" y="234.499044"/>
      </g>
     </g>
    </g>
    <g id="ytick_25">
     <g id="line2d_76">
      <path clip-path="url(#p68e2955192)" d="M 99 226.696243 
L 712.8 226.696243 
" style="fill:none;stroke:#b0b0b0;stroke-linecap:square;stroke-width:0.8;"/>
     </g>
     <g id="line2d_77">
      <g>
       <use style="stroke:#000000;stroke-width:0.6;" x="99" xlink:href="#m0cb60b688e" y="226.696243"/>
      </g>
     </g>
    </g>
    <g id="ytick_26">
     <g id="line2d_78">
      <path clip-path="url(#p68e2955192)" d="M 99 219.813685 
L 712.8 219.813685 
" style="fill:none;stroke:#b0b0b0;stroke-linecap:square;stroke-width:0.8;"/>
     </g>
     <g id="line2d_79">
      <g>
       <use style="stroke:#000000;stroke-width:0.6;" x="99" xlink:href="#m0cb60b688e" y="219.813685"/>
      </g>
     </g>
    </g>
    <g id="ytick_27">
     <g id="line2d_80">
      <path clip-path="url(#p68e2955192)" d="M 99 173.153521 
L 712.8 173.153521 
" style="fill:none;stroke:#b0b0b0;stroke-linecap:square;stroke-width:0.8;"/>
     </g>
     <g id="line2d_81">
      <g>
       <use style="stroke:#000000;stroke-width:0.6;" x="99" xlink:href="#m0cb60b688e" y="173.153521"/>
      </g>
     </g>
    </g>
    <g id="ytick_28">
     <g id="line2d_82">
      <path clip-path="url(#p68e2955192)" d="M 99 149.460489 
L 712.8 149.460489 
" style="fill:none;stroke:#b0b0b0;stroke-linecap:square;stroke-width:0.8;"/>
     </g>
     <g id="line2d_83">
      <g>
       <use style="stroke:#000000;stroke-width:0.6;" x="99" xlink:href="#m0cb60b688e" y="149.460489"/>
      </g>
     </g>
    </g>
    <g id="ytick_29">
     <g id="line2d_84">
      <path clip-path="url(#p68e2955192)" d="M 99 132.650015 
L 712.8 132.650015 
" style="fill:none;stroke:#b0b0b0;stroke-linecap:square;stroke-width:0.8;"/>
     </g>
     <g id="line2d_85">
      <g>
       <use style="stroke:#000000;stroke-width:0.6;" x="99" xlink:href="#m0cb60b688e" y="132.650015"/>
      </g>
     </g>
    </g>
    <g id="ytick_30">
     <g id="line2d_86">
      <path clip-path="url(#p68e2955192)" d="M 99 119.610798 
L 712.8 119.610798 
" style="fill:none;stroke:#b0b0b0;stroke-linecap:square;stroke-width:0.8;"/>
     </g>
     <g id="line2d_87">
      <g>
       <use style="stroke:#000000;stroke-width:0.6;" x="99" xlink:href="#m0cb60b688e" y="119.610798"/>
      </g>
     </g>
    </g>
    <g id="ytick_31">
     <g id="line2d_88">
      <path clip-path="url(#p68e2955192)" d="M 99 108.956983 
L 712.8 108.956983 
" style="fill:none;stroke:#b0b0b0;stroke-linecap:square;stroke-width:0.8;"/>
     </g>
     <g id="line2d_89">
      <g>
       <use style="stroke:#000000;stroke-width:0.6;" x="99" xlink:href="#m0cb60b688e" y="108.956983"/>
      </g>
     </g>
    </g>
    <g id="ytick_32">
     <g id="line2d_90">
      <path clip-path="url(#p68e2955192)" d="M 99 99.94931 
L 712.8 99.94931 
" style="fill:none;stroke:#b0b0b0;stroke-linecap:square;stroke-width:0.8;"/>
     </g>
     <g id="line2d_91">
      <g>
       <use style="stroke:#000000;stroke-width:0.6;" x="99" xlink:href="#m0cb60b688e" y="99.94931"/>
      </g>
     </g>
    </g>
    <g id="ytick_33">
     <g id="line2d_92">
      <path clip-path="url(#p68e2955192)" d="M 99 92.146509 
L 712.8 92.146509 
" style="fill:none;stroke:#b0b0b0;stroke-linecap:square;stroke-width:0.8;"/>
     </g>
     <g id="line2d_93">
      <g>
       <use style="stroke:#000000;stroke-width:0.6;" x="99" xlink:href="#m0cb60b688e" y="92.146509"/>
      </g>
     </g>
    </g>
    <g id="ytick_34">
     <g id="line2d_94">
      <path clip-path="url(#p68e2955192)" d="M 99 85.263951 
L 712.8 85.263951 
" style="fill:none;stroke:#b0b0b0;stroke-linecap:square;stroke-width:0.8;"/>
     </g>
     <g id="line2d_95">
      <g>
       <use style="stroke:#000000;stroke-width:0.6;" x="99" xlink:href="#m0cb60b688e" y="85.263951"/>
      </g>
     </g>
    </g>
   </g>
   <g id="line2d_96">
    <path clip-path="url(#p68e2955192)" d="M 114.432422 613 
L 114.434043 429.213772 
L 115.621277 418.559956 
L 116.808511 418.559956 
L 119.182979 373.379218 
L 120.370213 373.379218 
L 121.557447 357.703425 
L 122.744681 348.20676 
L 125.119149 348.20676 
L 126.306383 342.637386 
L 127.493617 335.167544 
L 128.680851 342.637386 
L 129.868085 335.167544 
L 132.242553 335.167544 
L 133.429787 340.039882 
L 134.617021 342.637386 
L 136.991489 342.637386 
L 138.178723 345.355746 
L 140.553191 345.355746 
L 141.740426 348.20676 
L 142.92766 354.363419 
L 144.114894 357.703425 
L 145.302128 357.703425 
L 146.489362 361.245977 
L 147.676596 361.245977 
L 148.86383 365.017234 
L 150.051064 373.379218 
L 151.238298 383.140891 
L 152.425532 388.710266 
L 154.8 388.710266 
L 155.987234 394.866924 
L 157.174468 401.749483 
L 158.361702 401.749483 
L 159.548936 418.559956 
L 160.73617 429.213772 
L 161.923404 429.213772 
L 163.110638 442.252988 
L 165.485106 442.252988 
L 166.67234 429.213772 
L 169.046809 429.213772 
L 170.234043 442.252988 
L 171.421277 442.252988 
L 172.608511 459.063462 
L 173.795745 442.252988 
L 174.982979 459.063462 
L 176.170213 442.252988 
L 177.357447 442.252988 
L 178.544681 429.213772 
L 179.731915 429.213772 
L 180.919149 418.559956 
L 182.106383 429.213772 
L 183.293617 442.252988 
L 184.480851 429.213772 
L 185.668085 429.213772 
L 186.855319 418.559956 
L 193.978723 418.559956 
L 195.165957 409.552284 
L 196.353191 394.866924 
L 197.540426 388.710266 
L 198.72766 383.140891 
L 199.914894 373.379218 
L 201.102128 348.20676 
L 202.289362 342.637386 
L 203.476596 330.670386 
L 204.66383 330.670386 
L 205.851064 318.944354 
L 207.038298 310.700538 
L 208.225532 307.703255 
L 209.412766 303.477254 
L 210.6 307.703255 
L 211.787234 307.703255 
L 212.974468 310.700538 
L 214.161702 306.260361 
L 215.348936 310.700538 
L 216.53617 310.700538 
L 217.723404 306.260361 
L 220.097872 306.260361 
L 221.285106 302.13388 
L 222.47234 303.477254 
L 223.659574 303.477254 
L 224.846809 300.820696 
L 226.034043 300.820696 
L 227.221277 295.844567 
L 230.782979 292.372207 
L 231.970213 288.041766 
L 233.157447 281.159208 
L 234.344681 275.843344 
L 236.719149 275.843344 
L 237.906383 279.33299 
L 239.093617 270.971006 
L 240.280851 270.971006 
L 241.468085 260.970093 
L 242.655319 256.545933 
L 243.842553 255.341061 
L 245.029787 254.747816 
L 247.404255 249.124807 
L 248.591489 247.018842 
L 249.778723 249.124807 
L 250.965957 247.53826 
L 252.153191 243.995709 
L 254.52766 232.448511 
L 255.714894 230.4675 
L 260.46383 230.4675 
L 261.651064 223.153691 
L 262.838298 214.24431 
L 264.025532 214.24431 
L 265.212766 209.431026 
L 266.4 206.000494 
L 267.587234 204.23345 
L 268.774468 204.23345 
L 271.148936 207.822644 
L 274.710638 207.822644 
L 275.897872 214.837556 
L 277.085106 216.042427 
L 278.27234 220.795795 
L 279.459574 224.898125 
L 280.646809 232.046899 
L 285.395745 232.046899 
L 286.582979 237.937342 
L 287.770213 237.496327 
L 288.957447 235.764816 
L 290.144681 228.551453 
L 291.331915 228.175669 
L 292.519149 228.175669 
L 293.706383 234.08314 
L 300.829787 234.08314 
L 302.017021 234.499044 
L 304.391489 234.499044 
L 305.578723 234.08314 
L 306.765957 234.08314 
L 307.953191 233.670176 
L 309.140426 233.670176 
L 310.32766 229.310349 
L 313.889362 229.310349 
L 315.076596 226.332166 
L 318.638298 226.332166 
L 319.825532 224.545048 
L 324.574468 224.545048 
L 325.761702 225.970343 
L 334.07234 225.970343 
L 335.259574 221.126868 
L 336.446809 214.837556 
L 337.634043 209.159869 
L 338.821277 209.159869 
L 340.008511 206.515336 
L 341.195745 206.515336 
L 342.382979 204.732891 
L 343.570213 203.985322 
L 345.944681 200.384539 
L 347.131915 199.690263 
L 348.319149 199.690263 
L 349.506383 198.551159 
L 350.693617 196.992821 
L 351.880851 193.995538 
L 353.068085 191.543393 
L 354.255319 189.575726 
L 355.442553 189.575726 
L 356.629787 186.192737 
L 357.817021 181.797116 
L 359.004255 177.867286 
L 360.191489 176.613957 
L 361.378723 176.613957 
L 362.565957 173.007617 
L 363.753191 171.143301 
L 364.940426 170.163542 
L 366.12766 169.610969 
L 368.502128 169.610969 
L 370.876596 166.01183 
L 372.06383 165.113812 
L 373.251064 159.186758 
L 374.438298 147.075088 
L 375.625532 140.286099 
L 378 140.036912 
L 379.187234 138.969216 
L 380.374468 137.522353 
L 381.561702 137.522353 
L 382.748936 136.033004 
L 383.93617 134.959379 
L 385.123404 134.959379 
L 386.310638 134.354621 
L 387.497872 132.504112 
L 389.87234 124.673994 
L 391.059574 122.546604 
L 392.246809 121.150188 
L 393.434043 118.798393 
L 394.621277 117.15065 
L 395.808511 116.482186 
L 396.995745 115.384798 
L 400.557447 115.384798 
L 401.744681 114.307639 
L 402.931915 114.307639 
L 404.119149 112.469108 
L 405.306383 110.937993 
L 410.055319 110.937993 
L 411.242553 112.262626 
L 412.429787 113.829321 
L 413.617021 112.262626 
L 414.804255 109.103251 
L 415.991489 105.003403 
L 417.178723 105.003403 
L 418.365957 102.552506 
L 420.740426 102.552506 
L 421.92766 105.003403 
L 423.114894 104.145058 
L 424.302128 105.967005 
L 425.489362 106.852741 
L 426.676596 105.967005 
L 429.051064 105.967005 
L 430.238298 107.13526 
L 432.612766 110.937993 
L 433.8 114.414466 
L 434.987234 118.282035 
L 436.174468 118.856049 
L 437.361702 123.663215 
L 439.73617 131.780011 
L 440.923404 136.890626 
L 442.110638 137.840796 
L 443.297872 140.703786 
L 444.485106 146.055591 
L 448.046809 146.055591 
L 449.234043 152.049139 
L 450.421277 152.049139 
L 451.608511 149.753393 
L 452.795745 149.753393 
L 453.982979 152.355345 
L 455.170213 152.355345 
L 457.544681 147.075088 
L 458.731915 148.017595 
L 459.919149 148.303338 
L 462.293617 148.303338 
L 463.480851 151.441499 
L 464.668085 151.441499 
L 465.855319 149.55796 
L 467.042553 151.441499 
L 468.229787 152.869282 
L 470.604255 152.869282 
L 471.791489 155.942686 
L 472.978723 165.625274 
L 474.165957 165.625274 
L 475.353191 166.400961 
L 476.540426 175.386947 
L 478.914894 175.386947 
L 480.102128 178.825245 
L 481.289362 178.825245 
L 482.476596 179.310179 
L 483.66383 181.627987 
L 484.851064 184.571962 
L 487.225532 184.571962 
L 488.412766 182.478572 
L 490.787234 182.478572 
L 493.161702 193.995538 
L 494.348936 185.286762 
L 495.53617 185.286762 
L 496.723404 184.928269 
L 497.910638 190.946105 
L 499.097872 190.946105 
L 500.285106 193.372788 
L 501.47234 193.787216 
L 502.659574 193.787216 
L 503.846809 188.616194 
L 505.034043 195.048435 
L 510.970213 195.048435 
L 512.157447 212.499876 
L 513.344681 212.499876 
L 514.531915 209.977144 
L 515.719149 224.545048 
L 518.093617 224.545048 
L 519.280851 191.945005 
L 520.468085 197.212913 
L 521.655319 183.8658 
L 522.842553 189.575726 
L 524.029787 190.748358 
L 535.902128 190.748358 
L 537.089362 199.460659 
L 539.46383 199.460659 
L 540.651064 210.806012 
L 544.212766 210.806012 
L 545.4 198.551159 
L 546.587234 197.878205 
L 547.774468 199.690263 
L 548.961702 189.575726 
L 551.33617 189.575726 
L 552.523404 200.61781 
L 553.710638 189.575726 
L 554.897872 189.575726 
L 556.085106 187.859753 
L 557.27234 182.307462 
L 560.834043 182.307462 
L 562.021277 187.859753 
L 563.208511 187.859753 
L 564.395745 180.956322 
L 565.582979 178.344302 
L 567.957447 178.344302 
L 569.144681 170.163542 
L 570.331915 178.344302 
L 571.519149 173.007617 
L 572.706383 174.33405 
L 573.893617 175.844062 
L 581.017021 175.844062 
L 582.204255 182.136851 
L 585.765957 182.136851 
L 586.953191 183.16807 
L 588.140426 183.690585 
L 589.32766 186.927768 
L 590.514894 192.349395 
L 596.451064 192.349395 
L 597.638298 194.624997 
L 598.825532 199.920773 
L 602.387234 199.920773 
L 603.574468 210.252129 
L 604.761702 217.272667 
L 605.948936 219.813685 
L 610.697872 219.813685 
L 611.885106 223.845228 
L 613.07234 223.845228 
L 614.259574 227.802286 
L 615.446809 233.26011 
L 620.195745 233.26011 
L 622.570213 242.54084 
L 623.757447 249.663375 
L 626.131915 249.663375 
L 627.319149 256.545933 
L 628.506383 256.545933 
L 629.693617 263.657197 
L 635.629787 263.657197 
L 636.817021 269.433175 
L 638.004255 269.433175 
L 639.191489 313.859913 
L 642.753191 313.859913 
L 643.940426 262.298201 
L 645.12766 313.859913 
L 646.314894 293.506887 
L 646.317709 613 
M 703.298415 613 
L 703.302128 191.343618 
L 704.489362 191.343618 
L 705.676596 146.516795 
L 706.86383 147.075088 
L 712.8 147.075088 
L 712.8 147.075088 
" style="fill:none;stroke:#1f77b4;stroke-linecap:square;stroke-width:1.5;"/>
   </g>
   <g id="line2d_97">
    <path clip-path="url(#p68e2955192)" d="M 269.96091 613 
L 269.961702 523.26 
L 271.148936 523.26 
L 271.149728 613 
M 296.080059 613 
L 296.080851 523.26 
L 299.642553 523.26 
L 299.643345 613 
M 306.765165 613 
L 306.765957 523.26 
L 306.76675 613 
M 376.811974 613 
L 376.812766 523.26 
L 378 482.756494 
L 379.187234 482.756494 
L 380.374468 523.26 
L 388.685106 523.26 
L 388.685898 613 
M 401.743889 613 
L 401.744681 523.26 
L 404.119149 523.26 
L 404.119941 613 
M 406.492825 613 
L 406.493617 523.26 
L 406.494409 613 
M 415.990697 613 
L 415.991489 523.26 
L 417.178723 482.756494 
L 418.365957 523.26 
L 419.553191 482.756494 
L 420.740426 523.26 
L 421.92766 482.756494 
L 423.114894 482.756494 
L 424.302128 459.063462 
L 425.489362 442.252988 
L 427.86383 442.252988 
L 429.051064 418.559956 
L 430.238298 418.559956 
L 431.425532 429.213772 
L 432.612766 442.252988 
L 434.987234 442.252988 
L 436.174468 459.063462 
L 437.361702 442.252988 
L 439.73617 442.252988 
L 440.923404 459.063462 
L 442.110638 482.756494 
L 451.608511 482.756494 
L 452.795745 459.063462 
L 453.982979 482.756494 
L 468.229787 482.756494 
L 469.417021 523.26 
L 470.604255 482.756494 
L 481.289362 482.756494 
L 482.476596 523.26 
L 487.225532 523.26 
L 487.226324 613 
M 711.611974 613 
L 711.612766 523.26 
L 711.613558 613 
" style="fill:none;stroke:#ff7f0e;stroke-linecap:square;stroke-width:1.5;"/>
   </g>
   <g id="patch_3">
    <path d="M 99 544.68 
L 99 73.44 
" style="fill:none;stroke:#000000;stroke-linecap:square;stroke-linejoin:miter;stroke-width:0.8;"/>
   </g>
   <g id="patch_4">
    <path d="M 712.8 544.68 
L 712.8 73.44 
" style="fill:none;stroke:#000000;stroke-linecap:square;stroke-linejoin:miter;stroke-width:0.8;"/>
   </g>
   <g id="patch_5">
    <path d="M 99 544.68 
L 712.8 544.68 
" style="fill:none;stroke:#000000;stroke-linecap:square;stroke-linejoin:miter;stroke-width:0.8;"/>
   </g>
   <g id="patch_6">
    <path d="M 99 73.44 
L 712.8 73.44 
" style="fill:none;stroke:#000000;stroke-linecap:square;stroke-linejoin:miter;stroke-width:0.8;"/>
   </g>
   <g id="legend_1">
    <g id="patch_7">
     <path d="M 616.653125 110.79625 
L 705.8 110.79625 
Q 707.8 110.79625 707.8 108.79625 
L 707.8 80.44 
Q 707.8 78.44 705.8 78.44 
L 616.653125 78.44 
Q 614.653125 78.44 614.653125 80.44 
L 614.653125 108.79625 
Q 614.653125 110.79625 616.653125 110.79625 
z
" style="fill:#ffffff;opacity:0.8;stroke:#cccccc;stroke-linejoin:miter;"/>
    </g>
    <g id="line2d_98">
     <path d="M 618.653125 86.538437 
L 638.653125 86.538437 
" style="fill:none;stroke:#1f77b4;stroke-linecap:square;stroke-width:1.5;"/>
    </g>
    <g id="line2d_99"/>
    <g id="text_12">
     <!-- Avg Cases -->
     <g transform="translate(646.653125 90.038437)scale(0.1 -0.1)">
      <defs>
       <path d="M 191 3500 
L 800 3500 
L 1894 563 
L 2988 3500 
L 3597 3500 
L 2284 0 
L 1503 0 
L 191 3500 
z
" id="DejaVuSans-76" transform="scale(0.015625)"/>
       <path d="M 2906 1791 
Q 2906 2416 2648 2759 
Q 2391 3103 1925 3103 
Q 1463 3103 1205 2759 
Q 947 2416 947 1791 
Q 947 1169 1205 825 
Q 1463 481 1925 481 
Q 2391 481 2648 825 
Q 2906 1169 2906 1791 
z
M 3481 434 
Q 3481 -459 3084 -895 
Q 2688 -1331 1869 -1331 
Q 1566 -1331 1297 -1286 
Q 1028 -1241 775 -1147 
L 775 -588 
Q 1028 -725 1275 -790 
Q 1522 -856 1778 -856 
Q 2344 -856 2625 -561 
Q 2906 -266 2906 331 
L 2906 616 
Q 2728 306 2450 153 
Q 2172 0 1784 0 
Q 1141 0 747 490 
Q 353 981 353 1791 
Q 353 2603 747 3093 
Q 1141 3584 1784 3584 
Q 2172 3584 2450 3431 
Q 2728 3278 2906 2969 
L 2906 3500 
L 3481 3500 
L 3481 434 
z
" id="DejaVuSans-67" transform="scale(0.015625)"/>
       <path id="DejaVuSans-20" transform="scale(0.015625)"/>
       <path d="M 4122 4306 
L 4122 3641 
Q 3803 3938 3442 4084 
Q 3081 4231 2675 4231 
Q 1875 4231 1450 3742 
Q 1025 3253 1025 2328 
Q 1025 1406 1450 917 
Q 1875 428 2675 428 
Q 3081 428 3442 575 
Q 3803 722 4122 1019 
L 4122 359 
Q 3791 134 3420 21 
Q 3050 -91 2638 -91 
Q 1578 -91 968 557 
Q 359 1206 359 2328 
Q 359 3453 968 4101 
Q 1578 4750 2638 4750 
Q 3056 4750 3426 4639 
Q 3797 4528 4122 4306 
z
" id="DejaVuSans-43" transform="scale(0.015625)"/>
       <path d="M 2834 3397 
L 2834 2853 
Q 2591 2978 2328 3040 
Q 2066 3103 1784 3103 
Q 1356 3103 1142 2972 
Q 928 2841 928 2578 
Q 928 2378 1081 2264 
Q 1234 2150 1697 2047 
L 1894 2003 
Q 2506 1872 2764 1633 
Q 3022 1394 3022 966 
Q 3022 478 2636 193 
Q 2250 -91 1575 -91 
Q 1294 -91 989 -36 
Q 684 19 347 128 
L 347 722 
Q 666 556 975 473 
Q 1284 391 1588 391 
Q 1994 391 2212 530 
Q 2431 669 2431 922 
Q 2431 1156 2273 1281 
Q 2116 1406 1581 1522 
L 1381 1569 
Q 847 1681 609 1914 
Q 372 2147 372 2553 
Q 372 3047 722 3315 
Q 1072 3584 1716 3584 
Q 2034 3584 2315 3537 
Q 2597 3491 2834 3397 
z
" id="DejaVuSans-73" transform="scale(0.015625)"/>
      </defs>
      <use xlink:href="#DejaVuSans-41"/>
      <use x="62.533203" xlink:href="#DejaVuSans-76"/>
      <use x="121.712891" xlink:href="#DejaVuSans-67"/>
      <use x="185.189453" xlink:href="#DejaVuSans-20"/>
      <use x="216.976562" xlink:href="#DejaVuSans-43"/>
      <use x="286.800781" xlink:href="#DejaVuSans-61"/>
      <use x="348.080078" xlink:href="#DejaVuSans-73"/>
      <use x="400.179688" xlink:href="#DejaVuSans-65"/>
      <use x="461.703125" xlink:href="#DejaVuSans-73"/>
     </g>
    </g>
    <g id="line2d_100">
     <path d="M 618.653125 101.216562 
L 638.653125 101.216562 
" style="fill:none;stroke:#ff7f0e;stroke-linecap:square;stroke-width:1.5;"/>
    </g>
    <g id="line2d_101"/>
    <g id="text_13">
     <!-- Avg Deaths -->
     <g transform="translate(646.653125 104.716562)scale(0.1 -0.1)">
      <defs>
       <path d="M 3513 2113 
L 3513 0 
L 2938 0 
L 2938 2094 
Q 2938 2591 2744 2837 
Q 2550 3084 2163 3084 
Q 1697 3084 1428 2787 
Q 1159 2491 1159 1978 
L 1159 0 
L 581 0 
L 581 4863 
L 1159 4863 
L 1159 2956 
Q 1366 3272 1645 3428 
Q 1925 3584 2291 3584 
Q 2894 3584 3203 3211 
Q 3513 2838 3513 2113 
z
" id="DejaVuSans-68" transform="scale(0.015625)"/>
      </defs>
      <use xlink:href="#DejaVuSans-41"/>
      <use x="62.533203" xlink:href="#DejaVuSans-76"/>
      <use x="121.712891" xlink:href="#DejaVuSans-67"/>
      <use x="185.189453" xlink:href="#DejaVuSans-20"/>
      <use x="216.976562" xlink:href="#DejaVuSans-44"/>
      <use x="293.978516" xlink:href="#DejaVuSans-65"/>
      <use x="355.501953" xlink:href="#DejaVuSans-61"/>
      <use x="416.78125" xlink:href="#DejaVuSans-74"/>
      <use x="455.990234" xlink:href="#DejaVuSans-68"/>
      <use x="519.369141" xlink:href="#DejaVuSans-73"/>
     </g>
    </g>
   </g>
  </g>
 </g>
 <defs>
  <clipPath id="p68e2955192">
   <rect height="471.24" width="613.8" x="99" y="73.44"/>
  </clipPath>
 </defs>
</svg>
