<?xml version="1.0" encoding="utf-8" standalone="no"?>
<!DOCTYPE svg PUBLIC "-//W3C//DTD SVG 1.1//EN"
  "http://www.w3.org/Graphics/SVG/1.1/DTD/svg11.dtd">
<svg height="612pt" version="1.1" viewBox="0 0 792 612" width="792pt" xmlns="http://www.w3.org/2000/svg" xmlns:xlink="http://www.w3.org/1999/xlink">
 <metadata>
  <rdf:RDF xmlns:cc="http://creativecommons.org/ns#" xmlns:dc="http://purl.org/dc/elements/1.1/" xmlns:rdf="http://www.w3.org/1999/02/22-rdf-syntax-ns#">
   <cc:Work>
    <dc:type rdf:resource="http://purl.org/dc/dcmitype/StillImage"/>
    <dc:format>image/svg+xml</dc:format>
    <dc:creator>
     <cc:Agent>
      <dc:title>Matplotlib v3.4.2, https://matplotlib.org/</dc:title>
     </cc:Agent>
    </dc:creator>
   </cc:Work>
  </rdf:RDF>
 </metadata>
 <defs>
  <style type="text/css">*{stroke-linecap:butt;stroke-linejoin:round;}</style>
 </defs>
 <g id="figure_1">
  <g id="patch_1">
   <path d="M 0 612 
L 792 612 
L 792 0 
L 0 0 
z
" style="fill:#ffffff;"/>
  </g>
  <g id="axes_1">
   <g id="patch_2">
    <path d="M 99 544.68 
L 712.8 544.68 
L 712.8 73.44 
L 99 73.44 
z
" style="fill:#ffffff;"/>
   </g>
   <g id="PolyCollection_1">
    <path clip-path="url(#p68e2955192)" d="M 99 135032.490349 
L 99 135032.490349 
L 100.201174 135032.490349 
L 101.402348 135032.490349 
L 102.603523 135032.490349 
L 103.804697 135032.490349 
L 105.005871 135032.490349 
L 106.207045 135032.490349 
L 107.408219 135032.490349 
L 108.609393 135032.490349 
L 109.810568 135032.490349 
L 111.011742 135032.490349 
L 112.212916 135032.490349 
L 113.41409 135032.490349 
L 114.615264 338.041937 
L 115.816438 333.781687 
L 117.017613 322.975897 
L 118.218787 318.240318 
L 119.419961 318.240318 
L 120.621135 318.240318 
L 121.822309 318.240318 
L 123.023483 318.240318 
L 124.224658 318.240318 
L 125.425832 318.240318 
L 126.627006 318.240318 
L 127.82818 318.240318 
L 129.029354 318.240318 
L 130.230528 317.199919 
L 131.431703 318.240318 
L 132.632877 318.240318 
L 133.834051 320.378394 
L 135.035225 329.811044 
L 136.236399 325.694257 
L 137.437573 325.694257 
L 138.638748 325.694257 
L 139.839922 325.694257 
L 141.041096 325.694257 
L 142.24227 325.694257 
L 143.443444 325.694257 
L 144.644618 326.899129 
L 145.845793 326.899129 
L 147.046967 335.636897 
L 148.248141 342.637386 
L 149.449315 342.637386 
L 150.650489 345.914929 
L 151.851663 356.344429 
L 153.052838 361.245977 
L 154.254012 361.245977 
L 155.455186 361.245977 
L 156.65636 363.479403 
L 157.857534 365.801598 
L 159.058708 365.801598 
L 160.259883 365.801598 
L 161.461057 365.801598 
L 162.662231 365.801598 
L 163.863405 378.056451 
L 165.064579 384.213109 
L 166.265753 384.213109 
L 167.466928 384.213109 
L 168.668102 384.213109 
L 169.869276 384.213109 
L 171.07045 384.213109 
L 172.271624 406.305103 
L 173.472798 418.559956 
L 174.673973 406.305103 
L 175.875147 418.559956 
L 177.076321 406.305103 
L 178.277495 401.749483 
L 179.478669 401.749483 
L 180.679843 401.749483 
L 181.881018 401.749483 
L 183.082192 401.749483 
L 184.283366 401.749483 
L 185.48454 401.749483 
L 186.685714 401.749483 
L 187.886888 401.749483 
L 189.088063 401.749483 
L 190.289237 401.749483 
L 191.490411 392.325906 
L 192.691585 381.053734 
L 193.892759 381.053734 
L 195.093933 343.171035 
L 196.295108 341.584488 
L 197.496282 311.943865 
L 198.697456 306.546104 
L 199.89863 295.844567 
L 201.099804 294.430767 
L 202.300978 294.430767 
L 203.502153 294.430767 
L 204.703327 294.430767 
L 205.904501 294.430767 
L 207.105675 294.430767 
L 208.306849 293.736492 
L 209.508023 293.736492 
L 210.709198 289.307539 
L 211.910372 293.736492 
L 213.111546 293.736492 
L 214.31272 293.736492 
L 215.513894 293.050368 
L 216.715068 295.36949 
L 217.916243 293.050368 
L 219.117417 293.050368 
L 220.318591 293.050368 
L 221.519765 293.050368 
L 222.720939 280.973996 
L 223.922114 280.973996 
L 225.123288 274.338518 
L 226.324462 274.338518 
L 227.525636 276.35369 
L 228.72681 274.835833 
L 229.927984 274.835833 
L 231.129159 263.932831 
L 232.330333 261.49772 
L 233.531507 258.526943 
L 234.732681 255.22193 
L 235.933855 250.206953 
L 237.135029 250.206953 
L 238.336204 250.206953 
L 239.537378 250.206953 
L 240.738552 250.206953 
L 241.939726 250.206953 
L 243.1409 246.401573 
L 244.342074 244.094 
L 245.543249 232.934116 
L 246.744423 230.311883 
L 247.945597 230.311883 
L 249.146771 230.311883 
L 250.347945 229.15778 
L 251.549119 229.15778 
L 252.750294 229.15778 
L 253.951468 211.196878 
L 255.152642 204.283203 
L 256.353816 204.283203 
L 257.55499 204.283203 
L 258.756164 204.283203 
L 259.957339 204.283203 
L 261.158513 203.296115 
L 262.359687 197.478121 
L 263.560861 197.478121 
L 264.762035 193.207836 
L 265.963209 193.207836 
L 267.164384 193.207836 
L 268.365558 193.207836 
L 269.566732 190.669446 
L 270.767906 188.085659 
L 271.96908 188.085659 
L 273.170254 188.085659 
L 274.371429 188.085659 
L 275.572603 188.085659 
L 276.773777 188.085659 
L 277.974951 188.085659 
L 279.176125 190.669446 
L 280.377299 190.669446 
L 281.578474 193.828821 
L 282.779648 193.828821 
L 283.980822 193.828821 
L 285.181996 193.704095 
L 286.38317 206.360407 
L 287.584344 211.25293 
L 288.785519 211.25293 
L 289.986693 211.25293 
L 291.187867 211.25293 
L 292.389041 211.25293 
L 293.590215 211.25293 
L 294.791389 211.25293 
L 295.992564 212.100226 
L 297.193738 212.100226 
L 298.394912 212.100226 
L 299.596086 212.100226 
L 300.79726 212.787022 
L 301.998434 212.787022 
L 303.199609 208.353867 
L 304.400783 210.806012 
L 305.601957 210.806012 
L 306.803131 210.806012 
L 308.004305 210.806012 
L 309.205479 208.353867 
L 310.406654 203.639702 
L 311.607828 203.639702 
L 312.809002 203.639702 
L 314.010176 203.639702 
L 315.21135 203.639702 
L 316.412524 203.639702 
L 317.613699 201.040058 
L 318.814873 202.614942 
L 320.016047 203.051926 
L 321.217221 203.051926 
L 322.418395 203.051926 
L 323.619569 203.051926 
L 324.820744 203.051926 
L 326.021918 203.051926 
L 327.223092 206.567071 
L 328.424266 206.567071 
L 329.62544 206.567071 
L 330.826614 206.567071 
L 332.027789 206.567071 
L 333.228963 206.567071 
L 334.430137 206.567071 
L 335.631311 204.432715 
L 336.832485 204.432715 
L 338.033659 204.432715 
L 339.234834 203.985322 
L 340.436008 201.607844 
L 341.637182 201.607844 
L 342.838356 198.686685 
L 344.03953 198.551159 
L 345.240705 195.133492 
L 346.441879 191.985318 
L 347.643053 180.490708 
L 348.844227 180.490708 
L 350.045401 180.490708 
L 351.246575 180.490708 
L 352.44775 177.299959 
L 353.648924 171.881905 
L 354.850098 162.74369 
L 356.051272 162.74369 
L 357.252446 162.74369 
L 358.45362 162.74369 
L 359.654795 162.74369 
L 360.855969 161.509885 
L 362.057143 161.509885 
L 363.258317 161.509885 
L 364.459491 161.509885 
L 365.660665 161.509885 
L 366.86184 161.509885 
L 368.063014 161.294833 
L 369.264188 158.751278 
L 370.465362 155.336472 
L 371.666536 141.548226 
L 372.86771 138.032699 
L 374.068885 135.693448 
L 375.270059 135.693448 
L 376.471233 135.693448 
L 377.672407 134.868265 
L 378.873581 128.887889 
L 380.074755 128.887889 
L 381.27593 128.887889 
L 382.477104 128.682784 
L 383.678278 127.86949 
L 384.879452 127.86949 
L 386.080626 119.529048 
L 387.2818 116.448963 
L 388.482975 116.993989 
L 389.684149 116.993989 
L 390.885323 116.371515 
L 392.086497 116.371515 
L 393.287671 116.371515 
L 394.488845 111.535454 
L 395.69002 108.820795 
L 396.891194 104.930634 
L 398.092368 104.930634 
L 399.293542 103.957008 
L 400.494716 103.957008 
L 401.69589 103.957008 
L 402.897065 103.957008 
L 404.098239 102.430441 
L 405.299413 102.430441 
L 406.500587 102.430441 
L 407.701761 102.430441 
L 408.902935 101.867027 
L 410.10411 101.867027 
L 411.305284 101.867027 
L 412.506458 102.091741 
L 413.707632 102.091741 
L 414.908806 102.091741 
L 416.10998 102.091741 
L 417.311155 101.867027 
L 418.512329 100.326171 
L 419.713503 96.418545 
L 420.914677 94.959554 
L 422.115851 94.86 
L 423.317025 94.86 
L 424.5182 94.86 
L 425.719374 94.86 
L 426.920548 94.86 
L 428.121722 94.86 
L 429.322896 94.86 
L 430.52407 94.86 
L 431.725245 94.86 
L 432.926419 94.86 
L 434.127593 94.86 
L 435.328767 94.905927 
L 436.529941 97.729764 
L 437.731115 105.231395 
L 438.93229 105.800683 
L 440.133464 105.800683 
L 441.334638 105.800683 
L 442.535812 105.800683 
L 443.736986 106.833955 
L 444.93816 110.566407 
L 446.139335 111.382977 
L 447.340509 122.35031 
L 448.541683 122.35031 
L 449.742857 122.35031 
L 450.944031 129.314066 
L 452.145205 122.35031 
L 453.34638 129.314066 
L 454.547554 121.838154 
L 455.748728 121.838154 
L 456.949902 121.838154 
L 458.151076 123.876548 
L 459.35225 123.876548 
L 460.553425 123.876548 
L 461.754599 123.127061 
L 462.955773 123.127061 
L 464.156947 123.127061 
L 465.358121 123.127061 
L 466.559295 123.127061 
L 467.76047 123.127061 
L 468.961644 135.035416 
L 470.162818 135.035416 
L 471.363992 143.06474 
L 472.565166 143.06474 
L 473.766341 143.06474 
L 474.967515 143.06474 
L 476.168689 143.538036 
L 477.369863 144.068456 
L 478.571037 147.337461 
L 479.772211 149.772972 
L 480.973386 149.772972 
L 482.17456 149.772972 
L 483.375734 149.772972 
L 484.576908 149.772972 
L 485.778082 151.866183 
L 486.979256 155.078579 
L 488.180431 155.078579 
L 489.381605 163.929209 
L 490.582779 163.929209 
L 491.783953 163.929209 
L 492.985127 162.305248 
L 494.186301 162.305248 
L 495.387476 162.305248 
L 496.58865 168.278845 
L 497.789824 168.278845 
L 498.990998 162.135628 
L 500.192172 162.135628 
L 501.393346 162.135628 
L 502.594521 162.135628 
L 503.795695 162.135628 
L 504.996869 162.135628 
L 506.198043 162.135628 
L 507.399217 162.135628 
L 508.600391 129.729477 
L 509.801566 129.729477 
L 511.00274 129.729477 
L 512.203914 131.335533 
L 513.405088 131.335533 
L 514.606262 131.335533 
L 515.807436 149.616521 
L 517.008611 149.616521 
L 518.209785 149.616521 
L 519.410959 149.616521 
L 520.612133 149.616521 
L 521.813307 149.616521 
L 523.014481 149.616521 
L 524.215656 137.332117 
L 525.41683 149.616521 
L 526.618004 149.616521 
L 527.819178 149.616521 
L 529.020352 150.800239 
L 530.221526 150.800239 
L 531.422701 150.800239 
L 532.623875 150.383205 
L 533.825049 150.383205 
L 535.026223 150.383205 
L 536.227397 147.657649 
L 537.428571 147.657649 
L 538.629746 147.657649 
L 539.83092 147.657649 
L 541.032094 147.657649 
L 542.233268 147.657649 
L 543.434442 147.657649 
L 544.635616 147.657649 
L 545.836791 147.657649 
L 547.037965 147.657649 
L 548.239139 147.657649 
L 549.440313 146.221206 
L 550.641487 146.221206 
L 551.842661 146.221206 
L 553.043836 148.418027 
L 554.24501 148.418027 
L 555.446184 148.418027 
L 556.647358 148.418027 
L 557.848532 174.602988 
L 559.049706 148.418027 
L 560.250881 148.418027 
L 561.452055 146.888397 
L 562.653229 146.888397 
L 563.854403 146.888397 
L 565.055577 146.888397 
L 566.256751 130.203874 
L 567.457926 130.203874 
L 568.6591 130.203874 
L 569.860274 130.119877 
L 571.061448 129.369284 
L 572.262622 129.369284 
L 573.463796 129.369284 
L 574.664971 123.463141 
L 575.866145 140.286099 
L 577.067319 140.286099 
L 578.268493 140.286099 
L 579.469667 140.286099 
L 580.670841 140.286099 
L 581.872016 140.286099 
L 583.07319 140.286099 
L 584.274364 140.286099 
L 585.475538 140.286099 
L 586.676712 140.286099 
L 587.877886 141.192074 
L 589.079061 141.192074 
L 590.280235 141.192074 
L 591.481409 135.662677 
L 592.682583 135.662677 
L 593.883757 135.662677 
L 595.084932 135.662677 
L 596.286106 135.662677 
L 597.48728 135.662677 
L 598.688454 135.662677 
L 599.889628 157.777541 
L 601.090802 157.777541 
L 602.291977 157.777541 
L 603.493151 160.677983 
L 604.694325 160.677983 
L 605.895499 160.677983 
L 607.096673 160.677983 
L 608.297847 167.504517 
L 609.499022 167.504517 
L 610.700196 168.954705 
L 611.90137 170.609395 
L 613.102544 170.609395 
L 614.303718 170.609395 
L 615.504892 170.609395 
L 616.706067 192.30883 
L 617.907241 192.30883 
L 619.108415 198.641475 
L 620.309589 198.641475 
L 621.510763 199.18632 
L 622.711937 199.18632 
L 623.913112 199.18632 
L 625.114286 209.268181 
L 626.31546 209.268181 
L 627.516634 209.268181 
L 628.717808 209.268181 
L 629.918982 215.376676 
L 631.120157 215.376676 
L 632.321331 215.376676 
L 633.522505 220.073971 
L 634.723679 215.376676 
L 635.924853 220.073971 
L 637.126027 222.266757 
L 638.327202 222.266757 
L 639.528376 222.266757 
L 640.72955 222.266757 
L 641.930724 239.553137 
L 643.131898 239.553137 
L 644.333072 238.919453 
L 645.534247 238.919453 
L 646.735421 238.649963 
L 647.936595 238.649963 
L 649.137769 238.649963 
L 650.338943 237.058615 
L 651.540117 238.649963 
L 652.741292 238.649963 
L 653.942466 238.649963 
L 655.14364 237.058615 
L 656.344814 237.058615 
L 657.545988 237.058615 
L 658.747162 225.970343 
L 659.948337 225.970343 
L 661.149511 225.111001 
L 662.350685 225.111001 
L 663.551859 225.111001 
L 664.753033 225.111001 
L 665.954207 225.111001 
L 667.155382 217.709443 
L 668.356556 217.709443 
L 669.55773 217.521853 
L 670.758904 217.521853 
L 671.960078 217.521853 
L 673.161252 217.521853 
L 674.362427 217.521853 
L 675.563601 217.521853 
L 676.764775 217.521853 
L 677.965949 212.328263 
L 679.167123 212.328263 
L 680.368297 201.134307 
L 681.569472 201.134307 
L 682.770646 201.134307 
L 683.97182 185.937645 
L 685.172994 185.937645 
L 686.374168 173.065935 
L 687.575342 173.065935 
L 688.776517 163.185445 
L 689.977691 163.185445 
L 691.178865 163.185445 
L 692.380039 154.481218 
L 693.581213 154.481218 
L 694.782387 131.981856 
L 695.983562 131.981856 
L 697.184736 125.741492 
L 698.38591 125.741492 
L 699.587084 125.741492 
L 700.788258 123.52559 
L 701.989432 123.52559 
L 703.190607 118.442191 
L 704.391781 118.442191 
L 705.592955 113.76584 
L 706.794129 113.76584 
L 707.995303 113.76584 
L 709.196477 112.139087 
L 710.397652 112.139087 
L 711.598826 112.139087 
L 712.8 112.139087 
L 712.8 135032.490349 
L 712.8 135032.490349 
L 711.598826 135032.490349 
L 710.397652 135032.490349 
L 709.196477 135032.490349 
L 707.995303 135032.490349 
L 706.794129 135032.490349 
L 705.592955 135032.490349 
L 704.391781 135032.490349 
L 703.190607 135032.490349 
L 701.989432 135032.490349 
L 700.788258 135032.490349 
L 699.587084 135032.490349 
L 698.38591 135032.490349 
L 697.184736 135032.490349 
L 695.983562 135032.490349 
L 694.782387 135032.490349 
L 693.581213 135032.490349 
L 692.380039 135032.490349 
L 691.178865 135032.490349 
L 689.977691 135032.490349 
L 688.776517 135032.490349 
L 687.575342 135032.490349 
L 686.374168 135032.490349 
L 685.172994 135032.490349 
L 683.97182 135032.490349 
L 682.770646 135032.490349 
L 681.569472 135032.490349 
L 680.368297 135032.490349 
L 679.167123 135032.490349 
L 677.965949 135032.490349 
L 676.764775 135032.490349 
L 675.563601 135032.490349 
L 674.362427 135032.490349 
L 673.161252 135032.490349 
L 671.960078 135032.490349 
L 670.758904 135032.490349 
L 669.55773 135032.490349 
L 668.356556 135032.490349 
L 667.155382 135032.490349 
L 665.954207 135032.490349 
L 664.753033 135032.490349 
L 663.551859 135032.490349 
L 662.350685 135032.490349 
L 661.149511 135032.490349 
L 659.948337 135032.490349 
L 658.747162 135032.490349 
L 657.545988 135032.490349 
L 656.344814 135032.490349 
L 655.14364 135032.490349 
L 653.942466 135032.490349 
L 652.741292 135032.490349 
L 651.540117 135032.490349 
L 650.338943 135032.490349 
L 649.137769 135032.490349 
L 647.936595 135032.490349 
L 646.735421 135032.490349 
L 645.534247 135032.490349 
L 644.333072 135032.490349 
L 643.131898 135032.490349 
L 641.930724 135032.490349 
L 640.72955 135032.490349 
L 639.528376 135032.490349 
L 638.327202 135032.490349 
L 637.126027 135032.490349 
L 635.924853 135032.490349 
L 634.723679 135032.490349 
L 633.522505 135032.490349 
L 632.321331 271.913514 
L 631.120157 271.913514 
L 629.918982 271.913514 
L 628.717808 271.913514 
L 627.516634 258.025359 
L 626.31546 258.025359 
L 625.114286 253.694919 
L 623.913112 253.694919 
L 622.711937 253.694919 
L 621.510763 253.694919 
L 620.309589 253.694919 
L 619.108415 253.694919 
L 617.907241 253.694919 
L 616.706067 251.644385 
L 615.504892 251.644385 
L 614.303718 251.644385 
L 613.102544 251.644385 
L 611.90137 251.644385 
L 610.700196 251.644385 
L 609.499022 251.644385 
L 608.297847 224.686023 
L 607.096673 224.686023 
L 605.895499 224.686023 
L 604.694325 224.686023 
L 603.493151 224.686023 
L 602.291977 224.686023 
L 601.090802 224.686023 
L 599.889628 214.777959 
L 598.688454 214.777959 
L 597.48728 214.777959 
L 596.286106 214.777959 
L 595.084932 214.777959 
L 593.883757 214.777959 
L 592.682583 214.777959 
L 591.481409 214.777959 
L 590.280235 214.777959 
L 589.079061 214.777959 
L 587.877886 214.777959 
L 586.676712 214.777959 
L 585.475538 214.777959 
L 584.274364 214.777959 
L 583.07319 232.852901 
L 581.872016 232.852901 
L 580.670841 232.852901 
L 579.469667 232.852901 
L 578.268493 232.852901 
L 577.067319 232.852901 
L 575.866145 232.852901 
L 574.664971 232.852901 
L 573.463796 135032.490349 
L 572.262622 135032.490349 
L 571.061448 135032.490349 
L 569.860274 135032.490349 
L 568.6591 135032.490349 
L 567.457926 135032.490349 
L 566.256751 135032.490349 
L 565.055577 135032.490349 
L 563.854403 135032.490349 
L 562.653229 135032.490349 
L 561.452055 135032.490349 
L 560.250881 135032.490349 
L 559.049706 135032.490349 
L 557.848532 135032.490349 
L 556.647358 235.086327 
L 555.446184 235.086327 
L 554.24501 235.086327 
L 553.043836 235.086327 
L 551.842661 235.086327 
L 550.641487 235.086327 
L 549.440313 235.086327 
L 548.239139 235.086327 
L 547.037965 235.086327 
L 545.836791 235.086327 
L 544.635616 226.623246 
L 543.434442 226.623246 
L 542.233268 226.623246 
L 541.032094 226.623246 
L 539.83092 226.623246 
L 538.629746 226.623246 
L 537.428571 226.623246 
L 536.227397 226.623246 
L 535.026223 226.623246 
L 533.825049 226.623246 
L 532.623875 254.747816 
L 531.422701 254.747816 
L 530.221526 254.747816 
L 529.020352 254.747816 
L 527.819178 254.747816 
L 526.618004 254.747816 
L 525.41683 254.747816 
L 524.215656 254.747816 
L 523.014481 135032.490349 
L 521.813307 135032.490349 
L 520.612133 135032.490349 
L 519.410959 135032.490349 
L 518.209785 135032.490349 
L 517.008611 135032.490349 
L 515.807436 135032.490349 
L 514.606262 135032.490349 
L 513.405088 135032.490349 
L 512.203914 135032.490349 
L 511.00274 135032.490349 
L 509.801566 135032.490349 
L 508.600391 135032.490349 
L 507.399217 135032.490349 
L 506.198043 216.408787 
L 504.996869 201.087164 
L 503.795695 197.700052 
L 502.594521 197.700052 
L 501.393346 197.700052 
L 500.192172 197.700052 
L 498.990998 198.596299 
L 497.789824 211.590375 
L 496.58865 198.596299 
L 495.387476 196.64239 
L 494.186301 196.64239 
L 492.985127 196.64239 
L 491.783953 196.64239 
L 490.582779 196.773556 
L 489.381605 192.025659 
L 488.180431 188.388231 
L 486.979256 185.719878 
L 485.778082 185.719878 
L 484.576908 185.719878 
L 483.375734 185.719878 
L 482.17456 185.719878 
L 480.973386 183.8658 
L 479.772211 180.92294 
L 478.571037 180.92294 
L 477.369863 180.92294 
L 476.168689 180.92294 
L 474.967515 178.280475 
L 473.766341 175.782906 
L 472.565166 160.630801 
L 471.363992 160.630801 
L 470.162818 157.152092 
L 468.961644 160.630801 
L 467.76047 160.630801 
L 466.559295 160.630801 
L 465.358121 160.630801 
L 464.156947 160.630801 
L 462.955773 158.546126 
L 461.754599 158.546126 
L 460.553425 175.844062 
L 459.35225 175.844062 
L 458.151076 175.844062 
L 456.949902 158.774117 
L 455.748728 179.635718 
L 454.547554 179.930263 
L 453.34638 179.930263 
L 452.145205 178.696606 
L 450.944031 178.696606 
L 449.742857 178.696606 
L 448.541683 156.775596 
L 447.340509 153.242135 
L 446.139335 153.242135 
L 444.93816 153.242135 
L 443.736986 143.784966 
L 442.535812 139.050658 
L 441.334638 135.909301 
L 440.133464 135.909301 
L 438.93229 129.190017 
L 437.731115 121.198203 
L 436.529941 119.377528 
L 435.328767 117.510315 
L 434.127593 112.19053 
L 432.926419 112.19053 
L 431.725245 112.19053 
L 430.52407 112.19053 
L 429.322896 112.19053 
L 428.121722 110.376507 
L 426.920548 110.376507 
L 425.719374 111.841607 
L 424.5182 111.841607 
L 423.317025 111.200528 
L 422.115851 111.200528 
L 420.914677 113.660192 
L 419.713503 113.660192 
L 418.512329 114.457251 
L 417.311155 118.419285 
L 416.10998 118.419285 
L 414.908806 114.940759 
L 413.707632 114.09457 
L 412.506458 114.09457 
L 411.305284 114.09457 
L 410.10411 114.09457 
L 408.902935 115.070372 
L 407.701761 119.762925 
L 406.500587 119.762925 
L 405.299413 120.127295 
L 404.098239 120.127295 
L 402.897065 120.127295 
L 401.69589 117.792852 
L 400.494716 117.792852 
L 399.293542 120.292597 
L 398.092368 122.301339 
L 396.891194 123.625649 
L 395.69002 131.349818 
L 394.488845 131.349818 
L 393.287671 134.054573 
L 392.086497 135.065858 
L 390.885323 138.321739 
L 389.684149 138.321739 
L 388.482975 139.838325 
L 387.2818 139.838325 
L 386.080626 139.838325 
L 384.879452 140.302749 
L 383.678278 140.302749 
L 382.477104 140.486216 
L 381.27593 141.992205 
L 380.074755 155.100027 
L 378.873581 164.910474 
L 377.672407 166.7927 
L 376.471233 166.7927 
L 375.270059 169.281916 
L 374.068885 170.052609 
L 372.86771 170.4697 
L 371.666536 172.197224 
L 370.465362 172.197224 
L 369.264188 172.197224 
L 368.063014 174.543117 
L 366.86184 179.799171 
L 365.660665 184.749844 
L 364.459491 188.426163 
L 363.258317 188.426163 
L 362.057143 188.426163 
L 360.855969 191.22408 
L 359.654795 192.025659 
L 358.45362 193.084426 
L 357.252446 196.294048 
L 356.051272 198.012177 
L 354.850098 199.323328 
L 353.648924 200.198591 
L 352.44775 200.945961 
L 351.246575 203.985322 
L 350.045401 203.985322 
L 348.844227 204.134072 
L 347.643053 205.693752 
L 346.441879 207.875549 
L 345.240705 211.590375 
L 344.03953 219.554553 
L 342.838356 219.554553 
L 341.637182 219.554553 
L 340.436008 224.124151 
L 339.234834 235.086327 
L 338.033659 235.086327 
L 336.832485 242.349566 
L 335.631311 242.349566 
L 334.430137 242.349566 
L 333.228963 242.349566 
L 332.027789 239.099805 
L 330.826614 239.099805 
L 329.62544 242.54084 
L 328.424266 242.54084 
L 327.223092 242.54084 
L 326.021918 242.54084 
L 324.820744 242.54084 
L 323.619569 239.099805 
L 322.418395 239.099805 
L 321.217221 243.799621 
L 320.016047 254.394738 
L 318.814873 254.394738 
L 317.613699 254.394738 
L 316.412524 254.394738 
L 315.21135 255.460437 
L 314.010176 255.460437 
L 312.809002 253.118071 
L 311.607828 253.118071 
L 310.406654 253.118071 
L 309.205479 253.118071 
L 308.004305 253.118071 
L 306.803131 253.118071 
L 305.601957 240.934625 
L 304.400783 240.934625 
L 303.199609 237.320849 
L 301.998434 237.320849 
L 300.79726 237.320849 
L 299.596086 237.320849 
L 298.394912 237.145896 
L 297.193738 237.145896 
L 295.992564 237.937342 
L 294.791389 237.145896 
L 293.590215 237.145896 
L 292.389041 237.937342 
L 291.187867 238.025946 
L 289.986693 239.462189 
L 288.785519 242.82893 
L 287.584344 239.190191 
L 286.38317 239.190191 
L 285.181996 239.190191 
L 283.980822 239.190191 
L 282.779648 239.190191 
L 281.578474 239.190191 
L 280.377299 238.025946 
L 279.176125 227.802286 
L 277.974951 227.802286 
L 276.773777 227.802286 
L 275.572603 227.876772 
L 274.371429 227.802286 
L 273.170254 219.296564 
L 271.96908 217.397127 
L 270.767906 211.929781 
L 269.566732 211.929781 
L 268.365558 217.397127 
L 267.164384 219.683975 
L 265.963209 229.847503 
L 264.762035 231.966907 
L 263.560861 238.919453 
L 262.359687 238.919453 
L 261.158513 238.919453 
L 259.957339 238.919453 
L 258.756164 239.190191 
L 257.55499 242.82893 
L 256.353816 245.892118 
L 255.152642 250.206953 
L 253.951468 255.341061 
L 252.750294 255.341061 
L 251.549119 255.341061 
L 250.347945 255.341061 
L 249.146771 255.341061 
L 247.945597 256.181856 
L 246.744423 258.401143 
L 245.543249 265.756856 
L 244.342074 278.61819 
L 243.1409 280.605325 
L 241.939726 284.010223 
L 240.738552 284.010223 
L 239.537378 284.794586 
L 238.336204 284.010223 
L 237.135029 284.794586 
L 235.933855 292.597387 
L 234.732681 294.898244 
L 233.531507 294.898244 
L 232.330333 297.78447 
L 231.129159 297.78447 
L 229.927984 305.411423 
L 228.72681 312.258875 
L 227.525636 328.964157 
L 226.324462 328.964157 
L 225.123288 328.964157 
L 223.922114 328.964157 
L 222.720939 328.964157 
L 221.519765 332.875713 
L 220.318591 328.964157 
L 219.117417 332.875713 
L 217.916243 332.875713 
L 216.715068 332.875713 
L 215.513894 332.875713 
L 214.31272 332.875713 
L 213.111546 328.964157 
L 211.910372 328.964157 
L 210.709198 312.258875 
L 209.508023 328.964157 
L 208.306849 334.70193 
L 207.105675 334.70193 
L 205.904501 355.676602 
L 204.703327 369.889572 
L 203.502153 379.038561 
L 202.300978 389.890795 
L 201.099804 389.890795 
L 199.89863 403.228909 
L 198.697456 420.540967 
L 197.496282 420.540967 
L 196.295108 445.250271 
L 195.093933 445.250271 
L 193.892759 445.250271 
L 192.691585 445.250271 
L 191.490411 482.756494 
L 190.289237 482.756494 
L 189.088063 488.913152 
L 187.886888 488.913152 
L 186.685714 488.913152 
L 185.48454 482.756494 
L 184.283366 482.756494 
L 183.082192 482.756494 
L 181.881018 482.756494 
L 180.679843 482.756494 
L 179.478669 482.756494 
L 178.277495 482.756494 
L 177.076321 482.756494 
L 175.875147 482.756494 
L 174.673973 482.756494 
L 173.472798 482.756494 
L 172.271624 482.756494 
L 171.07045 482.756494 
L 169.869276 482.756494 
L 168.668102 482.756494 
L 167.466928 482.756494 
L 166.265753 482.756494 
L 165.064579 482.756494 
L 163.863405 445.250271 
L 162.662231 442.252988 
L 161.461057 442.252988 
L 160.259883 442.252988 
L 159.058708 442.252988 
L 157.857534 442.252988 
L 156.65636 442.252988 
L 155.455186 442.252988 
L 154.254012 442.252988 
L 153.052838 442.252988 
L 151.851663 392.325906 
L 150.650489 388.710266 
L 149.449315 388.710266 
L 148.248141 379.038561 
L 147.046967 370.742642 
L 145.845793 370.742642 
L 144.644618 369.889572 
L 143.443444 361.981008 
L 142.24227 361.245977 
L 141.041096 361.245977 
L 139.839922 361.245977 
L 138.638748 355.016321 
L 137.437573 348.794044 
L 136.236399 348.794044 
L 135.035225 348.794044 
L 133.834051 348.794044 
L 132.632877 348.794044 
L 131.431703 348.20676 
L 130.230528 348.20676 
L 129.029354 350.592161 
L 127.82818 348.20676 
L 126.627006 350.592161 
L 125.425832 369.889572 
L 124.224658 378.056451 
L 123.023483 378.056451 
L 121.822309 381.053734 
L 120.621135 418.559956 
L 119.419961 418.559956 
L 118.218787 420.540967 
L 117.017613 442.252988 
L 115.816438 445.250271 
L 114.615264 482.756494 
L 113.41409 135032.490349 
L 112.212916 135032.490349 
L 111.011742 135032.490349 
L 109.810568 135032.490349 
L 108.609393 135032.490349 
L 107.408219 135032.490349 
L 106.207045 135032.490349 
L 105.005871 135032.490349 
L 103.804697 135032.490349 
L 102.603523 135032.490349 
L 101.402348 135032.490349 
L 100.201174 135032.490349 
L 99 135032.490349 
z
" style="fill:#8080ff;fill-opacity:0.5;stroke:#8080ff;stroke-opacity:0.5;"/>
   </g>
   <g id="PolyCollection_2">
    <path clip-path="url(#p68e2955192)" d="M 99 135032.490349 
L 99 135032.490349 
L 100.201174 135032.490349 
L 101.402348 135032.490349 
L 102.603523 135032.490349 
L 103.804697 135032.490349 
L 105.005871 135032.490349 
L 106.207045 135032.490349 
L 107.408219 135032.490349 
L 108.609393 135032.490349 
L 109.810568 135032.490349 
L 111.011742 135032.490349 
L 112.212916 135032.490349 
L 113.41409 135032.490349 
L 114.615264 135032.490349 
L 115.816438 135032.490349 
L 117.017613 135032.490349 
L 118.218787 135032.490349 
L 119.419961 503.598512 
L 120.621135 503.598512 
L 121.822309 503.598512 
L 123.023483 503.598512 
L 124.224658 503.598512 
L 125.425832 503.598512 
L 126.627006 482.756494 
L 127.82818 482.756494 
L 129.029354 482.756494 
L 130.230528 482.756494 
L 131.431703 482.756494 
L 132.632877 482.756494 
L 133.834051 482.756494 
L 135.035225 482.756494 
L 136.236399 482.756494 
L 137.437573 482.756494 
L 138.638748 482.756494 
L 139.839922 482.756494 
L 141.041096 482.756494 
L 142.24227 482.756494 
L 143.443444 482.756494 
L 144.644618 482.756494 
L 145.845793 482.756494 
L 147.046967 482.756494 
L 148.248141 503.598512 
L 149.449315 503.598512 
L 150.650489 503.598512 
L 151.851663 135032.490349 
L 153.052838 135032.490349 
L 154.254012 135032.490349 
L 155.455186 135032.490349 
L 156.65636 135032.490349 
L 157.857534 135032.490349 
L 159.058708 135032.490349 
L 160.259883 135032.490349 
L 161.461057 135032.490349 
L 162.662231 135032.490349 
L 163.863405 135032.490349 
L 165.064579 135032.490349 
L 166.265753 135032.490349 
L 167.466928 135032.490349 
L 168.668102 135032.490349 
L 169.869276 135032.490349 
L 171.07045 135032.490349 
L 172.271624 135032.490349 
L 173.472798 135032.490349 
L 174.673973 135032.490349 
L 175.875147 135032.490349 
L 177.076321 135032.490349 
L 178.277495 135032.490349 
L 179.478669 135032.490349 
L 180.679843 135032.490349 
L 181.881018 135032.490349 
L 183.082192 135032.490349 
L 184.283366 135032.490349 
L 185.48454 135032.490349 
L 186.685714 135032.490349 
L 187.886888 135032.490349 
L 189.088063 135032.490349 
L 190.289237 135032.490349 
L 191.490411 135032.490349 
L 192.691585 135032.490349 
L 193.892759 135032.490349 
L 195.093933 135032.490349 
L 196.295108 135032.490349 
L 197.496282 135032.490349 
L 198.697456 135032.490349 
L 199.89863 135032.490349 
L 201.099804 135032.490349 
L 202.300978 135032.490349 
L 203.502153 135032.490349 
L 204.703327 135032.490349 
L 205.904501 135032.490349 
L 207.105675 135032.490349 
L 208.306849 135032.490349 
L 209.508023 503.598512 
L 210.709198 503.598512 
L 211.910372 503.598512 
L 213.111546 503.598512 
L 214.31272 503.598512 
L 215.513894 503.598512 
L 216.715068 503.598512 
L 217.916243 503.598512 
L 219.117417 503.598512 
L 220.318591 503.598512 
L 221.519765 503.598512 
L 222.720939 135032.490349 
L 223.922114 135032.490349 
L 225.123288 135032.490349 
L 226.324462 135032.490349 
L 227.525636 135032.490349 
L 228.72681 135032.490349 
L 229.927984 135032.490349 
L 231.129159 135032.490349 
L 232.330333 135032.490349 
L 233.531507 135032.490349 
L 234.732681 503.598512 
L 235.933855 482.756494 
L 237.135029 482.756494 
L 238.336204 482.756494 
L 239.537378 482.756494 
L 240.738552 482.756494 
L 241.939726 482.756494 
L 243.1409 482.756494 
L 244.342074 482.756494 
L 245.543249 482.756494 
L 246.744423 482.756494 
L 247.945597 482.756494 
L 249.146771 482.756494 
L 250.347945 482.756494 
L 251.549119 503.598512 
L 252.750294 503.598512 
L 253.951468 503.598512 
L 255.152642 503.598512 
L 256.353816 135032.490349 
L 257.55499 503.598512 
L 258.756164 503.598512 
L 259.957339 503.598512 
L 261.158513 482.756494 
L 262.359687 482.756494 
L 263.560861 482.756494 
L 264.762035 482.756494 
L 265.963209 482.756494 
L 267.164384 482.756494 
L 268.365558 482.756494 
L 269.566732 482.756494 
L 270.767906 482.756494 
L 271.96908 482.756494 
L 273.170254 482.756494 
L 274.371429 482.756494 
L 275.572603 482.756494 
L 276.773777 482.756494 
L 277.974951 482.756494 
L 279.176125 482.756494 
L 280.377299 482.756494 
L 281.578474 482.756494 
L 282.779648 482.756494 
L 283.980822 482.756494 
L 285.181996 482.756494 
L 286.38317 482.756494 
L 287.584344 482.756494 
L 288.785519 482.756494 
L 289.986693 482.756494 
L 291.187867 482.756494 
L 292.389041 482.756494 
L 293.590215 482.756494 
L 294.791389 482.756494 
L 295.992564 482.756494 
L 297.193738 482.756494 
L 298.394912 482.756494 
L 299.596086 482.756494 
L 300.79726 482.756494 
L 301.998434 482.756494 
L 303.199609 482.756494 
L 304.400783 482.756494 
L 305.601957 482.756494 
L 306.803131 451.749653 
L 308.004305 451.749653 
L 309.205479 451.749653 
L 310.406654 451.749653 
L 311.607828 442.252988 
L 312.809002 442.252988 
L 314.010176 442.252988 
L 315.21135 451.749653 
L 316.412524 451.749653 
L 317.613699 451.749653 
L 318.814873 451.749653 
L 320.016047 451.749653 
L 321.217221 451.749653 
L 322.418395 451.749653 
L 323.619569 482.756494 
L 324.820744 482.756494 
L 326.021918 482.756494 
L 327.223092 482.756494 
L 328.424266 482.756494 
L 329.62544 482.756494 
L 330.826614 482.756494 
L 332.027789 482.756494 
L 333.228963 482.756494 
L 334.430137 482.756494 
L 335.631311 482.756494 
L 336.832485 482.756494 
L 338.033659 416.643909 
L 339.234834 416.643909 
L 340.436008 416.643909 
L 341.637182 416.643909 
L 342.838356 416.643909 
L 344.03953 416.643909 
L 345.240705 416.643909 
L 346.441879 416.643909 
L 347.643053 416.643909 
L 348.844227 416.643909 
L 350.045401 416.643909 
L 351.246575 416.643909 
L 352.44775 482.756494 
L 353.648924 482.756494 
L 354.850098 482.756494 
L 356.051272 482.756494 
L 357.252446 482.756494 
L 358.45362 482.756494 
L 359.654795 482.756494 
L 360.855969 482.756494 
L 362.057143 482.756494 
L 363.258317 482.756494 
L 364.459491 482.756494 
L 365.660665 482.756494 
L 366.86184 482.756494 
L 368.063014 482.756494 
L 369.264188 482.756494 
L 370.465362 482.756494 
L 371.666536 482.756494 
L 372.86771 482.756494 
L 374.068885 451.749653 
L 375.270059 482.756494 
L 376.471233 451.749653 
L 377.672407 411.246147 
L 378.873581 411.246147 
L 380.074755 411.246147 
L 381.27593 411.246147 
L 382.477104 411.246147 
L 383.678278 411.246147 
L 384.879452 411.246147 
L 386.080626 411.246147 
L 387.2818 411.246147 
L 388.482975 411.246147 
L 389.684149 411.246147 
L 390.885323 392.325906 
L 392.086497 392.325906 
L 393.287671 406.305103 
L 394.488845 431.599173 
L 395.69002 431.599173 
L 396.891194 431.599173 
L 398.092368 431.599173 
L 399.293542 424.716615 
L 400.494716 424.716615 
L 401.69589 424.716615 
L 402.897065 424.716615 
L 404.098239 424.716615 
L 405.299413 424.716615 
L 406.500587 424.716615 
L 407.701761 424.716615 
L 408.902935 442.252988 
L 410.10411 424.716615 
L 411.305284 424.716615 
L 412.506458 424.716615 
L 413.707632 424.716615 
L 414.908806 424.716615 
L 416.10998 424.716615 
L 417.311155 424.716615 
L 418.512329 373.379218 
L 419.713503 347.625321 
L 420.914677 347.625321 
L 422.115851 347.625321 
L 423.317025 347.625321 
L 424.5182 373.379218 
L 425.719374 370.742642 
L 426.920548 368.21991 
L 428.121722 368.21991 
L 429.322896 347.625321 
L 430.52407 347.625321 
L 431.725245 347.625321 
L 432.926419 347.625321 
L 434.127593 347.625321 
L 435.328767 353.079099 
L 436.529941 392.325906 
L 437.731115 392.325906 
L 438.93229 392.325906 
L 440.133464 392.325906 
L 441.334638 357.703425 
L 442.535812 357.703425 
L 443.736986 361.981008 
L 444.93816 361.981008 
L 446.139335 418.559956 
L 447.340509 418.559956 
L 448.541683 418.559956 
L 449.742857 424.716615 
L 450.944031 424.716615 
L 452.145205 418.559956 
L 453.34638 418.559956 
L 454.547554 367.402635 
L 455.748728 367.402635 
L 456.949902 367.402635 
L 458.151076 418.559956 
L 459.35225 424.716615 
L 460.553425 418.559956 
L 461.754599 418.559956 
L 462.955773 418.559956 
L 464.156947 418.559956 
L 465.358121 418.559956 
L 466.559295 418.559956 
L 467.76047 418.559956 
L 468.961644 424.716615 
L 470.162818 424.716615 
L 471.363992 442.252988 
L 472.565166 442.252988 
L 473.766341 442.252988 
L 474.967515 442.252988 
L 476.168689 424.716615 
L 477.369863 451.749653 
L 478.571037 451.749653 
L 479.772211 400.306589 
L 480.973386 400.306589 
L 482.17456 400.306589 
L 483.375734 400.306589 
L 484.576908 400.306589 
L 485.778082 404.746766 
L 486.979256 404.746766 
L 488.180431 404.746766 
L 489.381605 404.746766 
L 490.582779 404.746766 
L 491.783953 334.239997 
L 492.985127 404.746766 
L 494.186301 404.746766 
L 495.387476 404.746766 
L 496.58865 482.756494 
L 497.789824 482.756494 
L 498.990998 482.756494 
L 500.192172 482.756494 
L 501.393346 503.598512 
L 502.594521 135032.490349 
L 503.795695 463.095006 
L 504.996869 463.095006 
L 506.198043 463.095006 
L 507.399217 463.095006 
L 508.600391 463.095006 
L 509.801566 451.749653 
L 511.00274 451.749653 
L 512.203914 451.749653 
L 513.405088 451.749653 
L 514.606262 451.749653 
L 515.807436 451.749653 
L 517.008611 451.749653 
L 518.209785 451.749653 
L 519.410959 451.749653 
L 520.612133 482.756494 
L 521.813307 482.756494 
L 523.014481 482.756494 
L 524.215656 404.746766 
L 525.41683 482.756494 
L 526.618004 482.756494 
L 527.819178 482.756494 
L 529.020352 482.756494 
L 530.221526 482.756494 
L 531.422701 482.756494 
L 532.623875 482.756494 
L 533.825049 482.756494 
L 535.026223 482.756494 
L 536.227397 482.756494 
L 537.428571 482.756494 
L 538.629746 482.756494 
L 539.83092 482.756494 
L 541.032094 482.756494 
L 542.233268 482.756494 
L 543.434442 482.756494 
L 544.635616 482.756494 
L 545.836791 482.756494 
L 547.037965 482.756494 
L 548.239139 482.756494 
L 549.440313 482.756494 
L 550.641487 451.749653 
L 551.842661 451.749653 
L 553.043836 451.749653 
L 554.24501 451.749653 
L 555.446184 451.749653 
L 556.647358 451.749653 
L 557.848532 451.749653 
L 559.049706 451.749653 
L 560.250881 451.749653 
L 561.452055 503.598512 
L 562.653229 503.598512 
L 563.854403 503.598512 
L 565.055577 503.598512 
L 566.256751 503.598512 
L 567.457926 135032.490349 
L 568.6591 135032.490349 
L 569.860274 135032.490349 
L 571.061448 135032.490349 
L 572.262622 135032.490349 
L 573.463796 135032.490349 
L 574.664971 135032.490349 
L 575.866145 135032.490349 
L 577.067319 135032.490349 
L 578.268493 503.598512 
L 579.469667 503.598512 
L 580.670841 503.598512 
L 581.872016 503.598512 
L 583.07319 503.598512 
L 584.274364 503.598512 
L 585.475538 503.598512 
L 586.676712 503.598512 
L 587.877886 503.598512 
L 589.079061 503.598512 
L 590.280235 503.598512 
L 591.481409 358.394962 
L 592.682583 358.394962 
L 593.883757 358.394962 
L 595.084932 135032.490349 
L 596.286106 135032.490349 
L 597.48728 135032.490349 
L 598.688454 135032.490349 
L 599.889628 503.598512 
L 601.090802 503.598512 
L 602.291977 503.598512 
L 603.493151 482.756494 
L 604.694325 482.756494 
L 605.895499 482.756494 
L 607.096673 482.756494 
L 608.297847 503.598512 
L 609.499022 482.756494 
L 610.700196 451.749653 
L 611.90137 451.749653 
L 613.102544 451.749653 
L 614.303718 451.749653 
L 615.504892 451.749653 
L 616.706067 442.252988 
L 617.907241 411.246147 
L 619.108415 411.246147 
L 620.309589 411.246147 
L 621.510763 411.246147 
L 622.711937 411.246147 
L 623.913112 411.246147 
L 625.114286 411.246147 
L 626.31546 411.246147 
L 627.516634 416.643909 
L 628.717808 416.643909 
L 629.918982 416.643909 
L 631.120157 416.643909 
L 632.321331 416.643909 
L 633.522505 503.598512 
L 634.723679 135032.490349 
L 635.924853 135032.490349 
L 637.126027 135032.490349 
L 638.327202 135032.490349 
L 639.528376 135032.490349 
L 640.72955 135032.490349 
L 641.930724 135032.490349 
L 643.131898 135032.490349 
L 644.333072 135032.490349 
L 645.534247 135032.490349 
L 646.735421 135032.490349 
L 647.936595 135032.490349 
L 649.137769 135032.490349 
L 650.338943 135032.490349 
L 651.540117 135032.490349 
L 652.741292 135032.490349 
L 653.942466 135032.490349 
L 655.14364 135032.490349 
L 656.344814 135032.490349 
L 657.545988 135032.490349 
L 658.747162 135032.490349 
L 659.948337 135032.490349 
L 661.149511 503.598512 
L 662.350685 503.598512 
L 663.551859 135032.490349 
L 664.753033 135032.490349 
L 665.954207 135032.490349 
L 667.155382 135032.490349 
L 668.356556 135032.490349 
L 669.55773 503.598512 
L 670.758904 503.598512 
L 671.960078 503.598512 
L 673.161252 503.598512 
L 674.362427 503.598512 
L 675.563601 503.598512 
L 676.764775 503.598512 
L 677.965949 135032.490349 
L 679.167123 135032.490349 
L 680.368297 463.095006 
L 681.569472 463.095006 
L 682.770646 463.095006 
L 683.97182 442.252988 
L 685.172994 442.252988 
L 686.374168 463.095006 
L 687.575342 463.095006 
L 688.776517 463.095006 
L 689.977691 463.095006 
L 691.178865 463.095006 
L 692.380039 463.095006 
L 693.581213 463.095006 
L 694.782387 451.749653 
L 695.983562 451.749653 
L 697.184736 451.749653 
L 698.38591 451.749653 
L 699.587084 451.749653 
L 700.788258 503.598512 
L 701.989432 503.598512 
L 703.190607 451.749653 
L 704.391781 451.749653 
L 705.592955 442.252988 
L 706.794129 442.252988 
L 707.995303 442.252988 
L 709.196477 442.252988 
L 710.397652 442.252988 
L 711.598826 442.252988 
L 712.8 424.716615 
L 712.8 135032.490349 
L 712.8 135032.490349 
L 711.598826 135032.490349 
L 710.397652 135032.490349 
L 709.196477 135032.490349 
L 707.995303 135032.490349 
L 706.794129 135032.490349 
L 705.592955 135032.490349 
L 704.391781 135032.490349 
L 703.190607 135032.490349 
L 701.989432 135032.490349 
L 700.788258 135032.490349 
L 699.587084 135032.490349 
L 698.38591 135032.490349 
L 697.184736 135032.490349 
L 695.983562 135032.490349 
L 694.782387 135032.490349 
L 693.581213 135032.490349 
L 692.380039 135032.490349 
L 691.178865 135032.490349 
L 689.977691 135032.490349 
L 688.776517 135032.490349 
L 687.575342 135032.490349 
L 686.374168 135032.490349 
L 685.172994 135032.490349 
L 683.97182 135032.490349 
L 682.770646 135032.490349 
L 681.569472 135032.490349 
L 680.368297 135032.490349 
L 679.167123 135032.490349 
L 677.965949 135032.490349 
L 676.764775 135032.490349 
L 675.563601 135032.490349 
L 674.362427 135032.490349 
L 673.161252 135032.490349 
L 671.960078 135032.490349 
L 670.758904 135032.490349 
L 669.55773 135032.490349 
L 668.356556 135032.490349 
L 667.155382 135032.490349 
L 665.954207 135032.490349 
L 664.753033 135032.490349 
L 663.551859 135032.490349 
L 662.350685 135032.490349 
L 661.149511 135032.490349 
L 659.948337 135032.490349 
L 658.747162 135032.490349 
L 657.545988 135032.490349 
L 656.344814 135032.490349 
L 655.14364 135032.490349 
L 653.942466 135032.490349 
L 652.741292 135032.490349 
L 651.540117 135032.490349 
L 650.338943 135032.490349 
L 649.137769 135032.490349 
L 647.936595 135032.490349 
L 646.735421 135032.490349 
L 645.534247 135032.490349 
L 644.333072 135032.490349 
L 643.131898 135032.490349 
L 641.930724 135032.490349 
L 640.72955 135032.490349 
L 639.528376 135032.490349 
L 638.327202 135032.490349 
L 637.126027 135032.490349 
L 635.924853 135032.490349 
L 634.723679 135032.490349 
L 633.522505 135032.490349 
L 632.321331 135032.490349 
L 631.120157 135032.490349 
L 629.918982 135032.490349 
L 628.717808 135032.490349 
L 627.516634 135032.490349 
L 626.31546 135032.490349 
L 625.114286 135032.490349 
L 623.913112 135032.490349 
L 622.711937 135032.490349 
L 621.510763 135032.490349 
L 620.309589 135032.490349 
L 619.108415 135032.490349 
L 617.907241 135032.490349 
L 616.706067 135032.490349 
L 615.504892 135032.490349 
L 614.303718 135032.490349 
L 613.102544 135032.490349 
L 611.90137 135032.490349 
L 610.700196 135032.490349 
L 609.499022 135032.490349 
L 608.297847 135032.490349 
L 607.096673 135032.490349 
L 605.895499 135032.490349 
L 604.694325 135032.490349 
L 603.493151 135032.490349 
L 602.291977 135032.490349 
L 601.090802 135032.490349 
L 599.889628 135032.490349 
L 598.688454 135032.490349 
L 597.48728 135032.490349 
L 596.286106 135032.490349 
L 595.084932 135032.490349 
L 593.883757 135032.490349 
L 592.682583 135032.490349 
L 591.481409 135032.490349 
L 590.280235 135032.490349 
L 589.079061 135032.490349 
L 587.877886 135032.490349 
L 586.676712 135032.490349 
L 585.475538 135032.490349 
L 584.274364 135032.490349 
L 583.07319 135032.490349 
L 581.872016 135032.490349 
L 580.670841 135032.490349 
L 579.469667 135032.490349 
L 578.268493 135032.490349 
L 577.067319 135032.490349 
L 575.866145 135032.490349 
L 574.664971 135032.490349 
L 573.463796 135032.490349 
L 572.262622 135032.490349 
L 571.061448 135032.490349 
L 569.860274 135032.490349 
L 568.6591 135032.490349 
L 567.457926 135032.490349 
L 566.256751 135032.490349 
L 565.055577 135032.490349 
L 563.854403 135032.490349 
L 562.653229 135032.490349 
L 561.452055 135032.490349 
L 560.250881 135032.490349 
L 559.049706 135032.490349 
L 557.848532 135032.490349 
L 556.647358 135032.490349 
L 555.446184 135032.490349 
L 554.24501 135032.490349 
L 553.043836 135032.490349 
L 551.842661 135032.490349 
L 550.641487 135032.490349 
L 549.440313 135032.490349 
L 548.239139 135032.490349 
L 547.037965 135032.490349 
L 545.836791 135032.490349 
L 544.635616 135032.490349 
L 543.434442 135032.490349 
L 542.233268 135032.490349 
L 541.032094 135032.490349 
L 539.83092 135032.490349 
L 538.629746 135032.490349 
L 537.428571 135032.490349 
L 536.227397 135032.490349 
L 535.026223 135032.490349 
L 533.825049 135032.490349 
L 532.623875 135032.490349 
L 531.422701 135032.490349 
L 530.221526 135032.490349 
L 529.020352 135032.490349 
L 527.819178 135032.490349 
L 526.618004 135032.490349 
L 525.41683 135032.490349 
L 524.215656 135032.490349 
L 523.014481 135032.490349 
L 521.813307 135032.490349 
L 520.612133 135032.490349 
L 519.410959 135032.490349 
L 518.209785 135032.490349 
L 517.008611 135032.490349 
L 515.807436 135032.490349 
L 514.606262 135032.490349 
L 513.405088 135032.490349 
L 512.203914 135032.490349 
L 511.00274 135032.490349 
L 509.801566 135032.490349 
L 508.600391 135032.490349 
L 507.399217 135032.490349 
L 506.198043 135032.490349 
L 504.996869 135032.490349 
L 503.795695 135032.490349 
L 502.594521 135032.490349 
L 501.393346 135032.490349 
L 500.192172 135032.490349 
L 498.990998 135032.490349 
L 497.789824 135032.490349 
L 496.58865 135032.490349 
L 495.387476 135032.490349 
L 494.186301 135032.490349 
L 492.985127 135032.490349 
L 491.783953 135032.490349 
L 490.582779 135032.490349 
L 489.381605 135032.490349 
L 488.180431 135032.490349 
L 486.979256 135032.490349 
L 485.778082 135032.490349 
L 484.576908 135032.490349 
L 483.375734 135032.490349 
L 482.17456 135032.490349 
L 480.973386 135032.490349 
L 479.772211 135032.490349 
L 478.571037 135032.490349 
L 477.369863 135032.490349 
L 476.168689 135032.490349 
L 474.967515 135032.490349 
L 473.766341 135032.490349 
L 472.565166 135032.490349 
L 471.363992 135032.490349 
L 470.162818 135032.490349 
L 468.961644 135032.490349 
L 467.76047 135032.490349 
L 466.559295 135032.490349 
L 465.358121 135032.490349 
L 464.156947 135032.490349 
L 462.955773 135032.490349 
L 461.754599 135032.490349 
L 460.553425 135032.490349 
L 459.35225 135032.490349 
L 458.151076 135032.490349 
L 456.949902 135032.490349 
L 455.748728 135032.490349 
L 454.547554 135032.490349 
L 453.34638 135032.490349 
L 452.145205 135032.490349 
L 450.944031 135032.490349 
L 449.742857 135032.490349 
L 448.541683 135032.490349 
L 447.340509 135032.490349 
L 446.139335 135032.490349 
L 444.93816 135032.490349 
L 443.736986 135032.490349 
L 442.535812 135032.490349 
L 441.334638 135032.490349 
L 440.133464 135032.490349 
L 438.93229 135032.490349 
L 437.731115 135032.490349 
L 436.529941 135032.490349 
L 435.328767 488.913152 
L 434.127593 488.913152 
L 432.926419 135032.490349 
L 431.725245 135032.490349 
L 430.52407 135032.490349 
L 429.322896 135032.490349 
L 428.121722 135032.490349 
L 426.920548 135032.490349 
L 425.719374 135032.490349 
L 424.5182 135032.490349 
L 423.317025 135032.490349 
L 422.115851 135032.490349 
L 420.914677 135032.490349 
L 419.713503 135032.490349 
L 418.512329 135032.490349 
L 417.311155 135032.490349 
L 416.10998 135032.490349 
L 414.908806 135032.490349 
L 413.707632 135032.490349 
L 412.506458 135032.490349 
L 411.305284 135032.490349 
L 410.10411 135032.490349 
L 408.902935 135032.490349 
L 407.701761 135032.490349 
L 406.500587 135032.490349 
L 405.299413 135032.490349 
L 404.098239 135032.490349 
L 402.897065 135032.490349 
L 401.69589 135032.490349 
L 400.494716 135032.490349 
L 399.293542 135032.490349 
L 398.092368 135032.490349 
L 396.891194 135032.490349 
L 395.69002 135032.490349 
L 394.488845 135032.490349 
L 393.287671 135032.490349 
L 392.086497 135032.490349 
L 390.885323 135032.490349 
L 389.684149 135032.490349 
L 388.482975 135032.490349 
L 387.2818 135032.490349 
L 386.080626 135032.490349 
L 384.879452 135032.490349 
L 383.678278 135032.490349 
L 382.477104 135032.490349 
L 381.27593 135032.490349 
L 380.074755 135032.490349 
L 378.873581 135032.490349 
L 377.672407 135032.490349 
L 376.471233 135032.490349 
L 375.270059 135032.490349 
L 374.068885 135032.490349 
L 372.86771 135032.490349 
L 371.666536 135032.490349 
L 370.465362 135032.490349 
L 369.264188 135032.490349 
L 368.063014 135032.490349 
L 366.86184 135032.490349 
L 365.660665 135032.490349 
L 364.459491 135032.490349 
L 363.258317 135032.490349 
L 362.057143 135032.490349 
L 360.855969 135032.490349 
L 359.654795 135032.490349 
L 358.45362 135032.490349 
L 357.252446 135032.490349 
L 356.051272 135032.490349 
L 354.850098 135032.490349 
L 353.648924 135032.490349 
L 352.44775 135032.490349 
L 351.246575 135032.490349 
L 350.045401 135032.490349 
L 348.844227 135032.490349 
L 347.643053 135032.490349 
L 346.441879 135032.490349 
L 345.240705 135032.490349 
L 344.03953 135032.490349 
L 342.838356 135032.490349 
L 341.637182 135032.490349 
L 340.436008 135032.490349 
L 339.234834 135032.490349 
L 338.033659 135032.490349 
L 336.832485 135032.490349 
L 335.631311 135032.490349 
L 334.430137 135032.490349 
L 333.228963 135032.490349 
L 332.027789 135032.490349 
L 330.826614 135032.490349 
L 329.62544 135032.490349 
L 328.424266 135032.490349 
L 327.223092 135032.490349 
L 326.021918 135032.490349 
L 324.820744 135032.490349 
L 323.619569 135032.490349 
L 322.418395 135032.490349 
L 321.217221 135032.490349 
L 320.016047 135032.490349 
L 318.814873 135032.490349 
L 317.613699 135032.490349 
L 316.412524 135032.490349 
L 315.21135 135032.490349 
L 314.010176 135032.490349 
L 312.809002 135032.490349 
L 311.607828 135032.490349 
L 310.406654 135032.490349 
L 309.205479 135032.490349 
L 308.004305 135032.490349 
L 306.803131 135032.490349 
L 305.601957 135032.490349 
L 304.400783 135032.490349 
L 303.199609 135032.490349 
L 301.998434 135032.490349 
L 300.79726 135032.490349 
L 299.596086 135032.490349 
L 298.394912 135032.490349 
L 297.193738 135032.490349 
L 295.992564 135032.490349 
L 294.791389 135032.490349 
L 293.590215 135032.490349 
L 292.389041 135032.490349 
L 291.187867 135032.490349 
L 289.986693 135032.490349 
L 288.785519 135032.490349 
L 287.584344 135032.490349 
L 286.38317 135032.490349 
L 285.181996 135032.490349 
L 283.980822 135032.490349 
L 282.779648 135032.490349 
L 281.578474 135032.490349 
L 280.377299 135032.490349 
L 279.176125 135032.490349 
L 277.974951 135032.490349 
L 276.773777 135032.490349 
L 275.572603 135032.490349 
L 274.371429 135032.490349 
L 273.170254 135032.490349 
L 271.96908 135032.490349 
L 270.767906 135032.490349 
L 269.566732 135032.490349 
L 268.365558 135032.490349 
L 267.164384 135032.490349 
L 265.963209 135032.490349 
L 264.762035 135032.490349 
L 263.560861 135032.490349 
L 262.359687 135032.490349 
L 261.158513 135032.490349 
L 259.957339 135032.490349 
L 258.756164 135032.490349 
L 257.55499 135032.490349 
L 256.353816 135032.490349 
L 255.152642 135032.490349 
L 253.951468 135032.490349 
L 252.750294 135032.490349 
L 251.549119 135032.490349 
L 250.347945 135032.490349 
L 249.146771 135032.490349 
L 247.945597 135032.490349 
L 246.744423 135032.490349 
L 245.543249 135032.490349 
L 244.342074 135032.490349 
L 243.1409 135032.490349 
L 241.939726 135032.490349 
L 240.738552 135032.490349 
L 239.537378 135032.490349 
L 238.336204 135032.490349 
L 237.135029 135032.490349 
L 235.933855 135032.490349 
L 234.732681 135032.490349 
L 233.531507 135032.490349 
L 232.330333 135032.490349 
L 231.129159 135032.490349 
L 229.927984 135032.490349 
L 228.72681 135032.490349 
L 227.525636 135032.490349 
L 226.324462 135032.490349 
L 225.123288 135032.490349 
L 223.922114 135032.490349 
L 222.720939 135032.490349 
L 221.519765 135032.490349 
L 220.318591 135032.490349 
L 219.117417 135032.490349 
L 217.916243 135032.490349 
L 216.715068 135032.490349 
L 215.513894 135032.490349 
L 214.31272 135032.490349 
L 213.111546 135032.490349 
L 211.910372 135032.490349 
L 210.709198 135032.490349 
L 209.508023 135032.490349 
L 208.306849 135032.490349 
L 207.105675 135032.490349 
L 205.904501 135032.490349 
L 204.703327 135032.490349 
L 203.502153 135032.490349 
L 202.300978 135032.490349 
L 201.099804 135032.490349 
L 199.89863 135032.490349 
L 198.697456 135032.490349 
L 197.496282 135032.490349 
L 196.295108 135032.490349 
L 195.093933 135032.490349 
L 193.892759 135032.490349 
L 192.691585 135032.490349 
L 191.490411 135032.490349 
L 190.289237 135032.490349 
L 189.088063 135032.490349 
L 187.886888 135032.490349 
L 186.685714 135032.490349 
L 185.48454 135032.490349 
L 184.283366 135032.490349 
L 183.082192 135032.490349 
L 181.881018 135032.490349 
L 180.679843 135032.490349 
L 179.478669 135032.490349 
L 178.277495 135032.490349 
L 177.076321 135032.490349 
L 175.875147 135032.490349 
L 174.673973 135032.490349 
L 173.472798 135032.490349 
L 172.271624 135032.490349 
L 171.07045 135032.490349 
L 169.869276 135032.490349 
L 168.668102 135032.490349 
L 167.466928 135032.490349 
L 166.265753 135032.490349 
L 165.064579 135032.490349 
L 163.863405 135032.490349 
L 162.662231 135032.490349 
L 161.461057 135032.490349 
L 160.259883 135032.490349 
L 159.058708 135032.490349 
L 157.857534 135032.490349 
L 156.65636 135032.490349 
L 155.455186 135032.490349 
L 154.254012 135032.490349 
L 153.052838 135032.490349 
L 151.851663 135032.490349 
L 150.650489 135032.490349 
L 149.449315 135032.490349 
L 148.248141 135032.490349 
L 147.046967 135032.490349 
L 145.845793 135032.490349 
L 144.644618 135032.490349 
L 143.443444 135032.490349 
L 142.24227 135032.490349 
L 141.041096 135032.490349 
L 139.839922 135032.490349 
L 138.638748 135032.490349 
L 137.437573 135032.490349 
L 136.236399 135032.490349 
L 135.035225 135032.490349 
L 133.834051 135032.490349 
L 132.632877 135032.490349 
L 131.431703 135032.490349 
L 130.230528 135032.490349 
L 129.029354 135032.490349 
L 127.82818 135032.490349 
L 126.627006 135032.490349 
L 125.425832 135032.490349 
L 124.224658 135032.490349 
L 123.023483 135032.490349 
L 121.822309 135032.490349 
L 120.621135 135032.490349 
L 119.419961 135032.490349 
L 118.218787 135032.490349 
L 117.017613 135032.490349 
L 115.816438 135032.490349 
L 114.615264 135032.490349 
L 113.41409 135032.490349 
L 112.212916 135032.490349 
L 111.011742 135032.490349 
L 109.810568 135032.490349 
L 108.609393 135032.490349 
L 107.408219 135032.490349 
L 106.207045 135032.490349 
L 105.005871 135032.490349 
L 103.804697 135032.490349 
L 102.603523 135032.490349 
L 101.402348 135032.490349 
L 100.201174 135032.490349 
L 99 135032.490349 
z
" style="fill:#ff8080;fill-opacity:0.5;stroke:#ff8080;stroke-opacity:0.5;"/>
   </g>
   <g id="matplotlib.axis_1">
    <g id="xtick_1">
     <g id="line2d_1">
      <path clip-path="url(#p68e2955192)" d="M 99 544.68 
L 99 73.44 
" style="fill:none;stroke:#b0b0b0;stroke-linecap:square;stroke-width:0.8;"/>
     </g>
     <g id="line2d_2">
      <defs>
       <path d="M 0 0 
L 0 3.5 
" id="m4abed1d830" style="stroke:#000000;stroke-width:0.8;"/>
      </defs>
      <g>
       <use style="stroke:#000000;stroke-width:0.8;" x="99" xlink:href="#m4abed1d830" y="544.68"/>
      </g>
     </g>
    </g>
    <g id="xtick_2">
     <g id="line2d_3">
      <path clip-path="url(#p68e2955192)" d="M 123.023483 544.68 
L 123.023483 73.44 
" style="fill:none;stroke:#b0b0b0;stroke-linecap:square;stroke-width:0.8;"/>
     </g>
     <g id="line2d_4">
      <g>
       <use style="stroke:#000000;stroke-width:0.8;" x="123.023483" xlink:href="#m4abed1d830" y="544.68"/>
      </g>
     </g>
     <g id="text_1">
      <!-- Apr -->
      <g transform="translate(114.373483 559.278437)scale(0.1 -0.1)">
       <defs>
        <path d="M 2188 4044 
L 1331 1722 
L 3047 1722 
L 2188 4044 
z
M 1831 4666 
L 2547 4666 
L 4325 0 
L 3669 0 
L 3244 1197 
L 1141 1197 
L 716 0 
L 50 0 
L 1831 4666 
z
" id="DejaVuSans-41" transform="scale(0.015625)"/>
        <path d="M 1159 525 
L 1159 -1331 
L 581 -1331 
L 581 3500 
L 1159 3500 
L 1159 2969 
Q 1341 3281 1617 3432 
Q 1894 3584 2278 3584 
Q 2916 3584 3314 3078 
Q 3713 2572 3713 1747 
Q 3713 922 3314 415 
Q 2916 -91 2278 -91 
Q 1894 -91 1617 61 
Q 1341 213 1159 525 
z
M 3116 1747 
Q 3116 2381 2855 2742 
Q 2594 3103 2138 3103 
Q 1681 3103 1420 2742 
Q 1159 2381 1159 1747 
Q 1159 1113 1420 752 
Q 1681 391 2138 391 
Q 2594 391 2855 752 
Q 3116 1113 3116 1747 
z
" id="DejaVuSans-70" transform="scale(0.015625)"/>
        <path d="M 2631 2963 
Q 2534 3019 2420 3045 
Q 2306 3072 2169 3072 
Q 1681 3072 1420 2755 
Q 1159 2438 1159 1844 
L 1159 0 
L 581 0 
L 581 3500 
L 1159 3500 
L 1159 2956 
Q 1341 3275 1631 3429 
Q 1922 3584 2338 3584 
Q 2397 3584 2469 3576 
Q 2541 3569 2628 3553 
L 2631 2963 
z
" id="DejaVuSans-72" transform="scale(0.015625)"/>
       </defs>
       <use xlink:href="#DejaVuSans-41"/>
       <use x="68.408203" xlink:href="#DejaVuSans-70"/>
       <use x="131.884766" xlink:href="#DejaVuSans-72"/>
      </g>
     </g>
    </g>
    <g id="xtick_3">
     <g id="line2d_5">
      <path clip-path="url(#p68e2955192)" d="M 232.330333 544.68 
L 232.330333 73.44 
" style="fill:none;stroke:#b0b0b0;stroke-linecap:square;stroke-width:0.8;"/>
     </g>
     <g id="line2d_6">
      <g>
       <use style="stroke:#000000;stroke-width:0.8;" x="232.330333" xlink:href="#m4abed1d830" y="544.68"/>
      </g>
     </g>
     <g id="text_2">
      <!-- Jul -->
      <g transform="translate(226.29752 559.278437)scale(0.1 -0.1)">
       <defs>
        <path d="M 628 4666 
L 1259 4666 
L 1259 325 
Q 1259 -519 939 -900 
Q 619 -1281 -91 -1281 
L -331 -1281 
L -331 -750 
L -134 -750 
Q 284 -750 456 -515 
Q 628 -281 628 325 
L 628 4666 
z
" id="DejaVuSans-4a" transform="scale(0.015625)"/>
        <path d="M 544 1381 
L 544 3500 
L 1119 3500 
L 1119 1403 
Q 1119 906 1312 657 
Q 1506 409 1894 409 
Q 2359 409 2629 706 
Q 2900 1003 2900 1516 
L 2900 3500 
L 3475 3500 
L 3475 0 
L 2900 0 
L 2900 538 
Q 2691 219 2414 64 
Q 2138 -91 1772 -91 
Q 1169 -91 856 284 
Q 544 659 544 1381 
z
M 1991 3584 
L 1991 3584 
z
" id="DejaVuSans-75" transform="scale(0.015625)"/>
        <path d="M 603 4863 
L 1178 4863 
L 1178 0 
L 603 0 
L 603 4863 
z
" id="DejaVuSans-6c" transform="scale(0.015625)"/>
       </defs>
       <use xlink:href="#DejaVuSans-4a"/>
       <use x="29.492188" xlink:href="#DejaVuSans-75"/>
       <use x="92.871094" xlink:href="#DejaVuSans-6c"/>
      </g>
     </g>
    </g>
    <g id="xtick_4">
     <g id="line2d_7">
      <path clip-path="url(#p68e2955192)" d="M 342.838356 544.68 
L 342.838356 73.44 
" style="fill:none;stroke:#b0b0b0;stroke-linecap:square;stroke-width:0.8;"/>
     </g>
     <g id="line2d_8">
      <g>
       <use style="stroke:#000000;stroke-width:0.8;" x="342.838356" xlink:href="#m4abed1d830" y="544.68"/>
      </g>
     </g>
     <g id="text_3">
      <!-- Oct -->
      <g transform="translate(334.193044 559.278437)scale(0.1 -0.1)">
       <defs>
        <path d="M 2522 4238 
Q 1834 4238 1429 3725 
Q 1025 3213 1025 2328 
Q 1025 1447 1429 934 
Q 1834 422 2522 422 
Q 3209 422 3611 934 
Q 4013 1447 4013 2328 
Q 4013 3213 3611 3725 
Q 3209 4238 2522 4238 
z
M 2522 4750 
Q 3503 4750 4090 4092 
Q 4678 3434 4678 2328 
Q 4678 1225 4090 567 
Q 3503 -91 2522 -91 
Q 1538 -91 948 565 
Q 359 1222 359 2328 
Q 359 3434 948 4092 
Q 1538 4750 2522 4750 
z
" id="DejaVuSans-4f" transform="scale(0.015625)"/>
        <path d="M 3122 3366 
L 3122 2828 
Q 2878 2963 2633 3030 
Q 2388 3097 2138 3097 
Q 1578 3097 1268 2742 
Q 959 2388 959 1747 
Q 959 1106 1268 751 
Q 1578 397 2138 397 
Q 2388 397 2633 464 
Q 2878 531 3122 666 
L 3122 134 
Q 2881 22 2623 -34 
Q 2366 -91 2075 -91 
Q 1284 -91 818 406 
Q 353 903 353 1747 
Q 353 2603 823 3093 
Q 1294 3584 2113 3584 
Q 2378 3584 2631 3529 
Q 2884 3475 3122 3366 
z
" id="DejaVuSans-63" transform="scale(0.015625)"/>
        <path d="M 1172 4494 
L 1172 3500 
L 2356 3500 
L 2356 3053 
L 1172 3053 
L 1172 1153 
Q 1172 725 1289 603 
Q 1406 481 1766 481 
L 2356 481 
L 2356 0 
L 1766 0 
Q 1100 0 847 248 
Q 594 497 594 1153 
L 594 3053 
L 172 3053 
L 172 3500 
L 594 3500 
L 594 4494 
L 1172 4494 
z
" id="DejaVuSans-74" transform="scale(0.015625)"/>
       </defs>
       <use xlink:href="#DejaVuSans-4f"/>
       <use x="78.710938" xlink:href="#DejaVuSans-63"/>
       <use x="133.691406" xlink:href="#DejaVuSans-74"/>
      </g>
     </g>
    </g>
    <g id="xtick_5">
     <g id="line2d_9">
      <path clip-path="url(#p68e2955192)" d="M 453.34638 544.68 
L 453.34638 73.44 
" style="fill:none;stroke:#b0b0b0;stroke-linecap:square;stroke-width:0.8;"/>
     </g>
     <g id="line2d_10">
      <g>
       <use style="stroke:#000000;stroke-width:0.8;" x="453.34638" xlink:href="#m4abed1d830" y="544.68"/>
      </g>
     </g>
     <g id="text_4">
      <!-- Jan -->
      <g transform="translate(445.638567 559.278437)scale(0.1 -0.1)">
       <defs>
        <path d="M 2194 1759 
Q 1497 1759 1228 1600 
Q 959 1441 959 1056 
Q 959 750 1161 570 
Q 1363 391 1709 391 
Q 2188 391 2477 730 
Q 2766 1069 2766 1631 
L 2766 1759 
L 2194 1759 
z
M 3341 1997 
L 3341 0 
L 2766 0 
L 2766 531 
Q 2569 213 2275 61 
Q 1981 -91 1556 -91 
Q 1019 -91 701 211 
Q 384 513 384 1019 
Q 384 1609 779 1909 
Q 1175 2209 1959 2209 
L 2766 2209 
L 2766 2266 
Q 2766 2663 2505 2880 
Q 2244 3097 1772 3097 
Q 1472 3097 1187 3025 
Q 903 2953 641 2809 
L 641 3341 
Q 956 3463 1253 3523 
Q 1550 3584 1831 3584 
Q 2591 3584 2966 3190 
Q 3341 2797 3341 1997 
z
" id="DejaVuSans-61" transform="scale(0.015625)"/>
        <path d="M 3513 2113 
L 3513 0 
L 2938 0 
L 2938 2094 
Q 2938 2591 2744 2837 
Q 2550 3084 2163 3084 
Q 1697 3084 1428 2787 
Q 1159 2491 1159 1978 
L 1159 0 
L 581 0 
L 581 3500 
L 1159 3500 
L 1159 2956 
Q 1366 3272 1645 3428 
Q 1925 3584 2291 3584 
Q 2894 3584 3203 3211 
Q 3513 2838 3513 2113 
z
" id="DejaVuSans-6e" transform="scale(0.015625)"/>
       </defs>
       <use xlink:href="#DejaVuSans-4a"/>
       <use x="29.492188" xlink:href="#DejaVuSans-61"/>
       <use x="90.771484" xlink:href="#DejaVuSans-6e"/>
      </g>
      <!-- 2021 -->
      <g transform="translate(440.62138 570.47625)scale(0.1 -0.1)">
       <defs>
        <path d="M 1228 531 
L 3431 531 
L 3431 0 
L 469 0 
L 469 531 
Q 828 903 1448 1529 
Q 2069 2156 2228 2338 
Q 2531 2678 2651 2914 
Q 2772 3150 2772 3378 
Q 2772 3750 2511 3984 
Q 2250 4219 1831 4219 
Q 1534 4219 1204 4116 
Q 875 4013 500 3803 
L 500 4441 
Q 881 4594 1212 4672 
Q 1544 4750 1819 4750 
Q 2544 4750 2975 4387 
Q 3406 4025 3406 3419 
Q 3406 3131 3298 2873 
Q 3191 2616 2906 2266 
Q 2828 2175 2409 1742 
Q 1991 1309 1228 531 
z
" id="DejaVuSans-32" transform="scale(0.015625)"/>
        <path d="M 2034 4250 
Q 1547 4250 1301 3770 
Q 1056 3291 1056 2328 
Q 1056 1369 1301 889 
Q 1547 409 2034 409 
Q 2525 409 2770 889 
Q 3016 1369 3016 2328 
Q 3016 3291 2770 3770 
Q 2525 4250 2034 4250 
z
M 2034 4750 
Q 2819 4750 3233 4129 
Q 3647 3509 3647 2328 
Q 3647 1150 3233 529 
Q 2819 -91 2034 -91 
Q 1250 -91 836 529 
Q 422 1150 422 2328 
Q 422 3509 836 4129 
Q 1250 4750 2034 4750 
z
" id="DejaVuSans-30" transform="scale(0.015625)"/>
        <path d="M 794 531 
L 1825 531 
L 1825 4091 
L 703 3866 
L 703 4441 
L 1819 4666 
L 2450 4666 
L 2450 531 
L 3481 531 
L 3481 0 
L 794 0 
L 794 531 
z
" id="DejaVuSans-31" transform="scale(0.015625)"/>
       </defs>
       <use xlink:href="#DejaVuSans-32"/>
       <use x="63.623047" xlink:href="#DejaVuSans-30"/>
       <use x="127.246094" xlink:href="#DejaVuSans-32"/>
       <use x="190.869141" xlink:href="#DejaVuSans-31"/>
      </g>
     </g>
    </g>
    <g id="xtick_6">
     <g id="line2d_11">
      <path clip-path="url(#p68e2955192)" d="M 561.452055 544.68 
L 561.452055 73.44 
" style="fill:none;stroke:#b0b0b0;stroke-linecap:square;stroke-width:0.8;"/>
     </g>
     <g id="line2d_12">
      <g>
       <use style="stroke:#000000;stroke-width:0.8;" x="561.452055" xlink:href="#m4abed1d830" y="544.68"/>
      </g>
     </g>
     <g id="text_5">
      <!-- Apr -->
      <g transform="translate(552.802055 559.278437)scale(0.1 -0.1)">
       <use xlink:href="#DejaVuSans-41"/>
       <use x="68.408203" xlink:href="#DejaVuSans-70"/>
       <use x="131.884766" xlink:href="#DejaVuSans-72"/>
      </g>
     </g>
    </g>
    <g id="xtick_7">
     <g id="line2d_13">
      <path clip-path="url(#p68e2955192)" d="M 670.758904 544.68 
L 670.758904 73.44 
" style="fill:none;stroke:#b0b0b0;stroke-linecap:square;stroke-width:0.8;"/>
     </g>
     <g id="line2d_14">
      <g>
       <use style="stroke:#000000;stroke-width:0.8;" x="670.758904" xlink:href="#m4abed1d830" y="544.68"/>
      </g>
     </g>
     <g id="text_6">
      <!-- Jul -->
      <g transform="translate(664.726092 559.278437)scale(0.1 -0.1)">
       <use xlink:href="#DejaVuSans-4a"/>
       <use x="29.492188" xlink:href="#DejaVuSans-75"/>
       <use x="92.871094" xlink:href="#DejaVuSans-6c"/>
      </g>
     </g>
    </g>
    <g id="xtick_8">
     <g id="line2d_15">
      <path clip-path="url(#p68e2955192)" d="M 712.8 544.68 
L 712.8 73.44 
" style="fill:none;stroke:#b0b0b0;stroke-linecap:square;stroke-width:0.8;"/>
     </g>
     <g id="line2d_16">
      <g>
       <use style="stroke:#000000;stroke-width:0.8;" x="712.8" xlink:href="#m4abed1d830" y="544.68"/>
      </g>
     </g>
    </g>
    <g id="xtick_9">
     <g id="line2d_17">
      <defs>
       <path d="M 0 0 
L 0 2 
" id="mbe9820739d" style="stroke:#000000;stroke-width:0.6;"/>
      </defs>
      <g>
       <use style="stroke:#000000;stroke-width:0.6;" x="159.058708" xlink:href="#mbe9820739d" y="544.68"/>
      </g>
     </g>
    </g>
    <g id="xtick_10">
     <g id="line2d_18">
      <g>
       <use style="stroke:#000000;stroke-width:0.6;" x="196.295108" xlink:href="#mbe9820739d" y="544.68"/>
      </g>
     </g>
    </g>
    <g id="xtick_11">
     <g id="line2d_19">
      <g>
       <use style="stroke:#000000;stroke-width:0.6;" x="269.566732" xlink:href="#mbe9820739d" y="544.68"/>
      </g>
     </g>
    </g>
    <g id="xtick_12">
     <g id="line2d_20">
      <g>
       <use style="stroke:#000000;stroke-width:0.6;" x="306.803131" xlink:href="#mbe9820739d" y="544.68"/>
      </g>
     </g>
    </g>
    <g id="xtick_13">
     <g id="line2d_21">
      <g>
       <use style="stroke:#000000;stroke-width:0.6;" x="380.074755" xlink:href="#mbe9820739d" y="544.68"/>
      </g>
     </g>
    </g>
    <g id="xtick_14">
     <g id="line2d_22">
      <g>
       <use style="stroke:#000000;stroke-width:0.6;" x="416.10998" xlink:href="#mbe9820739d" y="544.68"/>
      </g>
     </g>
    </g>
    <g id="xtick_15">
     <g id="line2d_23">
      <g>
       <use style="stroke:#000000;stroke-width:0.6;" x="490.582779" xlink:href="#mbe9820739d" y="544.68"/>
      </g>
     </g>
    </g>
    <g id="xtick_16">
     <g id="line2d_24">
      <g>
       <use style="stroke:#000000;stroke-width:0.6;" x="524.215656" xlink:href="#mbe9820739d" y="544.68"/>
      </g>
     </g>
    </g>
    <g id="xtick_17">
     <g id="line2d_25">
      <g>
       <use style="stroke:#000000;stroke-width:0.6;" x="597.48728" xlink:href="#mbe9820739d" y="544.68"/>
      </g>
     </g>
    </g>
    <g id="xtick_18">
     <g id="line2d_26">
      <g>
       <use style="stroke:#000000;stroke-width:0.6;" x="634.723679" xlink:href="#mbe9820739d" y="544.68"/>
      </g>
     </g>
    </g>
    <g id="xtick_19">
     <g id="line2d_27">
      <g>
       <use style="stroke:#000000;stroke-width:0.6;" x="707.995303" xlink:href="#mbe9820739d" y="544.68"/>
      </g>
     </g>
    </g>
    <g id="text_7">
     <!-- Date -->
     <g transform="translate(393.949219 584.154375)scale(0.1 -0.1)">
      <defs>
       <path d="M 1259 4147 
L 1259 519 
L 2022 519 
Q 2988 519 3436 956 
Q 3884 1394 3884 2338 
Q 3884 3275 3436 3711 
Q 2988 4147 2022 4147 
L 1259 4147 
z
M 628 4666 
L 1925 4666 
Q 3281 4666 3915 4102 
Q 4550 3538 4550 2338 
Q 4550 1131 3912 565 
Q 3275 0 1925 0 
L 628 0 
L 628 4666 
z
" id="DejaVuSans-44" transform="scale(0.015625)"/>
       <path d="M 3597 1894 
L 3597 1613 
L 953 1613 
Q 991 1019 1311 708 
Q 1631 397 2203 397 
Q 2534 397 2845 478 
Q 3156 559 3463 722 
L 3463 178 
Q 3153 47 2828 -22 
Q 2503 -91 2169 -91 
Q 1331 -91 842 396 
Q 353 884 353 1716 
Q 353 2575 817 3079 
Q 1281 3584 2069 3584 
Q 2775 3584 3186 3129 
Q 3597 2675 3597 1894 
z
M 3022 2063 
Q 3016 2534 2758 2815 
Q 2500 3097 2075 3097 
Q 1594 3097 1305 2825 
Q 1016 2553 972 2059 
L 3022 2063 
z
" id="DejaVuSans-65" transform="scale(0.015625)"/>
      </defs>
      <use xlink:href="#DejaVuSans-44"/>
      <use x="77.001953" xlink:href="#DejaVuSans-61"/>
      <use x="138.28125" xlink:href="#DejaVuSans-74"/>
      <use x="177.490234" xlink:href="#DejaVuSans-65"/>
     </g>
    </g>
   </g>
   <g id="matplotlib.axis_2">
    <g id="ytick_1">
     <g id="line2d_28">
      <path clip-path="url(#p68e2955192)" d="M 99 482.756494 
L 712.8 482.756494 
" style="fill:none;stroke:#b0b0b0;stroke-linecap:square;stroke-width:0.8;"/>
     </g>
     <g id="line2d_29">
      <defs>
       <path d="M 0 0 
L -3.5 0 
" id="me91a084207" style="stroke:#000000;stroke-width:0.8;"/>
      </defs>
      <g>
       <use style="stroke:#000000;stroke-width:0.8;" x="99" xlink:href="#me91a084207" y="482.756494"/>
      </g>
     </g>
     <g id="text_8">
      <!-- $\mathdefault{10^{0}}$ -->
      <g transform="translate(74.4 486.555713)scale(0.1 -0.1)">
       <use transform="translate(0 0.765625)" xlink:href="#DejaVuSans-31"/>
       <use transform="translate(63.623047 0.765625)" xlink:href="#DejaVuSans-30"/>
       <use transform="translate(128.203125 39.046875)scale(0.7)" xlink:href="#DejaVuSans-30"/>
      </g>
     </g>
    </g>
    <g id="ytick_2">
     <g id="line2d_30">
      <path clip-path="url(#p68e2955192)" d="M 99 348.20676 
L 712.8 348.20676 
" style="fill:none;stroke:#b0b0b0;stroke-linecap:square;stroke-width:0.8;"/>
     </g>
     <g id="line2d_31">
      <g>
       <use style="stroke:#000000;stroke-width:0.8;" x="99" xlink:href="#me91a084207" y="348.20676"/>
      </g>
     </g>
     <g id="text_9">
      <!-- $\mathdefault{10^{1}}$ -->
      <g transform="translate(74.4 352.005979)scale(0.1 -0.1)">
       <use transform="translate(0 0.684375)" xlink:href="#DejaVuSans-31"/>
       <use transform="translate(63.623047 0.684375)" xlink:href="#DejaVuSans-30"/>
       <use transform="translate(128.203125 38.965625)scale(0.7)" xlink:href="#DejaVuSans-31"/>
      </g>
     </g>
    </g>
    <g id="ytick_3">
     <g id="line2d_32">
      <path clip-path="url(#p68e2955192)" d="M 99 213.657026 
L 712.8 213.657026 
" style="fill:none;stroke:#b0b0b0;stroke-linecap:square;stroke-width:0.8;"/>
     </g>
     <g id="line2d_33">
      <g>
       <use style="stroke:#000000;stroke-width:0.8;" x="99" xlink:href="#me91a084207" y="213.657026"/>
      </g>
     </g>
     <g id="text_10">
      <!-- $\mathdefault{10^{2}}$ -->
      <g transform="translate(74.4 217.456245)scale(0.1 -0.1)">
       <use transform="translate(0 0.765625)" xlink:href="#DejaVuSans-31"/>
       <use transform="translate(63.623047 0.765625)" xlink:href="#DejaVuSans-30"/>
       <use transform="translate(128.203125 39.046875)scale(0.7)" xlink:href="#DejaVuSans-32"/>
      </g>
     </g>
    </g>
    <g id="ytick_4">
     <g id="line2d_34">
      <path clip-path="url(#p68e2955192)" d="M 99 79.107293 
L 712.8 79.107293 
" style="fill:none;stroke:#b0b0b0;stroke-linecap:square;stroke-width:0.8;"/>
     </g>
     <g id="line2d_35">
      <g>
       <use style="stroke:#000000;stroke-width:0.8;" x="99" xlink:href="#me91a084207" y="79.107293"/>
      </g>
     </g>
     <g id="text_11">
      <!-- $\mathdefault{10^{3}}$ -->
      <g transform="translate(74.4 82.906511)scale(0.1 -0.1)">
       <defs>
        <path d="M 2597 2516 
Q 3050 2419 3304 2112 
Q 3559 1806 3559 1356 
Q 3559 666 3084 287 
Q 2609 -91 1734 -91 
Q 1441 -91 1130 -33 
Q 819 25 488 141 
L 488 750 
Q 750 597 1062 519 
Q 1375 441 1716 441 
Q 2309 441 2620 675 
Q 2931 909 2931 1356 
Q 2931 1769 2642 2001 
Q 2353 2234 1838 2234 
L 1294 2234 
L 1294 2753 
L 1863 2753 
Q 2328 2753 2575 2939 
Q 2822 3125 2822 3475 
Q 2822 3834 2567 4026 
Q 2313 4219 1838 4219 
Q 1578 4219 1281 4162 
Q 984 4106 628 3988 
L 628 4550 
Q 988 4650 1302 4700 
Q 1616 4750 1894 4750 
Q 2613 4750 3031 4423 
Q 3450 4097 3450 3541 
Q 3450 3153 3228 2886 
Q 3006 2619 2597 2516 
z
" id="DejaVuSans-33" transform="scale(0.015625)"/>
       </defs>
       <use transform="translate(0 0.765625)" xlink:href="#DejaVuSans-31"/>
       <use transform="translate(63.623047 0.765625)" xlink:href="#DejaVuSans-30"/>
       <use transform="translate(128.203125 39.046875)scale(0.7)" xlink:href="#DejaVuSans-33"/>
      </g>
     </g>
    </g>
    <g id="ytick_5">
     <g id="line2d_36">
      <path clip-path="url(#p68e2955192)" d="M 99 536.299216 
L 712.8 536.299216 
" style="fill:none;stroke:#b0b0b0;stroke-linecap:square;stroke-width:0.8;"/>
     </g>
     <g id="line2d_37">
      <defs>
       <path d="M 0 0 
L -2 0 
" id="m0cb60b688e" style="stroke:#000000;stroke-width:0.6;"/>
      </defs>
      <g>
       <use style="stroke:#000000;stroke-width:0.6;" x="99" xlink:href="#m0cb60b688e" y="536.299216"/>
      </g>
     </g>
    </g>
    <g id="ytick_6">
     <g id="line2d_38">
      <path clip-path="url(#p68e2955192)" d="M 99 523.26 
L 712.8 523.26 
" style="fill:none;stroke:#b0b0b0;stroke-linecap:square;stroke-width:0.8;"/>
     </g>
     <g id="line2d_39">
      <g>
       <use style="stroke:#000000;stroke-width:0.6;" x="99" xlink:href="#m0cb60b688e" y="523.26"/>
      </g>
     </g>
    </g>
    <g id="ytick_7">
     <g id="line2d_40">
      <path clip-path="url(#p68e2955192)" d="M 99 512.606184 
L 712.8 512.606184 
" style="fill:none;stroke:#b0b0b0;stroke-linecap:square;stroke-width:0.8;"/>
     </g>
     <g id="line2d_41">
      <g>
       <use style="stroke:#000000;stroke-width:0.6;" x="99" xlink:href="#m0cb60b688e" y="512.606184"/>
      </g>
     </g>
    </g>
    <g id="ytick_8">
     <g id="line2d_42">
      <path clip-path="url(#p68e2955192)" d="M 99 503.598512 
L 712.8 503.598512 
" style="fill:none;stroke:#b0b0b0;stroke-linecap:square;stroke-width:0.8;"/>
     </g>
     <g id="line2d_43">
      <g>
       <use style="stroke:#000000;stroke-width:0.6;" x="99" xlink:href="#m0cb60b688e" y="503.598512"/>
      </g>
     </g>
    </g>
    <g id="ytick_9">
     <g id="line2d_44">
      <path clip-path="url(#p68e2955192)" d="M 99 495.795711 
L 712.8 495.795711 
" style="fill:none;stroke:#b0b0b0;stroke-linecap:square;stroke-width:0.8;"/>
     </g>
     <g id="line2d_45">
      <g>
       <use style="stroke:#000000;stroke-width:0.6;" x="99" xlink:href="#m0cb60b688e" y="495.795711"/>
      </g>
     </g>
    </g>
    <g id="ytick_10">
     <g id="line2d_46">
      <path clip-path="url(#p68e2955192)" d="M 99 488.913152 
L 712.8 488.913152 
" style="fill:none;stroke:#b0b0b0;stroke-linecap:square;stroke-width:0.8;"/>
     </g>
     <g id="line2d_47">
      <g>
       <use style="stroke:#000000;stroke-width:0.6;" x="99" xlink:href="#m0cb60b688e" y="488.913152"/>
      </g>
     </g>
    </g>
    <g id="ytick_11">
     <g id="line2d_48">
      <path clip-path="url(#p68e2955192)" d="M 99 442.252988 
L 712.8 442.252988 
" style="fill:none;stroke:#b0b0b0;stroke-linecap:square;stroke-width:0.8;"/>
     </g>
     <g id="line2d_49">
      <g>
       <use style="stroke:#000000;stroke-width:0.6;" x="99" xlink:href="#m0cb60b688e" y="442.252988"/>
      </g>
     </g>
    </g>
    <g id="ytick_12">
     <g id="line2d_50">
      <path clip-path="url(#p68e2955192)" d="M 99 418.559956 
L 712.8 418.559956 
" style="fill:none;stroke:#b0b0b0;stroke-linecap:square;stroke-width:0.8;"/>
     </g>
     <g id="line2d_51">
      <g>
       <use style="stroke:#000000;stroke-width:0.6;" x="99" xlink:href="#m0cb60b688e" y="418.559956"/>
      </g>
     </g>
    </g>
    <g id="ytick_13">
     <g id="line2d_52">
      <path clip-path="url(#p68e2955192)" d="M 99 401.749483 
L 712.8 401.749483 
" style="fill:none;stroke:#b0b0b0;stroke-linecap:square;stroke-width:0.8;"/>
     </g>
     <g id="line2d_53">
      <g>
       <use style="stroke:#000000;stroke-width:0.6;" x="99" xlink:href="#m0cb60b688e" y="401.749483"/>
      </g>
     </g>
    </g>
    <g id="ytick_14">
     <g id="line2d_54">
      <path clip-path="url(#p68e2955192)" d="M 99 388.710266 
L 712.8 388.710266 
" style="fill:none;stroke:#b0b0b0;stroke-linecap:square;stroke-width:0.8;"/>
     </g>
     <g id="line2d_55">
      <g>
       <use style="stroke:#000000;stroke-width:0.6;" x="99" xlink:href="#m0cb60b688e" y="388.710266"/>
      </g>
     </g>
    </g>
    <g id="ytick_15">
     <g id="line2d_56">
      <path clip-path="url(#p68e2955192)" d="M 99 378.056451 
L 712.8 378.056451 
" style="fill:none;stroke:#b0b0b0;stroke-linecap:square;stroke-width:0.8;"/>
     </g>
     <g id="line2d_57">
      <g>
       <use style="stroke:#000000;stroke-width:0.6;" x="99" xlink:href="#m0cb60b688e" y="378.056451"/>
      </g>
     </g>
    </g>
    <g id="ytick_16">
     <g id="line2d_58">
      <path clip-path="url(#p68e2955192)" d="M 99 369.048778 
L 712.8 369.048778 
" style="fill:none;stroke:#b0b0b0;stroke-linecap:square;stroke-width:0.8;"/>
     </g>
     <g id="line2d_59">
      <g>
       <use style="stroke:#000000;stroke-width:0.6;" x="99" xlink:href="#m0cb60b688e" y="369.048778"/>
      </g>
     </g>
    </g>
    <g id="ytick_17">
     <g id="line2d_60">
      <path clip-path="url(#p68e2955192)" d="M 99 361.245977 
L 712.8 361.245977 
" style="fill:none;stroke:#b0b0b0;stroke-linecap:square;stroke-width:0.8;"/>
     </g>
     <g id="line2d_61">
      <g>
       <use style="stroke:#000000;stroke-width:0.6;" x="99" xlink:href="#m0cb60b688e" y="361.245977"/>
      </g>
     </g>
    </g>
    <g id="ytick_18">
     <g id="line2d_62">
      <path clip-path="url(#p68e2955192)" d="M 99 354.363419 
L 712.8 354.363419 
" style="fill:none;stroke:#b0b0b0;stroke-linecap:square;stroke-width:0.8;"/>
     </g>
     <g id="line2d_63">
      <g>
       <use style="stroke:#000000;stroke-width:0.6;" x="99" xlink:href="#m0cb60b688e" y="354.363419"/>
      </g>
     </g>
    </g>
    <g id="ytick_19">
     <g id="line2d_64">
      <path clip-path="url(#p68e2955192)" d="M 99 307.703255 
L 712.8 307.703255 
" style="fill:none;stroke:#b0b0b0;stroke-linecap:square;stroke-width:0.8;"/>
     </g>
     <g id="line2d_65">
      <g>
       <use style="stroke:#000000;stroke-width:0.6;" x="99" xlink:href="#m0cb60b688e" y="307.703255"/>
      </g>
     </g>
    </g>
    <g id="ytick_20">
     <g id="line2d_66">
      <path clip-path="url(#p68e2955192)" d="M 99 284.010223 
L 712.8 284.010223 
" style="fill:none;stroke:#b0b0b0;stroke-linecap:square;stroke-width:0.8;"/>
     </g>
     <g id="line2d_67">
      <g>
       <use style="stroke:#000000;stroke-width:0.6;" x="99" xlink:href="#m0cb60b688e" y="284.010223"/>
      </g>
     </g>
    </g>
    <g id="ytick_21">
     <g id="line2d_68">
      <path clip-path="url(#p68e2955192)" d="M 99 267.199749 
L 712.8 267.199749 
" style="fill:none;stroke:#b0b0b0;stroke-linecap:square;stroke-width:0.8;"/>
     </g>
     <g id="line2d_69">
      <g>
       <use style="stroke:#000000;stroke-width:0.6;" x="99" xlink:href="#m0cb60b688e" y="267.199749"/>
      </g>
     </g>
    </g>
    <g id="ytick_22">
     <g id="line2d_70">
      <path clip-path="url(#p68e2955192)" d="M 99 254.160532 
L 712.8 254.160532 
" style="fill:none;stroke:#b0b0b0;stroke-linecap:square;stroke-width:0.8;"/>
     </g>
     <g id="line2d_71">
      <g>
       <use style="stroke:#000000;stroke-width:0.6;" x="99" xlink:href="#m0cb60b688e" y="254.160532"/>
      </g>
     </g>
    </g>
    <g id="ytick_23">
     <g id="line2d_72">
      <path clip-path="url(#p68e2955192)" d="M 99 243.506717 
L 712.8 243.506717 
" style="fill:none;stroke:#b0b0b0;stroke-linecap:square;stroke-width:0.8;"/>
     </g>
     <g id="line2d_73">
      <g>
       <use style="stroke:#000000;stroke-width:0.6;" x="99" xlink:href="#m0cb60b688e" y="243.506717"/>
      </g>
     </g>
    </g>
    <g id="ytick_24">
     <g id="line2d_74">
      <path clip-path="url(#p68e2955192)" d="M 99 234.499044 
L 712.8 234.499044 
" style="fill:none;stroke:#b0b0b0;stroke-linecap:square;stroke-width:0.8;"/>
     </g>
     <g id="line2d_75">
      <g>
       <use style="stroke:#000000;stroke-width:0.6;" x="99" xlink:href="#m0cb60b688e" y="234.499044"/>
      </g>
     </g>
    </g>
    <g id="ytick_25">
     <g id="line2d_76">
      <path clip-path="url(#p68e2955192)" d="M 99 226.696243 
L 712.8 226.696243 
" style="fill:none;stroke:#b0b0b0;stroke-linecap:square;stroke-width:0.8;"/>
     </g>
     <g id="line2d_77">
      <g>
       <use style="stroke:#000000;stroke-width:0.6;" x="99" xlink:href="#m0cb60b688e" y="226.696243"/>
      </g>
     </g>
    </g>
    <g id="ytick_26">
     <g id="line2d_78">
      <path clip-path="url(#p68e2955192)" d="M 99 219.813685 
L 712.8 219.813685 
" style="fill:none;stroke:#b0b0b0;stroke-linecap:square;stroke-width:0.8;"/>
     </g>
     <g id="line2d_79">
      <g>
       <use style="stroke:#000000;stroke-width:0.6;" x="99" xlink:href="#m0cb60b688e" y="219.813685"/>
      </g>
     </g>
    </g>
    <g id="ytick_27">
     <g id="line2d_80">
      <path clip-path="url(#p68e2955192)" d="M 99 173.153521 
L 712.8 173.153521 
" style="fill:none;stroke:#b0b0b0;stroke-linecap:square;stroke-width:0.8;"/>
     </g>
     <g id="line2d_81">
      <g>
       <use style="stroke:#000000;stroke-width:0.6;" x="99" xlink:href="#m0cb60b688e" y="173.153521"/>
      </g>
     </g>
    </g>
    <g id="ytick_28">
     <g id="line2d_82">
      <path clip-path="url(#p68e2955192)" d="M 99 149.460489 
L 712.8 149.460489 
" style="fill:none;stroke:#b0b0b0;stroke-linecap:square;stroke-width:0.8;"/>
     </g>
     <g id="line2d_83">
      <g>
       <use style="stroke:#000000;stroke-width:0.6;" x="99" xlink:href="#m0cb60b688e" y="149.460489"/>
      </g>
     </g>
    </g>
    <g id="ytick_29">
     <g id="line2d_84">
      <path clip-path="url(#p68e2955192)" d="M 99 132.650015 
L 712.8 132.650015 
" style="fill:none;stroke:#b0b0b0;stroke-linecap:square;stroke-width:0.8;"/>
     </g>
     <g id="line2d_85">
      <g>
       <use style="stroke:#000000;stroke-width:0.6;" x="99" xlink:href="#m0cb60b688e" y="132.650015"/>
      </g>
     </g>
    </g>
    <g id="ytick_30">
     <g id="line2d_86">
      <path clip-path="url(#p68e2955192)" d="M 99 119.610798 
L 712.8 119.610798 
" style="fill:none;stroke:#b0b0b0;stroke-linecap:square;stroke-width:0.8;"/>
     </g>
     <g id="line2d_87">
      <g>
       <use style="stroke:#000000;stroke-width:0.6;" x="99" xlink:href="#m0cb60b688e" y="119.610798"/>
      </g>
     </g>
    </g>
    <g id="ytick_31">
     <g id="line2d_88">
      <path clip-path="url(#p68e2955192)" d="M 99 108.956983 
L 712.8 108.956983 
" style="fill:none;stroke:#b0b0b0;stroke-linecap:square;stroke-width:0.8;"/>
     </g>
     <g id="line2d_89">
      <g>
       <use style="stroke:#000000;stroke-width:0.6;" x="99" xlink:href="#m0cb60b688e" y="108.956983"/>
      </g>
     </g>
    </g>
    <g id="ytick_32">
     <g id="line2d_90">
      <path clip-path="url(#p68e2955192)" d="M 99 99.94931 
L 712.8 99.94931 
" style="fill:none;stroke:#b0b0b0;stroke-linecap:square;stroke-width:0.8;"/>
     </g>
     <g id="line2d_91">
      <g>
       <use style="stroke:#000000;stroke-width:0.6;" x="99" xlink:href="#m0cb60b688e" y="99.94931"/>
      </g>
     </g>
    </g>
    <g id="ytick_33">
     <g id="line2d_92">
      <path clip-path="url(#p68e2955192)" d="M 99 92.146509 
L 712.8 92.146509 
" style="fill:none;stroke:#b0b0b0;stroke-linecap:square;stroke-width:0.8;"/>
     </g>
     <g id="line2d_93">
      <g>
       <use style="stroke:#000000;stroke-width:0.6;" x="99" xlink:href="#m0cb60b688e" y="92.146509"/>
      </g>
     </g>
    </g>
    <g id="ytick_34">
     <g id="line2d_94">
      <path clip-path="url(#p68e2955192)" d="M 99 85.263951 
L 712.8 85.263951 
" style="fill:none;stroke:#b0b0b0;stroke-linecap:square;stroke-width:0.8;"/>
     </g>
     <g id="line2d_95">
      <g>
       <use style="stroke:#000000;stroke-width:0.6;" x="99" xlink:href="#m0cb60b688e" y="85.263951"/>
      </g>
     </g>
    </g>
   </g>
   <g id="line2d_96">
    <path clip-path="url(#p68e2955192)" d="M 114.613624 613 
L 114.615264 429.213772 
L 115.816438 418.559956 
L 117.017613 418.559956 
L 118.218787 394.866924 
L 119.419961 373.379218 
L 120.621135 373.379218 
L 121.822309 357.703425 
L 123.023483 348.20676 
L 125.425832 348.20676 
L 126.627006 342.637386 
L 127.82818 335.167544 
L 129.029354 342.637386 
L 130.230528 335.167544 
L 132.632877 335.167544 
L 133.834051 340.039882 
L 135.035225 342.637386 
L 137.437573 342.637386 
L 138.638748 345.355746 
L 141.041096 345.355746 
L 142.24227 348.20676 
L 143.443444 354.363419 
L 144.644618 357.703425 
L 145.845793 357.703425 
L 147.046967 361.245977 
L 148.248141 361.245977 
L 149.449315 365.017234 
L 150.650489 373.379218 
L 151.851663 383.140891 
L 153.052838 388.710266 
L 155.455186 388.710266 
L 156.65636 394.866924 
L 157.857534 401.749483 
L 159.058708 401.749483 
L 160.259883 418.559956 
L 161.461057 429.213772 
L 162.662231 429.213772 
L 163.863405 442.252988 
L 166.265753 442.252988 
L 167.466928 429.213772 
L 169.869276 429.213772 
L 171.07045 442.252988 
L 172.271624 442.252988 
L 173.472798 459.063462 
L 174.673973 442.252988 
L 175.875147 459.063462 
L 177.076321 442.252988 
L 178.277495 442.252988 
L 179.478669 429.213772 
L 180.679843 429.213772 
L 181.881018 418.559956 
L 183.082192 429.213772 
L 184.283366 442.252988 
L 185.48454 429.213772 
L 186.685714 429.213772 
L 187.886888 418.559956 
L 195.093933 418.559956 
L 196.295108 409.552284 
L 197.496282 394.866924 
L 198.697456 388.710266 
L 199.89863 383.140891 
L 201.099804 373.379218 
L 202.300978 348.20676 
L 203.502153 342.637386 
L 204.703327 330.670386 
L 205.904501 330.670386 
L 207.105675 318.944354 
L 208.306849 310.700538 
L 209.508023 307.703255 
L 210.709198 303.477254 
L 211.910372 307.703255 
L 213.111546 307.703255 
L 214.31272 310.700538 
L 215.513894 306.260361 
L 216.715068 310.700538 
L 217.916243 310.700538 
L 219.117417 306.260361 
L 221.519765 306.260361 
L 222.720939 302.13388 
L 223.922114 303.477254 
L 225.123288 303.477254 
L 226.324462 300.820696 
L 227.525636 300.820696 
L 228.72681 295.844567 
L 232.330333 292.372207 
L 233.531507 288.041766 
L 234.732681 281.159208 
L 235.933855 275.843344 
L 238.336204 275.843344 
L 239.537378 279.33299 
L 240.738552 270.971006 
L 241.939726 270.971006 
L 243.1409 260.970093 
L 244.342074 256.545933 
L 245.543249 255.341061 
L 246.744423 254.747816 
L 249.146771 249.124807 
L 250.347945 247.018842 
L 251.549119 249.124807 
L 252.750294 247.53826 
L 253.951468 243.995709 
L 256.353816 232.448511 
L 257.55499 230.4675 
L 262.359687 230.4675 
L 263.560861 223.153691 
L 264.762035 214.24431 
L 265.963209 214.24431 
L 267.164384 209.431026 
L 268.365558 206.000494 
L 269.566732 204.23345 
L 270.767906 204.23345 
L 273.170254 207.822644 
L 276.773777 207.822644 
L 277.974951 214.837556 
L 279.176125 216.042427 
L 280.377299 220.795795 
L 281.578474 224.898125 
L 282.779648 232.046899 
L 287.584344 232.046899 
L 288.785519 237.937342 
L 289.986693 237.496327 
L 291.187867 235.764816 
L 292.389041 228.551453 
L 293.590215 228.175669 
L 294.791389 228.175669 
L 295.992564 234.08314 
L 303.199609 234.08314 
L 304.400783 234.499044 
L 306.803131 234.499044 
L 308.004305 234.08314 
L 309.205479 234.08314 
L 310.406654 233.670176 
L 311.607828 233.670176 
L 312.809002 229.310349 
L 316.412524 229.310349 
L 317.613699 226.332166 
L 321.217221 226.332166 
L 322.418395 224.545048 
L 327.223092 224.545048 
L 328.424266 225.970343 
L 336.832485 225.970343 
L 338.033659 221.126868 
L 339.234834 214.837556 
L 340.436008 209.159869 
L 341.637182 209.159869 
L 342.838356 206.515336 
L 344.03953 206.515336 
L 345.240705 204.732891 
L 346.441879 203.985322 
L 348.844227 200.384539 
L 350.045401 199.690263 
L 351.246575 199.690263 
L 352.44775 198.551159 
L 353.648924 196.992821 
L 354.850098 193.995538 
L 356.051272 191.543393 
L 357.252446 189.575726 
L 358.45362 189.575726 
L 359.654795 186.192737 
L 360.855969 181.797116 
L 362.057143 177.867286 
L 363.258317 176.613957 
L 364.459491 176.613957 
L 365.660665 173.007617 
L 366.86184 171.143301 
L 368.063014 170.163542 
L 369.264188 169.610969 
L 371.666536 169.610969 
L 374.068885 166.01183 
L 375.270059 165.113812 
L 376.471233 159.186758 
L 377.672407 147.075088 
L 378.873581 140.286099 
L 381.27593 140.036912 
L 382.477104 138.969216 
L 383.678278 137.522353 
L 384.879452 137.522353 
L 386.080626 136.033004 
L 387.2818 134.959379 
L 388.482975 134.959379 
L 389.684149 134.354621 
L 390.885323 132.504112 
L 393.287671 124.673994 
L 394.488845 122.546604 
L 395.69002 121.150188 
L 396.891194 118.798393 
L 398.092368 117.15065 
L 399.293542 116.482186 
L 400.494716 115.384798 
L 404.098239 115.384798 
L 405.299413 114.307639 
L 406.500587 114.307639 
L 407.701761 112.469108 
L 408.902935 110.937993 
L 413.707632 110.937993 
L 414.908806 112.262626 
L 416.10998 113.829321 
L 417.311155 112.262626 
L 418.512329 109.103251 
L 419.713503 105.003403 
L 420.914677 105.003403 
L 422.115851 102.552506 
L 424.5182 102.552506 
L 425.719374 105.003403 
L 426.920548 104.145058 
L 428.121722 105.967005 
L 429.322896 106.852741 
L 430.52407 105.967005 
L 432.926419 105.967005 
L 434.127593 107.13526 
L 436.529941 110.937993 
L 437.731115 114.414466 
L 438.93229 118.282035 
L 440.133464 118.856049 
L 441.334638 123.663215 
L 443.736986 131.780011 
L 444.93816 136.890626 
L 446.139335 137.840796 
L 447.340509 140.703786 
L 448.541683 146.055591 
L 452.145205 146.055591 
L 453.34638 152.049139 
L 454.547554 152.049139 
L 455.748728 149.753393 
L 456.949902 149.753393 
L 458.151076 152.355345 
L 459.35225 152.355345 
L 461.754599 147.075088 
L 462.955773 148.017595 
L 464.156947 148.303338 
L 466.559295 148.303338 
L 467.76047 151.441499 
L 468.961644 151.441499 
L 470.162818 149.55796 
L 471.363992 151.441499 
L 472.565166 152.869282 
L 474.967515 152.869282 
L 476.168689 155.942686 
L 477.369863 165.625274 
L 478.571037 165.625274 
L 479.772211 166.400961 
L 480.973386 175.386947 
L 483.375734 175.386947 
L 484.576908 178.825245 
L 485.778082 178.825245 
L 486.979256 179.310179 
L 488.180431 181.627987 
L 489.381605 184.571962 
L 491.783953 184.571962 
L 492.985127 182.478572 
L 495.387476 182.478572 
L 497.789824 193.995538 
L 498.990998 185.286762 
L 500.192172 185.286762 
L 501.393346 184.928269 
L 502.594521 190.946105 
L 503.795695 190.946105 
L 504.996869 193.372788 
L 506.198043 193.787216 
L 507.399217 193.787216 
L 508.600391 188.616194 
L 509.801566 195.048435 
L 515.807436 195.048435 
L 517.008611 212.499876 
L 518.209785 212.499876 
L 519.410959 209.977144 
L 520.612133 224.545048 
L 523.014481 224.545048 
L 524.215656 191.945005 
L 525.41683 197.212913 
L 526.618004 183.8658 
L 527.819178 189.575726 
L 529.020352 190.748358 
L 541.032094 190.748358 
L 542.233268 199.460659 
L 544.635616 199.460659 
L 545.836791 210.806012 
L 549.440313 210.806012 
L 550.641487 198.551159 
L 551.842661 197.878205 
L 553.043836 199.690263 
L 554.24501 189.575726 
L 556.647358 189.575726 
L 557.848532 200.61781 
L 559.049706 189.575726 
L 560.250881 189.575726 
L 561.452055 187.859753 
L 562.653229 182.307462 
L 566.256751 182.307462 
L 567.457926 187.859753 
L 568.6591 187.859753 
L 569.860274 180.956322 
L 571.061448 178.344302 
L 573.463796 178.344302 
L 574.664971 170.163542 
L 575.866145 178.344302 
L 577.067319 173.007617 
L 578.268493 174.33405 
L 579.469667 175.844062 
L 586.676712 175.844062 
L 587.877886 182.136851 
L 591.481409 182.136851 
L 592.682583 183.16807 
L 593.883757 183.690585 
L 595.084932 186.927768 
L 596.286106 192.349395 
L 602.291977 192.349395 
L 603.493151 194.624997 
L 604.694325 199.920773 
L 608.297847 199.920773 
L 609.499022 210.252129 
L 610.700196 217.272667 
L 611.90137 219.813685 
L 616.706067 219.813685 
L 617.907241 223.845228 
L 619.108415 223.845228 
L 620.309589 227.802286 
L 621.510763 233.26011 
L 626.31546 233.26011 
L 628.717808 242.54084 
L 629.918982 249.663375 
L 632.321331 249.663375 
L 633.522505 256.545933 
L 634.723679 256.545933 
L 635.924853 263.657197 
L 641.930724 263.657197 
L 643.131898 269.433175 
L 644.333072 269.433175 
L 645.534247 313.859913 
L 649.137769 313.859913 
L 650.338943 262.298201 
L 651.540117 313.859913 
L 652.741292 293.506887 
L 652.74414 613 
M 710.393896 613 
L 710.397652 191.343618 
L 711.598826 191.343618 
L 712.8 146.516795 
L 712.8 146.516795 
" style="fill:none;stroke:#1f77b4;stroke-linecap:square;stroke-width:1.5;"/>
   </g>
   <g id="line2d_97">
    <path clip-path="url(#p68e2955192)" d="M 271.968279 613 
L 271.96908 523.26 
L 273.170254 523.26 
L 273.171056 613 
M 298.394111 613 
L 298.394912 523.26 
L 301.998434 523.26 
L 301.999236 613 
M 309.204678 613 
L 309.205479 523.26 
L 309.206281 613 
M 380.073954 613 
L 380.074755 523.26 
L 381.27593 482.756494 
L 382.477104 482.756494 
L 383.678278 523.26 
L 392.086497 523.26 
L 392.087298 613 
M 405.298612 613 
L 405.299413 523.26 
L 407.701761 523.26 
L 407.702563 613 
M 410.103308 613 
L 410.10411 523.26 
L 410.104911 613 
M 419.712702 613 
L 419.713503 523.26 
L 420.914677 482.756494 
L 422.115851 523.26 
L 423.317025 482.756494 
L 424.5182 523.26 
L 425.719374 482.756494 
L 426.920548 482.756494 
L 428.121722 459.063462 
L 429.322896 442.252988 
L 431.725245 442.252988 
L 432.926419 418.559956 
L 434.127593 418.559956 
L 435.328767 429.213772 
L 436.529941 442.252988 
L 438.93229 442.252988 
L 440.133464 459.063462 
L 441.334638 442.252988 
L 443.736986 442.252988 
L 444.93816 459.063462 
L 446.139335 482.756494 
L 455.748728 482.756494 
L 456.949902 459.063462 
L 458.151076 482.756494 
L 472.565166 482.756494 
L 473.766341 523.26 
L 474.967515 482.756494 
L 485.778082 482.756494 
L 486.979256 523.26 
L 491.783953 523.26 
L 491.784754 613 
L 491.784754 613 
" style="fill:none;stroke:#ff7f0e;stroke-linecap:square;stroke-width:1.5;"/>
   </g>
   <g id="patch_3">
    <path d="M 99 544.68 
L 99 73.44 
" style="fill:none;stroke:#000000;stroke-linecap:square;stroke-linejoin:miter;stroke-width:0.8;"/>
   </g>
   <g id="patch_4">
    <path d="M 712.8 544.68 
L 712.8 73.44 
" style="fill:none;stroke:#000000;stroke-linecap:square;stroke-linejoin:miter;stroke-width:0.8;"/>
   </g>
   <g id="patch_5">
    <path d="M 99 544.68 
L 712.8 544.68 
" style="fill:none;stroke:#000000;stroke-linecap:square;stroke-linejoin:miter;stroke-width:0.8;"/>
   </g>
   <g id="patch_6">
    <path d="M 99 73.44 
L 712.8 73.44 
" style="fill:none;stroke:#000000;stroke-linecap:square;stroke-linejoin:miter;stroke-width:0.8;"/>
   </g>
   <g id="legend_1">
    <g id="patch_7">
     <path d="M 616.653125 110.79625 
L 705.8 110.79625 
Q 707.8 110.79625 707.8 108.79625 
L 707.8 80.44 
Q 707.8 78.44 705.8 78.44 
L 616.653125 78.44 
Q 614.653125 78.44 614.653125 80.44 
L 614.653125 108.79625 
Q 614.653125 110.79625 616.653125 110.79625 
z
" style="fill:#ffffff;opacity:0.8;stroke:#cccccc;stroke-linejoin:miter;"/>
    </g>
    <g id="line2d_98">
     <path d="M 618.653125 86.538437 
L 638.653125 86.538437 
" style="fill:none;stroke:#1f77b4;stroke-linecap:square;stroke-width:1.5;"/>
    </g>
    <g id="line2d_99"/>
    <g id="text_12">
     <!-- Avg Cases -->
     <g transform="translate(646.653125 90.038437)scale(0.1 -0.1)">
      <defs>
       <path d="M 191 3500 
L 800 3500 
L 1894 563 
L 2988 3500 
L 3597 3500 
L 2284 0 
L 1503 0 
L 191 3500 
z
" id="DejaVuSans-76" transform="scale(0.015625)"/>
       <path d="M 2906 1791 
Q 2906 2416 2648 2759 
Q 2391 3103 1925 3103 
Q 1463 3103 1205 2759 
Q 947 2416 947 1791 
Q 947 1169 1205 825 
Q 1463 481 1925 481 
Q 2391 481 2648 825 
Q 2906 1169 2906 1791 
z
M 3481 434 
Q 3481 -459 3084 -895 
Q 2688 -1331 1869 -1331 
Q 1566 -1331 1297 -1286 
Q 1028 -1241 775 -1147 
L 775 -588 
Q 1028 -725 1275 -790 
Q 1522 -856 1778 -856 
Q 2344 -856 2625 -561 
Q 2906 -266 2906 331 
L 2906 616 
Q 2728 306 2450 153 
Q 2172 0 1784 0 
Q 1141 0 747 490 
Q 353 981 353 1791 
Q 353 2603 747 3093 
Q 1141 3584 1784 3584 
Q 2172 3584 2450 3431 
Q 2728 3278 2906 2969 
L 2906 3500 
L 3481 3500 
L 3481 434 
z
" id="DejaVuSans-67" transform="scale(0.015625)"/>
       <path id="DejaVuSans-20" transform="scale(0.015625)"/>
       <path d="M 4122 4306 
L 4122 3641 
Q 3803 3938 3442 4084 
Q 3081 4231 2675 4231 
Q 1875 4231 1450 3742 
Q 1025 3253 1025 2328 
Q 1025 1406 1450 917 
Q 1875 428 2675 428 
Q 3081 428 3442 575 
Q 3803 722 4122 1019 
L 4122 359 
Q 3791 134 3420 21 
Q 3050 -91 2638 -91 
Q 1578 -91 968 557 
Q 359 1206 359 2328 
Q 359 3453 968 4101 
Q 1578 4750 2638 4750 
Q 3056 4750 3426 4639 
Q 3797 4528 4122 4306 
z
" id="DejaVuSans-43" transform="scale(0.015625)"/>
       <path d="M 2834 3397 
L 2834 2853 
Q 2591 2978 2328 3040 
Q 2066 3103 1784 3103 
Q 1356 3103 1142 2972 
Q 928 2841 928 2578 
Q 928 2378 1081 2264 
Q 1234 2150 1697 2047 
L 1894 2003 
Q 2506 1872 2764 1633 
Q 3022 1394 3022 966 
Q 3022 478 2636 193 
Q 2250 -91 1575 -91 
Q 1294 -91 989 -36 
Q 684 19 347 128 
L 347 722 
Q 666 556 975 473 
Q 1284 391 1588 391 
Q 1994 391 2212 530 
Q 2431 669 2431 922 
Q 2431 1156 2273 1281 
Q 2116 1406 1581 1522 
L 1381 1569 
Q 847 1681 609 1914 
Q 372 2147 372 2553 
Q 372 3047 722 3315 
Q 1072 3584 1716 3584 
Q 2034 3584 2315 3537 
Q 2597 3491 2834 3397 
z
" id="DejaVuSans-73" transform="scale(0.015625)"/>
      </defs>
      <use xlink:href="#DejaVuSans-41"/>
      <use x="62.533203" xlink:href="#DejaVuSans-76"/>
      <use x="121.712891" xlink:href="#DejaVuSans-67"/>
      <use x="185.189453" xlink:href="#DejaVuSans-20"/>
      <use x="216.976562" xlink:href="#DejaVuSans-43"/>
      <use x="286.800781" xlink:href="#DejaVuSans-61"/>
      <use x="348.080078" xlink:href="#DejaVuSans-73"/>
      <use x="400.179688" xlink:href="#DejaVuSans-65"/>
      <use x="461.703125" xlink:href="#DejaVuSans-73"/>
     </g>
    </g>
    <g id="line2d_100">
     <path d="M 618.653125 101.216562 
L 638.653125 101.216562 
" style="fill:none;stroke:#ff7f0e;stroke-linecap:square;stroke-width:1.5;"/>
    </g>
    <g id="line2d_101"/>
    <g id="text_13">
     <!-- Avg Deaths -->
     <g transform="translate(646.653125 104.716562)scale(0.1 -0.1)">
      <defs>
       <path d="M 3513 2113 
L 3513 0 
L 2938 0 
L 2938 2094 
Q 2938 2591 2744 2837 
Q 2550 3084 2163 3084 
Q 1697 3084 1428 2787 
Q 1159 2491 1159 1978 
L 1159 0 
L 581 0 
L 581 4863 
L 1159 4863 
L 1159 2956 
Q 1366 3272 1645 3428 
Q 1925 3584 2291 3584 
Q 2894 3584 3203 3211 
Q 3513 2838 3513 2113 
z
" id="DejaVuSans-68" transform="scale(0.015625)"/>
      </defs>
      <use xlink:href="#DejaVuSans-41"/>
      <use x="62.533203" xlink:href="#DejaVuSans-76"/>
      <use x="121.712891" xlink:href="#DejaVuSans-67"/>
      <use x="185.189453" xlink:href="#DejaVuSans-20"/>
      <use x="216.976562" xlink:href="#DejaVuSans-44"/>
      <use x="293.978516" xlink:href="#DejaVuSans-65"/>
      <use x="355.501953" xlink:href="#DejaVuSans-61"/>
      <use x="416.78125" xlink:href="#DejaVuSans-74"/>
      <use x="455.990234" xlink:href="#DejaVuSans-68"/>
      <use x="519.369141" xlink:href="#DejaVuSans-73"/>
     </g>
    </g>
   </g>
  </g>
 </g>
 <defs>
  <clipPath id="p68e2955192">
   <rect height="471.24" width="613.8" x="99" y="73.44"/>
  </clipPath>
 </defs>
</svg>
