<?xml version="1.0" encoding="utf-8" standalone="no"?>
<!DOCTYPE svg PUBLIC "-//W3C//DTD SVG 1.1//EN"
  "http://www.w3.org/Graphics/SVG/1.1/DTD/svg11.dtd">
<svg height="612pt" version="1.1" viewBox="0 0 792 612" width="792pt" xmlns="http://www.w3.org/2000/svg" xmlns:xlink="http://www.w3.org/1999/xlink">
 <metadata>
  <rdf:RDF xmlns:cc="http://creativecommons.org/ns#" xmlns:dc="http://purl.org/dc/elements/1.1/" xmlns:rdf="http://www.w3.org/1999/02/22-rdf-syntax-ns#">
   <cc:Work>
    <dc:type rdf:resource="http://purl.org/dc/dcmitype/StillImage"/>
    <dc:format>image/svg+xml</dc:format>
    <dc:creator>
     <cc:Agent>
      <dc:title>Matplotlib v3.4.2, https://matplotlib.org/</dc:title>
     </cc:Agent>
    </dc:creator>
   </cc:Work>
  </rdf:RDF>
 </metadata>
 <defs>
  <style type="text/css">*{stroke-linecap:butt;stroke-linejoin:round;}</style>
 </defs>
 <g id="figure_1">
  <g id="patch_1">
   <path d="M 0 612 
L 792 612 
L 792 0 
L 0 0 
z
" style="fill:#ffffff;"/>
  </g>
  <g id="axes_1">
   <g id="patch_2">
    <path d="M 99 544.68 
L 712.8 544.68 
L 712.8 73.44 
L 99 73.44 
z
" style="fill:#ffffff;"/>
   </g>
   <g id="PolyCollection_1">
    <path clip-path="url(#p68e2955192)" d="M 99 134235.778641 
L 99 134235.778641 
L 100.1625 134235.778641 
L 101.325 134235.778641 
L 102.4875 134235.778641 
L 103.65 134235.778641 
L 104.8125 134235.778641 
L 105.975 134235.778641 
L 107.1375 134235.778641 
L 108.3 134235.778641 
L 109.4625 134235.778641 
L 110.625 134235.778641 
L 111.7875 134235.778641 
L 112.95 134235.778641 
L 114.1125 339.139002 
L 115.275 334.903987 
L 116.4375 324.1622 
L 117.6 319.454671 
L 118.7625 319.454671 
L 119.925 319.454671 
L 121.0875 319.454671 
L 122.25 319.454671 
L 123.4125 319.454671 
L 124.575 319.454671 
L 125.7375 319.454671 
L 126.9 319.454671 
L 128.0625 319.454671 
L 129.225 318.420434 
L 130.3875 319.454671 
L 131.55 319.454671 
L 132.7125 321.580082 
L 133.875 330.956862 
L 135.0375 326.864459 
L 136.2 326.864459 
L 137.3625 326.864459 
L 138.525 326.864459 
L 139.6875 326.864459 
L 140.85 326.864459 
L 142.0125 326.864459 
L 143.175 328.062194 
L 144.3375 328.062194 
L 145.5 336.748208 
L 146.6625 343.707231 
L 147.825 343.707231 
L 148.9875 346.965362 
L 150.15 357.333087 
L 151.3125 362.205602 
L 152.475 362.205602 
L 153.6375 362.205602 
L 154.8 364.4258 
L 155.9625 366.73424 
L 157.125 366.73424 
L 158.2875 366.73424 
L 159.45 366.73424 
L 160.6125 366.73424 
L 161.775 378.916506 
L 162.9375 385.036697 
L 164.1 385.036697 
L 165.2625 385.036697 
L 166.425 385.036697 
L 167.5875 385.036697 
L 168.75 385.036697 
L 169.9125 406.997839 
L 171.075 419.180105 
L 172.2375 406.997839 
L 173.4 419.180105 
L 174.5625 406.997839 
L 175.725 402.469202 
L 176.8875 402.469202 
L 178.05 402.469202 
L 179.2125 402.469202 
L 180.375 402.469202 
L 181.5375 402.469202 
L 182.7 402.469202 
L 183.8625 402.469202 
L 185.025 402.469202 
L 186.1875 402.469202 
L 187.35 402.469202 
L 188.5125 393.101442 
L 189.675 381.896036 
L 190.8375 381.896036 
L 192 344.23772 
L 193.1625 342.660571 
L 194.325 313.195512 
L 195.4875 307.829722 
L 196.65 297.191572 
L 197.8125 295.786146 
L 198.975 295.786146 
L 200.1375 295.786146 
L 201.3 295.786146 
L 202.4625 295.786146 
L 203.625 295.786146 
L 204.7875 295.095982 
L 205.95 295.095982 
L 207.1125 290.693263 
L 208.275 295.095982 
L 209.4375 295.095982 
L 210.6 295.095982 
L 211.7625 294.413923 
L 212.925 296.719308 
L 214.0875 294.413923 
L 215.25 294.413923 
L 216.4125 294.413923 
L 217.575 294.413923 
L 218.7375 282.409081 
L 219.9 282.409081 
L 221.0625 275.812905 
L 222.225 275.812905 
L 223.3875 277.816141 
L 224.55 276.307274 
L 225.7125 276.307274 
L 226.875 265.468852 
L 228.0375 263.048164 
L 229.2 260.094984 
L 230.3625 256.809546 
L 231.525 251.824274 
L 232.6875 251.824274 
L 233.85 251.824274 
L 235.0125 251.824274 
L 236.175 251.824274 
L 237.3375 251.824274 
L 238.5 248.041434 
L 239.6625 245.747528 
L 240.825 234.653746 
L 241.9875 232.047044 
L 243.15 232.047044 
L 244.3125 232.047044 
L 245.475 230.899777 
L 246.6375 230.899777 
L 247.8 230.899777 
L 248.9625 213.045259 
L 250.125 206.172534 
L 251.2875 206.172534 
L 252.45 206.172534 
L 253.6125 206.172534 
L 254.775 206.172534 
L 255.9375 205.191293 
L 257.1 199.40776 
L 258.2625 199.40776 
L 259.425 195.162768 
L 260.5875 195.162768 
L 261.75 195.162768 
L 262.9125 195.162768 
L 264.075 192.639413 
L 265.2375 190.07093 
L 266.4 190.07093 
L 267.5625 190.07093 
L 268.725 190.07093 
L 269.8875 190.07093 
L 271.05 190.07093 
L 272.2125 190.07093 
L 273.375 192.639413 
L 274.5375 192.639413 
L 275.7 195.780075 
L 276.8625 195.780075 
L 278.025 195.780075 
L 279.1875 195.656088 
L 280.35 208.237435 
L 281.5125 213.100979 
L 282.675 213.100979 
L 283.8375 213.100979 
L 285 213.100979 
L 286.1625 213.100979 
L 287.325 213.100979 
L 288.4875 213.100979 
L 289.65 213.943257 
L 290.8125 213.943257 
L 291.975 213.943257 
L 293.1375 213.943257 
L 294.3 214.625985 
L 295.4625 214.625985 
L 296.625 210.219088 
L 297.7875 212.656708 
L 298.95 212.656708 
L 300.1125 212.656708 
L 301.275 212.656708 
L 302.4375 210.219088 
L 303.6 205.532845 
L 304.7625 205.532845 
L 305.925 205.532845 
L 307.0875 205.532845 
L 308.25 205.532845 
L 309.4125 205.532845 
L 310.575 202.948599 
L 311.7375 204.514155 
L 312.9 204.948551 
L 314.0625 204.948551 
L 315.225 204.948551 
L 316.3875 204.948551 
L 317.55 204.948551 
L 318.7125 204.948551 
L 319.875 208.442875 
L 321.0375 208.442875 
L 322.2 208.442875 
L 323.3625 208.442875 
L 324.525 208.442875 
L 325.6875 208.442875 
L 326.85 208.442875 
L 328.0125 206.321161 
L 329.175 206.321161 
L 330.3375 206.321161 
L 331.5 205.876418 
L 332.6625 203.513023 
L 333.825 203.513023 
L 334.9875 200.609165 
L 336.15 200.474442 
L 337.3125 197.077019 
L 338.475 193.947491 
L 339.6375 182.520965 
L 340.8 182.520965 
L 341.9625 182.520965 
L 343.125 182.520965 
L 344.2875 179.349115 
L 345.45 173.963153 
L 346.6125 164.879064 
L 347.775 164.879064 
L 348.9375 164.879064 
L 350.1 164.879064 
L 351.2625 164.879064 
L 352.425 163.652567 
L 353.5875 163.652567 
L 354.75 163.652567 
L 355.9125 163.652567 
L 357.075 163.652567 
L 358.2375 163.652567 
L 359.4 163.43879 
L 360.5625 160.9103 
L 361.725 157.51572 
L 362.8875 143.809143 
L 364.05 140.314439 
L 365.2125 137.989044 
L 366.375 137.989044 
L 367.5375 137.989044 
L 368.7 137.168749 
L 369.8625 131.223794 
L 371.025 131.223794 
L 372.1875 131.223794 
L 373.35 131.019905 
L 374.5125 130.211428 
L 375.675 130.211428 
L 376.8375 121.920387 
L 378 118.858546 
L 379.1625 119.400344 
L 380.325 119.400344 
L 381.4875 118.781557 
L 382.65 118.781557 
L 383.8125 118.781557 
L 384.975 113.97414 
L 386.1375 111.27556 
L 387.3 107.40844 
L 388.4625 107.40844 
L 389.625 106.440582 
L 390.7875 106.440582 
L 391.95 106.440582 
L 393.1125 106.440582 
L 394.275 104.923056 
L 395.4375 104.923056 
L 396.6 104.923056 
L 397.7625 104.923056 
L 398.925 104.36298 
L 400.0875 104.36298 
L 401.25 104.36298 
L 402.4125 104.586363 
L 403.575 104.586363 
L 404.7375 104.586363 
L 405.9 104.586363 
L 407.0625 104.36298 
L 408.225 102.831251 
L 409.3875 98.94677 
L 410.55 97.49642 
L 411.7125 97.397456 
L 412.875 97.397456 
L 414.0375 97.397456 
L 415.2 97.397456 
L 416.3625 97.397456 
L 417.525 97.397456 
L 418.6875 97.397456 
L 419.85 97.397456 
L 421.0125 97.397456 
L 422.175 97.397456 
L 423.3375 97.397456 
L 424.5 97.443111 
L 425.6625 100.250222 
L 426.825 107.707421 
L 427.9875 108.273337 
L 429.15 108.273337 
L 430.3125 108.273337 
L 431.475 108.273337 
L 432.6375 109.300489 
L 433.8 113.010833 
L 434.9625 113.822566 
L 436.125 124.724939 
L 437.2875 124.724939 
L 438.45 124.724939 
L 439.6125 131.647448 
L 440.775 124.724939 
L 441.9375 131.647448 
L 443.1 124.215816 
L 444.2625 124.215816 
L 445.425 124.215816 
L 446.5875 126.242136 
L 447.75 126.242136 
L 448.9125 126.242136 
L 450.075 125.497088 
L 451.2375 125.497088 
L 452.4 125.497088 
L 453.5625 125.497088 
L 454.725 125.497088 
L 455.8875 125.497088 
L 457.05 137.334909 
L 458.2125 137.334909 
L 459.375 145.316675 
L 460.5375 145.316675 
L 461.7 145.316675 
L 462.8625 145.316675 
L 464.025 145.787167 
L 465.1875 146.314446 
L 466.35 149.564088 
L 467.5125 151.985173 
L 468.675 151.985173 
L 469.8375 151.985173 
L 471 151.985173 
L 472.1625 151.985173 
L 473.325 154.065986 
L 474.4875 157.259355 
L 475.65 157.259355 
L 476.8125 166.057561 
L 477.975 166.057561 
L 479.1375 166.057561 
L 480.3 164.44322 
L 481.4625 164.44322 
L 482.625 164.44322 
L 483.7875 170.381434 
L 484.95 170.381434 
L 486.1125 164.274604 
L 487.275 164.274604 
L 488.4375 164.274604 
L 489.6 164.274604 
L 490.7625 164.274604 
L 491.925 164.274604 
L 493.0875 164.274604 
L 494.25 164.274604 
L 495.4125 132.060398 
L 496.575 132.060398 
L 497.7375 132.060398 
L 498.9 133.656941 
L 500.0625 133.656941 
L 501.225 133.656941 
L 502.3875 151.829649 
L 503.55 151.829649 
L 504.7125 151.829649 
L 505.875 151.829649 
L 507.0375 151.829649 
L 508.2 151.829649 
L 509.3625 151.829649 
L 510.525 139.618006 
L 511.6875 151.829649 
L 512.85 151.829649 
L 514.0125 151.829649 
L 515.175 153.006356 
L 516.3375 153.006356 
L 517.5 153.006356 
L 518.6625 152.591792 
L 519.825 152.591792 
L 520.9875 152.591792 
L 522.15 149.88238 
L 523.3125 149.88238 
L 524.475 149.88238 
L 525.6375 149.88238 
L 526.8 149.88238 
L 527.9625 149.88238 
L 529.125 149.88238 
L 530.2875 149.88238 
L 531.45 149.88238 
L 532.6125 149.88238 
L 533.775 149.88238 
L 534.9375 148.454444 
L 536.1 148.454444 
L 537.2625 148.454444 
L 538.425 150.638254 
L 539.5875 150.638254 
L 540.75 150.638254 
L 541.9125 150.638254 
L 543.075 176.668119 
L 544.2375 150.638254 
L 545.4 150.638254 
L 546.5625 149.117684 
L 547.725 149.117684 
L 548.8875 149.117684 
L 550.05 149.117684 
L 551.2125 132.531985 
L 552.375 132.531985 
L 553.5375 132.531985 
L 554.7 132.448485 
L 555.8625 131.702339 
L 557.025 131.702339 
L 558.1875 131.702339 
L 559.35 125.831178 
L 560.5125 142.554492 
L 561.675 142.554492 
L 562.8375 142.554492 
L 564 142.554492 
L 565.1625 142.554492 
L 566.325 142.554492 
L 567.4875 142.554492 
L 568.65 142.554492 
L 569.8125 142.554492 
L 570.975 142.554492 
L 572.1375 143.455101 
L 573.3 143.455101 
L 574.4625 143.455101 
L 575.625 137.958455 
L 576.7875 137.958455 
L 577.95 137.958455 
L 579.1125 137.958455 
L 580.275 137.958455 
L 581.4375 137.958455 
L 582.6 137.958455 
L 583.7625 159.94233 
L 584.925 159.94233 
L 586.0875 159.94233 
L 587.25 162.825592 
L 588.4125 162.825592 
L 589.575 162.825592 
L 590.7375 162.825592 
L 591.9 169.611693 
L 593.0625 169.611693 
L 594.225 171.053291 
L 595.3875 172.69818 
L 596.55 172.69818 
L 597.7125 172.69818 
L 598.875 172.69818 
L 600.0375 194.269087 
L 601.2 194.269087 
L 602.3625 200.564223 
L 603.525 200.564223 
L 604.6875 201.105841 
L 605.85 201.105841 
L 607.0125 201.105841 
L 608.175 211.127986 
L 609.3375 211.127986 
L 610.5 211.127986 
L 611.6625 211.127986 
L 612.825 217.2003 
L 613.9875 217.2003 
L 615.15 217.2003 
L 616.3125 221.869772 
L 617.475 217.2003 
L 618.6375 221.869772 
L 619.8 224.04957 
L 620.9625 224.04957 
L 622.125 224.04957 
L 623.2875 224.04957 
L 624.45 241.233562 
L 625.6125 241.233562 
L 626.775 240.60363 
L 627.9375 240.60363 
L 629.1 240.335737 
L 630.2625 240.335737 
L 631.425 240.335737 
L 632.5875 238.753815 
L 633.75 240.335737 
L 634.9125 240.335737 
L 636.075 240.335737 
L 637.2375 238.753815 
L 638.4 238.753815 
L 639.5625 238.753815 
L 640.725 227.731219 
L 641.8875 227.731219 
L 643.05 226.876967 
L 644.2125 226.876967 
L 645.375 226.876967 
L 646.5375 226.876967 
L 647.7 226.876967 
L 648.8625 219.51925 
L 650.025 219.51925 
L 651.1875 219.332771 
L 652.35 219.332771 
L 653.5125 219.332771 
L 654.675 219.332771 
L 655.8375 219.332771 
L 657 219.332771 
L 658.1625 219.332771 
L 659.325 214.169943 
L 660.4875 214.169943 
L 661.65 203.04229 
L 662.8125 203.04229 
L 663.975 203.04229 
L 665.1375 187.935639 
L 666.3 187.935639 
L 667.4625 175.14017 
L 668.625 175.14017 
L 669.7875 165.318203 
L 670.95 165.318203 
L 672.1125 165.318203 
L 673.275 156.665532 
L 674.4375 156.665532 
L 675.6 134.299436 
L 676.7625 134.299436 
L 677.925 128.096034 
L 679.0875 128.096034 
L 680.25 128.096034 
L 681.4125 125.893258 
L 682.575 125.893258 
L 683.7375 120.839968 
L 684.9 120.839968 
L 686.0625 116.191315 
L 687.225 116.191315 
L 688.3875 116.191315 
L 689.55 114.574197 
L 690.7125 114.574197 
L 691.875 114.574197 
L 693.0375 114.574197 
L 694.2 114.574197 
L 695.3625 114.574197 
L 696.525 114.574197 
L 697.6875 103.023665 
L 698.85 103.023665 
L 700.0125 103.023665 
L 701.175 103.023665 
L 702.3375 107.40844 
L 703.5 107.40844 
L 704.6625 107.40844 
L 705.825 101.347017 
L 706.9875 100.210291 
L 708.15 95.342547 
L 709.3125 94.86 
L 710.475 94.86 
L 711.6375 94.86 
L 712.8 94.86 
L 712.8 167.463392 
L 712.8 167.463392 
L 711.6375 167.463392 
L 710.475 167.463392 
L 709.3125 167.463392 
L 708.15 167.463392 
L 706.9875 167.463392 
L 705.825 167.463392 
L 704.6625 167.463392 
L 703.5 167.463392 
L 702.3375 167.463392 
L 701.175 167.463392 
L 700.0125 134235.778641 
L 698.85 134235.778641 
L 697.6875 134235.778641 
L 696.525 134235.778641 
L 695.3625 134235.778641 
L 694.2 134235.778641 
L 693.0375 134235.778641 
L 691.875 134235.778641 
L 690.7125 134235.778641 
L 689.55 134235.778641 
L 688.3875 134235.778641 
L 687.225 134235.778641 
L 686.0625 134235.778641 
L 684.9 134235.778641 
L 683.7375 134235.778641 
L 682.575 134235.778641 
L 681.4125 134235.778641 
L 680.25 134235.778641 
L 679.0875 134235.778641 
L 677.925 134235.778641 
L 676.7625 134235.778641 
L 675.6 134235.778641 
L 674.4375 134235.778641 
L 673.275 134235.778641 
L 672.1125 134235.778641 
L 670.95 134235.778641 
L 669.7875 134235.778641 
L 668.625 134235.778641 
L 667.4625 134235.778641 
L 666.3 134235.778641 
L 665.1375 134235.778641 
L 663.975 134235.778641 
L 662.8125 134235.778641 
L 661.65 134235.778641 
L 660.4875 134235.778641 
L 659.325 134235.778641 
L 658.1625 134235.778641 
L 657 134235.778641 
L 655.8375 134235.778641 
L 654.675 134235.778641 
L 653.5125 134235.778641 
L 652.35 134235.778641 
L 651.1875 134235.778641 
L 650.025 134235.778641 
L 648.8625 134235.778641 
L 647.7 134235.778641 
L 646.5375 134235.778641 
L 645.375 134235.778641 
L 644.2125 134235.778641 
L 643.05 134235.778641 
L 641.8875 134235.778641 
L 640.725 134235.778641 
L 639.5625 134235.778641 
L 638.4 134235.778641 
L 637.2375 134235.778641 
L 636.075 134235.778641 
L 634.9125 134235.778641 
L 633.75 134235.778641 
L 632.5875 134235.778641 
L 631.425 134235.778641 
L 630.2625 134235.778641 
L 629.1 134235.778641 
L 627.9375 134235.778641 
L 626.775 134235.778641 
L 625.6125 134235.778641 
L 624.45 134235.778641 
L 623.2875 134235.778641 
L 622.125 134235.778641 
L 620.9625 134235.778641 
L 619.8 134235.778641 
L 618.6375 134235.778641 
L 617.475 134235.778641 
L 616.3125 134235.778641 
L 615.15 273.402264 
L 613.9875 273.402264 
L 612.825 273.402264 
L 611.6625 273.402264 
L 610.5 259.596371 
L 609.3375 259.596371 
L 608.175 255.29158 
L 607.0125 255.29158 
L 605.85 255.29158 
L 604.6875 255.29158 
L 603.525 255.29158 
L 602.3625 255.29158 
L 601.2 255.29158 
L 600.0375 253.253192 
L 598.875 253.253192 
L 597.7125 253.253192 
L 596.55 253.253192 
L 595.3875 253.253192 
L 594.225 253.253192 
L 593.0625 253.253192 
L 591.9 226.454507 
L 590.7375 226.454507 
L 589.575 226.454507 
L 588.4125 226.454507 
L 587.25 226.454507 
L 586.0875 226.454507 
L 584.925 226.454507 
L 583.7625 216.60513 
L 582.6 216.60513 
L 581.4375 216.60513 
L 580.275 216.60513 
L 579.1125 216.60513 
L 577.95 216.60513 
L 576.7875 216.60513 
L 575.625 216.60513 
L 574.4625 216.60513 
L 573.3 216.60513 
L 572.1375 216.60513 
L 570.975 216.60513 
L 569.8125 216.60513 
L 568.65 216.60513 
L 567.4875 234.573012 
L 566.325 234.573012 
L 565.1625 234.573012 
L 564 234.573012 
L 562.8375 234.573012 
L 561.675 234.573012 
L 560.5125 234.573012 
L 559.35 234.573012 
L 558.1875 134235.778641 
L 557.025 134235.778641 
L 555.8625 134235.778641 
L 554.7 134235.778641 
L 553.5375 134235.778641 
L 552.375 134235.778641 
L 551.2125 134235.778641 
L 550.05 134235.778641 
L 548.8875 134235.778641 
L 547.725 134235.778641 
L 546.5625 134235.778641 
L 545.4 134235.778641 
L 544.2375 134235.778641 
L 543.075 134235.778641 
L 541.9125 236.793209 
L 540.75 236.793209 
L 539.5875 236.793209 
L 538.425 236.793209 
L 537.2625 236.793209 
L 536.1 236.793209 
L 534.9375 236.793209 
L 533.775 236.793209 
L 532.6125 236.793209 
L 531.45 236.793209 
L 530.2875 228.380255 
L 529.125 228.380255 
L 527.9625 228.380255 
L 526.8 228.380255 
L 525.6375 228.380255 
L 524.475 228.380255 
L 523.3125 228.380255 
L 522.15 228.380255 
L 520.9875 228.380255 
L 519.825 228.380255 
L 518.6625 256.33824 
L 517.5 256.33824 
L 516.3375 256.33824 
L 515.175 256.33824 
L 514.0125 256.33824 
L 512.85 256.33824 
L 511.6875 256.33824 
L 510.525 256.33824 
L 509.3625 134235.778641 
L 508.2 134235.778641 
L 507.0375 134235.778641 
L 505.875 134235.778641 
L 504.7125 134235.778641 
L 503.55 134235.778641 
L 502.3875 134235.778641 
L 501.225 134235.778641 
L 500.0625 134235.778641 
L 498.9 134235.778641 
L 497.7375 134235.778641 
L 496.575 134235.778641 
L 495.4125 134235.778641 
L 494.25 134235.778641 
L 493.0875 218.226298 
L 491.925 202.995426 
L 490.7625 199.628376 
L 489.6 199.628376 
L 488.4375 199.628376 
L 487.275 199.628376 
L 486.1125 200.519315 
L 484.95 213.436426 
L 483.7875 200.519315 
L 482.625 198.576979 
L 481.4625 198.576979 
L 480.3 198.576979 
L 479.1375 198.576979 
L 477.975 198.707368 
L 476.8125 193.987594 
L 475.65 190.371711 
L 474.4875 187.719162 
L 473.325 187.719162 
L 472.1625 187.719162 
L 471 187.719162 
L 469.8375 187.719162 
L 468.675 185.876066 
L 467.5125 182.950637 
L 466.35 182.950637 
L 465.1875 182.950637 
L 464.025 182.950637 
L 462.8625 180.323823 
L 461.7 177.841048 
L 460.5375 162.77869 
L 459.375 162.77869 
L 458.2125 159.320586 
L 457.05 162.77869 
L 455.8875 162.77869 
L 454.725 162.77869 
L 453.5625 162.77869 
L 452.4 162.77869 
L 451.2375 160.706363 
L 450.075 160.706363 
L 448.9125 177.901841 
L 447.75 177.901841 
L 446.5875 177.901841 
L 445.425 160.933004 
L 444.2625 181.67104 
L 443.1 181.963839 
L 441.9375 181.963839 
L 440.775 180.73749 
L 439.6125 180.73749 
L 438.45 180.73749 
L 437.2875 158.94632 
L 436.125 155.433788 
L 434.9625 155.433788 
L 433.8 155.433788 
L 432.6375 146.032635 
L 431.475 141.326368 
L 430.3125 138.203618 
L 429.15 138.203618 
L 427.9875 131.524133 
L 426.825 123.579655 
L 425.6625 121.769764 
L 424.5 119.913611 
L 423.3375 114.625336 
L 422.175 114.625336 
L 421.0125 114.625336 
L 419.85 114.625336 
L 418.6875 114.625336 
L 417.525 112.822058 
L 416.3625 112.822058 
L 415.2 114.278479 
L 414.0375 114.278479 
L 412.875 113.641198 
L 411.7125 113.641198 
L 410.55 116.086292 
L 409.3875 116.086292 
L 408.225 116.878631 
L 407.0625 120.817197 
L 405.9 120.817197 
L 404.7375 117.359275 
L 403.575 116.518098 
L 402.4125 116.518098 
L 401.25 116.518098 
L 400.0875 116.518098 
L 398.925 117.488121 
L 397.7625 122.152879 
L 396.6 122.152879 
L 395.4375 122.515091 
L 394.275 122.515091 
L 393.1125 122.515091 
L 391.95 120.194475 
L 390.7875 120.194475 
L 389.625 122.679414 
L 388.4625 124.676258 
L 387.3 125.992724 
L 386.1375 133.671142 
L 384.975 133.671142 
L 383.8125 136.359876 
L 382.65 137.365171 
L 381.4875 140.601767 
L 380.325 140.601767 
L 379.1625 142.10937 
L 378 142.10937 
L 376.8375 142.10937 
L 375.675 142.571044 
L 374.5125 142.571044 
L 373.35 142.753424 
L 372.1875 144.250493 
L 371.025 157.280675 
L 369.8625 167.033014 
L 368.7 168.904092 
L 367.5375 168.904092 
L 366.375 171.378564 
L 365.2125 172.144692 
L 364.05 172.559312 
L 362.8875 174.276604 
L 361.725 174.276604 
L 360.5625 174.276604 
L 359.4 176.608602 
L 358.2375 181.833524 
L 357.075 186.754874 
L 355.9125 190.409418 
L 354.75 190.409418 
L 353.5875 190.409418 
L 352.425 193.190762 
L 351.2625 193.987594 
L 350.1 195.04009 
L 348.9375 198.2307 
L 347.775 199.938653 
L 346.6125 201.242038 
L 345.45 202.112116 
L 344.2875 202.85506 
L 343.125 205.876418 
L 341.9625 205.876418 
L 340.8 206.024287 
L 339.6375 207.574729 
L 338.475 209.743603 
L 337.3125 213.436426 
L 336.15 221.35343 
L 334.9875 221.35343 
L 333.825 221.35343 
L 332.6625 225.895963 
L 331.5 236.793209 
L 330.3375 236.793209 
L 329.175 244.013427 
L 328.0125 244.013427 
L 326.85 244.013427 
L 325.6875 244.013427 
L 324.525 240.782915 
L 323.3625 240.782915 
L 322.2 244.203568 
L 321.0375 244.203568 
L 319.875 244.203568 
L 318.7125 244.203568 
L 317.55 244.203568 
L 316.3875 240.782915 
L 315.225 240.782915 
L 314.0625 245.454893 
L 312.9 255.987254 
L 311.7375 255.987254 
L 310.575 255.987254 
L 309.4125 255.987254 
L 308.25 257.046641 
L 307.0875 257.046641 
L 305.925 254.718149 
L 304.7625 254.718149 
L 303.6 254.718149 
L 302.4375 254.718149 
L 301.275 254.718149 
L 300.1125 254.718149 
L 298.95 242.606867 
L 297.7875 242.606867 
L 296.625 239.014495 
L 295.4625 239.014495 
L 294.3 239.014495 
L 293.1375 239.014495 
L 291.975 238.840579 
L 290.8125 238.840579 
L 289.65 239.627337 
L 288.4875 238.840579 
L 287.325 238.840579 
L 286.1625 239.627337 
L 285 239.715416 
L 283.8375 241.143152 
L 282.675 244.489952 
L 281.5125 240.872765 
L 280.35 240.872765 
L 279.1875 240.872765 
L 278.025 240.872765 
L 276.8625 240.872765 
L 275.7 240.872765 
L 274.5375 239.715416 
L 273.375 229.552312 
L 272.2125 229.552312 
L 271.05 229.552312 
L 269.8875 229.626357 
L 268.725 229.552312 
L 267.5625 221.09697 
L 266.4 219.208784 
L 265.2375 213.773822 
L 264.075 213.773822 
L 262.9125 219.208784 
L 261.75 221.482086 
L 260.5875 231.585415 
L 259.425 233.692266 
L 258.2625 240.60363 
L 257.1 240.60363 
L 255.9375 240.60363 
L 254.775 240.60363 
L 253.6125 240.872765 
L 252.45 244.489952 
L 251.2875 247.534995 
L 250.125 251.824274 
L 248.9625 256.927972 
L 247.8 256.927972 
L 246.6375 256.927972 
L 245.475 256.927972 
L 244.3125 256.927972 
L 243.15 257.763787 
L 241.9875 259.969929 
L 240.825 267.282073 
L 239.6625 280.067228 
L 238.5 282.042593 
L 237.3375 285.427323 
L 236.175 285.427323 
L 235.0125 286.207041 
L 233.85 285.427323 
L 232.6875 286.207041 
L 231.525 293.963625 
L 230.3625 296.250853 
L 229.2 296.250853 
L 228.0375 299.119984 
L 226.875 299.119984 
L 225.7125 306.701762 
L 224.55 313.508656 
L 223.3875 330.114991 
L 222.225 330.114991 
L 221.0625 330.114991 
L 219.9 330.114991 
L 218.7375 330.114991 
L 217.575 334.003378 
L 216.4125 330.114991 
L 215.25 334.003378 
L 214.0875 334.003378 
L 212.925 334.003378 
L 211.7625 334.003378 
L 210.6 334.003378 
L 209.4375 330.114991 
L 208.275 330.114991 
L 207.1125 313.508656 
L 205.95 330.114991 
L 204.7875 335.818779 
L 203.625 335.818779 
L 202.4625 356.669215 
L 201.3 370.798001 
L 200.1375 379.892799 
L 198.975 390.680755 
L 197.8125 390.680755 
L 196.65 403.939865 
L 195.4875 421.149382 
L 194.325 421.149382 
L 193.1625 445.712331 
L 192 445.712331 
L 190.8375 445.712331 
L 189.675 445.712331 
L 188.5125 482.996401 
L 187.35 482.996401 
L 186.1875 489.116592 
L 185.025 489.116592 
L 183.8625 489.116592 
L 182.7 482.996401 
L 181.5375 482.996401 
L 180.375 482.996401 
L 179.2125 482.996401 
L 178.05 482.996401 
L 176.8875 482.996401 
L 175.725 482.996401 
L 174.5625 482.996401 
L 173.4 482.996401 
L 172.2375 482.996401 
L 171.075 482.996401 
L 169.9125 482.996401 
L 168.75 482.996401 
L 167.5875 482.996401 
L 166.425 482.996401 
L 165.2625 482.996401 
L 164.1 482.996401 
L 162.9375 482.996401 
L 161.775 445.712331 
L 160.6125 442.732801 
L 159.45 442.732801 
L 158.2875 442.732801 
L 157.125 442.732801 
L 155.9625 442.732801 
L 154.8 442.732801 
L 153.6375 442.732801 
L 152.475 442.732801 
L 151.3125 442.732801 
L 150.15 393.101442 
L 148.9875 389.507218 
L 147.825 389.507218 
L 146.6625 379.892799 
L 145.5 371.646017 
L 144.3375 371.646017 
L 143.175 370.798001 
L 142.0125 362.93628 
L 140.85 362.205602 
L 139.6875 362.205602 
L 138.525 362.205602 
L 137.3625 356.012846 
L 136.2 349.827423 
L 135.0375 349.827423 
L 133.875 349.827423 
L 132.7125 349.827423 
L 131.55 349.827423 
L 130.3875 349.243618 
L 129.225 349.243618 
L 128.0625 351.61489 
L 126.9 349.243618 
L 125.7375 351.61489 
L 124.575 370.798001 
L 123.4125 378.916506 
L 122.25 378.916506 
L 121.0875 381.896036 
L 119.925 419.180105 
L 118.7625 419.180105 
L 117.6 421.149382 
L 116.4375 442.732801 
L 115.275 445.712331 
L 114.1125 482.996401 
L 112.95 134235.778641 
L 111.7875 134235.778641 
L 110.625 134235.778641 
L 109.4625 134235.778641 
L 108.3 134235.778641 
L 107.1375 134235.778641 
L 105.975 134235.778641 
L 104.8125 134235.778641 
L 103.65 134235.778641 
L 102.4875 134235.778641 
L 101.325 134235.778641 
L 100.1625 134235.778641 
L 99 134235.778641 
z
" style="fill:#8080ff;fill-opacity:0.5;stroke:#8080ff;stroke-opacity:0.5;"/>
   </g>
   <g id="PolyCollection_2">
    <path clip-path="url(#p68e2955192)" d="M 99 134235.778641 
L 99 134235.778641 
L 100.1625 134235.778641 
L 101.325 134235.778641 
L 102.4875 134235.778641 
L 103.65 134235.778641 
L 104.8125 134235.778641 
L 105.975 134235.778641 
L 107.1375 134235.778641 
L 108.3 134235.778641 
L 109.4625 134235.778641 
L 110.625 134235.778641 
L 111.7875 134235.778641 
L 112.95 134235.778641 
L 114.1125 134235.778641 
L 115.275 134235.778641 
L 116.4375 134235.778641 
L 117.6 134235.778641 
L 118.7625 503.714969 
L 119.925 503.714969 
L 121.0875 503.714969 
L 122.25 503.714969 
L 123.4125 503.714969 
L 124.575 503.714969 
L 125.7375 482.996401 
L 126.9 482.996401 
L 128.0625 482.996401 
L 129.225 482.996401 
L 130.3875 482.996401 
L 131.55 482.996401 
L 132.7125 482.996401 
L 133.875 482.996401 
L 135.0375 482.996401 
L 136.2 482.996401 
L 137.3625 482.996401 
L 138.525 482.996401 
L 139.6875 482.996401 
L 140.85 482.996401 
L 142.0125 482.996401 
L 143.175 482.996401 
L 144.3375 482.996401 
L 145.5 482.996401 
L 146.6625 503.714969 
L 147.825 503.714969 
L 148.9875 503.714969 
L 150.15 134235.778641 
L 151.3125 134235.778641 
L 152.475 134235.778641 
L 153.6375 134235.778641 
L 154.8 134235.778641 
L 155.9625 134235.778641 
L 157.125 134235.778641 
L 158.2875 134235.778641 
L 159.45 134235.778641 
L 160.6125 134235.778641 
L 161.775 134235.778641 
L 162.9375 134235.778641 
L 164.1 134235.778641 
L 165.2625 134235.778641 
L 166.425 134235.778641 
L 167.5875 134235.778641 
L 168.75 134235.778641 
L 169.9125 134235.778641 
L 171.075 134235.778641 
L 172.2375 134235.778641 
L 173.4 134235.778641 
L 174.5625 134235.778641 
L 175.725 134235.778641 
L 176.8875 134235.778641 
L 178.05 134235.778641 
L 179.2125 134235.778641 
L 180.375 134235.778641 
L 181.5375 134235.778641 
L 182.7 134235.778641 
L 183.8625 134235.778641 
L 185.025 134235.778641 
L 186.1875 134235.778641 
L 187.35 134235.778641 
L 188.5125 134235.778641 
L 189.675 134235.778641 
L 190.8375 134235.778641 
L 192 134235.778641 
L 193.1625 134235.778641 
L 194.325 134235.778641 
L 195.4875 134235.778641 
L 196.65 134235.778641 
L 197.8125 134235.778641 
L 198.975 134235.778641 
L 200.1375 134235.778641 
L 201.3 134235.778641 
L 202.4625 134235.778641 
L 203.625 134235.778641 
L 204.7875 134235.778641 
L 205.95 503.714969 
L 207.1125 503.714969 
L 208.275 503.714969 
L 209.4375 503.714969 
L 210.6 503.714969 
L 211.7625 503.714969 
L 212.925 503.714969 
L 214.0875 503.714969 
L 215.25 503.714969 
L 216.4125 503.714969 
L 217.575 503.714969 
L 218.7375 134235.778641 
L 219.9 134235.778641 
L 221.0625 134235.778641 
L 222.225 134235.778641 
L 223.3875 134235.778641 
L 224.55 134235.778641 
L 225.7125 134235.778641 
L 226.875 134235.778641 
L 228.0375 134235.778641 
L 229.2 134235.778641 
L 230.3625 503.714969 
L 231.525 482.996401 
L 232.6875 482.996401 
L 233.85 482.996401 
L 235.0125 482.996401 
L 236.175 482.996401 
L 237.3375 482.996401 
L 238.5 482.996401 
L 239.6625 482.996401 
L 240.825 482.996401 
L 241.9875 482.996401 
L 243.15 482.996401 
L 244.3125 482.996401 
L 245.475 482.996401 
L 246.6375 503.714969 
L 247.8 503.714969 
L 248.9625 503.714969 
L 250.125 503.714969 
L 251.2875 134235.778641 
L 252.45 503.714969 
L 253.6125 503.714969 
L 254.775 503.714969 
L 255.9375 482.996401 
L 257.1 482.996401 
L 258.2625 482.996401 
L 259.425 482.996401 
L 260.5875 482.996401 
L 261.75 482.996401 
L 262.9125 482.996401 
L 264.075 482.996401 
L 265.2375 482.996401 
L 266.4 482.996401 
L 267.5625 482.996401 
L 268.725 482.996401 
L 269.8875 482.996401 
L 271.05 482.996401 
L 272.2125 482.996401 
L 273.375 482.996401 
L 274.5375 482.996401 
L 275.7 482.996401 
L 276.8625 482.996401 
L 278.025 482.996401 
L 279.1875 482.996401 
L 280.35 482.996401 
L 281.5125 482.996401 
L 282.675 482.996401 
L 283.8375 482.996401 
L 285 482.996401 
L 286.1625 482.996401 
L 287.325 482.996401 
L 288.4875 482.996401 
L 289.65 482.996401 
L 290.8125 482.996401 
L 291.975 482.996401 
L 293.1375 482.996401 
L 294.3 482.996401 
L 295.4625 482.996401 
L 296.625 482.996401 
L 297.7875 482.996401 
L 298.95 482.996401 
L 300.1125 452.173216 
L 301.275 452.173216 
L 302.4375 452.173216 
L 303.6 452.173216 
L 304.7625 442.732801 
L 305.925 442.732801 
L 307.0875 442.732801 
L 308.25 452.173216 
L 309.4125 452.173216 
L 310.575 452.173216 
L 311.7375 452.173216 
L 312.9 452.173216 
L 314.0625 452.173216 
L 315.225 452.173216 
L 316.3875 482.996401 
L 317.55 482.996401 
L 318.7125 482.996401 
L 319.875 482.996401 
L 321.0375 482.996401 
L 322.2 482.996401 
L 323.3625 482.996401 
L 324.525 482.996401 
L 325.6875 482.996401 
L 326.85 482.996401 
L 328.0125 482.996401 
L 329.175 482.996401 
L 330.3375 417.275407 
L 331.5 417.275407 
L 332.6625 417.275407 
L 333.825 417.275407 
L 334.9875 417.275407 
L 336.15 417.275407 
L 337.3125 417.275407 
L 338.475 417.275407 
L 339.6375 417.275407 
L 340.8 417.275407 
L 341.9625 417.275407 
L 343.125 417.275407 
L 344.2875 482.996401 
L 345.45 482.996401 
L 346.6125 482.996401 
L 347.775 482.996401 
L 348.9375 482.996401 
L 350.1 482.996401 
L 351.2625 482.996401 
L 352.425 482.996401 
L 353.5875 482.996401 
L 354.75 482.996401 
L 355.9125 482.996401 
L 357.075 482.996401 
L 358.2375 482.996401 
L 359.4 482.996401 
L 360.5625 482.996401 
L 361.725 482.996401 
L 362.8875 482.996401 
L 364.05 482.996401 
L 365.2125 452.173216 
L 366.375 482.996401 
L 367.5375 452.173216 
L 368.7 411.909617 
L 369.8625 411.909617 
L 371.025 411.909617 
L 372.1875 411.909617 
L 373.35 411.909617 
L 374.5125 411.909617 
L 375.675 411.909617 
L 376.8375 411.909617 
L 378 411.909617 
L 379.1625 411.909617 
L 380.325 411.909617 
L 381.4875 393.101442 
L 382.65 393.101442 
L 383.8125 406.997839 
L 384.975 432.142089 
L 386.1375 432.142089 
L 387.3 432.142089 
L 388.4625 432.142089 
L 389.625 425.300297 
L 390.7875 425.300297 
L 391.95 425.300297 
L 393.1125 425.300297 
L 394.275 425.300297 
L 395.4375 425.300297 
L 396.6 425.300297 
L 397.7625 425.300297 
L 398.925 442.732801 
L 400.0875 425.300297 
L 401.25 425.300297 
L 402.4125 425.300297 
L 403.575 425.300297 
L 404.7375 425.300297 
L 405.9 425.300297 
L 407.0625 425.300297 
L 408.225 374.266977 
L 409.3875 348.665623 
L 410.55 348.665623 
L 411.7125 348.665623 
L 412.875 348.665623 
L 414.0375 374.266977 
L 415.2 371.646017 
L 416.3625 369.138228 
L 417.525 369.138228 
L 418.6875 348.665623 
L 419.85 348.665623 
L 421.0125 348.665623 
L 422.175 348.665623 
L 423.3375 348.665623 
L 424.5 354.087097 
L 425.6625 393.101442 
L 426.825 393.101442 
L 427.9875 393.101442 
L 429.15 393.101442 
L 430.3125 358.684033 
L 431.475 358.684033 
L 432.6375 362.93628 
L 433.8 362.93628 
L 434.9625 419.180105 
L 436.125 419.180105 
L 437.2875 419.180105 
L 438.45 425.300297 
L 439.6125 425.300297 
L 440.775 419.180105 
L 441.9375 419.180105 
L 443.1 368.325794 
L 444.2625 368.325794 
L 445.425 368.325794 
L 446.5875 419.180105 
L 447.75 425.300297 
L 448.9125 419.180105 
L 450.075 419.180105 
L 451.2375 419.180105 
L 452.4 419.180105 
L 453.5625 419.180105 
L 454.725 419.180105 
L 455.8875 419.180105 
L 457.05 425.300297 
L 458.2125 425.300297 
L 459.375 442.732801 
L 460.5375 442.732801 
L 461.7 442.732801 
L 462.8625 442.732801 
L 464.025 425.300297 
L 465.1875 452.173216 
L 466.35 452.173216 
L 467.5125 401.034855 
L 468.675 401.034855 
L 469.8375 401.034855 
L 471 401.034855 
L 472.1625 401.034855 
L 473.325 405.448731 
L 474.4875 405.448731 
L 475.65 405.448731 
L 476.8125 405.448731 
L 477.975 405.448731 
L 479.1375 335.359582 
L 480.3 405.448731 
L 481.4625 405.448731 
L 482.625 405.448731 
L 483.7875 482.996401 
L 484.95 482.996401 
L 486.1125 482.996401 
L 487.275 482.996401 
L 488.4375 503.714969 
L 489.6 134235.778641 
L 490.7625 463.451369 
L 491.925 463.451369 
L 493.0875 463.451369 
L 494.25 463.451369 
L 495.4125 463.451369 
L 496.575 452.173216 
L 497.7375 452.173216 
L 498.9 452.173216 
L 500.0625 452.173216 
L 501.225 452.173216 
L 502.3875 452.173216 
L 503.55 452.173216 
L 504.7125 452.173216 
L 505.875 452.173216 
L 507.0375 482.996401 
L 508.2 482.996401 
L 509.3625 482.996401 
L 510.525 405.448731 
L 511.6875 482.996401 
L 512.85 482.996401 
L 514.0125 482.996401 
L 515.175 482.996401 
L 516.3375 482.996401 
L 517.5 482.996401 
L 518.6625 482.996401 
L 519.825 482.996401 
L 520.9875 482.996401 
L 522.15 482.996401 
L 523.3125 482.996401 
L 524.475 482.996401 
L 525.6375 482.996401 
L 526.8 482.996401 
L 527.9625 482.996401 
L 529.125 482.996401 
L 530.2875 482.996401 
L 531.45 482.996401 
L 532.6125 482.996401 
L 533.775 482.996401 
L 534.9375 482.996401 
L 536.1 452.173216 
L 537.2625 452.173216 
L 538.425 452.173216 
L 539.5875 452.173216 
L 540.75 452.173216 
L 541.9125 452.173216 
L 543.075 452.173216 
L 544.2375 452.173216 
L 545.4 452.173216 
L 546.5625 503.714969 
L 547.725 503.714969 
L 548.8875 503.714969 
L 550.05 503.714969 
L 551.2125 503.714969 
L 552.375 134235.778641 
L 553.5375 134235.778641 
L 554.7 134235.778641 
L 555.8625 134235.778641 
L 557.025 134235.778641 
L 558.1875 134235.778641 
L 559.35 134235.778641 
L 560.5125 134235.778641 
L 561.675 134235.778641 
L 562.8375 503.714969 
L 564 503.714969 
L 565.1625 503.714969 
L 566.325 503.714969 
L 567.4875 503.714969 
L 568.65 503.714969 
L 569.8125 503.714969 
L 570.975 503.714969 
L 572.1375 503.714969 
L 573.3 503.714969 
L 574.4625 503.714969 
L 575.625 359.371474 
L 576.7875 359.371474 
L 577.95 359.371474 
L 579.1125 134235.778641 
L 580.275 134235.778641 
L 581.4375 134235.778641 
L 582.6 134235.778641 
L 583.7625 503.714969 
L 584.925 503.714969 
L 586.0875 503.714969 
L 587.25 482.996401 
L 588.4125 482.996401 
L 589.575 482.996401 
L 590.7375 482.996401 
L 591.9 503.714969 
L 593.0625 482.996401 
L 594.225 452.173216 
L 595.3875 452.173216 
L 596.55 452.173216 
L 597.7125 452.173216 
L 598.875 452.173216 
L 600.0375 442.732801 
L 601.2 411.909617 
L 602.3625 411.909617 
L 603.525 411.909617 
L 604.6875 411.909617 
L 605.85 411.909617 
L 607.0125 411.909617 
L 608.175 411.909617 
L 609.3375 411.909617 
L 610.5 417.275407 
L 611.6625 417.275407 
L 612.825 417.275407 
L 613.9875 417.275407 
L 615.15 417.275407 
L 616.3125 503.714969 
L 617.475 134235.778641 
L 618.6375 134235.778641 
L 619.8 134235.778641 
L 620.9625 134235.778641 
L 622.125 134235.778641 
L 623.2875 134235.778641 
L 624.45 134235.778641 
L 625.6125 134235.778641 
L 626.775 134235.778641 
L 627.9375 134235.778641 
L 629.1 134235.778641 
L 630.2625 134235.778641 
L 631.425 134235.778641 
L 632.5875 134235.778641 
L 633.75 134235.778641 
L 634.9125 134235.778641 
L 636.075 134235.778641 
L 637.2375 134235.778641 
L 638.4 134235.778641 
L 639.5625 134235.778641 
L 640.725 134235.778641 
L 641.8875 134235.778641 
L 643.05 503.714969 
L 644.2125 503.714969 
L 645.375 134235.778641 
L 646.5375 134235.778641 
L 647.7 134235.778641 
L 648.8625 134235.778641 
L 650.025 134235.778641 
L 651.1875 503.714969 
L 652.35 503.714969 
L 653.5125 503.714969 
L 654.675 503.714969 
L 655.8375 503.714969 
L 657 503.714969 
L 658.1625 503.714969 
L 659.325 134235.778641 
L 660.4875 134235.778641 
L 661.65 463.451369 
L 662.8125 463.451369 
L 663.975 463.451369 
L 665.1375 442.732801 
L 666.3 442.732801 
L 667.4625 463.451369 
L 668.625 463.451369 
L 669.7875 463.451369 
L 670.95 463.451369 
L 672.1125 463.451369 
L 673.275 463.451369 
L 674.4375 463.451369 
L 675.6 452.173216 
L 676.7625 452.173216 
L 677.925 452.173216 
L 679.0875 452.173216 
L 680.25 452.173216 
L 681.4125 503.714969 
L 682.575 503.714969 
L 683.7375 452.173216 
L 684.9 452.173216 
L 686.0625 442.732801 
L 687.225 442.732801 
L 688.3875 442.732801 
L 689.55 442.732801 
L 690.7125 442.732801 
L 691.875 442.732801 
L 693.0375 425.300297 
L 694.2 425.300297 
L 695.3625 425.300297 
L 696.525 425.300297 
L 697.6875 425.300297 
L 698.85 425.300297 
L 700.0125 425.300297 
L 701.175 419.180105 
L 702.3375 425.300297 
L 703.5 425.300297 
L 704.6625 425.300297 
L 705.825 425.300297 
L 706.9875 396.932815 
L 708.15 393.101442 
L 709.3125 406.997839 
L 710.475 406.997839 
L 711.6375 406.997839 
L 712.8 406.997839 
L 712.8 134235.778641 
L 712.8 134235.778641 
L 711.6375 134235.778641 
L 710.475 134235.778641 
L 709.3125 134235.778641 
L 708.15 134235.778641 
L 706.9875 134235.778641 
L 705.825 134235.778641 
L 704.6625 134235.778641 
L 703.5 134235.778641 
L 702.3375 134235.778641 
L 701.175 134235.778641 
L 700.0125 134235.778641 
L 698.85 134235.778641 
L 697.6875 134235.778641 
L 696.525 134235.778641 
L 695.3625 134235.778641 
L 694.2 134235.778641 
L 693.0375 134235.778641 
L 691.875 134235.778641 
L 690.7125 134235.778641 
L 689.55 134235.778641 
L 688.3875 134235.778641 
L 687.225 134235.778641 
L 686.0625 134235.778641 
L 684.9 134235.778641 
L 683.7375 134235.778641 
L 682.575 134235.778641 
L 681.4125 134235.778641 
L 680.25 134235.778641 
L 679.0875 134235.778641 
L 677.925 134235.778641 
L 676.7625 134235.778641 
L 675.6 134235.778641 
L 674.4375 134235.778641 
L 673.275 134235.778641 
L 672.1125 134235.778641 
L 670.95 134235.778641 
L 669.7875 134235.778641 
L 668.625 134235.778641 
L 667.4625 134235.778641 
L 666.3 134235.778641 
L 665.1375 134235.778641 
L 663.975 134235.778641 
L 662.8125 134235.778641 
L 661.65 134235.778641 
L 660.4875 134235.778641 
L 659.325 134235.778641 
L 658.1625 134235.778641 
L 657 134235.778641 
L 655.8375 134235.778641 
L 654.675 134235.778641 
L 653.5125 134235.778641 
L 652.35 134235.778641 
L 651.1875 134235.778641 
L 650.025 134235.778641 
L 648.8625 134235.778641 
L 647.7 134235.778641 
L 646.5375 134235.778641 
L 645.375 134235.778641 
L 644.2125 134235.778641 
L 643.05 134235.778641 
L 641.8875 134235.778641 
L 640.725 134235.778641 
L 639.5625 134235.778641 
L 638.4 134235.778641 
L 637.2375 134235.778641 
L 636.075 134235.778641 
L 634.9125 134235.778641 
L 633.75 134235.778641 
L 632.5875 134235.778641 
L 631.425 134235.778641 
L 630.2625 134235.778641 
L 629.1 134235.778641 
L 627.9375 134235.778641 
L 626.775 134235.778641 
L 625.6125 134235.778641 
L 624.45 134235.778641 
L 623.2875 134235.778641 
L 622.125 134235.778641 
L 620.9625 134235.778641 
L 619.8 134235.778641 
L 618.6375 134235.778641 
L 617.475 134235.778641 
L 616.3125 134235.778641 
L 615.15 134235.778641 
L 613.9875 134235.778641 
L 612.825 134235.778641 
L 611.6625 134235.778641 
L 610.5 134235.778641 
L 609.3375 134235.778641 
L 608.175 134235.778641 
L 607.0125 134235.778641 
L 605.85 134235.778641 
L 604.6875 134235.778641 
L 603.525 134235.778641 
L 602.3625 134235.778641 
L 601.2 134235.778641 
L 600.0375 134235.778641 
L 598.875 134235.778641 
L 597.7125 134235.778641 
L 596.55 134235.778641 
L 595.3875 134235.778641 
L 594.225 134235.778641 
L 593.0625 134235.778641 
L 591.9 134235.778641 
L 590.7375 134235.778641 
L 589.575 134235.778641 
L 588.4125 134235.778641 
L 587.25 134235.778641 
L 586.0875 134235.778641 
L 584.925 134235.778641 
L 583.7625 134235.778641 
L 582.6 134235.778641 
L 581.4375 134235.778641 
L 580.275 134235.778641 
L 579.1125 134235.778641 
L 577.95 134235.778641 
L 576.7875 134235.778641 
L 575.625 134235.778641 
L 574.4625 134235.778641 
L 573.3 134235.778641 
L 572.1375 134235.778641 
L 570.975 134235.778641 
L 569.8125 134235.778641 
L 568.65 134235.778641 
L 567.4875 134235.778641 
L 566.325 134235.778641 
L 565.1625 134235.778641 
L 564 134235.778641 
L 562.8375 134235.778641 
L 561.675 134235.778641 
L 560.5125 134235.778641 
L 559.35 134235.778641 
L 558.1875 134235.778641 
L 557.025 134235.778641 
L 555.8625 134235.778641 
L 554.7 134235.778641 
L 553.5375 134235.778641 
L 552.375 134235.778641 
L 551.2125 134235.778641 
L 550.05 134235.778641 
L 548.8875 134235.778641 
L 547.725 134235.778641 
L 546.5625 134235.778641 
L 545.4 134235.778641 
L 544.2375 134235.778641 
L 543.075 134235.778641 
L 541.9125 134235.778641 
L 540.75 134235.778641 
L 539.5875 134235.778641 
L 538.425 134235.778641 
L 537.2625 134235.778641 
L 536.1 134235.778641 
L 534.9375 134235.778641 
L 533.775 134235.778641 
L 532.6125 134235.778641 
L 531.45 134235.778641 
L 530.2875 134235.778641 
L 529.125 134235.778641 
L 527.9625 134235.778641 
L 526.8 134235.778641 
L 525.6375 134235.778641 
L 524.475 134235.778641 
L 523.3125 134235.778641 
L 522.15 134235.778641 
L 520.9875 134235.778641 
L 519.825 134235.778641 
L 518.6625 134235.778641 
L 517.5 134235.778641 
L 516.3375 134235.778641 
L 515.175 134235.778641 
L 514.0125 134235.778641 
L 512.85 134235.778641 
L 511.6875 134235.778641 
L 510.525 134235.778641 
L 509.3625 134235.778641 
L 508.2 134235.778641 
L 507.0375 134235.778641 
L 505.875 134235.778641 
L 504.7125 134235.778641 
L 503.55 134235.778641 
L 502.3875 134235.778641 
L 501.225 134235.778641 
L 500.0625 134235.778641 
L 498.9 134235.778641 
L 497.7375 134235.778641 
L 496.575 134235.778641 
L 495.4125 134235.778641 
L 494.25 134235.778641 
L 493.0875 134235.778641 
L 491.925 134235.778641 
L 490.7625 134235.778641 
L 489.6 134235.778641 
L 488.4375 134235.778641 
L 487.275 134235.778641 
L 486.1125 134235.778641 
L 484.95 134235.778641 
L 483.7875 134235.778641 
L 482.625 134235.778641 
L 481.4625 134235.778641 
L 480.3 134235.778641 
L 479.1375 134235.778641 
L 477.975 134235.778641 
L 476.8125 134235.778641 
L 475.65 134235.778641 
L 474.4875 134235.778641 
L 473.325 134235.778641 
L 472.1625 134235.778641 
L 471 134235.778641 
L 469.8375 134235.778641 
L 468.675 134235.778641 
L 467.5125 134235.778641 
L 466.35 134235.778641 
L 465.1875 134235.778641 
L 464.025 134235.778641 
L 462.8625 134235.778641 
L 461.7 134235.778641 
L 460.5375 134235.778641 
L 459.375 134235.778641 
L 458.2125 134235.778641 
L 457.05 134235.778641 
L 455.8875 134235.778641 
L 454.725 134235.778641 
L 453.5625 134235.778641 
L 452.4 134235.778641 
L 451.2375 134235.778641 
L 450.075 134235.778641 
L 448.9125 134235.778641 
L 447.75 134235.778641 
L 446.5875 134235.778641 
L 445.425 134235.778641 
L 444.2625 134235.778641 
L 443.1 134235.778641 
L 441.9375 134235.778641 
L 440.775 134235.778641 
L 439.6125 134235.778641 
L 438.45 134235.778641 
L 437.2875 134235.778641 
L 436.125 134235.778641 
L 434.9625 134235.778641 
L 433.8 134235.778641 
L 432.6375 134235.778641 
L 431.475 134235.778641 
L 430.3125 134235.778641 
L 429.15 134235.778641 
L 427.9875 134235.778641 
L 426.825 134235.778641 
L 425.6625 134235.778641 
L 424.5 489.116592 
L 423.3375 489.116592 
L 422.175 134235.778641 
L 421.0125 134235.778641 
L 419.85 134235.778641 
L 418.6875 134235.778641 
L 417.525 134235.778641 
L 416.3625 134235.778641 
L 415.2 134235.778641 
L 414.0375 134235.778641 
L 412.875 134235.778641 
L 411.7125 134235.778641 
L 410.55 134235.778641 
L 409.3875 134235.778641 
L 408.225 134235.778641 
L 407.0625 134235.778641 
L 405.9 134235.778641 
L 404.7375 134235.778641 
L 403.575 134235.778641 
L 402.4125 134235.778641 
L 401.25 134235.778641 
L 400.0875 134235.778641 
L 398.925 134235.778641 
L 397.7625 134235.778641 
L 396.6 134235.778641 
L 395.4375 134235.778641 
L 394.275 134235.778641 
L 393.1125 134235.778641 
L 391.95 134235.778641 
L 390.7875 134235.778641 
L 389.625 134235.778641 
L 388.4625 134235.778641 
L 387.3 134235.778641 
L 386.1375 134235.778641 
L 384.975 134235.778641 
L 383.8125 134235.778641 
L 382.65 134235.778641 
L 381.4875 134235.778641 
L 380.325 134235.778641 
L 379.1625 134235.778641 
L 378 134235.778641 
L 376.8375 134235.778641 
L 375.675 134235.778641 
L 374.5125 134235.778641 
L 373.35 134235.778641 
L 372.1875 134235.778641 
L 371.025 134235.778641 
L 369.8625 134235.778641 
L 368.7 134235.778641 
L 367.5375 134235.778641 
L 366.375 134235.778641 
L 365.2125 134235.778641 
L 364.05 134235.778641 
L 362.8875 134235.778641 
L 361.725 134235.778641 
L 360.5625 134235.778641 
L 359.4 134235.778641 
L 358.2375 134235.778641 
L 357.075 134235.778641 
L 355.9125 134235.778641 
L 354.75 134235.778641 
L 353.5875 134235.778641 
L 352.425 134235.778641 
L 351.2625 134235.778641 
L 350.1 134235.778641 
L 348.9375 134235.778641 
L 347.775 134235.778641 
L 346.6125 134235.778641 
L 345.45 134235.778641 
L 344.2875 134235.778641 
L 343.125 134235.778641 
L 341.9625 134235.778641 
L 340.8 134235.778641 
L 339.6375 134235.778641 
L 338.475 134235.778641 
L 337.3125 134235.778641 
L 336.15 134235.778641 
L 334.9875 134235.778641 
L 333.825 134235.778641 
L 332.6625 134235.778641 
L 331.5 134235.778641 
L 330.3375 134235.778641 
L 329.175 134235.778641 
L 328.0125 134235.778641 
L 326.85 134235.778641 
L 325.6875 134235.778641 
L 324.525 134235.778641 
L 323.3625 134235.778641 
L 322.2 134235.778641 
L 321.0375 134235.778641 
L 319.875 134235.778641 
L 318.7125 134235.778641 
L 317.55 134235.778641 
L 316.3875 134235.778641 
L 315.225 134235.778641 
L 314.0625 134235.778641 
L 312.9 134235.778641 
L 311.7375 134235.778641 
L 310.575 134235.778641 
L 309.4125 134235.778641 
L 308.25 134235.778641 
L 307.0875 134235.778641 
L 305.925 134235.778641 
L 304.7625 134235.778641 
L 303.6 134235.778641 
L 302.4375 134235.778641 
L 301.275 134235.778641 
L 300.1125 134235.778641 
L 298.95 134235.778641 
L 297.7875 134235.778641 
L 296.625 134235.778641 
L 295.4625 134235.778641 
L 294.3 134235.778641 
L 293.1375 134235.778641 
L 291.975 134235.778641 
L 290.8125 134235.778641 
L 289.65 134235.778641 
L 288.4875 134235.778641 
L 287.325 134235.778641 
L 286.1625 134235.778641 
L 285 134235.778641 
L 283.8375 134235.778641 
L 282.675 134235.778641 
L 281.5125 134235.778641 
L 280.35 134235.778641 
L 279.1875 134235.778641 
L 278.025 134235.778641 
L 276.8625 134235.778641 
L 275.7 134235.778641 
L 274.5375 134235.778641 
L 273.375 134235.778641 
L 272.2125 134235.778641 
L 271.05 134235.778641 
L 269.8875 134235.778641 
L 268.725 134235.778641 
L 267.5625 134235.778641 
L 266.4 134235.778641 
L 265.2375 134235.778641 
L 264.075 134235.778641 
L 262.9125 134235.778641 
L 261.75 134235.778641 
L 260.5875 134235.778641 
L 259.425 134235.778641 
L 258.2625 134235.778641 
L 257.1 134235.778641 
L 255.9375 134235.778641 
L 254.775 134235.778641 
L 253.6125 134235.778641 
L 252.45 134235.778641 
L 251.2875 134235.778641 
L 250.125 134235.778641 
L 248.9625 134235.778641 
L 247.8 134235.778641 
L 246.6375 134235.778641 
L 245.475 134235.778641 
L 244.3125 134235.778641 
L 243.15 134235.778641 
L 241.9875 134235.778641 
L 240.825 134235.778641 
L 239.6625 134235.778641 
L 238.5 134235.778641 
L 237.3375 134235.778641 
L 236.175 134235.778641 
L 235.0125 134235.778641 
L 233.85 134235.778641 
L 232.6875 134235.778641 
L 231.525 134235.778641 
L 230.3625 134235.778641 
L 229.2 134235.778641 
L 228.0375 134235.778641 
L 226.875 134235.778641 
L 225.7125 134235.778641 
L 224.55 134235.778641 
L 223.3875 134235.778641 
L 222.225 134235.778641 
L 221.0625 134235.778641 
L 219.9 134235.778641 
L 218.7375 134235.778641 
L 217.575 134235.778641 
L 216.4125 134235.778641 
L 215.25 134235.778641 
L 214.0875 134235.778641 
L 212.925 134235.778641 
L 211.7625 134235.778641 
L 210.6 134235.778641 
L 209.4375 134235.778641 
L 208.275 134235.778641 
L 207.1125 134235.778641 
L 205.95 134235.778641 
L 204.7875 134235.778641 
L 203.625 134235.778641 
L 202.4625 134235.778641 
L 201.3 134235.778641 
L 200.1375 134235.778641 
L 198.975 134235.778641 
L 197.8125 134235.778641 
L 196.65 134235.778641 
L 195.4875 134235.778641 
L 194.325 134235.778641 
L 193.1625 134235.778641 
L 192 134235.778641 
L 190.8375 134235.778641 
L 189.675 134235.778641 
L 188.5125 134235.778641 
L 187.35 134235.778641 
L 186.1875 134235.778641 
L 185.025 134235.778641 
L 183.8625 134235.778641 
L 182.7 134235.778641 
L 181.5375 134235.778641 
L 180.375 134235.778641 
L 179.2125 134235.778641 
L 178.05 134235.778641 
L 176.8875 134235.778641 
L 175.725 134235.778641 
L 174.5625 134235.778641 
L 173.4 134235.778641 
L 172.2375 134235.778641 
L 171.075 134235.778641 
L 169.9125 134235.778641 
L 168.75 134235.778641 
L 167.5875 134235.778641 
L 166.425 134235.778641 
L 165.2625 134235.778641 
L 164.1 134235.778641 
L 162.9375 134235.778641 
L 161.775 134235.778641 
L 160.6125 134235.778641 
L 159.45 134235.778641 
L 158.2875 134235.778641 
L 157.125 134235.778641 
L 155.9625 134235.778641 
L 154.8 134235.778641 
L 153.6375 134235.778641 
L 152.475 134235.778641 
L 151.3125 134235.778641 
L 150.15 134235.778641 
L 148.9875 134235.778641 
L 147.825 134235.778641 
L 146.6625 134235.778641 
L 145.5 134235.778641 
L 144.3375 134235.778641 
L 143.175 134235.778641 
L 142.0125 134235.778641 
L 140.85 134235.778641 
L 139.6875 134235.778641 
L 138.525 134235.778641 
L 137.3625 134235.778641 
L 136.2 134235.778641 
L 135.0375 134235.778641 
L 133.875 134235.778641 
L 132.7125 134235.778641 
L 131.55 134235.778641 
L 130.3875 134235.778641 
L 129.225 134235.778641 
L 128.0625 134235.778641 
L 126.9 134235.778641 
L 125.7375 134235.778641 
L 124.575 134235.778641 
L 123.4125 134235.778641 
L 122.25 134235.778641 
L 121.0875 134235.778641 
L 119.925 134235.778641 
L 118.7625 134235.778641 
L 117.6 134235.778641 
L 116.4375 134235.778641 
L 115.275 134235.778641 
L 114.1125 134235.778641 
L 112.95 134235.778641 
L 111.7875 134235.778641 
L 110.625 134235.778641 
L 109.4625 134235.778641 
L 108.3 134235.778641 
L 107.1375 134235.778641 
L 105.975 134235.778641 
L 104.8125 134235.778641 
L 103.65 134235.778641 
L 102.4875 134235.778641 
L 101.325 134235.778641 
L 100.1625 134235.778641 
L 99 134235.778641 
z
" style="fill:#ff8080;fill-opacity:0.5;stroke:#ff8080;stroke-opacity:0.5;"/>
   </g>
   <g id="matplotlib.axis_1">
    <g id="xtick_1">
     <g id="line2d_1">
      <path clip-path="url(#p68e2955192)" d="M 99 544.68 
L 99 73.44 
" style="fill:none;stroke:#b0b0b0;stroke-linecap:square;stroke-width:0.8;"/>
     </g>
     <g id="line2d_2">
      <defs>
       <path d="M 0 0 
L 0 3.5 
" id="m4abed1d830" style="stroke:#000000;stroke-width:0.8;"/>
      </defs>
      <g>
       <use style="stroke:#000000;stroke-width:0.8;" x="99" xlink:href="#m4abed1d830" y="544.68"/>
      </g>
     </g>
    </g>
    <g id="xtick_2">
     <g id="line2d_3">
      <path clip-path="url(#p68e2955192)" d="M 122.25 544.68 
L 122.25 73.44 
" style="fill:none;stroke:#b0b0b0;stroke-linecap:square;stroke-width:0.8;"/>
     </g>
     <g id="line2d_4">
      <g>
       <use style="stroke:#000000;stroke-width:0.8;" x="122.25" xlink:href="#m4abed1d830" y="544.68"/>
      </g>
     </g>
     <g id="text_1">
      <!-- Apr -->
      <g transform="translate(113.6 559.278437)scale(0.1 -0.1)">
       <defs>
        <path d="M 2188 4044 
L 1331 1722 
L 3047 1722 
L 2188 4044 
z
M 1831 4666 
L 2547 4666 
L 4325 0 
L 3669 0 
L 3244 1197 
L 1141 1197 
L 716 0 
L 50 0 
L 1831 4666 
z
" id="DejaVuSans-41" transform="scale(0.015625)"/>
        <path d="M 1159 525 
L 1159 -1331 
L 581 -1331 
L 581 3500 
L 1159 3500 
L 1159 2969 
Q 1341 3281 1617 3432 
Q 1894 3584 2278 3584 
Q 2916 3584 3314 3078 
Q 3713 2572 3713 1747 
Q 3713 922 3314 415 
Q 2916 -91 2278 -91 
Q 1894 -91 1617 61 
Q 1341 213 1159 525 
z
M 3116 1747 
Q 3116 2381 2855 2742 
Q 2594 3103 2138 3103 
Q 1681 3103 1420 2742 
Q 1159 2381 1159 1747 
Q 1159 1113 1420 752 
Q 1681 391 2138 391 
Q 2594 391 2855 752 
Q 3116 1113 3116 1747 
z
" id="DejaVuSans-70" transform="scale(0.015625)"/>
        <path d="M 2631 2963 
Q 2534 3019 2420 3045 
Q 2306 3072 2169 3072 
Q 1681 3072 1420 2755 
Q 1159 2438 1159 1844 
L 1159 0 
L 581 0 
L 581 3500 
L 1159 3500 
L 1159 2956 
Q 1341 3275 1631 3429 
Q 1922 3584 2338 3584 
Q 2397 3584 2469 3576 
Q 2541 3569 2628 3553 
L 2631 2963 
z
" id="DejaVuSans-72" transform="scale(0.015625)"/>
       </defs>
       <use xlink:href="#DejaVuSans-41"/>
       <use x="68.408203" xlink:href="#DejaVuSans-70"/>
       <use x="131.884766" xlink:href="#DejaVuSans-72"/>
      </g>
     </g>
    </g>
    <g id="xtick_3">
     <g id="line2d_5">
      <path clip-path="url(#p68e2955192)" d="M 228.0375 544.68 
L 228.0375 73.44 
" style="fill:none;stroke:#b0b0b0;stroke-linecap:square;stroke-width:0.8;"/>
     </g>
     <g id="line2d_6">
      <g>
       <use style="stroke:#000000;stroke-width:0.8;" x="228.0375" xlink:href="#m4abed1d830" y="544.68"/>
      </g>
     </g>
     <g id="text_2">
      <!-- Jul -->
      <g transform="translate(222.004688 559.278437)scale(0.1 -0.1)">
       <defs>
        <path d="M 628 4666 
L 1259 4666 
L 1259 325 
Q 1259 -519 939 -900 
Q 619 -1281 -91 -1281 
L -331 -1281 
L -331 -750 
L -134 -750 
Q 284 -750 456 -515 
Q 628 -281 628 325 
L 628 4666 
z
" id="DejaVuSans-4a" transform="scale(0.015625)"/>
        <path d="M 544 1381 
L 544 3500 
L 1119 3500 
L 1119 1403 
Q 1119 906 1312 657 
Q 1506 409 1894 409 
Q 2359 409 2629 706 
Q 2900 1003 2900 1516 
L 2900 3500 
L 3475 3500 
L 3475 0 
L 2900 0 
L 2900 538 
Q 2691 219 2414 64 
Q 2138 -91 1772 -91 
Q 1169 -91 856 284 
Q 544 659 544 1381 
z
M 1991 3584 
L 1991 3584 
z
" id="DejaVuSans-75" transform="scale(0.015625)"/>
        <path d="M 603 4863 
L 1178 4863 
L 1178 0 
L 603 0 
L 603 4863 
z
" id="DejaVuSans-6c" transform="scale(0.015625)"/>
       </defs>
       <use xlink:href="#DejaVuSans-4a"/>
       <use x="29.492188" xlink:href="#DejaVuSans-75"/>
       <use x="92.871094" xlink:href="#DejaVuSans-6c"/>
      </g>
     </g>
    </g>
    <g id="xtick_4">
     <g id="line2d_7">
      <path clip-path="url(#p68e2955192)" d="M 334.9875 544.68 
L 334.9875 73.44 
" style="fill:none;stroke:#b0b0b0;stroke-linecap:square;stroke-width:0.8;"/>
     </g>
     <g id="line2d_8">
      <g>
       <use style="stroke:#000000;stroke-width:0.8;" x="334.9875" xlink:href="#m4abed1d830" y="544.68"/>
      </g>
     </g>
     <g id="text_3">
      <!-- Oct -->
      <g transform="translate(326.342188 559.278437)scale(0.1 -0.1)">
       <defs>
        <path d="M 2522 4238 
Q 1834 4238 1429 3725 
Q 1025 3213 1025 2328 
Q 1025 1447 1429 934 
Q 1834 422 2522 422 
Q 3209 422 3611 934 
Q 4013 1447 4013 2328 
Q 4013 3213 3611 3725 
Q 3209 4238 2522 4238 
z
M 2522 4750 
Q 3503 4750 4090 4092 
Q 4678 3434 4678 2328 
Q 4678 1225 4090 567 
Q 3503 -91 2522 -91 
Q 1538 -91 948 565 
Q 359 1222 359 2328 
Q 359 3434 948 4092 
Q 1538 4750 2522 4750 
z
" id="DejaVuSans-4f" transform="scale(0.015625)"/>
        <path d="M 3122 3366 
L 3122 2828 
Q 2878 2963 2633 3030 
Q 2388 3097 2138 3097 
Q 1578 3097 1268 2742 
Q 959 2388 959 1747 
Q 959 1106 1268 751 
Q 1578 397 2138 397 
Q 2388 397 2633 464 
Q 2878 531 3122 666 
L 3122 134 
Q 2881 22 2623 -34 
Q 2366 -91 2075 -91 
Q 1284 -91 818 406 
Q 353 903 353 1747 
Q 353 2603 823 3093 
Q 1294 3584 2113 3584 
Q 2378 3584 2631 3529 
Q 2884 3475 3122 3366 
z
" id="DejaVuSans-63" transform="scale(0.015625)"/>
        <path d="M 1172 4494 
L 1172 3500 
L 2356 3500 
L 2356 3053 
L 1172 3053 
L 1172 1153 
Q 1172 725 1289 603 
Q 1406 481 1766 481 
L 2356 481 
L 2356 0 
L 1766 0 
Q 1100 0 847 248 
Q 594 497 594 1153 
L 594 3053 
L 172 3053 
L 172 3500 
L 594 3500 
L 594 4494 
L 1172 4494 
z
" id="DejaVuSans-74" transform="scale(0.015625)"/>
       </defs>
       <use xlink:href="#DejaVuSans-4f"/>
       <use x="78.710938" xlink:href="#DejaVuSans-63"/>
       <use x="133.691406" xlink:href="#DejaVuSans-74"/>
      </g>
     </g>
    </g>
    <g id="xtick_5">
     <g id="line2d_9">
      <path clip-path="url(#p68e2955192)" d="M 441.9375 544.68 
L 441.9375 73.44 
" style="fill:none;stroke:#b0b0b0;stroke-linecap:square;stroke-width:0.8;"/>
     </g>
     <g id="line2d_10">
      <g>
       <use style="stroke:#000000;stroke-width:0.8;" x="441.9375" xlink:href="#m4abed1d830" y="544.68"/>
      </g>
     </g>
     <g id="text_4">
      <!-- Jan -->
      <g transform="translate(434.229688 559.278437)scale(0.1 -0.1)">
       <defs>
        <path d="M 2194 1759 
Q 1497 1759 1228 1600 
Q 959 1441 959 1056 
Q 959 750 1161 570 
Q 1363 391 1709 391 
Q 2188 391 2477 730 
Q 2766 1069 2766 1631 
L 2766 1759 
L 2194 1759 
z
M 3341 1997 
L 3341 0 
L 2766 0 
L 2766 531 
Q 2569 213 2275 61 
Q 1981 -91 1556 -91 
Q 1019 -91 701 211 
Q 384 513 384 1019 
Q 384 1609 779 1909 
Q 1175 2209 1959 2209 
L 2766 2209 
L 2766 2266 
Q 2766 2663 2505 2880 
Q 2244 3097 1772 3097 
Q 1472 3097 1187 3025 
Q 903 2953 641 2809 
L 641 3341 
Q 956 3463 1253 3523 
Q 1550 3584 1831 3584 
Q 2591 3584 2966 3190 
Q 3341 2797 3341 1997 
z
" id="DejaVuSans-61" transform="scale(0.015625)"/>
        <path d="M 3513 2113 
L 3513 0 
L 2938 0 
L 2938 2094 
Q 2938 2591 2744 2837 
Q 2550 3084 2163 3084 
Q 1697 3084 1428 2787 
Q 1159 2491 1159 1978 
L 1159 0 
L 581 0 
L 581 3500 
L 1159 3500 
L 1159 2956 
Q 1366 3272 1645 3428 
Q 1925 3584 2291 3584 
Q 2894 3584 3203 3211 
Q 3513 2838 3513 2113 
z
" id="DejaVuSans-6e" transform="scale(0.015625)"/>
       </defs>
       <use xlink:href="#DejaVuSans-4a"/>
       <use x="29.492188" xlink:href="#DejaVuSans-61"/>
       <use x="90.771484" xlink:href="#DejaVuSans-6e"/>
      </g>
      <!-- 2021 -->
      <g transform="translate(429.2125 570.47625)scale(0.1 -0.1)">
       <defs>
        <path d="M 1228 531 
L 3431 531 
L 3431 0 
L 469 0 
L 469 531 
Q 828 903 1448 1529 
Q 2069 2156 2228 2338 
Q 2531 2678 2651 2914 
Q 2772 3150 2772 3378 
Q 2772 3750 2511 3984 
Q 2250 4219 1831 4219 
Q 1534 4219 1204 4116 
Q 875 4013 500 3803 
L 500 4441 
Q 881 4594 1212 4672 
Q 1544 4750 1819 4750 
Q 2544 4750 2975 4387 
Q 3406 4025 3406 3419 
Q 3406 3131 3298 2873 
Q 3191 2616 2906 2266 
Q 2828 2175 2409 1742 
Q 1991 1309 1228 531 
z
" id="DejaVuSans-32" transform="scale(0.015625)"/>
        <path d="M 2034 4250 
Q 1547 4250 1301 3770 
Q 1056 3291 1056 2328 
Q 1056 1369 1301 889 
Q 1547 409 2034 409 
Q 2525 409 2770 889 
Q 3016 1369 3016 2328 
Q 3016 3291 2770 3770 
Q 2525 4250 2034 4250 
z
M 2034 4750 
Q 2819 4750 3233 4129 
Q 3647 3509 3647 2328 
Q 3647 1150 3233 529 
Q 2819 -91 2034 -91 
Q 1250 -91 836 529 
Q 422 1150 422 2328 
Q 422 3509 836 4129 
Q 1250 4750 2034 4750 
z
" id="DejaVuSans-30" transform="scale(0.015625)"/>
        <path d="M 794 531 
L 1825 531 
L 1825 4091 
L 703 3866 
L 703 4441 
L 1819 4666 
L 2450 4666 
L 2450 531 
L 3481 531 
L 3481 0 
L 794 0 
L 794 531 
z
" id="DejaVuSans-31" transform="scale(0.015625)"/>
       </defs>
       <use xlink:href="#DejaVuSans-32"/>
       <use x="63.623047" xlink:href="#DejaVuSans-30"/>
       <use x="127.246094" xlink:href="#DejaVuSans-32"/>
       <use x="190.869141" xlink:href="#DejaVuSans-31"/>
      </g>
     </g>
    </g>
    <g id="xtick_6">
     <g id="line2d_11">
      <path clip-path="url(#p68e2955192)" d="M 546.5625 544.68 
L 546.5625 73.44 
" style="fill:none;stroke:#b0b0b0;stroke-linecap:square;stroke-width:0.8;"/>
     </g>
     <g id="line2d_12">
      <g>
       <use style="stroke:#000000;stroke-width:0.8;" x="546.5625" xlink:href="#m4abed1d830" y="544.68"/>
      </g>
     </g>
     <g id="text_5">
      <!-- Apr -->
      <g transform="translate(537.9125 559.278437)scale(0.1 -0.1)">
       <use xlink:href="#DejaVuSans-41"/>
       <use x="68.408203" xlink:href="#DejaVuSans-70"/>
       <use x="131.884766" xlink:href="#DejaVuSans-72"/>
      </g>
     </g>
    </g>
    <g id="xtick_7">
     <g id="line2d_13">
      <path clip-path="url(#p68e2955192)" d="M 652.35 544.68 
L 652.35 73.44 
" style="fill:none;stroke:#b0b0b0;stroke-linecap:square;stroke-width:0.8;"/>
     </g>
     <g id="line2d_14">
      <g>
       <use style="stroke:#000000;stroke-width:0.8;" x="652.35" xlink:href="#m4abed1d830" y="544.68"/>
      </g>
     </g>
     <g id="text_6">
      <!-- Jul -->
      <g transform="translate(646.317188 559.278437)scale(0.1 -0.1)">
       <use xlink:href="#DejaVuSans-4a"/>
       <use x="29.492188" xlink:href="#DejaVuSans-75"/>
       <use x="92.871094" xlink:href="#DejaVuSans-6c"/>
      </g>
     </g>
    </g>
    <g id="xtick_8">
     <g id="line2d_15">
      <path clip-path="url(#p68e2955192)" d="M 712.8 544.68 
L 712.8 73.44 
" style="fill:none;stroke:#b0b0b0;stroke-linecap:square;stroke-width:0.8;"/>
     </g>
     <g id="line2d_16">
      <g>
       <use style="stroke:#000000;stroke-width:0.8;" x="712.8" xlink:href="#m4abed1d830" y="544.68"/>
      </g>
     </g>
    </g>
    <g id="xtick_9">
     <g id="line2d_17">
      <defs>
       <path d="M 0 0 
L 0 2 
" id="mbe9820739d" style="stroke:#000000;stroke-width:0.6;"/>
      </defs>
      <g>
       <use style="stroke:#000000;stroke-width:0.6;" x="157.125" xlink:href="#mbe9820739d" y="544.68"/>
      </g>
     </g>
    </g>
    <g id="xtick_10">
     <g id="line2d_18">
      <g>
       <use style="stroke:#000000;stroke-width:0.6;" x="193.1625" xlink:href="#mbe9820739d" y="544.68"/>
      </g>
     </g>
    </g>
    <g id="xtick_11">
     <g id="line2d_19">
      <g>
       <use style="stroke:#000000;stroke-width:0.6;" x="264.075" xlink:href="#mbe9820739d" y="544.68"/>
      </g>
     </g>
    </g>
    <g id="xtick_12">
     <g id="line2d_20">
      <g>
       <use style="stroke:#000000;stroke-width:0.6;" x="300.1125" xlink:href="#mbe9820739d" y="544.68"/>
      </g>
     </g>
    </g>
    <g id="xtick_13">
     <g id="line2d_21">
      <g>
       <use style="stroke:#000000;stroke-width:0.6;" x="371.025" xlink:href="#mbe9820739d" y="544.68"/>
      </g>
     </g>
    </g>
    <g id="xtick_14">
     <g id="line2d_22">
      <g>
       <use style="stroke:#000000;stroke-width:0.6;" x="405.9" xlink:href="#mbe9820739d" y="544.68"/>
      </g>
     </g>
    </g>
    <g id="xtick_15">
     <g id="line2d_23">
      <g>
       <use style="stroke:#000000;stroke-width:0.6;" x="477.975" xlink:href="#mbe9820739d" y="544.68"/>
      </g>
     </g>
    </g>
    <g id="xtick_16">
     <g id="line2d_24">
      <g>
       <use style="stroke:#000000;stroke-width:0.6;" x="510.525" xlink:href="#mbe9820739d" y="544.68"/>
      </g>
     </g>
    </g>
    <g id="xtick_17">
     <g id="line2d_25">
      <g>
       <use style="stroke:#000000;stroke-width:0.6;" x="581.4375" xlink:href="#mbe9820739d" y="544.68"/>
      </g>
     </g>
    </g>
    <g id="xtick_18">
     <g id="line2d_26">
      <g>
       <use style="stroke:#000000;stroke-width:0.6;" x="617.475" xlink:href="#mbe9820739d" y="544.68"/>
      </g>
     </g>
    </g>
    <g id="xtick_19">
     <g id="line2d_27">
      <g>
       <use style="stroke:#000000;stroke-width:0.6;" x="688.3875" xlink:href="#mbe9820739d" y="544.68"/>
      </g>
     </g>
    </g>
    <g id="text_7">
     <!-- Date -->
     <g transform="translate(393.949219 584.154375)scale(0.1 -0.1)">
      <defs>
       <path d="M 1259 4147 
L 1259 519 
L 2022 519 
Q 2988 519 3436 956 
Q 3884 1394 3884 2338 
Q 3884 3275 3436 3711 
Q 2988 4147 2022 4147 
L 1259 4147 
z
M 628 4666 
L 1925 4666 
Q 3281 4666 3915 4102 
Q 4550 3538 4550 2338 
Q 4550 1131 3912 565 
Q 3275 0 1925 0 
L 628 0 
L 628 4666 
z
" id="DejaVuSans-44" transform="scale(0.015625)"/>
       <path d="M 3597 1894 
L 3597 1613 
L 953 1613 
Q 991 1019 1311 708 
Q 1631 397 2203 397 
Q 2534 397 2845 478 
Q 3156 559 3463 722 
L 3463 178 
Q 3153 47 2828 -22 
Q 2503 -91 2169 -91 
Q 1331 -91 842 396 
Q 353 884 353 1716 
Q 353 2575 817 3079 
Q 1281 3584 2069 3584 
Q 2775 3584 3186 3129 
Q 3597 2675 3597 1894 
z
M 3022 2063 
Q 3016 2534 2758 2815 
Q 2500 3097 2075 3097 
Q 1594 3097 1305 2825 
Q 1016 2553 972 2059 
L 3022 2063 
z
" id="DejaVuSans-65" transform="scale(0.015625)"/>
      </defs>
      <use xlink:href="#DejaVuSans-44"/>
      <use x="77.001953" xlink:href="#DejaVuSans-61"/>
      <use x="138.28125" xlink:href="#DejaVuSans-74"/>
      <use x="177.490234" xlink:href="#DejaVuSans-65"/>
     </g>
    </g>
   </g>
   <g id="matplotlib.axis_2">
    <g id="ytick_1">
     <g id="line2d_28">
      <path clip-path="url(#p68e2955192)" d="M 99 482.996401 
L 712.8 482.996401 
" style="fill:none;stroke:#b0b0b0;stroke-linecap:square;stroke-width:0.8;"/>
     </g>
     <g id="line2d_29">
      <defs>
       <path d="M 0 0 
L -3.5 0 
" id="me91a084207" style="stroke:#000000;stroke-width:0.8;"/>
      </defs>
      <g>
       <use style="stroke:#000000;stroke-width:0.8;" x="99" xlink:href="#me91a084207" y="482.996401"/>
      </g>
     </g>
     <g id="text_8">
      <!-- $\mathdefault{10^{0}}$ -->
      <g transform="translate(74.4 486.795619)scale(0.1 -0.1)">
       <use transform="translate(0 0.765625)" xlink:href="#DejaVuSans-31"/>
       <use transform="translate(63.623047 0.765625)" xlink:href="#DejaVuSans-30"/>
       <use transform="translate(128.203125 39.046875)scale(0.7)" xlink:href="#DejaVuSans-30"/>
      </g>
     </g>
    </g>
    <g id="ytick_2">
     <g id="line2d_30">
      <path clip-path="url(#p68e2955192)" d="M 99 349.243618 
L 712.8 349.243618 
" style="fill:none;stroke:#b0b0b0;stroke-linecap:square;stroke-width:0.8;"/>
     </g>
     <g id="line2d_31">
      <g>
       <use style="stroke:#000000;stroke-width:0.8;" x="99" xlink:href="#me91a084207" y="349.243618"/>
      </g>
     </g>
     <g id="text_9">
      <!-- $\mathdefault{10^{1}}$ -->
      <g transform="translate(74.4 353.042837)scale(0.1 -0.1)">
       <use transform="translate(0 0.684375)" xlink:href="#DejaVuSans-31"/>
       <use transform="translate(63.623047 0.684375)" xlink:href="#DejaVuSans-30"/>
       <use transform="translate(128.203125 38.965625)scale(0.7)" xlink:href="#DejaVuSans-31"/>
      </g>
     </g>
    </g>
    <g id="ytick_3">
     <g id="line2d_32">
      <path clip-path="url(#p68e2955192)" d="M 99 215.490836 
L 712.8 215.490836 
" style="fill:none;stroke:#b0b0b0;stroke-linecap:square;stroke-width:0.8;"/>
     </g>
     <g id="line2d_33">
      <g>
       <use style="stroke:#000000;stroke-width:0.8;" x="99" xlink:href="#me91a084207" y="215.490836"/>
      </g>
     </g>
     <g id="text_10">
      <!-- $\mathdefault{10^{2}}$ -->
      <g transform="translate(74.4 219.290055)scale(0.1 -0.1)">
       <use transform="translate(0 0.765625)" xlink:href="#DejaVuSans-31"/>
       <use transform="translate(63.623047 0.765625)" xlink:href="#DejaVuSans-30"/>
       <use transform="translate(128.203125 39.046875)scale(0.7)" xlink:href="#DejaVuSans-32"/>
      </g>
     </g>
    </g>
    <g id="ytick_4">
     <g id="line2d_34">
      <path clip-path="url(#p68e2955192)" d="M 99 81.738054 
L 712.8 81.738054 
" style="fill:none;stroke:#b0b0b0;stroke-linecap:square;stroke-width:0.8;"/>
     </g>
     <g id="line2d_35">
      <g>
       <use style="stroke:#000000;stroke-width:0.8;" x="99" xlink:href="#me91a084207" y="81.738054"/>
      </g>
     </g>
     <g id="text_11">
      <!-- $\mathdefault{10^{3}}$ -->
      <g transform="translate(74.4 85.537273)scale(0.1 -0.1)">
       <defs>
        <path d="M 2597 2516 
Q 3050 2419 3304 2112 
Q 3559 1806 3559 1356 
Q 3559 666 3084 287 
Q 2609 -91 1734 -91 
Q 1441 -91 1130 -33 
Q 819 25 488 141 
L 488 750 
Q 750 597 1062 519 
Q 1375 441 1716 441 
Q 2309 441 2620 675 
Q 2931 909 2931 1356 
Q 2931 1769 2642 2001 
Q 2353 2234 1838 2234 
L 1294 2234 
L 1294 2753 
L 1863 2753 
Q 2328 2753 2575 2939 
Q 2822 3125 2822 3475 
Q 2822 3834 2567 4026 
Q 2313 4219 1838 4219 
Q 1578 4219 1281 4162 
Q 984 4106 628 3988 
L 628 4550 
Q 988 4650 1302 4700 
Q 1616 4750 1894 4750 
Q 2613 4750 3031 4423 
Q 3450 4097 3450 3541 
Q 3450 3153 3228 2886 
Q 3006 2619 2597 2516 
z
" id="DejaVuSans-33" transform="scale(0.015625)"/>
       </defs>
       <use transform="translate(0 0.765625)" xlink:href="#DejaVuSans-31"/>
       <use transform="translate(63.623047 0.765625)" xlink:href="#DejaVuSans-30"/>
       <use transform="translate(128.203125 39.046875)scale(0.7)" xlink:href="#DejaVuSans-33"/>
      </g>
     </g>
    </g>
    <g id="ytick_5">
     <g id="line2d_36">
      <path clip-path="url(#p68e2955192)" d="M 99 536.221984 
L 712.8 536.221984 
" style="fill:none;stroke:#b0b0b0;stroke-linecap:square;stroke-width:0.8;"/>
     </g>
     <g id="line2d_37">
      <defs>
       <path d="M 0 0 
L -2 0 
" id="m0cb60b688e" style="stroke:#000000;stroke-width:0.6;"/>
      </defs>
      <g>
       <use style="stroke:#000000;stroke-width:0.6;" x="99" xlink:href="#m0cb60b688e" y="536.221984"/>
      </g>
     </g>
    </g>
    <g id="ytick_6">
     <g id="line2d_38">
      <path clip-path="url(#p68e2955192)" d="M 99 523.26 
L 712.8 523.26 
" style="fill:none;stroke:#b0b0b0;stroke-linecap:square;stroke-width:0.8;"/>
     </g>
     <g id="line2d_39">
      <g>
       <use style="stroke:#000000;stroke-width:0.6;" x="99" xlink:href="#m0cb60b688e" y="523.26"/>
      </g>
     </g>
    </g>
    <g id="ytick_7">
     <g id="line2d_40">
      <path clip-path="url(#p68e2955192)" d="M 99 512.669288 
L 712.8 512.669288 
" style="fill:none;stroke:#b0b0b0;stroke-linecap:square;stroke-width:0.8;"/>
     </g>
     <g id="line2d_41">
      <g>
       <use style="stroke:#000000;stroke-width:0.6;" x="99" xlink:href="#m0cb60b688e" y="512.669288"/>
      </g>
     </g>
    </g>
    <g id="ytick_8">
     <g id="line2d_42">
      <path clip-path="url(#p68e2955192)" d="M 99 503.714969 
L 712.8 503.714969 
" style="fill:none;stroke:#b0b0b0;stroke-linecap:square;stroke-width:0.8;"/>
     </g>
     <g id="line2d_43">
      <g>
       <use style="stroke:#000000;stroke-width:0.6;" x="99" xlink:href="#m0cb60b688e" y="503.714969"/>
      </g>
     </g>
    </g>
    <g id="ytick_9">
     <g id="line2d_44">
      <path clip-path="url(#p68e2955192)" d="M 99 495.958384 
L 712.8 495.958384 
" style="fill:none;stroke:#b0b0b0;stroke-linecap:square;stroke-width:0.8;"/>
     </g>
     <g id="line2d_45">
      <g>
       <use style="stroke:#000000;stroke-width:0.6;" x="99" xlink:href="#m0cb60b688e" y="495.958384"/>
      </g>
     </g>
    </g>
    <g id="ytick_10">
     <g id="line2d_46">
      <path clip-path="url(#p68e2955192)" d="M 99 489.116592 
L 712.8 489.116592 
" style="fill:none;stroke:#b0b0b0;stroke-linecap:square;stroke-width:0.8;"/>
     </g>
     <g id="line2d_47">
      <g>
       <use style="stroke:#000000;stroke-width:0.6;" x="99" xlink:href="#m0cb60b688e" y="489.116592"/>
      </g>
     </g>
    </g>
    <g id="ytick_11">
     <g id="line2d_48">
      <path clip-path="url(#p68e2955192)" d="M 99 442.732801 
L 712.8 442.732801 
" style="fill:none;stroke:#b0b0b0;stroke-linecap:square;stroke-width:0.8;"/>
     </g>
     <g id="line2d_49">
      <g>
       <use style="stroke:#000000;stroke-width:0.6;" x="99" xlink:href="#m0cb60b688e" y="442.732801"/>
      </g>
     </g>
    </g>
    <g id="ytick_12">
     <g id="line2d_50">
      <path clip-path="url(#p68e2955192)" d="M 99 419.180105 
L 712.8 419.180105 
" style="fill:none;stroke:#b0b0b0;stroke-linecap:square;stroke-width:0.8;"/>
     </g>
     <g id="line2d_51">
      <g>
       <use style="stroke:#000000;stroke-width:0.6;" x="99" xlink:href="#m0cb60b688e" y="419.180105"/>
      </g>
     </g>
    </g>
    <g id="ytick_13">
     <g id="line2d_52">
      <path clip-path="url(#p68e2955192)" d="M 99 402.469202 
L 712.8 402.469202 
" style="fill:none;stroke:#b0b0b0;stroke-linecap:square;stroke-width:0.8;"/>
     </g>
     <g id="line2d_53">
      <g>
       <use style="stroke:#000000;stroke-width:0.6;" x="99" xlink:href="#m0cb60b688e" y="402.469202"/>
      </g>
     </g>
    </g>
    <g id="ytick_14">
     <g id="line2d_54">
      <path clip-path="url(#p68e2955192)" d="M 99 389.507218 
L 712.8 389.507218 
" style="fill:none;stroke:#b0b0b0;stroke-linecap:square;stroke-width:0.8;"/>
     </g>
     <g id="line2d_55">
      <g>
       <use style="stroke:#000000;stroke-width:0.6;" x="99" xlink:href="#m0cb60b688e" y="389.507218"/>
      </g>
     </g>
    </g>
    <g id="ytick_15">
     <g id="line2d_56">
      <path clip-path="url(#p68e2955192)" d="M 99 378.916506 
L 712.8 378.916506 
" style="fill:none;stroke:#b0b0b0;stroke-linecap:square;stroke-width:0.8;"/>
     </g>
     <g id="line2d_57">
      <g>
       <use style="stroke:#000000;stroke-width:0.6;" x="99" xlink:href="#m0cb60b688e" y="378.916506"/>
      </g>
     </g>
    </g>
    <g id="ytick_16">
     <g id="line2d_58">
      <path clip-path="url(#p68e2955192)" d="M 99 369.962186 
L 712.8 369.962186 
" style="fill:none;stroke:#b0b0b0;stroke-linecap:square;stroke-width:0.8;"/>
     </g>
     <g id="line2d_59">
      <g>
       <use style="stroke:#000000;stroke-width:0.6;" x="99" xlink:href="#m0cb60b688e" y="369.962186"/>
      </g>
     </g>
    </g>
    <g id="ytick_17">
     <g id="line2d_60">
      <path clip-path="url(#p68e2955192)" d="M 99 362.205602 
L 712.8 362.205602 
" style="fill:none;stroke:#b0b0b0;stroke-linecap:square;stroke-width:0.8;"/>
     </g>
     <g id="line2d_61">
      <g>
       <use style="stroke:#000000;stroke-width:0.6;" x="99" xlink:href="#m0cb60b688e" y="362.205602"/>
      </g>
     </g>
    </g>
    <g id="ytick_18">
     <g id="line2d_62">
      <path clip-path="url(#p68e2955192)" d="M 99 355.36381 
L 712.8 355.36381 
" style="fill:none;stroke:#b0b0b0;stroke-linecap:square;stroke-width:0.8;"/>
     </g>
     <g id="line2d_63">
      <g>
       <use style="stroke:#000000;stroke-width:0.6;" x="99" xlink:href="#m0cb60b688e" y="355.36381"/>
      </g>
     </g>
    </g>
    <g id="ytick_19">
     <g id="line2d_64">
      <path clip-path="url(#p68e2955192)" d="M 99 308.980019 
L 712.8 308.980019 
" style="fill:none;stroke:#b0b0b0;stroke-linecap:square;stroke-width:0.8;"/>
     </g>
     <g id="line2d_65">
      <g>
       <use style="stroke:#000000;stroke-width:0.6;" x="99" xlink:href="#m0cb60b688e" y="308.980019"/>
      </g>
     </g>
    </g>
    <g id="ytick_20">
     <g id="line2d_66">
      <path clip-path="url(#p68e2955192)" d="M 99 285.427323 
L 712.8 285.427323 
" style="fill:none;stroke:#b0b0b0;stroke-linecap:square;stroke-width:0.8;"/>
     </g>
     <g id="line2d_67">
      <g>
       <use style="stroke:#000000;stroke-width:0.6;" x="99" xlink:href="#m0cb60b688e" y="285.427323"/>
      </g>
     </g>
    </g>
    <g id="ytick_21">
     <g id="line2d_68">
      <path clip-path="url(#p68e2955192)" d="M 99 268.716419 
L 712.8 268.716419 
" style="fill:none;stroke:#b0b0b0;stroke-linecap:square;stroke-width:0.8;"/>
     </g>
     <g id="line2d_69">
      <g>
       <use style="stroke:#000000;stroke-width:0.6;" x="99" xlink:href="#m0cb60b688e" y="268.716419"/>
      </g>
     </g>
    </g>
    <g id="ytick_22">
     <g id="line2d_70">
      <path clip-path="url(#p68e2955192)" d="M 99 255.754436 
L 712.8 255.754436 
" style="fill:none;stroke:#b0b0b0;stroke-linecap:square;stroke-width:0.8;"/>
     </g>
     <g id="line2d_71">
      <g>
       <use style="stroke:#000000;stroke-width:0.6;" x="99" xlink:href="#m0cb60b688e" y="255.754436"/>
      </g>
     </g>
    </g>
    <g id="ytick_23">
     <g id="line2d_72">
      <path clip-path="url(#p68e2955192)" d="M 99 245.163724 
L 712.8 245.163724 
" style="fill:none;stroke:#b0b0b0;stroke-linecap:square;stroke-width:0.8;"/>
     </g>
     <g id="line2d_73">
      <g>
       <use style="stroke:#000000;stroke-width:0.6;" x="99" xlink:href="#m0cb60b688e" y="245.163724"/>
      </g>
     </g>
    </g>
    <g id="ytick_24">
     <g id="line2d_74">
      <path clip-path="url(#p68e2955192)" d="M 99 236.209404 
L 712.8 236.209404 
" style="fill:none;stroke:#b0b0b0;stroke-linecap:square;stroke-width:0.8;"/>
     </g>
     <g id="line2d_75">
      <g>
       <use style="stroke:#000000;stroke-width:0.6;" x="99" xlink:href="#m0cb60b688e" y="236.209404"/>
      </g>
     </g>
    </g>
    <g id="ytick_25">
     <g id="line2d_76">
      <path clip-path="url(#p68e2955192)" d="M 99 228.45282 
L 712.8 228.45282 
" style="fill:none;stroke:#b0b0b0;stroke-linecap:square;stroke-width:0.8;"/>
     </g>
     <g id="line2d_77">
      <g>
       <use style="stroke:#000000;stroke-width:0.6;" x="99" xlink:href="#m0cb60b688e" y="228.45282"/>
      </g>
     </g>
    </g>
    <g id="ytick_26">
     <g id="line2d_78">
      <path clip-path="url(#p68e2955192)" d="M 99 221.611028 
L 712.8 221.611028 
" style="fill:none;stroke:#b0b0b0;stroke-linecap:square;stroke-width:0.8;"/>
     </g>
     <g id="line2d_79">
      <g>
       <use style="stroke:#000000;stroke-width:0.6;" x="99" xlink:href="#m0cb60b688e" y="221.611028"/>
      </g>
     </g>
    </g>
    <g id="ytick_27">
     <g id="line2d_80">
      <path clip-path="url(#p68e2955192)" d="M 99 175.227237 
L 712.8 175.227237 
" style="fill:none;stroke:#b0b0b0;stroke-linecap:square;stroke-width:0.8;"/>
     </g>
     <g id="line2d_81">
      <g>
       <use style="stroke:#000000;stroke-width:0.6;" x="99" xlink:href="#m0cb60b688e" y="175.227237"/>
      </g>
     </g>
    </g>
    <g id="ytick_28">
     <g id="line2d_82">
      <path clip-path="url(#p68e2955192)" d="M 99 151.674541 
L 712.8 151.674541 
" style="fill:none;stroke:#b0b0b0;stroke-linecap:square;stroke-width:0.8;"/>
     </g>
     <g id="line2d_83">
      <g>
       <use style="stroke:#000000;stroke-width:0.6;" x="99" xlink:href="#m0cb60b688e" y="151.674541"/>
      </g>
     </g>
    </g>
    <g id="ytick_29">
     <g id="line2d_84">
      <path clip-path="url(#p68e2955192)" d="M 99 134.963637 
L 712.8 134.963637 
" style="fill:none;stroke:#b0b0b0;stroke-linecap:square;stroke-width:0.8;"/>
     </g>
     <g id="line2d_85">
      <g>
       <use style="stroke:#000000;stroke-width:0.6;" x="99" xlink:href="#m0cb60b688e" y="134.963637"/>
      </g>
     </g>
    </g>
    <g id="ytick_30">
     <g id="line2d_86">
      <path clip-path="url(#p68e2955192)" d="M 99 122.001653 
L 712.8 122.001653 
" style="fill:none;stroke:#b0b0b0;stroke-linecap:square;stroke-width:0.8;"/>
     </g>
     <g id="line2d_87">
      <g>
       <use style="stroke:#000000;stroke-width:0.6;" x="99" xlink:href="#m0cb60b688e" y="122.001653"/>
      </g>
     </g>
    </g>
    <g id="ytick_31">
     <g id="line2d_88">
      <path clip-path="url(#p68e2955192)" d="M 99 111.410941 
L 712.8 111.410941 
" style="fill:none;stroke:#b0b0b0;stroke-linecap:square;stroke-width:0.8;"/>
     </g>
     <g id="line2d_89">
      <g>
       <use style="stroke:#000000;stroke-width:0.6;" x="99" xlink:href="#m0cb60b688e" y="111.410941"/>
      </g>
     </g>
    </g>
    <g id="ytick_32">
     <g id="line2d_90">
      <path clip-path="url(#p68e2955192)" d="M 99 102.456622 
L 712.8 102.456622 
" style="fill:none;stroke:#b0b0b0;stroke-linecap:square;stroke-width:0.8;"/>
     </g>
     <g id="line2d_91">
      <g>
       <use style="stroke:#000000;stroke-width:0.6;" x="99" xlink:href="#m0cb60b688e" y="102.456622"/>
      </g>
     </g>
    </g>
    <g id="ytick_33">
     <g id="line2d_92">
      <path clip-path="url(#p68e2955192)" d="M 99 94.700038 
L 712.8 94.700038 
" style="fill:none;stroke:#b0b0b0;stroke-linecap:square;stroke-width:0.8;"/>
     </g>
     <g id="line2d_93">
      <g>
       <use style="stroke:#000000;stroke-width:0.6;" x="99" xlink:href="#m0cb60b688e" y="94.700038"/>
      </g>
     </g>
    </g>
    <g id="ytick_34">
     <g id="line2d_94">
      <path clip-path="url(#p68e2955192)" d="M 99 87.858245 
L 712.8 87.858245 
" style="fill:none;stroke:#b0b0b0;stroke-linecap:square;stroke-width:0.8;"/>
     </g>
     <g id="line2d_95">
      <g>
       <use style="stroke:#000000;stroke-width:0.6;" x="99" xlink:href="#m0cb60b688e" y="87.858245"/>
      </g>
     </g>
    </g>
   </g>
   <g id="line2d_96">
    <path clip-path="url(#p68e2955192)" d="M 114.110908 613 
L 114.1125 429.770817 
L 115.275 419.180105 
L 116.4375 419.180105 
L 118.7625 374.266977 
L 119.925 374.266977 
L 121.0875 358.684033 
L 122.25 349.243618 
L 124.575 349.243618 
L 125.7375 343.707231 
L 126.9 336.281634 
L 128.0625 343.707231 
L 129.225 336.281634 
L 131.55 336.281634 
L 132.7125 341.125113 
L 133.875 343.707231 
L 136.2 343.707231 
L 137.3625 346.409491 
L 139.6875 346.409491 
L 140.85 349.243618 
L 142.0125 355.36381 
L 143.175 358.684033 
L 144.3375 358.684033 
L 145.5 362.205602 
L 146.6625 362.205602 
L 147.825 365.954522 
L 148.9875 374.266977 
L 150.15 383.970831 
L 151.3125 389.507218 
L 153.6375 389.507218 
L 154.8 395.627409 
L 155.9625 402.469202 
L 157.125 402.469202 
L 158.2875 419.180105 
L 159.45 429.770817 
L 160.6125 429.770817 
L 161.775 442.732801 
L 164.1 442.732801 
L 165.2625 429.770817 
L 167.5875 429.770817 
L 168.75 442.732801 
L 169.9125 442.732801 
L 171.075 459.443705 
L 172.2375 442.732801 
L 173.4 459.443705 
L 174.5625 442.732801 
L 175.725 442.732801 
L 176.8875 429.770817 
L 178.05 429.770817 
L 179.2125 419.180105 
L 180.375 429.770817 
L 181.5375 442.732801 
L 182.7 429.770817 
L 183.8625 429.770817 
L 185.025 419.180105 
L 192 419.180105 
L 193.1625 410.225786 
L 194.325 395.627409 
L 196.65 383.970831 
L 197.8125 374.266977 
L 198.975 349.243618 
L 200.1375 343.707231 
L 201.3 331.811114 
L 202.4625 331.811114 
L 203.625 320.154536 
L 204.7875 311.959549 
L 205.95 308.980019 
L 207.1125 304.779049 
L 208.275 308.980019 
L 209.4375 308.980019 
L 210.6 311.959549 
L 211.7625 307.545672 
L 212.925 311.959549 
L 214.0875 311.959549 
L 215.25 307.545672 
L 217.575 307.545672 
L 218.7375 303.443632 
L 219.9 304.779049 
L 221.0625 304.779049 
L 222.225 302.138227 
L 223.3875 302.138227 
L 224.55 297.191572 
L 228.0375 293.739778 
L 229.2 289.434988 
L 230.3625 282.593195 
L 231.525 277.308818 
L 233.85 277.308818 
L 235.0125 280.777795 
L 236.175 272.465339 
L 237.3375 272.465339 
L 238.5 262.523663 
L 239.6625 258.125707 
L 240.825 256.927972 
L 241.9875 256.33824 
L 244.3125 250.748537 
L 245.475 248.655046 
L 246.6375 250.748537 
L 247.8 249.171388 
L 248.9625 245.649819 
L 251.2875 234.171016 
L 252.45 232.20174 
L 257.1 232.20174 
L 258.2625 224.931251 
L 259.425 216.074641 
L 260.5875 216.074641 
L 261.75 211.289867 
L 262.9125 207.879654 
L 264.075 206.123077 
L 265.2375 206.123077 
L 267.5625 209.691011 
L 271.05 209.691011 
L 272.2125 216.664373 
L 273.375 217.862108 
L 274.5375 222.587321 
L 275.7 226.665353 
L 276.8625 233.771784 
L 281.5125 233.771784 
L 282.675 239.627337 
L 283.8375 239.188934 
L 285 237.467679 
L 286.1625 230.297041 
L 287.325 229.923483 
L 288.4875 229.923483 
L 289.65 235.795964 
L 296.625 235.795964 
L 297.7875 236.209404 
L 300.1125 236.209404 
L 301.275 235.795964 
L 302.4375 235.795964 
L 303.6 235.385446 
L 304.7625 235.385446 
L 305.925 231.051443 
L 309.4125 231.051443 
L 310.575 228.090899 
L 314.0625 228.090899 
L 315.225 226.314366 
L 319.875 226.314366 
L 321.0375 227.731219 
L 329.175 227.731219 
L 330.3375 222.916433 
L 331.5 216.664373 
L 332.6625 211.020316 
L 333.825 211.020316 
L 334.9875 208.391447 
L 336.15 208.391447 
L 337.3125 206.619559 
L 338.475 205.876418 
L 340.8 202.296963 
L 341.9625 201.6068 
L 343.125 201.6068 
L 344.2875 200.474442 
L 345.45 198.925334 
L 346.6125 195.945805 
L 347.775 193.508184 
L 348.9375 191.552171 
L 350.1 191.552171 
L 351.2625 188.18922 
L 352.425 183.819635 
L 353.5875 179.913081 
L 354.75 178.667176 
L 355.9125 178.667176 
L 357.075 175.082198 
L 358.2375 173.228923 
L 359.4 172.254968 
L 360.5625 171.705668 
L 362.8875 171.705668 
L 365.2125 168.127847 
L 366.375 167.235148 
L 367.5375 161.3432 
L 368.7 149.303269 
L 369.8625 142.554492 
L 372.1875 142.306781 
L 373.35 141.245409 
L 374.5125 139.807116 
L 375.675 139.807116 
L 376.8375 138.326588 
L 378 137.259323 
L 379.1625 137.259323 
L 380.325 136.658147 
L 381.4875 134.818598 
L 383.8125 127.034859 
L 384.975 124.92007 
L 386.1375 123.531925 
L 387.3 121.19406 
L 388.4625 119.556076 
L 389.625 118.891572 
L 390.7875 117.800684 
L 394.275 117.800684 
L 395.4375 116.729905 
L 396.6 116.729905 
L 397.7625 114.902264 
L 398.925 113.380218 
L 403.575 113.380218 
L 404.7375 114.697005 
L 405.9 116.25442 
L 407.0625 114.697005 
L 408.225 111.556343 
L 409.3875 107.480779 
L 410.55 107.480779 
L 411.7125 105.044398 
L 414.0375 105.044398 
L 415.2 107.480779 
L 416.3625 106.627518 
L 417.525 108.438673 
L 418.6875 109.319164 
L 419.85 108.438673 
L 422.175 108.438673 
L 423.3375 109.600009 
L 425.6625 113.380218 
L 426.825 116.836099 
L 427.9875 120.68076 
L 429.15 121.251374 
L 430.3125 126.030067 
L 432.6375 134.098786 
L 433.8 139.17913 
L 434.9625 140.123673 
L 436.125 142.969705 
L 437.2875 148.289811 
L 440.775 148.289811 
L 441.9375 154.247858 
L 443.1 154.247858 
L 444.2625 151.96571 
L 445.425 151.96571 
L 446.5875 154.552251 
L 447.75 154.552251 
L 450.075 149.303269 
L 451.2375 150.240194 
L 452.4 150.524244 
L 454.725 150.524244 
L 455.8875 153.643817 
L 457.05 153.643817 
L 458.2125 151.771435 
L 459.375 153.643817 
L 460.5375 155.063143 
L 462.8625 155.063143 
L 464.025 158.118344 
L 465.1875 167.74358 
L 466.35 167.74358 
L 467.5125 168.514673 
L 468.675 177.447434 
L 471 177.447434 
L 472.1625 180.865367 
L 473.325 180.865367 
L 474.4875 181.347428 
L 475.65 183.651507 
L 476.8125 186.578045 
L 479.1375 186.578045 
L 480.3 184.497055 
L 482.625 184.497055 
L 484.95 195.945805 
L 486.1125 187.288612 
L 487.275 187.288612 
L 488.4375 186.932242 
L 489.6 192.914434 
L 490.7625 192.914434 
L 491.925 195.326743 
L 493.0875 195.738717 
L 494.25 195.738717 
L 495.4125 190.598322 
L 496.575 196.992465 
L 502.3875 196.992465 
L 503.55 214.340539 
L 504.7125 214.340539 
L 505.875 211.83275 
L 507.0375 226.314366 
L 509.3625 226.314366 
L 510.525 193.907417 
L 511.6875 199.144122 
L 512.85 185.876066 
L 514.0125 191.552171 
L 515.175 192.717858 
L 526.8 192.717858 
L 527.9625 201.378555 
L 530.2875 201.378555 
L 531.45 212.656708 
L 534.9375 212.656708 
L 536.1 200.474442 
L 537.2625 199.805474 
L 538.425 201.6068 
L 539.5875 191.552171 
L 541.9125 191.552171 
L 543.075 202.528852 
L 544.2375 191.552171 
L 545.4 191.552171 
L 546.5625 189.846363 
L 547.725 184.326958 
L 551.2125 184.326958 
L 552.375 189.846363 
L 553.5375 189.846363 
L 554.7 182.983821 
L 555.8625 180.387273 
L 558.1875 180.387273 
L 559.35 172.254968 
L 560.5125 180.387273 
L 561.675 175.082198 
L 562.8375 176.400773 
L 564 177.901841 
L 570.975 177.901841 
L 572.1375 184.157358 
L 575.625 184.157358 
L 576.7875 185.182468 
L 577.95 185.701888 
L 579.1125 188.919898 
L 580.275 194.309412 
L 586.0875 194.309412 
L 587.25 196.571535 
L 588.4125 201.835944 
L 591.9 201.835944 
L 593.0625 212.106106 
L 594.225 219.08506 
L 595.3875 221.611028 
L 600.0375 221.611028 
L 601.2 225.618692 
L 602.3625 225.618692 
L 603.525 229.552312 
L 604.6875 234.977808 
L 609.3375 234.977808 
L 611.6625 244.203568 
L 612.825 251.283915 
L 615.15 251.283915 
L 616.3125 258.125707 
L 617.475 258.125707 
L 618.6375 265.194851 
L 624.45 265.194851 
L 625.6125 270.936617 
L 626.775 270.936617 
L 627.9375 315.100211 
L 631.425 315.100211 
L 632.5875 263.843904 
L 633.75 315.100211 
L 634.9125 294.867738 
L 634.915261 613 
M 690.70886 613 
L 690.7125 193.309592 
L 691.875 193.309592 
L 693.0375 148.748283 
L 694.2 149.303269 
L 700.0125 149.303269 
L 701.175 145.264632 
L 702.3375 145.612466 
L 705.825 145.612466 
L 706.9875 145.091493 
L 708.15 141.978135 
L 709.3125 141.978135 
L 710.475 136.658147 
L 712.8 136.658147 
L 712.8 136.658147 
" style="fill:none;stroke:#1f77b4;stroke-linecap:square;stroke-width:1.5;"/>
   </g>
   <g id="line2d_97">
    <path clip-path="url(#p68e2955192)" d="M 266.39922 613 
L 266.4 523.26 
L 267.5625 523.26 
L 267.56328 613 
M 291.97422 613 
L 291.975 523.26 
L 295.4625 523.26 
L 295.46328 613 
M 302.43672 613 
L 302.4375 523.26 
L 302.43828 613 
M 371.02422 613 
L 371.025 523.26 
L 372.1875 482.996401 
L 373.35 482.996401 
L 374.5125 523.26 
L 382.65 523.26 
L 382.65078 613 
M 395.43672 613 
L 395.4375 523.26 
L 397.7625 523.26 
L 397.76328 613 
M 400.08672 613 
L 400.0875 523.26 
L 400.08828 613 
M 409.38672 613 
L 409.3875 523.26 
L 410.55 482.996401 
L 411.7125 523.26 
L 412.875 482.996401 
L 414.0375 523.26 
L 415.2 482.996401 
L 416.3625 482.996401 
L 417.525 459.443705 
L 418.6875 442.732801 
L 421.0125 442.732801 
L 422.175 419.180105 
L 423.3375 419.180105 
L 424.5 429.770817 
L 425.6625 442.732801 
L 427.9875 442.732801 
L 429.15 459.443705 
L 430.3125 442.732801 
L 432.6375 442.732801 
L 433.8 459.443705 
L 434.9625 482.996401 
L 444.2625 482.996401 
L 445.425 459.443705 
L 446.5875 482.996401 
L 460.5375 482.996401 
L 461.7 523.26 
L 462.8625 482.996401 
L 473.325 482.996401 
L 474.4875 523.26 
L 479.1375 523.26 
L 479.13828 613 
M 698.84922 613 
L 698.85 523.26 
L 698.85078 613 
M 701.17422 613 
L 701.175 523.26 
L 701.17578 613 
" style="fill:none;stroke:#ff7f0e;stroke-linecap:square;stroke-width:1.5;"/>
   </g>
   <g id="patch_3">
    <path d="M 99 544.68 
L 99 73.44 
" style="fill:none;stroke:#000000;stroke-linecap:square;stroke-linejoin:miter;stroke-width:0.8;"/>
   </g>
   <g id="patch_4">
    <path d="M 712.8 544.68 
L 712.8 73.44 
" style="fill:none;stroke:#000000;stroke-linecap:square;stroke-linejoin:miter;stroke-width:0.8;"/>
   </g>
   <g id="patch_5">
    <path d="M 99 544.68 
L 712.8 544.68 
" style="fill:none;stroke:#000000;stroke-linecap:square;stroke-linejoin:miter;stroke-width:0.8;"/>
   </g>
   <g id="patch_6">
    <path d="M 99 73.44 
L 712.8 73.44 
" style="fill:none;stroke:#000000;stroke-linecap:square;stroke-linejoin:miter;stroke-width:0.8;"/>
   </g>
   <g id="legend_1">
    <g id="patch_7">
     <path d="M 616.653125 110.79625 
L 705.8 110.79625 
Q 707.8 110.79625 707.8 108.79625 
L 707.8 80.44 
Q 707.8 78.44 705.8 78.44 
L 616.653125 78.44 
Q 614.653125 78.44 614.653125 80.44 
L 614.653125 108.79625 
Q 614.653125 110.79625 616.653125 110.79625 
z
" style="fill:#ffffff;opacity:0.8;stroke:#cccccc;stroke-linejoin:miter;"/>
    </g>
    <g id="line2d_98">
     <path d="M 618.653125 86.538437 
L 638.653125 86.538437 
" style="fill:none;stroke:#1f77b4;stroke-linecap:square;stroke-width:1.5;"/>
    </g>
    <g id="line2d_99"/>
    <g id="text_12">
     <!-- Avg Cases -->
     <g transform="translate(646.653125 90.038437)scale(0.1 -0.1)">
      <defs>
       <path d="M 191 3500 
L 800 3500 
L 1894 563 
L 2988 3500 
L 3597 3500 
L 2284 0 
L 1503 0 
L 191 3500 
z
" id="DejaVuSans-76" transform="scale(0.015625)"/>
       <path d="M 2906 1791 
Q 2906 2416 2648 2759 
Q 2391 3103 1925 3103 
Q 1463 3103 1205 2759 
Q 947 2416 947 1791 
Q 947 1169 1205 825 
Q 1463 481 1925 481 
Q 2391 481 2648 825 
Q 2906 1169 2906 1791 
z
M 3481 434 
Q 3481 -459 3084 -895 
Q 2688 -1331 1869 -1331 
Q 1566 -1331 1297 -1286 
Q 1028 -1241 775 -1147 
L 775 -588 
Q 1028 -725 1275 -790 
Q 1522 -856 1778 -856 
Q 2344 -856 2625 -561 
Q 2906 -266 2906 331 
L 2906 616 
Q 2728 306 2450 153 
Q 2172 0 1784 0 
Q 1141 0 747 490 
Q 353 981 353 1791 
Q 353 2603 747 3093 
Q 1141 3584 1784 3584 
Q 2172 3584 2450 3431 
Q 2728 3278 2906 2969 
L 2906 3500 
L 3481 3500 
L 3481 434 
z
" id="DejaVuSans-67" transform="scale(0.015625)"/>
       <path id="DejaVuSans-20" transform="scale(0.015625)"/>
       <path d="M 4122 4306 
L 4122 3641 
Q 3803 3938 3442 4084 
Q 3081 4231 2675 4231 
Q 1875 4231 1450 3742 
Q 1025 3253 1025 2328 
Q 1025 1406 1450 917 
Q 1875 428 2675 428 
Q 3081 428 3442 575 
Q 3803 722 4122 1019 
L 4122 359 
Q 3791 134 3420 21 
Q 3050 -91 2638 -91 
Q 1578 -91 968 557 
Q 359 1206 359 2328 
Q 359 3453 968 4101 
Q 1578 4750 2638 4750 
Q 3056 4750 3426 4639 
Q 3797 4528 4122 4306 
z
" id="DejaVuSans-43" transform="scale(0.015625)"/>
       <path d="M 2834 3397 
L 2834 2853 
Q 2591 2978 2328 3040 
Q 2066 3103 1784 3103 
Q 1356 3103 1142 2972 
Q 928 2841 928 2578 
Q 928 2378 1081 2264 
Q 1234 2150 1697 2047 
L 1894 2003 
Q 2506 1872 2764 1633 
Q 3022 1394 3022 966 
Q 3022 478 2636 193 
Q 2250 -91 1575 -91 
Q 1294 -91 989 -36 
Q 684 19 347 128 
L 347 722 
Q 666 556 975 473 
Q 1284 391 1588 391 
Q 1994 391 2212 530 
Q 2431 669 2431 922 
Q 2431 1156 2273 1281 
Q 2116 1406 1581 1522 
L 1381 1569 
Q 847 1681 609 1914 
Q 372 2147 372 2553 
Q 372 3047 722 3315 
Q 1072 3584 1716 3584 
Q 2034 3584 2315 3537 
Q 2597 3491 2834 3397 
z
" id="DejaVuSans-73" transform="scale(0.015625)"/>
      </defs>
      <use xlink:href="#DejaVuSans-41"/>
      <use x="62.533203" xlink:href="#DejaVuSans-76"/>
      <use x="121.712891" xlink:href="#DejaVuSans-67"/>
      <use x="185.189453" xlink:href="#DejaVuSans-20"/>
      <use x="216.976562" xlink:href="#DejaVuSans-43"/>
      <use x="286.800781" xlink:href="#DejaVuSans-61"/>
      <use x="348.080078" xlink:href="#DejaVuSans-73"/>
      <use x="400.179688" xlink:href="#DejaVuSans-65"/>
      <use x="461.703125" xlink:href="#DejaVuSans-73"/>
     </g>
    </g>
    <g id="line2d_100">
     <path d="M 618.653125 101.216562 
L 638.653125 101.216562 
" style="fill:none;stroke:#ff7f0e;stroke-linecap:square;stroke-width:1.5;"/>
    </g>
    <g id="line2d_101"/>
    <g id="text_13">
     <!-- Avg Deaths -->
     <g transform="translate(646.653125 104.716562)scale(0.1 -0.1)">
      <defs>
       <path d="M 3513 2113 
L 3513 0 
L 2938 0 
L 2938 2094 
Q 2938 2591 2744 2837 
Q 2550 3084 2163 3084 
Q 1697 3084 1428 2787 
Q 1159 2491 1159 1978 
L 1159 0 
L 581 0 
L 581 4863 
L 1159 4863 
L 1159 2956 
Q 1366 3272 1645 3428 
Q 1925 3584 2291 3584 
Q 2894 3584 3203 3211 
Q 3513 2838 3513 2113 
z
" id="DejaVuSans-68" transform="scale(0.015625)"/>
      </defs>
      <use xlink:href="#DejaVuSans-41"/>
      <use x="62.533203" xlink:href="#DejaVuSans-76"/>
      <use x="121.712891" xlink:href="#DejaVuSans-67"/>
      <use x="185.189453" xlink:href="#DejaVuSans-20"/>
      <use x="216.976562" xlink:href="#DejaVuSans-44"/>
      <use x="293.978516" xlink:href="#DejaVuSans-65"/>
      <use x="355.501953" xlink:href="#DejaVuSans-61"/>
      <use x="416.78125" xlink:href="#DejaVuSans-74"/>
      <use x="455.990234" xlink:href="#DejaVuSans-68"/>
      <use x="519.369141" xlink:href="#DejaVuSans-73"/>
     </g>
    </g>
   </g>
  </g>
 </g>
 <defs>
  <clipPath id="p68e2955192">
   <rect height="471.24" width="613.8" x="99" y="73.44"/>
  </clipPath>
 </defs>
</svg>
