<?xml version="1.0" encoding="utf-8" standalone="no"?>
<!DOCTYPE svg PUBLIC "-//W3C//DTD SVG 1.1//EN"
  "http://www.w3.org/Graphics/SVG/1.1/DTD/svg11.dtd">
<svg height="612pt" version="1.1" viewBox="0 0 792 612" width="792pt" xmlns="http://www.w3.org/2000/svg" xmlns:xlink="http://www.w3.org/1999/xlink">
 <metadata>
  <rdf:RDF xmlns:cc="http://creativecommons.org/ns#" xmlns:dc="http://purl.org/dc/elements/1.1/" xmlns:rdf="http://www.w3.org/1999/02/22-rdf-syntax-ns#">
   <cc:Work>
    <dc:type rdf:resource="http://purl.org/dc/dcmitype/StillImage"/>
    <dc:format>image/svg+xml</dc:format>
    <dc:creator>
     <cc:Agent>
      <dc:title>Matplotlib v3.4.2, https://matplotlib.org/</dc:title>
     </cc:Agent>
    </dc:creator>
   </cc:Work>
  </rdf:RDF>
 </metadata>
 <defs>
  <style type="text/css">*{stroke-linecap:butt;stroke-linejoin:round;}</style>
 </defs>
 <g id="figure_1">
  <g id="patch_1">
   <path d="M 0 612 
L 792 612 
L 792 0 
L 0 0 
z
" style="fill:#ffffff;"/>
  </g>
  <g id="axes_1">
   <g id="patch_2">
    <path d="M 99 544.68 
L 712.8 544.68 
L 712.8 73.44 
L 99 73.44 
z
" style="fill:#ffffff;"/>
   </g>
   <g id="PolyCollection_1">
    <path clip-path="url(#p68e2955192)" d="M 99 135032.490349 
L 99 135032.490349 
L 100.198828 135032.490349 
L 101.397656 135032.490349 
L 102.596484 135032.490349 
L 103.795313 135032.490349 
L 104.994141 135032.490349 
L 106.192969 135032.490349 
L 107.391797 135032.490349 
L 108.590625 135032.490349 
L 109.789453 135032.490349 
L 110.988281 135032.490349 
L 112.187109 135032.490349 
L 113.385938 135032.490349 
L 114.584766 338.041937 
L 115.783594 333.781687 
L 116.982422 322.975897 
L 118.18125 318.240318 
L 119.380078 318.240318 
L 120.578906 318.240318 
L 121.777734 318.240318 
L 122.976562 318.240318 
L 124.175391 318.240318 
L 125.374219 318.240318 
L 126.573047 318.240318 
L 127.771875 318.240318 
L 128.970703 318.240318 
L 130.169531 317.199919 
L 131.368359 318.240318 
L 132.567188 318.240318 
L 133.766016 320.378394 
L 134.964844 329.811044 
L 136.163672 325.694257 
L 137.3625 325.694257 
L 138.561328 325.694257 
L 139.760156 325.694257 
L 140.958984 325.694257 
L 142.157813 325.694257 
L 143.356641 325.694257 
L 144.555469 326.899129 
L 145.754297 326.899129 
L 146.953125 335.636897 
L 148.151953 342.637386 
L 149.350781 342.637386 
L 150.549609 345.914929 
L 151.748438 356.344429 
L 152.947266 361.245977 
L 154.146094 361.245977 
L 155.344922 361.245977 
L 156.54375 363.479403 
L 157.742578 365.801598 
L 158.941406 365.801598 
L 160.140234 365.801598 
L 161.339063 365.801598 
L 162.537891 365.801598 
L 163.736719 378.056451 
L 164.935547 384.213109 
L 166.134375 384.213109 
L 167.333203 384.213109 
L 168.532031 384.213109 
L 169.730859 384.213109 
L 170.929688 384.213109 
L 172.128516 406.305103 
L 173.327344 418.559956 
L 174.526172 406.305103 
L 175.725 418.559956 
L 176.923828 406.305103 
L 178.122656 401.749483 
L 179.321484 401.749483 
L 180.520313 401.749483 
L 181.719141 401.749483 
L 182.917969 401.749483 
L 184.116797 401.749483 
L 185.315625 401.749483 
L 186.514453 401.749483 
L 187.713281 401.749483 
L 188.912109 401.749483 
L 190.110938 401.749483 
L 191.309766 392.325906 
L 192.508594 381.053734 
L 193.707422 381.053734 
L 194.90625 343.171035 
L 196.105078 341.584488 
L 197.303906 311.943865 
L 198.502734 306.546104 
L 199.701563 295.844567 
L 200.900391 294.430767 
L 202.099219 294.430767 
L 203.298047 294.430767 
L 204.496875 294.430767 
L 205.695703 294.430767 
L 206.894531 294.430767 
L 208.093359 293.736492 
L 209.292188 293.736492 
L 210.491016 289.307539 
L 211.689844 293.736492 
L 212.888672 293.736492 
L 214.0875 293.736492 
L 215.286328 293.050368 
L 216.485156 295.36949 
L 217.683984 293.050368 
L 218.882812 293.050368 
L 220.081641 293.050368 
L 221.280469 293.050368 
L 222.479297 280.973996 
L 223.678125 280.973996 
L 224.876953 274.338518 
L 226.075781 274.338518 
L 227.274609 276.35369 
L 228.473438 274.835833 
L 229.672266 274.835833 
L 230.871094 263.932831 
L 232.069922 261.49772 
L 233.26875 258.526943 
L 234.467578 255.22193 
L 235.666406 250.206953 
L 236.865234 250.206953 
L 238.064063 250.206953 
L 239.262891 250.206953 
L 240.461719 250.206953 
L 241.660547 250.206953 
L 242.859375 246.401573 
L 244.058203 244.094 
L 245.257031 232.934116 
L 246.455859 230.311883 
L 247.654688 230.311883 
L 248.853516 230.311883 
L 250.052344 229.15778 
L 251.251172 229.15778 
L 252.45 229.15778 
L 253.648828 211.196878 
L 254.847656 204.283203 
L 256.046484 204.283203 
L 257.245313 204.283203 
L 258.444141 204.283203 
L 259.642969 204.283203 
L 260.841797 203.296115 
L 262.040625 197.478121 
L 263.239453 197.478121 
L 264.438281 193.207836 
L 265.637109 193.207836 
L 266.835938 193.207836 
L 268.034766 193.207836 
L 269.233594 190.669446 
L 270.432422 188.085659 
L 271.63125 188.085659 
L 272.830078 188.085659 
L 274.028906 188.085659 
L 275.227734 188.085659 
L 276.426563 188.085659 
L 277.625391 188.085659 
L 278.824219 190.669446 
L 280.023047 190.669446 
L 281.221875 193.828821 
L 282.420703 193.828821 
L 283.619531 193.828821 
L 284.818359 193.704095 
L 286.017188 206.360407 
L 287.216016 211.25293 
L 288.414844 211.25293 
L 289.613672 211.25293 
L 290.8125 211.25293 
L 292.011328 211.25293 
L 293.210156 211.25293 
L 294.408984 211.25293 
L 295.607813 212.100226 
L 296.806641 212.100226 
L 298.005469 212.100226 
L 299.204297 212.100226 
L 300.403125 212.787022 
L 301.601953 212.787022 
L 302.800781 208.353867 
L 303.999609 210.806012 
L 305.198438 210.806012 
L 306.397266 210.806012 
L 307.596094 210.806012 
L 308.794922 208.353867 
L 309.99375 203.639702 
L 311.192578 203.639702 
L 312.391406 203.639702 
L 313.590234 203.639702 
L 314.789062 203.639702 
L 315.987891 203.639702 
L 317.186719 201.040058 
L 318.385547 202.614942 
L 319.584375 203.051926 
L 320.783203 203.051926 
L 321.982031 203.051926 
L 323.180859 203.051926 
L 324.379688 203.051926 
L 325.578516 203.051926 
L 326.777344 206.567071 
L 327.976172 206.567071 
L 329.175 206.567071 
L 330.373828 206.567071 
L 331.572656 206.567071 
L 332.771484 206.567071 
L 333.970313 206.567071 
L 335.169141 204.432715 
L 336.367969 204.432715 
L 337.566797 204.432715 
L 338.765625 203.985322 
L 339.964453 201.607844 
L 341.163281 201.607844 
L 342.362109 198.686685 
L 343.560938 198.551159 
L 344.759766 195.133492 
L 345.958594 191.985318 
L 347.157422 180.490708 
L 348.35625 180.490708 
L 349.555078 180.490708 
L 350.753906 180.490708 
L 351.952734 177.299959 
L 353.151563 171.881905 
L 354.350391 162.74369 
L 355.549219 162.74369 
L 356.748047 162.74369 
L 357.946875 162.74369 
L 359.145703 162.74369 
L 360.344531 161.509885 
L 361.543359 161.509885 
L 362.742188 161.509885 
L 363.941016 161.509885 
L 365.139844 161.509885 
L 366.338672 161.509885 
L 367.5375 161.294833 
L 368.736328 158.751278 
L 369.935156 155.336472 
L 371.133984 141.548226 
L 372.332813 138.032699 
L 373.531641 135.693448 
L 374.730469 135.693448 
L 375.929297 135.693448 
L 377.128125 134.868265 
L 378.326953 128.887889 
L 379.525781 128.887889 
L 380.724609 128.887889 
L 381.923438 128.682784 
L 383.122266 127.86949 
L 384.321094 127.86949 
L 385.519922 119.529048 
L 386.71875 116.448963 
L 387.917578 116.993989 
L 389.116406 116.993989 
L 390.315234 116.371515 
L 391.514063 116.371515 
L 392.712891 116.371515 
L 393.911719 111.535454 
L 395.110547 108.820795 
L 396.309375 104.930634 
L 397.508203 104.930634 
L 398.707031 103.957008 
L 399.905859 103.957008 
L 401.104688 103.957008 
L 402.303516 103.957008 
L 403.502344 102.430441 
L 404.701172 102.430441 
L 405.9 102.430441 
L 407.098828 102.430441 
L 408.297656 101.867027 
L 409.496484 101.867027 
L 410.695312 101.867027 
L 411.894141 102.091741 
L 413.092969 102.091741 
L 414.291797 102.091741 
L 415.490625 102.091741 
L 416.689453 101.867027 
L 417.888281 100.326171 
L 419.087109 96.418545 
L 420.285938 94.959554 
L 421.484766 94.86 
L 422.683594 94.86 
L 423.882422 94.86 
L 425.08125 94.86 
L 426.280078 94.86 
L 427.478906 94.86 
L 428.677734 94.86 
L 429.876563 94.86 
L 431.075391 94.86 
L 432.274219 94.86 
L 433.473047 94.86 
L 434.671875 94.905927 
L 435.870703 97.729764 
L 437.069531 105.231395 
L 438.268359 105.800683 
L 439.467188 105.800683 
L 440.666016 105.800683 
L 441.864844 105.800683 
L 443.063672 106.833955 
L 444.2625 110.566407 
L 445.461328 111.382977 
L 446.660156 122.35031 
L 447.858984 122.35031 
L 449.057813 122.35031 
L 450.256641 129.314066 
L 451.455469 122.35031 
L 452.654297 129.314066 
L 453.853125 121.838154 
L 455.051953 121.838154 
L 456.250781 121.838154 
L 457.449609 123.876548 
L 458.648438 123.876548 
L 459.847266 123.876548 
L 461.046094 123.127061 
L 462.244922 123.127061 
L 463.44375 123.127061 
L 464.642578 123.127061 
L 465.841406 123.127061 
L 467.040234 123.127061 
L 468.239063 135.035416 
L 469.437891 135.035416 
L 470.636719 143.06474 
L 471.835547 143.06474 
L 473.034375 143.06474 
L 474.233203 143.06474 
L 475.432031 143.538036 
L 476.630859 144.068456 
L 477.829688 147.337461 
L 479.028516 149.772972 
L 480.227344 149.772972 
L 481.426172 149.772972 
L 482.625 149.772972 
L 483.823828 149.772972 
L 485.022656 151.866183 
L 486.221484 155.078579 
L 487.420313 155.078579 
L 488.619141 163.929209 
L 489.817969 163.929209 
L 491.016797 163.929209 
L 492.215625 162.305248 
L 493.414453 162.305248 
L 494.613281 162.305248 
L 495.812109 168.278845 
L 497.010938 168.278845 
L 498.209766 162.135628 
L 499.408594 162.135628 
L 500.607422 162.135628 
L 501.80625 162.135628 
L 503.005078 162.135628 
L 504.203906 162.135628 
L 505.402734 162.135628 
L 506.601562 162.135628 
L 507.800391 129.729477 
L 508.999219 129.729477 
L 510.198047 129.729477 
L 511.396875 131.335533 
L 512.595703 131.335533 
L 513.794531 131.335533 
L 514.993359 149.616521 
L 516.192188 149.616521 
L 517.391016 149.616521 
L 518.589844 149.616521 
L 519.788672 149.616521 
L 520.9875 149.616521 
L 522.186328 149.616521 
L 523.385156 137.332117 
L 524.583984 149.616521 
L 525.782813 149.616521 
L 526.981641 149.616521 
L 528.180469 150.800239 
L 529.379297 150.800239 
L 530.578125 150.800239 
L 531.776953 150.383205 
L 532.975781 150.383205 
L 534.174609 150.383205 
L 535.373438 147.657649 
L 536.572266 147.657649 
L 537.771094 147.657649 
L 538.969922 147.657649 
L 540.16875 147.657649 
L 541.367578 147.657649 
L 542.566406 147.657649 
L 543.765234 147.657649 
L 544.964063 147.657649 
L 546.162891 147.657649 
L 547.361719 147.657649 
L 548.560547 146.221206 
L 549.759375 146.221206 
L 550.958203 146.221206 
L 552.157031 148.418027 
L 553.355859 148.418027 
L 554.554688 148.418027 
L 555.753516 148.418027 
L 556.952344 174.602988 
L 558.151172 148.418027 
L 559.35 148.418027 
L 560.548828 146.888397 
L 561.747656 146.888397 
L 562.946484 146.888397 
L 564.145313 146.888397 
L 565.344141 130.203874 
L 566.542969 130.203874 
L 567.741797 130.203874 
L 568.940625 130.119877 
L 570.139453 129.369284 
L 571.338281 129.369284 
L 572.537109 129.369284 
L 573.735938 123.463141 
L 574.934766 140.286099 
L 576.133594 140.286099 
L 577.332422 140.286099 
L 578.53125 140.286099 
L 579.730078 140.286099 
L 580.928906 140.286099 
L 582.127734 140.286099 
L 583.326563 140.286099 
L 584.525391 140.286099 
L 585.724219 140.286099 
L 586.923047 141.192074 
L 588.121875 141.192074 
L 589.320703 141.192074 
L 590.519531 135.662677 
L 591.718359 135.662677 
L 592.917188 135.662677 
L 594.116016 135.662677 
L 595.314844 135.662677 
L 596.513672 135.662677 
L 597.7125 135.662677 
L 598.911328 157.777541 
L 600.110156 157.777541 
L 601.308984 157.777541 
L 602.507812 160.677983 
L 603.706641 160.677983 
L 604.905469 160.677983 
L 606.104297 160.677983 
L 607.303125 167.504517 
L 608.501953 167.504517 
L 609.700781 168.954705 
L 610.899609 170.609395 
L 612.098438 170.609395 
L 613.297266 170.609395 
L 614.496094 170.609395 
L 615.694922 192.30883 
L 616.89375 192.30883 
L 618.092578 198.641475 
L 619.291406 198.641475 
L 620.490234 199.18632 
L 621.689063 199.18632 
L 622.887891 199.18632 
L 624.086719 209.268181 
L 625.285547 209.268181 
L 626.484375 209.268181 
L 627.683203 209.268181 
L 628.882031 215.376676 
L 630.080859 215.376676 
L 631.279688 215.376676 
L 632.478516 220.073971 
L 633.677344 215.376676 
L 634.876172 220.073971 
L 636.075 222.266757 
L 637.273828 222.266757 
L 638.472656 222.266757 
L 639.671484 222.266757 
L 640.870313 239.553137 
L 642.069141 239.553137 
L 643.267969 238.919453 
L 644.466797 238.919453 
L 645.665625 238.649963 
L 646.864453 238.649963 
L 648.063281 238.649963 
L 649.262109 237.058615 
L 650.460938 238.649963 
L 651.659766 238.649963 
L 652.858594 238.649963 
L 654.057422 237.058615 
L 655.25625 237.058615 
L 656.455078 237.058615 
L 657.653906 225.970343 
L 658.852734 225.970343 
L 660.051563 225.111001 
L 661.250391 225.111001 
L 662.449219 225.111001 
L 663.648047 225.111001 
L 664.846875 225.111001 
L 666.045703 217.709443 
L 667.244531 217.709443 
L 668.443359 217.521853 
L 669.642188 217.521853 
L 670.841016 217.521853 
L 672.039844 217.521853 
L 673.238672 217.521853 
L 674.4375 217.521853 
L 675.636328 217.521853 
L 676.835156 212.328263 
L 678.033984 212.328263 
L 679.232813 201.134307 
L 680.431641 201.134307 
L 681.630469 201.134307 
L 682.829297 185.937645 
L 684.028125 185.937645 
L 685.226953 173.065935 
L 686.425781 173.065935 
L 687.624609 163.185445 
L 688.823438 163.185445 
L 690.022266 163.185445 
L 691.221094 154.481218 
L 692.419922 154.481218 
L 693.61875 131.981856 
L 694.817578 131.981856 
L 696.016406 125.741492 
L 697.215234 125.741492 
L 698.414062 125.741492 
L 699.612891 123.52559 
L 700.811719 123.52559 
L 702.010547 118.442191 
L 703.209375 118.442191 
L 704.408203 113.76584 
L 705.607031 113.76584 
L 706.805859 113.76584 
L 708.004688 112.139087 
L 709.203516 112.139087 
L 710.402344 112.139087 
L 711.601172 112.139087 
L 712.8 112.139087 
L 712.8 135032.490349 
L 712.8 135032.490349 
L 711.601172 135032.490349 
L 710.402344 135032.490349 
L 709.203516 135032.490349 
L 708.004688 135032.490349 
L 706.805859 135032.490349 
L 705.607031 135032.490349 
L 704.408203 135032.490349 
L 703.209375 135032.490349 
L 702.010547 135032.490349 
L 700.811719 135032.490349 
L 699.612891 135032.490349 
L 698.414062 135032.490349 
L 697.215234 135032.490349 
L 696.016406 135032.490349 
L 694.817578 135032.490349 
L 693.61875 135032.490349 
L 692.419922 135032.490349 
L 691.221094 135032.490349 
L 690.022266 135032.490349 
L 688.823438 135032.490349 
L 687.624609 135032.490349 
L 686.425781 135032.490349 
L 685.226953 135032.490349 
L 684.028125 135032.490349 
L 682.829297 135032.490349 
L 681.630469 135032.490349 
L 680.431641 135032.490349 
L 679.232813 135032.490349 
L 678.033984 135032.490349 
L 676.835156 135032.490349 
L 675.636328 135032.490349 
L 674.4375 135032.490349 
L 673.238672 135032.490349 
L 672.039844 135032.490349 
L 670.841016 135032.490349 
L 669.642188 135032.490349 
L 668.443359 135032.490349 
L 667.244531 135032.490349 
L 666.045703 135032.490349 
L 664.846875 135032.490349 
L 663.648047 135032.490349 
L 662.449219 135032.490349 
L 661.250391 135032.490349 
L 660.051563 135032.490349 
L 658.852734 135032.490349 
L 657.653906 135032.490349 
L 656.455078 135032.490349 
L 655.25625 135032.490349 
L 654.057422 135032.490349 
L 652.858594 135032.490349 
L 651.659766 135032.490349 
L 650.460938 135032.490349 
L 649.262109 135032.490349 
L 648.063281 135032.490349 
L 646.864453 135032.490349 
L 645.665625 135032.490349 
L 644.466797 135032.490349 
L 643.267969 135032.490349 
L 642.069141 135032.490349 
L 640.870313 135032.490349 
L 639.671484 135032.490349 
L 638.472656 135032.490349 
L 637.273828 135032.490349 
L 636.075 135032.490349 
L 634.876172 135032.490349 
L 633.677344 135032.490349 
L 632.478516 135032.490349 
L 631.279688 271.913514 
L 630.080859 271.913514 
L 628.882031 271.913514 
L 627.683203 271.913514 
L 626.484375 258.025359 
L 625.285547 258.025359 
L 624.086719 253.694919 
L 622.887891 253.694919 
L 621.689063 253.694919 
L 620.490234 253.694919 
L 619.291406 253.694919 
L 618.092578 253.694919 
L 616.89375 253.694919 
L 615.694922 251.644385 
L 614.496094 251.644385 
L 613.297266 251.644385 
L 612.098438 251.644385 
L 610.899609 251.644385 
L 609.700781 251.644385 
L 608.501953 251.644385 
L 607.303125 224.686023 
L 606.104297 224.686023 
L 604.905469 224.686023 
L 603.706641 224.686023 
L 602.507812 224.686023 
L 601.308984 224.686023 
L 600.110156 224.686023 
L 598.911328 214.777959 
L 597.7125 214.777959 
L 596.513672 214.777959 
L 595.314844 214.777959 
L 594.116016 214.777959 
L 592.917188 214.777959 
L 591.718359 214.777959 
L 590.519531 214.777959 
L 589.320703 214.777959 
L 588.121875 214.777959 
L 586.923047 214.777959 
L 585.724219 214.777959 
L 584.525391 214.777959 
L 583.326563 214.777959 
L 582.127734 232.852901 
L 580.928906 232.852901 
L 579.730078 232.852901 
L 578.53125 232.852901 
L 577.332422 232.852901 
L 576.133594 232.852901 
L 574.934766 232.852901 
L 573.735938 232.852901 
L 572.537109 135032.490349 
L 571.338281 135032.490349 
L 570.139453 135032.490349 
L 568.940625 135032.490349 
L 567.741797 135032.490349 
L 566.542969 135032.490349 
L 565.344141 135032.490349 
L 564.145313 135032.490349 
L 562.946484 135032.490349 
L 561.747656 135032.490349 
L 560.548828 135032.490349 
L 559.35 135032.490349 
L 558.151172 135032.490349 
L 556.952344 135032.490349 
L 555.753516 235.086327 
L 554.554688 235.086327 
L 553.355859 235.086327 
L 552.157031 235.086327 
L 550.958203 235.086327 
L 549.759375 235.086327 
L 548.560547 235.086327 
L 547.361719 235.086327 
L 546.162891 235.086327 
L 544.964063 235.086327 
L 543.765234 226.623246 
L 542.566406 226.623246 
L 541.367578 226.623246 
L 540.16875 226.623246 
L 538.969922 226.623246 
L 537.771094 226.623246 
L 536.572266 226.623246 
L 535.373438 226.623246 
L 534.174609 226.623246 
L 532.975781 226.623246 
L 531.776953 254.747816 
L 530.578125 254.747816 
L 529.379297 254.747816 
L 528.180469 254.747816 
L 526.981641 254.747816 
L 525.782813 254.747816 
L 524.583984 254.747816 
L 523.385156 254.747816 
L 522.186328 135032.490349 
L 520.9875 135032.490349 
L 519.788672 135032.490349 
L 518.589844 135032.490349 
L 517.391016 135032.490349 
L 516.192188 135032.490349 
L 514.993359 135032.490349 
L 513.794531 135032.490349 
L 512.595703 135032.490349 
L 511.396875 135032.490349 
L 510.198047 135032.490349 
L 508.999219 135032.490349 
L 507.800391 135032.490349 
L 506.601562 135032.490349 
L 505.402734 216.408787 
L 504.203906 201.087164 
L 503.005078 197.700052 
L 501.80625 197.700052 
L 500.607422 197.700052 
L 499.408594 197.700052 
L 498.209766 198.596299 
L 497.010938 211.590375 
L 495.812109 198.596299 
L 494.613281 196.64239 
L 493.414453 196.64239 
L 492.215625 196.64239 
L 491.016797 196.64239 
L 489.817969 196.773556 
L 488.619141 192.025659 
L 487.420313 188.388231 
L 486.221484 185.719878 
L 485.022656 185.719878 
L 483.823828 185.719878 
L 482.625 185.719878 
L 481.426172 185.719878 
L 480.227344 183.8658 
L 479.028516 180.92294 
L 477.829688 180.92294 
L 476.630859 180.92294 
L 475.432031 180.92294 
L 474.233203 178.280475 
L 473.034375 175.782906 
L 471.835547 160.630801 
L 470.636719 160.630801 
L 469.437891 157.152092 
L 468.239063 160.630801 
L 467.040234 160.630801 
L 465.841406 160.630801 
L 464.642578 160.630801 
L 463.44375 160.630801 
L 462.244922 158.546126 
L 461.046094 158.546126 
L 459.847266 175.844062 
L 458.648438 175.844062 
L 457.449609 175.844062 
L 456.250781 158.774117 
L 455.051953 179.635718 
L 453.853125 179.930263 
L 452.654297 179.930263 
L 451.455469 178.696606 
L 450.256641 178.696606 
L 449.057813 178.696606 
L 447.858984 156.775596 
L 446.660156 153.242135 
L 445.461328 153.242135 
L 444.2625 153.242135 
L 443.063672 143.784966 
L 441.864844 139.050658 
L 440.666016 135.909301 
L 439.467188 135.909301 
L 438.268359 129.190017 
L 437.069531 121.198203 
L 435.870703 119.377528 
L 434.671875 117.510315 
L 433.473047 112.19053 
L 432.274219 112.19053 
L 431.075391 112.19053 
L 429.876563 112.19053 
L 428.677734 112.19053 
L 427.478906 110.376507 
L 426.280078 110.376507 
L 425.08125 111.841607 
L 423.882422 111.841607 
L 422.683594 111.200528 
L 421.484766 111.200528 
L 420.285938 113.660192 
L 419.087109 113.660192 
L 417.888281 114.457251 
L 416.689453 118.419285 
L 415.490625 118.419285 
L 414.291797 114.940759 
L 413.092969 114.09457 
L 411.894141 114.09457 
L 410.695312 114.09457 
L 409.496484 114.09457 
L 408.297656 115.070372 
L 407.098828 119.762925 
L 405.9 119.762925 
L 404.701172 120.127295 
L 403.502344 120.127295 
L 402.303516 120.127295 
L 401.104688 117.792852 
L 399.905859 117.792852 
L 398.707031 120.292597 
L 397.508203 122.301339 
L 396.309375 123.625649 
L 395.110547 131.349818 
L 393.911719 131.349818 
L 392.712891 134.054573 
L 391.514063 135.065858 
L 390.315234 138.321739 
L 389.116406 138.321739 
L 387.917578 139.838325 
L 386.71875 139.838325 
L 385.519922 139.838325 
L 384.321094 140.302749 
L 383.122266 140.302749 
L 381.923438 140.486216 
L 380.724609 141.992205 
L 379.525781 155.100027 
L 378.326953 164.910474 
L 377.128125 166.7927 
L 375.929297 166.7927 
L 374.730469 169.281916 
L 373.531641 170.052609 
L 372.332813 170.4697 
L 371.133984 172.197224 
L 369.935156 172.197224 
L 368.736328 172.197224 
L 367.5375 174.543117 
L 366.338672 179.799171 
L 365.139844 184.749844 
L 363.941016 188.426163 
L 362.742188 188.426163 
L 361.543359 188.426163 
L 360.344531 191.22408 
L 359.145703 192.025659 
L 357.946875 193.084426 
L 356.748047 196.294048 
L 355.549219 198.012177 
L 354.350391 199.323328 
L 353.151563 200.198591 
L 351.952734 200.945961 
L 350.753906 203.985322 
L 349.555078 203.985322 
L 348.35625 204.134072 
L 347.157422 205.693752 
L 345.958594 207.875549 
L 344.759766 211.590375 
L 343.560938 219.554553 
L 342.362109 219.554553 
L 341.163281 219.554553 
L 339.964453 224.124151 
L 338.765625 235.086327 
L 337.566797 235.086327 
L 336.367969 242.349566 
L 335.169141 242.349566 
L 333.970313 242.349566 
L 332.771484 242.349566 
L 331.572656 239.099805 
L 330.373828 239.099805 
L 329.175 242.54084 
L 327.976172 242.54084 
L 326.777344 242.54084 
L 325.578516 242.54084 
L 324.379688 242.54084 
L 323.180859 239.099805 
L 321.982031 239.099805 
L 320.783203 243.799621 
L 319.584375 254.394738 
L 318.385547 254.394738 
L 317.186719 254.394738 
L 315.987891 254.394738 
L 314.789062 255.460437 
L 313.590234 255.460437 
L 312.391406 253.118071 
L 311.192578 253.118071 
L 309.99375 253.118071 
L 308.794922 253.118071 
L 307.596094 253.118071 
L 306.397266 253.118071 
L 305.198438 240.934625 
L 303.999609 240.934625 
L 302.800781 237.320849 
L 301.601953 237.320849 
L 300.403125 237.320849 
L 299.204297 237.320849 
L 298.005469 237.145896 
L 296.806641 237.145896 
L 295.607813 237.937342 
L 294.408984 237.145896 
L 293.210156 237.145896 
L 292.011328 237.937342 
L 290.8125 238.025946 
L 289.613672 239.462189 
L 288.414844 242.82893 
L 287.216016 239.190191 
L 286.017188 239.190191 
L 284.818359 239.190191 
L 283.619531 239.190191 
L 282.420703 239.190191 
L 281.221875 239.190191 
L 280.023047 238.025946 
L 278.824219 227.802286 
L 277.625391 227.802286 
L 276.426563 227.802286 
L 275.227734 227.876772 
L 274.028906 227.802286 
L 272.830078 219.296564 
L 271.63125 217.397127 
L 270.432422 211.929781 
L 269.233594 211.929781 
L 268.034766 217.397127 
L 266.835938 219.683975 
L 265.637109 229.847503 
L 264.438281 231.966907 
L 263.239453 238.919453 
L 262.040625 238.919453 
L 260.841797 238.919453 
L 259.642969 238.919453 
L 258.444141 239.190191 
L 257.245313 242.82893 
L 256.046484 245.892118 
L 254.847656 250.206953 
L 253.648828 255.341061 
L 252.45 255.341061 
L 251.251172 255.341061 
L 250.052344 255.341061 
L 248.853516 255.341061 
L 247.654688 256.181856 
L 246.455859 258.401143 
L 245.257031 265.756856 
L 244.058203 278.61819 
L 242.859375 280.605325 
L 241.660547 284.010223 
L 240.461719 284.010223 
L 239.262891 284.794586 
L 238.064063 284.010223 
L 236.865234 284.794586 
L 235.666406 292.597387 
L 234.467578 294.898244 
L 233.26875 294.898244 
L 232.069922 297.78447 
L 230.871094 297.78447 
L 229.672266 305.411423 
L 228.473438 312.258875 
L 227.274609 328.964157 
L 226.075781 328.964157 
L 224.876953 328.964157 
L 223.678125 328.964157 
L 222.479297 328.964157 
L 221.280469 332.875713 
L 220.081641 328.964157 
L 218.882812 332.875713 
L 217.683984 332.875713 
L 216.485156 332.875713 
L 215.286328 332.875713 
L 214.0875 332.875713 
L 212.888672 328.964157 
L 211.689844 328.964157 
L 210.491016 312.258875 
L 209.292188 328.964157 
L 208.093359 334.70193 
L 206.894531 334.70193 
L 205.695703 355.676602 
L 204.496875 369.889572 
L 203.298047 379.038561 
L 202.099219 389.890795 
L 200.900391 389.890795 
L 199.701563 403.228909 
L 198.502734 420.540967 
L 197.303906 420.540967 
L 196.105078 445.250271 
L 194.90625 445.250271 
L 193.707422 445.250271 
L 192.508594 445.250271 
L 191.309766 482.756494 
L 190.110938 482.756494 
L 188.912109 488.913152 
L 187.713281 488.913152 
L 186.514453 488.913152 
L 185.315625 482.756494 
L 184.116797 482.756494 
L 182.917969 482.756494 
L 181.719141 482.756494 
L 180.520313 482.756494 
L 179.321484 482.756494 
L 178.122656 482.756494 
L 176.923828 482.756494 
L 175.725 482.756494 
L 174.526172 482.756494 
L 173.327344 482.756494 
L 172.128516 482.756494 
L 170.929688 482.756494 
L 169.730859 482.756494 
L 168.532031 482.756494 
L 167.333203 482.756494 
L 166.134375 482.756494 
L 164.935547 482.756494 
L 163.736719 445.250271 
L 162.537891 442.252988 
L 161.339063 442.252988 
L 160.140234 442.252988 
L 158.941406 442.252988 
L 157.742578 442.252988 
L 156.54375 442.252988 
L 155.344922 442.252988 
L 154.146094 442.252988 
L 152.947266 442.252988 
L 151.748438 392.325906 
L 150.549609 388.710266 
L 149.350781 388.710266 
L 148.151953 379.038561 
L 146.953125 370.742642 
L 145.754297 370.742642 
L 144.555469 369.889572 
L 143.356641 361.981008 
L 142.157813 361.245977 
L 140.958984 361.245977 
L 139.760156 361.245977 
L 138.561328 355.016321 
L 137.3625 348.794044 
L 136.163672 348.794044 
L 134.964844 348.794044 
L 133.766016 348.794044 
L 132.567188 348.794044 
L 131.368359 348.20676 
L 130.169531 348.20676 
L 128.970703 350.592161 
L 127.771875 348.20676 
L 126.573047 350.592161 
L 125.374219 369.889572 
L 124.175391 378.056451 
L 122.976562 378.056451 
L 121.777734 381.053734 
L 120.578906 418.559956 
L 119.380078 418.559956 
L 118.18125 420.540967 
L 116.982422 442.252988 
L 115.783594 445.250271 
L 114.584766 482.756494 
L 113.385938 135032.490349 
L 112.187109 135032.490349 
L 110.988281 135032.490349 
L 109.789453 135032.490349 
L 108.590625 135032.490349 
L 107.391797 135032.490349 
L 106.192969 135032.490349 
L 104.994141 135032.490349 
L 103.795313 135032.490349 
L 102.596484 135032.490349 
L 101.397656 135032.490349 
L 100.198828 135032.490349 
L 99 135032.490349 
z
" style="fill:#8080ff;fill-opacity:0.5;stroke:#8080ff;stroke-opacity:0.5;"/>
   </g>
   <g id="PolyCollection_2">
    <path clip-path="url(#p68e2955192)" d="M 99 135032.490349 
L 99 135032.490349 
L 100.198828 135032.490349 
L 101.397656 135032.490349 
L 102.596484 135032.490349 
L 103.795313 135032.490349 
L 104.994141 135032.490349 
L 106.192969 135032.490349 
L 107.391797 135032.490349 
L 108.590625 135032.490349 
L 109.789453 135032.490349 
L 110.988281 135032.490349 
L 112.187109 135032.490349 
L 113.385938 135032.490349 
L 114.584766 135032.490349 
L 115.783594 135032.490349 
L 116.982422 135032.490349 
L 118.18125 135032.490349 
L 119.380078 503.598512 
L 120.578906 503.598512 
L 121.777734 503.598512 
L 122.976562 503.598512 
L 124.175391 503.598512 
L 125.374219 503.598512 
L 126.573047 482.756494 
L 127.771875 482.756494 
L 128.970703 482.756494 
L 130.169531 482.756494 
L 131.368359 482.756494 
L 132.567188 482.756494 
L 133.766016 482.756494 
L 134.964844 482.756494 
L 136.163672 482.756494 
L 137.3625 482.756494 
L 138.561328 482.756494 
L 139.760156 482.756494 
L 140.958984 482.756494 
L 142.157813 482.756494 
L 143.356641 482.756494 
L 144.555469 482.756494 
L 145.754297 482.756494 
L 146.953125 482.756494 
L 148.151953 503.598512 
L 149.350781 503.598512 
L 150.549609 503.598512 
L 151.748438 135032.490349 
L 152.947266 135032.490349 
L 154.146094 135032.490349 
L 155.344922 135032.490349 
L 156.54375 135032.490349 
L 157.742578 135032.490349 
L 158.941406 135032.490349 
L 160.140234 135032.490349 
L 161.339063 135032.490349 
L 162.537891 135032.490349 
L 163.736719 135032.490349 
L 164.935547 135032.490349 
L 166.134375 135032.490349 
L 167.333203 135032.490349 
L 168.532031 135032.490349 
L 169.730859 135032.490349 
L 170.929688 135032.490349 
L 172.128516 135032.490349 
L 173.327344 135032.490349 
L 174.526172 135032.490349 
L 175.725 135032.490349 
L 176.923828 135032.490349 
L 178.122656 135032.490349 
L 179.321484 135032.490349 
L 180.520313 135032.490349 
L 181.719141 135032.490349 
L 182.917969 135032.490349 
L 184.116797 135032.490349 
L 185.315625 135032.490349 
L 186.514453 135032.490349 
L 187.713281 135032.490349 
L 188.912109 135032.490349 
L 190.110938 135032.490349 
L 191.309766 135032.490349 
L 192.508594 135032.490349 
L 193.707422 135032.490349 
L 194.90625 135032.490349 
L 196.105078 135032.490349 
L 197.303906 135032.490349 
L 198.502734 135032.490349 
L 199.701563 135032.490349 
L 200.900391 135032.490349 
L 202.099219 135032.490349 
L 203.298047 135032.490349 
L 204.496875 135032.490349 
L 205.695703 135032.490349 
L 206.894531 135032.490349 
L 208.093359 135032.490349 
L 209.292188 503.598512 
L 210.491016 503.598512 
L 211.689844 503.598512 
L 212.888672 503.598512 
L 214.0875 503.598512 
L 215.286328 503.598512 
L 216.485156 503.598512 
L 217.683984 503.598512 
L 218.882812 503.598512 
L 220.081641 503.598512 
L 221.280469 503.598512 
L 222.479297 135032.490349 
L 223.678125 135032.490349 
L 224.876953 135032.490349 
L 226.075781 135032.490349 
L 227.274609 135032.490349 
L 228.473438 135032.490349 
L 229.672266 135032.490349 
L 230.871094 135032.490349 
L 232.069922 135032.490349 
L 233.26875 135032.490349 
L 234.467578 503.598512 
L 235.666406 482.756494 
L 236.865234 482.756494 
L 238.064063 482.756494 
L 239.262891 482.756494 
L 240.461719 482.756494 
L 241.660547 482.756494 
L 242.859375 482.756494 
L 244.058203 482.756494 
L 245.257031 482.756494 
L 246.455859 482.756494 
L 247.654688 482.756494 
L 248.853516 482.756494 
L 250.052344 482.756494 
L 251.251172 503.598512 
L 252.45 503.598512 
L 253.648828 503.598512 
L 254.847656 503.598512 
L 256.046484 135032.490349 
L 257.245313 503.598512 
L 258.444141 503.598512 
L 259.642969 503.598512 
L 260.841797 482.756494 
L 262.040625 482.756494 
L 263.239453 482.756494 
L 264.438281 482.756494 
L 265.637109 482.756494 
L 266.835938 482.756494 
L 268.034766 482.756494 
L 269.233594 482.756494 
L 270.432422 482.756494 
L 271.63125 482.756494 
L 272.830078 482.756494 
L 274.028906 482.756494 
L 275.227734 482.756494 
L 276.426563 482.756494 
L 277.625391 482.756494 
L 278.824219 482.756494 
L 280.023047 482.756494 
L 281.221875 482.756494 
L 282.420703 482.756494 
L 283.619531 482.756494 
L 284.818359 482.756494 
L 286.017188 482.756494 
L 287.216016 482.756494 
L 288.414844 482.756494 
L 289.613672 482.756494 
L 290.8125 482.756494 
L 292.011328 482.756494 
L 293.210156 482.756494 
L 294.408984 482.756494 
L 295.607813 482.756494 
L 296.806641 482.756494 
L 298.005469 482.756494 
L 299.204297 482.756494 
L 300.403125 482.756494 
L 301.601953 482.756494 
L 302.800781 482.756494 
L 303.999609 482.756494 
L 305.198438 482.756494 
L 306.397266 451.749653 
L 307.596094 451.749653 
L 308.794922 451.749653 
L 309.99375 451.749653 
L 311.192578 442.252988 
L 312.391406 442.252988 
L 313.590234 442.252988 
L 314.789062 451.749653 
L 315.987891 451.749653 
L 317.186719 451.749653 
L 318.385547 451.749653 
L 319.584375 451.749653 
L 320.783203 451.749653 
L 321.982031 451.749653 
L 323.180859 482.756494 
L 324.379688 482.756494 
L 325.578516 482.756494 
L 326.777344 482.756494 
L 327.976172 482.756494 
L 329.175 482.756494 
L 330.373828 482.756494 
L 331.572656 482.756494 
L 332.771484 482.756494 
L 333.970313 482.756494 
L 335.169141 482.756494 
L 336.367969 482.756494 
L 337.566797 416.643909 
L 338.765625 416.643909 
L 339.964453 416.643909 
L 341.163281 416.643909 
L 342.362109 416.643909 
L 343.560938 416.643909 
L 344.759766 416.643909 
L 345.958594 416.643909 
L 347.157422 416.643909 
L 348.35625 416.643909 
L 349.555078 416.643909 
L 350.753906 416.643909 
L 351.952734 482.756494 
L 353.151563 482.756494 
L 354.350391 482.756494 
L 355.549219 482.756494 
L 356.748047 482.756494 
L 357.946875 482.756494 
L 359.145703 482.756494 
L 360.344531 482.756494 
L 361.543359 482.756494 
L 362.742188 482.756494 
L 363.941016 482.756494 
L 365.139844 482.756494 
L 366.338672 482.756494 
L 367.5375 482.756494 
L 368.736328 482.756494 
L 369.935156 482.756494 
L 371.133984 482.756494 
L 372.332813 482.756494 
L 373.531641 451.749653 
L 374.730469 482.756494 
L 375.929297 451.749653 
L 377.128125 411.246147 
L 378.326953 411.246147 
L 379.525781 411.246147 
L 380.724609 411.246147 
L 381.923438 411.246147 
L 383.122266 411.246147 
L 384.321094 411.246147 
L 385.519922 411.246147 
L 386.71875 411.246147 
L 387.917578 411.246147 
L 389.116406 411.246147 
L 390.315234 392.325906 
L 391.514063 392.325906 
L 392.712891 406.305103 
L 393.911719 431.599173 
L 395.110547 431.599173 
L 396.309375 431.599173 
L 397.508203 431.599173 
L 398.707031 424.716615 
L 399.905859 424.716615 
L 401.104688 424.716615 
L 402.303516 424.716615 
L 403.502344 424.716615 
L 404.701172 424.716615 
L 405.9 424.716615 
L 407.098828 424.716615 
L 408.297656 442.252988 
L 409.496484 424.716615 
L 410.695312 424.716615 
L 411.894141 424.716615 
L 413.092969 424.716615 
L 414.291797 424.716615 
L 415.490625 424.716615 
L 416.689453 424.716615 
L 417.888281 373.379218 
L 419.087109 347.625321 
L 420.285938 347.625321 
L 421.484766 347.625321 
L 422.683594 347.625321 
L 423.882422 373.379218 
L 425.08125 370.742642 
L 426.280078 368.21991 
L 427.478906 368.21991 
L 428.677734 347.625321 
L 429.876563 347.625321 
L 431.075391 347.625321 
L 432.274219 347.625321 
L 433.473047 347.625321 
L 434.671875 353.079099 
L 435.870703 392.325906 
L 437.069531 392.325906 
L 438.268359 392.325906 
L 439.467188 392.325906 
L 440.666016 357.703425 
L 441.864844 357.703425 
L 443.063672 361.981008 
L 444.2625 361.981008 
L 445.461328 418.559956 
L 446.660156 418.559956 
L 447.858984 418.559956 
L 449.057813 424.716615 
L 450.256641 424.716615 
L 451.455469 418.559956 
L 452.654297 418.559956 
L 453.853125 367.402635 
L 455.051953 367.402635 
L 456.250781 367.402635 
L 457.449609 418.559956 
L 458.648438 424.716615 
L 459.847266 418.559956 
L 461.046094 418.559956 
L 462.244922 418.559956 
L 463.44375 418.559956 
L 464.642578 418.559956 
L 465.841406 418.559956 
L 467.040234 418.559956 
L 468.239063 424.716615 
L 469.437891 424.716615 
L 470.636719 442.252988 
L 471.835547 442.252988 
L 473.034375 442.252988 
L 474.233203 442.252988 
L 475.432031 424.716615 
L 476.630859 451.749653 
L 477.829688 451.749653 
L 479.028516 400.306589 
L 480.227344 400.306589 
L 481.426172 400.306589 
L 482.625 400.306589 
L 483.823828 400.306589 
L 485.022656 404.746766 
L 486.221484 404.746766 
L 487.420313 404.746766 
L 488.619141 404.746766 
L 489.817969 404.746766 
L 491.016797 334.239997 
L 492.215625 404.746766 
L 493.414453 404.746766 
L 494.613281 404.746766 
L 495.812109 482.756494 
L 497.010938 482.756494 
L 498.209766 482.756494 
L 499.408594 482.756494 
L 500.607422 503.598512 
L 501.80625 135032.490349 
L 503.005078 463.095006 
L 504.203906 463.095006 
L 505.402734 463.095006 
L 506.601562 463.095006 
L 507.800391 463.095006 
L 508.999219 451.749653 
L 510.198047 451.749653 
L 511.396875 451.749653 
L 512.595703 451.749653 
L 513.794531 451.749653 
L 514.993359 451.749653 
L 516.192188 451.749653 
L 517.391016 451.749653 
L 518.589844 451.749653 
L 519.788672 482.756494 
L 520.9875 482.756494 
L 522.186328 482.756494 
L 523.385156 404.746766 
L 524.583984 482.756494 
L 525.782813 482.756494 
L 526.981641 482.756494 
L 528.180469 482.756494 
L 529.379297 482.756494 
L 530.578125 482.756494 
L 531.776953 482.756494 
L 532.975781 482.756494 
L 534.174609 482.756494 
L 535.373438 482.756494 
L 536.572266 482.756494 
L 537.771094 482.756494 
L 538.969922 482.756494 
L 540.16875 482.756494 
L 541.367578 482.756494 
L 542.566406 482.756494 
L 543.765234 482.756494 
L 544.964063 482.756494 
L 546.162891 482.756494 
L 547.361719 482.756494 
L 548.560547 482.756494 
L 549.759375 451.749653 
L 550.958203 451.749653 
L 552.157031 451.749653 
L 553.355859 451.749653 
L 554.554688 451.749653 
L 555.753516 451.749653 
L 556.952344 451.749653 
L 558.151172 451.749653 
L 559.35 451.749653 
L 560.548828 503.598512 
L 561.747656 503.598512 
L 562.946484 503.598512 
L 564.145313 503.598512 
L 565.344141 503.598512 
L 566.542969 135032.490349 
L 567.741797 135032.490349 
L 568.940625 135032.490349 
L 570.139453 135032.490349 
L 571.338281 135032.490349 
L 572.537109 135032.490349 
L 573.735938 135032.490349 
L 574.934766 135032.490349 
L 576.133594 135032.490349 
L 577.332422 503.598512 
L 578.53125 503.598512 
L 579.730078 503.598512 
L 580.928906 503.598512 
L 582.127734 503.598512 
L 583.326563 503.598512 
L 584.525391 503.598512 
L 585.724219 503.598512 
L 586.923047 503.598512 
L 588.121875 503.598512 
L 589.320703 503.598512 
L 590.519531 358.394962 
L 591.718359 358.394962 
L 592.917188 358.394962 
L 594.116016 135032.490349 
L 595.314844 135032.490349 
L 596.513672 135032.490349 
L 597.7125 135032.490349 
L 598.911328 503.598512 
L 600.110156 503.598512 
L 601.308984 503.598512 
L 602.507812 482.756494 
L 603.706641 482.756494 
L 604.905469 482.756494 
L 606.104297 482.756494 
L 607.303125 503.598512 
L 608.501953 482.756494 
L 609.700781 451.749653 
L 610.899609 451.749653 
L 612.098438 451.749653 
L 613.297266 451.749653 
L 614.496094 451.749653 
L 615.694922 442.252988 
L 616.89375 411.246147 
L 618.092578 411.246147 
L 619.291406 411.246147 
L 620.490234 411.246147 
L 621.689063 411.246147 
L 622.887891 411.246147 
L 624.086719 411.246147 
L 625.285547 411.246147 
L 626.484375 416.643909 
L 627.683203 416.643909 
L 628.882031 416.643909 
L 630.080859 416.643909 
L 631.279688 416.643909 
L 632.478516 503.598512 
L 633.677344 135032.490349 
L 634.876172 135032.490349 
L 636.075 135032.490349 
L 637.273828 135032.490349 
L 638.472656 135032.490349 
L 639.671484 135032.490349 
L 640.870313 135032.490349 
L 642.069141 135032.490349 
L 643.267969 135032.490349 
L 644.466797 135032.490349 
L 645.665625 135032.490349 
L 646.864453 135032.490349 
L 648.063281 135032.490349 
L 649.262109 135032.490349 
L 650.460938 135032.490349 
L 651.659766 135032.490349 
L 652.858594 135032.490349 
L 654.057422 135032.490349 
L 655.25625 135032.490349 
L 656.455078 135032.490349 
L 657.653906 135032.490349 
L 658.852734 135032.490349 
L 660.051563 503.598512 
L 661.250391 503.598512 
L 662.449219 135032.490349 
L 663.648047 135032.490349 
L 664.846875 135032.490349 
L 666.045703 135032.490349 
L 667.244531 135032.490349 
L 668.443359 503.598512 
L 669.642188 503.598512 
L 670.841016 503.598512 
L 672.039844 503.598512 
L 673.238672 503.598512 
L 674.4375 503.598512 
L 675.636328 503.598512 
L 676.835156 135032.490349 
L 678.033984 135032.490349 
L 679.232813 463.095006 
L 680.431641 463.095006 
L 681.630469 463.095006 
L 682.829297 442.252988 
L 684.028125 442.252988 
L 685.226953 463.095006 
L 686.425781 463.095006 
L 687.624609 463.095006 
L 688.823438 463.095006 
L 690.022266 463.095006 
L 691.221094 463.095006 
L 692.419922 463.095006 
L 693.61875 451.749653 
L 694.817578 451.749653 
L 696.016406 451.749653 
L 697.215234 451.749653 
L 698.414062 451.749653 
L 699.612891 503.598512 
L 700.811719 503.598512 
L 702.010547 451.749653 
L 703.209375 451.749653 
L 704.408203 442.252988 
L 705.607031 442.252988 
L 706.805859 442.252988 
L 708.004688 442.252988 
L 709.203516 442.252988 
L 710.402344 442.252988 
L 711.601172 424.716615 
L 712.8 424.716615 
L 712.8 135032.490349 
L 712.8 135032.490349 
L 711.601172 135032.490349 
L 710.402344 135032.490349 
L 709.203516 135032.490349 
L 708.004688 135032.490349 
L 706.805859 135032.490349 
L 705.607031 135032.490349 
L 704.408203 135032.490349 
L 703.209375 135032.490349 
L 702.010547 135032.490349 
L 700.811719 135032.490349 
L 699.612891 135032.490349 
L 698.414062 135032.490349 
L 697.215234 135032.490349 
L 696.016406 135032.490349 
L 694.817578 135032.490349 
L 693.61875 135032.490349 
L 692.419922 135032.490349 
L 691.221094 135032.490349 
L 690.022266 135032.490349 
L 688.823438 135032.490349 
L 687.624609 135032.490349 
L 686.425781 135032.490349 
L 685.226953 135032.490349 
L 684.028125 135032.490349 
L 682.829297 135032.490349 
L 681.630469 135032.490349 
L 680.431641 135032.490349 
L 679.232813 135032.490349 
L 678.033984 135032.490349 
L 676.835156 135032.490349 
L 675.636328 135032.490349 
L 674.4375 135032.490349 
L 673.238672 135032.490349 
L 672.039844 135032.490349 
L 670.841016 135032.490349 
L 669.642188 135032.490349 
L 668.443359 135032.490349 
L 667.244531 135032.490349 
L 666.045703 135032.490349 
L 664.846875 135032.490349 
L 663.648047 135032.490349 
L 662.449219 135032.490349 
L 661.250391 135032.490349 
L 660.051563 135032.490349 
L 658.852734 135032.490349 
L 657.653906 135032.490349 
L 656.455078 135032.490349 
L 655.25625 135032.490349 
L 654.057422 135032.490349 
L 652.858594 135032.490349 
L 651.659766 135032.490349 
L 650.460938 135032.490349 
L 649.262109 135032.490349 
L 648.063281 135032.490349 
L 646.864453 135032.490349 
L 645.665625 135032.490349 
L 644.466797 135032.490349 
L 643.267969 135032.490349 
L 642.069141 135032.490349 
L 640.870313 135032.490349 
L 639.671484 135032.490349 
L 638.472656 135032.490349 
L 637.273828 135032.490349 
L 636.075 135032.490349 
L 634.876172 135032.490349 
L 633.677344 135032.490349 
L 632.478516 135032.490349 
L 631.279688 135032.490349 
L 630.080859 135032.490349 
L 628.882031 135032.490349 
L 627.683203 135032.490349 
L 626.484375 135032.490349 
L 625.285547 135032.490349 
L 624.086719 135032.490349 
L 622.887891 135032.490349 
L 621.689063 135032.490349 
L 620.490234 135032.490349 
L 619.291406 135032.490349 
L 618.092578 135032.490349 
L 616.89375 135032.490349 
L 615.694922 135032.490349 
L 614.496094 135032.490349 
L 613.297266 135032.490349 
L 612.098438 135032.490349 
L 610.899609 135032.490349 
L 609.700781 135032.490349 
L 608.501953 135032.490349 
L 607.303125 135032.490349 
L 606.104297 135032.490349 
L 604.905469 135032.490349 
L 603.706641 135032.490349 
L 602.507812 135032.490349 
L 601.308984 135032.490349 
L 600.110156 135032.490349 
L 598.911328 135032.490349 
L 597.7125 135032.490349 
L 596.513672 135032.490349 
L 595.314844 135032.490349 
L 594.116016 135032.490349 
L 592.917188 135032.490349 
L 591.718359 135032.490349 
L 590.519531 135032.490349 
L 589.320703 135032.490349 
L 588.121875 135032.490349 
L 586.923047 135032.490349 
L 585.724219 135032.490349 
L 584.525391 135032.490349 
L 583.326563 135032.490349 
L 582.127734 135032.490349 
L 580.928906 135032.490349 
L 579.730078 135032.490349 
L 578.53125 135032.490349 
L 577.332422 135032.490349 
L 576.133594 135032.490349 
L 574.934766 135032.490349 
L 573.735938 135032.490349 
L 572.537109 135032.490349 
L 571.338281 135032.490349 
L 570.139453 135032.490349 
L 568.940625 135032.490349 
L 567.741797 135032.490349 
L 566.542969 135032.490349 
L 565.344141 135032.490349 
L 564.145313 135032.490349 
L 562.946484 135032.490349 
L 561.747656 135032.490349 
L 560.548828 135032.490349 
L 559.35 135032.490349 
L 558.151172 135032.490349 
L 556.952344 135032.490349 
L 555.753516 135032.490349 
L 554.554688 135032.490349 
L 553.355859 135032.490349 
L 552.157031 135032.490349 
L 550.958203 135032.490349 
L 549.759375 135032.490349 
L 548.560547 135032.490349 
L 547.361719 135032.490349 
L 546.162891 135032.490349 
L 544.964063 135032.490349 
L 543.765234 135032.490349 
L 542.566406 135032.490349 
L 541.367578 135032.490349 
L 540.16875 135032.490349 
L 538.969922 135032.490349 
L 537.771094 135032.490349 
L 536.572266 135032.490349 
L 535.373438 135032.490349 
L 534.174609 135032.490349 
L 532.975781 135032.490349 
L 531.776953 135032.490349 
L 530.578125 135032.490349 
L 529.379297 135032.490349 
L 528.180469 135032.490349 
L 526.981641 135032.490349 
L 525.782813 135032.490349 
L 524.583984 135032.490349 
L 523.385156 135032.490349 
L 522.186328 135032.490349 
L 520.9875 135032.490349 
L 519.788672 135032.490349 
L 518.589844 135032.490349 
L 517.391016 135032.490349 
L 516.192188 135032.490349 
L 514.993359 135032.490349 
L 513.794531 135032.490349 
L 512.595703 135032.490349 
L 511.396875 135032.490349 
L 510.198047 135032.490349 
L 508.999219 135032.490349 
L 507.800391 135032.490349 
L 506.601562 135032.490349 
L 505.402734 135032.490349 
L 504.203906 135032.490349 
L 503.005078 135032.490349 
L 501.80625 135032.490349 
L 500.607422 135032.490349 
L 499.408594 135032.490349 
L 498.209766 135032.490349 
L 497.010938 135032.490349 
L 495.812109 135032.490349 
L 494.613281 135032.490349 
L 493.414453 135032.490349 
L 492.215625 135032.490349 
L 491.016797 135032.490349 
L 489.817969 135032.490349 
L 488.619141 135032.490349 
L 487.420313 135032.490349 
L 486.221484 135032.490349 
L 485.022656 135032.490349 
L 483.823828 135032.490349 
L 482.625 135032.490349 
L 481.426172 135032.490349 
L 480.227344 135032.490349 
L 479.028516 135032.490349 
L 477.829688 135032.490349 
L 476.630859 135032.490349 
L 475.432031 135032.490349 
L 474.233203 135032.490349 
L 473.034375 135032.490349 
L 471.835547 135032.490349 
L 470.636719 135032.490349 
L 469.437891 135032.490349 
L 468.239063 135032.490349 
L 467.040234 135032.490349 
L 465.841406 135032.490349 
L 464.642578 135032.490349 
L 463.44375 135032.490349 
L 462.244922 135032.490349 
L 461.046094 135032.490349 
L 459.847266 135032.490349 
L 458.648438 135032.490349 
L 457.449609 135032.490349 
L 456.250781 135032.490349 
L 455.051953 135032.490349 
L 453.853125 135032.490349 
L 452.654297 135032.490349 
L 451.455469 135032.490349 
L 450.256641 135032.490349 
L 449.057813 135032.490349 
L 447.858984 135032.490349 
L 446.660156 135032.490349 
L 445.461328 135032.490349 
L 444.2625 135032.490349 
L 443.063672 135032.490349 
L 441.864844 135032.490349 
L 440.666016 135032.490349 
L 439.467188 135032.490349 
L 438.268359 135032.490349 
L 437.069531 135032.490349 
L 435.870703 135032.490349 
L 434.671875 488.913152 
L 433.473047 488.913152 
L 432.274219 135032.490349 
L 431.075391 135032.490349 
L 429.876563 135032.490349 
L 428.677734 135032.490349 
L 427.478906 135032.490349 
L 426.280078 135032.490349 
L 425.08125 135032.490349 
L 423.882422 135032.490349 
L 422.683594 135032.490349 
L 421.484766 135032.490349 
L 420.285938 135032.490349 
L 419.087109 135032.490349 
L 417.888281 135032.490349 
L 416.689453 135032.490349 
L 415.490625 135032.490349 
L 414.291797 135032.490349 
L 413.092969 135032.490349 
L 411.894141 135032.490349 
L 410.695312 135032.490349 
L 409.496484 135032.490349 
L 408.297656 135032.490349 
L 407.098828 135032.490349 
L 405.9 135032.490349 
L 404.701172 135032.490349 
L 403.502344 135032.490349 
L 402.303516 135032.490349 
L 401.104688 135032.490349 
L 399.905859 135032.490349 
L 398.707031 135032.490349 
L 397.508203 135032.490349 
L 396.309375 135032.490349 
L 395.110547 135032.490349 
L 393.911719 135032.490349 
L 392.712891 135032.490349 
L 391.514063 135032.490349 
L 390.315234 135032.490349 
L 389.116406 135032.490349 
L 387.917578 135032.490349 
L 386.71875 135032.490349 
L 385.519922 135032.490349 
L 384.321094 135032.490349 
L 383.122266 135032.490349 
L 381.923438 135032.490349 
L 380.724609 135032.490349 
L 379.525781 135032.490349 
L 378.326953 135032.490349 
L 377.128125 135032.490349 
L 375.929297 135032.490349 
L 374.730469 135032.490349 
L 373.531641 135032.490349 
L 372.332813 135032.490349 
L 371.133984 135032.490349 
L 369.935156 135032.490349 
L 368.736328 135032.490349 
L 367.5375 135032.490349 
L 366.338672 135032.490349 
L 365.139844 135032.490349 
L 363.941016 135032.490349 
L 362.742188 135032.490349 
L 361.543359 135032.490349 
L 360.344531 135032.490349 
L 359.145703 135032.490349 
L 357.946875 135032.490349 
L 356.748047 135032.490349 
L 355.549219 135032.490349 
L 354.350391 135032.490349 
L 353.151563 135032.490349 
L 351.952734 135032.490349 
L 350.753906 135032.490349 
L 349.555078 135032.490349 
L 348.35625 135032.490349 
L 347.157422 135032.490349 
L 345.958594 135032.490349 
L 344.759766 135032.490349 
L 343.560938 135032.490349 
L 342.362109 135032.490349 
L 341.163281 135032.490349 
L 339.964453 135032.490349 
L 338.765625 135032.490349 
L 337.566797 135032.490349 
L 336.367969 135032.490349 
L 335.169141 135032.490349 
L 333.970313 135032.490349 
L 332.771484 135032.490349 
L 331.572656 135032.490349 
L 330.373828 135032.490349 
L 329.175 135032.490349 
L 327.976172 135032.490349 
L 326.777344 135032.490349 
L 325.578516 135032.490349 
L 324.379688 135032.490349 
L 323.180859 135032.490349 
L 321.982031 135032.490349 
L 320.783203 135032.490349 
L 319.584375 135032.490349 
L 318.385547 135032.490349 
L 317.186719 135032.490349 
L 315.987891 135032.490349 
L 314.789062 135032.490349 
L 313.590234 135032.490349 
L 312.391406 135032.490349 
L 311.192578 135032.490349 
L 309.99375 135032.490349 
L 308.794922 135032.490349 
L 307.596094 135032.490349 
L 306.397266 135032.490349 
L 305.198438 135032.490349 
L 303.999609 135032.490349 
L 302.800781 135032.490349 
L 301.601953 135032.490349 
L 300.403125 135032.490349 
L 299.204297 135032.490349 
L 298.005469 135032.490349 
L 296.806641 135032.490349 
L 295.607813 135032.490349 
L 294.408984 135032.490349 
L 293.210156 135032.490349 
L 292.011328 135032.490349 
L 290.8125 135032.490349 
L 289.613672 135032.490349 
L 288.414844 135032.490349 
L 287.216016 135032.490349 
L 286.017188 135032.490349 
L 284.818359 135032.490349 
L 283.619531 135032.490349 
L 282.420703 135032.490349 
L 281.221875 135032.490349 
L 280.023047 135032.490349 
L 278.824219 135032.490349 
L 277.625391 135032.490349 
L 276.426563 135032.490349 
L 275.227734 135032.490349 
L 274.028906 135032.490349 
L 272.830078 135032.490349 
L 271.63125 135032.490349 
L 270.432422 135032.490349 
L 269.233594 135032.490349 
L 268.034766 135032.490349 
L 266.835938 135032.490349 
L 265.637109 135032.490349 
L 264.438281 135032.490349 
L 263.239453 135032.490349 
L 262.040625 135032.490349 
L 260.841797 135032.490349 
L 259.642969 135032.490349 
L 258.444141 135032.490349 
L 257.245313 135032.490349 
L 256.046484 135032.490349 
L 254.847656 135032.490349 
L 253.648828 135032.490349 
L 252.45 135032.490349 
L 251.251172 135032.490349 
L 250.052344 135032.490349 
L 248.853516 135032.490349 
L 247.654688 135032.490349 
L 246.455859 135032.490349 
L 245.257031 135032.490349 
L 244.058203 135032.490349 
L 242.859375 135032.490349 
L 241.660547 135032.490349 
L 240.461719 135032.490349 
L 239.262891 135032.490349 
L 238.064063 135032.490349 
L 236.865234 135032.490349 
L 235.666406 135032.490349 
L 234.467578 135032.490349 
L 233.26875 135032.490349 
L 232.069922 135032.490349 
L 230.871094 135032.490349 
L 229.672266 135032.490349 
L 228.473438 135032.490349 
L 227.274609 135032.490349 
L 226.075781 135032.490349 
L 224.876953 135032.490349 
L 223.678125 135032.490349 
L 222.479297 135032.490349 
L 221.280469 135032.490349 
L 220.081641 135032.490349 
L 218.882812 135032.490349 
L 217.683984 135032.490349 
L 216.485156 135032.490349 
L 215.286328 135032.490349 
L 214.0875 135032.490349 
L 212.888672 135032.490349 
L 211.689844 135032.490349 
L 210.491016 135032.490349 
L 209.292188 135032.490349 
L 208.093359 135032.490349 
L 206.894531 135032.490349 
L 205.695703 135032.490349 
L 204.496875 135032.490349 
L 203.298047 135032.490349 
L 202.099219 135032.490349 
L 200.900391 135032.490349 
L 199.701563 135032.490349 
L 198.502734 135032.490349 
L 197.303906 135032.490349 
L 196.105078 135032.490349 
L 194.90625 135032.490349 
L 193.707422 135032.490349 
L 192.508594 135032.490349 
L 191.309766 135032.490349 
L 190.110938 135032.490349 
L 188.912109 135032.490349 
L 187.713281 135032.490349 
L 186.514453 135032.490349 
L 185.315625 135032.490349 
L 184.116797 135032.490349 
L 182.917969 135032.490349 
L 181.719141 135032.490349 
L 180.520313 135032.490349 
L 179.321484 135032.490349 
L 178.122656 135032.490349 
L 176.923828 135032.490349 
L 175.725 135032.490349 
L 174.526172 135032.490349 
L 173.327344 135032.490349 
L 172.128516 135032.490349 
L 170.929688 135032.490349 
L 169.730859 135032.490349 
L 168.532031 135032.490349 
L 167.333203 135032.490349 
L 166.134375 135032.490349 
L 164.935547 135032.490349 
L 163.736719 135032.490349 
L 162.537891 135032.490349 
L 161.339063 135032.490349 
L 160.140234 135032.490349 
L 158.941406 135032.490349 
L 157.742578 135032.490349 
L 156.54375 135032.490349 
L 155.344922 135032.490349 
L 154.146094 135032.490349 
L 152.947266 135032.490349 
L 151.748438 135032.490349 
L 150.549609 135032.490349 
L 149.350781 135032.490349 
L 148.151953 135032.490349 
L 146.953125 135032.490349 
L 145.754297 135032.490349 
L 144.555469 135032.490349 
L 143.356641 135032.490349 
L 142.157813 135032.490349 
L 140.958984 135032.490349 
L 139.760156 135032.490349 
L 138.561328 135032.490349 
L 137.3625 135032.490349 
L 136.163672 135032.490349 
L 134.964844 135032.490349 
L 133.766016 135032.490349 
L 132.567188 135032.490349 
L 131.368359 135032.490349 
L 130.169531 135032.490349 
L 128.970703 135032.490349 
L 127.771875 135032.490349 
L 126.573047 135032.490349 
L 125.374219 135032.490349 
L 124.175391 135032.490349 
L 122.976562 135032.490349 
L 121.777734 135032.490349 
L 120.578906 135032.490349 
L 119.380078 135032.490349 
L 118.18125 135032.490349 
L 116.982422 135032.490349 
L 115.783594 135032.490349 
L 114.584766 135032.490349 
L 113.385938 135032.490349 
L 112.187109 135032.490349 
L 110.988281 135032.490349 
L 109.789453 135032.490349 
L 108.590625 135032.490349 
L 107.391797 135032.490349 
L 106.192969 135032.490349 
L 104.994141 135032.490349 
L 103.795313 135032.490349 
L 102.596484 135032.490349 
L 101.397656 135032.490349 
L 100.198828 135032.490349 
L 99 135032.490349 
z
" style="fill:#ff8080;fill-opacity:0.5;stroke:#ff8080;stroke-opacity:0.5;"/>
   </g>
   <g id="matplotlib.axis_1">
    <g id="xtick_1">
     <g id="line2d_1">
      <path clip-path="url(#p68e2955192)" d="M 99 544.68 
L 99 73.44 
" style="fill:none;stroke:#b0b0b0;stroke-linecap:square;stroke-width:0.8;"/>
     </g>
     <g id="line2d_2">
      <defs>
       <path d="M 0 0 
L 0 3.5 
" id="m4abed1d830" style="stroke:#000000;stroke-width:0.8;"/>
      </defs>
      <g>
       <use style="stroke:#000000;stroke-width:0.8;" x="99" xlink:href="#m4abed1d830" y="544.68"/>
      </g>
     </g>
    </g>
    <g id="xtick_2">
     <g id="line2d_3">
      <path clip-path="url(#p68e2955192)" d="M 122.976562 544.68 
L 122.976562 73.44 
" style="fill:none;stroke:#b0b0b0;stroke-linecap:square;stroke-width:0.8;"/>
     </g>
     <g id="line2d_4">
      <g>
       <use style="stroke:#000000;stroke-width:0.8;" x="122.976562" xlink:href="#m4abed1d830" y="544.68"/>
      </g>
     </g>
     <g id="text_1">
      <!-- Apr -->
      <g transform="translate(114.326562 559.278437)scale(0.1 -0.1)">
       <defs>
        <path d="M 2188 4044 
L 1331 1722 
L 3047 1722 
L 2188 4044 
z
M 1831 4666 
L 2547 4666 
L 4325 0 
L 3669 0 
L 3244 1197 
L 1141 1197 
L 716 0 
L 50 0 
L 1831 4666 
z
" id="DejaVuSans-41" transform="scale(0.015625)"/>
        <path d="M 1159 525 
L 1159 -1331 
L 581 -1331 
L 581 3500 
L 1159 3500 
L 1159 2969 
Q 1341 3281 1617 3432 
Q 1894 3584 2278 3584 
Q 2916 3584 3314 3078 
Q 3713 2572 3713 1747 
Q 3713 922 3314 415 
Q 2916 -91 2278 -91 
Q 1894 -91 1617 61 
Q 1341 213 1159 525 
z
M 3116 1747 
Q 3116 2381 2855 2742 
Q 2594 3103 2138 3103 
Q 1681 3103 1420 2742 
Q 1159 2381 1159 1747 
Q 1159 1113 1420 752 
Q 1681 391 2138 391 
Q 2594 391 2855 752 
Q 3116 1113 3116 1747 
z
" id="DejaVuSans-70" transform="scale(0.015625)"/>
        <path d="M 2631 2963 
Q 2534 3019 2420 3045 
Q 2306 3072 2169 3072 
Q 1681 3072 1420 2755 
Q 1159 2438 1159 1844 
L 1159 0 
L 581 0 
L 581 3500 
L 1159 3500 
L 1159 2956 
Q 1341 3275 1631 3429 
Q 1922 3584 2338 3584 
Q 2397 3584 2469 3576 
Q 2541 3569 2628 3553 
L 2631 2963 
z
" id="DejaVuSans-72" transform="scale(0.015625)"/>
       </defs>
       <use xlink:href="#DejaVuSans-41"/>
       <use x="68.408203" xlink:href="#DejaVuSans-70"/>
       <use x="131.884766" xlink:href="#DejaVuSans-72"/>
      </g>
     </g>
    </g>
    <g id="xtick_3">
     <g id="line2d_5">
      <path clip-path="url(#p68e2955192)" d="M 232.069922 544.68 
L 232.069922 73.44 
" style="fill:none;stroke:#b0b0b0;stroke-linecap:square;stroke-width:0.8;"/>
     </g>
     <g id="line2d_6">
      <g>
       <use style="stroke:#000000;stroke-width:0.8;" x="232.069922" xlink:href="#m4abed1d830" y="544.68"/>
      </g>
     </g>
     <g id="text_2">
      <!-- Jul -->
      <g transform="translate(226.037109 559.278437)scale(0.1 -0.1)">
       <defs>
        <path d="M 628 4666 
L 1259 4666 
L 1259 325 
Q 1259 -519 939 -900 
Q 619 -1281 -91 -1281 
L -331 -1281 
L -331 -750 
L -134 -750 
Q 284 -750 456 -515 
Q 628 -281 628 325 
L 628 4666 
z
" id="DejaVuSans-4a" transform="scale(0.015625)"/>
        <path d="M 544 1381 
L 544 3500 
L 1119 3500 
L 1119 1403 
Q 1119 906 1312 657 
Q 1506 409 1894 409 
Q 2359 409 2629 706 
Q 2900 1003 2900 1516 
L 2900 3500 
L 3475 3500 
L 3475 0 
L 2900 0 
L 2900 538 
Q 2691 219 2414 64 
Q 2138 -91 1772 -91 
Q 1169 -91 856 284 
Q 544 659 544 1381 
z
M 1991 3584 
L 1991 3584 
z
" id="DejaVuSans-75" transform="scale(0.015625)"/>
        <path d="M 603 4863 
L 1178 4863 
L 1178 0 
L 603 0 
L 603 4863 
z
" id="DejaVuSans-6c" transform="scale(0.015625)"/>
       </defs>
       <use xlink:href="#DejaVuSans-4a"/>
       <use x="29.492188" xlink:href="#DejaVuSans-75"/>
       <use x="92.871094" xlink:href="#DejaVuSans-6c"/>
      </g>
     </g>
    </g>
    <g id="xtick_4">
     <g id="line2d_7">
      <path clip-path="url(#p68e2955192)" d="M 342.362109 544.68 
L 342.362109 73.44 
" style="fill:none;stroke:#b0b0b0;stroke-linecap:square;stroke-width:0.8;"/>
     </g>
     <g id="line2d_8">
      <g>
       <use style="stroke:#000000;stroke-width:0.8;" x="342.362109" xlink:href="#m4abed1d830" y="544.68"/>
      </g>
     </g>
     <g id="text_3">
      <!-- Oct -->
      <g transform="translate(333.716797 559.278437)scale(0.1 -0.1)">
       <defs>
        <path d="M 2522 4238 
Q 1834 4238 1429 3725 
Q 1025 3213 1025 2328 
Q 1025 1447 1429 934 
Q 1834 422 2522 422 
Q 3209 422 3611 934 
Q 4013 1447 4013 2328 
Q 4013 3213 3611 3725 
Q 3209 4238 2522 4238 
z
M 2522 4750 
Q 3503 4750 4090 4092 
Q 4678 3434 4678 2328 
Q 4678 1225 4090 567 
Q 3503 -91 2522 -91 
Q 1538 -91 948 565 
Q 359 1222 359 2328 
Q 359 3434 948 4092 
Q 1538 4750 2522 4750 
z
" id="DejaVuSans-4f" transform="scale(0.015625)"/>
        <path d="M 3122 3366 
L 3122 2828 
Q 2878 2963 2633 3030 
Q 2388 3097 2138 3097 
Q 1578 3097 1268 2742 
Q 959 2388 959 1747 
Q 959 1106 1268 751 
Q 1578 397 2138 397 
Q 2388 397 2633 464 
Q 2878 531 3122 666 
L 3122 134 
Q 2881 22 2623 -34 
Q 2366 -91 2075 -91 
Q 1284 -91 818 406 
Q 353 903 353 1747 
Q 353 2603 823 3093 
Q 1294 3584 2113 3584 
Q 2378 3584 2631 3529 
Q 2884 3475 3122 3366 
z
" id="DejaVuSans-63" transform="scale(0.015625)"/>
        <path d="M 1172 4494 
L 1172 3500 
L 2356 3500 
L 2356 3053 
L 1172 3053 
L 1172 1153 
Q 1172 725 1289 603 
Q 1406 481 1766 481 
L 2356 481 
L 2356 0 
L 1766 0 
Q 1100 0 847 248 
Q 594 497 594 1153 
L 594 3053 
L 172 3053 
L 172 3500 
L 594 3500 
L 594 4494 
L 1172 4494 
z
" id="DejaVuSans-74" transform="scale(0.015625)"/>
       </defs>
       <use xlink:href="#DejaVuSans-4f"/>
       <use x="78.710938" xlink:href="#DejaVuSans-63"/>
       <use x="133.691406" xlink:href="#DejaVuSans-74"/>
      </g>
     </g>
    </g>
    <g id="xtick_5">
     <g id="line2d_9">
      <path clip-path="url(#p68e2955192)" d="M 452.654297 544.68 
L 452.654297 73.44 
" style="fill:none;stroke:#b0b0b0;stroke-linecap:square;stroke-width:0.8;"/>
     </g>
     <g id="line2d_10">
      <g>
       <use style="stroke:#000000;stroke-width:0.8;" x="452.654297" xlink:href="#m4abed1d830" y="544.68"/>
      </g>
     </g>
     <g id="text_4">
      <!-- Jan -->
      <g transform="translate(444.946484 559.278437)scale(0.1 -0.1)">
       <defs>
        <path d="M 2194 1759 
Q 1497 1759 1228 1600 
Q 959 1441 959 1056 
Q 959 750 1161 570 
Q 1363 391 1709 391 
Q 2188 391 2477 730 
Q 2766 1069 2766 1631 
L 2766 1759 
L 2194 1759 
z
M 3341 1997 
L 3341 0 
L 2766 0 
L 2766 531 
Q 2569 213 2275 61 
Q 1981 -91 1556 -91 
Q 1019 -91 701 211 
Q 384 513 384 1019 
Q 384 1609 779 1909 
Q 1175 2209 1959 2209 
L 2766 2209 
L 2766 2266 
Q 2766 2663 2505 2880 
Q 2244 3097 1772 3097 
Q 1472 3097 1187 3025 
Q 903 2953 641 2809 
L 641 3341 
Q 956 3463 1253 3523 
Q 1550 3584 1831 3584 
Q 2591 3584 2966 3190 
Q 3341 2797 3341 1997 
z
" id="DejaVuSans-61" transform="scale(0.015625)"/>
        <path d="M 3513 2113 
L 3513 0 
L 2938 0 
L 2938 2094 
Q 2938 2591 2744 2837 
Q 2550 3084 2163 3084 
Q 1697 3084 1428 2787 
Q 1159 2491 1159 1978 
L 1159 0 
L 581 0 
L 581 3500 
L 1159 3500 
L 1159 2956 
Q 1366 3272 1645 3428 
Q 1925 3584 2291 3584 
Q 2894 3584 3203 3211 
Q 3513 2838 3513 2113 
z
" id="DejaVuSans-6e" transform="scale(0.015625)"/>
       </defs>
       <use xlink:href="#DejaVuSans-4a"/>
       <use x="29.492188" xlink:href="#DejaVuSans-61"/>
       <use x="90.771484" xlink:href="#DejaVuSans-6e"/>
      </g>
      <!-- 2021 -->
      <g transform="translate(439.929297 570.47625)scale(0.1 -0.1)">
       <defs>
        <path d="M 1228 531 
L 3431 531 
L 3431 0 
L 469 0 
L 469 531 
Q 828 903 1448 1529 
Q 2069 2156 2228 2338 
Q 2531 2678 2651 2914 
Q 2772 3150 2772 3378 
Q 2772 3750 2511 3984 
Q 2250 4219 1831 4219 
Q 1534 4219 1204 4116 
Q 875 4013 500 3803 
L 500 4441 
Q 881 4594 1212 4672 
Q 1544 4750 1819 4750 
Q 2544 4750 2975 4387 
Q 3406 4025 3406 3419 
Q 3406 3131 3298 2873 
Q 3191 2616 2906 2266 
Q 2828 2175 2409 1742 
Q 1991 1309 1228 531 
z
" id="DejaVuSans-32" transform="scale(0.015625)"/>
        <path d="M 2034 4250 
Q 1547 4250 1301 3770 
Q 1056 3291 1056 2328 
Q 1056 1369 1301 889 
Q 1547 409 2034 409 
Q 2525 409 2770 889 
Q 3016 1369 3016 2328 
Q 3016 3291 2770 3770 
Q 2525 4250 2034 4250 
z
M 2034 4750 
Q 2819 4750 3233 4129 
Q 3647 3509 3647 2328 
Q 3647 1150 3233 529 
Q 2819 -91 2034 -91 
Q 1250 -91 836 529 
Q 422 1150 422 2328 
Q 422 3509 836 4129 
Q 1250 4750 2034 4750 
z
" id="DejaVuSans-30" transform="scale(0.015625)"/>
        <path d="M 794 531 
L 1825 531 
L 1825 4091 
L 703 3866 
L 703 4441 
L 1819 4666 
L 2450 4666 
L 2450 531 
L 3481 531 
L 3481 0 
L 794 0 
L 794 531 
z
" id="DejaVuSans-31" transform="scale(0.015625)"/>
       </defs>
       <use xlink:href="#DejaVuSans-32"/>
       <use x="63.623047" xlink:href="#DejaVuSans-30"/>
       <use x="127.246094" xlink:href="#DejaVuSans-32"/>
       <use x="190.869141" xlink:href="#DejaVuSans-31"/>
      </g>
     </g>
    </g>
    <g id="xtick_6">
     <g id="line2d_11">
      <path clip-path="url(#p68e2955192)" d="M 560.548828 544.68 
L 560.548828 73.44 
" style="fill:none;stroke:#b0b0b0;stroke-linecap:square;stroke-width:0.8;"/>
     </g>
     <g id="line2d_12">
      <g>
       <use style="stroke:#000000;stroke-width:0.8;" x="560.548828" xlink:href="#m4abed1d830" y="544.68"/>
      </g>
     </g>
     <g id="text_5">
      <!-- Apr -->
      <g transform="translate(551.898828 559.278437)scale(0.1 -0.1)">
       <use xlink:href="#DejaVuSans-41"/>
       <use x="68.408203" xlink:href="#DejaVuSans-70"/>
       <use x="131.884766" xlink:href="#DejaVuSans-72"/>
      </g>
     </g>
    </g>
    <g id="xtick_7">
     <g id="line2d_13">
      <path clip-path="url(#p68e2955192)" d="M 669.642188 544.68 
L 669.642188 73.44 
" style="fill:none;stroke:#b0b0b0;stroke-linecap:square;stroke-width:0.8;"/>
     </g>
     <g id="line2d_14">
      <g>
       <use style="stroke:#000000;stroke-width:0.8;" x="669.642188" xlink:href="#m4abed1d830" y="544.68"/>
      </g>
     </g>
     <g id="text_6">
      <!-- Jul -->
      <g transform="translate(663.609375 559.278437)scale(0.1 -0.1)">
       <use xlink:href="#DejaVuSans-4a"/>
       <use x="29.492188" xlink:href="#DejaVuSans-75"/>
       <use x="92.871094" xlink:href="#DejaVuSans-6c"/>
      </g>
     </g>
    </g>
    <g id="xtick_8">
     <g id="line2d_15">
      <path clip-path="url(#p68e2955192)" d="M 712.8 544.68 
L 712.8 73.44 
" style="fill:none;stroke:#b0b0b0;stroke-linecap:square;stroke-width:0.8;"/>
     </g>
     <g id="line2d_16">
      <g>
       <use style="stroke:#000000;stroke-width:0.8;" x="712.8" xlink:href="#m4abed1d830" y="544.68"/>
      </g>
     </g>
    </g>
    <g id="xtick_9">
     <g id="line2d_17">
      <defs>
       <path d="M 0 0 
L 0 2 
" id="mbe9820739d" style="stroke:#000000;stroke-width:0.6;"/>
      </defs>
      <g>
       <use style="stroke:#000000;stroke-width:0.6;" x="158.941406" xlink:href="#mbe9820739d" y="544.68"/>
      </g>
     </g>
    </g>
    <g id="xtick_10">
     <g id="line2d_18">
      <g>
       <use style="stroke:#000000;stroke-width:0.6;" x="196.105078" xlink:href="#mbe9820739d" y="544.68"/>
      </g>
     </g>
    </g>
    <g id="xtick_11">
     <g id="line2d_19">
      <g>
       <use style="stroke:#000000;stroke-width:0.6;" x="269.233594" xlink:href="#mbe9820739d" y="544.68"/>
      </g>
     </g>
    </g>
    <g id="xtick_12">
     <g id="line2d_20">
      <g>
       <use style="stroke:#000000;stroke-width:0.6;" x="306.397266" xlink:href="#mbe9820739d" y="544.68"/>
      </g>
     </g>
    </g>
    <g id="xtick_13">
     <g id="line2d_21">
      <g>
       <use style="stroke:#000000;stroke-width:0.6;" x="379.525781" xlink:href="#mbe9820739d" y="544.68"/>
      </g>
     </g>
    </g>
    <g id="xtick_14">
     <g id="line2d_22">
      <g>
       <use style="stroke:#000000;stroke-width:0.6;" x="415.490625" xlink:href="#mbe9820739d" y="544.68"/>
      </g>
     </g>
    </g>
    <g id="xtick_15">
     <g id="line2d_23">
      <g>
       <use style="stroke:#000000;stroke-width:0.6;" x="489.817969" xlink:href="#mbe9820739d" y="544.68"/>
      </g>
     </g>
    </g>
    <g id="xtick_16">
     <g id="line2d_24">
      <g>
       <use style="stroke:#000000;stroke-width:0.6;" x="523.385156" xlink:href="#mbe9820739d" y="544.68"/>
      </g>
     </g>
    </g>
    <g id="xtick_17">
     <g id="line2d_25">
      <g>
       <use style="stroke:#000000;stroke-width:0.6;" x="596.513672" xlink:href="#mbe9820739d" y="544.68"/>
      </g>
     </g>
    </g>
    <g id="xtick_18">
     <g id="line2d_26">
      <g>
       <use style="stroke:#000000;stroke-width:0.6;" x="633.677344" xlink:href="#mbe9820739d" y="544.68"/>
      </g>
     </g>
    </g>
    <g id="xtick_19">
     <g id="line2d_27">
      <g>
       <use style="stroke:#000000;stroke-width:0.6;" x="706.805859" xlink:href="#mbe9820739d" y="544.68"/>
      </g>
     </g>
    </g>
    <g id="text_7">
     <!-- Date -->
     <g transform="translate(393.949219 584.154375)scale(0.1 -0.1)">
      <defs>
       <path d="M 1259 4147 
L 1259 519 
L 2022 519 
Q 2988 519 3436 956 
Q 3884 1394 3884 2338 
Q 3884 3275 3436 3711 
Q 2988 4147 2022 4147 
L 1259 4147 
z
M 628 4666 
L 1925 4666 
Q 3281 4666 3915 4102 
Q 4550 3538 4550 2338 
Q 4550 1131 3912 565 
Q 3275 0 1925 0 
L 628 0 
L 628 4666 
z
" id="DejaVuSans-44" transform="scale(0.015625)"/>
       <path d="M 3597 1894 
L 3597 1613 
L 953 1613 
Q 991 1019 1311 708 
Q 1631 397 2203 397 
Q 2534 397 2845 478 
Q 3156 559 3463 722 
L 3463 178 
Q 3153 47 2828 -22 
Q 2503 -91 2169 -91 
Q 1331 -91 842 396 
Q 353 884 353 1716 
Q 353 2575 817 3079 
Q 1281 3584 2069 3584 
Q 2775 3584 3186 3129 
Q 3597 2675 3597 1894 
z
M 3022 2063 
Q 3016 2534 2758 2815 
Q 2500 3097 2075 3097 
Q 1594 3097 1305 2825 
Q 1016 2553 972 2059 
L 3022 2063 
z
" id="DejaVuSans-65" transform="scale(0.015625)"/>
      </defs>
      <use xlink:href="#DejaVuSans-44"/>
      <use x="77.001953" xlink:href="#DejaVuSans-61"/>
      <use x="138.28125" xlink:href="#DejaVuSans-74"/>
      <use x="177.490234" xlink:href="#DejaVuSans-65"/>
     </g>
    </g>
   </g>
   <g id="matplotlib.axis_2">
    <g id="ytick_1">
     <g id="line2d_28">
      <path clip-path="url(#p68e2955192)" d="M 99 482.756494 
L 712.8 482.756494 
" style="fill:none;stroke:#b0b0b0;stroke-linecap:square;stroke-width:0.8;"/>
     </g>
     <g id="line2d_29">
      <defs>
       <path d="M 0 0 
L -3.5 0 
" id="me91a084207" style="stroke:#000000;stroke-width:0.8;"/>
      </defs>
      <g>
       <use style="stroke:#000000;stroke-width:0.8;" x="99" xlink:href="#me91a084207" y="482.756494"/>
      </g>
     </g>
     <g id="text_8">
      <!-- $\mathdefault{10^{0}}$ -->
      <g transform="translate(74.4 486.555713)scale(0.1 -0.1)">
       <use transform="translate(0 0.765625)" xlink:href="#DejaVuSans-31"/>
       <use transform="translate(63.623047 0.765625)" xlink:href="#DejaVuSans-30"/>
       <use transform="translate(128.203125 39.046875)scale(0.7)" xlink:href="#DejaVuSans-30"/>
      </g>
     </g>
    </g>
    <g id="ytick_2">
     <g id="line2d_30">
      <path clip-path="url(#p68e2955192)" d="M 99 348.20676 
L 712.8 348.20676 
" style="fill:none;stroke:#b0b0b0;stroke-linecap:square;stroke-width:0.8;"/>
     </g>
     <g id="line2d_31">
      <g>
       <use style="stroke:#000000;stroke-width:0.8;" x="99" xlink:href="#me91a084207" y="348.20676"/>
      </g>
     </g>
     <g id="text_9">
      <!-- $\mathdefault{10^{1}}$ -->
      <g transform="translate(74.4 352.005979)scale(0.1 -0.1)">
       <use transform="translate(0 0.684375)" xlink:href="#DejaVuSans-31"/>
       <use transform="translate(63.623047 0.684375)" xlink:href="#DejaVuSans-30"/>
       <use transform="translate(128.203125 38.965625)scale(0.7)" xlink:href="#DejaVuSans-31"/>
      </g>
     </g>
    </g>
    <g id="ytick_3">
     <g id="line2d_32">
      <path clip-path="url(#p68e2955192)" d="M 99 213.657026 
L 712.8 213.657026 
" style="fill:none;stroke:#b0b0b0;stroke-linecap:square;stroke-width:0.8;"/>
     </g>
     <g id="line2d_33">
      <g>
       <use style="stroke:#000000;stroke-width:0.8;" x="99" xlink:href="#me91a084207" y="213.657026"/>
      </g>
     </g>
     <g id="text_10">
      <!-- $\mathdefault{10^{2}}$ -->
      <g transform="translate(74.4 217.456245)scale(0.1 -0.1)">
       <use transform="translate(0 0.765625)" xlink:href="#DejaVuSans-31"/>
       <use transform="translate(63.623047 0.765625)" xlink:href="#DejaVuSans-30"/>
       <use transform="translate(128.203125 39.046875)scale(0.7)" xlink:href="#DejaVuSans-32"/>
      </g>
     </g>
    </g>
    <g id="ytick_4">
     <g id="line2d_34">
      <path clip-path="url(#p68e2955192)" d="M 99 79.107293 
L 712.8 79.107293 
" style="fill:none;stroke:#b0b0b0;stroke-linecap:square;stroke-width:0.8;"/>
     </g>
     <g id="line2d_35">
      <g>
       <use style="stroke:#000000;stroke-width:0.8;" x="99" xlink:href="#me91a084207" y="79.107293"/>
      </g>
     </g>
     <g id="text_11">
      <!-- $\mathdefault{10^{3}}$ -->
      <g transform="translate(74.4 82.906511)scale(0.1 -0.1)">
       <defs>
        <path d="M 2597 2516 
Q 3050 2419 3304 2112 
Q 3559 1806 3559 1356 
Q 3559 666 3084 287 
Q 2609 -91 1734 -91 
Q 1441 -91 1130 -33 
Q 819 25 488 141 
L 488 750 
Q 750 597 1062 519 
Q 1375 441 1716 441 
Q 2309 441 2620 675 
Q 2931 909 2931 1356 
Q 2931 1769 2642 2001 
Q 2353 2234 1838 2234 
L 1294 2234 
L 1294 2753 
L 1863 2753 
Q 2328 2753 2575 2939 
Q 2822 3125 2822 3475 
Q 2822 3834 2567 4026 
Q 2313 4219 1838 4219 
Q 1578 4219 1281 4162 
Q 984 4106 628 3988 
L 628 4550 
Q 988 4650 1302 4700 
Q 1616 4750 1894 4750 
Q 2613 4750 3031 4423 
Q 3450 4097 3450 3541 
Q 3450 3153 3228 2886 
Q 3006 2619 2597 2516 
z
" id="DejaVuSans-33" transform="scale(0.015625)"/>
       </defs>
       <use transform="translate(0 0.765625)" xlink:href="#DejaVuSans-31"/>
       <use transform="translate(63.623047 0.765625)" xlink:href="#DejaVuSans-30"/>
       <use transform="translate(128.203125 39.046875)scale(0.7)" xlink:href="#DejaVuSans-33"/>
      </g>
     </g>
    </g>
    <g id="ytick_5">
     <g id="line2d_36">
      <path clip-path="url(#p68e2955192)" d="M 99 536.299216 
L 712.8 536.299216 
" style="fill:none;stroke:#b0b0b0;stroke-linecap:square;stroke-width:0.8;"/>
     </g>
     <g id="line2d_37">
      <defs>
       <path d="M 0 0 
L -2 0 
" id="m0cb60b688e" style="stroke:#000000;stroke-width:0.6;"/>
      </defs>
      <g>
       <use style="stroke:#000000;stroke-width:0.6;" x="99" xlink:href="#m0cb60b688e" y="536.299216"/>
      </g>
     </g>
    </g>
    <g id="ytick_6">
     <g id="line2d_38">
      <path clip-path="url(#p68e2955192)" d="M 99 523.26 
L 712.8 523.26 
" style="fill:none;stroke:#b0b0b0;stroke-linecap:square;stroke-width:0.8;"/>
     </g>
     <g id="line2d_39">
      <g>
       <use style="stroke:#000000;stroke-width:0.6;" x="99" xlink:href="#m0cb60b688e" y="523.26"/>
      </g>
     </g>
    </g>
    <g id="ytick_7">
     <g id="line2d_40">
      <path clip-path="url(#p68e2955192)" d="M 99 512.606184 
L 712.8 512.606184 
" style="fill:none;stroke:#b0b0b0;stroke-linecap:square;stroke-width:0.8;"/>
     </g>
     <g id="line2d_41">
      <g>
       <use style="stroke:#000000;stroke-width:0.6;" x="99" xlink:href="#m0cb60b688e" y="512.606184"/>
      </g>
     </g>
    </g>
    <g id="ytick_8">
     <g id="line2d_42">
      <path clip-path="url(#p68e2955192)" d="M 99 503.598512 
L 712.8 503.598512 
" style="fill:none;stroke:#b0b0b0;stroke-linecap:square;stroke-width:0.8;"/>
     </g>
     <g id="line2d_43">
      <g>
       <use style="stroke:#000000;stroke-width:0.6;" x="99" xlink:href="#m0cb60b688e" y="503.598512"/>
      </g>
     </g>
    </g>
    <g id="ytick_9">
     <g id="line2d_44">
      <path clip-path="url(#p68e2955192)" d="M 99 495.795711 
L 712.8 495.795711 
" style="fill:none;stroke:#b0b0b0;stroke-linecap:square;stroke-width:0.8;"/>
     </g>
     <g id="line2d_45">
      <g>
       <use style="stroke:#000000;stroke-width:0.6;" x="99" xlink:href="#m0cb60b688e" y="495.795711"/>
      </g>
     </g>
    </g>
    <g id="ytick_10">
     <g id="line2d_46">
      <path clip-path="url(#p68e2955192)" d="M 99 488.913152 
L 712.8 488.913152 
" style="fill:none;stroke:#b0b0b0;stroke-linecap:square;stroke-width:0.8;"/>
     </g>
     <g id="line2d_47">
      <g>
       <use style="stroke:#000000;stroke-width:0.6;" x="99" xlink:href="#m0cb60b688e" y="488.913152"/>
      </g>
     </g>
    </g>
    <g id="ytick_11">
     <g id="line2d_48">
      <path clip-path="url(#p68e2955192)" d="M 99 442.252988 
L 712.8 442.252988 
" style="fill:none;stroke:#b0b0b0;stroke-linecap:square;stroke-width:0.8;"/>
     </g>
     <g id="line2d_49">
      <g>
       <use style="stroke:#000000;stroke-width:0.6;" x="99" xlink:href="#m0cb60b688e" y="442.252988"/>
      </g>
     </g>
    </g>
    <g id="ytick_12">
     <g id="line2d_50">
      <path clip-path="url(#p68e2955192)" d="M 99 418.559956 
L 712.8 418.559956 
" style="fill:none;stroke:#b0b0b0;stroke-linecap:square;stroke-width:0.8;"/>
     </g>
     <g id="line2d_51">
      <g>
       <use style="stroke:#000000;stroke-width:0.6;" x="99" xlink:href="#m0cb60b688e" y="418.559956"/>
      </g>
     </g>
    </g>
    <g id="ytick_13">
     <g id="line2d_52">
      <path clip-path="url(#p68e2955192)" d="M 99 401.749483 
L 712.8 401.749483 
" style="fill:none;stroke:#b0b0b0;stroke-linecap:square;stroke-width:0.8;"/>
     </g>
     <g id="line2d_53">
      <g>
       <use style="stroke:#000000;stroke-width:0.6;" x="99" xlink:href="#m0cb60b688e" y="401.749483"/>
      </g>
     </g>
    </g>
    <g id="ytick_14">
     <g id="line2d_54">
      <path clip-path="url(#p68e2955192)" d="M 99 388.710266 
L 712.8 388.710266 
" style="fill:none;stroke:#b0b0b0;stroke-linecap:square;stroke-width:0.8;"/>
     </g>
     <g id="line2d_55">
      <g>
       <use style="stroke:#000000;stroke-width:0.6;" x="99" xlink:href="#m0cb60b688e" y="388.710266"/>
      </g>
     </g>
    </g>
    <g id="ytick_15">
     <g id="line2d_56">
      <path clip-path="url(#p68e2955192)" d="M 99 378.056451 
L 712.8 378.056451 
" style="fill:none;stroke:#b0b0b0;stroke-linecap:square;stroke-width:0.8;"/>
     </g>
     <g id="line2d_57">
      <g>
       <use style="stroke:#000000;stroke-width:0.6;" x="99" xlink:href="#m0cb60b688e" y="378.056451"/>
      </g>
     </g>
    </g>
    <g id="ytick_16">
     <g id="line2d_58">
      <path clip-path="url(#p68e2955192)" d="M 99 369.048778 
L 712.8 369.048778 
" style="fill:none;stroke:#b0b0b0;stroke-linecap:square;stroke-width:0.8;"/>
     </g>
     <g id="line2d_59">
      <g>
       <use style="stroke:#000000;stroke-width:0.6;" x="99" xlink:href="#m0cb60b688e" y="369.048778"/>
      </g>
     </g>
    </g>
    <g id="ytick_17">
     <g id="line2d_60">
      <path clip-path="url(#p68e2955192)" d="M 99 361.245977 
L 712.8 361.245977 
" style="fill:none;stroke:#b0b0b0;stroke-linecap:square;stroke-width:0.8;"/>
     </g>
     <g id="line2d_61">
      <g>
       <use style="stroke:#000000;stroke-width:0.6;" x="99" xlink:href="#m0cb60b688e" y="361.245977"/>
      </g>
     </g>
    </g>
    <g id="ytick_18">
     <g id="line2d_62">
      <path clip-path="url(#p68e2955192)" d="M 99 354.363419 
L 712.8 354.363419 
" style="fill:none;stroke:#b0b0b0;stroke-linecap:square;stroke-width:0.8;"/>
     </g>
     <g id="line2d_63">
      <g>
       <use style="stroke:#000000;stroke-width:0.6;" x="99" xlink:href="#m0cb60b688e" y="354.363419"/>
      </g>
     </g>
    </g>
    <g id="ytick_19">
     <g id="line2d_64">
      <path clip-path="url(#p68e2955192)" d="M 99 307.703255 
L 712.8 307.703255 
" style="fill:none;stroke:#b0b0b0;stroke-linecap:square;stroke-width:0.8;"/>
     </g>
     <g id="line2d_65">
      <g>
       <use style="stroke:#000000;stroke-width:0.6;" x="99" xlink:href="#m0cb60b688e" y="307.703255"/>
      </g>
     </g>
    </g>
    <g id="ytick_20">
     <g id="line2d_66">
      <path clip-path="url(#p68e2955192)" d="M 99 284.010223 
L 712.8 284.010223 
" style="fill:none;stroke:#b0b0b0;stroke-linecap:square;stroke-width:0.8;"/>
     </g>
     <g id="line2d_67">
      <g>
       <use style="stroke:#000000;stroke-width:0.6;" x="99" xlink:href="#m0cb60b688e" y="284.010223"/>
      </g>
     </g>
    </g>
    <g id="ytick_21">
     <g id="line2d_68">
      <path clip-path="url(#p68e2955192)" d="M 99 267.199749 
L 712.8 267.199749 
" style="fill:none;stroke:#b0b0b0;stroke-linecap:square;stroke-width:0.8;"/>
     </g>
     <g id="line2d_69">
      <g>
       <use style="stroke:#000000;stroke-width:0.6;" x="99" xlink:href="#m0cb60b688e" y="267.199749"/>
      </g>
     </g>
    </g>
    <g id="ytick_22">
     <g id="line2d_70">
      <path clip-path="url(#p68e2955192)" d="M 99 254.160532 
L 712.8 254.160532 
" style="fill:none;stroke:#b0b0b0;stroke-linecap:square;stroke-width:0.8;"/>
     </g>
     <g id="line2d_71">
      <g>
       <use style="stroke:#000000;stroke-width:0.6;" x="99" xlink:href="#m0cb60b688e" y="254.160532"/>
      </g>
     </g>
    </g>
    <g id="ytick_23">
     <g id="line2d_72">
      <path clip-path="url(#p68e2955192)" d="M 99 243.506717 
L 712.8 243.506717 
" style="fill:none;stroke:#b0b0b0;stroke-linecap:square;stroke-width:0.8;"/>
     </g>
     <g id="line2d_73">
      <g>
       <use style="stroke:#000000;stroke-width:0.6;" x="99" xlink:href="#m0cb60b688e" y="243.506717"/>
      </g>
     </g>
    </g>
    <g id="ytick_24">
     <g id="line2d_74">
      <path clip-path="url(#p68e2955192)" d="M 99 234.499044 
L 712.8 234.499044 
" style="fill:none;stroke:#b0b0b0;stroke-linecap:square;stroke-width:0.8;"/>
     </g>
     <g id="line2d_75">
      <g>
       <use style="stroke:#000000;stroke-width:0.6;" x="99" xlink:href="#m0cb60b688e" y="234.499044"/>
      </g>
     </g>
    </g>
    <g id="ytick_25">
     <g id="line2d_76">
      <path clip-path="url(#p68e2955192)" d="M 99 226.696243 
L 712.8 226.696243 
" style="fill:none;stroke:#b0b0b0;stroke-linecap:square;stroke-width:0.8;"/>
     </g>
     <g id="line2d_77">
      <g>
       <use style="stroke:#000000;stroke-width:0.6;" x="99" xlink:href="#m0cb60b688e" y="226.696243"/>
      </g>
     </g>
    </g>
    <g id="ytick_26">
     <g id="line2d_78">
      <path clip-path="url(#p68e2955192)" d="M 99 219.813685 
L 712.8 219.813685 
" style="fill:none;stroke:#b0b0b0;stroke-linecap:square;stroke-width:0.8;"/>
     </g>
     <g id="line2d_79">
      <g>
       <use style="stroke:#000000;stroke-width:0.6;" x="99" xlink:href="#m0cb60b688e" y="219.813685"/>
      </g>
     </g>
    </g>
    <g id="ytick_27">
     <g id="line2d_80">
      <path clip-path="url(#p68e2955192)" d="M 99 173.153521 
L 712.8 173.153521 
" style="fill:none;stroke:#b0b0b0;stroke-linecap:square;stroke-width:0.8;"/>
     </g>
     <g id="line2d_81">
      <g>
       <use style="stroke:#000000;stroke-width:0.6;" x="99" xlink:href="#m0cb60b688e" y="173.153521"/>
      </g>
     </g>
    </g>
    <g id="ytick_28">
     <g id="line2d_82">
      <path clip-path="url(#p68e2955192)" d="M 99 149.460489 
L 712.8 149.460489 
" style="fill:none;stroke:#b0b0b0;stroke-linecap:square;stroke-width:0.8;"/>
     </g>
     <g id="line2d_83">
      <g>
       <use style="stroke:#000000;stroke-width:0.6;" x="99" xlink:href="#m0cb60b688e" y="149.460489"/>
      </g>
     </g>
    </g>
    <g id="ytick_29">
     <g id="line2d_84">
      <path clip-path="url(#p68e2955192)" d="M 99 132.650015 
L 712.8 132.650015 
" style="fill:none;stroke:#b0b0b0;stroke-linecap:square;stroke-width:0.8;"/>
     </g>
     <g id="line2d_85">
      <g>
       <use style="stroke:#000000;stroke-width:0.6;" x="99" xlink:href="#m0cb60b688e" y="132.650015"/>
      </g>
     </g>
    </g>
    <g id="ytick_30">
     <g id="line2d_86">
      <path clip-path="url(#p68e2955192)" d="M 99 119.610798 
L 712.8 119.610798 
" style="fill:none;stroke:#b0b0b0;stroke-linecap:square;stroke-width:0.8;"/>
     </g>
     <g id="line2d_87">
      <g>
       <use style="stroke:#000000;stroke-width:0.6;" x="99" xlink:href="#m0cb60b688e" y="119.610798"/>
      </g>
     </g>
    </g>
    <g id="ytick_31">
     <g id="line2d_88">
      <path clip-path="url(#p68e2955192)" d="M 99 108.956983 
L 712.8 108.956983 
" style="fill:none;stroke:#b0b0b0;stroke-linecap:square;stroke-width:0.8;"/>
     </g>
     <g id="line2d_89">
      <g>
       <use style="stroke:#000000;stroke-width:0.6;" x="99" xlink:href="#m0cb60b688e" y="108.956983"/>
      </g>
     </g>
    </g>
    <g id="ytick_32">
     <g id="line2d_90">
      <path clip-path="url(#p68e2955192)" d="M 99 99.94931 
L 712.8 99.94931 
" style="fill:none;stroke:#b0b0b0;stroke-linecap:square;stroke-width:0.8;"/>
     </g>
     <g id="line2d_91">
      <g>
       <use style="stroke:#000000;stroke-width:0.6;" x="99" xlink:href="#m0cb60b688e" y="99.94931"/>
      </g>
     </g>
    </g>
    <g id="ytick_33">
     <g id="line2d_92">
      <path clip-path="url(#p68e2955192)" d="M 99 92.146509 
L 712.8 92.146509 
" style="fill:none;stroke:#b0b0b0;stroke-linecap:square;stroke-width:0.8;"/>
     </g>
     <g id="line2d_93">
      <g>
       <use style="stroke:#000000;stroke-width:0.6;" x="99" xlink:href="#m0cb60b688e" y="92.146509"/>
      </g>
     </g>
    </g>
    <g id="ytick_34">
     <g id="line2d_94">
      <path clip-path="url(#p68e2955192)" d="M 99 85.263951 
L 712.8 85.263951 
" style="fill:none;stroke:#b0b0b0;stroke-linecap:square;stroke-width:0.8;"/>
     </g>
     <g id="line2d_95">
      <g>
       <use style="stroke:#000000;stroke-width:0.6;" x="99" xlink:href="#m0cb60b688e" y="85.263951"/>
      </g>
     </g>
    </g>
   </g>
   <g id="line2d_96">
    <path clip-path="url(#p68e2955192)" d="M 114.583129 613 
L 114.584766 429.213772 
L 115.783594 418.559956 
L 116.982422 418.559956 
L 118.18125 394.866924 
L 119.380078 373.379218 
L 120.578906 373.379218 
L 121.777734 357.703425 
L 122.976562 348.20676 
L 125.374219 348.20676 
L 126.573047 342.637386 
L 127.771875 335.167544 
L 128.970703 342.637386 
L 130.169531 335.167544 
L 132.567188 335.167544 
L 133.766016 340.039882 
L 134.964844 342.637386 
L 137.3625 342.637386 
L 138.561328 345.355746 
L 140.958984 345.355746 
L 142.157813 348.20676 
L 143.356641 354.363419 
L 144.555469 357.703425 
L 145.754297 357.703425 
L 146.953125 361.245977 
L 148.151953 361.245977 
L 149.350781 365.017234 
L 150.549609 373.379218 
L 151.748438 383.140891 
L 152.947266 388.710266 
L 155.344922 388.710266 
L 156.54375 394.866924 
L 157.742578 401.749483 
L 158.941406 401.749483 
L 160.140234 418.559956 
L 161.339063 429.213772 
L 162.537891 429.213772 
L 163.736719 442.252988 
L 166.134375 442.252988 
L 167.333203 429.213772 
L 169.730859 429.213772 
L 170.929688 442.252988 
L 172.128516 442.252988 
L 173.327344 459.063462 
L 174.526172 442.252988 
L 175.725 459.063462 
L 176.923828 442.252988 
L 178.122656 442.252988 
L 179.321484 429.213772 
L 180.520313 429.213772 
L 181.719141 418.559956 
L 182.917969 429.213772 
L 184.116797 442.252988 
L 185.315625 429.213772 
L 186.514453 429.213772 
L 187.713281 418.559956 
L 194.90625 418.559956 
L 196.105078 409.552284 
L 197.303906 394.866924 
L 198.502734 388.710266 
L 199.701563 383.140891 
L 200.900391 373.379218 
L 202.099219 348.20676 
L 203.298047 342.637386 
L 204.496875 330.670386 
L 205.695703 330.670386 
L 206.894531 318.944354 
L 208.093359 310.700538 
L 209.292188 307.703255 
L 210.491016 303.477254 
L 211.689844 307.703255 
L 212.888672 307.703255 
L 214.0875 310.700538 
L 215.286328 306.260361 
L 216.485156 310.700538 
L 217.683984 310.700538 
L 218.882812 306.260361 
L 221.280469 306.260361 
L 222.479297 302.13388 
L 223.678125 303.477254 
L 224.876953 303.477254 
L 226.075781 300.820696 
L 227.274609 300.820696 
L 228.473438 295.844567 
L 232.069922 292.372207 
L 233.26875 288.041766 
L 234.467578 281.159208 
L 235.666406 275.843344 
L 238.064063 275.843344 
L 239.262891 279.33299 
L 240.461719 270.971006 
L 241.660547 270.971006 
L 242.859375 260.970093 
L 244.058203 256.545933 
L 245.257031 255.341061 
L 246.455859 254.747816 
L 248.853516 249.124807 
L 250.052344 247.018842 
L 251.251172 249.124807 
L 252.45 247.53826 
L 253.648828 243.995709 
L 256.046484 232.448511 
L 257.245313 230.4675 
L 262.040625 230.4675 
L 263.239453 223.153691 
L 264.438281 214.24431 
L 265.637109 214.24431 
L 266.835938 209.431026 
L 268.034766 206.000494 
L 269.233594 204.23345 
L 270.432422 204.23345 
L 272.830078 207.822644 
L 276.426563 207.822644 
L 277.625391 214.837556 
L 278.824219 216.042427 
L 280.023047 220.795795 
L 281.221875 224.898125 
L 282.420703 232.046899 
L 287.216016 232.046899 
L 288.414844 237.937342 
L 289.613672 237.496327 
L 290.8125 235.764816 
L 292.011328 228.551453 
L 293.210156 228.175669 
L 294.408984 228.175669 
L 295.607813 234.08314 
L 302.800781 234.08314 
L 303.999609 234.499044 
L 306.397266 234.499044 
L 307.596094 234.08314 
L 308.794922 234.08314 
L 309.99375 233.670176 
L 311.192578 233.670176 
L 312.391406 229.310349 
L 315.987891 229.310349 
L 317.186719 226.332166 
L 320.783203 226.332166 
L 321.982031 224.545048 
L 326.777344 224.545048 
L 327.976172 225.970343 
L 336.367969 225.970343 
L 337.566797 221.126868 
L 338.765625 214.837556 
L 339.964453 209.159869 
L 341.163281 209.159869 
L 342.362109 206.515336 
L 343.560938 206.515336 
L 344.759766 204.732891 
L 345.958594 203.985322 
L 348.35625 200.384539 
L 349.555078 199.690263 
L 350.753906 199.690263 
L 351.952734 198.551159 
L 353.151563 196.992821 
L 354.350391 193.995538 
L 355.549219 191.543393 
L 356.748047 189.575726 
L 357.946875 189.575726 
L 359.145703 186.192737 
L 360.344531 181.797116 
L 361.543359 177.867286 
L 362.742188 176.613957 
L 363.941016 176.613957 
L 365.139844 173.007617 
L 366.338672 171.143301 
L 367.5375 170.163542 
L 368.736328 169.610969 
L 371.133984 169.610969 
L 373.531641 166.01183 
L 374.730469 165.113812 
L 375.929297 159.186758 
L 377.128125 147.075088 
L 378.326953 140.286099 
L 380.724609 140.036912 
L 381.923438 138.969216 
L 383.122266 137.522353 
L 384.321094 137.522353 
L 385.519922 136.033004 
L 386.71875 134.959379 
L 387.917578 134.959379 
L 389.116406 134.354621 
L 390.315234 132.504112 
L 392.712891 124.673994 
L 393.911719 122.546604 
L 395.110547 121.150188 
L 396.309375 118.798393 
L 397.508203 117.15065 
L 398.707031 116.482186 
L 399.905859 115.384798 
L 403.502344 115.384798 
L 404.701172 114.307639 
L 405.9 114.307639 
L 407.098828 112.469108 
L 408.297656 110.937993 
L 413.092969 110.937993 
L 414.291797 112.262626 
L 415.490625 113.829321 
L 416.689453 112.262626 
L 417.888281 109.103251 
L 419.087109 105.003403 
L 420.285938 105.003403 
L 421.484766 102.552506 
L 423.882422 102.552506 
L 425.08125 105.003403 
L 426.280078 104.145058 
L 427.478906 105.967005 
L 428.677734 106.852741 
L 429.876563 105.967005 
L 432.274219 105.967005 
L 433.473047 107.13526 
L 435.870703 110.937993 
L 437.069531 114.414466 
L 438.268359 118.282035 
L 439.467188 118.856049 
L 440.666016 123.663215 
L 443.063672 131.780011 
L 444.2625 136.890626 
L 445.461328 137.840796 
L 446.660156 140.703786 
L 447.858984 146.055591 
L 451.455469 146.055591 
L 452.654297 152.049139 
L 453.853125 152.049139 
L 455.051953 149.753393 
L 456.250781 149.753393 
L 457.449609 152.355345 
L 458.648438 152.355345 
L 461.046094 147.075088 
L 462.244922 148.017595 
L 463.44375 148.303338 
L 465.841406 148.303338 
L 467.040234 151.441499 
L 468.239063 151.441499 
L 469.437891 149.55796 
L 470.636719 151.441499 
L 471.835547 152.869282 
L 474.233203 152.869282 
L 475.432031 155.942686 
L 476.630859 165.625274 
L 477.829688 165.625274 
L 479.028516 166.400961 
L 480.227344 175.386947 
L 482.625 175.386947 
L 483.823828 178.825245 
L 485.022656 178.825245 
L 486.221484 179.310179 
L 487.420313 181.627987 
L 488.619141 184.571962 
L 491.016797 184.571962 
L 492.215625 182.478572 
L 494.613281 182.478572 
L 497.010938 193.995538 
L 498.209766 185.286762 
L 499.408594 185.286762 
L 500.607422 184.928269 
L 501.80625 190.946105 
L 503.005078 190.946105 
L 504.203906 193.372788 
L 505.402734 193.787216 
L 506.601562 193.787216 
L 507.800391 188.616194 
L 508.999219 195.048435 
L 514.993359 195.048435 
L 516.192188 212.499876 
L 517.391016 212.499876 
L 518.589844 209.977144 
L 519.788672 224.545048 
L 522.186328 224.545048 
L 523.385156 191.945005 
L 524.583984 197.212913 
L 525.782813 183.8658 
L 526.981641 189.575726 
L 528.180469 190.748358 
L 540.16875 190.748358 
L 541.367578 199.460659 
L 543.765234 199.460659 
L 544.964063 210.806012 
L 548.560547 210.806012 
L 549.759375 198.551159 
L 550.958203 197.878205 
L 552.157031 199.690263 
L 553.355859 189.575726 
L 555.753516 189.575726 
L 556.952344 200.61781 
L 558.151172 189.575726 
L 559.35 189.575726 
L 560.548828 187.859753 
L 561.747656 182.307462 
L 565.344141 182.307462 
L 566.542969 187.859753 
L 567.741797 187.859753 
L 568.940625 180.956322 
L 570.139453 178.344302 
L 572.537109 178.344302 
L 573.735938 170.163542 
L 574.934766 178.344302 
L 576.133594 173.007617 
L 577.332422 174.33405 
L 578.53125 175.844062 
L 585.724219 175.844062 
L 586.923047 182.136851 
L 590.519531 182.136851 
L 591.718359 183.16807 
L 592.917188 183.690585 
L 594.116016 186.927768 
L 595.314844 192.349395 
L 601.308984 192.349395 
L 602.507812 194.624997 
L 603.706641 199.920773 
L 607.303125 199.920773 
L 608.501953 210.252129 
L 609.700781 217.272667 
L 610.899609 219.813685 
L 615.694922 219.813685 
L 616.89375 223.845228 
L 618.092578 223.845228 
L 619.291406 227.802286 
L 620.490234 233.26011 
L 625.285547 233.26011 
L 627.683203 242.54084 
L 628.882031 249.663375 
L 631.279688 249.663375 
L 632.478516 256.545933 
L 633.677344 256.545933 
L 634.876172 263.657197 
L 640.870313 263.657197 
L 642.069141 269.433175 
L 643.267969 269.433175 
L 644.466797 313.859913 
L 648.063281 313.859913 
L 649.262109 262.298201 
L 650.460938 313.859913 
L 651.659766 293.506887 
L 651.662608 613 
M 709.199767 613 
L 709.203516 191.343618 
L 710.402344 191.343618 
L 711.601172 146.516795 
L 712.8 147.075088 
L 712.8 147.075088 
" style="fill:none;stroke:#1f77b4;stroke-linecap:square;stroke-width:1.5;"/>
   </g>
   <g id="line2d_97">
    <path clip-path="url(#p68e2955192)" d="M 271.63045 613 
L 271.63125 523.26 
L 272.830078 523.26 
L 272.830878 613 
M 298.004669 613 
L 298.005469 523.26 
L 301.601953 523.26 
L 301.602753 613 
M 308.794122 613 
L 308.794922 523.26 
L 308.795722 613 
M 379.524981 613 
L 379.525781 523.26 
L 380.724609 482.756494 
L 381.923438 482.756494 
L 383.122266 523.26 
L 391.514063 523.26 
L 391.514862 613 
M 404.700372 613 
L 404.701172 523.26 
L 407.098828 523.26 
L 407.099628 613 
M 409.495685 613 
L 409.496484 523.26 
L 409.497284 613 
M 419.08631 613 
L 419.087109 523.26 
L 420.285938 482.756494 
L 421.484766 523.26 
L 422.683594 482.756494 
L 423.882422 523.26 
L 425.08125 482.756494 
L 426.280078 482.756494 
L 427.478906 459.063462 
L 428.677734 442.252988 
L 431.075391 442.252988 
L 432.274219 418.559956 
L 433.473047 418.559956 
L 434.671875 429.213772 
L 435.870703 442.252988 
L 438.268359 442.252988 
L 439.467188 459.063462 
L 440.666016 442.252988 
L 443.063672 442.252988 
L 444.2625 459.063462 
L 445.461328 482.756494 
L 455.051953 482.756494 
L 456.250781 459.063462 
L 457.449609 482.756494 
L 471.835547 482.756494 
L 473.034375 523.26 
L 474.233203 482.756494 
L 485.022656 482.756494 
L 486.221484 523.26 
L 491.016797 523.26 
L 491.017597 613 
L 491.017597 613 
" style="fill:none;stroke:#ff7f0e;stroke-linecap:square;stroke-width:1.5;"/>
   </g>
   <g id="patch_3">
    <path d="M 99 544.68 
L 99 73.44 
" style="fill:none;stroke:#000000;stroke-linecap:square;stroke-linejoin:miter;stroke-width:0.8;"/>
   </g>
   <g id="patch_4">
    <path d="M 712.8 544.68 
L 712.8 73.44 
" style="fill:none;stroke:#000000;stroke-linecap:square;stroke-linejoin:miter;stroke-width:0.8;"/>
   </g>
   <g id="patch_5">
    <path d="M 99 544.68 
L 712.8 544.68 
" style="fill:none;stroke:#000000;stroke-linecap:square;stroke-linejoin:miter;stroke-width:0.8;"/>
   </g>
   <g id="patch_6">
    <path d="M 99 73.44 
L 712.8 73.44 
" style="fill:none;stroke:#000000;stroke-linecap:square;stroke-linejoin:miter;stroke-width:0.8;"/>
   </g>
   <g id="legend_1">
    <g id="patch_7">
     <path d="M 616.653125 110.79625 
L 705.8 110.79625 
Q 707.8 110.79625 707.8 108.79625 
L 707.8 80.44 
Q 707.8 78.44 705.8 78.44 
L 616.653125 78.44 
Q 614.653125 78.44 614.653125 80.44 
L 614.653125 108.79625 
Q 614.653125 110.79625 616.653125 110.79625 
z
" style="fill:#ffffff;opacity:0.8;stroke:#cccccc;stroke-linejoin:miter;"/>
    </g>
    <g id="line2d_98">
     <path d="M 618.653125 86.538437 
L 638.653125 86.538437 
" style="fill:none;stroke:#1f77b4;stroke-linecap:square;stroke-width:1.5;"/>
    </g>
    <g id="line2d_99"/>
    <g id="text_12">
     <!-- Avg Cases -->
     <g transform="translate(646.653125 90.038437)scale(0.1 -0.1)">
      <defs>
       <path d="M 191 3500 
L 800 3500 
L 1894 563 
L 2988 3500 
L 3597 3500 
L 2284 0 
L 1503 0 
L 191 3500 
z
" id="DejaVuSans-76" transform="scale(0.015625)"/>
       <path d="M 2906 1791 
Q 2906 2416 2648 2759 
Q 2391 3103 1925 3103 
Q 1463 3103 1205 2759 
Q 947 2416 947 1791 
Q 947 1169 1205 825 
Q 1463 481 1925 481 
Q 2391 481 2648 825 
Q 2906 1169 2906 1791 
z
M 3481 434 
Q 3481 -459 3084 -895 
Q 2688 -1331 1869 -1331 
Q 1566 -1331 1297 -1286 
Q 1028 -1241 775 -1147 
L 775 -588 
Q 1028 -725 1275 -790 
Q 1522 -856 1778 -856 
Q 2344 -856 2625 -561 
Q 2906 -266 2906 331 
L 2906 616 
Q 2728 306 2450 153 
Q 2172 0 1784 0 
Q 1141 0 747 490 
Q 353 981 353 1791 
Q 353 2603 747 3093 
Q 1141 3584 1784 3584 
Q 2172 3584 2450 3431 
Q 2728 3278 2906 2969 
L 2906 3500 
L 3481 3500 
L 3481 434 
z
" id="DejaVuSans-67" transform="scale(0.015625)"/>
       <path id="DejaVuSans-20" transform="scale(0.015625)"/>
       <path d="M 4122 4306 
L 4122 3641 
Q 3803 3938 3442 4084 
Q 3081 4231 2675 4231 
Q 1875 4231 1450 3742 
Q 1025 3253 1025 2328 
Q 1025 1406 1450 917 
Q 1875 428 2675 428 
Q 3081 428 3442 575 
Q 3803 722 4122 1019 
L 4122 359 
Q 3791 134 3420 21 
Q 3050 -91 2638 -91 
Q 1578 -91 968 557 
Q 359 1206 359 2328 
Q 359 3453 968 4101 
Q 1578 4750 2638 4750 
Q 3056 4750 3426 4639 
Q 3797 4528 4122 4306 
z
" id="DejaVuSans-43" transform="scale(0.015625)"/>
       <path d="M 2834 3397 
L 2834 2853 
Q 2591 2978 2328 3040 
Q 2066 3103 1784 3103 
Q 1356 3103 1142 2972 
Q 928 2841 928 2578 
Q 928 2378 1081 2264 
Q 1234 2150 1697 2047 
L 1894 2003 
Q 2506 1872 2764 1633 
Q 3022 1394 3022 966 
Q 3022 478 2636 193 
Q 2250 -91 1575 -91 
Q 1294 -91 989 -36 
Q 684 19 347 128 
L 347 722 
Q 666 556 975 473 
Q 1284 391 1588 391 
Q 1994 391 2212 530 
Q 2431 669 2431 922 
Q 2431 1156 2273 1281 
Q 2116 1406 1581 1522 
L 1381 1569 
Q 847 1681 609 1914 
Q 372 2147 372 2553 
Q 372 3047 722 3315 
Q 1072 3584 1716 3584 
Q 2034 3584 2315 3537 
Q 2597 3491 2834 3397 
z
" id="DejaVuSans-73" transform="scale(0.015625)"/>
      </defs>
      <use xlink:href="#DejaVuSans-41"/>
      <use x="62.533203" xlink:href="#DejaVuSans-76"/>
      <use x="121.712891" xlink:href="#DejaVuSans-67"/>
      <use x="185.189453" xlink:href="#DejaVuSans-20"/>
      <use x="216.976562" xlink:href="#DejaVuSans-43"/>
      <use x="286.800781" xlink:href="#DejaVuSans-61"/>
      <use x="348.080078" xlink:href="#DejaVuSans-73"/>
      <use x="400.179688" xlink:href="#DejaVuSans-65"/>
      <use x="461.703125" xlink:href="#DejaVuSans-73"/>
     </g>
    </g>
    <g id="line2d_100">
     <path d="M 618.653125 101.216562 
L 638.653125 101.216562 
" style="fill:none;stroke:#ff7f0e;stroke-linecap:square;stroke-width:1.5;"/>
    </g>
    <g id="line2d_101"/>
    <g id="text_13">
     <!-- Avg Deaths -->
     <g transform="translate(646.653125 104.716562)scale(0.1 -0.1)">
      <defs>
       <path d="M 3513 2113 
L 3513 0 
L 2938 0 
L 2938 2094 
Q 2938 2591 2744 2837 
Q 2550 3084 2163 3084 
Q 1697 3084 1428 2787 
Q 1159 2491 1159 1978 
L 1159 0 
L 581 0 
L 581 4863 
L 1159 4863 
L 1159 2956 
Q 1366 3272 1645 3428 
Q 1925 3584 2291 3584 
Q 2894 3584 3203 3211 
Q 3513 2838 3513 2113 
z
" id="DejaVuSans-68" transform="scale(0.015625)"/>
      </defs>
      <use xlink:href="#DejaVuSans-41"/>
      <use x="62.533203" xlink:href="#DejaVuSans-76"/>
      <use x="121.712891" xlink:href="#DejaVuSans-67"/>
      <use x="185.189453" xlink:href="#DejaVuSans-20"/>
      <use x="216.976562" xlink:href="#DejaVuSans-44"/>
      <use x="293.978516" xlink:href="#DejaVuSans-65"/>
      <use x="355.501953" xlink:href="#DejaVuSans-61"/>
      <use x="416.78125" xlink:href="#DejaVuSans-74"/>
      <use x="455.990234" xlink:href="#DejaVuSans-68"/>
      <use x="519.369141" xlink:href="#DejaVuSans-73"/>
     </g>
    </g>
   </g>
  </g>
 </g>
 <defs>
  <clipPath id="p68e2955192">
   <rect height="471.24" width="613.8" x="99" y="73.44"/>
  </clipPath>
 </defs>
</svg>
