<?xml version="1.0" encoding="utf-8" standalone="no"?>
<!DOCTYPE svg PUBLIC "-//W3C//DTD SVG 1.1//EN"
  "http://www.w3.org/Graphics/SVG/1.1/DTD/svg11.dtd">
<svg height="612pt" version="1.1" viewBox="0 0 792 612" width="792pt" xmlns="http://www.w3.org/2000/svg" xmlns:xlink="http://www.w3.org/1999/xlink">
 <metadata>
  <rdf:RDF xmlns:cc="http://creativecommons.org/ns#" xmlns:dc="http://purl.org/dc/elements/1.1/" xmlns:rdf="http://www.w3.org/1999/02/22-rdf-syntax-ns#">
   <cc:Work>
    <dc:type rdf:resource="http://purl.org/dc/dcmitype/StillImage"/>
    <dc:format>image/svg+xml</dc:format>
    <dc:creator>
     <cc:Agent>
      <dc:title>Matplotlib v3.4.2, https://matplotlib.org/</dc:title>
     </cc:Agent>
    </dc:creator>
   </cc:Work>
  </rdf:RDF>
 </metadata>
 <defs>
  <style type="text/css">*{stroke-linecap:butt;stroke-linejoin:round;}</style>
 </defs>
 <g id="figure_1">
  <g id="patch_1">
   <path d="M 0 612 
L 792 612 
L 792 0 
L 0 0 
z
" style="fill:#ffffff;"/>
  </g>
  <g id="axes_1">
   <g id="patch_2">
    <path d="M 99 544.68 
L 712.8 544.68 
L 712.8 73.44 
L 99 73.44 
z
" style="fill:#ffffff;"/>
   </g>
   <g id="PolyCollection_1">
    <path clip-path="url(#p68e2955192)" d="M 99 135032.490349 
L 99 135032.490349 
L 100.196491 135032.490349 
L 101.392982 135032.490349 
L 102.589474 135032.490349 
L 103.785965 135032.490349 
L 104.982456 135032.490349 
L 106.178947 135032.490349 
L 107.375439 135032.490349 
L 108.57193 135032.490349 
L 109.768421 135032.490349 
L 110.964912 135032.490349 
L 112.161404 135032.490349 
L 113.357895 135032.490349 
L 114.554386 338.041937 
L 115.750877 333.781687 
L 116.947368 322.975897 
L 118.14386 318.240318 
L 119.340351 318.240318 
L 120.536842 318.240318 
L 121.733333 318.240318 
L 122.929825 318.240318 
L 124.126316 318.240318 
L 125.322807 318.240318 
L 126.519298 318.240318 
L 127.715789 318.240318 
L 128.912281 318.240318 
L 130.108772 317.199919 
L 131.305263 318.240318 
L 132.501754 318.240318 
L 133.698246 320.378394 
L 134.894737 329.811044 
L 136.091228 325.694257 
L 137.287719 325.694257 
L 138.484211 325.694257 
L 139.680702 325.694257 
L 140.877193 325.694257 
L 142.073684 325.694257 
L 143.270175 325.694257 
L 144.466667 326.899129 
L 145.663158 326.899129 
L 146.859649 335.636897 
L 148.05614 342.637386 
L 149.252632 342.637386 
L 150.449123 345.914929 
L 151.645614 356.344429 
L 152.842105 361.245977 
L 154.038596 361.245977 
L 155.235088 361.245977 
L 156.431579 363.479403 
L 157.62807 365.801598 
L 158.824561 365.801598 
L 160.021053 365.801598 
L 161.217544 365.801598 
L 162.414035 365.801598 
L 163.610526 378.056451 
L 164.807018 384.213109 
L 166.003509 384.213109 
L 167.2 384.213109 
L 168.396491 384.213109 
L 169.592982 384.213109 
L 170.789474 384.213109 
L 171.985965 406.305103 
L 173.182456 418.559956 
L 174.378947 406.305103 
L 175.575439 418.559956 
L 176.77193 406.305103 
L 177.968421 401.749483 
L 179.164912 401.749483 
L 180.361404 401.749483 
L 181.557895 401.749483 
L 182.754386 401.749483 
L 183.950877 401.749483 
L 185.147368 401.749483 
L 186.34386 401.749483 
L 187.540351 401.749483 
L 188.736842 401.749483 
L 189.933333 401.749483 
L 191.129825 392.325906 
L 192.326316 381.053734 
L 193.522807 381.053734 
L 194.719298 343.171035 
L 195.915789 341.584488 
L 197.112281 311.943865 
L 198.308772 306.546104 
L 199.505263 295.844567 
L 200.701754 294.430767 
L 201.898246 294.430767 
L 203.094737 294.430767 
L 204.291228 294.430767 
L 205.487719 294.430767 
L 206.684211 294.430767 
L 207.880702 293.736492 
L 209.077193 293.736492 
L 210.273684 289.307539 
L 211.470175 293.736492 
L 212.666667 293.736492 
L 213.863158 293.736492 
L 215.059649 293.050368 
L 216.25614 295.36949 
L 217.452632 293.050368 
L 218.649123 293.050368 
L 219.845614 293.050368 
L 221.042105 293.050368 
L 222.238596 280.973996 
L 223.435088 280.973996 
L 224.631579 274.338518 
L 225.82807 274.338518 
L 227.024561 276.35369 
L 228.221053 274.835833 
L 229.417544 274.835833 
L 230.614035 263.932831 
L 231.810526 261.49772 
L 233.007018 258.526943 
L 234.203509 255.22193 
L 235.4 250.206953 
L 236.596491 250.206953 
L 237.792982 250.206953 
L 238.989474 250.206953 
L 240.185965 250.206953 
L 241.382456 250.206953 
L 242.578947 246.401573 
L 243.775439 244.094 
L 244.97193 232.934116 
L 246.168421 230.311883 
L 247.364912 230.311883 
L 248.561404 230.311883 
L 249.757895 229.15778 
L 250.954386 229.15778 
L 252.150877 229.15778 
L 253.347368 211.196878 
L 254.54386 204.283203 
L 255.740351 204.283203 
L 256.936842 204.283203 
L 258.133333 204.283203 
L 259.329825 204.283203 
L 260.526316 203.296115 
L 261.722807 197.478121 
L 262.919298 197.478121 
L 264.115789 193.207836 
L 265.312281 193.207836 
L 266.508772 193.207836 
L 267.705263 193.207836 
L 268.901754 190.669446 
L 270.098246 188.085659 
L 271.294737 188.085659 
L 272.491228 188.085659 
L 273.687719 188.085659 
L 274.884211 188.085659 
L 276.080702 188.085659 
L 277.277193 188.085659 
L 278.473684 190.669446 
L 279.670175 190.669446 
L 280.866667 193.828821 
L 282.063158 193.828821 
L 283.259649 193.828821 
L 284.45614 193.704095 
L 285.652632 206.360407 
L 286.849123 211.25293 
L 288.045614 211.25293 
L 289.242105 211.25293 
L 290.438596 211.25293 
L 291.635088 211.25293 
L 292.831579 211.25293 
L 294.02807 211.25293 
L 295.224561 212.100226 
L 296.421053 212.100226 
L 297.617544 212.100226 
L 298.814035 212.100226 
L 300.010526 212.787022 
L 301.207018 212.787022 
L 302.403509 208.353867 
L 303.6 210.806012 
L 304.796491 210.806012 
L 305.992982 210.806012 
L 307.189474 210.806012 
L 308.385965 208.353867 
L 309.582456 203.639702 
L 310.778947 203.639702 
L 311.975439 203.639702 
L 313.17193 203.639702 
L 314.368421 203.639702 
L 315.564912 203.639702 
L 316.761404 201.040058 
L 317.957895 202.614942 
L 319.154386 203.051926 
L 320.350877 203.051926 
L 321.547368 203.051926 
L 322.74386 203.051926 
L 323.940351 203.051926 
L 325.136842 203.051926 
L 326.333333 206.567071 
L 327.529825 206.567071 
L 328.726316 206.567071 
L 329.922807 206.567071 
L 331.119298 206.567071 
L 332.315789 206.567071 
L 333.512281 206.567071 
L 334.708772 204.432715 
L 335.905263 204.432715 
L 337.101754 204.432715 
L 338.298246 203.985322 
L 339.494737 201.607844 
L 340.691228 201.607844 
L 341.887719 198.686685 
L 343.084211 198.551159 
L 344.280702 195.133492 
L 345.477193 191.985318 
L 346.673684 180.490708 
L 347.870175 180.490708 
L 349.066667 180.490708 
L 350.263158 180.490708 
L 351.459649 177.299959 
L 352.65614 171.881905 
L 353.852632 162.74369 
L 355.049123 162.74369 
L 356.245614 162.74369 
L 357.442105 162.74369 
L 358.638596 162.74369 
L 359.835088 161.509885 
L 361.031579 161.509885 
L 362.22807 161.509885 
L 363.424561 161.509885 
L 364.621053 161.509885 
L 365.817544 161.509885 
L 367.014035 161.294833 
L 368.210526 158.751278 
L 369.407018 155.336472 
L 370.603509 141.548226 
L 371.8 138.032699 
L 372.996491 135.693448 
L 374.192982 135.693448 
L 375.389474 135.693448 
L 376.585965 134.868265 
L 377.782456 128.887889 
L 378.978947 128.887889 
L 380.175439 128.887889 
L 381.37193 128.682784 
L 382.568421 127.86949 
L 383.764912 127.86949 
L 384.961404 119.529048 
L 386.157895 116.448963 
L 387.354386 116.993989 
L 388.550877 116.993989 
L 389.747368 116.371515 
L 390.94386 116.371515 
L 392.140351 116.371515 
L 393.336842 111.535454 
L 394.533333 108.820795 
L 395.729825 104.930634 
L 396.926316 104.930634 
L 398.122807 103.957008 
L 399.319298 103.957008 
L 400.515789 103.957008 
L 401.712281 103.957008 
L 402.908772 102.430441 
L 404.105263 102.430441 
L 405.301754 102.430441 
L 406.498246 102.430441 
L 407.694737 101.867027 
L 408.891228 101.867027 
L 410.087719 101.867027 
L 411.284211 102.091741 
L 412.480702 102.091741 
L 413.677193 102.091741 
L 414.873684 102.091741 
L 416.070175 101.867027 
L 417.266667 100.326171 
L 418.463158 96.418545 
L 419.659649 94.959554 
L 420.85614 94.86 
L 422.052632 94.86 
L 423.249123 94.86 
L 424.445614 94.86 
L 425.642105 94.86 
L 426.838596 94.86 
L 428.035088 94.86 
L 429.231579 94.86 
L 430.42807 94.86 
L 431.624561 94.86 
L 432.821053 94.86 
L 434.017544 94.905927 
L 435.214035 97.729764 
L 436.410526 105.231395 
L 437.607018 105.800683 
L 438.803509 105.800683 
L 440 105.800683 
L 441.196491 105.800683 
L 442.392982 106.833955 
L 443.589474 110.566407 
L 444.785965 111.382977 
L 445.982456 122.35031 
L 447.178947 122.35031 
L 448.375439 122.35031 
L 449.57193 129.314066 
L 450.768421 122.35031 
L 451.964912 129.314066 
L 453.161404 121.838154 
L 454.357895 121.838154 
L 455.554386 121.838154 
L 456.750877 123.876548 
L 457.947368 123.876548 
L 459.14386 123.876548 
L 460.340351 123.127061 
L 461.536842 123.127061 
L 462.733333 123.127061 
L 463.929825 123.127061 
L 465.126316 123.127061 
L 466.322807 123.127061 
L 467.519298 135.035416 
L 468.715789 135.035416 
L 469.912281 143.06474 
L 471.108772 143.06474 
L 472.305263 143.06474 
L 473.501754 143.06474 
L 474.698246 143.538036 
L 475.894737 144.068456 
L 477.091228 147.337461 
L 478.287719 149.772972 
L 479.484211 149.772972 
L 480.680702 149.772972 
L 481.877193 149.772972 
L 483.073684 149.772972 
L 484.270175 151.866183 
L 485.466667 155.078579 
L 486.663158 155.078579 
L 487.859649 163.929209 
L 489.05614 163.929209 
L 490.252632 163.929209 
L 491.449123 162.305248 
L 492.645614 162.305248 
L 493.842105 162.305248 
L 495.038596 168.278845 
L 496.235088 168.278845 
L 497.431579 162.135628 
L 498.62807 162.135628 
L 499.824561 162.135628 
L 501.021053 162.135628 
L 502.217544 162.135628 
L 503.414035 162.135628 
L 504.610526 162.135628 
L 505.807018 162.135628 
L 507.003509 129.729477 
L 508.2 129.729477 
L 509.396491 129.729477 
L 510.592982 131.335533 
L 511.789474 131.335533 
L 512.985965 131.335533 
L 514.182456 149.616521 
L 515.378947 149.616521 
L 516.575439 149.616521 
L 517.77193 149.616521 
L 518.968421 149.616521 
L 520.164912 149.616521 
L 521.361404 149.616521 
L 522.557895 137.332117 
L 523.754386 149.616521 
L 524.950877 149.616521 
L 526.147368 149.616521 
L 527.34386 150.800239 
L 528.540351 150.800239 
L 529.736842 150.800239 
L 530.933333 150.383205 
L 532.129825 150.383205 
L 533.326316 150.383205 
L 534.522807 147.657649 
L 535.719298 147.657649 
L 536.915789 147.657649 
L 538.112281 147.657649 
L 539.308772 147.657649 
L 540.505263 147.657649 
L 541.701754 147.657649 
L 542.898246 147.657649 
L 544.094737 147.657649 
L 545.291228 147.657649 
L 546.487719 147.657649 
L 547.684211 146.221206 
L 548.880702 146.221206 
L 550.077193 146.221206 
L 551.273684 148.418027 
L 552.470175 148.418027 
L 553.666667 148.418027 
L 554.863158 148.418027 
L 556.059649 174.602988 
L 557.25614 148.418027 
L 558.452632 148.418027 
L 559.649123 146.888397 
L 560.845614 146.888397 
L 562.042105 146.888397 
L 563.238596 146.888397 
L 564.435088 130.203874 
L 565.631579 130.203874 
L 566.82807 130.203874 
L 568.024561 130.119877 
L 569.221053 129.369284 
L 570.417544 129.369284 
L 571.614035 129.369284 
L 572.810526 123.463141 
L 574.007018 140.286099 
L 575.203509 140.286099 
L 576.4 140.286099 
L 577.596491 140.286099 
L 578.792982 140.286099 
L 579.989474 140.286099 
L 581.185965 140.286099 
L 582.382456 140.286099 
L 583.578947 140.286099 
L 584.775439 140.286099 
L 585.97193 141.192074 
L 587.168421 141.192074 
L 588.364912 141.192074 
L 589.561404 135.662677 
L 590.757895 135.662677 
L 591.954386 135.662677 
L 593.150877 135.662677 
L 594.347368 135.662677 
L 595.54386 135.662677 
L 596.740351 135.662677 
L 597.936842 157.777541 
L 599.133333 157.777541 
L 600.329825 157.777541 
L 601.526316 160.677983 
L 602.722807 160.677983 
L 603.919298 160.677983 
L 605.115789 160.677983 
L 606.312281 167.504517 
L 607.508772 167.504517 
L 608.705263 168.954705 
L 609.901754 170.609395 
L 611.098246 170.609395 
L 612.294737 170.609395 
L 613.491228 170.609395 
L 614.687719 192.30883 
L 615.884211 192.30883 
L 617.080702 198.641475 
L 618.277193 198.641475 
L 619.473684 199.18632 
L 620.670175 199.18632 
L 621.866667 199.18632 
L 623.063158 209.268181 
L 624.259649 209.268181 
L 625.45614 209.268181 
L 626.652632 209.268181 
L 627.849123 215.376676 
L 629.045614 215.376676 
L 630.242105 215.376676 
L 631.438596 220.073971 
L 632.635088 215.376676 
L 633.831579 220.073971 
L 635.02807 222.266757 
L 636.224561 222.266757 
L 637.421053 222.266757 
L 638.617544 222.266757 
L 639.814035 239.553137 
L 641.010526 239.553137 
L 642.207018 238.919453 
L 643.403509 238.919453 
L 644.6 238.649963 
L 645.796491 238.649963 
L 646.992982 238.649963 
L 648.189474 237.058615 
L 649.385965 238.649963 
L 650.582456 238.649963 
L 651.778947 238.649963 
L 652.975439 237.058615 
L 654.17193 237.058615 
L 655.368421 237.058615 
L 656.564912 225.970343 
L 657.761404 225.970343 
L 658.957895 225.111001 
L 660.154386 225.111001 
L 661.350877 225.111001 
L 662.547368 225.111001 
L 663.74386 225.111001 
L 664.940351 217.709443 
L 666.136842 217.709443 
L 667.333333 217.521853 
L 668.529825 217.521853 
L 669.726316 217.521853 
L 670.922807 217.521853 
L 672.119298 217.521853 
L 673.315789 217.521853 
L 674.512281 217.521853 
L 675.708772 212.328263 
L 676.905263 212.328263 
L 678.101754 201.134307 
L 679.298246 201.134307 
L 680.494737 201.134307 
L 681.691228 185.937645 
L 682.887719 185.937645 
L 684.084211 173.065935 
L 685.280702 173.065935 
L 686.477193 163.185445 
L 687.673684 163.185445 
L 688.870175 163.185445 
L 690.066667 154.481218 
L 691.263158 154.481218 
L 692.459649 131.981856 
L 693.65614 131.981856 
L 694.852632 125.741492 
L 696.049123 125.741492 
L 697.245614 125.741492 
L 698.442105 123.52559 
L 699.638596 123.52559 
L 700.835088 118.442191 
L 702.031579 118.442191 
L 703.22807 113.76584 
L 704.424561 113.76584 
L 705.621053 113.76584 
L 706.817544 112.139087 
L 708.014035 112.139087 
L 709.210526 112.139087 
L 710.407018 112.139087 
L 711.603509 112.139087 
L 712.8 112.139087 
L 712.8 135032.490349 
L 712.8 135032.490349 
L 711.603509 135032.490349 
L 710.407018 135032.490349 
L 709.210526 135032.490349 
L 708.014035 135032.490349 
L 706.817544 135032.490349 
L 705.621053 135032.490349 
L 704.424561 135032.490349 
L 703.22807 135032.490349 
L 702.031579 135032.490349 
L 700.835088 135032.490349 
L 699.638596 135032.490349 
L 698.442105 135032.490349 
L 697.245614 135032.490349 
L 696.049123 135032.490349 
L 694.852632 135032.490349 
L 693.65614 135032.490349 
L 692.459649 135032.490349 
L 691.263158 135032.490349 
L 690.066667 135032.490349 
L 688.870175 135032.490349 
L 687.673684 135032.490349 
L 686.477193 135032.490349 
L 685.280702 135032.490349 
L 684.084211 135032.490349 
L 682.887719 135032.490349 
L 681.691228 135032.490349 
L 680.494737 135032.490349 
L 679.298246 135032.490349 
L 678.101754 135032.490349 
L 676.905263 135032.490349 
L 675.708772 135032.490349 
L 674.512281 135032.490349 
L 673.315789 135032.490349 
L 672.119298 135032.490349 
L 670.922807 135032.490349 
L 669.726316 135032.490349 
L 668.529825 135032.490349 
L 667.333333 135032.490349 
L 666.136842 135032.490349 
L 664.940351 135032.490349 
L 663.74386 135032.490349 
L 662.547368 135032.490349 
L 661.350877 135032.490349 
L 660.154386 135032.490349 
L 658.957895 135032.490349 
L 657.761404 135032.490349 
L 656.564912 135032.490349 
L 655.368421 135032.490349 
L 654.17193 135032.490349 
L 652.975439 135032.490349 
L 651.778947 135032.490349 
L 650.582456 135032.490349 
L 649.385965 135032.490349 
L 648.189474 135032.490349 
L 646.992982 135032.490349 
L 645.796491 135032.490349 
L 644.6 135032.490349 
L 643.403509 135032.490349 
L 642.207018 135032.490349 
L 641.010526 135032.490349 
L 639.814035 135032.490349 
L 638.617544 135032.490349 
L 637.421053 135032.490349 
L 636.224561 135032.490349 
L 635.02807 135032.490349 
L 633.831579 135032.490349 
L 632.635088 135032.490349 
L 631.438596 135032.490349 
L 630.242105 271.913514 
L 629.045614 271.913514 
L 627.849123 271.913514 
L 626.652632 271.913514 
L 625.45614 258.025359 
L 624.259649 258.025359 
L 623.063158 253.694919 
L 621.866667 253.694919 
L 620.670175 253.694919 
L 619.473684 253.694919 
L 618.277193 253.694919 
L 617.080702 253.694919 
L 615.884211 253.694919 
L 614.687719 251.644385 
L 613.491228 251.644385 
L 612.294737 251.644385 
L 611.098246 251.644385 
L 609.901754 251.644385 
L 608.705263 251.644385 
L 607.508772 251.644385 
L 606.312281 224.686023 
L 605.115789 224.686023 
L 603.919298 224.686023 
L 602.722807 224.686023 
L 601.526316 224.686023 
L 600.329825 224.686023 
L 599.133333 224.686023 
L 597.936842 214.777959 
L 596.740351 214.777959 
L 595.54386 214.777959 
L 594.347368 214.777959 
L 593.150877 214.777959 
L 591.954386 214.777959 
L 590.757895 214.777959 
L 589.561404 214.777959 
L 588.364912 214.777959 
L 587.168421 214.777959 
L 585.97193 214.777959 
L 584.775439 214.777959 
L 583.578947 214.777959 
L 582.382456 214.777959 
L 581.185965 232.852901 
L 579.989474 232.852901 
L 578.792982 232.852901 
L 577.596491 232.852901 
L 576.4 232.852901 
L 575.203509 232.852901 
L 574.007018 232.852901 
L 572.810526 232.852901 
L 571.614035 135032.490349 
L 570.417544 135032.490349 
L 569.221053 135032.490349 
L 568.024561 135032.490349 
L 566.82807 135032.490349 
L 565.631579 135032.490349 
L 564.435088 135032.490349 
L 563.238596 135032.490349 
L 562.042105 135032.490349 
L 560.845614 135032.490349 
L 559.649123 135032.490349 
L 558.452632 135032.490349 
L 557.25614 135032.490349 
L 556.059649 135032.490349 
L 554.863158 235.086327 
L 553.666667 235.086327 
L 552.470175 235.086327 
L 551.273684 235.086327 
L 550.077193 235.086327 
L 548.880702 235.086327 
L 547.684211 235.086327 
L 546.487719 235.086327 
L 545.291228 235.086327 
L 544.094737 235.086327 
L 542.898246 226.623246 
L 541.701754 226.623246 
L 540.505263 226.623246 
L 539.308772 226.623246 
L 538.112281 226.623246 
L 536.915789 226.623246 
L 535.719298 226.623246 
L 534.522807 226.623246 
L 533.326316 226.623246 
L 532.129825 226.623246 
L 530.933333 254.747816 
L 529.736842 254.747816 
L 528.540351 254.747816 
L 527.34386 254.747816 
L 526.147368 254.747816 
L 524.950877 254.747816 
L 523.754386 254.747816 
L 522.557895 254.747816 
L 521.361404 135032.490349 
L 520.164912 135032.490349 
L 518.968421 135032.490349 
L 517.77193 135032.490349 
L 516.575439 135032.490349 
L 515.378947 135032.490349 
L 514.182456 135032.490349 
L 512.985965 135032.490349 
L 511.789474 135032.490349 
L 510.592982 135032.490349 
L 509.396491 135032.490349 
L 508.2 135032.490349 
L 507.003509 135032.490349 
L 505.807018 135032.490349 
L 504.610526 216.408787 
L 503.414035 201.087164 
L 502.217544 197.700052 
L 501.021053 197.700052 
L 499.824561 197.700052 
L 498.62807 197.700052 
L 497.431579 198.596299 
L 496.235088 211.590375 
L 495.038596 198.596299 
L 493.842105 196.64239 
L 492.645614 196.64239 
L 491.449123 196.64239 
L 490.252632 196.64239 
L 489.05614 196.773556 
L 487.859649 192.025659 
L 486.663158 188.388231 
L 485.466667 185.719878 
L 484.270175 185.719878 
L 483.073684 185.719878 
L 481.877193 185.719878 
L 480.680702 185.719878 
L 479.484211 183.8658 
L 478.287719 180.92294 
L 477.091228 180.92294 
L 475.894737 180.92294 
L 474.698246 180.92294 
L 473.501754 178.280475 
L 472.305263 175.782906 
L 471.108772 160.630801 
L 469.912281 160.630801 
L 468.715789 157.152092 
L 467.519298 160.630801 
L 466.322807 160.630801 
L 465.126316 160.630801 
L 463.929825 160.630801 
L 462.733333 160.630801 
L 461.536842 158.546126 
L 460.340351 158.546126 
L 459.14386 175.844062 
L 457.947368 175.844062 
L 456.750877 175.844062 
L 455.554386 158.774117 
L 454.357895 179.635718 
L 453.161404 179.930263 
L 451.964912 179.930263 
L 450.768421 178.696606 
L 449.57193 178.696606 
L 448.375439 178.696606 
L 447.178947 156.775596 
L 445.982456 153.242135 
L 444.785965 153.242135 
L 443.589474 153.242135 
L 442.392982 143.784966 
L 441.196491 139.050658 
L 440 135.909301 
L 438.803509 135.909301 
L 437.607018 129.190017 
L 436.410526 121.198203 
L 435.214035 119.377528 
L 434.017544 117.510315 
L 432.821053 112.19053 
L 431.624561 112.19053 
L 430.42807 112.19053 
L 429.231579 112.19053 
L 428.035088 112.19053 
L 426.838596 110.376507 
L 425.642105 110.376507 
L 424.445614 111.841607 
L 423.249123 111.841607 
L 422.052632 111.200528 
L 420.85614 111.200528 
L 419.659649 113.660192 
L 418.463158 113.660192 
L 417.266667 114.457251 
L 416.070175 118.419285 
L 414.873684 118.419285 
L 413.677193 114.940759 
L 412.480702 114.09457 
L 411.284211 114.09457 
L 410.087719 114.09457 
L 408.891228 114.09457 
L 407.694737 115.070372 
L 406.498246 119.762925 
L 405.301754 119.762925 
L 404.105263 120.127295 
L 402.908772 120.127295 
L 401.712281 120.127295 
L 400.515789 117.792852 
L 399.319298 117.792852 
L 398.122807 120.292597 
L 396.926316 122.301339 
L 395.729825 123.625649 
L 394.533333 131.349818 
L 393.336842 131.349818 
L 392.140351 134.054573 
L 390.94386 135.065858 
L 389.747368 138.321739 
L 388.550877 138.321739 
L 387.354386 139.838325 
L 386.157895 139.838325 
L 384.961404 139.838325 
L 383.764912 140.302749 
L 382.568421 140.302749 
L 381.37193 140.486216 
L 380.175439 141.992205 
L 378.978947 155.100027 
L 377.782456 164.910474 
L 376.585965 166.7927 
L 375.389474 166.7927 
L 374.192982 169.281916 
L 372.996491 170.052609 
L 371.8 170.4697 
L 370.603509 172.197224 
L 369.407018 172.197224 
L 368.210526 172.197224 
L 367.014035 174.543117 
L 365.817544 179.799171 
L 364.621053 184.749844 
L 363.424561 188.426163 
L 362.22807 188.426163 
L 361.031579 188.426163 
L 359.835088 191.22408 
L 358.638596 192.025659 
L 357.442105 193.084426 
L 356.245614 196.294048 
L 355.049123 198.012177 
L 353.852632 199.323328 
L 352.65614 200.198591 
L 351.459649 200.945961 
L 350.263158 203.985322 
L 349.066667 203.985322 
L 347.870175 204.134072 
L 346.673684 205.693752 
L 345.477193 207.875549 
L 344.280702 211.590375 
L 343.084211 219.554553 
L 341.887719 219.554553 
L 340.691228 219.554553 
L 339.494737 224.124151 
L 338.298246 235.086327 
L 337.101754 235.086327 
L 335.905263 242.349566 
L 334.708772 242.349566 
L 333.512281 242.349566 
L 332.315789 242.349566 
L 331.119298 239.099805 
L 329.922807 239.099805 
L 328.726316 242.54084 
L 327.529825 242.54084 
L 326.333333 242.54084 
L 325.136842 242.54084 
L 323.940351 242.54084 
L 322.74386 239.099805 
L 321.547368 239.099805 
L 320.350877 243.799621 
L 319.154386 254.394738 
L 317.957895 254.394738 
L 316.761404 254.394738 
L 315.564912 254.394738 
L 314.368421 255.460437 
L 313.17193 255.460437 
L 311.975439 253.118071 
L 310.778947 253.118071 
L 309.582456 253.118071 
L 308.385965 253.118071 
L 307.189474 253.118071 
L 305.992982 253.118071 
L 304.796491 240.934625 
L 303.6 240.934625 
L 302.403509 237.320849 
L 301.207018 237.320849 
L 300.010526 237.320849 
L 298.814035 237.320849 
L 297.617544 237.145896 
L 296.421053 237.145896 
L 295.224561 237.937342 
L 294.02807 237.145896 
L 292.831579 237.145896 
L 291.635088 237.937342 
L 290.438596 238.025946 
L 289.242105 239.462189 
L 288.045614 242.82893 
L 286.849123 239.190191 
L 285.652632 239.190191 
L 284.45614 239.190191 
L 283.259649 239.190191 
L 282.063158 239.190191 
L 280.866667 239.190191 
L 279.670175 238.025946 
L 278.473684 227.802286 
L 277.277193 227.802286 
L 276.080702 227.802286 
L 274.884211 227.876772 
L 273.687719 227.802286 
L 272.491228 219.296564 
L 271.294737 217.397127 
L 270.098246 211.929781 
L 268.901754 211.929781 
L 267.705263 217.397127 
L 266.508772 219.683975 
L 265.312281 229.847503 
L 264.115789 231.966907 
L 262.919298 238.919453 
L 261.722807 238.919453 
L 260.526316 238.919453 
L 259.329825 238.919453 
L 258.133333 239.190191 
L 256.936842 242.82893 
L 255.740351 245.892118 
L 254.54386 250.206953 
L 253.347368 255.341061 
L 252.150877 255.341061 
L 250.954386 255.341061 
L 249.757895 255.341061 
L 248.561404 255.341061 
L 247.364912 256.181856 
L 246.168421 258.401143 
L 244.97193 265.756856 
L 243.775439 278.61819 
L 242.578947 280.605325 
L 241.382456 284.010223 
L 240.185965 284.010223 
L 238.989474 284.794586 
L 237.792982 284.010223 
L 236.596491 284.794586 
L 235.4 292.597387 
L 234.203509 294.898244 
L 233.007018 294.898244 
L 231.810526 297.78447 
L 230.614035 297.78447 
L 229.417544 305.411423 
L 228.221053 312.258875 
L 227.024561 328.964157 
L 225.82807 328.964157 
L 224.631579 328.964157 
L 223.435088 328.964157 
L 222.238596 328.964157 
L 221.042105 332.875713 
L 219.845614 328.964157 
L 218.649123 332.875713 
L 217.452632 332.875713 
L 216.25614 332.875713 
L 215.059649 332.875713 
L 213.863158 332.875713 
L 212.666667 328.964157 
L 211.470175 328.964157 
L 210.273684 312.258875 
L 209.077193 328.964157 
L 207.880702 334.70193 
L 206.684211 334.70193 
L 205.487719 355.676602 
L 204.291228 369.889572 
L 203.094737 379.038561 
L 201.898246 389.890795 
L 200.701754 389.890795 
L 199.505263 403.228909 
L 198.308772 420.540967 
L 197.112281 420.540967 
L 195.915789 445.250271 
L 194.719298 445.250271 
L 193.522807 445.250271 
L 192.326316 445.250271 
L 191.129825 482.756494 
L 189.933333 482.756494 
L 188.736842 488.913152 
L 187.540351 488.913152 
L 186.34386 488.913152 
L 185.147368 482.756494 
L 183.950877 482.756494 
L 182.754386 482.756494 
L 181.557895 482.756494 
L 180.361404 482.756494 
L 179.164912 482.756494 
L 177.968421 482.756494 
L 176.77193 482.756494 
L 175.575439 482.756494 
L 174.378947 482.756494 
L 173.182456 482.756494 
L 171.985965 482.756494 
L 170.789474 482.756494 
L 169.592982 482.756494 
L 168.396491 482.756494 
L 167.2 482.756494 
L 166.003509 482.756494 
L 164.807018 482.756494 
L 163.610526 445.250271 
L 162.414035 442.252988 
L 161.217544 442.252988 
L 160.021053 442.252988 
L 158.824561 442.252988 
L 157.62807 442.252988 
L 156.431579 442.252988 
L 155.235088 442.252988 
L 154.038596 442.252988 
L 152.842105 442.252988 
L 151.645614 392.325906 
L 150.449123 388.710266 
L 149.252632 388.710266 
L 148.05614 379.038561 
L 146.859649 370.742642 
L 145.663158 370.742642 
L 144.466667 369.889572 
L 143.270175 361.981008 
L 142.073684 361.245977 
L 140.877193 361.245977 
L 139.680702 361.245977 
L 138.484211 355.016321 
L 137.287719 348.794044 
L 136.091228 348.794044 
L 134.894737 348.794044 
L 133.698246 348.794044 
L 132.501754 348.794044 
L 131.305263 348.20676 
L 130.108772 348.20676 
L 128.912281 350.592161 
L 127.715789 348.20676 
L 126.519298 350.592161 
L 125.322807 369.889572 
L 124.126316 378.056451 
L 122.929825 378.056451 
L 121.733333 381.053734 
L 120.536842 418.559956 
L 119.340351 418.559956 
L 118.14386 420.540967 
L 116.947368 442.252988 
L 115.750877 445.250271 
L 114.554386 482.756494 
L 113.357895 135032.490349 
L 112.161404 135032.490349 
L 110.964912 135032.490349 
L 109.768421 135032.490349 
L 108.57193 135032.490349 
L 107.375439 135032.490349 
L 106.178947 135032.490349 
L 104.982456 135032.490349 
L 103.785965 135032.490349 
L 102.589474 135032.490349 
L 101.392982 135032.490349 
L 100.196491 135032.490349 
L 99 135032.490349 
z
" style="fill:#8080ff;fill-opacity:0.5;stroke:#8080ff;stroke-opacity:0.5;"/>
   </g>
   <g id="PolyCollection_2">
    <path clip-path="url(#p68e2955192)" d="M 99 135032.490349 
L 99 135032.490349 
L 100.196491 135032.490349 
L 101.392982 135032.490349 
L 102.589474 135032.490349 
L 103.785965 135032.490349 
L 104.982456 135032.490349 
L 106.178947 135032.490349 
L 107.375439 135032.490349 
L 108.57193 135032.490349 
L 109.768421 135032.490349 
L 110.964912 135032.490349 
L 112.161404 135032.490349 
L 113.357895 135032.490349 
L 114.554386 135032.490349 
L 115.750877 135032.490349 
L 116.947368 135032.490349 
L 118.14386 135032.490349 
L 119.340351 503.598512 
L 120.536842 503.598512 
L 121.733333 503.598512 
L 122.929825 503.598512 
L 124.126316 503.598512 
L 125.322807 503.598512 
L 126.519298 482.756494 
L 127.715789 482.756494 
L 128.912281 482.756494 
L 130.108772 482.756494 
L 131.305263 482.756494 
L 132.501754 482.756494 
L 133.698246 482.756494 
L 134.894737 482.756494 
L 136.091228 482.756494 
L 137.287719 482.756494 
L 138.484211 482.756494 
L 139.680702 482.756494 
L 140.877193 482.756494 
L 142.073684 482.756494 
L 143.270175 482.756494 
L 144.466667 482.756494 
L 145.663158 482.756494 
L 146.859649 482.756494 
L 148.05614 503.598512 
L 149.252632 503.598512 
L 150.449123 503.598512 
L 151.645614 135032.490349 
L 152.842105 135032.490349 
L 154.038596 135032.490349 
L 155.235088 135032.490349 
L 156.431579 135032.490349 
L 157.62807 135032.490349 
L 158.824561 135032.490349 
L 160.021053 135032.490349 
L 161.217544 135032.490349 
L 162.414035 135032.490349 
L 163.610526 135032.490349 
L 164.807018 135032.490349 
L 166.003509 135032.490349 
L 167.2 135032.490349 
L 168.396491 135032.490349 
L 169.592982 135032.490349 
L 170.789474 135032.490349 
L 171.985965 135032.490349 
L 173.182456 135032.490349 
L 174.378947 135032.490349 
L 175.575439 135032.490349 
L 176.77193 135032.490349 
L 177.968421 135032.490349 
L 179.164912 135032.490349 
L 180.361404 135032.490349 
L 181.557895 135032.490349 
L 182.754386 135032.490349 
L 183.950877 135032.490349 
L 185.147368 135032.490349 
L 186.34386 135032.490349 
L 187.540351 135032.490349 
L 188.736842 135032.490349 
L 189.933333 135032.490349 
L 191.129825 135032.490349 
L 192.326316 135032.490349 
L 193.522807 135032.490349 
L 194.719298 135032.490349 
L 195.915789 135032.490349 
L 197.112281 135032.490349 
L 198.308772 135032.490349 
L 199.505263 135032.490349 
L 200.701754 135032.490349 
L 201.898246 135032.490349 
L 203.094737 135032.490349 
L 204.291228 135032.490349 
L 205.487719 135032.490349 
L 206.684211 135032.490349 
L 207.880702 135032.490349 
L 209.077193 503.598512 
L 210.273684 503.598512 
L 211.470175 503.598512 
L 212.666667 503.598512 
L 213.863158 503.598512 
L 215.059649 503.598512 
L 216.25614 503.598512 
L 217.452632 503.598512 
L 218.649123 503.598512 
L 219.845614 503.598512 
L 221.042105 503.598512 
L 222.238596 135032.490349 
L 223.435088 135032.490349 
L 224.631579 135032.490349 
L 225.82807 135032.490349 
L 227.024561 135032.490349 
L 228.221053 135032.490349 
L 229.417544 135032.490349 
L 230.614035 135032.490349 
L 231.810526 135032.490349 
L 233.007018 135032.490349 
L 234.203509 503.598512 
L 235.4 482.756494 
L 236.596491 482.756494 
L 237.792982 482.756494 
L 238.989474 482.756494 
L 240.185965 482.756494 
L 241.382456 482.756494 
L 242.578947 482.756494 
L 243.775439 482.756494 
L 244.97193 482.756494 
L 246.168421 482.756494 
L 247.364912 482.756494 
L 248.561404 482.756494 
L 249.757895 482.756494 
L 250.954386 503.598512 
L 252.150877 503.598512 
L 253.347368 503.598512 
L 254.54386 503.598512 
L 255.740351 135032.490349 
L 256.936842 503.598512 
L 258.133333 503.598512 
L 259.329825 503.598512 
L 260.526316 482.756494 
L 261.722807 482.756494 
L 262.919298 482.756494 
L 264.115789 482.756494 
L 265.312281 482.756494 
L 266.508772 482.756494 
L 267.705263 482.756494 
L 268.901754 482.756494 
L 270.098246 482.756494 
L 271.294737 482.756494 
L 272.491228 482.756494 
L 273.687719 482.756494 
L 274.884211 482.756494 
L 276.080702 482.756494 
L 277.277193 482.756494 
L 278.473684 482.756494 
L 279.670175 482.756494 
L 280.866667 482.756494 
L 282.063158 482.756494 
L 283.259649 482.756494 
L 284.45614 482.756494 
L 285.652632 482.756494 
L 286.849123 482.756494 
L 288.045614 482.756494 
L 289.242105 482.756494 
L 290.438596 482.756494 
L 291.635088 482.756494 
L 292.831579 482.756494 
L 294.02807 482.756494 
L 295.224561 482.756494 
L 296.421053 482.756494 
L 297.617544 482.756494 
L 298.814035 482.756494 
L 300.010526 482.756494 
L 301.207018 482.756494 
L 302.403509 482.756494 
L 303.6 482.756494 
L 304.796491 482.756494 
L 305.992982 451.749653 
L 307.189474 451.749653 
L 308.385965 451.749653 
L 309.582456 451.749653 
L 310.778947 442.252988 
L 311.975439 442.252988 
L 313.17193 442.252988 
L 314.368421 451.749653 
L 315.564912 451.749653 
L 316.761404 451.749653 
L 317.957895 451.749653 
L 319.154386 451.749653 
L 320.350877 451.749653 
L 321.547368 451.749653 
L 322.74386 482.756494 
L 323.940351 482.756494 
L 325.136842 482.756494 
L 326.333333 482.756494 
L 327.529825 482.756494 
L 328.726316 482.756494 
L 329.922807 482.756494 
L 331.119298 482.756494 
L 332.315789 482.756494 
L 333.512281 482.756494 
L 334.708772 482.756494 
L 335.905263 482.756494 
L 337.101754 416.643909 
L 338.298246 416.643909 
L 339.494737 416.643909 
L 340.691228 416.643909 
L 341.887719 416.643909 
L 343.084211 416.643909 
L 344.280702 416.643909 
L 345.477193 416.643909 
L 346.673684 416.643909 
L 347.870175 416.643909 
L 349.066667 416.643909 
L 350.263158 416.643909 
L 351.459649 482.756494 
L 352.65614 482.756494 
L 353.852632 482.756494 
L 355.049123 482.756494 
L 356.245614 482.756494 
L 357.442105 482.756494 
L 358.638596 482.756494 
L 359.835088 482.756494 
L 361.031579 482.756494 
L 362.22807 482.756494 
L 363.424561 482.756494 
L 364.621053 482.756494 
L 365.817544 482.756494 
L 367.014035 482.756494 
L 368.210526 482.756494 
L 369.407018 482.756494 
L 370.603509 482.756494 
L 371.8 482.756494 
L 372.996491 451.749653 
L 374.192982 482.756494 
L 375.389474 451.749653 
L 376.585965 411.246147 
L 377.782456 411.246147 
L 378.978947 411.246147 
L 380.175439 411.246147 
L 381.37193 411.246147 
L 382.568421 411.246147 
L 383.764912 411.246147 
L 384.961404 411.246147 
L 386.157895 411.246147 
L 387.354386 411.246147 
L 388.550877 411.246147 
L 389.747368 392.325906 
L 390.94386 392.325906 
L 392.140351 406.305103 
L 393.336842 431.599173 
L 394.533333 431.599173 
L 395.729825 431.599173 
L 396.926316 431.599173 
L 398.122807 424.716615 
L 399.319298 424.716615 
L 400.515789 424.716615 
L 401.712281 424.716615 
L 402.908772 424.716615 
L 404.105263 424.716615 
L 405.301754 424.716615 
L 406.498246 424.716615 
L 407.694737 442.252988 
L 408.891228 424.716615 
L 410.087719 424.716615 
L 411.284211 424.716615 
L 412.480702 424.716615 
L 413.677193 424.716615 
L 414.873684 424.716615 
L 416.070175 424.716615 
L 417.266667 373.379218 
L 418.463158 347.625321 
L 419.659649 347.625321 
L 420.85614 347.625321 
L 422.052632 347.625321 
L 423.249123 373.379218 
L 424.445614 370.742642 
L 425.642105 368.21991 
L 426.838596 368.21991 
L 428.035088 347.625321 
L 429.231579 347.625321 
L 430.42807 347.625321 
L 431.624561 347.625321 
L 432.821053 347.625321 
L 434.017544 353.079099 
L 435.214035 392.325906 
L 436.410526 392.325906 
L 437.607018 392.325906 
L 438.803509 392.325906 
L 440 357.703425 
L 441.196491 357.703425 
L 442.392982 361.981008 
L 443.589474 361.981008 
L 444.785965 418.559956 
L 445.982456 418.559956 
L 447.178947 418.559956 
L 448.375439 424.716615 
L 449.57193 424.716615 
L 450.768421 418.559956 
L 451.964912 418.559956 
L 453.161404 367.402635 
L 454.357895 367.402635 
L 455.554386 367.402635 
L 456.750877 418.559956 
L 457.947368 424.716615 
L 459.14386 418.559956 
L 460.340351 418.559956 
L 461.536842 418.559956 
L 462.733333 418.559956 
L 463.929825 418.559956 
L 465.126316 418.559956 
L 466.322807 418.559956 
L 467.519298 424.716615 
L 468.715789 424.716615 
L 469.912281 442.252988 
L 471.108772 442.252988 
L 472.305263 442.252988 
L 473.501754 442.252988 
L 474.698246 424.716615 
L 475.894737 451.749653 
L 477.091228 451.749653 
L 478.287719 400.306589 
L 479.484211 400.306589 
L 480.680702 400.306589 
L 481.877193 400.306589 
L 483.073684 400.306589 
L 484.270175 404.746766 
L 485.466667 404.746766 
L 486.663158 404.746766 
L 487.859649 404.746766 
L 489.05614 404.746766 
L 490.252632 334.239997 
L 491.449123 404.746766 
L 492.645614 404.746766 
L 493.842105 404.746766 
L 495.038596 482.756494 
L 496.235088 482.756494 
L 497.431579 482.756494 
L 498.62807 482.756494 
L 499.824561 503.598512 
L 501.021053 135032.490349 
L 502.217544 463.095006 
L 503.414035 463.095006 
L 504.610526 463.095006 
L 505.807018 463.095006 
L 507.003509 463.095006 
L 508.2 451.749653 
L 509.396491 451.749653 
L 510.592982 451.749653 
L 511.789474 451.749653 
L 512.985965 451.749653 
L 514.182456 451.749653 
L 515.378947 451.749653 
L 516.575439 451.749653 
L 517.77193 451.749653 
L 518.968421 482.756494 
L 520.164912 482.756494 
L 521.361404 482.756494 
L 522.557895 404.746766 
L 523.754386 482.756494 
L 524.950877 482.756494 
L 526.147368 482.756494 
L 527.34386 482.756494 
L 528.540351 482.756494 
L 529.736842 482.756494 
L 530.933333 482.756494 
L 532.129825 482.756494 
L 533.326316 482.756494 
L 534.522807 482.756494 
L 535.719298 482.756494 
L 536.915789 482.756494 
L 538.112281 482.756494 
L 539.308772 482.756494 
L 540.505263 482.756494 
L 541.701754 482.756494 
L 542.898246 482.756494 
L 544.094737 482.756494 
L 545.291228 482.756494 
L 546.487719 482.756494 
L 547.684211 482.756494 
L 548.880702 451.749653 
L 550.077193 451.749653 
L 551.273684 451.749653 
L 552.470175 451.749653 
L 553.666667 451.749653 
L 554.863158 451.749653 
L 556.059649 451.749653 
L 557.25614 451.749653 
L 558.452632 451.749653 
L 559.649123 503.598512 
L 560.845614 503.598512 
L 562.042105 503.598512 
L 563.238596 503.598512 
L 564.435088 503.598512 
L 565.631579 135032.490349 
L 566.82807 135032.490349 
L 568.024561 135032.490349 
L 569.221053 135032.490349 
L 570.417544 135032.490349 
L 571.614035 135032.490349 
L 572.810526 135032.490349 
L 574.007018 135032.490349 
L 575.203509 135032.490349 
L 576.4 503.598512 
L 577.596491 503.598512 
L 578.792982 503.598512 
L 579.989474 503.598512 
L 581.185965 503.598512 
L 582.382456 503.598512 
L 583.578947 503.598512 
L 584.775439 503.598512 
L 585.97193 503.598512 
L 587.168421 503.598512 
L 588.364912 503.598512 
L 589.561404 358.394962 
L 590.757895 358.394962 
L 591.954386 358.394962 
L 593.150877 135032.490349 
L 594.347368 135032.490349 
L 595.54386 135032.490349 
L 596.740351 135032.490349 
L 597.936842 503.598512 
L 599.133333 503.598512 
L 600.329825 503.598512 
L 601.526316 482.756494 
L 602.722807 482.756494 
L 603.919298 482.756494 
L 605.115789 482.756494 
L 606.312281 503.598512 
L 607.508772 482.756494 
L 608.705263 451.749653 
L 609.901754 451.749653 
L 611.098246 451.749653 
L 612.294737 451.749653 
L 613.491228 451.749653 
L 614.687719 442.252988 
L 615.884211 411.246147 
L 617.080702 411.246147 
L 618.277193 411.246147 
L 619.473684 411.246147 
L 620.670175 411.246147 
L 621.866667 411.246147 
L 623.063158 411.246147 
L 624.259649 411.246147 
L 625.45614 416.643909 
L 626.652632 416.643909 
L 627.849123 416.643909 
L 629.045614 416.643909 
L 630.242105 416.643909 
L 631.438596 503.598512 
L 632.635088 135032.490349 
L 633.831579 135032.490349 
L 635.02807 135032.490349 
L 636.224561 135032.490349 
L 637.421053 135032.490349 
L 638.617544 135032.490349 
L 639.814035 135032.490349 
L 641.010526 135032.490349 
L 642.207018 135032.490349 
L 643.403509 135032.490349 
L 644.6 135032.490349 
L 645.796491 135032.490349 
L 646.992982 135032.490349 
L 648.189474 135032.490349 
L 649.385965 135032.490349 
L 650.582456 135032.490349 
L 651.778947 135032.490349 
L 652.975439 135032.490349 
L 654.17193 135032.490349 
L 655.368421 135032.490349 
L 656.564912 135032.490349 
L 657.761404 135032.490349 
L 658.957895 503.598512 
L 660.154386 503.598512 
L 661.350877 135032.490349 
L 662.547368 135032.490349 
L 663.74386 135032.490349 
L 664.940351 135032.490349 
L 666.136842 135032.490349 
L 667.333333 503.598512 
L 668.529825 503.598512 
L 669.726316 503.598512 
L 670.922807 503.598512 
L 672.119298 503.598512 
L 673.315789 503.598512 
L 674.512281 503.598512 
L 675.708772 135032.490349 
L 676.905263 135032.490349 
L 678.101754 463.095006 
L 679.298246 463.095006 
L 680.494737 463.095006 
L 681.691228 442.252988 
L 682.887719 442.252988 
L 684.084211 463.095006 
L 685.280702 463.095006 
L 686.477193 463.095006 
L 687.673684 463.095006 
L 688.870175 463.095006 
L 690.066667 463.095006 
L 691.263158 463.095006 
L 692.459649 451.749653 
L 693.65614 451.749653 
L 694.852632 451.749653 
L 696.049123 451.749653 
L 697.245614 451.749653 
L 698.442105 503.598512 
L 699.638596 503.598512 
L 700.835088 451.749653 
L 702.031579 451.749653 
L 703.22807 442.252988 
L 704.424561 442.252988 
L 705.621053 442.252988 
L 706.817544 442.252988 
L 708.014035 442.252988 
L 709.210526 442.252988 
L 710.407018 424.716615 
L 711.603509 424.716615 
L 712.8 424.716615 
L 712.8 135032.490349 
L 712.8 135032.490349 
L 711.603509 135032.490349 
L 710.407018 135032.490349 
L 709.210526 135032.490349 
L 708.014035 135032.490349 
L 706.817544 135032.490349 
L 705.621053 135032.490349 
L 704.424561 135032.490349 
L 703.22807 135032.490349 
L 702.031579 135032.490349 
L 700.835088 135032.490349 
L 699.638596 135032.490349 
L 698.442105 135032.490349 
L 697.245614 135032.490349 
L 696.049123 135032.490349 
L 694.852632 135032.490349 
L 693.65614 135032.490349 
L 692.459649 135032.490349 
L 691.263158 135032.490349 
L 690.066667 135032.490349 
L 688.870175 135032.490349 
L 687.673684 135032.490349 
L 686.477193 135032.490349 
L 685.280702 135032.490349 
L 684.084211 135032.490349 
L 682.887719 135032.490349 
L 681.691228 135032.490349 
L 680.494737 135032.490349 
L 679.298246 135032.490349 
L 678.101754 135032.490349 
L 676.905263 135032.490349 
L 675.708772 135032.490349 
L 674.512281 135032.490349 
L 673.315789 135032.490349 
L 672.119298 135032.490349 
L 670.922807 135032.490349 
L 669.726316 135032.490349 
L 668.529825 135032.490349 
L 667.333333 135032.490349 
L 666.136842 135032.490349 
L 664.940351 135032.490349 
L 663.74386 135032.490349 
L 662.547368 135032.490349 
L 661.350877 135032.490349 
L 660.154386 135032.490349 
L 658.957895 135032.490349 
L 657.761404 135032.490349 
L 656.564912 135032.490349 
L 655.368421 135032.490349 
L 654.17193 135032.490349 
L 652.975439 135032.490349 
L 651.778947 135032.490349 
L 650.582456 135032.490349 
L 649.385965 135032.490349 
L 648.189474 135032.490349 
L 646.992982 135032.490349 
L 645.796491 135032.490349 
L 644.6 135032.490349 
L 643.403509 135032.490349 
L 642.207018 135032.490349 
L 641.010526 135032.490349 
L 639.814035 135032.490349 
L 638.617544 135032.490349 
L 637.421053 135032.490349 
L 636.224561 135032.490349 
L 635.02807 135032.490349 
L 633.831579 135032.490349 
L 632.635088 135032.490349 
L 631.438596 135032.490349 
L 630.242105 135032.490349 
L 629.045614 135032.490349 
L 627.849123 135032.490349 
L 626.652632 135032.490349 
L 625.45614 135032.490349 
L 624.259649 135032.490349 
L 623.063158 135032.490349 
L 621.866667 135032.490349 
L 620.670175 135032.490349 
L 619.473684 135032.490349 
L 618.277193 135032.490349 
L 617.080702 135032.490349 
L 615.884211 135032.490349 
L 614.687719 135032.490349 
L 613.491228 135032.490349 
L 612.294737 135032.490349 
L 611.098246 135032.490349 
L 609.901754 135032.490349 
L 608.705263 135032.490349 
L 607.508772 135032.490349 
L 606.312281 135032.490349 
L 605.115789 135032.490349 
L 603.919298 135032.490349 
L 602.722807 135032.490349 
L 601.526316 135032.490349 
L 600.329825 135032.490349 
L 599.133333 135032.490349 
L 597.936842 135032.490349 
L 596.740351 135032.490349 
L 595.54386 135032.490349 
L 594.347368 135032.490349 
L 593.150877 135032.490349 
L 591.954386 135032.490349 
L 590.757895 135032.490349 
L 589.561404 135032.490349 
L 588.364912 135032.490349 
L 587.168421 135032.490349 
L 585.97193 135032.490349 
L 584.775439 135032.490349 
L 583.578947 135032.490349 
L 582.382456 135032.490349 
L 581.185965 135032.490349 
L 579.989474 135032.490349 
L 578.792982 135032.490349 
L 577.596491 135032.490349 
L 576.4 135032.490349 
L 575.203509 135032.490349 
L 574.007018 135032.490349 
L 572.810526 135032.490349 
L 571.614035 135032.490349 
L 570.417544 135032.490349 
L 569.221053 135032.490349 
L 568.024561 135032.490349 
L 566.82807 135032.490349 
L 565.631579 135032.490349 
L 564.435088 135032.490349 
L 563.238596 135032.490349 
L 562.042105 135032.490349 
L 560.845614 135032.490349 
L 559.649123 135032.490349 
L 558.452632 135032.490349 
L 557.25614 135032.490349 
L 556.059649 135032.490349 
L 554.863158 135032.490349 
L 553.666667 135032.490349 
L 552.470175 135032.490349 
L 551.273684 135032.490349 
L 550.077193 135032.490349 
L 548.880702 135032.490349 
L 547.684211 135032.490349 
L 546.487719 135032.490349 
L 545.291228 135032.490349 
L 544.094737 135032.490349 
L 542.898246 135032.490349 
L 541.701754 135032.490349 
L 540.505263 135032.490349 
L 539.308772 135032.490349 
L 538.112281 135032.490349 
L 536.915789 135032.490349 
L 535.719298 135032.490349 
L 534.522807 135032.490349 
L 533.326316 135032.490349 
L 532.129825 135032.490349 
L 530.933333 135032.490349 
L 529.736842 135032.490349 
L 528.540351 135032.490349 
L 527.34386 135032.490349 
L 526.147368 135032.490349 
L 524.950877 135032.490349 
L 523.754386 135032.490349 
L 522.557895 135032.490349 
L 521.361404 135032.490349 
L 520.164912 135032.490349 
L 518.968421 135032.490349 
L 517.77193 135032.490349 
L 516.575439 135032.490349 
L 515.378947 135032.490349 
L 514.182456 135032.490349 
L 512.985965 135032.490349 
L 511.789474 135032.490349 
L 510.592982 135032.490349 
L 509.396491 135032.490349 
L 508.2 135032.490349 
L 507.003509 135032.490349 
L 505.807018 135032.490349 
L 504.610526 135032.490349 
L 503.414035 135032.490349 
L 502.217544 135032.490349 
L 501.021053 135032.490349 
L 499.824561 135032.490349 
L 498.62807 135032.490349 
L 497.431579 135032.490349 
L 496.235088 135032.490349 
L 495.038596 135032.490349 
L 493.842105 135032.490349 
L 492.645614 135032.490349 
L 491.449123 135032.490349 
L 490.252632 135032.490349 
L 489.05614 135032.490349 
L 487.859649 135032.490349 
L 486.663158 135032.490349 
L 485.466667 135032.490349 
L 484.270175 135032.490349 
L 483.073684 135032.490349 
L 481.877193 135032.490349 
L 480.680702 135032.490349 
L 479.484211 135032.490349 
L 478.287719 135032.490349 
L 477.091228 135032.490349 
L 475.894737 135032.490349 
L 474.698246 135032.490349 
L 473.501754 135032.490349 
L 472.305263 135032.490349 
L 471.108772 135032.490349 
L 469.912281 135032.490349 
L 468.715789 135032.490349 
L 467.519298 135032.490349 
L 466.322807 135032.490349 
L 465.126316 135032.490349 
L 463.929825 135032.490349 
L 462.733333 135032.490349 
L 461.536842 135032.490349 
L 460.340351 135032.490349 
L 459.14386 135032.490349 
L 457.947368 135032.490349 
L 456.750877 135032.490349 
L 455.554386 135032.490349 
L 454.357895 135032.490349 
L 453.161404 135032.490349 
L 451.964912 135032.490349 
L 450.768421 135032.490349 
L 449.57193 135032.490349 
L 448.375439 135032.490349 
L 447.178947 135032.490349 
L 445.982456 135032.490349 
L 444.785965 135032.490349 
L 443.589474 135032.490349 
L 442.392982 135032.490349 
L 441.196491 135032.490349 
L 440 135032.490349 
L 438.803509 135032.490349 
L 437.607018 135032.490349 
L 436.410526 135032.490349 
L 435.214035 135032.490349 
L 434.017544 488.913152 
L 432.821053 488.913152 
L 431.624561 135032.490349 
L 430.42807 135032.490349 
L 429.231579 135032.490349 
L 428.035088 135032.490349 
L 426.838596 135032.490349 
L 425.642105 135032.490349 
L 424.445614 135032.490349 
L 423.249123 135032.490349 
L 422.052632 135032.490349 
L 420.85614 135032.490349 
L 419.659649 135032.490349 
L 418.463158 135032.490349 
L 417.266667 135032.490349 
L 416.070175 135032.490349 
L 414.873684 135032.490349 
L 413.677193 135032.490349 
L 412.480702 135032.490349 
L 411.284211 135032.490349 
L 410.087719 135032.490349 
L 408.891228 135032.490349 
L 407.694737 135032.490349 
L 406.498246 135032.490349 
L 405.301754 135032.490349 
L 404.105263 135032.490349 
L 402.908772 135032.490349 
L 401.712281 135032.490349 
L 400.515789 135032.490349 
L 399.319298 135032.490349 
L 398.122807 135032.490349 
L 396.926316 135032.490349 
L 395.729825 135032.490349 
L 394.533333 135032.490349 
L 393.336842 135032.490349 
L 392.140351 135032.490349 
L 390.94386 135032.490349 
L 389.747368 135032.490349 
L 388.550877 135032.490349 
L 387.354386 135032.490349 
L 386.157895 135032.490349 
L 384.961404 135032.490349 
L 383.764912 135032.490349 
L 382.568421 135032.490349 
L 381.37193 135032.490349 
L 380.175439 135032.490349 
L 378.978947 135032.490349 
L 377.782456 135032.490349 
L 376.585965 135032.490349 
L 375.389474 135032.490349 
L 374.192982 135032.490349 
L 372.996491 135032.490349 
L 371.8 135032.490349 
L 370.603509 135032.490349 
L 369.407018 135032.490349 
L 368.210526 135032.490349 
L 367.014035 135032.490349 
L 365.817544 135032.490349 
L 364.621053 135032.490349 
L 363.424561 135032.490349 
L 362.22807 135032.490349 
L 361.031579 135032.490349 
L 359.835088 135032.490349 
L 358.638596 135032.490349 
L 357.442105 135032.490349 
L 356.245614 135032.490349 
L 355.049123 135032.490349 
L 353.852632 135032.490349 
L 352.65614 135032.490349 
L 351.459649 135032.490349 
L 350.263158 135032.490349 
L 349.066667 135032.490349 
L 347.870175 135032.490349 
L 346.673684 135032.490349 
L 345.477193 135032.490349 
L 344.280702 135032.490349 
L 343.084211 135032.490349 
L 341.887719 135032.490349 
L 340.691228 135032.490349 
L 339.494737 135032.490349 
L 338.298246 135032.490349 
L 337.101754 135032.490349 
L 335.905263 135032.490349 
L 334.708772 135032.490349 
L 333.512281 135032.490349 
L 332.315789 135032.490349 
L 331.119298 135032.490349 
L 329.922807 135032.490349 
L 328.726316 135032.490349 
L 327.529825 135032.490349 
L 326.333333 135032.490349 
L 325.136842 135032.490349 
L 323.940351 135032.490349 
L 322.74386 135032.490349 
L 321.547368 135032.490349 
L 320.350877 135032.490349 
L 319.154386 135032.490349 
L 317.957895 135032.490349 
L 316.761404 135032.490349 
L 315.564912 135032.490349 
L 314.368421 135032.490349 
L 313.17193 135032.490349 
L 311.975439 135032.490349 
L 310.778947 135032.490349 
L 309.582456 135032.490349 
L 308.385965 135032.490349 
L 307.189474 135032.490349 
L 305.992982 135032.490349 
L 304.796491 135032.490349 
L 303.6 135032.490349 
L 302.403509 135032.490349 
L 301.207018 135032.490349 
L 300.010526 135032.490349 
L 298.814035 135032.490349 
L 297.617544 135032.490349 
L 296.421053 135032.490349 
L 295.224561 135032.490349 
L 294.02807 135032.490349 
L 292.831579 135032.490349 
L 291.635088 135032.490349 
L 290.438596 135032.490349 
L 289.242105 135032.490349 
L 288.045614 135032.490349 
L 286.849123 135032.490349 
L 285.652632 135032.490349 
L 284.45614 135032.490349 
L 283.259649 135032.490349 
L 282.063158 135032.490349 
L 280.866667 135032.490349 
L 279.670175 135032.490349 
L 278.473684 135032.490349 
L 277.277193 135032.490349 
L 276.080702 135032.490349 
L 274.884211 135032.490349 
L 273.687719 135032.490349 
L 272.491228 135032.490349 
L 271.294737 135032.490349 
L 270.098246 135032.490349 
L 268.901754 135032.490349 
L 267.705263 135032.490349 
L 266.508772 135032.490349 
L 265.312281 135032.490349 
L 264.115789 135032.490349 
L 262.919298 135032.490349 
L 261.722807 135032.490349 
L 260.526316 135032.490349 
L 259.329825 135032.490349 
L 258.133333 135032.490349 
L 256.936842 135032.490349 
L 255.740351 135032.490349 
L 254.54386 135032.490349 
L 253.347368 135032.490349 
L 252.150877 135032.490349 
L 250.954386 135032.490349 
L 249.757895 135032.490349 
L 248.561404 135032.490349 
L 247.364912 135032.490349 
L 246.168421 135032.490349 
L 244.97193 135032.490349 
L 243.775439 135032.490349 
L 242.578947 135032.490349 
L 241.382456 135032.490349 
L 240.185965 135032.490349 
L 238.989474 135032.490349 
L 237.792982 135032.490349 
L 236.596491 135032.490349 
L 235.4 135032.490349 
L 234.203509 135032.490349 
L 233.007018 135032.490349 
L 231.810526 135032.490349 
L 230.614035 135032.490349 
L 229.417544 135032.490349 
L 228.221053 135032.490349 
L 227.024561 135032.490349 
L 225.82807 135032.490349 
L 224.631579 135032.490349 
L 223.435088 135032.490349 
L 222.238596 135032.490349 
L 221.042105 135032.490349 
L 219.845614 135032.490349 
L 218.649123 135032.490349 
L 217.452632 135032.490349 
L 216.25614 135032.490349 
L 215.059649 135032.490349 
L 213.863158 135032.490349 
L 212.666667 135032.490349 
L 211.470175 135032.490349 
L 210.273684 135032.490349 
L 209.077193 135032.490349 
L 207.880702 135032.490349 
L 206.684211 135032.490349 
L 205.487719 135032.490349 
L 204.291228 135032.490349 
L 203.094737 135032.490349 
L 201.898246 135032.490349 
L 200.701754 135032.490349 
L 199.505263 135032.490349 
L 198.308772 135032.490349 
L 197.112281 135032.490349 
L 195.915789 135032.490349 
L 194.719298 135032.490349 
L 193.522807 135032.490349 
L 192.326316 135032.490349 
L 191.129825 135032.490349 
L 189.933333 135032.490349 
L 188.736842 135032.490349 
L 187.540351 135032.490349 
L 186.34386 135032.490349 
L 185.147368 135032.490349 
L 183.950877 135032.490349 
L 182.754386 135032.490349 
L 181.557895 135032.490349 
L 180.361404 135032.490349 
L 179.164912 135032.490349 
L 177.968421 135032.490349 
L 176.77193 135032.490349 
L 175.575439 135032.490349 
L 174.378947 135032.490349 
L 173.182456 135032.490349 
L 171.985965 135032.490349 
L 170.789474 135032.490349 
L 169.592982 135032.490349 
L 168.396491 135032.490349 
L 167.2 135032.490349 
L 166.003509 135032.490349 
L 164.807018 135032.490349 
L 163.610526 135032.490349 
L 162.414035 135032.490349 
L 161.217544 135032.490349 
L 160.021053 135032.490349 
L 158.824561 135032.490349 
L 157.62807 135032.490349 
L 156.431579 135032.490349 
L 155.235088 135032.490349 
L 154.038596 135032.490349 
L 152.842105 135032.490349 
L 151.645614 135032.490349 
L 150.449123 135032.490349 
L 149.252632 135032.490349 
L 148.05614 135032.490349 
L 146.859649 135032.490349 
L 145.663158 135032.490349 
L 144.466667 135032.490349 
L 143.270175 135032.490349 
L 142.073684 135032.490349 
L 140.877193 135032.490349 
L 139.680702 135032.490349 
L 138.484211 135032.490349 
L 137.287719 135032.490349 
L 136.091228 135032.490349 
L 134.894737 135032.490349 
L 133.698246 135032.490349 
L 132.501754 135032.490349 
L 131.305263 135032.490349 
L 130.108772 135032.490349 
L 128.912281 135032.490349 
L 127.715789 135032.490349 
L 126.519298 135032.490349 
L 125.322807 135032.490349 
L 124.126316 135032.490349 
L 122.929825 135032.490349 
L 121.733333 135032.490349 
L 120.536842 135032.490349 
L 119.340351 135032.490349 
L 118.14386 135032.490349 
L 116.947368 135032.490349 
L 115.750877 135032.490349 
L 114.554386 135032.490349 
L 113.357895 135032.490349 
L 112.161404 135032.490349 
L 110.964912 135032.490349 
L 109.768421 135032.490349 
L 108.57193 135032.490349 
L 107.375439 135032.490349 
L 106.178947 135032.490349 
L 104.982456 135032.490349 
L 103.785965 135032.490349 
L 102.589474 135032.490349 
L 101.392982 135032.490349 
L 100.196491 135032.490349 
L 99 135032.490349 
z
" style="fill:#ff8080;fill-opacity:0.5;stroke:#ff8080;stroke-opacity:0.5;"/>
   </g>
   <g id="matplotlib.axis_1">
    <g id="xtick_1">
     <g id="line2d_1">
      <path clip-path="url(#p68e2955192)" d="M 99 544.68 
L 99 73.44 
" style="fill:none;stroke:#b0b0b0;stroke-linecap:square;stroke-width:0.8;"/>
     </g>
     <g id="line2d_2">
      <defs>
       <path d="M 0 0 
L 0 3.5 
" id="m4abed1d830" style="stroke:#000000;stroke-width:0.8;"/>
      </defs>
      <g>
       <use style="stroke:#000000;stroke-width:0.8;" x="99" xlink:href="#m4abed1d830" y="544.68"/>
      </g>
     </g>
    </g>
    <g id="xtick_2">
     <g id="line2d_3">
      <path clip-path="url(#p68e2955192)" d="M 122.929825 544.68 
L 122.929825 73.44 
" style="fill:none;stroke:#b0b0b0;stroke-linecap:square;stroke-width:0.8;"/>
     </g>
     <g id="line2d_4">
      <g>
       <use style="stroke:#000000;stroke-width:0.8;" x="122.929825" xlink:href="#m4abed1d830" y="544.68"/>
      </g>
     </g>
     <g id="text_1">
      <!-- Apr -->
      <g transform="translate(114.279825 559.278437)scale(0.1 -0.1)">
       <defs>
        <path d="M 2188 4044 
L 1331 1722 
L 3047 1722 
L 2188 4044 
z
M 1831 4666 
L 2547 4666 
L 4325 0 
L 3669 0 
L 3244 1197 
L 1141 1197 
L 716 0 
L 50 0 
L 1831 4666 
z
" id="DejaVuSans-41" transform="scale(0.015625)"/>
        <path d="M 1159 525 
L 1159 -1331 
L 581 -1331 
L 581 3500 
L 1159 3500 
L 1159 2969 
Q 1341 3281 1617 3432 
Q 1894 3584 2278 3584 
Q 2916 3584 3314 3078 
Q 3713 2572 3713 1747 
Q 3713 922 3314 415 
Q 2916 -91 2278 -91 
Q 1894 -91 1617 61 
Q 1341 213 1159 525 
z
M 3116 1747 
Q 3116 2381 2855 2742 
Q 2594 3103 2138 3103 
Q 1681 3103 1420 2742 
Q 1159 2381 1159 1747 
Q 1159 1113 1420 752 
Q 1681 391 2138 391 
Q 2594 391 2855 752 
Q 3116 1113 3116 1747 
z
" id="DejaVuSans-70" transform="scale(0.015625)"/>
        <path d="M 2631 2963 
Q 2534 3019 2420 3045 
Q 2306 3072 2169 3072 
Q 1681 3072 1420 2755 
Q 1159 2438 1159 1844 
L 1159 0 
L 581 0 
L 581 3500 
L 1159 3500 
L 1159 2956 
Q 1341 3275 1631 3429 
Q 1922 3584 2338 3584 
Q 2397 3584 2469 3576 
Q 2541 3569 2628 3553 
L 2631 2963 
z
" id="DejaVuSans-72" transform="scale(0.015625)"/>
       </defs>
       <use xlink:href="#DejaVuSans-41"/>
       <use x="68.408203" xlink:href="#DejaVuSans-70"/>
       <use x="131.884766" xlink:href="#DejaVuSans-72"/>
      </g>
     </g>
    </g>
    <g id="xtick_3">
     <g id="line2d_5">
      <path clip-path="url(#p68e2955192)" d="M 231.810526 544.68 
L 231.810526 73.44 
" style="fill:none;stroke:#b0b0b0;stroke-linecap:square;stroke-width:0.8;"/>
     </g>
     <g id="line2d_6">
      <g>
       <use style="stroke:#000000;stroke-width:0.8;" x="231.810526" xlink:href="#m4abed1d830" y="544.68"/>
      </g>
     </g>
     <g id="text_2">
      <!-- Jul -->
      <g transform="translate(225.777714 559.278437)scale(0.1 -0.1)">
       <defs>
        <path d="M 628 4666 
L 1259 4666 
L 1259 325 
Q 1259 -519 939 -900 
Q 619 -1281 -91 -1281 
L -331 -1281 
L -331 -750 
L -134 -750 
Q 284 -750 456 -515 
Q 628 -281 628 325 
L 628 4666 
z
" id="DejaVuSans-4a" transform="scale(0.015625)"/>
        <path d="M 544 1381 
L 544 3500 
L 1119 3500 
L 1119 1403 
Q 1119 906 1312 657 
Q 1506 409 1894 409 
Q 2359 409 2629 706 
Q 2900 1003 2900 1516 
L 2900 3500 
L 3475 3500 
L 3475 0 
L 2900 0 
L 2900 538 
Q 2691 219 2414 64 
Q 2138 -91 1772 -91 
Q 1169 -91 856 284 
Q 544 659 544 1381 
z
M 1991 3584 
L 1991 3584 
z
" id="DejaVuSans-75" transform="scale(0.015625)"/>
        <path d="M 603 4863 
L 1178 4863 
L 1178 0 
L 603 0 
L 603 4863 
z
" id="DejaVuSans-6c" transform="scale(0.015625)"/>
       </defs>
       <use xlink:href="#DejaVuSans-4a"/>
       <use x="29.492188" xlink:href="#DejaVuSans-75"/>
       <use x="92.871094" xlink:href="#DejaVuSans-6c"/>
      </g>
     </g>
    </g>
    <g id="xtick_4">
     <g id="line2d_7">
      <path clip-path="url(#p68e2955192)" d="M 341.887719 544.68 
L 341.887719 73.44 
" style="fill:none;stroke:#b0b0b0;stroke-linecap:square;stroke-width:0.8;"/>
     </g>
     <g id="line2d_8">
      <g>
       <use style="stroke:#000000;stroke-width:0.8;" x="341.887719" xlink:href="#m4abed1d830" y="544.68"/>
      </g>
     </g>
     <g id="text_3">
      <!-- Oct -->
      <g transform="translate(333.242407 559.278437)scale(0.1 -0.1)">
       <defs>
        <path d="M 2522 4238 
Q 1834 4238 1429 3725 
Q 1025 3213 1025 2328 
Q 1025 1447 1429 934 
Q 1834 422 2522 422 
Q 3209 422 3611 934 
Q 4013 1447 4013 2328 
Q 4013 3213 3611 3725 
Q 3209 4238 2522 4238 
z
M 2522 4750 
Q 3503 4750 4090 4092 
Q 4678 3434 4678 2328 
Q 4678 1225 4090 567 
Q 3503 -91 2522 -91 
Q 1538 -91 948 565 
Q 359 1222 359 2328 
Q 359 3434 948 4092 
Q 1538 4750 2522 4750 
z
" id="DejaVuSans-4f" transform="scale(0.015625)"/>
        <path d="M 3122 3366 
L 3122 2828 
Q 2878 2963 2633 3030 
Q 2388 3097 2138 3097 
Q 1578 3097 1268 2742 
Q 959 2388 959 1747 
Q 959 1106 1268 751 
Q 1578 397 2138 397 
Q 2388 397 2633 464 
Q 2878 531 3122 666 
L 3122 134 
Q 2881 22 2623 -34 
Q 2366 -91 2075 -91 
Q 1284 -91 818 406 
Q 353 903 353 1747 
Q 353 2603 823 3093 
Q 1294 3584 2113 3584 
Q 2378 3584 2631 3529 
Q 2884 3475 3122 3366 
z
" id="DejaVuSans-63" transform="scale(0.015625)"/>
        <path d="M 1172 4494 
L 1172 3500 
L 2356 3500 
L 2356 3053 
L 1172 3053 
L 1172 1153 
Q 1172 725 1289 603 
Q 1406 481 1766 481 
L 2356 481 
L 2356 0 
L 1766 0 
Q 1100 0 847 248 
Q 594 497 594 1153 
L 594 3053 
L 172 3053 
L 172 3500 
L 594 3500 
L 594 4494 
L 1172 4494 
z
" id="DejaVuSans-74" transform="scale(0.015625)"/>
       </defs>
       <use xlink:href="#DejaVuSans-4f"/>
       <use x="78.710938" xlink:href="#DejaVuSans-63"/>
       <use x="133.691406" xlink:href="#DejaVuSans-74"/>
      </g>
     </g>
    </g>
    <g id="xtick_5">
     <g id="line2d_9">
      <path clip-path="url(#p68e2955192)" d="M 451.964912 544.68 
L 451.964912 73.44 
" style="fill:none;stroke:#b0b0b0;stroke-linecap:square;stroke-width:0.8;"/>
     </g>
     <g id="line2d_10">
      <g>
       <use style="stroke:#000000;stroke-width:0.8;" x="451.964912" xlink:href="#m4abed1d830" y="544.68"/>
      </g>
     </g>
     <g id="text_4">
      <!-- Jan -->
      <g transform="translate(444.2571 559.278437)scale(0.1 -0.1)">
       <defs>
        <path d="M 2194 1759 
Q 1497 1759 1228 1600 
Q 959 1441 959 1056 
Q 959 750 1161 570 
Q 1363 391 1709 391 
Q 2188 391 2477 730 
Q 2766 1069 2766 1631 
L 2766 1759 
L 2194 1759 
z
M 3341 1997 
L 3341 0 
L 2766 0 
L 2766 531 
Q 2569 213 2275 61 
Q 1981 -91 1556 -91 
Q 1019 -91 701 211 
Q 384 513 384 1019 
Q 384 1609 779 1909 
Q 1175 2209 1959 2209 
L 2766 2209 
L 2766 2266 
Q 2766 2663 2505 2880 
Q 2244 3097 1772 3097 
Q 1472 3097 1187 3025 
Q 903 2953 641 2809 
L 641 3341 
Q 956 3463 1253 3523 
Q 1550 3584 1831 3584 
Q 2591 3584 2966 3190 
Q 3341 2797 3341 1997 
z
" id="DejaVuSans-61" transform="scale(0.015625)"/>
        <path d="M 3513 2113 
L 3513 0 
L 2938 0 
L 2938 2094 
Q 2938 2591 2744 2837 
Q 2550 3084 2163 3084 
Q 1697 3084 1428 2787 
Q 1159 2491 1159 1978 
L 1159 0 
L 581 0 
L 581 3500 
L 1159 3500 
L 1159 2956 
Q 1366 3272 1645 3428 
Q 1925 3584 2291 3584 
Q 2894 3584 3203 3211 
Q 3513 2838 3513 2113 
z
" id="DejaVuSans-6e" transform="scale(0.015625)"/>
       </defs>
       <use xlink:href="#DejaVuSans-4a"/>
       <use x="29.492188" xlink:href="#DejaVuSans-61"/>
       <use x="90.771484" xlink:href="#DejaVuSans-6e"/>
      </g>
      <!-- 2021 -->
      <g transform="translate(439.239912 570.47625)scale(0.1 -0.1)">
       <defs>
        <path d="M 1228 531 
L 3431 531 
L 3431 0 
L 469 0 
L 469 531 
Q 828 903 1448 1529 
Q 2069 2156 2228 2338 
Q 2531 2678 2651 2914 
Q 2772 3150 2772 3378 
Q 2772 3750 2511 3984 
Q 2250 4219 1831 4219 
Q 1534 4219 1204 4116 
Q 875 4013 500 3803 
L 500 4441 
Q 881 4594 1212 4672 
Q 1544 4750 1819 4750 
Q 2544 4750 2975 4387 
Q 3406 4025 3406 3419 
Q 3406 3131 3298 2873 
Q 3191 2616 2906 2266 
Q 2828 2175 2409 1742 
Q 1991 1309 1228 531 
z
" id="DejaVuSans-32" transform="scale(0.015625)"/>
        <path d="M 2034 4250 
Q 1547 4250 1301 3770 
Q 1056 3291 1056 2328 
Q 1056 1369 1301 889 
Q 1547 409 2034 409 
Q 2525 409 2770 889 
Q 3016 1369 3016 2328 
Q 3016 3291 2770 3770 
Q 2525 4250 2034 4250 
z
M 2034 4750 
Q 2819 4750 3233 4129 
Q 3647 3509 3647 2328 
Q 3647 1150 3233 529 
Q 2819 -91 2034 -91 
Q 1250 -91 836 529 
Q 422 1150 422 2328 
Q 422 3509 836 4129 
Q 1250 4750 2034 4750 
z
" id="DejaVuSans-30" transform="scale(0.015625)"/>
        <path d="M 794 531 
L 1825 531 
L 1825 4091 
L 703 3866 
L 703 4441 
L 1819 4666 
L 2450 4666 
L 2450 531 
L 3481 531 
L 3481 0 
L 794 0 
L 794 531 
z
" id="DejaVuSans-31" transform="scale(0.015625)"/>
       </defs>
       <use xlink:href="#DejaVuSans-32"/>
       <use x="63.623047" xlink:href="#DejaVuSans-30"/>
       <use x="127.246094" xlink:href="#DejaVuSans-32"/>
       <use x="190.869141" xlink:href="#DejaVuSans-31"/>
      </g>
     </g>
    </g>
    <g id="xtick_6">
     <g id="line2d_11">
      <path clip-path="url(#p68e2955192)" d="M 559.649123 544.68 
L 559.649123 73.44 
" style="fill:none;stroke:#b0b0b0;stroke-linecap:square;stroke-width:0.8;"/>
     </g>
     <g id="line2d_12">
      <g>
       <use style="stroke:#000000;stroke-width:0.8;" x="559.649123" xlink:href="#m4abed1d830" y="544.68"/>
      </g>
     </g>
     <g id="text_5">
      <!-- Apr -->
      <g transform="translate(550.999123 559.278437)scale(0.1 -0.1)">
       <use xlink:href="#DejaVuSans-41"/>
       <use x="68.408203" xlink:href="#DejaVuSans-70"/>
       <use x="131.884766" xlink:href="#DejaVuSans-72"/>
      </g>
     </g>
    </g>
    <g id="xtick_7">
     <g id="line2d_13">
      <path clip-path="url(#p68e2955192)" d="M 668.529825 544.68 
L 668.529825 73.44 
" style="fill:none;stroke:#b0b0b0;stroke-linecap:square;stroke-width:0.8;"/>
     </g>
     <g id="line2d_14">
      <g>
       <use style="stroke:#000000;stroke-width:0.8;" x="668.529825" xlink:href="#m4abed1d830" y="544.68"/>
      </g>
     </g>
     <g id="text_6">
      <!-- Jul -->
      <g transform="translate(662.497012 559.278437)scale(0.1 -0.1)">
       <use xlink:href="#DejaVuSans-4a"/>
       <use x="29.492188" xlink:href="#DejaVuSans-75"/>
       <use x="92.871094" xlink:href="#DejaVuSans-6c"/>
      </g>
     </g>
    </g>
    <g id="xtick_8">
     <g id="line2d_15">
      <path clip-path="url(#p68e2955192)" d="M 712.8 544.68 
L 712.8 73.44 
" style="fill:none;stroke:#b0b0b0;stroke-linecap:square;stroke-width:0.8;"/>
     </g>
     <g id="line2d_16">
      <g>
       <use style="stroke:#000000;stroke-width:0.8;" x="712.8" xlink:href="#m4abed1d830" y="544.68"/>
      </g>
     </g>
    </g>
    <g id="xtick_9">
     <g id="line2d_17">
      <defs>
       <path d="M 0 0 
L 0 2 
" id="mbe9820739d" style="stroke:#000000;stroke-width:0.6;"/>
      </defs>
      <g>
       <use style="stroke:#000000;stroke-width:0.6;" x="158.824561" xlink:href="#mbe9820739d" y="544.68"/>
      </g>
     </g>
    </g>
    <g id="xtick_10">
     <g id="line2d_18">
      <g>
       <use style="stroke:#000000;stroke-width:0.6;" x="195.915789" xlink:href="#mbe9820739d" y="544.68"/>
      </g>
     </g>
    </g>
    <g id="xtick_11">
     <g id="line2d_19">
      <g>
       <use style="stroke:#000000;stroke-width:0.6;" x="268.901754" xlink:href="#mbe9820739d" y="544.68"/>
      </g>
     </g>
    </g>
    <g id="xtick_12">
     <g id="line2d_20">
      <g>
       <use style="stroke:#000000;stroke-width:0.6;" x="305.992982" xlink:href="#mbe9820739d" y="544.68"/>
      </g>
     </g>
    </g>
    <g id="xtick_13">
     <g id="line2d_21">
      <g>
       <use style="stroke:#000000;stroke-width:0.6;" x="378.978947" xlink:href="#mbe9820739d" y="544.68"/>
      </g>
     </g>
    </g>
    <g id="xtick_14">
     <g id="line2d_22">
      <g>
       <use style="stroke:#000000;stroke-width:0.6;" x="414.873684" xlink:href="#mbe9820739d" y="544.68"/>
      </g>
     </g>
    </g>
    <g id="xtick_15">
     <g id="line2d_23">
      <g>
       <use style="stroke:#000000;stroke-width:0.6;" x="489.05614" xlink:href="#mbe9820739d" y="544.68"/>
      </g>
     </g>
    </g>
    <g id="xtick_16">
     <g id="line2d_24">
      <g>
       <use style="stroke:#000000;stroke-width:0.6;" x="522.557895" xlink:href="#mbe9820739d" y="544.68"/>
      </g>
     </g>
    </g>
    <g id="xtick_17">
     <g id="line2d_25">
      <g>
       <use style="stroke:#000000;stroke-width:0.6;" x="595.54386" xlink:href="#mbe9820739d" y="544.68"/>
      </g>
     </g>
    </g>
    <g id="xtick_18">
     <g id="line2d_26">
      <g>
       <use style="stroke:#000000;stroke-width:0.6;" x="632.635088" xlink:href="#mbe9820739d" y="544.68"/>
      </g>
     </g>
    </g>
    <g id="xtick_19">
     <g id="line2d_27">
      <g>
       <use style="stroke:#000000;stroke-width:0.6;" x="705.621053" xlink:href="#mbe9820739d" y="544.68"/>
      </g>
     </g>
    </g>
    <g id="text_7">
     <!-- Date -->
     <g transform="translate(393.949219 584.154375)scale(0.1 -0.1)">
      <defs>
       <path d="M 1259 4147 
L 1259 519 
L 2022 519 
Q 2988 519 3436 956 
Q 3884 1394 3884 2338 
Q 3884 3275 3436 3711 
Q 2988 4147 2022 4147 
L 1259 4147 
z
M 628 4666 
L 1925 4666 
Q 3281 4666 3915 4102 
Q 4550 3538 4550 2338 
Q 4550 1131 3912 565 
Q 3275 0 1925 0 
L 628 0 
L 628 4666 
z
" id="DejaVuSans-44" transform="scale(0.015625)"/>
       <path d="M 3597 1894 
L 3597 1613 
L 953 1613 
Q 991 1019 1311 708 
Q 1631 397 2203 397 
Q 2534 397 2845 478 
Q 3156 559 3463 722 
L 3463 178 
Q 3153 47 2828 -22 
Q 2503 -91 2169 -91 
Q 1331 -91 842 396 
Q 353 884 353 1716 
Q 353 2575 817 3079 
Q 1281 3584 2069 3584 
Q 2775 3584 3186 3129 
Q 3597 2675 3597 1894 
z
M 3022 2063 
Q 3016 2534 2758 2815 
Q 2500 3097 2075 3097 
Q 1594 3097 1305 2825 
Q 1016 2553 972 2059 
L 3022 2063 
z
" id="DejaVuSans-65" transform="scale(0.015625)"/>
      </defs>
      <use xlink:href="#DejaVuSans-44"/>
      <use x="77.001953" xlink:href="#DejaVuSans-61"/>
      <use x="138.28125" xlink:href="#DejaVuSans-74"/>
      <use x="177.490234" xlink:href="#DejaVuSans-65"/>
     </g>
    </g>
   </g>
   <g id="matplotlib.axis_2">
    <g id="ytick_1">
     <g id="line2d_28">
      <path clip-path="url(#p68e2955192)" d="M 99 482.756494 
L 712.8 482.756494 
" style="fill:none;stroke:#b0b0b0;stroke-linecap:square;stroke-width:0.8;"/>
     </g>
     <g id="line2d_29">
      <defs>
       <path d="M 0 0 
L -3.5 0 
" id="me91a084207" style="stroke:#000000;stroke-width:0.8;"/>
      </defs>
      <g>
       <use style="stroke:#000000;stroke-width:0.8;" x="99" xlink:href="#me91a084207" y="482.756494"/>
      </g>
     </g>
     <g id="text_8">
      <!-- $\mathdefault{10^{0}}$ -->
      <g transform="translate(74.4 486.555713)scale(0.1 -0.1)">
       <use transform="translate(0 0.765625)" xlink:href="#DejaVuSans-31"/>
       <use transform="translate(63.623047 0.765625)" xlink:href="#DejaVuSans-30"/>
       <use transform="translate(128.203125 39.046875)scale(0.7)" xlink:href="#DejaVuSans-30"/>
      </g>
     </g>
    </g>
    <g id="ytick_2">
     <g id="line2d_30">
      <path clip-path="url(#p68e2955192)" d="M 99 348.20676 
L 712.8 348.20676 
" style="fill:none;stroke:#b0b0b0;stroke-linecap:square;stroke-width:0.8;"/>
     </g>
     <g id="line2d_31">
      <g>
       <use style="stroke:#000000;stroke-width:0.8;" x="99" xlink:href="#me91a084207" y="348.20676"/>
      </g>
     </g>
     <g id="text_9">
      <!-- $\mathdefault{10^{1}}$ -->
      <g transform="translate(74.4 352.005979)scale(0.1 -0.1)">
       <use transform="translate(0 0.684375)" xlink:href="#DejaVuSans-31"/>
       <use transform="translate(63.623047 0.684375)" xlink:href="#DejaVuSans-30"/>
       <use transform="translate(128.203125 38.965625)scale(0.7)" xlink:href="#DejaVuSans-31"/>
      </g>
     </g>
    </g>
    <g id="ytick_3">
     <g id="line2d_32">
      <path clip-path="url(#p68e2955192)" d="M 99 213.657026 
L 712.8 213.657026 
" style="fill:none;stroke:#b0b0b0;stroke-linecap:square;stroke-width:0.8;"/>
     </g>
     <g id="line2d_33">
      <g>
       <use style="stroke:#000000;stroke-width:0.8;" x="99" xlink:href="#me91a084207" y="213.657026"/>
      </g>
     </g>
     <g id="text_10">
      <!-- $\mathdefault{10^{2}}$ -->
      <g transform="translate(74.4 217.456245)scale(0.1 -0.1)">
       <use transform="translate(0 0.765625)" xlink:href="#DejaVuSans-31"/>
       <use transform="translate(63.623047 0.765625)" xlink:href="#DejaVuSans-30"/>
       <use transform="translate(128.203125 39.046875)scale(0.7)" xlink:href="#DejaVuSans-32"/>
      </g>
     </g>
    </g>
    <g id="ytick_4">
     <g id="line2d_34">
      <path clip-path="url(#p68e2955192)" d="M 99 79.107293 
L 712.8 79.107293 
" style="fill:none;stroke:#b0b0b0;stroke-linecap:square;stroke-width:0.8;"/>
     </g>
     <g id="line2d_35">
      <g>
       <use style="stroke:#000000;stroke-width:0.8;" x="99" xlink:href="#me91a084207" y="79.107293"/>
      </g>
     </g>
     <g id="text_11">
      <!-- $\mathdefault{10^{3}}$ -->
      <g transform="translate(74.4 82.906511)scale(0.1 -0.1)">
       <defs>
        <path d="M 2597 2516 
Q 3050 2419 3304 2112 
Q 3559 1806 3559 1356 
Q 3559 666 3084 287 
Q 2609 -91 1734 -91 
Q 1441 -91 1130 -33 
Q 819 25 488 141 
L 488 750 
Q 750 597 1062 519 
Q 1375 441 1716 441 
Q 2309 441 2620 675 
Q 2931 909 2931 1356 
Q 2931 1769 2642 2001 
Q 2353 2234 1838 2234 
L 1294 2234 
L 1294 2753 
L 1863 2753 
Q 2328 2753 2575 2939 
Q 2822 3125 2822 3475 
Q 2822 3834 2567 4026 
Q 2313 4219 1838 4219 
Q 1578 4219 1281 4162 
Q 984 4106 628 3988 
L 628 4550 
Q 988 4650 1302 4700 
Q 1616 4750 1894 4750 
Q 2613 4750 3031 4423 
Q 3450 4097 3450 3541 
Q 3450 3153 3228 2886 
Q 3006 2619 2597 2516 
z
" id="DejaVuSans-33" transform="scale(0.015625)"/>
       </defs>
       <use transform="translate(0 0.765625)" xlink:href="#DejaVuSans-31"/>
       <use transform="translate(63.623047 0.765625)" xlink:href="#DejaVuSans-30"/>
       <use transform="translate(128.203125 39.046875)scale(0.7)" xlink:href="#DejaVuSans-33"/>
      </g>
     </g>
    </g>
    <g id="ytick_5">
     <g id="line2d_36">
      <path clip-path="url(#p68e2955192)" d="M 99 536.299216 
L 712.8 536.299216 
" style="fill:none;stroke:#b0b0b0;stroke-linecap:square;stroke-width:0.8;"/>
     </g>
     <g id="line2d_37">
      <defs>
       <path d="M 0 0 
L -2 0 
" id="m0cb60b688e" style="stroke:#000000;stroke-width:0.6;"/>
      </defs>
      <g>
       <use style="stroke:#000000;stroke-width:0.6;" x="99" xlink:href="#m0cb60b688e" y="536.299216"/>
      </g>
     </g>
    </g>
    <g id="ytick_6">
     <g id="line2d_38">
      <path clip-path="url(#p68e2955192)" d="M 99 523.26 
L 712.8 523.26 
" style="fill:none;stroke:#b0b0b0;stroke-linecap:square;stroke-width:0.8;"/>
     </g>
     <g id="line2d_39">
      <g>
       <use style="stroke:#000000;stroke-width:0.6;" x="99" xlink:href="#m0cb60b688e" y="523.26"/>
      </g>
     </g>
    </g>
    <g id="ytick_7">
     <g id="line2d_40">
      <path clip-path="url(#p68e2955192)" d="M 99 512.606184 
L 712.8 512.606184 
" style="fill:none;stroke:#b0b0b0;stroke-linecap:square;stroke-width:0.8;"/>
     </g>
     <g id="line2d_41">
      <g>
       <use style="stroke:#000000;stroke-width:0.6;" x="99" xlink:href="#m0cb60b688e" y="512.606184"/>
      </g>
     </g>
    </g>
    <g id="ytick_8">
     <g id="line2d_42">
      <path clip-path="url(#p68e2955192)" d="M 99 503.598512 
L 712.8 503.598512 
" style="fill:none;stroke:#b0b0b0;stroke-linecap:square;stroke-width:0.8;"/>
     </g>
     <g id="line2d_43">
      <g>
       <use style="stroke:#000000;stroke-width:0.6;" x="99" xlink:href="#m0cb60b688e" y="503.598512"/>
      </g>
     </g>
    </g>
    <g id="ytick_9">
     <g id="line2d_44">
      <path clip-path="url(#p68e2955192)" d="M 99 495.795711 
L 712.8 495.795711 
" style="fill:none;stroke:#b0b0b0;stroke-linecap:square;stroke-width:0.8;"/>
     </g>
     <g id="line2d_45">
      <g>
       <use style="stroke:#000000;stroke-width:0.6;" x="99" xlink:href="#m0cb60b688e" y="495.795711"/>
      </g>
     </g>
    </g>
    <g id="ytick_10">
     <g id="line2d_46">
      <path clip-path="url(#p68e2955192)" d="M 99 488.913152 
L 712.8 488.913152 
" style="fill:none;stroke:#b0b0b0;stroke-linecap:square;stroke-width:0.8;"/>
     </g>
     <g id="line2d_47">
      <g>
       <use style="stroke:#000000;stroke-width:0.6;" x="99" xlink:href="#m0cb60b688e" y="488.913152"/>
      </g>
     </g>
    </g>
    <g id="ytick_11">
     <g id="line2d_48">
      <path clip-path="url(#p68e2955192)" d="M 99 442.252988 
L 712.8 442.252988 
" style="fill:none;stroke:#b0b0b0;stroke-linecap:square;stroke-width:0.8;"/>
     </g>
     <g id="line2d_49">
      <g>
       <use style="stroke:#000000;stroke-width:0.6;" x="99" xlink:href="#m0cb60b688e" y="442.252988"/>
      </g>
     </g>
    </g>
    <g id="ytick_12">
     <g id="line2d_50">
      <path clip-path="url(#p68e2955192)" d="M 99 418.559956 
L 712.8 418.559956 
" style="fill:none;stroke:#b0b0b0;stroke-linecap:square;stroke-width:0.8;"/>
     </g>
     <g id="line2d_51">
      <g>
       <use style="stroke:#000000;stroke-width:0.6;" x="99" xlink:href="#m0cb60b688e" y="418.559956"/>
      </g>
     </g>
    </g>
    <g id="ytick_13">
     <g id="line2d_52">
      <path clip-path="url(#p68e2955192)" d="M 99 401.749483 
L 712.8 401.749483 
" style="fill:none;stroke:#b0b0b0;stroke-linecap:square;stroke-width:0.8;"/>
     </g>
     <g id="line2d_53">
      <g>
       <use style="stroke:#000000;stroke-width:0.6;" x="99" xlink:href="#m0cb60b688e" y="401.749483"/>
      </g>
     </g>
    </g>
    <g id="ytick_14">
     <g id="line2d_54">
      <path clip-path="url(#p68e2955192)" d="M 99 388.710266 
L 712.8 388.710266 
" style="fill:none;stroke:#b0b0b0;stroke-linecap:square;stroke-width:0.8;"/>
     </g>
     <g id="line2d_55">
      <g>
       <use style="stroke:#000000;stroke-width:0.6;" x="99" xlink:href="#m0cb60b688e" y="388.710266"/>
      </g>
     </g>
    </g>
    <g id="ytick_15">
     <g id="line2d_56">
      <path clip-path="url(#p68e2955192)" d="M 99 378.056451 
L 712.8 378.056451 
" style="fill:none;stroke:#b0b0b0;stroke-linecap:square;stroke-width:0.8;"/>
     </g>
     <g id="line2d_57">
      <g>
       <use style="stroke:#000000;stroke-width:0.6;" x="99" xlink:href="#m0cb60b688e" y="378.056451"/>
      </g>
     </g>
    </g>
    <g id="ytick_16">
     <g id="line2d_58">
      <path clip-path="url(#p68e2955192)" d="M 99 369.048778 
L 712.8 369.048778 
" style="fill:none;stroke:#b0b0b0;stroke-linecap:square;stroke-width:0.8;"/>
     </g>
     <g id="line2d_59">
      <g>
       <use style="stroke:#000000;stroke-width:0.6;" x="99" xlink:href="#m0cb60b688e" y="369.048778"/>
      </g>
     </g>
    </g>
    <g id="ytick_17">
     <g id="line2d_60">
      <path clip-path="url(#p68e2955192)" d="M 99 361.245977 
L 712.8 361.245977 
" style="fill:none;stroke:#b0b0b0;stroke-linecap:square;stroke-width:0.8;"/>
     </g>
     <g id="line2d_61">
      <g>
       <use style="stroke:#000000;stroke-width:0.6;" x="99" xlink:href="#m0cb60b688e" y="361.245977"/>
      </g>
     </g>
    </g>
    <g id="ytick_18">
     <g id="line2d_62">
      <path clip-path="url(#p68e2955192)" d="M 99 354.363419 
L 712.8 354.363419 
" style="fill:none;stroke:#b0b0b0;stroke-linecap:square;stroke-width:0.8;"/>
     </g>
     <g id="line2d_63">
      <g>
       <use style="stroke:#000000;stroke-width:0.6;" x="99" xlink:href="#m0cb60b688e" y="354.363419"/>
      </g>
     </g>
    </g>
    <g id="ytick_19">
     <g id="line2d_64">
      <path clip-path="url(#p68e2955192)" d="M 99 307.703255 
L 712.8 307.703255 
" style="fill:none;stroke:#b0b0b0;stroke-linecap:square;stroke-width:0.8;"/>
     </g>
     <g id="line2d_65">
      <g>
       <use style="stroke:#000000;stroke-width:0.6;" x="99" xlink:href="#m0cb60b688e" y="307.703255"/>
      </g>
     </g>
    </g>
    <g id="ytick_20">
     <g id="line2d_66">
      <path clip-path="url(#p68e2955192)" d="M 99 284.010223 
L 712.8 284.010223 
" style="fill:none;stroke:#b0b0b0;stroke-linecap:square;stroke-width:0.8;"/>
     </g>
     <g id="line2d_67">
      <g>
       <use style="stroke:#000000;stroke-width:0.6;" x="99" xlink:href="#m0cb60b688e" y="284.010223"/>
      </g>
     </g>
    </g>
    <g id="ytick_21">
     <g id="line2d_68">
      <path clip-path="url(#p68e2955192)" d="M 99 267.199749 
L 712.8 267.199749 
" style="fill:none;stroke:#b0b0b0;stroke-linecap:square;stroke-width:0.8;"/>
     </g>
     <g id="line2d_69">
      <g>
       <use style="stroke:#000000;stroke-width:0.6;" x="99" xlink:href="#m0cb60b688e" y="267.199749"/>
      </g>
     </g>
    </g>
    <g id="ytick_22">
     <g id="line2d_70">
      <path clip-path="url(#p68e2955192)" d="M 99 254.160532 
L 712.8 254.160532 
" style="fill:none;stroke:#b0b0b0;stroke-linecap:square;stroke-width:0.8;"/>
     </g>
     <g id="line2d_71">
      <g>
       <use style="stroke:#000000;stroke-width:0.6;" x="99" xlink:href="#m0cb60b688e" y="254.160532"/>
      </g>
     </g>
    </g>
    <g id="ytick_23">
     <g id="line2d_72">
      <path clip-path="url(#p68e2955192)" d="M 99 243.506717 
L 712.8 243.506717 
" style="fill:none;stroke:#b0b0b0;stroke-linecap:square;stroke-width:0.8;"/>
     </g>
     <g id="line2d_73">
      <g>
       <use style="stroke:#000000;stroke-width:0.6;" x="99" xlink:href="#m0cb60b688e" y="243.506717"/>
      </g>
     </g>
    </g>
    <g id="ytick_24">
     <g id="line2d_74">
      <path clip-path="url(#p68e2955192)" d="M 99 234.499044 
L 712.8 234.499044 
" style="fill:none;stroke:#b0b0b0;stroke-linecap:square;stroke-width:0.8;"/>
     </g>
     <g id="line2d_75">
      <g>
       <use style="stroke:#000000;stroke-width:0.6;" x="99" xlink:href="#m0cb60b688e" y="234.499044"/>
      </g>
     </g>
    </g>
    <g id="ytick_25">
     <g id="line2d_76">
      <path clip-path="url(#p68e2955192)" d="M 99 226.696243 
L 712.8 226.696243 
" style="fill:none;stroke:#b0b0b0;stroke-linecap:square;stroke-width:0.8;"/>
     </g>
     <g id="line2d_77">
      <g>
       <use style="stroke:#000000;stroke-width:0.6;" x="99" xlink:href="#m0cb60b688e" y="226.696243"/>
      </g>
     </g>
    </g>
    <g id="ytick_26">
     <g id="line2d_78">
      <path clip-path="url(#p68e2955192)" d="M 99 219.813685 
L 712.8 219.813685 
" style="fill:none;stroke:#b0b0b0;stroke-linecap:square;stroke-width:0.8;"/>
     </g>
     <g id="line2d_79">
      <g>
       <use style="stroke:#000000;stroke-width:0.6;" x="99" xlink:href="#m0cb60b688e" y="219.813685"/>
      </g>
     </g>
    </g>
    <g id="ytick_27">
     <g id="line2d_80">
      <path clip-path="url(#p68e2955192)" d="M 99 173.153521 
L 712.8 173.153521 
" style="fill:none;stroke:#b0b0b0;stroke-linecap:square;stroke-width:0.8;"/>
     </g>
     <g id="line2d_81">
      <g>
       <use style="stroke:#000000;stroke-width:0.6;" x="99" xlink:href="#m0cb60b688e" y="173.153521"/>
      </g>
     </g>
    </g>
    <g id="ytick_28">
     <g id="line2d_82">
      <path clip-path="url(#p68e2955192)" d="M 99 149.460489 
L 712.8 149.460489 
" style="fill:none;stroke:#b0b0b0;stroke-linecap:square;stroke-width:0.8;"/>
     </g>
     <g id="line2d_83">
      <g>
       <use style="stroke:#000000;stroke-width:0.6;" x="99" xlink:href="#m0cb60b688e" y="149.460489"/>
      </g>
     </g>
    </g>
    <g id="ytick_29">
     <g id="line2d_84">
      <path clip-path="url(#p68e2955192)" d="M 99 132.650015 
L 712.8 132.650015 
" style="fill:none;stroke:#b0b0b0;stroke-linecap:square;stroke-width:0.8;"/>
     </g>
     <g id="line2d_85">
      <g>
       <use style="stroke:#000000;stroke-width:0.6;" x="99" xlink:href="#m0cb60b688e" y="132.650015"/>
      </g>
     </g>
    </g>
    <g id="ytick_30">
     <g id="line2d_86">
      <path clip-path="url(#p68e2955192)" d="M 99 119.610798 
L 712.8 119.610798 
" style="fill:none;stroke:#b0b0b0;stroke-linecap:square;stroke-width:0.8;"/>
     </g>
     <g id="line2d_87">
      <g>
       <use style="stroke:#000000;stroke-width:0.6;" x="99" xlink:href="#m0cb60b688e" y="119.610798"/>
      </g>
     </g>
    </g>
    <g id="ytick_31">
     <g id="line2d_88">
      <path clip-path="url(#p68e2955192)" d="M 99 108.956983 
L 712.8 108.956983 
" style="fill:none;stroke:#b0b0b0;stroke-linecap:square;stroke-width:0.8;"/>
     </g>
     <g id="line2d_89">
      <g>
       <use style="stroke:#000000;stroke-width:0.6;" x="99" xlink:href="#m0cb60b688e" y="108.956983"/>
      </g>
     </g>
    </g>
    <g id="ytick_32">
     <g id="line2d_90">
      <path clip-path="url(#p68e2955192)" d="M 99 99.94931 
L 712.8 99.94931 
" style="fill:none;stroke:#b0b0b0;stroke-linecap:square;stroke-width:0.8;"/>
     </g>
     <g id="line2d_91">
      <g>
       <use style="stroke:#000000;stroke-width:0.6;" x="99" xlink:href="#m0cb60b688e" y="99.94931"/>
      </g>
     </g>
    </g>
    <g id="ytick_33">
     <g id="line2d_92">
      <path clip-path="url(#p68e2955192)" d="M 99 92.146509 
L 712.8 92.146509 
" style="fill:none;stroke:#b0b0b0;stroke-linecap:square;stroke-width:0.8;"/>
     </g>
     <g id="line2d_93">
      <g>
       <use style="stroke:#000000;stroke-width:0.6;" x="99" xlink:href="#m0cb60b688e" y="92.146509"/>
      </g>
     </g>
    </g>
    <g id="ytick_34">
     <g id="line2d_94">
      <path clip-path="url(#p68e2955192)" d="M 99 85.263951 
L 712.8 85.263951 
" style="fill:none;stroke:#b0b0b0;stroke-linecap:square;stroke-width:0.8;"/>
     </g>
     <g id="line2d_95">
      <g>
       <use style="stroke:#000000;stroke-width:0.6;" x="99" xlink:href="#m0cb60b688e" y="85.263951"/>
      </g>
     </g>
    </g>
   </g>
   <g id="line2d_96">
    <path clip-path="url(#p68e2955192)" d="M 114.552752 613 
L 114.554386 429.213772 
L 115.750877 418.559956 
L 116.947368 418.559956 
L 118.14386 394.866924 
L 119.340351 373.379218 
L 120.536842 373.379218 
L 121.733333 357.703425 
L 122.929825 348.20676 
L 125.322807 348.20676 
L 126.519298 342.637386 
L 127.715789 335.167544 
L 128.912281 342.637386 
L 130.108772 335.167544 
L 132.501754 335.167544 
L 133.698246 340.039882 
L 134.894737 342.637386 
L 137.287719 342.637386 
L 138.484211 345.355746 
L 140.877193 345.355746 
L 142.073684 348.20676 
L 143.270175 354.363419 
L 144.466667 357.703425 
L 145.663158 357.703425 
L 146.859649 361.245977 
L 148.05614 361.245977 
L 149.252632 365.017234 
L 150.449123 373.379218 
L 151.645614 383.140891 
L 152.842105 388.710266 
L 155.235088 388.710266 
L 156.431579 394.866924 
L 157.62807 401.749483 
L 158.824561 401.749483 
L 160.021053 418.559956 
L 161.217544 429.213772 
L 162.414035 429.213772 
L 163.610526 442.252988 
L 166.003509 442.252988 
L 167.2 429.213772 
L 169.592982 429.213772 
L 170.789474 442.252988 
L 171.985965 442.252988 
L 173.182456 459.063462 
L 174.378947 442.252988 
L 175.575439 459.063462 
L 176.77193 442.252988 
L 177.968421 442.252988 
L 179.164912 429.213772 
L 180.361404 429.213772 
L 181.557895 418.559956 
L 182.754386 429.213772 
L 183.950877 442.252988 
L 185.147368 429.213772 
L 186.34386 429.213772 
L 187.540351 418.559956 
L 194.719298 418.559956 
L 195.915789 409.552284 
L 197.112281 394.866924 
L 198.308772 388.710266 
L 199.505263 383.140891 
L 200.701754 373.379218 
L 201.898246 348.20676 
L 203.094737 342.637386 
L 204.291228 330.670386 
L 205.487719 330.670386 
L 206.684211 318.944354 
L 207.880702 310.700538 
L 209.077193 307.703255 
L 210.273684 303.477254 
L 211.470175 307.703255 
L 212.666667 307.703255 
L 213.863158 310.700538 
L 215.059649 306.260361 
L 216.25614 310.700538 
L 217.452632 310.700538 
L 218.649123 306.260361 
L 221.042105 306.260361 
L 222.238596 302.13388 
L 223.435088 303.477254 
L 224.631579 303.477254 
L 225.82807 300.820696 
L 227.024561 300.820696 
L 228.221053 295.844567 
L 231.810526 292.372207 
L 233.007018 288.041766 
L 234.203509 281.159208 
L 235.4 275.843344 
L 237.792982 275.843344 
L 238.989474 279.33299 
L 240.185965 270.971006 
L 241.382456 270.971006 
L 242.578947 260.970093 
L 243.775439 256.545933 
L 244.97193 255.341061 
L 246.168421 254.747816 
L 248.561404 249.124807 
L 249.757895 247.018842 
L 250.954386 249.124807 
L 252.150877 247.53826 
L 253.347368 243.995709 
L 255.740351 232.448511 
L 256.936842 230.4675 
L 261.722807 230.4675 
L 262.919298 223.153691 
L 264.115789 214.24431 
L 265.312281 214.24431 
L 266.508772 209.431026 
L 267.705263 206.000494 
L 268.901754 204.23345 
L 270.098246 204.23345 
L 272.491228 207.822644 
L 276.080702 207.822644 
L 277.277193 214.837556 
L 278.473684 216.042427 
L 279.670175 220.795795 
L 280.866667 224.898125 
L 282.063158 232.046899 
L 286.849123 232.046899 
L 288.045614 237.937342 
L 289.242105 237.496327 
L 290.438596 235.764816 
L 291.635088 228.551453 
L 292.831579 228.175669 
L 294.02807 228.175669 
L 295.224561 234.08314 
L 302.403509 234.08314 
L 303.6 234.499044 
L 305.992982 234.499044 
L 307.189474 234.08314 
L 308.385965 234.08314 
L 309.582456 233.670176 
L 310.778947 233.670176 
L 311.975439 229.310349 
L 315.564912 229.310349 
L 316.761404 226.332166 
L 320.350877 226.332166 
L 321.547368 224.545048 
L 326.333333 224.545048 
L 327.529825 225.970343 
L 335.905263 225.970343 
L 337.101754 221.126868 
L 338.298246 214.837556 
L 339.494737 209.159869 
L 340.691228 209.159869 
L 341.887719 206.515336 
L 343.084211 206.515336 
L 344.280702 204.732891 
L 345.477193 203.985322 
L 347.870175 200.384539 
L 349.066667 199.690263 
L 350.263158 199.690263 
L 351.459649 198.551159 
L 352.65614 196.992821 
L 353.852632 193.995538 
L 355.049123 191.543393 
L 356.245614 189.575726 
L 357.442105 189.575726 
L 358.638596 186.192737 
L 359.835088 181.797116 
L 361.031579 177.867286 
L 362.22807 176.613957 
L 363.424561 176.613957 
L 364.621053 173.007617 
L 365.817544 171.143301 
L 367.014035 170.163542 
L 368.210526 169.610969 
L 370.603509 169.610969 
L 372.996491 166.01183 
L 374.192982 165.113812 
L 375.389474 159.186758 
L 376.585965 147.075088 
L 377.782456 140.286099 
L 380.175439 140.036912 
L 381.37193 138.969216 
L 382.568421 137.522353 
L 383.764912 137.522353 
L 384.961404 136.033004 
L 386.157895 134.959379 
L 387.354386 134.959379 
L 388.550877 134.354621 
L 389.747368 132.504112 
L 392.140351 124.673994 
L 393.336842 122.546604 
L 394.533333 121.150188 
L 395.729825 118.798393 
L 396.926316 117.15065 
L 398.122807 116.482186 
L 399.319298 115.384798 
L 402.908772 115.384798 
L 404.105263 114.307639 
L 405.301754 114.307639 
L 406.498246 112.469108 
L 407.694737 110.937993 
L 412.480702 110.937993 
L 413.677193 112.262626 
L 414.873684 113.829321 
L 416.070175 112.262626 
L 417.266667 109.103251 
L 418.463158 105.003403 
L 419.659649 105.003403 
L 420.85614 102.552506 
L 423.249123 102.552506 
L 424.445614 105.003403 
L 425.642105 104.145058 
L 426.838596 105.967005 
L 428.035088 106.852741 
L 429.231579 105.967005 
L 431.624561 105.967005 
L 432.821053 107.13526 
L 435.214035 110.937993 
L 436.410526 114.414466 
L 437.607018 118.282035 
L 438.803509 118.856049 
L 440 123.663215 
L 442.392982 131.780011 
L 443.589474 136.890626 
L 444.785965 137.840796 
L 445.982456 140.703786 
L 447.178947 146.055591 
L 450.768421 146.055591 
L 451.964912 152.049139 
L 453.161404 152.049139 
L 454.357895 149.753393 
L 455.554386 149.753393 
L 456.750877 152.355345 
L 457.947368 152.355345 
L 460.340351 147.075088 
L 461.536842 148.017595 
L 462.733333 148.303338 
L 465.126316 148.303338 
L 466.322807 151.441499 
L 467.519298 151.441499 
L 468.715789 149.55796 
L 469.912281 151.441499 
L 471.108772 152.869282 
L 473.501754 152.869282 
L 474.698246 155.942686 
L 475.894737 165.625274 
L 477.091228 165.625274 
L 478.287719 166.400961 
L 479.484211 175.386947 
L 481.877193 175.386947 
L 483.073684 178.825245 
L 484.270175 178.825245 
L 485.466667 179.310179 
L 486.663158 181.627987 
L 487.859649 184.571962 
L 490.252632 184.571962 
L 491.449123 182.478572 
L 493.842105 182.478572 
L 496.235088 193.995538 
L 497.431579 185.286762 
L 498.62807 185.286762 
L 499.824561 184.928269 
L 501.021053 190.946105 
L 502.217544 190.946105 
L 503.414035 193.372788 
L 504.610526 193.787216 
L 505.807018 193.787216 
L 507.003509 188.616194 
L 508.2 195.048435 
L 514.182456 195.048435 
L 515.378947 212.499876 
L 516.575439 212.499876 
L 517.77193 209.977144 
L 518.968421 224.545048 
L 521.361404 224.545048 
L 522.557895 191.945005 
L 523.754386 197.212913 
L 524.950877 183.8658 
L 526.147368 189.575726 
L 527.34386 190.748358 
L 539.308772 190.748358 
L 540.505263 199.460659 
L 542.898246 199.460659 
L 544.094737 210.806012 
L 547.684211 210.806012 
L 548.880702 198.551159 
L 550.077193 197.878205 
L 551.273684 199.690263 
L 552.470175 189.575726 
L 554.863158 189.575726 
L 556.059649 200.61781 
L 557.25614 189.575726 
L 558.452632 189.575726 
L 559.649123 187.859753 
L 560.845614 182.307462 
L 564.435088 182.307462 
L 565.631579 187.859753 
L 566.82807 187.859753 
L 568.024561 180.956322 
L 569.221053 178.344302 
L 571.614035 178.344302 
L 572.810526 170.163542 
L 574.007018 178.344302 
L 575.203509 173.007617 
L 576.4 174.33405 
L 577.596491 175.844062 
L 584.775439 175.844062 
L 585.97193 182.136851 
L 589.561404 182.136851 
L 590.757895 183.16807 
L 591.954386 183.690585 
L 593.150877 186.927768 
L 594.347368 192.349395 
L 600.329825 192.349395 
L 601.526316 194.624997 
L 602.722807 199.920773 
L 606.312281 199.920773 
L 607.508772 210.252129 
L 608.705263 217.272667 
L 609.901754 219.813685 
L 614.687719 219.813685 
L 615.884211 223.845228 
L 617.080702 223.845228 
L 618.277193 227.802286 
L 619.473684 233.26011 
L 624.259649 233.26011 
L 626.652632 242.54084 
L 627.849123 249.663375 
L 630.242105 249.663375 
L 631.438596 256.545933 
L 632.635088 256.545933 
L 633.831579 263.657197 
L 639.814035 263.657197 
L 641.010526 269.433175 
L 642.207018 269.433175 
L 643.403509 313.859913 
L 646.992982 313.859913 
L 648.189474 262.298201 
L 649.385965 313.859913 
L 650.582456 293.506887 
L 650.585293 613 
M 708.010294 613 
L 708.014035 191.343618 
L 709.210526 191.343618 
L 710.407018 146.516795 
L 711.603509 147.075088 
L 712.8 147.075088 
L 712.8 147.075088 
" style="fill:none;stroke:#1f77b4;stroke-linecap:square;stroke-width:1.5;"/>
   </g>
   <g id="line2d_97">
    <path clip-path="url(#p68e2955192)" d="M 271.293939 613 
L 271.294737 523.26 
L 272.491228 523.26 
L 272.492026 613 
M 297.616746 613 
L 297.617544 523.26 
L 301.207018 523.26 
L 301.207816 613 
M 308.385167 613 
L 308.385965 523.26 
L 308.386763 613 
M 378.978149 613 
L 378.978947 523.26 
L 380.175439 482.756494 
L 381.37193 482.756494 
L 382.568421 523.26 
L 390.94386 523.26 
L 390.944658 613 
M 404.104465 613 
L 404.105263 523.26 
L 406.498246 523.26 
L 406.499044 613 
M 408.89043 613 
L 408.891228 523.26 
L 408.892026 613 
M 418.46236 613 
L 418.463158 523.26 
L 419.659649 482.756494 
L 420.85614 523.26 
L 422.052632 482.756494 
L 423.249123 523.26 
L 424.445614 482.756494 
L 425.642105 482.756494 
L 426.838596 459.063462 
L 428.035088 442.252988 
L 430.42807 442.252988 
L 431.624561 418.559956 
L 432.821053 418.559956 
L 434.017544 429.213772 
L 435.214035 442.252988 
L 437.607018 442.252988 
L 438.803509 459.063462 
L 440 442.252988 
L 442.392982 442.252988 
L 443.589474 459.063462 
L 444.785965 482.756494 
L 454.357895 482.756494 
L 455.554386 459.063462 
L 456.750877 482.756494 
L 471.108772 482.756494 
L 472.305263 523.26 
L 473.501754 482.756494 
L 484.270175 482.756494 
L 485.466667 523.26 
L 490.252632 523.26 
L 490.25343 613 
L 490.25343 613 
" style="fill:none;stroke:#ff7f0e;stroke-linecap:square;stroke-width:1.5;"/>
   </g>
   <g id="patch_3">
    <path d="M 99 544.68 
L 99 73.44 
" style="fill:none;stroke:#000000;stroke-linecap:square;stroke-linejoin:miter;stroke-width:0.8;"/>
   </g>
   <g id="patch_4">
    <path d="M 712.8 544.68 
L 712.8 73.44 
" style="fill:none;stroke:#000000;stroke-linecap:square;stroke-linejoin:miter;stroke-width:0.8;"/>
   </g>
   <g id="patch_5">
    <path d="M 99 544.68 
L 712.8 544.68 
" style="fill:none;stroke:#000000;stroke-linecap:square;stroke-linejoin:miter;stroke-width:0.8;"/>
   </g>
   <g id="patch_6">
    <path d="M 99 73.44 
L 712.8 73.44 
" style="fill:none;stroke:#000000;stroke-linecap:square;stroke-linejoin:miter;stroke-width:0.8;"/>
   </g>
   <g id="legend_1">
    <g id="patch_7">
     <path d="M 616.653125 110.79625 
L 705.8 110.79625 
Q 707.8 110.79625 707.8 108.79625 
L 707.8 80.44 
Q 707.8 78.44 705.8 78.44 
L 616.653125 78.44 
Q 614.653125 78.44 614.653125 80.44 
L 614.653125 108.79625 
Q 614.653125 110.79625 616.653125 110.79625 
z
" style="fill:#ffffff;opacity:0.8;stroke:#cccccc;stroke-linejoin:miter;"/>
    </g>
    <g id="line2d_98">
     <path d="M 618.653125 86.538437 
L 638.653125 86.538437 
" style="fill:none;stroke:#1f77b4;stroke-linecap:square;stroke-width:1.5;"/>
    </g>
    <g id="line2d_99"/>
    <g id="text_12">
     <!-- Avg Cases -->
     <g transform="translate(646.653125 90.038437)scale(0.1 -0.1)">
      <defs>
       <path d="M 191 3500 
L 800 3500 
L 1894 563 
L 2988 3500 
L 3597 3500 
L 2284 0 
L 1503 0 
L 191 3500 
z
" id="DejaVuSans-76" transform="scale(0.015625)"/>
       <path d="M 2906 1791 
Q 2906 2416 2648 2759 
Q 2391 3103 1925 3103 
Q 1463 3103 1205 2759 
Q 947 2416 947 1791 
Q 947 1169 1205 825 
Q 1463 481 1925 481 
Q 2391 481 2648 825 
Q 2906 1169 2906 1791 
z
M 3481 434 
Q 3481 -459 3084 -895 
Q 2688 -1331 1869 -1331 
Q 1566 -1331 1297 -1286 
Q 1028 -1241 775 -1147 
L 775 -588 
Q 1028 -725 1275 -790 
Q 1522 -856 1778 -856 
Q 2344 -856 2625 -561 
Q 2906 -266 2906 331 
L 2906 616 
Q 2728 306 2450 153 
Q 2172 0 1784 0 
Q 1141 0 747 490 
Q 353 981 353 1791 
Q 353 2603 747 3093 
Q 1141 3584 1784 3584 
Q 2172 3584 2450 3431 
Q 2728 3278 2906 2969 
L 2906 3500 
L 3481 3500 
L 3481 434 
z
" id="DejaVuSans-67" transform="scale(0.015625)"/>
       <path id="DejaVuSans-20" transform="scale(0.015625)"/>
       <path d="M 4122 4306 
L 4122 3641 
Q 3803 3938 3442 4084 
Q 3081 4231 2675 4231 
Q 1875 4231 1450 3742 
Q 1025 3253 1025 2328 
Q 1025 1406 1450 917 
Q 1875 428 2675 428 
Q 3081 428 3442 575 
Q 3803 722 4122 1019 
L 4122 359 
Q 3791 134 3420 21 
Q 3050 -91 2638 -91 
Q 1578 -91 968 557 
Q 359 1206 359 2328 
Q 359 3453 968 4101 
Q 1578 4750 2638 4750 
Q 3056 4750 3426 4639 
Q 3797 4528 4122 4306 
z
" id="DejaVuSans-43" transform="scale(0.015625)"/>
       <path d="M 2834 3397 
L 2834 2853 
Q 2591 2978 2328 3040 
Q 2066 3103 1784 3103 
Q 1356 3103 1142 2972 
Q 928 2841 928 2578 
Q 928 2378 1081 2264 
Q 1234 2150 1697 2047 
L 1894 2003 
Q 2506 1872 2764 1633 
Q 3022 1394 3022 966 
Q 3022 478 2636 193 
Q 2250 -91 1575 -91 
Q 1294 -91 989 -36 
Q 684 19 347 128 
L 347 722 
Q 666 556 975 473 
Q 1284 391 1588 391 
Q 1994 391 2212 530 
Q 2431 669 2431 922 
Q 2431 1156 2273 1281 
Q 2116 1406 1581 1522 
L 1381 1569 
Q 847 1681 609 1914 
Q 372 2147 372 2553 
Q 372 3047 722 3315 
Q 1072 3584 1716 3584 
Q 2034 3584 2315 3537 
Q 2597 3491 2834 3397 
z
" id="DejaVuSans-73" transform="scale(0.015625)"/>
      </defs>
      <use xlink:href="#DejaVuSans-41"/>
      <use x="62.533203" xlink:href="#DejaVuSans-76"/>
      <use x="121.712891" xlink:href="#DejaVuSans-67"/>
      <use x="185.189453" xlink:href="#DejaVuSans-20"/>
      <use x="216.976562" xlink:href="#DejaVuSans-43"/>
      <use x="286.800781" xlink:href="#DejaVuSans-61"/>
      <use x="348.080078" xlink:href="#DejaVuSans-73"/>
      <use x="400.179688" xlink:href="#DejaVuSans-65"/>
      <use x="461.703125" xlink:href="#DejaVuSans-73"/>
     </g>
    </g>
    <g id="line2d_100">
     <path d="M 618.653125 101.216562 
L 638.653125 101.216562 
" style="fill:none;stroke:#ff7f0e;stroke-linecap:square;stroke-width:1.5;"/>
    </g>
    <g id="line2d_101"/>
    <g id="text_13">
     <!-- Avg Deaths -->
     <g transform="translate(646.653125 104.716562)scale(0.1 -0.1)">
      <defs>
       <path d="M 3513 2113 
L 3513 0 
L 2938 0 
L 2938 2094 
Q 2938 2591 2744 2837 
Q 2550 3084 2163 3084 
Q 1697 3084 1428 2787 
Q 1159 2491 1159 1978 
L 1159 0 
L 581 0 
L 581 4863 
L 1159 4863 
L 1159 2956 
Q 1366 3272 1645 3428 
Q 1925 3584 2291 3584 
Q 2894 3584 3203 3211 
Q 3513 2838 3513 2113 
z
" id="DejaVuSans-68" transform="scale(0.015625)"/>
      </defs>
      <use xlink:href="#DejaVuSans-41"/>
      <use x="62.533203" xlink:href="#DejaVuSans-76"/>
      <use x="121.712891" xlink:href="#DejaVuSans-67"/>
      <use x="185.189453" xlink:href="#DejaVuSans-20"/>
      <use x="216.976562" xlink:href="#DejaVuSans-44"/>
      <use x="293.978516" xlink:href="#DejaVuSans-65"/>
      <use x="355.501953" xlink:href="#DejaVuSans-61"/>
      <use x="416.78125" xlink:href="#DejaVuSans-74"/>
      <use x="455.990234" xlink:href="#DejaVuSans-68"/>
      <use x="519.369141" xlink:href="#DejaVuSans-73"/>
     </g>
    </g>
   </g>
  </g>
 </g>
 <defs>
  <clipPath id="p68e2955192">
   <rect height="471.24" width="613.8" x="99" y="73.44"/>
  </clipPath>
 </defs>
</svg>
