<?xml version="1.0" encoding="utf-8" standalone="no"?>
<!DOCTYPE svg PUBLIC "-//W3C//DTD SVG 1.1//EN"
  "http://www.w3.org/Graphics/SVG/1.1/DTD/svg11.dtd">
<svg height="612pt" version="1.1" viewBox="0 0 792 612" width="792pt" xmlns="http://www.w3.org/2000/svg" xmlns:xlink="http://www.w3.org/1999/xlink">
 <metadata>
  <rdf:RDF xmlns:cc="http://creativecommons.org/ns#" xmlns:dc="http://purl.org/dc/elements/1.1/" xmlns:rdf="http://www.w3.org/1999/02/22-rdf-syntax-ns#">
   <cc:Work>
    <dc:type rdf:resource="http://purl.org/dc/dcmitype/StillImage"/>
    <dc:format>image/svg+xml</dc:format>
    <dc:creator>
     <cc:Agent>
      <dc:title>Matplotlib v3.4.2, https://matplotlib.org/</dc:title>
     </cc:Agent>
    </dc:creator>
   </cc:Work>
  </rdf:RDF>
 </metadata>
 <defs>
  <style type="text/css">*{stroke-linecap:butt;stroke-linejoin:round;}</style>
 </defs>
 <g id="figure_1">
  <g id="patch_1">
   <path d="M 0 612 
L 792 612 
L 792 0 
L 0 0 
z
" style="fill:#ffffff;"/>
  </g>
  <g id="axes_1">
   <g id="patch_2">
    <path d="M 99 544.68 
L 712.8 544.68 
L 712.8 73.44 
L 99 73.44 
z
" style="fill:#ffffff;"/>
   </g>
   <g id="PolyCollection_1">
    <defs>
     <path d="M 99 428311.26 
L 99 428311.26 
L 102.72 428311.26 
L 106.44 428311.26 
L 110.16 428311.26 
L 113.88 428311.26 
L 117.6 428311.26 
L 121.32 428311.26 
L 125.04 428311.26 
L 128.76 428311.26 
L 132.48 428311.26 
L 136.2 428311.26 
L 139.92 428311.26 
L 143.64 428311.26 
L 147.36 428311.26 
L 151.08 428311.26 
L 154.8 428311.26 
L 158.52 428311.26 
L 162.24 428311.26 
L 165.96 428311.26 
L 169.68 428311.26 
L 173.4 428311.26 
L 177.12 428311.26 
L 180.84 428311.26 
L 184.56 428311.26 
L 188.28 428311.26 
L 192 428311.26 
L 195.72 428311.26 
L 199.44 428311.26 
L 203.16 428311.26 
L 206.88 428311.26 
L 210.6 428311.26 
L 214.32 428311.26 
L 218.04 428311.26 
L 221.76 428311.26 
L 225.48 428311.26 
L 229.2 428311.26 
L 232.92 428311.26 
L 236.64 428311.26 
L 240.36 428311.26 
L 244.08 428311.26 
L 247.8 428311.26 
L 251.52 428311.26 
L 255.24 428311.26 
L 258.96 428311.26 
L 262.68 428311.26 
L 266.4 428311.26 
L 270.12 428311.26 
L 273.84 428311.26 
L 277.56 428311.26 
L 281.28 428311.26 
L 285 428311.26 
L 288.72 428311.26 
L 292.44 428311.26 
L 296.16 428311.26 
L 299.88 428311.26 
L 303.6 428311.26 
L 307.32 428311.26 
L 311.04 428311.26 
L 314.76 428311.26 
L 318.48 428311.26 
L 322.2 428311.26 
L 325.92 428311.26 
L 329.64 428311.26 
L 333.36 428311.26 
L 337.08 428311.26 
L 340.8 428311.26 
L 344.52 428311.26 
L 348.24 428311.26 
L 351.96 428311.26 
L 355.68 428311.26 
L 359.4 428311.26 
L 363.12 428311.26 
L 366.84 428311.26 
L 370.56 428311.26 
L 374.28 428311.26 
L 378 428311.26 
L 381.72 428311.26 
L 385.44 428311.26 
L 389.16 428311.26 
L 392.88 428311.26 
L 396.6 428311.26 
L 400.32 428311.26 
L 404.04 428311.26 
L 407.76 428311.26 
L 411.48 428311.26 
L 415.2 428311.26 
L 418.92 428311.26 
L 422.64 428311.26 
L 426.36 428311.26 
L 430.08 428311.26 
L 433.8 428311.26 
L 437.52 428311.26 
L 441.24 428311.26 
L 444.96 428311.26 
L 448.68 428311.26 
L 452.4 428311.26 
L 456.12 428311.26 
L 459.84 428311.26 
L 463.56 428311.26 
L 467.28 428311.26 
L 471 428311.26 
L 474.72 428311.26 
L 478.44 428311.26 
L 482.16 428311.26 
L 485.88 428311.26 
L 489.6 428311.26 
L 493.32 428311.26 
L 497.04 428311.26 
L 500.76 428311.26 
L 504.48 428311.26 
L 508.2 428311.26 
L 511.92 428311.26 
L 515.64 428311.26 
L 519.36 428311.26 
L 523.08 428311.26 
L 526.8 428311.26 
L 530.52 428311.26 
L 534.24 428311.26 
L 537.96 428311.26 
L 541.68 428311.26 
L 545.4 428311.26 
L 549.12 428311.26 
L 552.84 428311.26 
L 556.56 428311.26 
L 560.28 428311.26 
L 564 428311.26 
L 567.72 428311.26 
L 571.44 428311.26 
L 575.16 428311.26 
L 578.88 428311.26 
L 582.6 428311.26 
L 586.32 428311.26 
L 590.04 428311.26 
L 593.76 428311.26 
L 597.48 428311.26 
L 601.2 428311.26 
L 604.92 428311.26 
L 608.64 428311.26 
L 612.36 428311.26 
L 616.08 428311.26 
L 619.8 428311.26 
L 623.52 428311.26 
L 627.24 428311.26 
L 630.96 428311.26 
L 634.68 428311.26 
L 638.4 428311.26 
L 642.12 428311.26 
L 645.84 428311.26 
L 649.56 428311.26 
L 653.28 428311.26 
L 657 428311.26 
L 660.72 428311.26 
L 664.44 428311.26 
L 668.16 428311.26 
L 671.88 428311.26 
L 675.6 428311.26 
L 679.32 428311.26 
L 683.04 428311.26 
L 686.76 428311.26 
L 690.48 428311.26 
L 694.2 428311.26 
L 697.92 428311.26 
L 701.64 428311.26 
L 705.36 428311.26 
L 709.08 428311.26 
L 712.8 428311.26 
L 712.8 428311.26 
L 712.8 428311.26 
L 709.08 428311.26 
L 705.36 428311.26 
L 701.64 428311.26 
L 697.92 428311.26 
L 694.2 428311.26 
L 690.48 428311.26 
L 686.76 428311.26 
L 683.04 428311.26 
L 679.32 428311.26 
L 675.6 428311.26 
L 671.88 428311.26 
L 668.16 428311.26 
L 664.44 428311.26 
L 660.72 428311.26 
L 657 428311.26 
L 653.28 428311.26 
L 649.56 428311.26 
L 645.84 428311.26 
L 642.12 428311.26 
L 638.4 428311.26 
L 634.68 428311.26 
L 630.96 428311.26 
L 627.24 428311.26 
L 623.52 428311.26 
L 619.8 428311.26 
L 616.08 428311.26 
L 612.36 428311.26 
L 608.64 428311.26 
L 604.92 428311.26 
L 601.2 428311.26 
L 597.48 428311.26 
L 593.76 428311.26 
L 590.04 428311.26 
L 586.32 428311.26 
L 582.6 428311.26 
L 578.88 428311.26 
L 575.16 428311.26 
L 571.44 428311.26 
L 567.72 428311.26 
L 564 428311.26 
L 560.28 428311.26 
L 556.56 428311.26 
L 552.84 428311.26 
L 549.12 428311.26 
L 545.4 428311.26 
L 541.68 428311.26 
L 537.96 428311.26 
L 534.24 428311.26 
L 530.52 428311.26 
L 526.8 428311.26 
L 523.08 428311.26 
L 519.36 428311.26 
L 515.64 428311.26 
L 511.92 428311.26 
L 508.2 428311.26 
L 504.48 428311.26 
L 500.76 428311.26 
L 497.04 428311.26 
L 493.32 428311.26 
L 489.6 428311.26 
L 485.88 428311.26 
L 482.16 428311.26 
L 478.44 428311.26 
L 474.72 428311.26 
L 471 428311.26 
L 467.28 428311.26 
L 463.56 428311.26 
L 459.84 428311.26 
L 456.12 428311.26 
L 452.4 428311.26 
L 448.68 428311.26 
L 444.96 428311.26 
L 441.24 428311.26 
L 437.52 428311.26 
L 433.8 428311.26 
L 430.08 428311.26 
L 426.36 428311.26 
L 422.64 428311.26 
L 418.92 428311.26 
L 415.2 428311.26 
L 411.48 428311.26 
L 407.76 428311.26 
L 404.04 428311.26 
L 400.32 428311.26 
L 396.6 428311.26 
L 392.88 428311.26 
L 389.16 428311.26 
L 385.44 428311.26 
L 381.72 428311.26 
L 378 428311.26 
L 374.28 428311.26 
L 370.56 428311.26 
L 366.84 428311.26 
L 363.12 428311.26 
L 359.4 428311.26 
L 355.68 428311.26 
L 351.96 428311.26 
L 348.24 428311.26 
L 344.52 428311.26 
L 340.8 428311.26 
L 337.08 428311.26 
L 333.36 428311.26 
L 329.64 428311.26 
L 325.92 428311.26 
L 322.2 428311.26 
L 318.48 428311.26 
L 314.76 428311.26 
L 311.04 428311.26 
L 307.32 428311.26 
L 303.6 428311.26 
L 299.88 428311.26 
L 296.16 428311.26 
L 292.44 428311.26 
L 288.72 428311.26 
L 285 428311.26 
L 281.28 428311.26 
L 277.56 428311.26 
L 273.84 428311.26 
L 270.12 428311.26 
L 266.4 428311.26 
L 262.68 428311.26 
L 258.96 428311.26 
L 255.24 428311.26 
L 251.52 428311.26 
L 247.8 428311.26 
L 244.08 428311.26 
L 240.36 428311.26 
L 236.64 428311.26 
L 232.92 428311.26 
L 229.2 428311.26 
L 225.48 428311.26 
L 221.76 428311.26 
L 218.04 428311.26 
L 214.32 428311.26 
L 210.6 428311.26 
L 206.88 428311.26 
L 203.16 428311.26 
L 199.44 428311.26 
L 195.72 428311.26 
L 192 428311.26 
L 188.28 428311.26 
L 184.56 428311.26 
L 180.84 428311.26 
L 177.12 428311.26 
L 173.4 428311.26 
L 169.68 428311.26 
L 165.96 428311.26 
L 162.24 428311.26 
L 158.52 428311.26 
L 154.8 428311.26 
L 151.08 428311.26 
L 147.36 428311.26 
L 143.64 428311.26 
L 139.92 428311.26 
L 136.2 428311.26 
L 132.48 428311.26 
L 128.76 428311.26 
L 125.04 428311.26 
L 121.32 428311.26 
L 117.6 428311.26 
L 113.88 428311.26 
L 110.16 428311.26 
L 106.44 428311.26 
L 102.72 428311.26 
L 99 428311.26 
z
" id="mf2778c943a" style="stroke:#8080ff;stroke-opacity:0.5;"/>
    </defs>
    <g clip-path="url(#p68e2955192)">
     <use style="fill:#8080ff;fill-opacity:0.5;stroke:#8080ff;stroke-opacity:0.5;" x="0" xlink:href="#mf2778c943a" y="612"/>
    </g>
   </g>
   <g id="PolyCollection_2">
    <defs>
     <path d="M 99 428311.26 
L 99 428311.26 
L 102.72 428311.26 
L 106.44 428311.26 
L 110.16 428311.26 
L 113.88 428311.26 
L 117.6 428311.26 
L 121.32 428311.26 
L 125.04 428311.26 
L 128.76 428311.26 
L 132.48 428311.26 
L 136.2 428311.26 
L 139.92 428311.26 
L 143.64 428311.26 
L 147.36 428311.26 
L 151.08 428311.26 
L 154.8 428311.26 
L 158.52 428311.26 
L 162.24 428311.26 
L 165.96 428311.26 
L 169.68 428311.26 
L 173.4 428311.26 
L 177.12 428311.26 
L 180.84 428311.26 
L 184.56 428311.26 
L 188.28 428311.26 
L 192 428311.26 
L 195.72 428311.26 
L 199.44 428311.26 
L 203.16 428311.26 
L 206.88 428311.26 
L 210.6 428311.26 
L 214.32 428311.26 
L 218.04 428311.26 
L 221.76 428311.26 
L 225.48 428311.26 
L 229.2 428311.26 
L 232.92 428311.26 
L 236.64 428311.26 
L 240.36 428311.26 
L 244.08 428311.26 
L 247.8 428311.26 
L 251.52 428311.26 
L 255.24 428311.26 
L 258.96 428311.26 
L 262.68 428311.26 
L 266.4 428311.26 
L 270.12 428311.26 
L 273.84 428311.26 
L 277.56 428311.26 
L 281.28 428311.26 
L 285 428311.26 
L 288.72 428311.26 
L 292.44 428311.26 
L 296.16 428311.26 
L 299.88 428311.26 
L 303.6 428311.26 
L 307.32 428311.26 
L 311.04 428311.26 
L 314.76 428311.26 
L 318.48 428311.26 
L 322.2 428311.26 
L 325.92 428311.26 
L 329.64 428311.26 
L 333.36 428311.26 
L 337.08 428311.26 
L 340.8 428311.26 
L 344.52 428311.26 
L 348.24 428311.26 
L 351.96 428311.26 
L 355.68 428311.26 
L 359.4 428311.26 
L 363.12 428311.26 
L 366.84 428311.26 
L 370.56 428311.26 
L 374.28 428311.26 
L 378 428311.26 
L 381.72 428311.26 
L 385.44 428311.26 
L 389.16 428311.26 
L 392.88 428311.26 
L 396.6 428311.26 
L 400.32 428311.26 
L 404.04 428311.26 
L 407.76 428311.26 
L 411.48 428311.26 
L 415.2 428311.26 
L 418.92 428311.26 
L 422.64 428311.26 
L 426.36 428311.26 
L 430.08 428311.26 
L 433.8 428311.26 
L 437.52 428311.26 
L 441.24 428311.26 
L 444.96 428311.26 
L 448.68 428311.26 
L 452.4 428311.26 
L 456.12 428311.26 
L 459.84 428311.26 
L 463.56 428311.26 
L 467.28 428311.26 
L 471 428311.26 
L 474.72 428311.26 
L 478.44 428311.26 
L 482.16 428311.26 
L 485.88 428311.26 
L 489.6 428311.26 
L 493.32 428311.26 
L 497.04 428311.26 
L 500.76 428311.26 
L 504.48 428311.26 
L 508.2 428311.26 
L 511.92 428311.26 
L 515.64 428311.26 
L 519.36 428311.26 
L 523.08 428311.26 
L 526.8 428311.26 
L 530.52 428311.26 
L 534.24 428311.26 
L 537.96 428311.26 
L 541.68 428311.26 
L 545.4 428311.26 
L 549.12 428311.26 
L 552.84 428311.26 
L 556.56 428311.26 
L 560.28 428311.26 
L 564 428311.26 
L 567.72 428311.26 
L 571.44 428311.26 
L 575.16 428311.26 
L 578.88 428311.26 
L 582.6 428311.26 
L 586.32 428311.26 
L 590.04 428311.26 
L 593.76 428311.26 
L 597.48 428311.26 
L 601.2 428311.26 
L 604.92 428311.26 
L 608.64 428311.26 
L 612.36 428311.26 
L 616.08 428311.26 
L 619.8 428311.26 
L 623.52 428311.26 
L 627.24 428311.26 
L 630.96 428311.26 
L 634.68 428311.26 
L 638.4 428311.26 
L 642.12 428311.26 
L 645.84 428311.26 
L 649.56 428311.26 
L 653.28 428311.26 
L 657 428311.26 
L 660.72 428311.26 
L 664.44 428311.26 
L 668.16 428311.26 
L 671.88 428311.26 
L 675.6 428311.26 
L 679.32 428311.26 
L 683.04 428311.26 
L 686.76 428311.26 
L 690.48 428311.26 
L 694.2 428311.26 
L 697.92 428311.26 
L 701.64 428311.26 
L 705.36 428311.26 
L 709.08 428311.26 
L 712.8 428311.26 
L 712.8 428311.26 
L 712.8 428311.26 
L 709.08 428311.26 
L 705.36 428311.26 
L 701.64 428311.26 
L 697.92 428311.26 
L 694.2 428311.26 
L 690.48 428311.26 
L 686.76 428311.26 
L 683.04 428311.26 
L 679.32 428311.26 
L 675.6 428311.26 
L 671.88 428311.26 
L 668.16 428311.26 
L 664.44 428311.26 
L 660.72 428311.26 
L 657 428311.26 
L 653.28 428311.26 
L 649.56 428311.26 
L 645.84 428311.26 
L 642.12 428311.26 
L 638.4 428311.26 
L 634.68 428311.26 
L 630.96 428311.26 
L 627.24 428311.26 
L 623.52 428311.26 
L 619.8 428311.26 
L 616.08 428311.26 
L 612.36 428311.26 
L 608.64 428311.26 
L 604.92 428311.26 
L 601.2 428311.26 
L 597.48 428311.26 
L 593.76 428311.26 
L 590.04 428311.26 
L 586.32 428311.26 
L 582.6 428311.26 
L 578.88 428311.26 
L 575.16 428311.26 
L 571.44 428311.26 
L 567.72 428311.26 
L 564 428311.26 
L 560.28 428311.26 
L 556.56 428311.26 
L 552.84 428311.26 
L 549.12 428311.26 
L 545.4 428311.26 
L 541.68 428311.26 
L 537.96 428311.26 
L 534.24 428311.26 
L 530.52 428311.26 
L 526.8 428311.26 
L 523.08 428311.26 
L 519.36 428311.26 
L 515.64 428311.26 
L 511.92 428311.26 
L 508.2 428311.26 
L 504.48 428311.26 
L 500.76 428311.26 
L 497.04 428311.26 
L 493.32 428311.26 
L 489.6 428311.26 
L 485.88 428311.26 
L 482.16 428311.26 
L 478.44 428311.26 
L 474.72 428311.26 
L 471 428311.26 
L 467.28 428311.26 
L 463.56 428311.26 
L 459.84 428311.26 
L 456.12 428311.26 
L 452.4 428311.26 
L 448.68 428311.26 
L 444.96 428311.26 
L 441.24 428311.26 
L 437.52 428311.26 
L 433.8 428311.26 
L 430.08 428311.26 
L 426.36 428311.26 
L 422.64 428311.26 
L 418.92 428311.26 
L 415.2 428311.26 
L 411.48 428311.26 
L 407.76 428311.26 
L 404.04 428311.26 
L 400.32 428311.26 
L 396.6 428311.26 
L 392.88 428311.26 
L 389.16 428311.26 
L 385.44 428311.26 
L 381.72 428311.26 
L 378 428311.26 
L 374.28 428311.26 
L 370.56 428311.26 
L 366.84 428311.26 
L 363.12 428311.26 
L 359.4 428311.26 
L 355.68 428311.26 
L 351.96 428311.26 
L 348.24 428311.26 
L 344.52 428311.26 
L 340.8 428311.26 
L 337.08 428311.26 
L 333.36 428311.26 
L 329.64 428311.26 
L 325.92 428311.26 
L 322.2 428311.26 
L 318.48 428311.26 
L 314.76 428311.26 
L 311.04 428311.26 
L 307.32 428311.26 
L 303.6 428311.26 
L 299.88 428311.26 
L 296.16 428311.26 
L 292.44 428311.26 
L 288.72 428311.26 
L 285 428311.26 
L 281.28 428311.26 
L 277.56 428311.26 
L 273.84 428311.26 
L 270.12 428311.26 
L 266.4 428311.26 
L 262.68 428311.26 
L 258.96 428311.26 
L 255.24 428311.26 
L 251.52 428311.26 
L 247.8 428311.26 
L 244.08 428311.26 
L 240.36 428311.26 
L 236.64 428311.26 
L 232.92 428311.26 
L 229.2 428311.26 
L 225.48 428311.26 
L 221.76 428311.26 
L 218.04 428311.26 
L 214.32 428311.26 
L 210.6 428311.26 
L 206.88 428311.26 
L 203.16 428311.26 
L 199.44 428311.26 
L 195.72 428311.26 
L 192 428311.26 
L 188.28 428311.26 
L 184.56 428311.26 
L 180.84 428311.26 
L 177.12 428311.26 
L 173.4 428311.26 
L 169.68 428311.26 
L 165.96 428311.26 
L 162.24 428311.26 
L 158.52 428311.26 
L 154.8 428311.26 
L 151.08 428311.26 
L 147.36 428311.26 
L 143.64 428311.26 
L 139.92 428311.26 
L 136.2 428311.26 
L 132.48 428311.26 
L 128.76 428311.26 
L 125.04 428311.26 
L 121.32 428311.26 
L 117.6 428311.26 
L 113.88 428311.26 
L 110.16 428311.26 
L 106.44 428311.26 
L 102.72 428311.26 
L 99 428311.26 
z
" id="mb194a2c05b" style="stroke:#ff8080;stroke-opacity:0.5;"/>
    </defs>
    <g clip-path="url(#p68e2955192)">
     <use style="fill:#ff8080;fill-opacity:0.5;stroke:#ff8080;stroke-opacity:0.5;" x="0" xlink:href="#mb194a2c05b" y="612"/>
    </g>
   </g>
   <g id="matplotlib.axis_1">
    <g id="xtick_1">
     <g id="line2d_1">
      <path clip-path="url(#p68e2955192)" d="M 99 544.68 
L 99 73.44 
" style="fill:none;stroke:#b0b0b0;stroke-linecap:square;stroke-width:0.8;"/>
     </g>
     <g id="line2d_2">
      <defs>
       <path d="M 0 0 
L 0 3.5 
" id="m4abed1d830" style="stroke:#000000;stroke-width:0.8;"/>
      </defs>
      <g>
       <use style="stroke:#000000;stroke-width:0.8;" x="99" xlink:href="#m4abed1d830" y="544.68"/>
      </g>
     </g>
    </g>
    <g id="xtick_2">
     <g id="line2d_3">
      <path clip-path="url(#p68e2955192)" d="M 132.48 544.68 
L 132.48 73.44 
" style="fill:none;stroke:#b0b0b0;stroke-linecap:square;stroke-width:0.8;"/>
     </g>
     <g id="line2d_4">
      <g>
       <use style="stroke:#000000;stroke-width:0.8;" x="132.48" xlink:href="#m4abed1d830" y="544.68"/>
      </g>
     </g>
     <g id="text_1">
      <!-- Oct -->
      <g transform="translate(123.834687 559.278437)scale(0.1 -0.1)">
       <defs>
        <path d="M 2522 4238 
Q 1834 4238 1429 3725 
Q 1025 3213 1025 2328 
Q 1025 1447 1429 934 
Q 1834 422 2522 422 
Q 3209 422 3611 934 
Q 4013 1447 4013 2328 
Q 4013 3213 3611 3725 
Q 3209 4238 2522 4238 
z
M 2522 4750 
Q 3503 4750 4090 4092 
Q 4678 3434 4678 2328 
Q 4678 1225 4090 567 
Q 3503 -91 2522 -91 
Q 1538 -91 948 565 
Q 359 1222 359 2328 
Q 359 3434 948 4092 
Q 1538 4750 2522 4750 
z
" id="DejaVuSans-4f" transform="scale(0.015625)"/>
        <path d="M 3122 3366 
L 3122 2828 
Q 2878 2963 2633 3030 
Q 2388 3097 2138 3097 
Q 1578 3097 1268 2742 
Q 959 2388 959 1747 
Q 959 1106 1268 751 
Q 1578 397 2138 397 
Q 2388 397 2633 464 
Q 2878 531 3122 666 
L 3122 134 
Q 2881 22 2623 -34 
Q 2366 -91 2075 -91 
Q 1284 -91 818 406 
Q 353 903 353 1747 
Q 353 2603 823 3093 
Q 1294 3584 2113 3584 
Q 2378 3584 2631 3529 
Q 2884 3475 3122 3366 
z
" id="DejaVuSans-63" transform="scale(0.015625)"/>
        <path d="M 1172 4494 
L 1172 3500 
L 2356 3500 
L 2356 3053 
L 1172 3053 
L 1172 1153 
Q 1172 725 1289 603 
Q 1406 481 1766 481 
L 2356 481 
L 2356 0 
L 1766 0 
Q 1100 0 847 248 
Q 594 497 594 1153 
L 594 3053 
L 172 3053 
L 172 3500 
L 594 3500 
L 594 4494 
L 1172 4494 
z
" id="DejaVuSans-74" transform="scale(0.015625)"/>
       </defs>
       <use xlink:href="#DejaVuSans-4f"/>
       <use x="78.710938" xlink:href="#DejaVuSans-63"/>
       <use x="133.691406" xlink:href="#DejaVuSans-74"/>
      </g>
     </g>
    </g>
    <g id="xtick_3">
     <g id="line2d_5">
      <path clip-path="url(#p68e2955192)" d="M 247.8 544.68 
L 247.8 73.44 
" style="fill:none;stroke:#b0b0b0;stroke-linecap:square;stroke-width:0.8;"/>
     </g>
     <g id="line2d_6">
      <g>
       <use style="stroke:#000000;stroke-width:0.8;" x="247.8" xlink:href="#m4abed1d830" y="544.68"/>
      </g>
     </g>
     <g id="text_2">
      <!-- Nov -->
      <g transform="translate(238.040625 559.278437)scale(0.1 -0.1)">
       <defs>
        <path d="M 628 4666 
L 1478 4666 
L 3547 763 
L 3547 4666 
L 4159 4666 
L 4159 0 
L 3309 0 
L 1241 3903 
L 1241 0 
L 628 0 
L 628 4666 
z
" id="DejaVuSans-4e" transform="scale(0.015625)"/>
        <path d="M 1959 3097 
Q 1497 3097 1228 2736 
Q 959 2375 959 1747 
Q 959 1119 1226 758 
Q 1494 397 1959 397 
Q 2419 397 2687 759 
Q 2956 1122 2956 1747 
Q 2956 2369 2687 2733 
Q 2419 3097 1959 3097 
z
M 1959 3584 
Q 2709 3584 3137 3096 
Q 3566 2609 3566 1747 
Q 3566 888 3137 398 
Q 2709 -91 1959 -91 
Q 1206 -91 779 398 
Q 353 888 353 1747 
Q 353 2609 779 3096 
Q 1206 3584 1959 3584 
z
" id="DejaVuSans-6f" transform="scale(0.015625)"/>
        <path d="M 191 3500 
L 800 3500 
L 1894 563 
L 2988 3500 
L 3597 3500 
L 2284 0 
L 1503 0 
L 191 3500 
z
" id="DejaVuSans-76" transform="scale(0.015625)"/>
       </defs>
       <use xlink:href="#DejaVuSans-4e"/>
       <use x="74.804688" xlink:href="#DejaVuSans-6f"/>
       <use x="135.986328" xlink:href="#DejaVuSans-76"/>
      </g>
     </g>
    </g>
    <g id="xtick_4">
     <g id="line2d_7">
      <path clip-path="url(#p68e2955192)" d="M 359.4 544.68 
L 359.4 73.44 
" style="fill:none;stroke:#b0b0b0;stroke-linecap:square;stroke-width:0.8;"/>
     </g>
     <g id="line2d_8">
      <g>
       <use style="stroke:#000000;stroke-width:0.8;" x="359.4" xlink:href="#m4abed1d830" y="544.68"/>
      </g>
     </g>
     <g id="text_3">
      <!-- Dec -->
      <g transform="translate(349.724219 559.278437)scale(0.1 -0.1)">
       <defs>
        <path d="M 1259 4147 
L 1259 519 
L 2022 519 
Q 2988 519 3436 956 
Q 3884 1394 3884 2338 
Q 3884 3275 3436 3711 
Q 2988 4147 2022 4147 
L 1259 4147 
z
M 628 4666 
L 1925 4666 
Q 3281 4666 3915 4102 
Q 4550 3538 4550 2338 
Q 4550 1131 3912 565 
Q 3275 0 1925 0 
L 628 0 
L 628 4666 
z
" id="DejaVuSans-44" transform="scale(0.015625)"/>
        <path d="M 3597 1894 
L 3597 1613 
L 953 1613 
Q 991 1019 1311 708 
Q 1631 397 2203 397 
Q 2534 397 2845 478 
Q 3156 559 3463 722 
L 3463 178 
Q 3153 47 2828 -22 
Q 2503 -91 2169 -91 
Q 1331 -91 842 396 
Q 353 884 353 1716 
Q 353 2575 817 3079 
Q 1281 3584 2069 3584 
Q 2775 3584 3186 3129 
Q 3597 2675 3597 1894 
z
M 3022 2063 
Q 3016 2534 2758 2815 
Q 2500 3097 2075 3097 
Q 1594 3097 1305 2825 
Q 1016 2553 972 2059 
L 3022 2063 
z
" id="DejaVuSans-65" transform="scale(0.015625)"/>
       </defs>
       <use xlink:href="#DejaVuSans-44"/>
       <use x="77.001953" xlink:href="#DejaVuSans-65"/>
       <use x="138.525391" xlink:href="#DejaVuSans-63"/>
      </g>
     </g>
    </g>
    <g id="xtick_5">
     <g id="line2d_9">
      <path clip-path="url(#p68e2955192)" d="M 474.72 544.68 
L 474.72 73.44 
" style="fill:none;stroke:#b0b0b0;stroke-linecap:square;stroke-width:0.8;"/>
     </g>
     <g id="line2d_10">
      <g>
       <use style="stroke:#000000;stroke-width:0.8;" x="474.72" xlink:href="#m4abed1d830" y="544.68"/>
      </g>
     </g>
     <g id="text_4">
      <!-- Jan -->
      <g transform="translate(467.012188 559.278437)scale(0.1 -0.1)">
       <defs>
        <path d="M 628 4666 
L 1259 4666 
L 1259 325 
Q 1259 -519 939 -900 
Q 619 -1281 -91 -1281 
L -331 -1281 
L -331 -750 
L -134 -750 
Q 284 -750 456 -515 
Q 628 -281 628 325 
L 628 4666 
z
" id="DejaVuSans-4a" transform="scale(0.015625)"/>
        <path d="M 2194 1759 
Q 1497 1759 1228 1600 
Q 959 1441 959 1056 
Q 959 750 1161 570 
Q 1363 391 1709 391 
Q 2188 391 2477 730 
Q 2766 1069 2766 1631 
L 2766 1759 
L 2194 1759 
z
M 3341 1997 
L 3341 0 
L 2766 0 
L 2766 531 
Q 2569 213 2275 61 
Q 1981 -91 1556 -91 
Q 1019 -91 701 211 
Q 384 513 384 1019 
Q 384 1609 779 1909 
Q 1175 2209 1959 2209 
L 2766 2209 
L 2766 2266 
Q 2766 2663 2505 2880 
Q 2244 3097 1772 3097 
Q 1472 3097 1187 3025 
Q 903 2953 641 2809 
L 641 3341 
Q 956 3463 1253 3523 
Q 1550 3584 1831 3584 
Q 2591 3584 2966 3190 
Q 3341 2797 3341 1997 
z
" id="DejaVuSans-61" transform="scale(0.015625)"/>
        <path d="M 3513 2113 
L 3513 0 
L 2938 0 
L 2938 2094 
Q 2938 2591 2744 2837 
Q 2550 3084 2163 3084 
Q 1697 3084 1428 2787 
Q 1159 2491 1159 1978 
L 1159 0 
L 581 0 
L 581 3500 
L 1159 3500 
L 1159 2956 
Q 1366 3272 1645 3428 
Q 1925 3584 2291 3584 
Q 2894 3584 3203 3211 
Q 3513 2838 3513 2113 
z
" id="DejaVuSans-6e" transform="scale(0.015625)"/>
       </defs>
       <use xlink:href="#DejaVuSans-4a"/>
       <use x="29.492188" xlink:href="#DejaVuSans-61"/>
       <use x="90.771484" xlink:href="#DejaVuSans-6e"/>
      </g>
      <!-- 2022 -->
      <g transform="translate(461.995 570.47625)scale(0.1 -0.1)">
       <defs>
        <path d="M 1228 531 
L 3431 531 
L 3431 0 
L 469 0 
L 469 531 
Q 828 903 1448 1529 
Q 2069 2156 2228 2338 
Q 2531 2678 2651 2914 
Q 2772 3150 2772 3378 
Q 2772 3750 2511 3984 
Q 2250 4219 1831 4219 
Q 1534 4219 1204 4116 
Q 875 4013 500 3803 
L 500 4441 
Q 881 4594 1212 4672 
Q 1544 4750 1819 4750 
Q 2544 4750 2975 4387 
Q 3406 4025 3406 3419 
Q 3406 3131 3298 2873 
Q 3191 2616 2906 2266 
Q 2828 2175 2409 1742 
Q 1991 1309 1228 531 
z
" id="DejaVuSans-32" transform="scale(0.015625)"/>
        <path d="M 2034 4250 
Q 1547 4250 1301 3770 
Q 1056 3291 1056 2328 
Q 1056 1369 1301 889 
Q 1547 409 2034 409 
Q 2525 409 2770 889 
Q 3016 1369 3016 2328 
Q 3016 3291 2770 3770 
Q 2525 4250 2034 4250 
z
M 2034 4750 
Q 2819 4750 3233 4129 
Q 3647 3509 3647 2328 
Q 3647 1150 3233 529 
Q 2819 -91 2034 -91 
Q 1250 -91 836 529 
Q 422 1150 422 2328 
Q 422 3509 836 4129 
Q 1250 4750 2034 4750 
z
" id="DejaVuSans-30" transform="scale(0.015625)"/>
       </defs>
       <use xlink:href="#DejaVuSans-32"/>
       <use x="63.623047" xlink:href="#DejaVuSans-30"/>
       <use x="127.246094" xlink:href="#DejaVuSans-32"/>
       <use x="190.869141" xlink:href="#DejaVuSans-32"/>
      </g>
     </g>
    </g>
    <g id="xtick_6">
     <g id="line2d_11">
      <path clip-path="url(#p68e2955192)" d="M 590.04 544.68 
L 590.04 73.44 
" style="fill:none;stroke:#b0b0b0;stroke-linecap:square;stroke-width:0.8;"/>
     </g>
     <g id="line2d_12">
      <g>
       <use style="stroke:#000000;stroke-width:0.8;" x="590.04" xlink:href="#m4abed1d830" y="544.68"/>
      </g>
     </g>
     <g id="text_5">
      <!-- Feb -->
      <g transform="translate(581.188437 559.278437)scale(0.1 -0.1)">
       <defs>
        <path d="M 628 4666 
L 3309 4666 
L 3309 4134 
L 1259 4134 
L 1259 2759 
L 3109 2759 
L 3109 2228 
L 1259 2228 
L 1259 0 
L 628 0 
L 628 4666 
z
" id="DejaVuSans-46" transform="scale(0.015625)"/>
        <path d="M 3116 1747 
Q 3116 2381 2855 2742 
Q 2594 3103 2138 3103 
Q 1681 3103 1420 2742 
Q 1159 2381 1159 1747 
Q 1159 1113 1420 752 
Q 1681 391 2138 391 
Q 2594 391 2855 752 
Q 3116 1113 3116 1747 
z
M 1159 2969 
Q 1341 3281 1617 3432 
Q 1894 3584 2278 3584 
Q 2916 3584 3314 3078 
Q 3713 2572 3713 1747 
Q 3713 922 3314 415 
Q 2916 -91 2278 -91 
Q 1894 -91 1617 61 
Q 1341 213 1159 525 
L 1159 0 
L 581 0 
L 581 4863 
L 1159 4863 
L 1159 2969 
z
" id="DejaVuSans-62" transform="scale(0.015625)"/>
       </defs>
       <use xlink:href="#DejaVuSans-46"/>
       <use x="52.019531" xlink:href="#DejaVuSans-65"/>
       <use x="113.542969" xlink:href="#DejaVuSans-62"/>
      </g>
     </g>
    </g>
    <g id="xtick_7">
     <g id="line2d_13">
      <path clip-path="url(#p68e2955192)" d="M 694.2 544.68 
L 694.2 73.44 
" style="fill:none;stroke:#b0b0b0;stroke-linecap:square;stroke-width:0.8;"/>
     </g>
     <g id="line2d_14">
      <g>
       <use style="stroke:#000000;stroke-width:0.8;" x="694.2" xlink:href="#m4abed1d830" y="544.68"/>
      </g>
     </g>
     <g id="text_6">
      <!-- Mar -->
      <g transform="translate(684.766406 559.278437)scale(0.1 -0.1)">
       <defs>
        <path d="M 628 4666 
L 1569 4666 
L 2759 1491 
L 3956 4666 
L 4897 4666 
L 4897 0 
L 4281 0 
L 4281 4097 
L 3078 897 
L 2444 897 
L 1241 4097 
L 1241 0 
L 628 0 
L 628 4666 
z
" id="DejaVuSans-4d" transform="scale(0.015625)"/>
        <path d="M 2631 2963 
Q 2534 3019 2420 3045 
Q 2306 3072 2169 3072 
Q 1681 3072 1420 2755 
Q 1159 2438 1159 1844 
L 1159 0 
L 581 0 
L 581 3500 
L 1159 3500 
L 1159 2956 
Q 1341 3275 1631 3429 
Q 1922 3584 2338 3584 
Q 2397 3584 2469 3576 
Q 2541 3569 2628 3553 
L 2631 2963 
z
" id="DejaVuSans-72" transform="scale(0.015625)"/>
       </defs>
       <use xlink:href="#DejaVuSans-4d"/>
       <use x="86.279297" xlink:href="#DejaVuSans-61"/>
       <use x="147.558594" xlink:href="#DejaVuSans-72"/>
      </g>
     </g>
    </g>
    <g id="xtick_8">
     <g id="line2d_15">
      <path clip-path="url(#p68e2955192)" d="M 712.8 544.68 
L 712.8 73.44 
" style="fill:none;stroke:#b0b0b0;stroke-linecap:square;stroke-width:0.8;"/>
     </g>
     <g id="line2d_16">
      <g>
       <use style="stroke:#000000;stroke-width:0.8;" x="712.8" xlink:href="#m4abed1d830" y="544.68"/>
      </g>
     </g>
    </g>
    <g id="xtick_9">
     <g id="line2d_17">
      <defs>
       <path d="M 0 0 
L 0 2 
" id="mbe9820739d" style="stroke:#000000;stroke-width:0.6;"/>
      </defs>
      <g>
       <use style="stroke:#000000;stroke-width:0.6;" x="117.6" xlink:href="#mbe9820739d" y="544.68"/>
      </g>
     </g>
    </g>
    <g id="xtick_10">
     <g id="line2d_18">
      <g>
       <use style="stroke:#000000;stroke-width:0.6;" x="143.64" xlink:href="#mbe9820739d" y="544.68"/>
      </g>
     </g>
    </g>
    <g id="xtick_11">
     <g id="line2d_19">
      <g>
       <use style="stroke:#000000;stroke-width:0.6;" x="169.68" xlink:href="#mbe9820739d" y="544.68"/>
      </g>
     </g>
    </g>
    <g id="xtick_12">
     <g id="line2d_20">
      <g>
       <use style="stroke:#000000;stroke-width:0.6;" x="195.72" xlink:href="#mbe9820739d" y="544.68"/>
      </g>
     </g>
    </g>
    <g id="xtick_13">
     <g id="line2d_21">
      <g>
       <use style="stroke:#000000;stroke-width:0.6;" x="221.76" xlink:href="#mbe9820739d" y="544.68"/>
      </g>
     </g>
    </g>
    <g id="xtick_14">
     <g id="line2d_22">
      <g>
       <use style="stroke:#000000;stroke-width:0.6;" x="273.84" xlink:href="#mbe9820739d" y="544.68"/>
      </g>
     </g>
    </g>
    <g id="xtick_15">
     <g id="line2d_23">
      <g>
       <use style="stroke:#000000;stroke-width:0.6;" x="299.88" xlink:href="#mbe9820739d" y="544.68"/>
      </g>
     </g>
    </g>
    <g id="xtick_16">
     <g id="line2d_24">
      <g>
       <use style="stroke:#000000;stroke-width:0.6;" x="325.92" xlink:href="#mbe9820739d" y="544.68"/>
      </g>
     </g>
    </g>
    <g id="xtick_17">
     <g id="line2d_25">
      <g>
       <use style="stroke:#000000;stroke-width:0.6;" x="351.96" xlink:href="#mbe9820739d" y="544.68"/>
      </g>
     </g>
    </g>
    <g id="xtick_18">
     <g id="line2d_26">
      <g>
       <use style="stroke:#000000;stroke-width:0.6;" x="378" xlink:href="#mbe9820739d" y="544.68"/>
      </g>
     </g>
    </g>
    <g id="xtick_19">
     <g id="line2d_27">
      <g>
       <use style="stroke:#000000;stroke-width:0.6;" x="404.04" xlink:href="#mbe9820739d" y="544.68"/>
      </g>
     </g>
    </g>
    <g id="xtick_20">
     <g id="line2d_28">
      <g>
       <use style="stroke:#000000;stroke-width:0.6;" x="430.08" xlink:href="#mbe9820739d" y="544.68"/>
      </g>
     </g>
    </g>
    <g id="xtick_21">
     <g id="line2d_29">
      <g>
       <use style="stroke:#000000;stroke-width:0.6;" x="456.12" xlink:href="#mbe9820739d" y="544.68"/>
      </g>
     </g>
    </g>
    <g id="xtick_22">
     <g id="line2d_30">
      <g>
       <use style="stroke:#000000;stroke-width:0.6;" x="482.16" xlink:href="#mbe9820739d" y="544.68"/>
      </g>
     </g>
    </g>
    <g id="xtick_23">
     <g id="line2d_31">
      <g>
       <use style="stroke:#000000;stroke-width:0.6;" x="508.2" xlink:href="#mbe9820739d" y="544.68"/>
      </g>
     </g>
    </g>
    <g id="xtick_24">
     <g id="line2d_32">
      <g>
       <use style="stroke:#000000;stroke-width:0.6;" x="534.24" xlink:href="#mbe9820739d" y="544.68"/>
      </g>
     </g>
    </g>
    <g id="xtick_25">
     <g id="line2d_33">
      <g>
       <use style="stroke:#000000;stroke-width:0.6;" x="560.28" xlink:href="#mbe9820739d" y="544.68"/>
      </g>
     </g>
    </g>
    <g id="xtick_26">
     <g id="line2d_34">
      <g>
       <use style="stroke:#000000;stroke-width:0.6;" x="586.32" xlink:href="#mbe9820739d" y="544.68"/>
      </g>
     </g>
    </g>
    <g id="xtick_27">
     <g id="line2d_35">
      <g>
       <use style="stroke:#000000;stroke-width:0.6;" x="612.36" xlink:href="#mbe9820739d" y="544.68"/>
      </g>
     </g>
    </g>
    <g id="xtick_28">
     <g id="line2d_36">
      <g>
       <use style="stroke:#000000;stroke-width:0.6;" x="638.4" xlink:href="#mbe9820739d" y="544.68"/>
      </g>
     </g>
    </g>
    <g id="xtick_29">
     <g id="line2d_37">
      <g>
       <use style="stroke:#000000;stroke-width:0.6;" x="664.44" xlink:href="#mbe9820739d" y="544.68"/>
      </g>
     </g>
    </g>
    <g id="xtick_30">
     <g id="line2d_38">
      <g>
       <use style="stroke:#000000;stroke-width:0.6;" x="690.48" xlink:href="#mbe9820739d" y="544.68"/>
      </g>
     </g>
    </g>
    <g id="text_7">
     <!-- Date -->
     <g transform="translate(393.949219 584.154375)scale(0.1 -0.1)">
      <use xlink:href="#DejaVuSans-44"/>
      <use x="77.001953" xlink:href="#DejaVuSans-61"/>
      <use x="138.28125" xlink:href="#DejaVuSans-74"/>
      <use x="177.490234" xlink:href="#DejaVuSans-65"/>
     </g>
    </g>
   </g>
   <g id="matplotlib.axis_2">
    <g id="ytick_1">
     <g id="line2d_39">
      <path clip-path="url(#p68e2955192)" d="M 99 523.26 
L 712.8 523.26 
" style="fill:none;stroke:#b0b0b0;stroke-linecap:square;stroke-width:0.8;"/>
     </g>
     <g id="line2d_40">
      <defs>
       <path d="M 0 0 
L -3.5 0 
" id="me91a084207" style="stroke:#000000;stroke-width:0.8;"/>
      </defs>
      <g>
       <use style="stroke:#000000;stroke-width:0.8;" x="99" xlink:href="#me91a084207" y="523.26"/>
      </g>
     </g>
     <g id="text_8">
      <!-- $\mathdefault{10^{0}}$ -->
      <g transform="translate(74.4 527.059219)scale(0.1 -0.1)">
       <defs>
        <path d="M 794 531 
L 1825 531 
L 1825 4091 
L 703 3866 
L 703 4441 
L 1819 4666 
L 2450 4666 
L 2450 531 
L 3481 531 
L 3481 0 
L 794 0 
L 794 531 
z
" id="DejaVuSans-31" transform="scale(0.015625)"/>
       </defs>
       <use transform="translate(0 0.765625)" xlink:href="#DejaVuSans-31"/>
       <use transform="translate(63.623047 0.765625)" xlink:href="#DejaVuSans-30"/>
       <use transform="translate(128.203125 39.046875)scale(0.7)" xlink:href="#DejaVuSans-30"/>
      </g>
     </g>
    </g>
    <g id="ytick_2">
     <g id="line2d_41">
      <path clip-path="url(#p68e2955192)" d="M 99 94.86 
L 712.8 94.86 
" style="fill:none;stroke:#b0b0b0;stroke-linecap:square;stroke-width:0.8;"/>
     </g>
     <g id="line2d_42">
      <g>
       <use style="stroke:#000000;stroke-width:0.8;" x="99" xlink:href="#me91a084207" y="94.86"/>
      </g>
     </g>
     <g id="text_9">
      <!-- $\mathdefault{10^{1}}$ -->
      <g transform="translate(74.4 98.659219)scale(0.1 -0.1)">
       <use transform="translate(0 0.684375)" xlink:href="#DejaVuSans-31"/>
       <use transform="translate(63.623047 0.684375)" xlink:href="#DejaVuSans-30"/>
       <use transform="translate(128.203125 38.965625)scale(0.7)" xlink:href="#DejaVuSans-31"/>
      </g>
     </g>
    </g>
    <g id="ytick_3">
     <g id="line2d_43">
      <path clip-path="url(#p68e2955192)" d="M 99 542.862509 
L 712.8 542.862509 
" style="fill:none;stroke:#b0b0b0;stroke-linecap:square;stroke-width:0.8;"/>
     </g>
     <g id="line2d_44">
      <defs>
       <path d="M 0 0 
L -2 0 
" id="m0cb60b688e" style="stroke:#000000;stroke-width:0.6;"/>
      </defs>
      <g>
       <use style="stroke:#000000;stroke-width:0.6;" x="99" xlink:href="#m0cb60b688e" y="542.862509"/>
      </g>
     </g>
    </g>
    <g id="ytick_4">
     <g id="line2d_45">
      <path clip-path="url(#p68e2955192)" d="M 99 394.29875 
L 712.8 394.29875 
" style="fill:none;stroke:#b0b0b0;stroke-linecap:square;stroke-width:0.8;"/>
     </g>
     <g id="line2d_46">
      <g>
       <use style="stroke:#000000;stroke-width:0.6;" x="99" xlink:href="#m0cb60b688e" y="394.29875"/>
      </g>
     </g>
    </g>
    <g id="ytick_5">
     <g id="line2d_47">
      <path clip-path="url(#p68e2955192)" d="M 99 318.861254 
L 712.8 318.861254 
" style="fill:none;stroke:#b0b0b0;stroke-linecap:square;stroke-width:0.8;"/>
     </g>
     <g id="line2d_48">
      <g>
       <use style="stroke:#000000;stroke-width:0.6;" x="99" xlink:href="#m0cb60b688e" y="318.861254"/>
      </g>
     </g>
    </g>
    <g id="ytick_6">
     <g id="line2d_49">
      <path clip-path="url(#p68e2955192)" d="M 99 265.3375 
L 712.8 265.3375 
" style="fill:none;stroke:#b0b0b0;stroke-linecap:square;stroke-width:0.8;"/>
     </g>
     <g id="line2d_50">
      <g>
       <use style="stroke:#000000;stroke-width:0.6;" x="99" xlink:href="#m0cb60b688e" y="265.3375"/>
      </g>
     </g>
    </g>
    <g id="ytick_7">
     <g id="line2d_51">
      <path clip-path="url(#p68e2955192)" d="M 99 223.82125 
L 712.8 223.82125 
" style="fill:none;stroke:#b0b0b0;stroke-linecap:square;stroke-width:0.8;"/>
     </g>
     <g id="line2d_52">
      <g>
       <use style="stroke:#000000;stroke-width:0.6;" x="99" xlink:href="#m0cb60b688e" y="223.82125"/>
      </g>
     </g>
    </g>
    <g id="ytick_8">
     <g id="line2d_53">
      <path clip-path="url(#p68e2955192)" d="M 99 189.900004 
L 712.8 189.900004 
" style="fill:none;stroke:#b0b0b0;stroke-linecap:square;stroke-width:0.8;"/>
     </g>
     <g id="line2d_54">
      <g>
       <use style="stroke:#000000;stroke-width:0.6;" x="99" xlink:href="#m0cb60b688e" y="189.900004"/>
      </g>
     </g>
    </g>
    <g id="ytick_9">
     <g id="line2d_55">
      <path clip-path="url(#p68e2955192)" d="M 99 161.22 
L 712.8 161.22 
" style="fill:none;stroke:#b0b0b0;stroke-linecap:square;stroke-width:0.8;"/>
     </g>
     <g id="line2d_56">
      <g>
       <use style="stroke:#000000;stroke-width:0.6;" x="99" xlink:href="#m0cb60b688e" y="161.22"/>
      </g>
     </g>
    </g>
    <g id="ytick_10">
     <g id="line2d_57">
      <path clip-path="url(#p68e2955192)" d="M 99 136.37625 
L 712.8 136.37625 
" style="fill:none;stroke:#b0b0b0;stroke-linecap:square;stroke-width:0.8;"/>
     </g>
     <g id="line2d_58">
      <g>
       <use style="stroke:#000000;stroke-width:0.6;" x="99" xlink:href="#m0cb60b688e" y="136.37625"/>
      </g>
     </g>
    </g>
    <g id="ytick_11">
     <g id="line2d_59">
      <path clip-path="url(#p68e2955192)" d="M 99 114.462509 
L 712.8 114.462509 
" style="fill:none;stroke:#b0b0b0;stroke-linecap:square;stroke-width:0.8;"/>
     </g>
     <g id="line2d_60">
      <g>
       <use style="stroke:#000000;stroke-width:0.6;" x="99" xlink:href="#m0cb60b688e" y="114.462509"/>
      </g>
     </g>
    </g>
   </g>
   <g id="line2d_61">
    <path clip-path="url(#p68e2955192)" d="M 0 0 
" style="fill:none;stroke:#1f77b4;stroke-linecap:square;stroke-width:1.5;"/>
   </g>
   <g id="line2d_62">
    <path clip-path="url(#p68e2955192)" d="M 0 0 
" style="fill:none;stroke:#ff7f0e;stroke-linecap:square;stroke-width:1.5;"/>
   </g>
   <g id="patch_3">
    <path d="M 99 544.68 
L 99 73.44 
" style="fill:none;stroke:#000000;stroke-linecap:square;stroke-linejoin:miter;stroke-width:0.8;"/>
   </g>
   <g id="patch_4">
    <path d="M 712.8 544.68 
L 712.8 73.44 
" style="fill:none;stroke:#000000;stroke-linecap:square;stroke-linejoin:miter;stroke-width:0.8;"/>
   </g>
   <g id="patch_5">
    <path d="M 99 544.68 
L 712.8 544.68 
" style="fill:none;stroke:#000000;stroke-linecap:square;stroke-linejoin:miter;stroke-width:0.8;"/>
   </g>
   <g id="patch_6">
    <path d="M 99 73.44 
L 712.8 73.44 
" style="fill:none;stroke:#000000;stroke-linecap:square;stroke-linejoin:miter;stroke-width:0.8;"/>
   </g>
   <g id="legend_1">
    <g id="patch_7">
     <path d="M 616.653125 110.79625 
L 705.8 110.79625 
Q 707.8 110.79625 707.8 108.79625 
L 707.8 80.44 
Q 707.8 78.44 705.8 78.44 
L 616.653125 78.44 
Q 614.653125 78.44 614.653125 80.44 
L 614.653125 108.79625 
Q 614.653125 110.79625 616.653125 110.79625 
z
" style="fill:#ffffff;opacity:0.8;stroke:#cccccc;stroke-linejoin:miter;"/>
    </g>
    <g id="line2d_63">
     <path d="M 618.653125 86.538437 
L 638.653125 86.538437 
" style="fill:none;stroke:#1f77b4;stroke-linecap:square;stroke-width:1.5;"/>
    </g>
    <g id="line2d_64"/>
    <g id="text_10">
     <!-- Avg Cases -->
     <g transform="translate(646.653125 90.038437)scale(0.1 -0.1)">
      <defs>
       <path d="M 2188 4044 
L 1331 1722 
L 3047 1722 
L 2188 4044 
z
M 1831 4666 
L 2547 4666 
L 4325 0 
L 3669 0 
L 3244 1197 
L 1141 1197 
L 716 0 
L 50 0 
L 1831 4666 
z
" id="DejaVuSans-41" transform="scale(0.015625)"/>
       <path d="M 2906 1791 
Q 2906 2416 2648 2759 
Q 2391 3103 1925 3103 
Q 1463 3103 1205 2759 
Q 947 2416 947 1791 
Q 947 1169 1205 825 
Q 1463 481 1925 481 
Q 2391 481 2648 825 
Q 2906 1169 2906 1791 
z
M 3481 434 
Q 3481 -459 3084 -895 
Q 2688 -1331 1869 -1331 
Q 1566 -1331 1297 -1286 
Q 1028 -1241 775 -1147 
L 775 -588 
Q 1028 -725 1275 -790 
Q 1522 -856 1778 -856 
Q 2344 -856 2625 -561 
Q 2906 -266 2906 331 
L 2906 616 
Q 2728 306 2450 153 
Q 2172 0 1784 0 
Q 1141 0 747 490 
Q 353 981 353 1791 
Q 353 2603 747 3093 
Q 1141 3584 1784 3584 
Q 2172 3584 2450 3431 
Q 2728 3278 2906 2969 
L 2906 3500 
L 3481 3500 
L 3481 434 
z
" id="DejaVuSans-67" transform="scale(0.015625)"/>
       <path id="DejaVuSans-20" transform="scale(0.015625)"/>
       <path d="M 4122 4306 
L 4122 3641 
Q 3803 3938 3442 4084 
Q 3081 4231 2675 4231 
Q 1875 4231 1450 3742 
Q 1025 3253 1025 2328 
Q 1025 1406 1450 917 
Q 1875 428 2675 428 
Q 3081 428 3442 575 
Q 3803 722 4122 1019 
L 4122 359 
Q 3791 134 3420 21 
Q 3050 -91 2638 -91 
Q 1578 -91 968 557 
Q 359 1206 359 2328 
Q 359 3453 968 4101 
Q 1578 4750 2638 4750 
Q 3056 4750 3426 4639 
Q 3797 4528 4122 4306 
z
" id="DejaVuSans-43" transform="scale(0.015625)"/>
       <path d="M 2834 3397 
L 2834 2853 
Q 2591 2978 2328 3040 
Q 2066 3103 1784 3103 
Q 1356 3103 1142 2972 
Q 928 2841 928 2578 
Q 928 2378 1081 2264 
Q 1234 2150 1697 2047 
L 1894 2003 
Q 2506 1872 2764 1633 
Q 3022 1394 3022 966 
Q 3022 478 2636 193 
Q 2250 -91 1575 -91 
Q 1294 -91 989 -36 
Q 684 19 347 128 
L 347 722 
Q 666 556 975 473 
Q 1284 391 1588 391 
Q 1994 391 2212 530 
Q 2431 669 2431 922 
Q 2431 1156 2273 1281 
Q 2116 1406 1581 1522 
L 1381 1569 
Q 847 1681 609 1914 
Q 372 2147 372 2553 
Q 372 3047 722 3315 
Q 1072 3584 1716 3584 
Q 2034 3584 2315 3537 
Q 2597 3491 2834 3397 
z
" id="DejaVuSans-73" transform="scale(0.015625)"/>
      </defs>
      <use xlink:href="#DejaVuSans-41"/>
      <use x="62.533203" xlink:href="#DejaVuSans-76"/>
      <use x="121.712891" xlink:href="#DejaVuSans-67"/>
      <use x="185.189453" xlink:href="#DejaVuSans-20"/>
      <use x="216.976562" xlink:href="#DejaVuSans-43"/>
      <use x="286.800781" xlink:href="#DejaVuSans-61"/>
      <use x="348.080078" xlink:href="#DejaVuSans-73"/>
      <use x="400.179688" xlink:href="#DejaVuSans-65"/>
      <use x="461.703125" xlink:href="#DejaVuSans-73"/>
     </g>
    </g>
    <g id="line2d_65">
     <path d="M 618.653125 101.216562 
L 638.653125 101.216562 
" style="fill:none;stroke:#ff7f0e;stroke-linecap:square;stroke-width:1.5;"/>
    </g>
    <g id="line2d_66"/>
    <g id="text_11">
     <!-- Avg Deaths -->
     <g transform="translate(646.653125 104.716562)scale(0.1 -0.1)">
      <defs>
       <path d="M 3513 2113 
L 3513 0 
L 2938 0 
L 2938 2094 
Q 2938 2591 2744 2837 
Q 2550 3084 2163 3084 
Q 1697 3084 1428 2787 
Q 1159 2491 1159 1978 
L 1159 0 
L 581 0 
L 581 4863 
L 1159 4863 
L 1159 2956 
Q 1366 3272 1645 3428 
Q 1925 3584 2291 3584 
Q 2894 3584 3203 3211 
Q 3513 2838 3513 2113 
z
" id="DejaVuSans-68" transform="scale(0.015625)"/>
      </defs>
      <use xlink:href="#DejaVuSans-41"/>
      <use x="62.533203" xlink:href="#DejaVuSans-76"/>
      <use x="121.712891" xlink:href="#DejaVuSans-67"/>
      <use x="185.189453" xlink:href="#DejaVuSans-20"/>
      <use x="216.976562" xlink:href="#DejaVuSans-44"/>
      <use x="293.978516" xlink:href="#DejaVuSans-65"/>
      <use x="355.501953" xlink:href="#DejaVuSans-61"/>
      <use x="416.78125" xlink:href="#DejaVuSans-74"/>
      <use x="455.990234" xlink:href="#DejaVuSans-68"/>
      <use x="519.369141" xlink:href="#DejaVuSans-73"/>
     </g>
    </g>
   </g>
  </g>
 </g>
 <defs>
  <clipPath id="p68e2955192">
   <rect height="471.24" width="613.8" x="99" y="73.44"/>
  </clipPath>
 </defs>
</svg>
