<?xml version="1.0" encoding="utf-8" standalone="no"?>
<!DOCTYPE svg PUBLIC "-//W3C//DTD SVG 1.1//EN"
  "http://www.w3.org/Graphics/SVG/1.1/DTD/svg11.dtd">
<svg height="612pt" version="1.1" viewBox="0 0 792 612" width="792pt" xmlns="http://www.w3.org/2000/svg" xmlns:xlink="http://www.w3.org/1999/xlink">
 <metadata>
  <rdf:RDF xmlns:cc="http://creativecommons.org/ns#" xmlns:dc="http://purl.org/dc/elements/1.1/" xmlns:rdf="http://www.w3.org/1999/02/22-rdf-syntax-ns#">
   <cc:Work>
    <dc:type rdf:resource="http://purl.org/dc/dcmitype/StillImage"/>
    <dc:format>image/svg+xml</dc:format>
    <dc:creator>
     <cc:Agent>
      <dc:title>Matplotlib v3.4.2, https://matplotlib.org/</dc:title>
     </cc:Agent>
    </dc:creator>
   </cc:Work>
  </rdf:RDF>
 </metadata>
 <defs>
  <style type="text/css">*{stroke-linecap:butt;stroke-linejoin:round;}</style>
 </defs>
 <g id="figure_1">
  <g id="patch_1">
   <path d="M 0 612 
L 792 612 
L 792 0 
L 0 0 
z
" style="fill:#ffffff;"/>
  </g>
  <g id="axes_1">
   <g id="patch_2">
    <path d="M 99 544.68 
L 712.8 544.68 
L 712.8 73.44 
L 99 73.44 
z
" style="fill:#ffffff;"/>
   </g>
   <g id="PolyCollection_1">
    <path clip-path="url(#p68e2955192)" d="M 99 134467.172405 
L 99 134467.172405 
L 101.764865 134467.172405 
L 104.52973 134467.172405 
L 107.294595 134467.172405 
L 110.059459 134467.172405 
L 112.824324 134467.172405 
L 115.589189 134467.172405 
L 118.354054 134467.172405 
L 121.118919 134467.172405 
L 123.883784 134467.172405 
L 126.648649 134467.172405 
L 129.413514 134467.172405 
L 132.178378 134467.172405 
L 134.943243 503.681145 
L 137.708108 134467.172405 
L 140.472973 134467.172405 
L 143.237838 134467.172405 
L 146.002703 134467.172405 
L 148.767568 134467.172405 
L 151.532432 134467.172405 
L 154.297297 134467.172405 
L 157.062162 134467.172405 
L 159.827027 134467.172405 
L 162.591892 134467.172405 
L 165.356757 134467.172405 
L 168.121622 134467.172405 
L 170.886486 134467.172405 
L 173.651351 134467.172405 
L 176.416216 134467.172405 
L 179.181081 134467.172405 
L 181.945946 134467.172405 
L 184.710811 134467.172405 
L 187.475676 134467.172405 
L 190.240541 134467.172405 
L 193.005405 134467.172405 
L 195.77027 134467.172405 
L 198.535135 134467.172405 
L 201.3 134467.172405 
L 204.064865 134467.172405 
L 206.82973 134467.172405 
L 209.594595 134467.172405 
L 212.359459 134467.172405 
L 215.124324 134467.172405 
L 217.889189 134467.172405 
L 220.654054 134467.172405 
L 223.418919 134467.172405 
L 226.183784 134467.172405 
L 228.948649 134467.172405 
L 231.713514 134467.172405 
L 234.478378 134467.172405 
L 237.243243 134467.172405 
L 240.008108 134467.172405 
L 242.772973 134467.172405 
L 245.537838 134467.172405 
L 248.302703 134467.172405 
L 251.067568 134467.172405 
L 253.832432 134467.172405 
L 256.597297 134467.172405 
L 259.362162 134467.172405 
L 262.127027 134467.172405 
L 264.891892 134467.172405 
L 267.656757 134467.172405 
L 270.421622 134467.172405 
L 273.186486 134467.172405 
L 275.951351 134467.172405 
L 278.716216 134467.172405 
L 281.481081 134467.172405 
L 284.245946 134467.172405 
L 287.010811 134467.172405 
L 289.775676 134467.172405 
L 292.540541 134467.172405 
L 295.305405 134467.172405 
L 298.07027 134467.172405 
L 300.835135 134467.172405 
L 303.6 134467.172405 
L 306.364865 134467.172405 
L 309.12973 134467.172405 
L 311.894595 134467.172405 
L 314.659459 134467.172405 
L 317.424324 134467.172405 
L 320.189189 134467.172405 
L 322.954054 134467.172405 
L 325.718919 134467.172405 
L 328.483784 134467.172405 
L 331.248649 134467.172405 
L 334.013514 134467.172405 
L 336.778378 134467.172405 
L 339.543243 134467.172405 
L 342.308108 134467.172405 
L 345.072973 134467.172405 
L 347.837838 134467.172405 
L 350.602703 134467.172405 
L 353.367568 134467.172405 
L 356.132432 134467.172405 
L 358.897297 134467.172405 
L 361.662162 134467.172405 
L 364.427027 134467.172405 
L 367.191892 134467.172405 
L 369.956757 134467.172405 
L 372.721622 134467.172405 
L 375.486486 134467.172405 
L 378.251351 134467.172405 
L 381.016216 134467.172405 
L 383.781081 134467.172405 
L 386.545946 134467.172405 
L 389.310811 134467.172405 
L 392.075676 134467.172405 
L 394.840541 134467.172405 
L 397.605405 134467.172405 
L 400.37027 134467.172405 
L 403.135135 134467.172405 
L 405.9 134467.172405 
L 408.664865 134467.172405 
L 411.42973 134467.172405 
L 414.194595 134467.172405 
L 416.959459 134467.172405 
L 419.724324 134467.172405 
L 422.489189 134467.172405 
L 425.254054 134467.172405 
L 428.018919 134467.172405 
L 430.783784 134467.172405 
L 433.548649 134467.172405 
L 436.313514 134467.172405 
L 439.078378 134467.172405 
L 441.843243 134467.172405 
L 444.608108 134467.172405 
L 447.372973 134467.172405 
L 450.137838 134467.172405 
L 452.902703 134467.172405 
L 455.667568 134467.172405 
L 458.432432 134467.172405 
L 461.197297 134467.172405 
L 463.962162 134467.172405 
L 466.727027 134467.172405 
L 469.491892 134467.172405 
L 472.256757 134467.172405 
L 475.021622 134467.172405 
L 477.786486 134467.172405 
L 480.551351 134467.172405 
L 483.316216 134467.172405 
L 486.081081 134467.172405 
L 488.845946 134467.172405 
L 491.610811 134467.172405 
L 494.375676 134467.172405 
L 497.140541 134467.172405 
L 499.905405 134467.172405 
L 502.67027 134467.172405 
L 505.435135 134467.172405 
L 508.2 134467.172405 
L 510.964865 134467.172405 
L 513.72973 134467.172405 
L 516.494595 134467.172405 
L 519.259459 134467.172405 
L 522.024324 134467.172405 
L 524.789189 134467.172405 
L 527.554054 134467.172405 
L 530.318919 134467.172405 
L 533.083784 359.08786 
L 535.848649 359.08786 
L 538.613514 357.045945 
L 541.378378 342.869912 
L 544.143243 328.949467 
L 546.908108 315.390142 
L 549.672973 277.052099 
L 552.437838 277.052099 
L 555.202703 277.052099 
L 557.967568 260.270004 
L 560.732432 260.270004 
L 563.497297 254.36786 
L 566.262162 254.36786 
L 569.027027 254.36786 
L 571.791892 253.345985 
L 574.556757 253.345985 
L 577.321622 246.354954 
L 580.086486 246.354954 
L 582.851351 212.844127 
L 585.616216 195.587566 
L 588.381081 193.377606 
L 591.145946 193.377606 
L 593.910811 193.377606 
L 596.675676 188.267702 
L 599.440541 188.267702 
L 602.205405 149.917257 
L 604.97027 144.16063 
L 607.735135 144.16063 
L 610.5 144.16063 
L 613.264865 127.038565 
L 616.02973 127.038565 
L 618.794595 127.038565 
L 621.559459 103.982684 
L 624.324324 103.982684 
L 627.089189 103.982684 
L 629.854054 103.982684 
L 632.618919 103.982684 
L 635.383784 107.261908 
L 638.148649 107.261908 
L 640.913514 94.86 
L 643.678378 94.86 
L 646.443243 94.86 
L 649.208108 94.86 
L 651.972973 114.495024 
L 654.737838 103.646656 
L 657.502703 103.646656 
L 660.267568 157.421476 
L 663.032432 146.985875 
L 665.797297 146.985875 
L 668.562162 146.985875 
L 671.327027 146.985875 
L 674.091892 146.985875 
L 676.856757 146.985875 
L 679.621622 202.817824 
L 682.386486 202.817824 
L 685.151351 202.817824 
L 687.916216 202.817824 
L 690.681081 202.817824 
L 693.445946 134467.172405 
L 696.210811 134467.172405 
L 698.975676 134467.172405 
L 701.740541 134467.172405 
L 704.505405 134467.172405 
L 707.27027 134467.172405 
L 710.035135 134467.172405 
L 712.8 134467.172405 
L 712.8 134467.172405 
L 712.8 134467.172405 
L 710.035135 134467.172405 
L 707.27027 134467.172405 
L 704.505405 134467.172405 
L 701.740541 134467.172405 
L 698.975676 134467.172405 
L 696.210811 134467.172405 
L 693.445946 134467.172405 
L 690.681081 134467.172405 
L 687.916216 134467.172405 
L 685.151351 134467.172405 
L 682.386486 134467.172405 
L 679.621622 134467.172405 
L 676.856757 134467.172405 
L 674.091892 134467.172405 
L 671.327027 134467.172405 
L 668.562162 134467.172405 
L 665.797297 134467.172405 
L 663.032432 134467.172405 
L 660.267568 134467.172405 
L 657.502703 134467.172405 
L 654.737838 134467.172405 
L 651.972973 134467.172405 
L 649.208108 134467.172405 
L 646.443243 134467.172405 
L 643.678378 134467.172405 
L 640.913514 134467.172405 
L 638.148649 134467.172405 
L 635.383784 134467.172405 
L 632.618919 134467.172405 
L 629.854054 134467.172405 
L 627.089189 134467.172405 
L 624.324324 134467.172405 
L 621.559459 134467.172405 
L 618.794595 134467.172405 
L 616.02973 134467.172405 
L 613.264865 134467.172405 
L 610.5 134467.172405 
L 607.735135 134467.172405 
L 604.97027 134467.172405 
L 602.205405 134467.172405 
L 599.440541 134467.172405 
L 596.675676 134467.172405 
L 593.910811 134467.172405 
L 591.145946 134467.172405 
L 588.381081 335.494406 
L 585.616216 335.494406 
L 582.851351 335.494406 
L 580.086486 335.494406 
L 577.321622 331.479806 
L 574.556757 360.490063 
L 571.791892 360.490063 
L 569.027027 360.490063 
L 566.262162 360.490063 
L 563.497297 360.490063 
L 560.732432 489.057506 
L 557.967568 489.057506 
L 555.202703 134467.172405 
L 552.437838 134467.172405 
L 549.672973 134467.172405 
L 546.908108 134467.172405 
L 544.143243 134467.172405 
L 541.378378 134467.172405 
L 538.613514 134467.172405 
L 535.848649 134467.172405 
L 533.083784 134467.172405 
L 530.318919 134467.172405 
L 527.554054 134467.172405 
L 524.789189 134467.172405 
L 522.024324 134467.172405 
L 519.259459 134467.172405 
L 516.494595 134467.172405 
L 513.72973 134467.172405 
L 510.964865 134467.172405 
L 508.2 134467.172405 
L 505.435135 134467.172405 
L 502.67027 134467.172405 
L 499.905405 134467.172405 
L 497.140541 134467.172405 
L 494.375676 134467.172405 
L 491.610811 134467.172405 
L 488.845946 134467.172405 
L 486.081081 134467.172405 
L 483.316216 134467.172405 
L 480.551351 134467.172405 
L 477.786486 134467.172405 
L 475.021622 134467.172405 
L 472.256757 134467.172405 
L 469.491892 134467.172405 
L 466.727027 134467.172405 
L 463.962162 134467.172405 
L 461.197297 134467.172405 
L 458.432432 134467.172405 
L 455.667568 134467.172405 
L 452.902703 134467.172405 
L 450.137838 134467.172405 
L 447.372973 134467.172405 
L 444.608108 134467.172405 
L 441.843243 134467.172405 
L 439.078378 134467.172405 
L 436.313514 134467.172405 
L 433.548649 134467.172405 
L 430.783784 134467.172405 
L 428.018919 134467.172405 
L 425.254054 134467.172405 
L 422.489189 134467.172405 
L 419.724324 134467.172405 
L 416.959459 134467.172405 
L 414.194595 134467.172405 
L 411.42973 134467.172405 
L 408.664865 134467.172405 
L 405.9 134467.172405 
L 403.135135 134467.172405 
L 400.37027 134467.172405 
L 397.605405 134467.172405 
L 394.840541 134467.172405 
L 392.075676 134467.172405 
L 389.310811 134467.172405 
L 386.545946 134467.172405 
L 383.781081 134467.172405 
L 381.016216 134467.172405 
L 378.251351 134467.172405 
L 375.486486 134467.172405 
L 372.721622 134467.172405 
L 369.956757 134467.172405 
L 367.191892 134467.172405 
L 364.427027 134467.172405 
L 361.662162 134467.172405 
L 358.897297 134467.172405 
L 356.132432 134467.172405 
L 353.367568 134467.172405 
L 350.602703 134467.172405 
L 347.837838 134467.172405 
L 345.072973 134467.172405 
L 342.308108 134467.172405 
L 339.543243 134467.172405 
L 336.778378 134467.172405 
L 334.013514 134467.172405 
L 331.248649 134467.172405 
L 328.483784 134467.172405 
L 325.718919 134467.172405 
L 322.954054 134467.172405 
L 320.189189 134467.172405 
L 317.424324 134467.172405 
L 314.659459 134467.172405 
L 311.894595 134467.172405 
L 309.12973 134467.172405 
L 306.364865 134467.172405 
L 303.6 134467.172405 
L 300.835135 134467.172405 
L 298.07027 134467.172405 
L 295.305405 134467.172405 
L 292.540541 134467.172405 
L 289.775676 134467.172405 
L 287.010811 134467.172405 
L 284.245946 134467.172405 
L 281.481081 134467.172405 
L 278.716216 134467.172405 
L 275.951351 134467.172405 
L 273.186486 134467.172405 
L 270.421622 134467.172405 
L 267.656757 134467.172405 
L 264.891892 134467.172405 
L 262.127027 134467.172405 
L 259.362162 134467.172405 
L 256.597297 134467.172405 
L 253.832432 134467.172405 
L 251.067568 134467.172405 
L 248.302703 134467.172405 
L 245.537838 134467.172405 
L 242.772973 134467.172405 
L 240.008108 134467.172405 
L 237.243243 134467.172405 
L 234.478378 134467.172405 
L 231.713514 134467.172405 
L 228.948649 134467.172405 
L 226.183784 134467.172405 
L 223.418919 134467.172405 
L 220.654054 134467.172405 
L 217.889189 134467.172405 
L 215.124324 134467.172405 
L 212.359459 134467.172405 
L 209.594595 134467.172405 
L 206.82973 134467.172405 
L 204.064865 134467.172405 
L 201.3 134467.172405 
L 198.535135 134467.172405 
L 195.77027 134467.172405 
L 193.005405 134467.172405 
L 190.240541 134467.172405 
L 187.475676 134467.172405 
L 184.710811 134467.172405 
L 181.945946 134467.172405 
L 179.181081 134467.172405 
L 176.416216 134467.172405 
L 173.651351 134467.172405 
L 170.886486 134467.172405 
L 168.121622 134467.172405 
L 165.356757 134467.172405 
L 162.591892 134467.172405 
L 159.827027 134467.172405 
L 157.062162 134467.172405 
L 154.297297 134467.172405 
L 151.532432 134467.172405 
L 148.767568 134467.172405 
L 146.002703 134467.172405 
L 143.237838 134467.172405 
L 140.472973 134467.172405 
L 137.708108 134467.172405 
L 134.943243 134467.172405 
L 132.178378 134467.172405 
L 129.413514 134467.172405 
L 126.648649 134467.172405 
L 123.883784 134467.172405 
L 121.118919 134467.172405 
L 118.354054 134467.172405 
L 115.589189 134467.172405 
L 112.824324 134467.172405 
L 110.059459 134467.172405 
L 107.294595 134467.172405 
L 104.52973 134467.172405 
L 101.764865 134467.172405 
L 99 134467.172405 
z
" style="fill:#8080ff;fill-opacity:0.5;stroke:#8080ff;stroke-opacity:0.5;"/>
   </g>
   <g id="PolyCollection_2">
    <path clip-path="url(#p68e2955192)" d="M 99 134467.172405 
L 99 134467.172405 
L 101.764865 134467.172405 
L 104.52973 134467.172405 
L 107.294595 134467.172405 
L 110.059459 134467.172405 
L 112.824324 134467.172405 
L 115.589189 134467.172405 
L 118.354054 134467.172405 
L 121.118919 134467.172405 
L 123.883784 134467.172405 
L 126.648649 134467.172405 
L 129.413514 134467.172405 
L 132.178378 134467.172405 
L 134.943243 134467.172405 
L 137.708108 134467.172405 
L 140.472973 134467.172405 
L 143.237838 134467.172405 
L 146.002703 134467.172405 
L 148.767568 134467.172405 
L 151.532432 134467.172405 
L 154.297297 134467.172405 
L 157.062162 134467.172405 
L 159.827027 134467.172405 
L 162.591892 134467.172405 
L 165.356757 134467.172405 
L 168.121622 134467.172405 
L 170.886486 134467.172405 
L 173.651351 134467.172405 
L 176.416216 134467.172405 
L 179.181081 134467.172405 
L 181.945946 134467.172405 
L 184.710811 134467.172405 
L 187.475676 134467.172405 
L 190.240541 134467.172405 
L 193.005405 134467.172405 
L 195.77027 134467.172405 
L 198.535135 134467.172405 
L 201.3 134467.172405 
L 204.064865 134467.172405 
L 206.82973 134467.172405 
L 209.594595 134467.172405 
L 212.359459 134467.172405 
L 215.124324 134467.172405 
L 217.889189 134467.172405 
L 220.654054 134467.172405 
L 223.418919 134467.172405 
L 226.183784 134467.172405 
L 228.948649 134467.172405 
L 231.713514 134467.172405 
L 234.478378 134467.172405 
L 237.243243 134467.172405 
L 240.008108 134467.172405 
L 242.772973 134467.172405 
L 245.537838 134467.172405 
L 248.302703 134467.172405 
L 251.067568 134467.172405 
L 253.832432 134467.172405 
L 256.597297 134467.172405 
L 259.362162 134467.172405 
L 262.127027 134467.172405 
L 264.891892 134467.172405 
L 267.656757 134467.172405 
L 270.421622 134467.172405 
L 273.186486 134467.172405 
L 275.951351 134467.172405 
L 278.716216 134467.172405 
L 281.481081 134467.172405 
L 284.245946 134467.172405 
L 287.010811 134467.172405 
L 289.775676 134467.172405 
L 292.540541 134467.172405 
L 295.305405 134467.172405 
L 298.07027 134467.172405 
L 300.835135 134467.172405 
L 303.6 134467.172405 
L 306.364865 134467.172405 
L 309.12973 134467.172405 
L 311.894595 134467.172405 
L 314.659459 134467.172405 
L 317.424324 134467.172405 
L 320.189189 134467.172405 
L 322.954054 134467.172405 
L 325.718919 134467.172405 
L 328.483784 134467.172405 
L 331.248649 134467.172405 
L 334.013514 134467.172405 
L 336.778378 134467.172405 
L 339.543243 134467.172405 
L 342.308108 134467.172405 
L 345.072973 134467.172405 
L 347.837838 134467.172405 
L 350.602703 134467.172405 
L 353.367568 134467.172405 
L 356.132432 134467.172405 
L 358.897297 134467.172405 
L 361.662162 134467.172405 
L 364.427027 134467.172405 
L 367.191892 134467.172405 
L 369.956757 134467.172405 
L 372.721622 134467.172405 
L 375.486486 134467.172405 
L 378.251351 134467.172405 
L 381.016216 134467.172405 
L 383.781081 134467.172405 
L 386.545946 134467.172405 
L 389.310811 134467.172405 
L 392.075676 134467.172405 
L 394.840541 134467.172405 
L 397.605405 134467.172405 
L 400.37027 134467.172405 
L 403.135135 134467.172405 
L 405.9 134467.172405 
L 408.664865 134467.172405 
L 411.42973 134467.172405 
L 414.194595 134467.172405 
L 416.959459 134467.172405 
L 419.724324 134467.172405 
L 422.489189 134467.172405 
L 425.254054 134467.172405 
L 428.018919 134467.172405 
L 430.783784 134467.172405 
L 433.548649 134467.172405 
L 436.313514 134467.172405 
L 439.078378 134467.172405 
L 441.843243 134467.172405 
L 444.608108 134467.172405 
L 447.372973 134467.172405 
L 450.137838 134467.172405 
L 452.902703 134467.172405 
L 455.667568 134467.172405 
L 458.432432 134467.172405 
L 461.197297 134467.172405 
L 463.962162 134467.172405 
L 466.727027 134467.172405 
L 469.491892 134467.172405 
L 472.256757 134467.172405 
L 475.021622 134467.172405 
L 477.786486 134467.172405 
L 480.551351 134467.172405 
L 483.316216 134467.172405 
L 486.081081 134467.172405 
L 488.845946 134467.172405 
L 491.610811 134467.172405 
L 494.375676 134467.172405 
L 497.140541 134467.172405 
L 499.905405 134467.172405 
L 502.67027 134467.172405 
L 505.435135 134467.172405 
L 508.2 134467.172405 
L 510.964865 134467.172405 
L 513.72973 134467.172405 
L 516.494595 134467.172405 
L 519.259459 134467.172405 
L 522.024324 134467.172405 
L 524.789189 134467.172405 
L 527.554054 134467.172405 
L 530.318919 134467.172405 
L 533.083784 134467.172405 
L 535.848649 134467.172405 
L 538.613514 134467.172405 
L 541.378378 134467.172405 
L 544.143243 134467.172405 
L 546.908108 134467.172405 
L 549.672973 134467.172405 
L 552.437838 134467.172405 
L 555.202703 134467.172405 
L 557.967568 134467.172405 
L 560.732432 134467.172405 
L 563.497297 134467.172405 
L 566.262162 134467.172405 
L 569.027027 134467.172405 
L 571.791892 134467.172405 
L 574.556757 134467.172405 
L 577.321622 134467.172405 
L 580.086486 134467.172405 
L 582.851351 134467.172405 
L 585.616216 134467.172405 
L 588.381081 134467.172405 
L 591.145946 134467.172405 
L 593.910811 134467.172405 
L 596.675676 134467.172405 
L 599.440541 134467.172405 
L 602.205405 134467.172405 
L 604.97027 134467.172405 
L 607.735135 134467.172405 
L 610.5 134467.172405 
L 613.264865 134467.172405 
L 616.02973 134467.172405 
L 618.794595 134467.172405 
L 621.559459 134467.172405 
L 624.324324 134467.172405 
L 627.089189 134467.172405 
L 629.854054 134467.172405 
L 632.618919 134467.172405 
L 635.383784 134467.172405 
L 638.148649 134467.172405 
L 640.913514 134467.172405 
L 643.678378 134467.172405 
L 646.443243 134467.172405 
L 649.208108 134467.172405 
L 651.972973 134467.172405 
L 654.737838 423.014592 
L 657.502703 423.014592 
L 660.267568 423.014592 
L 663.032432 423.014592 
L 665.797297 423.014592 
L 668.562162 423.014592 
L 671.327027 423.014592 
L 674.091892 423.014592 
L 676.856757 423.014592 
L 679.621622 134467.172405 
L 682.386486 134467.172405 
L 685.151351 134467.172405 
L 687.916216 134467.172405 
L 690.681081 134467.172405 
L 693.445946 134467.172405 
L 696.210811 134467.172405 
L 698.975676 134467.172405 
L 701.740541 134467.172405 
L 704.505405 134467.172405 
L 707.27027 134467.172405 
L 710.035135 134467.172405 
L 712.8 134467.172405 
L 712.8 134467.172405 
L 712.8 134467.172405 
L 710.035135 134467.172405 
L 707.27027 134467.172405 
L 704.505405 134467.172405 
L 701.740541 134467.172405 
L 698.975676 134467.172405 
L 696.210811 134467.172405 
L 693.445946 134467.172405 
L 690.681081 134467.172405 
L 687.916216 134467.172405 
L 685.151351 134467.172405 
L 682.386486 134467.172405 
L 679.621622 134467.172405 
L 676.856757 134467.172405 
L 674.091892 134467.172405 
L 671.327027 134467.172405 
L 668.562162 134467.172405 
L 665.797297 134467.172405 
L 663.032432 134467.172405 
L 660.267568 134467.172405 
L 657.502703 134467.172405 
L 654.737838 134467.172405 
L 651.972973 134467.172405 
L 649.208108 134467.172405 
L 646.443243 134467.172405 
L 643.678378 134467.172405 
L 640.913514 134467.172405 
L 638.148649 134467.172405 
L 635.383784 134467.172405 
L 632.618919 134467.172405 
L 629.854054 134467.172405 
L 627.089189 134467.172405 
L 624.324324 134467.172405 
L 621.559459 134467.172405 
L 618.794595 134467.172405 
L 616.02973 134467.172405 
L 613.264865 134467.172405 
L 610.5 134467.172405 
L 607.735135 134467.172405 
L 604.97027 134467.172405 
L 602.205405 134467.172405 
L 599.440541 134467.172405 
L 596.675676 134467.172405 
L 593.910811 134467.172405 
L 591.145946 134467.172405 
L 588.381081 134467.172405 
L 585.616216 134467.172405 
L 582.851351 134467.172405 
L 580.086486 134467.172405 
L 577.321622 134467.172405 
L 574.556757 134467.172405 
L 571.791892 134467.172405 
L 569.027027 134467.172405 
L 566.262162 134467.172405 
L 563.497297 134467.172405 
L 560.732432 134467.172405 
L 557.967568 134467.172405 
L 555.202703 134467.172405 
L 552.437838 134467.172405 
L 549.672973 134467.172405 
L 546.908108 134467.172405 
L 544.143243 134467.172405 
L 541.378378 134467.172405 
L 538.613514 134467.172405 
L 535.848649 134467.172405 
L 533.083784 134467.172405 
L 530.318919 134467.172405 
L 527.554054 134467.172405 
L 524.789189 134467.172405 
L 522.024324 134467.172405 
L 519.259459 134467.172405 
L 516.494595 134467.172405 
L 513.72973 134467.172405 
L 510.964865 134467.172405 
L 508.2 134467.172405 
L 505.435135 134467.172405 
L 502.67027 134467.172405 
L 499.905405 134467.172405 
L 497.140541 134467.172405 
L 494.375676 134467.172405 
L 491.610811 134467.172405 
L 488.845946 134467.172405 
L 486.081081 134467.172405 
L 483.316216 134467.172405 
L 480.551351 134467.172405 
L 477.786486 134467.172405 
L 475.021622 134467.172405 
L 472.256757 134467.172405 
L 469.491892 134467.172405 
L 466.727027 134467.172405 
L 463.962162 134467.172405 
L 461.197297 134467.172405 
L 458.432432 134467.172405 
L 455.667568 134467.172405 
L 452.902703 134467.172405 
L 450.137838 134467.172405 
L 447.372973 134467.172405 
L 444.608108 134467.172405 
L 441.843243 134467.172405 
L 439.078378 134467.172405 
L 436.313514 134467.172405 
L 433.548649 134467.172405 
L 430.783784 134467.172405 
L 428.018919 134467.172405 
L 425.254054 134467.172405 
L 422.489189 134467.172405 
L 419.724324 134467.172405 
L 416.959459 134467.172405 
L 414.194595 134467.172405 
L 411.42973 134467.172405 
L 408.664865 134467.172405 
L 405.9 134467.172405 
L 403.135135 134467.172405 
L 400.37027 134467.172405 
L 397.605405 134467.172405 
L 394.840541 134467.172405 
L 392.075676 134467.172405 
L 389.310811 134467.172405 
L 386.545946 134467.172405 
L 383.781081 134467.172405 
L 381.016216 134467.172405 
L 378.251351 134467.172405 
L 375.486486 134467.172405 
L 372.721622 134467.172405 
L 369.956757 134467.172405 
L 367.191892 134467.172405 
L 364.427027 134467.172405 
L 361.662162 134467.172405 
L 358.897297 134467.172405 
L 356.132432 134467.172405 
L 353.367568 134467.172405 
L 350.602703 134467.172405 
L 347.837838 134467.172405 
L 345.072973 134467.172405 
L 342.308108 134467.172405 
L 339.543243 134467.172405 
L 336.778378 134467.172405 
L 334.013514 134467.172405 
L 331.248649 134467.172405 
L 328.483784 134467.172405 
L 325.718919 134467.172405 
L 322.954054 134467.172405 
L 320.189189 134467.172405 
L 317.424324 134467.172405 
L 314.659459 134467.172405 
L 311.894595 134467.172405 
L 309.12973 134467.172405 
L 306.364865 134467.172405 
L 303.6 134467.172405 
L 300.835135 134467.172405 
L 298.07027 134467.172405 
L 295.305405 134467.172405 
L 292.540541 134467.172405 
L 289.775676 134467.172405 
L 287.010811 134467.172405 
L 284.245946 134467.172405 
L 281.481081 134467.172405 
L 278.716216 134467.172405 
L 275.951351 134467.172405 
L 273.186486 134467.172405 
L 270.421622 134467.172405 
L 267.656757 134467.172405 
L 264.891892 134467.172405 
L 262.127027 134467.172405 
L 259.362162 134467.172405 
L 256.597297 134467.172405 
L 253.832432 134467.172405 
L 251.067568 134467.172405 
L 248.302703 134467.172405 
L 245.537838 134467.172405 
L 242.772973 134467.172405 
L 240.008108 134467.172405 
L 237.243243 134467.172405 
L 234.478378 134467.172405 
L 231.713514 134467.172405 
L 228.948649 134467.172405 
L 226.183784 134467.172405 
L 223.418919 134467.172405 
L 220.654054 134467.172405 
L 217.889189 134467.172405 
L 215.124324 134467.172405 
L 212.359459 134467.172405 
L 209.594595 134467.172405 
L 206.82973 134467.172405 
L 204.064865 134467.172405 
L 201.3 134467.172405 
L 198.535135 134467.172405 
L 195.77027 134467.172405 
L 193.005405 134467.172405 
L 190.240541 134467.172405 
L 187.475676 134467.172405 
L 184.710811 134467.172405 
L 181.945946 134467.172405 
L 179.181081 134467.172405 
L 176.416216 134467.172405 
L 173.651351 134467.172405 
L 170.886486 134467.172405 
L 168.121622 134467.172405 
L 165.356757 134467.172405 
L 162.591892 134467.172405 
L 159.827027 134467.172405 
L 157.062162 134467.172405 
L 154.297297 134467.172405 
L 151.532432 134467.172405 
L 148.767568 134467.172405 
L 146.002703 134467.172405 
L 143.237838 134467.172405 
L 140.472973 134467.172405 
L 137.708108 134467.172405 
L 134.943243 134467.172405 
L 132.178378 134467.172405 
L 129.413514 134467.172405 
L 126.648649 134467.172405 
L 123.883784 134467.172405 
L 121.118919 134467.172405 
L 118.354054 134467.172405 
L 115.589189 134467.172405 
L 112.824324 134467.172405 
L 110.059459 134467.172405 
L 107.294595 134467.172405 
L 104.52973 134467.172405 
L 101.764865 134467.172405 
L 99 134467.172405 
z
" style="fill:#ff8080;fill-opacity:0.5;stroke:#ff8080;stroke-opacity:0.5;"/>
   </g>
   <g id="matplotlib.axis_1">
    <g id="xtick_1">
     <g id="line2d_1">
      <path clip-path="url(#p68e2955192)" d="M 99 544.68 
L 99 73.44 
" style="fill:none;stroke:#b0b0b0;stroke-linecap:square;stroke-width:0.8;"/>
     </g>
     <g id="line2d_2">
      <defs>
       <path d="M 0 0 
L 0 3.5 
" id="m4abed1d830" style="stroke:#000000;stroke-width:0.8;"/>
      </defs>
      <g>
       <use style="stroke:#000000;stroke-width:0.8;" x="99" xlink:href="#m4abed1d830" y="544.68"/>
      </g>
     </g>
    </g>
    <g id="xtick_2">
     <g id="line2d_3">
      <path clip-path="url(#p68e2955192)" d="M 123.883784 544.68 
L 123.883784 73.44 
" style="fill:none;stroke:#b0b0b0;stroke-linecap:square;stroke-width:0.8;"/>
     </g>
     <g id="line2d_4">
      <g>
       <use style="stroke:#000000;stroke-width:0.8;" x="123.883784" xlink:href="#m4abed1d830" y="544.68"/>
      </g>
     </g>
     <g id="text_1">
      <!-- Oct -->
      <g transform="translate(115.238471 559.278437)scale(0.1 -0.1)">
       <defs>
        <path d="M 2522 4238 
Q 1834 4238 1429 3725 
Q 1025 3213 1025 2328 
Q 1025 1447 1429 934 
Q 1834 422 2522 422 
Q 3209 422 3611 934 
Q 4013 1447 4013 2328 
Q 4013 3213 3611 3725 
Q 3209 4238 2522 4238 
z
M 2522 4750 
Q 3503 4750 4090 4092 
Q 4678 3434 4678 2328 
Q 4678 1225 4090 567 
Q 3503 -91 2522 -91 
Q 1538 -91 948 565 
Q 359 1222 359 2328 
Q 359 3434 948 4092 
Q 1538 4750 2522 4750 
z
" id="DejaVuSans-4f" transform="scale(0.015625)"/>
        <path d="M 3122 3366 
L 3122 2828 
Q 2878 2963 2633 3030 
Q 2388 3097 2138 3097 
Q 1578 3097 1268 2742 
Q 959 2388 959 1747 
Q 959 1106 1268 751 
Q 1578 397 2138 397 
Q 2388 397 2633 464 
Q 2878 531 3122 666 
L 3122 134 
Q 2881 22 2623 -34 
Q 2366 -91 2075 -91 
Q 1284 -91 818 406 
Q 353 903 353 1747 
Q 353 2603 823 3093 
Q 1294 3584 2113 3584 
Q 2378 3584 2631 3529 
Q 2884 3475 3122 3366 
z
" id="DejaVuSans-63" transform="scale(0.015625)"/>
        <path d="M 1172 4494 
L 1172 3500 
L 2356 3500 
L 2356 3053 
L 1172 3053 
L 1172 1153 
Q 1172 725 1289 603 
Q 1406 481 1766 481 
L 2356 481 
L 2356 0 
L 1766 0 
Q 1100 0 847 248 
Q 594 497 594 1153 
L 594 3053 
L 172 3053 
L 172 3500 
L 594 3500 
L 594 4494 
L 1172 4494 
z
" id="DejaVuSans-74" transform="scale(0.015625)"/>
       </defs>
       <use xlink:href="#DejaVuSans-4f"/>
       <use x="78.710938" xlink:href="#DejaVuSans-63"/>
       <use x="133.691406" xlink:href="#DejaVuSans-74"/>
      </g>
     </g>
    </g>
    <g id="xtick_3">
     <g id="line2d_5">
      <path clip-path="url(#p68e2955192)" d="M 209.594595 544.68 
L 209.594595 73.44 
" style="fill:none;stroke:#b0b0b0;stroke-linecap:square;stroke-width:0.8;"/>
     </g>
     <g id="line2d_6">
      <g>
       <use style="stroke:#000000;stroke-width:0.8;" x="209.594595" xlink:href="#m4abed1d830" y="544.68"/>
      </g>
     </g>
     <g id="text_2">
      <!-- Nov -->
      <g transform="translate(199.83522 559.278437)scale(0.1 -0.1)">
       <defs>
        <path d="M 628 4666 
L 1478 4666 
L 3547 763 
L 3547 4666 
L 4159 4666 
L 4159 0 
L 3309 0 
L 1241 3903 
L 1241 0 
L 628 0 
L 628 4666 
z
" id="DejaVuSans-4e" transform="scale(0.015625)"/>
        <path d="M 1959 3097 
Q 1497 3097 1228 2736 
Q 959 2375 959 1747 
Q 959 1119 1226 758 
Q 1494 397 1959 397 
Q 2419 397 2687 759 
Q 2956 1122 2956 1747 
Q 2956 2369 2687 2733 
Q 2419 3097 1959 3097 
z
M 1959 3584 
Q 2709 3584 3137 3096 
Q 3566 2609 3566 1747 
Q 3566 888 3137 398 
Q 2709 -91 1959 -91 
Q 1206 -91 779 398 
Q 353 888 353 1747 
Q 353 2609 779 3096 
Q 1206 3584 1959 3584 
z
" id="DejaVuSans-6f" transform="scale(0.015625)"/>
        <path d="M 191 3500 
L 800 3500 
L 1894 563 
L 2988 3500 
L 3597 3500 
L 2284 0 
L 1503 0 
L 191 3500 
z
" id="DejaVuSans-76" transform="scale(0.015625)"/>
       </defs>
       <use xlink:href="#DejaVuSans-4e"/>
       <use x="74.804688" xlink:href="#DejaVuSans-6f"/>
       <use x="135.986328" xlink:href="#DejaVuSans-76"/>
      </g>
     </g>
    </g>
    <g id="xtick_4">
     <g id="line2d_7">
      <path clip-path="url(#p68e2955192)" d="M 292.540541 544.68 
L 292.540541 73.44 
" style="fill:none;stroke:#b0b0b0;stroke-linecap:square;stroke-width:0.8;"/>
     </g>
     <g id="line2d_8">
      <g>
       <use style="stroke:#000000;stroke-width:0.8;" x="292.540541" xlink:href="#m4abed1d830" y="544.68"/>
      </g>
     </g>
     <g id="text_3">
      <!-- Dec -->
      <g transform="translate(282.864759 559.278437)scale(0.1 -0.1)">
       <defs>
        <path d="M 1259 4147 
L 1259 519 
L 2022 519 
Q 2988 519 3436 956 
Q 3884 1394 3884 2338 
Q 3884 3275 3436 3711 
Q 2988 4147 2022 4147 
L 1259 4147 
z
M 628 4666 
L 1925 4666 
Q 3281 4666 3915 4102 
Q 4550 3538 4550 2338 
Q 4550 1131 3912 565 
Q 3275 0 1925 0 
L 628 0 
L 628 4666 
z
" id="DejaVuSans-44" transform="scale(0.015625)"/>
        <path d="M 3597 1894 
L 3597 1613 
L 953 1613 
Q 991 1019 1311 708 
Q 1631 397 2203 397 
Q 2534 397 2845 478 
Q 3156 559 3463 722 
L 3463 178 
Q 3153 47 2828 -22 
Q 2503 -91 2169 -91 
Q 1331 -91 842 396 
Q 353 884 353 1716 
Q 353 2575 817 3079 
Q 1281 3584 2069 3584 
Q 2775 3584 3186 3129 
Q 3597 2675 3597 1894 
z
M 3022 2063 
Q 3016 2534 2758 2815 
Q 2500 3097 2075 3097 
Q 1594 3097 1305 2825 
Q 1016 2553 972 2059 
L 3022 2063 
z
" id="DejaVuSans-65" transform="scale(0.015625)"/>
       </defs>
       <use xlink:href="#DejaVuSans-44"/>
       <use x="77.001953" xlink:href="#DejaVuSans-65"/>
       <use x="138.525391" xlink:href="#DejaVuSans-63"/>
      </g>
     </g>
    </g>
    <g id="xtick_5">
     <g id="line2d_9">
      <path clip-path="url(#p68e2955192)" d="M 378.251351 544.68 
L 378.251351 73.44 
" style="fill:none;stroke:#b0b0b0;stroke-linecap:square;stroke-width:0.8;"/>
     </g>
     <g id="line2d_10">
      <g>
       <use style="stroke:#000000;stroke-width:0.8;" x="378.251351" xlink:href="#m4abed1d830" y="544.68"/>
      </g>
     </g>
     <g id="text_4">
      <!-- Jan -->
      <g transform="translate(370.543539 559.278437)scale(0.1 -0.1)">
       <defs>
        <path d="M 628 4666 
L 1259 4666 
L 1259 325 
Q 1259 -519 939 -900 
Q 619 -1281 -91 -1281 
L -331 -1281 
L -331 -750 
L -134 -750 
Q 284 -750 456 -515 
Q 628 -281 628 325 
L 628 4666 
z
" id="DejaVuSans-4a" transform="scale(0.015625)"/>
        <path d="M 2194 1759 
Q 1497 1759 1228 1600 
Q 959 1441 959 1056 
Q 959 750 1161 570 
Q 1363 391 1709 391 
Q 2188 391 2477 730 
Q 2766 1069 2766 1631 
L 2766 1759 
L 2194 1759 
z
M 3341 1997 
L 3341 0 
L 2766 0 
L 2766 531 
Q 2569 213 2275 61 
Q 1981 -91 1556 -91 
Q 1019 -91 701 211 
Q 384 513 384 1019 
Q 384 1609 779 1909 
Q 1175 2209 1959 2209 
L 2766 2209 
L 2766 2266 
Q 2766 2663 2505 2880 
Q 2244 3097 1772 3097 
Q 1472 3097 1187 3025 
Q 903 2953 641 2809 
L 641 3341 
Q 956 3463 1253 3523 
Q 1550 3584 1831 3584 
Q 2591 3584 2966 3190 
Q 3341 2797 3341 1997 
z
" id="DejaVuSans-61" transform="scale(0.015625)"/>
        <path d="M 3513 2113 
L 3513 0 
L 2938 0 
L 2938 2094 
Q 2938 2591 2744 2837 
Q 2550 3084 2163 3084 
Q 1697 3084 1428 2787 
Q 1159 2491 1159 1978 
L 1159 0 
L 581 0 
L 581 3500 
L 1159 3500 
L 1159 2956 
Q 1366 3272 1645 3428 
Q 1925 3584 2291 3584 
Q 2894 3584 3203 3211 
Q 3513 2838 3513 2113 
z
" id="DejaVuSans-6e" transform="scale(0.015625)"/>
       </defs>
       <use xlink:href="#DejaVuSans-4a"/>
       <use x="29.492188" xlink:href="#DejaVuSans-61"/>
       <use x="90.771484" xlink:href="#DejaVuSans-6e"/>
      </g>
      <!-- 2022 -->
      <g transform="translate(365.526351 570.47625)scale(0.1 -0.1)">
       <defs>
        <path d="M 1228 531 
L 3431 531 
L 3431 0 
L 469 0 
L 469 531 
Q 828 903 1448 1529 
Q 2069 2156 2228 2338 
Q 2531 2678 2651 2914 
Q 2772 3150 2772 3378 
Q 2772 3750 2511 3984 
Q 2250 4219 1831 4219 
Q 1534 4219 1204 4116 
Q 875 4013 500 3803 
L 500 4441 
Q 881 4594 1212 4672 
Q 1544 4750 1819 4750 
Q 2544 4750 2975 4387 
Q 3406 4025 3406 3419 
Q 3406 3131 3298 2873 
Q 3191 2616 2906 2266 
Q 2828 2175 2409 1742 
Q 1991 1309 1228 531 
z
" id="DejaVuSans-32" transform="scale(0.015625)"/>
        <path d="M 2034 4250 
Q 1547 4250 1301 3770 
Q 1056 3291 1056 2328 
Q 1056 1369 1301 889 
Q 1547 409 2034 409 
Q 2525 409 2770 889 
Q 3016 1369 3016 2328 
Q 3016 3291 2770 3770 
Q 2525 4250 2034 4250 
z
M 2034 4750 
Q 2819 4750 3233 4129 
Q 3647 3509 3647 2328 
Q 3647 1150 3233 529 
Q 2819 -91 2034 -91 
Q 1250 -91 836 529 
Q 422 1150 422 2328 
Q 422 3509 836 4129 
Q 1250 4750 2034 4750 
z
" id="DejaVuSans-30" transform="scale(0.015625)"/>
       </defs>
       <use xlink:href="#DejaVuSans-32"/>
       <use x="63.623047" xlink:href="#DejaVuSans-30"/>
       <use x="127.246094" xlink:href="#DejaVuSans-32"/>
       <use x="190.869141" xlink:href="#DejaVuSans-32"/>
      </g>
     </g>
    </g>
    <g id="xtick_6">
     <g id="line2d_11">
      <path clip-path="url(#p68e2955192)" d="M 463.962162 544.68 
L 463.962162 73.44 
" style="fill:none;stroke:#b0b0b0;stroke-linecap:square;stroke-width:0.8;"/>
     </g>
     <g id="line2d_12">
      <g>
       <use style="stroke:#000000;stroke-width:0.8;" x="463.962162" xlink:href="#m4abed1d830" y="544.68"/>
      </g>
     </g>
     <g id="text_5">
      <!-- Feb -->
      <g transform="translate(455.1106 559.278437)scale(0.1 -0.1)">
       <defs>
        <path d="M 628 4666 
L 3309 4666 
L 3309 4134 
L 1259 4134 
L 1259 2759 
L 3109 2759 
L 3109 2228 
L 1259 2228 
L 1259 0 
L 628 0 
L 628 4666 
z
" id="DejaVuSans-46" transform="scale(0.015625)"/>
        <path d="M 3116 1747 
Q 3116 2381 2855 2742 
Q 2594 3103 2138 3103 
Q 1681 3103 1420 2742 
Q 1159 2381 1159 1747 
Q 1159 1113 1420 752 
Q 1681 391 2138 391 
Q 2594 391 2855 752 
Q 3116 1113 3116 1747 
z
M 1159 2969 
Q 1341 3281 1617 3432 
Q 1894 3584 2278 3584 
Q 2916 3584 3314 3078 
Q 3713 2572 3713 1747 
Q 3713 922 3314 415 
Q 2916 -91 2278 -91 
Q 1894 -91 1617 61 
Q 1341 213 1159 525 
L 1159 0 
L 581 0 
L 581 4863 
L 1159 4863 
L 1159 2969 
z
" id="DejaVuSans-62" transform="scale(0.015625)"/>
       </defs>
       <use xlink:href="#DejaVuSans-46"/>
       <use x="52.019531" xlink:href="#DejaVuSans-65"/>
       <use x="113.542969" xlink:href="#DejaVuSans-62"/>
      </g>
     </g>
    </g>
    <g id="xtick_7">
     <g id="line2d_13">
      <path clip-path="url(#p68e2955192)" d="M 541.378378 544.68 
L 541.378378 73.44 
" style="fill:none;stroke:#b0b0b0;stroke-linecap:square;stroke-width:0.8;"/>
     </g>
     <g id="line2d_14">
      <g>
       <use style="stroke:#000000;stroke-width:0.8;" x="541.378378" xlink:href="#m4abed1d830" y="544.68"/>
      </g>
     </g>
     <g id="text_6">
      <!-- Mar -->
      <g transform="translate(531.944785 559.278437)scale(0.1 -0.1)">
       <defs>
        <path d="M 628 4666 
L 1569 4666 
L 2759 1491 
L 3956 4666 
L 4897 4666 
L 4897 0 
L 4281 0 
L 4281 4097 
L 3078 897 
L 2444 897 
L 1241 4097 
L 1241 0 
L 628 0 
L 628 4666 
z
" id="DejaVuSans-4d" transform="scale(0.015625)"/>
        <path d="M 2631 2963 
Q 2534 3019 2420 3045 
Q 2306 3072 2169 3072 
Q 1681 3072 1420 2755 
Q 1159 2438 1159 1844 
L 1159 0 
L 581 0 
L 581 3500 
L 1159 3500 
L 1159 2956 
Q 1341 3275 1631 3429 
Q 1922 3584 2338 3584 
Q 2397 3584 2469 3576 
Q 2541 3569 2628 3553 
L 2631 2963 
z
" id="DejaVuSans-72" transform="scale(0.015625)"/>
       </defs>
       <use xlink:href="#DejaVuSans-4d"/>
       <use x="86.279297" xlink:href="#DejaVuSans-61"/>
       <use x="147.558594" xlink:href="#DejaVuSans-72"/>
      </g>
     </g>
    </g>
    <g id="xtick_8">
     <g id="line2d_15">
      <path clip-path="url(#p68e2955192)" d="M 627.089189 544.68 
L 627.089189 73.44 
" style="fill:none;stroke:#b0b0b0;stroke-linecap:square;stroke-width:0.8;"/>
     </g>
     <g id="line2d_16">
      <g>
       <use style="stroke:#000000;stroke-width:0.8;" x="627.089189" xlink:href="#m4abed1d830" y="544.68"/>
      </g>
     </g>
     <g id="text_7">
      <!-- Apr -->
      <g transform="translate(618.439189 559.278437)scale(0.1 -0.1)">
       <defs>
        <path d="M 2188 4044 
L 1331 1722 
L 3047 1722 
L 2188 4044 
z
M 1831 4666 
L 2547 4666 
L 4325 0 
L 3669 0 
L 3244 1197 
L 1141 1197 
L 716 0 
L 50 0 
L 1831 4666 
z
" id="DejaVuSans-41" transform="scale(0.015625)"/>
        <path d="M 1159 525 
L 1159 -1331 
L 581 -1331 
L 581 3500 
L 1159 3500 
L 1159 2969 
Q 1341 3281 1617 3432 
Q 1894 3584 2278 3584 
Q 2916 3584 3314 3078 
Q 3713 2572 3713 1747 
Q 3713 922 3314 415 
Q 2916 -91 2278 -91 
Q 1894 -91 1617 61 
Q 1341 213 1159 525 
z
M 3116 1747 
Q 3116 2381 2855 2742 
Q 2594 3103 2138 3103 
Q 1681 3103 1420 2742 
Q 1159 2381 1159 1747 
Q 1159 1113 1420 752 
Q 1681 391 2138 391 
Q 2594 391 2855 752 
Q 3116 1113 3116 1747 
z
" id="DejaVuSans-70" transform="scale(0.015625)"/>
       </defs>
       <use xlink:href="#DejaVuSans-41"/>
       <use x="68.408203" xlink:href="#DejaVuSans-70"/>
       <use x="131.884766" xlink:href="#DejaVuSans-72"/>
      </g>
     </g>
    </g>
    <g id="xtick_9">
     <g id="line2d_17">
      <path clip-path="url(#p68e2955192)" d="M 710.035135 544.68 
L 710.035135 73.44 
" style="fill:none;stroke:#b0b0b0;stroke-linecap:square;stroke-width:0.8;"/>
     </g>
     <g id="line2d_18">
      <g>
       <use style="stroke:#000000;stroke-width:0.8;" x="710.035135" xlink:href="#m4abed1d830" y="544.68"/>
      </g>
     </g>
     <g id="text_8">
      <!-- May -->
      <g transform="translate(699.697635 559.278437)scale(0.1 -0.1)">
       <defs>
        <path d="M 2059 -325 
Q 1816 -950 1584 -1140 
Q 1353 -1331 966 -1331 
L 506 -1331 
L 506 -850 
L 844 -850 
Q 1081 -850 1212 -737 
Q 1344 -625 1503 -206 
L 1606 56 
L 191 3500 
L 800 3500 
L 1894 763 
L 2988 3500 
L 3597 3500 
L 2059 -325 
z
" id="DejaVuSans-79" transform="scale(0.015625)"/>
       </defs>
       <use xlink:href="#DejaVuSans-4d"/>
       <use x="86.279297" xlink:href="#DejaVuSans-61"/>
       <use x="147.558594" xlink:href="#DejaVuSans-79"/>
      </g>
     </g>
    </g>
    <g id="xtick_10">
     <g id="line2d_19">
      <path clip-path="url(#p68e2955192)" d="M 712.8 544.68 
L 712.8 73.44 
" style="fill:none;stroke:#b0b0b0;stroke-linecap:square;stroke-width:0.8;"/>
     </g>
     <g id="line2d_20">
      <g>
       <use style="stroke:#000000;stroke-width:0.8;" x="712.8" xlink:href="#m4abed1d830" y="544.68"/>
      </g>
     </g>
    </g>
    <g id="xtick_11">
     <g id="line2d_21">
      <defs>
       <path d="M 0 0 
L 0 2 
" id="mbe9820739d" style="stroke:#000000;stroke-width:0.6;"/>
      </defs>
      <g>
       <use style="stroke:#000000;stroke-width:0.6;" x="112.824324" xlink:href="#mbe9820739d" y="544.68"/>
      </g>
     </g>
    </g>
    <g id="xtick_12">
     <g id="line2d_22">
      <g>
       <use style="stroke:#000000;stroke-width:0.6;" x="132.178378" xlink:href="#mbe9820739d" y="544.68"/>
      </g>
     </g>
    </g>
    <g id="xtick_13">
     <g id="line2d_23">
      <g>
       <use style="stroke:#000000;stroke-width:0.6;" x="151.532432" xlink:href="#mbe9820739d" y="544.68"/>
      </g>
     </g>
    </g>
    <g id="xtick_14">
     <g id="line2d_24">
      <g>
       <use style="stroke:#000000;stroke-width:0.6;" x="170.886486" xlink:href="#mbe9820739d" y="544.68"/>
      </g>
     </g>
    </g>
    <g id="xtick_15">
     <g id="line2d_25">
      <g>
       <use style="stroke:#000000;stroke-width:0.6;" x="190.240541" xlink:href="#mbe9820739d" y="544.68"/>
      </g>
     </g>
    </g>
    <g id="xtick_16">
     <g id="line2d_26">
      <g>
       <use style="stroke:#000000;stroke-width:0.6;" x="228.948649" xlink:href="#mbe9820739d" y="544.68"/>
      </g>
     </g>
    </g>
    <g id="xtick_17">
     <g id="line2d_27">
      <g>
       <use style="stroke:#000000;stroke-width:0.6;" x="248.302703" xlink:href="#mbe9820739d" y="544.68"/>
      </g>
     </g>
    </g>
    <g id="xtick_18">
     <g id="line2d_28">
      <g>
       <use style="stroke:#000000;stroke-width:0.6;" x="267.656757" xlink:href="#mbe9820739d" y="544.68"/>
      </g>
     </g>
    </g>
    <g id="xtick_19">
     <g id="line2d_29">
      <g>
       <use style="stroke:#000000;stroke-width:0.6;" x="287.010811" xlink:href="#mbe9820739d" y="544.68"/>
      </g>
     </g>
    </g>
    <g id="xtick_20">
     <g id="line2d_30">
      <g>
       <use style="stroke:#000000;stroke-width:0.6;" x="306.364865" xlink:href="#mbe9820739d" y="544.68"/>
      </g>
     </g>
    </g>
    <g id="xtick_21">
     <g id="line2d_31">
      <g>
       <use style="stroke:#000000;stroke-width:0.6;" x="325.718919" xlink:href="#mbe9820739d" y="544.68"/>
      </g>
     </g>
    </g>
    <g id="xtick_22">
     <g id="line2d_32">
      <g>
       <use style="stroke:#000000;stroke-width:0.6;" x="345.072973" xlink:href="#mbe9820739d" y="544.68"/>
      </g>
     </g>
    </g>
    <g id="xtick_23">
     <g id="line2d_33">
      <g>
       <use style="stroke:#000000;stroke-width:0.6;" x="364.427027" xlink:href="#mbe9820739d" y="544.68"/>
      </g>
     </g>
    </g>
    <g id="xtick_24">
     <g id="line2d_34">
      <g>
       <use style="stroke:#000000;stroke-width:0.6;" x="383.781081" xlink:href="#mbe9820739d" y="544.68"/>
      </g>
     </g>
    </g>
    <g id="xtick_25">
     <g id="line2d_35">
      <g>
       <use style="stroke:#000000;stroke-width:0.6;" x="403.135135" xlink:href="#mbe9820739d" y="544.68"/>
      </g>
     </g>
    </g>
    <g id="xtick_26">
     <g id="line2d_36">
      <g>
       <use style="stroke:#000000;stroke-width:0.6;" x="422.489189" xlink:href="#mbe9820739d" y="544.68"/>
      </g>
     </g>
    </g>
    <g id="xtick_27">
     <g id="line2d_37">
      <g>
       <use style="stroke:#000000;stroke-width:0.6;" x="441.843243" xlink:href="#mbe9820739d" y="544.68"/>
      </g>
     </g>
    </g>
    <g id="xtick_28">
     <g id="line2d_38">
      <g>
       <use style="stroke:#000000;stroke-width:0.6;" x="461.197297" xlink:href="#mbe9820739d" y="544.68"/>
      </g>
     </g>
    </g>
    <g id="xtick_29">
     <g id="line2d_39">
      <g>
       <use style="stroke:#000000;stroke-width:0.6;" x="480.551351" xlink:href="#mbe9820739d" y="544.68"/>
      </g>
     </g>
    </g>
    <g id="xtick_30">
     <g id="line2d_40">
      <g>
       <use style="stroke:#000000;stroke-width:0.6;" x="499.905405" xlink:href="#mbe9820739d" y="544.68"/>
      </g>
     </g>
    </g>
    <g id="xtick_31">
     <g id="line2d_41">
      <g>
       <use style="stroke:#000000;stroke-width:0.6;" x="519.259459" xlink:href="#mbe9820739d" y="544.68"/>
      </g>
     </g>
    </g>
    <g id="xtick_32">
     <g id="line2d_42">
      <g>
       <use style="stroke:#000000;stroke-width:0.6;" x="538.613514" xlink:href="#mbe9820739d" y="544.68"/>
      </g>
     </g>
    </g>
    <g id="xtick_33">
     <g id="line2d_43">
      <g>
       <use style="stroke:#000000;stroke-width:0.6;" x="557.967568" xlink:href="#mbe9820739d" y="544.68"/>
      </g>
     </g>
    </g>
    <g id="xtick_34">
     <g id="line2d_44">
      <g>
       <use style="stroke:#000000;stroke-width:0.6;" x="577.321622" xlink:href="#mbe9820739d" y="544.68"/>
      </g>
     </g>
    </g>
    <g id="xtick_35">
     <g id="line2d_45">
      <g>
       <use style="stroke:#000000;stroke-width:0.6;" x="596.675676" xlink:href="#mbe9820739d" y="544.68"/>
      </g>
     </g>
    </g>
    <g id="xtick_36">
     <g id="line2d_46">
      <g>
       <use style="stroke:#000000;stroke-width:0.6;" x="616.02973" xlink:href="#mbe9820739d" y="544.68"/>
      </g>
     </g>
    </g>
    <g id="xtick_37">
     <g id="line2d_47">
      <g>
       <use style="stroke:#000000;stroke-width:0.6;" x="635.383784" xlink:href="#mbe9820739d" y="544.68"/>
      </g>
     </g>
    </g>
    <g id="xtick_38">
     <g id="line2d_48">
      <g>
       <use style="stroke:#000000;stroke-width:0.6;" x="654.737838" xlink:href="#mbe9820739d" y="544.68"/>
      </g>
     </g>
    </g>
    <g id="xtick_39">
     <g id="line2d_49">
      <g>
       <use style="stroke:#000000;stroke-width:0.6;" x="674.091892" xlink:href="#mbe9820739d" y="544.68"/>
      </g>
     </g>
    </g>
    <g id="xtick_40">
     <g id="line2d_50">
      <g>
       <use style="stroke:#000000;stroke-width:0.6;" x="693.445946" xlink:href="#mbe9820739d" y="544.68"/>
      </g>
     </g>
    </g>
    <g id="text_9">
     <!-- Date -->
     <g transform="translate(393.949219 584.154375)scale(0.1 -0.1)">
      <use xlink:href="#DejaVuSans-44"/>
      <use x="77.001953" xlink:href="#DejaVuSans-61"/>
      <use x="138.28125" xlink:href="#DejaVuSans-74"/>
      <use x="177.490234" xlink:href="#DejaVuSans-65"/>
     </g>
    </g>
   </g>
   <g id="matplotlib.axis_2">
    <g id="ytick_1">
     <g id="line2d_51">
      <path clip-path="url(#p68e2955192)" d="M 99 482.926723 
L 712.8 482.926723 
" style="fill:none;stroke:#b0b0b0;stroke-linecap:square;stroke-width:0.8;"/>
     </g>
     <g id="line2d_52">
      <defs>
       <path d="M 0 0 
L -3.5 0 
" id="me91a084207" style="stroke:#000000;stroke-width:0.8;"/>
      </defs>
      <g>
       <use style="stroke:#000000;stroke-width:0.8;" x="99" xlink:href="#me91a084207" y="482.926723"/>
      </g>
     </g>
     <g id="text_10">
      <!-- $\mathdefault{10^{0}}$ -->
      <g transform="translate(74.4 486.725942)scale(0.1 -0.1)">
       <defs>
        <path d="M 794 531 
L 1825 531 
L 1825 4091 
L 703 3866 
L 703 4441 
L 1819 4666 
L 2450 4666 
L 2450 531 
L 3481 531 
L 3481 0 
L 794 0 
L 794 531 
z
" id="DejaVuSans-31" transform="scale(0.015625)"/>
       </defs>
       <use transform="translate(0 0.765625)" xlink:href="#DejaVuSans-31"/>
       <use transform="translate(63.623047 0.765625)" xlink:href="#DejaVuSans-30"/>
       <use transform="translate(128.203125 39.046875)scale(0.7)" xlink:href="#DejaVuSans-30"/>
      </g>
     </g>
    </g>
    <g id="ytick_2">
     <g id="line2d_53">
      <path clip-path="url(#p68e2955192)" d="M 99 348.942477 
L 712.8 348.942477 
" style="fill:none;stroke:#b0b0b0;stroke-linecap:square;stroke-width:0.8;"/>
     </g>
     <g id="line2d_54">
      <g>
       <use style="stroke:#000000;stroke-width:0.8;" x="99" xlink:href="#me91a084207" y="348.942477"/>
      </g>
     </g>
     <g id="text_11">
      <!-- $\mathdefault{10^{1}}$ -->
      <g transform="translate(74.4 352.741696)scale(0.1 -0.1)">
       <use transform="translate(0 0.684375)" xlink:href="#DejaVuSans-31"/>
       <use transform="translate(63.623047 0.684375)" xlink:href="#DejaVuSans-30"/>
       <use transform="translate(128.203125 38.965625)scale(0.7)" xlink:href="#DejaVuSans-31"/>
      </g>
     </g>
    </g>
    <g id="ytick_3">
     <g id="line2d_55">
      <path clip-path="url(#p68e2955192)" d="M 99 214.958232 
L 712.8 214.958232 
" style="fill:none;stroke:#b0b0b0;stroke-linecap:square;stroke-width:0.8;"/>
     </g>
     <g id="line2d_56">
      <g>
       <use style="stroke:#000000;stroke-width:0.8;" x="99" xlink:href="#me91a084207" y="214.958232"/>
      </g>
     </g>
     <g id="text_12">
      <!-- $\mathdefault{10^{2}}$ -->
      <g transform="translate(74.4 218.75745)scale(0.1 -0.1)">
       <use transform="translate(0 0.765625)" xlink:href="#DejaVuSans-31"/>
       <use transform="translate(63.623047 0.765625)" xlink:href="#DejaVuSans-30"/>
       <use transform="translate(128.203125 39.046875)scale(0.7)" xlink:href="#DejaVuSans-32"/>
      </g>
     </g>
    </g>
    <g id="ytick_4">
     <g id="line2d_57">
      <path clip-path="url(#p68e2955192)" d="M 99 80.973986 
L 712.8 80.973986 
" style="fill:none;stroke:#b0b0b0;stroke-linecap:square;stroke-width:0.8;"/>
     </g>
     <g id="line2d_58">
      <g>
       <use style="stroke:#000000;stroke-width:0.8;" x="99" xlink:href="#me91a084207" y="80.973986"/>
      </g>
     </g>
     <g id="text_13">
      <!-- $\mathdefault{10^{3}}$ -->
      <g transform="translate(74.4 84.773205)scale(0.1 -0.1)">
       <defs>
        <path d="M 2597 2516 
Q 3050 2419 3304 2112 
Q 3559 1806 3559 1356 
Q 3559 666 3084 287 
Q 2609 -91 1734 -91 
Q 1441 -91 1130 -33 
Q 819 25 488 141 
L 488 750 
Q 750 597 1062 519 
Q 1375 441 1716 441 
Q 2309 441 2620 675 
Q 2931 909 2931 1356 
Q 2931 1769 2642 2001 
Q 2353 2234 1838 2234 
L 1294 2234 
L 1294 2753 
L 1863 2753 
Q 2328 2753 2575 2939 
Q 2822 3125 2822 3475 
Q 2822 3834 2567 4026 
Q 2313 4219 1838 4219 
Q 1578 4219 1281 4162 
Q 984 4106 628 3988 
L 628 4550 
Q 988 4650 1302 4700 
Q 1616 4750 1894 4750 
Q 2613 4750 3031 4423 
Q 3450 4097 3450 3541 
Q 3450 3153 3228 2886 
Q 3006 2619 2597 2516 
z
" id="DejaVuSans-33" transform="scale(0.015625)"/>
       </defs>
       <use transform="translate(0 0.765625)" xlink:href="#DejaVuSans-31"/>
       <use transform="translate(63.623047 0.765625)" xlink:href="#DejaVuSans-30"/>
       <use transform="translate(128.203125 39.046875)scale(0.7)" xlink:href="#DejaVuSans-33"/>
      </g>
     </g>
    </g>
    <g id="ytick_5">
     <g id="line2d_59">
      <path clip-path="url(#p68e2955192)" d="M 99 536.244415 
L 712.8 536.244415 
" style="fill:none;stroke:#b0b0b0;stroke-linecap:square;stroke-width:0.8;"/>
     </g>
     <g id="line2d_60">
      <defs>
       <path d="M 0 0 
L -2 0 
" id="m0cb60b688e" style="stroke:#000000;stroke-width:0.6;"/>
      </defs>
      <g>
       <use style="stroke:#000000;stroke-width:0.6;" x="99" xlink:href="#m0cb60b688e" y="536.244415"/>
      </g>
     </g>
    </g>
    <g id="ytick_6">
     <g id="line2d_61">
      <path clip-path="url(#p68e2955192)" d="M 99 523.26 
L 712.8 523.26 
" style="fill:none;stroke:#b0b0b0;stroke-linecap:square;stroke-width:0.8;"/>
     </g>
     <g id="line2d_62">
      <g>
       <use style="stroke:#000000;stroke-width:0.6;" x="99" xlink:href="#m0cb60b688e" y="523.26"/>
      </g>
     </g>
    </g>
    <g id="ytick_7">
     <g id="line2d_63">
      <path clip-path="url(#p68e2955192)" d="M 99 512.65096 
L 712.8 512.65096 
" style="fill:none;stroke:#b0b0b0;stroke-linecap:square;stroke-width:0.8;"/>
     </g>
     <g id="line2d_64">
      <g>
       <use style="stroke:#000000;stroke-width:0.6;" x="99" xlink:href="#m0cb60b688e" y="512.65096"/>
      </g>
     </g>
    </g>
    <g id="ytick_8">
     <g id="line2d_65">
      <path clip-path="url(#p68e2955192)" d="M 99 503.681145 
L 712.8 503.681145 
" style="fill:none;stroke:#b0b0b0;stroke-linecap:square;stroke-width:0.8;"/>
     </g>
     <g id="line2d_66">
      <g>
       <use style="stroke:#000000;stroke-width:0.6;" x="99" xlink:href="#m0cb60b688e" y="503.681145"/>
      </g>
     </g>
    </g>
    <g id="ytick_9">
     <g id="line2d_67">
      <path clip-path="url(#p68e2955192)" d="M 99 495.911138 
L 712.8 495.911138 
" style="fill:none;stroke:#b0b0b0;stroke-linecap:square;stroke-width:0.8;"/>
     </g>
     <g id="line2d_68">
      <g>
       <use style="stroke:#000000;stroke-width:0.6;" x="99" xlink:href="#m0cb60b688e" y="495.911138"/>
      </g>
     </g>
    </g>
    <g id="ytick_10">
     <g id="line2d_69">
      <path clip-path="url(#p68e2955192)" d="M 99 489.057506 
L 712.8 489.057506 
" style="fill:none;stroke:#b0b0b0;stroke-linecap:square;stroke-width:0.8;"/>
     </g>
     <g id="line2d_70">
      <g>
       <use style="stroke:#000000;stroke-width:0.6;" x="99" xlink:href="#m0cb60b688e" y="489.057506"/>
      </g>
     </g>
    </g>
    <g id="ytick_11">
     <g id="line2d_71">
      <path clip-path="url(#p68e2955192)" d="M 99 442.593446 
L 712.8 442.593446 
" style="fill:none;stroke:#b0b0b0;stroke-linecap:square;stroke-width:0.8;"/>
     </g>
     <g id="line2d_72">
      <g>
       <use style="stroke:#000000;stroke-width:0.6;" x="99" xlink:href="#m0cb60b688e" y="442.593446"/>
      </g>
     </g>
    </g>
    <g id="ytick_12">
     <g id="line2d_73">
      <path clip-path="url(#p68e2955192)" d="M 99 418.999992 
L 712.8 418.999992 
" style="fill:none;stroke:#b0b0b0;stroke-linecap:square;stroke-width:0.8;"/>
     </g>
     <g id="line2d_74">
      <g>
       <use style="stroke:#000000;stroke-width:0.6;" x="99" xlink:href="#m0cb60b688e" y="418.999992"/>
      </g>
     </g>
    </g>
    <g id="ytick_13">
     <g id="line2d_75">
      <path clip-path="url(#p68e2955192)" d="M 99 402.260169 
L 712.8 402.260169 
" style="fill:none;stroke:#b0b0b0;stroke-linecap:square;stroke-width:0.8;"/>
     </g>
     <g id="line2d_76">
      <g>
       <use style="stroke:#000000;stroke-width:0.6;" x="99" xlink:href="#m0cb60b688e" y="402.260169"/>
      </g>
     </g>
    </g>
    <g id="ytick_14">
     <g id="line2d_77">
      <path clip-path="url(#p68e2955192)" d="M 99 389.275754 
L 712.8 389.275754 
" style="fill:none;stroke:#b0b0b0;stroke-linecap:square;stroke-width:0.8;"/>
     </g>
     <g id="line2d_78">
      <g>
       <use style="stroke:#000000;stroke-width:0.6;" x="99" xlink:href="#m0cb60b688e" y="389.275754"/>
      </g>
     </g>
    </g>
    <g id="ytick_15">
     <g id="line2d_79">
      <path clip-path="url(#p68e2955192)" d="M 99 378.666715 
L 712.8 378.666715 
" style="fill:none;stroke:#b0b0b0;stroke-linecap:square;stroke-width:0.8;"/>
     </g>
     <g id="line2d_80">
      <g>
       <use style="stroke:#000000;stroke-width:0.6;" x="99" xlink:href="#m0cb60b688e" y="378.666715"/>
      </g>
     </g>
    </g>
    <g id="ytick_16">
     <g id="line2d_81">
      <path clip-path="url(#p68e2955192)" d="M 99 369.6969 
L 712.8 369.6969 
" style="fill:none;stroke:#b0b0b0;stroke-linecap:square;stroke-width:0.8;"/>
     </g>
     <g id="line2d_82">
      <g>
       <use style="stroke:#000000;stroke-width:0.6;" x="99" xlink:href="#m0cb60b688e" y="369.6969"/>
      </g>
     </g>
    </g>
    <g id="ytick_17">
     <g id="line2d_83">
      <path clip-path="url(#p68e2955192)" d="M 99 361.926892 
L 712.8 361.926892 
" style="fill:none;stroke:#b0b0b0;stroke-linecap:square;stroke-width:0.8;"/>
     </g>
     <g id="line2d_84">
      <g>
       <use style="stroke:#000000;stroke-width:0.6;" x="99" xlink:href="#m0cb60b688e" y="361.926892"/>
      </g>
     </g>
    </g>
    <g id="ytick_18">
     <g id="line2d_85">
      <path clip-path="url(#p68e2955192)" d="M 99 355.07326 
L 712.8 355.07326 
" style="fill:none;stroke:#b0b0b0;stroke-linecap:square;stroke-width:0.8;"/>
     </g>
     <g id="line2d_86">
      <g>
       <use style="stroke:#000000;stroke-width:0.6;" x="99" xlink:href="#m0cb60b688e" y="355.07326"/>
      </g>
     </g>
    </g>
    <g id="ytick_19">
     <g id="line2d_87">
      <path clip-path="url(#p68e2955192)" d="M 99 308.609201 
L 712.8 308.609201 
" style="fill:none;stroke:#b0b0b0;stroke-linecap:square;stroke-width:0.8;"/>
     </g>
     <g id="line2d_88">
      <g>
       <use style="stroke:#000000;stroke-width:0.6;" x="99" xlink:href="#m0cb60b688e" y="308.609201"/>
      </g>
     </g>
    </g>
    <g id="ytick_20">
     <g id="line2d_89">
      <path clip-path="url(#p68e2955192)" d="M 99 285.015746 
L 712.8 285.015746 
" style="fill:none;stroke:#b0b0b0;stroke-linecap:square;stroke-width:0.8;"/>
     </g>
     <g id="line2d_90">
      <g>
       <use style="stroke:#000000;stroke-width:0.6;" x="99" xlink:href="#m0cb60b688e" y="285.015746"/>
      </g>
     </g>
    </g>
    <g id="ytick_21">
     <g id="line2d_91">
      <path clip-path="url(#p68e2955192)" d="M 99 268.275924 
L 712.8 268.275924 
" style="fill:none;stroke:#b0b0b0;stroke-linecap:square;stroke-width:0.8;"/>
     </g>
     <g id="line2d_92">
      <g>
       <use style="stroke:#000000;stroke-width:0.6;" x="99" xlink:href="#m0cb60b688e" y="268.275924"/>
      </g>
     </g>
    </g>
    <g id="ytick_22">
     <g id="line2d_93">
      <path clip-path="url(#p68e2955192)" d="M 99 255.291509 
L 712.8 255.291509 
" style="fill:none;stroke:#b0b0b0;stroke-linecap:square;stroke-width:0.8;"/>
     </g>
     <g id="line2d_94">
      <g>
       <use style="stroke:#000000;stroke-width:0.6;" x="99" xlink:href="#m0cb60b688e" y="255.291509"/>
      </g>
     </g>
    </g>
    <g id="ytick_23">
     <g id="line2d_95">
      <path clip-path="url(#p68e2955192)" d="M 99 244.682469 
L 712.8 244.682469 
" style="fill:none;stroke:#b0b0b0;stroke-linecap:square;stroke-width:0.8;"/>
     </g>
     <g id="line2d_96">
      <g>
       <use style="stroke:#000000;stroke-width:0.6;" x="99" xlink:href="#m0cb60b688e" y="244.682469"/>
      </g>
     </g>
    </g>
    <g id="ytick_24">
     <g id="line2d_97">
      <path clip-path="url(#p68e2955192)" d="M 99 235.712654 
L 712.8 235.712654 
" style="fill:none;stroke:#b0b0b0;stroke-linecap:square;stroke-width:0.8;"/>
     </g>
     <g id="line2d_98">
      <g>
       <use style="stroke:#000000;stroke-width:0.6;" x="99" xlink:href="#m0cb60b688e" y="235.712654"/>
      </g>
     </g>
    </g>
    <g id="ytick_25">
     <g id="line2d_99">
      <path clip-path="url(#p68e2955192)" d="M 99 227.942647 
L 712.8 227.942647 
" style="fill:none;stroke:#b0b0b0;stroke-linecap:square;stroke-width:0.8;"/>
     </g>
     <g id="line2d_100">
      <g>
       <use style="stroke:#000000;stroke-width:0.6;" x="99" xlink:href="#m0cb60b688e" y="227.942647"/>
      </g>
     </g>
    </g>
    <g id="ytick_26">
     <g id="line2d_101">
      <path clip-path="url(#p68e2955192)" d="M 99 221.089015 
L 712.8 221.089015 
" style="fill:none;stroke:#b0b0b0;stroke-linecap:square;stroke-width:0.8;"/>
     </g>
     <g id="line2d_102">
      <g>
       <use style="stroke:#000000;stroke-width:0.6;" x="99" xlink:href="#m0cb60b688e" y="221.089015"/>
      </g>
     </g>
    </g>
    <g id="ytick_27">
     <g id="line2d_103">
      <path clip-path="url(#p68e2955192)" d="M 99 174.624955 
L 712.8 174.624955 
" style="fill:none;stroke:#b0b0b0;stroke-linecap:square;stroke-width:0.8;"/>
     </g>
     <g id="line2d_104">
      <g>
       <use style="stroke:#000000;stroke-width:0.6;" x="99" xlink:href="#m0cb60b688e" y="174.624955"/>
      </g>
     </g>
    </g>
    <g id="ytick_28">
     <g id="line2d_105">
      <path clip-path="url(#p68e2955192)" d="M 99 151.0315 
L 712.8 151.0315 
" style="fill:none;stroke:#b0b0b0;stroke-linecap:square;stroke-width:0.8;"/>
     </g>
     <g id="line2d_106">
      <g>
       <use style="stroke:#000000;stroke-width:0.6;" x="99" xlink:href="#m0cb60b688e" y="151.0315"/>
      </g>
     </g>
    </g>
    <g id="ytick_29">
     <g id="line2d_107">
      <path clip-path="url(#p68e2955192)" d="M 99 134.291678 
L 712.8 134.291678 
" style="fill:none;stroke:#b0b0b0;stroke-linecap:square;stroke-width:0.8;"/>
     </g>
     <g id="line2d_108">
      <g>
       <use style="stroke:#000000;stroke-width:0.6;" x="99" xlink:href="#m0cb60b688e" y="134.291678"/>
      </g>
     </g>
    </g>
    <g id="ytick_30">
     <g id="line2d_109">
      <path clip-path="url(#p68e2955192)" d="M 99 121.307263 
L 712.8 121.307263 
" style="fill:none;stroke:#b0b0b0;stroke-linecap:square;stroke-width:0.8;"/>
     </g>
     <g id="line2d_110">
      <g>
       <use style="stroke:#000000;stroke-width:0.6;" x="99" xlink:href="#m0cb60b688e" y="121.307263"/>
      </g>
     </g>
    </g>
    <g id="ytick_31">
     <g id="line2d_111">
      <path clip-path="url(#p68e2955192)" d="M 99 110.698223 
L 712.8 110.698223 
" style="fill:none;stroke:#b0b0b0;stroke-linecap:square;stroke-width:0.8;"/>
     </g>
     <g id="line2d_112">
      <g>
       <use style="stroke:#000000;stroke-width:0.6;" x="99" xlink:href="#m0cb60b688e" y="110.698223"/>
      </g>
     </g>
    </g>
    <g id="ytick_32">
     <g id="line2d_113">
      <path clip-path="url(#p68e2955192)" d="M 99 101.728408 
L 712.8 101.728408 
" style="fill:none;stroke:#b0b0b0;stroke-linecap:square;stroke-width:0.8;"/>
     </g>
     <g id="line2d_114">
      <g>
       <use style="stroke:#000000;stroke-width:0.6;" x="99" xlink:href="#m0cb60b688e" y="101.728408"/>
      </g>
     </g>
    </g>
    <g id="ytick_33">
     <g id="line2d_115">
      <path clip-path="url(#p68e2955192)" d="M 99 93.958401 
L 712.8 93.958401 
" style="fill:none;stroke:#b0b0b0;stroke-linecap:square;stroke-width:0.8;"/>
     </g>
     <g id="line2d_116">
      <g>
       <use style="stroke:#000000;stroke-width:0.6;" x="99" xlink:href="#m0cb60b688e" y="93.958401"/>
      </g>
     </g>
    </g>
    <g id="ytick_34">
     <g id="line2d_117">
      <path clip-path="url(#p68e2955192)" d="M 99 87.104769 
L 712.8 87.104769 
" style="fill:none;stroke:#b0b0b0;stroke-linecap:square;stroke-width:0.8;"/>
     </g>
     <g id="line2d_118">
      <g>
       <use style="stroke:#000000;stroke-width:0.6;" x="99" xlink:href="#m0cb60b688e" y="87.104769"/>
      </g>
     </g>
    </g>
   </g>
   <g id="line2d_119">
    <path clip-path="url(#p68e2955192)" d="M 549.671121 613 
L 549.672973 523.26 
L 552.437838 389.275754 
L 555.202703 346.103445 
L 557.967568 333.675863 
L 560.732432 333.675863 
L 563.497297 329.363623 
L 569.027027 329.363623 
L 571.791892 319.803055 
L 574.556757 319.803055 
L 577.321622 286.98843 
L 582.851351 286.98843 
L 585.616216 263.394976 
L 593.910811 263.394976 
L 596.675676 261.422291 
L 599.440541 253.571523 
L 602.205405 244.199573 
L 604.97027 217.333607 
L 610.5 217.333607 
L 613.264865 199.245726 
L 616.02973 212.119199 
L 621.559459 212.119199 
L 624.324324 276.045931 
L 624.331267 613 
L 624.331267 613 
" style="fill:none;stroke:#1f77b4;stroke-linecap:square;stroke-width:1.5;"/>
   </g>
   <g id="line2d_120">
    <path clip-path="url(#p68e2955192)" d="M 0 0 
" style="fill:none;stroke:#ff7f0e;stroke-linecap:square;stroke-width:1.5;"/>
   </g>
   <g id="patch_3">
    <path d="M 99 544.68 
L 99 73.44 
" style="fill:none;stroke:#000000;stroke-linecap:square;stroke-linejoin:miter;stroke-width:0.8;"/>
   </g>
   <g id="patch_4">
    <path d="M 712.8 544.68 
L 712.8 73.44 
" style="fill:none;stroke:#000000;stroke-linecap:square;stroke-linejoin:miter;stroke-width:0.8;"/>
   </g>
   <g id="patch_5">
    <path d="M 99 544.68 
L 712.8 544.68 
" style="fill:none;stroke:#000000;stroke-linecap:square;stroke-linejoin:miter;stroke-width:0.8;"/>
   </g>
   <g id="patch_6">
    <path d="M 99 73.44 
L 712.8 73.44 
" style="fill:none;stroke:#000000;stroke-linecap:square;stroke-linejoin:miter;stroke-width:0.8;"/>
   </g>
   <g id="legend_1">
    <g id="patch_7">
     <path d="M 616.653125 110.79625 
L 705.8 110.79625 
Q 707.8 110.79625 707.8 108.79625 
L 707.8 80.44 
Q 707.8 78.44 705.8 78.44 
L 616.653125 78.44 
Q 614.653125 78.44 614.653125 80.44 
L 614.653125 108.79625 
Q 614.653125 110.79625 616.653125 110.79625 
z
" style="fill:#ffffff;opacity:0.8;stroke:#cccccc;stroke-linejoin:miter;"/>
    </g>
    <g id="line2d_121">
     <path d="M 618.653125 86.538437 
L 638.653125 86.538437 
" style="fill:none;stroke:#1f77b4;stroke-linecap:square;stroke-width:1.5;"/>
    </g>
    <g id="line2d_122"/>
    <g id="text_14">
     <!-- Avg Cases -->
     <g transform="translate(646.653125 90.038437)scale(0.1 -0.1)">
      <defs>
       <path d="M 2906 1791 
Q 2906 2416 2648 2759 
Q 2391 3103 1925 3103 
Q 1463 3103 1205 2759 
Q 947 2416 947 1791 
Q 947 1169 1205 825 
Q 1463 481 1925 481 
Q 2391 481 2648 825 
Q 2906 1169 2906 1791 
z
M 3481 434 
Q 3481 -459 3084 -895 
Q 2688 -1331 1869 -1331 
Q 1566 -1331 1297 -1286 
Q 1028 -1241 775 -1147 
L 775 -588 
Q 1028 -725 1275 -790 
Q 1522 -856 1778 -856 
Q 2344 -856 2625 -561 
Q 2906 -266 2906 331 
L 2906 616 
Q 2728 306 2450 153 
Q 2172 0 1784 0 
Q 1141 0 747 490 
Q 353 981 353 1791 
Q 353 2603 747 3093 
Q 1141 3584 1784 3584 
Q 2172 3584 2450 3431 
Q 2728 3278 2906 2969 
L 2906 3500 
L 3481 3500 
L 3481 434 
z
" id="DejaVuSans-67" transform="scale(0.015625)"/>
       <path id="DejaVuSans-20" transform="scale(0.015625)"/>
       <path d="M 4122 4306 
L 4122 3641 
Q 3803 3938 3442 4084 
Q 3081 4231 2675 4231 
Q 1875 4231 1450 3742 
Q 1025 3253 1025 2328 
Q 1025 1406 1450 917 
Q 1875 428 2675 428 
Q 3081 428 3442 575 
Q 3803 722 4122 1019 
L 4122 359 
Q 3791 134 3420 21 
Q 3050 -91 2638 -91 
Q 1578 -91 968 557 
Q 359 1206 359 2328 
Q 359 3453 968 4101 
Q 1578 4750 2638 4750 
Q 3056 4750 3426 4639 
Q 3797 4528 4122 4306 
z
" id="DejaVuSans-43" transform="scale(0.015625)"/>
       <path d="M 2834 3397 
L 2834 2853 
Q 2591 2978 2328 3040 
Q 2066 3103 1784 3103 
Q 1356 3103 1142 2972 
Q 928 2841 928 2578 
Q 928 2378 1081 2264 
Q 1234 2150 1697 2047 
L 1894 2003 
Q 2506 1872 2764 1633 
Q 3022 1394 3022 966 
Q 3022 478 2636 193 
Q 2250 -91 1575 -91 
Q 1294 -91 989 -36 
Q 684 19 347 128 
L 347 722 
Q 666 556 975 473 
Q 1284 391 1588 391 
Q 1994 391 2212 530 
Q 2431 669 2431 922 
Q 2431 1156 2273 1281 
Q 2116 1406 1581 1522 
L 1381 1569 
Q 847 1681 609 1914 
Q 372 2147 372 2553 
Q 372 3047 722 3315 
Q 1072 3584 1716 3584 
Q 2034 3584 2315 3537 
Q 2597 3491 2834 3397 
z
" id="DejaVuSans-73" transform="scale(0.015625)"/>
      </defs>
      <use xlink:href="#DejaVuSans-41"/>
      <use x="62.533203" xlink:href="#DejaVuSans-76"/>
      <use x="121.712891" xlink:href="#DejaVuSans-67"/>
      <use x="185.189453" xlink:href="#DejaVuSans-20"/>
      <use x="216.976562" xlink:href="#DejaVuSans-43"/>
      <use x="286.800781" xlink:href="#DejaVuSans-61"/>
      <use x="348.080078" xlink:href="#DejaVuSans-73"/>
      <use x="400.179688" xlink:href="#DejaVuSans-65"/>
      <use x="461.703125" xlink:href="#DejaVuSans-73"/>
     </g>
    </g>
    <g id="line2d_123">
     <path d="M 618.653125 101.216562 
L 638.653125 101.216562 
" style="fill:none;stroke:#ff7f0e;stroke-linecap:square;stroke-width:1.5;"/>
    </g>
    <g id="line2d_124"/>
    <g id="text_15">
     <!-- Avg Deaths -->
     <g transform="translate(646.653125 104.716562)scale(0.1 -0.1)">
      <defs>
       <path d="M 3513 2113 
L 3513 0 
L 2938 0 
L 2938 2094 
Q 2938 2591 2744 2837 
Q 2550 3084 2163 3084 
Q 1697 3084 1428 2787 
Q 1159 2491 1159 1978 
L 1159 0 
L 581 0 
L 581 4863 
L 1159 4863 
L 1159 2956 
Q 1366 3272 1645 3428 
Q 1925 3584 2291 3584 
Q 2894 3584 3203 3211 
Q 3513 2838 3513 2113 
z
" id="DejaVuSans-68" transform="scale(0.015625)"/>
      </defs>
      <use xlink:href="#DejaVuSans-41"/>
      <use x="62.533203" xlink:href="#DejaVuSans-76"/>
      <use x="121.712891" xlink:href="#DejaVuSans-67"/>
      <use x="185.189453" xlink:href="#DejaVuSans-20"/>
      <use x="216.976562" xlink:href="#DejaVuSans-44"/>
      <use x="293.978516" xlink:href="#DejaVuSans-65"/>
      <use x="355.501953" xlink:href="#DejaVuSans-61"/>
      <use x="416.78125" xlink:href="#DejaVuSans-74"/>
      <use x="455.990234" xlink:href="#DejaVuSans-68"/>
      <use x="519.369141" xlink:href="#DejaVuSans-73"/>
     </g>
    </g>
   </g>
  </g>
 </g>
 <defs>
  <clipPath id="p68e2955192">
   <rect height="471.24" width="613.8" x="99" y="73.44"/>
  </clipPath>
 </defs>
</svg>
