<?xml version="1.0" encoding="utf-8" standalone="no"?>
<!DOCTYPE svg PUBLIC "-//W3C//DTD SVG 1.1//EN"
  "http://www.w3.org/Graphics/SVG/1.1/DTD/svg11.dtd">
<svg height="612pt" version="1.1" viewBox="0 0 792 612" width="792pt" xmlns="http://www.w3.org/2000/svg" xmlns:xlink="http://www.w3.org/1999/xlink">
 <metadata>
  <rdf:RDF xmlns:cc="http://creativecommons.org/ns#" xmlns:dc="http://purl.org/dc/elements/1.1/" xmlns:rdf="http://www.w3.org/1999/02/22-rdf-syntax-ns#">
   <cc:Work>
    <dc:type rdf:resource="http://purl.org/dc/dcmitype/StillImage"/>
    <dc:format>image/svg+xml</dc:format>
    <dc:creator>
     <cc:Agent>
      <dc:title>Matplotlib v3.4.2, https://matplotlib.org/</dc:title>
     </cc:Agent>
    </dc:creator>
   </cc:Work>
  </rdf:RDF>
 </metadata>
 <defs>
  <style type="text/css">*{stroke-linecap:butt;stroke-linejoin:round;}</style>
 </defs>
 <g id="figure_1">
  <g id="patch_1">
   <path d="M 0 612 
L 792 612 
L 792 0 
L 0 0 
z
" style="fill:#ffffff;"/>
  </g>
  <g id="axes_1">
   <g id="patch_2">
    <path d="M 99 544.68 
L 712.8 544.68 
L 712.8 73.44 
L 99 73.44 
z
" style="fill:#ffffff;"/>
   </g>
   <g id="PolyCollection_1">
    <path clip-path="url(#p68e2955192)" d="M 99 213115.303869 
L 99 213115.303869 
L 102.568605 213115.303869 
L 106.137209 213115.303869 
L 109.705814 213115.303869 
L 113.274419 213115.303869 
L 116.843023 213115.303869 
L 120.411628 213115.303869 
L 123.980233 213115.303869 
L 127.548837 213115.303869 
L 131.117442 213115.303869 
L 134.686047 213115.303869 
L 138.254651 213115.303869 
L 141.823256 213115.303869 
L 145.39186 492.184988 
L 148.960465 213115.303869 
L 152.52907 213115.303869 
L 156.097674 213115.303869 
L 159.666279 213115.303869 
L 163.234884 213115.303869 
L 166.803488 213115.303869 
L 170.372093 213115.303869 
L 173.940698 213115.303869 
L 177.509302 213115.303869 
L 181.077907 213115.303869 
L 184.646512 213115.303869 
L 188.215116 213115.303869 
L 191.783721 213115.303869 
L 195.352326 213115.303869 
L 198.92093 213115.303869 
L 202.489535 213115.303869 
L 206.05814 213115.303869 
L 209.626744 213115.303869 
L 213.195349 213115.303869 
L 216.763953 213115.303869 
L 220.332558 213115.303869 
L 223.901163 213115.303869 
L 227.469767 213115.303869 
L 231.038372 213115.303869 
L 234.606977 213115.303869 
L 238.175581 213115.303869 
L 241.744186 213115.303869 
L 245.312791 213115.303869 
L 248.881395 213115.303869 
L 252.45 213115.303869 
L 256.018605 213115.303869 
L 259.587209 213115.303869 
L 263.155814 213115.303869 
L 266.724419 213115.303869 
L 270.293023 213115.303869 
L 273.861628 213115.303869 
L 277.430233 213115.303869 
L 280.998837 213115.303869 
L 284.567442 213115.303869 
L 288.136047 213115.303869 
L 291.704651 213115.303869 
L 295.273256 213115.303869 
L 298.84186 213115.303869 
L 302.410465 213115.303869 
L 305.97907 213115.303869 
L 309.547674 213115.303869 
L 313.116279 213115.303869 
L 316.684884 213115.303869 
L 320.253488 213115.303869 
L 323.822093 213115.303869 
L 327.390698 213115.303869 
L 330.959302 213115.303869 
L 334.527907 213115.303869 
L 338.096512 213115.303869 
L 341.665116 213115.303869 
L 345.233721 213115.303869 
L 348.802326 213115.303869 
L 352.37093 213115.303869 
L 355.939535 213115.303869 
L 359.50814 213115.303869 
L 363.076744 213115.303869 
L 366.645349 213115.303869 
L 370.213953 213115.303869 
L 373.782558 213115.303869 
L 377.351163 213115.303869 
L 380.919767 213115.303869 
L 384.488372 213115.303869 
L 388.056977 213115.303869 
L 391.625581 213115.303869 
L 395.194186 213115.303869 
L 398.762791 213115.303869 
L 402.331395 213115.303869 
L 405.9 213115.303869 
L 409.468605 213115.303869 
L 413.037209 213115.303869 
L 416.605814 213115.303869 
L 420.174419 213115.303869 
L 423.743023 213115.303869 
L 427.311628 213115.303869 
L 430.880233 213115.303869 
L 434.448837 213115.303869 
L 438.017442 213115.303869 
L 441.586047 213115.303869 
L 445.154651 213115.303869 
L 448.723256 213115.303869 
L 452.29186 213115.303869 
L 455.860465 213115.303869 
L 459.42907 213115.303869 
L 462.997674 213115.303869 
L 466.566279 213115.303869 
L 470.134884 213115.303869 
L 473.703488 213115.303869 
L 477.272093 213115.303869 
L 480.840698 213115.303869 
L 484.409302 213115.303869 
L 487.977907 213115.303869 
L 491.546512 213115.303869 
L 495.115116 213115.303869 
L 498.683721 213115.303869 
L 502.252326 213115.303869 
L 505.82093 213115.303869 
L 509.389535 213115.303869 
L 512.95814 213115.303869 
L 516.526744 213115.303869 
L 520.095349 213115.303869 
L 523.663953 213115.303869 
L 527.232558 213115.303869 
L 530.801163 213115.303869 
L 534.369767 213115.303869 
L 537.938372 213115.303869 
L 541.506977 213115.303869 
L 545.075581 213115.303869 
L 548.644186 213115.303869 
L 552.212791 213115.303869 
L 555.781395 213115.303869 
L 559.35 213115.303869 
L 562.918605 213115.303869 
L 566.487209 213115.303869 
L 570.055814 213115.303869 
L 573.624419 213115.303869 
L 577.193023 213115.303869 
L 580.761628 213115.303869 
L 584.330233 213115.303869 
L 587.898837 213115.303869 
L 591.467442 213115.303869 
L 595.036047 213115.303869 
L 598.604651 213115.303869 
L 602.173256 213115.303869 
L 605.74186 213115.303869 
L 609.310465 213115.303869 
L 612.87907 213115.303869 
L 616.447674 213115.303869 
L 620.016279 213115.303869 
L 623.584884 213115.303869 
L 627.153488 213115.303869 
L 630.722093 213115.303869 
L 634.290698 213115.303869 
L 637.859302 213115.303869 
L 641.427907 213115.303869 
L 644.996512 213115.303869 
L 648.565116 213115.303869 
L 652.133721 213115.303869 
L 655.702326 213115.303869 
L 659.27093 262.690556 
L 662.839535 262.690556 
L 666.40814 259.449685 
L 669.976744 236.949881 
L 673.545349 214.855739 
L 677.113953 193.334757 
L 680.682558 132.485683 
L 684.251163 132.485683 
L 687.819767 132.485683 
L 691.388372 105.84961 
L 694.956977 105.84961 
L 698.525581 96.481892 
L 702.094186 96.481892 
L 705.662791 96.481892 
L 709.231395 94.86 
L 712.8 94.86 
L 712.8 264.916094 
L 712.8 264.916094 
L 709.231395 264.916094 
L 705.662791 264.916094 
L 702.094186 264.916094 
L 698.525581 264.916094 
L 694.956977 468.974755 
L 691.388372 468.974755 
L 687.819767 213115.303869 
L 684.251163 213115.303869 
L 680.682558 213115.303869 
L 677.113953 213115.303869 
L 673.545349 213115.303869 
L 669.976744 213115.303869 
L 666.40814 213115.303869 
L 662.839535 213115.303869 
L 659.27093 213115.303869 
L 655.702326 213115.303869 
L 652.133721 213115.303869 
L 648.565116 213115.303869 
L 644.996512 213115.303869 
L 641.427907 213115.303869 
L 637.859302 213115.303869 
L 634.290698 213115.303869 
L 630.722093 213115.303869 
L 627.153488 213115.303869 
L 623.584884 213115.303869 
L 620.016279 213115.303869 
L 616.447674 213115.303869 
L 612.87907 213115.303869 
L 609.310465 213115.303869 
L 605.74186 213115.303869 
L 602.173256 213115.303869 
L 598.604651 213115.303869 
L 595.036047 213115.303869 
L 591.467442 213115.303869 
L 587.898837 213115.303869 
L 584.330233 213115.303869 
L 580.761628 213115.303869 
L 577.193023 213115.303869 
L 573.624419 213115.303869 
L 570.055814 213115.303869 
L 566.487209 213115.303869 
L 562.918605 213115.303869 
L 559.35 213115.303869 
L 555.781395 213115.303869 
L 552.212791 213115.303869 
L 548.644186 213115.303869 
L 545.075581 213115.303869 
L 541.506977 213115.303869 
L 537.938372 213115.303869 
L 534.369767 213115.303869 
L 530.801163 213115.303869 
L 527.232558 213115.303869 
L 523.663953 213115.303869 
L 520.095349 213115.303869 
L 516.526744 213115.303869 
L 512.95814 213115.303869 
L 509.389535 213115.303869 
L 505.82093 213115.303869 
L 502.252326 213115.303869 
L 498.683721 213115.303869 
L 495.115116 213115.303869 
L 491.546512 213115.303869 
L 487.977907 213115.303869 
L 484.409302 213115.303869 
L 480.840698 213115.303869 
L 477.272093 213115.303869 
L 473.703488 213115.303869 
L 470.134884 213115.303869 
L 466.566279 213115.303869 
L 462.997674 213115.303869 
L 459.42907 213115.303869 
L 455.860465 213115.303869 
L 452.29186 213115.303869 
L 448.723256 213115.303869 
L 445.154651 213115.303869 
L 441.586047 213115.303869 
L 438.017442 213115.303869 
L 434.448837 213115.303869 
L 430.880233 213115.303869 
L 427.311628 213115.303869 
L 423.743023 213115.303869 
L 420.174419 213115.303869 
L 416.605814 213115.303869 
L 413.037209 213115.303869 
L 409.468605 213115.303869 
L 405.9 213115.303869 
L 402.331395 213115.303869 
L 398.762791 213115.303869 
L 395.194186 213115.303869 
L 391.625581 213115.303869 
L 388.056977 213115.303869 
L 384.488372 213115.303869 
L 380.919767 213115.303869 
L 377.351163 213115.303869 
L 373.782558 213115.303869 
L 370.213953 213115.303869 
L 366.645349 213115.303869 
L 363.076744 213115.303869 
L 359.50814 213115.303869 
L 355.939535 213115.303869 
L 352.37093 213115.303869 
L 348.802326 213115.303869 
L 345.233721 213115.303869 
L 341.665116 213115.303869 
L 338.096512 213115.303869 
L 334.527907 213115.303869 
L 330.959302 213115.303869 
L 327.390698 213115.303869 
L 323.822093 213115.303869 
L 320.253488 213115.303869 
L 316.684884 213115.303869 
L 313.116279 213115.303869 
L 309.547674 213115.303869 
L 305.97907 213115.303869 
L 302.410465 213115.303869 
L 298.84186 213115.303869 
L 295.273256 213115.303869 
L 291.704651 213115.303869 
L 288.136047 213115.303869 
L 284.567442 213115.303869 
L 280.998837 213115.303869 
L 277.430233 213115.303869 
L 273.861628 213115.303869 
L 270.293023 213115.303869 
L 266.724419 213115.303869 
L 263.155814 213115.303869 
L 259.587209 213115.303869 
L 256.018605 213115.303869 
L 252.45 213115.303869 
L 248.881395 213115.303869 
L 245.312791 213115.303869 
L 241.744186 213115.303869 
L 238.175581 213115.303869 
L 234.606977 213115.303869 
L 231.038372 213115.303869 
L 227.469767 213115.303869 
L 223.901163 213115.303869 
L 220.332558 213115.303869 
L 216.763953 213115.303869 
L 213.195349 213115.303869 
L 209.626744 213115.303869 
L 206.05814 213115.303869 
L 202.489535 213115.303869 
L 198.92093 213115.303869 
L 195.352326 213115.303869 
L 191.783721 213115.303869 
L 188.215116 213115.303869 
L 184.646512 213115.303869 
L 181.077907 213115.303869 
L 177.509302 213115.303869 
L 173.940698 213115.303869 
L 170.372093 213115.303869 
L 166.803488 213115.303869 
L 163.234884 213115.303869 
L 159.666279 213115.303869 
L 156.097674 213115.303869 
L 152.52907 213115.303869 
L 148.960465 213115.303869 
L 145.39186 213115.303869 
L 141.823256 213115.303869 
L 138.254651 213115.303869 
L 134.686047 213115.303869 
L 131.117442 213115.303869 
L 127.548837 213115.303869 
L 123.980233 213115.303869 
L 120.411628 213115.303869 
L 116.843023 213115.303869 
L 113.274419 213115.303869 
L 109.705814 213115.303869 
L 106.137209 213115.303869 
L 102.568605 213115.303869 
L 99 213115.303869 
z
" style="fill:#8080ff;fill-opacity:0.5;stroke:#8080ff;stroke-opacity:0.5;"/>
   </g>
   <g id="PolyCollection_2">
    <defs>
     <path d="M 99 212503.303869 
L 99 212503.303869 
L 102.568605 212503.303869 
L 106.137209 212503.303869 
L 109.705814 212503.303869 
L 113.274419 212503.303869 
L 116.843023 212503.303869 
L 120.411628 212503.303869 
L 123.980233 212503.303869 
L 127.548837 212503.303869 
L 131.117442 212503.303869 
L 134.686047 212503.303869 
L 138.254651 212503.303869 
L 141.823256 212503.303869 
L 145.39186 212503.303869 
L 148.960465 212503.303869 
L 152.52907 212503.303869 
L 156.097674 212503.303869 
L 159.666279 212503.303869 
L 163.234884 212503.303869 
L 166.803488 212503.303869 
L 170.372093 212503.303869 
L 173.940698 212503.303869 
L 177.509302 212503.303869 
L 181.077907 212503.303869 
L 184.646512 212503.303869 
L 188.215116 212503.303869 
L 191.783721 212503.303869 
L 195.352326 212503.303869 
L 198.92093 212503.303869 
L 202.489535 212503.303869 
L 206.05814 212503.303869 
L 209.626744 212503.303869 
L 213.195349 212503.303869 
L 216.763953 212503.303869 
L 220.332558 212503.303869 
L 223.901163 212503.303869 
L 227.469767 212503.303869 
L 231.038372 212503.303869 
L 234.606977 212503.303869 
L 238.175581 212503.303869 
L 241.744186 212503.303869 
L 245.312791 212503.303869 
L 248.881395 212503.303869 
L 252.45 212503.303869 
L 256.018605 212503.303869 
L 259.587209 212503.303869 
L 263.155814 212503.303869 
L 266.724419 212503.303869 
L 270.293023 212503.303869 
L 273.861628 212503.303869 
L 277.430233 212503.303869 
L 280.998837 212503.303869 
L 284.567442 212503.303869 
L 288.136047 212503.303869 
L 291.704651 212503.303869 
L 295.273256 212503.303869 
L 298.84186 212503.303869 
L 302.410465 212503.303869 
L 305.97907 212503.303869 
L 309.547674 212503.303869 
L 313.116279 212503.303869 
L 316.684884 212503.303869 
L 320.253488 212503.303869 
L 323.822093 212503.303869 
L 327.390698 212503.303869 
L 330.959302 212503.303869 
L 334.527907 212503.303869 
L 338.096512 212503.303869 
L 341.665116 212503.303869 
L 345.233721 212503.303869 
L 348.802326 212503.303869 
L 352.37093 212503.303869 
L 355.939535 212503.303869 
L 359.50814 212503.303869 
L 363.076744 212503.303869 
L 366.645349 212503.303869 
L 370.213953 212503.303869 
L 373.782558 212503.303869 
L 377.351163 212503.303869 
L 380.919767 212503.303869 
L 384.488372 212503.303869 
L 388.056977 212503.303869 
L 391.625581 212503.303869 
L 395.194186 212503.303869 
L 398.762791 212503.303869 
L 402.331395 212503.303869 
L 405.9 212503.303869 
L 409.468605 212503.303869 
L 413.037209 212503.303869 
L 416.605814 212503.303869 
L 420.174419 212503.303869 
L 423.743023 212503.303869 
L 427.311628 212503.303869 
L 430.880233 212503.303869 
L 434.448837 212503.303869 
L 438.017442 212503.303869 
L 441.586047 212503.303869 
L 445.154651 212503.303869 
L 448.723256 212503.303869 
L 452.29186 212503.303869 
L 455.860465 212503.303869 
L 459.42907 212503.303869 
L 462.997674 212503.303869 
L 466.566279 212503.303869 
L 470.134884 212503.303869 
L 473.703488 212503.303869 
L 477.272093 212503.303869 
L 480.840698 212503.303869 
L 484.409302 212503.303869 
L 487.977907 212503.303869 
L 491.546512 212503.303869 
L 495.115116 212503.303869 
L 498.683721 212503.303869 
L 502.252326 212503.303869 
L 505.82093 212503.303869 
L 509.389535 212503.303869 
L 512.95814 212503.303869 
L 516.526744 212503.303869 
L 520.095349 212503.303869 
L 523.663953 212503.303869 
L 527.232558 212503.303869 
L 530.801163 212503.303869 
L 534.369767 212503.303869 
L 537.938372 212503.303869 
L 541.506977 212503.303869 
L 545.075581 212503.303869 
L 548.644186 212503.303869 
L 552.212791 212503.303869 
L 555.781395 212503.303869 
L 559.35 212503.303869 
L 562.918605 212503.303869 
L 566.487209 212503.303869 
L 570.055814 212503.303869 
L 573.624419 212503.303869 
L 577.193023 212503.303869 
L 580.761628 212503.303869 
L 584.330233 212503.303869 
L 587.898837 212503.303869 
L 591.467442 212503.303869 
L 595.036047 212503.303869 
L 598.604651 212503.303869 
L 602.173256 212503.303869 
L 605.74186 212503.303869 
L 609.310465 212503.303869 
L 612.87907 212503.303869 
L 616.447674 212503.303869 
L 620.016279 212503.303869 
L 623.584884 212503.303869 
L 627.153488 212503.303869 
L 630.722093 212503.303869 
L 634.290698 212503.303869 
L 637.859302 212503.303869 
L 641.427907 212503.303869 
L 644.996512 212503.303869 
L 648.565116 212503.303869 
L 652.133721 212503.303869 
L 655.702326 212503.303869 
L 659.27093 212503.303869 
L 662.839535 212503.303869 
L 666.40814 212503.303869 
L 669.976744 212503.303869 
L 673.545349 212503.303869 
L 677.113953 212503.303869 
L 680.682558 212503.303869 
L 684.251163 212503.303869 
L 687.819767 212503.303869 
L 691.388372 212503.303869 
L 694.956977 212503.303869 
L 698.525581 212503.303869 
L 702.094186 212503.303869 
L 705.662791 212503.303869 
L 709.231395 212503.303869 
L 712.8 212503.303869 
L 712.8 212503.303869 
L 712.8 212503.303869 
L 709.231395 212503.303869 
L 705.662791 212503.303869 
L 702.094186 212503.303869 
L 698.525581 212503.303869 
L 694.956977 212503.303869 
L 691.388372 212503.303869 
L 687.819767 212503.303869 
L 684.251163 212503.303869 
L 680.682558 212503.303869 
L 677.113953 212503.303869 
L 673.545349 212503.303869 
L 669.976744 212503.303869 
L 666.40814 212503.303869 
L 662.839535 212503.303869 
L 659.27093 212503.303869 
L 655.702326 212503.303869 
L 652.133721 212503.303869 
L 648.565116 212503.303869 
L 644.996512 212503.303869 
L 641.427907 212503.303869 
L 637.859302 212503.303869 
L 634.290698 212503.303869 
L 630.722093 212503.303869 
L 627.153488 212503.303869 
L 623.584884 212503.303869 
L 620.016279 212503.303869 
L 616.447674 212503.303869 
L 612.87907 212503.303869 
L 609.310465 212503.303869 
L 605.74186 212503.303869 
L 602.173256 212503.303869 
L 598.604651 212503.303869 
L 595.036047 212503.303869 
L 591.467442 212503.303869 
L 587.898837 212503.303869 
L 584.330233 212503.303869 
L 580.761628 212503.303869 
L 577.193023 212503.303869 
L 573.624419 212503.303869 
L 570.055814 212503.303869 
L 566.487209 212503.303869 
L 562.918605 212503.303869 
L 559.35 212503.303869 
L 555.781395 212503.303869 
L 552.212791 212503.303869 
L 548.644186 212503.303869 
L 545.075581 212503.303869 
L 541.506977 212503.303869 
L 537.938372 212503.303869 
L 534.369767 212503.303869 
L 530.801163 212503.303869 
L 527.232558 212503.303869 
L 523.663953 212503.303869 
L 520.095349 212503.303869 
L 516.526744 212503.303869 
L 512.95814 212503.303869 
L 509.389535 212503.303869 
L 505.82093 212503.303869 
L 502.252326 212503.303869 
L 498.683721 212503.303869 
L 495.115116 212503.303869 
L 491.546512 212503.303869 
L 487.977907 212503.303869 
L 484.409302 212503.303869 
L 480.840698 212503.303869 
L 477.272093 212503.303869 
L 473.703488 212503.303869 
L 470.134884 212503.303869 
L 466.566279 212503.303869 
L 462.997674 212503.303869 
L 459.42907 212503.303869 
L 455.860465 212503.303869 
L 452.29186 212503.303869 
L 448.723256 212503.303869 
L 445.154651 212503.303869 
L 441.586047 212503.303869 
L 438.017442 212503.303869 
L 434.448837 212503.303869 
L 430.880233 212503.303869 
L 427.311628 212503.303869 
L 423.743023 212503.303869 
L 420.174419 212503.303869 
L 416.605814 212503.303869 
L 413.037209 212503.303869 
L 409.468605 212503.303869 
L 405.9 212503.303869 
L 402.331395 212503.303869 
L 398.762791 212503.303869 
L 395.194186 212503.303869 
L 391.625581 212503.303869 
L 388.056977 212503.303869 
L 384.488372 212503.303869 
L 380.919767 212503.303869 
L 377.351163 212503.303869 
L 373.782558 212503.303869 
L 370.213953 212503.303869 
L 366.645349 212503.303869 
L 363.076744 212503.303869 
L 359.50814 212503.303869 
L 355.939535 212503.303869 
L 352.37093 212503.303869 
L 348.802326 212503.303869 
L 345.233721 212503.303869 
L 341.665116 212503.303869 
L 338.096512 212503.303869 
L 334.527907 212503.303869 
L 330.959302 212503.303869 
L 327.390698 212503.303869 
L 323.822093 212503.303869 
L 320.253488 212503.303869 
L 316.684884 212503.303869 
L 313.116279 212503.303869 
L 309.547674 212503.303869 
L 305.97907 212503.303869 
L 302.410465 212503.303869 
L 298.84186 212503.303869 
L 295.273256 212503.303869 
L 291.704651 212503.303869 
L 288.136047 212503.303869 
L 284.567442 212503.303869 
L 280.998837 212503.303869 
L 277.430233 212503.303869 
L 273.861628 212503.303869 
L 270.293023 212503.303869 
L 266.724419 212503.303869 
L 263.155814 212503.303869 
L 259.587209 212503.303869 
L 256.018605 212503.303869 
L 252.45 212503.303869 
L 248.881395 212503.303869 
L 245.312791 212503.303869 
L 241.744186 212503.303869 
L 238.175581 212503.303869 
L 234.606977 212503.303869 
L 231.038372 212503.303869 
L 227.469767 212503.303869 
L 223.901163 212503.303869 
L 220.332558 212503.303869 
L 216.763953 212503.303869 
L 213.195349 212503.303869 
L 209.626744 212503.303869 
L 206.05814 212503.303869 
L 202.489535 212503.303869 
L 198.92093 212503.303869 
L 195.352326 212503.303869 
L 191.783721 212503.303869 
L 188.215116 212503.303869 
L 184.646512 212503.303869 
L 181.077907 212503.303869 
L 177.509302 212503.303869 
L 173.940698 212503.303869 
L 170.372093 212503.303869 
L 166.803488 212503.303869 
L 163.234884 212503.303869 
L 159.666279 212503.303869 
L 156.097674 212503.303869 
L 152.52907 212503.303869 
L 148.960465 212503.303869 
L 145.39186 212503.303869 
L 141.823256 212503.303869 
L 138.254651 212503.303869 
L 134.686047 212503.303869 
L 131.117442 212503.303869 
L 127.548837 212503.303869 
L 123.980233 212503.303869 
L 120.411628 212503.303869 
L 116.843023 212503.303869 
L 113.274419 212503.303869 
L 109.705814 212503.303869 
L 106.137209 212503.303869 
L 102.568605 212503.303869 
L 99 212503.303869 
z
" id="mdf823acbc9" style="stroke:#ff8080;stroke-opacity:0.5;"/>
    </defs>
    <g clip-path="url(#p68e2955192)">
     <use style="fill:#ff8080;fill-opacity:0.5;stroke:#ff8080;stroke-opacity:0.5;" x="0" xlink:href="#mdf823acbc9" y="612"/>
    </g>
   </g>
   <g id="matplotlib.axis_1">
    <g id="xtick_1">
     <g id="line2d_1">
      <path clip-path="url(#p68e2955192)" d="M 99 544.68 
L 99 73.44 
" style="fill:none;stroke:#b0b0b0;stroke-linecap:square;stroke-width:0.8;"/>
     </g>
     <g id="line2d_2">
      <defs>
       <path d="M 0 0 
L 0 3.5 
" id="m4abed1d830" style="stroke:#000000;stroke-width:0.8;"/>
      </defs>
      <g>
       <use style="stroke:#000000;stroke-width:0.8;" x="99" xlink:href="#m4abed1d830" y="544.68"/>
      </g>
     </g>
    </g>
    <g id="xtick_2">
     <g id="line2d_3">
      <path clip-path="url(#p68e2955192)" d="M 131.117442 544.68 
L 131.117442 73.44 
" style="fill:none;stroke:#b0b0b0;stroke-linecap:square;stroke-width:0.8;"/>
     </g>
     <g id="line2d_4">
      <g>
       <use style="stroke:#000000;stroke-width:0.8;" x="131.117442" xlink:href="#m4abed1d830" y="544.68"/>
      </g>
     </g>
     <g id="text_1">
      <!-- Oct -->
      <g transform="translate(122.472129 559.278437)scale(0.1 -0.1)">
       <defs>
        <path d="M 2522 4238 
Q 1834 4238 1429 3725 
Q 1025 3213 1025 2328 
Q 1025 1447 1429 934 
Q 1834 422 2522 422 
Q 3209 422 3611 934 
Q 4013 1447 4013 2328 
Q 4013 3213 3611 3725 
Q 3209 4238 2522 4238 
z
M 2522 4750 
Q 3503 4750 4090 4092 
Q 4678 3434 4678 2328 
Q 4678 1225 4090 567 
Q 3503 -91 2522 -91 
Q 1538 -91 948 565 
Q 359 1222 359 2328 
Q 359 3434 948 4092 
Q 1538 4750 2522 4750 
z
" id="DejaVuSans-4f" transform="scale(0.015625)"/>
        <path d="M 3122 3366 
L 3122 2828 
Q 2878 2963 2633 3030 
Q 2388 3097 2138 3097 
Q 1578 3097 1268 2742 
Q 959 2388 959 1747 
Q 959 1106 1268 751 
Q 1578 397 2138 397 
Q 2388 397 2633 464 
Q 2878 531 3122 666 
L 3122 134 
Q 2881 22 2623 -34 
Q 2366 -91 2075 -91 
Q 1284 -91 818 406 
Q 353 903 353 1747 
Q 353 2603 823 3093 
Q 1294 3584 2113 3584 
Q 2378 3584 2631 3529 
Q 2884 3475 3122 3366 
z
" id="DejaVuSans-63" transform="scale(0.015625)"/>
        <path d="M 1172 4494 
L 1172 3500 
L 2356 3500 
L 2356 3053 
L 1172 3053 
L 1172 1153 
Q 1172 725 1289 603 
Q 1406 481 1766 481 
L 2356 481 
L 2356 0 
L 1766 0 
Q 1100 0 847 248 
Q 594 497 594 1153 
L 594 3053 
L 172 3053 
L 172 3500 
L 594 3500 
L 594 4494 
L 1172 4494 
z
" id="DejaVuSans-74" transform="scale(0.015625)"/>
       </defs>
       <use xlink:href="#DejaVuSans-4f"/>
       <use x="78.710938" xlink:href="#DejaVuSans-63"/>
       <use x="133.691406" xlink:href="#DejaVuSans-74"/>
      </g>
     </g>
    </g>
    <g id="xtick_3">
     <g id="line2d_5">
      <path clip-path="url(#p68e2955192)" d="M 241.744186 544.68 
L 241.744186 73.44 
" style="fill:none;stroke:#b0b0b0;stroke-linecap:square;stroke-width:0.8;"/>
     </g>
     <g id="line2d_6">
      <g>
       <use style="stroke:#000000;stroke-width:0.8;" x="241.744186" xlink:href="#m4abed1d830" y="544.68"/>
      </g>
     </g>
     <g id="text_2">
      <!-- Nov -->
      <g transform="translate(231.984811 559.278437)scale(0.1 -0.1)">
       <defs>
        <path d="M 628 4666 
L 1478 4666 
L 3547 763 
L 3547 4666 
L 4159 4666 
L 4159 0 
L 3309 0 
L 1241 3903 
L 1241 0 
L 628 0 
L 628 4666 
z
" id="DejaVuSans-4e" transform="scale(0.015625)"/>
        <path d="M 1959 3097 
Q 1497 3097 1228 2736 
Q 959 2375 959 1747 
Q 959 1119 1226 758 
Q 1494 397 1959 397 
Q 2419 397 2687 759 
Q 2956 1122 2956 1747 
Q 2956 2369 2687 2733 
Q 2419 3097 1959 3097 
z
M 1959 3584 
Q 2709 3584 3137 3096 
Q 3566 2609 3566 1747 
Q 3566 888 3137 398 
Q 2709 -91 1959 -91 
Q 1206 -91 779 398 
Q 353 888 353 1747 
Q 353 2609 779 3096 
Q 1206 3584 1959 3584 
z
" id="DejaVuSans-6f" transform="scale(0.015625)"/>
        <path d="M 191 3500 
L 800 3500 
L 1894 563 
L 2988 3500 
L 3597 3500 
L 2284 0 
L 1503 0 
L 191 3500 
z
" id="DejaVuSans-76" transform="scale(0.015625)"/>
       </defs>
       <use xlink:href="#DejaVuSans-4e"/>
       <use x="74.804688" xlink:href="#DejaVuSans-6f"/>
       <use x="135.986328" xlink:href="#DejaVuSans-76"/>
      </g>
     </g>
    </g>
    <g id="xtick_4">
     <g id="line2d_7">
      <path clip-path="url(#p68e2955192)" d="M 348.802326 544.68 
L 348.802326 73.44 
" style="fill:none;stroke:#b0b0b0;stroke-linecap:square;stroke-width:0.8;"/>
     </g>
     <g id="line2d_8">
      <g>
       <use style="stroke:#000000;stroke-width:0.8;" x="348.802326" xlink:href="#m4abed1d830" y="544.68"/>
      </g>
     </g>
     <g id="text_3">
      <!-- Dec -->
      <g transform="translate(339.126544 559.278437)scale(0.1 -0.1)">
       <defs>
        <path d="M 1259 4147 
L 1259 519 
L 2022 519 
Q 2988 519 3436 956 
Q 3884 1394 3884 2338 
Q 3884 3275 3436 3711 
Q 2988 4147 2022 4147 
L 1259 4147 
z
M 628 4666 
L 1925 4666 
Q 3281 4666 3915 4102 
Q 4550 3538 4550 2338 
Q 4550 1131 3912 565 
Q 3275 0 1925 0 
L 628 0 
L 628 4666 
z
" id="DejaVuSans-44" transform="scale(0.015625)"/>
        <path d="M 3597 1894 
L 3597 1613 
L 953 1613 
Q 991 1019 1311 708 
Q 1631 397 2203 397 
Q 2534 397 2845 478 
Q 3156 559 3463 722 
L 3463 178 
Q 3153 47 2828 -22 
Q 2503 -91 2169 -91 
Q 1331 -91 842 396 
Q 353 884 353 1716 
Q 353 2575 817 3079 
Q 1281 3584 2069 3584 
Q 2775 3584 3186 3129 
Q 3597 2675 3597 1894 
z
M 3022 2063 
Q 3016 2534 2758 2815 
Q 2500 3097 2075 3097 
Q 1594 3097 1305 2825 
Q 1016 2553 972 2059 
L 3022 2063 
z
" id="DejaVuSans-65" transform="scale(0.015625)"/>
       </defs>
       <use xlink:href="#DejaVuSans-44"/>
       <use x="77.001953" xlink:href="#DejaVuSans-65"/>
       <use x="138.525391" xlink:href="#DejaVuSans-63"/>
      </g>
     </g>
    </g>
    <g id="xtick_5">
     <g id="line2d_9">
      <path clip-path="url(#p68e2955192)" d="M 459.42907 544.68 
L 459.42907 73.44 
" style="fill:none;stroke:#b0b0b0;stroke-linecap:square;stroke-width:0.8;"/>
     </g>
     <g id="line2d_10">
      <g>
       <use style="stroke:#000000;stroke-width:0.8;" x="459.42907" xlink:href="#m4abed1d830" y="544.68"/>
      </g>
     </g>
     <g id="text_4">
      <!-- Jan -->
      <g transform="translate(451.721257 559.278437)scale(0.1 -0.1)">
       <defs>
        <path d="M 628 4666 
L 1259 4666 
L 1259 325 
Q 1259 -519 939 -900 
Q 619 -1281 -91 -1281 
L -331 -1281 
L -331 -750 
L -134 -750 
Q 284 -750 456 -515 
Q 628 -281 628 325 
L 628 4666 
z
" id="DejaVuSans-4a" transform="scale(0.015625)"/>
        <path d="M 2194 1759 
Q 1497 1759 1228 1600 
Q 959 1441 959 1056 
Q 959 750 1161 570 
Q 1363 391 1709 391 
Q 2188 391 2477 730 
Q 2766 1069 2766 1631 
L 2766 1759 
L 2194 1759 
z
M 3341 1997 
L 3341 0 
L 2766 0 
L 2766 531 
Q 2569 213 2275 61 
Q 1981 -91 1556 -91 
Q 1019 -91 701 211 
Q 384 513 384 1019 
Q 384 1609 779 1909 
Q 1175 2209 1959 2209 
L 2766 2209 
L 2766 2266 
Q 2766 2663 2505 2880 
Q 2244 3097 1772 3097 
Q 1472 3097 1187 3025 
Q 903 2953 641 2809 
L 641 3341 
Q 956 3463 1253 3523 
Q 1550 3584 1831 3584 
Q 2591 3584 2966 3190 
Q 3341 2797 3341 1997 
z
" id="DejaVuSans-61" transform="scale(0.015625)"/>
        <path d="M 3513 2113 
L 3513 0 
L 2938 0 
L 2938 2094 
Q 2938 2591 2744 2837 
Q 2550 3084 2163 3084 
Q 1697 3084 1428 2787 
Q 1159 2491 1159 1978 
L 1159 0 
L 581 0 
L 581 3500 
L 1159 3500 
L 1159 2956 
Q 1366 3272 1645 3428 
Q 1925 3584 2291 3584 
Q 2894 3584 3203 3211 
Q 3513 2838 3513 2113 
z
" id="DejaVuSans-6e" transform="scale(0.015625)"/>
       </defs>
       <use xlink:href="#DejaVuSans-4a"/>
       <use x="29.492188" xlink:href="#DejaVuSans-61"/>
       <use x="90.771484" xlink:href="#DejaVuSans-6e"/>
      </g>
      <!-- 2022 -->
      <g transform="translate(446.70407 570.47625)scale(0.1 -0.1)">
       <defs>
        <path d="M 1228 531 
L 3431 531 
L 3431 0 
L 469 0 
L 469 531 
Q 828 903 1448 1529 
Q 2069 2156 2228 2338 
Q 2531 2678 2651 2914 
Q 2772 3150 2772 3378 
Q 2772 3750 2511 3984 
Q 2250 4219 1831 4219 
Q 1534 4219 1204 4116 
Q 875 4013 500 3803 
L 500 4441 
Q 881 4594 1212 4672 
Q 1544 4750 1819 4750 
Q 2544 4750 2975 4387 
Q 3406 4025 3406 3419 
Q 3406 3131 3298 2873 
Q 3191 2616 2906 2266 
Q 2828 2175 2409 1742 
Q 1991 1309 1228 531 
z
" id="DejaVuSans-32" transform="scale(0.015625)"/>
        <path d="M 2034 4250 
Q 1547 4250 1301 3770 
Q 1056 3291 1056 2328 
Q 1056 1369 1301 889 
Q 1547 409 2034 409 
Q 2525 409 2770 889 
Q 3016 1369 3016 2328 
Q 3016 3291 2770 3770 
Q 2525 4250 2034 4250 
z
M 2034 4750 
Q 2819 4750 3233 4129 
Q 3647 3509 3647 2328 
Q 3647 1150 3233 529 
Q 2819 -91 2034 -91 
Q 1250 -91 836 529 
Q 422 1150 422 2328 
Q 422 3509 836 4129 
Q 1250 4750 2034 4750 
z
" id="DejaVuSans-30" transform="scale(0.015625)"/>
       </defs>
       <use xlink:href="#DejaVuSans-32"/>
       <use x="63.623047" xlink:href="#DejaVuSans-30"/>
       <use x="127.246094" xlink:href="#DejaVuSans-32"/>
       <use x="190.869141" xlink:href="#DejaVuSans-32"/>
      </g>
     </g>
    </g>
    <g id="xtick_6">
     <g id="line2d_11">
      <path clip-path="url(#p68e2955192)" d="M 570.055814 544.68 
L 570.055814 73.44 
" style="fill:none;stroke:#b0b0b0;stroke-linecap:square;stroke-width:0.8;"/>
     </g>
     <g id="line2d_12">
      <g>
       <use style="stroke:#000000;stroke-width:0.8;" x="570.055814" xlink:href="#m4abed1d830" y="544.68"/>
      </g>
     </g>
     <g id="text_5">
      <!-- Feb -->
      <g transform="translate(561.204251 559.278437)scale(0.1 -0.1)">
       <defs>
        <path d="M 628 4666 
L 3309 4666 
L 3309 4134 
L 1259 4134 
L 1259 2759 
L 3109 2759 
L 3109 2228 
L 1259 2228 
L 1259 0 
L 628 0 
L 628 4666 
z
" id="DejaVuSans-46" transform="scale(0.015625)"/>
        <path d="M 3116 1747 
Q 3116 2381 2855 2742 
Q 2594 3103 2138 3103 
Q 1681 3103 1420 2742 
Q 1159 2381 1159 1747 
Q 1159 1113 1420 752 
Q 1681 391 2138 391 
Q 2594 391 2855 752 
Q 3116 1113 3116 1747 
z
M 1159 2969 
Q 1341 3281 1617 3432 
Q 1894 3584 2278 3584 
Q 2916 3584 3314 3078 
Q 3713 2572 3713 1747 
Q 3713 922 3314 415 
Q 2916 -91 2278 -91 
Q 1894 -91 1617 61 
Q 1341 213 1159 525 
L 1159 0 
L 581 0 
L 581 4863 
L 1159 4863 
L 1159 2969 
z
" id="DejaVuSans-62" transform="scale(0.015625)"/>
       </defs>
       <use xlink:href="#DejaVuSans-46"/>
       <use x="52.019531" xlink:href="#DejaVuSans-65"/>
       <use x="113.542969" xlink:href="#DejaVuSans-62"/>
      </g>
     </g>
    </g>
    <g id="xtick_7">
     <g id="line2d_13">
      <path clip-path="url(#p68e2955192)" d="M 669.976744 544.68 
L 669.976744 73.44 
" style="fill:none;stroke:#b0b0b0;stroke-linecap:square;stroke-width:0.8;"/>
     </g>
     <g id="line2d_14">
      <g>
       <use style="stroke:#000000;stroke-width:0.8;" x="669.976744" xlink:href="#m4abed1d830" y="544.68"/>
      </g>
     </g>
     <g id="text_6">
      <!-- Mar -->
      <g transform="translate(660.54315 559.278437)scale(0.1 -0.1)">
       <defs>
        <path d="M 628 4666 
L 1569 4666 
L 2759 1491 
L 3956 4666 
L 4897 4666 
L 4897 0 
L 4281 0 
L 4281 4097 
L 3078 897 
L 2444 897 
L 1241 4097 
L 1241 0 
L 628 0 
L 628 4666 
z
" id="DejaVuSans-4d" transform="scale(0.015625)"/>
        <path d="M 2631 2963 
Q 2534 3019 2420 3045 
Q 2306 3072 2169 3072 
Q 1681 3072 1420 2755 
Q 1159 2438 1159 1844 
L 1159 0 
L 581 0 
L 581 3500 
L 1159 3500 
L 1159 2956 
Q 1341 3275 1631 3429 
Q 1922 3584 2338 3584 
Q 2397 3584 2469 3576 
Q 2541 3569 2628 3553 
L 2631 2963 
z
" id="DejaVuSans-72" transform="scale(0.015625)"/>
       </defs>
       <use xlink:href="#DejaVuSans-4d"/>
       <use x="86.279297" xlink:href="#DejaVuSans-61"/>
       <use x="147.558594" xlink:href="#DejaVuSans-72"/>
      </g>
     </g>
    </g>
    <g id="xtick_8">
     <g id="line2d_15">
      <path clip-path="url(#p68e2955192)" d="M 712.8 544.68 
L 712.8 73.44 
" style="fill:none;stroke:#b0b0b0;stroke-linecap:square;stroke-width:0.8;"/>
     </g>
     <g id="line2d_16">
      <g>
       <use style="stroke:#000000;stroke-width:0.8;" x="712.8" xlink:href="#m4abed1d830" y="544.68"/>
      </g>
     </g>
    </g>
    <g id="xtick_9">
     <g id="line2d_17">
      <defs>
       <path d="M 0 0 
L 0 2 
" id="mbe9820739d" style="stroke:#000000;stroke-width:0.6;"/>
      </defs>
      <g>
       <use style="stroke:#000000;stroke-width:0.6;" x="116.843023" xlink:href="#mbe9820739d" y="544.68"/>
      </g>
     </g>
    </g>
    <g id="xtick_10">
     <g id="line2d_18">
      <g>
       <use style="stroke:#000000;stroke-width:0.6;" x="141.823256" xlink:href="#mbe9820739d" y="544.68"/>
      </g>
     </g>
    </g>
    <g id="xtick_11">
     <g id="line2d_19">
      <g>
       <use style="stroke:#000000;stroke-width:0.6;" x="166.803488" xlink:href="#mbe9820739d" y="544.68"/>
      </g>
     </g>
    </g>
    <g id="xtick_12">
     <g id="line2d_20">
      <g>
       <use style="stroke:#000000;stroke-width:0.6;" x="191.783721" xlink:href="#mbe9820739d" y="544.68"/>
      </g>
     </g>
    </g>
    <g id="xtick_13">
     <g id="line2d_21">
      <g>
       <use style="stroke:#000000;stroke-width:0.6;" x="216.763953" xlink:href="#mbe9820739d" y="544.68"/>
      </g>
     </g>
    </g>
    <g id="xtick_14">
     <g id="line2d_22">
      <g>
       <use style="stroke:#000000;stroke-width:0.6;" x="266.724419" xlink:href="#mbe9820739d" y="544.68"/>
      </g>
     </g>
    </g>
    <g id="xtick_15">
     <g id="line2d_23">
      <g>
       <use style="stroke:#000000;stroke-width:0.6;" x="291.704651" xlink:href="#mbe9820739d" y="544.68"/>
      </g>
     </g>
    </g>
    <g id="xtick_16">
     <g id="line2d_24">
      <g>
       <use style="stroke:#000000;stroke-width:0.6;" x="316.684884" xlink:href="#mbe9820739d" y="544.68"/>
      </g>
     </g>
    </g>
    <g id="xtick_17">
     <g id="line2d_25">
      <g>
       <use style="stroke:#000000;stroke-width:0.6;" x="341.665116" xlink:href="#mbe9820739d" y="544.68"/>
      </g>
     </g>
    </g>
    <g id="xtick_18">
     <g id="line2d_26">
      <g>
       <use style="stroke:#000000;stroke-width:0.6;" x="366.645349" xlink:href="#mbe9820739d" y="544.68"/>
      </g>
     </g>
    </g>
    <g id="xtick_19">
     <g id="line2d_27">
      <g>
       <use style="stroke:#000000;stroke-width:0.6;" x="391.625581" xlink:href="#mbe9820739d" y="544.68"/>
      </g>
     </g>
    </g>
    <g id="xtick_20">
     <g id="line2d_28">
      <g>
       <use style="stroke:#000000;stroke-width:0.6;" x="416.605814" xlink:href="#mbe9820739d" y="544.68"/>
      </g>
     </g>
    </g>
    <g id="xtick_21">
     <g id="line2d_29">
      <g>
       <use style="stroke:#000000;stroke-width:0.6;" x="441.586047" xlink:href="#mbe9820739d" y="544.68"/>
      </g>
     </g>
    </g>
    <g id="xtick_22">
     <g id="line2d_30">
      <g>
       <use style="stroke:#000000;stroke-width:0.6;" x="466.566279" xlink:href="#mbe9820739d" y="544.68"/>
      </g>
     </g>
    </g>
    <g id="xtick_23">
     <g id="line2d_31">
      <g>
       <use style="stroke:#000000;stroke-width:0.6;" x="491.546512" xlink:href="#mbe9820739d" y="544.68"/>
      </g>
     </g>
    </g>
    <g id="xtick_24">
     <g id="line2d_32">
      <g>
       <use style="stroke:#000000;stroke-width:0.6;" x="516.526744" xlink:href="#mbe9820739d" y="544.68"/>
      </g>
     </g>
    </g>
    <g id="xtick_25">
     <g id="line2d_33">
      <g>
       <use style="stroke:#000000;stroke-width:0.6;" x="541.506977" xlink:href="#mbe9820739d" y="544.68"/>
      </g>
     </g>
    </g>
    <g id="xtick_26">
     <g id="line2d_34">
      <g>
       <use style="stroke:#000000;stroke-width:0.6;" x="566.487209" xlink:href="#mbe9820739d" y="544.68"/>
      </g>
     </g>
    </g>
    <g id="xtick_27">
     <g id="line2d_35">
      <g>
       <use style="stroke:#000000;stroke-width:0.6;" x="591.467442" xlink:href="#mbe9820739d" y="544.68"/>
      </g>
     </g>
    </g>
    <g id="xtick_28">
     <g id="line2d_36">
      <g>
       <use style="stroke:#000000;stroke-width:0.6;" x="616.447674" xlink:href="#mbe9820739d" y="544.68"/>
      </g>
     </g>
    </g>
    <g id="xtick_29">
     <g id="line2d_37">
      <g>
       <use style="stroke:#000000;stroke-width:0.6;" x="641.427907" xlink:href="#mbe9820739d" y="544.68"/>
      </g>
     </g>
    </g>
    <g id="xtick_30">
     <g id="line2d_38">
      <g>
       <use style="stroke:#000000;stroke-width:0.6;" x="666.40814" xlink:href="#mbe9820739d" y="544.68"/>
      </g>
     </g>
    </g>
    <g id="xtick_31">
     <g id="line2d_39">
      <g>
       <use style="stroke:#000000;stroke-width:0.6;" x="691.388372" xlink:href="#mbe9820739d" y="544.68"/>
      </g>
     </g>
    </g>
    <g id="text_7">
     <!-- Date -->
     <g transform="translate(393.949219 584.154375)scale(0.1 -0.1)">
      <use xlink:href="#DejaVuSans-44"/>
      <use x="77.001953" xlink:href="#DejaVuSans-61"/>
      <use x="138.28125" xlink:href="#DejaVuSans-74"/>
      <use x="177.490234" xlink:href="#DejaVuSans-65"/>
     </g>
    </g>
   </g>
   <g id="matplotlib.axis_2">
    <g id="ytick_1">
     <g id="line2d_40">
      <path clip-path="url(#p68e2955192)" d="M 99 459.244147 
L 712.8 459.244147 
" style="fill:none;stroke:#b0b0b0;stroke-linecap:square;stroke-width:0.8;"/>
     </g>
     <g id="line2d_41">
      <defs>
       <path d="M 0 0 
L -3.5 0 
" id="me91a084207" style="stroke:#000000;stroke-width:0.8;"/>
      </defs>
      <g>
       <use style="stroke:#000000;stroke-width:0.8;" x="99" xlink:href="#me91a084207" y="459.244147"/>
      </g>
     </g>
     <g id="text_8">
      <!-- $\mathdefault{10^{0}}$ -->
      <g transform="translate(74.4 463.043366)scale(0.1 -0.1)">
       <defs>
        <path d="M 794 531 
L 1825 531 
L 1825 4091 
L 703 3866 
L 703 4441 
L 1819 4666 
L 2450 4666 
L 2450 531 
L 3481 531 
L 3481 0 
L 794 0 
L 794 531 
z
" id="DejaVuSans-31" transform="scale(0.015625)"/>
       </defs>
       <use transform="translate(0 0.765625)" xlink:href="#DejaVuSans-31"/>
       <use transform="translate(63.623047 0.765625)" xlink:href="#DejaVuSans-30"/>
       <use transform="translate(128.203125 39.046875)scale(0.7)" xlink:href="#DejaVuSans-30"/>
      </g>
     </g>
    </g>
    <g id="ytick_2">
     <g id="line2d_42">
      <path clip-path="url(#p68e2955192)" d="M 99 246.588088 
L 712.8 246.588088 
" style="fill:none;stroke:#b0b0b0;stroke-linecap:square;stroke-width:0.8;"/>
     </g>
     <g id="line2d_43">
      <g>
       <use style="stroke:#000000;stroke-width:0.8;" x="99" xlink:href="#me91a084207" y="246.588088"/>
      </g>
     </g>
     <g id="text_9">
      <!-- $\mathdefault{10^{1}}$ -->
      <g transform="translate(74.4 250.387306)scale(0.1 -0.1)">
       <use transform="translate(0 0.684375)" xlink:href="#DejaVuSans-31"/>
       <use transform="translate(63.623047 0.684375)" xlink:href="#DejaVuSans-30"/>
       <use transform="translate(128.203125 38.965625)scale(0.7)" xlink:href="#DejaVuSans-31"/>
      </g>
     </g>
    </g>
    <g id="ytick_3">
     <g id="line2d_44">
      <path clip-path="url(#p68e2955192)" d="M 99 543.868502 
L 712.8 543.868502 
" style="fill:none;stroke:#b0b0b0;stroke-linecap:square;stroke-width:0.8;"/>
     </g>
     <g id="line2d_45">
      <defs>
       <path d="M 0 0 
L -2 0 
" id="m0cb60b688e" style="stroke:#000000;stroke-width:0.6;"/>
      </defs>
      <g>
       <use style="stroke:#000000;stroke-width:0.6;" x="99" xlink:href="#m0cb60b688e" y="543.868502"/>
      </g>
     </g>
    </g>
    <g id="ytick_4">
     <g id="line2d_46">
      <path clip-path="url(#p68e2955192)" d="M 99 523.26 
L 712.8 523.26 
" style="fill:none;stroke:#b0b0b0;stroke-linecap:square;stroke-width:0.8;"/>
     </g>
     <g id="line2d_47">
      <g>
       <use style="stroke:#000000;stroke-width:0.6;" x="99" xlink:href="#m0cb60b688e" y="523.26"/>
      </g>
     </g>
    </g>
    <g id="ytick_5">
     <g id="line2d_48">
      <path clip-path="url(#p68e2955192)" d="M 99 506.421628 
L 712.8 506.421628 
" style="fill:none;stroke:#b0b0b0;stroke-linecap:square;stroke-width:0.8;"/>
     </g>
     <g id="line2d_49">
      <g>
       <use style="stroke:#000000;stroke-width:0.6;" x="99" xlink:href="#m0cb60b688e" y="506.421628"/>
      </g>
     </g>
    </g>
    <g id="ytick_6">
     <g id="line2d_50">
      <path clip-path="url(#p68e2955192)" d="M 99 492.184988 
L 712.8 492.184988 
" style="fill:none;stroke:#b0b0b0;stroke-linecap:square;stroke-width:0.8;"/>
     </g>
     <g id="line2d_51">
      <g>
       <use style="stroke:#000000;stroke-width:0.6;" x="99" xlink:href="#m0cb60b688e" y="492.184988"/>
      </g>
     </g>
    </g>
    <g id="ytick_7">
     <g id="line2d_52">
      <path clip-path="url(#p68e2955192)" d="M 99 479.852649 
L 712.8 479.852649 
" style="fill:none;stroke:#b0b0b0;stroke-linecap:square;stroke-width:0.8;"/>
     </g>
     <g id="line2d_53">
      <g>
       <use style="stroke:#000000;stroke-width:0.6;" x="99" xlink:href="#m0cb60b688e" y="479.852649"/>
      </g>
     </g>
    </g>
    <g id="ytick_8">
     <g id="line2d_54">
      <path clip-path="url(#p68e2955192)" d="M 99 468.974755 
L 712.8 468.974755 
" style="fill:none;stroke:#b0b0b0;stroke-linecap:square;stroke-width:0.8;"/>
     </g>
     <g id="line2d_55">
      <g>
       <use style="stroke:#000000;stroke-width:0.6;" x="99" xlink:href="#m0cb60b688e" y="468.974755"/>
      </g>
     </g>
    </g>
    <g id="ytick_9">
     <g id="line2d_56">
      <path clip-path="url(#p68e2955192)" d="M 99 395.228295 
L 712.8 395.228295 
" style="fill:none;stroke:#b0b0b0;stroke-linecap:square;stroke-width:0.8;"/>
     </g>
     <g id="line2d_57">
      <g>
       <use style="stroke:#000000;stroke-width:0.6;" x="99" xlink:href="#m0cb60b688e" y="395.228295"/>
      </g>
     </g>
    </g>
    <g id="ytick_10">
     <g id="line2d_58">
      <path clip-path="url(#p68e2955192)" d="M 99 357.781421 
L 712.8 357.781421 
" style="fill:none;stroke:#b0b0b0;stroke-linecap:square;stroke-width:0.8;"/>
     </g>
     <g id="line2d_59">
      <g>
       <use style="stroke:#000000;stroke-width:0.6;" x="99" xlink:href="#m0cb60b688e" y="357.781421"/>
      </g>
     </g>
    </g>
    <g id="ytick_11">
     <g id="line2d_60">
      <path clip-path="url(#p68e2955192)" d="M 99 331.212442 
L 712.8 331.212442 
" style="fill:none;stroke:#b0b0b0;stroke-linecap:square;stroke-width:0.8;"/>
     </g>
     <g id="line2d_61">
      <g>
       <use style="stroke:#000000;stroke-width:0.6;" x="99" xlink:href="#m0cb60b688e" y="331.212442"/>
      </g>
     </g>
    </g>
    <g id="ytick_12">
     <g id="line2d_62">
      <path clip-path="url(#p68e2955192)" d="M 99 310.60394 
L 712.8 310.60394 
" style="fill:none;stroke:#b0b0b0;stroke-linecap:square;stroke-width:0.8;"/>
     </g>
     <g id="line2d_63">
      <g>
       <use style="stroke:#000000;stroke-width:0.6;" x="99" xlink:href="#m0cb60b688e" y="310.60394"/>
      </g>
     </g>
    </g>
    <g id="ytick_13">
     <g id="line2d_64">
      <path clip-path="url(#p68e2955192)" d="M 99 293.765568 
L 712.8 293.765568 
" style="fill:none;stroke:#b0b0b0;stroke-linecap:square;stroke-width:0.8;"/>
     </g>
     <g id="line2d_65">
      <g>
       <use style="stroke:#000000;stroke-width:0.6;" x="99" xlink:href="#m0cb60b688e" y="293.765568"/>
      </g>
     </g>
    </g>
    <g id="ytick_14">
     <g id="line2d_66">
      <path clip-path="url(#p68e2955192)" d="M 99 279.528928 
L 712.8 279.528928 
" style="fill:none;stroke:#b0b0b0;stroke-linecap:square;stroke-width:0.8;"/>
     </g>
     <g id="line2d_67">
      <g>
       <use style="stroke:#000000;stroke-width:0.6;" x="99" xlink:href="#m0cb60b688e" y="279.528928"/>
      </g>
     </g>
    </g>
    <g id="ytick_15">
     <g id="line2d_68">
      <path clip-path="url(#p68e2955192)" d="M 99 267.196589 
L 712.8 267.196589 
" style="fill:none;stroke:#b0b0b0;stroke-linecap:square;stroke-width:0.8;"/>
     </g>
     <g id="line2d_69">
      <g>
       <use style="stroke:#000000;stroke-width:0.6;" x="99" xlink:href="#m0cb60b688e" y="267.196589"/>
      </g>
     </g>
    </g>
    <g id="ytick_16">
     <g id="line2d_70">
      <path clip-path="url(#p68e2955192)" d="M 99 256.318695 
L 712.8 256.318695 
" style="fill:none;stroke:#b0b0b0;stroke-linecap:square;stroke-width:0.8;"/>
     </g>
     <g id="line2d_71">
      <g>
       <use style="stroke:#000000;stroke-width:0.6;" x="99" xlink:href="#m0cb60b688e" y="256.318695"/>
      </g>
     </g>
    </g>
    <g id="ytick_17">
     <g id="line2d_72">
      <path clip-path="url(#p68e2955192)" d="M 99 182.572235 
L 712.8 182.572235 
" style="fill:none;stroke:#b0b0b0;stroke-linecap:square;stroke-width:0.8;"/>
     </g>
     <g id="line2d_73">
      <g>
       <use style="stroke:#000000;stroke-width:0.6;" x="99" xlink:href="#m0cb60b688e" y="182.572235"/>
      </g>
     </g>
    </g>
    <g id="ytick_18">
     <g id="line2d_74">
      <path clip-path="url(#p68e2955192)" d="M 99 145.125362 
L 712.8 145.125362 
" style="fill:none;stroke:#b0b0b0;stroke-linecap:square;stroke-width:0.8;"/>
     </g>
     <g id="line2d_75">
      <g>
       <use style="stroke:#000000;stroke-width:0.6;" x="99" xlink:href="#m0cb60b688e" y="145.125362"/>
      </g>
     </g>
    </g>
    <g id="ytick_19">
     <g id="line2d_76">
      <path clip-path="url(#p68e2955192)" d="M 99 118.556382 
L 712.8 118.556382 
" style="fill:none;stroke:#b0b0b0;stroke-linecap:square;stroke-width:0.8;"/>
     </g>
     <g id="line2d_77">
      <g>
       <use style="stroke:#000000;stroke-width:0.6;" x="99" xlink:href="#m0cb60b688e" y="118.556382"/>
      </g>
     </g>
    </g>
    <g id="ytick_20">
     <g id="line2d_78">
      <path clip-path="url(#p68e2955192)" d="M 99 97.947881 
L 712.8 97.947881 
" style="fill:none;stroke:#b0b0b0;stroke-linecap:square;stroke-width:0.8;"/>
     </g>
     <g id="line2d_79">
      <g>
       <use style="stroke:#000000;stroke-width:0.6;" x="99" xlink:href="#m0cb60b688e" y="97.947881"/>
      </g>
     </g>
    </g>
    <g id="ytick_21">
     <g id="line2d_80">
      <path clip-path="url(#p68e2955192)" d="M 99 81.109509 
L 712.8 81.109509 
" style="fill:none;stroke:#b0b0b0;stroke-linecap:square;stroke-width:0.8;"/>
     </g>
     <g id="line2d_81">
      <g>
       <use style="stroke:#000000;stroke-width:0.6;" x="99" xlink:href="#m0cb60b688e" y="81.109509"/>
      </g>
     </g>
    </g>
   </g>
   <g id="line2d_82">
    <path clip-path="url(#p68e2955192)" d="M 680.681052 613 
L 680.682558 523.26 
L 684.251163 310.60394 
L 687.819767 242.082055 
L 691.388372 222.357343 
L 694.956977 222.357343 
L 698.525581 215.513075 
L 705.662791 215.513075 
L 709.231395 200.338809 
L 712.8 200.338809 
L 712.8 200.338809 
" style="fill:none;stroke:#1f77b4;stroke-linecap:square;stroke-width:1.5;"/>
   </g>
   <g id="line2d_83">
    <path clip-path="url(#p68e2955192)" d="M 0 0 
" style="fill:none;stroke:#ff7f0e;stroke-linecap:square;stroke-width:1.5;"/>
   </g>
   <g id="patch_3">
    <path d="M 99 544.68 
L 99 73.44 
" style="fill:none;stroke:#000000;stroke-linecap:square;stroke-linejoin:miter;stroke-width:0.8;"/>
   </g>
   <g id="patch_4">
    <path d="M 712.8 544.68 
L 712.8 73.44 
" style="fill:none;stroke:#000000;stroke-linecap:square;stroke-linejoin:miter;stroke-width:0.8;"/>
   </g>
   <g id="patch_5">
    <path d="M 99 544.68 
L 712.8 544.68 
" style="fill:none;stroke:#000000;stroke-linecap:square;stroke-linejoin:miter;stroke-width:0.8;"/>
   </g>
   <g id="patch_6">
    <path d="M 99 73.44 
L 712.8 73.44 
" style="fill:none;stroke:#000000;stroke-linecap:square;stroke-linejoin:miter;stroke-width:0.8;"/>
   </g>
   <g id="legend_1">
    <g id="patch_7">
     <path d="M 616.653125 110.79625 
L 705.8 110.79625 
Q 707.8 110.79625 707.8 108.79625 
L 707.8 80.44 
Q 707.8 78.44 705.8 78.44 
L 616.653125 78.44 
Q 614.653125 78.44 614.653125 80.44 
L 614.653125 108.79625 
Q 614.653125 110.79625 616.653125 110.79625 
z
" style="fill:#ffffff;opacity:0.8;stroke:#cccccc;stroke-linejoin:miter;"/>
    </g>
    <g id="line2d_84">
     <path d="M 618.653125 86.538437 
L 638.653125 86.538437 
" style="fill:none;stroke:#1f77b4;stroke-linecap:square;stroke-width:1.5;"/>
    </g>
    <g id="line2d_85"/>
    <g id="text_10">
     <!-- Avg Cases -->
     <g transform="translate(646.653125 90.038437)scale(0.1 -0.1)">
      <defs>
       <path d="M 2188 4044 
L 1331 1722 
L 3047 1722 
L 2188 4044 
z
M 1831 4666 
L 2547 4666 
L 4325 0 
L 3669 0 
L 3244 1197 
L 1141 1197 
L 716 0 
L 50 0 
L 1831 4666 
z
" id="DejaVuSans-41" transform="scale(0.015625)"/>
       <path d="M 2906 1791 
Q 2906 2416 2648 2759 
Q 2391 3103 1925 3103 
Q 1463 3103 1205 2759 
Q 947 2416 947 1791 
Q 947 1169 1205 825 
Q 1463 481 1925 481 
Q 2391 481 2648 825 
Q 2906 1169 2906 1791 
z
M 3481 434 
Q 3481 -459 3084 -895 
Q 2688 -1331 1869 -1331 
Q 1566 -1331 1297 -1286 
Q 1028 -1241 775 -1147 
L 775 -588 
Q 1028 -725 1275 -790 
Q 1522 -856 1778 -856 
Q 2344 -856 2625 -561 
Q 2906 -266 2906 331 
L 2906 616 
Q 2728 306 2450 153 
Q 2172 0 1784 0 
Q 1141 0 747 490 
Q 353 981 353 1791 
Q 353 2603 747 3093 
Q 1141 3584 1784 3584 
Q 2172 3584 2450 3431 
Q 2728 3278 2906 2969 
L 2906 3500 
L 3481 3500 
L 3481 434 
z
" id="DejaVuSans-67" transform="scale(0.015625)"/>
       <path id="DejaVuSans-20" transform="scale(0.015625)"/>
       <path d="M 4122 4306 
L 4122 3641 
Q 3803 3938 3442 4084 
Q 3081 4231 2675 4231 
Q 1875 4231 1450 3742 
Q 1025 3253 1025 2328 
Q 1025 1406 1450 917 
Q 1875 428 2675 428 
Q 3081 428 3442 575 
Q 3803 722 4122 1019 
L 4122 359 
Q 3791 134 3420 21 
Q 3050 -91 2638 -91 
Q 1578 -91 968 557 
Q 359 1206 359 2328 
Q 359 3453 968 4101 
Q 1578 4750 2638 4750 
Q 3056 4750 3426 4639 
Q 3797 4528 4122 4306 
z
" id="DejaVuSans-43" transform="scale(0.015625)"/>
       <path d="M 2834 3397 
L 2834 2853 
Q 2591 2978 2328 3040 
Q 2066 3103 1784 3103 
Q 1356 3103 1142 2972 
Q 928 2841 928 2578 
Q 928 2378 1081 2264 
Q 1234 2150 1697 2047 
L 1894 2003 
Q 2506 1872 2764 1633 
Q 3022 1394 3022 966 
Q 3022 478 2636 193 
Q 2250 -91 1575 -91 
Q 1294 -91 989 -36 
Q 684 19 347 128 
L 347 722 
Q 666 556 975 473 
Q 1284 391 1588 391 
Q 1994 391 2212 530 
Q 2431 669 2431 922 
Q 2431 1156 2273 1281 
Q 2116 1406 1581 1522 
L 1381 1569 
Q 847 1681 609 1914 
Q 372 2147 372 2553 
Q 372 3047 722 3315 
Q 1072 3584 1716 3584 
Q 2034 3584 2315 3537 
Q 2597 3491 2834 3397 
z
" id="DejaVuSans-73" transform="scale(0.015625)"/>
      </defs>
      <use xlink:href="#DejaVuSans-41"/>
      <use x="62.533203" xlink:href="#DejaVuSans-76"/>
      <use x="121.712891" xlink:href="#DejaVuSans-67"/>
      <use x="185.189453" xlink:href="#DejaVuSans-20"/>
      <use x="216.976562" xlink:href="#DejaVuSans-43"/>
      <use x="286.800781" xlink:href="#DejaVuSans-61"/>
      <use x="348.080078" xlink:href="#DejaVuSans-73"/>
      <use x="400.179688" xlink:href="#DejaVuSans-65"/>
      <use x="461.703125" xlink:href="#DejaVuSans-73"/>
     </g>
    </g>
    <g id="line2d_86">
     <path d="M 618.653125 101.216562 
L 638.653125 101.216562 
" style="fill:none;stroke:#ff7f0e;stroke-linecap:square;stroke-width:1.5;"/>
    </g>
    <g id="line2d_87"/>
    <g id="text_11">
     <!-- Avg Deaths -->
     <g transform="translate(646.653125 104.716562)scale(0.1 -0.1)">
      <defs>
       <path d="M 3513 2113 
L 3513 0 
L 2938 0 
L 2938 2094 
Q 2938 2591 2744 2837 
Q 2550 3084 2163 3084 
Q 1697 3084 1428 2787 
Q 1159 2491 1159 1978 
L 1159 0 
L 581 0 
L 581 4863 
L 1159 4863 
L 1159 2956 
Q 1366 3272 1645 3428 
Q 1925 3584 2291 3584 
Q 2894 3584 3203 3211 
Q 3513 2838 3513 2113 
z
" id="DejaVuSans-68" transform="scale(0.015625)"/>
      </defs>
      <use xlink:href="#DejaVuSans-41"/>
      <use x="62.533203" xlink:href="#DejaVuSans-76"/>
      <use x="121.712891" xlink:href="#DejaVuSans-67"/>
      <use x="185.189453" xlink:href="#DejaVuSans-20"/>
      <use x="216.976562" xlink:href="#DejaVuSans-44"/>
      <use x="293.978516" xlink:href="#DejaVuSans-65"/>
      <use x="355.501953" xlink:href="#DejaVuSans-61"/>
      <use x="416.78125" xlink:href="#DejaVuSans-74"/>
      <use x="455.990234" xlink:href="#DejaVuSans-68"/>
      <use x="519.369141" xlink:href="#DejaVuSans-73"/>
     </g>
    </g>
   </g>
  </g>
 </g>
 <defs>
  <clipPath id="p68e2955192">
   <rect height="471.24" width="613.8" x="99" y="73.44"/>
  </clipPath>
 </defs>
</svg>
