<?xml version="1.0" encoding="utf-8" standalone="no"?>
<!DOCTYPE svg PUBLIC "-//W3C//DTD SVG 1.1//EN"
  "http://www.w3.org/Graphics/SVG/1.1/DTD/svg11.dtd">
<svg height="612pt" version="1.1" viewBox="0 0 792 612" width="792pt" xmlns="http://www.w3.org/2000/svg" xmlns:xlink="http://www.w3.org/1999/xlink">
 <metadata>
  <rdf:RDF xmlns:cc="http://creativecommons.org/ns#" xmlns:dc="http://purl.org/dc/elements/1.1/" xmlns:rdf="http://www.w3.org/1999/02/22-rdf-syntax-ns#">
   <cc:Work>
    <dc:type rdf:resource="http://purl.org/dc/dcmitype/StillImage"/>
    <dc:format>image/svg+xml</dc:format>
    <dc:creator>
     <cc:Agent>
      <dc:title>Matplotlib v3.4.2, https://matplotlib.org/</dc:title>
     </cc:Agent>
    </dc:creator>
   </cc:Work>
  </rdf:RDF>
 </metadata>
 <defs>
  <style type="text/css">*{stroke-linecap:butt;stroke-linejoin:round;}</style>
 </defs>
 <g id="figure_1">
  <g id="patch_1">
   <path d="M 0 612 
L 792 612 
L 792 0 
L 0 0 
z
" style="fill:#ffffff;"/>
  </g>
  <g id="axes_1">
   <g id="patch_2">
    <path d="M 99 544.68 
L 712.8 544.68 
L 712.8 73.44 
L 99 73.44 
z
" style="fill:#ffffff;"/>
   </g>
   <g id="PolyCollection_1">
    <path clip-path="url(#p68e2955192)" d="M 99 104647.584004 
L 99 104647.584004 
L 100.1 104647.584004 
L 101.2 104647.584004 
L 102.3 104647.584004 
L 103.4 104647.584004 
L 104.5 104647.584004 
L 105.6 104647.584004 
L 106.7 104647.584004 
L 107.8 104647.584004 
L 108.9 104647.584004 
L 110 104647.584004 
L 111.1 104647.584004 
L 112.2 104647.584004 
L 113.3 333.470848 
L 114.4 310.967539 
L 115.5 293.406555 
L 116.6 283.95799 
L 117.7 258.722435 
L 118.8 256.20948 
L 119.9 243.842971 
L 121 242.183151 
L 122.1 238.26537 
L 123.2 219.549624 
L 124.3 208.106037 
L 125.4 208.106037 
L 126.5 208.106037 
L 127.6 204.731294 
L 128.7 204.731294 
L 129.8 204.731294 
L 130.9 182.377638 
L 132 178.269105 
L 133.1 176.645615 
L 134.2 176.607358 
L 135.3 176.607358 
L 136.4 176.607358 
L 137.5 176.607358 
L 138.6 171.608366 
L 139.7 171.608366 
L 140.8 171.608366 
L 141.9 171.176731 
L 143 171.176731 
L 144.1 171.176731 
L 145.2 171.176731 
L 146.3 168.240662 
L 147.4 168.240662 
L 148.5 155.412478 
L 149.6 155.412478 
L 150.7 155.412478 
L 151.8 155.412478 
L 152.9 155.412478 
L 154 157.177768 
L 155.1 157.177768 
L 156.2 157.177768 
L 157.3 158.833689 
L 158.4 157.720235 
L 159.5 157.720235 
L 160.6 157.720235 
L 161.7 178.335273 
L 162.8 178.335273 
L 163.9 184.235051 
L 165 184.235051 
L 166.1 184.720467 
L 167.2 184.720467 
L 168.3 184.720467 
L 169.4 184.720467 
L 170.5 184.720467 
L 171.6 184.720467 
L 172.7 191.966151 
L 173.8 197.244777 
L 174.9 197.244777 
L 176 195.122806 
L 177.1 194.912161 
L 178.2 194.912161 
L 179.3 194.912161 
L 180.4 197.151 
L 181.5 197.271607 
L 182.6 197.271607 
L 183.7 197.271607 
L 184.8 197.271607 
L 185.9 197.271607 
L 187 197.271607 
L 188.1 197.271607 
L 189.2 197.332031 
L 190.3 197.961187 
L 191.4 206.91969 
L 192.5 209.79975 
L 193.6 209.79975 
L 194.7 216.390739 
L 195.8 216.390739 
L 196.9 216.452213 
L 198 216.452213 
L 199.1 218.411255 
L 200.2 219.946612 
L 201.3 229.328797 
L 202.4 229.328797 
L 203.5 229.780801 
L 204.6 229.780801 
L 205.7 227.959585 
L 206.8 227.959585 
L 207.9 236.188254 
L 209 236.714703 
L 210.1 236.714703 
L 211.2 236.714703 
L 212.3 236.714703 
L 213.4 250.033692 
L 214.5 250.033692 
L 215.6 250.033692 
L 216.7 250.033692 
L 217.8 250.684555 
L 218.9 250.684555 
L 220 263.858169 
L 221.1 266.16761 
L 222.2 266.16761 
L 223.3 269.02546 
L 224.4 265.103226 
L 225.5 265.103226 
L 226.6 265.103226 
L 227.7 265.103226 
L 228.8 269.02546 
L 229.9 269.02546 
L 231 265.103226 
L 232.1 265.103226 
L 233.2 265.103226 
L 234.3 265.103226 
L 235.4 265.103226 
L 236.5 269.453599 
L 237.6 269.453599 
L 238.7 251.857811 
L 239.8 255.426184 
L 240.9 255.063631 
L 242 254.489524 
L 243.1 252.467416 
L 244.2 252.467416 
L 245.3 252.467416 
L 246.4 263.392732 
L 247.5 263.392732 
L 248.6 263.392732 
L 249.7 263.392732 
L 250.8 251.189971 
L 251.9 251.189971 
L 253 251.189971 
L 254.1 253.73521 
L 255.2 253.73521 
L 256.3 222.474831 
L 257.4 222.474831 
L 258.5 222.474831 
L 259.6 222.474831 
L 260.7 222.474831 
L 261.8 220.920633 
L 262.9 220.920633 
L 264 220.920633 
L 265.1 220.920633 
L 266.2 244.277102 
L 267.3 244.277102 
L 268.4 244.277102 
L 269.5 242.056571 
L 270.6 242.056571 
L 271.7 248.990352 
L 272.8 248.990352 
L 273.9 250.466558 
L 275 250.466558 
L 276.1 250.466558 
L 277.2 250.466558 
L 278.3 250.466558 
L 279.4 250.466558 
L 280.5 250.401364 
L 281.6 250.401364 
L 282.7 250.401364 
L 283.8 250.401364 
L 284.9 234.752126 
L 286 234.752126 
L 287.1 231.980904 
L 288.2 231.980904 
L 289.3 231.980904 
L 290.4 231.980904 
L 291.5 231.980904 
L 292.6 230.586344 
L 293.7 230.586344 
L 294.8 230.586344 
L 295.9 230.586344 
L 297 230.586344 
L 298.1 230.586344 
L 299.2 230.586344 
L 300.3 258.853132 
L 301.4 230.586344 
L 302.5 231.606709 
L 303.6 228.854284 
L 304.7 228.4114 
L 305.8 228.4114 
L 306.9 228.4114 
L 308 225.426989 
L 309.1 225.426989 
L 310.2 225.426989 
L 311.3 225.426989 
L 312.4 225.426989 
L 313.5 225.426989 
L 314.6 225.426989 
L 315.7 213.304041 
L 316.8 218.917272 
L 317.9 218.917272 
L 319 218.917272 
L 320.1 219.341499 
L 321.2 219.341499 
L 322.3 219.341499 
L 323.4 219.341499 
L 324.5 219.341499 
L 325.6 219.308725 
L 326.7 219.308725 
L 327.8 207.513181 
L 328.9 207.513181 
L 330 207.513181 
L 331.1 205.787955 
L 332.2 205.787955 
L 333.3 205.787955 
L 334.4 205.787955 
L 335.5 205.787955 
L 336.6 205.787955 
L 337.7 205.787955 
L 338.8 192.900589 
L 339.9 192.900589 
L 341 192.900589 
L 342.1 192.900589 
L 343.2 188.598167 
L 344.3 188.598167 
L 345.4 188.598167 
L 346.5 176.197077 
L 347.6 176.197077 
L 348.7 176.197077 
L 349.8 176.197077 
L 350.9 176.197077 
L 352 176.197077 
L 353.1 176.197077 
L 354.2 176.197077 
L 355.3 176.197077 
L 356.4 176.197077 
L 357.5 168.251257 
L 358.6 168.251257 
L 359.7 168.251257 
L 360.8 168.251257 
L 361.9 152.13783 
L 363 152.13783 
L 364.1 152.13783 
L 365.2 149.486121 
L 366.3 149.486121 
L 367.4 149.486121 
L 368.5 149.486121 
L 369.6 140.563593 
L 370.7 140.563593 
L 371.8 140.180258 
L 372.9 140.180258 
L 374 134.217759 
L 375.1 134.217759 
L 376.2 134.217759 
L 377.3 127.38801 
L 378.4 127.38801 
L 379.5 127.38801 
L 380.6 127.38801 
L 381.7 127.38801 
L 382.8 127.38801 
L 383.9 127.38801 
L 385 115.93404 
L 386.1 115.93404 
L 387.2 115.93404 
L 388.3 115.93404 
L 389.4 113.712824 
L 390.5 113.712824 
L 391.6 113.712824 
L 392.7 113.160827 
L 393.8 113.160827 
L 394.9 113.160827 
L 396 109.053786 
L 397.1 109.053786 
L 398.2 109.053786 
L 399.3 109.053786 
L 400.4 109.053786 
L 401.5 109.053786 
L 402.6 109.053786 
L 403.7 109.053786 
L 404.8 109.053786 
L 405.9 109.053786 
L 407 109.053786 
L 408.1 94.86 
L 409.2 94.86 
L 410.3 94.86 
L 411.4 96.933892 
L 412.5 96.933892 
L 413.6 96.933892 
L 414.7 96.933892 
L 415.8 112.925264 
L 416.9 112.925264 
L 418 112.925264 
L 419.1 112.925264 
L 420.2 116.499783 
L 421.3 116.499783 
L 422.4 116.499783 
L 423.5 116.499783 
L 424.6 116.499783 
L 425.7 116.499783 
L 426.8 116.499783 
L 427.9 118.695519 
L 429 111.001889 
L 430.1 111.001889 
L 431.2 111.55624 
L 432.3 111.55624 
L 433.4 111.55624 
L 434.5 111.55624 
L 435.6 111.55624 
L 436.7 111.55624 
L 437.8 111.55624 
L 438.9 111.55624 
L 440 111.55624 
L 441.1 111.55624 
L 442.2 111.55624 
L 443.3 111.55624 
L 444.4 113.798592 
L 445.5 113.798592 
L 446.6 99.932982 
L 447.7 99.932982 
L 448.8 99.932982 
L 449.9 99.932982 
L 451 99.932982 
L 452.1 99.932982 
L 453.2 99.932982 
L 454.3 105.049709 
L 455.4 105.470937 
L 456.5 108.447102 
L 457.6 108.447102 
L 458.7 108.447102 
L 459.8 108.447102 
L 460.9 108.447102 
L 462 122.982361 
L 463.1 122.486483 
L 464.2 122.486483 
L 465.3 122.486483 
L 466.4 122.486483 
L 467.5 122.486483 
L 468.6 122.486483 
L 469.7 122.486483 
L 470.8 122.486483 
L 471.9 122.486483 
L 473 122.486483 
L 474.1 122.486483 
L 475.2 122.486483 
L 476.3 122.486483 
L 477.4 132.801974 
L 478.5 138.669415 
L 479.6 138.669415 
L 480.7 138.669415 
L 481.8 139.971839 
L 482.9 139.971839 
L 484 139.971839 
L 485.1 149.872691 
L 486.2 148.764061 
L 487.3 147.836893 
L 488.4 147.836893 
L 489.5 147.836893 
L 490.6 147.836893 
L 491.7 147.836893 
L 492.8 147.836893 
L 493.9 147.836893 
L 495 147.836893 
L 496.1 147.836893 
L 497.2 147.836893 
L 498.3 147.836893 
L 499.4 147.836893 
L 500.5 150.545895 
L 501.6 150.545895 
L 502.7 154.418221 
L 503.8 155.181697 
L 504.9 152.808201 
L 506 152.808201 
L 507.1 152.808201 
L 508.2 152.808201 
L 509.3 152.808201 
L 510.4 152.808201 
L 511.5 152.808201 
L 512.6 152.642801 
L 513.7 152.642801 
L 514.8 152.642801 
L 515.9 145.244878 
L 517 145.244878 
L 518.1 143.679234 
L 519.2 143.488817 
L 520.3 142.207662 
L 521.4 142.207662 
L 522.5 142.207662 
L 523.6 136.335612 
L 524.7 136.335612 
L 525.8 136.335612 
L 526.9 136.335612 
L 528 136.335612 
L 529.1 136.335612 
L 530.2 136.335612 
L 531.3 139.851018 
L 532.4 139.851018 
L 533.5 139.851018 
L 534.6 139.851018 
L 535.7 139.249847 
L 536.8 139.249847 
L 537.9 139.249847 
L 539 139.249847 
L 540.1 139.249847 
L 541.2 139.249847 
L 542.3 139.249847 
L 543.4 139.249847 
L 544.5 139.249847 
L 545.6 139.249847 
L 546.7 144.199269 
L 547.8 144.199269 
L 548.9 144.199269 
L 550 144.199269 
L 551.1 145.44925 
L 552.2 145.44925 
L 553.3 145.44925 
L 554.4 148.094047 
L 555.5 148.094047 
L 556.6 151.967466 
L 557.7 151.967466 
L 558.8 152.174951 
L 559.9 152.174951 
L 561 152.174951 
L 562.1 170.12637 
L 563.2 170.12637 
L 564.3 170.12637 
L 565.4 170.12637 
L 566.5 172.952056 
L 567.6 172.952056 
L 568.7 172.952056 
L 569.8 188.709076 
L 570.9 188.709076 
L 572 188.709076 
L 573.1 188.709076 
L 574.2 189.975909 
L 575.3 189.975909 
L 576.4 189.975909 
L 577.5 195.812631 
L 578.6 195.812631 
L 579.7 195.812631 
L 580.8 202.192835 
L 581.9 202.192835 
L 583 202.192835 
L 584.1 202.192835 
L 585.2 215.31826 
L 586.3 216.013488 
L 587.4 216.013488 
L 588.5 223.242632 
L 589.6 228.424757 
L 590.7 228.424757 
L 591.8 228.424757 
L 592.9 247.642452 
L 594 246.672244 
L 595.1 248.508798 
L 596.2 248.633927 
L 597.3 248.633927 
L 598.4 248.633927 
L 599.5 248.633927 
L 600.6 251.812981 
L 601.7 251.812981 
L 602.8 251.812981 
L 603.9 251.812981 
L 605 256.805984 
L 606.1 256.805984 
L 607.2 256.805984 
L 608.3 256.805984 
L 609.4 270.153885 
L 610.5 270.153885 
L 611.6 270.153885 
L 612.7 278.106287 
L 613.8 278.106287 
L 614.9 278.106287 
L 616 282.169843 
L 617.1 282.169843 
L 618.2 290.733713 
L 619.3 280.071523 
L 620.4 274.083668 
L 621.5 274.083668 
L 622.6 274.083668 
L 623.7 269.420521 
L 624.8 269.420521 
L 625.9 269.420521 
L 627 269.420521 
L 628.1 269.420521 
L 629.2 269.420521 
L 630.3 269.420521 
L 631.4 269.420521 
L 632.5 265.435056 
L 633.6 265.435056 
L 634.7 269.420521 
L 635.8 261.772482 
L 636.9 261.772482 
L 638 261.772482 
L 639.1 266.07539 
L 640.2 258.592114 
L 641.3 258.592114 
L 642.4 258.592114 
L 643.5 258.592114 
L 644.6 258.592114 
L 645.7 258.592114 
L 646.8 252.993268 
L 647.9 249.095719 
L 649 246.912852 
L 650.1 237.852118 
L 651.2 237.852118 
L 652.3 237.852118 
L 653.4 237.852118 
L 654.5 223.830176 
L 655.6 214.143792 
L 656.7 214.143792 
L 657.8 214.143792 
L 658.9 211.69759 
L 660 211.69759 
L 661.1 211.69759 
L 662.2 205.698951 
L 663.3 203.498125 
L 664.4 203.498125 
L 665.5 200.518662 
L 666.6 195.257365 
L 667.7 195.257365 
L 668.8 195.257365 
L 669.9 175.507613 
L 671 175.507613 
L 672.1 173.286412 
L 673.2 173.286412 
L 674.3 173.286412 
L 675.4 173.286412 
L 676.5 173.286412 
L 677.6 172.140292 
L 678.7 172.140292 
L 679.8 172.140292 
L 680.9 172.140292 
L 682 172.140292 
L 683.1 172.140292 
L 684.2 172.140292 
L 685.3 165.463675 
L 686.4 163.925847 
L 687.5 163.925847 
L 688.6 163.925847 
L 689.7 163.925847 
L 690.8 163.925847 
L 691.9 163.925847 
L 693 168.48499 
L 694.1 168.48499 
L 695.2 168.48499 
L 696.3 168.48499 
L 697.4 168.48499 
L 698.5 168.48499 
L 699.6 168.48499 
L 700.7 177.206156 
L 701.8 169.215167 
L 702.9 169.215167 
L 704 169.215167 
L 705.1 169.215167 
L 706.2 169.215167 
L 707.3 169.215167 
L 708.4 169.544724 
L 709.5 169.035109 
L 710.6 169.035109 
L 711.7 168.862924 
L 712.8 161.546606 
L 712.8 104647.584004 
L 712.8 104647.584004 
L 711.7 104647.584004 
L 710.6 104647.584004 
L 709.5 104647.584004 
L 708.4 104647.584004 
L 707.3 104647.584004 
L 706.2 104647.584004 
L 705.1 104647.584004 
L 704 104647.584004 
L 702.9 104647.584004 
L 701.8 104647.584004 
L 700.7 104647.584004 
L 699.6 203.621484 
L 698.5 203.621484 
L 697.4 203.621484 
L 696.3 222.276153 
L 695.2 222.276153 
L 694.1 222.276153 
L 693 222.276153 
L 691.9 222.276153 
L 690.8 222.276153 
L 689.7 222.276153 
L 688.6 222.276153 
L 687.5 222.276153 
L 686.4 222.276153 
L 685.3 242.601569 
L 684.2 242.601569 
L 683.1 242.601569 
L 682 242.601569 
L 680.9 242.601569 
L 679.8 242.601569 
L 678.7 242.601569 
L 677.6 242.601569 
L 676.5 242.601569 
L 675.4 242.601569 
L 674.3 242.601569 
L 673.2 242.601569 
L 672.1 242.601569 
L 671 242.601569 
L 669.9 233.137254 
L 668.8 233.137254 
L 667.7 233.137254 
L 666.6 233.137254 
L 665.5 254.37083 
L 664.4 254.37083 
L 663.3 254.37083 
L 662.2 254.37083 
L 661.1 254.37083 
L 660 254.37083 
L 658.9 254.37083 
L 657.8 273.46476 
L 656.7 273.46476 
L 655.6 273.46476 
L 654.5 273.46476 
L 653.4 304.494482 
L 652.3 304.494482 
L 651.2 304.494482 
L 650.1 304.494482 
L 649 315.403263 
L 647.9 315.403263 
L 646.8 315.403263 
L 645.7 104647.584004 
L 644.6 104647.584004 
L 643.5 104647.584004 
L 642.4 104647.584004 
L 641.3 104647.584004 
L 640.2 104647.584004 
L 639.1 104647.584004 
L 638 104647.584004 
L 636.9 104647.584004 
L 635.8 104647.584004 
L 634.7 104647.584004 
L 633.6 104647.584004 
L 632.5 104647.584004 
L 631.4 104647.584004 
L 630.3 335.848465 
L 629.2 335.848465 
L 628.1 335.848465 
L 627 335.848465 
L 625.9 335.848465 
L 624.8 335.848465 
L 623.7 335.848465 
L 622.6 335.848465 
L 621.5 335.848465 
L 620.4 335.848465 
L 619.3 341.338131 
L 618.2 341.338131 
L 617.1 341.338131 
L 616 341.338131 
L 614.9 341.338131 
L 613.8 341.338131 
L 612.7 341.338131 
L 611.6 341.338131 
L 610.5 341.338131 
L 609.4 341.338131 
L 608.3 341.338131 
L 607.2 104647.584004 
L 606.1 104647.584004 
L 605 104647.584004 
L 603.9 104647.584004 
L 602.8 104647.584004 
L 601.7 104647.584004 
L 600.6 104647.584004 
L 599.5 104647.584004 
L 598.4 104647.584004 
L 597.3 104647.584004 
L 596.2 104647.584004 
L 595.1 104647.584004 
L 594 104647.584004 
L 592.9 104647.584004 
L 591.8 297.892368 
L 590.7 297.892368 
L 589.6 297.892368 
L 588.5 297.892368 
L 587.4 297.892368 
L 586.3 297.892368 
L 585.2 297.892368 
L 584.1 297.892368 
L 583 297.892368 
L 581.9 297.892368 
L 580.8 297.892368 
L 579.7 297.892368 
L 578.6 297.892368 
L 577.5 260.046716 
L 576.4 260.046716 
L 575.3 260.046716 
L 574.2 260.046716 
L 573.1 260.046716 
L 572 260.046716 
L 570.9 224.646107 
L 569.8 224.867844 
L 568.7 224.867844 
L 567.6 224.867844 
L 566.5 224.867844 
L 565.4 224.867844 
L 564.3 224.867844 
L 563.2 224.867844 
L 562.1 224.867844 
L 561 224.867844 
L 559.9 224.867844 
L 558.8 224.867844 
L 557.7 224.867844 
L 556.6 224.867844 
L 555.5 224.867844 
L 554.4 200.209747 
L 553.3 200.209747 
L 552.2 200.209747 
L 551.1 200.209747 
L 550 200.209747 
L 548.9 200.209747 
L 547.8 200.209747 
L 546.7 200.209747 
L 545.6 200.209747 
L 544.5 200.209747 
L 543.4 200.209747 
L 542.3 200.209747 
L 541.2 183.665305 
L 540.1 192.524494 
L 539 192.524494 
L 537.9 192.524494 
L 536.8 192.524494 
L 535.7 192.524494 
L 534.6 192.524494 
L 533.5 192.524494 
L 532.4 192.524494 
L 531.3 192.524494 
L 530.2 192.524494 
L 529.1 192.524494 
L 528 192.524494 
L 526.9 192.524494 
L 525.8 192.524494 
L 524.7 228.813842 
L 523.6 228.813842 
L 522.5 228.813842 
L 521.4 228.813842 
L 520.3 228.813842 
L 519.2 228.813842 
L 518.1 228.813842 
L 517 228.813842 
L 515.9 228.813842 
L 514.8 228.813842 
L 513.7 228.813842 
L 512.6 228.813842 
L 511.5 228.813842 
L 510.4 228.813842 
L 509.3 216.104962 
L 508.2 216.104962 
L 507.1 216.104962 
L 506 216.104962 
L 504.9 216.104962 
L 503.8 216.104962 
L 502.7 216.104962 
L 501.6 216.104962 
L 500.5 216.104962 
L 499.4 216.104962 
L 498.3 216.104962 
L 497.2 216.104962 
L 496.1 216.104962 
L 495 216.104962 
L 493.9 215.378292 
L 492.8 212.58301 
L 491.7 212.58301 
L 490.6 212.58301 
L 489.5 212.58301 
L 488.4 212.58301 
L 487.3 212.58301 
L 486.2 212.58301 
L 485.1 212.58301 
L 484 212.58301 
L 482.9 212.58301 
L 481.8 212.58301 
L 480.7 212.58301 
L 479.6 212.58301 
L 478.5 217.217336 
L 477.4 217.217336 
L 476.3 217.217336 
L 475.2 217.217336 
L 474.1 217.217336 
L 473 217.217336 
L 471.9 217.217336 
L 470.8 217.217336 
L 469.7 217.217336 
L 468.6 217.217336 
L 467.5 217.217336 
L 466.4 217.217336 
L 465.3 217.217336 
L 464.2 217.217336 
L 463.1 173.82258 
L 462 173.82258 
L 460.9 173.82258 
L 459.8 173.82258 
L 458.7 173.82258 
L 457.6 173.500117 
L 456.5 185.676047 
L 455.4 185.676047 
L 454.3 185.676047 
L 453.2 185.676047 
L 452.1 185.676047 
L 451 185.676047 
L 449.9 185.676047 
L 448.8 185.676047 
L 447.7 185.676047 
L 446.6 185.676047 
L 445.5 185.676047 
L 444.4 185.676047 
L 443.3 153.178779 
L 442.2 185.676047 
L 441.1 151.844413 
L 440 160.30888 
L 438.9 196.204102 
L 437.8 196.204102 
L 436.7 196.204102 
L 435.6 196.204102 
L 434.5 104647.584004 
L 433.4 104647.584004 
L 432.3 104647.584004 
L 431.2 104647.584004 
L 430.1 104647.584004 
L 429 104647.584004 
L 427.9 104647.584004 
L 426.8 104647.584004 
L 425.7 104647.584004 
L 424.6 104647.584004 
L 423.5 104647.584004 
L 422.4 104647.584004 
L 421.3 104647.584004 
L 420.2 104647.584004 
L 419.1 166.777835 
L 418 166.777835 
L 416.9 166.777835 
L 415.8 166.777835 
L 414.7 166.777835 
L 413.6 166.777835 
L 412.5 166.777835 
L 411.4 166.777835 
L 410.3 166.777835 
L 409.2 166.777835 
L 408.1 167.117595 
L 407 167.117595 
L 405.9 167.117595 
L 404.8 167.117595 
L 403.7 167.117595 
L 402.6 104647.584004 
L 401.5 104647.584004 
L 400.4 104647.584004 
L 399.3 104647.584004 
L 398.2 104647.584004 
L 397.1 104647.584004 
L 396 104647.584004 
L 394.9 104647.584004 
L 393.8 104647.584004 
L 392.7 104647.584004 
L 391.6 104647.584004 
L 390.5 104647.584004 
L 389.4 104647.584004 
L 388.3 104647.584004 
L 387.2 212.077595 
L 386.1 212.077595 
L 385 177.569277 
L 383.9 177.569277 
L 382.8 177.569277 
L 381.7 177.569277 
L 380.6 181.356268 
L 379.5 181.356268 
L 378.4 212.923119 
L 377.3 212.923119 
L 376.2 212.923119 
L 375.1 212.923119 
L 374 212.923119 
L 372.9 212.923119 
L 371.8 212.923119 
L 370.7 216.472723 
L 369.6 216.472723 
L 368.5 216.472723 
L 367.4 216.472723 
L 366.3 216.472723 
L 365.2 216.472723 
L 364.1 216.472723 
L 363 223.878478 
L 361.9 223.878478 
L 360.8 223.878478 
L 359.7 223.878478 
L 358.6 223.878478 
L 357.5 223.878478 
L 356.4 265.163378 
L 355.3 265.983357 
L 354.2 265.983357 
L 353.1 265.983357 
L 352 265.983357 
L 350.9 265.983357 
L 349.8 265.983357 
L 348.7 265.983357 
L 347.6 278.996435 
L 346.5 279.737997 
L 345.4 279.737997 
L 344.3 279.737997 
L 343.2 279.737997 
L 342.1 279.737997 
L 341 279.737997 
L 339.9 279.737997 
L 338.8 279.737997 
L 337.7 279.737997 
L 336.6 279.737997 
L 335.5 279.737997 
L 334.4 282.038538 
L 333.3 282.038538 
L 332.2 282.038538 
L 331.1 282.038538 
L 330 282.038538 
L 328.9 282.038538 
L 327.8 282.038538 
L 326.7 282.038538 
L 325.6 282.038538 
L 324.5 282.038538 
L 323.4 282.038538 
L 322.3 282.038538 
L 321.2 282.038538 
L 320.1 282.038538 
L 319 274.785561 
L 317.9 274.785561 
L 316.8 293.631881 
L 315.7 293.631881 
L 314.6 104647.584004 
L 313.5 104647.584004 
L 312.4 104647.584004 
L 311.3 104647.584004 
L 310.2 104647.584004 
L 309.1 104647.584004 
L 308 104647.584004 
L 306.9 104647.584004 
L 305.8 104647.584004 
L 304.7 104647.584004 
L 303.6 104647.584004 
L 302.5 104647.584004 
L 301.4 104647.584004 
L 300.3 104647.584004 
L 299.2 344.354864 
L 298.1 344.354864 
L 297 344.354864 
L 295.9 344.354864 
L 294.8 344.354864 
L 293.7 344.354864 
L 292.6 104647.584004 
L 291.5 104647.584004 
L 290.4 104647.584004 
L 289.3 104647.584004 
L 288.2 104647.584004 
L 287.1 104647.584004 
L 286 104647.584004 
L 284.9 104647.584004 
L 283.8 104647.584004 
L 282.7 104647.584004 
L 281.6 104647.584004 
L 280.5 104647.584004 
L 279.4 104647.584004 
L 278.3 104647.584004 
L 277.2 361.162258 
L 276.1 361.162258 
L 275 361.162258 
L 273.9 361.162258 
L 272.8 361.162258 
L 271.7 361.162258 
L 270.6 361.162258 
L 269.5 361.162258 
L 268.4 361.162258 
L 267.3 361.162258 
L 266.2 361.162258 
L 265.1 361.162258 
L 264 397.282144 
L 262.9 397.282144 
L 261.8 397.282144 
L 260.7 397.282144 
L 259.6 397.282144 
L 258.5 397.282144 
L 257.4 397.282144 
L 256.3 397.282144 
L 255.2 397.282144 
L 254.1 397.282144 
L 253 397.282144 
L 251.9 397.282144 
L 250.8 397.282144 
L 249.7 397.282144 
L 248.6 361.162258 
L 247.5 361.162258 
L 246.4 361.162258 
L 245.3 361.162258 
L 244.2 361.162258 
L 243.1 361.162258 
L 242 361.162258 
L 240.9 361.162258 
L 239.8 361.162258 
L 238.7 313.787583 
L 237.6 313.787583 
L 236.5 308.313036 
L 235.4 307.538458 
L 234.3 307.538458 
L 233.2 307.538458 
L 232.1 308.313036 
L 231 307.538458 
L 229.9 310.71968 
L 228.8 309.661044 
L 227.7 307.538458 
L 226.6 307.538458 
L 225.5 309.661044 
L 224.4 308.942392 
L 223.3 308.942392 
L 222.2 304.854916 
L 221.1 304.854916 
L 220 304.854916 
L 218.9 296.008602 
L 217.8 296.008602 
L 216.7 287.072316 
L 215.6 290.2595 
L 214.5 286.731659 
L 213.4 278.468324 
L 212.3 278.468324 
L 211.2 278.468324 
L 210.1 277.667697 
L 209 277.667697 
L 207.9 274.230533 
L 206.8 274.230533 
L 205.7 266.600477 
L 204.6 266.600477 
L 203.5 266.600477 
L 202.4 265.314109 
L 201.3 266.600477 
L 200.2 265.314109 
L 199.1 257.997428 
L 198 252.105178 
L 196.9 252.105178 
L 195.8 252.105178 
L 194.7 251.83539 
L 193.6 244.868907 
L 192.5 241.375536 
L 191.4 241.375536 
L 190.3 238.682432 
L 189.2 232.460347 
L 188.1 223.781926 
L 187 220.582389 
L 185.9 217.879081 
L 184.8 217.689021 
L 183.7 217.932018 
L 182.6 217.932018 
L 181.5 209.631905 
L 180.4 205.392823 
L 179.3 204.881877 
L 178.2 205.392823 
L 177.1 204.881877 
L 176 204.881877 
L 174.9 205.392823 
L 173.8 208.76728 
L 172.7 208.76728 
L 171.6 208.76728 
L 170.5 209.350619 
L 169.4 215.87156 
L 168.3 209.350619 
L 167.2 209.350619 
L 166.1 209.350619 
L 165 209.350619 
L 163.9 209.350619 
L 162.8 201.047978 
L 161.7 207.07775 
L 160.6 207.07775 
L 159.5 207.07775 
L 158.4 200.887805 
L 157.3 200.887805 
L 156.2 200.887805 
L 155.1 198.371788 
L 154 198.371788 
L 152.9 198.371788 
L 151.8 200.432241 
L 150.7 200.432241 
L 149.6 200.432241 
L 148.5 193.817427 
L 147.4 193.817427 
L 146.3 192.289511 
L 145.2 192.289511 
L 144.1 192.289511 
L 143 193.095933 
L 141.9 193.095933 
L 140.8 202.568412 
L 139.7 209.420776 
L 138.6 209.420776 
L 137.5 209.420776 
L 136.4 214.075646 
L 135.3 218.038077 
L 134.2 221.432788 
L 133.1 226.566451 
L 132 237.377428 
L 130.9 239.340826 
L 129.8 241.322204 
L 128.7 245.918653 
L 127.6 253.062311 
L 126.5 270.457358 
L 125.4 282.521862 
L 124.3 290.680776 
L 123.2 306.550938 
L 122.1 331.86473 
L 121 339.745211 
L 119.9 341.338131 
L 118.8 344.877809 
L 117.7 371.255986 
L 116.6 394.049752 
L 115.5 411.617403 
L 114.4 420.950874 
L 113.3 445.331969 
L 112.2 104647.584004 
L 111.1 104647.584004 
L 110 104647.584004 
L 108.9 104647.584004 
L 107.8 104647.584004 
L 106.7 104647.584004 
L 105.6 104647.584004 
L 104.5 104647.584004 
L 103.4 104647.584004 
L 102.3 104647.584004 
L 101.2 104647.584004 
L 100.1 104647.584004 
L 99 104647.584004 
z
" style="fill:#8080ff;fill-opacity:0.5;stroke:#8080ff;stroke-opacity:0.5;"/>
   </g>
   <g id="PolyCollection_2">
    <path clip-path="url(#p68e2955192)" d="M 99 104647.584004 
L 99 104647.584004 
L 100.1 104647.584004 
L 101.2 104647.584004 
L 102.3 104647.584004 
L 103.4 104647.584004 
L 104.5 104647.584004 
L 105.6 104647.584004 
L 106.7 104647.584004 
L 107.8 104647.584004 
L 108.9 104647.584004 
L 110 104647.584004 
L 111.1 104647.584004 
L 112.2 104647.584004 
L 113.3 491.906017 
L 114.4 452.304857 
L 115.5 446.977031 
L 116.6 446.977031 
L 117.7 442.211129 
L 118.8 442.211129 
L 119.9 418.208565 
L 121 410.857146 
L 122.1 410.857146 
L 123.2 410.857146 
L 124.3 405.865636 
L 125.4 374.850487 
L 126.5 348.718171 
L 127.6 346.483927 
L 128.7 336.281332 
L 129.8 336.281332 
L 130.9 336.281332 
L 132 333.744168 
L 133.1 314.498548 
L 134.2 311.38368 
L 135.3 303.080797 
L 136.4 303.080797 
L 137.5 302.665165 
L 138.6 302.665165 
L 139.7 300.576542 
L 140.8 299.470834 
L 141.9 286.683202 
L 143 286.683202 
L 144.1 286.683202 
L 145.2 286.683202 
L 146.3 259.91253 
L 147.4 259.91253 
L 148.5 258.488127 
L 149.6 258.488127 
L 150.7 258.177593 
L 151.8 258.177593 
L 152.9 258.177593 
L 154 258.177593 
L 155.1 258.177593 
L 156.2 273.937279 
L 157.3 273.937279 
L 158.4 273.937279 
L 159.5 273.937279 
L 160.6 273.937279 
L 161.7 275.084385 
L 162.8 275.084385 
L 163.9 277.906401 
L 165 277.906401 
L 166.1 284.647199 
L 167.2 286.105736 
L 168.3 286.105736 
L 169.4 286.105736 
L 170.5 286.105736 
L 171.6 286.105736 
L 172.7 285.394118 
L 173.8 285.394118 
L 174.9 287.711854 
L 176 287.711854 
L 177.1 291.106013 
L 178.2 291.106013 
L 179.3 292.296456 
L 180.4 292.626635 
L 181.5 293.97199 
L 182.6 293.97199 
L 183.7 293.97199 
L 184.8 293.97199 
L 185.9 293.97199 
L 187 300.973336 
L 188.1 304.279592 
L 189.2 309.500354 
L 190.3 309.500354 
L 191.4 311.133537 
L 192.5 311.133537 
L 193.6 311.133537 
L 194.7 313.348838 
L 195.8 317.268857 
L 196.9 321.352164 
L 198 321.352164 
L 199.1 321.352164 
L 200.2 325.496991 
L 201.3 325.496991 
L 202.4 326.187604 
L 203.5 326.187604 
L 204.6 335.562172 
L 205.7 338.358022 
L 206.8 343.326769 
L 207.9 343.326769 
L 209 343.326769 
L 210.1 343.326769 
L 211.2 343.326769 
L 212.3 346.122051 
L 213.4 346.122051 
L 214.5 346.122051 
L 215.6 346.122051 
L 216.7 346.122051 
L 217.8 350.668224 
L 218.9 370.323288 
L 220 370.323288 
L 221.1 373.510115 
L 222.2 376.938592 
L 223.3 376.938592 
L 224.4 376.938592 
L 225.5 376.938592 
L 226.6 376.938592 
L 227.7 378.01994 
L 228.8 384.689851 
L 229.9 384.689851 
L 231 384.689851 
L 232.1 389.128138 
L 233.2 392.516241 
L 234.3 398.989299 
L 235.4 419.104322 
L 236.5 419.104322 
L 237.6 419.104322 
L 238.7 398.989299 
L 239.8 398.989299 
L 240.9 394.049752 
L 242 392.516241 
L 243.1 394.049752 
L 244.2 394.049752 
L 245.3 394.049752 
L 246.4 389.128138 
L 247.5 389.128138 
L 248.6 389.128138 
L 249.7 389.128138 
L 250.8 389.128138 
L 251.9 389.128138 
L 253 389.128138 
L 254.1 394.049752 
L 255.2 394.049752 
L 256.3 395.637081 
L 257.4 405.865636 
L 258.5 413.177359 
L 259.6 413.177359 
L 260.7 413.177359 
L 261.8 419.104322 
L 262.9 419.104322 
L 264 419.104322 
L 265.1 419.104322 
L 266.2 419.104322 
L 267.3 419.104322 
L 268.4 419.104322 
L 269.5 419.104322 
L 270.6 421.903209 
L 271.7 413.177359 
L 272.8 421.903209 
L 273.9 421.903209 
L 275 421.903209 
L 276.1 421.903209 
L 277.2 432.724581 
L 278.3 432.724581 
L 279.4 432.724581 
L 280.5 432.724581 
L 281.6 442.211129 
L 282.7 442.211129 
L 283.8 442.211129 
L 284.9 442.211129 
L 286 442.211129 
L 287.1 442.211129 
L 288.2 442.211129 
L 289.3 446.977031 
L 290.4 446.977031 
L 291.5 446.977031 
L 292.6 460.552033 
L 293.7 460.552033 
L 294.8 460.552033 
L 295.9 460.552033 
L 297 467.903453 
L 298.1 467.903453 
L 299.2 467.903453 
L 300.3 467.903453 
L 301.4 467.903453 
L 302.5 467.903453 
L 303.6 440.727906 
L 304.7 436.54947 
L 305.8 436.54947 
L 306.9 436.54947 
L 308 421.903209 
L 309.1 421.903209 
L 310.2 421.903209 
L 311.3 421.903209 
L 312.4 421.903209 
L 313.5 421.903209 
L 314.6 421.903209 
L 315.7 421.903209 
L 316.8 429.19805 
L 317.9 429.19805 
L 319 432.724581 
L 320.1 432.724581 
L 321.2 432.724581 
L 322.3 432.724581 
L 323.4 446.977031 
L 324.5 446.977031 
L 325.6 442.211129 
L 326.7 442.211129 
L 327.8 442.211129 
L 328.9 442.211129 
L 330 442.211129 
L 331.1 442.211129 
L 332.2 432.724581 
L 333.3 432.724581 
L 334.4 429.19805 
L 335.5 429.19805 
L 336.6 429.19805 
L 337.7 429.19805 
L 338.8 429.19805 
L 339.9 429.19805 
L 341 429.19805 
L 342.1 429.19805 
L 343.2 429.19805 
L 344.3 429.19805 
L 345.4 429.19805 
L 346.5 421.903209 
L 347.6 419.104322 
L 348.7 403.242626 
L 349.8 403.242626 
L 350.9 397.844067 
L 352 397.844067 
L 353.1 397.844067 
L 354.2 384.269065 
L 355.3 384.269065 
L 356.4 383.029693 
L 357.5 383.029693 
L 358.6 383.029693 
L 359.7 383.029693 
L 360.8 383.029693 
L 361.9 385.97622 
L 363 385.97622 
L 364.1 384.689851 
L 365.2 383.439056 
L 366.3 380.648394 
L 367.4 380.648394 
L 368.5 380.648394 
L 369.6 373.181138 
L 370.7 373.181138 
L 371.8 373.181138 
L 372.9 373.181138 
L 374 373.181138 
L 375.1 373.181138 
L 376.2 373.181138 
L 377.3 356.623094 
L 378.4 356.623094 
L 379.5 356.623094 
L 380.6 352.706147 
L 381.7 350.668224 
L 382.8 350.668224 
L 383.9 350.668224 
L 385 350.668224 
L 386.1 350.668224 
L 387.2 328.568903 
L 388.3 328.568903 
L 389.4 324.368897 
L 390.5 324.368897 
L 391.6 324.368897 
L 392.7 320.321727 
L 393.8 320.321727 
L 394.9 315.678244 
L 396 315.678244 
L 397.1 315.678244 
L 398.2 315.678244 
L 399.3 315.678244 
L 400.4 309.340233 
L 401.5 309.340233 
L 402.6 309.340233 
L 403.7 309.340233 
L 404.8 309.340233 
L 405.9 309.340233 
L 407 309.340233 
L 408.1 299.793246 
L 409.2 299.793246 
L 410.3 301.373642 
L 411.4 300.774504 
L 412.5 300.774504 
L 413.6 300.774504 
L 414.7 300.774504 
L 415.8 299.406626 
L 416.9 299.406626 
L 418 299.406626 
L 419.1 297.706601 
L 420.2 297.706601 
L 421.3 297.706601 
L 422.4 297.706601 
L 423.5 292.023137 
L 424.6 292.023137 
L 425.7 292.023137 
L 426.8 292.023137 
L 427.9 292.023137 
L 429 283.010405 
L 430.1 283.010405 
L 431.2 286.634797 
L 432.3 286.634797 
L 433.4 286.634797 
L 434.5 286.634797 
L 435.6 286.634797 
L 436.7 286.634797 
L 437.8 286.634797 
L 438.9 290.892895 
L 440 290.892895 
L 441.1 288.109957 
L 442.2 288.109957 
L 443.3 288.109957 
L 444.4 292.792632 
L 445.5 292.792632 
L 446.6 291.643243 
L 447.7 291.643243 
L 448.8 291.643243 
L 449.9 291.643243 
L 451 291.643243 
L 452.1 291.643243 
L 453.2 291.643243 
L 454.3 291.643243 
L 455.4 291.643243 
L 456.5 301.306678 
L 457.6 301.306678 
L 458.7 301.306678 
L 459.8 301.306678 
L 460.9 301.306678 
L 462 302.734173 
L 463.1 302.734173 
L 464.2 302.734173 
L 465.3 303.360021 
L 466.4 303.570577 
L 467.5 303.570577 
L 468.6 303.570577 
L 469.7 306.10233 
L 470.8 306.10233 
L 471.9 306.10233 
L 473 309.580628 
L 474.1 309.580628 
L 475.2 309.580628 
L 476.3 309.580628 
L 477.4 310.71968 
L 478.5 310.71968 
L 479.6 310.71968 
L 480.7 310.71968 
L 481.8 310.967539 
L 482.9 310.967539 
L 484 310.967539 
L 485.1 330.186806 
L 486.2 330.186806 
L 487.3 330.186806 
L 488.4 330.568532 
L 489.5 330.568532 
L 490.6 330.568532 
L 491.7 330.568532 
L 492.8 340.53466 
L 493.9 340.53466 
L 495 340.53466 
L 496.1 340.53466 
L 497.2 342.48752 
L 498.3 342.48752 
L 499.4 342.48752 
L 500.5 351.270019 
L 501.6 351.270019 
L 502.7 354.840233 
L 503.8 354.840233 
L 504.9 354.840233 
L 506 354.840233 
L 507.1 354.840233 
L 508.2 354.840233 
L 509.3 354.840233 
L 510.4 358.242907 
L 511.5 358.242907 
L 512.6 358.242907 
L 513.7 358.242907 
L 514.8 358.242907 
L 515.9 370.323288 
L 517 371.255986 
L 518.1 373.181138 
L 519.2 373.181138 
L 520.3 373.181138 
L 521.4 373.181138 
L 522.5 373.181138 
L 523.6 373.181138 
L 524.7 374.175337 
L 525.8 374.175337 
L 526.9 376.583812 
L 528 376.583812 
L 529.1 376.583812 
L 530.2 376.583812 
L 531.3 364.283098 
L 532.4 364.283098 
L 533.5 364.283098 
L 534.6 364.283098 
L 535.7 364.283098 
L 536.8 364.283098 
L 537.9 364.283098 
L 539 373.510115 
L 540.1 366.208249 
L 541.2 366.208249 
L 542.3 367.059075 
L 543.4 367.059075 
L 544.5 367.059075 
L 545.6 367.059075 
L 546.7 367.059075 
L 547.8 367.059075 
L 548.9 367.059075 
L 550 367.059075 
L 551.1 367.059075 
L 552.2 367.059075 
L 553.3 367.059075 
L 554.4 360.168059 
L 555.5 364.014644 
L 556.6 363.218714 
L 557.7 363.218714 
L 558.8 363.218714 
L 559.9 363.218714 
L 561 363.218714 
L 562.1 371.255986 
L 563.2 371.255986 
L 564.3 371.255986 
L 565.4 371.255986 
L 566.5 371.255986 
L 567.6 371.255986 
L 568.7 371.255986 
L 569.8 371.255986 
L 570.9 371.255986 
L 572 371.255986 
L 573.1 371.255986 
L 574.2 377.296177 
L 575.3 377.296177 
L 576.4 377.296177 
L 577.5 372.530274 
L 578.6 372.530274 
L 579.7 372.530274 
L 580.8 372.530274 
L 581.9 372.530274 
L 583 372.530274 
L 584.1 372.530274 
L 585.2 403.884257 
L 586.3 403.884257 
L 587.4 403.884257 
L 588.5 405.865636 
L 589.6 399.572974 
L 590.7 399.572974 
L 591.8 399.572974 
L 592.9 405.865636 
L 594 405.865636 
L 595.1 405.865636 
L 596.2 405.865636 
L 597.3 405.865636 
L 598.4 405.865636 
L 599.5 405.865636 
L 600.6 405.865636 
L 601.7 405.865636 
L 602.8 405.865636 
L 603.9 405.865636 
L 605 418.208565 
L 606.1 418.208565 
L 607.2 418.208565 
L 608.3 418.208565 
L 609.4 442.211129 
L 610.5 446.977031 
L 611.6 446.977031 
L 612.7 432.724581 
L 613.8 432.724581 
L 614.9 432.724581 
L 616 446.977031 
L 617.1 446.977031 
L 618.2 446.977031 
L 619.3 446.977031 
L 620.4 446.977031 
L 621.5 446.977031 
L 622.6 446.977031 
L 623.7 446.977031 
L 624.8 446.977031 
L 625.9 446.977031 
L 627 446.977031 
L 628.1 460.552033 
L 629.2 460.552033 
L 630.3 460.552033 
L 631.4 460.552033 
L 632.5 467.903453 
L 633.6 467.903453 
L 634.7 491.906017 
L 635.8 491.906017 
L 636.9 491.906017 
L 638 491.906017 
L 639.1 491.906017 
L 640.2 491.906017 
L 641.3 508.039935 
L 642.4 508.039935 
L 643.5 508.039935 
L 644.6 508.039935 
L 645.7 508.039935 
L 646.8 508.039935 
L 647.9 508.039935 
L 649 508.039935 
L 650.1 458.345048 
L 651.2 458.345048 
L 652.3 458.345048 
L 653.4 458.345048 
L 654.5 446.977031 
L 655.6 446.977031 
L 656.7 446.977031 
L 657.8 436.54947 
L 658.9 436.54947 
L 660 436.54947 
L 661.1 436.54947 
L 662.2 436.54947 
L 663.3 436.54947 
L 664.4 436.54947 
L 665.5 436.54947 
L 666.6 436.54947 
L 667.7 436.54947 
L 668.8 436.54947 
L 669.9 445.331969 
L 671 440.727906 
L 672.1 440.727906 
L 673.2 440.727906 
L 674.3 440.727906 
L 675.4 440.727906 
L 676.5 440.727906 
L 677.6 440.727906 
L 678.7 440.727906 
L 679.8 432.724581 
L 680.9 398.413058 
L 682 392.01641 
L 683.1 392.01641 
L 684.2 392.01641 
L 685.3 392.01641 
L 686.4 392.01641 
L 687.5 392.01641 
L 688.6 366.208249 
L 689.7 366.208249 
L 690.8 366.208249 
L 691.9 366.208249 
L 693 366.208249 
L 694.1 366.208249 
L 695.2 366.208249 
L 696.3 366.208249 
L 697.4 369.712006 
L 698.5 369.712006 
L 699.6 369.712006 
L 700.7 369.712006 
L 701.8 369.712006 
L 702.9 356.396355 
L 704 369.712006 
L 705.1 365.373132 
L 706.2 365.373132 
L 707.3 365.373132 
L 708.4 365.373132 
L 709.5 353.335868 
L 710.6 353.335868 
L 711.7 365.373132 
L 712.8 359.195242 
L 712.8 104647.584004 
L 712.8 104647.584004 
L 711.7 104647.584004 
L 710.6 104647.584004 
L 709.5 104647.584004 
L 708.4 104647.584004 
L 707.3 104647.584004 
L 706.2 104647.584004 
L 705.1 104647.584004 
L 704 104647.584004 
L 702.9 104647.584004 
L 701.8 104647.584004 
L 700.7 104647.584004 
L 699.6 104647.584004 
L 698.5 104647.584004 
L 697.4 104647.584004 
L 696.3 104647.584004 
L 695.2 104647.584004 
L 694.1 104647.584004 
L 693 104647.584004 
L 691.9 104647.584004 
L 690.8 104647.584004 
L 689.7 104647.584004 
L 688.6 104647.584004 
L 687.5 104647.584004 
L 686.4 104647.584004 
L 685.3 104647.584004 
L 684.2 104647.584004 
L 683.1 104647.584004 
L 682 104647.584004 
L 680.9 104647.584004 
L 679.8 104647.584004 
L 678.7 104647.584004 
L 677.6 104647.584004 
L 676.5 104647.584004 
L 675.4 104647.584004 
L 674.3 104647.584004 
L 673.2 104647.584004 
L 672.1 104647.584004 
L 671 104647.584004 
L 669.9 104647.584004 
L 668.8 104647.584004 
L 667.7 104647.584004 
L 666.6 104647.584004 
L 665.5 104647.584004 
L 664.4 104647.584004 
L 663.3 104647.584004 
L 662.2 104647.584004 
L 661.1 104647.584004 
L 660 104647.584004 
L 658.9 104647.584004 
L 657.8 104647.584004 
L 656.7 104647.584004 
L 655.6 104647.584004 
L 654.5 104647.584004 
L 653.4 104647.584004 
L 652.3 104647.584004 
L 651.2 104647.584004 
L 650.1 104647.584004 
L 649 104647.584004 
L 647.9 104647.584004 
L 646.8 104647.584004 
L 645.7 104647.584004 
L 644.6 104647.584004 
L 643.5 104647.584004 
L 642.4 104647.584004 
L 641.3 104647.584004 
L 640.2 104647.584004 
L 639.1 104647.584004 
L 638 104647.584004 
L 636.9 104647.584004 
L 635.8 104647.584004 
L 634.7 104647.584004 
L 633.6 104647.584004 
L 632.5 104647.584004 
L 631.4 104647.584004 
L 630.3 104647.584004 
L 629.2 104647.584004 
L 628.1 104647.584004 
L 627 104647.584004 
L 625.9 104647.584004 
L 624.8 104647.584004 
L 623.7 104647.584004 
L 622.6 104647.584004 
L 621.5 104647.584004 
L 620.4 104647.584004 
L 619.3 104647.584004 
L 618.2 104647.584004 
L 617.1 104647.584004 
L 616 104647.584004 
L 614.9 104647.584004 
L 613.8 104647.584004 
L 612.7 104647.584004 
L 611.6 104647.584004 
L 610.5 104647.584004 
L 609.4 104647.584004 
L 608.3 104647.584004 
L 607.2 104647.584004 
L 606.1 104647.584004 
L 605 104647.584004 
L 603.9 104647.584004 
L 602.8 104647.584004 
L 601.7 104647.584004 
L 600.6 104647.584004 
L 599.5 104647.584004 
L 598.4 104647.584004 
L 597.3 104647.584004 
L 596.2 104647.584004 
L 595.1 104647.584004 
L 594 104647.584004 
L 592.9 104647.584004 
L 591.8 465.317936 
L 590.7 465.317936 
L 589.6 465.317936 
L 588.5 465.317936 
L 587.4 465.317936 
L 586.3 465.317936 
L 585.2 465.317936 
L 584.1 465.317936 
L 583 465.317936 
L 581.9 465.317936 
L 580.8 465.317936 
L 579.7 465.317936 
L 578.6 465.317936 
L 577.5 465.317936 
L 576.4 465.317936 
L 575.3 465.317936 
L 574.2 465.317936 
L 573.1 465.317936 
L 572 465.317936 
L 570.9 465.317936 
L 569.8 496.671919 
L 568.7 496.671919 
L 567.6 496.671919 
L 566.5 496.671919 
L 565.4 496.671919 
L 564.3 496.671919 
L 563.2 496.671919 
L 562.1 496.671919 
L 561 496.671919 
L 559.9 496.671919 
L 558.8 496.671919 
L 557.7 496.671919 
L 556.6 496.671919 
L 555.5 496.671919 
L 554.4 423.870224 
L 553.3 423.870224 
L 552.2 423.870224 
L 551.1 423.870224 
L 550 433.963953 
L 548.9 433.963953 
L 547.8 433.963953 
L 546.7 433.963953 
L 545.6 433.963953 
L 544.5 433.963953 
L 543.4 433.963953 
L 542.3 433.963953 
L 541.2 433.963953 
L 540.1 496.671919 
L 539 496.671919 
L 537.9 496.671919 
L 536.8 496.671919 
L 535.7 496.671919 
L 534.6 496.671919 
L 533.5 496.671919 
L 532.4 496.671919 
L 531.3 496.671919 
L 530.2 496.671919 
L 529.1 496.671919 
L 528 496.671919 
L 526.9 496.671919 
L 525.8 496.671919 
L 524.7 465.317936 
L 523.6 446.977031 
L 522.5 446.977031 
L 521.4 446.977031 
L 520.3 446.977031 
L 519.2 433.963953 
L 518.1 433.963953 
L 517 433.963953 
L 515.9 433.963953 
L 514.8 433.963953 
L 513.7 433.963953 
L 512.6 433.963953 
L 511.5 433.963953 
L 510.4 433.963953 
L 509.3 433.963953 
L 508.2 433.963953 
L 507.1 433.963953 
L 506 433.963953 
L 504.9 433.963953 
L 503.8 408.65016 
L 502.7 408.65016 
L 501.6 408.65016 
L 500.5 408.65016 
L 499.4 408.65016 
L 498.3 408.65016 
L 497.2 408.65016 
L 496.1 408.65016 
L 495 408.65016 
L 493.9 408.65016 
L 492.8 465.317936 
L 491.7 465.317936 
L 490.6 465.317936 
L 489.5 465.317936 
L 488.4 465.317936 
L 487.3 465.317936 
L 486.2 465.317936 
L 485.1 465.317936 
L 484 465.317936 
L 482.9 465.317936 
L 481.8 465.317936 
L 480.7 465.317936 
L 479.6 465.317936 
L 478.5 465.317936 
L 477.4 377.296177 
L 476.3 377.296177 
L 475.2 377.296177 
L 474.1 377.296177 
L 473 377.296177 
L 471.9 377.296177 
L 470.8 377.296177 
L 469.7 377.296177 
L 468.6 377.296177 
L 467.5 377.296177 
L 466.4 377.296177 
L 465.3 377.296177 
L 464.2 377.296177 
L 463.1 377.296177 
L 462 384.269065 
L 460.9 384.269065 
L 459.8 384.269065 
L 458.7 384.269065 
L 457.6 384.269065 
L 456.5 384.269065 
L 455.4 384.269065 
L 454.3 384.269065 
L 453.2 384.269065 
L 452.1 384.269065 
L 451 384.269065 
L 449.9 384.269065 
L 448.8 384.269065 
L 447.7 384.269065 
L 446.6 368.513678 
L 445.5 368.513678 
L 444.4 368.513678 
L 443.3 349.488134 
L 442.2 368.513678 
L 441.1 352.915082 
L 440 352.915082 
L 438.9 361.162258 
L 437.8 361.162258 
L 436.7 361.162258 
L 435.6 361.162258 
L 434.5 104647.584004 
L 433.4 104647.584004 
L 432.3 104647.584004 
L 431.2 104647.584004 
L 430.1 104647.584004 
L 429 104647.584004 
L 427.9 104647.584004 
L 426.8 104647.584004 
L 425.7 104647.584004 
L 424.6 104647.584004 
L 423.5 104647.584004 
L 422.4 104647.584004 
L 421.3 104647.584004 
L 420.2 104647.584004 
L 419.1 356.850975 
L 418 356.850975 
L 416.9 356.850975 
L 415.8 365.92816 
L 414.7 365.92816 
L 413.6 365.92816 
L 412.5 365.92816 
L 411.4 365.92816 
L 410.3 365.92816 
L 409.2 365.92816 
L 408.1 365.92816 
L 407 365.92816 
L 405.9 365.92816 
L 404.8 365.92816 
L 403.7 365.92816 
L 402.6 104647.584004 
L 401.5 104647.584004 
L 400.4 104647.584004 
L 399.3 104647.584004 
L 398.2 104647.584004 
L 397.1 104647.584004 
L 396 104647.584004 
L 394.9 104647.584004 
L 393.8 104647.584004 
L 392.7 104647.584004 
L 391.6 104647.584004 
L 390.5 104647.584004 
L 389.4 104647.584004 
L 388.3 104647.584004 
L 387.2 392.516241 
L 386.1 397.282144 
L 385 397.282144 
L 383.9 397.282144 
L 382.8 397.282144 
L 381.7 397.282144 
L 380.6 397.282144 
L 379.5 397.282144 
L 378.4 397.282144 
L 377.3 402.609969 
L 376.2 402.609969 
L 375.1 402.609969 
L 374 402.609969 
L 372.9 408.65016 
L 371.8 423.870224 
L 370.7 423.870224 
L 369.6 423.870224 
L 368.5 423.870224 
L 367.4 423.870224 
L 366.3 423.870224 
L 365.2 423.870224 
L 364.1 465.317936 
L 363 465.317936 
L 361.9 465.317936 
L 360.8 465.317936 
L 359.7 465.317936 
L 358.6 465.317936 
L 357.5 465.317936 
L 356.4 465.317936 
L 355.3 465.317936 
L 354.2 496.671919 
L 353.1 496.671919 
L 352 496.671919 
L 350.9 496.671919 
L 349.8 496.671919 
L 348.7 496.671919 
L 347.6 496.671919 
L 346.5 496.671919 
L 345.4 496.671919 
L 344.3 496.671919 
L 343.2 496.671919 
L 342.1 496.671919 
L 341 496.671919 
L 339.9 496.671919 
L 338.8 496.671919 
L 337.7 496.671919 
L 336.6 496.671919 
L 335.5 496.671919 
L 334.4 496.671919 
L 333.3 496.671919 
L 332.2 496.671919 
L 331.1 496.671919 
L 330 496.671919 
L 328.9 496.671919 
L 327.8 496.671919 
L 326.7 496.671919 
L 325.6 496.671919 
L 324.5 496.671919 
L 323.4 104647.584004 
L 322.3 104647.584004 
L 321.2 104647.584004 
L 320.1 104647.584004 
L 319 104647.584004 
L 317.9 104647.584004 
L 316.8 104647.584004 
L 315.7 104647.584004 
L 314.6 104647.584004 
L 313.5 104647.584004 
L 312.4 104647.584004 
L 311.3 104647.584004 
L 310.2 104647.584004 
L 309.1 104647.584004 
L 308 104647.584004 
L 306.9 104647.584004 
L 305.8 104647.584004 
L 304.7 104647.584004 
L 303.6 104647.584004 
L 302.5 104647.584004 
L 301.4 104647.584004 
L 300.3 104647.584004 
L 299.2 104647.584004 
L 298.1 104647.584004 
L 297 104647.584004 
L 295.9 104647.584004 
L 294.8 104647.584004 
L 293.7 104647.584004 
L 292.6 104647.584004 
L 291.5 104647.584004 
L 290.4 104647.584004 
L 289.3 104647.584004 
L 288.2 104647.584004 
L 287.1 104647.584004 
L 286 104647.584004 
L 284.9 104647.584004 
L 283.8 104647.584004 
L 282.7 104647.584004 
L 281.6 104647.584004 
L 280.5 104647.584004 
L 279.4 104647.584004 
L 278.3 104647.584004 
L 277.2 104647.584004 
L 276.1 104647.584004 
L 275 104647.584004 
L 273.9 104647.584004 
L 272.8 104647.584004 
L 271.7 104647.584004 
L 270.6 104647.584004 
L 269.5 104647.584004 
L 268.4 104647.584004 
L 267.3 104647.584004 
L 266.2 104647.584004 
L 265.1 104647.584004 
L 264 104647.584004 
L 262.9 104647.584004 
L 261.8 104647.584004 
L 260.7 104647.584004 
L 259.6 104647.584004 
L 258.5 104647.584004 
L 257.4 104647.584004 
L 256.3 104647.584004 
L 255.2 104647.584004 
L 254.1 104647.584004 
L 253 104647.584004 
L 251.9 104647.584004 
L 250.8 104647.584004 
L 249.7 104647.584004 
L 248.6 104647.584004 
L 247.5 104647.584004 
L 246.4 104647.584004 
L 245.3 104647.584004 
L 244.2 104647.584004 
L 243.1 104647.584004 
L 242 104647.584004 
L 240.9 104647.584004 
L 239.8 104647.584004 
L 238.7 104647.584004 
L 237.6 104647.584004 
L 236.5 104647.584004 
L 235.4 465.317936 
L 234.3 460.552033 
L 233.2 460.552033 
L 232.1 460.552033 
L 231 460.552033 
L 229.9 460.552033 
L 228.8 443.74464 
L 227.7 430.343282 
L 226.6 430.343282 
L 225.5 429.19805 
L 224.4 420.018176 
L 223.3 411.617403 
L 222.2 411.617403 
L 221.1 404.535121 
L 220 393.532784 
L 218.9 393.532784 
L 217.8 393.532784 
L 216.7 393.532784 
L 215.6 393.532784 
L 214.5 392.516241 
L 213.4 380.648394 
L 212.3 380.648394 
L 211.2 377.296177 
L 210.1 375.882492 
L 209 375.882492 
L 207.9 375.882492 
L 206.8 370.016614 
L 205.7 367.346278 
L 204.6 367.346278 
L 203.5 364.014644 
L 202.4 364.014644 
L 201.3 364.014644 
L 200.2 363.747775 
L 199.1 361.41426 
L 198 361.162258 
L 196.9 356.850975 
L 195.8 356.850975 
L 194.7 350.668224 
L 193.6 343.496504 
L 192.5 343.496504 
L 191.4 335.848465 
L 190.3 333.334805 
L 189.2 333.334805 
L 188.1 333.334805 
L 187 327.841259 
L 185.9 324.25762 
L 184.8 324.25762 
L 183.7 324.25762 
L 182.6 324.25762 
L 181.5 323.925421 
L 180.4 323.925421 
L 179.3 323.925421 
L 178.2 323.925421 
L 177.1 312.569665 
L 176 308.548019 
L 174.9 312.569665 
L 173.8 309.580628 
L 172.7 309.580628 
L 171.6 309.580628 
L 170.5 309.580628 
L 169.4 296.547467 
L 168.3 295.417296 
L 167.2 295.417296 
L 166.1 295.417296 
L 165 294.372043 
L 163.9 294.372043 
L 162.8 294.372043 
L 161.7 292.737232 
L 160.6 292.737232 
L 159.5 292.737232 
L 158.4 294.372043 
L 157.3 296.127796 
L 156.2 296.127796 
L 155.1 296.127796 
L 154 300.642433 
L 152.9 303.220194 
L 151.8 303.430098 
L 150.7 307.461725 
L 149.6 307.461725 
L 148.5 315.129944 
L 147.4 315.129944 
L 146.3 315.129944 
L 145.2 316.984066 
L 144.1 316.984066 
L 143 318.81879 
L 141.9 320.937168 
L 140.8 334.574177 
L 139.7 343.326769 
L 138.6 343.326769 
L 137.5 348.909436 
L 136.4 357.080009 
L 135.3 364.014644 
L 134.2 369.409434 
L 133.1 410.857146 
L 132 410.857146 
L 130.9 413.977985 
L 129.8 460.552033 
L 128.7 460.552033 
L 127.6 460.552033 
L 126.5 460.552033 
L 125.4 460.552033 
L 124.3 462.872246 
L 123.2 491.906017 
L 122.1 491.906017 
L 121 496.671919 
L 119.9 104647.584004 
L 118.8 104647.584004 
L 117.7 104647.584004 
L 116.6 104647.584004 
L 115.5 104647.584004 
L 114.4 104647.584004 
L 113.3 104647.584004 
L 112.2 104647.584004 
L 111.1 104647.584004 
L 110 104647.584004 
L 108.9 104647.584004 
L 107.8 104647.584004 
L 106.7 104647.584004 
L 105.6 104647.584004 
L 104.5 104647.584004 
L 103.4 104647.584004 
L 102.3 104647.584004 
L 101.2 104647.584004 
L 100.1 104647.584004 
L 99 104647.584004 
z
" style="fill:#ff8080;fill-opacity:0.5;stroke:#ff8080;stroke-opacity:0.5;"/>
   </g>
   <g id="matplotlib.axis_1">
    <g id="xtick_1">
     <g id="line2d_1">
      <path clip-path="url(#p68e2955192)" d="M 99 544.68 
L 99 73.44 
" style="fill:none;stroke:#b0b0b0;stroke-linecap:square;stroke-width:0.8;"/>
     </g>
     <g id="line2d_2">
      <defs>
       <path d="M 0 0 
L 0 3.5 
" id="m4abed1d830" style="stroke:#000000;stroke-width:0.8;"/>
      </defs>
      <g>
       <use style="stroke:#000000;stroke-width:0.8;" x="99" xlink:href="#m4abed1d830" y="544.68"/>
      </g>
     </g>
    </g>
    <g id="xtick_2">
     <g id="line2d_3">
      <path clip-path="url(#p68e2955192)" d="M 125.4 544.68 
L 125.4 73.44 
" style="fill:none;stroke:#b0b0b0;stroke-linecap:square;stroke-width:0.8;"/>
     </g>
     <g id="line2d_4">
      <g>
       <use style="stroke:#000000;stroke-width:0.8;" x="125.4" xlink:href="#m4abed1d830" y="544.68"/>
      </g>
     </g>
     <g id="text_1">
      <!-- Apr -->
      <g transform="translate(116.75 559.278437)scale(0.1 -0.1)">
       <defs>
        <path d="M 2188 4044 
L 1331 1722 
L 3047 1722 
L 2188 4044 
z
M 1831 4666 
L 2547 4666 
L 4325 0 
L 3669 0 
L 3244 1197 
L 1141 1197 
L 716 0 
L 50 0 
L 1831 4666 
z
" id="DejaVuSans-41" transform="scale(0.015625)"/>
        <path d="M 1159 525 
L 1159 -1331 
L 581 -1331 
L 581 3500 
L 1159 3500 
L 1159 2969 
Q 1341 3281 1617 3432 
Q 1894 3584 2278 3584 
Q 2916 3584 3314 3078 
Q 3713 2572 3713 1747 
Q 3713 922 3314 415 
Q 2916 -91 2278 -91 
Q 1894 -91 1617 61 
Q 1341 213 1159 525 
z
M 3116 1747 
Q 3116 2381 2855 2742 
Q 2594 3103 2138 3103 
Q 1681 3103 1420 2742 
Q 1159 2381 1159 1747 
Q 1159 1113 1420 752 
Q 1681 391 2138 391 
Q 2594 391 2855 752 
Q 3116 1113 3116 1747 
z
" id="DejaVuSans-70" transform="scale(0.015625)"/>
        <path d="M 2631 2963 
Q 2534 3019 2420 3045 
Q 2306 3072 2169 3072 
Q 1681 3072 1420 2755 
Q 1159 2438 1159 1844 
L 1159 0 
L 581 0 
L 581 3500 
L 1159 3500 
L 1159 2956 
Q 1341 3275 1631 3429 
Q 1922 3584 2338 3584 
Q 2397 3584 2469 3576 
Q 2541 3569 2628 3553 
L 2631 2963 
z
" id="DejaVuSans-72" transform="scale(0.015625)"/>
       </defs>
       <use xlink:href="#DejaVuSans-41"/>
       <use x="68.408203" xlink:href="#DejaVuSans-70"/>
       <use x="131.884766" xlink:href="#DejaVuSans-72"/>
      </g>
     </g>
    </g>
    <g id="xtick_3">
     <g id="line2d_5">
      <path clip-path="url(#p68e2955192)" d="M 225.5 544.68 
L 225.5 73.44 
" style="fill:none;stroke:#b0b0b0;stroke-linecap:square;stroke-width:0.8;"/>
     </g>
     <g id="line2d_6">
      <g>
       <use style="stroke:#000000;stroke-width:0.8;" x="225.5" xlink:href="#m4abed1d830" y="544.68"/>
      </g>
     </g>
     <g id="text_2">
      <!-- Jul -->
      <g transform="translate(219.467187 559.278437)scale(0.1 -0.1)">
       <defs>
        <path d="M 628 4666 
L 1259 4666 
L 1259 325 
Q 1259 -519 939 -900 
Q 619 -1281 -91 -1281 
L -331 -1281 
L -331 -750 
L -134 -750 
Q 284 -750 456 -515 
Q 628 -281 628 325 
L 628 4666 
z
" id="DejaVuSans-4a" transform="scale(0.015625)"/>
        <path d="M 544 1381 
L 544 3500 
L 1119 3500 
L 1119 1403 
Q 1119 906 1312 657 
Q 1506 409 1894 409 
Q 2359 409 2629 706 
Q 2900 1003 2900 1516 
L 2900 3500 
L 3475 3500 
L 3475 0 
L 2900 0 
L 2900 538 
Q 2691 219 2414 64 
Q 2138 -91 1772 -91 
Q 1169 -91 856 284 
Q 544 659 544 1381 
z
M 1991 3584 
L 1991 3584 
z
" id="DejaVuSans-75" transform="scale(0.015625)"/>
        <path d="M 603 4863 
L 1178 4863 
L 1178 0 
L 603 0 
L 603 4863 
z
" id="DejaVuSans-6c" transform="scale(0.015625)"/>
       </defs>
       <use xlink:href="#DejaVuSans-4a"/>
       <use x="29.492188" xlink:href="#DejaVuSans-75"/>
       <use x="92.871094" xlink:href="#DejaVuSans-6c"/>
      </g>
     </g>
    </g>
    <g id="xtick_4">
     <g id="line2d_7">
      <path clip-path="url(#p68e2955192)" d="M 326.7 544.68 
L 326.7 73.44 
" style="fill:none;stroke:#b0b0b0;stroke-linecap:square;stroke-width:0.8;"/>
     </g>
     <g id="line2d_8">
      <g>
       <use style="stroke:#000000;stroke-width:0.8;" x="326.7" xlink:href="#m4abed1d830" y="544.68"/>
      </g>
     </g>
     <g id="text_3">
      <!-- Oct -->
      <g transform="translate(318.054688 559.278437)scale(0.1 -0.1)">
       <defs>
        <path d="M 2522 4238 
Q 1834 4238 1429 3725 
Q 1025 3213 1025 2328 
Q 1025 1447 1429 934 
Q 1834 422 2522 422 
Q 3209 422 3611 934 
Q 4013 1447 4013 2328 
Q 4013 3213 3611 3725 
Q 3209 4238 2522 4238 
z
M 2522 4750 
Q 3503 4750 4090 4092 
Q 4678 3434 4678 2328 
Q 4678 1225 4090 567 
Q 3503 -91 2522 -91 
Q 1538 -91 948 565 
Q 359 1222 359 2328 
Q 359 3434 948 4092 
Q 1538 4750 2522 4750 
z
" id="DejaVuSans-4f" transform="scale(0.015625)"/>
        <path d="M 3122 3366 
L 3122 2828 
Q 2878 2963 2633 3030 
Q 2388 3097 2138 3097 
Q 1578 3097 1268 2742 
Q 959 2388 959 1747 
Q 959 1106 1268 751 
Q 1578 397 2138 397 
Q 2388 397 2633 464 
Q 2878 531 3122 666 
L 3122 134 
Q 2881 22 2623 -34 
Q 2366 -91 2075 -91 
Q 1284 -91 818 406 
Q 353 903 353 1747 
Q 353 2603 823 3093 
Q 1294 3584 2113 3584 
Q 2378 3584 2631 3529 
Q 2884 3475 3122 3366 
z
" id="DejaVuSans-63" transform="scale(0.015625)"/>
        <path d="M 1172 4494 
L 1172 3500 
L 2356 3500 
L 2356 3053 
L 1172 3053 
L 1172 1153 
Q 1172 725 1289 603 
Q 1406 481 1766 481 
L 2356 481 
L 2356 0 
L 1766 0 
Q 1100 0 847 248 
Q 594 497 594 1153 
L 594 3053 
L 172 3053 
L 172 3500 
L 594 3500 
L 594 4494 
L 1172 4494 
z
" id="DejaVuSans-74" transform="scale(0.015625)"/>
       </defs>
       <use xlink:href="#DejaVuSans-4f"/>
       <use x="78.710938" xlink:href="#DejaVuSans-63"/>
       <use x="133.691406" xlink:href="#DejaVuSans-74"/>
      </g>
     </g>
    </g>
    <g id="xtick_5">
     <g id="line2d_9">
      <path clip-path="url(#p68e2955192)" d="M 427.9 544.68 
L 427.9 73.44 
" style="fill:none;stroke:#b0b0b0;stroke-linecap:square;stroke-width:0.8;"/>
     </g>
     <g id="line2d_10">
      <g>
       <use style="stroke:#000000;stroke-width:0.8;" x="427.9" xlink:href="#m4abed1d830" y="544.68"/>
      </g>
     </g>
     <g id="text_4">
      <!-- Jan -->
      <g transform="translate(420.192188 559.278437)scale(0.1 -0.1)">
       <defs>
        <path d="M 2194 1759 
Q 1497 1759 1228 1600 
Q 959 1441 959 1056 
Q 959 750 1161 570 
Q 1363 391 1709 391 
Q 2188 391 2477 730 
Q 2766 1069 2766 1631 
L 2766 1759 
L 2194 1759 
z
M 3341 1997 
L 3341 0 
L 2766 0 
L 2766 531 
Q 2569 213 2275 61 
Q 1981 -91 1556 -91 
Q 1019 -91 701 211 
Q 384 513 384 1019 
Q 384 1609 779 1909 
Q 1175 2209 1959 2209 
L 2766 2209 
L 2766 2266 
Q 2766 2663 2505 2880 
Q 2244 3097 1772 3097 
Q 1472 3097 1187 3025 
Q 903 2953 641 2809 
L 641 3341 
Q 956 3463 1253 3523 
Q 1550 3584 1831 3584 
Q 2591 3584 2966 3190 
Q 3341 2797 3341 1997 
z
" id="DejaVuSans-61" transform="scale(0.015625)"/>
        <path d="M 3513 2113 
L 3513 0 
L 2938 0 
L 2938 2094 
Q 2938 2591 2744 2837 
Q 2550 3084 2163 3084 
Q 1697 3084 1428 2787 
Q 1159 2491 1159 1978 
L 1159 0 
L 581 0 
L 581 3500 
L 1159 3500 
L 1159 2956 
Q 1366 3272 1645 3428 
Q 1925 3584 2291 3584 
Q 2894 3584 3203 3211 
Q 3513 2838 3513 2113 
z
" id="DejaVuSans-6e" transform="scale(0.015625)"/>
       </defs>
       <use xlink:href="#DejaVuSans-4a"/>
       <use x="29.492188" xlink:href="#DejaVuSans-61"/>
       <use x="90.771484" xlink:href="#DejaVuSans-6e"/>
      </g>
      <!-- 2021 -->
      <g transform="translate(415.175 570.47625)scale(0.1 -0.1)">
       <defs>
        <path d="M 1228 531 
L 3431 531 
L 3431 0 
L 469 0 
L 469 531 
Q 828 903 1448 1529 
Q 2069 2156 2228 2338 
Q 2531 2678 2651 2914 
Q 2772 3150 2772 3378 
Q 2772 3750 2511 3984 
Q 2250 4219 1831 4219 
Q 1534 4219 1204 4116 
Q 875 4013 500 3803 
L 500 4441 
Q 881 4594 1212 4672 
Q 1544 4750 1819 4750 
Q 2544 4750 2975 4387 
Q 3406 4025 3406 3419 
Q 3406 3131 3298 2873 
Q 3191 2616 2906 2266 
Q 2828 2175 2409 1742 
Q 1991 1309 1228 531 
z
" id="DejaVuSans-32" transform="scale(0.015625)"/>
        <path d="M 2034 4250 
Q 1547 4250 1301 3770 
Q 1056 3291 1056 2328 
Q 1056 1369 1301 889 
Q 1547 409 2034 409 
Q 2525 409 2770 889 
Q 3016 1369 3016 2328 
Q 3016 3291 2770 3770 
Q 2525 4250 2034 4250 
z
M 2034 4750 
Q 2819 4750 3233 4129 
Q 3647 3509 3647 2328 
Q 3647 1150 3233 529 
Q 2819 -91 2034 -91 
Q 1250 -91 836 529 
Q 422 1150 422 2328 
Q 422 3509 836 4129 
Q 1250 4750 2034 4750 
z
" id="DejaVuSans-30" transform="scale(0.015625)"/>
        <path d="M 794 531 
L 1825 531 
L 1825 4091 
L 703 3866 
L 703 4441 
L 1819 4666 
L 2450 4666 
L 2450 531 
L 3481 531 
L 3481 0 
L 794 0 
L 794 531 
z
" id="DejaVuSans-31" transform="scale(0.015625)"/>
       </defs>
       <use xlink:href="#DejaVuSans-32"/>
       <use x="63.623047" xlink:href="#DejaVuSans-30"/>
       <use x="127.246094" xlink:href="#DejaVuSans-32"/>
       <use x="190.869141" xlink:href="#DejaVuSans-31"/>
      </g>
     </g>
    </g>
    <g id="xtick_6">
     <g id="line2d_11">
      <path clip-path="url(#p68e2955192)" d="M 526.9 544.68 
L 526.9 73.44 
" style="fill:none;stroke:#b0b0b0;stroke-linecap:square;stroke-width:0.8;"/>
     </g>
     <g id="line2d_12">
      <g>
       <use style="stroke:#000000;stroke-width:0.8;" x="526.9" xlink:href="#m4abed1d830" y="544.68"/>
      </g>
     </g>
     <g id="text_5">
      <!-- Apr -->
      <g transform="translate(518.25 559.278437)scale(0.1 -0.1)">
       <use xlink:href="#DejaVuSans-41"/>
       <use x="68.408203" xlink:href="#DejaVuSans-70"/>
       <use x="131.884766" xlink:href="#DejaVuSans-72"/>
      </g>
     </g>
    </g>
    <g id="xtick_7">
     <g id="line2d_13">
      <path clip-path="url(#p68e2955192)" d="M 627 544.68 
L 627 73.44 
" style="fill:none;stroke:#b0b0b0;stroke-linecap:square;stroke-width:0.8;"/>
     </g>
     <g id="line2d_14">
      <g>
       <use style="stroke:#000000;stroke-width:0.8;" x="627" xlink:href="#m4abed1d830" y="544.68"/>
      </g>
     </g>
     <g id="text_6">
      <!-- Jul -->
      <g transform="translate(620.967188 559.278437)scale(0.1 -0.1)">
       <use xlink:href="#DejaVuSans-4a"/>
       <use x="29.492188" xlink:href="#DejaVuSans-75"/>
       <use x="92.871094" xlink:href="#DejaVuSans-6c"/>
      </g>
     </g>
    </g>
    <g id="xtick_8">
     <g id="line2d_15">
      <path clip-path="url(#p68e2955192)" d="M 712.8 544.68 
L 712.8 73.44 
" style="fill:none;stroke:#b0b0b0;stroke-linecap:square;stroke-width:0.8;"/>
     </g>
     <g id="line2d_16">
      <g>
       <use style="stroke:#000000;stroke-width:0.8;" x="712.8" xlink:href="#m4abed1d830" y="544.68"/>
      </g>
     </g>
    </g>
    <g id="xtick_9">
     <g id="line2d_17">
      <defs>
       <path d="M 0 0 
L 0 2 
" id="mbe9820739d" style="stroke:#000000;stroke-width:0.6;"/>
      </defs>
      <g>
       <use style="stroke:#000000;stroke-width:0.6;" x="158.4" xlink:href="#mbe9820739d" y="544.68"/>
      </g>
     </g>
    </g>
    <g id="xtick_10">
     <g id="line2d_18">
      <g>
       <use style="stroke:#000000;stroke-width:0.6;" x="192.5" xlink:href="#mbe9820739d" y="544.68"/>
      </g>
     </g>
    </g>
    <g id="xtick_11">
     <g id="line2d_19">
      <g>
       <use style="stroke:#000000;stroke-width:0.6;" x="259.6" xlink:href="#mbe9820739d" y="544.68"/>
      </g>
     </g>
    </g>
    <g id="xtick_12">
     <g id="line2d_20">
      <g>
       <use style="stroke:#000000;stroke-width:0.6;" x="293.7" xlink:href="#mbe9820739d" y="544.68"/>
      </g>
     </g>
    </g>
    <g id="xtick_13">
     <g id="line2d_21">
      <g>
       <use style="stroke:#000000;stroke-width:0.6;" x="360.8" xlink:href="#mbe9820739d" y="544.68"/>
      </g>
     </g>
    </g>
    <g id="xtick_14">
     <g id="line2d_22">
      <g>
       <use style="stroke:#000000;stroke-width:0.6;" x="393.8" xlink:href="#mbe9820739d" y="544.68"/>
      </g>
     </g>
    </g>
    <g id="xtick_15">
     <g id="line2d_23">
      <g>
       <use style="stroke:#000000;stroke-width:0.6;" x="462" xlink:href="#mbe9820739d" y="544.68"/>
      </g>
     </g>
    </g>
    <g id="xtick_16">
     <g id="line2d_24">
      <g>
       <use style="stroke:#000000;stroke-width:0.6;" x="492.8" xlink:href="#mbe9820739d" y="544.68"/>
      </g>
     </g>
    </g>
    <g id="xtick_17">
     <g id="line2d_25">
      <g>
       <use style="stroke:#000000;stroke-width:0.6;" x="559.9" xlink:href="#mbe9820739d" y="544.68"/>
      </g>
     </g>
    </g>
    <g id="xtick_18">
     <g id="line2d_26">
      <g>
       <use style="stroke:#000000;stroke-width:0.6;" x="594" xlink:href="#mbe9820739d" y="544.68"/>
      </g>
     </g>
    </g>
    <g id="xtick_19">
     <g id="line2d_27">
      <g>
       <use style="stroke:#000000;stroke-width:0.6;" x="661.1" xlink:href="#mbe9820739d" y="544.68"/>
      </g>
     </g>
    </g>
    <g id="xtick_20">
     <g id="line2d_28">
      <g>
       <use style="stroke:#000000;stroke-width:0.6;" x="695.2" xlink:href="#mbe9820739d" y="544.68"/>
      </g>
     </g>
    </g>
    <g id="text_7">
     <!-- Date -->
     <g transform="translate(393.949219 584.154375)scale(0.1 -0.1)">
      <defs>
       <path d="M 1259 4147 
L 1259 519 
L 2022 519 
Q 2988 519 3436 956 
Q 3884 1394 3884 2338 
Q 3884 3275 3436 3711 
Q 2988 4147 2022 4147 
L 1259 4147 
z
M 628 4666 
L 1925 4666 
Q 3281 4666 3915 4102 
Q 4550 3538 4550 2338 
Q 4550 1131 3912 565 
Q 3275 0 1925 0 
L 628 0 
L 628 4666 
z
" id="DejaVuSans-44" transform="scale(0.015625)"/>
       <path d="M 3597 1894 
L 3597 1613 
L 953 1613 
Q 991 1019 1311 708 
Q 1631 397 2203 397 
Q 2534 397 2845 478 
Q 3156 559 3463 722 
L 3463 178 
Q 3153 47 2828 -22 
Q 2503 -91 2169 -91 
Q 1331 -91 842 396 
Q 353 884 353 1716 
Q 353 2575 817 3079 
Q 1281 3584 2069 3584 
Q 2775 3584 3186 3129 
Q 3597 2675 3597 1894 
z
M 3022 2063 
Q 3016 2534 2758 2815 
Q 2500 3097 2075 3097 
Q 1594 3097 1305 2825 
Q 1016 2553 972 2059 
L 3022 2063 
z
" id="DejaVuSans-65" transform="scale(0.015625)"/>
      </defs>
      <use xlink:href="#DejaVuSans-44"/>
      <use x="77.001953" xlink:href="#DejaVuSans-61"/>
      <use x="138.28125" xlink:href="#DejaVuSans-74"/>
      <use x="177.490234" xlink:href="#DejaVuSans-65"/>
     </g>
    </g>
   </g>
   <g id="matplotlib.axis_2">
    <g id="ytick_1">
     <g id="line2d_29">
      <path clip-path="url(#p68e2955192)" d="M 99 491.906017 
L 712.8 491.906017 
" style="fill:none;stroke:#b0b0b0;stroke-linecap:square;stroke-width:0.8;"/>
     </g>
     <g id="line2d_30">
      <defs>
       <path d="M 0 0 
L -3.5 0 
" id="me91a084207" style="stroke:#000000;stroke-width:0.8;"/>
      </defs>
      <g>
       <use style="stroke:#000000;stroke-width:0.8;" x="99" xlink:href="#me91a084207" y="491.906017"/>
      </g>
     </g>
     <g id="text_8">
      <!-- $\mathdefault{10^{0}}$ -->
      <g transform="translate(74.4 495.705235)scale(0.1 -0.1)">
       <use transform="translate(0 0.765625)" xlink:href="#DejaVuSans-31"/>
       <use transform="translate(63.623047 0.765625)" xlink:href="#DejaVuSans-30"/>
       <use transform="translate(128.203125 39.046875)scale(0.7)" xlink:href="#DejaVuSans-30"/>
      </g>
     </g>
    </g>
    <g id="ytick_2">
     <g id="line2d_31">
      <path clip-path="url(#p68e2955192)" d="M 99 387.750339 
L 712.8 387.750339 
" style="fill:none;stroke:#b0b0b0;stroke-linecap:square;stroke-width:0.8;"/>
     </g>
     <g id="line2d_32">
      <g>
       <use style="stroke:#000000;stroke-width:0.8;" x="99" xlink:href="#me91a084207" y="387.750339"/>
      </g>
     </g>
     <g id="text_9">
      <!-- $\mathdefault{10^{1}}$ -->
      <g transform="translate(74.4 391.549557)scale(0.1 -0.1)">
       <use transform="translate(0 0.684375)" xlink:href="#DejaVuSans-31"/>
       <use transform="translate(63.623047 0.684375)" xlink:href="#DejaVuSans-30"/>
       <use transform="translate(128.203125 38.965625)scale(0.7)" xlink:href="#DejaVuSans-31"/>
      </g>
     </g>
    </g>
    <g id="ytick_3">
     <g id="line2d_33">
      <path clip-path="url(#p68e2955192)" d="M 99 283.594661 
L 712.8 283.594661 
" style="fill:none;stroke:#b0b0b0;stroke-linecap:square;stroke-width:0.8;"/>
     </g>
     <g id="line2d_34">
      <g>
       <use style="stroke:#000000;stroke-width:0.8;" x="99" xlink:href="#me91a084207" y="283.594661"/>
      </g>
     </g>
     <g id="text_10">
      <!-- $\mathdefault{10^{2}}$ -->
      <g transform="translate(74.4 287.393879)scale(0.1 -0.1)">
       <use transform="translate(0 0.765625)" xlink:href="#DejaVuSans-31"/>
       <use transform="translate(63.623047 0.765625)" xlink:href="#DejaVuSans-30"/>
       <use transform="translate(128.203125 39.046875)scale(0.7)" xlink:href="#DejaVuSans-32"/>
      </g>
     </g>
    </g>
    <g id="ytick_4">
     <g id="line2d_35">
      <path clip-path="url(#p68e2955192)" d="M 99 179.438983 
L 712.8 179.438983 
" style="fill:none;stroke:#b0b0b0;stroke-linecap:square;stroke-width:0.8;"/>
     </g>
     <g id="line2d_36">
      <g>
       <use style="stroke:#000000;stroke-width:0.8;" x="99" xlink:href="#me91a084207" y="179.438983"/>
      </g>
     </g>
     <g id="text_11">
      <!-- $\mathdefault{10^{3}}$ -->
      <g transform="translate(74.4 183.238201)scale(0.1 -0.1)">
       <defs>
        <path d="M 2597 2516 
Q 3050 2419 3304 2112 
Q 3559 1806 3559 1356 
Q 3559 666 3084 287 
Q 2609 -91 1734 -91 
Q 1441 -91 1130 -33 
Q 819 25 488 141 
L 488 750 
Q 750 597 1062 519 
Q 1375 441 1716 441 
Q 2309 441 2620 675 
Q 2931 909 2931 1356 
Q 2931 1769 2642 2001 
Q 2353 2234 1838 2234 
L 1294 2234 
L 1294 2753 
L 1863 2753 
Q 2328 2753 2575 2939 
Q 2822 3125 2822 3475 
Q 2822 3834 2567 4026 
Q 2313 4219 1838 4219 
Q 1578 4219 1281 4162 
Q 984 4106 628 3988 
L 628 4550 
Q 988 4650 1302 4700 
Q 1616 4750 1894 4750 
Q 2613 4750 3031 4423 
Q 3450 4097 3450 3541 
Q 3450 3153 3228 2886 
Q 3006 2619 2597 2516 
z
" id="DejaVuSans-33" transform="scale(0.015625)"/>
       </defs>
       <use transform="translate(0 0.765625)" xlink:href="#DejaVuSans-31"/>
       <use transform="translate(63.623047 0.765625)" xlink:href="#DejaVuSans-30"/>
       <use transform="translate(128.203125 39.046875)scale(0.7)" xlink:href="#DejaVuSans-33"/>
      </g>
     </g>
    </g>
    <g id="ytick_5">
     <g id="line2d_37">
      <path clip-path="url(#p68e2955192)" d="M 99 75.283305 
L 712.8 75.283305 
" style="fill:none;stroke:#b0b0b0;stroke-linecap:square;stroke-width:0.8;"/>
     </g>
     <g id="line2d_38">
      <g>
       <use style="stroke:#000000;stroke-width:0.8;" x="99" xlink:href="#me91a084207" y="75.283305"/>
      </g>
     </g>
     <g id="text_12">
      <!-- $\mathdefault{10^{4}}$ -->
      <g transform="translate(74.4 79.082524)scale(0.1 -0.1)">
       <defs>
        <path d="M 2419 4116 
L 825 1625 
L 2419 1625 
L 2419 4116 
z
M 2253 4666 
L 3047 4666 
L 3047 1625 
L 3713 1625 
L 3713 1100 
L 3047 1100 
L 3047 0 
L 2419 0 
L 2419 1100 
L 313 1100 
L 313 1709 
L 2253 4666 
z
" id="DejaVuSans-34" transform="scale(0.015625)"/>
       </defs>
       <use transform="translate(0 0.684375)" xlink:href="#DejaVuSans-31"/>
       <use transform="translate(63.623047 0.684375)" xlink:href="#DejaVuSans-30"/>
       <use transform="translate(128.203125 38.965625)scale(0.7)" xlink:href="#DejaVuSans-34"/>
      </g>
     </g>
    </g>
    <g id="ytick_6">
     <g id="line2d_39">
      <path clip-path="url(#p68e2955192)" d="M 99 533.353728 
L 712.8 533.353728 
" style="fill:none;stroke:#b0b0b0;stroke-linecap:square;stroke-width:0.8;"/>
     </g>
     <g id="line2d_40">
      <defs>
       <path d="M 0 0 
L -2 0 
" id="m0cb60b688e" style="stroke:#000000;stroke-width:0.6;"/>
      </defs>
      <g>
       <use style="stroke:#000000;stroke-width:0.6;" x="99" xlink:href="#m0cb60b688e" y="533.353728"/>
      </g>
     </g>
    </g>
    <g id="ytick_7">
     <g id="line2d_41">
      <path clip-path="url(#p68e2955192)" d="M 99 523.26 
L 712.8 523.26 
" style="fill:none;stroke:#b0b0b0;stroke-linecap:square;stroke-width:0.8;"/>
     </g>
     <g id="line2d_42">
      <g>
       <use style="stroke:#000000;stroke-width:0.6;" x="99" xlink:href="#m0cb60b688e" y="523.26"/>
      </g>
     </g>
    </g>
    <g id="ytick_8">
     <g id="line2d_43">
      <path clip-path="url(#p68e2955192)" d="M 99 515.012824 
L 712.8 515.012824 
" style="fill:none;stroke:#b0b0b0;stroke-linecap:square;stroke-width:0.8;"/>
     </g>
     <g id="line2d_44">
      <g>
       <use style="stroke:#000000;stroke-width:0.6;" x="99" xlink:href="#m0cb60b688e" y="515.012824"/>
      </g>
     </g>
    </g>
    <g id="ytick_9">
     <g id="line2d_45">
      <path clip-path="url(#p68e2955192)" d="M 99 508.039935 
L 712.8 508.039935 
" style="fill:none;stroke:#b0b0b0;stroke-linecap:square;stroke-width:0.8;"/>
     </g>
     <g id="line2d_46">
      <g>
       <use style="stroke:#000000;stroke-width:0.6;" x="99" xlink:href="#m0cb60b688e" y="508.039935"/>
      </g>
     </g>
    </g>
    <g id="ytick_10">
     <g id="line2d_47">
      <path clip-path="url(#p68e2955192)" d="M 99 501.999745 
L 712.8 501.999745 
" style="fill:none;stroke:#b0b0b0;stroke-linecap:square;stroke-width:0.8;"/>
     </g>
     <g id="line2d_48">
      <g>
       <use style="stroke:#000000;stroke-width:0.6;" x="99" xlink:href="#m0cb60b688e" y="501.999745"/>
      </g>
     </g>
    </g>
    <g id="ytick_11">
     <g id="line2d_49">
      <path clip-path="url(#p68e2955192)" d="M 99 496.671919 
L 712.8 496.671919 
" style="fill:none;stroke:#b0b0b0;stroke-linecap:square;stroke-width:0.8;"/>
     </g>
     <g id="line2d_50">
      <g>
       <use style="stroke:#000000;stroke-width:0.6;" x="99" xlink:href="#m0cb60b688e" y="496.671919"/>
      </g>
     </g>
    </g>
    <g id="ytick_12">
     <g id="line2d_51">
      <path clip-path="url(#p68e2955192)" d="M 99 460.552033 
L 712.8 460.552033 
" style="fill:none;stroke:#b0b0b0;stroke-linecap:square;stroke-width:0.8;"/>
     </g>
     <g id="line2d_52">
      <g>
       <use style="stroke:#000000;stroke-width:0.6;" x="99" xlink:href="#m0cb60b688e" y="460.552033"/>
      </g>
     </g>
    </g>
    <g id="ytick_13">
     <g id="line2d_53">
      <path clip-path="url(#p68e2955192)" d="M 99 442.211129 
L 712.8 442.211129 
" style="fill:none;stroke:#b0b0b0;stroke-linecap:square;stroke-width:0.8;"/>
     </g>
     <g id="line2d_54">
      <g>
       <use style="stroke:#000000;stroke-width:0.6;" x="99" xlink:href="#m0cb60b688e" y="442.211129"/>
      </g>
     </g>
    </g>
    <g id="ytick_14">
     <g id="line2d_55">
      <path clip-path="url(#p68e2955192)" d="M 99 429.19805 
L 712.8 429.19805 
" style="fill:none;stroke:#b0b0b0;stroke-linecap:square;stroke-width:0.8;"/>
     </g>
     <g id="line2d_56">
      <g>
       <use style="stroke:#000000;stroke-width:0.6;" x="99" xlink:href="#m0cb60b688e" y="429.19805"/>
      </g>
     </g>
    </g>
    <g id="ytick_15">
     <g id="line2d_57">
      <path clip-path="url(#p68e2955192)" d="M 99 419.104322 
L 712.8 419.104322 
" style="fill:none;stroke:#b0b0b0;stroke-linecap:square;stroke-width:0.8;"/>
     </g>
     <g id="line2d_58">
      <g>
       <use style="stroke:#000000;stroke-width:0.6;" x="99" xlink:href="#m0cb60b688e" y="419.104322"/>
      </g>
     </g>
    </g>
    <g id="ytick_16">
     <g id="line2d_59">
      <path clip-path="url(#p68e2955192)" d="M 99 410.857146 
L 712.8 410.857146 
" style="fill:none;stroke:#b0b0b0;stroke-linecap:square;stroke-width:0.8;"/>
     </g>
     <g id="line2d_60">
      <g>
       <use style="stroke:#000000;stroke-width:0.6;" x="99" xlink:href="#m0cb60b688e" y="410.857146"/>
      </g>
     </g>
    </g>
    <g id="ytick_17">
     <g id="line2d_61">
      <path clip-path="url(#p68e2955192)" d="M 99 403.884257 
L 712.8 403.884257 
" style="fill:none;stroke:#b0b0b0;stroke-linecap:square;stroke-width:0.8;"/>
     </g>
     <g id="line2d_62">
      <g>
       <use style="stroke:#000000;stroke-width:0.6;" x="99" xlink:href="#m0cb60b688e" y="403.884257"/>
      </g>
     </g>
    </g>
    <g id="ytick_18">
     <g id="line2d_63">
      <path clip-path="url(#p68e2955192)" d="M 99 397.844067 
L 712.8 397.844067 
" style="fill:none;stroke:#b0b0b0;stroke-linecap:square;stroke-width:0.8;"/>
     </g>
     <g id="line2d_64">
      <g>
       <use style="stroke:#000000;stroke-width:0.6;" x="99" xlink:href="#m0cb60b688e" y="397.844067"/>
      </g>
     </g>
    </g>
    <g id="ytick_19">
     <g id="line2d_65">
      <path clip-path="url(#p68e2955192)" d="M 99 392.516241 
L 712.8 392.516241 
" style="fill:none;stroke:#b0b0b0;stroke-linecap:square;stroke-width:0.8;"/>
     </g>
     <g id="line2d_66">
      <g>
       <use style="stroke:#000000;stroke-width:0.6;" x="99" xlink:href="#m0cb60b688e" y="392.516241"/>
      </g>
     </g>
    </g>
    <g id="ytick_20">
     <g id="line2d_67">
      <path clip-path="url(#p68e2955192)" d="M 99 356.396355 
L 712.8 356.396355 
" style="fill:none;stroke:#b0b0b0;stroke-linecap:square;stroke-width:0.8;"/>
     </g>
     <g id="line2d_68">
      <g>
       <use style="stroke:#000000;stroke-width:0.6;" x="99" xlink:href="#m0cb60b688e" y="356.396355"/>
      </g>
     </g>
    </g>
    <g id="ytick_21">
     <g id="line2d_69">
      <path clip-path="url(#p68e2955192)" d="M 99 338.055451 
L 712.8 338.055451 
" style="fill:none;stroke:#b0b0b0;stroke-linecap:square;stroke-width:0.8;"/>
     </g>
     <g id="line2d_70">
      <g>
       <use style="stroke:#000000;stroke-width:0.6;" x="99" xlink:href="#m0cb60b688e" y="338.055451"/>
      </g>
     </g>
    </g>
    <g id="ytick_22">
     <g id="line2d_71">
      <path clip-path="url(#p68e2955192)" d="M 99 325.042372 
L 712.8 325.042372 
" style="fill:none;stroke:#b0b0b0;stroke-linecap:square;stroke-width:0.8;"/>
     </g>
     <g id="line2d_72">
      <g>
       <use style="stroke:#000000;stroke-width:0.6;" x="99" xlink:href="#m0cb60b688e" y="325.042372"/>
      </g>
     </g>
    </g>
    <g id="ytick_23">
     <g id="line2d_73">
      <path clip-path="url(#p68e2955192)" d="M 99 314.948644 
L 712.8 314.948644 
" style="fill:none;stroke:#b0b0b0;stroke-linecap:square;stroke-width:0.8;"/>
     </g>
     <g id="line2d_74">
      <g>
       <use style="stroke:#000000;stroke-width:0.6;" x="99" xlink:href="#m0cb60b688e" y="314.948644"/>
      </g>
     </g>
    </g>
    <g id="ytick_24">
     <g id="line2d_75">
      <path clip-path="url(#p68e2955192)" d="M 99 306.701468 
L 712.8 306.701468 
" style="fill:none;stroke:#b0b0b0;stroke-linecap:square;stroke-width:0.8;"/>
     </g>
     <g id="line2d_76">
      <g>
       <use style="stroke:#000000;stroke-width:0.6;" x="99" xlink:href="#m0cb60b688e" y="306.701468"/>
      </g>
     </g>
    </g>
    <g id="ytick_25">
     <g id="line2d_77">
      <path clip-path="url(#p68e2955192)" d="M 99 299.728579 
L 712.8 299.728579 
" style="fill:none;stroke:#b0b0b0;stroke-linecap:square;stroke-width:0.8;"/>
     </g>
     <g id="line2d_78">
      <g>
       <use style="stroke:#000000;stroke-width:0.6;" x="99" xlink:href="#m0cb60b688e" y="299.728579"/>
      </g>
     </g>
    </g>
    <g id="ytick_26">
     <g id="line2d_79">
      <path clip-path="url(#p68e2955192)" d="M 99 293.688389 
L 712.8 293.688389 
" style="fill:none;stroke:#b0b0b0;stroke-linecap:square;stroke-width:0.8;"/>
     </g>
     <g id="line2d_80">
      <g>
       <use style="stroke:#000000;stroke-width:0.6;" x="99" xlink:href="#m0cb60b688e" y="293.688389"/>
      </g>
     </g>
    </g>
    <g id="ytick_27">
     <g id="line2d_81">
      <path clip-path="url(#p68e2955192)" d="M 99 288.360563 
L 712.8 288.360563 
" style="fill:none;stroke:#b0b0b0;stroke-linecap:square;stroke-width:0.8;"/>
     </g>
     <g id="line2d_82">
      <g>
       <use style="stroke:#000000;stroke-width:0.6;" x="99" xlink:href="#m0cb60b688e" y="288.360563"/>
      </g>
     </g>
    </g>
    <g id="ytick_28">
     <g id="line2d_83">
      <path clip-path="url(#p68e2955192)" d="M 99 252.240677 
L 712.8 252.240677 
" style="fill:none;stroke:#b0b0b0;stroke-linecap:square;stroke-width:0.8;"/>
     </g>
     <g id="line2d_84">
      <g>
       <use style="stroke:#000000;stroke-width:0.6;" x="99" xlink:href="#m0cb60b688e" y="252.240677"/>
      </g>
     </g>
    </g>
    <g id="ytick_29">
     <g id="line2d_85">
      <path clip-path="url(#p68e2955192)" d="M 99 233.899773 
L 712.8 233.899773 
" style="fill:none;stroke:#b0b0b0;stroke-linecap:square;stroke-width:0.8;"/>
     </g>
     <g id="line2d_86">
      <g>
       <use style="stroke:#000000;stroke-width:0.6;" x="99" xlink:href="#m0cb60b688e" y="233.899773"/>
      </g>
     </g>
    </g>
    <g id="ytick_30">
     <g id="line2d_87">
      <path clip-path="url(#p68e2955192)" d="M 99 220.886694 
L 712.8 220.886694 
" style="fill:none;stroke:#b0b0b0;stroke-linecap:square;stroke-width:0.8;"/>
     </g>
     <g id="line2d_88">
      <g>
       <use style="stroke:#000000;stroke-width:0.6;" x="99" xlink:href="#m0cb60b688e" y="220.886694"/>
      </g>
     </g>
    </g>
    <g id="ytick_31">
     <g id="line2d_89">
      <path clip-path="url(#p68e2955192)" d="M 99 210.792966 
L 712.8 210.792966 
" style="fill:none;stroke:#b0b0b0;stroke-linecap:square;stroke-width:0.8;"/>
     </g>
     <g id="line2d_90">
      <g>
       <use style="stroke:#000000;stroke-width:0.6;" x="99" xlink:href="#m0cb60b688e" y="210.792966"/>
      </g>
     </g>
    </g>
    <g id="ytick_32">
     <g id="line2d_91">
      <path clip-path="url(#p68e2955192)" d="M 99 202.54579 
L 712.8 202.54579 
" style="fill:none;stroke:#b0b0b0;stroke-linecap:square;stroke-width:0.8;"/>
     </g>
     <g id="line2d_92">
      <g>
       <use style="stroke:#000000;stroke-width:0.6;" x="99" xlink:href="#m0cb60b688e" y="202.54579"/>
      </g>
     </g>
    </g>
    <g id="ytick_33">
     <g id="line2d_93">
      <path clip-path="url(#p68e2955192)" d="M 99 195.572901 
L 712.8 195.572901 
" style="fill:none;stroke:#b0b0b0;stroke-linecap:square;stroke-width:0.8;"/>
     </g>
     <g id="line2d_94">
      <g>
       <use style="stroke:#000000;stroke-width:0.6;" x="99" xlink:href="#m0cb60b688e" y="195.572901"/>
      </g>
     </g>
    </g>
    <g id="ytick_34">
     <g id="line2d_95">
      <path clip-path="url(#p68e2955192)" d="M 99 189.532711 
L 712.8 189.532711 
" style="fill:none;stroke:#b0b0b0;stroke-linecap:square;stroke-width:0.8;"/>
     </g>
     <g id="line2d_96">
      <g>
       <use style="stroke:#000000;stroke-width:0.6;" x="99" xlink:href="#m0cb60b688e" y="189.532711"/>
      </g>
     </g>
    </g>
    <g id="ytick_35">
     <g id="line2d_97">
      <path clip-path="url(#p68e2955192)" d="M 99 184.204885 
L 712.8 184.204885 
" style="fill:none;stroke:#b0b0b0;stroke-linecap:square;stroke-width:0.8;"/>
     </g>
     <g id="line2d_98">
      <g>
       <use style="stroke:#000000;stroke-width:0.6;" x="99" xlink:href="#m0cb60b688e" y="184.204885"/>
      </g>
     </g>
    </g>
    <g id="ytick_36">
     <g id="line2d_99">
      <path clip-path="url(#p68e2955192)" d="M 99 148.084999 
L 712.8 148.084999 
" style="fill:none;stroke:#b0b0b0;stroke-linecap:square;stroke-width:0.8;"/>
     </g>
     <g id="line2d_100">
      <g>
       <use style="stroke:#000000;stroke-width:0.6;" x="99" xlink:href="#m0cb60b688e" y="148.084999"/>
      </g>
     </g>
    </g>
    <g id="ytick_37">
     <g id="line2d_101">
      <path clip-path="url(#p68e2955192)" d="M 99 129.744095 
L 712.8 129.744095 
" style="fill:none;stroke:#b0b0b0;stroke-linecap:square;stroke-width:0.8;"/>
     </g>
     <g id="line2d_102">
      <g>
       <use style="stroke:#000000;stroke-width:0.6;" x="99" xlink:href="#m0cb60b688e" y="129.744095"/>
      </g>
     </g>
    </g>
    <g id="ytick_38">
     <g id="line2d_103">
      <path clip-path="url(#p68e2955192)" d="M 99 116.731016 
L 712.8 116.731016 
" style="fill:none;stroke:#b0b0b0;stroke-linecap:square;stroke-width:0.8;"/>
     </g>
     <g id="line2d_104">
      <g>
       <use style="stroke:#000000;stroke-width:0.6;" x="99" xlink:href="#m0cb60b688e" y="116.731016"/>
      </g>
     </g>
    </g>
    <g id="ytick_39">
     <g id="line2d_105">
      <path clip-path="url(#p68e2955192)" d="M 99 106.637288 
L 712.8 106.637288 
" style="fill:none;stroke:#b0b0b0;stroke-linecap:square;stroke-width:0.8;"/>
     </g>
     <g id="line2d_106">
      <g>
       <use style="stroke:#000000;stroke-width:0.6;" x="99" xlink:href="#m0cb60b688e" y="106.637288"/>
      </g>
     </g>
    </g>
    <g id="ytick_40">
     <g id="line2d_107">
      <path clip-path="url(#p68e2955192)" d="M 99 98.390112 
L 712.8 98.390112 
" style="fill:none;stroke:#b0b0b0;stroke-linecap:square;stroke-width:0.8;"/>
     </g>
     <g id="line2d_108">
      <g>
       <use style="stroke:#000000;stroke-width:0.6;" x="99" xlink:href="#m0cb60b688e" y="98.390112"/>
      </g>
     </g>
    </g>
    <g id="ytick_41">
     <g id="line2d_109">
      <path clip-path="url(#p68e2955192)" d="M 99 91.417223 
L 712.8 91.417223 
" style="fill:none;stroke:#b0b0b0;stroke-linecap:square;stroke-width:0.8;"/>
     </g>
     <g id="line2d_110">
      <g>
       <use style="stroke:#000000;stroke-width:0.6;" x="99" xlink:href="#m0cb60b688e" y="91.417223"/>
      </g>
     </g>
    </g>
    <g id="ytick_42">
     <g id="line2d_111">
      <path clip-path="url(#p68e2955192)" d="M 99 85.377033 
L 712.8 85.377033 
" style="fill:none;stroke:#b0b0b0;stroke-linecap:square;stroke-width:0.8;"/>
     </g>
     <g id="line2d_112">
      <g>
       <use style="stroke:#000000;stroke-width:0.6;" x="99" xlink:href="#m0cb60b688e" y="85.377033"/>
      </g>
     </g>
    </g>
    <g id="ytick_43">
     <g id="line2d_113">
      <path clip-path="url(#p68e2955192)" d="M 99 80.049207 
L 712.8 80.049207 
" style="fill:none;stroke:#b0b0b0;stroke-linecap:square;stroke-width:0.8;"/>
     </g>
     <g id="line2d_114">
      <g>
       <use style="stroke:#000000;stroke-width:0.6;" x="99" xlink:href="#m0cb60b688e" y="80.049207"/>
      </g>
     </g>
    </g>
   </g>
   <g id="line2d_115">
    <path clip-path="url(#p68e2955192)" d="M 113.297761 613 
L 113.3 400.763418 
L 114.4 379.503162 
L 115.5 354.18937 
L 116.6 341.991344 
L 117.7 340.375664 
L 118.8 335.1361 
L 121 296.307179 
L 123.2 275.1594 
L 124.3 259.592097 
L 125.4 248.342495 
L 126.5 243.060803 
L 127.6 240.026206 
L 128.7 238.165845 
L 130.9 223.206907 
L 133.1 215.659501 
L 134.2 209.631905 
L 135.3 205.064835 
L 136.4 197.825144 
L 137.5 197.825144 
L 138.6 188.720182 
L 139.7 188.720182 
L 140.8 188.388186 
L 141.9 183.038926 
L 143 184.204885 
L 146.3 184.204885 
L 147.4 187.030514 
L 148.5 187.030514 
L 149.6 191.852924 
L 150.7 189.90174 
L 151.8 192.241459 
L 152.9 192.241459 
L 154 193.396698 
L 155.1 193.396698 
L 156.2 195.090827 
L 158.4 195.090827 
L 159.5 197.285027 
L 162.8 197.318596 
L 163.9 198.613038 
L 165 197.318596 
L 167.2 199.803481 
L 168.3 202.54579 
L 169.4 204.747122 
L 173.8 204.747122 
L 176 201.5393 
L 177.1 201.5393 
L 178.2 203.229444 
L 179.3 202.696822 
L 180.4 204.0793 
L 181.5 204.747122 
L 182.6 204.945431 
L 183.7 206.894784 
L 184.8 206.894784 
L 185.9 212.264128 
L 187 216.678333 
L 188.1 217.51025 
L 189.2 218.949764 
L 190.3 221.627788 
L 191.4 227.186107 
L 192.5 227.186107 
L 193.6 230.070809 
L 194.7 239.425933 
L 195.8 239.425933 
L 196.9 242.237508 
L 198 242.237508 
L 200.2 249.604928 
L 201.3 254.32344 
L 202.4 254.32344 
L 203.5 258.670261 
L 205.7 258.670261 
L 206.8 262.618007 
L 207.9 265.556328 
L 209 266.014013 
L 210.1 266.014013 
L 211.2 269.852434 
L 212.3 275.1594 
L 213.4 275.1594 
L 214.5 277.076392 
L 215.6 277.667697 
L 216.7 277.076392 
L 217.8 277.667697 
L 218.9 281.820542 
L 220 289.634851 
L 221.1 289.634851 
L 222.2 288.865979 
L 223.3 293.406555 
L 224.4 293.406555 
L 225.5 297.830361 
L 226.6 295.124517 
L 228.8 301.039808 
L 229.9 301.039808 
L 231 298.14125 
L 232.1 301.039808 
L 233.2 298.14125 
L 234.3 298.14125 
L 235.4 296.910311 
L 236.5 298.14125 
L 237.6 303.080797 
L 238.7 298.14125 
L 239.8 303.430098 
L 240.9 298.14125 
L 242 297.830361 
L 243.1 295.711983 
L 247.5 295.711983 
L 248.6 288.612565 
L 249.7 307.079999 
L 250.8 297.521594 
L 254.1 297.521594 
L 255.2 283.594661 
L 256.3 281.820542 
L 257.4 279.078233 
L 262.9 279.078233 
L 264 281.603591 
L 265.1 281.603591 
L 266.2 291.21295 
L 269.5 291.21295 
L 270.6 285.914874 
L 271.7 305.584516 
L 277.2 305.584516 
L 278.3 316.326443 
L 279.4 324.480449 
L 280.5 301.709958 
L 281.6 301.373642 
L 284.9 301.373642 
L 286 320.731089 
L 287.1 301.373642 
L 288.2 297.830361 
L 292.6 297.830361 
L 293.7 282.477709 
L 294.8 279.283378 
L 295.9 282.921186 
L 297 277.469735 
L 299.2 277.469735 
L 300.3 282.921186 
L 301.4 277.469735 
L 302.5 282.921186 
L 309.1 282.921186 
L 311.3 269.852434 
L 314.6 269.852434 
L 315.7 268.861864 
L 316.8 269.685825 
L 317.9 268.861864 
L 319 268.861864 
L 320.1 269.685825 
L 323.4 269.685825 
L 324.5 268.861864 
L 325.6 265.860936 
L 326.7 265.860936 
L 327.8 263.479637 
L 332.2 263.479637 
L 333.3 268.374596 
L 334.4 264.506066 
L 335.5 255.280814 
L 338.8 255.280814 
L 339.9 250.793949 
L 341 257.511996 
L 342.1 260.805607 
L 346.5 260.805607 
L 347.6 246.214625 
L 348.7 233.152083 
L 349.8 233.152083 
L 350.9 224.658398 
L 354.2 224.658398 
L 355.3 218.144386 
L 356.4 214.368425 
L 357.5 211.156295 
L 361.9 211.156295 
L 363 209.018847 
L 364.1 207.817108 
L 365.2 201.909468 
L 366.3 198.959928 
L 369.6 198.959928 
L 370.7 185.582684 
L 371.8 178.322031 
L 372.9 178.322031 
L 374 174.657251 
L 377.3 174.657251 
L 379.5 158.023502 
L 380.6 157.812684 
L 381.7 154.697454 
L 386.1 154.697454 
L 387.2 153.178779 
L 392.7 153.178779 
L 393.8 156.363851 
L 396 156.363851 
L 397.1 161.143335 
L 400.4 161.143335 
L 401.5 155.303572 
L 402.6 150.07313 
L 403.7 140.751677 
L 409.2 140.751677 
L 410.3 141.674559 
L 411.4 141.674559 
L 412.5 141.371334 
L 415.8 141.371334 
L 416.9 141.674559 
L 418 147.366981 
L 419.1 150.60803 
L 420.2 156.404609 
L 424.6 156.404609 
L 425.7 157.075569 
L 426.8 157.075569 
L 427.9 172.144141 
L 429 157.075569 
L 431.2 157.075569 
L 432.3 154.89421 
L 433.4 151.197762 
L 434.5 151.113043 
L 435.6 144.010788 
L 438.9 144.010788 
L 440 139.668512 
L 441.1 131.890056 
L 443.3 131.890056 
L 444.4 139.668512 
L 446.6 139.668512 
L 447.7 141.960074 
L 448.8 147.983337 
L 449.9 150.488616 
L 454.3 150.488616 
L 455.4 153.611159 
L 457.6 153.611159 
L 458.7 159.790296 
L 463.1 159.790296 
L 464.2 165.981407 
L 465.3 168.895159 
L 469.7 168.895159 
L 470.8 175.230622 
L 471.9 183.580955 
L 473 183.580955 
L 474.1 185.298597 
L 477.4 185.298597 
L 478.5 186.604526 
L 479.6 186.604526 
L 480.7 194.995025 
L 488.4 194.995025 
L 489.5 196.651904 
L 492.8 196.651904 
L 493.9 197.757276 
L 495 197.757276 
L 496.1 187.731416 
L 497.2 189.054632 
L 500.5 189.054632 
L 501.6 191.379263 
L 502.7 200.302918 
L 503.8 200.807931 
L 508.2 200.807931 
L 509.3 192.937152 
L 515.9 192.937152 
L 517 189.873246 
L 518.1 185.453333 
L 519.2 178.233855 
L 523.6 178.233855 
L 524.7 171.894599 
L 525.8 171.894599 
L 526.9 166.471161 
L 528 161.935069 
L 532.4 161.935069 
L 533.5 168.23713 
L 534.6 176.974251 
L 540.1 176.974251 
L 541.2 175.292487 
L 542.3 176.974251 
L 543.4 177.231997 
L 546.7 177.231997 
L 547.8 178.322031 
L 548.9 182.527524 
L 550 189.702658 
L 554.4 189.702658 
L 555.5 193.212319 
L 556.6 194.330037 
L 557.7 196.9507 
L 562.1 196.9507 
L 563.2 206.194741 
L 564.3 206.687762 
L 565.4 206.687762 
L 566.5 214.466441 
L 570.9 214.466441 
L 572 217.985017 
L 573.1 217.985017 
L 574.2 219.439965 
L 577.5 219.439965 
L 578.6 222.381227 
L 579.7 234.430608 
L 580.8 248.550469 
L 581.9 253.039285 
L 585.2 253.039285 
L 586.3 256.012381 
L 587.4 258.023122 
L 588.5 261.217454 
L 591.8 261.217454 
L 592.9 274.414787 
L 594 261.217454 
L 595.1 269.685825 
L 596.2 282.921186 
L 600.6 282.921186 
L 601.7 294.25738 
L 602.8 288.865979 
L 603.9 301.039808 
L 605 305.584516 
L 607.2 305.584516 
L 608.3 301.039808 
L 609.4 305.584516 
L 610.5 309.420223 
L 611.6 317.268857 
L 616 317.268857 
L 617.1 322.835386 
L 618.2 326.77128 
L 619.3 326.77128 
L 620.4 322.835386 
L 623.7 322.835386 
L 624.8 325.611364 
L 625.9 322.300064 
L 630.3 322.300064 
L 631.4 326.187604 
L 632.5 326.187604 
L 633.6 319.214716 
L 639.1 319.214716 
L 641.3 304.854916 
L 642.4 293.97199 
L 643.5 293.126466 
L 645.7 293.126466 
L 646.8 277.076392 
L 647.9 277.076392 
L 649 268.374596 
L 650.1 266.631555 
L 653.4 266.631555 
L 654.5 257.511996 
L 655.6 256.755974 
L 656.7 248.969308 
L 657.8 247.316732 
L 658.9 240.112613 
L 662.2 240.112613 
L 663.3 231.406494 
L 664.4 225.028666 
L 665.5 216.626843 
L 666.6 211.753001 
L 669.9 211.753001 
L 671 216.472723 
L 672.1 209.543815 
L 673.2 205.62626 
L 674.3 205.42495 
L 677.6 205.42495 
L 678.7 203.076625 
L 679.8 201.172137 
L 680.9 205.064835 
L 682 207.479537 
L 685.3 207.479537 
L 686.4 205.064835 
L 688.6 205.064835 
L 689.7 200.916885 
L 694.1 200.916885 
L 695.2 196.784459 
L 696.3 195.637568 
L 699.6 195.637568 
L 700.7 197.18447 
L 701.8 197.18447 
L 702.9 195.637568 
L 704 197.18447 
L 705.1 199.239368 
L 709.5 199.239368 
L 710.6 200.663065 
L 712.8 200.663065 
L 712.8 200.663065 
" style="fill:none;stroke:#1f77b4;stroke-linecap:square;stroke-width:1.5;"/>
   </g>
   <g id="line2d_116">
    <path clip-path="url(#p68e2955192)" d="M 117.699052 613 
L 117.7 523.26 
L 118.8 491.906017 
L 119.9 473.565112 
L 121 460.552033 
L 124.3 460.552033 
L 125.4 450.458305 
L 126.5 450.458305 
L 127.6 423.870224 
L 128.7 410.857146 
L 129.8 407.236475 
L 130.9 381.428314 
L 132 365.098151 
L 133.1 359.922886 
L 134.2 352.085072 
L 136.4 338.055451 
L 137.5 333.744168 
L 139.7 319.214716 
L 140.8 317.747531 
L 141.9 312.312894 
L 143 307.461725 
L 145.2 307.461725 
L 146.3 304.854916 
L 147.4 304.854916 
L 148.5 302.048792 
L 149.6 300.708421 
L 151.8 286.634797 
L 155.1 286.634797 
L 156.2 288.612565 
L 157.3 289.377106 
L 158.4 289.377106 
L 159.5 288.109957 
L 161.7 288.109957 
L 162.8 289.377106 
L 163.9 290.417019 
L 165 291.751459 
L 166.1 293.406555 
L 167.2 294.25738 
L 168.3 294.25738 
L 169.4 294.833621 
L 172.7 294.833621 
L 173.8 295.417296 
L 174.9 298.769514 
L 176 297.830361 
L 179.3 308.626619 
L 180.4 310.227998 
L 182.6 311.888157 
L 185.9 311.888157 
L 187 314.052887 
L 188.1 319.714546 
L 189.2 323.37712 
L 190.3 323.37712 
L 191.4 325.611364 
L 192.5 329.808275 
L 193.6 329.808275 
L 194.7 333.744168 
L 195.8 338.815708 
L 196.9 339.588962 
L 198 346.302627 
L 199.1 346.302627 
L 200.2 353.124986 
L 201.3 358.716568 
L 203.5 358.716568 
L 204.6 362.436546 
L 205.7 362.436546 
L 207.9 365.098151 
L 209 365.098151 
L 210.1 367.926212 
L 211.2 372.530274 
L 212.3 375.882492 
L 214.5 375.882492 
L 215.6 377.656611 
L 216.7 377.656611 
L 217.8 383.439056 
L 218.9 385.543353 
L 220 390.070552 
L 221.1 392.516241 
L 224.4 392.516241 
L 225.5 397.844067 
L 226.6 403.884257 
L 227.7 403.884257 
L 228.8 423.870224 
L 229.9 429.19805 
L 231 429.19805 
L 232.1 435.238241 
L 234.3 435.238241 
L 235.4 450.458305 
L 236.5 460.552033 
L 238.7 460.552033 
L 239.8 473.565112 
L 240.9 473.565112 
L 242 460.552033 
L 245.3 460.552033 
L 246.4 442.211129 
L 247.5 442.211129 
L 248.6 523.26 
L 249.7 523.26 
L 250.8 460.552033 
L 254.1 460.552033 
L 255.2 435.238241 
L 256.3 450.458305 
L 257.4 450.458305 
L 258.5 473.565112 
L 264 473.565112 
L 265.1 523.26 
L 269.5 523.26 
L 269.500948 613 
M 280.499052 613 
L 280.5 523.26 
L 283.8 523.26 
L 283.800948 613 
M 285.999052 613 
L 286 523.26 
L 286.000948 613 
M 288.199052 613 
L 288.2 523.26 
L 288.200948 613 
M 307.999052 613 
L 308 523.26 
L 308.000948 613 
M 312.399052 613 
L 312.4 523.26 
L 314.6 523.26 
L 315.7 473.565112 
L 316.8 491.906017 
L 323.4 491.906017 
L 324.5 473.565112 
L 325.6 473.565112 
L 326.7 460.552033 
L 347.6 460.552033 
L 348.7 450.458305 
L 349.8 460.552033 
L 353.1 460.552033 
L 354.2 450.458305 
L 355.3 435.238241 
L 356.4 429.19805 
L 357.5 419.104322 
L 358.6 414.793039 
L 361.9 414.793039 
L 363 407.236475 
L 364.1 407.236475 
L 365.2 400.763418 
L 369.6 400.763418 
L 370.7 395.101758 
L 371.8 395.101758 
L 374 390.070552 
L 377.3 390.070552 
L 379.5 385.543353 
L 386.1 385.543353 
L 387.2 381.428314 
L 388.3 381.428314 
L 389.4 377.656611 
L 392.7 377.656611 
L 393.8 365.098151 
L 394.9 355.279404 
L 396 356.396355 
L 402.6 356.396355 
L 403.7 341.991344 
L 408.1 341.991344 
L 409.2 340.375664 
L 410.3 340.375664 
L 411.4 330.440932 
L 412.5 334.43478 
L 416.9 334.43478 
L 418 336.572228 
L 419.1 336.572228 
L 420.2 341.176291 
L 426.8 341.176291 
L 427.9 349.101514 
L 429 339.588962 
L 431.2 339.588962 
L 432.3 341.991344 
L 434.5 341.991344 
L 435.6 332.393792 
L 438.9 332.393792 
L 440 331.082563 
L 442.2 331.082563 
L 443.3 327.961723 
L 444.4 331.082563 
L 449.9 331.082563 
L 451 328.568903 
L 454.3 328.568903 
L 455.4 335.1361 
L 456.5 335.1361 
L 457.6 323.37712 
L 458.7 332.393792 
L 463.1 332.393792 
L 464.2 346.302627 
L 473 346.302627 
L 474.1 345.406871 
L 478.5 345.406871 
L 479.6 342.821353 
L 480.7 349.101514 
L 486.2 349.101514 
L 488.4 357.541587 
L 489.5 370.942945 
L 495 370.942945 
L 496.1 377.656611 
L 497.2 385.543353 
L 500.5 385.543353 
L 501.6 377.656611 
L 502.7 379.503162 
L 503.8 387.750339 
L 508.2 387.750339 
L 509.3 383.439056 
L 510.4 387.750339 
L 511.5 387.750339 
L 512.6 390.070552 
L 514.8 390.070552 
L 517 395.101758 
L 518.1 400.763418 
L 523.6 400.763418 
L 524.7 414.793039 
L 525.8 435.238241 
L 534.6 435.238241 
L 535.7 429.19805 
L 539 429.19805 
L 540.1 423.870224 
L 541.2 419.104322 
L 547.8 419.104322 
L 550 410.857146 
L 551.1 407.236475 
L 554.4 407.236475 
L 555.5 410.857146 
L 556.6 410.857146 
L 557.7 414.793039 
L 558.8 407.236475 
L 562.1 407.236475 
L 563.2 410.857146 
L 565.4 410.857146 
L 566.5 414.793039 
L 570.9 414.793039 
L 572 419.104322 
L 573.1 414.793039 
L 574.2 419.104322 
L 579.7 419.104322 
L 580.8 423.870224 
L 581.9 429.19805 
L 591.8 429.19805 
L 592.9 435.238241 
L 594 435.238241 
L 595.1 442.211129 
L 596.2 450.458305 
L 597.3 473.565112 
L 603.9 473.565112 
L 605 491.906017 
L 607.2 491.906017 
L 608.3 473.565112 
L 609.4 491.906017 
L 611.6 491.906017 
L 612.7 473.565112 
L 614.9 473.565112 
L 616 491.906017 
L 617.1 491.906017 
L 618.2 523.26 
L 627 523.26 
L 627.000948 613 
M 710.599052 613 
L 710.6 523.26 
L 710.600948 613 
M 712.799052 613 
L 712.8 523.26 
L 712.8 523.26 
" style="fill:none;stroke:#ff7f0e;stroke-linecap:square;stroke-width:1.5;"/>
   </g>
   <g id="patch_3">
    <path d="M 99 544.68 
L 99 73.44 
" style="fill:none;stroke:#000000;stroke-linecap:square;stroke-linejoin:miter;stroke-width:0.8;"/>
   </g>
   <g id="patch_4">
    <path d="M 712.8 544.68 
L 712.8 73.44 
" style="fill:none;stroke:#000000;stroke-linecap:square;stroke-linejoin:miter;stroke-width:0.8;"/>
   </g>
   <g id="patch_5">
    <path d="M 99 544.68 
L 712.8 544.68 
" style="fill:none;stroke:#000000;stroke-linecap:square;stroke-linejoin:miter;stroke-width:0.8;"/>
   </g>
   <g id="patch_6">
    <path d="M 99 73.44 
L 712.8 73.44 
" style="fill:none;stroke:#000000;stroke-linecap:square;stroke-linejoin:miter;stroke-width:0.8;"/>
   </g>
   <g id="legend_1">
    <g id="patch_7">
     <path d="M 616.653125 110.79625 
L 705.8 110.79625 
Q 707.8 110.79625 707.8 108.79625 
L 707.8 80.44 
Q 707.8 78.44 705.8 78.44 
L 616.653125 78.44 
Q 614.653125 78.44 614.653125 80.44 
L 614.653125 108.79625 
Q 614.653125 110.79625 616.653125 110.79625 
z
" style="fill:#ffffff;opacity:0.8;stroke:#cccccc;stroke-linejoin:miter;"/>
    </g>
    <g id="line2d_117">
     <path d="M 618.653125 86.538437 
L 638.653125 86.538437 
" style="fill:none;stroke:#1f77b4;stroke-linecap:square;stroke-width:1.5;"/>
    </g>
    <g id="line2d_118"/>
    <g id="text_13">
     <!-- Avg Cases -->
     <g transform="translate(646.653125 90.038437)scale(0.1 -0.1)">
      <defs>
       <path d="M 191 3500 
L 800 3500 
L 1894 563 
L 2988 3500 
L 3597 3500 
L 2284 0 
L 1503 0 
L 191 3500 
z
" id="DejaVuSans-76" transform="scale(0.015625)"/>
       <path d="M 2906 1791 
Q 2906 2416 2648 2759 
Q 2391 3103 1925 3103 
Q 1463 3103 1205 2759 
Q 947 2416 947 1791 
Q 947 1169 1205 825 
Q 1463 481 1925 481 
Q 2391 481 2648 825 
Q 2906 1169 2906 1791 
z
M 3481 434 
Q 3481 -459 3084 -895 
Q 2688 -1331 1869 -1331 
Q 1566 -1331 1297 -1286 
Q 1028 -1241 775 -1147 
L 775 -588 
Q 1028 -725 1275 -790 
Q 1522 -856 1778 -856 
Q 2344 -856 2625 -561 
Q 2906 -266 2906 331 
L 2906 616 
Q 2728 306 2450 153 
Q 2172 0 1784 0 
Q 1141 0 747 490 
Q 353 981 353 1791 
Q 353 2603 747 3093 
Q 1141 3584 1784 3584 
Q 2172 3584 2450 3431 
Q 2728 3278 2906 2969 
L 2906 3500 
L 3481 3500 
L 3481 434 
z
" id="DejaVuSans-67" transform="scale(0.015625)"/>
       <path id="DejaVuSans-20" transform="scale(0.015625)"/>
       <path d="M 4122 4306 
L 4122 3641 
Q 3803 3938 3442 4084 
Q 3081 4231 2675 4231 
Q 1875 4231 1450 3742 
Q 1025 3253 1025 2328 
Q 1025 1406 1450 917 
Q 1875 428 2675 428 
Q 3081 428 3442 575 
Q 3803 722 4122 1019 
L 4122 359 
Q 3791 134 3420 21 
Q 3050 -91 2638 -91 
Q 1578 -91 968 557 
Q 359 1206 359 2328 
Q 359 3453 968 4101 
Q 1578 4750 2638 4750 
Q 3056 4750 3426 4639 
Q 3797 4528 4122 4306 
z
" id="DejaVuSans-43" transform="scale(0.015625)"/>
       <path d="M 2834 3397 
L 2834 2853 
Q 2591 2978 2328 3040 
Q 2066 3103 1784 3103 
Q 1356 3103 1142 2972 
Q 928 2841 928 2578 
Q 928 2378 1081 2264 
Q 1234 2150 1697 2047 
L 1894 2003 
Q 2506 1872 2764 1633 
Q 3022 1394 3022 966 
Q 3022 478 2636 193 
Q 2250 -91 1575 -91 
Q 1294 -91 989 -36 
Q 684 19 347 128 
L 347 722 
Q 666 556 975 473 
Q 1284 391 1588 391 
Q 1994 391 2212 530 
Q 2431 669 2431 922 
Q 2431 1156 2273 1281 
Q 2116 1406 1581 1522 
L 1381 1569 
Q 847 1681 609 1914 
Q 372 2147 372 2553 
Q 372 3047 722 3315 
Q 1072 3584 1716 3584 
Q 2034 3584 2315 3537 
Q 2597 3491 2834 3397 
z
" id="DejaVuSans-73" transform="scale(0.015625)"/>
      </defs>
      <use xlink:href="#DejaVuSans-41"/>
      <use x="62.533203" xlink:href="#DejaVuSans-76"/>
      <use x="121.712891" xlink:href="#DejaVuSans-67"/>
      <use x="185.189453" xlink:href="#DejaVuSans-20"/>
      <use x="216.976562" xlink:href="#DejaVuSans-43"/>
      <use x="286.800781" xlink:href="#DejaVuSans-61"/>
      <use x="348.080078" xlink:href="#DejaVuSans-73"/>
      <use x="400.179688" xlink:href="#DejaVuSans-65"/>
      <use x="461.703125" xlink:href="#DejaVuSans-73"/>
     </g>
    </g>
    <g id="line2d_119">
     <path d="M 618.653125 101.216562 
L 638.653125 101.216562 
" style="fill:none;stroke:#ff7f0e;stroke-linecap:square;stroke-width:1.5;"/>
    </g>
    <g id="line2d_120"/>
    <g id="text_14">
     <!-- Avg Deaths -->
     <g transform="translate(646.653125 104.716562)scale(0.1 -0.1)">
      <defs>
       <path d="M 3513 2113 
L 3513 0 
L 2938 0 
L 2938 2094 
Q 2938 2591 2744 2837 
Q 2550 3084 2163 3084 
Q 1697 3084 1428 2787 
Q 1159 2491 1159 1978 
L 1159 0 
L 581 0 
L 581 4863 
L 1159 4863 
L 1159 2956 
Q 1366 3272 1645 3428 
Q 1925 3584 2291 3584 
Q 2894 3584 3203 3211 
Q 3513 2838 3513 2113 
z
" id="DejaVuSans-68" transform="scale(0.015625)"/>
      </defs>
      <use xlink:href="#DejaVuSans-41"/>
      <use x="62.533203" xlink:href="#DejaVuSans-76"/>
      <use x="121.712891" xlink:href="#DejaVuSans-67"/>
      <use x="185.189453" xlink:href="#DejaVuSans-20"/>
      <use x="216.976562" xlink:href="#DejaVuSans-44"/>
      <use x="293.978516" xlink:href="#DejaVuSans-65"/>
      <use x="355.501953" xlink:href="#DejaVuSans-61"/>
      <use x="416.78125" xlink:href="#DejaVuSans-74"/>
      <use x="455.990234" xlink:href="#DejaVuSans-68"/>
      <use x="519.369141" xlink:href="#DejaVuSans-73"/>
     </g>
    </g>
   </g>
  </g>
 </g>
 <defs>
  <clipPath id="p68e2955192">
   <rect height="471.24" width="613.8" x="99" y="73.44"/>
  </clipPath>
 </defs>
</svg>
