<?xml version="1.0" encoding="utf-8" standalone="no"?>
<!DOCTYPE svg PUBLIC "-//W3C//DTD SVG 1.1//EN"
  "http://www.w3.org/Graphics/SVG/1.1/DTD/svg11.dtd">
<svg height="612pt" version="1.1" viewBox="0 0 792 612" width="792pt" xmlns="http://www.w3.org/2000/svg" xmlns:xlink="http://www.w3.org/1999/xlink">
 <metadata>
  <rdf:RDF xmlns:cc="http://creativecommons.org/ns#" xmlns:dc="http://purl.org/dc/elements/1.1/" xmlns:rdf="http://www.w3.org/1999/02/22-rdf-syntax-ns#">
   <cc:Work>
    <dc:type rdf:resource="http://purl.org/dc/dcmitype/StillImage"/>
    <dc:format>image/svg+xml</dc:format>
    <dc:creator>
     <cc:Agent>
      <dc:title>Matplotlib v3.4.2, https://matplotlib.org/</dc:title>
     </cc:Agent>
    </dc:creator>
   </cc:Work>
  </rdf:RDF>
 </metadata>
 <defs>
  <style type="text/css">*{stroke-linecap:butt;stroke-linejoin:round;}</style>
 </defs>
 <g id="figure_1">
  <g id="patch_1">
   <path d="M 0 612 
L 792 612 
L 792 0 
L 0 0 
z
" style="fill:#ffffff;"/>
  </g>
  <g id="axes_1">
   <g id="patch_2">
    <path d="M 99 544.68 
L 712.8 544.68 
L 712.8 73.44 
L 99 73.44 
z
" style="fill:#ffffff;"/>
   </g>
   <g id="PolyCollection_1">
    <path clip-path="url(#p68e2955192)" d="M 99 161360.657098 
L 99 161360.657098 
L 100.191845 161360.657098 
L 101.383689 161360.657098 
L 102.575534 161360.657098 
L 103.767379 161360.657098 
L 104.959223 161360.657098 
L 106.151068 161360.657098 
L 107.342913 161360.657098 
L 108.534757 161360.657098 
L 109.726602 161360.657098 
L 110.918447 161360.657098 
L 112.110291 161360.657098 
L 113.302136 161360.657098 
L 114.493981 314.644947 
L 115.685825 314.644947 
L 116.87767 314.644947 
L 118.069515 283.321038 
L 119.261359 283.321038 
L 120.453204 283.321038 
L 121.645049 283.321038 
L 122.836893 196.891633 
L 124.028738 187.708908 
L 125.220583 187.708908 
L 126.412427 187.708908 
L 127.604272 172.232287 
L 128.796117 142.206285 
L 129.987961 142.206285 
L 131.179806 137.857817 
L 132.37165 137.857817 
L 133.563495 137.857817 
L 134.75534 137.857817 
L 135.947184 137.857817 
L 137.139029 137.857817 
L 138.330874 137.857817 
L 139.522718 137.857817 
L 140.714563 137.857817 
L 141.906408 137.857817 
L 143.098252 137.857817 
L 144.290097 160.031512 
L 145.481942 182.834729 
L 146.673786 182.834729 
L 147.865631 196.63043 
L 149.057476 196.63043 
L 150.24932 182.834729 
L 151.441165 182.834729 
L 152.63301 182.834729 
L 153.824854 182.834729 
L 155.016699 182.834729 
L 156.208544 182.834729 
L 157.400388 182.834729 
L 158.592233 182.834729 
L 159.784078 182.834729 
L 160.975922 197.416988 
L 162.167767 294.544074 
L 163.359612 426.397079 
L 164.551456 426.397079 
L 165.743301 426.397079 
L 166.935146 437.752574 
L 168.12699 437.752574 
L 169.318835 437.752574 
L 170.51068 437.752574 
L 171.702524 426.397079 
L 172.894369 437.752574 
L 174.086214 437.752574 
L 175.278058 437.752574 
L 176.469903 437.752574 
L 177.661748 426.397079 
L 178.853592 426.397079 
L 180.045437 437.752574 
L 181.237282 437.752574 
L 182.429126 437.752574 
L 183.620971 437.752574 
L 184.812816 389.321114 
L 186.00466 389.321114 
L 187.196505 389.321114 
L 188.38835 395.775406 
L 189.580194 395.775406 
L 190.772039 383.412935 
L 191.963883 383.412935 
L 193.155728 383.412935 
L 194.347573 405.428223 
L 195.539417 405.428223 
L 196.731262 405.428223 
L 197.923107 405.428223 
L 199.114951 405.428223 
L 200.306796 405.428223 
L 201.498641 426.397079 
L 202.690485 426.397079 
L 203.88233 405.428223 
L 205.074175 405.428223 
L 206.266019 405.428223 
L 207.457864 426.397079 
L 208.649709 426.397079 
L 209.841553 437.752574 
L 211.033398 426.397079 
L 212.225243 405.428223 
L 213.417087 371.306123 
L 214.608932 345.125607 
L 215.800777 345.125607 
L 216.992621 345.125607 
L 218.184466 345.125607 
L 219.376311 341.924811 
L 220.568155 301.788276 
L 221.76 301.788276 
L 222.951845 301.788276 
L 224.143689 301.788276 
L 225.335534 301.788276 
L 226.527379 301.788276 
L 227.719223 293.49335 
L 228.911068 293.49335 
L 230.102913 293.49335 
L 231.294757 306.650886 
L 232.486602 306.650886 
L 233.678447 297.242164 
L 234.870291 297.242164 
L 236.062136 297.242164 
L 237.253981 306.650886 
L 238.445825 306.650886 
L 239.63767 306.650886 
L 240.829515 306.650886 
L 242.021359 306.650886 
L 243.213204 306.650886 
L 244.405049 328.666175 
L 245.596893 356.996763 
L 246.788738 389.321114 
L 247.980583 389.321114 
L 249.172427 389.321114 
L 250.364272 389.321114 
L 251.556117 377.965619 
L 252.747961 383.412935 
L 253.939806 383.412935 
L 255.13165 366.697519 
L 256.323495 366.697519 
L 257.51534 366.697519 
L 258.707184 337.873135 
L 259.899029 337.873135 
L 261.090874 337.873135 
L 262.282718 337.873135 
L 263.474563 337.873135 
L 264.666408 337.873135 
L 265.858252 337.873135 
L 267.050097 323.673206 
L 268.241942 326.125101 
L 269.433786 321.304443 
L 270.625631 321.304443 
L 271.817476 298.351263 
L 273.00932 298.351263 
L 274.201165 298.351263 
L 275.39301 298.351263 
L 276.584854 290.432781 
L 277.776699 287.023723 
L 278.968544 282.425233 
L 280.160388 257.905395 
L 281.352233 257.905395 
L 282.544078 257.905395 
L 283.735922 244.284088 
L 284.927767 244.284088 
L 286.119612 244.284088 
L 287.311456 204.925355 
L 288.503301 187.708908 
L 289.695146 187.708908 
L 290.88699 187.708908 
L 292.078835 158.579776 
L 293.27068 155.47385 
L 294.462524 136.521582 
L 295.654369 135.372978 
L 296.846214 135.372978 
L 298.038058 135.372978 
L 299.229903 135.372978 
L 300.421748 135.372978 
L 301.613592 135.372978 
L 302.805437 135.372978 
L 303.997282 135.372978 
L 305.189126 135.372978 
L 306.380971 135.372978 
L 307.572816 135.372978 
L 308.76466 145.891066 
L 309.956505 145.891066 
L 311.14835 150.450958 
L 312.340194 158.731178 
L 313.532039 158.731178 
L 314.723883 158.731178 
L 315.915728 158.731178 
L 317.107573 167.436149 
L 318.299417 167.436149 
L 319.491262 167.436149 
L 320.683107 167.953083 
L 321.874951 167.953083 
L 323.066796 167.953083 
L 324.258641 167.953083 
L 325.450485 165.656419 
L 326.64233 177.679602 
L 327.834175 177.679602 
L 329.026019 190.042074 
L 330.217864 190.042074 
L 331.409709 190.042074 
L 332.601553 190.042074 
L 333.793398 206.709414 
L 334.985243 182.941812 
L 336.177087 183.587781 
L 337.368932 178.278507 
L 338.560777 176.790761 
L 339.752621 169.262399 
L 340.944466 169.262399 
L 342.136311 140.434292 
L 343.328155 140.434292 
L 344.52 140.434292 
L 345.711845 140.434292 
L 346.903689 140.434292 
L 348.095534 140.434292 
L 349.287379 140.434292 
L 350.479223 138.706129 
L 351.671068 156.788092 
L 352.862913 156.788092 
L 354.054757 156.788092 
L 355.246602 148.656718 
L 356.438447 148.656718 
L 357.630291 148.656718 
L 358.822136 148.656718 
L 360.013981 137.857817 
L 361.205825 137.857817 
L 362.39767 137.857817 
L 363.589515 137.857817 
L 364.781359 137.857817 
L 365.973204 137.857817 
L 367.165049 136.356335 
L 368.356893 136.356335 
L 369.548738 136.356335 
L 370.740583 136.356335 
L 371.932427 136.356335 
L 373.124272 136.356335 
L 374.316117 136.356335 
L 375.507961 146.143768 
L 376.699806 146.588206 
L 377.89165 146.017303 
L 379.083495 144.147294 
L 380.27534 144.147294 
L 381.467184 144.147294 
L 382.659029 144.147294 
L 383.850874 144.147294 
L 385.042718 119.176576 
L 386.234563 119.176576 
L 387.426408 119.176576 
L 388.618252 119.176576 
L 389.810097 119.176576 
L 391.001942 119.176576 
L 392.193786 94.86 
L 393.385631 94.86 
L 394.577476 94.86 
L 395.76932 94.86 
L 396.961165 94.86 
L 398.15301 94.86 
L 399.344854 94.86 
L 400.536699 120.085983 
L 401.728544 147.228062 
L 402.920388 148.003706 
L 404.112233 148.003706 
L 405.304078 148.003706 
L 406.495922 148.003706 
L 407.687767 148.003706 
L 408.879612 161.277865 
L 410.071456 161.277865 
L 411.263301 183.26405 
L 412.455146 197.416988 
L 413.64699 197.416988 
L 414.838835 197.416988 
L 416.03068 198.61368 
L 417.222524 204.486368 
L 418.414369 215.014463 
L 419.606214 223.095944 
L 420.798058 225.615866 
L 421.989903 225.615866 
L 423.181748 225.615866 
L 424.373592 230.309754 
L 425.565437 234.889578 
L 426.757282 237.648035 
L 427.949126 244.542395 
L 429.140971 244.542395 
L 430.332816 244.542395 
L 431.52466 244.542395 
L 432.716505 251.046793 
L 433.90835 251.046793 
L 435.100194 251.046793 
L 436.292039 251.046793 
L 437.483883 237.648035 
L 438.675728 243.514849 
L 439.867573 243.514849 
L 441.059417 243.514849 
L 442.251262 273.653682 
L 443.443107 273.653682 
L 444.634951 285.612123 
L 445.826796 289.935471 
L 447.018641 289.935471 
L 448.210485 289.935471 
L 449.40233 289.935471 
L 450.594175 279.377381 
L 451.786019 279.377381 
L 452.977864 266.213486 
L 454.169709 279.377381 
L 455.361553 279.377381 
L 456.553398 279.377381 
L 457.745243 279.377381 
L 458.937087 279.377381 
L 460.128932 279.377381 
L 461.320777 279.377381 
L 462.512621 279.377381 
L 463.704466 276.866746 
L 464.896311 276.866746 
L 466.088155 276.866746 
L 467.28 279.377381 
L 468.471845 266.213486 
L 469.663689 279.377381 
L 470.855534 279.377381 
L 472.047379 271.337276 
L 473.239223 271.337276 
L 474.431068 271.337276 
L 475.622913 271.337276 
L 476.814757 271.337276 
L 478.006602 271.337276 
L 479.198447 271.337276 
L 480.390291 276.049522 
L 481.582136 276.049522 
L 482.773981 276.049522 
L 483.965825 264.127605 
L 485.15767 276.049522 
L 486.349515 276.049522 
L 487.541359 277.27897 
L 488.733204 293.49335 
L 489.925049 293.49335 
L 491.116893 293.49335 
L 492.308738 287.023723 
L 493.500583 287.023723 
L 494.692427 287.023723 
L 495.884272 287.023723 
L 497.076117 287.023723 
L 498.267961 287.023723 
L 499.459806 287.023723 
L 500.65165 296.694146 
L 501.843495 296.694146 
L 503.03534 296.694146 
L 504.227184 296.694146 
L 505.419029 313.942711 
L 506.610874 313.942711 
L 507.802718 313.942711 
L 508.994563 316.070952 
L 510.186408 320.532371 
L 511.378252 348.480099 
L 512.570097 348.480099 
L 513.761942 348.480099 
L 514.953786 348.480099 
L 516.145631 348.480099 
L 517.337476 348.480099 
L 518.52932 345.125607 
L 519.721165 345.125607 
L 520.91301 345.125607 
L 522.104854 366.697519 
L 523.296699 366.697519 
L 524.488544 366.697519 
L 525.680388 383.412935 
L 526.872233 383.412935 
L 528.064078 377.965619 
L 529.255922 377.965619 
L 530.447767 366.697519 
L 531.639612 366.697519 
L 532.831456 366.697519 
L 534.023301 362.374171 
L 535.215146 366.697519 
L 536.40699 366.697519 
L 537.598835 366.697519 
L 538.79068 366.697519 
L 539.982524 366.697519 
L 541.174369 366.697519 
L 542.366214 366.697519 
L 543.558058 366.697519 
L 544.749903 366.697519 
L 545.941748 362.374171 
L 547.133592 366.697519 
L 548.325437 366.697519 
L 549.517282 366.697519 
L 550.709126 377.965619 
L 551.900971 377.965619 
L 553.092816 377.965619 
L 554.28466 377.965619 
L 555.476505 377.965619 
L 556.66835 377.965619 
L 557.860194 377.965619 
L 559.052039 366.697519 
L 560.243883 366.697519 
L 561.435728 366.697519 
L 562.627573 377.965619 
L 563.819417 377.965619 
L 565.011262 377.965619 
L 566.203107 377.965619 
L 567.394951 366.697519 
L 568.586796 362.374171 
L 569.778641 362.374171 
L 570.970485 362.374171 
L 572.16233 362.374171 
L 573.354175 353.218987 
L 574.546019 353.218987 
L 575.737864 353.218987 
L 576.929709 353.218987 
L 578.121553 322.874662 
L 579.313398 304.787527 
L 580.505243 304.787527 
L 581.697087 304.787527 
L 582.888932 304.787527 
L 584.080777 304.787527 
L 585.272621 297.242164 
L 586.464466 297.242164 
L 587.656311 297.242164 
L 588.848155 297.242164 
L 590.04 297.242164 
L 591.231845 297.242164 
L 592.423689 297.242164 
L 593.615534 285.147857 
L 594.807379 286.550014 
L 595.999223 286.550014 
L 597.191068 286.550014 
L 598.382913 286.550014 
L 599.574757 286.550014 
L 600.766602 286.550014 
L 601.958447 301.203571 
L 603.150291 283.321038 
L 604.342136 283.321038 
L 605.533981 278.110787 
L 606.725825 278.110787 
L 607.91767 278.110787 
L 609.109515 278.110787 
L 610.301359 286.550014 
L 611.493204 286.550014 
L 612.685049 286.550014 
L 613.876893 286.550014 
L 615.068738 286.550014 
L 616.260583 286.550014 
L 617.452427 286.550014 
L 618.644272 286.550014 
L 619.836117 302.972572 
L 621.027961 302.972572 
L 622.219806 307.283215 
L 623.41165 311.202288 
L 624.603495 311.202288 
L 625.79534 326.125101 
L 626.987184 311.202288 
L 628.179029 295.075422 
L 629.370874 295.075422 
L 630.562718 295.075422 
L 631.754563 295.075422 
L 632.946408 295.075422 
L 634.138252 295.075422 
L 635.330097 295.075422 
L 636.521942 295.075422 
L 637.713786 295.075422 
L 638.905631 295.075422 
L 640.097476 295.075422 
L 641.28932 295.075422 
L 642.481165 295.075422 
L 643.67301 311.202288 
L 644.864854 316.070952 
L 646.056699 316.070952 
L 647.248544 323.673206 
L 648.440388 323.673206 
L 649.632233 323.673206 
L 650.824078 316.070952 
L 652.015922 286.079495 
L 653.207767 286.079495 
L 654.399612 286.079495 
L 655.591456 283.321038 
L 656.783301 283.321038 
L 657.975146 283.321038 
L 659.16699 278.110787 
L 660.358835 278.110787 
L 661.55068 278.110787 
L 662.742524 278.110787 
L 663.934369 278.110787 
L 665.126214 278.110787 
L 666.318058 278.110787 
L 667.509903 286.550014 
L 668.701748 286.550014 
L 669.893592 283.773285 
L 671.085437 282.425233 
L 672.277282 282.425233 
L 673.469126 282.425233 
L 674.660971 282.425233 
L 675.852816 268.363558 
L 677.04466 268.363558 
L 678.236505 268.363558 
L 679.42835 268.363558 
L 680.620194 268.363558 
L 681.812039 268.363558 
L 683.003883 268.363558 
L 684.195728 268.363558 
L 685.387573 287.023723 
L 686.579417 288.46443 
L 687.771262 291.946309 
L 688.963107 291.946309 
L 690.154951 291.946309 
L 691.346796 291.946309 
L 692.538641 304.177289 
L 693.730485 329.534159 
L 694.92233 329.534159 
L 696.114175 329.534159 
L 697.306019 308.565303 
L 698.497864 308.565303 
L 699.689709 308.565303 
L 700.881553 293.49335 
L 702.073398 264.470956 
L 703.265243 244.026733 
L 704.457087 239.549426 
L 705.648932 239.549426 
L 706.840777 239.549426 
L 708.032621 239.549426 
L 709.224466 237.882898 
L 710.416311 217.430026 
L 711.608155 206.109652 
L 712.8 204.34065 
L 712.8 308.565303 
L 712.8 308.565303 
L 711.608155 346.225973 
L 710.416311 346.225973 
L 709.224466 346.225973 
L 708.032621 369.735903 
L 706.840777 369.735903 
L 705.648932 369.735903 
L 704.457087 482.190272 
L 703.265243 482.190272 
L 702.073398 161360.657098 
L 700.881553 161360.657098 
L 699.689709 161360.657098 
L 698.497864 161360.657098 
L 697.306019 161360.657098 
L 696.114175 161360.657098 
L 694.92233 161360.657098 
L 693.730485 161360.657098 
L 692.538641 161360.657098 
L 691.346796 161360.657098 
L 690.154951 161360.657098 
L 688.963107 161360.657098 
L 687.771262 161360.657098 
L 686.579417 161360.657098 
L 685.387573 482.190272 
L 684.195728 482.190272 
L 683.003883 161360.657098 
L 681.812039 161360.657098 
L 680.620194 161360.657098 
L 679.42835 161360.657098 
L 678.236505 161360.657098 
L 677.04466 161360.657098 
L 675.852816 161360.657098 
L 674.660971 161360.657098 
L 673.469126 161360.657098 
L 672.277282 161360.657098 
L 671.085437 161360.657098 
L 669.893592 161360.657098 
L 668.701748 161360.657098 
L 667.509903 161360.657098 
L 666.318058 385.327351 
L 665.126214 385.327351 
L 663.934369 385.327351 
L 662.742524 482.190272 
L 661.55068 482.190272 
L 660.358835 482.190272 
L 659.16699 482.190272 
L 657.975146 482.190272 
L 656.783301 482.190272 
L 655.591456 482.190272 
L 654.399612 482.190272 
L 653.207767 482.190272 
L 652.015922 482.190272 
L 650.824078 482.190272 
L 649.632233 482.190272 
L 648.440388 482.190272 
L 647.248544 482.190272 
L 646.056699 369.735903 
L 644.864854 369.735903 
L 643.67301 369.735903 
L 642.481165 369.735903 
L 641.28932 161360.657098 
L 640.097476 161360.657098 
L 638.905631 161360.657098 
L 637.713786 161360.657098 
L 636.521942 161360.657098 
L 635.330097 161360.657098 
L 634.138252 161360.657098 
L 632.946408 161360.657098 
L 631.754563 433.758811 
L 630.562718 429.981036 
L 629.370874 429.981036 
L 628.179029 429.981036 
L 626.987184 429.981036 
L 625.79534 429.981036 
L 624.603495 426.397079 
L 623.41165 426.397079 
L 622.219806 426.397079 
L 621.027961 426.397079 
L 619.836117 426.397079 
L 618.644272 426.397079 
L 617.452427 426.397079 
L 616.260583 426.397079 
L 615.068738 426.397079 
L 613.876893 354.455689 
L 612.685049 400.435255 
L 611.493204 400.435255 
L 610.301359 400.435255 
L 609.109515 400.435255 
L 607.91767 400.435255 
L 606.725825 400.435255 
L 605.533981 400.435255 
L 604.342136 400.435255 
L 603.150291 379.734621 
L 601.958447 379.734621 
L 600.766602 363.785772 
L 599.574757 363.785772 
L 598.382913 363.785772 
L 597.191068 377.965619 
L 595.999223 377.965619 
L 594.807379 363.785772 
L 593.615534 363.785772 
L 592.423689 363.785772 
L 591.231845 363.785772 
L 590.04 363.785772 
L 588.848155 363.785772 
L 587.656311 377.965619 
L 586.464466 377.965619 
L 585.272621 377.965619 
L 584.080777 377.965619 
L 582.888932 377.965619 
L 581.697087 379.734621 
L 580.505243 379.734621 
L 579.313398 379.734621 
L 578.121553 398.066491 
L 576.929709 398.066491 
L 575.737864 400.435255 
L 574.546019 400.435255 
L 573.354175 426.397079 
L 572.16233 426.397079 
L 570.970485 426.397079 
L 569.778641 426.397079 
L 568.586796 426.397079 
L 567.394951 426.397079 
L 566.203107 426.397079 
L 565.011262 426.397079 
L 563.819417 426.397079 
L 562.627573 426.397079 
L 561.435728 426.397079 
L 560.243883 426.397079 
L 559.052039 426.397079 
L 557.860194 426.397079 
L 556.66835 426.397079 
L 555.476505 429.981036 
L 554.28466 474.82854 
L 553.092816 474.82854 
L 551.900971 474.82854 
L 550.709126 482.190272 
L 549.517282 482.190272 
L 548.325437 161360.657098 
L 547.133592 161360.657098 
L 545.941748 161360.657098 
L 544.749903 161360.657098 
L 543.558058 161360.657098 
L 542.366214 161360.657098 
L 541.174369 161360.657098 
L 539.982524 161360.657098 
L 538.79068 482.190272 
L 537.598835 482.190272 
L 536.40699 482.190272 
L 535.215146 482.190272 
L 534.023301 474.82854 
L 532.831456 474.82854 
L 531.639612 474.82854 
L 530.447767 474.82854 
L 529.255922 474.82854 
L 528.064078 474.82854 
L 526.872233 474.82854 
L 525.680388 474.82854 
L 524.488544 474.82854 
L 523.296699 474.82854 
L 522.104854 474.82854 
L 520.91301 474.82854 
L 519.721165 474.82854 
L 518.52932 474.82854 
L 517.337476 474.82854 
L 516.145631 474.82854 
L 514.953786 429.981036 
L 513.761942 426.397079 
L 512.570097 426.397079 
L 511.378252 426.397079 
L 510.186408 426.397079 
L 508.994563 400.435255 
L 507.802718 400.435255 
L 506.610874 400.435255 
L 505.419029 398.066491 
L 504.227184 398.066491 
L 503.03534 398.066491 
L 501.843495 398.066491 
L 500.65165 398.066491 
L 499.459806 398.066491 
L 498.267961 398.066491 
L 497.076117 379.734621 
L 495.884272 352.003794 
L 494.692427 352.003794 
L 493.500583 377.965619 
L 492.308738 377.965619 
L 491.116893 377.965619 
L 489.925049 381.549575 
L 488.733204 426.397079 
L 487.541359 426.397079 
L 486.349515 426.397079 
L 485.15767 429.981036 
L 483.965825 429.981036 
L 482.773981 474.82854 
L 481.582136 429.981036 
L 480.390291 429.981036 
L 479.198447 429.981036 
L 478.006602 429.981036 
L 476.814757 402.887149 
L 475.622913 402.887149 
L 474.431068 402.887149 
L 473.239223 353.218987 
L 472.047379 350.809375 
L 470.855534 350.809375 
L 469.663689 350.809375 
L 468.471845 339.869609 
L 467.28 339.869609 
L 466.088155 330.413061 
L 464.896311 330.413061 
L 463.704466 331.30316 
L 462.512621 331.30316 
L 461.320777 331.30316 
L 460.128932 331.30316 
L 458.937087 329.534159 
L 457.745243 329.534159 
L 456.553398 332.204745 
L 455.361553 335.932126 
L 454.169709 429.981036 
L 452.977864 429.981036 
L 451.786019 474.82854 
L 450.594175 474.82854 
L 449.40233 474.82854 
L 448.210485 474.82854 
L 447.018641 429.981036 
L 445.826796 429.981036 
L 444.634951 429.981036 
L 443.443107 429.981036 
L 442.251262 429.981036 
L 441.059417 429.981036 
L 439.867573 381.549575 
L 438.675728 363.785772 
L 437.483883 324.480982 
L 436.292039 324.480982 
L 435.100194 314.644947 
L 433.90835 314.644947 
L 432.716505 307.921318 
L 431.52466 301.788276 
L 430.332816 296.150394 
L 429.140971 295.610841 
L 427.949126 295.610841 
L 426.757282 295.610841 
L 425.565437 286.550014 
L 424.373592 286.550014 
L 423.181748 286.550014 
L 421.989903 286.079495 
L 420.798058 286.079495 
L 419.606214 277.693641 
L 418.414369 273.262242 
L 417.222524 266.213486 
L 416.03068 259.489858 
L 414.838835 259.489858 
L 413.64699 259.489858 
L 412.455146 236.948144 
L 411.263301 229.054537 
L 410.071456 224.830782 
L 408.879612 224.830782 
L 407.687767 224.441522 
L 406.495922 227.618062 
L 405.304078 227.618062 
L 404.112233 213.173422 
L 402.920388 203.472666 
L 401.728544 199.694891 
L 400.536699 199.694891 
L 399.344854 192.701876 
L 398.15301 231.803254 
L 396.961165 231.803254 
L 395.76932 197.285278 
L 394.577476 197.285278 
L 393.385631 197.285278 
L 392.193786 182.408029 
L 391.001942 405.428223 
L 389.810097 326.125101 
L 388.618252 203.472666 
L 387.426408 203.472666 
L 386.234563 203.472666 
L 385.042718 210.261675 
L 383.850874 210.261675 
L 382.659029 210.261675 
L 381.467184 205.367117 
L 380.27534 205.367117 
L 379.083495 205.367117 
L 377.89165 205.367117 
L 376.699806 205.367117 
L 375.507961 205.367117 
L 374.316117 198.079285 
L 373.124272 198.079285 
L 371.932427 205.367117 
L 370.740583 205.367117 
L 369.548738 205.367117 
L 368.356893 176.399321 
L 367.165049 176.399321 
L 365.973204 176.399321 
L 364.781359 177.085787 
L 363.589515 173.907058 
L 362.39767 182.30176 
L 361.205825 183.26405 
L 360.013981 195.46695 
L 358.822136 195.46695 
L 357.630291 195.46695 
L 356.438447 195.46695 
L 355.246602 184.239778 
L 354.054757 184.239778 
L 352.862913 187.25148 
L 351.671068 195.46695 
L 350.479223 195.46695 
L 349.287379 202.190578 
L 348.095534 202.190578 
L 346.903689 216.211806 
L 345.711845 263.10756 
L 344.52 263.10756 
L 343.328155 263.10756 
L 342.136311 263.10756 
L 340.944466 263.10756 
L 339.752621 263.10756 
L 338.560777 161360.657098 
L 337.368932 161360.657098 
L 336.177087 161360.657098 
L 334.985243 161360.657098 
L 333.793398 161360.657098 
L 332.601553 263.10756 
L 331.409709 263.10756 
L 330.217864 263.10756 
L 329.026019 284.228477 
L 327.834175 284.228477 
L 326.64233 284.228477 
L 325.450485 284.228477 
L 324.258641 161360.657098 
L 323.066796 161360.657098 
L 321.874951 284.228477 
L 320.683107 284.228477 
L 319.491262 284.228477 
L 318.299417 284.228477 
L 317.107573 284.228477 
L 315.915728 284.228477 
L 314.723883 284.228477 
L 313.532039 284.228477 
L 312.340194 216.211806 
L 311.14835 216.211806 
L 309.956505 213.173422 
L 308.76466 213.173422 
L 307.572816 199.423015 
L 306.380971 199.423015 
L 305.189126 213.173422 
L 303.997282 213.173422 
L 302.805437 213.173422 
L 301.613592 266.213486 
L 300.421748 276.456939 
L 299.229903 276.456939 
L 298.038058 276.456939 
L 296.846214 276.456939 
L 295.654369 276.456939 
L 294.462524 276.456939 
L 293.27068 292.973855 
L 292.078835 292.973855 
L 290.88699 356.996763 
L 289.695146 356.996763 
L 288.503301 355.714675 
L 287.311456 355.714675 
L 286.119612 355.714675 
L 284.927767 355.714675 
L 283.735922 355.714675 
L 282.544078 355.714675 
L 281.352233 355.714675 
L 280.160388 353.218987 
L 278.968544 400.435255 
L 277.776699 400.435255 
L 276.584854 426.397079 
L 275.39301 426.397079 
L 274.201165 426.397079 
L 273.00932 426.397079 
L 271.817476 426.397079 
L 270.625631 426.397079 
L 269.433786 426.397079 
L 268.241942 426.397079 
L 267.050097 426.397079 
L 265.858252 426.397079 
L 264.666408 426.397079 
L 263.474563 429.981036 
L 262.282718 482.190272 
L 261.090874 482.190272 
L 259.899029 482.190272 
L 258.707184 161360.657098 
L 257.51534 161360.657098 
L 256.323495 161360.657098 
L 255.13165 161360.657098 
L 253.939806 161360.657098 
L 252.747961 161360.657098 
L 251.556117 161360.657098 
L 250.364272 161360.657098 
L 249.172427 161360.657098 
L 247.980583 161360.657098 
L 246.788738 161360.657098 
L 245.596893 482.190272 
L 244.405049 482.190272 
L 243.213204 482.190272 
L 242.021359 429.981036 
L 240.829515 426.397079 
L 239.63767 426.397079 
L 238.445825 429.981036 
L 237.253981 426.397079 
L 236.062136 426.397079 
L 234.870291 426.397079 
L 233.678447 400.435255 
L 232.486602 433.758811 
L 231.294757 433.758811 
L 230.102913 405.428223 
L 228.911068 405.428223 
L 227.719223 405.428223 
L 226.527379 433.758811 
L 225.335534 161360.657098 
L 224.143689 161360.657098 
L 222.951845 161360.657098 
L 221.76 482.190272 
L 220.568155 482.190272 
L 219.376311 482.190272 
L 218.184466 161360.657098 
L 216.992621 161360.657098 
L 215.800777 161360.657098 
L 214.608932 161360.657098 
L 213.417087 161360.657098 
L 212.225243 161360.657098 
L 211.033398 161360.657098 
L 209.841553 161360.657098 
L 208.649709 161360.657098 
L 207.457864 161360.657098 
L 206.266019 161360.657098 
L 205.074175 161360.657098 
L 203.88233 161360.657098 
L 202.690485 161360.657098 
L 201.498641 161360.657098 
L 200.306796 161360.657098 
L 199.114951 161360.657098 
L 197.923107 161360.657098 
L 196.731262 161360.657098 
L 195.539417 161360.657098 
L 194.347573 161360.657098 
L 193.155728 161360.657098 
L 191.963883 161360.657098 
L 190.772039 161360.657098 
L 189.580194 161360.657098 
L 188.38835 161360.657098 
L 187.196505 161360.657098 
L 186.00466 161360.657098 
L 184.812816 161360.657098 
L 183.620971 161360.657098 
L 182.429126 161360.657098 
L 181.237282 161360.657098 
L 180.045437 161360.657098 
L 178.853592 161360.657098 
L 177.661748 161360.657098 
L 176.469903 161360.657098 
L 175.278058 161360.657098 
L 174.086214 161360.657098 
L 172.894369 161360.657098 
L 171.702524 161360.657098 
L 170.51068 161360.657098 
L 169.318835 161360.657098 
L 168.12699 161360.657098 
L 166.935146 161360.657098 
L 165.743301 161360.657098 
L 164.551456 161360.657098 
L 163.359612 161360.657098 
L 162.167767 161360.657098 
L 160.975922 161360.657098 
L 159.784078 161360.657098 
L 158.592233 161360.657098 
L 157.400388 482.190272 
L 156.208544 482.190272 
L 155.016699 482.190272 
L 153.824854 474.82854 
L 152.63301 402.887149 
L 151.441165 398.066491 
L 150.24932 398.066491 
L 149.057476 398.066491 
L 147.865631 398.066491 
L 146.673786 353.218987 
L 145.481942 353.218987 
L 144.290097 353.218987 
L 143.098252 353.218987 
L 141.906408 353.218987 
L 140.714563 353.218987 
L 139.522718 331.30316 
L 138.330874 331.30316 
L 137.139029 334.043583 
L 135.947184 365.226479 
L 134.75534 365.226479 
L 133.563495 332.204745 
L 132.37165 332.204745 
L 131.179806 366.697519 
L 129.987961 381.549575 
L 128.796117 381.549575 
L 127.604272 381.549575 
L 126.412427 426.397079 
L 125.220583 426.397079 
L 124.028738 426.397079 
L 122.836893 426.397079 
L 121.645049 426.397079 
L 120.453204 426.397079 
L 119.261359 426.397079 
L 118.069515 426.397079 
L 116.87767 429.981036 
L 115.685825 474.82854 
L 114.493981 429.981036 
L 113.302136 161360.657098 
L 112.110291 161360.657098 
L 110.918447 161360.657098 
L 109.726602 161360.657098 
L 108.534757 161360.657098 
L 107.342913 161360.657098 
L 106.151068 161360.657098 
L 104.959223 161360.657098 
L 103.767379 161360.657098 
L 102.575534 161360.657098 
L 101.383689 161360.657098 
L 100.191845 161360.657098 
L 99 161360.657098 
z
" style="fill:#8080ff;fill-opacity:0.5;stroke:#8080ff;stroke-opacity:0.5;"/>
   </g>
   <g id="PolyCollection_2">
    <path clip-path="url(#p68e2955192)" d="M 99 161360.657098 
L 99 161360.657098 
L 100.191845 161360.657098 
L 101.383689 161360.657098 
L 102.575534 161360.657098 
L 103.767379 161360.657098 
L 104.959223 161360.657098 
L 106.151068 161360.657098 
L 107.342913 161360.657098 
L 108.534757 161360.657098 
L 109.726602 161360.657098 
L 110.918447 161360.657098 
L 112.110291 161360.657098 
L 113.302136 161360.657098 
L 114.493981 161360.657098 
L 115.685825 161360.657098 
L 116.87767 161360.657098 
L 118.069515 499.75007 
L 119.261359 474.82854 
L 120.453204 474.82854 
L 121.645049 474.82854 
L 122.836893 474.82854 
L 124.028738 474.82854 
L 125.220583 474.82854 
L 126.412427 474.82854 
L 127.604272 474.82854 
L 128.796117 474.82854 
L 129.987961 474.82854 
L 131.179806 474.82854 
L 132.37165 474.82854 
L 133.563495 474.82854 
L 134.75534 474.82854 
L 135.947184 474.82854 
L 137.139029 474.82854 
L 138.330874 499.75007 
L 139.522718 499.75007 
L 140.714563 499.75007 
L 141.906408 499.75007 
L 143.098252 499.75007 
L 144.290097 499.75007 
L 145.481942 499.75007 
L 146.673786 499.75007 
L 147.865631 161360.657098 
L 149.057476 161360.657098 
L 150.24932 161360.657098 
L 151.441165 161360.657098 
L 152.63301 161360.657098 
L 153.824854 161360.657098 
L 155.016699 161360.657098 
L 156.208544 161360.657098 
L 157.400388 161360.657098 
L 158.592233 161360.657098 
L 159.784078 161360.657098 
L 160.975922 161360.657098 
L 162.167767 161360.657098 
L 163.359612 161360.657098 
L 164.551456 161360.657098 
L 165.743301 161360.657098 
L 166.935146 161360.657098 
L 168.12699 161360.657098 
L 169.318835 161360.657098 
L 170.51068 161360.657098 
L 171.702524 161360.657098 
L 172.894369 161360.657098 
L 174.086214 161360.657098 
L 175.278058 161360.657098 
L 176.469903 161360.657098 
L 177.661748 161360.657098 
L 178.853592 161360.657098 
L 180.045437 161360.657098 
L 181.237282 161360.657098 
L 182.429126 161360.657098 
L 183.620971 161360.657098 
L 184.812816 161360.657098 
L 186.00466 161360.657098 
L 187.196505 161360.657098 
L 188.38835 161360.657098 
L 189.580194 161360.657098 
L 190.772039 161360.657098 
L 191.963883 161360.657098 
L 193.155728 161360.657098 
L 194.347573 161360.657098 
L 195.539417 161360.657098 
L 196.731262 161360.657098 
L 197.923107 161360.657098 
L 199.114951 161360.657098 
L 200.306796 161360.657098 
L 201.498641 161360.657098 
L 202.690485 161360.657098 
L 203.88233 161360.657098 
L 205.074175 161360.657098 
L 206.266019 161360.657098 
L 207.457864 161360.657098 
L 208.649709 161360.657098 
L 209.841553 161360.657098 
L 211.033398 161360.657098 
L 212.225243 161360.657098 
L 213.417087 161360.657098 
L 214.608932 161360.657098 
L 215.800777 161360.657098 
L 216.992621 161360.657098 
L 218.184466 161360.657098 
L 219.376311 161360.657098 
L 220.568155 161360.657098 
L 221.76 161360.657098 
L 222.951845 161360.657098 
L 224.143689 161360.657098 
L 225.335534 161360.657098 
L 226.527379 161360.657098 
L 227.719223 161360.657098 
L 228.911068 161360.657098 
L 230.102913 161360.657098 
L 231.294757 161360.657098 
L 232.486602 161360.657098 
L 233.678447 161360.657098 
L 234.870291 161360.657098 
L 236.062136 161360.657098 
L 237.253981 161360.657098 
L 238.445825 161360.657098 
L 239.63767 161360.657098 
L 240.829515 161360.657098 
L 242.021359 161360.657098 
L 243.213204 161360.657098 
L 244.405049 161360.657098 
L 245.596893 161360.657098 
L 246.788738 161360.657098 
L 247.980583 161360.657098 
L 249.172427 161360.657098 
L 250.364272 161360.657098 
L 251.556117 161360.657098 
L 252.747961 161360.657098 
L 253.939806 161360.657098 
L 255.13165 161360.657098 
L 256.323495 161360.657098 
L 257.51534 161360.657098 
L 258.707184 161360.657098 
L 259.899029 161360.657098 
L 261.090874 161360.657098 
L 262.282718 161360.657098 
L 263.474563 161360.657098 
L 264.666408 161360.657098 
L 265.858252 161360.657098 
L 267.050097 161360.657098 
L 268.241942 161360.657098 
L 269.433786 161360.657098 
L 270.625631 161360.657098 
L 271.817476 161360.657098 
L 273.00932 161360.657098 
L 274.201165 161360.657098 
L 275.39301 161360.657098 
L 276.584854 161360.657098 
L 277.776699 161360.657098 
L 278.968544 161360.657098 
L 280.160388 161360.657098 
L 281.352233 161360.657098 
L 282.544078 161360.657098 
L 283.735922 161360.657098 
L 284.927767 161360.657098 
L 286.119612 161360.657098 
L 287.311456 161360.657098 
L 288.503301 161360.657098 
L 289.695146 161360.657098 
L 290.88699 161360.657098 
L 292.078835 499.75007 
L 293.27068 499.75007 
L 294.462524 474.82854 
L 295.654369 474.82854 
L 296.846214 474.82854 
L 298.038058 474.82854 
L 299.229903 474.82854 
L 300.421748 474.82854 
L 301.613592 437.752574 
L 302.805437 437.752574 
L 303.997282 437.752574 
L 305.189126 437.752574 
L 306.380971 437.752574 
L 307.572816 437.752574 
L 308.76466 426.397079 
L 309.956505 426.397079 
L 311.14835 437.752574 
L 312.340194 437.752574 
L 313.532039 426.397079 
L 314.723883 426.397079 
L 315.915728 426.397079 
L 317.107573 405.428223 
L 318.299417 426.397079 
L 319.491262 426.397079 
L 320.683107 426.397079 
L 321.874951 405.428223 
L 323.066796 405.428223 
L 324.258641 405.428223 
L 325.450485 405.428223 
L 326.64233 405.428223 
L 327.834175 405.428223 
L 329.026019 405.428223 
L 330.217864 405.428223 
L 331.409709 405.428223 
L 332.601553 405.428223 
L 333.793398 426.397079 
L 334.985243 405.428223 
L 336.177087 405.428223 
L 337.368932 405.428223 
L 338.560777 426.397079 
L 339.752621 426.397079 
L 340.944466 426.397079 
L 342.136311 405.428223 
L 343.328155 405.428223 
L 344.52 405.428223 
L 345.711845 405.428223 
L 346.903689 405.428223 
L 348.095534 405.428223 
L 349.287379 405.428223 
L 350.479223 405.428223 
L 351.671068 426.397079 
L 352.862913 437.752574 
L 354.054757 437.752574 
L 355.246602 426.397079 
L 356.438447 426.397079 
L 357.630291 426.397079 
L 358.822136 426.397079 
L 360.013981 426.397079 
L 361.205825 426.397079 
L 362.39767 426.397079 
L 363.589515 426.397079 
L 364.781359 426.397079 
L 365.973204 426.397079 
L 367.165049 405.428223 
L 368.356893 405.428223 
L 369.548738 405.428223 
L 370.740583 405.428223 
L 371.932427 405.428223 
L 373.124272 405.428223 
L 374.316117 405.428223 
L 375.507961 426.397079 
L 376.699806 426.397079 
L 377.89165 405.428223 
L 379.083495 405.428223 
L 380.27534 383.412935 
L 381.467184 383.412935 
L 382.659029 383.412935 
L 383.850874 405.428223 
L 385.042718 405.428223 
L 386.234563 405.428223 
L 387.426408 405.428223 
L 388.618252 405.428223 
L 389.810097 405.428223 
L 391.001942 405.428223 
L 392.193786 371.306123 
L 393.385631 371.306123 
L 394.577476 376.240301 
L 395.76932 376.240301 
L 396.961165 426.397079 
L 398.15301 426.397079 
L 399.344854 405.428223 
L 400.536699 405.428223 
L 401.728544 405.428223 
L 402.920388 405.428223 
L 404.112233 405.428223 
L 405.304078 405.428223 
L 406.495922 405.428223 
L 407.687767 405.428223 
L 408.879612 426.397079 
L 410.071456 426.397079 
L 411.263301 426.397079 
L 412.455146 426.397079 
L 413.64699 426.397079 
L 414.838835 426.397079 
L 416.03068 437.752574 
L 417.222524 437.752574 
L 418.414369 437.752574 
L 419.606214 474.82854 
L 420.798058 474.82854 
L 421.989903 499.75007 
L 423.181748 437.752574 
L 424.373592 437.752574 
L 425.565437 437.752574 
L 426.757282 437.752574 
L 427.949126 437.752574 
L 429.140971 437.752574 
L 430.332816 437.752574 
L 431.52466 437.752574 
L 432.716505 437.752574 
L 433.90835 437.752574 
L 435.100194 437.752574 
L 436.292039 437.752574 
L 437.483883 474.82854 
L 438.675728 474.82854 
L 439.867573 474.82854 
L 441.059417 474.82854 
L 442.251262 499.75007 
L 443.443107 499.75007 
L 444.634951 499.75007 
L 445.826796 474.82854 
L 447.018641 474.82854 
L 448.210485 474.82854 
L 449.40233 474.82854 
L 450.594175 474.82854 
L 451.786019 474.82854 
L 452.977864 474.82854 
L 454.169709 499.75007 
L 455.361553 474.82854 
L 456.553398 474.82854 
L 457.745243 474.82854 
L 458.937087 474.82854 
L 460.128932 474.82854 
L 461.320777 474.82854 
L 462.512621 499.75007 
L 463.704466 474.82854 
L 464.896311 474.82854 
L 466.088155 474.82854 
L 467.28 474.82854 
L 468.471845 474.82854 
L 469.663689 474.82854 
L 470.855534 474.82854 
L 472.047379 474.82854 
L 473.239223 474.82854 
L 474.431068 474.82854 
L 475.622913 474.82854 
L 476.814757 474.82854 
L 478.006602 474.82854 
L 479.198447 474.82854 
L 480.390291 474.82854 
L 481.582136 474.82854 
L 482.773981 499.75007 
L 483.965825 161360.657098 
L 485.15767 161360.657098 
L 486.349515 161360.657098 
L 487.541359 161360.657098 
L 488.733204 161360.657098 
L 489.925049 161360.657098 
L 491.116893 161360.657098 
L 492.308738 161360.657098 
L 493.500583 161360.657098 
L 494.692427 161360.657098 
L 495.884272 161360.657098 
L 497.076117 161360.657098 
L 498.267961 161360.657098 
L 499.459806 161360.657098 
L 500.65165 161360.657098 
L 501.843495 161360.657098 
L 503.03534 161360.657098 
L 504.227184 161360.657098 
L 505.419029 161360.657098 
L 506.610874 161360.657098 
L 507.802718 161360.657098 
L 508.994563 161360.657098 
L 510.186408 161360.657098 
L 511.378252 161360.657098 
L 512.570097 161360.657098 
L 513.761942 161360.657098 
L 514.953786 161360.657098 
L 516.145631 161360.657098 
L 517.337476 161360.657098 
L 518.52932 161360.657098 
L 519.721165 161360.657098 
L 520.91301 161360.657098 
L 522.104854 161360.657098 
L 523.296699 499.75007 
L 524.488544 499.75007 
L 525.680388 499.75007 
L 526.872233 499.75007 
L 528.064078 499.75007 
L 529.255922 499.75007 
L 530.447767 499.75007 
L 531.639612 499.75007 
L 532.831456 161360.657098 
L 534.023301 499.75007 
L 535.215146 499.75007 
L 536.40699 499.75007 
L 537.598835 499.75007 
L 538.79068 499.75007 
L 539.982524 161360.657098 
L 541.174369 161360.657098 
L 542.366214 161360.657098 
L 543.558058 161360.657098 
L 544.749903 161360.657098 
L 545.941748 161360.657098 
L 547.133592 161360.657098 
L 548.325437 161360.657098 
L 549.517282 161360.657098 
L 550.709126 161360.657098 
L 551.900971 161360.657098 
L 553.092816 161360.657098 
L 554.28466 161360.657098 
L 555.476505 161360.657098 
L 556.66835 161360.657098 
L 557.860194 161360.657098 
L 559.052039 161360.657098 
L 560.243883 161360.657098 
L 561.435728 161360.657098 
L 562.627573 161360.657098 
L 563.819417 161360.657098 
L 565.011262 161360.657098 
L 566.203107 161360.657098 
L 567.394951 161360.657098 
L 568.586796 161360.657098 
L 569.778641 161360.657098 
L 570.970485 161360.657098 
L 572.16233 161360.657098 
L 573.354175 161360.657098 
L 574.546019 161360.657098 
L 575.737864 161360.657098 
L 576.929709 161360.657098 
L 578.121553 161360.657098 
L 579.313398 161360.657098 
L 580.505243 161360.657098 
L 581.697087 161360.657098 
L 582.888932 161360.657098 
L 584.080777 161360.657098 
L 585.272621 161360.657098 
L 586.464466 161360.657098 
L 587.656311 161360.657098 
L 588.848155 161360.657098 
L 590.04 161360.657098 
L 591.231845 161360.657098 
L 592.423689 161360.657098 
L 593.615534 161360.657098 
L 594.807379 499.75007 
L 595.999223 474.82854 
L 597.191068 474.82854 
L 598.382913 474.82854 
L 599.574757 474.82854 
L 600.766602 474.82854 
L 601.958447 474.82854 
L 603.150291 474.82854 
L 604.342136 474.82854 
L 605.533981 474.82854 
L 606.725825 474.82854 
L 607.91767 474.82854 
L 609.109515 474.82854 
L 610.301359 499.75007 
L 611.493204 161360.657098 
L 612.685049 161360.657098 
L 613.876893 161360.657098 
L 615.068738 161360.657098 
L 616.260583 161360.657098 
L 617.452427 161360.657098 
L 618.644272 161360.657098 
L 619.836117 161360.657098 
L 621.027961 161360.657098 
L 622.219806 161360.657098 
L 623.41165 161360.657098 
L 624.603495 161360.657098 
L 625.79534 161360.657098 
L 626.987184 161360.657098 
L 628.179029 161360.657098 
L 629.370874 161360.657098 
L 630.562718 161360.657098 
L 631.754563 161360.657098 
L 632.946408 161360.657098 
L 634.138252 161360.657098 
L 635.330097 161360.657098 
L 636.521942 161360.657098 
L 637.713786 161360.657098 
L 638.905631 161360.657098 
L 640.097476 161360.657098 
L 641.28932 161360.657098 
L 642.481165 161360.657098 
L 643.67301 161360.657098 
L 644.864854 161360.657098 
L 646.056699 161360.657098 
L 647.248544 161360.657098 
L 648.440388 161360.657098 
L 649.632233 161360.657098 
L 650.824078 161360.657098 
L 652.015922 161360.657098 
L 653.207767 161360.657098 
L 654.399612 161360.657098 
L 655.591456 161360.657098 
L 656.783301 161360.657098 
L 657.975146 161360.657098 
L 659.16699 161360.657098 
L 660.358835 161360.657098 
L 661.55068 161360.657098 
L 662.742524 161360.657098 
L 663.934369 161360.657098 
L 665.126214 161360.657098 
L 666.318058 161360.657098 
L 667.509903 161360.657098 
L 668.701748 161360.657098 
L 669.893592 161360.657098 
L 671.085437 161360.657098 
L 672.277282 499.75007 
L 673.469126 499.75007 
L 674.660971 499.75007 
L 675.852816 161360.657098 
L 677.04466 499.75007 
L 678.236505 499.75007 
L 679.42835 499.75007 
L 680.620194 499.75007 
L 681.812039 499.75007 
L 683.003883 499.75007 
L 684.195728 474.82854 
L 685.387573 474.82854 
L 686.579417 474.82854 
L 687.771262 474.82854 
L 688.963107 499.75007 
L 690.154951 499.75007 
L 691.346796 499.75007 
L 692.538641 499.75007 
L 693.730485 161360.657098 
L 694.92233 161360.657098 
L 696.114175 161360.657098 
L 697.306019 161360.657098 
L 698.497864 161360.657098 
L 699.689709 161360.657098 
L 700.881553 161360.657098 
L 702.073398 161360.657098 
L 703.265243 161360.657098 
L 704.457087 161360.657098 
L 705.648932 161360.657098 
L 706.840777 161360.657098 
L 708.032621 161360.657098 
L 709.224466 161360.657098 
L 710.416311 161360.657098 
L 711.608155 161360.657098 
L 712.8 161360.657098 
L 712.8 161360.657098 
L 712.8 161360.657098 
L 711.608155 161360.657098 
L 710.416311 161360.657098 
L 709.224466 161360.657098 
L 708.032621 161360.657098 
L 706.840777 161360.657098 
L 705.648932 161360.657098 
L 704.457087 161360.657098 
L 703.265243 161360.657098 
L 702.073398 161360.657098 
L 700.881553 161360.657098 
L 699.689709 161360.657098 
L 698.497864 161360.657098 
L 697.306019 161360.657098 
L 696.114175 161360.657098 
L 694.92233 161360.657098 
L 693.730485 161360.657098 
L 692.538641 161360.657098 
L 691.346796 161360.657098 
L 690.154951 161360.657098 
L 688.963107 161360.657098 
L 687.771262 161360.657098 
L 686.579417 161360.657098 
L 685.387573 161360.657098 
L 684.195728 161360.657098 
L 683.003883 161360.657098 
L 681.812039 161360.657098 
L 680.620194 161360.657098 
L 679.42835 161360.657098 
L 678.236505 161360.657098 
L 677.04466 161360.657098 
L 675.852816 161360.657098 
L 674.660971 161360.657098 
L 673.469126 161360.657098 
L 672.277282 161360.657098 
L 671.085437 161360.657098 
L 669.893592 161360.657098 
L 668.701748 161360.657098 
L 667.509903 161360.657098 
L 666.318058 161360.657098 
L 665.126214 161360.657098 
L 663.934369 161360.657098 
L 662.742524 161360.657098 
L 661.55068 161360.657098 
L 660.358835 161360.657098 
L 659.16699 161360.657098 
L 657.975146 161360.657098 
L 656.783301 161360.657098 
L 655.591456 161360.657098 
L 654.399612 161360.657098 
L 653.207767 161360.657098 
L 652.015922 161360.657098 
L 650.824078 161360.657098 
L 649.632233 161360.657098 
L 648.440388 161360.657098 
L 647.248544 161360.657098 
L 646.056699 161360.657098 
L 644.864854 161360.657098 
L 643.67301 161360.657098 
L 642.481165 161360.657098 
L 641.28932 161360.657098 
L 640.097476 161360.657098 
L 638.905631 161360.657098 
L 637.713786 161360.657098 
L 636.521942 161360.657098 
L 635.330097 161360.657098 
L 634.138252 161360.657098 
L 632.946408 161360.657098 
L 631.754563 161360.657098 
L 630.562718 161360.657098 
L 629.370874 161360.657098 
L 628.179029 161360.657098 
L 626.987184 161360.657098 
L 625.79534 161360.657098 
L 624.603495 161360.657098 
L 623.41165 161360.657098 
L 622.219806 161360.657098 
L 621.027961 161360.657098 
L 619.836117 161360.657098 
L 618.644272 161360.657098 
L 617.452427 161360.657098 
L 616.260583 161360.657098 
L 615.068738 161360.657098 
L 613.876893 161360.657098 
L 612.685049 161360.657098 
L 611.493204 161360.657098 
L 610.301359 161360.657098 
L 609.109515 161360.657098 
L 607.91767 161360.657098 
L 606.725825 161360.657098 
L 605.533981 161360.657098 
L 604.342136 161360.657098 
L 603.150291 161360.657098 
L 601.958447 161360.657098 
L 600.766602 161360.657098 
L 599.574757 161360.657098 
L 598.382913 161360.657098 
L 597.191068 161360.657098 
L 595.999223 161360.657098 
L 594.807379 161360.657098 
L 593.615534 161360.657098 
L 592.423689 161360.657098 
L 591.231845 161360.657098 
L 590.04 161360.657098 
L 588.848155 161360.657098 
L 587.656311 161360.657098 
L 586.464466 161360.657098 
L 585.272621 161360.657098 
L 584.080777 161360.657098 
L 582.888932 161360.657098 
L 581.697087 161360.657098 
L 580.505243 161360.657098 
L 579.313398 161360.657098 
L 578.121553 161360.657098 
L 576.929709 161360.657098 
L 575.737864 161360.657098 
L 574.546019 161360.657098 
L 573.354175 161360.657098 
L 572.16233 161360.657098 
L 570.970485 161360.657098 
L 569.778641 161360.657098 
L 568.586796 161360.657098 
L 567.394951 161360.657098 
L 566.203107 161360.657098 
L 565.011262 161360.657098 
L 563.819417 161360.657098 
L 562.627573 161360.657098 
L 561.435728 161360.657098 
L 560.243883 161360.657098 
L 559.052039 161360.657098 
L 557.860194 161360.657098 
L 556.66835 161360.657098 
L 555.476505 161360.657098 
L 554.28466 161360.657098 
L 553.092816 161360.657098 
L 551.900971 161360.657098 
L 550.709126 161360.657098 
L 549.517282 161360.657098 
L 548.325437 161360.657098 
L 547.133592 161360.657098 
L 545.941748 161360.657098 
L 544.749903 161360.657098 
L 543.558058 161360.657098 
L 542.366214 161360.657098 
L 541.174369 161360.657098 
L 539.982524 161360.657098 
L 538.79068 161360.657098 
L 537.598835 161360.657098 
L 536.40699 161360.657098 
L 535.215146 161360.657098 
L 534.023301 161360.657098 
L 532.831456 161360.657098 
L 531.639612 161360.657098 
L 530.447767 161360.657098 
L 529.255922 161360.657098 
L 528.064078 161360.657098 
L 526.872233 161360.657098 
L 525.680388 161360.657098 
L 524.488544 161360.657098 
L 523.296699 161360.657098 
L 522.104854 161360.657098 
L 520.91301 161360.657098 
L 519.721165 161360.657098 
L 518.52932 161360.657098 
L 517.337476 161360.657098 
L 516.145631 161360.657098 
L 514.953786 161360.657098 
L 513.761942 161360.657098 
L 512.570097 161360.657098 
L 511.378252 161360.657098 
L 510.186408 161360.657098 
L 508.994563 161360.657098 
L 507.802718 161360.657098 
L 506.610874 161360.657098 
L 505.419029 161360.657098 
L 504.227184 161360.657098 
L 503.03534 161360.657098 
L 501.843495 161360.657098 
L 500.65165 161360.657098 
L 499.459806 161360.657098 
L 498.267961 161360.657098 
L 497.076117 161360.657098 
L 495.884272 161360.657098 
L 494.692427 161360.657098 
L 493.500583 161360.657098 
L 492.308738 161360.657098 
L 491.116893 161360.657098 
L 489.925049 161360.657098 
L 488.733204 161360.657098 
L 487.541359 161360.657098 
L 486.349515 161360.657098 
L 485.15767 161360.657098 
L 483.965825 161360.657098 
L 482.773981 161360.657098 
L 481.582136 161360.657098 
L 480.390291 161360.657098 
L 479.198447 161360.657098 
L 478.006602 161360.657098 
L 476.814757 161360.657098 
L 475.622913 161360.657098 
L 474.431068 161360.657098 
L 473.239223 161360.657098 
L 472.047379 161360.657098 
L 470.855534 161360.657098 
L 469.663689 161360.657098 
L 468.471845 161360.657098 
L 467.28 161360.657098 
L 466.088155 161360.657098 
L 464.896311 161360.657098 
L 463.704466 161360.657098 
L 462.512621 161360.657098 
L 461.320777 161360.657098 
L 460.128932 161360.657098 
L 458.937087 161360.657098 
L 457.745243 161360.657098 
L 456.553398 161360.657098 
L 455.361553 161360.657098 
L 454.169709 161360.657098 
L 452.977864 161360.657098 
L 451.786019 161360.657098 
L 450.594175 161360.657098 
L 449.40233 161360.657098 
L 448.210485 161360.657098 
L 447.018641 161360.657098 
L 445.826796 161360.657098 
L 444.634951 161360.657098 
L 443.443107 161360.657098 
L 442.251262 161360.657098 
L 441.059417 161360.657098 
L 439.867573 161360.657098 
L 438.675728 161360.657098 
L 437.483883 161360.657098 
L 436.292039 161360.657098 
L 435.100194 161360.657098 
L 433.90835 161360.657098 
L 432.716505 161360.657098 
L 431.52466 161360.657098 
L 430.332816 161360.657098 
L 429.140971 161360.657098 
L 427.949126 161360.657098 
L 426.757282 161360.657098 
L 425.565437 161360.657098 
L 424.373592 161360.657098 
L 423.181748 161360.657098 
L 421.989903 161360.657098 
L 420.798058 161360.657098 
L 419.606214 161360.657098 
L 418.414369 161360.657098 
L 417.222524 161360.657098 
L 416.03068 161360.657098 
L 414.838835 161360.657098 
L 413.64699 161360.657098 
L 412.455146 161360.657098 
L 411.263301 161360.657098 
L 410.071456 161360.657098 
L 408.879612 161360.657098 
L 407.687767 161360.657098 
L 406.495922 161360.657098 
L 405.304078 161360.657098 
L 404.112233 161360.657098 
L 402.920388 161360.657098 
L 401.728544 161360.657098 
L 400.536699 161360.657098 
L 399.344854 161360.657098 
L 398.15301 161360.657098 
L 396.961165 161360.657098 
L 395.76932 161360.657098 
L 394.577476 161360.657098 
L 393.385631 161360.657098 
L 392.193786 161360.657098 
L 391.001942 161360.657098 
L 389.810097 161360.657098 
L 388.618252 161360.657098 
L 387.426408 161360.657098 
L 386.234563 161360.657098 
L 385.042718 161360.657098 
L 383.850874 161360.657098 
L 382.659029 161360.657098 
L 381.467184 161360.657098 
L 380.27534 161360.657098 
L 379.083495 161360.657098 
L 377.89165 161360.657098 
L 376.699806 161360.657098 
L 375.507961 161360.657098 
L 374.316117 161360.657098 
L 373.124272 161360.657098 
L 371.932427 161360.657098 
L 370.740583 161360.657098 
L 369.548738 161360.657098 
L 368.356893 161360.657098 
L 367.165049 161360.657098 
L 365.973204 161360.657098 
L 364.781359 161360.657098 
L 363.589515 161360.657098 
L 362.39767 161360.657098 
L 361.205825 161360.657098 
L 360.013981 161360.657098 
L 358.822136 161360.657098 
L 357.630291 161360.657098 
L 356.438447 161360.657098 
L 355.246602 161360.657098 
L 354.054757 161360.657098 
L 352.862913 161360.657098 
L 351.671068 482.190272 
L 350.479223 482.190272 
L 349.287379 482.190272 
L 348.095534 161360.657098 
L 346.903689 161360.657098 
L 345.711845 161360.657098 
L 344.52 161360.657098 
L 343.328155 161360.657098 
L 342.136311 161360.657098 
L 340.944466 161360.657098 
L 339.752621 161360.657098 
L 338.560777 161360.657098 
L 337.368932 161360.657098 
L 336.177087 161360.657098 
L 334.985243 161360.657098 
L 333.793398 161360.657098 
L 332.601553 161360.657098 
L 331.409709 161360.657098 
L 330.217864 161360.657098 
L 329.026019 161360.657098 
L 327.834175 161360.657098 
L 326.64233 482.190272 
L 325.450485 482.190272 
L 324.258641 482.190272 
L 323.066796 474.82854 
L 321.874951 474.82854 
L 320.683107 474.82854 
L 319.491262 482.190272 
L 318.299417 482.190272 
L 317.107573 482.190272 
L 315.915728 161360.657098 
L 314.723883 161360.657098 
L 313.532039 161360.657098 
L 312.340194 161360.657098 
L 311.14835 161360.657098 
L 309.956505 161360.657098 
L 308.76466 161360.657098 
L 307.572816 161360.657098 
L 306.380971 161360.657098 
L 305.189126 161360.657098 
L 303.997282 161360.657098 
L 302.805437 161360.657098 
L 301.613592 161360.657098 
L 300.421748 161360.657098 
L 299.229903 161360.657098 
L 298.038058 161360.657098 
L 296.846214 161360.657098 
L 295.654369 161360.657098 
L 294.462524 161360.657098 
L 293.27068 161360.657098 
L 292.078835 161360.657098 
L 290.88699 161360.657098 
L 289.695146 161360.657098 
L 288.503301 161360.657098 
L 287.311456 161360.657098 
L 286.119612 161360.657098 
L 284.927767 161360.657098 
L 283.735922 161360.657098 
L 282.544078 161360.657098 
L 281.352233 161360.657098 
L 280.160388 161360.657098 
L 278.968544 161360.657098 
L 277.776699 161360.657098 
L 276.584854 161360.657098 
L 275.39301 161360.657098 
L 274.201165 161360.657098 
L 273.00932 161360.657098 
L 271.817476 161360.657098 
L 270.625631 161360.657098 
L 269.433786 161360.657098 
L 268.241942 161360.657098 
L 267.050097 161360.657098 
L 265.858252 161360.657098 
L 264.666408 161360.657098 
L 263.474563 161360.657098 
L 262.282718 161360.657098 
L 261.090874 161360.657098 
L 259.899029 161360.657098 
L 258.707184 161360.657098 
L 257.51534 161360.657098 
L 256.323495 161360.657098 
L 255.13165 161360.657098 
L 253.939806 161360.657098 
L 252.747961 161360.657098 
L 251.556117 161360.657098 
L 250.364272 161360.657098 
L 249.172427 161360.657098 
L 247.980583 161360.657098 
L 246.788738 161360.657098 
L 245.596893 161360.657098 
L 244.405049 161360.657098 
L 243.213204 161360.657098 
L 242.021359 161360.657098 
L 240.829515 161360.657098 
L 239.63767 161360.657098 
L 238.445825 161360.657098 
L 237.253981 161360.657098 
L 236.062136 161360.657098 
L 234.870291 161360.657098 
L 233.678447 161360.657098 
L 232.486602 161360.657098 
L 231.294757 161360.657098 
L 230.102913 161360.657098 
L 228.911068 161360.657098 
L 227.719223 161360.657098 
L 226.527379 161360.657098 
L 225.335534 161360.657098 
L 224.143689 161360.657098 
L 222.951845 161360.657098 
L 221.76 161360.657098 
L 220.568155 161360.657098 
L 219.376311 161360.657098 
L 218.184466 161360.657098 
L 216.992621 161360.657098 
L 215.800777 161360.657098 
L 214.608932 161360.657098 
L 213.417087 161360.657098 
L 212.225243 161360.657098 
L 211.033398 161360.657098 
L 209.841553 161360.657098 
L 208.649709 161360.657098 
L 207.457864 161360.657098 
L 206.266019 161360.657098 
L 205.074175 161360.657098 
L 203.88233 161360.657098 
L 202.690485 161360.657098 
L 201.498641 161360.657098 
L 200.306796 161360.657098 
L 199.114951 161360.657098 
L 197.923107 161360.657098 
L 196.731262 161360.657098 
L 195.539417 161360.657098 
L 194.347573 161360.657098 
L 193.155728 161360.657098 
L 191.963883 161360.657098 
L 190.772039 161360.657098 
L 189.580194 161360.657098 
L 188.38835 161360.657098 
L 187.196505 161360.657098 
L 186.00466 161360.657098 
L 184.812816 161360.657098 
L 183.620971 161360.657098 
L 182.429126 161360.657098 
L 181.237282 161360.657098 
L 180.045437 161360.657098 
L 178.853592 161360.657098 
L 177.661748 161360.657098 
L 176.469903 161360.657098 
L 175.278058 161360.657098 
L 174.086214 161360.657098 
L 172.894369 161360.657098 
L 171.702524 161360.657098 
L 170.51068 161360.657098 
L 169.318835 161360.657098 
L 168.12699 161360.657098 
L 166.935146 161360.657098 
L 165.743301 161360.657098 
L 164.551456 161360.657098 
L 163.359612 161360.657098 
L 162.167767 161360.657098 
L 160.975922 161360.657098 
L 159.784078 161360.657098 
L 158.592233 161360.657098 
L 157.400388 161360.657098 
L 156.208544 161360.657098 
L 155.016699 161360.657098 
L 153.824854 161360.657098 
L 152.63301 161360.657098 
L 151.441165 161360.657098 
L 150.24932 161360.657098 
L 149.057476 161360.657098 
L 147.865631 161360.657098 
L 146.673786 161360.657098 
L 145.481942 161360.657098 
L 144.290097 161360.657098 
L 143.098252 161360.657098 
L 141.906408 161360.657098 
L 140.714563 161360.657098 
L 139.522718 161360.657098 
L 138.330874 161360.657098 
L 137.139029 161360.657098 
L 135.947184 161360.657098 
L 134.75534 161360.657098 
L 133.563495 161360.657098 
L 132.37165 161360.657098 
L 131.179806 161360.657098 
L 129.987961 161360.657098 
L 128.796117 161360.657098 
L 127.604272 161360.657098 
L 126.412427 161360.657098 
L 125.220583 161360.657098 
L 124.028738 161360.657098 
L 122.836893 161360.657098 
L 121.645049 161360.657098 
L 120.453204 161360.657098 
L 119.261359 161360.657098 
L 118.069515 161360.657098 
L 116.87767 161360.657098 
L 115.685825 161360.657098 
L 114.493981 161360.657098 
L 113.302136 161360.657098 
L 112.110291 161360.657098 
L 110.918447 161360.657098 
L 109.726602 161360.657098 
L 108.534757 161360.657098 
L 107.342913 161360.657098 
L 106.151068 161360.657098 
L 104.959223 161360.657098 
L 103.767379 161360.657098 
L 102.575534 161360.657098 
L 101.383689 161360.657098 
L 100.191845 161360.657098 
L 99 161360.657098 
z
" style="fill:#ff8080;fill-opacity:0.5;stroke:#ff8080;stroke-opacity:0.5;"/>
   </g>
   <g id="matplotlib.axis_1">
    <g id="xtick_1">
     <g id="line2d_1">
      <path clip-path="url(#p68e2955192)" d="M 99 544.68 
L 99 73.44 
" style="fill:none;stroke:#b0b0b0;stroke-linecap:square;stroke-width:0.8;"/>
     </g>
     <g id="line2d_2">
      <defs>
       <path d="M 0 0 
L 0 3.5 
" id="m4abed1d830" style="stroke:#000000;stroke-width:0.8;"/>
      </defs>
      <g>
       <use style="stroke:#000000;stroke-width:0.8;" x="99" xlink:href="#m4abed1d830" y="544.68"/>
      </g>
     </g>
    </g>
    <g id="xtick_2">
     <g id="line2d_3">
      <path clip-path="url(#p68e2955192)" d="M 119.261359 544.68 
L 119.261359 73.44 
" style="fill:none;stroke:#b0b0b0;stroke-linecap:square;stroke-width:0.8;"/>
     </g>
     <g id="line2d_4">
      <g>
       <use style="stroke:#000000;stroke-width:0.8;" x="119.261359" xlink:href="#m4abed1d830" y="544.68"/>
      </g>
     </g>
     <g id="text_1">
      <!-- Apr -->
      <g transform="translate(110.611359 559.278437)scale(0.1 -0.1)">
       <defs>
        <path d="M 2188 4044 
L 1331 1722 
L 3047 1722 
L 2188 4044 
z
M 1831 4666 
L 2547 4666 
L 4325 0 
L 3669 0 
L 3244 1197 
L 1141 1197 
L 716 0 
L 50 0 
L 1831 4666 
z
" id="DejaVuSans-41" transform="scale(0.015625)"/>
        <path d="M 1159 525 
L 1159 -1331 
L 581 -1331 
L 581 3500 
L 1159 3500 
L 1159 2969 
Q 1341 3281 1617 3432 
Q 1894 3584 2278 3584 
Q 2916 3584 3314 3078 
Q 3713 2572 3713 1747 
Q 3713 922 3314 415 
Q 2916 -91 2278 -91 
Q 1894 -91 1617 61 
Q 1341 213 1159 525 
z
M 3116 1747 
Q 3116 2381 2855 2742 
Q 2594 3103 2138 3103 
Q 1681 3103 1420 2742 
Q 1159 2381 1159 1747 
Q 1159 1113 1420 752 
Q 1681 391 2138 391 
Q 2594 391 2855 752 
Q 3116 1113 3116 1747 
z
" id="DejaVuSans-70" transform="scale(0.015625)"/>
        <path d="M 2631 2963 
Q 2534 3019 2420 3045 
Q 2306 3072 2169 3072 
Q 1681 3072 1420 2755 
Q 1159 2438 1159 1844 
L 1159 0 
L 581 0 
L 581 3500 
L 1159 3500 
L 1159 2956 
Q 1341 3275 1631 3429 
Q 1922 3584 2338 3584 
Q 2397 3584 2469 3576 
Q 2541 3569 2628 3553 
L 2631 2963 
z
" id="DejaVuSans-72" transform="scale(0.015625)"/>
       </defs>
       <use xlink:href="#DejaVuSans-41"/>
       <use x="68.408203" xlink:href="#DejaVuSans-70"/>
       <use x="131.884766" xlink:href="#DejaVuSans-72"/>
      </g>
     </g>
    </g>
    <g id="xtick_3">
     <g id="line2d_5">
      <path clip-path="url(#p68e2955192)" d="M 227.719223 544.68 
L 227.719223 73.44 
" style="fill:none;stroke:#b0b0b0;stroke-linecap:square;stroke-width:0.8;"/>
     </g>
     <g id="line2d_6">
      <g>
       <use style="stroke:#000000;stroke-width:0.8;" x="227.719223" xlink:href="#m4abed1d830" y="544.68"/>
      </g>
     </g>
     <g id="text_2">
      <!-- Jul -->
      <g transform="translate(221.686411 559.278437)scale(0.1 -0.1)">
       <defs>
        <path d="M 628 4666 
L 1259 4666 
L 1259 325 
Q 1259 -519 939 -900 
Q 619 -1281 -91 -1281 
L -331 -1281 
L -331 -750 
L -134 -750 
Q 284 -750 456 -515 
Q 628 -281 628 325 
L 628 4666 
z
" id="DejaVuSans-4a" transform="scale(0.015625)"/>
        <path d="M 544 1381 
L 544 3500 
L 1119 3500 
L 1119 1403 
Q 1119 906 1312 657 
Q 1506 409 1894 409 
Q 2359 409 2629 706 
Q 2900 1003 2900 1516 
L 2900 3500 
L 3475 3500 
L 3475 0 
L 2900 0 
L 2900 538 
Q 2691 219 2414 64 
Q 2138 -91 1772 -91 
Q 1169 -91 856 284 
Q 544 659 544 1381 
z
M 1991 3584 
L 1991 3584 
z
" id="DejaVuSans-75" transform="scale(0.015625)"/>
        <path d="M 603 4863 
L 1178 4863 
L 1178 0 
L 603 0 
L 603 4863 
z
" id="DejaVuSans-6c" transform="scale(0.015625)"/>
       </defs>
       <use xlink:href="#DejaVuSans-4a"/>
       <use x="29.492188" xlink:href="#DejaVuSans-75"/>
       <use x="92.871094" xlink:href="#DejaVuSans-6c"/>
      </g>
     </g>
    </g>
    <g id="xtick_4">
     <g id="line2d_7">
      <path clip-path="url(#p68e2955192)" d="M 337.368932 544.68 
L 337.368932 73.44 
" style="fill:none;stroke:#b0b0b0;stroke-linecap:square;stroke-width:0.8;"/>
     </g>
     <g id="line2d_8">
      <g>
       <use style="stroke:#000000;stroke-width:0.8;" x="337.368932" xlink:href="#m4abed1d830" y="544.68"/>
      </g>
     </g>
     <g id="text_3">
      <!-- Oct -->
      <g transform="translate(328.72362 559.278437)scale(0.1 -0.1)">
       <defs>
        <path d="M 2522 4238 
Q 1834 4238 1429 3725 
Q 1025 3213 1025 2328 
Q 1025 1447 1429 934 
Q 1834 422 2522 422 
Q 3209 422 3611 934 
Q 4013 1447 4013 2328 
Q 4013 3213 3611 3725 
Q 3209 4238 2522 4238 
z
M 2522 4750 
Q 3503 4750 4090 4092 
Q 4678 3434 4678 2328 
Q 4678 1225 4090 567 
Q 3503 -91 2522 -91 
Q 1538 -91 948 565 
Q 359 1222 359 2328 
Q 359 3434 948 4092 
Q 1538 4750 2522 4750 
z
" id="DejaVuSans-4f" transform="scale(0.015625)"/>
        <path d="M 3122 3366 
L 3122 2828 
Q 2878 2963 2633 3030 
Q 2388 3097 2138 3097 
Q 1578 3097 1268 2742 
Q 959 2388 959 1747 
Q 959 1106 1268 751 
Q 1578 397 2138 397 
Q 2388 397 2633 464 
Q 2878 531 3122 666 
L 3122 134 
Q 2881 22 2623 -34 
Q 2366 -91 2075 -91 
Q 1284 -91 818 406 
Q 353 903 353 1747 
Q 353 2603 823 3093 
Q 1294 3584 2113 3584 
Q 2378 3584 2631 3529 
Q 2884 3475 3122 3366 
z
" id="DejaVuSans-63" transform="scale(0.015625)"/>
        <path d="M 1172 4494 
L 1172 3500 
L 2356 3500 
L 2356 3053 
L 1172 3053 
L 1172 1153 
Q 1172 725 1289 603 
Q 1406 481 1766 481 
L 2356 481 
L 2356 0 
L 1766 0 
Q 1100 0 847 248 
Q 594 497 594 1153 
L 594 3053 
L 172 3053 
L 172 3500 
L 594 3500 
L 594 4494 
L 1172 4494 
z
" id="DejaVuSans-74" transform="scale(0.015625)"/>
       </defs>
       <use xlink:href="#DejaVuSans-4f"/>
       <use x="78.710938" xlink:href="#DejaVuSans-63"/>
       <use x="133.691406" xlink:href="#DejaVuSans-74"/>
      </g>
     </g>
    </g>
    <g id="xtick_5">
     <g id="line2d_9">
      <path clip-path="url(#p68e2955192)" d="M 447.018641 544.68 
L 447.018641 73.44 
" style="fill:none;stroke:#b0b0b0;stroke-linecap:square;stroke-width:0.8;"/>
     </g>
     <g id="line2d_10">
      <g>
       <use style="stroke:#000000;stroke-width:0.8;" x="447.018641" xlink:href="#m4abed1d830" y="544.68"/>
      </g>
     </g>
     <g id="text_4">
      <!-- Jan -->
      <g transform="translate(439.310828 559.278437)scale(0.1 -0.1)">
       <defs>
        <path d="M 2194 1759 
Q 1497 1759 1228 1600 
Q 959 1441 959 1056 
Q 959 750 1161 570 
Q 1363 391 1709 391 
Q 2188 391 2477 730 
Q 2766 1069 2766 1631 
L 2766 1759 
L 2194 1759 
z
M 3341 1997 
L 3341 0 
L 2766 0 
L 2766 531 
Q 2569 213 2275 61 
Q 1981 -91 1556 -91 
Q 1019 -91 701 211 
Q 384 513 384 1019 
Q 384 1609 779 1909 
Q 1175 2209 1959 2209 
L 2766 2209 
L 2766 2266 
Q 2766 2663 2505 2880 
Q 2244 3097 1772 3097 
Q 1472 3097 1187 3025 
Q 903 2953 641 2809 
L 641 3341 
Q 956 3463 1253 3523 
Q 1550 3584 1831 3584 
Q 2591 3584 2966 3190 
Q 3341 2797 3341 1997 
z
" id="DejaVuSans-61" transform="scale(0.015625)"/>
        <path d="M 3513 2113 
L 3513 0 
L 2938 0 
L 2938 2094 
Q 2938 2591 2744 2837 
Q 2550 3084 2163 3084 
Q 1697 3084 1428 2787 
Q 1159 2491 1159 1978 
L 1159 0 
L 581 0 
L 581 3500 
L 1159 3500 
L 1159 2956 
Q 1366 3272 1645 3428 
Q 1925 3584 2291 3584 
Q 2894 3584 3203 3211 
Q 3513 2838 3513 2113 
z
" id="DejaVuSans-6e" transform="scale(0.015625)"/>
       </defs>
       <use xlink:href="#DejaVuSans-4a"/>
       <use x="29.492188" xlink:href="#DejaVuSans-61"/>
       <use x="90.771484" xlink:href="#DejaVuSans-6e"/>
      </g>
      <!-- 2021 -->
      <g transform="translate(434.293641 570.47625)scale(0.1 -0.1)">
       <defs>
        <path d="M 1228 531 
L 3431 531 
L 3431 0 
L 469 0 
L 469 531 
Q 828 903 1448 1529 
Q 2069 2156 2228 2338 
Q 2531 2678 2651 2914 
Q 2772 3150 2772 3378 
Q 2772 3750 2511 3984 
Q 2250 4219 1831 4219 
Q 1534 4219 1204 4116 
Q 875 4013 500 3803 
L 500 4441 
Q 881 4594 1212 4672 
Q 1544 4750 1819 4750 
Q 2544 4750 2975 4387 
Q 3406 4025 3406 3419 
Q 3406 3131 3298 2873 
Q 3191 2616 2906 2266 
Q 2828 2175 2409 1742 
Q 1991 1309 1228 531 
z
" id="DejaVuSans-32" transform="scale(0.015625)"/>
        <path d="M 2034 4250 
Q 1547 4250 1301 3770 
Q 1056 3291 1056 2328 
Q 1056 1369 1301 889 
Q 1547 409 2034 409 
Q 2525 409 2770 889 
Q 3016 1369 3016 2328 
Q 3016 3291 2770 3770 
Q 2525 4250 2034 4250 
z
M 2034 4750 
Q 2819 4750 3233 4129 
Q 3647 3509 3647 2328 
Q 3647 1150 3233 529 
Q 2819 -91 2034 -91 
Q 1250 -91 836 529 
Q 422 1150 422 2328 
Q 422 3509 836 4129 
Q 1250 4750 2034 4750 
z
" id="DejaVuSans-30" transform="scale(0.015625)"/>
        <path d="M 794 531 
L 1825 531 
L 1825 4091 
L 703 3866 
L 703 4441 
L 1819 4666 
L 2450 4666 
L 2450 531 
L 3481 531 
L 3481 0 
L 794 0 
L 794 531 
z
" id="DejaVuSans-31" transform="scale(0.015625)"/>
       </defs>
       <use xlink:href="#DejaVuSans-32"/>
       <use x="63.623047" xlink:href="#DejaVuSans-30"/>
       <use x="127.246094" xlink:href="#DejaVuSans-32"/>
       <use x="190.869141" xlink:href="#DejaVuSans-31"/>
      </g>
     </g>
    </g>
    <g id="xtick_6">
     <g id="line2d_11">
      <path clip-path="url(#p68e2955192)" d="M 554.28466 544.68 
L 554.28466 73.44 
" style="fill:none;stroke:#b0b0b0;stroke-linecap:square;stroke-width:0.8;"/>
     </g>
     <g id="line2d_12">
      <g>
       <use style="stroke:#000000;stroke-width:0.8;" x="554.28466" xlink:href="#m4abed1d830" y="544.68"/>
      </g>
     </g>
     <g id="text_5">
      <!-- Apr -->
      <g transform="translate(545.63466 559.278437)scale(0.1 -0.1)">
       <use xlink:href="#DejaVuSans-41"/>
       <use x="68.408203" xlink:href="#DejaVuSans-70"/>
       <use x="131.884766" xlink:href="#DejaVuSans-72"/>
      </g>
     </g>
    </g>
    <g id="xtick_7">
     <g id="line2d_13">
      <path clip-path="url(#p68e2955192)" d="M 662.742524 544.68 
L 662.742524 73.44 
" style="fill:none;stroke:#b0b0b0;stroke-linecap:square;stroke-width:0.8;"/>
     </g>
     <g id="line2d_14">
      <g>
       <use style="stroke:#000000;stroke-width:0.8;" x="662.742524" xlink:href="#m4abed1d830" y="544.68"/>
      </g>
     </g>
     <g id="text_6">
      <!-- Jul -->
      <g transform="translate(656.709712 559.278437)scale(0.1 -0.1)">
       <use xlink:href="#DejaVuSans-4a"/>
       <use x="29.492188" xlink:href="#DejaVuSans-75"/>
       <use x="92.871094" xlink:href="#DejaVuSans-6c"/>
      </g>
     </g>
    </g>
    <g id="xtick_8">
     <g id="line2d_15">
      <path clip-path="url(#p68e2955192)" d="M 712.8 544.68 
L 712.8 73.44 
" style="fill:none;stroke:#b0b0b0;stroke-linecap:square;stroke-width:0.8;"/>
     </g>
     <g id="line2d_16">
      <g>
       <use style="stroke:#000000;stroke-width:0.8;" x="712.8" xlink:href="#m4abed1d830" y="544.68"/>
      </g>
     </g>
    </g>
    <g id="xtick_9">
     <g id="line2d_17">
      <defs>
       <path d="M 0 0 
L 0 2 
" id="mbe9820739d" style="stroke:#000000;stroke-width:0.6;"/>
      </defs>
      <g>
       <use style="stroke:#000000;stroke-width:0.6;" x="155.016699" xlink:href="#mbe9820739d" y="544.68"/>
      </g>
     </g>
    </g>
    <g id="xtick_10">
     <g id="line2d_18">
      <g>
       <use style="stroke:#000000;stroke-width:0.6;" x="191.963883" xlink:href="#mbe9820739d" y="544.68"/>
      </g>
     </g>
    </g>
    <g id="xtick_11">
     <g id="line2d_19">
      <g>
       <use style="stroke:#000000;stroke-width:0.6;" x="264.666408" xlink:href="#mbe9820739d" y="544.68"/>
      </g>
     </g>
    </g>
    <g id="xtick_12">
     <g id="line2d_20">
      <g>
       <use style="stroke:#000000;stroke-width:0.6;" x="301.613592" xlink:href="#mbe9820739d" y="544.68"/>
      </g>
     </g>
    </g>
    <g id="xtick_13">
     <g id="line2d_21">
      <g>
       <use style="stroke:#000000;stroke-width:0.6;" x="374.316117" xlink:href="#mbe9820739d" y="544.68"/>
      </g>
     </g>
    </g>
    <g id="xtick_14">
     <g id="line2d_22">
      <g>
       <use style="stroke:#000000;stroke-width:0.6;" x="410.071456" xlink:href="#mbe9820739d" y="544.68"/>
      </g>
     </g>
    </g>
    <g id="xtick_15">
     <g id="line2d_23">
      <g>
       <use style="stroke:#000000;stroke-width:0.6;" x="483.965825" xlink:href="#mbe9820739d" y="544.68"/>
      </g>
     </g>
    </g>
    <g id="xtick_16">
     <g id="line2d_24">
      <g>
       <use style="stroke:#000000;stroke-width:0.6;" x="517.337476" xlink:href="#mbe9820739d" y="544.68"/>
      </g>
     </g>
    </g>
    <g id="xtick_17">
     <g id="line2d_25">
      <g>
       <use style="stroke:#000000;stroke-width:0.6;" x="590.04" xlink:href="#mbe9820739d" y="544.68"/>
      </g>
     </g>
    </g>
    <g id="xtick_18">
     <g id="line2d_26">
      <g>
       <use style="stroke:#000000;stroke-width:0.6;" x="626.987184" xlink:href="#mbe9820739d" y="544.68"/>
      </g>
     </g>
    </g>
    <g id="xtick_19">
     <g id="line2d_27">
      <g>
       <use style="stroke:#000000;stroke-width:0.6;" x="699.689709" xlink:href="#mbe9820739d" y="544.68"/>
      </g>
     </g>
    </g>
    <g id="text_7">
     <!-- Date -->
     <g transform="translate(393.949219 584.154375)scale(0.1 -0.1)">
      <defs>
       <path d="M 1259 4147 
L 1259 519 
L 2022 519 
Q 2988 519 3436 956 
Q 3884 1394 3884 2338 
Q 3884 3275 3436 3711 
Q 2988 4147 2022 4147 
L 1259 4147 
z
M 628 4666 
L 1925 4666 
Q 3281 4666 3915 4102 
Q 4550 3538 4550 2338 
Q 4550 1131 3912 565 
Q 3275 0 1925 0 
L 628 0 
L 628 4666 
z
" id="DejaVuSans-44" transform="scale(0.015625)"/>
       <path d="M 3597 1894 
L 3597 1613 
L 953 1613 
Q 991 1019 1311 708 
Q 1631 397 2203 397 
Q 2534 397 2845 478 
Q 3156 559 3463 722 
L 3463 178 
Q 3153 47 2828 -22 
Q 2503 -91 2169 -91 
Q 1331 -91 842 396 
Q 353 884 353 1716 
Q 353 2575 817 3079 
Q 1281 3584 2069 3584 
Q 2775 3584 3186 3129 
Q 3597 2675 3597 1894 
z
M 3022 2063 
Q 3016 2534 2758 2815 
Q 2500 3097 2075 3097 
Q 1594 3097 1305 2825 
Q 1016 2553 972 2059 
L 3022 2063 
z
" id="DejaVuSans-65" transform="scale(0.015625)"/>
      </defs>
      <use xlink:href="#DejaVuSans-44"/>
      <use x="77.001953" xlink:href="#DejaVuSans-61"/>
      <use x="138.28125" xlink:href="#DejaVuSans-74"/>
      <use x="177.490234" xlink:href="#DejaVuSans-65"/>
     </g>
    </g>
   </g>
   <g id="matplotlib.axis_2">
    <g id="ytick_1">
     <g id="line2d_28">
      <path clip-path="url(#p68e2955192)" d="M 99 474.82854 
L 712.8 474.82854 
" style="fill:none;stroke:#b0b0b0;stroke-linecap:square;stroke-width:0.8;"/>
     </g>
     <g id="line2d_29">
      <defs>
       <path d="M 0 0 
L -3.5 0 
" id="me91a084207" style="stroke:#000000;stroke-width:0.8;"/>
      </defs>
      <g>
       <use style="stroke:#000000;stroke-width:0.8;" x="99" xlink:href="#me91a084207" y="474.82854"/>
      </g>
     </g>
     <g id="text_8">
      <!-- $\mathdefault{10^{0}}$ -->
      <g transform="translate(74.4 478.627758)scale(0.1 -0.1)">
       <use transform="translate(0 0.765625)" xlink:href="#DejaVuSans-31"/>
       <use transform="translate(63.623047 0.765625)" xlink:href="#DejaVuSans-30"/>
       <use transform="translate(128.203125 39.046875)scale(0.7)" xlink:href="#DejaVuSans-30"/>
      </g>
     </g>
    </g>
    <g id="ytick_2">
     <g id="line2d_30">
      <path clip-path="url(#p68e2955192)" d="M 99 313.942711 
L 712.8 313.942711 
" style="fill:none;stroke:#b0b0b0;stroke-linecap:square;stroke-width:0.8;"/>
     </g>
     <g id="line2d_31">
      <g>
       <use style="stroke:#000000;stroke-width:0.8;" x="99" xlink:href="#me91a084207" y="313.942711"/>
      </g>
     </g>
     <g id="text_9">
      <!-- $\mathdefault{10^{1}}$ -->
      <g transform="translate(74.4 317.74193)scale(0.1 -0.1)">
       <use transform="translate(0 0.684375)" xlink:href="#DejaVuSans-31"/>
       <use transform="translate(63.623047 0.684375)" xlink:href="#DejaVuSans-30"/>
       <use transform="translate(128.203125 38.965625)scale(0.7)" xlink:href="#DejaVuSans-31"/>
      </g>
     </g>
    </g>
    <g id="ytick_3">
     <g id="line2d_32">
      <path clip-path="url(#p68e2955192)" d="M 99 153.056883 
L 712.8 153.056883 
" style="fill:none;stroke:#b0b0b0;stroke-linecap:square;stroke-width:0.8;"/>
     </g>
     <g id="line2d_33">
      <g>
       <use style="stroke:#000000;stroke-width:0.8;" x="99" xlink:href="#me91a084207" y="153.056883"/>
      </g>
     </g>
     <g id="text_10">
      <!-- $\mathdefault{10^{2}}$ -->
      <g transform="translate(74.4 156.856101)scale(0.1 -0.1)">
       <use transform="translate(0 0.765625)" xlink:href="#DejaVuSans-31"/>
       <use transform="translate(63.623047 0.765625)" xlink:href="#DejaVuSans-30"/>
       <use transform="translate(128.203125 39.046875)scale(0.7)" xlink:href="#DejaVuSans-32"/>
      </g>
     </g>
    </g>
    <g id="ytick_4">
     <g id="line2d_34">
      <path clip-path="url(#p68e2955192)" d="M 99 538.851448 
L 712.8 538.851448 
" style="fill:none;stroke:#b0b0b0;stroke-linecap:square;stroke-width:0.8;"/>
     </g>
     <g id="line2d_35">
      <defs>
       <path d="M 0 0 
L -2 0 
" id="m0cb60b688e" style="stroke:#000000;stroke-width:0.6;"/>
      </defs>
      <g>
       <use style="stroke:#000000;stroke-width:0.6;" x="99" xlink:href="#m0cb60b688e" y="538.851448"/>
      </g>
     </g>
    </g>
    <g id="ytick_5">
     <g id="line2d_36">
      <path clip-path="url(#p68e2955192)" d="M 99 523.26 
L 712.8 523.26 
" style="fill:none;stroke:#b0b0b0;stroke-linecap:square;stroke-width:0.8;"/>
     </g>
     <g id="line2d_37">
      <g>
       <use style="stroke:#000000;stroke-width:0.6;" x="99" xlink:href="#m0cb60b688e" y="523.26"/>
      </g>
     </g>
    </g>
    <g id="ytick_6">
     <g id="line2d_38">
      <path clip-path="url(#p68e2955192)" d="M 99 510.52086 
L 712.8 510.52086 
" style="fill:none;stroke:#b0b0b0;stroke-linecap:square;stroke-width:0.8;"/>
     </g>
     <g id="line2d_39">
      <g>
       <use style="stroke:#000000;stroke-width:0.6;" x="99" xlink:href="#m0cb60b688e" y="510.52086"/>
      </g>
     </g>
    </g>
    <g id="ytick_7">
     <g id="line2d_40">
      <path clip-path="url(#p68e2955192)" d="M 99 499.75007 
L 712.8 499.75007 
" style="fill:none;stroke:#b0b0b0;stroke-linecap:square;stroke-width:0.8;"/>
     </g>
     <g id="line2d_41">
      <g>
       <use style="stroke:#000000;stroke-width:0.6;" x="99" xlink:href="#m0cb60b688e" y="499.75007"/>
      </g>
     </g>
    </g>
    <g id="ytick_8">
     <g id="line2d_42">
      <path clip-path="url(#p68e2955192)" d="M 99 490.419987 
L 712.8 490.419987 
" style="fill:none;stroke:#b0b0b0;stroke-linecap:square;stroke-width:0.8;"/>
     </g>
     <g id="line2d_43">
      <g>
       <use style="stroke:#000000;stroke-width:0.6;" x="99" xlink:href="#m0cb60b688e" y="490.419987"/>
      </g>
     </g>
    </g>
    <g id="ytick_9">
     <g id="line2d_44">
      <path clip-path="url(#p68e2955192)" d="M 99 482.190272 
L 712.8 482.190272 
" style="fill:none;stroke:#b0b0b0;stroke-linecap:square;stroke-width:0.8;"/>
     </g>
     <g id="line2d_45">
      <g>
       <use style="stroke:#000000;stroke-width:0.6;" x="99" xlink:href="#m0cb60b688e" y="482.190272"/>
      </g>
     </g>
    </g>
    <g id="ytick_10">
     <g id="line2d_46">
      <path clip-path="url(#p68e2955192)" d="M 99 426.397079 
L 712.8 426.397079 
" style="fill:none;stroke:#b0b0b0;stroke-linecap:square;stroke-width:0.8;"/>
     </g>
     <g id="line2d_47">
      <g>
       <use style="stroke:#000000;stroke-width:0.6;" x="99" xlink:href="#m0cb60b688e" y="426.397079"/>
      </g>
     </g>
    </g>
    <g id="ytick_11">
     <g id="line2d_48">
      <path clip-path="url(#p68e2955192)" d="M 99 398.066491 
L 712.8 398.066491 
" style="fill:none;stroke:#b0b0b0;stroke-linecap:square;stroke-width:0.8;"/>
     </g>
     <g id="line2d_49">
      <g>
       <use style="stroke:#000000;stroke-width:0.6;" x="99" xlink:href="#m0cb60b688e" y="398.066491"/>
      </g>
     </g>
    </g>
    <g id="ytick_12">
     <g id="line2d_50">
      <path clip-path="url(#p68e2955192)" d="M 99 377.965619 
L 712.8 377.965619 
" style="fill:none;stroke:#b0b0b0;stroke-linecap:square;stroke-width:0.8;"/>
     </g>
     <g id="line2d_51">
      <g>
       <use style="stroke:#000000;stroke-width:0.6;" x="99" xlink:href="#m0cb60b688e" y="377.965619"/>
      </g>
     </g>
    </g>
    <g id="ytick_13">
     <g id="line2d_52">
      <path clip-path="url(#p68e2955192)" d="M 99 362.374171 
L 712.8 362.374171 
" style="fill:none;stroke:#b0b0b0;stroke-linecap:square;stroke-width:0.8;"/>
     </g>
     <g id="line2d_53">
      <g>
       <use style="stroke:#000000;stroke-width:0.6;" x="99" xlink:href="#m0cb60b688e" y="362.374171"/>
      </g>
     </g>
    </g>
    <g id="ytick_14">
     <g id="line2d_54">
      <path clip-path="url(#p68e2955192)" d="M 99 349.635031 
L 712.8 349.635031 
" style="fill:none;stroke:#b0b0b0;stroke-linecap:square;stroke-width:0.8;"/>
     </g>
     <g id="line2d_55">
      <g>
       <use style="stroke:#000000;stroke-width:0.6;" x="99" xlink:href="#m0cb60b688e" y="349.635031"/>
      </g>
     </g>
    </g>
    <g id="ytick_15">
     <g id="line2d_56">
      <path clip-path="url(#p68e2955192)" d="M 99 338.864241 
L 712.8 338.864241 
" style="fill:none;stroke:#b0b0b0;stroke-linecap:square;stroke-width:0.8;"/>
     </g>
     <g id="line2d_57">
      <g>
       <use style="stroke:#000000;stroke-width:0.6;" x="99" xlink:href="#m0cb60b688e" y="338.864241"/>
      </g>
     </g>
    </g>
    <g id="ytick_16">
     <g id="line2d_58">
      <path clip-path="url(#p68e2955192)" d="M 99 329.534159 
L 712.8 329.534159 
" style="fill:none;stroke:#b0b0b0;stroke-linecap:square;stroke-width:0.8;"/>
     </g>
     <g id="line2d_59">
      <g>
       <use style="stroke:#000000;stroke-width:0.6;" x="99" xlink:href="#m0cb60b688e" y="329.534159"/>
      </g>
     </g>
    </g>
    <g id="ytick_17">
     <g id="line2d_60">
      <path clip-path="url(#p68e2955192)" d="M 99 321.304443 
L 712.8 321.304443 
" style="fill:none;stroke:#b0b0b0;stroke-linecap:square;stroke-width:0.8;"/>
     </g>
     <g id="line2d_61">
      <g>
       <use style="stroke:#000000;stroke-width:0.6;" x="99" xlink:href="#m0cb60b688e" y="321.304443"/>
      </g>
     </g>
    </g>
    <g id="ytick_18">
     <g id="line2d_62">
      <path clip-path="url(#p68e2955192)" d="M 99 265.511251 
L 712.8 265.511251 
" style="fill:none;stroke:#b0b0b0;stroke-linecap:square;stroke-width:0.8;"/>
     </g>
     <g id="line2d_63">
      <g>
       <use style="stroke:#000000;stroke-width:0.6;" x="99" xlink:href="#m0cb60b688e" y="265.511251"/>
      </g>
     </g>
    </g>
    <g id="ytick_19">
     <g id="line2d_64">
      <path clip-path="url(#p68e2955192)" d="M 99 237.180663 
L 712.8 237.180663 
" style="fill:none;stroke:#b0b0b0;stroke-linecap:square;stroke-width:0.8;"/>
     </g>
     <g id="line2d_65">
      <g>
       <use style="stroke:#000000;stroke-width:0.6;" x="99" xlink:href="#m0cb60b688e" y="237.180663"/>
      </g>
     </g>
    </g>
    <g id="ytick_20">
     <g id="line2d_66">
      <path clip-path="url(#p68e2955192)" d="M 99 217.079791 
L 712.8 217.079791 
" style="fill:none;stroke:#b0b0b0;stroke-linecap:square;stroke-width:0.8;"/>
     </g>
     <g id="line2d_67">
      <g>
       <use style="stroke:#000000;stroke-width:0.6;" x="99" xlink:href="#m0cb60b688e" y="217.079791"/>
      </g>
     </g>
    </g>
    <g id="ytick_21">
     <g id="line2d_68">
      <path clip-path="url(#p68e2955192)" d="M 99 201.488343 
L 712.8 201.488343 
" style="fill:none;stroke:#b0b0b0;stroke-linecap:square;stroke-width:0.8;"/>
     </g>
     <g id="line2d_69">
      <g>
       <use style="stroke:#000000;stroke-width:0.6;" x="99" xlink:href="#m0cb60b688e" y="201.488343"/>
      </g>
     </g>
    </g>
    <g id="ytick_22">
     <g id="line2d_70">
      <path clip-path="url(#p68e2955192)" d="M 99 188.749203 
L 712.8 188.749203 
" style="fill:none;stroke:#b0b0b0;stroke-linecap:square;stroke-width:0.8;"/>
     </g>
     <g id="line2d_71">
      <g>
       <use style="stroke:#000000;stroke-width:0.6;" x="99" xlink:href="#m0cb60b688e" y="188.749203"/>
      </g>
     </g>
    </g>
    <g id="ytick_23">
     <g id="line2d_72">
      <path clip-path="url(#p68e2955192)" d="M 99 177.978413 
L 712.8 177.978413 
" style="fill:none;stroke:#b0b0b0;stroke-linecap:square;stroke-width:0.8;"/>
     </g>
     <g id="line2d_73">
      <g>
       <use style="stroke:#000000;stroke-width:0.6;" x="99" xlink:href="#m0cb60b688e" y="177.978413"/>
      </g>
     </g>
    </g>
    <g id="ytick_24">
     <g id="line2d_74">
      <path clip-path="url(#p68e2955192)" d="M 99 168.64833 
L 712.8 168.64833 
" style="fill:none;stroke:#b0b0b0;stroke-linecap:square;stroke-width:0.8;"/>
     </g>
     <g id="line2d_75">
      <g>
       <use style="stroke:#000000;stroke-width:0.6;" x="99" xlink:href="#m0cb60b688e" y="168.64833"/>
      </g>
     </g>
    </g>
    <g id="ytick_25">
     <g id="line2d_76">
      <path clip-path="url(#p68e2955192)" d="M 99 160.418614 
L 712.8 160.418614 
" style="fill:none;stroke:#b0b0b0;stroke-linecap:square;stroke-width:0.8;"/>
     </g>
     <g id="line2d_77">
      <g>
       <use style="stroke:#000000;stroke-width:0.6;" x="99" xlink:href="#m0cb60b688e" y="160.418614"/>
      </g>
     </g>
    </g>
    <g id="ytick_26">
     <g id="line2d_78">
      <path clip-path="url(#p68e2955192)" d="M 99 104.625422 
L 712.8 104.625422 
" style="fill:none;stroke:#b0b0b0;stroke-linecap:square;stroke-width:0.8;"/>
     </g>
     <g id="line2d_79">
      <g>
       <use style="stroke:#000000;stroke-width:0.6;" x="99" xlink:href="#m0cb60b688e" y="104.625422"/>
      </g>
     </g>
    </g>
    <g id="ytick_27">
     <g id="line2d_80">
      <path clip-path="url(#p68e2955192)" d="M 99 76.294834 
L 712.8 76.294834 
" style="fill:none;stroke:#b0b0b0;stroke-linecap:square;stroke-width:0.8;"/>
     </g>
     <g id="line2d_81">
      <g>
       <use style="stroke:#000000;stroke-width:0.6;" x="99" xlink:href="#m0cb60b688e" y="76.294834"/>
      </g>
     </g>
    </g>
   </g>
   <g id="line2d_82">
    <path clip-path="url(#p68e2955192)" d="M 114.492389 613 
L 114.493981 398.066491 
L 115.685825 410.805632 
L 116.87767 410.805632 
L 118.069515 387.295702 
L 121.645049 387.295702 
L 122.836893 377.965619 
L 125.220583 377.965619 
L 126.412427 369.735903 
L 127.604272 344.042301 
L 128.796117 344.042301 
L 129.987961 329.534159 
L 131.179806 260.458074 
L 132.37165 226.409873 
L 133.563495 226.409873 
L 134.75534 260.458074 
L 135.947184 232.671238 
L 137.139029 226.409873 
L 138.330874 226.409873 
L 139.522718 232.671238 
L 140.714563 269.095207 
L 141.906408 269.095207 
L 143.098252 232.671238 
L 145.481942 232.671238 
L 146.673786 254.243151 
L 149.057476 334.043583 
L 150.24932 292.973855 
L 151.441165 292.973855 
L 152.63301 334.043583 
L 153.824854 369.735903 
L 155.016699 398.066491 
L 156.208544 410.805632 
L 157.400388 446.497952 
L 158.592233 474.82854 
L 159.784078 474.82854 
L 160.975922 523.26 
L 160.976587 613 
M 193.155063 613 
L 193.155728 523.26 
L 193.156393 613 
M 195.538752 613 
L 195.539417 523.26 
L 197.923107 523.26 
L 197.923772 613 
M 200.306131 613 
L 200.306796 523.26 
L 200.307461 613 
M 206.265354 613 
L 206.266019 523.26 
L 206.266684 613 
M 208.649044 613 
L 208.649709 523.26 
L 208.650374 613 
M 211.032733 613 
L 211.033398 523.26 
L 212.225243 523.26 
L 213.417087 474.82854 
L 218.184466 474.82854 
L 219.376311 446.497952 
L 220.568155 446.497952 
L 221.76 410.805632 
L 224.143689 410.805632 
L 225.335534 398.066491 
L 226.527379 387.295702 
L 227.719223 369.735903 
L 228.911068 362.374171 
L 230.102913 362.374171 
L 231.294757 387.295702 
L 232.486602 387.295702 
L 233.678447 362.374171 
L 234.870291 362.374171 
L 236.062136 377.965619 
L 237.253981 387.295702 
L 238.445825 398.066491 
L 240.829515 398.066491 
L 242.021359 426.397079 
L 244.405049 426.397079 
L 245.596893 446.497952 
L 246.788738 474.82854 
L 258.707184 474.82854 
L 259.899029 446.497952 
L 261.090874 426.397079 
L 262.282718 410.805632 
L 263.474563 410.805632 
L 264.666408 398.066491 
L 275.39301 398.066491 
L 277.776699 344.042301 
L 278.968544 334.043583 
L 280.160388 325.298206 
L 282.544078 325.298206 
L 284.927767 290.432781 
L 286.119612 287.980886 
L 287.311456 283.321038 
L 288.503301 274.841333 
L 290.88699 274.841333 
L 292.078835 263.785933 
L 293.27068 254.243151 
L 294.462524 245.848448 
L 295.654369 216.211806 
L 296.846214 194.196518 
L 299.229903 194.196518 
L 300.421748 189.923547 
L 303.997282 189.923547 
L 305.189126 192.333159 
L 307.572816 192.333159 
L 308.76466 196.760909 
L 309.956505 196.760909 
L 311.14835 198.74792 
L 312.340194 198.74792 
L 313.532039 202.190578 
L 317.107573 202.190578 
L 318.299417 207.314368 
L 319.491262 207.314368 
L 320.683107 213.670733 
L 321.874951 225.418767 
L 323.066796 236.02573 
L 324.258641 236.02573 
L 325.450485 225.418767 
L 327.834175 225.418767 
L 329.026019 236.02573 
L 332.601553 236.02573 
L 333.793398 240.764619 
L 337.368932 240.764619 
L 339.752621 210.420294 
L 342.136311 210.420294 
L 343.328155 208.850075 
L 344.52 205.072299 
L 345.711845 193.569861 
L 346.903689 190.518204 
L 348.095534 184.787795 
L 349.287379 184.787795 
L 350.479223 182.621053 
L 351.671068 182.621053 
L 352.862913 181.562369 
L 354.054757 181.038982 
L 355.246602 176.987306 
L 356.438447 181.562369 
L 358.822136 181.562369 
L 360.013981 176.987306 
L 361.205825 169.970865 
L 362.39767 165.239272 
L 363.589515 164.002571 
L 367.165049 164.002571 
L 368.356893 165.656419 
L 369.548738 165.656419 
L 370.740583 166.498258 
L 371.932427 166.923012 
L 374.316117 166.923012 
L 375.507961 168.21299 
L 379.083495 168.21299 
L 380.27534 172.232287 
L 385.042718 172.232287 
L 386.234563 167.780346 
L 387.426408 164.412377 
L 388.618252 166.498258 
L 391.001942 166.498258 
L 392.193786 158.12753 
L 393.385631 166.498258 
L 394.577476 164.824602 
L 395.76932 174.569355 
L 396.961165 176.010062 
L 398.15301 176.010062 
L 399.344854 164.824602 
L 400.536699 176.010062 
L 401.728544 183.696026 
L 402.920388 193.569861 
L 404.112233 197.416988 
L 405.304078 199.423015 
L 407.687767 199.423015 
L 408.879612 206.55899 
L 410.071456 217.079791 
L 411.263301 223.477758 
L 412.455146 224.441522 
L 413.64699 226.409873 
L 414.838835 226.409873 
L 416.03068 231.587933 
L 417.222524 239.549426 
L 419.606214 262.102193 
L 420.798058 269.095207 
L 421.989903 265.511251 
L 423.181748 265.511251 
L 424.373592 274.841333 
L 425.565437 274.841333 
L 426.757282 278.952627 
L 427.949126 278.952627 
L 429.140971 283.321038 
L 430.332816 285.612123 
L 432.716505 295.610841 
L 433.90835 298.351263 
L 435.100194 298.351263 
L 436.292039 304.177289 
L 437.483883 304.177289 
L 438.675728 310.533653 
L 439.867573 317.526667 
L 441.059417 338.864241 
L 447.018641 338.864241 
L 448.210485 344.042301 
L 449.40233 355.714675 
L 450.594175 355.714675 
L 451.786019 321.304443 
L 452.977864 313.942711 
L 454.169709 321.304443 
L 455.361553 313.942711 
L 458.937087 313.942711 
L 460.128932 321.304443 
L 461.320777 321.304443 
L 462.512621 313.942711 
L 463.704466 301.203571 
L 466.088155 301.203571 
L 467.28 317.526667 
L 468.471845 317.526667 
L 469.663689 329.534159 
L 470.855534 317.526667 
L 473.239223 317.526667 
L 474.431068 321.304443 
L 475.622913 338.864241 
L 476.814757 317.526667 
L 478.006602 338.864241 
L 479.198447 355.714675 
L 482.773981 355.714675 
L 483.965825 338.864241 
L 485.15767 355.714675 
L 486.349515 338.864241 
L 487.541359 355.714675 
L 488.733204 355.714675 
L 489.925049 338.864241 
L 497.076117 338.864241 
L 498.267961 344.042301 
L 499.459806 344.042301 
L 500.65165 362.374171 
L 501.843495 362.374171 
L 503.03534 377.965619 
L 504.227184 387.295702 
L 505.419029 387.295702 
L 506.610874 398.066491 
L 511.378252 398.066491 
L 512.570097 410.805632 
L 513.761942 410.805632 
L 514.953786 426.397079 
L 520.91301 426.397079 
L 522.104854 446.497952 
L 523.296699 426.397079 
L 524.488544 446.497952 
L 528.064078 446.497952 
L 529.255922 426.397079 
L 538.79068 426.397079 
L 539.982524 446.497952 
L 542.366214 446.497952 
L 543.558058 426.397079 
L 544.749903 426.397079 
L 545.941748 410.805632 
L 547.133592 426.397079 
L 548.325437 426.397079 
L 549.517282 410.805632 
L 551.900971 410.805632 
L 553.092816 426.397079 
L 555.476505 426.397079 
L 556.66835 410.805632 
L 561.435728 410.805632 
L 562.627573 426.397079 
L 563.819417 410.805632 
L 565.011262 410.805632 
L 566.203107 426.397079 
L 567.394951 426.397079 
L 568.586796 410.805632 
L 569.778641 398.066491 
L 573.354175 398.066491 
L 574.546019 387.295702 
L 575.737864 387.295702 
L 576.929709 377.965619 
L 578.121553 369.735903 
L 579.313398 362.374171 
L 585.272621 362.374171 
L 586.464466 355.714675 
L 587.656311 338.864241 
L 588.848155 338.864241 
L 590.04 329.534159 
L 591.231845 329.534159 
L 592.423689 338.864241 
L 593.615534 329.534159 
L 594.807379 329.534159 
L 595.999223 338.864241 
L 597.191068 338.864241 
L 598.382913 329.534159 
L 599.574757 329.534159 
L 600.766602 334.043583 
L 601.958447 344.042301 
L 603.150291 344.042301 
L 604.342136 355.714675 
L 605.533981 344.042301 
L 607.91767 344.042301 
L 609.109515 321.304443 
L 610.301359 344.042301 
L 612.685049 344.042301 
L 613.876893 338.864241 
L 615.068738 344.042301 
L 616.260583 344.042301 
L 617.452427 349.635031 
L 618.644272 349.635031 
L 619.836117 355.714675 
L 621.027961 349.635031 
L 622.219806 355.714675 
L 623.41165 387.295702 
L 624.603495 387.295702 
L 625.79534 426.397079 
L 632.946408 426.397079 
L 634.138252 387.295702 
L 635.330097 387.295702 
L 636.521942 355.714675 
L 637.713786 355.714675 
L 638.905631 349.635031 
L 646.056699 349.635031 
L 647.248544 355.714675 
L 650.824078 355.714675 
L 652.015922 349.635031 
L 659.16699 349.635031 
L 660.358835 355.714675 
L 661.55068 355.714675 
L 663.934369 344.042301 
L 666.318058 344.042301 
L 667.509903 349.635031 
L 668.701748 349.635031 
L 669.893592 344.042301 
L 671.085437 329.534159 
L 672.277282 334.043583 
L 675.852816 334.043583 
L 677.04466 325.298206 
L 678.236505 334.043583 
L 680.620194 377.965619 
L 685.387573 377.965619 
L 686.579417 398.066491 
L 687.771262 398.066491 
L 688.963107 446.497952 
L 694.92233 446.497952 
L 696.114175 410.805632 
L 697.306019 398.066491 
L 699.689709 398.066491 
L 700.881553 349.635031 
L 702.073398 349.635031 
L 703.265243 334.043583 
L 704.457087 334.043583 
L 705.648932 329.534159 
L 708.032621 329.534159 
L 709.224466 313.942711 
L 710.416311 278.952627 
L 711.608155 258.851754 
L 712.8 247.17938 
L 712.8 247.17938 
" style="fill:none;stroke:#1f77b4;stroke-linecap:square;stroke-width:1.5;"/>
   </g>
   <g id="line2d_83">
    <path clip-path="url(#p68e2955192)" d="M 307.572151 613 
L 307.572816 523.26 
L 308.76466 523.26 
L 309.956505 474.82854 
L 356.438447 474.82854 
L 357.630291 523.26 
L 364.781359 523.26 
L 364.782024 613 
M 367.164384 613 
L 367.165049 523.26 
L 367.165714 613 
M 369.548073 613 
L 369.548738 523.26 
L 370.740583 474.82854 
L 374.316117 474.82854 
L 375.507961 523.26 
L 376.699806 474.82854 
L 377.89165 474.82854 
L 379.083495 523.26 
L 380.27534 474.82854 
L 381.467184 523.26 
L 383.850874 523.26 
L 385.042718 474.82854 
L 386.234563 523.26 
L 386.235228 613 
M 392.193121 613 
L 392.193786 523.26 
L 393.385631 523.26 
L 393.386296 613 
M 395.768655 613 
L 395.76932 523.26 
L 398.15301 523.26 
L 399.344854 474.82854 
L 400.536699 523.26 
L 401.728544 523.26 
L 402.920388 474.82854 
L 408.879612 474.82854 
L 410.071456 523.26 
L 411.263301 523.26 
L 411.263966 613 
L 411.263966 613 
" style="fill:none;stroke:#ff7f0e;stroke-linecap:square;stroke-width:1.5;"/>
   </g>
   <g id="patch_3">
    <path d="M 99 544.68 
L 99 73.44 
" style="fill:none;stroke:#000000;stroke-linecap:square;stroke-linejoin:miter;stroke-width:0.8;"/>
   </g>
   <g id="patch_4">
    <path d="M 712.8 544.68 
L 712.8 73.44 
" style="fill:none;stroke:#000000;stroke-linecap:square;stroke-linejoin:miter;stroke-width:0.8;"/>
   </g>
   <g id="patch_5">
    <path d="M 99 544.68 
L 712.8 544.68 
" style="fill:none;stroke:#000000;stroke-linecap:square;stroke-linejoin:miter;stroke-width:0.8;"/>
   </g>
   <g id="patch_6">
    <path d="M 99 73.44 
L 712.8 73.44 
" style="fill:none;stroke:#000000;stroke-linecap:square;stroke-linejoin:miter;stroke-width:0.8;"/>
   </g>
   <g id="legend_1">
    <g id="patch_7">
     <path d="M 616.653125 110.79625 
L 705.8 110.79625 
Q 707.8 110.79625 707.8 108.79625 
L 707.8 80.44 
Q 707.8 78.44 705.8 78.44 
L 616.653125 78.44 
Q 614.653125 78.44 614.653125 80.44 
L 614.653125 108.79625 
Q 614.653125 110.79625 616.653125 110.79625 
z
" style="fill:#ffffff;opacity:0.8;stroke:#cccccc;stroke-linejoin:miter;"/>
    </g>
    <g id="line2d_84">
     <path d="M 618.653125 86.538437 
L 638.653125 86.538437 
" style="fill:none;stroke:#1f77b4;stroke-linecap:square;stroke-width:1.5;"/>
    </g>
    <g id="line2d_85"/>
    <g id="text_11">
     <!-- Avg Cases -->
     <g transform="translate(646.653125 90.038437)scale(0.1 -0.1)">
      <defs>
       <path d="M 191 3500 
L 800 3500 
L 1894 563 
L 2988 3500 
L 3597 3500 
L 2284 0 
L 1503 0 
L 191 3500 
z
" id="DejaVuSans-76" transform="scale(0.015625)"/>
       <path d="M 2906 1791 
Q 2906 2416 2648 2759 
Q 2391 3103 1925 3103 
Q 1463 3103 1205 2759 
Q 947 2416 947 1791 
Q 947 1169 1205 825 
Q 1463 481 1925 481 
Q 2391 481 2648 825 
Q 2906 1169 2906 1791 
z
M 3481 434 
Q 3481 -459 3084 -895 
Q 2688 -1331 1869 -1331 
Q 1566 -1331 1297 -1286 
Q 1028 -1241 775 -1147 
L 775 -588 
Q 1028 -725 1275 -790 
Q 1522 -856 1778 -856 
Q 2344 -856 2625 -561 
Q 2906 -266 2906 331 
L 2906 616 
Q 2728 306 2450 153 
Q 2172 0 1784 0 
Q 1141 0 747 490 
Q 353 981 353 1791 
Q 353 2603 747 3093 
Q 1141 3584 1784 3584 
Q 2172 3584 2450 3431 
Q 2728 3278 2906 2969 
L 2906 3500 
L 3481 3500 
L 3481 434 
z
" id="DejaVuSans-67" transform="scale(0.015625)"/>
       <path id="DejaVuSans-20" transform="scale(0.015625)"/>
       <path d="M 4122 4306 
L 4122 3641 
Q 3803 3938 3442 4084 
Q 3081 4231 2675 4231 
Q 1875 4231 1450 3742 
Q 1025 3253 1025 2328 
Q 1025 1406 1450 917 
Q 1875 428 2675 428 
Q 3081 428 3442 575 
Q 3803 722 4122 1019 
L 4122 359 
Q 3791 134 3420 21 
Q 3050 -91 2638 -91 
Q 1578 -91 968 557 
Q 359 1206 359 2328 
Q 359 3453 968 4101 
Q 1578 4750 2638 4750 
Q 3056 4750 3426 4639 
Q 3797 4528 4122 4306 
z
" id="DejaVuSans-43" transform="scale(0.015625)"/>
       <path d="M 2834 3397 
L 2834 2853 
Q 2591 2978 2328 3040 
Q 2066 3103 1784 3103 
Q 1356 3103 1142 2972 
Q 928 2841 928 2578 
Q 928 2378 1081 2264 
Q 1234 2150 1697 2047 
L 1894 2003 
Q 2506 1872 2764 1633 
Q 3022 1394 3022 966 
Q 3022 478 2636 193 
Q 2250 -91 1575 -91 
Q 1294 -91 989 -36 
Q 684 19 347 128 
L 347 722 
Q 666 556 975 473 
Q 1284 391 1588 391 
Q 1994 391 2212 530 
Q 2431 669 2431 922 
Q 2431 1156 2273 1281 
Q 2116 1406 1581 1522 
L 1381 1569 
Q 847 1681 609 1914 
Q 372 2147 372 2553 
Q 372 3047 722 3315 
Q 1072 3584 1716 3584 
Q 2034 3584 2315 3537 
Q 2597 3491 2834 3397 
z
" id="DejaVuSans-73" transform="scale(0.015625)"/>
      </defs>
      <use xlink:href="#DejaVuSans-41"/>
      <use x="62.533203" xlink:href="#DejaVuSans-76"/>
      <use x="121.712891" xlink:href="#DejaVuSans-67"/>
      <use x="185.189453" xlink:href="#DejaVuSans-20"/>
      <use x="216.976562" xlink:href="#DejaVuSans-43"/>
      <use x="286.800781" xlink:href="#DejaVuSans-61"/>
      <use x="348.080078" xlink:href="#DejaVuSans-73"/>
      <use x="400.179688" xlink:href="#DejaVuSans-65"/>
      <use x="461.703125" xlink:href="#DejaVuSans-73"/>
     </g>
    </g>
    <g id="line2d_86">
     <path d="M 618.653125 101.216562 
L 638.653125 101.216562 
" style="fill:none;stroke:#ff7f0e;stroke-linecap:square;stroke-width:1.5;"/>
    </g>
    <g id="line2d_87"/>
    <g id="text_12">
     <!-- Avg Deaths -->
     <g transform="translate(646.653125 104.716562)scale(0.1 -0.1)">
      <defs>
       <path d="M 3513 2113 
L 3513 0 
L 2938 0 
L 2938 2094 
Q 2938 2591 2744 2837 
Q 2550 3084 2163 3084 
Q 1697 3084 1428 2787 
Q 1159 2491 1159 1978 
L 1159 0 
L 581 0 
L 581 4863 
L 1159 4863 
L 1159 2956 
Q 1366 3272 1645 3428 
Q 1925 3584 2291 3584 
Q 2894 3584 3203 3211 
Q 3513 2838 3513 2113 
z
" id="DejaVuSans-68" transform="scale(0.015625)"/>
      </defs>
      <use xlink:href="#DejaVuSans-41"/>
      <use x="62.533203" xlink:href="#DejaVuSans-76"/>
      <use x="121.712891" xlink:href="#DejaVuSans-67"/>
      <use x="185.189453" xlink:href="#DejaVuSans-20"/>
      <use x="216.976562" xlink:href="#DejaVuSans-44"/>
      <use x="293.978516" xlink:href="#DejaVuSans-65"/>
      <use x="355.501953" xlink:href="#DejaVuSans-61"/>
      <use x="416.78125" xlink:href="#DejaVuSans-74"/>
      <use x="455.990234" xlink:href="#DejaVuSans-68"/>
      <use x="519.369141" xlink:href="#DejaVuSans-73"/>
     </g>
    </g>
   </g>
  </g>
 </g>
 <defs>
  <clipPath id="p68e2955192">
   <rect height="471.24" width="613.8" x="99" y="73.44"/>
  </clipPath>
 </defs>
</svg>
