<?xml version="1.0" encoding="utf-8" standalone="no"?>
<!DOCTYPE svg PUBLIC "-//W3C//DTD SVG 1.1//EN"
  "http://www.w3.org/Graphics/SVG/1.1/DTD/svg11.dtd">
<svg height="612pt" version="1.1" viewBox="0 0 792 612" width="792pt" xmlns="http://www.w3.org/2000/svg" xmlns:xlink="http://www.w3.org/1999/xlink">
 <metadata>
  <rdf:RDF xmlns:cc="http://creativecommons.org/ns#" xmlns:dc="http://purl.org/dc/elements/1.1/" xmlns:rdf="http://www.w3.org/1999/02/22-rdf-syntax-ns#">
   <cc:Work>
    <dc:type rdf:resource="http://purl.org/dc/dcmitype/StillImage"/>
    <dc:format>image/svg+xml</dc:format>
    <dc:creator>
     <cc:Agent>
      <dc:title>Matplotlib v3.4.2, https://matplotlib.org/</dc:title>
     </cc:Agent>
    </dc:creator>
   </cc:Work>
  </rdf:RDF>
 </metadata>
 <defs>
  <style type="text/css">*{stroke-linecap:butt;stroke-linejoin:round;}</style>
 </defs>
 <g id="figure_1">
  <g id="patch_1">
   <path d="M 0 612 
L 792 612 
L 792 0 
L 0 0 
z
" style="fill:#ffffff;"/>
  </g>
  <g id="axes_1">
   <g id="patch_2">
    <path d="M 99 544.68 
L 712.8 544.68 
L 712.8 73.44 
L 99 73.44 
z
" style="fill:#ffffff;"/>
   </g>
   <g id="PolyCollection_1">
    <path clip-path="url(#p68e2955192)" d="M 99 161360.657098 
L 99 161360.657098 
L 100.153759 161360.657098 
L 101.307519 161360.657098 
L 102.461278 161360.657098 
L 103.615038 161360.657098 
L 104.768797 161360.657098 
L 105.922556 161360.657098 
L 107.076316 161360.657098 
L 108.230075 161360.657098 
L 109.383835 161360.657098 
L 110.537594 161360.657098 
L 111.691353 161360.657098 
L 112.845113 161360.657098 
L 113.998872 314.644947 
L 115.152632 314.644947 
L 116.306391 314.644947 
L 117.46015 283.321038 
L 118.61391 283.321038 
L 119.767669 283.321038 
L 120.921429 283.321038 
L 122.075188 196.891633 
L 123.228947 187.708908 
L 124.382707 187.708908 
L 125.536466 187.708908 
L 126.690226 172.232287 
L 127.843985 142.206285 
L 128.997744 142.206285 
L 130.151504 137.857817 
L 131.305263 137.857817 
L 132.459023 137.857817 
L 133.612782 137.857817 
L 134.766541 137.857817 
L 135.920301 137.857817 
L 137.07406 137.857817 
L 138.22782 137.857817 
L 139.381579 137.857817 
L 140.535338 137.857817 
L 141.689098 137.857817 
L 142.842857 160.031512 
L 143.996617 182.834729 
L 145.150376 182.834729 
L 146.304135 196.63043 
L 147.457895 196.63043 
L 148.611654 182.834729 
L 149.765414 182.834729 
L 150.919173 182.834729 
L 152.072932 182.834729 
L 153.226692 182.834729 
L 154.380451 182.834729 
L 155.534211 182.834729 
L 156.68797 182.834729 
L 157.841729 182.834729 
L 158.995489 197.416988 
L 160.149248 294.544074 
L 161.303008 426.397079 
L 162.456767 426.397079 
L 163.610526 426.397079 
L 164.764286 437.752574 
L 165.918045 437.752574 
L 167.071805 437.752574 
L 168.225564 437.752574 
L 169.379323 426.397079 
L 170.533083 437.752574 
L 171.686842 437.752574 
L 172.840602 437.752574 
L 173.994361 437.752574 
L 175.14812 426.397079 
L 176.30188 426.397079 
L 177.455639 437.752574 
L 178.609398 437.752574 
L 179.763158 437.752574 
L 180.916917 437.752574 
L 182.070677 389.321114 
L 183.224436 389.321114 
L 184.378195 389.321114 
L 185.531955 395.775406 
L 186.685714 395.775406 
L 187.839474 383.412935 
L 188.993233 383.412935 
L 190.146992 383.412935 
L 191.300752 405.428223 
L 192.454511 405.428223 
L 193.608271 405.428223 
L 194.76203 405.428223 
L 195.915789 405.428223 
L 197.069549 405.428223 
L 198.223308 426.397079 
L 199.377068 426.397079 
L 200.530827 405.428223 
L 201.684586 405.428223 
L 202.838346 405.428223 
L 203.992105 426.397079 
L 205.145865 426.397079 
L 206.299624 437.752574 
L 207.453383 426.397079 
L 208.607143 405.428223 
L 209.760902 371.306123 
L 210.914662 345.125607 
L 212.068421 345.125607 
L 213.22218 345.125607 
L 214.37594 345.125607 
L 215.529699 341.924811 
L 216.683459 301.788276 
L 217.837218 301.788276 
L 218.990977 301.788276 
L 220.144737 301.788276 
L 221.298496 301.788276 
L 222.452256 301.788276 
L 223.606015 293.49335 
L 224.759774 293.49335 
L 225.913534 293.49335 
L 227.067293 306.650886 
L 228.221053 306.650886 
L 229.374812 297.242164 
L 230.528571 297.242164 
L 231.682331 297.242164 
L 232.83609 306.650886 
L 233.98985 306.650886 
L 235.143609 306.650886 
L 236.297368 306.650886 
L 237.451128 306.650886 
L 238.604887 306.650886 
L 239.758647 328.666175 
L 240.912406 356.996763 
L 242.066165 389.321114 
L 243.219925 389.321114 
L 244.373684 389.321114 
L 245.527444 389.321114 
L 246.681203 377.965619 
L 247.834962 383.412935 
L 248.988722 383.412935 
L 250.142481 366.697519 
L 251.296241 366.697519 
L 252.45 366.697519 
L 253.603759 337.873135 
L 254.757519 337.873135 
L 255.911278 337.873135 
L 257.065038 337.873135 
L 258.218797 337.873135 
L 259.372556 337.873135 
L 260.526316 337.873135 
L 261.680075 323.673206 
L 262.833835 326.125101 
L 263.987594 321.304443 
L 265.141353 321.304443 
L 266.295113 298.351263 
L 267.448872 298.351263 
L 268.602632 298.351263 
L 269.756391 298.351263 
L 270.91015 290.432781 
L 272.06391 287.023723 
L 273.217669 282.425233 
L 274.371429 257.905395 
L 275.525188 257.905395 
L 276.678947 257.905395 
L 277.832707 244.284088 
L 278.986466 244.284088 
L 280.140226 244.284088 
L 281.293985 204.925355 
L 282.447744 187.708908 
L 283.601504 187.708908 
L 284.755263 187.708908 
L 285.909023 158.579776 
L 287.062782 155.47385 
L 288.216541 136.521582 
L 289.370301 135.372978 
L 290.52406 135.372978 
L 291.67782 135.372978 
L 292.831579 135.372978 
L 293.985338 135.372978 
L 295.139098 135.372978 
L 296.292857 135.372978 
L 297.446617 135.372978 
L 298.600376 135.372978 
L 299.754135 135.372978 
L 300.907895 135.372978 
L 302.061654 145.891066 
L 303.215414 145.891066 
L 304.369173 150.450958 
L 305.522932 158.731178 
L 306.676692 158.731178 
L 307.830451 158.731178 
L 308.984211 158.731178 
L 310.13797 167.436149 
L 311.291729 167.436149 
L 312.445489 167.436149 
L 313.599248 167.953083 
L 314.753008 167.953083 
L 315.906767 167.953083 
L 317.060526 167.953083 
L 318.214286 165.656419 
L 319.368045 177.679602 
L 320.521805 177.679602 
L 321.675564 190.042074 
L 322.829323 190.042074 
L 323.983083 190.042074 
L 325.136842 190.042074 
L 326.290602 206.709414 
L 327.444361 182.941812 
L 328.59812 183.587781 
L 329.75188 178.278507 
L 330.905639 176.790761 
L 332.059398 169.262399 
L 333.213158 169.262399 
L 334.366917 140.434292 
L 335.520677 140.434292 
L 336.674436 140.434292 
L 337.828195 140.434292 
L 338.981955 140.434292 
L 340.135714 140.434292 
L 341.289474 140.434292 
L 342.443233 138.706129 
L 343.596992 156.788092 
L 344.750752 156.788092 
L 345.904511 156.788092 
L 347.058271 148.656718 
L 348.21203 148.656718 
L 349.365789 148.656718 
L 350.519549 148.656718 
L 351.673308 137.857817 
L 352.827068 137.857817 
L 353.980827 137.857817 
L 355.134586 137.857817 
L 356.288346 137.857817 
L 357.442105 137.857817 
L 358.595865 136.356335 
L 359.749624 136.356335 
L 360.903383 136.356335 
L 362.057143 136.356335 
L 363.210902 136.356335 
L 364.364662 136.356335 
L 365.518421 136.356335 
L 366.67218 146.143768 
L 367.82594 146.588206 
L 368.979699 146.017303 
L 370.133459 144.147294 
L 371.287218 144.147294 
L 372.440977 144.147294 
L 373.594737 144.147294 
L 374.748496 144.147294 
L 375.902256 119.176576 
L 377.056015 119.176576 
L 378.209774 119.176576 
L 379.363534 119.176576 
L 380.517293 119.176576 
L 381.671053 119.176576 
L 382.824812 94.86 
L 383.978571 94.86 
L 385.132331 94.86 
L 386.28609 94.86 
L 387.43985 94.86 
L 388.593609 94.86 
L 389.747368 94.86 
L 390.901128 120.085983 
L 392.054887 147.228062 
L 393.208647 148.003706 
L 394.362406 148.003706 
L 395.516165 148.003706 
L 396.669925 148.003706 
L 397.823684 148.003706 
L 398.977444 161.277865 
L 400.131203 161.277865 
L 401.284962 183.26405 
L 402.438722 197.416988 
L 403.592481 197.416988 
L 404.746241 197.416988 
L 405.9 198.61368 
L 407.053759 204.486368 
L 408.207519 215.014463 
L 409.361278 223.095944 
L 410.515038 225.615866 
L 411.668797 225.615866 
L 412.822556 225.615866 
L 413.976316 230.309754 
L 415.130075 234.889578 
L 416.283835 237.648035 
L 417.437594 244.542395 
L 418.591353 244.542395 
L 419.745113 244.542395 
L 420.898872 244.542395 
L 422.052632 251.046793 
L 423.206391 251.046793 
L 424.36015 251.046793 
L 425.51391 251.046793 
L 426.667669 237.648035 
L 427.821429 243.514849 
L 428.975188 243.514849 
L 430.128947 243.514849 
L 431.282707 273.653682 
L 432.436466 273.653682 
L 433.590226 285.612123 
L 434.743985 289.935471 
L 435.897744 289.935471 
L 437.051504 289.935471 
L 438.205263 289.935471 
L 439.359023 279.377381 
L 440.512782 279.377381 
L 441.666541 266.213486 
L 442.820301 279.377381 
L 443.97406 279.377381 
L 445.12782 279.377381 
L 446.281579 279.377381 
L 447.435338 279.377381 
L 448.589098 279.377381 
L 449.742857 279.377381 
L 450.896617 279.377381 
L 452.050376 276.866746 
L 453.204135 276.866746 
L 454.357895 276.866746 
L 455.511654 279.377381 
L 456.665414 266.213486 
L 457.819173 279.377381 
L 458.972932 279.377381 
L 460.126692 271.337276 
L 461.280451 271.337276 
L 462.434211 271.337276 
L 463.58797 271.337276 
L 464.741729 271.337276 
L 465.895489 271.337276 
L 467.049248 271.337276 
L 468.203008 276.049522 
L 469.356767 276.049522 
L 470.510526 276.049522 
L 471.664286 264.127605 
L 472.818045 276.049522 
L 473.971805 276.049522 
L 475.125564 277.27897 
L 476.279323 293.49335 
L 477.433083 293.49335 
L 478.586842 293.49335 
L 479.740602 287.023723 
L 480.894361 287.023723 
L 482.04812 287.023723 
L 483.20188 287.023723 
L 484.355639 287.023723 
L 485.509398 287.023723 
L 486.663158 287.023723 
L 487.816917 296.694146 
L 488.970677 296.694146 
L 490.124436 296.694146 
L 491.278195 296.694146 
L 492.431955 313.942711 
L 493.585714 313.942711 
L 494.739474 313.942711 
L 495.893233 316.070952 
L 497.046992 320.532371 
L 498.200752 348.480099 
L 499.354511 348.480099 
L 500.508271 348.480099 
L 501.66203 348.480099 
L 502.815789 348.480099 
L 503.969549 348.480099 
L 505.123308 345.125607 
L 506.277068 345.125607 
L 507.430827 345.125607 
L 508.584586 366.697519 
L 509.738346 366.697519 
L 510.892105 366.697519 
L 512.045865 383.412935 
L 513.199624 383.412935 
L 514.353383 377.965619 
L 515.507143 377.965619 
L 516.660902 366.697519 
L 517.814662 366.697519 
L 518.968421 366.697519 
L 520.12218 362.374171 
L 521.27594 366.697519 
L 522.429699 366.697519 
L 523.583459 366.697519 
L 524.737218 366.697519 
L 525.890977 366.697519 
L 527.044737 366.697519 
L 528.198496 366.697519 
L 529.352256 366.697519 
L 530.506015 366.697519 
L 531.659774 362.374171 
L 532.813534 366.697519 
L 533.967293 366.697519 
L 535.121053 366.697519 
L 536.274812 377.965619 
L 537.428571 377.965619 
L 538.582331 377.965619 
L 539.73609 377.965619 
L 540.88985 377.965619 
L 542.043609 377.965619 
L 543.197368 377.965619 
L 544.351128 366.697519 
L 545.504887 366.697519 
L 546.658647 366.697519 
L 547.812406 377.965619 
L 548.966165 377.965619 
L 550.119925 377.965619 
L 551.273684 377.965619 
L 552.427444 366.697519 
L 553.581203 362.374171 
L 554.734962 362.374171 
L 555.888722 362.374171 
L 557.042481 362.374171 
L 558.196241 353.218987 
L 559.35 353.218987 
L 560.503759 353.218987 
L 561.657519 353.218987 
L 562.811278 322.874662 
L 563.965038 304.787527 
L 565.118797 304.787527 
L 566.272556 304.787527 
L 567.426316 304.787527 
L 568.580075 304.787527 
L 569.733835 297.242164 
L 570.887594 297.242164 
L 572.041353 297.242164 
L 573.195113 297.242164 
L 574.348872 297.242164 
L 575.502632 297.242164 
L 576.656391 297.242164 
L 577.81015 285.147857 
L 578.96391 286.550014 
L 580.117669 286.550014 
L 581.271429 286.550014 
L 582.425188 286.550014 
L 583.578947 286.550014 
L 584.732707 286.550014 
L 585.886466 301.203571 
L 587.040226 283.321038 
L 588.193985 283.321038 
L 589.347744 278.110787 
L 590.501504 278.110787 
L 591.655263 278.110787 
L 592.809023 278.110787 
L 593.962782 286.550014 
L 595.116541 286.550014 
L 596.270301 286.550014 
L 597.42406 286.550014 
L 598.57782 286.550014 
L 599.731579 286.550014 
L 600.885338 286.550014 
L 602.039098 286.550014 
L 603.192857 302.972572 
L 604.346617 302.972572 
L 605.500376 307.283215 
L 606.654135 311.202288 
L 607.807895 311.202288 
L 608.961654 326.125101 
L 610.115414 311.202288 
L 611.269173 295.075422 
L 612.422932 295.075422 
L 613.576692 295.075422 
L 614.730451 295.075422 
L 615.884211 295.075422 
L 617.03797 295.075422 
L 618.191729 295.075422 
L 619.345489 295.075422 
L 620.499248 295.075422 
L 621.653008 295.075422 
L 622.806767 295.075422 
L 623.960526 295.075422 
L 625.114286 295.075422 
L 626.268045 311.202288 
L 627.421805 316.070952 
L 628.575564 316.070952 
L 629.729323 323.673206 
L 630.883083 323.673206 
L 632.036842 323.673206 
L 633.190602 316.070952 
L 634.344361 286.079495 
L 635.49812 286.079495 
L 636.65188 286.079495 
L 637.805639 283.321038 
L 638.959398 283.321038 
L 640.113158 283.321038 
L 641.266917 278.110787 
L 642.420677 278.110787 
L 643.574436 278.110787 
L 644.728195 278.110787 
L 645.881955 278.110787 
L 647.035714 278.110787 
L 648.189474 278.110787 
L 649.343233 286.550014 
L 650.496992 286.550014 
L 651.650752 283.773285 
L 652.804511 282.425233 
L 653.958271 282.425233 
L 655.11203 282.425233 
L 656.265789 282.425233 
L 657.419549 268.363558 
L 658.573308 268.363558 
L 659.727068 268.363558 
L 660.880827 268.363558 
L 662.034586 268.363558 
L 663.188346 268.363558 
L 664.342105 268.363558 
L 665.495865 268.363558 
L 666.649624 287.023723 
L 667.803383 288.46443 
L 668.957143 291.946309 
L 670.110902 291.946309 
L 671.264662 291.946309 
L 672.418421 291.946309 
L 673.57218 304.177289 
L 674.72594 329.534159 
L 675.879699 329.534159 
L 677.033459 329.534159 
L 678.187218 308.565303 
L 679.340977 308.565303 
L 680.494737 308.565303 
L 681.648496 293.49335 
L 682.802256 264.470956 
L 683.956015 244.026733 
L 685.109774 239.549426 
L 686.263534 239.549426 
L 687.417293 239.549426 
L 688.571053 239.549426 
L 689.724812 237.882898 
L 690.878571 217.430026 
L 692.032331 206.109652 
L 693.18609 204.34065 
L 694.33985 204.34065 
L 695.493609 204.34065 
L 696.647368 204.34065 
L 697.801128 200.379243 
L 698.954887 189.099438 
L 700.108647 189.099438 
L 701.262406 171.95702 
L 702.416165 157.977429 
L 703.569925 157.977429 
L 704.723684 157.977429 
L 705.877444 150.115196 
L 707.031203 140.143281 
L 708.184962 130.60297 
L 709.338722 130.60297 
L 710.492481 126.710618 
L 711.646241 126.710618 
L 712.8 126.710618 
L 712.8 210.103415 
L 712.8 210.103415 
L 711.646241 210.103415 
L 710.492481 210.103415 
L 709.338722 210.103415 
L 708.184962 210.103415 
L 707.031203 210.103415 
L 705.877444 211.540829 
L 704.723684 211.540829 
L 703.569925 211.540829 
L 702.416165 229.888838 
L 701.262406 269.463925 
L 700.108647 269.463925 
L 698.954887 269.463925 
L 697.801128 269.463925 
L 696.647368 269.463925 
L 695.493609 269.463925 
L 694.33985 269.463925 
L 693.18609 308.565303 
L 692.032331 346.225973 
L 690.878571 346.225973 
L 689.724812 346.225973 
L 688.571053 369.735903 
L 687.417293 369.735903 
L 686.263534 369.735903 
L 685.109774 482.190272 
L 683.956015 482.190272 
L 682.802256 161360.657098 
L 681.648496 161360.657098 
L 680.494737 161360.657098 
L 679.340977 161360.657098 
L 678.187218 161360.657098 
L 677.033459 161360.657098 
L 675.879699 161360.657098 
L 674.72594 161360.657098 
L 673.57218 161360.657098 
L 672.418421 161360.657098 
L 671.264662 161360.657098 
L 670.110902 161360.657098 
L 668.957143 161360.657098 
L 667.803383 161360.657098 
L 666.649624 482.190272 
L 665.495865 482.190272 
L 664.342105 161360.657098 
L 663.188346 161360.657098 
L 662.034586 161360.657098 
L 660.880827 161360.657098 
L 659.727068 161360.657098 
L 658.573308 161360.657098 
L 657.419549 161360.657098 
L 656.265789 161360.657098 
L 655.11203 161360.657098 
L 653.958271 161360.657098 
L 652.804511 161360.657098 
L 651.650752 161360.657098 
L 650.496992 161360.657098 
L 649.343233 161360.657098 
L 648.189474 385.327351 
L 647.035714 385.327351 
L 645.881955 385.327351 
L 644.728195 482.190272 
L 643.574436 482.190272 
L 642.420677 482.190272 
L 641.266917 482.190272 
L 640.113158 482.190272 
L 638.959398 482.190272 
L 637.805639 482.190272 
L 636.65188 482.190272 
L 635.49812 482.190272 
L 634.344361 482.190272 
L 633.190602 482.190272 
L 632.036842 482.190272 
L 630.883083 482.190272 
L 629.729323 482.190272 
L 628.575564 369.735903 
L 627.421805 369.735903 
L 626.268045 369.735903 
L 625.114286 369.735903 
L 623.960526 161360.657098 
L 622.806767 161360.657098 
L 621.653008 161360.657098 
L 620.499248 161360.657098 
L 619.345489 161360.657098 
L 618.191729 161360.657098 
L 617.03797 161360.657098 
L 615.884211 161360.657098 
L 614.730451 433.758811 
L 613.576692 429.981036 
L 612.422932 429.981036 
L 611.269173 429.981036 
L 610.115414 429.981036 
L 608.961654 429.981036 
L 607.807895 426.397079 
L 606.654135 426.397079 
L 605.500376 426.397079 
L 604.346617 426.397079 
L 603.192857 426.397079 
L 602.039098 426.397079 
L 600.885338 426.397079 
L 599.731579 426.397079 
L 598.57782 426.397079 
L 597.42406 354.455689 
L 596.270301 400.435255 
L 595.116541 400.435255 
L 593.962782 400.435255 
L 592.809023 400.435255 
L 591.655263 400.435255 
L 590.501504 400.435255 
L 589.347744 400.435255 
L 588.193985 400.435255 
L 587.040226 379.734621 
L 585.886466 379.734621 
L 584.732707 363.785772 
L 583.578947 363.785772 
L 582.425188 363.785772 
L 581.271429 377.965619 
L 580.117669 377.965619 
L 578.96391 363.785772 
L 577.81015 363.785772 
L 576.656391 363.785772 
L 575.502632 363.785772 
L 574.348872 363.785772 
L 573.195113 363.785772 
L 572.041353 377.965619 
L 570.887594 377.965619 
L 569.733835 377.965619 
L 568.580075 377.965619 
L 567.426316 377.965619 
L 566.272556 379.734621 
L 565.118797 379.734621 
L 563.965038 379.734621 
L 562.811278 398.066491 
L 561.657519 398.066491 
L 560.503759 400.435255 
L 559.35 400.435255 
L 558.196241 426.397079 
L 557.042481 426.397079 
L 555.888722 426.397079 
L 554.734962 426.397079 
L 553.581203 426.397079 
L 552.427444 426.397079 
L 551.273684 426.397079 
L 550.119925 426.397079 
L 548.966165 426.397079 
L 547.812406 426.397079 
L 546.658647 426.397079 
L 545.504887 426.397079 
L 544.351128 426.397079 
L 543.197368 426.397079 
L 542.043609 426.397079 
L 540.88985 429.981036 
L 539.73609 474.82854 
L 538.582331 474.82854 
L 537.428571 474.82854 
L 536.274812 482.190272 
L 535.121053 482.190272 
L 533.967293 161360.657098 
L 532.813534 161360.657098 
L 531.659774 161360.657098 
L 530.506015 161360.657098 
L 529.352256 161360.657098 
L 528.198496 161360.657098 
L 527.044737 161360.657098 
L 525.890977 161360.657098 
L 524.737218 482.190272 
L 523.583459 482.190272 
L 522.429699 482.190272 
L 521.27594 482.190272 
L 520.12218 474.82854 
L 518.968421 474.82854 
L 517.814662 474.82854 
L 516.660902 474.82854 
L 515.507143 474.82854 
L 514.353383 474.82854 
L 513.199624 474.82854 
L 512.045865 474.82854 
L 510.892105 474.82854 
L 509.738346 474.82854 
L 508.584586 474.82854 
L 507.430827 474.82854 
L 506.277068 474.82854 
L 505.123308 474.82854 
L 503.969549 474.82854 
L 502.815789 474.82854 
L 501.66203 429.981036 
L 500.508271 426.397079 
L 499.354511 426.397079 
L 498.200752 426.397079 
L 497.046992 426.397079 
L 495.893233 400.435255 
L 494.739474 400.435255 
L 493.585714 400.435255 
L 492.431955 398.066491 
L 491.278195 398.066491 
L 490.124436 398.066491 
L 488.970677 398.066491 
L 487.816917 398.066491 
L 486.663158 398.066491 
L 485.509398 398.066491 
L 484.355639 379.734621 
L 483.20188 352.003794 
L 482.04812 352.003794 
L 480.894361 377.965619 
L 479.740602 377.965619 
L 478.586842 377.965619 
L 477.433083 381.549575 
L 476.279323 426.397079 
L 475.125564 426.397079 
L 473.971805 426.397079 
L 472.818045 429.981036 
L 471.664286 429.981036 
L 470.510526 474.82854 
L 469.356767 429.981036 
L 468.203008 429.981036 
L 467.049248 429.981036 
L 465.895489 429.981036 
L 464.741729 402.887149 
L 463.58797 402.887149 
L 462.434211 402.887149 
L 461.280451 353.218987 
L 460.126692 350.809375 
L 458.972932 350.809375 
L 457.819173 350.809375 
L 456.665414 339.869609 
L 455.511654 339.869609 
L 454.357895 330.413061 
L 453.204135 330.413061 
L 452.050376 331.30316 
L 450.896617 331.30316 
L 449.742857 331.30316 
L 448.589098 331.30316 
L 447.435338 329.534159 
L 446.281579 329.534159 
L 445.12782 332.204745 
L 443.97406 335.932126 
L 442.820301 429.981036 
L 441.666541 429.981036 
L 440.512782 474.82854 
L 439.359023 474.82854 
L 438.205263 474.82854 
L 437.051504 474.82854 
L 435.897744 429.981036 
L 434.743985 429.981036 
L 433.590226 429.981036 
L 432.436466 429.981036 
L 431.282707 429.981036 
L 430.128947 429.981036 
L 428.975188 381.549575 
L 427.821429 363.785772 
L 426.667669 324.480982 
L 425.51391 324.480982 
L 424.36015 314.644947 
L 423.206391 314.644947 
L 422.052632 307.921318 
L 420.898872 301.788276 
L 419.745113 296.150394 
L 418.591353 295.610841 
L 417.437594 295.610841 
L 416.283835 295.610841 
L 415.130075 286.550014 
L 413.976316 286.550014 
L 412.822556 286.550014 
L 411.668797 286.079495 
L 410.515038 286.079495 
L 409.361278 277.693641 
L 408.207519 273.262242 
L 407.053759 266.213486 
L 405.9 259.489858 
L 404.746241 259.489858 
L 403.592481 259.489858 
L 402.438722 236.948144 
L 401.284962 229.054537 
L 400.131203 224.830782 
L 398.977444 224.830782 
L 397.823684 224.441522 
L 396.669925 227.618062 
L 395.516165 227.618062 
L 394.362406 213.173422 
L 393.208647 203.472666 
L 392.054887 199.694891 
L 390.901128 199.694891 
L 389.747368 192.701876 
L 388.593609 231.803254 
L 387.43985 231.803254 
L 386.28609 197.285278 
L 385.132331 197.285278 
L 383.978571 197.285278 
L 382.824812 182.408029 
L 381.671053 405.428223 
L 380.517293 326.125101 
L 379.363534 203.472666 
L 378.209774 203.472666 
L 377.056015 203.472666 
L 375.902256 210.261675 
L 374.748496 210.261675 
L 373.594737 210.261675 
L 372.440977 205.367117 
L 371.287218 205.367117 
L 370.133459 205.367117 
L 368.979699 205.367117 
L 367.82594 205.367117 
L 366.67218 205.367117 
L 365.518421 198.079285 
L 364.364662 198.079285 
L 363.210902 205.367117 
L 362.057143 205.367117 
L 360.903383 205.367117 
L 359.749624 176.399321 
L 358.595865 176.399321 
L 357.442105 176.399321 
L 356.288346 177.085787 
L 355.134586 173.907058 
L 353.980827 182.30176 
L 352.827068 183.26405 
L 351.673308 195.46695 
L 350.519549 195.46695 
L 349.365789 195.46695 
L 348.21203 195.46695 
L 347.058271 184.239778 
L 345.904511 184.239778 
L 344.750752 187.25148 
L 343.596992 195.46695 
L 342.443233 195.46695 
L 341.289474 202.190578 
L 340.135714 202.190578 
L 338.981955 216.211806 
L 337.828195 263.10756 
L 336.674436 263.10756 
L 335.520677 263.10756 
L 334.366917 263.10756 
L 333.213158 263.10756 
L 332.059398 263.10756 
L 330.905639 161360.657098 
L 329.75188 161360.657098 
L 328.59812 161360.657098 
L 327.444361 161360.657098 
L 326.290602 161360.657098 
L 325.136842 263.10756 
L 323.983083 263.10756 
L 322.829323 263.10756 
L 321.675564 284.228477 
L 320.521805 284.228477 
L 319.368045 284.228477 
L 318.214286 284.228477 
L 317.060526 161360.657098 
L 315.906767 161360.657098 
L 314.753008 284.228477 
L 313.599248 284.228477 
L 312.445489 284.228477 
L 311.291729 284.228477 
L 310.13797 284.228477 
L 308.984211 284.228477 
L 307.830451 284.228477 
L 306.676692 284.228477 
L 305.522932 216.211806 
L 304.369173 216.211806 
L 303.215414 213.173422 
L 302.061654 213.173422 
L 300.907895 199.423015 
L 299.754135 199.423015 
L 298.600376 213.173422 
L 297.446617 213.173422 
L 296.292857 213.173422 
L 295.139098 266.213486 
L 293.985338 276.456939 
L 292.831579 276.456939 
L 291.67782 276.456939 
L 290.52406 276.456939 
L 289.370301 276.456939 
L 288.216541 276.456939 
L 287.062782 292.973855 
L 285.909023 292.973855 
L 284.755263 356.996763 
L 283.601504 356.996763 
L 282.447744 355.714675 
L 281.293985 355.714675 
L 280.140226 355.714675 
L 278.986466 355.714675 
L 277.832707 355.714675 
L 276.678947 355.714675 
L 275.525188 355.714675 
L 274.371429 353.218987 
L 273.217669 400.435255 
L 272.06391 400.435255 
L 270.91015 426.397079 
L 269.756391 426.397079 
L 268.602632 426.397079 
L 267.448872 426.397079 
L 266.295113 426.397079 
L 265.141353 426.397079 
L 263.987594 426.397079 
L 262.833835 426.397079 
L 261.680075 426.397079 
L 260.526316 426.397079 
L 259.372556 426.397079 
L 258.218797 429.981036 
L 257.065038 482.190272 
L 255.911278 482.190272 
L 254.757519 482.190272 
L 253.603759 161360.657098 
L 252.45 161360.657098 
L 251.296241 161360.657098 
L 250.142481 161360.657098 
L 248.988722 161360.657098 
L 247.834962 161360.657098 
L 246.681203 161360.657098 
L 245.527444 161360.657098 
L 244.373684 161360.657098 
L 243.219925 161360.657098 
L 242.066165 161360.657098 
L 240.912406 482.190272 
L 239.758647 482.190272 
L 238.604887 482.190272 
L 237.451128 429.981036 
L 236.297368 426.397079 
L 235.143609 426.397079 
L 233.98985 429.981036 
L 232.83609 426.397079 
L 231.682331 426.397079 
L 230.528571 426.397079 
L 229.374812 400.435255 
L 228.221053 433.758811 
L 227.067293 433.758811 
L 225.913534 405.428223 
L 224.759774 405.428223 
L 223.606015 405.428223 
L 222.452256 433.758811 
L 221.298496 161360.657098 
L 220.144737 161360.657098 
L 218.990977 161360.657098 
L 217.837218 482.190272 
L 216.683459 482.190272 
L 215.529699 482.190272 
L 214.37594 161360.657098 
L 213.22218 161360.657098 
L 212.068421 161360.657098 
L 210.914662 161360.657098 
L 209.760902 161360.657098 
L 208.607143 161360.657098 
L 207.453383 161360.657098 
L 206.299624 161360.657098 
L 205.145865 161360.657098 
L 203.992105 161360.657098 
L 202.838346 161360.657098 
L 201.684586 161360.657098 
L 200.530827 161360.657098 
L 199.377068 161360.657098 
L 198.223308 161360.657098 
L 197.069549 161360.657098 
L 195.915789 161360.657098 
L 194.76203 161360.657098 
L 193.608271 161360.657098 
L 192.454511 161360.657098 
L 191.300752 161360.657098 
L 190.146992 161360.657098 
L 188.993233 161360.657098 
L 187.839474 161360.657098 
L 186.685714 161360.657098 
L 185.531955 161360.657098 
L 184.378195 161360.657098 
L 183.224436 161360.657098 
L 182.070677 161360.657098 
L 180.916917 161360.657098 
L 179.763158 161360.657098 
L 178.609398 161360.657098 
L 177.455639 161360.657098 
L 176.30188 161360.657098 
L 175.14812 161360.657098 
L 173.994361 161360.657098 
L 172.840602 161360.657098 
L 171.686842 161360.657098 
L 170.533083 161360.657098 
L 169.379323 161360.657098 
L 168.225564 161360.657098 
L 167.071805 161360.657098 
L 165.918045 161360.657098 
L 164.764286 161360.657098 
L 163.610526 161360.657098 
L 162.456767 161360.657098 
L 161.303008 161360.657098 
L 160.149248 161360.657098 
L 158.995489 161360.657098 
L 157.841729 161360.657098 
L 156.68797 161360.657098 
L 155.534211 482.190272 
L 154.380451 482.190272 
L 153.226692 482.190272 
L 152.072932 474.82854 
L 150.919173 402.887149 
L 149.765414 398.066491 
L 148.611654 398.066491 
L 147.457895 398.066491 
L 146.304135 398.066491 
L 145.150376 353.218987 
L 143.996617 353.218987 
L 142.842857 353.218987 
L 141.689098 353.218987 
L 140.535338 353.218987 
L 139.381579 353.218987 
L 138.22782 331.30316 
L 137.07406 331.30316 
L 135.920301 334.043583 
L 134.766541 365.226479 
L 133.612782 365.226479 
L 132.459023 332.204745 
L 131.305263 332.204745 
L 130.151504 366.697519 
L 128.997744 381.549575 
L 127.843985 381.549575 
L 126.690226 381.549575 
L 125.536466 426.397079 
L 124.382707 426.397079 
L 123.228947 426.397079 
L 122.075188 426.397079 
L 120.921429 426.397079 
L 119.767669 426.397079 
L 118.61391 426.397079 
L 117.46015 426.397079 
L 116.306391 429.981036 
L 115.152632 474.82854 
L 113.998872 429.981036 
L 112.845113 161360.657098 
L 111.691353 161360.657098 
L 110.537594 161360.657098 
L 109.383835 161360.657098 
L 108.230075 161360.657098 
L 107.076316 161360.657098 
L 105.922556 161360.657098 
L 104.768797 161360.657098 
L 103.615038 161360.657098 
L 102.461278 161360.657098 
L 101.307519 161360.657098 
L 100.153759 161360.657098 
L 99 161360.657098 
z
" style="fill:#8080ff;fill-opacity:0.5;stroke:#8080ff;stroke-opacity:0.5;"/>
   </g>
   <g id="PolyCollection_2">
    <path clip-path="url(#p68e2955192)" d="M 99 161360.657098 
L 99 161360.657098 
L 100.153759 161360.657098 
L 101.307519 161360.657098 
L 102.461278 161360.657098 
L 103.615038 161360.657098 
L 104.768797 161360.657098 
L 105.922556 161360.657098 
L 107.076316 161360.657098 
L 108.230075 161360.657098 
L 109.383835 161360.657098 
L 110.537594 161360.657098 
L 111.691353 161360.657098 
L 112.845113 161360.657098 
L 113.998872 161360.657098 
L 115.152632 161360.657098 
L 116.306391 161360.657098 
L 117.46015 499.75007 
L 118.61391 474.82854 
L 119.767669 474.82854 
L 120.921429 474.82854 
L 122.075188 474.82854 
L 123.228947 474.82854 
L 124.382707 474.82854 
L 125.536466 474.82854 
L 126.690226 474.82854 
L 127.843985 474.82854 
L 128.997744 474.82854 
L 130.151504 474.82854 
L 131.305263 474.82854 
L 132.459023 474.82854 
L 133.612782 474.82854 
L 134.766541 474.82854 
L 135.920301 474.82854 
L 137.07406 499.75007 
L 138.22782 499.75007 
L 139.381579 499.75007 
L 140.535338 499.75007 
L 141.689098 499.75007 
L 142.842857 499.75007 
L 143.996617 499.75007 
L 145.150376 499.75007 
L 146.304135 161360.657098 
L 147.457895 161360.657098 
L 148.611654 161360.657098 
L 149.765414 161360.657098 
L 150.919173 161360.657098 
L 152.072932 161360.657098 
L 153.226692 161360.657098 
L 154.380451 161360.657098 
L 155.534211 161360.657098 
L 156.68797 161360.657098 
L 157.841729 161360.657098 
L 158.995489 161360.657098 
L 160.149248 161360.657098 
L 161.303008 161360.657098 
L 162.456767 161360.657098 
L 163.610526 161360.657098 
L 164.764286 161360.657098 
L 165.918045 161360.657098 
L 167.071805 161360.657098 
L 168.225564 161360.657098 
L 169.379323 161360.657098 
L 170.533083 161360.657098 
L 171.686842 161360.657098 
L 172.840602 161360.657098 
L 173.994361 161360.657098 
L 175.14812 161360.657098 
L 176.30188 161360.657098 
L 177.455639 161360.657098 
L 178.609398 161360.657098 
L 179.763158 161360.657098 
L 180.916917 161360.657098 
L 182.070677 161360.657098 
L 183.224436 161360.657098 
L 184.378195 161360.657098 
L 185.531955 161360.657098 
L 186.685714 161360.657098 
L 187.839474 161360.657098 
L 188.993233 161360.657098 
L 190.146992 161360.657098 
L 191.300752 161360.657098 
L 192.454511 161360.657098 
L 193.608271 161360.657098 
L 194.76203 161360.657098 
L 195.915789 161360.657098 
L 197.069549 161360.657098 
L 198.223308 161360.657098 
L 199.377068 161360.657098 
L 200.530827 161360.657098 
L 201.684586 161360.657098 
L 202.838346 161360.657098 
L 203.992105 161360.657098 
L 205.145865 161360.657098 
L 206.299624 161360.657098 
L 207.453383 161360.657098 
L 208.607143 161360.657098 
L 209.760902 161360.657098 
L 210.914662 161360.657098 
L 212.068421 161360.657098 
L 213.22218 161360.657098 
L 214.37594 161360.657098 
L 215.529699 161360.657098 
L 216.683459 161360.657098 
L 217.837218 161360.657098 
L 218.990977 161360.657098 
L 220.144737 161360.657098 
L 221.298496 161360.657098 
L 222.452256 161360.657098 
L 223.606015 161360.657098 
L 224.759774 161360.657098 
L 225.913534 161360.657098 
L 227.067293 161360.657098 
L 228.221053 161360.657098 
L 229.374812 161360.657098 
L 230.528571 161360.657098 
L 231.682331 161360.657098 
L 232.83609 161360.657098 
L 233.98985 161360.657098 
L 235.143609 161360.657098 
L 236.297368 161360.657098 
L 237.451128 161360.657098 
L 238.604887 161360.657098 
L 239.758647 161360.657098 
L 240.912406 161360.657098 
L 242.066165 161360.657098 
L 243.219925 161360.657098 
L 244.373684 161360.657098 
L 245.527444 161360.657098 
L 246.681203 161360.657098 
L 247.834962 161360.657098 
L 248.988722 161360.657098 
L 250.142481 161360.657098 
L 251.296241 161360.657098 
L 252.45 161360.657098 
L 253.603759 161360.657098 
L 254.757519 161360.657098 
L 255.911278 161360.657098 
L 257.065038 161360.657098 
L 258.218797 161360.657098 
L 259.372556 161360.657098 
L 260.526316 161360.657098 
L 261.680075 161360.657098 
L 262.833835 161360.657098 
L 263.987594 161360.657098 
L 265.141353 161360.657098 
L 266.295113 161360.657098 
L 267.448872 161360.657098 
L 268.602632 161360.657098 
L 269.756391 161360.657098 
L 270.91015 161360.657098 
L 272.06391 161360.657098 
L 273.217669 161360.657098 
L 274.371429 161360.657098 
L 275.525188 161360.657098 
L 276.678947 161360.657098 
L 277.832707 161360.657098 
L 278.986466 161360.657098 
L 280.140226 161360.657098 
L 281.293985 161360.657098 
L 282.447744 161360.657098 
L 283.601504 161360.657098 
L 284.755263 161360.657098 
L 285.909023 499.75007 
L 287.062782 499.75007 
L 288.216541 474.82854 
L 289.370301 474.82854 
L 290.52406 474.82854 
L 291.67782 474.82854 
L 292.831579 474.82854 
L 293.985338 474.82854 
L 295.139098 437.752574 
L 296.292857 437.752574 
L 297.446617 437.752574 
L 298.600376 437.752574 
L 299.754135 437.752574 
L 300.907895 437.752574 
L 302.061654 426.397079 
L 303.215414 426.397079 
L 304.369173 437.752574 
L 305.522932 437.752574 
L 306.676692 426.397079 
L 307.830451 426.397079 
L 308.984211 426.397079 
L 310.13797 405.428223 
L 311.291729 426.397079 
L 312.445489 426.397079 
L 313.599248 426.397079 
L 314.753008 405.428223 
L 315.906767 405.428223 
L 317.060526 405.428223 
L 318.214286 405.428223 
L 319.368045 405.428223 
L 320.521805 405.428223 
L 321.675564 405.428223 
L 322.829323 405.428223 
L 323.983083 405.428223 
L 325.136842 405.428223 
L 326.290602 426.397079 
L 327.444361 405.428223 
L 328.59812 405.428223 
L 329.75188 405.428223 
L 330.905639 426.397079 
L 332.059398 426.397079 
L 333.213158 426.397079 
L 334.366917 405.428223 
L 335.520677 405.428223 
L 336.674436 405.428223 
L 337.828195 405.428223 
L 338.981955 405.428223 
L 340.135714 405.428223 
L 341.289474 405.428223 
L 342.443233 405.428223 
L 343.596992 426.397079 
L 344.750752 437.752574 
L 345.904511 437.752574 
L 347.058271 426.397079 
L 348.21203 426.397079 
L 349.365789 426.397079 
L 350.519549 426.397079 
L 351.673308 426.397079 
L 352.827068 426.397079 
L 353.980827 426.397079 
L 355.134586 426.397079 
L 356.288346 426.397079 
L 357.442105 426.397079 
L 358.595865 405.428223 
L 359.749624 405.428223 
L 360.903383 405.428223 
L 362.057143 405.428223 
L 363.210902 405.428223 
L 364.364662 405.428223 
L 365.518421 405.428223 
L 366.67218 426.397079 
L 367.82594 426.397079 
L 368.979699 405.428223 
L 370.133459 405.428223 
L 371.287218 383.412935 
L 372.440977 383.412935 
L 373.594737 383.412935 
L 374.748496 405.428223 
L 375.902256 405.428223 
L 377.056015 405.428223 
L 378.209774 405.428223 
L 379.363534 405.428223 
L 380.517293 405.428223 
L 381.671053 405.428223 
L 382.824812 371.306123 
L 383.978571 371.306123 
L 385.132331 376.240301 
L 386.28609 376.240301 
L 387.43985 426.397079 
L 388.593609 426.397079 
L 389.747368 405.428223 
L 390.901128 405.428223 
L 392.054887 405.428223 
L 393.208647 405.428223 
L 394.362406 405.428223 
L 395.516165 405.428223 
L 396.669925 405.428223 
L 397.823684 405.428223 
L 398.977444 426.397079 
L 400.131203 426.397079 
L 401.284962 426.397079 
L 402.438722 426.397079 
L 403.592481 426.397079 
L 404.746241 426.397079 
L 405.9 437.752574 
L 407.053759 437.752574 
L 408.207519 437.752574 
L 409.361278 474.82854 
L 410.515038 474.82854 
L 411.668797 499.75007 
L 412.822556 437.752574 
L 413.976316 437.752574 
L 415.130075 437.752574 
L 416.283835 437.752574 
L 417.437594 437.752574 
L 418.591353 437.752574 
L 419.745113 437.752574 
L 420.898872 437.752574 
L 422.052632 437.752574 
L 423.206391 437.752574 
L 424.36015 437.752574 
L 425.51391 437.752574 
L 426.667669 474.82854 
L 427.821429 474.82854 
L 428.975188 474.82854 
L 430.128947 474.82854 
L 431.282707 499.75007 
L 432.436466 499.75007 
L 433.590226 499.75007 
L 434.743985 474.82854 
L 435.897744 474.82854 
L 437.051504 474.82854 
L 438.205263 474.82854 
L 439.359023 474.82854 
L 440.512782 474.82854 
L 441.666541 474.82854 
L 442.820301 499.75007 
L 443.97406 474.82854 
L 445.12782 474.82854 
L 446.281579 474.82854 
L 447.435338 474.82854 
L 448.589098 474.82854 
L 449.742857 474.82854 
L 450.896617 499.75007 
L 452.050376 474.82854 
L 453.204135 474.82854 
L 454.357895 474.82854 
L 455.511654 474.82854 
L 456.665414 474.82854 
L 457.819173 474.82854 
L 458.972932 474.82854 
L 460.126692 474.82854 
L 461.280451 474.82854 
L 462.434211 474.82854 
L 463.58797 474.82854 
L 464.741729 474.82854 
L 465.895489 474.82854 
L 467.049248 474.82854 
L 468.203008 474.82854 
L 469.356767 474.82854 
L 470.510526 499.75007 
L 471.664286 161360.657098 
L 472.818045 161360.657098 
L 473.971805 161360.657098 
L 475.125564 161360.657098 
L 476.279323 161360.657098 
L 477.433083 161360.657098 
L 478.586842 161360.657098 
L 479.740602 161360.657098 
L 480.894361 161360.657098 
L 482.04812 161360.657098 
L 483.20188 161360.657098 
L 484.355639 161360.657098 
L 485.509398 161360.657098 
L 486.663158 161360.657098 
L 487.816917 161360.657098 
L 488.970677 161360.657098 
L 490.124436 161360.657098 
L 491.278195 161360.657098 
L 492.431955 161360.657098 
L 493.585714 161360.657098 
L 494.739474 161360.657098 
L 495.893233 161360.657098 
L 497.046992 161360.657098 
L 498.200752 161360.657098 
L 499.354511 161360.657098 
L 500.508271 161360.657098 
L 501.66203 161360.657098 
L 502.815789 161360.657098 
L 503.969549 161360.657098 
L 505.123308 161360.657098 
L 506.277068 161360.657098 
L 507.430827 161360.657098 
L 508.584586 161360.657098 
L 509.738346 499.75007 
L 510.892105 499.75007 
L 512.045865 499.75007 
L 513.199624 499.75007 
L 514.353383 499.75007 
L 515.507143 499.75007 
L 516.660902 499.75007 
L 517.814662 499.75007 
L 518.968421 161360.657098 
L 520.12218 499.75007 
L 521.27594 499.75007 
L 522.429699 499.75007 
L 523.583459 499.75007 
L 524.737218 499.75007 
L 525.890977 161360.657098 
L 527.044737 161360.657098 
L 528.198496 161360.657098 
L 529.352256 161360.657098 
L 530.506015 161360.657098 
L 531.659774 161360.657098 
L 532.813534 161360.657098 
L 533.967293 161360.657098 
L 535.121053 161360.657098 
L 536.274812 161360.657098 
L 537.428571 161360.657098 
L 538.582331 161360.657098 
L 539.73609 161360.657098 
L 540.88985 161360.657098 
L 542.043609 161360.657098 
L 543.197368 161360.657098 
L 544.351128 161360.657098 
L 545.504887 161360.657098 
L 546.658647 161360.657098 
L 547.812406 161360.657098 
L 548.966165 161360.657098 
L 550.119925 161360.657098 
L 551.273684 161360.657098 
L 552.427444 161360.657098 
L 553.581203 161360.657098 
L 554.734962 161360.657098 
L 555.888722 161360.657098 
L 557.042481 161360.657098 
L 558.196241 161360.657098 
L 559.35 161360.657098 
L 560.503759 161360.657098 
L 561.657519 161360.657098 
L 562.811278 161360.657098 
L 563.965038 161360.657098 
L 565.118797 161360.657098 
L 566.272556 161360.657098 
L 567.426316 161360.657098 
L 568.580075 161360.657098 
L 569.733835 161360.657098 
L 570.887594 161360.657098 
L 572.041353 161360.657098 
L 573.195113 161360.657098 
L 574.348872 161360.657098 
L 575.502632 161360.657098 
L 576.656391 161360.657098 
L 577.81015 161360.657098 
L 578.96391 499.75007 
L 580.117669 474.82854 
L 581.271429 474.82854 
L 582.425188 474.82854 
L 583.578947 474.82854 
L 584.732707 474.82854 
L 585.886466 474.82854 
L 587.040226 474.82854 
L 588.193985 474.82854 
L 589.347744 474.82854 
L 590.501504 474.82854 
L 591.655263 474.82854 
L 592.809023 474.82854 
L 593.962782 499.75007 
L 595.116541 161360.657098 
L 596.270301 161360.657098 
L 597.42406 161360.657098 
L 598.57782 161360.657098 
L 599.731579 161360.657098 
L 600.885338 161360.657098 
L 602.039098 161360.657098 
L 603.192857 161360.657098 
L 604.346617 161360.657098 
L 605.500376 161360.657098 
L 606.654135 161360.657098 
L 607.807895 161360.657098 
L 608.961654 161360.657098 
L 610.115414 161360.657098 
L 611.269173 161360.657098 
L 612.422932 161360.657098 
L 613.576692 161360.657098 
L 614.730451 161360.657098 
L 615.884211 161360.657098 
L 617.03797 161360.657098 
L 618.191729 161360.657098 
L 619.345489 161360.657098 
L 620.499248 161360.657098 
L 621.653008 161360.657098 
L 622.806767 161360.657098 
L 623.960526 161360.657098 
L 625.114286 161360.657098 
L 626.268045 161360.657098 
L 627.421805 161360.657098 
L 628.575564 161360.657098 
L 629.729323 161360.657098 
L 630.883083 161360.657098 
L 632.036842 161360.657098 
L 633.190602 161360.657098 
L 634.344361 161360.657098 
L 635.49812 161360.657098 
L 636.65188 161360.657098 
L 637.805639 161360.657098 
L 638.959398 161360.657098 
L 640.113158 161360.657098 
L 641.266917 161360.657098 
L 642.420677 161360.657098 
L 643.574436 161360.657098 
L 644.728195 161360.657098 
L 645.881955 161360.657098 
L 647.035714 161360.657098 
L 648.189474 161360.657098 
L 649.343233 161360.657098 
L 650.496992 161360.657098 
L 651.650752 161360.657098 
L 652.804511 161360.657098 
L 653.958271 499.75007 
L 655.11203 499.75007 
L 656.265789 499.75007 
L 657.419549 161360.657098 
L 658.573308 499.75007 
L 659.727068 499.75007 
L 660.880827 499.75007 
L 662.034586 499.75007 
L 663.188346 499.75007 
L 664.342105 499.75007 
L 665.495865 474.82854 
L 666.649624 474.82854 
L 667.803383 474.82854 
L 668.957143 474.82854 
L 670.110902 499.75007 
L 671.264662 499.75007 
L 672.418421 499.75007 
L 673.57218 499.75007 
L 674.72594 161360.657098 
L 675.879699 161360.657098 
L 677.033459 161360.657098 
L 678.187218 161360.657098 
L 679.340977 161360.657098 
L 680.494737 161360.657098 
L 681.648496 161360.657098 
L 682.802256 161360.657098 
L 683.956015 161360.657098 
L 685.109774 161360.657098 
L 686.263534 161360.657098 
L 687.417293 161360.657098 
L 688.571053 161360.657098 
L 689.724812 161360.657098 
L 690.878571 161360.657098 
L 692.032331 161360.657098 
L 693.18609 161360.657098 
L 694.33985 161360.657098 
L 695.493609 161360.657098 
L 696.647368 161360.657098 
L 697.801128 161360.657098 
L 698.954887 161360.657098 
L 700.108647 161360.657098 
L 701.262406 161360.657098 
L 702.416165 161360.657098 
L 703.569925 161360.657098 
L 704.723684 161360.657098 
L 705.877444 499.75007 
L 707.031203 499.75007 
L 708.184962 499.75007 
L 709.338722 499.75007 
L 710.492481 499.75007 
L 711.646241 499.75007 
L 712.8 499.75007 
L 712.8 161360.657098 
L 712.8 161360.657098 
L 711.646241 161360.657098 
L 710.492481 161360.657098 
L 709.338722 161360.657098 
L 708.184962 161360.657098 
L 707.031203 161360.657098 
L 705.877444 161360.657098 
L 704.723684 161360.657098 
L 703.569925 161360.657098 
L 702.416165 161360.657098 
L 701.262406 161360.657098 
L 700.108647 161360.657098 
L 698.954887 161360.657098 
L 697.801128 161360.657098 
L 696.647368 161360.657098 
L 695.493609 161360.657098 
L 694.33985 161360.657098 
L 693.18609 161360.657098 
L 692.032331 161360.657098 
L 690.878571 161360.657098 
L 689.724812 161360.657098 
L 688.571053 161360.657098 
L 687.417293 161360.657098 
L 686.263534 161360.657098 
L 685.109774 161360.657098 
L 683.956015 161360.657098 
L 682.802256 161360.657098 
L 681.648496 161360.657098 
L 680.494737 161360.657098 
L 679.340977 161360.657098 
L 678.187218 161360.657098 
L 677.033459 161360.657098 
L 675.879699 161360.657098 
L 674.72594 161360.657098 
L 673.57218 161360.657098 
L 672.418421 161360.657098 
L 671.264662 161360.657098 
L 670.110902 161360.657098 
L 668.957143 161360.657098 
L 667.803383 161360.657098 
L 666.649624 161360.657098 
L 665.495865 161360.657098 
L 664.342105 161360.657098 
L 663.188346 161360.657098 
L 662.034586 161360.657098 
L 660.880827 161360.657098 
L 659.727068 161360.657098 
L 658.573308 161360.657098 
L 657.419549 161360.657098 
L 656.265789 161360.657098 
L 655.11203 161360.657098 
L 653.958271 161360.657098 
L 652.804511 161360.657098 
L 651.650752 161360.657098 
L 650.496992 161360.657098 
L 649.343233 161360.657098 
L 648.189474 161360.657098 
L 647.035714 161360.657098 
L 645.881955 161360.657098 
L 644.728195 161360.657098 
L 643.574436 161360.657098 
L 642.420677 161360.657098 
L 641.266917 161360.657098 
L 640.113158 161360.657098 
L 638.959398 161360.657098 
L 637.805639 161360.657098 
L 636.65188 161360.657098 
L 635.49812 161360.657098 
L 634.344361 161360.657098 
L 633.190602 161360.657098 
L 632.036842 161360.657098 
L 630.883083 161360.657098 
L 629.729323 161360.657098 
L 628.575564 161360.657098 
L 627.421805 161360.657098 
L 626.268045 161360.657098 
L 625.114286 161360.657098 
L 623.960526 161360.657098 
L 622.806767 161360.657098 
L 621.653008 161360.657098 
L 620.499248 161360.657098 
L 619.345489 161360.657098 
L 618.191729 161360.657098 
L 617.03797 161360.657098 
L 615.884211 161360.657098 
L 614.730451 161360.657098 
L 613.576692 161360.657098 
L 612.422932 161360.657098 
L 611.269173 161360.657098 
L 610.115414 161360.657098 
L 608.961654 161360.657098 
L 607.807895 161360.657098 
L 606.654135 161360.657098 
L 605.500376 161360.657098 
L 604.346617 161360.657098 
L 603.192857 161360.657098 
L 602.039098 161360.657098 
L 600.885338 161360.657098 
L 599.731579 161360.657098 
L 598.57782 161360.657098 
L 597.42406 161360.657098 
L 596.270301 161360.657098 
L 595.116541 161360.657098 
L 593.962782 161360.657098 
L 592.809023 161360.657098 
L 591.655263 161360.657098 
L 590.501504 161360.657098 
L 589.347744 161360.657098 
L 588.193985 161360.657098 
L 587.040226 161360.657098 
L 585.886466 161360.657098 
L 584.732707 161360.657098 
L 583.578947 161360.657098 
L 582.425188 161360.657098 
L 581.271429 161360.657098 
L 580.117669 161360.657098 
L 578.96391 161360.657098 
L 577.81015 161360.657098 
L 576.656391 161360.657098 
L 575.502632 161360.657098 
L 574.348872 161360.657098 
L 573.195113 161360.657098 
L 572.041353 161360.657098 
L 570.887594 161360.657098 
L 569.733835 161360.657098 
L 568.580075 161360.657098 
L 567.426316 161360.657098 
L 566.272556 161360.657098 
L 565.118797 161360.657098 
L 563.965038 161360.657098 
L 562.811278 161360.657098 
L 561.657519 161360.657098 
L 560.503759 161360.657098 
L 559.35 161360.657098 
L 558.196241 161360.657098 
L 557.042481 161360.657098 
L 555.888722 161360.657098 
L 554.734962 161360.657098 
L 553.581203 161360.657098 
L 552.427444 161360.657098 
L 551.273684 161360.657098 
L 550.119925 161360.657098 
L 548.966165 161360.657098 
L 547.812406 161360.657098 
L 546.658647 161360.657098 
L 545.504887 161360.657098 
L 544.351128 161360.657098 
L 543.197368 161360.657098 
L 542.043609 161360.657098 
L 540.88985 161360.657098 
L 539.73609 161360.657098 
L 538.582331 161360.657098 
L 537.428571 161360.657098 
L 536.274812 161360.657098 
L 535.121053 161360.657098 
L 533.967293 161360.657098 
L 532.813534 161360.657098 
L 531.659774 161360.657098 
L 530.506015 161360.657098 
L 529.352256 161360.657098 
L 528.198496 161360.657098 
L 527.044737 161360.657098 
L 525.890977 161360.657098 
L 524.737218 161360.657098 
L 523.583459 161360.657098 
L 522.429699 161360.657098 
L 521.27594 161360.657098 
L 520.12218 161360.657098 
L 518.968421 161360.657098 
L 517.814662 161360.657098 
L 516.660902 161360.657098 
L 515.507143 161360.657098 
L 514.353383 161360.657098 
L 513.199624 161360.657098 
L 512.045865 161360.657098 
L 510.892105 161360.657098 
L 509.738346 161360.657098 
L 508.584586 161360.657098 
L 507.430827 161360.657098 
L 506.277068 161360.657098 
L 505.123308 161360.657098 
L 503.969549 161360.657098 
L 502.815789 161360.657098 
L 501.66203 161360.657098 
L 500.508271 161360.657098 
L 499.354511 161360.657098 
L 498.200752 161360.657098 
L 497.046992 161360.657098 
L 495.893233 161360.657098 
L 494.739474 161360.657098 
L 493.585714 161360.657098 
L 492.431955 161360.657098 
L 491.278195 161360.657098 
L 490.124436 161360.657098 
L 488.970677 161360.657098 
L 487.816917 161360.657098 
L 486.663158 161360.657098 
L 485.509398 161360.657098 
L 484.355639 161360.657098 
L 483.20188 161360.657098 
L 482.04812 161360.657098 
L 480.894361 161360.657098 
L 479.740602 161360.657098 
L 478.586842 161360.657098 
L 477.433083 161360.657098 
L 476.279323 161360.657098 
L 475.125564 161360.657098 
L 473.971805 161360.657098 
L 472.818045 161360.657098 
L 471.664286 161360.657098 
L 470.510526 161360.657098 
L 469.356767 161360.657098 
L 468.203008 161360.657098 
L 467.049248 161360.657098 
L 465.895489 161360.657098 
L 464.741729 161360.657098 
L 463.58797 161360.657098 
L 462.434211 161360.657098 
L 461.280451 161360.657098 
L 460.126692 161360.657098 
L 458.972932 161360.657098 
L 457.819173 161360.657098 
L 456.665414 161360.657098 
L 455.511654 161360.657098 
L 454.357895 161360.657098 
L 453.204135 161360.657098 
L 452.050376 161360.657098 
L 450.896617 161360.657098 
L 449.742857 161360.657098 
L 448.589098 161360.657098 
L 447.435338 161360.657098 
L 446.281579 161360.657098 
L 445.12782 161360.657098 
L 443.97406 161360.657098 
L 442.820301 161360.657098 
L 441.666541 161360.657098 
L 440.512782 161360.657098 
L 439.359023 161360.657098 
L 438.205263 161360.657098 
L 437.051504 161360.657098 
L 435.897744 161360.657098 
L 434.743985 161360.657098 
L 433.590226 161360.657098 
L 432.436466 161360.657098 
L 431.282707 161360.657098 
L 430.128947 161360.657098 
L 428.975188 161360.657098 
L 427.821429 161360.657098 
L 426.667669 161360.657098 
L 425.51391 161360.657098 
L 424.36015 161360.657098 
L 423.206391 161360.657098 
L 422.052632 161360.657098 
L 420.898872 161360.657098 
L 419.745113 161360.657098 
L 418.591353 161360.657098 
L 417.437594 161360.657098 
L 416.283835 161360.657098 
L 415.130075 161360.657098 
L 413.976316 161360.657098 
L 412.822556 161360.657098 
L 411.668797 161360.657098 
L 410.515038 161360.657098 
L 409.361278 161360.657098 
L 408.207519 161360.657098 
L 407.053759 161360.657098 
L 405.9 161360.657098 
L 404.746241 161360.657098 
L 403.592481 161360.657098 
L 402.438722 161360.657098 
L 401.284962 161360.657098 
L 400.131203 161360.657098 
L 398.977444 161360.657098 
L 397.823684 161360.657098 
L 396.669925 161360.657098 
L 395.516165 161360.657098 
L 394.362406 161360.657098 
L 393.208647 161360.657098 
L 392.054887 161360.657098 
L 390.901128 161360.657098 
L 389.747368 161360.657098 
L 388.593609 161360.657098 
L 387.43985 161360.657098 
L 386.28609 161360.657098 
L 385.132331 161360.657098 
L 383.978571 161360.657098 
L 382.824812 161360.657098 
L 381.671053 161360.657098 
L 380.517293 161360.657098 
L 379.363534 161360.657098 
L 378.209774 161360.657098 
L 377.056015 161360.657098 
L 375.902256 161360.657098 
L 374.748496 161360.657098 
L 373.594737 161360.657098 
L 372.440977 161360.657098 
L 371.287218 161360.657098 
L 370.133459 161360.657098 
L 368.979699 161360.657098 
L 367.82594 161360.657098 
L 366.67218 161360.657098 
L 365.518421 161360.657098 
L 364.364662 161360.657098 
L 363.210902 161360.657098 
L 362.057143 161360.657098 
L 360.903383 161360.657098 
L 359.749624 161360.657098 
L 358.595865 161360.657098 
L 357.442105 161360.657098 
L 356.288346 161360.657098 
L 355.134586 161360.657098 
L 353.980827 161360.657098 
L 352.827068 161360.657098 
L 351.673308 161360.657098 
L 350.519549 161360.657098 
L 349.365789 161360.657098 
L 348.21203 161360.657098 
L 347.058271 161360.657098 
L 345.904511 161360.657098 
L 344.750752 161360.657098 
L 343.596992 482.190272 
L 342.443233 482.190272 
L 341.289474 482.190272 
L 340.135714 161360.657098 
L 338.981955 161360.657098 
L 337.828195 161360.657098 
L 336.674436 161360.657098 
L 335.520677 161360.657098 
L 334.366917 161360.657098 
L 333.213158 161360.657098 
L 332.059398 161360.657098 
L 330.905639 161360.657098 
L 329.75188 161360.657098 
L 328.59812 161360.657098 
L 327.444361 161360.657098 
L 326.290602 161360.657098 
L 325.136842 161360.657098 
L 323.983083 161360.657098 
L 322.829323 161360.657098 
L 321.675564 161360.657098 
L 320.521805 161360.657098 
L 319.368045 482.190272 
L 318.214286 482.190272 
L 317.060526 482.190272 
L 315.906767 474.82854 
L 314.753008 474.82854 
L 313.599248 474.82854 
L 312.445489 482.190272 
L 311.291729 482.190272 
L 310.13797 482.190272 
L 308.984211 161360.657098 
L 307.830451 161360.657098 
L 306.676692 161360.657098 
L 305.522932 161360.657098 
L 304.369173 161360.657098 
L 303.215414 161360.657098 
L 302.061654 161360.657098 
L 300.907895 161360.657098 
L 299.754135 161360.657098 
L 298.600376 161360.657098 
L 297.446617 161360.657098 
L 296.292857 161360.657098 
L 295.139098 161360.657098 
L 293.985338 161360.657098 
L 292.831579 161360.657098 
L 291.67782 161360.657098 
L 290.52406 161360.657098 
L 289.370301 161360.657098 
L 288.216541 161360.657098 
L 287.062782 161360.657098 
L 285.909023 161360.657098 
L 284.755263 161360.657098 
L 283.601504 161360.657098 
L 282.447744 161360.657098 
L 281.293985 161360.657098 
L 280.140226 161360.657098 
L 278.986466 161360.657098 
L 277.832707 161360.657098 
L 276.678947 161360.657098 
L 275.525188 161360.657098 
L 274.371429 161360.657098 
L 273.217669 161360.657098 
L 272.06391 161360.657098 
L 270.91015 161360.657098 
L 269.756391 161360.657098 
L 268.602632 161360.657098 
L 267.448872 161360.657098 
L 266.295113 161360.657098 
L 265.141353 161360.657098 
L 263.987594 161360.657098 
L 262.833835 161360.657098 
L 261.680075 161360.657098 
L 260.526316 161360.657098 
L 259.372556 161360.657098 
L 258.218797 161360.657098 
L 257.065038 161360.657098 
L 255.911278 161360.657098 
L 254.757519 161360.657098 
L 253.603759 161360.657098 
L 252.45 161360.657098 
L 251.296241 161360.657098 
L 250.142481 161360.657098 
L 248.988722 161360.657098 
L 247.834962 161360.657098 
L 246.681203 161360.657098 
L 245.527444 161360.657098 
L 244.373684 161360.657098 
L 243.219925 161360.657098 
L 242.066165 161360.657098 
L 240.912406 161360.657098 
L 239.758647 161360.657098 
L 238.604887 161360.657098 
L 237.451128 161360.657098 
L 236.297368 161360.657098 
L 235.143609 161360.657098 
L 233.98985 161360.657098 
L 232.83609 161360.657098 
L 231.682331 161360.657098 
L 230.528571 161360.657098 
L 229.374812 161360.657098 
L 228.221053 161360.657098 
L 227.067293 161360.657098 
L 225.913534 161360.657098 
L 224.759774 161360.657098 
L 223.606015 161360.657098 
L 222.452256 161360.657098 
L 221.298496 161360.657098 
L 220.144737 161360.657098 
L 218.990977 161360.657098 
L 217.837218 161360.657098 
L 216.683459 161360.657098 
L 215.529699 161360.657098 
L 214.37594 161360.657098 
L 213.22218 161360.657098 
L 212.068421 161360.657098 
L 210.914662 161360.657098 
L 209.760902 161360.657098 
L 208.607143 161360.657098 
L 207.453383 161360.657098 
L 206.299624 161360.657098 
L 205.145865 161360.657098 
L 203.992105 161360.657098 
L 202.838346 161360.657098 
L 201.684586 161360.657098 
L 200.530827 161360.657098 
L 199.377068 161360.657098 
L 198.223308 161360.657098 
L 197.069549 161360.657098 
L 195.915789 161360.657098 
L 194.76203 161360.657098 
L 193.608271 161360.657098 
L 192.454511 161360.657098 
L 191.300752 161360.657098 
L 190.146992 161360.657098 
L 188.993233 161360.657098 
L 187.839474 161360.657098 
L 186.685714 161360.657098 
L 185.531955 161360.657098 
L 184.378195 161360.657098 
L 183.224436 161360.657098 
L 182.070677 161360.657098 
L 180.916917 161360.657098 
L 179.763158 161360.657098 
L 178.609398 161360.657098 
L 177.455639 161360.657098 
L 176.30188 161360.657098 
L 175.14812 161360.657098 
L 173.994361 161360.657098 
L 172.840602 161360.657098 
L 171.686842 161360.657098 
L 170.533083 161360.657098 
L 169.379323 161360.657098 
L 168.225564 161360.657098 
L 167.071805 161360.657098 
L 165.918045 161360.657098 
L 164.764286 161360.657098 
L 163.610526 161360.657098 
L 162.456767 161360.657098 
L 161.303008 161360.657098 
L 160.149248 161360.657098 
L 158.995489 161360.657098 
L 157.841729 161360.657098 
L 156.68797 161360.657098 
L 155.534211 161360.657098 
L 154.380451 161360.657098 
L 153.226692 161360.657098 
L 152.072932 161360.657098 
L 150.919173 161360.657098 
L 149.765414 161360.657098 
L 148.611654 161360.657098 
L 147.457895 161360.657098 
L 146.304135 161360.657098 
L 145.150376 161360.657098 
L 143.996617 161360.657098 
L 142.842857 161360.657098 
L 141.689098 161360.657098 
L 140.535338 161360.657098 
L 139.381579 161360.657098 
L 138.22782 161360.657098 
L 137.07406 161360.657098 
L 135.920301 161360.657098 
L 134.766541 161360.657098 
L 133.612782 161360.657098 
L 132.459023 161360.657098 
L 131.305263 161360.657098 
L 130.151504 161360.657098 
L 128.997744 161360.657098 
L 127.843985 161360.657098 
L 126.690226 161360.657098 
L 125.536466 161360.657098 
L 124.382707 161360.657098 
L 123.228947 161360.657098 
L 122.075188 161360.657098 
L 120.921429 161360.657098 
L 119.767669 161360.657098 
L 118.61391 161360.657098 
L 117.46015 161360.657098 
L 116.306391 161360.657098 
L 115.152632 161360.657098 
L 113.998872 161360.657098 
L 112.845113 161360.657098 
L 111.691353 161360.657098 
L 110.537594 161360.657098 
L 109.383835 161360.657098 
L 108.230075 161360.657098 
L 107.076316 161360.657098 
L 105.922556 161360.657098 
L 104.768797 161360.657098 
L 103.615038 161360.657098 
L 102.461278 161360.657098 
L 101.307519 161360.657098 
L 100.153759 161360.657098 
L 99 161360.657098 
z
" style="fill:#ff8080;fill-opacity:0.5;stroke:#ff8080;stroke-opacity:0.5;"/>
   </g>
   <g id="matplotlib.axis_1">
    <g id="xtick_1">
     <g id="line2d_1">
      <path clip-path="url(#p68e2955192)" d="M 99 544.68 
L 99 73.44 
" style="fill:none;stroke:#b0b0b0;stroke-linecap:square;stroke-width:0.8;"/>
     </g>
     <g id="line2d_2">
      <defs>
       <path d="M 0 0 
L 0 3.5 
" id="m4abed1d830" style="stroke:#000000;stroke-width:0.8;"/>
      </defs>
      <g>
       <use style="stroke:#000000;stroke-width:0.8;" x="99" xlink:href="#m4abed1d830" y="544.68"/>
      </g>
     </g>
    </g>
    <g id="xtick_2">
     <g id="line2d_3">
      <path clip-path="url(#p68e2955192)" d="M 118.61391 544.68 
L 118.61391 73.44 
" style="fill:none;stroke:#b0b0b0;stroke-linecap:square;stroke-width:0.8;"/>
     </g>
     <g id="line2d_4">
      <g>
       <use style="stroke:#000000;stroke-width:0.8;" x="118.61391" xlink:href="#m4abed1d830" y="544.68"/>
      </g>
     </g>
     <g id="text_1">
      <!-- Apr -->
      <g transform="translate(109.96391 559.278437)scale(0.1 -0.1)">
       <defs>
        <path d="M 2188 4044 
L 1331 1722 
L 3047 1722 
L 2188 4044 
z
M 1831 4666 
L 2547 4666 
L 4325 0 
L 3669 0 
L 3244 1197 
L 1141 1197 
L 716 0 
L 50 0 
L 1831 4666 
z
" id="DejaVuSans-41" transform="scale(0.015625)"/>
        <path d="M 1159 525 
L 1159 -1331 
L 581 -1331 
L 581 3500 
L 1159 3500 
L 1159 2969 
Q 1341 3281 1617 3432 
Q 1894 3584 2278 3584 
Q 2916 3584 3314 3078 
Q 3713 2572 3713 1747 
Q 3713 922 3314 415 
Q 2916 -91 2278 -91 
Q 1894 -91 1617 61 
Q 1341 213 1159 525 
z
M 3116 1747 
Q 3116 2381 2855 2742 
Q 2594 3103 2138 3103 
Q 1681 3103 1420 2742 
Q 1159 2381 1159 1747 
Q 1159 1113 1420 752 
Q 1681 391 2138 391 
Q 2594 391 2855 752 
Q 3116 1113 3116 1747 
z
" id="DejaVuSans-70" transform="scale(0.015625)"/>
        <path d="M 2631 2963 
Q 2534 3019 2420 3045 
Q 2306 3072 2169 3072 
Q 1681 3072 1420 2755 
Q 1159 2438 1159 1844 
L 1159 0 
L 581 0 
L 581 3500 
L 1159 3500 
L 1159 2956 
Q 1341 3275 1631 3429 
Q 1922 3584 2338 3584 
Q 2397 3584 2469 3576 
Q 2541 3569 2628 3553 
L 2631 2963 
z
" id="DejaVuSans-72" transform="scale(0.015625)"/>
       </defs>
       <use xlink:href="#DejaVuSans-41"/>
       <use x="68.408203" xlink:href="#DejaVuSans-70"/>
       <use x="131.884766" xlink:href="#DejaVuSans-72"/>
      </g>
     </g>
    </g>
    <g id="xtick_3">
     <g id="line2d_5">
      <path clip-path="url(#p68e2955192)" d="M 223.606015 544.68 
L 223.606015 73.44 
" style="fill:none;stroke:#b0b0b0;stroke-linecap:square;stroke-width:0.8;"/>
     </g>
     <g id="line2d_6">
      <g>
       <use style="stroke:#000000;stroke-width:0.8;" x="223.606015" xlink:href="#m4abed1d830" y="544.68"/>
      </g>
     </g>
     <g id="text_2">
      <!-- Jul -->
      <g transform="translate(217.573203 559.278437)scale(0.1 -0.1)">
       <defs>
        <path d="M 628 4666 
L 1259 4666 
L 1259 325 
Q 1259 -519 939 -900 
Q 619 -1281 -91 -1281 
L -331 -1281 
L -331 -750 
L -134 -750 
Q 284 -750 456 -515 
Q 628 -281 628 325 
L 628 4666 
z
" id="DejaVuSans-4a" transform="scale(0.015625)"/>
        <path d="M 544 1381 
L 544 3500 
L 1119 3500 
L 1119 1403 
Q 1119 906 1312 657 
Q 1506 409 1894 409 
Q 2359 409 2629 706 
Q 2900 1003 2900 1516 
L 2900 3500 
L 3475 3500 
L 3475 0 
L 2900 0 
L 2900 538 
Q 2691 219 2414 64 
Q 2138 -91 1772 -91 
Q 1169 -91 856 284 
Q 544 659 544 1381 
z
M 1991 3584 
L 1991 3584 
z
" id="DejaVuSans-75" transform="scale(0.015625)"/>
        <path d="M 603 4863 
L 1178 4863 
L 1178 0 
L 603 0 
L 603 4863 
z
" id="DejaVuSans-6c" transform="scale(0.015625)"/>
       </defs>
       <use xlink:href="#DejaVuSans-4a"/>
       <use x="29.492188" xlink:href="#DejaVuSans-75"/>
       <use x="92.871094" xlink:href="#DejaVuSans-6c"/>
      </g>
     </g>
    </g>
    <g id="xtick_4">
     <g id="line2d_7">
      <path clip-path="url(#p68e2955192)" d="M 329.75188 544.68 
L 329.75188 73.44 
" style="fill:none;stroke:#b0b0b0;stroke-linecap:square;stroke-width:0.8;"/>
     </g>
     <g id="line2d_8">
      <g>
       <use style="stroke:#000000;stroke-width:0.8;" x="329.75188" xlink:href="#m4abed1d830" y="544.68"/>
      </g>
     </g>
     <g id="text_3">
      <!-- Oct -->
      <g transform="translate(321.106567 559.278437)scale(0.1 -0.1)">
       <defs>
        <path d="M 2522 4238 
Q 1834 4238 1429 3725 
Q 1025 3213 1025 2328 
Q 1025 1447 1429 934 
Q 1834 422 2522 422 
Q 3209 422 3611 934 
Q 4013 1447 4013 2328 
Q 4013 3213 3611 3725 
Q 3209 4238 2522 4238 
z
M 2522 4750 
Q 3503 4750 4090 4092 
Q 4678 3434 4678 2328 
Q 4678 1225 4090 567 
Q 3503 -91 2522 -91 
Q 1538 -91 948 565 
Q 359 1222 359 2328 
Q 359 3434 948 4092 
Q 1538 4750 2522 4750 
z
" id="DejaVuSans-4f" transform="scale(0.015625)"/>
        <path d="M 3122 3366 
L 3122 2828 
Q 2878 2963 2633 3030 
Q 2388 3097 2138 3097 
Q 1578 3097 1268 2742 
Q 959 2388 959 1747 
Q 959 1106 1268 751 
Q 1578 397 2138 397 
Q 2388 397 2633 464 
Q 2878 531 3122 666 
L 3122 134 
Q 2881 22 2623 -34 
Q 2366 -91 2075 -91 
Q 1284 -91 818 406 
Q 353 903 353 1747 
Q 353 2603 823 3093 
Q 1294 3584 2113 3584 
Q 2378 3584 2631 3529 
Q 2884 3475 3122 3366 
z
" id="DejaVuSans-63" transform="scale(0.015625)"/>
        <path d="M 1172 4494 
L 1172 3500 
L 2356 3500 
L 2356 3053 
L 1172 3053 
L 1172 1153 
Q 1172 725 1289 603 
Q 1406 481 1766 481 
L 2356 481 
L 2356 0 
L 1766 0 
Q 1100 0 847 248 
Q 594 497 594 1153 
L 594 3053 
L 172 3053 
L 172 3500 
L 594 3500 
L 594 4494 
L 1172 4494 
z
" id="DejaVuSans-74" transform="scale(0.015625)"/>
       </defs>
       <use xlink:href="#DejaVuSans-4f"/>
       <use x="78.710938" xlink:href="#DejaVuSans-63"/>
       <use x="133.691406" xlink:href="#DejaVuSans-74"/>
      </g>
     </g>
    </g>
    <g id="xtick_5">
     <g id="line2d_9">
      <path clip-path="url(#p68e2955192)" d="M 435.897744 544.68 
L 435.897744 73.44 
" style="fill:none;stroke:#b0b0b0;stroke-linecap:square;stroke-width:0.8;"/>
     </g>
     <g id="line2d_10">
      <g>
       <use style="stroke:#000000;stroke-width:0.8;" x="435.897744" xlink:href="#m4abed1d830" y="544.68"/>
      </g>
     </g>
     <g id="text_4">
      <!-- Jan -->
      <g transform="translate(428.189932 559.278437)scale(0.1 -0.1)">
       <defs>
        <path d="M 2194 1759 
Q 1497 1759 1228 1600 
Q 959 1441 959 1056 
Q 959 750 1161 570 
Q 1363 391 1709 391 
Q 2188 391 2477 730 
Q 2766 1069 2766 1631 
L 2766 1759 
L 2194 1759 
z
M 3341 1997 
L 3341 0 
L 2766 0 
L 2766 531 
Q 2569 213 2275 61 
Q 1981 -91 1556 -91 
Q 1019 -91 701 211 
Q 384 513 384 1019 
Q 384 1609 779 1909 
Q 1175 2209 1959 2209 
L 2766 2209 
L 2766 2266 
Q 2766 2663 2505 2880 
Q 2244 3097 1772 3097 
Q 1472 3097 1187 3025 
Q 903 2953 641 2809 
L 641 3341 
Q 956 3463 1253 3523 
Q 1550 3584 1831 3584 
Q 2591 3584 2966 3190 
Q 3341 2797 3341 1997 
z
" id="DejaVuSans-61" transform="scale(0.015625)"/>
        <path d="M 3513 2113 
L 3513 0 
L 2938 0 
L 2938 2094 
Q 2938 2591 2744 2837 
Q 2550 3084 2163 3084 
Q 1697 3084 1428 2787 
Q 1159 2491 1159 1978 
L 1159 0 
L 581 0 
L 581 3500 
L 1159 3500 
L 1159 2956 
Q 1366 3272 1645 3428 
Q 1925 3584 2291 3584 
Q 2894 3584 3203 3211 
Q 3513 2838 3513 2113 
z
" id="DejaVuSans-6e" transform="scale(0.015625)"/>
       </defs>
       <use xlink:href="#DejaVuSans-4a"/>
       <use x="29.492188" xlink:href="#DejaVuSans-61"/>
       <use x="90.771484" xlink:href="#DejaVuSans-6e"/>
      </g>
      <!-- 2021 -->
      <g transform="translate(423.172744 570.47625)scale(0.1 -0.1)">
       <defs>
        <path d="M 1228 531 
L 3431 531 
L 3431 0 
L 469 0 
L 469 531 
Q 828 903 1448 1529 
Q 2069 2156 2228 2338 
Q 2531 2678 2651 2914 
Q 2772 3150 2772 3378 
Q 2772 3750 2511 3984 
Q 2250 4219 1831 4219 
Q 1534 4219 1204 4116 
Q 875 4013 500 3803 
L 500 4441 
Q 881 4594 1212 4672 
Q 1544 4750 1819 4750 
Q 2544 4750 2975 4387 
Q 3406 4025 3406 3419 
Q 3406 3131 3298 2873 
Q 3191 2616 2906 2266 
Q 2828 2175 2409 1742 
Q 1991 1309 1228 531 
z
" id="DejaVuSans-32" transform="scale(0.015625)"/>
        <path d="M 2034 4250 
Q 1547 4250 1301 3770 
Q 1056 3291 1056 2328 
Q 1056 1369 1301 889 
Q 1547 409 2034 409 
Q 2525 409 2770 889 
Q 3016 1369 3016 2328 
Q 3016 3291 2770 3770 
Q 2525 4250 2034 4250 
z
M 2034 4750 
Q 2819 4750 3233 4129 
Q 3647 3509 3647 2328 
Q 3647 1150 3233 529 
Q 2819 -91 2034 -91 
Q 1250 -91 836 529 
Q 422 1150 422 2328 
Q 422 3509 836 4129 
Q 1250 4750 2034 4750 
z
" id="DejaVuSans-30" transform="scale(0.015625)"/>
        <path d="M 794 531 
L 1825 531 
L 1825 4091 
L 703 3866 
L 703 4441 
L 1819 4666 
L 2450 4666 
L 2450 531 
L 3481 531 
L 3481 0 
L 794 0 
L 794 531 
z
" id="DejaVuSans-31" transform="scale(0.015625)"/>
       </defs>
       <use xlink:href="#DejaVuSans-32"/>
       <use x="63.623047" xlink:href="#DejaVuSans-30"/>
       <use x="127.246094" xlink:href="#DejaVuSans-32"/>
       <use x="190.869141" xlink:href="#DejaVuSans-31"/>
      </g>
     </g>
    </g>
    <g id="xtick_6">
     <g id="line2d_11">
      <path clip-path="url(#p68e2955192)" d="M 539.73609 544.68 
L 539.73609 73.44 
" style="fill:none;stroke:#b0b0b0;stroke-linecap:square;stroke-width:0.8;"/>
     </g>
     <g id="line2d_12">
      <g>
       <use style="stroke:#000000;stroke-width:0.8;" x="539.73609" xlink:href="#m4abed1d830" y="544.68"/>
      </g>
     </g>
     <g id="text_5">
      <!-- Apr -->
      <g transform="translate(531.08609 559.278437)scale(0.1 -0.1)">
       <use xlink:href="#DejaVuSans-41"/>
       <use x="68.408203" xlink:href="#DejaVuSans-70"/>
       <use x="131.884766" xlink:href="#DejaVuSans-72"/>
      </g>
     </g>
    </g>
    <g id="xtick_7">
     <g id="line2d_13">
      <path clip-path="url(#p68e2955192)" d="M 644.728195 544.68 
L 644.728195 73.44 
" style="fill:none;stroke:#b0b0b0;stroke-linecap:square;stroke-width:0.8;"/>
     </g>
     <g id="line2d_14">
      <g>
       <use style="stroke:#000000;stroke-width:0.8;" x="644.728195" xlink:href="#m4abed1d830" y="544.68"/>
      </g>
     </g>
     <g id="text_6">
      <!-- Jul -->
      <g transform="translate(638.695383 559.278437)scale(0.1 -0.1)">
       <use xlink:href="#DejaVuSans-4a"/>
       <use x="29.492188" xlink:href="#DejaVuSans-75"/>
       <use x="92.871094" xlink:href="#DejaVuSans-6c"/>
      </g>
     </g>
    </g>
    <g id="xtick_8">
     <g id="line2d_15">
      <path clip-path="url(#p68e2955192)" d="M 712.8 544.68 
L 712.8 73.44 
" style="fill:none;stroke:#b0b0b0;stroke-linecap:square;stroke-width:0.8;"/>
     </g>
     <g id="line2d_16">
      <g>
       <use style="stroke:#000000;stroke-width:0.8;" x="712.8" xlink:href="#m4abed1d830" y="544.68"/>
      </g>
     </g>
    </g>
    <g id="xtick_9">
     <g id="line2d_17">
      <defs>
       <path d="M 0 0 
L 0 2 
" id="mbe9820739d" style="stroke:#000000;stroke-width:0.6;"/>
      </defs>
      <g>
       <use style="stroke:#000000;stroke-width:0.6;" x="153.226692" xlink:href="#mbe9820739d" y="544.68"/>
      </g>
     </g>
    </g>
    <g id="xtick_10">
     <g id="line2d_18">
      <g>
       <use style="stroke:#000000;stroke-width:0.6;" x="188.993233" xlink:href="#mbe9820739d" y="544.68"/>
      </g>
     </g>
    </g>
    <g id="xtick_11">
     <g id="line2d_19">
      <g>
       <use style="stroke:#000000;stroke-width:0.6;" x="259.372556" xlink:href="#mbe9820739d" y="544.68"/>
      </g>
     </g>
    </g>
    <g id="xtick_12">
     <g id="line2d_20">
      <g>
       <use style="stroke:#000000;stroke-width:0.6;" x="295.139098" xlink:href="#mbe9820739d" y="544.68"/>
      </g>
     </g>
    </g>
    <g id="xtick_13">
     <g id="line2d_21">
      <g>
       <use style="stroke:#000000;stroke-width:0.6;" x="365.518421" xlink:href="#mbe9820739d" y="544.68"/>
      </g>
     </g>
    </g>
    <g id="xtick_14">
     <g id="line2d_22">
      <g>
       <use style="stroke:#000000;stroke-width:0.6;" x="400.131203" xlink:href="#mbe9820739d" y="544.68"/>
      </g>
     </g>
    </g>
    <g id="xtick_15">
     <g id="line2d_23">
      <g>
       <use style="stroke:#000000;stroke-width:0.6;" x="471.664286" xlink:href="#mbe9820739d" y="544.68"/>
      </g>
     </g>
    </g>
    <g id="xtick_16">
     <g id="line2d_24">
      <g>
       <use style="stroke:#000000;stroke-width:0.6;" x="503.969549" xlink:href="#mbe9820739d" y="544.68"/>
      </g>
     </g>
    </g>
    <g id="xtick_17">
     <g id="line2d_25">
      <g>
       <use style="stroke:#000000;stroke-width:0.6;" x="574.348872" xlink:href="#mbe9820739d" y="544.68"/>
      </g>
     </g>
    </g>
    <g id="xtick_18">
     <g id="line2d_26">
      <g>
       <use style="stroke:#000000;stroke-width:0.6;" x="610.115414" xlink:href="#mbe9820739d" y="544.68"/>
      </g>
     </g>
    </g>
    <g id="xtick_19">
     <g id="line2d_27">
      <g>
       <use style="stroke:#000000;stroke-width:0.6;" x="680.494737" xlink:href="#mbe9820739d" y="544.68"/>
      </g>
     </g>
    </g>
    <g id="text_7">
     <!-- Date -->
     <g transform="translate(393.949219 584.154375)scale(0.1 -0.1)">
      <defs>
       <path d="M 1259 4147 
L 1259 519 
L 2022 519 
Q 2988 519 3436 956 
Q 3884 1394 3884 2338 
Q 3884 3275 3436 3711 
Q 2988 4147 2022 4147 
L 1259 4147 
z
M 628 4666 
L 1925 4666 
Q 3281 4666 3915 4102 
Q 4550 3538 4550 2338 
Q 4550 1131 3912 565 
Q 3275 0 1925 0 
L 628 0 
L 628 4666 
z
" id="DejaVuSans-44" transform="scale(0.015625)"/>
       <path d="M 3597 1894 
L 3597 1613 
L 953 1613 
Q 991 1019 1311 708 
Q 1631 397 2203 397 
Q 2534 397 2845 478 
Q 3156 559 3463 722 
L 3463 178 
Q 3153 47 2828 -22 
Q 2503 -91 2169 -91 
Q 1331 -91 842 396 
Q 353 884 353 1716 
Q 353 2575 817 3079 
Q 1281 3584 2069 3584 
Q 2775 3584 3186 3129 
Q 3597 2675 3597 1894 
z
M 3022 2063 
Q 3016 2534 2758 2815 
Q 2500 3097 2075 3097 
Q 1594 3097 1305 2825 
Q 1016 2553 972 2059 
L 3022 2063 
z
" id="DejaVuSans-65" transform="scale(0.015625)"/>
      </defs>
      <use xlink:href="#DejaVuSans-44"/>
      <use x="77.001953" xlink:href="#DejaVuSans-61"/>
      <use x="138.28125" xlink:href="#DejaVuSans-74"/>
      <use x="177.490234" xlink:href="#DejaVuSans-65"/>
     </g>
    </g>
   </g>
   <g id="matplotlib.axis_2">
    <g id="ytick_1">
     <g id="line2d_28">
      <path clip-path="url(#p68e2955192)" d="M 99 474.82854 
L 712.8 474.82854 
" style="fill:none;stroke:#b0b0b0;stroke-linecap:square;stroke-width:0.8;"/>
     </g>
     <g id="line2d_29">
      <defs>
       <path d="M 0 0 
L -3.5 0 
" id="me91a084207" style="stroke:#000000;stroke-width:0.8;"/>
      </defs>
      <g>
       <use style="stroke:#000000;stroke-width:0.8;" x="99" xlink:href="#me91a084207" y="474.82854"/>
      </g>
     </g>
     <g id="text_8">
      <!-- $\mathdefault{10^{0}}$ -->
      <g transform="translate(74.4 478.627758)scale(0.1 -0.1)">
       <use transform="translate(0 0.765625)" xlink:href="#DejaVuSans-31"/>
       <use transform="translate(63.623047 0.765625)" xlink:href="#DejaVuSans-30"/>
       <use transform="translate(128.203125 39.046875)scale(0.7)" xlink:href="#DejaVuSans-30"/>
      </g>
     </g>
    </g>
    <g id="ytick_2">
     <g id="line2d_30">
      <path clip-path="url(#p68e2955192)" d="M 99 313.942711 
L 712.8 313.942711 
" style="fill:none;stroke:#b0b0b0;stroke-linecap:square;stroke-width:0.8;"/>
     </g>
     <g id="line2d_31">
      <g>
       <use style="stroke:#000000;stroke-width:0.8;" x="99" xlink:href="#me91a084207" y="313.942711"/>
      </g>
     </g>
     <g id="text_9">
      <!-- $\mathdefault{10^{1}}$ -->
      <g transform="translate(74.4 317.74193)scale(0.1 -0.1)">
       <use transform="translate(0 0.684375)" xlink:href="#DejaVuSans-31"/>
       <use transform="translate(63.623047 0.684375)" xlink:href="#DejaVuSans-30"/>
       <use transform="translate(128.203125 38.965625)scale(0.7)" xlink:href="#DejaVuSans-31"/>
      </g>
     </g>
    </g>
    <g id="ytick_3">
     <g id="line2d_32">
      <path clip-path="url(#p68e2955192)" d="M 99 153.056883 
L 712.8 153.056883 
" style="fill:none;stroke:#b0b0b0;stroke-linecap:square;stroke-width:0.8;"/>
     </g>
     <g id="line2d_33">
      <g>
       <use style="stroke:#000000;stroke-width:0.8;" x="99" xlink:href="#me91a084207" y="153.056883"/>
      </g>
     </g>
     <g id="text_10">
      <!-- $\mathdefault{10^{2}}$ -->
      <g transform="translate(74.4 156.856101)scale(0.1 -0.1)">
       <use transform="translate(0 0.765625)" xlink:href="#DejaVuSans-31"/>
       <use transform="translate(63.623047 0.765625)" xlink:href="#DejaVuSans-30"/>
       <use transform="translate(128.203125 39.046875)scale(0.7)" xlink:href="#DejaVuSans-32"/>
      </g>
     </g>
    </g>
    <g id="ytick_4">
     <g id="line2d_34">
      <path clip-path="url(#p68e2955192)" d="M 99 538.851448 
L 712.8 538.851448 
" style="fill:none;stroke:#b0b0b0;stroke-linecap:square;stroke-width:0.8;"/>
     </g>
     <g id="line2d_35">
      <defs>
       <path d="M 0 0 
L -2 0 
" id="m0cb60b688e" style="stroke:#000000;stroke-width:0.6;"/>
      </defs>
      <g>
       <use style="stroke:#000000;stroke-width:0.6;" x="99" xlink:href="#m0cb60b688e" y="538.851448"/>
      </g>
     </g>
    </g>
    <g id="ytick_5">
     <g id="line2d_36">
      <path clip-path="url(#p68e2955192)" d="M 99 523.26 
L 712.8 523.26 
" style="fill:none;stroke:#b0b0b0;stroke-linecap:square;stroke-width:0.8;"/>
     </g>
     <g id="line2d_37">
      <g>
       <use style="stroke:#000000;stroke-width:0.6;" x="99" xlink:href="#m0cb60b688e" y="523.26"/>
      </g>
     </g>
    </g>
    <g id="ytick_6">
     <g id="line2d_38">
      <path clip-path="url(#p68e2955192)" d="M 99 510.52086 
L 712.8 510.52086 
" style="fill:none;stroke:#b0b0b0;stroke-linecap:square;stroke-width:0.8;"/>
     </g>
     <g id="line2d_39">
      <g>
       <use style="stroke:#000000;stroke-width:0.6;" x="99" xlink:href="#m0cb60b688e" y="510.52086"/>
      </g>
     </g>
    </g>
    <g id="ytick_7">
     <g id="line2d_40">
      <path clip-path="url(#p68e2955192)" d="M 99 499.75007 
L 712.8 499.75007 
" style="fill:none;stroke:#b0b0b0;stroke-linecap:square;stroke-width:0.8;"/>
     </g>
     <g id="line2d_41">
      <g>
       <use style="stroke:#000000;stroke-width:0.6;" x="99" xlink:href="#m0cb60b688e" y="499.75007"/>
      </g>
     </g>
    </g>
    <g id="ytick_8">
     <g id="line2d_42">
      <path clip-path="url(#p68e2955192)" d="M 99 490.419987 
L 712.8 490.419987 
" style="fill:none;stroke:#b0b0b0;stroke-linecap:square;stroke-width:0.8;"/>
     </g>
     <g id="line2d_43">
      <g>
       <use style="stroke:#000000;stroke-width:0.6;" x="99" xlink:href="#m0cb60b688e" y="490.419987"/>
      </g>
     </g>
    </g>
    <g id="ytick_9">
     <g id="line2d_44">
      <path clip-path="url(#p68e2955192)" d="M 99 482.190272 
L 712.8 482.190272 
" style="fill:none;stroke:#b0b0b0;stroke-linecap:square;stroke-width:0.8;"/>
     </g>
     <g id="line2d_45">
      <g>
       <use style="stroke:#000000;stroke-width:0.6;" x="99" xlink:href="#m0cb60b688e" y="482.190272"/>
      </g>
     </g>
    </g>
    <g id="ytick_10">
     <g id="line2d_46">
      <path clip-path="url(#p68e2955192)" d="M 99 426.397079 
L 712.8 426.397079 
" style="fill:none;stroke:#b0b0b0;stroke-linecap:square;stroke-width:0.8;"/>
     </g>
     <g id="line2d_47">
      <g>
       <use style="stroke:#000000;stroke-width:0.6;" x="99" xlink:href="#m0cb60b688e" y="426.397079"/>
      </g>
     </g>
    </g>
    <g id="ytick_11">
     <g id="line2d_48">
      <path clip-path="url(#p68e2955192)" d="M 99 398.066491 
L 712.8 398.066491 
" style="fill:none;stroke:#b0b0b0;stroke-linecap:square;stroke-width:0.8;"/>
     </g>
     <g id="line2d_49">
      <g>
       <use style="stroke:#000000;stroke-width:0.6;" x="99" xlink:href="#m0cb60b688e" y="398.066491"/>
      </g>
     </g>
    </g>
    <g id="ytick_12">
     <g id="line2d_50">
      <path clip-path="url(#p68e2955192)" d="M 99 377.965619 
L 712.8 377.965619 
" style="fill:none;stroke:#b0b0b0;stroke-linecap:square;stroke-width:0.8;"/>
     </g>
     <g id="line2d_51">
      <g>
       <use style="stroke:#000000;stroke-width:0.6;" x="99" xlink:href="#m0cb60b688e" y="377.965619"/>
      </g>
     </g>
    </g>
    <g id="ytick_13">
     <g id="line2d_52">
      <path clip-path="url(#p68e2955192)" d="M 99 362.374171 
L 712.8 362.374171 
" style="fill:none;stroke:#b0b0b0;stroke-linecap:square;stroke-width:0.8;"/>
     </g>
     <g id="line2d_53">
      <g>
       <use style="stroke:#000000;stroke-width:0.6;" x="99" xlink:href="#m0cb60b688e" y="362.374171"/>
      </g>
     </g>
    </g>
    <g id="ytick_14">
     <g id="line2d_54">
      <path clip-path="url(#p68e2955192)" d="M 99 349.635031 
L 712.8 349.635031 
" style="fill:none;stroke:#b0b0b0;stroke-linecap:square;stroke-width:0.8;"/>
     </g>
     <g id="line2d_55">
      <g>
       <use style="stroke:#000000;stroke-width:0.6;" x="99" xlink:href="#m0cb60b688e" y="349.635031"/>
      </g>
     </g>
    </g>
    <g id="ytick_15">
     <g id="line2d_56">
      <path clip-path="url(#p68e2955192)" d="M 99 338.864241 
L 712.8 338.864241 
" style="fill:none;stroke:#b0b0b0;stroke-linecap:square;stroke-width:0.8;"/>
     </g>
     <g id="line2d_57">
      <g>
       <use style="stroke:#000000;stroke-width:0.6;" x="99" xlink:href="#m0cb60b688e" y="338.864241"/>
      </g>
     </g>
    </g>
    <g id="ytick_16">
     <g id="line2d_58">
      <path clip-path="url(#p68e2955192)" d="M 99 329.534159 
L 712.8 329.534159 
" style="fill:none;stroke:#b0b0b0;stroke-linecap:square;stroke-width:0.8;"/>
     </g>
     <g id="line2d_59">
      <g>
       <use style="stroke:#000000;stroke-width:0.6;" x="99" xlink:href="#m0cb60b688e" y="329.534159"/>
      </g>
     </g>
    </g>
    <g id="ytick_17">
     <g id="line2d_60">
      <path clip-path="url(#p68e2955192)" d="M 99 321.304443 
L 712.8 321.304443 
" style="fill:none;stroke:#b0b0b0;stroke-linecap:square;stroke-width:0.8;"/>
     </g>
     <g id="line2d_61">
      <g>
       <use style="stroke:#000000;stroke-width:0.6;" x="99" xlink:href="#m0cb60b688e" y="321.304443"/>
      </g>
     </g>
    </g>
    <g id="ytick_18">
     <g id="line2d_62">
      <path clip-path="url(#p68e2955192)" d="M 99 265.511251 
L 712.8 265.511251 
" style="fill:none;stroke:#b0b0b0;stroke-linecap:square;stroke-width:0.8;"/>
     </g>
     <g id="line2d_63">
      <g>
       <use style="stroke:#000000;stroke-width:0.6;" x="99" xlink:href="#m0cb60b688e" y="265.511251"/>
      </g>
     </g>
    </g>
    <g id="ytick_19">
     <g id="line2d_64">
      <path clip-path="url(#p68e2955192)" d="M 99 237.180663 
L 712.8 237.180663 
" style="fill:none;stroke:#b0b0b0;stroke-linecap:square;stroke-width:0.8;"/>
     </g>
     <g id="line2d_65">
      <g>
       <use style="stroke:#000000;stroke-width:0.6;" x="99" xlink:href="#m0cb60b688e" y="237.180663"/>
      </g>
     </g>
    </g>
    <g id="ytick_20">
     <g id="line2d_66">
      <path clip-path="url(#p68e2955192)" d="M 99 217.079791 
L 712.8 217.079791 
" style="fill:none;stroke:#b0b0b0;stroke-linecap:square;stroke-width:0.8;"/>
     </g>
     <g id="line2d_67">
      <g>
       <use style="stroke:#000000;stroke-width:0.6;" x="99" xlink:href="#m0cb60b688e" y="217.079791"/>
      </g>
     </g>
    </g>
    <g id="ytick_21">
     <g id="line2d_68">
      <path clip-path="url(#p68e2955192)" d="M 99 201.488343 
L 712.8 201.488343 
" style="fill:none;stroke:#b0b0b0;stroke-linecap:square;stroke-width:0.8;"/>
     </g>
     <g id="line2d_69">
      <g>
       <use style="stroke:#000000;stroke-width:0.6;" x="99" xlink:href="#m0cb60b688e" y="201.488343"/>
      </g>
     </g>
    </g>
    <g id="ytick_22">
     <g id="line2d_70">
      <path clip-path="url(#p68e2955192)" d="M 99 188.749203 
L 712.8 188.749203 
" style="fill:none;stroke:#b0b0b0;stroke-linecap:square;stroke-width:0.8;"/>
     </g>
     <g id="line2d_71">
      <g>
       <use style="stroke:#000000;stroke-width:0.6;" x="99" xlink:href="#m0cb60b688e" y="188.749203"/>
      </g>
     </g>
    </g>
    <g id="ytick_23">
     <g id="line2d_72">
      <path clip-path="url(#p68e2955192)" d="M 99 177.978413 
L 712.8 177.978413 
" style="fill:none;stroke:#b0b0b0;stroke-linecap:square;stroke-width:0.8;"/>
     </g>
     <g id="line2d_73">
      <g>
       <use style="stroke:#000000;stroke-width:0.6;" x="99" xlink:href="#m0cb60b688e" y="177.978413"/>
      </g>
     </g>
    </g>
    <g id="ytick_24">
     <g id="line2d_74">
      <path clip-path="url(#p68e2955192)" d="M 99 168.64833 
L 712.8 168.64833 
" style="fill:none;stroke:#b0b0b0;stroke-linecap:square;stroke-width:0.8;"/>
     </g>
     <g id="line2d_75">
      <g>
       <use style="stroke:#000000;stroke-width:0.6;" x="99" xlink:href="#m0cb60b688e" y="168.64833"/>
      </g>
     </g>
    </g>
    <g id="ytick_25">
     <g id="line2d_76">
      <path clip-path="url(#p68e2955192)" d="M 99 160.418614 
L 712.8 160.418614 
" style="fill:none;stroke:#b0b0b0;stroke-linecap:square;stroke-width:0.8;"/>
     </g>
     <g id="line2d_77">
      <g>
       <use style="stroke:#000000;stroke-width:0.6;" x="99" xlink:href="#m0cb60b688e" y="160.418614"/>
      </g>
     </g>
    </g>
    <g id="ytick_26">
     <g id="line2d_78">
      <path clip-path="url(#p68e2955192)" d="M 99 104.625422 
L 712.8 104.625422 
" style="fill:none;stroke:#b0b0b0;stroke-linecap:square;stroke-width:0.8;"/>
     </g>
     <g id="line2d_79">
      <g>
       <use style="stroke:#000000;stroke-width:0.6;" x="99" xlink:href="#m0cb60b688e" y="104.625422"/>
      </g>
     </g>
    </g>
    <g id="ytick_27">
     <g id="line2d_80">
      <path clip-path="url(#p68e2955192)" d="M 99 76.294834 
L 712.8 76.294834 
" style="fill:none;stroke:#b0b0b0;stroke-linecap:square;stroke-width:0.8;"/>
     </g>
     <g id="line2d_81">
      <g>
       <use style="stroke:#000000;stroke-width:0.6;" x="99" xlink:href="#m0cb60b688e" y="76.294834"/>
      </g>
     </g>
    </g>
   </g>
   <g id="line2d_82">
    <path clip-path="url(#p68e2955192)" d="M 113.997332 613 
L 113.998872 398.066491 
L 115.152632 410.805632 
L 116.306391 410.805632 
L 117.46015 387.295702 
L 120.921429 387.295702 
L 122.075188 377.965619 
L 124.382707 377.965619 
L 125.536466 369.735903 
L 126.690226 344.042301 
L 127.843985 344.042301 
L 128.997744 329.534159 
L 130.151504 260.458074 
L 131.305263 226.409873 
L 132.459023 226.409873 
L 133.612782 260.458074 
L 134.766541 232.671238 
L 135.920301 226.409873 
L 137.07406 226.409873 
L 138.22782 232.671238 
L 139.381579 269.095207 
L 140.535338 269.095207 
L 141.689098 232.671238 
L 143.996617 232.671238 
L 145.150376 254.243151 
L 147.457895 334.043583 
L 148.611654 292.973855 
L 149.765414 292.973855 
L 150.919173 334.043583 
L 152.072932 369.735903 
L 153.226692 398.066491 
L 154.380451 410.805632 
L 155.534211 446.497952 
L 156.68797 474.82854 
L 157.841729 474.82854 
L 158.995489 523.26 
L 158.996132 613 
M 190.146349 613 
L 190.146992 523.26 
L 190.147636 613 
M 192.453868 613 
L 192.454511 523.26 
L 194.76203 523.26 
L 194.762674 613 
M 197.068905 613 
L 197.069549 523.26 
L 197.070193 613 
M 202.837702 613 
L 202.838346 523.26 
L 202.83899 613 
M 205.145221 613 
L 205.145865 523.26 
L 205.146508 613 
M 207.45274 613 
L 207.453383 523.26 
L 208.607143 523.26 
L 209.760902 474.82854 
L 214.37594 474.82854 
L 215.529699 446.497952 
L 216.683459 446.497952 
L 217.837218 410.805632 
L 220.144737 410.805632 
L 221.298496 398.066491 
L 222.452256 387.295702 
L 223.606015 369.735903 
L 224.759774 362.374171 
L 225.913534 362.374171 
L 227.067293 387.295702 
L 228.221053 387.295702 
L 229.374812 362.374171 
L 230.528571 362.374171 
L 231.682331 377.965619 
L 232.83609 387.295702 
L 233.98985 398.066491 
L 236.297368 398.066491 
L 237.451128 426.397079 
L 239.758647 426.397079 
L 240.912406 446.497952 
L 242.066165 474.82854 
L 253.603759 474.82854 
L 254.757519 446.497952 
L 255.911278 426.397079 
L 257.065038 410.805632 
L 258.218797 410.805632 
L 259.372556 398.066491 
L 269.756391 398.066491 
L 272.06391 344.042301 
L 273.217669 334.043583 
L 274.371429 325.298206 
L 276.678947 325.298206 
L 278.986466 290.432781 
L 280.140226 287.980886 
L 281.293985 283.321038 
L 282.447744 274.841333 
L 284.755263 274.841333 
L 285.909023 263.785933 
L 287.062782 254.243151 
L 288.216541 245.848448 
L 289.370301 216.211806 
L 290.52406 194.196518 
L 292.831579 194.196518 
L 293.985338 189.923547 
L 297.446617 189.923547 
L 298.600376 192.333159 
L 300.907895 192.333159 
L 302.061654 196.760909 
L 303.215414 196.760909 
L 304.369173 198.74792 
L 305.522932 198.74792 
L 306.676692 202.190578 
L 310.13797 202.190578 
L 311.291729 207.314368 
L 312.445489 207.314368 
L 313.599248 213.670733 
L 314.753008 225.418767 
L 315.906767 236.02573 
L 317.060526 236.02573 
L 318.214286 225.418767 
L 320.521805 225.418767 
L 321.675564 236.02573 
L 325.136842 236.02573 
L 326.290602 240.764619 
L 329.75188 240.764619 
L 332.059398 210.420294 
L 334.366917 210.420294 
L 335.520677 208.850075 
L 336.674436 205.072299 
L 337.828195 193.569861 
L 338.981955 190.518204 
L 340.135714 184.787795 
L 341.289474 184.787795 
L 342.443233 182.621053 
L 343.596992 182.621053 
L 344.750752 181.562369 
L 345.904511 181.038982 
L 347.058271 176.987306 
L 348.21203 181.562369 
L 350.519549 181.562369 
L 351.673308 176.987306 
L 352.827068 169.970865 
L 353.980827 165.239272 
L 355.134586 164.002571 
L 358.595865 164.002571 
L 359.749624 165.656419 
L 360.903383 165.656419 
L 362.057143 166.498258 
L 363.210902 166.923012 
L 365.518421 166.923012 
L 366.67218 168.21299 
L 370.133459 168.21299 
L 371.287218 172.232287 
L 375.902256 172.232287 
L 377.056015 167.780346 
L 378.209774 164.412377 
L 379.363534 166.498258 
L 381.671053 166.498258 
L 382.824812 158.12753 
L 383.978571 166.498258 
L 385.132331 164.824602 
L 386.28609 174.569355 
L 387.43985 176.010062 
L 388.593609 176.010062 
L 389.747368 164.824602 
L 390.901128 176.010062 
L 392.054887 183.696026 
L 393.208647 193.569861 
L 394.362406 197.416988 
L 395.516165 199.423015 
L 397.823684 199.423015 
L 398.977444 206.55899 
L 400.131203 217.079791 
L 401.284962 223.477758 
L 402.438722 224.441522 
L 403.592481 226.409873 
L 404.746241 226.409873 
L 405.9 231.587933 
L 407.053759 239.549426 
L 409.361278 262.102193 
L 410.515038 269.095207 
L 411.668797 265.511251 
L 412.822556 265.511251 
L 413.976316 274.841333 
L 415.130075 274.841333 
L 416.283835 278.952627 
L 417.437594 278.952627 
L 418.591353 283.321038 
L 419.745113 285.612123 
L 422.052632 295.610841 
L 423.206391 298.351263 
L 424.36015 298.351263 
L 425.51391 304.177289 
L 426.667669 304.177289 
L 427.821429 310.533653 
L 428.975188 317.526667 
L 430.128947 338.864241 
L 435.897744 338.864241 
L 437.051504 344.042301 
L 438.205263 355.714675 
L 439.359023 355.714675 
L 440.512782 321.304443 
L 441.666541 313.942711 
L 442.820301 321.304443 
L 443.97406 313.942711 
L 447.435338 313.942711 
L 448.589098 321.304443 
L 449.742857 321.304443 
L 450.896617 313.942711 
L 452.050376 301.203571 
L 454.357895 301.203571 
L 455.511654 317.526667 
L 456.665414 317.526667 
L 457.819173 329.534159 
L 458.972932 317.526667 
L 461.280451 317.526667 
L 462.434211 321.304443 
L 463.58797 338.864241 
L 464.741729 317.526667 
L 465.895489 338.864241 
L 467.049248 355.714675 
L 470.510526 355.714675 
L 471.664286 338.864241 
L 472.818045 355.714675 
L 473.971805 338.864241 
L 475.125564 355.714675 
L 476.279323 355.714675 
L 477.433083 338.864241 
L 484.355639 338.864241 
L 485.509398 344.042301 
L 486.663158 344.042301 
L 487.816917 362.374171 
L 488.970677 362.374171 
L 490.124436 377.965619 
L 491.278195 387.295702 
L 492.431955 387.295702 
L 493.585714 398.066491 
L 498.200752 398.066491 
L 499.354511 410.805632 
L 500.508271 410.805632 
L 501.66203 426.397079 
L 507.430827 426.397079 
L 508.584586 446.497952 
L 509.738346 426.397079 
L 510.892105 446.497952 
L 514.353383 446.497952 
L 515.507143 426.397079 
L 524.737218 426.397079 
L 525.890977 446.497952 
L 528.198496 446.497952 
L 529.352256 426.397079 
L 530.506015 426.397079 
L 531.659774 410.805632 
L 532.813534 426.397079 
L 533.967293 426.397079 
L 535.121053 410.805632 
L 537.428571 410.805632 
L 538.582331 426.397079 
L 540.88985 426.397079 
L 542.043609 410.805632 
L 546.658647 410.805632 
L 547.812406 426.397079 
L 548.966165 410.805632 
L 550.119925 410.805632 
L 551.273684 426.397079 
L 552.427444 426.397079 
L 553.581203 410.805632 
L 554.734962 398.066491 
L 558.196241 398.066491 
L 559.35 387.295702 
L 560.503759 387.295702 
L 561.657519 377.965619 
L 562.811278 369.735903 
L 563.965038 362.374171 
L 569.733835 362.374171 
L 570.887594 355.714675 
L 572.041353 338.864241 
L 573.195113 338.864241 
L 574.348872 329.534159 
L 575.502632 329.534159 
L 576.656391 338.864241 
L 577.81015 329.534159 
L 578.96391 329.534159 
L 580.117669 338.864241 
L 581.271429 338.864241 
L 582.425188 329.534159 
L 583.578947 329.534159 
L 584.732707 334.043583 
L 585.886466 344.042301 
L 587.040226 344.042301 
L 588.193985 355.714675 
L 589.347744 344.042301 
L 591.655263 344.042301 
L 592.809023 321.304443 
L 593.962782 344.042301 
L 596.270301 344.042301 
L 597.42406 338.864241 
L 598.57782 344.042301 
L 599.731579 344.042301 
L 600.885338 349.635031 
L 602.039098 349.635031 
L 603.192857 355.714675 
L 604.346617 349.635031 
L 605.500376 355.714675 
L 606.654135 387.295702 
L 607.807895 387.295702 
L 608.961654 426.397079 
L 615.884211 426.397079 
L 617.03797 387.295702 
L 618.191729 387.295702 
L 619.345489 355.714675 
L 620.499248 355.714675 
L 621.653008 349.635031 
L 628.575564 349.635031 
L 629.729323 355.714675 
L 633.190602 355.714675 
L 634.344361 349.635031 
L 641.266917 349.635031 
L 642.420677 355.714675 
L 643.574436 355.714675 
L 645.881955 344.042301 
L 648.189474 344.042301 
L 649.343233 349.635031 
L 650.496992 349.635031 
L 651.650752 344.042301 
L 652.804511 329.534159 
L 653.958271 334.043583 
L 657.419549 334.043583 
L 658.573308 325.298206 
L 659.727068 334.043583 
L 662.034586 377.965619 
L 666.649624 377.965619 
L 667.803383 398.066491 
L 668.957143 398.066491 
L 670.110902 446.497952 
L 675.879699 446.497952 
L 677.033459 410.805632 
L 678.187218 398.066491 
L 680.494737 398.066491 
L 681.648496 349.635031 
L 682.802256 349.635031 
L 683.956015 334.043583 
L 685.109774 334.043583 
L 686.263534 329.534159 
L 688.571053 329.534159 
L 689.724812 313.942711 
L 690.878571 278.952627 
L 692.032331 258.851754 
L 693.18609 247.17938 
L 694.33985 239.549426 
L 696.647368 239.549426 
L 697.801128 238.355007 
L 698.954887 222.527106 
L 700.108647 216.211806 
L 701.262406 208.850075 
L 702.416165 205.81169 
L 705.877444 205.81169 
L 707.031203 204.34065 
L 708.184962 194.196518 
L 709.338722 175.526518 
L 710.492481 160.418614 
L 712.8 160.418614 
L 712.8 160.418614 
" style="fill:none;stroke:#1f77b4;stroke-linecap:square;stroke-width:1.5;"/>
   </g>
   <g id="line2d_83">
    <path clip-path="url(#p68e2955192)" d="M 300.907251 613 
L 300.907895 523.26 
L 302.061654 523.26 
L 303.215414 474.82854 
L 348.21203 474.82854 
L 349.365789 523.26 
L 356.288346 523.26 
L 356.28899 613 
M 358.595221 613 
L 358.595865 523.26 
L 358.596508 613 
M 360.90274 613 
L 360.903383 523.26 
L 362.057143 474.82854 
L 365.518421 474.82854 
L 366.67218 523.26 
L 367.82594 474.82854 
L 368.979699 474.82854 
L 370.133459 523.26 
L 371.287218 474.82854 
L 372.440977 523.26 
L 374.748496 523.26 
L 375.902256 474.82854 
L 377.056015 523.26 
L 377.056659 613 
M 382.824168 613 
L 382.824812 523.26 
L 383.978571 523.26 
L 383.979215 613 
M 386.285446 613 
L 386.28609 523.26 
L 388.593609 523.26 
L 389.747368 474.82854 
L 390.901128 523.26 
L 392.054887 523.26 
L 393.208647 474.82854 
L 398.977444 474.82854 
L 400.131203 523.26 
L 401.284962 523.26 
L 401.285606 613 
L 401.285606 613 
" style="fill:none;stroke:#ff7f0e;stroke-linecap:square;stroke-width:1.5;"/>
   </g>
   <g id="patch_3">
    <path d="M 99 544.68 
L 99 73.44 
" style="fill:none;stroke:#000000;stroke-linecap:square;stroke-linejoin:miter;stroke-width:0.8;"/>
   </g>
   <g id="patch_4">
    <path d="M 712.8 544.68 
L 712.8 73.44 
" style="fill:none;stroke:#000000;stroke-linecap:square;stroke-linejoin:miter;stroke-width:0.8;"/>
   </g>
   <g id="patch_5">
    <path d="M 99 544.68 
L 712.8 544.68 
" style="fill:none;stroke:#000000;stroke-linecap:square;stroke-linejoin:miter;stroke-width:0.8;"/>
   </g>
   <g id="patch_6">
    <path d="M 99 73.44 
L 712.8 73.44 
" style="fill:none;stroke:#000000;stroke-linecap:square;stroke-linejoin:miter;stroke-width:0.8;"/>
   </g>
   <g id="legend_1">
    <g id="patch_7">
     <path d="M 616.653125 110.79625 
L 705.8 110.79625 
Q 707.8 110.79625 707.8 108.79625 
L 707.8 80.44 
Q 707.8 78.44 705.8 78.44 
L 616.653125 78.44 
Q 614.653125 78.44 614.653125 80.44 
L 614.653125 108.79625 
Q 614.653125 110.79625 616.653125 110.79625 
z
" style="fill:#ffffff;opacity:0.8;stroke:#cccccc;stroke-linejoin:miter;"/>
    </g>
    <g id="line2d_84">
     <path d="M 618.653125 86.538437 
L 638.653125 86.538437 
" style="fill:none;stroke:#1f77b4;stroke-linecap:square;stroke-width:1.5;"/>
    </g>
    <g id="line2d_85"/>
    <g id="text_11">
     <!-- Avg Cases -->
     <g transform="translate(646.653125 90.038437)scale(0.1 -0.1)">
      <defs>
       <path d="M 191 3500 
L 800 3500 
L 1894 563 
L 2988 3500 
L 3597 3500 
L 2284 0 
L 1503 0 
L 191 3500 
z
" id="DejaVuSans-76" transform="scale(0.015625)"/>
       <path d="M 2906 1791 
Q 2906 2416 2648 2759 
Q 2391 3103 1925 3103 
Q 1463 3103 1205 2759 
Q 947 2416 947 1791 
Q 947 1169 1205 825 
Q 1463 481 1925 481 
Q 2391 481 2648 825 
Q 2906 1169 2906 1791 
z
M 3481 434 
Q 3481 -459 3084 -895 
Q 2688 -1331 1869 -1331 
Q 1566 -1331 1297 -1286 
Q 1028 -1241 775 -1147 
L 775 -588 
Q 1028 -725 1275 -790 
Q 1522 -856 1778 -856 
Q 2344 -856 2625 -561 
Q 2906 -266 2906 331 
L 2906 616 
Q 2728 306 2450 153 
Q 2172 0 1784 0 
Q 1141 0 747 490 
Q 353 981 353 1791 
Q 353 2603 747 3093 
Q 1141 3584 1784 3584 
Q 2172 3584 2450 3431 
Q 2728 3278 2906 2969 
L 2906 3500 
L 3481 3500 
L 3481 434 
z
" id="DejaVuSans-67" transform="scale(0.015625)"/>
       <path id="DejaVuSans-20" transform="scale(0.015625)"/>
       <path d="M 4122 4306 
L 4122 3641 
Q 3803 3938 3442 4084 
Q 3081 4231 2675 4231 
Q 1875 4231 1450 3742 
Q 1025 3253 1025 2328 
Q 1025 1406 1450 917 
Q 1875 428 2675 428 
Q 3081 428 3442 575 
Q 3803 722 4122 1019 
L 4122 359 
Q 3791 134 3420 21 
Q 3050 -91 2638 -91 
Q 1578 -91 968 557 
Q 359 1206 359 2328 
Q 359 3453 968 4101 
Q 1578 4750 2638 4750 
Q 3056 4750 3426 4639 
Q 3797 4528 4122 4306 
z
" id="DejaVuSans-43" transform="scale(0.015625)"/>
       <path d="M 2834 3397 
L 2834 2853 
Q 2591 2978 2328 3040 
Q 2066 3103 1784 3103 
Q 1356 3103 1142 2972 
Q 928 2841 928 2578 
Q 928 2378 1081 2264 
Q 1234 2150 1697 2047 
L 1894 2003 
Q 2506 1872 2764 1633 
Q 3022 1394 3022 966 
Q 3022 478 2636 193 
Q 2250 -91 1575 -91 
Q 1294 -91 989 -36 
Q 684 19 347 128 
L 347 722 
Q 666 556 975 473 
Q 1284 391 1588 391 
Q 1994 391 2212 530 
Q 2431 669 2431 922 
Q 2431 1156 2273 1281 
Q 2116 1406 1581 1522 
L 1381 1569 
Q 847 1681 609 1914 
Q 372 2147 372 2553 
Q 372 3047 722 3315 
Q 1072 3584 1716 3584 
Q 2034 3584 2315 3537 
Q 2597 3491 2834 3397 
z
" id="DejaVuSans-73" transform="scale(0.015625)"/>
      </defs>
      <use xlink:href="#DejaVuSans-41"/>
      <use x="62.533203" xlink:href="#DejaVuSans-76"/>
      <use x="121.712891" xlink:href="#DejaVuSans-67"/>
      <use x="185.189453" xlink:href="#DejaVuSans-20"/>
      <use x="216.976562" xlink:href="#DejaVuSans-43"/>
      <use x="286.800781" xlink:href="#DejaVuSans-61"/>
      <use x="348.080078" xlink:href="#DejaVuSans-73"/>
      <use x="400.179688" xlink:href="#DejaVuSans-65"/>
      <use x="461.703125" xlink:href="#DejaVuSans-73"/>
     </g>
    </g>
    <g id="line2d_86">
     <path d="M 618.653125 101.216562 
L 638.653125 101.216562 
" style="fill:none;stroke:#ff7f0e;stroke-linecap:square;stroke-width:1.5;"/>
    </g>
    <g id="line2d_87"/>
    <g id="text_12">
     <!-- Avg Deaths -->
     <g transform="translate(646.653125 104.716562)scale(0.1 -0.1)">
      <defs>
       <path d="M 3513 2113 
L 3513 0 
L 2938 0 
L 2938 2094 
Q 2938 2591 2744 2837 
Q 2550 3084 2163 3084 
Q 1697 3084 1428 2787 
Q 1159 2491 1159 1978 
L 1159 0 
L 581 0 
L 581 4863 
L 1159 4863 
L 1159 2956 
Q 1366 3272 1645 3428 
Q 1925 3584 2291 3584 
Q 2894 3584 3203 3211 
Q 3513 2838 3513 2113 
z
" id="DejaVuSans-68" transform="scale(0.015625)"/>
      </defs>
      <use xlink:href="#DejaVuSans-41"/>
      <use x="62.533203" xlink:href="#DejaVuSans-76"/>
      <use x="121.712891" xlink:href="#DejaVuSans-67"/>
      <use x="185.189453" xlink:href="#DejaVuSans-20"/>
      <use x="216.976562" xlink:href="#DejaVuSans-44"/>
      <use x="293.978516" xlink:href="#DejaVuSans-65"/>
      <use x="355.501953" xlink:href="#DejaVuSans-61"/>
      <use x="416.78125" xlink:href="#DejaVuSans-74"/>
      <use x="455.990234" xlink:href="#DejaVuSans-68"/>
      <use x="519.369141" xlink:href="#DejaVuSans-73"/>
     </g>
    </g>
   </g>
  </g>
 </g>
 <defs>
  <clipPath id="p68e2955192">
   <rect height="471.24" width="613.8" x="99" y="73.44"/>
  </clipPath>
 </defs>
</svg>
