<?xml version="1.0" encoding="utf-8" standalone="no"?>
<!DOCTYPE svg PUBLIC "-//W3C//DTD SVG 1.1//EN"
  "http://www.w3.org/Graphics/SVG/1.1/DTD/svg11.dtd">
<svg height="612pt" version="1.1" viewBox="0 0 792 612" width="792pt" xmlns="http://www.w3.org/2000/svg" xmlns:xlink="http://www.w3.org/1999/xlink">
 <metadata>
  <rdf:RDF xmlns:cc="http://creativecommons.org/ns#" xmlns:dc="http://purl.org/dc/elements/1.1/" xmlns:rdf="http://www.w3.org/1999/02/22-rdf-syntax-ns#">
   <cc:Work>
    <dc:type rdf:resource="http://purl.org/dc/dcmitype/StillImage"/>
    <dc:format>image/svg+xml</dc:format>
    <dc:creator>
     <cc:Agent>
      <dc:title>Matplotlib v3.4.2, https://matplotlib.org/</dc:title>
     </cc:Agent>
    </dc:creator>
   </cc:Work>
  </rdf:RDF>
 </metadata>
 <defs>
  <style type="text/css">*{stroke-linecap:butt;stroke-linejoin:round;}</style>
 </defs>
 <g id="figure_1">
  <g id="patch_1">
   <path d="M 0 612 
L 792 612 
L 792 0 
L 0 0 
z
" style="fill:#ffffff;"/>
  </g>
  <g id="axes_1">
   <g id="patch_2">
    <path d="M 99 544.68 
L 712.8 544.68 
L 712.8 73.44 
L 99 73.44 
z
" style="fill:#ffffff;"/>
   </g>
   <g id="PolyCollection_1">
    <path clip-path="url(#p68e2955192)" d="M 99 161360.657098 
L 99 161360.657098 
L 100.189535 161360.657098 
L 101.37907 161360.657098 
L 102.568605 161360.657098 
L 103.75814 161360.657098 
L 104.947674 161360.657098 
L 106.137209 161360.657098 
L 107.326744 161360.657098 
L 108.516279 161360.657098 
L 109.705814 161360.657098 
L 110.895349 161360.657098 
L 112.084884 161360.657098 
L 113.274419 161360.657098 
L 114.463953 314.644947 
L 115.653488 314.644947 
L 116.843023 314.644947 
L 118.032558 283.321038 
L 119.222093 283.321038 
L 120.411628 283.321038 
L 121.601163 283.321038 
L 122.790698 196.891633 
L 123.980233 187.708908 
L 125.169767 187.708908 
L 126.359302 187.708908 
L 127.548837 172.232287 
L 128.738372 142.206285 
L 129.927907 142.206285 
L 131.117442 137.857817 
L 132.306977 137.857817 
L 133.496512 137.857817 
L 134.686047 137.857817 
L 135.875581 137.857817 
L 137.065116 137.857817 
L 138.254651 137.857817 
L 139.444186 137.857817 
L 140.633721 137.857817 
L 141.823256 137.857817 
L 143.012791 137.857817 
L 144.202326 160.031512 
L 145.39186 182.834729 
L 146.581395 182.834729 
L 147.77093 196.63043 
L 148.960465 196.63043 
L 150.15 182.834729 
L 151.339535 182.834729 
L 152.52907 182.834729 
L 153.718605 182.834729 
L 154.90814 182.834729 
L 156.097674 182.834729 
L 157.287209 182.834729 
L 158.476744 182.834729 
L 159.666279 182.834729 
L 160.855814 197.416988 
L 162.045349 294.544074 
L 163.234884 426.397079 
L 164.424419 426.397079 
L 165.613953 426.397079 
L 166.803488 437.752574 
L 167.993023 437.752574 
L 169.182558 437.752574 
L 170.372093 437.752574 
L 171.561628 426.397079 
L 172.751163 437.752574 
L 173.940698 437.752574 
L 175.130233 437.752574 
L 176.319767 437.752574 
L 177.509302 426.397079 
L 178.698837 426.397079 
L 179.888372 437.752574 
L 181.077907 437.752574 
L 182.267442 437.752574 
L 183.456977 437.752574 
L 184.646512 389.321114 
L 185.836047 389.321114 
L 187.025581 389.321114 
L 188.215116 395.775406 
L 189.404651 395.775406 
L 190.594186 383.412935 
L 191.783721 383.412935 
L 192.973256 383.412935 
L 194.162791 405.428223 
L 195.352326 405.428223 
L 196.54186 405.428223 
L 197.731395 405.428223 
L 198.92093 405.428223 
L 200.110465 405.428223 
L 201.3 426.397079 
L 202.489535 426.397079 
L 203.67907 405.428223 
L 204.868605 405.428223 
L 206.05814 405.428223 
L 207.247674 426.397079 
L 208.437209 426.397079 
L 209.626744 437.752574 
L 210.816279 426.397079 
L 212.005814 405.428223 
L 213.195349 371.306123 
L 214.384884 345.125607 
L 215.574419 345.125607 
L 216.763953 345.125607 
L 217.953488 345.125607 
L 219.143023 341.924811 
L 220.332558 301.788276 
L 221.522093 301.788276 
L 222.711628 301.788276 
L 223.901163 301.788276 
L 225.090698 301.788276 
L 226.280233 301.788276 
L 227.469767 293.49335 
L 228.659302 293.49335 
L 229.848837 293.49335 
L 231.038372 306.650886 
L 232.227907 306.650886 
L 233.417442 297.242164 
L 234.606977 297.242164 
L 235.796512 297.242164 
L 236.986047 306.650886 
L 238.175581 306.650886 
L 239.365116 306.650886 
L 240.554651 306.650886 
L 241.744186 306.650886 
L 242.933721 306.650886 
L 244.123256 328.666175 
L 245.312791 356.996763 
L 246.502326 389.321114 
L 247.69186 389.321114 
L 248.881395 389.321114 
L 250.07093 389.321114 
L 251.260465 377.965619 
L 252.45 383.412935 
L 253.639535 383.412935 
L 254.82907 366.697519 
L 256.018605 366.697519 
L 257.20814 366.697519 
L 258.397674 337.873135 
L 259.587209 337.873135 
L 260.776744 337.873135 
L 261.966279 337.873135 
L 263.155814 337.873135 
L 264.345349 337.873135 
L 265.534884 337.873135 
L 266.724419 323.673206 
L 267.913953 326.125101 
L 269.103488 321.304443 
L 270.293023 321.304443 
L 271.482558 298.351263 
L 272.672093 298.351263 
L 273.861628 298.351263 
L 275.051163 298.351263 
L 276.240698 290.432781 
L 277.430233 287.023723 
L 278.619767 282.425233 
L 279.809302 257.905395 
L 280.998837 257.905395 
L 282.188372 257.905395 
L 283.377907 244.284088 
L 284.567442 244.284088 
L 285.756977 244.284088 
L 286.946512 204.925355 
L 288.136047 187.708908 
L 289.325581 187.708908 
L 290.515116 187.708908 
L 291.704651 158.579776 
L 292.894186 155.47385 
L 294.083721 136.521582 
L 295.273256 135.372978 
L 296.462791 135.372978 
L 297.652326 135.372978 
L 298.84186 135.372978 
L 300.031395 135.372978 
L 301.22093 135.372978 
L 302.410465 135.372978 
L 303.6 135.372978 
L 304.789535 135.372978 
L 305.97907 135.372978 
L 307.168605 135.372978 
L 308.35814 145.891066 
L 309.547674 145.891066 
L 310.737209 150.450958 
L 311.926744 158.731178 
L 313.116279 158.731178 
L 314.305814 158.731178 
L 315.495349 158.731178 
L 316.684884 167.436149 
L 317.874419 167.436149 
L 319.063953 167.436149 
L 320.253488 167.953083 
L 321.443023 167.953083 
L 322.632558 167.953083 
L 323.822093 167.953083 
L 325.011628 165.656419 
L 326.201163 177.679602 
L 327.390698 177.679602 
L 328.580233 190.042074 
L 329.769767 190.042074 
L 330.959302 190.042074 
L 332.148837 190.042074 
L 333.338372 206.709414 
L 334.527907 182.941812 
L 335.717442 183.587781 
L 336.906977 178.278507 
L 338.096512 176.790761 
L 339.286047 169.262399 
L 340.475581 169.262399 
L 341.665116 140.434292 
L 342.854651 140.434292 
L 344.044186 140.434292 
L 345.233721 140.434292 
L 346.423256 140.434292 
L 347.612791 140.434292 
L 348.802326 140.434292 
L 349.99186 138.706129 
L 351.181395 156.788092 
L 352.37093 156.788092 
L 353.560465 156.788092 
L 354.75 148.656718 
L 355.939535 148.656718 
L 357.12907 148.656718 
L 358.318605 148.656718 
L 359.50814 137.857817 
L 360.697674 137.857817 
L 361.887209 137.857817 
L 363.076744 137.857817 
L 364.266279 137.857817 
L 365.455814 137.857817 
L 366.645349 136.356335 
L 367.834884 136.356335 
L 369.024419 136.356335 
L 370.213953 136.356335 
L 371.403488 136.356335 
L 372.593023 136.356335 
L 373.782558 136.356335 
L 374.972093 146.143768 
L 376.161628 146.588206 
L 377.351163 146.017303 
L 378.540698 144.147294 
L 379.730233 144.147294 
L 380.919767 144.147294 
L 382.109302 144.147294 
L 383.298837 144.147294 
L 384.488372 119.176576 
L 385.677907 119.176576 
L 386.867442 119.176576 
L 388.056977 119.176576 
L 389.246512 119.176576 
L 390.436047 119.176576 
L 391.625581 94.86 
L 392.815116 94.86 
L 394.004651 94.86 
L 395.194186 94.86 
L 396.383721 94.86 
L 397.573256 94.86 
L 398.762791 94.86 
L 399.952326 120.085983 
L 401.14186 147.228062 
L 402.331395 148.003706 
L 403.52093 148.003706 
L 404.710465 148.003706 
L 405.9 148.003706 
L 407.089535 148.003706 
L 408.27907 161.277865 
L 409.468605 161.277865 
L 410.65814 183.26405 
L 411.847674 197.416988 
L 413.037209 197.416988 
L 414.226744 197.416988 
L 415.416279 198.61368 
L 416.605814 204.486368 
L 417.795349 215.014463 
L 418.984884 223.095944 
L 420.174419 225.615866 
L 421.363953 225.615866 
L 422.553488 225.615866 
L 423.743023 230.309754 
L 424.932558 234.889578 
L 426.122093 237.648035 
L 427.311628 244.542395 
L 428.501163 244.542395 
L 429.690698 244.542395 
L 430.880233 244.542395 
L 432.069767 251.046793 
L 433.259302 251.046793 
L 434.448837 251.046793 
L 435.638372 251.046793 
L 436.827907 237.648035 
L 438.017442 243.514849 
L 439.206977 243.514849 
L 440.396512 243.514849 
L 441.586047 273.653682 
L 442.775581 273.653682 
L 443.965116 285.612123 
L 445.154651 289.935471 
L 446.344186 289.935471 
L 447.533721 289.935471 
L 448.723256 289.935471 
L 449.912791 279.377381 
L 451.102326 279.377381 
L 452.29186 266.213486 
L 453.481395 279.377381 
L 454.67093 279.377381 
L 455.860465 279.377381 
L 457.05 279.377381 
L 458.239535 279.377381 
L 459.42907 279.377381 
L 460.618605 279.377381 
L 461.80814 279.377381 
L 462.997674 276.866746 
L 464.187209 276.866746 
L 465.376744 276.866746 
L 466.566279 279.377381 
L 467.755814 266.213486 
L 468.945349 279.377381 
L 470.134884 279.377381 
L 471.324419 271.337276 
L 472.513953 271.337276 
L 473.703488 271.337276 
L 474.893023 271.337276 
L 476.082558 271.337276 
L 477.272093 271.337276 
L 478.461628 271.337276 
L 479.651163 276.049522 
L 480.840698 276.049522 
L 482.030233 276.049522 
L 483.219767 264.127605 
L 484.409302 276.049522 
L 485.598837 276.049522 
L 486.788372 277.27897 
L 487.977907 293.49335 
L 489.167442 293.49335 
L 490.356977 293.49335 
L 491.546512 287.023723 
L 492.736047 287.023723 
L 493.925581 287.023723 
L 495.115116 287.023723 
L 496.304651 287.023723 
L 497.494186 287.023723 
L 498.683721 287.023723 
L 499.873256 296.694146 
L 501.062791 296.694146 
L 502.252326 296.694146 
L 503.44186 296.694146 
L 504.631395 313.942711 
L 505.82093 313.942711 
L 507.010465 313.942711 
L 508.2 316.070952 
L 509.389535 320.532371 
L 510.57907 348.480099 
L 511.768605 348.480099 
L 512.95814 348.480099 
L 514.147674 348.480099 
L 515.337209 348.480099 
L 516.526744 348.480099 
L 517.716279 345.125607 
L 518.905814 345.125607 
L 520.095349 345.125607 
L 521.284884 366.697519 
L 522.474419 366.697519 
L 523.663953 366.697519 
L 524.853488 383.412935 
L 526.043023 383.412935 
L 527.232558 377.965619 
L 528.422093 377.965619 
L 529.611628 366.697519 
L 530.801163 366.697519 
L 531.990698 366.697519 
L 533.180233 362.374171 
L 534.369767 366.697519 
L 535.559302 366.697519 
L 536.748837 366.697519 
L 537.938372 366.697519 
L 539.127907 366.697519 
L 540.317442 366.697519 
L 541.506977 366.697519 
L 542.696512 366.697519 
L 543.886047 366.697519 
L 545.075581 362.374171 
L 546.265116 366.697519 
L 547.454651 366.697519 
L 548.644186 366.697519 
L 549.833721 377.965619 
L 551.023256 377.965619 
L 552.212791 377.965619 
L 553.402326 377.965619 
L 554.59186 377.965619 
L 555.781395 377.965619 
L 556.97093 377.965619 
L 558.160465 366.697519 
L 559.35 366.697519 
L 560.539535 366.697519 
L 561.72907 377.965619 
L 562.918605 377.965619 
L 564.10814 377.965619 
L 565.297674 377.965619 
L 566.487209 366.697519 
L 567.676744 362.374171 
L 568.866279 362.374171 
L 570.055814 362.374171 
L 571.245349 362.374171 
L 572.434884 353.218987 
L 573.624419 353.218987 
L 574.813953 353.218987 
L 576.003488 353.218987 
L 577.193023 322.874662 
L 578.382558 304.787527 
L 579.572093 304.787527 
L 580.761628 304.787527 
L 581.951163 304.787527 
L 583.140698 304.787527 
L 584.330233 297.242164 
L 585.519767 297.242164 
L 586.709302 297.242164 
L 587.898837 297.242164 
L 589.088372 297.242164 
L 590.277907 297.242164 
L 591.467442 297.242164 
L 592.656977 285.147857 
L 593.846512 286.550014 
L 595.036047 286.550014 
L 596.225581 286.550014 
L 597.415116 286.550014 
L 598.604651 286.550014 
L 599.794186 286.550014 
L 600.983721 301.203571 
L 602.173256 283.321038 
L 603.362791 283.321038 
L 604.552326 278.110787 
L 605.74186 278.110787 
L 606.931395 278.110787 
L 608.12093 278.110787 
L 609.310465 286.550014 
L 610.5 286.550014 
L 611.689535 286.550014 
L 612.87907 286.550014 
L 614.068605 286.550014 
L 615.25814 286.550014 
L 616.447674 286.550014 
L 617.637209 286.550014 
L 618.826744 302.972572 
L 620.016279 302.972572 
L 621.205814 307.283215 
L 622.395349 311.202288 
L 623.584884 311.202288 
L 624.774419 326.125101 
L 625.963953 311.202288 
L 627.153488 295.075422 
L 628.343023 295.075422 
L 629.532558 295.075422 
L 630.722093 295.075422 
L 631.911628 295.075422 
L 633.101163 295.075422 
L 634.290698 295.075422 
L 635.480233 295.075422 
L 636.669767 295.075422 
L 637.859302 295.075422 
L 639.048837 295.075422 
L 640.238372 295.075422 
L 641.427907 295.075422 
L 642.617442 311.202288 
L 643.806977 316.070952 
L 644.996512 316.070952 
L 646.186047 323.673206 
L 647.375581 323.673206 
L 648.565116 323.673206 
L 649.754651 316.070952 
L 650.944186 286.079495 
L 652.133721 286.079495 
L 653.323256 286.079495 
L 654.512791 283.321038 
L 655.702326 283.321038 
L 656.89186 283.321038 
L 658.081395 278.110787 
L 659.27093 278.110787 
L 660.460465 278.110787 
L 661.65 278.110787 
L 662.839535 278.110787 
L 664.02907 278.110787 
L 665.218605 278.110787 
L 666.40814 286.550014 
L 667.597674 286.550014 
L 668.787209 283.773285 
L 669.976744 282.425233 
L 671.166279 282.425233 
L 672.355814 282.425233 
L 673.545349 282.425233 
L 674.734884 268.363558 
L 675.924419 268.363558 
L 677.113953 268.363558 
L 678.303488 268.363558 
L 679.493023 268.363558 
L 680.682558 268.363558 
L 681.872093 268.363558 
L 683.061628 268.363558 
L 684.251163 287.023723 
L 685.440698 288.46443 
L 686.630233 291.946309 
L 687.819767 291.946309 
L 689.009302 291.946309 
L 690.198837 291.946309 
L 691.388372 304.177289 
L 692.577907 329.534159 
L 693.767442 329.534159 
L 694.956977 329.534159 
L 696.146512 308.565303 
L 697.336047 308.565303 
L 698.525581 308.565303 
L 699.715116 293.49335 
L 700.904651 264.470956 
L 702.094186 244.026733 
L 703.283721 239.549426 
L 704.473256 239.549426 
L 705.662791 239.549426 
L 706.852326 239.549426 
L 708.04186 237.882898 
L 709.231395 217.430026 
L 710.42093 206.109652 
L 711.610465 204.34065 
L 712.8 204.34065 
L 712.8 269.463925 
L 712.8 269.463925 
L 711.610465 308.565303 
L 710.42093 346.225973 
L 709.231395 346.225973 
L 708.04186 346.225973 
L 706.852326 369.735903 
L 705.662791 369.735903 
L 704.473256 369.735903 
L 703.283721 482.190272 
L 702.094186 482.190272 
L 700.904651 161360.657098 
L 699.715116 161360.657098 
L 698.525581 161360.657098 
L 697.336047 161360.657098 
L 696.146512 161360.657098 
L 694.956977 161360.657098 
L 693.767442 161360.657098 
L 692.577907 161360.657098 
L 691.388372 161360.657098 
L 690.198837 161360.657098 
L 689.009302 161360.657098 
L 687.819767 161360.657098 
L 686.630233 161360.657098 
L 685.440698 161360.657098 
L 684.251163 482.190272 
L 683.061628 482.190272 
L 681.872093 161360.657098 
L 680.682558 161360.657098 
L 679.493023 161360.657098 
L 678.303488 161360.657098 
L 677.113953 161360.657098 
L 675.924419 161360.657098 
L 674.734884 161360.657098 
L 673.545349 161360.657098 
L 672.355814 161360.657098 
L 671.166279 161360.657098 
L 669.976744 161360.657098 
L 668.787209 161360.657098 
L 667.597674 161360.657098 
L 666.40814 161360.657098 
L 665.218605 385.327351 
L 664.02907 385.327351 
L 662.839535 385.327351 
L 661.65 482.190272 
L 660.460465 482.190272 
L 659.27093 482.190272 
L 658.081395 482.190272 
L 656.89186 482.190272 
L 655.702326 482.190272 
L 654.512791 482.190272 
L 653.323256 482.190272 
L 652.133721 482.190272 
L 650.944186 482.190272 
L 649.754651 482.190272 
L 648.565116 482.190272 
L 647.375581 482.190272 
L 646.186047 482.190272 
L 644.996512 369.735903 
L 643.806977 369.735903 
L 642.617442 369.735903 
L 641.427907 369.735903 
L 640.238372 161360.657098 
L 639.048837 161360.657098 
L 637.859302 161360.657098 
L 636.669767 161360.657098 
L 635.480233 161360.657098 
L 634.290698 161360.657098 
L 633.101163 161360.657098 
L 631.911628 161360.657098 
L 630.722093 433.758811 
L 629.532558 429.981036 
L 628.343023 429.981036 
L 627.153488 429.981036 
L 625.963953 429.981036 
L 624.774419 429.981036 
L 623.584884 426.397079 
L 622.395349 426.397079 
L 621.205814 426.397079 
L 620.016279 426.397079 
L 618.826744 426.397079 
L 617.637209 426.397079 
L 616.447674 426.397079 
L 615.25814 426.397079 
L 614.068605 426.397079 
L 612.87907 354.455689 
L 611.689535 400.435255 
L 610.5 400.435255 
L 609.310465 400.435255 
L 608.12093 400.435255 
L 606.931395 400.435255 
L 605.74186 400.435255 
L 604.552326 400.435255 
L 603.362791 400.435255 
L 602.173256 379.734621 
L 600.983721 379.734621 
L 599.794186 363.785772 
L 598.604651 363.785772 
L 597.415116 363.785772 
L 596.225581 377.965619 
L 595.036047 377.965619 
L 593.846512 363.785772 
L 592.656977 363.785772 
L 591.467442 363.785772 
L 590.277907 363.785772 
L 589.088372 363.785772 
L 587.898837 363.785772 
L 586.709302 377.965619 
L 585.519767 377.965619 
L 584.330233 377.965619 
L 583.140698 377.965619 
L 581.951163 377.965619 
L 580.761628 379.734621 
L 579.572093 379.734621 
L 578.382558 379.734621 
L 577.193023 398.066491 
L 576.003488 398.066491 
L 574.813953 400.435255 
L 573.624419 400.435255 
L 572.434884 426.397079 
L 571.245349 426.397079 
L 570.055814 426.397079 
L 568.866279 426.397079 
L 567.676744 426.397079 
L 566.487209 426.397079 
L 565.297674 426.397079 
L 564.10814 426.397079 
L 562.918605 426.397079 
L 561.72907 426.397079 
L 560.539535 426.397079 
L 559.35 426.397079 
L 558.160465 426.397079 
L 556.97093 426.397079 
L 555.781395 426.397079 
L 554.59186 429.981036 
L 553.402326 474.82854 
L 552.212791 474.82854 
L 551.023256 474.82854 
L 549.833721 482.190272 
L 548.644186 482.190272 
L 547.454651 161360.657098 
L 546.265116 161360.657098 
L 545.075581 161360.657098 
L 543.886047 161360.657098 
L 542.696512 161360.657098 
L 541.506977 161360.657098 
L 540.317442 161360.657098 
L 539.127907 161360.657098 
L 537.938372 482.190272 
L 536.748837 482.190272 
L 535.559302 482.190272 
L 534.369767 482.190272 
L 533.180233 474.82854 
L 531.990698 474.82854 
L 530.801163 474.82854 
L 529.611628 474.82854 
L 528.422093 474.82854 
L 527.232558 474.82854 
L 526.043023 474.82854 
L 524.853488 474.82854 
L 523.663953 474.82854 
L 522.474419 474.82854 
L 521.284884 474.82854 
L 520.095349 474.82854 
L 518.905814 474.82854 
L 517.716279 474.82854 
L 516.526744 474.82854 
L 515.337209 474.82854 
L 514.147674 429.981036 
L 512.95814 426.397079 
L 511.768605 426.397079 
L 510.57907 426.397079 
L 509.389535 426.397079 
L 508.2 400.435255 
L 507.010465 400.435255 
L 505.82093 400.435255 
L 504.631395 398.066491 
L 503.44186 398.066491 
L 502.252326 398.066491 
L 501.062791 398.066491 
L 499.873256 398.066491 
L 498.683721 398.066491 
L 497.494186 398.066491 
L 496.304651 379.734621 
L 495.115116 352.003794 
L 493.925581 352.003794 
L 492.736047 377.965619 
L 491.546512 377.965619 
L 490.356977 377.965619 
L 489.167442 381.549575 
L 487.977907 426.397079 
L 486.788372 426.397079 
L 485.598837 426.397079 
L 484.409302 429.981036 
L 483.219767 429.981036 
L 482.030233 474.82854 
L 480.840698 429.981036 
L 479.651163 429.981036 
L 478.461628 429.981036 
L 477.272093 429.981036 
L 476.082558 402.887149 
L 474.893023 402.887149 
L 473.703488 402.887149 
L 472.513953 353.218987 
L 471.324419 350.809375 
L 470.134884 350.809375 
L 468.945349 350.809375 
L 467.755814 339.869609 
L 466.566279 339.869609 
L 465.376744 330.413061 
L 464.187209 330.413061 
L 462.997674 331.30316 
L 461.80814 331.30316 
L 460.618605 331.30316 
L 459.42907 331.30316 
L 458.239535 329.534159 
L 457.05 329.534159 
L 455.860465 332.204745 
L 454.67093 335.932126 
L 453.481395 429.981036 
L 452.29186 429.981036 
L 451.102326 474.82854 
L 449.912791 474.82854 
L 448.723256 474.82854 
L 447.533721 474.82854 
L 446.344186 429.981036 
L 445.154651 429.981036 
L 443.965116 429.981036 
L 442.775581 429.981036 
L 441.586047 429.981036 
L 440.396512 429.981036 
L 439.206977 381.549575 
L 438.017442 363.785772 
L 436.827907 324.480982 
L 435.638372 324.480982 
L 434.448837 314.644947 
L 433.259302 314.644947 
L 432.069767 307.921318 
L 430.880233 301.788276 
L 429.690698 296.150394 
L 428.501163 295.610841 
L 427.311628 295.610841 
L 426.122093 295.610841 
L 424.932558 286.550014 
L 423.743023 286.550014 
L 422.553488 286.550014 
L 421.363953 286.079495 
L 420.174419 286.079495 
L 418.984884 277.693641 
L 417.795349 273.262242 
L 416.605814 266.213486 
L 415.416279 259.489858 
L 414.226744 259.489858 
L 413.037209 259.489858 
L 411.847674 236.948144 
L 410.65814 229.054537 
L 409.468605 224.830782 
L 408.27907 224.830782 
L 407.089535 224.441522 
L 405.9 227.618062 
L 404.710465 227.618062 
L 403.52093 213.173422 
L 402.331395 203.472666 
L 401.14186 199.694891 
L 399.952326 199.694891 
L 398.762791 192.701876 
L 397.573256 231.803254 
L 396.383721 231.803254 
L 395.194186 197.285278 
L 394.004651 197.285278 
L 392.815116 197.285278 
L 391.625581 182.408029 
L 390.436047 405.428223 
L 389.246512 326.125101 
L 388.056977 203.472666 
L 386.867442 203.472666 
L 385.677907 203.472666 
L 384.488372 210.261675 
L 383.298837 210.261675 
L 382.109302 210.261675 
L 380.919767 205.367117 
L 379.730233 205.367117 
L 378.540698 205.367117 
L 377.351163 205.367117 
L 376.161628 205.367117 
L 374.972093 205.367117 
L 373.782558 198.079285 
L 372.593023 198.079285 
L 371.403488 205.367117 
L 370.213953 205.367117 
L 369.024419 205.367117 
L 367.834884 176.399321 
L 366.645349 176.399321 
L 365.455814 176.399321 
L 364.266279 177.085787 
L 363.076744 173.907058 
L 361.887209 182.30176 
L 360.697674 183.26405 
L 359.50814 195.46695 
L 358.318605 195.46695 
L 357.12907 195.46695 
L 355.939535 195.46695 
L 354.75 184.239778 
L 353.560465 184.239778 
L 352.37093 187.25148 
L 351.181395 195.46695 
L 349.99186 195.46695 
L 348.802326 202.190578 
L 347.612791 202.190578 
L 346.423256 216.211806 
L 345.233721 263.10756 
L 344.044186 263.10756 
L 342.854651 263.10756 
L 341.665116 263.10756 
L 340.475581 263.10756 
L 339.286047 263.10756 
L 338.096512 161360.657098 
L 336.906977 161360.657098 
L 335.717442 161360.657098 
L 334.527907 161360.657098 
L 333.338372 161360.657098 
L 332.148837 263.10756 
L 330.959302 263.10756 
L 329.769767 263.10756 
L 328.580233 284.228477 
L 327.390698 284.228477 
L 326.201163 284.228477 
L 325.011628 284.228477 
L 323.822093 161360.657098 
L 322.632558 161360.657098 
L 321.443023 284.228477 
L 320.253488 284.228477 
L 319.063953 284.228477 
L 317.874419 284.228477 
L 316.684884 284.228477 
L 315.495349 284.228477 
L 314.305814 284.228477 
L 313.116279 284.228477 
L 311.926744 216.211806 
L 310.737209 216.211806 
L 309.547674 213.173422 
L 308.35814 213.173422 
L 307.168605 199.423015 
L 305.97907 199.423015 
L 304.789535 213.173422 
L 303.6 213.173422 
L 302.410465 213.173422 
L 301.22093 266.213486 
L 300.031395 276.456939 
L 298.84186 276.456939 
L 297.652326 276.456939 
L 296.462791 276.456939 
L 295.273256 276.456939 
L 294.083721 276.456939 
L 292.894186 292.973855 
L 291.704651 292.973855 
L 290.515116 356.996763 
L 289.325581 356.996763 
L 288.136047 355.714675 
L 286.946512 355.714675 
L 285.756977 355.714675 
L 284.567442 355.714675 
L 283.377907 355.714675 
L 282.188372 355.714675 
L 280.998837 355.714675 
L 279.809302 353.218987 
L 278.619767 400.435255 
L 277.430233 400.435255 
L 276.240698 426.397079 
L 275.051163 426.397079 
L 273.861628 426.397079 
L 272.672093 426.397079 
L 271.482558 426.397079 
L 270.293023 426.397079 
L 269.103488 426.397079 
L 267.913953 426.397079 
L 266.724419 426.397079 
L 265.534884 426.397079 
L 264.345349 426.397079 
L 263.155814 429.981036 
L 261.966279 482.190272 
L 260.776744 482.190272 
L 259.587209 482.190272 
L 258.397674 161360.657098 
L 257.20814 161360.657098 
L 256.018605 161360.657098 
L 254.82907 161360.657098 
L 253.639535 161360.657098 
L 252.45 161360.657098 
L 251.260465 161360.657098 
L 250.07093 161360.657098 
L 248.881395 161360.657098 
L 247.69186 161360.657098 
L 246.502326 161360.657098 
L 245.312791 482.190272 
L 244.123256 482.190272 
L 242.933721 482.190272 
L 241.744186 429.981036 
L 240.554651 426.397079 
L 239.365116 426.397079 
L 238.175581 429.981036 
L 236.986047 426.397079 
L 235.796512 426.397079 
L 234.606977 426.397079 
L 233.417442 400.435255 
L 232.227907 433.758811 
L 231.038372 433.758811 
L 229.848837 405.428223 
L 228.659302 405.428223 
L 227.469767 405.428223 
L 226.280233 433.758811 
L 225.090698 161360.657098 
L 223.901163 161360.657098 
L 222.711628 161360.657098 
L 221.522093 482.190272 
L 220.332558 482.190272 
L 219.143023 482.190272 
L 217.953488 161360.657098 
L 216.763953 161360.657098 
L 215.574419 161360.657098 
L 214.384884 161360.657098 
L 213.195349 161360.657098 
L 212.005814 161360.657098 
L 210.816279 161360.657098 
L 209.626744 161360.657098 
L 208.437209 161360.657098 
L 207.247674 161360.657098 
L 206.05814 161360.657098 
L 204.868605 161360.657098 
L 203.67907 161360.657098 
L 202.489535 161360.657098 
L 201.3 161360.657098 
L 200.110465 161360.657098 
L 198.92093 161360.657098 
L 197.731395 161360.657098 
L 196.54186 161360.657098 
L 195.352326 161360.657098 
L 194.162791 161360.657098 
L 192.973256 161360.657098 
L 191.783721 161360.657098 
L 190.594186 161360.657098 
L 189.404651 161360.657098 
L 188.215116 161360.657098 
L 187.025581 161360.657098 
L 185.836047 161360.657098 
L 184.646512 161360.657098 
L 183.456977 161360.657098 
L 182.267442 161360.657098 
L 181.077907 161360.657098 
L 179.888372 161360.657098 
L 178.698837 161360.657098 
L 177.509302 161360.657098 
L 176.319767 161360.657098 
L 175.130233 161360.657098 
L 173.940698 161360.657098 
L 172.751163 161360.657098 
L 171.561628 161360.657098 
L 170.372093 161360.657098 
L 169.182558 161360.657098 
L 167.993023 161360.657098 
L 166.803488 161360.657098 
L 165.613953 161360.657098 
L 164.424419 161360.657098 
L 163.234884 161360.657098 
L 162.045349 161360.657098 
L 160.855814 161360.657098 
L 159.666279 161360.657098 
L 158.476744 161360.657098 
L 157.287209 482.190272 
L 156.097674 482.190272 
L 154.90814 482.190272 
L 153.718605 474.82854 
L 152.52907 402.887149 
L 151.339535 398.066491 
L 150.15 398.066491 
L 148.960465 398.066491 
L 147.77093 398.066491 
L 146.581395 353.218987 
L 145.39186 353.218987 
L 144.202326 353.218987 
L 143.012791 353.218987 
L 141.823256 353.218987 
L 140.633721 353.218987 
L 139.444186 331.30316 
L 138.254651 331.30316 
L 137.065116 334.043583 
L 135.875581 365.226479 
L 134.686047 365.226479 
L 133.496512 332.204745 
L 132.306977 332.204745 
L 131.117442 366.697519 
L 129.927907 381.549575 
L 128.738372 381.549575 
L 127.548837 381.549575 
L 126.359302 426.397079 
L 125.169767 426.397079 
L 123.980233 426.397079 
L 122.790698 426.397079 
L 121.601163 426.397079 
L 120.411628 426.397079 
L 119.222093 426.397079 
L 118.032558 426.397079 
L 116.843023 429.981036 
L 115.653488 474.82854 
L 114.463953 429.981036 
L 113.274419 161360.657098 
L 112.084884 161360.657098 
L 110.895349 161360.657098 
L 109.705814 161360.657098 
L 108.516279 161360.657098 
L 107.326744 161360.657098 
L 106.137209 161360.657098 
L 104.947674 161360.657098 
L 103.75814 161360.657098 
L 102.568605 161360.657098 
L 101.37907 161360.657098 
L 100.189535 161360.657098 
L 99 161360.657098 
z
" style="fill:#8080ff;fill-opacity:0.5;stroke:#8080ff;stroke-opacity:0.5;"/>
   </g>
   <g id="PolyCollection_2">
    <path clip-path="url(#p68e2955192)" d="M 99 161360.657098 
L 99 161360.657098 
L 100.189535 161360.657098 
L 101.37907 161360.657098 
L 102.568605 161360.657098 
L 103.75814 161360.657098 
L 104.947674 161360.657098 
L 106.137209 161360.657098 
L 107.326744 161360.657098 
L 108.516279 161360.657098 
L 109.705814 161360.657098 
L 110.895349 161360.657098 
L 112.084884 161360.657098 
L 113.274419 161360.657098 
L 114.463953 161360.657098 
L 115.653488 161360.657098 
L 116.843023 161360.657098 
L 118.032558 499.75007 
L 119.222093 474.82854 
L 120.411628 474.82854 
L 121.601163 474.82854 
L 122.790698 474.82854 
L 123.980233 474.82854 
L 125.169767 474.82854 
L 126.359302 474.82854 
L 127.548837 474.82854 
L 128.738372 474.82854 
L 129.927907 474.82854 
L 131.117442 474.82854 
L 132.306977 474.82854 
L 133.496512 474.82854 
L 134.686047 474.82854 
L 135.875581 474.82854 
L 137.065116 474.82854 
L 138.254651 499.75007 
L 139.444186 499.75007 
L 140.633721 499.75007 
L 141.823256 499.75007 
L 143.012791 499.75007 
L 144.202326 499.75007 
L 145.39186 499.75007 
L 146.581395 499.75007 
L 147.77093 161360.657098 
L 148.960465 161360.657098 
L 150.15 161360.657098 
L 151.339535 161360.657098 
L 152.52907 161360.657098 
L 153.718605 161360.657098 
L 154.90814 161360.657098 
L 156.097674 161360.657098 
L 157.287209 161360.657098 
L 158.476744 161360.657098 
L 159.666279 161360.657098 
L 160.855814 161360.657098 
L 162.045349 161360.657098 
L 163.234884 161360.657098 
L 164.424419 161360.657098 
L 165.613953 161360.657098 
L 166.803488 161360.657098 
L 167.993023 161360.657098 
L 169.182558 161360.657098 
L 170.372093 161360.657098 
L 171.561628 161360.657098 
L 172.751163 161360.657098 
L 173.940698 161360.657098 
L 175.130233 161360.657098 
L 176.319767 161360.657098 
L 177.509302 161360.657098 
L 178.698837 161360.657098 
L 179.888372 161360.657098 
L 181.077907 161360.657098 
L 182.267442 161360.657098 
L 183.456977 161360.657098 
L 184.646512 161360.657098 
L 185.836047 161360.657098 
L 187.025581 161360.657098 
L 188.215116 161360.657098 
L 189.404651 161360.657098 
L 190.594186 161360.657098 
L 191.783721 161360.657098 
L 192.973256 161360.657098 
L 194.162791 161360.657098 
L 195.352326 161360.657098 
L 196.54186 161360.657098 
L 197.731395 161360.657098 
L 198.92093 161360.657098 
L 200.110465 161360.657098 
L 201.3 161360.657098 
L 202.489535 161360.657098 
L 203.67907 161360.657098 
L 204.868605 161360.657098 
L 206.05814 161360.657098 
L 207.247674 161360.657098 
L 208.437209 161360.657098 
L 209.626744 161360.657098 
L 210.816279 161360.657098 
L 212.005814 161360.657098 
L 213.195349 161360.657098 
L 214.384884 161360.657098 
L 215.574419 161360.657098 
L 216.763953 161360.657098 
L 217.953488 161360.657098 
L 219.143023 161360.657098 
L 220.332558 161360.657098 
L 221.522093 161360.657098 
L 222.711628 161360.657098 
L 223.901163 161360.657098 
L 225.090698 161360.657098 
L 226.280233 161360.657098 
L 227.469767 161360.657098 
L 228.659302 161360.657098 
L 229.848837 161360.657098 
L 231.038372 161360.657098 
L 232.227907 161360.657098 
L 233.417442 161360.657098 
L 234.606977 161360.657098 
L 235.796512 161360.657098 
L 236.986047 161360.657098 
L 238.175581 161360.657098 
L 239.365116 161360.657098 
L 240.554651 161360.657098 
L 241.744186 161360.657098 
L 242.933721 161360.657098 
L 244.123256 161360.657098 
L 245.312791 161360.657098 
L 246.502326 161360.657098 
L 247.69186 161360.657098 
L 248.881395 161360.657098 
L 250.07093 161360.657098 
L 251.260465 161360.657098 
L 252.45 161360.657098 
L 253.639535 161360.657098 
L 254.82907 161360.657098 
L 256.018605 161360.657098 
L 257.20814 161360.657098 
L 258.397674 161360.657098 
L 259.587209 161360.657098 
L 260.776744 161360.657098 
L 261.966279 161360.657098 
L 263.155814 161360.657098 
L 264.345349 161360.657098 
L 265.534884 161360.657098 
L 266.724419 161360.657098 
L 267.913953 161360.657098 
L 269.103488 161360.657098 
L 270.293023 161360.657098 
L 271.482558 161360.657098 
L 272.672093 161360.657098 
L 273.861628 161360.657098 
L 275.051163 161360.657098 
L 276.240698 161360.657098 
L 277.430233 161360.657098 
L 278.619767 161360.657098 
L 279.809302 161360.657098 
L 280.998837 161360.657098 
L 282.188372 161360.657098 
L 283.377907 161360.657098 
L 284.567442 161360.657098 
L 285.756977 161360.657098 
L 286.946512 161360.657098 
L 288.136047 161360.657098 
L 289.325581 161360.657098 
L 290.515116 161360.657098 
L 291.704651 499.75007 
L 292.894186 499.75007 
L 294.083721 474.82854 
L 295.273256 474.82854 
L 296.462791 474.82854 
L 297.652326 474.82854 
L 298.84186 474.82854 
L 300.031395 474.82854 
L 301.22093 437.752574 
L 302.410465 437.752574 
L 303.6 437.752574 
L 304.789535 437.752574 
L 305.97907 437.752574 
L 307.168605 437.752574 
L 308.35814 426.397079 
L 309.547674 426.397079 
L 310.737209 437.752574 
L 311.926744 437.752574 
L 313.116279 426.397079 
L 314.305814 426.397079 
L 315.495349 426.397079 
L 316.684884 405.428223 
L 317.874419 426.397079 
L 319.063953 426.397079 
L 320.253488 426.397079 
L 321.443023 405.428223 
L 322.632558 405.428223 
L 323.822093 405.428223 
L 325.011628 405.428223 
L 326.201163 405.428223 
L 327.390698 405.428223 
L 328.580233 405.428223 
L 329.769767 405.428223 
L 330.959302 405.428223 
L 332.148837 405.428223 
L 333.338372 426.397079 
L 334.527907 405.428223 
L 335.717442 405.428223 
L 336.906977 405.428223 
L 338.096512 426.397079 
L 339.286047 426.397079 
L 340.475581 426.397079 
L 341.665116 405.428223 
L 342.854651 405.428223 
L 344.044186 405.428223 
L 345.233721 405.428223 
L 346.423256 405.428223 
L 347.612791 405.428223 
L 348.802326 405.428223 
L 349.99186 405.428223 
L 351.181395 426.397079 
L 352.37093 437.752574 
L 353.560465 437.752574 
L 354.75 426.397079 
L 355.939535 426.397079 
L 357.12907 426.397079 
L 358.318605 426.397079 
L 359.50814 426.397079 
L 360.697674 426.397079 
L 361.887209 426.397079 
L 363.076744 426.397079 
L 364.266279 426.397079 
L 365.455814 426.397079 
L 366.645349 405.428223 
L 367.834884 405.428223 
L 369.024419 405.428223 
L 370.213953 405.428223 
L 371.403488 405.428223 
L 372.593023 405.428223 
L 373.782558 405.428223 
L 374.972093 426.397079 
L 376.161628 426.397079 
L 377.351163 405.428223 
L 378.540698 405.428223 
L 379.730233 383.412935 
L 380.919767 383.412935 
L 382.109302 383.412935 
L 383.298837 405.428223 
L 384.488372 405.428223 
L 385.677907 405.428223 
L 386.867442 405.428223 
L 388.056977 405.428223 
L 389.246512 405.428223 
L 390.436047 405.428223 
L 391.625581 371.306123 
L 392.815116 371.306123 
L 394.004651 376.240301 
L 395.194186 376.240301 
L 396.383721 426.397079 
L 397.573256 426.397079 
L 398.762791 405.428223 
L 399.952326 405.428223 
L 401.14186 405.428223 
L 402.331395 405.428223 
L 403.52093 405.428223 
L 404.710465 405.428223 
L 405.9 405.428223 
L 407.089535 405.428223 
L 408.27907 426.397079 
L 409.468605 426.397079 
L 410.65814 426.397079 
L 411.847674 426.397079 
L 413.037209 426.397079 
L 414.226744 426.397079 
L 415.416279 437.752574 
L 416.605814 437.752574 
L 417.795349 437.752574 
L 418.984884 474.82854 
L 420.174419 474.82854 
L 421.363953 499.75007 
L 422.553488 437.752574 
L 423.743023 437.752574 
L 424.932558 437.752574 
L 426.122093 437.752574 
L 427.311628 437.752574 
L 428.501163 437.752574 
L 429.690698 437.752574 
L 430.880233 437.752574 
L 432.069767 437.752574 
L 433.259302 437.752574 
L 434.448837 437.752574 
L 435.638372 437.752574 
L 436.827907 474.82854 
L 438.017442 474.82854 
L 439.206977 474.82854 
L 440.396512 474.82854 
L 441.586047 499.75007 
L 442.775581 499.75007 
L 443.965116 499.75007 
L 445.154651 474.82854 
L 446.344186 474.82854 
L 447.533721 474.82854 
L 448.723256 474.82854 
L 449.912791 474.82854 
L 451.102326 474.82854 
L 452.29186 474.82854 
L 453.481395 499.75007 
L 454.67093 474.82854 
L 455.860465 474.82854 
L 457.05 474.82854 
L 458.239535 474.82854 
L 459.42907 474.82854 
L 460.618605 474.82854 
L 461.80814 499.75007 
L 462.997674 474.82854 
L 464.187209 474.82854 
L 465.376744 474.82854 
L 466.566279 474.82854 
L 467.755814 474.82854 
L 468.945349 474.82854 
L 470.134884 474.82854 
L 471.324419 474.82854 
L 472.513953 474.82854 
L 473.703488 474.82854 
L 474.893023 474.82854 
L 476.082558 474.82854 
L 477.272093 474.82854 
L 478.461628 474.82854 
L 479.651163 474.82854 
L 480.840698 474.82854 
L 482.030233 499.75007 
L 483.219767 161360.657098 
L 484.409302 161360.657098 
L 485.598837 161360.657098 
L 486.788372 161360.657098 
L 487.977907 161360.657098 
L 489.167442 161360.657098 
L 490.356977 161360.657098 
L 491.546512 161360.657098 
L 492.736047 161360.657098 
L 493.925581 161360.657098 
L 495.115116 161360.657098 
L 496.304651 161360.657098 
L 497.494186 161360.657098 
L 498.683721 161360.657098 
L 499.873256 161360.657098 
L 501.062791 161360.657098 
L 502.252326 161360.657098 
L 503.44186 161360.657098 
L 504.631395 161360.657098 
L 505.82093 161360.657098 
L 507.010465 161360.657098 
L 508.2 161360.657098 
L 509.389535 161360.657098 
L 510.57907 161360.657098 
L 511.768605 161360.657098 
L 512.95814 161360.657098 
L 514.147674 161360.657098 
L 515.337209 161360.657098 
L 516.526744 161360.657098 
L 517.716279 161360.657098 
L 518.905814 161360.657098 
L 520.095349 161360.657098 
L 521.284884 161360.657098 
L 522.474419 499.75007 
L 523.663953 499.75007 
L 524.853488 499.75007 
L 526.043023 499.75007 
L 527.232558 499.75007 
L 528.422093 499.75007 
L 529.611628 499.75007 
L 530.801163 499.75007 
L 531.990698 161360.657098 
L 533.180233 499.75007 
L 534.369767 499.75007 
L 535.559302 499.75007 
L 536.748837 499.75007 
L 537.938372 499.75007 
L 539.127907 161360.657098 
L 540.317442 161360.657098 
L 541.506977 161360.657098 
L 542.696512 161360.657098 
L 543.886047 161360.657098 
L 545.075581 161360.657098 
L 546.265116 161360.657098 
L 547.454651 161360.657098 
L 548.644186 161360.657098 
L 549.833721 161360.657098 
L 551.023256 161360.657098 
L 552.212791 161360.657098 
L 553.402326 161360.657098 
L 554.59186 161360.657098 
L 555.781395 161360.657098 
L 556.97093 161360.657098 
L 558.160465 161360.657098 
L 559.35 161360.657098 
L 560.539535 161360.657098 
L 561.72907 161360.657098 
L 562.918605 161360.657098 
L 564.10814 161360.657098 
L 565.297674 161360.657098 
L 566.487209 161360.657098 
L 567.676744 161360.657098 
L 568.866279 161360.657098 
L 570.055814 161360.657098 
L 571.245349 161360.657098 
L 572.434884 161360.657098 
L 573.624419 161360.657098 
L 574.813953 161360.657098 
L 576.003488 161360.657098 
L 577.193023 161360.657098 
L 578.382558 161360.657098 
L 579.572093 161360.657098 
L 580.761628 161360.657098 
L 581.951163 161360.657098 
L 583.140698 161360.657098 
L 584.330233 161360.657098 
L 585.519767 161360.657098 
L 586.709302 161360.657098 
L 587.898837 161360.657098 
L 589.088372 161360.657098 
L 590.277907 161360.657098 
L 591.467442 161360.657098 
L 592.656977 161360.657098 
L 593.846512 499.75007 
L 595.036047 474.82854 
L 596.225581 474.82854 
L 597.415116 474.82854 
L 598.604651 474.82854 
L 599.794186 474.82854 
L 600.983721 474.82854 
L 602.173256 474.82854 
L 603.362791 474.82854 
L 604.552326 474.82854 
L 605.74186 474.82854 
L 606.931395 474.82854 
L 608.12093 474.82854 
L 609.310465 499.75007 
L 610.5 161360.657098 
L 611.689535 161360.657098 
L 612.87907 161360.657098 
L 614.068605 161360.657098 
L 615.25814 161360.657098 
L 616.447674 161360.657098 
L 617.637209 161360.657098 
L 618.826744 161360.657098 
L 620.016279 161360.657098 
L 621.205814 161360.657098 
L 622.395349 161360.657098 
L 623.584884 161360.657098 
L 624.774419 161360.657098 
L 625.963953 161360.657098 
L 627.153488 161360.657098 
L 628.343023 161360.657098 
L 629.532558 161360.657098 
L 630.722093 161360.657098 
L 631.911628 161360.657098 
L 633.101163 161360.657098 
L 634.290698 161360.657098 
L 635.480233 161360.657098 
L 636.669767 161360.657098 
L 637.859302 161360.657098 
L 639.048837 161360.657098 
L 640.238372 161360.657098 
L 641.427907 161360.657098 
L 642.617442 161360.657098 
L 643.806977 161360.657098 
L 644.996512 161360.657098 
L 646.186047 161360.657098 
L 647.375581 161360.657098 
L 648.565116 161360.657098 
L 649.754651 161360.657098 
L 650.944186 161360.657098 
L 652.133721 161360.657098 
L 653.323256 161360.657098 
L 654.512791 161360.657098 
L 655.702326 161360.657098 
L 656.89186 161360.657098 
L 658.081395 161360.657098 
L 659.27093 161360.657098 
L 660.460465 161360.657098 
L 661.65 161360.657098 
L 662.839535 161360.657098 
L 664.02907 161360.657098 
L 665.218605 161360.657098 
L 666.40814 161360.657098 
L 667.597674 161360.657098 
L 668.787209 161360.657098 
L 669.976744 161360.657098 
L 671.166279 499.75007 
L 672.355814 499.75007 
L 673.545349 499.75007 
L 674.734884 161360.657098 
L 675.924419 499.75007 
L 677.113953 499.75007 
L 678.303488 499.75007 
L 679.493023 499.75007 
L 680.682558 499.75007 
L 681.872093 499.75007 
L 683.061628 474.82854 
L 684.251163 474.82854 
L 685.440698 474.82854 
L 686.630233 474.82854 
L 687.819767 499.75007 
L 689.009302 499.75007 
L 690.198837 499.75007 
L 691.388372 499.75007 
L 692.577907 161360.657098 
L 693.767442 161360.657098 
L 694.956977 161360.657098 
L 696.146512 161360.657098 
L 697.336047 161360.657098 
L 698.525581 161360.657098 
L 699.715116 161360.657098 
L 700.904651 161360.657098 
L 702.094186 161360.657098 
L 703.283721 161360.657098 
L 704.473256 161360.657098 
L 705.662791 161360.657098 
L 706.852326 161360.657098 
L 708.04186 161360.657098 
L 709.231395 161360.657098 
L 710.42093 161360.657098 
L 711.610465 161360.657098 
L 712.8 161360.657098 
L 712.8 161360.657098 
L 712.8 161360.657098 
L 711.610465 161360.657098 
L 710.42093 161360.657098 
L 709.231395 161360.657098 
L 708.04186 161360.657098 
L 706.852326 161360.657098 
L 705.662791 161360.657098 
L 704.473256 161360.657098 
L 703.283721 161360.657098 
L 702.094186 161360.657098 
L 700.904651 161360.657098 
L 699.715116 161360.657098 
L 698.525581 161360.657098 
L 697.336047 161360.657098 
L 696.146512 161360.657098 
L 694.956977 161360.657098 
L 693.767442 161360.657098 
L 692.577907 161360.657098 
L 691.388372 161360.657098 
L 690.198837 161360.657098 
L 689.009302 161360.657098 
L 687.819767 161360.657098 
L 686.630233 161360.657098 
L 685.440698 161360.657098 
L 684.251163 161360.657098 
L 683.061628 161360.657098 
L 681.872093 161360.657098 
L 680.682558 161360.657098 
L 679.493023 161360.657098 
L 678.303488 161360.657098 
L 677.113953 161360.657098 
L 675.924419 161360.657098 
L 674.734884 161360.657098 
L 673.545349 161360.657098 
L 672.355814 161360.657098 
L 671.166279 161360.657098 
L 669.976744 161360.657098 
L 668.787209 161360.657098 
L 667.597674 161360.657098 
L 666.40814 161360.657098 
L 665.218605 161360.657098 
L 664.02907 161360.657098 
L 662.839535 161360.657098 
L 661.65 161360.657098 
L 660.460465 161360.657098 
L 659.27093 161360.657098 
L 658.081395 161360.657098 
L 656.89186 161360.657098 
L 655.702326 161360.657098 
L 654.512791 161360.657098 
L 653.323256 161360.657098 
L 652.133721 161360.657098 
L 650.944186 161360.657098 
L 649.754651 161360.657098 
L 648.565116 161360.657098 
L 647.375581 161360.657098 
L 646.186047 161360.657098 
L 644.996512 161360.657098 
L 643.806977 161360.657098 
L 642.617442 161360.657098 
L 641.427907 161360.657098 
L 640.238372 161360.657098 
L 639.048837 161360.657098 
L 637.859302 161360.657098 
L 636.669767 161360.657098 
L 635.480233 161360.657098 
L 634.290698 161360.657098 
L 633.101163 161360.657098 
L 631.911628 161360.657098 
L 630.722093 161360.657098 
L 629.532558 161360.657098 
L 628.343023 161360.657098 
L 627.153488 161360.657098 
L 625.963953 161360.657098 
L 624.774419 161360.657098 
L 623.584884 161360.657098 
L 622.395349 161360.657098 
L 621.205814 161360.657098 
L 620.016279 161360.657098 
L 618.826744 161360.657098 
L 617.637209 161360.657098 
L 616.447674 161360.657098 
L 615.25814 161360.657098 
L 614.068605 161360.657098 
L 612.87907 161360.657098 
L 611.689535 161360.657098 
L 610.5 161360.657098 
L 609.310465 161360.657098 
L 608.12093 161360.657098 
L 606.931395 161360.657098 
L 605.74186 161360.657098 
L 604.552326 161360.657098 
L 603.362791 161360.657098 
L 602.173256 161360.657098 
L 600.983721 161360.657098 
L 599.794186 161360.657098 
L 598.604651 161360.657098 
L 597.415116 161360.657098 
L 596.225581 161360.657098 
L 595.036047 161360.657098 
L 593.846512 161360.657098 
L 592.656977 161360.657098 
L 591.467442 161360.657098 
L 590.277907 161360.657098 
L 589.088372 161360.657098 
L 587.898837 161360.657098 
L 586.709302 161360.657098 
L 585.519767 161360.657098 
L 584.330233 161360.657098 
L 583.140698 161360.657098 
L 581.951163 161360.657098 
L 580.761628 161360.657098 
L 579.572093 161360.657098 
L 578.382558 161360.657098 
L 577.193023 161360.657098 
L 576.003488 161360.657098 
L 574.813953 161360.657098 
L 573.624419 161360.657098 
L 572.434884 161360.657098 
L 571.245349 161360.657098 
L 570.055814 161360.657098 
L 568.866279 161360.657098 
L 567.676744 161360.657098 
L 566.487209 161360.657098 
L 565.297674 161360.657098 
L 564.10814 161360.657098 
L 562.918605 161360.657098 
L 561.72907 161360.657098 
L 560.539535 161360.657098 
L 559.35 161360.657098 
L 558.160465 161360.657098 
L 556.97093 161360.657098 
L 555.781395 161360.657098 
L 554.59186 161360.657098 
L 553.402326 161360.657098 
L 552.212791 161360.657098 
L 551.023256 161360.657098 
L 549.833721 161360.657098 
L 548.644186 161360.657098 
L 547.454651 161360.657098 
L 546.265116 161360.657098 
L 545.075581 161360.657098 
L 543.886047 161360.657098 
L 542.696512 161360.657098 
L 541.506977 161360.657098 
L 540.317442 161360.657098 
L 539.127907 161360.657098 
L 537.938372 161360.657098 
L 536.748837 161360.657098 
L 535.559302 161360.657098 
L 534.369767 161360.657098 
L 533.180233 161360.657098 
L 531.990698 161360.657098 
L 530.801163 161360.657098 
L 529.611628 161360.657098 
L 528.422093 161360.657098 
L 527.232558 161360.657098 
L 526.043023 161360.657098 
L 524.853488 161360.657098 
L 523.663953 161360.657098 
L 522.474419 161360.657098 
L 521.284884 161360.657098 
L 520.095349 161360.657098 
L 518.905814 161360.657098 
L 517.716279 161360.657098 
L 516.526744 161360.657098 
L 515.337209 161360.657098 
L 514.147674 161360.657098 
L 512.95814 161360.657098 
L 511.768605 161360.657098 
L 510.57907 161360.657098 
L 509.389535 161360.657098 
L 508.2 161360.657098 
L 507.010465 161360.657098 
L 505.82093 161360.657098 
L 504.631395 161360.657098 
L 503.44186 161360.657098 
L 502.252326 161360.657098 
L 501.062791 161360.657098 
L 499.873256 161360.657098 
L 498.683721 161360.657098 
L 497.494186 161360.657098 
L 496.304651 161360.657098 
L 495.115116 161360.657098 
L 493.925581 161360.657098 
L 492.736047 161360.657098 
L 491.546512 161360.657098 
L 490.356977 161360.657098 
L 489.167442 161360.657098 
L 487.977907 161360.657098 
L 486.788372 161360.657098 
L 485.598837 161360.657098 
L 484.409302 161360.657098 
L 483.219767 161360.657098 
L 482.030233 161360.657098 
L 480.840698 161360.657098 
L 479.651163 161360.657098 
L 478.461628 161360.657098 
L 477.272093 161360.657098 
L 476.082558 161360.657098 
L 474.893023 161360.657098 
L 473.703488 161360.657098 
L 472.513953 161360.657098 
L 471.324419 161360.657098 
L 470.134884 161360.657098 
L 468.945349 161360.657098 
L 467.755814 161360.657098 
L 466.566279 161360.657098 
L 465.376744 161360.657098 
L 464.187209 161360.657098 
L 462.997674 161360.657098 
L 461.80814 161360.657098 
L 460.618605 161360.657098 
L 459.42907 161360.657098 
L 458.239535 161360.657098 
L 457.05 161360.657098 
L 455.860465 161360.657098 
L 454.67093 161360.657098 
L 453.481395 161360.657098 
L 452.29186 161360.657098 
L 451.102326 161360.657098 
L 449.912791 161360.657098 
L 448.723256 161360.657098 
L 447.533721 161360.657098 
L 446.344186 161360.657098 
L 445.154651 161360.657098 
L 443.965116 161360.657098 
L 442.775581 161360.657098 
L 441.586047 161360.657098 
L 440.396512 161360.657098 
L 439.206977 161360.657098 
L 438.017442 161360.657098 
L 436.827907 161360.657098 
L 435.638372 161360.657098 
L 434.448837 161360.657098 
L 433.259302 161360.657098 
L 432.069767 161360.657098 
L 430.880233 161360.657098 
L 429.690698 161360.657098 
L 428.501163 161360.657098 
L 427.311628 161360.657098 
L 426.122093 161360.657098 
L 424.932558 161360.657098 
L 423.743023 161360.657098 
L 422.553488 161360.657098 
L 421.363953 161360.657098 
L 420.174419 161360.657098 
L 418.984884 161360.657098 
L 417.795349 161360.657098 
L 416.605814 161360.657098 
L 415.416279 161360.657098 
L 414.226744 161360.657098 
L 413.037209 161360.657098 
L 411.847674 161360.657098 
L 410.65814 161360.657098 
L 409.468605 161360.657098 
L 408.27907 161360.657098 
L 407.089535 161360.657098 
L 405.9 161360.657098 
L 404.710465 161360.657098 
L 403.52093 161360.657098 
L 402.331395 161360.657098 
L 401.14186 161360.657098 
L 399.952326 161360.657098 
L 398.762791 161360.657098 
L 397.573256 161360.657098 
L 396.383721 161360.657098 
L 395.194186 161360.657098 
L 394.004651 161360.657098 
L 392.815116 161360.657098 
L 391.625581 161360.657098 
L 390.436047 161360.657098 
L 389.246512 161360.657098 
L 388.056977 161360.657098 
L 386.867442 161360.657098 
L 385.677907 161360.657098 
L 384.488372 161360.657098 
L 383.298837 161360.657098 
L 382.109302 161360.657098 
L 380.919767 161360.657098 
L 379.730233 161360.657098 
L 378.540698 161360.657098 
L 377.351163 161360.657098 
L 376.161628 161360.657098 
L 374.972093 161360.657098 
L 373.782558 161360.657098 
L 372.593023 161360.657098 
L 371.403488 161360.657098 
L 370.213953 161360.657098 
L 369.024419 161360.657098 
L 367.834884 161360.657098 
L 366.645349 161360.657098 
L 365.455814 161360.657098 
L 364.266279 161360.657098 
L 363.076744 161360.657098 
L 361.887209 161360.657098 
L 360.697674 161360.657098 
L 359.50814 161360.657098 
L 358.318605 161360.657098 
L 357.12907 161360.657098 
L 355.939535 161360.657098 
L 354.75 161360.657098 
L 353.560465 161360.657098 
L 352.37093 161360.657098 
L 351.181395 482.190272 
L 349.99186 482.190272 
L 348.802326 482.190272 
L 347.612791 161360.657098 
L 346.423256 161360.657098 
L 345.233721 161360.657098 
L 344.044186 161360.657098 
L 342.854651 161360.657098 
L 341.665116 161360.657098 
L 340.475581 161360.657098 
L 339.286047 161360.657098 
L 338.096512 161360.657098 
L 336.906977 161360.657098 
L 335.717442 161360.657098 
L 334.527907 161360.657098 
L 333.338372 161360.657098 
L 332.148837 161360.657098 
L 330.959302 161360.657098 
L 329.769767 161360.657098 
L 328.580233 161360.657098 
L 327.390698 161360.657098 
L 326.201163 482.190272 
L 325.011628 482.190272 
L 323.822093 482.190272 
L 322.632558 474.82854 
L 321.443023 474.82854 
L 320.253488 474.82854 
L 319.063953 482.190272 
L 317.874419 482.190272 
L 316.684884 482.190272 
L 315.495349 161360.657098 
L 314.305814 161360.657098 
L 313.116279 161360.657098 
L 311.926744 161360.657098 
L 310.737209 161360.657098 
L 309.547674 161360.657098 
L 308.35814 161360.657098 
L 307.168605 161360.657098 
L 305.97907 161360.657098 
L 304.789535 161360.657098 
L 303.6 161360.657098 
L 302.410465 161360.657098 
L 301.22093 161360.657098 
L 300.031395 161360.657098 
L 298.84186 161360.657098 
L 297.652326 161360.657098 
L 296.462791 161360.657098 
L 295.273256 161360.657098 
L 294.083721 161360.657098 
L 292.894186 161360.657098 
L 291.704651 161360.657098 
L 290.515116 161360.657098 
L 289.325581 161360.657098 
L 288.136047 161360.657098 
L 286.946512 161360.657098 
L 285.756977 161360.657098 
L 284.567442 161360.657098 
L 283.377907 161360.657098 
L 282.188372 161360.657098 
L 280.998837 161360.657098 
L 279.809302 161360.657098 
L 278.619767 161360.657098 
L 277.430233 161360.657098 
L 276.240698 161360.657098 
L 275.051163 161360.657098 
L 273.861628 161360.657098 
L 272.672093 161360.657098 
L 271.482558 161360.657098 
L 270.293023 161360.657098 
L 269.103488 161360.657098 
L 267.913953 161360.657098 
L 266.724419 161360.657098 
L 265.534884 161360.657098 
L 264.345349 161360.657098 
L 263.155814 161360.657098 
L 261.966279 161360.657098 
L 260.776744 161360.657098 
L 259.587209 161360.657098 
L 258.397674 161360.657098 
L 257.20814 161360.657098 
L 256.018605 161360.657098 
L 254.82907 161360.657098 
L 253.639535 161360.657098 
L 252.45 161360.657098 
L 251.260465 161360.657098 
L 250.07093 161360.657098 
L 248.881395 161360.657098 
L 247.69186 161360.657098 
L 246.502326 161360.657098 
L 245.312791 161360.657098 
L 244.123256 161360.657098 
L 242.933721 161360.657098 
L 241.744186 161360.657098 
L 240.554651 161360.657098 
L 239.365116 161360.657098 
L 238.175581 161360.657098 
L 236.986047 161360.657098 
L 235.796512 161360.657098 
L 234.606977 161360.657098 
L 233.417442 161360.657098 
L 232.227907 161360.657098 
L 231.038372 161360.657098 
L 229.848837 161360.657098 
L 228.659302 161360.657098 
L 227.469767 161360.657098 
L 226.280233 161360.657098 
L 225.090698 161360.657098 
L 223.901163 161360.657098 
L 222.711628 161360.657098 
L 221.522093 161360.657098 
L 220.332558 161360.657098 
L 219.143023 161360.657098 
L 217.953488 161360.657098 
L 216.763953 161360.657098 
L 215.574419 161360.657098 
L 214.384884 161360.657098 
L 213.195349 161360.657098 
L 212.005814 161360.657098 
L 210.816279 161360.657098 
L 209.626744 161360.657098 
L 208.437209 161360.657098 
L 207.247674 161360.657098 
L 206.05814 161360.657098 
L 204.868605 161360.657098 
L 203.67907 161360.657098 
L 202.489535 161360.657098 
L 201.3 161360.657098 
L 200.110465 161360.657098 
L 198.92093 161360.657098 
L 197.731395 161360.657098 
L 196.54186 161360.657098 
L 195.352326 161360.657098 
L 194.162791 161360.657098 
L 192.973256 161360.657098 
L 191.783721 161360.657098 
L 190.594186 161360.657098 
L 189.404651 161360.657098 
L 188.215116 161360.657098 
L 187.025581 161360.657098 
L 185.836047 161360.657098 
L 184.646512 161360.657098 
L 183.456977 161360.657098 
L 182.267442 161360.657098 
L 181.077907 161360.657098 
L 179.888372 161360.657098 
L 178.698837 161360.657098 
L 177.509302 161360.657098 
L 176.319767 161360.657098 
L 175.130233 161360.657098 
L 173.940698 161360.657098 
L 172.751163 161360.657098 
L 171.561628 161360.657098 
L 170.372093 161360.657098 
L 169.182558 161360.657098 
L 167.993023 161360.657098 
L 166.803488 161360.657098 
L 165.613953 161360.657098 
L 164.424419 161360.657098 
L 163.234884 161360.657098 
L 162.045349 161360.657098 
L 160.855814 161360.657098 
L 159.666279 161360.657098 
L 158.476744 161360.657098 
L 157.287209 161360.657098 
L 156.097674 161360.657098 
L 154.90814 161360.657098 
L 153.718605 161360.657098 
L 152.52907 161360.657098 
L 151.339535 161360.657098 
L 150.15 161360.657098 
L 148.960465 161360.657098 
L 147.77093 161360.657098 
L 146.581395 161360.657098 
L 145.39186 161360.657098 
L 144.202326 161360.657098 
L 143.012791 161360.657098 
L 141.823256 161360.657098 
L 140.633721 161360.657098 
L 139.444186 161360.657098 
L 138.254651 161360.657098 
L 137.065116 161360.657098 
L 135.875581 161360.657098 
L 134.686047 161360.657098 
L 133.496512 161360.657098 
L 132.306977 161360.657098 
L 131.117442 161360.657098 
L 129.927907 161360.657098 
L 128.738372 161360.657098 
L 127.548837 161360.657098 
L 126.359302 161360.657098 
L 125.169767 161360.657098 
L 123.980233 161360.657098 
L 122.790698 161360.657098 
L 121.601163 161360.657098 
L 120.411628 161360.657098 
L 119.222093 161360.657098 
L 118.032558 161360.657098 
L 116.843023 161360.657098 
L 115.653488 161360.657098 
L 114.463953 161360.657098 
L 113.274419 161360.657098 
L 112.084884 161360.657098 
L 110.895349 161360.657098 
L 109.705814 161360.657098 
L 108.516279 161360.657098 
L 107.326744 161360.657098 
L 106.137209 161360.657098 
L 104.947674 161360.657098 
L 103.75814 161360.657098 
L 102.568605 161360.657098 
L 101.37907 161360.657098 
L 100.189535 161360.657098 
L 99 161360.657098 
z
" style="fill:#ff8080;fill-opacity:0.5;stroke:#ff8080;stroke-opacity:0.5;"/>
   </g>
   <g id="matplotlib.axis_1">
    <g id="xtick_1">
     <g id="line2d_1">
      <path clip-path="url(#p68e2955192)" d="M 99 544.68 
L 99 73.44 
" style="fill:none;stroke:#b0b0b0;stroke-linecap:square;stroke-width:0.8;"/>
     </g>
     <g id="line2d_2">
      <defs>
       <path d="M 0 0 
L 0 3.5 
" id="m4abed1d830" style="stroke:#000000;stroke-width:0.8;"/>
      </defs>
      <g>
       <use style="stroke:#000000;stroke-width:0.8;" x="99" xlink:href="#m4abed1d830" y="544.68"/>
      </g>
     </g>
    </g>
    <g id="xtick_2">
     <g id="line2d_3">
      <path clip-path="url(#p68e2955192)" d="M 119.222093 544.68 
L 119.222093 73.44 
" style="fill:none;stroke:#b0b0b0;stroke-linecap:square;stroke-width:0.8;"/>
     </g>
     <g id="line2d_4">
      <g>
       <use style="stroke:#000000;stroke-width:0.8;" x="119.222093" xlink:href="#m4abed1d830" y="544.68"/>
      </g>
     </g>
     <g id="text_1">
      <!-- Apr -->
      <g transform="translate(110.572093 559.278437)scale(0.1 -0.1)">
       <defs>
        <path d="M 2188 4044 
L 1331 1722 
L 3047 1722 
L 2188 4044 
z
M 1831 4666 
L 2547 4666 
L 4325 0 
L 3669 0 
L 3244 1197 
L 1141 1197 
L 716 0 
L 50 0 
L 1831 4666 
z
" id="DejaVuSans-41" transform="scale(0.015625)"/>
        <path d="M 1159 525 
L 1159 -1331 
L 581 -1331 
L 581 3500 
L 1159 3500 
L 1159 2969 
Q 1341 3281 1617 3432 
Q 1894 3584 2278 3584 
Q 2916 3584 3314 3078 
Q 3713 2572 3713 1747 
Q 3713 922 3314 415 
Q 2916 -91 2278 -91 
Q 1894 -91 1617 61 
Q 1341 213 1159 525 
z
M 3116 1747 
Q 3116 2381 2855 2742 
Q 2594 3103 2138 3103 
Q 1681 3103 1420 2742 
Q 1159 2381 1159 1747 
Q 1159 1113 1420 752 
Q 1681 391 2138 391 
Q 2594 391 2855 752 
Q 3116 1113 3116 1747 
z
" id="DejaVuSans-70" transform="scale(0.015625)"/>
        <path d="M 2631 2963 
Q 2534 3019 2420 3045 
Q 2306 3072 2169 3072 
Q 1681 3072 1420 2755 
Q 1159 2438 1159 1844 
L 1159 0 
L 581 0 
L 581 3500 
L 1159 3500 
L 1159 2956 
Q 1341 3275 1631 3429 
Q 1922 3584 2338 3584 
Q 2397 3584 2469 3576 
Q 2541 3569 2628 3553 
L 2631 2963 
z
" id="DejaVuSans-72" transform="scale(0.015625)"/>
       </defs>
       <use xlink:href="#DejaVuSans-41"/>
       <use x="68.408203" xlink:href="#DejaVuSans-70"/>
       <use x="131.884766" xlink:href="#DejaVuSans-72"/>
      </g>
     </g>
    </g>
    <g id="xtick_3">
     <g id="line2d_5">
      <path clip-path="url(#p68e2955192)" d="M 227.469767 544.68 
L 227.469767 73.44 
" style="fill:none;stroke:#b0b0b0;stroke-linecap:square;stroke-width:0.8;"/>
     </g>
     <g id="line2d_6">
      <g>
       <use style="stroke:#000000;stroke-width:0.8;" x="227.469767" xlink:href="#m4abed1d830" y="544.68"/>
      </g>
     </g>
     <g id="text_2">
      <!-- Jul -->
      <g transform="translate(221.436955 559.278437)scale(0.1 -0.1)">
       <defs>
        <path d="M 628 4666 
L 1259 4666 
L 1259 325 
Q 1259 -519 939 -900 
Q 619 -1281 -91 -1281 
L -331 -1281 
L -331 -750 
L -134 -750 
Q 284 -750 456 -515 
Q 628 -281 628 325 
L 628 4666 
z
" id="DejaVuSans-4a" transform="scale(0.015625)"/>
        <path d="M 544 1381 
L 544 3500 
L 1119 3500 
L 1119 1403 
Q 1119 906 1312 657 
Q 1506 409 1894 409 
Q 2359 409 2629 706 
Q 2900 1003 2900 1516 
L 2900 3500 
L 3475 3500 
L 3475 0 
L 2900 0 
L 2900 538 
Q 2691 219 2414 64 
Q 2138 -91 1772 -91 
Q 1169 -91 856 284 
Q 544 659 544 1381 
z
M 1991 3584 
L 1991 3584 
z
" id="DejaVuSans-75" transform="scale(0.015625)"/>
        <path d="M 603 4863 
L 1178 4863 
L 1178 0 
L 603 0 
L 603 4863 
z
" id="DejaVuSans-6c" transform="scale(0.015625)"/>
       </defs>
       <use xlink:href="#DejaVuSans-4a"/>
       <use x="29.492188" xlink:href="#DejaVuSans-75"/>
       <use x="92.871094" xlink:href="#DejaVuSans-6c"/>
      </g>
     </g>
    </g>
    <g id="xtick_4">
     <g id="line2d_7">
      <path clip-path="url(#p68e2955192)" d="M 336.906977 544.68 
L 336.906977 73.44 
" style="fill:none;stroke:#b0b0b0;stroke-linecap:square;stroke-width:0.8;"/>
     </g>
     <g id="line2d_8">
      <g>
       <use style="stroke:#000000;stroke-width:0.8;" x="336.906977" xlink:href="#m4abed1d830" y="544.68"/>
      </g>
     </g>
     <g id="text_3">
      <!-- Oct -->
      <g transform="translate(328.261664 559.278437)scale(0.1 -0.1)">
       <defs>
        <path d="M 2522 4238 
Q 1834 4238 1429 3725 
Q 1025 3213 1025 2328 
Q 1025 1447 1429 934 
Q 1834 422 2522 422 
Q 3209 422 3611 934 
Q 4013 1447 4013 2328 
Q 4013 3213 3611 3725 
Q 3209 4238 2522 4238 
z
M 2522 4750 
Q 3503 4750 4090 4092 
Q 4678 3434 4678 2328 
Q 4678 1225 4090 567 
Q 3503 -91 2522 -91 
Q 1538 -91 948 565 
Q 359 1222 359 2328 
Q 359 3434 948 4092 
Q 1538 4750 2522 4750 
z
" id="DejaVuSans-4f" transform="scale(0.015625)"/>
        <path d="M 3122 3366 
L 3122 2828 
Q 2878 2963 2633 3030 
Q 2388 3097 2138 3097 
Q 1578 3097 1268 2742 
Q 959 2388 959 1747 
Q 959 1106 1268 751 
Q 1578 397 2138 397 
Q 2388 397 2633 464 
Q 2878 531 3122 666 
L 3122 134 
Q 2881 22 2623 -34 
Q 2366 -91 2075 -91 
Q 1284 -91 818 406 
Q 353 903 353 1747 
Q 353 2603 823 3093 
Q 1294 3584 2113 3584 
Q 2378 3584 2631 3529 
Q 2884 3475 3122 3366 
z
" id="DejaVuSans-63" transform="scale(0.015625)"/>
        <path d="M 1172 4494 
L 1172 3500 
L 2356 3500 
L 2356 3053 
L 1172 3053 
L 1172 1153 
Q 1172 725 1289 603 
Q 1406 481 1766 481 
L 2356 481 
L 2356 0 
L 1766 0 
Q 1100 0 847 248 
Q 594 497 594 1153 
L 594 3053 
L 172 3053 
L 172 3500 
L 594 3500 
L 594 4494 
L 1172 4494 
z
" id="DejaVuSans-74" transform="scale(0.015625)"/>
       </defs>
       <use xlink:href="#DejaVuSans-4f"/>
       <use x="78.710938" xlink:href="#DejaVuSans-63"/>
       <use x="133.691406" xlink:href="#DejaVuSans-74"/>
      </g>
     </g>
    </g>
    <g id="xtick_5">
     <g id="line2d_9">
      <path clip-path="url(#p68e2955192)" d="M 446.344186 544.68 
L 446.344186 73.44 
" style="fill:none;stroke:#b0b0b0;stroke-linecap:square;stroke-width:0.8;"/>
     </g>
     <g id="line2d_10">
      <g>
       <use style="stroke:#000000;stroke-width:0.8;" x="446.344186" xlink:href="#m4abed1d830" y="544.68"/>
      </g>
     </g>
     <g id="text_4">
      <!-- Jan -->
      <g transform="translate(438.636374 559.278437)scale(0.1 -0.1)">
       <defs>
        <path d="M 2194 1759 
Q 1497 1759 1228 1600 
Q 959 1441 959 1056 
Q 959 750 1161 570 
Q 1363 391 1709 391 
Q 2188 391 2477 730 
Q 2766 1069 2766 1631 
L 2766 1759 
L 2194 1759 
z
M 3341 1997 
L 3341 0 
L 2766 0 
L 2766 531 
Q 2569 213 2275 61 
Q 1981 -91 1556 -91 
Q 1019 -91 701 211 
Q 384 513 384 1019 
Q 384 1609 779 1909 
Q 1175 2209 1959 2209 
L 2766 2209 
L 2766 2266 
Q 2766 2663 2505 2880 
Q 2244 3097 1772 3097 
Q 1472 3097 1187 3025 
Q 903 2953 641 2809 
L 641 3341 
Q 956 3463 1253 3523 
Q 1550 3584 1831 3584 
Q 2591 3584 2966 3190 
Q 3341 2797 3341 1997 
z
" id="DejaVuSans-61" transform="scale(0.015625)"/>
        <path d="M 3513 2113 
L 3513 0 
L 2938 0 
L 2938 2094 
Q 2938 2591 2744 2837 
Q 2550 3084 2163 3084 
Q 1697 3084 1428 2787 
Q 1159 2491 1159 1978 
L 1159 0 
L 581 0 
L 581 3500 
L 1159 3500 
L 1159 2956 
Q 1366 3272 1645 3428 
Q 1925 3584 2291 3584 
Q 2894 3584 3203 3211 
Q 3513 2838 3513 2113 
z
" id="DejaVuSans-6e" transform="scale(0.015625)"/>
       </defs>
       <use xlink:href="#DejaVuSans-4a"/>
       <use x="29.492188" xlink:href="#DejaVuSans-61"/>
       <use x="90.771484" xlink:href="#DejaVuSans-6e"/>
      </g>
      <!-- 2021 -->
      <g transform="translate(433.619186 570.47625)scale(0.1 -0.1)">
       <defs>
        <path d="M 1228 531 
L 3431 531 
L 3431 0 
L 469 0 
L 469 531 
Q 828 903 1448 1529 
Q 2069 2156 2228 2338 
Q 2531 2678 2651 2914 
Q 2772 3150 2772 3378 
Q 2772 3750 2511 3984 
Q 2250 4219 1831 4219 
Q 1534 4219 1204 4116 
Q 875 4013 500 3803 
L 500 4441 
Q 881 4594 1212 4672 
Q 1544 4750 1819 4750 
Q 2544 4750 2975 4387 
Q 3406 4025 3406 3419 
Q 3406 3131 3298 2873 
Q 3191 2616 2906 2266 
Q 2828 2175 2409 1742 
Q 1991 1309 1228 531 
z
" id="DejaVuSans-32" transform="scale(0.015625)"/>
        <path d="M 2034 4250 
Q 1547 4250 1301 3770 
Q 1056 3291 1056 2328 
Q 1056 1369 1301 889 
Q 1547 409 2034 409 
Q 2525 409 2770 889 
Q 3016 1369 3016 2328 
Q 3016 3291 2770 3770 
Q 2525 4250 2034 4250 
z
M 2034 4750 
Q 2819 4750 3233 4129 
Q 3647 3509 3647 2328 
Q 3647 1150 3233 529 
Q 2819 -91 2034 -91 
Q 1250 -91 836 529 
Q 422 1150 422 2328 
Q 422 3509 836 4129 
Q 1250 4750 2034 4750 
z
" id="DejaVuSans-30" transform="scale(0.015625)"/>
        <path d="M 794 531 
L 1825 531 
L 1825 4091 
L 703 3866 
L 703 4441 
L 1819 4666 
L 2450 4666 
L 2450 531 
L 3481 531 
L 3481 0 
L 794 0 
L 794 531 
z
" id="DejaVuSans-31" transform="scale(0.015625)"/>
       </defs>
       <use xlink:href="#DejaVuSans-32"/>
       <use x="63.623047" xlink:href="#DejaVuSans-30"/>
       <use x="127.246094" xlink:href="#DejaVuSans-32"/>
       <use x="190.869141" xlink:href="#DejaVuSans-31"/>
      </g>
     </g>
    </g>
    <g id="xtick_6">
     <g id="line2d_11">
      <path clip-path="url(#p68e2955192)" d="M 553.402326 544.68 
L 553.402326 73.44 
" style="fill:none;stroke:#b0b0b0;stroke-linecap:square;stroke-width:0.8;"/>
     </g>
     <g id="line2d_12">
      <g>
       <use style="stroke:#000000;stroke-width:0.8;" x="553.402326" xlink:href="#m4abed1d830" y="544.68"/>
      </g>
     </g>
     <g id="text_5">
      <!-- Apr -->
      <g transform="translate(544.752326 559.278437)scale(0.1 -0.1)">
       <use xlink:href="#DejaVuSans-41"/>
       <use x="68.408203" xlink:href="#DejaVuSans-70"/>
       <use x="131.884766" xlink:href="#DejaVuSans-72"/>
      </g>
     </g>
    </g>
    <g id="xtick_7">
     <g id="line2d_13">
      <path clip-path="url(#p68e2955192)" d="M 661.65 544.68 
L 661.65 73.44 
" style="fill:none;stroke:#b0b0b0;stroke-linecap:square;stroke-width:0.8;"/>
     </g>
     <g id="line2d_14">
      <g>
       <use style="stroke:#000000;stroke-width:0.8;" x="661.65" xlink:href="#m4abed1d830" y="544.68"/>
      </g>
     </g>
     <g id="text_6">
      <!-- Jul -->
      <g transform="translate(655.617187 559.278437)scale(0.1 -0.1)">
       <use xlink:href="#DejaVuSans-4a"/>
       <use x="29.492188" xlink:href="#DejaVuSans-75"/>
       <use x="92.871094" xlink:href="#DejaVuSans-6c"/>
      </g>
     </g>
    </g>
    <g id="xtick_8">
     <g id="line2d_15">
      <path clip-path="url(#p68e2955192)" d="M 712.8 544.68 
L 712.8 73.44 
" style="fill:none;stroke:#b0b0b0;stroke-linecap:square;stroke-width:0.8;"/>
     </g>
     <g id="line2d_16">
      <g>
       <use style="stroke:#000000;stroke-width:0.8;" x="712.8" xlink:href="#m4abed1d830" y="544.68"/>
      </g>
     </g>
    </g>
    <g id="xtick_9">
     <g id="line2d_17">
      <defs>
       <path d="M 0 0 
L 0 2 
" id="mbe9820739d" style="stroke:#000000;stroke-width:0.6;"/>
      </defs>
      <g>
       <use style="stroke:#000000;stroke-width:0.6;" x="154.90814" xlink:href="#mbe9820739d" y="544.68"/>
      </g>
     </g>
    </g>
    <g id="xtick_10">
     <g id="line2d_18">
      <g>
       <use style="stroke:#000000;stroke-width:0.6;" x="191.783721" xlink:href="#mbe9820739d" y="544.68"/>
      </g>
     </g>
    </g>
    <g id="xtick_11">
     <g id="line2d_19">
      <g>
       <use style="stroke:#000000;stroke-width:0.6;" x="264.345349" xlink:href="#mbe9820739d" y="544.68"/>
      </g>
     </g>
    </g>
    <g id="xtick_12">
     <g id="line2d_20">
      <g>
       <use style="stroke:#000000;stroke-width:0.6;" x="301.22093" xlink:href="#mbe9820739d" y="544.68"/>
      </g>
     </g>
    </g>
    <g id="xtick_13">
     <g id="line2d_21">
      <g>
       <use style="stroke:#000000;stroke-width:0.6;" x="373.782558" xlink:href="#mbe9820739d" y="544.68"/>
      </g>
     </g>
    </g>
    <g id="xtick_14">
     <g id="line2d_22">
      <g>
       <use style="stroke:#000000;stroke-width:0.6;" x="409.468605" xlink:href="#mbe9820739d" y="544.68"/>
      </g>
     </g>
    </g>
    <g id="xtick_15">
     <g id="line2d_23">
      <g>
       <use style="stroke:#000000;stroke-width:0.6;" x="483.219767" xlink:href="#mbe9820739d" y="544.68"/>
      </g>
     </g>
    </g>
    <g id="xtick_16">
     <g id="line2d_24">
      <g>
       <use style="stroke:#000000;stroke-width:0.6;" x="516.526744" xlink:href="#mbe9820739d" y="544.68"/>
      </g>
     </g>
    </g>
    <g id="xtick_17">
     <g id="line2d_25">
      <g>
       <use style="stroke:#000000;stroke-width:0.6;" x="589.088372" xlink:href="#mbe9820739d" y="544.68"/>
      </g>
     </g>
    </g>
    <g id="xtick_18">
     <g id="line2d_26">
      <g>
       <use style="stroke:#000000;stroke-width:0.6;" x="625.963953" xlink:href="#mbe9820739d" y="544.68"/>
      </g>
     </g>
    </g>
    <g id="xtick_19">
     <g id="line2d_27">
      <g>
       <use style="stroke:#000000;stroke-width:0.6;" x="698.525581" xlink:href="#mbe9820739d" y="544.68"/>
      </g>
     </g>
    </g>
    <g id="text_7">
     <!-- Date -->
     <g transform="translate(393.949219 584.154375)scale(0.1 -0.1)">
      <defs>
       <path d="M 1259 4147 
L 1259 519 
L 2022 519 
Q 2988 519 3436 956 
Q 3884 1394 3884 2338 
Q 3884 3275 3436 3711 
Q 2988 4147 2022 4147 
L 1259 4147 
z
M 628 4666 
L 1925 4666 
Q 3281 4666 3915 4102 
Q 4550 3538 4550 2338 
Q 4550 1131 3912 565 
Q 3275 0 1925 0 
L 628 0 
L 628 4666 
z
" id="DejaVuSans-44" transform="scale(0.015625)"/>
       <path d="M 3597 1894 
L 3597 1613 
L 953 1613 
Q 991 1019 1311 708 
Q 1631 397 2203 397 
Q 2534 397 2845 478 
Q 3156 559 3463 722 
L 3463 178 
Q 3153 47 2828 -22 
Q 2503 -91 2169 -91 
Q 1331 -91 842 396 
Q 353 884 353 1716 
Q 353 2575 817 3079 
Q 1281 3584 2069 3584 
Q 2775 3584 3186 3129 
Q 3597 2675 3597 1894 
z
M 3022 2063 
Q 3016 2534 2758 2815 
Q 2500 3097 2075 3097 
Q 1594 3097 1305 2825 
Q 1016 2553 972 2059 
L 3022 2063 
z
" id="DejaVuSans-65" transform="scale(0.015625)"/>
      </defs>
      <use xlink:href="#DejaVuSans-44"/>
      <use x="77.001953" xlink:href="#DejaVuSans-61"/>
      <use x="138.28125" xlink:href="#DejaVuSans-74"/>
      <use x="177.490234" xlink:href="#DejaVuSans-65"/>
     </g>
    </g>
   </g>
   <g id="matplotlib.axis_2">
    <g id="ytick_1">
     <g id="line2d_28">
      <path clip-path="url(#p68e2955192)" d="M 99 474.82854 
L 712.8 474.82854 
" style="fill:none;stroke:#b0b0b0;stroke-linecap:square;stroke-width:0.8;"/>
     </g>
     <g id="line2d_29">
      <defs>
       <path d="M 0 0 
L -3.5 0 
" id="me91a084207" style="stroke:#000000;stroke-width:0.8;"/>
      </defs>
      <g>
       <use style="stroke:#000000;stroke-width:0.8;" x="99" xlink:href="#me91a084207" y="474.82854"/>
      </g>
     </g>
     <g id="text_8">
      <!-- $\mathdefault{10^{0}}$ -->
      <g transform="translate(74.4 478.627758)scale(0.1 -0.1)">
       <use transform="translate(0 0.765625)" xlink:href="#DejaVuSans-31"/>
       <use transform="translate(63.623047 0.765625)" xlink:href="#DejaVuSans-30"/>
       <use transform="translate(128.203125 39.046875)scale(0.7)" xlink:href="#DejaVuSans-30"/>
      </g>
     </g>
    </g>
    <g id="ytick_2">
     <g id="line2d_30">
      <path clip-path="url(#p68e2955192)" d="M 99 313.942711 
L 712.8 313.942711 
" style="fill:none;stroke:#b0b0b0;stroke-linecap:square;stroke-width:0.8;"/>
     </g>
     <g id="line2d_31">
      <g>
       <use style="stroke:#000000;stroke-width:0.8;" x="99" xlink:href="#me91a084207" y="313.942711"/>
      </g>
     </g>
     <g id="text_9">
      <!-- $\mathdefault{10^{1}}$ -->
      <g transform="translate(74.4 317.74193)scale(0.1 -0.1)">
       <use transform="translate(0 0.684375)" xlink:href="#DejaVuSans-31"/>
       <use transform="translate(63.623047 0.684375)" xlink:href="#DejaVuSans-30"/>
       <use transform="translate(128.203125 38.965625)scale(0.7)" xlink:href="#DejaVuSans-31"/>
      </g>
     </g>
    </g>
    <g id="ytick_3">
     <g id="line2d_32">
      <path clip-path="url(#p68e2955192)" d="M 99 153.056883 
L 712.8 153.056883 
" style="fill:none;stroke:#b0b0b0;stroke-linecap:square;stroke-width:0.8;"/>
     </g>
     <g id="line2d_33">
      <g>
       <use style="stroke:#000000;stroke-width:0.8;" x="99" xlink:href="#me91a084207" y="153.056883"/>
      </g>
     </g>
     <g id="text_10">
      <!-- $\mathdefault{10^{2}}$ -->
      <g transform="translate(74.4 156.856101)scale(0.1 -0.1)">
       <use transform="translate(0 0.765625)" xlink:href="#DejaVuSans-31"/>
       <use transform="translate(63.623047 0.765625)" xlink:href="#DejaVuSans-30"/>
       <use transform="translate(128.203125 39.046875)scale(0.7)" xlink:href="#DejaVuSans-32"/>
      </g>
     </g>
    </g>
    <g id="ytick_4">
     <g id="line2d_34">
      <path clip-path="url(#p68e2955192)" d="M 99 538.851448 
L 712.8 538.851448 
" style="fill:none;stroke:#b0b0b0;stroke-linecap:square;stroke-width:0.8;"/>
     </g>
     <g id="line2d_35">
      <defs>
       <path d="M 0 0 
L -2 0 
" id="m0cb60b688e" style="stroke:#000000;stroke-width:0.6;"/>
      </defs>
      <g>
       <use style="stroke:#000000;stroke-width:0.6;" x="99" xlink:href="#m0cb60b688e" y="538.851448"/>
      </g>
     </g>
    </g>
    <g id="ytick_5">
     <g id="line2d_36">
      <path clip-path="url(#p68e2955192)" d="M 99 523.26 
L 712.8 523.26 
" style="fill:none;stroke:#b0b0b0;stroke-linecap:square;stroke-width:0.8;"/>
     </g>
     <g id="line2d_37">
      <g>
       <use style="stroke:#000000;stroke-width:0.6;" x="99" xlink:href="#m0cb60b688e" y="523.26"/>
      </g>
     </g>
    </g>
    <g id="ytick_6">
     <g id="line2d_38">
      <path clip-path="url(#p68e2955192)" d="M 99 510.52086 
L 712.8 510.52086 
" style="fill:none;stroke:#b0b0b0;stroke-linecap:square;stroke-width:0.8;"/>
     </g>
     <g id="line2d_39">
      <g>
       <use style="stroke:#000000;stroke-width:0.6;" x="99" xlink:href="#m0cb60b688e" y="510.52086"/>
      </g>
     </g>
    </g>
    <g id="ytick_7">
     <g id="line2d_40">
      <path clip-path="url(#p68e2955192)" d="M 99 499.75007 
L 712.8 499.75007 
" style="fill:none;stroke:#b0b0b0;stroke-linecap:square;stroke-width:0.8;"/>
     </g>
     <g id="line2d_41">
      <g>
       <use style="stroke:#000000;stroke-width:0.6;" x="99" xlink:href="#m0cb60b688e" y="499.75007"/>
      </g>
     </g>
    </g>
    <g id="ytick_8">
     <g id="line2d_42">
      <path clip-path="url(#p68e2955192)" d="M 99 490.419987 
L 712.8 490.419987 
" style="fill:none;stroke:#b0b0b0;stroke-linecap:square;stroke-width:0.8;"/>
     </g>
     <g id="line2d_43">
      <g>
       <use style="stroke:#000000;stroke-width:0.6;" x="99" xlink:href="#m0cb60b688e" y="490.419987"/>
      </g>
     </g>
    </g>
    <g id="ytick_9">
     <g id="line2d_44">
      <path clip-path="url(#p68e2955192)" d="M 99 482.190272 
L 712.8 482.190272 
" style="fill:none;stroke:#b0b0b0;stroke-linecap:square;stroke-width:0.8;"/>
     </g>
     <g id="line2d_45">
      <g>
       <use style="stroke:#000000;stroke-width:0.6;" x="99" xlink:href="#m0cb60b688e" y="482.190272"/>
      </g>
     </g>
    </g>
    <g id="ytick_10">
     <g id="line2d_46">
      <path clip-path="url(#p68e2955192)" d="M 99 426.397079 
L 712.8 426.397079 
" style="fill:none;stroke:#b0b0b0;stroke-linecap:square;stroke-width:0.8;"/>
     </g>
     <g id="line2d_47">
      <g>
       <use style="stroke:#000000;stroke-width:0.6;" x="99" xlink:href="#m0cb60b688e" y="426.397079"/>
      </g>
     </g>
    </g>
    <g id="ytick_11">
     <g id="line2d_48">
      <path clip-path="url(#p68e2955192)" d="M 99 398.066491 
L 712.8 398.066491 
" style="fill:none;stroke:#b0b0b0;stroke-linecap:square;stroke-width:0.8;"/>
     </g>
     <g id="line2d_49">
      <g>
       <use style="stroke:#000000;stroke-width:0.6;" x="99" xlink:href="#m0cb60b688e" y="398.066491"/>
      </g>
     </g>
    </g>
    <g id="ytick_12">
     <g id="line2d_50">
      <path clip-path="url(#p68e2955192)" d="M 99 377.965619 
L 712.8 377.965619 
" style="fill:none;stroke:#b0b0b0;stroke-linecap:square;stroke-width:0.8;"/>
     </g>
     <g id="line2d_51">
      <g>
       <use style="stroke:#000000;stroke-width:0.6;" x="99" xlink:href="#m0cb60b688e" y="377.965619"/>
      </g>
     </g>
    </g>
    <g id="ytick_13">
     <g id="line2d_52">
      <path clip-path="url(#p68e2955192)" d="M 99 362.374171 
L 712.8 362.374171 
" style="fill:none;stroke:#b0b0b0;stroke-linecap:square;stroke-width:0.8;"/>
     </g>
     <g id="line2d_53">
      <g>
       <use style="stroke:#000000;stroke-width:0.6;" x="99" xlink:href="#m0cb60b688e" y="362.374171"/>
      </g>
     </g>
    </g>
    <g id="ytick_14">
     <g id="line2d_54">
      <path clip-path="url(#p68e2955192)" d="M 99 349.635031 
L 712.8 349.635031 
" style="fill:none;stroke:#b0b0b0;stroke-linecap:square;stroke-width:0.8;"/>
     </g>
     <g id="line2d_55">
      <g>
       <use style="stroke:#000000;stroke-width:0.6;" x="99" xlink:href="#m0cb60b688e" y="349.635031"/>
      </g>
     </g>
    </g>
    <g id="ytick_15">
     <g id="line2d_56">
      <path clip-path="url(#p68e2955192)" d="M 99 338.864241 
L 712.8 338.864241 
" style="fill:none;stroke:#b0b0b0;stroke-linecap:square;stroke-width:0.8;"/>
     </g>
     <g id="line2d_57">
      <g>
       <use style="stroke:#000000;stroke-width:0.6;" x="99" xlink:href="#m0cb60b688e" y="338.864241"/>
      </g>
     </g>
    </g>
    <g id="ytick_16">
     <g id="line2d_58">
      <path clip-path="url(#p68e2955192)" d="M 99 329.534159 
L 712.8 329.534159 
" style="fill:none;stroke:#b0b0b0;stroke-linecap:square;stroke-width:0.8;"/>
     </g>
     <g id="line2d_59">
      <g>
       <use style="stroke:#000000;stroke-width:0.6;" x="99" xlink:href="#m0cb60b688e" y="329.534159"/>
      </g>
     </g>
    </g>
    <g id="ytick_17">
     <g id="line2d_60">
      <path clip-path="url(#p68e2955192)" d="M 99 321.304443 
L 712.8 321.304443 
" style="fill:none;stroke:#b0b0b0;stroke-linecap:square;stroke-width:0.8;"/>
     </g>
     <g id="line2d_61">
      <g>
       <use style="stroke:#000000;stroke-width:0.6;" x="99" xlink:href="#m0cb60b688e" y="321.304443"/>
      </g>
     </g>
    </g>
    <g id="ytick_18">
     <g id="line2d_62">
      <path clip-path="url(#p68e2955192)" d="M 99 265.511251 
L 712.8 265.511251 
" style="fill:none;stroke:#b0b0b0;stroke-linecap:square;stroke-width:0.8;"/>
     </g>
     <g id="line2d_63">
      <g>
       <use style="stroke:#000000;stroke-width:0.6;" x="99" xlink:href="#m0cb60b688e" y="265.511251"/>
      </g>
     </g>
    </g>
    <g id="ytick_19">
     <g id="line2d_64">
      <path clip-path="url(#p68e2955192)" d="M 99 237.180663 
L 712.8 237.180663 
" style="fill:none;stroke:#b0b0b0;stroke-linecap:square;stroke-width:0.8;"/>
     </g>
     <g id="line2d_65">
      <g>
       <use style="stroke:#000000;stroke-width:0.6;" x="99" xlink:href="#m0cb60b688e" y="237.180663"/>
      </g>
     </g>
    </g>
    <g id="ytick_20">
     <g id="line2d_66">
      <path clip-path="url(#p68e2955192)" d="M 99 217.079791 
L 712.8 217.079791 
" style="fill:none;stroke:#b0b0b0;stroke-linecap:square;stroke-width:0.8;"/>
     </g>
     <g id="line2d_67">
      <g>
       <use style="stroke:#000000;stroke-width:0.6;" x="99" xlink:href="#m0cb60b688e" y="217.079791"/>
      </g>
     </g>
    </g>
    <g id="ytick_21">
     <g id="line2d_68">
      <path clip-path="url(#p68e2955192)" d="M 99 201.488343 
L 712.8 201.488343 
" style="fill:none;stroke:#b0b0b0;stroke-linecap:square;stroke-width:0.8;"/>
     </g>
     <g id="line2d_69">
      <g>
       <use style="stroke:#000000;stroke-width:0.6;" x="99" xlink:href="#m0cb60b688e" y="201.488343"/>
      </g>
     </g>
    </g>
    <g id="ytick_22">
     <g id="line2d_70">
      <path clip-path="url(#p68e2955192)" d="M 99 188.749203 
L 712.8 188.749203 
" style="fill:none;stroke:#b0b0b0;stroke-linecap:square;stroke-width:0.8;"/>
     </g>
     <g id="line2d_71">
      <g>
       <use style="stroke:#000000;stroke-width:0.6;" x="99" xlink:href="#m0cb60b688e" y="188.749203"/>
      </g>
     </g>
    </g>
    <g id="ytick_23">
     <g id="line2d_72">
      <path clip-path="url(#p68e2955192)" d="M 99 177.978413 
L 712.8 177.978413 
" style="fill:none;stroke:#b0b0b0;stroke-linecap:square;stroke-width:0.8;"/>
     </g>
     <g id="line2d_73">
      <g>
       <use style="stroke:#000000;stroke-width:0.6;" x="99" xlink:href="#m0cb60b688e" y="177.978413"/>
      </g>
     </g>
    </g>
    <g id="ytick_24">
     <g id="line2d_74">
      <path clip-path="url(#p68e2955192)" d="M 99 168.64833 
L 712.8 168.64833 
" style="fill:none;stroke:#b0b0b0;stroke-linecap:square;stroke-width:0.8;"/>
     </g>
     <g id="line2d_75">
      <g>
       <use style="stroke:#000000;stroke-width:0.6;" x="99" xlink:href="#m0cb60b688e" y="168.64833"/>
      </g>
     </g>
    </g>
    <g id="ytick_25">
     <g id="line2d_76">
      <path clip-path="url(#p68e2955192)" d="M 99 160.418614 
L 712.8 160.418614 
" style="fill:none;stroke:#b0b0b0;stroke-linecap:square;stroke-width:0.8;"/>
     </g>
     <g id="line2d_77">
      <g>
       <use style="stroke:#000000;stroke-width:0.6;" x="99" xlink:href="#m0cb60b688e" y="160.418614"/>
      </g>
     </g>
    </g>
    <g id="ytick_26">
     <g id="line2d_78">
      <path clip-path="url(#p68e2955192)" d="M 99 104.625422 
L 712.8 104.625422 
" style="fill:none;stroke:#b0b0b0;stroke-linecap:square;stroke-width:0.8;"/>
     </g>
     <g id="line2d_79">
      <g>
       <use style="stroke:#000000;stroke-width:0.6;" x="99" xlink:href="#m0cb60b688e" y="104.625422"/>
      </g>
     </g>
    </g>
    <g id="ytick_27">
     <g id="line2d_80">
      <path clip-path="url(#p68e2955192)" d="M 99 76.294834 
L 712.8 76.294834 
" style="fill:none;stroke:#b0b0b0;stroke-linecap:square;stroke-width:0.8;"/>
     </g>
     <g id="line2d_81">
      <g>
       <use style="stroke:#000000;stroke-width:0.6;" x="99" xlink:href="#m0cb60b688e" y="76.294834"/>
      </g>
     </g>
    </g>
   </g>
   <g id="line2d_82">
    <path clip-path="url(#p68e2955192)" d="M 114.462365 613 
L 114.463953 398.066491 
L 115.653488 410.805632 
L 116.843023 410.805632 
L 118.032558 387.295702 
L 121.601163 387.295702 
L 122.790698 377.965619 
L 125.169767 377.965619 
L 126.359302 369.735903 
L 127.548837 344.042301 
L 128.738372 344.042301 
L 129.927907 329.534159 
L 131.117442 260.458074 
L 132.306977 226.409873 
L 133.496512 226.409873 
L 134.686047 260.458074 
L 135.875581 232.671238 
L 137.065116 226.409873 
L 138.254651 226.409873 
L 139.444186 232.671238 
L 140.633721 269.095207 
L 141.823256 269.095207 
L 143.012791 232.671238 
L 145.39186 232.671238 
L 146.581395 254.243151 
L 148.960465 334.043583 
L 150.15 292.973855 
L 151.339535 292.973855 
L 152.52907 334.043583 
L 153.718605 369.735903 
L 154.90814 398.066491 
L 156.097674 410.805632 
L 157.287209 446.497952 
L 158.476744 474.82854 
L 159.666279 474.82854 
L 160.855814 523.26 
L 160.856478 613 
M 192.972592 613 
L 192.973256 523.26 
L 192.97392 613 
M 195.351662 613 
L 195.352326 523.26 
L 197.731395 523.26 
L 197.732059 613 
M 200.109801 613 
L 200.110465 523.26 
L 200.111129 613 
M 206.057476 613 
L 206.05814 523.26 
L 206.058803 613 
M 208.436546 613 
L 208.437209 523.26 
L 208.437873 613 
M 210.815615 613 
L 210.816279 523.26 
L 212.005814 523.26 
L 213.195349 474.82854 
L 217.953488 474.82854 
L 219.143023 446.497952 
L 220.332558 446.497952 
L 221.522093 410.805632 
L 223.901163 410.805632 
L 225.090698 398.066491 
L 226.280233 387.295702 
L 227.469767 369.735903 
L 228.659302 362.374171 
L 229.848837 362.374171 
L 231.038372 387.295702 
L 232.227907 387.295702 
L 233.417442 362.374171 
L 234.606977 362.374171 
L 235.796512 377.965619 
L 236.986047 387.295702 
L 238.175581 398.066491 
L 240.554651 398.066491 
L 241.744186 426.397079 
L 244.123256 426.397079 
L 245.312791 446.497952 
L 246.502326 474.82854 
L 258.397674 474.82854 
L 259.587209 446.497952 
L 260.776744 426.397079 
L 261.966279 410.805632 
L 263.155814 410.805632 
L 264.345349 398.066491 
L 275.051163 398.066491 
L 277.430233 344.042301 
L 278.619767 334.043583 
L 279.809302 325.298206 
L 282.188372 325.298206 
L 284.567442 290.432781 
L 285.756977 287.980886 
L 286.946512 283.321038 
L 288.136047 274.841333 
L 290.515116 274.841333 
L 291.704651 263.785933 
L 292.894186 254.243151 
L 294.083721 245.848448 
L 295.273256 216.211806 
L 296.462791 194.196518 
L 298.84186 194.196518 
L 300.031395 189.923547 
L 303.6 189.923547 
L 304.789535 192.333159 
L 307.168605 192.333159 
L 308.35814 196.760909 
L 309.547674 196.760909 
L 310.737209 198.74792 
L 311.926744 198.74792 
L 313.116279 202.190578 
L 316.684884 202.190578 
L 317.874419 207.314368 
L 319.063953 207.314368 
L 320.253488 213.670733 
L 321.443023 225.418767 
L 322.632558 236.02573 
L 323.822093 236.02573 
L 325.011628 225.418767 
L 327.390698 225.418767 
L 328.580233 236.02573 
L 332.148837 236.02573 
L 333.338372 240.764619 
L 336.906977 240.764619 
L 339.286047 210.420294 
L 341.665116 210.420294 
L 342.854651 208.850075 
L 344.044186 205.072299 
L 345.233721 193.569861 
L 346.423256 190.518204 
L 347.612791 184.787795 
L 348.802326 184.787795 
L 349.99186 182.621053 
L 351.181395 182.621053 
L 352.37093 181.562369 
L 353.560465 181.038982 
L 354.75 176.987306 
L 355.939535 181.562369 
L 358.318605 181.562369 
L 359.50814 176.987306 
L 360.697674 169.970865 
L 361.887209 165.239272 
L 363.076744 164.002571 
L 366.645349 164.002571 
L 367.834884 165.656419 
L 369.024419 165.656419 
L 370.213953 166.498258 
L 371.403488 166.923012 
L 373.782558 166.923012 
L 374.972093 168.21299 
L 378.540698 168.21299 
L 379.730233 172.232287 
L 384.488372 172.232287 
L 385.677907 167.780346 
L 386.867442 164.412377 
L 388.056977 166.498258 
L 390.436047 166.498258 
L 391.625581 158.12753 
L 392.815116 166.498258 
L 394.004651 164.824602 
L 395.194186 174.569355 
L 396.383721 176.010062 
L 397.573256 176.010062 
L 398.762791 164.824602 
L 399.952326 176.010062 
L 401.14186 183.696026 
L 402.331395 193.569861 
L 403.52093 197.416988 
L 404.710465 199.423015 
L 407.089535 199.423015 
L 408.27907 206.55899 
L 409.468605 217.079791 
L 410.65814 223.477758 
L 411.847674 224.441522 
L 413.037209 226.409873 
L 414.226744 226.409873 
L 415.416279 231.587933 
L 416.605814 239.549426 
L 418.984884 262.102193 
L 420.174419 269.095207 
L 421.363953 265.511251 
L 422.553488 265.511251 
L 423.743023 274.841333 
L 424.932558 274.841333 
L 426.122093 278.952627 
L 427.311628 278.952627 
L 428.501163 283.321038 
L 429.690698 285.612123 
L 432.069767 295.610841 
L 433.259302 298.351263 
L 434.448837 298.351263 
L 435.638372 304.177289 
L 436.827907 304.177289 
L 438.017442 310.533653 
L 439.206977 317.526667 
L 440.396512 338.864241 
L 446.344186 338.864241 
L 447.533721 344.042301 
L 448.723256 355.714675 
L 449.912791 355.714675 
L 451.102326 321.304443 
L 452.29186 313.942711 
L 453.481395 321.304443 
L 454.67093 313.942711 
L 458.239535 313.942711 
L 459.42907 321.304443 
L 460.618605 321.304443 
L 461.80814 313.942711 
L 462.997674 301.203571 
L 465.376744 301.203571 
L 466.566279 317.526667 
L 467.755814 317.526667 
L 468.945349 329.534159 
L 470.134884 317.526667 
L 472.513953 317.526667 
L 473.703488 321.304443 
L 474.893023 338.864241 
L 476.082558 317.526667 
L 477.272093 338.864241 
L 478.461628 355.714675 
L 482.030233 355.714675 
L 483.219767 338.864241 
L 484.409302 355.714675 
L 485.598837 338.864241 
L 486.788372 355.714675 
L 487.977907 355.714675 
L 489.167442 338.864241 
L 496.304651 338.864241 
L 497.494186 344.042301 
L 498.683721 344.042301 
L 499.873256 362.374171 
L 501.062791 362.374171 
L 502.252326 377.965619 
L 503.44186 387.295702 
L 504.631395 387.295702 
L 505.82093 398.066491 
L 510.57907 398.066491 
L 511.768605 410.805632 
L 512.95814 410.805632 
L 514.147674 426.397079 
L 520.095349 426.397079 
L 521.284884 446.497952 
L 522.474419 426.397079 
L 523.663953 446.497952 
L 527.232558 446.497952 
L 528.422093 426.397079 
L 537.938372 426.397079 
L 539.127907 446.497952 
L 541.506977 446.497952 
L 542.696512 426.397079 
L 543.886047 426.397079 
L 545.075581 410.805632 
L 546.265116 426.397079 
L 547.454651 426.397079 
L 548.644186 410.805632 
L 551.023256 410.805632 
L 552.212791 426.397079 
L 554.59186 426.397079 
L 555.781395 410.805632 
L 560.539535 410.805632 
L 561.72907 426.397079 
L 562.918605 410.805632 
L 564.10814 410.805632 
L 565.297674 426.397079 
L 566.487209 426.397079 
L 567.676744 410.805632 
L 568.866279 398.066491 
L 572.434884 398.066491 
L 573.624419 387.295702 
L 574.813953 387.295702 
L 576.003488 377.965619 
L 577.193023 369.735903 
L 578.382558 362.374171 
L 584.330233 362.374171 
L 585.519767 355.714675 
L 586.709302 338.864241 
L 587.898837 338.864241 
L 589.088372 329.534159 
L 590.277907 329.534159 
L 591.467442 338.864241 
L 592.656977 329.534159 
L 593.846512 329.534159 
L 595.036047 338.864241 
L 596.225581 338.864241 
L 597.415116 329.534159 
L 598.604651 329.534159 
L 599.794186 334.043583 
L 600.983721 344.042301 
L 602.173256 344.042301 
L 603.362791 355.714675 
L 604.552326 344.042301 
L 606.931395 344.042301 
L 608.12093 321.304443 
L 609.310465 344.042301 
L 611.689535 344.042301 
L 612.87907 338.864241 
L 614.068605 344.042301 
L 615.25814 344.042301 
L 616.447674 349.635031 
L 617.637209 349.635031 
L 618.826744 355.714675 
L 620.016279 349.635031 
L 621.205814 355.714675 
L 622.395349 387.295702 
L 623.584884 387.295702 
L 624.774419 426.397079 
L 631.911628 426.397079 
L 633.101163 387.295702 
L 634.290698 387.295702 
L 635.480233 355.714675 
L 636.669767 355.714675 
L 637.859302 349.635031 
L 644.996512 349.635031 
L 646.186047 355.714675 
L 649.754651 355.714675 
L 650.944186 349.635031 
L 658.081395 349.635031 
L 659.27093 355.714675 
L 660.460465 355.714675 
L 662.839535 344.042301 
L 665.218605 344.042301 
L 666.40814 349.635031 
L 667.597674 349.635031 
L 668.787209 344.042301 
L 669.976744 329.534159 
L 671.166279 334.043583 
L 674.734884 334.043583 
L 675.924419 325.298206 
L 677.113953 334.043583 
L 679.493023 377.965619 
L 684.251163 377.965619 
L 685.440698 398.066491 
L 686.630233 398.066491 
L 687.819767 446.497952 
L 693.767442 446.497952 
L 694.956977 410.805632 
L 696.146512 398.066491 
L 698.525581 398.066491 
L 699.715116 349.635031 
L 700.904651 349.635031 
L 702.094186 334.043583 
L 703.283721 334.043583 
L 704.473256 329.534159 
L 706.852326 329.534159 
L 708.04186 313.942711 
L 709.231395 278.952627 
L 710.42093 258.851754 
L 711.610465 247.17938 
L 712.8 239.549426 
L 712.8 239.549426 
" style="fill:none;stroke:#1f77b4;stroke-linecap:square;stroke-width:1.5;"/>
   </g>
   <g id="line2d_83">
    <path clip-path="url(#p68e2955192)" d="M 307.167941 613 
L 307.168605 523.26 
L 308.35814 523.26 
L 309.547674 474.82854 
L 355.939535 474.82854 
L 357.12907 523.26 
L 364.266279 523.26 
L 364.266943 613 
M 366.644685 613 
L 366.645349 523.26 
L 366.646013 613 
M 369.023755 613 
L 369.024419 523.26 
L 370.213953 474.82854 
L 373.782558 474.82854 
L 374.972093 523.26 
L 376.161628 474.82854 
L 377.351163 474.82854 
L 378.540698 523.26 
L 379.730233 474.82854 
L 380.919767 523.26 
L 383.298837 523.26 
L 384.488372 474.82854 
L 385.677907 523.26 
L 385.678571 613 
M 391.624918 613 
L 391.625581 523.26 
L 392.815116 523.26 
L 392.81578 613 
M 395.193522 613 
L 395.194186 523.26 
L 397.573256 523.26 
L 398.762791 474.82854 
L 399.952326 523.26 
L 401.14186 523.26 
L 402.331395 474.82854 
L 408.27907 474.82854 
L 409.468605 523.26 
L 410.65814 523.26 
L 410.658803 613 
L 410.658803 613 
" style="fill:none;stroke:#ff7f0e;stroke-linecap:square;stroke-width:1.5;"/>
   </g>
   <g id="patch_3">
    <path d="M 99 544.68 
L 99 73.44 
" style="fill:none;stroke:#000000;stroke-linecap:square;stroke-linejoin:miter;stroke-width:0.8;"/>
   </g>
   <g id="patch_4">
    <path d="M 712.8 544.68 
L 712.8 73.44 
" style="fill:none;stroke:#000000;stroke-linecap:square;stroke-linejoin:miter;stroke-width:0.8;"/>
   </g>
   <g id="patch_5">
    <path d="M 99 544.68 
L 712.8 544.68 
" style="fill:none;stroke:#000000;stroke-linecap:square;stroke-linejoin:miter;stroke-width:0.8;"/>
   </g>
   <g id="patch_6">
    <path d="M 99 73.44 
L 712.8 73.44 
" style="fill:none;stroke:#000000;stroke-linecap:square;stroke-linejoin:miter;stroke-width:0.8;"/>
   </g>
   <g id="legend_1">
    <g id="patch_7">
     <path d="M 616.653125 110.79625 
L 705.8 110.79625 
Q 707.8 110.79625 707.8 108.79625 
L 707.8 80.44 
Q 707.8 78.44 705.8 78.44 
L 616.653125 78.44 
Q 614.653125 78.44 614.653125 80.44 
L 614.653125 108.79625 
Q 614.653125 110.79625 616.653125 110.79625 
z
" style="fill:#ffffff;opacity:0.8;stroke:#cccccc;stroke-linejoin:miter;"/>
    </g>
    <g id="line2d_84">
     <path d="M 618.653125 86.538437 
L 638.653125 86.538437 
" style="fill:none;stroke:#1f77b4;stroke-linecap:square;stroke-width:1.5;"/>
    </g>
    <g id="line2d_85"/>
    <g id="text_11">
     <!-- Avg Cases -->
     <g transform="translate(646.653125 90.038437)scale(0.1 -0.1)">
      <defs>
       <path d="M 191 3500 
L 800 3500 
L 1894 563 
L 2988 3500 
L 3597 3500 
L 2284 0 
L 1503 0 
L 191 3500 
z
" id="DejaVuSans-76" transform="scale(0.015625)"/>
       <path d="M 2906 1791 
Q 2906 2416 2648 2759 
Q 2391 3103 1925 3103 
Q 1463 3103 1205 2759 
Q 947 2416 947 1791 
Q 947 1169 1205 825 
Q 1463 481 1925 481 
Q 2391 481 2648 825 
Q 2906 1169 2906 1791 
z
M 3481 434 
Q 3481 -459 3084 -895 
Q 2688 -1331 1869 -1331 
Q 1566 -1331 1297 -1286 
Q 1028 -1241 775 -1147 
L 775 -588 
Q 1028 -725 1275 -790 
Q 1522 -856 1778 -856 
Q 2344 -856 2625 -561 
Q 2906 -266 2906 331 
L 2906 616 
Q 2728 306 2450 153 
Q 2172 0 1784 0 
Q 1141 0 747 490 
Q 353 981 353 1791 
Q 353 2603 747 3093 
Q 1141 3584 1784 3584 
Q 2172 3584 2450 3431 
Q 2728 3278 2906 2969 
L 2906 3500 
L 3481 3500 
L 3481 434 
z
" id="DejaVuSans-67" transform="scale(0.015625)"/>
       <path id="DejaVuSans-20" transform="scale(0.015625)"/>
       <path d="M 4122 4306 
L 4122 3641 
Q 3803 3938 3442 4084 
Q 3081 4231 2675 4231 
Q 1875 4231 1450 3742 
Q 1025 3253 1025 2328 
Q 1025 1406 1450 917 
Q 1875 428 2675 428 
Q 3081 428 3442 575 
Q 3803 722 4122 1019 
L 4122 359 
Q 3791 134 3420 21 
Q 3050 -91 2638 -91 
Q 1578 -91 968 557 
Q 359 1206 359 2328 
Q 359 3453 968 4101 
Q 1578 4750 2638 4750 
Q 3056 4750 3426 4639 
Q 3797 4528 4122 4306 
z
" id="DejaVuSans-43" transform="scale(0.015625)"/>
       <path d="M 2834 3397 
L 2834 2853 
Q 2591 2978 2328 3040 
Q 2066 3103 1784 3103 
Q 1356 3103 1142 2972 
Q 928 2841 928 2578 
Q 928 2378 1081 2264 
Q 1234 2150 1697 2047 
L 1894 2003 
Q 2506 1872 2764 1633 
Q 3022 1394 3022 966 
Q 3022 478 2636 193 
Q 2250 -91 1575 -91 
Q 1294 -91 989 -36 
Q 684 19 347 128 
L 347 722 
Q 666 556 975 473 
Q 1284 391 1588 391 
Q 1994 391 2212 530 
Q 2431 669 2431 922 
Q 2431 1156 2273 1281 
Q 2116 1406 1581 1522 
L 1381 1569 
Q 847 1681 609 1914 
Q 372 2147 372 2553 
Q 372 3047 722 3315 
Q 1072 3584 1716 3584 
Q 2034 3584 2315 3537 
Q 2597 3491 2834 3397 
z
" id="DejaVuSans-73" transform="scale(0.015625)"/>
      </defs>
      <use xlink:href="#DejaVuSans-41"/>
      <use x="62.533203" xlink:href="#DejaVuSans-76"/>
      <use x="121.712891" xlink:href="#DejaVuSans-67"/>
      <use x="185.189453" xlink:href="#DejaVuSans-20"/>
      <use x="216.976562" xlink:href="#DejaVuSans-43"/>
      <use x="286.800781" xlink:href="#DejaVuSans-61"/>
      <use x="348.080078" xlink:href="#DejaVuSans-73"/>
      <use x="400.179688" xlink:href="#DejaVuSans-65"/>
      <use x="461.703125" xlink:href="#DejaVuSans-73"/>
     </g>
    </g>
    <g id="line2d_86">
     <path d="M 618.653125 101.216562 
L 638.653125 101.216562 
" style="fill:none;stroke:#ff7f0e;stroke-linecap:square;stroke-width:1.5;"/>
    </g>
    <g id="line2d_87"/>
    <g id="text_12">
     <!-- Avg Deaths -->
     <g transform="translate(646.653125 104.716562)scale(0.1 -0.1)">
      <defs>
       <path d="M 3513 2113 
L 3513 0 
L 2938 0 
L 2938 2094 
Q 2938 2591 2744 2837 
Q 2550 3084 2163 3084 
Q 1697 3084 1428 2787 
Q 1159 2491 1159 1978 
L 1159 0 
L 581 0 
L 581 4863 
L 1159 4863 
L 1159 2956 
Q 1366 3272 1645 3428 
Q 1925 3584 2291 3584 
Q 2894 3584 3203 3211 
Q 3513 2838 3513 2113 
z
" id="DejaVuSans-68" transform="scale(0.015625)"/>
      </defs>
      <use xlink:href="#DejaVuSans-41"/>
      <use x="62.533203" xlink:href="#DejaVuSans-76"/>
      <use x="121.712891" xlink:href="#DejaVuSans-67"/>
      <use x="185.189453" xlink:href="#DejaVuSans-20"/>
      <use x="216.976562" xlink:href="#DejaVuSans-44"/>
      <use x="293.978516" xlink:href="#DejaVuSans-65"/>
      <use x="355.501953" xlink:href="#DejaVuSans-61"/>
      <use x="416.78125" xlink:href="#DejaVuSans-74"/>
      <use x="455.990234" xlink:href="#DejaVuSans-68"/>
      <use x="519.369141" xlink:href="#DejaVuSans-73"/>
     </g>
    </g>
   </g>
  </g>
 </g>
 <defs>
  <clipPath id="p68e2955192">
   <rect height="471.24" width="613.8" x="99" y="73.44"/>
  </clipPath>
 </defs>
</svg>
