<?xml version="1.0" encoding="utf-8" standalone="no"?>
<!DOCTYPE svg PUBLIC "-//W3C//DTD SVG 1.1//EN"
  "http://www.w3.org/Graphics/SVG/1.1/DTD/svg11.dtd">
<svg height="612pt" version="1.1" viewBox="0 0 792 612" width="792pt" xmlns="http://www.w3.org/2000/svg" xmlns:xlink="http://www.w3.org/1999/xlink">
 <metadata>
  <rdf:RDF xmlns:cc="http://creativecommons.org/ns#" xmlns:dc="http://purl.org/dc/elements/1.1/" xmlns:rdf="http://www.w3.org/1999/02/22-rdf-syntax-ns#">
   <cc:Work>
    <dc:type rdf:resource="http://purl.org/dc/dcmitype/StillImage"/>
    <dc:format>image/svg+xml</dc:format>
    <dc:creator>
     <cc:Agent>
      <dc:title>Matplotlib v3.4.2, https://matplotlib.org/</dc:title>
     </cc:Agent>
    </dc:creator>
   </cc:Work>
  </rdf:RDF>
 </metadata>
 <defs>
  <style type="text/css">*{stroke-linecap:butt;stroke-linejoin:round;}</style>
 </defs>
 <g id="figure_1">
  <g id="patch_1">
   <path d="M 0 612 
L 792 612 
L 792 0 
L 0 0 
z
" style="fill:#ffffff;"/>
  </g>
  <g id="axes_1">
   <g id="patch_2">
    <path d="M 99 544.68 
L 712.8 544.68 
L 712.8 73.44 
L 99 73.44 
z
" style="fill:#ffffff;"/>
   </g>
   <g id="PolyCollection_1">
    <path clip-path="url(#p68e2955192)" d="M 99 161360.657098 
L 99 161360.657098 
L 100.178119 161360.657098 
L 101.356238 161360.657098 
L 102.534357 161360.657098 
L 103.712476 161360.657098 
L 104.890595 161360.657098 
L 106.068714 161360.657098 
L 107.246833 161360.657098 
L 108.424952 161360.657098 
L 109.603071 161360.657098 
L 110.78119 161360.657098 
L 111.959309 161360.657098 
L 113.137428 161360.657098 
L 114.315547 314.644947 
L 115.493666 314.644947 
L 116.671785 314.644947 
L 117.849904 283.321038 
L 119.028023 283.321038 
L 120.206142 283.321038 
L 121.384261 283.321038 
L 122.56238 196.891633 
L 123.740499 187.708908 
L 124.918618 187.708908 
L 126.096737 187.708908 
L 127.274856 172.232287 
L 128.452975 142.206285 
L 129.631094 142.206285 
L 130.809213 137.857817 
L 131.987332 137.857817 
L 133.165451 137.857817 
L 134.34357 137.857817 
L 135.521689 137.857817 
L 136.699808 137.857817 
L 137.877927 137.857817 
L 139.056046 137.857817 
L 140.234165 137.857817 
L 141.412284 137.857817 
L 142.590403 137.857817 
L 143.768522 160.031512 
L 144.946641 182.834729 
L 146.12476 182.834729 
L 147.302879 196.63043 
L 148.480998 196.63043 
L 149.659117 182.834729 
L 150.837236 182.834729 
L 152.015355 182.834729 
L 153.193474 182.834729 
L 154.371593 182.834729 
L 155.549712 182.834729 
L 156.727831 182.834729 
L 157.90595 182.834729 
L 159.084069 182.834729 
L 160.262188 197.416988 
L 161.440307 294.544074 
L 162.618426 426.397079 
L 163.796545 426.397079 
L 164.974664 426.397079 
L 166.152783 437.752574 
L 167.330902 437.752574 
L 168.509021 437.752574 
L 169.68714 437.752574 
L 170.865259 426.397079 
L 172.043378 437.752574 
L 173.221497 437.752574 
L 174.399616 437.752574 
L 175.577735 437.752574 
L 176.755854 426.397079 
L 177.933973 426.397079 
L 179.112092 437.752574 
L 180.290211 437.752574 
L 181.46833 437.752574 
L 182.646449 437.752574 
L 183.824568 389.321114 
L 185.002687 389.321114 
L 186.180806 389.321114 
L 187.358925 395.775406 
L 188.537044 395.775406 
L 189.715163 383.412935 
L 190.893282 383.412935 
L 192.071401 383.412935 
L 193.24952 405.428223 
L 194.427639 405.428223 
L 195.605758 405.428223 
L 196.783877 405.428223 
L 197.961996 405.428223 
L 199.140115 405.428223 
L 200.318234 426.397079 
L 201.496353 426.397079 
L 202.674472 405.428223 
L 203.852591 405.428223 
L 205.03071 405.428223 
L 206.208829 426.397079 
L 207.386948 426.397079 
L 208.565067 437.752574 
L 209.743186 426.397079 
L 210.921305 405.428223 
L 212.099424 371.306123 
L 213.277543 345.125607 
L 214.455662 345.125607 
L 215.633781 345.125607 
L 216.8119 345.125607 
L 217.990019 341.924811 
L 219.168138 301.788276 
L 220.346257 301.788276 
L 221.524376 301.788276 
L 222.702495 301.788276 
L 223.880614 301.788276 
L 225.058733 301.788276 
L 226.236852 293.49335 
L 227.414971 293.49335 
L 228.59309 293.49335 
L 229.771209 306.650886 
L 230.949328 306.650886 
L 232.127447 297.242164 
L 233.305566 297.242164 
L 234.483685 297.242164 
L 235.661804 306.650886 
L 236.839923 306.650886 
L 238.018042 306.650886 
L 239.196161 306.650886 
L 240.37428 306.650886 
L 241.552399 306.650886 
L 242.730518 328.666175 
L 243.908637 356.996763 
L 245.086756 389.321114 
L 246.264875 389.321114 
L 247.442994 389.321114 
L 248.621113 389.321114 
L 249.799232 377.965619 
L 250.977351 383.412935 
L 252.15547 383.412935 
L 253.333589 366.697519 
L 254.511708 366.697519 
L 255.689827 366.697519 
L 256.867946 337.873135 
L 258.046065 337.873135 
L 259.224184 337.873135 
L 260.402303 337.873135 
L 261.580422 337.873135 
L 262.758541 337.873135 
L 263.93666 337.873135 
L 265.114779 323.673206 
L 266.292898 326.125101 
L 267.471017 321.304443 
L 268.649136 321.304443 
L 269.827255 298.351263 
L 271.005374 298.351263 
L 272.183493 298.351263 
L 273.361612 298.351263 
L 274.539731 290.432781 
L 275.71785 287.023723 
L 276.895969 282.425233 
L 278.074088 257.905395 
L 279.252207 257.905395 
L 280.430326 257.905395 
L 281.608445 244.284088 
L 282.786564 244.284088 
L 283.964683 244.284088 
L 285.142802 204.925355 
L 286.320921 187.708908 
L 287.49904 187.708908 
L 288.677159 187.708908 
L 289.855278 158.579776 
L 291.033397 155.47385 
L 292.211516 136.521582 
L 293.389635 135.372978 
L 294.567754 135.372978 
L 295.745873 135.372978 
L 296.923992 135.372978 
L 298.102111 135.372978 
L 299.28023 135.372978 
L 300.458349 135.372978 
L 301.636468 135.372978 
L 302.814587 135.372978 
L 303.992706 135.372978 
L 305.170825 135.372978 
L 306.348944 145.891066 
L 307.527063 145.891066 
L 308.705182 150.450958 
L 309.883301 158.731178 
L 311.06142 158.731178 
L 312.239539 158.731178 
L 313.417658 158.731178 
L 314.595777 167.436149 
L 315.773896 167.436149 
L 316.952015 167.436149 
L 318.130134 167.953083 
L 319.308253 167.953083 
L 320.486372 167.953083 
L 321.664491 167.953083 
L 322.84261 165.656419 
L 324.020729 177.679602 
L 325.198848 177.679602 
L 326.376967 190.042074 
L 327.555086 190.042074 
L 328.733205 190.042074 
L 329.911324 190.042074 
L 331.089443 206.709414 
L 332.267562 182.941812 
L 333.445681 183.587781 
L 334.6238 178.278507 
L 335.801919 176.790761 
L 336.980038 169.262399 
L 338.158157 169.262399 
L 339.336276 140.434292 
L 340.514395 140.434292 
L 341.692514 140.434292 
L 342.870633 140.434292 
L 344.048752 140.434292 
L 345.226871 140.434292 
L 346.40499 140.434292 
L 347.583109 138.706129 
L 348.761228 156.788092 
L 349.939347 156.788092 
L 351.117466 156.788092 
L 352.295585 148.656718 
L 353.473704 148.656718 
L 354.651823 148.656718 
L 355.829942 148.656718 
L 357.008061 137.857817 
L 358.18618 137.857817 
L 359.364299 137.857817 
L 360.542418 137.857817 
L 361.720537 137.857817 
L 362.898656 137.857817 
L 364.076775 136.356335 
L 365.254894 136.356335 
L 366.433013 136.356335 
L 367.611132 136.356335 
L 368.789251 136.356335 
L 369.96737 136.356335 
L 371.145489 136.356335 
L 372.323608 146.143768 
L 373.501727 146.588206 
L 374.679846 146.017303 
L 375.857965 144.147294 
L 377.036084 144.147294 
L 378.214203 144.147294 
L 379.392322 144.147294 
L 380.570441 144.147294 
L 381.74856 119.176576 
L 382.926679 119.176576 
L 384.104798 119.176576 
L 385.282917 119.176576 
L 386.461036 119.176576 
L 387.639155 119.176576 
L 388.817274 94.86 
L 389.995393 94.86 
L 391.173512 94.86 
L 392.351631 94.86 
L 393.52975 94.86 
L 394.707869 94.86 
L 395.885988 94.86 
L 397.064107 120.085983 
L 398.242226 147.228062 
L 399.420345 148.003706 
L 400.598464 148.003706 
L 401.776583 148.003706 
L 402.954702 148.003706 
L 404.132821 148.003706 
L 405.31094 161.277865 
L 406.48906 161.277865 
L 407.667179 183.26405 
L 408.845298 197.416988 
L 410.023417 197.416988 
L 411.201536 197.416988 
L 412.379655 198.61368 
L 413.557774 204.486368 
L 414.735893 215.014463 
L 415.914012 223.095944 
L 417.092131 225.615866 
L 418.27025 225.615866 
L 419.448369 225.615866 
L 420.626488 230.309754 
L 421.804607 234.889578 
L 422.982726 237.648035 
L 424.160845 244.542395 
L 425.338964 244.542395 
L 426.517083 244.542395 
L 427.695202 244.542395 
L 428.873321 251.046793 
L 430.05144 251.046793 
L 431.229559 251.046793 
L 432.407678 251.046793 
L 433.585797 237.648035 
L 434.763916 243.514849 
L 435.942035 243.514849 
L 437.120154 243.514849 
L 438.298273 273.653682 
L 439.476392 273.653682 
L 440.654511 285.612123 
L 441.83263 289.935471 
L 443.010749 289.935471 
L 444.188868 289.935471 
L 445.366987 289.935471 
L 446.545106 279.377381 
L 447.723225 279.377381 
L 448.901344 266.213486 
L 450.079463 279.377381 
L 451.257582 279.377381 
L 452.435701 279.377381 
L 453.61382 279.377381 
L 454.791939 279.377381 
L 455.970058 279.377381 
L 457.148177 279.377381 
L 458.326296 279.377381 
L 459.504415 276.866746 
L 460.682534 276.866746 
L 461.860653 276.866746 
L 463.038772 279.377381 
L 464.216891 266.213486 
L 465.39501 279.377381 
L 466.573129 279.377381 
L 467.751248 271.337276 
L 468.929367 271.337276 
L 470.107486 271.337276 
L 471.285605 271.337276 
L 472.463724 271.337276 
L 473.641843 271.337276 
L 474.819962 271.337276 
L 475.998081 276.049522 
L 477.1762 276.049522 
L 478.354319 276.049522 
L 479.532438 264.127605 
L 480.710557 276.049522 
L 481.888676 276.049522 
L 483.066795 277.27897 
L 484.244914 293.49335 
L 485.423033 293.49335 
L 486.601152 293.49335 
L 487.779271 287.023723 
L 488.95739 287.023723 
L 490.135509 287.023723 
L 491.313628 287.023723 
L 492.491747 287.023723 
L 493.669866 287.023723 
L 494.847985 287.023723 
L 496.026104 296.694146 
L 497.204223 296.694146 
L 498.382342 296.694146 
L 499.560461 296.694146 
L 500.73858 313.942711 
L 501.916699 313.942711 
L 503.094818 313.942711 
L 504.272937 316.070952 
L 505.451056 320.532371 
L 506.629175 348.480099 
L 507.807294 348.480099 
L 508.985413 348.480099 
L 510.163532 348.480099 
L 511.341651 348.480099 
L 512.51977 348.480099 
L 513.697889 345.125607 
L 514.876008 345.125607 
L 516.054127 345.125607 
L 517.232246 366.697519 
L 518.410365 366.697519 
L 519.588484 366.697519 
L 520.766603 383.412935 
L 521.944722 383.412935 
L 523.122841 377.965619 
L 524.30096 377.965619 
L 525.479079 366.697519 
L 526.657198 366.697519 
L 527.835317 366.697519 
L 529.013436 362.374171 
L 530.191555 366.697519 
L 531.369674 366.697519 
L 532.547793 366.697519 
L 533.725912 366.697519 
L 534.904031 366.697519 
L 536.08215 366.697519 
L 537.260269 366.697519 
L 538.438388 366.697519 
L 539.616507 366.697519 
L 540.794626 362.374171 
L 541.972745 366.697519 
L 543.150864 366.697519 
L 544.328983 366.697519 
L 545.507102 377.965619 
L 546.685221 377.965619 
L 547.86334 377.965619 
L 549.041459 377.965619 
L 550.219578 377.965619 
L 551.397697 377.965619 
L 552.575816 377.965619 
L 553.753935 366.697519 
L 554.932054 366.697519 
L 556.110173 366.697519 
L 557.288292 377.965619 
L 558.466411 377.965619 
L 559.64453 377.965619 
L 560.822649 377.965619 
L 562.000768 366.697519 
L 563.178887 362.374171 
L 564.357006 362.374171 
L 565.535125 362.374171 
L 566.713244 362.374171 
L 567.891363 353.218987 
L 569.069482 353.218987 
L 570.247601 353.218987 
L 571.42572 353.218987 
L 572.603839 322.874662 
L 573.781958 304.787527 
L 574.960077 304.787527 
L 576.138196 304.787527 
L 577.316315 304.787527 
L 578.494434 304.787527 
L 579.672553 297.242164 
L 580.850672 297.242164 
L 582.028791 297.242164 
L 583.20691 297.242164 
L 584.385029 297.242164 
L 585.563148 297.242164 
L 586.741267 297.242164 
L 587.919386 285.147857 
L 589.097505 286.550014 
L 590.275624 286.550014 
L 591.453743 286.550014 
L 592.631862 286.550014 
L 593.809981 286.550014 
L 594.9881 286.550014 
L 596.166219 301.203571 
L 597.344338 283.321038 
L 598.522457 283.321038 
L 599.700576 278.110787 
L 600.878695 278.110787 
L 602.056814 278.110787 
L 603.234933 278.110787 
L 604.413052 286.550014 
L 605.591171 286.550014 
L 606.76929 286.550014 
L 607.947409 286.550014 
L 609.125528 286.550014 
L 610.303647 286.550014 
L 611.481766 286.550014 
L 612.659885 286.550014 
L 613.838004 302.972572 
L 615.016123 302.972572 
L 616.194242 307.283215 
L 617.372361 311.202288 
L 618.55048 311.202288 
L 619.728599 326.125101 
L 620.906718 311.202288 
L 622.084837 295.075422 
L 623.262956 295.075422 
L 624.441075 295.075422 
L 625.619194 295.075422 
L 626.797313 295.075422 
L 627.975432 295.075422 
L 629.153551 295.075422 
L 630.33167 295.075422 
L 631.509789 295.075422 
L 632.687908 295.075422 
L 633.866027 295.075422 
L 635.044146 295.075422 
L 636.222265 295.075422 
L 637.400384 311.202288 
L 638.578503 316.070952 
L 639.756622 316.070952 
L 640.934741 323.673206 
L 642.11286 323.673206 
L 643.290979 323.673206 
L 644.469098 316.070952 
L 645.647217 286.079495 
L 646.825336 286.079495 
L 648.003455 286.079495 
L 649.181574 283.321038 
L 650.359693 283.321038 
L 651.537812 283.321038 
L 652.715931 278.110787 
L 653.89405 278.110787 
L 655.072169 278.110787 
L 656.250288 278.110787 
L 657.428407 278.110787 
L 658.606526 278.110787 
L 659.784645 278.110787 
L 660.962764 286.550014 
L 662.140883 286.550014 
L 663.319002 283.773285 
L 664.497121 282.425233 
L 665.67524 282.425233 
L 666.853359 282.425233 
L 668.031478 282.425233 
L 669.209597 268.363558 
L 670.387716 268.363558 
L 671.565835 268.363558 
L 672.743954 268.363558 
L 673.922073 268.363558 
L 675.100192 268.363558 
L 676.278311 268.363558 
L 677.45643 268.363558 
L 678.634549 287.023723 
L 679.812668 288.46443 
L 680.990787 291.946309 
L 682.168906 291.946309 
L 683.347025 291.946309 
L 684.525144 291.946309 
L 685.703263 304.177289 
L 686.881382 329.534159 
L 688.059501 329.534159 
L 689.23762 329.534159 
L 690.415739 308.565303 
L 691.593858 308.565303 
L 692.771977 308.565303 
L 693.950096 293.49335 
L 695.128215 264.470956 
L 696.306334 244.026733 
L 697.484453 239.549426 
L 698.662572 239.549426 
L 699.840691 239.549426 
L 701.01881 239.549426 
L 702.196929 237.882898 
L 703.375048 217.430026 
L 704.553167 206.109652 
L 705.731286 204.34065 
L 706.909405 204.34065 
L 708.087524 204.34065 
L 709.265643 204.34065 
L 710.443762 200.379243 
L 711.621881 189.099438 
L 712.8 189.099438 
L 712.8 269.463925 
L 712.8 269.463925 
L 711.621881 269.463925 
L 710.443762 269.463925 
L 709.265643 269.463925 
L 708.087524 269.463925 
L 706.909405 269.463925 
L 705.731286 308.565303 
L 704.553167 346.225973 
L 703.375048 346.225973 
L 702.196929 346.225973 
L 701.01881 369.735903 
L 699.840691 369.735903 
L 698.662572 369.735903 
L 697.484453 482.190272 
L 696.306334 482.190272 
L 695.128215 161360.657098 
L 693.950096 161360.657098 
L 692.771977 161360.657098 
L 691.593858 161360.657098 
L 690.415739 161360.657098 
L 689.23762 161360.657098 
L 688.059501 161360.657098 
L 686.881382 161360.657098 
L 685.703263 161360.657098 
L 684.525144 161360.657098 
L 683.347025 161360.657098 
L 682.168906 161360.657098 
L 680.990787 161360.657098 
L 679.812668 161360.657098 
L 678.634549 482.190272 
L 677.45643 482.190272 
L 676.278311 161360.657098 
L 675.100192 161360.657098 
L 673.922073 161360.657098 
L 672.743954 161360.657098 
L 671.565835 161360.657098 
L 670.387716 161360.657098 
L 669.209597 161360.657098 
L 668.031478 161360.657098 
L 666.853359 161360.657098 
L 665.67524 161360.657098 
L 664.497121 161360.657098 
L 663.319002 161360.657098 
L 662.140883 161360.657098 
L 660.962764 161360.657098 
L 659.784645 385.327351 
L 658.606526 385.327351 
L 657.428407 385.327351 
L 656.250288 482.190272 
L 655.072169 482.190272 
L 653.89405 482.190272 
L 652.715931 482.190272 
L 651.537812 482.190272 
L 650.359693 482.190272 
L 649.181574 482.190272 
L 648.003455 482.190272 
L 646.825336 482.190272 
L 645.647217 482.190272 
L 644.469098 482.190272 
L 643.290979 482.190272 
L 642.11286 482.190272 
L 640.934741 482.190272 
L 639.756622 369.735903 
L 638.578503 369.735903 
L 637.400384 369.735903 
L 636.222265 369.735903 
L 635.044146 161360.657098 
L 633.866027 161360.657098 
L 632.687908 161360.657098 
L 631.509789 161360.657098 
L 630.33167 161360.657098 
L 629.153551 161360.657098 
L 627.975432 161360.657098 
L 626.797313 161360.657098 
L 625.619194 433.758811 
L 624.441075 429.981036 
L 623.262956 429.981036 
L 622.084837 429.981036 
L 620.906718 429.981036 
L 619.728599 429.981036 
L 618.55048 426.397079 
L 617.372361 426.397079 
L 616.194242 426.397079 
L 615.016123 426.397079 
L 613.838004 426.397079 
L 612.659885 426.397079 
L 611.481766 426.397079 
L 610.303647 426.397079 
L 609.125528 426.397079 
L 607.947409 354.455689 
L 606.76929 400.435255 
L 605.591171 400.435255 
L 604.413052 400.435255 
L 603.234933 400.435255 
L 602.056814 400.435255 
L 600.878695 400.435255 
L 599.700576 400.435255 
L 598.522457 400.435255 
L 597.344338 379.734621 
L 596.166219 379.734621 
L 594.9881 363.785772 
L 593.809981 363.785772 
L 592.631862 363.785772 
L 591.453743 377.965619 
L 590.275624 377.965619 
L 589.097505 363.785772 
L 587.919386 363.785772 
L 586.741267 363.785772 
L 585.563148 363.785772 
L 584.385029 363.785772 
L 583.20691 363.785772 
L 582.028791 377.965619 
L 580.850672 377.965619 
L 579.672553 377.965619 
L 578.494434 377.965619 
L 577.316315 377.965619 
L 576.138196 379.734621 
L 574.960077 379.734621 
L 573.781958 379.734621 
L 572.603839 398.066491 
L 571.42572 398.066491 
L 570.247601 400.435255 
L 569.069482 400.435255 
L 567.891363 426.397079 
L 566.713244 426.397079 
L 565.535125 426.397079 
L 564.357006 426.397079 
L 563.178887 426.397079 
L 562.000768 426.397079 
L 560.822649 426.397079 
L 559.64453 426.397079 
L 558.466411 426.397079 
L 557.288292 426.397079 
L 556.110173 426.397079 
L 554.932054 426.397079 
L 553.753935 426.397079 
L 552.575816 426.397079 
L 551.397697 426.397079 
L 550.219578 429.981036 
L 549.041459 474.82854 
L 547.86334 474.82854 
L 546.685221 474.82854 
L 545.507102 482.190272 
L 544.328983 482.190272 
L 543.150864 161360.657098 
L 541.972745 161360.657098 
L 540.794626 161360.657098 
L 539.616507 161360.657098 
L 538.438388 161360.657098 
L 537.260269 161360.657098 
L 536.08215 161360.657098 
L 534.904031 161360.657098 
L 533.725912 482.190272 
L 532.547793 482.190272 
L 531.369674 482.190272 
L 530.191555 482.190272 
L 529.013436 474.82854 
L 527.835317 474.82854 
L 526.657198 474.82854 
L 525.479079 474.82854 
L 524.30096 474.82854 
L 523.122841 474.82854 
L 521.944722 474.82854 
L 520.766603 474.82854 
L 519.588484 474.82854 
L 518.410365 474.82854 
L 517.232246 474.82854 
L 516.054127 474.82854 
L 514.876008 474.82854 
L 513.697889 474.82854 
L 512.51977 474.82854 
L 511.341651 474.82854 
L 510.163532 429.981036 
L 508.985413 426.397079 
L 507.807294 426.397079 
L 506.629175 426.397079 
L 505.451056 426.397079 
L 504.272937 400.435255 
L 503.094818 400.435255 
L 501.916699 400.435255 
L 500.73858 398.066491 
L 499.560461 398.066491 
L 498.382342 398.066491 
L 497.204223 398.066491 
L 496.026104 398.066491 
L 494.847985 398.066491 
L 493.669866 398.066491 
L 492.491747 379.734621 
L 491.313628 352.003794 
L 490.135509 352.003794 
L 488.95739 377.965619 
L 487.779271 377.965619 
L 486.601152 377.965619 
L 485.423033 381.549575 
L 484.244914 426.397079 
L 483.066795 426.397079 
L 481.888676 426.397079 
L 480.710557 429.981036 
L 479.532438 429.981036 
L 478.354319 474.82854 
L 477.1762 429.981036 
L 475.998081 429.981036 
L 474.819962 429.981036 
L 473.641843 429.981036 
L 472.463724 402.887149 
L 471.285605 402.887149 
L 470.107486 402.887149 
L 468.929367 353.218987 
L 467.751248 350.809375 
L 466.573129 350.809375 
L 465.39501 350.809375 
L 464.216891 339.869609 
L 463.038772 339.869609 
L 461.860653 330.413061 
L 460.682534 330.413061 
L 459.504415 331.30316 
L 458.326296 331.30316 
L 457.148177 331.30316 
L 455.970058 331.30316 
L 454.791939 329.534159 
L 453.61382 329.534159 
L 452.435701 332.204745 
L 451.257582 335.932126 
L 450.079463 429.981036 
L 448.901344 429.981036 
L 447.723225 474.82854 
L 446.545106 474.82854 
L 445.366987 474.82854 
L 444.188868 474.82854 
L 443.010749 429.981036 
L 441.83263 429.981036 
L 440.654511 429.981036 
L 439.476392 429.981036 
L 438.298273 429.981036 
L 437.120154 429.981036 
L 435.942035 381.549575 
L 434.763916 363.785772 
L 433.585797 324.480982 
L 432.407678 324.480982 
L 431.229559 314.644947 
L 430.05144 314.644947 
L 428.873321 307.921318 
L 427.695202 301.788276 
L 426.517083 296.150394 
L 425.338964 295.610841 
L 424.160845 295.610841 
L 422.982726 295.610841 
L 421.804607 286.550014 
L 420.626488 286.550014 
L 419.448369 286.550014 
L 418.27025 286.079495 
L 417.092131 286.079495 
L 415.914012 277.693641 
L 414.735893 273.262242 
L 413.557774 266.213486 
L 412.379655 259.489858 
L 411.201536 259.489858 
L 410.023417 259.489858 
L 408.845298 236.948144 
L 407.667179 229.054537 
L 406.48906 224.830782 
L 405.31094 224.830782 
L 404.132821 224.441522 
L 402.954702 227.618062 
L 401.776583 227.618062 
L 400.598464 213.173422 
L 399.420345 203.472666 
L 398.242226 199.694891 
L 397.064107 199.694891 
L 395.885988 192.701876 
L 394.707869 231.803254 
L 393.52975 231.803254 
L 392.351631 197.285278 
L 391.173512 197.285278 
L 389.995393 197.285278 
L 388.817274 182.408029 
L 387.639155 405.428223 
L 386.461036 326.125101 
L 385.282917 203.472666 
L 384.104798 203.472666 
L 382.926679 203.472666 
L 381.74856 210.261675 
L 380.570441 210.261675 
L 379.392322 210.261675 
L 378.214203 205.367117 
L 377.036084 205.367117 
L 375.857965 205.367117 
L 374.679846 205.367117 
L 373.501727 205.367117 
L 372.323608 205.367117 
L 371.145489 198.079285 
L 369.96737 198.079285 
L 368.789251 205.367117 
L 367.611132 205.367117 
L 366.433013 205.367117 
L 365.254894 176.399321 
L 364.076775 176.399321 
L 362.898656 176.399321 
L 361.720537 177.085787 
L 360.542418 173.907058 
L 359.364299 182.30176 
L 358.18618 183.26405 
L 357.008061 195.46695 
L 355.829942 195.46695 
L 354.651823 195.46695 
L 353.473704 195.46695 
L 352.295585 184.239778 
L 351.117466 184.239778 
L 349.939347 187.25148 
L 348.761228 195.46695 
L 347.583109 195.46695 
L 346.40499 202.190578 
L 345.226871 202.190578 
L 344.048752 216.211806 
L 342.870633 263.10756 
L 341.692514 263.10756 
L 340.514395 263.10756 
L 339.336276 263.10756 
L 338.158157 263.10756 
L 336.980038 263.10756 
L 335.801919 161360.657098 
L 334.6238 161360.657098 
L 333.445681 161360.657098 
L 332.267562 161360.657098 
L 331.089443 161360.657098 
L 329.911324 263.10756 
L 328.733205 263.10756 
L 327.555086 263.10756 
L 326.376967 284.228477 
L 325.198848 284.228477 
L 324.020729 284.228477 
L 322.84261 284.228477 
L 321.664491 161360.657098 
L 320.486372 161360.657098 
L 319.308253 284.228477 
L 318.130134 284.228477 
L 316.952015 284.228477 
L 315.773896 284.228477 
L 314.595777 284.228477 
L 313.417658 284.228477 
L 312.239539 284.228477 
L 311.06142 284.228477 
L 309.883301 216.211806 
L 308.705182 216.211806 
L 307.527063 213.173422 
L 306.348944 213.173422 
L 305.170825 199.423015 
L 303.992706 199.423015 
L 302.814587 213.173422 
L 301.636468 213.173422 
L 300.458349 213.173422 
L 299.28023 266.213486 
L 298.102111 276.456939 
L 296.923992 276.456939 
L 295.745873 276.456939 
L 294.567754 276.456939 
L 293.389635 276.456939 
L 292.211516 276.456939 
L 291.033397 292.973855 
L 289.855278 292.973855 
L 288.677159 356.996763 
L 287.49904 356.996763 
L 286.320921 355.714675 
L 285.142802 355.714675 
L 283.964683 355.714675 
L 282.786564 355.714675 
L 281.608445 355.714675 
L 280.430326 355.714675 
L 279.252207 355.714675 
L 278.074088 353.218987 
L 276.895969 400.435255 
L 275.71785 400.435255 
L 274.539731 426.397079 
L 273.361612 426.397079 
L 272.183493 426.397079 
L 271.005374 426.397079 
L 269.827255 426.397079 
L 268.649136 426.397079 
L 267.471017 426.397079 
L 266.292898 426.397079 
L 265.114779 426.397079 
L 263.93666 426.397079 
L 262.758541 426.397079 
L 261.580422 429.981036 
L 260.402303 482.190272 
L 259.224184 482.190272 
L 258.046065 482.190272 
L 256.867946 161360.657098 
L 255.689827 161360.657098 
L 254.511708 161360.657098 
L 253.333589 161360.657098 
L 252.15547 161360.657098 
L 250.977351 161360.657098 
L 249.799232 161360.657098 
L 248.621113 161360.657098 
L 247.442994 161360.657098 
L 246.264875 161360.657098 
L 245.086756 161360.657098 
L 243.908637 482.190272 
L 242.730518 482.190272 
L 241.552399 482.190272 
L 240.37428 429.981036 
L 239.196161 426.397079 
L 238.018042 426.397079 
L 236.839923 429.981036 
L 235.661804 426.397079 
L 234.483685 426.397079 
L 233.305566 426.397079 
L 232.127447 400.435255 
L 230.949328 433.758811 
L 229.771209 433.758811 
L 228.59309 405.428223 
L 227.414971 405.428223 
L 226.236852 405.428223 
L 225.058733 433.758811 
L 223.880614 161360.657098 
L 222.702495 161360.657098 
L 221.524376 161360.657098 
L 220.346257 482.190272 
L 219.168138 482.190272 
L 217.990019 482.190272 
L 216.8119 161360.657098 
L 215.633781 161360.657098 
L 214.455662 161360.657098 
L 213.277543 161360.657098 
L 212.099424 161360.657098 
L 210.921305 161360.657098 
L 209.743186 161360.657098 
L 208.565067 161360.657098 
L 207.386948 161360.657098 
L 206.208829 161360.657098 
L 205.03071 161360.657098 
L 203.852591 161360.657098 
L 202.674472 161360.657098 
L 201.496353 161360.657098 
L 200.318234 161360.657098 
L 199.140115 161360.657098 
L 197.961996 161360.657098 
L 196.783877 161360.657098 
L 195.605758 161360.657098 
L 194.427639 161360.657098 
L 193.24952 161360.657098 
L 192.071401 161360.657098 
L 190.893282 161360.657098 
L 189.715163 161360.657098 
L 188.537044 161360.657098 
L 187.358925 161360.657098 
L 186.180806 161360.657098 
L 185.002687 161360.657098 
L 183.824568 161360.657098 
L 182.646449 161360.657098 
L 181.46833 161360.657098 
L 180.290211 161360.657098 
L 179.112092 161360.657098 
L 177.933973 161360.657098 
L 176.755854 161360.657098 
L 175.577735 161360.657098 
L 174.399616 161360.657098 
L 173.221497 161360.657098 
L 172.043378 161360.657098 
L 170.865259 161360.657098 
L 169.68714 161360.657098 
L 168.509021 161360.657098 
L 167.330902 161360.657098 
L 166.152783 161360.657098 
L 164.974664 161360.657098 
L 163.796545 161360.657098 
L 162.618426 161360.657098 
L 161.440307 161360.657098 
L 160.262188 161360.657098 
L 159.084069 161360.657098 
L 157.90595 161360.657098 
L 156.727831 482.190272 
L 155.549712 482.190272 
L 154.371593 482.190272 
L 153.193474 474.82854 
L 152.015355 402.887149 
L 150.837236 398.066491 
L 149.659117 398.066491 
L 148.480998 398.066491 
L 147.302879 398.066491 
L 146.12476 353.218987 
L 144.946641 353.218987 
L 143.768522 353.218987 
L 142.590403 353.218987 
L 141.412284 353.218987 
L 140.234165 353.218987 
L 139.056046 331.30316 
L 137.877927 331.30316 
L 136.699808 334.043583 
L 135.521689 365.226479 
L 134.34357 365.226479 
L 133.165451 332.204745 
L 131.987332 332.204745 
L 130.809213 366.697519 
L 129.631094 381.549575 
L 128.452975 381.549575 
L 127.274856 381.549575 
L 126.096737 426.397079 
L 124.918618 426.397079 
L 123.740499 426.397079 
L 122.56238 426.397079 
L 121.384261 426.397079 
L 120.206142 426.397079 
L 119.028023 426.397079 
L 117.849904 426.397079 
L 116.671785 429.981036 
L 115.493666 474.82854 
L 114.315547 429.981036 
L 113.137428 161360.657098 
L 111.959309 161360.657098 
L 110.78119 161360.657098 
L 109.603071 161360.657098 
L 108.424952 161360.657098 
L 107.246833 161360.657098 
L 106.068714 161360.657098 
L 104.890595 161360.657098 
L 103.712476 161360.657098 
L 102.534357 161360.657098 
L 101.356238 161360.657098 
L 100.178119 161360.657098 
L 99 161360.657098 
z
" style="fill:#8080ff;fill-opacity:0.5;stroke:#8080ff;stroke-opacity:0.5;"/>
   </g>
   <g id="PolyCollection_2">
    <path clip-path="url(#p68e2955192)" d="M 99 161360.657098 
L 99 161360.657098 
L 100.178119 161360.657098 
L 101.356238 161360.657098 
L 102.534357 161360.657098 
L 103.712476 161360.657098 
L 104.890595 161360.657098 
L 106.068714 161360.657098 
L 107.246833 161360.657098 
L 108.424952 161360.657098 
L 109.603071 161360.657098 
L 110.78119 161360.657098 
L 111.959309 161360.657098 
L 113.137428 161360.657098 
L 114.315547 161360.657098 
L 115.493666 161360.657098 
L 116.671785 161360.657098 
L 117.849904 499.75007 
L 119.028023 474.82854 
L 120.206142 474.82854 
L 121.384261 474.82854 
L 122.56238 474.82854 
L 123.740499 474.82854 
L 124.918618 474.82854 
L 126.096737 474.82854 
L 127.274856 474.82854 
L 128.452975 474.82854 
L 129.631094 474.82854 
L 130.809213 474.82854 
L 131.987332 474.82854 
L 133.165451 474.82854 
L 134.34357 474.82854 
L 135.521689 474.82854 
L 136.699808 474.82854 
L 137.877927 499.75007 
L 139.056046 499.75007 
L 140.234165 499.75007 
L 141.412284 499.75007 
L 142.590403 499.75007 
L 143.768522 499.75007 
L 144.946641 499.75007 
L 146.12476 499.75007 
L 147.302879 161360.657098 
L 148.480998 161360.657098 
L 149.659117 161360.657098 
L 150.837236 161360.657098 
L 152.015355 161360.657098 
L 153.193474 161360.657098 
L 154.371593 161360.657098 
L 155.549712 161360.657098 
L 156.727831 161360.657098 
L 157.90595 161360.657098 
L 159.084069 161360.657098 
L 160.262188 161360.657098 
L 161.440307 161360.657098 
L 162.618426 161360.657098 
L 163.796545 161360.657098 
L 164.974664 161360.657098 
L 166.152783 161360.657098 
L 167.330902 161360.657098 
L 168.509021 161360.657098 
L 169.68714 161360.657098 
L 170.865259 161360.657098 
L 172.043378 161360.657098 
L 173.221497 161360.657098 
L 174.399616 161360.657098 
L 175.577735 161360.657098 
L 176.755854 161360.657098 
L 177.933973 161360.657098 
L 179.112092 161360.657098 
L 180.290211 161360.657098 
L 181.46833 161360.657098 
L 182.646449 161360.657098 
L 183.824568 161360.657098 
L 185.002687 161360.657098 
L 186.180806 161360.657098 
L 187.358925 161360.657098 
L 188.537044 161360.657098 
L 189.715163 161360.657098 
L 190.893282 161360.657098 
L 192.071401 161360.657098 
L 193.24952 161360.657098 
L 194.427639 161360.657098 
L 195.605758 161360.657098 
L 196.783877 161360.657098 
L 197.961996 161360.657098 
L 199.140115 161360.657098 
L 200.318234 161360.657098 
L 201.496353 161360.657098 
L 202.674472 161360.657098 
L 203.852591 161360.657098 
L 205.03071 161360.657098 
L 206.208829 161360.657098 
L 207.386948 161360.657098 
L 208.565067 161360.657098 
L 209.743186 161360.657098 
L 210.921305 161360.657098 
L 212.099424 161360.657098 
L 213.277543 161360.657098 
L 214.455662 161360.657098 
L 215.633781 161360.657098 
L 216.8119 161360.657098 
L 217.990019 161360.657098 
L 219.168138 161360.657098 
L 220.346257 161360.657098 
L 221.524376 161360.657098 
L 222.702495 161360.657098 
L 223.880614 161360.657098 
L 225.058733 161360.657098 
L 226.236852 161360.657098 
L 227.414971 161360.657098 
L 228.59309 161360.657098 
L 229.771209 161360.657098 
L 230.949328 161360.657098 
L 232.127447 161360.657098 
L 233.305566 161360.657098 
L 234.483685 161360.657098 
L 235.661804 161360.657098 
L 236.839923 161360.657098 
L 238.018042 161360.657098 
L 239.196161 161360.657098 
L 240.37428 161360.657098 
L 241.552399 161360.657098 
L 242.730518 161360.657098 
L 243.908637 161360.657098 
L 245.086756 161360.657098 
L 246.264875 161360.657098 
L 247.442994 161360.657098 
L 248.621113 161360.657098 
L 249.799232 161360.657098 
L 250.977351 161360.657098 
L 252.15547 161360.657098 
L 253.333589 161360.657098 
L 254.511708 161360.657098 
L 255.689827 161360.657098 
L 256.867946 161360.657098 
L 258.046065 161360.657098 
L 259.224184 161360.657098 
L 260.402303 161360.657098 
L 261.580422 161360.657098 
L 262.758541 161360.657098 
L 263.93666 161360.657098 
L 265.114779 161360.657098 
L 266.292898 161360.657098 
L 267.471017 161360.657098 
L 268.649136 161360.657098 
L 269.827255 161360.657098 
L 271.005374 161360.657098 
L 272.183493 161360.657098 
L 273.361612 161360.657098 
L 274.539731 161360.657098 
L 275.71785 161360.657098 
L 276.895969 161360.657098 
L 278.074088 161360.657098 
L 279.252207 161360.657098 
L 280.430326 161360.657098 
L 281.608445 161360.657098 
L 282.786564 161360.657098 
L 283.964683 161360.657098 
L 285.142802 161360.657098 
L 286.320921 161360.657098 
L 287.49904 161360.657098 
L 288.677159 161360.657098 
L 289.855278 499.75007 
L 291.033397 499.75007 
L 292.211516 474.82854 
L 293.389635 474.82854 
L 294.567754 474.82854 
L 295.745873 474.82854 
L 296.923992 474.82854 
L 298.102111 474.82854 
L 299.28023 437.752574 
L 300.458349 437.752574 
L 301.636468 437.752574 
L 302.814587 437.752574 
L 303.992706 437.752574 
L 305.170825 437.752574 
L 306.348944 426.397079 
L 307.527063 426.397079 
L 308.705182 437.752574 
L 309.883301 437.752574 
L 311.06142 426.397079 
L 312.239539 426.397079 
L 313.417658 426.397079 
L 314.595777 405.428223 
L 315.773896 426.397079 
L 316.952015 426.397079 
L 318.130134 426.397079 
L 319.308253 405.428223 
L 320.486372 405.428223 
L 321.664491 405.428223 
L 322.84261 405.428223 
L 324.020729 405.428223 
L 325.198848 405.428223 
L 326.376967 405.428223 
L 327.555086 405.428223 
L 328.733205 405.428223 
L 329.911324 405.428223 
L 331.089443 426.397079 
L 332.267562 405.428223 
L 333.445681 405.428223 
L 334.6238 405.428223 
L 335.801919 426.397079 
L 336.980038 426.397079 
L 338.158157 426.397079 
L 339.336276 405.428223 
L 340.514395 405.428223 
L 341.692514 405.428223 
L 342.870633 405.428223 
L 344.048752 405.428223 
L 345.226871 405.428223 
L 346.40499 405.428223 
L 347.583109 405.428223 
L 348.761228 426.397079 
L 349.939347 437.752574 
L 351.117466 437.752574 
L 352.295585 426.397079 
L 353.473704 426.397079 
L 354.651823 426.397079 
L 355.829942 426.397079 
L 357.008061 426.397079 
L 358.18618 426.397079 
L 359.364299 426.397079 
L 360.542418 426.397079 
L 361.720537 426.397079 
L 362.898656 426.397079 
L 364.076775 405.428223 
L 365.254894 405.428223 
L 366.433013 405.428223 
L 367.611132 405.428223 
L 368.789251 405.428223 
L 369.96737 405.428223 
L 371.145489 405.428223 
L 372.323608 426.397079 
L 373.501727 426.397079 
L 374.679846 405.428223 
L 375.857965 405.428223 
L 377.036084 383.412935 
L 378.214203 383.412935 
L 379.392322 383.412935 
L 380.570441 405.428223 
L 381.74856 405.428223 
L 382.926679 405.428223 
L 384.104798 405.428223 
L 385.282917 405.428223 
L 386.461036 405.428223 
L 387.639155 405.428223 
L 388.817274 371.306123 
L 389.995393 371.306123 
L 391.173512 376.240301 
L 392.351631 376.240301 
L 393.52975 426.397079 
L 394.707869 426.397079 
L 395.885988 405.428223 
L 397.064107 405.428223 
L 398.242226 405.428223 
L 399.420345 405.428223 
L 400.598464 405.428223 
L 401.776583 405.428223 
L 402.954702 405.428223 
L 404.132821 405.428223 
L 405.31094 426.397079 
L 406.48906 426.397079 
L 407.667179 426.397079 
L 408.845298 426.397079 
L 410.023417 426.397079 
L 411.201536 426.397079 
L 412.379655 437.752574 
L 413.557774 437.752574 
L 414.735893 437.752574 
L 415.914012 474.82854 
L 417.092131 474.82854 
L 418.27025 499.75007 
L 419.448369 437.752574 
L 420.626488 437.752574 
L 421.804607 437.752574 
L 422.982726 437.752574 
L 424.160845 437.752574 
L 425.338964 437.752574 
L 426.517083 437.752574 
L 427.695202 437.752574 
L 428.873321 437.752574 
L 430.05144 437.752574 
L 431.229559 437.752574 
L 432.407678 437.752574 
L 433.585797 474.82854 
L 434.763916 474.82854 
L 435.942035 474.82854 
L 437.120154 474.82854 
L 438.298273 499.75007 
L 439.476392 499.75007 
L 440.654511 499.75007 
L 441.83263 474.82854 
L 443.010749 474.82854 
L 444.188868 474.82854 
L 445.366987 474.82854 
L 446.545106 474.82854 
L 447.723225 474.82854 
L 448.901344 474.82854 
L 450.079463 499.75007 
L 451.257582 474.82854 
L 452.435701 474.82854 
L 453.61382 474.82854 
L 454.791939 474.82854 
L 455.970058 474.82854 
L 457.148177 474.82854 
L 458.326296 499.75007 
L 459.504415 474.82854 
L 460.682534 474.82854 
L 461.860653 474.82854 
L 463.038772 474.82854 
L 464.216891 474.82854 
L 465.39501 474.82854 
L 466.573129 474.82854 
L 467.751248 474.82854 
L 468.929367 474.82854 
L 470.107486 474.82854 
L 471.285605 474.82854 
L 472.463724 474.82854 
L 473.641843 474.82854 
L 474.819962 474.82854 
L 475.998081 474.82854 
L 477.1762 474.82854 
L 478.354319 499.75007 
L 479.532438 161360.657098 
L 480.710557 161360.657098 
L 481.888676 161360.657098 
L 483.066795 161360.657098 
L 484.244914 161360.657098 
L 485.423033 161360.657098 
L 486.601152 161360.657098 
L 487.779271 161360.657098 
L 488.95739 161360.657098 
L 490.135509 161360.657098 
L 491.313628 161360.657098 
L 492.491747 161360.657098 
L 493.669866 161360.657098 
L 494.847985 161360.657098 
L 496.026104 161360.657098 
L 497.204223 161360.657098 
L 498.382342 161360.657098 
L 499.560461 161360.657098 
L 500.73858 161360.657098 
L 501.916699 161360.657098 
L 503.094818 161360.657098 
L 504.272937 161360.657098 
L 505.451056 161360.657098 
L 506.629175 161360.657098 
L 507.807294 161360.657098 
L 508.985413 161360.657098 
L 510.163532 161360.657098 
L 511.341651 161360.657098 
L 512.51977 161360.657098 
L 513.697889 161360.657098 
L 514.876008 161360.657098 
L 516.054127 161360.657098 
L 517.232246 161360.657098 
L 518.410365 499.75007 
L 519.588484 499.75007 
L 520.766603 499.75007 
L 521.944722 499.75007 
L 523.122841 499.75007 
L 524.30096 499.75007 
L 525.479079 499.75007 
L 526.657198 499.75007 
L 527.835317 161360.657098 
L 529.013436 499.75007 
L 530.191555 499.75007 
L 531.369674 499.75007 
L 532.547793 499.75007 
L 533.725912 499.75007 
L 534.904031 161360.657098 
L 536.08215 161360.657098 
L 537.260269 161360.657098 
L 538.438388 161360.657098 
L 539.616507 161360.657098 
L 540.794626 161360.657098 
L 541.972745 161360.657098 
L 543.150864 161360.657098 
L 544.328983 161360.657098 
L 545.507102 161360.657098 
L 546.685221 161360.657098 
L 547.86334 161360.657098 
L 549.041459 161360.657098 
L 550.219578 161360.657098 
L 551.397697 161360.657098 
L 552.575816 161360.657098 
L 553.753935 161360.657098 
L 554.932054 161360.657098 
L 556.110173 161360.657098 
L 557.288292 161360.657098 
L 558.466411 161360.657098 
L 559.64453 161360.657098 
L 560.822649 161360.657098 
L 562.000768 161360.657098 
L 563.178887 161360.657098 
L 564.357006 161360.657098 
L 565.535125 161360.657098 
L 566.713244 161360.657098 
L 567.891363 161360.657098 
L 569.069482 161360.657098 
L 570.247601 161360.657098 
L 571.42572 161360.657098 
L 572.603839 161360.657098 
L 573.781958 161360.657098 
L 574.960077 161360.657098 
L 576.138196 161360.657098 
L 577.316315 161360.657098 
L 578.494434 161360.657098 
L 579.672553 161360.657098 
L 580.850672 161360.657098 
L 582.028791 161360.657098 
L 583.20691 161360.657098 
L 584.385029 161360.657098 
L 585.563148 161360.657098 
L 586.741267 161360.657098 
L 587.919386 161360.657098 
L 589.097505 499.75007 
L 590.275624 474.82854 
L 591.453743 474.82854 
L 592.631862 474.82854 
L 593.809981 474.82854 
L 594.9881 474.82854 
L 596.166219 474.82854 
L 597.344338 474.82854 
L 598.522457 474.82854 
L 599.700576 474.82854 
L 600.878695 474.82854 
L 602.056814 474.82854 
L 603.234933 474.82854 
L 604.413052 499.75007 
L 605.591171 161360.657098 
L 606.76929 161360.657098 
L 607.947409 161360.657098 
L 609.125528 161360.657098 
L 610.303647 161360.657098 
L 611.481766 161360.657098 
L 612.659885 161360.657098 
L 613.838004 161360.657098 
L 615.016123 161360.657098 
L 616.194242 161360.657098 
L 617.372361 161360.657098 
L 618.55048 161360.657098 
L 619.728599 161360.657098 
L 620.906718 161360.657098 
L 622.084837 161360.657098 
L 623.262956 161360.657098 
L 624.441075 161360.657098 
L 625.619194 161360.657098 
L 626.797313 161360.657098 
L 627.975432 161360.657098 
L 629.153551 161360.657098 
L 630.33167 161360.657098 
L 631.509789 161360.657098 
L 632.687908 161360.657098 
L 633.866027 161360.657098 
L 635.044146 161360.657098 
L 636.222265 161360.657098 
L 637.400384 161360.657098 
L 638.578503 161360.657098 
L 639.756622 161360.657098 
L 640.934741 161360.657098 
L 642.11286 161360.657098 
L 643.290979 161360.657098 
L 644.469098 161360.657098 
L 645.647217 161360.657098 
L 646.825336 161360.657098 
L 648.003455 161360.657098 
L 649.181574 161360.657098 
L 650.359693 161360.657098 
L 651.537812 161360.657098 
L 652.715931 161360.657098 
L 653.89405 161360.657098 
L 655.072169 161360.657098 
L 656.250288 161360.657098 
L 657.428407 161360.657098 
L 658.606526 161360.657098 
L 659.784645 161360.657098 
L 660.962764 161360.657098 
L 662.140883 161360.657098 
L 663.319002 161360.657098 
L 664.497121 161360.657098 
L 665.67524 499.75007 
L 666.853359 499.75007 
L 668.031478 499.75007 
L 669.209597 161360.657098 
L 670.387716 499.75007 
L 671.565835 499.75007 
L 672.743954 499.75007 
L 673.922073 499.75007 
L 675.100192 499.75007 
L 676.278311 499.75007 
L 677.45643 474.82854 
L 678.634549 474.82854 
L 679.812668 474.82854 
L 680.990787 474.82854 
L 682.168906 499.75007 
L 683.347025 499.75007 
L 684.525144 499.75007 
L 685.703263 499.75007 
L 686.881382 161360.657098 
L 688.059501 161360.657098 
L 689.23762 161360.657098 
L 690.415739 161360.657098 
L 691.593858 161360.657098 
L 692.771977 161360.657098 
L 693.950096 161360.657098 
L 695.128215 161360.657098 
L 696.306334 161360.657098 
L 697.484453 161360.657098 
L 698.662572 161360.657098 
L 699.840691 161360.657098 
L 701.01881 161360.657098 
L 702.196929 161360.657098 
L 703.375048 161360.657098 
L 704.553167 161360.657098 
L 705.731286 161360.657098 
L 706.909405 161360.657098 
L 708.087524 161360.657098 
L 709.265643 161360.657098 
L 710.443762 161360.657098 
L 711.621881 161360.657098 
L 712.8 161360.657098 
L 712.8 161360.657098 
L 712.8 161360.657098 
L 711.621881 161360.657098 
L 710.443762 161360.657098 
L 709.265643 161360.657098 
L 708.087524 161360.657098 
L 706.909405 161360.657098 
L 705.731286 161360.657098 
L 704.553167 161360.657098 
L 703.375048 161360.657098 
L 702.196929 161360.657098 
L 701.01881 161360.657098 
L 699.840691 161360.657098 
L 698.662572 161360.657098 
L 697.484453 161360.657098 
L 696.306334 161360.657098 
L 695.128215 161360.657098 
L 693.950096 161360.657098 
L 692.771977 161360.657098 
L 691.593858 161360.657098 
L 690.415739 161360.657098 
L 689.23762 161360.657098 
L 688.059501 161360.657098 
L 686.881382 161360.657098 
L 685.703263 161360.657098 
L 684.525144 161360.657098 
L 683.347025 161360.657098 
L 682.168906 161360.657098 
L 680.990787 161360.657098 
L 679.812668 161360.657098 
L 678.634549 161360.657098 
L 677.45643 161360.657098 
L 676.278311 161360.657098 
L 675.100192 161360.657098 
L 673.922073 161360.657098 
L 672.743954 161360.657098 
L 671.565835 161360.657098 
L 670.387716 161360.657098 
L 669.209597 161360.657098 
L 668.031478 161360.657098 
L 666.853359 161360.657098 
L 665.67524 161360.657098 
L 664.497121 161360.657098 
L 663.319002 161360.657098 
L 662.140883 161360.657098 
L 660.962764 161360.657098 
L 659.784645 161360.657098 
L 658.606526 161360.657098 
L 657.428407 161360.657098 
L 656.250288 161360.657098 
L 655.072169 161360.657098 
L 653.89405 161360.657098 
L 652.715931 161360.657098 
L 651.537812 161360.657098 
L 650.359693 161360.657098 
L 649.181574 161360.657098 
L 648.003455 161360.657098 
L 646.825336 161360.657098 
L 645.647217 161360.657098 
L 644.469098 161360.657098 
L 643.290979 161360.657098 
L 642.11286 161360.657098 
L 640.934741 161360.657098 
L 639.756622 161360.657098 
L 638.578503 161360.657098 
L 637.400384 161360.657098 
L 636.222265 161360.657098 
L 635.044146 161360.657098 
L 633.866027 161360.657098 
L 632.687908 161360.657098 
L 631.509789 161360.657098 
L 630.33167 161360.657098 
L 629.153551 161360.657098 
L 627.975432 161360.657098 
L 626.797313 161360.657098 
L 625.619194 161360.657098 
L 624.441075 161360.657098 
L 623.262956 161360.657098 
L 622.084837 161360.657098 
L 620.906718 161360.657098 
L 619.728599 161360.657098 
L 618.55048 161360.657098 
L 617.372361 161360.657098 
L 616.194242 161360.657098 
L 615.016123 161360.657098 
L 613.838004 161360.657098 
L 612.659885 161360.657098 
L 611.481766 161360.657098 
L 610.303647 161360.657098 
L 609.125528 161360.657098 
L 607.947409 161360.657098 
L 606.76929 161360.657098 
L 605.591171 161360.657098 
L 604.413052 161360.657098 
L 603.234933 161360.657098 
L 602.056814 161360.657098 
L 600.878695 161360.657098 
L 599.700576 161360.657098 
L 598.522457 161360.657098 
L 597.344338 161360.657098 
L 596.166219 161360.657098 
L 594.9881 161360.657098 
L 593.809981 161360.657098 
L 592.631862 161360.657098 
L 591.453743 161360.657098 
L 590.275624 161360.657098 
L 589.097505 161360.657098 
L 587.919386 161360.657098 
L 586.741267 161360.657098 
L 585.563148 161360.657098 
L 584.385029 161360.657098 
L 583.20691 161360.657098 
L 582.028791 161360.657098 
L 580.850672 161360.657098 
L 579.672553 161360.657098 
L 578.494434 161360.657098 
L 577.316315 161360.657098 
L 576.138196 161360.657098 
L 574.960077 161360.657098 
L 573.781958 161360.657098 
L 572.603839 161360.657098 
L 571.42572 161360.657098 
L 570.247601 161360.657098 
L 569.069482 161360.657098 
L 567.891363 161360.657098 
L 566.713244 161360.657098 
L 565.535125 161360.657098 
L 564.357006 161360.657098 
L 563.178887 161360.657098 
L 562.000768 161360.657098 
L 560.822649 161360.657098 
L 559.64453 161360.657098 
L 558.466411 161360.657098 
L 557.288292 161360.657098 
L 556.110173 161360.657098 
L 554.932054 161360.657098 
L 553.753935 161360.657098 
L 552.575816 161360.657098 
L 551.397697 161360.657098 
L 550.219578 161360.657098 
L 549.041459 161360.657098 
L 547.86334 161360.657098 
L 546.685221 161360.657098 
L 545.507102 161360.657098 
L 544.328983 161360.657098 
L 543.150864 161360.657098 
L 541.972745 161360.657098 
L 540.794626 161360.657098 
L 539.616507 161360.657098 
L 538.438388 161360.657098 
L 537.260269 161360.657098 
L 536.08215 161360.657098 
L 534.904031 161360.657098 
L 533.725912 161360.657098 
L 532.547793 161360.657098 
L 531.369674 161360.657098 
L 530.191555 161360.657098 
L 529.013436 161360.657098 
L 527.835317 161360.657098 
L 526.657198 161360.657098 
L 525.479079 161360.657098 
L 524.30096 161360.657098 
L 523.122841 161360.657098 
L 521.944722 161360.657098 
L 520.766603 161360.657098 
L 519.588484 161360.657098 
L 518.410365 161360.657098 
L 517.232246 161360.657098 
L 516.054127 161360.657098 
L 514.876008 161360.657098 
L 513.697889 161360.657098 
L 512.51977 161360.657098 
L 511.341651 161360.657098 
L 510.163532 161360.657098 
L 508.985413 161360.657098 
L 507.807294 161360.657098 
L 506.629175 161360.657098 
L 505.451056 161360.657098 
L 504.272937 161360.657098 
L 503.094818 161360.657098 
L 501.916699 161360.657098 
L 500.73858 161360.657098 
L 499.560461 161360.657098 
L 498.382342 161360.657098 
L 497.204223 161360.657098 
L 496.026104 161360.657098 
L 494.847985 161360.657098 
L 493.669866 161360.657098 
L 492.491747 161360.657098 
L 491.313628 161360.657098 
L 490.135509 161360.657098 
L 488.95739 161360.657098 
L 487.779271 161360.657098 
L 486.601152 161360.657098 
L 485.423033 161360.657098 
L 484.244914 161360.657098 
L 483.066795 161360.657098 
L 481.888676 161360.657098 
L 480.710557 161360.657098 
L 479.532438 161360.657098 
L 478.354319 161360.657098 
L 477.1762 161360.657098 
L 475.998081 161360.657098 
L 474.819962 161360.657098 
L 473.641843 161360.657098 
L 472.463724 161360.657098 
L 471.285605 161360.657098 
L 470.107486 161360.657098 
L 468.929367 161360.657098 
L 467.751248 161360.657098 
L 466.573129 161360.657098 
L 465.39501 161360.657098 
L 464.216891 161360.657098 
L 463.038772 161360.657098 
L 461.860653 161360.657098 
L 460.682534 161360.657098 
L 459.504415 161360.657098 
L 458.326296 161360.657098 
L 457.148177 161360.657098 
L 455.970058 161360.657098 
L 454.791939 161360.657098 
L 453.61382 161360.657098 
L 452.435701 161360.657098 
L 451.257582 161360.657098 
L 450.079463 161360.657098 
L 448.901344 161360.657098 
L 447.723225 161360.657098 
L 446.545106 161360.657098 
L 445.366987 161360.657098 
L 444.188868 161360.657098 
L 443.010749 161360.657098 
L 441.83263 161360.657098 
L 440.654511 161360.657098 
L 439.476392 161360.657098 
L 438.298273 161360.657098 
L 437.120154 161360.657098 
L 435.942035 161360.657098 
L 434.763916 161360.657098 
L 433.585797 161360.657098 
L 432.407678 161360.657098 
L 431.229559 161360.657098 
L 430.05144 161360.657098 
L 428.873321 161360.657098 
L 427.695202 161360.657098 
L 426.517083 161360.657098 
L 425.338964 161360.657098 
L 424.160845 161360.657098 
L 422.982726 161360.657098 
L 421.804607 161360.657098 
L 420.626488 161360.657098 
L 419.448369 161360.657098 
L 418.27025 161360.657098 
L 417.092131 161360.657098 
L 415.914012 161360.657098 
L 414.735893 161360.657098 
L 413.557774 161360.657098 
L 412.379655 161360.657098 
L 411.201536 161360.657098 
L 410.023417 161360.657098 
L 408.845298 161360.657098 
L 407.667179 161360.657098 
L 406.48906 161360.657098 
L 405.31094 161360.657098 
L 404.132821 161360.657098 
L 402.954702 161360.657098 
L 401.776583 161360.657098 
L 400.598464 161360.657098 
L 399.420345 161360.657098 
L 398.242226 161360.657098 
L 397.064107 161360.657098 
L 395.885988 161360.657098 
L 394.707869 161360.657098 
L 393.52975 161360.657098 
L 392.351631 161360.657098 
L 391.173512 161360.657098 
L 389.995393 161360.657098 
L 388.817274 161360.657098 
L 387.639155 161360.657098 
L 386.461036 161360.657098 
L 385.282917 161360.657098 
L 384.104798 161360.657098 
L 382.926679 161360.657098 
L 381.74856 161360.657098 
L 380.570441 161360.657098 
L 379.392322 161360.657098 
L 378.214203 161360.657098 
L 377.036084 161360.657098 
L 375.857965 161360.657098 
L 374.679846 161360.657098 
L 373.501727 161360.657098 
L 372.323608 161360.657098 
L 371.145489 161360.657098 
L 369.96737 161360.657098 
L 368.789251 161360.657098 
L 367.611132 161360.657098 
L 366.433013 161360.657098 
L 365.254894 161360.657098 
L 364.076775 161360.657098 
L 362.898656 161360.657098 
L 361.720537 161360.657098 
L 360.542418 161360.657098 
L 359.364299 161360.657098 
L 358.18618 161360.657098 
L 357.008061 161360.657098 
L 355.829942 161360.657098 
L 354.651823 161360.657098 
L 353.473704 161360.657098 
L 352.295585 161360.657098 
L 351.117466 161360.657098 
L 349.939347 161360.657098 
L 348.761228 482.190272 
L 347.583109 482.190272 
L 346.40499 482.190272 
L 345.226871 161360.657098 
L 344.048752 161360.657098 
L 342.870633 161360.657098 
L 341.692514 161360.657098 
L 340.514395 161360.657098 
L 339.336276 161360.657098 
L 338.158157 161360.657098 
L 336.980038 161360.657098 
L 335.801919 161360.657098 
L 334.6238 161360.657098 
L 333.445681 161360.657098 
L 332.267562 161360.657098 
L 331.089443 161360.657098 
L 329.911324 161360.657098 
L 328.733205 161360.657098 
L 327.555086 161360.657098 
L 326.376967 161360.657098 
L 325.198848 161360.657098 
L 324.020729 482.190272 
L 322.84261 482.190272 
L 321.664491 482.190272 
L 320.486372 474.82854 
L 319.308253 474.82854 
L 318.130134 474.82854 
L 316.952015 482.190272 
L 315.773896 482.190272 
L 314.595777 482.190272 
L 313.417658 161360.657098 
L 312.239539 161360.657098 
L 311.06142 161360.657098 
L 309.883301 161360.657098 
L 308.705182 161360.657098 
L 307.527063 161360.657098 
L 306.348944 161360.657098 
L 305.170825 161360.657098 
L 303.992706 161360.657098 
L 302.814587 161360.657098 
L 301.636468 161360.657098 
L 300.458349 161360.657098 
L 299.28023 161360.657098 
L 298.102111 161360.657098 
L 296.923992 161360.657098 
L 295.745873 161360.657098 
L 294.567754 161360.657098 
L 293.389635 161360.657098 
L 292.211516 161360.657098 
L 291.033397 161360.657098 
L 289.855278 161360.657098 
L 288.677159 161360.657098 
L 287.49904 161360.657098 
L 286.320921 161360.657098 
L 285.142802 161360.657098 
L 283.964683 161360.657098 
L 282.786564 161360.657098 
L 281.608445 161360.657098 
L 280.430326 161360.657098 
L 279.252207 161360.657098 
L 278.074088 161360.657098 
L 276.895969 161360.657098 
L 275.71785 161360.657098 
L 274.539731 161360.657098 
L 273.361612 161360.657098 
L 272.183493 161360.657098 
L 271.005374 161360.657098 
L 269.827255 161360.657098 
L 268.649136 161360.657098 
L 267.471017 161360.657098 
L 266.292898 161360.657098 
L 265.114779 161360.657098 
L 263.93666 161360.657098 
L 262.758541 161360.657098 
L 261.580422 161360.657098 
L 260.402303 161360.657098 
L 259.224184 161360.657098 
L 258.046065 161360.657098 
L 256.867946 161360.657098 
L 255.689827 161360.657098 
L 254.511708 161360.657098 
L 253.333589 161360.657098 
L 252.15547 161360.657098 
L 250.977351 161360.657098 
L 249.799232 161360.657098 
L 248.621113 161360.657098 
L 247.442994 161360.657098 
L 246.264875 161360.657098 
L 245.086756 161360.657098 
L 243.908637 161360.657098 
L 242.730518 161360.657098 
L 241.552399 161360.657098 
L 240.37428 161360.657098 
L 239.196161 161360.657098 
L 238.018042 161360.657098 
L 236.839923 161360.657098 
L 235.661804 161360.657098 
L 234.483685 161360.657098 
L 233.305566 161360.657098 
L 232.127447 161360.657098 
L 230.949328 161360.657098 
L 229.771209 161360.657098 
L 228.59309 161360.657098 
L 227.414971 161360.657098 
L 226.236852 161360.657098 
L 225.058733 161360.657098 
L 223.880614 161360.657098 
L 222.702495 161360.657098 
L 221.524376 161360.657098 
L 220.346257 161360.657098 
L 219.168138 161360.657098 
L 217.990019 161360.657098 
L 216.8119 161360.657098 
L 215.633781 161360.657098 
L 214.455662 161360.657098 
L 213.277543 161360.657098 
L 212.099424 161360.657098 
L 210.921305 161360.657098 
L 209.743186 161360.657098 
L 208.565067 161360.657098 
L 207.386948 161360.657098 
L 206.208829 161360.657098 
L 205.03071 161360.657098 
L 203.852591 161360.657098 
L 202.674472 161360.657098 
L 201.496353 161360.657098 
L 200.318234 161360.657098 
L 199.140115 161360.657098 
L 197.961996 161360.657098 
L 196.783877 161360.657098 
L 195.605758 161360.657098 
L 194.427639 161360.657098 
L 193.24952 161360.657098 
L 192.071401 161360.657098 
L 190.893282 161360.657098 
L 189.715163 161360.657098 
L 188.537044 161360.657098 
L 187.358925 161360.657098 
L 186.180806 161360.657098 
L 185.002687 161360.657098 
L 183.824568 161360.657098 
L 182.646449 161360.657098 
L 181.46833 161360.657098 
L 180.290211 161360.657098 
L 179.112092 161360.657098 
L 177.933973 161360.657098 
L 176.755854 161360.657098 
L 175.577735 161360.657098 
L 174.399616 161360.657098 
L 173.221497 161360.657098 
L 172.043378 161360.657098 
L 170.865259 161360.657098 
L 169.68714 161360.657098 
L 168.509021 161360.657098 
L 167.330902 161360.657098 
L 166.152783 161360.657098 
L 164.974664 161360.657098 
L 163.796545 161360.657098 
L 162.618426 161360.657098 
L 161.440307 161360.657098 
L 160.262188 161360.657098 
L 159.084069 161360.657098 
L 157.90595 161360.657098 
L 156.727831 161360.657098 
L 155.549712 161360.657098 
L 154.371593 161360.657098 
L 153.193474 161360.657098 
L 152.015355 161360.657098 
L 150.837236 161360.657098 
L 149.659117 161360.657098 
L 148.480998 161360.657098 
L 147.302879 161360.657098 
L 146.12476 161360.657098 
L 144.946641 161360.657098 
L 143.768522 161360.657098 
L 142.590403 161360.657098 
L 141.412284 161360.657098 
L 140.234165 161360.657098 
L 139.056046 161360.657098 
L 137.877927 161360.657098 
L 136.699808 161360.657098 
L 135.521689 161360.657098 
L 134.34357 161360.657098 
L 133.165451 161360.657098 
L 131.987332 161360.657098 
L 130.809213 161360.657098 
L 129.631094 161360.657098 
L 128.452975 161360.657098 
L 127.274856 161360.657098 
L 126.096737 161360.657098 
L 124.918618 161360.657098 
L 123.740499 161360.657098 
L 122.56238 161360.657098 
L 121.384261 161360.657098 
L 120.206142 161360.657098 
L 119.028023 161360.657098 
L 117.849904 161360.657098 
L 116.671785 161360.657098 
L 115.493666 161360.657098 
L 114.315547 161360.657098 
L 113.137428 161360.657098 
L 111.959309 161360.657098 
L 110.78119 161360.657098 
L 109.603071 161360.657098 
L 108.424952 161360.657098 
L 107.246833 161360.657098 
L 106.068714 161360.657098 
L 104.890595 161360.657098 
L 103.712476 161360.657098 
L 102.534357 161360.657098 
L 101.356238 161360.657098 
L 100.178119 161360.657098 
L 99 161360.657098 
z
" style="fill:#ff8080;fill-opacity:0.5;stroke:#ff8080;stroke-opacity:0.5;"/>
   </g>
   <g id="matplotlib.axis_1">
    <g id="xtick_1">
     <g id="line2d_1">
      <path clip-path="url(#p68e2955192)" d="M 99 544.68 
L 99 73.44 
" style="fill:none;stroke:#b0b0b0;stroke-linecap:square;stroke-width:0.8;"/>
     </g>
     <g id="line2d_2">
      <defs>
       <path d="M 0 0 
L 0 3.5 
" id="m4abed1d830" style="stroke:#000000;stroke-width:0.8;"/>
      </defs>
      <g>
       <use style="stroke:#000000;stroke-width:0.8;" x="99" xlink:href="#m4abed1d830" y="544.68"/>
      </g>
     </g>
    </g>
    <g id="xtick_2">
     <g id="line2d_3">
      <path clip-path="url(#p68e2955192)" d="M 119.028023 544.68 
L 119.028023 73.44 
" style="fill:none;stroke:#b0b0b0;stroke-linecap:square;stroke-width:0.8;"/>
     </g>
     <g id="line2d_4">
      <g>
       <use style="stroke:#000000;stroke-width:0.8;" x="119.028023" xlink:href="#m4abed1d830" y="544.68"/>
      </g>
     </g>
     <g id="text_1">
      <!-- Apr -->
      <g transform="translate(110.378023 559.278437)scale(0.1 -0.1)">
       <defs>
        <path d="M 2188 4044 
L 1331 1722 
L 3047 1722 
L 2188 4044 
z
M 1831 4666 
L 2547 4666 
L 4325 0 
L 3669 0 
L 3244 1197 
L 1141 1197 
L 716 0 
L 50 0 
L 1831 4666 
z
" id="DejaVuSans-41" transform="scale(0.015625)"/>
        <path d="M 1159 525 
L 1159 -1331 
L 581 -1331 
L 581 3500 
L 1159 3500 
L 1159 2969 
Q 1341 3281 1617 3432 
Q 1894 3584 2278 3584 
Q 2916 3584 3314 3078 
Q 3713 2572 3713 1747 
Q 3713 922 3314 415 
Q 2916 -91 2278 -91 
Q 1894 -91 1617 61 
Q 1341 213 1159 525 
z
M 3116 1747 
Q 3116 2381 2855 2742 
Q 2594 3103 2138 3103 
Q 1681 3103 1420 2742 
Q 1159 2381 1159 1747 
Q 1159 1113 1420 752 
Q 1681 391 2138 391 
Q 2594 391 2855 752 
Q 3116 1113 3116 1747 
z
" id="DejaVuSans-70" transform="scale(0.015625)"/>
        <path d="M 2631 2963 
Q 2534 3019 2420 3045 
Q 2306 3072 2169 3072 
Q 1681 3072 1420 2755 
Q 1159 2438 1159 1844 
L 1159 0 
L 581 0 
L 581 3500 
L 1159 3500 
L 1159 2956 
Q 1341 3275 1631 3429 
Q 1922 3584 2338 3584 
Q 2397 3584 2469 3576 
Q 2541 3569 2628 3553 
L 2631 2963 
z
" id="DejaVuSans-72" transform="scale(0.015625)"/>
       </defs>
       <use xlink:href="#DejaVuSans-41"/>
       <use x="68.408203" xlink:href="#DejaVuSans-70"/>
       <use x="131.884766" xlink:href="#DejaVuSans-72"/>
      </g>
     </g>
    </g>
    <g id="xtick_3">
     <g id="line2d_5">
      <path clip-path="url(#p68e2955192)" d="M 226.236852 544.68 
L 226.236852 73.44 
" style="fill:none;stroke:#b0b0b0;stroke-linecap:square;stroke-width:0.8;"/>
     </g>
     <g id="line2d_6">
      <g>
       <use style="stroke:#000000;stroke-width:0.8;" x="226.236852" xlink:href="#m4abed1d830" y="544.68"/>
      </g>
     </g>
     <g id="text_2">
      <!-- Jul -->
      <g transform="translate(220.20404 559.278437)scale(0.1 -0.1)">
       <defs>
        <path d="M 628 4666 
L 1259 4666 
L 1259 325 
Q 1259 -519 939 -900 
Q 619 -1281 -91 -1281 
L -331 -1281 
L -331 -750 
L -134 -750 
Q 284 -750 456 -515 
Q 628 -281 628 325 
L 628 4666 
z
" id="DejaVuSans-4a" transform="scale(0.015625)"/>
        <path d="M 544 1381 
L 544 3500 
L 1119 3500 
L 1119 1403 
Q 1119 906 1312 657 
Q 1506 409 1894 409 
Q 2359 409 2629 706 
Q 2900 1003 2900 1516 
L 2900 3500 
L 3475 3500 
L 3475 0 
L 2900 0 
L 2900 538 
Q 2691 219 2414 64 
Q 2138 -91 1772 -91 
Q 1169 -91 856 284 
Q 544 659 544 1381 
z
M 1991 3584 
L 1991 3584 
z
" id="DejaVuSans-75" transform="scale(0.015625)"/>
        <path d="M 603 4863 
L 1178 4863 
L 1178 0 
L 603 0 
L 603 4863 
z
" id="DejaVuSans-6c" transform="scale(0.015625)"/>
       </defs>
       <use xlink:href="#DejaVuSans-4a"/>
       <use x="29.492188" xlink:href="#DejaVuSans-75"/>
       <use x="92.871094" xlink:href="#DejaVuSans-6c"/>
      </g>
     </g>
    </g>
    <g id="xtick_4">
     <g id="line2d_7">
      <path clip-path="url(#p68e2955192)" d="M 334.6238 544.68 
L 334.6238 73.44 
" style="fill:none;stroke:#b0b0b0;stroke-linecap:square;stroke-width:0.8;"/>
     </g>
     <g id="line2d_8">
      <g>
       <use style="stroke:#000000;stroke-width:0.8;" x="334.6238" xlink:href="#m4abed1d830" y="544.68"/>
      </g>
     </g>
     <g id="text_3">
      <!-- Oct -->
      <g transform="translate(325.978488 559.278437)scale(0.1 -0.1)">
       <defs>
        <path d="M 2522 4238 
Q 1834 4238 1429 3725 
Q 1025 3213 1025 2328 
Q 1025 1447 1429 934 
Q 1834 422 2522 422 
Q 3209 422 3611 934 
Q 4013 1447 4013 2328 
Q 4013 3213 3611 3725 
Q 3209 4238 2522 4238 
z
M 2522 4750 
Q 3503 4750 4090 4092 
Q 4678 3434 4678 2328 
Q 4678 1225 4090 567 
Q 3503 -91 2522 -91 
Q 1538 -91 948 565 
Q 359 1222 359 2328 
Q 359 3434 948 4092 
Q 1538 4750 2522 4750 
z
" id="DejaVuSans-4f" transform="scale(0.015625)"/>
        <path d="M 3122 3366 
L 3122 2828 
Q 2878 2963 2633 3030 
Q 2388 3097 2138 3097 
Q 1578 3097 1268 2742 
Q 959 2388 959 1747 
Q 959 1106 1268 751 
Q 1578 397 2138 397 
Q 2388 397 2633 464 
Q 2878 531 3122 666 
L 3122 134 
Q 2881 22 2623 -34 
Q 2366 -91 2075 -91 
Q 1284 -91 818 406 
Q 353 903 353 1747 
Q 353 2603 823 3093 
Q 1294 3584 2113 3584 
Q 2378 3584 2631 3529 
Q 2884 3475 3122 3366 
z
" id="DejaVuSans-63" transform="scale(0.015625)"/>
        <path d="M 1172 4494 
L 1172 3500 
L 2356 3500 
L 2356 3053 
L 1172 3053 
L 1172 1153 
Q 1172 725 1289 603 
Q 1406 481 1766 481 
L 2356 481 
L 2356 0 
L 1766 0 
Q 1100 0 847 248 
Q 594 497 594 1153 
L 594 3053 
L 172 3053 
L 172 3500 
L 594 3500 
L 594 4494 
L 1172 4494 
z
" id="DejaVuSans-74" transform="scale(0.015625)"/>
       </defs>
       <use xlink:href="#DejaVuSans-4f"/>
       <use x="78.710938" xlink:href="#DejaVuSans-63"/>
       <use x="133.691406" xlink:href="#DejaVuSans-74"/>
      </g>
     </g>
    </g>
    <g id="xtick_5">
     <g id="line2d_9">
      <path clip-path="url(#p68e2955192)" d="M 443.010749 544.68 
L 443.010749 73.44 
" style="fill:none;stroke:#b0b0b0;stroke-linecap:square;stroke-width:0.8;"/>
     </g>
     <g id="line2d_10">
      <g>
       <use style="stroke:#000000;stroke-width:0.8;" x="443.010749" xlink:href="#m4abed1d830" y="544.68"/>
      </g>
     </g>
     <g id="text_4">
      <!-- Jan -->
      <g transform="translate(435.302936 559.278437)scale(0.1 -0.1)">
       <defs>
        <path d="M 2194 1759 
Q 1497 1759 1228 1600 
Q 959 1441 959 1056 
Q 959 750 1161 570 
Q 1363 391 1709 391 
Q 2188 391 2477 730 
Q 2766 1069 2766 1631 
L 2766 1759 
L 2194 1759 
z
M 3341 1997 
L 3341 0 
L 2766 0 
L 2766 531 
Q 2569 213 2275 61 
Q 1981 -91 1556 -91 
Q 1019 -91 701 211 
Q 384 513 384 1019 
Q 384 1609 779 1909 
Q 1175 2209 1959 2209 
L 2766 2209 
L 2766 2266 
Q 2766 2663 2505 2880 
Q 2244 3097 1772 3097 
Q 1472 3097 1187 3025 
Q 903 2953 641 2809 
L 641 3341 
Q 956 3463 1253 3523 
Q 1550 3584 1831 3584 
Q 2591 3584 2966 3190 
Q 3341 2797 3341 1997 
z
" id="DejaVuSans-61" transform="scale(0.015625)"/>
        <path d="M 3513 2113 
L 3513 0 
L 2938 0 
L 2938 2094 
Q 2938 2591 2744 2837 
Q 2550 3084 2163 3084 
Q 1697 3084 1428 2787 
Q 1159 2491 1159 1978 
L 1159 0 
L 581 0 
L 581 3500 
L 1159 3500 
L 1159 2956 
Q 1366 3272 1645 3428 
Q 1925 3584 2291 3584 
Q 2894 3584 3203 3211 
Q 3513 2838 3513 2113 
z
" id="DejaVuSans-6e" transform="scale(0.015625)"/>
       </defs>
       <use xlink:href="#DejaVuSans-4a"/>
       <use x="29.492188" xlink:href="#DejaVuSans-61"/>
       <use x="90.771484" xlink:href="#DejaVuSans-6e"/>
      </g>
      <!-- 2021 -->
      <g transform="translate(430.285749 570.47625)scale(0.1 -0.1)">
       <defs>
        <path d="M 1228 531 
L 3431 531 
L 3431 0 
L 469 0 
L 469 531 
Q 828 903 1448 1529 
Q 2069 2156 2228 2338 
Q 2531 2678 2651 2914 
Q 2772 3150 2772 3378 
Q 2772 3750 2511 3984 
Q 2250 4219 1831 4219 
Q 1534 4219 1204 4116 
Q 875 4013 500 3803 
L 500 4441 
Q 881 4594 1212 4672 
Q 1544 4750 1819 4750 
Q 2544 4750 2975 4387 
Q 3406 4025 3406 3419 
Q 3406 3131 3298 2873 
Q 3191 2616 2906 2266 
Q 2828 2175 2409 1742 
Q 1991 1309 1228 531 
z
" id="DejaVuSans-32" transform="scale(0.015625)"/>
        <path d="M 2034 4250 
Q 1547 4250 1301 3770 
Q 1056 3291 1056 2328 
Q 1056 1369 1301 889 
Q 1547 409 2034 409 
Q 2525 409 2770 889 
Q 3016 1369 3016 2328 
Q 3016 3291 2770 3770 
Q 2525 4250 2034 4250 
z
M 2034 4750 
Q 2819 4750 3233 4129 
Q 3647 3509 3647 2328 
Q 3647 1150 3233 529 
Q 2819 -91 2034 -91 
Q 1250 -91 836 529 
Q 422 1150 422 2328 
Q 422 3509 836 4129 
Q 1250 4750 2034 4750 
z
" id="DejaVuSans-30" transform="scale(0.015625)"/>
        <path d="M 794 531 
L 1825 531 
L 1825 4091 
L 703 3866 
L 703 4441 
L 1819 4666 
L 2450 4666 
L 2450 531 
L 3481 531 
L 3481 0 
L 794 0 
L 794 531 
z
" id="DejaVuSans-31" transform="scale(0.015625)"/>
       </defs>
       <use xlink:href="#DejaVuSans-32"/>
       <use x="63.623047" xlink:href="#DejaVuSans-30"/>
       <use x="127.246094" xlink:href="#DejaVuSans-32"/>
       <use x="190.869141" xlink:href="#DejaVuSans-31"/>
      </g>
     </g>
    </g>
    <g id="xtick_6">
     <g id="line2d_11">
      <path clip-path="url(#p68e2955192)" d="M 549.041459 544.68 
L 549.041459 73.44 
" style="fill:none;stroke:#b0b0b0;stroke-linecap:square;stroke-width:0.8;"/>
     </g>
     <g id="line2d_12">
      <g>
       <use style="stroke:#000000;stroke-width:0.8;" x="549.041459" xlink:href="#m4abed1d830" y="544.68"/>
      </g>
     </g>
     <g id="text_5">
      <!-- Apr -->
      <g transform="translate(540.391459 559.278437)scale(0.1 -0.1)">
       <use xlink:href="#DejaVuSans-41"/>
       <use x="68.408203" xlink:href="#DejaVuSans-70"/>
       <use x="131.884766" xlink:href="#DejaVuSans-72"/>
      </g>
     </g>
    </g>
    <g id="xtick_7">
     <g id="line2d_13">
      <path clip-path="url(#p68e2955192)" d="M 656.250288 544.68 
L 656.250288 73.44 
" style="fill:none;stroke:#b0b0b0;stroke-linecap:square;stroke-width:0.8;"/>
     </g>
     <g id="line2d_14">
      <g>
       <use style="stroke:#000000;stroke-width:0.8;" x="656.250288" xlink:href="#m4abed1d830" y="544.68"/>
      </g>
     </g>
     <g id="text_6">
      <!-- Jul -->
      <g transform="translate(650.217475 559.278437)scale(0.1 -0.1)">
       <use xlink:href="#DejaVuSans-4a"/>
       <use x="29.492188" xlink:href="#DejaVuSans-75"/>
       <use x="92.871094" xlink:href="#DejaVuSans-6c"/>
      </g>
     </g>
    </g>
    <g id="xtick_8">
     <g id="line2d_15">
      <path clip-path="url(#p68e2955192)" d="M 712.8 544.68 
L 712.8 73.44 
" style="fill:none;stroke:#b0b0b0;stroke-linecap:square;stroke-width:0.8;"/>
     </g>
     <g id="line2d_16">
      <g>
       <use style="stroke:#000000;stroke-width:0.8;" x="712.8" xlink:href="#m4abed1d830" y="544.68"/>
      </g>
     </g>
    </g>
    <g id="xtick_9">
     <g id="line2d_17">
      <defs>
       <path d="M 0 0 
L 0 2 
" id="mbe9820739d" style="stroke:#000000;stroke-width:0.6;"/>
      </defs>
      <g>
       <use style="stroke:#000000;stroke-width:0.6;" x="154.371593" xlink:href="#mbe9820739d" y="544.68"/>
      </g>
     </g>
    </g>
    <g id="xtick_10">
     <g id="line2d_18">
      <g>
       <use style="stroke:#000000;stroke-width:0.6;" x="190.893282" xlink:href="#mbe9820739d" y="544.68"/>
      </g>
     </g>
    </g>
    <g id="xtick_11">
     <g id="line2d_19">
      <g>
       <use style="stroke:#000000;stroke-width:0.6;" x="262.758541" xlink:href="#mbe9820739d" y="544.68"/>
      </g>
     </g>
    </g>
    <g id="xtick_12">
     <g id="line2d_20">
      <g>
       <use style="stroke:#000000;stroke-width:0.6;" x="299.28023" xlink:href="#mbe9820739d" y="544.68"/>
      </g>
     </g>
    </g>
    <g id="xtick_13">
     <g id="line2d_21">
      <g>
       <use style="stroke:#000000;stroke-width:0.6;" x="371.145489" xlink:href="#mbe9820739d" y="544.68"/>
      </g>
     </g>
    </g>
    <g id="xtick_14">
     <g id="line2d_22">
      <g>
       <use style="stroke:#000000;stroke-width:0.6;" x="406.48906" xlink:href="#mbe9820739d" y="544.68"/>
      </g>
     </g>
    </g>
    <g id="xtick_15">
     <g id="line2d_23">
      <g>
       <use style="stroke:#000000;stroke-width:0.6;" x="479.532438" xlink:href="#mbe9820739d" y="544.68"/>
      </g>
     </g>
    </g>
    <g id="xtick_16">
     <g id="line2d_24">
      <g>
       <use style="stroke:#000000;stroke-width:0.6;" x="512.51977" xlink:href="#mbe9820739d" y="544.68"/>
      </g>
     </g>
    </g>
    <g id="xtick_17">
     <g id="line2d_25">
      <g>
       <use style="stroke:#000000;stroke-width:0.6;" x="584.385029" xlink:href="#mbe9820739d" y="544.68"/>
      </g>
     </g>
    </g>
    <g id="xtick_18">
     <g id="line2d_26">
      <g>
       <use style="stroke:#000000;stroke-width:0.6;" x="620.906718" xlink:href="#mbe9820739d" y="544.68"/>
      </g>
     </g>
    </g>
    <g id="xtick_19">
     <g id="line2d_27">
      <g>
       <use style="stroke:#000000;stroke-width:0.6;" x="692.771977" xlink:href="#mbe9820739d" y="544.68"/>
      </g>
     </g>
    </g>
    <g id="text_7">
     <!-- Date -->
     <g transform="translate(393.949219 584.154375)scale(0.1 -0.1)">
      <defs>
       <path d="M 1259 4147 
L 1259 519 
L 2022 519 
Q 2988 519 3436 956 
Q 3884 1394 3884 2338 
Q 3884 3275 3436 3711 
Q 2988 4147 2022 4147 
L 1259 4147 
z
M 628 4666 
L 1925 4666 
Q 3281 4666 3915 4102 
Q 4550 3538 4550 2338 
Q 4550 1131 3912 565 
Q 3275 0 1925 0 
L 628 0 
L 628 4666 
z
" id="DejaVuSans-44" transform="scale(0.015625)"/>
       <path d="M 3597 1894 
L 3597 1613 
L 953 1613 
Q 991 1019 1311 708 
Q 1631 397 2203 397 
Q 2534 397 2845 478 
Q 3156 559 3463 722 
L 3463 178 
Q 3153 47 2828 -22 
Q 2503 -91 2169 -91 
Q 1331 -91 842 396 
Q 353 884 353 1716 
Q 353 2575 817 3079 
Q 1281 3584 2069 3584 
Q 2775 3584 3186 3129 
Q 3597 2675 3597 1894 
z
M 3022 2063 
Q 3016 2534 2758 2815 
Q 2500 3097 2075 3097 
Q 1594 3097 1305 2825 
Q 1016 2553 972 2059 
L 3022 2063 
z
" id="DejaVuSans-65" transform="scale(0.015625)"/>
      </defs>
      <use xlink:href="#DejaVuSans-44"/>
      <use x="77.001953" xlink:href="#DejaVuSans-61"/>
      <use x="138.28125" xlink:href="#DejaVuSans-74"/>
      <use x="177.490234" xlink:href="#DejaVuSans-65"/>
     </g>
    </g>
   </g>
   <g id="matplotlib.axis_2">
    <g id="ytick_1">
     <g id="line2d_28">
      <path clip-path="url(#p68e2955192)" d="M 99 474.82854 
L 712.8 474.82854 
" style="fill:none;stroke:#b0b0b0;stroke-linecap:square;stroke-width:0.8;"/>
     </g>
     <g id="line2d_29">
      <defs>
       <path d="M 0 0 
L -3.5 0 
" id="me91a084207" style="stroke:#000000;stroke-width:0.8;"/>
      </defs>
      <g>
       <use style="stroke:#000000;stroke-width:0.8;" x="99" xlink:href="#me91a084207" y="474.82854"/>
      </g>
     </g>
     <g id="text_8">
      <!-- $\mathdefault{10^{0}}$ -->
      <g transform="translate(74.4 478.627758)scale(0.1 -0.1)">
       <use transform="translate(0 0.765625)" xlink:href="#DejaVuSans-31"/>
       <use transform="translate(63.623047 0.765625)" xlink:href="#DejaVuSans-30"/>
       <use transform="translate(128.203125 39.046875)scale(0.7)" xlink:href="#DejaVuSans-30"/>
      </g>
     </g>
    </g>
    <g id="ytick_2">
     <g id="line2d_30">
      <path clip-path="url(#p68e2955192)" d="M 99 313.942711 
L 712.8 313.942711 
" style="fill:none;stroke:#b0b0b0;stroke-linecap:square;stroke-width:0.8;"/>
     </g>
     <g id="line2d_31">
      <g>
       <use style="stroke:#000000;stroke-width:0.8;" x="99" xlink:href="#me91a084207" y="313.942711"/>
      </g>
     </g>
     <g id="text_9">
      <!-- $\mathdefault{10^{1}}$ -->
      <g transform="translate(74.4 317.74193)scale(0.1 -0.1)">
       <use transform="translate(0 0.684375)" xlink:href="#DejaVuSans-31"/>
       <use transform="translate(63.623047 0.684375)" xlink:href="#DejaVuSans-30"/>
       <use transform="translate(128.203125 38.965625)scale(0.7)" xlink:href="#DejaVuSans-31"/>
      </g>
     </g>
    </g>
    <g id="ytick_3">
     <g id="line2d_32">
      <path clip-path="url(#p68e2955192)" d="M 99 153.056883 
L 712.8 153.056883 
" style="fill:none;stroke:#b0b0b0;stroke-linecap:square;stroke-width:0.8;"/>
     </g>
     <g id="line2d_33">
      <g>
       <use style="stroke:#000000;stroke-width:0.8;" x="99" xlink:href="#me91a084207" y="153.056883"/>
      </g>
     </g>
     <g id="text_10">
      <!-- $\mathdefault{10^{2}}$ -->
      <g transform="translate(74.4 156.856101)scale(0.1 -0.1)">
       <use transform="translate(0 0.765625)" xlink:href="#DejaVuSans-31"/>
       <use transform="translate(63.623047 0.765625)" xlink:href="#DejaVuSans-30"/>
       <use transform="translate(128.203125 39.046875)scale(0.7)" xlink:href="#DejaVuSans-32"/>
      </g>
     </g>
    </g>
    <g id="ytick_4">
     <g id="line2d_34">
      <path clip-path="url(#p68e2955192)" d="M 99 538.851448 
L 712.8 538.851448 
" style="fill:none;stroke:#b0b0b0;stroke-linecap:square;stroke-width:0.8;"/>
     </g>
     <g id="line2d_35">
      <defs>
       <path d="M 0 0 
L -2 0 
" id="m0cb60b688e" style="stroke:#000000;stroke-width:0.6;"/>
      </defs>
      <g>
       <use style="stroke:#000000;stroke-width:0.6;" x="99" xlink:href="#m0cb60b688e" y="538.851448"/>
      </g>
     </g>
    </g>
    <g id="ytick_5">
     <g id="line2d_36">
      <path clip-path="url(#p68e2955192)" d="M 99 523.26 
L 712.8 523.26 
" style="fill:none;stroke:#b0b0b0;stroke-linecap:square;stroke-width:0.8;"/>
     </g>
     <g id="line2d_37">
      <g>
       <use style="stroke:#000000;stroke-width:0.6;" x="99" xlink:href="#m0cb60b688e" y="523.26"/>
      </g>
     </g>
    </g>
    <g id="ytick_6">
     <g id="line2d_38">
      <path clip-path="url(#p68e2955192)" d="M 99 510.52086 
L 712.8 510.52086 
" style="fill:none;stroke:#b0b0b0;stroke-linecap:square;stroke-width:0.8;"/>
     </g>
     <g id="line2d_39">
      <g>
       <use style="stroke:#000000;stroke-width:0.6;" x="99" xlink:href="#m0cb60b688e" y="510.52086"/>
      </g>
     </g>
    </g>
    <g id="ytick_7">
     <g id="line2d_40">
      <path clip-path="url(#p68e2955192)" d="M 99 499.75007 
L 712.8 499.75007 
" style="fill:none;stroke:#b0b0b0;stroke-linecap:square;stroke-width:0.8;"/>
     </g>
     <g id="line2d_41">
      <g>
       <use style="stroke:#000000;stroke-width:0.6;" x="99" xlink:href="#m0cb60b688e" y="499.75007"/>
      </g>
     </g>
    </g>
    <g id="ytick_8">
     <g id="line2d_42">
      <path clip-path="url(#p68e2955192)" d="M 99 490.419987 
L 712.8 490.419987 
" style="fill:none;stroke:#b0b0b0;stroke-linecap:square;stroke-width:0.8;"/>
     </g>
     <g id="line2d_43">
      <g>
       <use style="stroke:#000000;stroke-width:0.6;" x="99" xlink:href="#m0cb60b688e" y="490.419987"/>
      </g>
     </g>
    </g>
    <g id="ytick_9">
     <g id="line2d_44">
      <path clip-path="url(#p68e2955192)" d="M 99 482.190272 
L 712.8 482.190272 
" style="fill:none;stroke:#b0b0b0;stroke-linecap:square;stroke-width:0.8;"/>
     </g>
     <g id="line2d_45">
      <g>
       <use style="stroke:#000000;stroke-width:0.6;" x="99" xlink:href="#m0cb60b688e" y="482.190272"/>
      </g>
     </g>
    </g>
    <g id="ytick_10">
     <g id="line2d_46">
      <path clip-path="url(#p68e2955192)" d="M 99 426.397079 
L 712.8 426.397079 
" style="fill:none;stroke:#b0b0b0;stroke-linecap:square;stroke-width:0.8;"/>
     </g>
     <g id="line2d_47">
      <g>
       <use style="stroke:#000000;stroke-width:0.6;" x="99" xlink:href="#m0cb60b688e" y="426.397079"/>
      </g>
     </g>
    </g>
    <g id="ytick_11">
     <g id="line2d_48">
      <path clip-path="url(#p68e2955192)" d="M 99 398.066491 
L 712.8 398.066491 
" style="fill:none;stroke:#b0b0b0;stroke-linecap:square;stroke-width:0.8;"/>
     </g>
     <g id="line2d_49">
      <g>
       <use style="stroke:#000000;stroke-width:0.6;" x="99" xlink:href="#m0cb60b688e" y="398.066491"/>
      </g>
     </g>
    </g>
    <g id="ytick_12">
     <g id="line2d_50">
      <path clip-path="url(#p68e2955192)" d="M 99 377.965619 
L 712.8 377.965619 
" style="fill:none;stroke:#b0b0b0;stroke-linecap:square;stroke-width:0.8;"/>
     </g>
     <g id="line2d_51">
      <g>
       <use style="stroke:#000000;stroke-width:0.6;" x="99" xlink:href="#m0cb60b688e" y="377.965619"/>
      </g>
     </g>
    </g>
    <g id="ytick_13">
     <g id="line2d_52">
      <path clip-path="url(#p68e2955192)" d="M 99 362.374171 
L 712.8 362.374171 
" style="fill:none;stroke:#b0b0b0;stroke-linecap:square;stroke-width:0.8;"/>
     </g>
     <g id="line2d_53">
      <g>
       <use style="stroke:#000000;stroke-width:0.6;" x="99" xlink:href="#m0cb60b688e" y="362.374171"/>
      </g>
     </g>
    </g>
    <g id="ytick_14">
     <g id="line2d_54">
      <path clip-path="url(#p68e2955192)" d="M 99 349.635031 
L 712.8 349.635031 
" style="fill:none;stroke:#b0b0b0;stroke-linecap:square;stroke-width:0.8;"/>
     </g>
     <g id="line2d_55">
      <g>
       <use style="stroke:#000000;stroke-width:0.6;" x="99" xlink:href="#m0cb60b688e" y="349.635031"/>
      </g>
     </g>
    </g>
    <g id="ytick_15">
     <g id="line2d_56">
      <path clip-path="url(#p68e2955192)" d="M 99 338.864241 
L 712.8 338.864241 
" style="fill:none;stroke:#b0b0b0;stroke-linecap:square;stroke-width:0.8;"/>
     </g>
     <g id="line2d_57">
      <g>
       <use style="stroke:#000000;stroke-width:0.6;" x="99" xlink:href="#m0cb60b688e" y="338.864241"/>
      </g>
     </g>
    </g>
    <g id="ytick_16">
     <g id="line2d_58">
      <path clip-path="url(#p68e2955192)" d="M 99 329.534159 
L 712.8 329.534159 
" style="fill:none;stroke:#b0b0b0;stroke-linecap:square;stroke-width:0.8;"/>
     </g>
     <g id="line2d_59">
      <g>
       <use style="stroke:#000000;stroke-width:0.6;" x="99" xlink:href="#m0cb60b688e" y="329.534159"/>
      </g>
     </g>
    </g>
    <g id="ytick_17">
     <g id="line2d_60">
      <path clip-path="url(#p68e2955192)" d="M 99 321.304443 
L 712.8 321.304443 
" style="fill:none;stroke:#b0b0b0;stroke-linecap:square;stroke-width:0.8;"/>
     </g>
     <g id="line2d_61">
      <g>
       <use style="stroke:#000000;stroke-width:0.6;" x="99" xlink:href="#m0cb60b688e" y="321.304443"/>
      </g>
     </g>
    </g>
    <g id="ytick_18">
     <g id="line2d_62">
      <path clip-path="url(#p68e2955192)" d="M 99 265.511251 
L 712.8 265.511251 
" style="fill:none;stroke:#b0b0b0;stroke-linecap:square;stroke-width:0.8;"/>
     </g>
     <g id="line2d_63">
      <g>
       <use style="stroke:#000000;stroke-width:0.6;" x="99" xlink:href="#m0cb60b688e" y="265.511251"/>
      </g>
     </g>
    </g>
    <g id="ytick_19">
     <g id="line2d_64">
      <path clip-path="url(#p68e2955192)" d="M 99 237.180663 
L 712.8 237.180663 
" style="fill:none;stroke:#b0b0b0;stroke-linecap:square;stroke-width:0.8;"/>
     </g>
     <g id="line2d_65">
      <g>
       <use style="stroke:#000000;stroke-width:0.6;" x="99" xlink:href="#m0cb60b688e" y="237.180663"/>
      </g>
     </g>
    </g>
    <g id="ytick_20">
     <g id="line2d_66">
      <path clip-path="url(#p68e2955192)" d="M 99 217.079791 
L 712.8 217.079791 
" style="fill:none;stroke:#b0b0b0;stroke-linecap:square;stroke-width:0.8;"/>
     </g>
     <g id="line2d_67">
      <g>
       <use style="stroke:#000000;stroke-width:0.6;" x="99" xlink:href="#m0cb60b688e" y="217.079791"/>
      </g>
     </g>
    </g>
    <g id="ytick_21">
     <g id="line2d_68">
      <path clip-path="url(#p68e2955192)" d="M 99 201.488343 
L 712.8 201.488343 
" style="fill:none;stroke:#b0b0b0;stroke-linecap:square;stroke-width:0.8;"/>
     </g>
     <g id="line2d_69">
      <g>
       <use style="stroke:#000000;stroke-width:0.6;" x="99" xlink:href="#m0cb60b688e" y="201.488343"/>
      </g>
     </g>
    </g>
    <g id="ytick_22">
     <g id="line2d_70">
      <path clip-path="url(#p68e2955192)" d="M 99 188.749203 
L 712.8 188.749203 
" style="fill:none;stroke:#b0b0b0;stroke-linecap:square;stroke-width:0.8;"/>
     </g>
     <g id="line2d_71">
      <g>
       <use style="stroke:#000000;stroke-width:0.6;" x="99" xlink:href="#m0cb60b688e" y="188.749203"/>
      </g>
     </g>
    </g>
    <g id="ytick_23">
     <g id="line2d_72">
      <path clip-path="url(#p68e2955192)" d="M 99 177.978413 
L 712.8 177.978413 
" style="fill:none;stroke:#b0b0b0;stroke-linecap:square;stroke-width:0.8;"/>
     </g>
     <g id="line2d_73">
      <g>
       <use style="stroke:#000000;stroke-width:0.6;" x="99" xlink:href="#m0cb60b688e" y="177.978413"/>
      </g>
     </g>
    </g>
    <g id="ytick_24">
     <g id="line2d_74">
      <path clip-path="url(#p68e2955192)" d="M 99 168.64833 
L 712.8 168.64833 
" style="fill:none;stroke:#b0b0b0;stroke-linecap:square;stroke-width:0.8;"/>
     </g>
     <g id="line2d_75">
      <g>
       <use style="stroke:#000000;stroke-width:0.6;" x="99" xlink:href="#m0cb60b688e" y="168.64833"/>
      </g>
     </g>
    </g>
    <g id="ytick_25">
     <g id="line2d_76">
      <path clip-path="url(#p68e2955192)" d="M 99 160.418614 
L 712.8 160.418614 
" style="fill:none;stroke:#b0b0b0;stroke-linecap:square;stroke-width:0.8;"/>
     </g>
     <g id="line2d_77">
      <g>
       <use style="stroke:#000000;stroke-width:0.6;" x="99" xlink:href="#m0cb60b688e" y="160.418614"/>
      </g>
     </g>
    </g>
    <g id="ytick_26">
     <g id="line2d_78">
      <path clip-path="url(#p68e2955192)" d="M 99 104.625422 
L 712.8 104.625422 
" style="fill:none;stroke:#b0b0b0;stroke-linecap:square;stroke-width:0.8;"/>
     </g>
     <g id="line2d_79">
      <g>
       <use style="stroke:#000000;stroke-width:0.6;" x="99" xlink:href="#m0cb60b688e" y="104.625422"/>
      </g>
     </g>
    </g>
    <g id="ytick_27">
     <g id="line2d_80">
      <path clip-path="url(#p68e2955192)" d="M 99 76.294834 
L 712.8 76.294834 
" style="fill:none;stroke:#b0b0b0;stroke-linecap:square;stroke-width:0.8;"/>
     </g>
     <g id="line2d_81">
      <g>
       <use style="stroke:#000000;stroke-width:0.6;" x="99" xlink:href="#m0cb60b688e" y="76.294834"/>
      </g>
     </g>
    </g>
   </g>
   <g id="line2d_82">
    <path clip-path="url(#p68e2955192)" d="M 114.313974 613 
L 114.315547 398.066491 
L 115.493666 410.805632 
L 116.671785 410.805632 
L 117.849904 387.295702 
L 121.384261 387.295702 
L 122.56238 377.965619 
L 124.918618 377.965619 
L 126.096737 369.735903 
L 127.274856 344.042301 
L 128.452975 344.042301 
L 129.631094 329.534159 
L 130.809213 260.458074 
L 131.987332 226.409873 
L 133.165451 226.409873 
L 134.34357 260.458074 
L 135.521689 232.671238 
L 136.699808 226.409873 
L 137.877927 226.409873 
L 139.056046 232.671238 
L 140.234165 269.095207 
L 141.412284 269.095207 
L 142.590403 232.671238 
L 144.946641 232.671238 
L 146.12476 254.243151 
L 148.480998 334.043583 
L 149.659117 292.973855 
L 150.837236 292.973855 
L 152.015355 334.043583 
L 153.193474 369.735903 
L 154.371593 398.066491 
L 155.549712 410.805632 
L 156.727831 446.497952 
L 157.90595 474.82854 
L 159.084069 474.82854 
L 160.262188 523.26 
L 160.262845 613 
M 192.070744 613 
L 192.071401 523.26 
L 192.072058 613 
M 194.426982 613 
L 194.427639 523.26 
L 196.783877 523.26 
L 196.784534 613 
M 199.139458 613 
L 199.140115 523.26 
L 199.140773 613 
M 205.030053 613 
L 205.03071 523.26 
L 205.031368 613 
M 207.386291 613 
L 207.386948 523.26 
L 207.387606 613 
M 209.742529 613 
L 209.743186 523.26 
L 210.921305 523.26 
L 212.099424 474.82854 
L 216.8119 474.82854 
L 217.990019 446.497952 
L 219.168138 446.497952 
L 220.346257 410.805632 
L 222.702495 410.805632 
L 223.880614 398.066491 
L 225.058733 387.295702 
L 226.236852 369.735903 
L 227.414971 362.374171 
L 228.59309 362.374171 
L 229.771209 387.295702 
L 230.949328 387.295702 
L 232.127447 362.374171 
L 233.305566 362.374171 
L 234.483685 377.965619 
L 235.661804 387.295702 
L 236.839923 398.066491 
L 239.196161 398.066491 
L 240.37428 426.397079 
L 242.730518 426.397079 
L 243.908637 446.497952 
L 245.086756 474.82854 
L 256.867946 474.82854 
L 258.046065 446.497952 
L 259.224184 426.397079 
L 260.402303 410.805632 
L 261.580422 410.805632 
L 262.758541 398.066491 
L 273.361612 398.066491 
L 275.71785 344.042301 
L 276.895969 334.043583 
L 278.074088 325.298206 
L 280.430326 325.298206 
L 282.786564 290.432781 
L 283.964683 287.980886 
L 285.142802 283.321038 
L 286.320921 274.841333 
L 288.677159 274.841333 
L 289.855278 263.785933 
L 291.033397 254.243151 
L 292.211516 245.848448 
L 293.389635 216.211806 
L 294.567754 194.196518 
L 296.923992 194.196518 
L 298.102111 189.923547 
L 301.636468 189.923547 
L 302.814587 192.333159 
L 305.170825 192.333159 
L 306.348944 196.760909 
L 307.527063 196.760909 
L 308.705182 198.74792 
L 309.883301 198.74792 
L 311.06142 202.190578 
L 314.595777 202.190578 
L 315.773896 207.314368 
L 316.952015 207.314368 
L 318.130134 213.670733 
L 319.308253 225.418767 
L 320.486372 236.02573 
L 321.664491 236.02573 
L 322.84261 225.418767 
L 325.198848 225.418767 
L 326.376967 236.02573 
L 329.911324 236.02573 
L 331.089443 240.764619 
L 334.6238 240.764619 
L 336.980038 210.420294 
L 339.336276 210.420294 
L 340.514395 208.850075 
L 341.692514 205.072299 
L 342.870633 193.569861 
L 344.048752 190.518204 
L 345.226871 184.787795 
L 346.40499 184.787795 
L 347.583109 182.621053 
L 348.761228 182.621053 
L 349.939347 181.562369 
L 351.117466 181.038982 
L 352.295585 176.987306 
L 353.473704 181.562369 
L 355.829942 181.562369 
L 357.008061 176.987306 
L 358.18618 169.970865 
L 359.364299 165.239272 
L 360.542418 164.002571 
L 364.076775 164.002571 
L 365.254894 165.656419 
L 366.433013 165.656419 
L 367.611132 166.498258 
L 368.789251 166.923012 
L 371.145489 166.923012 
L 372.323608 168.21299 
L 375.857965 168.21299 
L 377.036084 172.232287 
L 381.74856 172.232287 
L 382.926679 167.780346 
L 384.104798 164.412377 
L 385.282917 166.498258 
L 387.639155 166.498258 
L 388.817274 158.12753 
L 389.995393 166.498258 
L 391.173512 164.824602 
L 392.351631 174.569355 
L 393.52975 176.010062 
L 394.707869 176.010062 
L 395.885988 164.824602 
L 397.064107 176.010062 
L 398.242226 183.696026 
L 399.420345 193.569861 
L 400.598464 197.416988 
L 401.776583 199.423015 
L 404.132821 199.423015 
L 405.31094 206.55899 
L 406.48906 217.079791 
L 407.667179 223.477758 
L 408.845298 224.441522 
L 410.023417 226.409873 
L 411.201536 226.409873 
L 412.379655 231.587933 
L 413.557774 239.549426 
L 415.914012 262.102193 
L 417.092131 269.095207 
L 418.27025 265.511251 
L 419.448369 265.511251 
L 420.626488 274.841333 
L 421.804607 274.841333 
L 422.982726 278.952627 
L 424.160845 278.952627 
L 425.338964 283.321038 
L 426.517083 285.612123 
L 428.873321 295.610841 
L 430.05144 298.351263 
L 431.229559 298.351263 
L 432.407678 304.177289 
L 433.585797 304.177289 
L 434.763916 310.533653 
L 435.942035 317.526667 
L 437.120154 338.864241 
L 443.010749 338.864241 
L 444.188868 344.042301 
L 445.366987 355.714675 
L 446.545106 355.714675 
L 447.723225 321.304443 
L 448.901344 313.942711 
L 450.079463 321.304443 
L 451.257582 313.942711 
L 454.791939 313.942711 
L 455.970058 321.304443 
L 457.148177 321.304443 
L 458.326296 313.942711 
L 459.504415 301.203571 
L 461.860653 301.203571 
L 463.038772 317.526667 
L 464.216891 317.526667 
L 465.39501 329.534159 
L 466.573129 317.526667 
L 468.929367 317.526667 
L 470.107486 321.304443 
L 471.285605 338.864241 
L 472.463724 317.526667 
L 473.641843 338.864241 
L 474.819962 355.714675 
L 478.354319 355.714675 
L 479.532438 338.864241 
L 480.710557 355.714675 
L 481.888676 338.864241 
L 483.066795 355.714675 
L 484.244914 355.714675 
L 485.423033 338.864241 
L 492.491747 338.864241 
L 493.669866 344.042301 
L 494.847985 344.042301 
L 496.026104 362.374171 
L 497.204223 362.374171 
L 498.382342 377.965619 
L 499.560461 387.295702 
L 500.73858 387.295702 
L 501.916699 398.066491 
L 506.629175 398.066491 
L 507.807294 410.805632 
L 508.985413 410.805632 
L 510.163532 426.397079 
L 516.054127 426.397079 
L 517.232246 446.497952 
L 518.410365 426.397079 
L 519.588484 446.497952 
L 523.122841 446.497952 
L 524.30096 426.397079 
L 533.725912 426.397079 
L 534.904031 446.497952 
L 537.260269 446.497952 
L 538.438388 426.397079 
L 539.616507 426.397079 
L 540.794626 410.805632 
L 541.972745 426.397079 
L 543.150864 426.397079 
L 544.328983 410.805632 
L 546.685221 410.805632 
L 547.86334 426.397079 
L 550.219578 426.397079 
L 551.397697 410.805632 
L 556.110173 410.805632 
L 557.288292 426.397079 
L 558.466411 410.805632 
L 559.64453 410.805632 
L 560.822649 426.397079 
L 562.000768 426.397079 
L 563.178887 410.805632 
L 564.357006 398.066491 
L 567.891363 398.066491 
L 569.069482 387.295702 
L 570.247601 387.295702 
L 571.42572 377.965619 
L 572.603839 369.735903 
L 573.781958 362.374171 
L 579.672553 362.374171 
L 580.850672 355.714675 
L 582.028791 338.864241 
L 583.20691 338.864241 
L 584.385029 329.534159 
L 585.563148 329.534159 
L 586.741267 338.864241 
L 587.919386 329.534159 
L 589.097505 329.534159 
L 590.275624 338.864241 
L 591.453743 338.864241 
L 592.631862 329.534159 
L 593.809981 329.534159 
L 594.9881 334.043583 
L 596.166219 344.042301 
L 597.344338 344.042301 
L 598.522457 355.714675 
L 599.700576 344.042301 
L 602.056814 344.042301 
L 603.234933 321.304443 
L 604.413052 344.042301 
L 606.76929 344.042301 
L 607.947409 338.864241 
L 609.125528 344.042301 
L 610.303647 344.042301 
L 611.481766 349.635031 
L 612.659885 349.635031 
L 613.838004 355.714675 
L 615.016123 349.635031 
L 616.194242 355.714675 
L 617.372361 387.295702 
L 618.55048 387.295702 
L 619.728599 426.397079 
L 626.797313 426.397079 
L 627.975432 387.295702 
L 629.153551 387.295702 
L 630.33167 355.714675 
L 631.509789 355.714675 
L 632.687908 349.635031 
L 639.756622 349.635031 
L 640.934741 355.714675 
L 644.469098 355.714675 
L 645.647217 349.635031 
L 652.715931 349.635031 
L 653.89405 355.714675 
L 655.072169 355.714675 
L 657.428407 344.042301 
L 659.784645 344.042301 
L 660.962764 349.635031 
L 662.140883 349.635031 
L 663.319002 344.042301 
L 664.497121 329.534159 
L 665.67524 334.043583 
L 669.209597 334.043583 
L 670.387716 325.298206 
L 671.565835 334.043583 
L 673.922073 377.965619 
L 678.634549 377.965619 
L 679.812668 398.066491 
L 680.990787 398.066491 
L 682.168906 446.497952 
L 688.059501 446.497952 
L 689.23762 410.805632 
L 690.415739 398.066491 
L 692.771977 398.066491 
L 693.950096 349.635031 
L 695.128215 349.635031 
L 696.306334 334.043583 
L 697.484453 334.043583 
L 698.662572 329.534159 
L 701.01881 329.534159 
L 702.196929 313.942711 
L 703.375048 278.952627 
L 704.553167 258.851754 
L 705.731286 247.17938 
L 706.909405 239.549426 
L 709.265643 239.549426 
L 710.443762 238.355007 
L 711.621881 222.527106 
L 712.8 216.211806 
L 712.8 216.211806 
" style="fill:none;stroke:#1f77b4;stroke-linecap:square;stroke-width:1.5;"/>
   </g>
   <g id="line2d_83">
    <path clip-path="url(#p68e2955192)" d="M 305.170168 613 
L 305.170825 523.26 
L 306.348944 523.26 
L 307.527063 474.82854 
L 353.473704 474.82854 
L 354.651823 523.26 
L 361.720537 523.26 
L 361.721195 613 
M 364.076118 613 
L 364.076775 523.26 
L 364.077433 613 
M 366.432356 613 
L 366.433013 523.26 
L 367.611132 474.82854 
L 371.145489 474.82854 
L 372.323608 523.26 
L 373.501727 474.82854 
L 374.679846 474.82854 
L 375.857965 523.26 
L 377.036084 474.82854 
L 378.214203 523.26 
L 380.570441 523.26 
L 381.74856 474.82854 
L 382.926679 523.26 
L 382.927337 613 
M 388.816617 613 
L 388.817274 523.26 
L 389.995393 523.26 
L 389.996051 613 
M 392.350974 613 
L 392.351631 523.26 
L 394.707869 523.26 
L 395.885988 474.82854 
L 397.064107 523.26 
L 398.242226 523.26 
L 399.420345 474.82854 
L 405.31094 474.82854 
L 406.48906 523.26 
L 407.667179 523.26 
L 407.667836 613 
L 407.667836 613 
" style="fill:none;stroke:#ff7f0e;stroke-linecap:square;stroke-width:1.5;"/>
   </g>
   <g id="patch_3">
    <path d="M 99 544.68 
L 99 73.44 
" style="fill:none;stroke:#000000;stroke-linecap:square;stroke-linejoin:miter;stroke-width:0.8;"/>
   </g>
   <g id="patch_4">
    <path d="M 712.8 544.68 
L 712.8 73.44 
" style="fill:none;stroke:#000000;stroke-linecap:square;stroke-linejoin:miter;stroke-width:0.8;"/>
   </g>
   <g id="patch_5">
    <path d="M 99 544.68 
L 712.8 544.68 
" style="fill:none;stroke:#000000;stroke-linecap:square;stroke-linejoin:miter;stroke-width:0.8;"/>
   </g>
   <g id="patch_6">
    <path d="M 99 73.44 
L 712.8 73.44 
" style="fill:none;stroke:#000000;stroke-linecap:square;stroke-linejoin:miter;stroke-width:0.8;"/>
   </g>
   <g id="legend_1">
    <g id="patch_7">
     <path d="M 616.653125 110.79625 
L 705.8 110.79625 
Q 707.8 110.79625 707.8 108.79625 
L 707.8 80.44 
Q 707.8 78.44 705.8 78.44 
L 616.653125 78.44 
Q 614.653125 78.44 614.653125 80.44 
L 614.653125 108.79625 
Q 614.653125 110.79625 616.653125 110.79625 
z
" style="fill:#ffffff;opacity:0.8;stroke:#cccccc;stroke-linejoin:miter;"/>
    </g>
    <g id="line2d_84">
     <path d="M 618.653125 86.538437 
L 638.653125 86.538437 
" style="fill:none;stroke:#1f77b4;stroke-linecap:square;stroke-width:1.5;"/>
    </g>
    <g id="line2d_85"/>
    <g id="text_11">
     <!-- Avg Cases -->
     <g transform="translate(646.653125 90.038437)scale(0.1 -0.1)">
      <defs>
       <path d="M 191 3500 
L 800 3500 
L 1894 563 
L 2988 3500 
L 3597 3500 
L 2284 0 
L 1503 0 
L 191 3500 
z
" id="DejaVuSans-76" transform="scale(0.015625)"/>
       <path d="M 2906 1791 
Q 2906 2416 2648 2759 
Q 2391 3103 1925 3103 
Q 1463 3103 1205 2759 
Q 947 2416 947 1791 
Q 947 1169 1205 825 
Q 1463 481 1925 481 
Q 2391 481 2648 825 
Q 2906 1169 2906 1791 
z
M 3481 434 
Q 3481 -459 3084 -895 
Q 2688 -1331 1869 -1331 
Q 1566 -1331 1297 -1286 
Q 1028 -1241 775 -1147 
L 775 -588 
Q 1028 -725 1275 -790 
Q 1522 -856 1778 -856 
Q 2344 -856 2625 -561 
Q 2906 -266 2906 331 
L 2906 616 
Q 2728 306 2450 153 
Q 2172 0 1784 0 
Q 1141 0 747 490 
Q 353 981 353 1791 
Q 353 2603 747 3093 
Q 1141 3584 1784 3584 
Q 2172 3584 2450 3431 
Q 2728 3278 2906 2969 
L 2906 3500 
L 3481 3500 
L 3481 434 
z
" id="DejaVuSans-67" transform="scale(0.015625)"/>
       <path id="DejaVuSans-20" transform="scale(0.015625)"/>
       <path d="M 4122 4306 
L 4122 3641 
Q 3803 3938 3442 4084 
Q 3081 4231 2675 4231 
Q 1875 4231 1450 3742 
Q 1025 3253 1025 2328 
Q 1025 1406 1450 917 
Q 1875 428 2675 428 
Q 3081 428 3442 575 
Q 3803 722 4122 1019 
L 4122 359 
Q 3791 134 3420 21 
Q 3050 -91 2638 -91 
Q 1578 -91 968 557 
Q 359 1206 359 2328 
Q 359 3453 968 4101 
Q 1578 4750 2638 4750 
Q 3056 4750 3426 4639 
Q 3797 4528 4122 4306 
z
" id="DejaVuSans-43" transform="scale(0.015625)"/>
       <path d="M 2834 3397 
L 2834 2853 
Q 2591 2978 2328 3040 
Q 2066 3103 1784 3103 
Q 1356 3103 1142 2972 
Q 928 2841 928 2578 
Q 928 2378 1081 2264 
Q 1234 2150 1697 2047 
L 1894 2003 
Q 2506 1872 2764 1633 
Q 3022 1394 3022 966 
Q 3022 478 2636 193 
Q 2250 -91 1575 -91 
Q 1294 -91 989 -36 
Q 684 19 347 128 
L 347 722 
Q 666 556 975 473 
Q 1284 391 1588 391 
Q 1994 391 2212 530 
Q 2431 669 2431 922 
Q 2431 1156 2273 1281 
Q 2116 1406 1581 1522 
L 1381 1569 
Q 847 1681 609 1914 
Q 372 2147 372 2553 
Q 372 3047 722 3315 
Q 1072 3584 1716 3584 
Q 2034 3584 2315 3537 
Q 2597 3491 2834 3397 
z
" id="DejaVuSans-73" transform="scale(0.015625)"/>
      </defs>
      <use xlink:href="#DejaVuSans-41"/>
      <use x="62.533203" xlink:href="#DejaVuSans-76"/>
      <use x="121.712891" xlink:href="#DejaVuSans-67"/>
      <use x="185.189453" xlink:href="#DejaVuSans-20"/>
      <use x="216.976562" xlink:href="#DejaVuSans-43"/>
      <use x="286.800781" xlink:href="#DejaVuSans-61"/>
      <use x="348.080078" xlink:href="#DejaVuSans-73"/>
      <use x="400.179688" xlink:href="#DejaVuSans-65"/>
      <use x="461.703125" xlink:href="#DejaVuSans-73"/>
     </g>
    </g>
    <g id="line2d_86">
     <path d="M 618.653125 101.216562 
L 638.653125 101.216562 
" style="fill:none;stroke:#ff7f0e;stroke-linecap:square;stroke-width:1.5;"/>
    </g>
    <g id="line2d_87"/>
    <g id="text_12">
     <!-- Avg Deaths -->
     <g transform="translate(646.653125 104.716562)scale(0.1 -0.1)">
      <defs>
       <path d="M 3513 2113 
L 3513 0 
L 2938 0 
L 2938 2094 
Q 2938 2591 2744 2837 
Q 2550 3084 2163 3084 
Q 1697 3084 1428 2787 
Q 1159 2491 1159 1978 
L 1159 0 
L 581 0 
L 581 4863 
L 1159 4863 
L 1159 2956 
Q 1366 3272 1645 3428 
Q 1925 3584 2291 3584 
Q 2894 3584 3203 3211 
Q 3513 2838 3513 2113 
z
" id="DejaVuSans-68" transform="scale(0.015625)"/>
      </defs>
      <use xlink:href="#DejaVuSans-41"/>
      <use x="62.533203" xlink:href="#DejaVuSans-76"/>
      <use x="121.712891" xlink:href="#DejaVuSans-67"/>
      <use x="185.189453" xlink:href="#DejaVuSans-20"/>
      <use x="216.976562" xlink:href="#DejaVuSans-44"/>
      <use x="293.978516" xlink:href="#DejaVuSans-65"/>
      <use x="355.501953" xlink:href="#DejaVuSans-61"/>
      <use x="416.78125" xlink:href="#DejaVuSans-74"/>
      <use x="455.990234" xlink:href="#DejaVuSans-68"/>
      <use x="519.369141" xlink:href="#DejaVuSans-73"/>
     </g>
    </g>
   </g>
  </g>
 </g>
 <defs>
  <clipPath id="p68e2955192">
   <rect height="471.24" width="613.8" x="99" y="73.44"/>
  </clipPath>
 </defs>
</svg>
