<?xml version="1.0" encoding="utf-8" standalone="no"?>
<!DOCTYPE svg PUBLIC "-//W3C//DTD SVG 1.1//EN"
  "http://www.w3.org/Graphics/SVG/1.1/DTD/svg11.dtd">
<svg height="612pt" version="1.1" viewBox="0 0 792 612" width="792pt" xmlns="http://www.w3.org/2000/svg" xmlns:xlink="http://www.w3.org/1999/xlink">
 <metadata>
  <rdf:RDF xmlns:cc="http://creativecommons.org/ns#" xmlns:dc="http://purl.org/dc/elements/1.1/" xmlns:rdf="http://www.w3.org/1999/02/22-rdf-syntax-ns#">
   <cc:Work>
    <dc:type rdf:resource="http://purl.org/dc/dcmitype/StillImage"/>
    <dc:format>image/svg+xml</dc:format>
    <dc:creator>
     <cc:Agent>
      <dc:title>Matplotlib v3.4.2, https://matplotlib.org/</dc:title>
     </cc:Agent>
    </dc:creator>
   </cc:Work>
  </rdf:RDF>
 </metadata>
 <defs>
  <style type="text/css">*{stroke-linecap:butt;stroke-linejoin:round;}</style>
 </defs>
 <g id="figure_1">
  <g id="patch_1">
   <path d="M 0 612 
L 792 612 
L 792 0 
L 0 0 
z
" style="fill:#ffffff;"/>
  </g>
  <g id="axes_1">
   <g id="patch_2">
    <path d="M 99 544.68 
L 712.8 544.68 
L 712.8 73.44 
L 99 73.44 
z
" style="fill:#ffffff;"/>
   </g>
   <g id="PolyCollection_1">
    <path clip-path="url(#p68e2955192)" d="M 99 161360.657098 
L 99 161360.657098 
L 100.187234 161360.657098 
L 101.374468 161360.657098 
L 102.561702 161360.657098 
L 103.748936 161360.657098 
L 104.93617 161360.657098 
L 106.123404 161360.657098 
L 107.310638 161360.657098 
L 108.497872 161360.657098 
L 109.685106 161360.657098 
L 110.87234 161360.657098 
L 112.059574 161360.657098 
L 113.246809 161360.657098 
L 114.434043 314.644947 
L 115.621277 314.644947 
L 116.808511 314.644947 
L 117.995745 283.321038 
L 119.182979 283.321038 
L 120.370213 283.321038 
L 121.557447 283.321038 
L 122.744681 196.891633 
L 123.931915 187.708908 
L 125.119149 187.708908 
L 126.306383 187.708908 
L 127.493617 172.232287 
L 128.680851 142.206285 
L 129.868085 142.206285 
L 131.055319 137.857817 
L 132.242553 137.857817 
L 133.429787 137.857817 
L 134.617021 137.857817 
L 135.804255 137.857817 
L 136.991489 137.857817 
L 138.178723 137.857817 
L 139.365957 137.857817 
L 140.553191 137.857817 
L 141.740426 137.857817 
L 142.92766 137.857817 
L 144.114894 160.031512 
L 145.302128 182.834729 
L 146.489362 182.834729 
L 147.676596 196.63043 
L 148.86383 196.63043 
L 150.051064 182.834729 
L 151.238298 182.834729 
L 152.425532 182.834729 
L 153.612766 182.834729 
L 154.8 182.834729 
L 155.987234 182.834729 
L 157.174468 182.834729 
L 158.361702 182.834729 
L 159.548936 182.834729 
L 160.73617 197.416988 
L 161.923404 294.544074 
L 163.110638 426.397079 
L 164.297872 426.397079 
L 165.485106 426.397079 
L 166.67234 437.752574 
L 167.859574 437.752574 
L 169.046809 437.752574 
L 170.234043 437.752574 
L 171.421277 426.397079 
L 172.608511 437.752574 
L 173.795745 437.752574 
L 174.982979 437.752574 
L 176.170213 437.752574 
L 177.357447 426.397079 
L 178.544681 426.397079 
L 179.731915 437.752574 
L 180.919149 437.752574 
L 182.106383 437.752574 
L 183.293617 437.752574 
L 184.480851 389.321114 
L 185.668085 389.321114 
L 186.855319 389.321114 
L 188.042553 395.775406 
L 189.229787 395.775406 
L 190.417021 383.412935 
L 191.604255 383.412935 
L 192.791489 383.412935 
L 193.978723 405.428223 
L 195.165957 405.428223 
L 196.353191 405.428223 
L 197.540426 405.428223 
L 198.72766 405.428223 
L 199.914894 405.428223 
L 201.102128 426.397079 
L 202.289362 426.397079 
L 203.476596 405.428223 
L 204.66383 405.428223 
L 205.851064 405.428223 
L 207.038298 426.397079 
L 208.225532 426.397079 
L 209.412766 437.752574 
L 210.6 426.397079 
L 211.787234 405.428223 
L 212.974468 371.306123 
L 214.161702 345.125607 
L 215.348936 345.125607 
L 216.53617 345.125607 
L 217.723404 345.125607 
L 218.910638 341.924811 
L 220.097872 301.788276 
L 221.285106 301.788276 
L 222.47234 301.788276 
L 223.659574 301.788276 
L 224.846809 301.788276 
L 226.034043 301.788276 
L 227.221277 293.49335 
L 228.408511 293.49335 
L 229.595745 293.49335 
L 230.782979 306.650886 
L 231.970213 306.650886 
L 233.157447 297.242164 
L 234.344681 297.242164 
L 235.531915 297.242164 
L 236.719149 306.650886 
L 237.906383 306.650886 
L 239.093617 306.650886 
L 240.280851 306.650886 
L 241.468085 306.650886 
L 242.655319 306.650886 
L 243.842553 328.666175 
L 245.029787 356.996763 
L 246.217021 389.321114 
L 247.404255 389.321114 
L 248.591489 389.321114 
L 249.778723 389.321114 
L 250.965957 377.965619 
L 252.153191 383.412935 
L 253.340426 383.412935 
L 254.52766 366.697519 
L 255.714894 366.697519 
L 256.902128 366.697519 
L 258.089362 337.873135 
L 259.276596 337.873135 
L 260.46383 337.873135 
L 261.651064 337.873135 
L 262.838298 337.873135 
L 264.025532 337.873135 
L 265.212766 337.873135 
L 266.4 323.673206 
L 267.587234 326.125101 
L 268.774468 321.304443 
L 269.961702 321.304443 
L 271.148936 298.351263 
L 272.33617 298.351263 
L 273.523404 298.351263 
L 274.710638 298.351263 
L 275.897872 290.432781 
L 277.085106 287.023723 
L 278.27234 282.425233 
L 279.459574 257.905395 
L 280.646809 257.905395 
L 281.834043 257.905395 
L 283.021277 244.284088 
L 284.208511 244.284088 
L 285.395745 244.284088 
L 286.582979 204.925355 
L 287.770213 187.708908 
L 288.957447 187.708908 
L 290.144681 187.708908 
L 291.331915 158.579776 
L 292.519149 155.47385 
L 293.706383 136.521582 
L 294.893617 135.372978 
L 296.080851 135.372978 
L 297.268085 135.372978 
L 298.455319 135.372978 
L 299.642553 135.372978 
L 300.829787 135.372978 
L 302.017021 135.372978 
L 303.204255 135.372978 
L 304.391489 135.372978 
L 305.578723 135.372978 
L 306.765957 135.372978 
L 307.953191 145.891066 
L 309.140426 145.891066 
L 310.32766 150.450958 
L 311.514894 158.731178 
L 312.702128 158.731178 
L 313.889362 158.731178 
L 315.076596 158.731178 
L 316.26383 167.436149 
L 317.451064 167.436149 
L 318.638298 167.436149 
L 319.825532 167.953083 
L 321.012766 167.953083 
L 322.2 167.953083 
L 323.387234 167.953083 
L 324.574468 165.656419 
L 325.761702 177.679602 
L 326.948936 177.679602 
L 328.13617 190.042074 
L 329.323404 190.042074 
L 330.510638 190.042074 
L 331.697872 190.042074 
L 332.885106 206.709414 
L 334.07234 182.941812 
L 335.259574 183.587781 
L 336.446809 178.278507 
L 337.634043 176.790761 
L 338.821277 169.262399 
L 340.008511 169.262399 
L 341.195745 140.434292 
L 342.382979 140.434292 
L 343.570213 140.434292 
L 344.757447 140.434292 
L 345.944681 140.434292 
L 347.131915 140.434292 
L 348.319149 140.434292 
L 349.506383 138.706129 
L 350.693617 156.788092 
L 351.880851 156.788092 
L 353.068085 156.788092 
L 354.255319 148.656718 
L 355.442553 148.656718 
L 356.629787 148.656718 
L 357.817021 148.656718 
L 359.004255 137.857817 
L 360.191489 137.857817 
L 361.378723 137.857817 
L 362.565957 137.857817 
L 363.753191 137.857817 
L 364.940426 137.857817 
L 366.12766 136.356335 
L 367.314894 136.356335 
L 368.502128 136.356335 
L 369.689362 136.356335 
L 370.876596 136.356335 
L 372.06383 136.356335 
L 373.251064 136.356335 
L 374.438298 146.143768 
L 375.625532 146.588206 
L 376.812766 146.017303 
L 378 144.147294 
L 379.187234 144.147294 
L 380.374468 144.147294 
L 381.561702 144.147294 
L 382.748936 144.147294 
L 383.93617 119.176576 
L 385.123404 119.176576 
L 386.310638 119.176576 
L 387.497872 119.176576 
L 388.685106 119.176576 
L 389.87234 119.176576 
L 391.059574 94.86 
L 392.246809 94.86 
L 393.434043 94.86 
L 394.621277 94.86 
L 395.808511 94.86 
L 396.995745 94.86 
L 398.182979 94.86 
L 399.370213 120.085983 
L 400.557447 147.228062 
L 401.744681 148.003706 
L 402.931915 148.003706 
L 404.119149 148.003706 
L 405.306383 148.003706 
L 406.493617 148.003706 
L 407.680851 161.277865 
L 408.868085 161.277865 
L 410.055319 183.26405 
L 411.242553 197.416988 
L 412.429787 197.416988 
L 413.617021 197.416988 
L 414.804255 198.61368 
L 415.991489 204.486368 
L 417.178723 215.014463 
L 418.365957 223.095944 
L 419.553191 225.615866 
L 420.740426 225.615866 
L 421.92766 225.615866 
L 423.114894 230.309754 
L 424.302128 234.889578 
L 425.489362 237.648035 
L 426.676596 244.542395 
L 427.86383 244.542395 
L 429.051064 244.542395 
L 430.238298 244.542395 
L 431.425532 251.046793 
L 432.612766 251.046793 
L 433.8 251.046793 
L 434.987234 251.046793 
L 436.174468 237.648035 
L 437.361702 243.514849 
L 438.548936 243.514849 
L 439.73617 243.514849 
L 440.923404 273.653682 
L 442.110638 273.653682 
L 443.297872 285.612123 
L 444.485106 289.935471 
L 445.67234 289.935471 
L 446.859574 289.935471 
L 448.046809 289.935471 
L 449.234043 279.377381 
L 450.421277 279.377381 
L 451.608511 266.213486 
L 452.795745 279.377381 
L 453.982979 279.377381 
L 455.170213 279.377381 
L 456.357447 279.377381 
L 457.544681 279.377381 
L 458.731915 279.377381 
L 459.919149 279.377381 
L 461.106383 279.377381 
L 462.293617 276.866746 
L 463.480851 276.866746 
L 464.668085 276.866746 
L 465.855319 279.377381 
L 467.042553 266.213486 
L 468.229787 279.377381 
L 469.417021 279.377381 
L 470.604255 271.337276 
L 471.791489 271.337276 
L 472.978723 271.337276 
L 474.165957 271.337276 
L 475.353191 271.337276 
L 476.540426 271.337276 
L 477.72766 271.337276 
L 478.914894 276.049522 
L 480.102128 276.049522 
L 481.289362 276.049522 
L 482.476596 264.127605 
L 483.66383 276.049522 
L 484.851064 276.049522 
L 486.038298 277.27897 
L 487.225532 293.49335 
L 488.412766 293.49335 
L 489.6 293.49335 
L 490.787234 287.023723 
L 491.974468 287.023723 
L 493.161702 287.023723 
L 494.348936 287.023723 
L 495.53617 287.023723 
L 496.723404 287.023723 
L 497.910638 287.023723 
L 499.097872 296.694146 
L 500.285106 296.694146 
L 501.47234 296.694146 
L 502.659574 296.694146 
L 503.846809 313.942711 
L 505.034043 313.942711 
L 506.221277 313.942711 
L 507.408511 316.070952 
L 508.595745 320.532371 
L 509.782979 348.480099 
L 510.970213 348.480099 
L 512.157447 348.480099 
L 513.344681 348.480099 
L 514.531915 348.480099 
L 515.719149 348.480099 
L 516.906383 345.125607 
L 518.093617 345.125607 
L 519.280851 345.125607 
L 520.468085 366.697519 
L 521.655319 366.697519 
L 522.842553 366.697519 
L 524.029787 383.412935 
L 525.217021 383.412935 
L 526.404255 377.965619 
L 527.591489 377.965619 
L 528.778723 366.697519 
L 529.965957 366.697519 
L 531.153191 366.697519 
L 532.340426 362.374171 
L 533.52766 366.697519 
L 534.714894 366.697519 
L 535.902128 366.697519 
L 537.089362 366.697519 
L 538.276596 366.697519 
L 539.46383 366.697519 
L 540.651064 366.697519 
L 541.838298 366.697519 
L 543.025532 366.697519 
L 544.212766 362.374171 
L 545.4 366.697519 
L 546.587234 366.697519 
L 547.774468 366.697519 
L 548.961702 377.965619 
L 550.148936 377.965619 
L 551.33617 377.965619 
L 552.523404 377.965619 
L 553.710638 377.965619 
L 554.897872 377.965619 
L 556.085106 377.965619 
L 557.27234 366.697519 
L 558.459574 366.697519 
L 559.646809 366.697519 
L 560.834043 377.965619 
L 562.021277 377.965619 
L 563.208511 377.965619 
L 564.395745 377.965619 
L 565.582979 366.697519 
L 566.770213 362.374171 
L 567.957447 362.374171 
L 569.144681 362.374171 
L 570.331915 362.374171 
L 571.519149 353.218987 
L 572.706383 353.218987 
L 573.893617 353.218987 
L 575.080851 353.218987 
L 576.268085 322.874662 
L 577.455319 304.787527 
L 578.642553 304.787527 
L 579.829787 304.787527 
L 581.017021 304.787527 
L 582.204255 304.787527 
L 583.391489 297.242164 
L 584.578723 297.242164 
L 585.765957 297.242164 
L 586.953191 297.242164 
L 588.140426 297.242164 
L 589.32766 297.242164 
L 590.514894 297.242164 
L 591.702128 285.147857 
L 592.889362 286.550014 
L 594.076596 286.550014 
L 595.26383 286.550014 
L 596.451064 286.550014 
L 597.638298 286.550014 
L 598.825532 286.550014 
L 600.012766 301.203571 
L 601.2 283.321038 
L 602.387234 283.321038 
L 603.574468 278.110787 
L 604.761702 278.110787 
L 605.948936 278.110787 
L 607.13617 278.110787 
L 608.323404 286.550014 
L 609.510638 286.550014 
L 610.697872 286.550014 
L 611.885106 286.550014 
L 613.07234 286.550014 
L 614.259574 286.550014 
L 615.446809 286.550014 
L 616.634043 286.550014 
L 617.821277 302.972572 
L 619.008511 302.972572 
L 620.195745 307.283215 
L 621.382979 311.202288 
L 622.570213 311.202288 
L 623.757447 326.125101 
L 624.944681 311.202288 
L 626.131915 295.075422 
L 627.319149 295.075422 
L 628.506383 295.075422 
L 629.693617 295.075422 
L 630.880851 295.075422 
L 632.068085 295.075422 
L 633.255319 295.075422 
L 634.442553 295.075422 
L 635.629787 295.075422 
L 636.817021 295.075422 
L 638.004255 295.075422 
L 639.191489 295.075422 
L 640.378723 295.075422 
L 641.565957 311.202288 
L 642.753191 316.070952 
L 643.940426 316.070952 
L 645.12766 323.673206 
L 646.314894 323.673206 
L 647.502128 323.673206 
L 648.689362 316.070952 
L 649.876596 286.079495 
L 651.06383 286.079495 
L 652.251064 286.079495 
L 653.438298 283.321038 
L 654.625532 283.321038 
L 655.812766 283.321038 
L 657 278.110787 
L 658.187234 278.110787 
L 659.374468 278.110787 
L 660.561702 278.110787 
L 661.748936 278.110787 
L 662.93617 278.110787 
L 664.123404 278.110787 
L 665.310638 286.550014 
L 666.497872 286.550014 
L 667.685106 283.773285 
L 668.87234 282.425233 
L 670.059574 282.425233 
L 671.246809 282.425233 
L 672.434043 282.425233 
L 673.621277 268.363558 
L 674.808511 268.363558 
L 675.995745 268.363558 
L 677.182979 268.363558 
L 678.370213 268.363558 
L 679.557447 268.363558 
L 680.744681 268.363558 
L 681.931915 268.363558 
L 683.119149 287.023723 
L 684.306383 288.46443 
L 685.493617 291.946309 
L 686.680851 291.946309 
L 687.868085 291.946309 
L 689.055319 291.946309 
L 690.242553 304.177289 
L 691.429787 329.534159 
L 692.617021 329.534159 
L 693.804255 329.534159 
L 694.991489 308.565303 
L 696.178723 308.565303 
L 697.365957 308.565303 
L 698.553191 293.49335 
L 699.740426 264.470956 
L 700.92766 244.026733 
L 702.114894 239.549426 
L 703.302128 239.549426 
L 704.489362 239.549426 
L 705.676596 239.549426 
L 706.86383 237.882898 
L 708.051064 217.430026 
L 709.238298 206.109652 
L 710.425532 204.34065 
L 711.612766 204.34065 
L 712.8 204.34065 
L 712.8 269.463925 
L 712.8 269.463925 
L 711.612766 269.463925 
L 710.425532 308.565303 
L 709.238298 346.225973 
L 708.051064 346.225973 
L 706.86383 346.225973 
L 705.676596 369.735903 
L 704.489362 369.735903 
L 703.302128 369.735903 
L 702.114894 482.190272 
L 700.92766 482.190272 
L 699.740426 161360.657098 
L 698.553191 161360.657098 
L 697.365957 161360.657098 
L 696.178723 161360.657098 
L 694.991489 161360.657098 
L 693.804255 161360.657098 
L 692.617021 161360.657098 
L 691.429787 161360.657098 
L 690.242553 161360.657098 
L 689.055319 161360.657098 
L 687.868085 161360.657098 
L 686.680851 161360.657098 
L 685.493617 161360.657098 
L 684.306383 161360.657098 
L 683.119149 482.190272 
L 681.931915 482.190272 
L 680.744681 161360.657098 
L 679.557447 161360.657098 
L 678.370213 161360.657098 
L 677.182979 161360.657098 
L 675.995745 161360.657098 
L 674.808511 161360.657098 
L 673.621277 161360.657098 
L 672.434043 161360.657098 
L 671.246809 161360.657098 
L 670.059574 161360.657098 
L 668.87234 161360.657098 
L 667.685106 161360.657098 
L 666.497872 161360.657098 
L 665.310638 161360.657098 
L 664.123404 385.327351 
L 662.93617 385.327351 
L 661.748936 385.327351 
L 660.561702 482.190272 
L 659.374468 482.190272 
L 658.187234 482.190272 
L 657 482.190272 
L 655.812766 482.190272 
L 654.625532 482.190272 
L 653.438298 482.190272 
L 652.251064 482.190272 
L 651.06383 482.190272 
L 649.876596 482.190272 
L 648.689362 482.190272 
L 647.502128 482.190272 
L 646.314894 482.190272 
L 645.12766 482.190272 
L 643.940426 369.735903 
L 642.753191 369.735903 
L 641.565957 369.735903 
L 640.378723 369.735903 
L 639.191489 161360.657098 
L 638.004255 161360.657098 
L 636.817021 161360.657098 
L 635.629787 161360.657098 
L 634.442553 161360.657098 
L 633.255319 161360.657098 
L 632.068085 161360.657098 
L 630.880851 161360.657098 
L 629.693617 433.758811 
L 628.506383 429.981036 
L 627.319149 429.981036 
L 626.131915 429.981036 
L 624.944681 429.981036 
L 623.757447 429.981036 
L 622.570213 426.397079 
L 621.382979 426.397079 
L 620.195745 426.397079 
L 619.008511 426.397079 
L 617.821277 426.397079 
L 616.634043 426.397079 
L 615.446809 426.397079 
L 614.259574 426.397079 
L 613.07234 426.397079 
L 611.885106 354.455689 
L 610.697872 400.435255 
L 609.510638 400.435255 
L 608.323404 400.435255 
L 607.13617 400.435255 
L 605.948936 400.435255 
L 604.761702 400.435255 
L 603.574468 400.435255 
L 602.387234 400.435255 
L 601.2 379.734621 
L 600.012766 379.734621 
L 598.825532 363.785772 
L 597.638298 363.785772 
L 596.451064 363.785772 
L 595.26383 377.965619 
L 594.076596 377.965619 
L 592.889362 363.785772 
L 591.702128 363.785772 
L 590.514894 363.785772 
L 589.32766 363.785772 
L 588.140426 363.785772 
L 586.953191 363.785772 
L 585.765957 377.965619 
L 584.578723 377.965619 
L 583.391489 377.965619 
L 582.204255 377.965619 
L 581.017021 377.965619 
L 579.829787 379.734621 
L 578.642553 379.734621 
L 577.455319 379.734621 
L 576.268085 398.066491 
L 575.080851 398.066491 
L 573.893617 400.435255 
L 572.706383 400.435255 
L 571.519149 426.397079 
L 570.331915 426.397079 
L 569.144681 426.397079 
L 567.957447 426.397079 
L 566.770213 426.397079 
L 565.582979 426.397079 
L 564.395745 426.397079 
L 563.208511 426.397079 
L 562.021277 426.397079 
L 560.834043 426.397079 
L 559.646809 426.397079 
L 558.459574 426.397079 
L 557.27234 426.397079 
L 556.085106 426.397079 
L 554.897872 426.397079 
L 553.710638 429.981036 
L 552.523404 474.82854 
L 551.33617 474.82854 
L 550.148936 474.82854 
L 548.961702 482.190272 
L 547.774468 482.190272 
L 546.587234 161360.657098 
L 545.4 161360.657098 
L 544.212766 161360.657098 
L 543.025532 161360.657098 
L 541.838298 161360.657098 
L 540.651064 161360.657098 
L 539.46383 161360.657098 
L 538.276596 161360.657098 
L 537.089362 482.190272 
L 535.902128 482.190272 
L 534.714894 482.190272 
L 533.52766 482.190272 
L 532.340426 474.82854 
L 531.153191 474.82854 
L 529.965957 474.82854 
L 528.778723 474.82854 
L 527.591489 474.82854 
L 526.404255 474.82854 
L 525.217021 474.82854 
L 524.029787 474.82854 
L 522.842553 474.82854 
L 521.655319 474.82854 
L 520.468085 474.82854 
L 519.280851 474.82854 
L 518.093617 474.82854 
L 516.906383 474.82854 
L 515.719149 474.82854 
L 514.531915 474.82854 
L 513.344681 429.981036 
L 512.157447 426.397079 
L 510.970213 426.397079 
L 509.782979 426.397079 
L 508.595745 426.397079 
L 507.408511 400.435255 
L 506.221277 400.435255 
L 505.034043 400.435255 
L 503.846809 398.066491 
L 502.659574 398.066491 
L 501.47234 398.066491 
L 500.285106 398.066491 
L 499.097872 398.066491 
L 497.910638 398.066491 
L 496.723404 398.066491 
L 495.53617 379.734621 
L 494.348936 352.003794 
L 493.161702 352.003794 
L 491.974468 377.965619 
L 490.787234 377.965619 
L 489.6 377.965619 
L 488.412766 381.549575 
L 487.225532 426.397079 
L 486.038298 426.397079 
L 484.851064 426.397079 
L 483.66383 429.981036 
L 482.476596 429.981036 
L 481.289362 474.82854 
L 480.102128 429.981036 
L 478.914894 429.981036 
L 477.72766 429.981036 
L 476.540426 429.981036 
L 475.353191 402.887149 
L 474.165957 402.887149 
L 472.978723 402.887149 
L 471.791489 353.218987 
L 470.604255 350.809375 
L 469.417021 350.809375 
L 468.229787 350.809375 
L 467.042553 339.869609 
L 465.855319 339.869609 
L 464.668085 330.413061 
L 463.480851 330.413061 
L 462.293617 331.30316 
L 461.106383 331.30316 
L 459.919149 331.30316 
L 458.731915 331.30316 
L 457.544681 329.534159 
L 456.357447 329.534159 
L 455.170213 332.204745 
L 453.982979 335.932126 
L 452.795745 429.981036 
L 451.608511 429.981036 
L 450.421277 474.82854 
L 449.234043 474.82854 
L 448.046809 474.82854 
L 446.859574 474.82854 
L 445.67234 429.981036 
L 444.485106 429.981036 
L 443.297872 429.981036 
L 442.110638 429.981036 
L 440.923404 429.981036 
L 439.73617 429.981036 
L 438.548936 381.549575 
L 437.361702 363.785772 
L 436.174468 324.480982 
L 434.987234 324.480982 
L 433.8 314.644947 
L 432.612766 314.644947 
L 431.425532 307.921318 
L 430.238298 301.788276 
L 429.051064 296.150394 
L 427.86383 295.610841 
L 426.676596 295.610841 
L 425.489362 295.610841 
L 424.302128 286.550014 
L 423.114894 286.550014 
L 421.92766 286.550014 
L 420.740426 286.079495 
L 419.553191 286.079495 
L 418.365957 277.693641 
L 417.178723 273.262242 
L 415.991489 266.213486 
L 414.804255 259.489858 
L 413.617021 259.489858 
L 412.429787 259.489858 
L 411.242553 236.948144 
L 410.055319 229.054537 
L 408.868085 224.830782 
L 407.680851 224.830782 
L 406.493617 224.441522 
L 405.306383 227.618062 
L 404.119149 227.618062 
L 402.931915 213.173422 
L 401.744681 203.472666 
L 400.557447 199.694891 
L 399.370213 199.694891 
L 398.182979 192.701876 
L 396.995745 231.803254 
L 395.808511 231.803254 
L 394.621277 197.285278 
L 393.434043 197.285278 
L 392.246809 197.285278 
L 391.059574 182.408029 
L 389.87234 405.428223 
L 388.685106 326.125101 
L 387.497872 203.472666 
L 386.310638 203.472666 
L 385.123404 203.472666 
L 383.93617 210.261675 
L 382.748936 210.261675 
L 381.561702 210.261675 
L 380.374468 205.367117 
L 379.187234 205.367117 
L 378 205.367117 
L 376.812766 205.367117 
L 375.625532 205.367117 
L 374.438298 205.367117 
L 373.251064 198.079285 
L 372.06383 198.079285 
L 370.876596 205.367117 
L 369.689362 205.367117 
L 368.502128 205.367117 
L 367.314894 176.399321 
L 366.12766 176.399321 
L 364.940426 176.399321 
L 363.753191 177.085787 
L 362.565957 173.907058 
L 361.378723 182.30176 
L 360.191489 183.26405 
L 359.004255 195.46695 
L 357.817021 195.46695 
L 356.629787 195.46695 
L 355.442553 195.46695 
L 354.255319 184.239778 
L 353.068085 184.239778 
L 351.880851 187.25148 
L 350.693617 195.46695 
L 349.506383 195.46695 
L 348.319149 202.190578 
L 347.131915 202.190578 
L 345.944681 216.211806 
L 344.757447 263.10756 
L 343.570213 263.10756 
L 342.382979 263.10756 
L 341.195745 263.10756 
L 340.008511 263.10756 
L 338.821277 263.10756 
L 337.634043 161360.657098 
L 336.446809 161360.657098 
L 335.259574 161360.657098 
L 334.07234 161360.657098 
L 332.885106 161360.657098 
L 331.697872 263.10756 
L 330.510638 263.10756 
L 329.323404 263.10756 
L 328.13617 284.228477 
L 326.948936 284.228477 
L 325.761702 284.228477 
L 324.574468 284.228477 
L 323.387234 161360.657098 
L 322.2 161360.657098 
L 321.012766 284.228477 
L 319.825532 284.228477 
L 318.638298 284.228477 
L 317.451064 284.228477 
L 316.26383 284.228477 
L 315.076596 284.228477 
L 313.889362 284.228477 
L 312.702128 284.228477 
L 311.514894 216.211806 
L 310.32766 216.211806 
L 309.140426 213.173422 
L 307.953191 213.173422 
L 306.765957 199.423015 
L 305.578723 199.423015 
L 304.391489 213.173422 
L 303.204255 213.173422 
L 302.017021 213.173422 
L 300.829787 266.213486 
L 299.642553 276.456939 
L 298.455319 276.456939 
L 297.268085 276.456939 
L 296.080851 276.456939 
L 294.893617 276.456939 
L 293.706383 276.456939 
L 292.519149 292.973855 
L 291.331915 292.973855 
L 290.144681 356.996763 
L 288.957447 356.996763 
L 287.770213 355.714675 
L 286.582979 355.714675 
L 285.395745 355.714675 
L 284.208511 355.714675 
L 283.021277 355.714675 
L 281.834043 355.714675 
L 280.646809 355.714675 
L 279.459574 353.218987 
L 278.27234 400.435255 
L 277.085106 400.435255 
L 275.897872 426.397079 
L 274.710638 426.397079 
L 273.523404 426.397079 
L 272.33617 426.397079 
L 271.148936 426.397079 
L 269.961702 426.397079 
L 268.774468 426.397079 
L 267.587234 426.397079 
L 266.4 426.397079 
L 265.212766 426.397079 
L 264.025532 426.397079 
L 262.838298 429.981036 
L 261.651064 482.190272 
L 260.46383 482.190272 
L 259.276596 482.190272 
L 258.089362 161360.657098 
L 256.902128 161360.657098 
L 255.714894 161360.657098 
L 254.52766 161360.657098 
L 253.340426 161360.657098 
L 252.153191 161360.657098 
L 250.965957 161360.657098 
L 249.778723 161360.657098 
L 248.591489 161360.657098 
L 247.404255 161360.657098 
L 246.217021 161360.657098 
L 245.029787 482.190272 
L 243.842553 482.190272 
L 242.655319 482.190272 
L 241.468085 429.981036 
L 240.280851 426.397079 
L 239.093617 426.397079 
L 237.906383 429.981036 
L 236.719149 426.397079 
L 235.531915 426.397079 
L 234.344681 426.397079 
L 233.157447 400.435255 
L 231.970213 433.758811 
L 230.782979 433.758811 
L 229.595745 405.428223 
L 228.408511 405.428223 
L 227.221277 405.428223 
L 226.034043 433.758811 
L 224.846809 161360.657098 
L 223.659574 161360.657098 
L 222.47234 161360.657098 
L 221.285106 482.190272 
L 220.097872 482.190272 
L 218.910638 482.190272 
L 217.723404 161360.657098 
L 216.53617 161360.657098 
L 215.348936 161360.657098 
L 214.161702 161360.657098 
L 212.974468 161360.657098 
L 211.787234 161360.657098 
L 210.6 161360.657098 
L 209.412766 161360.657098 
L 208.225532 161360.657098 
L 207.038298 161360.657098 
L 205.851064 161360.657098 
L 204.66383 161360.657098 
L 203.476596 161360.657098 
L 202.289362 161360.657098 
L 201.102128 161360.657098 
L 199.914894 161360.657098 
L 198.72766 161360.657098 
L 197.540426 161360.657098 
L 196.353191 161360.657098 
L 195.165957 161360.657098 
L 193.978723 161360.657098 
L 192.791489 161360.657098 
L 191.604255 161360.657098 
L 190.417021 161360.657098 
L 189.229787 161360.657098 
L 188.042553 161360.657098 
L 186.855319 161360.657098 
L 185.668085 161360.657098 
L 184.480851 161360.657098 
L 183.293617 161360.657098 
L 182.106383 161360.657098 
L 180.919149 161360.657098 
L 179.731915 161360.657098 
L 178.544681 161360.657098 
L 177.357447 161360.657098 
L 176.170213 161360.657098 
L 174.982979 161360.657098 
L 173.795745 161360.657098 
L 172.608511 161360.657098 
L 171.421277 161360.657098 
L 170.234043 161360.657098 
L 169.046809 161360.657098 
L 167.859574 161360.657098 
L 166.67234 161360.657098 
L 165.485106 161360.657098 
L 164.297872 161360.657098 
L 163.110638 161360.657098 
L 161.923404 161360.657098 
L 160.73617 161360.657098 
L 159.548936 161360.657098 
L 158.361702 161360.657098 
L 157.174468 482.190272 
L 155.987234 482.190272 
L 154.8 482.190272 
L 153.612766 474.82854 
L 152.425532 402.887149 
L 151.238298 398.066491 
L 150.051064 398.066491 
L 148.86383 398.066491 
L 147.676596 398.066491 
L 146.489362 353.218987 
L 145.302128 353.218987 
L 144.114894 353.218987 
L 142.92766 353.218987 
L 141.740426 353.218987 
L 140.553191 353.218987 
L 139.365957 331.30316 
L 138.178723 331.30316 
L 136.991489 334.043583 
L 135.804255 365.226479 
L 134.617021 365.226479 
L 133.429787 332.204745 
L 132.242553 332.204745 
L 131.055319 366.697519 
L 129.868085 381.549575 
L 128.680851 381.549575 
L 127.493617 381.549575 
L 126.306383 426.397079 
L 125.119149 426.397079 
L 123.931915 426.397079 
L 122.744681 426.397079 
L 121.557447 426.397079 
L 120.370213 426.397079 
L 119.182979 426.397079 
L 117.995745 426.397079 
L 116.808511 429.981036 
L 115.621277 474.82854 
L 114.434043 429.981036 
L 113.246809 161360.657098 
L 112.059574 161360.657098 
L 110.87234 161360.657098 
L 109.685106 161360.657098 
L 108.497872 161360.657098 
L 107.310638 161360.657098 
L 106.123404 161360.657098 
L 104.93617 161360.657098 
L 103.748936 161360.657098 
L 102.561702 161360.657098 
L 101.374468 161360.657098 
L 100.187234 161360.657098 
L 99 161360.657098 
z
" style="fill:#8080ff;fill-opacity:0.5;stroke:#8080ff;stroke-opacity:0.5;"/>
   </g>
   <g id="PolyCollection_2">
    <path clip-path="url(#p68e2955192)" d="M 99 161360.657098 
L 99 161360.657098 
L 100.187234 161360.657098 
L 101.374468 161360.657098 
L 102.561702 161360.657098 
L 103.748936 161360.657098 
L 104.93617 161360.657098 
L 106.123404 161360.657098 
L 107.310638 161360.657098 
L 108.497872 161360.657098 
L 109.685106 161360.657098 
L 110.87234 161360.657098 
L 112.059574 161360.657098 
L 113.246809 161360.657098 
L 114.434043 161360.657098 
L 115.621277 161360.657098 
L 116.808511 161360.657098 
L 117.995745 499.75007 
L 119.182979 474.82854 
L 120.370213 474.82854 
L 121.557447 474.82854 
L 122.744681 474.82854 
L 123.931915 474.82854 
L 125.119149 474.82854 
L 126.306383 474.82854 
L 127.493617 474.82854 
L 128.680851 474.82854 
L 129.868085 474.82854 
L 131.055319 474.82854 
L 132.242553 474.82854 
L 133.429787 474.82854 
L 134.617021 474.82854 
L 135.804255 474.82854 
L 136.991489 474.82854 
L 138.178723 499.75007 
L 139.365957 499.75007 
L 140.553191 499.75007 
L 141.740426 499.75007 
L 142.92766 499.75007 
L 144.114894 499.75007 
L 145.302128 499.75007 
L 146.489362 499.75007 
L 147.676596 161360.657098 
L 148.86383 161360.657098 
L 150.051064 161360.657098 
L 151.238298 161360.657098 
L 152.425532 161360.657098 
L 153.612766 161360.657098 
L 154.8 161360.657098 
L 155.987234 161360.657098 
L 157.174468 161360.657098 
L 158.361702 161360.657098 
L 159.548936 161360.657098 
L 160.73617 161360.657098 
L 161.923404 161360.657098 
L 163.110638 161360.657098 
L 164.297872 161360.657098 
L 165.485106 161360.657098 
L 166.67234 161360.657098 
L 167.859574 161360.657098 
L 169.046809 161360.657098 
L 170.234043 161360.657098 
L 171.421277 161360.657098 
L 172.608511 161360.657098 
L 173.795745 161360.657098 
L 174.982979 161360.657098 
L 176.170213 161360.657098 
L 177.357447 161360.657098 
L 178.544681 161360.657098 
L 179.731915 161360.657098 
L 180.919149 161360.657098 
L 182.106383 161360.657098 
L 183.293617 161360.657098 
L 184.480851 161360.657098 
L 185.668085 161360.657098 
L 186.855319 161360.657098 
L 188.042553 161360.657098 
L 189.229787 161360.657098 
L 190.417021 161360.657098 
L 191.604255 161360.657098 
L 192.791489 161360.657098 
L 193.978723 161360.657098 
L 195.165957 161360.657098 
L 196.353191 161360.657098 
L 197.540426 161360.657098 
L 198.72766 161360.657098 
L 199.914894 161360.657098 
L 201.102128 161360.657098 
L 202.289362 161360.657098 
L 203.476596 161360.657098 
L 204.66383 161360.657098 
L 205.851064 161360.657098 
L 207.038298 161360.657098 
L 208.225532 161360.657098 
L 209.412766 161360.657098 
L 210.6 161360.657098 
L 211.787234 161360.657098 
L 212.974468 161360.657098 
L 214.161702 161360.657098 
L 215.348936 161360.657098 
L 216.53617 161360.657098 
L 217.723404 161360.657098 
L 218.910638 161360.657098 
L 220.097872 161360.657098 
L 221.285106 161360.657098 
L 222.47234 161360.657098 
L 223.659574 161360.657098 
L 224.846809 161360.657098 
L 226.034043 161360.657098 
L 227.221277 161360.657098 
L 228.408511 161360.657098 
L 229.595745 161360.657098 
L 230.782979 161360.657098 
L 231.970213 161360.657098 
L 233.157447 161360.657098 
L 234.344681 161360.657098 
L 235.531915 161360.657098 
L 236.719149 161360.657098 
L 237.906383 161360.657098 
L 239.093617 161360.657098 
L 240.280851 161360.657098 
L 241.468085 161360.657098 
L 242.655319 161360.657098 
L 243.842553 161360.657098 
L 245.029787 161360.657098 
L 246.217021 161360.657098 
L 247.404255 161360.657098 
L 248.591489 161360.657098 
L 249.778723 161360.657098 
L 250.965957 161360.657098 
L 252.153191 161360.657098 
L 253.340426 161360.657098 
L 254.52766 161360.657098 
L 255.714894 161360.657098 
L 256.902128 161360.657098 
L 258.089362 161360.657098 
L 259.276596 161360.657098 
L 260.46383 161360.657098 
L 261.651064 161360.657098 
L 262.838298 161360.657098 
L 264.025532 161360.657098 
L 265.212766 161360.657098 
L 266.4 161360.657098 
L 267.587234 161360.657098 
L 268.774468 161360.657098 
L 269.961702 161360.657098 
L 271.148936 161360.657098 
L 272.33617 161360.657098 
L 273.523404 161360.657098 
L 274.710638 161360.657098 
L 275.897872 161360.657098 
L 277.085106 161360.657098 
L 278.27234 161360.657098 
L 279.459574 161360.657098 
L 280.646809 161360.657098 
L 281.834043 161360.657098 
L 283.021277 161360.657098 
L 284.208511 161360.657098 
L 285.395745 161360.657098 
L 286.582979 161360.657098 
L 287.770213 161360.657098 
L 288.957447 161360.657098 
L 290.144681 161360.657098 
L 291.331915 499.75007 
L 292.519149 499.75007 
L 293.706383 474.82854 
L 294.893617 474.82854 
L 296.080851 474.82854 
L 297.268085 474.82854 
L 298.455319 474.82854 
L 299.642553 474.82854 
L 300.829787 437.752574 
L 302.017021 437.752574 
L 303.204255 437.752574 
L 304.391489 437.752574 
L 305.578723 437.752574 
L 306.765957 437.752574 
L 307.953191 426.397079 
L 309.140426 426.397079 
L 310.32766 437.752574 
L 311.514894 437.752574 
L 312.702128 426.397079 
L 313.889362 426.397079 
L 315.076596 426.397079 
L 316.26383 405.428223 
L 317.451064 426.397079 
L 318.638298 426.397079 
L 319.825532 426.397079 
L 321.012766 405.428223 
L 322.2 405.428223 
L 323.387234 405.428223 
L 324.574468 405.428223 
L 325.761702 405.428223 
L 326.948936 405.428223 
L 328.13617 405.428223 
L 329.323404 405.428223 
L 330.510638 405.428223 
L 331.697872 405.428223 
L 332.885106 426.397079 
L 334.07234 405.428223 
L 335.259574 405.428223 
L 336.446809 405.428223 
L 337.634043 426.397079 
L 338.821277 426.397079 
L 340.008511 426.397079 
L 341.195745 405.428223 
L 342.382979 405.428223 
L 343.570213 405.428223 
L 344.757447 405.428223 
L 345.944681 405.428223 
L 347.131915 405.428223 
L 348.319149 405.428223 
L 349.506383 405.428223 
L 350.693617 426.397079 
L 351.880851 437.752574 
L 353.068085 437.752574 
L 354.255319 426.397079 
L 355.442553 426.397079 
L 356.629787 426.397079 
L 357.817021 426.397079 
L 359.004255 426.397079 
L 360.191489 426.397079 
L 361.378723 426.397079 
L 362.565957 426.397079 
L 363.753191 426.397079 
L 364.940426 426.397079 
L 366.12766 405.428223 
L 367.314894 405.428223 
L 368.502128 405.428223 
L 369.689362 405.428223 
L 370.876596 405.428223 
L 372.06383 405.428223 
L 373.251064 405.428223 
L 374.438298 426.397079 
L 375.625532 426.397079 
L 376.812766 405.428223 
L 378 405.428223 
L 379.187234 383.412935 
L 380.374468 383.412935 
L 381.561702 383.412935 
L 382.748936 405.428223 
L 383.93617 405.428223 
L 385.123404 405.428223 
L 386.310638 405.428223 
L 387.497872 405.428223 
L 388.685106 405.428223 
L 389.87234 405.428223 
L 391.059574 371.306123 
L 392.246809 371.306123 
L 393.434043 376.240301 
L 394.621277 376.240301 
L 395.808511 426.397079 
L 396.995745 426.397079 
L 398.182979 405.428223 
L 399.370213 405.428223 
L 400.557447 405.428223 
L 401.744681 405.428223 
L 402.931915 405.428223 
L 404.119149 405.428223 
L 405.306383 405.428223 
L 406.493617 405.428223 
L 407.680851 426.397079 
L 408.868085 426.397079 
L 410.055319 426.397079 
L 411.242553 426.397079 
L 412.429787 426.397079 
L 413.617021 426.397079 
L 414.804255 437.752574 
L 415.991489 437.752574 
L 417.178723 437.752574 
L 418.365957 474.82854 
L 419.553191 474.82854 
L 420.740426 499.75007 
L 421.92766 437.752574 
L 423.114894 437.752574 
L 424.302128 437.752574 
L 425.489362 437.752574 
L 426.676596 437.752574 
L 427.86383 437.752574 
L 429.051064 437.752574 
L 430.238298 437.752574 
L 431.425532 437.752574 
L 432.612766 437.752574 
L 433.8 437.752574 
L 434.987234 437.752574 
L 436.174468 474.82854 
L 437.361702 474.82854 
L 438.548936 474.82854 
L 439.73617 474.82854 
L 440.923404 499.75007 
L 442.110638 499.75007 
L 443.297872 499.75007 
L 444.485106 474.82854 
L 445.67234 474.82854 
L 446.859574 474.82854 
L 448.046809 474.82854 
L 449.234043 474.82854 
L 450.421277 474.82854 
L 451.608511 474.82854 
L 452.795745 499.75007 
L 453.982979 474.82854 
L 455.170213 474.82854 
L 456.357447 474.82854 
L 457.544681 474.82854 
L 458.731915 474.82854 
L 459.919149 474.82854 
L 461.106383 499.75007 
L 462.293617 474.82854 
L 463.480851 474.82854 
L 464.668085 474.82854 
L 465.855319 474.82854 
L 467.042553 474.82854 
L 468.229787 474.82854 
L 469.417021 474.82854 
L 470.604255 474.82854 
L 471.791489 474.82854 
L 472.978723 474.82854 
L 474.165957 474.82854 
L 475.353191 474.82854 
L 476.540426 474.82854 
L 477.72766 474.82854 
L 478.914894 474.82854 
L 480.102128 474.82854 
L 481.289362 499.75007 
L 482.476596 161360.657098 
L 483.66383 161360.657098 
L 484.851064 161360.657098 
L 486.038298 161360.657098 
L 487.225532 161360.657098 
L 488.412766 161360.657098 
L 489.6 161360.657098 
L 490.787234 161360.657098 
L 491.974468 161360.657098 
L 493.161702 161360.657098 
L 494.348936 161360.657098 
L 495.53617 161360.657098 
L 496.723404 161360.657098 
L 497.910638 161360.657098 
L 499.097872 161360.657098 
L 500.285106 161360.657098 
L 501.47234 161360.657098 
L 502.659574 161360.657098 
L 503.846809 161360.657098 
L 505.034043 161360.657098 
L 506.221277 161360.657098 
L 507.408511 161360.657098 
L 508.595745 161360.657098 
L 509.782979 161360.657098 
L 510.970213 161360.657098 
L 512.157447 161360.657098 
L 513.344681 161360.657098 
L 514.531915 161360.657098 
L 515.719149 161360.657098 
L 516.906383 161360.657098 
L 518.093617 161360.657098 
L 519.280851 161360.657098 
L 520.468085 161360.657098 
L 521.655319 499.75007 
L 522.842553 499.75007 
L 524.029787 499.75007 
L 525.217021 499.75007 
L 526.404255 499.75007 
L 527.591489 499.75007 
L 528.778723 499.75007 
L 529.965957 499.75007 
L 531.153191 161360.657098 
L 532.340426 499.75007 
L 533.52766 499.75007 
L 534.714894 499.75007 
L 535.902128 499.75007 
L 537.089362 499.75007 
L 538.276596 161360.657098 
L 539.46383 161360.657098 
L 540.651064 161360.657098 
L 541.838298 161360.657098 
L 543.025532 161360.657098 
L 544.212766 161360.657098 
L 545.4 161360.657098 
L 546.587234 161360.657098 
L 547.774468 161360.657098 
L 548.961702 161360.657098 
L 550.148936 161360.657098 
L 551.33617 161360.657098 
L 552.523404 161360.657098 
L 553.710638 161360.657098 
L 554.897872 161360.657098 
L 556.085106 161360.657098 
L 557.27234 161360.657098 
L 558.459574 161360.657098 
L 559.646809 161360.657098 
L 560.834043 161360.657098 
L 562.021277 161360.657098 
L 563.208511 161360.657098 
L 564.395745 161360.657098 
L 565.582979 161360.657098 
L 566.770213 161360.657098 
L 567.957447 161360.657098 
L 569.144681 161360.657098 
L 570.331915 161360.657098 
L 571.519149 161360.657098 
L 572.706383 161360.657098 
L 573.893617 161360.657098 
L 575.080851 161360.657098 
L 576.268085 161360.657098 
L 577.455319 161360.657098 
L 578.642553 161360.657098 
L 579.829787 161360.657098 
L 581.017021 161360.657098 
L 582.204255 161360.657098 
L 583.391489 161360.657098 
L 584.578723 161360.657098 
L 585.765957 161360.657098 
L 586.953191 161360.657098 
L 588.140426 161360.657098 
L 589.32766 161360.657098 
L 590.514894 161360.657098 
L 591.702128 161360.657098 
L 592.889362 499.75007 
L 594.076596 474.82854 
L 595.26383 474.82854 
L 596.451064 474.82854 
L 597.638298 474.82854 
L 598.825532 474.82854 
L 600.012766 474.82854 
L 601.2 474.82854 
L 602.387234 474.82854 
L 603.574468 474.82854 
L 604.761702 474.82854 
L 605.948936 474.82854 
L 607.13617 474.82854 
L 608.323404 499.75007 
L 609.510638 161360.657098 
L 610.697872 161360.657098 
L 611.885106 161360.657098 
L 613.07234 161360.657098 
L 614.259574 161360.657098 
L 615.446809 161360.657098 
L 616.634043 161360.657098 
L 617.821277 161360.657098 
L 619.008511 161360.657098 
L 620.195745 161360.657098 
L 621.382979 161360.657098 
L 622.570213 161360.657098 
L 623.757447 161360.657098 
L 624.944681 161360.657098 
L 626.131915 161360.657098 
L 627.319149 161360.657098 
L 628.506383 161360.657098 
L 629.693617 161360.657098 
L 630.880851 161360.657098 
L 632.068085 161360.657098 
L 633.255319 161360.657098 
L 634.442553 161360.657098 
L 635.629787 161360.657098 
L 636.817021 161360.657098 
L 638.004255 161360.657098 
L 639.191489 161360.657098 
L 640.378723 161360.657098 
L 641.565957 161360.657098 
L 642.753191 161360.657098 
L 643.940426 161360.657098 
L 645.12766 161360.657098 
L 646.314894 161360.657098 
L 647.502128 161360.657098 
L 648.689362 161360.657098 
L 649.876596 161360.657098 
L 651.06383 161360.657098 
L 652.251064 161360.657098 
L 653.438298 161360.657098 
L 654.625532 161360.657098 
L 655.812766 161360.657098 
L 657 161360.657098 
L 658.187234 161360.657098 
L 659.374468 161360.657098 
L 660.561702 161360.657098 
L 661.748936 161360.657098 
L 662.93617 161360.657098 
L 664.123404 161360.657098 
L 665.310638 161360.657098 
L 666.497872 161360.657098 
L 667.685106 161360.657098 
L 668.87234 161360.657098 
L 670.059574 499.75007 
L 671.246809 499.75007 
L 672.434043 499.75007 
L 673.621277 161360.657098 
L 674.808511 499.75007 
L 675.995745 499.75007 
L 677.182979 499.75007 
L 678.370213 499.75007 
L 679.557447 499.75007 
L 680.744681 499.75007 
L 681.931915 474.82854 
L 683.119149 474.82854 
L 684.306383 474.82854 
L 685.493617 474.82854 
L 686.680851 499.75007 
L 687.868085 499.75007 
L 689.055319 499.75007 
L 690.242553 499.75007 
L 691.429787 161360.657098 
L 692.617021 161360.657098 
L 693.804255 161360.657098 
L 694.991489 161360.657098 
L 696.178723 161360.657098 
L 697.365957 161360.657098 
L 698.553191 161360.657098 
L 699.740426 161360.657098 
L 700.92766 161360.657098 
L 702.114894 161360.657098 
L 703.302128 161360.657098 
L 704.489362 161360.657098 
L 705.676596 161360.657098 
L 706.86383 161360.657098 
L 708.051064 161360.657098 
L 709.238298 161360.657098 
L 710.425532 161360.657098 
L 711.612766 161360.657098 
L 712.8 161360.657098 
L 712.8 161360.657098 
L 712.8 161360.657098 
L 711.612766 161360.657098 
L 710.425532 161360.657098 
L 709.238298 161360.657098 
L 708.051064 161360.657098 
L 706.86383 161360.657098 
L 705.676596 161360.657098 
L 704.489362 161360.657098 
L 703.302128 161360.657098 
L 702.114894 161360.657098 
L 700.92766 161360.657098 
L 699.740426 161360.657098 
L 698.553191 161360.657098 
L 697.365957 161360.657098 
L 696.178723 161360.657098 
L 694.991489 161360.657098 
L 693.804255 161360.657098 
L 692.617021 161360.657098 
L 691.429787 161360.657098 
L 690.242553 161360.657098 
L 689.055319 161360.657098 
L 687.868085 161360.657098 
L 686.680851 161360.657098 
L 685.493617 161360.657098 
L 684.306383 161360.657098 
L 683.119149 161360.657098 
L 681.931915 161360.657098 
L 680.744681 161360.657098 
L 679.557447 161360.657098 
L 678.370213 161360.657098 
L 677.182979 161360.657098 
L 675.995745 161360.657098 
L 674.808511 161360.657098 
L 673.621277 161360.657098 
L 672.434043 161360.657098 
L 671.246809 161360.657098 
L 670.059574 161360.657098 
L 668.87234 161360.657098 
L 667.685106 161360.657098 
L 666.497872 161360.657098 
L 665.310638 161360.657098 
L 664.123404 161360.657098 
L 662.93617 161360.657098 
L 661.748936 161360.657098 
L 660.561702 161360.657098 
L 659.374468 161360.657098 
L 658.187234 161360.657098 
L 657 161360.657098 
L 655.812766 161360.657098 
L 654.625532 161360.657098 
L 653.438298 161360.657098 
L 652.251064 161360.657098 
L 651.06383 161360.657098 
L 649.876596 161360.657098 
L 648.689362 161360.657098 
L 647.502128 161360.657098 
L 646.314894 161360.657098 
L 645.12766 161360.657098 
L 643.940426 161360.657098 
L 642.753191 161360.657098 
L 641.565957 161360.657098 
L 640.378723 161360.657098 
L 639.191489 161360.657098 
L 638.004255 161360.657098 
L 636.817021 161360.657098 
L 635.629787 161360.657098 
L 634.442553 161360.657098 
L 633.255319 161360.657098 
L 632.068085 161360.657098 
L 630.880851 161360.657098 
L 629.693617 161360.657098 
L 628.506383 161360.657098 
L 627.319149 161360.657098 
L 626.131915 161360.657098 
L 624.944681 161360.657098 
L 623.757447 161360.657098 
L 622.570213 161360.657098 
L 621.382979 161360.657098 
L 620.195745 161360.657098 
L 619.008511 161360.657098 
L 617.821277 161360.657098 
L 616.634043 161360.657098 
L 615.446809 161360.657098 
L 614.259574 161360.657098 
L 613.07234 161360.657098 
L 611.885106 161360.657098 
L 610.697872 161360.657098 
L 609.510638 161360.657098 
L 608.323404 161360.657098 
L 607.13617 161360.657098 
L 605.948936 161360.657098 
L 604.761702 161360.657098 
L 603.574468 161360.657098 
L 602.387234 161360.657098 
L 601.2 161360.657098 
L 600.012766 161360.657098 
L 598.825532 161360.657098 
L 597.638298 161360.657098 
L 596.451064 161360.657098 
L 595.26383 161360.657098 
L 594.076596 161360.657098 
L 592.889362 161360.657098 
L 591.702128 161360.657098 
L 590.514894 161360.657098 
L 589.32766 161360.657098 
L 588.140426 161360.657098 
L 586.953191 161360.657098 
L 585.765957 161360.657098 
L 584.578723 161360.657098 
L 583.391489 161360.657098 
L 582.204255 161360.657098 
L 581.017021 161360.657098 
L 579.829787 161360.657098 
L 578.642553 161360.657098 
L 577.455319 161360.657098 
L 576.268085 161360.657098 
L 575.080851 161360.657098 
L 573.893617 161360.657098 
L 572.706383 161360.657098 
L 571.519149 161360.657098 
L 570.331915 161360.657098 
L 569.144681 161360.657098 
L 567.957447 161360.657098 
L 566.770213 161360.657098 
L 565.582979 161360.657098 
L 564.395745 161360.657098 
L 563.208511 161360.657098 
L 562.021277 161360.657098 
L 560.834043 161360.657098 
L 559.646809 161360.657098 
L 558.459574 161360.657098 
L 557.27234 161360.657098 
L 556.085106 161360.657098 
L 554.897872 161360.657098 
L 553.710638 161360.657098 
L 552.523404 161360.657098 
L 551.33617 161360.657098 
L 550.148936 161360.657098 
L 548.961702 161360.657098 
L 547.774468 161360.657098 
L 546.587234 161360.657098 
L 545.4 161360.657098 
L 544.212766 161360.657098 
L 543.025532 161360.657098 
L 541.838298 161360.657098 
L 540.651064 161360.657098 
L 539.46383 161360.657098 
L 538.276596 161360.657098 
L 537.089362 161360.657098 
L 535.902128 161360.657098 
L 534.714894 161360.657098 
L 533.52766 161360.657098 
L 532.340426 161360.657098 
L 531.153191 161360.657098 
L 529.965957 161360.657098 
L 528.778723 161360.657098 
L 527.591489 161360.657098 
L 526.404255 161360.657098 
L 525.217021 161360.657098 
L 524.029787 161360.657098 
L 522.842553 161360.657098 
L 521.655319 161360.657098 
L 520.468085 161360.657098 
L 519.280851 161360.657098 
L 518.093617 161360.657098 
L 516.906383 161360.657098 
L 515.719149 161360.657098 
L 514.531915 161360.657098 
L 513.344681 161360.657098 
L 512.157447 161360.657098 
L 510.970213 161360.657098 
L 509.782979 161360.657098 
L 508.595745 161360.657098 
L 507.408511 161360.657098 
L 506.221277 161360.657098 
L 505.034043 161360.657098 
L 503.846809 161360.657098 
L 502.659574 161360.657098 
L 501.47234 161360.657098 
L 500.285106 161360.657098 
L 499.097872 161360.657098 
L 497.910638 161360.657098 
L 496.723404 161360.657098 
L 495.53617 161360.657098 
L 494.348936 161360.657098 
L 493.161702 161360.657098 
L 491.974468 161360.657098 
L 490.787234 161360.657098 
L 489.6 161360.657098 
L 488.412766 161360.657098 
L 487.225532 161360.657098 
L 486.038298 161360.657098 
L 484.851064 161360.657098 
L 483.66383 161360.657098 
L 482.476596 161360.657098 
L 481.289362 161360.657098 
L 480.102128 161360.657098 
L 478.914894 161360.657098 
L 477.72766 161360.657098 
L 476.540426 161360.657098 
L 475.353191 161360.657098 
L 474.165957 161360.657098 
L 472.978723 161360.657098 
L 471.791489 161360.657098 
L 470.604255 161360.657098 
L 469.417021 161360.657098 
L 468.229787 161360.657098 
L 467.042553 161360.657098 
L 465.855319 161360.657098 
L 464.668085 161360.657098 
L 463.480851 161360.657098 
L 462.293617 161360.657098 
L 461.106383 161360.657098 
L 459.919149 161360.657098 
L 458.731915 161360.657098 
L 457.544681 161360.657098 
L 456.357447 161360.657098 
L 455.170213 161360.657098 
L 453.982979 161360.657098 
L 452.795745 161360.657098 
L 451.608511 161360.657098 
L 450.421277 161360.657098 
L 449.234043 161360.657098 
L 448.046809 161360.657098 
L 446.859574 161360.657098 
L 445.67234 161360.657098 
L 444.485106 161360.657098 
L 443.297872 161360.657098 
L 442.110638 161360.657098 
L 440.923404 161360.657098 
L 439.73617 161360.657098 
L 438.548936 161360.657098 
L 437.361702 161360.657098 
L 436.174468 161360.657098 
L 434.987234 161360.657098 
L 433.8 161360.657098 
L 432.612766 161360.657098 
L 431.425532 161360.657098 
L 430.238298 161360.657098 
L 429.051064 161360.657098 
L 427.86383 161360.657098 
L 426.676596 161360.657098 
L 425.489362 161360.657098 
L 424.302128 161360.657098 
L 423.114894 161360.657098 
L 421.92766 161360.657098 
L 420.740426 161360.657098 
L 419.553191 161360.657098 
L 418.365957 161360.657098 
L 417.178723 161360.657098 
L 415.991489 161360.657098 
L 414.804255 161360.657098 
L 413.617021 161360.657098 
L 412.429787 161360.657098 
L 411.242553 161360.657098 
L 410.055319 161360.657098 
L 408.868085 161360.657098 
L 407.680851 161360.657098 
L 406.493617 161360.657098 
L 405.306383 161360.657098 
L 404.119149 161360.657098 
L 402.931915 161360.657098 
L 401.744681 161360.657098 
L 400.557447 161360.657098 
L 399.370213 161360.657098 
L 398.182979 161360.657098 
L 396.995745 161360.657098 
L 395.808511 161360.657098 
L 394.621277 161360.657098 
L 393.434043 161360.657098 
L 392.246809 161360.657098 
L 391.059574 161360.657098 
L 389.87234 161360.657098 
L 388.685106 161360.657098 
L 387.497872 161360.657098 
L 386.310638 161360.657098 
L 385.123404 161360.657098 
L 383.93617 161360.657098 
L 382.748936 161360.657098 
L 381.561702 161360.657098 
L 380.374468 161360.657098 
L 379.187234 161360.657098 
L 378 161360.657098 
L 376.812766 161360.657098 
L 375.625532 161360.657098 
L 374.438298 161360.657098 
L 373.251064 161360.657098 
L 372.06383 161360.657098 
L 370.876596 161360.657098 
L 369.689362 161360.657098 
L 368.502128 161360.657098 
L 367.314894 161360.657098 
L 366.12766 161360.657098 
L 364.940426 161360.657098 
L 363.753191 161360.657098 
L 362.565957 161360.657098 
L 361.378723 161360.657098 
L 360.191489 161360.657098 
L 359.004255 161360.657098 
L 357.817021 161360.657098 
L 356.629787 161360.657098 
L 355.442553 161360.657098 
L 354.255319 161360.657098 
L 353.068085 161360.657098 
L 351.880851 161360.657098 
L 350.693617 482.190272 
L 349.506383 482.190272 
L 348.319149 482.190272 
L 347.131915 161360.657098 
L 345.944681 161360.657098 
L 344.757447 161360.657098 
L 343.570213 161360.657098 
L 342.382979 161360.657098 
L 341.195745 161360.657098 
L 340.008511 161360.657098 
L 338.821277 161360.657098 
L 337.634043 161360.657098 
L 336.446809 161360.657098 
L 335.259574 161360.657098 
L 334.07234 161360.657098 
L 332.885106 161360.657098 
L 331.697872 161360.657098 
L 330.510638 161360.657098 
L 329.323404 161360.657098 
L 328.13617 161360.657098 
L 326.948936 161360.657098 
L 325.761702 482.190272 
L 324.574468 482.190272 
L 323.387234 482.190272 
L 322.2 474.82854 
L 321.012766 474.82854 
L 319.825532 474.82854 
L 318.638298 482.190272 
L 317.451064 482.190272 
L 316.26383 482.190272 
L 315.076596 161360.657098 
L 313.889362 161360.657098 
L 312.702128 161360.657098 
L 311.514894 161360.657098 
L 310.32766 161360.657098 
L 309.140426 161360.657098 
L 307.953191 161360.657098 
L 306.765957 161360.657098 
L 305.578723 161360.657098 
L 304.391489 161360.657098 
L 303.204255 161360.657098 
L 302.017021 161360.657098 
L 300.829787 161360.657098 
L 299.642553 161360.657098 
L 298.455319 161360.657098 
L 297.268085 161360.657098 
L 296.080851 161360.657098 
L 294.893617 161360.657098 
L 293.706383 161360.657098 
L 292.519149 161360.657098 
L 291.331915 161360.657098 
L 290.144681 161360.657098 
L 288.957447 161360.657098 
L 287.770213 161360.657098 
L 286.582979 161360.657098 
L 285.395745 161360.657098 
L 284.208511 161360.657098 
L 283.021277 161360.657098 
L 281.834043 161360.657098 
L 280.646809 161360.657098 
L 279.459574 161360.657098 
L 278.27234 161360.657098 
L 277.085106 161360.657098 
L 275.897872 161360.657098 
L 274.710638 161360.657098 
L 273.523404 161360.657098 
L 272.33617 161360.657098 
L 271.148936 161360.657098 
L 269.961702 161360.657098 
L 268.774468 161360.657098 
L 267.587234 161360.657098 
L 266.4 161360.657098 
L 265.212766 161360.657098 
L 264.025532 161360.657098 
L 262.838298 161360.657098 
L 261.651064 161360.657098 
L 260.46383 161360.657098 
L 259.276596 161360.657098 
L 258.089362 161360.657098 
L 256.902128 161360.657098 
L 255.714894 161360.657098 
L 254.52766 161360.657098 
L 253.340426 161360.657098 
L 252.153191 161360.657098 
L 250.965957 161360.657098 
L 249.778723 161360.657098 
L 248.591489 161360.657098 
L 247.404255 161360.657098 
L 246.217021 161360.657098 
L 245.029787 161360.657098 
L 243.842553 161360.657098 
L 242.655319 161360.657098 
L 241.468085 161360.657098 
L 240.280851 161360.657098 
L 239.093617 161360.657098 
L 237.906383 161360.657098 
L 236.719149 161360.657098 
L 235.531915 161360.657098 
L 234.344681 161360.657098 
L 233.157447 161360.657098 
L 231.970213 161360.657098 
L 230.782979 161360.657098 
L 229.595745 161360.657098 
L 228.408511 161360.657098 
L 227.221277 161360.657098 
L 226.034043 161360.657098 
L 224.846809 161360.657098 
L 223.659574 161360.657098 
L 222.47234 161360.657098 
L 221.285106 161360.657098 
L 220.097872 161360.657098 
L 218.910638 161360.657098 
L 217.723404 161360.657098 
L 216.53617 161360.657098 
L 215.348936 161360.657098 
L 214.161702 161360.657098 
L 212.974468 161360.657098 
L 211.787234 161360.657098 
L 210.6 161360.657098 
L 209.412766 161360.657098 
L 208.225532 161360.657098 
L 207.038298 161360.657098 
L 205.851064 161360.657098 
L 204.66383 161360.657098 
L 203.476596 161360.657098 
L 202.289362 161360.657098 
L 201.102128 161360.657098 
L 199.914894 161360.657098 
L 198.72766 161360.657098 
L 197.540426 161360.657098 
L 196.353191 161360.657098 
L 195.165957 161360.657098 
L 193.978723 161360.657098 
L 192.791489 161360.657098 
L 191.604255 161360.657098 
L 190.417021 161360.657098 
L 189.229787 161360.657098 
L 188.042553 161360.657098 
L 186.855319 161360.657098 
L 185.668085 161360.657098 
L 184.480851 161360.657098 
L 183.293617 161360.657098 
L 182.106383 161360.657098 
L 180.919149 161360.657098 
L 179.731915 161360.657098 
L 178.544681 161360.657098 
L 177.357447 161360.657098 
L 176.170213 161360.657098 
L 174.982979 161360.657098 
L 173.795745 161360.657098 
L 172.608511 161360.657098 
L 171.421277 161360.657098 
L 170.234043 161360.657098 
L 169.046809 161360.657098 
L 167.859574 161360.657098 
L 166.67234 161360.657098 
L 165.485106 161360.657098 
L 164.297872 161360.657098 
L 163.110638 161360.657098 
L 161.923404 161360.657098 
L 160.73617 161360.657098 
L 159.548936 161360.657098 
L 158.361702 161360.657098 
L 157.174468 161360.657098 
L 155.987234 161360.657098 
L 154.8 161360.657098 
L 153.612766 161360.657098 
L 152.425532 161360.657098 
L 151.238298 161360.657098 
L 150.051064 161360.657098 
L 148.86383 161360.657098 
L 147.676596 161360.657098 
L 146.489362 161360.657098 
L 145.302128 161360.657098 
L 144.114894 161360.657098 
L 142.92766 161360.657098 
L 141.740426 161360.657098 
L 140.553191 161360.657098 
L 139.365957 161360.657098 
L 138.178723 161360.657098 
L 136.991489 161360.657098 
L 135.804255 161360.657098 
L 134.617021 161360.657098 
L 133.429787 161360.657098 
L 132.242553 161360.657098 
L 131.055319 161360.657098 
L 129.868085 161360.657098 
L 128.680851 161360.657098 
L 127.493617 161360.657098 
L 126.306383 161360.657098 
L 125.119149 161360.657098 
L 123.931915 161360.657098 
L 122.744681 161360.657098 
L 121.557447 161360.657098 
L 120.370213 161360.657098 
L 119.182979 161360.657098 
L 117.995745 161360.657098 
L 116.808511 161360.657098 
L 115.621277 161360.657098 
L 114.434043 161360.657098 
L 113.246809 161360.657098 
L 112.059574 161360.657098 
L 110.87234 161360.657098 
L 109.685106 161360.657098 
L 108.497872 161360.657098 
L 107.310638 161360.657098 
L 106.123404 161360.657098 
L 104.93617 161360.657098 
L 103.748936 161360.657098 
L 102.561702 161360.657098 
L 101.374468 161360.657098 
L 100.187234 161360.657098 
L 99 161360.657098 
z
" style="fill:#ff8080;fill-opacity:0.5;stroke:#ff8080;stroke-opacity:0.5;"/>
   </g>
   <g id="matplotlib.axis_1">
    <g id="xtick_1">
     <g id="line2d_1">
      <path clip-path="url(#p68e2955192)" d="M 99 544.68 
L 99 73.44 
" style="fill:none;stroke:#b0b0b0;stroke-linecap:square;stroke-width:0.8;"/>
     </g>
     <g id="line2d_2">
      <defs>
       <path d="M 0 0 
L 0 3.5 
" id="m4abed1d830" style="stroke:#000000;stroke-width:0.8;"/>
      </defs>
      <g>
       <use style="stroke:#000000;stroke-width:0.8;" x="99" xlink:href="#m4abed1d830" y="544.68"/>
      </g>
     </g>
    </g>
    <g id="xtick_2">
     <g id="line2d_3">
      <path clip-path="url(#p68e2955192)" d="M 119.182979 544.68 
L 119.182979 73.44 
" style="fill:none;stroke:#b0b0b0;stroke-linecap:square;stroke-width:0.8;"/>
     </g>
     <g id="line2d_4">
      <g>
       <use style="stroke:#000000;stroke-width:0.8;" x="119.182979" xlink:href="#m4abed1d830" y="544.68"/>
      </g>
     </g>
     <g id="text_1">
      <!-- Apr -->
      <g transform="translate(110.532979 559.278437)scale(0.1 -0.1)">
       <defs>
        <path d="M 2188 4044 
L 1331 1722 
L 3047 1722 
L 2188 4044 
z
M 1831 4666 
L 2547 4666 
L 4325 0 
L 3669 0 
L 3244 1197 
L 1141 1197 
L 716 0 
L 50 0 
L 1831 4666 
z
" id="DejaVuSans-41" transform="scale(0.015625)"/>
        <path d="M 1159 525 
L 1159 -1331 
L 581 -1331 
L 581 3500 
L 1159 3500 
L 1159 2969 
Q 1341 3281 1617 3432 
Q 1894 3584 2278 3584 
Q 2916 3584 3314 3078 
Q 3713 2572 3713 1747 
Q 3713 922 3314 415 
Q 2916 -91 2278 -91 
Q 1894 -91 1617 61 
Q 1341 213 1159 525 
z
M 3116 1747 
Q 3116 2381 2855 2742 
Q 2594 3103 2138 3103 
Q 1681 3103 1420 2742 
Q 1159 2381 1159 1747 
Q 1159 1113 1420 752 
Q 1681 391 2138 391 
Q 2594 391 2855 752 
Q 3116 1113 3116 1747 
z
" id="DejaVuSans-70" transform="scale(0.015625)"/>
        <path d="M 2631 2963 
Q 2534 3019 2420 3045 
Q 2306 3072 2169 3072 
Q 1681 3072 1420 2755 
Q 1159 2438 1159 1844 
L 1159 0 
L 581 0 
L 581 3500 
L 1159 3500 
L 1159 2956 
Q 1341 3275 1631 3429 
Q 1922 3584 2338 3584 
Q 2397 3584 2469 3576 
Q 2541 3569 2628 3553 
L 2631 2963 
z
" id="DejaVuSans-72" transform="scale(0.015625)"/>
       </defs>
       <use xlink:href="#DejaVuSans-41"/>
       <use x="68.408203" xlink:href="#DejaVuSans-70"/>
       <use x="131.884766" xlink:href="#DejaVuSans-72"/>
      </g>
     </g>
    </g>
    <g id="xtick_3">
     <g id="line2d_5">
      <path clip-path="url(#p68e2955192)" d="M 227.221277 544.68 
L 227.221277 73.44 
" style="fill:none;stroke:#b0b0b0;stroke-linecap:square;stroke-width:0.8;"/>
     </g>
     <g id="line2d_6">
      <g>
       <use style="stroke:#000000;stroke-width:0.8;" x="227.221277" xlink:href="#m4abed1d830" y="544.68"/>
      </g>
     </g>
     <g id="text_2">
      <!-- Jul -->
      <g transform="translate(221.188464 559.278437)scale(0.1 -0.1)">
       <defs>
        <path d="M 628 4666 
L 1259 4666 
L 1259 325 
Q 1259 -519 939 -900 
Q 619 -1281 -91 -1281 
L -331 -1281 
L -331 -750 
L -134 -750 
Q 284 -750 456 -515 
Q 628 -281 628 325 
L 628 4666 
z
" id="DejaVuSans-4a" transform="scale(0.015625)"/>
        <path d="M 544 1381 
L 544 3500 
L 1119 3500 
L 1119 1403 
Q 1119 906 1312 657 
Q 1506 409 1894 409 
Q 2359 409 2629 706 
Q 2900 1003 2900 1516 
L 2900 3500 
L 3475 3500 
L 3475 0 
L 2900 0 
L 2900 538 
Q 2691 219 2414 64 
Q 2138 -91 1772 -91 
Q 1169 -91 856 284 
Q 544 659 544 1381 
z
M 1991 3584 
L 1991 3584 
z
" id="DejaVuSans-75" transform="scale(0.015625)"/>
        <path d="M 603 4863 
L 1178 4863 
L 1178 0 
L 603 0 
L 603 4863 
z
" id="DejaVuSans-6c" transform="scale(0.015625)"/>
       </defs>
       <use xlink:href="#DejaVuSans-4a"/>
       <use x="29.492188" xlink:href="#DejaVuSans-75"/>
       <use x="92.871094" xlink:href="#DejaVuSans-6c"/>
      </g>
     </g>
    </g>
    <g id="xtick_4">
     <g id="line2d_7">
      <path clip-path="url(#p68e2955192)" d="M 336.446809 544.68 
L 336.446809 73.44 
" style="fill:none;stroke:#b0b0b0;stroke-linecap:square;stroke-width:0.8;"/>
     </g>
     <g id="line2d_8">
      <g>
       <use style="stroke:#000000;stroke-width:0.8;" x="336.446809" xlink:href="#m4abed1d830" y="544.68"/>
      </g>
     </g>
     <g id="text_3">
      <!-- Oct -->
      <g transform="translate(327.801496 559.278437)scale(0.1 -0.1)">
       <defs>
        <path d="M 2522 4238 
Q 1834 4238 1429 3725 
Q 1025 3213 1025 2328 
Q 1025 1447 1429 934 
Q 1834 422 2522 422 
Q 3209 422 3611 934 
Q 4013 1447 4013 2328 
Q 4013 3213 3611 3725 
Q 3209 4238 2522 4238 
z
M 2522 4750 
Q 3503 4750 4090 4092 
Q 4678 3434 4678 2328 
Q 4678 1225 4090 567 
Q 3503 -91 2522 -91 
Q 1538 -91 948 565 
Q 359 1222 359 2328 
Q 359 3434 948 4092 
Q 1538 4750 2522 4750 
z
" id="DejaVuSans-4f" transform="scale(0.015625)"/>
        <path d="M 3122 3366 
L 3122 2828 
Q 2878 2963 2633 3030 
Q 2388 3097 2138 3097 
Q 1578 3097 1268 2742 
Q 959 2388 959 1747 
Q 959 1106 1268 751 
Q 1578 397 2138 397 
Q 2388 397 2633 464 
Q 2878 531 3122 666 
L 3122 134 
Q 2881 22 2623 -34 
Q 2366 -91 2075 -91 
Q 1284 -91 818 406 
Q 353 903 353 1747 
Q 353 2603 823 3093 
Q 1294 3584 2113 3584 
Q 2378 3584 2631 3529 
Q 2884 3475 3122 3366 
z
" id="DejaVuSans-63" transform="scale(0.015625)"/>
        <path d="M 1172 4494 
L 1172 3500 
L 2356 3500 
L 2356 3053 
L 1172 3053 
L 1172 1153 
Q 1172 725 1289 603 
Q 1406 481 1766 481 
L 2356 481 
L 2356 0 
L 1766 0 
Q 1100 0 847 248 
Q 594 497 594 1153 
L 594 3053 
L 172 3053 
L 172 3500 
L 594 3500 
L 594 4494 
L 1172 4494 
z
" id="DejaVuSans-74" transform="scale(0.015625)"/>
       </defs>
       <use xlink:href="#DejaVuSans-4f"/>
       <use x="78.710938" xlink:href="#DejaVuSans-63"/>
       <use x="133.691406" xlink:href="#DejaVuSans-74"/>
      </g>
     </g>
    </g>
    <g id="xtick_5">
     <g id="line2d_9">
      <path clip-path="url(#p68e2955192)" d="M 445.67234 544.68 
L 445.67234 73.44 
" style="fill:none;stroke:#b0b0b0;stroke-linecap:square;stroke-width:0.8;"/>
     </g>
     <g id="line2d_10">
      <g>
       <use style="stroke:#000000;stroke-width:0.8;" x="445.67234" xlink:href="#m4abed1d830" y="544.68"/>
      </g>
     </g>
     <g id="text_4">
      <!-- Jan -->
      <g transform="translate(437.964528 559.278437)scale(0.1 -0.1)">
       <defs>
        <path d="M 2194 1759 
Q 1497 1759 1228 1600 
Q 959 1441 959 1056 
Q 959 750 1161 570 
Q 1363 391 1709 391 
Q 2188 391 2477 730 
Q 2766 1069 2766 1631 
L 2766 1759 
L 2194 1759 
z
M 3341 1997 
L 3341 0 
L 2766 0 
L 2766 531 
Q 2569 213 2275 61 
Q 1981 -91 1556 -91 
Q 1019 -91 701 211 
Q 384 513 384 1019 
Q 384 1609 779 1909 
Q 1175 2209 1959 2209 
L 2766 2209 
L 2766 2266 
Q 2766 2663 2505 2880 
Q 2244 3097 1772 3097 
Q 1472 3097 1187 3025 
Q 903 2953 641 2809 
L 641 3341 
Q 956 3463 1253 3523 
Q 1550 3584 1831 3584 
Q 2591 3584 2966 3190 
Q 3341 2797 3341 1997 
z
" id="DejaVuSans-61" transform="scale(0.015625)"/>
        <path d="M 3513 2113 
L 3513 0 
L 2938 0 
L 2938 2094 
Q 2938 2591 2744 2837 
Q 2550 3084 2163 3084 
Q 1697 3084 1428 2787 
Q 1159 2491 1159 1978 
L 1159 0 
L 581 0 
L 581 3500 
L 1159 3500 
L 1159 2956 
Q 1366 3272 1645 3428 
Q 1925 3584 2291 3584 
Q 2894 3584 3203 3211 
Q 3513 2838 3513 2113 
z
" id="DejaVuSans-6e" transform="scale(0.015625)"/>
       </defs>
       <use xlink:href="#DejaVuSans-4a"/>
       <use x="29.492188" xlink:href="#DejaVuSans-61"/>
       <use x="90.771484" xlink:href="#DejaVuSans-6e"/>
      </g>
      <!-- 2021 -->
      <g transform="translate(432.94734 570.47625)scale(0.1 -0.1)">
       <defs>
        <path d="M 1228 531 
L 3431 531 
L 3431 0 
L 469 0 
L 469 531 
Q 828 903 1448 1529 
Q 2069 2156 2228 2338 
Q 2531 2678 2651 2914 
Q 2772 3150 2772 3378 
Q 2772 3750 2511 3984 
Q 2250 4219 1831 4219 
Q 1534 4219 1204 4116 
Q 875 4013 500 3803 
L 500 4441 
Q 881 4594 1212 4672 
Q 1544 4750 1819 4750 
Q 2544 4750 2975 4387 
Q 3406 4025 3406 3419 
Q 3406 3131 3298 2873 
Q 3191 2616 2906 2266 
Q 2828 2175 2409 1742 
Q 1991 1309 1228 531 
z
" id="DejaVuSans-32" transform="scale(0.015625)"/>
        <path d="M 2034 4250 
Q 1547 4250 1301 3770 
Q 1056 3291 1056 2328 
Q 1056 1369 1301 889 
Q 1547 409 2034 409 
Q 2525 409 2770 889 
Q 3016 1369 3016 2328 
Q 3016 3291 2770 3770 
Q 2525 4250 2034 4250 
z
M 2034 4750 
Q 2819 4750 3233 4129 
Q 3647 3509 3647 2328 
Q 3647 1150 3233 529 
Q 2819 -91 2034 -91 
Q 1250 -91 836 529 
Q 422 1150 422 2328 
Q 422 3509 836 4129 
Q 1250 4750 2034 4750 
z
" id="DejaVuSans-30" transform="scale(0.015625)"/>
        <path d="M 794 531 
L 1825 531 
L 1825 4091 
L 703 3866 
L 703 4441 
L 1819 4666 
L 2450 4666 
L 2450 531 
L 3481 531 
L 3481 0 
L 794 0 
L 794 531 
z
" id="DejaVuSans-31" transform="scale(0.015625)"/>
       </defs>
       <use xlink:href="#DejaVuSans-32"/>
       <use x="63.623047" xlink:href="#DejaVuSans-30"/>
       <use x="127.246094" xlink:href="#DejaVuSans-32"/>
       <use x="190.869141" xlink:href="#DejaVuSans-31"/>
      </g>
     </g>
    </g>
    <g id="xtick_6">
     <g id="line2d_11">
      <path clip-path="url(#p68e2955192)" d="M 552.523404 544.68 
L 552.523404 73.44 
" style="fill:none;stroke:#b0b0b0;stroke-linecap:square;stroke-width:0.8;"/>
     </g>
     <g id="line2d_12">
      <g>
       <use style="stroke:#000000;stroke-width:0.8;" x="552.523404" xlink:href="#m4abed1d830" y="544.68"/>
      </g>
     </g>
     <g id="text_5">
      <!-- Apr -->
      <g transform="translate(543.873404 559.278437)scale(0.1 -0.1)">
       <use xlink:href="#DejaVuSans-41"/>
       <use x="68.408203" xlink:href="#DejaVuSans-70"/>
       <use x="131.884766" xlink:href="#DejaVuSans-72"/>
      </g>
     </g>
    </g>
    <g id="xtick_7">
     <g id="line2d_13">
      <path clip-path="url(#p68e2955192)" d="M 660.561702 544.68 
L 660.561702 73.44 
" style="fill:none;stroke:#b0b0b0;stroke-linecap:square;stroke-width:0.8;"/>
     </g>
     <g id="line2d_14">
      <g>
       <use style="stroke:#000000;stroke-width:0.8;" x="660.561702" xlink:href="#m4abed1d830" y="544.68"/>
      </g>
     </g>
     <g id="text_6">
      <!-- Jul -->
      <g transform="translate(654.52889 559.278437)scale(0.1 -0.1)">
       <use xlink:href="#DejaVuSans-4a"/>
       <use x="29.492188" xlink:href="#DejaVuSans-75"/>
       <use x="92.871094" xlink:href="#DejaVuSans-6c"/>
      </g>
     </g>
    </g>
    <g id="xtick_8">
     <g id="line2d_15">
      <path clip-path="url(#p68e2955192)" d="M 712.8 544.68 
L 712.8 73.44 
" style="fill:none;stroke:#b0b0b0;stroke-linecap:square;stroke-width:0.8;"/>
     </g>
     <g id="line2d_16">
      <g>
       <use style="stroke:#000000;stroke-width:0.8;" x="712.8" xlink:href="#m4abed1d830" y="544.68"/>
      </g>
     </g>
    </g>
    <g id="xtick_9">
     <g id="line2d_17">
      <defs>
       <path d="M 0 0 
L 0 2 
" id="mbe9820739d" style="stroke:#000000;stroke-width:0.6;"/>
      </defs>
      <g>
       <use style="stroke:#000000;stroke-width:0.6;" x="154.8" xlink:href="#mbe9820739d" y="544.68"/>
      </g>
     </g>
    </g>
    <g id="xtick_10">
     <g id="line2d_18">
      <g>
       <use style="stroke:#000000;stroke-width:0.6;" x="191.604255" xlink:href="#mbe9820739d" y="544.68"/>
      </g>
     </g>
    </g>
    <g id="xtick_11">
     <g id="line2d_19">
      <g>
       <use style="stroke:#000000;stroke-width:0.6;" x="264.025532" xlink:href="#mbe9820739d" y="544.68"/>
      </g>
     </g>
    </g>
    <g id="xtick_12">
     <g id="line2d_20">
      <g>
       <use style="stroke:#000000;stroke-width:0.6;" x="300.829787" xlink:href="#mbe9820739d" y="544.68"/>
      </g>
     </g>
    </g>
    <g id="xtick_13">
     <g id="line2d_21">
      <g>
       <use style="stroke:#000000;stroke-width:0.6;" x="373.251064" xlink:href="#mbe9820739d" y="544.68"/>
      </g>
     </g>
    </g>
    <g id="xtick_14">
     <g id="line2d_22">
      <g>
       <use style="stroke:#000000;stroke-width:0.6;" x="408.868085" xlink:href="#mbe9820739d" y="544.68"/>
      </g>
     </g>
    </g>
    <g id="xtick_15">
     <g id="line2d_23">
      <g>
       <use style="stroke:#000000;stroke-width:0.6;" x="482.476596" xlink:href="#mbe9820739d" y="544.68"/>
      </g>
     </g>
    </g>
    <g id="xtick_16">
     <g id="line2d_24">
      <g>
       <use style="stroke:#000000;stroke-width:0.6;" x="515.719149" xlink:href="#mbe9820739d" y="544.68"/>
      </g>
     </g>
    </g>
    <g id="xtick_17">
     <g id="line2d_25">
      <g>
       <use style="stroke:#000000;stroke-width:0.6;" x="588.140426" xlink:href="#mbe9820739d" y="544.68"/>
      </g>
     </g>
    </g>
    <g id="xtick_18">
     <g id="line2d_26">
      <g>
       <use style="stroke:#000000;stroke-width:0.6;" x="624.944681" xlink:href="#mbe9820739d" y="544.68"/>
      </g>
     </g>
    </g>
    <g id="xtick_19">
     <g id="line2d_27">
      <g>
       <use style="stroke:#000000;stroke-width:0.6;" x="697.365957" xlink:href="#mbe9820739d" y="544.68"/>
      </g>
     </g>
    </g>
    <g id="text_7">
     <!-- Date -->
     <g transform="translate(393.949219 584.154375)scale(0.1 -0.1)">
      <defs>
       <path d="M 1259 4147 
L 1259 519 
L 2022 519 
Q 2988 519 3436 956 
Q 3884 1394 3884 2338 
Q 3884 3275 3436 3711 
Q 2988 4147 2022 4147 
L 1259 4147 
z
M 628 4666 
L 1925 4666 
Q 3281 4666 3915 4102 
Q 4550 3538 4550 2338 
Q 4550 1131 3912 565 
Q 3275 0 1925 0 
L 628 0 
L 628 4666 
z
" id="DejaVuSans-44" transform="scale(0.015625)"/>
       <path d="M 3597 1894 
L 3597 1613 
L 953 1613 
Q 991 1019 1311 708 
Q 1631 397 2203 397 
Q 2534 397 2845 478 
Q 3156 559 3463 722 
L 3463 178 
Q 3153 47 2828 -22 
Q 2503 -91 2169 -91 
Q 1331 -91 842 396 
Q 353 884 353 1716 
Q 353 2575 817 3079 
Q 1281 3584 2069 3584 
Q 2775 3584 3186 3129 
Q 3597 2675 3597 1894 
z
M 3022 2063 
Q 3016 2534 2758 2815 
Q 2500 3097 2075 3097 
Q 1594 3097 1305 2825 
Q 1016 2553 972 2059 
L 3022 2063 
z
" id="DejaVuSans-65" transform="scale(0.015625)"/>
      </defs>
      <use xlink:href="#DejaVuSans-44"/>
      <use x="77.001953" xlink:href="#DejaVuSans-61"/>
      <use x="138.28125" xlink:href="#DejaVuSans-74"/>
      <use x="177.490234" xlink:href="#DejaVuSans-65"/>
     </g>
    </g>
   </g>
   <g id="matplotlib.axis_2">
    <g id="ytick_1">
     <g id="line2d_28">
      <path clip-path="url(#p68e2955192)" d="M 99 474.82854 
L 712.8 474.82854 
" style="fill:none;stroke:#b0b0b0;stroke-linecap:square;stroke-width:0.8;"/>
     </g>
     <g id="line2d_29">
      <defs>
       <path d="M 0 0 
L -3.5 0 
" id="me91a084207" style="stroke:#000000;stroke-width:0.8;"/>
      </defs>
      <g>
       <use style="stroke:#000000;stroke-width:0.8;" x="99" xlink:href="#me91a084207" y="474.82854"/>
      </g>
     </g>
     <g id="text_8">
      <!-- $\mathdefault{10^{0}}$ -->
      <g transform="translate(74.4 478.627758)scale(0.1 -0.1)">
       <use transform="translate(0 0.765625)" xlink:href="#DejaVuSans-31"/>
       <use transform="translate(63.623047 0.765625)" xlink:href="#DejaVuSans-30"/>
       <use transform="translate(128.203125 39.046875)scale(0.7)" xlink:href="#DejaVuSans-30"/>
      </g>
     </g>
    </g>
    <g id="ytick_2">
     <g id="line2d_30">
      <path clip-path="url(#p68e2955192)" d="M 99 313.942711 
L 712.8 313.942711 
" style="fill:none;stroke:#b0b0b0;stroke-linecap:square;stroke-width:0.8;"/>
     </g>
     <g id="line2d_31">
      <g>
       <use style="stroke:#000000;stroke-width:0.8;" x="99" xlink:href="#me91a084207" y="313.942711"/>
      </g>
     </g>
     <g id="text_9">
      <!-- $\mathdefault{10^{1}}$ -->
      <g transform="translate(74.4 317.74193)scale(0.1 -0.1)">
       <use transform="translate(0 0.684375)" xlink:href="#DejaVuSans-31"/>
       <use transform="translate(63.623047 0.684375)" xlink:href="#DejaVuSans-30"/>
       <use transform="translate(128.203125 38.965625)scale(0.7)" xlink:href="#DejaVuSans-31"/>
      </g>
     </g>
    </g>
    <g id="ytick_3">
     <g id="line2d_32">
      <path clip-path="url(#p68e2955192)" d="M 99 153.056883 
L 712.8 153.056883 
" style="fill:none;stroke:#b0b0b0;stroke-linecap:square;stroke-width:0.8;"/>
     </g>
     <g id="line2d_33">
      <g>
       <use style="stroke:#000000;stroke-width:0.8;" x="99" xlink:href="#me91a084207" y="153.056883"/>
      </g>
     </g>
     <g id="text_10">
      <!-- $\mathdefault{10^{2}}$ -->
      <g transform="translate(74.4 156.856101)scale(0.1 -0.1)">
       <use transform="translate(0 0.765625)" xlink:href="#DejaVuSans-31"/>
       <use transform="translate(63.623047 0.765625)" xlink:href="#DejaVuSans-30"/>
       <use transform="translate(128.203125 39.046875)scale(0.7)" xlink:href="#DejaVuSans-32"/>
      </g>
     </g>
    </g>
    <g id="ytick_4">
     <g id="line2d_34">
      <path clip-path="url(#p68e2955192)" d="M 99 538.851448 
L 712.8 538.851448 
" style="fill:none;stroke:#b0b0b0;stroke-linecap:square;stroke-width:0.8;"/>
     </g>
     <g id="line2d_35">
      <defs>
       <path d="M 0 0 
L -2 0 
" id="m0cb60b688e" style="stroke:#000000;stroke-width:0.6;"/>
      </defs>
      <g>
       <use style="stroke:#000000;stroke-width:0.6;" x="99" xlink:href="#m0cb60b688e" y="538.851448"/>
      </g>
     </g>
    </g>
    <g id="ytick_5">
     <g id="line2d_36">
      <path clip-path="url(#p68e2955192)" d="M 99 523.26 
L 712.8 523.26 
" style="fill:none;stroke:#b0b0b0;stroke-linecap:square;stroke-width:0.8;"/>
     </g>
     <g id="line2d_37">
      <g>
       <use style="stroke:#000000;stroke-width:0.6;" x="99" xlink:href="#m0cb60b688e" y="523.26"/>
      </g>
     </g>
    </g>
    <g id="ytick_6">
     <g id="line2d_38">
      <path clip-path="url(#p68e2955192)" d="M 99 510.52086 
L 712.8 510.52086 
" style="fill:none;stroke:#b0b0b0;stroke-linecap:square;stroke-width:0.8;"/>
     </g>
     <g id="line2d_39">
      <g>
       <use style="stroke:#000000;stroke-width:0.6;" x="99" xlink:href="#m0cb60b688e" y="510.52086"/>
      </g>
     </g>
    </g>
    <g id="ytick_7">
     <g id="line2d_40">
      <path clip-path="url(#p68e2955192)" d="M 99 499.75007 
L 712.8 499.75007 
" style="fill:none;stroke:#b0b0b0;stroke-linecap:square;stroke-width:0.8;"/>
     </g>
     <g id="line2d_41">
      <g>
       <use style="stroke:#000000;stroke-width:0.6;" x="99" xlink:href="#m0cb60b688e" y="499.75007"/>
      </g>
     </g>
    </g>
    <g id="ytick_8">
     <g id="line2d_42">
      <path clip-path="url(#p68e2955192)" d="M 99 490.419987 
L 712.8 490.419987 
" style="fill:none;stroke:#b0b0b0;stroke-linecap:square;stroke-width:0.8;"/>
     </g>
     <g id="line2d_43">
      <g>
       <use style="stroke:#000000;stroke-width:0.6;" x="99" xlink:href="#m0cb60b688e" y="490.419987"/>
      </g>
     </g>
    </g>
    <g id="ytick_9">
     <g id="line2d_44">
      <path clip-path="url(#p68e2955192)" d="M 99 482.190272 
L 712.8 482.190272 
" style="fill:none;stroke:#b0b0b0;stroke-linecap:square;stroke-width:0.8;"/>
     </g>
     <g id="line2d_45">
      <g>
       <use style="stroke:#000000;stroke-width:0.6;" x="99" xlink:href="#m0cb60b688e" y="482.190272"/>
      </g>
     </g>
    </g>
    <g id="ytick_10">
     <g id="line2d_46">
      <path clip-path="url(#p68e2955192)" d="M 99 426.397079 
L 712.8 426.397079 
" style="fill:none;stroke:#b0b0b0;stroke-linecap:square;stroke-width:0.8;"/>
     </g>
     <g id="line2d_47">
      <g>
       <use style="stroke:#000000;stroke-width:0.6;" x="99" xlink:href="#m0cb60b688e" y="426.397079"/>
      </g>
     </g>
    </g>
    <g id="ytick_11">
     <g id="line2d_48">
      <path clip-path="url(#p68e2955192)" d="M 99 398.066491 
L 712.8 398.066491 
" style="fill:none;stroke:#b0b0b0;stroke-linecap:square;stroke-width:0.8;"/>
     </g>
     <g id="line2d_49">
      <g>
       <use style="stroke:#000000;stroke-width:0.6;" x="99" xlink:href="#m0cb60b688e" y="398.066491"/>
      </g>
     </g>
    </g>
    <g id="ytick_12">
     <g id="line2d_50">
      <path clip-path="url(#p68e2955192)" d="M 99 377.965619 
L 712.8 377.965619 
" style="fill:none;stroke:#b0b0b0;stroke-linecap:square;stroke-width:0.8;"/>
     </g>
     <g id="line2d_51">
      <g>
       <use style="stroke:#000000;stroke-width:0.6;" x="99" xlink:href="#m0cb60b688e" y="377.965619"/>
      </g>
     </g>
    </g>
    <g id="ytick_13">
     <g id="line2d_52">
      <path clip-path="url(#p68e2955192)" d="M 99 362.374171 
L 712.8 362.374171 
" style="fill:none;stroke:#b0b0b0;stroke-linecap:square;stroke-width:0.8;"/>
     </g>
     <g id="line2d_53">
      <g>
       <use style="stroke:#000000;stroke-width:0.6;" x="99" xlink:href="#m0cb60b688e" y="362.374171"/>
      </g>
     </g>
    </g>
    <g id="ytick_14">
     <g id="line2d_54">
      <path clip-path="url(#p68e2955192)" d="M 99 349.635031 
L 712.8 349.635031 
" style="fill:none;stroke:#b0b0b0;stroke-linecap:square;stroke-width:0.8;"/>
     </g>
     <g id="line2d_55">
      <g>
       <use style="stroke:#000000;stroke-width:0.6;" x="99" xlink:href="#m0cb60b688e" y="349.635031"/>
      </g>
     </g>
    </g>
    <g id="ytick_15">
     <g id="line2d_56">
      <path clip-path="url(#p68e2955192)" d="M 99 338.864241 
L 712.8 338.864241 
" style="fill:none;stroke:#b0b0b0;stroke-linecap:square;stroke-width:0.8;"/>
     </g>
     <g id="line2d_57">
      <g>
       <use style="stroke:#000000;stroke-width:0.6;" x="99" xlink:href="#m0cb60b688e" y="338.864241"/>
      </g>
     </g>
    </g>
    <g id="ytick_16">
     <g id="line2d_58">
      <path clip-path="url(#p68e2955192)" d="M 99 329.534159 
L 712.8 329.534159 
" style="fill:none;stroke:#b0b0b0;stroke-linecap:square;stroke-width:0.8;"/>
     </g>
     <g id="line2d_59">
      <g>
       <use style="stroke:#000000;stroke-width:0.6;" x="99" xlink:href="#m0cb60b688e" y="329.534159"/>
      </g>
     </g>
    </g>
    <g id="ytick_17">
     <g id="line2d_60">
      <path clip-path="url(#p68e2955192)" d="M 99 321.304443 
L 712.8 321.304443 
" style="fill:none;stroke:#b0b0b0;stroke-linecap:square;stroke-width:0.8;"/>
     </g>
     <g id="line2d_61">
      <g>
       <use style="stroke:#000000;stroke-width:0.6;" x="99" xlink:href="#m0cb60b688e" y="321.304443"/>
      </g>
     </g>
    </g>
    <g id="ytick_18">
     <g id="line2d_62">
      <path clip-path="url(#p68e2955192)" d="M 99 265.511251 
L 712.8 265.511251 
" style="fill:none;stroke:#b0b0b0;stroke-linecap:square;stroke-width:0.8;"/>
     </g>
     <g id="line2d_63">
      <g>
       <use style="stroke:#000000;stroke-width:0.6;" x="99" xlink:href="#m0cb60b688e" y="265.511251"/>
      </g>
     </g>
    </g>
    <g id="ytick_19">
     <g id="line2d_64">
      <path clip-path="url(#p68e2955192)" d="M 99 237.180663 
L 712.8 237.180663 
" style="fill:none;stroke:#b0b0b0;stroke-linecap:square;stroke-width:0.8;"/>
     </g>
     <g id="line2d_65">
      <g>
       <use style="stroke:#000000;stroke-width:0.6;" x="99" xlink:href="#m0cb60b688e" y="237.180663"/>
      </g>
     </g>
    </g>
    <g id="ytick_20">
     <g id="line2d_66">
      <path clip-path="url(#p68e2955192)" d="M 99 217.079791 
L 712.8 217.079791 
" style="fill:none;stroke:#b0b0b0;stroke-linecap:square;stroke-width:0.8;"/>
     </g>
     <g id="line2d_67">
      <g>
       <use style="stroke:#000000;stroke-width:0.6;" x="99" xlink:href="#m0cb60b688e" y="217.079791"/>
      </g>
     </g>
    </g>
    <g id="ytick_21">
     <g id="line2d_68">
      <path clip-path="url(#p68e2955192)" d="M 99 201.488343 
L 712.8 201.488343 
" style="fill:none;stroke:#b0b0b0;stroke-linecap:square;stroke-width:0.8;"/>
     </g>
     <g id="line2d_69">
      <g>
       <use style="stroke:#000000;stroke-width:0.6;" x="99" xlink:href="#m0cb60b688e" y="201.488343"/>
      </g>
     </g>
    </g>
    <g id="ytick_22">
     <g id="line2d_70">
      <path clip-path="url(#p68e2955192)" d="M 99 188.749203 
L 712.8 188.749203 
" style="fill:none;stroke:#b0b0b0;stroke-linecap:square;stroke-width:0.8;"/>
     </g>
     <g id="line2d_71">
      <g>
       <use style="stroke:#000000;stroke-width:0.6;" x="99" xlink:href="#m0cb60b688e" y="188.749203"/>
      </g>
     </g>
    </g>
    <g id="ytick_23">
     <g id="line2d_72">
      <path clip-path="url(#p68e2955192)" d="M 99 177.978413 
L 712.8 177.978413 
" style="fill:none;stroke:#b0b0b0;stroke-linecap:square;stroke-width:0.8;"/>
     </g>
     <g id="line2d_73">
      <g>
       <use style="stroke:#000000;stroke-width:0.6;" x="99" xlink:href="#m0cb60b688e" y="177.978413"/>
      </g>
     </g>
    </g>
    <g id="ytick_24">
     <g id="line2d_74">
      <path clip-path="url(#p68e2955192)" d="M 99 168.64833 
L 712.8 168.64833 
" style="fill:none;stroke:#b0b0b0;stroke-linecap:square;stroke-width:0.8;"/>
     </g>
     <g id="line2d_75">
      <g>
       <use style="stroke:#000000;stroke-width:0.6;" x="99" xlink:href="#m0cb60b688e" y="168.64833"/>
      </g>
     </g>
    </g>
    <g id="ytick_25">
     <g id="line2d_76">
      <path clip-path="url(#p68e2955192)" d="M 99 160.418614 
L 712.8 160.418614 
" style="fill:none;stroke:#b0b0b0;stroke-linecap:square;stroke-width:0.8;"/>
     </g>
     <g id="line2d_77">
      <g>
       <use style="stroke:#000000;stroke-width:0.6;" x="99" xlink:href="#m0cb60b688e" y="160.418614"/>
      </g>
     </g>
    </g>
    <g id="ytick_26">
     <g id="line2d_78">
      <path clip-path="url(#p68e2955192)" d="M 99 104.625422 
L 712.8 104.625422 
" style="fill:none;stroke:#b0b0b0;stroke-linecap:square;stroke-width:0.8;"/>
     </g>
     <g id="line2d_79">
      <g>
       <use style="stroke:#000000;stroke-width:0.6;" x="99" xlink:href="#m0cb60b688e" y="104.625422"/>
      </g>
     </g>
    </g>
    <g id="ytick_27">
     <g id="line2d_80">
      <path clip-path="url(#p68e2955192)" d="M 99 76.294834 
L 712.8 76.294834 
" style="fill:none;stroke:#b0b0b0;stroke-linecap:square;stroke-width:0.8;"/>
     </g>
     <g id="line2d_81">
      <g>
       <use style="stroke:#000000;stroke-width:0.6;" x="99" xlink:href="#m0cb60b688e" y="76.294834"/>
      </g>
     </g>
    </g>
   </g>
   <g id="line2d_82">
    <path clip-path="url(#p68e2955192)" d="M 114.432457 613 
L 114.434043 398.066491 
L 115.621277 410.805632 
L 116.808511 410.805632 
L 117.995745 387.295702 
L 121.557447 387.295702 
L 122.744681 377.965619 
L 125.119149 377.965619 
L 126.306383 369.735903 
L 127.493617 344.042301 
L 128.680851 344.042301 
L 129.868085 329.534159 
L 131.055319 260.458074 
L 132.242553 226.409873 
L 133.429787 226.409873 
L 134.617021 260.458074 
L 135.804255 232.671238 
L 136.991489 226.409873 
L 138.178723 226.409873 
L 139.365957 232.671238 
L 140.553191 269.095207 
L 141.740426 269.095207 
L 142.92766 232.671238 
L 145.302128 232.671238 
L 146.489362 254.243151 
L 148.86383 334.043583 
L 150.051064 292.973855 
L 151.238298 292.973855 
L 152.425532 334.043583 
L 153.612766 369.735903 
L 154.8 398.066491 
L 155.987234 410.805632 
L 157.174468 446.497952 
L 158.361702 474.82854 
L 159.548936 474.82854 
L 160.73617 523.26 
L 160.736833 613 
M 192.790827 613 
L 192.791489 523.26 
L 192.792152 613 
M 195.165295 613 
L 195.165957 523.26 
L 197.540426 523.26 
L 197.541088 613 
M 199.914231 613 
L 199.914894 523.26 
L 199.915556 613 
M 205.850401 613 
L 205.851064 523.26 
L 205.851726 613 
M 208.224869 613 
L 208.225532 523.26 
L 208.226194 613 
M 210.599338 613 
L 210.6 523.26 
L 211.787234 523.26 
L 212.974468 474.82854 
L 217.723404 474.82854 
L 218.910638 446.497952 
L 220.097872 446.497952 
L 221.285106 410.805632 
L 223.659574 410.805632 
L 224.846809 398.066491 
L 226.034043 387.295702 
L 227.221277 369.735903 
L 228.408511 362.374171 
L 229.595745 362.374171 
L 230.782979 387.295702 
L 231.970213 387.295702 
L 233.157447 362.374171 
L 234.344681 362.374171 
L 235.531915 377.965619 
L 236.719149 387.295702 
L 237.906383 398.066491 
L 240.280851 398.066491 
L 241.468085 426.397079 
L 243.842553 426.397079 
L 245.029787 446.497952 
L 246.217021 474.82854 
L 258.089362 474.82854 
L 259.276596 446.497952 
L 260.46383 426.397079 
L 261.651064 410.805632 
L 262.838298 410.805632 
L 264.025532 398.066491 
L 274.710638 398.066491 
L 277.085106 344.042301 
L 278.27234 334.043583 
L 279.459574 325.298206 
L 281.834043 325.298206 
L 284.208511 290.432781 
L 285.395745 287.980886 
L 286.582979 283.321038 
L 287.770213 274.841333 
L 290.144681 274.841333 
L 291.331915 263.785933 
L 292.519149 254.243151 
L 293.706383 245.848448 
L 294.893617 216.211806 
L 296.080851 194.196518 
L 298.455319 194.196518 
L 299.642553 189.923547 
L 303.204255 189.923547 
L 304.391489 192.333159 
L 306.765957 192.333159 
L 307.953191 196.760909 
L 309.140426 196.760909 
L 310.32766 198.74792 
L 311.514894 198.74792 
L 312.702128 202.190578 
L 316.26383 202.190578 
L 317.451064 207.314368 
L 318.638298 207.314368 
L 319.825532 213.670733 
L 321.012766 225.418767 
L 322.2 236.02573 
L 323.387234 236.02573 
L 324.574468 225.418767 
L 326.948936 225.418767 
L 328.13617 236.02573 
L 331.697872 236.02573 
L 332.885106 240.764619 
L 336.446809 240.764619 
L 338.821277 210.420294 
L 341.195745 210.420294 
L 342.382979 208.850075 
L 343.570213 205.072299 
L 344.757447 193.569861 
L 345.944681 190.518204 
L 347.131915 184.787795 
L 348.319149 184.787795 
L 349.506383 182.621053 
L 350.693617 182.621053 
L 351.880851 181.562369 
L 353.068085 181.038982 
L 354.255319 176.987306 
L 355.442553 181.562369 
L 357.817021 181.562369 
L 359.004255 176.987306 
L 360.191489 169.970865 
L 361.378723 165.239272 
L 362.565957 164.002571 
L 366.12766 164.002571 
L 367.314894 165.656419 
L 368.502128 165.656419 
L 369.689362 166.498258 
L 370.876596 166.923012 
L 373.251064 166.923012 
L 374.438298 168.21299 
L 378 168.21299 
L 379.187234 172.232287 
L 383.93617 172.232287 
L 385.123404 167.780346 
L 386.310638 164.412377 
L 387.497872 166.498258 
L 389.87234 166.498258 
L 391.059574 158.12753 
L 392.246809 166.498258 
L 393.434043 164.824602 
L 394.621277 174.569355 
L 395.808511 176.010062 
L 396.995745 176.010062 
L 398.182979 164.824602 
L 399.370213 176.010062 
L 400.557447 183.696026 
L 401.744681 193.569861 
L 402.931915 197.416988 
L 404.119149 199.423015 
L 406.493617 199.423015 
L 407.680851 206.55899 
L 408.868085 217.079791 
L 410.055319 223.477758 
L 411.242553 224.441522 
L 412.429787 226.409873 
L 413.617021 226.409873 
L 414.804255 231.587933 
L 415.991489 239.549426 
L 418.365957 262.102193 
L 419.553191 269.095207 
L 420.740426 265.511251 
L 421.92766 265.511251 
L 423.114894 274.841333 
L 424.302128 274.841333 
L 425.489362 278.952627 
L 426.676596 278.952627 
L 427.86383 283.321038 
L 429.051064 285.612123 
L 431.425532 295.610841 
L 432.612766 298.351263 
L 433.8 298.351263 
L 434.987234 304.177289 
L 436.174468 304.177289 
L 437.361702 310.533653 
L 438.548936 317.526667 
L 439.73617 338.864241 
L 445.67234 338.864241 
L 446.859574 344.042301 
L 448.046809 355.714675 
L 449.234043 355.714675 
L 450.421277 321.304443 
L 451.608511 313.942711 
L 452.795745 321.304443 
L 453.982979 313.942711 
L 457.544681 313.942711 
L 458.731915 321.304443 
L 459.919149 321.304443 
L 461.106383 313.942711 
L 462.293617 301.203571 
L 464.668085 301.203571 
L 465.855319 317.526667 
L 467.042553 317.526667 
L 468.229787 329.534159 
L 469.417021 317.526667 
L 471.791489 317.526667 
L 472.978723 321.304443 
L 474.165957 338.864241 
L 475.353191 317.526667 
L 476.540426 338.864241 
L 477.72766 355.714675 
L 481.289362 355.714675 
L 482.476596 338.864241 
L 483.66383 355.714675 
L 484.851064 338.864241 
L 486.038298 355.714675 
L 487.225532 355.714675 
L 488.412766 338.864241 
L 495.53617 338.864241 
L 496.723404 344.042301 
L 497.910638 344.042301 
L 499.097872 362.374171 
L 500.285106 362.374171 
L 501.47234 377.965619 
L 502.659574 387.295702 
L 503.846809 387.295702 
L 505.034043 398.066491 
L 509.782979 398.066491 
L 510.970213 410.805632 
L 512.157447 410.805632 
L 513.344681 426.397079 
L 519.280851 426.397079 
L 520.468085 446.497952 
L 521.655319 426.397079 
L 522.842553 446.497952 
L 526.404255 446.497952 
L 527.591489 426.397079 
L 537.089362 426.397079 
L 538.276596 446.497952 
L 540.651064 446.497952 
L 541.838298 426.397079 
L 543.025532 426.397079 
L 544.212766 410.805632 
L 545.4 426.397079 
L 546.587234 426.397079 
L 547.774468 410.805632 
L 550.148936 410.805632 
L 551.33617 426.397079 
L 553.710638 426.397079 
L 554.897872 410.805632 
L 559.646809 410.805632 
L 560.834043 426.397079 
L 562.021277 410.805632 
L 563.208511 410.805632 
L 564.395745 426.397079 
L 565.582979 426.397079 
L 566.770213 410.805632 
L 567.957447 398.066491 
L 571.519149 398.066491 
L 572.706383 387.295702 
L 573.893617 387.295702 
L 575.080851 377.965619 
L 576.268085 369.735903 
L 577.455319 362.374171 
L 583.391489 362.374171 
L 584.578723 355.714675 
L 585.765957 338.864241 
L 586.953191 338.864241 
L 588.140426 329.534159 
L 589.32766 329.534159 
L 590.514894 338.864241 
L 591.702128 329.534159 
L 592.889362 329.534159 
L 594.076596 338.864241 
L 595.26383 338.864241 
L 596.451064 329.534159 
L 597.638298 329.534159 
L 598.825532 334.043583 
L 600.012766 344.042301 
L 601.2 344.042301 
L 602.387234 355.714675 
L 603.574468 344.042301 
L 605.948936 344.042301 
L 607.13617 321.304443 
L 608.323404 344.042301 
L 610.697872 344.042301 
L 611.885106 338.864241 
L 613.07234 344.042301 
L 614.259574 344.042301 
L 615.446809 349.635031 
L 616.634043 349.635031 
L 617.821277 355.714675 
L 619.008511 349.635031 
L 620.195745 355.714675 
L 621.382979 387.295702 
L 622.570213 387.295702 
L 623.757447 426.397079 
L 630.880851 426.397079 
L 632.068085 387.295702 
L 633.255319 387.295702 
L 634.442553 355.714675 
L 635.629787 355.714675 
L 636.817021 349.635031 
L 643.940426 349.635031 
L 645.12766 355.714675 
L 648.689362 355.714675 
L 649.876596 349.635031 
L 657 349.635031 
L 658.187234 355.714675 
L 659.374468 355.714675 
L 661.748936 344.042301 
L 664.123404 344.042301 
L 665.310638 349.635031 
L 666.497872 349.635031 
L 667.685106 344.042301 
L 668.87234 329.534159 
L 670.059574 334.043583 
L 673.621277 334.043583 
L 674.808511 325.298206 
L 675.995745 334.043583 
L 678.370213 377.965619 
L 683.119149 377.965619 
L 684.306383 398.066491 
L 685.493617 398.066491 
L 686.680851 446.497952 
L 692.617021 446.497952 
L 693.804255 410.805632 
L 694.991489 398.066491 
L 697.365957 398.066491 
L 698.553191 349.635031 
L 699.740426 349.635031 
L 700.92766 334.043583 
L 702.114894 334.043583 
L 703.302128 329.534159 
L 705.676596 329.534159 
L 706.86383 313.942711 
L 708.051064 278.952627 
L 709.238298 258.851754 
L 710.425532 247.17938 
L 711.612766 239.549426 
L 712.8 239.549426 
L 712.8 239.549426 
" style="fill:none;stroke:#1f77b4;stroke-linecap:square;stroke-width:1.5;"/>
   </g>
   <g id="line2d_83">
    <path clip-path="url(#p68e2955192)" d="M 306.765295 613 
L 306.765957 523.26 
L 307.953191 523.26 
L 309.140426 474.82854 
L 355.442553 474.82854 
L 356.629787 523.26 
L 363.753191 523.26 
L 363.753854 613 
M 366.126997 613 
L 366.12766 523.26 
L 366.128322 613 
M 368.501465 613 
L 368.502128 523.26 
L 369.689362 474.82854 
L 373.251064 474.82854 
L 374.438298 523.26 
L 375.625532 474.82854 
L 376.812766 474.82854 
L 378 523.26 
L 379.187234 474.82854 
L 380.374468 523.26 
L 382.748936 523.26 
L 383.93617 474.82854 
L 385.123404 523.26 
L 385.124067 613 
M 391.058912 613 
L 391.059574 523.26 
L 392.246809 523.26 
L 392.247471 613 
M 394.620614 613 
L 394.621277 523.26 
L 396.995745 523.26 
L 398.182979 474.82854 
L 399.370213 523.26 
L 400.557447 523.26 
L 401.744681 474.82854 
L 407.680851 474.82854 
L 408.868085 523.26 
L 410.055319 523.26 
L 410.055982 613 
L 410.055982 613 
" style="fill:none;stroke:#ff7f0e;stroke-linecap:square;stroke-width:1.5;"/>
   </g>
   <g id="patch_3">
    <path d="M 99 544.68 
L 99 73.44 
" style="fill:none;stroke:#000000;stroke-linecap:square;stroke-linejoin:miter;stroke-width:0.8;"/>
   </g>
   <g id="patch_4">
    <path d="M 712.8 544.68 
L 712.8 73.44 
" style="fill:none;stroke:#000000;stroke-linecap:square;stroke-linejoin:miter;stroke-width:0.8;"/>
   </g>
   <g id="patch_5">
    <path d="M 99 544.68 
L 712.8 544.68 
" style="fill:none;stroke:#000000;stroke-linecap:square;stroke-linejoin:miter;stroke-width:0.8;"/>
   </g>
   <g id="patch_6">
    <path d="M 99 73.44 
L 712.8 73.44 
" style="fill:none;stroke:#000000;stroke-linecap:square;stroke-linejoin:miter;stroke-width:0.8;"/>
   </g>
   <g id="legend_1">
    <g id="patch_7">
     <path d="M 616.653125 110.79625 
L 705.8 110.79625 
Q 707.8 110.79625 707.8 108.79625 
L 707.8 80.44 
Q 707.8 78.44 705.8 78.44 
L 616.653125 78.44 
Q 614.653125 78.44 614.653125 80.44 
L 614.653125 108.79625 
Q 614.653125 110.79625 616.653125 110.79625 
z
" style="fill:#ffffff;opacity:0.8;stroke:#cccccc;stroke-linejoin:miter;"/>
    </g>
    <g id="line2d_84">
     <path d="M 618.653125 86.538437 
L 638.653125 86.538437 
" style="fill:none;stroke:#1f77b4;stroke-linecap:square;stroke-width:1.5;"/>
    </g>
    <g id="line2d_85"/>
    <g id="text_11">
     <!-- Avg Cases -->
     <g transform="translate(646.653125 90.038437)scale(0.1 -0.1)">
      <defs>
       <path d="M 191 3500 
L 800 3500 
L 1894 563 
L 2988 3500 
L 3597 3500 
L 2284 0 
L 1503 0 
L 191 3500 
z
" id="DejaVuSans-76" transform="scale(0.015625)"/>
       <path d="M 2906 1791 
Q 2906 2416 2648 2759 
Q 2391 3103 1925 3103 
Q 1463 3103 1205 2759 
Q 947 2416 947 1791 
Q 947 1169 1205 825 
Q 1463 481 1925 481 
Q 2391 481 2648 825 
Q 2906 1169 2906 1791 
z
M 3481 434 
Q 3481 -459 3084 -895 
Q 2688 -1331 1869 -1331 
Q 1566 -1331 1297 -1286 
Q 1028 -1241 775 -1147 
L 775 -588 
Q 1028 -725 1275 -790 
Q 1522 -856 1778 -856 
Q 2344 -856 2625 -561 
Q 2906 -266 2906 331 
L 2906 616 
Q 2728 306 2450 153 
Q 2172 0 1784 0 
Q 1141 0 747 490 
Q 353 981 353 1791 
Q 353 2603 747 3093 
Q 1141 3584 1784 3584 
Q 2172 3584 2450 3431 
Q 2728 3278 2906 2969 
L 2906 3500 
L 3481 3500 
L 3481 434 
z
" id="DejaVuSans-67" transform="scale(0.015625)"/>
       <path id="DejaVuSans-20" transform="scale(0.015625)"/>
       <path d="M 4122 4306 
L 4122 3641 
Q 3803 3938 3442 4084 
Q 3081 4231 2675 4231 
Q 1875 4231 1450 3742 
Q 1025 3253 1025 2328 
Q 1025 1406 1450 917 
Q 1875 428 2675 428 
Q 3081 428 3442 575 
Q 3803 722 4122 1019 
L 4122 359 
Q 3791 134 3420 21 
Q 3050 -91 2638 -91 
Q 1578 -91 968 557 
Q 359 1206 359 2328 
Q 359 3453 968 4101 
Q 1578 4750 2638 4750 
Q 3056 4750 3426 4639 
Q 3797 4528 4122 4306 
z
" id="DejaVuSans-43" transform="scale(0.015625)"/>
       <path d="M 2834 3397 
L 2834 2853 
Q 2591 2978 2328 3040 
Q 2066 3103 1784 3103 
Q 1356 3103 1142 2972 
Q 928 2841 928 2578 
Q 928 2378 1081 2264 
Q 1234 2150 1697 2047 
L 1894 2003 
Q 2506 1872 2764 1633 
Q 3022 1394 3022 966 
Q 3022 478 2636 193 
Q 2250 -91 1575 -91 
Q 1294 -91 989 -36 
Q 684 19 347 128 
L 347 722 
Q 666 556 975 473 
Q 1284 391 1588 391 
Q 1994 391 2212 530 
Q 2431 669 2431 922 
Q 2431 1156 2273 1281 
Q 2116 1406 1581 1522 
L 1381 1569 
Q 847 1681 609 1914 
Q 372 2147 372 2553 
Q 372 3047 722 3315 
Q 1072 3584 1716 3584 
Q 2034 3584 2315 3537 
Q 2597 3491 2834 3397 
z
" id="DejaVuSans-73" transform="scale(0.015625)"/>
      </defs>
      <use xlink:href="#DejaVuSans-41"/>
      <use x="62.533203" xlink:href="#DejaVuSans-76"/>
      <use x="121.712891" xlink:href="#DejaVuSans-67"/>
      <use x="185.189453" xlink:href="#DejaVuSans-20"/>
      <use x="216.976562" xlink:href="#DejaVuSans-43"/>
      <use x="286.800781" xlink:href="#DejaVuSans-61"/>
      <use x="348.080078" xlink:href="#DejaVuSans-73"/>
      <use x="400.179688" xlink:href="#DejaVuSans-65"/>
      <use x="461.703125" xlink:href="#DejaVuSans-73"/>
     </g>
    </g>
    <g id="line2d_86">
     <path d="M 618.653125 101.216562 
L 638.653125 101.216562 
" style="fill:none;stroke:#ff7f0e;stroke-linecap:square;stroke-width:1.5;"/>
    </g>
    <g id="line2d_87"/>
    <g id="text_12">
     <!-- Avg Deaths -->
     <g transform="translate(646.653125 104.716562)scale(0.1 -0.1)">
      <defs>
       <path d="M 3513 2113 
L 3513 0 
L 2938 0 
L 2938 2094 
Q 2938 2591 2744 2837 
Q 2550 3084 2163 3084 
Q 1697 3084 1428 2787 
Q 1159 2491 1159 1978 
L 1159 0 
L 581 0 
L 581 4863 
L 1159 4863 
L 1159 2956 
Q 1366 3272 1645 3428 
Q 1925 3584 2291 3584 
Q 2894 3584 3203 3211 
Q 3513 2838 3513 2113 
z
" id="DejaVuSans-68" transform="scale(0.015625)"/>
      </defs>
      <use xlink:href="#DejaVuSans-41"/>
      <use x="62.533203" xlink:href="#DejaVuSans-76"/>
      <use x="121.712891" xlink:href="#DejaVuSans-67"/>
      <use x="185.189453" xlink:href="#DejaVuSans-20"/>
      <use x="216.976562" xlink:href="#DejaVuSans-44"/>
      <use x="293.978516" xlink:href="#DejaVuSans-65"/>
      <use x="355.501953" xlink:href="#DejaVuSans-61"/>
      <use x="416.78125" xlink:href="#DejaVuSans-74"/>
      <use x="455.990234" xlink:href="#DejaVuSans-68"/>
      <use x="519.369141" xlink:href="#DejaVuSans-73"/>
     </g>
    </g>
   </g>
  </g>
 </g>
 <defs>
  <clipPath id="p68e2955192">
   <rect height="471.24" width="613.8" x="99" y="73.44"/>
  </clipPath>
 </defs>
</svg>
