<?xml version="1.0" encoding="utf-8" standalone="no"?>
<!DOCTYPE svg PUBLIC "-//W3C//DTD SVG 1.1//EN"
  "http://www.w3.org/Graphics/SVG/1.1/DTD/svg11.dtd">
<svg height="612pt" version="1.1" viewBox="0 0 792 612" width="792pt" xmlns="http://www.w3.org/2000/svg" xmlns:xlink="http://www.w3.org/1999/xlink">
 <metadata>
  <rdf:RDF xmlns:cc="http://creativecommons.org/ns#" xmlns:dc="http://purl.org/dc/elements/1.1/" xmlns:rdf="http://www.w3.org/1999/02/22-rdf-syntax-ns#">
   <cc:Work>
    <dc:type rdf:resource="http://purl.org/dc/dcmitype/StillImage"/>
    <dc:format>image/svg+xml</dc:format>
    <dc:creator>
     <cc:Agent>
      <dc:title>Matplotlib v3.4.2, https://matplotlib.org/</dc:title>
     </cc:Agent>
    </dc:creator>
   </cc:Work>
  </rdf:RDF>
 </metadata>
 <defs>
  <style type="text/css">*{stroke-linecap:butt;stroke-linejoin:round;}</style>
 </defs>
 <g id="figure_1">
  <g id="patch_1">
   <path d="M 0 612 
L 792 612 
L 792 0 
L 0 0 
z
" style="fill:#ffffff;"/>
  </g>
  <g id="axes_1">
   <g id="patch_2">
    <path d="M 99 544.68 
L 712.8 544.68 
L 712.8 73.44 
L 99 73.44 
z
" style="fill:#ffffff;"/>
   </g>
   <g id="PolyCollection_1">
    <path clip-path="url(#p68e2955192)" d="M 99 138828.57348 
L 99 138828.57348 
L 100.178119 138828.57348 
L 101.356238 138828.57348 
L 102.534357 138828.57348 
L 103.712476 138828.57348 
L 104.890595 138828.57348 
L 106.068714 138828.57348 
L 107.246833 138828.57348 
L 108.424952 138828.57348 
L 109.603071 138828.57348 
L 110.78119 138828.57348 
L 111.959309 138828.57348 
L 113.137428 138828.57348 
L 114.315547 403.004434 
L 115.493666 355.190047 
L 116.671785 339.201299 
L 117.849904 339.201299 
L 119.028023 337.539903 
L 120.206142 330.341849 
L 121.384261 330.341849 
L 122.56238 330.341849 
L 123.740499 324.35158 
L 124.918618 305.018805 
L 126.096737 292.961843 
L 127.274856 282.486112 
L 128.452975 282.486112 
L 129.631094 276.462363 
L 130.809213 276.462363 
L 131.987332 271.349832 
L 133.165451 270.807724 
L 134.34357 270.807724 
L 135.521689 270.807724 
L 136.699808 270.807724 
L 137.877927 270.807724 
L 139.056046 270.807724 
L 140.234165 270.807724 
L 141.412284 270.807724 
L 142.590403 270.807724 
L 143.768522 270.807724 
L 144.946641 270.807724 
L 146.12476 277.458792 
L 147.302879 277.458792 
L 148.480998 289.67225 
L 149.659117 293.222509 
L 150.837236 293.222509 
L 152.015355 293.222509 
L 153.193474 294.810707 
L 154.371593 298.688395 
L 155.549712 298.688395 
L 156.727831 305.980159 
L 157.90595 327.502739 
L 159.084069 328.905526 
L 160.262188 328.905526 
L 161.440307 328.905526 
L 162.618426 333.833148 
L 163.796545 342.076648 
L 164.974664 373.958555 
L 166.152783 377.040427 
L 167.330902 388.63072 
L 168.509021 388.63072 
L 169.68714 388.63072 
L 170.865259 398.320246 
L 172.043378 403.004434 
L 173.221497 415.60514 
L 174.399616 415.60514 
L 175.577735 415.60514 
L 176.755854 415.60514 
L 177.933973 415.60514 
L 179.112092 415.60514 
L 180.290211 415.60514 
L 181.46833 415.60514 
L 182.646449 415.60514 
L 183.824568 415.60514 
L 185.002687 415.60514 
L 186.180806 421.93555 
L 187.358925 421.93555 
L 188.537044 421.93555 
L 189.715163 421.93555 
L 190.893282 421.93555 
L 192.071401 421.93555 
L 193.24952 421.93555 
L 194.427639 421.93555 
L 195.605758 449.731507 
L 196.783877 421.93555 
L 197.961996 421.93555 
L 199.140115 421.93555 
L 200.318234 421.93555 
L 201.496353 421.93555 
L 202.674472 421.93555 
L 203.852591 421.93555 
L 205.03071 439.96683 
L 206.208829 421.93555 
L 207.386948 369.149324 
L 208.565067 369.149324 
L 209.743186 369.149324 
L 210.921305 361.357849 
L 212.099424 361.357849 
L 213.277543 358.970118 
L 214.455662 351.633783 
L 215.633781 329.859249 
L 216.8119 329.859249 
L 217.990019 329.859249 
L 219.168138 329.859249 
L 220.346257 329.859249 
L 221.524376 314.652724 
L 222.702495 308.960108 
L 223.880614 308.960108 
L 225.058733 308.960108 
L 226.236852 308.960108 
L 227.414971 308.960108 
L 228.59309 308.960108 
L 229.771209 308.960108 
L 230.949328 308.960108 
L 232.127447 311.032152 
L 233.305566 289.918999 
L 234.483685 289.918999 
L 235.661804 289.918999 
L 236.839923 289.918999 
L 238.018042 288.45348 
L 239.196161 288.45348 
L 240.37428 285.625508 
L 241.552399 285.625508 
L 242.730518 285.625508 
L 243.908637 282.050724 
L 245.086756 282.050724 
L 246.264875 270.449016 
L 247.442994 270.449016 
L 248.621113 260.729061 
L 249.799232 260.729061 
L 250.977351 260.729061 
L 252.15547 260.729061 
L 253.333589 260.729061 
L 254.511708 260.729061 
L 255.689827 260.729061 
L 256.867946 260.729061 
L 258.046065 260.729061 
L 259.224184 260.729061 
L 260.402303 270.449016 
L 261.580422 270.449016 
L 262.758541 263.37222 
L 263.93666 245.258577 
L 265.114779 238.58815 
L 266.292898 234.127981 
L 267.471017 234.127981 
L 268.649136 234.127981 
L 269.827255 227.563556 
L 271.005374 206.811559 
L 272.183493 195.07676 
L 273.361612 195.07676 
L 274.539731 195.07676 
L 275.71785 192.28632 
L 276.895969 185.873195 
L 278.074088 175.453504 
L 279.252207 174.576893 
L 280.430326 165.631824 
L 281.608445 161.93602 
L 282.786564 161.93602 
L 283.964683 161.93602 
L 285.142802 161.93602 
L 286.320921 161.847943 
L 287.49904 156.598011 
L 288.677159 154.614883 
L 289.855278 145.980506 
L 291.033397 145.980506 
L 292.211516 145.980506 
L 293.389635 145.980506 
L 294.567754 144.051822 
L 295.745873 144.051822 
L 296.923992 144.051822 
L 298.102111 142.331352 
L 299.28023 142.331352 
L 300.458349 142.331352 
L 301.636468 142.331352 
L 302.814587 142.331352 
L 303.992706 142.331352 
L 305.170825 142.331352 
L 306.348944 139.031507 
L 307.527063 139.031507 
L 308.705182 139.031507 
L 309.883301 139.031507 
L 311.06142 137.310484 
L 312.239539 137.310484 
L 313.417658 137.310484 
L 314.595777 137.310484 
L 315.773896 137.310484 
L 316.952015 137.310484 
L 318.130134 137.310484 
L 319.308253 137.310484 
L 320.486372 139.393819 
L 321.664491 139.393819 
L 322.84261 148.581722 
L 324.020729 148.581722 
L 325.198848 148.581722 
L 326.376967 148.581722 
L 327.555086 158.482169 
L 328.733205 159.658663 
L 329.911324 166.703643 
L 331.089443 173.14371 
L 332.267562 173.14371 
L 333.445681 173.14371 
L 334.6238 174.46821 
L 335.801919 173.605755 
L 336.980038 174.977086 
L 338.158157 179.604081 
L 339.336276 179.604081 
L 340.514395 179.604081 
L 341.692514 179.604081 
L 342.870633 179.604081 
L 344.048752 179.604081 
L 345.226871 186.799268 
L 346.40499 189.248286 
L 347.583109 188.056663 
L 348.761228 188.056663 
L 349.939347 188.056663 
L 351.117466 188.056663 
L 352.295585 189.248286 
L 353.473704 189.248286 
L 354.651823 188.603708 
L 355.829942 189.71297 
L 357.008061 189.71297 
L 358.18618 189.71297 
L 359.364299 189.71297 
L 360.542418 191.560375 
L 361.720537 191.560375 
L 362.898656 191.560375 
L 364.076775 202.274814 
L 365.254894 202.274814 
L 366.433013 202.274814 
L 367.611132 202.274814 
L 368.789251 204.321646 
L 369.96737 204.679641 
L 371.145489 204.679641 
L 372.323608 204.679641 
L 373.501727 198.325299 
L 374.679846 198.325299 
L 375.857965 198.325299 
L 377.036084 198.325299 
L 378.214203 198.325299 
L 379.392322 198.325299 
L 380.570441 198.325299 
L 381.74856 198.325299 
L 382.926679 198.325299 
L 384.104798 198.325299 
L 385.282917 188.056663 
L 386.461036 188.056663 
L 387.639155 189.993515 
L 388.817274 189.155779 
L 389.995393 188.603708 
L 391.173512 188.603708 
L 392.351631 188.603708 
L 393.52975 188.603708 
L 394.707869 188.603708 
L 395.885988 188.603708 
L 397.064107 188.603708 
L 398.242226 188.603708 
L 399.420345 188.603708 
L 400.598464 188.603708 
L 401.776583 191.128981 
L 402.954702 191.128981 
L 404.132821 193.516067 
L 405.31094 192.140428 
L 406.48906 194.568868 
L 407.667179 194.568868 
L 408.845298 194.568868 
L 410.023417 195.178856 
L 411.201536 194.417334 
L 412.379655 194.266181 
L 413.557774 194.266181 
L 414.735893 194.266181 
L 415.914012 194.266181 
L 417.092131 194.266181 
L 418.27025 194.266181 
L 419.448369 187.649623 
L 420.626488 187.649623 
L 421.804607 194.266181 
L 422.982726 195.127787 
L 424.160845 195.127787 
L 425.338964 195.127787 
L 426.517083 195.127787 
L 427.695202 195.127787 
L 428.873321 191.656663 
L 430.05144 186.577476 
L 431.229559 186.577476 
L 432.407678 172.125622 
L 433.585797 172.125622 
L 434.763916 172.125622 
L 435.942035 172.439738 
L 437.120154 170.375998 
L 438.298273 170.375998 
L 439.476392 165.320188 
L 440.654511 165.320188 
L 441.83263 165.320188 
L 443.010749 165.320188 
L 444.188868 165.320188 
L 445.366987 165.320188 
L 446.545106 170.375998 
L 447.723225 170.375998 
L 448.901344 178.432829 
L 450.079463 178.432829 
L 451.257582 178.432829 
L 452.435701 173.2855 
L 453.61382 165.133979 
L 454.791939 165.133979 
L 455.970058 172.966943 
L 457.148177 172.966943 
L 458.326296 172.966943 
L 459.504415 172.966943 
L 460.682534 150.737194 
L 461.860653 142.799591 
L 463.038772 142.799591 
L 464.216891 142.799591 
L 465.39501 142.799591 
L 466.573129 142.799591 
L 467.751248 142.799591 
L 468.929367 142.799591 
L 470.107486 146.02558 
L 471.285605 146.02558 
L 472.463724 146.02558 
L 473.641843 146.02558 
L 474.819962 146.02558 
L 475.998081 146.02558 
L 477.1762 157.24669 
L 478.354319 164.211495 
L 479.532438 171.709339 
L 480.710557 175.416722 
L 481.888676 175.637752 
L 483.066795 175.637752 
L 484.244914 175.637752 
L 485.423033 177.132439 
L 486.601152 179.722472 
L 487.779271 183.93555 
L 488.95739 183.93555 
L 490.135509 183.93555 
L 491.313628 183.93555 
L 492.491747 183.93555 
L 493.669866 183.93555 
L 494.847985 186.710453 
L 496.026104 187.649623 
L 497.204223 194.568868 
L 498.382342 195.640446 
L 499.560461 195.640446 
L 500.73858 195.640446 
L 501.916699 195.640446 
L 503.094818 200.57423 
L 504.272937 203.085199 
L 505.451056 203.085199 
L 506.629175 203.085199 
L 507.807294 203.085199 
L 508.985413 203.085199 
L 510.163532 206.133341 
L 511.341651 216.042449 
L 512.51977 219.387468 
L 513.697889 221.487681 
L 514.876008 221.487681 
L 516.054127 221.487681 
L 517.232246 221.487681 
L 518.410365 232.871164 
L 519.588484 232.871164 
L 520.766603 226.092761 
L 521.944722 226.092761 
L 523.122841 226.092761 
L 524.30096 226.092761 
L 525.479079 226.092761 
L 526.657198 226.092761 
L 527.835317 215.25234 
L 529.013436 213.563705 
L 530.191555 213.563705 
L 531.369674 213.563705 
L 532.547793 213.563705 
L 533.725912 213.563705 
L 534.904031 213.563705 
L 536.08215 207.372216 
L 537.260269 213.563705 
L 538.438388 213.563705 
L 539.616507 213.563705 
L 540.794626 213.563705 
L 541.972745 213.563705 
L 543.150864 212.531911 
L 544.328983 186.268337 
L 545.507102 186.268337 
L 546.685221 186.268337 
L 547.86334 186.268337 
L 549.041459 186.268337 
L 550.219578 186.268337 
L 551.397697 182.5533 
L 552.575816 179.446589 
L 553.753935 179.446589 
L 554.932054 179.446589 
L 556.110173 179.446589 
L 557.288292 179.446589 
L 558.466411 179.446589 
L 559.64453 179.446589 
L 560.822649 170.987712 
L 562.000768 170.987712 
L 563.178887 170.987712 
L 564.357006 170.987712 
L 565.535125 170.987712 
L 566.713244 170.987712 
L 567.891363 170.375998 
L 569.069482 178.201294 
L 570.247601 178.201294 
L 571.42572 178.201294 
L 572.603839 178.201294 
L 573.781958 178.201294 
L 574.960077 178.201294 
L 576.138196 178.201294 
L 577.316315 178.201294 
L 578.494434 178.201294 
L 579.672553 178.201294 
L 580.850672 178.201294 
L 582.028791 178.201294 
L 583.20691 178.201294 
L 584.385029 179.250302 
L 585.563148 189.387314 
L 586.741267 189.806339 
L 587.919386 188.420805 
L 589.097505 188.420805 
L 590.275624 188.420805 
L 591.453743 188.420805 
L 592.631862 188.420805 
L 593.809981 188.420805 
L 594.9881 188.420805 
L 596.166219 188.420805 
L 597.344338 188.420805 
L 598.522457 188.420805 
L 599.700576 188.420805 
L 600.878695 187.875416 
L 602.056814 186.00462 
L 603.234933 186.00462 
L 604.413052 186.00462 
L 605.591171 186.00462 
L 606.76929 186.00462 
L 607.947409 186.00462 
L 609.125528 186.00462 
L 610.303647 189.806339 
L 611.481766 189.806339 
L 612.659885 189.806339 
L 613.838004 189.806339 
L 615.016123 189.806339 
L 616.194242 189.806339 
L 617.372361 190.795581 
L 618.55048 198.866106 
L 619.728599 198.866106 
L 620.906718 198.866106 
L 622.084837 198.866106 
L 623.262956 198.866106 
L 624.441075 198.866106 
L 625.619194 198.866106 
L 626.797313 206.502329 
L 627.975432 208.701127 
L 629.153551 208.701127 
L 630.33167 208.701127 
L 631.509789 208.701127 
L 632.687908 214.191395 
L 633.866027 219.234778 
L 635.044146 216.98981 
L 636.222265 231.080313 
L 637.400384 222.364826 
L 638.578503 222.364826 
L 639.756622 222.364826 
L 640.934741 222.364826 
L 642.11286 222.364826 
L 643.290979 220.4673 
L 644.469098 209.733734 
L 645.647217 220.4673 
L 646.825336 220.4673 
L 648.003455 220.4673 
L 649.181574 220.4673 
L 650.359693 220.4673 
L 651.537812 220.4673 
L 652.715931 220.4673 
L 653.89405 224.824241 
L 655.072169 224.824241 
L 656.250288 224.824241 
L 657.428407 224.824241 
L 658.606526 224.824241 
L 659.784645 228.534799 
L 660.962764 234.914681 
L 662.140883 234.914681 
L 663.319002 234.914681 
L 664.497121 234.914681 
L 665.67524 234.914681 
L 666.853359 234.914681 
L 668.031478 228.534799 
L 669.209597 231.546439 
L 670.387716 243.06509 
L 671.565835 243.06509 
L 672.743954 243.06509 
L 673.922073 243.06509 
L 675.100192 235.611595 
L 676.278311 234.421788 
L 677.45643 226.34971 
L 678.634549 214.261544 
L 679.812668 214.261544 
L 680.990787 206.564047 
L 682.168906 206.564047 
L 683.347025 200.854339 
L 684.525144 189.666339 
L 685.703263 188.0113 
L 686.881382 185.090622 
L 688.059501 185.090622 
L 689.23762 185.090622 
L 690.415739 185.090622 
L 691.593858 183.808568 
L 692.771977 165.289113 
L 693.950096 158.343632 
L 695.128215 153.634541 
L 696.306334 153.634541 
L 697.484453 153.634541 
L 698.662572 153.634541 
L 699.840691 152.569296 
L 701.01881 148.935641 
L 702.196929 120.93931 
L 703.375048 113.09849 
L 704.553167 113.09849 
L 705.731286 113.09849 
L 706.909405 113.09849 
L 708.087524 105.116223 
L 709.265643 98.223566 
L 710.443762 96.775947 
L 711.621881 94.86 
L 712.8 94.86 
L 712.8 129.238741 
L 712.8 129.238741 
L 711.621881 136.708967 
L 710.443762 148.370368 
L 709.265643 152.068599 
L 708.087524 154.79723 
L 706.909405 158.177808 
L 705.731286 160.599488 
L 704.553167 178.510206 
L 703.375048 182.099528 
L 702.196929 185.133832 
L 701.01881 189.526665 
L 699.840691 189.526665 
L 698.662572 189.526665 
L 697.484453 189.526665 
L 696.306334 192.971875 
L 695.128215 193.565784 
L 693.950096 199.907248 
L 692.771977 205.100016 
L 691.593858 207.122389 
L 690.415739 212.463751 
L 689.23762 233.255084 
L 688.059501 240.512691 
L 686.881382 257.328605 
L 685.703263 257.328605 
L 684.525144 257.328605 
L 683.347025 257.328605 
L 682.168906 257.328605 
L 680.990787 254.520462 
L 679.812668 258.197295 
L 678.634549 258.197295 
L 677.45643 258.197295 
L 676.278311 258.197295 
L 675.100192 259.524342 
L 673.922073 259.524342 
L 672.743954 258.930922 
L 671.565835 258.930922 
L 670.387716 264.333574 
L 669.209597 264.333574 
L 668.031478 264.333574 
L 666.853359 264.333574 
L 665.67524 275.482189 
L 664.497121 277.458792 
L 663.319002 275.676949 
L 662.140883 271.896877 
L 660.962764 275.482189 
L 659.784645 275.482189 
L 658.606526 275.482189 
L 657.428407 275.482189 
L 656.250288 275.482189 
L 655.072169 275.288059 
L 653.89405 275.288059 
L 652.715931 275.288059 
L 651.537812 275.288059 
L 650.359693 275.288059 
L 649.181574 271.896877 
L 648.003455 271.896877 
L 646.825336 262.739758 
L 645.647217 275.288059 
L 644.469098 262.739758 
L 643.290979 262.739758 
L 642.11286 265.639784 
L 640.934741 265.639784 
L 639.756622 265.639784 
L 638.578503 265.639784 
L 637.400384 265.146622 
L 636.222265 265.146622 
L 635.044146 265.146622 
L 633.866027 265.146622 
L 632.687908 265.146622 
L 631.509789 255.21029 
L 630.33167 255.21029 
L 629.153551 253.030157 
L 627.975432 253.030157 
L 626.797313 251.837725 
L 625.619194 250.411733 
L 624.441075 250.411733 
L 623.262956 250.668499 
L 622.084837 243.749158 
L 620.906718 243.178562 
L 619.728599 238.168718 
L 618.55048 238.168718 
L 617.372361 229.794077 
L 616.194242 229.794077 
L 615.016123 238.064316 
L 613.838004 229.794077 
L 612.659885 226.607764 
L 611.481766 226.607764 
L 610.303647 226.607764 
L 609.125528 226.607764 
L 607.947409 226.607764 
L 606.76929 225.751861 
L 605.591171 225.751861 
L 604.413052 225.751861 
L 603.234933 225.751861 
L 602.056814 228.357038 
L 600.878695 228.357038 
L 599.700576 228.357038 
L 598.522457 228.091378 
L 597.344338 228.357038 
L 596.166219 230.894871 
L 594.9881 230.894871 
L 593.809981 230.894871 
L 592.631862 230.894871 
L 591.453743 230.894871 
L 590.275624 230.894871 
L 589.097505 230.894871 
L 587.919386 229.251151 
L 586.741267 229.251151 
L 585.563148 228.179801 
L 584.385029 228.179801 
L 583.20691 228.179801 
L 582.028791 228.179801 
L 580.850672 228.179801 
L 579.672553 224.241307 
L 578.494434 224.241307 
L 577.316315 224.241307 
L 576.138196 224.241307 
L 574.960077 224.241307 
L 573.781958 213.011211 
L 572.603839 213.011211 
L 571.42572 211.921234 
L 570.247601 211.316701 
L 569.069482 211.316701 
L 567.891363 211.316701 
L 566.713244 211.316701 
L 565.535125 211.316701 
L 564.357006 211.316701 
L 563.178887 212.056404 
L 562.000768 220.389522 
L 560.822649 220.389522 
L 559.64453 220.389522 
L 558.466411 220.389522 
L 557.288292 225.922069 
L 556.110173 225.922069 
L 554.932054 230.894871 
L 553.753935 241.388238 
L 552.575816 241.388238 
L 551.397697 241.388238 
L 550.219578 242.388723 
L 549.041459 247.169937 
L 547.86334 247.169937 
L 546.685221 253.030157 
L 545.507102 253.030157 
L 544.328983 253.030157 
L 543.150864 253.030157 
L 541.972745 253.030157 
L 540.794626 254.657795 
L 539.616507 258.489671 
L 538.438388 258.489671 
L 537.260269 258.489671 
L 536.08215 258.489671 
L 534.904031 258.489671 
L 533.725912 259.226899 
L 532.547793 259.226899 
L 531.369674 259.226899 
L 530.191555 256.614169 
L 529.013436 256.614169 
L 527.835317 256.614169 
L 526.657198 256.614169 
L 525.479079 256.614169 
L 524.30096 256.614169 
L 523.122841 256.614169 
L 521.944722 256.614169 
L 520.766603 256.614169 
L 519.588484 256.614169 
L 518.410365 256.614169 
L 517.232246 255.62802 
L 516.054127 254.383442 
L 514.876008 257.328605 
L 513.697889 275.482189 
L 512.51977 275.482189 
L 511.341651 275.482189 
L 510.163532 275.482189 
L 508.985413 275.482189 
L 507.807294 257.328605 
L 506.629175 246.326226 
L 505.451056 239.329275 
L 504.272937 234.127981 
L 503.094818 228.623878 
L 501.916699 228.623878 
L 500.73858 228.623878 
L 499.560461 224.241307 
L 498.382342 224.241307 
L 497.204223 220.234268 
L 496.026104 215.825932 
L 494.847985 215.825932 
L 493.669866 215.825932 
L 492.491747 215.825932 
L 491.313628 215.825932 
L 490.135509 215.825932 
L 488.95739 209.668674 
L 487.779271 208.637175 
L 486.601152 208.637175 
L 485.423033 208.637175 
L 484.244914 199.0838 
L 483.066795 199.138347 
L 481.888676 198.325299 
L 480.710557 198.325299 
L 479.532438 198.325299 
L 478.354319 198.325299 
L 477.1762 198.325299 
L 475.998081 196.888976 
L 474.819962 193.765066 
L 473.641843 193.765066 
L 472.463724 194.115407 
L 471.285605 193.665342 
L 470.107486 193.665342 
L 468.929367 193.665342 
L 467.751248 193.665342 
L 466.573129 193.665342 
L 465.39501 193.715183 
L 464.216891 201.023033 
L 463.038772 203.143504 
L 461.860653 203.143504 
L 460.682534 203.143504 
L 459.504415 203.143504 
L 458.326296 208.064645 
L 457.148177 209.864067 
L 455.970058 208.064645 
L 454.791939 208.064645 
L 453.61382 208.064645 
L 452.435701 208.064645 
L 451.257582 208.064645 
L 450.079463 208.064645 
L 448.901344 208.064645 
L 447.723225 203.085199 
L 446.545106 203.085199 
L 445.366987 203.085199 
L 444.188868 203.085199 
L 443.010749 203.085199 
L 441.83263 204.143445 
L 440.654511 204.143445 
L 439.476392 219.924958 
L 438.298273 219.924958 
L 437.120154 219.924958 
L 435.942035 219.924958 
L 434.763916 219.924958 
L 433.585797 220.936093 
L 432.407678 220.936093 
L 431.229559 220.936093 
L 430.05144 224.241307 
L 428.873321 224.241307 
L 427.695202 224.241307 
L 426.517083 224.241307 
L 425.338964 222.767801 
L 424.160845 222.767801 
L 422.982726 222.767801 
L 421.804607 222.767801 
L 420.626488 222.767801 
L 419.448369 222.767801 
L 418.27025 222.767801 
L 417.092131 223.254965 
L 415.914012 223.254965 
L 414.735893 223.254965 
L 413.557774 223.254965 
L 412.379655 211.921234 
L 411.201536 211.921234 
L 410.023417 211.921234 
L 408.845298 211.921234 
L 407.667179 211.450517 
L 406.48906 227.826887 
L 405.31094 227.826887 
L 404.132821 227.826887 
L 402.954702 227.826887 
L 401.776583 227.826887 
L 400.598464 211.450517 
L 399.420345 210.585994 
L 398.242226 217.580315 
L 397.064107 216.98981 
L 395.885988 218.930558 
L 394.707869 218.930558 
L 393.52975 224.740618 
L 392.351631 225.666938 
L 391.173512 226.263938 
L 389.995393 226.263938 
L 388.817274 226.263938 
L 387.639155 226.263938 
L 386.461036 226.263938 
L 385.282917 226.263938 
L 384.104798 226.263938 
L 382.926679 226.263938 
L 381.74856 233.641474 
L 380.570441 233.641474 
L 379.392322 226.263938 
L 378.214203 226.263938 
L 377.036084 221.805163 
L 375.857965 217.21057 
L 374.679846 217.21057 
L 373.501727 217.21057 
L 372.323608 217.21057 
L 371.145489 221.093174 
L 369.96737 221.093174 
L 368.789251 221.093174 
L 367.611132 217.654537 
L 366.433013 217.654537 
L 365.254894 217.654537 
L 364.076775 225.582134 
L 362.898656 225.582134 
L 361.720537 225.582134 
L 360.542418 225.582134 
L 359.364299 225.582134 
L 358.18618 216.98981 
L 357.008061 214.825711 
L 355.829942 214.825711 
L 354.651823 213.425104 
L 353.473704 213.425104 
L 352.295585 213.425104 
L 351.117466 213.425104 
L 349.939347 213.425104 
L 348.761228 213.425104 
L 347.583109 213.425104 
L 346.40499 213.425104 
L 345.226871 213.425104 
L 344.048752 213.425104 
L 342.870633 213.425104 
L 341.692514 213.981435 
L 340.514395 219.234778 
L 339.336276 219.234778 
L 338.158157 219.234778 
L 336.980038 219.234778 
L 335.801919 219.234778 
L 334.6238 219.234778 
L 333.445681 207.309662 
L 332.267562 204.500377 
L 331.089443 202.736552 
L 329.911324 202.736552 
L 328.733205 202.736552 
L 327.555086 202.736552 
L 326.376967 198.541038 
L 325.198848 190.416804 
L 324.020729 188.375167 
L 322.84261 177.056815 
L 321.664491 173.641445 
L 320.486372 173.641445 
L 319.308253 169.90449 
L 318.130134 164.670967 
L 316.952015 163.84643 
L 315.773896 163.84643 
L 314.595777 160.370053 
L 313.417658 160.370053 
L 312.239539 160.370053 
L 311.06142 159.3483 
L 309.883301 159.3483 
L 308.705182 159.3483 
L 307.527063 159.3483 
L 306.348944 158.426716 
L 305.170825 158.426716 
L 303.992706 158.426716 
L 302.814587 158.426716 
L 301.636468 159.292042 
L 300.458349 163.543895 
L 299.28023 163.543895 
L 298.102111 172.720338 
L 296.923992 172.720338 
L 295.745873 172.720338 
L 294.567754 179.801529 
L 293.389635 179.801529 
L 292.211516 179.801529 
L 291.033397 179.801529 
L 289.855278 180.477747 
L 288.677159 183.555408 
L 287.49904 185.480634 
L 286.320921 192.091876 
L 285.142802 193.169193 
L 283.964683 193.665342 
L 282.786564 201.531977 
L 281.608445 215.610193 
L 280.430326 226.178288 
L 279.252207 233.158874 
L 278.074088 237.960095 
L 276.895969 241.830842 
L 275.71785 251.706682 
L 274.539731 255.21029 
L 273.361612 281.618468 
L 272.183493 284.035308 
L 271.005374 288.938025 
L 269.827255 296.442028 
L 268.649136 296.442028 
L 267.471017 298.97519 
L 266.292898 298.97519 
L 265.114779 301.61987 
L 263.93666 301.61987 
L 262.758541 301.61987 
L 261.580422 301.61987 
L 260.402303 298.97519 
L 259.224184 298.97519 
L 258.046065 298.97519 
L 256.867946 298.97519 
L 255.689827 298.688395 
L 254.511708 298.688395 
L 253.333589 298.688395 
L 252.15547 298.97519 
L 250.977351 301.61987 
L 249.799232 302.527948 
L 248.621113 302.527948 
L 247.442994 314.652724 
L 246.264875 325.681893 
L 245.086756 325.681893 
L 243.908637 325.681893 
L 242.730518 357.429436 
L 241.552399 358.194839 
L 240.37428 358.194839 
L 239.196161 358.194839 
L 238.018042 358.194839 
L 236.839923 358.194839 
L 235.661804 375.995473 
L 234.483685 398.320246 
L 233.305566 375.995473 
L 232.127447 386.126886 
L 230.949328 386.126886 
L 229.771209 386.126886 
L 228.59309 386.126886 
L 227.414971 398.320246 
L 226.236852 386.126886 
L 225.058733 386.126886 
L 223.880614 398.320246 
L 222.702495 398.320246 
L 221.524376 398.320246 
L 220.346257 399.841424 
L 219.168138 417.642058 
L 217.990019 443.048702 
L 216.8119 481.613415 
L 215.633781 481.613415 
L 214.455662 481.613415 
L 213.277543 481.613415 
L 212.099424 481.613415 
L 210.921305 481.613415 
L 209.743186 481.613415 
L 208.565067 487.943825 
L 207.386948 138828.57348 
L 206.208829 138828.57348 
L 205.03071 138828.57348 
L 203.852591 138828.57348 
L 202.674472 138828.57348 
L 201.496353 138828.57348 
L 200.318234 138828.57348 
L 199.140115 138828.57348 
L 197.961996 138828.57348 
L 196.783877 138828.57348 
L 195.605758 138828.57348 
L 194.427639 138828.57348 
L 193.24952 138828.57348 
L 192.071401 487.943825 
L 190.893282 481.613415 
L 189.715163 481.613415 
L 188.537044 481.613415 
L 187.358925 481.613415 
L 186.180806 481.613415 
L 185.002687 481.613415 
L 183.824568 481.613415 
L 182.646449 481.613415 
L 181.46833 481.613415 
L 180.290211 481.613415 
L 179.112092 481.613415 
L 177.933973 481.613415 
L 176.755854 481.613415 
L 175.577735 481.613415 
L 174.399616 481.613415 
L 173.221497 481.613415 
L 172.043378 481.613415 
L 170.865259 481.613415 
L 169.68714 481.613415 
L 168.509021 481.613415 
L 167.330902 443.048702 
L 166.152783 439.96683 
L 164.974664 439.96683 
L 163.796545 439.96683 
L 162.618426 439.96683 
L 161.440307 439.96683 
L 160.262188 401.402117 
L 159.084069 398.320246 
L 157.90595 386.126886 
L 156.727831 384.91304 
L 155.549712 374.968383 
L 154.371593 373.958555 
L 153.193474 365.561194 
L 152.015355 350.947109 
L 150.837236 338.64238 
L 149.659117 332.814763 
L 148.480998 332.814763 
L 147.302879 328.434282 
L 146.12476 327.502739 
L 144.946641 316.164334 
L 143.768522 302.833716 
L 142.590403 301.61987 
L 141.412284 298.97519 
L 140.234165 294.01136 
L 139.056046 301.61987 
L 137.877927 301.61987 
L 136.699808 302.833716 
L 135.521689 315.782851 
L 134.34357 303.449961 
L 133.165451 323.480792 
L 131.987332 328.434282 
L 130.809213 337.539903 
L 129.631094 337.539903 
L 128.452975 338.088613 
L 127.274856 344.480301 
L 126.096737 358.970118 
L 124.918618 386.126886 
L 123.740499 399.841424 
L 122.56238 415.60514 
L 121.384261 417.642058 
L 120.206142 439.96683 
L 119.028023 446.29724 
L 117.849904 138828.57348 
L 116.671785 138828.57348 
L 115.493666 138828.57348 
L 114.315547 138828.57348 
L 113.137428 138828.57348 
L 111.959309 138828.57348 
L 110.78119 138828.57348 
L 109.603071 138828.57348 
L 108.424952 138828.57348 
L 107.246833 138828.57348 
L 106.068714 138828.57348 
L 104.890595 138828.57348 
L 103.712476 138828.57348 
L 102.534357 138828.57348 
L 101.356238 138828.57348 
L 100.178119 138828.57348 
L 99 138828.57348 
z
" style="fill:#8080ff;fill-opacity:0.5;stroke:#8080ff;stroke-opacity:0.5;"/>
   </g>
   <g id="PolyCollection_2">
    <path clip-path="url(#p68e2955192)" d="M 99 138828.57348 
L 99 138828.57348 
L 100.178119 138828.57348 
L 101.356238 138828.57348 
L 102.534357 138828.57348 
L 103.712476 138828.57348 
L 104.890595 138828.57348 
L 106.068714 138828.57348 
L 107.246833 138828.57348 
L 108.424952 138828.57348 
L 109.603071 138828.57348 
L 110.78119 138828.57348 
L 111.959309 138828.57348 
L 113.137428 138828.57348 
L 114.315547 138828.57348 
L 115.493666 138828.57348 
L 116.671785 138828.57348 
L 117.849904 138828.57348 
L 119.028023 138828.57348 
L 120.206142 138828.57348 
L 121.384261 138828.57348 
L 122.56238 138828.57348 
L 123.740499 138828.57348 
L 124.918618 138828.57348 
L 126.096737 138828.57348 
L 127.274856 138828.57348 
L 128.452975 138828.57348 
L 129.631094 138828.57348 
L 130.809213 503.04363 
L 131.987332 481.613415 
L 133.165451 481.613415 
L 134.34357 481.613415 
L 135.521689 481.613415 
L 136.699808 481.613415 
L 137.877927 481.613415 
L 139.056046 481.613415 
L 140.234165 481.613415 
L 141.412284 481.613415 
L 142.590403 481.613415 
L 143.768522 481.613415 
L 144.946641 481.613415 
L 146.12476 481.613415 
L 147.302879 481.613415 
L 148.480998 481.613415 
L 149.659117 481.613415 
L 150.837236 481.613415 
L 152.015355 481.613415 
L 153.193474 449.731507 
L 154.371593 449.731507 
L 155.549712 449.731507 
L 156.727831 481.613415 
L 157.90595 481.613415 
L 159.084069 481.613415 
L 160.262188 449.731507 
L 161.440307 449.731507 
L 162.618426 449.731507 
L 163.796545 449.731507 
L 164.974664 449.731507 
L 166.152783 449.731507 
L 167.330902 449.731507 
L 168.509021 449.731507 
L 169.68714 481.613415 
L 170.865259 481.613415 
L 172.043378 481.613415 
L 173.221497 481.613415 
L 174.399616 503.04363 
L 175.577735 503.04363 
L 176.755854 138828.57348 
L 177.933973 138828.57348 
L 179.112092 138828.57348 
L 180.290211 138828.57348 
L 181.46833 138828.57348 
L 182.646449 138828.57348 
L 183.824568 138828.57348 
L 185.002687 138828.57348 
L 186.180806 138828.57348 
L 187.358925 138828.57348 
L 188.537044 138828.57348 
L 189.715163 138828.57348 
L 190.893282 138828.57348 
L 192.071401 138828.57348 
L 193.24952 138828.57348 
L 194.427639 138828.57348 
L 195.605758 138828.57348 
L 196.783877 138828.57348 
L 197.961996 138828.57348 
L 199.140115 138828.57348 
L 200.318234 138828.57348 
L 201.496353 138828.57348 
L 202.674472 138828.57348 
L 203.852591 138828.57348 
L 205.03071 138828.57348 
L 206.208829 138828.57348 
L 207.386948 138828.57348 
L 208.565067 138828.57348 
L 209.743186 138828.57348 
L 210.921305 138828.57348 
L 212.099424 138828.57348 
L 213.277543 138828.57348 
L 214.455662 138828.57348 
L 215.633781 138828.57348 
L 216.8119 138828.57348 
L 217.990019 138828.57348 
L 219.168138 138828.57348 
L 220.346257 138828.57348 
L 221.524376 138828.57348 
L 222.702495 138828.57348 
L 223.880614 138828.57348 
L 225.058733 138828.57348 
L 226.236852 138828.57348 
L 227.414971 138828.57348 
L 228.59309 138828.57348 
L 229.771209 138828.57348 
L 230.949328 138828.57348 
L 232.127447 138828.57348 
L 233.305566 138828.57348 
L 234.483685 138828.57348 
L 235.661804 138828.57348 
L 236.839923 138828.57348 
L 238.018042 138828.57348 
L 239.196161 503.04363 
L 240.37428 503.04363 
L 241.552399 503.04363 
L 242.730518 503.04363 
L 243.908637 503.04363 
L 245.086756 503.04363 
L 246.264875 503.04363 
L 247.442994 503.04363 
L 248.621113 138828.57348 
L 249.799232 138828.57348 
L 250.977351 503.04363 
L 252.15547 503.04363 
L 253.333589 503.04363 
L 254.511708 503.04363 
L 255.689827 503.04363 
L 256.867946 481.613415 
L 258.046065 481.613415 
L 259.224184 481.613415 
L 260.402303 481.613415 
L 261.580422 481.613415 
L 262.758541 481.613415 
L 263.93666 481.613415 
L 265.114779 481.613415 
L 266.292898 481.613415 
L 267.471017 481.613415 
L 268.649136 481.613415 
L 269.827255 481.613415 
L 271.005374 481.613415 
L 272.183493 481.613415 
L 273.361612 503.04363 
L 274.539731 503.04363 
L 275.71785 503.04363 
L 276.895969 481.613415 
L 278.074088 503.04363 
L 279.252207 503.04363 
L 280.430326 449.731507 
L 281.608445 449.731507 
L 282.786564 449.731507 
L 283.964683 439.96683 
L 285.142802 439.96683 
L 286.320921 439.96683 
L 287.49904 439.96683 
L 288.677159 439.96683 
L 289.855278 439.96683 
L 291.033397 439.96683 
L 292.211516 439.96683 
L 293.389635 439.96683 
L 294.567754 439.96683 
L 295.745873 421.93555 
L 296.923992 421.93555 
L 298.102111 421.93555 
L 299.28023 421.93555 
L 300.458349 439.96683 
L 301.636468 439.96683 
L 302.814587 439.96683 
L 303.992706 421.93555 
L 305.170825 403.004434 
L 306.348944 403.004434 
L 307.527063 403.004434 
L 308.705182 398.320246 
L 309.883301 398.320246 
L 311.06142 398.320246 
L 312.239539 398.320246 
L 313.417658 398.320246 
L 314.595777 398.320246 
L 315.773896 398.320246 
L 316.952015 398.320246 
L 318.130134 398.320246 
L 319.308253 398.320246 
L 320.486372 398.320246 
L 321.664491 398.320246 
L 322.84261 398.320246 
L 324.020729 398.320246 
L 325.198848 403.004434 
L 326.376967 415.60514 
L 327.555086 415.60514 
L 328.733205 415.60514 
L 329.911324 403.004434 
L 331.089443 403.004434 
L 332.267562 403.004434 
L 333.445681 403.004434 
L 334.6238 403.004434 
L 335.801919 403.004434 
L 336.980038 403.004434 
L 338.158157 403.004434 
L 339.336276 398.320246 
L 340.514395 398.320246 
L 341.692514 398.320246 
L 342.870633 398.320246 
L 344.048752 398.320246 
L 345.226871 403.004434 
L 346.40499 415.60514 
L 347.583109 403.004434 
L 348.761228 403.004434 
L 349.939347 403.004434 
L 351.117466 403.004434 
L 352.295585 403.004434 
L 353.473704 403.004434 
L 354.651823 403.004434 
L 355.829942 415.60514 
L 357.008061 415.60514 
L 358.18618 415.60514 
L 359.364299 403.004434 
L 360.542418 355.190047 
L 361.720537 355.190047 
L 362.898656 355.190047 
L 364.076775 403.004434 
L 365.254894 403.004434 
L 366.433013 403.004434 
L 367.611132 403.004434 
L 368.789251 355.190047 
L 369.96737 355.190047 
L 371.145489 355.190047 
L 372.323608 355.190047 
L 373.501727 355.190047 
L 374.679846 355.190047 
L 375.857965 357.429436 
L 377.036084 415.60514 
L 378.214203 415.60514 
L 379.392322 415.60514 
L 380.570441 415.60514 
L 381.74856 415.60514 
L 382.926679 415.60514 
L 384.104798 415.60514 
L 385.282917 415.60514 
L 386.461036 415.60514 
L 387.639155 415.60514 
L 388.817274 421.93555 
L 389.995393 421.93555 
L 391.173512 421.93555 
L 392.351631 449.731507 
L 393.52975 449.731507 
L 394.707869 481.613415 
L 395.885988 481.613415 
L 397.064107 481.613415 
L 398.242226 481.613415 
L 399.420345 481.613415 
L 400.598464 481.613415 
L 401.776583 481.613415 
L 402.954702 481.613415 
L 404.132821 481.613415 
L 405.31094 481.613415 
L 406.48906 449.731507 
L 407.667179 449.731507 
L 408.845298 449.731507 
L 410.023417 439.96683 
L 411.201536 439.96683 
L 412.379655 421.93555 
L 413.557774 421.93555 
L 414.735893 403.004434 
L 415.914012 403.004434 
L 417.092131 403.004434 
L 418.27025 403.004434 
L 419.448369 403.004434 
L 420.626488 372.96542 
L 421.804607 388.63072 
L 422.982726 388.63072 
L 424.160845 388.63072 
L 425.338964 388.63072 
L 426.517083 388.63072 
L 427.695202 388.63072 
L 428.873321 388.63072 
L 430.05144 388.63072 
L 431.229559 388.63072 
L 432.407678 388.63072 
L 433.585797 388.63072 
L 434.763916 388.63072 
L 435.942035 388.63072 
L 437.120154 398.320246 
L 438.298273 403.004434 
L 439.476392 403.004434 
L 440.654511 403.004434 
L 441.83263 403.004434 
L 443.010749 415.60514 
L 444.188868 415.60514 
L 445.366987 415.60514 
L 446.545106 415.60514 
L 447.723225 421.93555 
L 448.901344 421.93555 
L 450.079463 421.93555 
L 451.257582 449.731507 
L 452.435701 429.012346 
L 453.61382 429.012346 
L 454.791939 429.012346 
L 455.970058 429.012346 
L 457.148177 429.012346 
L 458.326296 429.012346 
L 459.504415 429.012346 
L 460.682534 429.012346 
L 461.860653 403.004434 
L 463.038772 398.320246 
L 464.216891 398.320246 
L 465.39501 398.320246 
L 466.573129 398.320246 
L 467.751248 398.320246 
L 468.929367 380.288965 
L 470.107486 380.288965 
L 471.285605 380.288965 
L 472.463724 380.288965 
L 473.641843 380.288965 
L 474.819962 380.288965 
L 475.998081 398.320246 
L 477.1762 398.320246 
L 478.354319 398.320246 
L 479.532438 398.320246 
L 480.710557 380.288965 
L 481.888676 380.288965 
L 483.066795 373.958555 
L 484.244914 373.958555 
L 485.423033 380.288965 
L 486.601152 380.288965 
L 487.779271 380.288965 
L 488.95739 380.288965 
L 490.135509 380.288965 
L 491.313628 380.288965 
L 492.491747 380.288965 
L 493.669866 380.288965 
L 494.847985 380.288965 
L 496.026104 380.288965 
L 497.204223 403.004434 
L 498.382342 403.004434 
L 499.560461 415.60514 
L 500.73858 403.004434 
L 501.916699 403.004434 
L 503.094818 403.004434 
L 504.272937 403.004434 
L 505.451056 408.084923 
L 506.629175 408.084923 
L 507.807294 408.084923 
L 508.985413 439.96683 
L 510.163532 449.731507 
L 511.341651 439.96683 
L 512.51977 439.96683 
L 513.697889 449.731507 
L 514.876008 449.731507 
L 516.054127 449.731507 
L 517.232246 449.731507 
L 518.410365 449.731507 
L 519.588484 439.96683 
L 520.766603 439.96683 
L 521.944722 439.96683 
L 523.122841 439.96683 
L 524.30096 439.96683 
L 525.479079 439.96683 
L 526.657198 439.96683 
L 527.835317 439.96683 
L 529.013436 439.96683 
L 530.191555 439.96683 
L 531.369674 439.96683 
L 532.547793 439.96683 
L 533.725912 439.96683 
L 534.904031 439.96683 
L 536.08215 439.96683 
L 537.260269 439.96683 
L 538.438388 439.96683 
L 539.616507 439.96683 
L 540.794626 439.96683 
L 541.972745 449.731507 
L 543.150864 449.731507 
L 544.328983 481.613415 
L 545.507102 481.613415 
L 546.685221 481.613415 
L 547.86334 481.613415 
L 549.041459 481.613415 
L 550.219578 481.613415 
L 551.397697 481.613415 
L 552.575816 481.613415 
L 553.753935 429.012346 
L 554.932054 429.012346 
L 556.110173 429.012346 
L 557.288292 429.012346 
L 558.466411 429.012346 
L 559.64453 429.012346 
L 560.822649 429.012346 
L 562.000768 415.60514 
L 563.178887 415.60514 
L 564.357006 415.60514 
L 565.535125 415.60514 
L 566.713244 429.012346 
L 567.891363 415.60514 
L 569.069482 415.60514 
L 570.247601 429.012346 
L 571.42572 429.012346 
L 572.603839 429.012346 
L 573.781958 429.012346 
L 574.960077 421.93555 
L 576.138196 421.93555 
L 577.316315 421.93555 
L 578.494434 449.731507 
L 579.672553 449.731507 
L 580.850672 449.731507 
L 582.028791 449.731507 
L 583.20691 449.731507 
L 584.385029 449.731507 
L 585.563148 449.731507 
L 586.741267 449.731507 
L 587.919386 449.731507 
L 589.097505 449.731507 
L 590.275624 449.731507 
L 591.453743 449.731507 
L 592.631862 449.731507 
L 593.809981 449.731507 
L 594.9881 449.731507 
L 596.166219 449.731507 
L 597.344338 449.731507 
L 598.522457 449.731507 
L 599.700576 449.731507 
L 600.878695 481.613415 
L 602.056814 481.613415 
L 603.234933 481.613415 
L 604.413052 481.613415 
L 605.591171 481.613415 
L 606.76929 481.613415 
L 607.947409 481.613415 
L 609.125528 481.613415 
L 610.303647 481.613415 
L 611.481766 481.613415 
L 612.659885 481.613415 
L 613.838004 481.613415 
L 615.016123 481.613415 
L 616.194242 481.613415 
L 617.372361 481.613415 
L 618.55048 481.613415 
L 619.728599 481.613415 
L 620.906718 449.731507 
L 622.084837 449.731507 
L 623.262956 449.731507 
L 624.441075 449.731507 
L 625.619194 439.96683 
L 626.797313 439.96683 
L 627.975432 439.96683 
L 629.153551 439.96683 
L 630.33167 439.96683 
L 631.509789 439.96683 
L 632.687908 439.96683 
L 633.866027 439.96683 
L 635.044146 449.731507 
L 636.222265 449.731507 
L 637.400384 449.731507 
L 638.578503 449.731507 
L 639.756622 449.731507 
L 640.934741 449.731507 
L 642.11286 481.613415 
L 643.290979 481.613415 
L 644.469098 481.613415 
L 645.647217 481.613415 
L 646.825336 481.613415 
L 648.003455 481.613415 
L 649.181574 481.613415 
L 650.359693 481.613415 
L 651.537812 429.012346 
L 652.715931 429.012346 
L 653.89405 449.731507 
L 655.072169 449.731507 
L 656.250288 449.731507 
L 657.428407 449.731507 
L 658.606526 449.731507 
L 659.784645 449.731507 
L 660.962764 439.96683 
L 662.140883 439.96683 
L 663.319002 439.96683 
L 664.497121 439.96683 
L 665.67524 439.96683 
L 666.853359 439.96683 
L 668.031478 449.731507 
L 669.209597 449.731507 
L 670.387716 481.613415 
L 671.565835 481.613415 
L 672.743954 481.613415 
L 673.922073 481.613415 
L 675.100192 481.613415 
L 676.278311 481.613415 
L 677.45643 481.613415 
L 678.634549 481.613415 
L 679.812668 481.613415 
L 680.990787 481.613415 
L 682.168906 481.613415 
L 683.347025 481.613415 
L 684.525144 481.613415 
L 685.703263 481.613415 
L 686.881382 481.613415 
L 688.059501 481.613415 
L 689.23762 481.613415 
L 690.415739 481.613415 
L 691.593858 449.731507 
L 692.771977 449.731507 
L 693.950096 481.613415 
L 695.128215 449.731507 
L 696.306334 449.731507 
L 697.484453 449.731507 
L 698.662572 421.93555 
L 699.840691 421.93555 
L 701.01881 415.60514 
L 702.196929 415.60514 
L 703.375048 415.60514 
L 704.553167 415.60514 
L 705.731286 415.60514 
L 706.909405 415.60514 
L 708.087524 421.93555 
L 709.265643 421.93555 
L 710.443762 421.93555 
L 711.621881 421.93555 
L 712.8 421.93555 
L 712.8 138828.57348 
L 712.8 138828.57348 
L 711.621881 138828.57348 
L 710.443762 138828.57348 
L 709.265643 138828.57348 
L 708.087524 138828.57348 
L 706.909405 138828.57348 
L 705.731286 138828.57348 
L 704.553167 138828.57348 
L 703.375048 138828.57348 
L 702.196929 138828.57348 
L 701.01881 138828.57348 
L 699.840691 138828.57348 
L 698.662572 138828.57348 
L 697.484453 138828.57348 
L 696.306334 138828.57348 
L 695.128215 138828.57348 
L 693.950096 138828.57348 
L 692.771977 138828.57348 
L 691.593858 138828.57348 
L 690.415739 138828.57348 
L 689.23762 138828.57348 
L 688.059501 138828.57348 
L 686.881382 138828.57348 
L 685.703263 138828.57348 
L 684.525144 138828.57348 
L 683.347025 138828.57348 
L 682.168906 138828.57348 
L 680.990787 138828.57348 
L 679.812668 138828.57348 
L 678.634549 138828.57348 
L 677.45643 138828.57348 
L 676.278311 138828.57348 
L 675.100192 138828.57348 
L 673.922073 138828.57348 
L 672.743954 138828.57348 
L 671.565835 138828.57348 
L 670.387716 138828.57348 
L 669.209597 138828.57348 
L 668.031478 138828.57348 
L 666.853359 138828.57348 
L 665.67524 138828.57348 
L 664.497121 138828.57348 
L 663.319002 138828.57348 
L 662.140883 138828.57348 
L 660.962764 138828.57348 
L 659.784645 138828.57348 
L 658.606526 138828.57348 
L 657.428407 138828.57348 
L 656.250288 138828.57348 
L 655.072169 138828.57348 
L 653.89405 138828.57348 
L 652.715931 138828.57348 
L 651.537812 138828.57348 
L 650.359693 138828.57348 
L 649.181574 138828.57348 
L 648.003455 138828.57348 
L 646.825336 138828.57348 
L 645.647217 138828.57348 
L 644.469098 138828.57348 
L 643.290979 138828.57348 
L 642.11286 138828.57348 
L 640.934741 138828.57348 
L 639.756622 138828.57348 
L 638.578503 138828.57348 
L 637.400384 138828.57348 
L 636.222265 138828.57348 
L 635.044146 138828.57348 
L 633.866027 138828.57348 
L 632.687908 138828.57348 
L 631.509789 138828.57348 
L 630.33167 138828.57348 
L 629.153551 138828.57348 
L 627.975432 138828.57348 
L 626.797313 138828.57348 
L 625.619194 138828.57348 
L 624.441075 138828.57348 
L 623.262956 138828.57348 
L 622.084837 138828.57348 
L 620.906718 138828.57348 
L 619.728599 138828.57348 
L 618.55048 138828.57348 
L 617.372361 138828.57348 
L 616.194242 138828.57348 
L 615.016123 138828.57348 
L 613.838004 138828.57348 
L 612.659885 138828.57348 
L 611.481766 138828.57348 
L 610.303647 138828.57348 
L 609.125528 138828.57348 
L 607.947409 138828.57348 
L 606.76929 138828.57348 
L 605.591171 138828.57348 
L 604.413052 138828.57348 
L 603.234933 138828.57348 
L 602.056814 138828.57348 
L 600.878695 138828.57348 
L 599.700576 138828.57348 
L 598.522457 138828.57348 
L 597.344338 138828.57348 
L 596.166219 138828.57348 
L 594.9881 138828.57348 
L 593.809981 138828.57348 
L 592.631862 138828.57348 
L 591.453743 138828.57348 
L 590.275624 138828.57348 
L 589.097505 138828.57348 
L 587.919386 138828.57348 
L 586.741267 138828.57348 
L 585.563148 138828.57348 
L 584.385029 138828.57348 
L 583.20691 138828.57348 
L 582.028791 138828.57348 
L 580.850672 138828.57348 
L 579.672553 138828.57348 
L 578.494434 138828.57348 
L 577.316315 138828.57348 
L 576.138196 138828.57348 
L 574.960077 138828.57348 
L 573.781958 138828.57348 
L 572.603839 138828.57348 
L 571.42572 138828.57348 
L 570.247601 138828.57348 
L 569.069482 138828.57348 
L 567.891363 138828.57348 
L 566.713244 138828.57348 
L 565.535125 138828.57348 
L 564.357006 138828.57348 
L 563.178887 138828.57348 
L 562.000768 138828.57348 
L 560.822649 138828.57348 
L 559.64453 138828.57348 
L 558.466411 138828.57348 
L 557.288292 138828.57348 
L 556.110173 138828.57348 
L 554.932054 138828.57348 
L 553.753935 138828.57348 
L 552.575816 138828.57348 
L 551.397697 138828.57348 
L 550.219578 138828.57348 
L 549.041459 138828.57348 
L 547.86334 138828.57348 
L 546.685221 138828.57348 
L 545.507102 138828.57348 
L 544.328983 138828.57348 
L 543.150864 138828.57348 
L 541.972745 138828.57348 
L 540.794626 138828.57348 
L 539.616507 138828.57348 
L 538.438388 138828.57348 
L 537.260269 138828.57348 
L 536.08215 138828.57348 
L 534.904031 138828.57348 
L 533.725912 138828.57348 
L 532.547793 138828.57348 
L 531.369674 138828.57348 
L 530.191555 138828.57348 
L 529.013436 138828.57348 
L 527.835317 138828.57348 
L 526.657198 138828.57348 
L 525.479079 138828.57348 
L 524.30096 138828.57348 
L 523.122841 138828.57348 
L 521.944722 138828.57348 
L 520.766603 138828.57348 
L 519.588484 138828.57348 
L 518.410365 138828.57348 
L 517.232246 138828.57348 
L 516.054127 138828.57348 
L 514.876008 138828.57348 
L 513.697889 138828.57348 
L 512.51977 138828.57348 
L 511.341651 138828.57348 
L 510.163532 138828.57348 
L 508.985413 138828.57348 
L 507.807294 138828.57348 
L 506.629175 138828.57348 
L 505.451056 138828.57348 
L 504.272937 138828.57348 
L 503.094818 138828.57348 
L 501.916699 138828.57348 
L 500.73858 138828.57348 
L 499.560461 138828.57348 
L 498.382342 138828.57348 
L 497.204223 138828.57348 
L 496.026104 138828.57348 
L 494.847985 138828.57348 
L 493.669866 487.943825 
L 492.491747 487.943825 
L 491.313628 487.943825 
L 490.135509 481.613415 
L 488.95739 481.613415 
L 487.779271 481.613415 
L 486.601152 443.048702 
L 485.423033 443.048702 
L 484.244914 443.048702 
L 483.066795 443.048702 
L 481.888676 487.943825 
L 480.710557 487.943825 
L 479.532438 487.943825 
L 478.354319 487.943825 
L 477.1762 487.943825 
L 475.998081 138828.57348 
L 474.819962 138828.57348 
L 473.641843 138828.57348 
L 472.463724 138828.57348 
L 471.285605 138828.57348 
L 470.107486 138828.57348 
L 468.929367 138828.57348 
L 467.751248 138828.57348 
L 466.573129 138828.57348 
L 465.39501 138828.57348 
L 464.216891 138828.57348 
L 463.038772 138828.57348 
L 461.860653 138828.57348 
L 460.682534 138828.57348 
L 459.504415 138828.57348 
L 458.326296 138828.57348 
L 457.148177 138828.57348 
L 455.970058 138828.57348 
L 454.791939 138828.57348 
L 453.61382 138828.57348 
L 452.435701 138828.57348 
L 451.257582 138828.57348 
L 450.079463 138828.57348 
L 448.901344 138828.57348 
L 447.723225 138828.57348 
L 446.545106 138828.57348 
L 445.366987 138828.57348 
L 444.188868 138828.57348 
L 443.010749 138828.57348 
L 441.83263 138828.57348 
L 440.654511 138828.57348 
L 439.476392 138828.57348 
L 438.298273 138828.57348 
L 437.120154 487.943825 
L 435.942035 487.943825 
L 434.763916 487.943825 
L 433.585797 138828.57348 
L 432.407678 138828.57348 
L 431.229559 138828.57348 
L 430.05144 138828.57348 
L 428.873321 138828.57348 
L 427.695202 138828.57348 
L 426.517083 138828.57348 
L 425.338964 138828.57348 
L 424.160845 138828.57348 
L 422.982726 138828.57348 
L 421.804607 138828.57348 
L 420.626488 138828.57348 
L 419.448369 138828.57348 
L 418.27025 138828.57348 
L 417.092131 138828.57348 
L 415.914012 138828.57348 
L 414.735893 138828.57348 
L 413.557774 138828.57348 
L 412.379655 138828.57348 
L 411.201536 138828.57348 
L 410.023417 138828.57348 
L 408.845298 138828.57348 
L 407.667179 138828.57348 
L 406.48906 138828.57348 
L 405.31094 138828.57348 
L 404.132821 138828.57348 
L 402.954702 138828.57348 
L 401.776583 138828.57348 
L 400.598464 138828.57348 
L 399.420345 138828.57348 
L 398.242226 138828.57348 
L 397.064107 138828.57348 
L 395.885988 138828.57348 
L 394.707869 138828.57348 
L 393.52975 138828.57348 
L 392.351631 138828.57348 
L 391.173512 138828.57348 
L 389.995393 138828.57348 
L 388.817274 138828.57348 
L 387.639155 138828.57348 
L 386.461036 138828.57348 
L 385.282917 138828.57348 
L 384.104798 138828.57348 
L 382.926679 138828.57348 
L 381.74856 138828.57348 
L 380.570441 487.943825 
L 379.392322 487.943825 
L 378.214203 487.943825 
L 377.036084 487.943825 
L 375.857965 481.613415 
L 374.679846 481.613415 
L 373.501727 481.613415 
L 372.323608 481.613415 
L 371.145489 481.613415 
L 369.96737 481.613415 
L 368.789251 481.613415 
L 367.611132 481.613415 
L 366.433013 481.613415 
L 365.254894 481.613415 
L 364.076775 481.613415 
L 362.898656 481.613415 
L 361.720537 481.613415 
L 360.542418 443.048702 
L 359.364299 443.048702 
L 358.18618 443.048702 
L 357.008061 443.048702 
L 355.829942 443.048702 
L 354.651823 443.048702 
L 353.473704 443.048702 
L 352.295585 439.96683 
L 351.117466 439.96683 
L 349.939347 443.048702 
L 348.761228 443.048702 
L 347.583109 487.943825 
L 346.40499 138828.57348 
L 345.226871 138828.57348 
L 344.048752 138828.57348 
L 342.870633 138828.57348 
L 341.692514 138828.57348 
L 340.514395 138828.57348 
L 339.336276 138828.57348 
L 338.158157 138828.57348 
L 336.980038 138828.57348 
L 335.801919 138828.57348 
L 334.6238 138828.57348 
L 333.445681 487.943825 
L 332.267562 481.613415 
L 331.089443 481.613415 
L 329.911324 481.613415 
L 328.733205 481.613415 
L 327.555086 481.613415 
L 326.376967 481.613415 
L 325.198848 481.613415 
L 324.020729 443.048702 
L 322.84261 481.613415 
L 321.664491 443.048702 
L 320.486372 443.048702 
L 319.308253 443.048702 
L 318.130134 443.048702 
L 316.952015 481.613415 
L 315.773896 443.048702 
L 314.595777 443.048702 
L 313.417658 481.613415 
L 312.239539 481.613415 
L 311.06142 481.613415 
L 309.883301 481.613415 
L 308.705182 481.613415 
L 307.527063 481.613415 
L 306.348944 487.943825 
L 305.170825 138828.57348 
L 303.992706 138828.57348 
L 302.814587 138828.57348 
L 301.636468 138828.57348 
L 300.458349 138828.57348 
L 299.28023 138828.57348 
L 298.102111 138828.57348 
L 296.923992 138828.57348 
L 295.745873 138828.57348 
L 294.567754 138828.57348 
L 293.389635 138828.57348 
L 292.211516 138828.57348 
L 291.033397 138828.57348 
L 289.855278 138828.57348 
L 288.677159 138828.57348 
L 287.49904 138828.57348 
L 286.320921 138828.57348 
L 285.142802 138828.57348 
L 283.964683 138828.57348 
L 282.786564 138828.57348 
L 281.608445 138828.57348 
L 280.430326 138828.57348 
L 279.252207 138828.57348 
L 278.074088 138828.57348 
L 276.895969 138828.57348 
L 275.71785 138828.57348 
L 274.539731 138828.57348 
L 273.361612 138828.57348 
L 272.183493 138828.57348 
L 271.005374 138828.57348 
L 269.827255 138828.57348 
L 268.649136 138828.57348 
L 267.471017 138828.57348 
L 266.292898 138828.57348 
L 265.114779 138828.57348 
L 263.93666 138828.57348 
L 262.758541 138828.57348 
L 261.580422 138828.57348 
L 260.402303 138828.57348 
L 259.224184 138828.57348 
L 258.046065 138828.57348 
L 256.867946 138828.57348 
L 255.689827 138828.57348 
L 254.511708 138828.57348 
L 253.333589 138828.57348 
L 252.15547 138828.57348 
L 250.977351 138828.57348 
L 249.799232 138828.57348 
L 248.621113 138828.57348 
L 247.442994 138828.57348 
L 246.264875 138828.57348 
L 245.086756 138828.57348 
L 243.908637 138828.57348 
L 242.730518 138828.57348 
L 241.552399 138828.57348 
L 240.37428 138828.57348 
L 239.196161 138828.57348 
L 238.018042 138828.57348 
L 236.839923 138828.57348 
L 235.661804 138828.57348 
L 234.483685 138828.57348 
L 233.305566 138828.57348 
L 232.127447 138828.57348 
L 230.949328 138828.57348 
L 229.771209 138828.57348 
L 228.59309 138828.57348 
L 227.414971 138828.57348 
L 226.236852 138828.57348 
L 225.058733 138828.57348 
L 223.880614 138828.57348 
L 222.702495 138828.57348 
L 221.524376 138828.57348 
L 220.346257 138828.57348 
L 219.168138 138828.57348 
L 217.990019 138828.57348 
L 216.8119 138828.57348 
L 215.633781 138828.57348 
L 214.455662 138828.57348 
L 213.277543 138828.57348 
L 212.099424 138828.57348 
L 210.921305 138828.57348 
L 209.743186 138828.57348 
L 208.565067 138828.57348 
L 207.386948 138828.57348 
L 206.208829 138828.57348 
L 205.03071 138828.57348 
L 203.852591 138828.57348 
L 202.674472 138828.57348 
L 201.496353 138828.57348 
L 200.318234 138828.57348 
L 199.140115 138828.57348 
L 197.961996 138828.57348 
L 196.783877 138828.57348 
L 195.605758 138828.57348 
L 194.427639 138828.57348 
L 193.24952 138828.57348 
L 192.071401 138828.57348 
L 190.893282 138828.57348 
L 189.715163 138828.57348 
L 188.537044 138828.57348 
L 187.358925 138828.57348 
L 186.180806 138828.57348 
L 185.002687 138828.57348 
L 183.824568 138828.57348 
L 182.646449 138828.57348 
L 181.46833 138828.57348 
L 180.290211 138828.57348 
L 179.112092 138828.57348 
L 177.933973 138828.57348 
L 176.755854 138828.57348 
L 175.577735 138828.57348 
L 174.399616 138828.57348 
L 173.221497 138828.57348 
L 172.043378 138828.57348 
L 170.865259 138828.57348 
L 169.68714 138828.57348 
L 168.509021 138828.57348 
L 167.330902 138828.57348 
L 166.152783 138828.57348 
L 164.974664 138828.57348 
L 163.796545 138828.57348 
L 162.618426 138828.57348 
L 161.440307 138828.57348 
L 160.262188 138828.57348 
L 159.084069 138828.57348 
L 157.90595 138828.57348 
L 156.727831 138828.57348 
L 155.549712 138828.57348 
L 154.371593 138828.57348 
L 153.193474 138828.57348 
L 152.015355 138828.57348 
L 150.837236 138828.57348 
L 149.659117 138828.57348 
L 148.480998 138828.57348 
L 147.302879 138828.57348 
L 146.12476 138828.57348 
L 144.946641 138828.57348 
L 143.768522 138828.57348 
L 142.590403 138828.57348 
L 141.412284 138828.57348 
L 140.234165 138828.57348 
L 139.056046 138828.57348 
L 137.877927 138828.57348 
L 136.699808 138828.57348 
L 135.521689 138828.57348 
L 134.34357 138828.57348 
L 133.165451 138828.57348 
L 131.987332 138828.57348 
L 130.809213 138828.57348 
L 129.631094 138828.57348 
L 128.452975 138828.57348 
L 127.274856 138828.57348 
L 126.096737 138828.57348 
L 124.918618 138828.57348 
L 123.740499 138828.57348 
L 122.56238 138828.57348 
L 121.384261 138828.57348 
L 120.206142 138828.57348 
L 119.028023 138828.57348 
L 117.849904 138828.57348 
L 116.671785 138828.57348 
L 115.493666 138828.57348 
L 114.315547 138828.57348 
L 113.137428 138828.57348 
L 111.959309 138828.57348 
L 110.78119 138828.57348 
L 109.603071 138828.57348 
L 108.424952 138828.57348 
L 107.246833 138828.57348 
L 106.068714 138828.57348 
L 104.890595 138828.57348 
L 103.712476 138828.57348 
L 102.534357 138828.57348 
L 101.356238 138828.57348 
L 100.178119 138828.57348 
L 99 138828.57348 
z
" style="fill:#ff8080;fill-opacity:0.5;stroke:#ff8080;stroke-opacity:0.5;"/>
   </g>
   <g id="matplotlib.axis_1">
    <g id="xtick_1">
     <g id="line2d_1">
      <path clip-path="url(#p68e2955192)" d="M 99 544.68 
L 99 73.44 
" style="fill:none;stroke:#b0b0b0;stroke-linecap:square;stroke-width:0.8;"/>
     </g>
     <g id="line2d_2">
      <defs>
       <path d="M 0 0 
L 0 3.5 
" id="m4abed1d830" style="stroke:#000000;stroke-width:0.8;"/>
      </defs>
      <g>
       <use style="stroke:#000000;stroke-width:0.8;" x="99" xlink:href="#m4abed1d830" y="544.68"/>
      </g>
     </g>
    </g>
    <g id="xtick_2">
     <g id="line2d_3">
      <path clip-path="url(#p68e2955192)" d="M 129.631094 544.68 
L 129.631094 73.44 
" style="fill:none;stroke:#b0b0b0;stroke-linecap:square;stroke-width:0.8;"/>
     </g>
     <g id="line2d_4">
      <g>
       <use style="stroke:#000000;stroke-width:0.8;" x="129.631094" xlink:href="#m4abed1d830" y="544.68"/>
      </g>
     </g>
     <g id="text_1">
      <!-- Apr -->
      <g transform="translate(120.981094 559.278437)scale(0.1 -0.1)">
       <defs>
        <path d="M 2188 4044 
L 1331 1722 
L 3047 1722 
L 2188 4044 
z
M 1831 4666 
L 2547 4666 
L 4325 0 
L 3669 0 
L 3244 1197 
L 1141 1197 
L 716 0 
L 50 0 
L 1831 4666 
z
" id="DejaVuSans-41" transform="scale(0.015625)"/>
        <path d="M 1159 525 
L 1159 -1331 
L 581 -1331 
L 581 3500 
L 1159 3500 
L 1159 2969 
Q 1341 3281 1617 3432 
Q 1894 3584 2278 3584 
Q 2916 3584 3314 3078 
Q 3713 2572 3713 1747 
Q 3713 922 3314 415 
Q 2916 -91 2278 -91 
Q 1894 -91 1617 61 
Q 1341 213 1159 525 
z
M 3116 1747 
Q 3116 2381 2855 2742 
Q 2594 3103 2138 3103 
Q 1681 3103 1420 2742 
Q 1159 2381 1159 1747 
Q 1159 1113 1420 752 
Q 1681 391 2138 391 
Q 2594 391 2855 752 
Q 3116 1113 3116 1747 
z
" id="DejaVuSans-70" transform="scale(0.015625)"/>
        <path d="M 2631 2963 
Q 2534 3019 2420 3045 
Q 2306 3072 2169 3072 
Q 1681 3072 1420 2755 
Q 1159 2438 1159 1844 
L 1159 0 
L 581 0 
L 581 3500 
L 1159 3500 
L 1159 2956 
Q 1341 3275 1631 3429 
Q 1922 3584 2338 3584 
Q 2397 3584 2469 3576 
Q 2541 3569 2628 3553 
L 2631 2963 
z
" id="DejaVuSans-72" transform="scale(0.015625)"/>
       </defs>
       <use xlink:href="#DejaVuSans-41"/>
       <use x="68.408203" xlink:href="#DejaVuSans-70"/>
       <use x="131.884766" xlink:href="#DejaVuSans-72"/>
      </g>
     </g>
    </g>
    <g id="xtick_3">
     <g id="line2d_5">
      <path clip-path="url(#p68e2955192)" d="M 236.839923 544.68 
L 236.839923 73.44 
" style="fill:none;stroke:#b0b0b0;stroke-linecap:square;stroke-width:0.8;"/>
     </g>
     <g id="line2d_6">
      <g>
       <use style="stroke:#000000;stroke-width:0.8;" x="236.839923" xlink:href="#m4abed1d830" y="544.68"/>
      </g>
     </g>
     <g id="text_2">
      <!-- Jul -->
      <g transform="translate(230.807111 559.278437)scale(0.1 -0.1)">
       <defs>
        <path d="M 628 4666 
L 1259 4666 
L 1259 325 
Q 1259 -519 939 -900 
Q 619 -1281 -91 -1281 
L -331 -1281 
L -331 -750 
L -134 -750 
Q 284 -750 456 -515 
Q 628 -281 628 325 
L 628 4666 
z
" id="DejaVuSans-4a" transform="scale(0.015625)"/>
        <path d="M 544 1381 
L 544 3500 
L 1119 3500 
L 1119 1403 
Q 1119 906 1312 657 
Q 1506 409 1894 409 
Q 2359 409 2629 706 
Q 2900 1003 2900 1516 
L 2900 3500 
L 3475 3500 
L 3475 0 
L 2900 0 
L 2900 538 
Q 2691 219 2414 64 
Q 2138 -91 1772 -91 
Q 1169 -91 856 284 
Q 544 659 544 1381 
z
M 1991 3584 
L 1991 3584 
z
" id="DejaVuSans-75" transform="scale(0.015625)"/>
        <path d="M 603 4863 
L 1178 4863 
L 1178 0 
L 603 0 
L 603 4863 
z
" id="DejaVuSans-6c" transform="scale(0.015625)"/>
       </defs>
       <use xlink:href="#DejaVuSans-4a"/>
       <use x="29.492188" xlink:href="#DejaVuSans-75"/>
       <use x="92.871094" xlink:href="#DejaVuSans-6c"/>
      </g>
     </g>
    </g>
    <g id="xtick_4">
     <g id="line2d_7">
      <path clip-path="url(#p68e2955192)" d="M 345.226871 544.68 
L 345.226871 73.44 
" style="fill:none;stroke:#b0b0b0;stroke-linecap:square;stroke-width:0.8;"/>
     </g>
     <g id="line2d_8">
      <g>
       <use style="stroke:#000000;stroke-width:0.8;" x="345.226871" xlink:href="#m4abed1d830" y="544.68"/>
      </g>
     </g>
     <g id="text_3">
      <!-- Oct -->
      <g transform="translate(336.581559 559.278437)scale(0.1 -0.1)">
       <defs>
        <path d="M 2522 4238 
Q 1834 4238 1429 3725 
Q 1025 3213 1025 2328 
Q 1025 1447 1429 934 
Q 1834 422 2522 422 
Q 3209 422 3611 934 
Q 4013 1447 4013 2328 
Q 4013 3213 3611 3725 
Q 3209 4238 2522 4238 
z
M 2522 4750 
Q 3503 4750 4090 4092 
Q 4678 3434 4678 2328 
Q 4678 1225 4090 567 
Q 3503 -91 2522 -91 
Q 1538 -91 948 565 
Q 359 1222 359 2328 
Q 359 3434 948 4092 
Q 1538 4750 2522 4750 
z
" id="DejaVuSans-4f" transform="scale(0.015625)"/>
        <path d="M 3122 3366 
L 3122 2828 
Q 2878 2963 2633 3030 
Q 2388 3097 2138 3097 
Q 1578 3097 1268 2742 
Q 959 2388 959 1747 
Q 959 1106 1268 751 
Q 1578 397 2138 397 
Q 2388 397 2633 464 
Q 2878 531 3122 666 
L 3122 134 
Q 2881 22 2623 -34 
Q 2366 -91 2075 -91 
Q 1284 -91 818 406 
Q 353 903 353 1747 
Q 353 2603 823 3093 
Q 1294 3584 2113 3584 
Q 2378 3584 2631 3529 
Q 2884 3475 3122 3366 
z
" id="DejaVuSans-63" transform="scale(0.015625)"/>
        <path d="M 1172 4494 
L 1172 3500 
L 2356 3500 
L 2356 3053 
L 1172 3053 
L 1172 1153 
Q 1172 725 1289 603 
Q 1406 481 1766 481 
L 2356 481 
L 2356 0 
L 1766 0 
Q 1100 0 847 248 
Q 594 497 594 1153 
L 594 3053 
L 172 3053 
L 172 3500 
L 594 3500 
L 594 4494 
L 1172 4494 
z
" id="DejaVuSans-74" transform="scale(0.015625)"/>
       </defs>
       <use xlink:href="#DejaVuSans-4f"/>
       <use x="78.710938" xlink:href="#DejaVuSans-63"/>
       <use x="133.691406" xlink:href="#DejaVuSans-74"/>
      </g>
     </g>
    </g>
    <g id="xtick_5">
     <g id="line2d_9">
      <path clip-path="url(#p68e2955192)" d="M 453.61382 544.68 
L 453.61382 73.44 
" style="fill:none;stroke:#b0b0b0;stroke-linecap:square;stroke-width:0.8;"/>
     </g>
     <g id="line2d_10">
      <g>
       <use style="stroke:#000000;stroke-width:0.8;" x="453.61382" xlink:href="#m4abed1d830" y="544.68"/>
      </g>
     </g>
     <g id="text_4">
      <!-- Jan -->
      <g transform="translate(445.906007 559.278437)scale(0.1 -0.1)">
       <defs>
        <path d="M 2194 1759 
Q 1497 1759 1228 1600 
Q 959 1441 959 1056 
Q 959 750 1161 570 
Q 1363 391 1709 391 
Q 2188 391 2477 730 
Q 2766 1069 2766 1631 
L 2766 1759 
L 2194 1759 
z
M 3341 1997 
L 3341 0 
L 2766 0 
L 2766 531 
Q 2569 213 2275 61 
Q 1981 -91 1556 -91 
Q 1019 -91 701 211 
Q 384 513 384 1019 
Q 384 1609 779 1909 
Q 1175 2209 1959 2209 
L 2766 2209 
L 2766 2266 
Q 2766 2663 2505 2880 
Q 2244 3097 1772 3097 
Q 1472 3097 1187 3025 
Q 903 2953 641 2809 
L 641 3341 
Q 956 3463 1253 3523 
Q 1550 3584 1831 3584 
Q 2591 3584 2966 3190 
Q 3341 2797 3341 1997 
z
" id="DejaVuSans-61" transform="scale(0.015625)"/>
        <path d="M 3513 2113 
L 3513 0 
L 2938 0 
L 2938 2094 
Q 2938 2591 2744 2837 
Q 2550 3084 2163 3084 
Q 1697 3084 1428 2787 
Q 1159 2491 1159 1978 
L 1159 0 
L 581 0 
L 581 3500 
L 1159 3500 
L 1159 2956 
Q 1366 3272 1645 3428 
Q 1925 3584 2291 3584 
Q 2894 3584 3203 3211 
Q 3513 2838 3513 2113 
z
" id="DejaVuSans-6e" transform="scale(0.015625)"/>
       </defs>
       <use xlink:href="#DejaVuSans-4a"/>
       <use x="29.492188" xlink:href="#DejaVuSans-61"/>
       <use x="90.771484" xlink:href="#DejaVuSans-6e"/>
      </g>
      <!-- 2021 -->
      <g transform="translate(440.88882 570.47625)scale(0.1 -0.1)">
       <defs>
        <path d="M 1228 531 
L 3431 531 
L 3431 0 
L 469 0 
L 469 531 
Q 828 903 1448 1529 
Q 2069 2156 2228 2338 
Q 2531 2678 2651 2914 
Q 2772 3150 2772 3378 
Q 2772 3750 2511 3984 
Q 2250 4219 1831 4219 
Q 1534 4219 1204 4116 
Q 875 4013 500 3803 
L 500 4441 
Q 881 4594 1212 4672 
Q 1544 4750 1819 4750 
Q 2544 4750 2975 4387 
Q 3406 4025 3406 3419 
Q 3406 3131 3298 2873 
Q 3191 2616 2906 2266 
Q 2828 2175 2409 1742 
Q 1991 1309 1228 531 
z
" id="DejaVuSans-32" transform="scale(0.015625)"/>
        <path d="M 2034 4250 
Q 1547 4250 1301 3770 
Q 1056 3291 1056 2328 
Q 1056 1369 1301 889 
Q 1547 409 2034 409 
Q 2525 409 2770 889 
Q 3016 1369 3016 2328 
Q 3016 3291 2770 3770 
Q 2525 4250 2034 4250 
z
M 2034 4750 
Q 2819 4750 3233 4129 
Q 3647 3509 3647 2328 
Q 3647 1150 3233 529 
Q 2819 -91 2034 -91 
Q 1250 -91 836 529 
Q 422 1150 422 2328 
Q 422 3509 836 4129 
Q 1250 4750 2034 4750 
z
" id="DejaVuSans-30" transform="scale(0.015625)"/>
        <path d="M 794 531 
L 1825 531 
L 1825 4091 
L 703 3866 
L 703 4441 
L 1819 4666 
L 2450 4666 
L 2450 531 
L 3481 531 
L 3481 0 
L 794 0 
L 794 531 
z
" id="DejaVuSans-31" transform="scale(0.015625)"/>
       </defs>
       <use xlink:href="#DejaVuSans-32"/>
       <use x="63.623047" xlink:href="#DejaVuSans-30"/>
       <use x="127.246094" xlink:href="#DejaVuSans-32"/>
       <use x="190.869141" xlink:href="#DejaVuSans-31"/>
      </g>
     </g>
    </g>
    <g id="xtick_6">
     <g id="line2d_11">
      <path clip-path="url(#p68e2955192)" d="M 559.64453 544.68 
L 559.64453 73.44 
" style="fill:none;stroke:#b0b0b0;stroke-linecap:square;stroke-width:0.8;"/>
     </g>
     <g id="line2d_12">
      <g>
       <use style="stroke:#000000;stroke-width:0.8;" x="559.64453" xlink:href="#m4abed1d830" y="544.68"/>
      </g>
     </g>
     <g id="text_5">
      <!-- Apr -->
      <g transform="translate(550.99453 559.278437)scale(0.1 -0.1)">
       <use xlink:href="#DejaVuSans-41"/>
       <use x="68.408203" xlink:href="#DejaVuSans-70"/>
       <use x="131.884766" xlink:href="#DejaVuSans-72"/>
      </g>
     </g>
    </g>
    <g id="xtick_7">
     <g id="line2d_13">
      <path clip-path="url(#p68e2955192)" d="M 666.853359 544.68 
L 666.853359 73.44 
" style="fill:none;stroke:#b0b0b0;stroke-linecap:square;stroke-width:0.8;"/>
     </g>
     <g id="line2d_14">
      <g>
       <use style="stroke:#000000;stroke-width:0.8;" x="666.853359" xlink:href="#m4abed1d830" y="544.68"/>
      </g>
     </g>
     <g id="text_6">
      <!-- Jul -->
      <g transform="translate(660.820546 559.278437)scale(0.1 -0.1)">
       <use xlink:href="#DejaVuSans-4a"/>
       <use x="29.492188" xlink:href="#DejaVuSans-75"/>
       <use x="92.871094" xlink:href="#DejaVuSans-6c"/>
      </g>
     </g>
    </g>
    <g id="xtick_8">
     <g id="line2d_15">
      <path clip-path="url(#p68e2955192)" d="M 712.8 544.68 
L 712.8 73.44 
" style="fill:none;stroke:#b0b0b0;stroke-linecap:square;stroke-width:0.8;"/>
     </g>
     <g id="line2d_16">
      <g>
       <use style="stroke:#000000;stroke-width:0.8;" x="712.8" xlink:href="#m4abed1d830" y="544.68"/>
      </g>
     </g>
    </g>
    <g id="xtick_9">
     <g id="line2d_17">
      <defs>
       <path d="M 0 0 
L 0 2 
" id="mbe9820739d" style="stroke:#000000;stroke-width:0.6;"/>
      </defs>
      <g>
       <use style="stroke:#000000;stroke-width:0.6;" x="164.974664" xlink:href="#mbe9820739d" y="544.68"/>
      </g>
     </g>
    </g>
    <g id="xtick_10">
     <g id="line2d_18">
      <g>
       <use style="stroke:#000000;stroke-width:0.6;" x="201.496353" xlink:href="#mbe9820739d" y="544.68"/>
      </g>
     </g>
    </g>
    <g id="xtick_11">
     <g id="line2d_19">
      <g>
       <use style="stroke:#000000;stroke-width:0.6;" x="273.361612" xlink:href="#mbe9820739d" y="544.68"/>
      </g>
     </g>
    </g>
    <g id="xtick_12">
     <g id="line2d_20">
      <g>
       <use style="stroke:#000000;stroke-width:0.6;" x="309.883301" xlink:href="#mbe9820739d" y="544.68"/>
      </g>
     </g>
    </g>
    <g id="xtick_13">
     <g id="line2d_21">
      <g>
       <use style="stroke:#000000;stroke-width:0.6;" x="381.74856" xlink:href="#mbe9820739d" y="544.68"/>
      </g>
     </g>
    </g>
    <g id="xtick_14">
     <g id="line2d_22">
      <g>
       <use style="stroke:#000000;stroke-width:0.6;" x="417.092131" xlink:href="#mbe9820739d" y="544.68"/>
      </g>
     </g>
    </g>
    <g id="xtick_15">
     <g id="line2d_23">
      <g>
       <use style="stroke:#000000;stroke-width:0.6;" x="490.135509" xlink:href="#mbe9820739d" y="544.68"/>
      </g>
     </g>
    </g>
    <g id="xtick_16">
     <g id="line2d_24">
      <g>
       <use style="stroke:#000000;stroke-width:0.6;" x="523.122841" xlink:href="#mbe9820739d" y="544.68"/>
      </g>
     </g>
    </g>
    <g id="xtick_17">
     <g id="line2d_25">
      <g>
       <use style="stroke:#000000;stroke-width:0.6;" x="594.9881" xlink:href="#mbe9820739d" y="544.68"/>
      </g>
     </g>
    </g>
    <g id="xtick_18">
     <g id="line2d_26">
      <g>
       <use style="stroke:#000000;stroke-width:0.6;" x="631.509789" xlink:href="#mbe9820739d" y="544.68"/>
      </g>
     </g>
    </g>
    <g id="xtick_19">
     <g id="line2d_27">
      <g>
       <use style="stroke:#000000;stroke-width:0.6;" x="703.375048" xlink:href="#mbe9820739d" y="544.68"/>
      </g>
     </g>
    </g>
    <g id="text_7">
     <!-- Date -->
     <g transform="translate(393.949219 584.154375)scale(0.1 -0.1)">
      <defs>
       <path d="M 1259 4147 
L 1259 519 
L 2022 519 
Q 2988 519 3436 956 
Q 3884 1394 3884 2338 
Q 3884 3275 3436 3711 
Q 2988 4147 2022 4147 
L 1259 4147 
z
M 628 4666 
L 1925 4666 
Q 3281 4666 3915 4102 
Q 4550 3538 4550 2338 
Q 4550 1131 3912 565 
Q 3275 0 1925 0 
L 628 0 
L 628 4666 
z
" id="DejaVuSans-44" transform="scale(0.015625)"/>
       <path d="M 3597 1894 
L 3597 1613 
L 953 1613 
Q 991 1019 1311 708 
Q 1631 397 2203 397 
Q 2534 397 2845 478 
Q 3156 559 3463 722 
L 3463 178 
Q 3153 47 2828 -22 
Q 2503 -91 2169 -91 
Q 1331 -91 842 396 
Q 353 884 353 1716 
Q 353 2575 817 3079 
Q 1281 3584 2069 3584 
Q 2775 3584 3186 3129 
Q 3597 2675 3597 1894 
z
M 3022 2063 
Q 3016 2534 2758 2815 
Q 2500 3097 2075 3097 
Q 1594 3097 1305 2825 
Q 1016 2553 972 2059 
L 3022 2063 
z
" id="DejaVuSans-65" transform="scale(0.015625)"/>
      </defs>
      <use xlink:href="#DejaVuSans-44"/>
      <use x="77.001953" xlink:href="#DejaVuSans-61"/>
      <use x="138.28125" xlink:href="#DejaVuSans-74"/>
      <use x="177.490234" xlink:href="#DejaVuSans-65"/>
     </g>
    </g>
   </g>
   <g id="matplotlib.axis_2">
    <g id="ytick_1">
     <g id="line2d_28">
      <path clip-path="url(#p68e2955192)" d="M 99 481.613415 
L 712.8 481.613415 
" style="fill:none;stroke:#b0b0b0;stroke-linecap:square;stroke-width:0.8;"/>
     </g>
     <g id="line2d_29">
      <defs>
       <path d="M 0 0 
L -3.5 0 
" id="me91a084207" style="stroke:#000000;stroke-width:0.8;"/>
      </defs>
      <g>
       <use style="stroke:#000000;stroke-width:0.8;" x="99" xlink:href="#me91a084207" y="481.613415"/>
      </g>
     </g>
     <g id="text_8">
      <!-- $\mathdefault{10^{0}}$ -->
      <g transform="translate(74.4 485.412634)scale(0.1 -0.1)">
       <use transform="translate(0 0.765625)" xlink:href="#DejaVuSans-31"/>
       <use transform="translate(63.623047 0.765625)" xlink:href="#DejaVuSans-30"/>
       <use transform="translate(128.203125 39.046875)scale(0.7)" xlink:href="#DejaVuSans-30"/>
      </g>
     </g>
    </g>
    <g id="ytick_2">
     <g id="line2d_30">
      <path clip-path="url(#p68e2955192)" d="M 99 343.266455 
L 712.8 343.266455 
" style="fill:none;stroke:#b0b0b0;stroke-linecap:square;stroke-width:0.8;"/>
     </g>
     <g id="line2d_31">
      <g>
       <use style="stroke:#000000;stroke-width:0.8;" x="99" xlink:href="#me91a084207" y="343.266455"/>
      </g>
     </g>
     <g id="text_9">
      <!-- $\mathdefault{10^{1}}$ -->
      <g transform="translate(74.4 347.065674)scale(0.1 -0.1)">
       <use transform="translate(0 0.684375)" xlink:href="#DejaVuSans-31"/>
       <use transform="translate(63.623047 0.684375)" xlink:href="#DejaVuSans-30"/>
       <use transform="translate(128.203125 38.965625)scale(0.7)" xlink:href="#DejaVuSans-31"/>
      </g>
     </g>
    </g>
    <g id="ytick_3">
     <g id="line2d_32">
      <path clip-path="url(#p68e2955192)" d="M 99 204.919495 
L 712.8 204.919495 
" style="fill:none;stroke:#b0b0b0;stroke-linecap:square;stroke-width:0.8;"/>
     </g>
     <g id="line2d_33">
      <g>
       <use style="stroke:#000000;stroke-width:0.8;" x="99" xlink:href="#me91a084207" y="204.919495"/>
      </g>
     </g>
     <g id="text_10">
      <!-- $\mathdefault{10^{2}}$ -->
      <g transform="translate(74.4 208.718714)scale(0.1 -0.1)">
       <use transform="translate(0 0.765625)" xlink:href="#DejaVuSans-31"/>
       <use transform="translate(63.623047 0.765625)" xlink:href="#DejaVuSans-30"/>
       <use transform="translate(128.203125 39.046875)scale(0.7)" xlink:href="#DejaVuSans-32"/>
      </g>
     </g>
    </g>
    <g id="ytick_4">
     <g id="line2d_34">
      <path clip-path="url(#p68e2955192)" d="M 99 536.667206 
L 712.8 536.667206 
" style="fill:none;stroke:#b0b0b0;stroke-linecap:square;stroke-width:0.8;"/>
     </g>
     <g id="line2d_35">
      <defs>
       <path d="M 0 0 
L -2 0 
" id="m0cb60b688e" style="stroke:#000000;stroke-width:0.6;"/>
      </defs>
      <g>
       <use style="stroke:#000000;stroke-width:0.6;" x="99" xlink:href="#m0cb60b688e" y="536.667206"/>
      </g>
     </g>
    </g>
    <g id="ytick_5">
     <g id="line2d_36">
      <path clip-path="url(#p68e2955192)" d="M 99 523.26 
L 712.8 523.26 
" style="fill:none;stroke:#b0b0b0;stroke-linecap:square;stroke-width:0.8;"/>
     </g>
     <g id="line2d_37">
      <g>
       <use style="stroke:#000000;stroke-width:0.6;" x="99" xlink:href="#m0cb60b688e" y="523.26"/>
      </g>
     </g>
    </g>
    <g id="ytick_6">
     <g id="line2d_38">
      <path clip-path="url(#p68e2955192)" d="M 99 512.305515 
L 712.8 512.305515 
" style="fill:none;stroke:#b0b0b0;stroke-linecap:square;stroke-width:0.8;"/>
     </g>
     <g id="line2d_39">
      <g>
       <use style="stroke:#000000;stroke-width:0.6;" x="99" xlink:href="#m0cb60b688e" y="512.305515"/>
      </g>
     </g>
    </g>
    <g id="ytick_7">
     <g id="line2d_40">
      <path clip-path="url(#p68e2955192)" d="M 99 503.04363 
L 712.8 503.04363 
" style="fill:none;stroke:#b0b0b0;stroke-linecap:square;stroke-width:0.8;"/>
     </g>
     <g id="line2d_41">
      <g>
       <use style="stroke:#000000;stroke-width:0.6;" x="99" xlink:href="#m0cb60b688e" y="503.04363"/>
      </g>
     </g>
    </g>
    <g id="ytick_8">
     <g id="line2d_42">
      <path clip-path="url(#p68e2955192)" d="M 99 495.020621 
L 712.8 495.020621 
" style="fill:none;stroke:#b0b0b0;stroke-linecap:square;stroke-width:0.8;"/>
     </g>
     <g id="line2d_43">
      <g>
       <use style="stroke:#000000;stroke-width:0.6;" x="99" xlink:href="#m0cb60b688e" y="495.020621"/>
      </g>
     </g>
    </g>
    <g id="ytick_9">
     <g id="line2d_44">
      <path clip-path="url(#p68e2955192)" d="M 99 487.943825 
L 712.8 487.943825 
" style="fill:none;stroke:#b0b0b0;stroke-linecap:square;stroke-width:0.8;"/>
     </g>
     <g id="line2d_45">
      <g>
       <use style="stroke:#000000;stroke-width:0.6;" x="99" xlink:href="#m0cb60b688e" y="487.943825"/>
      </g>
     </g>
    </g>
    <g id="ytick_10">
     <g id="line2d_46">
      <path clip-path="url(#p68e2955192)" d="M 99 439.96683 
L 712.8 439.96683 
" style="fill:none;stroke:#b0b0b0;stroke-linecap:square;stroke-width:0.8;"/>
     </g>
     <g id="line2d_47">
      <g>
       <use style="stroke:#000000;stroke-width:0.6;" x="99" xlink:href="#m0cb60b688e" y="439.96683"/>
      </g>
     </g>
    </g>
    <g id="ytick_11">
     <g id="line2d_48">
      <path clip-path="url(#p68e2955192)" d="M 99 415.60514 
L 712.8 415.60514 
" style="fill:none;stroke:#b0b0b0;stroke-linecap:square;stroke-width:0.8;"/>
     </g>
     <g id="line2d_49">
      <g>
       <use style="stroke:#000000;stroke-width:0.6;" x="99" xlink:href="#m0cb60b688e" y="415.60514"/>
      </g>
     </g>
    </g>
    <g id="ytick_12">
     <g id="line2d_50">
      <path clip-path="url(#p68e2955192)" d="M 99 398.320246 
L 712.8 398.320246 
" style="fill:none;stroke:#b0b0b0;stroke-linecap:square;stroke-width:0.8;"/>
     </g>
     <g id="line2d_51">
      <g>
       <use style="stroke:#000000;stroke-width:0.6;" x="99" xlink:href="#m0cb60b688e" y="398.320246"/>
      </g>
     </g>
    </g>
    <g id="ytick_13">
     <g id="line2d_52">
      <path clip-path="url(#p68e2955192)" d="M 99 384.91304 
L 712.8 384.91304 
" style="fill:none;stroke:#b0b0b0;stroke-linecap:square;stroke-width:0.8;"/>
     </g>
     <g id="line2d_53">
      <g>
       <use style="stroke:#000000;stroke-width:0.6;" x="99" xlink:href="#m0cb60b688e" y="384.91304"/>
      </g>
     </g>
    </g>
    <g id="ytick_14">
     <g id="line2d_54">
      <path clip-path="url(#p68e2955192)" d="M 99 373.958555 
L 712.8 373.958555 
" style="fill:none;stroke:#b0b0b0;stroke-linecap:square;stroke-width:0.8;"/>
     </g>
     <g id="line2d_55">
      <g>
       <use style="stroke:#000000;stroke-width:0.6;" x="99" xlink:href="#m0cb60b688e" y="373.958555"/>
      </g>
     </g>
    </g>
    <g id="ytick_15">
     <g id="line2d_56">
      <path clip-path="url(#p68e2955192)" d="M 99 364.69667 
L 712.8 364.69667 
" style="fill:none;stroke:#b0b0b0;stroke-linecap:square;stroke-width:0.8;"/>
     </g>
     <g id="line2d_57">
      <g>
       <use style="stroke:#000000;stroke-width:0.6;" x="99" xlink:href="#m0cb60b688e" y="364.69667"/>
      </g>
     </g>
    </g>
    <g id="ytick_16">
     <g id="line2d_58">
      <path clip-path="url(#p68e2955192)" d="M 99 356.673661 
L 712.8 356.673661 
" style="fill:none;stroke:#b0b0b0;stroke-linecap:square;stroke-width:0.8;"/>
     </g>
     <g id="line2d_59">
      <g>
       <use style="stroke:#000000;stroke-width:0.6;" x="99" xlink:href="#m0cb60b688e" y="356.673661"/>
      </g>
     </g>
    </g>
    <g id="ytick_17">
     <g id="line2d_60">
      <path clip-path="url(#p68e2955192)" d="M 99 349.596865 
L 712.8 349.596865 
" style="fill:none;stroke:#b0b0b0;stroke-linecap:square;stroke-width:0.8;"/>
     </g>
     <g id="line2d_61">
      <g>
       <use style="stroke:#000000;stroke-width:0.6;" x="99" xlink:href="#m0cb60b688e" y="349.596865"/>
      </g>
     </g>
    </g>
    <g id="ytick_18">
     <g id="line2d_62">
      <path clip-path="url(#p68e2955192)" d="M 99 301.61987 
L 712.8 301.61987 
" style="fill:none;stroke:#b0b0b0;stroke-linecap:square;stroke-width:0.8;"/>
     </g>
     <g id="line2d_63">
      <g>
       <use style="stroke:#000000;stroke-width:0.6;" x="99" xlink:href="#m0cb60b688e" y="301.61987"/>
      </g>
     </g>
    </g>
    <g id="ytick_19">
     <g id="line2d_64">
      <path clip-path="url(#p68e2955192)" d="M 99 277.25818 
L 712.8 277.25818 
" style="fill:none;stroke:#b0b0b0;stroke-linecap:square;stroke-width:0.8;"/>
     </g>
     <g id="line2d_65">
      <g>
       <use style="stroke:#000000;stroke-width:0.6;" x="99" xlink:href="#m0cb60b688e" y="277.25818"/>
      </g>
     </g>
    </g>
    <g id="ytick_20">
     <g id="line2d_66">
      <path clip-path="url(#p68e2955192)" d="M 99 259.973286 
L 712.8 259.973286 
" style="fill:none;stroke:#b0b0b0;stroke-linecap:square;stroke-width:0.8;"/>
     </g>
     <g id="line2d_67">
      <g>
       <use style="stroke:#000000;stroke-width:0.6;" x="99" xlink:href="#m0cb60b688e" y="259.973286"/>
      </g>
     </g>
    </g>
    <g id="ytick_21">
     <g id="line2d_68">
      <path clip-path="url(#p68e2955192)" d="M 99 246.56608 
L 712.8 246.56608 
" style="fill:none;stroke:#b0b0b0;stroke-linecap:square;stroke-width:0.8;"/>
     </g>
     <g id="line2d_69">
      <g>
       <use style="stroke:#000000;stroke-width:0.6;" x="99" xlink:href="#m0cb60b688e" y="246.56608"/>
      </g>
     </g>
    </g>
    <g id="ytick_22">
     <g id="line2d_70">
      <path clip-path="url(#p68e2955192)" d="M 99 235.611595 
L 712.8 235.611595 
" style="fill:none;stroke:#b0b0b0;stroke-linecap:square;stroke-width:0.8;"/>
     </g>
     <g id="line2d_71">
      <g>
       <use style="stroke:#000000;stroke-width:0.6;" x="99" xlink:href="#m0cb60b688e" y="235.611595"/>
      </g>
     </g>
    </g>
    <g id="ytick_23">
     <g id="line2d_72">
      <path clip-path="url(#p68e2955192)" d="M 99 226.34971 
L 712.8 226.34971 
" style="fill:none;stroke:#b0b0b0;stroke-linecap:square;stroke-width:0.8;"/>
     </g>
     <g id="line2d_73">
      <g>
       <use style="stroke:#000000;stroke-width:0.6;" x="99" xlink:href="#m0cb60b688e" y="226.34971"/>
      </g>
     </g>
    </g>
    <g id="ytick_24">
     <g id="line2d_74">
      <path clip-path="url(#p68e2955192)" d="M 99 218.326701 
L 712.8 218.326701 
" style="fill:none;stroke:#b0b0b0;stroke-linecap:square;stroke-width:0.8;"/>
     </g>
     <g id="line2d_75">
      <g>
       <use style="stroke:#000000;stroke-width:0.6;" x="99" xlink:href="#m0cb60b688e" y="218.326701"/>
      </g>
     </g>
    </g>
    <g id="ytick_25">
     <g id="line2d_76">
      <path clip-path="url(#p68e2955192)" d="M 99 211.249905 
L 712.8 211.249905 
" style="fill:none;stroke:#b0b0b0;stroke-linecap:square;stroke-width:0.8;"/>
     </g>
     <g id="line2d_77">
      <g>
       <use style="stroke:#000000;stroke-width:0.6;" x="99" xlink:href="#m0cb60b688e" y="211.249905"/>
      </g>
     </g>
    </g>
    <g id="ytick_26">
     <g id="line2d_78">
      <path clip-path="url(#p68e2955192)" d="M 99 163.27291 
L 712.8 163.27291 
" style="fill:none;stroke:#b0b0b0;stroke-linecap:square;stroke-width:0.8;"/>
     </g>
     <g id="line2d_79">
      <g>
       <use style="stroke:#000000;stroke-width:0.6;" x="99" xlink:href="#m0cb60b688e" y="163.27291"/>
      </g>
     </g>
    </g>
    <g id="ytick_27">
     <g id="line2d_80">
      <path clip-path="url(#p68e2955192)" d="M 99 138.91122 
L 712.8 138.91122 
" style="fill:none;stroke:#b0b0b0;stroke-linecap:square;stroke-width:0.8;"/>
     </g>
     <g id="line2d_81">
      <g>
       <use style="stroke:#000000;stroke-width:0.6;" x="99" xlink:href="#m0cb60b688e" y="138.91122"/>
      </g>
     </g>
    </g>
    <g id="ytick_28">
     <g id="line2d_82">
      <path clip-path="url(#p68e2955192)" d="M 99 121.626326 
L 712.8 121.626326 
" style="fill:none;stroke:#b0b0b0;stroke-linecap:square;stroke-width:0.8;"/>
     </g>
     <g id="line2d_83">
      <g>
       <use style="stroke:#000000;stroke-width:0.6;" x="99" xlink:href="#m0cb60b688e" y="121.626326"/>
      </g>
     </g>
    </g>
    <g id="ytick_29">
     <g id="line2d_84">
      <path clip-path="url(#p68e2955192)" d="M 99 108.21912 
L 712.8 108.21912 
" style="fill:none;stroke:#b0b0b0;stroke-linecap:square;stroke-width:0.8;"/>
     </g>
     <g id="line2d_85">
      <g>
       <use style="stroke:#000000;stroke-width:0.6;" x="99" xlink:href="#m0cb60b688e" y="108.21912"/>
      </g>
     </g>
    </g>
    <g id="ytick_30">
     <g id="line2d_86">
      <path clip-path="url(#p68e2955192)" d="M 99 97.264635 
L 712.8 97.264635 
" style="fill:none;stroke:#b0b0b0;stroke-linecap:square;stroke-width:0.8;"/>
     </g>
     <g id="line2d_87">
      <g>
       <use style="stroke:#000000;stroke-width:0.6;" x="99" xlink:href="#m0cb60b688e" y="97.264635"/>
      </g>
     </g>
    </g>
    <g id="ytick_31">
     <g id="line2d_88">
      <path clip-path="url(#p68e2955192)" d="M 99 88.00275 
L 712.8 88.00275 
" style="fill:none;stroke:#b0b0b0;stroke-linecap:square;stroke-width:0.8;"/>
     </g>
     <g id="line2d_89">
      <g>
       <use style="stroke:#000000;stroke-width:0.6;" x="99" xlink:href="#m0cb60b688e" y="88.00275"/>
      </g>
     </g>
    </g>
    <g id="ytick_32">
     <g id="line2d_90">
      <path clip-path="url(#p68e2955192)" d="M 99 79.979741 
L 712.8 79.979741 
" style="fill:none;stroke:#b0b0b0;stroke-linecap:square;stroke-width:0.8;"/>
     </g>
     <g id="line2d_91">
      <g>
       <use style="stroke:#000000;stroke-width:0.6;" x="99" xlink:href="#m0cb60b688e" y="79.979741"/>
      </g>
     </g>
    </g>
   </g>
   <g id="line2d_92">
    <path clip-path="url(#p68e2955192)" d="M 114.314428 613 
L 114.315547 481.613415 
L 115.493666 457.251725 
L 116.671785 439.96683 
L 117.849904 426.559625 
L 119.028023 415.60514 
L 120.206142 406.343255 
L 121.384261 391.24345 
L 122.56238 369.149324 
L 123.740499 349.596865 
L 124.918618 340.33498 
L 126.096737 337.539903 
L 127.274856 337.539903 
L 128.452975 332.31197 
L 129.631094 325.235174 
L 130.809213 311.384547 
L 131.987332 300.136256 
L 133.165451 294.543074 
L 134.34357 294.543074 
L 135.521689 295.893318 
L 136.699808 291.930344 
L 137.877927 289.42651 
L 140.234165 289.42651 
L 141.412284 291.930344 
L 142.590403 293.222509 
L 143.768522 295.893318 
L 144.946641 295.893318 
L 146.12476 300.136256 
L 147.302879 307.95028 
L 148.480998 320.941683 
L 149.659117 320.941683 
L 150.837236 327.502739 
L 152.015355 329.859249 
L 153.193474 334.869093 
L 154.371593 343.266455 
L 155.549712 343.266455 
L 156.727831 360.55135 
L 157.90595 373.958555 
L 159.084069 379.186488 
L 160.262188 379.186488 
L 161.440307 391.24345 
L 162.618426 398.320246 
L 163.796545 398.320246 
L 164.974664 406.343255 
L 166.152783 426.559625 
L 167.330902 439.96683 
L 172.043378 439.96683 
L 173.221497 457.251725 
L 174.399616 481.613415 
L 209.743186 481.613415 
L 210.921305 457.251725 
L 212.099424 439.96683 
L 214.455662 439.96683 
L 215.633781 426.559625 
L 216.8119 398.320246 
L 217.990019 379.186488 
L 220.346257 379.186488 
L 221.524376 369.149324 
L 223.880614 369.149324 
L 225.058733 360.55135 
L 227.414971 360.55135 
L 228.59309 346.348327 
L 229.771209 329.859249 
L 230.949328 329.859249 
L 232.127447 346.348327 
L 233.305566 329.859249 
L 234.483685 329.859249 
L 235.661804 323.050086 
L 240.37428 323.050086 
L 241.552399 320.941683 
L 242.730518 320.941683 
L 243.908637 315.027076 
L 246.264875 297.274605 
L 247.442994 291.930344 
L 248.621113 290.665386 
L 249.799232 291.930344 
L 252.15547 291.930344 
L 253.333589 290.665386 
L 254.511708 290.665386 
L 255.689827 291.930344 
L 256.867946 294.543074 
L 260.402303 294.543074 
L 261.580422 297.274605 
L 265.114779 297.274605 
L 266.292898 291.930344 
L 267.471017 285.856154 
L 268.649136 282.486112 
L 269.827255 282.486112 
L 272.183493 245.968231 
L 273.361612 239.222839 
L 274.539731 239.222839 
L 275.71785 235.112976 
L 276.895969 228.981517 
L 278.074088 219.463958 
L 279.252207 206.749585 
L 280.430326 196.522133 
L 281.608445 192.481396 
L 282.786564 187.559543 
L 283.964683 184.0628 
L 285.142802 184.0628 
L 286.320921 181.77165 
L 287.49904 179.959956 
L 288.677159 175.93373 
L 289.855278 167.471901 
L 291.033397 162.823967 
L 292.211516 167.311035 
L 293.389635 167.311035 
L 294.567754 162.823967 
L 295.745873 160.484661 
L 296.923992 156.867443 
L 298.102111 156.867443 
L 299.28023 155.006307 
L 301.636468 155.006307 
L 302.814587 154.09692 
L 303.992706 154.09692 
L 305.170825 152.44373 
L 311.06142 152.44373 
L 312.239539 153.328253 
L 313.417658 148.911981 
L 314.595777 154.484973 
L 315.773896 158.371314 
L 316.952015 158.371314 
L 318.130134 158.927645 
L 319.308253 161.64293 
L 320.486372 163.725234 
L 321.664491 166.671845 
L 322.84261 171.124498 
L 324.020729 173.214563 
L 325.198848 173.214563 
L 326.376967 174.649457 
L 327.555086 182.387895 
L 328.733205 183.010526 
L 329.911324 187.784997 
L 331.089443 193.715183 
L 332.267562 198.920456 
L 333.445681 198.920456 
L 334.6238 201.98802 
L 335.801919 198.920456 
L 336.980038 201.98802 
L 339.336276 201.98802 
L 340.514395 205.220665 
L 342.870633 205.220665 
L 344.048752 202.852543 
L 345.226871 204.024938 
L 346.40499 207.372216 
L 352.295585 207.372216 
L 353.473704 205.220665 
L 354.651823 205.220665 
L 355.829942 207.372216 
L 357.008061 206.440673 
L 359.364299 206.440673 
L 360.542418 207.372216 
L 362.898656 213.633125 
L 367.611132 213.633125 
L 368.789251 215.038647 
L 371.145489 215.038647 
L 372.323608 213.633125 
L 375.857965 213.633125 
L 377.036084 215.038647 
L 378.214203 216.114795 
L 379.392322 216.114795 
L 380.570441 218.7034 
L 381.74856 219.463958 
L 384.104798 219.463958 
L 385.282917 217.580315 
L 392.351631 217.580315 
L 394.707869 209.279783 
L 395.885988 209.279783 
L 397.064107 205.220665 
L 400.598464 205.220665 
L 401.776583 209.279783 
L 402.954702 206.749585 
L 406.48906 206.749585 
L 407.667179 204.024938 
L 408.845298 204.024938 
L 410.023417 204.919495 
L 411.201536 204.024938 
L 412.379655 204.024938 
L 413.557774 204.919495 
L 418.27025 204.919495 
L 419.448369 204.024938 
L 421.804607 204.024938 
L 422.982726 205.827573 
L 424.160845 211.921234 
L 425.338964 211.921234 
L 426.517083 218.7034 
L 428.873321 218.7034 
L 430.05144 211.921234 
L 431.229559 211.921234 
L 432.407678 202.562984 
L 433.585797 202.562984 
L 434.763916 200.57423 
L 437.120154 200.57423 
L 438.298273 199.192943 
L 439.476392 192.971875 
L 440.654511 189.155779 
L 444.188868 189.155779 
L 445.366987 187.334933 
L 446.545106 189.853078 
L 447.723225 189.853078 
L 448.901344 195.486188 
L 454.791939 195.486188 
L 455.970058 196.261468 
L 457.148177 201.13576 
L 458.326296 200.29542 
L 459.504415 196.261468 
L 461.860653 196.261468 
L 463.038772 191.994889 
L 464.216891 183.639676 
L 465.39501 176.492648 
L 470.107486 176.492648 
L 471.285605 177.056815 
L 475.998081 177.056815 
L 477.1762 185.350349 
L 478.354319 185.350349 
L 479.532438 191.994889 
L 480.710557 191.994889 
L 481.888676 194.720785 
L 484.244914 194.720785 
L 485.423033 196.261468 
L 486.601152 196.261468 
L 487.779271 197.310985 
L 488.95739 198.920456 
L 490.135509 204.024938 
L 492.491747 204.024938 
L 493.669866 206.440673 
L 496.026104 206.440673 
L 497.204223 208.637175 
L 498.382342 211.921234 
L 499.560461 211.921234 
L 500.73858 217.580315 
L 501.916699 217.580315 
L 503.094818 218.7034 
L 504.272937 221.805163 
L 505.451056 225.922069 
L 506.629175 230.802363 
L 507.807294 233.158874 
L 508.985413 241.942005 
L 510.163532 241.942005 
L 511.341651 242.500924 
L 512.51977 246.56608 
L 516.054127 246.56608 
L 517.232246 247.779926 
L 518.410365 250.926368 
L 520.766603 250.926368 
L 521.944722 247.779926 
L 527.835317 247.779926 
L 529.013436 244.790089 
L 530.191555 249.018801 
L 531.369674 252.232579 
L 532.547793 252.89649 
L 533.725912 254.246733 
L 534.904031 245.968231 
L 537.260269 245.968231 
L 538.438388 248.39617 
L 540.794626 248.39617 
L 541.972745 244.209569 
L 545.507102 244.209569 
L 546.685221 237.648513 
L 547.86334 231.733906 
L 550.219578 231.733906 
L 551.397697 227.651205 
L 552.575816 227.651205 
L 554.932054 217.21057 
L 556.110173 214.331776 
L 557.288292 214.331776 
L 558.466411 212.600149 
L 559.64453 208.637175 
L 560.822649 208.637175 
L 562.000768 204.919495 
L 570.247601 204.919495 
L 571.42572 208.001367 
L 572.603839 210.585994 
L 573.781958 210.585994 
L 574.960077 210.917032 
L 578.494434 210.917032 
L 579.672553 209.929339 
L 583.20691 209.929339 
L 584.385029 210.917032 
L 585.563148 210.917032 
L 586.741267 219.463958 
L 587.919386 218.326701 
L 596.166219 218.326701 
L 597.344338 217.21057 
L 598.522457 216.843087 
L 599.700576 216.843087 
L 600.878695 211.584632 
L 602.056814 211.584632 
L 603.234933 206.440673 
L 604.413052 217.952349 
L 607.947409 217.952349 
L 609.125528 223.828362 
L 615.016123 223.828362 
L 616.194242 217.952349 
L 617.372361 221.805163 
L 618.55048 223.828362 
L 619.728599 223.828362 
L 620.906718 226.34971 
L 624.441075 226.34971 
L 625.619194 235.611595 
L 626.797313 243.06509 
L 627.975432 246.56608 
L 629.153551 246.56608 
L 630.33167 250.926368 
L 631.509789 250.926368 
L 633.866027 253.567819 
L 636.222265 253.567819 
L 637.400384 252.232579 
L 639.756622 252.232579 
L 640.934741 255.62802 
L 642.11286 255.62802 
L 644.469098 237.648513 
L 645.647217 249.018801 
L 646.825336 245.968231 
L 648.003455 254.933407 
L 649.181574 254.933407 
L 650.359693 256.330757 
L 651.537812 259.973286 
L 656.250288 259.973286 
L 657.428407 260.729061 
L 660.962764 260.729061 
L 662.140883 258.489671 
L 663.319002 260.729061 
L 664.497121 260.729061 
L 666.853359 256.330757 
L 668.031478 252.89649 
L 669.209597 254.246733 
L 675.100192 254.246733 
L 676.278311 252.89649 
L 677.45643 252.89649 
L 678.634549 252.232579 
L 679.812668 252.232579 
L 680.990787 247.169937 
L 682.168906 249.018801 
L 683.347025 241.388238 
L 684.525144 241.388238 
L 685.703263 235.611595 
L 686.881382 220.623158 
L 688.059501 207.685968 
L 689.23762 205.827573 
L 690.415739 201.98802 
L 691.593858 196.001928 
L 692.771977 192.971875 
L 693.950096 191.033535 
L 695.128215 187.559543 
L 696.306334 185.350349 
L 697.484453 184.0628 
L 698.662572 184.0628 
L 699.840691 183.010526 
L 701.01881 179.761987 
L 702.196929 167.79493 
L 703.375048 158.509914 
L 704.553167 156.196114 
L 706.909405 149.745658 
L 709.265643 131.745477 
L 710.443762 127.540932 
L 711.621881 120.436518 
L 712.8 115.968089 
L 712.8 115.968089 
" style="fill:none;stroke:#1f77b4;stroke-linecap:square;stroke-width:1.5;"/>
   </g>
   <g id="line2d_93">
    <path clip-path="url(#p68e2955192)" d="M 140.233401 613 
L 140.234165 523.26 
L 141.412284 523.26 
L 142.590403 481.613415 
L 143.768522 481.613415 
L 144.946641 523.26 
L 146.12476 523.26 
L 146.125525 613 
M 287.498276 613 
L 287.49904 523.26 
L 293.389635 523.26 
L 294.567754 481.613415 
L 307.527063 481.613415 
L 308.705182 457.251725 
L 309.883301 439.96683 
L 313.417658 439.96683 
L 314.595777 426.559625 
L 318.130134 426.559625 
L 319.308253 415.60514 
L 320.486372 415.60514 
L 321.664491 426.559625 
L 322.84261 439.96683 
L 333.445681 439.96683 
L 334.6238 457.251725 
L 338.158157 457.251725 
L 339.336276 439.96683 
L 340.514395 457.251725 
L 341.692514 457.251725 
L 342.870633 439.96683 
L 349.939347 439.96683 
L 351.117466 426.559625 
L 352.295585 415.60514 
L 353.473704 415.60514 
L 354.651823 426.559625 
L 355.829942 439.96683 
L 358.18618 439.96683 
L 359.364299 426.559625 
L 360.542418 415.60514 
L 361.720537 426.559625 
L 362.898656 439.96683 
L 364.076775 457.251725 
L 365.254894 481.613415 
L 368.789251 481.613415 
L 369.96737 457.251725 
L 375.857965 457.251725 
L 377.036084 481.613415 
L 378.214203 457.251725 
L 379.392322 457.251725 
L 380.570441 439.96683 
L 382.926679 439.96683 
L 384.104798 457.251725 
L 385.282917 523.26 
L 385.283682 613 
M 414.735128 613 
L 414.735893 523.26 
L 417.092131 523.26 
L 417.092895 613 
M 419.44725 613 
L 419.448369 481.613415 
L 420.626488 439.96683 
L 421.804607 439.96683 
L 422.982726 457.251725 
L 427.695202 457.251725 
L 428.873321 481.613415 
L 430.05144 457.251725 
L 433.585797 457.251725 
L 434.763916 439.96683 
L 435.942035 439.96683 
L 437.120154 457.251725 
L 438.298273 481.613415 
L 444.188868 481.613415 
L 445.366987 523.26 
L 445.367751 613 
M 467.750483 613 
L 467.751248 523.26 
L 468.929367 523.26 
L 468.930131 613 
M 471.28484 613 
L 471.285605 523.26 
L 472.463724 457.251725 
L 473.641843 457.251725 
L 474.819962 439.96683 
L 475.998081 457.251725 
L 477.1762 439.96683 
L 481.888676 439.96683 
L 483.066795 426.559625 
L 484.244914 426.559625 
L 485.423033 439.96683 
L 487.779271 439.96683 
L 488.95739 426.559625 
L 491.313628 426.559625 
L 492.491747 415.60514 
L 493.669866 426.559625 
L 494.847985 439.96683 
L 496.026104 457.251725 
L 498.382342 457.251725 
L 499.560461 523.26 
L 510.163532 523.26 
L 511.341651 481.613415 
L 517.232246 481.613415 
L 518.410365 523.26 
L 519.588484 523.26 
L 520.766603 481.613415 
L 521.944722 523.26 
L 525.479079 523.26 
L 525.479843 613 
M 529.012671 613 
L 529.013436 523.26 
L 537.260269 523.26 
L 538.438388 481.613415 
L 540.794626 481.613415 
L 541.972745 523.26 
L 550.219578 523.26 
L 551.397697 481.613415 
L 553.753935 481.613415 
L 554.932054 523.26 
L 557.288292 523.26 
L 558.466411 481.613415 
L 559.64453 481.613415 
L 560.822649 523.26 
L 562.000768 523.26 
L 562.001532 613 
M 592.631097 613 
L 592.631862 523.26 
L 592.632626 613 
M 597.343573 613 
L 597.344338 523.26 
L 598.522457 523.26 
L 599.700576 481.613415 
L 600.878695 481.613415 
L 602.056814 523.26 
L 603.234933 523.26 
L 604.413052 481.613415 
L 605.591171 481.613415 
L 606.76929 523.26 
L 607.947409 523.26 
L 607.948173 613 
M 610.302882 613 
L 610.303647 523.26 
L 611.481766 481.613415 
L 615.016123 481.613415 
L 616.194242 523.26 
L 616.195006 613 
M 618.549715 613 
L 618.55048 523.26 
L 618.551244 613 
M 666.852594 613 
L 666.853359 523.26 
L 666.854123 613 
M 705.730522 613 
L 705.731286 523.26 
L 705.73205 613 
M 710.442998 613 
L 710.443762 523.26 
L 710.444526 613 
M 712.799236 613 
L 712.8 523.26 
L 712.8 523.26 
" style="fill:none;stroke:#ff7f0e;stroke-linecap:square;stroke-width:1.5;"/>
   </g>
   <g id="patch_3">
    <path d="M 99 544.68 
L 99 73.44 
" style="fill:none;stroke:#000000;stroke-linecap:square;stroke-linejoin:miter;stroke-width:0.8;"/>
   </g>
   <g id="patch_4">
    <path d="M 712.8 544.68 
L 712.8 73.44 
" style="fill:none;stroke:#000000;stroke-linecap:square;stroke-linejoin:miter;stroke-width:0.8;"/>
   </g>
   <g id="patch_5">
    <path d="M 99 544.68 
L 712.8 544.68 
" style="fill:none;stroke:#000000;stroke-linecap:square;stroke-linejoin:miter;stroke-width:0.8;"/>
   </g>
   <g id="patch_6">
    <path d="M 99 73.44 
L 712.8 73.44 
" style="fill:none;stroke:#000000;stroke-linecap:square;stroke-linejoin:miter;stroke-width:0.8;"/>
   </g>
   <g id="legend_1">
    <g id="patch_7">
     <path d="M 616.653125 110.79625 
L 705.8 110.79625 
Q 707.8 110.79625 707.8 108.79625 
L 707.8 80.44 
Q 707.8 78.44 705.8 78.44 
L 616.653125 78.44 
Q 614.653125 78.44 614.653125 80.44 
L 614.653125 108.79625 
Q 614.653125 110.79625 616.653125 110.79625 
z
" style="fill:#ffffff;opacity:0.8;stroke:#cccccc;stroke-linejoin:miter;"/>
    </g>
    <g id="line2d_94">
     <path d="M 618.653125 86.538437 
L 638.653125 86.538437 
" style="fill:none;stroke:#1f77b4;stroke-linecap:square;stroke-width:1.5;"/>
    </g>
    <g id="line2d_95"/>
    <g id="text_11">
     <!-- Avg Cases -->
     <g transform="translate(646.653125 90.038437)scale(0.1 -0.1)">
      <defs>
       <path d="M 191 3500 
L 800 3500 
L 1894 563 
L 2988 3500 
L 3597 3500 
L 2284 0 
L 1503 0 
L 191 3500 
z
" id="DejaVuSans-76" transform="scale(0.015625)"/>
       <path d="M 2906 1791 
Q 2906 2416 2648 2759 
Q 2391 3103 1925 3103 
Q 1463 3103 1205 2759 
Q 947 2416 947 1791 
Q 947 1169 1205 825 
Q 1463 481 1925 481 
Q 2391 481 2648 825 
Q 2906 1169 2906 1791 
z
M 3481 434 
Q 3481 -459 3084 -895 
Q 2688 -1331 1869 -1331 
Q 1566 -1331 1297 -1286 
Q 1028 -1241 775 -1147 
L 775 -588 
Q 1028 -725 1275 -790 
Q 1522 -856 1778 -856 
Q 2344 -856 2625 -561 
Q 2906 -266 2906 331 
L 2906 616 
Q 2728 306 2450 153 
Q 2172 0 1784 0 
Q 1141 0 747 490 
Q 353 981 353 1791 
Q 353 2603 747 3093 
Q 1141 3584 1784 3584 
Q 2172 3584 2450 3431 
Q 2728 3278 2906 2969 
L 2906 3500 
L 3481 3500 
L 3481 434 
z
" id="DejaVuSans-67" transform="scale(0.015625)"/>
       <path id="DejaVuSans-20" transform="scale(0.015625)"/>
       <path d="M 4122 4306 
L 4122 3641 
Q 3803 3938 3442 4084 
Q 3081 4231 2675 4231 
Q 1875 4231 1450 3742 
Q 1025 3253 1025 2328 
Q 1025 1406 1450 917 
Q 1875 428 2675 428 
Q 3081 428 3442 575 
Q 3803 722 4122 1019 
L 4122 359 
Q 3791 134 3420 21 
Q 3050 -91 2638 -91 
Q 1578 -91 968 557 
Q 359 1206 359 2328 
Q 359 3453 968 4101 
Q 1578 4750 2638 4750 
Q 3056 4750 3426 4639 
Q 3797 4528 4122 4306 
z
" id="DejaVuSans-43" transform="scale(0.015625)"/>
       <path d="M 2834 3397 
L 2834 2853 
Q 2591 2978 2328 3040 
Q 2066 3103 1784 3103 
Q 1356 3103 1142 2972 
Q 928 2841 928 2578 
Q 928 2378 1081 2264 
Q 1234 2150 1697 2047 
L 1894 2003 
Q 2506 1872 2764 1633 
Q 3022 1394 3022 966 
Q 3022 478 2636 193 
Q 2250 -91 1575 -91 
Q 1294 -91 989 -36 
Q 684 19 347 128 
L 347 722 
Q 666 556 975 473 
Q 1284 391 1588 391 
Q 1994 391 2212 530 
Q 2431 669 2431 922 
Q 2431 1156 2273 1281 
Q 2116 1406 1581 1522 
L 1381 1569 
Q 847 1681 609 1914 
Q 372 2147 372 2553 
Q 372 3047 722 3315 
Q 1072 3584 1716 3584 
Q 2034 3584 2315 3537 
Q 2597 3491 2834 3397 
z
" id="DejaVuSans-73" transform="scale(0.015625)"/>
      </defs>
      <use xlink:href="#DejaVuSans-41"/>
      <use x="62.533203" xlink:href="#DejaVuSans-76"/>
      <use x="121.712891" xlink:href="#DejaVuSans-67"/>
      <use x="185.189453" xlink:href="#DejaVuSans-20"/>
      <use x="216.976562" xlink:href="#DejaVuSans-43"/>
      <use x="286.800781" xlink:href="#DejaVuSans-61"/>
      <use x="348.080078" xlink:href="#DejaVuSans-73"/>
      <use x="400.179688" xlink:href="#DejaVuSans-65"/>
      <use x="461.703125" xlink:href="#DejaVuSans-73"/>
     </g>
    </g>
    <g id="line2d_96">
     <path d="M 618.653125 101.216562 
L 638.653125 101.216562 
" style="fill:none;stroke:#ff7f0e;stroke-linecap:square;stroke-width:1.5;"/>
    </g>
    <g id="line2d_97"/>
    <g id="text_12">
     <!-- Avg Deaths -->
     <g transform="translate(646.653125 104.716562)scale(0.1 -0.1)">
      <defs>
       <path d="M 3513 2113 
L 3513 0 
L 2938 0 
L 2938 2094 
Q 2938 2591 2744 2837 
Q 2550 3084 2163 3084 
Q 1697 3084 1428 2787 
Q 1159 2491 1159 1978 
L 1159 0 
L 581 0 
L 581 4863 
L 1159 4863 
L 1159 2956 
Q 1366 3272 1645 3428 
Q 1925 3584 2291 3584 
Q 2894 3584 3203 3211 
Q 3513 2838 3513 2113 
z
" id="DejaVuSans-68" transform="scale(0.015625)"/>
      </defs>
      <use xlink:href="#DejaVuSans-41"/>
      <use x="62.533203" xlink:href="#DejaVuSans-76"/>
      <use x="121.712891" xlink:href="#DejaVuSans-67"/>
      <use x="185.189453" xlink:href="#DejaVuSans-20"/>
      <use x="216.976562" xlink:href="#DejaVuSans-44"/>
      <use x="293.978516" xlink:href="#DejaVuSans-65"/>
      <use x="355.501953" xlink:href="#DejaVuSans-61"/>
      <use x="416.78125" xlink:href="#DejaVuSans-74"/>
      <use x="455.990234" xlink:href="#DejaVuSans-68"/>
      <use x="519.369141" xlink:href="#DejaVuSans-73"/>
     </g>
    </g>
   </g>
  </g>
 </g>
 <defs>
  <clipPath id="p68e2955192">
   <rect height="471.24" width="613.8" x="99" y="73.44"/>
  </clipPath>
 </defs>
</svg>
