<?xml version="1.0" encoding="utf-8" standalone="no"?>
<!DOCTYPE svg PUBLIC "-//W3C//DTD SVG 1.1//EN"
  "http://www.w3.org/Graphics/SVG/1.1/DTD/svg11.dtd">
<svg height="612pt" version="1.1" viewBox="0 0 792 612" width="792pt" xmlns="http://www.w3.org/2000/svg" xmlns:xlink="http://www.w3.org/1999/xlink">
 <metadata>
  <rdf:RDF xmlns:cc="http://creativecommons.org/ns#" xmlns:dc="http://purl.org/dc/elements/1.1/" xmlns:rdf="http://www.w3.org/1999/02/22-rdf-syntax-ns#">
   <cc:Work>
    <dc:type rdf:resource="http://purl.org/dc/dcmitype/StillImage"/>
    <dc:format>image/svg+xml</dc:format>
    <dc:creator>
     <cc:Agent>
      <dc:title>Matplotlib v3.4.2, https://matplotlib.org/</dc:title>
     </cc:Agent>
    </dc:creator>
   </cc:Work>
  </rdf:RDF>
 </metadata>
 <defs>
  <style type="text/css">*{stroke-linecap:butt;stroke-linejoin:round;}</style>
 </defs>
 <g id="figure_1">
  <g id="patch_1">
   <path d="M 0 612 
L 792 612 
L 792 0 
L 0 0 
z
" style="fill:#ffffff;"/>
  </g>
  <g id="axes_1">
   <g id="patch_2">
    <path d="M 99 544.68 
L 712.8 544.68 
L 712.8 73.44 
L 99 73.44 
z
" style="fill:#ffffff;"/>
   </g>
   <g id="PolyCollection_1">
    <path clip-path="url(#p68e2955192)" d="M 99 138828.57348 
L 99 138828.57348 
L 100.175862 138828.57348 
L 101.351724 138828.57348 
L 102.527586 138828.57348 
L 103.703448 138828.57348 
L 104.87931 138828.57348 
L 106.055172 138828.57348 
L 107.231034 138828.57348 
L 108.406897 138828.57348 
L 109.582759 138828.57348 
L 110.758621 138828.57348 
L 111.934483 138828.57348 
L 113.110345 138828.57348 
L 114.286207 403.004434 
L 115.462069 355.190047 
L 116.637931 339.201299 
L 117.813793 339.201299 
L 118.989655 337.539903 
L 120.165517 330.341849 
L 121.341379 330.341849 
L 122.517241 330.341849 
L 123.693103 324.35158 
L 124.868966 305.018805 
L 126.044828 292.961843 
L 127.22069 282.486112 
L 128.396552 282.486112 
L 129.572414 276.462363 
L 130.748276 276.462363 
L 131.924138 271.349832 
L 133.1 270.807724 
L 134.275862 270.807724 
L 135.451724 270.807724 
L 136.627586 270.807724 
L 137.803448 270.807724 
L 138.97931 270.807724 
L 140.155172 270.807724 
L 141.331034 270.807724 
L 142.506897 270.807724 
L 143.682759 270.807724 
L 144.858621 270.807724 
L 146.034483 277.458792 
L 147.210345 277.458792 
L 148.386207 289.67225 
L 149.562069 293.222509 
L 150.737931 293.222509 
L 151.913793 293.222509 
L 153.089655 294.810707 
L 154.265517 298.688395 
L 155.441379 298.688395 
L 156.617241 305.980159 
L 157.793103 327.502739 
L 158.968966 328.905526 
L 160.144828 328.905526 
L 161.32069 328.905526 
L 162.496552 333.833148 
L 163.672414 342.076648 
L 164.848276 373.958555 
L 166.024138 377.040427 
L 167.2 388.63072 
L 168.375862 388.63072 
L 169.551724 388.63072 
L 170.727586 398.320246 
L 171.903448 403.004434 
L 173.07931 415.60514 
L 174.255172 415.60514 
L 175.431034 415.60514 
L 176.606897 415.60514 
L 177.782759 415.60514 
L 178.958621 415.60514 
L 180.134483 415.60514 
L 181.310345 415.60514 
L 182.486207 415.60514 
L 183.662069 415.60514 
L 184.837931 415.60514 
L 186.013793 421.93555 
L 187.189655 421.93555 
L 188.365517 421.93555 
L 189.541379 421.93555 
L 190.717241 421.93555 
L 191.893103 421.93555 
L 193.068966 421.93555 
L 194.244828 421.93555 
L 195.42069 449.731507 
L 196.596552 421.93555 
L 197.772414 421.93555 
L 198.948276 421.93555 
L 200.124138 421.93555 
L 201.3 421.93555 
L 202.475862 421.93555 
L 203.651724 421.93555 
L 204.827586 439.96683 
L 206.003448 421.93555 
L 207.17931 369.149324 
L 208.355172 369.149324 
L 209.531034 369.149324 
L 210.706897 361.357849 
L 211.882759 361.357849 
L 213.058621 358.970118 
L 214.234483 351.633783 
L 215.410345 329.859249 
L 216.586207 329.859249 
L 217.762069 329.859249 
L 218.937931 329.859249 
L 220.113793 329.859249 
L 221.289655 314.652724 
L 222.465517 308.960108 
L 223.641379 308.960108 
L 224.817241 308.960108 
L 225.993103 308.960108 
L 227.168966 308.960108 
L 228.344828 308.960108 
L 229.52069 308.960108 
L 230.696552 308.960108 
L 231.872414 311.032152 
L 233.048276 289.918999 
L 234.224138 289.918999 
L 235.4 289.918999 
L 236.575862 289.918999 
L 237.751724 288.45348 
L 238.927586 288.45348 
L 240.103448 285.625508 
L 241.27931 285.625508 
L 242.455172 285.625508 
L 243.631034 282.050724 
L 244.806897 282.050724 
L 245.982759 270.449016 
L 247.158621 270.449016 
L 248.334483 260.729061 
L 249.510345 260.729061 
L 250.686207 260.729061 
L 251.862069 260.729061 
L 253.037931 260.729061 
L 254.213793 260.729061 
L 255.389655 260.729061 
L 256.565517 260.729061 
L 257.741379 260.729061 
L 258.917241 260.729061 
L 260.093103 270.449016 
L 261.268966 270.449016 
L 262.444828 263.37222 
L 263.62069 245.258577 
L 264.796552 238.58815 
L 265.972414 234.127981 
L 267.148276 234.127981 
L 268.324138 234.127981 
L 269.5 227.563556 
L 270.675862 206.811559 
L 271.851724 195.07676 
L 273.027586 195.07676 
L 274.203448 195.07676 
L 275.37931 192.28632 
L 276.555172 185.873195 
L 277.731034 175.453504 
L 278.906897 174.576893 
L 280.082759 165.631824 
L 281.258621 161.93602 
L 282.434483 161.93602 
L 283.610345 161.93602 
L 284.786207 161.93602 
L 285.962069 161.847943 
L 287.137931 156.598011 
L 288.313793 154.614883 
L 289.489655 145.980506 
L 290.665517 145.980506 
L 291.841379 145.980506 
L 293.017241 145.980506 
L 294.193103 144.051822 
L 295.368966 144.051822 
L 296.544828 144.051822 
L 297.72069 142.331352 
L 298.896552 142.331352 
L 300.072414 142.331352 
L 301.248276 142.331352 
L 302.424138 142.331352 
L 303.6 142.331352 
L 304.775862 142.331352 
L 305.951724 139.031507 
L 307.127586 139.031507 
L 308.303448 139.031507 
L 309.47931 139.031507 
L 310.655172 137.310484 
L 311.831034 137.310484 
L 313.006897 137.310484 
L 314.182759 137.310484 
L 315.358621 137.310484 
L 316.534483 137.310484 
L 317.710345 137.310484 
L 318.886207 137.310484 
L 320.062069 139.393819 
L 321.237931 139.393819 
L 322.413793 148.581722 
L 323.589655 148.581722 
L 324.765517 148.581722 
L 325.941379 148.581722 
L 327.117241 158.482169 
L 328.293103 159.658663 
L 329.468966 166.703643 
L 330.644828 173.14371 
L 331.82069 173.14371 
L 332.996552 173.14371 
L 334.172414 174.46821 
L 335.348276 173.605755 
L 336.524138 174.977086 
L 337.7 179.604081 
L 338.875862 179.604081 
L 340.051724 179.604081 
L 341.227586 179.604081 
L 342.403448 179.604081 
L 343.57931 179.604081 
L 344.755172 186.799268 
L 345.931034 189.248286 
L 347.106897 188.056663 
L 348.282759 188.056663 
L 349.458621 188.056663 
L 350.634483 188.056663 
L 351.810345 189.248286 
L 352.986207 189.248286 
L 354.162069 188.603708 
L 355.337931 189.71297 
L 356.513793 189.71297 
L 357.689655 189.71297 
L 358.865517 189.71297 
L 360.041379 191.560375 
L 361.217241 191.560375 
L 362.393103 191.560375 
L 363.568966 202.274814 
L 364.744828 202.274814 
L 365.92069 202.274814 
L 367.096552 202.274814 
L 368.272414 204.321646 
L 369.448276 204.679641 
L 370.624138 204.679641 
L 371.8 204.679641 
L 372.975862 198.325299 
L 374.151724 198.325299 
L 375.327586 198.325299 
L 376.503448 198.325299 
L 377.67931 198.325299 
L 378.855172 198.325299 
L 380.031034 198.325299 
L 381.206897 198.325299 
L 382.382759 198.325299 
L 383.558621 198.325299 
L 384.734483 188.056663 
L 385.910345 188.056663 
L 387.086207 189.993515 
L 388.262069 189.155779 
L 389.437931 188.603708 
L 390.613793 188.603708 
L 391.789655 188.603708 
L 392.965517 188.603708 
L 394.141379 188.603708 
L 395.317241 188.603708 
L 396.493103 188.603708 
L 397.668966 188.603708 
L 398.844828 188.603708 
L 400.02069 188.603708 
L 401.196552 191.128981 
L 402.372414 191.128981 
L 403.548276 193.516067 
L 404.724138 192.140428 
L 405.9 194.568868 
L 407.075862 194.568868 
L 408.251724 194.568868 
L 409.427586 195.178856 
L 410.603448 194.417334 
L 411.77931 194.266181 
L 412.955172 194.266181 
L 414.131034 194.266181 
L 415.306897 194.266181 
L 416.482759 194.266181 
L 417.658621 194.266181 
L 418.834483 187.649623 
L 420.010345 187.649623 
L 421.186207 194.266181 
L 422.362069 195.127787 
L 423.537931 195.127787 
L 424.713793 195.127787 
L 425.889655 195.127787 
L 427.065517 195.127787 
L 428.241379 191.656663 
L 429.417241 186.577476 
L 430.593103 186.577476 
L 431.768966 172.125622 
L 432.944828 172.125622 
L 434.12069 172.125622 
L 435.296552 172.439738 
L 436.472414 170.375998 
L 437.648276 170.375998 
L 438.824138 165.320188 
L 440 165.320188 
L 441.175862 165.320188 
L 442.351724 165.320188 
L 443.527586 165.320188 
L 444.703448 165.320188 
L 445.87931 170.375998 
L 447.055172 170.375998 
L 448.231034 178.432829 
L 449.406897 178.432829 
L 450.582759 178.432829 
L 451.758621 173.2855 
L 452.934483 165.133979 
L 454.110345 165.133979 
L 455.286207 172.966943 
L 456.462069 172.966943 
L 457.637931 172.966943 
L 458.813793 172.966943 
L 459.989655 150.737194 
L 461.165517 142.799591 
L 462.341379 142.799591 
L 463.517241 142.799591 
L 464.693103 142.799591 
L 465.868966 142.799591 
L 467.044828 142.799591 
L 468.22069 142.799591 
L 469.396552 146.02558 
L 470.572414 146.02558 
L 471.748276 146.02558 
L 472.924138 146.02558 
L 474.1 146.02558 
L 475.275862 146.02558 
L 476.451724 157.24669 
L 477.627586 164.211495 
L 478.803448 171.709339 
L 479.97931 175.416722 
L 481.155172 175.637752 
L 482.331034 175.637752 
L 483.506897 175.637752 
L 484.682759 177.132439 
L 485.858621 179.722472 
L 487.034483 183.93555 
L 488.210345 183.93555 
L 489.386207 183.93555 
L 490.562069 183.93555 
L 491.737931 183.93555 
L 492.913793 183.93555 
L 494.089655 186.710453 
L 495.265517 187.649623 
L 496.441379 194.568868 
L 497.617241 195.640446 
L 498.793103 195.640446 
L 499.968966 195.640446 
L 501.144828 195.640446 
L 502.32069 200.57423 
L 503.496552 203.085199 
L 504.672414 203.085199 
L 505.848276 203.085199 
L 507.024138 203.085199 
L 508.2 203.085199 
L 509.375862 206.133341 
L 510.551724 216.042449 
L 511.727586 219.387468 
L 512.903448 221.487681 
L 514.07931 221.487681 
L 515.255172 221.487681 
L 516.431034 221.487681 
L 517.606897 232.871164 
L 518.782759 232.871164 
L 519.958621 226.092761 
L 521.134483 226.092761 
L 522.310345 226.092761 
L 523.486207 226.092761 
L 524.662069 226.092761 
L 525.837931 226.092761 
L 527.013793 215.25234 
L 528.189655 213.563705 
L 529.365517 213.563705 
L 530.541379 213.563705 
L 531.717241 213.563705 
L 532.893103 213.563705 
L 534.068966 213.563705 
L 535.244828 207.372216 
L 536.42069 213.563705 
L 537.596552 213.563705 
L 538.772414 213.563705 
L 539.948276 213.563705 
L 541.124138 213.563705 
L 542.3 212.531911 
L 543.475862 186.268337 
L 544.651724 186.268337 
L 545.827586 186.268337 
L 547.003448 186.268337 
L 548.17931 186.268337 
L 549.355172 186.268337 
L 550.531034 182.5533 
L 551.706897 179.446589 
L 552.882759 179.446589 
L 554.058621 179.446589 
L 555.234483 179.446589 
L 556.410345 179.446589 
L 557.586207 179.446589 
L 558.762069 179.446589 
L 559.937931 170.987712 
L 561.113793 170.987712 
L 562.289655 170.987712 
L 563.465517 170.987712 
L 564.641379 170.987712 
L 565.817241 170.987712 
L 566.993103 170.375998 
L 568.168966 178.201294 
L 569.344828 178.201294 
L 570.52069 178.201294 
L 571.696552 178.201294 
L 572.872414 178.201294 
L 574.048276 178.201294 
L 575.224138 178.201294 
L 576.4 178.201294 
L 577.575862 178.201294 
L 578.751724 178.201294 
L 579.927586 178.201294 
L 581.103448 178.201294 
L 582.27931 178.201294 
L 583.455172 179.250302 
L 584.631034 189.387314 
L 585.806897 189.806339 
L 586.982759 188.420805 
L 588.158621 188.420805 
L 589.334483 188.420805 
L 590.510345 188.420805 
L 591.686207 188.420805 
L 592.862069 188.420805 
L 594.037931 188.420805 
L 595.213793 188.420805 
L 596.389655 188.420805 
L 597.565517 188.420805 
L 598.741379 188.420805 
L 599.917241 187.875416 
L 601.093103 186.00462 
L 602.268966 186.00462 
L 603.444828 186.00462 
L 604.62069 186.00462 
L 605.796552 186.00462 
L 606.972414 186.00462 
L 608.148276 186.00462 
L 609.324138 189.806339 
L 610.5 189.806339 
L 611.675862 189.806339 
L 612.851724 189.806339 
L 614.027586 189.806339 
L 615.203448 189.806339 
L 616.37931 190.795581 
L 617.555172 198.866106 
L 618.731034 198.866106 
L 619.906897 198.866106 
L 621.082759 198.866106 
L 622.258621 198.866106 
L 623.434483 198.866106 
L 624.610345 198.866106 
L 625.786207 206.502329 
L 626.962069 208.701127 
L 628.137931 208.701127 
L 629.313793 208.701127 
L 630.489655 208.701127 
L 631.665517 214.191395 
L 632.841379 219.234778 
L 634.017241 216.98981 
L 635.193103 231.080313 
L 636.368966 222.364826 
L 637.544828 222.364826 
L 638.72069 222.364826 
L 639.896552 222.364826 
L 641.072414 222.364826 
L 642.248276 220.4673 
L 643.424138 209.733734 
L 644.6 220.4673 
L 645.775862 220.4673 
L 646.951724 220.4673 
L 648.127586 220.4673 
L 649.303448 220.4673 
L 650.47931 220.4673 
L 651.655172 220.4673 
L 652.831034 224.824241 
L 654.006897 224.824241 
L 655.182759 224.824241 
L 656.358621 224.824241 
L 657.534483 224.824241 
L 658.710345 228.534799 
L 659.886207 234.914681 
L 661.062069 234.914681 
L 662.237931 234.914681 
L 663.413793 234.914681 
L 664.589655 234.914681 
L 665.765517 234.914681 
L 666.941379 228.534799 
L 668.117241 231.546439 
L 669.293103 243.06509 
L 670.468966 243.06509 
L 671.644828 243.06509 
L 672.82069 243.06509 
L 673.996552 235.611595 
L 675.172414 234.421788 
L 676.348276 226.34971 
L 677.524138 214.261544 
L 678.7 214.261544 
L 679.875862 206.564047 
L 681.051724 206.564047 
L 682.227586 200.854339 
L 683.403448 189.666339 
L 684.57931 188.0113 
L 685.755172 185.090622 
L 686.931034 185.090622 
L 688.106897 185.090622 
L 689.282759 185.090622 
L 690.458621 183.808568 
L 691.634483 165.289113 
L 692.810345 158.343632 
L 693.986207 153.634541 
L 695.162069 153.634541 
L 696.337931 153.634541 
L 697.513793 153.634541 
L 698.689655 152.569296 
L 699.865517 148.935641 
L 701.041379 120.93931 
L 702.217241 113.09849 
L 703.393103 113.09849 
L 704.568966 113.09849 
L 705.744828 113.09849 
L 706.92069 105.116223 
L 708.096552 98.223566 
L 709.272414 96.775947 
L 710.448276 94.86 
L 711.624138 94.86 
L 712.8 94.86 
L 712.8 126.68517 
L 712.8 126.68517 
L 711.624138 129.238741 
L 710.448276 136.708967 
L 709.272414 148.370368 
L 708.096552 152.068599 
L 706.92069 154.79723 
L 705.744828 158.177808 
L 704.568966 160.599488 
L 703.393103 178.510206 
L 702.217241 182.099528 
L 701.041379 185.133832 
L 699.865517 189.526665 
L 698.689655 189.526665 
L 697.513793 189.526665 
L 696.337931 189.526665 
L 695.162069 192.971875 
L 693.986207 193.565784 
L 692.810345 199.907248 
L 691.634483 205.100016 
L 690.458621 207.122389 
L 689.282759 212.463751 
L 688.106897 233.255084 
L 686.931034 240.512691 
L 685.755172 257.328605 
L 684.57931 257.328605 
L 683.403448 257.328605 
L 682.227586 257.328605 
L 681.051724 257.328605 
L 679.875862 254.520462 
L 678.7 258.197295 
L 677.524138 258.197295 
L 676.348276 258.197295 
L 675.172414 258.197295 
L 673.996552 259.524342 
L 672.82069 259.524342 
L 671.644828 258.930922 
L 670.468966 258.930922 
L 669.293103 264.333574 
L 668.117241 264.333574 
L 666.941379 264.333574 
L 665.765517 264.333574 
L 664.589655 275.482189 
L 663.413793 277.458792 
L 662.237931 275.676949 
L 661.062069 271.896877 
L 659.886207 275.482189 
L 658.710345 275.482189 
L 657.534483 275.482189 
L 656.358621 275.482189 
L 655.182759 275.482189 
L 654.006897 275.288059 
L 652.831034 275.288059 
L 651.655172 275.288059 
L 650.47931 275.288059 
L 649.303448 275.288059 
L 648.127586 271.896877 
L 646.951724 271.896877 
L 645.775862 262.739758 
L 644.6 275.288059 
L 643.424138 262.739758 
L 642.248276 262.739758 
L 641.072414 265.639784 
L 639.896552 265.639784 
L 638.72069 265.639784 
L 637.544828 265.639784 
L 636.368966 265.146622 
L 635.193103 265.146622 
L 634.017241 265.146622 
L 632.841379 265.146622 
L 631.665517 265.146622 
L 630.489655 255.21029 
L 629.313793 255.21029 
L 628.137931 253.030157 
L 626.962069 253.030157 
L 625.786207 251.837725 
L 624.610345 250.411733 
L 623.434483 250.411733 
L 622.258621 250.668499 
L 621.082759 243.749158 
L 619.906897 243.178562 
L 618.731034 238.168718 
L 617.555172 238.168718 
L 616.37931 229.794077 
L 615.203448 229.794077 
L 614.027586 238.064316 
L 612.851724 229.794077 
L 611.675862 226.607764 
L 610.5 226.607764 
L 609.324138 226.607764 
L 608.148276 226.607764 
L 606.972414 226.607764 
L 605.796552 225.751861 
L 604.62069 225.751861 
L 603.444828 225.751861 
L 602.268966 225.751861 
L 601.093103 228.357038 
L 599.917241 228.357038 
L 598.741379 228.357038 
L 597.565517 228.091378 
L 596.389655 228.357038 
L 595.213793 230.894871 
L 594.037931 230.894871 
L 592.862069 230.894871 
L 591.686207 230.894871 
L 590.510345 230.894871 
L 589.334483 230.894871 
L 588.158621 230.894871 
L 586.982759 229.251151 
L 585.806897 229.251151 
L 584.631034 228.179801 
L 583.455172 228.179801 
L 582.27931 228.179801 
L 581.103448 228.179801 
L 579.927586 228.179801 
L 578.751724 224.241307 
L 577.575862 224.241307 
L 576.4 224.241307 
L 575.224138 224.241307 
L 574.048276 224.241307 
L 572.872414 213.011211 
L 571.696552 213.011211 
L 570.52069 211.921234 
L 569.344828 211.316701 
L 568.168966 211.316701 
L 566.993103 211.316701 
L 565.817241 211.316701 
L 564.641379 211.316701 
L 563.465517 211.316701 
L 562.289655 212.056404 
L 561.113793 220.389522 
L 559.937931 220.389522 
L 558.762069 220.389522 
L 557.586207 220.389522 
L 556.410345 225.922069 
L 555.234483 225.922069 
L 554.058621 230.894871 
L 552.882759 241.388238 
L 551.706897 241.388238 
L 550.531034 241.388238 
L 549.355172 242.388723 
L 548.17931 247.169937 
L 547.003448 247.169937 
L 545.827586 253.030157 
L 544.651724 253.030157 
L 543.475862 253.030157 
L 542.3 253.030157 
L 541.124138 253.030157 
L 539.948276 254.657795 
L 538.772414 258.489671 
L 537.596552 258.489671 
L 536.42069 258.489671 
L 535.244828 258.489671 
L 534.068966 258.489671 
L 532.893103 259.226899 
L 531.717241 259.226899 
L 530.541379 259.226899 
L 529.365517 256.614169 
L 528.189655 256.614169 
L 527.013793 256.614169 
L 525.837931 256.614169 
L 524.662069 256.614169 
L 523.486207 256.614169 
L 522.310345 256.614169 
L 521.134483 256.614169 
L 519.958621 256.614169 
L 518.782759 256.614169 
L 517.606897 256.614169 
L 516.431034 255.62802 
L 515.255172 254.383442 
L 514.07931 257.328605 
L 512.903448 275.482189 
L 511.727586 275.482189 
L 510.551724 275.482189 
L 509.375862 275.482189 
L 508.2 275.482189 
L 507.024138 257.328605 
L 505.848276 246.326226 
L 504.672414 239.329275 
L 503.496552 234.127981 
L 502.32069 228.623878 
L 501.144828 228.623878 
L 499.968966 228.623878 
L 498.793103 224.241307 
L 497.617241 224.241307 
L 496.441379 220.234268 
L 495.265517 215.825932 
L 494.089655 215.825932 
L 492.913793 215.825932 
L 491.737931 215.825932 
L 490.562069 215.825932 
L 489.386207 215.825932 
L 488.210345 209.668674 
L 487.034483 208.637175 
L 485.858621 208.637175 
L 484.682759 208.637175 
L 483.506897 199.0838 
L 482.331034 199.138347 
L 481.155172 198.325299 
L 479.97931 198.325299 
L 478.803448 198.325299 
L 477.627586 198.325299 
L 476.451724 198.325299 
L 475.275862 196.888976 
L 474.1 193.765066 
L 472.924138 193.765066 
L 471.748276 194.115407 
L 470.572414 193.665342 
L 469.396552 193.665342 
L 468.22069 193.665342 
L 467.044828 193.665342 
L 465.868966 193.665342 
L 464.693103 193.715183 
L 463.517241 201.023033 
L 462.341379 203.143504 
L 461.165517 203.143504 
L 459.989655 203.143504 
L 458.813793 203.143504 
L 457.637931 208.064645 
L 456.462069 209.864067 
L 455.286207 208.064645 
L 454.110345 208.064645 
L 452.934483 208.064645 
L 451.758621 208.064645 
L 450.582759 208.064645 
L 449.406897 208.064645 
L 448.231034 208.064645 
L 447.055172 203.085199 
L 445.87931 203.085199 
L 444.703448 203.085199 
L 443.527586 203.085199 
L 442.351724 203.085199 
L 441.175862 204.143445 
L 440 204.143445 
L 438.824138 219.924958 
L 437.648276 219.924958 
L 436.472414 219.924958 
L 435.296552 219.924958 
L 434.12069 219.924958 
L 432.944828 220.936093 
L 431.768966 220.936093 
L 430.593103 220.936093 
L 429.417241 224.241307 
L 428.241379 224.241307 
L 427.065517 224.241307 
L 425.889655 224.241307 
L 424.713793 222.767801 
L 423.537931 222.767801 
L 422.362069 222.767801 
L 421.186207 222.767801 
L 420.010345 222.767801 
L 418.834483 222.767801 
L 417.658621 222.767801 
L 416.482759 223.254965 
L 415.306897 223.254965 
L 414.131034 223.254965 
L 412.955172 223.254965 
L 411.77931 211.921234 
L 410.603448 211.921234 
L 409.427586 211.921234 
L 408.251724 211.921234 
L 407.075862 211.450517 
L 405.9 227.826887 
L 404.724138 227.826887 
L 403.548276 227.826887 
L 402.372414 227.826887 
L 401.196552 227.826887 
L 400.02069 211.450517 
L 398.844828 210.585994 
L 397.668966 217.580315 
L 396.493103 216.98981 
L 395.317241 218.930558 
L 394.141379 218.930558 
L 392.965517 224.740618 
L 391.789655 225.666938 
L 390.613793 226.263938 
L 389.437931 226.263938 
L 388.262069 226.263938 
L 387.086207 226.263938 
L 385.910345 226.263938 
L 384.734483 226.263938 
L 383.558621 226.263938 
L 382.382759 226.263938 
L 381.206897 233.641474 
L 380.031034 233.641474 
L 378.855172 226.263938 
L 377.67931 226.263938 
L 376.503448 221.805163 
L 375.327586 217.21057 
L 374.151724 217.21057 
L 372.975862 217.21057 
L 371.8 217.21057 
L 370.624138 221.093174 
L 369.448276 221.093174 
L 368.272414 221.093174 
L 367.096552 217.654537 
L 365.92069 217.654537 
L 364.744828 217.654537 
L 363.568966 225.582134 
L 362.393103 225.582134 
L 361.217241 225.582134 
L 360.041379 225.582134 
L 358.865517 225.582134 
L 357.689655 216.98981 
L 356.513793 214.825711 
L 355.337931 214.825711 
L 354.162069 213.425104 
L 352.986207 213.425104 
L 351.810345 213.425104 
L 350.634483 213.425104 
L 349.458621 213.425104 
L 348.282759 213.425104 
L 347.106897 213.425104 
L 345.931034 213.425104 
L 344.755172 213.425104 
L 343.57931 213.425104 
L 342.403448 213.425104 
L 341.227586 213.981435 
L 340.051724 219.234778 
L 338.875862 219.234778 
L 337.7 219.234778 
L 336.524138 219.234778 
L 335.348276 219.234778 
L 334.172414 219.234778 
L 332.996552 207.309662 
L 331.82069 204.500377 
L 330.644828 202.736552 
L 329.468966 202.736552 
L 328.293103 202.736552 
L 327.117241 202.736552 
L 325.941379 198.541038 
L 324.765517 190.416804 
L 323.589655 188.375167 
L 322.413793 177.056815 
L 321.237931 173.641445 
L 320.062069 173.641445 
L 318.886207 169.90449 
L 317.710345 164.670967 
L 316.534483 163.84643 
L 315.358621 163.84643 
L 314.182759 160.370053 
L 313.006897 160.370053 
L 311.831034 160.370053 
L 310.655172 159.3483 
L 309.47931 159.3483 
L 308.303448 159.3483 
L 307.127586 159.3483 
L 305.951724 158.426716 
L 304.775862 158.426716 
L 303.6 158.426716 
L 302.424138 158.426716 
L 301.248276 159.292042 
L 300.072414 163.543895 
L 298.896552 163.543895 
L 297.72069 172.720338 
L 296.544828 172.720338 
L 295.368966 172.720338 
L 294.193103 179.801529 
L 293.017241 179.801529 
L 291.841379 179.801529 
L 290.665517 179.801529 
L 289.489655 180.477747 
L 288.313793 183.555408 
L 287.137931 185.480634 
L 285.962069 192.091876 
L 284.786207 193.169193 
L 283.610345 193.665342 
L 282.434483 201.531977 
L 281.258621 215.610193 
L 280.082759 226.178288 
L 278.906897 233.158874 
L 277.731034 237.960095 
L 276.555172 241.830842 
L 275.37931 251.706682 
L 274.203448 255.21029 
L 273.027586 281.618468 
L 271.851724 284.035308 
L 270.675862 288.938025 
L 269.5 296.442028 
L 268.324138 296.442028 
L 267.148276 298.97519 
L 265.972414 298.97519 
L 264.796552 301.61987 
L 263.62069 301.61987 
L 262.444828 301.61987 
L 261.268966 301.61987 
L 260.093103 298.97519 
L 258.917241 298.97519 
L 257.741379 298.97519 
L 256.565517 298.97519 
L 255.389655 298.688395 
L 254.213793 298.688395 
L 253.037931 298.688395 
L 251.862069 298.97519 
L 250.686207 301.61987 
L 249.510345 302.527948 
L 248.334483 302.527948 
L 247.158621 314.652724 
L 245.982759 325.681893 
L 244.806897 325.681893 
L 243.631034 325.681893 
L 242.455172 357.429436 
L 241.27931 358.194839 
L 240.103448 358.194839 
L 238.927586 358.194839 
L 237.751724 358.194839 
L 236.575862 358.194839 
L 235.4 375.995473 
L 234.224138 398.320246 
L 233.048276 375.995473 
L 231.872414 386.126886 
L 230.696552 386.126886 
L 229.52069 386.126886 
L 228.344828 386.126886 
L 227.168966 398.320246 
L 225.993103 386.126886 
L 224.817241 386.126886 
L 223.641379 398.320246 
L 222.465517 398.320246 
L 221.289655 398.320246 
L 220.113793 399.841424 
L 218.937931 417.642058 
L 217.762069 443.048702 
L 216.586207 481.613415 
L 215.410345 481.613415 
L 214.234483 481.613415 
L 213.058621 481.613415 
L 211.882759 481.613415 
L 210.706897 481.613415 
L 209.531034 481.613415 
L 208.355172 487.943825 
L 207.17931 138828.57348 
L 206.003448 138828.57348 
L 204.827586 138828.57348 
L 203.651724 138828.57348 
L 202.475862 138828.57348 
L 201.3 138828.57348 
L 200.124138 138828.57348 
L 198.948276 138828.57348 
L 197.772414 138828.57348 
L 196.596552 138828.57348 
L 195.42069 138828.57348 
L 194.244828 138828.57348 
L 193.068966 138828.57348 
L 191.893103 487.943825 
L 190.717241 481.613415 
L 189.541379 481.613415 
L 188.365517 481.613415 
L 187.189655 481.613415 
L 186.013793 481.613415 
L 184.837931 481.613415 
L 183.662069 481.613415 
L 182.486207 481.613415 
L 181.310345 481.613415 
L 180.134483 481.613415 
L 178.958621 481.613415 
L 177.782759 481.613415 
L 176.606897 481.613415 
L 175.431034 481.613415 
L 174.255172 481.613415 
L 173.07931 481.613415 
L 171.903448 481.613415 
L 170.727586 481.613415 
L 169.551724 481.613415 
L 168.375862 481.613415 
L 167.2 443.048702 
L 166.024138 439.96683 
L 164.848276 439.96683 
L 163.672414 439.96683 
L 162.496552 439.96683 
L 161.32069 439.96683 
L 160.144828 401.402117 
L 158.968966 398.320246 
L 157.793103 386.126886 
L 156.617241 384.91304 
L 155.441379 374.968383 
L 154.265517 373.958555 
L 153.089655 365.561194 
L 151.913793 350.947109 
L 150.737931 338.64238 
L 149.562069 332.814763 
L 148.386207 332.814763 
L 147.210345 328.434282 
L 146.034483 327.502739 
L 144.858621 316.164334 
L 143.682759 302.833716 
L 142.506897 301.61987 
L 141.331034 298.97519 
L 140.155172 294.01136 
L 138.97931 301.61987 
L 137.803448 301.61987 
L 136.627586 302.833716 
L 135.451724 315.782851 
L 134.275862 303.449961 
L 133.1 323.480792 
L 131.924138 328.434282 
L 130.748276 337.539903 
L 129.572414 337.539903 
L 128.396552 338.088613 
L 127.22069 344.480301 
L 126.044828 358.970118 
L 124.868966 386.126886 
L 123.693103 399.841424 
L 122.517241 415.60514 
L 121.341379 417.642058 
L 120.165517 439.96683 
L 118.989655 446.29724 
L 117.813793 138828.57348 
L 116.637931 138828.57348 
L 115.462069 138828.57348 
L 114.286207 138828.57348 
L 113.110345 138828.57348 
L 111.934483 138828.57348 
L 110.758621 138828.57348 
L 109.582759 138828.57348 
L 108.406897 138828.57348 
L 107.231034 138828.57348 
L 106.055172 138828.57348 
L 104.87931 138828.57348 
L 103.703448 138828.57348 
L 102.527586 138828.57348 
L 101.351724 138828.57348 
L 100.175862 138828.57348 
L 99 138828.57348 
z
" style="fill:#8080ff;fill-opacity:0.5;stroke:#8080ff;stroke-opacity:0.5;"/>
   </g>
   <g id="PolyCollection_2">
    <path clip-path="url(#p68e2955192)" d="M 99 138828.57348 
L 99 138828.57348 
L 100.175862 138828.57348 
L 101.351724 138828.57348 
L 102.527586 138828.57348 
L 103.703448 138828.57348 
L 104.87931 138828.57348 
L 106.055172 138828.57348 
L 107.231034 138828.57348 
L 108.406897 138828.57348 
L 109.582759 138828.57348 
L 110.758621 138828.57348 
L 111.934483 138828.57348 
L 113.110345 138828.57348 
L 114.286207 138828.57348 
L 115.462069 138828.57348 
L 116.637931 138828.57348 
L 117.813793 138828.57348 
L 118.989655 138828.57348 
L 120.165517 138828.57348 
L 121.341379 138828.57348 
L 122.517241 138828.57348 
L 123.693103 138828.57348 
L 124.868966 138828.57348 
L 126.044828 138828.57348 
L 127.22069 138828.57348 
L 128.396552 138828.57348 
L 129.572414 138828.57348 
L 130.748276 503.04363 
L 131.924138 481.613415 
L 133.1 481.613415 
L 134.275862 481.613415 
L 135.451724 481.613415 
L 136.627586 481.613415 
L 137.803448 481.613415 
L 138.97931 481.613415 
L 140.155172 481.613415 
L 141.331034 481.613415 
L 142.506897 481.613415 
L 143.682759 481.613415 
L 144.858621 481.613415 
L 146.034483 481.613415 
L 147.210345 481.613415 
L 148.386207 481.613415 
L 149.562069 481.613415 
L 150.737931 481.613415 
L 151.913793 481.613415 
L 153.089655 449.731507 
L 154.265517 449.731507 
L 155.441379 449.731507 
L 156.617241 481.613415 
L 157.793103 481.613415 
L 158.968966 481.613415 
L 160.144828 449.731507 
L 161.32069 449.731507 
L 162.496552 449.731507 
L 163.672414 449.731507 
L 164.848276 449.731507 
L 166.024138 449.731507 
L 167.2 449.731507 
L 168.375862 449.731507 
L 169.551724 481.613415 
L 170.727586 481.613415 
L 171.903448 481.613415 
L 173.07931 481.613415 
L 174.255172 503.04363 
L 175.431034 503.04363 
L 176.606897 138828.57348 
L 177.782759 138828.57348 
L 178.958621 138828.57348 
L 180.134483 138828.57348 
L 181.310345 138828.57348 
L 182.486207 138828.57348 
L 183.662069 138828.57348 
L 184.837931 138828.57348 
L 186.013793 138828.57348 
L 187.189655 138828.57348 
L 188.365517 138828.57348 
L 189.541379 138828.57348 
L 190.717241 138828.57348 
L 191.893103 138828.57348 
L 193.068966 138828.57348 
L 194.244828 138828.57348 
L 195.42069 138828.57348 
L 196.596552 138828.57348 
L 197.772414 138828.57348 
L 198.948276 138828.57348 
L 200.124138 138828.57348 
L 201.3 138828.57348 
L 202.475862 138828.57348 
L 203.651724 138828.57348 
L 204.827586 138828.57348 
L 206.003448 138828.57348 
L 207.17931 138828.57348 
L 208.355172 138828.57348 
L 209.531034 138828.57348 
L 210.706897 138828.57348 
L 211.882759 138828.57348 
L 213.058621 138828.57348 
L 214.234483 138828.57348 
L 215.410345 138828.57348 
L 216.586207 138828.57348 
L 217.762069 138828.57348 
L 218.937931 138828.57348 
L 220.113793 138828.57348 
L 221.289655 138828.57348 
L 222.465517 138828.57348 
L 223.641379 138828.57348 
L 224.817241 138828.57348 
L 225.993103 138828.57348 
L 227.168966 138828.57348 
L 228.344828 138828.57348 
L 229.52069 138828.57348 
L 230.696552 138828.57348 
L 231.872414 138828.57348 
L 233.048276 138828.57348 
L 234.224138 138828.57348 
L 235.4 138828.57348 
L 236.575862 138828.57348 
L 237.751724 138828.57348 
L 238.927586 503.04363 
L 240.103448 503.04363 
L 241.27931 503.04363 
L 242.455172 503.04363 
L 243.631034 503.04363 
L 244.806897 503.04363 
L 245.982759 503.04363 
L 247.158621 503.04363 
L 248.334483 138828.57348 
L 249.510345 138828.57348 
L 250.686207 503.04363 
L 251.862069 503.04363 
L 253.037931 503.04363 
L 254.213793 503.04363 
L 255.389655 503.04363 
L 256.565517 481.613415 
L 257.741379 481.613415 
L 258.917241 481.613415 
L 260.093103 481.613415 
L 261.268966 481.613415 
L 262.444828 481.613415 
L 263.62069 481.613415 
L 264.796552 481.613415 
L 265.972414 481.613415 
L 267.148276 481.613415 
L 268.324138 481.613415 
L 269.5 481.613415 
L 270.675862 481.613415 
L 271.851724 481.613415 
L 273.027586 503.04363 
L 274.203448 503.04363 
L 275.37931 503.04363 
L 276.555172 481.613415 
L 277.731034 503.04363 
L 278.906897 503.04363 
L 280.082759 449.731507 
L 281.258621 449.731507 
L 282.434483 449.731507 
L 283.610345 439.96683 
L 284.786207 439.96683 
L 285.962069 439.96683 
L 287.137931 439.96683 
L 288.313793 439.96683 
L 289.489655 439.96683 
L 290.665517 439.96683 
L 291.841379 439.96683 
L 293.017241 439.96683 
L 294.193103 439.96683 
L 295.368966 421.93555 
L 296.544828 421.93555 
L 297.72069 421.93555 
L 298.896552 421.93555 
L 300.072414 439.96683 
L 301.248276 439.96683 
L 302.424138 439.96683 
L 303.6 421.93555 
L 304.775862 403.004434 
L 305.951724 403.004434 
L 307.127586 403.004434 
L 308.303448 398.320246 
L 309.47931 398.320246 
L 310.655172 398.320246 
L 311.831034 398.320246 
L 313.006897 398.320246 
L 314.182759 398.320246 
L 315.358621 398.320246 
L 316.534483 398.320246 
L 317.710345 398.320246 
L 318.886207 398.320246 
L 320.062069 398.320246 
L 321.237931 398.320246 
L 322.413793 398.320246 
L 323.589655 398.320246 
L 324.765517 403.004434 
L 325.941379 415.60514 
L 327.117241 415.60514 
L 328.293103 415.60514 
L 329.468966 403.004434 
L 330.644828 403.004434 
L 331.82069 403.004434 
L 332.996552 403.004434 
L 334.172414 403.004434 
L 335.348276 403.004434 
L 336.524138 403.004434 
L 337.7 403.004434 
L 338.875862 398.320246 
L 340.051724 398.320246 
L 341.227586 398.320246 
L 342.403448 398.320246 
L 343.57931 398.320246 
L 344.755172 403.004434 
L 345.931034 415.60514 
L 347.106897 403.004434 
L 348.282759 403.004434 
L 349.458621 403.004434 
L 350.634483 403.004434 
L 351.810345 403.004434 
L 352.986207 403.004434 
L 354.162069 403.004434 
L 355.337931 415.60514 
L 356.513793 415.60514 
L 357.689655 415.60514 
L 358.865517 403.004434 
L 360.041379 355.190047 
L 361.217241 355.190047 
L 362.393103 355.190047 
L 363.568966 403.004434 
L 364.744828 403.004434 
L 365.92069 403.004434 
L 367.096552 403.004434 
L 368.272414 355.190047 
L 369.448276 355.190047 
L 370.624138 355.190047 
L 371.8 355.190047 
L 372.975862 355.190047 
L 374.151724 355.190047 
L 375.327586 357.429436 
L 376.503448 415.60514 
L 377.67931 415.60514 
L 378.855172 415.60514 
L 380.031034 415.60514 
L 381.206897 415.60514 
L 382.382759 415.60514 
L 383.558621 415.60514 
L 384.734483 415.60514 
L 385.910345 415.60514 
L 387.086207 415.60514 
L 388.262069 421.93555 
L 389.437931 421.93555 
L 390.613793 421.93555 
L 391.789655 449.731507 
L 392.965517 449.731507 
L 394.141379 481.613415 
L 395.317241 481.613415 
L 396.493103 481.613415 
L 397.668966 481.613415 
L 398.844828 481.613415 
L 400.02069 481.613415 
L 401.196552 481.613415 
L 402.372414 481.613415 
L 403.548276 481.613415 
L 404.724138 481.613415 
L 405.9 449.731507 
L 407.075862 449.731507 
L 408.251724 449.731507 
L 409.427586 439.96683 
L 410.603448 439.96683 
L 411.77931 421.93555 
L 412.955172 421.93555 
L 414.131034 403.004434 
L 415.306897 403.004434 
L 416.482759 403.004434 
L 417.658621 403.004434 
L 418.834483 403.004434 
L 420.010345 372.96542 
L 421.186207 388.63072 
L 422.362069 388.63072 
L 423.537931 388.63072 
L 424.713793 388.63072 
L 425.889655 388.63072 
L 427.065517 388.63072 
L 428.241379 388.63072 
L 429.417241 388.63072 
L 430.593103 388.63072 
L 431.768966 388.63072 
L 432.944828 388.63072 
L 434.12069 388.63072 
L 435.296552 388.63072 
L 436.472414 398.320246 
L 437.648276 403.004434 
L 438.824138 403.004434 
L 440 403.004434 
L 441.175862 403.004434 
L 442.351724 415.60514 
L 443.527586 415.60514 
L 444.703448 415.60514 
L 445.87931 415.60514 
L 447.055172 421.93555 
L 448.231034 421.93555 
L 449.406897 421.93555 
L 450.582759 449.731507 
L 451.758621 429.012346 
L 452.934483 429.012346 
L 454.110345 429.012346 
L 455.286207 429.012346 
L 456.462069 429.012346 
L 457.637931 429.012346 
L 458.813793 429.012346 
L 459.989655 429.012346 
L 461.165517 403.004434 
L 462.341379 398.320246 
L 463.517241 398.320246 
L 464.693103 398.320246 
L 465.868966 398.320246 
L 467.044828 398.320246 
L 468.22069 380.288965 
L 469.396552 380.288965 
L 470.572414 380.288965 
L 471.748276 380.288965 
L 472.924138 380.288965 
L 474.1 380.288965 
L 475.275862 398.320246 
L 476.451724 398.320246 
L 477.627586 398.320246 
L 478.803448 398.320246 
L 479.97931 380.288965 
L 481.155172 380.288965 
L 482.331034 373.958555 
L 483.506897 373.958555 
L 484.682759 380.288965 
L 485.858621 380.288965 
L 487.034483 380.288965 
L 488.210345 380.288965 
L 489.386207 380.288965 
L 490.562069 380.288965 
L 491.737931 380.288965 
L 492.913793 380.288965 
L 494.089655 380.288965 
L 495.265517 380.288965 
L 496.441379 403.004434 
L 497.617241 403.004434 
L 498.793103 415.60514 
L 499.968966 403.004434 
L 501.144828 403.004434 
L 502.32069 403.004434 
L 503.496552 403.004434 
L 504.672414 408.084923 
L 505.848276 408.084923 
L 507.024138 408.084923 
L 508.2 439.96683 
L 509.375862 449.731507 
L 510.551724 439.96683 
L 511.727586 439.96683 
L 512.903448 449.731507 
L 514.07931 449.731507 
L 515.255172 449.731507 
L 516.431034 449.731507 
L 517.606897 449.731507 
L 518.782759 439.96683 
L 519.958621 439.96683 
L 521.134483 439.96683 
L 522.310345 439.96683 
L 523.486207 439.96683 
L 524.662069 439.96683 
L 525.837931 439.96683 
L 527.013793 439.96683 
L 528.189655 439.96683 
L 529.365517 439.96683 
L 530.541379 439.96683 
L 531.717241 439.96683 
L 532.893103 439.96683 
L 534.068966 439.96683 
L 535.244828 439.96683 
L 536.42069 439.96683 
L 537.596552 439.96683 
L 538.772414 439.96683 
L 539.948276 439.96683 
L 541.124138 449.731507 
L 542.3 449.731507 
L 543.475862 481.613415 
L 544.651724 481.613415 
L 545.827586 481.613415 
L 547.003448 481.613415 
L 548.17931 481.613415 
L 549.355172 481.613415 
L 550.531034 481.613415 
L 551.706897 481.613415 
L 552.882759 429.012346 
L 554.058621 429.012346 
L 555.234483 429.012346 
L 556.410345 429.012346 
L 557.586207 429.012346 
L 558.762069 429.012346 
L 559.937931 429.012346 
L 561.113793 415.60514 
L 562.289655 415.60514 
L 563.465517 415.60514 
L 564.641379 415.60514 
L 565.817241 429.012346 
L 566.993103 415.60514 
L 568.168966 415.60514 
L 569.344828 429.012346 
L 570.52069 429.012346 
L 571.696552 429.012346 
L 572.872414 429.012346 
L 574.048276 421.93555 
L 575.224138 421.93555 
L 576.4 421.93555 
L 577.575862 449.731507 
L 578.751724 449.731507 
L 579.927586 449.731507 
L 581.103448 449.731507 
L 582.27931 449.731507 
L 583.455172 449.731507 
L 584.631034 449.731507 
L 585.806897 449.731507 
L 586.982759 449.731507 
L 588.158621 449.731507 
L 589.334483 449.731507 
L 590.510345 449.731507 
L 591.686207 449.731507 
L 592.862069 449.731507 
L 594.037931 449.731507 
L 595.213793 449.731507 
L 596.389655 449.731507 
L 597.565517 449.731507 
L 598.741379 449.731507 
L 599.917241 481.613415 
L 601.093103 481.613415 
L 602.268966 481.613415 
L 603.444828 481.613415 
L 604.62069 481.613415 
L 605.796552 481.613415 
L 606.972414 481.613415 
L 608.148276 481.613415 
L 609.324138 481.613415 
L 610.5 481.613415 
L 611.675862 481.613415 
L 612.851724 481.613415 
L 614.027586 481.613415 
L 615.203448 481.613415 
L 616.37931 481.613415 
L 617.555172 481.613415 
L 618.731034 481.613415 
L 619.906897 449.731507 
L 621.082759 449.731507 
L 622.258621 449.731507 
L 623.434483 449.731507 
L 624.610345 439.96683 
L 625.786207 439.96683 
L 626.962069 439.96683 
L 628.137931 439.96683 
L 629.313793 439.96683 
L 630.489655 439.96683 
L 631.665517 439.96683 
L 632.841379 439.96683 
L 634.017241 449.731507 
L 635.193103 449.731507 
L 636.368966 449.731507 
L 637.544828 449.731507 
L 638.72069 449.731507 
L 639.896552 449.731507 
L 641.072414 481.613415 
L 642.248276 481.613415 
L 643.424138 481.613415 
L 644.6 481.613415 
L 645.775862 481.613415 
L 646.951724 481.613415 
L 648.127586 481.613415 
L 649.303448 481.613415 
L 650.47931 429.012346 
L 651.655172 429.012346 
L 652.831034 449.731507 
L 654.006897 449.731507 
L 655.182759 449.731507 
L 656.358621 449.731507 
L 657.534483 449.731507 
L 658.710345 449.731507 
L 659.886207 439.96683 
L 661.062069 439.96683 
L 662.237931 439.96683 
L 663.413793 439.96683 
L 664.589655 439.96683 
L 665.765517 439.96683 
L 666.941379 449.731507 
L 668.117241 449.731507 
L 669.293103 481.613415 
L 670.468966 481.613415 
L 671.644828 481.613415 
L 672.82069 481.613415 
L 673.996552 481.613415 
L 675.172414 481.613415 
L 676.348276 481.613415 
L 677.524138 481.613415 
L 678.7 481.613415 
L 679.875862 481.613415 
L 681.051724 481.613415 
L 682.227586 481.613415 
L 683.403448 481.613415 
L 684.57931 481.613415 
L 685.755172 481.613415 
L 686.931034 481.613415 
L 688.106897 481.613415 
L 689.282759 481.613415 
L 690.458621 449.731507 
L 691.634483 449.731507 
L 692.810345 481.613415 
L 693.986207 449.731507 
L 695.162069 449.731507 
L 696.337931 449.731507 
L 697.513793 421.93555 
L 698.689655 421.93555 
L 699.865517 415.60514 
L 701.041379 415.60514 
L 702.217241 415.60514 
L 703.393103 415.60514 
L 704.568966 415.60514 
L 705.744828 415.60514 
L 706.92069 421.93555 
L 708.096552 421.93555 
L 709.272414 421.93555 
L 710.448276 421.93555 
L 711.624138 421.93555 
L 712.8 421.93555 
L 712.8 138828.57348 
L 712.8 138828.57348 
L 711.624138 138828.57348 
L 710.448276 138828.57348 
L 709.272414 138828.57348 
L 708.096552 138828.57348 
L 706.92069 138828.57348 
L 705.744828 138828.57348 
L 704.568966 138828.57348 
L 703.393103 138828.57348 
L 702.217241 138828.57348 
L 701.041379 138828.57348 
L 699.865517 138828.57348 
L 698.689655 138828.57348 
L 697.513793 138828.57348 
L 696.337931 138828.57348 
L 695.162069 138828.57348 
L 693.986207 138828.57348 
L 692.810345 138828.57348 
L 691.634483 138828.57348 
L 690.458621 138828.57348 
L 689.282759 138828.57348 
L 688.106897 138828.57348 
L 686.931034 138828.57348 
L 685.755172 138828.57348 
L 684.57931 138828.57348 
L 683.403448 138828.57348 
L 682.227586 138828.57348 
L 681.051724 138828.57348 
L 679.875862 138828.57348 
L 678.7 138828.57348 
L 677.524138 138828.57348 
L 676.348276 138828.57348 
L 675.172414 138828.57348 
L 673.996552 138828.57348 
L 672.82069 138828.57348 
L 671.644828 138828.57348 
L 670.468966 138828.57348 
L 669.293103 138828.57348 
L 668.117241 138828.57348 
L 666.941379 138828.57348 
L 665.765517 138828.57348 
L 664.589655 138828.57348 
L 663.413793 138828.57348 
L 662.237931 138828.57348 
L 661.062069 138828.57348 
L 659.886207 138828.57348 
L 658.710345 138828.57348 
L 657.534483 138828.57348 
L 656.358621 138828.57348 
L 655.182759 138828.57348 
L 654.006897 138828.57348 
L 652.831034 138828.57348 
L 651.655172 138828.57348 
L 650.47931 138828.57348 
L 649.303448 138828.57348 
L 648.127586 138828.57348 
L 646.951724 138828.57348 
L 645.775862 138828.57348 
L 644.6 138828.57348 
L 643.424138 138828.57348 
L 642.248276 138828.57348 
L 641.072414 138828.57348 
L 639.896552 138828.57348 
L 638.72069 138828.57348 
L 637.544828 138828.57348 
L 636.368966 138828.57348 
L 635.193103 138828.57348 
L 634.017241 138828.57348 
L 632.841379 138828.57348 
L 631.665517 138828.57348 
L 630.489655 138828.57348 
L 629.313793 138828.57348 
L 628.137931 138828.57348 
L 626.962069 138828.57348 
L 625.786207 138828.57348 
L 624.610345 138828.57348 
L 623.434483 138828.57348 
L 622.258621 138828.57348 
L 621.082759 138828.57348 
L 619.906897 138828.57348 
L 618.731034 138828.57348 
L 617.555172 138828.57348 
L 616.37931 138828.57348 
L 615.203448 138828.57348 
L 614.027586 138828.57348 
L 612.851724 138828.57348 
L 611.675862 138828.57348 
L 610.5 138828.57348 
L 609.324138 138828.57348 
L 608.148276 138828.57348 
L 606.972414 138828.57348 
L 605.796552 138828.57348 
L 604.62069 138828.57348 
L 603.444828 138828.57348 
L 602.268966 138828.57348 
L 601.093103 138828.57348 
L 599.917241 138828.57348 
L 598.741379 138828.57348 
L 597.565517 138828.57348 
L 596.389655 138828.57348 
L 595.213793 138828.57348 
L 594.037931 138828.57348 
L 592.862069 138828.57348 
L 591.686207 138828.57348 
L 590.510345 138828.57348 
L 589.334483 138828.57348 
L 588.158621 138828.57348 
L 586.982759 138828.57348 
L 585.806897 138828.57348 
L 584.631034 138828.57348 
L 583.455172 138828.57348 
L 582.27931 138828.57348 
L 581.103448 138828.57348 
L 579.927586 138828.57348 
L 578.751724 138828.57348 
L 577.575862 138828.57348 
L 576.4 138828.57348 
L 575.224138 138828.57348 
L 574.048276 138828.57348 
L 572.872414 138828.57348 
L 571.696552 138828.57348 
L 570.52069 138828.57348 
L 569.344828 138828.57348 
L 568.168966 138828.57348 
L 566.993103 138828.57348 
L 565.817241 138828.57348 
L 564.641379 138828.57348 
L 563.465517 138828.57348 
L 562.289655 138828.57348 
L 561.113793 138828.57348 
L 559.937931 138828.57348 
L 558.762069 138828.57348 
L 557.586207 138828.57348 
L 556.410345 138828.57348 
L 555.234483 138828.57348 
L 554.058621 138828.57348 
L 552.882759 138828.57348 
L 551.706897 138828.57348 
L 550.531034 138828.57348 
L 549.355172 138828.57348 
L 548.17931 138828.57348 
L 547.003448 138828.57348 
L 545.827586 138828.57348 
L 544.651724 138828.57348 
L 543.475862 138828.57348 
L 542.3 138828.57348 
L 541.124138 138828.57348 
L 539.948276 138828.57348 
L 538.772414 138828.57348 
L 537.596552 138828.57348 
L 536.42069 138828.57348 
L 535.244828 138828.57348 
L 534.068966 138828.57348 
L 532.893103 138828.57348 
L 531.717241 138828.57348 
L 530.541379 138828.57348 
L 529.365517 138828.57348 
L 528.189655 138828.57348 
L 527.013793 138828.57348 
L 525.837931 138828.57348 
L 524.662069 138828.57348 
L 523.486207 138828.57348 
L 522.310345 138828.57348 
L 521.134483 138828.57348 
L 519.958621 138828.57348 
L 518.782759 138828.57348 
L 517.606897 138828.57348 
L 516.431034 138828.57348 
L 515.255172 138828.57348 
L 514.07931 138828.57348 
L 512.903448 138828.57348 
L 511.727586 138828.57348 
L 510.551724 138828.57348 
L 509.375862 138828.57348 
L 508.2 138828.57348 
L 507.024138 138828.57348 
L 505.848276 138828.57348 
L 504.672414 138828.57348 
L 503.496552 138828.57348 
L 502.32069 138828.57348 
L 501.144828 138828.57348 
L 499.968966 138828.57348 
L 498.793103 138828.57348 
L 497.617241 138828.57348 
L 496.441379 138828.57348 
L 495.265517 138828.57348 
L 494.089655 138828.57348 
L 492.913793 487.943825 
L 491.737931 487.943825 
L 490.562069 487.943825 
L 489.386207 481.613415 
L 488.210345 481.613415 
L 487.034483 481.613415 
L 485.858621 443.048702 
L 484.682759 443.048702 
L 483.506897 443.048702 
L 482.331034 443.048702 
L 481.155172 487.943825 
L 479.97931 487.943825 
L 478.803448 487.943825 
L 477.627586 487.943825 
L 476.451724 487.943825 
L 475.275862 138828.57348 
L 474.1 138828.57348 
L 472.924138 138828.57348 
L 471.748276 138828.57348 
L 470.572414 138828.57348 
L 469.396552 138828.57348 
L 468.22069 138828.57348 
L 467.044828 138828.57348 
L 465.868966 138828.57348 
L 464.693103 138828.57348 
L 463.517241 138828.57348 
L 462.341379 138828.57348 
L 461.165517 138828.57348 
L 459.989655 138828.57348 
L 458.813793 138828.57348 
L 457.637931 138828.57348 
L 456.462069 138828.57348 
L 455.286207 138828.57348 
L 454.110345 138828.57348 
L 452.934483 138828.57348 
L 451.758621 138828.57348 
L 450.582759 138828.57348 
L 449.406897 138828.57348 
L 448.231034 138828.57348 
L 447.055172 138828.57348 
L 445.87931 138828.57348 
L 444.703448 138828.57348 
L 443.527586 138828.57348 
L 442.351724 138828.57348 
L 441.175862 138828.57348 
L 440 138828.57348 
L 438.824138 138828.57348 
L 437.648276 138828.57348 
L 436.472414 487.943825 
L 435.296552 487.943825 
L 434.12069 487.943825 
L 432.944828 138828.57348 
L 431.768966 138828.57348 
L 430.593103 138828.57348 
L 429.417241 138828.57348 
L 428.241379 138828.57348 
L 427.065517 138828.57348 
L 425.889655 138828.57348 
L 424.713793 138828.57348 
L 423.537931 138828.57348 
L 422.362069 138828.57348 
L 421.186207 138828.57348 
L 420.010345 138828.57348 
L 418.834483 138828.57348 
L 417.658621 138828.57348 
L 416.482759 138828.57348 
L 415.306897 138828.57348 
L 414.131034 138828.57348 
L 412.955172 138828.57348 
L 411.77931 138828.57348 
L 410.603448 138828.57348 
L 409.427586 138828.57348 
L 408.251724 138828.57348 
L 407.075862 138828.57348 
L 405.9 138828.57348 
L 404.724138 138828.57348 
L 403.548276 138828.57348 
L 402.372414 138828.57348 
L 401.196552 138828.57348 
L 400.02069 138828.57348 
L 398.844828 138828.57348 
L 397.668966 138828.57348 
L 396.493103 138828.57348 
L 395.317241 138828.57348 
L 394.141379 138828.57348 
L 392.965517 138828.57348 
L 391.789655 138828.57348 
L 390.613793 138828.57348 
L 389.437931 138828.57348 
L 388.262069 138828.57348 
L 387.086207 138828.57348 
L 385.910345 138828.57348 
L 384.734483 138828.57348 
L 383.558621 138828.57348 
L 382.382759 138828.57348 
L 381.206897 138828.57348 
L 380.031034 487.943825 
L 378.855172 487.943825 
L 377.67931 487.943825 
L 376.503448 487.943825 
L 375.327586 481.613415 
L 374.151724 481.613415 
L 372.975862 481.613415 
L 371.8 481.613415 
L 370.624138 481.613415 
L 369.448276 481.613415 
L 368.272414 481.613415 
L 367.096552 481.613415 
L 365.92069 481.613415 
L 364.744828 481.613415 
L 363.568966 481.613415 
L 362.393103 481.613415 
L 361.217241 481.613415 
L 360.041379 443.048702 
L 358.865517 443.048702 
L 357.689655 443.048702 
L 356.513793 443.048702 
L 355.337931 443.048702 
L 354.162069 443.048702 
L 352.986207 443.048702 
L 351.810345 439.96683 
L 350.634483 439.96683 
L 349.458621 443.048702 
L 348.282759 443.048702 
L 347.106897 487.943825 
L 345.931034 138828.57348 
L 344.755172 138828.57348 
L 343.57931 138828.57348 
L 342.403448 138828.57348 
L 341.227586 138828.57348 
L 340.051724 138828.57348 
L 338.875862 138828.57348 
L 337.7 138828.57348 
L 336.524138 138828.57348 
L 335.348276 138828.57348 
L 334.172414 138828.57348 
L 332.996552 487.943825 
L 331.82069 481.613415 
L 330.644828 481.613415 
L 329.468966 481.613415 
L 328.293103 481.613415 
L 327.117241 481.613415 
L 325.941379 481.613415 
L 324.765517 481.613415 
L 323.589655 443.048702 
L 322.413793 481.613415 
L 321.237931 443.048702 
L 320.062069 443.048702 
L 318.886207 443.048702 
L 317.710345 443.048702 
L 316.534483 481.613415 
L 315.358621 443.048702 
L 314.182759 443.048702 
L 313.006897 481.613415 
L 311.831034 481.613415 
L 310.655172 481.613415 
L 309.47931 481.613415 
L 308.303448 481.613415 
L 307.127586 481.613415 
L 305.951724 487.943825 
L 304.775862 138828.57348 
L 303.6 138828.57348 
L 302.424138 138828.57348 
L 301.248276 138828.57348 
L 300.072414 138828.57348 
L 298.896552 138828.57348 
L 297.72069 138828.57348 
L 296.544828 138828.57348 
L 295.368966 138828.57348 
L 294.193103 138828.57348 
L 293.017241 138828.57348 
L 291.841379 138828.57348 
L 290.665517 138828.57348 
L 289.489655 138828.57348 
L 288.313793 138828.57348 
L 287.137931 138828.57348 
L 285.962069 138828.57348 
L 284.786207 138828.57348 
L 283.610345 138828.57348 
L 282.434483 138828.57348 
L 281.258621 138828.57348 
L 280.082759 138828.57348 
L 278.906897 138828.57348 
L 277.731034 138828.57348 
L 276.555172 138828.57348 
L 275.37931 138828.57348 
L 274.203448 138828.57348 
L 273.027586 138828.57348 
L 271.851724 138828.57348 
L 270.675862 138828.57348 
L 269.5 138828.57348 
L 268.324138 138828.57348 
L 267.148276 138828.57348 
L 265.972414 138828.57348 
L 264.796552 138828.57348 
L 263.62069 138828.57348 
L 262.444828 138828.57348 
L 261.268966 138828.57348 
L 260.093103 138828.57348 
L 258.917241 138828.57348 
L 257.741379 138828.57348 
L 256.565517 138828.57348 
L 255.389655 138828.57348 
L 254.213793 138828.57348 
L 253.037931 138828.57348 
L 251.862069 138828.57348 
L 250.686207 138828.57348 
L 249.510345 138828.57348 
L 248.334483 138828.57348 
L 247.158621 138828.57348 
L 245.982759 138828.57348 
L 244.806897 138828.57348 
L 243.631034 138828.57348 
L 242.455172 138828.57348 
L 241.27931 138828.57348 
L 240.103448 138828.57348 
L 238.927586 138828.57348 
L 237.751724 138828.57348 
L 236.575862 138828.57348 
L 235.4 138828.57348 
L 234.224138 138828.57348 
L 233.048276 138828.57348 
L 231.872414 138828.57348 
L 230.696552 138828.57348 
L 229.52069 138828.57348 
L 228.344828 138828.57348 
L 227.168966 138828.57348 
L 225.993103 138828.57348 
L 224.817241 138828.57348 
L 223.641379 138828.57348 
L 222.465517 138828.57348 
L 221.289655 138828.57348 
L 220.113793 138828.57348 
L 218.937931 138828.57348 
L 217.762069 138828.57348 
L 216.586207 138828.57348 
L 215.410345 138828.57348 
L 214.234483 138828.57348 
L 213.058621 138828.57348 
L 211.882759 138828.57348 
L 210.706897 138828.57348 
L 209.531034 138828.57348 
L 208.355172 138828.57348 
L 207.17931 138828.57348 
L 206.003448 138828.57348 
L 204.827586 138828.57348 
L 203.651724 138828.57348 
L 202.475862 138828.57348 
L 201.3 138828.57348 
L 200.124138 138828.57348 
L 198.948276 138828.57348 
L 197.772414 138828.57348 
L 196.596552 138828.57348 
L 195.42069 138828.57348 
L 194.244828 138828.57348 
L 193.068966 138828.57348 
L 191.893103 138828.57348 
L 190.717241 138828.57348 
L 189.541379 138828.57348 
L 188.365517 138828.57348 
L 187.189655 138828.57348 
L 186.013793 138828.57348 
L 184.837931 138828.57348 
L 183.662069 138828.57348 
L 182.486207 138828.57348 
L 181.310345 138828.57348 
L 180.134483 138828.57348 
L 178.958621 138828.57348 
L 177.782759 138828.57348 
L 176.606897 138828.57348 
L 175.431034 138828.57348 
L 174.255172 138828.57348 
L 173.07931 138828.57348 
L 171.903448 138828.57348 
L 170.727586 138828.57348 
L 169.551724 138828.57348 
L 168.375862 138828.57348 
L 167.2 138828.57348 
L 166.024138 138828.57348 
L 164.848276 138828.57348 
L 163.672414 138828.57348 
L 162.496552 138828.57348 
L 161.32069 138828.57348 
L 160.144828 138828.57348 
L 158.968966 138828.57348 
L 157.793103 138828.57348 
L 156.617241 138828.57348 
L 155.441379 138828.57348 
L 154.265517 138828.57348 
L 153.089655 138828.57348 
L 151.913793 138828.57348 
L 150.737931 138828.57348 
L 149.562069 138828.57348 
L 148.386207 138828.57348 
L 147.210345 138828.57348 
L 146.034483 138828.57348 
L 144.858621 138828.57348 
L 143.682759 138828.57348 
L 142.506897 138828.57348 
L 141.331034 138828.57348 
L 140.155172 138828.57348 
L 138.97931 138828.57348 
L 137.803448 138828.57348 
L 136.627586 138828.57348 
L 135.451724 138828.57348 
L 134.275862 138828.57348 
L 133.1 138828.57348 
L 131.924138 138828.57348 
L 130.748276 138828.57348 
L 129.572414 138828.57348 
L 128.396552 138828.57348 
L 127.22069 138828.57348 
L 126.044828 138828.57348 
L 124.868966 138828.57348 
L 123.693103 138828.57348 
L 122.517241 138828.57348 
L 121.341379 138828.57348 
L 120.165517 138828.57348 
L 118.989655 138828.57348 
L 117.813793 138828.57348 
L 116.637931 138828.57348 
L 115.462069 138828.57348 
L 114.286207 138828.57348 
L 113.110345 138828.57348 
L 111.934483 138828.57348 
L 110.758621 138828.57348 
L 109.582759 138828.57348 
L 108.406897 138828.57348 
L 107.231034 138828.57348 
L 106.055172 138828.57348 
L 104.87931 138828.57348 
L 103.703448 138828.57348 
L 102.527586 138828.57348 
L 101.351724 138828.57348 
L 100.175862 138828.57348 
L 99 138828.57348 
z
" style="fill:#ff8080;fill-opacity:0.5;stroke:#ff8080;stroke-opacity:0.5;"/>
   </g>
   <g id="matplotlib.axis_1">
    <g id="xtick_1">
     <g id="line2d_1">
      <path clip-path="url(#p68e2955192)" d="M 99 544.68 
L 99 73.44 
" style="fill:none;stroke:#b0b0b0;stroke-linecap:square;stroke-width:0.8;"/>
     </g>
     <g id="line2d_2">
      <defs>
       <path d="M 0 0 
L 0 3.5 
" id="m4abed1d830" style="stroke:#000000;stroke-width:0.8;"/>
      </defs>
      <g>
       <use style="stroke:#000000;stroke-width:0.8;" x="99" xlink:href="#m4abed1d830" y="544.68"/>
      </g>
     </g>
    </g>
    <g id="xtick_2">
     <g id="line2d_3">
      <path clip-path="url(#p68e2955192)" d="M 129.572414 544.68 
L 129.572414 73.44 
" style="fill:none;stroke:#b0b0b0;stroke-linecap:square;stroke-width:0.8;"/>
     </g>
     <g id="line2d_4">
      <g>
       <use style="stroke:#000000;stroke-width:0.8;" x="129.572414" xlink:href="#m4abed1d830" y="544.68"/>
      </g>
     </g>
     <g id="text_1">
      <!-- Apr -->
      <g transform="translate(120.922414 559.278437)scale(0.1 -0.1)">
       <defs>
        <path d="M 2188 4044 
L 1331 1722 
L 3047 1722 
L 2188 4044 
z
M 1831 4666 
L 2547 4666 
L 4325 0 
L 3669 0 
L 3244 1197 
L 1141 1197 
L 716 0 
L 50 0 
L 1831 4666 
z
" id="DejaVuSans-41" transform="scale(0.015625)"/>
        <path d="M 1159 525 
L 1159 -1331 
L 581 -1331 
L 581 3500 
L 1159 3500 
L 1159 2969 
Q 1341 3281 1617 3432 
Q 1894 3584 2278 3584 
Q 2916 3584 3314 3078 
Q 3713 2572 3713 1747 
Q 3713 922 3314 415 
Q 2916 -91 2278 -91 
Q 1894 -91 1617 61 
Q 1341 213 1159 525 
z
M 3116 1747 
Q 3116 2381 2855 2742 
Q 2594 3103 2138 3103 
Q 1681 3103 1420 2742 
Q 1159 2381 1159 1747 
Q 1159 1113 1420 752 
Q 1681 391 2138 391 
Q 2594 391 2855 752 
Q 3116 1113 3116 1747 
z
" id="DejaVuSans-70" transform="scale(0.015625)"/>
        <path d="M 2631 2963 
Q 2534 3019 2420 3045 
Q 2306 3072 2169 3072 
Q 1681 3072 1420 2755 
Q 1159 2438 1159 1844 
L 1159 0 
L 581 0 
L 581 3500 
L 1159 3500 
L 1159 2956 
Q 1341 3275 1631 3429 
Q 1922 3584 2338 3584 
Q 2397 3584 2469 3576 
Q 2541 3569 2628 3553 
L 2631 2963 
z
" id="DejaVuSans-72" transform="scale(0.015625)"/>
       </defs>
       <use xlink:href="#DejaVuSans-41"/>
       <use x="68.408203" xlink:href="#DejaVuSans-70"/>
       <use x="131.884766" xlink:href="#DejaVuSans-72"/>
      </g>
     </g>
    </g>
    <g id="xtick_3">
     <g id="line2d_5">
      <path clip-path="url(#p68e2955192)" d="M 236.575862 544.68 
L 236.575862 73.44 
" style="fill:none;stroke:#b0b0b0;stroke-linecap:square;stroke-width:0.8;"/>
     </g>
     <g id="line2d_6">
      <g>
       <use style="stroke:#000000;stroke-width:0.8;" x="236.575862" xlink:href="#m4abed1d830" y="544.68"/>
      </g>
     </g>
     <g id="text_2">
      <!-- Jul -->
      <g transform="translate(230.54305 559.278437)scale(0.1 -0.1)">
       <defs>
        <path d="M 628 4666 
L 1259 4666 
L 1259 325 
Q 1259 -519 939 -900 
Q 619 -1281 -91 -1281 
L -331 -1281 
L -331 -750 
L -134 -750 
Q 284 -750 456 -515 
Q 628 -281 628 325 
L 628 4666 
z
" id="DejaVuSans-4a" transform="scale(0.015625)"/>
        <path d="M 544 1381 
L 544 3500 
L 1119 3500 
L 1119 1403 
Q 1119 906 1312 657 
Q 1506 409 1894 409 
Q 2359 409 2629 706 
Q 2900 1003 2900 1516 
L 2900 3500 
L 3475 3500 
L 3475 0 
L 2900 0 
L 2900 538 
Q 2691 219 2414 64 
Q 2138 -91 1772 -91 
Q 1169 -91 856 284 
Q 544 659 544 1381 
z
M 1991 3584 
L 1991 3584 
z
" id="DejaVuSans-75" transform="scale(0.015625)"/>
        <path d="M 603 4863 
L 1178 4863 
L 1178 0 
L 603 0 
L 603 4863 
z
" id="DejaVuSans-6c" transform="scale(0.015625)"/>
       </defs>
       <use xlink:href="#DejaVuSans-4a"/>
       <use x="29.492188" xlink:href="#DejaVuSans-75"/>
       <use x="92.871094" xlink:href="#DejaVuSans-6c"/>
      </g>
     </g>
    </g>
    <g id="xtick_4">
     <g id="line2d_7">
      <path clip-path="url(#p68e2955192)" d="M 344.755172 544.68 
L 344.755172 73.44 
" style="fill:none;stroke:#b0b0b0;stroke-linecap:square;stroke-width:0.8;"/>
     </g>
     <g id="line2d_8">
      <g>
       <use style="stroke:#000000;stroke-width:0.8;" x="344.755172" xlink:href="#m4abed1d830" y="544.68"/>
      </g>
     </g>
     <g id="text_3">
      <!-- Oct -->
      <g transform="translate(336.10986 559.278437)scale(0.1 -0.1)">
       <defs>
        <path d="M 2522 4238 
Q 1834 4238 1429 3725 
Q 1025 3213 1025 2328 
Q 1025 1447 1429 934 
Q 1834 422 2522 422 
Q 3209 422 3611 934 
Q 4013 1447 4013 2328 
Q 4013 3213 3611 3725 
Q 3209 4238 2522 4238 
z
M 2522 4750 
Q 3503 4750 4090 4092 
Q 4678 3434 4678 2328 
Q 4678 1225 4090 567 
Q 3503 -91 2522 -91 
Q 1538 -91 948 565 
Q 359 1222 359 2328 
Q 359 3434 948 4092 
Q 1538 4750 2522 4750 
z
" id="DejaVuSans-4f" transform="scale(0.015625)"/>
        <path d="M 3122 3366 
L 3122 2828 
Q 2878 2963 2633 3030 
Q 2388 3097 2138 3097 
Q 1578 3097 1268 2742 
Q 959 2388 959 1747 
Q 959 1106 1268 751 
Q 1578 397 2138 397 
Q 2388 397 2633 464 
Q 2878 531 3122 666 
L 3122 134 
Q 2881 22 2623 -34 
Q 2366 -91 2075 -91 
Q 1284 -91 818 406 
Q 353 903 353 1747 
Q 353 2603 823 3093 
Q 1294 3584 2113 3584 
Q 2378 3584 2631 3529 
Q 2884 3475 3122 3366 
z
" id="DejaVuSans-63" transform="scale(0.015625)"/>
        <path d="M 1172 4494 
L 1172 3500 
L 2356 3500 
L 2356 3053 
L 1172 3053 
L 1172 1153 
Q 1172 725 1289 603 
Q 1406 481 1766 481 
L 2356 481 
L 2356 0 
L 1766 0 
Q 1100 0 847 248 
Q 594 497 594 1153 
L 594 3053 
L 172 3053 
L 172 3500 
L 594 3500 
L 594 4494 
L 1172 4494 
z
" id="DejaVuSans-74" transform="scale(0.015625)"/>
       </defs>
       <use xlink:href="#DejaVuSans-4f"/>
       <use x="78.710938" xlink:href="#DejaVuSans-63"/>
       <use x="133.691406" xlink:href="#DejaVuSans-74"/>
      </g>
     </g>
    </g>
    <g id="xtick_5">
     <g id="line2d_9">
      <path clip-path="url(#p68e2955192)" d="M 452.934483 544.68 
L 452.934483 73.44 
" style="fill:none;stroke:#b0b0b0;stroke-linecap:square;stroke-width:0.8;"/>
     </g>
     <g id="line2d_10">
      <g>
       <use style="stroke:#000000;stroke-width:0.8;" x="452.934483" xlink:href="#m4abed1d830" y="544.68"/>
      </g>
     </g>
     <g id="text_4">
      <!-- Jan -->
      <g transform="translate(445.22667 559.278437)scale(0.1 -0.1)">
       <defs>
        <path d="M 2194 1759 
Q 1497 1759 1228 1600 
Q 959 1441 959 1056 
Q 959 750 1161 570 
Q 1363 391 1709 391 
Q 2188 391 2477 730 
Q 2766 1069 2766 1631 
L 2766 1759 
L 2194 1759 
z
M 3341 1997 
L 3341 0 
L 2766 0 
L 2766 531 
Q 2569 213 2275 61 
Q 1981 -91 1556 -91 
Q 1019 -91 701 211 
Q 384 513 384 1019 
Q 384 1609 779 1909 
Q 1175 2209 1959 2209 
L 2766 2209 
L 2766 2266 
Q 2766 2663 2505 2880 
Q 2244 3097 1772 3097 
Q 1472 3097 1187 3025 
Q 903 2953 641 2809 
L 641 3341 
Q 956 3463 1253 3523 
Q 1550 3584 1831 3584 
Q 2591 3584 2966 3190 
Q 3341 2797 3341 1997 
z
" id="DejaVuSans-61" transform="scale(0.015625)"/>
        <path d="M 3513 2113 
L 3513 0 
L 2938 0 
L 2938 2094 
Q 2938 2591 2744 2837 
Q 2550 3084 2163 3084 
Q 1697 3084 1428 2787 
Q 1159 2491 1159 1978 
L 1159 0 
L 581 0 
L 581 3500 
L 1159 3500 
L 1159 2956 
Q 1366 3272 1645 3428 
Q 1925 3584 2291 3584 
Q 2894 3584 3203 3211 
Q 3513 2838 3513 2113 
z
" id="DejaVuSans-6e" transform="scale(0.015625)"/>
       </defs>
       <use xlink:href="#DejaVuSans-4a"/>
       <use x="29.492188" xlink:href="#DejaVuSans-61"/>
       <use x="90.771484" xlink:href="#DejaVuSans-6e"/>
      </g>
      <!-- 2021 -->
      <g transform="translate(440.209483 570.47625)scale(0.1 -0.1)">
       <defs>
        <path d="M 1228 531 
L 3431 531 
L 3431 0 
L 469 0 
L 469 531 
Q 828 903 1448 1529 
Q 2069 2156 2228 2338 
Q 2531 2678 2651 2914 
Q 2772 3150 2772 3378 
Q 2772 3750 2511 3984 
Q 2250 4219 1831 4219 
Q 1534 4219 1204 4116 
Q 875 4013 500 3803 
L 500 4441 
Q 881 4594 1212 4672 
Q 1544 4750 1819 4750 
Q 2544 4750 2975 4387 
Q 3406 4025 3406 3419 
Q 3406 3131 3298 2873 
Q 3191 2616 2906 2266 
Q 2828 2175 2409 1742 
Q 1991 1309 1228 531 
z
" id="DejaVuSans-32" transform="scale(0.015625)"/>
        <path d="M 2034 4250 
Q 1547 4250 1301 3770 
Q 1056 3291 1056 2328 
Q 1056 1369 1301 889 
Q 1547 409 2034 409 
Q 2525 409 2770 889 
Q 3016 1369 3016 2328 
Q 3016 3291 2770 3770 
Q 2525 4250 2034 4250 
z
M 2034 4750 
Q 2819 4750 3233 4129 
Q 3647 3509 3647 2328 
Q 3647 1150 3233 529 
Q 2819 -91 2034 -91 
Q 1250 -91 836 529 
Q 422 1150 422 2328 
Q 422 3509 836 4129 
Q 1250 4750 2034 4750 
z
" id="DejaVuSans-30" transform="scale(0.015625)"/>
        <path d="M 794 531 
L 1825 531 
L 1825 4091 
L 703 3866 
L 703 4441 
L 1819 4666 
L 2450 4666 
L 2450 531 
L 3481 531 
L 3481 0 
L 794 0 
L 794 531 
z
" id="DejaVuSans-31" transform="scale(0.015625)"/>
       </defs>
       <use xlink:href="#DejaVuSans-32"/>
       <use x="63.623047" xlink:href="#DejaVuSans-30"/>
       <use x="127.246094" xlink:href="#DejaVuSans-32"/>
       <use x="190.869141" xlink:href="#DejaVuSans-31"/>
      </g>
     </g>
    </g>
    <g id="xtick_6">
     <g id="line2d_11">
      <path clip-path="url(#p68e2955192)" d="M 558.762069 544.68 
L 558.762069 73.44 
" style="fill:none;stroke:#b0b0b0;stroke-linecap:square;stroke-width:0.8;"/>
     </g>
     <g id="line2d_12">
      <g>
       <use style="stroke:#000000;stroke-width:0.8;" x="558.762069" xlink:href="#m4abed1d830" y="544.68"/>
      </g>
     </g>
     <g id="text_5">
      <!-- Apr -->
      <g transform="translate(550.112069 559.278437)scale(0.1 -0.1)">
       <use xlink:href="#DejaVuSans-41"/>
       <use x="68.408203" xlink:href="#DejaVuSans-70"/>
       <use x="131.884766" xlink:href="#DejaVuSans-72"/>
      </g>
     </g>
    </g>
    <g id="xtick_7">
     <g id="line2d_13">
      <path clip-path="url(#p68e2955192)" d="M 665.765517 544.68 
L 665.765517 73.44 
" style="fill:none;stroke:#b0b0b0;stroke-linecap:square;stroke-width:0.8;"/>
     </g>
     <g id="line2d_14">
      <g>
       <use style="stroke:#000000;stroke-width:0.8;" x="665.765517" xlink:href="#m4abed1d830" y="544.68"/>
      </g>
     </g>
     <g id="text_6">
      <!-- Jul -->
      <g transform="translate(659.732705 559.278437)scale(0.1 -0.1)">
       <use xlink:href="#DejaVuSans-4a"/>
       <use x="29.492188" xlink:href="#DejaVuSans-75"/>
       <use x="92.871094" xlink:href="#DejaVuSans-6c"/>
      </g>
     </g>
    </g>
    <g id="xtick_8">
     <g id="line2d_15">
      <path clip-path="url(#p68e2955192)" d="M 712.8 544.68 
L 712.8 73.44 
" style="fill:none;stroke:#b0b0b0;stroke-linecap:square;stroke-width:0.8;"/>
     </g>
     <g id="line2d_16">
      <g>
       <use style="stroke:#000000;stroke-width:0.8;" x="712.8" xlink:href="#m4abed1d830" y="544.68"/>
      </g>
     </g>
    </g>
    <g id="xtick_9">
     <g id="line2d_17">
      <defs>
       <path d="M 0 0 
L 0 2 
" id="mbe9820739d" style="stroke:#000000;stroke-width:0.6;"/>
      </defs>
      <g>
       <use style="stroke:#000000;stroke-width:0.6;" x="164.848276" xlink:href="#mbe9820739d" y="544.68"/>
      </g>
     </g>
    </g>
    <g id="xtick_10">
     <g id="line2d_18">
      <g>
       <use style="stroke:#000000;stroke-width:0.6;" x="201.3" xlink:href="#mbe9820739d" y="544.68"/>
      </g>
     </g>
    </g>
    <g id="xtick_11">
     <g id="line2d_19">
      <g>
       <use style="stroke:#000000;stroke-width:0.6;" x="273.027586" xlink:href="#mbe9820739d" y="544.68"/>
      </g>
     </g>
    </g>
    <g id="xtick_12">
     <g id="line2d_20">
      <g>
       <use style="stroke:#000000;stroke-width:0.6;" x="309.47931" xlink:href="#mbe9820739d" y="544.68"/>
      </g>
     </g>
    </g>
    <g id="xtick_13">
     <g id="line2d_21">
      <g>
       <use style="stroke:#000000;stroke-width:0.6;" x="381.206897" xlink:href="#mbe9820739d" y="544.68"/>
      </g>
     </g>
    </g>
    <g id="xtick_14">
     <g id="line2d_22">
      <g>
       <use style="stroke:#000000;stroke-width:0.6;" x="416.482759" xlink:href="#mbe9820739d" y="544.68"/>
      </g>
     </g>
    </g>
    <g id="xtick_15">
     <g id="line2d_23">
      <g>
       <use style="stroke:#000000;stroke-width:0.6;" x="489.386207" xlink:href="#mbe9820739d" y="544.68"/>
      </g>
     </g>
    </g>
    <g id="xtick_16">
     <g id="line2d_24">
      <g>
       <use style="stroke:#000000;stroke-width:0.6;" x="522.310345" xlink:href="#mbe9820739d" y="544.68"/>
      </g>
     </g>
    </g>
    <g id="xtick_17">
     <g id="line2d_25">
      <g>
       <use style="stroke:#000000;stroke-width:0.6;" x="594.037931" xlink:href="#mbe9820739d" y="544.68"/>
      </g>
     </g>
    </g>
    <g id="xtick_18">
     <g id="line2d_26">
      <g>
       <use style="stroke:#000000;stroke-width:0.6;" x="630.489655" xlink:href="#mbe9820739d" y="544.68"/>
      </g>
     </g>
    </g>
    <g id="xtick_19">
     <g id="line2d_27">
      <g>
       <use style="stroke:#000000;stroke-width:0.6;" x="702.217241" xlink:href="#mbe9820739d" y="544.68"/>
      </g>
     </g>
    </g>
    <g id="text_7">
     <!-- Date -->
     <g transform="translate(393.949219 584.154375)scale(0.1 -0.1)">
      <defs>
       <path d="M 1259 4147 
L 1259 519 
L 2022 519 
Q 2988 519 3436 956 
Q 3884 1394 3884 2338 
Q 3884 3275 3436 3711 
Q 2988 4147 2022 4147 
L 1259 4147 
z
M 628 4666 
L 1925 4666 
Q 3281 4666 3915 4102 
Q 4550 3538 4550 2338 
Q 4550 1131 3912 565 
Q 3275 0 1925 0 
L 628 0 
L 628 4666 
z
" id="DejaVuSans-44" transform="scale(0.015625)"/>
       <path d="M 3597 1894 
L 3597 1613 
L 953 1613 
Q 991 1019 1311 708 
Q 1631 397 2203 397 
Q 2534 397 2845 478 
Q 3156 559 3463 722 
L 3463 178 
Q 3153 47 2828 -22 
Q 2503 -91 2169 -91 
Q 1331 -91 842 396 
Q 353 884 353 1716 
Q 353 2575 817 3079 
Q 1281 3584 2069 3584 
Q 2775 3584 3186 3129 
Q 3597 2675 3597 1894 
z
M 3022 2063 
Q 3016 2534 2758 2815 
Q 2500 3097 2075 3097 
Q 1594 3097 1305 2825 
Q 1016 2553 972 2059 
L 3022 2063 
z
" id="DejaVuSans-65" transform="scale(0.015625)"/>
      </defs>
      <use xlink:href="#DejaVuSans-44"/>
      <use x="77.001953" xlink:href="#DejaVuSans-61"/>
      <use x="138.28125" xlink:href="#DejaVuSans-74"/>
      <use x="177.490234" xlink:href="#DejaVuSans-65"/>
     </g>
    </g>
   </g>
   <g id="matplotlib.axis_2">
    <g id="ytick_1">
     <g id="line2d_28">
      <path clip-path="url(#p68e2955192)" d="M 99 481.613415 
L 712.8 481.613415 
" style="fill:none;stroke:#b0b0b0;stroke-linecap:square;stroke-width:0.8;"/>
     </g>
     <g id="line2d_29">
      <defs>
       <path d="M 0 0 
L -3.5 0 
" id="me91a084207" style="stroke:#000000;stroke-width:0.8;"/>
      </defs>
      <g>
       <use style="stroke:#000000;stroke-width:0.8;" x="99" xlink:href="#me91a084207" y="481.613415"/>
      </g>
     </g>
     <g id="text_8">
      <!-- $\mathdefault{10^{0}}$ -->
      <g transform="translate(74.4 485.412634)scale(0.1 -0.1)">
       <use transform="translate(0 0.765625)" xlink:href="#DejaVuSans-31"/>
       <use transform="translate(63.623047 0.765625)" xlink:href="#DejaVuSans-30"/>
       <use transform="translate(128.203125 39.046875)scale(0.7)" xlink:href="#DejaVuSans-30"/>
      </g>
     </g>
    </g>
    <g id="ytick_2">
     <g id="line2d_30">
      <path clip-path="url(#p68e2955192)" d="M 99 343.266455 
L 712.8 343.266455 
" style="fill:none;stroke:#b0b0b0;stroke-linecap:square;stroke-width:0.8;"/>
     </g>
     <g id="line2d_31">
      <g>
       <use style="stroke:#000000;stroke-width:0.8;" x="99" xlink:href="#me91a084207" y="343.266455"/>
      </g>
     </g>
     <g id="text_9">
      <!-- $\mathdefault{10^{1}}$ -->
      <g transform="translate(74.4 347.065674)scale(0.1 -0.1)">
       <use transform="translate(0 0.684375)" xlink:href="#DejaVuSans-31"/>
       <use transform="translate(63.623047 0.684375)" xlink:href="#DejaVuSans-30"/>
       <use transform="translate(128.203125 38.965625)scale(0.7)" xlink:href="#DejaVuSans-31"/>
      </g>
     </g>
    </g>
    <g id="ytick_3">
     <g id="line2d_32">
      <path clip-path="url(#p68e2955192)" d="M 99 204.919495 
L 712.8 204.919495 
" style="fill:none;stroke:#b0b0b0;stroke-linecap:square;stroke-width:0.8;"/>
     </g>
     <g id="line2d_33">
      <g>
       <use style="stroke:#000000;stroke-width:0.8;" x="99" xlink:href="#me91a084207" y="204.919495"/>
      </g>
     </g>
     <g id="text_10">
      <!-- $\mathdefault{10^{2}}$ -->
      <g transform="translate(74.4 208.718714)scale(0.1 -0.1)">
       <use transform="translate(0 0.765625)" xlink:href="#DejaVuSans-31"/>
       <use transform="translate(63.623047 0.765625)" xlink:href="#DejaVuSans-30"/>
       <use transform="translate(128.203125 39.046875)scale(0.7)" xlink:href="#DejaVuSans-32"/>
      </g>
     </g>
    </g>
    <g id="ytick_4">
     <g id="line2d_34">
      <path clip-path="url(#p68e2955192)" d="M 99 536.667206 
L 712.8 536.667206 
" style="fill:none;stroke:#b0b0b0;stroke-linecap:square;stroke-width:0.8;"/>
     </g>
     <g id="line2d_35">
      <defs>
       <path d="M 0 0 
L -2 0 
" id="m0cb60b688e" style="stroke:#000000;stroke-width:0.6;"/>
      </defs>
      <g>
       <use style="stroke:#000000;stroke-width:0.6;" x="99" xlink:href="#m0cb60b688e" y="536.667206"/>
      </g>
     </g>
    </g>
    <g id="ytick_5">
     <g id="line2d_36">
      <path clip-path="url(#p68e2955192)" d="M 99 523.26 
L 712.8 523.26 
" style="fill:none;stroke:#b0b0b0;stroke-linecap:square;stroke-width:0.8;"/>
     </g>
     <g id="line2d_37">
      <g>
       <use style="stroke:#000000;stroke-width:0.6;" x="99" xlink:href="#m0cb60b688e" y="523.26"/>
      </g>
     </g>
    </g>
    <g id="ytick_6">
     <g id="line2d_38">
      <path clip-path="url(#p68e2955192)" d="M 99 512.305515 
L 712.8 512.305515 
" style="fill:none;stroke:#b0b0b0;stroke-linecap:square;stroke-width:0.8;"/>
     </g>
     <g id="line2d_39">
      <g>
       <use style="stroke:#000000;stroke-width:0.6;" x="99" xlink:href="#m0cb60b688e" y="512.305515"/>
      </g>
     </g>
    </g>
    <g id="ytick_7">
     <g id="line2d_40">
      <path clip-path="url(#p68e2955192)" d="M 99 503.04363 
L 712.8 503.04363 
" style="fill:none;stroke:#b0b0b0;stroke-linecap:square;stroke-width:0.8;"/>
     </g>
     <g id="line2d_41">
      <g>
       <use style="stroke:#000000;stroke-width:0.6;" x="99" xlink:href="#m0cb60b688e" y="503.04363"/>
      </g>
     </g>
    </g>
    <g id="ytick_8">
     <g id="line2d_42">
      <path clip-path="url(#p68e2955192)" d="M 99 495.020621 
L 712.8 495.020621 
" style="fill:none;stroke:#b0b0b0;stroke-linecap:square;stroke-width:0.8;"/>
     </g>
     <g id="line2d_43">
      <g>
       <use style="stroke:#000000;stroke-width:0.6;" x="99" xlink:href="#m0cb60b688e" y="495.020621"/>
      </g>
     </g>
    </g>
    <g id="ytick_9">
     <g id="line2d_44">
      <path clip-path="url(#p68e2955192)" d="M 99 487.943825 
L 712.8 487.943825 
" style="fill:none;stroke:#b0b0b0;stroke-linecap:square;stroke-width:0.8;"/>
     </g>
     <g id="line2d_45">
      <g>
       <use style="stroke:#000000;stroke-width:0.6;" x="99" xlink:href="#m0cb60b688e" y="487.943825"/>
      </g>
     </g>
    </g>
    <g id="ytick_10">
     <g id="line2d_46">
      <path clip-path="url(#p68e2955192)" d="M 99 439.96683 
L 712.8 439.96683 
" style="fill:none;stroke:#b0b0b0;stroke-linecap:square;stroke-width:0.8;"/>
     </g>
     <g id="line2d_47">
      <g>
       <use style="stroke:#000000;stroke-width:0.6;" x="99" xlink:href="#m0cb60b688e" y="439.96683"/>
      </g>
     </g>
    </g>
    <g id="ytick_11">
     <g id="line2d_48">
      <path clip-path="url(#p68e2955192)" d="M 99 415.60514 
L 712.8 415.60514 
" style="fill:none;stroke:#b0b0b0;stroke-linecap:square;stroke-width:0.8;"/>
     </g>
     <g id="line2d_49">
      <g>
       <use style="stroke:#000000;stroke-width:0.6;" x="99" xlink:href="#m0cb60b688e" y="415.60514"/>
      </g>
     </g>
    </g>
    <g id="ytick_12">
     <g id="line2d_50">
      <path clip-path="url(#p68e2955192)" d="M 99 398.320246 
L 712.8 398.320246 
" style="fill:none;stroke:#b0b0b0;stroke-linecap:square;stroke-width:0.8;"/>
     </g>
     <g id="line2d_51">
      <g>
       <use style="stroke:#000000;stroke-width:0.6;" x="99" xlink:href="#m0cb60b688e" y="398.320246"/>
      </g>
     </g>
    </g>
    <g id="ytick_13">
     <g id="line2d_52">
      <path clip-path="url(#p68e2955192)" d="M 99 384.91304 
L 712.8 384.91304 
" style="fill:none;stroke:#b0b0b0;stroke-linecap:square;stroke-width:0.8;"/>
     </g>
     <g id="line2d_53">
      <g>
       <use style="stroke:#000000;stroke-width:0.6;" x="99" xlink:href="#m0cb60b688e" y="384.91304"/>
      </g>
     </g>
    </g>
    <g id="ytick_14">
     <g id="line2d_54">
      <path clip-path="url(#p68e2955192)" d="M 99 373.958555 
L 712.8 373.958555 
" style="fill:none;stroke:#b0b0b0;stroke-linecap:square;stroke-width:0.8;"/>
     </g>
     <g id="line2d_55">
      <g>
       <use style="stroke:#000000;stroke-width:0.6;" x="99" xlink:href="#m0cb60b688e" y="373.958555"/>
      </g>
     </g>
    </g>
    <g id="ytick_15">
     <g id="line2d_56">
      <path clip-path="url(#p68e2955192)" d="M 99 364.69667 
L 712.8 364.69667 
" style="fill:none;stroke:#b0b0b0;stroke-linecap:square;stroke-width:0.8;"/>
     </g>
     <g id="line2d_57">
      <g>
       <use style="stroke:#000000;stroke-width:0.6;" x="99" xlink:href="#m0cb60b688e" y="364.69667"/>
      </g>
     </g>
    </g>
    <g id="ytick_16">
     <g id="line2d_58">
      <path clip-path="url(#p68e2955192)" d="M 99 356.673661 
L 712.8 356.673661 
" style="fill:none;stroke:#b0b0b0;stroke-linecap:square;stroke-width:0.8;"/>
     </g>
     <g id="line2d_59">
      <g>
       <use style="stroke:#000000;stroke-width:0.6;" x="99" xlink:href="#m0cb60b688e" y="356.673661"/>
      </g>
     </g>
    </g>
    <g id="ytick_17">
     <g id="line2d_60">
      <path clip-path="url(#p68e2955192)" d="M 99 349.596865 
L 712.8 349.596865 
" style="fill:none;stroke:#b0b0b0;stroke-linecap:square;stroke-width:0.8;"/>
     </g>
     <g id="line2d_61">
      <g>
       <use style="stroke:#000000;stroke-width:0.6;" x="99" xlink:href="#m0cb60b688e" y="349.596865"/>
      </g>
     </g>
    </g>
    <g id="ytick_18">
     <g id="line2d_62">
      <path clip-path="url(#p68e2955192)" d="M 99 301.61987 
L 712.8 301.61987 
" style="fill:none;stroke:#b0b0b0;stroke-linecap:square;stroke-width:0.8;"/>
     </g>
     <g id="line2d_63">
      <g>
       <use style="stroke:#000000;stroke-width:0.6;" x="99" xlink:href="#m0cb60b688e" y="301.61987"/>
      </g>
     </g>
    </g>
    <g id="ytick_19">
     <g id="line2d_64">
      <path clip-path="url(#p68e2955192)" d="M 99 277.25818 
L 712.8 277.25818 
" style="fill:none;stroke:#b0b0b0;stroke-linecap:square;stroke-width:0.8;"/>
     </g>
     <g id="line2d_65">
      <g>
       <use style="stroke:#000000;stroke-width:0.6;" x="99" xlink:href="#m0cb60b688e" y="277.25818"/>
      </g>
     </g>
    </g>
    <g id="ytick_20">
     <g id="line2d_66">
      <path clip-path="url(#p68e2955192)" d="M 99 259.973286 
L 712.8 259.973286 
" style="fill:none;stroke:#b0b0b0;stroke-linecap:square;stroke-width:0.8;"/>
     </g>
     <g id="line2d_67">
      <g>
       <use style="stroke:#000000;stroke-width:0.6;" x="99" xlink:href="#m0cb60b688e" y="259.973286"/>
      </g>
     </g>
    </g>
    <g id="ytick_21">
     <g id="line2d_68">
      <path clip-path="url(#p68e2955192)" d="M 99 246.56608 
L 712.8 246.56608 
" style="fill:none;stroke:#b0b0b0;stroke-linecap:square;stroke-width:0.8;"/>
     </g>
     <g id="line2d_69">
      <g>
       <use style="stroke:#000000;stroke-width:0.6;" x="99" xlink:href="#m0cb60b688e" y="246.56608"/>
      </g>
     </g>
    </g>
    <g id="ytick_22">
     <g id="line2d_70">
      <path clip-path="url(#p68e2955192)" d="M 99 235.611595 
L 712.8 235.611595 
" style="fill:none;stroke:#b0b0b0;stroke-linecap:square;stroke-width:0.8;"/>
     </g>
     <g id="line2d_71">
      <g>
       <use style="stroke:#000000;stroke-width:0.6;" x="99" xlink:href="#m0cb60b688e" y="235.611595"/>
      </g>
     </g>
    </g>
    <g id="ytick_23">
     <g id="line2d_72">
      <path clip-path="url(#p68e2955192)" d="M 99 226.34971 
L 712.8 226.34971 
" style="fill:none;stroke:#b0b0b0;stroke-linecap:square;stroke-width:0.8;"/>
     </g>
     <g id="line2d_73">
      <g>
       <use style="stroke:#000000;stroke-width:0.6;" x="99" xlink:href="#m0cb60b688e" y="226.34971"/>
      </g>
     </g>
    </g>
    <g id="ytick_24">
     <g id="line2d_74">
      <path clip-path="url(#p68e2955192)" d="M 99 218.326701 
L 712.8 218.326701 
" style="fill:none;stroke:#b0b0b0;stroke-linecap:square;stroke-width:0.8;"/>
     </g>
     <g id="line2d_75">
      <g>
       <use style="stroke:#000000;stroke-width:0.6;" x="99" xlink:href="#m0cb60b688e" y="218.326701"/>
      </g>
     </g>
    </g>
    <g id="ytick_25">
     <g id="line2d_76">
      <path clip-path="url(#p68e2955192)" d="M 99 211.249905 
L 712.8 211.249905 
" style="fill:none;stroke:#b0b0b0;stroke-linecap:square;stroke-width:0.8;"/>
     </g>
     <g id="line2d_77">
      <g>
       <use style="stroke:#000000;stroke-width:0.6;" x="99" xlink:href="#m0cb60b688e" y="211.249905"/>
      </g>
     </g>
    </g>
    <g id="ytick_26">
     <g id="line2d_78">
      <path clip-path="url(#p68e2955192)" d="M 99 163.27291 
L 712.8 163.27291 
" style="fill:none;stroke:#b0b0b0;stroke-linecap:square;stroke-width:0.8;"/>
     </g>
     <g id="line2d_79">
      <g>
       <use style="stroke:#000000;stroke-width:0.6;" x="99" xlink:href="#m0cb60b688e" y="163.27291"/>
      </g>
     </g>
    </g>
    <g id="ytick_27">
     <g id="line2d_80">
      <path clip-path="url(#p68e2955192)" d="M 99 138.91122 
L 712.8 138.91122 
" style="fill:none;stroke:#b0b0b0;stroke-linecap:square;stroke-width:0.8;"/>
     </g>
     <g id="line2d_81">
      <g>
       <use style="stroke:#000000;stroke-width:0.6;" x="99" xlink:href="#m0cb60b688e" y="138.91122"/>
      </g>
     </g>
    </g>
    <g id="ytick_28">
     <g id="line2d_82">
      <path clip-path="url(#p68e2955192)" d="M 99 121.626326 
L 712.8 121.626326 
" style="fill:none;stroke:#b0b0b0;stroke-linecap:square;stroke-width:0.8;"/>
     </g>
     <g id="line2d_83">
      <g>
       <use style="stroke:#000000;stroke-width:0.6;" x="99" xlink:href="#m0cb60b688e" y="121.626326"/>
      </g>
     </g>
    </g>
    <g id="ytick_29">
     <g id="line2d_84">
      <path clip-path="url(#p68e2955192)" d="M 99 108.21912 
L 712.8 108.21912 
" style="fill:none;stroke:#b0b0b0;stroke-linecap:square;stroke-width:0.8;"/>
     </g>
     <g id="line2d_85">
      <g>
       <use style="stroke:#000000;stroke-width:0.6;" x="99" xlink:href="#m0cb60b688e" y="108.21912"/>
      </g>
     </g>
    </g>
    <g id="ytick_30">
     <g id="line2d_86">
      <path clip-path="url(#p68e2955192)" d="M 99 97.264635 
L 712.8 97.264635 
" style="fill:none;stroke:#b0b0b0;stroke-linecap:square;stroke-width:0.8;"/>
     </g>
     <g id="line2d_87">
      <g>
       <use style="stroke:#000000;stroke-width:0.6;" x="99" xlink:href="#m0cb60b688e" y="97.264635"/>
      </g>
     </g>
    </g>
    <g id="ytick_31">
     <g id="line2d_88">
      <path clip-path="url(#p68e2955192)" d="M 99 88.00275 
L 712.8 88.00275 
" style="fill:none;stroke:#b0b0b0;stroke-linecap:square;stroke-width:0.8;"/>
     </g>
     <g id="line2d_89">
      <g>
       <use style="stroke:#000000;stroke-width:0.6;" x="99" xlink:href="#m0cb60b688e" y="88.00275"/>
      </g>
     </g>
    </g>
    <g id="ytick_32">
     <g id="line2d_90">
      <path clip-path="url(#p68e2955192)" d="M 99 79.979741 
L 712.8 79.979741 
" style="fill:none;stroke:#b0b0b0;stroke-linecap:square;stroke-width:0.8;"/>
     </g>
     <g id="line2d_91">
      <g>
       <use style="stroke:#000000;stroke-width:0.6;" x="99" xlink:href="#m0cb60b688e" y="79.979741"/>
      </g>
     </g>
    </g>
   </g>
   <g id="line2d_92">
    <path clip-path="url(#p68e2955192)" d="M 114.28509 613 
L 114.286207 481.613415 
L 115.462069 457.251725 
L 116.637931 439.96683 
L 117.813793 426.559625 
L 118.989655 415.60514 
L 120.165517 406.343255 
L 121.341379 391.24345 
L 122.517241 369.149324 
L 123.693103 349.596865 
L 124.868966 340.33498 
L 126.044828 337.539903 
L 127.22069 337.539903 
L 128.396552 332.31197 
L 129.572414 325.235174 
L 130.748276 311.384547 
L 131.924138 300.136256 
L 133.1 294.543074 
L 134.275862 294.543074 
L 135.451724 295.893318 
L 136.627586 291.930344 
L 137.803448 289.42651 
L 140.155172 289.42651 
L 141.331034 291.930344 
L 142.506897 293.222509 
L 143.682759 295.893318 
L 144.858621 295.893318 
L 146.034483 300.136256 
L 147.210345 307.95028 
L 148.386207 320.941683 
L 149.562069 320.941683 
L 150.737931 327.502739 
L 151.913793 329.859249 
L 153.089655 334.869093 
L 154.265517 343.266455 
L 155.441379 343.266455 
L 156.617241 360.55135 
L 157.793103 373.958555 
L 158.968966 379.186488 
L 160.144828 379.186488 
L 161.32069 391.24345 
L 162.496552 398.320246 
L 163.672414 398.320246 
L 164.848276 406.343255 
L 166.024138 426.559625 
L 167.2 439.96683 
L 171.903448 439.96683 
L 173.07931 457.251725 
L 174.255172 481.613415 
L 209.531034 481.613415 
L 210.706897 457.251725 
L 211.882759 439.96683 
L 214.234483 439.96683 
L 215.410345 426.559625 
L 216.586207 398.320246 
L 217.762069 379.186488 
L 220.113793 379.186488 
L 221.289655 369.149324 
L 223.641379 369.149324 
L 224.817241 360.55135 
L 227.168966 360.55135 
L 228.344828 346.348327 
L 229.52069 329.859249 
L 230.696552 329.859249 
L 231.872414 346.348327 
L 233.048276 329.859249 
L 234.224138 329.859249 
L 235.4 323.050086 
L 240.103448 323.050086 
L 241.27931 320.941683 
L 242.455172 320.941683 
L 243.631034 315.027076 
L 245.982759 297.274605 
L 247.158621 291.930344 
L 248.334483 290.665386 
L 249.510345 291.930344 
L 251.862069 291.930344 
L 253.037931 290.665386 
L 254.213793 290.665386 
L 255.389655 291.930344 
L 256.565517 294.543074 
L 260.093103 294.543074 
L 261.268966 297.274605 
L 264.796552 297.274605 
L 265.972414 291.930344 
L 267.148276 285.856154 
L 268.324138 282.486112 
L 269.5 282.486112 
L 271.851724 245.968231 
L 273.027586 239.222839 
L 274.203448 239.222839 
L 275.37931 235.112976 
L 276.555172 228.981517 
L 277.731034 219.463958 
L 278.906897 206.749585 
L 280.082759 196.522133 
L 281.258621 192.481396 
L 282.434483 187.559543 
L 283.610345 184.0628 
L 284.786207 184.0628 
L 285.962069 181.77165 
L 287.137931 179.959956 
L 288.313793 175.93373 
L 289.489655 167.471901 
L 290.665517 162.823967 
L 291.841379 167.311035 
L 293.017241 167.311035 
L 294.193103 162.823967 
L 295.368966 160.484661 
L 296.544828 156.867443 
L 297.72069 156.867443 
L 298.896552 155.006307 
L 301.248276 155.006307 
L 302.424138 154.09692 
L 303.6 154.09692 
L 304.775862 152.44373 
L 310.655172 152.44373 
L 311.831034 153.328253 
L 313.006897 148.911981 
L 314.182759 154.484973 
L 315.358621 158.371314 
L 316.534483 158.371314 
L 317.710345 158.927645 
L 318.886207 161.64293 
L 320.062069 163.725234 
L 321.237931 166.671845 
L 322.413793 171.124498 
L 323.589655 173.214563 
L 324.765517 173.214563 
L 325.941379 174.649457 
L 327.117241 182.387895 
L 328.293103 183.010526 
L 329.468966 187.784997 
L 330.644828 193.715183 
L 331.82069 198.920456 
L 332.996552 198.920456 
L 334.172414 201.98802 
L 335.348276 198.920456 
L 336.524138 201.98802 
L 338.875862 201.98802 
L 340.051724 205.220665 
L 342.403448 205.220665 
L 343.57931 202.852543 
L 344.755172 204.024938 
L 345.931034 207.372216 
L 351.810345 207.372216 
L 352.986207 205.220665 
L 354.162069 205.220665 
L 355.337931 207.372216 
L 356.513793 206.440673 
L 358.865517 206.440673 
L 360.041379 207.372216 
L 362.393103 213.633125 
L 367.096552 213.633125 
L 368.272414 215.038647 
L 370.624138 215.038647 
L 371.8 213.633125 
L 375.327586 213.633125 
L 376.503448 215.038647 
L 377.67931 216.114795 
L 378.855172 216.114795 
L 380.031034 218.7034 
L 381.206897 219.463958 
L 383.558621 219.463958 
L 384.734483 217.580315 
L 391.789655 217.580315 
L 394.141379 209.279783 
L 395.317241 209.279783 
L 396.493103 205.220665 
L 400.02069 205.220665 
L 401.196552 209.279783 
L 402.372414 206.749585 
L 405.9 206.749585 
L 407.075862 204.024938 
L 408.251724 204.024938 
L 409.427586 204.919495 
L 410.603448 204.024938 
L 411.77931 204.024938 
L 412.955172 204.919495 
L 417.658621 204.919495 
L 418.834483 204.024938 
L 421.186207 204.024938 
L 422.362069 205.827573 
L 423.537931 211.921234 
L 424.713793 211.921234 
L 425.889655 218.7034 
L 428.241379 218.7034 
L 429.417241 211.921234 
L 430.593103 211.921234 
L 431.768966 202.562984 
L 432.944828 202.562984 
L 434.12069 200.57423 
L 436.472414 200.57423 
L 437.648276 199.192943 
L 438.824138 192.971875 
L 440 189.155779 
L 443.527586 189.155779 
L 444.703448 187.334933 
L 445.87931 189.853078 
L 447.055172 189.853078 
L 448.231034 195.486188 
L 454.110345 195.486188 
L 455.286207 196.261468 
L 456.462069 201.13576 
L 457.637931 200.29542 
L 458.813793 196.261468 
L 461.165517 196.261468 
L 462.341379 191.994889 
L 463.517241 183.639676 
L 464.693103 176.492648 
L 469.396552 176.492648 
L 470.572414 177.056815 
L 475.275862 177.056815 
L 476.451724 185.350349 
L 477.627586 185.350349 
L 478.803448 191.994889 
L 479.97931 191.994889 
L 481.155172 194.720785 
L 483.506897 194.720785 
L 484.682759 196.261468 
L 485.858621 196.261468 
L 487.034483 197.310985 
L 488.210345 198.920456 
L 489.386207 204.024938 
L 491.737931 204.024938 
L 492.913793 206.440673 
L 495.265517 206.440673 
L 496.441379 208.637175 
L 497.617241 211.921234 
L 498.793103 211.921234 
L 499.968966 217.580315 
L 501.144828 217.580315 
L 502.32069 218.7034 
L 503.496552 221.805163 
L 504.672414 225.922069 
L 505.848276 230.802363 
L 507.024138 233.158874 
L 508.2 241.942005 
L 509.375862 241.942005 
L 510.551724 242.500924 
L 511.727586 246.56608 
L 515.255172 246.56608 
L 516.431034 247.779926 
L 517.606897 250.926368 
L 519.958621 250.926368 
L 521.134483 247.779926 
L 527.013793 247.779926 
L 528.189655 244.790089 
L 529.365517 249.018801 
L 530.541379 252.232579 
L 531.717241 252.89649 
L 532.893103 254.246733 
L 534.068966 245.968231 
L 536.42069 245.968231 
L 537.596552 248.39617 
L 539.948276 248.39617 
L 541.124138 244.209569 
L 544.651724 244.209569 
L 545.827586 237.648513 
L 547.003448 231.733906 
L 549.355172 231.733906 
L 550.531034 227.651205 
L 551.706897 227.651205 
L 554.058621 217.21057 
L 555.234483 214.331776 
L 556.410345 214.331776 
L 557.586207 212.600149 
L 558.762069 208.637175 
L 559.937931 208.637175 
L 561.113793 204.919495 
L 569.344828 204.919495 
L 570.52069 208.001367 
L 571.696552 210.585994 
L 572.872414 210.585994 
L 574.048276 210.917032 
L 577.575862 210.917032 
L 578.751724 209.929339 
L 582.27931 209.929339 
L 583.455172 210.917032 
L 584.631034 210.917032 
L 585.806897 219.463958 
L 586.982759 218.326701 
L 595.213793 218.326701 
L 596.389655 217.21057 
L 597.565517 216.843087 
L 598.741379 216.843087 
L 599.917241 211.584632 
L 601.093103 211.584632 
L 602.268966 206.440673 
L 603.444828 217.952349 
L 606.972414 217.952349 
L 608.148276 223.828362 
L 614.027586 223.828362 
L 615.203448 217.952349 
L 616.37931 221.805163 
L 617.555172 223.828362 
L 618.731034 223.828362 
L 619.906897 226.34971 
L 623.434483 226.34971 
L 624.610345 235.611595 
L 625.786207 243.06509 
L 626.962069 246.56608 
L 628.137931 246.56608 
L 629.313793 250.926368 
L 630.489655 250.926368 
L 632.841379 253.567819 
L 635.193103 253.567819 
L 636.368966 252.232579 
L 638.72069 252.232579 
L 639.896552 255.62802 
L 641.072414 255.62802 
L 643.424138 237.648513 
L 644.6 249.018801 
L 645.775862 245.968231 
L 646.951724 254.933407 
L 648.127586 254.933407 
L 649.303448 256.330757 
L 650.47931 259.973286 
L 655.182759 259.973286 
L 656.358621 260.729061 
L 659.886207 260.729061 
L 661.062069 258.489671 
L 662.237931 260.729061 
L 663.413793 260.729061 
L 665.765517 256.330757 
L 666.941379 252.89649 
L 668.117241 254.246733 
L 673.996552 254.246733 
L 675.172414 252.89649 
L 676.348276 252.89649 
L 677.524138 252.232579 
L 678.7 252.232579 
L 679.875862 247.169937 
L 681.051724 249.018801 
L 682.227586 241.388238 
L 683.403448 241.388238 
L 684.57931 235.611595 
L 685.755172 220.623158 
L 686.931034 207.685968 
L 688.106897 205.827573 
L 689.282759 201.98802 
L 690.458621 196.001928 
L 691.634483 192.971875 
L 692.810345 191.033535 
L 693.986207 187.559543 
L 695.162069 185.350349 
L 696.337931 184.0628 
L 697.513793 184.0628 
L 698.689655 183.010526 
L 699.865517 179.761987 
L 701.041379 167.79493 
L 702.217241 158.509914 
L 703.393103 156.196114 
L 705.744828 149.745658 
L 708.096552 131.745477 
L 709.272414 127.540932 
L 710.448276 120.436518 
L 711.624138 115.968089 
L 712.8 115.968089 
L 712.8 115.968089 
" style="fill:none;stroke:#1f77b4;stroke-linecap:square;stroke-width:1.5;"/>
   </g>
   <g id="line2d_93">
    <path clip-path="url(#p68e2955192)" d="M 140.154409 613 
L 140.155172 523.26 
L 141.331034 523.26 
L 142.506897 481.613415 
L 143.682759 481.613415 
L 144.858621 523.26 
L 146.034483 523.26 
L 146.035246 613 
M 287.137168 613 
L 287.137931 523.26 
L 293.017241 523.26 
L 294.193103 481.613415 
L 307.127586 481.613415 
L 308.303448 457.251725 
L 309.47931 439.96683 
L 313.006897 439.96683 
L 314.182759 426.559625 
L 317.710345 426.559625 
L 318.886207 415.60514 
L 320.062069 415.60514 
L 321.237931 426.559625 
L 322.413793 439.96683 
L 332.996552 439.96683 
L 334.172414 457.251725 
L 337.7 457.251725 
L 338.875862 439.96683 
L 340.051724 457.251725 
L 341.227586 457.251725 
L 342.403448 439.96683 
L 349.458621 439.96683 
L 350.634483 426.559625 
L 351.810345 415.60514 
L 352.986207 415.60514 
L 354.162069 426.559625 
L 355.337931 439.96683 
L 357.689655 439.96683 
L 358.865517 426.559625 
L 360.041379 415.60514 
L 361.217241 426.559625 
L 362.393103 439.96683 
L 363.568966 457.251725 
L 364.744828 481.613415 
L 368.272414 481.613415 
L 369.448276 457.251725 
L 375.327586 457.251725 
L 376.503448 481.613415 
L 377.67931 457.251725 
L 378.855172 457.251725 
L 380.031034 439.96683 
L 382.382759 439.96683 
L 383.558621 457.251725 
L 384.734483 523.26 
L 384.735246 613 
M 414.130272 613 
L 414.131034 523.26 
L 416.482759 523.26 
L 416.483522 613 
M 418.833366 613 
L 418.834483 481.613415 
L 420.010345 439.96683 
L 421.186207 439.96683 
L 422.362069 457.251725 
L 427.065517 457.251725 
L 428.241379 481.613415 
L 429.417241 457.251725 
L 432.944828 457.251725 
L 434.12069 439.96683 
L 435.296552 439.96683 
L 436.472414 457.251725 
L 437.648276 481.613415 
L 443.527586 481.613415 
L 444.703448 523.26 
L 444.704211 613 
M 467.044065 613 
L 467.044828 523.26 
L 468.22069 523.26 
L 468.221453 613 
M 470.571651 613 
L 470.572414 523.26 
L 471.748276 457.251725 
L 472.924138 457.251725 
L 474.1 439.96683 
L 475.275862 457.251725 
L 476.451724 439.96683 
L 481.155172 439.96683 
L 482.331034 426.559625 
L 483.506897 426.559625 
L 484.682759 439.96683 
L 487.034483 439.96683 
L 488.210345 426.559625 
L 490.562069 426.559625 
L 491.737931 415.60514 
L 492.913793 426.559625 
L 494.089655 439.96683 
L 495.265517 457.251725 
L 497.617241 457.251725 
L 498.793103 523.26 
L 509.375862 523.26 
L 510.551724 481.613415 
L 516.431034 481.613415 
L 517.606897 523.26 
L 518.782759 523.26 
L 519.958621 481.613415 
L 521.134483 523.26 
L 524.662069 523.26 
L 524.662832 613 
M 528.188892 613 
L 528.189655 523.26 
L 536.42069 523.26 
L 537.596552 481.613415 
L 539.948276 481.613415 
L 541.124138 523.26 
L 549.355172 523.26 
L 550.531034 481.613415 
L 552.882759 481.613415 
L 554.058621 523.26 
L 556.410345 523.26 
L 557.586207 481.613415 
L 558.762069 481.613415 
L 559.937931 523.26 
L 561.113793 523.26 
L 561.114556 613 
M 591.685444 613 
L 591.686207 523.26 
L 591.68697 613 
M 596.388892 613 
L 596.389655 523.26 
L 597.565517 523.26 
L 598.741379 481.613415 
L 599.917241 481.613415 
L 601.093103 523.26 
L 602.268966 523.26 
L 603.444828 481.613415 
L 604.62069 481.613415 
L 605.796552 523.26 
L 606.972414 523.26 
L 606.973177 613 
M 609.323375 613 
L 609.324138 523.26 
L 610.5 481.613415 
L 614.027586 481.613415 
L 615.203448 523.26 
L 615.204211 613 
M 617.554409 613 
L 617.555172 523.26 
L 617.555935 613 
M 665.764754 613 
L 665.765517 523.26 
L 665.76628 613 
M 704.568203 613 
L 704.568966 523.26 
L 704.569728 613 
M 709.271651 613 
L 709.272414 523.26 
L 709.273177 613 
M 711.623375 613 
L 711.624138 523.26 
L 712.8 523.26 
L 712.8 523.26 
" style="fill:none;stroke:#ff7f0e;stroke-linecap:square;stroke-width:1.5;"/>
   </g>
   <g id="patch_3">
    <path d="M 99 544.68 
L 99 73.44 
" style="fill:none;stroke:#000000;stroke-linecap:square;stroke-linejoin:miter;stroke-width:0.8;"/>
   </g>
   <g id="patch_4">
    <path d="M 712.8 544.68 
L 712.8 73.44 
" style="fill:none;stroke:#000000;stroke-linecap:square;stroke-linejoin:miter;stroke-width:0.8;"/>
   </g>
   <g id="patch_5">
    <path d="M 99 544.68 
L 712.8 544.68 
" style="fill:none;stroke:#000000;stroke-linecap:square;stroke-linejoin:miter;stroke-width:0.8;"/>
   </g>
   <g id="patch_6">
    <path d="M 99 73.44 
L 712.8 73.44 
" style="fill:none;stroke:#000000;stroke-linecap:square;stroke-linejoin:miter;stroke-width:0.8;"/>
   </g>
   <g id="legend_1">
    <g id="patch_7">
     <path d="M 616.653125 110.79625 
L 705.8 110.79625 
Q 707.8 110.79625 707.8 108.79625 
L 707.8 80.44 
Q 707.8 78.44 705.8 78.44 
L 616.653125 78.44 
Q 614.653125 78.44 614.653125 80.44 
L 614.653125 108.79625 
Q 614.653125 110.79625 616.653125 110.79625 
z
" style="fill:#ffffff;opacity:0.8;stroke:#cccccc;stroke-linejoin:miter;"/>
    </g>
    <g id="line2d_94">
     <path d="M 618.653125 86.538437 
L 638.653125 86.538437 
" style="fill:none;stroke:#1f77b4;stroke-linecap:square;stroke-width:1.5;"/>
    </g>
    <g id="line2d_95"/>
    <g id="text_11">
     <!-- Avg Cases -->
     <g transform="translate(646.653125 90.038437)scale(0.1 -0.1)">
      <defs>
       <path d="M 191 3500 
L 800 3500 
L 1894 563 
L 2988 3500 
L 3597 3500 
L 2284 0 
L 1503 0 
L 191 3500 
z
" id="DejaVuSans-76" transform="scale(0.015625)"/>
       <path d="M 2906 1791 
Q 2906 2416 2648 2759 
Q 2391 3103 1925 3103 
Q 1463 3103 1205 2759 
Q 947 2416 947 1791 
Q 947 1169 1205 825 
Q 1463 481 1925 481 
Q 2391 481 2648 825 
Q 2906 1169 2906 1791 
z
M 3481 434 
Q 3481 -459 3084 -895 
Q 2688 -1331 1869 -1331 
Q 1566 -1331 1297 -1286 
Q 1028 -1241 775 -1147 
L 775 -588 
Q 1028 -725 1275 -790 
Q 1522 -856 1778 -856 
Q 2344 -856 2625 -561 
Q 2906 -266 2906 331 
L 2906 616 
Q 2728 306 2450 153 
Q 2172 0 1784 0 
Q 1141 0 747 490 
Q 353 981 353 1791 
Q 353 2603 747 3093 
Q 1141 3584 1784 3584 
Q 2172 3584 2450 3431 
Q 2728 3278 2906 2969 
L 2906 3500 
L 3481 3500 
L 3481 434 
z
" id="DejaVuSans-67" transform="scale(0.015625)"/>
       <path id="DejaVuSans-20" transform="scale(0.015625)"/>
       <path d="M 4122 4306 
L 4122 3641 
Q 3803 3938 3442 4084 
Q 3081 4231 2675 4231 
Q 1875 4231 1450 3742 
Q 1025 3253 1025 2328 
Q 1025 1406 1450 917 
Q 1875 428 2675 428 
Q 3081 428 3442 575 
Q 3803 722 4122 1019 
L 4122 359 
Q 3791 134 3420 21 
Q 3050 -91 2638 -91 
Q 1578 -91 968 557 
Q 359 1206 359 2328 
Q 359 3453 968 4101 
Q 1578 4750 2638 4750 
Q 3056 4750 3426 4639 
Q 3797 4528 4122 4306 
z
" id="DejaVuSans-43" transform="scale(0.015625)"/>
       <path d="M 2834 3397 
L 2834 2853 
Q 2591 2978 2328 3040 
Q 2066 3103 1784 3103 
Q 1356 3103 1142 2972 
Q 928 2841 928 2578 
Q 928 2378 1081 2264 
Q 1234 2150 1697 2047 
L 1894 2003 
Q 2506 1872 2764 1633 
Q 3022 1394 3022 966 
Q 3022 478 2636 193 
Q 2250 -91 1575 -91 
Q 1294 -91 989 -36 
Q 684 19 347 128 
L 347 722 
Q 666 556 975 473 
Q 1284 391 1588 391 
Q 1994 391 2212 530 
Q 2431 669 2431 922 
Q 2431 1156 2273 1281 
Q 2116 1406 1581 1522 
L 1381 1569 
Q 847 1681 609 1914 
Q 372 2147 372 2553 
Q 372 3047 722 3315 
Q 1072 3584 1716 3584 
Q 2034 3584 2315 3537 
Q 2597 3491 2834 3397 
z
" id="DejaVuSans-73" transform="scale(0.015625)"/>
      </defs>
      <use xlink:href="#DejaVuSans-41"/>
      <use x="62.533203" xlink:href="#DejaVuSans-76"/>
      <use x="121.712891" xlink:href="#DejaVuSans-67"/>
      <use x="185.189453" xlink:href="#DejaVuSans-20"/>
      <use x="216.976562" xlink:href="#DejaVuSans-43"/>
      <use x="286.800781" xlink:href="#DejaVuSans-61"/>
      <use x="348.080078" xlink:href="#DejaVuSans-73"/>
      <use x="400.179688" xlink:href="#DejaVuSans-65"/>
      <use x="461.703125" xlink:href="#DejaVuSans-73"/>
     </g>
    </g>
    <g id="line2d_96">
     <path d="M 618.653125 101.216562 
L 638.653125 101.216562 
" style="fill:none;stroke:#ff7f0e;stroke-linecap:square;stroke-width:1.5;"/>
    </g>
    <g id="line2d_97"/>
    <g id="text_12">
     <!-- Avg Deaths -->
     <g transform="translate(646.653125 104.716562)scale(0.1 -0.1)">
      <defs>
       <path d="M 3513 2113 
L 3513 0 
L 2938 0 
L 2938 2094 
Q 2938 2591 2744 2837 
Q 2550 3084 2163 3084 
Q 1697 3084 1428 2787 
Q 1159 2491 1159 1978 
L 1159 0 
L 581 0 
L 581 4863 
L 1159 4863 
L 1159 2956 
Q 1366 3272 1645 3428 
Q 1925 3584 2291 3584 
Q 2894 3584 3203 3211 
Q 3513 2838 3513 2113 
z
" id="DejaVuSans-68" transform="scale(0.015625)"/>
      </defs>
      <use xlink:href="#DejaVuSans-41"/>
      <use x="62.533203" xlink:href="#DejaVuSans-76"/>
      <use x="121.712891" xlink:href="#DejaVuSans-67"/>
      <use x="185.189453" xlink:href="#DejaVuSans-20"/>
      <use x="216.976562" xlink:href="#DejaVuSans-44"/>
      <use x="293.978516" xlink:href="#DejaVuSans-65"/>
      <use x="355.501953" xlink:href="#DejaVuSans-61"/>
      <use x="416.78125" xlink:href="#DejaVuSans-74"/>
      <use x="455.990234" xlink:href="#DejaVuSans-68"/>
      <use x="519.369141" xlink:href="#DejaVuSans-73"/>
     </g>
    </g>
   </g>
  </g>
 </g>
 <defs>
  <clipPath id="p68e2955192">
   <rect height="471.24" width="613.8" x="99" y="73.44"/>
  </clipPath>
 </defs>
</svg>
