<?xml version="1.0" encoding="utf-8" standalone="no"?>
<!DOCTYPE svg PUBLIC "-//W3C//DTD SVG 1.1//EN"
  "http://www.w3.org/Graphics/SVG/1.1/DTD/svg11.dtd">
<svg height="612pt" version="1.1" viewBox="0 0 792 612" width="792pt" xmlns="http://www.w3.org/2000/svg" xmlns:xlink="http://www.w3.org/1999/xlink">
 <metadata>
  <rdf:RDF xmlns:cc="http://creativecommons.org/ns#" xmlns:dc="http://purl.org/dc/elements/1.1/" xmlns:rdf="http://www.w3.org/1999/02/22-rdf-syntax-ns#">
   <cc:Work>
    <dc:type rdf:resource="http://purl.org/dc/dcmitype/StillImage"/>
    <dc:format>image/svg+xml</dc:format>
    <dc:creator>
     <cc:Agent>
      <dc:title>Matplotlib v3.4.2, https://matplotlib.org/</dc:title>
     </cc:Agent>
    </dc:creator>
   </cc:Work>
  </rdf:RDF>
 </metadata>
 <defs>
  <style type="text/css">*{stroke-linecap:butt;stroke-linejoin:round;}</style>
 </defs>
 <g id="figure_1">
  <g id="patch_1">
   <path d="M 0 612 
L 792 612 
L 792 0 
L 0 0 
z
" style="fill:#ffffff;"/>
  </g>
  <g id="axes_1">
   <g id="patch_2">
    <path d="M 99 544.68 
L 712.8 544.68 
L 712.8 73.44 
L 99 73.44 
z
" style="fill:#ffffff;"/>
   </g>
   <g id="PolyCollection_1">
    <path clip-path="url(#p68e2955192)" d="M 99 104563.23581 
L 99 104563.23581 
L 100.116 104563.23581 
L 101.232 104563.23581 
L 102.348 104563.23581 
L 103.464 104563.23581 
L 104.58 104563.23581 
L 105.696 104563.23581 
L 106.812 104563.23581 
L 107.928 104563.23581 
L 109.044 104563.23581 
L 110.16 104563.23581 
L 111.276 104563.23581 
L 112.392 104563.23581 
L 113.508 383.965087 
L 114.624 381.543208 
L 115.74 380.379257 
L 116.856 373.631424 
L 117.972 368.344585 
L 119.088 359.328146 
L 120.204 340.68268 
L 121.32 328.848938 
L 122.436 325.543202 
L 123.552 312.228663 
L 124.668 311.974981 
L 125.784 306.576578 
L 126.9 306.576578 
L 128.016 306.129811 
L 129.132 304.101373 
L 130.248 300.429174 
L 131.364 300.038977 
L 132.48 296.670978 
L 133.596 296.670978 
L 134.712 292.428802 
L 135.828 292.428802 
L 136.944 292.428802 
L 138.06 285.212109 
L 139.176 285.212109 
L 140.292 285.212109 
L 141.408 285.212109 
L 142.524 285.212109 
L 143.64 284.243058 
L 144.756 273.164113 
L 145.872 273.164113 
L 146.988 273.164113 
L 148.104 269.957754 
L 149.22 269.957754 
L 150.336 269.957754 
L 151.452 261.154969 
L 152.568 251.498773 
L 153.684 244.389537 
L 154.8 244.389537 
L 155.916 244.389537 
L 157.032 244.389537 
L 158.148 244.389537 
L 159.264 232.768944 
L 160.38 232.768944 
L 161.496 227.47793 
L 162.612 227.47793 
L 163.728 227.47793 
L 164.844 227.47793 
L 165.96 227.47793 
L 167.076 227.012238 
L 168.192 215.637704 
L 169.308 215.637704 
L 170.424 215.637704 
L 171.54 215.637704 
L 172.656 215.637704 
L 173.772 215.637704 
L 174.888 227.012238 
L 176.004 227.012238 
L 177.12 227.909071 
L 178.236 227.909071 
L 179.352 225.245496 
L 180.468 225.245496 
L 181.584 225.245496 
L 182.7 225.580893 
L 183.816 230.419194 
L 184.932 230.419194 
L 186.048 230.419194 
L 187.164 230.419194 
L 188.28 230.419194 
L 189.396 230.419194 
L 190.512 230.419194 
L 191.628 232.915357 
L 192.744 232.915357 
L 193.86 232.915357 
L 194.976 238.001186 
L 196.092 238.001186 
L 197.208 238.001186 
L 198.324 238.001186 
L 199.44 251.168138 
L 200.556 251.168138 
L 201.672 251.168138 
L 202.788 250.255025 
L 203.904 250.255025 
L 205.02 250.255025 
L 206.136 250.255025 
L 207.252 259.041172 
L 208.368 259.041172 
L 209.484 259.041172 
L 210.6 259.041172 
L 211.716 259.041172 
L 212.832 249.21253 
L 213.948 249.21253 
L 215.064 240.968529 
L 216.18 240.968529 
L 217.296 240.968529 
L 218.412 237.560231 
L 219.528 237.560231 
L 220.644 233.062246 
L 221.76 233.062246 
L 222.876 219.894492 
L 223.992 219.894492 
L 225.108 219.894492 
L 226.224 210.982854 
L 227.34 210.982854 
L 228.456 209.334289 
L 229.572 209.334289 
L 230.688 207.31723 
L 231.804 207.31723 
L 232.92 207.31723 
L 234.036 194.697115 
L 235.152 194.697115 
L 236.268 192.883045 
L 237.384 192.883045 
L 238.5 190.791175 
L 239.616 190.791175 
L 240.732 190.791175 
L 241.848 190.26872 
L 242.964 190.26872 
L 244.08 189.527063 
L 245.196 189.527063 
L 246.312 184.923651 
L 247.428 184.923651 
L 248.544 184.923651 
L 249.66 181.713469 
L 250.776 181.713469 
L 251.892 181.713469 
L 253.008 181.713469 
L 254.124 181.713469 
L 255.24 181.713469 
L 256.356 181.713469 
L 257.472 183.79672 
L 258.588 183.79672 
L 259.704 183.79672 
L 260.82 183.79672 
L 261.936 185.361922 
L 263.052 185.361922 
L 264.168 185.361922 
L 265.284 185.928767 
L 266.4 185.928767 
L 267.516 185.928767 
L 268.632 185.928767 
L 269.748 187.318924 
L 270.864 187.318924 
L 271.98 187.318924 
L 273.096 185.928767 
L 274.212 185.928767 
L 275.328 185.928767 
L 276.444 185.928767 
L 277.56 183.388002 
L 278.676 183.388002 
L 279.792 183.388002 
L 280.908 178.866805 
L 282.024 178.866805 
L 283.14 178.866805 
L 284.256 178.866805 
L 285.372 178.641159 
L 286.488 178.641159 
L 287.604 178.641159 
L 288.72 174.353835 
L 289.836 174.353835 
L 290.952 169.809474 
L 292.068 169.809474 
L 293.184 170.390367 
L 294.3 170.390367 
L 295.416 170.390367 
L 296.532 165.760153 
L 297.648 165.760153 
L 298.764 165.760153 
L 299.88 165.760153 
L 300.996 165.640828 
L 302.112 165.640828 
L 303.228 165.640828 
L 304.344 165.640828 
L 305.46 165.640828 
L 306.576 168.447168 
L 307.692 168.447168 
L 308.808 168.447168 
L 309.924 168.447168 
L 311.04 168.447168 
L 312.156 168.447168 
L 313.272 168.447168 
L 314.388 168.447168 
L 315.504 168.447168 
L 316.62 166.7534 
L 317.736 166.7534 
L 318.852 166.7534 
L 319.968 163.447296 
L 321.084 163.447296 
L 322.2 163.447296 
L 323.316 163.447296 
L 324.432 163.192591 
L 325.548 163.192591 
L 326.664 163.192591 
L 327.78 161.89443 
L 328.896 161.89443 
L 330.012 161.89443 
L 331.128 161.89443 
L 332.244 161.89443 
L 333.36 161.89443 
L 334.476 161.89443 
L 335.592 165.320873 
L 336.708 165.320873 
L 337.824 165.320873 
L 338.94 165.320873 
L 340.056 156.963298 
L 341.172 156.963298 
L 342.288 156.963298 
L 343.404 156.963298 
L 344.52 156.963298 
L 345.636 156.963298 
L 346.752 156.963298 
L 347.868 154.135873 
L 348.984 154.135873 
L 350.1 154.135873 
L 351.216 151.600951 
L 352.332 151.600951 
L 353.448 151.600951 
L 354.564 151.600951 
L 355.68 152.305191 
L 356.796 152.305191 
L 357.912 152.305191 
L 359.028 152.305191 
L 360.144 152.305191 
L 361.26 145.529879 
L 362.376 145.529879 
L 363.492 136.942813 
L 364.608 136.942813 
L 365.724 136.942813 
L 366.84 132.093492 
L 367.956 132.093492 
L 369.072 131.292242 
L 370.188 131.292242 
L 371.304 122.559041 
L 372.42 122.559041 
L 373.536 122.559041 
L 374.652 109.143024 
L 375.768 109.143024 
L 376.884 105.156057 
L 378 105.156057 
L 379.116 103.411036 
L 380.232 103.411036 
L 381.348 103.411036 
L 382.464 101.106572 
L 383.58 101.106572 
L 384.696 101.106572 
L 385.812 101.106572 
L 386.928 100.228387 
L 388.044 100.228387 
L 389.16 100.228387 
L 390.276 94.86 
L 391.392 94.86 
L 392.508 94.86 
L 393.624 94.86 
L 394.74 94.86 
L 395.856 94.86 
L 396.972 94.86 
L 398.088 101.162974 
L 399.204 101.162974 
L 400.32 101.498062 
L 401.436 101.498062 
L 402.552 101.029631 
L 403.668 101.029631 
L 404.784 101.029631 
L 405.9 101.846949 
L 407.016 101.846949 
L 408.132 100.933836 
L 409.248 100.933836 
L 410.364 100.933836 
L 411.48 100.933836 
L 412.596 100.933836 
L 413.712 100.933836 
L 414.828 100.933836 
L 415.944 100.933836 
L 417.06 100.933836 
L 418.176 102.063744 
L 419.292 102.063744 
L 420.408 102.063744 
L 421.524 104.530027 
L 422.64 104.530027 
L 423.756 108.532618 
L 424.872 108.532618 
L 425.988 110.079214 
L 427.104 110.079214 
L 428.22 110.079214 
L 429.336 104.7825 
L 430.452 104.7825 
L 431.568 100.403134 
L 432.684 100.403134 
L 433.8 101.73572 
L 434.916 101.73572 
L 436.032 101.73572 
L 437.148 101.73572 
L 438.264 101.73572 
L 439.38 100.801166 
L 440.496 100.801166 
L 441.612 100.801166 
L 442.728 100.801166 
L 443.844 100.801166 
L 444.96 105.457492 
L 446.076 105.457492 
L 447.192 107.929423 
L 448.308 107.929423 
L 449.424 108.008892 
L 450.54 108.008892 
L 451.656 108.008892 
L 452.772 108.008892 
L 453.888 108.008892 
L 455.004 109.020849 
L 456.12 109.020849 
L 457.236 113.490949 
L 458.352 113.490949 
L 459.468 113.490949 
L 460.584 120.34886 
L 461.7 120.34886 
L 462.816 123.684436 
L 463.932 123.684436 
L 465.048 126.381207 
L 466.164 126.381207 
L 467.28 126.381207 
L 468.396 128.142669 
L 469.512 128.142669 
L 470.628 131.330962 
L 471.744 131.330962 
L 472.86 136.405695 
L 473.976 136.405695 
L 475.092 136.405695 
L 476.208 139.001153 
L 477.324 139.001153 
L 478.44 146.102008 
L 479.556 146.102008 
L 480.672 146.646668 
L 481.788 146.646668 
L 482.904 146.646668 
L 484.02 147.343479 
L 485.136 147.343479 
L 486.252 154.854994 
L 487.368 154.854994 
L 488.484 154.854994 
L 489.6 154.854994 
L 490.716 154.854994 
L 491.832 156.075982 
L 492.948 156.075982 
L 494.064 167.723879 
L 495.18 167.723879 
L 496.296 167.723879 
L 497.412 167.723879 
L 498.528 167.723879 
L 499.644 169.62472 
L 500.76 169.62472 
L 501.876 178.245688 
L 502.992 178.245688 
L 504.108 188.171836 
L 505.224 188.171836 
L 506.34 188.171836 
L 507.456 193.259592 
L 508.572 193.259592 
L 509.688 193.818011 
L 510.804 193.818011 
L 511.92 195.433393 
L 513.036 195.433393 
L 514.152 195.433393 
L 515.268 195.433393 
L 516.384 195.433393 
L 517.5 198.758781 
L 518.616 198.758781 
L 519.732 202.805591 
L 520.848 202.805591 
L 521.964 202.805591 
L 523.08 207.051654 
L 524.196 207.051654 
L 525.312 208.463668 
L 526.428 208.463668 
L 527.544 208.310254 
L 528.66 208.310254 
L 529.776 208.310254 
L 530.892 208.310254 
L 532.008 208.310254 
L 533.124 214.083761 
L 534.24 214.083761 
L 535.356 213.823477 
L 536.472 213.823477 
L 537.588 213.823477 
L 538.704 213.823477 
L 539.82 213.823477 
L 540.936 213.823477 
L 542.052 213.823477 
L 543.168 213.823477 
L 544.284 213.823477 
L 545.4 213.823477 
L 546.516 212.947675 
L 547.632 212.947675 
L 548.748 207.375534 
L 549.864 207.375534 
L 550.98 207.12619 
L 552.096 207.12619 
L 553.212 207.12619 
L 554.328 207.12619 
L 555.444 207.12619 
L 556.56 206.894704 
L 557.676 206.894704 
L 558.792 206.894704 
L 559.908 206.894704 
L 561.024 206.894704 
L 562.14 206.894704 
L 563.256 206.894704 
L 564.372 206.894704 
L 565.488 206.894704 
L 566.604 205.123925 
L 567.72 205.123925 
L 568.836 205.123925 
L 569.952 205.123925 
L 571.068 205.123925 
L 572.184 207.300586 
L 573.3 207.300586 
L 574.416 207.300586 
L 575.532 207.300586 
L 576.648 207.300586 
L 577.764 207.300586 
L 578.88 207.300586 
L 579.996 211.729187 
L 581.112 211.729187 
L 582.228 214.16117 
L 583.344 214.16117 
L 584.46 214.16117 
L 585.576 218.80822 
L 586.692 218.80822 
L 587.808 218.80822 
L 588.924 218.80822 
L 590.04 222.079355 
L 591.156 222.079355 
L 592.272 222.079355 
L 593.388 222.079355 
L 594.504 222.079355 
L 595.62 224.42381 
L 596.736 224.42381 
L 597.852 224.42381 
L 598.968 224.42381 
L 600.084 224.42381 
L 601.2 225.010959 
L 602.316 225.010959 
L 603.432 225.010959 
L 604.548 225.010959 
L 605.664 228.145983 
L 606.78 228.145983 
L 607.896 228.145983 
L 609.012 228.145983 
L 610.128 228.145983 
L 611.244 230.697591 
L 612.36 230.697591 
L 613.476 230.697591 
L 614.592 230.697591 
L 615.708 230.697591 
L 616.824 230.697591 
L 617.94 230.697591 
L 619.056 235.32486 
L 620.172 235.32486 
L 621.288 238.996768 
L 622.404 238.996768 
L 623.52 238.996768 
L 624.636 238.996768 
L 625.752 238.996768 
L 626.868 238.297565 
L 627.984 238.297565 
L 629.1 237.5115 
L 630.216 237.5115 
L 631.332 237.5115 
L 632.448 232.535666 
L 633.564 232.535666 
L 634.68 231.401179 
L 635.796 231.401179 
L 636.912 227.012238 
L 638.028 227.012238 
L 639.144 227.012238 
L 640.26 227.012238 
L 641.376 227.012238 
L 642.492 220.425324 
L 643.608 220.425324 
L 644.724 196.626455 
L 645.84 196.626455 
L 646.956 196.626455 
L 648.072 192.449665 
L 649.188 192.449665 
L 650.304 192.449665 
L 651.42 192.449665 
L 652.536 184.91858 
L 653.652 184.91858 
L 654.768 184.91858 
L 655.884 184.842579 
L 657 184.842579 
L 658.116 175.380959 
L 659.232 175.380959 
L 660.348 159.32997 
L 661.464 159.32997 
L 662.58 159.32997 
L 663.696 158.381346 
L 664.812 158.381346 
L 665.928 150.931416 
L 667.044 150.931416 
L 668.16 153.337155 
L 669.276 153.337155 
L 670.392 153.337155 
L 671.508 153.337155 
L 672.624 153.337155 
L 673.74 145.8065 
L 674.856 145.8065 
L 675.972 144.233412 
L 677.088 144.233412 
L 678.204 144.233412 
L 679.32 137.876912 
L 680.436 137.876912 
L 681.552 135.225088 
L 682.668 135.225088 
L 683.784 134.62948 
L 684.9 134.62948 
L 686.016 134.62948 
L 687.132 134.62948 
L 688.248 134.62948 
L 689.364 134.549546 
L 690.48 134.549546 
L 691.596 133.270051 
L 692.712 133.270051 
L 693.828 133.270051 
L 694.944 133.270051 
L 696.06 133.270051 
L 697.176 132.462157 
L 698.292 132.462157 
L 699.408 129.139785 
L 700.524 129.139785 
L 701.64 129.139785 
L 702.756 127.796017 
L 703.872 127.796017 
L 704.988 124.963561 
L 706.104 124.963561 
L 707.22 120.520532 
L 708.336 120.520532 
L 709.452 120.520532 
L 710.568 120.520532 
L 711.684 120.520532 
L 712.8 116.214072 
L 712.8 305.981865 
L 712.8 305.981865 
L 711.684 305.981865 
L 710.568 305.981865 
L 709.452 295.601865 
L 708.336 295.601865 
L 707.22 295.601865 
L 706.104 295.601865 
L 704.988 295.601865 
L 703.872 295.601865 
L 702.756 284.380228 
L 701.64 284.380228 
L 700.524 285.586806 
L 699.408 285.586806 
L 698.292 285.586806 
L 697.176 314.489013 
L 696.06 314.489013 
L 694.944 327.521276 
L 693.828 327.521276 
L 692.712 341.323792 
L 691.596 344.49979 
L 690.48 344.49979 
L 689.364 344.49979 
L 688.248 344.49979 
L 687.132 344.49979 
L 686.016 344.49979 
L 684.9 344.49979 
L 683.784 327.521276 
L 682.668 327.521276 
L 681.552 334.448886 
L 680.436 334.448886 
L 679.32 326.000903 
L 678.204 326.000903 
L 677.088 326.000903 
L 675.972 326.000903 
L 674.856 326.000903 
L 673.74 326.000903 
L 672.624 326.000903 
L 671.508 326.000903 
L 670.392 326.000903 
L 669.276 326.000903 
L 668.16 337.162985 
L 667.044 337.162985 
L 665.928 320.690174 
L 664.812 320.690174 
L 663.696 321.619986 
L 662.58 321.619986 
L 661.464 321.619986 
L 660.348 322.676052 
L 659.232 322.676052 
L 658.116 388.314362 
L 657 388.314362 
L 655.884 388.314362 
L 654.768 104563.23581 
L 653.652 104563.23581 
L 652.536 104563.23581 
L 651.42 104563.23581 
L 650.304 104563.23581 
L 649.188 104563.23581 
L 648.072 104563.23581 
L 646.956 104563.23581 
L 645.84 104563.23581 
L 644.724 104563.23581 
L 643.608 104563.23581 
L 642.492 104563.23581 
L 641.376 104563.23581 
L 640.26 104563.23581 
L 639.144 402.707704 
L 638.028 402.707704 
L 636.912 402.707704 
L 635.796 402.707704 
L 634.68 402.707704 
L 633.564 402.707704 
L 632.448 402.707704 
L 631.332 402.707704 
L 630.216 402.707704 
L 629.1 402.707704 
L 627.984 402.707704 
L 626.868 384.381657 
L 625.752 384.381657 
L 624.636 384.381657 
L 623.52 384.381657 
L 622.404 384.381657 
L 621.288 384.381657 
L 620.172 384.381657 
L 619.056 104563.23581 
L 617.94 104563.23581 
L 616.824 104563.23581 
L 615.708 104563.23581 
L 614.592 104563.23581 
L 613.476 104563.23581 
L 612.36 104563.23581 
L 611.244 104563.23581 
L 610.128 104563.23581 
L 609.012 104563.23581 
L 607.896 104563.23581 
L 606.78 104563.23581 
L 605.664 104563.23581 
L 604.548 104563.23581 
L 603.432 104563.23581 
L 602.316 104563.23581 
L 601.2 104563.23581 
L 600.084 496.693457 
L 598.968 496.693457 
L 597.852 496.693457 
L 596.736 496.693457 
L 595.62 496.693457 
L 594.504 496.693457 
L 593.388 491.931416 
L 592.272 491.931416 
L 591.156 491.931416 
L 590.04 496.693457 
L 588.924 496.693457 
L 587.808 496.693457 
L 586.692 496.693457 
L 585.576 496.693457 
L 584.46 496.693457 
L 583.344 445.395096 
L 582.228 445.395096 
L 581.112 445.395096 
L 579.996 445.395096 
L 578.88 445.395096 
L 577.764 445.395096 
L 576.648 445.395096 
L 575.532 445.395096 
L 574.416 445.395096 
L 573.3 445.395096 
L 572.184 445.395096 
L 571.068 445.395096 
L 569.952 496.693457 
L 568.836 496.693457 
L 567.72 104563.23581 
L 566.604 104563.23581 
L 565.488 104563.23581 
L 564.372 104563.23581 
L 563.256 104563.23581 
L 562.14 104563.23581 
L 561.024 104563.23581 
L 559.908 104563.23581 
L 558.792 104563.23581 
L 557.676 104563.23581 
L 556.56 104563.23581 
L 555.444 104563.23581 
L 554.328 104563.23581 
L 553.212 104563.23581 
L 552.096 104563.23581 
L 550.98 104563.23581 
L 549.864 104563.23581 
L 548.748 104563.23581 
L 547.632 104563.23581 
L 546.516 363.611902 
L 545.4 363.611902 
L 544.284 363.611902 
L 543.168 363.611902 
L 542.052 363.611902 
L 540.936 363.611902 
L 539.82 363.611902 
L 538.704 346.085833 
L 537.588 346.085833 
L 536.472 346.085833 
L 535.356 346.085833 
L 534.24 346.085833 
L 533.124 354.976665 
L 532.008 354.976665 
L 530.892 354.976665 
L 529.776 354.976665 
L 528.66 354.976665 
L 527.544 354.111613 
L 526.428 354.111613 
L 525.312 354.111613 
L 524.196 354.111613 
L 523.08 360.300175 
L 521.964 360.300175 
L 520.848 360.300175 
L 519.732 360.300175 
L 518.616 360.300175 
L 517.5 360.300175 
L 516.384 360.300175 
L 515.268 360.300175 
L 514.152 360.300175 
L 513.036 360.300175 
L 511.92 360.546484 
L 510.804 360.546484 
L 509.688 360.546484 
L 508.572 360.546484 
L 507.456 383.14329 
L 506.34 383.14329 
L 505.224 383.14329 
L 504.108 350.609365 
L 502.992 350.609365 
L 501.876 350.609365 
L 500.76 350.609365 
L 499.644 322.356633 
L 498.528 322.356633 
L 497.412 322.039456 
L 496.296 322.039456 
L 495.18 322.039456 
L 494.064 322.039456 
L 492.948 322.039456 
L 491.832 319.479452 
L 490.716 319.479452 
L 489.6 319.479452 
L 488.484 328.119928 
L 487.368 328.119928 
L 486.252 328.119928 
L 485.136 328.119928 
L 484.02 328.119928 
L 482.904 328.119928 
L 481.788 328.726617 
L 480.672 328.726617 
L 479.556 328.726617 
L 478.44 328.726617 
L 477.324 328.726617 
L 476.208 296.371456 
L 475.092 296.371456 
L 473.976 296.371456 
L 472.86 296.371456 
L 471.744 296.371456 
L 470.628 296.371456 
L 469.512 296.371456 
L 468.396 296.371456 
L 467.28 296.371456 
L 466.164 296.972497 
L 465.048 295.192834 
L 463.932 295.192834 
L 462.816 295.192834 
L 461.7 295.192834 
L 460.584 258.058577 
L 459.468 258.058577 
L 458.352 258.058577 
L 457.236 256.155239 
L 456.12 256.155239 
L 455.004 256.155239 
L 453.888 256.155239 
L 452.772 256.155239 
L 451.656 256.155239 
L 450.54 256.155239 
L 449.424 256.155239 
L 448.308 256.155239 
L 447.192 281.669782 
L 446.076 281.669782 
L 444.96 281.669782 
L 443.844 281.669782 
L 442.728 281.669782 
L 441.612 287.166131 
L 440.496 287.166131 
L 439.38 288.500657 
L 438.264 288.500657 
L 437.148 288.500657 
L 436.032 288.500657 
L 434.916 288.500657 
L 433.8 288.500657 
L 432.684 288.500657 
L 431.568 288.500657 
L 430.452 288.500657 
L 429.336 288.500657 
L 428.22 288.500657 
L 427.104 290.135098 
L 425.988 290.135098 
L 424.872 290.135098 
L 423.756 261.595388 
L 422.64 261.595388 
L 421.524 240.186695 
L 420.408 240.186695 
L 419.292 240.186695 
L 418.176 239.114361 
L 417.06 239.114361 
L 415.944 230.837435 
L 414.828 230.837435 
L 413.712 238.512831 
L 412.596 238.512831 
L 411.48 238.512831 
L 410.364 238.512831 
L 409.248 238.512831 
L 408.132 278.30488 
L 407.016 278.30488 
L 405.9 278.30488 
L 404.784 278.30488 
L 403.668 247.58082 
L 402.552 247.60111 
L 401.436 247.60111 
L 400.32 247.60111 
L 399.204 247.60111 
L 398.088 247.60111 
L 396.972 247.60111 
L 395.856 247.378412 
L 394.74 227.843481 
L 393.624 227.843481 
L 392.508 217.590454 
L 391.392 217.590454 
L 390.276 217.122727 
L 389.16 217.122727 
L 388.044 217.122727 
L 386.928 217.122727 
L 385.812 217.122727 
L 384.696 214.952503 
L 383.58 214.952503 
L 382.464 215.04129 
L 381.348 215.04129 
L 380.232 215.04129 
L 379.116 218.232311 
L 378 218.232311 
L 376.884 229.675977 
L 375.768 229.675977 
L 374.652 238.463063 
L 373.536 238.463063 
L 372.42 239.604817 
L 371.304 239.638838 
L 370.188 239.638838 
L 369.072 246.399509 
L 367.956 246.399509 
L 366.84 246.399509 
L 365.724 246.399509 
L 364.608 245.576999 
L 363.492 245.557597 
L 362.376 245.557597 
L 361.26 266.777358 
L 360.144 266.777358 
L 359.028 266.777358 
L 357.912 266.777358 
L 356.796 266.777358 
L 355.68 266.777358 
L 354.564 266.777358 
L 353.448 266.777358 
L 352.332 266.777358 
L 351.216 266.777358 
L 350.1 266.777358 
L 348.984 266.777358 
L 347.868 266.777358 
L 346.752 266.777358 
L 345.636 267.908142 
L 344.52 267.908142 
L 343.404 267.908142 
L 342.288 267.908142 
L 341.172 267.307816 
L 340.056 267.307816 
L 338.94 267.307816 
L 337.824 274.06629 
L 336.708 274.06629 
L 335.592 274.06629 
L 334.476 274.06629 
L 333.36 274.06629 
L 332.244 274.06629 
L 331.128 274.06629 
L 330.012 274.06629 
L 328.896 274.06629 
L 327.78 274.06629 
L 326.664 274.06629 
L 325.548 285.118918 
L 324.432 285.118918 
L 323.316 285.118918 
L 322.2 314.847016 
L 321.084 314.847016 
L 319.968 314.847016 
L 318.852 314.847016 
L 317.736 285.917234 
L 316.62 285.917234 
L 315.504 285.917234 
L 314.388 285.917234 
L 313.272 285.917234 
L 312.156 293.31289 
L 311.04 293.31289 
L 309.924 284.517816 
L 308.808 283.383848 
L 307.692 283.383848 
L 306.576 282.938109 
L 305.46 282.938109 
L 304.344 283.383848 
L 303.228 283.383848 
L 302.112 282.938109 
L 300.996 271.965354 
L 299.88 271.965354 
L 298.764 279.071985 
L 297.648 279.071985 
L 296.532 279.071985 
L 295.416 279.071985 
L 294.3 271.618745 
L 293.184 271.618745 
L 292.068 271.618745 
L 290.952 278.747405 
L 289.836 278.747405 
L 288.72 278.747405 
L 287.604 278.747405 
L 286.488 278.747405 
L 285.372 280.39413 
L 284.256 280.39413 
L 283.14 281.92929 
L 282.024 281.92929 
L 280.908 281.972687 
L 279.792 281.972687 
L 278.676 281.972687 
L 277.56 281.972687 
L 276.444 281.972687 
L 275.328 291.134271 
L 274.212 291.134271 
L 273.096 302.43235 
L 271.98 302.43235 
L 270.864 302.43235 
L 269.748 302.296007 
L 268.632 302.296007 
L 267.516 302.296007 
L 266.4 302.296007 
L 265.284 302.227989 
L 264.168 302.227989 
L 263.052 302.227989 
L 261.936 302.227989 
L 260.82 302.227989 
L 259.704 279.235154 
L 258.588 279.235154 
L 257.472 278.425139 
L 256.356 278.425139 
L 255.24 278.425139 
L 254.124 268.775192 
L 253.008 268.775192 
L 251.892 257.930864 
L 250.776 257.930864 
L 249.66 257.930864 
L 248.544 257.930864 
L 247.428 274.358832 
L 246.312 266.253054 
L 245.196 266.253054 
L 244.08 266.253054 
L 242.964 266.253054 
L 241.848 266.253054 
L 240.732 266.253054 
L 239.616 266.253054 
L 238.5 275.548311 
L 237.384 275.548311 
L 236.268 285.775326 
L 235.152 285.775326 
L 234.036 285.775326 
L 232.92 285.775326 
L 231.804 291.722999 
L 230.688 293.424627 
L 229.572 293.424627 
L 228.456 293.424627 
L 227.34 293.424627 
L 226.224 293.874358 
L 225.108 293.874358 
L 223.992 312.569136 
L 222.876 312.569136 
L 221.76 312.569136 
L 220.644 312.569136 
L 219.528 312.569136 
L 218.412 312.569136 
L 217.296 312.569136 
L 216.18 312.569136 
L 215.064 312.569136 
L 213.948 312.569136 
L 212.832 313.431712 
L 211.716 313.431712 
L 210.6 314.936961 
L 209.484 314.936961 
L 208.368 322.25066 
L 207.252 326.116056 
L 206.136 326.116056 
L 205.02 326.116056 
L 203.904 326.116056 
L 202.788 326.116056 
L 201.672 326.116056 
L 200.556 326.231504 
L 199.44 315.207877 
L 198.324 315.207877 
L 197.208 315.207877 
L 196.092 315.207877 
L 194.976 314.399954 
L 193.86 314.399954 
L 192.744 314.399954 
L 191.628 312.654656 
L 190.512 312.654656 
L 189.396 312.654656 
L 188.28 312.654656 
L 187.164 312.654656 
L 186.048 312.654656 
L 184.932 281.885935 
L 183.816 277.314967 
L 182.7 277.314967 
L 181.584 277.08058 
L 180.468 277.08058 
L 179.352 275.024058 
L 178.236 275.024058 
L 177.12 260.610413 
L 176.004 254.993159 
L 174.888 254.993159 
L 173.772 252.664071 
L 172.656 251.653901 
L 171.54 251.587353 
L 170.424 250.752777 
L 169.308 250.752777 
L 168.192 250.492396 
L 167.076 250.492396 
L 165.96 250.492396 
L 164.844 250.752777 
L 163.728 251.587353 
L 162.612 254.234712 
L 161.496 259.119663 
L 160.38 271.791718 
L 159.264 271.791718 
L 158.148 281.368893 
L 157.032 287.754395 
L 155.916 289.77248 
L 154.8 292.047385 
L 153.684 296.431202 
L 152.568 296.431202 
L 151.452 304.030586 
L 150.336 304.81541 
L 149.22 304.81541 
L 148.104 306.50181 
L 146.988 306.50181 
L 145.872 306.50181 
L 144.756 306.50181 
L 143.64 306.50181 
L 142.524 306.50181 
L 141.408 310.07599 
L 140.292 306.576578 
L 139.176 306.576578 
L 138.06 306.129811 
L 136.944 306.278243 
L 135.828 308.0212 
L 134.712 311.890735 
L 133.596 315.117391 
L 132.48 324.197269 
L 131.364 325.316078 
L 130.248 327.165854 
L 129.132 337.016001 
L 128.016 357.444641 
L 126.9 367.185609 
L 125.784 372.976374 
L 124.668 377.414418 
L 123.552 393.127159 
L 122.436 399.089967 
L 121.32 411.707841 
L 120.204 421.985315 
L 119.088 431.592581 
L 117.972 460.602831 
L 116.856 462.921165 
L 115.74 491.931416 
L 114.624 496.693457 
L 113.508 496.693457 
L 112.392 104563.23581 
L 111.276 104563.23581 
L 110.16 104563.23581 
L 109.044 104563.23581 
L 107.928 104563.23581 
L 106.812 104563.23581 
L 105.696 104563.23581 
L 104.58 104563.23581 
L 103.464 104563.23581 
L 102.348 104563.23581 
L 101.232 104563.23581 
L 100.116 104563.23581 
L 99 104563.23581 
z
" style="fill:#8080ff;fill-opacity:0.5;stroke:#8080ff;stroke-opacity:0.5;"/>
   </g>
   <g id="PolyCollection_2">
    <path clip-path="url(#p68e2955192)" d="M 99 104563.23581 
L 99 104563.23581 
L 100.116 104563.23581 
L 101.232 104563.23581 
L 102.348 104563.23581 
L 103.464 104563.23581 
L 104.58 104563.23581 
L 105.696 104563.23581 
L 106.812 104563.23581 
L 107.928 104563.23581 
L 109.044 104563.23581 
L 110.16 104563.23581 
L 111.276 104563.23581 
L 112.392 104563.23581 
L 113.508 104563.23581 
L 114.624 508.052265 
L 115.74 508.052265 
L 116.856 508.052265 
L 117.972 491.931416 
L 119.088 491.931416 
L 120.204 508.052265 
L 121.32 491.931416 
L 122.436 491.931416 
L 123.552 491.931416 
L 124.668 467.948296 
L 125.784 467.948296 
L 126.9 467.948296 
L 128.016 460.602831 
L 129.132 447.038826 
L 130.248 447.038826 
L 131.364 447.038826 
L 132.48 447.038826 
L 133.596 424.966456 
L 134.712 419.188696 
L 135.828 419.188696 
L 136.944 403.339849 
L 138.06 403.339849 
L 139.176 403.339849 
L 140.292 399.67317 
L 141.408 399.67317 
L 142.524 399.67317 
L 143.64 399.67317 
L 144.756 399.67317 
L 145.872 399.67317 
L 146.988 397.945663 
L 148.104 397.945663 
L 149.22 397.945663 
L 150.336 399.67317 
L 151.452 399.67317 
L 152.568 403.98096 
L 153.684 403.98096 
L 154.8 403.98096 
L 155.916 403.98096 
L 157.032 403.98096 
L 158.148 405.960733 
L 159.264 405.960733 
L 160.38 405.960733 
L 161.496 405.960733 
L 162.612 410.9482 
L 163.728 410.9482 
L 164.844 410.9482 
L 165.96 410.9482 
L 167.076 410.9482 
L 168.192 410.9482 
L 169.308 410.9482 
L 170.424 410.9482 
L 171.54 413.266534 
L 172.656 413.266534 
L 173.772 413.266534 
L 174.888 413.266534 
L 176.004 410.9482 
L 177.12 410.9482 
L 178.236 410.9482 
L 179.352 413.266534 
L 180.468 421.985315 
L 181.584 421.985315 
L 182.7 421.985315 
L 183.816 421.985315 
L 184.932 429.274247 
L 186.048 429.274247 
L 187.164 429.274247 
L 188.28 432.797921 
L 189.396 432.797921 
L 190.512 432.797921 
L 191.628 442.276784 
L 192.744 442.276784 
L 193.86 442.276784 
L 194.976 432.797921 
L 196.092 415.710242 
L 197.208 418.293665 
L 198.324 418.293665 
L 199.44 418.293665 
L 200.556 418.293665 
L 201.672 418.293665 
L 202.788 418.293665 
L 203.904 418.293665 
L 205.02 418.293665 
L 206.136 418.293665 
L 207.252 418.293665 
L 208.368 418.293665 
L 209.484 418.293665 
L 210.6 442.276784 
L 211.716 442.276784 
L 212.832 442.276784 
L 213.948 442.276784 
L 215.064 442.276784 
L 216.18 442.276784 
L 217.296 442.276784 
L 218.412 442.276784 
L 219.528 442.276784 
L 220.644 447.038826 
L 221.76 447.038826 
L 222.876 442.276784 
L 223.992 442.276784 
L 225.108 442.276784 
L 226.224 432.797921 
L 227.34 432.797921 
L 228.456 429.274247 
L 229.572 432.797921 
L 230.688 432.797921 
L 231.804 432.797921 
L 232.92 432.797921 
L 234.036 432.797921 
L 235.152 432.797921 
L 236.268 432.797921 
L 237.384 432.797921 
L 238.5 432.797921 
L 239.616 432.797921 
L 240.732 429.274247 
L 241.848 432.797921 
L 242.964 432.797921 
L 244.08 424.966456 
L 245.196 424.966456 
L 246.312 424.966456 
L 247.428 424.966456 
L 248.544 424.966456 
L 249.66 419.188696 
L 250.776 419.188696 
L 251.892 419.188696 
L 253.008 419.188696 
L 254.124 419.188696 
L 255.24 419.188696 
L 256.356 419.188696 
L 257.472 419.188696 
L 258.588 419.188696 
L 259.704 419.188696 
L 260.82 413.266534 
L 261.936 413.266534 
L 263.052 413.266534 
L 264.168 413.266534 
L 265.284 413.266534 
L 266.4 413.266534 
L 267.516 413.266534 
L 268.632 413.266534 
L 269.748 413.266534 
L 270.864 413.266534 
L 271.98 413.266534 
L 273.096 405.960733 
L 274.212 408.031214 
L 275.328 399.67317 
L 276.444 405.960733 
L 277.56 405.960733 
L 278.676 405.960733 
L 279.792 405.960733 
L 280.908 405.960733 
L 282.024 405.960733 
L 283.14 405.960733 
L 284.256 405.960733 
L 285.372 403.98096 
L 286.488 403.98096 
L 287.604 403.98096 
L 288.72 405.960733 
L 289.836 405.960733 
L 290.952 405.960733 
L 292.068 408.031214 
L 293.184 408.031214 
L 294.3 408.031214 
L 295.416 408.031214 
L 296.532 408.031214 
L 297.648 408.031214 
L 298.764 410.201115 
L 299.88 385.654913 
L 300.996 386.96508 
L 302.112 386.96508 
L 303.228 386.96508 
L 304.344 386.96508 
L 305.46 386.96508 
L 306.576 390.178445 
L 307.692 390.178445 
L 308.808 368.935412 
L 309.924 367.185609 
L 311.04 367.185609 
L 312.156 367.185609 
L 313.272 367.185609 
L 314.388 356.985778 
L 315.504 359.811548 
L 316.62 359.811548 
L 317.736 359.811548 
L 318.852 359.811548 
L 319.968 359.811548 
L 321.084 359.088371 
L 322.2 359.088371 
L 323.316 359.088371 
L 324.432 373.631424 
L 325.548 375.655535 
L 326.664 375.655535 
L 327.78 375.655535 
L 328.896 375.655535 
L 330.012 375.655535 
L 331.128 375.655535 
L 332.244 359.088371 
L 333.36 359.088371 
L 334.476 359.088371 
L 335.592 359.088371 
L 336.708 361.293569 
L 337.824 355.636496 
L 338.94 355.636496 
L 340.056 350.018538 
L 341.172 350.018538 
L 342.288 350.018538 
L 343.404 350.018538 
L 344.52 350.018538 
L 345.636 350.018538 
L 346.752 350.018538 
L 347.868 350.018538 
L 348.984 350.018538 
L 350.1 350.018538 
L 351.216 350.018538 
L 352.332 341.002099 
L 353.448 320.895152 
L 354.564 320.895152 
L 355.68 320.895152 
L 356.796 320.895152 
L 357.912 320.895152 
L 359.028 320.895152 
L 360.144 320.895152 
L 361.26 339.118594 
L 362.376 339.118594 
L 363.492 339.118594 
L 364.608 339.118594 
L 365.724 339.118594 
L 366.84 339.118594 
L 367.956 343.812361 
L 369.072 343.812361 
L 370.188 343.812361 
L 371.304 333.083296 
L 372.42 333.083296 
L 373.536 333.083296 
L 374.652 333.083296 
L 375.768 333.083296 
L 376.884 330.724626 
L 378 330.724626 
L 379.116 325.771473 
L 380.232 325.771473 
L 381.348 325.771473 
L 382.464 325.771473 
L 383.58 325.771473 
L 384.696 311.388535 
L 385.812 311.388535 
L 386.928 311.388535 
L 388.044 311.388535 
L 389.16 311.388535 
L 390.276 308.721952 
L 391.392 308.721952 
L 392.508 308.721952 
L 393.624 308.721952 
L 394.74 308.721952 
L 395.856 308.721952 
L 396.972 308.721952 
L 398.088 308.721952 
L 399.204 308.721952 
L 400.32 297.154379 
L 401.436 297.154379 
L 402.552 288.300446 
L 403.668 288.300446 
L 404.784 288.300446 
L 405.9 285.680968 
L 407.016 285.680968 
L 408.132 283.608377 
L 409.248 283.608377 
L 410.364 277.314967 
L 411.48 277.314967 
L 412.596 277.314967 
L 413.712 277.314967 
L 414.828 277.314967 
L 415.944 274.139248 
L 417.06 274.139248 
L 418.176 276.269666 
L 419.292 276.269666 
L 420.408 276.269666 
L 421.524 274.139248 
L 422.64 274.139248 
L 423.756 274.139248 
L 424.872 274.139248 
L 425.988 283.205025 
L 427.104 283.205025 
L 428.22 283.205025 
L 429.336 283.205025 
L 430.452 283.205025 
L 431.568 283.205025 
L 432.684 283.205025 
L 433.8 272.384825 
L 434.916 272.384825 
L 436.032 272.384825 
L 437.148 277.74786 
L 438.264 277.74786 
L 439.38 270.024368 
L 440.496 270.024368 
L 441.612 270.024368 
L 442.728 270.024368 
L 443.844 270.024368 
L 444.96 270.024368 
L 446.076 270.024368 
L 447.192 272.879178 
L 448.308 272.879178 
L 449.424 272.879178 
L 450.54 272.879178 
L 451.656 272.879178 
L 452.772 272.879178 
L 453.888 272.879178 
L 455.004 276.769942 
L 456.12 276.769942 
L 457.236 281.626675 
L 458.352 281.626675 
L 459.468 281.626675 
L 460.584 289.875788 
L 461.7 289.875788 
L 462.816 292.483553 
L 463.932 292.483553 
L 465.048 306.801629 
L 466.164 306.801629 
L 467.28 306.801629 
L 468.396 306.801629 
L 469.512 306.801629 
L 470.628 294.729859 
L 471.744 294.729859 
L 472.86 288.101118 
L 473.976 288.101118 
L 475.092 288.101118 
L 476.208 286.059589 
L 477.324 286.059589 
L 478.44 282.45282 
L 479.556 282.45282 
L 480.672 282.45282 
L 481.788 282.45282 
L 482.904 282.45282 
L 484.02 282.45282 
L 485.136 282.45282 
L 486.252 278.54572 
L 487.368 278.54572 
L 488.484 282.45282 
L 489.6 282.45282 
L 490.716 282.45282 
L 491.832 283.518432 
L 492.948 283.518432 
L 494.064 290.658224 
L 495.18 290.658224 
L 496.296 290.658224 
L 497.412 290.658224 
L 498.528 290.658224 
L 499.644 290.658224 
L 500.76 290.658224 
L 501.876 294.672319 
L 502.992 294.672319 
L 504.108 307.027806 
L 505.224 307.027806 
L 506.34 307.027806 
L 507.456 311.305374 
L 508.572 311.305374 
L 509.688 341.64779 
L 510.804 341.64779 
L 511.92 343.135231 
L 513.036 343.135231 
L 514.152 343.135231 
L 515.268 341.64779 
L 516.384 341.64779 
L 517.5 393.127159 
L 518.616 393.127159 
L 519.732 391.628759 
L 520.848 391.628759 
L 521.964 391.628759 
L 523.08 387.41038 
L 524.196 387.41038 
L 525.312 387.41038 
L 526.428 387.41038 
L 527.544 384.802103 
L 528.66 384.802103 
L 529.776 384.802103 
L 530.892 384.802103 
L 532.008 384.802103 
L 533.124 383.552321 
L 534.24 383.552321 
L 535.356 364.953175 
L 536.472 364.953175 
L 537.588 364.953175 
L 538.704 364.953175 
L 539.82 364.953175 
L 540.936 383.552321 
L 542.052 383.552321 
L 543.168 383.552321 
L 544.284 383.552321 
L 545.4 383.552321 
L 546.516 390.178445 
L 547.632 390.178445 
L 548.748 381.151884 
L 549.864 381.151884 
L 550.98 397.384195 
L 552.096 397.384195 
L 553.212 377.77456 
L 554.328 377.77456 
L 555.444 377.77456 
L 556.56 377.77456 
L 557.676 377.77456 
L 558.792 377.77456 
L 559.908 377.77456 
L 561.024 377.77456 
L 562.14 377.77456 
L 563.256 377.77456 
L 564.372 386.087429 
L 565.488 386.087429 
L 566.604 388.773225 
L 567.72 388.773225 
L 568.836 410.201115 
L 569.952 410.201115 
L 571.068 410.201115 
L 572.184 388.773225 
L 573.3 388.773225 
L 574.416 380.76392 
L 575.532 380.76392 
L 576.648 380.76392 
L 577.764 380.76392 
L 578.88 380.76392 
L 579.996 379.619616 
L 581.112 379.619616 
L 582.228 379.619616 
L 583.344 379.619616 
L 584.46 379.619616 
L 585.576 379.619616 
L 586.692 379.619616 
L 587.808 381.937949 
L 588.924 381.937949 
L 590.04 390.656731 
L 591.156 390.656731 
L 592.272 390.656731 
L 593.388 390.656731 
L 594.504 390.656731 
L 595.62 403.339849 
L 596.736 403.339849 
L 597.852 395.205576 
L 598.968 395.205576 
L 600.084 395.205576 
L 601.2 395.205576 
L 602.316 395.205576 
L 603.432 424.966456 
L 604.548 424.966456 
L 605.664 413.266534 
L 606.78 413.266534 
L 607.896 413.266534 
L 609.012 378.503569 
L 610.128 378.503569 
L 611.244 378.503569 
L 612.36 378.503569 
L 613.476 418.293665 
L 614.592 418.293665 
L 615.708 418.293665 
L 616.824 378.503569 
L 617.94 378.503569 
L 619.056 378.503569 
L 620.172 378.503569 
L 621.288 381.937949 
L 622.404 381.937949 
L 623.52 381.937949 
L 624.636 442.276784 
L 625.752 442.276784 
L 626.868 398.514193 
L 627.984 398.514193 
L 629.1 392.122727 
L 630.216 392.122727 
L 631.332 392.122727 
L 632.448 412.480469 
L 633.564 412.480469 
L 634.68 405.960733 
L 635.796 405.960733 
L 636.912 405.960733 
L 638.028 405.960733 
L 639.144 405.960733 
L 640.26 405.960733 
L 641.376 405.960733 
L 642.492 410.9482 
L 643.608 410.9482 
L 644.724 410.9482 
L 645.84 410.9482 
L 646.956 410.9482 
L 648.072 390.178445 
L 649.188 390.178445 
L 650.304 390.178445 
L 651.42 390.178445 
L 652.536 380.76392 
L 653.652 380.76392 
L 654.768 380.76392 
L 655.884 380.76392 
L 657 380.76392 
L 658.116 380.76392 
L 659.232 380.76392 
L 660.348 380.76392 
L 661.464 380.76392 
L 662.58 380.76392 
L 663.696 385.654913 
L 664.812 385.654913 
L 665.928 385.654913 
L 667.044 385.654913 
L 668.16 392.122727 
L 669.276 392.122727 
L 670.392 392.122727 
L 671.508 392.122727 
L 672.624 392.122727 
L 673.74 365.777471 
L 674.856 365.777471 
L 675.972 379.24453 
L 677.088 379.24453 
L 678.204 379.24453 
L 679.32 363.348359 
L 680.436 363.348359 
L 681.552 357.214627 
L 682.668 357.214627 
L 683.784 350.609365 
L 684.9 350.609365 
L 686.016 350.609365 
L 687.132 350.609365 
L 688.248 350.609365 
L 689.364 350.609365 
L 690.48 350.609365 
L 691.596 337.755749 
L 692.712 337.755749 
L 693.828 337.755749 
L 694.944 337.755749 
L 696.06 337.755749 
L 697.176 334.727026 
L 698.292 334.727026 
L 699.408 339.582163 
L 700.524 339.582163 
L 701.64 339.582163 
L 702.756 339.582163 
L 703.872 339.582163 
L 704.988 336.000282 
L 706.104 336.000282 
L 707.22 336.000282 
L 708.336 336.000282 
L 709.452 336.000282 
L 710.568 336.000282 
L 711.684 336.000282 
L 712.8 328.604626 
L 712.8 496.693457 
L 712.8 496.693457 
L 711.684 496.693457 
L 710.568 496.693457 
L 709.452 462.921165 
L 708.336 496.693457 
L 707.22 496.693457 
L 706.104 496.693457 
L 704.988 496.693457 
L 703.872 104563.23581 
L 702.756 104563.23581 
L 701.64 104563.23581 
L 700.524 104563.23581 
L 699.408 104563.23581 
L 698.292 104563.23581 
L 697.176 104563.23581 
L 696.06 104563.23581 
L 694.944 104563.23581 
L 693.828 104563.23581 
L 692.712 104563.23581 
L 691.596 104563.23581 
L 690.48 104563.23581 
L 689.364 104563.23581 
L 688.248 496.693457 
L 687.132 104563.23581 
L 686.016 104563.23581 
L 684.9 104563.23581 
L 683.784 104563.23581 
L 682.668 104563.23581 
L 681.552 104563.23581 
L 680.436 104563.23581 
L 679.32 104563.23581 
L 678.204 104563.23581 
L 677.088 104563.23581 
L 675.972 104563.23581 
L 674.856 104563.23581 
L 673.74 104563.23581 
L 672.624 104563.23581 
L 671.508 104563.23581 
L 670.392 104563.23581 
L 669.276 104563.23581 
L 668.16 104563.23581 
L 667.044 104563.23581 
L 665.928 104563.23581 
L 664.812 104563.23581 
L 663.696 104563.23581 
L 662.58 104563.23581 
L 661.464 104563.23581 
L 660.348 104563.23581 
L 659.232 104563.23581 
L 658.116 104563.23581 
L 657 104563.23581 
L 655.884 104563.23581 
L 654.768 104563.23581 
L 653.652 104563.23581 
L 652.536 104563.23581 
L 651.42 104563.23581 
L 650.304 104563.23581 
L 649.188 104563.23581 
L 648.072 104563.23581 
L 646.956 104563.23581 
L 645.84 104563.23581 
L 644.724 104563.23581 
L 643.608 104563.23581 
L 642.492 104563.23581 
L 641.376 104563.23581 
L 640.26 104563.23581 
L 639.144 104563.23581 
L 638.028 104563.23581 
L 636.912 104563.23581 
L 635.796 104563.23581 
L 634.68 104563.23581 
L 633.564 104563.23581 
L 632.448 104563.23581 
L 631.332 104563.23581 
L 630.216 104563.23581 
L 629.1 104563.23581 
L 627.984 104563.23581 
L 626.868 104563.23581 
L 625.752 104563.23581 
L 624.636 104563.23581 
L 623.52 104563.23581 
L 622.404 104563.23581 
L 621.288 104563.23581 
L 620.172 104563.23581 
L 619.056 104563.23581 
L 617.94 104563.23581 
L 616.824 104563.23581 
L 615.708 104563.23581 
L 614.592 104563.23581 
L 613.476 104563.23581 
L 612.36 104563.23581 
L 611.244 104563.23581 
L 610.128 104563.23581 
L 609.012 104563.23581 
L 607.896 104563.23581 
L 606.78 104563.23581 
L 605.664 104563.23581 
L 604.548 104563.23581 
L 603.432 104563.23581 
L 602.316 104563.23581 
L 601.2 104563.23581 
L 600.084 104563.23581 
L 598.968 104563.23581 
L 597.852 104563.23581 
L 596.736 104563.23581 
L 595.62 104563.23581 
L 594.504 104563.23581 
L 593.388 104563.23581 
L 592.272 104563.23581 
L 591.156 104563.23581 
L 590.04 104563.23581 
L 588.924 104563.23581 
L 587.808 104563.23581 
L 586.692 104563.23581 
L 585.576 104563.23581 
L 584.46 104563.23581 
L 583.344 104563.23581 
L 582.228 104563.23581 
L 581.112 104563.23581 
L 579.996 104563.23581 
L 578.88 104563.23581 
L 577.764 104563.23581 
L 576.648 104563.23581 
L 575.532 104563.23581 
L 574.416 104563.23581 
L 573.3 104563.23581 
L 572.184 104563.23581 
L 571.068 104563.23581 
L 569.952 104563.23581 
L 568.836 104563.23581 
L 567.72 104563.23581 
L 566.604 104563.23581 
L 565.488 104563.23581 
L 564.372 104563.23581 
L 563.256 104563.23581 
L 562.14 104563.23581 
L 561.024 104563.23581 
L 559.908 104563.23581 
L 558.792 104563.23581 
L 557.676 104563.23581 
L 556.56 104563.23581 
L 555.444 104563.23581 
L 554.328 104563.23581 
L 553.212 104563.23581 
L 552.096 104563.23581 
L 550.98 104563.23581 
L 549.864 104563.23581 
L 548.748 104563.23581 
L 547.632 104563.23581 
L 546.516 104563.23581 
L 545.4 104563.23581 
L 544.284 104563.23581 
L 543.168 104563.23581 
L 542.052 104563.23581 
L 540.936 104563.23581 
L 539.82 104563.23581 
L 538.704 104563.23581 
L 537.588 104563.23581 
L 536.472 104563.23581 
L 535.356 104563.23581 
L 534.24 104563.23581 
L 533.124 104563.23581 
L 532.008 104563.23581 
L 530.892 104563.23581 
L 529.776 104563.23581 
L 528.66 104563.23581 
L 527.544 104563.23581 
L 526.428 104563.23581 
L 525.312 104563.23581 
L 524.196 104563.23581 
L 523.08 104563.23581 
L 521.964 104563.23581 
L 520.848 104563.23581 
L 519.732 104563.23581 
L 518.616 104563.23581 
L 517.5 104563.23581 
L 516.384 104563.23581 
L 515.268 104563.23581 
L 514.152 104563.23581 
L 513.036 104563.23581 
L 511.92 104563.23581 
L 510.804 104563.23581 
L 509.688 104563.23581 
L 508.572 104563.23581 
L 507.456 104563.23581 
L 506.34 104563.23581 
L 505.224 104563.23581 
L 504.108 104563.23581 
L 502.992 104563.23581 
L 501.876 104563.23581 
L 500.76 104563.23581 
L 499.644 104563.23581 
L 498.528 104563.23581 
L 497.412 104563.23581 
L 496.296 104563.23581 
L 495.18 104563.23581 
L 494.064 104563.23581 
L 492.948 104563.23581 
L 491.832 104563.23581 
L 490.716 104563.23581 
L 489.6 104563.23581 
L 488.484 104563.23581 
L 487.368 104563.23581 
L 486.252 104563.23581 
L 485.136 104563.23581 
L 484.02 104563.23581 
L 482.904 104563.23581 
L 481.788 104563.23581 
L 480.672 104563.23581 
L 479.556 104563.23581 
L 478.44 104563.23581 
L 477.324 104563.23581 
L 476.208 104563.23581 
L 475.092 104563.23581 
L 473.976 104563.23581 
L 472.86 104563.23581 
L 471.744 104563.23581 
L 470.628 104563.23581 
L 469.512 104563.23581 
L 468.396 104563.23581 
L 467.28 104563.23581 
L 466.164 104563.23581 
L 465.048 104563.23581 
L 463.932 104563.23581 
L 462.816 104563.23581 
L 461.7 104563.23581 
L 460.584 104563.23581 
L 459.468 104563.23581 
L 458.352 104563.23581 
L 457.236 104563.23581 
L 456.12 104563.23581 
L 455.004 104563.23581 
L 453.888 104563.23581 
L 452.772 104563.23581 
L 451.656 104563.23581 
L 450.54 104563.23581 
L 449.424 104563.23581 
L 448.308 104563.23581 
L 447.192 104563.23581 
L 446.076 104563.23581 
L 444.96 104563.23581 
L 443.844 104563.23581 
L 442.728 104563.23581 
L 441.612 104563.23581 
L 440.496 104563.23581 
L 439.38 104563.23581 
L 438.264 104563.23581 
L 437.148 104563.23581 
L 436.032 104563.23581 
L 434.916 104563.23581 
L 433.8 104563.23581 
L 432.684 104563.23581 
L 431.568 104563.23581 
L 430.452 104563.23581 
L 429.336 104563.23581 
L 428.22 104563.23581 
L 427.104 104563.23581 
L 425.988 104563.23581 
L 424.872 104563.23581 
L 423.756 104563.23581 
L 422.64 104563.23581 
L 421.524 104563.23581 
L 420.408 104563.23581 
L 419.292 104563.23581 
L 418.176 104563.23581 
L 417.06 104563.23581 
L 415.944 104563.23581 
L 414.828 104563.23581 
L 413.712 104563.23581 
L 412.596 104563.23581 
L 411.48 104563.23581 
L 410.364 104563.23581 
L 409.248 104563.23581 
L 408.132 104563.23581 
L 407.016 104563.23581 
L 405.9 104563.23581 
L 404.784 104563.23581 
L 403.668 104563.23581 
L 402.552 104563.23581 
L 401.436 104563.23581 
L 400.32 104563.23581 
L 399.204 104563.23581 
L 398.088 104563.23581 
L 396.972 104563.23581 
L 395.856 104563.23581 
L 394.74 104563.23581 
L 393.624 104563.23581 
L 392.508 104563.23581 
L 391.392 104563.23581 
L 390.276 104563.23581 
L 389.16 104563.23581 
L 388.044 104563.23581 
L 386.928 104563.23581 
L 385.812 104563.23581 
L 384.696 104563.23581 
L 383.58 104563.23581 
L 382.464 104563.23581 
L 381.348 104563.23581 
L 380.232 104563.23581 
L 379.116 104563.23581 
L 378 104563.23581 
L 376.884 104563.23581 
L 375.768 104563.23581 
L 374.652 104563.23581 
L 373.536 104563.23581 
L 372.42 104563.23581 
L 371.304 104563.23581 
L 370.188 104563.23581 
L 369.072 104563.23581 
L 367.956 104563.23581 
L 366.84 104563.23581 
L 365.724 104563.23581 
L 364.608 104563.23581 
L 363.492 104563.23581 
L 362.376 104563.23581 
L 361.26 104563.23581 
L 360.144 104563.23581 
L 359.028 104563.23581 
L 357.912 104563.23581 
L 356.796 104563.23581 
L 355.68 496.693457 
L 354.564 496.693457 
L 353.448 445.395096 
L 352.332 445.395096 
L 351.216 496.693457 
L 350.1 496.693457 
L 348.984 496.693457 
L 347.868 496.693457 
L 346.752 496.693457 
L 345.636 496.693457 
L 344.52 496.693457 
L 343.404 496.693457 
L 342.288 496.693457 
L 341.172 465.364873 
L 340.056 104563.23581 
L 338.94 104563.23581 
L 337.824 104563.23581 
L 336.708 104563.23581 
L 335.592 496.693457 
L 334.476 496.693457 
L 333.36 491.931416 
L 332.244 491.931416 
L 331.128 491.931416 
L 330.012 491.931416 
L 328.896 491.931416 
L 327.78 491.931416 
L 326.664 491.931416 
L 325.548 491.931416 
L 324.432 445.395096 
L 323.316 430.418551 
L 322.2 443.809053 
L 321.084 443.809053 
L 319.968 462.921165 
L 318.852 462.921165 
L 317.736 462.921165 
L 316.62 462.921165 
L 315.504 462.921165 
L 314.388 460.602831 
L 313.272 460.602831 
L 312.156 460.602831 
L 311.04 462.921165 
L 309.924 491.931416 
L 308.808 491.931416 
L 307.692 491.931416 
L 306.576 491.931416 
L 305.46 491.931416 
L 304.344 491.931416 
L 303.228 491.931416 
L 302.112 491.931416 
L 300.996 491.931416 
L 299.88 491.931416 
L 298.764 491.931416 
L 297.648 491.931416 
L 296.532 491.931416 
L 295.416 491.931416 
L 294.3 491.931416 
L 293.184 491.931416 
L 292.068 491.931416 
L 290.952 491.931416 
L 289.836 491.931416 
L 288.72 491.931416 
L 287.604 491.931416 
L 286.488 491.931416 
L 285.372 491.931416 
L 284.256 491.931416 
L 283.14 491.931416 
L 282.024 491.931416 
L 280.908 491.931416 
L 279.792 491.931416 
L 278.676 491.931416 
L 277.56 491.931416 
L 276.444 491.931416 
L 275.328 491.931416 
L 274.212 491.931416 
L 273.096 491.931416 
L 271.98 491.931416 
L 270.864 462.921165 
L 269.748 443.809053 
L 268.632 443.809053 
L 267.516 460.602831 
L 266.4 460.602831 
L 265.284 460.602831 
L 264.168 460.602831 
L 263.052 462.921165 
L 261.936 460.602831 
L 260.82 460.602831 
L 259.704 462.921165 
L 258.588 462.921165 
L 257.472 462.921165 
L 256.356 491.931416 
L 255.24 491.931416 
L 254.124 491.931416 
L 253.008 491.931416 
L 251.892 491.931416 
L 250.776 491.931416 
L 249.66 491.931416 
L 248.544 491.931416 
L 247.428 491.931416 
L 246.312 491.931416 
L 245.196 491.931416 
L 244.08 491.931416 
L 242.964 491.931416 
L 241.848 491.931416 
L 240.732 491.931416 
L 239.616 491.931416 
L 238.5 491.931416 
L 237.384 491.931416 
L 236.268 491.931416 
L 235.152 491.931416 
L 234.036 491.931416 
L 232.92 491.931416 
L 231.804 491.931416 
L 230.688 491.931416 
L 229.572 491.931416 
L 228.456 491.931416 
L 227.34 491.931416 
L 226.224 491.931416 
L 225.108 491.931416 
L 223.992 491.931416 
L 222.876 491.931416 
L 221.76 491.931416 
L 220.644 491.931416 
L 219.528 491.931416 
L 218.412 491.931416 
L 217.296 491.931416 
L 216.18 491.931416 
L 215.064 491.931416 
L 213.948 491.931416 
L 212.832 491.931416 
L 211.716 496.693457 
L 210.6 491.931416 
L 209.484 491.931416 
L 208.368 491.931416 
L 207.252 491.931416 
L 206.136 496.693457 
L 205.02 496.693457 
L 203.904 496.693457 
L 202.788 496.693457 
L 201.672 496.693457 
L 200.556 496.693457 
L 199.44 104563.23581 
L 198.324 104563.23581 
L 197.208 104563.23581 
L 196.092 496.693457 
L 194.976 496.693457 
L 193.86 496.693457 
L 192.744 104563.23581 
L 191.628 496.693457 
L 190.512 491.931416 
L 189.396 491.931416 
L 188.28 491.931416 
L 187.164 491.931416 
L 186.048 491.931416 
L 184.932 491.931416 
L 183.816 491.931416 
L 182.7 462.921165 
L 181.584 491.931416 
L 180.468 491.931416 
L 179.352 491.931416 
L 178.236 462.921165 
L 177.12 460.602831 
L 176.004 460.602831 
L 174.888 460.602831 
L 173.772 462.921165 
L 172.656 460.602831 
L 171.54 462.921165 
L 170.424 462.921165 
L 169.308 462.921165 
L 168.192 462.921165 
L 167.076 462.921165 
L 165.96 462.921165 
L 164.844 462.921165 
L 163.728 462.921165 
L 162.612 462.921165 
L 161.496 462.921165 
L 160.38 462.921165 
L 159.264 462.921165 
L 158.148 460.602831 
L 157.032 460.602831 
L 155.916 431.592581 
L 154.8 431.592581 
L 153.684 431.592581 
L 152.568 429.274247 
L 151.452 429.274247 
L 150.336 429.274247 
L 149.22 429.274247 
L 148.104 429.274247 
L 146.988 429.274247 
L 145.872 431.592581 
L 144.756 431.592581 
L 143.64 431.592581 
L 142.524 443.809053 
L 141.408 460.602831 
L 140.292 460.602831 
L 139.176 460.602831 
L 138.06 460.602831 
L 136.944 460.602831 
L 135.828 462.921165 
L 134.712 491.931416 
L 133.596 491.931416 
L 132.48 491.931416 
L 131.364 491.931416 
L 130.248 496.693457 
L 129.132 496.693457 
L 128.016 104563.23581 
L 126.9 104563.23581 
L 125.784 104563.23581 
L 124.668 104563.23581 
L 123.552 104563.23581 
L 122.436 104563.23581 
L 121.32 104563.23581 
L 120.204 104563.23581 
L 119.088 104563.23581 
L 117.972 104563.23581 
L 116.856 104563.23581 
L 115.74 104563.23581 
L 114.624 104563.23581 
L 113.508 104563.23581 
L 112.392 104563.23581 
L 111.276 104563.23581 
L 110.16 104563.23581 
L 109.044 104563.23581 
L 107.928 104563.23581 
L 106.812 104563.23581 
L 105.696 104563.23581 
L 104.58 104563.23581 
L 103.464 104563.23581 
L 102.348 104563.23581 
L 101.232 104563.23581 
L 100.116 104563.23581 
L 99 104563.23581 
z
" style="fill:#ff8080;fill-opacity:0.5;stroke:#ff8080;stroke-opacity:0.5;"/>
   </g>
   <g id="matplotlib.axis_1">
    <g id="xtick_1">
     <g id="line2d_1">
      <path clip-path="url(#p68e2955192)" d="M 99 544.68 
L 99 73.44 
" style="fill:none;stroke:#b0b0b0;stroke-linecap:square;stroke-width:0.8;"/>
     </g>
     <g id="line2d_2">
      <defs>
       <path d="M 0 0 
L 0 3.5 
" id="m4abed1d830" style="stroke:#000000;stroke-width:0.8;"/>
      </defs>
      <g>
       <use style="stroke:#000000;stroke-width:0.8;" x="99" xlink:href="#m4abed1d830" y="544.68"/>
      </g>
     </g>
    </g>
    <g id="xtick_2">
     <g id="line2d_3">
      <path clip-path="url(#p68e2955192)" d="M 126.9 544.68 
L 126.9 73.44 
" style="fill:none;stroke:#b0b0b0;stroke-linecap:square;stroke-width:0.8;"/>
     </g>
     <g id="line2d_4">
      <g>
       <use style="stroke:#000000;stroke-width:0.8;" x="126.9" xlink:href="#m4abed1d830" y="544.68"/>
      </g>
     </g>
     <g id="text_1">
      <!-- Apr -->
      <g transform="translate(118.25 559.278437)scale(0.1 -0.1)">
       <defs>
        <path d="M 2188 4044 
L 1331 1722 
L 3047 1722 
L 2188 4044 
z
M 1831 4666 
L 2547 4666 
L 4325 0 
L 3669 0 
L 3244 1197 
L 1141 1197 
L 716 0 
L 50 0 
L 1831 4666 
z
" id="DejaVuSans-41" transform="scale(0.015625)"/>
        <path d="M 1159 525 
L 1159 -1331 
L 581 -1331 
L 581 3500 
L 1159 3500 
L 1159 2969 
Q 1341 3281 1617 3432 
Q 1894 3584 2278 3584 
Q 2916 3584 3314 3078 
Q 3713 2572 3713 1747 
Q 3713 922 3314 415 
Q 2916 -91 2278 -91 
Q 1894 -91 1617 61 
Q 1341 213 1159 525 
z
M 3116 1747 
Q 3116 2381 2855 2742 
Q 2594 3103 2138 3103 
Q 1681 3103 1420 2742 
Q 1159 2381 1159 1747 
Q 1159 1113 1420 752 
Q 1681 391 2138 391 
Q 2594 391 2855 752 
Q 3116 1113 3116 1747 
z
" id="DejaVuSans-70" transform="scale(0.015625)"/>
        <path d="M 2631 2963 
Q 2534 3019 2420 3045 
Q 2306 3072 2169 3072 
Q 1681 3072 1420 2755 
Q 1159 2438 1159 1844 
L 1159 0 
L 581 0 
L 581 3500 
L 1159 3500 
L 1159 2956 
Q 1341 3275 1631 3429 
Q 1922 3584 2338 3584 
Q 2397 3584 2469 3576 
Q 2541 3569 2628 3553 
L 2631 2963 
z
" id="DejaVuSans-72" transform="scale(0.015625)"/>
       </defs>
       <use xlink:href="#DejaVuSans-41"/>
       <use x="68.408203" xlink:href="#DejaVuSans-70"/>
       <use x="131.884766" xlink:href="#DejaVuSans-72"/>
      </g>
     </g>
    </g>
    <g id="xtick_3">
     <g id="line2d_5">
      <path clip-path="url(#p68e2955192)" d="M 228.456 544.68 
L 228.456 73.44 
" style="fill:none;stroke:#b0b0b0;stroke-linecap:square;stroke-width:0.8;"/>
     </g>
     <g id="line2d_6">
      <g>
       <use style="stroke:#000000;stroke-width:0.8;" x="228.456" xlink:href="#m4abed1d830" y="544.68"/>
      </g>
     </g>
     <g id="text_2">
      <!-- Jul -->
      <g transform="translate(222.423188 559.278437)scale(0.1 -0.1)">
       <defs>
        <path d="M 628 4666 
L 1259 4666 
L 1259 325 
Q 1259 -519 939 -900 
Q 619 -1281 -91 -1281 
L -331 -1281 
L -331 -750 
L -134 -750 
Q 284 -750 456 -515 
Q 628 -281 628 325 
L 628 4666 
z
" id="DejaVuSans-4a" transform="scale(0.015625)"/>
        <path d="M 544 1381 
L 544 3500 
L 1119 3500 
L 1119 1403 
Q 1119 906 1312 657 
Q 1506 409 1894 409 
Q 2359 409 2629 706 
Q 2900 1003 2900 1516 
L 2900 3500 
L 3475 3500 
L 3475 0 
L 2900 0 
L 2900 538 
Q 2691 219 2414 64 
Q 2138 -91 1772 -91 
Q 1169 -91 856 284 
Q 544 659 544 1381 
z
M 1991 3584 
L 1991 3584 
z
" id="DejaVuSans-75" transform="scale(0.015625)"/>
        <path d="M 603 4863 
L 1178 4863 
L 1178 0 
L 603 0 
L 603 4863 
z
" id="DejaVuSans-6c" transform="scale(0.015625)"/>
       </defs>
       <use xlink:href="#DejaVuSans-4a"/>
       <use x="29.492188" xlink:href="#DejaVuSans-75"/>
       <use x="92.871094" xlink:href="#DejaVuSans-6c"/>
      </g>
     </g>
    </g>
    <g id="xtick_4">
     <g id="line2d_7">
      <path clip-path="url(#p68e2955192)" d="M 331.128 544.68 
L 331.128 73.44 
" style="fill:none;stroke:#b0b0b0;stroke-linecap:square;stroke-width:0.8;"/>
     </g>
     <g id="line2d_8">
      <g>
       <use style="stroke:#000000;stroke-width:0.8;" x="331.128" xlink:href="#m4abed1d830" y="544.68"/>
      </g>
     </g>
     <g id="text_3">
      <!-- Oct -->
      <g transform="translate(322.482688 559.278437)scale(0.1 -0.1)">
       <defs>
        <path d="M 2522 4238 
Q 1834 4238 1429 3725 
Q 1025 3213 1025 2328 
Q 1025 1447 1429 934 
Q 1834 422 2522 422 
Q 3209 422 3611 934 
Q 4013 1447 4013 2328 
Q 4013 3213 3611 3725 
Q 3209 4238 2522 4238 
z
M 2522 4750 
Q 3503 4750 4090 4092 
Q 4678 3434 4678 2328 
Q 4678 1225 4090 567 
Q 3503 -91 2522 -91 
Q 1538 -91 948 565 
Q 359 1222 359 2328 
Q 359 3434 948 4092 
Q 1538 4750 2522 4750 
z
" id="DejaVuSans-4f" transform="scale(0.015625)"/>
        <path d="M 3122 3366 
L 3122 2828 
Q 2878 2963 2633 3030 
Q 2388 3097 2138 3097 
Q 1578 3097 1268 2742 
Q 959 2388 959 1747 
Q 959 1106 1268 751 
Q 1578 397 2138 397 
Q 2388 397 2633 464 
Q 2878 531 3122 666 
L 3122 134 
Q 2881 22 2623 -34 
Q 2366 -91 2075 -91 
Q 1284 -91 818 406 
Q 353 903 353 1747 
Q 353 2603 823 3093 
Q 1294 3584 2113 3584 
Q 2378 3584 2631 3529 
Q 2884 3475 3122 3366 
z
" id="DejaVuSans-63" transform="scale(0.015625)"/>
        <path d="M 1172 4494 
L 1172 3500 
L 2356 3500 
L 2356 3053 
L 1172 3053 
L 1172 1153 
Q 1172 725 1289 603 
Q 1406 481 1766 481 
L 2356 481 
L 2356 0 
L 1766 0 
Q 1100 0 847 248 
Q 594 497 594 1153 
L 594 3053 
L 172 3053 
L 172 3500 
L 594 3500 
L 594 4494 
L 1172 4494 
z
" id="DejaVuSans-74" transform="scale(0.015625)"/>
       </defs>
       <use xlink:href="#DejaVuSans-4f"/>
       <use x="78.710938" xlink:href="#DejaVuSans-63"/>
       <use x="133.691406" xlink:href="#DejaVuSans-74"/>
      </g>
     </g>
    </g>
    <g id="xtick_5">
     <g id="line2d_9">
      <path clip-path="url(#p68e2955192)" d="M 433.8 544.68 
L 433.8 73.44 
" style="fill:none;stroke:#b0b0b0;stroke-linecap:square;stroke-width:0.8;"/>
     </g>
     <g id="line2d_10">
      <g>
       <use style="stroke:#000000;stroke-width:0.8;" x="433.8" xlink:href="#m4abed1d830" y="544.68"/>
      </g>
     </g>
     <g id="text_4">
      <!-- Jan -->
      <g transform="translate(426.092188 559.278437)scale(0.1 -0.1)">
       <defs>
        <path d="M 2194 1759 
Q 1497 1759 1228 1600 
Q 959 1441 959 1056 
Q 959 750 1161 570 
Q 1363 391 1709 391 
Q 2188 391 2477 730 
Q 2766 1069 2766 1631 
L 2766 1759 
L 2194 1759 
z
M 3341 1997 
L 3341 0 
L 2766 0 
L 2766 531 
Q 2569 213 2275 61 
Q 1981 -91 1556 -91 
Q 1019 -91 701 211 
Q 384 513 384 1019 
Q 384 1609 779 1909 
Q 1175 2209 1959 2209 
L 2766 2209 
L 2766 2266 
Q 2766 2663 2505 2880 
Q 2244 3097 1772 3097 
Q 1472 3097 1187 3025 
Q 903 2953 641 2809 
L 641 3341 
Q 956 3463 1253 3523 
Q 1550 3584 1831 3584 
Q 2591 3584 2966 3190 
Q 3341 2797 3341 1997 
z
" id="DejaVuSans-61" transform="scale(0.015625)"/>
        <path d="M 3513 2113 
L 3513 0 
L 2938 0 
L 2938 2094 
Q 2938 2591 2744 2837 
Q 2550 3084 2163 3084 
Q 1697 3084 1428 2787 
Q 1159 2491 1159 1978 
L 1159 0 
L 581 0 
L 581 3500 
L 1159 3500 
L 1159 2956 
Q 1366 3272 1645 3428 
Q 1925 3584 2291 3584 
Q 2894 3584 3203 3211 
Q 3513 2838 3513 2113 
z
" id="DejaVuSans-6e" transform="scale(0.015625)"/>
       </defs>
       <use xlink:href="#DejaVuSans-4a"/>
       <use x="29.492188" xlink:href="#DejaVuSans-61"/>
       <use x="90.771484" xlink:href="#DejaVuSans-6e"/>
      </g>
      <!-- 2021 -->
      <g transform="translate(421.075 570.47625)scale(0.1 -0.1)">
       <defs>
        <path d="M 1228 531 
L 3431 531 
L 3431 0 
L 469 0 
L 469 531 
Q 828 903 1448 1529 
Q 2069 2156 2228 2338 
Q 2531 2678 2651 2914 
Q 2772 3150 2772 3378 
Q 2772 3750 2511 3984 
Q 2250 4219 1831 4219 
Q 1534 4219 1204 4116 
Q 875 4013 500 3803 
L 500 4441 
Q 881 4594 1212 4672 
Q 1544 4750 1819 4750 
Q 2544 4750 2975 4387 
Q 3406 4025 3406 3419 
Q 3406 3131 3298 2873 
Q 3191 2616 2906 2266 
Q 2828 2175 2409 1742 
Q 1991 1309 1228 531 
z
" id="DejaVuSans-32" transform="scale(0.015625)"/>
        <path d="M 2034 4250 
Q 1547 4250 1301 3770 
Q 1056 3291 1056 2328 
Q 1056 1369 1301 889 
Q 1547 409 2034 409 
Q 2525 409 2770 889 
Q 3016 1369 3016 2328 
Q 3016 3291 2770 3770 
Q 2525 4250 2034 4250 
z
M 2034 4750 
Q 2819 4750 3233 4129 
Q 3647 3509 3647 2328 
Q 3647 1150 3233 529 
Q 2819 -91 2034 -91 
Q 1250 -91 836 529 
Q 422 1150 422 2328 
Q 422 3509 836 4129 
Q 1250 4750 2034 4750 
z
" id="DejaVuSans-30" transform="scale(0.015625)"/>
        <path d="M 794 531 
L 1825 531 
L 1825 4091 
L 703 3866 
L 703 4441 
L 1819 4666 
L 2450 4666 
L 2450 531 
L 3481 531 
L 3481 0 
L 794 0 
L 794 531 
z
" id="DejaVuSans-31" transform="scale(0.015625)"/>
       </defs>
       <use xlink:href="#DejaVuSans-32"/>
       <use x="63.623047" xlink:href="#DejaVuSans-30"/>
       <use x="127.246094" xlink:href="#DejaVuSans-32"/>
       <use x="190.869141" xlink:href="#DejaVuSans-31"/>
      </g>
     </g>
    </g>
    <g id="xtick_6">
     <g id="line2d_11">
      <path clip-path="url(#p68e2955192)" d="M 534.24 544.68 
L 534.24 73.44 
" style="fill:none;stroke:#b0b0b0;stroke-linecap:square;stroke-width:0.8;"/>
     </g>
     <g id="line2d_12">
      <g>
       <use style="stroke:#000000;stroke-width:0.8;" x="534.24" xlink:href="#m4abed1d830" y="544.68"/>
      </g>
     </g>
     <g id="text_5">
      <!-- Apr -->
      <g transform="translate(525.59 559.278437)scale(0.1 -0.1)">
       <use xlink:href="#DejaVuSans-41"/>
       <use x="68.408203" xlink:href="#DejaVuSans-70"/>
       <use x="131.884766" xlink:href="#DejaVuSans-72"/>
      </g>
     </g>
    </g>
    <g id="xtick_7">
     <g id="line2d_13">
      <path clip-path="url(#p68e2955192)" d="M 635.796 544.68 
L 635.796 73.44 
" style="fill:none;stroke:#b0b0b0;stroke-linecap:square;stroke-width:0.8;"/>
     </g>
     <g id="line2d_14">
      <g>
       <use style="stroke:#000000;stroke-width:0.8;" x="635.796" xlink:href="#m4abed1d830" y="544.68"/>
      </g>
     </g>
     <g id="text_6">
      <!-- Jul -->
      <g transform="translate(629.763188 559.278437)scale(0.1 -0.1)">
       <use xlink:href="#DejaVuSans-4a"/>
       <use x="29.492188" xlink:href="#DejaVuSans-75"/>
       <use x="92.871094" xlink:href="#DejaVuSans-6c"/>
      </g>
     </g>
    </g>
    <g id="xtick_8">
     <g id="line2d_15">
      <path clip-path="url(#p68e2955192)" d="M 712.8 544.68 
L 712.8 73.44 
" style="fill:none;stroke:#b0b0b0;stroke-linecap:square;stroke-width:0.8;"/>
     </g>
     <g id="line2d_16">
      <g>
       <use style="stroke:#000000;stroke-width:0.8;" x="712.8" xlink:href="#m4abed1d830" y="544.68"/>
      </g>
     </g>
    </g>
    <g id="xtick_9">
     <g id="line2d_17">
      <defs>
       <path d="M 0 0 
L 0 2 
" id="mbe9820739d" style="stroke:#000000;stroke-width:0.6;"/>
      </defs>
      <g>
       <use style="stroke:#000000;stroke-width:0.6;" x="160.38" xlink:href="#mbe9820739d" y="544.68"/>
      </g>
     </g>
    </g>
    <g id="xtick_10">
     <g id="line2d_18">
      <g>
       <use style="stroke:#000000;stroke-width:0.6;" x="194.976" xlink:href="#mbe9820739d" y="544.68"/>
      </g>
     </g>
    </g>
    <g id="xtick_11">
     <g id="line2d_19">
      <g>
       <use style="stroke:#000000;stroke-width:0.6;" x="263.052" xlink:href="#mbe9820739d" y="544.68"/>
      </g>
     </g>
    </g>
    <g id="xtick_12">
     <g id="line2d_20">
      <g>
       <use style="stroke:#000000;stroke-width:0.6;" x="297.648" xlink:href="#mbe9820739d" y="544.68"/>
      </g>
     </g>
    </g>
    <g id="xtick_13">
     <g id="line2d_21">
      <g>
       <use style="stroke:#000000;stroke-width:0.6;" x="365.724" xlink:href="#mbe9820739d" y="544.68"/>
      </g>
     </g>
    </g>
    <g id="xtick_14">
     <g id="line2d_22">
      <g>
       <use style="stroke:#000000;stroke-width:0.6;" x="399.204" xlink:href="#mbe9820739d" y="544.68"/>
      </g>
     </g>
    </g>
    <g id="xtick_15">
     <g id="line2d_23">
      <g>
       <use style="stroke:#000000;stroke-width:0.6;" x="468.396" xlink:href="#mbe9820739d" y="544.68"/>
      </g>
     </g>
    </g>
    <g id="xtick_16">
     <g id="line2d_24">
      <g>
       <use style="stroke:#000000;stroke-width:0.6;" x="499.644" xlink:href="#mbe9820739d" y="544.68"/>
      </g>
     </g>
    </g>
    <g id="xtick_17">
     <g id="line2d_25">
      <g>
       <use style="stroke:#000000;stroke-width:0.6;" x="567.72" xlink:href="#mbe9820739d" y="544.68"/>
      </g>
     </g>
    </g>
    <g id="xtick_18">
     <g id="line2d_26">
      <g>
       <use style="stroke:#000000;stroke-width:0.6;" x="602.316" xlink:href="#mbe9820739d" y="544.68"/>
      </g>
     </g>
    </g>
    <g id="xtick_19">
     <g id="line2d_27">
      <g>
       <use style="stroke:#000000;stroke-width:0.6;" x="670.392" xlink:href="#mbe9820739d" y="544.68"/>
      </g>
     </g>
    </g>
    <g id="xtick_20">
     <g id="line2d_28">
      <g>
       <use style="stroke:#000000;stroke-width:0.6;" x="704.988" xlink:href="#mbe9820739d" y="544.68"/>
      </g>
     </g>
    </g>
    <g id="text_7">
     <!-- Date -->
     <g transform="translate(393.949219 584.154375)scale(0.1 -0.1)">
      <defs>
       <path d="M 1259 4147 
L 1259 519 
L 2022 519 
Q 2988 519 3436 956 
Q 3884 1394 3884 2338 
Q 3884 3275 3436 3711 
Q 2988 4147 2022 4147 
L 1259 4147 
z
M 628 4666 
L 1925 4666 
Q 3281 4666 3915 4102 
Q 4550 3538 4550 2338 
Q 4550 1131 3912 565 
Q 3275 0 1925 0 
L 628 0 
L 628 4666 
z
" id="DejaVuSans-44" transform="scale(0.015625)"/>
       <path d="M 3597 1894 
L 3597 1613 
L 953 1613 
Q 991 1019 1311 708 
Q 1631 397 2203 397 
Q 2534 397 2845 478 
Q 3156 559 3463 722 
L 3463 178 
Q 3153 47 2828 -22 
Q 2503 -91 2169 -91 
Q 1331 -91 842 396 
Q 353 884 353 1716 
Q 353 2575 817 3079 
Q 1281 3584 2069 3584 
Q 2775 3584 3186 3129 
Q 3597 2675 3597 1894 
z
M 3022 2063 
Q 3016 2534 2758 2815 
Q 2500 3097 2075 3097 
Q 1594 3097 1305 2825 
Q 1016 2553 972 2059 
L 3022 2063 
z
" id="DejaVuSans-65" transform="scale(0.015625)"/>
      </defs>
      <use xlink:href="#DejaVuSans-44"/>
      <use x="77.001953" xlink:href="#DejaVuSans-61"/>
      <use x="138.28125" xlink:href="#DejaVuSans-74"/>
      <use x="177.490234" xlink:href="#DejaVuSans-65"/>
     </g>
    </g>
   </g>
   <g id="matplotlib.axis_2">
    <g id="ytick_1">
     <g id="line2d_29">
      <path clip-path="url(#p68e2955192)" d="M 99 491.931416 
L 712.8 491.931416 
" style="fill:none;stroke:#b0b0b0;stroke-linecap:square;stroke-width:0.8;"/>
     </g>
     <g id="line2d_30">
      <defs>
       <path d="M 0 0 
L -3.5 0 
" id="me91a084207" style="stroke:#000000;stroke-width:0.8;"/>
      </defs>
      <g>
       <use style="stroke:#000000;stroke-width:0.8;" x="99" xlink:href="#me91a084207" y="491.931416"/>
      </g>
     </g>
     <g id="text_8">
      <!-- $\mathdefault{10^{0}}$ -->
      <g transform="translate(74.4 495.730634)scale(0.1 -0.1)">
       <use transform="translate(0 0.765625)" xlink:href="#DejaVuSans-31"/>
       <use transform="translate(63.623047 0.765625)" xlink:href="#DejaVuSans-30"/>
       <use transform="translate(128.203125 39.046875)scale(0.7)" xlink:href="#DejaVuSans-30"/>
      </g>
     </g>
    </g>
    <g id="ytick_2">
     <g id="line2d_31">
      <path clip-path="url(#p68e2955192)" d="M 99 387.860111 
L 712.8 387.860111 
" style="fill:none;stroke:#b0b0b0;stroke-linecap:square;stroke-width:0.8;"/>
     </g>
     <g id="line2d_32">
      <g>
       <use style="stroke:#000000;stroke-width:0.8;" x="99" xlink:href="#me91a084207" y="387.860111"/>
      </g>
     </g>
     <g id="text_9">
      <!-- $\mathdefault{10^{1}}$ -->
      <g transform="translate(74.4 391.65933)scale(0.1 -0.1)">
       <use transform="translate(0 0.684375)" xlink:href="#DejaVuSans-31"/>
       <use transform="translate(63.623047 0.684375)" xlink:href="#DejaVuSans-30"/>
       <use transform="translate(128.203125 38.965625)scale(0.7)" xlink:href="#DejaVuSans-31"/>
      </g>
     </g>
    </g>
    <g id="ytick_3">
     <g id="line2d_33">
      <path clip-path="url(#p68e2955192)" d="M 99 283.788807 
L 712.8 283.788807 
" style="fill:none;stroke:#b0b0b0;stroke-linecap:square;stroke-width:0.8;"/>
     </g>
     <g id="line2d_34">
      <g>
       <use style="stroke:#000000;stroke-width:0.8;" x="99" xlink:href="#me91a084207" y="283.788807"/>
      </g>
     </g>
     <g id="text_10">
      <!-- $\mathdefault{10^{2}}$ -->
      <g transform="translate(74.4 287.588026)scale(0.1 -0.1)">
       <use transform="translate(0 0.765625)" xlink:href="#DejaVuSans-31"/>
       <use transform="translate(63.623047 0.765625)" xlink:href="#DejaVuSans-30"/>
       <use transform="translate(128.203125 39.046875)scale(0.7)" xlink:href="#DejaVuSans-32"/>
      </g>
     </g>
    </g>
    <g id="ytick_4">
     <g id="line2d_35">
      <path clip-path="url(#p68e2955192)" d="M 99 179.717503 
L 712.8 179.717503 
" style="fill:none;stroke:#b0b0b0;stroke-linecap:square;stroke-width:0.8;"/>
     </g>
     <g id="line2d_36">
      <g>
       <use style="stroke:#000000;stroke-width:0.8;" x="99" xlink:href="#me91a084207" y="179.717503"/>
      </g>
     </g>
     <g id="text_11">
      <!-- $\mathdefault{10^{3}}$ -->
      <g transform="translate(74.4 183.516721)scale(0.1 -0.1)">
       <defs>
        <path d="M 2597 2516 
Q 3050 2419 3304 2112 
Q 3559 1806 3559 1356 
Q 3559 666 3084 287 
Q 2609 -91 1734 -91 
Q 1441 -91 1130 -33 
Q 819 25 488 141 
L 488 750 
Q 750 597 1062 519 
Q 1375 441 1716 441 
Q 2309 441 2620 675 
Q 2931 909 2931 1356 
Q 2931 1769 2642 2001 
Q 2353 2234 1838 2234 
L 1294 2234 
L 1294 2753 
L 1863 2753 
Q 2328 2753 2575 2939 
Q 2822 3125 2822 3475 
Q 2822 3834 2567 4026 
Q 2313 4219 1838 4219 
Q 1578 4219 1281 4162 
Q 984 4106 628 3988 
L 628 4550 
Q 988 4650 1302 4700 
Q 1616 4750 1894 4750 
Q 2613 4750 3031 4423 
Q 3450 4097 3450 3541 
Q 3450 3153 3228 2886 
Q 3006 2619 2597 2516 
z
" id="DejaVuSans-33" transform="scale(0.015625)"/>
       </defs>
       <use transform="translate(0 0.765625)" xlink:href="#DejaVuSans-31"/>
       <use transform="translate(63.623047 0.765625)" xlink:href="#DejaVuSans-30"/>
       <use transform="translate(128.203125 39.046875)scale(0.7)" xlink:href="#DejaVuSans-33"/>
      </g>
     </g>
    </g>
    <g id="ytick_5">
     <g id="line2d_37">
      <path clip-path="url(#p68e2955192)" d="M 99 75.646198 
L 712.8 75.646198 
" style="fill:none;stroke:#b0b0b0;stroke-linecap:square;stroke-width:0.8;"/>
     </g>
     <g id="line2d_38">
      <g>
       <use style="stroke:#000000;stroke-width:0.8;" x="99" xlink:href="#me91a084207" y="75.646198"/>
      </g>
     </g>
     <g id="text_12">
      <!-- $\mathdefault{10^{4}}$ -->
      <g transform="translate(74.4 79.445417)scale(0.1 -0.1)">
       <defs>
        <path d="M 2419 4116 
L 825 1625 
L 2419 1625 
L 2419 4116 
z
M 2253 4666 
L 3047 4666 
L 3047 1625 
L 3713 1625 
L 3713 1100 
L 3047 1100 
L 3047 0 
L 2419 0 
L 2419 1100 
L 313 1100 
L 313 1709 
L 2253 4666 
z
" id="DejaVuSans-34" transform="scale(0.015625)"/>
       </defs>
       <use transform="translate(0 0.684375)" xlink:href="#DejaVuSans-31"/>
       <use transform="translate(63.623047 0.684375)" xlink:href="#DejaVuSans-30"/>
       <use transform="translate(128.203125 38.965625)scale(0.7)" xlink:href="#DejaVuSans-34"/>
      </g>
     </g>
    </g>
    <g id="ytick_6">
     <g id="line2d_39">
      <path clip-path="url(#p68e2955192)" d="M 99 533.345551 
L 712.8 533.345551 
" style="fill:none;stroke:#b0b0b0;stroke-linecap:square;stroke-width:0.8;"/>
     </g>
     <g id="line2d_40">
      <defs>
       <path d="M 0 0 
L -2 0 
" id="m0cb60b688e" style="stroke:#000000;stroke-width:0.6;"/>
      </defs>
      <g>
       <use style="stroke:#000000;stroke-width:0.6;" x="99" xlink:href="#m0cb60b688e" y="533.345551"/>
      </g>
     </g>
    </g>
    <g id="ytick_7">
     <g id="line2d_41">
      <path clip-path="url(#p68e2955192)" d="M 99 523.26 
L 712.8 523.26 
" style="fill:none;stroke:#b0b0b0;stroke-linecap:square;stroke-width:0.8;"/>
     </g>
     <g id="line2d_42">
      <g>
       <use style="stroke:#000000;stroke-width:0.6;" x="99" xlink:href="#m0cb60b688e" y="523.26"/>
      </g>
     </g>
    </g>
    <g id="ytick_8">
     <g id="line2d_43">
      <path clip-path="url(#p68e2955192)" d="M 99 515.019504 
L 712.8 515.019504 
" style="fill:none;stroke:#b0b0b0;stroke-linecap:square;stroke-width:0.8;"/>
     </g>
     <g id="line2d_44">
      <g>
       <use style="stroke:#000000;stroke-width:0.6;" x="99" xlink:href="#m0cb60b688e" y="515.019504"/>
      </g>
     </g>
    </g>
    <g id="ytick_9">
     <g id="line2d_45">
      <path clip-path="url(#p68e2955192)" d="M 99 508.052265 
L 712.8 508.052265 
" style="fill:none;stroke:#b0b0b0;stroke-linecap:square;stroke-width:0.8;"/>
     </g>
     <g id="line2d_46">
      <g>
       <use style="stroke:#000000;stroke-width:0.6;" x="99" xlink:href="#m0cb60b688e" y="508.052265"/>
      </g>
     </g>
    </g>
    <g id="ytick_10">
     <g id="line2d_47">
      <path clip-path="url(#p68e2955192)" d="M 99 502.016967 
L 712.8 502.016967 
" style="fill:none;stroke:#b0b0b0;stroke-linecap:square;stroke-width:0.8;"/>
     </g>
     <g id="line2d_48">
      <g>
       <use style="stroke:#000000;stroke-width:0.6;" x="99" xlink:href="#m0cb60b688e" y="502.016967"/>
      </g>
     </g>
    </g>
    <g id="ytick_11">
     <g id="line2d_49">
      <path clip-path="url(#p68e2955192)" d="M 99 496.693457 
L 712.8 496.693457 
" style="fill:none;stroke:#b0b0b0;stroke-linecap:square;stroke-width:0.8;"/>
     </g>
     <g id="line2d_50">
      <g>
       <use style="stroke:#000000;stroke-width:0.6;" x="99" xlink:href="#m0cb60b688e" y="496.693457"/>
      </g>
     </g>
    </g>
    <g id="ytick_12">
     <g id="line2d_51">
      <path clip-path="url(#p68e2955192)" d="M 99 460.602831 
L 712.8 460.602831 
" style="fill:none;stroke:#b0b0b0;stroke-linecap:square;stroke-width:0.8;"/>
     </g>
     <g id="line2d_52">
      <g>
       <use style="stroke:#000000;stroke-width:0.6;" x="99" xlink:href="#m0cb60b688e" y="460.602831"/>
      </g>
     </g>
    </g>
    <g id="ytick_13">
     <g id="line2d_53">
      <path clip-path="url(#p68e2955192)" d="M 99 442.276784 
L 712.8 442.276784 
" style="fill:none;stroke:#b0b0b0;stroke-linecap:square;stroke-width:0.8;"/>
     </g>
     <g id="line2d_54">
      <g>
       <use style="stroke:#000000;stroke-width:0.6;" x="99" xlink:href="#m0cb60b688e" y="442.276784"/>
      </g>
     </g>
    </g>
    <g id="ytick_14">
     <g id="line2d_55">
      <path clip-path="url(#p68e2955192)" d="M 99 429.274247 
L 712.8 429.274247 
" style="fill:none;stroke:#b0b0b0;stroke-linecap:square;stroke-width:0.8;"/>
     </g>
     <g id="line2d_56">
      <g>
       <use style="stroke:#000000;stroke-width:0.6;" x="99" xlink:href="#m0cb60b688e" y="429.274247"/>
      </g>
     </g>
    </g>
    <g id="ytick_15">
     <g id="line2d_57">
      <path clip-path="url(#p68e2955192)" d="M 99 419.188696 
L 712.8 419.188696 
" style="fill:none;stroke:#b0b0b0;stroke-linecap:square;stroke-width:0.8;"/>
     </g>
     <g id="line2d_58">
      <g>
       <use style="stroke:#000000;stroke-width:0.6;" x="99" xlink:href="#m0cb60b688e" y="419.188696"/>
      </g>
     </g>
    </g>
    <g id="ytick_16">
     <g id="line2d_59">
      <path clip-path="url(#p68e2955192)" d="M 99 410.9482 
L 712.8 410.9482 
" style="fill:none;stroke:#b0b0b0;stroke-linecap:square;stroke-width:0.8;"/>
     </g>
     <g id="line2d_60">
      <g>
       <use style="stroke:#000000;stroke-width:0.6;" x="99" xlink:href="#m0cb60b688e" y="410.9482"/>
      </g>
     </g>
    </g>
    <g id="ytick_17">
     <g id="line2d_61">
      <path clip-path="url(#p68e2955192)" d="M 99 403.98096 
L 712.8 403.98096 
" style="fill:none;stroke:#b0b0b0;stroke-linecap:square;stroke-width:0.8;"/>
     </g>
     <g id="line2d_62">
      <g>
       <use style="stroke:#000000;stroke-width:0.6;" x="99" xlink:href="#m0cb60b688e" y="403.98096"/>
      </g>
     </g>
    </g>
    <g id="ytick_18">
     <g id="line2d_63">
      <path clip-path="url(#p68e2955192)" d="M 99 397.945663 
L 712.8 397.945663 
" style="fill:none;stroke:#b0b0b0;stroke-linecap:square;stroke-width:0.8;"/>
     </g>
     <g id="line2d_64">
      <g>
       <use style="stroke:#000000;stroke-width:0.6;" x="99" xlink:href="#m0cb60b688e" y="397.945663"/>
      </g>
     </g>
    </g>
    <g id="ytick_19">
     <g id="line2d_65">
      <path clip-path="url(#p68e2955192)" d="M 99 392.622153 
L 712.8 392.622153 
" style="fill:none;stroke:#b0b0b0;stroke-linecap:square;stroke-width:0.8;"/>
     </g>
     <g id="line2d_66">
      <g>
       <use style="stroke:#000000;stroke-width:0.6;" x="99" xlink:href="#m0cb60b688e" y="392.622153"/>
      </g>
     </g>
    </g>
    <g id="ytick_20">
     <g id="line2d_67">
      <path clip-path="url(#p68e2955192)" d="M 99 356.531527 
L 712.8 356.531527 
" style="fill:none;stroke:#b0b0b0;stroke-linecap:square;stroke-width:0.8;"/>
     </g>
     <g id="line2d_68">
      <g>
       <use style="stroke:#000000;stroke-width:0.6;" x="99" xlink:href="#m0cb60b688e" y="356.531527"/>
      </g>
     </g>
    </g>
    <g id="ytick_21">
     <g id="line2d_69">
      <path clip-path="url(#p68e2955192)" d="M 99 338.20548 
L 712.8 338.20548 
" style="fill:none;stroke:#b0b0b0;stroke-linecap:square;stroke-width:0.8;"/>
     </g>
     <g id="line2d_70">
      <g>
       <use style="stroke:#000000;stroke-width:0.6;" x="99" xlink:href="#m0cb60b688e" y="338.20548"/>
      </g>
     </g>
    </g>
    <g id="ytick_22">
     <g id="line2d_71">
      <path clip-path="url(#p68e2955192)" d="M 99 325.202943 
L 712.8 325.202943 
" style="fill:none;stroke:#b0b0b0;stroke-linecap:square;stroke-width:0.8;"/>
     </g>
     <g id="line2d_72">
      <g>
       <use style="stroke:#000000;stroke-width:0.6;" x="99" xlink:href="#m0cb60b688e" y="325.202943"/>
      </g>
     </g>
    </g>
    <g id="ytick_23">
     <g id="line2d_73">
      <path clip-path="url(#p68e2955192)" d="M 99 315.117391 
L 712.8 315.117391 
" style="fill:none;stroke:#b0b0b0;stroke-linecap:square;stroke-width:0.8;"/>
     </g>
     <g id="line2d_74">
      <g>
       <use style="stroke:#000000;stroke-width:0.6;" x="99" xlink:href="#m0cb60b688e" y="315.117391"/>
      </g>
     </g>
    </g>
    <g id="ytick_24">
     <g id="line2d_75">
      <path clip-path="url(#p68e2955192)" d="M 99 306.876896 
L 712.8 306.876896 
" style="fill:none;stroke:#b0b0b0;stroke-linecap:square;stroke-width:0.8;"/>
     </g>
     <g id="line2d_76">
      <g>
       <use style="stroke:#000000;stroke-width:0.6;" x="99" xlink:href="#m0cb60b688e" y="306.876896"/>
      </g>
     </g>
    </g>
    <g id="ytick_25">
     <g id="line2d_77">
      <path clip-path="url(#p68e2955192)" d="M 99 299.909656 
L 712.8 299.909656 
" style="fill:none;stroke:#b0b0b0;stroke-linecap:square;stroke-width:0.8;"/>
     </g>
     <g id="line2d_78">
      <g>
       <use style="stroke:#000000;stroke-width:0.6;" x="99" xlink:href="#m0cb60b688e" y="299.909656"/>
      </g>
     </g>
    </g>
    <g id="ytick_26">
     <g id="line2d_79">
      <path clip-path="url(#p68e2955192)" d="M 99 293.874358 
L 712.8 293.874358 
" style="fill:none;stroke:#b0b0b0;stroke-linecap:square;stroke-width:0.8;"/>
     </g>
     <g id="line2d_80">
      <g>
       <use style="stroke:#000000;stroke-width:0.6;" x="99" xlink:href="#m0cb60b688e" y="293.874358"/>
      </g>
     </g>
    </g>
    <g id="ytick_27">
     <g id="line2d_81">
      <path clip-path="url(#p68e2955192)" d="M 99 288.550849 
L 712.8 288.550849 
" style="fill:none;stroke:#b0b0b0;stroke-linecap:square;stroke-width:0.8;"/>
     </g>
     <g id="line2d_82">
      <g>
       <use style="stroke:#000000;stroke-width:0.6;" x="99" xlink:href="#m0cb60b688e" y="288.550849"/>
      </g>
     </g>
    </g>
    <g id="ytick_28">
     <g id="line2d_83">
      <path clip-path="url(#p68e2955192)" d="M 99 252.460223 
L 712.8 252.460223 
" style="fill:none;stroke:#b0b0b0;stroke-linecap:square;stroke-width:0.8;"/>
     </g>
     <g id="line2d_84">
      <g>
       <use style="stroke:#000000;stroke-width:0.6;" x="99" xlink:href="#m0cb60b688e" y="252.460223"/>
      </g>
     </g>
    </g>
    <g id="ytick_29">
     <g id="line2d_85">
      <path clip-path="url(#p68e2955192)" d="M 99 234.134176 
L 712.8 234.134176 
" style="fill:none;stroke:#b0b0b0;stroke-linecap:square;stroke-width:0.8;"/>
     </g>
     <g id="line2d_86">
      <g>
       <use style="stroke:#000000;stroke-width:0.6;" x="99" xlink:href="#m0cb60b688e" y="234.134176"/>
      </g>
     </g>
    </g>
    <g id="ytick_30">
     <g id="line2d_87">
      <path clip-path="url(#p68e2955192)" d="M 99 221.131638 
L 712.8 221.131638 
" style="fill:none;stroke:#b0b0b0;stroke-linecap:square;stroke-width:0.8;"/>
     </g>
     <g id="line2d_88">
      <g>
       <use style="stroke:#000000;stroke-width:0.6;" x="99" xlink:href="#m0cb60b688e" y="221.131638"/>
      </g>
     </g>
    </g>
    <g id="ytick_31">
     <g id="line2d_89">
      <path clip-path="url(#p68e2955192)" d="M 99 211.046087 
L 712.8 211.046087 
" style="fill:none;stroke:#b0b0b0;stroke-linecap:square;stroke-width:0.8;"/>
     </g>
     <g id="line2d_90">
      <g>
       <use style="stroke:#000000;stroke-width:0.6;" x="99" xlink:href="#m0cb60b688e" y="211.046087"/>
      </g>
     </g>
    </g>
    <g id="ytick_32">
     <g id="line2d_91">
      <path clip-path="url(#p68e2955192)" d="M 99 202.805591 
L 712.8 202.805591 
" style="fill:none;stroke:#b0b0b0;stroke-linecap:square;stroke-width:0.8;"/>
     </g>
     <g id="line2d_92">
      <g>
       <use style="stroke:#000000;stroke-width:0.6;" x="99" xlink:href="#m0cb60b688e" y="202.805591"/>
      </g>
     </g>
    </g>
    <g id="ytick_33">
     <g id="line2d_93">
      <path clip-path="url(#p68e2955192)" d="M 99 195.838352 
L 712.8 195.838352 
" style="fill:none;stroke:#b0b0b0;stroke-linecap:square;stroke-width:0.8;"/>
     </g>
     <g id="line2d_94">
      <g>
       <use style="stroke:#000000;stroke-width:0.6;" x="99" xlink:href="#m0cb60b688e" y="195.838352"/>
      </g>
     </g>
    </g>
    <g id="ytick_34">
     <g id="line2d_95">
      <path clip-path="url(#p68e2955192)" d="M 99 189.803054 
L 712.8 189.803054 
" style="fill:none;stroke:#b0b0b0;stroke-linecap:square;stroke-width:0.8;"/>
     </g>
     <g id="line2d_96">
      <g>
       <use style="stroke:#000000;stroke-width:0.6;" x="99" xlink:href="#m0cb60b688e" y="189.803054"/>
      </g>
     </g>
    </g>
    <g id="ytick_35">
     <g id="line2d_97">
      <path clip-path="url(#p68e2955192)" d="M 99 184.479544 
L 712.8 184.479544 
" style="fill:none;stroke:#b0b0b0;stroke-linecap:square;stroke-width:0.8;"/>
     </g>
     <g id="line2d_98">
      <g>
       <use style="stroke:#000000;stroke-width:0.6;" x="99" xlink:href="#m0cb60b688e" y="184.479544"/>
      </g>
     </g>
    </g>
    <g id="ytick_36">
     <g id="line2d_99">
      <path clip-path="url(#p68e2955192)" d="M 99 148.388918 
L 712.8 148.388918 
" style="fill:none;stroke:#b0b0b0;stroke-linecap:square;stroke-width:0.8;"/>
     </g>
     <g id="line2d_100">
      <g>
       <use style="stroke:#000000;stroke-width:0.6;" x="99" xlink:href="#m0cb60b688e" y="148.388918"/>
      </g>
     </g>
    </g>
    <g id="ytick_37">
     <g id="line2d_101">
      <path clip-path="url(#p68e2955192)" d="M 99 130.062871 
L 712.8 130.062871 
" style="fill:none;stroke:#b0b0b0;stroke-linecap:square;stroke-width:0.8;"/>
     </g>
     <g id="line2d_102">
      <g>
       <use style="stroke:#000000;stroke-width:0.6;" x="99" xlink:href="#m0cb60b688e" y="130.062871"/>
      </g>
     </g>
    </g>
    <g id="ytick_38">
     <g id="line2d_103">
      <path clip-path="url(#p68e2955192)" d="M 99 117.060334 
L 712.8 117.060334 
" style="fill:none;stroke:#b0b0b0;stroke-linecap:square;stroke-width:0.8;"/>
     </g>
     <g id="line2d_104">
      <g>
       <use style="stroke:#000000;stroke-width:0.6;" x="99" xlink:href="#m0cb60b688e" y="117.060334"/>
      </g>
     </g>
    </g>
    <g id="ytick_39">
     <g id="line2d_105">
      <path clip-path="url(#p68e2955192)" d="M 99 106.974782 
L 712.8 106.974782 
" style="fill:none;stroke:#b0b0b0;stroke-linecap:square;stroke-width:0.8;"/>
     </g>
     <g id="line2d_106">
      <g>
       <use style="stroke:#000000;stroke-width:0.6;" x="99" xlink:href="#m0cb60b688e" y="106.974782"/>
      </g>
     </g>
    </g>
    <g id="ytick_40">
     <g id="line2d_107">
      <path clip-path="url(#p68e2955192)" d="M 99 98.734287 
L 712.8 98.734287 
" style="fill:none;stroke:#b0b0b0;stroke-linecap:square;stroke-width:0.8;"/>
     </g>
     <g id="line2d_108">
      <g>
       <use style="stroke:#000000;stroke-width:0.6;" x="99" xlink:href="#m0cb60b688e" y="98.734287"/>
      </g>
     </g>
    </g>
    <g id="ytick_41">
     <g id="line2d_109">
      <path clip-path="url(#p68e2955192)" d="M 99 91.767047 
L 712.8 91.767047 
" style="fill:none;stroke:#b0b0b0;stroke-linecap:square;stroke-width:0.8;"/>
     </g>
     <g id="line2d_110">
      <g>
       <use style="stroke:#000000;stroke-width:0.6;" x="99" xlink:href="#m0cb60b688e" y="91.767047"/>
      </g>
     </g>
    </g>
    <g id="ytick_42">
     <g id="line2d_111">
      <path clip-path="url(#p68e2955192)" d="M 99 85.73175 
L 712.8 85.73175 
" style="fill:none;stroke:#b0b0b0;stroke-linecap:square;stroke-width:0.8;"/>
     </g>
     <g id="line2d_112">
      <g>
       <use style="stroke:#000000;stroke-width:0.6;" x="99" xlink:href="#m0cb60b688e" y="85.73175"/>
      </g>
     </g>
    </g>
    <g id="ytick_43">
     <g id="line2d_113">
      <path clip-path="url(#p68e2955192)" d="M 99 80.40824 
L 712.8 80.40824 
" style="fill:none;stroke:#b0b0b0;stroke-linecap:square;stroke-width:0.8;"/>
     </g>
     <g id="line2d_114">
      <g>
       <use style="stroke:#000000;stroke-width:0.6;" x="99" xlink:href="#m0cb60b688e" y="80.40824"/>
      </g>
     </g>
    </g>
   </g>
   <g id="line2d_115">
    <path clip-path="url(#p68e2955192)" d="M 113.506505 613 
L 113.508 473.605369 
L 114.624 460.602831 
L 116.856 423.950737 
L 117.972 414.880905 
L 119.088 403.98096 
L 120.204 395.205576 
L 121.32 383.552321 
L 122.436 374.296106 
L 123.552 369.534064 
L 124.668 361.293569 
L 125.784 344.673294 
L 126.9 330.597129 
L 128.016 325.771473 
L 129.132 324.641475 
L 131.364 309.593448 
L 132.48 306.876896 
L 133.596 306.876896 
L 134.712 306.129811 
L 135.828 306.129811 
L 136.944 305.03184 
L 138.06 303.608176 
L 142.524 303.608176 
L 143.64 302.912815 
L 145.872 302.912815 
L 146.988 299.587964 
L 148.104 299.587964 
L 149.22 293.592753 
L 150.336 293.592753 
L 151.452 290.605639 
L 152.568 288.550849 
L 153.684 288.550849 
L 154.8 284.015362 
L 155.916 275.548311 
L 157.032 270.224802 
L 158.148 263.401275 
L 159.264 255.861906 
L 160.38 252.573358 
L 161.496 250.905361 
L 162.612 250.362766 
L 163.728 250.362766 
L 164.844 249.613913 
L 165.96 246.340259 
L 167.076 246.340259 
L 168.192 243.195639 
L 169.308 246.93628 
L 172.656 246.93628 
L 173.772 247.136713 
L 174.888 251.014666 
L 176.004 247.136713 
L 177.12 251.565191 
L 178.236 253.488784 
L 179.352 253.488784 
L 180.468 256.847178 
L 181.584 259.145856 
L 182.7 266.375874 
L 183.816 266.375874 
L 184.932 275.926536 
L 186.048 277.08058 
L 187.164 273.164113 
L 188.28 278.264864 
L 189.396 281.368893 
L 190.512 288.300446 
L 197.208 288.300446 
L 198.324 299.909656 
L 202.788 299.909656 
L 203.904 306.129811 
L 205.02 306.129811 
L 206.136 308.800488 
L 212.832 308.800488 
L 213.948 297.704458 
L 218.412 297.704458 
L 219.528 291.66916 
L 220.644 291.66916 
L 221.76 288.051423 
L 223.992 288.051423 
L 225.108 261.292139 
L 227.34 261.292139 
L 228.456 259.015038 
L 230.688 259.015038 
L 231.804 252.573358 
L 236.268 252.573358 
L 237.384 244.883712 
L 239.616 244.883712 
L 240.732 239.23226 
L 251.892 239.23226 
L 253.008 239.485943 
L 255.24 239.485943 
L 256.356 251.787293 
L 263.052 251.787293 
L 264.168 254.897654 
L 270.864 254.897654 
L 271.98 258.884598 
L 278.676 258.884598 
L 279.792 257.981906 
L 286.488 257.981906 
L 287.604 254.423134 
L 294.3 254.423134 
L 295.416 262.545774 
L 298.764 262.545774 
L 299.88 251.565191 
L 302.112 251.565191 
L 303.228 256.722838 
L 304.344 256.722838 
L 305.46 227.490934 
L 314.388 227.490934 
L 315.504 228.543619 
L 319.968 228.543619 
L 321.084 243.195639 
L 330.012 243.195639 
L 331.128 248.255271 
L 335.592 248.255271 
L 336.708 250.470765 
L 337.824 250.470765 
L 338.94 249.720136 
L 343.404 249.720136 
L 344.52 242.920323 
L 351.216 242.920323 
L 352.332 242.284366 
L 353.448 242.284366 
L 354.564 241.126532 
L 359.028 241.126532 
L 360.144 237.65785 
L 361.26 237.65785 
L 362.376 231.146624 
L 366.84 231.146624 
L 367.956 220.458709 
L 369.072 220.458709 
L 370.188 214.863889 
L 374.652 214.863889 
L 375.768 214.716586 
L 376.884 214.716586 
L 378 211.591738 
L 382.464 211.591738 
L 383.58 192.810525 
L 392.508 192.810525 
L 393.624 195.292829 
L 394.74 195.292829 
L 395.856 195.452594 
L 398.088 195.452594 
L 399.204 221.244774 
L 400.32 221.244774 
L 401.436 207.861534 
L 405.9 207.861534 
L 407.016 210.018317 
L 413.712 210.018317 
L 414.828 207.65141 
L 415.944 207.65141 
L 417.06 219.088149 
L 421.524 219.088149 
L 422.64 221.585889 
L 423.756 221.585889 
L 424.872 225.146595 
L 425.988 245.947234 
L 431.568 245.947234 
L 432.684 266.995028 
L 437.148 266.995028 
L 438.264 249.826608 
L 439.38 249.826608 
L 440.496 231.928978 
L 441.612 217.236614 
L 444.96 217.236614 
L 446.076 217.75793 
L 452.772 217.75793 
L 453.888 222.450114 
L 455.004 222.450114 
L 456.12 239.23226 
L 460.584 239.23226 
L 461.7 240.688991 
L 468.396 240.688991 
L 469.512 246.340259 
L 470.628 246.340259 
L 471.744 271.240521 
L 478.44 271.240521 
L 479.556 276.307953 
L 484.02 276.307953 
L 485.136 290.083117 
L 486.252 290.083117 
L 487.368 287.803764 
L 488.484 287.803764 
L 489.6 276.499875 
L 501.876 276.499875 
L 502.992 284.471907 
L 504.108 284.471907 
L 505.224 316.962447 
L 509.688 316.962447 
L 510.804 324.641475 
L 517.5 324.641475 
L 518.616 326.93045 
L 523.08 326.93045 
L 524.196 313.344709 
L 525.312 313.344709 
L 526.428 315.571642 
L 538.704 315.571642 
L 539.82 331.888577 
L 540.936 331.888577 
L 542.052 335.288494 
L 546.516 335.288494 
L 547.632 346.445976 
L 548.748 346.445976 
L 549.864 355.41548 
L 554.328 355.41548 
L 555.444 363.876991 
L 556.56 363.876991 
L 557.676 387.860111 
L 564.372 387.860111 
L 565.488 395.205576 
L 572.184 395.205576 
L 573.3 400.862649 
L 579.996 400.862649 
L 581.112 349.242595 
L 585.576 349.242595 
L 586.692 345.550944 
L 587.808 345.550944 
L 588.924 331.23824 
L 595.62 331.23824 
L 596.736 357.675831 
L 600.084 357.675831 
L 601.2 395.205576 
L 602.316 419.188696 
L 603.432 419.188696 
L 604.548 460.602831 
L 605.664 460.602831 
L 606.78 473.605369 
L 609.012 473.605369 
L 610.128 419.188696 
L 611.244 419.188696 
L 612.36 400.862649 
L 615.708 400.862649 
L 616.824 360.055201 
L 617.94 341.323792 
L 624.636 341.323792 
L 625.752 349.242595 
L 632.448 349.242595 
L 633.564 372.652376 
L 634.68 372.652376 
L 635.796 339.737749 
L 639.144 339.737749 
L 640.26 377.77456 
L 641.376 345.550944 
L 642.492 345.550944 
L 643.608 343.812361 
L 648.072 343.812361 
L 649.188 320.384439 
L 650.304 320.384439 
L 651.42 317.435725 
L 654.768 317.435725 
L 655.884 304.314403 
L 657 316.962447 
L 658.116 316.962447 
L 659.232 312.912193 
L 663.696 312.912193 
L 664.812 301.889429 
L 671.508 301.889429 
L 672.624 293.592753 
L 673.74 293.592753 
L 674.856 288.051423 
L 687.132 288.051423 
L 688.248 282.016125 
L 689.364 282.016125 
L 690.48 279.686928 
L 697.176 279.686928 
L 698.292 271.069641 
L 702.756 271.069641 
L 703.872 271.240521 
L 704.988 271.240521 
L 706.104 270.729808 
L 709.452 270.729808 
L 710.568 280.942498 
L 711.684 270.729808 
L 712.8 270.729808 
L 712.8 270.729808 
" style="fill:none;stroke:#1f77b4;stroke-linecap:square;stroke-width:1.5;"/>
   </g>
   <g id="line2d_116">
    <path clip-path="url(#p68e2955192)" d="M 125.783037 613 
L 125.784 523.26 
L 126.9 491.931416 
L 131.364 491.931416 
L 132.48 473.605369 
L 133.596 460.602831 
L 136.944 460.602831 
L 138.06 450.51728 
L 139.176 450.51728 
L 140.292 435.309545 
L 141.408 423.950737 
L 142.524 419.188696 
L 143.64 419.188696 
L 144.756 423.950737 
L 145.872 423.950737 
L 148.104 414.880905 
L 149.22 410.9482 
L 150.336 414.880905 
L 151.452 414.880905 
L 152.568 419.188696 
L 153.684 423.950737 
L 155.916 423.950737 
L 157.032 429.274247 
L 159.264 429.274247 
L 160.38 435.309545 
L 161.496 429.274247 
L 162.612 435.309545 
L 164.844 435.309545 
L 165.96 442.276784 
L 176.004 442.276784 
L 177.12 450.51728 
L 178.236 450.51728 
L 179.352 460.602831 
L 186.048 460.602831 
L 187.164 473.605369 
L 188.28 473.605369 
L 189.396 460.602831 
L 190.512 460.602831 
L 191.628 473.605369 
L 192.744 491.931416 
L 193.86 473.605369 
L 194.976 460.602831 
L 196.092 460.602831 
L 197.208 473.605369 
L 198.324 473.605369 
L 199.44 460.602831 
L 201.672 460.602831 
L 202.788 450.51728 
L 203.904 460.602831 
L 205.02 460.602831 
L 206.136 473.605369 
L 208.368 473.605369 
L 209.484 491.931416 
L 215.064 491.931416 
L 216.18 473.605369 
L 219.528 473.605369 
L 220.644 491.931416 
L 221.76 491.931416 
L 222.876 473.605369 
L 223.992 460.602831 
L 227.34 460.602831 
L 228.456 450.51728 
L 229.572 460.602831 
L 230.688 460.602831 
L 231.804 473.605369 
L 232.92 460.602831 
L 234.036 473.605369 
L 235.152 460.602831 
L 236.268 460.602831 
L 237.384 450.51728 
L 238.5 460.602831 
L 239.616 473.605369 
L 240.732 473.605369 
L 241.848 491.931416 
L 242.964 473.605369 
L 244.08 473.605369 
L 245.196 491.931416 
L 246.312 491.931416 
L 247.428 473.605369 
L 248.544 491.931416 
L 249.66 473.605369 
L 250.776 491.931416 
L 251.892 473.605369 
L 253.008 473.605369 
L 254.124 460.602831 
L 257.472 460.602831 
L 258.588 450.51728 
L 259.704 450.51728 
L 260.82 442.276784 
L 267.516 442.276784 
L 268.632 435.309545 
L 271.98 435.309545 
L 273.096 429.274247 
L 274.212 435.309545 
L 278.676 435.309545 
L 279.792 442.276784 
L 280.908 442.276784 
L 282.024 429.274247 
L 283.14 429.274247 
L 284.256 435.309545 
L 287.604 435.309545 
L 288.72 450.51728 
L 290.952 450.51728 
L 292.068 473.605369 
L 293.184 460.602831 
L 294.3 473.605369 
L 295.416 473.605369 
L 296.532 491.931416 
L 303.228 491.931416 
L 304.344 473.605369 
L 306.576 473.605369 
L 307.692 460.602831 
L 308.808 460.602831 
L 309.924 450.51728 
L 311.04 442.276784 
L 312.156 435.309545 
L 313.272 419.188696 
L 314.388 400.862649 
L 315.504 423.950737 
L 316.62 410.9482 
L 318.852 410.9482 
L 319.968 397.945663 
L 321.084 390.178445 
L 323.316 390.178445 
L 324.432 397.945663 
L 325.548 414.880905 
L 326.664 414.880905 
L 327.78 423.950737 
L 335.592 423.950737 
L 336.708 442.276784 
L 337.824 442.276784 
L 338.94 435.309545 
L 340.056 407.330462 
L 350.1 407.330462 
L 351.216 395.205576 
L 352.332 377.77456 
L 353.448 377.77456 
L 354.564 395.205576 
L 357.912 395.205576 
L 359.028 407.330462 
L 360.144 460.602831 
L 373.536 460.602831 
L 374.652 429.274247 
L 375.768 442.276784 
L 376.884 442.276784 
L 378 450.51728 
L 382.464 450.51728 
L 382.465742 613 
M 388.043037 613 
L 388.044 523.26 
L 402.552 523.26 
L 402.552963 613 
M 453.887037 613 
L 453.888 523.26 
L 460.584 523.26 
L 461.7 460.602831 
L 468.396 460.602831 
L 469.512 473.605369 
L 476.208 473.605369 
L 476.209495 613 
M 487.366258 613 
L 487.368 450.51728 
L 501.876 450.51728 
L 501.877742 613 
M 562.139037 613 
L 562.14 523.26 
L 567.72 523.26 
L 567.720963 613 
M 635.795037 613 
L 635.796 523.26 
L 639.144 523.26 
L 639.144963 613 
M 659.231037 613 
L 659.232 523.26 
L 664.812 523.26 
L 664.812963 613 
M 667.043037 613 
L 667.044 523.26 
L 673.74 523.26 
L 674.856 491.931416 
L 679.32 491.931416 
L 680.436 473.605369 
L 681.552 442.276784 
L 682.668 429.274247 
L 688.248 429.274247 
L 689.364 442.276784 
L 690.48 460.602831 
L 703.872 460.602831 
L 704.988 450.51728 
L 706.104 442.276784 
L 712.8 442.276784 
L 712.8 442.276784 
" style="fill:none;stroke:#ff7f0e;stroke-linecap:square;stroke-width:1.5;"/>
   </g>
   <g id="patch_3">
    <path d="M 99 544.68 
L 99 73.44 
" style="fill:none;stroke:#000000;stroke-linecap:square;stroke-linejoin:miter;stroke-width:0.8;"/>
   </g>
   <g id="patch_4">
    <path d="M 712.8 544.68 
L 712.8 73.44 
" style="fill:none;stroke:#000000;stroke-linecap:square;stroke-linejoin:miter;stroke-width:0.8;"/>
   </g>
   <g id="patch_5">
    <path d="M 99 544.68 
L 712.8 544.68 
" style="fill:none;stroke:#000000;stroke-linecap:square;stroke-linejoin:miter;stroke-width:0.8;"/>
   </g>
   <g id="patch_6">
    <path d="M 99 73.44 
L 712.8 73.44 
" style="fill:none;stroke:#000000;stroke-linecap:square;stroke-linejoin:miter;stroke-width:0.8;"/>
   </g>
   <g id="legend_1">
    <g id="patch_7">
     <path d="M 616.653125 110.79625 
L 705.8 110.79625 
Q 707.8 110.79625 707.8 108.79625 
L 707.8 80.44 
Q 707.8 78.44 705.8 78.44 
L 616.653125 78.44 
Q 614.653125 78.44 614.653125 80.44 
L 614.653125 108.79625 
Q 614.653125 110.79625 616.653125 110.79625 
z
" style="fill:#ffffff;opacity:0.8;stroke:#cccccc;stroke-linejoin:miter;"/>
    </g>
    <g id="line2d_117">
     <path d="M 618.653125 86.538437 
L 638.653125 86.538437 
" style="fill:none;stroke:#1f77b4;stroke-linecap:square;stroke-width:1.5;"/>
    </g>
    <g id="line2d_118"/>
    <g id="text_13">
     <!-- Avg Cases -->
     <g transform="translate(646.653125 90.038437)scale(0.1 -0.1)">
      <defs>
       <path d="M 191 3500 
L 800 3500 
L 1894 563 
L 2988 3500 
L 3597 3500 
L 2284 0 
L 1503 0 
L 191 3500 
z
" id="DejaVuSans-76" transform="scale(0.015625)"/>
       <path d="M 2906 1791 
Q 2906 2416 2648 2759 
Q 2391 3103 1925 3103 
Q 1463 3103 1205 2759 
Q 947 2416 947 1791 
Q 947 1169 1205 825 
Q 1463 481 1925 481 
Q 2391 481 2648 825 
Q 2906 1169 2906 1791 
z
M 3481 434 
Q 3481 -459 3084 -895 
Q 2688 -1331 1869 -1331 
Q 1566 -1331 1297 -1286 
Q 1028 -1241 775 -1147 
L 775 -588 
Q 1028 -725 1275 -790 
Q 1522 -856 1778 -856 
Q 2344 -856 2625 -561 
Q 2906 -266 2906 331 
L 2906 616 
Q 2728 306 2450 153 
Q 2172 0 1784 0 
Q 1141 0 747 490 
Q 353 981 353 1791 
Q 353 2603 747 3093 
Q 1141 3584 1784 3584 
Q 2172 3584 2450 3431 
Q 2728 3278 2906 2969 
L 2906 3500 
L 3481 3500 
L 3481 434 
z
" id="DejaVuSans-67" transform="scale(0.015625)"/>
       <path id="DejaVuSans-20" transform="scale(0.015625)"/>
       <path d="M 4122 4306 
L 4122 3641 
Q 3803 3938 3442 4084 
Q 3081 4231 2675 4231 
Q 1875 4231 1450 3742 
Q 1025 3253 1025 2328 
Q 1025 1406 1450 917 
Q 1875 428 2675 428 
Q 3081 428 3442 575 
Q 3803 722 4122 1019 
L 4122 359 
Q 3791 134 3420 21 
Q 3050 -91 2638 -91 
Q 1578 -91 968 557 
Q 359 1206 359 2328 
Q 359 3453 968 4101 
Q 1578 4750 2638 4750 
Q 3056 4750 3426 4639 
Q 3797 4528 4122 4306 
z
" id="DejaVuSans-43" transform="scale(0.015625)"/>
       <path d="M 2834 3397 
L 2834 2853 
Q 2591 2978 2328 3040 
Q 2066 3103 1784 3103 
Q 1356 3103 1142 2972 
Q 928 2841 928 2578 
Q 928 2378 1081 2264 
Q 1234 2150 1697 2047 
L 1894 2003 
Q 2506 1872 2764 1633 
Q 3022 1394 3022 966 
Q 3022 478 2636 193 
Q 2250 -91 1575 -91 
Q 1294 -91 989 -36 
Q 684 19 347 128 
L 347 722 
Q 666 556 975 473 
Q 1284 391 1588 391 
Q 1994 391 2212 530 
Q 2431 669 2431 922 
Q 2431 1156 2273 1281 
Q 2116 1406 1581 1522 
L 1381 1569 
Q 847 1681 609 1914 
Q 372 2147 372 2553 
Q 372 3047 722 3315 
Q 1072 3584 1716 3584 
Q 2034 3584 2315 3537 
Q 2597 3491 2834 3397 
z
" id="DejaVuSans-73" transform="scale(0.015625)"/>
      </defs>
      <use xlink:href="#DejaVuSans-41"/>
      <use x="62.533203" xlink:href="#DejaVuSans-76"/>
      <use x="121.712891" xlink:href="#DejaVuSans-67"/>
      <use x="185.189453" xlink:href="#DejaVuSans-20"/>
      <use x="216.976562" xlink:href="#DejaVuSans-43"/>
      <use x="286.800781" xlink:href="#DejaVuSans-61"/>
      <use x="348.080078" xlink:href="#DejaVuSans-73"/>
      <use x="400.179688" xlink:href="#DejaVuSans-65"/>
      <use x="461.703125" xlink:href="#DejaVuSans-73"/>
     </g>
    </g>
    <g id="line2d_119">
     <path d="M 618.653125 101.216562 
L 638.653125 101.216562 
" style="fill:none;stroke:#ff7f0e;stroke-linecap:square;stroke-width:1.5;"/>
    </g>
    <g id="line2d_120"/>
    <g id="text_14">
     <!-- Avg Deaths -->
     <g transform="translate(646.653125 104.716562)scale(0.1 -0.1)">
      <defs>
       <path d="M 3513 2113 
L 3513 0 
L 2938 0 
L 2938 2094 
Q 2938 2591 2744 2837 
Q 2550 3084 2163 3084 
Q 1697 3084 1428 2787 
Q 1159 2491 1159 1978 
L 1159 0 
L 581 0 
L 581 4863 
L 1159 4863 
L 1159 2956 
Q 1366 3272 1645 3428 
Q 1925 3584 2291 3584 
Q 2894 3584 3203 3211 
Q 3513 2838 3513 2113 
z
" id="DejaVuSans-68" transform="scale(0.015625)"/>
      </defs>
      <use xlink:href="#DejaVuSans-41"/>
      <use x="62.533203" xlink:href="#DejaVuSans-76"/>
      <use x="121.712891" xlink:href="#DejaVuSans-67"/>
      <use x="185.189453" xlink:href="#DejaVuSans-20"/>
      <use x="216.976562" xlink:href="#DejaVuSans-44"/>
      <use x="293.978516" xlink:href="#DejaVuSans-65"/>
      <use x="355.501953" xlink:href="#DejaVuSans-61"/>
      <use x="416.78125" xlink:href="#DejaVuSans-74"/>
      <use x="455.990234" xlink:href="#DejaVuSans-68"/>
      <use x="519.369141" xlink:href="#DejaVuSans-73"/>
     </g>
    </g>
   </g>
  </g>
 </g>
 <defs>
  <clipPath id="p68e2955192">
   <rect height="471.24" width="613.8" x="99" y="73.44"/>
  </clipPath>
 </defs>
</svg>
