<?xml version="1.0" encoding="utf-8" standalone="no"?>
<!DOCTYPE svg PUBLIC "-//W3C//DTD SVG 1.1//EN"
  "http://www.w3.org/Graphics/SVG/1.1/DTD/svg11.dtd">
<svg height="612pt" version="1.1" viewBox="0 0 792 612" width="792pt" xmlns="http://www.w3.org/2000/svg" xmlns:xlink="http://www.w3.org/1999/xlink">
 <metadata>
  <rdf:RDF xmlns:cc="http://creativecommons.org/ns#" xmlns:dc="http://purl.org/dc/elements/1.1/" xmlns:rdf="http://www.w3.org/1999/02/22-rdf-syntax-ns#">
   <cc:Work>
    <dc:type rdf:resource="http://purl.org/dc/dcmitype/StillImage"/>
    <dc:format>image/svg+xml</dc:format>
    <dc:creator>
     <cc:Agent>
      <dc:title>Matplotlib v3.4.2, https://matplotlib.org/</dc:title>
     </cc:Agent>
    </dc:creator>
   </cc:Work>
  </rdf:RDF>
 </metadata>
 <defs>
  <style type="text/css">*{stroke-linecap:butt;stroke-linejoin:round;}</style>
 </defs>
 <g id="figure_1">
  <g id="patch_1">
   <path d="M 0 612 
L 792 612 
L 792 0 
L 0 0 
z
" style="fill:#ffffff;"/>
  </g>
  <g id="axes_1">
   <g id="patch_2">
    <path d="M 99 544.68 
L 712.8 544.68 
L 712.8 73.44 
L 99 73.44 
z
" style="fill:#ffffff;"/>
   </g>
   <g id="PolyCollection_1">
    <path clip-path="url(#p68e2955192)" d="M 99 493223.916256 
L 99 493223.916256 
L 100.23501 493223.916256 
L 101.47002 493223.916256 
L 102.70503 493223.916256 
L 103.94004 493223.916256 
L 105.17505 493223.916256 
L 106.41006 493223.916256 
L 107.64507 493223.916256 
L 108.88008 493223.916256 
L 110.115091 493223.916256 
L 111.350101 493223.916256 
L 112.585111 493223.916256 
L 113.820121 493223.916256 
L 115.055131 162.300454 
L 116.290141 162.300454 
L 117.525151 162.300454 
L 118.760161 162.300454 
L 119.995171 162.300454 
L 121.230181 226.535324 
L 122.465191 302.878603 
L 123.700201 261.321137 
L 124.935211 261.321137 
L 126.170221 261.321137 
L 127.405231 261.321137 
L 128.640241 261.321137 
L 129.875252 451.240941 
L 131.110262 451.240941 
L 132.345272 451.240941 
L 133.580282 451.240941 
L 134.815292 451.240941 
L 136.050302 451.240941 
L 137.285312 493223.916256 
L 138.520322 493223.916256 
L 139.755332 493223.916256 
L 140.990342 493223.916256 
L 142.225352 493223.916256 
L 143.460362 493223.916256 
L 144.695372 493223.916256 
L 145.930382 493223.916256 
L 147.165392 493223.916256 
L 148.400402 493223.916256 
L 149.635412 493223.916256 
L 150.870423 451.240941 
L 152.105433 451.240941 
L 153.340443 374.897662 
L 154.575453 374.897662 
L 155.810463 374.897662 
L 157.045473 374.897662 
L 158.280483 374.897662 
L 159.515493 261.321137 
L 160.750503 261.321137 
L 161.985513 261.321137 
L 163.220523 261.321137 
L 164.455533 261.321137 
L 165.690543 261.321137 
L 166.925553 261.321137 
L 168.160563 261.321137 
L 169.395573 261.321137 
L 170.630584 451.240941 
L 171.865594 451.240941 
L 173.100604 451.240941 
L 174.335614 451.240941 
L 175.570624 451.240941 
L 176.805634 493223.916256 
L 178.040644 493223.916256 
L 179.275654 493223.916256 
L 180.510664 451.240941 
L 181.745674 374.897662 
L 182.980684 374.897662 
L 184.215694 374.897662 
L 185.450704 374.897662 
L 186.685714 374.897662 
L 187.920724 374.897662 
L 189.155734 261.321137 
L 190.390744 261.321137 
L 191.625755 261.321137 
L 192.860765 261.321137 
L 194.095775 261.321137 
L 195.330785 261.321137 
L 196.565795 261.321137 
L 197.800805 261.321137 
L 199.035815 261.321137 
L 200.270825 374.897662 
L 201.505835 374.897662 
L 202.740845 374.897662 
L 203.975855 451.240941 
L 205.210865 493223.916256 
L 206.445875 493223.916256 
L 207.680885 493223.916256 
L 208.915895 493223.916256 
L 210.150905 493223.916256 
L 211.385915 493223.916256 
L 212.620926 493223.916256 
L 213.855936 493223.916256 
L 215.090946 493223.916256 
L 216.325956 493223.916256 
L 217.560966 493223.916256 
L 218.795976 493223.916256 
L 220.030986 493223.916256 
L 221.265996 493223.916256 
L 222.501006 493223.916256 
L 223.736016 493223.916256 
L 224.971026 493223.916256 
L 226.206036 493223.916256 
L 227.441046 493223.916256 
L 228.676056 451.240941 
L 229.911066 451.240941 
L 231.146076 451.240941 
L 232.381087 261.321137 
L 233.616097 261.321137 
L 234.851107 261.321137 
L 236.086117 261.321137 
L 237.321127 261.321137 
L 238.556137 261.321137 
L 239.791147 261.321137 
L 241.026157 261.321137 
L 242.261167 261.321137 
L 243.496177 261.321137 
L 244.731187 261.321137 
L 245.966197 261.321137 
L 247.201207 261.321137 
L 248.436217 261.321137 
L 249.671227 374.897662 
L 250.906237 374.897662 
L 252.141247 261.321137 
L 253.376258 261.321137 
L 254.611268 226.535324 
L 255.846278 226.535324 
L 257.081288 226.535324 
L 258.316298 226.535324 
L 259.551308 226.535324 
L 260.786318 226.535324 
L 262.021328 226.535324 
L 263.256338 261.321137 
L 264.491348 261.321137 
L 265.726358 261.321137 
L 266.961368 261.321137 
L 268.196378 261.321137 
L 269.431388 374.897662 
L 270.666398 374.897662 
L 271.901408 374.897662 
L 273.136419 374.897662 
L 274.371429 374.897662 
L 275.606439 374.897662 
L 276.841449 374.897662 
L 278.076459 374.897662 
L 279.311469 374.897662 
L 280.546479 374.897662 
L 281.781489 374.897662 
L 283.016499 374.897662 
L 284.251509 374.897662 
L 285.486519 374.897662 
L 286.721529 374.897662 
L 287.956539 451.240941 
L 289.191549 261.321137 
L 290.426559 261.321137 
L 291.661569 451.240941 
L 292.896579 451.240941 
L 294.13159 451.240941 
L 295.3666 451.240941 
L 296.60161 451.240941 
L 297.83662 374.897662 
L 299.07163 374.897662 
L 300.30664 374.897662 
L 301.54165 374.897662 
L 302.77666 374.897662 
L 304.01167 374.897662 
L 305.24668 374.897662 
L 306.48169 374.897662 
L 307.7167 374.897662 
L 308.95171 374.897662 
L 310.18672 374.897662 
L 311.42173 374.897662 
L 312.65674 374.897662 
L 313.891751 374.897662 
L 315.126761 374.897662 
L 316.361771 374.897662 
L 317.596781 374.897662 
L 318.831791 374.897662 
L 320.066801 374.897662 
L 321.301811 374.897662 
L 322.536821 374.897662 
L 323.771831 374.897662 
L 325.006841 374.897662 
L 326.241851 374.897662 
L 327.476861 374.897662 
L 328.711871 374.897662 
L 329.946881 374.897662 
L 331.181891 374.897662 
L 332.416901 451.240941 
L 333.651911 374.897662 
L 334.886922 261.321137 
L 336.121932 261.321137 
L 337.356942 261.321137 
L 338.591952 261.321137 
L 339.826962 261.321137 
L 341.061972 226.535324 
L 342.296982 226.535324 
L 343.531992 226.535324 
L 344.767002 226.535324 
L 346.002012 226.535324 
L 347.237022 162.300454 
L 348.472032 162.300454 
L 349.707042 139.74892 
L 350.942052 162.300454 
L 352.177062 162.300454 
L 353.412072 162.300454 
L 354.647082 162.300454 
L 355.882093 162.300454 
L 357.117103 162.300454 
L 358.352113 162.300454 
L 359.587123 162.300454 
L 360.822133 94.86 
L 362.057143 94.86 
L 363.292153 94.86 
L 364.527163 112.958799 
L 365.762173 112.958799 
L 366.997183 302.878603 
L 368.232193 112.958799 
L 369.467203 112.958799 
L 370.702213 154.516265 
L 371.937223 154.516265 
L 373.172233 154.516265 
L 374.407243 112.958799 
L 375.642254 112.958799 
L 376.877264 112.958799 
L 378.112274 226.535324 
L 379.347284 226.535324 
L 380.582294 226.535324 
L 381.817304 226.535324 
L 383.052314 226.535324 
L 384.287324 226.535324 
L 385.522334 302.878603 
L 386.757344 226.535324 
L 387.992354 226.535324 
L 389.227364 226.535324 
L 390.462374 226.535324 
L 391.697384 261.321137 
L 392.932394 261.321137 
L 394.167404 261.321137 
L 395.402414 374.897662 
L 396.637425 374.897662 
L 397.872435 374.897662 
L 399.107445 374.897662 
L 400.342455 374.897662 
L 401.577465 374.897662 
L 402.812475 374.897662 
L 404.047485 374.897662 
L 405.282495 451.240941 
L 406.517505 451.240941 
L 407.752515 451.240941 
L 408.987525 451.240941 
L 410.222535 451.240941 
L 411.457545 493223.916256 
L 412.692555 302.878603 
L 413.927565 226.535324 
L 415.162575 226.535324 
L 416.397586 226.535324 
L 417.632596 226.535324 
L 418.867606 226.535324 
L 420.102616 226.535324 
L 421.337626 226.535324 
L 422.572636 226.535324 
L 423.807646 226.535324 
L 425.042656 226.535324 
L 426.277666 226.535324 
L 427.512676 226.535324 
L 428.747686 226.535324 
L 429.982696 226.535324 
L 431.217706 261.321137 
L 432.452716 261.321137 
L 433.687726 261.321137 
L 434.922736 261.321137 
L 436.157746 226.535324 
L 437.392757 226.535324 
L 438.627767 226.535324 
L 439.862777 226.535324 
L 441.097787 226.535324 
L 442.332797 226.535324 
L 443.567807 261.321137 
L 444.802817 261.321137 
L 446.037827 261.321137 
L 447.272837 302.878603 
L 448.507847 302.878603 
L 449.742857 302.878603 
L 450.977867 261.321137 
L 452.212877 261.321137 
L 453.447887 451.240941 
L 454.682897 451.240941 
L 455.917907 451.240941 
L 457.152918 261.321137 
L 458.387928 261.321137 
L 459.622938 261.321137 
L 460.857948 261.321137 
L 462.092958 261.321137 
L 463.327968 261.321137 
L 464.562978 261.321137 
L 465.797988 261.321137 
L 467.032998 374.897662 
L 468.268008 451.240941 
L 469.503018 451.240941 
L 470.738028 451.240941 
L 471.973038 451.240941 
L 473.208048 451.240941 
L 474.443058 451.240941 
L 475.678068 451.240941 
L 476.913078 451.240941 
L 478.148089 451.240941 
L 479.383099 451.240941 
L 480.618109 451.240941 
L 481.853119 451.240941 
L 483.088129 302.878603 
L 484.323139 302.878603 
L 485.558149 302.878603 
L 486.793159 302.878603 
L 488.028169 302.878603 
L 489.263179 302.878603 
L 490.498189 302.878603 
L 491.733199 493223.916256 
L 492.968209 493223.916256 
L 494.203219 493223.916256 
L 495.438229 451.240941 
L 496.673239 451.240941 
L 497.908249 451.240941 
L 499.14326 451.240941 
L 500.37827 493223.916256 
L 501.61328 451.240941 
L 502.84829 451.240941 
L 504.0833 451.240941 
L 505.31831 451.240941 
L 506.55332 374.897662 
L 507.78833 374.897662 
L 509.02334 374.897662 
L 510.25835 374.897662 
L 511.49336 374.897662 
L 512.72837 451.240941 
L 513.96338 451.240941 
L 515.19839 451.240941 
L 516.4334 451.240941 
L 517.66841 451.240941 
L 518.903421 451.240941 
L 520.138431 451.240941 
L 521.373441 451.240941 
L 522.608451 451.240941 
L 523.843461 493223.916256 
L 525.078471 451.240941 
L 526.313481 451.240941 
L 527.548491 451.240941 
L 528.783501 451.240941 
L 530.018511 451.240941 
L 531.253521 374.897662 
L 532.488531 261.321137 
L 533.723541 261.321137 
L 534.958551 261.321137 
L 536.193561 162.300454 
L 537.428571 162.300454 
L 538.663581 162.300454 
L 539.898592 162.300454 
L 541.133602 162.300454 
L 542.368612 187.510925 
L 543.603622 187.510925 
L 544.838632 187.510925 
L 546.073642 187.510925 
L 547.308652 187.510925 
L 548.543662 187.510925 
L 549.778672 374.897662 
L 551.013682 374.897662 
L 552.248692 374.897662 
L 553.483702 451.240941 
L 554.718712 451.240941 
L 555.953722 451.240941 
L 557.188732 451.240941 
L 558.423742 451.240941 
L 559.658753 451.240941 
L 560.893763 493223.916256 
L 562.128773 451.240941 
L 563.363783 493223.916256 
L 564.598793 493223.916256 
L 565.833803 493223.916256 
L 567.068813 493223.916256 
L 568.303823 493223.916256 
L 569.538833 493223.916256 
L 570.773843 493223.916256 
L 572.008853 451.240941 
L 573.243863 374.897662 
L 574.478873 374.897662 
L 575.713883 374.897662 
L 576.948893 374.897662 
L 578.183903 374.897662 
L 579.418913 451.240941 
L 580.653924 451.240941 
L 581.888934 451.240941 
L 583.123944 374.897662 
L 584.358954 374.897662 
L 585.593964 374.897662 
L 586.828974 374.897662 
L 588.063984 374.897662 
L 589.298994 451.240941 
L 590.534004 493223.916256 
L 591.769014 302.878603 
L 593.004024 302.878603 
L 594.239034 302.878603 
L 595.474044 302.878603 
L 596.709054 302.878603 
L 597.944064 302.878603 
L 599.179074 261.321137 
L 600.414085 451.240941 
L 601.649095 451.240941 
L 602.884105 374.897662 
L 604.119115 374.897662 
L 605.354125 374.897662 
L 606.589135 374.897662 
L 607.824145 374.897662 
L 609.059155 374.897662 
L 610.294165 374.897662 
L 611.529175 374.897662 
L 612.764185 261.321137 
L 613.999195 261.321137 
L 615.234205 226.535324 
L 616.469215 226.535324 
L 617.704225 226.535324 
L 618.939235 226.535324 
L 620.174245 226.535324 
L 621.409256 226.535324 
L 622.644266 226.535324 
L 623.879276 226.535324 
L 625.114286 226.535324 
L 626.349296 226.535324 
L 627.584306 226.535324 
L 628.819316 226.535324 
L 630.054326 226.535324 
L 631.289336 226.535324 
L 632.524346 302.878603 
L 633.759356 302.878603 
L 634.994366 493223.916256 
L 636.229376 493223.916256 
L 637.464386 493223.916256 
L 638.699396 493223.916256 
L 639.934406 493223.916256 
L 641.169416 493223.916256 
L 642.404427 493223.916256 
L 643.639437 493223.916256 
L 644.874447 493223.916256 
L 646.109457 493223.916256 
L 647.344467 493223.916256 
L 648.579477 493223.916256 
L 649.814487 493223.916256 
L 651.049497 493223.916256 
L 652.284507 493223.916256 
L 653.519517 493223.916256 
L 654.754527 493223.916256 
L 655.989537 493223.916256 
L 657.224547 493223.916256 
L 658.459557 493223.916256 
L 659.694567 493223.916256 
L 660.929577 493223.916256 
L 662.164588 493223.916256 
L 663.399598 493223.916256 
L 664.634608 493223.916256 
L 665.869618 493223.916256 
L 667.104628 493223.916256 
L 668.339638 493223.916256 
L 669.574648 493223.916256 
L 670.809658 493223.916256 
L 672.044668 493223.916256 
L 673.279678 493223.916256 
L 674.514688 493223.916256 
L 675.749698 493223.916256 
L 676.984708 493223.916256 
L 678.219718 493223.916256 
L 679.454728 493223.916256 
L 680.689738 493223.916256 
L 681.924748 493223.916256 
L 683.159759 493223.916256 
L 684.394769 493223.916256 
L 685.629779 493223.916256 
L 686.864789 493223.916256 
L 688.099799 493223.916256 
L 689.334809 493223.916256 
L 690.569819 493223.916256 
L 691.804829 493223.916256 
L 693.039839 493223.916256 
L 694.274849 493223.916256 
L 695.509859 493223.916256 
L 696.744869 493223.916256 
L 697.979879 493223.916256 
L 699.214889 493223.916256 
L 700.449899 493223.916256 
L 701.684909 493223.916256 
L 702.91992 493223.916256 
L 704.15493 493223.916256 
L 705.38994 493223.916256 
L 706.62495 493223.916256 
L 707.85996 493223.916256 
L 709.09497 493223.916256 
L 710.32998 493223.916256 
L 711.56499 493223.916256 
L 712.8 493223.916256 
L 712.8 493223.916256 
L 712.8 493223.916256 
L 711.56499 493223.916256 
L 710.32998 493223.916256 
L 709.09497 493223.916256 
L 707.85996 493223.916256 
L 706.62495 493223.916256 
L 705.38994 493223.916256 
L 704.15493 493223.916256 
L 702.91992 493223.916256 
L 701.684909 493223.916256 
L 700.449899 493223.916256 
L 699.214889 493223.916256 
L 697.979879 493223.916256 
L 696.744869 493223.916256 
L 695.509859 493223.916256 
L 694.274849 493223.916256 
L 693.039839 493223.916256 
L 691.804829 493223.916256 
L 690.569819 493223.916256 
L 689.334809 493223.916256 
L 688.099799 493223.916256 
L 686.864789 493223.916256 
L 685.629779 493223.916256 
L 684.394769 493223.916256 
L 683.159759 493223.916256 
L 681.924748 493223.916256 
L 680.689738 493223.916256 
L 679.454728 493223.916256 
L 678.219718 493223.916256 
L 676.984708 493223.916256 
L 675.749698 493223.916256 
L 674.514688 493223.916256 
L 673.279678 493223.916256 
L 672.044668 493223.916256 
L 670.809658 493223.916256 
L 669.574648 493223.916256 
L 668.339638 493223.916256 
L 667.104628 493223.916256 
L 665.869618 493223.916256 
L 664.634608 493223.916256 
L 663.399598 493223.916256 
L 662.164588 493223.916256 
L 660.929577 493223.916256 
L 659.694567 493223.916256 
L 658.459557 493223.916256 
L 657.224547 493223.916256 
L 655.989537 493223.916256 
L 654.754527 493223.916256 
L 653.519517 493223.916256 
L 652.284507 493223.916256 
L 651.049497 493223.916256 
L 649.814487 493223.916256 
L 648.579477 493223.916256 
L 647.344467 493223.916256 
L 646.109457 493223.916256 
L 644.874447 493223.916256 
L 643.639437 493223.916256 
L 642.404427 493223.916256 
L 641.169416 493223.916256 
L 639.934406 493223.916256 
L 638.699396 493223.916256 
L 637.464386 493223.916256 
L 636.229376 493223.916256 
L 634.994366 493223.916256 
L 633.759356 493223.916256 
L 632.524346 493223.916256 
L 631.289336 493223.916256 
L 630.054326 493223.916256 
L 628.819316 493223.916256 
L 627.584306 493223.916256 
L 626.349296 493223.916256 
L 625.114286 493223.916256 
L 623.879276 493223.916256 
L 622.644266 493223.916256 
L 621.409256 493223.916256 
L 620.174245 493223.916256 
L 618.939235 493223.916256 
L 617.704225 493223.916256 
L 616.469215 493223.916256 
L 615.234205 493223.916256 
L 613.999195 493223.916256 
L 612.764185 493223.916256 
L 611.529175 493223.916256 
L 610.294165 493223.916256 
L 609.059155 493223.916256 
L 607.824145 493223.916256 
L 606.589135 493223.916256 
L 605.354125 493223.916256 
L 604.119115 493223.916256 
L 602.884105 493223.916256 
L 601.649095 493223.916256 
L 600.414085 493223.916256 
L 599.179074 493223.916256 
L 597.944064 493223.916256 
L 596.709054 493223.916256 
L 595.474044 493223.916256 
L 594.239034 493223.916256 
L 593.004024 493223.916256 
L 591.769014 493223.916256 
L 590.534004 493223.916256 
L 589.298994 493223.916256 
L 588.063984 493223.916256 
L 586.828974 493223.916256 
L 585.593964 493223.916256 
L 584.358954 493223.916256 
L 583.123944 493223.916256 
L 581.888934 493223.916256 
L 580.653924 493223.916256 
L 579.418913 493223.916256 
L 578.183903 493223.916256 
L 576.948893 493223.916256 
L 575.713883 493223.916256 
L 574.478873 493223.916256 
L 573.243863 493223.916256 
L 572.008853 493223.916256 
L 570.773843 493223.916256 
L 569.538833 493223.916256 
L 568.303823 493223.916256 
L 567.068813 493223.916256 
L 565.833803 493223.916256 
L 564.598793 493223.916256 
L 563.363783 493223.916256 
L 562.128773 493223.916256 
L 560.893763 493223.916256 
L 559.658753 493223.916256 
L 558.423742 493223.916256 
L 557.188732 493223.916256 
L 555.953722 493223.916256 
L 554.718712 493223.916256 
L 553.483702 493223.916256 
L 552.248692 493223.916256 
L 551.013682 493223.916256 
L 549.778672 493223.916256 
L 548.543662 493223.916256 
L 547.308652 493223.916256 
L 546.073642 493223.916256 
L 544.838632 493223.916256 
L 543.603622 493223.916256 
L 542.368612 493223.916256 
L 541.133602 493223.916256 
L 539.898592 493223.916256 
L 538.663581 493223.916256 
L 537.428571 493223.916256 
L 536.193561 493223.916256 
L 534.958551 493223.916256 
L 533.723541 493223.916256 
L 532.488531 493223.916256 
L 531.253521 493223.916256 
L 530.018511 493223.916256 
L 528.783501 493223.916256 
L 527.548491 493223.916256 
L 526.313481 493223.916256 
L 525.078471 493223.916256 
L 523.843461 493223.916256 
L 522.608451 493223.916256 
L 521.373441 493223.916256 
L 520.138431 493223.916256 
L 518.903421 493223.916256 
L 517.66841 493223.916256 
L 516.4334 493223.916256 
L 515.19839 493223.916256 
L 513.96338 493223.916256 
L 512.72837 493223.916256 
L 511.49336 493223.916256 
L 510.25835 493223.916256 
L 509.02334 493223.916256 
L 507.78833 493223.916256 
L 506.55332 493223.916256 
L 505.31831 493223.916256 
L 504.0833 493223.916256 
L 502.84829 493223.916256 
L 501.61328 493223.916256 
L 500.37827 493223.916256 
L 499.14326 493223.916256 
L 497.908249 493223.916256 
L 496.673239 493223.916256 
L 495.438229 493223.916256 
L 494.203219 493223.916256 
L 492.968209 493223.916256 
L 491.733199 493223.916256 
L 490.498189 493223.916256 
L 489.263179 493223.916256 
L 488.028169 493223.916256 
L 486.793159 493223.916256 
L 485.558149 493223.916256 
L 484.323139 493223.916256 
L 483.088129 493223.916256 
L 481.853119 493223.916256 
L 480.618109 493223.916256 
L 479.383099 493223.916256 
L 478.148089 493223.916256 
L 476.913078 493223.916256 
L 475.678068 493223.916256 
L 474.443058 493223.916256 
L 473.208048 493223.916256 
L 471.973038 493223.916256 
L 470.738028 493223.916256 
L 469.503018 493223.916256 
L 468.268008 493223.916256 
L 467.032998 493223.916256 
L 465.797988 493223.916256 
L 464.562978 493223.916256 
L 463.327968 493223.916256 
L 462.092958 493223.916256 
L 460.857948 493223.916256 
L 459.622938 493223.916256 
L 458.387928 493223.916256 
L 457.152918 493223.916256 
L 455.917907 493223.916256 
L 454.682897 493223.916256 
L 453.447887 493223.916256 
L 452.212877 493223.916256 
L 450.977867 493223.916256 
L 449.742857 493223.916256 
L 448.507847 493223.916256 
L 447.272837 493223.916256 
L 446.037827 493223.916256 
L 444.802817 493223.916256 
L 443.567807 493223.916256 
L 442.332797 493223.916256 
L 441.097787 493223.916256 
L 439.862777 493223.916256 
L 438.627767 493223.916256 
L 437.392757 493223.916256 
L 436.157746 493223.916256 
L 434.922736 493223.916256 
L 433.687726 493223.916256 
L 432.452716 493223.916256 
L 431.217706 493223.916256 
L 429.982696 493223.916256 
L 428.747686 493223.916256 
L 427.512676 493223.916256 
L 426.277666 493223.916256 
L 425.042656 493223.916256 
L 423.807646 493223.916256 
L 422.572636 493223.916256 
L 421.337626 493223.916256 
L 420.102616 493223.916256 
L 418.867606 493223.916256 
L 417.632596 493223.916256 
L 416.397586 493223.916256 
L 415.162575 493223.916256 
L 413.927565 493223.916256 
L 412.692555 493223.916256 
L 411.457545 493223.916256 
L 410.222535 493223.916256 
L 408.987525 493223.916256 
L 407.752515 493223.916256 
L 406.517505 493223.916256 
L 405.282495 493223.916256 
L 404.047485 493223.916256 
L 402.812475 493223.916256 
L 401.577465 493223.916256 
L 400.342455 493223.916256 
L 399.107445 493223.916256 
L 397.872435 493223.916256 
L 396.637425 493223.916256 
L 395.402414 493223.916256 
L 394.167404 493223.916256 
L 392.932394 493223.916256 
L 391.697384 493223.916256 
L 390.462374 493223.916256 
L 389.227364 493223.916256 
L 387.992354 493223.916256 
L 386.757344 493223.916256 
L 385.522334 493223.916256 
L 384.287324 493223.916256 
L 383.052314 493223.916256 
L 381.817304 493223.916256 
L 380.582294 493223.916256 
L 379.347284 493223.916256 
L 378.112274 493223.916256 
L 376.877264 493223.916256 
L 375.642254 493223.916256 
L 374.407243 493223.916256 
L 373.172233 493223.916256 
L 371.937223 493223.916256 
L 370.702213 493223.916256 
L 369.467203 493223.916256 
L 368.232193 493223.916256 
L 366.997183 493223.916256 
L 365.762173 493223.916256 
L 364.527163 493223.916256 
L 363.292153 493223.916256 
L 362.057143 493223.916256 
L 360.822133 493223.916256 
L 359.587123 493223.916256 
L 358.352113 493223.916256 
L 357.117103 493223.916256 
L 355.882093 493223.916256 
L 354.647082 493223.916256 
L 353.412072 493223.916256 
L 352.177062 493223.916256 
L 350.942052 493223.916256 
L 349.707042 493223.916256 
L 348.472032 493223.916256 
L 347.237022 493223.916256 
L 346.002012 493223.916256 
L 344.767002 493223.916256 
L 343.531992 493223.916256 
L 342.296982 493223.916256 
L 341.061972 493223.916256 
L 339.826962 493223.916256 
L 338.591952 493223.916256 
L 337.356942 493223.916256 
L 336.121932 493223.916256 
L 334.886922 493223.916256 
L 333.651911 493223.916256 
L 332.416901 493223.916256 
L 331.181891 493223.916256 
L 329.946881 493223.916256 
L 328.711871 493223.916256 
L 327.476861 493223.916256 
L 326.241851 493223.916256 
L 325.006841 493223.916256 
L 323.771831 493223.916256 
L 322.536821 493223.916256 
L 321.301811 493223.916256 
L 320.066801 493223.916256 
L 318.831791 493223.916256 
L 317.596781 493223.916256 
L 316.361771 493223.916256 
L 315.126761 493223.916256 
L 313.891751 493223.916256 
L 312.65674 493223.916256 
L 311.42173 493223.916256 
L 310.18672 493223.916256 
L 308.95171 493223.916256 
L 307.7167 493223.916256 
L 306.48169 493223.916256 
L 305.24668 493223.916256 
L 304.01167 493223.916256 
L 302.77666 493223.916256 
L 301.54165 493223.916256 
L 300.30664 493223.916256 
L 299.07163 493223.916256 
L 297.83662 493223.916256 
L 296.60161 493223.916256 
L 295.3666 493223.916256 
L 294.13159 493223.916256 
L 292.896579 493223.916256 
L 291.661569 493223.916256 
L 290.426559 493223.916256 
L 289.191549 493223.916256 
L 287.956539 493223.916256 
L 286.721529 493223.916256 
L 285.486519 493223.916256 
L 284.251509 493223.916256 
L 283.016499 493223.916256 
L 281.781489 493223.916256 
L 280.546479 493223.916256 
L 279.311469 493223.916256 
L 278.076459 493223.916256 
L 276.841449 493223.916256 
L 275.606439 493223.916256 
L 274.371429 493223.916256 
L 273.136419 493223.916256 
L 271.901408 493223.916256 
L 270.666398 493223.916256 
L 269.431388 493223.916256 
L 268.196378 493223.916256 
L 266.961368 493223.916256 
L 265.726358 493223.916256 
L 264.491348 493223.916256 
L 263.256338 493223.916256 
L 262.021328 493223.916256 
L 260.786318 493223.916256 
L 259.551308 493223.916256 
L 258.316298 493223.916256 
L 257.081288 493223.916256 
L 255.846278 493223.916256 
L 254.611268 493223.916256 
L 253.376258 493223.916256 
L 252.141247 493223.916256 
L 250.906237 493223.916256 
L 249.671227 493223.916256 
L 248.436217 493223.916256 
L 247.201207 493223.916256 
L 245.966197 493223.916256 
L 244.731187 493223.916256 
L 243.496177 493223.916256 
L 242.261167 493223.916256 
L 241.026157 493223.916256 
L 239.791147 493223.916256 
L 238.556137 493223.916256 
L 237.321127 493223.916256 
L 236.086117 493223.916256 
L 234.851107 493223.916256 
L 233.616097 493223.916256 
L 232.381087 493223.916256 
L 231.146076 493223.916256 
L 229.911066 493223.916256 
L 228.676056 493223.916256 
L 227.441046 493223.916256 
L 226.206036 493223.916256 
L 224.971026 493223.916256 
L 223.736016 493223.916256 
L 222.501006 493223.916256 
L 221.265996 493223.916256 
L 220.030986 493223.916256 
L 218.795976 493223.916256 
L 217.560966 493223.916256 
L 216.325956 493223.916256 
L 215.090946 493223.916256 
L 213.855936 493223.916256 
L 212.620926 493223.916256 
L 211.385915 493223.916256 
L 210.150905 493223.916256 
L 208.915895 493223.916256 
L 207.680885 493223.916256 
L 206.445875 493223.916256 
L 205.210865 493223.916256 
L 203.975855 493223.916256 
L 202.740845 493223.916256 
L 201.505835 493223.916256 
L 200.270825 493223.916256 
L 199.035815 493223.916256 
L 197.800805 493223.916256 
L 196.565795 493223.916256 
L 195.330785 493223.916256 
L 194.095775 493223.916256 
L 192.860765 493223.916256 
L 191.625755 493223.916256 
L 190.390744 493223.916256 
L 189.155734 493223.916256 
L 187.920724 493223.916256 
L 186.685714 493223.916256 
L 185.450704 493223.916256 
L 184.215694 493223.916256 
L 182.980684 493223.916256 
L 181.745674 493223.916256 
L 180.510664 493223.916256 
L 179.275654 493223.916256 
L 178.040644 493223.916256 
L 176.805634 493223.916256 
L 175.570624 493223.916256 
L 174.335614 493223.916256 
L 173.100604 493223.916256 
L 171.865594 493223.916256 
L 170.630584 493223.916256 
L 169.395573 493223.916256 
L 168.160563 493223.916256 
L 166.925553 493223.916256 
L 165.690543 493223.916256 
L 164.455533 493223.916256 
L 163.220523 493223.916256 
L 161.985513 493223.916256 
L 160.750503 493223.916256 
L 159.515493 493223.916256 
L 158.280483 493223.916256 
L 157.045473 493223.916256 
L 155.810463 493223.916256 
L 154.575453 493223.916256 
L 153.340443 493223.916256 
L 152.105433 493223.916256 
L 150.870423 493223.916256 
L 149.635412 493223.916256 
L 148.400402 493223.916256 
L 147.165392 493223.916256 
L 145.930382 493223.916256 
L 144.695372 493223.916256 
L 143.460362 493223.916256 
L 142.225352 493223.916256 
L 140.990342 493223.916256 
L 139.755332 493223.916256 
L 138.520322 493223.916256 
L 137.285312 493223.916256 
L 136.050302 493223.916256 
L 134.815292 493223.916256 
L 133.580282 493223.916256 
L 132.345272 493223.916256 
L 131.110262 493223.916256 
L 129.875252 493223.916256 
L 128.640241 493223.916256 
L 127.405231 493223.916256 
L 126.170221 493223.916256 
L 124.935211 493223.916256 
L 123.700201 493223.916256 
L 122.465191 493223.916256 
L 121.230181 493223.916256 
L 119.995171 493223.916256 
L 118.760161 493223.916256 
L 117.525151 493223.916256 
L 116.290141 493223.916256 
L 115.055131 493223.916256 
L 113.820121 493223.916256 
L 112.585111 493223.916256 
L 111.350101 493223.916256 
L 110.115091 493223.916256 
L 108.88008 493223.916256 
L 107.64507 493223.916256 
L 106.41006 493223.916256 
L 105.17505 493223.916256 
L 103.94004 493223.916256 
L 102.70503 493223.916256 
L 101.47002 493223.916256 
L 100.23501 493223.916256 
L 99 493223.916256 
z
" style="fill:#8080ff;fill-opacity:0.5;stroke:#8080ff;stroke-opacity:0.5;"/>
   </g>
   <g id="PolyCollection_2">
    <path clip-path="url(#p68e2955192)" d="M 99 493223.916256 
L 99 493223.916256 
L 100.23501 493223.916256 
L 101.47002 493223.916256 
L 102.70503 493223.916256 
L 103.94004 493223.916256 
L 105.17505 493223.916256 
L 106.41006 493223.916256 
L 107.64507 493223.916256 
L 108.88008 493223.916256 
L 110.115091 493223.916256 
L 111.350101 493223.916256 
L 112.585111 493223.916256 
L 113.820121 493223.916256 
L 115.055131 451.240941 
L 116.290141 451.240941 
L 117.525151 451.240941 
L 118.760161 451.240941 
L 119.995171 451.240941 
L 121.230181 493223.916256 
L 122.465191 493223.916256 
L 123.700201 493223.916256 
L 124.935211 493223.916256 
L 126.170221 493223.916256 
L 127.405231 493223.916256 
L 128.640241 493223.916256 
L 129.875252 493223.916256 
L 131.110262 493223.916256 
L 132.345272 493223.916256 
L 133.580282 493223.916256 
L 134.815292 493223.916256 
L 136.050302 493223.916256 
L 137.285312 493223.916256 
L 138.520322 493223.916256 
L 139.755332 493223.916256 
L 140.990342 493223.916256 
L 142.225352 493223.916256 
L 143.460362 493223.916256 
L 144.695372 493223.916256 
L 145.930382 493223.916256 
L 147.165392 493223.916256 
L 148.400402 493223.916256 
L 149.635412 493223.916256 
L 150.870423 493223.916256 
L 152.105433 493223.916256 
L 153.340443 493223.916256 
L 154.575453 493223.916256 
L 155.810463 493223.916256 
L 157.045473 493223.916256 
L 158.280483 493223.916256 
L 159.515493 493223.916256 
L 160.750503 493223.916256 
L 161.985513 493223.916256 
L 163.220523 493223.916256 
L 164.455533 493223.916256 
L 165.690543 493223.916256 
L 166.925553 493223.916256 
L 168.160563 493223.916256 
L 169.395573 493223.916256 
L 170.630584 493223.916256 
L 171.865594 493223.916256 
L 173.100604 493223.916256 
L 174.335614 493223.916256 
L 175.570624 493223.916256 
L 176.805634 493223.916256 
L 178.040644 493223.916256 
L 179.275654 493223.916256 
L 180.510664 493223.916256 
L 181.745674 493223.916256 
L 182.980684 493223.916256 
L 184.215694 493223.916256 
L 185.450704 493223.916256 
L 186.685714 493223.916256 
L 187.920724 493223.916256 
L 189.155734 493223.916256 
L 190.390744 493223.916256 
L 191.625755 493223.916256 
L 192.860765 493223.916256 
L 194.095775 493223.916256 
L 195.330785 493223.916256 
L 196.565795 493223.916256 
L 197.800805 493223.916256 
L 199.035815 493223.916256 
L 200.270825 493223.916256 
L 201.505835 493223.916256 
L 202.740845 493223.916256 
L 203.975855 493223.916256 
L 205.210865 493223.916256 
L 206.445875 493223.916256 
L 207.680885 493223.916256 
L 208.915895 493223.916256 
L 210.150905 493223.916256 
L 211.385915 493223.916256 
L 212.620926 493223.916256 
L 213.855936 493223.916256 
L 215.090946 493223.916256 
L 216.325956 493223.916256 
L 217.560966 493223.916256 
L 218.795976 493223.916256 
L 220.030986 493223.916256 
L 221.265996 493223.916256 
L 222.501006 493223.916256 
L 223.736016 493223.916256 
L 224.971026 493223.916256 
L 226.206036 493223.916256 
L 227.441046 493223.916256 
L 228.676056 493223.916256 
L 229.911066 493223.916256 
L 231.146076 493223.916256 
L 232.381087 493223.916256 
L 233.616097 493223.916256 
L 234.851107 493223.916256 
L 236.086117 493223.916256 
L 237.321127 493223.916256 
L 238.556137 493223.916256 
L 239.791147 493223.916256 
L 241.026157 493223.916256 
L 242.261167 493223.916256 
L 243.496177 493223.916256 
L 244.731187 493223.916256 
L 245.966197 493223.916256 
L 247.201207 493223.916256 
L 248.436217 493223.916256 
L 249.671227 493223.916256 
L 250.906237 493223.916256 
L 252.141247 493223.916256 
L 253.376258 493223.916256 
L 254.611268 493223.916256 
L 255.846278 493223.916256 
L 257.081288 493223.916256 
L 258.316298 493223.916256 
L 259.551308 493223.916256 
L 260.786318 493223.916256 
L 262.021328 493223.916256 
L 263.256338 493223.916256 
L 264.491348 493223.916256 
L 265.726358 493223.916256 
L 266.961368 493223.916256 
L 268.196378 493223.916256 
L 269.431388 493223.916256 
L 270.666398 493223.916256 
L 271.901408 493223.916256 
L 273.136419 493223.916256 
L 274.371429 493223.916256 
L 275.606439 493223.916256 
L 276.841449 493223.916256 
L 278.076459 493223.916256 
L 279.311469 493223.916256 
L 280.546479 493223.916256 
L 281.781489 493223.916256 
L 283.016499 493223.916256 
L 284.251509 493223.916256 
L 285.486519 493223.916256 
L 286.721529 493223.916256 
L 287.956539 493223.916256 
L 289.191549 493223.916256 
L 290.426559 493223.916256 
L 291.661569 493223.916256 
L 292.896579 493223.916256 
L 294.13159 493223.916256 
L 295.3666 493223.916256 
L 296.60161 493223.916256 
L 297.83662 493223.916256 
L 299.07163 493223.916256 
L 300.30664 493223.916256 
L 301.54165 493223.916256 
L 302.77666 493223.916256 
L 304.01167 493223.916256 
L 305.24668 493223.916256 
L 306.48169 493223.916256 
L 307.7167 493223.916256 
L 308.95171 493223.916256 
L 310.18672 493223.916256 
L 311.42173 493223.916256 
L 312.65674 493223.916256 
L 313.891751 493223.916256 
L 315.126761 493223.916256 
L 316.361771 493223.916256 
L 317.596781 493223.916256 
L 318.831791 493223.916256 
L 320.066801 493223.916256 
L 321.301811 493223.916256 
L 322.536821 493223.916256 
L 323.771831 493223.916256 
L 325.006841 493223.916256 
L 326.241851 493223.916256 
L 327.476861 493223.916256 
L 328.711871 493223.916256 
L 329.946881 493223.916256 
L 331.181891 493223.916256 
L 332.416901 493223.916256 
L 333.651911 493223.916256 
L 334.886922 493223.916256 
L 336.121932 493223.916256 
L 337.356942 493223.916256 
L 338.591952 493223.916256 
L 339.826962 493223.916256 
L 341.061972 493223.916256 
L 342.296982 493223.916256 
L 343.531992 493223.916256 
L 344.767002 493223.916256 
L 346.002012 493223.916256 
L 347.237022 493223.916256 
L 348.472032 493223.916256 
L 349.707042 493223.916256 
L 350.942052 493223.916256 
L 352.177062 493223.916256 
L 353.412072 493223.916256 
L 354.647082 493223.916256 
L 355.882093 493223.916256 
L 357.117103 493223.916256 
L 358.352113 493223.916256 
L 359.587123 493223.916256 
L 360.822133 493223.916256 
L 362.057143 493223.916256 
L 363.292153 493223.916256 
L 364.527163 493223.916256 
L 365.762173 493223.916256 
L 366.997183 493223.916256 
L 368.232193 493223.916256 
L 369.467203 493223.916256 
L 370.702213 493223.916256 
L 371.937223 493223.916256 
L 373.172233 493223.916256 
L 374.407243 493223.916256 
L 375.642254 493223.916256 
L 376.877264 493223.916256 
L 378.112274 493223.916256 
L 379.347284 493223.916256 
L 380.582294 493223.916256 
L 381.817304 493223.916256 
L 383.052314 493223.916256 
L 384.287324 493223.916256 
L 385.522334 493223.916256 
L 386.757344 493223.916256 
L 387.992354 493223.916256 
L 389.227364 493223.916256 
L 390.462374 493223.916256 
L 391.697384 493223.916256 
L 392.932394 493223.916256 
L 394.167404 493223.916256 
L 395.402414 493223.916256 
L 396.637425 493223.916256 
L 397.872435 493223.916256 
L 399.107445 493223.916256 
L 400.342455 493223.916256 
L 401.577465 493223.916256 
L 402.812475 493223.916256 
L 404.047485 493223.916256 
L 405.282495 493223.916256 
L 406.517505 493223.916256 
L 407.752515 493223.916256 
L 408.987525 493223.916256 
L 410.222535 493223.916256 
L 411.457545 493223.916256 
L 412.692555 493223.916256 
L 413.927565 493223.916256 
L 415.162575 493223.916256 
L 416.397586 493223.916256 
L 417.632596 493223.916256 
L 418.867606 493223.916256 
L 420.102616 493223.916256 
L 421.337626 493223.916256 
L 422.572636 493223.916256 
L 423.807646 493223.916256 
L 425.042656 493223.916256 
L 426.277666 493223.916256 
L 427.512676 493223.916256 
L 428.747686 493223.916256 
L 429.982696 493223.916256 
L 431.217706 493223.916256 
L 432.452716 493223.916256 
L 433.687726 493223.916256 
L 434.922736 493223.916256 
L 436.157746 493223.916256 
L 437.392757 493223.916256 
L 438.627767 493223.916256 
L 439.862777 493223.916256 
L 441.097787 493223.916256 
L 442.332797 493223.916256 
L 443.567807 493223.916256 
L 444.802817 493223.916256 
L 446.037827 493223.916256 
L 447.272837 493223.916256 
L 448.507847 493223.916256 
L 449.742857 493223.916256 
L 450.977867 493223.916256 
L 452.212877 493223.916256 
L 453.447887 493223.916256 
L 454.682897 493223.916256 
L 455.917907 493223.916256 
L 457.152918 493223.916256 
L 458.387928 493223.916256 
L 459.622938 493223.916256 
L 460.857948 493223.916256 
L 462.092958 493223.916256 
L 463.327968 493223.916256 
L 464.562978 493223.916256 
L 465.797988 493223.916256 
L 467.032998 493223.916256 
L 468.268008 493223.916256 
L 469.503018 493223.916256 
L 470.738028 493223.916256 
L 471.973038 493223.916256 
L 473.208048 493223.916256 
L 474.443058 493223.916256 
L 475.678068 493223.916256 
L 476.913078 493223.916256 
L 478.148089 493223.916256 
L 479.383099 493223.916256 
L 480.618109 493223.916256 
L 481.853119 493223.916256 
L 483.088129 493223.916256 
L 484.323139 493223.916256 
L 485.558149 493223.916256 
L 486.793159 493223.916256 
L 488.028169 493223.916256 
L 489.263179 493223.916256 
L 490.498189 493223.916256 
L 491.733199 493223.916256 
L 492.968209 493223.916256 
L 494.203219 493223.916256 
L 495.438229 493223.916256 
L 496.673239 493223.916256 
L 497.908249 493223.916256 
L 499.14326 493223.916256 
L 500.37827 493223.916256 
L 501.61328 493223.916256 
L 502.84829 493223.916256 
L 504.0833 493223.916256 
L 505.31831 493223.916256 
L 506.55332 493223.916256 
L 507.78833 493223.916256 
L 509.02334 493223.916256 
L 510.25835 493223.916256 
L 511.49336 493223.916256 
L 512.72837 493223.916256 
L 513.96338 493223.916256 
L 515.19839 493223.916256 
L 516.4334 493223.916256 
L 517.66841 493223.916256 
L 518.903421 493223.916256 
L 520.138431 493223.916256 
L 521.373441 493223.916256 
L 522.608451 493223.916256 
L 523.843461 493223.916256 
L 525.078471 493223.916256 
L 526.313481 493223.916256 
L 527.548491 493223.916256 
L 528.783501 493223.916256 
L 530.018511 493223.916256 
L 531.253521 493223.916256 
L 532.488531 493223.916256 
L 533.723541 493223.916256 
L 534.958551 493223.916256 
L 536.193561 493223.916256 
L 537.428571 493223.916256 
L 538.663581 493223.916256 
L 539.898592 493223.916256 
L 541.133602 493223.916256 
L 542.368612 493223.916256 
L 543.603622 493223.916256 
L 544.838632 493223.916256 
L 546.073642 493223.916256 
L 547.308652 493223.916256 
L 548.543662 493223.916256 
L 549.778672 493223.916256 
L 551.013682 493223.916256 
L 552.248692 493223.916256 
L 553.483702 493223.916256 
L 554.718712 493223.916256 
L 555.953722 493223.916256 
L 557.188732 493223.916256 
L 558.423742 493223.916256 
L 559.658753 493223.916256 
L 560.893763 493223.916256 
L 562.128773 493223.916256 
L 563.363783 493223.916256 
L 564.598793 493223.916256 
L 565.833803 493223.916256 
L 567.068813 493223.916256 
L 568.303823 493223.916256 
L 569.538833 493223.916256 
L 570.773843 493223.916256 
L 572.008853 493223.916256 
L 573.243863 493223.916256 
L 574.478873 493223.916256 
L 575.713883 493223.916256 
L 576.948893 493223.916256 
L 578.183903 493223.916256 
L 579.418913 493223.916256 
L 580.653924 493223.916256 
L 581.888934 493223.916256 
L 583.123944 493223.916256 
L 584.358954 493223.916256 
L 585.593964 493223.916256 
L 586.828974 493223.916256 
L 588.063984 493223.916256 
L 589.298994 493223.916256 
L 590.534004 493223.916256 
L 591.769014 493223.916256 
L 593.004024 493223.916256 
L 594.239034 493223.916256 
L 595.474044 493223.916256 
L 596.709054 493223.916256 
L 597.944064 493223.916256 
L 599.179074 493223.916256 
L 600.414085 493223.916256 
L 601.649095 493223.916256 
L 602.884105 493223.916256 
L 604.119115 493223.916256 
L 605.354125 493223.916256 
L 606.589135 493223.916256 
L 607.824145 493223.916256 
L 609.059155 493223.916256 
L 610.294165 493223.916256 
L 611.529175 493223.916256 
L 612.764185 493223.916256 
L 613.999195 493223.916256 
L 615.234205 493223.916256 
L 616.469215 493223.916256 
L 617.704225 493223.916256 
L 618.939235 493223.916256 
L 620.174245 493223.916256 
L 621.409256 493223.916256 
L 622.644266 493223.916256 
L 623.879276 493223.916256 
L 625.114286 493223.916256 
L 626.349296 493223.916256 
L 627.584306 493223.916256 
L 628.819316 493223.916256 
L 630.054326 493223.916256 
L 631.289336 493223.916256 
L 632.524346 493223.916256 
L 633.759356 493223.916256 
L 634.994366 493223.916256 
L 636.229376 493223.916256 
L 637.464386 493223.916256 
L 638.699396 493223.916256 
L 639.934406 493223.916256 
L 641.169416 493223.916256 
L 642.404427 493223.916256 
L 643.639437 493223.916256 
L 644.874447 493223.916256 
L 646.109457 493223.916256 
L 647.344467 493223.916256 
L 648.579477 493223.916256 
L 649.814487 493223.916256 
L 651.049497 493223.916256 
L 652.284507 493223.916256 
L 653.519517 493223.916256 
L 654.754527 493223.916256 
L 655.989537 493223.916256 
L 657.224547 493223.916256 
L 658.459557 493223.916256 
L 659.694567 493223.916256 
L 660.929577 493223.916256 
L 662.164588 493223.916256 
L 663.399598 493223.916256 
L 664.634608 493223.916256 
L 665.869618 493223.916256 
L 667.104628 493223.916256 
L 668.339638 493223.916256 
L 669.574648 493223.916256 
L 670.809658 493223.916256 
L 672.044668 493223.916256 
L 673.279678 493223.916256 
L 674.514688 493223.916256 
L 675.749698 493223.916256 
L 676.984708 493223.916256 
L 678.219718 493223.916256 
L 679.454728 493223.916256 
L 680.689738 493223.916256 
L 681.924748 493223.916256 
L 683.159759 493223.916256 
L 684.394769 493223.916256 
L 685.629779 493223.916256 
L 686.864789 493223.916256 
L 688.099799 493223.916256 
L 689.334809 493223.916256 
L 690.569819 493223.916256 
L 691.804829 493223.916256 
L 693.039839 493223.916256 
L 694.274849 493223.916256 
L 695.509859 493223.916256 
L 696.744869 493223.916256 
L 697.979879 493223.916256 
L 699.214889 493223.916256 
L 700.449899 493223.916256 
L 701.684909 493223.916256 
L 702.91992 493223.916256 
L 704.15493 493223.916256 
L 705.38994 493223.916256 
L 706.62495 493223.916256 
L 707.85996 493223.916256 
L 709.09497 493223.916256 
L 710.32998 493223.916256 
L 711.56499 493223.916256 
L 712.8 493223.916256 
L 712.8 493223.916256 
L 712.8 493223.916256 
L 711.56499 493223.916256 
L 710.32998 493223.916256 
L 709.09497 493223.916256 
L 707.85996 493223.916256 
L 706.62495 493223.916256 
L 705.38994 493223.916256 
L 704.15493 493223.916256 
L 702.91992 493223.916256 
L 701.684909 493223.916256 
L 700.449899 493223.916256 
L 699.214889 493223.916256 
L 697.979879 493223.916256 
L 696.744869 493223.916256 
L 695.509859 493223.916256 
L 694.274849 493223.916256 
L 693.039839 493223.916256 
L 691.804829 493223.916256 
L 690.569819 493223.916256 
L 689.334809 493223.916256 
L 688.099799 493223.916256 
L 686.864789 493223.916256 
L 685.629779 493223.916256 
L 684.394769 493223.916256 
L 683.159759 493223.916256 
L 681.924748 493223.916256 
L 680.689738 493223.916256 
L 679.454728 493223.916256 
L 678.219718 493223.916256 
L 676.984708 493223.916256 
L 675.749698 493223.916256 
L 674.514688 493223.916256 
L 673.279678 493223.916256 
L 672.044668 493223.916256 
L 670.809658 493223.916256 
L 669.574648 493223.916256 
L 668.339638 493223.916256 
L 667.104628 493223.916256 
L 665.869618 493223.916256 
L 664.634608 493223.916256 
L 663.399598 493223.916256 
L 662.164588 493223.916256 
L 660.929577 493223.916256 
L 659.694567 493223.916256 
L 658.459557 493223.916256 
L 657.224547 493223.916256 
L 655.989537 493223.916256 
L 654.754527 493223.916256 
L 653.519517 493223.916256 
L 652.284507 493223.916256 
L 651.049497 493223.916256 
L 649.814487 493223.916256 
L 648.579477 493223.916256 
L 647.344467 493223.916256 
L 646.109457 493223.916256 
L 644.874447 493223.916256 
L 643.639437 493223.916256 
L 642.404427 493223.916256 
L 641.169416 493223.916256 
L 639.934406 493223.916256 
L 638.699396 493223.916256 
L 637.464386 493223.916256 
L 636.229376 493223.916256 
L 634.994366 493223.916256 
L 633.759356 493223.916256 
L 632.524346 493223.916256 
L 631.289336 493223.916256 
L 630.054326 493223.916256 
L 628.819316 493223.916256 
L 627.584306 493223.916256 
L 626.349296 493223.916256 
L 625.114286 493223.916256 
L 623.879276 493223.916256 
L 622.644266 493223.916256 
L 621.409256 493223.916256 
L 620.174245 493223.916256 
L 618.939235 493223.916256 
L 617.704225 493223.916256 
L 616.469215 493223.916256 
L 615.234205 493223.916256 
L 613.999195 493223.916256 
L 612.764185 493223.916256 
L 611.529175 493223.916256 
L 610.294165 493223.916256 
L 609.059155 493223.916256 
L 607.824145 493223.916256 
L 606.589135 493223.916256 
L 605.354125 493223.916256 
L 604.119115 493223.916256 
L 602.884105 493223.916256 
L 601.649095 493223.916256 
L 600.414085 493223.916256 
L 599.179074 493223.916256 
L 597.944064 493223.916256 
L 596.709054 493223.916256 
L 595.474044 493223.916256 
L 594.239034 493223.916256 
L 593.004024 493223.916256 
L 591.769014 493223.916256 
L 590.534004 493223.916256 
L 589.298994 493223.916256 
L 588.063984 493223.916256 
L 586.828974 493223.916256 
L 585.593964 493223.916256 
L 584.358954 493223.916256 
L 583.123944 493223.916256 
L 581.888934 493223.916256 
L 580.653924 493223.916256 
L 579.418913 493223.916256 
L 578.183903 493223.916256 
L 576.948893 493223.916256 
L 575.713883 493223.916256 
L 574.478873 493223.916256 
L 573.243863 493223.916256 
L 572.008853 493223.916256 
L 570.773843 493223.916256 
L 569.538833 493223.916256 
L 568.303823 493223.916256 
L 567.068813 493223.916256 
L 565.833803 493223.916256 
L 564.598793 493223.916256 
L 563.363783 493223.916256 
L 562.128773 493223.916256 
L 560.893763 493223.916256 
L 559.658753 493223.916256 
L 558.423742 493223.916256 
L 557.188732 493223.916256 
L 555.953722 493223.916256 
L 554.718712 493223.916256 
L 553.483702 493223.916256 
L 552.248692 493223.916256 
L 551.013682 493223.916256 
L 549.778672 493223.916256 
L 548.543662 493223.916256 
L 547.308652 493223.916256 
L 546.073642 493223.916256 
L 544.838632 493223.916256 
L 543.603622 493223.916256 
L 542.368612 493223.916256 
L 541.133602 493223.916256 
L 539.898592 493223.916256 
L 538.663581 493223.916256 
L 537.428571 493223.916256 
L 536.193561 493223.916256 
L 534.958551 493223.916256 
L 533.723541 493223.916256 
L 532.488531 493223.916256 
L 531.253521 493223.916256 
L 530.018511 493223.916256 
L 528.783501 493223.916256 
L 527.548491 493223.916256 
L 526.313481 493223.916256 
L 525.078471 493223.916256 
L 523.843461 493223.916256 
L 522.608451 493223.916256 
L 521.373441 493223.916256 
L 520.138431 493223.916256 
L 518.903421 493223.916256 
L 517.66841 493223.916256 
L 516.4334 493223.916256 
L 515.19839 493223.916256 
L 513.96338 493223.916256 
L 512.72837 493223.916256 
L 511.49336 493223.916256 
L 510.25835 493223.916256 
L 509.02334 493223.916256 
L 507.78833 493223.916256 
L 506.55332 493223.916256 
L 505.31831 493223.916256 
L 504.0833 493223.916256 
L 502.84829 493223.916256 
L 501.61328 493223.916256 
L 500.37827 493223.916256 
L 499.14326 493223.916256 
L 497.908249 493223.916256 
L 496.673239 493223.916256 
L 495.438229 493223.916256 
L 494.203219 493223.916256 
L 492.968209 493223.916256 
L 491.733199 493223.916256 
L 490.498189 493223.916256 
L 489.263179 493223.916256 
L 488.028169 493223.916256 
L 486.793159 493223.916256 
L 485.558149 493223.916256 
L 484.323139 493223.916256 
L 483.088129 493223.916256 
L 481.853119 493223.916256 
L 480.618109 493223.916256 
L 479.383099 493223.916256 
L 478.148089 493223.916256 
L 476.913078 493223.916256 
L 475.678068 493223.916256 
L 474.443058 493223.916256 
L 473.208048 493223.916256 
L 471.973038 493223.916256 
L 470.738028 493223.916256 
L 469.503018 493223.916256 
L 468.268008 493223.916256 
L 467.032998 493223.916256 
L 465.797988 493223.916256 
L 464.562978 493223.916256 
L 463.327968 493223.916256 
L 462.092958 493223.916256 
L 460.857948 493223.916256 
L 459.622938 493223.916256 
L 458.387928 493223.916256 
L 457.152918 493223.916256 
L 455.917907 493223.916256 
L 454.682897 493223.916256 
L 453.447887 493223.916256 
L 452.212877 493223.916256 
L 450.977867 493223.916256 
L 449.742857 493223.916256 
L 448.507847 493223.916256 
L 447.272837 493223.916256 
L 446.037827 493223.916256 
L 444.802817 493223.916256 
L 443.567807 493223.916256 
L 442.332797 493223.916256 
L 441.097787 493223.916256 
L 439.862777 493223.916256 
L 438.627767 493223.916256 
L 437.392757 493223.916256 
L 436.157746 493223.916256 
L 434.922736 493223.916256 
L 433.687726 493223.916256 
L 432.452716 493223.916256 
L 431.217706 493223.916256 
L 429.982696 493223.916256 
L 428.747686 493223.916256 
L 427.512676 493223.916256 
L 426.277666 493223.916256 
L 425.042656 493223.916256 
L 423.807646 493223.916256 
L 422.572636 493223.916256 
L 421.337626 493223.916256 
L 420.102616 493223.916256 
L 418.867606 493223.916256 
L 417.632596 493223.916256 
L 416.397586 493223.916256 
L 415.162575 493223.916256 
L 413.927565 493223.916256 
L 412.692555 493223.916256 
L 411.457545 493223.916256 
L 410.222535 493223.916256 
L 408.987525 493223.916256 
L 407.752515 493223.916256 
L 406.517505 493223.916256 
L 405.282495 493223.916256 
L 404.047485 493223.916256 
L 402.812475 493223.916256 
L 401.577465 493223.916256 
L 400.342455 493223.916256 
L 399.107445 493223.916256 
L 397.872435 493223.916256 
L 396.637425 493223.916256 
L 395.402414 493223.916256 
L 394.167404 493223.916256 
L 392.932394 493223.916256 
L 391.697384 493223.916256 
L 390.462374 493223.916256 
L 389.227364 493223.916256 
L 387.992354 493223.916256 
L 386.757344 493223.916256 
L 385.522334 493223.916256 
L 384.287324 493223.916256 
L 383.052314 493223.916256 
L 381.817304 493223.916256 
L 380.582294 493223.916256 
L 379.347284 493223.916256 
L 378.112274 493223.916256 
L 376.877264 493223.916256 
L 375.642254 493223.916256 
L 374.407243 493223.916256 
L 373.172233 493223.916256 
L 371.937223 493223.916256 
L 370.702213 493223.916256 
L 369.467203 493223.916256 
L 368.232193 493223.916256 
L 366.997183 493223.916256 
L 365.762173 493223.916256 
L 364.527163 493223.916256 
L 363.292153 493223.916256 
L 362.057143 493223.916256 
L 360.822133 493223.916256 
L 359.587123 493223.916256 
L 358.352113 493223.916256 
L 357.117103 493223.916256 
L 355.882093 493223.916256 
L 354.647082 493223.916256 
L 353.412072 493223.916256 
L 352.177062 493223.916256 
L 350.942052 493223.916256 
L 349.707042 493223.916256 
L 348.472032 493223.916256 
L 347.237022 493223.916256 
L 346.002012 493223.916256 
L 344.767002 493223.916256 
L 343.531992 493223.916256 
L 342.296982 493223.916256 
L 341.061972 493223.916256 
L 339.826962 493223.916256 
L 338.591952 493223.916256 
L 337.356942 493223.916256 
L 336.121932 493223.916256 
L 334.886922 493223.916256 
L 333.651911 493223.916256 
L 332.416901 493223.916256 
L 331.181891 493223.916256 
L 329.946881 493223.916256 
L 328.711871 493223.916256 
L 327.476861 493223.916256 
L 326.241851 493223.916256 
L 325.006841 493223.916256 
L 323.771831 493223.916256 
L 322.536821 493223.916256 
L 321.301811 493223.916256 
L 320.066801 493223.916256 
L 318.831791 493223.916256 
L 317.596781 493223.916256 
L 316.361771 493223.916256 
L 315.126761 493223.916256 
L 313.891751 493223.916256 
L 312.65674 493223.916256 
L 311.42173 493223.916256 
L 310.18672 493223.916256 
L 308.95171 493223.916256 
L 307.7167 493223.916256 
L 306.48169 493223.916256 
L 305.24668 493223.916256 
L 304.01167 493223.916256 
L 302.77666 493223.916256 
L 301.54165 493223.916256 
L 300.30664 493223.916256 
L 299.07163 493223.916256 
L 297.83662 493223.916256 
L 296.60161 493223.916256 
L 295.3666 493223.916256 
L 294.13159 493223.916256 
L 292.896579 493223.916256 
L 291.661569 493223.916256 
L 290.426559 493223.916256 
L 289.191549 493223.916256 
L 287.956539 493223.916256 
L 286.721529 493223.916256 
L 285.486519 493223.916256 
L 284.251509 493223.916256 
L 283.016499 493223.916256 
L 281.781489 493223.916256 
L 280.546479 493223.916256 
L 279.311469 493223.916256 
L 278.076459 493223.916256 
L 276.841449 493223.916256 
L 275.606439 493223.916256 
L 274.371429 493223.916256 
L 273.136419 493223.916256 
L 271.901408 493223.916256 
L 270.666398 493223.916256 
L 269.431388 493223.916256 
L 268.196378 493223.916256 
L 266.961368 493223.916256 
L 265.726358 493223.916256 
L 264.491348 493223.916256 
L 263.256338 493223.916256 
L 262.021328 493223.916256 
L 260.786318 493223.916256 
L 259.551308 493223.916256 
L 258.316298 493223.916256 
L 257.081288 493223.916256 
L 255.846278 493223.916256 
L 254.611268 493223.916256 
L 253.376258 493223.916256 
L 252.141247 493223.916256 
L 250.906237 493223.916256 
L 249.671227 493223.916256 
L 248.436217 493223.916256 
L 247.201207 493223.916256 
L 245.966197 493223.916256 
L 244.731187 493223.916256 
L 243.496177 493223.916256 
L 242.261167 493223.916256 
L 241.026157 493223.916256 
L 239.791147 493223.916256 
L 238.556137 493223.916256 
L 237.321127 493223.916256 
L 236.086117 493223.916256 
L 234.851107 493223.916256 
L 233.616097 493223.916256 
L 232.381087 493223.916256 
L 231.146076 493223.916256 
L 229.911066 493223.916256 
L 228.676056 493223.916256 
L 227.441046 493223.916256 
L 226.206036 493223.916256 
L 224.971026 493223.916256 
L 223.736016 493223.916256 
L 222.501006 493223.916256 
L 221.265996 493223.916256 
L 220.030986 493223.916256 
L 218.795976 493223.916256 
L 217.560966 493223.916256 
L 216.325956 493223.916256 
L 215.090946 493223.916256 
L 213.855936 493223.916256 
L 212.620926 493223.916256 
L 211.385915 493223.916256 
L 210.150905 493223.916256 
L 208.915895 493223.916256 
L 207.680885 493223.916256 
L 206.445875 493223.916256 
L 205.210865 493223.916256 
L 203.975855 493223.916256 
L 202.740845 493223.916256 
L 201.505835 493223.916256 
L 200.270825 493223.916256 
L 199.035815 493223.916256 
L 197.800805 493223.916256 
L 196.565795 493223.916256 
L 195.330785 493223.916256 
L 194.095775 493223.916256 
L 192.860765 493223.916256 
L 191.625755 493223.916256 
L 190.390744 493223.916256 
L 189.155734 493223.916256 
L 187.920724 493223.916256 
L 186.685714 493223.916256 
L 185.450704 493223.916256 
L 184.215694 493223.916256 
L 182.980684 493223.916256 
L 181.745674 493223.916256 
L 180.510664 493223.916256 
L 179.275654 493223.916256 
L 178.040644 493223.916256 
L 176.805634 493223.916256 
L 175.570624 493223.916256 
L 174.335614 493223.916256 
L 173.100604 493223.916256 
L 171.865594 493223.916256 
L 170.630584 493223.916256 
L 169.395573 493223.916256 
L 168.160563 493223.916256 
L 166.925553 493223.916256 
L 165.690543 493223.916256 
L 164.455533 493223.916256 
L 163.220523 493223.916256 
L 161.985513 493223.916256 
L 160.750503 493223.916256 
L 159.515493 493223.916256 
L 158.280483 493223.916256 
L 157.045473 493223.916256 
L 155.810463 493223.916256 
L 154.575453 493223.916256 
L 153.340443 493223.916256 
L 152.105433 493223.916256 
L 150.870423 493223.916256 
L 149.635412 493223.916256 
L 148.400402 493223.916256 
L 147.165392 493223.916256 
L 145.930382 493223.916256 
L 144.695372 493223.916256 
L 143.460362 493223.916256 
L 142.225352 493223.916256 
L 140.990342 493223.916256 
L 139.755332 493223.916256 
L 138.520322 493223.916256 
L 137.285312 493223.916256 
L 136.050302 493223.916256 
L 134.815292 493223.916256 
L 133.580282 493223.916256 
L 132.345272 493223.916256 
L 131.110262 493223.916256 
L 129.875252 493223.916256 
L 128.640241 493223.916256 
L 127.405231 493223.916256 
L 126.170221 493223.916256 
L 124.935211 493223.916256 
L 123.700201 493223.916256 
L 122.465191 493223.916256 
L 121.230181 493223.916256 
L 119.995171 493223.916256 
L 118.760161 493223.916256 
L 117.525151 493223.916256 
L 116.290141 493223.916256 
L 115.055131 493223.916256 
L 113.820121 493223.916256 
L 112.585111 493223.916256 
L 111.350101 493223.916256 
L 110.115091 493223.916256 
L 108.88008 493223.916256 
L 107.64507 493223.916256 
L 106.41006 493223.916256 
L 105.17505 493223.916256 
L 103.94004 493223.916256 
L 102.70503 493223.916256 
L 101.47002 493223.916256 
L 100.23501 493223.916256 
L 99 493223.916256 
z
" style="fill:#ff8080;fill-opacity:0.5;stroke:#ff8080;stroke-opacity:0.5;"/>
   </g>
   <g id="matplotlib.axis_1">
    <g id="xtick_1">
     <g id="line2d_1">
      <path clip-path="url(#p68e2955192)" d="M 99 544.68 
L 99 73.44 
" style="fill:none;stroke:#b0b0b0;stroke-linecap:square;stroke-width:0.8;"/>
     </g>
     <g id="line2d_2">
      <defs>
       <path d="M 0 0 
L 0 3.5 
" id="m4abed1d830" style="stroke:#000000;stroke-width:0.8;"/>
      </defs>
      <g>
       <use style="stroke:#000000;stroke-width:0.8;" x="99" xlink:href="#m4abed1d830" y="544.68"/>
      </g>
     </g>
    </g>
    <g id="xtick_2">
     <g id="line2d_3">
      <path clip-path="url(#p68e2955192)" d="M 103.94004 544.68 
L 103.94004 73.44 
" style="fill:none;stroke:#b0b0b0;stroke-linecap:square;stroke-width:0.8;"/>
     </g>
     <g id="line2d_4">
      <g>
       <use style="stroke:#000000;stroke-width:0.8;" x="103.94004" xlink:href="#m4abed1d830" y="544.68"/>
      </g>
     </g>
     <g id="text_1">
      <!-- Apr -->
      <g transform="translate(95.29004 559.278437)scale(0.1 -0.1)">
       <defs>
        <path d="M 2188 4044 
L 1331 1722 
L 3047 1722 
L 2188 4044 
z
M 1831 4666 
L 2547 4666 
L 4325 0 
L 3669 0 
L 3244 1197 
L 1141 1197 
L 716 0 
L 50 0 
L 1831 4666 
z
" id="DejaVuSans-41" transform="scale(0.015625)"/>
        <path d="M 1159 525 
L 1159 -1331 
L 581 -1331 
L 581 3500 
L 1159 3500 
L 1159 2969 
Q 1341 3281 1617 3432 
Q 1894 3584 2278 3584 
Q 2916 3584 3314 3078 
Q 3713 2572 3713 1747 
Q 3713 922 3314 415 
Q 2916 -91 2278 -91 
Q 1894 -91 1617 61 
Q 1341 213 1159 525 
z
M 3116 1747 
Q 3116 2381 2855 2742 
Q 2594 3103 2138 3103 
Q 1681 3103 1420 2742 
Q 1159 2381 1159 1747 
Q 1159 1113 1420 752 
Q 1681 391 2138 391 
Q 2594 391 2855 752 
Q 3116 1113 3116 1747 
z
" id="DejaVuSans-70" transform="scale(0.015625)"/>
        <path d="M 2631 2963 
Q 2534 3019 2420 3045 
Q 2306 3072 2169 3072 
Q 1681 3072 1420 2755 
Q 1159 2438 1159 1844 
L 1159 0 
L 581 0 
L 581 3500 
L 1159 3500 
L 1159 2956 
Q 1341 3275 1631 3429 
Q 1922 3584 2338 3584 
Q 2397 3584 2469 3576 
Q 2541 3569 2628 3553 
L 2631 2963 
z
" id="DejaVuSans-72" transform="scale(0.015625)"/>
       </defs>
       <use xlink:href="#DejaVuSans-41"/>
       <use x="68.408203" xlink:href="#DejaVuSans-70"/>
       <use x="131.884766" xlink:href="#DejaVuSans-72"/>
      </g>
     </g>
    </g>
    <g id="xtick_3">
     <g id="line2d_5">
      <path clip-path="url(#p68e2955192)" d="M 216.325956 544.68 
L 216.325956 73.44 
" style="fill:none;stroke:#b0b0b0;stroke-linecap:square;stroke-width:0.8;"/>
     </g>
     <g id="line2d_6">
      <g>
       <use style="stroke:#000000;stroke-width:0.8;" x="216.325956" xlink:href="#m4abed1d830" y="544.68"/>
      </g>
     </g>
     <g id="text_2">
      <!-- Jul -->
      <g transform="translate(210.293143 559.278437)scale(0.1 -0.1)">
       <defs>
        <path d="M 628 4666 
L 1259 4666 
L 1259 325 
Q 1259 -519 939 -900 
Q 619 -1281 -91 -1281 
L -331 -1281 
L -331 -750 
L -134 -750 
Q 284 -750 456 -515 
Q 628 -281 628 325 
L 628 4666 
z
" id="DejaVuSans-4a" transform="scale(0.015625)"/>
        <path d="M 544 1381 
L 544 3500 
L 1119 3500 
L 1119 1403 
Q 1119 906 1312 657 
Q 1506 409 1894 409 
Q 2359 409 2629 706 
Q 2900 1003 2900 1516 
L 2900 3500 
L 3475 3500 
L 3475 0 
L 2900 0 
L 2900 538 
Q 2691 219 2414 64 
Q 2138 -91 1772 -91 
Q 1169 -91 856 284 
Q 544 659 544 1381 
z
M 1991 3584 
L 1991 3584 
z
" id="DejaVuSans-75" transform="scale(0.015625)"/>
        <path d="M 603 4863 
L 1178 4863 
L 1178 0 
L 603 0 
L 603 4863 
z
" id="DejaVuSans-6c" transform="scale(0.015625)"/>
       </defs>
       <use xlink:href="#DejaVuSans-4a"/>
       <use x="29.492188" xlink:href="#DejaVuSans-75"/>
       <use x="92.871094" xlink:href="#DejaVuSans-6c"/>
      </g>
     </g>
    </g>
    <g id="xtick_4">
     <g id="line2d_7">
      <path clip-path="url(#p68e2955192)" d="M 329.946881 544.68 
L 329.946881 73.44 
" style="fill:none;stroke:#b0b0b0;stroke-linecap:square;stroke-width:0.8;"/>
     </g>
     <g id="line2d_8">
      <g>
       <use style="stroke:#000000;stroke-width:0.8;" x="329.946881" xlink:href="#m4abed1d830" y="544.68"/>
      </g>
     </g>
     <g id="text_3">
      <!-- Oct -->
      <g transform="translate(321.301569 559.278437)scale(0.1 -0.1)">
       <defs>
        <path d="M 2522 4238 
Q 1834 4238 1429 3725 
Q 1025 3213 1025 2328 
Q 1025 1447 1429 934 
Q 1834 422 2522 422 
Q 3209 422 3611 934 
Q 4013 1447 4013 2328 
Q 4013 3213 3611 3725 
Q 3209 4238 2522 4238 
z
M 2522 4750 
Q 3503 4750 4090 4092 
Q 4678 3434 4678 2328 
Q 4678 1225 4090 567 
Q 3503 -91 2522 -91 
Q 1538 -91 948 565 
Q 359 1222 359 2328 
Q 359 3434 948 4092 
Q 1538 4750 2522 4750 
z
" id="DejaVuSans-4f" transform="scale(0.015625)"/>
        <path d="M 3122 3366 
L 3122 2828 
Q 2878 2963 2633 3030 
Q 2388 3097 2138 3097 
Q 1578 3097 1268 2742 
Q 959 2388 959 1747 
Q 959 1106 1268 751 
Q 1578 397 2138 397 
Q 2388 397 2633 464 
Q 2878 531 3122 666 
L 3122 134 
Q 2881 22 2623 -34 
Q 2366 -91 2075 -91 
Q 1284 -91 818 406 
Q 353 903 353 1747 
Q 353 2603 823 3093 
Q 1294 3584 2113 3584 
Q 2378 3584 2631 3529 
Q 2884 3475 3122 3366 
z
" id="DejaVuSans-63" transform="scale(0.015625)"/>
        <path d="M 1172 4494 
L 1172 3500 
L 2356 3500 
L 2356 3053 
L 1172 3053 
L 1172 1153 
Q 1172 725 1289 603 
Q 1406 481 1766 481 
L 2356 481 
L 2356 0 
L 1766 0 
Q 1100 0 847 248 
Q 594 497 594 1153 
L 594 3053 
L 172 3053 
L 172 3500 
L 594 3500 
L 594 4494 
L 1172 4494 
z
" id="DejaVuSans-74" transform="scale(0.015625)"/>
       </defs>
       <use xlink:href="#DejaVuSans-4f"/>
       <use x="78.710938" xlink:href="#DejaVuSans-63"/>
       <use x="133.691406" xlink:href="#DejaVuSans-74"/>
      </g>
     </g>
    </g>
    <g id="xtick_5">
     <g id="line2d_9">
      <path clip-path="url(#p68e2955192)" d="M 443.567807 544.68 
L 443.567807 73.44 
" style="fill:none;stroke:#b0b0b0;stroke-linecap:square;stroke-width:0.8;"/>
     </g>
     <g id="line2d_10">
      <g>
       <use style="stroke:#000000;stroke-width:0.8;" x="443.567807" xlink:href="#m4abed1d830" y="544.68"/>
      </g>
     </g>
     <g id="text_4">
      <!-- Jan -->
      <g transform="translate(435.859994 559.278437)scale(0.1 -0.1)">
       <defs>
        <path d="M 2194 1759 
Q 1497 1759 1228 1600 
Q 959 1441 959 1056 
Q 959 750 1161 570 
Q 1363 391 1709 391 
Q 2188 391 2477 730 
Q 2766 1069 2766 1631 
L 2766 1759 
L 2194 1759 
z
M 3341 1997 
L 3341 0 
L 2766 0 
L 2766 531 
Q 2569 213 2275 61 
Q 1981 -91 1556 -91 
Q 1019 -91 701 211 
Q 384 513 384 1019 
Q 384 1609 779 1909 
Q 1175 2209 1959 2209 
L 2766 2209 
L 2766 2266 
Q 2766 2663 2505 2880 
Q 2244 3097 1772 3097 
Q 1472 3097 1187 3025 
Q 903 2953 641 2809 
L 641 3341 
Q 956 3463 1253 3523 
Q 1550 3584 1831 3584 
Q 2591 3584 2966 3190 
Q 3341 2797 3341 1997 
z
" id="DejaVuSans-61" transform="scale(0.015625)"/>
        <path d="M 3513 2113 
L 3513 0 
L 2938 0 
L 2938 2094 
Q 2938 2591 2744 2837 
Q 2550 3084 2163 3084 
Q 1697 3084 1428 2787 
Q 1159 2491 1159 1978 
L 1159 0 
L 581 0 
L 581 3500 
L 1159 3500 
L 1159 2956 
Q 1366 3272 1645 3428 
Q 1925 3584 2291 3584 
Q 2894 3584 3203 3211 
Q 3513 2838 3513 2113 
z
" id="DejaVuSans-6e" transform="scale(0.015625)"/>
       </defs>
       <use xlink:href="#DejaVuSans-4a"/>
       <use x="29.492188" xlink:href="#DejaVuSans-61"/>
       <use x="90.771484" xlink:href="#DejaVuSans-6e"/>
      </g>
      <!-- 2021 -->
      <g transform="translate(430.842807 570.47625)scale(0.1 -0.1)">
       <defs>
        <path d="M 1228 531 
L 3431 531 
L 3431 0 
L 469 0 
L 469 531 
Q 828 903 1448 1529 
Q 2069 2156 2228 2338 
Q 2531 2678 2651 2914 
Q 2772 3150 2772 3378 
Q 2772 3750 2511 3984 
Q 2250 4219 1831 4219 
Q 1534 4219 1204 4116 
Q 875 4013 500 3803 
L 500 4441 
Q 881 4594 1212 4672 
Q 1544 4750 1819 4750 
Q 2544 4750 2975 4387 
Q 3406 4025 3406 3419 
Q 3406 3131 3298 2873 
Q 3191 2616 2906 2266 
Q 2828 2175 2409 1742 
Q 1991 1309 1228 531 
z
" id="DejaVuSans-32" transform="scale(0.015625)"/>
        <path d="M 2034 4250 
Q 1547 4250 1301 3770 
Q 1056 3291 1056 2328 
Q 1056 1369 1301 889 
Q 1547 409 2034 409 
Q 2525 409 2770 889 
Q 3016 1369 3016 2328 
Q 3016 3291 2770 3770 
Q 2525 4250 2034 4250 
z
M 2034 4750 
Q 2819 4750 3233 4129 
Q 3647 3509 3647 2328 
Q 3647 1150 3233 529 
Q 2819 -91 2034 -91 
Q 1250 -91 836 529 
Q 422 1150 422 2328 
Q 422 3509 836 4129 
Q 1250 4750 2034 4750 
z
" id="DejaVuSans-30" transform="scale(0.015625)"/>
        <path d="M 794 531 
L 1825 531 
L 1825 4091 
L 703 3866 
L 703 4441 
L 1819 4666 
L 2450 4666 
L 2450 531 
L 3481 531 
L 3481 0 
L 794 0 
L 794 531 
z
" id="DejaVuSans-31" transform="scale(0.015625)"/>
       </defs>
       <use xlink:href="#DejaVuSans-32"/>
       <use x="63.623047" xlink:href="#DejaVuSans-30"/>
       <use x="127.246094" xlink:href="#DejaVuSans-32"/>
       <use x="190.869141" xlink:href="#DejaVuSans-31"/>
      </g>
     </g>
    </g>
    <g id="xtick_6">
     <g id="line2d_11">
      <path clip-path="url(#p68e2955192)" d="M 554.718712 544.68 
L 554.718712 73.44 
" style="fill:none;stroke:#b0b0b0;stroke-linecap:square;stroke-width:0.8;"/>
     </g>
     <g id="line2d_12">
      <g>
       <use style="stroke:#000000;stroke-width:0.8;" x="554.718712" xlink:href="#m4abed1d830" y="544.68"/>
      </g>
     </g>
     <g id="text_5">
      <!-- Apr -->
      <g transform="translate(546.068712 559.278437)scale(0.1 -0.1)">
       <use xlink:href="#DejaVuSans-41"/>
       <use x="68.408203" xlink:href="#DejaVuSans-70"/>
       <use x="131.884766" xlink:href="#DejaVuSans-72"/>
      </g>
     </g>
    </g>
    <g id="xtick_7">
     <g id="line2d_13">
      <path clip-path="url(#p68e2955192)" d="M 667.104628 544.68 
L 667.104628 73.44 
" style="fill:none;stroke:#b0b0b0;stroke-linecap:square;stroke-width:0.8;"/>
     </g>
     <g id="line2d_14">
      <g>
       <use style="stroke:#000000;stroke-width:0.8;" x="667.104628" xlink:href="#m4abed1d830" y="544.68"/>
      </g>
     </g>
     <g id="text_6">
      <!-- Jul -->
      <g transform="translate(661.071815 559.278437)scale(0.1 -0.1)">
       <use xlink:href="#DejaVuSans-4a"/>
       <use x="29.492188" xlink:href="#DejaVuSans-75"/>
       <use x="92.871094" xlink:href="#DejaVuSans-6c"/>
      </g>
     </g>
    </g>
    <g id="xtick_8">
     <g id="line2d_15">
      <path clip-path="url(#p68e2955192)" d="M 712.8 544.68 
L 712.8 73.44 
" style="fill:none;stroke:#b0b0b0;stroke-linecap:square;stroke-width:0.8;"/>
     </g>
     <g id="line2d_16">
      <g>
       <use style="stroke:#000000;stroke-width:0.8;" x="712.8" xlink:href="#m4abed1d830" y="544.68"/>
      </g>
     </g>
    </g>
    <g id="xtick_9">
     <g id="line2d_17">
      <defs>
       <path d="M 0 0 
L 0 2 
" id="mbe9820739d" style="stroke:#000000;stroke-width:0.6;"/>
      </defs>
      <g>
       <use style="stroke:#000000;stroke-width:0.6;" x="140.990342" xlink:href="#mbe9820739d" y="544.68"/>
      </g>
     </g>
    </g>
    <g id="xtick_10">
     <g id="line2d_18">
      <g>
       <use style="stroke:#000000;stroke-width:0.6;" x="179.275654" xlink:href="#mbe9820739d" y="544.68"/>
      </g>
     </g>
    </g>
    <g id="xtick_11">
     <g id="line2d_19">
      <g>
       <use style="stroke:#000000;stroke-width:0.6;" x="254.611268" xlink:href="#mbe9820739d" y="544.68"/>
      </g>
     </g>
    </g>
    <g id="xtick_12">
     <g id="line2d_20">
      <g>
       <use style="stroke:#000000;stroke-width:0.6;" x="292.896579" xlink:href="#mbe9820739d" y="544.68"/>
      </g>
     </g>
    </g>
    <g id="xtick_13">
     <g id="line2d_21">
      <g>
       <use style="stroke:#000000;stroke-width:0.6;" x="368.232193" xlink:href="#mbe9820739d" y="544.68"/>
      </g>
     </g>
    </g>
    <g id="xtick_14">
     <g id="line2d_22">
      <g>
       <use style="stroke:#000000;stroke-width:0.6;" x="405.282495" xlink:href="#mbe9820739d" y="544.68"/>
      </g>
     </g>
    </g>
    <g id="xtick_15">
     <g id="line2d_23">
      <g>
       <use style="stroke:#000000;stroke-width:0.6;" x="481.853119" xlink:href="#mbe9820739d" y="544.68"/>
      </g>
     </g>
    </g>
    <g id="xtick_16">
     <g id="line2d_24">
      <g>
       <use style="stroke:#000000;stroke-width:0.6;" x="516.4334" xlink:href="#mbe9820739d" y="544.68"/>
      </g>
     </g>
    </g>
    <g id="xtick_17">
     <g id="line2d_25">
      <g>
       <use style="stroke:#000000;stroke-width:0.6;" x="591.769014" xlink:href="#mbe9820739d" y="544.68"/>
      </g>
     </g>
    </g>
    <g id="xtick_18">
     <g id="line2d_26">
      <g>
       <use style="stroke:#000000;stroke-width:0.6;" x="630.054326" xlink:href="#mbe9820739d" y="544.68"/>
      </g>
     </g>
    </g>
    <g id="xtick_19">
     <g id="line2d_27">
      <g>
       <use style="stroke:#000000;stroke-width:0.6;" x="705.38994" xlink:href="#mbe9820739d" y="544.68"/>
      </g>
     </g>
    </g>
    <g id="text_7">
     <!-- Date -->
     <g transform="translate(393.949219 584.154375)scale(0.1 -0.1)">
      <defs>
       <path d="M 1259 4147 
L 1259 519 
L 2022 519 
Q 2988 519 3436 956 
Q 3884 1394 3884 2338 
Q 3884 3275 3436 3711 
Q 2988 4147 2022 4147 
L 1259 4147 
z
M 628 4666 
L 1925 4666 
Q 3281 4666 3915 4102 
Q 4550 3538 4550 2338 
Q 4550 1131 3912 565 
Q 3275 0 1925 0 
L 628 0 
L 628 4666 
z
" id="DejaVuSans-44" transform="scale(0.015625)"/>
       <path d="M 3597 1894 
L 3597 1613 
L 953 1613 
Q 991 1019 1311 708 
Q 1631 397 2203 397 
Q 2534 397 2845 478 
Q 3156 559 3463 722 
L 3463 178 
Q 3153 47 2828 -22 
Q 2503 -91 2169 -91 
Q 1331 -91 842 396 
Q 353 884 353 1716 
Q 353 2575 817 3079 
Q 1281 3584 2069 3584 
Q 2775 3584 3186 3129 
Q 3597 2675 3597 1894 
z
M 3022 2063 
Q 3016 2534 2758 2815 
Q 2500 3097 2075 3097 
Q 1594 3097 1305 2825 
Q 1016 2553 972 2059 
L 3022 2063 
z
" id="DejaVuSans-65" transform="scale(0.015625)"/>
      </defs>
      <use xlink:href="#DejaVuSans-44"/>
      <use x="77.001953" xlink:href="#DejaVuSans-61"/>
      <use x="138.28125" xlink:href="#DejaVuSans-74"/>
      <use x="177.490234" xlink:href="#DejaVuSans-65"/>
     </g>
    </g>
   </g>
   <g id="matplotlib.axis_2">
    <g id="ytick_1">
     <g id="line2d_28">
      <path clip-path="url(#p68e2955192)" d="M 99 374.897662 
L 712.8 374.897662 
" style="fill:none;stroke:#b0b0b0;stroke-linecap:square;stroke-width:0.8;"/>
     </g>
     <g id="line2d_29">
      <defs>
       <path d="M 0 0 
L -3.5 0 
" id="me91a084207" style="stroke:#000000;stroke-width:0.8;"/>
      </defs>
      <g>
       <use style="stroke:#000000;stroke-width:0.8;" x="99" xlink:href="#me91a084207" y="374.897662"/>
      </g>
     </g>
     <g id="text_8">
      <!-- $\mathdefault{10^{0}}$ -->
      <g transform="translate(74.4 378.696881)scale(0.1 -0.1)">
       <use transform="translate(0 0.765625)" xlink:href="#DejaVuSans-31"/>
       <use transform="translate(63.623047 0.765625)" xlink:href="#DejaVuSans-30"/>
       <use transform="translate(128.203125 39.046875)scale(0.7)" xlink:href="#DejaVuSans-30"/>
      </g>
     </g>
    </g>
    <g id="ytick_2">
     <g id="line2d_30">
      <path clip-path="url(#p68e2955192)" d="M 99 523.26 
L 712.8 523.26 
" style="fill:none;stroke:#b0b0b0;stroke-linecap:square;stroke-width:0.8;"/>
     </g>
     <g id="line2d_31">
      <defs>
       <path d="M 0 0 
L -2 0 
" id="m0cb60b688e" style="stroke:#000000;stroke-width:0.6;"/>
      </defs>
      <g>
       <use style="stroke:#000000;stroke-width:0.6;" x="99" xlink:href="#m0cb60b688e" y="523.26"/>
      </g>
     </g>
    </g>
    <g id="ytick_3">
     <g id="line2d_32">
      <path clip-path="url(#p68e2955192)" d="M 99 484.235601 
L 712.8 484.235601 
" style="fill:none;stroke:#b0b0b0;stroke-linecap:square;stroke-width:0.8;"/>
     </g>
     <g id="line2d_33">
      <g>
       <use style="stroke:#000000;stroke-width:0.6;" x="99" xlink:href="#m0cb60b688e" y="484.235601"/>
      </g>
     </g>
     <g id="text_9">
      <!-- $\mathdefault{6\times10^{-1}}$ -->
      <g transform="translate(51.5 488.034819)scale(0.1 -0.1)">
       <defs>
        <path d="M 2113 2584 
Q 1688 2584 1439 2293 
Q 1191 2003 1191 1497 
Q 1191 994 1439 701 
Q 1688 409 2113 409 
Q 2538 409 2786 701 
Q 3034 994 3034 1497 
Q 3034 2003 2786 2293 
Q 2538 2584 2113 2584 
z
M 3366 4563 
L 3366 3988 
Q 3128 4100 2886 4159 
Q 2644 4219 2406 4219 
Q 1781 4219 1451 3797 
Q 1122 3375 1075 2522 
Q 1259 2794 1537 2939 
Q 1816 3084 2150 3084 
Q 2853 3084 3261 2657 
Q 3669 2231 3669 1497 
Q 3669 778 3244 343 
Q 2819 -91 2113 -91 
Q 1303 -91 875 529 
Q 447 1150 447 2328 
Q 447 3434 972 4092 
Q 1497 4750 2381 4750 
Q 2619 4750 2861 4703 
Q 3103 4656 3366 4563 
z
" id="DejaVuSans-36" transform="scale(0.015625)"/>
        <path d="M 4488 3438 
L 3059 2003 
L 4488 575 
L 4116 197 
L 2681 1631 
L 1247 197 
L 878 575 
L 2303 2003 
L 878 3438 
L 1247 3816 
L 2681 2381 
L 4116 3816 
L 4488 3438 
z
" id="DejaVuSans-d7" transform="scale(0.015625)"/>
        <path d="M 678 2272 
L 4684 2272 
L 4684 1741 
L 678 1741 
L 678 2272 
z
" id="DejaVuSans-2212" transform="scale(0.015625)"/>
       </defs>
       <use transform="translate(0 0.684375)" xlink:href="#DejaVuSans-36"/>
       <use transform="translate(83.105469 0.684375)" xlink:href="#DejaVuSans-d7"/>
       <use transform="translate(186.376953 0.684375)" xlink:href="#DejaVuSans-31"/>
       <use transform="translate(250 0.684375)" xlink:href="#DejaVuSans-30"/>
       <use transform="translate(314.580078 38.965625)scale(0.7)" xlink:href="#DejaVuSans-2212"/>
       <use transform="translate(373.232422 38.965625)scale(0.7)" xlink:href="#DejaVuSans-31"/>
      </g>
     </g>
    </g>
    <g id="ytick_4">
     <g id="line2d_34">
      <path clip-path="url(#p68e2955192)" d="M 99 451.240941 
L 712.8 451.240941 
" style="fill:none;stroke:#b0b0b0;stroke-linecap:square;stroke-width:0.8;"/>
     </g>
     <g id="line2d_35">
      <g>
       <use style="stroke:#000000;stroke-width:0.6;" x="99" xlink:href="#m0cb60b688e" y="451.240941"/>
      </g>
     </g>
    </g>
    <g id="ytick_5">
     <g id="line2d_36">
      <path clip-path="url(#p68e2955192)" d="M 99 422.659667 
L 712.8 422.659667 
" style="fill:none;stroke:#b0b0b0;stroke-linecap:square;stroke-width:0.8;"/>
     </g>
     <g id="line2d_37">
      <g>
       <use style="stroke:#000000;stroke-width:0.6;" x="99" xlink:href="#m0cb60b688e" y="422.659667"/>
      </g>
     </g>
    </g>
    <g id="ytick_6">
     <g id="line2d_38">
      <path clip-path="url(#p68e2955192)" d="M 99 397.449196 
L 712.8 397.449196 
" style="fill:none;stroke:#b0b0b0;stroke-linecap:square;stroke-width:0.8;"/>
     </g>
     <g id="line2d_39">
      <g>
       <use style="stroke:#000000;stroke-width:0.6;" x="99" xlink:href="#m0cb60b688e" y="397.449196"/>
      </g>
     </g>
    </g>
    <g id="ytick_7">
     <g id="line2d_40">
      <path clip-path="url(#p68e2955192)" d="M 99 226.535324 
L 712.8 226.535324 
" style="fill:none;stroke:#b0b0b0;stroke-linecap:square;stroke-width:0.8;"/>
     </g>
     <g id="line2d_41">
      <g>
       <use style="stroke:#000000;stroke-width:0.6;" x="99" xlink:href="#m0cb60b688e" y="226.535324"/>
      </g>
     </g>
     <g id="text_10">
      <!-- $\mathdefault{2\times10^{0}}$ -->
      <g transform="translate(57.4 230.334543)scale(0.1 -0.1)">
       <use transform="translate(0 0.765625)" xlink:href="#DejaVuSans-32"/>
       <use transform="translate(83.105469 0.765625)" xlink:href="#DejaVuSans-d7"/>
       <use transform="translate(186.376953 0.765625)" xlink:href="#DejaVuSans-31"/>
       <use transform="translate(250 0.765625)" xlink:href="#DejaVuSans-30"/>
       <use transform="translate(314.580078 39.046875)scale(0.7)" xlink:href="#DejaVuSans-30"/>
      </g>
     </g>
    </g>
    <g id="ytick_8">
     <g id="line2d_42">
      <path clip-path="url(#p68e2955192)" d="M 99 139.74892 
L 712.8 139.74892 
" style="fill:none;stroke:#b0b0b0;stroke-linecap:square;stroke-width:0.8;"/>
     </g>
     <g id="line2d_43">
      <g>
       <use style="stroke:#000000;stroke-width:0.6;" x="99" xlink:href="#m0cb60b688e" y="139.74892"/>
      </g>
     </g>
     <g id="text_11">
      <!-- $\mathdefault{3\times10^{0}}$ -->
      <g transform="translate(57.4 143.548139)scale(0.1 -0.1)">
       <defs>
        <path d="M 2597 2516 
Q 3050 2419 3304 2112 
Q 3559 1806 3559 1356 
Q 3559 666 3084 287 
Q 2609 -91 1734 -91 
Q 1441 -91 1130 -33 
Q 819 25 488 141 
L 488 750 
Q 750 597 1062 519 
Q 1375 441 1716 441 
Q 2309 441 2620 675 
Q 2931 909 2931 1356 
Q 2931 1769 2642 2001 
Q 2353 2234 1838 2234 
L 1294 2234 
L 1294 2753 
L 1863 2753 
Q 2328 2753 2575 2939 
Q 2822 3125 2822 3475 
Q 2822 3834 2567 4026 
Q 2313 4219 1838 4219 
Q 1578 4219 1281 4162 
Q 984 4106 628 3988 
L 628 4550 
Q 988 4650 1302 4700 
Q 1616 4750 1894 4750 
Q 2613 4750 3031 4423 
Q 3450 4097 3450 3541 
Q 3450 3153 3228 2886 
Q 3006 2619 2597 2516 
z
" id="DejaVuSans-33" transform="scale(0.015625)"/>
       </defs>
       <use transform="translate(0 0.765625)" xlink:href="#DejaVuSans-33"/>
       <use transform="translate(83.105469 0.765625)" xlink:href="#DejaVuSans-d7"/>
       <use transform="translate(186.376953 0.765625)" xlink:href="#DejaVuSans-31"/>
       <use transform="translate(250 0.765625)" xlink:href="#DejaVuSans-30"/>
       <use transform="translate(314.580078 39.046875)scale(0.7)" xlink:href="#DejaVuSans-30"/>
      </g>
     </g>
    </g>
    <g id="ytick_9">
     <g id="line2d_44">
      <path clip-path="url(#p68e2955192)" d="M 99 78.172986 
L 712.8 78.172986 
" style="fill:none;stroke:#b0b0b0;stroke-linecap:square;stroke-width:0.8;"/>
     </g>
     <g id="line2d_45">
      <g>
       <use style="stroke:#000000;stroke-width:0.6;" x="99" xlink:href="#m0cb60b688e" y="78.172986"/>
      </g>
     </g>
     <g id="text_12">
      <!-- $\mathdefault{4\times10^{0}}$ -->
      <g transform="translate(57.4 81.972205)scale(0.1 -0.1)">
       <defs>
        <path d="M 2419 4116 
L 825 1625 
L 2419 1625 
L 2419 4116 
z
M 2253 4666 
L 3047 4666 
L 3047 1625 
L 3713 1625 
L 3713 1100 
L 3047 1100 
L 3047 0 
L 2419 0 
L 2419 1100 
L 313 1100 
L 313 1709 
L 2253 4666 
z
" id="DejaVuSans-34" transform="scale(0.015625)"/>
       </defs>
       <use transform="translate(0 0.765625)" xlink:href="#DejaVuSans-34"/>
       <use transform="translate(83.105469 0.765625)" xlink:href="#DejaVuSans-d7"/>
       <use transform="translate(186.376953 0.765625)" xlink:href="#DejaVuSans-31"/>
       <use transform="translate(250 0.765625)" xlink:href="#DejaVuSans-30"/>
       <use transform="translate(314.580078 39.046875)scale(0.7)" xlink:href="#DejaVuSans-30"/>
      </g>
     </g>
    </g>
   </g>
   <g id="line2d_46">
    <path clip-path="url(#p68e2955192)" d="M 265.726133 613 
L 265.726358 523.26 
L 268.196378 523.26 
L 268.196603 613 
M 270.666173 613 
L 270.666398 523.26 
L 270.666623 613 
" style="fill:none;stroke:#1f77b4;stroke-linecap:square;stroke-width:1.5;"/>
   </g>
   <g id="line2d_47">
    <path clip-path="url(#p68e2955192)" d="M 0 0 
" style="fill:none;stroke:#ff7f0e;stroke-linecap:square;stroke-width:1.5;"/>
   </g>
   <g id="patch_3">
    <path d="M 99 544.68 
L 99 73.44 
" style="fill:none;stroke:#000000;stroke-linecap:square;stroke-linejoin:miter;stroke-width:0.8;"/>
   </g>
   <g id="patch_4">
    <path d="M 712.8 544.68 
L 712.8 73.44 
" style="fill:none;stroke:#000000;stroke-linecap:square;stroke-linejoin:miter;stroke-width:0.8;"/>
   </g>
   <g id="patch_5">
    <path d="M 99 544.68 
L 712.8 544.68 
" style="fill:none;stroke:#000000;stroke-linecap:square;stroke-linejoin:miter;stroke-width:0.8;"/>
   </g>
   <g id="patch_6">
    <path d="M 99 73.44 
L 712.8 73.44 
" style="fill:none;stroke:#000000;stroke-linecap:square;stroke-linejoin:miter;stroke-width:0.8;"/>
   </g>
   <g id="legend_1">
    <g id="patch_7">
     <path d="M 616.653125 110.79625 
L 705.8 110.79625 
Q 707.8 110.79625 707.8 108.79625 
L 707.8 80.44 
Q 707.8 78.44 705.8 78.44 
L 616.653125 78.44 
Q 614.653125 78.44 614.653125 80.44 
L 614.653125 108.79625 
Q 614.653125 110.79625 616.653125 110.79625 
z
" style="fill:#ffffff;opacity:0.8;stroke:#cccccc;stroke-linejoin:miter;"/>
    </g>
    <g id="line2d_48">
     <path d="M 618.653125 86.538437 
L 638.653125 86.538437 
" style="fill:none;stroke:#1f77b4;stroke-linecap:square;stroke-width:1.5;"/>
    </g>
    <g id="line2d_49"/>
    <g id="text_13">
     <!-- Avg Cases -->
     <g transform="translate(646.653125 90.038437)scale(0.1 -0.1)">
      <defs>
       <path d="M 191 3500 
L 800 3500 
L 1894 563 
L 2988 3500 
L 3597 3500 
L 2284 0 
L 1503 0 
L 191 3500 
z
" id="DejaVuSans-76" transform="scale(0.015625)"/>
       <path d="M 2906 1791 
Q 2906 2416 2648 2759 
Q 2391 3103 1925 3103 
Q 1463 3103 1205 2759 
Q 947 2416 947 1791 
Q 947 1169 1205 825 
Q 1463 481 1925 481 
Q 2391 481 2648 825 
Q 2906 1169 2906 1791 
z
M 3481 434 
Q 3481 -459 3084 -895 
Q 2688 -1331 1869 -1331 
Q 1566 -1331 1297 -1286 
Q 1028 -1241 775 -1147 
L 775 -588 
Q 1028 -725 1275 -790 
Q 1522 -856 1778 -856 
Q 2344 -856 2625 -561 
Q 2906 -266 2906 331 
L 2906 616 
Q 2728 306 2450 153 
Q 2172 0 1784 0 
Q 1141 0 747 490 
Q 353 981 353 1791 
Q 353 2603 747 3093 
Q 1141 3584 1784 3584 
Q 2172 3584 2450 3431 
Q 2728 3278 2906 2969 
L 2906 3500 
L 3481 3500 
L 3481 434 
z
" id="DejaVuSans-67" transform="scale(0.015625)"/>
       <path id="DejaVuSans-20" transform="scale(0.015625)"/>
       <path d="M 4122 4306 
L 4122 3641 
Q 3803 3938 3442 4084 
Q 3081 4231 2675 4231 
Q 1875 4231 1450 3742 
Q 1025 3253 1025 2328 
Q 1025 1406 1450 917 
Q 1875 428 2675 428 
Q 3081 428 3442 575 
Q 3803 722 4122 1019 
L 4122 359 
Q 3791 134 3420 21 
Q 3050 -91 2638 -91 
Q 1578 -91 968 557 
Q 359 1206 359 2328 
Q 359 3453 968 4101 
Q 1578 4750 2638 4750 
Q 3056 4750 3426 4639 
Q 3797 4528 4122 4306 
z
" id="DejaVuSans-43" transform="scale(0.015625)"/>
       <path d="M 2834 3397 
L 2834 2853 
Q 2591 2978 2328 3040 
Q 2066 3103 1784 3103 
Q 1356 3103 1142 2972 
Q 928 2841 928 2578 
Q 928 2378 1081 2264 
Q 1234 2150 1697 2047 
L 1894 2003 
Q 2506 1872 2764 1633 
Q 3022 1394 3022 966 
Q 3022 478 2636 193 
Q 2250 -91 1575 -91 
Q 1294 -91 989 -36 
Q 684 19 347 128 
L 347 722 
Q 666 556 975 473 
Q 1284 391 1588 391 
Q 1994 391 2212 530 
Q 2431 669 2431 922 
Q 2431 1156 2273 1281 
Q 2116 1406 1581 1522 
L 1381 1569 
Q 847 1681 609 1914 
Q 372 2147 372 2553 
Q 372 3047 722 3315 
Q 1072 3584 1716 3584 
Q 2034 3584 2315 3537 
Q 2597 3491 2834 3397 
z
" id="DejaVuSans-73" transform="scale(0.015625)"/>
      </defs>
      <use xlink:href="#DejaVuSans-41"/>
      <use x="62.533203" xlink:href="#DejaVuSans-76"/>
      <use x="121.712891" xlink:href="#DejaVuSans-67"/>
      <use x="185.189453" xlink:href="#DejaVuSans-20"/>
      <use x="216.976562" xlink:href="#DejaVuSans-43"/>
      <use x="286.800781" xlink:href="#DejaVuSans-61"/>
      <use x="348.080078" xlink:href="#DejaVuSans-73"/>
      <use x="400.179688" xlink:href="#DejaVuSans-65"/>
      <use x="461.703125" xlink:href="#DejaVuSans-73"/>
     </g>
    </g>
    <g id="line2d_50">
     <path d="M 618.653125 101.216562 
L 638.653125 101.216562 
" style="fill:none;stroke:#ff7f0e;stroke-linecap:square;stroke-width:1.5;"/>
    </g>
    <g id="line2d_51"/>
    <g id="text_14">
     <!-- Avg Deaths -->
     <g transform="translate(646.653125 104.716562)scale(0.1 -0.1)">
      <defs>
       <path d="M 3513 2113 
L 3513 0 
L 2938 0 
L 2938 2094 
Q 2938 2591 2744 2837 
Q 2550 3084 2163 3084 
Q 1697 3084 1428 2787 
Q 1159 2491 1159 1978 
L 1159 0 
L 581 0 
L 581 4863 
L 1159 4863 
L 1159 2956 
Q 1366 3272 1645 3428 
Q 1925 3584 2291 3584 
Q 2894 3584 3203 3211 
Q 3513 2838 3513 2113 
z
" id="DejaVuSans-68" transform="scale(0.015625)"/>
      </defs>
      <use xlink:href="#DejaVuSans-41"/>
      <use x="62.533203" xlink:href="#DejaVuSans-76"/>
      <use x="121.712891" xlink:href="#DejaVuSans-67"/>
      <use x="185.189453" xlink:href="#DejaVuSans-20"/>
      <use x="216.976562" xlink:href="#DejaVuSans-44"/>
      <use x="293.978516" xlink:href="#DejaVuSans-65"/>
      <use x="355.501953" xlink:href="#DejaVuSans-61"/>
      <use x="416.78125" xlink:href="#DejaVuSans-74"/>
      <use x="455.990234" xlink:href="#DejaVuSans-68"/>
      <use x="519.369141" xlink:href="#DejaVuSans-73"/>
     </g>
    </g>
   </g>
  </g>
 </g>
 <defs>
  <clipPath id="p68e2955192">
   <rect height="471.24" width="613.8" x="99" y="73.44"/>
  </clipPath>
 </defs>
</svg>
