<?xml version="1.0" encoding="utf-8" standalone="no"?>
<!DOCTYPE svg PUBLIC "-//W3C//DTD SVG 1.1//EN"
  "http://www.w3.org/Graphics/SVG/1.1/DTD/svg11.dtd">
<svg height="612pt" version="1.1" viewBox="0 0 792 612" width="792pt" xmlns="http://www.w3.org/2000/svg" xmlns:xlink="http://www.w3.org/1999/xlink">
 <metadata>
  <rdf:RDF xmlns:cc="http://creativecommons.org/ns#" xmlns:dc="http://purl.org/dc/elements/1.1/" xmlns:rdf="http://www.w3.org/1999/02/22-rdf-syntax-ns#">
   <cc:Work>
    <dc:type rdf:resource="http://purl.org/dc/dcmitype/StillImage"/>
    <dc:format>image/svg+xml</dc:format>
    <dc:creator>
     <cc:Agent>
      <dc:title>Matplotlib v3.4.2, https://matplotlib.org/</dc:title>
     </cc:Agent>
    </dc:creator>
   </cc:Work>
  </rdf:RDF>
 </metadata>
 <defs>
  <style type="text/css">*{stroke-linecap:butt;stroke-linejoin:round;}</style>
 </defs>
 <g id="figure_1">
  <g id="patch_1">
   <path d="M 0 612 
L 792 612 
L 792 0 
L 0 0 
z
" style="fill:#ffffff;"/>
  </g>
  <g id="axes_1">
   <g id="patch_2">
    <path d="M 99 544.68 
L 712.8 544.68 
L 712.8 73.44 
L 99 73.44 
z
" style="fill:#ffffff;"/>
   </g>
   <g id="PolyCollection_1">
    <path clip-path="url(#p68e2955192)" d="M 99 414942.840038 
L 99 414942.840038 
L 100.149438 414942.840038 
L 101.298876 414942.840038 
L 102.448315 414942.840038 
L 103.597753 414942.840038 
L 104.747191 414942.840038 
L 105.896629 414942.840038 
L 107.046067 414942.840038 
L 108.195506 414942.840038 
L 109.344944 414942.840038 
L 110.494382 414942.840038 
L 111.64382 414942.840038 
L 112.793258 414942.840038 
L 113.942697 219.65029 
L 115.092135 219.65029 
L 116.241573 219.65029 
L 117.391011 219.65029 
L 118.540449 219.65029 
L 119.689888 273.67942 
L 120.839326 337.893155 
L 121.988764 302.938407 
L 123.138202 302.938407 
L 124.28764 302.938407 
L 125.437079 302.938407 
L 126.586517 302.938407 
L 127.735955 462.683445 
L 128.885393 462.683445 
L 130.034831 462.683445 
L 131.18427 462.683445 
L 132.333708 462.683445 
L 133.483146 462.683445 
L 134.632584 414942.840038 
L 135.782022 414942.840038 
L 136.931461 414942.840038 
L 138.080899 414942.840038 
L 139.230337 414942.840038 
L 140.379775 414942.840038 
L 141.529213 414942.840038 
L 142.678652 414942.840038 
L 143.82809 414942.840038 
L 144.977528 414942.840038 
L 146.126966 414942.840038 
L 147.276404 462.683445 
L 148.425843 462.683445 
L 149.575281 398.46971 
L 150.724719 398.46971 
L 151.874157 398.46971 
L 153.023596 398.46971 
L 154.173034 398.46971 
L 155.322472 302.938407 
L 156.47191 302.938407 
L 157.621348 302.938407 
L 158.770787 302.938407 
L 159.920225 302.938407 
L 161.069663 302.938407 
L 162.219101 302.938407 
L 163.368539 302.938407 
L 164.517978 302.938407 
L 165.667416 462.683445 
L 166.816854 462.683445 
L 167.966292 462.683445 
L 169.11573 462.683445 
L 170.265169 462.683445 
L 171.414607 414942.840038 
L 172.564045 414942.840038 
L 173.713483 414942.840038 
L 174.862921 462.683445 
L 176.01236 398.46971 
L 177.161798 398.46971 
L 178.311236 398.46971 
L 179.460674 398.46971 
L 180.610112 398.46971 
L 181.759551 398.46971 
L 182.908989 302.938407 
L 184.058427 302.938407 
L 185.207865 302.938407 
L 186.357303 302.938407 
L 187.506742 302.938407 
L 188.65618 302.938407 
L 189.805618 302.938407 
L 190.955056 302.938407 
L 192.104494 302.938407 
L 193.253933 398.46971 
L 194.403371 398.46971 
L 195.552809 398.46971 
L 196.702247 462.683445 
L 197.851685 414942.840038 
L 199.001124 414942.840038 
L 200.150562 414942.840038 
L 201.3 414942.840038 
L 202.449438 414942.840038 
L 203.598876 414942.840038 
L 204.748315 414942.840038 
L 205.897753 414942.840038 
L 207.047191 414942.840038 
L 208.196629 414942.840038 
L 209.346067 414942.840038 
L 210.495506 414942.840038 
L 211.644944 414942.840038 
L 212.794382 414942.840038 
L 213.94382 414942.840038 
L 215.093258 414942.840038 
L 216.242697 414942.840038 
L 217.392135 414942.840038 
L 218.541573 414942.840038 
L 219.691011 462.683445 
L 220.840449 462.683445 
L 221.989888 462.683445 
L 223.139326 302.938407 
L 224.288764 302.938407 
L 225.438202 302.938407 
L 226.58764 302.938407 
L 227.737079 302.938407 
L 228.886517 302.938407 
L 230.035955 302.938407 
L 231.185393 302.938407 
L 232.334831 302.938407 
L 233.48427 302.938407 
L 234.633708 302.938407 
L 235.783146 302.938407 
L 236.932584 302.938407 
L 238.082022 302.938407 
L 239.231461 398.46971 
L 240.380899 398.46971 
L 241.530337 302.938407 
L 242.679775 302.938407 
L 243.829213 273.67942 
L 244.978652 273.67942 
L 246.12809 273.67942 
L 247.277528 273.67942 
L 248.426966 273.67942 
L 249.576404 273.67942 
L 250.725843 273.67942 
L 251.875281 302.938407 
L 253.024719 302.938407 
L 254.174157 302.938407 
L 255.323596 302.938407 
L 256.473034 302.938407 
L 257.622472 398.46971 
L 258.77191 398.46971 
L 259.921348 398.46971 
L 261.070787 398.46971 
L 262.220225 398.46971 
L 263.369663 398.46971 
L 264.519101 398.46971 
L 265.668539 398.46971 
L 266.817978 398.46971 
L 267.967416 398.46971 
L 269.116854 398.46971 
L 270.266292 398.46971 
L 271.41573 398.46971 
L 272.565169 398.46971 
L 273.714607 398.46971 
L 274.864045 462.683445 
L 276.013483 302.938407 
L 277.162921 302.938407 
L 278.31236 462.683445 
L 279.461798 462.683445 
L 280.611236 462.683445 
L 281.760674 462.683445 
L 282.910112 462.683445 
L 284.059551 398.46971 
L 285.208989 398.46971 
L 286.358427 398.46971 
L 287.507865 398.46971 
L 288.657303 398.46971 
L 289.806742 398.46971 
L 290.95618 398.46971 
L 292.105618 398.46971 
L 293.255056 398.46971 
L 294.404494 398.46971 
L 295.553933 398.46971 
L 296.703371 398.46971 
L 297.852809 398.46971 
L 299.002247 398.46971 
L 300.151685 398.46971 
L 301.301124 398.46971 
L 302.450562 398.46971 
L 303.6 398.46971 
L 304.749438 398.46971 
L 305.898876 398.46971 
L 307.048315 398.46971 
L 308.197753 398.46971 
L 309.347191 398.46971 
L 310.496629 398.46971 
L 311.646067 398.46971 
L 312.795506 398.46971 
L 313.944944 398.46971 
L 315.094382 398.46971 
L 316.24382 462.683445 
L 317.393258 398.46971 
L 318.542697 302.938407 
L 319.692135 302.938407 
L 320.841573 302.938407 
L 321.991011 302.938407 
L 323.140449 302.938407 
L 324.289888 273.67942 
L 325.439326 273.67942 
L 326.588764 273.67942 
L 327.738202 273.67942 
L 328.88764 273.67942 
L 330.037079 219.65029 
L 331.186517 219.65029 
L 332.335955 200.68178 
L 333.485393 219.65029 
L 334.634831 219.65029 
L 335.78427 219.65029 
L 336.933708 219.65029 
L 338.083146 219.65029 
L 339.232584 219.65029 
L 340.382022 219.65029 
L 341.531461 219.65029 
L 342.680899 162.924884 
L 343.830337 162.924884 
L 344.979775 162.924884 
L 346.129213 178.148117 
L 347.278652 178.148117 
L 348.42809 337.893155 
L 349.577528 178.148117 
L 350.726966 178.148117 
L 351.876404 213.102865 
L 353.025843 213.102865 
L 354.175281 213.102865 
L 355.324719 178.148117 
L 356.474157 178.148117 
L 357.623596 178.148117 
L 358.773034 273.67942 
L 359.922472 273.67942 
L 361.07191 273.67942 
L 362.221348 273.67942 
L 363.370787 273.67942 
L 364.520225 273.67942 
L 365.669663 337.893155 
L 366.819101 273.67942 
L 367.968539 273.67942 
L 369.117978 273.67942 
L 370.267416 273.67942 
L 371.416854 302.938407 
L 372.566292 302.938407 
L 373.71573 302.938407 
L 374.865169 398.46971 
L 376.014607 398.46971 
L 377.164045 398.46971 
L 378.313483 398.46971 
L 379.462921 398.46971 
L 380.61236 398.46971 
L 381.761798 398.46971 
L 382.911236 398.46971 
L 384.060674 462.683445 
L 385.210112 462.683445 
L 386.359551 462.683445 
L 387.508989 462.683445 
L 388.658427 462.683445 
L 389.807865 414942.840038 
L 390.957303 337.893155 
L 392.106742 273.67942 
L 393.25618 273.67942 
L 394.405618 273.67942 
L 395.555056 273.67942 
L 396.704494 273.67942 
L 397.853933 273.67942 
L 399.003371 273.67942 
L 400.152809 273.67942 
L 401.302247 273.67942 
L 402.451685 273.67942 
L 403.601124 273.67942 
L 404.750562 273.67942 
L 405.9 273.67942 
L 407.049438 273.67942 
L 408.198876 302.938407 
L 409.348315 302.938407 
L 410.497753 302.938407 
L 411.647191 302.938407 
L 412.796629 273.67942 
L 413.946067 273.67942 
L 415.095506 273.67942 
L 416.244944 273.67942 
L 417.394382 273.67942 
L 418.54382 273.67942 
L 419.693258 302.938407 
L 420.842697 302.938407 
L 421.992135 302.938407 
L 423.141573 337.893155 
L 424.291011 337.893155 
L 425.440449 337.893155 
L 426.589888 302.938407 
L 427.739326 302.938407 
L 428.888764 462.683445 
L 430.038202 462.683445 
L 431.18764 462.683445 
L 432.337079 302.938407 
L 433.486517 302.938407 
L 434.635955 302.938407 
L 435.785393 302.938407 
L 436.934831 302.938407 
L 438.08427 302.938407 
L 439.233708 302.938407 
L 440.383146 302.938407 
L 441.532584 398.46971 
L 442.682022 462.683445 
L 443.831461 462.683445 
L 444.980899 462.683445 
L 446.130337 462.683445 
L 447.279775 462.683445 
L 448.429213 462.683445 
L 449.578652 462.683445 
L 450.72809 462.683445 
L 451.877528 462.683445 
L 453.026966 462.683445 
L 454.176404 462.683445 
L 455.325843 462.683445 
L 456.475281 337.893155 
L 457.624719 337.893155 
L 458.774157 337.893155 
L 459.923596 337.893155 
L 461.073034 337.893155 
L 462.222472 337.893155 
L 463.37191 337.893155 
L 464.521348 414942.840038 
L 465.670787 414942.840038 
L 466.820225 414942.840038 
L 467.969663 462.683445 
L 469.119101 462.683445 
L 470.268539 462.683445 
L 471.417978 462.683445 
L 472.567416 414942.840038 
L 473.716854 462.683445 
L 474.866292 462.683445 
L 476.01573 462.683445 
L 477.165169 462.683445 
L 478.314607 398.46971 
L 479.464045 398.46971 
L 480.613483 398.46971 
L 481.762921 398.46971 
L 482.91236 398.46971 
L 484.061798 462.683445 
L 485.211236 462.683445 
L 486.360674 462.683445 
L 487.510112 462.683445 
L 488.659551 462.683445 
L 489.808989 462.683445 
L 490.958427 462.683445 
L 492.107865 462.683445 
L 493.257303 462.683445 
L 494.406742 414942.840038 
L 495.55618 462.683445 
L 496.705618 462.683445 
L 497.855056 462.683445 
L 499.004494 462.683445 
L 500.153933 462.683445 
L 501.303371 398.46971 
L 502.452809 302.938407 
L 503.602247 302.938407 
L 504.751685 302.938407 
L 505.901124 219.65029 
L 507.050562 219.65029 
L 508.2 219.65029 
L 509.349438 219.65029 
L 510.498876 219.65029 
L 511.648315 240.85528 
L 512.797753 240.85528 
L 513.947191 240.85528 
L 515.096629 240.85528 
L 516.246067 240.85528 
L 517.395506 240.85528 
L 518.544944 398.46971 
L 519.694382 398.46971 
L 520.84382 398.46971 
L 521.993258 462.683445 
L 523.142697 462.683445 
L 524.292135 462.683445 
L 525.441573 462.683445 
L 526.591011 462.683445 
L 527.740449 462.683445 
L 528.889888 414942.840038 
L 530.039326 462.683445 
L 531.188764 414942.840038 
L 532.338202 414942.840038 
L 533.48764 414942.840038 
L 534.637079 414942.840038 
L 535.786517 414942.840038 
L 536.935955 414942.840038 
L 538.085393 414942.840038 
L 539.234831 462.683445 
L 540.38427 398.46971 
L 541.533708 398.46971 
L 542.683146 398.46971 
L 543.832584 398.46971 
L 544.982022 398.46971 
L 546.131461 462.683445 
L 547.280899 462.683445 
L 548.430337 462.683445 
L 549.579775 398.46971 
L 550.729213 398.46971 
L 551.878652 398.46971 
L 553.02809 398.46971 
L 554.177528 398.46971 
L 555.326966 462.683445 
L 556.476404 414942.840038 
L 557.625843 337.893155 
L 558.775281 337.893155 
L 559.924719 337.893155 
L 561.074157 337.893155 
L 562.223596 337.893155 
L 563.373034 337.893155 
L 564.522472 302.938407 
L 565.67191 462.683445 
L 566.821348 462.683445 
L 567.970787 398.46971 
L 569.120225 398.46971 
L 570.269663 398.46971 
L 571.419101 398.46971 
L 572.568539 398.46971 
L 573.717978 398.46971 
L 574.867416 398.46971 
L 576.016854 398.46971 
L 577.166292 302.938407 
L 578.31573 302.938407 
L 579.465169 273.67942 
L 580.614607 273.67942 
L 581.764045 273.67942 
L 582.913483 273.67942 
L 584.062921 273.67942 
L 585.21236 273.67942 
L 586.361798 273.67942 
L 587.511236 273.67942 
L 588.660674 273.67942 
L 589.810112 273.67942 
L 590.959551 273.67942 
L 592.108989 273.67942 
L 593.258427 273.67942 
L 594.407865 273.67942 
L 595.557303 337.893155 
L 596.706742 337.893155 
L 597.85618 414942.840038 
L 599.005618 414942.840038 
L 600.155056 414942.840038 
L 601.304494 414942.840038 
L 602.453933 414942.840038 
L 603.603371 414942.840038 
L 604.752809 414942.840038 
L 605.902247 414942.840038 
L 607.051685 414942.840038 
L 608.201124 414942.840038 
L 609.350562 414942.840038 
L 610.5 414942.840038 
L 611.649438 414942.840038 
L 612.798876 414942.840038 
L 613.948315 414942.840038 
L 615.097753 414942.840038 
L 616.247191 414942.840038 
L 617.396629 414942.840038 
L 618.546067 414942.840038 
L 619.695506 414942.840038 
L 620.844944 414942.840038 
L 621.994382 414942.840038 
L 623.14382 414942.840038 
L 624.293258 414942.840038 
L 625.442697 414942.840038 
L 626.592135 414942.840038 
L 627.741573 414942.840038 
L 628.891011 414942.840038 
L 630.040449 414942.840038 
L 631.189888 414942.840038 
L 632.339326 414942.840038 
L 633.488764 414942.840038 
L 634.638202 462.683445 
L 635.78764 462.683445 
L 636.937079 462.683445 
L 638.086517 462.683445 
L 639.235955 462.683445 
L 640.385393 462.683445 
L 641.534831 398.46971 
L 642.68427 398.46971 
L 643.833708 398.46971 
L 644.983146 398.46971 
L 646.132584 398.46971 
L 647.282022 398.46971 
L 648.431461 398.46971 
L 649.580899 398.46971 
L 650.730337 462.683445 
L 651.879775 462.683445 
L 653.029213 462.683445 
L 654.178652 462.683445 
L 655.32809 302.938407 
L 656.477528 302.938407 
L 657.626966 462.683445 
L 658.776404 462.683445 
L 659.925843 462.683445 
L 661.075281 462.683445 
L 662.224719 302.938407 
L 663.374157 302.938407 
L 664.523596 273.67942 
L 665.673034 273.67942 
L 666.822472 273.67942 
L 667.97191 273.67942 
L 669.121348 116.06499 
L 670.270787 116.06499 
L 671.420225 116.06499 
L 672.569663 94.86 
L 673.719101 94.86 
L 674.868539 94.86 
L 676.017978 94.86 
L 677.167416 94.86 
L 678.316854 162.924884 
L 679.466292 162.924884 
L 680.61573 119.855327 
L 681.765169 119.855327 
L 682.914607 119.855327 
L 684.064045 119.855327 
L 685.213483 148.88913 
L 686.362921 148.88913 
L 687.51236 148.88913 
L 688.661798 162.924884 
L 689.811236 162.924884 
L 690.960674 148.88913 
L 692.110112 148.88913 
L 693.259551 148.88913 
L 694.408989 148.88913 
L 695.558427 148.88913 
L 696.707865 148.88913 
L 697.857303 148.88913 
L 699.006742 148.88913 
L 700.15618 178.148117 
L 701.305618 178.148117 
L 702.455056 178.148117 
L 703.604494 178.148117 
L 704.753933 119.855327 
L 705.903371 119.855327 
L 707.052809 144.443612 
L 708.202247 144.443612 
L 709.351685 144.443612 
L 710.501124 144.443612 
L 711.650562 144.443612 
L 712.8 273.67942 
L 712.8 414942.840038 
L 712.8 414942.840038 
L 711.650562 414942.840038 
L 710.501124 414942.840038 
L 709.351685 414942.840038 
L 708.202247 414942.840038 
L 707.052809 414942.840038 
L 705.903371 414942.840038 
L 704.753933 414942.840038 
L 703.604494 414942.840038 
L 702.455056 414942.840038 
L 701.305618 414942.840038 
L 700.15618 414942.840038 
L 699.006742 414942.840038 
L 697.857303 414942.840038 
L 696.707865 414942.840038 
L 695.558427 414942.840038 
L 694.408989 414942.840038 
L 693.259551 414942.840038 
L 692.110112 414942.840038 
L 690.960674 414942.840038 
L 689.811236 414942.840038 
L 688.661798 414942.840038 
L 687.51236 414942.840038 
L 686.362921 414942.840038 
L 685.213483 414942.840038 
L 684.064045 414942.840038 
L 682.914607 414942.840038 
L 681.765169 414942.840038 
L 680.61573 414942.840038 
L 679.466292 414942.840038 
L 678.316854 414942.840038 
L 677.167416 414942.840038 
L 676.017978 414942.840038 
L 674.868539 414942.840038 
L 673.719101 414942.840038 
L 672.569663 414942.840038 
L 671.420225 414942.840038 
L 670.270787 414942.840038 
L 669.121348 414942.840038 
L 667.97191 414942.840038 
L 666.822472 414942.840038 
L 665.673034 414942.840038 
L 664.523596 414942.840038 
L 663.374157 414942.840038 
L 662.224719 414942.840038 
L 661.075281 414942.840038 
L 659.925843 414942.840038 
L 658.776404 414942.840038 
L 657.626966 414942.840038 
L 656.477528 414942.840038 
L 655.32809 414942.840038 
L 654.178652 414942.840038 
L 653.029213 414942.840038 
L 651.879775 414942.840038 
L 650.730337 414942.840038 
L 649.580899 414942.840038 
L 648.431461 414942.840038 
L 647.282022 414942.840038 
L 646.132584 414942.840038 
L 644.983146 414942.840038 
L 643.833708 414942.840038 
L 642.68427 414942.840038 
L 641.534831 414942.840038 
L 640.385393 414942.840038 
L 639.235955 414942.840038 
L 638.086517 414942.840038 
L 636.937079 414942.840038 
L 635.78764 414942.840038 
L 634.638202 414942.840038 
L 633.488764 414942.840038 
L 632.339326 414942.840038 
L 631.189888 414942.840038 
L 630.040449 414942.840038 
L 628.891011 414942.840038 
L 627.741573 414942.840038 
L 626.592135 414942.840038 
L 625.442697 414942.840038 
L 624.293258 414942.840038 
L 623.14382 414942.840038 
L 621.994382 414942.840038 
L 620.844944 414942.840038 
L 619.695506 414942.840038 
L 618.546067 414942.840038 
L 617.396629 414942.840038 
L 616.247191 414942.840038 
L 615.097753 414942.840038 
L 613.948315 414942.840038 
L 612.798876 414942.840038 
L 611.649438 414942.840038 
L 610.5 414942.840038 
L 609.350562 414942.840038 
L 608.201124 414942.840038 
L 607.051685 414942.840038 
L 605.902247 414942.840038 
L 604.752809 414942.840038 
L 603.603371 414942.840038 
L 602.453933 414942.840038 
L 601.304494 414942.840038 
L 600.155056 414942.840038 
L 599.005618 414942.840038 
L 597.85618 414942.840038 
L 596.706742 414942.840038 
L 595.557303 414942.840038 
L 594.407865 414942.840038 
L 593.258427 414942.840038 
L 592.108989 414942.840038 
L 590.959551 414942.840038 
L 589.810112 414942.840038 
L 588.660674 414942.840038 
L 587.511236 414942.840038 
L 586.361798 414942.840038 
L 585.21236 414942.840038 
L 584.062921 414942.840038 
L 582.913483 414942.840038 
L 581.764045 414942.840038 
L 580.614607 414942.840038 
L 579.465169 414942.840038 
L 578.31573 414942.840038 
L 577.166292 414942.840038 
L 576.016854 414942.840038 
L 574.867416 414942.840038 
L 573.717978 414942.840038 
L 572.568539 414942.840038 
L 571.419101 414942.840038 
L 570.269663 414942.840038 
L 569.120225 414942.840038 
L 567.970787 414942.840038 
L 566.821348 414942.840038 
L 565.67191 414942.840038 
L 564.522472 414942.840038 
L 563.373034 414942.840038 
L 562.223596 414942.840038 
L 561.074157 414942.840038 
L 559.924719 414942.840038 
L 558.775281 414942.840038 
L 557.625843 414942.840038 
L 556.476404 414942.840038 
L 555.326966 414942.840038 
L 554.177528 414942.840038 
L 553.02809 414942.840038 
L 551.878652 414942.840038 
L 550.729213 414942.840038 
L 549.579775 414942.840038 
L 548.430337 414942.840038 
L 547.280899 414942.840038 
L 546.131461 414942.840038 
L 544.982022 414942.840038 
L 543.832584 414942.840038 
L 542.683146 414942.840038 
L 541.533708 414942.840038 
L 540.38427 414942.840038 
L 539.234831 414942.840038 
L 538.085393 414942.840038 
L 536.935955 414942.840038 
L 535.786517 414942.840038 
L 534.637079 414942.840038 
L 533.48764 414942.840038 
L 532.338202 414942.840038 
L 531.188764 414942.840038 
L 530.039326 414942.840038 
L 528.889888 414942.840038 
L 527.740449 414942.840038 
L 526.591011 414942.840038 
L 525.441573 414942.840038 
L 524.292135 414942.840038 
L 523.142697 414942.840038 
L 521.993258 414942.840038 
L 520.84382 414942.840038 
L 519.694382 414942.840038 
L 518.544944 414942.840038 
L 517.395506 414942.840038 
L 516.246067 414942.840038 
L 515.096629 414942.840038 
L 513.947191 414942.840038 
L 512.797753 414942.840038 
L 511.648315 414942.840038 
L 510.498876 414942.840038 
L 509.349438 414942.840038 
L 508.2 414942.840038 
L 507.050562 414942.840038 
L 505.901124 414942.840038 
L 504.751685 414942.840038 
L 503.602247 414942.840038 
L 502.452809 414942.840038 
L 501.303371 414942.840038 
L 500.153933 414942.840038 
L 499.004494 414942.840038 
L 497.855056 414942.840038 
L 496.705618 414942.840038 
L 495.55618 414942.840038 
L 494.406742 414942.840038 
L 493.257303 414942.840038 
L 492.107865 414942.840038 
L 490.958427 414942.840038 
L 489.808989 414942.840038 
L 488.659551 414942.840038 
L 487.510112 414942.840038 
L 486.360674 414942.840038 
L 485.211236 414942.840038 
L 484.061798 414942.840038 
L 482.91236 414942.840038 
L 481.762921 414942.840038 
L 480.613483 414942.840038 
L 479.464045 414942.840038 
L 478.314607 414942.840038 
L 477.165169 414942.840038 
L 476.01573 414942.840038 
L 474.866292 414942.840038 
L 473.716854 414942.840038 
L 472.567416 414942.840038 
L 471.417978 414942.840038 
L 470.268539 414942.840038 
L 469.119101 414942.840038 
L 467.969663 414942.840038 
L 466.820225 414942.840038 
L 465.670787 414942.840038 
L 464.521348 414942.840038 
L 463.37191 414942.840038 
L 462.222472 414942.840038 
L 461.073034 414942.840038 
L 459.923596 414942.840038 
L 458.774157 414942.840038 
L 457.624719 414942.840038 
L 456.475281 414942.840038 
L 455.325843 414942.840038 
L 454.176404 414942.840038 
L 453.026966 414942.840038 
L 451.877528 414942.840038 
L 450.72809 414942.840038 
L 449.578652 414942.840038 
L 448.429213 414942.840038 
L 447.279775 414942.840038 
L 446.130337 414942.840038 
L 444.980899 414942.840038 
L 443.831461 414942.840038 
L 442.682022 414942.840038 
L 441.532584 414942.840038 
L 440.383146 414942.840038 
L 439.233708 414942.840038 
L 438.08427 414942.840038 
L 436.934831 414942.840038 
L 435.785393 414942.840038 
L 434.635955 414942.840038 
L 433.486517 414942.840038 
L 432.337079 414942.840038 
L 431.18764 414942.840038 
L 430.038202 414942.840038 
L 428.888764 414942.840038 
L 427.739326 414942.840038 
L 426.589888 414942.840038 
L 425.440449 414942.840038 
L 424.291011 414942.840038 
L 423.141573 414942.840038 
L 421.992135 414942.840038 
L 420.842697 414942.840038 
L 419.693258 414942.840038 
L 418.54382 414942.840038 
L 417.394382 414942.840038 
L 416.244944 414942.840038 
L 415.095506 414942.840038 
L 413.946067 414942.840038 
L 412.796629 414942.840038 
L 411.647191 414942.840038 
L 410.497753 414942.840038 
L 409.348315 414942.840038 
L 408.198876 414942.840038 
L 407.049438 414942.840038 
L 405.9 414942.840038 
L 404.750562 414942.840038 
L 403.601124 414942.840038 
L 402.451685 414942.840038 
L 401.302247 414942.840038 
L 400.152809 414942.840038 
L 399.003371 414942.840038 
L 397.853933 414942.840038 
L 396.704494 414942.840038 
L 395.555056 414942.840038 
L 394.405618 414942.840038 
L 393.25618 414942.840038 
L 392.106742 414942.840038 
L 390.957303 414942.840038 
L 389.807865 414942.840038 
L 388.658427 414942.840038 
L 387.508989 414942.840038 
L 386.359551 414942.840038 
L 385.210112 414942.840038 
L 384.060674 414942.840038 
L 382.911236 414942.840038 
L 381.761798 414942.840038 
L 380.61236 414942.840038 
L 379.462921 414942.840038 
L 378.313483 414942.840038 
L 377.164045 414942.840038 
L 376.014607 414942.840038 
L 374.865169 414942.840038 
L 373.71573 414942.840038 
L 372.566292 414942.840038 
L 371.416854 414942.840038 
L 370.267416 414942.840038 
L 369.117978 414942.840038 
L 367.968539 414942.840038 
L 366.819101 414942.840038 
L 365.669663 414942.840038 
L 364.520225 414942.840038 
L 363.370787 414942.840038 
L 362.221348 414942.840038 
L 361.07191 414942.840038 
L 359.922472 414942.840038 
L 358.773034 414942.840038 
L 357.623596 414942.840038 
L 356.474157 414942.840038 
L 355.324719 414942.840038 
L 354.175281 414942.840038 
L 353.025843 414942.840038 
L 351.876404 414942.840038 
L 350.726966 414942.840038 
L 349.577528 414942.840038 
L 348.42809 414942.840038 
L 347.278652 414942.840038 
L 346.129213 414942.840038 
L 344.979775 414942.840038 
L 343.830337 414942.840038 
L 342.680899 414942.840038 
L 341.531461 414942.840038 
L 340.382022 414942.840038 
L 339.232584 414942.840038 
L 338.083146 414942.840038 
L 336.933708 414942.840038 
L 335.78427 414942.840038 
L 334.634831 414942.840038 
L 333.485393 414942.840038 
L 332.335955 414942.840038 
L 331.186517 414942.840038 
L 330.037079 414942.840038 
L 328.88764 414942.840038 
L 327.738202 414942.840038 
L 326.588764 414942.840038 
L 325.439326 414942.840038 
L 324.289888 414942.840038 
L 323.140449 414942.840038 
L 321.991011 414942.840038 
L 320.841573 414942.840038 
L 319.692135 414942.840038 
L 318.542697 414942.840038 
L 317.393258 414942.840038 
L 316.24382 414942.840038 
L 315.094382 414942.840038 
L 313.944944 414942.840038 
L 312.795506 414942.840038 
L 311.646067 414942.840038 
L 310.496629 414942.840038 
L 309.347191 414942.840038 
L 308.197753 414942.840038 
L 307.048315 414942.840038 
L 305.898876 414942.840038 
L 304.749438 414942.840038 
L 303.6 414942.840038 
L 302.450562 414942.840038 
L 301.301124 414942.840038 
L 300.151685 414942.840038 
L 299.002247 414942.840038 
L 297.852809 414942.840038 
L 296.703371 414942.840038 
L 295.553933 414942.840038 
L 294.404494 414942.840038 
L 293.255056 414942.840038 
L 292.105618 414942.840038 
L 290.95618 414942.840038 
L 289.806742 414942.840038 
L 288.657303 414942.840038 
L 287.507865 414942.840038 
L 286.358427 414942.840038 
L 285.208989 414942.840038 
L 284.059551 414942.840038 
L 282.910112 414942.840038 
L 281.760674 414942.840038 
L 280.611236 414942.840038 
L 279.461798 414942.840038 
L 278.31236 414942.840038 
L 277.162921 414942.840038 
L 276.013483 414942.840038 
L 274.864045 414942.840038 
L 273.714607 414942.840038 
L 272.565169 414942.840038 
L 271.41573 414942.840038 
L 270.266292 414942.840038 
L 269.116854 414942.840038 
L 267.967416 414942.840038 
L 266.817978 414942.840038 
L 265.668539 414942.840038 
L 264.519101 414942.840038 
L 263.369663 414942.840038 
L 262.220225 414942.840038 
L 261.070787 414942.840038 
L 259.921348 414942.840038 
L 258.77191 414942.840038 
L 257.622472 414942.840038 
L 256.473034 414942.840038 
L 255.323596 414942.840038 
L 254.174157 414942.840038 
L 253.024719 414942.840038 
L 251.875281 414942.840038 
L 250.725843 414942.840038 
L 249.576404 414942.840038 
L 248.426966 414942.840038 
L 247.277528 414942.840038 
L 246.12809 414942.840038 
L 244.978652 414942.840038 
L 243.829213 414942.840038 
L 242.679775 414942.840038 
L 241.530337 414942.840038 
L 240.380899 414942.840038 
L 239.231461 414942.840038 
L 238.082022 414942.840038 
L 236.932584 414942.840038 
L 235.783146 414942.840038 
L 234.633708 414942.840038 
L 233.48427 414942.840038 
L 232.334831 414942.840038 
L 231.185393 414942.840038 
L 230.035955 414942.840038 
L 228.886517 414942.840038 
L 227.737079 414942.840038 
L 226.58764 414942.840038 
L 225.438202 414942.840038 
L 224.288764 414942.840038 
L 223.139326 414942.840038 
L 221.989888 414942.840038 
L 220.840449 414942.840038 
L 219.691011 414942.840038 
L 218.541573 414942.840038 
L 217.392135 414942.840038 
L 216.242697 414942.840038 
L 215.093258 414942.840038 
L 213.94382 414942.840038 
L 212.794382 414942.840038 
L 211.644944 414942.840038 
L 210.495506 414942.840038 
L 209.346067 414942.840038 
L 208.196629 414942.840038 
L 207.047191 414942.840038 
L 205.897753 414942.840038 
L 204.748315 414942.840038 
L 203.598876 414942.840038 
L 202.449438 414942.840038 
L 201.3 414942.840038 
L 200.150562 414942.840038 
L 199.001124 414942.840038 
L 197.851685 414942.840038 
L 196.702247 414942.840038 
L 195.552809 414942.840038 
L 194.403371 414942.840038 
L 193.253933 414942.840038 
L 192.104494 414942.840038 
L 190.955056 414942.840038 
L 189.805618 414942.840038 
L 188.65618 414942.840038 
L 187.506742 414942.840038 
L 186.357303 414942.840038 
L 185.207865 414942.840038 
L 184.058427 414942.840038 
L 182.908989 414942.840038 
L 181.759551 414942.840038 
L 180.610112 414942.840038 
L 179.460674 414942.840038 
L 178.311236 414942.840038 
L 177.161798 414942.840038 
L 176.01236 414942.840038 
L 174.862921 414942.840038 
L 173.713483 414942.840038 
L 172.564045 414942.840038 
L 171.414607 414942.840038 
L 170.265169 414942.840038 
L 169.11573 414942.840038 
L 167.966292 414942.840038 
L 166.816854 414942.840038 
L 165.667416 414942.840038 
L 164.517978 414942.840038 
L 163.368539 414942.840038 
L 162.219101 414942.840038 
L 161.069663 414942.840038 
L 159.920225 414942.840038 
L 158.770787 414942.840038 
L 157.621348 414942.840038 
L 156.47191 414942.840038 
L 155.322472 414942.840038 
L 154.173034 414942.840038 
L 153.023596 414942.840038 
L 151.874157 414942.840038 
L 150.724719 414942.840038 
L 149.575281 414942.840038 
L 148.425843 414942.840038 
L 147.276404 414942.840038 
L 146.126966 414942.840038 
L 144.977528 414942.840038 
L 143.82809 414942.840038 
L 142.678652 414942.840038 
L 141.529213 414942.840038 
L 140.379775 414942.840038 
L 139.230337 414942.840038 
L 138.080899 414942.840038 
L 136.931461 414942.840038 
L 135.782022 414942.840038 
L 134.632584 414942.840038 
L 133.483146 414942.840038 
L 132.333708 414942.840038 
L 131.18427 414942.840038 
L 130.034831 414942.840038 
L 128.885393 414942.840038 
L 127.735955 414942.840038 
L 126.586517 414942.840038 
L 125.437079 414942.840038 
L 124.28764 414942.840038 
L 123.138202 414942.840038 
L 121.988764 414942.840038 
L 120.839326 414942.840038 
L 119.689888 414942.840038 
L 118.540449 414942.840038 
L 117.391011 414942.840038 
L 116.241573 414942.840038 
L 115.092135 414942.840038 
L 113.942697 414942.840038 
L 112.793258 414942.840038 
L 111.64382 414942.840038 
L 110.494382 414942.840038 
L 109.344944 414942.840038 
L 108.195506 414942.840038 
L 107.046067 414942.840038 
L 105.896629 414942.840038 
L 104.747191 414942.840038 
L 103.597753 414942.840038 
L 102.448315 414942.840038 
L 101.298876 414942.840038 
L 100.149438 414942.840038 
L 99 414942.840038 
z
" style="fill:#8080ff;fill-opacity:0.5;stroke:#8080ff;stroke-opacity:0.5;"/>
   </g>
   <g id="PolyCollection_2">
    <path clip-path="url(#p68e2955192)" d="M 99 414942.840038 
L 99 414942.840038 
L 100.149438 414942.840038 
L 101.298876 414942.840038 
L 102.448315 414942.840038 
L 103.597753 414942.840038 
L 104.747191 414942.840038 
L 105.896629 414942.840038 
L 107.046067 414942.840038 
L 108.195506 414942.840038 
L 109.344944 414942.840038 
L 110.494382 414942.840038 
L 111.64382 414942.840038 
L 112.793258 414942.840038 
L 113.942697 462.683445 
L 115.092135 462.683445 
L 116.241573 462.683445 
L 117.391011 462.683445 
L 118.540449 462.683445 
L 119.689888 414942.840038 
L 120.839326 414942.840038 
L 121.988764 414942.840038 
L 123.138202 414942.840038 
L 124.28764 414942.840038 
L 125.437079 414942.840038 
L 126.586517 414942.840038 
L 127.735955 414942.840038 
L 128.885393 414942.840038 
L 130.034831 414942.840038 
L 131.18427 414942.840038 
L 132.333708 414942.840038 
L 133.483146 414942.840038 
L 134.632584 414942.840038 
L 135.782022 414942.840038 
L 136.931461 414942.840038 
L 138.080899 414942.840038 
L 139.230337 414942.840038 
L 140.379775 414942.840038 
L 141.529213 414942.840038 
L 142.678652 414942.840038 
L 143.82809 414942.840038 
L 144.977528 414942.840038 
L 146.126966 414942.840038 
L 147.276404 414942.840038 
L 148.425843 414942.840038 
L 149.575281 414942.840038 
L 150.724719 414942.840038 
L 151.874157 414942.840038 
L 153.023596 414942.840038 
L 154.173034 414942.840038 
L 155.322472 414942.840038 
L 156.47191 414942.840038 
L 157.621348 414942.840038 
L 158.770787 414942.840038 
L 159.920225 414942.840038 
L 161.069663 414942.840038 
L 162.219101 414942.840038 
L 163.368539 414942.840038 
L 164.517978 414942.840038 
L 165.667416 414942.840038 
L 166.816854 414942.840038 
L 167.966292 414942.840038 
L 169.11573 414942.840038 
L 170.265169 414942.840038 
L 171.414607 414942.840038 
L 172.564045 414942.840038 
L 173.713483 414942.840038 
L 174.862921 414942.840038 
L 176.01236 414942.840038 
L 177.161798 414942.840038 
L 178.311236 414942.840038 
L 179.460674 414942.840038 
L 180.610112 414942.840038 
L 181.759551 414942.840038 
L 182.908989 414942.840038 
L 184.058427 414942.840038 
L 185.207865 414942.840038 
L 186.357303 414942.840038 
L 187.506742 414942.840038 
L 188.65618 414942.840038 
L 189.805618 414942.840038 
L 190.955056 414942.840038 
L 192.104494 414942.840038 
L 193.253933 414942.840038 
L 194.403371 414942.840038 
L 195.552809 414942.840038 
L 196.702247 414942.840038 
L 197.851685 414942.840038 
L 199.001124 414942.840038 
L 200.150562 414942.840038 
L 201.3 414942.840038 
L 202.449438 414942.840038 
L 203.598876 414942.840038 
L 204.748315 414942.840038 
L 205.897753 414942.840038 
L 207.047191 414942.840038 
L 208.196629 414942.840038 
L 209.346067 414942.840038 
L 210.495506 414942.840038 
L 211.644944 414942.840038 
L 212.794382 414942.840038 
L 213.94382 414942.840038 
L 215.093258 414942.840038 
L 216.242697 414942.840038 
L 217.392135 414942.840038 
L 218.541573 414942.840038 
L 219.691011 414942.840038 
L 220.840449 414942.840038 
L 221.989888 414942.840038 
L 223.139326 414942.840038 
L 224.288764 414942.840038 
L 225.438202 414942.840038 
L 226.58764 414942.840038 
L 227.737079 414942.840038 
L 228.886517 414942.840038 
L 230.035955 414942.840038 
L 231.185393 414942.840038 
L 232.334831 414942.840038 
L 233.48427 414942.840038 
L 234.633708 414942.840038 
L 235.783146 414942.840038 
L 236.932584 414942.840038 
L 238.082022 414942.840038 
L 239.231461 414942.840038 
L 240.380899 414942.840038 
L 241.530337 414942.840038 
L 242.679775 414942.840038 
L 243.829213 414942.840038 
L 244.978652 414942.840038 
L 246.12809 414942.840038 
L 247.277528 414942.840038 
L 248.426966 414942.840038 
L 249.576404 414942.840038 
L 250.725843 414942.840038 
L 251.875281 414942.840038 
L 253.024719 414942.840038 
L 254.174157 414942.840038 
L 255.323596 414942.840038 
L 256.473034 414942.840038 
L 257.622472 414942.840038 
L 258.77191 414942.840038 
L 259.921348 414942.840038 
L 261.070787 414942.840038 
L 262.220225 414942.840038 
L 263.369663 414942.840038 
L 264.519101 414942.840038 
L 265.668539 414942.840038 
L 266.817978 414942.840038 
L 267.967416 414942.840038 
L 269.116854 414942.840038 
L 270.266292 414942.840038 
L 271.41573 414942.840038 
L 272.565169 414942.840038 
L 273.714607 414942.840038 
L 274.864045 414942.840038 
L 276.013483 414942.840038 
L 277.162921 414942.840038 
L 278.31236 414942.840038 
L 279.461798 414942.840038 
L 280.611236 414942.840038 
L 281.760674 414942.840038 
L 282.910112 414942.840038 
L 284.059551 414942.840038 
L 285.208989 414942.840038 
L 286.358427 414942.840038 
L 287.507865 414942.840038 
L 288.657303 414942.840038 
L 289.806742 414942.840038 
L 290.95618 414942.840038 
L 292.105618 414942.840038 
L 293.255056 414942.840038 
L 294.404494 414942.840038 
L 295.553933 414942.840038 
L 296.703371 414942.840038 
L 297.852809 414942.840038 
L 299.002247 414942.840038 
L 300.151685 414942.840038 
L 301.301124 414942.840038 
L 302.450562 414942.840038 
L 303.6 414942.840038 
L 304.749438 414942.840038 
L 305.898876 414942.840038 
L 307.048315 414942.840038 
L 308.197753 414942.840038 
L 309.347191 414942.840038 
L 310.496629 414942.840038 
L 311.646067 414942.840038 
L 312.795506 414942.840038 
L 313.944944 414942.840038 
L 315.094382 414942.840038 
L 316.24382 414942.840038 
L 317.393258 414942.840038 
L 318.542697 414942.840038 
L 319.692135 414942.840038 
L 320.841573 414942.840038 
L 321.991011 414942.840038 
L 323.140449 414942.840038 
L 324.289888 414942.840038 
L 325.439326 414942.840038 
L 326.588764 414942.840038 
L 327.738202 414942.840038 
L 328.88764 414942.840038 
L 330.037079 414942.840038 
L 331.186517 414942.840038 
L 332.335955 414942.840038 
L 333.485393 414942.840038 
L 334.634831 414942.840038 
L 335.78427 414942.840038 
L 336.933708 414942.840038 
L 338.083146 414942.840038 
L 339.232584 414942.840038 
L 340.382022 414942.840038 
L 341.531461 414942.840038 
L 342.680899 414942.840038 
L 343.830337 414942.840038 
L 344.979775 414942.840038 
L 346.129213 414942.840038 
L 347.278652 414942.840038 
L 348.42809 414942.840038 
L 349.577528 414942.840038 
L 350.726966 414942.840038 
L 351.876404 414942.840038 
L 353.025843 414942.840038 
L 354.175281 414942.840038 
L 355.324719 414942.840038 
L 356.474157 414942.840038 
L 357.623596 414942.840038 
L 358.773034 414942.840038 
L 359.922472 414942.840038 
L 361.07191 414942.840038 
L 362.221348 414942.840038 
L 363.370787 414942.840038 
L 364.520225 414942.840038 
L 365.669663 414942.840038 
L 366.819101 414942.840038 
L 367.968539 414942.840038 
L 369.117978 414942.840038 
L 370.267416 414942.840038 
L 371.416854 414942.840038 
L 372.566292 414942.840038 
L 373.71573 414942.840038 
L 374.865169 414942.840038 
L 376.014607 414942.840038 
L 377.164045 414942.840038 
L 378.313483 414942.840038 
L 379.462921 414942.840038 
L 380.61236 414942.840038 
L 381.761798 414942.840038 
L 382.911236 414942.840038 
L 384.060674 414942.840038 
L 385.210112 414942.840038 
L 386.359551 414942.840038 
L 387.508989 414942.840038 
L 388.658427 414942.840038 
L 389.807865 414942.840038 
L 390.957303 414942.840038 
L 392.106742 414942.840038 
L 393.25618 414942.840038 
L 394.405618 414942.840038 
L 395.555056 414942.840038 
L 396.704494 414942.840038 
L 397.853933 414942.840038 
L 399.003371 414942.840038 
L 400.152809 414942.840038 
L 401.302247 414942.840038 
L 402.451685 414942.840038 
L 403.601124 414942.840038 
L 404.750562 414942.840038 
L 405.9 414942.840038 
L 407.049438 414942.840038 
L 408.198876 414942.840038 
L 409.348315 414942.840038 
L 410.497753 414942.840038 
L 411.647191 414942.840038 
L 412.796629 414942.840038 
L 413.946067 414942.840038 
L 415.095506 414942.840038 
L 416.244944 414942.840038 
L 417.394382 414942.840038 
L 418.54382 414942.840038 
L 419.693258 414942.840038 
L 420.842697 414942.840038 
L 421.992135 414942.840038 
L 423.141573 414942.840038 
L 424.291011 414942.840038 
L 425.440449 414942.840038 
L 426.589888 414942.840038 
L 427.739326 414942.840038 
L 428.888764 414942.840038 
L 430.038202 414942.840038 
L 431.18764 414942.840038 
L 432.337079 414942.840038 
L 433.486517 414942.840038 
L 434.635955 414942.840038 
L 435.785393 414942.840038 
L 436.934831 414942.840038 
L 438.08427 414942.840038 
L 439.233708 414942.840038 
L 440.383146 414942.840038 
L 441.532584 414942.840038 
L 442.682022 414942.840038 
L 443.831461 414942.840038 
L 444.980899 414942.840038 
L 446.130337 414942.840038 
L 447.279775 414942.840038 
L 448.429213 414942.840038 
L 449.578652 414942.840038 
L 450.72809 414942.840038 
L 451.877528 414942.840038 
L 453.026966 414942.840038 
L 454.176404 414942.840038 
L 455.325843 414942.840038 
L 456.475281 414942.840038 
L 457.624719 414942.840038 
L 458.774157 414942.840038 
L 459.923596 414942.840038 
L 461.073034 414942.840038 
L 462.222472 414942.840038 
L 463.37191 414942.840038 
L 464.521348 414942.840038 
L 465.670787 414942.840038 
L 466.820225 414942.840038 
L 467.969663 414942.840038 
L 469.119101 414942.840038 
L 470.268539 414942.840038 
L 471.417978 414942.840038 
L 472.567416 414942.840038 
L 473.716854 414942.840038 
L 474.866292 414942.840038 
L 476.01573 414942.840038 
L 477.165169 414942.840038 
L 478.314607 414942.840038 
L 479.464045 414942.840038 
L 480.613483 414942.840038 
L 481.762921 414942.840038 
L 482.91236 414942.840038 
L 484.061798 414942.840038 
L 485.211236 414942.840038 
L 486.360674 414942.840038 
L 487.510112 414942.840038 
L 488.659551 414942.840038 
L 489.808989 414942.840038 
L 490.958427 414942.840038 
L 492.107865 414942.840038 
L 493.257303 414942.840038 
L 494.406742 414942.840038 
L 495.55618 414942.840038 
L 496.705618 414942.840038 
L 497.855056 414942.840038 
L 499.004494 414942.840038 
L 500.153933 414942.840038 
L 501.303371 414942.840038 
L 502.452809 414942.840038 
L 503.602247 414942.840038 
L 504.751685 414942.840038 
L 505.901124 414942.840038 
L 507.050562 414942.840038 
L 508.2 414942.840038 
L 509.349438 414942.840038 
L 510.498876 414942.840038 
L 511.648315 414942.840038 
L 512.797753 414942.840038 
L 513.947191 414942.840038 
L 515.096629 414942.840038 
L 516.246067 414942.840038 
L 517.395506 414942.840038 
L 518.544944 414942.840038 
L 519.694382 414942.840038 
L 520.84382 414942.840038 
L 521.993258 414942.840038 
L 523.142697 414942.840038 
L 524.292135 414942.840038 
L 525.441573 414942.840038 
L 526.591011 414942.840038 
L 527.740449 414942.840038 
L 528.889888 414942.840038 
L 530.039326 414942.840038 
L 531.188764 414942.840038 
L 532.338202 414942.840038 
L 533.48764 414942.840038 
L 534.637079 414942.840038 
L 535.786517 414942.840038 
L 536.935955 414942.840038 
L 538.085393 414942.840038 
L 539.234831 414942.840038 
L 540.38427 414942.840038 
L 541.533708 414942.840038 
L 542.683146 414942.840038 
L 543.832584 414942.840038 
L 544.982022 414942.840038 
L 546.131461 414942.840038 
L 547.280899 414942.840038 
L 548.430337 414942.840038 
L 549.579775 414942.840038 
L 550.729213 414942.840038 
L 551.878652 414942.840038 
L 553.02809 414942.840038 
L 554.177528 414942.840038 
L 555.326966 414942.840038 
L 556.476404 414942.840038 
L 557.625843 414942.840038 
L 558.775281 414942.840038 
L 559.924719 414942.840038 
L 561.074157 414942.840038 
L 562.223596 414942.840038 
L 563.373034 414942.840038 
L 564.522472 414942.840038 
L 565.67191 414942.840038 
L 566.821348 414942.840038 
L 567.970787 414942.840038 
L 569.120225 414942.840038 
L 570.269663 414942.840038 
L 571.419101 414942.840038 
L 572.568539 414942.840038 
L 573.717978 414942.840038 
L 574.867416 414942.840038 
L 576.016854 414942.840038 
L 577.166292 414942.840038 
L 578.31573 414942.840038 
L 579.465169 414942.840038 
L 580.614607 414942.840038 
L 581.764045 414942.840038 
L 582.913483 414942.840038 
L 584.062921 414942.840038 
L 585.21236 414942.840038 
L 586.361798 414942.840038 
L 587.511236 414942.840038 
L 588.660674 414942.840038 
L 589.810112 414942.840038 
L 590.959551 414942.840038 
L 592.108989 414942.840038 
L 593.258427 414942.840038 
L 594.407865 414942.840038 
L 595.557303 414942.840038 
L 596.706742 414942.840038 
L 597.85618 414942.840038 
L 599.005618 414942.840038 
L 600.155056 414942.840038 
L 601.304494 414942.840038 
L 602.453933 414942.840038 
L 603.603371 414942.840038 
L 604.752809 414942.840038 
L 605.902247 414942.840038 
L 607.051685 414942.840038 
L 608.201124 414942.840038 
L 609.350562 414942.840038 
L 610.5 414942.840038 
L 611.649438 414942.840038 
L 612.798876 414942.840038 
L 613.948315 414942.840038 
L 615.097753 414942.840038 
L 616.247191 414942.840038 
L 617.396629 414942.840038 
L 618.546067 414942.840038 
L 619.695506 414942.840038 
L 620.844944 414942.840038 
L 621.994382 414942.840038 
L 623.14382 414942.840038 
L 624.293258 414942.840038 
L 625.442697 414942.840038 
L 626.592135 414942.840038 
L 627.741573 414942.840038 
L 628.891011 414942.840038 
L 630.040449 414942.840038 
L 631.189888 414942.840038 
L 632.339326 414942.840038 
L 633.488764 414942.840038 
L 634.638202 414942.840038 
L 635.78764 414942.840038 
L 636.937079 414942.840038 
L 638.086517 414942.840038 
L 639.235955 414942.840038 
L 640.385393 414942.840038 
L 641.534831 414942.840038 
L 642.68427 414942.840038 
L 643.833708 414942.840038 
L 644.983146 414942.840038 
L 646.132584 414942.840038 
L 647.282022 414942.840038 
L 648.431461 414942.840038 
L 649.580899 414942.840038 
L 650.730337 414942.840038 
L 651.879775 414942.840038 
L 653.029213 414942.840038 
L 654.178652 414942.840038 
L 655.32809 414942.840038 
L 656.477528 414942.840038 
L 657.626966 414942.840038 
L 658.776404 414942.840038 
L 659.925843 414942.840038 
L 661.075281 414942.840038 
L 662.224719 414942.840038 
L 663.374157 414942.840038 
L 664.523596 414942.840038 
L 665.673034 414942.840038 
L 666.822472 414942.840038 
L 667.97191 414942.840038 
L 669.121348 414942.840038 
L 670.270787 414942.840038 
L 671.420225 414942.840038 
L 672.569663 414942.840038 
L 673.719101 414942.840038 
L 674.868539 414942.840038 
L 676.017978 414942.840038 
L 677.167416 414942.840038 
L 678.316854 414942.840038 
L 679.466292 414942.840038 
L 680.61573 414942.840038 
L 681.765169 414942.840038 
L 682.914607 414942.840038 
L 684.064045 414942.840038 
L 685.213483 414942.840038 
L 686.362921 414942.840038 
L 687.51236 414942.840038 
L 688.661798 414942.840038 
L 689.811236 414942.840038 
L 690.960674 414942.840038 
L 692.110112 414942.840038 
L 693.259551 414942.840038 
L 694.408989 414942.840038 
L 695.558427 414942.840038 
L 696.707865 414942.840038 
L 697.857303 414942.840038 
L 699.006742 414942.840038 
L 700.15618 414942.840038 
L 701.305618 414942.840038 
L 702.455056 414942.840038 
L 703.604494 414942.840038 
L 704.753933 414942.840038 
L 705.903371 414942.840038 
L 707.052809 414942.840038 
L 708.202247 414942.840038 
L 709.351685 414942.840038 
L 710.501124 414942.840038 
L 711.650562 414942.840038 
L 712.8 414942.840038 
L 712.8 414942.840038 
L 712.8 414942.840038 
L 711.650562 414942.840038 
L 710.501124 414942.840038 
L 709.351685 414942.840038 
L 708.202247 414942.840038 
L 707.052809 414942.840038 
L 705.903371 414942.840038 
L 704.753933 414942.840038 
L 703.604494 414942.840038 
L 702.455056 414942.840038 
L 701.305618 414942.840038 
L 700.15618 414942.840038 
L 699.006742 414942.840038 
L 697.857303 414942.840038 
L 696.707865 414942.840038 
L 695.558427 414942.840038 
L 694.408989 414942.840038 
L 693.259551 414942.840038 
L 692.110112 414942.840038 
L 690.960674 414942.840038 
L 689.811236 414942.840038 
L 688.661798 414942.840038 
L 687.51236 414942.840038 
L 686.362921 414942.840038 
L 685.213483 414942.840038 
L 684.064045 414942.840038 
L 682.914607 414942.840038 
L 681.765169 414942.840038 
L 680.61573 414942.840038 
L 679.466292 414942.840038 
L 678.316854 414942.840038 
L 677.167416 414942.840038 
L 676.017978 414942.840038 
L 674.868539 414942.840038 
L 673.719101 414942.840038 
L 672.569663 414942.840038 
L 671.420225 414942.840038 
L 670.270787 414942.840038 
L 669.121348 414942.840038 
L 667.97191 414942.840038 
L 666.822472 414942.840038 
L 665.673034 414942.840038 
L 664.523596 414942.840038 
L 663.374157 414942.840038 
L 662.224719 414942.840038 
L 661.075281 414942.840038 
L 659.925843 414942.840038 
L 658.776404 414942.840038 
L 657.626966 414942.840038 
L 656.477528 414942.840038 
L 655.32809 414942.840038 
L 654.178652 414942.840038 
L 653.029213 414942.840038 
L 651.879775 414942.840038 
L 650.730337 414942.840038 
L 649.580899 414942.840038 
L 648.431461 414942.840038 
L 647.282022 414942.840038 
L 646.132584 414942.840038 
L 644.983146 414942.840038 
L 643.833708 414942.840038 
L 642.68427 414942.840038 
L 641.534831 414942.840038 
L 640.385393 414942.840038 
L 639.235955 414942.840038 
L 638.086517 414942.840038 
L 636.937079 414942.840038 
L 635.78764 414942.840038 
L 634.638202 414942.840038 
L 633.488764 414942.840038 
L 632.339326 414942.840038 
L 631.189888 414942.840038 
L 630.040449 414942.840038 
L 628.891011 414942.840038 
L 627.741573 414942.840038 
L 626.592135 414942.840038 
L 625.442697 414942.840038 
L 624.293258 414942.840038 
L 623.14382 414942.840038 
L 621.994382 414942.840038 
L 620.844944 414942.840038 
L 619.695506 414942.840038 
L 618.546067 414942.840038 
L 617.396629 414942.840038 
L 616.247191 414942.840038 
L 615.097753 414942.840038 
L 613.948315 414942.840038 
L 612.798876 414942.840038 
L 611.649438 414942.840038 
L 610.5 414942.840038 
L 609.350562 414942.840038 
L 608.201124 414942.840038 
L 607.051685 414942.840038 
L 605.902247 414942.840038 
L 604.752809 414942.840038 
L 603.603371 414942.840038 
L 602.453933 414942.840038 
L 601.304494 414942.840038 
L 600.155056 414942.840038 
L 599.005618 414942.840038 
L 597.85618 414942.840038 
L 596.706742 414942.840038 
L 595.557303 414942.840038 
L 594.407865 414942.840038 
L 593.258427 414942.840038 
L 592.108989 414942.840038 
L 590.959551 414942.840038 
L 589.810112 414942.840038 
L 588.660674 414942.840038 
L 587.511236 414942.840038 
L 586.361798 414942.840038 
L 585.21236 414942.840038 
L 584.062921 414942.840038 
L 582.913483 414942.840038 
L 581.764045 414942.840038 
L 580.614607 414942.840038 
L 579.465169 414942.840038 
L 578.31573 414942.840038 
L 577.166292 414942.840038 
L 576.016854 414942.840038 
L 574.867416 414942.840038 
L 573.717978 414942.840038 
L 572.568539 414942.840038 
L 571.419101 414942.840038 
L 570.269663 414942.840038 
L 569.120225 414942.840038 
L 567.970787 414942.840038 
L 566.821348 414942.840038 
L 565.67191 414942.840038 
L 564.522472 414942.840038 
L 563.373034 414942.840038 
L 562.223596 414942.840038 
L 561.074157 414942.840038 
L 559.924719 414942.840038 
L 558.775281 414942.840038 
L 557.625843 414942.840038 
L 556.476404 414942.840038 
L 555.326966 414942.840038 
L 554.177528 414942.840038 
L 553.02809 414942.840038 
L 551.878652 414942.840038 
L 550.729213 414942.840038 
L 549.579775 414942.840038 
L 548.430337 414942.840038 
L 547.280899 414942.840038 
L 546.131461 414942.840038 
L 544.982022 414942.840038 
L 543.832584 414942.840038 
L 542.683146 414942.840038 
L 541.533708 414942.840038 
L 540.38427 414942.840038 
L 539.234831 414942.840038 
L 538.085393 414942.840038 
L 536.935955 414942.840038 
L 535.786517 414942.840038 
L 534.637079 414942.840038 
L 533.48764 414942.840038 
L 532.338202 414942.840038 
L 531.188764 414942.840038 
L 530.039326 414942.840038 
L 528.889888 414942.840038 
L 527.740449 414942.840038 
L 526.591011 414942.840038 
L 525.441573 414942.840038 
L 524.292135 414942.840038 
L 523.142697 414942.840038 
L 521.993258 414942.840038 
L 520.84382 414942.840038 
L 519.694382 414942.840038 
L 518.544944 414942.840038 
L 517.395506 414942.840038 
L 516.246067 414942.840038 
L 515.096629 414942.840038 
L 513.947191 414942.840038 
L 512.797753 414942.840038 
L 511.648315 414942.840038 
L 510.498876 414942.840038 
L 509.349438 414942.840038 
L 508.2 414942.840038 
L 507.050562 414942.840038 
L 505.901124 414942.840038 
L 504.751685 414942.840038 
L 503.602247 414942.840038 
L 502.452809 414942.840038 
L 501.303371 414942.840038 
L 500.153933 414942.840038 
L 499.004494 414942.840038 
L 497.855056 414942.840038 
L 496.705618 414942.840038 
L 495.55618 414942.840038 
L 494.406742 414942.840038 
L 493.257303 414942.840038 
L 492.107865 414942.840038 
L 490.958427 414942.840038 
L 489.808989 414942.840038 
L 488.659551 414942.840038 
L 487.510112 414942.840038 
L 486.360674 414942.840038 
L 485.211236 414942.840038 
L 484.061798 414942.840038 
L 482.91236 414942.840038 
L 481.762921 414942.840038 
L 480.613483 414942.840038 
L 479.464045 414942.840038 
L 478.314607 414942.840038 
L 477.165169 414942.840038 
L 476.01573 414942.840038 
L 474.866292 414942.840038 
L 473.716854 414942.840038 
L 472.567416 414942.840038 
L 471.417978 414942.840038 
L 470.268539 414942.840038 
L 469.119101 414942.840038 
L 467.969663 414942.840038 
L 466.820225 414942.840038 
L 465.670787 414942.840038 
L 464.521348 414942.840038 
L 463.37191 414942.840038 
L 462.222472 414942.840038 
L 461.073034 414942.840038 
L 459.923596 414942.840038 
L 458.774157 414942.840038 
L 457.624719 414942.840038 
L 456.475281 414942.840038 
L 455.325843 414942.840038 
L 454.176404 414942.840038 
L 453.026966 414942.840038 
L 451.877528 414942.840038 
L 450.72809 414942.840038 
L 449.578652 414942.840038 
L 448.429213 414942.840038 
L 447.279775 414942.840038 
L 446.130337 414942.840038 
L 444.980899 414942.840038 
L 443.831461 414942.840038 
L 442.682022 414942.840038 
L 441.532584 414942.840038 
L 440.383146 414942.840038 
L 439.233708 414942.840038 
L 438.08427 414942.840038 
L 436.934831 414942.840038 
L 435.785393 414942.840038 
L 434.635955 414942.840038 
L 433.486517 414942.840038 
L 432.337079 414942.840038 
L 431.18764 414942.840038 
L 430.038202 414942.840038 
L 428.888764 414942.840038 
L 427.739326 414942.840038 
L 426.589888 414942.840038 
L 425.440449 414942.840038 
L 424.291011 414942.840038 
L 423.141573 414942.840038 
L 421.992135 414942.840038 
L 420.842697 414942.840038 
L 419.693258 414942.840038 
L 418.54382 414942.840038 
L 417.394382 414942.840038 
L 416.244944 414942.840038 
L 415.095506 414942.840038 
L 413.946067 414942.840038 
L 412.796629 414942.840038 
L 411.647191 414942.840038 
L 410.497753 414942.840038 
L 409.348315 414942.840038 
L 408.198876 414942.840038 
L 407.049438 414942.840038 
L 405.9 414942.840038 
L 404.750562 414942.840038 
L 403.601124 414942.840038 
L 402.451685 414942.840038 
L 401.302247 414942.840038 
L 400.152809 414942.840038 
L 399.003371 414942.840038 
L 397.853933 414942.840038 
L 396.704494 414942.840038 
L 395.555056 414942.840038 
L 394.405618 414942.840038 
L 393.25618 414942.840038 
L 392.106742 414942.840038 
L 390.957303 414942.840038 
L 389.807865 414942.840038 
L 388.658427 414942.840038 
L 387.508989 414942.840038 
L 386.359551 414942.840038 
L 385.210112 414942.840038 
L 384.060674 414942.840038 
L 382.911236 414942.840038 
L 381.761798 414942.840038 
L 380.61236 414942.840038 
L 379.462921 414942.840038 
L 378.313483 414942.840038 
L 377.164045 414942.840038 
L 376.014607 414942.840038 
L 374.865169 414942.840038 
L 373.71573 414942.840038 
L 372.566292 414942.840038 
L 371.416854 414942.840038 
L 370.267416 414942.840038 
L 369.117978 414942.840038 
L 367.968539 414942.840038 
L 366.819101 414942.840038 
L 365.669663 414942.840038 
L 364.520225 414942.840038 
L 363.370787 414942.840038 
L 362.221348 414942.840038 
L 361.07191 414942.840038 
L 359.922472 414942.840038 
L 358.773034 414942.840038 
L 357.623596 414942.840038 
L 356.474157 414942.840038 
L 355.324719 414942.840038 
L 354.175281 414942.840038 
L 353.025843 414942.840038 
L 351.876404 414942.840038 
L 350.726966 414942.840038 
L 349.577528 414942.840038 
L 348.42809 414942.840038 
L 347.278652 414942.840038 
L 346.129213 414942.840038 
L 344.979775 414942.840038 
L 343.830337 414942.840038 
L 342.680899 414942.840038 
L 341.531461 414942.840038 
L 340.382022 414942.840038 
L 339.232584 414942.840038 
L 338.083146 414942.840038 
L 336.933708 414942.840038 
L 335.78427 414942.840038 
L 334.634831 414942.840038 
L 333.485393 414942.840038 
L 332.335955 414942.840038 
L 331.186517 414942.840038 
L 330.037079 414942.840038 
L 328.88764 414942.840038 
L 327.738202 414942.840038 
L 326.588764 414942.840038 
L 325.439326 414942.840038 
L 324.289888 414942.840038 
L 323.140449 414942.840038 
L 321.991011 414942.840038 
L 320.841573 414942.840038 
L 319.692135 414942.840038 
L 318.542697 414942.840038 
L 317.393258 414942.840038 
L 316.24382 414942.840038 
L 315.094382 414942.840038 
L 313.944944 414942.840038 
L 312.795506 414942.840038 
L 311.646067 414942.840038 
L 310.496629 414942.840038 
L 309.347191 414942.840038 
L 308.197753 414942.840038 
L 307.048315 414942.840038 
L 305.898876 414942.840038 
L 304.749438 414942.840038 
L 303.6 414942.840038 
L 302.450562 414942.840038 
L 301.301124 414942.840038 
L 300.151685 414942.840038 
L 299.002247 414942.840038 
L 297.852809 414942.840038 
L 296.703371 414942.840038 
L 295.553933 414942.840038 
L 294.404494 414942.840038 
L 293.255056 414942.840038 
L 292.105618 414942.840038 
L 290.95618 414942.840038 
L 289.806742 414942.840038 
L 288.657303 414942.840038 
L 287.507865 414942.840038 
L 286.358427 414942.840038 
L 285.208989 414942.840038 
L 284.059551 414942.840038 
L 282.910112 414942.840038 
L 281.760674 414942.840038 
L 280.611236 414942.840038 
L 279.461798 414942.840038 
L 278.31236 414942.840038 
L 277.162921 414942.840038 
L 276.013483 414942.840038 
L 274.864045 414942.840038 
L 273.714607 414942.840038 
L 272.565169 414942.840038 
L 271.41573 414942.840038 
L 270.266292 414942.840038 
L 269.116854 414942.840038 
L 267.967416 414942.840038 
L 266.817978 414942.840038 
L 265.668539 414942.840038 
L 264.519101 414942.840038 
L 263.369663 414942.840038 
L 262.220225 414942.840038 
L 261.070787 414942.840038 
L 259.921348 414942.840038 
L 258.77191 414942.840038 
L 257.622472 414942.840038 
L 256.473034 414942.840038 
L 255.323596 414942.840038 
L 254.174157 414942.840038 
L 253.024719 414942.840038 
L 251.875281 414942.840038 
L 250.725843 414942.840038 
L 249.576404 414942.840038 
L 248.426966 414942.840038 
L 247.277528 414942.840038 
L 246.12809 414942.840038 
L 244.978652 414942.840038 
L 243.829213 414942.840038 
L 242.679775 414942.840038 
L 241.530337 414942.840038 
L 240.380899 414942.840038 
L 239.231461 414942.840038 
L 238.082022 414942.840038 
L 236.932584 414942.840038 
L 235.783146 414942.840038 
L 234.633708 414942.840038 
L 233.48427 414942.840038 
L 232.334831 414942.840038 
L 231.185393 414942.840038 
L 230.035955 414942.840038 
L 228.886517 414942.840038 
L 227.737079 414942.840038 
L 226.58764 414942.840038 
L 225.438202 414942.840038 
L 224.288764 414942.840038 
L 223.139326 414942.840038 
L 221.989888 414942.840038 
L 220.840449 414942.840038 
L 219.691011 414942.840038 
L 218.541573 414942.840038 
L 217.392135 414942.840038 
L 216.242697 414942.840038 
L 215.093258 414942.840038 
L 213.94382 414942.840038 
L 212.794382 414942.840038 
L 211.644944 414942.840038 
L 210.495506 414942.840038 
L 209.346067 414942.840038 
L 208.196629 414942.840038 
L 207.047191 414942.840038 
L 205.897753 414942.840038 
L 204.748315 414942.840038 
L 203.598876 414942.840038 
L 202.449438 414942.840038 
L 201.3 414942.840038 
L 200.150562 414942.840038 
L 199.001124 414942.840038 
L 197.851685 414942.840038 
L 196.702247 414942.840038 
L 195.552809 414942.840038 
L 194.403371 414942.840038 
L 193.253933 414942.840038 
L 192.104494 414942.840038 
L 190.955056 414942.840038 
L 189.805618 414942.840038 
L 188.65618 414942.840038 
L 187.506742 414942.840038 
L 186.357303 414942.840038 
L 185.207865 414942.840038 
L 184.058427 414942.840038 
L 182.908989 414942.840038 
L 181.759551 414942.840038 
L 180.610112 414942.840038 
L 179.460674 414942.840038 
L 178.311236 414942.840038 
L 177.161798 414942.840038 
L 176.01236 414942.840038 
L 174.862921 414942.840038 
L 173.713483 414942.840038 
L 172.564045 414942.840038 
L 171.414607 414942.840038 
L 170.265169 414942.840038 
L 169.11573 414942.840038 
L 167.966292 414942.840038 
L 166.816854 414942.840038 
L 165.667416 414942.840038 
L 164.517978 414942.840038 
L 163.368539 414942.840038 
L 162.219101 414942.840038 
L 161.069663 414942.840038 
L 159.920225 414942.840038 
L 158.770787 414942.840038 
L 157.621348 414942.840038 
L 156.47191 414942.840038 
L 155.322472 414942.840038 
L 154.173034 414942.840038 
L 153.023596 414942.840038 
L 151.874157 414942.840038 
L 150.724719 414942.840038 
L 149.575281 414942.840038 
L 148.425843 414942.840038 
L 147.276404 414942.840038 
L 146.126966 414942.840038 
L 144.977528 414942.840038 
L 143.82809 414942.840038 
L 142.678652 414942.840038 
L 141.529213 414942.840038 
L 140.379775 414942.840038 
L 139.230337 414942.840038 
L 138.080899 414942.840038 
L 136.931461 414942.840038 
L 135.782022 414942.840038 
L 134.632584 414942.840038 
L 133.483146 414942.840038 
L 132.333708 414942.840038 
L 131.18427 414942.840038 
L 130.034831 414942.840038 
L 128.885393 414942.840038 
L 127.735955 414942.840038 
L 126.586517 414942.840038 
L 125.437079 414942.840038 
L 124.28764 414942.840038 
L 123.138202 414942.840038 
L 121.988764 414942.840038 
L 120.839326 414942.840038 
L 119.689888 414942.840038 
L 118.540449 414942.840038 
L 117.391011 414942.840038 
L 116.241573 414942.840038 
L 115.092135 414942.840038 
L 113.942697 414942.840038 
L 112.793258 414942.840038 
L 111.64382 414942.840038 
L 110.494382 414942.840038 
L 109.344944 414942.840038 
L 108.195506 414942.840038 
L 107.046067 414942.840038 
L 105.896629 414942.840038 
L 104.747191 414942.840038 
L 103.597753 414942.840038 
L 102.448315 414942.840038 
L 101.298876 414942.840038 
L 100.149438 414942.840038 
L 99 414942.840038 
z
" style="fill:#ff8080;fill-opacity:0.5;stroke:#ff8080;stroke-opacity:0.5;"/>
   </g>
   <g id="matplotlib.axis_1">
    <g id="xtick_1">
     <g id="line2d_1">
      <path clip-path="url(#p68e2955192)" d="M 99 544.68 
L 99 73.44 
" style="fill:none;stroke:#b0b0b0;stroke-linecap:square;stroke-width:0.8;"/>
     </g>
     <g id="line2d_2">
      <defs>
       <path d="M 0 0 
L 0 3.5 
" id="m4abed1d830" style="stroke:#000000;stroke-width:0.8;"/>
      </defs>
      <g>
       <use style="stroke:#000000;stroke-width:0.8;" x="99" xlink:href="#m4abed1d830" y="544.68"/>
      </g>
     </g>
    </g>
    <g id="xtick_2">
     <g id="line2d_3">
      <path clip-path="url(#p68e2955192)" d="M 103.597753 544.68 
L 103.597753 73.44 
" style="fill:none;stroke:#b0b0b0;stroke-linecap:square;stroke-width:0.8;"/>
     </g>
     <g id="line2d_4">
      <g>
       <use style="stroke:#000000;stroke-width:0.8;" x="103.597753" xlink:href="#m4abed1d830" y="544.68"/>
      </g>
     </g>
     <g id="text_1">
      <!-- Apr -->
      <g transform="translate(94.947753 559.278437)scale(0.1 -0.1)">
       <defs>
        <path d="M 2188 4044 
L 1331 1722 
L 3047 1722 
L 2188 4044 
z
M 1831 4666 
L 2547 4666 
L 4325 0 
L 3669 0 
L 3244 1197 
L 1141 1197 
L 716 0 
L 50 0 
L 1831 4666 
z
" id="DejaVuSans-41" transform="scale(0.015625)"/>
        <path d="M 1159 525 
L 1159 -1331 
L 581 -1331 
L 581 3500 
L 1159 3500 
L 1159 2969 
Q 1341 3281 1617 3432 
Q 1894 3584 2278 3584 
Q 2916 3584 3314 3078 
Q 3713 2572 3713 1747 
Q 3713 922 3314 415 
Q 2916 -91 2278 -91 
Q 1894 -91 1617 61 
Q 1341 213 1159 525 
z
M 3116 1747 
Q 3116 2381 2855 2742 
Q 2594 3103 2138 3103 
Q 1681 3103 1420 2742 
Q 1159 2381 1159 1747 
Q 1159 1113 1420 752 
Q 1681 391 2138 391 
Q 2594 391 2855 752 
Q 3116 1113 3116 1747 
z
" id="DejaVuSans-70" transform="scale(0.015625)"/>
        <path d="M 2631 2963 
Q 2534 3019 2420 3045 
Q 2306 3072 2169 3072 
Q 1681 3072 1420 2755 
Q 1159 2438 1159 1844 
L 1159 0 
L 581 0 
L 581 3500 
L 1159 3500 
L 1159 2956 
Q 1341 3275 1631 3429 
Q 1922 3584 2338 3584 
Q 2397 3584 2469 3576 
Q 2541 3569 2628 3553 
L 2631 2963 
z
" id="DejaVuSans-72" transform="scale(0.015625)"/>
       </defs>
       <use xlink:href="#DejaVuSans-41"/>
       <use x="68.408203" xlink:href="#DejaVuSans-70"/>
       <use x="131.884766" xlink:href="#DejaVuSans-72"/>
      </g>
     </g>
    </g>
    <g id="xtick_3">
     <g id="line2d_5">
      <path clip-path="url(#p68e2955192)" d="M 208.196629 544.68 
L 208.196629 73.44 
" style="fill:none;stroke:#b0b0b0;stroke-linecap:square;stroke-width:0.8;"/>
     </g>
     <g id="line2d_6">
      <g>
       <use style="stroke:#000000;stroke-width:0.8;" x="208.196629" xlink:href="#m4abed1d830" y="544.68"/>
      </g>
     </g>
     <g id="text_2">
      <!-- Jul -->
      <g transform="translate(202.163817 559.278437)scale(0.1 -0.1)">
       <defs>
        <path d="M 628 4666 
L 1259 4666 
L 1259 325 
Q 1259 -519 939 -900 
Q 619 -1281 -91 -1281 
L -331 -1281 
L -331 -750 
L -134 -750 
Q 284 -750 456 -515 
Q 628 -281 628 325 
L 628 4666 
z
" id="DejaVuSans-4a" transform="scale(0.015625)"/>
        <path d="M 544 1381 
L 544 3500 
L 1119 3500 
L 1119 1403 
Q 1119 906 1312 657 
Q 1506 409 1894 409 
Q 2359 409 2629 706 
Q 2900 1003 2900 1516 
L 2900 3500 
L 3475 3500 
L 3475 0 
L 2900 0 
L 2900 538 
Q 2691 219 2414 64 
Q 2138 -91 1772 -91 
Q 1169 -91 856 284 
Q 544 659 544 1381 
z
M 1991 3584 
L 1991 3584 
z
" id="DejaVuSans-75" transform="scale(0.015625)"/>
        <path d="M 603 4863 
L 1178 4863 
L 1178 0 
L 603 0 
L 603 4863 
z
" id="DejaVuSans-6c" transform="scale(0.015625)"/>
       </defs>
       <use xlink:href="#DejaVuSans-4a"/>
       <use x="29.492188" xlink:href="#DejaVuSans-75"/>
       <use x="92.871094" xlink:href="#DejaVuSans-6c"/>
      </g>
     </g>
    </g>
    <g id="xtick_4">
     <g id="line2d_7">
      <path clip-path="url(#p68e2955192)" d="M 313.944944 544.68 
L 313.944944 73.44 
" style="fill:none;stroke:#b0b0b0;stroke-linecap:square;stroke-width:0.8;"/>
     </g>
     <g id="line2d_8">
      <g>
       <use style="stroke:#000000;stroke-width:0.8;" x="313.944944" xlink:href="#m4abed1d830" y="544.68"/>
      </g>
     </g>
     <g id="text_3">
      <!-- Oct -->
      <g transform="translate(305.299631 559.278437)scale(0.1 -0.1)">
       <defs>
        <path d="M 2522 4238 
Q 1834 4238 1429 3725 
Q 1025 3213 1025 2328 
Q 1025 1447 1429 934 
Q 1834 422 2522 422 
Q 3209 422 3611 934 
Q 4013 1447 4013 2328 
Q 4013 3213 3611 3725 
Q 3209 4238 2522 4238 
z
M 2522 4750 
Q 3503 4750 4090 4092 
Q 4678 3434 4678 2328 
Q 4678 1225 4090 567 
Q 3503 -91 2522 -91 
Q 1538 -91 948 565 
Q 359 1222 359 2328 
Q 359 3434 948 4092 
Q 1538 4750 2522 4750 
z
" id="DejaVuSans-4f" transform="scale(0.015625)"/>
        <path d="M 3122 3366 
L 3122 2828 
Q 2878 2963 2633 3030 
Q 2388 3097 2138 3097 
Q 1578 3097 1268 2742 
Q 959 2388 959 1747 
Q 959 1106 1268 751 
Q 1578 397 2138 397 
Q 2388 397 2633 464 
Q 2878 531 3122 666 
L 3122 134 
Q 2881 22 2623 -34 
Q 2366 -91 2075 -91 
Q 1284 -91 818 406 
Q 353 903 353 1747 
Q 353 2603 823 3093 
Q 1294 3584 2113 3584 
Q 2378 3584 2631 3529 
Q 2884 3475 3122 3366 
z
" id="DejaVuSans-63" transform="scale(0.015625)"/>
        <path d="M 1172 4494 
L 1172 3500 
L 2356 3500 
L 2356 3053 
L 1172 3053 
L 1172 1153 
Q 1172 725 1289 603 
Q 1406 481 1766 481 
L 2356 481 
L 2356 0 
L 1766 0 
Q 1100 0 847 248 
Q 594 497 594 1153 
L 594 3053 
L 172 3053 
L 172 3500 
L 594 3500 
L 594 4494 
L 1172 4494 
z
" id="DejaVuSans-74" transform="scale(0.015625)"/>
       </defs>
       <use xlink:href="#DejaVuSans-4f"/>
       <use x="78.710938" xlink:href="#DejaVuSans-63"/>
       <use x="133.691406" xlink:href="#DejaVuSans-74"/>
      </g>
     </g>
    </g>
    <g id="xtick_5">
     <g id="line2d_9">
      <path clip-path="url(#p68e2955192)" d="M 419.693258 544.68 
L 419.693258 73.44 
" style="fill:none;stroke:#b0b0b0;stroke-linecap:square;stroke-width:0.8;"/>
     </g>
     <g id="line2d_10">
      <g>
       <use style="stroke:#000000;stroke-width:0.8;" x="419.693258" xlink:href="#m4abed1d830" y="544.68"/>
      </g>
     </g>
     <g id="text_4">
      <!-- Jan -->
      <g transform="translate(411.985446 559.278437)scale(0.1 -0.1)">
       <defs>
        <path d="M 2194 1759 
Q 1497 1759 1228 1600 
Q 959 1441 959 1056 
Q 959 750 1161 570 
Q 1363 391 1709 391 
Q 2188 391 2477 730 
Q 2766 1069 2766 1631 
L 2766 1759 
L 2194 1759 
z
M 3341 1997 
L 3341 0 
L 2766 0 
L 2766 531 
Q 2569 213 2275 61 
Q 1981 -91 1556 -91 
Q 1019 -91 701 211 
Q 384 513 384 1019 
Q 384 1609 779 1909 
Q 1175 2209 1959 2209 
L 2766 2209 
L 2766 2266 
Q 2766 2663 2505 2880 
Q 2244 3097 1772 3097 
Q 1472 3097 1187 3025 
Q 903 2953 641 2809 
L 641 3341 
Q 956 3463 1253 3523 
Q 1550 3584 1831 3584 
Q 2591 3584 2966 3190 
Q 3341 2797 3341 1997 
z
" id="DejaVuSans-61" transform="scale(0.015625)"/>
        <path d="M 3513 2113 
L 3513 0 
L 2938 0 
L 2938 2094 
Q 2938 2591 2744 2837 
Q 2550 3084 2163 3084 
Q 1697 3084 1428 2787 
Q 1159 2491 1159 1978 
L 1159 0 
L 581 0 
L 581 3500 
L 1159 3500 
L 1159 2956 
Q 1366 3272 1645 3428 
Q 1925 3584 2291 3584 
Q 2894 3584 3203 3211 
Q 3513 2838 3513 2113 
z
" id="DejaVuSans-6e" transform="scale(0.015625)"/>
       </defs>
       <use xlink:href="#DejaVuSans-4a"/>
       <use x="29.492188" xlink:href="#DejaVuSans-61"/>
       <use x="90.771484" xlink:href="#DejaVuSans-6e"/>
      </g>
      <!-- 2021 -->
      <g transform="translate(406.968258 570.47625)scale(0.1 -0.1)">
       <defs>
        <path d="M 1228 531 
L 3431 531 
L 3431 0 
L 469 0 
L 469 531 
Q 828 903 1448 1529 
Q 2069 2156 2228 2338 
Q 2531 2678 2651 2914 
Q 2772 3150 2772 3378 
Q 2772 3750 2511 3984 
Q 2250 4219 1831 4219 
Q 1534 4219 1204 4116 
Q 875 4013 500 3803 
L 500 4441 
Q 881 4594 1212 4672 
Q 1544 4750 1819 4750 
Q 2544 4750 2975 4387 
Q 3406 4025 3406 3419 
Q 3406 3131 3298 2873 
Q 3191 2616 2906 2266 
Q 2828 2175 2409 1742 
Q 1991 1309 1228 531 
z
" id="DejaVuSans-32" transform="scale(0.015625)"/>
        <path d="M 2034 4250 
Q 1547 4250 1301 3770 
Q 1056 3291 1056 2328 
Q 1056 1369 1301 889 
Q 1547 409 2034 409 
Q 2525 409 2770 889 
Q 3016 1369 3016 2328 
Q 3016 3291 2770 3770 
Q 2525 4250 2034 4250 
z
M 2034 4750 
Q 2819 4750 3233 4129 
Q 3647 3509 3647 2328 
Q 3647 1150 3233 529 
Q 2819 -91 2034 -91 
Q 1250 -91 836 529 
Q 422 1150 422 2328 
Q 422 3509 836 4129 
Q 1250 4750 2034 4750 
z
" id="DejaVuSans-30" transform="scale(0.015625)"/>
        <path d="M 794 531 
L 1825 531 
L 1825 4091 
L 703 3866 
L 703 4441 
L 1819 4666 
L 2450 4666 
L 2450 531 
L 3481 531 
L 3481 0 
L 794 0 
L 794 531 
z
" id="DejaVuSans-31" transform="scale(0.015625)"/>
       </defs>
       <use xlink:href="#DejaVuSans-32"/>
       <use x="63.623047" xlink:href="#DejaVuSans-30"/>
       <use x="127.246094" xlink:href="#DejaVuSans-32"/>
       <use x="190.869141" xlink:href="#DejaVuSans-31"/>
      </g>
     </g>
    </g>
    <g id="xtick_6">
     <g id="line2d_11">
      <path clip-path="url(#p68e2955192)" d="M 523.142697 544.68 
L 523.142697 73.44 
" style="fill:none;stroke:#b0b0b0;stroke-linecap:square;stroke-width:0.8;"/>
     </g>
     <g id="line2d_12">
      <g>
       <use style="stroke:#000000;stroke-width:0.8;" x="523.142697" xlink:href="#m4abed1d830" y="544.68"/>
      </g>
     </g>
     <g id="text_5">
      <!-- Apr -->
      <g transform="translate(514.492697 559.278437)scale(0.1 -0.1)">
       <use xlink:href="#DejaVuSans-41"/>
       <use x="68.408203" xlink:href="#DejaVuSans-70"/>
       <use x="131.884766" xlink:href="#DejaVuSans-72"/>
      </g>
     </g>
    </g>
    <g id="xtick_7">
     <g id="line2d_13">
      <path clip-path="url(#p68e2955192)" d="M 627.741573 544.68 
L 627.741573 73.44 
" style="fill:none;stroke:#b0b0b0;stroke-linecap:square;stroke-width:0.8;"/>
     </g>
     <g id="line2d_14">
      <g>
       <use style="stroke:#000000;stroke-width:0.8;" x="627.741573" xlink:href="#m4abed1d830" y="544.68"/>
      </g>
     </g>
     <g id="text_6">
      <!-- Jul -->
      <g transform="translate(621.708761 559.278437)scale(0.1 -0.1)">
       <use xlink:href="#DejaVuSans-4a"/>
       <use x="29.492188" xlink:href="#DejaVuSans-75"/>
       <use x="92.871094" xlink:href="#DejaVuSans-6c"/>
      </g>
     </g>
    </g>
    <g id="xtick_8">
     <g id="line2d_15">
      <path clip-path="url(#p68e2955192)" d="M 712.8 544.68 
L 712.8 73.44 
" style="fill:none;stroke:#b0b0b0;stroke-linecap:square;stroke-width:0.8;"/>
     </g>
     <g id="line2d_16">
      <g>
       <use style="stroke:#000000;stroke-width:0.8;" x="712.8" xlink:href="#m4abed1d830" y="544.68"/>
      </g>
     </g>
    </g>
    <g id="xtick_9">
     <g id="line2d_17">
      <defs>
       <path d="M 0 0 
L 0 2 
" id="mbe9820739d" style="stroke:#000000;stroke-width:0.6;"/>
      </defs>
      <g>
       <use style="stroke:#000000;stroke-width:0.6;" x="138.080899" xlink:href="#mbe9820739d" y="544.68"/>
      </g>
     </g>
    </g>
    <g id="xtick_10">
     <g id="line2d_18">
      <g>
       <use style="stroke:#000000;stroke-width:0.6;" x="173.713483" xlink:href="#mbe9820739d" y="544.68"/>
      </g>
     </g>
    </g>
    <g id="xtick_11">
     <g id="line2d_19">
      <g>
       <use style="stroke:#000000;stroke-width:0.6;" x="243.829213" xlink:href="#mbe9820739d" y="544.68"/>
      </g>
     </g>
    </g>
    <g id="xtick_12">
     <g id="line2d_20">
      <g>
       <use style="stroke:#000000;stroke-width:0.6;" x="279.461798" xlink:href="#mbe9820739d" y="544.68"/>
      </g>
     </g>
    </g>
    <g id="xtick_13">
     <g id="line2d_21">
      <g>
       <use style="stroke:#000000;stroke-width:0.6;" x="349.577528" xlink:href="#mbe9820739d" y="544.68"/>
      </g>
     </g>
    </g>
    <g id="xtick_14">
     <g id="line2d_22">
      <g>
       <use style="stroke:#000000;stroke-width:0.6;" x="384.060674" xlink:href="#mbe9820739d" y="544.68"/>
      </g>
     </g>
    </g>
    <g id="xtick_15">
     <g id="line2d_23">
      <g>
       <use style="stroke:#000000;stroke-width:0.6;" x="455.325843" xlink:href="#mbe9820739d" y="544.68"/>
      </g>
     </g>
    </g>
    <g id="xtick_16">
     <g id="line2d_24">
      <g>
       <use style="stroke:#000000;stroke-width:0.6;" x="487.510112" xlink:href="#mbe9820739d" y="544.68"/>
      </g>
     </g>
    </g>
    <g id="xtick_17">
     <g id="line2d_25">
      <g>
       <use style="stroke:#000000;stroke-width:0.6;" x="557.625843" xlink:href="#mbe9820739d" y="544.68"/>
      </g>
     </g>
    </g>
    <g id="xtick_18">
     <g id="line2d_26">
      <g>
       <use style="stroke:#000000;stroke-width:0.6;" x="593.258427" xlink:href="#mbe9820739d" y="544.68"/>
      </g>
     </g>
    </g>
    <g id="xtick_19">
     <g id="line2d_27">
      <g>
       <use style="stroke:#000000;stroke-width:0.6;" x="663.374157" xlink:href="#mbe9820739d" y="544.68"/>
      </g>
     </g>
    </g>
    <g id="xtick_20">
     <g id="line2d_28">
      <g>
       <use style="stroke:#000000;stroke-width:0.6;" x="699.006742" xlink:href="#mbe9820739d" y="544.68"/>
      </g>
     </g>
    </g>
    <g id="text_7">
     <!-- Date -->
     <g transform="translate(393.949219 584.154375)scale(0.1 -0.1)">
      <defs>
       <path d="M 1259 4147 
L 1259 519 
L 2022 519 
Q 2988 519 3436 956 
Q 3884 1394 3884 2338 
Q 3884 3275 3436 3711 
Q 2988 4147 2022 4147 
L 1259 4147 
z
M 628 4666 
L 1925 4666 
Q 3281 4666 3915 4102 
Q 4550 3538 4550 2338 
Q 4550 1131 3912 565 
Q 3275 0 1925 0 
L 628 0 
L 628 4666 
z
" id="DejaVuSans-44" transform="scale(0.015625)"/>
       <path d="M 3597 1894 
L 3597 1613 
L 953 1613 
Q 991 1019 1311 708 
Q 1631 397 2203 397 
Q 2534 397 2845 478 
Q 3156 559 3463 722 
L 3463 178 
Q 3153 47 2828 -22 
Q 2503 -91 2169 -91 
Q 1331 -91 842 396 
Q 353 884 353 1716 
Q 353 2575 817 3079 
Q 1281 3584 2069 3584 
Q 2775 3584 3186 3129 
Q 3597 2675 3597 1894 
z
M 3022 2063 
Q 3016 2534 2758 2815 
Q 2500 3097 2075 3097 
Q 1594 3097 1305 2825 
Q 1016 2553 972 2059 
L 3022 2063 
z
" id="DejaVuSans-65" transform="scale(0.015625)"/>
      </defs>
      <use xlink:href="#DejaVuSans-44"/>
      <use x="77.001953" xlink:href="#DejaVuSans-61"/>
      <use x="138.28125" xlink:href="#DejaVuSans-74"/>
      <use x="177.490234" xlink:href="#DejaVuSans-65"/>
     </g>
    </g>
   </g>
   <g id="matplotlib.axis_2">
    <g id="ytick_1">
     <g id="line2d_29">
      <path clip-path="url(#p68e2955192)" d="M 99 398.46971 
L 712.8 398.46971 
" style="fill:none;stroke:#b0b0b0;stroke-linecap:square;stroke-width:0.8;"/>
     </g>
     <g id="line2d_30">
      <defs>
       <path d="M 0 0 
L -3.5 0 
" id="me91a084207" style="stroke:#000000;stroke-width:0.8;"/>
      </defs>
      <g>
       <use style="stroke:#000000;stroke-width:0.8;" x="99" xlink:href="#me91a084207" y="398.46971"/>
      </g>
     </g>
     <g id="text_8">
      <!-- $\mathdefault{10^{0}}$ -->
      <g transform="translate(74.4 402.268929)scale(0.1 -0.1)">
       <use transform="translate(0 0.765625)" xlink:href="#DejaVuSans-31"/>
       <use transform="translate(63.623047 0.765625)" xlink:href="#DejaVuSans-30"/>
       <use transform="translate(128.203125 39.046875)scale(0.7)" xlink:href="#DejaVuSans-30"/>
      </g>
     </g>
    </g>
    <g id="ytick_2">
     <g id="line2d_31">
      <path clip-path="url(#p68e2955192)" d="M 99 523.26 
L 712.8 523.26 
" style="fill:none;stroke:#b0b0b0;stroke-linecap:square;stroke-width:0.8;"/>
     </g>
     <g id="line2d_32">
      <defs>
       <path d="M 0 0 
L -2 0 
" id="m0cb60b688e" style="stroke:#000000;stroke-width:0.6;"/>
      </defs>
      <g>
       <use style="stroke:#000000;stroke-width:0.6;" x="99" xlink:href="#m0cb60b688e" y="523.26"/>
      </g>
     </g>
    </g>
    <g id="ytick_3">
     <g id="line2d_33">
      <path clip-path="url(#p68e2955192)" d="M 99 490.43586 
L 712.8 490.43586 
" style="fill:none;stroke:#b0b0b0;stroke-linecap:square;stroke-width:0.8;"/>
     </g>
     <g id="line2d_34">
      <g>
       <use style="stroke:#000000;stroke-width:0.6;" x="99" xlink:href="#m0cb60b688e" y="490.43586"/>
      </g>
     </g>
    </g>
    <g id="ytick_4">
     <g id="line2d_35">
      <path clip-path="url(#p68e2955192)" d="M 99 462.683445 
L 712.8 462.683445 
" style="fill:none;stroke:#b0b0b0;stroke-linecap:square;stroke-width:0.8;"/>
     </g>
     <g id="line2d_36">
      <g>
       <use style="stroke:#000000;stroke-width:0.6;" x="99" xlink:href="#m0cb60b688e" y="462.683445"/>
      </g>
     </g>
    </g>
    <g id="ytick_5">
     <g id="line2d_37">
      <path clip-path="url(#p68e2955192)" d="M 99 438.64321 
L 712.8 438.64321 
" style="fill:none;stroke:#b0b0b0;stroke-linecap:square;stroke-width:0.8;"/>
     </g>
     <g id="line2d_38">
      <g>
       <use style="stroke:#000000;stroke-width:0.6;" x="99" xlink:href="#m0cb60b688e" y="438.64321"/>
      </g>
     </g>
    </g>
    <g id="ytick_6">
     <g id="line2d_39">
      <path clip-path="url(#p68e2955192)" d="M 99 417.43822 
L 712.8 417.43822 
" style="fill:none;stroke:#b0b0b0;stroke-linecap:square;stroke-width:0.8;"/>
     </g>
     <g id="line2d_40">
      <g>
       <use style="stroke:#000000;stroke-width:0.6;" x="99" xlink:href="#m0cb60b688e" y="417.43822"/>
      </g>
     </g>
    </g>
    <g id="ytick_7">
     <g id="line2d_41">
      <path clip-path="url(#p68e2955192)" d="M 99 273.67942 
L 712.8 273.67942 
" style="fill:none;stroke:#b0b0b0;stroke-linecap:square;stroke-width:0.8;"/>
     </g>
     <g id="line2d_42">
      <g>
       <use style="stroke:#000000;stroke-width:0.6;" x="99" xlink:href="#m0cb60b688e" y="273.67942"/>
      </g>
     </g>
    </g>
    <g id="ytick_8">
     <g id="line2d_43">
      <path clip-path="url(#p68e2955192)" d="M 99 200.68178 
L 712.8 200.68178 
" style="fill:none;stroke:#b0b0b0;stroke-linecap:square;stroke-width:0.8;"/>
     </g>
     <g id="line2d_44">
      <g>
       <use style="stroke:#000000;stroke-width:0.6;" x="99" xlink:href="#m0cb60b688e" y="200.68178"/>
      </g>
     </g>
    </g>
    <g id="ytick_9">
     <g id="line2d_45">
      <path clip-path="url(#p68e2955192)" d="M 99 148.88913 
L 712.8 148.88913 
" style="fill:none;stroke:#b0b0b0;stroke-linecap:square;stroke-width:0.8;"/>
     </g>
     <g id="line2d_46">
      <g>
       <use style="stroke:#000000;stroke-width:0.6;" x="99" xlink:href="#m0cb60b688e" y="148.88913"/>
      </g>
     </g>
    </g>
    <g id="ytick_10">
     <g id="line2d_47">
      <path clip-path="url(#p68e2955192)" d="M 99 108.71563 
L 712.8 108.71563 
" style="fill:none;stroke:#b0b0b0;stroke-linecap:square;stroke-width:0.8;"/>
     </g>
     <g id="line2d_48">
      <g>
       <use style="stroke:#000000;stroke-width:0.6;" x="99" xlink:href="#m0cb60b688e" y="108.71563"/>
      </g>
     </g>
    </g>
    <g id="ytick_11">
     <g id="line2d_49">
      <path clip-path="url(#p68e2955192)" d="M 99 75.89149 
L 712.8 75.89149 
" style="fill:none;stroke:#b0b0b0;stroke-linecap:square;stroke-width:0.8;"/>
     </g>
     <g id="line2d_50">
      <g>
       <use style="stroke:#000000;stroke-width:0.6;" x="99" xlink:href="#m0cb60b688e" y="75.89149"/>
      </g>
     </g>
    </g>
   </g>
   <g id="line2d_51">
    <path clip-path="url(#p68e2955192)" d="M 254.173908 613 
L 254.174157 523.26 
L 256.473034 523.26 
L 256.473283 613 
M 258.771661 613 
L 258.77191 523.26 
L 258.772159 613 
M 684.063796 613 
L 684.064045 523.26 
L 684.064294 613 
M 692.109863 613 
L 692.110112 523.26 
L 696.707865 523.26 
L 696.708114 613 
L 696.708114 613 
" style="fill:none;stroke:#1f77b4;stroke-linecap:square;stroke-width:1.5;"/>
   </g>
   <g id="line2d_52">
    <path clip-path="url(#p68e2955192)" d="M 0 0 
" style="fill:none;stroke:#ff7f0e;stroke-linecap:square;stroke-width:1.5;"/>
   </g>
   <g id="patch_3">
    <path d="M 99 544.68 
L 99 73.44 
" style="fill:none;stroke:#000000;stroke-linecap:square;stroke-linejoin:miter;stroke-width:0.8;"/>
   </g>
   <g id="patch_4">
    <path d="M 712.8 544.68 
L 712.8 73.44 
" style="fill:none;stroke:#000000;stroke-linecap:square;stroke-linejoin:miter;stroke-width:0.8;"/>
   </g>
   <g id="patch_5">
    <path d="M 99 544.68 
L 712.8 544.68 
" style="fill:none;stroke:#000000;stroke-linecap:square;stroke-linejoin:miter;stroke-width:0.8;"/>
   </g>
   <g id="patch_6">
    <path d="M 99 73.44 
L 712.8 73.44 
" style="fill:none;stroke:#000000;stroke-linecap:square;stroke-linejoin:miter;stroke-width:0.8;"/>
   </g>
   <g id="legend_1">
    <g id="patch_7">
     <path d="M 616.653125 110.79625 
L 705.8 110.79625 
Q 707.8 110.79625 707.8 108.79625 
L 707.8 80.44 
Q 707.8 78.44 705.8 78.44 
L 616.653125 78.44 
Q 614.653125 78.44 614.653125 80.44 
L 614.653125 108.79625 
Q 614.653125 110.79625 616.653125 110.79625 
z
" style="fill:#ffffff;opacity:0.8;stroke:#cccccc;stroke-linejoin:miter;"/>
    </g>
    <g id="line2d_53">
     <path d="M 618.653125 86.538437 
L 638.653125 86.538437 
" style="fill:none;stroke:#1f77b4;stroke-linecap:square;stroke-width:1.5;"/>
    </g>
    <g id="line2d_54"/>
    <g id="text_9">
     <!-- Avg Cases -->
     <g transform="translate(646.653125 90.038437)scale(0.1 -0.1)">
      <defs>
       <path d="M 191 3500 
L 800 3500 
L 1894 563 
L 2988 3500 
L 3597 3500 
L 2284 0 
L 1503 0 
L 191 3500 
z
" id="DejaVuSans-76" transform="scale(0.015625)"/>
       <path d="M 2906 1791 
Q 2906 2416 2648 2759 
Q 2391 3103 1925 3103 
Q 1463 3103 1205 2759 
Q 947 2416 947 1791 
Q 947 1169 1205 825 
Q 1463 481 1925 481 
Q 2391 481 2648 825 
Q 2906 1169 2906 1791 
z
M 3481 434 
Q 3481 -459 3084 -895 
Q 2688 -1331 1869 -1331 
Q 1566 -1331 1297 -1286 
Q 1028 -1241 775 -1147 
L 775 -588 
Q 1028 -725 1275 -790 
Q 1522 -856 1778 -856 
Q 2344 -856 2625 -561 
Q 2906 -266 2906 331 
L 2906 616 
Q 2728 306 2450 153 
Q 2172 0 1784 0 
Q 1141 0 747 490 
Q 353 981 353 1791 
Q 353 2603 747 3093 
Q 1141 3584 1784 3584 
Q 2172 3584 2450 3431 
Q 2728 3278 2906 2969 
L 2906 3500 
L 3481 3500 
L 3481 434 
z
" id="DejaVuSans-67" transform="scale(0.015625)"/>
       <path id="DejaVuSans-20" transform="scale(0.015625)"/>
       <path d="M 4122 4306 
L 4122 3641 
Q 3803 3938 3442 4084 
Q 3081 4231 2675 4231 
Q 1875 4231 1450 3742 
Q 1025 3253 1025 2328 
Q 1025 1406 1450 917 
Q 1875 428 2675 428 
Q 3081 428 3442 575 
Q 3803 722 4122 1019 
L 4122 359 
Q 3791 134 3420 21 
Q 3050 -91 2638 -91 
Q 1578 -91 968 557 
Q 359 1206 359 2328 
Q 359 3453 968 4101 
Q 1578 4750 2638 4750 
Q 3056 4750 3426 4639 
Q 3797 4528 4122 4306 
z
" id="DejaVuSans-43" transform="scale(0.015625)"/>
       <path d="M 2834 3397 
L 2834 2853 
Q 2591 2978 2328 3040 
Q 2066 3103 1784 3103 
Q 1356 3103 1142 2972 
Q 928 2841 928 2578 
Q 928 2378 1081 2264 
Q 1234 2150 1697 2047 
L 1894 2003 
Q 2506 1872 2764 1633 
Q 3022 1394 3022 966 
Q 3022 478 2636 193 
Q 2250 -91 1575 -91 
Q 1294 -91 989 -36 
Q 684 19 347 128 
L 347 722 
Q 666 556 975 473 
Q 1284 391 1588 391 
Q 1994 391 2212 530 
Q 2431 669 2431 922 
Q 2431 1156 2273 1281 
Q 2116 1406 1581 1522 
L 1381 1569 
Q 847 1681 609 1914 
Q 372 2147 372 2553 
Q 372 3047 722 3315 
Q 1072 3584 1716 3584 
Q 2034 3584 2315 3537 
Q 2597 3491 2834 3397 
z
" id="DejaVuSans-73" transform="scale(0.015625)"/>
      </defs>
      <use xlink:href="#DejaVuSans-41"/>
      <use x="62.533203" xlink:href="#DejaVuSans-76"/>
      <use x="121.712891" xlink:href="#DejaVuSans-67"/>
      <use x="185.189453" xlink:href="#DejaVuSans-20"/>
      <use x="216.976562" xlink:href="#DejaVuSans-43"/>
      <use x="286.800781" xlink:href="#DejaVuSans-61"/>
      <use x="348.080078" xlink:href="#DejaVuSans-73"/>
      <use x="400.179688" xlink:href="#DejaVuSans-65"/>
      <use x="461.703125" xlink:href="#DejaVuSans-73"/>
     </g>
    </g>
    <g id="line2d_55">
     <path d="M 618.653125 101.216562 
L 638.653125 101.216562 
" style="fill:none;stroke:#ff7f0e;stroke-linecap:square;stroke-width:1.5;"/>
    </g>
    <g id="line2d_56"/>
    <g id="text_10">
     <!-- Avg Deaths -->
     <g transform="translate(646.653125 104.716562)scale(0.1 -0.1)">
      <defs>
       <path d="M 3513 2113 
L 3513 0 
L 2938 0 
L 2938 2094 
Q 2938 2591 2744 2837 
Q 2550 3084 2163 3084 
Q 1697 3084 1428 2787 
Q 1159 2491 1159 1978 
L 1159 0 
L 581 0 
L 581 4863 
L 1159 4863 
L 1159 2956 
Q 1366 3272 1645 3428 
Q 1925 3584 2291 3584 
Q 2894 3584 3203 3211 
Q 3513 2838 3513 2113 
z
" id="DejaVuSans-68" transform="scale(0.015625)"/>
      </defs>
      <use xlink:href="#DejaVuSans-41"/>
      <use x="62.533203" xlink:href="#DejaVuSans-76"/>
      <use x="121.712891" xlink:href="#DejaVuSans-67"/>
      <use x="185.189453" xlink:href="#DejaVuSans-20"/>
      <use x="216.976562" xlink:href="#DejaVuSans-44"/>
      <use x="293.978516" xlink:href="#DejaVuSans-65"/>
      <use x="355.501953" xlink:href="#DejaVuSans-61"/>
      <use x="416.78125" xlink:href="#DejaVuSans-74"/>
      <use x="455.990234" xlink:href="#DejaVuSans-68"/>
      <use x="519.369141" xlink:href="#DejaVuSans-73"/>
     </g>
    </g>
   </g>
  </g>
 </g>
 <defs>
  <clipPath id="p68e2955192">
   <rect height="471.24" width="613.8" x="99" y="73.44"/>
  </clipPath>
 </defs>
</svg>
