<?xml version="1.0" encoding="utf-8" standalone="no"?>
<!DOCTYPE svg PUBLIC "-//W3C//DTD SVG 1.1//EN"
  "http://www.w3.org/Graphics/SVG/1.1/DTD/svg11.dtd">
<svg height="612pt" version="1.1" viewBox="0 0 792 612" width="792pt" xmlns="http://www.w3.org/2000/svg" xmlns:xlink="http://www.w3.org/1999/xlink">
 <metadata>
  <rdf:RDF xmlns:cc="http://creativecommons.org/ns#" xmlns:dc="http://purl.org/dc/elements/1.1/" xmlns:rdf="http://www.w3.org/1999/02/22-rdf-syntax-ns#">
   <cc:Work>
    <dc:type rdf:resource="http://purl.org/dc/dcmitype/StillImage"/>
    <dc:format>image/svg+xml</dc:format>
    <dc:creator>
     <cc:Agent>
      <dc:title>Matplotlib v3.4.2, https://matplotlib.org/</dc:title>
     </cc:Agent>
    </dc:creator>
   </cc:Work>
  </rdf:RDF>
 </metadata>
 <defs>
  <style type="text/css">*{stroke-linecap:butt;stroke-linejoin:round;}</style>
 </defs>
 <g id="figure_1">
  <g id="patch_1">
   <path d="M 0 612 
L 792 612 
L 792 0 
L 0 0 
z
" style="fill:#ffffff;"/>
  </g>
  <g id="axes_1">
   <g id="patch_2">
    <path d="M 99 544.68 
L 712.8 544.68 
L 712.8 73.44 
L 99 73.44 
z
" style="fill:#ffffff;"/>
   </g>
   <g id="PolyCollection_1">
    <path clip-path="url(#p68e2955192)" d="M 99 414942.840038 
L 99 414942.840038 
L 100.14729 414942.840038 
L 101.294579 414942.840038 
L 102.441869 414942.840038 
L 103.589159 414942.840038 
L 104.736449 414942.840038 
L 105.883738 414942.840038 
L 107.031028 414942.840038 
L 108.178318 414942.840038 
L 109.325607 414942.840038 
L 110.472897 414942.840038 
L 111.620187 414942.840038 
L 112.767477 414942.840038 
L 113.914766 219.65029 
L 115.062056 219.65029 
L 116.209346 219.65029 
L 117.356636 219.65029 
L 118.503925 219.65029 
L 119.651215 273.67942 
L 120.798505 337.893155 
L 121.945794 302.938407 
L 123.093084 302.938407 
L 124.240374 302.938407 
L 125.387664 302.938407 
L 126.534953 302.938407 
L 127.682243 462.683445 
L 128.829533 462.683445 
L 129.976822 462.683445 
L 131.124112 462.683445 
L 132.271402 462.683445 
L 133.418692 462.683445 
L 134.565981 414942.840038 
L 135.713271 414942.840038 
L 136.860561 414942.840038 
L 138.00785 414942.840038 
L 139.15514 414942.840038 
L 140.30243 414942.840038 
L 141.44972 414942.840038 
L 142.597009 414942.840038 
L 143.744299 414942.840038 
L 144.891589 414942.840038 
L 146.038879 414942.840038 
L 147.186168 462.683445 
L 148.333458 462.683445 
L 149.480748 398.46971 
L 150.628037 398.46971 
L 151.775327 398.46971 
L 152.922617 398.46971 
L 154.069907 398.46971 
L 155.217196 302.938407 
L 156.364486 302.938407 
L 157.511776 302.938407 
L 158.659065 302.938407 
L 159.806355 302.938407 
L 160.953645 302.938407 
L 162.100935 302.938407 
L 163.248224 302.938407 
L 164.395514 302.938407 
L 165.542804 462.683445 
L 166.690093 462.683445 
L 167.837383 462.683445 
L 168.984673 462.683445 
L 170.131963 462.683445 
L 171.279252 414942.840038 
L 172.426542 414942.840038 
L 173.573832 414942.840038 
L 174.721121 462.683445 
L 175.868411 398.46971 
L 177.015701 398.46971 
L 178.162991 398.46971 
L 179.31028 398.46971 
L 180.45757 398.46971 
L 181.60486 398.46971 
L 182.75215 302.938407 
L 183.899439 302.938407 
L 185.046729 302.938407 
L 186.194019 302.938407 
L 187.341308 302.938407 
L 188.488598 302.938407 
L 189.635888 302.938407 
L 190.783178 302.938407 
L 191.930467 302.938407 
L 193.077757 398.46971 
L 194.225047 398.46971 
L 195.372336 398.46971 
L 196.519626 462.683445 
L 197.666916 414942.840038 
L 198.814206 414942.840038 
L 199.961495 414942.840038 
L 201.108785 414942.840038 
L 202.256075 414942.840038 
L 203.403364 414942.840038 
L 204.550654 414942.840038 
L 205.697944 414942.840038 
L 206.845234 414942.840038 
L 207.992523 414942.840038 
L 209.139813 414942.840038 
L 210.287103 414942.840038 
L 211.434393 414942.840038 
L 212.581682 414942.840038 
L 213.728972 414942.840038 
L 214.876262 414942.840038 
L 216.023551 414942.840038 
L 217.170841 414942.840038 
L 218.318131 414942.840038 
L 219.465421 462.683445 
L 220.61271 462.683445 
L 221.76 462.683445 
L 222.90729 302.938407 
L 224.054579 302.938407 
L 225.201869 302.938407 
L 226.349159 302.938407 
L 227.496449 302.938407 
L 228.643738 302.938407 
L 229.791028 302.938407 
L 230.938318 302.938407 
L 232.085607 302.938407 
L 233.232897 302.938407 
L 234.380187 302.938407 
L 235.527477 302.938407 
L 236.674766 302.938407 
L 237.822056 302.938407 
L 238.969346 398.46971 
L 240.116636 398.46971 
L 241.263925 302.938407 
L 242.411215 302.938407 
L 243.558505 273.67942 
L 244.705794 273.67942 
L 245.853084 273.67942 
L 247.000374 273.67942 
L 248.147664 273.67942 
L 249.294953 273.67942 
L 250.442243 273.67942 
L 251.589533 302.938407 
L 252.736822 302.938407 
L 253.884112 302.938407 
L 255.031402 302.938407 
L 256.178692 302.938407 
L 257.325981 398.46971 
L 258.473271 398.46971 
L 259.620561 398.46971 
L 260.76785 398.46971 
L 261.91514 398.46971 
L 263.06243 398.46971 
L 264.20972 398.46971 
L 265.357009 398.46971 
L 266.504299 398.46971 
L 267.651589 398.46971 
L 268.798879 398.46971 
L 269.946168 398.46971 
L 271.093458 398.46971 
L 272.240748 398.46971 
L 273.388037 398.46971 
L 274.535327 462.683445 
L 275.682617 302.938407 
L 276.829907 302.938407 
L 277.977196 462.683445 
L 279.124486 462.683445 
L 280.271776 462.683445 
L 281.419065 462.683445 
L 282.566355 462.683445 
L 283.713645 398.46971 
L 284.860935 398.46971 
L 286.008224 398.46971 
L 287.155514 398.46971 
L 288.302804 398.46971 
L 289.450093 398.46971 
L 290.597383 398.46971 
L 291.744673 398.46971 
L 292.891963 398.46971 
L 294.039252 398.46971 
L 295.186542 398.46971 
L 296.333832 398.46971 
L 297.481121 398.46971 
L 298.628411 398.46971 
L 299.775701 398.46971 
L 300.922991 398.46971 
L 302.07028 398.46971 
L 303.21757 398.46971 
L 304.36486 398.46971 
L 305.51215 398.46971 
L 306.659439 398.46971 
L 307.806729 398.46971 
L 308.954019 398.46971 
L 310.101308 398.46971 
L 311.248598 398.46971 
L 312.395888 398.46971 
L 313.543178 398.46971 
L 314.690467 398.46971 
L 315.837757 462.683445 
L 316.985047 398.46971 
L 318.132336 302.938407 
L 319.279626 302.938407 
L 320.426916 302.938407 
L 321.574206 302.938407 
L 322.721495 302.938407 
L 323.868785 273.67942 
L 325.016075 273.67942 
L 326.163364 273.67942 
L 327.310654 273.67942 
L 328.457944 273.67942 
L 329.605234 219.65029 
L 330.752523 219.65029 
L 331.899813 200.68178 
L 333.047103 219.65029 
L 334.194393 219.65029 
L 335.341682 219.65029 
L 336.488972 219.65029 
L 337.636262 219.65029 
L 338.783551 219.65029 
L 339.930841 219.65029 
L 341.078131 219.65029 
L 342.225421 162.924884 
L 343.37271 162.924884 
L 344.52 162.924884 
L 345.66729 178.148117 
L 346.814579 178.148117 
L 347.961869 337.893155 
L 349.109159 178.148117 
L 350.256449 178.148117 
L 351.403738 213.102865 
L 352.551028 213.102865 
L 353.698318 213.102865 
L 354.845607 178.148117 
L 355.992897 178.148117 
L 357.140187 178.148117 
L 358.287477 273.67942 
L 359.434766 273.67942 
L 360.582056 273.67942 
L 361.729346 273.67942 
L 362.876636 273.67942 
L 364.023925 273.67942 
L 365.171215 337.893155 
L 366.318505 273.67942 
L 367.465794 273.67942 
L 368.613084 273.67942 
L 369.760374 273.67942 
L 370.907664 302.938407 
L 372.054953 302.938407 
L 373.202243 302.938407 
L 374.349533 398.46971 
L 375.496822 398.46971 
L 376.644112 398.46971 
L 377.791402 398.46971 
L 378.938692 398.46971 
L 380.085981 398.46971 
L 381.233271 398.46971 
L 382.380561 398.46971 
L 383.52785 462.683445 
L 384.67514 462.683445 
L 385.82243 462.683445 
L 386.96972 462.683445 
L 388.117009 462.683445 
L 389.264299 414942.840038 
L 390.411589 337.893155 
L 391.558879 273.67942 
L 392.706168 273.67942 
L 393.853458 273.67942 
L 395.000748 273.67942 
L 396.148037 273.67942 
L 397.295327 273.67942 
L 398.442617 273.67942 
L 399.589907 273.67942 
L 400.737196 273.67942 
L 401.884486 273.67942 
L 403.031776 273.67942 
L 404.179065 273.67942 
L 405.326355 273.67942 
L 406.473645 273.67942 
L 407.620935 302.938407 
L 408.768224 302.938407 
L 409.915514 302.938407 
L 411.062804 302.938407 
L 412.210093 273.67942 
L 413.357383 273.67942 
L 414.504673 273.67942 
L 415.651963 273.67942 
L 416.799252 273.67942 
L 417.946542 273.67942 
L 419.093832 302.938407 
L 420.241121 302.938407 
L 421.388411 302.938407 
L 422.535701 337.893155 
L 423.682991 337.893155 
L 424.83028 337.893155 
L 425.97757 302.938407 
L 427.12486 302.938407 
L 428.27215 462.683445 
L 429.419439 462.683445 
L 430.566729 462.683445 
L 431.714019 302.938407 
L 432.861308 302.938407 
L 434.008598 302.938407 
L 435.155888 302.938407 
L 436.303178 302.938407 
L 437.450467 302.938407 
L 438.597757 302.938407 
L 439.745047 302.938407 
L 440.892336 398.46971 
L 442.039626 462.683445 
L 443.186916 462.683445 
L 444.334206 462.683445 
L 445.481495 462.683445 
L 446.628785 462.683445 
L 447.776075 462.683445 
L 448.923364 462.683445 
L 450.070654 462.683445 
L 451.217944 462.683445 
L 452.365234 462.683445 
L 453.512523 462.683445 
L 454.659813 462.683445 
L 455.807103 337.893155 
L 456.954393 337.893155 
L 458.101682 337.893155 
L 459.248972 337.893155 
L 460.396262 337.893155 
L 461.543551 337.893155 
L 462.690841 337.893155 
L 463.838131 414942.840038 
L 464.985421 414942.840038 
L 466.13271 414942.840038 
L 467.28 462.683445 
L 468.42729 462.683445 
L 469.574579 462.683445 
L 470.721869 462.683445 
L 471.869159 414942.840038 
L 473.016449 462.683445 
L 474.163738 462.683445 
L 475.311028 462.683445 
L 476.458318 462.683445 
L 477.605607 398.46971 
L 478.752897 398.46971 
L 479.900187 398.46971 
L 481.047477 398.46971 
L 482.194766 398.46971 
L 483.342056 462.683445 
L 484.489346 462.683445 
L 485.636636 462.683445 
L 486.783925 462.683445 
L 487.931215 462.683445 
L 489.078505 462.683445 
L 490.225794 462.683445 
L 491.373084 462.683445 
L 492.520374 462.683445 
L 493.667664 414942.840038 
L 494.814953 462.683445 
L 495.962243 462.683445 
L 497.109533 462.683445 
L 498.256822 462.683445 
L 499.404112 462.683445 
L 500.551402 398.46971 
L 501.698692 302.938407 
L 502.845981 302.938407 
L 503.993271 302.938407 
L 505.140561 219.65029 
L 506.28785 219.65029 
L 507.43514 219.65029 
L 508.58243 219.65029 
L 509.72972 219.65029 
L 510.877009 240.85528 
L 512.024299 240.85528 
L 513.171589 240.85528 
L 514.318879 240.85528 
L 515.466168 240.85528 
L 516.613458 240.85528 
L 517.760748 398.46971 
L 518.908037 398.46971 
L 520.055327 398.46971 
L 521.202617 462.683445 
L 522.349907 462.683445 
L 523.497196 462.683445 
L 524.644486 462.683445 
L 525.791776 462.683445 
L 526.939065 462.683445 
L 528.086355 414942.840038 
L 529.233645 462.683445 
L 530.380935 414942.840038 
L 531.528224 414942.840038 
L 532.675514 414942.840038 
L 533.822804 414942.840038 
L 534.970093 414942.840038 
L 536.117383 414942.840038 
L 537.264673 414942.840038 
L 538.411963 462.683445 
L 539.559252 398.46971 
L 540.706542 398.46971 
L 541.853832 398.46971 
L 543.001121 398.46971 
L 544.148411 398.46971 
L 545.295701 462.683445 
L 546.442991 462.683445 
L 547.59028 462.683445 
L 548.73757 398.46971 
L 549.88486 398.46971 
L 551.03215 398.46971 
L 552.179439 398.46971 
L 553.326729 398.46971 
L 554.474019 462.683445 
L 555.621308 414942.840038 
L 556.768598 337.893155 
L 557.915888 337.893155 
L 559.063178 337.893155 
L 560.210467 337.893155 
L 561.357757 337.893155 
L 562.505047 337.893155 
L 563.652336 302.938407 
L 564.799626 462.683445 
L 565.946916 462.683445 
L 567.094206 398.46971 
L 568.241495 398.46971 
L 569.388785 398.46971 
L 570.536075 398.46971 
L 571.683364 398.46971 
L 572.830654 398.46971 
L 573.977944 398.46971 
L 575.125234 398.46971 
L 576.272523 302.938407 
L 577.419813 302.938407 
L 578.567103 273.67942 
L 579.714393 273.67942 
L 580.861682 273.67942 
L 582.008972 273.67942 
L 583.156262 273.67942 
L 584.303551 273.67942 
L 585.450841 273.67942 
L 586.598131 273.67942 
L 587.745421 273.67942 
L 588.89271 273.67942 
L 590.04 273.67942 
L 591.18729 273.67942 
L 592.334579 273.67942 
L 593.481869 273.67942 
L 594.629159 337.893155 
L 595.776449 337.893155 
L 596.923738 414942.840038 
L 598.071028 414942.840038 
L 599.218318 414942.840038 
L 600.365607 414942.840038 
L 601.512897 414942.840038 
L 602.660187 414942.840038 
L 603.807477 414942.840038 
L 604.954766 414942.840038 
L 606.102056 414942.840038 
L 607.249346 414942.840038 
L 608.396636 414942.840038 
L 609.543925 414942.840038 
L 610.691215 414942.840038 
L 611.838505 414942.840038 
L 612.985794 414942.840038 
L 614.133084 414942.840038 
L 615.280374 414942.840038 
L 616.427664 414942.840038 
L 617.574953 414942.840038 
L 618.722243 414942.840038 
L 619.869533 414942.840038 
L 621.016822 414942.840038 
L 622.164112 414942.840038 
L 623.311402 414942.840038 
L 624.458692 414942.840038 
L 625.605981 414942.840038 
L 626.753271 414942.840038 
L 627.900561 414942.840038 
L 629.04785 414942.840038 
L 630.19514 414942.840038 
L 631.34243 414942.840038 
L 632.48972 414942.840038 
L 633.637009 462.683445 
L 634.784299 462.683445 
L 635.931589 462.683445 
L 637.078879 462.683445 
L 638.226168 462.683445 
L 639.373458 462.683445 
L 640.520748 398.46971 
L 641.668037 398.46971 
L 642.815327 398.46971 
L 643.962617 398.46971 
L 645.109907 398.46971 
L 646.257196 398.46971 
L 647.404486 398.46971 
L 648.551776 398.46971 
L 649.699065 462.683445 
L 650.846355 462.683445 
L 651.993645 462.683445 
L 653.140935 462.683445 
L 654.288224 302.938407 
L 655.435514 302.938407 
L 656.582804 462.683445 
L 657.730093 462.683445 
L 658.877383 462.683445 
L 660.024673 462.683445 
L 661.171963 302.938407 
L 662.319252 302.938407 
L 663.466542 273.67942 
L 664.613832 273.67942 
L 665.761121 273.67942 
L 666.908411 273.67942 
L 668.055701 116.06499 
L 669.202991 116.06499 
L 670.35028 116.06499 
L 671.49757 94.86 
L 672.64486 94.86 
L 673.79215 94.86 
L 674.939439 94.86 
L 676.086729 94.86 
L 677.234019 162.924884 
L 678.381308 162.924884 
L 679.528598 119.855327 
L 680.675888 119.855327 
L 681.823178 119.855327 
L 682.970467 119.855327 
L 684.117757 148.88913 
L 685.265047 148.88913 
L 686.412336 148.88913 
L 687.559626 162.924884 
L 688.706916 162.924884 
L 689.854206 148.88913 
L 691.001495 148.88913 
L 692.148785 148.88913 
L 693.296075 148.88913 
L 694.443364 148.88913 
L 695.590654 148.88913 
L 696.737944 148.88913 
L 697.885234 148.88913 
L 699.032523 178.148117 
L 700.179813 178.148117 
L 701.327103 178.148117 
L 702.474393 178.148117 
L 703.621682 119.855327 
L 704.768972 119.855327 
L 705.916262 144.443612 
L 707.063551 144.443612 
L 708.210841 144.443612 
L 709.358131 144.443612 
L 710.505421 144.443612 
L 711.65271 273.67942 
L 712.8 178.148117 
L 712.8 414942.840038 
L 712.8 414942.840038 
L 711.65271 414942.840038 
L 710.505421 414942.840038 
L 709.358131 414942.840038 
L 708.210841 414942.840038 
L 707.063551 414942.840038 
L 705.916262 414942.840038 
L 704.768972 414942.840038 
L 703.621682 414942.840038 
L 702.474393 414942.840038 
L 701.327103 414942.840038 
L 700.179813 414942.840038 
L 699.032523 414942.840038 
L 697.885234 414942.840038 
L 696.737944 414942.840038 
L 695.590654 414942.840038 
L 694.443364 414942.840038 
L 693.296075 414942.840038 
L 692.148785 414942.840038 
L 691.001495 414942.840038 
L 689.854206 414942.840038 
L 688.706916 414942.840038 
L 687.559626 414942.840038 
L 686.412336 414942.840038 
L 685.265047 414942.840038 
L 684.117757 414942.840038 
L 682.970467 414942.840038 
L 681.823178 414942.840038 
L 680.675888 414942.840038 
L 679.528598 414942.840038 
L 678.381308 414942.840038 
L 677.234019 414942.840038 
L 676.086729 414942.840038 
L 674.939439 414942.840038 
L 673.79215 414942.840038 
L 672.64486 414942.840038 
L 671.49757 414942.840038 
L 670.35028 414942.840038 
L 669.202991 414942.840038 
L 668.055701 414942.840038 
L 666.908411 414942.840038 
L 665.761121 414942.840038 
L 664.613832 414942.840038 
L 663.466542 414942.840038 
L 662.319252 414942.840038 
L 661.171963 414942.840038 
L 660.024673 414942.840038 
L 658.877383 414942.840038 
L 657.730093 414942.840038 
L 656.582804 414942.840038 
L 655.435514 414942.840038 
L 654.288224 414942.840038 
L 653.140935 414942.840038 
L 651.993645 414942.840038 
L 650.846355 414942.840038 
L 649.699065 414942.840038 
L 648.551776 414942.840038 
L 647.404486 414942.840038 
L 646.257196 414942.840038 
L 645.109907 414942.840038 
L 643.962617 414942.840038 
L 642.815327 414942.840038 
L 641.668037 414942.840038 
L 640.520748 414942.840038 
L 639.373458 414942.840038 
L 638.226168 414942.840038 
L 637.078879 414942.840038 
L 635.931589 414942.840038 
L 634.784299 414942.840038 
L 633.637009 414942.840038 
L 632.48972 414942.840038 
L 631.34243 414942.840038 
L 630.19514 414942.840038 
L 629.04785 414942.840038 
L 627.900561 414942.840038 
L 626.753271 414942.840038 
L 625.605981 414942.840038 
L 624.458692 414942.840038 
L 623.311402 414942.840038 
L 622.164112 414942.840038 
L 621.016822 414942.840038 
L 619.869533 414942.840038 
L 618.722243 414942.840038 
L 617.574953 414942.840038 
L 616.427664 414942.840038 
L 615.280374 414942.840038 
L 614.133084 414942.840038 
L 612.985794 414942.840038 
L 611.838505 414942.840038 
L 610.691215 414942.840038 
L 609.543925 414942.840038 
L 608.396636 414942.840038 
L 607.249346 414942.840038 
L 606.102056 414942.840038 
L 604.954766 414942.840038 
L 603.807477 414942.840038 
L 602.660187 414942.840038 
L 601.512897 414942.840038 
L 600.365607 414942.840038 
L 599.218318 414942.840038 
L 598.071028 414942.840038 
L 596.923738 414942.840038 
L 595.776449 414942.840038 
L 594.629159 414942.840038 
L 593.481869 414942.840038 
L 592.334579 414942.840038 
L 591.18729 414942.840038 
L 590.04 414942.840038 
L 588.89271 414942.840038 
L 587.745421 414942.840038 
L 586.598131 414942.840038 
L 585.450841 414942.840038 
L 584.303551 414942.840038 
L 583.156262 414942.840038 
L 582.008972 414942.840038 
L 580.861682 414942.840038 
L 579.714393 414942.840038 
L 578.567103 414942.840038 
L 577.419813 414942.840038 
L 576.272523 414942.840038 
L 575.125234 414942.840038 
L 573.977944 414942.840038 
L 572.830654 414942.840038 
L 571.683364 414942.840038 
L 570.536075 414942.840038 
L 569.388785 414942.840038 
L 568.241495 414942.840038 
L 567.094206 414942.840038 
L 565.946916 414942.840038 
L 564.799626 414942.840038 
L 563.652336 414942.840038 
L 562.505047 414942.840038 
L 561.357757 414942.840038 
L 560.210467 414942.840038 
L 559.063178 414942.840038 
L 557.915888 414942.840038 
L 556.768598 414942.840038 
L 555.621308 414942.840038 
L 554.474019 414942.840038 
L 553.326729 414942.840038 
L 552.179439 414942.840038 
L 551.03215 414942.840038 
L 549.88486 414942.840038 
L 548.73757 414942.840038 
L 547.59028 414942.840038 
L 546.442991 414942.840038 
L 545.295701 414942.840038 
L 544.148411 414942.840038 
L 543.001121 414942.840038 
L 541.853832 414942.840038 
L 540.706542 414942.840038 
L 539.559252 414942.840038 
L 538.411963 414942.840038 
L 537.264673 414942.840038 
L 536.117383 414942.840038 
L 534.970093 414942.840038 
L 533.822804 414942.840038 
L 532.675514 414942.840038 
L 531.528224 414942.840038 
L 530.380935 414942.840038 
L 529.233645 414942.840038 
L 528.086355 414942.840038 
L 526.939065 414942.840038 
L 525.791776 414942.840038 
L 524.644486 414942.840038 
L 523.497196 414942.840038 
L 522.349907 414942.840038 
L 521.202617 414942.840038 
L 520.055327 414942.840038 
L 518.908037 414942.840038 
L 517.760748 414942.840038 
L 516.613458 414942.840038 
L 515.466168 414942.840038 
L 514.318879 414942.840038 
L 513.171589 414942.840038 
L 512.024299 414942.840038 
L 510.877009 414942.840038 
L 509.72972 414942.840038 
L 508.58243 414942.840038 
L 507.43514 414942.840038 
L 506.28785 414942.840038 
L 505.140561 414942.840038 
L 503.993271 414942.840038 
L 502.845981 414942.840038 
L 501.698692 414942.840038 
L 500.551402 414942.840038 
L 499.404112 414942.840038 
L 498.256822 414942.840038 
L 497.109533 414942.840038 
L 495.962243 414942.840038 
L 494.814953 414942.840038 
L 493.667664 414942.840038 
L 492.520374 414942.840038 
L 491.373084 414942.840038 
L 490.225794 414942.840038 
L 489.078505 414942.840038 
L 487.931215 414942.840038 
L 486.783925 414942.840038 
L 485.636636 414942.840038 
L 484.489346 414942.840038 
L 483.342056 414942.840038 
L 482.194766 414942.840038 
L 481.047477 414942.840038 
L 479.900187 414942.840038 
L 478.752897 414942.840038 
L 477.605607 414942.840038 
L 476.458318 414942.840038 
L 475.311028 414942.840038 
L 474.163738 414942.840038 
L 473.016449 414942.840038 
L 471.869159 414942.840038 
L 470.721869 414942.840038 
L 469.574579 414942.840038 
L 468.42729 414942.840038 
L 467.28 414942.840038 
L 466.13271 414942.840038 
L 464.985421 414942.840038 
L 463.838131 414942.840038 
L 462.690841 414942.840038 
L 461.543551 414942.840038 
L 460.396262 414942.840038 
L 459.248972 414942.840038 
L 458.101682 414942.840038 
L 456.954393 414942.840038 
L 455.807103 414942.840038 
L 454.659813 414942.840038 
L 453.512523 414942.840038 
L 452.365234 414942.840038 
L 451.217944 414942.840038 
L 450.070654 414942.840038 
L 448.923364 414942.840038 
L 447.776075 414942.840038 
L 446.628785 414942.840038 
L 445.481495 414942.840038 
L 444.334206 414942.840038 
L 443.186916 414942.840038 
L 442.039626 414942.840038 
L 440.892336 414942.840038 
L 439.745047 414942.840038 
L 438.597757 414942.840038 
L 437.450467 414942.840038 
L 436.303178 414942.840038 
L 435.155888 414942.840038 
L 434.008598 414942.840038 
L 432.861308 414942.840038 
L 431.714019 414942.840038 
L 430.566729 414942.840038 
L 429.419439 414942.840038 
L 428.27215 414942.840038 
L 427.12486 414942.840038 
L 425.97757 414942.840038 
L 424.83028 414942.840038 
L 423.682991 414942.840038 
L 422.535701 414942.840038 
L 421.388411 414942.840038 
L 420.241121 414942.840038 
L 419.093832 414942.840038 
L 417.946542 414942.840038 
L 416.799252 414942.840038 
L 415.651963 414942.840038 
L 414.504673 414942.840038 
L 413.357383 414942.840038 
L 412.210093 414942.840038 
L 411.062804 414942.840038 
L 409.915514 414942.840038 
L 408.768224 414942.840038 
L 407.620935 414942.840038 
L 406.473645 414942.840038 
L 405.326355 414942.840038 
L 404.179065 414942.840038 
L 403.031776 414942.840038 
L 401.884486 414942.840038 
L 400.737196 414942.840038 
L 399.589907 414942.840038 
L 398.442617 414942.840038 
L 397.295327 414942.840038 
L 396.148037 414942.840038 
L 395.000748 414942.840038 
L 393.853458 414942.840038 
L 392.706168 414942.840038 
L 391.558879 414942.840038 
L 390.411589 414942.840038 
L 389.264299 414942.840038 
L 388.117009 414942.840038 
L 386.96972 414942.840038 
L 385.82243 414942.840038 
L 384.67514 414942.840038 
L 383.52785 414942.840038 
L 382.380561 414942.840038 
L 381.233271 414942.840038 
L 380.085981 414942.840038 
L 378.938692 414942.840038 
L 377.791402 414942.840038 
L 376.644112 414942.840038 
L 375.496822 414942.840038 
L 374.349533 414942.840038 
L 373.202243 414942.840038 
L 372.054953 414942.840038 
L 370.907664 414942.840038 
L 369.760374 414942.840038 
L 368.613084 414942.840038 
L 367.465794 414942.840038 
L 366.318505 414942.840038 
L 365.171215 414942.840038 
L 364.023925 414942.840038 
L 362.876636 414942.840038 
L 361.729346 414942.840038 
L 360.582056 414942.840038 
L 359.434766 414942.840038 
L 358.287477 414942.840038 
L 357.140187 414942.840038 
L 355.992897 414942.840038 
L 354.845607 414942.840038 
L 353.698318 414942.840038 
L 352.551028 414942.840038 
L 351.403738 414942.840038 
L 350.256449 414942.840038 
L 349.109159 414942.840038 
L 347.961869 414942.840038 
L 346.814579 414942.840038 
L 345.66729 414942.840038 
L 344.52 414942.840038 
L 343.37271 414942.840038 
L 342.225421 414942.840038 
L 341.078131 414942.840038 
L 339.930841 414942.840038 
L 338.783551 414942.840038 
L 337.636262 414942.840038 
L 336.488972 414942.840038 
L 335.341682 414942.840038 
L 334.194393 414942.840038 
L 333.047103 414942.840038 
L 331.899813 414942.840038 
L 330.752523 414942.840038 
L 329.605234 414942.840038 
L 328.457944 414942.840038 
L 327.310654 414942.840038 
L 326.163364 414942.840038 
L 325.016075 414942.840038 
L 323.868785 414942.840038 
L 322.721495 414942.840038 
L 321.574206 414942.840038 
L 320.426916 414942.840038 
L 319.279626 414942.840038 
L 318.132336 414942.840038 
L 316.985047 414942.840038 
L 315.837757 414942.840038 
L 314.690467 414942.840038 
L 313.543178 414942.840038 
L 312.395888 414942.840038 
L 311.248598 414942.840038 
L 310.101308 414942.840038 
L 308.954019 414942.840038 
L 307.806729 414942.840038 
L 306.659439 414942.840038 
L 305.51215 414942.840038 
L 304.36486 414942.840038 
L 303.21757 414942.840038 
L 302.07028 414942.840038 
L 300.922991 414942.840038 
L 299.775701 414942.840038 
L 298.628411 414942.840038 
L 297.481121 414942.840038 
L 296.333832 414942.840038 
L 295.186542 414942.840038 
L 294.039252 414942.840038 
L 292.891963 414942.840038 
L 291.744673 414942.840038 
L 290.597383 414942.840038 
L 289.450093 414942.840038 
L 288.302804 414942.840038 
L 287.155514 414942.840038 
L 286.008224 414942.840038 
L 284.860935 414942.840038 
L 283.713645 414942.840038 
L 282.566355 414942.840038 
L 281.419065 414942.840038 
L 280.271776 414942.840038 
L 279.124486 414942.840038 
L 277.977196 414942.840038 
L 276.829907 414942.840038 
L 275.682617 414942.840038 
L 274.535327 414942.840038 
L 273.388037 414942.840038 
L 272.240748 414942.840038 
L 271.093458 414942.840038 
L 269.946168 414942.840038 
L 268.798879 414942.840038 
L 267.651589 414942.840038 
L 266.504299 414942.840038 
L 265.357009 414942.840038 
L 264.20972 414942.840038 
L 263.06243 414942.840038 
L 261.91514 414942.840038 
L 260.76785 414942.840038 
L 259.620561 414942.840038 
L 258.473271 414942.840038 
L 257.325981 414942.840038 
L 256.178692 414942.840038 
L 255.031402 414942.840038 
L 253.884112 414942.840038 
L 252.736822 414942.840038 
L 251.589533 414942.840038 
L 250.442243 414942.840038 
L 249.294953 414942.840038 
L 248.147664 414942.840038 
L 247.000374 414942.840038 
L 245.853084 414942.840038 
L 244.705794 414942.840038 
L 243.558505 414942.840038 
L 242.411215 414942.840038 
L 241.263925 414942.840038 
L 240.116636 414942.840038 
L 238.969346 414942.840038 
L 237.822056 414942.840038 
L 236.674766 414942.840038 
L 235.527477 414942.840038 
L 234.380187 414942.840038 
L 233.232897 414942.840038 
L 232.085607 414942.840038 
L 230.938318 414942.840038 
L 229.791028 414942.840038 
L 228.643738 414942.840038 
L 227.496449 414942.840038 
L 226.349159 414942.840038 
L 225.201869 414942.840038 
L 224.054579 414942.840038 
L 222.90729 414942.840038 
L 221.76 414942.840038 
L 220.61271 414942.840038 
L 219.465421 414942.840038 
L 218.318131 414942.840038 
L 217.170841 414942.840038 
L 216.023551 414942.840038 
L 214.876262 414942.840038 
L 213.728972 414942.840038 
L 212.581682 414942.840038 
L 211.434393 414942.840038 
L 210.287103 414942.840038 
L 209.139813 414942.840038 
L 207.992523 414942.840038 
L 206.845234 414942.840038 
L 205.697944 414942.840038 
L 204.550654 414942.840038 
L 203.403364 414942.840038 
L 202.256075 414942.840038 
L 201.108785 414942.840038 
L 199.961495 414942.840038 
L 198.814206 414942.840038 
L 197.666916 414942.840038 
L 196.519626 414942.840038 
L 195.372336 414942.840038 
L 194.225047 414942.840038 
L 193.077757 414942.840038 
L 191.930467 414942.840038 
L 190.783178 414942.840038 
L 189.635888 414942.840038 
L 188.488598 414942.840038 
L 187.341308 414942.840038 
L 186.194019 414942.840038 
L 185.046729 414942.840038 
L 183.899439 414942.840038 
L 182.75215 414942.840038 
L 181.60486 414942.840038 
L 180.45757 414942.840038 
L 179.31028 414942.840038 
L 178.162991 414942.840038 
L 177.015701 414942.840038 
L 175.868411 414942.840038 
L 174.721121 414942.840038 
L 173.573832 414942.840038 
L 172.426542 414942.840038 
L 171.279252 414942.840038 
L 170.131963 414942.840038 
L 168.984673 414942.840038 
L 167.837383 414942.840038 
L 166.690093 414942.840038 
L 165.542804 414942.840038 
L 164.395514 414942.840038 
L 163.248224 414942.840038 
L 162.100935 414942.840038 
L 160.953645 414942.840038 
L 159.806355 414942.840038 
L 158.659065 414942.840038 
L 157.511776 414942.840038 
L 156.364486 414942.840038 
L 155.217196 414942.840038 
L 154.069907 414942.840038 
L 152.922617 414942.840038 
L 151.775327 414942.840038 
L 150.628037 414942.840038 
L 149.480748 414942.840038 
L 148.333458 414942.840038 
L 147.186168 414942.840038 
L 146.038879 414942.840038 
L 144.891589 414942.840038 
L 143.744299 414942.840038 
L 142.597009 414942.840038 
L 141.44972 414942.840038 
L 140.30243 414942.840038 
L 139.15514 414942.840038 
L 138.00785 414942.840038 
L 136.860561 414942.840038 
L 135.713271 414942.840038 
L 134.565981 414942.840038 
L 133.418692 414942.840038 
L 132.271402 414942.840038 
L 131.124112 414942.840038 
L 129.976822 414942.840038 
L 128.829533 414942.840038 
L 127.682243 414942.840038 
L 126.534953 414942.840038 
L 125.387664 414942.840038 
L 124.240374 414942.840038 
L 123.093084 414942.840038 
L 121.945794 414942.840038 
L 120.798505 414942.840038 
L 119.651215 414942.840038 
L 118.503925 414942.840038 
L 117.356636 414942.840038 
L 116.209346 414942.840038 
L 115.062056 414942.840038 
L 113.914766 414942.840038 
L 112.767477 414942.840038 
L 111.620187 414942.840038 
L 110.472897 414942.840038 
L 109.325607 414942.840038 
L 108.178318 414942.840038 
L 107.031028 414942.840038 
L 105.883738 414942.840038 
L 104.736449 414942.840038 
L 103.589159 414942.840038 
L 102.441869 414942.840038 
L 101.294579 414942.840038 
L 100.14729 414942.840038 
L 99 414942.840038 
z
" style="fill:#8080ff;fill-opacity:0.5;stroke:#8080ff;stroke-opacity:0.5;"/>
   </g>
   <g id="PolyCollection_2">
    <path clip-path="url(#p68e2955192)" d="M 99 414942.840038 
L 99 414942.840038 
L 100.14729 414942.840038 
L 101.294579 414942.840038 
L 102.441869 414942.840038 
L 103.589159 414942.840038 
L 104.736449 414942.840038 
L 105.883738 414942.840038 
L 107.031028 414942.840038 
L 108.178318 414942.840038 
L 109.325607 414942.840038 
L 110.472897 414942.840038 
L 111.620187 414942.840038 
L 112.767477 414942.840038 
L 113.914766 462.683445 
L 115.062056 462.683445 
L 116.209346 462.683445 
L 117.356636 462.683445 
L 118.503925 462.683445 
L 119.651215 414942.840038 
L 120.798505 414942.840038 
L 121.945794 414942.840038 
L 123.093084 414942.840038 
L 124.240374 414942.840038 
L 125.387664 414942.840038 
L 126.534953 414942.840038 
L 127.682243 414942.840038 
L 128.829533 414942.840038 
L 129.976822 414942.840038 
L 131.124112 414942.840038 
L 132.271402 414942.840038 
L 133.418692 414942.840038 
L 134.565981 414942.840038 
L 135.713271 414942.840038 
L 136.860561 414942.840038 
L 138.00785 414942.840038 
L 139.15514 414942.840038 
L 140.30243 414942.840038 
L 141.44972 414942.840038 
L 142.597009 414942.840038 
L 143.744299 414942.840038 
L 144.891589 414942.840038 
L 146.038879 414942.840038 
L 147.186168 414942.840038 
L 148.333458 414942.840038 
L 149.480748 414942.840038 
L 150.628037 414942.840038 
L 151.775327 414942.840038 
L 152.922617 414942.840038 
L 154.069907 414942.840038 
L 155.217196 414942.840038 
L 156.364486 414942.840038 
L 157.511776 414942.840038 
L 158.659065 414942.840038 
L 159.806355 414942.840038 
L 160.953645 414942.840038 
L 162.100935 414942.840038 
L 163.248224 414942.840038 
L 164.395514 414942.840038 
L 165.542804 414942.840038 
L 166.690093 414942.840038 
L 167.837383 414942.840038 
L 168.984673 414942.840038 
L 170.131963 414942.840038 
L 171.279252 414942.840038 
L 172.426542 414942.840038 
L 173.573832 414942.840038 
L 174.721121 414942.840038 
L 175.868411 414942.840038 
L 177.015701 414942.840038 
L 178.162991 414942.840038 
L 179.31028 414942.840038 
L 180.45757 414942.840038 
L 181.60486 414942.840038 
L 182.75215 414942.840038 
L 183.899439 414942.840038 
L 185.046729 414942.840038 
L 186.194019 414942.840038 
L 187.341308 414942.840038 
L 188.488598 414942.840038 
L 189.635888 414942.840038 
L 190.783178 414942.840038 
L 191.930467 414942.840038 
L 193.077757 414942.840038 
L 194.225047 414942.840038 
L 195.372336 414942.840038 
L 196.519626 414942.840038 
L 197.666916 414942.840038 
L 198.814206 414942.840038 
L 199.961495 414942.840038 
L 201.108785 414942.840038 
L 202.256075 414942.840038 
L 203.403364 414942.840038 
L 204.550654 414942.840038 
L 205.697944 414942.840038 
L 206.845234 414942.840038 
L 207.992523 414942.840038 
L 209.139813 414942.840038 
L 210.287103 414942.840038 
L 211.434393 414942.840038 
L 212.581682 414942.840038 
L 213.728972 414942.840038 
L 214.876262 414942.840038 
L 216.023551 414942.840038 
L 217.170841 414942.840038 
L 218.318131 414942.840038 
L 219.465421 414942.840038 
L 220.61271 414942.840038 
L 221.76 414942.840038 
L 222.90729 414942.840038 
L 224.054579 414942.840038 
L 225.201869 414942.840038 
L 226.349159 414942.840038 
L 227.496449 414942.840038 
L 228.643738 414942.840038 
L 229.791028 414942.840038 
L 230.938318 414942.840038 
L 232.085607 414942.840038 
L 233.232897 414942.840038 
L 234.380187 414942.840038 
L 235.527477 414942.840038 
L 236.674766 414942.840038 
L 237.822056 414942.840038 
L 238.969346 414942.840038 
L 240.116636 414942.840038 
L 241.263925 414942.840038 
L 242.411215 414942.840038 
L 243.558505 414942.840038 
L 244.705794 414942.840038 
L 245.853084 414942.840038 
L 247.000374 414942.840038 
L 248.147664 414942.840038 
L 249.294953 414942.840038 
L 250.442243 414942.840038 
L 251.589533 414942.840038 
L 252.736822 414942.840038 
L 253.884112 414942.840038 
L 255.031402 414942.840038 
L 256.178692 414942.840038 
L 257.325981 414942.840038 
L 258.473271 414942.840038 
L 259.620561 414942.840038 
L 260.76785 414942.840038 
L 261.91514 414942.840038 
L 263.06243 414942.840038 
L 264.20972 414942.840038 
L 265.357009 414942.840038 
L 266.504299 414942.840038 
L 267.651589 414942.840038 
L 268.798879 414942.840038 
L 269.946168 414942.840038 
L 271.093458 414942.840038 
L 272.240748 414942.840038 
L 273.388037 414942.840038 
L 274.535327 414942.840038 
L 275.682617 414942.840038 
L 276.829907 414942.840038 
L 277.977196 414942.840038 
L 279.124486 414942.840038 
L 280.271776 414942.840038 
L 281.419065 414942.840038 
L 282.566355 414942.840038 
L 283.713645 414942.840038 
L 284.860935 414942.840038 
L 286.008224 414942.840038 
L 287.155514 414942.840038 
L 288.302804 414942.840038 
L 289.450093 414942.840038 
L 290.597383 414942.840038 
L 291.744673 414942.840038 
L 292.891963 414942.840038 
L 294.039252 414942.840038 
L 295.186542 414942.840038 
L 296.333832 414942.840038 
L 297.481121 414942.840038 
L 298.628411 414942.840038 
L 299.775701 414942.840038 
L 300.922991 414942.840038 
L 302.07028 414942.840038 
L 303.21757 414942.840038 
L 304.36486 414942.840038 
L 305.51215 414942.840038 
L 306.659439 414942.840038 
L 307.806729 414942.840038 
L 308.954019 414942.840038 
L 310.101308 414942.840038 
L 311.248598 414942.840038 
L 312.395888 414942.840038 
L 313.543178 414942.840038 
L 314.690467 414942.840038 
L 315.837757 414942.840038 
L 316.985047 414942.840038 
L 318.132336 414942.840038 
L 319.279626 414942.840038 
L 320.426916 414942.840038 
L 321.574206 414942.840038 
L 322.721495 414942.840038 
L 323.868785 414942.840038 
L 325.016075 414942.840038 
L 326.163364 414942.840038 
L 327.310654 414942.840038 
L 328.457944 414942.840038 
L 329.605234 414942.840038 
L 330.752523 414942.840038 
L 331.899813 414942.840038 
L 333.047103 414942.840038 
L 334.194393 414942.840038 
L 335.341682 414942.840038 
L 336.488972 414942.840038 
L 337.636262 414942.840038 
L 338.783551 414942.840038 
L 339.930841 414942.840038 
L 341.078131 414942.840038 
L 342.225421 414942.840038 
L 343.37271 414942.840038 
L 344.52 414942.840038 
L 345.66729 414942.840038 
L 346.814579 414942.840038 
L 347.961869 414942.840038 
L 349.109159 414942.840038 
L 350.256449 414942.840038 
L 351.403738 414942.840038 
L 352.551028 414942.840038 
L 353.698318 414942.840038 
L 354.845607 414942.840038 
L 355.992897 414942.840038 
L 357.140187 414942.840038 
L 358.287477 414942.840038 
L 359.434766 414942.840038 
L 360.582056 414942.840038 
L 361.729346 414942.840038 
L 362.876636 414942.840038 
L 364.023925 414942.840038 
L 365.171215 414942.840038 
L 366.318505 414942.840038 
L 367.465794 414942.840038 
L 368.613084 414942.840038 
L 369.760374 414942.840038 
L 370.907664 414942.840038 
L 372.054953 414942.840038 
L 373.202243 414942.840038 
L 374.349533 414942.840038 
L 375.496822 414942.840038 
L 376.644112 414942.840038 
L 377.791402 414942.840038 
L 378.938692 414942.840038 
L 380.085981 414942.840038 
L 381.233271 414942.840038 
L 382.380561 414942.840038 
L 383.52785 414942.840038 
L 384.67514 414942.840038 
L 385.82243 414942.840038 
L 386.96972 414942.840038 
L 388.117009 414942.840038 
L 389.264299 414942.840038 
L 390.411589 414942.840038 
L 391.558879 414942.840038 
L 392.706168 414942.840038 
L 393.853458 414942.840038 
L 395.000748 414942.840038 
L 396.148037 414942.840038 
L 397.295327 414942.840038 
L 398.442617 414942.840038 
L 399.589907 414942.840038 
L 400.737196 414942.840038 
L 401.884486 414942.840038 
L 403.031776 414942.840038 
L 404.179065 414942.840038 
L 405.326355 414942.840038 
L 406.473645 414942.840038 
L 407.620935 414942.840038 
L 408.768224 414942.840038 
L 409.915514 414942.840038 
L 411.062804 414942.840038 
L 412.210093 414942.840038 
L 413.357383 414942.840038 
L 414.504673 414942.840038 
L 415.651963 414942.840038 
L 416.799252 414942.840038 
L 417.946542 414942.840038 
L 419.093832 414942.840038 
L 420.241121 414942.840038 
L 421.388411 414942.840038 
L 422.535701 414942.840038 
L 423.682991 414942.840038 
L 424.83028 414942.840038 
L 425.97757 414942.840038 
L 427.12486 414942.840038 
L 428.27215 414942.840038 
L 429.419439 414942.840038 
L 430.566729 414942.840038 
L 431.714019 414942.840038 
L 432.861308 414942.840038 
L 434.008598 414942.840038 
L 435.155888 414942.840038 
L 436.303178 414942.840038 
L 437.450467 414942.840038 
L 438.597757 414942.840038 
L 439.745047 414942.840038 
L 440.892336 414942.840038 
L 442.039626 414942.840038 
L 443.186916 414942.840038 
L 444.334206 414942.840038 
L 445.481495 414942.840038 
L 446.628785 414942.840038 
L 447.776075 414942.840038 
L 448.923364 414942.840038 
L 450.070654 414942.840038 
L 451.217944 414942.840038 
L 452.365234 414942.840038 
L 453.512523 414942.840038 
L 454.659813 414942.840038 
L 455.807103 414942.840038 
L 456.954393 414942.840038 
L 458.101682 414942.840038 
L 459.248972 414942.840038 
L 460.396262 414942.840038 
L 461.543551 414942.840038 
L 462.690841 414942.840038 
L 463.838131 414942.840038 
L 464.985421 414942.840038 
L 466.13271 414942.840038 
L 467.28 414942.840038 
L 468.42729 414942.840038 
L 469.574579 414942.840038 
L 470.721869 414942.840038 
L 471.869159 414942.840038 
L 473.016449 414942.840038 
L 474.163738 414942.840038 
L 475.311028 414942.840038 
L 476.458318 414942.840038 
L 477.605607 414942.840038 
L 478.752897 414942.840038 
L 479.900187 414942.840038 
L 481.047477 414942.840038 
L 482.194766 414942.840038 
L 483.342056 414942.840038 
L 484.489346 414942.840038 
L 485.636636 414942.840038 
L 486.783925 414942.840038 
L 487.931215 414942.840038 
L 489.078505 414942.840038 
L 490.225794 414942.840038 
L 491.373084 414942.840038 
L 492.520374 414942.840038 
L 493.667664 414942.840038 
L 494.814953 414942.840038 
L 495.962243 414942.840038 
L 497.109533 414942.840038 
L 498.256822 414942.840038 
L 499.404112 414942.840038 
L 500.551402 414942.840038 
L 501.698692 414942.840038 
L 502.845981 414942.840038 
L 503.993271 414942.840038 
L 505.140561 414942.840038 
L 506.28785 414942.840038 
L 507.43514 414942.840038 
L 508.58243 414942.840038 
L 509.72972 414942.840038 
L 510.877009 414942.840038 
L 512.024299 414942.840038 
L 513.171589 414942.840038 
L 514.318879 414942.840038 
L 515.466168 414942.840038 
L 516.613458 414942.840038 
L 517.760748 414942.840038 
L 518.908037 414942.840038 
L 520.055327 414942.840038 
L 521.202617 414942.840038 
L 522.349907 414942.840038 
L 523.497196 414942.840038 
L 524.644486 414942.840038 
L 525.791776 414942.840038 
L 526.939065 414942.840038 
L 528.086355 414942.840038 
L 529.233645 414942.840038 
L 530.380935 414942.840038 
L 531.528224 414942.840038 
L 532.675514 414942.840038 
L 533.822804 414942.840038 
L 534.970093 414942.840038 
L 536.117383 414942.840038 
L 537.264673 414942.840038 
L 538.411963 414942.840038 
L 539.559252 414942.840038 
L 540.706542 414942.840038 
L 541.853832 414942.840038 
L 543.001121 414942.840038 
L 544.148411 414942.840038 
L 545.295701 414942.840038 
L 546.442991 414942.840038 
L 547.59028 414942.840038 
L 548.73757 414942.840038 
L 549.88486 414942.840038 
L 551.03215 414942.840038 
L 552.179439 414942.840038 
L 553.326729 414942.840038 
L 554.474019 414942.840038 
L 555.621308 414942.840038 
L 556.768598 414942.840038 
L 557.915888 414942.840038 
L 559.063178 414942.840038 
L 560.210467 414942.840038 
L 561.357757 414942.840038 
L 562.505047 414942.840038 
L 563.652336 414942.840038 
L 564.799626 414942.840038 
L 565.946916 414942.840038 
L 567.094206 414942.840038 
L 568.241495 414942.840038 
L 569.388785 414942.840038 
L 570.536075 414942.840038 
L 571.683364 414942.840038 
L 572.830654 414942.840038 
L 573.977944 414942.840038 
L 575.125234 414942.840038 
L 576.272523 414942.840038 
L 577.419813 414942.840038 
L 578.567103 414942.840038 
L 579.714393 414942.840038 
L 580.861682 414942.840038 
L 582.008972 414942.840038 
L 583.156262 414942.840038 
L 584.303551 414942.840038 
L 585.450841 414942.840038 
L 586.598131 414942.840038 
L 587.745421 414942.840038 
L 588.89271 414942.840038 
L 590.04 414942.840038 
L 591.18729 414942.840038 
L 592.334579 414942.840038 
L 593.481869 414942.840038 
L 594.629159 414942.840038 
L 595.776449 414942.840038 
L 596.923738 414942.840038 
L 598.071028 414942.840038 
L 599.218318 414942.840038 
L 600.365607 414942.840038 
L 601.512897 414942.840038 
L 602.660187 414942.840038 
L 603.807477 414942.840038 
L 604.954766 414942.840038 
L 606.102056 414942.840038 
L 607.249346 414942.840038 
L 608.396636 414942.840038 
L 609.543925 414942.840038 
L 610.691215 414942.840038 
L 611.838505 414942.840038 
L 612.985794 414942.840038 
L 614.133084 414942.840038 
L 615.280374 414942.840038 
L 616.427664 414942.840038 
L 617.574953 414942.840038 
L 618.722243 414942.840038 
L 619.869533 414942.840038 
L 621.016822 414942.840038 
L 622.164112 414942.840038 
L 623.311402 414942.840038 
L 624.458692 414942.840038 
L 625.605981 414942.840038 
L 626.753271 414942.840038 
L 627.900561 414942.840038 
L 629.04785 414942.840038 
L 630.19514 414942.840038 
L 631.34243 414942.840038 
L 632.48972 414942.840038 
L 633.637009 414942.840038 
L 634.784299 414942.840038 
L 635.931589 414942.840038 
L 637.078879 414942.840038 
L 638.226168 414942.840038 
L 639.373458 414942.840038 
L 640.520748 414942.840038 
L 641.668037 414942.840038 
L 642.815327 414942.840038 
L 643.962617 414942.840038 
L 645.109907 414942.840038 
L 646.257196 414942.840038 
L 647.404486 414942.840038 
L 648.551776 414942.840038 
L 649.699065 414942.840038 
L 650.846355 414942.840038 
L 651.993645 414942.840038 
L 653.140935 414942.840038 
L 654.288224 414942.840038 
L 655.435514 414942.840038 
L 656.582804 414942.840038 
L 657.730093 414942.840038 
L 658.877383 414942.840038 
L 660.024673 414942.840038 
L 661.171963 414942.840038 
L 662.319252 414942.840038 
L 663.466542 414942.840038 
L 664.613832 414942.840038 
L 665.761121 414942.840038 
L 666.908411 414942.840038 
L 668.055701 414942.840038 
L 669.202991 414942.840038 
L 670.35028 414942.840038 
L 671.49757 414942.840038 
L 672.64486 414942.840038 
L 673.79215 414942.840038 
L 674.939439 414942.840038 
L 676.086729 414942.840038 
L 677.234019 414942.840038 
L 678.381308 414942.840038 
L 679.528598 414942.840038 
L 680.675888 414942.840038 
L 681.823178 414942.840038 
L 682.970467 414942.840038 
L 684.117757 414942.840038 
L 685.265047 414942.840038 
L 686.412336 414942.840038 
L 687.559626 414942.840038 
L 688.706916 414942.840038 
L 689.854206 414942.840038 
L 691.001495 414942.840038 
L 692.148785 414942.840038 
L 693.296075 414942.840038 
L 694.443364 414942.840038 
L 695.590654 414942.840038 
L 696.737944 414942.840038 
L 697.885234 414942.840038 
L 699.032523 414942.840038 
L 700.179813 414942.840038 
L 701.327103 414942.840038 
L 702.474393 414942.840038 
L 703.621682 414942.840038 
L 704.768972 414942.840038 
L 705.916262 414942.840038 
L 707.063551 414942.840038 
L 708.210841 414942.840038 
L 709.358131 414942.840038 
L 710.505421 414942.840038 
L 711.65271 414942.840038 
L 712.8 414942.840038 
L 712.8 414942.840038 
L 712.8 414942.840038 
L 711.65271 414942.840038 
L 710.505421 414942.840038 
L 709.358131 414942.840038 
L 708.210841 414942.840038 
L 707.063551 414942.840038 
L 705.916262 414942.840038 
L 704.768972 414942.840038 
L 703.621682 414942.840038 
L 702.474393 414942.840038 
L 701.327103 414942.840038 
L 700.179813 414942.840038 
L 699.032523 414942.840038 
L 697.885234 414942.840038 
L 696.737944 414942.840038 
L 695.590654 414942.840038 
L 694.443364 414942.840038 
L 693.296075 414942.840038 
L 692.148785 414942.840038 
L 691.001495 414942.840038 
L 689.854206 414942.840038 
L 688.706916 414942.840038 
L 687.559626 414942.840038 
L 686.412336 414942.840038 
L 685.265047 414942.840038 
L 684.117757 414942.840038 
L 682.970467 414942.840038 
L 681.823178 414942.840038 
L 680.675888 414942.840038 
L 679.528598 414942.840038 
L 678.381308 414942.840038 
L 677.234019 414942.840038 
L 676.086729 414942.840038 
L 674.939439 414942.840038 
L 673.79215 414942.840038 
L 672.64486 414942.840038 
L 671.49757 414942.840038 
L 670.35028 414942.840038 
L 669.202991 414942.840038 
L 668.055701 414942.840038 
L 666.908411 414942.840038 
L 665.761121 414942.840038 
L 664.613832 414942.840038 
L 663.466542 414942.840038 
L 662.319252 414942.840038 
L 661.171963 414942.840038 
L 660.024673 414942.840038 
L 658.877383 414942.840038 
L 657.730093 414942.840038 
L 656.582804 414942.840038 
L 655.435514 414942.840038 
L 654.288224 414942.840038 
L 653.140935 414942.840038 
L 651.993645 414942.840038 
L 650.846355 414942.840038 
L 649.699065 414942.840038 
L 648.551776 414942.840038 
L 647.404486 414942.840038 
L 646.257196 414942.840038 
L 645.109907 414942.840038 
L 643.962617 414942.840038 
L 642.815327 414942.840038 
L 641.668037 414942.840038 
L 640.520748 414942.840038 
L 639.373458 414942.840038 
L 638.226168 414942.840038 
L 637.078879 414942.840038 
L 635.931589 414942.840038 
L 634.784299 414942.840038 
L 633.637009 414942.840038 
L 632.48972 414942.840038 
L 631.34243 414942.840038 
L 630.19514 414942.840038 
L 629.04785 414942.840038 
L 627.900561 414942.840038 
L 626.753271 414942.840038 
L 625.605981 414942.840038 
L 624.458692 414942.840038 
L 623.311402 414942.840038 
L 622.164112 414942.840038 
L 621.016822 414942.840038 
L 619.869533 414942.840038 
L 618.722243 414942.840038 
L 617.574953 414942.840038 
L 616.427664 414942.840038 
L 615.280374 414942.840038 
L 614.133084 414942.840038 
L 612.985794 414942.840038 
L 611.838505 414942.840038 
L 610.691215 414942.840038 
L 609.543925 414942.840038 
L 608.396636 414942.840038 
L 607.249346 414942.840038 
L 606.102056 414942.840038 
L 604.954766 414942.840038 
L 603.807477 414942.840038 
L 602.660187 414942.840038 
L 601.512897 414942.840038 
L 600.365607 414942.840038 
L 599.218318 414942.840038 
L 598.071028 414942.840038 
L 596.923738 414942.840038 
L 595.776449 414942.840038 
L 594.629159 414942.840038 
L 593.481869 414942.840038 
L 592.334579 414942.840038 
L 591.18729 414942.840038 
L 590.04 414942.840038 
L 588.89271 414942.840038 
L 587.745421 414942.840038 
L 586.598131 414942.840038 
L 585.450841 414942.840038 
L 584.303551 414942.840038 
L 583.156262 414942.840038 
L 582.008972 414942.840038 
L 580.861682 414942.840038 
L 579.714393 414942.840038 
L 578.567103 414942.840038 
L 577.419813 414942.840038 
L 576.272523 414942.840038 
L 575.125234 414942.840038 
L 573.977944 414942.840038 
L 572.830654 414942.840038 
L 571.683364 414942.840038 
L 570.536075 414942.840038 
L 569.388785 414942.840038 
L 568.241495 414942.840038 
L 567.094206 414942.840038 
L 565.946916 414942.840038 
L 564.799626 414942.840038 
L 563.652336 414942.840038 
L 562.505047 414942.840038 
L 561.357757 414942.840038 
L 560.210467 414942.840038 
L 559.063178 414942.840038 
L 557.915888 414942.840038 
L 556.768598 414942.840038 
L 555.621308 414942.840038 
L 554.474019 414942.840038 
L 553.326729 414942.840038 
L 552.179439 414942.840038 
L 551.03215 414942.840038 
L 549.88486 414942.840038 
L 548.73757 414942.840038 
L 547.59028 414942.840038 
L 546.442991 414942.840038 
L 545.295701 414942.840038 
L 544.148411 414942.840038 
L 543.001121 414942.840038 
L 541.853832 414942.840038 
L 540.706542 414942.840038 
L 539.559252 414942.840038 
L 538.411963 414942.840038 
L 537.264673 414942.840038 
L 536.117383 414942.840038 
L 534.970093 414942.840038 
L 533.822804 414942.840038 
L 532.675514 414942.840038 
L 531.528224 414942.840038 
L 530.380935 414942.840038 
L 529.233645 414942.840038 
L 528.086355 414942.840038 
L 526.939065 414942.840038 
L 525.791776 414942.840038 
L 524.644486 414942.840038 
L 523.497196 414942.840038 
L 522.349907 414942.840038 
L 521.202617 414942.840038 
L 520.055327 414942.840038 
L 518.908037 414942.840038 
L 517.760748 414942.840038 
L 516.613458 414942.840038 
L 515.466168 414942.840038 
L 514.318879 414942.840038 
L 513.171589 414942.840038 
L 512.024299 414942.840038 
L 510.877009 414942.840038 
L 509.72972 414942.840038 
L 508.58243 414942.840038 
L 507.43514 414942.840038 
L 506.28785 414942.840038 
L 505.140561 414942.840038 
L 503.993271 414942.840038 
L 502.845981 414942.840038 
L 501.698692 414942.840038 
L 500.551402 414942.840038 
L 499.404112 414942.840038 
L 498.256822 414942.840038 
L 497.109533 414942.840038 
L 495.962243 414942.840038 
L 494.814953 414942.840038 
L 493.667664 414942.840038 
L 492.520374 414942.840038 
L 491.373084 414942.840038 
L 490.225794 414942.840038 
L 489.078505 414942.840038 
L 487.931215 414942.840038 
L 486.783925 414942.840038 
L 485.636636 414942.840038 
L 484.489346 414942.840038 
L 483.342056 414942.840038 
L 482.194766 414942.840038 
L 481.047477 414942.840038 
L 479.900187 414942.840038 
L 478.752897 414942.840038 
L 477.605607 414942.840038 
L 476.458318 414942.840038 
L 475.311028 414942.840038 
L 474.163738 414942.840038 
L 473.016449 414942.840038 
L 471.869159 414942.840038 
L 470.721869 414942.840038 
L 469.574579 414942.840038 
L 468.42729 414942.840038 
L 467.28 414942.840038 
L 466.13271 414942.840038 
L 464.985421 414942.840038 
L 463.838131 414942.840038 
L 462.690841 414942.840038 
L 461.543551 414942.840038 
L 460.396262 414942.840038 
L 459.248972 414942.840038 
L 458.101682 414942.840038 
L 456.954393 414942.840038 
L 455.807103 414942.840038 
L 454.659813 414942.840038 
L 453.512523 414942.840038 
L 452.365234 414942.840038 
L 451.217944 414942.840038 
L 450.070654 414942.840038 
L 448.923364 414942.840038 
L 447.776075 414942.840038 
L 446.628785 414942.840038 
L 445.481495 414942.840038 
L 444.334206 414942.840038 
L 443.186916 414942.840038 
L 442.039626 414942.840038 
L 440.892336 414942.840038 
L 439.745047 414942.840038 
L 438.597757 414942.840038 
L 437.450467 414942.840038 
L 436.303178 414942.840038 
L 435.155888 414942.840038 
L 434.008598 414942.840038 
L 432.861308 414942.840038 
L 431.714019 414942.840038 
L 430.566729 414942.840038 
L 429.419439 414942.840038 
L 428.27215 414942.840038 
L 427.12486 414942.840038 
L 425.97757 414942.840038 
L 424.83028 414942.840038 
L 423.682991 414942.840038 
L 422.535701 414942.840038 
L 421.388411 414942.840038 
L 420.241121 414942.840038 
L 419.093832 414942.840038 
L 417.946542 414942.840038 
L 416.799252 414942.840038 
L 415.651963 414942.840038 
L 414.504673 414942.840038 
L 413.357383 414942.840038 
L 412.210093 414942.840038 
L 411.062804 414942.840038 
L 409.915514 414942.840038 
L 408.768224 414942.840038 
L 407.620935 414942.840038 
L 406.473645 414942.840038 
L 405.326355 414942.840038 
L 404.179065 414942.840038 
L 403.031776 414942.840038 
L 401.884486 414942.840038 
L 400.737196 414942.840038 
L 399.589907 414942.840038 
L 398.442617 414942.840038 
L 397.295327 414942.840038 
L 396.148037 414942.840038 
L 395.000748 414942.840038 
L 393.853458 414942.840038 
L 392.706168 414942.840038 
L 391.558879 414942.840038 
L 390.411589 414942.840038 
L 389.264299 414942.840038 
L 388.117009 414942.840038 
L 386.96972 414942.840038 
L 385.82243 414942.840038 
L 384.67514 414942.840038 
L 383.52785 414942.840038 
L 382.380561 414942.840038 
L 381.233271 414942.840038 
L 380.085981 414942.840038 
L 378.938692 414942.840038 
L 377.791402 414942.840038 
L 376.644112 414942.840038 
L 375.496822 414942.840038 
L 374.349533 414942.840038 
L 373.202243 414942.840038 
L 372.054953 414942.840038 
L 370.907664 414942.840038 
L 369.760374 414942.840038 
L 368.613084 414942.840038 
L 367.465794 414942.840038 
L 366.318505 414942.840038 
L 365.171215 414942.840038 
L 364.023925 414942.840038 
L 362.876636 414942.840038 
L 361.729346 414942.840038 
L 360.582056 414942.840038 
L 359.434766 414942.840038 
L 358.287477 414942.840038 
L 357.140187 414942.840038 
L 355.992897 414942.840038 
L 354.845607 414942.840038 
L 353.698318 414942.840038 
L 352.551028 414942.840038 
L 351.403738 414942.840038 
L 350.256449 414942.840038 
L 349.109159 414942.840038 
L 347.961869 414942.840038 
L 346.814579 414942.840038 
L 345.66729 414942.840038 
L 344.52 414942.840038 
L 343.37271 414942.840038 
L 342.225421 414942.840038 
L 341.078131 414942.840038 
L 339.930841 414942.840038 
L 338.783551 414942.840038 
L 337.636262 414942.840038 
L 336.488972 414942.840038 
L 335.341682 414942.840038 
L 334.194393 414942.840038 
L 333.047103 414942.840038 
L 331.899813 414942.840038 
L 330.752523 414942.840038 
L 329.605234 414942.840038 
L 328.457944 414942.840038 
L 327.310654 414942.840038 
L 326.163364 414942.840038 
L 325.016075 414942.840038 
L 323.868785 414942.840038 
L 322.721495 414942.840038 
L 321.574206 414942.840038 
L 320.426916 414942.840038 
L 319.279626 414942.840038 
L 318.132336 414942.840038 
L 316.985047 414942.840038 
L 315.837757 414942.840038 
L 314.690467 414942.840038 
L 313.543178 414942.840038 
L 312.395888 414942.840038 
L 311.248598 414942.840038 
L 310.101308 414942.840038 
L 308.954019 414942.840038 
L 307.806729 414942.840038 
L 306.659439 414942.840038 
L 305.51215 414942.840038 
L 304.36486 414942.840038 
L 303.21757 414942.840038 
L 302.07028 414942.840038 
L 300.922991 414942.840038 
L 299.775701 414942.840038 
L 298.628411 414942.840038 
L 297.481121 414942.840038 
L 296.333832 414942.840038 
L 295.186542 414942.840038 
L 294.039252 414942.840038 
L 292.891963 414942.840038 
L 291.744673 414942.840038 
L 290.597383 414942.840038 
L 289.450093 414942.840038 
L 288.302804 414942.840038 
L 287.155514 414942.840038 
L 286.008224 414942.840038 
L 284.860935 414942.840038 
L 283.713645 414942.840038 
L 282.566355 414942.840038 
L 281.419065 414942.840038 
L 280.271776 414942.840038 
L 279.124486 414942.840038 
L 277.977196 414942.840038 
L 276.829907 414942.840038 
L 275.682617 414942.840038 
L 274.535327 414942.840038 
L 273.388037 414942.840038 
L 272.240748 414942.840038 
L 271.093458 414942.840038 
L 269.946168 414942.840038 
L 268.798879 414942.840038 
L 267.651589 414942.840038 
L 266.504299 414942.840038 
L 265.357009 414942.840038 
L 264.20972 414942.840038 
L 263.06243 414942.840038 
L 261.91514 414942.840038 
L 260.76785 414942.840038 
L 259.620561 414942.840038 
L 258.473271 414942.840038 
L 257.325981 414942.840038 
L 256.178692 414942.840038 
L 255.031402 414942.840038 
L 253.884112 414942.840038 
L 252.736822 414942.840038 
L 251.589533 414942.840038 
L 250.442243 414942.840038 
L 249.294953 414942.840038 
L 248.147664 414942.840038 
L 247.000374 414942.840038 
L 245.853084 414942.840038 
L 244.705794 414942.840038 
L 243.558505 414942.840038 
L 242.411215 414942.840038 
L 241.263925 414942.840038 
L 240.116636 414942.840038 
L 238.969346 414942.840038 
L 237.822056 414942.840038 
L 236.674766 414942.840038 
L 235.527477 414942.840038 
L 234.380187 414942.840038 
L 233.232897 414942.840038 
L 232.085607 414942.840038 
L 230.938318 414942.840038 
L 229.791028 414942.840038 
L 228.643738 414942.840038 
L 227.496449 414942.840038 
L 226.349159 414942.840038 
L 225.201869 414942.840038 
L 224.054579 414942.840038 
L 222.90729 414942.840038 
L 221.76 414942.840038 
L 220.61271 414942.840038 
L 219.465421 414942.840038 
L 218.318131 414942.840038 
L 217.170841 414942.840038 
L 216.023551 414942.840038 
L 214.876262 414942.840038 
L 213.728972 414942.840038 
L 212.581682 414942.840038 
L 211.434393 414942.840038 
L 210.287103 414942.840038 
L 209.139813 414942.840038 
L 207.992523 414942.840038 
L 206.845234 414942.840038 
L 205.697944 414942.840038 
L 204.550654 414942.840038 
L 203.403364 414942.840038 
L 202.256075 414942.840038 
L 201.108785 414942.840038 
L 199.961495 414942.840038 
L 198.814206 414942.840038 
L 197.666916 414942.840038 
L 196.519626 414942.840038 
L 195.372336 414942.840038 
L 194.225047 414942.840038 
L 193.077757 414942.840038 
L 191.930467 414942.840038 
L 190.783178 414942.840038 
L 189.635888 414942.840038 
L 188.488598 414942.840038 
L 187.341308 414942.840038 
L 186.194019 414942.840038 
L 185.046729 414942.840038 
L 183.899439 414942.840038 
L 182.75215 414942.840038 
L 181.60486 414942.840038 
L 180.45757 414942.840038 
L 179.31028 414942.840038 
L 178.162991 414942.840038 
L 177.015701 414942.840038 
L 175.868411 414942.840038 
L 174.721121 414942.840038 
L 173.573832 414942.840038 
L 172.426542 414942.840038 
L 171.279252 414942.840038 
L 170.131963 414942.840038 
L 168.984673 414942.840038 
L 167.837383 414942.840038 
L 166.690093 414942.840038 
L 165.542804 414942.840038 
L 164.395514 414942.840038 
L 163.248224 414942.840038 
L 162.100935 414942.840038 
L 160.953645 414942.840038 
L 159.806355 414942.840038 
L 158.659065 414942.840038 
L 157.511776 414942.840038 
L 156.364486 414942.840038 
L 155.217196 414942.840038 
L 154.069907 414942.840038 
L 152.922617 414942.840038 
L 151.775327 414942.840038 
L 150.628037 414942.840038 
L 149.480748 414942.840038 
L 148.333458 414942.840038 
L 147.186168 414942.840038 
L 146.038879 414942.840038 
L 144.891589 414942.840038 
L 143.744299 414942.840038 
L 142.597009 414942.840038 
L 141.44972 414942.840038 
L 140.30243 414942.840038 
L 139.15514 414942.840038 
L 138.00785 414942.840038 
L 136.860561 414942.840038 
L 135.713271 414942.840038 
L 134.565981 414942.840038 
L 133.418692 414942.840038 
L 132.271402 414942.840038 
L 131.124112 414942.840038 
L 129.976822 414942.840038 
L 128.829533 414942.840038 
L 127.682243 414942.840038 
L 126.534953 414942.840038 
L 125.387664 414942.840038 
L 124.240374 414942.840038 
L 123.093084 414942.840038 
L 121.945794 414942.840038 
L 120.798505 414942.840038 
L 119.651215 414942.840038 
L 118.503925 414942.840038 
L 117.356636 414942.840038 
L 116.209346 414942.840038 
L 115.062056 414942.840038 
L 113.914766 414942.840038 
L 112.767477 414942.840038 
L 111.620187 414942.840038 
L 110.472897 414942.840038 
L 109.325607 414942.840038 
L 108.178318 414942.840038 
L 107.031028 414942.840038 
L 105.883738 414942.840038 
L 104.736449 414942.840038 
L 103.589159 414942.840038 
L 102.441869 414942.840038 
L 101.294579 414942.840038 
L 100.14729 414942.840038 
L 99 414942.840038 
z
" style="fill:#ff8080;fill-opacity:0.5;stroke:#ff8080;stroke-opacity:0.5;"/>
   </g>
   <g id="matplotlib.axis_1">
    <g id="xtick_1">
     <g id="line2d_1">
      <path clip-path="url(#p68e2955192)" d="M 99 544.68 
L 99 73.44 
" style="fill:none;stroke:#b0b0b0;stroke-linecap:square;stroke-width:0.8;"/>
     </g>
     <g id="line2d_2">
      <defs>
       <path d="M 0 0 
L 0 3.5 
" id="m4abed1d830" style="stroke:#000000;stroke-width:0.8;"/>
      </defs>
      <g>
       <use style="stroke:#000000;stroke-width:0.8;" x="99" xlink:href="#m4abed1d830" y="544.68"/>
      </g>
     </g>
    </g>
    <g id="xtick_2">
     <g id="line2d_3">
      <path clip-path="url(#p68e2955192)" d="M 103.589159 544.68 
L 103.589159 73.44 
" style="fill:none;stroke:#b0b0b0;stroke-linecap:square;stroke-width:0.8;"/>
     </g>
     <g id="line2d_4">
      <g>
       <use style="stroke:#000000;stroke-width:0.8;" x="103.589159" xlink:href="#m4abed1d830" y="544.68"/>
      </g>
     </g>
     <g id="text_1">
      <!-- Apr -->
      <g transform="translate(94.939159 559.278437)scale(0.1 -0.1)">
       <defs>
        <path d="M 2188 4044 
L 1331 1722 
L 3047 1722 
L 2188 4044 
z
M 1831 4666 
L 2547 4666 
L 4325 0 
L 3669 0 
L 3244 1197 
L 1141 1197 
L 716 0 
L 50 0 
L 1831 4666 
z
" id="DejaVuSans-41" transform="scale(0.015625)"/>
        <path d="M 1159 525 
L 1159 -1331 
L 581 -1331 
L 581 3500 
L 1159 3500 
L 1159 2969 
Q 1341 3281 1617 3432 
Q 1894 3584 2278 3584 
Q 2916 3584 3314 3078 
Q 3713 2572 3713 1747 
Q 3713 922 3314 415 
Q 2916 -91 2278 -91 
Q 1894 -91 1617 61 
Q 1341 213 1159 525 
z
M 3116 1747 
Q 3116 2381 2855 2742 
Q 2594 3103 2138 3103 
Q 1681 3103 1420 2742 
Q 1159 2381 1159 1747 
Q 1159 1113 1420 752 
Q 1681 391 2138 391 
Q 2594 391 2855 752 
Q 3116 1113 3116 1747 
z
" id="DejaVuSans-70" transform="scale(0.015625)"/>
        <path d="M 2631 2963 
Q 2534 3019 2420 3045 
Q 2306 3072 2169 3072 
Q 1681 3072 1420 2755 
Q 1159 2438 1159 1844 
L 1159 0 
L 581 0 
L 581 3500 
L 1159 3500 
L 1159 2956 
Q 1341 3275 1631 3429 
Q 1922 3584 2338 3584 
Q 2397 3584 2469 3576 
Q 2541 3569 2628 3553 
L 2631 2963 
z
" id="DejaVuSans-72" transform="scale(0.015625)"/>
       </defs>
       <use xlink:href="#DejaVuSans-41"/>
       <use x="68.408203" xlink:href="#DejaVuSans-70"/>
       <use x="131.884766" xlink:href="#DejaVuSans-72"/>
      </g>
     </g>
    </g>
    <g id="xtick_3">
     <g id="line2d_5">
      <path clip-path="url(#p68e2955192)" d="M 207.992523 544.68 
L 207.992523 73.44 
" style="fill:none;stroke:#b0b0b0;stroke-linecap:square;stroke-width:0.8;"/>
     </g>
     <g id="line2d_6">
      <g>
       <use style="stroke:#000000;stroke-width:0.8;" x="207.992523" xlink:href="#m4abed1d830" y="544.68"/>
      </g>
     </g>
     <g id="text_2">
      <!-- Jul -->
      <g transform="translate(201.959711 559.278437)scale(0.1 -0.1)">
       <defs>
        <path d="M 628 4666 
L 1259 4666 
L 1259 325 
Q 1259 -519 939 -900 
Q 619 -1281 -91 -1281 
L -331 -1281 
L -331 -750 
L -134 -750 
Q 284 -750 456 -515 
Q 628 -281 628 325 
L 628 4666 
z
" id="DejaVuSans-4a" transform="scale(0.015625)"/>
        <path d="M 544 1381 
L 544 3500 
L 1119 3500 
L 1119 1403 
Q 1119 906 1312 657 
Q 1506 409 1894 409 
Q 2359 409 2629 706 
Q 2900 1003 2900 1516 
L 2900 3500 
L 3475 3500 
L 3475 0 
L 2900 0 
L 2900 538 
Q 2691 219 2414 64 
Q 2138 -91 1772 -91 
Q 1169 -91 856 284 
Q 544 659 544 1381 
z
M 1991 3584 
L 1991 3584 
z
" id="DejaVuSans-75" transform="scale(0.015625)"/>
        <path d="M 603 4863 
L 1178 4863 
L 1178 0 
L 603 0 
L 603 4863 
z
" id="DejaVuSans-6c" transform="scale(0.015625)"/>
       </defs>
       <use xlink:href="#DejaVuSans-4a"/>
       <use x="29.492188" xlink:href="#DejaVuSans-75"/>
       <use x="92.871094" xlink:href="#DejaVuSans-6c"/>
      </g>
     </g>
    </g>
    <g id="xtick_4">
     <g id="line2d_7">
      <path clip-path="url(#p68e2955192)" d="M 313.543178 544.68 
L 313.543178 73.44 
" style="fill:none;stroke:#b0b0b0;stroke-linecap:square;stroke-width:0.8;"/>
     </g>
     <g id="line2d_8">
      <g>
       <use style="stroke:#000000;stroke-width:0.8;" x="313.543178" xlink:href="#m4abed1d830" y="544.68"/>
      </g>
     </g>
     <g id="text_3">
      <!-- Oct -->
      <g transform="translate(304.897865 559.278437)scale(0.1 -0.1)">
       <defs>
        <path d="M 2522 4238 
Q 1834 4238 1429 3725 
Q 1025 3213 1025 2328 
Q 1025 1447 1429 934 
Q 1834 422 2522 422 
Q 3209 422 3611 934 
Q 4013 1447 4013 2328 
Q 4013 3213 3611 3725 
Q 3209 4238 2522 4238 
z
M 2522 4750 
Q 3503 4750 4090 4092 
Q 4678 3434 4678 2328 
Q 4678 1225 4090 567 
Q 3503 -91 2522 -91 
Q 1538 -91 948 565 
Q 359 1222 359 2328 
Q 359 3434 948 4092 
Q 1538 4750 2522 4750 
z
" id="DejaVuSans-4f" transform="scale(0.015625)"/>
        <path d="M 3122 3366 
L 3122 2828 
Q 2878 2963 2633 3030 
Q 2388 3097 2138 3097 
Q 1578 3097 1268 2742 
Q 959 2388 959 1747 
Q 959 1106 1268 751 
Q 1578 397 2138 397 
Q 2388 397 2633 464 
Q 2878 531 3122 666 
L 3122 134 
Q 2881 22 2623 -34 
Q 2366 -91 2075 -91 
Q 1284 -91 818 406 
Q 353 903 353 1747 
Q 353 2603 823 3093 
Q 1294 3584 2113 3584 
Q 2378 3584 2631 3529 
Q 2884 3475 3122 3366 
z
" id="DejaVuSans-63" transform="scale(0.015625)"/>
        <path d="M 1172 4494 
L 1172 3500 
L 2356 3500 
L 2356 3053 
L 1172 3053 
L 1172 1153 
Q 1172 725 1289 603 
Q 1406 481 1766 481 
L 2356 481 
L 2356 0 
L 1766 0 
Q 1100 0 847 248 
Q 594 497 594 1153 
L 594 3053 
L 172 3053 
L 172 3500 
L 594 3500 
L 594 4494 
L 1172 4494 
z
" id="DejaVuSans-74" transform="scale(0.015625)"/>
       </defs>
       <use xlink:href="#DejaVuSans-4f"/>
       <use x="78.710938" xlink:href="#DejaVuSans-63"/>
       <use x="133.691406" xlink:href="#DejaVuSans-74"/>
      </g>
     </g>
    </g>
    <g id="xtick_5">
     <g id="line2d_9">
      <path clip-path="url(#p68e2955192)" d="M 419.093832 544.68 
L 419.093832 73.44 
" style="fill:none;stroke:#b0b0b0;stroke-linecap:square;stroke-width:0.8;"/>
     </g>
     <g id="line2d_10">
      <g>
       <use style="stroke:#000000;stroke-width:0.8;" x="419.093832" xlink:href="#m4abed1d830" y="544.68"/>
      </g>
     </g>
     <g id="text_4">
      <!-- Jan -->
      <g transform="translate(411.386019 559.278437)scale(0.1 -0.1)">
       <defs>
        <path d="M 2194 1759 
Q 1497 1759 1228 1600 
Q 959 1441 959 1056 
Q 959 750 1161 570 
Q 1363 391 1709 391 
Q 2188 391 2477 730 
Q 2766 1069 2766 1631 
L 2766 1759 
L 2194 1759 
z
M 3341 1997 
L 3341 0 
L 2766 0 
L 2766 531 
Q 2569 213 2275 61 
Q 1981 -91 1556 -91 
Q 1019 -91 701 211 
Q 384 513 384 1019 
Q 384 1609 779 1909 
Q 1175 2209 1959 2209 
L 2766 2209 
L 2766 2266 
Q 2766 2663 2505 2880 
Q 2244 3097 1772 3097 
Q 1472 3097 1187 3025 
Q 903 2953 641 2809 
L 641 3341 
Q 956 3463 1253 3523 
Q 1550 3584 1831 3584 
Q 2591 3584 2966 3190 
Q 3341 2797 3341 1997 
z
" id="DejaVuSans-61" transform="scale(0.015625)"/>
        <path d="M 3513 2113 
L 3513 0 
L 2938 0 
L 2938 2094 
Q 2938 2591 2744 2837 
Q 2550 3084 2163 3084 
Q 1697 3084 1428 2787 
Q 1159 2491 1159 1978 
L 1159 0 
L 581 0 
L 581 3500 
L 1159 3500 
L 1159 2956 
Q 1366 3272 1645 3428 
Q 1925 3584 2291 3584 
Q 2894 3584 3203 3211 
Q 3513 2838 3513 2113 
z
" id="DejaVuSans-6e" transform="scale(0.015625)"/>
       </defs>
       <use xlink:href="#DejaVuSans-4a"/>
       <use x="29.492188" xlink:href="#DejaVuSans-61"/>
       <use x="90.771484" xlink:href="#DejaVuSans-6e"/>
      </g>
      <!-- 2021 -->
      <g transform="translate(406.368832 570.47625)scale(0.1 -0.1)">
       <defs>
        <path d="M 1228 531 
L 3431 531 
L 3431 0 
L 469 0 
L 469 531 
Q 828 903 1448 1529 
Q 2069 2156 2228 2338 
Q 2531 2678 2651 2914 
Q 2772 3150 2772 3378 
Q 2772 3750 2511 3984 
Q 2250 4219 1831 4219 
Q 1534 4219 1204 4116 
Q 875 4013 500 3803 
L 500 4441 
Q 881 4594 1212 4672 
Q 1544 4750 1819 4750 
Q 2544 4750 2975 4387 
Q 3406 4025 3406 3419 
Q 3406 3131 3298 2873 
Q 3191 2616 2906 2266 
Q 2828 2175 2409 1742 
Q 1991 1309 1228 531 
z
" id="DejaVuSans-32" transform="scale(0.015625)"/>
        <path d="M 2034 4250 
Q 1547 4250 1301 3770 
Q 1056 3291 1056 2328 
Q 1056 1369 1301 889 
Q 1547 409 2034 409 
Q 2525 409 2770 889 
Q 3016 1369 3016 2328 
Q 3016 3291 2770 3770 
Q 2525 4250 2034 4250 
z
M 2034 4750 
Q 2819 4750 3233 4129 
Q 3647 3509 3647 2328 
Q 3647 1150 3233 529 
Q 2819 -91 2034 -91 
Q 1250 -91 836 529 
Q 422 1150 422 2328 
Q 422 3509 836 4129 
Q 1250 4750 2034 4750 
z
" id="DejaVuSans-30" transform="scale(0.015625)"/>
        <path d="M 794 531 
L 1825 531 
L 1825 4091 
L 703 3866 
L 703 4441 
L 1819 4666 
L 2450 4666 
L 2450 531 
L 3481 531 
L 3481 0 
L 794 0 
L 794 531 
z
" id="DejaVuSans-31" transform="scale(0.015625)"/>
       </defs>
       <use xlink:href="#DejaVuSans-32"/>
       <use x="63.623047" xlink:href="#DejaVuSans-30"/>
       <use x="127.246094" xlink:href="#DejaVuSans-32"/>
       <use x="190.869141" xlink:href="#DejaVuSans-31"/>
      </g>
     </g>
    </g>
    <g id="xtick_6">
     <g id="line2d_11">
      <path clip-path="url(#p68e2955192)" d="M 522.349907 544.68 
L 522.349907 73.44 
" style="fill:none;stroke:#b0b0b0;stroke-linecap:square;stroke-width:0.8;"/>
     </g>
     <g id="line2d_12">
      <g>
       <use style="stroke:#000000;stroke-width:0.8;" x="522.349907" xlink:href="#m4abed1d830" y="544.68"/>
      </g>
     </g>
     <g id="text_5">
      <!-- Apr -->
      <g transform="translate(513.699907 559.278437)scale(0.1 -0.1)">
       <use xlink:href="#DejaVuSans-41"/>
       <use x="68.408203" xlink:href="#DejaVuSans-70"/>
       <use x="131.884766" xlink:href="#DejaVuSans-72"/>
      </g>
     </g>
    </g>
    <g id="xtick_7">
     <g id="line2d_13">
      <path clip-path="url(#p68e2955192)" d="M 626.753271 544.68 
L 626.753271 73.44 
" style="fill:none;stroke:#b0b0b0;stroke-linecap:square;stroke-width:0.8;"/>
     </g>
     <g id="line2d_14">
      <g>
       <use style="stroke:#000000;stroke-width:0.8;" x="626.753271" xlink:href="#m4abed1d830" y="544.68"/>
      </g>
     </g>
     <g id="text_6">
      <!-- Jul -->
      <g transform="translate(620.720459 559.278437)scale(0.1 -0.1)">
       <use xlink:href="#DejaVuSans-4a"/>
       <use x="29.492188" xlink:href="#DejaVuSans-75"/>
       <use x="92.871094" xlink:href="#DejaVuSans-6c"/>
      </g>
     </g>
    </g>
    <g id="xtick_8">
     <g id="line2d_15">
      <path clip-path="url(#p68e2955192)" d="M 712.8 544.68 
L 712.8 73.44 
" style="fill:none;stroke:#b0b0b0;stroke-linecap:square;stroke-width:0.8;"/>
     </g>
     <g id="line2d_16">
      <g>
       <use style="stroke:#000000;stroke-width:0.8;" x="712.8" xlink:href="#m4abed1d830" y="544.68"/>
      </g>
     </g>
    </g>
    <g id="xtick_9">
     <g id="line2d_17">
      <defs>
       <path d="M 0 0 
L 0 2 
" id="mbe9820739d" style="stroke:#000000;stroke-width:0.6;"/>
      </defs>
      <g>
       <use style="stroke:#000000;stroke-width:0.6;" x="138.00785" xlink:href="#mbe9820739d" y="544.68"/>
      </g>
     </g>
    </g>
    <g id="xtick_10">
     <g id="line2d_18">
      <g>
       <use style="stroke:#000000;stroke-width:0.6;" x="173.573832" xlink:href="#mbe9820739d" y="544.68"/>
      </g>
     </g>
    </g>
    <g id="xtick_11">
     <g id="line2d_19">
      <g>
       <use style="stroke:#000000;stroke-width:0.6;" x="243.558505" xlink:href="#mbe9820739d" y="544.68"/>
      </g>
     </g>
    </g>
    <g id="xtick_12">
     <g id="line2d_20">
      <g>
       <use style="stroke:#000000;stroke-width:0.6;" x="279.124486" xlink:href="#mbe9820739d" y="544.68"/>
      </g>
     </g>
    </g>
    <g id="xtick_13">
     <g id="line2d_21">
      <g>
       <use style="stroke:#000000;stroke-width:0.6;" x="349.109159" xlink:href="#mbe9820739d" y="544.68"/>
      </g>
     </g>
    </g>
    <g id="xtick_14">
     <g id="line2d_22">
      <g>
       <use style="stroke:#000000;stroke-width:0.6;" x="383.52785" xlink:href="#mbe9820739d" y="544.68"/>
      </g>
     </g>
    </g>
    <g id="xtick_15">
     <g id="line2d_23">
      <g>
       <use style="stroke:#000000;stroke-width:0.6;" x="454.659813" xlink:href="#mbe9820739d" y="544.68"/>
      </g>
     </g>
    </g>
    <g id="xtick_16">
     <g id="line2d_24">
      <g>
       <use style="stroke:#000000;stroke-width:0.6;" x="486.783925" xlink:href="#mbe9820739d" y="544.68"/>
      </g>
     </g>
    </g>
    <g id="xtick_17">
     <g id="line2d_25">
      <g>
       <use style="stroke:#000000;stroke-width:0.6;" x="556.768598" xlink:href="#mbe9820739d" y="544.68"/>
      </g>
     </g>
    </g>
    <g id="xtick_18">
     <g id="line2d_26">
      <g>
       <use style="stroke:#000000;stroke-width:0.6;" x="592.334579" xlink:href="#mbe9820739d" y="544.68"/>
      </g>
     </g>
    </g>
    <g id="xtick_19">
     <g id="line2d_27">
      <g>
       <use style="stroke:#000000;stroke-width:0.6;" x="662.319252" xlink:href="#mbe9820739d" y="544.68"/>
      </g>
     </g>
    </g>
    <g id="xtick_20">
     <g id="line2d_28">
      <g>
       <use style="stroke:#000000;stroke-width:0.6;" x="697.885234" xlink:href="#mbe9820739d" y="544.68"/>
      </g>
     </g>
    </g>
    <g id="text_7">
     <!-- Date -->
     <g transform="translate(393.949219 584.154375)scale(0.1 -0.1)">
      <defs>
       <path d="M 1259 4147 
L 1259 519 
L 2022 519 
Q 2988 519 3436 956 
Q 3884 1394 3884 2338 
Q 3884 3275 3436 3711 
Q 2988 4147 2022 4147 
L 1259 4147 
z
M 628 4666 
L 1925 4666 
Q 3281 4666 3915 4102 
Q 4550 3538 4550 2338 
Q 4550 1131 3912 565 
Q 3275 0 1925 0 
L 628 0 
L 628 4666 
z
" id="DejaVuSans-44" transform="scale(0.015625)"/>
       <path d="M 3597 1894 
L 3597 1613 
L 953 1613 
Q 991 1019 1311 708 
Q 1631 397 2203 397 
Q 2534 397 2845 478 
Q 3156 559 3463 722 
L 3463 178 
Q 3153 47 2828 -22 
Q 2503 -91 2169 -91 
Q 1331 -91 842 396 
Q 353 884 353 1716 
Q 353 2575 817 3079 
Q 1281 3584 2069 3584 
Q 2775 3584 3186 3129 
Q 3597 2675 3597 1894 
z
M 3022 2063 
Q 3016 2534 2758 2815 
Q 2500 3097 2075 3097 
Q 1594 3097 1305 2825 
Q 1016 2553 972 2059 
L 3022 2063 
z
" id="DejaVuSans-65" transform="scale(0.015625)"/>
      </defs>
      <use xlink:href="#DejaVuSans-44"/>
      <use x="77.001953" xlink:href="#DejaVuSans-61"/>
      <use x="138.28125" xlink:href="#DejaVuSans-74"/>
      <use x="177.490234" xlink:href="#DejaVuSans-65"/>
     </g>
    </g>
   </g>
   <g id="matplotlib.axis_2">
    <g id="ytick_1">
     <g id="line2d_29">
      <path clip-path="url(#p68e2955192)" d="M 99 398.46971 
L 712.8 398.46971 
" style="fill:none;stroke:#b0b0b0;stroke-linecap:square;stroke-width:0.8;"/>
     </g>
     <g id="line2d_30">
      <defs>
       <path d="M 0 0 
L -3.5 0 
" id="me91a084207" style="stroke:#000000;stroke-width:0.8;"/>
      </defs>
      <g>
       <use style="stroke:#000000;stroke-width:0.8;" x="99" xlink:href="#me91a084207" y="398.46971"/>
      </g>
     </g>
     <g id="text_8">
      <!-- $\mathdefault{10^{0}}$ -->
      <g transform="translate(74.4 402.268929)scale(0.1 -0.1)">
       <use transform="translate(0 0.765625)" xlink:href="#DejaVuSans-31"/>
       <use transform="translate(63.623047 0.765625)" xlink:href="#DejaVuSans-30"/>
       <use transform="translate(128.203125 39.046875)scale(0.7)" xlink:href="#DejaVuSans-30"/>
      </g>
     </g>
    </g>
    <g id="ytick_2">
     <g id="line2d_31">
      <path clip-path="url(#p68e2955192)" d="M 99 523.26 
L 712.8 523.26 
" style="fill:none;stroke:#b0b0b0;stroke-linecap:square;stroke-width:0.8;"/>
     </g>
     <g id="line2d_32">
      <defs>
       <path d="M 0 0 
L -2 0 
" id="m0cb60b688e" style="stroke:#000000;stroke-width:0.6;"/>
      </defs>
      <g>
       <use style="stroke:#000000;stroke-width:0.6;" x="99" xlink:href="#m0cb60b688e" y="523.26"/>
      </g>
     </g>
    </g>
    <g id="ytick_3">
     <g id="line2d_33">
      <path clip-path="url(#p68e2955192)" d="M 99 490.43586 
L 712.8 490.43586 
" style="fill:none;stroke:#b0b0b0;stroke-linecap:square;stroke-width:0.8;"/>
     </g>
     <g id="line2d_34">
      <g>
       <use style="stroke:#000000;stroke-width:0.6;" x="99" xlink:href="#m0cb60b688e" y="490.43586"/>
      </g>
     </g>
    </g>
    <g id="ytick_4">
     <g id="line2d_35">
      <path clip-path="url(#p68e2955192)" d="M 99 462.683445 
L 712.8 462.683445 
" style="fill:none;stroke:#b0b0b0;stroke-linecap:square;stroke-width:0.8;"/>
     </g>
     <g id="line2d_36">
      <g>
       <use style="stroke:#000000;stroke-width:0.6;" x="99" xlink:href="#m0cb60b688e" y="462.683445"/>
      </g>
     </g>
    </g>
    <g id="ytick_5">
     <g id="line2d_37">
      <path clip-path="url(#p68e2955192)" d="M 99 438.64321 
L 712.8 438.64321 
" style="fill:none;stroke:#b0b0b0;stroke-linecap:square;stroke-width:0.8;"/>
     </g>
     <g id="line2d_38">
      <g>
       <use style="stroke:#000000;stroke-width:0.6;" x="99" xlink:href="#m0cb60b688e" y="438.64321"/>
      </g>
     </g>
    </g>
    <g id="ytick_6">
     <g id="line2d_39">
      <path clip-path="url(#p68e2955192)" d="M 99 417.43822 
L 712.8 417.43822 
" style="fill:none;stroke:#b0b0b0;stroke-linecap:square;stroke-width:0.8;"/>
     </g>
     <g id="line2d_40">
      <g>
       <use style="stroke:#000000;stroke-width:0.6;" x="99" xlink:href="#m0cb60b688e" y="417.43822"/>
      </g>
     </g>
    </g>
    <g id="ytick_7">
     <g id="line2d_41">
      <path clip-path="url(#p68e2955192)" d="M 99 273.67942 
L 712.8 273.67942 
" style="fill:none;stroke:#b0b0b0;stroke-linecap:square;stroke-width:0.8;"/>
     </g>
     <g id="line2d_42">
      <g>
       <use style="stroke:#000000;stroke-width:0.6;" x="99" xlink:href="#m0cb60b688e" y="273.67942"/>
      </g>
     </g>
    </g>
    <g id="ytick_8">
     <g id="line2d_43">
      <path clip-path="url(#p68e2955192)" d="M 99 200.68178 
L 712.8 200.68178 
" style="fill:none;stroke:#b0b0b0;stroke-linecap:square;stroke-width:0.8;"/>
     </g>
     <g id="line2d_44">
      <g>
       <use style="stroke:#000000;stroke-width:0.6;" x="99" xlink:href="#m0cb60b688e" y="200.68178"/>
      </g>
     </g>
    </g>
    <g id="ytick_9">
     <g id="line2d_45">
      <path clip-path="url(#p68e2955192)" d="M 99 148.88913 
L 712.8 148.88913 
" style="fill:none;stroke:#b0b0b0;stroke-linecap:square;stroke-width:0.8;"/>
     </g>
     <g id="line2d_46">
      <g>
       <use style="stroke:#000000;stroke-width:0.6;" x="99" xlink:href="#m0cb60b688e" y="148.88913"/>
      </g>
     </g>
    </g>
    <g id="ytick_10">
     <g id="line2d_47">
      <path clip-path="url(#p68e2955192)" d="M 99 108.71563 
L 712.8 108.71563 
" style="fill:none;stroke:#b0b0b0;stroke-linecap:square;stroke-width:0.8;"/>
     </g>
     <g id="line2d_48">
      <g>
       <use style="stroke:#000000;stroke-width:0.6;" x="99" xlink:href="#m0cb60b688e" y="108.71563"/>
      </g>
     </g>
    </g>
    <g id="ytick_11">
     <g id="line2d_49">
      <path clip-path="url(#p68e2955192)" d="M 99 75.89149 
L 712.8 75.89149 
" style="fill:none;stroke:#b0b0b0;stroke-linecap:square;stroke-width:0.8;"/>
     </g>
     <g id="line2d_50">
      <g>
       <use style="stroke:#000000;stroke-width:0.6;" x="99" xlink:href="#m0cb60b688e" y="75.89149"/>
      </g>
     </g>
    </g>
   </g>
   <g id="line2d_51">
    <path clip-path="url(#p68e2955192)" d="M 253.883864 613 
L 253.884112 523.26 
L 256.178692 523.26 
L 256.17894 613 
M 258.473023 613 
L 258.473271 523.26 
L 258.473519 613 
M 682.970219 613 
L 682.970467 523.26 
L 682.970716 613 
M 691.001247 613 
L 691.001495 523.26 
L 695.590654 523.26 
L 695.590903 613 
L 695.590903 613 
" style="fill:none;stroke:#1f77b4;stroke-linecap:square;stroke-width:1.5;"/>
   </g>
   <g id="line2d_52">
    <path clip-path="url(#p68e2955192)" d="M 0 0 
" style="fill:none;stroke:#ff7f0e;stroke-linecap:square;stroke-width:1.5;"/>
   </g>
   <g id="patch_3">
    <path d="M 99 544.68 
L 99 73.44 
" style="fill:none;stroke:#000000;stroke-linecap:square;stroke-linejoin:miter;stroke-width:0.8;"/>
   </g>
   <g id="patch_4">
    <path d="M 712.8 544.68 
L 712.8 73.44 
" style="fill:none;stroke:#000000;stroke-linecap:square;stroke-linejoin:miter;stroke-width:0.8;"/>
   </g>
   <g id="patch_5">
    <path d="M 99 544.68 
L 712.8 544.68 
" style="fill:none;stroke:#000000;stroke-linecap:square;stroke-linejoin:miter;stroke-width:0.8;"/>
   </g>
   <g id="patch_6">
    <path d="M 99 73.44 
L 712.8 73.44 
" style="fill:none;stroke:#000000;stroke-linecap:square;stroke-linejoin:miter;stroke-width:0.8;"/>
   </g>
   <g id="legend_1">
    <g id="patch_7">
     <path d="M 616.653125 110.79625 
L 705.8 110.79625 
Q 707.8 110.79625 707.8 108.79625 
L 707.8 80.44 
Q 707.8 78.44 705.8 78.44 
L 616.653125 78.44 
Q 614.653125 78.44 614.653125 80.44 
L 614.653125 108.79625 
Q 614.653125 110.79625 616.653125 110.79625 
z
" style="fill:#ffffff;opacity:0.8;stroke:#cccccc;stroke-linejoin:miter;"/>
    </g>
    <g id="line2d_53">
     <path d="M 618.653125 86.538437 
L 638.653125 86.538437 
" style="fill:none;stroke:#1f77b4;stroke-linecap:square;stroke-width:1.5;"/>
    </g>
    <g id="line2d_54"/>
    <g id="text_9">
     <!-- Avg Cases -->
     <g transform="translate(646.653125 90.038437)scale(0.1 -0.1)">
      <defs>
       <path d="M 191 3500 
L 800 3500 
L 1894 563 
L 2988 3500 
L 3597 3500 
L 2284 0 
L 1503 0 
L 191 3500 
z
" id="DejaVuSans-76" transform="scale(0.015625)"/>
       <path d="M 2906 1791 
Q 2906 2416 2648 2759 
Q 2391 3103 1925 3103 
Q 1463 3103 1205 2759 
Q 947 2416 947 1791 
Q 947 1169 1205 825 
Q 1463 481 1925 481 
Q 2391 481 2648 825 
Q 2906 1169 2906 1791 
z
M 3481 434 
Q 3481 -459 3084 -895 
Q 2688 -1331 1869 -1331 
Q 1566 -1331 1297 -1286 
Q 1028 -1241 775 -1147 
L 775 -588 
Q 1028 -725 1275 -790 
Q 1522 -856 1778 -856 
Q 2344 -856 2625 -561 
Q 2906 -266 2906 331 
L 2906 616 
Q 2728 306 2450 153 
Q 2172 0 1784 0 
Q 1141 0 747 490 
Q 353 981 353 1791 
Q 353 2603 747 3093 
Q 1141 3584 1784 3584 
Q 2172 3584 2450 3431 
Q 2728 3278 2906 2969 
L 2906 3500 
L 3481 3500 
L 3481 434 
z
" id="DejaVuSans-67" transform="scale(0.015625)"/>
       <path id="DejaVuSans-20" transform="scale(0.015625)"/>
       <path d="M 4122 4306 
L 4122 3641 
Q 3803 3938 3442 4084 
Q 3081 4231 2675 4231 
Q 1875 4231 1450 3742 
Q 1025 3253 1025 2328 
Q 1025 1406 1450 917 
Q 1875 428 2675 428 
Q 3081 428 3442 575 
Q 3803 722 4122 1019 
L 4122 359 
Q 3791 134 3420 21 
Q 3050 -91 2638 -91 
Q 1578 -91 968 557 
Q 359 1206 359 2328 
Q 359 3453 968 4101 
Q 1578 4750 2638 4750 
Q 3056 4750 3426 4639 
Q 3797 4528 4122 4306 
z
" id="DejaVuSans-43" transform="scale(0.015625)"/>
       <path d="M 2834 3397 
L 2834 2853 
Q 2591 2978 2328 3040 
Q 2066 3103 1784 3103 
Q 1356 3103 1142 2972 
Q 928 2841 928 2578 
Q 928 2378 1081 2264 
Q 1234 2150 1697 2047 
L 1894 2003 
Q 2506 1872 2764 1633 
Q 3022 1394 3022 966 
Q 3022 478 2636 193 
Q 2250 -91 1575 -91 
Q 1294 -91 989 -36 
Q 684 19 347 128 
L 347 722 
Q 666 556 975 473 
Q 1284 391 1588 391 
Q 1994 391 2212 530 
Q 2431 669 2431 922 
Q 2431 1156 2273 1281 
Q 2116 1406 1581 1522 
L 1381 1569 
Q 847 1681 609 1914 
Q 372 2147 372 2553 
Q 372 3047 722 3315 
Q 1072 3584 1716 3584 
Q 2034 3584 2315 3537 
Q 2597 3491 2834 3397 
z
" id="DejaVuSans-73" transform="scale(0.015625)"/>
      </defs>
      <use xlink:href="#DejaVuSans-41"/>
      <use x="62.533203" xlink:href="#DejaVuSans-76"/>
      <use x="121.712891" xlink:href="#DejaVuSans-67"/>
      <use x="185.189453" xlink:href="#DejaVuSans-20"/>
      <use x="216.976562" xlink:href="#DejaVuSans-43"/>
      <use x="286.800781" xlink:href="#DejaVuSans-61"/>
      <use x="348.080078" xlink:href="#DejaVuSans-73"/>
      <use x="400.179688" xlink:href="#DejaVuSans-65"/>
      <use x="461.703125" xlink:href="#DejaVuSans-73"/>
     </g>
    </g>
    <g id="line2d_55">
     <path d="M 618.653125 101.216562 
L 638.653125 101.216562 
" style="fill:none;stroke:#ff7f0e;stroke-linecap:square;stroke-width:1.5;"/>
    </g>
    <g id="line2d_56"/>
    <g id="text_10">
     <!-- Avg Deaths -->
     <g transform="translate(646.653125 104.716562)scale(0.1 -0.1)">
      <defs>
       <path d="M 3513 2113 
L 3513 0 
L 2938 0 
L 2938 2094 
Q 2938 2591 2744 2837 
Q 2550 3084 2163 3084 
Q 1697 3084 1428 2787 
Q 1159 2491 1159 1978 
L 1159 0 
L 581 0 
L 581 4863 
L 1159 4863 
L 1159 2956 
Q 1366 3272 1645 3428 
Q 1925 3584 2291 3584 
Q 2894 3584 3203 3211 
Q 3513 2838 3513 2113 
z
" id="DejaVuSans-68" transform="scale(0.015625)"/>
      </defs>
      <use xlink:href="#DejaVuSans-41"/>
      <use x="62.533203" xlink:href="#DejaVuSans-76"/>
      <use x="121.712891" xlink:href="#DejaVuSans-67"/>
      <use x="185.189453" xlink:href="#DejaVuSans-20"/>
      <use x="216.976562" xlink:href="#DejaVuSans-44"/>
      <use x="293.978516" xlink:href="#DejaVuSans-65"/>
      <use x="355.501953" xlink:href="#DejaVuSans-61"/>
      <use x="416.78125" xlink:href="#DejaVuSans-74"/>
      <use x="455.990234" xlink:href="#DejaVuSans-68"/>
      <use x="519.369141" xlink:href="#DejaVuSans-73"/>
     </g>
    </g>
   </g>
  </g>
 </g>
 <defs>
  <clipPath id="p68e2955192">
   <rect height="471.24" width="613.8" x="99" y="73.44"/>
  </clipPath>
 </defs>
</svg>
