<?xml version="1.0" encoding="utf-8" standalone="no"?>
<!DOCTYPE svg PUBLIC "-//W3C//DTD SVG 1.1//EN"
  "http://www.w3.org/Graphics/SVG/1.1/DTD/svg11.dtd">
<svg height="612pt" version="1.1" viewBox="0 0 792 612" width="792pt" xmlns="http://www.w3.org/2000/svg" xmlns:xlink="http://www.w3.org/1999/xlink">
 <metadata>
  <rdf:RDF xmlns:cc="http://creativecommons.org/ns#" xmlns:dc="http://purl.org/dc/elements/1.1/" xmlns:rdf="http://www.w3.org/1999/02/22-rdf-syntax-ns#">
   <cc:Work>
    <dc:type rdf:resource="http://purl.org/dc/dcmitype/StillImage"/>
    <dc:format>image/svg+xml</dc:format>
    <dc:creator>
     <cc:Agent>
      <dc:title>Matplotlib v3.4.2, https://matplotlib.org/</dc:title>
     </cc:Agent>
    </dc:creator>
   </cc:Work>
  </rdf:RDF>
 </metadata>
 <defs>
  <style type="text/css">*{stroke-linecap:butt;stroke-linejoin:round;}</style>
 </defs>
 <g id="figure_1">
  <g id="patch_1">
   <path d="M 0 612 
L 792 612 
L 792 0 
L 0 0 
z
" style="fill:#ffffff;"/>
  </g>
  <g id="axes_1">
   <g id="patch_2">
    <path d="M 99 544.68 
L 712.8 544.68 
L 712.8 73.44 
L 99 73.44 
z
" style="fill:#ffffff;"/>
   </g>
   <g id="PolyCollection_1">
    <path clip-path="url(#p68e2955192)" d="M 99 414942.840038 
L 99 414942.840038 
L 100.196491 414942.840038 
L 101.392982 414942.840038 
L 102.589474 414942.840038 
L 103.785965 414942.840038 
L 104.982456 414942.840038 
L 106.178947 414942.840038 
L 107.375439 414942.840038 
L 108.57193 414942.840038 
L 109.768421 414942.840038 
L 110.964912 414942.840038 
L 112.161404 414942.840038 
L 113.357895 414942.840038 
L 114.554386 219.65029 
L 115.750877 219.65029 
L 116.947368 219.65029 
L 118.14386 219.65029 
L 119.340351 219.65029 
L 120.536842 273.67942 
L 121.733333 337.893155 
L 122.929825 302.938407 
L 124.126316 302.938407 
L 125.322807 302.938407 
L 126.519298 302.938407 
L 127.715789 302.938407 
L 128.912281 462.683445 
L 130.108772 462.683445 
L 131.305263 462.683445 
L 132.501754 462.683445 
L 133.698246 462.683445 
L 134.894737 462.683445 
L 136.091228 414942.840038 
L 137.287719 414942.840038 
L 138.484211 414942.840038 
L 139.680702 414942.840038 
L 140.877193 414942.840038 
L 142.073684 414942.840038 
L 143.270175 414942.840038 
L 144.466667 414942.840038 
L 145.663158 414942.840038 
L 146.859649 414942.840038 
L 148.05614 414942.840038 
L 149.252632 462.683445 
L 150.449123 462.683445 
L 151.645614 398.46971 
L 152.842105 398.46971 
L 154.038596 398.46971 
L 155.235088 398.46971 
L 156.431579 398.46971 
L 157.62807 302.938407 
L 158.824561 302.938407 
L 160.021053 302.938407 
L 161.217544 302.938407 
L 162.414035 302.938407 
L 163.610526 302.938407 
L 164.807018 302.938407 
L 166.003509 302.938407 
L 167.2 302.938407 
L 168.396491 462.683445 
L 169.592982 462.683445 
L 170.789474 462.683445 
L 171.985965 462.683445 
L 173.182456 462.683445 
L 174.378947 414942.840038 
L 175.575439 414942.840038 
L 176.77193 414942.840038 
L 177.968421 462.683445 
L 179.164912 398.46971 
L 180.361404 398.46971 
L 181.557895 398.46971 
L 182.754386 398.46971 
L 183.950877 398.46971 
L 185.147368 398.46971 
L 186.34386 302.938407 
L 187.540351 302.938407 
L 188.736842 302.938407 
L 189.933333 302.938407 
L 191.129825 302.938407 
L 192.326316 302.938407 
L 193.522807 302.938407 
L 194.719298 302.938407 
L 195.915789 302.938407 
L 197.112281 398.46971 
L 198.308772 398.46971 
L 199.505263 398.46971 
L 200.701754 462.683445 
L 201.898246 414942.840038 
L 203.094737 414942.840038 
L 204.291228 414942.840038 
L 205.487719 414942.840038 
L 206.684211 414942.840038 
L 207.880702 414942.840038 
L 209.077193 414942.840038 
L 210.273684 414942.840038 
L 211.470175 414942.840038 
L 212.666667 414942.840038 
L 213.863158 414942.840038 
L 215.059649 414942.840038 
L 216.25614 414942.840038 
L 217.452632 414942.840038 
L 218.649123 414942.840038 
L 219.845614 414942.840038 
L 221.042105 414942.840038 
L 222.238596 414942.840038 
L 223.435088 414942.840038 
L 224.631579 462.683445 
L 225.82807 462.683445 
L 227.024561 462.683445 
L 228.221053 302.938407 
L 229.417544 302.938407 
L 230.614035 302.938407 
L 231.810526 302.938407 
L 233.007018 302.938407 
L 234.203509 302.938407 
L 235.4 302.938407 
L 236.596491 302.938407 
L 237.792982 302.938407 
L 238.989474 302.938407 
L 240.185965 302.938407 
L 241.382456 302.938407 
L 242.578947 302.938407 
L 243.775439 302.938407 
L 244.97193 398.46971 
L 246.168421 398.46971 
L 247.364912 302.938407 
L 248.561404 302.938407 
L 249.757895 273.67942 
L 250.954386 273.67942 
L 252.150877 273.67942 
L 253.347368 273.67942 
L 254.54386 273.67942 
L 255.740351 273.67942 
L 256.936842 273.67942 
L 258.133333 302.938407 
L 259.329825 302.938407 
L 260.526316 302.938407 
L 261.722807 302.938407 
L 262.919298 302.938407 
L 264.115789 398.46971 
L 265.312281 398.46971 
L 266.508772 398.46971 
L 267.705263 398.46971 
L 268.901754 398.46971 
L 270.098246 398.46971 
L 271.294737 398.46971 
L 272.491228 398.46971 
L 273.687719 398.46971 
L 274.884211 398.46971 
L 276.080702 398.46971 
L 277.277193 398.46971 
L 278.473684 398.46971 
L 279.670175 398.46971 
L 280.866667 398.46971 
L 282.063158 462.683445 
L 283.259649 302.938407 
L 284.45614 302.938407 
L 285.652632 462.683445 
L 286.849123 462.683445 
L 288.045614 462.683445 
L 289.242105 462.683445 
L 290.438596 462.683445 
L 291.635088 398.46971 
L 292.831579 398.46971 
L 294.02807 398.46971 
L 295.224561 398.46971 
L 296.421053 398.46971 
L 297.617544 398.46971 
L 298.814035 398.46971 
L 300.010526 398.46971 
L 301.207018 398.46971 
L 302.403509 398.46971 
L 303.6 398.46971 
L 304.796491 398.46971 
L 305.992982 398.46971 
L 307.189474 398.46971 
L 308.385965 398.46971 
L 309.582456 398.46971 
L 310.778947 398.46971 
L 311.975439 398.46971 
L 313.17193 398.46971 
L 314.368421 398.46971 
L 315.564912 398.46971 
L 316.761404 398.46971 
L 317.957895 398.46971 
L 319.154386 398.46971 
L 320.350877 398.46971 
L 321.547368 398.46971 
L 322.74386 398.46971 
L 323.940351 398.46971 
L 325.136842 462.683445 
L 326.333333 398.46971 
L 327.529825 302.938407 
L 328.726316 302.938407 
L 329.922807 302.938407 
L 331.119298 302.938407 
L 332.315789 302.938407 
L 333.512281 273.67942 
L 334.708772 273.67942 
L 335.905263 273.67942 
L 337.101754 273.67942 
L 338.298246 273.67942 
L 339.494737 219.65029 
L 340.691228 219.65029 
L 341.887719 200.68178 
L 343.084211 219.65029 
L 344.280702 219.65029 
L 345.477193 219.65029 
L 346.673684 219.65029 
L 347.870175 219.65029 
L 349.066667 219.65029 
L 350.263158 219.65029 
L 351.459649 219.65029 
L 352.65614 162.924884 
L 353.852632 162.924884 
L 355.049123 162.924884 
L 356.245614 178.148117 
L 357.442105 178.148117 
L 358.638596 337.893155 
L 359.835088 178.148117 
L 361.031579 178.148117 
L 362.22807 213.102865 
L 363.424561 213.102865 
L 364.621053 213.102865 
L 365.817544 178.148117 
L 367.014035 178.148117 
L 368.210526 178.148117 
L 369.407018 273.67942 
L 370.603509 273.67942 
L 371.8 273.67942 
L 372.996491 273.67942 
L 374.192982 273.67942 
L 375.389474 273.67942 
L 376.585965 337.893155 
L 377.782456 273.67942 
L 378.978947 273.67942 
L 380.175439 273.67942 
L 381.37193 273.67942 
L 382.568421 302.938407 
L 383.764912 302.938407 
L 384.961404 302.938407 
L 386.157895 398.46971 
L 387.354386 398.46971 
L 388.550877 398.46971 
L 389.747368 398.46971 
L 390.94386 398.46971 
L 392.140351 398.46971 
L 393.336842 398.46971 
L 394.533333 398.46971 
L 395.729825 462.683445 
L 396.926316 462.683445 
L 398.122807 462.683445 
L 399.319298 462.683445 
L 400.515789 462.683445 
L 401.712281 414942.840038 
L 402.908772 337.893155 
L 404.105263 273.67942 
L 405.301754 273.67942 
L 406.498246 273.67942 
L 407.694737 273.67942 
L 408.891228 273.67942 
L 410.087719 273.67942 
L 411.284211 273.67942 
L 412.480702 273.67942 
L 413.677193 273.67942 
L 414.873684 273.67942 
L 416.070175 273.67942 
L 417.266667 273.67942 
L 418.463158 273.67942 
L 419.659649 273.67942 
L 420.85614 302.938407 
L 422.052632 302.938407 
L 423.249123 302.938407 
L 424.445614 302.938407 
L 425.642105 273.67942 
L 426.838596 273.67942 
L 428.035088 273.67942 
L 429.231579 273.67942 
L 430.42807 273.67942 
L 431.624561 273.67942 
L 432.821053 302.938407 
L 434.017544 302.938407 
L 435.214035 302.938407 
L 436.410526 337.893155 
L 437.607018 337.893155 
L 438.803509 337.893155 
L 440 302.938407 
L 441.196491 302.938407 
L 442.392982 462.683445 
L 443.589474 462.683445 
L 444.785965 462.683445 
L 445.982456 302.938407 
L 447.178947 302.938407 
L 448.375439 302.938407 
L 449.57193 302.938407 
L 450.768421 302.938407 
L 451.964912 302.938407 
L 453.161404 302.938407 
L 454.357895 302.938407 
L 455.554386 398.46971 
L 456.750877 462.683445 
L 457.947368 462.683445 
L 459.14386 462.683445 
L 460.340351 462.683445 
L 461.536842 462.683445 
L 462.733333 462.683445 
L 463.929825 462.683445 
L 465.126316 462.683445 
L 466.322807 462.683445 
L 467.519298 462.683445 
L 468.715789 462.683445 
L 469.912281 462.683445 
L 471.108772 337.893155 
L 472.305263 337.893155 
L 473.501754 337.893155 
L 474.698246 337.893155 
L 475.894737 337.893155 
L 477.091228 337.893155 
L 478.287719 337.893155 
L 479.484211 414942.840038 
L 480.680702 414942.840038 
L 481.877193 414942.840038 
L 483.073684 462.683445 
L 484.270175 462.683445 
L 485.466667 462.683445 
L 486.663158 462.683445 
L 487.859649 414942.840038 
L 489.05614 462.683445 
L 490.252632 462.683445 
L 491.449123 462.683445 
L 492.645614 462.683445 
L 493.842105 398.46971 
L 495.038596 398.46971 
L 496.235088 398.46971 
L 497.431579 398.46971 
L 498.62807 398.46971 
L 499.824561 462.683445 
L 501.021053 462.683445 
L 502.217544 462.683445 
L 503.414035 462.683445 
L 504.610526 462.683445 
L 505.807018 462.683445 
L 507.003509 462.683445 
L 508.2 462.683445 
L 509.396491 462.683445 
L 510.592982 414942.840038 
L 511.789474 462.683445 
L 512.985965 462.683445 
L 514.182456 462.683445 
L 515.378947 462.683445 
L 516.575439 462.683445 
L 517.77193 398.46971 
L 518.968421 302.938407 
L 520.164912 302.938407 
L 521.361404 302.938407 
L 522.557895 219.65029 
L 523.754386 219.65029 
L 524.950877 219.65029 
L 526.147368 219.65029 
L 527.34386 219.65029 
L 528.540351 240.85528 
L 529.736842 240.85528 
L 530.933333 240.85528 
L 532.129825 240.85528 
L 533.326316 240.85528 
L 534.522807 240.85528 
L 535.719298 398.46971 
L 536.915789 398.46971 
L 538.112281 398.46971 
L 539.308772 462.683445 
L 540.505263 462.683445 
L 541.701754 462.683445 
L 542.898246 462.683445 
L 544.094737 462.683445 
L 545.291228 462.683445 
L 546.487719 414942.840038 
L 547.684211 462.683445 
L 548.880702 414942.840038 
L 550.077193 414942.840038 
L 551.273684 414942.840038 
L 552.470175 414942.840038 
L 553.666667 414942.840038 
L 554.863158 414942.840038 
L 556.059649 414942.840038 
L 557.25614 462.683445 
L 558.452632 398.46971 
L 559.649123 398.46971 
L 560.845614 398.46971 
L 562.042105 398.46971 
L 563.238596 398.46971 
L 564.435088 462.683445 
L 565.631579 462.683445 
L 566.82807 462.683445 
L 568.024561 398.46971 
L 569.221053 398.46971 
L 570.417544 398.46971 
L 571.614035 398.46971 
L 572.810526 398.46971 
L 574.007018 462.683445 
L 575.203509 414942.840038 
L 576.4 337.893155 
L 577.596491 337.893155 
L 578.792982 337.893155 
L 579.989474 337.893155 
L 581.185965 337.893155 
L 582.382456 337.893155 
L 583.578947 302.938407 
L 584.775439 462.683445 
L 585.97193 462.683445 
L 587.168421 398.46971 
L 588.364912 398.46971 
L 589.561404 398.46971 
L 590.757895 398.46971 
L 591.954386 398.46971 
L 593.150877 398.46971 
L 594.347368 398.46971 
L 595.54386 398.46971 
L 596.740351 302.938407 
L 597.936842 302.938407 
L 599.133333 273.67942 
L 600.329825 273.67942 
L 601.526316 273.67942 
L 602.722807 273.67942 
L 603.919298 273.67942 
L 605.115789 273.67942 
L 606.312281 273.67942 
L 607.508772 273.67942 
L 608.705263 273.67942 
L 609.901754 273.67942 
L 611.098246 273.67942 
L 612.294737 273.67942 
L 613.491228 273.67942 
L 614.687719 273.67942 
L 615.884211 337.893155 
L 617.080702 337.893155 
L 618.277193 414942.840038 
L 619.473684 414942.840038 
L 620.670175 414942.840038 
L 621.866667 414942.840038 
L 623.063158 414942.840038 
L 624.259649 414942.840038 
L 625.45614 414942.840038 
L 626.652632 414942.840038 
L 627.849123 414942.840038 
L 629.045614 414942.840038 
L 630.242105 414942.840038 
L 631.438596 414942.840038 
L 632.635088 414942.840038 
L 633.831579 414942.840038 
L 635.02807 414942.840038 
L 636.224561 414942.840038 
L 637.421053 414942.840038 
L 638.617544 414942.840038 
L 639.814035 414942.840038 
L 641.010526 414942.840038 
L 642.207018 414942.840038 
L 643.403509 414942.840038 
L 644.6 414942.840038 
L 645.796491 414942.840038 
L 646.992982 414942.840038 
L 648.189474 414942.840038 
L 649.385965 414942.840038 
L 650.582456 414942.840038 
L 651.778947 414942.840038 
L 652.975439 414942.840038 
L 654.17193 414942.840038 
L 655.368421 414942.840038 
L 656.564912 462.683445 
L 657.761404 462.683445 
L 658.957895 462.683445 
L 660.154386 462.683445 
L 661.350877 462.683445 
L 662.547368 462.683445 
L 663.74386 398.46971 
L 664.940351 398.46971 
L 666.136842 398.46971 
L 667.333333 398.46971 
L 668.529825 398.46971 
L 669.726316 398.46971 
L 670.922807 398.46971 
L 672.119298 398.46971 
L 673.315789 462.683445 
L 674.512281 462.683445 
L 675.708772 462.683445 
L 676.905263 462.683445 
L 678.101754 302.938407 
L 679.298246 302.938407 
L 680.494737 462.683445 
L 681.691228 462.683445 
L 682.887719 462.683445 
L 684.084211 462.683445 
L 685.280702 302.938407 
L 686.477193 302.938407 
L 687.673684 273.67942 
L 688.870175 273.67942 
L 690.066667 273.67942 
L 691.263158 273.67942 
L 692.459649 116.06499 
L 693.65614 116.06499 
L 694.852632 116.06499 
L 696.049123 94.86 
L 697.245614 94.86 
L 698.442105 94.86 
L 699.638596 94.86 
L 700.835088 94.86 
L 702.031579 162.924884 
L 703.22807 162.924884 
L 704.424561 119.855327 
L 705.621053 119.855327 
L 706.817544 119.855327 
L 708.014035 119.855327 
L 709.210526 148.88913 
L 710.407018 148.88913 
L 711.603509 148.88913 
L 712.8 162.924884 
L 712.8 414942.840038 
L 712.8 414942.840038 
L 711.603509 414942.840038 
L 710.407018 414942.840038 
L 709.210526 414942.840038 
L 708.014035 414942.840038 
L 706.817544 414942.840038 
L 705.621053 414942.840038 
L 704.424561 414942.840038 
L 703.22807 414942.840038 
L 702.031579 414942.840038 
L 700.835088 414942.840038 
L 699.638596 414942.840038 
L 698.442105 414942.840038 
L 697.245614 414942.840038 
L 696.049123 414942.840038 
L 694.852632 414942.840038 
L 693.65614 414942.840038 
L 692.459649 414942.840038 
L 691.263158 414942.840038 
L 690.066667 414942.840038 
L 688.870175 414942.840038 
L 687.673684 414942.840038 
L 686.477193 414942.840038 
L 685.280702 414942.840038 
L 684.084211 414942.840038 
L 682.887719 414942.840038 
L 681.691228 414942.840038 
L 680.494737 414942.840038 
L 679.298246 414942.840038 
L 678.101754 414942.840038 
L 676.905263 414942.840038 
L 675.708772 414942.840038 
L 674.512281 414942.840038 
L 673.315789 414942.840038 
L 672.119298 414942.840038 
L 670.922807 414942.840038 
L 669.726316 414942.840038 
L 668.529825 414942.840038 
L 667.333333 414942.840038 
L 666.136842 414942.840038 
L 664.940351 414942.840038 
L 663.74386 414942.840038 
L 662.547368 414942.840038 
L 661.350877 414942.840038 
L 660.154386 414942.840038 
L 658.957895 414942.840038 
L 657.761404 414942.840038 
L 656.564912 414942.840038 
L 655.368421 414942.840038 
L 654.17193 414942.840038 
L 652.975439 414942.840038 
L 651.778947 414942.840038 
L 650.582456 414942.840038 
L 649.385965 414942.840038 
L 648.189474 414942.840038 
L 646.992982 414942.840038 
L 645.796491 414942.840038 
L 644.6 414942.840038 
L 643.403509 414942.840038 
L 642.207018 414942.840038 
L 641.010526 414942.840038 
L 639.814035 414942.840038 
L 638.617544 414942.840038 
L 637.421053 414942.840038 
L 636.224561 414942.840038 
L 635.02807 414942.840038 
L 633.831579 414942.840038 
L 632.635088 414942.840038 
L 631.438596 414942.840038 
L 630.242105 414942.840038 
L 629.045614 414942.840038 
L 627.849123 414942.840038 
L 626.652632 414942.840038 
L 625.45614 414942.840038 
L 624.259649 414942.840038 
L 623.063158 414942.840038 
L 621.866667 414942.840038 
L 620.670175 414942.840038 
L 619.473684 414942.840038 
L 618.277193 414942.840038 
L 617.080702 414942.840038 
L 615.884211 414942.840038 
L 614.687719 414942.840038 
L 613.491228 414942.840038 
L 612.294737 414942.840038 
L 611.098246 414942.840038 
L 609.901754 414942.840038 
L 608.705263 414942.840038 
L 607.508772 414942.840038 
L 606.312281 414942.840038 
L 605.115789 414942.840038 
L 603.919298 414942.840038 
L 602.722807 414942.840038 
L 601.526316 414942.840038 
L 600.329825 414942.840038 
L 599.133333 414942.840038 
L 597.936842 414942.840038 
L 596.740351 414942.840038 
L 595.54386 414942.840038 
L 594.347368 414942.840038 
L 593.150877 414942.840038 
L 591.954386 414942.840038 
L 590.757895 414942.840038 
L 589.561404 414942.840038 
L 588.364912 414942.840038 
L 587.168421 414942.840038 
L 585.97193 414942.840038 
L 584.775439 414942.840038 
L 583.578947 414942.840038 
L 582.382456 414942.840038 
L 581.185965 414942.840038 
L 579.989474 414942.840038 
L 578.792982 414942.840038 
L 577.596491 414942.840038 
L 576.4 414942.840038 
L 575.203509 414942.840038 
L 574.007018 414942.840038 
L 572.810526 414942.840038 
L 571.614035 414942.840038 
L 570.417544 414942.840038 
L 569.221053 414942.840038 
L 568.024561 414942.840038 
L 566.82807 414942.840038 
L 565.631579 414942.840038 
L 564.435088 414942.840038 
L 563.238596 414942.840038 
L 562.042105 414942.840038 
L 560.845614 414942.840038 
L 559.649123 414942.840038 
L 558.452632 414942.840038 
L 557.25614 414942.840038 
L 556.059649 414942.840038 
L 554.863158 414942.840038 
L 553.666667 414942.840038 
L 552.470175 414942.840038 
L 551.273684 414942.840038 
L 550.077193 414942.840038 
L 548.880702 414942.840038 
L 547.684211 414942.840038 
L 546.487719 414942.840038 
L 545.291228 414942.840038 
L 544.094737 414942.840038 
L 542.898246 414942.840038 
L 541.701754 414942.840038 
L 540.505263 414942.840038 
L 539.308772 414942.840038 
L 538.112281 414942.840038 
L 536.915789 414942.840038 
L 535.719298 414942.840038 
L 534.522807 414942.840038 
L 533.326316 414942.840038 
L 532.129825 414942.840038 
L 530.933333 414942.840038 
L 529.736842 414942.840038 
L 528.540351 414942.840038 
L 527.34386 414942.840038 
L 526.147368 414942.840038 
L 524.950877 414942.840038 
L 523.754386 414942.840038 
L 522.557895 414942.840038 
L 521.361404 414942.840038 
L 520.164912 414942.840038 
L 518.968421 414942.840038 
L 517.77193 414942.840038 
L 516.575439 414942.840038 
L 515.378947 414942.840038 
L 514.182456 414942.840038 
L 512.985965 414942.840038 
L 511.789474 414942.840038 
L 510.592982 414942.840038 
L 509.396491 414942.840038 
L 508.2 414942.840038 
L 507.003509 414942.840038 
L 505.807018 414942.840038 
L 504.610526 414942.840038 
L 503.414035 414942.840038 
L 502.217544 414942.840038 
L 501.021053 414942.840038 
L 499.824561 414942.840038 
L 498.62807 414942.840038 
L 497.431579 414942.840038 
L 496.235088 414942.840038 
L 495.038596 414942.840038 
L 493.842105 414942.840038 
L 492.645614 414942.840038 
L 491.449123 414942.840038 
L 490.252632 414942.840038 
L 489.05614 414942.840038 
L 487.859649 414942.840038 
L 486.663158 414942.840038 
L 485.466667 414942.840038 
L 484.270175 414942.840038 
L 483.073684 414942.840038 
L 481.877193 414942.840038 
L 480.680702 414942.840038 
L 479.484211 414942.840038 
L 478.287719 414942.840038 
L 477.091228 414942.840038 
L 475.894737 414942.840038 
L 474.698246 414942.840038 
L 473.501754 414942.840038 
L 472.305263 414942.840038 
L 471.108772 414942.840038 
L 469.912281 414942.840038 
L 468.715789 414942.840038 
L 467.519298 414942.840038 
L 466.322807 414942.840038 
L 465.126316 414942.840038 
L 463.929825 414942.840038 
L 462.733333 414942.840038 
L 461.536842 414942.840038 
L 460.340351 414942.840038 
L 459.14386 414942.840038 
L 457.947368 414942.840038 
L 456.750877 414942.840038 
L 455.554386 414942.840038 
L 454.357895 414942.840038 
L 453.161404 414942.840038 
L 451.964912 414942.840038 
L 450.768421 414942.840038 
L 449.57193 414942.840038 
L 448.375439 414942.840038 
L 447.178947 414942.840038 
L 445.982456 414942.840038 
L 444.785965 414942.840038 
L 443.589474 414942.840038 
L 442.392982 414942.840038 
L 441.196491 414942.840038 
L 440 414942.840038 
L 438.803509 414942.840038 
L 437.607018 414942.840038 
L 436.410526 414942.840038 
L 435.214035 414942.840038 
L 434.017544 414942.840038 
L 432.821053 414942.840038 
L 431.624561 414942.840038 
L 430.42807 414942.840038 
L 429.231579 414942.840038 
L 428.035088 414942.840038 
L 426.838596 414942.840038 
L 425.642105 414942.840038 
L 424.445614 414942.840038 
L 423.249123 414942.840038 
L 422.052632 414942.840038 
L 420.85614 414942.840038 
L 419.659649 414942.840038 
L 418.463158 414942.840038 
L 417.266667 414942.840038 
L 416.070175 414942.840038 
L 414.873684 414942.840038 
L 413.677193 414942.840038 
L 412.480702 414942.840038 
L 411.284211 414942.840038 
L 410.087719 414942.840038 
L 408.891228 414942.840038 
L 407.694737 414942.840038 
L 406.498246 414942.840038 
L 405.301754 414942.840038 
L 404.105263 414942.840038 
L 402.908772 414942.840038 
L 401.712281 414942.840038 
L 400.515789 414942.840038 
L 399.319298 414942.840038 
L 398.122807 414942.840038 
L 396.926316 414942.840038 
L 395.729825 414942.840038 
L 394.533333 414942.840038 
L 393.336842 414942.840038 
L 392.140351 414942.840038 
L 390.94386 414942.840038 
L 389.747368 414942.840038 
L 388.550877 414942.840038 
L 387.354386 414942.840038 
L 386.157895 414942.840038 
L 384.961404 414942.840038 
L 383.764912 414942.840038 
L 382.568421 414942.840038 
L 381.37193 414942.840038 
L 380.175439 414942.840038 
L 378.978947 414942.840038 
L 377.782456 414942.840038 
L 376.585965 414942.840038 
L 375.389474 414942.840038 
L 374.192982 414942.840038 
L 372.996491 414942.840038 
L 371.8 414942.840038 
L 370.603509 414942.840038 
L 369.407018 414942.840038 
L 368.210526 414942.840038 
L 367.014035 414942.840038 
L 365.817544 414942.840038 
L 364.621053 414942.840038 
L 363.424561 414942.840038 
L 362.22807 414942.840038 
L 361.031579 414942.840038 
L 359.835088 414942.840038 
L 358.638596 414942.840038 
L 357.442105 414942.840038 
L 356.245614 414942.840038 
L 355.049123 414942.840038 
L 353.852632 414942.840038 
L 352.65614 414942.840038 
L 351.459649 414942.840038 
L 350.263158 414942.840038 
L 349.066667 414942.840038 
L 347.870175 414942.840038 
L 346.673684 414942.840038 
L 345.477193 414942.840038 
L 344.280702 414942.840038 
L 343.084211 414942.840038 
L 341.887719 414942.840038 
L 340.691228 414942.840038 
L 339.494737 414942.840038 
L 338.298246 414942.840038 
L 337.101754 414942.840038 
L 335.905263 414942.840038 
L 334.708772 414942.840038 
L 333.512281 414942.840038 
L 332.315789 414942.840038 
L 331.119298 414942.840038 
L 329.922807 414942.840038 
L 328.726316 414942.840038 
L 327.529825 414942.840038 
L 326.333333 414942.840038 
L 325.136842 414942.840038 
L 323.940351 414942.840038 
L 322.74386 414942.840038 
L 321.547368 414942.840038 
L 320.350877 414942.840038 
L 319.154386 414942.840038 
L 317.957895 414942.840038 
L 316.761404 414942.840038 
L 315.564912 414942.840038 
L 314.368421 414942.840038 
L 313.17193 414942.840038 
L 311.975439 414942.840038 
L 310.778947 414942.840038 
L 309.582456 414942.840038 
L 308.385965 414942.840038 
L 307.189474 414942.840038 
L 305.992982 414942.840038 
L 304.796491 414942.840038 
L 303.6 414942.840038 
L 302.403509 414942.840038 
L 301.207018 414942.840038 
L 300.010526 414942.840038 
L 298.814035 414942.840038 
L 297.617544 414942.840038 
L 296.421053 414942.840038 
L 295.224561 414942.840038 
L 294.02807 414942.840038 
L 292.831579 414942.840038 
L 291.635088 414942.840038 
L 290.438596 414942.840038 
L 289.242105 414942.840038 
L 288.045614 414942.840038 
L 286.849123 414942.840038 
L 285.652632 414942.840038 
L 284.45614 414942.840038 
L 283.259649 414942.840038 
L 282.063158 414942.840038 
L 280.866667 414942.840038 
L 279.670175 414942.840038 
L 278.473684 414942.840038 
L 277.277193 414942.840038 
L 276.080702 414942.840038 
L 274.884211 414942.840038 
L 273.687719 414942.840038 
L 272.491228 414942.840038 
L 271.294737 414942.840038 
L 270.098246 414942.840038 
L 268.901754 414942.840038 
L 267.705263 414942.840038 
L 266.508772 414942.840038 
L 265.312281 414942.840038 
L 264.115789 414942.840038 
L 262.919298 414942.840038 
L 261.722807 414942.840038 
L 260.526316 414942.840038 
L 259.329825 414942.840038 
L 258.133333 414942.840038 
L 256.936842 414942.840038 
L 255.740351 414942.840038 
L 254.54386 414942.840038 
L 253.347368 414942.840038 
L 252.150877 414942.840038 
L 250.954386 414942.840038 
L 249.757895 414942.840038 
L 248.561404 414942.840038 
L 247.364912 414942.840038 
L 246.168421 414942.840038 
L 244.97193 414942.840038 
L 243.775439 414942.840038 
L 242.578947 414942.840038 
L 241.382456 414942.840038 
L 240.185965 414942.840038 
L 238.989474 414942.840038 
L 237.792982 414942.840038 
L 236.596491 414942.840038 
L 235.4 414942.840038 
L 234.203509 414942.840038 
L 233.007018 414942.840038 
L 231.810526 414942.840038 
L 230.614035 414942.840038 
L 229.417544 414942.840038 
L 228.221053 414942.840038 
L 227.024561 414942.840038 
L 225.82807 414942.840038 
L 224.631579 414942.840038 
L 223.435088 414942.840038 
L 222.238596 414942.840038 
L 221.042105 414942.840038 
L 219.845614 414942.840038 
L 218.649123 414942.840038 
L 217.452632 414942.840038 
L 216.25614 414942.840038 
L 215.059649 414942.840038 
L 213.863158 414942.840038 
L 212.666667 414942.840038 
L 211.470175 414942.840038 
L 210.273684 414942.840038 
L 209.077193 414942.840038 
L 207.880702 414942.840038 
L 206.684211 414942.840038 
L 205.487719 414942.840038 
L 204.291228 414942.840038 
L 203.094737 414942.840038 
L 201.898246 414942.840038 
L 200.701754 414942.840038 
L 199.505263 414942.840038 
L 198.308772 414942.840038 
L 197.112281 414942.840038 
L 195.915789 414942.840038 
L 194.719298 414942.840038 
L 193.522807 414942.840038 
L 192.326316 414942.840038 
L 191.129825 414942.840038 
L 189.933333 414942.840038 
L 188.736842 414942.840038 
L 187.540351 414942.840038 
L 186.34386 414942.840038 
L 185.147368 414942.840038 
L 183.950877 414942.840038 
L 182.754386 414942.840038 
L 181.557895 414942.840038 
L 180.361404 414942.840038 
L 179.164912 414942.840038 
L 177.968421 414942.840038 
L 176.77193 414942.840038 
L 175.575439 414942.840038 
L 174.378947 414942.840038 
L 173.182456 414942.840038 
L 171.985965 414942.840038 
L 170.789474 414942.840038 
L 169.592982 414942.840038 
L 168.396491 414942.840038 
L 167.2 414942.840038 
L 166.003509 414942.840038 
L 164.807018 414942.840038 
L 163.610526 414942.840038 
L 162.414035 414942.840038 
L 161.217544 414942.840038 
L 160.021053 414942.840038 
L 158.824561 414942.840038 
L 157.62807 414942.840038 
L 156.431579 414942.840038 
L 155.235088 414942.840038 
L 154.038596 414942.840038 
L 152.842105 414942.840038 
L 151.645614 414942.840038 
L 150.449123 414942.840038 
L 149.252632 414942.840038 
L 148.05614 414942.840038 
L 146.859649 414942.840038 
L 145.663158 414942.840038 
L 144.466667 414942.840038 
L 143.270175 414942.840038 
L 142.073684 414942.840038 
L 140.877193 414942.840038 
L 139.680702 414942.840038 
L 138.484211 414942.840038 
L 137.287719 414942.840038 
L 136.091228 414942.840038 
L 134.894737 414942.840038 
L 133.698246 414942.840038 
L 132.501754 414942.840038 
L 131.305263 414942.840038 
L 130.108772 414942.840038 
L 128.912281 414942.840038 
L 127.715789 414942.840038 
L 126.519298 414942.840038 
L 125.322807 414942.840038 
L 124.126316 414942.840038 
L 122.929825 414942.840038 
L 121.733333 414942.840038 
L 120.536842 414942.840038 
L 119.340351 414942.840038 
L 118.14386 414942.840038 
L 116.947368 414942.840038 
L 115.750877 414942.840038 
L 114.554386 414942.840038 
L 113.357895 414942.840038 
L 112.161404 414942.840038 
L 110.964912 414942.840038 
L 109.768421 414942.840038 
L 108.57193 414942.840038 
L 107.375439 414942.840038 
L 106.178947 414942.840038 
L 104.982456 414942.840038 
L 103.785965 414942.840038 
L 102.589474 414942.840038 
L 101.392982 414942.840038 
L 100.196491 414942.840038 
L 99 414942.840038 
z
" style="fill:#8080ff;fill-opacity:0.5;stroke:#8080ff;stroke-opacity:0.5;"/>
   </g>
   <g id="PolyCollection_2">
    <path clip-path="url(#p68e2955192)" d="M 99 414942.840038 
L 99 414942.840038 
L 100.196491 414942.840038 
L 101.392982 414942.840038 
L 102.589474 414942.840038 
L 103.785965 414942.840038 
L 104.982456 414942.840038 
L 106.178947 414942.840038 
L 107.375439 414942.840038 
L 108.57193 414942.840038 
L 109.768421 414942.840038 
L 110.964912 414942.840038 
L 112.161404 414942.840038 
L 113.357895 414942.840038 
L 114.554386 462.683445 
L 115.750877 462.683445 
L 116.947368 462.683445 
L 118.14386 462.683445 
L 119.340351 462.683445 
L 120.536842 414942.840038 
L 121.733333 414942.840038 
L 122.929825 414942.840038 
L 124.126316 414942.840038 
L 125.322807 414942.840038 
L 126.519298 414942.840038 
L 127.715789 414942.840038 
L 128.912281 414942.840038 
L 130.108772 414942.840038 
L 131.305263 414942.840038 
L 132.501754 414942.840038 
L 133.698246 414942.840038 
L 134.894737 414942.840038 
L 136.091228 414942.840038 
L 137.287719 414942.840038 
L 138.484211 414942.840038 
L 139.680702 414942.840038 
L 140.877193 414942.840038 
L 142.073684 414942.840038 
L 143.270175 414942.840038 
L 144.466667 414942.840038 
L 145.663158 414942.840038 
L 146.859649 414942.840038 
L 148.05614 414942.840038 
L 149.252632 414942.840038 
L 150.449123 414942.840038 
L 151.645614 414942.840038 
L 152.842105 414942.840038 
L 154.038596 414942.840038 
L 155.235088 414942.840038 
L 156.431579 414942.840038 
L 157.62807 414942.840038 
L 158.824561 414942.840038 
L 160.021053 414942.840038 
L 161.217544 414942.840038 
L 162.414035 414942.840038 
L 163.610526 414942.840038 
L 164.807018 414942.840038 
L 166.003509 414942.840038 
L 167.2 414942.840038 
L 168.396491 414942.840038 
L 169.592982 414942.840038 
L 170.789474 414942.840038 
L 171.985965 414942.840038 
L 173.182456 414942.840038 
L 174.378947 414942.840038 
L 175.575439 414942.840038 
L 176.77193 414942.840038 
L 177.968421 414942.840038 
L 179.164912 414942.840038 
L 180.361404 414942.840038 
L 181.557895 414942.840038 
L 182.754386 414942.840038 
L 183.950877 414942.840038 
L 185.147368 414942.840038 
L 186.34386 414942.840038 
L 187.540351 414942.840038 
L 188.736842 414942.840038 
L 189.933333 414942.840038 
L 191.129825 414942.840038 
L 192.326316 414942.840038 
L 193.522807 414942.840038 
L 194.719298 414942.840038 
L 195.915789 414942.840038 
L 197.112281 414942.840038 
L 198.308772 414942.840038 
L 199.505263 414942.840038 
L 200.701754 414942.840038 
L 201.898246 414942.840038 
L 203.094737 414942.840038 
L 204.291228 414942.840038 
L 205.487719 414942.840038 
L 206.684211 414942.840038 
L 207.880702 414942.840038 
L 209.077193 414942.840038 
L 210.273684 414942.840038 
L 211.470175 414942.840038 
L 212.666667 414942.840038 
L 213.863158 414942.840038 
L 215.059649 414942.840038 
L 216.25614 414942.840038 
L 217.452632 414942.840038 
L 218.649123 414942.840038 
L 219.845614 414942.840038 
L 221.042105 414942.840038 
L 222.238596 414942.840038 
L 223.435088 414942.840038 
L 224.631579 414942.840038 
L 225.82807 414942.840038 
L 227.024561 414942.840038 
L 228.221053 414942.840038 
L 229.417544 414942.840038 
L 230.614035 414942.840038 
L 231.810526 414942.840038 
L 233.007018 414942.840038 
L 234.203509 414942.840038 
L 235.4 414942.840038 
L 236.596491 414942.840038 
L 237.792982 414942.840038 
L 238.989474 414942.840038 
L 240.185965 414942.840038 
L 241.382456 414942.840038 
L 242.578947 414942.840038 
L 243.775439 414942.840038 
L 244.97193 414942.840038 
L 246.168421 414942.840038 
L 247.364912 414942.840038 
L 248.561404 414942.840038 
L 249.757895 414942.840038 
L 250.954386 414942.840038 
L 252.150877 414942.840038 
L 253.347368 414942.840038 
L 254.54386 414942.840038 
L 255.740351 414942.840038 
L 256.936842 414942.840038 
L 258.133333 414942.840038 
L 259.329825 414942.840038 
L 260.526316 414942.840038 
L 261.722807 414942.840038 
L 262.919298 414942.840038 
L 264.115789 414942.840038 
L 265.312281 414942.840038 
L 266.508772 414942.840038 
L 267.705263 414942.840038 
L 268.901754 414942.840038 
L 270.098246 414942.840038 
L 271.294737 414942.840038 
L 272.491228 414942.840038 
L 273.687719 414942.840038 
L 274.884211 414942.840038 
L 276.080702 414942.840038 
L 277.277193 414942.840038 
L 278.473684 414942.840038 
L 279.670175 414942.840038 
L 280.866667 414942.840038 
L 282.063158 414942.840038 
L 283.259649 414942.840038 
L 284.45614 414942.840038 
L 285.652632 414942.840038 
L 286.849123 414942.840038 
L 288.045614 414942.840038 
L 289.242105 414942.840038 
L 290.438596 414942.840038 
L 291.635088 414942.840038 
L 292.831579 414942.840038 
L 294.02807 414942.840038 
L 295.224561 414942.840038 
L 296.421053 414942.840038 
L 297.617544 414942.840038 
L 298.814035 414942.840038 
L 300.010526 414942.840038 
L 301.207018 414942.840038 
L 302.403509 414942.840038 
L 303.6 414942.840038 
L 304.796491 414942.840038 
L 305.992982 414942.840038 
L 307.189474 414942.840038 
L 308.385965 414942.840038 
L 309.582456 414942.840038 
L 310.778947 414942.840038 
L 311.975439 414942.840038 
L 313.17193 414942.840038 
L 314.368421 414942.840038 
L 315.564912 414942.840038 
L 316.761404 414942.840038 
L 317.957895 414942.840038 
L 319.154386 414942.840038 
L 320.350877 414942.840038 
L 321.547368 414942.840038 
L 322.74386 414942.840038 
L 323.940351 414942.840038 
L 325.136842 414942.840038 
L 326.333333 414942.840038 
L 327.529825 414942.840038 
L 328.726316 414942.840038 
L 329.922807 414942.840038 
L 331.119298 414942.840038 
L 332.315789 414942.840038 
L 333.512281 414942.840038 
L 334.708772 414942.840038 
L 335.905263 414942.840038 
L 337.101754 414942.840038 
L 338.298246 414942.840038 
L 339.494737 414942.840038 
L 340.691228 414942.840038 
L 341.887719 414942.840038 
L 343.084211 414942.840038 
L 344.280702 414942.840038 
L 345.477193 414942.840038 
L 346.673684 414942.840038 
L 347.870175 414942.840038 
L 349.066667 414942.840038 
L 350.263158 414942.840038 
L 351.459649 414942.840038 
L 352.65614 414942.840038 
L 353.852632 414942.840038 
L 355.049123 414942.840038 
L 356.245614 414942.840038 
L 357.442105 414942.840038 
L 358.638596 414942.840038 
L 359.835088 414942.840038 
L 361.031579 414942.840038 
L 362.22807 414942.840038 
L 363.424561 414942.840038 
L 364.621053 414942.840038 
L 365.817544 414942.840038 
L 367.014035 414942.840038 
L 368.210526 414942.840038 
L 369.407018 414942.840038 
L 370.603509 414942.840038 
L 371.8 414942.840038 
L 372.996491 414942.840038 
L 374.192982 414942.840038 
L 375.389474 414942.840038 
L 376.585965 414942.840038 
L 377.782456 414942.840038 
L 378.978947 414942.840038 
L 380.175439 414942.840038 
L 381.37193 414942.840038 
L 382.568421 414942.840038 
L 383.764912 414942.840038 
L 384.961404 414942.840038 
L 386.157895 414942.840038 
L 387.354386 414942.840038 
L 388.550877 414942.840038 
L 389.747368 414942.840038 
L 390.94386 414942.840038 
L 392.140351 414942.840038 
L 393.336842 414942.840038 
L 394.533333 414942.840038 
L 395.729825 414942.840038 
L 396.926316 414942.840038 
L 398.122807 414942.840038 
L 399.319298 414942.840038 
L 400.515789 414942.840038 
L 401.712281 414942.840038 
L 402.908772 414942.840038 
L 404.105263 414942.840038 
L 405.301754 414942.840038 
L 406.498246 414942.840038 
L 407.694737 414942.840038 
L 408.891228 414942.840038 
L 410.087719 414942.840038 
L 411.284211 414942.840038 
L 412.480702 414942.840038 
L 413.677193 414942.840038 
L 414.873684 414942.840038 
L 416.070175 414942.840038 
L 417.266667 414942.840038 
L 418.463158 414942.840038 
L 419.659649 414942.840038 
L 420.85614 414942.840038 
L 422.052632 414942.840038 
L 423.249123 414942.840038 
L 424.445614 414942.840038 
L 425.642105 414942.840038 
L 426.838596 414942.840038 
L 428.035088 414942.840038 
L 429.231579 414942.840038 
L 430.42807 414942.840038 
L 431.624561 414942.840038 
L 432.821053 414942.840038 
L 434.017544 414942.840038 
L 435.214035 414942.840038 
L 436.410526 414942.840038 
L 437.607018 414942.840038 
L 438.803509 414942.840038 
L 440 414942.840038 
L 441.196491 414942.840038 
L 442.392982 414942.840038 
L 443.589474 414942.840038 
L 444.785965 414942.840038 
L 445.982456 414942.840038 
L 447.178947 414942.840038 
L 448.375439 414942.840038 
L 449.57193 414942.840038 
L 450.768421 414942.840038 
L 451.964912 414942.840038 
L 453.161404 414942.840038 
L 454.357895 414942.840038 
L 455.554386 414942.840038 
L 456.750877 414942.840038 
L 457.947368 414942.840038 
L 459.14386 414942.840038 
L 460.340351 414942.840038 
L 461.536842 414942.840038 
L 462.733333 414942.840038 
L 463.929825 414942.840038 
L 465.126316 414942.840038 
L 466.322807 414942.840038 
L 467.519298 414942.840038 
L 468.715789 414942.840038 
L 469.912281 414942.840038 
L 471.108772 414942.840038 
L 472.305263 414942.840038 
L 473.501754 414942.840038 
L 474.698246 414942.840038 
L 475.894737 414942.840038 
L 477.091228 414942.840038 
L 478.287719 414942.840038 
L 479.484211 414942.840038 
L 480.680702 414942.840038 
L 481.877193 414942.840038 
L 483.073684 414942.840038 
L 484.270175 414942.840038 
L 485.466667 414942.840038 
L 486.663158 414942.840038 
L 487.859649 414942.840038 
L 489.05614 414942.840038 
L 490.252632 414942.840038 
L 491.449123 414942.840038 
L 492.645614 414942.840038 
L 493.842105 414942.840038 
L 495.038596 414942.840038 
L 496.235088 414942.840038 
L 497.431579 414942.840038 
L 498.62807 414942.840038 
L 499.824561 414942.840038 
L 501.021053 414942.840038 
L 502.217544 414942.840038 
L 503.414035 414942.840038 
L 504.610526 414942.840038 
L 505.807018 414942.840038 
L 507.003509 414942.840038 
L 508.2 414942.840038 
L 509.396491 414942.840038 
L 510.592982 414942.840038 
L 511.789474 414942.840038 
L 512.985965 414942.840038 
L 514.182456 414942.840038 
L 515.378947 414942.840038 
L 516.575439 414942.840038 
L 517.77193 414942.840038 
L 518.968421 414942.840038 
L 520.164912 414942.840038 
L 521.361404 414942.840038 
L 522.557895 414942.840038 
L 523.754386 414942.840038 
L 524.950877 414942.840038 
L 526.147368 414942.840038 
L 527.34386 414942.840038 
L 528.540351 414942.840038 
L 529.736842 414942.840038 
L 530.933333 414942.840038 
L 532.129825 414942.840038 
L 533.326316 414942.840038 
L 534.522807 414942.840038 
L 535.719298 414942.840038 
L 536.915789 414942.840038 
L 538.112281 414942.840038 
L 539.308772 414942.840038 
L 540.505263 414942.840038 
L 541.701754 414942.840038 
L 542.898246 414942.840038 
L 544.094737 414942.840038 
L 545.291228 414942.840038 
L 546.487719 414942.840038 
L 547.684211 414942.840038 
L 548.880702 414942.840038 
L 550.077193 414942.840038 
L 551.273684 414942.840038 
L 552.470175 414942.840038 
L 553.666667 414942.840038 
L 554.863158 414942.840038 
L 556.059649 414942.840038 
L 557.25614 414942.840038 
L 558.452632 414942.840038 
L 559.649123 414942.840038 
L 560.845614 414942.840038 
L 562.042105 414942.840038 
L 563.238596 414942.840038 
L 564.435088 414942.840038 
L 565.631579 414942.840038 
L 566.82807 414942.840038 
L 568.024561 414942.840038 
L 569.221053 414942.840038 
L 570.417544 414942.840038 
L 571.614035 414942.840038 
L 572.810526 414942.840038 
L 574.007018 414942.840038 
L 575.203509 414942.840038 
L 576.4 414942.840038 
L 577.596491 414942.840038 
L 578.792982 414942.840038 
L 579.989474 414942.840038 
L 581.185965 414942.840038 
L 582.382456 414942.840038 
L 583.578947 414942.840038 
L 584.775439 414942.840038 
L 585.97193 414942.840038 
L 587.168421 414942.840038 
L 588.364912 414942.840038 
L 589.561404 414942.840038 
L 590.757895 414942.840038 
L 591.954386 414942.840038 
L 593.150877 414942.840038 
L 594.347368 414942.840038 
L 595.54386 414942.840038 
L 596.740351 414942.840038 
L 597.936842 414942.840038 
L 599.133333 414942.840038 
L 600.329825 414942.840038 
L 601.526316 414942.840038 
L 602.722807 414942.840038 
L 603.919298 414942.840038 
L 605.115789 414942.840038 
L 606.312281 414942.840038 
L 607.508772 414942.840038 
L 608.705263 414942.840038 
L 609.901754 414942.840038 
L 611.098246 414942.840038 
L 612.294737 414942.840038 
L 613.491228 414942.840038 
L 614.687719 414942.840038 
L 615.884211 414942.840038 
L 617.080702 414942.840038 
L 618.277193 414942.840038 
L 619.473684 414942.840038 
L 620.670175 414942.840038 
L 621.866667 414942.840038 
L 623.063158 414942.840038 
L 624.259649 414942.840038 
L 625.45614 414942.840038 
L 626.652632 414942.840038 
L 627.849123 414942.840038 
L 629.045614 414942.840038 
L 630.242105 414942.840038 
L 631.438596 414942.840038 
L 632.635088 414942.840038 
L 633.831579 414942.840038 
L 635.02807 414942.840038 
L 636.224561 414942.840038 
L 637.421053 414942.840038 
L 638.617544 414942.840038 
L 639.814035 414942.840038 
L 641.010526 414942.840038 
L 642.207018 414942.840038 
L 643.403509 414942.840038 
L 644.6 414942.840038 
L 645.796491 414942.840038 
L 646.992982 414942.840038 
L 648.189474 414942.840038 
L 649.385965 414942.840038 
L 650.582456 414942.840038 
L 651.778947 414942.840038 
L 652.975439 414942.840038 
L 654.17193 414942.840038 
L 655.368421 414942.840038 
L 656.564912 414942.840038 
L 657.761404 414942.840038 
L 658.957895 414942.840038 
L 660.154386 414942.840038 
L 661.350877 414942.840038 
L 662.547368 414942.840038 
L 663.74386 414942.840038 
L 664.940351 414942.840038 
L 666.136842 414942.840038 
L 667.333333 414942.840038 
L 668.529825 414942.840038 
L 669.726316 414942.840038 
L 670.922807 414942.840038 
L 672.119298 414942.840038 
L 673.315789 414942.840038 
L 674.512281 414942.840038 
L 675.708772 414942.840038 
L 676.905263 414942.840038 
L 678.101754 414942.840038 
L 679.298246 414942.840038 
L 680.494737 414942.840038 
L 681.691228 414942.840038 
L 682.887719 414942.840038 
L 684.084211 414942.840038 
L 685.280702 414942.840038 
L 686.477193 414942.840038 
L 687.673684 414942.840038 
L 688.870175 414942.840038 
L 690.066667 414942.840038 
L 691.263158 414942.840038 
L 692.459649 414942.840038 
L 693.65614 414942.840038 
L 694.852632 414942.840038 
L 696.049123 414942.840038 
L 697.245614 414942.840038 
L 698.442105 414942.840038 
L 699.638596 414942.840038 
L 700.835088 414942.840038 
L 702.031579 414942.840038 
L 703.22807 414942.840038 
L 704.424561 414942.840038 
L 705.621053 414942.840038 
L 706.817544 414942.840038 
L 708.014035 414942.840038 
L 709.210526 414942.840038 
L 710.407018 414942.840038 
L 711.603509 414942.840038 
L 712.8 414942.840038 
L 712.8 414942.840038 
L 712.8 414942.840038 
L 711.603509 414942.840038 
L 710.407018 414942.840038 
L 709.210526 414942.840038 
L 708.014035 414942.840038 
L 706.817544 414942.840038 
L 705.621053 414942.840038 
L 704.424561 414942.840038 
L 703.22807 414942.840038 
L 702.031579 414942.840038 
L 700.835088 414942.840038 
L 699.638596 414942.840038 
L 698.442105 414942.840038 
L 697.245614 414942.840038 
L 696.049123 414942.840038 
L 694.852632 414942.840038 
L 693.65614 414942.840038 
L 692.459649 414942.840038 
L 691.263158 414942.840038 
L 690.066667 414942.840038 
L 688.870175 414942.840038 
L 687.673684 414942.840038 
L 686.477193 414942.840038 
L 685.280702 414942.840038 
L 684.084211 414942.840038 
L 682.887719 414942.840038 
L 681.691228 414942.840038 
L 680.494737 414942.840038 
L 679.298246 414942.840038 
L 678.101754 414942.840038 
L 676.905263 414942.840038 
L 675.708772 414942.840038 
L 674.512281 414942.840038 
L 673.315789 414942.840038 
L 672.119298 414942.840038 
L 670.922807 414942.840038 
L 669.726316 414942.840038 
L 668.529825 414942.840038 
L 667.333333 414942.840038 
L 666.136842 414942.840038 
L 664.940351 414942.840038 
L 663.74386 414942.840038 
L 662.547368 414942.840038 
L 661.350877 414942.840038 
L 660.154386 414942.840038 
L 658.957895 414942.840038 
L 657.761404 414942.840038 
L 656.564912 414942.840038 
L 655.368421 414942.840038 
L 654.17193 414942.840038 
L 652.975439 414942.840038 
L 651.778947 414942.840038 
L 650.582456 414942.840038 
L 649.385965 414942.840038 
L 648.189474 414942.840038 
L 646.992982 414942.840038 
L 645.796491 414942.840038 
L 644.6 414942.840038 
L 643.403509 414942.840038 
L 642.207018 414942.840038 
L 641.010526 414942.840038 
L 639.814035 414942.840038 
L 638.617544 414942.840038 
L 637.421053 414942.840038 
L 636.224561 414942.840038 
L 635.02807 414942.840038 
L 633.831579 414942.840038 
L 632.635088 414942.840038 
L 631.438596 414942.840038 
L 630.242105 414942.840038 
L 629.045614 414942.840038 
L 627.849123 414942.840038 
L 626.652632 414942.840038 
L 625.45614 414942.840038 
L 624.259649 414942.840038 
L 623.063158 414942.840038 
L 621.866667 414942.840038 
L 620.670175 414942.840038 
L 619.473684 414942.840038 
L 618.277193 414942.840038 
L 617.080702 414942.840038 
L 615.884211 414942.840038 
L 614.687719 414942.840038 
L 613.491228 414942.840038 
L 612.294737 414942.840038 
L 611.098246 414942.840038 
L 609.901754 414942.840038 
L 608.705263 414942.840038 
L 607.508772 414942.840038 
L 606.312281 414942.840038 
L 605.115789 414942.840038 
L 603.919298 414942.840038 
L 602.722807 414942.840038 
L 601.526316 414942.840038 
L 600.329825 414942.840038 
L 599.133333 414942.840038 
L 597.936842 414942.840038 
L 596.740351 414942.840038 
L 595.54386 414942.840038 
L 594.347368 414942.840038 
L 593.150877 414942.840038 
L 591.954386 414942.840038 
L 590.757895 414942.840038 
L 589.561404 414942.840038 
L 588.364912 414942.840038 
L 587.168421 414942.840038 
L 585.97193 414942.840038 
L 584.775439 414942.840038 
L 583.578947 414942.840038 
L 582.382456 414942.840038 
L 581.185965 414942.840038 
L 579.989474 414942.840038 
L 578.792982 414942.840038 
L 577.596491 414942.840038 
L 576.4 414942.840038 
L 575.203509 414942.840038 
L 574.007018 414942.840038 
L 572.810526 414942.840038 
L 571.614035 414942.840038 
L 570.417544 414942.840038 
L 569.221053 414942.840038 
L 568.024561 414942.840038 
L 566.82807 414942.840038 
L 565.631579 414942.840038 
L 564.435088 414942.840038 
L 563.238596 414942.840038 
L 562.042105 414942.840038 
L 560.845614 414942.840038 
L 559.649123 414942.840038 
L 558.452632 414942.840038 
L 557.25614 414942.840038 
L 556.059649 414942.840038 
L 554.863158 414942.840038 
L 553.666667 414942.840038 
L 552.470175 414942.840038 
L 551.273684 414942.840038 
L 550.077193 414942.840038 
L 548.880702 414942.840038 
L 547.684211 414942.840038 
L 546.487719 414942.840038 
L 545.291228 414942.840038 
L 544.094737 414942.840038 
L 542.898246 414942.840038 
L 541.701754 414942.840038 
L 540.505263 414942.840038 
L 539.308772 414942.840038 
L 538.112281 414942.840038 
L 536.915789 414942.840038 
L 535.719298 414942.840038 
L 534.522807 414942.840038 
L 533.326316 414942.840038 
L 532.129825 414942.840038 
L 530.933333 414942.840038 
L 529.736842 414942.840038 
L 528.540351 414942.840038 
L 527.34386 414942.840038 
L 526.147368 414942.840038 
L 524.950877 414942.840038 
L 523.754386 414942.840038 
L 522.557895 414942.840038 
L 521.361404 414942.840038 
L 520.164912 414942.840038 
L 518.968421 414942.840038 
L 517.77193 414942.840038 
L 516.575439 414942.840038 
L 515.378947 414942.840038 
L 514.182456 414942.840038 
L 512.985965 414942.840038 
L 511.789474 414942.840038 
L 510.592982 414942.840038 
L 509.396491 414942.840038 
L 508.2 414942.840038 
L 507.003509 414942.840038 
L 505.807018 414942.840038 
L 504.610526 414942.840038 
L 503.414035 414942.840038 
L 502.217544 414942.840038 
L 501.021053 414942.840038 
L 499.824561 414942.840038 
L 498.62807 414942.840038 
L 497.431579 414942.840038 
L 496.235088 414942.840038 
L 495.038596 414942.840038 
L 493.842105 414942.840038 
L 492.645614 414942.840038 
L 491.449123 414942.840038 
L 490.252632 414942.840038 
L 489.05614 414942.840038 
L 487.859649 414942.840038 
L 486.663158 414942.840038 
L 485.466667 414942.840038 
L 484.270175 414942.840038 
L 483.073684 414942.840038 
L 481.877193 414942.840038 
L 480.680702 414942.840038 
L 479.484211 414942.840038 
L 478.287719 414942.840038 
L 477.091228 414942.840038 
L 475.894737 414942.840038 
L 474.698246 414942.840038 
L 473.501754 414942.840038 
L 472.305263 414942.840038 
L 471.108772 414942.840038 
L 469.912281 414942.840038 
L 468.715789 414942.840038 
L 467.519298 414942.840038 
L 466.322807 414942.840038 
L 465.126316 414942.840038 
L 463.929825 414942.840038 
L 462.733333 414942.840038 
L 461.536842 414942.840038 
L 460.340351 414942.840038 
L 459.14386 414942.840038 
L 457.947368 414942.840038 
L 456.750877 414942.840038 
L 455.554386 414942.840038 
L 454.357895 414942.840038 
L 453.161404 414942.840038 
L 451.964912 414942.840038 
L 450.768421 414942.840038 
L 449.57193 414942.840038 
L 448.375439 414942.840038 
L 447.178947 414942.840038 
L 445.982456 414942.840038 
L 444.785965 414942.840038 
L 443.589474 414942.840038 
L 442.392982 414942.840038 
L 441.196491 414942.840038 
L 440 414942.840038 
L 438.803509 414942.840038 
L 437.607018 414942.840038 
L 436.410526 414942.840038 
L 435.214035 414942.840038 
L 434.017544 414942.840038 
L 432.821053 414942.840038 
L 431.624561 414942.840038 
L 430.42807 414942.840038 
L 429.231579 414942.840038 
L 428.035088 414942.840038 
L 426.838596 414942.840038 
L 425.642105 414942.840038 
L 424.445614 414942.840038 
L 423.249123 414942.840038 
L 422.052632 414942.840038 
L 420.85614 414942.840038 
L 419.659649 414942.840038 
L 418.463158 414942.840038 
L 417.266667 414942.840038 
L 416.070175 414942.840038 
L 414.873684 414942.840038 
L 413.677193 414942.840038 
L 412.480702 414942.840038 
L 411.284211 414942.840038 
L 410.087719 414942.840038 
L 408.891228 414942.840038 
L 407.694737 414942.840038 
L 406.498246 414942.840038 
L 405.301754 414942.840038 
L 404.105263 414942.840038 
L 402.908772 414942.840038 
L 401.712281 414942.840038 
L 400.515789 414942.840038 
L 399.319298 414942.840038 
L 398.122807 414942.840038 
L 396.926316 414942.840038 
L 395.729825 414942.840038 
L 394.533333 414942.840038 
L 393.336842 414942.840038 
L 392.140351 414942.840038 
L 390.94386 414942.840038 
L 389.747368 414942.840038 
L 388.550877 414942.840038 
L 387.354386 414942.840038 
L 386.157895 414942.840038 
L 384.961404 414942.840038 
L 383.764912 414942.840038 
L 382.568421 414942.840038 
L 381.37193 414942.840038 
L 380.175439 414942.840038 
L 378.978947 414942.840038 
L 377.782456 414942.840038 
L 376.585965 414942.840038 
L 375.389474 414942.840038 
L 374.192982 414942.840038 
L 372.996491 414942.840038 
L 371.8 414942.840038 
L 370.603509 414942.840038 
L 369.407018 414942.840038 
L 368.210526 414942.840038 
L 367.014035 414942.840038 
L 365.817544 414942.840038 
L 364.621053 414942.840038 
L 363.424561 414942.840038 
L 362.22807 414942.840038 
L 361.031579 414942.840038 
L 359.835088 414942.840038 
L 358.638596 414942.840038 
L 357.442105 414942.840038 
L 356.245614 414942.840038 
L 355.049123 414942.840038 
L 353.852632 414942.840038 
L 352.65614 414942.840038 
L 351.459649 414942.840038 
L 350.263158 414942.840038 
L 349.066667 414942.840038 
L 347.870175 414942.840038 
L 346.673684 414942.840038 
L 345.477193 414942.840038 
L 344.280702 414942.840038 
L 343.084211 414942.840038 
L 341.887719 414942.840038 
L 340.691228 414942.840038 
L 339.494737 414942.840038 
L 338.298246 414942.840038 
L 337.101754 414942.840038 
L 335.905263 414942.840038 
L 334.708772 414942.840038 
L 333.512281 414942.840038 
L 332.315789 414942.840038 
L 331.119298 414942.840038 
L 329.922807 414942.840038 
L 328.726316 414942.840038 
L 327.529825 414942.840038 
L 326.333333 414942.840038 
L 325.136842 414942.840038 
L 323.940351 414942.840038 
L 322.74386 414942.840038 
L 321.547368 414942.840038 
L 320.350877 414942.840038 
L 319.154386 414942.840038 
L 317.957895 414942.840038 
L 316.761404 414942.840038 
L 315.564912 414942.840038 
L 314.368421 414942.840038 
L 313.17193 414942.840038 
L 311.975439 414942.840038 
L 310.778947 414942.840038 
L 309.582456 414942.840038 
L 308.385965 414942.840038 
L 307.189474 414942.840038 
L 305.992982 414942.840038 
L 304.796491 414942.840038 
L 303.6 414942.840038 
L 302.403509 414942.840038 
L 301.207018 414942.840038 
L 300.010526 414942.840038 
L 298.814035 414942.840038 
L 297.617544 414942.840038 
L 296.421053 414942.840038 
L 295.224561 414942.840038 
L 294.02807 414942.840038 
L 292.831579 414942.840038 
L 291.635088 414942.840038 
L 290.438596 414942.840038 
L 289.242105 414942.840038 
L 288.045614 414942.840038 
L 286.849123 414942.840038 
L 285.652632 414942.840038 
L 284.45614 414942.840038 
L 283.259649 414942.840038 
L 282.063158 414942.840038 
L 280.866667 414942.840038 
L 279.670175 414942.840038 
L 278.473684 414942.840038 
L 277.277193 414942.840038 
L 276.080702 414942.840038 
L 274.884211 414942.840038 
L 273.687719 414942.840038 
L 272.491228 414942.840038 
L 271.294737 414942.840038 
L 270.098246 414942.840038 
L 268.901754 414942.840038 
L 267.705263 414942.840038 
L 266.508772 414942.840038 
L 265.312281 414942.840038 
L 264.115789 414942.840038 
L 262.919298 414942.840038 
L 261.722807 414942.840038 
L 260.526316 414942.840038 
L 259.329825 414942.840038 
L 258.133333 414942.840038 
L 256.936842 414942.840038 
L 255.740351 414942.840038 
L 254.54386 414942.840038 
L 253.347368 414942.840038 
L 252.150877 414942.840038 
L 250.954386 414942.840038 
L 249.757895 414942.840038 
L 248.561404 414942.840038 
L 247.364912 414942.840038 
L 246.168421 414942.840038 
L 244.97193 414942.840038 
L 243.775439 414942.840038 
L 242.578947 414942.840038 
L 241.382456 414942.840038 
L 240.185965 414942.840038 
L 238.989474 414942.840038 
L 237.792982 414942.840038 
L 236.596491 414942.840038 
L 235.4 414942.840038 
L 234.203509 414942.840038 
L 233.007018 414942.840038 
L 231.810526 414942.840038 
L 230.614035 414942.840038 
L 229.417544 414942.840038 
L 228.221053 414942.840038 
L 227.024561 414942.840038 
L 225.82807 414942.840038 
L 224.631579 414942.840038 
L 223.435088 414942.840038 
L 222.238596 414942.840038 
L 221.042105 414942.840038 
L 219.845614 414942.840038 
L 218.649123 414942.840038 
L 217.452632 414942.840038 
L 216.25614 414942.840038 
L 215.059649 414942.840038 
L 213.863158 414942.840038 
L 212.666667 414942.840038 
L 211.470175 414942.840038 
L 210.273684 414942.840038 
L 209.077193 414942.840038 
L 207.880702 414942.840038 
L 206.684211 414942.840038 
L 205.487719 414942.840038 
L 204.291228 414942.840038 
L 203.094737 414942.840038 
L 201.898246 414942.840038 
L 200.701754 414942.840038 
L 199.505263 414942.840038 
L 198.308772 414942.840038 
L 197.112281 414942.840038 
L 195.915789 414942.840038 
L 194.719298 414942.840038 
L 193.522807 414942.840038 
L 192.326316 414942.840038 
L 191.129825 414942.840038 
L 189.933333 414942.840038 
L 188.736842 414942.840038 
L 187.540351 414942.840038 
L 186.34386 414942.840038 
L 185.147368 414942.840038 
L 183.950877 414942.840038 
L 182.754386 414942.840038 
L 181.557895 414942.840038 
L 180.361404 414942.840038 
L 179.164912 414942.840038 
L 177.968421 414942.840038 
L 176.77193 414942.840038 
L 175.575439 414942.840038 
L 174.378947 414942.840038 
L 173.182456 414942.840038 
L 171.985965 414942.840038 
L 170.789474 414942.840038 
L 169.592982 414942.840038 
L 168.396491 414942.840038 
L 167.2 414942.840038 
L 166.003509 414942.840038 
L 164.807018 414942.840038 
L 163.610526 414942.840038 
L 162.414035 414942.840038 
L 161.217544 414942.840038 
L 160.021053 414942.840038 
L 158.824561 414942.840038 
L 157.62807 414942.840038 
L 156.431579 414942.840038 
L 155.235088 414942.840038 
L 154.038596 414942.840038 
L 152.842105 414942.840038 
L 151.645614 414942.840038 
L 150.449123 414942.840038 
L 149.252632 414942.840038 
L 148.05614 414942.840038 
L 146.859649 414942.840038 
L 145.663158 414942.840038 
L 144.466667 414942.840038 
L 143.270175 414942.840038 
L 142.073684 414942.840038 
L 140.877193 414942.840038 
L 139.680702 414942.840038 
L 138.484211 414942.840038 
L 137.287719 414942.840038 
L 136.091228 414942.840038 
L 134.894737 414942.840038 
L 133.698246 414942.840038 
L 132.501754 414942.840038 
L 131.305263 414942.840038 
L 130.108772 414942.840038 
L 128.912281 414942.840038 
L 127.715789 414942.840038 
L 126.519298 414942.840038 
L 125.322807 414942.840038 
L 124.126316 414942.840038 
L 122.929825 414942.840038 
L 121.733333 414942.840038 
L 120.536842 414942.840038 
L 119.340351 414942.840038 
L 118.14386 414942.840038 
L 116.947368 414942.840038 
L 115.750877 414942.840038 
L 114.554386 414942.840038 
L 113.357895 414942.840038 
L 112.161404 414942.840038 
L 110.964912 414942.840038 
L 109.768421 414942.840038 
L 108.57193 414942.840038 
L 107.375439 414942.840038 
L 106.178947 414942.840038 
L 104.982456 414942.840038 
L 103.785965 414942.840038 
L 102.589474 414942.840038 
L 101.392982 414942.840038 
L 100.196491 414942.840038 
L 99 414942.840038 
z
" style="fill:#ff8080;fill-opacity:0.5;stroke:#ff8080;stroke-opacity:0.5;"/>
   </g>
   <g id="matplotlib.axis_1">
    <g id="xtick_1">
     <g id="line2d_1">
      <path clip-path="url(#p68e2955192)" d="M 99 544.68 
L 99 73.44 
" style="fill:none;stroke:#b0b0b0;stroke-linecap:square;stroke-width:0.8;"/>
     </g>
     <g id="line2d_2">
      <defs>
       <path d="M 0 0 
L 0 3.5 
" id="m4abed1d830" style="stroke:#000000;stroke-width:0.8;"/>
      </defs>
      <g>
       <use style="stroke:#000000;stroke-width:0.8;" x="99" xlink:href="#m4abed1d830" y="544.68"/>
      </g>
     </g>
    </g>
    <g id="xtick_2">
     <g id="line2d_3">
      <path clip-path="url(#p68e2955192)" d="M 103.785965 544.68 
L 103.785965 73.44 
" style="fill:none;stroke:#b0b0b0;stroke-linecap:square;stroke-width:0.8;"/>
     </g>
     <g id="line2d_4">
      <g>
       <use style="stroke:#000000;stroke-width:0.8;" x="103.785965" xlink:href="#m4abed1d830" y="544.68"/>
      </g>
     </g>
     <g id="text_1">
      <!-- Apr -->
      <g transform="translate(95.135965 559.278437)scale(0.1 -0.1)">
       <defs>
        <path d="M 2188 4044 
L 1331 1722 
L 3047 1722 
L 2188 4044 
z
M 1831 4666 
L 2547 4666 
L 4325 0 
L 3669 0 
L 3244 1197 
L 1141 1197 
L 716 0 
L 50 0 
L 1831 4666 
z
" id="DejaVuSans-41" transform="scale(0.015625)"/>
        <path d="M 1159 525 
L 1159 -1331 
L 581 -1331 
L 581 3500 
L 1159 3500 
L 1159 2969 
Q 1341 3281 1617 3432 
Q 1894 3584 2278 3584 
Q 2916 3584 3314 3078 
Q 3713 2572 3713 1747 
Q 3713 922 3314 415 
Q 2916 -91 2278 -91 
Q 1894 -91 1617 61 
Q 1341 213 1159 525 
z
M 3116 1747 
Q 3116 2381 2855 2742 
Q 2594 3103 2138 3103 
Q 1681 3103 1420 2742 
Q 1159 2381 1159 1747 
Q 1159 1113 1420 752 
Q 1681 391 2138 391 
Q 2594 391 2855 752 
Q 3116 1113 3116 1747 
z
" id="DejaVuSans-70" transform="scale(0.015625)"/>
        <path d="M 2631 2963 
Q 2534 3019 2420 3045 
Q 2306 3072 2169 3072 
Q 1681 3072 1420 2755 
Q 1159 2438 1159 1844 
L 1159 0 
L 581 0 
L 581 3500 
L 1159 3500 
L 1159 2956 
Q 1341 3275 1631 3429 
Q 1922 3584 2338 3584 
Q 2397 3584 2469 3576 
Q 2541 3569 2628 3553 
L 2631 2963 
z
" id="DejaVuSans-72" transform="scale(0.015625)"/>
       </defs>
       <use xlink:href="#DejaVuSans-41"/>
       <use x="68.408203" xlink:href="#DejaVuSans-70"/>
       <use x="131.884766" xlink:href="#DejaVuSans-72"/>
      </g>
     </g>
    </g>
    <g id="xtick_3">
     <g id="line2d_5">
      <path clip-path="url(#p68e2955192)" d="M 212.666667 544.68 
L 212.666667 73.44 
" style="fill:none;stroke:#b0b0b0;stroke-linecap:square;stroke-width:0.8;"/>
     </g>
     <g id="line2d_6">
      <g>
       <use style="stroke:#000000;stroke-width:0.8;" x="212.666667" xlink:href="#m4abed1d830" y="544.68"/>
      </g>
     </g>
     <g id="text_2">
      <!-- Jul -->
      <g transform="translate(206.633854 559.278437)scale(0.1 -0.1)">
       <defs>
        <path d="M 628 4666 
L 1259 4666 
L 1259 325 
Q 1259 -519 939 -900 
Q 619 -1281 -91 -1281 
L -331 -1281 
L -331 -750 
L -134 -750 
Q 284 -750 456 -515 
Q 628 -281 628 325 
L 628 4666 
z
" id="DejaVuSans-4a" transform="scale(0.015625)"/>
        <path d="M 544 1381 
L 544 3500 
L 1119 3500 
L 1119 1403 
Q 1119 906 1312 657 
Q 1506 409 1894 409 
Q 2359 409 2629 706 
Q 2900 1003 2900 1516 
L 2900 3500 
L 3475 3500 
L 3475 0 
L 2900 0 
L 2900 538 
Q 2691 219 2414 64 
Q 2138 -91 1772 -91 
Q 1169 -91 856 284 
Q 544 659 544 1381 
z
M 1991 3584 
L 1991 3584 
z
" id="DejaVuSans-75" transform="scale(0.015625)"/>
        <path d="M 603 4863 
L 1178 4863 
L 1178 0 
L 603 0 
L 603 4863 
z
" id="DejaVuSans-6c" transform="scale(0.015625)"/>
       </defs>
       <use xlink:href="#DejaVuSans-4a"/>
       <use x="29.492188" xlink:href="#DejaVuSans-75"/>
       <use x="92.871094" xlink:href="#DejaVuSans-6c"/>
      </g>
     </g>
    </g>
    <g id="xtick_4">
     <g id="line2d_7">
      <path clip-path="url(#p68e2955192)" d="M 322.74386 544.68 
L 322.74386 73.44 
" style="fill:none;stroke:#b0b0b0;stroke-linecap:square;stroke-width:0.8;"/>
     </g>
     <g id="line2d_8">
      <g>
       <use style="stroke:#000000;stroke-width:0.8;" x="322.74386" xlink:href="#m4abed1d830" y="544.68"/>
      </g>
     </g>
     <g id="text_3">
      <!-- Oct -->
      <g transform="translate(314.098547 559.278437)scale(0.1 -0.1)">
       <defs>
        <path d="M 2522 4238 
Q 1834 4238 1429 3725 
Q 1025 3213 1025 2328 
Q 1025 1447 1429 934 
Q 1834 422 2522 422 
Q 3209 422 3611 934 
Q 4013 1447 4013 2328 
Q 4013 3213 3611 3725 
Q 3209 4238 2522 4238 
z
M 2522 4750 
Q 3503 4750 4090 4092 
Q 4678 3434 4678 2328 
Q 4678 1225 4090 567 
Q 3503 -91 2522 -91 
Q 1538 -91 948 565 
Q 359 1222 359 2328 
Q 359 3434 948 4092 
Q 1538 4750 2522 4750 
z
" id="DejaVuSans-4f" transform="scale(0.015625)"/>
        <path d="M 3122 3366 
L 3122 2828 
Q 2878 2963 2633 3030 
Q 2388 3097 2138 3097 
Q 1578 3097 1268 2742 
Q 959 2388 959 1747 
Q 959 1106 1268 751 
Q 1578 397 2138 397 
Q 2388 397 2633 464 
Q 2878 531 3122 666 
L 3122 134 
Q 2881 22 2623 -34 
Q 2366 -91 2075 -91 
Q 1284 -91 818 406 
Q 353 903 353 1747 
Q 353 2603 823 3093 
Q 1294 3584 2113 3584 
Q 2378 3584 2631 3529 
Q 2884 3475 3122 3366 
z
" id="DejaVuSans-63" transform="scale(0.015625)"/>
        <path d="M 1172 4494 
L 1172 3500 
L 2356 3500 
L 2356 3053 
L 1172 3053 
L 1172 1153 
Q 1172 725 1289 603 
Q 1406 481 1766 481 
L 2356 481 
L 2356 0 
L 1766 0 
Q 1100 0 847 248 
Q 594 497 594 1153 
L 594 3053 
L 172 3053 
L 172 3500 
L 594 3500 
L 594 4494 
L 1172 4494 
z
" id="DejaVuSans-74" transform="scale(0.015625)"/>
       </defs>
       <use xlink:href="#DejaVuSans-4f"/>
       <use x="78.710938" xlink:href="#DejaVuSans-63"/>
       <use x="133.691406" xlink:href="#DejaVuSans-74"/>
      </g>
     </g>
    </g>
    <g id="xtick_5">
     <g id="line2d_9">
      <path clip-path="url(#p68e2955192)" d="M 432.821053 544.68 
L 432.821053 73.44 
" style="fill:none;stroke:#b0b0b0;stroke-linecap:square;stroke-width:0.8;"/>
     </g>
     <g id="line2d_10">
      <g>
       <use style="stroke:#000000;stroke-width:0.8;" x="432.821053" xlink:href="#m4abed1d830" y="544.68"/>
      </g>
     </g>
     <g id="text_4">
      <!-- Jan -->
      <g transform="translate(425.11324 559.278437)scale(0.1 -0.1)">
       <defs>
        <path d="M 2194 1759 
Q 1497 1759 1228 1600 
Q 959 1441 959 1056 
Q 959 750 1161 570 
Q 1363 391 1709 391 
Q 2188 391 2477 730 
Q 2766 1069 2766 1631 
L 2766 1759 
L 2194 1759 
z
M 3341 1997 
L 3341 0 
L 2766 0 
L 2766 531 
Q 2569 213 2275 61 
Q 1981 -91 1556 -91 
Q 1019 -91 701 211 
Q 384 513 384 1019 
Q 384 1609 779 1909 
Q 1175 2209 1959 2209 
L 2766 2209 
L 2766 2266 
Q 2766 2663 2505 2880 
Q 2244 3097 1772 3097 
Q 1472 3097 1187 3025 
Q 903 2953 641 2809 
L 641 3341 
Q 956 3463 1253 3523 
Q 1550 3584 1831 3584 
Q 2591 3584 2966 3190 
Q 3341 2797 3341 1997 
z
" id="DejaVuSans-61" transform="scale(0.015625)"/>
        <path d="M 3513 2113 
L 3513 0 
L 2938 0 
L 2938 2094 
Q 2938 2591 2744 2837 
Q 2550 3084 2163 3084 
Q 1697 3084 1428 2787 
Q 1159 2491 1159 1978 
L 1159 0 
L 581 0 
L 581 3500 
L 1159 3500 
L 1159 2956 
Q 1366 3272 1645 3428 
Q 1925 3584 2291 3584 
Q 2894 3584 3203 3211 
Q 3513 2838 3513 2113 
z
" id="DejaVuSans-6e" transform="scale(0.015625)"/>
       </defs>
       <use xlink:href="#DejaVuSans-4a"/>
       <use x="29.492188" xlink:href="#DejaVuSans-61"/>
       <use x="90.771484" xlink:href="#DejaVuSans-6e"/>
      </g>
      <!-- 2021 -->
      <g transform="translate(420.096053 570.47625)scale(0.1 -0.1)">
       <defs>
        <path d="M 1228 531 
L 3431 531 
L 3431 0 
L 469 0 
L 469 531 
Q 828 903 1448 1529 
Q 2069 2156 2228 2338 
Q 2531 2678 2651 2914 
Q 2772 3150 2772 3378 
Q 2772 3750 2511 3984 
Q 2250 4219 1831 4219 
Q 1534 4219 1204 4116 
Q 875 4013 500 3803 
L 500 4441 
Q 881 4594 1212 4672 
Q 1544 4750 1819 4750 
Q 2544 4750 2975 4387 
Q 3406 4025 3406 3419 
Q 3406 3131 3298 2873 
Q 3191 2616 2906 2266 
Q 2828 2175 2409 1742 
Q 1991 1309 1228 531 
z
" id="DejaVuSans-32" transform="scale(0.015625)"/>
        <path d="M 2034 4250 
Q 1547 4250 1301 3770 
Q 1056 3291 1056 2328 
Q 1056 1369 1301 889 
Q 1547 409 2034 409 
Q 2525 409 2770 889 
Q 3016 1369 3016 2328 
Q 3016 3291 2770 3770 
Q 2525 4250 2034 4250 
z
M 2034 4750 
Q 2819 4750 3233 4129 
Q 3647 3509 3647 2328 
Q 3647 1150 3233 529 
Q 2819 -91 2034 -91 
Q 1250 -91 836 529 
Q 422 1150 422 2328 
Q 422 3509 836 4129 
Q 1250 4750 2034 4750 
z
" id="DejaVuSans-30" transform="scale(0.015625)"/>
        <path d="M 794 531 
L 1825 531 
L 1825 4091 
L 703 3866 
L 703 4441 
L 1819 4666 
L 2450 4666 
L 2450 531 
L 3481 531 
L 3481 0 
L 794 0 
L 794 531 
z
" id="DejaVuSans-31" transform="scale(0.015625)"/>
       </defs>
       <use xlink:href="#DejaVuSans-32"/>
       <use x="63.623047" xlink:href="#DejaVuSans-30"/>
       <use x="127.246094" xlink:href="#DejaVuSans-32"/>
       <use x="190.869141" xlink:href="#DejaVuSans-31"/>
      </g>
     </g>
    </g>
    <g id="xtick_6">
     <g id="line2d_11">
      <path clip-path="url(#p68e2955192)" d="M 540.505263 544.68 
L 540.505263 73.44 
" style="fill:none;stroke:#b0b0b0;stroke-linecap:square;stroke-width:0.8;"/>
     </g>
     <g id="line2d_12">
      <g>
       <use style="stroke:#000000;stroke-width:0.8;" x="540.505263" xlink:href="#m4abed1d830" y="544.68"/>
      </g>
     </g>
     <g id="text_5">
      <!-- Apr -->
      <g transform="translate(531.855263 559.278437)scale(0.1 -0.1)">
       <use xlink:href="#DejaVuSans-41"/>
       <use x="68.408203" xlink:href="#DejaVuSans-70"/>
       <use x="131.884766" xlink:href="#DejaVuSans-72"/>
      </g>
     </g>
    </g>
    <g id="xtick_7">
     <g id="line2d_13">
      <path clip-path="url(#p68e2955192)" d="M 649.385965 544.68 
L 649.385965 73.44 
" style="fill:none;stroke:#b0b0b0;stroke-linecap:square;stroke-width:0.8;"/>
     </g>
     <g id="line2d_14">
      <g>
       <use style="stroke:#000000;stroke-width:0.8;" x="649.385965" xlink:href="#m4abed1d830" y="544.68"/>
      </g>
     </g>
     <g id="text_6">
      <!-- Jul -->
      <g transform="translate(643.353152 559.278437)scale(0.1 -0.1)">
       <use xlink:href="#DejaVuSans-4a"/>
       <use x="29.492188" xlink:href="#DejaVuSans-75"/>
       <use x="92.871094" xlink:href="#DejaVuSans-6c"/>
      </g>
     </g>
    </g>
    <g id="xtick_8">
     <g id="line2d_15">
      <path clip-path="url(#p68e2955192)" d="M 712.8 544.68 
L 712.8 73.44 
" style="fill:none;stroke:#b0b0b0;stroke-linecap:square;stroke-width:0.8;"/>
     </g>
     <g id="line2d_16">
      <g>
       <use style="stroke:#000000;stroke-width:0.8;" x="712.8" xlink:href="#m4abed1d830" y="544.68"/>
      </g>
     </g>
    </g>
    <g id="xtick_9">
     <g id="line2d_17">
      <defs>
       <path d="M 0 0 
L 0 2 
" id="mbe9820739d" style="stroke:#000000;stroke-width:0.6;"/>
      </defs>
      <g>
       <use style="stroke:#000000;stroke-width:0.6;" x="139.680702" xlink:href="#mbe9820739d" y="544.68"/>
      </g>
     </g>
    </g>
    <g id="xtick_10">
     <g id="line2d_18">
      <g>
       <use style="stroke:#000000;stroke-width:0.6;" x="176.77193" xlink:href="#mbe9820739d" y="544.68"/>
      </g>
     </g>
    </g>
    <g id="xtick_11">
     <g id="line2d_19">
      <g>
       <use style="stroke:#000000;stroke-width:0.6;" x="249.757895" xlink:href="#mbe9820739d" y="544.68"/>
      </g>
     </g>
    </g>
    <g id="xtick_12">
     <g id="line2d_20">
      <g>
       <use style="stroke:#000000;stroke-width:0.6;" x="286.849123" xlink:href="#mbe9820739d" y="544.68"/>
      </g>
     </g>
    </g>
    <g id="xtick_13">
     <g id="line2d_21">
      <g>
       <use style="stroke:#000000;stroke-width:0.6;" x="359.835088" xlink:href="#mbe9820739d" y="544.68"/>
      </g>
     </g>
    </g>
    <g id="xtick_14">
     <g id="line2d_22">
      <g>
       <use style="stroke:#000000;stroke-width:0.6;" x="395.729825" xlink:href="#mbe9820739d" y="544.68"/>
      </g>
     </g>
    </g>
    <g id="xtick_15">
     <g id="line2d_23">
      <g>
       <use style="stroke:#000000;stroke-width:0.6;" x="469.912281" xlink:href="#mbe9820739d" y="544.68"/>
      </g>
     </g>
    </g>
    <g id="xtick_16">
     <g id="line2d_24">
      <g>
       <use style="stroke:#000000;stroke-width:0.6;" x="503.414035" xlink:href="#mbe9820739d" y="544.68"/>
      </g>
     </g>
    </g>
    <g id="xtick_17">
     <g id="line2d_25">
      <g>
       <use style="stroke:#000000;stroke-width:0.6;" x="576.4" xlink:href="#mbe9820739d" y="544.68"/>
      </g>
     </g>
    </g>
    <g id="xtick_18">
     <g id="line2d_26">
      <g>
       <use style="stroke:#000000;stroke-width:0.6;" x="613.491228" xlink:href="#mbe9820739d" y="544.68"/>
      </g>
     </g>
    </g>
    <g id="xtick_19">
     <g id="line2d_27">
      <g>
       <use style="stroke:#000000;stroke-width:0.6;" x="686.477193" xlink:href="#mbe9820739d" y="544.68"/>
      </g>
     </g>
    </g>
    <g id="text_7">
     <!-- Date -->
     <g transform="translate(393.949219 584.154375)scale(0.1 -0.1)">
      <defs>
       <path d="M 1259 4147 
L 1259 519 
L 2022 519 
Q 2988 519 3436 956 
Q 3884 1394 3884 2338 
Q 3884 3275 3436 3711 
Q 2988 4147 2022 4147 
L 1259 4147 
z
M 628 4666 
L 1925 4666 
Q 3281 4666 3915 4102 
Q 4550 3538 4550 2338 
Q 4550 1131 3912 565 
Q 3275 0 1925 0 
L 628 0 
L 628 4666 
z
" id="DejaVuSans-44" transform="scale(0.015625)"/>
       <path d="M 3597 1894 
L 3597 1613 
L 953 1613 
Q 991 1019 1311 708 
Q 1631 397 2203 397 
Q 2534 397 2845 478 
Q 3156 559 3463 722 
L 3463 178 
Q 3153 47 2828 -22 
Q 2503 -91 2169 -91 
Q 1331 -91 842 396 
Q 353 884 353 1716 
Q 353 2575 817 3079 
Q 1281 3584 2069 3584 
Q 2775 3584 3186 3129 
Q 3597 2675 3597 1894 
z
M 3022 2063 
Q 3016 2534 2758 2815 
Q 2500 3097 2075 3097 
Q 1594 3097 1305 2825 
Q 1016 2553 972 2059 
L 3022 2063 
z
" id="DejaVuSans-65" transform="scale(0.015625)"/>
      </defs>
      <use xlink:href="#DejaVuSans-44"/>
      <use x="77.001953" xlink:href="#DejaVuSans-61"/>
      <use x="138.28125" xlink:href="#DejaVuSans-74"/>
      <use x="177.490234" xlink:href="#DejaVuSans-65"/>
     </g>
    </g>
   </g>
   <g id="matplotlib.axis_2">
    <g id="ytick_1">
     <g id="line2d_28">
      <path clip-path="url(#p68e2955192)" d="M 99 398.46971 
L 712.8 398.46971 
" style="fill:none;stroke:#b0b0b0;stroke-linecap:square;stroke-width:0.8;"/>
     </g>
     <g id="line2d_29">
      <defs>
       <path d="M 0 0 
L -3.5 0 
" id="me91a084207" style="stroke:#000000;stroke-width:0.8;"/>
      </defs>
      <g>
       <use style="stroke:#000000;stroke-width:0.8;" x="99" xlink:href="#me91a084207" y="398.46971"/>
      </g>
     </g>
     <g id="text_8">
      <!-- $\mathdefault{10^{0}}$ -->
      <g transform="translate(74.4 402.268929)scale(0.1 -0.1)">
       <use transform="translate(0 0.765625)" xlink:href="#DejaVuSans-31"/>
       <use transform="translate(63.623047 0.765625)" xlink:href="#DejaVuSans-30"/>
       <use transform="translate(128.203125 39.046875)scale(0.7)" xlink:href="#DejaVuSans-30"/>
      </g>
     </g>
    </g>
    <g id="ytick_2">
     <g id="line2d_30">
      <path clip-path="url(#p68e2955192)" d="M 99 523.26 
L 712.8 523.26 
" style="fill:none;stroke:#b0b0b0;stroke-linecap:square;stroke-width:0.8;"/>
     </g>
     <g id="line2d_31">
      <defs>
       <path d="M 0 0 
L -2 0 
" id="m0cb60b688e" style="stroke:#000000;stroke-width:0.6;"/>
      </defs>
      <g>
       <use style="stroke:#000000;stroke-width:0.6;" x="99" xlink:href="#m0cb60b688e" y="523.26"/>
      </g>
     </g>
    </g>
    <g id="ytick_3">
     <g id="line2d_32">
      <path clip-path="url(#p68e2955192)" d="M 99 490.43586 
L 712.8 490.43586 
" style="fill:none;stroke:#b0b0b0;stroke-linecap:square;stroke-width:0.8;"/>
     </g>
     <g id="line2d_33">
      <g>
       <use style="stroke:#000000;stroke-width:0.6;" x="99" xlink:href="#m0cb60b688e" y="490.43586"/>
      </g>
     </g>
    </g>
    <g id="ytick_4">
     <g id="line2d_34">
      <path clip-path="url(#p68e2955192)" d="M 99 462.683445 
L 712.8 462.683445 
" style="fill:none;stroke:#b0b0b0;stroke-linecap:square;stroke-width:0.8;"/>
     </g>
     <g id="line2d_35">
      <g>
       <use style="stroke:#000000;stroke-width:0.6;" x="99" xlink:href="#m0cb60b688e" y="462.683445"/>
      </g>
     </g>
    </g>
    <g id="ytick_5">
     <g id="line2d_36">
      <path clip-path="url(#p68e2955192)" d="M 99 438.64321 
L 712.8 438.64321 
" style="fill:none;stroke:#b0b0b0;stroke-linecap:square;stroke-width:0.8;"/>
     </g>
     <g id="line2d_37">
      <g>
       <use style="stroke:#000000;stroke-width:0.6;" x="99" xlink:href="#m0cb60b688e" y="438.64321"/>
      </g>
     </g>
    </g>
    <g id="ytick_6">
     <g id="line2d_38">
      <path clip-path="url(#p68e2955192)" d="M 99 417.43822 
L 712.8 417.43822 
" style="fill:none;stroke:#b0b0b0;stroke-linecap:square;stroke-width:0.8;"/>
     </g>
     <g id="line2d_39">
      <g>
       <use style="stroke:#000000;stroke-width:0.6;" x="99" xlink:href="#m0cb60b688e" y="417.43822"/>
      </g>
     </g>
    </g>
    <g id="ytick_7">
     <g id="line2d_40">
      <path clip-path="url(#p68e2955192)" d="M 99 273.67942 
L 712.8 273.67942 
" style="fill:none;stroke:#b0b0b0;stroke-linecap:square;stroke-width:0.8;"/>
     </g>
     <g id="line2d_41">
      <g>
       <use style="stroke:#000000;stroke-width:0.6;" x="99" xlink:href="#m0cb60b688e" y="273.67942"/>
      </g>
     </g>
    </g>
    <g id="ytick_8">
     <g id="line2d_42">
      <path clip-path="url(#p68e2955192)" d="M 99 200.68178 
L 712.8 200.68178 
" style="fill:none;stroke:#b0b0b0;stroke-linecap:square;stroke-width:0.8;"/>
     </g>
     <g id="line2d_43">
      <g>
       <use style="stroke:#000000;stroke-width:0.6;" x="99" xlink:href="#m0cb60b688e" y="200.68178"/>
      </g>
     </g>
    </g>
    <g id="ytick_9">
     <g id="line2d_44">
      <path clip-path="url(#p68e2955192)" d="M 99 148.88913 
L 712.8 148.88913 
" style="fill:none;stroke:#b0b0b0;stroke-linecap:square;stroke-width:0.8;"/>
     </g>
     <g id="line2d_45">
      <g>
       <use style="stroke:#000000;stroke-width:0.6;" x="99" xlink:href="#m0cb60b688e" y="148.88913"/>
      </g>
     </g>
    </g>
    <g id="ytick_10">
     <g id="line2d_46">
      <path clip-path="url(#p68e2955192)" d="M 99 108.71563 
L 712.8 108.71563 
" style="fill:none;stroke:#b0b0b0;stroke-linecap:square;stroke-width:0.8;"/>
     </g>
     <g id="line2d_47">
      <g>
       <use style="stroke:#000000;stroke-width:0.6;" x="99" xlink:href="#m0cb60b688e" y="108.71563"/>
      </g>
     </g>
    </g>
    <g id="ytick_11">
     <g id="line2d_48">
      <path clip-path="url(#p68e2955192)" d="M 99 75.89149 
L 712.8 75.89149 
" style="fill:none;stroke:#b0b0b0;stroke-linecap:square;stroke-width:0.8;"/>
     </g>
     <g id="line2d_49">
      <g>
       <use style="stroke:#000000;stroke-width:0.6;" x="99" xlink:href="#m0cb60b688e" y="75.89149"/>
      </g>
     </g>
    </g>
   </g>
   <g id="line2d_50">
    <path clip-path="url(#p68e2955192)" d="M 260.526057 613 
L 260.526316 523.26 
L 262.919298 523.26 
L 262.919557 613 
M 265.312022 613 
L 265.312281 523.26 
L 265.31254 613 
M 708.013776 613 
L 708.014035 523.26 
L 708.014294 613 
" style="fill:none;stroke:#1f77b4;stroke-linecap:square;stroke-width:1.5;"/>
   </g>
   <g id="line2d_51">
    <path clip-path="url(#p68e2955192)" d="M 0 0 
" style="fill:none;stroke:#ff7f0e;stroke-linecap:square;stroke-width:1.5;"/>
   </g>
   <g id="patch_3">
    <path d="M 99 544.68 
L 99 73.44 
" style="fill:none;stroke:#000000;stroke-linecap:square;stroke-linejoin:miter;stroke-width:0.8;"/>
   </g>
   <g id="patch_4">
    <path d="M 712.8 544.68 
L 712.8 73.44 
" style="fill:none;stroke:#000000;stroke-linecap:square;stroke-linejoin:miter;stroke-width:0.8;"/>
   </g>
   <g id="patch_5">
    <path d="M 99 544.68 
L 712.8 544.68 
" style="fill:none;stroke:#000000;stroke-linecap:square;stroke-linejoin:miter;stroke-width:0.8;"/>
   </g>
   <g id="patch_6">
    <path d="M 99 73.44 
L 712.8 73.44 
" style="fill:none;stroke:#000000;stroke-linecap:square;stroke-linejoin:miter;stroke-width:0.8;"/>
   </g>
   <g id="legend_1">
    <g id="patch_7">
     <path d="M 616.653125 110.79625 
L 705.8 110.79625 
Q 707.8 110.79625 707.8 108.79625 
L 707.8 80.44 
Q 707.8 78.44 705.8 78.44 
L 616.653125 78.44 
Q 614.653125 78.44 614.653125 80.44 
L 614.653125 108.79625 
Q 614.653125 110.79625 616.653125 110.79625 
z
" style="fill:#ffffff;opacity:0.8;stroke:#cccccc;stroke-linejoin:miter;"/>
    </g>
    <g id="line2d_52">
     <path d="M 618.653125 86.538437 
L 638.653125 86.538437 
" style="fill:none;stroke:#1f77b4;stroke-linecap:square;stroke-width:1.5;"/>
    </g>
    <g id="line2d_53"/>
    <g id="text_9">
     <!-- Avg Cases -->
     <g transform="translate(646.653125 90.038437)scale(0.1 -0.1)">
      <defs>
       <path d="M 191 3500 
L 800 3500 
L 1894 563 
L 2988 3500 
L 3597 3500 
L 2284 0 
L 1503 0 
L 191 3500 
z
" id="DejaVuSans-76" transform="scale(0.015625)"/>
       <path d="M 2906 1791 
Q 2906 2416 2648 2759 
Q 2391 3103 1925 3103 
Q 1463 3103 1205 2759 
Q 947 2416 947 1791 
Q 947 1169 1205 825 
Q 1463 481 1925 481 
Q 2391 481 2648 825 
Q 2906 1169 2906 1791 
z
M 3481 434 
Q 3481 -459 3084 -895 
Q 2688 -1331 1869 -1331 
Q 1566 -1331 1297 -1286 
Q 1028 -1241 775 -1147 
L 775 -588 
Q 1028 -725 1275 -790 
Q 1522 -856 1778 -856 
Q 2344 -856 2625 -561 
Q 2906 -266 2906 331 
L 2906 616 
Q 2728 306 2450 153 
Q 2172 0 1784 0 
Q 1141 0 747 490 
Q 353 981 353 1791 
Q 353 2603 747 3093 
Q 1141 3584 1784 3584 
Q 2172 3584 2450 3431 
Q 2728 3278 2906 2969 
L 2906 3500 
L 3481 3500 
L 3481 434 
z
" id="DejaVuSans-67" transform="scale(0.015625)"/>
       <path id="DejaVuSans-20" transform="scale(0.015625)"/>
       <path d="M 4122 4306 
L 4122 3641 
Q 3803 3938 3442 4084 
Q 3081 4231 2675 4231 
Q 1875 4231 1450 3742 
Q 1025 3253 1025 2328 
Q 1025 1406 1450 917 
Q 1875 428 2675 428 
Q 3081 428 3442 575 
Q 3803 722 4122 1019 
L 4122 359 
Q 3791 134 3420 21 
Q 3050 -91 2638 -91 
Q 1578 -91 968 557 
Q 359 1206 359 2328 
Q 359 3453 968 4101 
Q 1578 4750 2638 4750 
Q 3056 4750 3426 4639 
Q 3797 4528 4122 4306 
z
" id="DejaVuSans-43" transform="scale(0.015625)"/>
       <path d="M 2834 3397 
L 2834 2853 
Q 2591 2978 2328 3040 
Q 2066 3103 1784 3103 
Q 1356 3103 1142 2972 
Q 928 2841 928 2578 
Q 928 2378 1081 2264 
Q 1234 2150 1697 2047 
L 1894 2003 
Q 2506 1872 2764 1633 
Q 3022 1394 3022 966 
Q 3022 478 2636 193 
Q 2250 -91 1575 -91 
Q 1294 -91 989 -36 
Q 684 19 347 128 
L 347 722 
Q 666 556 975 473 
Q 1284 391 1588 391 
Q 1994 391 2212 530 
Q 2431 669 2431 922 
Q 2431 1156 2273 1281 
Q 2116 1406 1581 1522 
L 1381 1569 
Q 847 1681 609 1914 
Q 372 2147 372 2553 
Q 372 3047 722 3315 
Q 1072 3584 1716 3584 
Q 2034 3584 2315 3537 
Q 2597 3491 2834 3397 
z
" id="DejaVuSans-73" transform="scale(0.015625)"/>
      </defs>
      <use xlink:href="#DejaVuSans-41"/>
      <use x="62.533203" xlink:href="#DejaVuSans-76"/>
      <use x="121.712891" xlink:href="#DejaVuSans-67"/>
      <use x="185.189453" xlink:href="#DejaVuSans-20"/>
      <use x="216.976562" xlink:href="#DejaVuSans-43"/>
      <use x="286.800781" xlink:href="#DejaVuSans-61"/>
      <use x="348.080078" xlink:href="#DejaVuSans-73"/>
      <use x="400.179688" xlink:href="#DejaVuSans-65"/>
      <use x="461.703125" xlink:href="#DejaVuSans-73"/>
     </g>
    </g>
    <g id="line2d_54">
     <path d="M 618.653125 101.216562 
L 638.653125 101.216562 
" style="fill:none;stroke:#ff7f0e;stroke-linecap:square;stroke-width:1.5;"/>
    </g>
    <g id="line2d_55"/>
    <g id="text_10">
     <!-- Avg Deaths -->
     <g transform="translate(646.653125 104.716562)scale(0.1 -0.1)">
      <defs>
       <path d="M 3513 2113 
L 3513 0 
L 2938 0 
L 2938 2094 
Q 2938 2591 2744 2837 
Q 2550 3084 2163 3084 
Q 1697 3084 1428 2787 
Q 1159 2491 1159 1978 
L 1159 0 
L 581 0 
L 581 4863 
L 1159 4863 
L 1159 2956 
Q 1366 3272 1645 3428 
Q 1925 3584 2291 3584 
Q 2894 3584 3203 3211 
Q 3513 2838 3513 2113 
z
" id="DejaVuSans-68" transform="scale(0.015625)"/>
      </defs>
      <use xlink:href="#DejaVuSans-41"/>
      <use x="62.533203" xlink:href="#DejaVuSans-76"/>
      <use x="121.712891" xlink:href="#DejaVuSans-67"/>
      <use x="185.189453" xlink:href="#DejaVuSans-20"/>
      <use x="216.976562" xlink:href="#DejaVuSans-44"/>
      <use x="293.978516" xlink:href="#DejaVuSans-65"/>
      <use x="355.501953" xlink:href="#DejaVuSans-61"/>
      <use x="416.78125" xlink:href="#DejaVuSans-74"/>
      <use x="455.990234" xlink:href="#DejaVuSans-68"/>
      <use x="519.369141" xlink:href="#DejaVuSans-73"/>
     </g>
    </g>
   </g>
  </g>
 </g>
 <defs>
  <clipPath id="p68e2955192">
   <rect height="471.24" width="613.8" x="99" y="73.44"/>
  </clipPath>
 </defs>
</svg>
