<?xml version="1.0" encoding="utf-8" standalone="no"?>
<!DOCTYPE svg PUBLIC "-//W3C//DTD SVG 1.1//EN"
  "http://www.w3.org/Graphics/SVG/1.1/DTD/svg11.dtd">
<svg height="612pt" version="1.1" viewBox="0 0 792 612" width="792pt" xmlns="http://www.w3.org/2000/svg" xmlns:xlink="http://www.w3.org/1999/xlink">
 <metadata>
  <rdf:RDF xmlns:cc="http://creativecommons.org/ns#" xmlns:dc="http://purl.org/dc/elements/1.1/" xmlns:rdf="http://www.w3.org/1999/02/22-rdf-syntax-ns#">
   <cc:Work>
    <dc:type rdf:resource="http://purl.org/dc/dcmitype/StillImage"/>
    <dc:format>image/svg+xml</dc:format>
    <dc:creator>
     <cc:Agent>
      <dc:title>Matplotlib v3.4.2, https://matplotlib.org/</dc:title>
     </cc:Agent>
    </dc:creator>
   </cc:Work>
  </rdf:RDF>
 </metadata>
 <defs>
  <style type="text/css">*{stroke-linecap:butt;stroke-linejoin:round;}</style>
 </defs>
 <g id="figure_1">
  <g id="patch_1">
   <path d="M 0 612 
L 792 612 
L 792 0 
L 0 0 
z
" style="fill:#ffffff;"/>
  </g>
  <g id="axes_1">
   <g id="patch_2">
    <path d="M 99 544.68 
L 712.8 544.68 
L 712.8 73.44 
L 99 73.44 
z
" style="fill:#ffffff;"/>
   </g>
   <g id="PolyCollection_1">
    <path clip-path="url(#p68e2955192)" d="M 99 414942.840038 
L 99 414942.840038 
L 100.173614 414942.840038 
L 101.347228 414942.840038 
L 102.520841 414942.840038 
L 103.694455 414942.840038 
L 104.868069 414942.840038 
L 106.041683 414942.840038 
L 107.215296 414942.840038 
L 108.38891 414942.840038 
L 109.562524 414942.840038 
L 110.736138 414942.840038 
L 111.909751 414942.840038 
L 113.083365 414942.840038 
L 114.256979 219.65029 
L 115.430593 219.65029 
L 116.604207 219.65029 
L 117.77782 219.65029 
L 118.951434 219.65029 
L 120.125048 273.67942 
L 121.298662 337.893155 
L 122.472275 302.938407 
L 123.645889 302.938407 
L 124.819503 302.938407 
L 125.993117 302.938407 
L 127.16673 302.938407 
L 128.340344 462.683445 
L 129.513958 462.683445 
L 130.687572 462.683445 
L 131.861185 462.683445 
L 133.034799 462.683445 
L 134.208413 462.683445 
L 135.382027 414942.840038 
L 136.555641 414942.840038 
L 137.729254 414942.840038 
L 138.902868 414942.840038 
L 140.076482 414942.840038 
L 141.250096 414942.840038 
L 142.423709 414942.840038 
L 143.597323 414942.840038 
L 144.770937 414942.840038 
L 145.944551 414942.840038 
L 147.118164 414942.840038 
L 148.291778 462.683445 
L 149.465392 462.683445 
L 150.639006 398.46971 
L 151.81262 398.46971 
L 152.986233 398.46971 
L 154.159847 398.46971 
L 155.333461 398.46971 
L 156.507075 302.938407 
L 157.680688 302.938407 
L 158.854302 302.938407 
L 160.027916 302.938407 
L 161.20153 302.938407 
L 162.375143 302.938407 
L 163.548757 302.938407 
L 164.722371 302.938407 
L 165.895985 302.938407 
L 167.069598 462.683445 
L 168.243212 462.683445 
L 169.416826 462.683445 
L 170.59044 462.683445 
L 171.764054 462.683445 
L 172.937667 414942.840038 
L 174.111281 414942.840038 
L 175.284895 414942.840038 
L 176.458509 462.683445 
L 177.632122 398.46971 
L 178.805736 398.46971 
L 179.97935 398.46971 
L 181.152964 398.46971 
L 182.326577 398.46971 
L 183.500191 398.46971 
L 184.673805 302.938407 
L 185.847419 302.938407 
L 187.021033 302.938407 
L 188.194646 302.938407 
L 189.36826 302.938407 
L 190.541874 302.938407 
L 191.715488 302.938407 
L 192.889101 302.938407 
L 194.062715 302.938407 
L 195.236329 398.46971 
L 196.409943 398.46971 
L 197.583556 398.46971 
L 198.75717 462.683445 
L 199.930784 414942.840038 
L 201.104398 414942.840038 
L 202.278011 414942.840038 
L 203.451625 414942.840038 
L 204.625239 414942.840038 
L 205.798853 414942.840038 
L 206.972467 414942.840038 
L 208.14608 414942.840038 
L 209.319694 414942.840038 
L 210.493308 414942.840038 
L 211.666922 414942.840038 
L 212.840535 414942.840038 
L 214.014149 414942.840038 
L 215.187763 414942.840038 
L 216.361377 414942.840038 
L 217.53499 414942.840038 
L 218.708604 414942.840038 
L 219.882218 414942.840038 
L 221.055832 414942.840038 
L 222.229446 462.683445 
L 223.403059 462.683445 
L 224.576673 462.683445 
L 225.750287 302.938407 
L 226.923901 302.938407 
L 228.097514 302.938407 
L 229.271128 302.938407 
L 230.444742 302.938407 
L 231.618356 302.938407 
L 232.791969 302.938407 
L 233.965583 302.938407 
L 235.139197 302.938407 
L 236.312811 302.938407 
L 237.486424 302.938407 
L 238.660038 302.938407 
L 239.833652 302.938407 
L 241.007266 302.938407 
L 242.18088 398.46971 
L 243.354493 398.46971 
L 244.528107 302.938407 
L 245.701721 302.938407 
L 246.875335 273.67942 
L 248.048948 273.67942 
L 249.222562 273.67942 
L 250.396176 273.67942 
L 251.56979 273.67942 
L 252.743403 273.67942 
L 253.917017 273.67942 
L 255.090631 302.938407 
L 256.264245 302.938407 
L 257.437859 302.938407 
L 258.611472 302.938407 
L 259.785086 302.938407 
L 260.9587 398.46971 
L 262.132314 398.46971 
L 263.305927 398.46971 
L 264.479541 398.46971 
L 265.653155 398.46971 
L 266.826769 398.46971 
L 268.000382 398.46971 
L 269.173996 398.46971 
L 270.34761 398.46971 
L 271.521224 398.46971 
L 272.694837 398.46971 
L 273.868451 398.46971 
L 275.042065 398.46971 
L 276.215679 398.46971 
L 277.389293 398.46971 
L 278.562906 462.683445 
L 279.73652 302.938407 
L 280.910134 302.938407 
L 282.083748 462.683445 
L 283.257361 462.683445 
L 284.430975 462.683445 
L 285.604589 462.683445 
L 286.778203 462.683445 
L 287.951816 398.46971 
L 289.12543 398.46971 
L 290.299044 398.46971 
L 291.472658 398.46971 
L 292.646272 398.46971 
L 293.819885 398.46971 
L 294.993499 398.46971 
L 296.167113 398.46971 
L 297.340727 398.46971 
L 298.51434 398.46971 
L 299.687954 398.46971 
L 300.861568 398.46971 
L 302.035182 398.46971 
L 303.208795 398.46971 
L 304.382409 398.46971 
L 305.556023 398.46971 
L 306.729637 398.46971 
L 307.90325 398.46971 
L 309.076864 398.46971 
L 310.250478 398.46971 
L 311.424092 398.46971 
L 312.597706 398.46971 
L 313.771319 398.46971 
L 314.944933 398.46971 
L 316.118547 398.46971 
L 317.292161 398.46971 
L 318.465774 398.46971 
L 319.639388 398.46971 
L 320.813002 462.683445 
L 321.986616 398.46971 
L 323.160229 302.938407 
L 324.333843 302.938407 
L 325.507457 302.938407 
L 326.681071 302.938407 
L 327.854685 302.938407 
L 329.028298 273.67942 
L 330.201912 273.67942 
L 331.375526 273.67942 
L 332.54914 273.67942 
L 333.722753 273.67942 
L 334.896367 219.65029 
L 336.069981 219.65029 
L 337.243595 200.68178 
L 338.417208 219.65029 
L 339.590822 219.65029 
L 340.764436 219.65029 
L 341.93805 219.65029 
L 343.111663 219.65029 
L 344.285277 219.65029 
L 345.458891 219.65029 
L 346.632505 219.65029 
L 347.806119 162.924884 
L 348.979732 162.924884 
L 350.153346 162.924884 
L 351.32696 178.148117 
L 352.500574 178.148117 
L 353.674187 337.893155 
L 354.847801 178.148117 
L 356.021415 178.148117 
L 357.195029 213.102865 
L 358.368642 213.102865 
L 359.542256 213.102865 
L 360.71587 178.148117 
L 361.889484 178.148117 
L 363.063098 178.148117 
L 364.236711 273.67942 
L 365.410325 273.67942 
L 366.583939 273.67942 
L 367.757553 273.67942 
L 368.931166 273.67942 
L 370.10478 273.67942 
L 371.278394 337.893155 
L 372.452008 273.67942 
L 373.625621 273.67942 
L 374.799235 273.67942 
L 375.972849 273.67942 
L 377.146463 302.938407 
L 378.320076 302.938407 
L 379.49369 302.938407 
L 380.667304 398.46971 
L 381.840918 398.46971 
L 383.014532 398.46971 
L 384.188145 398.46971 
L 385.361759 398.46971 
L 386.535373 398.46971 
L 387.708987 398.46971 
L 388.8826 398.46971 
L 390.056214 462.683445 
L 391.229828 462.683445 
L 392.403442 462.683445 
L 393.577055 462.683445 
L 394.750669 462.683445 
L 395.924283 414942.840038 
L 397.097897 337.893155 
L 398.271511 273.67942 
L 399.445124 273.67942 
L 400.618738 273.67942 
L 401.792352 273.67942 
L 402.965966 273.67942 
L 404.139579 273.67942 
L 405.313193 273.67942 
L 406.486807 273.67942 
L 407.660421 273.67942 
L 408.834034 273.67942 
L 410.007648 273.67942 
L 411.181262 273.67942 
L 412.354876 273.67942 
L 413.528489 273.67942 
L 414.702103 302.938407 
L 415.875717 302.938407 
L 417.049331 302.938407 
L 418.222945 302.938407 
L 419.396558 273.67942 
L 420.570172 273.67942 
L 421.743786 273.67942 
L 422.9174 273.67942 
L 424.091013 273.67942 
L 425.264627 273.67942 
L 426.438241 302.938407 
L 427.611855 302.938407 
L 428.785468 302.938407 
L 429.959082 337.893155 
L 431.132696 337.893155 
L 432.30631 337.893155 
L 433.479924 302.938407 
L 434.653537 302.938407 
L 435.827151 462.683445 
L 437.000765 462.683445 
L 438.174379 462.683445 
L 439.347992 302.938407 
L 440.521606 302.938407 
L 441.69522 302.938407 
L 442.868834 302.938407 
L 444.042447 302.938407 
L 445.216061 302.938407 
L 446.389675 302.938407 
L 447.563289 302.938407 
L 448.736902 398.46971 
L 449.910516 462.683445 
L 451.08413 462.683445 
L 452.257744 462.683445 
L 453.431358 462.683445 
L 454.604971 462.683445 
L 455.778585 462.683445 
L 456.952199 462.683445 
L 458.125813 462.683445 
L 459.299426 462.683445 
L 460.47304 462.683445 
L 461.646654 462.683445 
L 462.820268 462.683445 
L 463.993881 337.893155 
L 465.167495 337.893155 
L 466.341109 337.893155 
L 467.514723 337.893155 
L 468.688337 337.893155 
L 469.86195 337.893155 
L 471.035564 337.893155 
L 472.209178 414942.840038 
L 473.382792 414942.840038 
L 474.556405 414942.840038 
L 475.730019 462.683445 
L 476.903633 462.683445 
L 478.077247 462.683445 
L 479.25086 462.683445 
L 480.424474 414942.840038 
L 481.598088 462.683445 
L 482.771702 462.683445 
L 483.945315 462.683445 
L 485.118929 462.683445 
L 486.292543 398.46971 
L 487.466157 398.46971 
L 488.639771 398.46971 
L 489.813384 398.46971 
L 490.986998 398.46971 
L 492.160612 462.683445 
L 493.334226 462.683445 
L 494.507839 462.683445 
L 495.681453 462.683445 
L 496.855067 462.683445 
L 498.028681 462.683445 
L 499.202294 462.683445 
L 500.375908 462.683445 
L 501.549522 462.683445 
L 502.723136 414942.840038 
L 503.89675 462.683445 
L 505.070363 462.683445 
L 506.243977 462.683445 
L 507.417591 462.683445 
L 508.591205 462.683445 
L 509.764818 398.46971 
L 510.938432 302.938407 
L 512.112046 302.938407 
L 513.28566 302.938407 
L 514.459273 219.65029 
L 515.632887 219.65029 
L 516.806501 219.65029 
L 517.980115 219.65029 
L 519.153728 219.65029 
L 520.327342 240.85528 
L 521.500956 240.85528 
L 522.67457 240.85528 
L 523.848184 240.85528 
L 525.021797 240.85528 
L 526.195411 240.85528 
L 527.369025 398.46971 
L 528.542639 398.46971 
L 529.716252 398.46971 
L 530.889866 462.683445 
L 532.06348 462.683445 
L 533.237094 462.683445 
L 534.410707 462.683445 
L 535.584321 462.683445 
L 536.757935 462.683445 
L 537.931549 414942.840038 
L 539.105163 462.683445 
L 540.278776 414942.840038 
L 541.45239 414942.840038 
L 542.626004 414942.840038 
L 543.799618 414942.840038 
L 544.973231 414942.840038 
L 546.146845 414942.840038 
L 547.320459 414942.840038 
L 548.494073 462.683445 
L 549.667686 398.46971 
L 550.8413 398.46971 
L 552.014914 398.46971 
L 553.188528 398.46971 
L 554.362141 398.46971 
L 555.535755 462.683445 
L 556.709369 462.683445 
L 557.882983 462.683445 
L 559.056597 398.46971 
L 560.23021 398.46971 
L 561.403824 398.46971 
L 562.577438 398.46971 
L 563.751052 398.46971 
L 564.924665 462.683445 
L 566.098279 414942.840038 
L 567.271893 337.893155 
L 568.445507 337.893155 
L 569.61912 337.893155 
L 570.792734 337.893155 
L 571.966348 337.893155 
L 573.139962 337.893155 
L 574.313576 302.938407 
L 575.487189 462.683445 
L 576.660803 462.683445 
L 577.834417 398.46971 
L 579.008031 398.46971 
L 580.181644 398.46971 
L 581.355258 398.46971 
L 582.528872 398.46971 
L 583.702486 398.46971 
L 584.876099 398.46971 
L 586.049713 398.46971 
L 587.223327 302.938407 
L 588.396941 302.938407 
L 589.570554 273.67942 
L 590.744168 273.67942 
L 591.917782 273.67942 
L 593.091396 273.67942 
L 594.26501 273.67942 
L 595.438623 273.67942 
L 596.612237 273.67942 
L 597.785851 273.67942 
L 598.959465 273.67942 
L 600.133078 273.67942 
L 601.306692 273.67942 
L 602.480306 273.67942 
L 603.65392 273.67942 
L 604.827533 273.67942 
L 606.001147 337.893155 
L 607.174761 337.893155 
L 608.348375 414942.840038 
L 609.521989 414942.840038 
L 610.695602 414942.840038 
L 611.869216 414942.840038 
L 613.04283 414942.840038 
L 614.216444 414942.840038 
L 615.390057 414942.840038 
L 616.563671 414942.840038 
L 617.737285 414942.840038 
L 618.910899 414942.840038 
L 620.084512 414942.840038 
L 621.258126 414942.840038 
L 622.43174 414942.840038 
L 623.605354 414942.840038 
L 624.778967 414942.840038 
L 625.952581 414942.840038 
L 627.126195 414942.840038 
L 628.299809 414942.840038 
L 629.473423 414942.840038 
L 630.647036 414942.840038 
L 631.82065 414942.840038 
L 632.994264 414942.840038 
L 634.167878 414942.840038 
L 635.341491 414942.840038 
L 636.515105 414942.840038 
L 637.688719 414942.840038 
L 638.862333 414942.840038 
L 640.035946 414942.840038 
L 641.20956 414942.840038 
L 642.383174 414942.840038 
L 643.556788 414942.840038 
L 644.730402 414942.840038 
L 645.904015 462.683445 
L 647.077629 462.683445 
L 648.251243 462.683445 
L 649.424857 462.683445 
L 650.59847 462.683445 
L 651.772084 462.683445 
L 652.945698 398.46971 
L 654.119312 398.46971 
L 655.292925 398.46971 
L 656.466539 398.46971 
L 657.640153 398.46971 
L 658.813767 398.46971 
L 659.98738 398.46971 
L 661.160994 398.46971 
L 662.334608 462.683445 
L 663.508222 462.683445 
L 664.681836 462.683445 
L 665.855449 462.683445 
L 667.029063 302.938407 
L 668.202677 302.938407 
L 669.376291 462.683445 
L 670.549904 462.683445 
L 671.723518 462.683445 
L 672.897132 462.683445 
L 674.070746 302.938407 
L 675.244359 302.938407 
L 676.417973 273.67942 
L 677.591587 273.67942 
L 678.765201 273.67942 
L 679.938815 273.67942 
L 681.112428 116.06499 
L 682.286042 116.06499 
L 683.459656 116.06499 
L 684.63327 94.86 
L 685.806883 94.86 
L 686.980497 94.86 
L 688.154111 94.86 
L 689.327725 94.86 
L 690.501338 162.924884 
L 691.674952 162.924884 
L 692.848566 119.855327 
L 694.02218 119.855327 
L 695.195793 119.855327 
L 696.369407 119.855327 
L 697.543021 148.88913 
L 698.716635 148.88913 
L 699.890249 148.88913 
L 701.063862 162.924884 
L 702.237476 162.924884 
L 703.41109 148.88913 
L 704.584704 148.88913 
L 705.758317 148.88913 
L 706.931931 148.88913 
L 708.105545 148.88913 
L 709.279159 148.88913 
L 710.452772 148.88913 
L 711.626386 148.88913 
L 712.8 178.148117 
L 712.8 414942.840038 
L 712.8 414942.840038 
L 711.626386 414942.840038 
L 710.452772 414942.840038 
L 709.279159 414942.840038 
L 708.105545 414942.840038 
L 706.931931 414942.840038 
L 705.758317 414942.840038 
L 704.584704 414942.840038 
L 703.41109 414942.840038 
L 702.237476 414942.840038 
L 701.063862 414942.840038 
L 699.890249 414942.840038 
L 698.716635 414942.840038 
L 697.543021 414942.840038 
L 696.369407 414942.840038 
L 695.195793 414942.840038 
L 694.02218 414942.840038 
L 692.848566 414942.840038 
L 691.674952 414942.840038 
L 690.501338 414942.840038 
L 689.327725 414942.840038 
L 688.154111 414942.840038 
L 686.980497 414942.840038 
L 685.806883 414942.840038 
L 684.63327 414942.840038 
L 683.459656 414942.840038 
L 682.286042 414942.840038 
L 681.112428 414942.840038 
L 679.938815 414942.840038 
L 678.765201 414942.840038 
L 677.591587 414942.840038 
L 676.417973 414942.840038 
L 675.244359 414942.840038 
L 674.070746 414942.840038 
L 672.897132 414942.840038 
L 671.723518 414942.840038 
L 670.549904 414942.840038 
L 669.376291 414942.840038 
L 668.202677 414942.840038 
L 667.029063 414942.840038 
L 665.855449 414942.840038 
L 664.681836 414942.840038 
L 663.508222 414942.840038 
L 662.334608 414942.840038 
L 661.160994 414942.840038 
L 659.98738 414942.840038 
L 658.813767 414942.840038 
L 657.640153 414942.840038 
L 656.466539 414942.840038 
L 655.292925 414942.840038 
L 654.119312 414942.840038 
L 652.945698 414942.840038 
L 651.772084 414942.840038 
L 650.59847 414942.840038 
L 649.424857 414942.840038 
L 648.251243 414942.840038 
L 647.077629 414942.840038 
L 645.904015 414942.840038 
L 644.730402 414942.840038 
L 643.556788 414942.840038 
L 642.383174 414942.840038 
L 641.20956 414942.840038 
L 640.035946 414942.840038 
L 638.862333 414942.840038 
L 637.688719 414942.840038 
L 636.515105 414942.840038 
L 635.341491 414942.840038 
L 634.167878 414942.840038 
L 632.994264 414942.840038 
L 631.82065 414942.840038 
L 630.647036 414942.840038 
L 629.473423 414942.840038 
L 628.299809 414942.840038 
L 627.126195 414942.840038 
L 625.952581 414942.840038 
L 624.778967 414942.840038 
L 623.605354 414942.840038 
L 622.43174 414942.840038 
L 621.258126 414942.840038 
L 620.084512 414942.840038 
L 618.910899 414942.840038 
L 617.737285 414942.840038 
L 616.563671 414942.840038 
L 615.390057 414942.840038 
L 614.216444 414942.840038 
L 613.04283 414942.840038 
L 611.869216 414942.840038 
L 610.695602 414942.840038 
L 609.521989 414942.840038 
L 608.348375 414942.840038 
L 607.174761 414942.840038 
L 606.001147 414942.840038 
L 604.827533 414942.840038 
L 603.65392 414942.840038 
L 602.480306 414942.840038 
L 601.306692 414942.840038 
L 600.133078 414942.840038 
L 598.959465 414942.840038 
L 597.785851 414942.840038 
L 596.612237 414942.840038 
L 595.438623 414942.840038 
L 594.26501 414942.840038 
L 593.091396 414942.840038 
L 591.917782 414942.840038 
L 590.744168 414942.840038 
L 589.570554 414942.840038 
L 588.396941 414942.840038 
L 587.223327 414942.840038 
L 586.049713 414942.840038 
L 584.876099 414942.840038 
L 583.702486 414942.840038 
L 582.528872 414942.840038 
L 581.355258 414942.840038 
L 580.181644 414942.840038 
L 579.008031 414942.840038 
L 577.834417 414942.840038 
L 576.660803 414942.840038 
L 575.487189 414942.840038 
L 574.313576 414942.840038 
L 573.139962 414942.840038 
L 571.966348 414942.840038 
L 570.792734 414942.840038 
L 569.61912 414942.840038 
L 568.445507 414942.840038 
L 567.271893 414942.840038 
L 566.098279 414942.840038 
L 564.924665 414942.840038 
L 563.751052 414942.840038 
L 562.577438 414942.840038 
L 561.403824 414942.840038 
L 560.23021 414942.840038 
L 559.056597 414942.840038 
L 557.882983 414942.840038 
L 556.709369 414942.840038 
L 555.535755 414942.840038 
L 554.362141 414942.840038 
L 553.188528 414942.840038 
L 552.014914 414942.840038 
L 550.8413 414942.840038 
L 549.667686 414942.840038 
L 548.494073 414942.840038 
L 547.320459 414942.840038 
L 546.146845 414942.840038 
L 544.973231 414942.840038 
L 543.799618 414942.840038 
L 542.626004 414942.840038 
L 541.45239 414942.840038 
L 540.278776 414942.840038 
L 539.105163 414942.840038 
L 537.931549 414942.840038 
L 536.757935 414942.840038 
L 535.584321 414942.840038 
L 534.410707 414942.840038 
L 533.237094 414942.840038 
L 532.06348 414942.840038 
L 530.889866 414942.840038 
L 529.716252 414942.840038 
L 528.542639 414942.840038 
L 527.369025 414942.840038 
L 526.195411 414942.840038 
L 525.021797 414942.840038 
L 523.848184 414942.840038 
L 522.67457 414942.840038 
L 521.500956 414942.840038 
L 520.327342 414942.840038 
L 519.153728 414942.840038 
L 517.980115 414942.840038 
L 516.806501 414942.840038 
L 515.632887 414942.840038 
L 514.459273 414942.840038 
L 513.28566 414942.840038 
L 512.112046 414942.840038 
L 510.938432 414942.840038 
L 509.764818 414942.840038 
L 508.591205 414942.840038 
L 507.417591 414942.840038 
L 506.243977 414942.840038 
L 505.070363 414942.840038 
L 503.89675 414942.840038 
L 502.723136 414942.840038 
L 501.549522 414942.840038 
L 500.375908 414942.840038 
L 499.202294 414942.840038 
L 498.028681 414942.840038 
L 496.855067 414942.840038 
L 495.681453 414942.840038 
L 494.507839 414942.840038 
L 493.334226 414942.840038 
L 492.160612 414942.840038 
L 490.986998 414942.840038 
L 489.813384 414942.840038 
L 488.639771 414942.840038 
L 487.466157 414942.840038 
L 486.292543 414942.840038 
L 485.118929 414942.840038 
L 483.945315 414942.840038 
L 482.771702 414942.840038 
L 481.598088 414942.840038 
L 480.424474 414942.840038 
L 479.25086 414942.840038 
L 478.077247 414942.840038 
L 476.903633 414942.840038 
L 475.730019 414942.840038 
L 474.556405 414942.840038 
L 473.382792 414942.840038 
L 472.209178 414942.840038 
L 471.035564 414942.840038 
L 469.86195 414942.840038 
L 468.688337 414942.840038 
L 467.514723 414942.840038 
L 466.341109 414942.840038 
L 465.167495 414942.840038 
L 463.993881 414942.840038 
L 462.820268 414942.840038 
L 461.646654 414942.840038 
L 460.47304 414942.840038 
L 459.299426 414942.840038 
L 458.125813 414942.840038 
L 456.952199 414942.840038 
L 455.778585 414942.840038 
L 454.604971 414942.840038 
L 453.431358 414942.840038 
L 452.257744 414942.840038 
L 451.08413 414942.840038 
L 449.910516 414942.840038 
L 448.736902 414942.840038 
L 447.563289 414942.840038 
L 446.389675 414942.840038 
L 445.216061 414942.840038 
L 444.042447 414942.840038 
L 442.868834 414942.840038 
L 441.69522 414942.840038 
L 440.521606 414942.840038 
L 439.347992 414942.840038 
L 438.174379 414942.840038 
L 437.000765 414942.840038 
L 435.827151 414942.840038 
L 434.653537 414942.840038 
L 433.479924 414942.840038 
L 432.30631 414942.840038 
L 431.132696 414942.840038 
L 429.959082 414942.840038 
L 428.785468 414942.840038 
L 427.611855 414942.840038 
L 426.438241 414942.840038 
L 425.264627 414942.840038 
L 424.091013 414942.840038 
L 422.9174 414942.840038 
L 421.743786 414942.840038 
L 420.570172 414942.840038 
L 419.396558 414942.840038 
L 418.222945 414942.840038 
L 417.049331 414942.840038 
L 415.875717 414942.840038 
L 414.702103 414942.840038 
L 413.528489 414942.840038 
L 412.354876 414942.840038 
L 411.181262 414942.840038 
L 410.007648 414942.840038 
L 408.834034 414942.840038 
L 407.660421 414942.840038 
L 406.486807 414942.840038 
L 405.313193 414942.840038 
L 404.139579 414942.840038 
L 402.965966 414942.840038 
L 401.792352 414942.840038 
L 400.618738 414942.840038 
L 399.445124 414942.840038 
L 398.271511 414942.840038 
L 397.097897 414942.840038 
L 395.924283 414942.840038 
L 394.750669 414942.840038 
L 393.577055 414942.840038 
L 392.403442 414942.840038 
L 391.229828 414942.840038 
L 390.056214 414942.840038 
L 388.8826 414942.840038 
L 387.708987 414942.840038 
L 386.535373 414942.840038 
L 385.361759 414942.840038 
L 384.188145 414942.840038 
L 383.014532 414942.840038 
L 381.840918 414942.840038 
L 380.667304 414942.840038 
L 379.49369 414942.840038 
L 378.320076 414942.840038 
L 377.146463 414942.840038 
L 375.972849 414942.840038 
L 374.799235 414942.840038 
L 373.625621 414942.840038 
L 372.452008 414942.840038 
L 371.278394 414942.840038 
L 370.10478 414942.840038 
L 368.931166 414942.840038 
L 367.757553 414942.840038 
L 366.583939 414942.840038 
L 365.410325 414942.840038 
L 364.236711 414942.840038 
L 363.063098 414942.840038 
L 361.889484 414942.840038 
L 360.71587 414942.840038 
L 359.542256 414942.840038 
L 358.368642 414942.840038 
L 357.195029 414942.840038 
L 356.021415 414942.840038 
L 354.847801 414942.840038 
L 353.674187 414942.840038 
L 352.500574 414942.840038 
L 351.32696 414942.840038 
L 350.153346 414942.840038 
L 348.979732 414942.840038 
L 347.806119 414942.840038 
L 346.632505 414942.840038 
L 345.458891 414942.840038 
L 344.285277 414942.840038 
L 343.111663 414942.840038 
L 341.93805 414942.840038 
L 340.764436 414942.840038 
L 339.590822 414942.840038 
L 338.417208 414942.840038 
L 337.243595 414942.840038 
L 336.069981 414942.840038 
L 334.896367 414942.840038 
L 333.722753 414942.840038 
L 332.54914 414942.840038 
L 331.375526 414942.840038 
L 330.201912 414942.840038 
L 329.028298 414942.840038 
L 327.854685 414942.840038 
L 326.681071 414942.840038 
L 325.507457 414942.840038 
L 324.333843 414942.840038 
L 323.160229 414942.840038 
L 321.986616 414942.840038 
L 320.813002 414942.840038 
L 319.639388 414942.840038 
L 318.465774 414942.840038 
L 317.292161 414942.840038 
L 316.118547 414942.840038 
L 314.944933 414942.840038 
L 313.771319 414942.840038 
L 312.597706 414942.840038 
L 311.424092 414942.840038 
L 310.250478 414942.840038 
L 309.076864 414942.840038 
L 307.90325 414942.840038 
L 306.729637 414942.840038 
L 305.556023 414942.840038 
L 304.382409 414942.840038 
L 303.208795 414942.840038 
L 302.035182 414942.840038 
L 300.861568 414942.840038 
L 299.687954 414942.840038 
L 298.51434 414942.840038 
L 297.340727 414942.840038 
L 296.167113 414942.840038 
L 294.993499 414942.840038 
L 293.819885 414942.840038 
L 292.646272 414942.840038 
L 291.472658 414942.840038 
L 290.299044 414942.840038 
L 289.12543 414942.840038 
L 287.951816 414942.840038 
L 286.778203 414942.840038 
L 285.604589 414942.840038 
L 284.430975 414942.840038 
L 283.257361 414942.840038 
L 282.083748 414942.840038 
L 280.910134 414942.840038 
L 279.73652 414942.840038 
L 278.562906 414942.840038 
L 277.389293 414942.840038 
L 276.215679 414942.840038 
L 275.042065 414942.840038 
L 273.868451 414942.840038 
L 272.694837 414942.840038 
L 271.521224 414942.840038 
L 270.34761 414942.840038 
L 269.173996 414942.840038 
L 268.000382 414942.840038 
L 266.826769 414942.840038 
L 265.653155 414942.840038 
L 264.479541 414942.840038 
L 263.305927 414942.840038 
L 262.132314 414942.840038 
L 260.9587 414942.840038 
L 259.785086 414942.840038 
L 258.611472 414942.840038 
L 257.437859 414942.840038 
L 256.264245 414942.840038 
L 255.090631 414942.840038 
L 253.917017 414942.840038 
L 252.743403 414942.840038 
L 251.56979 414942.840038 
L 250.396176 414942.840038 
L 249.222562 414942.840038 
L 248.048948 414942.840038 
L 246.875335 414942.840038 
L 245.701721 414942.840038 
L 244.528107 414942.840038 
L 243.354493 414942.840038 
L 242.18088 414942.840038 
L 241.007266 414942.840038 
L 239.833652 414942.840038 
L 238.660038 414942.840038 
L 237.486424 414942.840038 
L 236.312811 414942.840038 
L 235.139197 414942.840038 
L 233.965583 414942.840038 
L 232.791969 414942.840038 
L 231.618356 414942.840038 
L 230.444742 414942.840038 
L 229.271128 414942.840038 
L 228.097514 414942.840038 
L 226.923901 414942.840038 
L 225.750287 414942.840038 
L 224.576673 414942.840038 
L 223.403059 414942.840038 
L 222.229446 414942.840038 
L 221.055832 414942.840038 
L 219.882218 414942.840038 
L 218.708604 414942.840038 
L 217.53499 414942.840038 
L 216.361377 414942.840038 
L 215.187763 414942.840038 
L 214.014149 414942.840038 
L 212.840535 414942.840038 
L 211.666922 414942.840038 
L 210.493308 414942.840038 
L 209.319694 414942.840038 
L 208.14608 414942.840038 
L 206.972467 414942.840038 
L 205.798853 414942.840038 
L 204.625239 414942.840038 
L 203.451625 414942.840038 
L 202.278011 414942.840038 
L 201.104398 414942.840038 
L 199.930784 414942.840038 
L 198.75717 414942.840038 
L 197.583556 414942.840038 
L 196.409943 414942.840038 
L 195.236329 414942.840038 
L 194.062715 414942.840038 
L 192.889101 414942.840038 
L 191.715488 414942.840038 
L 190.541874 414942.840038 
L 189.36826 414942.840038 
L 188.194646 414942.840038 
L 187.021033 414942.840038 
L 185.847419 414942.840038 
L 184.673805 414942.840038 
L 183.500191 414942.840038 
L 182.326577 414942.840038 
L 181.152964 414942.840038 
L 179.97935 414942.840038 
L 178.805736 414942.840038 
L 177.632122 414942.840038 
L 176.458509 414942.840038 
L 175.284895 414942.840038 
L 174.111281 414942.840038 
L 172.937667 414942.840038 
L 171.764054 414942.840038 
L 170.59044 414942.840038 
L 169.416826 414942.840038 
L 168.243212 414942.840038 
L 167.069598 414942.840038 
L 165.895985 414942.840038 
L 164.722371 414942.840038 
L 163.548757 414942.840038 
L 162.375143 414942.840038 
L 161.20153 414942.840038 
L 160.027916 414942.840038 
L 158.854302 414942.840038 
L 157.680688 414942.840038 
L 156.507075 414942.840038 
L 155.333461 414942.840038 
L 154.159847 414942.840038 
L 152.986233 414942.840038 
L 151.81262 414942.840038 
L 150.639006 414942.840038 
L 149.465392 414942.840038 
L 148.291778 414942.840038 
L 147.118164 414942.840038 
L 145.944551 414942.840038 
L 144.770937 414942.840038 
L 143.597323 414942.840038 
L 142.423709 414942.840038 
L 141.250096 414942.840038 
L 140.076482 414942.840038 
L 138.902868 414942.840038 
L 137.729254 414942.840038 
L 136.555641 414942.840038 
L 135.382027 414942.840038 
L 134.208413 414942.840038 
L 133.034799 414942.840038 
L 131.861185 414942.840038 
L 130.687572 414942.840038 
L 129.513958 414942.840038 
L 128.340344 414942.840038 
L 127.16673 414942.840038 
L 125.993117 414942.840038 
L 124.819503 414942.840038 
L 123.645889 414942.840038 
L 122.472275 414942.840038 
L 121.298662 414942.840038 
L 120.125048 414942.840038 
L 118.951434 414942.840038 
L 117.77782 414942.840038 
L 116.604207 414942.840038 
L 115.430593 414942.840038 
L 114.256979 414942.840038 
L 113.083365 414942.840038 
L 111.909751 414942.840038 
L 110.736138 414942.840038 
L 109.562524 414942.840038 
L 108.38891 414942.840038 
L 107.215296 414942.840038 
L 106.041683 414942.840038 
L 104.868069 414942.840038 
L 103.694455 414942.840038 
L 102.520841 414942.840038 
L 101.347228 414942.840038 
L 100.173614 414942.840038 
L 99 414942.840038 
z
" style="fill:#8080ff;fill-opacity:0.5;stroke:#8080ff;stroke-opacity:0.5;"/>
   </g>
   <g id="PolyCollection_2">
    <path clip-path="url(#p68e2955192)" d="M 99 414942.840038 
L 99 414942.840038 
L 100.173614 414942.840038 
L 101.347228 414942.840038 
L 102.520841 414942.840038 
L 103.694455 414942.840038 
L 104.868069 414942.840038 
L 106.041683 414942.840038 
L 107.215296 414942.840038 
L 108.38891 414942.840038 
L 109.562524 414942.840038 
L 110.736138 414942.840038 
L 111.909751 414942.840038 
L 113.083365 414942.840038 
L 114.256979 462.683445 
L 115.430593 462.683445 
L 116.604207 462.683445 
L 117.77782 462.683445 
L 118.951434 462.683445 
L 120.125048 414942.840038 
L 121.298662 414942.840038 
L 122.472275 414942.840038 
L 123.645889 414942.840038 
L 124.819503 414942.840038 
L 125.993117 414942.840038 
L 127.16673 414942.840038 
L 128.340344 414942.840038 
L 129.513958 414942.840038 
L 130.687572 414942.840038 
L 131.861185 414942.840038 
L 133.034799 414942.840038 
L 134.208413 414942.840038 
L 135.382027 414942.840038 
L 136.555641 414942.840038 
L 137.729254 414942.840038 
L 138.902868 414942.840038 
L 140.076482 414942.840038 
L 141.250096 414942.840038 
L 142.423709 414942.840038 
L 143.597323 414942.840038 
L 144.770937 414942.840038 
L 145.944551 414942.840038 
L 147.118164 414942.840038 
L 148.291778 414942.840038 
L 149.465392 414942.840038 
L 150.639006 414942.840038 
L 151.81262 414942.840038 
L 152.986233 414942.840038 
L 154.159847 414942.840038 
L 155.333461 414942.840038 
L 156.507075 414942.840038 
L 157.680688 414942.840038 
L 158.854302 414942.840038 
L 160.027916 414942.840038 
L 161.20153 414942.840038 
L 162.375143 414942.840038 
L 163.548757 414942.840038 
L 164.722371 414942.840038 
L 165.895985 414942.840038 
L 167.069598 414942.840038 
L 168.243212 414942.840038 
L 169.416826 414942.840038 
L 170.59044 414942.840038 
L 171.764054 414942.840038 
L 172.937667 414942.840038 
L 174.111281 414942.840038 
L 175.284895 414942.840038 
L 176.458509 414942.840038 
L 177.632122 414942.840038 
L 178.805736 414942.840038 
L 179.97935 414942.840038 
L 181.152964 414942.840038 
L 182.326577 414942.840038 
L 183.500191 414942.840038 
L 184.673805 414942.840038 
L 185.847419 414942.840038 
L 187.021033 414942.840038 
L 188.194646 414942.840038 
L 189.36826 414942.840038 
L 190.541874 414942.840038 
L 191.715488 414942.840038 
L 192.889101 414942.840038 
L 194.062715 414942.840038 
L 195.236329 414942.840038 
L 196.409943 414942.840038 
L 197.583556 414942.840038 
L 198.75717 414942.840038 
L 199.930784 414942.840038 
L 201.104398 414942.840038 
L 202.278011 414942.840038 
L 203.451625 414942.840038 
L 204.625239 414942.840038 
L 205.798853 414942.840038 
L 206.972467 414942.840038 
L 208.14608 414942.840038 
L 209.319694 414942.840038 
L 210.493308 414942.840038 
L 211.666922 414942.840038 
L 212.840535 414942.840038 
L 214.014149 414942.840038 
L 215.187763 414942.840038 
L 216.361377 414942.840038 
L 217.53499 414942.840038 
L 218.708604 414942.840038 
L 219.882218 414942.840038 
L 221.055832 414942.840038 
L 222.229446 414942.840038 
L 223.403059 414942.840038 
L 224.576673 414942.840038 
L 225.750287 414942.840038 
L 226.923901 414942.840038 
L 228.097514 414942.840038 
L 229.271128 414942.840038 
L 230.444742 414942.840038 
L 231.618356 414942.840038 
L 232.791969 414942.840038 
L 233.965583 414942.840038 
L 235.139197 414942.840038 
L 236.312811 414942.840038 
L 237.486424 414942.840038 
L 238.660038 414942.840038 
L 239.833652 414942.840038 
L 241.007266 414942.840038 
L 242.18088 414942.840038 
L 243.354493 414942.840038 
L 244.528107 414942.840038 
L 245.701721 414942.840038 
L 246.875335 414942.840038 
L 248.048948 414942.840038 
L 249.222562 414942.840038 
L 250.396176 414942.840038 
L 251.56979 414942.840038 
L 252.743403 414942.840038 
L 253.917017 414942.840038 
L 255.090631 414942.840038 
L 256.264245 414942.840038 
L 257.437859 414942.840038 
L 258.611472 414942.840038 
L 259.785086 414942.840038 
L 260.9587 414942.840038 
L 262.132314 414942.840038 
L 263.305927 414942.840038 
L 264.479541 414942.840038 
L 265.653155 414942.840038 
L 266.826769 414942.840038 
L 268.000382 414942.840038 
L 269.173996 414942.840038 
L 270.34761 414942.840038 
L 271.521224 414942.840038 
L 272.694837 414942.840038 
L 273.868451 414942.840038 
L 275.042065 414942.840038 
L 276.215679 414942.840038 
L 277.389293 414942.840038 
L 278.562906 414942.840038 
L 279.73652 414942.840038 
L 280.910134 414942.840038 
L 282.083748 414942.840038 
L 283.257361 414942.840038 
L 284.430975 414942.840038 
L 285.604589 414942.840038 
L 286.778203 414942.840038 
L 287.951816 414942.840038 
L 289.12543 414942.840038 
L 290.299044 414942.840038 
L 291.472658 414942.840038 
L 292.646272 414942.840038 
L 293.819885 414942.840038 
L 294.993499 414942.840038 
L 296.167113 414942.840038 
L 297.340727 414942.840038 
L 298.51434 414942.840038 
L 299.687954 414942.840038 
L 300.861568 414942.840038 
L 302.035182 414942.840038 
L 303.208795 414942.840038 
L 304.382409 414942.840038 
L 305.556023 414942.840038 
L 306.729637 414942.840038 
L 307.90325 414942.840038 
L 309.076864 414942.840038 
L 310.250478 414942.840038 
L 311.424092 414942.840038 
L 312.597706 414942.840038 
L 313.771319 414942.840038 
L 314.944933 414942.840038 
L 316.118547 414942.840038 
L 317.292161 414942.840038 
L 318.465774 414942.840038 
L 319.639388 414942.840038 
L 320.813002 414942.840038 
L 321.986616 414942.840038 
L 323.160229 414942.840038 
L 324.333843 414942.840038 
L 325.507457 414942.840038 
L 326.681071 414942.840038 
L 327.854685 414942.840038 
L 329.028298 414942.840038 
L 330.201912 414942.840038 
L 331.375526 414942.840038 
L 332.54914 414942.840038 
L 333.722753 414942.840038 
L 334.896367 414942.840038 
L 336.069981 414942.840038 
L 337.243595 414942.840038 
L 338.417208 414942.840038 
L 339.590822 414942.840038 
L 340.764436 414942.840038 
L 341.93805 414942.840038 
L 343.111663 414942.840038 
L 344.285277 414942.840038 
L 345.458891 414942.840038 
L 346.632505 414942.840038 
L 347.806119 414942.840038 
L 348.979732 414942.840038 
L 350.153346 414942.840038 
L 351.32696 414942.840038 
L 352.500574 414942.840038 
L 353.674187 414942.840038 
L 354.847801 414942.840038 
L 356.021415 414942.840038 
L 357.195029 414942.840038 
L 358.368642 414942.840038 
L 359.542256 414942.840038 
L 360.71587 414942.840038 
L 361.889484 414942.840038 
L 363.063098 414942.840038 
L 364.236711 414942.840038 
L 365.410325 414942.840038 
L 366.583939 414942.840038 
L 367.757553 414942.840038 
L 368.931166 414942.840038 
L 370.10478 414942.840038 
L 371.278394 414942.840038 
L 372.452008 414942.840038 
L 373.625621 414942.840038 
L 374.799235 414942.840038 
L 375.972849 414942.840038 
L 377.146463 414942.840038 
L 378.320076 414942.840038 
L 379.49369 414942.840038 
L 380.667304 414942.840038 
L 381.840918 414942.840038 
L 383.014532 414942.840038 
L 384.188145 414942.840038 
L 385.361759 414942.840038 
L 386.535373 414942.840038 
L 387.708987 414942.840038 
L 388.8826 414942.840038 
L 390.056214 414942.840038 
L 391.229828 414942.840038 
L 392.403442 414942.840038 
L 393.577055 414942.840038 
L 394.750669 414942.840038 
L 395.924283 414942.840038 
L 397.097897 414942.840038 
L 398.271511 414942.840038 
L 399.445124 414942.840038 
L 400.618738 414942.840038 
L 401.792352 414942.840038 
L 402.965966 414942.840038 
L 404.139579 414942.840038 
L 405.313193 414942.840038 
L 406.486807 414942.840038 
L 407.660421 414942.840038 
L 408.834034 414942.840038 
L 410.007648 414942.840038 
L 411.181262 414942.840038 
L 412.354876 414942.840038 
L 413.528489 414942.840038 
L 414.702103 414942.840038 
L 415.875717 414942.840038 
L 417.049331 414942.840038 
L 418.222945 414942.840038 
L 419.396558 414942.840038 
L 420.570172 414942.840038 
L 421.743786 414942.840038 
L 422.9174 414942.840038 
L 424.091013 414942.840038 
L 425.264627 414942.840038 
L 426.438241 414942.840038 
L 427.611855 414942.840038 
L 428.785468 414942.840038 
L 429.959082 414942.840038 
L 431.132696 414942.840038 
L 432.30631 414942.840038 
L 433.479924 414942.840038 
L 434.653537 414942.840038 
L 435.827151 414942.840038 
L 437.000765 414942.840038 
L 438.174379 414942.840038 
L 439.347992 414942.840038 
L 440.521606 414942.840038 
L 441.69522 414942.840038 
L 442.868834 414942.840038 
L 444.042447 414942.840038 
L 445.216061 414942.840038 
L 446.389675 414942.840038 
L 447.563289 414942.840038 
L 448.736902 414942.840038 
L 449.910516 414942.840038 
L 451.08413 414942.840038 
L 452.257744 414942.840038 
L 453.431358 414942.840038 
L 454.604971 414942.840038 
L 455.778585 414942.840038 
L 456.952199 414942.840038 
L 458.125813 414942.840038 
L 459.299426 414942.840038 
L 460.47304 414942.840038 
L 461.646654 414942.840038 
L 462.820268 414942.840038 
L 463.993881 414942.840038 
L 465.167495 414942.840038 
L 466.341109 414942.840038 
L 467.514723 414942.840038 
L 468.688337 414942.840038 
L 469.86195 414942.840038 
L 471.035564 414942.840038 
L 472.209178 414942.840038 
L 473.382792 414942.840038 
L 474.556405 414942.840038 
L 475.730019 414942.840038 
L 476.903633 414942.840038 
L 478.077247 414942.840038 
L 479.25086 414942.840038 
L 480.424474 414942.840038 
L 481.598088 414942.840038 
L 482.771702 414942.840038 
L 483.945315 414942.840038 
L 485.118929 414942.840038 
L 486.292543 414942.840038 
L 487.466157 414942.840038 
L 488.639771 414942.840038 
L 489.813384 414942.840038 
L 490.986998 414942.840038 
L 492.160612 414942.840038 
L 493.334226 414942.840038 
L 494.507839 414942.840038 
L 495.681453 414942.840038 
L 496.855067 414942.840038 
L 498.028681 414942.840038 
L 499.202294 414942.840038 
L 500.375908 414942.840038 
L 501.549522 414942.840038 
L 502.723136 414942.840038 
L 503.89675 414942.840038 
L 505.070363 414942.840038 
L 506.243977 414942.840038 
L 507.417591 414942.840038 
L 508.591205 414942.840038 
L 509.764818 414942.840038 
L 510.938432 414942.840038 
L 512.112046 414942.840038 
L 513.28566 414942.840038 
L 514.459273 414942.840038 
L 515.632887 414942.840038 
L 516.806501 414942.840038 
L 517.980115 414942.840038 
L 519.153728 414942.840038 
L 520.327342 414942.840038 
L 521.500956 414942.840038 
L 522.67457 414942.840038 
L 523.848184 414942.840038 
L 525.021797 414942.840038 
L 526.195411 414942.840038 
L 527.369025 414942.840038 
L 528.542639 414942.840038 
L 529.716252 414942.840038 
L 530.889866 414942.840038 
L 532.06348 414942.840038 
L 533.237094 414942.840038 
L 534.410707 414942.840038 
L 535.584321 414942.840038 
L 536.757935 414942.840038 
L 537.931549 414942.840038 
L 539.105163 414942.840038 
L 540.278776 414942.840038 
L 541.45239 414942.840038 
L 542.626004 414942.840038 
L 543.799618 414942.840038 
L 544.973231 414942.840038 
L 546.146845 414942.840038 
L 547.320459 414942.840038 
L 548.494073 414942.840038 
L 549.667686 414942.840038 
L 550.8413 414942.840038 
L 552.014914 414942.840038 
L 553.188528 414942.840038 
L 554.362141 414942.840038 
L 555.535755 414942.840038 
L 556.709369 414942.840038 
L 557.882983 414942.840038 
L 559.056597 414942.840038 
L 560.23021 414942.840038 
L 561.403824 414942.840038 
L 562.577438 414942.840038 
L 563.751052 414942.840038 
L 564.924665 414942.840038 
L 566.098279 414942.840038 
L 567.271893 414942.840038 
L 568.445507 414942.840038 
L 569.61912 414942.840038 
L 570.792734 414942.840038 
L 571.966348 414942.840038 
L 573.139962 414942.840038 
L 574.313576 414942.840038 
L 575.487189 414942.840038 
L 576.660803 414942.840038 
L 577.834417 414942.840038 
L 579.008031 414942.840038 
L 580.181644 414942.840038 
L 581.355258 414942.840038 
L 582.528872 414942.840038 
L 583.702486 414942.840038 
L 584.876099 414942.840038 
L 586.049713 414942.840038 
L 587.223327 414942.840038 
L 588.396941 414942.840038 
L 589.570554 414942.840038 
L 590.744168 414942.840038 
L 591.917782 414942.840038 
L 593.091396 414942.840038 
L 594.26501 414942.840038 
L 595.438623 414942.840038 
L 596.612237 414942.840038 
L 597.785851 414942.840038 
L 598.959465 414942.840038 
L 600.133078 414942.840038 
L 601.306692 414942.840038 
L 602.480306 414942.840038 
L 603.65392 414942.840038 
L 604.827533 414942.840038 
L 606.001147 414942.840038 
L 607.174761 414942.840038 
L 608.348375 414942.840038 
L 609.521989 414942.840038 
L 610.695602 414942.840038 
L 611.869216 414942.840038 
L 613.04283 414942.840038 
L 614.216444 414942.840038 
L 615.390057 414942.840038 
L 616.563671 414942.840038 
L 617.737285 414942.840038 
L 618.910899 414942.840038 
L 620.084512 414942.840038 
L 621.258126 414942.840038 
L 622.43174 414942.840038 
L 623.605354 414942.840038 
L 624.778967 414942.840038 
L 625.952581 414942.840038 
L 627.126195 414942.840038 
L 628.299809 414942.840038 
L 629.473423 414942.840038 
L 630.647036 414942.840038 
L 631.82065 414942.840038 
L 632.994264 414942.840038 
L 634.167878 414942.840038 
L 635.341491 414942.840038 
L 636.515105 414942.840038 
L 637.688719 414942.840038 
L 638.862333 414942.840038 
L 640.035946 414942.840038 
L 641.20956 414942.840038 
L 642.383174 414942.840038 
L 643.556788 414942.840038 
L 644.730402 414942.840038 
L 645.904015 414942.840038 
L 647.077629 414942.840038 
L 648.251243 414942.840038 
L 649.424857 414942.840038 
L 650.59847 414942.840038 
L 651.772084 414942.840038 
L 652.945698 414942.840038 
L 654.119312 414942.840038 
L 655.292925 414942.840038 
L 656.466539 414942.840038 
L 657.640153 414942.840038 
L 658.813767 414942.840038 
L 659.98738 414942.840038 
L 661.160994 414942.840038 
L 662.334608 414942.840038 
L 663.508222 414942.840038 
L 664.681836 414942.840038 
L 665.855449 414942.840038 
L 667.029063 414942.840038 
L 668.202677 414942.840038 
L 669.376291 414942.840038 
L 670.549904 414942.840038 
L 671.723518 414942.840038 
L 672.897132 414942.840038 
L 674.070746 414942.840038 
L 675.244359 414942.840038 
L 676.417973 414942.840038 
L 677.591587 414942.840038 
L 678.765201 414942.840038 
L 679.938815 414942.840038 
L 681.112428 414942.840038 
L 682.286042 414942.840038 
L 683.459656 414942.840038 
L 684.63327 414942.840038 
L 685.806883 414942.840038 
L 686.980497 414942.840038 
L 688.154111 414942.840038 
L 689.327725 414942.840038 
L 690.501338 414942.840038 
L 691.674952 414942.840038 
L 692.848566 414942.840038 
L 694.02218 414942.840038 
L 695.195793 414942.840038 
L 696.369407 414942.840038 
L 697.543021 414942.840038 
L 698.716635 414942.840038 
L 699.890249 414942.840038 
L 701.063862 414942.840038 
L 702.237476 414942.840038 
L 703.41109 414942.840038 
L 704.584704 414942.840038 
L 705.758317 414942.840038 
L 706.931931 414942.840038 
L 708.105545 414942.840038 
L 709.279159 414942.840038 
L 710.452772 414942.840038 
L 711.626386 414942.840038 
L 712.8 414942.840038 
L 712.8 414942.840038 
L 712.8 414942.840038 
L 711.626386 414942.840038 
L 710.452772 414942.840038 
L 709.279159 414942.840038 
L 708.105545 414942.840038 
L 706.931931 414942.840038 
L 705.758317 414942.840038 
L 704.584704 414942.840038 
L 703.41109 414942.840038 
L 702.237476 414942.840038 
L 701.063862 414942.840038 
L 699.890249 414942.840038 
L 698.716635 414942.840038 
L 697.543021 414942.840038 
L 696.369407 414942.840038 
L 695.195793 414942.840038 
L 694.02218 414942.840038 
L 692.848566 414942.840038 
L 691.674952 414942.840038 
L 690.501338 414942.840038 
L 689.327725 414942.840038 
L 688.154111 414942.840038 
L 686.980497 414942.840038 
L 685.806883 414942.840038 
L 684.63327 414942.840038 
L 683.459656 414942.840038 
L 682.286042 414942.840038 
L 681.112428 414942.840038 
L 679.938815 414942.840038 
L 678.765201 414942.840038 
L 677.591587 414942.840038 
L 676.417973 414942.840038 
L 675.244359 414942.840038 
L 674.070746 414942.840038 
L 672.897132 414942.840038 
L 671.723518 414942.840038 
L 670.549904 414942.840038 
L 669.376291 414942.840038 
L 668.202677 414942.840038 
L 667.029063 414942.840038 
L 665.855449 414942.840038 
L 664.681836 414942.840038 
L 663.508222 414942.840038 
L 662.334608 414942.840038 
L 661.160994 414942.840038 
L 659.98738 414942.840038 
L 658.813767 414942.840038 
L 657.640153 414942.840038 
L 656.466539 414942.840038 
L 655.292925 414942.840038 
L 654.119312 414942.840038 
L 652.945698 414942.840038 
L 651.772084 414942.840038 
L 650.59847 414942.840038 
L 649.424857 414942.840038 
L 648.251243 414942.840038 
L 647.077629 414942.840038 
L 645.904015 414942.840038 
L 644.730402 414942.840038 
L 643.556788 414942.840038 
L 642.383174 414942.840038 
L 641.20956 414942.840038 
L 640.035946 414942.840038 
L 638.862333 414942.840038 
L 637.688719 414942.840038 
L 636.515105 414942.840038 
L 635.341491 414942.840038 
L 634.167878 414942.840038 
L 632.994264 414942.840038 
L 631.82065 414942.840038 
L 630.647036 414942.840038 
L 629.473423 414942.840038 
L 628.299809 414942.840038 
L 627.126195 414942.840038 
L 625.952581 414942.840038 
L 624.778967 414942.840038 
L 623.605354 414942.840038 
L 622.43174 414942.840038 
L 621.258126 414942.840038 
L 620.084512 414942.840038 
L 618.910899 414942.840038 
L 617.737285 414942.840038 
L 616.563671 414942.840038 
L 615.390057 414942.840038 
L 614.216444 414942.840038 
L 613.04283 414942.840038 
L 611.869216 414942.840038 
L 610.695602 414942.840038 
L 609.521989 414942.840038 
L 608.348375 414942.840038 
L 607.174761 414942.840038 
L 606.001147 414942.840038 
L 604.827533 414942.840038 
L 603.65392 414942.840038 
L 602.480306 414942.840038 
L 601.306692 414942.840038 
L 600.133078 414942.840038 
L 598.959465 414942.840038 
L 597.785851 414942.840038 
L 596.612237 414942.840038 
L 595.438623 414942.840038 
L 594.26501 414942.840038 
L 593.091396 414942.840038 
L 591.917782 414942.840038 
L 590.744168 414942.840038 
L 589.570554 414942.840038 
L 588.396941 414942.840038 
L 587.223327 414942.840038 
L 586.049713 414942.840038 
L 584.876099 414942.840038 
L 583.702486 414942.840038 
L 582.528872 414942.840038 
L 581.355258 414942.840038 
L 580.181644 414942.840038 
L 579.008031 414942.840038 
L 577.834417 414942.840038 
L 576.660803 414942.840038 
L 575.487189 414942.840038 
L 574.313576 414942.840038 
L 573.139962 414942.840038 
L 571.966348 414942.840038 
L 570.792734 414942.840038 
L 569.61912 414942.840038 
L 568.445507 414942.840038 
L 567.271893 414942.840038 
L 566.098279 414942.840038 
L 564.924665 414942.840038 
L 563.751052 414942.840038 
L 562.577438 414942.840038 
L 561.403824 414942.840038 
L 560.23021 414942.840038 
L 559.056597 414942.840038 
L 557.882983 414942.840038 
L 556.709369 414942.840038 
L 555.535755 414942.840038 
L 554.362141 414942.840038 
L 553.188528 414942.840038 
L 552.014914 414942.840038 
L 550.8413 414942.840038 
L 549.667686 414942.840038 
L 548.494073 414942.840038 
L 547.320459 414942.840038 
L 546.146845 414942.840038 
L 544.973231 414942.840038 
L 543.799618 414942.840038 
L 542.626004 414942.840038 
L 541.45239 414942.840038 
L 540.278776 414942.840038 
L 539.105163 414942.840038 
L 537.931549 414942.840038 
L 536.757935 414942.840038 
L 535.584321 414942.840038 
L 534.410707 414942.840038 
L 533.237094 414942.840038 
L 532.06348 414942.840038 
L 530.889866 414942.840038 
L 529.716252 414942.840038 
L 528.542639 414942.840038 
L 527.369025 414942.840038 
L 526.195411 414942.840038 
L 525.021797 414942.840038 
L 523.848184 414942.840038 
L 522.67457 414942.840038 
L 521.500956 414942.840038 
L 520.327342 414942.840038 
L 519.153728 414942.840038 
L 517.980115 414942.840038 
L 516.806501 414942.840038 
L 515.632887 414942.840038 
L 514.459273 414942.840038 
L 513.28566 414942.840038 
L 512.112046 414942.840038 
L 510.938432 414942.840038 
L 509.764818 414942.840038 
L 508.591205 414942.840038 
L 507.417591 414942.840038 
L 506.243977 414942.840038 
L 505.070363 414942.840038 
L 503.89675 414942.840038 
L 502.723136 414942.840038 
L 501.549522 414942.840038 
L 500.375908 414942.840038 
L 499.202294 414942.840038 
L 498.028681 414942.840038 
L 496.855067 414942.840038 
L 495.681453 414942.840038 
L 494.507839 414942.840038 
L 493.334226 414942.840038 
L 492.160612 414942.840038 
L 490.986998 414942.840038 
L 489.813384 414942.840038 
L 488.639771 414942.840038 
L 487.466157 414942.840038 
L 486.292543 414942.840038 
L 485.118929 414942.840038 
L 483.945315 414942.840038 
L 482.771702 414942.840038 
L 481.598088 414942.840038 
L 480.424474 414942.840038 
L 479.25086 414942.840038 
L 478.077247 414942.840038 
L 476.903633 414942.840038 
L 475.730019 414942.840038 
L 474.556405 414942.840038 
L 473.382792 414942.840038 
L 472.209178 414942.840038 
L 471.035564 414942.840038 
L 469.86195 414942.840038 
L 468.688337 414942.840038 
L 467.514723 414942.840038 
L 466.341109 414942.840038 
L 465.167495 414942.840038 
L 463.993881 414942.840038 
L 462.820268 414942.840038 
L 461.646654 414942.840038 
L 460.47304 414942.840038 
L 459.299426 414942.840038 
L 458.125813 414942.840038 
L 456.952199 414942.840038 
L 455.778585 414942.840038 
L 454.604971 414942.840038 
L 453.431358 414942.840038 
L 452.257744 414942.840038 
L 451.08413 414942.840038 
L 449.910516 414942.840038 
L 448.736902 414942.840038 
L 447.563289 414942.840038 
L 446.389675 414942.840038 
L 445.216061 414942.840038 
L 444.042447 414942.840038 
L 442.868834 414942.840038 
L 441.69522 414942.840038 
L 440.521606 414942.840038 
L 439.347992 414942.840038 
L 438.174379 414942.840038 
L 437.000765 414942.840038 
L 435.827151 414942.840038 
L 434.653537 414942.840038 
L 433.479924 414942.840038 
L 432.30631 414942.840038 
L 431.132696 414942.840038 
L 429.959082 414942.840038 
L 428.785468 414942.840038 
L 427.611855 414942.840038 
L 426.438241 414942.840038 
L 425.264627 414942.840038 
L 424.091013 414942.840038 
L 422.9174 414942.840038 
L 421.743786 414942.840038 
L 420.570172 414942.840038 
L 419.396558 414942.840038 
L 418.222945 414942.840038 
L 417.049331 414942.840038 
L 415.875717 414942.840038 
L 414.702103 414942.840038 
L 413.528489 414942.840038 
L 412.354876 414942.840038 
L 411.181262 414942.840038 
L 410.007648 414942.840038 
L 408.834034 414942.840038 
L 407.660421 414942.840038 
L 406.486807 414942.840038 
L 405.313193 414942.840038 
L 404.139579 414942.840038 
L 402.965966 414942.840038 
L 401.792352 414942.840038 
L 400.618738 414942.840038 
L 399.445124 414942.840038 
L 398.271511 414942.840038 
L 397.097897 414942.840038 
L 395.924283 414942.840038 
L 394.750669 414942.840038 
L 393.577055 414942.840038 
L 392.403442 414942.840038 
L 391.229828 414942.840038 
L 390.056214 414942.840038 
L 388.8826 414942.840038 
L 387.708987 414942.840038 
L 386.535373 414942.840038 
L 385.361759 414942.840038 
L 384.188145 414942.840038 
L 383.014532 414942.840038 
L 381.840918 414942.840038 
L 380.667304 414942.840038 
L 379.49369 414942.840038 
L 378.320076 414942.840038 
L 377.146463 414942.840038 
L 375.972849 414942.840038 
L 374.799235 414942.840038 
L 373.625621 414942.840038 
L 372.452008 414942.840038 
L 371.278394 414942.840038 
L 370.10478 414942.840038 
L 368.931166 414942.840038 
L 367.757553 414942.840038 
L 366.583939 414942.840038 
L 365.410325 414942.840038 
L 364.236711 414942.840038 
L 363.063098 414942.840038 
L 361.889484 414942.840038 
L 360.71587 414942.840038 
L 359.542256 414942.840038 
L 358.368642 414942.840038 
L 357.195029 414942.840038 
L 356.021415 414942.840038 
L 354.847801 414942.840038 
L 353.674187 414942.840038 
L 352.500574 414942.840038 
L 351.32696 414942.840038 
L 350.153346 414942.840038 
L 348.979732 414942.840038 
L 347.806119 414942.840038 
L 346.632505 414942.840038 
L 345.458891 414942.840038 
L 344.285277 414942.840038 
L 343.111663 414942.840038 
L 341.93805 414942.840038 
L 340.764436 414942.840038 
L 339.590822 414942.840038 
L 338.417208 414942.840038 
L 337.243595 414942.840038 
L 336.069981 414942.840038 
L 334.896367 414942.840038 
L 333.722753 414942.840038 
L 332.54914 414942.840038 
L 331.375526 414942.840038 
L 330.201912 414942.840038 
L 329.028298 414942.840038 
L 327.854685 414942.840038 
L 326.681071 414942.840038 
L 325.507457 414942.840038 
L 324.333843 414942.840038 
L 323.160229 414942.840038 
L 321.986616 414942.840038 
L 320.813002 414942.840038 
L 319.639388 414942.840038 
L 318.465774 414942.840038 
L 317.292161 414942.840038 
L 316.118547 414942.840038 
L 314.944933 414942.840038 
L 313.771319 414942.840038 
L 312.597706 414942.840038 
L 311.424092 414942.840038 
L 310.250478 414942.840038 
L 309.076864 414942.840038 
L 307.90325 414942.840038 
L 306.729637 414942.840038 
L 305.556023 414942.840038 
L 304.382409 414942.840038 
L 303.208795 414942.840038 
L 302.035182 414942.840038 
L 300.861568 414942.840038 
L 299.687954 414942.840038 
L 298.51434 414942.840038 
L 297.340727 414942.840038 
L 296.167113 414942.840038 
L 294.993499 414942.840038 
L 293.819885 414942.840038 
L 292.646272 414942.840038 
L 291.472658 414942.840038 
L 290.299044 414942.840038 
L 289.12543 414942.840038 
L 287.951816 414942.840038 
L 286.778203 414942.840038 
L 285.604589 414942.840038 
L 284.430975 414942.840038 
L 283.257361 414942.840038 
L 282.083748 414942.840038 
L 280.910134 414942.840038 
L 279.73652 414942.840038 
L 278.562906 414942.840038 
L 277.389293 414942.840038 
L 276.215679 414942.840038 
L 275.042065 414942.840038 
L 273.868451 414942.840038 
L 272.694837 414942.840038 
L 271.521224 414942.840038 
L 270.34761 414942.840038 
L 269.173996 414942.840038 
L 268.000382 414942.840038 
L 266.826769 414942.840038 
L 265.653155 414942.840038 
L 264.479541 414942.840038 
L 263.305927 414942.840038 
L 262.132314 414942.840038 
L 260.9587 414942.840038 
L 259.785086 414942.840038 
L 258.611472 414942.840038 
L 257.437859 414942.840038 
L 256.264245 414942.840038 
L 255.090631 414942.840038 
L 253.917017 414942.840038 
L 252.743403 414942.840038 
L 251.56979 414942.840038 
L 250.396176 414942.840038 
L 249.222562 414942.840038 
L 248.048948 414942.840038 
L 246.875335 414942.840038 
L 245.701721 414942.840038 
L 244.528107 414942.840038 
L 243.354493 414942.840038 
L 242.18088 414942.840038 
L 241.007266 414942.840038 
L 239.833652 414942.840038 
L 238.660038 414942.840038 
L 237.486424 414942.840038 
L 236.312811 414942.840038 
L 235.139197 414942.840038 
L 233.965583 414942.840038 
L 232.791969 414942.840038 
L 231.618356 414942.840038 
L 230.444742 414942.840038 
L 229.271128 414942.840038 
L 228.097514 414942.840038 
L 226.923901 414942.840038 
L 225.750287 414942.840038 
L 224.576673 414942.840038 
L 223.403059 414942.840038 
L 222.229446 414942.840038 
L 221.055832 414942.840038 
L 219.882218 414942.840038 
L 218.708604 414942.840038 
L 217.53499 414942.840038 
L 216.361377 414942.840038 
L 215.187763 414942.840038 
L 214.014149 414942.840038 
L 212.840535 414942.840038 
L 211.666922 414942.840038 
L 210.493308 414942.840038 
L 209.319694 414942.840038 
L 208.14608 414942.840038 
L 206.972467 414942.840038 
L 205.798853 414942.840038 
L 204.625239 414942.840038 
L 203.451625 414942.840038 
L 202.278011 414942.840038 
L 201.104398 414942.840038 
L 199.930784 414942.840038 
L 198.75717 414942.840038 
L 197.583556 414942.840038 
L 196.409943 414942.840038 
L 195.236329 414942.840038 
L 194.062715 414942.840038 
L 192.889101 414942.840038 
L 191.715488 414942.840038 
L 190.541874 414942.840038 
L 189.36826 414942.840038 
L 188.194646 414942.840038 
L 187.021033 414942.840038 
L 185.847419 414942.840038 
L 184.673805 414942.840038 
L 183.500191 414942.840038 
L 182.326577 414942.840038 
L 181.152964 414942.840038 
L 179.97935 414942.840038 
L 178.805736 414942.840038 
L 177.632122 414942.840038 
L 176.458509 414942.840038 
L 175.284895 414942.840038 
L 174.111281 414942.840038 
L 172.937667 414942.840038 
L 171.764054 414942.840038 
L 170.59044 414942.840038 
L 169.416826 414942.840038 
L 168.243212 414942.840038 
L 167.069598 414942.840038 
L 165.895985 414942.840038 
L 164.722371 414942.840038 
L 163.548757 414942.840038 
L 162.375143 414942.840038 
L 161.20153 414942.840038 
L 160.027916 414942.840038 
L 158.854302 414942.840038 
L 157.680688 414942.840038 
L 156.507075 414942.840038 
L 155.333461 414942.840038 
L 154.159847 414942.840038 
L 152.986233 414942.840038 
L 151.81262 414942.840038 
L 150.639006 414942.840038 
L 149.465392 414942.840038 
L 148.291778 414942.840038 
L 147.118164 414942.840038 
L 145.944551 414942.840038 
L 144.770937 414942.840038 
L 143.597323 414942.840038 
L 142.423709 414942.840038 
L 141.250096 414942.840038 
L 140.076482 414942.840038 
L 138.902868 414942.840038 
L 137.729254 414942.840038 
L 136.555641 414942.840038 
L 135.382027 414942.840038 
L 134.208413 414942.840038 
L 133.034799 414942.840038 
L 131.861185 414942.840038 
L 130.687572 414942.840038 
L 129.513958 414942.840038 
L 128.340344 414942.840038 
L 127.16673 414942.840038 
L 125.993117 414942.840038 
L 124.819503 414942.840038 
L 123.645889 414942.840038 
L 122.472275 414942.840038 
L 121.298662 414942.840038 
L 120.125048 414942.840038 
L 118.951434 414942.840038 
L 117.77782 414942.840038 
L 116.604207 414942.840038 
L 115.430593 414942.840038 
L 114.256979 414942.840038 
L 113.083365 414942.840038 
L 111.909751 414942.840038 
L 110.736138 414942.840038 
L 109.562524 414942.840038 
L 108.38891 414942.840038 
L 107.215296 414942.840038 
L 106.041683 414942.840038 
L 104.868069 414942.840038 
L 103.694455 414942.840038 
L 102.520841 414942.840038 
L 101.347228 414942.840038 
L 100.173614 414942.840038 
L 99 414942.840038 
z
" style="fill:#ff8080;fill-opacity:0.5;stroke:#ff8080;stroke-opacity:0.5;"/>
   </g>
   <g id="matplotlib.axis_1">
    <g id="xtick_1">
     <g id="line2d_1">
      <path clip-path="url(#p68e2955192)" d="M 99 544.68 
L 99 73.44 
" style="fill:none;stroke:#b0b0b0;stroke-linecap:square;stroke-width:0.8;"/>
     </g>
     <g id="line2d_2">
      <defs>
       <path d="M 0 0 
L 0 3.5 
" id="m4abed1d830" style="stroke:#000000;stroke-width:0.8;"/>
      </defs>
      <g>
       <use style="stroke:#000000;stroke-width:0.8;" x="99" xlink:href="#m4abed1d830" y="544.68"/>
      </g>
     </g>
    </g>
    <g id="xtick_2">
     <g id="line2d_3">
      <path clip-path="url(#p68e2955192)" d="M 103.694455 544.68 
L 103.694455 73.44 
" style="fill:none;stroke:#b0b0b0;stroke-linecap:square;stroke-width:0.8;"/>
     </g>
     <g id="line2d_4">
      <g>
       <use style="stroke:#000000;stroke-width:0.8;" x="103.694455" xlink:href="#m4abed1d830" y="544.68"/>
      </g>
     </g>
     <g id="text_1">
      <!-- Apr -->
      <g transform="translate(95.044455 559.278437)scale(0.1 -0.1)">
       <defs>
        <path d="M 2188 4044 
L 1331 1722 
L 3047 1722 
L 2188 4044 
z
M 1831 4666 
L 2547 4666 
L 4325 0 
L 3669 0 
L 3244 1197 
L 1141 1197 
L 716 0 
L 50 0 
L 1831 4666 
z
" id="DejaVuSans-41" transform="scale(0.015625)"/>
        <path d="M 1159 525 
L 1159 -1331 
L 581 -1331 
L 581 3500 
L 1159 3500 
L 1159 2969 
Q 1341 3281 1617 3432 
Q 1894 3584 2278 3584 
Q 2916 3584 3314 3078 
Q 3713 2572 3713 1747 
Q 3713 922 3314 415 
Q 2916 -91 2278 -91 
Q 1894 -91 1617 61 
Q 1341 213 1159 525 
z
M 3116 1747 
Q 3116 2381 2855 2742 
Q 2594 3103 2138 3103 
Q 1681 3103 1420 2742 
Q 1159 2381 1159 1747 
Q 1159 1113 1420 752 
Q 1681 391 2138 391 
Q 2594 391 2855 752 
Q 3116 1113 3116 1747 
z
" id="DejaVuSans-70" transform="scale(0.015625)"/>
        <path d="M 2631 2963 
Q 2534 3019 2420 3045 
Q 2306 3072 2169 3072 
Q 1681 3072 1420 2755 
Q 1159 2438 1159 1844 
L 1159 0 
L 581 0 
L 581 3500 
L 1159 3500 
L 1159 2956 
Q 1341 3275 1631 3429 
Q 1922 3584 2338 3584 
Q 2397 3584 2469 3576 
Q 2541 3569 2628 3553 
L 2631 2963 
z
" id="DejaVuSans-72" transform="scale(0.015625)"/>
       </defs>
       <use xlink:href="#DejaVuSans-41"/>
       <use x="68.408203" xlink:href="#DejaVuSans-70"/>
       <use x="131.884766" xlink:href="#DejaVuSans-72"/>
      </g>
     </g>
    </g>
    <g id="xtick_3">
     <g id="line2d_5">
      <path clip-path="url(#p68e2955192)" d="M 210.493308 544.68 
L 210.493308 73.44 
" style="fill:none;stroke:#b0b0b0;stroke-linecap:square;stroke-width:0.8;"/>
     </g>
     <g id="line2d_6">
      <g>
       <use style="stroke:#000000;stroke-width:0.8;" x="210.493308" xlink:href="#m4abed1d830" y="544.68"/>
      </g>
     </g>
     <g id="text_2">
      <!-- Jul -->
      <g transform="translate(204.460495 559.278437)scale(0.1 -0.1)">
       <defs>
        <path d="M 628 4666 
L 1259 4666 
L 1259 325 
Q 1259 -519 939 -900 
Q 619 -1281 -91 -1281 
L -331 -1281 
L -331 -750 
L -134 -750 
Q 284 -750 456 -515 
Q 628 -281 628 325 
L 628 4666 
z
" id="DejaVuSans-4a" transform="scale(0.015625)"/>
        <path d="M 544 1381 
L 544 3500 
L 1119 3500 
L 1119 1403 
Q 1119 906 1312 657 
Q 1506 409 1894 409 
Q 2359 409 2629 706 
Q 2900 1003 2900 1516 
L 2900 3500 
L 3475 3500 
L 3475 0 
L 2900 0 
L 2900 538 
Q 2691 219 2414 64 
Q 2138 -91 1772 -91 
Q 1169 -91 856 284 
Q 544 659 544 1381 
z
M 1991 3584 
L 1991 3584 
z
" id="DejaVuSans-75" transform="scale(0.015625)"/>
        <path d="M 603 4863 
L 1178 4863 
L 1178 0 
L 603 0 
L 603 4863 
z
" id="DejaVuSans-6c" transform="scale(0.015625)"/>
       </defs>
       <use xlink:href="#DejaVuSans-4a"/>
       <use x="29.492188" xlink:href="#DejaVuSans-75"/>
       <use x="92.871094" xlink:href="#DejaVuSans-6c"/>
      </g>
     </g>
    </g>
    <g id="xtick_4">
     <g id="line2d_7">
      <path clip-path="url(#p68e2955192)" d="M 318.465774 544.68 
L 318.465774 73.44 
" style="fill:none;stroke:#b0b0b0;stroke-linecap:square;stroke-width:0.8;"/>
     </g>
     <g id="line2d_8">
      <g>
       <use style="stroke:#000000;stroke-width:0.8;" x="318.465774" xlink:href="#m4abed1d830" y="544.68"/>
      </g>
     </g>
     <g id="text_3">
      <!-- Oct -->
      <g transform="translate(309.820462 559.278437)scale(0.1 -0.1)">
       <defs>
        <path d="M 2522 4238 
Q 1834 4238 1429 3725 
Q 1025 3213 1025 2328 
Q 1025 1447 1429 934 
Q 1834 422 2522 422 
Q 3209 422 3611 934 
Q 4013 1447 4013 2328 
Q 4013 3213 3611 3725 
Q 3209 4238 2522 4238 
z
M 2522 4750 
Q 3503 4750 4090 4092 
Q 4678 3434 4678 2328 
Q 4678 1225 4090 567 
Q 3503 -91 2522 -91 
Q 1538 -91 948 565 
Q 359 1222 359 2328 
Q 359 3434 948 4092 
Q 1538 4750 2522 4750 
z
" id="DejaVuSans-4f" transform="scale(0.015625)"/>
        <path d="M 3122 3366 
L 3122 2828 
Q 2878 2963 2633 3030 
Q 2388 3097 2138 3097 
Q 1578 3097 1268 2742 
Q 959 2388 959 1747 
Q 959 1106 1268 751 
Q 1578 397 2138 397 
Q 2388 397 2633 464 
Q 2878 531 3122 666 
L 3122 134 
Q 2881 22 2623 -34 
Q 2366 -91 2075 -91 
Q 1284 -91 818 406 
Q 353 903 353 1747 
Q 353 2603 823 3093 
Q 1294 3584 2113 3584 
Q 2378 3584 2631 3529 
Q 2884 3475 3122 3366 
z
" id="DejaVuSans-63" transform="scale(0.015625)"/>
        <path d="M 1172 4494 
L 1172 3500 
L 2356 3500 
L 2356 3053 
L 1172 3053 
L 1172 1153 
Q 1172 725 1289 603 
Q 1406 481 1766 481 
L 2356 481 
L 2356 0 
L 1766 0 
Q 1100 0 847 248 
Q 594 497 594 1153 
L 594 3053 
L 172 3053 
L 172 3500 
L 594 3500 
L 594 4494 
L 1172 4494 
z
" id="DejaVuSans-74" transform="scale(0.015625)"/>
       </defs>
       <use xlink:href="#DejaVuSans-4f"/>
       <use x="78.710938" xlink:href="#DejaVuSans-63"/>
       <use x="133.691406" xlink:href="#DejaVuSans-74"/>
      </g>
     </g>
    </g>
    <g id="xtick_5">
     <g id="line2d_9">
      <path clip-path="url(#p68e2955192)" d="M 426.438241 544.68 
L 426.438241 73.44 
" style="fill:none;stroke:#b0b0b0;stroke-linecap:square;stroke-width:0.8;"/>
     </g>
     <g id="line2d_10">
      <g>
       <use style="stroke:#000000;stroke-width:0.8;" x="426.438241" xlink:href="#m4abed1d830" y="544.68"/>
      </g>
     </g>
     <g id="text_4">
      <!-- Jan -->
      <g transform="translate(418.730428 559.278437)scale(0.1 -0.1)">
       <defs>
        <path d="M 2194 1759 
Q 1497 1759 1228 1600 
Q 959 1441 959 1056 
Q 959 750 1161 570 
Q 1363 391 1709 391 
Q 2188 391 2477 730 
Q 2766 1069 2766 1631 
L 2766 1759 
L 2194 1759 
z
M 3341 1997 
L 3341 0 
L 2766 0 
L 2766 531 
Q 2569 213 2275 61 
Q 1981 -91 1556 -91 
Q 1019 -91 701 211 
Q 384 513 384 1019 
Q 384 1609 779 1909 
Q 1175 2209 1959 2209 
L 2766 2209 
L 2766 2266 
Q 2766 2663 2505 2880 
Q 2244 3097 1772 3097 
Q 1472 3097 1187 3025 
Q 903 2953 641 2809 
L 641 3341 
Q 956 3463 1253 3523 
Q 1550 3584 1831 3584 
Q 2591 3584 2966 3190 
Q 3341 2797 3341 1997 
z
" id="DejaVuSans-61" transform="scale(0.015625)"/>
        <path d="M 3513 2113 
L 3513 0 
L 2938 0 
L 2938 2094 
Q 2938 2591 2744 2837 
Q 2550 3084 2163 3084 
Q 1697 3084 1428 2787 
Q 1159 2491 1159 1978 
L 1159 0 
L 581 0 
L 581 3500 
L 1159 3500 
L 1159 2956 
Q 1366 3272 1645 3428 
Q 1925 3584 2291 3584 
Q 2894 3584 3203 3211 
Q 3513 2838 3513 2113 
z
" id="DejaVuSans-6e" transform="scale(0.015625)"/>
       </defs>
       <use xlink:href="#DejaVuSans-4a"/>
       <use x="29.492188" xlink:href="#DejaVuSans-61"/>
       <use x="90.771484" xlink:href="#DejaVuSans-6e"/>
      </g>
      <!-- 2021 -->
      <g transform="translate(413.713241 570.47625)scale(0.1 -0.1)">
       <defs>
        <path d="M 1228 531 
L 3431 531 
L 3431 0 
L 469 0 
L 469 531 
Q 828 903 1448 1529 
Q 2069 2156 2228 2338 
Q 2531 2678 2651 2914 
Q 2772 3150 2772 3378 
Q 2772 3750 2511 3984 
Q 2250 4219 1831 4219 
Q 1534 4219 1204 4116 
Q 875 4013 500 3803 
L 500 4441 
Q 881 4594 1212 4672 
Q 1544 4750 1819 4750 
Q 2544 4750 2975 4387 
Q 3406 4025 3406 3419 
Q 3406 3131 3298 2873 
Q 3191 2616 2906 2266 
Q 2828 2175 2409 1742 
Q 1991 1309 1228 531 
z
" id="DejaVuSans-32" transform="scale(0.015625)"/>
        <path d="M 2034 4250 
Q 1547 4250 1301 3770 
Q 1056 3291 1056 2328 
Q 1056 1369 1301 889 
Q 1547 409 2034 409 
Q 2525 409 2770 889 
Q 3016 1369 3016 2328 
Q 3016 3291 2770 3770 
Q 2525 4250 2034 4250 
z
M 2034 4750 
Q 2819 4750 3233 4129 
Q 3647 3509 3647 2328 
Q 3647 1150 3233 529 
Q 2819 -91 2034 -91 
Q 1250 -91 836 529 
Q 422 1150 422 2328 
Q 422 3509 836 4129 
Q 1250 4750 2034 4750 
z
" id="DejaVuSans-30" transform="scale(0.015625)"/>
        <path d="M 794 531 
L 1825 531 
L 1825 4091 
L 703 3866 
L 703 4441 
L 1819 4666 
L 2450 4666 
L 2450 531 
L 3481 531 
L 3481 0 
L 794 0 
L 794 531 
z
" id="DejaVuSans-31" transform="scale(0.015625)"/>
       </defs>
       <use xlink:href="#DejaVuSans-32"/>
       <use x="63.623047" xlink:href="#DejaVuSans-30"/>
       <use x="127.246094" xlink:href="#DejaVuSans-32"/>
       <use x="190.869141" xlink:href="#DejaVuSans-31"/>
      </g>
     </g>
    </g>
    <g id="xtick_6">
     <g id="line2d_11">
      <path clip-path="url(#p68e2955192)" d="M 532.06348 544.68 
L 532.06348 73.44 
" style="fill:none;stroke:#b0b0b0;stroke-linecap:square;stroke-width:0.8;"/>
     </g>
     <g id="line2d_12">
      <g>
       <use style="stroke:#000000;stroke-width:0.8;" x="532.06348" xlink:href="#m4abed1d830" y="544.68"/>
      </g>
     </g>
     <g id="text_5">
      <!-- Apr -->
      <g transform="translate(523.41348 559.278437)scale(0.1 -0.1)">
       <use xlink:href="#DejaVuSans-41"/>
       <use x="68.408203" xlink:href="#DejaVuSans-70"/>
       <use x="131.884766" xlink:href="#DejaVuSans-72"/>
      </g>
     </g>
    </g>
    <g id="xtick_7">
     <g id="line2d_13">
      <path clip-path="url(#p68e2955192)" d="M 638.862333 544.68 
L 638.862333 73.44 
" style="fill:none;stroke:#b0b0b0;stroke-linecap:square;stroke-width:0.8;"/>
     </g>
     <g id="line2d_14">
      <g>
       <use style="stroke:#000000;stroke-width:0.8;" x="638.862333" xlink:href="#m4abed1d830" y="544.68"/>
      </g>
     </g>
     <g id="text_6">
      <!-- Jul -->
      <g transform="translate(632.82952 559.278437)scale(0.1 -0.1)">
       <use xlink:href="#DejaVuSans-4a"/>
       <use x="29.492188" xlink:href="#DejaVuSans-75"/>
       <use x="92.871094" xlink:href="#DejaVuSans-6c"/>
      </g>
     </g>
    </g>
    <g id="xtick_8">
     <g id="line2d_15">
      <path clip-path="url(#p68e2955192)" d="M 712.8 544.68 
L 712.8 73.44 
" style="fill:none;stroke:#b0b0b0;stroke-linecap:square;stroke-width:0.8;"/>
     </g>
     <g id="line2d_16">
      <g>
       <use style="stroke:#000000;stroke-width:0.8;" x="712.8" xlink:href="#m4abed1d830" y="544.68"/>
      </g>
     </g>
    </g>
    <g id="xtick_9">
     <g id="line2d_17">
      <defs>
       <path d="M 0 0 
L 0 2 
" id="mbe9820739d" style="stroke:#000000;stroke-width:0.6;"/>
      </defs>
      <g>
       <use style="stroke:#000000;stroke-width:0.6;" x="138.902868" xlink:href="#mbe9820739d" y="544.68"/>
      </g>
     </g>
    </g>
    <g id="xtick_10">
     <g id="line2d_18">
      <g>
       <use style="stroke:#000000;stroke-width:0.6;" x="175.284895" xlink:href="#mbe9820739d" y="544.68"/>
      </g>
     </g>
    </g>
    <g id="xtick_11">
     <g id="line2d_19">
      <g>
       <use style="stroke:#000000;stroke-width:0.6;" x="246.875335" xlink:href="#mbe9820739d" y="544.68"/>
      </g>
     </g>
    </g>
    <g id="xtick_12">
     <g id="line2d_20">
      <g>
       <use style="stroke:#000000;stroke-width:0.6;" x="283.257361" xlink:href="#mbe9820739d" y="544.68"/>
      </g>
     </g>
    </g>
    <g id="xtick_13">
     <g id="line2d_21">
      <g>
       <use style="stroke:#000000;stroke-width:0.6;" x="354.847801" xlink:href="#mbe9820739d" y="544.68"/>
      </g>
     </g>
    </g>
    <g id="xtick_14">
     <g id="line2d_22">
      <g>
       <use style="stroke:#000000;stroke-width:0.6;" x="390.056214" xlink:href="#mbe9820739d" y="544.68"/>
      </g>
     </g>
    </g>
    <g id="xtick_15">
     <g id="line2d_23">
      <g>
       <use style="stroke:#000000;stroke-width:0.6;" x="462.820268" xlink:href="#mbe9820739d" y="544.68"/>
      </g>
     </g>
    </g>
    <g id="xtick_16">
     <g id="line2d_24">
      <g>
       <use style="stroke:#000000;stroke-width:0.6;" x="495.681453" xlink:href="#mbe9820739d" y="544.68"/>
      </g>
     </g>
    </g>
    <g id="xtick_17">
     <g id="line2d_25">
      <g>
       <use style="stroke:#000000;stroke-width:0.6;" x="567.271893" xlink:href="#mbe9820739d" y="544.68"/>
      </g>
     </g>
    </g>
    <g id="xtick_18">
     <g id="line2d_26">
      <g>
       <use style="stroke:#000000;stroke-width:0.6;" x="603.65392" xlink:href="#mbe9820739d" y="544.68"/>
      </g>
     </g>
    </g>
    <g id="xtick_19">
     <g id="line2d_27">
      <g>
       <use style="stroke:#000000;stroke-width:0.6;" x="675.244359" xlink:href="#mbe9820739d" y="544.68"/>
      </g>
     </g>
    </g>
    <g id="xtick_20">
     <g id="line2d_28">
      <g>
       <use style="stroke:#000000;stroke-width:0.6;" x="711.626386" xlink:href="#mbe9820739d" y="544.68"/>
      </g>
     </g>
    </g>
    <g id="text_7">
     <!-- Date -->
     <g transform="translate(393.949219 584.154375)scale(0.1 -0.1)">
      <defs>
       <path d="M 1259 4147 
L 1259 519 
L 2022 519 
Q 2988 519 3436 956 
Q 3884 1394 3884 2338 
Q 3884 3275 3436 3711 
Q 2988 4147 2022 4147 
L 1259 4147 
z
M 628 4666 
L 1925 4666 
Q 3281 4666 3915 4102 
Q 4550 3538 4550 2338 
Q 4550 1131 3912 565 
Q 3275 0 1925 0 
L 628 0 
L 628 4666 
z
" id="DejaVuSans-44" transform="scale(0.015625)"/>
       <path d="M 3597 1894 
L 3597 1613 
L 953 1613 
Q 991 1019 1311 708 
Q 1631 397 2203 397 
Q 2534 397 2845 478 
Q 3156 559 3463 722 
L 3463 178 
Q 3153 47 2828 -22 
Q 2503 -91 2169 -91 
Q 1331 -91 842 396 
Q 353 884 353 1716 
Q 353 2575 817 3079 
Q 1281 3584 2069 3584 
Q 2775 3584 3186 3129 
Q 3597 2675 3597 1894 
z
M 3022 2063 
Q 3016 2534 2758 2815 
Q 2500 3097 2075 3097 
Q 1594 3097 1305 2825 
Q 1016 2553 972 2059 
L 3022 2063 
z
" id="DejaVuSans-65" transform="scale(0.015625)"/>
      </defs>
      <use xlink:href="#DejaVuSans-44"/>
      <use x="77.001953" xlink:href="#DejaVuSans-61"/>
      <use x="138.28125" xlink:href="#DejaVuSans-74"/>
      <use x="177.490234" xlink:href="#DejaVuSans-65"/>
     </g>
    </g>
   </g>
   <g id="matplotlib.axis_2">
    <g id="ytick_1">
     <g id="line2d_29">
      <path clip-path="url(#p68e2955192)" d="M 99 398.46971 
L 712.8 398.46971 
" style="fill:none;stroke:#b0b0b0;stroke-linecap:square;stroke-width:0.8;"/>
     </g>
     <g id="line2d_30">
      <defs>
       <path d="M 0 0 
L -3.5 0 
" id="me91a084207" style="stroke:#000000;stroke-width:0.8;"/>
      </defs>
      <g>
       <use style="stroke:#000000;stroke-width:0.8;" x="99" xlink:href="#me91a084207" y="398.46971"/>
      </g>
     </g>
     <g id="text_8">
      <!-- $\mathdefault{10^{0}}$ -->
      <g transform="translate(74.4 402.268929)scale(0.1 -0.1)">
       <use transform="translate(0 0.765625)" xlink:href="#DejaVuSans-31"/>
       <use transform="translate(63.623047 0.765625)" xlink:href="#DejaVuSans-30"/>
       <use transform="translate(128.203125 39.046875)scale(0.7)" xlink:href="#DejaVuSans-30"/>
      </g>
     </g>
    </g>
    <g id="ytick_2">
     <g id="line2d_31">
      <path clip-path="url(#p68e2955192)" d="M 99 523.26 
L 712.8 523.26 
" style="fill:none;stroke:#b0b0b0;stroke-linecap:square;stroke-width:0.8;"/>
     </g>
     <g id="line2d_32">
      <defs>
       <path d="M 0 0 
L -2 0 
" id="m0cb60b688e" style="stroke:#000000;stroke-width:0.6;"/>
      </defs>
      <g>
       <use style="stroke:#000000;stroke-width:0.6;" x="99" xlink:href="#m0cb60b688e" y="523.26"/>
      </g>
     </g>
    </g>
    <g id="ytick_3">
     <g id="line2d_33">
      <path clip-path="url(#p68e2955192)" d="M 99 490.43586 
L 712.8 490.43586 
" style="fill:none;stroke:#b0b0b0;stroke-linecap:square;stroke-width:0.8;"/>
     </g>
     <g id="line2d_34">
      <g>
       <use style="stroke:#000000;stroke-width:0.6;" x="99" xlink:href="#m0cb60b688e" y="490.43586"/>
      </g>
     </g>
    </g>
    <g id="ytick_4">
     <g id="line2d_35">
      <path clip-path="url(#p68e2955192)" d="M 99 462.683445 
L 712.8 462.683445 
" style="fill:none;stroke:#b0b0b0;stroke-linecap:square;stroke-width:0.8;"/>
     </g>
     <g id="line2d_36">
      <g>
       <use style="stroke:#000000;stroke-width:0.6;" x="99" xlink:href="#m0cb60b688e" y="462.683445"/>
      </g>
     </g>
    </g>
    <g id="ytick_5">
     <g id="line2d_37">
      <path clip-path="url(#p68e2955192)" d="M 99 438.64321 
L 712.8 438.64321 
" style="fill:none;stroke:#b0b0b0;stroke-linecap:square;stroke-width:0.8;"/>
     </g>
     <g id="line2d_38">
      <g>
       <use style="stroke:#000000;stroke-width:0.6;" x="99" xlink:href="#m0cb60b688e" y="438.64321"/>
      </g>
     </g>
    </g>
    <g id="ytick_6">
     <g id="line2d_39">
      <path clip-path="url(#p68e2955192)" d="M 99 417.43822 
L 712.8 417.43822 
" style="fill:none;stroke:#b0b0b0;stroke-linecap:square;stroke-width:0.8;"/>
     </g>
     <g id="line2d_40">
      <g>
       <use style="stroke:#000000;stroke-width:0.6;" x="99" xlink:href="#m0cb60b688e" y="417.43822"/>
      </g>
     </g>
    </g>
    <g id="ytick_7">
     <g id="line2d_41">
      <path clip-path="url(#p68e2955192)" d="M 99 273.67942 
L 712.8 273.67942 
" style="fill:none;stroke:#b0b0b0;stroke-linecap:square;stroke-width:0.8;"/>
     </g>
     <g id="line2d_42">
      <g>
       <use style="stroke:#000000;stroke-width:0.6;" x="99" xlink:href="#m0cb60b688e" y="273.67942"/>
      </g>
     </g>
    </g>
    <g id="ytick_8">
     <g id="line2d_43">
      <path clip-path="url(#p68e2955192)" d="M 99 200.68178 
L 712.8 200.68178 
" style="fill:none;stroke:#b0b0b0;stroke-linecap:square;stroke-width:0.8;"/>
     </g>
     <g id="line2d_44">
      <g>
       <use style="stroke:#000000;stroke-width:0.6;" x="99" xlink:href="#m0cb60b688e" y="200.68178"/>
      </g>
     </g>
    </g>
    <g id="ytick_9">
     <g id="line2d_45">
      <path clip-path="url(#p68e2955192)" d="M 99 148.88913 
L 712.8 148.88913 
" style="fill:none;stroke:#b0b0b0;stroke-linecap:square;stroke-width:0.8;"/>
     </g>
     <g id="line2d_46">
      <g>
       <use style="stroke:#000000;stroke-width:0.6;" x="99" xlink:href="#m0cb60b688e" y="148.88913"/>
      </g>
     </g>
    </g>
    <g id="ytick_10">
     <g id="line2d_47">
      <path clip-path="url(#p68e2955192)" d="M 99 108.71563 
L 712.8 108.71563 
" style="fill:none;stroke:#b0b0b0;stroke-linecap:square;stroke-width:0.8;"/>
     </g>
     <g id="line2d_48">
      <g>
       <use style="stroke:#000000;stroke-width:0.6;" x="99" xlink:href="#m0cb60b688e" y="108.71563"/>
      </g>
     </g>
    </g>
    <g id="ytick_11">
     <g id="line2d_49">
      <path clip-path="url(#p68e2955192)" d="M 99 75.89149 
L 712.8 75.89149 
" style="fill:none;stroke:#b0b0b0;stroke-linecap:square;stroke-width:0.8;"/>
     </g>
     <g id="line2d_50">
      <g>
       <use style="stroke:#000000;stroke-width:0.6;" x="99" xlink:href="#m0cb60b688e" y="75.89149"/>
      </g>
     </g>
    </g>
   </g>
   <g id="line2d_51">
    <path clip-path="url(#p68e2955192)" d="M 257.437604 613 
L 257.437859 523.26 
L 259.785086 523.26 
L 259.78534 613 
M 262.132059 613 
L 262.132314 523.26 
L 262.132568 613 
M 696.369153 613 
L 696.369407 523.26 
L 696.369661 613 
M 704.584449 613 
L 704.584704 523.26 
L 709.279159 523.26 
L 709.279413 613 
L 709.279413 613 
" style="fill:none;stroke:#1f77b4;stroke-linecap:square;stroke-width:1.5;"/>
   </g>
   <g id="line2d_52">
    <path clip-path="url(#p68e2955192)" d="M 0 0 
" style="fill:none;stroke:#ff7f0e;stroke-linecap:square;stroke-width:1.5;"/>
   </g>
   <g id="patch_3">
    <path d="M 99 544.68 
L 99 73.44 
" style="fill:none;stroke:#000000;stroke-linecap:square;stroke-linejoin:miter;stroke-width:0.8;"/>
   </g>
   <g id="patch_4">
    <path d="M 712.8 544.68 
L 712.8 73.44 
" style="fill:none;stroke:#000000;stroke-linecap:square;stroke-linejoin:miter;stroke-width:0.8;"/>
   </g>
   <g id="patch_5">
    <path d="M 99 544.68 
L 712.8 544.68 
" style="fill:none;stroke:#000000;stroke-linecap:square;stroke-linejoin:miter;stroke-width:0.8;"/>
   </g>
   <g id="patch_6">
    <path d="M 99 73.44 
L 712.8 73.44 
" style="fill:none;stroke:#000000;stroke-linecap:square;stroke-linejoin:miter;stroke-width:0.8;"/>
   </g>
   <g id="legend_1">
    <g id="patch_7">
     <path d="M 616.653125 110.79625 
L 705.8 110.79625 
Q 707.8 110.79625 707.8 108.79625 
L 707.8 80.44 
Q 707.8 78.44 705.8 78.44 
L 616.653125 78.44 
Q 614.653125 78.44 614.653125 80.44 
L 614.653125 108.79625 
Q 614.653125 110.79625 616.653125 110.79625 
z
" style="fill:#ffffff;opacity:0.8;stroke:#cccccc;stroke-linejoin:miter;"/>
    </g>
    <g id="line2d_53">
     <path d="M 618.653125 86.538437 
L 638.653125 86.538437 
" style="fill:none;stroke:#1f77b4;stroke-linecap:square;stroke-width:1.5;"/>
    </g>
    <g id="line2d_54"/>
    <g id="text_9">
     <!-- Avg Cases -->
     <g transform="translate(646.653125 90.038437)scale(0.1 -0.1)">
      <defs>
       <path d="M 191 3500 
L 800 3500 
L 1894 563 
L 2988 3500 
L 3597 3500 
L 2284 0 
L 1503 0 
L 191 3500 
z
" id="DejaVuSans-76" transform="scale(0.015625)"/>
       <path d="M 2906 1791 
Q 2906 2416 2648 2759 
Q 2391 3103 1925 3103 
Q 1463 3103 1205 2759 
Q 947 2416 947 1791 
Q 947 1169 1205 825 
Q 1463 481 1925 481 
Q 2391 481 2648 825 
Q 2906 1169 2906 1791 
z
M 3481 434 
Q 3481 -459 3084 -895 
Q 2688 -1331 1869 -1331 
Q 1566 -1331 1297 -1286 
Q 1028 -1241 775 -1147 
L 775 -588 
Q 1028 -725 1275 -790 
Q 1522 -856 1778 -856 
Q 2344 -856 2625 -561 
Q 2906 -266 2906 331 
L 2906 616 
Q 2728 306 2450 153 
Q 2172 0 1784 0 
Q 1141 0 747 490 
Q 353 981 353 1791 
Q 353 2603 747 3093 
Q 1141 3584 1784 3584 
Q 2172 3584 2450 3431 
Q 2728 3278 2906 2969 
L 2906 3500 
L 3481 3500 
L 3481 434 
z
" id="DejaVuSans-67" transform="scale(0.015625)"/>
       <path id="DejaVuSans-20" transform="scale(0.015625)"/>
       <path d="M 4122 4306 
L 4122 3641 
Q 3803 3938 3442 4084 
Q 3081 4231 2675 4231 
Q 1875 4231 1450 3742 
Q 1025 3253 1025 2328 
Q 1025 1406 1450 917 
Q 1875 428 2675 428 
Q 3081 428 3442 575 
Q 3803 722 4122 1019 
L 4122 359 
Q 3791 134 3420 21 
Q 3050 -91 2638 -91 
Q 1578 -91 968 557 
Q 359 1206 359 2328 
Q 359 3453 968 4101 
Q 1578 4750 2638 4750 
Q 3056 4750 3426 4639 
Q 3797 4528 4122 4306 
z
" id="DejaVuSans-43" transform="scale(0.015625)"/>
       <path d="M 2834 3397 
L 2834 2853 
Q 2591 2978 2328 3040 
Q 2066 3103 1784 3103 
Q 1356 3103 1142 2972 
Q 928 2841 928 2578 
Q 928 2378 1081 2264 
Q 1234 2150 1697 2047 
L 1894 2003 
Q 2506 1872 2764 1633 
Q 3022 1394 3022 966 
Q 3022 478 2636 193 
Q 2250 -91 1575 -91 
Q 1294 -91 989 -36 
Q 684 19 347 128 
L 347 722 
Q 666 556 975 473 
Q 1284 391 1588 391 
Q 1994 391 2212 530 
Q 2431 669 2431 922 
Q 2431 1156 2273 1281 
Q 2116 1406 1581 1522 
L 1381 1569 
Q 847 1681 609 1914 
Q 372 2147 372 2553 
Q 372 3047 722 3315 
Q 1072 3584 1716 3584 
Q 2034 3584 2315 3537 
Q 2597 3491 2834 3397 
z
" id="DejaVuSans-73" transform="scale(0.015625)"/>
      </defs>
      <use xlink:href="#DejaVuSans-41"/>
      <use x="62.533203" xlink:href="#DejaVuSans-76"/>
      <use x="121.712891" xlink:href="#DejaVuSans-67"/>
      <use x="185.189453" xlink:href="#DejaVuSans-20"/>
      <use x="216.976562" xlink:href="#DejaVuSans-43"/>
      <use x="286.800781" xlink:href="#DejaVuSans-61"/>
      <use x="348.080078" xlink:href="#DejaVuSans-73"/>
      <use x="400.179688" xlink:href="#DejaVuSans-65"/>
      <use x="461.703125" xlink:href="#DejaVuSans-73"/>
     </g>
    </g>
    <g id="line2d_55">
     <path d="M 618.653125 101.216562 
L 638.653125 101.216562 
" style="fill:none;stroke:#ff7f0e;stroke-linecap:square;stroke-width:1.5;"/>
    </g>
    <g id="line2d_56"/>
    <g id="text_10">
     <!-- Avg Deaths -->
     <g transform="translate(646.653125 104.716562)scale(0.1 -0.1)">
      <defs>
       <path d="M 3513 2113 
L 3513 0 
L 2938 0 
L 2938 2094 
Q 2938 2591 2744 2837 
Q 2550 3084 2163 3084 
Q 1697 3084 1428 2787 
Q 1159 2491 1159 1978 
L 1159 0 
L 581 0 
L 581 4863 
L 1159 4863 
L 1159 2956 
Q 1366 3272 1645 3428 
Q 1925 3584 2291 3584 
Q 2894 3584 3203 3211 
Q 3513 2838 3513 2113 
z
" id="DejaVuSans-68" transform="scale(0.015625)"/>
      </defs>
      <use xlink:href="#DejaVuSans-41"/>
      <use x="62.533203" xlink:href="#DejaVuSans-76"/>
      <use x="121.712891" xlink:href="#DejaVuSans-67"/>
      <use x="185.189453" xlink:href="#DejaVuSans-20"/>
      <use x="216.976562" xlink:href="#DejaVuSans-44"/>
      <use x="293.978516" xlink:href="#DejaVuSans-65"/>
      <use x="355.501953" xlink:href="#DejaVuSans-61"/>
      <use x="416.78125" xlink:href="#DejaVuSans-74"/>
      <use x="455.990234" xlink:href="#DejaVuSans-68"/>
      <use x="519.369141" xlink:href="#DejaVuSans-73"/>
     </g>
    </g>
   </g>
  </g>
 </g>
 <defs>
  <clipPath id="p68e2955192">
   <rect height="471.24" width="613.8" x="99" y="73.44"/>
  </clipPath>
 </defs>
</svg>
