<?xml version="1.0" encoding="utf-8" standalone="no"?>
<!DOCTYPE svg PUBLIC "-//W3C//DTD SVG 1.1//EN"
  "http://www.w3.org/Graphics/SVG/1.1/DTD/svg11.dtd">
<svg height="612pt" version="1.1" viewBox="0 0 792 612" width="792pt" xmlns="http://www.w3.org/2000/svg" xmlns:xlink="http://www.w3.org/1999/xlink">
 <metadata>
  <rdf:RDF xmlns:cc="http://creativecommons.org/ns#" xmlns:dc="http://purl.org/dc/elements/1.1/" xmlns:rdf="http://www.w3.org/1999/02/22-rdf-syntax-ns#">
   <cc:Work>
    <dc:type rdf:resource="http://purl.org/dc/dcmitype/StillImage"/>
    <dc:format>image/svg+xml</dc:format>
    <dc:creator>
     <cc:Agent>
      <dc:title>Matplotlib v3.4.2, https://matplotlib.org/</dc:title>
     </cc:Agent>
    </dc:creator>
   </cc:Work>
  </rdf:RDF>
 </metadata>
 <defs>
  <style type="text/css">*{stroke-linecap:butt;stroke-linejoin:round;}</style>
 </defs>
 <g id="figure_1">
  <g id="patch_1">
   <path d="M 0 612 
L 792 612 
L 792 0 
L 0 0 
z
" style="fill:#ffffff;"/>
  </g>
  <g id="axes_1">
   <g id="patch_2">
    <path d="M 99 544.68 
L 712.8 544.68 
L 712.8 73.44 
L 99 73.44 
z
" style="fill:#ffffff;"/>
   </g>
   <g id="PolyCollection_1">
    <path clip-path="url(#p68e2955192)" d="M 99 121029.531128 
L 99 121029.531128 
L 100.1625 121029.531128 
L 101.325 121029.531128 
L 102.4875 121029.531128 
L 103.65 121029.531128 
L 104.8125 121029.531128 
L 105.975 121029.531128 
L 107.1375 121029.531128 
L 108.3 121029.531128 
L 109.4625 121029.531128 
L 110.625 121029.531128 
L 111.7875 121029.531128 
L 112.95 121029.531128 
L 114.1125 384.360215 
L 115.275 378.112297 
L 116.4375 362.401531 
L 117.6 359.57106 
L 118.7625 353.91775 
L 119.925 353.91775 
L 121.0875 353.91775 
L 122.25 342.483883 
L 123.4125 330.669735 
L 124.575 330.669735 
L 125.7375 330.669735 
L 126.9 330.669735 
L 128.0625 327.589378 
L 129.225 327.589378 
L 130.3875 327.589378 
L 131.55 327.589378 
L 132.7125 327.589378 
L 133.875 327.589378 
L 135.0375 329.882488 
L 136.2 329.882488 
L 137.3625 327.589378 
L 138.525 327.589378 
L 139.6875 324.210724 
L 140.85 321.257392 
L 142.0125 314.822053 
L 143.175 293.077231 
L 144.3375 278.437549 
L 145.5 278.437549 
L 146.6625 278.437549 
L 147.825 278.437549 
L 148.9875 278.437549 
L 150.15 278.437549 
L 151.3125 275.869411 
L 152.475 270.9981 
L 153.6375 263.304049 
L 154.8 263.304049 
L 155.9625 263.304049 
L 157.125 263.304049 
L 158.2875 263.304049 
L 159.45 270.9981 
L 160.6125 271.508016 
L 161.775 271.508016 
L 162.9375 271.508016 
L 164.1 270.9981 
L 165.2625 270.9981 
L 166.425 270.9981 
L 167.5875 270.9981 
L 168.75 276.148617 
L 169.9125 279.620672 
L 171.075 278.437549 
L 172.2375 276.148617 
L 173.4 270.409408 
L 174.5625 270.409408 
L 175.725 262.578954 
L 176.8875 262.578954 
L 178.05 262.578954 
L 179.2125 262.578954 
L 180.375 255.202829 
L 181.5375 247.590579 
L 182.7 247.428585 
L 183.8625 247.428585 
L 185.025 247.428585 
L 186.1875 247.428585 
L 187.35 247.428585 
L 188.5125 247.428585 
L 189.675 247.428585 
L 190.8375 247.428585 
L 192 247.428585 
L 193.1625 247.428585 
L 194.325 247.428585 
L 195.4875 247.428585 
L 196.65 259.231814 
L 197.8125 280.627452 
L 198.975 284.311955 
L 200.1375 280.627452 
L 201.3 285.302854 
L 202.4625 285.302854 
L 203.625 285.302854 
L 204.7875 285.302854 
L 205.95 285.302854 
L 207.1125 285.302854 
L 208.275 285.302854 
L 209.4375 285.302854 
L 210.6 288.74824 
L 211.7625 288.74824 
L 212.925 288.393317 
L 214.0875 288.393317 
L 215.25 288.393317 
L 216.4125 290.437127 
L 217.575 292.055717 
L 218.7375 292.055717 
L 219.9 292.055717 
L 221.0625 290.437127 
L 222.225 290.437127 
L 223.3875 290.437127 
L 224.55 292.309233 
L 225.7125 292.309233 
L 226.875 289.225245 
L 228.0375 289.225245 
L 229.2 290.682907 
L 230.3625 289.585873 
L 231.525 288.867085 
L 232.6875 279.025768 
L 233.85 279.025768 
L 235.0125 279.025768 
L 236.175 278.730832 
L 237.3375 270.409408 
L 238.5 264.635077 
L 239.6625 257.308636 
L 240.825 252.878456 
L 241.9875 251.171528 
L 243.15 247.698854 
L 244.3125 247.698854 
L 245.475 247.698854 
L 246.6375 244.954021 
L 247.8 242.591166 
L 248.9625 239.536096 
L 250.125 238.9826 
L 251.2875 238.9826 
L 252.45 238.9826 
L 253.6125 235.779163 
L 254.775 234.038922 
L 255.9375 234.038922 
L 257.1 234.038922 
L 258.2625 229.86788 
L 259.425 229.86788 
L 260.5875 224.487254 
L 261.75 224.487254 
L 262.9125 224.487254 
L 264.075 221.775919 
L 265.2375 221.775919 
L 266.4 221.775919 
L 267.5625 221.775919 
L 268.725 221.775919 
L 269.8875 223.659008 
L 271.05 223.659008 
L 272.2125 223.453978 
L 273.375 219.95822 
L 274.5375 219.95822 
L 275.7 219.95822 
L 276.8625 217.863276 
L 278.025 217.863276 
L 279.1875 215.613533 
L 280.35 215.613533 
L 281.5125 215.613533 
L 282.675 215.613533 
L 283.8375 215.613533 
L 285 215.613533 
L 286.1625 213.824075 
L 287.325 210.525285 
L 288.4875 203.972874 
L 289.65 197.294779 
L 290.8125 197.294779 
L 291.975 197.294779 
L 293.1375 197.294779 
L 294.3 196.923641 
L 295.4625 193.812767 
L 296.625 188.514331 
L 297.7875 184.00734 
L 298.95 184.00734 
L 300.1125 184.00734 
L 301.275 184.00734 
L 302.4375 184.00734 
L 303.6 179.813322 
L 304.7625 179.326607 
L 305.925 178.583201 
L 307.0875 178.583201 
L 308.25 178.583201 
L 309.4125 178.583201 
L 310.575 178.583201 
L 311.7375 178.583201 
L 312.9 178.583201 
L 314.0625 178.583201 
L 315.225 172.43162 
L 316.3875 172.43162 
L 317.55 172.43162 
L 318.7125 172.43162 
L 319.875 171.361636 
L 321.0375 166.60411 
L 322.2 166.60411 
L 323.3625 166.60411 
L 324.525 166.60411 
L 325.6875 166.60411 
L 326.85 164.738071 
L 328.0125 164.638176 
L 329.175 164.638176 
L 330.3375 162.861179 
L 331.5 162.861179 
L 332.6625 162.861179 
L 333.825 162.861179 
L 334.9875 162.861179 
L 336.15 162.861179 
L 337.3125 164.306559 
L 338.475 164.306559 
L 339.6375 164.306559 
L 340.8 164.306559 
L 341.9625 162.764798 
L 343.125 162.221965 
L 344.2875 161.569542 
L 345.45 159.599222 
L 346.6125 154.80043 
L 347.775 150.177191 
L 348.9375 150.177191 
L 350.1 150.177191 
L 351.2625 147.873146 
L 352.425 144.907689 
L 353.5875 143.659926 
L 354.75 141.634688 
L 355.9125 141.399402 
L 357.075 141.399402 
L 358.2375 135.226233 
L 359.4 135.226233 
L 360.5625 132.031652 
L 361.725 131.62282 
L 362.8875 129.676377 
L 364.05 129.676377 
L 365.2125 129.676377 
L 366.375 129.642269 
L 367.5375 129.642269 
L 368.7 125.303536 
L 369.8625 117.359291 
L 371.025 111.049611 
L 372.1875 111.049611 
L 373.35 111.049611 
L 374.5125 111.049611 
L 375.675 111.049611 
L 376.8375 107.395288 
L 378 103.941218 
L 379.1625 101.325924 
L 380.325 101.325924 
L 381.4875 101.325924 
L 382.65 101.325924 
L 383.8125 101.325924 
L 384.975 97.073036 
L 386.1375 97.073036 
L 387.3 94.86 
L 388.4625 94.86 
L 389.625 94.86 
L 390.7875 94.86 
L 391.95 94.86 
L 393.1125 94.86 
L 394.275 96.30988 
L 395.4375 97.018155 
L 396.6 97.018155 
L 397.7625 97.018155 
L 398.925 97.018155 
L 400.0875 97.018155 
L 401.25 104.276198 
L 402.4125 104.539401 
L 403.575 107.828067 
L 404.7375 107.828067 
L 405.9 107.828067 
L 407.0625 107.828067 
L 408.225 107.828067 
L 409.3875 110.585536 
L 410.55 119.263173 
L 411.7125 122.537527 
L 412.875 125.670986 
L 414.0375 125.670986 
L 415.2 123.046083 
L 416.3625 127.037205 
L 417.525 129.020851 
L 418.6875 129.020851 
L 419.85 129.020851 
L 421.0125 129.020851 
L 422.175 129.020851 
L 423.3375 129.020851 
L 424.5 129.020851 
L 425.6625 139.712435 
L 426.825 155.578071 
L 427.9875 156.938649 
L 429.15 156.938649 
L 430.3125 156.938649 
L 431.475 161.308752 
L 432.6375 161.308752 
L 433.8 166.122771 
L 434.9625 176.455973 
L 436.125 178.323322 
L 437.2875 178.323322 
L 438.45 178.323322 
L 439.6125 178.323322 
L 440.775 176.623006 
L 441.9375 178.829832 
L 443.1 184.897821 
L 444.2625 184.897821 
L 445.425 184.897821 
L 446.5875 184.897821 
L 447.75 190.457109 
L 448.9125 184.216454 
L 450.075 182.785577 
L 451.2375 182.785577 
L 452.4 182.785577 
L 453.5625 182.785577 
L 454.725 182.785577 
L 455.8875 182.785577 
L 457.05 185.820329 
L 458.2125 186.371661 
L 459.375 186.371661 
L 460.5375 186.371661 
L 461.7 186.371661 
L 462.8625 186.371661 
L 464.025 186.371661 
L 465.1875 193.696732 
L 466.35 199.860374 
L 467.5125 203.388463 
L 468.675 203.388463 
L 469.8375 203.388463 
L 471 203.388463 
L 472.1625 203.388463 
L 473.325 203.388463 
L 474.4875 213.343917 
L 475.65 223.385813 
L 476.8125 223.385813 
L 477.975 223.385813 
L 479.1375 223.385813 
L 480.3 223.385813 
L 481.4625 223.385813 
L 482.625 223.385813 
L 483.7875 223.624781 
L 484.95 224.452481 
L 486.1125 224.452481 
L 487.275 224.452481 
L 488.4375 224.452481 
L 489.6 227.199977 
L 490.7625 228.761698 
L 491.925 231.711829 
L 493.0875 231.711829 
L 494.25 231.711829 
L 495.4125 231.711829 
L 496.575 229.026575 
L 497.7375 231.116248 
L 498.9 229.598723 
L 500.0625 229.598723 
L 501.225 229.598723 
L 502.3875 229.598723 
L 503.55 229.598723 
L 504.7125 229.598723 
L 505.875 229.598723 
L 507.0375 232.516625 
L 508.2 232.516625 
L 509.3625 232.516625 
L 510.525 232.516625 
L 511.6875 232.516625 
L 512.85 236.47429 
L 514.0125 237.311923 
L 515.175 237.937817 
L 516.3375 239.258616 
L 517.5 239.258616 
L 518.6625 239.258616 
L 519.825 239.258616 
L 520.9875 239.258616 
L 522.15 241.617167 
L 523.3125 240.236297 
L 524.475 238.344166 
L 525.6375 238.344166 
L 526.8 238.344166 
L 527.9625 238.344166 
L 529.125 236.430573 
L 530.2875 232.112681 
L 531.45 232.112681 
L 532.6125 232.112681 
L 533.775 232.112681 
L 534.9375 232.112681 
L 536.1 232.112681 
L 537.2625 226.617079 
L 538.425 226.400155 
L 539.5875 221.446666 
L 540.75 215.70169 
L 541.9125 215.70169 
L 543.075 215.70169 
L 544.2375 215.70169 
L 545.4 211.249599 
L 546.5625 207.7748 
L 547.725 207.021897 
L 548.8875 207.021897 
L 550.05 207.021897 
L 551.2125 207.021897 
L 552.375 207.021897 
L 553.5375 201.831102 
L 554.7 201.831102 
L 555.8625 201.831102 
L 557.025 201.831102 
L 558.1875 201.695886 
L 559.35 201.695886 
L 560.5125 201.695886 
L 561.675 203.29556 
L 562.8375 203.29556 
L 564 203.29556 
L 565.1625 203.29556 
L 566.325 203.29556 
L 567.4875 203.29556 
L 568.65 203.29556 
L 569.8125 203.29556 
L 570.975 203.29556 
L 572.1375 203.29556 
L 573.3 203.29556 
L 574.4625 205.863697 
L 575.625 205.863697 
L 576.7875 205.863697 
L 577.95 213.569325 
L 579.1125 213.569325 
L 580.275 213.569325 
L 581.4375 213.654104 
L 582.6 213.654104 
L 583.7625 213.654104 
L 584.925 213.654104 
L 586.0875 216.382544 
L 587.25 217.132786 
L 588.4125 217.132786 
L 589.575 217.132786 
L 590.7375 217.132786 
L 591.9 217.132786 
L 593.0625 217.132786 
L 594.225 218.697449 
L 595.3875 218.697449 
L 596.55 218.697449 
L 597.7125 220.989164 
L 598.875 226.292029 
L 600.0375 226.292029 
L 601.2 226.292029 
L 602.3625 230.683756 
L 603.525 233.499002 
L 604.6875 234.290006 
L 605.85 235.306562 
L 607.0125 235.306562 
L 608.175 235.306562 
L 609.3375 235.306562 
L 610.5 239.443439 
L 611.6625 240.993648 
L 612.825 246.519969 
L 613.9875 248.463115 
L 615.15 249.127195 
L 616.3125 249.127195 
L 617.475 249.127195 
L 618.6375 257.963851 
L 619.8 257.963851 
L 620.9625 259.77502 
L 622.125 259.980184 
L 623.2875 260.186155 
L 624.45 260.186155 
L 625.6125 260.186155 
L 626.775 270.24242 
L 627.9375 279.12445 
L 629.1 279.12445 
L 630.2625 279.12445 
L 631.425 279.12445 
L 632.5875 279.12445 
L 633.75 279.12445 
L 634.9125 279.12445 
L 636.075 279.12445 
L 637.2375 281.861717 
L 638.4 290.314669 
L 639.5625 290.314669 
L 640.725 290.314669 
L 641.8875 290.314669 
L 643.05 290.314669 
L 644.2125 295.857582 
L 645.375 301.752389 
L 646.5375 306.362887 
L 647.7 313.092873 
L 648.8625 313.092873 
L 650.025 313.092873 
L 651.1875 316.207604 
L 652.35 314.432825 
L 653.5125 316.207604 
L 654.675 320.598881 
L 655.8375 320.598881 
L 657 320.598881 
L 658.1625 320.598881 
L 659.325 339.583703 
L 660.4875 320.598881 
L 661.65 313.092873 
L 662.8125 313.092873 
L 663.975 313.092873 
L 665.1375 313.092873 
L 666.3 313.092873 
L 667.4625 311.236261 
L 668.625 311.236261 
L 669.7875 307.031918 
L 670.95 307.031918 
L 672.1125 307.031918 
L 673.275 307.031918 
L 674.4375 307.031918 
L 675.6 296.130244 
L 676.7625 296.130244 
L 677.925 295.316482 
L 679.0875 290.806231 
L 680.25 288.393317 
L 681.4125 288.393317 
L 682.575 288.393317 
L 683.7375 285.302854 
L 684.9 272.109264 
L 686.0625 262.867788 
L 687.225 258.560639 
L 688.3875 258.560639 
L 689.55 258.560639 
L 690.7125 258.560639 
L 691.875 255.768791 
L 693.0375 250.025947 
L 694.2 240.566291 
L 695.3625 237.045956 
L 696.525 237.045956 
L 697.6875 237.045956 
L 698.85 237.045956 
L 700.0125 231.234824 
L 701.175 218.047503 
L 702.3375 216.951745 
L 703.5 215.262379 
L 704.6625 215.262379 
L 705.825 215.262379 
L 706.9875 215.262379 
L 708.15 211.249599 
L 709.3125 200.980575 
L 710.475 197.212076 
L 711.6375 194.967687 
L 712.8 194.967687 
L 712.8 226.256036 
L 712.8 226.256036 
L 711.6375 238.616828 
L 710.475 238.616828 
L 709.3125 238.616828 
L 708.15 243.784403 
L 706.9875 243.784403 
L 705.825 243.784403 
L 704.6625 250.538358 
L 703.5 263.304049 
L 702.3375 263.304049 
L 701.175 263.304049 
L 700.0125 263.304049 
L 698.85 268.844117 
L 697.6875 268.844117 
L 696.525 269.910031 
L 695.3625 288.511358 
L 694.2 290.682907 
L 693.0375 297.095902 
L 691.875 302.984233 
L 690.7125 302.984233 
L 689.55 302.984233 
L 688.3875 303.611199 
L 687.225 316.610305 
L 686.0625 320.16443 
L 684.9 320.16443 
L 683.7375 320.16443 
L 682.575 320.16443 
L 681.4125 340.214445 
L 680.25 340.532689 
L 679.0875 340.532689 
L 677.925 353.507152 
L 676.7625 353.507152 
L 675.6 353.507152 
L 674.4375 362.401531 
L 673.275 371.946241 
L 672.1125 371.946241 
L 670.95 373.72102 
L 669.7875 373.72102 
L 668.625 373.72102 
L 667.4625 373.72102 
L 666.3 373.72102 
L 665.1375 373.72102 
L 663.975 393.172732 
L 662.8125 393.172732 
L 661.65 393.172732 
L 660.4875 393.172732 
L 659.325 393.172732 
L 658.1625 373.72102 
L 657 394.052601 
L 655.8375 379.437709 
L 654.675 362.88852 
L 653.5125 362.88852 
L 652.35 354.748735 
L 651.1875 354.748735 
L 650.025 354.748735 
L 648.8625 354.748735 
L 647.7 354.748735 
L 646.5375 354.748735 
L 645.375 354.748735 
L 644.2125 347.705913 
L 643.05 347.705913 
L 641.8875 347.705913 
L 640.725 342.153592 
L 639.5625 333.662034 
L 638.4 328.090348 
L 637.2375 328.090348 
L 636.075 328.090348 
L 634.9125 315.6093 
L 633.75 328.342643 
L 632.5875 328.342643 
L 631.425 327.839264 
L 630.2625 327.839264 
L 629.1 327.839264 
L 627.9375 327.839264 
L 626.775 327.839264 
L 625.6125 327.839264 
L 624.45 315.6093 
L 623.2875 314.627077 
L 622.125 309.619808 
L 620.9625 309.619808 
L 619.8 309.619808 
L 618.6375 309.619808 
L 617.475 293.987706 
L 616.3125 293.856665 
L 615.15 287.112139 
L 613.9875 286.086734 
L 612.825 286.086734 
L 611.6625 268.439861 
L 610.5 267.719974 
L 609.3375 267.719974 
L 608.175 267.719974 
L 607.0125 267.719974 
L 605.85 267.009852 
L 604.6875 261.018241 
L 603.525 257.37379 
L 602.3625 257.37379 
L 601.2 257.37379 
L 600.0375 256.854817 
L 598.875 255.958813 
L 597.7125 249.518502 
L 596.55 248.518134 
L 595.3875 248.518134 
L 594.225 248.518134 
L 593.0625 248.518134 
L 591.9 236.913478 
L 590.7375 236.913478 
L 589.575 235.9954 
L 588.4125 235.9954 
L 587.25 235.9954 
L 586.0875 235.9954 
L 584.925 235.9954 
L 583.7625 235.9954 
L 582.6 235.9954 
L 581.4375 235.9954 
L 580.275 235.9954 
L 579.1125 235.9954 
L 577.95 235.9954 
L 576.7875 235.9954 
L 575.625 239.304761 
L 574.4625 239.304761 
L 573.3 231.592169 
L 572.1375 237.267501 
L 570.975 237.267501 
L 569.8125 237.267501 
L 568.65 237.267501 
L 567.4875 236.73736 
L 566.325 236.73736 
L 565.1625 239.582485 
L 564 239.582485 
L 562.8375 239.582485 
L 561.675 239.582485 
L 560.5125 239.582485 
L 559.35 239.582485 
L 558.1875 239.582485 
L 557.025 239.582485 
L 555.8625 239.582485 
L 554.7 239.582485 
L 553.5375 239.582485 
L 552.375 239.582485 
L 551.2125 240.236297 
L 550.05 240.471795 
L 548.8875 254.519305 
L 547.725 254.519305 
L 546.5625 254.519305 
L 545.4 254.519305 
L 544.2375 254.519305 
L 543.075 254.89103 
L 541.9125 254.89103 
L 540.75 254.89103 
L 539.5875 254.89103 
L 538.425 254.89103 
L 537.2625 254.89103 
L 536.1 254.89103 
L 534.9375 254.953241 
L 533.775 255.895396 
L 532.6125 261.298568 
L 531.45 261.298568 
L 530.2875 261.298568 
L 529.125 261.298568 
L 527.9625 261.298568 
L 526.8 260.66993 
L 525.6375 260.66993 
L 524.475 267.324273 
L 523.3125 267.324273 
L 522.15 267.324273 
L 520.9875 267.324273 
L 519.825 267.324273 
L 518.6625 267.324273 
L 517.5 266.853346 
L 516.3375 266.853346 
L 515.175 266.853346 
L 514.0125 266.853346 
L 512.85 266.853346 
L 511.6875 266.853346 
L 510.525 266.853346 
L 509.3625 266.853346 
L 508.2 262.79543 
L 507.0375 262.79543 
L 505.875 262.79543 
L 504.7125 283.554016 
L 503.55 286.539992 
L 502.3875 286.539992 
L 501.225 286.539992 
L 500.0625 287.342761 
L 498.9 287.342761 
L 497.7375 287.342761 
L 496.575 287.342761 
L 495.4125 287.342761 
L 494.25 287.342761 
L 493.0875 284.311955 
L 491.925 284.311955 
L 490.7625 284.311955 
L 489.6 284.311955 
L 488.4375 279.52105 
L 487.275 272.455961 
L 486.1125 272.109264 
L 484.95 266.619462 
L 483.7875 249.071533 
L 482.625 246.999036 
L 481.4625 244.188269 
L 480.3 244.188269 
L 479.1375 244.188269 
L 477.975 244.188269 
L 476.8125 232.47609 
L 475.65 232.032264 
L 474.4875 232.032264 
L 473.325 232.032264 
L 472.1625 232.032264 
L 471 230.254807 
L 469.8375 230.254807 
L 468.675 229.064525 
L 467.5125 230.060986 
L 466.35 230.060986 
L 465.1875 230.060986 
L 464.025 230.060986 
L 462.8625 229.713906 
L 461.7 225.081959 
L 460.5375 225.081959 
L 459.375 225.081959 
L 458.2125 225.081959 
L 457.05 225.081959 
L 455.8875 225.081959 
L 454.725 222.207066 
L 453.5625 222.207066 
L 452.4 225.683498 
L 451.2375 225.258166 
L 450.075 225.258166 
L 448.9125 225.258166 
L 447.75 225.258166 
L 446.5875 225.258166 
L 445.425 231.433048 
L 444.2625 231.433048 
L 443.1 205.402666 
L 441.9375 205.402666 
L 440.775 205.402666 
L 439.6125 205.402666 
L 438.45 205.402666 
L 437.2875 203.902399 
L 436.125 202.170677 
L 434.9625 198.129075 
L 433.8 198.129075 
L 432.6375 194.259965 
L 431.475 192.361663 
L 430.3125 192.361663 
L 429.15 190.149321 
L 427.9875 184.297106 
L 426.825 179.165369 
L 425.6625 179.165369 
L 424.5 179.165369 
L 423.3375 176.762609 
L 422.175 173.274858 
L 421.0125 166.546575 
L 419.85 164.273513 
L 418.6875 163.802126 
L 417.525 163.802126 
L 416.3625 163.802126 
L 415.2 156.881247 
L 414.0375 156.881247 
L 412.875 152.958613 
L 411.7125 144.611856 
L 410.55 143.061707 
L 409.3875 143.061707 
L 408.225 143.061707 
L 407.0625 142.390438 
L 405.9 138.131575 
L 404.7375 128.218351 
L 403.575 127.482471 
L 402.4125 125.3454 
L 401.25 121.818084 
L 400.0875 121.243756 
L 398.925 121.515533 
L 397.7625 121.515533 
L 396.6 120.915626 
L 395.4375 120.915626 
L 394.275 120.915626 
L 393.1125 120.915626 
L 391.95 120.915626 
L 390.7875 120.915626 
L 389.625 120.365339 
L 388.4625 120.690027 
L 387.3 119.754867 
L 386.1375 119.754867 
L 384.975 119.754867 
L 383.8125 119.754867 
L 382.65 119.754867 
L 381.4875 119.754867 
L 380.325 120.925248 
L 379.1625 127.28109 
L 378 129.122034 
L 376.8375 131.516691 
L 375.675 131.62282 
L 374.5125 131.871294 
L 373.35 131.871294 
L 372.1875 134.58527 
L 371.025 138.960154 
L 369.8625 141.016656 
L 368.7 141.016656 
L 367.5375 142.841868 
L 366.375 143.600537 
L 365.2125 144.189972 
L 364.05 144.189972 
L 362.8875 147.352476 
L 361.725 149.359191 
L 360.5625 149.359191 
L 359.4 153.691181 
L 358.2375 153.691181 
L 357.075 159.068143 
L 355.9125 160.852893 
L 354.75 161.42334 
L 353.5875 162.583227 
L 352.425 164.240487 
L 351.2625 164.904989 
L 350.1 167.791838 
L 348.9375 168.586938 
L 347.775 171.034834 
L 346.6125 171.817526 
L 345.45 171.817526 
L 344.2875 171.817526 
L 343.125 171.817526 
L 341.9625 171.817526 
L 340.8 177.508783 
L 339.6375 177.508783 
L 338.475 180.259751 
L 337.3125 180.259751 
L 336.15 180.259751 
L 334.9875 180.259751 
L 333.825 182.100018 
L 332.6625 191.188535 
L 331.5 191.188535 
L 330.3375 191.188535 
L 329.175 191.188535 
L 328.0125 194.181916 
L 326.85 194.181916 
L 325.6875 195.265418 
L 324.525 197.356892 
L 323.3625 199.903854 
L 322.2 199.903854 
L 321.0375 199.903854 
L 319.875 199.903854 
L 318.7125 199.903854 
L 317.55 199.903854 
L 316.3875 199.903854 
L 315.225 201.695886 
L 314.0625 205.912464 
L 312.9 205.912464 
L 311.7375 205.912464 
L 310.575 205.912464 
L 309.4125 205.912464 
L 308.25 202.764542 
L 307.0875 202.764542 
L 305.925 205.912464 
L 304.7625 205.912464 
L 303.6 205.912464 
L 302.4375 205.912464 
L 301.275 213.4565 
L 300.1125 214.711158 
L 298.95 214.711158 
L 297.7875 227.273297 
L 296.625 228.460613 
L 295.4625 228.460613 
L 294.3 228.460613 
L 293.1375 230.605503 
L 291.975 230.605503 
L 290.8125 230.683756 
L 289.65 235.692917 
L 288.4875 235.692917 
L 287.325 235.692917 
L 286.1625 236.47429 
L 285 236.47429 
L 283.8375 236.47429 
L 282.675 235.563815 
L 281.5125 236.47429 
L 280.35 236.47429 
L 279.1875 236.47429 
L 278.025 238.9826 
L 276.8625 238.9826 
L 275.7 238.9826 
L 274.5375 241.956009 
L 273.375 236.781334 
L 272.2125 236.781334 
L 271.05 236.781334 
L 269.8875 236.386892 
L 268.725 236.386892 
L 267.5625 242.053226 
L 266.4 243.383628 
L 265.2375 241.041348 
L 264.075 241.041348 
L 262.9125 241.041348 
L 261.75 241.041348 
L 260.5875 241.041348 
L 259.425 242.542034 
L 258.2625 242.542034 
L 257.1 244.954021 
L 255.9375 250.940397 
L 254.775 252.283552 
L 253.6125 252.283552 
L 252.45 255.202829 
L 251.2875 255.768791 
L 250.125 263.085464 
L 248.9625 264.635077 
L 247.8 275.869411 
L 246.6375 275.869411 
L 245.475 281.757742 
L 244.3125 288.040784 
L 243.15 291.67773 
L 241.9875 291.67773 
L 240.825 295.451234 
L 239.6625 297.938027 
L 238.5 297.938027 
L 237.3375 297.938027 
L 236.175 297.938027 
L 235.0125 298.507065 
L 233.85 298.650296 
L 232.6875 298.650296 
L 231.525 306.196957 
L 230.3625 306.196957 
L 229.2 310.872711 
L 228.0375 310.872711 
L 226.875 313.092873 
L 225.7125 318.46181 
L 224.55 318.882302 
L 223.3875 318.882302 
L 222.225 318.882302 
L 221.0625 318.882302 
L 219.9 318.882302 
L 218.7375 318.882302 
L 217.575 323.055027 
L 216.4125 323.055027 
L 215.25 323.055027 
L 214.0875 323.055027 
L 212.925 323.055027 
L 211.7625 323.055027 
L 210.6 325.392512 
L 209.4375 315.411376 
L 208.275 315.214197 
L 207.1125 315.214197 
L 205.95 315.214197 
L 204.7875 315.214197 
L 203.625 323.284134 
L 202.4625 323.284134 
L 201.3 315.214197 
L 200.1375 315.214197 
L 198.975 315.214197 
L 197.8125 315.214197 
L 196.65 305.538446 
L 195.4875 304.0864 
L 194.325 295.857582 
L 193.1625 302.828658 
L 192 295.857582 
L 190.8375 295.182077 
L 189.675 291.67773 
L 188.5125 285.302854 
L 187.35 283.339463 
L 186.1875 280.424541 
L 185.025 280.424541 
L 183.8625 283.339463 
L 182.7 284.311955 
L 181.5375 284.311955 
L 180.375 285.302854 
L 179.2125 285.302854 
L 178.05 292.819978 
L 176.8875 292.819978 
L 175.725 295.316482 
L 174.5625 295.316482 
L 173.4 295.316482 
L 172.2375 297.095902 
L 171.075 297.095902 
L 169.9125 297.095902 
L 168.75 295.316482 
L 167.5875 293.987706 
L 166.425 292.691824 
L 165.2625 293.987706 
L 164.1 295.316482 
L 162.9375 296.956856 
L 161.775 300.996951 
L 160.6125 296.956856 
L 159.45 295.721782 
L 158.2875 295.721782 
L 157.125 295.721782 
L 155.9625 295.721782 
L 154.8 301.600427 
L 153.6375 309.267275 
L 152.475 313.282208 
L 151.3125 320.817465 
L 150.15 324.210724 
L 148.9875 339.271159 
L 147.825 339.271159 
L 146.6625 345.204025 
L 145.5 345.5542 
L 144.3375 345.5542 
L 143.175 345.5542 
L 142.0125 349.191146 
L 140.85 349.191146 
L 139.6875 353.09975 
L 138.525 353.09975 
L 137.3625 349.191146 
L 136.2 353.09975 
L 135.0375 356.885806 
L 133.875 356.885806 
L 132.7125 356.885806 
L 131.55 356.885806 
L 130.3875 356.885806 
L 129.225 357.765675 
L 128.0625 367.488147 
L 126.9 380.113215 
L 125.7375 403.775073 
L 124.575 403.775073 
L 123.4125 403.775073 
L 122.25 417.084476 
L 121.0875 417.084476 
L 119.925 450.686149 
L 118.7625 450.686149 
L 117.6 453.371402 
L 116.4375 492.488799 
L 115.275 121029.531128 
L 114.1125 121029.531128 
L 112.95 121029.531128 
L 111.7875 121029.531128 
L 110.625 121029.531128 
L 109.4625 121029.531128 
L 108.3 121029.531128 
L 107.1375 121029.531128 
L 105.975 121029.531128 
L 104.8125 121029.531128 
L 103.65 121029.531128 
L 102.4875 121029.531128 
L 101.325 121029.531128 
L 100.1625 121029.531128 
L 99 121029.531128 
z
" style="fill:#8080ff;fill-opacity:0.5;stroke:#8080ff;stroke-opacity:0.5;"/>
   </g>
   <g id="PolyCollection_2">
    <path clip-path="url(#p68e2955192)" d="M 99 121029.531128 
L 99 121029.531128 
L 100.1625 121029.531128 
L 101.325 121029.531128 
L 102.4875 121029.531128 
L 103.65 121029.531128 
L 104.8125 121029.531128 
L 105.975 121029.531128 
L 107.1375 121029.531128 
L 108.3 121029.531128 
L 109.4625 121029.531128 
L 110.625 121029.531128 
L 111.7875 121029.531128 
L 112.95 121029.531128 
L 114.1125 121029.531128 
L 115.275 121029.531128 
L 116.4375 121029.531128 
L 117.6 121029.531128 
L 118.7625 121029.531128 
L 119.925 121029.531128 
L 121.0875 505.645353 
L 122.25 505.645353 
L 123.4125 505.645353 
L 124.575 505.645353 
L 125.7375 505.645353 
L 126.9 505.645353 
L 128.0625 505.645353 
L 129.225 505.645353 
L 130.3875 486.973074 
L 131.55 486.973074 
L 132.7125 486.973074 
L 133.875 459.194172 
L 135.0375 459.194172 
L 136.2 459.194172 
L 137.3625 486.973074 
L 138.525 486.973074 
L 139.6875 486.973074 
L 140.85 486.973074 
L 142.0125 486.973074 
L 143.175 486.973074 
L 144.3375 486.973074 
L 145.5 459.194172 
L 146.6625 459.194172 
L 147.825 459.194172 
L 148.9875 459.194172 
L 150.15 486.973074 
L 151.3125 486.973074 
L 152.475 486.973074 
L 153.6375 459.194172 
L 154.8 459.194172 
L 155.9625 459.194172 
L 157.125 459.194172 
L 158.2875 434.975383 
L 159.45 434.975383 
L 160.6125 434.975383 
L 161.775 459.194172 
L 162.9375 459.194172 
L 164.1 422.907246 
L 165.2625 422.907246 
L 166.425 422.907246 
L 167.5875 422.907246 
L 168.75 422.907246 
L 169.9125 422.907246 
L 171.075 422.907246 
L 172.2375 422.907246 
L 173.4 422.907246 
L 174.5625 450.686149 
L 175.725 450.686149 
L 176.8875 450.686149 
L 178.05 450.686149 
L 179.2125 450.686149 
L 180.375 450.686149 
L 181.5375 450.686149 
L 182.7 450.686149 
L 183.8625 450.686149 
L 185.025 450.686149 
L 186.1875 450.686149 
L 187.35 450.686149 
L 188.5125 422.907246 
L 189.675 422.907246 
L 190.8375 422.907246 
L 192 422.907246 
L 193.1625 422.907246 
L 194.325 422.907246 
L 195.4875 414.399223 
L 196.65 422.907246 
L 197.8125 422.907246 
L 198.975 405.956679 
L 200.1375 405.956679 
L 201.3 405.956679 
L 202.4625 405.956679 
L 203.625 405.956679 
L 204.7875 422.907246 
L 205.95 422.907246 
L 207.1125 427.743079 
L 208.275 427.743079 
L 209.4375 427.743079 
L 210.6 427.743079 
L 211.7625 486.973074 
L 212.925 486.973074 
L 214.0875 441.141439 
L 215.25 486.973074 
L 216.4125 486.973074 
L 217.575 486.973074 
L 218.7375 486.973074 
L 219.9 486.973074 
L 221.0625 459.194172 
L 222.225 459.194172 
L 223.3875 459.194172 
L 224.55 459.194172 
L 225.7125 459.194172 
L 226.875 459.194172 
L 228.0375 459.194172 
L 229.2 459.194172 
L 230.3625 486.973074 
L 231.525 486.973074 
L 232.6875 486.973074 
L 233.85 486.973074 
L 235.0125 486.973074 
L 236.175 486.973074 
L 237.3375 486.973074 
L 238.5 505.645353 
L 239.6625 505.645353 
L 240.825 486.973074 
L 241.9875 505.645353 
L 243.15 505.645353 
L 244.3125 486.973074 
L 245.475 505.645353 
L 246.6375 486.973074 
L 247.8 486.973074 
L 248.9625 486.973074 
L 250.125 459.194172 
L 251.2875 459.194172 
L 252.45 459.194172 
L 253.6125 450.686149 
L 254.775 450.686149 
L 255.9375 450.686149 
L 257.1 450.686149 
L 258.2625 450.686149 
L 259.425 450.686149 
L 260.5875 450.686149 
L 261.75 450.686149 
L 262.9125 450.686149 
L 264.075 450.686149 
L 265.2375 450.686149 
L 266.4 450.686149 
L 267.5625 450.686149 
L 268.725 450.686149 
L 269.8875 450.686149 
L 271.05 450.686149 
L 272.2125 450.686149 
L 273.375 450.686149 
L 274.5375 450.686149 
L 275.7 450.686149 
L 276.8625 450.686149 
L 278.025 450.686149 
L 279.1875 450.686149 
L 280.35 450.686149 
L 281.5125 450.686149 
L 282.675 422.907246 
L 283.8375 422.907246 
L 285 422.907246 
L 286.1625 422.907246 
L 287.325 422.907246 
L 288.4875 422.907246 
L 289.65 418.480585 
L 290.8125 418.480585 
L 291.975 418.480585 
L 293.1375 434.975383 
L 294.3 434.975383 
L 295.4625 434.975383 
L 296.625 434.975383 
L 297.7875 434.975383 
L 298.95 450.686149 
L 300.1125 450.686149 
L 301.275 450.686149 
L 302.4375 434.975383 
L 303.6 434.975383 
L 304.7625 434.975383 
L 305.925 434.975383 
L 307.0875 434.975383 
L 308.25 434.975383 
L 309.4125 434.975383 
L 310.575 434.975383 
L 311.7375 434.975383 
L 312.9 418.480585 
L 314.0625 418.480585 
L 315.225 418.480585 
L 316.3875 418.480585 
L 317.55 418.480585 
L 318.7125 405.956679 
L 319.875 402.717442 
L 321.0375 402.717442 
L 322.2 402.717442 
L 323.3625 402.717442 
L 324.525 402.717442 
L 325.6875 402.717442 
L 326.85 389.794078 
L 328.0125 380.113215 
L 329.175 380.113215 
L 330.3375 378.112297 
L 331.5 378.112297 
L 332.6625 378.112297 
L 333.825 378.112297 
L 334.9875 378.112297 
L 336.15 373.72102 
L 337.3125 373.72102 
L 338.475 373.72102 
L 339.6375 373.72102 
L 340.8 373.72102 
L 341.9625 373.72102 
L 343.125 371.946241 
L 344.2875 373.72102 
L 345.45 364.377274 
L 346.6125 349.569133 
L 347.775 349.569133 
L 348.9375 349.569133 
L 350.1 348.443263 
L 351.2625 348.443263 
L 352.425 348.443263 
L 353.5875 338.344569 
L 354.75 338.344569 
L 355.9125 338.344569 
L 357.075 338.344569 
L 358.2375 338.344569 
L 359.4 348.443263 
L 360.5625 348.443263 
L 361.725 348.443263 
L 362.8875 358.211218 
L 364.05 358.211218 
L 365.2125 358.211218 
L 366.375 349.569133 
L 367.5375 348.443263 
L 368.7 348.443263 
L 369.8625 353.91775 
L 371.025 353.91775 
L 372.1875 353.91775 
L 373.35 353.91775 
L 374.5125 347.341096 
L 375.675 347.341096 
L 376.8375 342.816271 
L 378 339.583703 
L 379.1625 339.583703 
L 380.325 339.583703 
L 381.4875 339.583703 
L 382.65 319.093821 
L 383.8125 319.093821 
L 384.975 319.093821 
L 386.1375 319.093821 
L 387.3 317.837337 
L 388.4625 317.837337 
L 389.625 317.837337 
L 390.7875 313.662944 
L 391.95 313.662944 
L 393.1125 320.817465 
L 394.275 318.252823 
L 395.4375 318.252823 
L 396.6 318.252823 
L 397.7625 318.252823 
L 398.925 318.252823 
L 400.0875 318.252823 
L 401.25 318.252823 
L 402.4125 318.252823 
L 403.575 318.252823 
L 404.7375 318.252823 
L 405.9 318.252823 
L 407.0625 316.812824 
L 408.225 316.812824 
L 409.3875 316.812824 
L 410.55 321.257392 
L 411.7125 319.94855 
L 412.875 319.94855 
L 414.0375 319.94855 
L 415.2 319.94855 
L 416.3625 319.94855 
L 417.525 313.092873 
L 418.6875 313.092873 
L 419.85 313.092873 
L 421.0125 313.092873 
L 422.175 313.092873 
L 423.3375 313.092873 
L 424.5 313.092873 
L 425.6625 313.092873 
L 426.825 313.092873 
L 427.9875 313.092873 
L 429.15 313.092873 
L 430.3125 313.092873 
L 431.475 315.6093 
L 432.6375 315.6093 
L 433.8 320.381205 
L 434.9625 325.872799 
L 436.125 329.882488 
L 437.2875 329.882488 
L 438.45 329.882488 
L 439.6125 329.882488 
L 440.775 344.167339 
L 441.9375 343.150783 
L 443.1 345.5542 
L 444.2625 345.5542 
L 445.425 345.5542 
L 446.5875 345.5542 
L 447.75 338.651614 
L 448.9125 338.651614 
L 450.075 345.5542 
L 451.2375 343.487446 
L 452.4 343.487446 
L 453.5625 343.487446 
L 454.725 343.487446 
L 455.8875 343.487446 
L 457.05 343.487446 
L 458.2125 343.487446 
L 459.375 343.487446 
L 460.5375 343.487446 
L 461.7 343.487446 
L 462.8625 343.487446 
L 464.025 362.401531 
L 465.1875 362.401531 
L 466.35 353.91775 
L 467.5125 359.113843 
L 468.675 359.113843 
L 469.8375 359.113843 
L 471 359.113843 
L 472.1625 359.113843 
L 473.325 359.113843 
L 474.4875 359.113843 
L 475.65 378.112297 
L 476.8125 382.193659 
L 477.975 382.193659 
L 479.1375 382.193659 
L 480.3 382.193659 
L 481.4625 382.193659 
L 482.625 398.688457 
L 483.7875 414.399223 
L 484.95 418.480585 
L 486.1125 418.480585 
L 487.275 418.480585 
L 488.4375 429.459658 
L 489.6 429.459658 
L 490.7625 429.459658 
L 491.925 429.459658 
L 493.0875 434.975383 
L 494.25 434.975383 
L 495.4125 434.975383 
L 496.575 434.975383 
L 497.7375 434.975383 
L 498.9 418.480585 
L 500.0625 434.975383 
L 501.225 434.975383 
L 502.3875 434.975383 
L 503.55 434.975383 
L 504.7125 450.686149 
L 505.875 459.194172 
L 507.0375 459.194172 
L 508.2 459.194172 
L 509.3625 434.975383 
L 510.525 434.975383 
L 511.6875 434.975383 
L 512.85 434.975383 
L 514.0125 434.975383 
L 515.175 450.686149 
L 516.3375 450.686149 
L 517.5 459.194172 
L 518.6625 459.194172 
L 519.825 459.194172 
L 520.9875 459.194172 
L 522.15 450.686149 
L 523.3125 434.975383 
L 524.475 434.975383 
L 525.6375 450.686149 
L 526.8 450.686149 
L 527.9625 450.686149 
L 529.125 450.686149 
L 530.2875 450.686149 
L 531.45 450.686149 
L 532.6125 450.686149 
L 533.775 450.686149 
L 534.9375 450.686149 
L 536.1 450.686149 
L 537.2625 450.686149 
L 538.425 450.686149 
L 539.5875 450.686149 
L 540.75 450.686149 
L 541.9125 459.194172 
L 543.075 459.194172 
L 544.2375 459.194172 
L 545.4 459.194172 
L 546.5625 459.194172 
L 547.725 459.194172 
L 548.8875 459.194172 
L 550.05 459.194172 
L 551.2125 459.194172 
L 552.375 459.194172 
L 553.5375 459.194172 
L 554.7 459.194172 
L 555.8625 505.645353 
L 557.025 469.358427 
L 558.1875 459.194172 
L 559.35 459.194172 
L 560.5125 459.194172 
L 561.675 450.686149 
L 562.8375 450.686149 
L 564 450.686149 
L 565.1625 450.686149 
L 566.325 450.686149 
L 567.4875 450.686149 
L 568.65 450.686149 
L 569.8125 434.975383 
L 570.975 434.975383 
L 572.1375 434.975383 
L 573.3 434.975383 
L 574.4625 434.975383 
L 575.625 434.975383 
L 576.7875 434.975383 
L 577.95 434.975383 
L 579.1125 434.975383 
L 580.275 429.459658 
L 581.4375 434.975383 
L 582.6 434.975383 
L 583.7625 434.975383 
L 584.925 434.975383 
L 586.0875 450.686149 
L 587.25 434.975383 
L 588.4125 434.975383 
L 589.575 434.975383 
L 590.7375 434.975383 
L 591.9 434.975383 
L 593.0625 434.975383 
L 594.225 429.459658 
L 595.3875 429.459658 
L 596.55 434.975383 
L 597.7125 434.975383 
L 598.875 434.975383 
L 600.0375 434.975383 
L 601.2 434.975383 
L 602.3625 434.975383 
L 603.525 450.686149 
L 604.6875 459.194172 
L 605.85 459.194172 
L 607.0125 459.194172 
L 608.175 459.194172 
L 609.3375 459.194172 
L 610.5 486.973074 
L 611.6625 459.194172 
L 612.825 450.686149 
L 613.9875 450.686149 
L 615.15 450.686149 
L 616.3125 450.686149 
L 617.475 450.686149 
L 618.6375 450.686149 
L 619.8 450.686149 
L 620.9625 450.686149 
L 622.125 450.686149 
L 623.2875 450.686149 
L 624.45 450.686149 
L 625.6125 450.686149 
L 626.775 450.686149 
L 627.9375 450.686149 
L 629.1 459.194172 
L 630.2625 441.141439 
L 631.425 441.141439 
L 632.5875 441.141439 
L 633.75 441.141439 
L 634.9125 441.141439 
L 636.075 441.141439 
L 637.2375 486.973074 
L 638.4 486.973074 
L 639.5625 486.973074 
L 640.725 486.973074 
L 641.8875 486.973074 
L 643.05 441.141439 
L 644.2125 441.141439 
L 645.375 441.141439 
L 646.5375 486.973074 
L 647.7 486.973074 
L 648.8625 486.973074 
L 650.025 486.973074 
L 651.1875 486.973074 
L 652.35 486.973074 
L 653.5125 486.973074 
L 654.675 486.973074 
L 655.8375 486.973074 
L 657 486.973074 
L 658.1625 486.973074 
L 659.325 505.645353 
L 660.4875 505.645353 
L 661.65 505.645353 
L 662.8125 459.194172 
L 663.975 469.358427 
L 665.1375 469.358427 
L 666.3 469.358427 
L 667.4625 469.358427 
L 668.625 450.686149 
L 669.7875 450.686149 
L 670.95 450.686149 
L 672.1125 450.686149 
L 673.275 450.686149 
L 674.4375 450.686149 
L 675.6 450.686149 
L 676.7625 450.686149 
L 677.925 459.194172 
L 679.0875 486.973074 
L 680.25 486.973074 
L 681.4125 486.973074 
L 682.575 486.973074 
L 683.7375 486.973074 
L 684.9 505.645353 
L 686.0625 505.645353 
L 687.225 486.973074 
L 688.3875 505.645353 
L 689.55 505.645353 
L 690.7125 505.645353 
L 691.875 486.973074 
L 693.0375 486.973074 
L 694.2 486.973074 
L 695.3625 486.973074 
L 696.525 486.973074 
L 697.6875 486.973074 
L 698.85 486.973074 
L 700.0125 486.973074 
L 701.175 486.973074 
L 702.3375 486.973074 
L 703.5 486.973074 
L 704.6625 486.973074 
L 705.825 486.973074 
L 706.9875 486.973074 
L 708.15 459.194172 
L 709.3125 459.194172 
L 710.475 459.194172 
L 711.6375 459.194172 
L 712.8 459.194172 
L 712.8 121029.531128 
L 712.8 121029.531128 
L 711.6375 121029.531128 
L 710.475 121029.531128 
L 709.3125 121029.531128 
L 708.15 121029.531128 
L 706.9875 121029.531128 
L 705.825 121029.531128 
L 704.6625 121029.531128 
L 703.5 121029.531128 
L 702.3375 121029.531128 
L 701.175 121029.531128 
L 700.0125 121029.531128 
L 698.85 121029.531128 
L 697.6875 121029.531128 
L 696.525 121029.531128 
L 695.3625 121029.531128 
L 694.2 121029.531128 
L 693.0375 121029.531128 
L 691.875 121029.531128 
L 690.7125 121029.531128 
L 689.55 121029.531128 
L 688.3875 121029.531128 
L 687.225 121029.531128 
L 686.0625 121029.531128 
L 684.9 121029.531128 
L 683.7375 121029.531128 
L 682.575 121029.531128 
L 681.4125 121029.531128 
L 680.25 121029.531128 
L 679.0875 121029.531128 
L 677.925 121029.531128 
L 676.7625 121029.531128 
L 675.6 121029.531128 
L 674.4375 121029.531128 
L 673.275 121029.531128 
L 672.1125 121029.531128 
L 670.95 121029.531128 
L 669.7875 121029.531128 
L 668.625 121029.531128 
L 667.4625 121029.531128 
L 666.3 121029.531128 
L 665.1375 121029.531128 
L 663.975 121029.531128 
L 662.8125 121029.531128 
L 661.65 121029.531128 
L 660.4875 121029.531128 
L 659.325 121029.531128 
L 658.1625 121029.531128 
L 657 121029.531128 
L 655.8375 121029.531128 
L 654.675 121029.531128 
L 653.5125 121029.531128 
L 652.35 121029.531128 
L 651.1875 121029.531128 
L 650.025 121029.531128 
L 648.8625 121029.531128 
L 647.7 121029.531128 
L 646.5375 121029.531128 
L 645.375 121029.531128 
L 644.2125 121029.531128 
L 643.05 121029.531128 
L 641.8875 121029.531128 
L 640.725 121029.531128 
L 639.5625 121029.531128 
L 638.4 121029.531128 
L 637.2375 121029.531128 
L 636.075 121029.531128 
L 634.9125 121029.531128 
L 633.75 121029.531128 
L 632.5875 121029.531128 
L 631.425 121029.531128 
L 630.2625 121029.531128 
L 629.1 121029.531128 
L 627.9375 121029.531128 
L 626.775 121029.531128 
L 625.6125 121029.531128 
L 624.45 121029.531128 
L 623.2875 121029.531128 
L 622.125 121029.531128 
L 620.9625 121029.531128 
L 619.8 121029.531128 
L 618.6375 121029.531128 
L 617.475 121029.531128 
L 616.3125 121029.531128 
L 615.15 121029.531128 
L 613.9875 121029.531128 
L 612.825 121029.531128 
L 611.6625 121029.531128 
L 610.5 121029.531128 
L 609.3375 121029.531128 
L 608.175 121029.531128 
L 607.0125 121029.531128 
L 605.85 121029.531128 
L 604.6875 121029.531128 
L 603.525 121029.531128 
L 602.3625 121029.531128 
L 601.2 121029.531128 
L 600.0375 121029.531128 
L 598.875 121029.531128 
L 597.7125 121029.531128 
L 596.55 121029.531128 
L 595.3875 121029.531128 
L 594.225 121029.531128 
L 593.0625 121029.531128 
L 591.9 121029.531128 
L 590.7375 121029.531128 
L 589.575 121029.531128 
L 588.4125 121029.531128 
L 587.25 121029.531128 
L 586.0875 121029.531128 
L 584.925 121029.531128 
L 583.7625 121029.531128 
L 582.6 121029.531128 
L 581.4375 121029.531128 
L 580.275 121029.531128 
L 579.1125 121029.531128 
L 577.95 121029.531128 
L 576.7875 121029.531128 
L 575.625 121029.531128 
L 574.4625 121029.531128 
L 573.3 121029.531128 
L 572.1375 121029.531128 
L 570.975 121029.531128 
L 569.8125 121029.531128 
L 568.65 121029.531128 
L 567.4875 121029.531128 
L 566.325 121029.531128 
L 565.1625 121029.531128 
L 564 121029.531128 
L 562.8375 121029.531128 
L 561.675 121029.531128 
L 560.5125 121029.531128 
L 559.35 121029.531128 
L 558.1875 121029.531128 
L 557.025 121029.531128 
L 555.8625 121029.531128 
L 554.7 121029.531128 
L 553.5375 121029.531128 
L 552.375 121029.531128 
L 551.2125 121029.531128 
L 550.05 121029.531128 
L 548.8875 121029.531128 
L 547.725 121029.531128 
L 546.5625 121029.531128 
L 545.4 121029.531128 
L 544.2375 121029.531128 
L 543.075 121029.531128 
L 541.9125 121029.531128 
L 540.75 121029.531128 
L 539.5875 121029.531128 
L 538.425 121029.531128 
L 537.2625 121029.531128 
L 536.1 121029.531128 
L 534.9375 121029.531128 
L 533.775 121029.531128 
L 532.6125 121029.531128 
L 531.45 121029.531128 
L 530.2875 121029.531128 
L 529.125 121029.531128 
L 527.9625 121029.531128 
L 526.8 121029.531128 
L 525.6375 121029.531128 
L 524.475 121029.531128 
L 523.3125 121029.531128 
L 522.15 121029.531128 
L 520.9875 121029.531128 
L 519.825 121029.531128 
L 518.6625 121029.531128 
L 517.5 121029.531128 
L 516.3375 121029.531128 
L 515.175 121029.531128 
L 514.0125 492.488799 
L 512.85 121029.531128 
L 511.6875 121029.531128 
L 510.525 121029.531128 
L 509.3625 121029.531128 
L 508.2 121029.531128 
L 507.0375 121029.531128 
L 505.875 121029.531128 
L 504.7125 121029.531128 
L 503.55 121029.531128 
L 502.3875 121029.531128 
L 501.225 121029.531128 
L 500.0625 121029.531128 
L 498.9 121029.531128 
L 497.7375 121029.531128 
L 496.575 121029.531128 
L 495.4125 121029.531128 
L 494.25 121029.531128 
L 493.0875 121029.531128 
L 491.925 121029.531128 
L 490.7625 121029.531128 
L 489.6 121029.531128 
L 488.4375 121029.531128 
L 487.275 121029.531128 
L 486.1125 121029.531128 
L 484.95 121029.531128 
L 483.7875 121029.531128 
L 482.625 121029.531128 
L 481.4625 121029.531128 
L 480.3 121029.531128 
L 479.1375 492.488799 
L 477.975 492.488799 
L 476.8125 486.973074 
L 475.65 486.973074 
L 474.4875 486.973074 
L 473.325 486.973074 
L 472.1625 486.973074 
L 471 486.973074 
L 469.8375 486.973074 
L 468.675 486.973074 
L 467.5125 492.488799 
L 466.35 492.488799 
L 465.1875 492.488799 
L 464.025 492.488799 
L 462.8625 492.488799 
L 461.7 453.371402 
L 460.5375 492.488799 
L 459.375 492.488799 
L 458.2125 492.488799 
L 457.05 492.488799 
L 455.8875 492.488799 
L 454.725 492.488799 
L 453.5625 453.371402 
L 452.4 450.686149 
L 451.2375 450.686149 
L 450.075 450.686149 
L 448.9125 450.686149 
L 447.75 450.686149 
L 446.5875 450.686149 
L 445.425 450.686149 
L 444.2625 450.686149 
L 443.1 417.084476 
L 441.9375 417.084476 
L 440.775 417.084476 
L 439.6125 417.084476 
L 438.45 417.084476 
L 437.2875 417.084476 
L 436.125 417.084476 
L 434.9625 403.775073 
L 433.8 402.717442 
L 432.6375 402.717442 
L 431.475 402.717442 
L 430.3125 394.052601 
L 429.15 373.72102 
L 427.9875 373.72102 
L 426.825 371.946241 
L 425.6625 371.946241 
L 424.5 362.401531 
L 423.3375 362.401531 
L 422.175 362.401531 
L 421.0125 362.401531 
L 419.85 362.401531 
L 418.6875 362.401531 
L 417.525 373.122717 
L 416.3625 373.122717 
L 415.2 385.856059 
L 414.0375 385.856059 
L 412.875 393.172732 
L 411.7125 393.172732 
L 410.55 393.172732 
L 409.3875 393.172732 
L 408.225 393.172732 
L 407.0625 393.172732 
L 405.9 393.172732 
L 404.7375 393.172732 
L 403.575 385.856059 
L 402.4125 385.856059 
L 401.25 368.025085 
L 400.0875 368.025085 
L 398.925 366.430516 
L 397.7625 366.430516 
L 396.6 366.430516 
L 395.4375 366.430516 
L 394.275 366.430516 
L 393.1125 366.430516 
L 391.95 361.91903 
L 390.7875 361.91903 
L 389.625 361.91903 
L 388.4625 361.91903 
L 387.3 361.91903 
L 386.1375 361.91903 
L 384.975 357.323892 
L 383.8125 361.440936 
L 382.65 361.440936 
L 381.4875 361.440936 
L 380.325 361.440936 
L 379.1625 362.401531 
L 378 372.531174 
L 376.8375 372.531174 
L 375.675 372.531174 
L 374.5125 372.531174 
L 373.35 378.112297 
L 372.1875 378.770809 
L 371.025 380.113215 
L 369.8625 380.113215 
L 368.7 380.113215 
L 367.5375 402.717442 
L 366.375 402.717442 
L 365.2125 402.717442 
L 364.05 386.62032 
L 362.8875 402.717442 
L 361.725 402.717442 
L 360.5625 402.717442 
L 359.4 402.717442 
L 358.2375 402.717442 
L 357.075 402.717442 
L 355.9125 402.717442 
L 354.75 403.775073 
L 353.5875 403.775073 
L 352.425 403.775073 
L 351.2625 394.947511 
L 350.1 394.947511 
L 348.9375 403.775073 
L 347.775 415.724635 
L 346.6125 414.399223 
L 345.45 414.399223 
L 344.2875 414.399223 
L 343.125 414.399223 
L 341.9625 414.399223 
L 340.8 415.724635 
L 339.6375 415.724635 
L 338.475 415.724635 
L 337.3125 415.724635 
L 336.15 429.459658 
L 334.9875 429.459658 
L 333.825 429.459658 
L 332.6625 431.234437 
L 331.5 450.686149 
L 330.3375 450.686149 
L 329.175 450.686149 
L 328.0125 450.686149 
L 326.85 450.686149 
L 325.6875 453.371402 
L 324.525 486.973074 
L 323.3625 486.973074 
L 322.2 486.973074 
L 321.0375 486.973074 
L 319.875 486.973074 
L 318.7125 486.973074 
L 317.55 486.973074 
L 316.3875 486.973074 
L 315.225 486.973074 
L 314.0625 486.973074 
L 312.9 486.973074 
L 311.7375 492.488799 
L 310.575 492.488799 
L 309.4125 121029.531128 
L 308.25 492.488799 
L 307.0875 486.973074 
L 305.925 486.973074 
L 304.7625 486.973074 
L 303.6 486.973074 
L 302.4375 486.973074 
L 301.275 486.973074 
L 300.1125 486.973074 
L 298.95 486.973074 
L 297.7875 486.973074 
L 296.625 492.488799 
L 295.4625 486.973074 
L 294.3 492.488799 
L 293.1375 486.973074 
L 291.975 486.973074 
L 290.8125 486.973074 
L 289.65 492.488799 
L 288.4875 492.488799 
L 287.325 492.488799 
L 286.1625 486.973074 
L 285 486.973074 
L 283.8375 486.973074 
L 282.675 492.488799 
L 281.5125 492.488799 
L 280.35 492.488799 
L 279.1875 121029.531128 
L 278.025 492.488799 
L 276.8625 492.488799 
L 275.7 492.488799 
L 274.5375 121029.531128 
L 273.375 121029.531128 
L 272.2125 121029.531128 
L 271.05 121029.531128 
L 269.8875 121029.531128 
L 268.725 121029.531128 
L 267.5625 121029.531128 
L 266.4 121029.531128 
L 265.2375 121029.531128 
L 264.075 121029.531128 
L 262.9125 492.488799 
L 261.75 492.488799 
L 260.5875 121029.531128 
L 259.425 121029.531128 
L 258.2625 121029.531128 
L 257.1 121029.531128 
L 255.9375 492.488799 
L 254.775 121029.531128 
L 253.6125 121029.531128 
L 252.45 121029.531128 
L 251.2875 121029.531128 
L 250.125 121029.531128 
L 248.9625 121029.531128 
L 247.8 121029.531128 
L 246.6375 121029.531128 
L 245.475 121029.531128 
L 244.3125 121029.531128 
L 243.15 121029.531128 
L 241.9875 121029.531128 
L 240.825 121029.531128 
L 239.6625 121029.531128 
L 238.5 121029.531128 
L 237.3375 121029.531128 
L 236.175 121029.531128 
L 235.0125 121029.531128 
L 233.85 121029.531128 
L 232.6875 121029.531128 
L 231.525 121029.531128 
L 230.3625 121029.531128 
L 229.2 121029.531128 
L 228.0375 121029.531128 
L 226.875 121029.531128 
L 225.7125 121029.531128 
L 224.55 121029.531128 
L 223.3875 121029.531128 
L 222.225 121029.531128 
L 221.0625 121029.531128 
L 219.9 121029.531128 
L 218.7375 121029.531128 
L 217.575 121029.531128 
L 216.4125 121029.531128 
L 215.25 121029.531128 
L 214.0875 121029.531128 
L 212.925 121029.531128 
L 211.7625 121029.531128 
L 210.6 121029.531128 
L 209.4375 121029.531128 
L 208.275 121029.531128 
L 207.1125 121029.531128 
L 205.95 121029.531128 
L 204.7875 121029.531128 
L 203.625 121029.531128 
L 202.4625 121029.531128 
L 201.3 492.488799 
L 200.1375 486.973074 
L 198.975 492.488799 
L 197.8125 492.488799 
L 196.65 486.973074 
L 195.4875 486.973074 
L 194.325 486.973074 
L 193.1625 486.973074 
L 192 486.973074 
L 190.8375 486.973074 
L 189.675 486.973074 
L 188.5125 492.488799 
L 187.35 492.488799 
L 186.1875 486.973074 
L 185.025 486.973074 
L 183.8625 492.488799 
L 182.7 486.973074 
L 181.5375 486.973074 
L 180.375 492.488799 
L 179.2125 492.488799 
L 178.05 121029.531128 
L 176.8875 121029.531128 
L 175.725 121029.531128 
L 174.5625 121029.531128 
L 173.4 121029.531128 
L 172.2375 121029.531128 
L 171.075 121029.531128 
L 169.9125 121029.531128 
L 168.75 121029.531128 
L 167.5875 121029.531128 
L 166.425 121029.531128 
L 165.2625 121029.531128 
L 164.1 121029.531128 
L 162.9375 121029.531128 
L 161.775 121029.531128 
L 160.6125 121029.531128 
L 159.45 121029.531128 
L 158.2875 121029.531128 
L 157.125 121029.531128 
L 155.9625 121029.531128 
L 154.8 121029.531128 
L 153.6375 121029.531128 
L 152.475 121029.531128 
L 151.3125 121029.531128 
L 150.15 121029.531128 
L 148.9875 121029.531128 
L 147.825 121029.531128 
L 146.6625 121029.531128 
L 145.5 121029.531128 
L 144.3375 121029.531128 
L 143.175 121029.531128 
L 142.0125 121029.531128 
L 140.85 121029.531128 
L 139.6875 121029.531128 
L 138.525 121029.531128 
L 137.3625 121029.531128 
L 136.2 121029.531128 
L 135.0375 121029.531128 
L 133.875 121029.531128 
L 132.7125 121029.531128 
L 131.55 121029.531128 
L 130.3875 121029.531128 
L 129.225 121029.531128 
L 128.0625 121029.531128 
L 126.9 121029.531128 
L 125.7375 121029.531128 
L 124.575 121029.531128 
L 123.4125 121029.531128 
L 122.25 121029.531128 
L 121.0875 121029.531128 
L 119.925 121029.531128 
L 118.7625 121029.531128 
L 117.6 121029.531128 
L 116.4375 121029.531128 
L 115.275 121029.531128 
L 114.1125 121029.531128 
L 112.95 121029.531128 
L 111.7875 121029.531128 
L 110.625 121029.531128 
L 109.4625 121029.531128 
L 108.3 121029.531128 
L 107.1375 121029.531128 
L 105.975 121029.531128 
L 104.8125 121029.531128 
L 103.65 121029.531128 
L 102.4875 121029.531128 
L 101.325 121029.531128 
L 100.1625 121029.531128 
L 99 121029.531128 
z
" style="fill:#ff8080;fill-opacity:0.5;stroke:#ff8080;stroke-opacity:0.5;"/>
   </g>
   <g id="matplotlib.axis_1">
    <g id="xtick_1">
     <g id="line2d_1">
      <path clip-path="url(#p68e2955192)" d="M 99 544.68 
L 99 73.44 
" style="fill:none;stroke:#b0b0b0;stroke-linecap:square;stroke-width:0.8;"/>
     </g>
     <g id="line2d_2">
      <defs>
       <path d="M 0 0 
L 0 3.5 
" id="m4abed1d830" style="stroke:#000000;stroke-width:0.8;"/>
      </defs>
      <g>
       <use style="stroke:#000000;stroke-width:0.8;" x="99" xlink:href="#m4abed1d830" y="544.68"/>
      </g>
     </g>
    </g>
    <g id="xtick_2">
     <g id="line2d_3">
      <path clip-path="url(#p68e2955192)" d="M 123.4125 544.68 
L 123.4125 73.44 
" style="fill:none;stroke:#b0b0b0;stroke-linecap:square;stroke-width:0.8;"/>
     </g>
     <g id="line2d_4">
      <g>
       <use style="stroke:#000000;stroke-width:0.8;" x="123.4125" xlink:href="#m4abed1d830" y="544.68"/>
      </g>
     </g>
     <g id="text_1">
      <!-- Apr -->
      <g transform="translate(114.7625 559.278437)scale(0.1 -0.1)">
       <defs>
        <path d="M 2188 4044 
L 1331 1722 
L 3047 1722 
L 2188 4044 
z
M 1831 4666 
L 2547 4666 
L 4325 0 
L 3669 0 
L 3244 1197 
L 1141 1197 
L 716 0 
L 50 0 
L 1831 4666 
z
" id="DejaVuSans-41" transform="scale(0.015625)"/>
        <path d="M 1159 525 
L 1159 -1331 
L 581 -1331 
L 581 3500 
L 1159 3500 
L 1159 2969 
Q 1341 3281 1617 3432 
Q 1894 3584 2278 3584 
Q 2916 3584 3314 3078 
Q 3713 2572 3713 1747 
Q 3713 922 3314 415 
Q 2916 -91 2278 -91 
Q 1894 -91 1617 61 
Q 1341 213 1159 525 
z
M 3116 1747 
Q 3116 2381 2855 2742 
Q 2594 3103 2138 3103 
Q 1681 3103 1420 2742 
Q 1159 2381 1159 1747 
Q 1159 1113 1420 752 
Q 1681 391 2138 391 
Q 2594 391 2855 752 
Q 3116 1113 3116 1747 
z
" id="DejaVuSans-70" transform="scale(0.015625)"/>
        <path d="M 2631 2963 
Q 2534 3019 2420 3045 
Q 2306 3072 2169 3072 
Q 1681 3072 1420 2755 
Q 1159 2438 1159 1844 
L 1159 0 
L 581 0 
L 581 3500 
L 1159 3500 
L 1159 2956 
Q 1341 3275 1631 3429 
Q 1922 3584 2338 3584 
Q 2397 3584 2469 3576 
Q 2541 3569 2628 3553 
L 2631 2963 
z
" id="DejaVuSans-72" transform="scale(0.015625)"/>
       </defs>
       <use xlink:href="#DejaVuSans-41"/>
       <use x="68.408203" xlink:href="#DejaVuSans-70"/>
       <use x="131.884766" xlink:href="#DejaVuSans-72"/>
      </g>
     </g>
    </g>
    <g id="xtick_3">
     <g id="line2d_5">
      <path clip-path="url(#p68e2955192)" d="M 229.2 544.68 
L 229.2 73.44 
" style="fill:none;stroke:#b0b0b0;stroke-linecap:square;stroke-width:0.8;"/>
     </g>
     <g id="line2d_6">
      <g>
       <use style="stroke:#000000;stroke-width:0.8;" x="229.2" xlink:href="#m4abed1d830" y="544.68"/>
      </g>
     </g>
     <g id="text_2">
      <!-- Jul -->
      <g transform="translate(223.167188 559.278437)scale(0.1 -0.1)">
       <defs>
        <path d="M 628 4666 
L 1259 4666 
L 1259 325 
Q 1259 -519 939 -900 
Q 619 -1281 -91 -1281 
L -331 -1281 
L -331 -750 
L -134 -750 
Q 284 -750 456 -515 
Q 628 -281 628 325 
L 628 4666 
z
" id="DejaVuSans-4a" transform="scale(0.015625)"/>
        <path d="M 544 1381 
L 544 3500 
L 1119 3500 
L 1119 1403 
Q 1119 906 1312 657 
Q 1506 409 1894 409 
Q 2359 409 2629 706 
Q 2900 1003 2900 1516 
L 2900 3500 
L 3475 3500 
L 3475 0 
L 2900 0 
L 2900 538 
Q 2691 219 2414 64 
Q 2138 -91 1772 -91 
Q 1169 -91 856 284 
Q 544 659 544 1381 
z
M 1991 3584 
L 1991 3584 
z
" id="DejaVuSans-75" transform="scale(0.015625)"/>
        <path d="M 603 4863 
L 1178 4863 
L 1178 0 
L 603 0 
L 603 4863 
z
" id="DejaVuSans-6c" transform="scale(0.015625)"/>
       </defs>
       <use xlink:href="#DejaVuSans-4a"/>
       <use x="29.492188" xlink:href="#DejaVuSans-75"/>
       <use x="92.871094" xlink:href="#DejaVuSans-6c"/>
      </g>
     </g>
    </g>
    <g id="xtick_4">
     <g id="line2d_7">
      <path clip-path="url(#p68e2955192)" d="M 336.15 544.68 
L 336.15 73.44 
" style="fill:none;stroke:#b0b0b0;stroke-linecap:square;stroke-width:0.8;"/>
     </g>
     <g id="line2d_8">
      <g>
       <use style="stroke:#000000;stroke-width:0.8;" x="336.15" xlink:href="#m4abed1d830" y="544.68"/>
      </g>
     </g>
     <g id="text_3">
      <!-- Oct -->
      <g transform="translate(327.504688 559.278437)scale(0.1 -0.1)">
       <defs>
        <path d="M 2522 4238 
Q 1834 4238 1429 3725 
Q 1025 3213 1025 2328 
Q 1025 1447 1429 934 
Q 1834 422 2522 422 
Q 3209 422 3611 934 
Q 4013 1447 4013 2328 
Q 4013 3213 3611 3725 
Q 3209 4238 2522 4238 
z
M 2522 4750 
Q 3503 4750 4090 4092 
Q 4678 3434 4678 2328 
Q 4678 1225 4090 567 
Q 3503 -91 2522 -91 
Q 1538 -91 948 565 
Q 359 1222 359 2328 
Q 359 3434 948 4092 
Q 1538 4750 2522 4750 
z
" id="DejaVuSans-4f" transform="scale(0.015625)"/>
        <path d="M 3122 3366 
L 3122 2828 
Q 2878 2963 2633 3030 
Q 2388 3097 2138 3097 
Q 1578 3097 1268 2742 
Q 959 2388 959 1747 
Q 959 1106 1268 751 
Q 1578 397 2138 397 
Q 2388 397 2633 464 
Q 2878 531 3122 666 
L 3122 134 
Q 2881 22 2623 -34 
Q 2366 -91 2075 -91 
Q 1284 -91 818 406 
Q 353 903 353 1747 
Q 353 2603 823 3093 
Q 1294 3584 2113 3584 
Q 2378 3584 2631 3529 
Q 2884 3475 3122 3366 
z
" id="DejaVuSans-63" transform="scale(0.015625)"/>
        <path d="M 1172 4494 
L 1172 3500 
L 2356 3500 
L 2356 3053 
L 1172 3053 
L 1172 1153 
Q 1172 725 1289 603 
Q 1406 481 1766 481 
L 2356 481 
L 2356 0 
L 1766 0 
Q 1100 0 847 248 
Q 594 497 594 1153 
L 594 3053 
L 172 3053 
L 172 3500 
L 594 3500 
L 594 4494 
L 1172 4494 
z
" id="DejaVuSans-74" transform="scale(0.015625)"/>
       </defs>
       <use xlink:href="#DejaVuSans-4f"/>
       <use x="78.710938" xlink:href="#DejaVuSans-63"/>
       <use x="133.691406" xlink:href="#DejaVuSans-74"/>
      </g>
     </g>
    </g>
    <g id="xtick_5">
     <g id="line2d_9">
      <path clip-path="url(#p68e2955192)" d="M 443.1 544.68 
L 443.1 73.44 
" style="fill:none;stroke:#b0b0b0;stroke-linecap:square;stroke-width:0.8;"/>
     </g>
     <g id="line2d_10">
      <g>
       <use style="stroke:#000000;stroke-width:0.8;" x="443.1" xlink:href="#m4abed1d830" y="544.68"/>
      </g>
     </g>
     <g id="text_4">
      <!-- Jan -->
      <g transform="translate(435.392188 559.278437)scale(0.1 -0.1)">
       <defs>
        <path d="M 2194 1759 
Q 1497 1759 1228 1600 
Q 959 1441 959 1056 
Q 959 750 1161 570 
Q 1363 391 1709 391 
Q 2188 391 2477 730 
Q 2766 1069 2766 1631 
L 2766 1759 
L 2194 1759 
z
M 3341 1997 
L 3341 0 
L 2766 0 
L 2766 531 
Q 2569 213 2275 61 
Q 1981 -91 1556 -91 
Q 1019 -91 701 211 
Q 384 513 384 1019 
Q 384 1609 779 1909 
Q 1175 2209 1959 2209 
L 2766 2209 
L 2766 2266 
Q 2766 2663 2505 2880 
Q 2244 3097 1772 3097 
Q 1472 3097 1187 3025 
Q 903 2953 641 2809 
L 641 3341 
Q 956 3463 1253 3523 
Q 1550 3584 1831 3584 
Q 2591 3584 2966 3190 
Q 3341 2797 3341 1997 
z
" id="DejaVuSans-61" transform="scale(0.015625)"/>
        <path d="M 3513 2113 
L 3513 0 
L 2938 0 
L 2938 2094 
Q 2938 2591 2744 2837 
Q 2550 3084 2163 3084 
Q 1697 3084 1428 2787 
Q 1159 2491 1159 1978 
L 1159 0 
L 581 0 
L 581 3500 
L 1159 3500 
L 1159 2956 
Q 1366 3272 1645 3428 
Q 1925 3584 2291 3584 
Q 2894 3584 3203 3211 
Q 3513 2838 3513 2113 
z
" id="DejaVuSans-6e" transform="scale(0.015625)"/>
       </defs>
       <use xlink:href="#DejaVuSans-4a"/>
       <use x="29.492188" xlink:href="#DejaVuSans-61"/>
       <use x="90.771484" xlink:href="#DejaVuSans-6e"/>
      </g>
      <!-- 2021 -->
      <g transform="translate(430.375 570.47625)scale(0.1 -0.1)">
       <defs>
        <path d="M 1228 531 
L 3431 531 
L 3431 0 
L 469 0 
L 469 531 
Q 828 903 1448 1529 
Q 2069 2156 2228 2338 
Q 2531 2678 2651 2914 
Q 2772 3150 2772 3378 
Q 2772 3750 2511 3984 
Q 2250 4219 1831 4219 
Q 1534 4219 1204 4116 
Q 875 4013 500 3803 
L 500 4441 
Q 881 4594 1212 4672 
Q 1544 4750 1819 4750 
Q 2544 4750 2975 4387 
Q 3406 4025 3406 3419 
Q 3406 3131 3298 2873 
Q 3191 2616 2906 2266 
Q 2828 2175 2409 1742 
Q 1991 1309 1228 531 
z
" id="DejaVuSans-32" transform="scale(0.015625)"/>
        <path d="M 2034 4250 
Q 1547 4250 1301 3770 
Q 1056 3291 1056 2328 
Q 1056 1369 1301 889 
Q 1547 409 2034 409 
Q 2525 409 2770 889 
Q 3016 1369 3016 2328 
Q 3016 3291 2770 3770 
Q 2525 4250 2034 4250 
z
M 2034 4750 
Q 2819 4750 3233 4129 
Q 3647 3509 3647 2328 
Q 3647 1150 3233 529 
Q 2819 -91 2034 -91 
Q 1250 -91 836 529 
Q 422 1150 422 2328 
Q 422 3509 836 4129 
Q 1250 4750 2034 4750 
z
" id="DejaVuSans-30" transform="scale(0.015625)"/>
        <path d="M 794 531 
L 1825 531 
L 1825 4091 
L 703 3866 
L 703 4441 
L 1819 4666 
L 2450 4666 
L 2450 531 
L 3481 531 
L 3481 0 
L 794 0 
L 794 531 
z
" id="DejaVuSans-31" transform="scale(0.015625)"/>
       </defs>
       <use xlink:href="#DejaVuSans-32"/>
       <use x="63.623047" xlink:href="#DejaVuSans-30"/>
       <use x="127.246094" xlink:href="#DejaVuSans-32"/>
       <use x="190.869141" xlink:href="#DejaVuSans-31"/>
      </g>
     </g>
    </g>
    <g id="xtick_6">
     <g id="line2d_11">
      <path clip-path="url(#p68e2955192)" d="M 547.725 544.68 
L 547.725 73.44 
" style="fill:none;stroke:#b0b0b0;stroke-linecap:square;stroke-width:0.8;"/>
     </g>
     <g id="line2d_12">
      <g>
       <use style="stroke:#000000;stroke-width:0.8;" x="547.725" xlink:href="#m4abed1d830" y="544.68"/>
      </g>
     </g>
     <g id="text_5">
      <!-- Apr -->
      <g transform="translate(539.075 559.278437)scale(0.1 -0.1)">
       <use xlink:href="#DejaVuSans-41"/>
       <use x="68.408203" xlink:href="#DejaVuSans-70"/>
       <use x="131.884766" xlink:href="#DejaVuSans-72"/>
      </g>
     </g>
    </g>
    <g id="xtick_7">
     <g id="line2d_13">
      <path clip-path="url(#p68e2955192)" d="M 653.5125 544.68 
L 653.5125 73.44 
" style="fill:none;stroke:#b0b0b0;stroke-linecap:square;stroke-width:0.8;"/>
     </g>
     <g id="line2d_14">
      <g>
       <use style="stroke:#000000;stroke-width:0.8;" x="653.5125" xlink:href="#m4abed1d830" y="544.68"/>
      </g>
     </g>
     <g id="text_6">
      <!-- Jul -->
      <g transform="translate(647.479688 559.278437)scale(0.1 -0.1)">
       <use xlink:href="#DejaVuSans-4a"/>
       <use x="29.492188" xlink:href="#DejaVuSans-75"/>
       <use x="92.871094" xlink:href="#DejaVuSans-6c"/>
      </g>
     </g>
    </g>
    <g id="xtick_8">
     <g id="line2d_15">
      <path clip-path="url(#p68e2955192)" d="M 712.8 544.68 
L 712.8 73.44 
" style="fill:none;stroke:#b0b0b0;stroke-linecap:square;stroke-width:0.8;"/>
     </g>
     <g id="line2d_16">
      <g>
       <use style="stroke:#000000;stroke-width:0.8;" x="712.8" xlink:href="#m4abed1d830" y="544.68"/>
      </g>
     </g>
    </g>
    <g id="xtick_9">
     <g id="line2d_17">
      <defs>
       <path d="M 0 0 
L 0 2 
" id="mbe9820739d" style="stroke:#000000;stroke-width:0.6;"/>
      </defs>
      <g>
       <use style="stroke:#000000;stroke-width:0.6;" x="158.2875" xlink:href="#mbe9820739d" y="544.68"/>
      </g>
     </g>
    </g>
    <g id="xtick_10">
     <g id="line2d_18">
      <g>
       <use style="stroke:#000000;stroke-width:0.6;" x="194.325" xlink:href="#mbe9820739d" y="544.68"/>
      </g>
     </g>
    </g>
    <g id="xtick_11">
     <g id="line2d_19">
      <g>
       <use style="stroke:#000000;stroke-width:0.6;" x="265.2375" xlink:href="#mbe9820739d" y="544.68"/>
      </g>
     </g>
    </g>
    <g id="xtick_12">
     <g id="line2d_20">
      <g>
       <use style="stroke:#000000;stroke-width:0.6;" x="301.275" xlink:href="#mbe9820739d" y="544.68"/>
      </g>
     </g>
    </g>
    <g id="xtick_13">
     <g id="line2d_21">
      <g>
       <use style="stroke:#000000;stroke-width:0.6;" x="372.1875" xlink:href="#mbe9820739d" y="544.68"/>
      </g>
     </g>
    </g>
    <g id="xtick_14">
     <g id="line2d_22">
      <g>
       <use style="stroke:#000000;stroke-width:0.6;" x="407.0625" xlink:href="#mbe9820739d" y="544.68"/>
      </g>
     </g>
    </g>
    <g id="xtick_15">
     <g id="line2d_23">
      <g>
       <use style="stroke:#000000;stroke-width:0.6;" x="479.1375" xlink:href="#mbe9820739d" y="544.68"/>
      </g>
     </g>
    </g>
    <g id="xtick_16">
     <g id="line2d_24">
      <g>
       <use style="stroke:#000000;stroke-width:0.6;" x="511.6875" xlink:href="#mbe9820739d" y="544.68"/>
      </g>
     </g>
    </g>
    <g id="xtick_17">
     <g id="line2d_25">
      <g>
       <use style="stroke:#000000;stroke-width:0.6;" x="582.6" xlink:href="#mbe9820739d" y="544.68"/>
      </g>
     </g>
    </g>
    <g id="xtick_18">
     <g id="line2d_26">
      <g>
       <use style="stroke:#000000;stroke-width:0.6;" x="618.6375" xlink:href="#mbe9820739d" y="544.68"/>
      </g>
     </g>
    </g>
    <g id="xtick_19">
     <g id="line2d_27">
      <g>
       <use style="stroke:#000000;stroke-width:0.6;" x="689.55" xlink:href="#mbe9820739d" y="544.68"/>
      </g>
     </g>
    </g>
    <g id="text_7">
     <!-- Date -->
     <g transform="translate(393.949219 584.154375)scale(0.1 -0.1)">
      <defs>
       <path d="M 1259 4147 
L 1259 519 
L 2022 519 
Q 2988 519 3436 956 
Q 3884 1394 3884 2338 
Q 3884 3275 3436 3711 
Q 2988 4147 2022 4147 
L 1259 4147 
z
M 628 4666 
L 1925 4666 
Q 3281 4666 3915 4102 
Q 4550 3538 4550 2338 
Q 4550 1131 3912 565 
Q 3275 0 1925 0 
L 628 0 
L 628 4666 
z
" id="DejaVuSans-44" transform="scale(0.015625)"/>
       <path d="M 3597 1894 
L 3597 1613 
L 953 1613 
Q 991 1019 1311 708 
Q 1631 397 2203 397 
Q 2534 397 2845 478 
Q 3156 559 3463 722 
L 3463 178 
Q 3153 47 2828 -22 
Q 2503 -91 2169 -91 
Q 1331 -91 842 396 
Q 353 884 353 1716 
Q 353 2575 817 3079 
Q 1281 3584 2069 3584 
Q 2775 3584 3186 3129 
Q 3597 2675 3597 1894 
z
M 3022 2063 
Q 3016 2534 2758 2815 
Q 2500 3097 2075 3097 
Q 1594 3097 1305 2825 
Q 1016 2553 972 2059 
L 3022 2063 
z
" id="DejaVuSans-65" transform="scale(0.015625)"/>
      </defs>
      <use xlink:href="#DejaVuSans-44"/>
      <use x="77.001953" xlink:href="#DejaVuSans-61"/>
      <use x="138.28125" xlink:href="#DejaVuSans-74"/>
      <use x="177.490234" xlink:href="#DejaVuSans-65"/>
     </g>
    </g>
   </g>
   <g id="matplotlib.axis_2">
    <g id="ytick_1">
     <g id="line2d_28">
      <path clip-path="url(#p68e2955192)" d="M 99 486.973074 
L 712.8 486.973074 
" style="fill:none;stroke:#b0b0b0;stroke-linecap:square;stroke-width:0.8;"/>
     </g>
     <g id="line2d_29">
      <defs>
       <path d="M 0 0 
L -3.5 0 
" id="me91a084207" style="stroke:#000000;stroke-width:0.8;"/>
      </defs>
      <g>
       <use style="stroke:#000000;stroke-width:0.8;" x="99" xlink:href="#me91a084207" y="486.973074"/>
      </g>
     </g>
     <g id="text_8">
      <!-- $\mathdefault{10^{0}}$ -->
      <g transform="translate(74.4 490.772293)scale(0.1 -0.1)">
       <use transform="translate(0 0.765625)" xlink:href="#DejaVuSans-31"/>
       <use transform="translate(63.623047 0.765625)" xlink:href="#DejaVuSans-30"/>
       <use transform="translate(128.203125 39.046875)scale(0.7)" xlink:href="#DejaVuSans-30"/>
      </g>
     </g>
    </g>
    <g id="ytick_2">
     <g id="line2d_30">
      <path clip-path="url(#p68e2955192)" d="M 99 366.430516 
L 712.8 366.430516 
" style="fill:none;stroke:#b0b0b0;stroke-linecap:square;stroke-width:0.8;"/>
     </g>
     <g id="line2d_31">
      <g>
       <use style="stroke:#000000;stroke-width:0.8;" x="99" xlink:href="#me91a084207" y="366.430516"/>
      </g>
     </g>
     <g id="text_9">
      <!-- $\mathdefault{10^{1}}$ -->
      <g transform="translate(74.4 370.229735)scale(0.1 -0.1)">
       <use transform="translate(0 0.684375)" xlink:href="#DejaVuSans-31"/>
       <use transform="translate(63.623047 0.684375)" xlink:href="#DejaVuSans-30"/>
       <use transform="translate(128.203125 38.965625)scale(0.7)" xlink:href="#DejaVuSans-31"/>
      </g>
     </g>
    </g>
    <g id="ytick_3">
     <g id="line2d_32">
      <path clip-path="url(#p68e2955192)" d="M 99 245.887958 
L 712.8 245.887958 
" style="fill:none;stroke:#b0b0b0;stroke-linecap:square;stroke-width:0.8;"/>
     </g>
     <g id="line2d_33">
      <g>
       <use style="stroke:#000000;stroke-width:0.8;" x="99" xlink:href="#me91a084207" y="245.887958"/>
      </g>
     </g>
     <g id="text_10">
      <!-- $\mathdefault{10^{2}}$ -->
      <g transform="translate(74.4 249.687177)scale(0.1 -0.1)">
       <use transform="translate(0 0.765625)" xlink:href="#DejaVuSans-31"/>
       <use transform="translate(63.623047 0.765625)" xlink:href="#DejaVuSans-30"/>
       <use transform="translate(128.203125 39.046875)scale(0.7)" xlink:href="#DejaVuSans-32"/>
      </g>
     </g>
    </g>
    <g id="ytick_4">
     <g id="line2d_34">
      <path clip-path="url(#p68e2955192)" d="M 99 125.3454 
L 712.8 125.3454 
" style="fill:none;stroke:#b0b0b0;stroke-linecap:square;stroke-width:0.8;"/>
     </g>
     <g id="line2d_35">
      <g>
       <use style="stroke:#000000;stroke-width:0.8;" x="99" xlink:href="#me91a084207" y="125.3454"/>
      </g>
     </g>
     <g id="text_11">
      <!-- $\mathdefault{10^{3}}$ -->
      <g transform="translate(74.4 129.144619)scale(0.1 -0.1)">
       <defs>
        <path d="M 2597 2516 
Q 3050 2419 3304 2112 
Q 3559 1806 3559 1356 
Q 3559 666 3084 287 
Q 2609 -91 1734 -91 
Q 1441 -91 1130 -33 
Q 819 25 488 141 
L 488 750 
Q 750 597 1062 519 
Q 1375 441 1716 441 
Q 2309 441 2620 675 
Q 2931 909 2931 1356 
Q 2931 1769 2642 2001 
Q 2353 2234 1838 2234 
L 1294 2234 
L 1294 2753 
L 1863 2753 
Q 2328 2753 2575 2939 
Q 2822 3125 2822 3475 
Q 2822 3834 2567 4026 
Q 2313 4219 1838 4219 
Q 1578 4219 1281 4162 
Q 984 4106 628 3988 
L 628 4550 
Q 988 4650 1302 4700 
Q 1616 4750 1894 4750 
Q 2613 4750 3031 4423 
Q 3450 4097 3450 3541 
Q 3450 3153 3228 2886 
Q 3006 2619 2597 2516 
z
" id="DejaVuSans-33" transform="scale(0.015625)"/>
       </defs>
       <use transform="translate(0 0.765625)" xlink:href="#DejaVuSans-31"/>
       <use transform="translate(63.623047 0.765625)" xlink:href="#DejaVuSans-30"/>
       <use transform="translate(128.203125 39.046875)scale(0.7)" xlink:href="#DejaVuSans-33"/>
      </g>
     </g>
    </g>
    <g id="ytick_5">
     <g id="line2d_36">
      <path clip-path="url(#p68e2955192)" d="M 99 534.941781 
L 712.8 534.941781 
" style="fill:none;stroke:#b0b0b0;stroke-linecap:square;stroke-width:0.8;"/>
     </g>
     <g id="line2d_37">
      <defs>
       <path d="M 0 0 
L -2 0 
" id="m0cb60b688e" style="stroke:#000000;stroke-width:0.6;"/>
      </defs>
      <g>
       <use style="stroke:#000000;stroke-width:0.6;" x="99" xlink:href="#m0cb60b688e" y="534.941781"/>
      </g>
     </g>
    </g>
    <g id="ytick_6">
     <g id="line2d_38">
      <path clip-path="url(#p68e2955192)" d="M 99 523.26 
L 712.8 523.26 
" style="fill:none;stroke:#b0b0b0;stroke-linecap:square;stroke-width:0.8;"/>
     </g>
     <g id="line2d_39">
      <g>
       <use style="stroke:#000000;stroke-width:0.6;" x="99" xlink:href="#m0cb60b688e" y="523.26"/>
      </g>
     </g>
    </g>
    <g id="ytick_7">
     <g id="line2d_40">
      <path clip-path="url(#p68e2955192)" d="M 99 513.71529 
L 712.8 513.71529 
" style="fill:none;stroke:#b0b0b0;stroke-linecap:square;stroke-width:0.8;"/>
     </g>
     <g id="line2d_41">
      <g>
       <use style="stroke:#000000;stroke-width:0.6;" x="99" xlink:href="#m0cb60b688e" y="513.71529"/>
      </g>
     </g>
    </g>
    <g id="ytick_8">
     <g id="line2d_42">
      <path clip-path="url(#p68e2955192)" d="M 99 505.645353 
L 712.8 505.645353 
" style="fill:none;stroke:#b0b0b0;stroke-linecap:square;stroke-width:0.8;"/>
     </g>
     <g id="line2d_43">
      <g>
       <use style="stroke:#000000;stroke-width:0.6;" x="99" xlink:href="#m0cb60b688e" y="505.645353"/>
      </g>
     </g>
    </g>
    <g id="ytick_9">
     <g id="line2d_44">
      <path clip-path="url(#p68e2955192)" d="M 99 498.654855 
L 712.8 498.654855 
" style="fill:none;stroke:#b0b0b0;stroke-linecap:square;stroke-width:0.8;"/>
     </g>
     <g id="line2d_45">
      <g>
       <use style="stroke:#000000;stroke-width:0.6;" x="99" xlink:href="#m0cb60b688e" y="498.654855"/>
      </g>
     </g>
    </g>
    <g id="ytick_10">
     <g id="line2d_46">
      <path clip-path="url(#p68e2955192)" d="M 99 492.488799 
L 712.8 492.488799 
" style="fill:none;stroke:#b0b0b0;stroke-linecap:square;stroke-width:0.8;"/>
     </g>
     <g id="line2d_47">
      <g>
       <use style="stroke:#000000;stroke-width:0.6;" x="99" xlink:href="#m0cb60b688e" y="492.488799"/>
      </g>
     </g>
    </g>
    <g id="ytick_11">
     <g id="line2d_48">
      <path clip-path="url(#p68e2955192)" d="M 99 450.686149 
L 712.8 450.686149 
" style="fill:none;stroke:#b0b0b0;stroke-linecap:square;stroke-width:0.8;"/>
     </g>
     <g id="line2d_49">
      <g>
       <use style="stroke:#000000;stroke-width:0.6;" x="99" xlink:href="#m0cb60b688e" y="450.686149"/>
      </g>
     </g>
    </g>
    <g id="ytick_12">
     <g id="line2d_50">
      <path clip-path="url(#p68e2955192)" d="M 99 429.459658 
L 712.8 429.459658 
" style="fill:none;stroke:#b0b0b0;stroke-linecap:square;stroke-width:0.8;"/>
     </g>
     <g id="line2d_51">
      <g>
       <use style="stroke:#000000;stroke-width:0.6;" x="99" xlink:href="#m0cb60b688e" y="429.459658"/>
      </g>
     </g>
    </g>
    <g id="ytick_13">
     <g id="line2d_52">
      <path clip-path="url(#p68e2955192)" d="M 99 414.399223 
L 712.8 414.399223 
" style="fill:none;stroke:#b0b0b0;stroke-linecap:square;stroke-width:0.8;"/>
     </g>
     <g id="line2d_53">
      <g>
       <use style="stroke:#000000;stroke-width:0.6;" x="99" xlink:href="#m0cb60b688e" y="414.399223"/>
      </g>
     </g>
    </g>
    <g id="ytick_14">
     <g id="line2d_54">
      <path clip-path="url(#p68e2955192)" d="M 99 402.717442 
L 712.8 402.717442 
" style="fill:none;stroke:#b0b0b0;stroke-linecap:square;stroke-width:0.8;"/>
     </g>
     <g id="line2d_55">
      <g>
       <use style="stroke:#000000;stroke-width:0.6;" x="99" xlink:href="#m0cb60b688e" y="402.717442"/>
      </g>
     </g>
    </g>
    <g id="ytick_15">
     <g id="line2d_56">
      <path clip-path="url(#p68e2955192)" d="M 99 393.172732 
L 712.8 393.172732 
" style="fill:none;stroke:#b0b0b0;stroke-linecap:square;stroke-width:0.8;"/>
     </g>
     <g id="line2d_57">
      <g>
       <use style="stroke:#000000;stroke-width:0.6;" x="99" xlink:href="#m0cb60b688e" y="393.172732"/>
      </g>
     </g>
    </g>
    <g id="ytick_16">
     <g id="line2d_58">
      <path clip-path="url(#p68e2955192)" d="M 99 385.102795 
L 712.8 385.102795 
" style="fill:none;stroke:#b0b0b0;stroke-linecap:square;stroke-width:0.8;"/>
     </g>
     <g id="line2d_59">
      <g>
       <use style="stroke:#000000;stroke-width:0.6;" x="99" xlink:href="#m0cb60b688e" y="385.102795"/>
      </g>
     </g>
    </g>
    <g id="ytick_17">
     <g id="line2d_60">
      <path clip-path="url(#p68e2955192)" d="M 99 378.112297 
L 712.8 378.112297 
" style="fill:none;stroke:#b0b0b0;stroke-linecap:square;stroke-width:0.8;"/>
     </g>
     <g id="line2d_61">
      <g>
       <use style="stroke:#000000;stroke-width:0.6;" x="99" xlink:href="#m0cb60b688e" y="378.112297"/>
      </g>
     </g>
    </g>
    <g id="ytick_18">
     <g id="line2d_62">
      <path clip-path="url(#p68e2955192)" d="M 99 371.946241 
L 712.8 371.946241 
" style="fill:none;stroke:#b0b0b0;stroke-linecap:square;stroke-width:0.8;"/>
     </g>
     <g id="line2d_63">
      <g>
       <use style="stroke:#000000;stroke-width:0.6;" x="99" xlink:href="#m0cb60b688e" y="371.946241"/>
      </g>
     </g>
    </g>
    <g id="ytick_19">
     <g id="line2d_64">
      <path clip-path="url(#p68e2955192)" d="M 99 330.14359 
L 712.8 330.14359 
" style="fill:none;stroke:#b0b0b0;stroke-linecap:square;stroke-width:0.8;"/>
     </g>
     <g id="line2d_65">
      <g>
       <use style="stroke:#000000;stroke-width:0.6;" x="99" xlink:href="#m0cb60b688e" y="330.14359"/>
      </g>
     </g>
    </g>
    <g id="ytick_20">
     <g id="line2d_66">
      <path clip-path="url(#p68e2955192)" d="M 99 308.9171 
L 712.8 308.9171 
" style="fill:none;stroke:#b0b0b0;stroke-linecap:square;stroke-width:0.8;"/>
     </g>
     <g id="line2d_67">
      <g>
       <use style="stroke:#000000;stroke-width:0.6;" x="99" xlink:href="#m0cb60b688e" y="308.9171"/>
      </g>
     </g>
    </g>
    <g id="ytick_21">
     <g id="line2d_68">
      <path clip-path="url(#p68e2955192)" d="M 99 293.856665 
L 712.8 293.856665 
" style="fill:none;stroke:#b0b0b0;stroke-linecap:square;stroke-width:0.8;"/>
     </g>
     <g id="line2d_69">
      <g>
       <use style="stroke:#000000;stroke-width:0.6;" x="99" xlink:href="#m0cb60b688e" y="293.856665"/>
      </g>
     </g>
    </g>
    <g id="ytick_22">
     <g id="line2d_70">
      <path clip-path="url(#p68e2955192)" d="M 99 282.174884 
L 712.8 282.174884 
" style="fill:none;stroke:#b0b0b0;stroke-linecap:square;stroke-width:0.8;"/>
     </g>
     <g id="line2d_71">
      <g>
       <use style="stroke:#000000;stroke-width:0.6;" x="99" xlink:href="#m0cb60b688e" y="282.174884"/>
      </g>
     </g>
    </g>
    <g id="ytick_23">
     <g id="line2d_72">
      <path clip-path="url(#p68e2955192)" d="M 99 272.630174 
L 712.8 272.630174 
" style="fill:none;stroke:#b0b0b0;stroke-linecap:square;stroke-width:0.8;"/>
     </g>
     <g id="line2d_73">
      <g>
       <use style="stroke:#000000;stroke-width:0.6;" x="99" xlink:href="#m0cb60b688e" y="272.630174"/>
      </g>
     </g>
    </g>
    <g id="ytick_24">
     <g id="line2d_74">
      <path clip-path="url(#p68e2955192)" d="M 99 264.560237 
L 712.8 264.560237 
" style="fill:none;stroke:#b0b0b0;stroke-linecap:square;stroke-width:0.8;"/>
     </g>
     <g id="line2d_75">
      <g>
       <use style="stroke:#000000;stroke-width:0.6;" x="99" xlink:href="#m0cb60b688e" y="264.560237"/>
      </g>
     </g>
    </g>
    <g id="ytick_25">
     <g id="line2d_76">
      <path clip-path="url(#p68e2955192)" d="M 99 257.569739 
L 712.8 257.569739 
" style="fill:none;stroke:#b0b0b0;stroke-linecap:square;stroke-width:0.8;"/>
     </g>
     <g id="line2d_77">
      <g>
       <use style="stroke:#000000;stroke-width:0.6;" x="99" xlink:href="#m0cb60b688e" y="257.569739"/>
      </g>
     </g>
    </g>
    <g id="ytick_26">
     <g id="line2d_78">
      <path clip-path="url(#p68e2955192)" d="M 99 251.403683 
L 712.8 251.403683 
" style="fill:none;stroke:#b0b0b0;stroke-linecap:square;stroke-width:0.8;"/>
     </g>
     <g id="line2d_79">
      <g>
       <use style="stroke:#000000;stroke-width:0.6;" x="99" xlink:href="#m0cb60b688e" y="251.403683"/>
      </g>
     </g>
    </g>
    <g id="ytick_27">
     <g id="line2d_80">
      <path clip-path="url(#p68e2955192)" d="M 99 209.601032 
L 712.8 209.601032 
" style="fill:none;stroke:#b0b0b0;stroke-linecap:square;stroke-width:0.8;"/>
     </g>
     <g id="line2d_81">
      <g>
       <use style="stroke:#000000;stroke-width:0.6;" x="99" xlink:href="#m0cb60b688e" y="209.601032"/>
      </g>
     </g>
    </g>
    <g id="ytick_28">
     <g id="line2d_82">
      <path clip-path="url(#p68e2955192)" d="M 99 188.374542 
L 712.8 188.374542 
" style="fill:none;stroke:#b0b0b0;stroke-linecap:square;stroke-width:0.8;"/>
     </g>
     <g id="line2d_83">
      <g>
       <use style="stroke:#000000;stroke-width:0.6;" x="99" xlink:href="#m0cb60b688e" y="188.374542"/>
      </g>
     </g>
    </g>
    <g id="ytick_29">
     <g id="line2d_84">
      <path clip-path="url(#p68e2955192)" d="M 99 173.314107 
L 712.8 173.314107 
" style="fill:none;stroke:#b0b0b0;stroke-linecap:square;stroke-width:0.8;"/>
     </g>
     <g id="line2d_85">
      <g>
       <use style="stroke:#000000;stroke-width:0.6;" x="99" xlink:href="#m0cb60b688e" y="173.314107"/>
      </g>
     </g>
    </g>
    <g id="ytick_30">
     <g id="line2d_86">
      <path clip-path="url(#p68e2955192)" d="M 99 161.632326 
L 712.8 161.632326 
" style="fill:none;stroke:#b0b0b0;stroke-linecap:square;stroke-width:0.8;"/>
     </g>
     <g id="line2d_87">
      <g>
       <use style="stroke:#000000;stroke-width:0.6;" x="99" xlink:href="#m0cb60b688e" y="161.632326"/>
      </g>
     </g>
    </g>
    <g id="ytick_31">
     <g id="line2d_88">
      <path clip-path="url(#p68e2955192)" d="M 99 152.087616 
L 712.8 152.087616 
" style="fill:none;stroke:#b0b0b0;stroke-linecap:square;stroke-width:0.8;"/>
     </g>
     <g id="line2d_89">
      <g>
       <use style="stroke:#000000;stroke-width:0.6;" x="99" xlink:href="#m0cb60b688e" y="152.087616"/>
      </g>
     </g>
    </g>
    <g id="ytick_32">
     <g id="line2d_90">
      <path clip-path="url(#p68e2955192)" d="M 99 144.017679 
L 712.8 144.017679 
" style="fill:none;stroke:#b0b0b0;stroke-linecap:square;stroke-width:0.8;"/>
     </g>
     <g id="line2d_91">
      <g>
       <use style="stroke:#000000;stroke-width:0.6;" x="99" xlink:href="#m0cb60b688e" y="144.017679"/>
      </g>
     </g>
    </g>
    <g id="ytick_33">
     <g id="line2d_92">
      <path clip-path="url(#p68e2955192)" d="M 99 137.027181 
L 712.8 137.027181 
" style="fill:none;stroke:#b0b0b0;stroke-linecap:square;stroke-width:0.8;"/>
     </g>
     <g id="line2d_93">
      <g>
       <use style="stroke:#000000;stroke-width:0.6;" x="99" xlink:href="#m0cb60b688e" y="137.027181"/>
      </g>
     </g>
    </g>
    <g id="ytick_34">
     <g id="line2d_94">
      <path clip-path="url(#p68e2955192)" d="M 99 130.861125 
L 712.8 130.861125 
" style="fill:none;stroke:#b0b0b0;stroke-linecap:square;stroke-width:0.8;"/>
     </g>
     <g id="line2d_95">
      <g>
       <use style="stroke:#000000;stroke-width:0.6;" x="99" xlink:href="#m0cb60b688e" y="130.861125"/>
      </g>
     </g>
    </g>
    <g id="ytick_35">
     <g id="line2d_96">
      <path clip-path="url(#p68e2955192)" d="M 99 89.058474 
L 712.8 89.058474 
" style="fill:none;stroke:#b0b0b0;stroke-linecap:square;stroke-width:0.8;"/>
     </g>
     <g id="line2d_97">
      <g>
       <use style="stroke:#000000;stroke-width:0.6;" x="99" xlink:href="#m0cb60b688e" y="89.058474"/>
      </g>
     </g>
    </g>
   </g>
   <g id="line2d_98">
    <path clip-path="url(#p68e2955192)" d="M 114.11108 613 
L 114.1125 465.746583 
L 115.275 450.686149 
L 116.4375 450.686149 
L 118.7625 408.233167 
L 119.925 408.233167 
L 121.0875 388.982419 
L 122.25 378.112297 
L 123.4125 371.946241 
L 124.575 371.946241 
L 125.7375 361.440936 
L 126.9 356.885806 
L 129.225 352.695493 
L 130.3875 352.695493 
L 132.7125 348.815869 
L 135.0375 348.815869 
L 137.3625 345.204025 
L 138.525 346.978804 
L 139.6875 346.978804 
L 140.85 345.204025 
L 143.175 335.659315 
L 144.3375 335.659315 
L 145.5 328.850908 
L 146.6625 328.850908 
L 147.825 321.701047 
L 150.15 310.691879 
L 151.3125 304.726786 
L 152.475 297.938027 
L 154.8 288.867085 
L 157.125 288.867085 
L 158.2875 291.302452 
L 159.45 291.302452 
L 160.6125 292.563983 
L 161.775 294.515176 
L 164.1 291.929418 
L 165.2625 288.867085 
L 166.425 285.414121 
L 167.5875 288.867085 
L 168.75 291.929418 
L 169.9125 293.206334 
L 172.2375 293.206334 
L 174.5625 285.414121 
L 175.725 283.769453 
L 176.8875 281.653974 
L 178.05 281.653974 
L 179.2125 279.620672 
L 180.375 279.620672 
L 181.5375 278.632888 
L 182.7 274.404953 
L 187.35 274.404953 
L 188.5125 279.620672 
L 189.675 281.653974 
L 190.8375 282.174884 
L 193.1625 293.206334 
L 194.325 287.690609 
L 195.4875 293.206334 
L 196.65 295.182077 
L 197.8125 298.650296 
L 201.3 298.650296 
L 202.4625 303.140272 
L 203.625 303.140272 
L 204.7875 298.650296 
L 205.95 298.650296 
L 207.1125 300.847162 
L 208.275 297.235319 
L 209.4375 297.235319 
L 210.6 301.600427 
L 211.7625 301.600427 
L 212.925 297.235319 
L 214.0875 297.235319 
L 215.25 301.600427 
L 216.4125 307.200521 
L 221.0625 307.200521 
L 222.225 308.051775 
L 223.3875 311.602353 
L 224.55 311.602353 
L 228.0375 300.847162 
L 229.2 300.847162 
L 230.3625 297.938027 
L 235.0125 297.938027 
L 236.175 296.541918 
L 237.3375 296.541918 
L 239.6625 290.070608 
L 240.825 288.275542 
L 241.9875 281.138197 
L 243.15 271.764849 
L 244.3125 271.764849 
L 245.475 265.694237 
L 246.6375 263.085464 
L 247.8 258.895151 
L 248.9625 253.480198 
L 250.125 251.403683 
L 251.2875 248.573212 
L 252.45 248.573212 
L 253.6125 245.367049 
L 254.775 243.333746 
L 257.1 240.898378 
L 258.2625 239.258616 
L 259.425 239.258616 
L 260.5875 237.223117 
L 264.075 237.223117 
L 265.2375 235.692917 
L 266.4 235.692917 
L 268.725 233.997191 
L 269.8875 234.416001 
L 271.05 235.050566 
L 272.2125 234.416001 
L 273.375 232.557192 
L 274.5375 234.416001 
L 278.025 234.416001 
L 279.1875 232.557192 
L 280.35 232.557192 
L 281.5125 234.416001 
L 282.675 230.566421 
L 283.8375 230.762125 
L 285 232.354673 
L 286.1625 228.648588 
L 287.325 225.897467 
L 288.4875 225.719099 
L 293.1375 225.719099 
L 294.3 218.573026 
L 295.4625 218.573026 
L 296.625 207.673785 
L 297.7875 202.170677 
L 301.275 202.170677 
L 302.4375 201.158489 
L 303.6 201.158489 
L 304.7625 197.919252 
L 305.925 197.398342 
L 307.0875 191.613779 
L 311.7375 191.613779 
L 312.9 197.088266 
L 314.0625 197.088266 
L 315.225 191.613779 
L 317.55 191.613779 
L 318.7125 191.428466 
L 322.2 191.428466 
L 323.3625 188.287363 
L 324.525 186.82711 
L 325.6875 186.82711 
L 326.85 181.591678 
L 328.0125 178.251362 
L 329.175 175.519387 
L 330.3375 175.519387 
L 331.5 178.251362 
L 332.6625 178.251362 
L 334.9875 172.793197 
L 336.15 173.642327 
L 337.3125 173.642327 
L 338.475 170.017315 
L 340.8 170.017315 
L 341.9625 168.682687 
L 344.2875 168.682687 
L 345.45 168.02792 
L 346.6125 168.02792 
L 347.775 165.940561 
L 348.9375 164.372715 
L 350.1 163.280893 
L 351.2625 161.84215 
L 352.425 161.059609 
L 353.5875 159.831378 
L 354.75 155.933692 
L 355.9125 151.008176 
L 357.075 148.179954 
L 358.2375 147.296711 
L 359.4 147.296711 
L 361.725 143.719382 
L 362.8875 143.164615 
L 364.05 141.784968 
L 365.2125 141.784968 
L 366.375 137.388337 
L 367.5375 136.312259 
L 368.7 133.577002 
L 369.8625 132.877153 
L 371.025 131.62282 
L 372.1875 131.563833 
L 373.35 130.167725 
L 374.5125 130.167725 
L 375.675 127.838136 
L 376.8375 123.141363 
L 378 119.389168 
L 379.1625 118.051493 
L 380.325 118.051493 
L 381.4875 117.462765 
L 389.625 117.462765 
L 390.7875 118.78529 
L 391.95 115.452842 
L 396.6 115.452842 
L 397.7625 115.669976 
L 400.0875 115.669976 
L 401.25 119.599836 
L 402.4125 121.05049 
L 403.575 121.340657 
L 404.7375 121.340657 
L 405.9 123.266995 
L 407.0625 126.189789 
L 408.225 132.216375 
L 409.3875 132.216375 
L 411.7125 139.954081 
L 412.875 142.652084 
L 414.0375 143.054364 
L 415.2 143.054364 
L 416.3625 148.018252 
L 417.525 153.952733 
L 418.6875 155.746222 
L 419.85 158.48321 
L 421.0125 162.317351 
L 422.175 163.93325 
L 423.3375 163.93325 
L 424.5 164.983067 
L 425.6625 170.884688 
L 426.825 170.884688 
L 427.9875 176.483775 
L 429.15 177.608134 
L 430.3125 180.006307 
L 432.6375 186.742468 
L 433.8 190.876429 
L 434.9625 192.455904 
L 436.125 193.503911 
L 437.2875 195.765431 
L 444.2625 195.765431 
L 445.425 198.339744 
L 446.5875 198.339744 
L 447.75 200.056322 
L 448.9125 200.056322 
L 450.075 195.365039 
L 454.725 195.365039 
L 455.8875 203.087128 
L 457.05 214.394664 
L 461.7 214.394664 
L 462.8625 220.632482 
L 464.025 223.283731 
L 465.1875 224.487254 
L 466.35 225.011642 
L 467.5125 225.011642 
L 468.675 224.487254 
L 469.8375 225.011642 
L 473.325 225.011642 
L 474.4875 225.897467 
L 476.8125 225.897467 
L 477.975 227.900705 
L 479.1375 227.900705 
L 480.3 228.837241 
L 481.4625 230.177192 
L 482.625 234.838189 
L 483.7875 241.136879 
L 484.95 245.367049 
L 487.275 245.367049 
L 488.4375 255.642492 
L 489.6 268.844117 
L 493.0875 268.844117 
L 494.25 275.315428 
L 495.4125 277.185304 
L 498.9 277.185304 
L 500.0625 266.853346 
L 501.225 257.569739 
L 503.55 257.569739 
L 504.7125 248.849471 
L 505.875 241.617167 
L 507.0375 247.482527 
L 508.2 251.403683 
L 522.15 251.403683 
L 523.3125 250.253066 
L 524.475 248.849471 
L 525.6375 248.573212 
L 531.45 248.573212 
L 532.6125 246.945589 
L 536.1 246.945589 
L 537.2625 242.837524 
L 538.425 240.189325 
L 539.5875 238.571285 
L 540.75 238.571285 
L 541.9125 233.581705 
L 545.4 233.581705 
L 546.5625 233.169491 
L 547.725 226.436246 
L 548.8875 222.107255 
L 553.5375 222.107255 
L 554.7 217.344794 
L 555.8625 217.344794 
L 557.025 222.107255 
L 558.1875 215.996626 
L 561.675 215.996626 
L 562.8375 218.573026 
L 564 220.310322 
L 565.1625 217.955308 
L 570.975 217.955308 
L 572.1375 219.355566 
L 573.3 219.355566 
L 574.4625 221.775919 
L 577.95 221.775919 
L 579.1125 223.283731 
L 580.275 225.364175 
L 581.4375 225.364175 
L 582.6 223.283731 
L 584.925 223.283731 
L 586.0875 224.487254 
L 587.25 224.487254 
L 588.4125 225.897467 
L 589.575 228.086676 
L 593.0625 228.086676 
L 594.225 231.552344 
L 595.3875 234.626669 
L 597.7125 239.721902 
L 598.875 243.583632 
L 601.2 243.583632 
L 602.3625 246.414103 
L 603.525 246.414103 
L 604.6875 247.482527 
L 605.85 251.403683 
L 607.0125 256.919408 
L 609.3375 256.919408 
L 610.5 258.22825 
L 612.825 265.694237 
L 613.9875 266.464118 
L 615.15 274.404953 
L 617.475 274.404953 
L 618.6375 284.860137 
L 622.125 284.860137 
L 623.2875 289.465388 
L 625.6125 289.465388 
L 626.775 293.856665 
L 627.9375 293.856665 
L 629.1 291.929418 
L 630.2625 297.938027 
L 634.9125 297.938027 
L 636.075 302.364688 
L 638.4 313.472229 
L 639.5625 316.408567 
L 641.8875 316.408567 
L 643.05 317.425123 
L 644.2125 326.357534 
L 645.375 337.134088 
L 647.7 343.487446 
L 650.025 343.487446 
L 651.1875 346.978804 
L 652.35 346.978804 
L 653.5125 350.71975 
L 654.675 352.695493 
L 655.8375 356.885806 
L 658.1625 356.885806 
L 659.325 361.440936 
L 668.625 361.440936 
L 669.7875 356.885806 
L 670.95 345.204025 
L 672.1125 327.589378 
L 674.4375 327.589378 
L 675.6 316.408567 
L 676.7625 317.425123 
L 677.925 317.425123 
L 679.0875 315.411376 
L 681.4125 315.411376 
L 682.575 309.796969 
L 683.7375 309.796969 
L 684.9 303.92752 
L 686.0625 299.37239 
L 687.225 293.206334 
L 688.3875 288.867085 
L 691.875 288.867085 
L 694.2 264.560237 
L 695.3625 261.298568 
L 696.525 259.231814 
L 698.85 259.231814 
L 700.0125 256.277057 
L 701.175 251.403683 
L 702.3375 242.837524 
L 703.5 237.892861 
L 704.6625 237.223117 
L 708.15 237.223117 
L 709.3125 230.371445 
L 710.475 222.608225 
L 712.8 216.14472 
L 712.8 216.14472 
" style="fill:none;stroke:#1f77b4;stroke-linecap:square;stroke-width:1.5;"/>
   </g>
   <g id="line2d_99">
    <path clip-path="url(#p68e2955192)" d="M 145.499134 613 
L 145.5 523.26 
L 145.500866 613 
M 147.824134 613 
L 147.825 523.26 
L 148.9875 523.26 
L 148.988366 613 
M 151.311634 613 
L 151.3125 523.26 
L 157.125 523.26 
L 158.2875 486.973074 
L 164.1 486.973074 
L 165.2625 523.26 
L 166.425 486.973074 
L 167.5875 486.973074 
L 168.75 523.26 
L 169.9125 523.26 
L 171.075 486.973074 
L 180.375 486.973074 
L 181.5375 465.746583 
L 182.7 486.973074 
L 207.1125 486.973074 
L 208.275 523.26 
L 208.275866 613 
M 219.899134 613 
L 219.9 523.26 
L 224.55 523.26 
L 225.7125 486.973074 
L 229.2 486.973074 
L 230.3625 523.26 
L 230.363366 613 
M 252.449134 613 
L 252.45 523.26 
L 253.6125 486.973074 
L 287.325 486.973074 
L 288.4875 465.746583 
L 291.975 465.746583 
L 293.1375 486.973074 
L 311.7375 486.973074 
L 312.9 465.746583 
L 315.225 465.746583 
L 316.3875 450.686149 
L 325.6875 450.686149 
L 326.85 439.004368 
L 328.0125 429.459658 
L 329.175 429.459658 
L 330.3375 414.399223 
L 331.5 408.233167 
L 332.6625 408.233167 
L 333.825 402.717442 
L 334.9875 402.717442 
L 336.15 393.172732 
L 337.3125 385.102795 
L 343.125 385.102795 
L 344.2875 388.982419 
L 347.775 388.982419 
L 350.1 381.490951 
L 351.2625 381.490951 
L 352.425 385.102795 
L 353.5875 385.102795 
L 354.75 381.490951 
L 359.4 381.490951 
L 360.5625 374.938539 
L 361.725 374.938539 
L 362.8875 378.112297 
L 366.375 378.112297 
L 368.7 371.946241 
L 373.35 371.946241 
L 375.675 366.430516 
L 376.8375 359.113843 
L 378 356.885806 
L 390.7875 356.885806 
L 391.95 350.71975 
L 393.1125 356.885806 
L 398.925 356.885806 
L 401.25 366.430516 
L 408.225 366.430516 
L 409.3875 363.876304 
L 415.2 363.876304 
L 416.3625 359.113843 
L 418.6875 354.748735 
L 419.85 346.978804 
L 422.175 346.978804 
L 423.3375 354.748735 
L 424.5 345.204025 
L 425.6625 345.204025 
L 426.825 337.134088 
L 427.9875 345.204025 
L 430.3125 345.204025 
L 431.475 361.440936 
L 432.6375 381.490951 
L 433.8 381.490951 
L 434.9625 397.727862 
L 436.125 402.717442 
L 443.1 402.717442 
L 444.2625 408.233167 
L 450.075 408.233167 
L 451.2375 397.727862 
L 454.725 397.727862 
L 455.8875 414.399223 
L 457.05 439.004368 
L 459.375 439.004368 
L 460.5375 414.399223 
L 462.8625 414.399223 
L 464.025 429.459658 
L 465.1875 439.004368 
L 467.5125 439.004368 
L 468.675 429.459658 
L 471 429.459658 
L 472.1625 421.38972 
L 473.325 421.38972 
L 474.4875 439.004368 
L 475.65 450.686149 
L 476.8125 450.686149 
L 477.975 465.746583 
L 479.1375 465.746583 
L 480.3 486.973074 
L 481.4625 486.973074 
L 482.625 523.26 
L 486.1125 523.26 
L 487.275 486.973074 
L 491.925 486.973074 
L 493.0875 523.26 
L 497.7375 523.26 
L 498.9 486.973074 
L 500.0625 523.26 
L 501.225 523.26 
L 502.3875 486.973074 
L 503.55 523.26 
L 508.2 523.26 
L 509.3625 486.973074 
L 519.825 486.973074 
L 520.9875 523.26 
L 531.45 523.26 
L 532.6125 486.973074 
L 544.2375 486.973074 
L 545.4 523.26 
L 545.400866 613 
M 565.161634 613 
L 565.1625 523.26 
L 566.325 486.973074 
L 576.7875 486.973074 
L 577.95 523.26 
L 577.950866 613 
L 577.950866 613 
" style="fill:none;stroke:#ff7f0e;stroke-linecap:square;stroke-width:1.5;"/>
   </g>
   <g id="patch_3">
    <path d="M 99 544.68 
L 99 73.44 
" style="fill:none;stroke:#000000;stroke-linecap:square;stroke-linejoin:miter;stroke-width:0.8;"/>
   </g>
   <g id="patch_4">
    <path d="M 712.8 544.68 
L 712.8 73.44 
" style="fill:none;stroke:#000000;stroke-linecap:square;stroke-linejoin:miter;stroke-width:0.8;"/>
   </g>
   <g id="patch_5">
    <path d="M 99 544.68 
L 712.8 544.68 
" style="fill:none;stroke:#000000;stroke-linecap:square;stroke-linejoin:miter;stroke-width:0.8;"/>
   </g>
   <g id="patch_6">
    <path d="M 99 73.44 
L 712.8 73.44 
" style="fill:none;stroke:#000000;stroke-linecap:square;stroke-linejoin:miter;stroke-width:0.8;"/>
   </g>
   <g id="legend_1">
    <g id="patch_7">
     <path d="M 616.653125 110.79625 
L 705.8 110.79625 
Q 707.8 110.79625 707.8 108.79625 
L 707.8 80.44 
Q 707.8 78.44 705.8 78.44 
L 616.653125 78.44 
Q 614.653125 78.44 614.653125 80.44 
L 614.653125 108.79625 
Q 614.653125 110.79625 616.653125 110.79625 
z
" style="fill:#ffffff;opacity:0.8;stroke:#cccccc;stroke-linejoin:miter;"/>
    </g>
    <g id="line2d_100">
     <path d="M 618.653125 86.538437 
L 638.653125 86.538437 
" style="fill:none;stroke:#1f77b4;stroke-linecap:square;stroke-width:1.5;"/>
    </g>
    <g id="line2d_101"/>
    <g id="text_12">
     <!-- Avg Cases -->
     <g transform="translate(646.653125 90.038437)scale(0.1 -0.1)">
      <defs>
       <path d="M 191 3500 
L 800 3500 
L 1894 563 
L 2988 3500 
L 3597 3500 
L 2284 0 
L 1503 0 
L 191 3500 
z
" id="DejaVuSans-76" transform="scale(0.015625)"/>
       <path d="M 2906 1791 
Q 2906 2416 2648 2759 
Q 2391 3103 1925 3103 
Q 1463 3103 1205 2759 
Q 947 2416 947 1791 
Q 947 1169 1205 825 
Q 1463 481 1925 481 
Q 2391 481 2648 825 
Q 2906 1169 2906 1791 
z
M 3481 434 
Q 3481 -459 3084 -895 
Q 2688 -1331 1869 -1331 
Q 1566 -1331 1297 -1286 
Q 1028 -1241 775 -1147 
L 775 -588 
Q 1028 -725 1275 -790 
Q 1522 -856 1778 -856 
Q 2344 -856 2625 -561 
Q 2906 -266 2906 331 
L 2906 616 
Q 2728 306 2450 153 
Q 2172 0 1784 0 
Q 1141 0 747 490 
Q 353 981 353 1791 
Q 353 2603 747 3093 
Q 1141 3584 1784 3584 
Q 2172 3584 2450 3431 
Q 2728 3278 2906 2969 
L 2906 3500 
L 3481 3500 
L 3481 434 
z
" id="DejaVuSans-67" transform="scale(0.015625)"/>
       <path id="DejaVuSans-20" transform="scale(0.015625)"/>
       <path d="M 4122 4306 
L 4122 3641 
Q 3803 3938 3442 4084 
Q 3081 4231 2675 4231 
Q 1875 4231 1450 3742 
Q 1025 3253 1025 2328 
Q 1025 1406 1450 917 
Q 1875 428 2675 428 
Q 3081 428 3442 575 
Q 3803 722 4122 1019 
L 4122 359 
Q 3791 134 3420 21 
Q 3050 -91 2638 -91 
Q 1578 -91 968 557 
Q 359 1206 359 2328 
Q 359 3453 968 4101 
Q 1578 4750 2638 4750 
Q 3056 4750 3426 4639 
Q 3797 4528 4122 4306 
z
" id="DejaVuSans-43" transform="scale(0.015625)"/>
       <path d="M 2834 3397 
L 2834 2853 
Q 2591 2978 2328 3040 
Q 2066 3103 1784 3103 
Q 1356 3103 1142 2972 
Q 928 2841 928 2578 
Q 928 2378 1081 2264 
Q 1234 2150 1697 2047 
L 1894 2003 
Q 2506 1872 2764 1633 
Q 3022 1394 3022 966 
Q 3022 478 2636 193 
Q 2250 -91 1575 -91 
Q 1294 -91 989 -36 
Q 684 19 347 128 
L 347 722 
Q 666 556 975 473 
Q 1284 391 1588 391 
Q 1994 391 2212 530 
Q 2431 669 2431 922 
Q 2431 1156 2273 1281 
Q 2116 1406 1581 1522 
L 1381 1569 
Q 847 1681 609 1914 
Q 372 2147 372 2553 
Q 372 3047 722 3315 
Q 1072 3584 1716 3584 
Q 2034 3584 2315 3537 
Q 2597 3491 2834 3397 
z
" id="DejaVuSans-73" transform="scale(0.015625)"/>
      </defs>
      <use xlink:href="#DejaVuSans-41"/>
      <use x="62.533203" xlink:href="#DejaVuSans-76"/>
      <use x="121.712891" xlink:href="#DejaVuSans-67"/>
      <use x="185.189453" xlink:href="#DejaVuSans-20"/>
      <use x="216.976562" xlink:href="#DejaVuSans-43"/>
      <use x="286.800781" xlink:href="#DejaVuSans-61"/>
      <use x="348.080078" xlink:href="#DejaVuSans-73"/>
      <use x="400.179688" xlink:href="#DejaVuSans-65"/>
      <use x="461.703125" xlink:href="#DejaVuSans-73"/>
     </g>
    </g>
    <g id="line2d_102">
     <path d="M 618.653125 101.216562 
L 638.653125 101.216562 
" style="fill:none;stroke:#ff7f0e;stroke-linecap:square;stroke-width:1.5;"/>
    </g>
    <g id="line2d_103"/>
    <g id="text_13">
     <!-- Avg Deaths -->
     <g transform="translate(646.653125 104.716562)scale(0.1 -0.1)">
      <defs>
       <path d="M 3513 2113 
L 3513 0 
L 2938 0 
L 2938 2094 
Q 2938 2591 2744 2837 
Q 2550 3084 2163 3084 
Q 1697 3084 1428 2787 
Q 1159 2491 1159 1978 
L 1159 0 
L 581 0 
L 581 4863 
L 1159 4863 
L 1159 2956 
Q 1366 3272 1645 3428 
Q 1925 3584 2291 3584 
Q 2894 3584 3203 3211 
Q 3513 2838 3513 2113 
z
" id="DejaVuSans-68" transform="scale(0.015625)"/>
      </defs>
      <use xlink:href="#DejaVuSans-41"/>
      <use x="62.533203" xlink:href="#DejaVuSans-76"/>
      <use x="121.712891" xlink:href="#DejaVuSans-67"/>
      <use x="185.189453" xlink:href="#DejaVuSans-20"/>
      <use x="216.976562" xlink:href="#DejaVuSans-44"/>
      <use x="293.978516" xlink:href="#DejaVuSans-65"/>
      <use x="355.501953" xlink:href="#DejaVuSans-61"/>
      <use x="416.78125" xlink:href="#DejaVuSans-74"/>
      <use x="455.990234" xlink:href="#DejaVuSans-68"/>
      <use x="519.369141" xlink:href="#DejaVuSans-73"/>
     </g>
    </g>
   </g>
  </g>
 </g>
 <defs>
  <clipPath id="p68e2955192">
   <rect height="471.24" width="613.8" x="99" y="73.44"/>
  </clipPath>
 </defs>
</svg>
