<?xml version="1.0" encoding="utf-8" standalone="no"?>
<!DOCTYPE svg PUBLIC "-//W3C//DTD SVG 1.1//EN"
  "http://www.w3.org/Graphics/SVG/1.1/DTD/svg11.dtd">
<svg height="612pt" version="1.1" viewBox="0 0 792 612" width="792pt" xmlns="http://www.w3.org/2000/svg" xmlns:xlink="http://www.w3.org/1999/xlink">
 <metadata>
  <rdf:RDF xmlns:cc="http://creativecommons.org/ns#" xmlns:dc="http://purl.org/dc/elements/1.1/" xmlns:rdf="http://www.w3.org/1999/02/22-rdf-syntax-ns#">
   <cc:Work>
    <dc:type rdf:resource="http://purl.org/dc/dcmitype/StillImage"/>
    <dc:format>image/svg+xml</dc:format>
    <dc:creator>
     <cc:Agent>
      <dc:title>Matplotlib v3.4.2, https://matplotlib.org/</dc:title>
     </cc:Agent>
    </dc:creator>
   </cc:Work>
  </rdf:RDF>
 </metadata>
 <defs>
  <style type="text/css">*{stroke-linecap:butt;stroke-linejoin:round;}</style>
 </defs>
 <g id="figure_1">
  <g id="patch_1">
   <path d="M 0 612 
L 792 612 
L 792 0 
L 0 0 
z
" style="fill:#ffffff;"/>
  </g>
  <g id="axes_1">
   <g id="patch_2">
    <path d="M 99 544.68 
L 712.8 544.68 
L 712.8 73.44 
L 99 73.44 
z
" style="fill:#ffffff;"/>
   </g>
   <g id="PolyCollection_1">
    <path clip-path="url(#p68e2955192)" d="M 99 414942.840038 
L 99 414942.840038 
L 100.101975 414942.840038 
L 101.20395 414942.840038 
L 102.305925 414942.840038 
L 103.407899 414942.840038 
L 104.509874 414942.840038 
L 105.611849 414942.840038 
L 106.713824 414942.840038 
L 107.815799 414942.840038 
L 108.917774 414942.840038 
L 110.019749 414942.840038 
L 111.121724 414942.840038 
L 112.223698 414942.840038 
L 113.325673 219.65029 
L 114.427648 219.65029 
L 115.529623 219.65029 
L 116.631598 219.65029 
L 117.733573 219.65029 
L 118.835548 273.67942 
L 119.937522 337.893155 
L 121.039497 302.938407 
L 122.141472 302.938407 
L 123.243447 302.938407 
L 124.345422 302.938407 
L 125.447397 302.938407 
L 126.549372 462.683445 
L 127.651346 462.683445 
L 128.753321 462.683445 
L 129.855296 462.683445 
L 130.957271 462.683445 
L 132.059246 462.683445 
L 133.161221 414942.840038 
L 134.263196 414942.840038 
L 135.365171 414942.840038 
L 136.467145 414942.840038 
L 137.56912 414942.840038 
L 138.671095 414942.840038 
L 139.77307 414942.840038 
L 140.875045 414942.840038 
L 141.97702 414942.840038 
L 143.078995 414942.840038 
L 144.180969 414942.840038 
L 145.282944 462.683445 
L 146.384919 462.683445 
L 147.486894 398.46971 
L 148.588869 398.46971 
L 149.690844 398.46971 
L 150.792819 398.46971 
L 151.894794 398.46971 
L 152.996768 302.938407 
L 154.098743 302.938407 
L 155.200718 302.938407 
L 156.302693 302.938407 
L 157.404668 302.938407 
L 158.506643 302.938407 
L 159.608618 302.938407 
L 160.710592 302.938407 
L 161.812567 302.938407 
L 162.914542 462.683445 
L 164.016517 462.683445 
L 165.118492 462.683445 
L 166.220467 462.683445 
L 167.322442 462.683445 
L 168.424417 414942.840038 
L 169.526391 414942.840038 
L 170.628366 414942.840038 
L 171.730341 462.683445 
L 172.832316 398.46971 
L 173.934291 398.46971 
L 175.036266 398.46971 
L 176.138241 398.46971 
L 177.240215 398.46971 
L 178.34219 398.46971 
L 179.444165 302.938407 
L 180.54614 302.938407 
L 181.648115 302.938407 
L 182.75009 302.938407 
L 183.852065 302.938407 
L 184.954039 302.938407 
L 186.056014 302.938407 
L 187.157989 302.938407 
L 188.259964 302.938407 
L 189.361939 398.46971 
L 190.463914 398.46971 
L 191.565889 398.46971 
L 192.667864 462.683445 
L 193.769838 414942.840038 
L 194.871813 414942.840038 
L 195.973788 414942.840038 
L 197.075763 414942.840038 
L 198.177738 414942.840038 
L 199.279713 414942.840038 
L 200.381688 414942.840038 
L 201.483662 414942.840038 
L 202.585637 414942.840038 
L 203.687612 414942.840038 
L 204.789587 414942.840038 
L 205.891562 414942.840038 
L 206.993537 414942.840038 
L 208.095512 414942.840038 
L 209.197487 414942.840038 
L 210.299461 414942.840038 
L 211.401436 414942.840038 
L 212.503411 414942.840038 
L 213.605386 414942.840038 
L 214.707361 462.683445 
L 215.809336 462.683445 
L 216.911311 462.683445 
L 218.013285 302.938407 
L 219.11526 302.938407 
L 220.217235 302.938407 
L 221.31921 302.938407 
L 222.421185 302.938407 
L 223.52316 302.938407 
L 224.625135 302.938407 
L 225.72711 302.938407 
L 226.829084 302.938407 
L 227.931059 302.938407 
L 229.033034 302.938407 
L 230.135009 302.938407 
L 231.236984 302.938407 
L 232.338959 302.938407 
L 233.440934 398.46971 
L 234.542908 398.46971 
L 235.644883 302.938407 
L 236.746858 302.938407 
L 237.848833 273.67942 
L 238.950808 273.67942 
L 240.052783 273.67942 
L 241.154758 273.67942 
L 242.256732 273.67942 
L 243.358707 273.67942 
L 244.460682 273.67942 
L 245.562657 302.938407 
L 246.664632 302.938407 
L 247.766607 302.938407 
L 248.868582 302.938407 
L 249.970557 302.938407 
L 251.072531 398.46971 
L 252.174506 398.46971 
L 253.276481 398.46971 
L 254.378456 398.46971 
L 255.480431 398.46971 
L 256.582406 398.46971 
L 257.684381 398.46971 
L 258.786355 398.46971 
L 259.88833 398.46971 
L 260.990305 398.46971 
L 262.09228 398.46971 
L 263.194255 398.46971 
L 264.29623 398.46971 
L 265.398205 398.46971 
L 266.50018 398.46971 
L 267.602154 462.683445 
L 268.704129 302.938407 
L 269.806104 302.938407 
L 270.908079 462.683445 
L 272.010054 462.683445 
L 273.112029 462.683445 
L 274.214004 462.683445 
L 275.315978 462.683445 
L 276.417953 398.46971 
L 277.519928 398.46971 
L 278.621903 398.46971 
L 279.723878 398.46971 
L 280.825853 398.46971 
L 281.927828 398.46971 
L 283.029803 398.46971 
L 284.131777 398.46971 
L 285.233752 398.46971 
L 286.335727 398.46971 
L 287.437702 398.46971 
L 288.539677 398.46971 
L 289.641652 398.46971 
L 290.743627 398.46971 
L 291.845601 398.46971 
L 292.947576 398.46971 
L 294.049551 398.46971 
L 295.151526 398.46971 
L 296.253501 398.46971 
L 297.355476 398.46971 
L 298.457451 398.46971 
L 299.559425 398.46971 
L 300.6614 398.46971 
L 301.763375 398.46971 
L 302.86535 398.46971 
L 303.967325 398.46971 
L 305.0693 398.46971 
L 306.171275 398.46971 
L 307.27325 462.683445 
L 308.375224 398.46971 
L 309.477199 302.938407 
L 310.579174 302.938407 
L 311.681149 302.938407 
L 312.783124 302.938407 
L 313.885099 302.938407 
L 314.987074 273.67942 
L 316.089048 273.67942 
L 317.191023 273.67942 
L 318.292998 273.67942 
L 319.394973 273.67942 
L 320.496948 219.65029 
L 321.598923 219.65029 
L 322.700898 200.68178 
L 323.802873 219.65029 
L 324.904847 219.65029 
L 326.006822 219.65029 
L 327.108797 219.65029 
L 328.210772 219.65029 
L 329.312747 219.65029 
L 330.414722 219.65029 
L 331.516697 219.65029 
L 332.618671 162.924884 
L 333.720646 162.924884 
L 334.822621 162.924884 
L 335.924596 178.148117 
L 337.026571 178.148117 
L 338.128546 337.893155 
L 339.230521 178.148117 
L 340.332496 178.148117 
L 341.43447 213.102865 
L 342.536445 213.102865 
L 343.63842 213.102865 
L 344.740395 178.148117 
L 345.84237 178.148117 
L 346.944345 178.148117 
L 348.04632 273.67942 
L 349.148294 273.67942 
L 350.250269 273.67942 
L 351.352244 273.67942 
L 352.454219 273.67942 
L 353.556194 273.67942 
L 354.658169 337.893155 
L 355.760144 273.67942 
L 356.862118 273.67942 
L 357.964093 273.67942 
L 359.066068 273.67942 
L 360.168043 302.938407 
L 361.270018 302.938407 
L 362.371993 302.938407 
L 363.473968 398.46971 
L 364.575943 398.46971 
L 365.677917 398.46971 
L 366.779892 398.46971 
L 367.881867 398.46971 
L 368.983842 398.46971 
L 370.085817 398.46971 
L 371.187792 398.46971 
L 372.289767 462.683445 
L 373.391741 462.683445 
L 374.493716 462.683445 
L 375.595691 462.683445 
L 376.697666 462.683445 
L 377.799641 414942.840038 
L 378.901616 337.893155 
L 380.003591 273.67942 
L 381.105566 273.67942 
L 382.20754 273.67942 
L 383.309515 273.67942 
L 384.41149 273.67942 
L 385.513465 273.67942 
L 386.61544 273.67942 
L 387.717415 273.67942 
L 388.81939 273.67942 
L 389.921364 273.67942 
L 391.023339 273.67942 
L 392.125314 273.67942 
L 393.227289 273.67942 
L 394.329264 273.67942 
L 395.431239 302.938407 
L 396.533214 302.938407 
L 397.635189 302.938407 
L 398.737163 302.938407 
L 399.839138 273.67942 
L 400.941113 273.67942 
L 402.043088 273.67942 
L 403.145063 273.67942 
L 404.247038 273.67942 
L 405.349013 273.67942 
L 406.450987 302.938407 
L 407.552962 302.938407 
L 408.654937 302.938407 
L 409.756912 337.893155 
L 410.858887 337.893155 
L 411.960862 337.893155 
L 413.062837 302.938407 
L 414.164811 302.938407 
L 415.266786 462.683445 
L 416.368761 462.683445 
L 417.470736 462.683445 
L 418.572711 302.938407 
L 419.674686 302.938407 
L 420.776661 302.938407 
L 421.878636 302.938407 
L 422.98061 302.938407 
L 424.082585 302.938407 
L 425.18456 302.938407 
L 426.286535 302.938407 
L 427.38851 398.46971 
L 428.490485 462.683445 
L 429.59246 462.683445 
L 430.694434 462.683445 
L 431.796409 462.683445 
L 432.898384 462.683445 
L 434.000359 462.683445 
L 435.102334 462.683445 
L 436.204309 462.683445 
L 437.306284 462.683445 
L 438.408259 462.683445 
L 439.510233 462.683445 
L 440.612208 462.683445 
L 441.714183 337.893155 
L 442.816158 337.893155 
L 443.918133 337.893155 
L 445.020108 337.893155 
L 446.122083 337.893155 
L 447.224057 337.893155 
L 448.326032 337.893155 
L 449.428007 414942.840038 
L 450.529982 414942.840038 
L 451.631957 414942.840038 
L 452.733932 462.683445 
L 453.835907 462.683445 
L 454.937882 462.683445 
L 456.039856 462.683445 
L 457.141831 414942.840038 
L 458.243806 462.683445 
L 459.345781 462.683445 
L 460.447756 462.683445 
L 461.549731 462.683445 
L 462.651706 398.46971 
L 463.75368 398.46971 
L 464.855655 398.46971 
L 465.95763 398.46971 
L 467.059605 398.46971 
L 468.16158 462.683445 
L 469.263555 462.683445 
L 470.36553 462.683445 
L 471.467504 462.683445 
L 472.569479 462.683445 
L 473.671454 462.683445 
L 474.773429 462.683445 
L 475.875404 462.683445 
L 476.977379 462.683445 
L 478.079354 414942.840038 
L 479.181329 462.683445 
L 480.283303 462.683445 
L 481.385278 462.683445 
L 482.487253 462.683445 
L 483.589228 462.683445 
L 484.691203 398.46971 
L 485.793178 302.938407 
L 486.895153 302.938407 
L 487.997127 302.938407 
L 489.099102 219.65029 
L 490.201077 219.65029 
L 491.303052 219.65029 
L 492.405027 219.65029 
L 493.507002 219.65029 
L 494.608977 240.85528 
L 495.710952 240.85528 
L 496.812926 240.85528 
L 497.914901 240.85528 
L 499.016876 240.85528 
L 500.118851 240.85528 
L 501.220826 398.46971 
L 502.322801 398.46971 
L 503.424776 398.46971 
L 504.52675 462.683445 
L 505.628725 462.683445 
L 506.7307 462.683445 
L 507.832675 462.683445 
L 508.93465 462.683445 
L 510.036625 462.683445 
L 511.1386 414942.840038 
L 512.240575 462.683445 
L 513.342549 414942.840038 
L 514.444524 414942.840038 
L 515.546499 414942.840038 
L 516.648474 414942.840038 
L 517.750449 414942.840038 
L 518.852424 414942.840038 
L 519.954399 414942.840038 
L 521.056373 462.683445 
L 522.158348 398.46971 
L 523.260323 398.46971 
L 524.362298 398.46971 
L 525.464273 398.46971 
L 526.566248 398.46971 
L 527.668223 462.683445 
L 528.770197 462.683445 
L 529.872172 462.683445 
L 530.974147 398.46971 
L 532.076122 398.46971 
L 533.178097 398.46971 
L 534.280072 398.46971 
L 535.382047 398.46971 
L 536.484022 462.683445 
L 537.585996 414942.840038 
L 538.687971 337.893155 
L 539.789946 337.893155 
L 540.891921 337.893155 
L 541.993896 337.893155 
L 543.095871 337.893155 
L 544.197846 337.893155 
L 545.29982 302.938407 
L 546.401795 462.683445 
L 547.50377 462.683445 
L 548.605745 398.46971 
L 549.70772 398.46971 
L 550.809695 398.46971 
L 551.91167 398.46971 
L 553.013645 398.46971 
L 554.115619 398.46971 
L 555.217594 398.46971 
L 556.319569 398.46971 
L 557.421544 302.938407 
L 558.523519 302.938407 
L 559.625494 273.67942 
L 560.727469 273.67942 
L 561.829443 273.67942 
L 562.931418 273.67942 
L 564.033393 273.67942 
L 565.135368 273.67942 
L 566.237343 273.67942 
L 567.339318 273.67942 
L 568.441293 273.67942 
L 569.543268 273.67942 
L 570.645242 273.67942 
L 571.747217 273.67942 
L 572.849192 273.67942 
L 573.951167 273.67942 
L 575.053142 337.893155 
L 576.155117 337.893155 
L 577.257092 414942.840038 
L 578.359066 414942.840038 
L 579.461041 414942.840038 
L 580.563016 414942.840038 
L 581.664991 414942.840038 
L 582.766966 414942.840038 
L 583.868941 414942.840038 
L 584.970916 414942.840038 
L 586.07289 414942.840038 
L 587.174865 414942.840038 
L 588.27684 414942.840038 
L 589.378815 414942.840038 
L 590.48079 414942.840038 
L 591.582765 414942.840038 
L 592.68474 414942.840038 
L 593.786715 414942.840038 
L 594.888689 414942.840038 
L 595.990664 414942.840038 
L 597.092639 414942.840038 
L 598.194614 414942.840038 
L 599.296589 414942.840038 
L 600.398564 414942.840038 
L 601.500539 414942.840038 
L 602.602513 414942.840038 
L 603.704488 414942.840038 
L 604.806463 414942.840038 
L 605.908438 414942.840038 
L 607.010413 414942.840038 
L 608.112388 414942.840038 
L 609.214363 414942.840038 
L 610.316338 414942.840038 
L 611.418312 414942.840038 
L 612.520287 462.683445 
L 613.622262 462.683445 
L 614.724237 462.683445 
L 615.826212 462.683445 
L 616.928187 462.683445 
L 618.030162 462.683445 
L 619.132136 398.46971 
L 620.234111 398.46971 
L 621.336086 398.46971 
L 622.438061 398.46971 
L 623.540036 398.46971 
L 624.642011 398.46971 
L 625.743986 398.46971 
L 626.845961 398.46971 
L 627.947935 462.683445 
L 629.04991 462.683445 
L 630.151885 462.683445 
L 631.25386 462.683445 
L 632.355835 302.938407 
L 633.45781 302.938407 
L 634.559785 462.683445 
L 635.661759 462.683445 
L 636.763734 462.683445 
L 637.865709 462.683445 
L 638.967684 302.938407 
L 640.069659 302.938407 
L 641.171634 273.67942 
L 642.273609 273.67942 
L 643.375583 273.67942 
L 644.477558 273.67942 
L 645.579533 116.06499 
L 646.681508 116.06499 
L 647.783483 116.06499 
L 648.885458 94.86 
L 649.987433 94.86 
L 651.089408 94.86 
L 652.191382 94.86 
L 653.293357 94.86 
L 654.395332 162.924884 
L 655.497307 162.924884 
L 656.599282 119.855327 
L 657.701257 119.855327 
L 658.803232 119.855327 
L 659.905206 119.855327 
L 661.007181 148.88913 
L 662.109156 148.88913 
L 663.211131 148.88913 
L 664.313106 162.924884 
L 665.415081 162.924884 
L 666.517056 148.88913 
L 667.619031 148.88913 
L 668.721005 148.88913 
L 669.82298 148.88913 
L 670.924955 148.88913 
L 672.02693 148.88913 
L 673.128905 148.88913 
L 674.23088 148.88913 
L 675.332855 178.148117 
L 676.434829 178.148117 
L 677.536804 178.148117 
L 678.638779 178.148117 
L 679.740754 119.855327 
L 680.842729 119.855327 
L 681.944704 144.443612 
L 683.046679 144.443612 
L 684.148654 144.443612 
L 685.250628 144.443612 
L 686.352603 144.443612 
L 687.454578 273.67942 
L 688.556553 178.148117 
L 689.658528 178.148117 
L 690.760503 178.148117 
L 691.862478 178.148117 
L 692.964452 178.148117 
L 694.066427 178.148117 
L 695.168402 178.148117 
L 696.270377 178.148117 
L 697.372352 178.148117 
L 698.474327 178.148117 
L 699.576302 178.148117 
L 700.678276 178.148117 
L 701.780251 178.148117 
L 702.882226 178.148117 
L 703.984201 273.67942 
L 705.086176 273.67942 
L 706.188151 273.67942 
L 707.290126 273.67942 
L 708.392101 273.67942 
L 709.494075 273.67942 
L 710.59605 273.67942 
L 711.698025 302.938407 
L 712.8 302.938407 
L 712.8 414942.840038 
L 712.8 414942.840038 
L 711.698025 414942.840038 
L 710.59605 414942.840038 
L 709.494075 414942.840038 
L 708.392101 414942.840038 
L 707.290126 414942.840038 
L 706.188151 414942.840038 
L 705.086176 414942.840038 
L 703.984201 414942.840038 
L 702.882226 414942.840038 
L 701.780251 414942.840038 
L 700.678276 414942.840038 
L 699.576302 414942.840038 
L 698.474327 414942.840038 
L 697.372352 414942.840038 
L 696.270377 414942.840038 
L 695.168402 414942.840038 
L 694.066427 414942.840038 
L 692.964452 414942.840038 
L 691.862478 414942.840038 
L 690.760503 414942.840038 
L 689.658528 414942.840038 
L 688.556553 414942.840038 
L 687.454578 414942.840038 
L 686.352603 414942.840038 
L 685.250628 414942.840038 
L 684.148654 414942.840038 
L 683.046679 414942.840038 
L 681.944704 414942.840038 
L 680.842729 414942.840038 
L 679.740754 414942.840038 
L 678.638779 414942.840038 
L 677.536804 414942.840038 
L 676.434829 414942.840038 
L 675.332855 414942.840038 
L 674.23088 414942.840038 
L 673.128905 414942.840038 
L 672.02693 414942.840038 
L 670.924955 414942.840038 
L 669.82298 414942.840038 
L 668.721005 414942.840038 
L 667.619031 414942.840038 
L 666.517056 414942.840038 
L 665.415081 414942.840038 
L 664.313106 414942.840038 
L 663.211131 414942.840038 
L 662.109156 414942.840038 
L 661.007181 414942.840038 
L 659.905206 414942.840038 
L 658.803232 414942.840038 
L 657.701257 414942.840038 
L 656.599282 414942.840038 
L 655.497307 414942.840038 
L 654.395332 414942.840038 
L 653.293357 414942.840038 
L 652.191382 414942.840038 
L 651.089408 414942.840038 
L 649.987433 414942.840038 
L 648.885458 414942.840038 
L 647.783483 414942.840038 
L 646.681508 414942.840038 
L 645.579533 414942.840038 
L 644.477558 414942.840038 
L 643.375583 414942.840038 
L 642.273609 414942.840038 
L 641.171634 414942.840038 
L 640.069659 414942.840038 
L 638.967684 414942.840038 
L 637.865709 414942.840038 
L 636.763734 414942.840038 
L 635.661759 414942.840038 
L 634.559785 414942.840038 
L 633.45781 414942.840038 
L 632.355835 414942.840038 
L 631.25386 414942.840038 
L 630.151885 414942.840038 
L 629.04991 414942.840038 
L 627.947935 414942.840038 
L 626.845961 414942.840038 
L 625.743986 414942.840038 
L 624.642011 414942.840038 
L 623.540036 414942.840038 
L 622.438061 414942.840038 
L 621.336086 414942.840038 
L 620.234111 414942.840038 
L 619.132136 414942.840038 
L 618.030162 414942.840038 
L 616.928187 414942.840038 
L 615.826212 414942.840038 
L 614.724237 414942.840038 
L 613.622262 414942.840038 
L 612.520287 414942.840038 
L 611.418312 414942.840038 
L 610.316338 414942.840038 
L 609.214363 414942.840038 
L 608.112388 414942.840038 
L 607.010413 414942.840038 
L 605.908438 414942.840038 
L 604.806463 414942.840038 
L 603.704488 414942.840038 
L 602.602513 414942.840038 
L 601.500539 414942.840038 
L 600.398564 414942.840038 
L 599.296589 414942.840038 
L 598.194614 414942.840038 
L 597.092639 414942.840038 
L 595.990664 414942.840038 
L 594.888689 414942.840038 
L 593.786715 414942.840038 
L 592.68474 414942.840038 
L 591.582765 414942.840038 
L 590.48079 414942.840038 
L 589.378815 414942.840038 
L 588.27684 414942.840038 
L 587.174865 414942.840038 
L 586.07289 414942.840038 
L 584.970916 414942.840038 
L 583.868941 414942.840038 
L 582.766966 414942.840038 
L 581.664991 414942.840038 
L 580.563016 414942.840038 
L 579.461041 414942.840038 
L 578.359066 414942.840038 
L 577.257092 414942.840038 
L 576.155117 414942.840038 
L 575.053142 414942.840038 
L 573.951167 414942.840038 
L 572.849192 414942.840038 
L 571.747217 414942.840038 
L 570.645242 414942.840038 
L 569.543268 414942.840038 
L 568.441293 414942.840038 
L 567.339318 414942.840038 
L 566.237343 414942.840038 
L 565.135368 414942.840038 
L 564.033393 414942.840038 
L 562.931418 414942.840038 
L 561.829443 414942.840038 
L 560.727469 414942.840038 
L 559.625494 414942.840038 
L 558.523519 414942.840038 
L 557.421544 414942.840038 
L 556.319569 414942.840038 
L 555.217594 414942.840038 
L 554.115619 414942.840038 
L 553.013645 414942.840038 
L 551.91167 414942.840038 
L 550.809695 414942.840038 
L 549.70772 414942.840038 
L 548.605745 414942.840038 
L 547.50377 414942.840038 
L 546.401795 414942.840038 
L 545.29982 414942.840038 
L 544.197846 414942.840038 
L 543.095871 414942.840038 
L 541.993896 414942.840038 
L 540.891921 414942.840038 
L 539.789946 414942.840038 
L 538.687971 414942.840038 
L 537.585996 414942.840038 
L 536.484022 414942.840038 
L 535.382047 414942.840038 
L 534.280072 414942.840038 
L 533.178097 414942.840038 
L 532.076122 414942.840038 
L 530.974147 414942.840038 
L 529.872172 414942.840038 
L 528.770197 414942.840038 
L 527.668223 414942.840038 
L 526.566248 414942.840038 
L 525.464273 414942.840038 
L 524.362298 414942.840038 
L 523.260323 414942.840038 
L 522.158348 414942.840038 
L 521.056373 414942.840038 
L 519.954399 414942.840038 
L 518.852424 414942.840038 
L 517.750449 414942.840038 
L 516.648474 414942.840038 
L 515.546499 414942.840038 
L 514.444524 414942.840038 
L 513.342549 414942.840038 
L 512.240575 414942.840038 
L 511.1386 414942.840038 
L 510.036625 414942.840038 
L 508.93465 414942.840038 
L 507.832675 414942.840038 
L 506.7307 414942.840038 
L 505.628725 414942.840038 
L 504.52675 414942.840038 
L 503.424776 414942.840038 
L 502.322801 414942.840038 
L 501.220826 414942.840038 
L 500.118851 414942.840038 
L 499.016876 414942.840038 
L 497.914901 414942.840038 
L 496.812926 414942.840038 
L 495.710952 414942.840038 
L 494.608977 414942.840038 
L 493.507002 414942.840038 
L 492.405027 414942.840038 
L 491.303052 414942.840038 
L 490.201077 414942.840038 
L 489.099102 414942.840038 
L 487.997127 414942.840038 
L 486.895153 414942.840038 
L 485.793178 414942.840038 
L 484.691203 414942.840038 
L 483.589228 414942.840038 
L 482.487253 414942.840038 
L 481.385278 414942.840038 
L 480.283303 414942.840038 
L 479.181329 414942.840038 
L 478.079354 414942.840038 
L 476.977379 414942.840038 
L 475.875404 414942.840038 
L 474.773429 414942.840038 
L 473.671454 414942.840038 
L 472.569479 414942.840038 
L 471.467504 414942.840038 
L 470.36553 414942.840038 
L 469.263555 414942.840038 
L 468.16158 414942.840038 
L 467.059605 414942.840038 
L 465.95763 414942.840038 
L 464.855655 414942.840038 
L 463.75368 414942.840038 
L 462.651706 414942.840038 
L 461.549731 414942.840038 
L 460.447756 414942.840038 
L 459.345781 414942.840038 
L 458.243806 414942.840038 
L 457.141831 414942.840038 
L 456.039856 414942.840038 
L 454.937882 414942.840038 
L 453.835907 414942.840038 
L 452.733932 414942.840038 
L 451.631957 414942.840038 
L 450.529982 414942.840038 
L 449.428007 414942.840038 
L 448.326032 414942.840038 
L 447.224057 414942.840038 
L 446.122083 414942.840038 
L 445.020108 414942.840038 
L 443.918133 414942.840038 
L 442.816158 414942.840038 
L 441.714183 414942.840038 
L 440.612208 414942.840038 
L 439.510233 414942.840038 
L 438.408259 414942.840038 
L 437.306284 414942.840038 
L 436.204309 414942.840038 
L 435.102334 414942.840038 
L 434.000359 414942.840038 
L 432.898384 414942.840038 
L 431.796409 414942.840038 
L 430.694434 414942.840038 
L 429.59246 414942.840038 
L 428.490485 414942.840038 
L 427.38851 414942.840038 
L 426.286535 414942.840038 
L 425.18456 414942.840038 
L 424.082585 414942.840038 
L 422.98061 414942.840038 
L 421.878636 414942.840038 
L 420.776661 414942.840038 
L 419.674686 414942.840038 
L 418.572711 414942.840038 
L 417.470736 414942.840038 
L 416.368761 414942.840038 
L 415.266786 414942.840038 
L 414.164811 414942.840038 
L 413.062837 414942.840038 
L 411.960862 414942.840038 
L 410.858887 414942.840038 
L 409.756912 414942.840038 
L 408.654937 414942.840038 
L 407.552962 414942.840038 
L 406.450987 414942.840038 
L 405.349013 414942.840038 
L 404.247038 414942.840038 
L 403.145063 414942.840038 
L 402.043088 414942.840038 
L 400.941113 414942.840038 
L 399.839138 414942.840038 
L 398.737163 414942.840038 
L 397.635189 414942.840038 
L 396.533214 414942.840038 
L 395.431239 414942.840038 
L 394.329264 414942.840038 
L 393.227289 414942.840038 
L 392.125314 414942.840038 
L 391.023339 414942.840038 
L 389.921364 414942.840038 
L 388.81939 414942.840038 
L 387.717415 414942.840038 
L 386.61544 414942.840038 
L 385.513465 414942.840038 
L 384.41149 414942.840038 
L 383.309515 414942.840038 
L 382.20754 414942.840038 
L 381.105566 414942.840038 
L 380.003591 414942.840038 
L 378.901616 414942.840038 
L 377.799641 414942.840038 
L 376.697666 414942.840038 
L 375.595691 414942.840038 
L 374.493716 414942.840038 
L 373.391741 414942.840038 
L 372.289767 414942.840038 
L 371.187792 414942.840038 
L 370.085817 414942.840038 
L 368.983842 414942.840038 
L 367.881867 414942.840038 
L 366.779892 414942.840038 
L 365.677917 414942.840038 
L 364.575943 414942.840038 
L 363.473968 414942.840038 
L 362.371993 414942.840038 
L 361.270018 414942.840038 
L 360.168043 414942.840038 
L 359.066068 414942.840038 
L 357.964093 414942.840038 
L 356.862118 414942.840038 
L 355.760144 414942.840038 
L 354.658169 414942.840038 
L 353.556194 414942.840038 
L 352.454219 414942.840038 
L 351.352244 414942.840038 
L 350.250269 414942.840038 
L 349.148294 414942.840038 
L 348.04632 414942.840038 
L 346.944345 414942.840038 
L 345.84237 414942.840038 
L 344.740395 414942.840038 
L 343.63842 414942.840038 
L 342.536445 414942.840038 
L 341.43447 414942.840038 
L 340.332496 414942.840038 
L 339.230521 414942.840038 
L 338.128546 414942.840038 
L 337.026571 414942.840038 
L 335.924596 414942.840038 
L 334.822621 414942.840038 
L 333.720646 414942.840038 
L 332.618671 414942.840038 
L 331.516697 414942.840038 
L 330.414722 414942.840038 
L 329.312747 414942.840038 
L 328.210772 414942.840038 
L 327.108797 414942.840038 
L 326.006822 414942.840038 
L 324.904847 414942.840038 
L 323.802873 414942.840038 
L 322.700898 414942.840038 
L 321.598923 414942.840038 
L 320.496948 414942.840038 
L 319.394973 414942.840038 
L 318.292998 414942.840038 
L 317.191023 414942.840038 
L 316.089048 414942.840038 
L 314.987074 414942.840038 
L 313.885099 414942.840038 
L 312.783124 414942.840038 
L 311.681149 414942.840038 
L 310.579174 414942.840038 
L 309.477199 414942.840038 
L 308.375224 414942.840038 
L 307.27325 414942.840038 
L 306.171275 414942.840038 
L 305.0693 414942.840038 
L 303.967325 414942.840038 
L 302.86535 414942.840038 
L 301.763375 414942.840038 
L 300.6614 414942.840038 
L 299.559425 414942.840038 
L 298.457451 414942.840038 
L 297.355476 414942.840038 
L 296.253501 414942.840038 
L 295.151526 414942.840038 
L 294.049551 414942.840038 
L 292.947576 414942.840038 
L 291.845601 414942.840038 
L 290.743627 414942.840038 
L 289.641652 414942.840038 
L 288.539677 414942.840038 
L 287.437702 414942.840038 
L 286.335727 414942.840038 
L 285.233752 414942.840038 
L 284.131777 414942.840038 
L 283.029803 414942.840038 
L 281.927828 414942.840038 
L 280.825853 414942.840038 
L 279.723878 414942.840038 
L 278.621903 414942.840038 
L 277.519928 414942.840038 
L 276.417953 414942.840038 
L 275.315978 414942.840038 
L 274.214004 414942.840038 
L 273.112029 414942.840038 
L 272.010054 414942.840038 
L 270.908079 414942.840038 
L 269.806104 414942.840038 
L 268.704129 414942.840038 
L 267.602154 414942.840038 
L 266.50018 414942.840038 
L 265.398205 414942.840038 
L 264.29623 414942.840038 
L 263.194255 414942.840038 
L 262.09228 414942.840038 
L 260.990305 414942.840038 
L 259.88833 414942.840038 
L 258.786355 414942.840038 
L 257.684381 414942.840038 
L 256.582406 414942.840038 
L 255.480431 414942.840038 
L 254.378456 414942.840038 
L 253.276481 414942.840038 
L 252.174506 414942.840038 
L 251.072531 414942.840038 
L 249.970557 414942.840038 
L 248.868582 414942.840038 
L 247.766607 414942.840038 
L 246.664632 414942.840038 
L 245.562657 414942.840038 
L 244.460682 414942.840038 
L 243.358707 414942.840038 
L 242.256732 414942.840038 
L 241.154758 414942.840038 
L 240.052783 414942.840038 
L 238.950808 414942.840038 
L 237.848833 414942.840038 
L 236.746858 414942.840038 
L 235.644883 414942.840038 
L 234.542908 414942.840038 
L 233.440934 414942.840038 
L 232.338959 414942.840038 
L 231.236984 414942.840038 
L 230.135009 414942.840038 
L 229.033034 414942.840038 
L 227.931059 414942.840038 
L 226.829084 414942.840038 
L 225.72711 414942.840038 
L 224.625135 414942.840038 
L 223.52316 414942.840038 
L 222.421185 414942.840038 
L 221.31921 414942.840038 
L 220.217235 414942.840038 
L 219.11526 414942.840038 
L 218.013285 414942.840038 
L 216.911311 414942.840038 
L 215.809336 414942.840038 
L 214.707361 414942.840038 
L 213.605386 414942.840038 
L 212.503411 414942.840038 
L 211.401436 414942.840038 
L 210.299461 414942.840038 
L 209.197487 414942.840038 
L 208.095512 414942.840038 
L 206.993537 414942.840038 
L 205.891562 414942.840038 
L 204.789587 414942.840038 
L 203.687612 414942.840038 
L 202.585637 414942.840038 
L 201.483662 414942.840038 
L 200.381688 414942.840038 
L 199.279713 414942.840038 
L 198.177738 414942.840038 
L 197.075763 414942.840038 
L 195.973788 414942.840038 
L 194.871813 414942.840038 
L 193.769838 414942.840038 
L 192.667864 414942.840038 
L 191.565889 414942.840038 
L 190.463914 414942.840038 
L 189.361939 414942.840038 
L 188.259964 414942.840038 
L 187.157989 414942.840038 
L 186.056014 414942.840038 
L 184.954039 414942.840038 
L 183.852065 414942.840038 
L 182.75009 414942.840038 
L 181.648115 414942.840038 
L 180.54614 414942.840038 
L 179.444165 414942.840038 
L 178.34219 414942.840038 
L 177.240215 414942.840038 
L 176.138241 414942.840038 
L 175.036266 414942.840038 
L 173.934291 414942.840038 
L 172.832316 414942.840038 
L 171.730341 414942.840038 
L 170.628366 414942.840038 
L 169.526391 414942.840038 
L 168.424417 414942.840038 
L 167.322442 414942.840038 
L 166.220467 414942.840038 
L 165.118492 414942.840038 
L 164.016517 414942.840038 
L 162.914542 414942.840038 
L 161.812567 414942.840038 
L 160.710592 414942.840038 
L 159.608618 414942.840038 
L 158.506643 414942.840038 
L 157.404668 414942.840038 
L 156.302693 414942.840038 
L 155.200718 414942.840038 
L 154.098743 414942.840038 
L 152.996768 414942.840038 
L 151.894794 414942.840038 
L 150.792819 414942.840038 
L 149.690844 414942.840038 
L 148.588869 414942.840038 
L 147.486894 414942.840038 
L 146.384919 414942.840038 
L 145.282944 414942.840038 
L 144.180969 414942.840038 
L 143.078995 414942.840038 
L 141.97702 414942.840038 
L 140.875045 414942.840038 
L 139.77307 414942.840038 
L 138.671095 414942.840038 
L 137.56912 414942.840038 
L 136.467145 414942.840038 
L 135.365171 414942.840038 
L 134.263196 414942.840038 
L 133.161221 414942.840038 
L 132.059246 414942.840038 
L 130.957271 414942.840038 
L 129.855296 414942.840038 
L 128.753321 414942.840038 
L 127.651346 414942.840038 
L 126.549372 414942.840038 
L 125.447397 414942.840038 
L 124.345422 414942.840038 
L 123.243447 414942.840038 
L 122.141472 414942.840038 
L 121.039497 414942.840038 
L 119.937522 414942.840038 
L 118.835548 414942.840038 
L 117.733573 414942.840038 
L 116.631598 414942.840038 
L 115.529623 414942.840038 
L 114.427648 414942.840038 
L 113.325673 414942.840038 
L 112.223698 414942.840038 
L 111.121724 414942.840038 
L 110.019749 414942.840038 
L 108.917774 414942.840038 
L 107.815799 414942.840038 
L 106.713824 414942.840038 
L 105.611849 414942.840038 
L 104.509874 414942.840038 
L 103.407899 414942.840038 
L 102.305925 414942.840038 
L 101.20395 414942.840038 
L 100.101975 414942.840038 
L 99 414942.840038 
z
" style="fill:#8080ff;fill-opacity:0.5;stroke:#8080ff;stroke-opacity:0.5;"/>
   </g>
   <g id="PolyCollection_2">
    <path clip-path="url(#p68e2955192)" d="M 99 414942.840038 
L 99 414942.840038 
L 100.101975 414942.840038 
L 101.20395 414942.840038 
L 102.305925 414942.840038 
L 103.407899 414942.840038 
L 104.509874 414942.840038 
L 105.611849 414942.840038 
L 106.713824 414942.840038 
L 107.815799 414942.840038 
L 108.917774 414942.840038 
L 110.019749 414942.840038 
L 111.121724 414942.840038 
L 112.223698 414942.840038 
L 113.325673 462.683445 
L 114.427648 462.683445 
L 115.529623 462.683445 
L 116.631598 462.683445 
L 117.733573 462.683445 
L 118.835548 414942.840038 
L 119.937522 414942.840038 
L 121.039497 414942.840038 
L 122.141472 414942.840038 
L 123.243447 414942.840038 
L 124.345422 414942.840038 
L 125.447397 414942.840038 
L 126.549372 414942.840038 
L 127.651346 414942.840038 
L 128.753321 414942.840038 
L 129.855296 414942.840038 
L 130.957271 414942.840038 
L 132.059246 414942.840038 
L 133.161221 414942.840038 
L 134.263196 414942.840038 
L 135.365171 414942.840038 
L 136.467145 414942.840038 
L 137.56912 414942.840038 
L 138.671095 414942.840038 
L 139.77307 414942.840038 
L 140.875045 414942.840038 
L 141.97702 414942.840038 
L 143.078995 414942.840038 
L 144.180969 414942.840038 
L 145.282944 414942.840038 
L 146.384919 414942.840038 
L 147.486894 414942.840038 
L 148.588869 414942.840038 
L 149.690844 414942.840038 
L 150.792819 414942.840038 
L 151.894794 414942.840038 
L 152.996768 414942.840038 
L 154.098743 414942.840038 
L 155.200718 414942.840038 
L 156.302693 414942.840038 
L 157.404668 414942.840038 
L 158.506643 414942.840038 
L 159.608618 414942.840038 
L 160.710592 414942.840038 
L 161.812567 414942.840038 
L 162.914542 414942.840038 
L 164.016517 414942.840038 
L 165.118492 414942.840038 
L 166.220467 414942.840038 
L 167.322442 414942.840038 
L 168.424417 414942.840038 
L 169.526391 414942.840038 
L 170.628366 414942.840038 
L 171.730341 414942.840038 
L 172.832316 414942.840038 
L 173.934291 414942.840038 
L 175.036266 414942.840038 
L 176.138241 414942.840038 
L 177.240215 414942.840038 
L 178.34219 414942.840038 
L 179.444165 414942.840038 
L 180.54614 414942.840038 
L 181.648115 414942.840038 
L 182.75009 414942.840038 
L 183.852065 414942.840038 
L 184.954039 414942.840038 
L 186.056014 414942.840038 
L 187.157989 414942.840038 
L 188.259964 414942.840038 
L 189.361939 414942.840038 
L 190.463914 414942.840038 
L 191.565889 414942.840038 
L 192.667864 414942.840038 
L 193.769838 414942.840038 
L 194.871813 414942.840038 
L 195.973788 414942.840038 
L 197.075763 414942.840038 
L 198.177738 414942.840038 
L 199.279713 414942.840038 
L 200.381688 414942.840038 
L 201.483662 414942.840038 
L 202.585637 414942.840038 
L 203.687612 414942.840038 
L 204.789587 414942.840038 
L 205.891562 414942.840038 
L 206.993537 414942.840038 
L 208.095512 414942.840038 
L 209.197487 414942.840038 
L 210.299461 414942.840038 
L 211.401436 414942.840038 
L 212.503411 414942.840038 
L 213.605386 414942.840038 
L 214.707361 414942.840038 
L 215.809336 414942.840038 
L 216.911311 414942.840038 
L 218.013285 414942.840038 
L 219.11526 414942.840038 
L 220.217235 414942.840038 
L 221.31921 414942.840038 
L 222.421185 414942.840038 
L 223.52316 414942.840038 
L 224.625135 414942.840038 
L 225.72711 414942.840038 
L 226.829084 414942.840038 
L 227.931059 414942.840038 
L 229.033034 414942.840038 
L 230.135009 414942.840038 
L 231.236984 414942.840038 
L 232.338959 414942.840038 
L 233.440934 414942.840038 
L 234.542908 414942.840038 
L 235.644883 414942.840038 
L 236.746858 414942.840038 
L 237.848833 414942.840038 
L 238.950808 414942.840038 
L 240.052783 414942.840038 
L 241.154758 414942.840038 
L 242.256732 414942.840038 
L 243.358707 414942.840038 
L 244.460682 414942.840038 
L 245.562657 414942.840038 
L 246.664632 414942.840038 
L 247.766607 414942.840038 
L 248.868582 414942.840038 
L 249.970557 414942.840038 
L 251.072531 414942.840038 
L 252.174506 414942.840038 
L 253.276481 414942.840038 
L 254.378456 414942.840038 
L 255.480431 414942.840038 
L 256.582406 414942.840038 
L 257.684381 414942.840038 
L 258.786355 414942.840038 
L 259.88833 414942.840038 
L 260.990305 414942.840038 
L 262.09228 414942.840038 
L 263.194255 414942.840038 
L 264.29623 414942.840038 
L 265.398205 414942.840038 
L 266.50018 414942.840038 
L 267.602154 414942.840038 
L 268.704129 414942.840038 
L 269.806104 414942.840038 
L 270.908079 414942.840038 
L 272.010054 414942.840038 
L 273.112029 414942.840038 
L 274.214004 414942.840038 
L 275.315978 414942.840038 
L 276.417953 414942.840038 
L 277.519928 414942.840038 
L 278.621903 414942.840038 
L 279.723878 414942.840038 
L 280.825853 414942.840038 
L 281.927828 414942.840038 
L 283.029803 414942.840038 
L 284.131777 414942.840038 
L 285.233752 414942.840038 
L 286.335727 414942.840038 
L 287.437702 414942.840038 
L 288.539677 414942.840038 
L 289.641652 414942.840038 
L 290.743627 414942.840038 
L 291.845601 414942.840038 
L 292.947576 414942.840038 
L 294.049551 414942.840038 
L 295.151526 414942.840038 
L 296.253501 414942.840038 
L 297.355476 414942.840038 
L 298.457451 414942.840038 
L 299.559425 414942.840038 
L 300.6614 414942.840038 
L 301.763375 414942.840038 
L 302.86535 414942.840038 
L 303.967325 414942.840038 
L 305.0693 414942.840038 
L 306.171275 414942.840038 
L 307.27325 414942.840038 
L 308.375224 414942.840038 
L 309.477199 414942.840038 
L 310.579174 414942.840038 
L 311.681149 414942.840038 
L 312.783124 414942.840038 
L 313.885099 414942.840038 
L 314.987074 414942.840038 
L 316.089048 414942.840038 
L 317.191023 414942.840038 
L 318.292998 414942.840038 
L 319.394973 414942.840038 
L 320.496948 414942.840038 
L 321.598923 414942.840038 
L 322.700898 414942.840038 
L 323.802873 414942.840038 
L 324.904847 414942.840038 
L 326.006822 414942.840038 
L 327.108797 414942.840038 
L 328.210772 414942.840038 
L 329.312747 414942.840038 
L 330.414722 414942.840038 
L 331.516697 414942.840038 
L 332.618671 414942.840038 
L 333.720646 414942.840038 
L 334.822621 414942.840038 
L 335.924596 414942.840038 
L 337.026571 414942.840038 
L 338.128546 414942.840038 
L 339.230521 414942.840038 
L 340.332496 414942.840038 
L 341.43447 414942.840038 
L 342.536445 414942.840038 
L 343.63842 414942.840038 
L 344.740395 414942.840038 
L 345.84237 414942.840038 
L 346.944345 414942.840038 
L 348.04632 414942.840038 
L 349.148294 414942.840038 
L 350.250269 414942.840038 
L 351.352244 414942.840038 
L 352.454219 414942.840038 
L 353.556194 414942.840038 
L 354.658169 414942.840038 
L 355.760144 414942.840038 
L 356.862118 414942.840038 
L 357.964093 414942.840038 
L 359.066068 414942.840038 
L 360.168043 414942.840038 
L 361.270018 414942.840038 
L 362.371993 414942.840038 
L 363.473968 414942.840038 
L 364.575943 414942.840038 
L 365.677917 414942.840038 
L 366.779892 414942.840038 
L 367.881867 414942.840038 
L 368.983842 414942.840038 
L 370.085817 414942.840038 
L 371.187792 414942.840038 
L 372.289767 414942.840038 
L 373.391741 414942.840038 
L 374.493716 414942.840038 
L 375.595691 414942.840038 
L 376.697666 414942.840038 
L 377.799641 414942.840038 
L 378.901616 414942.840038 
L 380.003591 414942.840038 
L 381.105566 414942.840038 
L 382.20754 414942.840038 
L 383.309515 414942.840038 
L 384.41149 414942.840038 
L 385.513465 414942.840038 
L 386.61544 414942.840038 
L 387.717415 414942.840038 
L 388.81939 414942.840038 
L 389.921364 414942.840038 
L 391.023339 414942.840038 
L 392.125314 414942.840038 
L 393.227289 414942.840038 
L 394.329264 414942.840038 
L 395.431239 414942.840038 
L 396.533214 414942.840038 
L 397.635189 414942.840038 
L 398.737163 414942.840038 
L 399.839138 414942.840038 
L 400.941113 414942.840038 
L 402.043088 414942.840038 
L 403.145063 414942.840038 
L 404.247038 414942.840038 
L 405.349013 414942.840038 
L 406.450987 414942.840038 
L 407.552962 414942.840038 
L 408.654937 414942.840038 
L 409.756912 414942.840038 
L 410.858887 414942.840038 
L 411.960862 414942.840038 
L 413.062837 414942.840038 
L 414.164811 414942.840038 
L 415.266786 414942.840038 
L 416.368761 414942.840038 
L 417.470736 414942.840038 
L 418.572711 414942.840038 
L 419.674686 414942.840038 
L 420.776661 414942.840038 
L 421.878636 414942.840038 
L 422.98061 414942.840038 
L 424.082585 414942.840038 
L 425.18456 414942.840038 
L 426.286535 414942.840038 
L 427.38851 414942.840038 
L 428.490485 414942.840038 
L 429.59246 414942.840038 
L 430.694434 414942.840038 
L 431.796409 414942.840038 
L 432.898384 414942.840038 
L 434.000359 414942.840038 
L 435.102334 414942.840038 
L 436.204309 414942.840038 
L 437.306284 414942.840038 
L 438.408259 414942.840038 
L 439.510233 414942.840038 
L 440.612208 414942.840038 
L 441.714183 414942.840038 
L 442.816158 414942.840038 
L 443.918133 414942.840038 
L 445.020108 414942.840038 
L 446.122083 414942.840038 
L 447.224057 414942.840038 
L 448.326032 414942.840038 
L 449.428007 414942.840038 
L 450.529982 414942.840038 
L 451.631957 414942.840038 
L 452.733932 414942.840038 
L 453.835907 414942.840038 
L 454.937882 414942.840038 
L 456.039856 414942.840038 
L 457.141831 414942.840038 
L 458.243806 414942.840038 
L 459.345781 414942.840038 
L 460.447756 414942.840038 
L 461.549731 414942.840038 
L 462.651706 414942.840038 
L 463.75368 414942.840038 
L 464.855655 414942.840038 
L 465.95763 414942.840038 
L 467.059605 414942.840038 
L 468.16158 414942.840038 
L 469.263555 414942.840038 
L 470.36553 414942.840038 
L 471.467504 414942.840038 
L 472.569479 414942.840038 
L 473.671454 414942.840038 
L 474.773429 414942.840038 
L 475.875404 414942.840038 
L 476.977379 414942.840038 
L 478.079354 414942.840038 
L 479.181329 414942.840038 
L 480.283303 414942.840038 
L 481.385278 414942.840038 
L 482.487253 414942.840038 
L 483.589228 414942.840038 
L 484.691203 414942.840038 
L 485.793178 414942.840038 
L 486.895153 414942.840038 
L 487.997127 414942.840038 
L 489.099102 414942.840038 
L 490.201077 414942.840038 
L 491.303052 414942.840038 
L 492.405027 414942.840038 
L 493.507002 414942.840038 
L 494.608977 414942.840038 
L 495.710952 414942.840038 
L 496.812926 414942.840038 
L 497.914901 414942.840038 
L 499.016876 414942.840038 
L 500.118851 414942.840038 
L 501.220826 414942.840038 
L 502.322801 414942.840038 
L 503.424776 414942.840038 
L 504.52675 414942.840038 
L 505.628725 414942.840038 
L 506.7307 414942.840038 
L 507.832675 414942.840038 
L 508.93465 414942.840038 
L 510.036625 414942.840038 
L 511.1386 414942.840038 
L 512.240575 414942.840038 
L 513.342549 414942.840038 
L 514.444524 414942.840038 
L 515.546499 414942.840038 
L 516.648474 414942.840038 
L 517.750449 414942.840038 
L 518.852424 414942.840038 
L 519.954399 414942.840038 
L 521.056373 414942.840038 
L 522.158348 414942.840038 
L 523.260323 414942.840038 
L 524.362298 414942.840038 
L 525.464273 414942.840038 
L 526.566248 414942.840038 
L 527.668223 414942.840038 
L 528.770197 414942.840038 
L 529.872172 414942.840038 
L 530.974147 414942.840038 
L 532.076122 414942.840038 
L 533.178097 414942.840038 
L 534.280072 414942.840038 
L 535.382047 414942.840038 
L 536.484022 414942.840038 
L 537.585996 414942.840038 
L 538.687971 414942.840038 
L 539.789946 414942.840038 
L 540.891921 414942.840038 
L 541.993896 414942.840038 
L 543.095871 414942.840038 
L 544.197846 414942.840038 
L 545.29982 414942.840038 
L 546.401795 414942.840038 
L 547.50377 414942.840038 
L 548.605745 414942.840038 
L 549.70772 414942.840038 
L 550.809695 414942.840038 
L 551.91167 414942.840038 
L 553.013645 414942.840038 
L 554.115619 414942.840038 
L 555.217594 414942.840038 
L 556.319569 414942.840038 
L 557.421544 414942.840038 
L 558.523519 414942.840038 
L 559.625494 414942.840038 
L 560.727469 414942.840038 
L 561.829443 414942.840038 
L 562.931418 414942.840038 
L 564.033393 414942.840038 
L 565.135368 414942.840038 
L 566.237343 414942.840038 
L 567.339318 414942.840038 
L 568.441293 414942.840038 
L 569.543268 414942.840038 
L 570.645242 414942.840038 
L 571.747217 414942.840038 
L 572.849192 414942.840038 
L 573.951167 414942.840038 
L 575.053142 414942.840038 
L 576.155117 414942.840038 
L 577.257092 414942.840038 
L 578.359066 414942.840038 
L 579.461041 414942.840038 
L 580.563016 414942.840038 
L 581.664991 414942.840038 
L 582.766966 414942.840038 
L 583.868941 414942.840038 
L 584.970916 414942.840038 
L 586.07289 414942.840038 
L 587.174865 414942.840038 
L 588.27684 414942.840038 
L 589.378815 414942.840038 
L 590.48079 414942.840038 
L 591.582765 414942.840038 
L 592.68474 414942.840038 
L 593.786715 414942.840038 
L 594.888689 414942.840038 
L 595.990664 414942.840038 
L 597.092639 414942.840038 
L 598.194614 414942.840038 
L 599.296589 414942.840038 
L 600.398564 414942.840038 
L 601.500539 414942.840038 
L 602.602513 414942.840038 
L 603.704488 414942.840038 
L 604.806463 414942.840038 
L 605.908438 414942.840038 
L 607.010413 414942.840038 
L 608.112388 414942.840038 
L 609.214363 414942.840038 
L 610.316338 414942.840038 
L 611.418312 414942.840038 
L 612.520287 414942.840038 
L 613.622262 414942.840038 
L 614.724237 414942.840038 
L 615.826212 414942.840038 
L 616.928187 414942.840038 
L 618.030162 414942.840038 
L 619.132136 414942.840038 
L 620.234111 414942.840038 
L 621.336086 414942.840038 
L 622.438061 414942.840038 
L 623.540036 414942.840038 
L 624.642011 414942.840038 
L 625.743986 414942.840038 
L 626.845961 414942.840038 
L 627.947935 414942.840038 
L 629.04991 414942.840038 
L 630.151885 414942.840038 
L 631.25386 414942.840038 
L 632.355835 414942.840038 
L 633.45781 414942.840038 
L 634.559785 414942.840038 
L 635.661759 414942.840038 
L 636.763734 414942.840038 
L 637.865709 414942.840038 
L 638.967684 414942.840038 
L 640.069659 414942.840038 
L 641.171634 414942.840038 
L 642.273609 414942.840038 
L 643.375583 414942.840038 
L 644.477558 414942.840038 
L 645.579533 414942.840038 
L 646.681508 414942.840038 
L 647.783483 414942.840038 
L 648.885458 414942.840038 
L 649.987433 414942.840038 
L 651.089408 414942.840038 
L 652.191382 414942.840038 
L 653.293357 414942.840038 
L 654.395332 414942.840038 
L 655.497307 414942.840038 
L 656.599282 414942.840038 
L 657.701257 414942.840038 
L 658.803232 414942.840038 
L 659.905206 414942.840038 
L 661.007181 414942.840038 
L 662.109156 414942.840038 
L 663.211131 414942.840038 
L 664.313106 414942.840038 
L 665.415081 414942.840038 
L 666.517056 414942.840038 
L 667.619031 414942.840038 
L 668.721005 414942.840038 
L 669.82298 414942.840038 
L 670.924955 414942.840038 
L 672.02693 414942.840038 
L 673.128905 414942.840038 
L 674.23088 414942.840038 
L 675.332855 414942.840038 
L 676.434829 414942.840038 
L 677.536804 414942.840038 
L 678.638779 414942.840038 
L 679.740754 414942.840038 
L 680.842729 414942.840038 
L 681.944704 414942.840038 
L 683.046679 414942.840038 
L 684.148654 414942.840038 
L 685.250628 414942.840038 
L 686.352603 414942.840038 
L 687.454578 414942.840038 
L 688.556553 414942.840038 
L 689.658528 414942.840038 
L 690.760503 414942.840038 
L 691.862478 414942.840038 
L 692.964452 414942.840038 
L 694.066427 414942.840038 
L 695.168402 414942.840038 
L 696.270377 414942.840038 
L 697.372352 414942.840038 
L 698.474327 414942.840038 
L 699.576302 414942.840038 
L 700.678276 414942.840038 
L 701.780251 414942.840038 
L 702.882226 414942.840038 
L 703.984201 414942.840038 
L 705.086176 414942.840038 
L 706.188151 414942.840038 
L 707.290126 414942.840038 
L 708.392101 414942.840038 
L 709.494075 414942.840038 
L 710.59605 414942.840038 
L 711.698025 414942.840038 
L 712.8 414942.840038 
L 712.8 414942.840038 
L 712.8 414942.840038 
L 711.698025 414942.840038 
L 710.59605 414942.840038 
L 709.494075 414942.840038 
L 708.392101 414942.840038 
L 707.290126 414942.840038 
L 706.188151 414942.840038 
L 705.086176 414942.840038 
L 703.984201 414942.840038 
L 702.882226 414942.840038 
L 701.780251 414942.840038 
L 700.678276 414942.840038 
L 699.576302 414942.840038 
L 698.474327 414942.840038 
L 697.372352 414942.840038 
L 696.270377 414942.840038 
L 695.168402 414942.840038 
L 694.066427 414942.840038 
L 692.964452 414942.840038 
L 691.862478 414942.840038 
L 690.760503 414942.840038 
L 689.658528 414942.840038 
L 688.556553 414942.840038 
L 687.454578 414942.840038 
L 686.352603 414942.840038 
L 685.250628 414942.840038 
L 684.148654 414942.840038 
L 683.046679 414942.840038 
L 681.944704 414942.840038 
L 680.842729 414942.840038 
L 679.740754 414942.840038 
L 678.638779 414942.840038 
L 677.536804 414942.840038 
L 676.434829 414942.840038 
L 675.332855 414942.840038 
L 674.23088 414942.840038 
L 673.128905 414942.840038 
L 672.02693 414942.840038 
L 670.924955 414942.840038 
L 669.82298 414942.840038 
L 668.721005 414942.840038 
L 667.619031 414942.840038 
L 666.517056 414942.840038 
L 665.415081 414942.840038 
L 664.313106 414942.840038 
L 663.211131 414942.840038 
L 662.109156 414942.840038 
L 661.007181 414942.840038 
L 659.905206 414942.840038 
L 658.803232 414942.840038 
L 657.701257 414942.840038 
L 656.599282 414942.840038 
L 655.497307 414942.840038 
L 654.395332 414942.840038 
L 653.293357 414942.840038 
L 652.191382 414942.840038 
L 651.089408 414942.840038 
L 649.987433 414942.840038 
L 648.885458 414942.840038 
L 647.783483 414942.840038 
L 646.681508 414942.840038 
L 645.579533 414942.840038 
L 644.477558 414942.840038 
L 643.375583 414942.840038 
L 642.273609 414942.840038 
L 641.171634 414942.840038 
L 640.069659 414942.840038 
L 638.967684 414942.840038 
L 637.865709 414942.840038 
L 636.763734 414942.840038 
L 635.661759 414942.840038 
L 634.559785 414942.840038 
L 633.45781 414942.840038 
L 632.355835 414942.840038 
L 631.25386 414942.840038 
L 630.151885 414942.840038 
L 629.04991 414942.840038 
L 627.947935 414942.840038 
L 626.845961 414942.840038 
L 625.743986 414942.840038 
L 624.642011 414942.840038 
L 623.540036 414942.840038 
L 622.438061 414942.840038 
L 621.336086 414942.840038 
L 620.234111 414942.840038 
L 619.132136 414942.840038 
L 618.030162 414942.840038 
L 616.928187 414942.840038 
L 615.826212 414942.840038 
L 614.724237 414942.840038 
L 613.622262 414942.840038 
L 612.520287 414942.840038 
L 611.418312 414942.840038 
L 610.316338 414942.840038 
L 609.214363 414942.840038 
L 608.112388 414942.840038 
L 607.010413 414942.840038 
L 605.908438 414942.840038 
L 604.806463 414942.840038 
L 603.704488 414942.840038 
L 602.602513 414942.840038 
L 601.500539 414942.840038 
L 600.398564 414942.840038 
L 599.296589 414942.840038 
L 598.194614 414942.840038 
L 597.092639 414942.840038 
L 595.990664 414942.840038 
L 594.888689 414942.840038 
L 593.786715 414942.840038 
L 592.68474 414942.840038 
L 591.582765 414942.840038 
L 590.48079 414942.840038 
L 589.378815 414942.840038 
L 588.27684 414942.840038 
L 587.174865 414942.840038 
L 586.07289 414942.840038 
L 584.970916 414942.840038 
L 583.868941 414942.840038 
L 582.766966 414942.840038 
L 581.664991 414942.840038 
L 580.563016 414942.840038 
L 579.461041 414942.840038 
L 578.359066 414942.840038 
L 577.257092 414942.840038 
L 576.155117 414942.840038 
L 575.053142 414942.840038 
L 573.951167 414942.840038 
L 572.849192 414942.840038 
L 571.747217 414942.840038 
L 570.645242 414942.840038 
L 569.543268 414942.840038 
L 568.441293 414942.840038 
L 567.339318 414942.840038 
L 566.237343 414942.840038 
L 565.135368 414942.840038 
L 564.033393 414942.840038 
L 562.931418 414942.840038 
L 561.829443 414942.840038 
L 560.727469 414942.840038 
L 559.625494 414942.840038 
L 558.523519 414942.840038 
L 557.421544 414942.840038 
L 556.319569 414942.840038 
L 555.217594 414942.840038 
L 554.115619 414942.840038 
L 553.013645 414942.840038 
L 551.91167 414942.840038 
L 550.809695 414942.840038 
L 549.70772 414942.840038 
L 548.605745 414942.840038 
L 547.50377 414942.840038 
L 546.401795 414942.840038 
L 545.29982 414942.840038 
L 544.197846 414942.840038 
L 543.095871 414942.840038 
L 541.993896 414942.840038 
L 540.891921 414942.840038 
L 539.789946 414942.840038 
L 538.687971 414942.840038 
L 537.585996 414942.840038 
L 536.484022 414942.840038 
L 535.382047 414942.840038 
L 534.280072 414942.840038 
L 533.178097 414942.840038 
L 532.076122 414942.840038 
L 530.974147 414942.840038 
L 529.872172 414942.840038 
L 528.770197 414942.840038 
L 527.668223 414942.840038 
L 526.566248 414942.840038 
L 525.464273 414942.840038 
L 524.362298 414942.840038 
L 523.260323 414942.840038 
L 522.158348 414942.840038 
L 521.056373 414942.840038 
L 519.954399 414942.840038 
L 518.852424 414942.840038 
L 517.750449 414942.840038 
L 516.648474 414942.840038 
L 515.546499 414942.840038 
L 514.444524 414942.840038 
L 513.342549 414942.840038 
L 512.240575 414942.840038 
L 511.1386 414942.840038 
L 510.036625 414942.840038 
L 508.93465 414942.840038 
L 507.832675 414942.840038 
L 506.7307 414942.840038 
L 505.628725 414942.840038 
L 504.52675 414942.840038 
L 503.424776 414942.840038 
L 502.322801 414942.840038 
L 501.220826 414942.840038 
L 500.118851 414942.840038 
L 499.016876 414942.840038 
L 497.914901 414942.840038 
L 496.812926 414942.840038 
L 495.710952 414942.840038 
L 494.608977 414942.840038 
L 493.507002 414942.840038 
L 492.405027 414942.840038 
L 491.303052 414942.840038 
L 490.201077 414942.840038 
L 489.099102 414942.840038 
L 487.997127 414942.840038 
L 486.895153 414942.840038 
L 485.793178 414942.840038 
L 484.691203 414942.840038 
L 483.589228 414942.840038 
L 482.487253 414942.840038 
L 481.385278 414942.840038 
L 480.283303 414942.840038 
L 479.181329 414942.840038 
L 478.079354 414942.840038 
L 476.977379 414942.840038 
L 475.875404 414942.840038 
L 474.773429 414942.840038 
L 473.671454 414942.840038 
L 472.569479 414942.840038 
L 471.467504 414942.840038 
L 470.36553 414942.840038 
L 469.263555 414942.840038 
L 468.16158 414942.840038 
L 467.059605 414942.840038 
L 465.95763 414942.840038 
L 464.855655 414942.840038 
L 463.75368 414942.840038 
L 462.651706 414942.840038 
L 461.549731 414942.840038 
L 460.447756 414942.840038 
L 459.345781 414942.840038 
L 458.243806 414942.840038 
L 457.141831 414942.840038 
L 456.039856 414942.840038 
L 454.937882 414942.840038 
L 453.835907 414942.840038 
L 452.733932 414942.840038 
L 451.631957 414942.840038 
L 450.529982 414942.840038 
L 449.428007 414942.840038 
L 448.326032 414942.840038 
L 447.224057 414942.840038 
L 446.122083 414942.840038 
L 445.020108 414942.840038 
L 443.918133 414942.840038 
L 442.816158 414942.840038 
L 441.714183 414942.840038 
L 440.612208 414942.840038 
L 439.510233 414942.840038 
L 438.408259 414942.840038 
L 437.306284 414942.840038 
L 436.204309 414942.840038 
L 435.102334 414942.840038 
L 434.000359 414942.840038 
L 432.898384 414942.840038 
L 431.796409 414942.840038 
L 430.694434 414942.840038 
L 429.59246 414942.840038 
L 428.490485 414942.840038 
L 427.38851 414942.840038 
L 426.286535 414942.840038 
L 425.18456 414942.840038 
L 424.082585 414942.840038 
L 422.98061 414942.840038 
L 421.878636 414942.840038 
L 420.776661 414942.840038 
L 419.674686 414942.840038 
L 418.572711 414942.840038 
L 417.470736 414942.840038 
L 416.368761 414942.840038 
L 415.266786 414942.840038 
L 414.164811 414942.840038 
L 413.062837 414942.840038 
L 411.960862 414942.840038 
L 410.858887 414942.840038 
L 409.756912 414942.840038 
L 408.654937 414942.840038 
L 407.552962 414942.840038 
L 406.450987 414942.840038 
L 405.349013 414942.840038 
L 404.247038 414942.840038 
L 403.145063 414942.840038 
L 402.043088 414942.840038 
L 400.941113 414942.840038 
L 399.839138 414942.840038 
L 398.737163 414942.840038 
L 397.635189 414942.840038 
L 396.533214 414942.840038 
L 395.431239 414942.840038 
L 394.329264 414942.840038 
L 393.227289 414942.840038 
L 392.125314 414942.840038 
L 391.023339 414942.840038 
L 389.921364 414942.840038 
L 388.81939 414942.840038 
L 387.717415 414942.840038 
L 386.61544 414942.840038 
L 385.513465 414942.840038 
L 384.41149 414942.840038 
L 383.309515 414942.840038 
L 382.20754 414942.840038 
L 381.105566 414942.840038 
L 380.003591 414942.840038 
L 378.901616 414942.840038 
L 377.799641 414942.840038 
L 376.697666 414942.840038 
L 375.595691 414942.840038 
L 374.493716 414942.840038 
L 373.391741 414942.840038 
L 372.289767 414942.840038 
L 371.187792 414942.840038 
L 370.085817 414942.840038 
L 368.983842 414942.840038 
L 367.881867 414942.840038 
L 366.779892 414942.840038 
L 365.677917 414942.840038 
L 364.575943 414942.840038 
L 363.473968 414942.840038 
L 362.371993 414942.840038 
L 361.270018 414942.840038 
L 360.168043 414942.840038 
L 359.066068 414942.840038 
L 357.964093 414942.840038 
L 356.862118 414942.840038 
L 355.760144 414942.840038 
L 354.658169 414942.840038 
L 353.556194 414942.840038 
L 352.454219 414942.840038 
L 351.352244 414942.840038 
L 350.250269 414942.840038 
L 349.148294 414942.840038 
L 348.04632 414942.840038 
L 346.944345 414942.840038 
L 345.84237 414942.840038 
L 344.740395 414942.840038 
L 343.63842 414942.840038 
L 342.536445 414942.840038 
L 341.43447 414942.840038 
L 340.332496 414942.840038 
L 339.230521 414942.840038 
L 338.128546 414942.840038 
L 337.026571 414942.840038 
L 335.924596 414942.840038 
L 334.822621 414942.840038 
L 333.720646 414942.840038 
L 332.618671 414942.840038 
L 331.516697 414942.840038 
L 330.414722 414942.840038 
L 329.312747 414942.840038 
L 328.210772 414942.840038 
L 327.108797 414942.840038 
L 326.006822 414942.840038 
L 324.904847 414942.840038 
L 323.802873 414942.840038 
L 322.700898 414942.840038 
L 321.598923 414942.840038 
L 320.496948 414942.840038 
L 319.394973 414942.840038 
L 318.292998 414942.840038 
L 317.191023 414942.840038 
L 316.089048 414942.840038 
L 314.987074 414942.840038 
L 313.885099 414942.840038 
L 312.783124 414942.840038 
L 311.681149 414942.840038 
L 310.579174 414942.840038 
L 309.477199 414942.840038 
L 308.375224 414942.840038 
L 307.27325 414942.840038 
L 306.171275 414942.840038 
L 305.0693 414942.840038 
L 303.967325 414942.840038 
L 302.86535 414942.840038 
L 301.763375 414942.840038 
L 300.6614 414942.840038 
L 299.559425 414942.840038 
L 298.457451 414942.840038 
L 297.355476 414942.840038 
L 296.253501 414942.840038 
L 295.151526 414942.840038 
L 294.049551 414942.840038 
L 292.947576 414942.840038 
L 291.845601 414942.840038 
L 290.743627 414942.840038 
L 289.641652 414942.840038 
L 288.539677 414942.840038 
L 287.437702 414942.840038 
L 286.335727 414942.840038 
L 285.233752 414942.840038 
L 284.131777 414942.840038 
L 283.029803 414942.840038 
L 281.927828 414942.840038 
L 280.825853 414942.840038 
L 279.723878 414942.840038 
L 278.621903 414942.840038 
L 277.519928 414942.840038 
L 276.417953 414942.840038 
L 275.315978 414942.840038 
L 274.214004 414942.840038 
L 273.112029 414942.840038 
L 272.010054 414942.840038 
L 270.908079 414942.840038 
L 269.806104 414942.840038 
L 268.704129 414942.840038 
L 267.602154 414942.840038 
L 266.50018 414942.840038 
L 265.398205 414942.840038 
L 264.29623 414942.840038 
L 263.194255 414942.840038 
L 262.09228 414942.840038 
L 260.990305 414942.840038 
L 259.88833 414942.840038 
L 258.786355 414942.840038 
L 257.684381 414942.840038 
L 256.582406 414942.840038 
L 255.480431 414942.840038 
L 254.378456 414942.840038 
L 253.276481 414942.840038 
L 252.174506 414942.840038 
L 251.072531 414942.840038 
L 249.970557 414942.840038 
L 248.868582 414942.840038 
L 247.766607 414942.840038 
L 246.664632 414942.840038 
L 245.562657 414942.840038 
L 244.460682 414942.840038 
L 243.358707 414942.840038 
L 242.256732 414942.840038 
L 241.154758 414942.840038 
L 240.052783 414942.840038 
L 238.950808 414942.840038 
L 237.848833 414942.840038 
L 236.746858 414942.840038 
L 235.644883 414942.840038 
L 234.542908 414942.840038 
L 233.440934 414942.840038 
L 232.338959 414942.840038 
L 231.236984 414942.840038 
L 230.135009 414942.840038 
L 229.033034 414942.840038 
L 227.931059 414942.840038 
L 226.829084 414942.840038 
L 225.72711 414942.840038 
L 224.625135 414942.840038 
L 223.52316 414942.840038 
L 222.421185 414942.840038 
L 221.31921 414942.840038 
L 220.217235 414942.840038 
L 219.11526 414942.840038 
L 218.013285 414942.840038 
L 216.911311 414942.840038 
L 215.809336 414942.840038 
L 214.707361 414942.840038 
L 213.605386 414942.840038 
L 212.503411 414942.840038 
L 211.401436 414942.840038 
L 210.299461 414942.840038 
L 209.197487 414942.840038 
L 208.095512 414942.840038 
L 206.993537 414942.840038 
L 205.891562 414942.840038 
L 204.789587 414942.840038 
L 203.687612 414942.840038 
L 202.585637 414942.840038 
L 201.483662 414942.840038 
L 200.381688 414942.840038 
L 199.279713 414942.840038 
L 198.177738 414942.840038 
L 197.075763 414942.840038 
L 195.973788 414942.840038 
L 194.871813 414942.840038 
L 193.769838 414942.840038 
L 192.667864 414942.840038 
L 191.565889 414942.840038 
L 190.463914 414942.840038 
L 189.361939 414942.840038 
L 188.259964 414942.840038 
L 187.157989 414942.840038 
L 186.056014 414942.840038 
L 184.954039 414942.840038 
L 183.852065 414942.840038 
L 182.75009 414942.840038 
L 181.648115 414942.840038 
L 180.54614 414942.840038 
L 179.444165 414942.840038 
L 178.34219 414942.840038 
L 177.240215 414942.840038 
L 176.138241 414942.840038 
L 175.036266 414942.840038 
L 173.934291 414942.840038 
L 172.832316 414942.840038 
L 171.730341 414942.840038 
L 170.628366 414942.840038 
L 169.526391 414942.840038 
L 168.424417 414942.840038 
L 167.322442 414942.840038 
L 166.220467 414942.840038 
L 165.118492 414942.840038 
L 164.016517 414942.840038 
L 162.914542 414942.840038 
L 161.812567 414942.840038 
L 160.710592 414942.840038 
L 159.608618 414942.840038 
L 158.506643 414942.840038 
L 157.404668 414942.840038 
L 156.302693 414942.840038 
L 155.200718 414942.840038 
L 154.098743 414942.840038 
L 152.996768 414942.840038 
L 151.894794 414942.840038 
L 150.792819 414942.840038 
L 149.690844 414942.840038 
L 148.588869 414942.840038 
L 147.486894 414942.840038 
L 146.384919 414942.840038 
L 145.282944 414942.840038 
L 144.180969 414942.840038 
L 143.078995 414942.840038 
L 141.97702 414942.840038 
L 140.875045 414942.840038 
L 139.77307 414942.840038 
L 138.671095 414942.840038 
L 137.56912 414942.840038 
L 136.467145 414942.840038 
L 135.365171 414942.840038 
L 134.263196 414942.840038 
L 133.161221 414942.840038 
L 132.059246 414942.840038 
L 130.957271 414942.840038 
L 129.855296 414942.840038 
L 128.753321 414942.840038 
L 127.651346 414942.840038 
L 126.549372 414942.840038 
L 125.447397 414942.840038 
L 124.345422 414942.840038 
L 123.243447 414942.840038 
L 122.141472 414942.840038 
L 121.039497 414942.840038 
L 119.937522 414942.840038 
L 118.835548 414942.840038 
L 117.733573 414942.840038 
L 116.631598 414942.840038 
L 115.529623 414942.840038 
L 114.427648 414942.840038 
L 113.325673 414942.840038 
L 112.223698 414942.840038 
L 111.121724 414942.840038 
L 110.019749 414942.840038 
L 108.917774 414942.840038 
L 107.815799 414942.840038 
L 106.713824 414942.840038 
L 105.611849 414942.840038 
L 104.509874 414942.840038 
L 103.407899 414942.840038 
L 102.305925 414942.840038 
L 101.20395 414942.840038 
L 100.101975 414942.840038 
L 99 414942.840038 
z
" style="fill:#ff8080;fill-opacity:0.5;stroke:#ff8080;stroke-opacity:0.5;"/>
   </g>
   <g id="matplotlib.axis_1">
    <g id="xtick_1">
     <g id="line2d_1">
      <path clip-path="url(#p68e2955192)" d="M 99 544.68 
L 99 73.44 
" style="fill:none;stroke:#b0b0b0;stroke-linecap:square;stroke-width:0.8;"/>
     </g>
     <g id="line2d_2">
      <defs>
       <path d="M 0 0 
L 0 3.5 
" id="m4abed1d830" style="stroke:#000000;stroke-width:0.8;"/>
      </defs>
      <g>
       <use style="stroke:#000000;stroke-width:0.8;" x="99" xlink:href="#m4abed1d830" y="544.68"/>
      </g>
     </g>
    </g>
    <g id="xtick_2">
     <g id="line2d_3">
      <path clip-path="url(#p68e2955192)" d="M 103.407899 544.68 
L 103.407899 73.44 
" style="fill:none;stroke:#b0b0b0;stroke-linecap:square;stroke-width:0.8;"/>
     </g>
     <g id="line2d_4">
      <g>
       <use style="stroke:#000000;stroke-width:0.8;" x="103.407899" xlink:href="#m4abed1d830" y="544.68"/>
      </g>
     </g>
     <g id="text_1">
      <!-- Apr -->
      <g transform="translate(94.757899 559.278437)scale(0.1 -0.1)">
       <defs>
        <path d="M 2188 4044 
L 1331 1722 
L 3047 1722 
L 2188 4044 
z
M 1831 4666 
L 2547 4666 
L 4325 0 
L 3669 0 
L 3244 1197 
L 1141 1197 
L 716 0 
L 50 0 
L 1831 4666 
z
" id="DejaVuSans-41" transform="scale(0.015625)"/>
        <path d="M 1159 525 
L 1159 -1331 
L 581 -1331 
L 581 3500 
L 1159 3500 
L 1159 2969 
Q 1341 3281 1617 3432 
Q 1894 3584 2278 3584 
Q 2916 3584 3314 3078 
Q 3713 2572 3713 1747 
Q 3713 922 3314 415 
Q 2916 -91 2278 -91 
Q 1894 -91 1617 61 
Q 1341 213 1159 525 
z
M 3116 1747 
Q 3116 2381 2855 2742 
Q 2594 3103 2138 3103 
Q 1681 3103 1420 2742 
Q 1159 2381 1159 1747 
Q 1159 1113 1420 752 
Q 1681 391 2138 391 
Q 2594 391 2855 752 
Q 3116 1113 3116 1747 
z
" id="DejaVuSans-70" transform="scale(0.015625)"/>
        <path d="M 2631 2963 
Q 2534 3019 2420 3045 
Q 2306 3072 2169 3072 
Q 1681 3072 1420 2755 
Q 1159 2438 1159 1844 
L 1159 0 
L 581 0 
L 581 3500 
L 1159 3500 
L 1159 2956 
Q 1341 3275 1631 3429 
Q 1922 3584 2338 3584 
Q 2397 3584 2469 3576 
Q 2541 3569 2628 3553 
L 2631 2963 
z
" id="DejaVuSans-72" transform="scale(0.015625)"/>
       </defs>
       <use xlink:href="#DejaVuSans-41"/>
       <use x="68.408203" xlink:href="#DejaVuSans-70"/>
       <use x="131.884766" xlink:href="#DejaVuSans-72"/>
      </g>
     </g>
    </g>
    <g id="xtick_3">
     <g id="line2d_5">
      <path clip-path="url(#p68e2955192)" d="M 203.687612 544.68 
L 203.687612 73.44 
" style="fill:none;stroke:#b0b0b0;stroke-linecap:square;stroke-width:0.8;"/>
     </g>
     <g id="line2d_6">
      <g>
       <use style="stroke:#000000;stroke-width:0.8;" x="203.687612" xlink:href="#m4abed1d830" y="544.68"/>
      </g>
     </g>
     <g id="text_2">
      <!-- Jul -->
      <g transform="translate(197.6548 559.278437)scale(0.1 -0.1)">
       <defs>
        <path d="M 628 4666 
L 1259 4666 
L 1259 325 
Q 1259 -519 939 -900 
Q 619 -1281 -91 -1281 
L -331 -1281 
L -331 -750 
L -134 -750 
Q 284 -750 456 -515 
Q 628 -281 628 325 
L 628 4666 
z
" id="DejaVuSans-4a" transform="scale(0.015625)"/>
        <path d="M 544 1381 
L 544 3500 
L 1119 3500 
L 1119 1403 
Q 1119 906 1312 657 
Q 1506 409 1894 409 
Q 2359 409 2629 706 
Q 2900 1003 2900 1516 
L 2900 3500 
L 3475 3500 
L 3475 0 
L 2900 0 
L 2900 538 
Q 2691 219 2414 64 
Q 2138 -91 1772 -91 
Q 1169 -91 856 284 
Q 544 659 544 1381 
z
M 1991 3584 
L 1991 3584 
z
" id="DejaVuSans-75" transform="scale(0.015625)"/>
        <path d="M 603 4863 
L 1178 4863 
L 1178 0 
L 603 0 
L 603 4863 
z
" id="DejaVuSans-6c" transform="scale(0.015625)"/>
       </defs>
       <use xlink:href="#DejaVuSans-4a"/>
       <use x="29.492188" xlink:href="#DejaVuSans-75"/>
       <use x="92.871094" xlink:href="#DejaVuSans-6c"/>
      </g>
     </g>
    </g>
    <g id="xtick_4">
     <g id="line2d_7">
      <path clip-path="url(#p68e2955192)" d="M 305.0693 544.68 
L 305.0693 73.44 
" style="fill:none;stroke:#b0b0b0;stroke-linecap:square;stroke-width:0.8;"/>
     </g>
     <g id="line2d_8">
      <g>
       <use style="stroke:#000000;stroke-width:0.8;" x="305.0693" xlink:href="#m4abed1d830" y="544.68"/>
      </g>
     </g>
     <g id="text_3">
      <!-- Oct -->
      <g transform="translate(296.423987 559.278437)scale(0.1 -0.1)">
       <defs>
        <path d="M 2522 4238 
Q 1834 4238 1429 3725 
Q 1025 3213 1025 2328 
Q 1025 1447 1429 934 
Q 1834 422 2522 422 
Q 3209 422 3611 934 
Q 4013 1447 4013 2328 
Q 4013 3213 3611 3725 
Q 3209 4238 2522 4238 
z
M 2522 4750 
Q 3503 4750 4090 4092 
Q 4678 3434 4678 2328 
Q 4678 1225 4090 567 
Q 3503 -91 2522 -91 
Q 1538 -91 948 565 
Q 359 1222 359 2328 
Q 359 3434 948 4092 
Q 1538 4750 2522 4750 
z
" id="DejaVuSans-4f" transform="scale(0.015625)"/>
        <path d="M 3122 3366 
L 3122 2828 
Q 2878 2963 2633 3030 
Q 2388 3097 2138 3097 
Q 1578 3097 1268 2742 
Q 959 2388 959 1747 
Q 959 1106 1268 751 
Q 1578 397 2138 397 
Q 2388 397 2633 464 
Q 2878 531 3122 666 
L 3122 134 
Q 2881 22 2623 -34 
Q 2366 -91 2075 -91 
Q 1284 -91 818 406 
Q 353 903 353 1747 
Q 353 2603 823 3093 
Q 1294 3584 2113 3584 
Q 2378 3584 2631 3529 
Q 2884 3475 3122 3366 
z
" id="DejaVuSans-63" transform="scale(0.015625)"/>
        <path d="M 1172 4494 
L 1172 3500 
L 2356 3500 
L 2356 3053 
L 1172 3053 
L 1172 1153 
Q 1172 725 1289 603 
Q 1406 481 1766 481 
L 2356 481 
L 2356 0 
L 1766 0 
Q 1100 0 847 248 
Q 594 497 594 1153 
L 594 3053 
L 172 3053 
L 172 3500 
L 594 3500 
L 594 4494 
L 1172 4494 
z
" id="DejaVuSans-74" transform="scale(0.015625)"/>
       </defs>
       <use xlink:href="#DejaVuSans-4f"/>
       <use x="78.710938" xlink:href="#DejaVuSans-63"/>
       <use x="133.691406" xlink:href="#DejaVuSans-74"/>
      </g>
     </g>
    </g>
    <g id="xtick_5">
     <g id="line2d_9">
      <path clip-path="url(#p68e2955192)" d="M 406.450987 544.68 
L 406.450987 73.44 
" style="fill:none;stroke:#b0b0b0;stroke-linecap:square;stroke-width:0.8;"/>
     </g>
     <g id="line2d_10">
      <g>
       <use style="stroke:#000000;stroke-width:0.8;" x="406.450987" xlink:href="#m4abed1d830" y="544.68"/>
      </g>
     </g>
     <g id="text_4">
      <!-- Jan -->
      <g transform="translate(398.743175 559.278437)scale(0.1 -0.1)">
       <defs>
        <path d="M 2194 1759 
Q 1497 1759 1228 1600 
Q 959 1441 959 1056 
Q 959 750 1161 570 
Q 1363 391 1709 391 
Q 2188 391 2477 730 
Q 2766 1069 2766 1631 
L 2766 1759 
L 2194 1759 
z
M 3341 1997 
L 3341 0 
L 2766 0 
L 2766 531 
Q 2569 213 2275 61 
Q 1981 -91 1556 -91 
Q 1019 -91 701 211 
Q 384 513 384 1019 
Q 384 1609 779 1909 
Q 1175 2209 1959 2209 
L 2766 2209 
L 2766 2266 
Q 2766 2663 2505 2880 
Q 2244 3097 1772 3097 
Q 1472 3097 1187 3025 
Q 903 2953 641 2809 
L 641 3341 
Q 956 3463 1253 3523 
Q 1550 3584 1831 3584 
Q 2591 3584 2966 3190 
Q 3341 2797 3341 1997 
z
" id="DejaVuSans-61" transform="scale(0.015625)"/>
        <path d="M 3513 2113 
L 3513 0 
L 2938 0 
L 2938 2094 
Q 2938 2591 2744 2837 
Q 2550 3084 2163 3084 
Q 1697 3084 1428 2787 
Q 1159 2491 1159 1978 
L 1159 0 
L 581 0 
L 581 3500 
L 1159 3500 
L 1159 2956 
Q 1366 3272 1645 3428 
Q 1925 3584 2291 3584 
Q 2894 3584 3203 3211 
Q 3513 2838 3513 2113 
z
" id="DejaVuSans-6e" transform="scale(0.015625)"/>
       </defs>
       <use xlink:href="#DejaVuSans-4a"/>
       <use x="29.492188" xlink:href="#DejaVuSans-61"/>
       <use x="90.771484" xlink:href="#DejaVuSans-6e"/>
      </g>
      <!-- 2021 -->
      <g transform="translate(393.725987 570.47625)scale(0.1 -0.1)">
       <defs>
        <path d="M 1228 531 
L 3431 531 
L 3431 0 
L 469 0 
L 469 531 
Q 828 903 1448 1529 
Q 2069 2156 2228 2338 
Q 2531 2678 2651 2914 
Q 2772 3150 2772 3378 
Q 2772 3750 2511 3984 
Q 2250 4219 1831 4219 
Q 1534 4219 1204 4116 
Q 875 4013 500 3803 
L 500 4441 
Q 881 4594 1212 4672 
Q 1544 4750 1819 4750 
Q 2544 4750 2975 4387 
Q 3406 4025 3406 3419 
Q 3406 3131 3298 2873 
Q 3191 2616 2906 2266 
Q 2828 2175 2409 1742 
Q 1991 1309 1228 531 
z
" id="DejaVuSans-32" transform="scale(0.015625)"/>
        <path d="M 2034 4250 
Q 1547 4250 1301 3770 
Q 1056 3291 1056 2328 
Q 1056 1369 1301 889 
Q 1547 409 2034 409 
Q 2525 409 2770 889 
Q 3016 1369 3016 2328 
Q 3016 3291 2770 3770 
Q 2525 4250 2034 4250 
z
M 2034 4750 
Q 2819 4750 3233 4129 
Q 3647 3509 3647 2328 
Q 3647 1150 3233 529 
Q 2819 -91 2034 -91 
Q 1250 -91 836 529 
Q 422 1150 422 2328 
Q 422 3509 836 4129 
Q 1250 4750 2034 4750 
z
" id="DejaVuSans-30" transform="scale(0.015625)"/>
        <path d="M 794 531 
L 1825 531 
L 1825 4091 
L 703 3866 
L 703 4441 
L 1819 4666 
L 2450 4666 
L 2450 531 
L 3481 531 
L 3481 0 
L 794 0 
L 794 531 
z
" id="DejaVuSans-31" transform="scale(0.015625)"/>
       </defs>
       <use xlink:href="#DejaVuSans-32"/>
       <use x="63.623047" xlink:href="#DejaVuSans-30"/>
       <use x="127.246094" xlink:href="#DejaVuSans-32"/>
       <use x="190.869141" xlink:href="#DejaVuSans-31"/>
      </g>
     </g>
    </g>
    <g id="xtick_6">
     <g id="line2d_11">
      <path clip-path="url(#p68e2955192)" d="M 505.628725 544.68 
L 505.628725 73.44 
" style="fill:none;stroke:#b0b0b0;stroke-linecap:square;stroke-width:0.8;"/>
     </g>
     <g id="line2d_12">
      <g>
       <use style="stroke:#000000;stroke-width:0.8;" x="505.628725" xlink:href="#m4abed1d830" y="544.68"/>
      </g>
     </g>
     <g id="text_5">
      <!-- Apr -->
      <g transform="translate(496.978725 559.278437)scale(0.1 -0.1)">
       <use xlink:href="#DejaVuSans-41"/>
       <use x="68.408203" xlink:href="#DejaVuSans-70"/>
       <use x="131.884766" xlink:href="#DejaVuSans-72"/>
      </g>
     </g>
    </g>
    <g id="xtick_7">
     <g id="line2d_13">
      <path clip-path="url(#p68e2955192)" d="M 605.908438 544.68 
L 605.908438 73.44 
" style="fill:none;stroke:#b0b0b0;stroke-linecap:square;stroke-width:0.8;"/>
     </g>
     <g id="line2d_14">
      <g>
       <use style="stroke:#000000;stroke-width:0.8;" x="605.908438" xlink:href="#m4abed1d830" y="544.68"/>
      </g>
     </g>
     <g id="text_6">
      <!-- Jul -->
      <g transform="translate(599.875626 559.278437)scale(0.1 -0.1)">
       <use xlink:href="#DejaVuSans-4a"/>
       <use x="29.492188" xlink:href="#DejaVuSans-75"/>
       <use x="92.871094" xlink:href="#DejaVuSans-6c"/>
      </g>
     </g>
    </g>
    <g id="xtick_8">
     <g id="line2d_15">
      <path clip-path="url(#p68e2955192)" d="M 707.290126 544.68 
L 707.290126 73.44 
" style="fill:none;stroke:#b0b0b0;stroke-linecap:square;stroke-width:0.8;"/>
     </g>
     <g id="line2d_16">
      <g>
       <use style="stroke:#000000;stroke-width:0.8;" x="707.290126" xlink:href="#m4abed1d830" y="544.68"/>
      </g>
     </g>
     <g id="text_7">
      <!-- Oct -->
      <g transform="translate(698.644813 559.278437)scale(0.1 -0.1)">
       <use xlink:href="#DejaVuSans-4f"/>
       <use x="78.710938" xlink:href="#DejaVuSans-63"/>
       <use x="133.691406" xlink:href="#DejaVuSans-74"/>
      </g>
     </g>
    </g>
    <g id="xtick_9">
     <g id="line2d_17">
      <path clip-path="url(#p68e2955192)" d="M 712.8 544.68 
L 712.8 73.44 
" style="fill:none;stroke:#b0b0b0;stroke-linecap:square;stroke-width:0.8;"/>
     </g>
     <g id="line2d_18">
      <g>
       <use style="stroke:#000000;stroke-width:0.8;" x="712.8" xlink:href="#m4abed1d830" y="544.68"/>
      </g>
     </g>
    </g>
    <g id="xtick_10">
     <g id="line2d_19">
      <defs>
       <path d="M 0 0 
L 0 2 
" id="mbe9820739d" style="stroke:#000000;stroke-width:0.6;"/>
      </defs>
      <g>
       <use style="stroke:#000000;stroke-width:0.6;" x="136.467145" xlink:href="#mbe9820739d" y="544.68"/>
      </g>
     </g>
    </g>
    <g id="xtick_11">
     <g id="line2d_20">
      <g>
       <use style="stroke:#000000;stroke-width:0.6;" x="170.628366" xlink:href="#mbe9820739d" y="544.68"/>
      </g>
     </g>
    </g>
    <g id="xtick_12">
     <g id="line2d_21">
      <g>
       <use style="stroke:#000000;stroke-width:0.6;" x="237.848833" xlink:href="#mbe9820739d" y="544.68"/>
      </g>
     </g>
    </g>
    <g id="xtick_13">
     <g id="line2d_22">
      <g>
       <use style="stroke:#000000;stroke-width:0.6;" x="272.010054" xlink:href="#mbe9820739d" y="544.68"/>
      </g>
     </g>
    </g>
    <g id="xtick_14">
     <g id="line2d_23">
      <g>
       <use style="stroke:#000000;stroke-width:0.6;" x="339.230521" xlink:href="#mbe9820739d" y="544.68"/>
      </g>
     </g>
    </g>
    <g id="xtick_15">
     <g id="line2d_24">
      <g>
       <use style="stroke:#000000;stroke-width:0.6;" x="372.289767" xlink:href="#mbe9820739d" y="544.68"/>
      </g>
     </g>
    </g>
    <g id="xtick_16">
     <g id="line2d_25">
      <g>
       <use style="stroke:#000000;stroke-width:0.6;" x="440.612208" xlink:href="#mbe9820739d" y="544.68"/>
      </g>
     </g>
    </g>
    <g id="xtick_17">
     <g id="line2d_26">
      <g>
       <use style="stroke:#000000;stroke-width:0.6;" x="471.467504" xlink:href="#mbe9820739d" y="544.68"/>
      </g>
     </g>
    </g>
    <g id="xtick_18">
     <g id="line2d_27">
      <g>
       <use style="stroke:#000000;stroke-width:0.6;" x="538.687971" xlink:href="#mbe9820739d" y="544.68"/>
      </g>
     </g>
    </g>
    <g id="xtick_19">
     <g id="line2d_28">
      <g>
       <use style="stroke:#000000;stroke-width:0.6;" x="572.849192" xlink:href="#mbe9820739d" y="544.68"/>
      </g>
     </g>
    </g>
    <g id="xtick_20">
     <g id="line2d_29">
      <g>
       <use style="stroke:#000000;stroke-width:0.6;" x="640.069659" xlink:href="#mbe9820739d" y="544.68"/>
      </g>
     </g>
    </g>
    <g id="xtick_21">
     <g id="line2d_30">
      <g>
       <use style="stroke:#000000;stroke-width:0.6;" x="674.23088" xlink:href="#mbe9820739d" y="544.68"/>
      </g>
     </g>
    </g>
    <g id="text_8">
     <!-- Date -->
     <g transform="translate(393.949219 584.154375)scale(0.1 -0.1)">
      <defs>
       <path d="M 1259 4147 
L 1259 519 
L 2022 519 
Q 2988 519 3436 956 
Q 3884 1394 3884 2338 
Q 3884 3275 3436 3711 
Q 2988 4147 2022 4147 
L 1259 4147 
z
M 628 4666 
L 1925 4666 
Q 3281 4666 3915 4102 
Q 4550 3538 4550 2338 
Q 4550 1131 3912 565 
Q 3275 0 1925 0 
L 628 0 
L 628 4666 
z
" id="DejaVuSans-44" transform="scale(0.015625)"/>
       <path d="M 3597 1894 
L 3597 1613 
L 953 1613 
Q 991 1019 1311 708 
Q 1631 397 2203 397 
Q 2534 397 2845 478 
Q 3156 559 3463 722 
L 3463 178 
Q 3153 47 2828 -22 
Q 2503 -91 2169 -91 
Q 1331 -91 842 396 
Q 353 884 353 1716 
Q 353 2575 817 3079 
Q 1281 3584 2069 3584 
Q 2775 3584 3186 3129 
Q 3597 2675 3597 1894 
z
M 3022 2063 
Q 3016 2534 2758 2815 
Q 2500 3097 2075 3097 
Q 1594 3097 1305 2825 
Q 1016 2553 972 2059 
L 3022 2063 
z
" id="DejaVuSans-65" transform="scale(0.015625)"/>
      </defs>
      <use xlink:href="#DejaVuSans-44"/>
      <use x="77.001953" xlink:href="#DejaVuSans-61"/>
      <use x="138.28125" xlink:href="#DejaVuSans-74"/>
      <use x="177.490234" xlink:href="#DejaVuSans-65"/>
     </g>
    </g>
   </g>
   <g id="matplotlib.axis_2">
    <g id="ytick_1">
     <g id="line2d_31">
      <path clip-path="url(#p68e2955192)" d="M 99 398.46971 
L 712.8 398.46971 
" style="fill:none;stroke:#b0b0b0;stroke-linecap:square;stroke-width:0.8;"/>
     </g>
     <g id="line2d_32">
      <defs>
       <path d="M 0 0 
L -3.5 0 
" id="me91a084207" style="stroke:#000000;stroke-width:0.8;"/>
      </defs>
      <g>
       <use style="stroke:#000000;stroke-width:0.8;" x="99" xlink:href="#me91a084207" y="398.46971"/>
      </g>
     </g>
     <g id="text_9">
      <!-- $\mathdefault{10^{0}}$ -->
      <g transform="translate(74.4 402.268929)scale(0.1 -0.1)">
       <use transform="translate(0 0.765625)" xlink:href="#DejaVuSans-31"/>
       <use transform="translate(63.623047 0.765625)" xlink:href="#DejaVuSans-30"/>
       <use transform="translate(128.203125 39.046875)scale(0.7)" xlink:href="#DejaVuSans-30"/>
      </g>
     </g>
    </g>
    <g id="ytick_2">
     <g id="line2d_33">
      <path clip-path="url(#p68e2955192)" d="M 99 523.26 
L 712.8 523.26 
" style="fill:none;stroke:#b0b0b0;stroke-linecap:square;stroke-width:0.8;"/>
     </g>
     <g id="line2d_34">
      <defs>
       <path d="M 0 0 
L -2 0 
" id="m0cb60b688e" style="stroke:#000000;stroke-width:0.6;"/>
      </defs>
      <g>
       <use style="stroke:#000000;stroke-width:0.6;" x="99" xlink:href="#m0cb60b688e" y="523.26"/>
      </g>
     </g>
    </g>
    <g id="ytick_3">
     <g id="line2d_35">
      <path clip-path="url(#p68e2955192)" d="M 99 490.43586 
L 712.8 490.43586 
" style="fill:none;stroke:#b0b0b0;stroke-linecap:square;stroke-width:0.8;"/>
     </g>
     <g id="line2d_36">
      <g>
       <use style="stroke:#000000;stroke-width:0.6;" x="99" xlink:href="#m0cb60b688e" y="490.43586"/>
      </g>
     </g>
    </g>
    <g id="ytick_4">
     <g id="line2d_37">
      <path clip-path="url(#p68e2955192)" d="M 99 462.683445 
L 712.8 462.683445 
" style="fill:none;stroke:#b0b0b0;stroke-linecap:square;stroke-width:0.8;"/>
     </g>
     <g id="line2d_38">
      <g>
       <use style="stroke:#000000;stroke-width:0.6;" x="99" xlink:href="#m0cb60b688e" y="462.683445"/>
      </g>
     </g>
    </g>
    <g id="ytick_5">
     <g id="line2d_39">
      <path clip-path="url(#p68e2955192)" d="M 99 438.64321 
L 712.8 438.64321 
" style="fill:none;stroke:#b0b0b0;stroke-linecap:square;stroke-width:0.8;"/>
     </g>
     <g id="line2d_40">
      <g>
       <use style="stroke:#000000;stroke-width:0.6;" x="99" xlink:href="#m0cb60b688e" y="438.64321"/>
      </g>
     </g>
    </g>
    <g id="ytick_6">
     <g id="line2d_41">
      <path clip-path="url(#p68e2955192)" d="M 99 417.43822 
L 712.8 417.43822 
" style="fill:none;stroke:#b0b0b0;stroke-linecap:square;stroke-width:0.8;"/>
     </g>
     <g id="line2d_42">
      <g>
       <use style="stroke:#000000;stroke-width:0.6;" x="99" xlink:href="#m0cb60b688e" y="417.43822"/>
      </g>
     </g>
    </g>
    <g id="ytick_7">
     <g id="line2d_43">
      <path clip-path="url(#p68e2955192)" d="M 99 273.67942 
L 712.8 273.67942 
" style="fill:none;stroke:#b0b0b0;stroke-linecap:square;stroke-width:0.8;"/>
     </g>
     <g id="line2d_44">
      <g>
       <use style="stroke:#000000;stroke-width:0.6;" x="99" xlink:href="#m0cb60b688e" y="273.67942"/>
      </g>
     </g>
    </g>
    <g id="ytick_8">
     <g id="line2d_45">
      <path clip-path="url(#p68e2955192)" d="M 99 200.68178 
L 712.8 200.68178 
" style="fill:none;stroke:#b0b0b0;stroke-linecap:square;stroke-width:0.8;"/>
     </g>
     <g id="line2d_46">
      <g>
       <use style="stroke:#000000;stroke-width:0.6;" x="99" xlink:href="#m0cb60b688e" y="200.68178"/>
      </g>
     </g>
    </g>
    <g id="ytick_9">
     <g id="line2d_47">
      <path clip-path="url(#p68e2955192)" d="M 99 148.88913 
L 712.8 148.88913 
" style="fill:none;stroke:#b0b0b0;stroke-linecap:square;stroke-width:0.8;"/>
     </g>
     <g id="line2d_48">
      <g>
       <use style="stroke:#000000;stroke-width:0.6;" x="99" xlink:href="#m0cb60b688e" y="148.88913"/>
      </g>
     </g>
    </g>
    <g id="ytick_10">
     <g id="line2d_49">
      <path clip-path="url(#p68e2955192)" d="M 99 108.71563 
L 712.8 108.71563 
" style="fill:none;stroke:#b0b0b0;stroke-linecap:square;stroke-width:0.8;"/>
     </g>
     <g id="line2d_50">
      <g>
       <use style="stroke:#000000;stroke-width:0.6;" x="99" xlink:href="#m0cb60b688e" y="108.71563"/>
      </g>
     </g>
    </g>
    <g id="ytick_11">
     <g id="line2d_51">
      <path clip-path="url(#p68e2955192)" d="M 99 75.89149 
L 712.8 75.89149 
" style="fill:none;stroke:#b0b0b0;stroke-linecap:square;stroke-width:0.8;"/>
     </g>
     <g id="line2d_52">
      <g>
       <use style="stroke:#000000;stroke-width:0.6;" x="99" xlink:href="#m0cb60b688e" y="75.89149"/>
      </g>
     </g>
    </g>
   </g>
   <g id="line2d_53">
    <path clip-path="url(#p68e2955192)" d="M 247.766368 613 
L 247.766607 523.26 
L 249.970557 523.26 
L 249.970795 613 
M 252.174268 613 
L 252.174506 523.26 
L 252.174745 613 
M 659.904968 613 
L 659.905206 523.26 
L 659.905445 613 
M 667.618792 613 
L 667.619031 523.26 
L 672.02693 523.26 
L 672.027169 613 
M 689.658289 613 
L 689.658528 523.26 
L 690.760503 523.26 
L 690.760741 613 
M 696.270138 613 
L 696.270377 523.26 
L 696.270616 613 
" style="fill:none;stroke:#1f77b4;stroke-linecap:square;stroke-width:1.5;"/>
   </g>
   <g id="line2d_54">
    <path clip-path="url(#p68e2955192)" d="M 0 0 
" style="fill:none;stroke:#ff7f0e;stroke-linecap:square;stroke-width:1.5;"/>
   </g>
   <g id="patch_3">
    <path d="M 99 544.68 
L 99 73.44 
" style="fill:none;stroke:#000000;stroke-linecap:square;stroke-linejoin:miter;stroke-width:0.8;"/>
   </g>
   <g id="patch_4">
    <path d="M 712.8 544.68 
L 712.8 73.44 
" style="fill:none;stroke:#000000;stroke-linecap:square;stroke-linejoin:miter;stroke-width:0.8;"/>
   </g>
   <g id="patch_5">
    <path d="M 99 544.68 
L 712.8 544.68 
" style="fill:none;stroke:#000000;stroke-linecap:square;stroke-linejoin:miter;stroke-width:0.8;"/>
   </g>
   <g id="patch_6">
    <path d="M 99 73.44 
L 712.8 73.44 
" style="fill:none;stroke:#000000;stroke-linecap:square;stroke-linejoin:miter;stroke-width:0.8;"/>
   </g>
   <g id="legend_1">
    <g id="patch_7">
     <path d="M 616.653125 110.79625 
L 705.8 110.79625 
Q 707.8 110.79625 707.8 108.79625 
L 707.8 80.44 
Q 707.8 78.44 705.8 78.44 
L 616.653125 78.44 
Q 614.653125 78.44 614.653125 80.44 
L 614.653125 108.79625 
Q 614.653125 110.79625 616.653125 110.79625 
z
" style="fill:#ffffff;opacity:0.8;stroke:#cccccc;stroke-linejoin:miter;"/>
    </g>
    <g id="line2d_55">
     <path d="M 618.653125 86.538437 
L 638.653125 86.538437 
" style="fill:none;stroke:#1f77b4;stroke-linecap:square;stroke-width:1.5;"/>
    </g>
    <g id="line2d_56"/>
    <g id="text_10">
     <!-- Avg Cases -->
     <g transform="translate(646.653125 90.038437)scale(0.1 -0.1)">
      <defs>
       <path d="M 191 3500 
L 800 3500 
L 1894 563 
L 2988 3500 
L 3597 3500 
L 2284 0 
L 1503 0 
L 191 3500 
z
" id="DejaVuSans-76" transform="scale(0.015625)"/>
       <path d="M 2906 1791 
Q 2906 2416 2648 2759 
Q 2391 3103 1925 3103 
Q 1463 3103 1205 2759 
Q 947 2416 947 1791 
Q 947 1169 1205 825 
Q 1463 481 1925 481 
Q 2391 481 2648 825 
Q 2906 1169 2906 1791 
z
M 3481 434 
Q 3481 -459 3084 -895 
Q 2688 -1331 1869 -1331 
Q 1566 -1331 1297 -1286 
Q 1028 -1241 775 -1147 
L 775 -588 
Q 1028 -725 1275 -790 
Q 1522 -856 1778 -856 
Q 2344 -856 2625 -561 
Q 2906 -266 2906 331 
L 2906 616 
Q 2728 306 2450 153 
Q 2172 0 1784 0 
Q 1141 0 747 490 
Q 353 981 353 1791 
Q 353 2603 747 3093 
Q 1141 3584 1784 3584 
Q 2172 3584 2450 3431 
Q 2728 3278 2906 2969 
L 2906 3500 
L 3481 3500 
L 3481 434 
z
" id="DejaVuSans-67" transform="scale(0.015625)"/>
       <path id="DejaVuSans-20" transform="scale(0.015625)"/>
       <path d="M 4122 4306 
L 4122 3641 
Q 3803 3938 3442 4084 
Q 3081 4231 2675 4231 
Q 1875 4231 1450 3742 
Q 1025 3253 1025 2328 
Q 1025 1406 1450 917 
Q 1875 428 2675 428 
Q 3081 428 3442 575 
Q 3803 722 4122 1019 
L 4122 359 
Q 3791 134 3420 21 
Q 3050 -91 2638 -91 
Q 1578 -91 968 557 
Q 359 1206 359 2328 
Q 359 3453 968 4101 
Q 1578 4750 2638 4750 
Q 3056 4750 3426 4639 
Q 3797 4528 4122 4306 
z
" id="DejaVuSans-43" transform="scale(0.015625)"/>
       <path d="M 2834 3397 
L 2834 2853 
Q 2591 2978 2328 3040 
Q 2066 3103 1784 3103 
Q 1356 3103 1142 2972 
Q 928 2841 928 2578 
Q 928 2378 1081 2264 
Q 1234 2150 1697 2047 
L 1894 2003 
Q 2506 1872 2764 1633 
Q 3022 1394 3022 966 
Q 3022 478 2636 193 
Q 2250 -91 1575 -91 
Q 1294 -91 989 -36 
Q 684 19 347 128 
L 347 722 
Q 666 556 975 473 
Q 1284 391 1588 391 
Q 1994 391 2212 530 
Q 2431 669 2431 922 
Q 2431 1156 2273 1281 
Q 2116 1406 1581 1522 
L 1381 1569 
Q 847 1681 609 1914 
Q 372 2147 372 2553 
Q 372 3047 722 3315 
Q 1072 3584 1716 3584 
Q 2034 3584 2315 3537 
Q 2597 3491 2834 3397 
z
" id="DejaVuSans-73" transform="scale(0.015625)"/>
      </defs>
      <use xlink:href="#DejaVuSans-41"/>
      <use x="62.533203" xlink:href="#DejaVuSans-76"/>
      <use x="121.712891" xlink:href="#DejaVuSans-67"/>
      <use x="185.189453" xlink:href="#DejaVuSans-20"/>
      <use x="216.976562" xlink:href="#DejaVuSans-43"/>
      <use x="286.800781" xlink:href="#DejaVuSans-61"/>
      <use x="348.080078" xlink:href="#DejaVuSans-73"/>
      <use x="400.179688" xlink:href="#DejaVuSans-65"/>
      <use x="461.703125" xlink:href="#DejaVuSans-73"/>
     </g>
    </g>
    <g id="line2d_57">
     <path d="M 618.653125 101.216562 
L 638.653125 101.216562 
" style="fill:none;stroke:#ff7f0e;stroke-linecap:square;stroke-width:1.5;"/>
    </g>
    <g id="line2d_58"/>
    <g id="text_11">
     <!-- Avg Deaths -->
     <g transform="translate(646.653125 104.716562)scale(0.1 -0.1)">
      <defs>
       <path d="M 3513 2113 
L 3513 0 
L 2938 0 
L 2938 2094 
Q 2938 2591 2744 2837 
Q 2550 3084 2163 3084 
Q 1697 3084 1428 2787 
Q 1159 2491 1159 1978 
L 1159 0 
L 581 0 
L 581 4863 
L 1159 4863 
L 1159 2956 
Q 1366 3272 1645 3428 
Q 1925 3584 2291 3584 
Q 2894 3584 3203 3211 
Q 3513 2838 3513 2113 
z
" id="DejaVuSans-68" transform="scale(0.015625)"/>
      </defs>
      <use xlink:href="#DejaVuSans-41"/>
      <use x="62.533203" xlink:href="#DejaVuSans-76"/>
      <use x="121.712891" xlink:href="#DejaVuSans-67"/>
      <use x="185.189453" xlink:href="#DejaVuSans-20"/>
      <use x="216.976562" xlink:href="#DejaVuSans-44"/>
      <use x="293.978516" xlink:href="#DejaVuSans-65"/>
      <use x="355.501953" xlink:href="#DejaVuSans-61"/>
      <use x="416.78125" xlink:href="#DejaVuSans-74"/>
      <use x="455.990234" xlink:href="#DejaVuSans-68"/>
      <use x="519.369141" xlink:href="#DejaVuSans-73"/>
     </g>
    </g>
   </g>
  </g>
 </g>
 <defs>
  <clipPath id="p68e2955192">
   <rect height="471.24" width="613.8" x="99" y="73.44"/>
  </clipPath>
 </defs>
</svg>
