<?xml version="1.0" encoding="utf-8" standalone="no"?>
<!DOCTYPE svg PUBLIC "-//W3C//DTD SVG 1.1//EN"
  "http://www.w3.org/Graphics/SVG/1.1/DTD/svg11.dtd">
<svg height="612pt" version="1.1" viewBox="0 0 792 612" width="792pt" xmlns="http://www.w3.org/2000/svg" xmlns:xlink="http://www.w3.org/1999/xlink">
 <metadata>
  <rdf:RDF xmlns:cc="http://creativecommons.org/ns#" xmlns:dc="http://purl.org/dc/elements/1.1/" xmlns:rdf="http://www.w3.org/1999/02/22-rdf-syntax-ns#">
   <cc:Work>
    <dc:type rdf:resource="http://purl.org/dc/dcmitype/StillImage"/>
    <dc:format>image/svg+xml</dc:format>
    <dc:creator>
     <cc:Agent>
      <dc:title>Matplotlib v3.4.2, https://matplotlib.org/</dc:title>
     </cc:Agent>
    </dc:creator>
   </cc:Work>
  </rdf:RDF>
 </metadata>
 <defs>
  <style type="text/css">*{stroke-linecap:butt;stroke-linejoin:round;}</style>
 </defs>
 <g id="figure_1">
  <g id="patch_1">
   <path d="M 0 612 
L 792 612 
L 792 0 
L 0 0 
z
" style="fill:#ffffff;"/>
  </g>
  <g id="axes_1">
   <g id="patch_2">
    <path d="M 99 544.68 
L 712.8 544.68 
L 712.8 73.44 
L 99 73.44 
z
" style="fill:#ffffff;"/>
   </g>
   <g id="PolyCollection_1">
    <path clip-path="url(#p68e2955192)" d="M 99 414942.840038 
L 99 414942.840038 
L 100.164706 414942.840038 
L 101.329412 414942.840038 
L 102.494118 414942.840038 
L 103.658824 414942.840038 
L 104.823529 414942.840038 
L 105.988235 414942.840038 
L 107.152941 414942.840038 
L 108.317647 414942.840038 
L 109.482353 414942.840038 
L 110.647059 414942.840038 
L 111.811765 414942.840038 
L 112.976471 414942.840038 
L 114.141176 219.65029 
L 115.305882 219.65029 
L 116.470588 219.65029 
L 117.635294 219.65029 
L 118.8 219.65029 
L 119.964706 273.67942 
L 121.129412 337.893155 
L 122.294118 302.938407 
L 123.458824 302.938407 
L 124.623529 302.938407 
L 125.788235 302.938407 
L 126.952941 302.938407 
L 128.117647 462.683445 
L 129.282353 462.683445 
L 130.447059 462.683445 
L 131.611765 462.683445 
L 132.776471 462.683445 
L 133.941176 462.683445 
L 135.105882 414942.840038 
L 136.270588 414942.840038 
L 137.435294 414942.840038 
L 138.6 414942.840038 
L 139.764706 414942.840038 
L 140.929412 414942.840038 
L 142.094118 414942.840038 
L 143.258824 414942.840038 
L 144.423529 414942.840038 
L 145.588235 414942.840038 
L 146.752941 414942.840038 
L 147.917647 462.683445 
L 149.082353 462.683445 
L 150.247059 398.46971 
L 151.411765 398.46971 
L 152.576471 398.46971 
L 153.741176 398.46971 
L 154.905882 398.46971 
L 156.070588 302.938407 
L 157.235294 302.938407 
L 158.4 302.938407 
L 159.564706 302.938407 
L 160.729412 302.938407 
L 161.894118 302.938407 
L 163.058824 302.938407 
L 164.223529 302.938407 
L 165.388235 302.938407 
L 166.552941 462.683445 
L 167.717647 462.683445 
L 168.882353 462.683445 
L 170.047059 462.683445 
L 171.211765 462.683445 
L 172.376471 414942.840038 
L 173.541176 414942.840038 
L 174.705882 414942.840038 
L 175.870588 462.683445 
L 177.035294 398.46971 
L 178.2 398.46971 
L 179.364706 398.46971 
L 180.529412 398.46971 
L 181.694118 398.46971 
L 182.858824 398.46971 
L 184.023529 302.938407 
L 185.188235 302.938407 
L 186.352941 302.938407 
L 187.517647 302.938407 
L 188.682353 302.938407 
L 189.847059 302.938407 
L 191.011765 302.938407 
L 192.176471 302.938407 
L 193.341176 302.938407 
L 194.505882 398.46971 
L 195.670588 398.46971 
L 196.835294 398.46971 
L 198 462.683445 
L 199.164706 414942.840038 
L 200.329412 414942.840038 
L 201.494118 414942.840038 
L 202.658824 414942.840038 
L 203.823529 414942.840038 
L 204.988235 414942.840038 
L 206.152941 414942.840038 
L 207.317647 414942.840038 
L 208.482353 414942.840038 
L 209.647059 414942.840038 
L 210.811765 414942.840038 
L 211.976471 414942.840038 
L 213.141176 414942.840038 
L 214.305882 414942.840038 
L 215.470588 414942.840038 
L 216.635294 414942.840038 
L 217.8 414942.840038 
L 218.964706 414942.840038 
L 220.129412 414942.840038 
L 221.294118 462.683445 
L 222.458824 462.683445 
L 223.623529 462.683445 
L 224.788235 302.938407 
L 225.952941 302.938407 
L 227.117647 302.938407 
L 228.282353 302.938407 
L 229.447059 302.938407 
L 230.611765 302.938407 
L 231.776471 302.938407 
L 232.941176 302.938407 
L 234.105882 302.938407 
L 235.270588 302.938407 
L 236.435294 302.938407 
L 237.6 302.938407 
L 238.764706 302.938407 
L 239.929412 302.938407 
L 241.094118 398.46971 
L 242.258824 398.46971 
L 243.423529 302.938407 
L 244.588235 302.938407 
L 245.752941 273.67942 
L 246.917647 273.67942 
L 248.082353 273.67942 
L 249.247059 273.67942 
L 250.411765 273.67942 
L 251.576471 273.67942 
L 252.741176 273.67942 
L 253.905882 302.938407 
L 255.070588 302.938407 
L 256.235294 302.938407 
L 257.4 302.938407 
L 258.564706 302.938407 
L 259.729412 398.46971 
L 260.894118 398.46971 
L 262.058824 398.46971 
L 263.223529 398.46971 
L 264.388235 398.46971 
L 265.552941 398.46971 
L 266.717647 398.46971 
L 267.882353 398.46971 
L 269.047059 398.46971 
L 270.211765 398.46971 
L 271.376471 398.46971 
L 272.541176 398.46971 
L 273.705882 398.46971 
L 274.870588 398.46971 
L 276.035294 398.46971 
L 277.2 462.683445 
L 278.364706 302.938407 
L 279.529412 302.938407 
L 280.694118 462.683445 
L 281.858824 462.683445 
L 283.023529 462.683445 
L 284.188235 462.683445 
L 285.352941 462.683445 
L 286.517647 398.46971 
L 287.682353 398.46971 
L 288.847059 398.46971 
L 290.011765 398.46971 
L 291.176471 398.46971 
L 292.341176 398.46971 
L 293.505882 398.46971 
L 294.670588 398.46971 
L 295.835294 398.46971 
L 297 398.46971 
L 298.164706 398.46971 
L 299.329412 398.46971 
L 300.494118 398.46971 
L 301.658824 398.46971 
L 302.823529 398.46971 
L 303.988235 398.46971 
L 305.152941 398.46971 
L 306.317647 398.46971 
L 307.482353 398.46971 
L 308.647059 398.46971 
L 309.811765 398.46971 
L 310.976471 398.46971 
L 312.141176 398.46971 
L 313.305882 398.46971 
L 314.470588 398.46971 
L 315.635294 398.46971 
L 316.8 398.46971 
L 317.964706 398.46971 
L 319.129412 462.683445 
L 320.294118 398.46971 
L 321.458824 302.938407 
L 322.623529 302.938407 
L 323.788235 302.938407 
L 324.952941 302.938407 
L 326.117647 302.938407 
L 327.282353 273.67942 
L 328.447059 273.67942 
L 329.611765 273.67942 
L 330.776471 273.67942 
L 331.941176 273.67942 
L 333.105882 219.65029 
L 334.270588 219.65029 
L 335.435294 200.68178 
L 336.6 219.65029 
L 337.764706 219.65029 
L 338.929412 219.65029 
L 340.094118 219.65029 
L 341.258824 219.65029 
L 342.423529 219.65029 
L 343.588235 219.65029 
L 344.752941 219.65029 
L 345.917647 162.924884 
L 347.082353 162.924884 
L 348.247059 162.924884 
L 349.411765 178.148117 
L 350.576471 178.148117 
L 351.741176 337.893155 
L 352.905882 178.148117 
L 354.070588 178.148117 
L 355.235294 213.102865 
L 356.4 213.102865 
L 357.564706 213.102865 
L 358.729412 178.148117 
L 359.894118 178.148117 
L 361.058824 178.148117 
L 362.223529 273.67942 
L 363.388235 273.67942 
L 364.552941 273.67942 
L 365.717647 273.67942 
L 366.882353 273.67942 
L 368.047059 273.67942 
L 369.211765 337.893155 
L 370.376471 273.67942 
L 371.541176 273.67942 
L 372.705882 273.67942 
L 373.870588 273.67942 
L 375.035294 302.938407 
L 376.2 302.938407 
L 377.364706 302.938407 
L 378.529412 398.46971 
L 379.694118 398.46971 
L 380.858824 398.46971 
L 382.023529 398.46971 
L 383.188235 398.46971 
L 384.352941 398.46971 
L 385.517647 398.46971 
L 386.682353 398.46971 
L 387.847059 462.683445 
L 389.011765 462.683445 
L 390.176471 462.683445 
L 391.341176 462.683445 
L 392.505882 462.683445 
L 393.670588 414942.840038 
L 394.835294 337.893155 
L 396 273.67942 
L 397.164706 273.67942 
L 398.329412 273.67942 
L 399.494118 273.67942 
L 400.658824 273.67942 
L 401.823529 273.67942 
L 402.988235 273.67942 
L 404.152941 273.67942 
L 405.317647 273.67942 
L 406.482353 273.67942 
L 407.647059 273.67942 
L 408.811765 273.67942 
L 409.976471 273.67942 
L 411.141176 273.67942 
L 412.305882 302.938407 
L 413.470588 302.938407 
L 414.635294 302.938407 
L 415.8 302.938407 
L 416.964706 273.67942 
L 418.129412 273.67942 
L 419.294118 273.67942 
L 420.458824 273.67942 
L 421.623529 273.67942 
L 422.788235 273.67942 
L 423.952941 302.938407 
L 425.117647 302.938407 
L 426.282353 302.938407 
L 427.447059 337.893155 
L 428.611765 337.893155 
L 429.776471 337.893155 
L 430.941176 302.938407 
L 432.105882 302.938407 
L 433.270588 462.683445 
L 434.435294 462.683445 
L 435.6 462.683445 
L 436.764706 302.938407 
L 437.929412 302.938407 
L 439.094118 302.938407 
L 440.258824 302.938407 
L 441.423529 302.938407 
L 442.588235 302.938407 
L 443.752941 302.938407 
L 444.917647 302.938407 
L 446.082353 398.46971 
L 447.247059 462.683445 
L 448.411765 462.683445 
L 449.576471 462.683445 
L 450.741176 462.683445 
L 451.905882 462.683445 
L 453.070588 462.683445 
L 454.235294 462.683445 
L 455.4 462.683445 
L 456.564706 462.683445 
L 457.729412 462.683445 
L 458.894118 462.683445 
L 460.058824 462.683445 
L 461.223529 337.893155 
L 462.388235 337.893155 
L 463.552941 337.893155 
L 464.717647 337.893155 
L 465.882353 337.893155 
L 467.047059 337.893155 
L 468.211765 337.893155 
L 469.376471 414942.840038 
L 470.541176 414942.840038 
L 471.705882 414942.840038 
L 472.870588 462.683445 
L 474.035294 462.683445 
L 475.2 462.683445 
L 476.364706 462.683445 
L 477.529412 414942.840038 
L 478.694118 462.683445 
L 479.858824 462.683445 
L 481.023529 462.683445 
L 482.188235 462.683445 
L 483.352941 398.46971 
L 484.517647 398.46971 
L 485.682353 398.46971 
L 486.847059 398.46971 
L 488.011765 398.46971 
L 489.176471 462.683445 
L 490.341176 462.683445 
L 491.505882 462.683445 
L 492.670588 462.683445 
L 493.835294 462.683445 
L 495 462.683445 
L 496.164706 462.683445 
L 497.329412 462.683445 
L 498.494118 462.683445 
L 499.658824 414942.840038 
L 500.823529 462.683445 
L 501.988235 462.683445 
L 503.152941 462.683445 
L 504.317647 462.683445 
L 505.482353 462.683445 
L 506.647059 398.46971 
L 507.811765 302.938407 
L 508.976471 302.938407 
L 510.141176 302.938407 
L 511.305882 219.65029 
L 512.470588 219.65029 
L 513.635294 219.65029 
L 514.8 219.65029 
L 515.964706 219.65029 
L 517.129412 240.85528 
L 518.294118 240.85528 
L 519.458824 240.85528 
L 520.623529 240.85528 
L 521.788235 240.85528 
L 522.952941 240.85528 
L 524.117647 398.46971 
L 525.282353 398.46971 
L 526.447059 398.46971 
L 527.611765 462.683445 
L 528.776471 462.683445 
L 529.941176 462.683445 
L 531.105882 462.683445 
L 532.270588 462.683445 
L 533.435294 462.683445 
L 534.6 414942.840038 
L 535.764706 462.683445 
L 536.929412 414942.840038 
L 538.094118 414942.840038 
L 539.258824 414942.840038 
L 540.423529 414942.840038 
L 541.588235 414942.840038 
L 542.752941 414942.840038 
L 543.917647 414942.840038 
L 545.082353 462.683445 
L 546.247059 398.46971 
L 547.411765 398.46971 
L 548.576471 398.46971 
L 549.741176 398.46971 
L 550.905882 398.46971 
L 552.070588 462.683445 
L 553.235294 462.683445 
L 554.4 462.683445 
L 555.564706 398.46971 
L 556.729412 398.46971 
L 557.894118 398.46971 
L 559.058824 398.46971 
L 560.223529 398.46971 
L 561.388235 462.683445 
L 562.552941 414942.840038 
L 563.717647 337.893155 
L 564.882353 337.893155 
L 566.047059 337.893155 
L 567.211765 337.893155 
L 568.376471 337.893155 
L 569.541176 337.893155 
L 570.705882 302.938407 
L 571.870588 462.683445 
L 573.035294 462.683445 
L 574.2 398.46971 
L 575.364706 398.46971 
L 576.529412 398.46971 
L 577.694118 398.46971 
L 578.858824 398.46971 
L 580.023529 398.46971 
L 581.188235 398.46971 
L 582.352941 398.46971 
L 583.517647 302.938407 
L 584.682353 302.938407 
L 585.847059 273.67942 
L 587.011765 273.67942 
L 588.176471 273.67942 
L 589.341176 273.67942 
L 590.505882 273.67942 
L 591.670588 273.67942 
L 592.835294 273.67942 
L 594 273.67942 
L 595.164706 273.67942 
L 596.329412 273.67942 
L 597.494118 273.67942 
L 598.658824 273.67942 
L 599.823529 273.67942 
L 600.988235 273.67942 
L 602.152941 337.893155 
L 603.317647 337.893155 
L 604.482353 414942.840038 
L 605.647059 414942.840038 
L 606.811765 414942.840038 
L 607.976471 414942.840038 
L 609.141176 414942.840038 
L 610.305882 414942.840038 
L 611.470588 414942.840038 
L 612.635294 414942.840038 
L 613.8 414942.840038 
L 614.964706 414942.840038 
L 616.129412 414942.840038 
L 617.294118 414942.840038 
L 618.458824 414942.840038 
L 619.623529 414942.840038 
L 620.788235 414942.840038 
L 621.952941 414942.840038 
L 623.117647 414942.840038 
L 624.282353 414942.840038 
L 625.447059 414942.840038 
L 626.611765 414942.840038 
L 627.776471 414942.840038 
L 628.941176 414942.840038 
L 630.105882 414942.840038 
L 631.270588 414942.840038 
L 632.435294 414942.840038 
L 633.6 414942.840038 
L 634.764706 414942.840038 
L 635.929412 414942.840038 
L 637.094118 414942.840038 
L 638.258824 414942.840038 
L 639.423529 414942.840038 
L 640.588235 414942.840038 
L 641.752941 462.683445 
L 642.917647 462.683445 
L 644.082353 462.683445 
L 645.247059 462.683445 
L 646.411765 462.683445 
L 647.576471 462.683445 
L 648.741176 398.46971 
L 649.905882 398.46971 
L 651.070588 398.46971 
L 652.235294 398.46971 
L 653.4 398.46971 
L 654.564706 398.46971 
L 655.729412 398.46971 
L 656.894118 398.46971 
L 658.058824 462.683445 
L 659.223529 462.683445 
L 660.388235 462.683445 
L 661.552941 462.683445 
L 662.717647 302.938407 
L 663.882353 302.938407 
L 665.047059 462.683445 
L 666.211765 462.683445 
L 667.376471 462.683445 
L 668.541176 462.683445 
L 669.705882 302.938407 
L 670.870588 302.938407 
L 672.035294 273.67942 
L 673.2 273.67942 
L 674.364706 273.67942 
L 675.529412 273.67942 
L 676.694118 116.06499 
L 677.858824 116.06499 
L 679.023529 116.06499 
L 680.188235 94.86 
L 681.352941 94.86 
L 682.517647 94.86 
L 683.682353 94.86 
L 684.847059 94.86 
L 686.011765 162.924884 
L 687.176471 162.924884 
L 688.341176 119.855327 
L 689.505882 119.855327 
L 690.670588 119.855327 
L 691.835294 119.855327 
L 693 148.88913 
L 694.164706 148.88913 
L 695.329412 148.88913 
L 696.494118 162.924884 
L 697.658824 162.924884 
L 698.823529 148.88913 
L 699.988235 148.88913 
L 701.152941 148.88913 
L 702.317647 148.88913 
L 703.482353 148.88913 
L 704.647059 148.88913 
L 705.811765 148.88913 
L 706.976471 148.88913 
L 708.141176 178.148117 
L 709.305882 178.148117 
L 710.470588 178.148117 
L 711.635294 178.148117 
L 712.8 119.855327 
L 712.8 414942.840038 
L 712.8 414942.840038 
L 711.635294 414942.840038 
L 710.470588 414942.840038 
L 709.305882 414942.840038 
L 708.141176 414942.840038 
L 706.976471 414942.840038 
L 705.811765 414942.840038 
L 704.647059 414942.840038 
L 703.482353 414942.840038 
L 702.317647 414942.840038 
L 701.152941 414942.840038 
L 699.988235 414942.840038 
L 698.823529 414942.840038 
L 697.658824 414942.840038 
L 696.494118 414942.840038 
L 695.329412 414942.840038 
L 694.164706 414942.840038 
L 693 414942.840038 
L 691.835294 414942.840038 
L 690.670588 414942.840038 
L 689.505882 414942.840038 
L 688.341176 414942.840038 
L 687.176471 414942.840038 
L 686.011765 414942.840038 
L 684.847059 414942.840038 
L 683.682353 414942.840038 
L 682.517647 414942.840038 
L 681.352941 414942.840038 
L 680.188235 414942.840038 
L 679.023529 414942.840038 
L 677.858824 414942.840038 
L 676.694118 414942.840038 
L 675.529412 414942.840038 
L 674.364706 414942.840038 
L 673.2 414942.840038 
L 672.035294 414942.840038 
L 670.870588 414942.840038 
L 669.705882 414942.840038 
L 668.541176 414942.840038 
L 667.376471 414942.840038 
L 666.211765 414942.840038 
L 665.047059 414942.840038 
L 663.882353 414942.840038 
L 662.717647 414942.840038 
L 661.552941 414942.840038 
L 660.388235 414942.840038 
L 659.223529 414942.840038 
L 658.058824 414942.840038 
L 656.894118 414942.840038 
L 655.729412 414942.840038 
L 654.564706 414942.840038 
L 653.4 414942.840038 
L 652.235294 414942.840038 
L 651.070588 414942.840038 
L 649.905882 414942.840038 
L 648.741176 414942.840038 
L 647.576471 414942.840038 
L 646.411765 414942.840038 
L 645.247059 414942.840038 
L 644.082353 414942.840038 
L 642.917647 414942.840038 
L 641.752941 414942.840038 
L 640.588235 414942.840038 
L 639.423529 414942.840038 
L 638.258824 414942.840038 
L 637.094118 414942.840038 
L 635.929412 414942.840038 
L 634.764706 414942.840038 
L 633.6 414942.840038 
L 632.435294 414942.840038 
L 631.270588 414942.840038 
L 630.105882 414942.840038 
L 628.941176 414942.840038 
L 627.776471 414942.840038 
L 626.611765 414942.840038 
L 625.447059 414942.840038 
L 624.282353 414942.840038 
L 623.117647 414942.840038 
L 621.952941 414942.840038 
L 620.788235 414942.840038 
L 619.623529 414942.840038 
L 618.458824 414942.840038 
L 617.294118 414942.840038 
L 616.129412 414942.840038 
L 614.964706 414942.840038 
L 613.8 414942.840038 
L 612.635294 414942.840038 
L 611.470588 414942.840038 
L 610.305882 414942.840038 
L 609.141176 414942.840038 
L 607.976471 414942.840038 
L 606.811765 414942.840038 
L 605.647059 414942.840038 
L 604.482353 414942.840038 
L 603.317647 414942.840038 
L 602.152941 414942.840038 
L 600.988235 414942.840038 
L 599.823529 414942.840038 
L 598.658824 414942.840038 
L 597.494118 414942.840038 
L 596.329412 414942.840038 
L 595.164706 414942.840038 
L 594 414942.840038 
L 592.835294 414942.840038 
L 591.670588 414942.840038 
L 590.505882 414942.840038 
L 589.341176 414942.840038 
L 588.176471 414942.840038 
L 587.011765 414942.840038 
L 585.847059 414942.840038 
L 584.682353 414942.840038 
L 583.517647 414942.840038 
L 582.352941 414942.840038 
L 581.188235 414942.840038 
L 580.023529 414942.840038 
L 578.858824 414942.840038 
L 577.694118 414942.840038 
L 576.529412 414942.840038 
L 575.364706 414942.840038 
L 574.2 414942.840038 
L 573.035294 414942.840038 
L 571.870588 414942.840038 
L 570.705882 414942.840038 
L 569.541176 414942.840038 
L 568.376471 414942.840038 
L 567.211765 414942.840038 
L 566.047059 414942.840038 
L 564.882353 414942.840038 
L 563.717647 414942.840038 
L 562.552941 414942.840038 
L 561.388235 414942.840038 
L 560.223529 414942.840038 
L 559.058824 414942.840038 
L 557.894118 414942.840038 
L 556.729412 414942.840038 
L 555.564706 414942.840038 
L 554.4 414942.840038 
L 553.235294 414942.840038 
L 552.070588 414942.840038 
L 550.905882 414942.840038 
L 549.741176 414942.840038 
L 548.576471 414942.840038 
L 547.411765 414942.840038 
L 546.247059 414942.840038 
L 545.082353 414942.840038 
L 543.917647 414942.840038 
L 542.752941 414942.840038 
L 541.588235 414942.840038 
L 540.423529 414942.840038 
L 539.258824 414942.840038 
L 538.094118 414942.840038 
L 536.929412 414942.840038 
L 535.764706 414942.840038 
L 534.6 414942.840038 
L 533.435294 414942.840038 
L 532.270588 414942.840038 
L 531.105882 414942.840038 
L 529.941176 414942.840038 
L 528.776471 414942.840038 
L 527.611765 414942.840038 
L 526.447059 414942.840038 
L 525.282353 414942.840038 
L 524.117647 414942.840038 
L 522.952941 414942.840038 
L 521.788235 414942.840038 
L 520.623529 414942.840038 
L 519.458824 414942.840038 
L 518.294118 414942.840038 
L 517.129412 414942.840038 
L 515.964706 414942.840038 
L 514.8 414942.840038 
L 513.635294 414942.840038 
L 512.470588 414942.840038 
L 511.305882 414942.840038 
L 510.141176 414942.840038 
L 508.976471 414942.840038 
L 507.811765 414942.840038 
L 506.647059 414942.840038 
L 505.482353 414942.840038 
L 504.317647 414942.840038 
L 503.152941 414942.840038 
L 501.988235 414942.840038 
L 500.823529 414942.840038 
L 499.658824 414942.840038 
L 498.494118 414942.840038 
L 497.329412 414942.840038 
L 496.164706 414942.840038 
L 495 414942.840038 
L 493.835294 414942.840038 
L 492.670588 414942.840038 
L 491.505882 414942.840038 
L 490.341176 414942.840038 
L 489.176471 414942.840038 
L 488.011765 414942.840038 
L 486.847059 414942.840038 
L 485.682353 414942.840038 
L 484.517647 414942.840038 
L 483.352941 414942.840038 
L 482.188235 414942.840038 
L 481.023529 414942.840038 
L 479.858824 414942.840038 
L 478.694118 414942.840038 
L 477.529412 414942.840038 
L 476.364706 414942.840038 
L 475.2 414942.840038 
L 474.035294 414942.840038 
L 472.870588 414942.840038 
L 471.705882 414942.840038 
L 470.541176 414942.840038 
L 469.376471 414942.840038 
L 468.211765 414942.840038 
L 467.047059 414942.840038 
L 465.882353 414942.840038 
L 464.717647 414942.840038 
L 463.552941 414942.840038 
L 462.388235 414942.840038 
L 461.223529 414942.840038 
L 460.058824 414942.840038 
L 458.894118 414942.840038 
L 457.729412 414942.840038 
L 456.564706 414942.840038 
L 455.4 414942.840038 
L 454.235294 414942.840038 
L 453.070588 414942.840038 
L 451.905882 414942.840038 
L 450.741176 414942.840038 
L 449.576471 414942.840038 
L 448.411765 414942.840038 
L 447.247059 414942.840038 
L 446.082353 414942.840038 
L 444.917647 414942.840038 
L 443.752941 414942.840038 
L 442.588235 414942.840038 
L 441.423529 414942.840038 
L 440.258824 414942.840038 
L 439.094118 414942.840038 
L 437.929412 414942.840038 
L 436.764706 414942.840038 
L 435.6 414942.840038 
L 434.435294 414942.840038 
L 433.270588 414942.840038 
L 432.105882 414942.840038 
L 430.941176 414942.840038 
L 429.776471 414942.840038 
L 428.611765 414942.840038 
L 427.447059 414942.840038 
L 426.282353 414942.840038 
L 425.117647 414942.840038 
L 423.952941 414942.840038 
L 422.788235 414942.840038 
L 421.623529 414942.840038 
L 420.458824 414942.840038 
L 419.294118 414942.840038 
L 418.129412 414942.840038 
L 416.964706 414942.840038 
L 415.8 414942.840038 
L 414.635294 414942.840038 
L 413.470588 414942.840038 
L 412.305882 414942.840038 
L 411.141176 414942.840038 
L 409.976471 414942.840038 
L 408.811765 414942.840038 
L 407.647059 414942.840038 
L 406.482353 414942.840038 
L 405.317647 414942.840038 
L 404.152941 414942.840038 
L 402.988235 414942.840038 
L 401.823529 414942.840038 
L 400.658824 414942.840038 
L 399.494118 414942.840038 
L 398.329412 414942.840038 
L 397.164706 414942.840038 
L 396 414942.840038 
L 394.835294 414942.840038 
L 393.670588 414942.840038 
L 392.505882 414942.840038 
L 391.341176 414942.840038 
L 390.176471 414942.840038 
L 389.011765 414942.840038 
L 387.847059 414942.840038 
L 386.682353 414942.840038 
L 385.517647 414942.840038 
L 384.352941 414942.840038 
L 383.188235 414942.840038 
L 382.023529 414942.840038 
L 380.858824 414942.840038 
L 379.694118 414942.840038 
L 378.529412 414942.840038 
L 377.364706 414942.840038 
L 376.2 414942.840038 
L 375.035294 414942.840038 
L 373.870588 414942.840038 
L 372.705882 414942.840038 
L 371.541176 414942.840038 
L 370.376471 414942.840038 
L 369.211765 414942.840038 
L 368.047059 414942.840038 
L 366.882353 414942.840038 
L 365.717647 414942.840038 
L 364.552941 414942.840038 
L 363.388235 414942.840038 
L 362.223529 414942.840038 
L 361.058824 414942.840038 
L 359.894118 414942.840038 
L 358.729412 414942.840038 
L 357.564706 414942.840038 
L 356.4 414942.840038 
L 355.235294 414942.840038 
L 354.070588 414942.840038 
L 352.905882 414942.840038 
L 351.741176 414942.840038 
L 350.576471 414942.840038 
L 349.411765 414942.840038 
L 348.247059 414942.840038 
L 347.082353 414942.840038 
L 345.917647 414942.840038 
L 344.752941 414942.840038 
L 343.588235 414942.840038 
L 342.423529 414942.840038 
L 341.258824 414942.840038 
L 340.094118 414942.840038 
L 338.929412 414942.840038 
L 337.764706 414942.840038 
L 336.6 414942.840038 
L 335.435294 414942.840038 
L 334.270588 414942.840038 
L 333.105882 414942.840038 
L 331.941176 414942.840038 
L 330.776471 414942.840038 
L 329.611765 414942.840038 
L 328.447059 414942.840038 
L 327.282353 414942.840038 
L 326.117647 414942.840038 
L 324.952941 414942.840038 
L 323.788235 414942.840038 
L 322.623529 414942.840038 
L 321.458824 414942.840038 
L 320.294118 414942.840038 
L 319.129412 414942.840038 
L 317.964706 414942.840038 
L 316.8 414942.840038 
L 315.635294 414942.840038 
L 314.470588 414942.840038 
L 313.305882 414942.840038 
L 312.141176 414942.840038 
L 310.976471 414942.840038 
L 309.811765 414942.840038 
L 308.647059 414942.840038 
L 307.482353 414942.840038 
L 306.317647 414942.840038 
L 305.152941 414942.840038 
L 303.988235 414942.840038 
L 302.823529 414942.840038 
L 301.658824 414942.840038 
L 300.494118 414942.840038 
L 299.329412 414942.840038 
L 298.164706 414942.840038 
L 297 414942.840038 
L 295.835294 414942.840038 
L 294.670588 414942.840038 
L 293.505882 414942.840038 
L 292.341176 414942.840038 
L 291.176471 414942.840038 
L 290.011765 414942.840038 
L 288.847059 414942.840038 
L 287.682353 414942.840038 
L 286.517647 414942.840038 
L 285.352941 414942.840038 
L 284.188235 414942.840038 
L 283.023529 414942.840038 
L 281.858824 414942.840038 
L 280.694118 414942.840038 
L 279.529412 414942.840038 
L 278.364706 414942.840038 
L 277.2 414942.840038 
L 276.035294 414942.840038 
L 274.870588 414942.840038 
L 273.705882 414942.840038 
L 272.541176 414942.840038 
L 271.376471 414942.840038 
L 270.211765 414942.840038 
L 269.047059 414942.840038 
L 267.882353 414942.840038 
L 266.717647 414942.840038 
L 265.552941 414942.840038 
L 264.388235 414942.840038 
L 263.223529 414942.840038 
L 262.058824 414942.840038 
L 260.894118 414942.840038 
L 259.729412 414942.840038 
L 258.564706 414942.840038 
L 257.4 414942.840038 
L 256.235294 414942.840038 
L 255.070588 414942.840038 
L 253.905882 414942.840038 
L 252.741176 414942.840038 
L 251.576471 414942.840038 
L 250.411765 414942.840038 
L 249.247059 414942.840038 
L 248.082353 414942.840038 
L 246.917647 414942.840038 
L 245.752941 414942.840038 
L 244.588235 414942.840038 
L 243.423529 414942.840038 
L 242.258824 414942.840038 
L 241.094118 414942.840038 
L 239.929412 414942.840038 
L 238.764706 414942.840038 
L 237.6 414942.840038 
L 236.435294 414942.840038 
L 235.270588 414942.840038 
L 234.105882 414942.840038 
L 232.941176 414942.840038 
L 231.776471 414942.840038 
L 230.611765 414942.840038 
L 229.447059 414942.840038 
L 228.282353 414942.840038 
L 227.117647 414942.840038 
L 225.952941 414942.840038 
L 224.788235 414942.840038 
L 223.623529 414942.840038 
L 222.458824 414942.840038 
L 221.294118 414942.840038 
L 220.129412 414942.840038 
L 218.964706 414942.840038 
L 217.8 414942.840038 
L 216.635294 414942.840038 
L 215.470588 414942.840038 
L 214.305882 414942.840038 
L 213.141176 414942.840038 
L 211.976471 414942.840038 
L 210.811765 414942.840038 
L 209.647059 414942.840038 
L 208.482353 414942.840038 
L 207.317647 414942.840038 
L 206.152941 414942.840038 
L 204.988235 414942.840038 
L 203.823529 414942.840038 
L 202.658824 414942.840038 
L 201.494118 414942.840038 
L 200.329412 414942.840038 
L 199.164706 414942.840038 
L 198 414942.840038 
L 196.835294 414942.840038 
L 195.670588 414942.840038 
L 194.505882 414942.840038 
L 193.341176 414942.840038 
L 192.176471 414942.840038 
L 191.011765 414942.840038 
L 189.847059 414942.840038 
L 188.682353 414942.840038 
L 187.517647 414942.840038 
L 186.352941 414942.840038 
L 185.188235 414942.840038 
L 184.023529 414942.840038 
L 182.858824 414942.840038 
L 181.694118 414942.840038 
L 180.529412 414942.840038 
L 179.364706 414942.840038 
L 178.2 414942.840038 
L 177.035294 414942.840038 
L 175.870588 414942.840038 
L 174.705882 414942.840038 
L 173.541176 414942.840038 
L 172.376471 414942.840038 
L 171.211765 414942.840038 
L 170.047059 414942.840038 
L 168.882353 414942.840038 
L 167.717647 414942.840038 
L 166.552941 414942.840038 
L 165.388235 414942.840038 
L 164.223529 414942.840038 
L 163.058824 414942.840038 
L 161.894118 414942.840038 
L 160.729412 414942.840038 
L 159.564706 414942.840038 
L 158.4 414942.840038 
L 157.235294 414942.840038 
L 156.070588 414942.840038 
L 154.905882 414942.840038 
L 153.741176 414942.840038 
L 152.576471 414942.840038 
L 151.411765 414942.840038 
L 150.247059 414942.840038 
L 149.082353 414942.840038 
L 147.917647 414942.840038 
L 146.752941 414942.840038 
L 145.588235 414942.840038 
L 144.423529 414942.840038 
L 143.258824 414942.840038 
L 142.094118 414942.840038 
L 140.929412 414942.840038 
L 139.764706 414942.840038 
L 138.6 414942.840038 
L 137.435294 414942.840038 
L 136.270588 414942.840038 
L 135.105882 414942.840038 
L 133.941176 414942.840038 
L 132.776471 414942.840038 
L 131.611765 414942.840038 
L 130.447059 414942.840038 
L 129.282353 414942.840038 
L 128.117647 414942.840038 
L 126.952941 414942.840038 
L 125.788235 414942.840038 
L 124.623529 414942.840038 
L 123.458824 414942.840038 
L 122.294118 414942.840038 
L 121.129412 414942.840038 
L 119.964706 414942.840038 
L 118.8 414942.840038 
L 117.635294 414942.840038 
L 116.470588 414942.840038 
L 115.305882 414942.840038 
L 114.141176 414942.840038 
L 112.976471 414942.840038 
L 111.811765 414942.840038 
L 110.647059 414942.840038 
L 109.482353 414942.840038 
L 108.317647 414942.840038 
L 107.152941 414942.840038 
L 105.988235 414942.840038 
L 104.823529 414942.840038 
L 103.658824 414942.840038 
L 102.494118 414942.840038 
L 101.329412 414942.840038 
L 100.164706 414942.840038 
L 99 414942.840038 
z
" style="fill:#8080ff;fill-opacity:0.5;stroke:#8080ff;stroke-opacity:0.5;"/>
   </g>
   <g id="PolyCollection_2">
    <path clip-path="url(#p68e2955192)" d="M 99 414942.840038 
L 99 414942.840038 
L 100.164706 414942.840038 
L 101.329412 414942.840038 
L 102.494118 414942.840038 
L 103.658824 414942.840038 
L 104.823529 414942.840038 
L 105.988235 414942.840038 
L 107.152941 414942.840038 
L 108.317647 414942.840038 
L 109.482353 414942.840038 
L 110.647059 414942.840038 
L 111.811765 414942.840038 
L 112.976471 414942.840038 
L 114.141176 462.683445 
L 115.305882 462.683445 
L 116.470588 462.683445 
L 117.635294 462.683445 
L 118.8 462.683445 
L 119.964706 414942.840038 
L 121.129412 414942.840038 
L 122.294118 414942.840038 
L 123.458824 414942.840038 
L 124.623529 414942.840038 
L 125.788235 414942.840038 
L 126.952941 414942.840038 
L 128.117647 414942.840038 
L 129.282353 414942.840038 
L 130.447059 414942.840038 
L 131.611765 414942.840038 
L 132.776471 414942.840038 
L 133.941176 414942.840038 
L 135.105882 414942.840038 
L 136.270588 414942.840038 
L 137.435294 414942.840038 
L 138.6 414942.840038 
L 139.764706 414942.840038 
L 140.929412 414942.840038 
L 142.094118 414942.840038 
L 143.258824 414942.840038 
L 144.423529 414942.840038 
L 145.588235 414942.840038 
L 146.752941 414942.840038 
L 147.917647 414942.840038 
L 149.082353 414942.840038 
L 150.247059 414942.840038 
L 151.411765 414942.840038 
L 152.576471 414942.840038 
L 153.741176 414942.840038 
L 154.905882 414942.840038 
L 156.070588 414942.840038 
L 157.235294 414942.840038 
L 158.4 414942.840038 
L 159.564706 414942.840038 
L 160.729412 414942.840038 
L 161.894118 414942.840038 
L 163.058824 414942.840038 
L 164.223529 414942.840038 
L 165.388235 414942.840038 
L 166.552941 414942.840038 
L 167.717647 414942.840038 
L 168.882353 414942.840038 
L 170.047059 414942.840038 
L 171.211765 414942.840038 
L 172.376471 414942.840038 
L 173.541176 414942.840038 
L 174.705882 414942.840038 
L 175.870588 414942.840038 
L 177.035294 414942.840038 
L 178.2 414942.840038 
L 179.364706 414942.840038 
L 180.529412 414942.840038 
L 181.694118 414942.840038 
L 182.858824 414942.840038 
L 184.023529 414942.840038 
L 185.188235 414942.840038 
L 186.352941 414942.840038 
L 187.517647 414942.840038 
L 188.682353 414942.840038 
L 189.847059 414942.840038 
L 191.011765 414942.840038 
L 192.176471 414942.840038 
L 193.341176 414942.840038 
L 194.505882 414942.840038 
L 195.670588 414942.840038 
L 196.835294 414942.840038 
L 198 414942.840038 
L 199.164706 414942.840038 
L 200.329412 414942.840038 
L 201.494118 414942.840038 
L 202.658824 414942.840038 
L 203.823529 414942.840038 
L 204.988235 414942.840038 
L 206.152941 414942.840038 
L 207.317647 414942.840038 
L 208.482353 414942.840038 
L 209.647059 414942.840038 
L 210.811765 414942.840038 
L 211.976471 414942.840038 
L 213.141176 414942.840038 
L 214.305882 414942.840038 
L 215.470588 414942.840038 
L 216.635294 414942.840038 
L 217.8 414942.840038 
L 218.964706 414942.840038 
L 220.129412 414942.840038 
L 221.294118 414942.840038 
L 222.458824 414942.840038 
L 223.623529 414942.840038 
L 224.788235 414942.840038 
L 225.952941 414942.840038 
L 227.117647 414942.840038 
L 228.282353 414942.840038 
L 229.447059 414942.840038 
L 230.611765 414942.840038 
L 231.776471 414942.840038 
L 232.941176 414942.840038 
L 234.105882 414942.840038 
L 235.270588 414942.840038 
L 236.435294 414942.840038 
L 237.6 414942.840038 
L 238.764706 414942.840038 
L 239.929412 414942.840038 
L 241.094118 414942.840038 
L 242.258824 414942.840038 
L 243.423529 414942.840038 
L 244.588235 414942.840038 
L 245.752941 414942.840038 
L 246.917647 414942.840038 
L 248.082353 414942.840038 
L 249.247059 414942.840038 
L 250.411765 414942.840038 
L 251.576471 414942.840038 
L 252.741176 414942.840038 
L 253.905882 414942.840038 
L 255.070588 414942.840038 
L 256.235294 414942.840038 
L 257.4 414942.840038 
L 258.564706 414942.840038 
L 259.729412 414942.840038 
L 260.894118 414942.840038 
L 262.058824 414942.840038 
L 263.223529 414942.840038 
L 264.388235 414942.840038 
L 265.552941 414942.840038 
L 266.717647 414942.840038 
L 267.882353 414942.840038 
L 269.047059 414942.840038 
L 270.211765 414942.840038 
L 271.376471 414942.840038 
L 272.541176 414942.840038 
L 273.705882 414942.840038 
L 274.870588 414942.840038 
L 276.035294 414942.840038 
L 277.2 414942.840038 
L 278.364706 414942.840038 
L 279.529412 414942.840038 
L 280.694118 414942.840038 
L 281.858824 414942.840038 
L 283.023529 414942.840038 
L 284.188235 414942.840038 
L 285.352941 414942.840038 
L 286.517647 414942.840038 
L 287.682353 414942.840038 
L 288.847059 414942.840038 
L 290.011765 414942.840038 
L 291.176471 414942.840038 
L 292.341176 414942.840038 
L 293.505882 414942.840038 
L 294.670588 414942.840038 
L 295.835294 414942.840038 
L 297 414942.840038 
L 298.164706 414942.840038 
L 299.329412 414942.840038 
L 300.494118 414942.840038 
L 301.658824 414942.840038 
L 302.823529 414942.840038 
L 303.988235 414942.840038 
L 305.152941 414942.840038 
L 306.317647 414942.840038 
L 307.482353 414942.840038 
L 308.647059 414942.840038 
L 309.811765 414942.840038 
L 310.976471 414942.840038 
L 312.141176 414942.840038 
L 313.305882 414942.840038 
L 314.470588 414942.840038 
L 315.635294 414942.840038 
L 316.8 414942.840038 
L 317.964706 414942.840038 
L 319.129412 414942.840038 
L 320.294118 414942.840038 
L 321.458824 414942.840038 
L 322.623529 414942.840038 
L 323.788235 414942.840038 
L 324.952941 414942.840038 
L 326.117647 414942.840038 
L 327.282353 414942.840038 
L 328.447059 414942.840038 
L 329.611765 414942.840038 
L 330.776471 414942.840038 
L 331.941176 414942.840038 
L 333.105882 414942.840038 
L 334.270588 414942.840038 
L 335.435294 414942.840038 
L 336.6 414942.840038 
L 337.764706 414942.840038 
L 338.929412 414942.840038 
L 340.094118 414942.840038 
L 341.258824 414942.840038 
L 342.423529 414942.840038 
L 343.588235 414942.840038 
L 344.752941 414942.840038 
L 345.917647 414942.840038 
L 347.082353 414942.840038 
L 348.247059 414942.840038 
L 349.411765 414942.840038 
L 350.576471 414942.840038 
L 351.741176 414942.840038 
L 352.905882 414942.840038 
L 354.070588 414942.840038 
L 355.235294 414942.840038 
L 356.4 414942.840038 
L 357.564706 414942.840038 
L 358.729412 414942.840038 
L 359.894118 414942.840038 
L 361.058824 414942.840038 
L 362.223529 414942.840038 
L 363.388235 414942.840038 
L 364.552941 414942.840038 
L 365.717647 414942.840038 
L 366.882353 414942.840038 
L 368.047059 414942.840038 
L 369.211765 414942.840038 
L 370.376471 414942.840038 
L 371.541176 414942.840038 
L 372.705882 414942.840038 
L 373.870588 414942.840038 
L 375.035294 414942.840038 
L 376.2 414942.840038 
L 377.364706 414942.840038 
L 378.529412 414942.840038 
L 379.694118 414942.840038 
L 380.858824 414942.840038 
L 382.023529 414942.840038 
L 383.188235 414942.840038 
L 384.352941 414942.840038 
L 385.517647 414942.840038 
L 386.682353 414942.840038 
L 387.847059 414942.840038 
L 389.011765 414942.840038 
L 390.176471 414942.840038 
L 391.341176 414942.840038 
L 392.505882 414942.840038 
L 393.670588 414942.840038 
L 394.835294 414942.840038 
L 396 414942.840038 
L 397.164706 414942.840038 
L 398.329412 414942.840038 
L 399.494118 414942.840038 
L 400.658824 414942.840038 
L 401.823529 414942.840038 
L 402.988235 414942.840038 
L 404.152941 414942.840038 
L 405.317647 414942.840038 
L 406.482353 414942.840038 
L 407.647059 414942.840038 
L 408.811765 414942.840038 
L 409.976471 414942.840038 
L 411.141176 414942.840038 
L 412.305882 414942.840038 
L 413.470588 414942.840038 
L 414.635294 414942.840038 
L 415.8 414942.840038 
L 416.964706 414942.840038 
L 418.129412 414942.840038 
L 419.294118 414942.840038 
L 420.458824 414942.840038 
L 421.623529 414942.840038 
L 422.788235 414942.840038 
L 423.952941 414942.840038 
L 425.117647 414942.840038 
L 426.282353 414942.840038 
L 427.447059 414942.840038 
L 428.611765 414942.840038 
L 429.776471 414942.840038 
L 430.941176 414942.840038 
L 432.105882 414942.840038 
L 433.270588 414942.840038 
L 434.435294 414942.840038 
L 435.6 414942.840038 
L 436.764706 414942.840038 
L 437.929412 414942.840038 
L 439.094118 414942.840038 
L 440.258824 414942.840038 
L 441.423529 414942.840038 
L 442.588235 414942.840038 
L 443.752941 414942.840038 
L 444.917647 414942.840038 
L 446.082353 414942.840038 
L 447.247059 414942.840038 
L 448.411765 414942.840038 
L 449.576471 414942.840038 
L 450.741176 414942.840038 
L 451.905882 414942.840038 
L 453.070588 414942.840038 
L 454.235294 414942.840038 
L 455.4 414942.840038 
L 456.564706 414942.840038 
L 457.729412 414942.840038 
L 458.894118 414942.840038 
L 460.058824 414942.840038 
L 461.223529 414942.840038 
L 462.388235 414942.840038 
L 463.552941 414942.840038 
L 464.717647 414942.840038 
L 465.882353 414942.840038 
L 467.047059 414942.840038 
L 468.211765 414942.840038 
L 469.376471 414942.840038 
L 470.541176 414942.840038 
L 471.705882 414942.840038 
L 472.870588 414942.840038 
L 474.035294 414942.840038 
L 475.2 414942.840038 
L 476.364706 414942.840038 
L 477.529412 414942.840038 
L 478.694118 414942.840038 
L 479.858824 414942.840038 
L 481.023529 414942.840038 
L 482.188235 414942.840038 
L 483.352941 414942.840038 
L 484.517647 414942.840038 
L 485.682353 414942.840038 
L 486.847059 414942.840038 
L 488.011765 414942.840038 
L 489.176471 414942.840038 
L 490.341176 414942.840038 
L 491.505882 414942.840038 
L 492.670588 414942.840038 
L 493.835294 414942.840038 
L 495 414942.840038 
L 496.164706 414942.840038 
L 497.329412 414942.840038 
L 498.494118 414942.840038 
L 499.658824 414942.840038 
L 500.823529 414942.840038 
L 501.988235 414942.840038 
L 503.152941 414942.840038 
L 504.317647 414942.840038 
L 505.482353 414942.840038 
L 506.647059 414942.840038 
L 507.811765 414942.840038 
L 508.976471 414942.840038 
L 510.141176 414942.840038 
L 511.305882 414942.840038 
L 512.470588 414942.840038 
L 513.635294 414942.840038 
L 514.8 414942.840038 
L 515.964706 414942.840038 
L 517.129412 414942.840038 
L 518.294118 414942.840038 
L 519.458824 414942.840038 
L 520.623529 414942.840038 
L 521.788235 414942.840038 
L 522.952941 414942.840038 
L 524.117647 414942.840038 
L 525.282353 414942.840038 
L 526.447059 414942.840038 
L 527.611765 414942.840038 
L 528.776471 414942.840038 
L 529.941176 414942.840038 
L 531.105882 414942.840038 
L 532.270588 414942.840038 
L 533.435294 414942.840038 
L 534.6 414942.840038 
L 535.764706 414942.840038 
L 536.929412 414942.840038 
L 538.094118 414942.840038 
L 539.258824 414942.840038 
L 540.423529 414942.840038 
L 541.588235 414942.840038 
L 542.752941 414942.840038 
L 543.917647 414942.840038 
L 545.082353 414942.840038 
L 546.247059 414942.840038 
L 547.411765 414942.840038 
L 548.576471 414942.840038 
L 549.741176 414942.840038 
L 550.905882 414942.840038 
L 552.070588 414942.840038 
L 553.235294 414942.840038 
L 554.4 414942.840038 
L 555.564706 414942.840038 
L 556.729412 414942.840038 
L 557.894118 414942.840038 
L 559.058824 414942.840038 
L 560.223529 414942.840038 
L 561.388235 414942.840038 
L 562.552941 414942.840038 
L 563.717647 414942.840038 
L 564.882353 414942.840038 
L 566.047059 414942.840038 
L 567.211765 414942.840038 
L 568.376471 414942.840038 
L 569.541176 414942.840038 
L 570.705882 414942.840038 
L 571.870588 414942.840038 
L 573.035294 414942.840038 
L 574.2 414942.840038 
L 575.364706 414942.840038 
L 576.529412 414942.840038 
L 577.694118 414942.840038 
L 578.858824 414942.840038 
L 580.023529 414942.840038 
L 581.188235 414942.840038 
L 582.352941 414942.840038 
L 583.517647 414942.840038 
L 584.682353 414942.840038 
L 585.847059 414942.840038 
L 587.011765 414942.840038 
L 588.176471 414942.840038 
L 589.341176 414942.840038 
L 590.505882 414942.840038 
L 591.670588 414942.840038 
L 592.835294 414942.840038 
L 594 414942.840038 
L 595.164706 414942.840038 
L 596.329412 414942.840038 
L 597.494118 414942.840038 
L 598.658824 414942.840038 
L 599.823529 414942.840038 
L 600.988235 414942.840038 
L 602.152941 414942.840038 
L 603.317647 414942.840038 
L 604.482353 414942.840038 
L 605.647059 414942.840038 
L 606.811765 414942.840038 
L 607.976471 414942.840038 
L 609.141176 414942.840038 
L 610.305882 414942.840038 
L 611.470588 414942.840038 
L 612.635294 414942.840038 
L 613.8 414942.840038 
L 614.964706 414942.840038 
L 616.129412 414942.840038 
L 617.294118 414942.840038 
L 618.458824 414942.840038 
L 619.623529 414942.840038 
L 620.788235 414942.840038 
L 621.952941 414942.840038 
L 623.117647 414942.840038 
L 624.282353 414942.840038 
L 625.447059 414942.840038 
L 626.611765 414942.840038 
L 627.776471 414942.840038 
L 628.941176 414942.840038 
L 630.105882 414942.840038 
L 631.270588 414942.840038 
L 632.435294 414942.840038 
L 633.6 414942.840038 
L 634.764706 414942.840038 
L 635.929412 414942.840038 
L 637.094118 414942.840038 
L 638.258824 414942.840038 
L 639.423529 414942.840038 
L 640.588235 414942.840038 
L 641.752941 414942.840038 
L 642.917647 414942.840038 
L 644.082353 414942.840038 
L 645.247059 414942.840038 
L 646.411765 414942.840038 
L 647.576471 414942.840038 
L 648.741176 414942.840038 
L 649.905882 414942.840038 
L 651.070588 414942.840038 
L 652.235294 414942.840038 
L 653.4 414942.840038 
L 654.564706 414942.840038 
L 655.729412 414942.840038 
L 656.894118 414942.840038 
L 658.058824 414942.840038 
L 659.223529 414942.840038 
L 660.388235 414942.840038 
L 661.552941 414942.840038 
L 662.717647 414942.840038 
L 663.882353 414942.840038 
L 665.047059 414942.840038 
L 666.211765 414942.840038 
L 667.376471 414942.840038 
L 668.541176 414942.840038 
L 669.705882 414942.840038 
L 670.870588 414942.840038 
L 672.035294 414942.840038 
L 673.2 414942.840038 
L 674.364706 414942.840038 
L 675.529412 414942.840038 
L 676.694118 414942.840038 
L 677.858824 414942.840038 
L 679.023529 414942.840038 
L 680.188235 414942.840038 
L 681.352941 414942.840038 
L 682.517647 414942.840038 
L 683.682353 414942.840038 
L 684.847059 414942.840038 
L 686.011765 414942.840038 
L 687.176471 414942.840038 
L 688.341176 414942.840038 
L 689.505882 414942.840038 
L 690.670588 414942.840038 
L 691.835294 414942.840038 
L 693 414942.840038 
L 694.164706 414942.840038 
L 695.329412 414942.840038 
L 696.494118 414942.840038 
L 697.658824 414942.840038 
L 698.823529 414942.840038 
L 699.988235 414942.840038 
L 701.152941 414942.840038 
L 702.317647 414942.840038 
L 703.482353 414942.840038 
L 704.647059 414942.840038 
L 705.811765 414942.840038 
L 706.976471 414942.840038 
L 708.141176 414942.840038 
L 709.305882 414942.840038 
L 710.470588 414942.840038 
L 711.635294 414942.840038 
L 712.8 414942.840038 
L 712.8 414942.840038 
L 712.8 414942.840038 
L 711.635294 414942.840038 
L 710.470588 414942.840038 
L 709.305882 414942.840038 
L 708.141176 414942.840038 
L 706.976471 414942.840038 
L 705.811765 414942.840038 
L 704.647059 414942.840038 
L 703.482353 414942.840038 
L 702.317647 414942.840038 
L 701.152941 414942.840038 
L 699.988235 414942.840038 
L 698.823529 414942.840038 
L 697.658824 414942.840038 
L 696.494118 414942.840038 
L 695.329412 414942.840038 
L 694.164706 414942.840038 
L 693 414942.840038 
L 691.835294 414942.840038 
L 690.670588 414942.840038 
L 689.505882 414942.840038 
L 688.341176 414942.840038 
L 687.176471 414942.840038 
L 686.011765 414942.840038 
L 684.847059 414942.840038 
L 683.682353 414942.840038 
L 682.517647 414942.840038 
L 681.352941 414942.840038 
L 680.188235 414942.840038 
L 679.023529 414942.840038 
L 677.858824 414942.840038 
L 676.694118 414942.840038 
L 675.529412 414942.840038 
L 674.364706 414942.840038 
L 673.2 414942.840038 
L 672.035294 414942.840038 
L 670.870588 414942.840038 
L 669.705882 414942.840038 
L 668.541176 414942.840038 
L 667.376471 414942.840038 
L 666.211765 414942.840038 
L 665.047059 414942.840038 
L 663.882353 414942.840038 
L 662.717647 414942.840038 
L 661.552941 414942.840038 
L 660.388235 414942.840038 
L 659.223529 414942.840038 
L 658.058824 414942.840038 
L 656.894118 414942.840038 
L 655.729412 414942.840038 
L 654.564706 414942.840038 
L 653.4 414942.840038 
L 652.235294 414942.840038 
L 651.070588 414942.840038 
L 649.905882 414942.840038 
L 648.741176 414942.840038 
L 647.576471 414942.840038 
L 646.411765 414942.840038 
L 645.247059 414942.840038 
L 644.082353 414942.840038 
L 642.917647 414942.840038 
L 641.752941 414942.840038 
L 640.588235 414942.840038 
L 639.423529 414942.840038 
L 638.258824 414942.840038 
L 637.094118 414942.840038 
L 635.929412 414942.840038 
L 634.764706 414942.840038 
L 633.6 414942.840038 
L 632.435294 414942.840038 
L 631.270588 414942.840038 
L 630.105882 414942.840038 
L 628.941176 414942.840038 
L 627.776471 414942.840038 
L 626.611765 414942.840038 
L 625.447059 414942.840038 
L 624.282353 414942.840038 
L 623.117647 414942.840038 
L 621.952941 414942.840038 
L 620.788235 414942.840038 
L 619.623529 414942.840038 
L 618.458824 414942.840038 
L 617.294118 414942.840038 
L 616.129412 414942.840038 
L 614.964706 414942.840038 
L 613.8 414942.840038 
L 612.635294 414942.840038 
L 611.470588 414942.840038 
L 610.305882 414942.840038 
L 609.141176 414942.840038 
L 607.976471 414942.840038 
L 606.811765 414942.840038 
L 605.647059 414942.840038 
L 604.482353 414942.840038 
L 603.317647 414942.840038 
L 602.152941 414942.840038 
L 600.988235 414942.840038 
L 599.823529 414942.840038 
L 598.658824 414942.840038 
L 597.494118 414942.840038 
L 596.329412 414942.840038 
L 595.164706 414942.840038 
L 594 414942.840038 
L 592.835294 414942.840038 
L 591.670588 414942.840038 
L 590.505882 414942.840038 
L 589.341176 414942.840038 
L 588.176471 414942.840038 
L 587.011765 414942.840038 
L 585.847059 414942.840038 
L 584.682353 414942.840038 
L 583.517647 414942.840038 
L 582.352941 414942.840038 
L 581.188235 414942.840038 
L 580.023529 414942.840038 
L 578.858824 414942.840038 
L 577.694118 414942.840038 
L 576.529412 414942.840038 
L 575.364706 414942.840038 
L 574.2 414942.840038 
L 573.035294 414942.840038 
L 571.870588 414942.840038 
L 570.705882 414942.840038 
L 569.541176 414942.840038 
L 568.376471 414942.840038 
L 567.211765 414942.840038 
L 566.047059 414942.840038 
L 564.882353 414942.840038 
L 563.717647 414942.840038 
L 562.552941 414942.840038 
L 561.388235 414942.840038 
L 560.223529 414942.840038 
L 559.058824 414942.840038 
L 557.894118 414942.840038 
L 556.729412 414942.840038 
L 555.564706 414942.840038 
L 554.4 414942.840038 
L 553.235294 414942.840038 
L 552.070588 414942.840038 
L 550.905882 414942.840038 
L 549.741176 414942.840038 
L 548.576471 414942.840038 
L 547.411765 414942.840038 
L 546.247059 414942.840038 
L 545.082353 414942.840038 
L 543.917647 414942.840038 
L 542.752941 414942.840038 
L 541.588235 414942.840038 
L 540.423529 414942.840038 
L 539.258824 414942.840038 
L 538.094118 414942.840038 
L 536.929412 414942.840038 
L 535.764706 414942.840038 
L 534.6 414942.840038 
L 533.435294 414942.840038 
L 532.270588 414942.840038 
L 531.105882 414942.840038 
L 529.941176 414942.840038 
L 528.776471 414942.840038 
L 527.611765 414942.840038 
L 526.447059 414942.840038 
L 525.282353 414942.840038 
L 524.117647 414942.840038 
L 522.952941 414942.840038 
L 521.788235 414942.840038 
L 520.623529 414942.840038 
L 519.458824 414942.840038 
L 518.294118 414942.840038 
L 517.129412 414942.840038 
L 515.964706 414942.840038 
L 514.8 414942.840038 
L 513.635294 414942.840038 
L 512.470588 414942.840038 
L 511.305882 414942.840038 
L 510.141176 414942.840038 
L 508.976471 414942.840038 
L 507.811765 414942.840038 
L 506.647059 414942.840038 
L 505.482353 414942.840038 
L 504.317647 414942.840038 
L 503.152941 414942.840038 
L 501.988235 414942.840038 
L 500.823529 414942.840038 
L 499.658824 414942.840038 
L 498.494118 414942.840038 
L 497.329412 414942.840038 
L 496.164706 414942.840038 
L 495 414942.840038 
L 493.835294 414942.840038 
L 492.670588 414942.840038 
L 491.505882 414942.840038 
L 490.341176 414942.840038 
L 489.176471 414942.840038 
L 488.011765 414942.840038 
L 486.847059 414942.840038 
L 485.682353 414942.840038 
L 484.517647 414942.840038 
L 483.352941 414942.840038 
L 482.188235 414942.840038 
L 481.023529 414942.840038 
L 479.858824 414942.840038 
L 478.694118 414942.840038 
L 477.529412 414942.840038 
L 476.364706 414942.840038 
L 475.2 414942.840038 
L 474.035294 414942.840038 
L 472.870588 414942.840038 
L 471.705882 414942.840038 
L 470.541176 414942.840038 
L 469.376471 414942.840038 
L 468.211765 414942.840038 
L 467.047059 414942.840038 
L 465.882353 414942.840038 
L 464.717647 414942.840038 
L 463.552941 414942.840038 
L 462.388235 414942.840038 
L 461.223529 414942.840038 
L 460.058824 414942.840038 
L 458.894118 414942.840038 
L 457.729412 414942.840038 
L 456.564706 414942.840038 
L 455.4 414942.840038 
L 454.235294 414942.840038 
L 453.070588 414942.840038 
L 451.905882 414942.840038 
L 450.741176 414942.840038 
L 449.576471 414942.840038 
L 448.411765 414942.840038 
L 447.247059 414942.840038 
L 446.082353 414942.840038 
L 444.917647 414942.840038 
L 443.752941 414942.840038 
L 442.588235 414942.840038 
L 441.423529 414942.840038 
L 440.258824 414942.840038 
L 439.094118 414942.840038 
L 437.929412 414942.840038 
L 436.764706 414942.840038 
L 435.6 414942.840038 
L 434.435294 414942.840038 
L 433.270588 414942.840038 
L 432.105882 414942.840038 
L 430.941176 414942.840038 
L 429.776471 414942.840038 
L 428.611765 414942.840038 
L 427.447059 414942.840038 
L 426.282353 414942.840038 
L 425.117647 414942.840038 
L 423.952941 414942.840038 
L 422.788235 414942.840038 
L 421.623529 414942.840038 
L 420.458824 414942.840038 
L 419.294118 414942.840038 
L 418.129412 414942.840038 
L 416.964706 414942.840038 
L 415.8 414942.840038 
L 414.635294 414942.840038 
L 413.470588 414942.840038 
L 412.305882 414942.840038 
L 411.141176 414942.840038 
L 409.976471 414942.840038 
L 408.811765 414942.840038 
L 407.647059 414942.840038 
L 406.482353 414942.840038 
L 405.317647 414942.840038 
L 404.152941 414942.840038 
L 402.988235 414942.840038 
L 401.823529 414942.840038 
L 400.658824 414942.840038 
L 399.494118 414942.840038 
L 398.329412 414942.840038 
L 397.164706 414942.840038 
L 396 414942.840038 
L 394.835294 414942.840038 
L 393.670588 414942.840038 
L 392.505882 414942.840038 
L 391.341176 414942.840038 
L 390.176471 414942.840038 
L 389.011765 414942.840038 
L 387.847059 414942.840038 
L 386.682353 414942.840038 
L 385.517647 414942.840038 
L 384.352941 414942.840038 
L 383.188235 414942.840038 
L 382.023529 414942.840038 
L 380.858824 414942.840038 
L 379.694118 414942.840038 
L 378.529412 414942.840038 
L 377.364706 414942.840038 
L 376.2 414942.840038 
L 375.035294 414942.840038 
L 373.870588 414942.840038 
L 372.705882 414942.840038 
L 371.541176 414942.840038 
L 370.376471 414942.840038 
L 369.211765 414942.840038 
L 368.047059 414942.840038 
L 366.882353 414942.840038 
L 365.717647 414942.840038 
L 364.552941 414942.840038 
L 363.388235 414942.840038 
L 362.223529 414942.840038 
L 361.058824 414942.840038 
L 359.894118 414942.840038 
L 358.729412 414942.840038 
L 357.564706 414942.840038 
L 356.4 414942.840038 
L 355.235294 414942.840038 
L 354.070588 414942.840038 
L 352.905882 414942.840038 
L 351.741176 414942.840038 
L 350.576471 414942.840038 
L 349.411765 414942.840038 
L 348.247059 414942.840038 
L 347.082353 414942.840038 
L 345.917647 414942.840038 
L 344.752941 414942.840038 
L 343.588235 414942.840038 
L 342.423529 414942.840038 
L 341.258824 414942.840038 
L 340.094118 414942.840038 
L 338.929412 414942.840038 
L 337.764706 414942.840038 
L 336.6 414942.840038 
L 335.435294 414942.840038 
L 334.270588 414942.840038 
L 333.105882 414942.840038 
L 331.941176 414942.840038 
L 330.776471 414942.840038 
L 329.611765 414942.840038 
L 328.447059 414942.840038 
L 327.282353 414942.840038 
L 326.117647 414942.840038 
L 324.952941 414942.840038 
L 323.788235 414942.840038 
L 322.623529 414942.840038 
L 321.458824 414942.840038 
L 320.294118 414942.840038 
L 319.129412 414942.840038 
L 317.964706 414942.840038 
L 316.8 414942.840038 
L 315.635294 414942.840038 
L 314.470588 414942.840038 
L 313.305882 414942.840038 
L 312.141176 414942.840038 
L 310.976471 414942.840038 
L 309.811765 414942.840038 
L 308.647059 414942.840038 
L 307.482353 414942.840038 
L 306.317647 414942.840038 
L 305.152941 414942.840038 
L 303.988235 414942.840038 
L 302.823529 414942.840038 
L 301.658824 414942.840038 
L 300.494118 414942.840038 
L 299.329412 414942.840038 
L 298.164706 414942.840038 
L 297 414942.840038 
L 295.835294 414942.840038 
L 294.670588 414942.840038 
L 293.505882 414942.840038 
L 292.341176 414942.840038 
L 291.176471 414942.840038 
L 290.011765 414942.840038 
L 288.847059 414942.840038 
L 287.682353 414942.840038 
L 286.517647 414942.840038 
L 285.352941 414942.840038 
L 284.188235 414942.840038 
L 283.023529 414942.840038 
L 281.858824 414942.840038 
L 280.694118 414942.840038 
L 279.529412 414942.840038 
L 278.364706 414942.840038 
L 277.2 414942.840038 
L 276.035294 414942.840038 
L 274.870588 414942.840038 
L 273.705882 414942.840038 
L 272.541176 414942.840038 
L 271.376471 414942.840038 
L 270.211765 414942.840038 
L 269.047059 414942.840038 
L 267.882353 414942.840038 
L 266.717647 414942.840038 
L 265.552941 414942.840038 
L 264.388235 414942.840038 
L 263.223529 414942.840038 
L 262.058824 414942.840038 
L 260.894118 414942.840038 
L 259.729412 414942.840038 
L 258.564706 414942.840038 
L 257.4 414942.840038 
L 256.235294 414942.840038 
L 255.070588 414942.840038 
L 253.905882 414942.840038 
L 252.741176 414942.840038 
L 251.576471 414942.840038 
L 250.411765 414942.840038 
L 249.247059 414942.840038 
L 248.082353 414942.840038 
L 246.917647 414942.840038 
L 245.752941 414942.840038 
L 244.588235 414942.840038 
L 243.423529 414942.840038 
L 242.258824 414942.840038 
L 241.094118 414942.840038 
L 239.929412 414942.840038 
L 238.764706 414942.840038 
L 237.6 414942.840038 
L 236.435294 414942.840038 
L 235.270588 414942.840038 
L 234.105882 414942.840038 
L 232.941176 414942.840038 
L 231.776471 414942.840038 
L 230.611765 414942.840038 
L 229.447059 414942.840038 
L 228.282353 414942.840038 
L 227.117647 414942.840038 
L 225.952941 414942.840038 
L 224.788235 414942.840038 
L 223.623529 414942.840038 
L 222.458824 414942.840038 
L 221.294118 414942.840038 
L 220.129412 414942.840038 
L 218.964706 414942.840038 
L 217.8 414942.840038 
L 216.635294 414942.840038 
L 215.470588 414942.840038 
L 214.305882 414942.840038 
L 213.141176 414942.840038 
L 211.976471 414942.840038 
L 210.811765 414942.840038 
L 209.647059 414942.840038 
L 208.482353 414942.840038 
L 207.317647 414942.840038 
L 206.152941 414942.840038 
L 204.988235 414942.840038 
L 203.823529 414942.840038 
L 202.658824 414942.840038 
L 201.494118 414942.840038 
L 200.329412 414942.840038 
L 199.164706 414942.840038 
L 198 414942.840038 
L 196.835294 414942.840038 
L 195.670588 414942.840038 
L 194.505882 414942.840038 
L 193.341176 414942.840038 
L 192.176471 414942.840038 
L 191.011765 414942.840038 
L 189.847059 414942.840038 
L 188.682353 414942.840038 
L 187.517647 414942.840038 
L 186.352941 414942.840038 
L 185.188235 414942.840038 
L 184.023529 414942.840038 
L 182.858824 414942.840038 
L 181.694118 414942.840038 
L 180.529412 414942.840038 
L 179.364706 414942.840038 
L 178.2 414942.840038 
L 177.035294 414942.840038 
L 175.870588 414942.840038 
L 174.705882 414942.840038 
L 173.541176 414942.840038 
L 172.376471 414942.840038 
L 171.211765 414942.840038 
L 170.047059 414942.840038 
L 168.882353 414942.840038 
L 167.717647 414942.840038 
L 166.552941 414942.840038 
L 165.388235 414942.840038 
L 164.223529 414942.840038 
L 163.058824 414942.840038 
L 161.894118 414942.840038 
L 160.729412 414942.840038 
L 159.564706 414942.840038 
L 158.4 414942.840038 
L 157.235294 414942.840038 
L 156.070588 414942.840038 
L 154.905882 414942.840038 
L 153.741176 414942.840038 
L 152.576471 414942.840038 
L 151.411765 414942.840038 
L 150.247059 414942.840038 
L 149.082353 414942.840038 
L 147.917647 414942.840038 
L 146.752941 414942.840038 
L 145.588235 414942.840038 
L 144.423529 414942.840038 
L 143.258824 414942.840038 
L 142.094118 414942.840038 
L 140.929412 414942.840038 
L 139.764706 414942.840038 
L 138.6 414942.840038 
L 137.435294 414942.840038 
L 136.270588 414942.840038 
L 135.105882 414942.840038 
L 133.941176 414942.840038 
L 132.776471 414942.840038 
L 131.611765 414942.840038 
L 130.447059 414942.840038 
L 129.282353 414942.840038 
L 128.117647 414942.840038 
L 126.952941 414942.840038 
L 125.788235 414942.840038 
L 124.623529 414942.840038 
L 123.458824 414942.840038 
L 122.294118 414942.840038 
L 121.129412 414942.840038 
L 119.964706 414942.840038 
L 118.8 414942.840038 
L 117.635294 414942.840038 
L 116.470588 414942.840038 
L 115.305882 414942.840038 
L 114.141176 414942.840038 
L 112.976471 414942.840038 
L 111.811765 414942.840038 
L 110.647059 414942.840038 
L 109.482353 414942.840038 
L 108.317647 414942.840038 
L 107.152941 414942.840038 
L 105.988235 414942.840038 
L 104.823529 414942.840038 
L 103.658824 414942.840038 
L 102.494118 414942.840038 
L 101.329412 414942.840038 
L 100.164706 414942.840038 
L 99 414942.840038 
z
" style="fill:#ff8080;fill-opacity:0.5;stroke:#ff8080;stroke-opacity:0.5;"/>
   </g>
   <g id="matplotlib.axis_1">
    <g id="xtick_1">
     <g id="line2d_1">
      <path clip-path="url(#p68e2955192)" d="M 99 544.68 
L 99 73.44 
" style="fill:none;stroke:#b0b0b0;stroke-linecap:square;stroke-width:0.8;"/>
     </g>
     <g id="line2d_2">
      <defs>
       <path d="M 0 0 
L 0 3.5 
" id="m4abed1d830" style="stroke:#000000;stroke-width:0.8;"/>
      </defs>
      <g>
       <use style="stroke:#000000;stroke-width:0.8;" x="99" xlink:href="#m4abed1d830" y="544.68"/>
      </g>
     </g>
    </g>
    <g id="xtick_2">
     <g id="line2d_3">
      <path clip-path="url(#p68e2955192)" d="M 103.658824 544.68 
L 103.658824 73.44 
" style="fill:none;stroke:#b0b0b0;stroke-linecap:square;stroke-width:0.8;"/>
     </g>
     <g id="line2d_4">
      <g>
       <use style="stroke:#000000;stroke-width:0.8;" x="103.658824" xlink:href="#m4abed1d830" y="544.68"/>
      </g>
     </g>
     <g id="text_1">
      <!-- Apr -->
      <g transform="translate(95.008824 559.278437)scale(0.1 -0.1)">
       <defs>
        <path d="M 2188 4044 
L 1331 1722 
L 3047 1722 
L 2188 4044 
z
M 1831 4666 
L 2547 4666 
L 4325 0 
L 3669 0 
L 3244 1197 
L 1141 1197 
L 716 0 
L 50 0 
L 1831 4666 
z
" id="DejaVuSans-41" transform="scale(0.015625)"/>
        <path d="M 1159 525 
L 1159 -1331 
L 581 -1331 
L 581 3500 
L 1159 3500 
L 1159 2969 
Q 1341 3281 1617 3432 
Q 1894 3584 2278 3584 
Q 2916 3584 3314 3078 
Q 3713 2572 3713 1747 
Q 3713 922 3314 415 
Q 2916 -91 2278 -91 
Q 1894 -91 1617 61 
Q 1341 213 1159 525 
z
M 3116 1747 
Q 3116 2381 2855 2742 
Q 2594 3103 2138 3103 
Q 1681 3103 1420 2742 
Q 1159 2381 1159 1747 
Q 1159 1113 1420 752 
Q 1681 391 2138 391 
Q 2594 391 2855 752 
Q 3116 1113 3116 1747 
z
" id="DejaVuSans-70" transform="scale(0.015625)"/>
        <path d="M 2631 2963 
Q 2534 3019 2420 3045 
Q 2306 3072 2169 3072 
Q 1681 3072 1420 2755 
Q 1159 2438 1159 1844 
L 1159 0 
L 581 0 
L 581 3500 
L 1159 3500 
L 1159 2956 
Q 1341 3275 1631 3429 
Q 1922 3584 2338 3584 
Q 2397 3584 2469 3576 
Q 2541 3569 2628 3553 
L 2631 2963 
z
" id="DejaVuSans-72" transform="scale(0.015625)"/>
       </defs>
       <use xlink:href="#DejaVuSans-41"/>
       <use x="68.408203" xlink:href="#DejaVuSans-70"/>
       <use x="131.884766" xlink:href="#DejaVuSans-72"/>
      </g>
     </g>
    </g>
    <g id="xtick_3">
     <g id="line2d_5">
      <path clip-path="url(#p68e2955192)" d="M 209.647059 544.68 
L 209.647059 73.44 
" style="fill:none;stroke:#b0b0b0;stroke-linecap:square;stroke-width:0.8;"/>
     </g>
     <g id="line2d_6">
      <g>
       <use style="stroke:#000000;stroke-width:0.8;" x="209.647059" xlink:href="#m4abed1d830" y="544.68"/>
      </g>
     </g>
     <g id="text_2">
      <!-- Jul -->
      <g transform="translate(203.614246 559.278437)scale(0.1 -0.1)">
       <defs>
        <path d="M 628 4666 
L 1259 4666 
L 1259 325 
Q 1259 -519 939 -900 
Q 619 -1281 -91 -1281 
L -331 -1281 
L -331 -750 
L -134 -750 
Q 284 -750 456 -515 
Q 628 -281 628 325 
L 628 4666 
z
" id="DejaVuSans-4a" transform="scale(0.015625)"/>
        <path d="M 544 1381 
L 544 3500 
L 1119 3500 
L 1119 1403 
Q 1119 906 1312 657 
Q 1506 409 1894 409 
Q 2359 409 2629 706 
Q 2900 1003 2900 1516 
L 2900 3500 
L 3475 3500 
L 3475 0 
L 2900 0 
L 2900 538 
Q 2691 219 2414 64 
Q 2138 -91 1772 -91 
Q 1169 -91 856 284 
Q 544 659 544 1381 
z
M 1991 3584 
L 1991 3584 
z
" id="DejaVuSans-75" transform="scale(0.015625)"/>
        <path d="M 603 4863 
L 1178 4863 
L 1178 0 
L 603 0 
L 603 4863 
z
" id="DejaVuSans-6c" transform="scale(0.015625)"/>
       </defs>
       <use xlink:href="#DejaVuSans-4a"/>
       <use x="29.492188" xlink:href="#DejaVuSans-75"/>
       <use x="92.871094" xlink:href="#DejaVuSans-6c"/>
      </g>
     </g>
    </g>
    <g id="xtick_4">
     <g id="line2d_7">
      <path clip-path="url(#p68e2955192)" d="M 316.8 544.68 
L 316.8 73.44 
" style="fill:none;stroke:#b0b0b0;stroke-linecap:square;stroke-width:0.8;"/>
     </g>
     <g id="line2d_8">
      <g>
       <use style="stroke:#000000;stroke-width:0.8;" x="316.8" xlink:href="#m4abed1d830" y="544.68"/>
      </g>
     </g>
     <g id="text_3">
      <!-- Oct -->
      <g transform="translate(308.154687 559.278437)scale(0.1 -0.1)">
       <defs>
        <path d="M 2522 4238 
Q 1834 4238 1429 3725 
Q 1025 3213 1025 2328 
Q 1025 1447 1429 934 
Q 1834 422 2522 422 
Q 3209 422 3611 934 
Q 4013 1447 4013 2328 
Q 4013 3213 3611 3725 
Q 3209 4238 2522 4238 
z
M 2522 4750 
Q 3503 4750 4090 4092 
Q 4678 3434 4678 2328 
Q 4678 1225 4090 567 
Q 3503 -91 2522 -91 
Q 1538 -91 948 565 
Q 359 1222 359 2328 
Q 359 3434 948 4092 
Q 1538 4750 2522 4750 
z
" id="DejaVuSans-4f" transform="scale(0.015625)"/>
        <path d="M 3122 3366 
L 3122 2828 
Q 2878 2963 2633 3030 
Q 2388 3097 2138 3097 
Q 1578 3097 1268 2742 
Q 959 2388 959 1747 
Q 959 1106 1268 751 
Q 1578 397 2138 397 
Q 2388 397 2633 464 
Q 2878 531 3122 666 
L 3122 134 
Q 2881 22 2623 -34 
Q 2366 -91 2075 -91 
Q 1284 -91 818 406 
Q 353 903 353 1747 
Q 353 2603 823 3093 
Q 1294 3584 2113 3584 
Q 2378 3584 2631 3529 
Q 2884 3475 3122 3366 
z
" id="DejaVuSans-63" transform="scale(0.015625)"/>
        <path d="M 1172 4494 
L 1172 3500 
L 2356 3500 
L 2356 3053 
L 1172 3053 
L 1172 1153 
Q 1172 725 1289 603 
Q 1406 481 1766 481 
L 2356 481 
L 2356 0 
L 1766 0 
Q 1100 0 847 248 
Q 594 497 594 1153 
L 594 3053 
L 172 3053 
L 172 3500 
L 594 3500 
L 594 4494 
L 1172 4494 
z
" id="DejaVuSans-74" transform="scale(0.015625)"/>
       </defs>
       <use xlink:href="#DejaVuSans-4f"/>
       <use x="78.710938" xlink:href="#DejaVuSans-63"/>
       <use x="133.691406" xlink:href="#DejaVuSans-74"/>
      </g>
     </g>
    </g>
    <g id="xtick_5">
     <g id="line2d_9">
      <path clip-path="url(#p68e2955192)" d="M 423.952941 544.68 
L 423.952941 73.44 
" style="fill:none;stroke:#b0b0b0;stroke-linecap:square;stroke-width:0.8;"/>
     </g>
     <g id="line2d_10">
      <g>
       <use style="stroke:#000000;stroke-width:0.8;" x="423.952941" xlink:href="#m4abed1d830" y="544.68"/>
      </g>
     </g>
     <g id="text_4">
      <!-- Jan -->
      <g transform="translate(416.245129 559.278437)scale(0.1 -0.1)">
       <defs>
        <path d="M 2194 1759 
Q 1497 1759 1228 1600 
Q 959 1441 959 1056 
Q 959 750 1161 570 
Q 1363 391 1709 391 
Q 2188 391 2477 730 
Q 2766 1069 2766 1631 
L 2766 1759 
L 2194 1759 
z
M 3341 1997 
L 3341 0 
L 2766 0 
L 2766 531 
Q 2569 213 2275 61 
Q 1981 -91 1556 -91 
Q 1019 -91 701 211 
Q 384 513 384 1019 
Q 384 1609 779 1909 
Q 1175 2209 1959 2209 
L 2766 2209 
L 2766 2266 
Q 2766 2663 2505 2880 
Q 2244 3097 1772 3097 
Q 1472 3097 1187 3025 
Q 903 2953 641 2809 
L 641 3341 
Q 956 3463 1253 3523 
Q 1550 3584 1831 3584 
Q 2591 3584 2966 3190 
Q 3341 2797 3341 1997 
z
" id="DejaVuSans-61" transform="scale(0.015625)"/>
        <path d="M 3513 2113 
L 3513 0 
L 2938 0 
L 2938 2094 
Q 2938 2591 2744 2837 
Q 2550 3084 2163 3084 
Q 1697 3084 1428 2787 
Q 1159 2491 1159 1978 
L 1159 0 
L 581 0 
L 581 3500 
L 1159 3500 
L 1159 2956 
Q 1366 3272 1645 3428 
Q 1925 3584 2291 3584 
Q 2894 3584 3203 3211 
Q 3513 2838 3513 2113 
z
" id="DejaVuSans-6e" transform="scale(0.015625)"/>
       </defs>
       <use xlink:href="#DejaVuSans-4a"/>
       <use x="29.492188" xlink:href="#DejaVuSans-61"/>
       <use x="90.771484" xlink:href="#DejaVuSans-6e"/>
      </g>
      <!-- 2021 -->
      <g transform="translate(411.227941 570.47625)scale(0.1 -0.1)">
       <defs>
        <path d="M 1228 531 
L 3431 531 
L 3431 0 
L 469 0 
L 469 531 
Q 828 903 1448 1529 
Q 2069 2156 2228 2338 
Q 2531 2678 2651 2914 
Q 2772 3150 2772 3378 
Q 2772 3750 2511 3984 
Q 2250 4219 1831 4219 
Q 1534 4219 1204 4116 
Q 875 4013 500 3803 
L 500 4441 
Q 881 4594 1212 4672 
Q 1544 4750 1819 4750 
Q 2544 4750 2975 4387 
Q 3406 4025 3406 3419 
Q 3406 3131 3298 2873 
Q 3191 2616 2906 2266 
Q 2828 2175 2409 1742 
Q 1991 1309 1228 531 
z
" id="DejaVuSans-32" transform="scale(0.015625)"/>
        <path d="M 2034 4250 
Q 1547 4250 1301 3770 
Q 1056 3291 1056 2328 
Q 1056 1369 1301 889 
Q 1547 409 2034 409 
Q 2525 409 2770 889 
Q 3016 1369 3016 2328 
Q 3016 3291 2770 3770 
Q 2525 4250 2034 4250 
z
M 2034 4750 
Q 2819 4750 3233 4129 
Q 3647 3509 3647 2328 
Q 3647 1150 3233 529 
Q 2819 -91 2034 -91 
Q 1250 -91 836 529 
Q 422 1150 422 2328 
Q 422 3509 836 4129 
Q 1250 4750 2034 4750 
z
" id="DejaVuSans-30" transform="scale(0.015625)"/>
        <path d="M 794 531 
L 1825 531 
L 1825 4091 
L 703 3866 
L 703 4441 
L 1819 4666 
L 2450 4666 
L 2450 531 
L 3481 531 
L 3481 0 
L 794 0 
L 794 531 
z
" id="DejaVuSans-31" transform="scale(0.015625)"/>
       </defs>
       <use xlink:href="#DejaVuSans-32"/>
       <use x="63.623047" xlink:href="#DejaVuSans-30"/>
       <use x="127.246094" xlink:href="#DejaVuSans-32"/>
       <use x="190.869141" xlink:href="#DejaVuSans-31"/>
      </g>
     </g>
    </g>
    <g id="xtick_6">
     <g id="line2d_11">
      <path clip-path="url(#p68e2955192)" d="M 528.776471 544.68 
L 528.776471 73.44 
" style="fill:none;stroke:#b0b0b0;stroke-linecap:square;stroke-width:0.8;"/>
     </g>
     <g id="line2d_12">
      <g>
       <use style="stroke:#000000;stroke-width:0.8;" x="528.776471" xlink:href="#m4abed1d830" y="544.68"/>
      </g>
     </g>
     <g id="text_5">
      <!-- Apr -->
      <g transform="translate(520.126471 559.278437)scale(0.1 -0.1)">
       <use xlink:href="#DejaVuSans-41"/>
       <use x="68.408203" xlink:href="#DejaVuSans-70"/>
       <use x="131.884766" xlink:href="#DejaVuSans-72"/>
      </g>
     </g>
    </g>
    <g id="xtick_7">
     <g id="line2d_13">
      <path clip-path="url(#p68e2955192)" d="M 634.764706 544.68 
L 634.764706 73.44 
" style="fill:none;stroke:#b0b0b0;stroke-linecap:square;stroke-width:0.8;"/>
     </g>
     <g id="line2d_14">
      <g>
       <use style="stroke:#000000;stroke-width:0.8;" x="634.764706" xlink:href="#m4abed1d830" y="544.68"/>
      </g>
     </g>
     <g id="text_6">
      <!-- Jul -->
      <g transform="translate(628.731893 559.278437)scale(0.1 -0.1)">
       <use xlink:href="#DejaVuSans-4a"/>
       <use x="29.492188" xlink:href="#DejaVuSans-75"/>
       <use x="92.871094" xlink:href="#DejaVuSans-6c"/>
      </g>
     </g>
    </g>
    <g id="xtick_8">
     <g id="line2d_15">
      <path clip-path="url(#p68e2955192)" d="M 712.8 544.68 
L 712.8 73.44 
" style="fill:none;stroke:#b0b0b0;stroke-linecap:square;stroke-width:0.8;"/>
     </g>
     <g id="line2d_16">
      <g>
       <use style="stroke:#000000;stroke-width:0.8;" x="712.8" xlink:href="#m4abed1d830" y="544.68"/>
      </g>
     </g>
    </g>
    <g id="xtick_9">
     <g id="line2d_17">
      <defs>
       <path d="M 0 0 
L 0 2 
" id="mbe9820739d" style="stroke:#000000;stroke-width:0.6;"/>
      </defs>
      <g>
       <use style="stroke:#000000;stroke-width:0.6;" x="138.6" xlink:href="#mbe9820739d" y="544.68"/>
      </g>
     </g>
    </g>
    <g id="xtick_10">
     <g id="line2d_18">
      <g>
       <use style="stroke:#000000;stroke-width:0.6;" x="174.705882" xlink:href="#mbe9820739d" y="544.68"/>
      </g>
     </g>
    </g>
    <g id="xtick_11">
     <g id="line2d_19">
      <g>
       <use style="stroke:#000000;stroke-width:0.6;" x="245.752941" xlink:href="#mbe9820739d" y="544.68"/>
      </g>
     </g>
    </g>
    <g id="xtick_12">
     <g id="line2d_20">
      <g>
       <use style="stroke:#000000;stroke-width:0.6;" x="281.858824" xlink:href="#mbe9820739d" y="544.68"/>
      </g>
     </g>
    </g>
    <g id="xtick_13">
     <g id="line2d_21">
      <g>
       <use style="stroke:#000000;stroke-width:0.6;" x="352.905882" xlink:href="#mbe9820739d" y="544.68"/>
      </g>
     </g>
    </g>
    <g id="xtick_14">
     <g id="line2d_22">
      <g>
       <use style="stroke:#000000;stroke-width:0.6;" x="387.847059" xlink:href="#mbe9820739d" y="544.68"/>
      </g>
     </g>
    </g>
    <g id="xtick_15">
     <g id="line2d_23">
      <g>
       <use style="stroke:#000000;stroke-width:0.6;" x="460.058824" xlink:href="#mbe9820739d" y="544.68"/>
      </g>
     </g>
    </g>
    <g id="xtick_16">
     <g id="line2d_24">
      <g>
       <use style="stroke:#000000;stroke-width:0.6;" x="492.670588" xlink:href="#mbe9820739d" y="544.68"/>
      </g>
     </g>
    </g>
    <g id="xtick_17">
     <g id="line2d_25">
      <g>
       <use style="stroke:#000000;stroke-width:0.6;" x="563.717647" xlink:href="#mbe9820739d" y="544.68"/>
      </g>
     </g>
    </g>
    <g id="xtick_18">
     <g id="line2d_26">
      <g>
       <use style="stroke:#000000;stroke-width:0.6;" x="599.823529" xlink:href="#mbe9820739d" y="544.68"/>
      </g>
     </g>
    </g>
    <g id="xtick_19">
     <g id="line2d_27">
      <g>
       <use style="stroke:#000000;stroke-width:0.6;" x="670.870588" xlink:href="#mbe9820739d" y="544.68"/>
      </g>
     </g>
    </g>
    <g id="xtick_20">
     <g id="line2d_28">
      <g>
       <use style="stroke:#000000;stroke-width:0.6;" x="706.976471" xlink:href="#mbe9820739d" y="544.68"/>
      </g>
     </g>
    </g>
    <g id="text_7">
     <!-- Date -->
     <g transform="translate(393.949219 584.154375)scale(0.1 -0.1)">
      <defs>
       <path d="M 1259 4147 
L 1259 519 
L 2022 519 
Q 2988 519 3436 956 
Q 3884 1394 3884 2338 
Q 3884 3275 3436 3711 
Q 2988 4147 2022 4147 
L 1259 4147 
z
M 628 4666 
L 1925 4666 
Q 3281 4666 3915 4102 
Q 4550 3538 4550 2338 
Q 4550 1131 3912 565 
Q 3275 0 1925 0 
L 628 0 
L 628 4666 
z
" id="DejaVuSans-44" transform="scale(0.015625)"/>
       <path d="M 3597 1894 
L 3597 1613 
L 953 1613 
Q 991 1019 1311 708 
Q 1631 397 2203 397 
Q 2534 397 2845 478 
Q 3156 559 3463 722 
L 3463 178 
Q 3153 47 2828 -22 
Q 2503 -91 2169 -91 
Q 1331 -91 842 396 
Q 353 884 353 1716 
Q 353 2575 817 3079 
Q 1281 3584 2069 3584 
Q 2775 3584 3186 3129 
Q 3597 2675 3597 1894 
z
M 3022 2063 
Q 3016 2534 2758 2815 
Q 2500 3097 2075 3097 
Q 1594 3097 1305 2825 
Q 1016 2553 972 2059 
L 3022 2063 
z
" id="DejaVuSans-65" transform="scale(0.015625)"/>
      </defs>
      <use xlink:href="#DejaVuSans-44"/>
      <use x="77.001953" xlink:href="#DejaVuSans-61"/>
      <use x="138.28125" xlink:href="#DejaVuSans-74"/>
      <use x="177.490234" xlink:href="#DejaVuSans-65"/>
     </g>
    </g>
   </g>
   <g id="matplotlib.axis_2">
    <g id="ytick_1">
     <g id="line2d_29">
      <path clip-path="url(#p68e2955192)" d="M 99 398.46971 
L 712.8 398.46971 
" style="fill:none;stroke:#b0b0b0;stroke-linecap:square;stroke-width:0.8;"/>
     </g>
     <g id="line2d_30">
      <defs>
       <path d="M 0 0 
L -3.5 0 
" id="me91a084207" style="stroke:#000000;stroke-width:0.8;"/>
      </defs>
      <g>
       <use style="stroke:#000000;stroke-width:0.8;" x="99" xlink:href="#me91a084207" y="398.46971"/>
      </g>
     </g>
     <g id="text_8">
      <!-- $\mathdefault{10^{0}}$ -->
      <g transform="translate(74.4 402.268929)scale(0.1 -0.1)">
       <use transform="translate(0 0.765625)" xlink:href="#DejaVuSans-31"/>
       <use transform="translate(63.623047 0.765625)" xlink:href="#DejaVuSans-30"/>
       <use transform="translate(128.203125 39.046875)scale(0.7)" xlink:href="#DejaVuSans-30"/>
      </g>
     </g>
    </g>
    <g id="ytick_2">
     <g id="line2d_31">
      <path clip-path="url(#p68e2955192)" d="M 99 523.26 
L 712.8 523.26 
" style="fill:none;stroke:#b0b0b0;stroke-linecap:square;stroke-width:0.8;"/>
     </g>
     <g id="line2d_32">
      <defs>
       <path d="M 0 0 
L -2 0 
" id="m0cb60b688e" style="stroke:#000000;stroke-width:0.6;"/>
      </defs>
      <g>
       <use style="stroke:#000000;stroke-width:0.6;" x="99" xlink:href="#m0cb60b688e" y="523.26"/>
      </g>
     </g>
    </g>
    <g id="ytick_3">
     <g id="line2d_33">
      <path clip-path="url(#p68e2955192)" d="M 99 490.43586 
L 712.8 490.43586 
" style="fill:none;stroke:#b0b0b0;stroke-linecap:square;stroke-width:0.8;"/>
     </g>
     <g id="line2d_34">
      <g>
       <use style="stroke:#000000;stroke-width:0.6;" x="99" xlink:href="#m0cb60b688e" y="490.43586"/>
      </g>
     </g>
    </g>
    <g id="ytick_4">
     <g id="line2d_35">
      <path clip-path="url(#p68e2955192)" d="M 99 462.683445 
L 712.8 462.683445 
" style="fill:none;stroke:#b0b0b0;stroke-linecap:square;stroke-width:0.8;"/>
     </g>
     <g id="line2d_36">
      <g>
       <use style="stroke:#000000;stroke-width:0.6;" x="99" xlink:href="#m0cb60b688e" y="462.683445"/>
      </g>
     </g>
    </g>
    <g id="ytick_5">
     <g id="line2d_37">
      <path clip-path="url(#p68e2955192)" d="M 99 438.64321 
L 712.8 438.64321 
" style="fill:none;stroke:#b0b0b0;stroke-linecap:square;stroke-width:0.8;"/>
     </g>
     <g id="line2d_38">
      <g>
       <use style="stroke:#000000;stroke-width:0.6;" x="99" xlink:href="#m0cb60b688e" y="438.64321"/>
      </g>
     </g>
    </g>
    <g id="ytick_6">
     <g id="line2d_39">
      <path clip-path="url(#p68e2955192)" d="M 99 417.43822 
L 712.8 417.43822 
" style="fill:none;stroke:#b0b0b0;stroke-linecap:square;stroke-width:0.8;"/>
     </g>
     <g id="line2d_40">
      <g>
       <use style="stroke:#000000;stroke-width:0.6;" x="99" xlink:href="#m0cb60b688e" y="417.43822"/>
      </g>
     </g>
    </g>
    <g id="ytick_7">
     <g id="line2d_41">
      <path clip-path="url(#p68e2955192)" d="M 99 273.67942 
L 712.8 273.67942 
" style="fill:none;stroke:#b0b0b0;stroke-linecap:square;stroke-width:0.8;"/>
     </g>
     <g id="line2d_42">
      <g>
       <use style="stroke:#000000;stroke-width:0.6;" x="99" xlink:href="#m0cb60b688e" y="273.67942"/>
      </g>
     </g>
    </g>
    <g id="ytick_8">
     <g id="line2d_43">
      <path clip-path="url(#p68e2955192)" d="M 99 200.68178 
L 712.8 200.68178 
" style="fill:none;stroke:#b0b0b0;stroke-linecap:square;stroke-width:0.8;"/>
     </g>
     <g id="line2d_44">
      <g>
       <use style="stroke:#000000;stroke-width:0.6;" x="99" xlink:href="#m0cb60b688e" y="200.68178"/>
      </g>
     </g>
    </g>
    <g id="ytick_9">
     <g id="line2d_45">
      <path clip-path="url(#p68e2955192)" d="M 99 148.88913 
L 712.8 148.88913 
" style="fill:none;stroke:#b0b0b0;stroke-linecap:square;stroke-width:0.8;"/>
     </g>
     <g id="line2d_46">
      <g>
       <use style="stroke:#000000;stroke-width:0.6;" x="99" xlink:href="#m0cb60b688e" y="148.88913"/>
      </g>
     </g>
    </g>
    <g id="ytick_10">
     <g id="line2d_47">
      <path clip-path="url(#p68e2955192)" d="M 99 108.71563 
L 712.8 108.71563 
" style="fill:none;stroke:#b0b0b0;stroke-linecap:square;stroke-width:0.8;"/>
     </g>
     <g id="line2d_48">
      <g>
       <use style="stroke:#000000;stroke-width:0.6;" x="99" xlink:href="#m0cb60b688e" y="108.71563"/>
      </g>
     </g>
    </g>
    <g id="ytick_11">
     <g id="line2d_49">
      <path clip-path="url(#p68e2955192)" d="M 99 75.89149 
L 712.8 75.89149 
" style="fill:none;stroke:#b0b0b0;stroke-linecap:square;stroke-width:0.8;"/>
     </g>
     <g id="line2d_50">
      <g>
       <use style="stroke:#000000;stroke-width:0.6;" x="99" xlink:href="#m0cb60b688e" y="75.89149"/>
      </g>
     </g>
    </g>
   </g>
   <g id="line2d_51">
    <path clip-path="url(#p68e2955192)" d="M 256.235042 613 
L 256.235294 523.26 
L 258.564706 523.26 
L 258.564958 613 
M 260.893865 613 
L 260.894118 523.26 
L 260.89437 613 
M 691.835042 613 
L 691.835294 523.26 
L 691.835546 613 
M 699.987983 613 
L 699.988235 523.26 
L 704.647059 523.26 
L 704.647311 613 
L 704.647311 613 
" style="fill:none;stroke:#1f77b4;stroke-linecap:square;stroke-width:1.5;"/>
   </g>
   <g id="line2d_52">
    <path clip-path="url(#p68e2955192)" d="M 0 0 
" style="fill:none;stroke:#ff7f0e;stroke-linecap:square;stroke-width:1.5;"/>
   </g>
   <g id="patch_3">
    <path d="M 99 544.68 
L 99 73.44 
" style="fill:none;stroke:#000000;stroke-linecap:square;stroke-linejoin:miter;stroke-width:0.8;"/>
   </g>
   <g id="patch_4">
    <path d="M 712.8 544.68 
L 712.8 73.44 
" style="fill:none;stroke:#000000;stroke-linecap:square;stroke-linejoin:miter;stroke-width:0.8;"/>
   </g>
   <g id="patch_5">
    <path d="M 99 544.68 
L 712.8 544.68 
" style="fill:none;stroke:#000000;stroke-linecap:square;stroke-linejoin:miter;stroke-width:0.8;"/>
   </g>
   <g id="patch_6">
    <path d="M 99 73.44 
L 712.8 73.44 
" style="fill:none;stroke:#000000;stroke-linecap:square;stroke-linejoin:miter;stroke-width:0.8;"/>
   </g>
   <g id="legend_1">
    <g id="patch_7">
     <path d="M 616.653125 110.79625 
L 705.8 110.79625 
Q 707.8 110.79625 707.8 108.79625 
L 707.8 80.44 
Q 707.8 78.44 705.8 78.44 
L 616.653125 78.44 
Q 614.653125 78.44 614.653125 80.44 
L 614.653125 108.79625 
Q 614.653125 110.79625 616.653125 110.79625 
z
" style="fill:#ffffff;opacity:0.8;stroke:#cccccc;stroke-linejoin:miter;"/>
    </g>
    <g id="line2d_53">
     <path d="M 618.653125 86.538437 
L 638.653125 86.538437 
" style="fill:none;stroke:#1f77b4;stroke-linecap:square;stroke-width:1.5;"/>
    </g>
    <g id="line2d_54"/>
    <g id="text_9">
     <!-- Avg Cases -->
     <g transform="translate(646.653125 90.038437)scale(0.1 -0.1)">
      <defs>
       <path d="M 191 3500 
L 800 3500 
L 1894 563 
L 2988 3500 
L 3597 3500 
L 2284 0 
L 1503 0 
L 191 3500 
z
" id="DejaVuSans-76" transform="scale(0.015625)"/>
       <path d="M 2906 1791 
Q 2906 2416 2648 2759 
Q 2391 3103 1925 3103 
Q 1463 3103 1205 2759 
Q 947 2416 947 1791 
Q 947 1169 1205 825 
Q 1463 481 1925 481 
Q 2391 481 2648 825 
Q 2906 1169 2906 1791 
z
M 3481 434 
Q 3481 -459 3084 -895 
Q 2688 -1331 1869 -1331 
Q 1566 -1331 1297 -1286 
Q 1028 -1241 775 -1147 
L 775 -588 
Q 1028 -725 1275 -790 
Q 1522 -856 1778 -856 
Q 2344 -856 2625 -561 
Q 2906 -266 2906 331 
L 2906 616 
Q 2728 306 2450 153 
Q 2172 0 1784 0 
Q 1141 0 747 490 
Q 353 981 353 1791 
Q 353 2603 747 3093 
Q 1141 3584 1784 3584 
Q 2172 3584 2450 3431 
Q 2728 3278 2906 2969 
L 2906 3500 
L 3481 3500 
L 3481 434 
z
" id="DejaVuSans-67" transform="scale(0.015625)"/>
       <path id="DejaVuSans-20" transform="scale(0.015625)"/>
       <path d="M 4122 4306 
L 4122 3641 
Q 3803 3938 3442 4084 
Q 3081 4231 2675 4231 
Q 1875 4231 1450 3742 
Q 1025 3253 1025 2328 
Q 1025 1406 1450 917 
Q 1875 428 2675 428 
Q 3081 428 3442 575 
Q 3803 722 4122 1019 
L 4122 359 
Q 3791 134 3420 21 
Q 3050 -91 2638 -91 
Q 1578 -91 968 557 
Q 359 1206 359 2328 
Q 359 3453 968 4101 
Q 1578 4750 2638 4750 
Q 3056 4750 3426 4639 
Q 3797 4528 4122 4306 
z
" id="DejaVuSans-43" transform="scale(0.015625)"/>
       <path d="M 2834 3397 
L 2834 2853 
Q 2591 2978 2328 3040 
Q 2066 3103 1784 3103 
Q 1356 3103 1142 2972 
Q 928 2841 928 2578 
Q 928 2378 1081 2264 
Q 1234 2150 1697 2047 
L 1894 2003 
Q 2506 1872 2764 1633 
Q 3022 1394 3022 966 
Q 3022 478 2636 193 
Q 2250 -91 1575 -91 
Q 1294 -91 989 -36 
Q 684 19 347 128 
L 347 722 
Q 666 556 975 473 
Q 1284 391 1588 391 
Q 1994 391 2212 530 
Q 2431 669 2431 922 
Q 2431 1156 2273 1281 
Q 2116 1406 1581 1522 
L 1381 1569 
Q 847 1681 609 1914 
Q 372 2147 372 2553 
Q 372 3047 722 3315 
Q 1072 3584 1716 3584 
Q 2034 3584 2315 3537 
Q 2597 3491 2834 3397 
z
" id="DejaVuSans-73" transform="scale(0.015625)"/>
      </defs>
      <use xlink:href="#DejaVuSans-41"/>
      <use x="62.533203" xlink:href="#DejaVuSans-76"/>
      <use x="121.712891" xlink:href="#DejaVuSans-67"/>
      <use x="185.189453" xlink:href="#DejaVuSans-20"/>
      <use x="216.976562" xlink:href="#DejaVuSans-43"/>
      <use x="286.800781" xlink:href="#DejaVuSans-61"/>
      <use x="348.080078" xlink:href="#DejaVuSans-73"/>
      <use x="400.179688" xlink:href="#DejaVuSans-65"/>
      <use x="461.703125" xlink:href="#DejaVuSans-73"/>
     </g>
    </g>
    <g id="line2d_55">
     <path d="M 618.653125 101.216562 
L 638.653125 101.216562 
" style="fill:none;stroke:#ff7f0e;stroke-linecap:square;stroke-width:1.5;"/>
    </g>
    <g id="line2d_56"/>
    <g id="text_10">
     <!-- Avg Deaths -->
     <g transform="translate(646.653125 104.716562)scale(0.1 -0.1)">
      <defs>
       <path d="M 3513 2113 
L 3513 0 
L 2938 0 
L 2938 2094 
Q 2938 2591 2744 2837 
Q 2550 3084 2163 3084 
Q 1697 3084 1428 2787 
Q 1159 2491 1159 1978 
L 1159 0 
L 581 0 
L 581 4863 
L 1159 4863 
L 1159 2956 
Q 1366 3272 1645 3428 
Q 1925 3584 2291 3584 
Q 2894 3584 3203 3211 
Q 3513 2838 3513 2113 
z
" id="DejaVuSans-68" transform="scale(0.015625)"/>
      </defs>
      <use xlink:href="#DejaVuSans-41"/>
      <use x="62.533203" xlink:href="#DejaVuSans-76"/>
      <use x="121.712891" xlink:href="#DejaVuSans-67"/>
      <use x="185.189453" xlink:href="#DejaVuSans-20"/>
      <use x="216.976562" xlink:href="#DejaVuSans-44"/>
      <use x="293.978516" xlink:href="#DejaVuSans-65"/>
      <use x="355.501953" xlink:href="#DejaVuSans-61"/>
      <use x="416.78125" xlink:href="#DejaVuSans-74"/>
      <use x="455.990234" xlink:href="#DejaVuSans-68"/>
      <use x="519.369141" xlink:href="#DejaVuSans-73"/>
     </g>
    </g>
   </g>
  </g>
 </g>
 <defs>
  <clipPath id="p68e2955192">
   <rect height="471.24" width="613.8" x="99" y="73.44"/>
  </clipPath>
 </defs>
</svg>
