<?xml version="1.0" encoding="utf-8" standalone="no"?>
<!DOCTYPE svg PUBLIC "-//W3C//DTD SVG 1.1//EN"
  "http://www.w3.org/Graphics/SVG/1.1/DTD/svg11.dtd">
<svg height="612pt" version="1.1" viewBox="0 0 792 612" width="792pt" xmlns="http://www.w3.org/2000/svg" xmlns:xlink="http://www.w3.org/1999/xlink">
 <metadata>
  <rdf:RDF xmlns:cc="http://creativecommons.org/ns#" xmlns:dc="http://purl.org/dc/elements/1.1/" xmlns:rdf="http://www.w3.org/1999/02/22-rdf-syntax-ns#">
   <cc:Work>
    <dc:type rdf:resource="http://purl.org/dc/dcmitype/StillImage"/>
    <dc:format>image/svg+xml</dc:format>
    <dc:creator>
     <cc:Agent>
      <dc:title>Matplotlib v3.4.2, https://matplotlib.org/</dc:title>
     </cc:Agent>
    </dc:creator>
   </cc:Work>
  </rdf:RDF>
 </metadata>
 <defs>
  <style type="text/css">*{stroke-linecap:butt;stroke-linejoin:round;}</style>
 </defs>
 <g id="figure_1">
  <g id="patch_1">
   <path d="M 0 612 
L 792 612 
L 792 0 
L 0 0 
z
" style="fill:#ffffff;"/>
  </g>
  <g id="axes_1">
   <g id="patch_2">
    <path d="M 99 544.68 
L 712.8 544.68 
L 712.8 73.44 
L 99 73.44 
z
" style="fill:#ffffff;"/>
   </g>
   <g id="PolyCollection_1">
    <path clip-path="url(#p68e2955192)" d="M 99 414942.840038 
L 99 414942.840038 
L 100.208268 414942.840038 
L 101.416535 414942.840038 
L 102.624803 414942.840038 
L 103.833071 414942.840038 
L 105.041339 414942.840038 
L 106.249606 414942.840038 
L 107.457874 414942.840038 
L 108.666142 414942.840038 
L 109.874409 414942.840038 
L 111.082677 414942.840038 
L 112.290945 414942.840038 
L 113.499213 414942.840038 
L 114.70748 219.65029 
L 115.915748 219.65029 
L 117.124016 219.65029 
L 118.332283 219.65029 
L 119.540551 219.65029 
L 120.748819 273.67942 
L 121.957087 337.893155 
L 123.165354 302.938407 
L 124.373622 302.938407 
L 125.58189 302.938407 
L 126.790157 302.938407 
L 127.998425 302.938407 
L 129.206693 462.683445 
L 130.414961 462.683445 
L 131.623228 462.683445 
L 132.831496 462.683445 
L 134.039764 462.683445 
L 135.248031 462.683445 
L 136.456299 414942.840038 
L 137.664567 414942.840038 
L 138.872835 414942.840038 
L 140.081102 414942.840038 
L 141.28937 414942.840038 
L 142.497638 414942.840038 
L 143.705906 414942.840038 
L 144.914173 414942.840038 
L 146.122441 414942.840038 
L 147.330709 414942.840038 
L 148.538976 414942.840038 
L 149.747244 462.683445 
L 150.955512 462.683445 
L 152.16378 398.46971 
L 153.372047 398.46971 
L 154.580315 398.46971 
L 155.788583 398.46971 
L 156.99685 398.46971 
L 158.205118 302.938407 
L 159.413386 302.938407 
L 160.621654 302.938407 
L 161.829921 302.938407 
L 163.038189 302.938407 
L 164.246457 302.938407 
L 165.454724 302.938407 
L 166.662992 302.938407 
L 167.87126 302.938407 
L 169.079528 462.683445 
L 170.287795 462.683445 
L 171.496063 462.683445 
L 172.704331 462.683445 
L 173.912598 462.683445 
L 175.120866 414942.840038 
L 176.329134 414942.840038 
L 177.537402 414942.840038 
L 178.745669 462.683445 
L 179.953937 398.46971 
L 181.162205 398.46971 
L 182.370472 398.46971 
L 183.57874 398.46971 
L 184.787008 398.46971 
L 185.995276 398.46971 
L 187.203543 302.938407 
L 188.411811 302.938407 
L 189.620079 302.938407 
L 190.828346 302.938407 
L 192.036614 302.938407 
L 193.244882 302.938407 
L 194.45315 302.938407 
L 195.661417 302.938407 
L 196.869685 302.938407 
L 198.077953 398.46971 
L 199.28622 398.46971 
L 200.494488 398.46971 
L 201.702756 462.683445 
L 202.911024 414942.840038 
L 204.119291 414942.840038 
L 205.327559 414942.840038 
L 206.535827 414942.840038 
L 207.744094 414942.840038 
L 208.952362 414942.840038 
L 210.16063 414942.840038 
L 211.368898 414942.840038 
L 212.577165 414942.840038 
L 213.785433 414942.840038 
L 214.993701 414942.840038 
L 216.201969 414942.840038 
L 217.410236 414942.840038 
L 218.618504 414942.840038 
L 219.826772 414942.840038 
L 221.035039 414942.840038 
L 222.243307 414942.840038 
L 223.451575 414942.840038 
L 224.659843 414942.840038 
L 225.86811 462.683445 
L 227.076378 462.683445 
L 228.284646 462.683445 
L 229.492913 302.938407 
L 230.701181 302.938407 
L 231.909449 302.938407 
L 233.117717 302.938407 
L 234.325984 302.938407 
L 235.534252 302.938407 
L 236.74252 302.938407 
L 237.950787 302.938407 
L 239.159055 302.938407 
L 240.367323 302.938407 
L 241.575591 302.938407 
L 242.783858 302.938407 
L 243.992126 302.938407 
L 245.200394 302.938407 
L 246.408661 398.46971 
L 247.616929 398.46971 
L 248.825197 302.938407 
L 250.033465 302.938407 
L 251.241732 273.67942 
L 252.45 273.67942 
L 253.658268 273.67942 
L 254.866535 273.67942 
L 256.074803 273.67942 
L 257.283071 273.67942 
L 258.491339 273.67942 
L 259.699606 302.938407 
L 260.907874 302.938407 
L 262.116142 302.938407 
L 263.324409 302.938407 
L 264.532677 302.938407 
L 265.740945 398.46971 
L 266.949213 398.46971 
L 268.15748 398.46971 
L 269.365748 398.46971 
L 270.574016 398.46971 
L 271.782283 398.46971 
L 272.990551 398.46971 
L 274.198819 398.46971 
L 275.407087 398.46971 
L 276.615354 398.46971 
L 277.823622 398.46971 
L 279.03189 398.46971 
L 280.240157 398.46971 
L 281.448425 398.46971 
L 282.656693 398.46971 
L 283.864961 462.683445 
L 285.073228 302.938407 
L 286.281496 302.938407 
L 287.489764 462.683445 
L 288.698031 462.683445 
L 289.906299 462.683445 
L 291.114567 462.683445 
L 292.322835 462.683445 
L 293.531102 398.46971 
L 294.73937 398.46971 
L 295.947638 398.46971 
L 297.155906 398.46971 
L 298.364173 398.46971 
L 299.572441 398.46971 
L 300.780709 398.46971 
L 301.988976 398.46971 
L 303.197244 398.46971 
L 304.405512 398.46971 
L 305.61378 398.46971 
L 306.822047 398.46971 
L 308.030315 398.46971 
L 309.238583 398.46971 
L 310.44685 398.46971 
L 311.655118 398.46971 
L 312.863386 398.46971 
L 314.071654 398.46971 
L 315.279921 398.46971 
L 316.488189 398.46971 
L 317.696457 398.46971 
L 318.904724 398.46971 
L 320.112992 398.46971 
L 321.32126 398.46971 
L 322.529528 398.46971 
L 323.737795 398.46971 
L 324.946063 398.46971 
L 326.154331 398.46971 
L 327.362598 462.683445 
L 328.570866 398.46971 
L 329.779134 302.938407 
L 330.987402 302.938407 
L 332.195669 302.938407 
L 333.403937 302.938407 
L 334.612205 302.938407 
L 335.820472 273.67942 
L 337.02874 273.67942 
L 338.237008 273.67942 
L 339.445276 273.67942 
L 340.653543 273.67942 
L 341.861811 219.65029 
L 343.070079 219.65029 
L 344.278346 200.68178 
L 345.486614 219.65029 
L 346.694882 219.65029 
L 347.90315 219.65029 
L 349.111417 219.65029 
L 350.319685 219.65029 
L 351.527953 219.65029 
L 352.73622 219.65029 
L 353.944488 219.65029 
L 355.152756 162.924884 
L 356.361024 162.924884 
L 357.569291 162.924884 
L 358.777559 178.148117 
L 359.985827 178.148117 
L 361.194094 337.893155 
L 362.402362 178.148117 
L 363.61063 178.148117 
L 364.818898 213.102865 
L 366.027165 213.102865 
L 367.235433 213.102865 
L 368.443701 178.148117 
L 369.651969 178.148117 
L 370.860236 178.148117 
L 372.068504 273.67942 
L 373.276772 273.67942 
L 374.485039 273.67942 
L 375.693307 273.67942 
L 376.901575 273.67942 
L 378.109843 273.67942 
L 379.31811 337.893155 
L 380.526378 273.67942 
L 381.734646 273.67942 
L 382.942913 273.67942 
L 384.151181 273.67942 
L 385.359449 302.938407 
L 386.567717 302.938407 
L 387.775984 302.938407 
L 388.984252 398.46971 
L 390.19252 398.46971 
L 391.400787 398.46971 
L 392.609055 398.46971 
L 393.817323 398.46971 
L 395.025591 398.46971 
L 396.233858 398.46971 
L 397.442126 398.46971 
L 398.650394 462.683445 
L 399.858661 462.683445 
L 401.066929 462.683445 
L 402.275197 462.683445 
L 403.483465 462.683445 
L 404.691732 414942.840038 
L 405.9 337.893155 
L 407.108268 273.67942 
L 408.316535 273.67942 
L 409.524803 273.67942 
L 410.733071 273.67942 
L 411.941339 273.67942 
L 413.149606 273.67942 
L 414.357874 273.67942 
L 415.566142 273.67942 
L 416.774409 273.67942 
L 417.982677 273.67942 
L 419.190945 273.67942 
L 420.399213 273.67942 
L 421.60748 273.67942 
L 422.815748 273.67942 
L 424.024016 302.938407 
L 425.232283 302.938407 
L 426.440551 302.938407 
L 427.648819 302.938407 
L 428.857087 273.67942 
L 430.065354 273.67942 
L 431.273622 273.67942 
L 432.48189 273.67942 
L 433.690157 273.67942 
L 434.898425 273.67942 
L 436.106693 302.938407 
L 437.314961 302.938407 
L 438.523228 302.938407 
L 439.731496 337.893155 
L 440.939764 337.893155 
L 442.148031 337.893155 
L 443.356299 302.938407 
L 444.564567 302.938407 
L 445.772835 462.683445 
L 446.981102 462.683445 
L 448.18937 462.683445 
L 449.397638 302.938407 
L 450.605906 302.938407 
L 451.814173 302.938407 
L 453.022441 302.938407 
L 454.230709 302.938407 
L 455.438976 302.938407 
L 456.647244 302.938407 
L 457.855512 302.938407 
L 459.06378 398.46971 
L 460.272047 462.683445 
L 461.480315 462.683445 
L 462.688583 462.683445 
L 463.89685 462.683445 
L 465.105118 462.683445 
L 466.313386 462.683445 
L 467.521654 462.683445 
L 468.729921 462.683445 
L 469.938189 462.683445 
L 471.146457 462.683445 
L 472.354724 462.683445 
L 473.562992 462.683445 
L 474.77126 337.893155 
L 475.979528 337.893155 
L 477.187795 337.893155 
L 478.396063 337.893155 
L 479.604331 337.893155 
L 480.812598 337.893155 
L 482.020866 337.893155 
L 483.229134 414942.840038 
L 484.437402 414942.840038 
L 485.645669 414942.840038 
L 486.853937 462.683445 
L 488.062205 462.683445 
L 489.270472 462.683445 
L 490.47874 462.683445 
L 491.687008 414942.840038 
L 492.895276 462.683445 
L 494.103543 462.683445 
L 495.311811 462.683445 
L 496.520079 462.683445 
L 497.728346 398.46971 
L 498.936614 398.46971 
L 500.144882 398.46971 
L 501.35315 398.46971 
L 502.561417 398.46971 
L 503.769685 462.683445 
L 504.977953 462.683445 
L 506.18622 462.683445 
L 507.394488 462.683445 
L 508.602756 462.683445 
L 509.811024 462.683445 
L 511.019291 462.683445 
L 512.227559 462.683445 
L 513.435827 462.683445 
L 514.644094 414942.840038 
L 515.852362 462.683445 
L 517.06063 462.683445 
L 518.268898 462.683445 
L 519.477165 462.683445 
L 520.685433 462.683445 
L 521.893701 398.46971 
L 523.101969 302.938407 
L 524.310236 302.938407 
L 525.518504 302.938407 
L 526.726772 219.65029 
L 527.935039 219.65029 
L 529.143307 219.65029 
L 530.351575 219.65029 
L 531.559843 219.65029 
L 532.76811 240.85528 
L 533.976378 240.85528 
L 535.184646 240.85528 
L 536.392913 240.85528 
L 537.601181 240.85528 
L 538.809449 240.85528 
L 540.017717 398.46971 
L 541.225984 398.46971 
L 542.434252 398.46971 
L 543.64252 462.683445 
L 544.850787 462.683445 
L 546.059055 462.683445 
L 547.267323 462.683445 
L 548.475591 462.683445 
L 549.683858 462.683445 
L 550.892126 414942.840038 
L 552.100394 462.683445 
L 553.308661 414942.840038 
L 554.516929 414942.840038 
L 555.725197 414942.840038 
L 556.933465 414942.840038 
L 558.141732 414942.840038 
L 559.35 414942.840038 
L 560.558268 414942.840038 
L 561.766535 462.683445 
L 562.974803 398.46971 
L 564.183071 398.46971 
L 565.391339 398.46971 
L 566.599606 398.46971 
L 567.807874 398.46971 
L 569.016142 462.683445 
L 570.224409 462.683445 
L 571.432677 462.683445 
L 572.640945 398.46971 
L 573.849213 398.46971 
L 575.05748 398.46971 
L 576.265748 398.46971 
L 577.474016 398.46971 
L 578.682283 462.683445 
L 579.890551 414942.840038 
L 581.098819 337.893155 
L 582.307087 337.893155 
L 583.515354 337.893155 
L 584.723622 337.893155 
L 585.93189 337.893155 
L 587.140157 337.893155 
L 588.348425 302.938407 
L 589.556693 462.683445 
L 590.764961 462.683445 
L 591.973228 398.46971 
L 593.181496 398.46971 
L 594.389764 398.46971 
L 595.598031 398.46971 
L 596.806299 398.46971 
L 598.014567 398.46971 
L 599.222835 398.46971 
L 600.431102 398.46971 
L 601.63937 302.938407 
L 602.847638 302.938407 
L 604.055906 273.67942 
L 605.264173 273.67942 
L 606.472441 273.67942 
L 607.680709 273.67942 
L 608.888976 273.67942 
L 610.097244 273.67942 
L 611.305512 273.67942 
L 612.51378 273.67942 
L 613.722047 273.67942 
L 614.930315 273.67942 
L 616.138583 273.67942 
L 617.34685 273.67942 
L 618.555118 273.67942 
L 619.763386 273.67942 
L 620.971654 337.893155 
L 622.179921 337.893155 
L 623.388189 414942.840038 
L 624.596457 414942.840038 
L 625.804724 414942.840038 
L 627.012992 414942.840038 
L 628.22126 414942.840038 
L 629.429528 414942.840038 
L 630.637795 414942.840038 
L 631.846063 414942.840038 
L 633.054331 414942.840038 
L 634.262598 414942.840038 
L 635.470866 414942.840038 
L 636.679134 414942.840038 
L 637.887402 414942.840038 
L 639.095669 414942.840038 
L 640.303937 414942.840038 
L 641.512205 414942.840038 
L 642.720472 414942.840038 
L 643.92874 414942.840038 
L 645.137008 414942.840038 
L 646.345276 414942.840038 
L 647.553543 414942.840038 
L 648.761811 414942.840038 
L 649.970079 414942.840038 
L 651.178346 414942.840038 
L 652.386614 414942.840038 
L 653.594882 414942.840038 
L 654.80315 414942.840038 
L 656.011417 414942.840038 
L 657.219685 414942.840038 
L 658.427953 414942.840038 
L 659.63622 414942.840038 
L 660.844488 414942.840038 
L 662.052756 462.683445 
L 663.261024 462.683445 
L 664.469291 462.683445 
L 665.677559 462.683445 
L 666.885827 462.683445 
L 668.094094 462.683445 
L 669.302362 398.46971 
L 670.51063 398.46971 
L 671.718898 398.46971 
L 672.927165 398.46971 
L 674.135433 398.46971 
L 675.343701 398.46971 
L 676.551969 398.46971 
L 677.760236 398.46971 
L 678.968504 462.683445 
L 680.176772 462.683445 
L 681.385039 462.683445 
L 682.593307 462.683445 
L 683.801575 302.938407 
L 685.009843 302.938407 
L 686.21811 462.683445 
L 687.426378 462.683445 
L 688.634646 462.683445 
L 689.842913 462.683445 
L 691.051181 302.938407 
L 692.259449 302.938407 
L 693.467717 273.67942 
L 694.675984 273.67942 
L 695.884252 273.67942 
L 697.09252 273.67942 
L 698.300787 116.06499 
L 699.509055 116.06499 
L 700.717323 116.06499 
L 701.925591 94.86 
L 703.133858 94.86 
L 704.342126 94.86 
L 705.550394 94.86 
L 706.758661 94.86 
L 707.966929 162.924884 
L 709.175197 162.924884 
L 710.383465 119.855327 
L 711.591732 119.855327 
L 712.8 119.855327 
L 712.8 414942.840038 
L 712.8 414942.840038 
L 711.591732 414942.840038 
L 710.383465 414942.840038 
L 709.175197 414942.840038 
L 707.966929 414942.840038 
L 706.758661 414942.840038 
L 705.550394 414942.840038 
L 704.342126 414942.840038 
L 703.133858 414942.840038 
L 701.925591 414942.840038 
L 700.717323 414942.840038 
L 699.509055 414942.840038 
L 698.300787 414942.840038 
L 697.09252 414942.840038 
L 695.884252 414942.840038 
L 694.675984 414942.840038 
L 693.467717 414942.840038 
L 692.259449 414942.840038 
L 691.051181 414942.840038 
L 689.842913 414942.840038 
L 688.634646 414942.840038 
L 687.426378 414942.840038 
L 686.21811 414942.840038 
L 685.009843 414942.840038 
L 683.801575 414942.840038 
L 682.593307 414942.840038 
L 681.385039 414942.840038 
L 680.176772 414942.840038 
L 678.968504 414942.840038 
L 677.760236 414942.840038 
L 676.551969 414942.840038 
L 675.343701 414942.840038 
L 674.135433 414942.840038 
L 672.927165 414942.840038 
L 671.718898 414942.840038 
L 670.51063 414942.840038 
L 669.302362 414942.840038 
L 668.094094 414942.840038 
L 666.885827 414942.840038 
L 665.677559 414942.840038 
L 664.469291 414942.840038 
L 663.261024 414942.840038 
L 662.052756 414942.840038 
L 660.844488 414942.840038 
L 659.63622 414942.840038 
L 658.427953 414942.840038 
L 657.219685 414942.840038 
L 656.011417 414942.840038 
L 654.80315 414942.840038 
L 653.594882 414942.840038 
L 652.386614 414942.840038 
L 651.178346 414942.840038 
L 649.970079 414942.840038 
L 648.761811 414942.840038 
L 647.553543 414942.840038 
L 646.345276 414942.840038 
L 645.137008 414942.840038 
L 643.92874 414942.840038 
L 642.720472 414942.840038 
L 641.512205 414942.840038 
L 640.303937 414942.840038 
L 639.095669 414942.840038 
L 637.887402 414942.840038 
L 636.679134 414942.840038 
L 635.470866 414942.840038 
L 634.262598 414942.840038 
L 633.054331 414942.840038 
L 631.846063 414942.840038 
L 630.637795 414942.840038 
L 629.429528 414942.840038 
L 628.22126 414942.840038 
L 627.012992 414942.840038 
L 625.804724 414942.840038 
L 624.596457 414942.840038 
L 623.388189 414942.840038 
L 622.179921 414942.840038 
L 620.971654 414942.840038 
L 619.763386 414942.840038 
L 618.555118 414942.840038 
L 617.34685 414942.840038 
L 616.138583 414942.840038 
L 614.930315 414942.840038 
L 613.722047 414942.840038 
L 612.51378 414942.840038 
L 611.305512 414942.840038 
L 610.097244 414942.840038 
L 608.888976 414942.840038 
L 607.680709 414942.840038 
L 606.472441 414942.840038 
L 605.264173 414942.840038 
L 604.055906 414942.840038 
L 602.847638 414942.840038 
L 601.63937 414942.840038 
L 600.431102 414942.840038 
L 599.222835 414942.840038 
L 598.014567 414942.840038 
L 596.806299 414942.840038 
L 595.598031 414942.840038 
L 594.389764 414942.840038 
L 593.181496 414942.840038 
L 591.973228 414942.840038 
L 590.764961 414942.840038 
L 589.556693 414942.840038 
L 588.348425 414942.840038 
L 587.140157 414942.840038 
L 585.93189 414942.840038 
L 584.723622 414942.840038 
L 583.515354 414942.840038 
L 582.307087 414942.840038 
L 581.098819 414942.840038 
L 579.890551 414942.840038 
L 578.682283 414942.840038 
L 577.474016 414942.840038 
L 576.265748 414942.840038 
L 575.05748 414942.840038 
L 573.849213 414942.840038 
L 572.640945 414942.840038 
L 571.432677 414942.840038 
L 570.224409 414942.840038 
L 569.016142 414942.840038 
L 567.807874 414942.840038 
L 566.599606 414942.840038 
L 565.391339 414942.840038 
L 564.183071 414942.840038 
L 562.974803 414942.840038 
L 561.766535 414942.840038 
L 560.558268 414942.840038 
L 559.35 414942.840038 
L 558.141732 414942.840038 
L 556.933465 414942.840038 
L 555.725197 414942.840038 
L 554.516929 414942.840038 
L 553.308661 414942.840038 
L 552.100394 414942.840038 
L 550.892126 414942.840038 
L 549.683858 414942.840038 
L 548.475591 414942.840038 
L 547.267323 414942.840038 
L 546.059055 414942.840038 
L 544.850787 414942.840038 
L 543.64252 414942.840038 
L 542.434252 414942.840038 
L 541.225984 414942.840038 
L 540.017717 414942.840038 
L 538.809449 414942.840038 
L 537.601181 414942.840038 
L 536.392913 414942.840038 
L 535.184646 414942.840038 
L 533.976378 414942.840038 
L 532.76811 414942.840038 
L 531.559843 414942.840038 
L 530.351575 414942.840038 
L 529.143307 414942.840038 
L 527.935039 414942.840038 
L 526.726772 414942.840038 
L 525.518504 414942.840038 
L 524.310236 414942.840038 
L 523.101969 414942.840038 
L 521.893701 414942.840038 
L 520.685433 414942.840038 
L 519.477165 414942.840038 
L 518.268898 414942.840038 
L 517.06063 414942.840038 
L 515.852362 414942.840038 
L 514.644094 414942.840038 
L 513.435827 414942.840038 
L 512.227559 414942.840038 
L 511.019291 414942.840038 
L 509.811024 414942.840038 
L 508.602756 414942.840038 
L 507.394488 414942.840038 
L 506.18622 414942.840038 
L 504.977953 414942.840038 
L 503.769685 414942.840038 
L 502.561417 414942.840038 
L 501.35315 414942.840038 
L 500.144882 414942.840038 
L 498.936614 414942.840038 
L 497.728346 414942.840038 
L 496.520079 414942.840038 
L 495.311811 414942.840038 
L 494.103543 414942.840038 
L 492.895276 414942.840038 
L 491.687008 414942.840038 
L 490.47874 414942.840038 
L 489.270472 414942.840038 
L 488.062205 414942.840038 
L 486.853937 414942.840038 
L 485.645669 414942.840038 
L 484.437402 414942.840038 
L 483.229134 414942.840038 
L 482.020866 414942.840038 
L 480.812598 414942.840038 
L 479.604331 414942.840038 
L 478.396063 414942.840038 
L 477.187795 414942.840038 
L 475.979528 414942.840038 
L 474.77126 414942.840038 
L 473.562992 414942.840038 
L 472.354724 414942.840038 
L 471.146457 414942.840038 
L 469.938189 414942.840038 
L 468.729921 414942.840038 
L 467.521654 414942.840038 
L 466.313386 414942.840038 
L 465.105118 414942.840038 
L 463.89685 414942.840038 
L 462.688583 414942.840038 
L 461.480315 414942.840038 
L 460.272047 414942.840038 
L 459.06378 414942.840038 
L 457.855512 414942.840038 
L 456.647244 414942.840038 
L 455.438976 414942.840038 
L 454.230709 414942.840038 
L 453.022441 414942.840038 
L 451.814173 414942.840038 
L 450.605906 414942.840038 
L 449.397638 414942.840038 
L 448.18937 414942.840038 
L 446.981102 414942.840038 
L 445.772835 414942.840038 
L 444.564567 414942.840038 
L 443.356299 414942.840038 
L 442.148031 414942.840038 
L 440.939764 414942.840038 
L 439.731496 414942.840038 
L 438.523228 414942.840038 
L 437.314961 414942.840038 
L 436.106693 414942.840038 
L 434.898425 414942.840038 
L 433.690157 414942.840038 
L 432.48189 414942.840038 
L 431.273622 414942.840038 
L 430.065354 414942.840038 
L 428.857087 414942.840038 
L 427.648819 414942.840038 
L 426.440551 414942.840038 
L 425.232283 414942.840038 
L 424.024016 414942.840038 
L 422.815748 414942.840038 
L 421.60748 414942.840038 
L 420.399213 414942.840038 
L 419.190945 414942.840038 
L 417.982677 414942.840038 
L 416.774409 414942.840038 
L 415.566142 414942.840038 
L 414.357874 414942.840038 
L 413.149606 414942.840038 
L 411.941339 414942.840038 
L 410.733071 414942.840038 
L 409.524803 414942.840038 
L 408.316535 414942.840038 
L 407.108268 414942.840038 
L 405.9 414942.840038 
L 404.691732 414942.840038 
L 403.483465 414942.840038 
L 402.275197 414942.840038 
L 401.066929 414942.840038 
L 399.858661 414942.840038 
L 398.650394 414942.840038 
L 397.442126 414942.840038 
L 396.233858 414942.840038 
L 395.025591 414942.840038 
L 393.817323 414942.840038 
L 392.609055 414942.840038 
L 391.400787 414942.840038 
L 390.19252 414942.840038 
L 388.984252 414942.840038 
L 387.775984 414942.840038 
L 386.567717 414942.840038 
L 385.359449 414942.840038 
L 384.151181 414942.840038 
L 382.942913 414942.840038 
L 381.734646 414942.840038 
L 380.526378 414942.840038 
L 379.31811 414942.840038 
L 378.109843 414942.840038 
L 376.901575 414942.840038 
L 375.693307 414942.840038 
L 374.485039 414942.840038 
L 373.276772 414942.840038 
L 372.068504 414942.840038 
L 370.860236 414942.840038 
L 369.651969 414942.840038 
L 368.443701 414942.840038 
L 367.235433 414942.840038 
L 366.027165 414942.840038 
L 364.818898 414942.840038 
L 363.61063 414942.840038 
L 362.402362 414942.840038 
L 361.194094 414942.840038 
L 359.985827 414942.840038 
L 358.777559 414942.840038 
L 357.569291 414942.840038 
L 356.361024 414942.840038 
L 355.152756 414942.840038 
L 353.944488 414942.840038 
L 352.73622 414942.840038 
L 351.527953 414942.840038 
L 350.319685 414942.840038 
L 349.111417 414942.840038 
L 347.90315 414942.840038 
L 346.694882 414942.840038 
L 345.486614 414942.840038 
L 344.278346 414942.840038 
L 343.070079 414942.840038 
L 341.861811 414942.840038 
L 340.653543 414942.840038 
L 339.445276 414942.840038 
L 338.237008 414942.840038 
L 337.02874 414942.840038 
L 335.820472 414942.840038 
L 334.612205 414942.840038 
L 333.403937 414942.840038 
L 332.195669 414942.840038 
L 330.987402 414942.840038 
L 329.779134 414942.840038 
L 328.570866 414942.840038 
L 327.362598 414942.840038 
L 326.154331 414942.840038 
L 324.946063 414942.840038 
L 323.737795 414942.840038 
L 322.529528 414942.840038 
L 321.32126 414942.840038 
L 320.112992 414942.840038 
L 318.904724 414942.840038 
L 317.696457 414942.840038 
L 316.488189 414942.840038 
L 315.279921 414942.840038 
L 314.071654 414942.840038 
L 312.863386 414942.840038 
L 311.655118 414942.840038 
L 310.44685 414942.840038 
L 309.238583 414942.840038 
L 308.030315 414942.840038 
L 306.822047 414942.840038 
L 305.61378 414942.840038 
L 304.405512 414942.840038 
L 303.197244 414942.840038 
L 301.988976 414942.840038 
L 300.780709 414942.840038 
L 299.572441 414942.840038 
L 298.364173 414942.840038 
L 297.155906 414942.840038 
L 295.947638 414942.840038 
L 294.73937 414942.840038 
L 293.531102 414942.840038 
L 292.322835 414942.840038 
L 291.114567 414942.840038 
L 289.906299 414942.840038 
L 288.698031 414942.840038 
L 287.489764 414942.840038 
L 286.281496 414942.840038 
L 285.073228 414942.840038 
L 283.864961 414942.840038 
L 282.656693 414942.840038 
L 281.448425 414942.840038 
L 280.240157 414942.840038 
L 279.03189 414942.840038 
L 277.823622 414942.840038 
L 276.615354 414942.840038 
L 275.407087 414942.840038 
L 274.198819 414942.840038 
L 272.990551 414942.840038 
L 271.782283 414942.840038 
L 270.574016 414942.840038 
L 269.365748 414942.840038 
L 268.15748 414942.840038 
L 266.949213 414942.840038 
L 265.740945 414942.840038 
L 264.532677 414942.840038 
L 263.324409 414942.840038 
L 262.116142 414942.840038 
L 260.907874 414942.840038 
L 259.699606 414942.840038 
L 258.491339 414942.840038 
L 257.283071 414942.840038 
L 256.074803 414942.840038 
L 254.866535 414942.840038 
L 253.658268 414942.840038 
L 252.45 414942.840038 
L 251.241732 414942.840038 
L 250.033465 414942.840038 
L 248.825197 414942.840038 
L 247.616929 414942.840038 
L 246.408661 414942.840038 
L 245.200394 414942.840038 
L 243.992126 414942.840038 
L 242.783858 414942.840038 
L 241.575591 414942.840038 
L 240.367323 414942.840038 
L 239.159055 414942.840038 
L 237.950787 414942.840038 
L 236.74252 414942.840038 
L 235.534252 414942.840038 
L 234.325984 414942.840038 
L 233.117717 414942.840038 
L 231.909449 414942.840038 
L 230.701181 414942.840038 
L 229.492913 414942.840038 
L 228.284646 414942.840038 
L 227.076378 414942.840038 
L 225.86811 414942.840038 
L 224.659843 414942.840038 
L 223.451575 414942.840038 
L 222.243307 414942.840038 
L 221.035039 414942.840038 
L 219.826772 414942.840038 
L 218.618504 414942.840038 
L 217.410236 414942.840038 
L 216.201969 414942.840038 
L 214.993701 414942.840038 
L 213.785433 414942.840038 
L 212.577165 414942.840038 
L 211.368898 414942.840038 
L 210.16063 414942.840038 
L 208.952362 414942.840038 
L 207.744094 414942.840038 
L 206.535827 414942.840038 
L 205.327559 414942.840038 
L 204.119291 414942.840038 
L 202.911024 414942.840038 
L 201.702756 414942.840038 
L 200.494488 414942.840038 
L 199.28622 414942.840038 
L 198.077953 414942.840038 
L 196.869685 414942.840038 
L 195.661417 414942.840038 
L 194.45315 414942.840038 
L 193.244882 414942.840038 
L 192.036614 414942.840038 
L 190.828346 414942.840038 
L 189.620079 414942.840038 
L 188.411811 414942.840038 
L 187.203543 414942.840038 
L 185.995276 414942.840038 
L 184.787008 414942.840038 
L 183.57874 414942.840038 
L 182.370472 414942.840038 
L 181.162205 414942.840038 
L 179.953937 414942.840038 
L 178.745669 414942.840038 
L 177.537402 414942.840038 
L 176.329134 414942.840038 
L 175.120866 414942.840038 
L 173.912598 414942.840038 
L 172.704331 414942.840038 
L 171.496063 414942.840038 
L 170.287795 414942.840038 
L 169.079528 414942.840038 
L 167.87126 414942.840038 
L 166.662992 414942.840038 
L 165.454724 414942.840038 
L 164.246457 414942.840038 
L 163.038189 414942.840038 
L 161.829921 414942.840038 
L 160.621654 414942.840038 
L 159.413386 414942.840038 
L 158.205118 414942.840038 
L 156.99685 414942.840038 
L 155.788583 414942.840038 
L 154.580315 414942.840038 
L 153.372047 414942.840038 
L 152.16378 414942.840038 
L 150.955512 414942.840038 
L 149.747244 414942.840038 
L 148.538976 414942.840038 
L 147.330709 414942.840038 
L 146.122441 414942.840038 
L 144.914173 414942.840038 
L 143.705906 414942.840038 
L 142.497638 414942.840038 
L 141.28937 414942.840038 
L 140.081102 414942.840038 
L 138.872835 414942.840038 
L 137.664567 414942.840038 
L 136.456299 414942.840038 
L 135.248031 414942.840038 
L 134.039764 414942.840038 
L 132.831496 414942.840038 
L 131.623228 414942.840038 
L 130.414961 414942.840038 
L 129.206693 414942.840038 
L 127.998425 414942.840038 
L 126.790157 414942.840038 
L 125.58189 414942.840038 
L 124.373622 414942.840038 
L 123.165354 414942.840038 
L 121.957087 414942.840038 
L 120.748819 414942.840038 
L 119.540551 414942.840038 
L 118.332283 414942.840038 
L 117.124016 414942.840038 
L 115.915748 414942.840038 
L 114.70748 414942.840038 
L 113.499213 414942.840038 
L 112.290945 414942.840038 
L 111.082677 414942.840038 
L 109.874409 414942.840038 
L 108.666142 414942.840038 
L 107.457874 414942.840038 
L 106.249606 414942.840038 
L 105.041339 414942.840038 
L 103.833071 414942.840038 
L 102.624803 414942.840038 
L 101.416535 414942.840038 
L 100.208268 414942.840038 
L 99 414942.840038 
z
" style="fill:#8080ff;fill-opacity:0.5;stroke:#8080ff;stroke-opacity:0.5;"/>
   </g>
   <g id="PolyCollection_2">
    <path clip-path="url(#p68e2955192)" d="M 99 414942.840038 
L 99 414942.840038 
L 100.208268 414942.840038 
L 101.416535 414942.840038 
L 102.624803 414942.840038 
L 103.833071 414942.840038 
L 105.041339 414942.840038 
L 106.249606 414942.840038 
L 107.457874 414942.840038 
L 108.666142 414942.840038 
L 109.874409 414942.840038 
L 111.082677 414942.840038 
L 112.290945 414942.840038 
L 113.499213 414942.840038 
L 114.70748 462.683445 
L 115.915748 462.683445 
L 117.124016 462.683445 
L 118.332283 462.683445 
L 119.540551 462.683445 
L 120.748819 414942.840038 
L 121.957087 414942.840038 
L 123.165354 414942.840038 
L 124.373622 414942.840038 
L 125.58189 414942.840038 
L 126.790157 414942.840038 
L 127.998425 414942.840038 
L 129.206693 414942.840038 
L 130.414961 414942.840038 
L 131.623228 414942.840038 
L 132.831496 414942.840038 
L 134.039764 414942.840038 
L 135.248031 414942.840038 
L 136.456299 414942.840038 
L 137.664567 414942.840038 
L 138.872835 414942.840038 
L 140.081102 414942.840038 
L 141.28937 414942.840038 
L 142.497638 414942.840038 
L 143.705906 414942.840038 
L 144.914173 414942.840038 
L 146.122441 414942.840038 
L 147.330709 414942.840038 
L 148.538976 414942.840038 
L 149.747244 414942.840038 
L 150.955512 414942.840038 
L 152.16378 414942.840038 
L 153.372047 414942.840038 
L 154.580315 414942.840038 
L 155.788583 414942.840038 
L 156.99685 414942.840038 
L 158.205118 414942.840038 
L 159.413386 414942.840038 
L 160.621654 414942.840038 
L 161.829921 414942.840038 
L 163.038189 414942.840038 
L 164.246457 414942.840038 
L 165.454724 414942.840038 
L 166.662992 414942.840038 
L 167.87126 414942.840038 
L 169.079528 414942.840038 
L 170.287795 414942.840038 
L 171.496063 414942.840038 
L 172.704331 414942.840038 
L 173.912598 414942.840038 
L 175.120866 414942.840038 
L 176.329134 414942.840038 
L 177.537402 414942.840038 
L 178.745669 414942.840038 
L 179.953937 414942.840038 
L 181.162205 414942.840038 
L 182.370472 414942.840038 
L 183.57874 414942.840038 
L 184.787008 414942.840038 
L 185.995276 414942.840038 
L 187.203543 414942.840038 
L 188.411811 414942.840038 
L 189.620079 414942.840038 
L 190.828346 414942.840038 
L 192.036614 414942.840038 
L 193.244882 414942.840038 
L 194.45315 414942.840038 
L 195.661417 414942.840038 
L 196.869685 414942.840038 
L 198.077953 414942.840038 
L 199.28622 414942.840038 
L 200.494488 414942.840038 
L 201.702756 414942.840038 
L 202.911024 414942.840038 
L 204.119291 414942.840038 
L 205.327559 414942.840038 
L 206.535827 414942.840038 
L 207.744094 414942.840038 
L 208.952362 414942.840038 
L 210.16063 414942.840038 
L 211.368898 414942.840038 
L 212.577165 414942.840038 
L 213.785433 414942.840038 
L 214.993701 414942.840038 
L 216.201969 414942.840038 
L 217.410236 414942.840038 
L 218.618504 414942.840038 
L 219.826772 414942.840038 
L 221.035039 414942.840038 
L 222.243307 414942.840038 
L 223.451575 414942.840038 
L 224.659843 414942.840038 
L 225.86811 414942.840038 
L 227.076378 414942.840038 
L 228.284646 414942.840038 
L 229.492913 414942.840038 
L 230.701181 414942.840038 
L 231.909449 414942.840038 
L 233.117717 414942.840038 
L 234.325984 414942.840038 
L 235.534252 414942.840038 
L 236.74252 414942.840038 
L 237.950787 414942.840038 
L 239.159055 414942.840038 
L 240.367323 414942.840038 
L 241.575591 414942.840038 
L 242.783858 414942.840038 
L 243.992126 414942.840038 
L 245.200394 414942.840038 
L 246.408661 414942.840038 
L 247.616929 414942.840038 
L 248.825197 414942.840038 
L 250.033465 414942.840038 
L 251.241732 414942.840038 
L 252.45 414942.840038 
L 253.658268 414942.840038 
L 254.866535 414942.840038 
L 256.074803 414942.840038 
L 257.283071 414942.840038 
L 258.491339 414942.840038 
L 259.699606 414942.840038 
L 260.907874 414942.840038 
L 262.116142 414942.840038 
L 263.324409 414942.840038 
L 264.532677 414942.840038 
L 265.740945 414942.840038 
L 266.949213 414942.840038 
L 268.15748 414942.840038 
L 269.365748 414942.840038 
L 270.574016 414942.840038 
L 271.782283 414942.840038 
L 272.990551 414942.840038 
L 274.198819 414942.840038 
L 275.407087 414942.840038 
L 276.615354 414942.840038 
L 277.823622 414942.840038 
L 279.03189 414942.840038 
L 280.240157 414942.840038 
L 281.448425 414942.840038 
L 282.656693 414942.840038 
L 283.864961 414942.840038 
L 285.073228 414942.840038 
L 286.281496 414942.840038 
L 287.489764 414942.840038 
L 288.698031 414942.840038 
L 289.906299 414942.840038 
L 291.114567 414942.840038 
L 292.322835 414942.840038 
L 293.531102 414942.840038 
L 294.73937 414942.840038 
L 295.947638 414942.840038 
L 297.155906 414942.840038 
L 298.364173 414942.840038 
L 299.572441 414942.840038 
L 300.780709 414942.840038 
L 301.988976 414942.840038 
L 303.197244 414942.840038 
L 304.405512 414942.840038 
L 305.61378 414942.840038 
L 306.822047 414942.840038 
L 308.030315 414942.840038 
L 309.238583 414942.840038 
L 310.44685 414942.840038 
L 311.655118 414942.840038 
L 312.863386 414942.840038 
L 314.071654 414942.840038 
L 315.279921 414942.840038 
L 316.488189 414942.840038 
L 317.696457 414942.840038 
L 318.904724 414942.840038 
L 320.112992 414942.840038 
L 321.32126 414942.840038 
L 322.529528 414942.840038 
L 323.737795 414942.840038 
L 324.946063 414942.840038 
L 326.154331 414942.840038 
L 327.362598 414942.840038 
L 328.570866 414942.840038 
L 329.779134 414942.840038 
L 330.987402 414942.840038 
L 332.195669 414942.840038 
L 333.403937 414942.840038 
L 334.612205 414942.840038 
L 335.820472 414942.840038 
L 337.02874 414942.840038 
L 338.237008 414942.840038 
L 339.445276 414942.840038 
L 340.653543 414942.840038 
L 341.861811 414942.840038 
L 343.070079 414942.840038 
L 344.278346 414942.840038 
L 345.486614 414942.840038 
L 346.694882 414942.840038 
L 347.90315 414942.840038 
L 349.111417 414942.840038 
L 350.319685 414942.840038 
L 351.527953 414942.840038 
L 352.73622 414942.840038 
L 353.944488 414942.840038 
L 355.152756 414942.840038 
L 356.361024 414942.840038 
L 357.569291 414942.840038 
L 358.777559 414942.840038 
L 359.985827 414942.840038 
L 361.194094 414942.840038 
L 362.402362 414942.840038 
L 363.61063 414942.840038 
L 364.818898 414942.840038 
L 366.027165 414942.840038 
L 367.235433 414942.840038 
L 368.443701 414942.840038 
L 369.651969 414942.840038 
L 370.860236 414942.840038 
L 372.068504 414942.840038 
L 373.276772 414942.840038 
L 374.485039 414942.840038 
L 375.693307 414942.840038 
L 376.901575 414942.840038 
L 378.109843 414942.840038 
L 379.31811 414942.840038 
L 380.526378 414942.840038 
L 381.734646 414942.840038 
L 382.942913 414942.840038 
L 384.151181 414942.840038 
L 385.359449 414942.840038 
L 386.567717 414942.840038 
L 387.775984 414942.840038 
L 388.984252 414942.840038 
L 390.19252 414942.840038 
L 391.400787 414942.840038 
L 392.609055 414942.840038 
L 393.817323 414942.840038 
L 395.025591 414942.840038 
L 396.233858 414942.840038 
L 397.442126 414942.840038 
L 398.650394 414942.840038 
L 399.858661 414942.840038 
L 401.066929 414942.840038 
L 402.275197 414942.840038 
L 403.483465 414942.840038 
L 404.691732 414942.840038 
L 405.9 414942.840038 
L 407.108268 414942.840038 
L 408.316535 414942.840038 
L 409.524803 414942.840038 
L 410.733071 414942.840038 
L 411.941339 414942.840038 
L 413.149606 414942.840038 
L 414.357874 414942.840038 
L 415.566142 414942.840038 
L 416.774409 414942.840038 
L 417.982677 414942.840038 
L 419.190945 414942.840038 
L 420.399213 414942.840038 
L 421.60748 414942.840038 
L 422.815748 414942.840038 
L 424.024016 414942.840038 
L 425.232283 414942.840038 
L 426.440551 414942.840038 
L 427.648819 414942.840038 
L 428.857087 414942.840038 
L 430.065354 414942.840038 
L 431.273622 414942.840038 
L 432.48189 414942.840038 
L 433.690157 414942.840038 
L 434.898425 414942.840038 
L 436.106693 414942.840038 
L 437.314961 414942.840038 
L 438.523228 414942.840038 
L 439.731496 414942.840038 
L 440.939764 414942.840038 
L 442.148031 414942.840038 
L 443.356299 414942.840038 
L 444.564567 414942.840038 
L 445.772835 414942.840038 
L 446.981102 414942.840038 
L 448.18937 414942.840038 
L 449.397638 414942.840038 
L 450.605906 414942.840038 
L 451.814173 414942.840038 
L 453.022441 414942.840038 
L 454.230709 414942.840038 
L 455.438976 414942.840038 
L 456.647244 414942.840038 
L 457.855512 414942.840038 
L 459.06378 414942.840038 
L 460.272047 414942.840038 
L 461.480315 414942.840038 
L 462.688583 414942.840038 
L 463.89685 414942.840038 
L 465.105118 414942.840038 
L 466.313386 414942.840038 
L 467.521654 414942.840038 
L 468.729921 414942.840038 
L 469.938189 414942.840038 
L 471.146457 414942.840038 
L 472.354724 414942.840038 
L 473.562992 414942.840038 
L 474.77126 414942.840038 
L 475.979528 414942.840038 
L 477.187795 414942.840038 
L 478.396063 414942.840038 
L 479.604331 414942.840038 
L 480.812598 414942.840038 
L 482.020866 414942.840038 
L 483.229134 414942.840038 
L 484.437402 414942.840038 
L 485.645669 414942.840038 
L 486.853937 414942.840038 
L 488.062205 414942.840038 
L 489.270472 414942.840038 
L 490.47874 414942.840038 
L 491.687008 414942.840038 
L 492.895276 414942.840038 
L 494.103543 414942.840038 
L 495.311811 414942.840038 
L 496.520079 414942.840038 
L 497.728346 414942.840038 
L 498.936614 414942.840038 
L 500.144882 414942.840038 
L 501.35315 414942.840038 
L 502.561417 414942.840038 
L 503.769685 414942.840038 
L 504.977953 414942.840038 
L 506.18622 414942.840038 
L 507.394488 414942.840038 
L 508.602756 414942.840038 
L 509.811024 414942.840038 
L 511.019291 414942.840038 
L 512.227559 414942.840038 
L 513.435827 414942.840038 
L 514.644094 414942.840038 
L 515.852362 414942.840038 
L 517.06063 414942.840038 
L 518.268898 414942.840038 
L 519.477165 414942.840038 
L 520.685433 414942.840038 
L 521.893701 414942.840038 
L 523.101969 414942.840038 
L 524.310236 414942.840038 
L 525.518504 414942.840038 
L 526.726772 414942.840038 
L 527.935039 414942.840038 
L 529.143307 414942.840038 
L 530.351575 414942.840038 
L 531.559843 414942.840038 
L 532.76811 414942.840038 
L 533.976378 414942.840038 
L 535.184646 414942.840038 
L 536.392913 414942.840038 
L 537.601181 414942.840038 
L 538.809449 414942.840038 
L 540.017717 414942.840038 
L 541.225984 414942.840038 
L 542.434252 414942.840038 
L 543.64252 414942.840038 
L 544.850787 414942.840038 
L 546.059055 414942.840038 
L 547.267323 414942.840038 
L 548.475591 414942.840038 
L 549.683858 414942.840038 
L 550.892126 414942.840038 
L 552.100394 414942.840038 
L 553.308661 414942.840038 
L 554.516929 414942.840038 
L 555.725197 414942.840038 
L 556.933465 414942.840038 
L 558.141732 414942.840038 
L 559.35 414942.840038 
L 560.558268 414942.840038 
L 561.766535 414942.840038 
L 562.974803 414942.840038 
L 564.183071 414942.840038 
L 565.391339 414942.840038 
L 566.599606 414942.840038 
L 567.807874 414942.840038 
L 569.016142 414942.840038 
L 570.224409 414942.840038 
L 571.432677 414942.840038 
L 572.640945 414942.840038 
L 573.849213 414942.840038 
L 575.05748 414942.840038 
L 576.265748 414942.840038 
L 577.474016 414942.840038 
L 578.682283 414942.840038 
L 579.890551 414942.840038 
L 581.098819 414942.840038 
L 582.307087 414942.840038 
L 583.515354 414942.840038 
L 584.723622 414942.840038 
L 585.93189 414942.840038 
L 587.140157 414942.840038 
L 588.348425 414942.840038 
L 589.556693 414942.840038 
L 590.764961 414942.840038 
L 591.973228 414942.840038 
L 593.181496 414942.840038 
L 594.389764 414942.840038 
L 595.598031 414942.840038 
L 596.806299 414942.840038 
L 598.014567 414942.840038 
L 599.222835 414942.840038 
L 600.431102 414942.840038 
L 601.63937 414942.840038 
L 602.847638 414942.840038 
L 604.055906 414942.840038 
L 605.264173 414942.840038 
L 606.472441 414942.840038 
L 607.680709 414942.840038 
L 608.888976 414942.840038 
L 610.097244 414942.840038 
L 611.305512 414942.840038 
L 612.51378 414942.840038 
L 613.722047 414942.840038 
L 614.930315 414942.840038 
L 616.138583 414942.840038 
L 617.34685 414942.840038 
L 618.555118 414942.840038 
L 619.763386 414942.840038 
L 620.971654 414942.840038 
L 622.179921 414942.840038 
L 623.388189 414942.840038 
L 624.596457 414942.840038 
L 625.804724 414942.840038 
L 627.012992 414942.840038 
L 628.22126 414942.840038 
L 629.429528 414942.840038 
L 630.637795 414942.840038 
L 631.846063 414942.840038 
L 633.054331 414942.840038 
L 634.262598 414942.840038 
L 635.470866 414942.840038 
L 636.679134 414942.840038 
L 637.887402 414942.840038 
L 639.095669 414942.840038 
L 640.303937 414942.840038 
L 641.512205 414942.840038 
L 642.720472 414942.840038 
L 643.92874 414942.840038 
L 645.137008 414942.840038 
L 646.345276 414942.840038 
L 647.553543 414942.840038 
L 648.761811 414942.840038 
L 649.970079 414942.840038 
L 651.178346 414942.840038 
L 652.386614 414942.840038 
L 653.594882 414942.840038 
L 654.80315 414942.840038 
L 656.011417 414942.840038 
L 657.219685 414942.840038 
L 658.427953 414942.840038 
L 659.63622 414942.840038 
L 660.844488 414942.840038 
L 662.052756 414942.840038 
L 663.261024 414942.840038 
L 664.469291 414942.840038 
L 665.677559 414942.840038 
L 666.885827 414942.840038 
L 668.094094 414942.840038 
L 669.302362 414942.840038 
L 670.51063 414942.840038 
L 671.718898 414942.840038 
L 672.927165 414942.840038 
L 674.135433 414942.840038 
L 675.343701 414942.840038 
L 676.551969 414942.840038 
L 677.760236 414942.840038 
L 678.968504 414942.840038 
L 680.176772 414942.840038 
L 681.385039 414942.840038 
L 682.593307 414942.840038 
L 683.801575 414942.840038 
L 685.009843 414942.840038 
L 686.21811 414942.840038 
L 687.426378 414942.840038 
L 688.634646 414942.840038 
L 689.842913 414942.840038 
L 691.051181 414942.840038 
L 692.259449 414942.840038 
L 693.467717 414942.840038 
L 694.675984 414942.840038 
L 695.884252 414942.840038 
L 697.09252 414942.840038 
L 698.300787 414942.840038 
L 699.509055 414942.840038 
L 700.717323 414942.840038 
L 701.925591 414942.840038 
L 703.133858 414942.840038 
L 704.342126 414942.840038 
L 705.550394 414942.840038 
L 706.758661 414942.840038 
L 707.966929 414942.840038 
L 709.175197 414942.840038 
L 710.383465 414942.840038 
L 711.591732 414942.840038 
L 712.8 414942.840038 
L 712.8 414942.840038 
L 712.8 414942.840038 
L 711.591732 414942.840038 
L 710.383465 414942.840038 
L 709.175197 414942.840038 
L 707.966929 414942.840038 
L 706.758661 414942.840038 
L 705.550394 414942.840038 
L 704.342126 414942.840038 
L 703.133858 414942.840038 
L 701.925591 414942.840038 
L 700.717323 414942.840038 
L 699.509055 414942.840038 
L 698.300787 414942.840038 
L 697.09252 414942.840038 
L 695.884252 414942.840038 
L 694.675984 414942.840038 
L 693.467717 414942.840038 
L 692.259449 414942.840038 
L 691.051181 414942.840038 
L 689.842913 414942.840038 
L 688.634646 414942.840038 
L 687.426378 414942.840038 
L 686.21811 414942.840038 
L 685.009843 414942.840038 
L 683.801575 414942.840038 
L 682.593307 414942.840038 
L 681.385039 414942.840038 
L 680.176772 414942.840038 
L 678.968504 414942.840038 
L 677.760236 414942.840038 
L 676.551969 414942.840038 
L 675.343701 414942.840038 
L 674.135433 414942.840038 
L 672.927165 414942.840038 
L 671.718898 414942.840038 
L 670.51063 414942.840038 
L 669.302362 414942.840038 
L 668.094094 414942.840038 
L 666.885827 414942.840038 
L 665.677559 414942.840038 
L 664.469291 414942.840038 
L 663.261024 414942.840038 
L 662.052756 414942.840038 
L 660.844488 414942.840038 
L 659.63622 414942.840038 
L 658.427953 414942.840038 
L 657.219685 414942.840038 
L 656.011417 414942.840038 
L 654.80315 414942.840038 
L 653.594882 414942.840038 
L 652.386614 414942.840038 
L 651.178346 414942.840038 
L 649.970079 414942.840038 
L 648.761811 414942.840038 
L 647.553543 414942.840038 
L 646.345276 414942.840038 
L 645.137008 414942.840038 
L 643.92874 414942.840038 
L 642.720472 414942.840038 
L 641.512205 414942.840038 
L 640.303937 414942.840038 
L 639.095669 414942.840038 
L 637.887402 414942.840038 
L 636.679134 414942.840038 
L 635.470866 414942.840038 
L 634.262598 414942.840038 
L 633.054331 414942.840038 
L 631.846063 414942.840038 
L 630.637795 414942.840038 
L 629.429528 414942.840038 
L 628.22126 414942.840038 
L 627.012992 414942.840038 
L 625.804724 414942.840038 
L 624.596457 414942.840038 
L 623.388189 414942.840038 
L 622.179921 414942.840038 
L 620.971654 414942.840038 
L 619.763386 414942.840038 
L 618.555118 414942.840038 
L 617.34685 414942.840038 
L 616.138583 414942.840038 
L 614.930315 414942.840038 
L 613.722047 414942.840038 
L 612.51378 414942.840038 
L 611.305512 414942.840038 
L 610.097244 414942.840038 
L 608.888976 414942.840038 
L 607.680709 414942.840038 
L 606.472441 414942.840038 
L 605.264173 414942.840038 
L 604.055906 414942.840038 
L 602.847638 414942.840038 
L 601.63937 414942.840038 
L 600.431102 414942.840038 
L 599.222835 414942.840038 
L 598.014567 414942.840038 
L 596.806299 414942.840038 
L 595.598031 414942.840038 
L 594.389764 414942.840038 
L 593.181496 414942.840038 
L 591.973228 414942.840038 
L 590.764961 414942.840038 
L 589.556693 414942.840038 
L 588.348425 414942.840038 
L 587.140157 414942.840038 
L 585.93189 414942.840038 
L 584.723622 414942.840038 
L 583.515354 414942.840038 
L 582.307087 414942.840038 
L 581.098819 414942.840038 
L 579.890551 414942.840038 
L 578.682283 414942.840038 
L 577.474016 414942.840038 
L 576.265748 414942.840038 
L 575.05748 414942.840038 
L 573.849213 414942.840038 
L 572.640945 414942.840038 
L 571.432677 414942.840038 
L 570.224409 414942.840038 
L 569.016142 414942.840038 
L 567.807874 414942.840038 
L 566.599606 414942.840038 
L 565.391339 414942.840038 
L 564.183071 414942.840038 
L 562.974803 414942.840038 
L 561.766535 414942.840038 
L 560.558268 414942.840038 
L 559.35 414942.840038 
L 558.141732 414942.840038 
L 556.933465 414942.840038 
L 555.725197 414942.840038 
L 554.516929 414942.840038 
L 553.308661 414942.840038 
L 552.100394 414942.840038 
L 550.892126 414942.840038 
L 549.683858 414942.840038 
L 548.475591 414942.840038 
L 547.267323 414942.840038 
L 546.059055 414942.840038 
L 544.850787 414942.840038 
L 543.64252 414942.840038 
L 542.434252 414942.840038 
L 541.225984 414942.840038 
L 540.017717 414942.840038 
L 538.809449 414942.840038 
L 537.601181 414942.840038 
L 536.392913 414942.840038 
L 535.184646 414942.840038 
L 533.976378 414942.840038 
L 532.76811 414942.840038 
L 531.559843 414942.840038 
L 530.351575 414942.840038 
L 529.143307 414942.840038 
L 527.935039 414942.840038 
L 526.726772 414942.840038 
L 525.518504 414942.840038 
L 524.310236 414942.840038 
L 523.101969 414942.840038 
L 521.893701 414942.840038 
L 520.685433 414942.840038 
L 519.477165 414942.840038 
L 518.268898 414942.840038 
L 517.06063 414942.840038 
L 515.852362 414942.840038 
L 514.644094 414942.840038 
L 513.435827 414942.840038 
L 512.227559 414942.840038 
L 511.019291 414942.840038 
L 509.811024 414942.840038 
L 508.602756 414942.840038 
L 507.394488 414942.840038 
L 506.18622 414942.840038 
L 504.977953 414942.840038 
L 503.769685 414942.840038 
L 502.561417 414942.840038 
L 501.35315 414942.840038 
L 500.144882 414942.840038 
L 498.936614 414942.840038 
L 497.728346 414942.840038 
L 496.520079 414942.840038 
L 495.311811 414942.840038 
L 494.103543 414942.840038 
L 492.895276 414942.840038 
L 491.687008 414942.840038 
L 490.47874 414942.840038 
L 489.270472 414942.840038 
L 488.062205 414942.840038 
L 486.853937 414942.840038 
L 485.645669 414942.840038 
L 484.437402 414942.840038 
L 483.229134 414942.840038 
L 482.020866 414942.840038 
L 480.812598 414942.840038 
L 479.604331 414942.840038 
L 478.396063 414942.840038 
L 477.187795 414942.840038 
L 475.979528 414942.840038 
L 474.77126 414942.840038 
L 473.562992 414942.840038 
L 472.354724 414942.840038 
L 471.146457 414942.840038 
L 469.938189 414942.840038 
L 468.729921 414942.840038 
L 467.521654 414942.840038 
L 466.313386 414942.840038 
L 465.105118 414942.840038 
L 463.89685 414942.840038 
L 462.688583 414942.840038 
L 461.480315 414942.840038 
L 460.272047 414942.840038 
L 459.06378 414942.840038 
L 457.855512 414942.840038 
L 456.647244 414942.840038 
L 455.438976 414942.840038 
L 454.230709 414942.840038 
L 453.022441 414942.840038 
L 451.814173 414942.840038 
L 450.605906 414942.840038 
L 449.397638 414942.840038 
L 448.18937 414942.840038 
L 446.981102 414942.840038 
L 445.772835 414942.840038 
L 444.564567 414942.840038 
L 443.356299 414942.840038 
L 442.148031 414942.840038 
L 440.939764 414942.840038 
L 439.731496 414942.840038 
L 438.523228 414942.840038 
L 437.314961 414942.840038 
L 436.106693 414942.840038 
L 434.898425 414942.840038 
L 433.690157 414942.840038 
L 432.48189 414942.840038 
L 431.273622 414942.840038 
L 430.065354 414942.840038 
L 428.857087 414942.840038 
L 427.648819 414942.840038 
L 426.440551 414942.840038 
L 425.232283 414942.840038 
L 424.024016 414942.840038 
L 422.815748 414942.840038 
L 421.60748 414942.840038 
L 420.399213 414942.840038 
L 419.190945 414942.840038 
L 417.982677 414942.840038 
L 416.774409 414942.840038 
L 415.566142 414942.840038 
L 414.357874 414942.840038 
L 413.149606 414942.840038 
L 411.941339 414942.840038 
L 410.733071 414942.840038 
L 409.524803 414942.840038 
L 408.316535 414942.840038 
L 407.108268 414942.840038 
L 405.9 414942.840038 
L 404.691732 414942.840038 
L 403.483465 414942.840038 
L 402.275197 414942.840038 
L 401.066929 414942.840038 
L 399.858661 414942.840038 
L 398.650394 414942.840038 
L 397.442126 414942.840038 
L 396.233858 414942.840038 
L 395.025591 414942.840038 
L 393.817323 414942.840038 
L 392.609055 414942.840038 
L 391.400787 414942.840038 
L 390.19252 414942.840038 
L 388.984252 414942.840038 
L 387.775984 414942.840038 
L 386.567717 414942.840038 
L 385.359449 414942.840038 
L 384.151181 414942.840038 
L 382.942913 414942.840038 
L 381.734646 414942.840038 
L 380.526378 414942.840038 
L 379.31811 414942.840038 
L 378.109843 414942.840038 
L 376.901575 414942.840038 
L 375.693307 414942.840038 
L 374.485039 414942.840038 
L 373.276772 414942.840038 
L 372.068504 414942.840038 
L 370.860236 414942.840038 
L 369.651969 414942.840038 
L 368.443701 414942.840038 
L 367.235433 414942.840038 
L 366.027165 414942.840038 
L 364.818898 414942.840038 
L 363.61063 414942.840038 
L 362.402362 414942.840038 
L 361.194094 414942.840038 
L 359.985827 414942.840038 
L 358.777559 414942.840038 
L 357.569291 414942.840038 
L 356.361024 414942.840038 
L 355.152756 414942.840038 
L 353.944488 414942.840038 
L 352.73622 414942.840038 
L 351.527953 414942.840038 
L 350.319685 414942.840038 
L 349.111417 414942.840038 
L 347.90315 414942.840038 
L 346.694882 414942.840038 
L 345.486614 414942.840038 
L 344.278346 414942.840038 
L 343.070079 414942.840038 
L 341.861811 414942.840038 
L 340.653543 414942.840038 
L 339.445276 414942.840038 
L 338.237008 414942.840038 
L 337.02874 414942.840038 
L 335.820472 414942.840038 
L 334.612205 414942.840038 
L 333.403937 414942.840038 
L 332.195669 414942.840038 
L 330.987402 414942.840038 
L 329.779134 414942.840038 
L 328.570866 414942.840038 
L 327.362598 414942.840038 
L 326.154331 414942.840038 
L 324.946063 414942.840038 
L 323.737795 414942.840038 
L 322.529528 414942.840038 
L 321.32126 414942.840038 
L 320.112992 414942.840038 
L 318.904724 414942.840038 
L 317.696457 414942.840038 
L 316.488189 414942.840038 
L 315.279921 414942.840038 
L 314.071654 414942.840038 
L 312.863386 414942.840038 
L 311.655118 414942.840038 
L 310.44685 414942.840038 
L 309.238583 414942.840038 
L 308.030315 414942.840038 
L 306.822047 414942.840038 
L 305.61378 414942.840038 
L 304.405512 414942.840038 
L 303.197244 414942.840038 
L 301.988976 414942.840038 
L 300.780709 414942.840038 
L 299.572441 414942.840038 
L 298.364173 414942.840038 
L 297.155906 414942.840038 
L 295.947638 414942.840038 
L 294.73937 414942.840038 
L 293.531102 414942.840038 
L 292.322835 414942.840038 
L 291.114567 414942.840038 
L 289.906299 414942.840038 
L 288.698031 414942.840038 
L 287.489764 414942.840038 
L 286.281496 414942.840038 
L 285.073228 414942.840038 
L 283.864961 414942.840038 
L 282.656693 414942.840038 
L 281.448425 414942.840038 
L 280.240157 414942.840038 
L 279.03189 414942.840038 
L 277.823622 414942.840038 
L 276.615354 414942.840038 
L 275.407087 414942.840038 
L 274.198819 414942.840038 
L 272.990551 414942.840038 
L 271.782283 414942.840038 
L 270.574016 414942.840038 
L 269.365748 414942.840038 
L 268.15748 414942.840038 
L 266.949213 414942.840038 
L 265.740945 414942.840038 
L 264.532677 414942.840038 
L 263.324409 414942.840038 
L 262.116142 414942.840038 
L 260.907874 414942.840038 
L 259.699606 414942.840038 
L 258.491339 414942.840038 
L 257.283071 414942.840038 
L 256.074803 414942.840038 
L 254.866535 414942.840038 
L 253.658268 414942.840038 
L 252.45 414942.840038 
L 251.241732 414942.840038 
L 250.033465 414942.840038 
L 248.825197 414942.840038 
L 247.616929 414942.840038 
L 246.408661 414942.840038 
L 245.200394 414942.840038 
L 243.992126 414942.840038 
L 242.783858 414942.840038 
L 241.575591 414942.840038 
L 240.367323 414942.840038 
L 239.159055 414942.840038 
L 237.950787 414942.840038 
L 236.74252 414942.840038 
L 235.534252 414942.840038 
L 234.325984 414942.840038 
L 233.117717 414942.840038 
L 231.909449 414942.840038 
L 230.701181 414942.840038 
L 229.492913 414942.840038 
L 228.284646 414942.840038 
L 227.076378 414942.840038 
L 225.86811 414942.840038 
L 224.659843 414942.840038 
L 223.451575 414942.840038 
L 222.243307 414942.840038 
L 221.035039 414942.840038 
L 219.826772 414942.840038 
L 218.618504 414942.840038 
L 217.410236 414942.840038 
L 216.201969 414942.840038 
L 214.993701 414942.840038 
L 213.785433 414942.840038 
L 212.577165 414942.840038 
L 211.368898 414942.840038 
L 210.16063 414942.840038 
L 208.952362 414942.840038 
L 207.744094 414942.840038 
L 206.535827 414942.840038 
L 205.327559 414942.840038 
L 204.119291 414942.840038 
L 202.911024 414942.840038 
L 201.702756 414942.840038 
L 200.494488 414942.840038 
L 199.28622 414942.840038 
L 198.077953 414942.840038 
L 196.869685 414942.840038 
L 195.661417 414942.840038 
L 194.45315 414942.840038 
L 193.244882 414942.840038 
L 192.036614 414942.840038 
L 190.828346 414942.840038 
L 189.620079 414942.840038 
L 188.411811 414942.840038 
L 187.203543 414942.840038 
L 185.995276 414942.840038 
L 184.787008 414942.840038 
L 183.57874 414942.840038 
L 182.370472 414942.840038 
L 181.162205 414942.840038 
L 179.953937 414942.840038 
L 178.745669 414942.840038 
L 177.537402 414942.840038 
L 176.329134 414942.840038 
L 175.120866 414942.840038 
L 173.912598 414942.840038 
L 172.704331 414942.840038 
L 171.496063 414942.840038 
L 170.287795 414942.840038 
L 169.079528 414942.840038 
L 167.87126 414942.840038 
L 166.662992 414942.840038 
L 165.454724 414942.840038 
L 164.246457 414942.840038 
L 163.038189 414942.840038 
L 161.829921 414942.840038 
L 160.621654 414942.840038 
L 159.413386 414942.840038 
L 158.205118 414942.840038 
L 156.99685 414942.840038 
L 155.788583 414942.840038 
L 154.580315 414942.840038 
L 153.372047 414942.840038 
L 152.16378 414942.840038 
L 150.955512 414942.840038 
L 149.747244 414942.840038 
L 148.538976 414942.840038 
L 147.330709 414942.840038 
L 146.122441 414942.840038 
L 144.914173 414942.840038 
L 143.705906 414942.840038 
L 142.497638 414942.840038 
L 141.28937 414942.840038 
L 140.081102 414942.840038 
L 138.872835 414942.840038 
L 137.664567 414942.840038 
L 136.456299 414942.840038 
L 135.248031 414942.840038 
L 134.039764 414942.840038 
L 132.831496 414942.840038 
L 131.623228 414942.840038 
L 130.414961 414942.840038 
L 129.206693 414942.840038 
L 127.998425 414942.840038 
L 126.790157 414942.840038 
L 125.58189 414942.840038 
L 124.373622 414942.840038 
L 123.165354 414942.840038 
L 121.957087 414942.840038 
L 120.748819 414942.840038 
L 119.540551 414942.840038 
L 118.332283 414942.840038 
L 117.124016 414942.840038 
L 115.915748 414942.840038 
L 114.70748 414942.840038 
L 113.499213 414942.840038 
L 112.290945 414942.840038 
L 111.082677 414942.840038 
L 109.874409 414942.840038 
L 108.666142 414942.840038 
L 107.457874 414942.840038 
L 106.249606 414942.840038 
L 105.041339 414942.840038 
L 103.833071 414942.840038 
L 102.624803 414942.840038 
L 101.416535 414942.840038 
L 100.208268 414942.840038 
L 99 414942.840038 
z
" style="fill:#ff8080;fill-opacity:0.5;stroke:#ff8080;stroke-opacity:0.5;"/>
   </g>
   <g id="matplotlib.axis_1">
    <g id="xtick_1">
     <g id="line2d_1">
      <path clip-path="url(#p68e2955192)" d="M 99 544.68 
L 99 73.44 
" style="fill:none;stroke:#b0b0b0;stroke-linecap:square;stroke-width:0.8;"/>
     </g>
     <g id="line2d_2">
      <defs>
       <path d="M 0 0 
L 0 3.5 
" id="m4abed1d830" style="stroke:#000000;stroke-width:0.8;"/>
      </defs>
      <g>
       <use style="stroke:#000000;stroke-width:0.8;" x="99" xlink:href="#m4abed1d830" y="544.68"/>
      </g>
     </g>
    </g>
    <g id="xtick_2">
     <g id="line2d_3">
      <path clip-path="url(#p68e2955192)" d="M 103.833071 544.68 
L 103.833071 73.44 
" style="fill:none;stroke:#b0b0b0;stroke-linecap:square;stroke-width:0.8;"/>
     </g>
     <g id="line2d_4">
      <g>
       <use style="stroke:#000000;stroke-width:0.8;" x="103.833071" xlink:href="#m4abed1d830" y="544.68"/>
      </g>
     </g>
     <g id="text_1">
      <!-- Apr -->
      <g transform="translate(95.183071 559.278437)scale(0.1 -0.1)">
       <defs>
        <path d="M 2188 4044 
L 1331 1722 
L 3047 1722 
L 2188 4044 
z
M 1831 4666 
L 2547 4666 
L 4325 0 
L 3669 0 
L 3244 1197 
L 1141 1197 
L 716 0 
L 50 0 
L 1831 4666 
z
" id="DejaVuSans-41" transform="scale(0.015625)"/>
        <path d="M 1159 525 
L 1159 -1331 
L 581 -1331 
L 581 3500 
L 1159 3500 
L 1159 2969 
Q 1341 3281 1617 3432 
Q 1894 3584 2278 3584 
Q 2916 3584 3314 3078 
Q 3713 2572 3713 1747 
Q 3713 922 3314 415 
Q 2916 -91 2278 -91 
Q 1894 -91 1617 61 
Q 1341 213 1159 525 
z
M 3116 1747 
Q 3116 2381 2855 2742 
Q 2594 3103 2138 3103 
Q 1681 3103 1420 2742 
Q 1159 2381 1159 1747 
Q 1159 1113 1420 752 
Q 1681 391 2138 391 
Q 2594 391 2855 752 
Q 3116 1113 3116 1747 
z
" id="DejaVuSans-70" transform="scale(0.015625)"/>
        <path d="M 2631 2963 
Q 2534 3019 2420 3045 
Q 2306 3072 2169 3072 
Q 1681 3072 1420 2755 
Q 1159 2438 1159 1844 
L 1159 0 
L 581 0 
L 581 3500 
L 1159 3500 
L 1159 2956 
Q 1341 3275 1631 3429 
Q 1922 3584 2338 3584 
Q 2397 3584 2469 3576 
Q 2541 3569 2628 3553 
L 2631 2963 
z
" id="DejaVuSans-72" transform="scale(0.015625)"/>
       </defs>
       <use xlink:href="#DejaVuSans-41"/>
       <use x="68.408203" xlink:href="#DejaVuSans-70"/>
       <use x="131.884766" xlink:href="#DejaVuSans-72"/>
      </g>
     </g>
    </g>
    <g id="xtick_3">
     <g id="line2d_5">
      <path clip-path="url(#p68e2955192)" d="M 213.785433 544.68 
L 213.785433 73.44 
" style="fill:none;stroke:#b0b0b0;stroke-linecap:square;stroke-width:0.8;"/>
     </g>
     <g id="line2d_6">
      <g>
       <use style="stroke:#000000;stroke-width:0.8;" x="213.785433" xlink:href="#m4abed1d830" y="544.68"/>
      </g>
     </g>
     <g id="text_2">
      <!-- Jul -->
      <g transform="translate(207.752621 559.278437)scale(0.1 -0.1)">
       <defs>
        <path d="M 628 4666 
L 1259 4666 
L 1259 325 
Q 1259 -519 939 -900 
Q 619 -1281 -91 -1281 
L -331 -1281 
L -331 -750 
L -134 -750 
Q 284 -750 456 -515 
Q 628 -281 628 325 
L 628 4666 
z
" id="DejaVuSans-4a" transform="scale(0.015625)"/>
        <path d="M 544 1381 
L 544 3500 
L 1119 3500 
L 1119 1403 
Q 1119 906 1312 657 
Q 1506 409 1894 409 
Q 2359 409 2629 706 
Q 2900 1003 2900 1516 
L 2900 3500 
L 3475 3500 
L 3475 0 
L 2900 0 
L 2900 538 
Q 2691 219 2414 64 
Q 2138 -91 1772 -91 
Q 1169 -91 856 284 
Q 544 659 544 1381 
z
M 1991 3584 
L 1991 3584 
z
" id="DejaVuSans-75" transform="scale(0.015625)"/>
        <path d="M 603 4863 
L 1178 4863 
L 1178 0 
L 603 0 
L 603 4863 
z
" id="DejaVuSans-6c" transform="scale(0.015625)"/>
       </defs>
       <use xlink:href="#DejaVuSans-4a"/>
       <use x="29.492188" xlink:href="#DejaVuSans-75"/>
       <use x="92.871094" xlink:href="#DejaVuSans-6c"/>
      </g>
     </g>
    </g>
    <g id="xtick_4">
     <g id="line2d_7">
      <path clip-path="url(#p68e2955192)" d="M 324.946063 544.68 
L 324.946063 73.44 
" style="fill:none;stroke:#b0b0b0;stroke-linecap:square;stroke-width:0.8;"/>
     </g>
     <g id="line2d_8">
      <g>
       <use style="stroke:#000000;stroke-width:0.8;" x="324.946063" xlink:href="#m4abed1d830" y="544.68"/>
      </g>
     </g>
     <g id="text_3">
      <!-- Oct -->
      <g transform="translate(316.30075 559.278437)scale(0.1 -0.1)">
       <defs>
        <path d="M 2522 4238 
Q 1834 4238 1429 3725 
Q 1025 3213 1025 2328 
Q 1025 1447 1429 934 
Q 1834 422 2522 422 
Q 3209 422 3611 934 
Q 4013 1447 4013 2328 
Q 4013 3213 3611 3725 
Q 3209 4238 2522 4238 
z
M 2522 4750 
Q 3503 4750 4090 4092 
Q 4678 3434 4678 2328 
Q 4678 1225 4090 567 
Q 3503 -91 2522 -91 
Q 1538 -91 948 565 
Q 359 1222 359 2328 
Q 359 3434 948 4092 
Q 1538 4750 2522 4750 
z
" id="DejaVuSans-4f" transform="scale(0.015625)"/>
        <path d="M 3122 3366 
L 3122 2828 
Q 2878 2963 2633 3030 
Q 2388 3097 2138 3097 
Q 1578 3097 1268 2742 
Q 959 2388 959 1747 
Q 959 1106 1268 751 
Q 1578 397 2138 397 
Q 2388 397 2633 464 
Q 2878 531 3122 666 
L 3122 134 
Q 2881 22 2623 -34 
Q 2366 -91 2075 -91 
Q 1284 -91 818 406 
Q 353 903 353 1747 
Q 353 2603 823 3093 
Q 1294 3584 2113 3584 
Q 2378 3584 2631 3529 
Q 2884 3475 3122 3366 
z
" id="DejaVuSans-63" transform="scale(0.015625)"/>
        <path d="M 1172 4494 
L 1172 3500 
L 2356 3500 
L 2356 3053 
L 1172 3053 
L 1172 1153 
Q 1172 725 1289 603 
Q 1406 481 1766 481 
L 2356 481 
L 2356 0 
L 1766 0 
Q 1100 0 847 248 
Q 594 497 594 1153 
L 594 3053 
L 172 3053 
L 172 3500 
L 594 3500 
L 594 4494 
L 1172 4494 
z
" id="DejaVuSans-74" transform="scale(0.015625)"/>
       </defs>
       <use xlink:href="#DejaVuSans-4f"/>
       <use x="78.710938" xlink:href="#DejaVuSans-63"/>
       <use x="133.691406" xlink:href="#DejaVuSans-74"/>
      </g>
     </g>
    </g>
    <g id="xtick_5">
     <g id="line2d_9">
      <path clip-path="url(#p68e2955192)" d="M 436.106693 544.68 
L 436.106693 73.44 
" style="fill:none;stroke:#b0b0b0;stroke-linecap:square;stroke-width:0.8;"/>
     </g>
     <g id="line2d_10">
      <g>
       <use style="stroke:#000000;stroke-width:0.8;" x="436.106693" xlink:href="#m4abed1d830" y="544.68"/>
      </g>
     </g>
     <g id="text_4">
      <!-- Jan -->
      <g transform="translate(428.39888 559.278437)scale(0.1 -0.1)">
       <defs>
        <path d="M 2194 1759 
Q 1497 1759 1228 1600 
Q 959 1441 959 1056 
Q 959 750 1161 570 
Q 1363 391 1709 391 
Q 2188 391 2477 730 
Q 2766 1069 2766 1631 
L 2766 1759 
L 2194 1759 
z
M 3341 1997 
L 3341 0 
L 2766 0 
L 2766 531 
Q 2569 213 2275 61 
Q 1981 -91 1556 -91 
Q 1019 -91 701 211 
Q 384 513 384 1019 
Q 384 1609 779 1909 
Q 1175 2209 1959 2209 
L 2766 2209 
L 2766 2266 
Q 2766 2663 2505 2880 
Q 2244 3097 1772 3097 
Q 1472 3097 1187 3025 
Q 903 2953 641 2809 
L 641 3341 
Q 956 3463 1253 3523 
Q 1550 3584 1831 3584 
Q 2591 3584 2966 3190 
Q 3341 2797 3341 1997 
z
" id="DejaVuSans-61" transform="scale(0.015625)"/>
        <path d="M 3513 2113 
L 3513 0 
L 2938 0 
L 2938 2094 
Q 2938 2591 2744 2837 
Q 2550 3084 2163 3084 
Q 1697 3084 1428 2787 
Q 1159 2491 1159 1978 
L 1159 0 
L 581 0 
L 581 3500 
L 1159 3500 
L 1159 2956 
Q 1366 3272 1645 3428 
Q 1925 3584 2291 3584 
Q 2894 3584 3203 3211 
Q 3513 2838 3513 2113 
z
" id="DejaVuSans-6e" transform="scale(0.015625)"/>
       </defs>
       <use xlink:href="#DejaVuSans-4a"/>
       <use x="29.492188" xlink:href="#DejaVuSans-61"/>
       <use x="90.771484" xlink:href="#DejaVuSans-6e"/>
      </g>
      <!-- 2021 -->
      <g transform="translate(423.381693 570.47625)scale(0.1 -0.1)">
       <defs>
        <path d="M 1228 531 
L 3431 531 
L 3431 0 
L 469 0 
L 469 531 
Q 828 903 1448 1529 
Q 2069 2156 2228 2338 
Q 2531 2678 2651 2914 
Q 2772 3150 2772 3378 
Q 2772 3750 2511 3984 
Q 2250 4219 1831 4219 
Q 1534 4219 1204 4116 
Q 875 4013 500 3803 
L 500 4441 
Q 881 4594 1212 4672 
Q 1544 4750 1819 4750 
Q 2544 4750 2975 4387 
Q 3406 4025 3406 3419 
Q 3406 3131 3298 2873 
Q 3191 2616 2906 2266 
Q 2828 2175 2409 1742 
Q 1991 1309 1228 531 
z
" id="DejaVuSans-32" transform="scale(0.015625)"/>
        <path d="M 2034 4250 
Q 1547 4250 1301 3770 
Q 1056 3291 1056 2328 
Q 1056 1369 1301 889 
Q 1547 409 2034 409 
Q 2525 409 2770 889 
Q 3016 1369 3016 2328 
Q 3016 3291 2770 3770 
Q 2525 4250 2034 4250 
z
M 2034 4750 
Q 2819 4750 3233 4129 
Q 3647 3509 3647 2328 
Q 3647 1150 3233 529 
Q 2819 -91 2034 -91 
Q 1250 -91 836 529 
Q 422 1150 422 2328 
Q 422 3509 836 4129 
Q 1250 4750 2034 4750 
z
" id="DejaVuSans-30" transform="scale(0.015625)"/>
        <path d="M 794 531 
L 1825 531 
L 1825 4091 
L 703 3866 
L 703 4441 
L 1819 4666 
L 2450 4666 
L 2450 531 
L 3481 531 
L 3481 0 
L 794 0 
L 794 531 
z
" id="DejaVuSans-31" transform="scale(0.015625)"/>
       </defs>
       <use xlink:href="#DejaVuSans-32"/>
       <use x="63.623047" xlink:href="#DejaVuSans-30"/>
       <use x="127.246094" xlink:href="#DejaVuSans-32"/>
       <use x="190.869141" xlink:href="#DejaVuSans-31"/>
      </g>
     </g>
    </g>
    <g id="xtick_6">
     <g id="line2d_11">
      <path clip-path="url(#p68e2955192)" d="M 544.850787 544.68 
L 544.850787 73.44 
" style="fill:none;stroke:#b0b0b0;stroke-linecap:square;stroke-width:0.8;"/>
     </g>
     <g id="line2d_12">
      <g>
       <use style="stroke:#000000;stroke-width:0.8;" x="544.850787" xlink:href="#m4abed1d830" y="544.68"/>
      </g>
     </g>
     <g id="text_5">
      <!-- Apr -->
      <g transform="translate(536.200787 559.278437)scale(0.1 -0.1)">
       <use xlink:href="#DejaVuSans-41"/>
       <use x="68.408203" xlink:href="#DejaVuSans-70"/>
       <use x="131.884766" xlink:href="#DejaVuSans-72"/>
      </g>
     </g>
    </g>
    <g id="xtick_7">
     <g id="line2d_13">
      <path clip-path="url(#p68e2955192)" d="M 654.80315 544.68 
L 654.80315 73.44 
" style="fill:none;stroke:#b0b0b0;stroke-linecap:square;stroke-width:0.8;"/>
     </g>
     <g id="line2d_14">
      <g>
       <use style="stroke:#000000;stroke-width:0.8;" x="654.80315" xlink:href="#m4abed1d830" y="544.68"/>
      </g>
     </g>
     <g id="text_6">
      <!-- Jul -->
      <g transform="translate(648.770337 559.278437)scale(0.1 -0.1)">
       <use xlink:href="#DejaVuSans-4a"/>
       <use x="29.492188" xlink:href="#DejaVuSans-75"/>
       <use x="92.871094" xlink:href="#DejaVuSans-6c"/>
      </g>
     </g>
    </g>
    <g id="xtick_8">
     <g id="line2d_15">
      <path clip-path="url(#p68e2955192)" d="M 712.8 544.68 
L 712.8 73.44 
" style="fill:none;stroke:#b0b0b0;stroke-linecap:square;stroke-width:0.8;"/>
     </g>
     <g id="line2d_16">
      <g>
       <use style="stroke:#000000;stroke-width:0.8;" x="712.8" xlink:href="#m4abed1d830" y="544.68"/>
      </g>
     </g>
    </g>
    <g id="xtick_9">
     <g id="line2d_17">
      <defs>
       <path d="M 0 0 
L 0 2 
" id="mbe9820739d" style="stroke:#000000;stroke-width:0.6;"/>
      </defs>
      <g>
       <use style="stroke:#000000;stroke-width:0.6;" x="140.081102" xlink:href="#mbe9820739d" y="544.68"/>
      </g>
     </g>
    </g>
    <g id="xtick_10">
     <g id="line2d_18">
      <g>
       <use style="stroke:#000000;stroke-width:0.6;" x="177.537402" xlink:href="#mbe9820739d" y="544.68"/>
      </g>
     </g>
    </g>
    <g id="xtick_11">
     <g id="line2d_19">
      <g>
       <use style="stroke:#000000;stroke-width:0.6;" x="251.241732" xlink:href="#mbe9820739d" y="544.68"/>
      </g>
     </g>
    </g>
    <g id="xtick_12">
     <g id="line2d_20">
      <g>
       <use style="stroke:#000000;stroke-width:0.6;" x="288.698031" xlink:href="#mbe9820739d" y="544.68"/>
      </g>
     </g>
    </g>
    <g id="xtick_13">
     <g id="line2d_21">
      <g>
       <use style="stroke:#000000;stroke-width:0.6;" x="362.402362" xlink:href="#mbe9820739d" y="544.68"/>
      </g>
     </g>
    </g>
    <g id="xtick_14">
     <g id="line2d_22">
      <g>
       <use style="stroke:#000000;stroke-width:0.6;" x="398.650394" xlink:href="#mbe9820739d" y="544.68"/>
      </g>
     </g>
    </g>
    <g id="xtick_15">
     <g id="line2d_23">
      <g>
       <use style="stroke:#000000;stroke-width:0.6;" x="473.562992" xlink:href="#mbe9820739d" y="544.68"/>
      </g>
     </g>
    </g>
    <g id="xtick_16">
     <g id="line2d_24">
      <g>
       <use style="stroke:#000000;stroke-width:0.6;" x="507.394488" xlink:href="#mbe9820739d" y="544.68"/>
      </g>
     </g>
    </g>
    <g id="xtick_17">
     <g id="line2d_25">
      <g>
       <use style="stroke:#000000;stroke-width:0.6;" x="581.098819" xlink:href="#mbe9820739d" y="544.68"/>
      </g>
     </g>
    </g>
    <g id="xtick_18">
     <g id="line2d_26">
      <g>
       <use style="stroke:#000000;stroke-width:0.6;" x="618.555118" xlink:href="#mbe9820739d" y="544.68"/>
      </g>
     </g>
    </g>
    <g id="xtick_19">
     <g id="line2d_27">
      <g>
       <use style="stroke:#000000;stroke-width:0.6;" x="692.259449" xlink:href="#mbe9820739d" y="544.68"/>
      </g>
     </g>
    </g>
    <g id="text_7">
     <!-- Date -->
     <g transform="translate(393.949219 584.154375)scale(0.1 -0.1)">
      <defs>
       <path d="M 1259 4147 
L 1259 519 
L 2022 519 
Q 2988 519 3436 956 
Q 3884 1394 3884 2338 
Q 3884 3275 3436 3711 
Q 2988 4147 2022 4147 
L 1259 4147 
z
M 628 4666 
L 1925 4666 
Q 3281 4666 3915 4102 
Q 4550 3538 4550 2338 
Q 4550 1131 3912 565 
Q 3275 0 1925 0 
L 628 0 
L 628 4666 
z
" id="DejaVuSans-44" transform="scale(0.015625)"/>
       <path d="M 3597 1894 
L 3597 1613 
L 953 1613 
Q 991 1019 1311 708 
Q 1631 397 2203 397 
Q 2534 397 2845 478 
Q 3156 559 3463 722 
L 3463 178 
Q 3153 47 2828 -22 
Q 2503 -91 2169 -91 
Q 1331 -91 842 396 
Q 353 884 353 1716 
Q 353 2575 817 3079 
Q 1281 3584 2069 3584 
Q 2775 3584 3186 3129 
Q 3597 2675 3597 1894 
z
M 3022 2063 
Q 3016 2534 2758 2815 
Q 2500 3097 2075 3097 
Q 1594 3097 1305 2825 
Q 1016 2553 972 2059 
L 3022 2063 
z
" id="DejaVuSans-65" transform="scale(0.015625)"/>
      </defs>
      <use xlink:href="#DejaVuSans-44"/>
      <use x="77.001953" xlink:href="#DejaVuSans-61"/>
      <use x="138.28125" xlink:href="#DejaVuSans-74"/>
      <use x="177.490234" xlink:href="#DejaVuSans-65"/>
     </g>
    </g>
   </g>
   <g id="matplotlib.axis_2">
    <g id="ytick_1">
     <g id="line2d_28">
      <path clip-path="url(#p68e2955192)" d="M 99 398.46971 
L 712.8 398.46971 
" style="fill:none;stroke:#b0b0b0;stroke-linecap:square;stroke-width:0.8;"/>
     </g>
     <g id="line2d_29">
      <defs>
       <path d="M 0 0 
L -3.5 0 
" id="me91a084207" style="stroke:#000000;stroke-width:0.8;"/>
      </defs>
      <g>
       <use style="stroke:#000000;stroke-width:0.8;" x="99" xlink:href="#me91a084207" y="398.46971"/>
      </g>
     </g>
     <g id="text_8">
      <!-- $\mathdefault{10^{0}}$ -->
      <g transform="translate(74.4 402.268929)scale(0.1 -0.1)">
       <use transform="translate(0 0.765625)" xlink:href="#DejaVuSans-31"/>
       <use transform="translate(63.623047 0.765625)" xlink:href="#DejaVuSans-30"/>
       <use transform="translate(128.203125 39.046875)scale(0.7)" xlink:href="#DejaVuSans-30"/>
      </g>
     </g>
    </g>
    <g id="ytick_2">
     <g id="line2d_30">
      <path clip-path="url(#p68e2955192)" d="M 99 523.26 
L 712.8 523.26 
" style="fill:none;stroke:#b0b0b0;stroke-linecap:square;stroke-width:0.8;"/>
     </g>
     <g id="line2d_31">
      <defs>
       <path d="M 0 0 
L -2 0 
" id="m0cb60b688e" style="stroke:#000000;stroke-width:0.6;"/>
      </defs>
      <g>
       <use style="stroke:#000000;stroke-width:0.6;" x="99" xlink:href="#m0cb60b688e" y="523.26"/>
      </g>
     </g>
    </g>
    <g id="ytick_3">
     <g id="line2d_32">
      <path clip-path="url(#p68e2955192)" d="M 99 490.43586 
L 712.8 490.43586 
" style="fill:none;stroke:#b0b0b0;stroke-linecap:square;stroke-width:0.8;"/>
     </g>
     <g id="line2d_33">
      <g>
       <use style="stroke:#000000;stroke-width:0.6;" x="99" xlink:href="#m0cb60b688e" y="490.43586"/>
      </g>
     </g>
    </g>
    <g id="ytick_4">
     <g id="line2d_34">
      <path clip-path="url(#p68e2955192)" d="M 99 462.683445 
L 712.8 462.683445 
" style="fill:none;stroke:#b0b0b0;stroke-linecap:square;stroke-width:0.8;"/>
     </g>
     <g id="line2d_35">
      <g>
       <use style="stroke:#000000;stroke-width:0.6;" x="99" xlink:href="#m0cb60b688e" y="462.683445"/>
      </g>
     </g>
    </g>
    <g id="ytick_5">
     <g id="line2d_36">
      <path clip-path="url(#p68e2955192)" d="M 99 438.64321 
L 712.8 438.64321 
" style="fill:none;stroke:#b0b0b0;stroke-linecap:square;stroke-width:0.8;"/>
     </g>
     <g id="line2d_37">
      <g>
       <use style="stroke:#000000;stroke-width:0.6;" x="99" xlink:href="#m0cb60b688e" y="438.64321"/>
      </g>
     </g>
    </g>
    <g id="ytick_6">
     <g id="line2d_38">
      <path clip-path="url(#p68e2955192)" d="M 99 417.43822 
L 712.8 417.43822 
" style="fill:none;stroke:#b0b0b0;stroke-linecap:square;stroke-width:0.8;"/>
     </g>
     <g id="line2d_39">
      <g>
       <use style="stroke:#000000;stroke-width:0.6;" x="99" xlink:href="#m0cb60b688e" y="417.43822"/>
      </g>
     </g>
    </g>
    <g id="ytick_7">
     <g id="line2d_40">
      <path clip-path="url(#p68e2955192)" d="M 99 273.67942 
L 712.8 273.67942 
" style="fill:none;stroke:#b0b0b0;stroke-linecap:square;stroke-width:0.8;"/>
     </g>
     <g id="line2d_41">
      <g>
       <use style="stroke:#000000;stroke-width:0.6;" x="99" xlink:href="#m0cb60b688e" y="273.67942"/>
      </g>
     </g>
    </g>
    <g id="ytick_8">
     <g id="line2d_42">
      <path clip-path="url(#p68e2955192)" d="M 99 200.68178 
L 712.8 200.68178 
" style="fill:none;stroke:#b0b0b0;stroke-linecap:square;stroke-width:0.8;"/>
     </g>
     <g id="line2d_43">
      <g>
       <use style="stroke:#000000;stroke-width:0.6;" x="99" xlink:href="#m0cb60b688e" y="200.68178"/>
      </g>
     </g>
    </g>
    <g id="ytick_9">
     <g id="line2d_44">
      <path clip-path="url(#p68e2955192)" d="M 99 148.88913 
L 712.8 148.88913 
" style="fill:none;stroke:#b0b0b0;stroke-linecap:square;stroke-width:0.8;"/>
     </g>
     <g id="line2d_45">
      <g>
       <use style="stroke:#000000;stroke-width:0.6;" x="99" xlink:href="#m0cb60b688e" y="148.88913"/>
      </g>
     </g>
    </g>
    <g id="ytick_10">
     <g id="line2d_46">
      <path clip-path="url(#p68e2955192)" d="M 99 108.71563 
L 712.8 108.71563 
" style="fill:none;stroke:#b0b0b0;stroke-linecap:square;stroke-width:0.8;"/>
     </g>
     <g id="line2d_47">
      <g>
       <use style="stroke:#000000;stroke-width:0.6;" x="99" xlink:href="#m0cb60b688e" y="108.71563"/>
      </g>
     </g>
    </g>
    <g id="ytick_11">
     <g id="line2d_48">
      <path clip-path="url(#p68e2955192)" d="M 99 75.89149 
L 712.8 75.89149 
" style="fill:none;stroke:#b0b0b0;stroke-linecap:square;stroke-width:0.8;"/>
     </g>
     <g id="line2d_49">
      <g>
       <use style="stroke:#000000;stroke-width:0.6;" x="99" xlink:href="#m0cb60b688e" y="75.89149"/>
      </g>
     </g>
    </g>
   </g>
   <g id="line2d_50">
    <path clip-path="url(#p68e2955192)" d="M 262.11588 613 
L 262.116142 523.26 
L 264.532677 523.26 
L 264.532939 613 
M 266.948951 613 
L 266.949213 523.26 
L 266.949474 613 
" style="fill:none;stroke:#1f77b4;stroke-linecap:square;stroke-width:1.5;"/>
   </g>
   <g id="line2d_51">
    <path clip-path="url(#p68e2955192)" d="M 0 0 
" style="fill:none;stroke:#ff7f0e;stroke-linecap:square;stroke-width:1.5;"/>
   </g>
   <g id="patch_3">
    <path d="M 99 544.68 
L 99 73.44 
" style="fill:none;stroke:#000000;stroke-linecap:square;stroke-linejoin:miter;stroke-width:0.8;"/>
   </g>
   <g id="patch_4">
    <path d="M 712.8 544.68 
L 712.8 73.44 
" style="fill:none;stroke:#000000;stroke-linecap:square;stroke-linejoin:miter;stroke-width:0.8;"/>
   </g>
   <g id="patch_5">
    <path d="M 99 544.68 
L 712.8 544.68 
" style="fill:none;stroke:#000000;stroke-linecap:square;stroke-linejoin:miter;stroke-width:0.8;"/>
   </g>
   <g id="patch_6">
    <path d="M 99 73.44 
L 712.8 73.44 
" style="fill:none;stroke:#000000;stroke-linecap:square;stroke-linejoin:miter;stroke-width:0.8;"/>
   </g>
   <g id="legend_1">
    <g id="patch_7">
     <path d="M 616.653125 110.79625 
L 705.8 110.79625 
Q 707.8 110.79625 707.8 108.79625 
L 707.8 80.44 
Q 707.8 78.44 705.8 78.44 
L 616.653125 78.44 
Q 614.653125 78.44 614.653125 80.44 
L 614.653125 108.79625 
Q 614.653125 110.79625 616.653125 110.79625 
z
" style="fill:#ffffff;opacity:0.8;stroke:#cccccc;stroke-linejoin:miter;"/>
    </g>
    <g id="line2d_52">
     <path d="M 618.653125 86.538437 
L 638.653125 86.538437 
" style="fill:none;stroke:#1f77b4;stroke-linecap:square;stroke-width:1.5;"/>
    </g>
    <g id="line2d_53"/>
    <g id="text_9">
     <!-- Avg Cases -->
     <g transform="translate(646.653125 90.038437)scale(0.1 -0.1)">
      <defs>
       <path d="M 191 3500 
L 800 3500 
L 1894 563 
L 2988 3500 
L 3597 3500 
L 2284 0 
L 1503 0 
L 191 3500 
z
" id="DejaVuSans-76" transform="scale(0.015625)"/>
       <path d="M 2906 1791 
Q 2906 2416 2648 2759 
Q 2391 3103 1925 3103 
Q 1463 3103 1205 2759 
Q 947 2416 947 1791 
Q 947 1169 1205 825 
Q 1463 481 1925 481 
Q 2391 481 2648 825 
Q 2906 1169 2906 1791 
z
M 3481 434 
Q 3481 -459 3084 -895 
Q 2688 -1331 1869 -1331 
Q 1566 -1331 1297 -1286 
Q 1028 -1241 775 -1147 
L 775 -588 
Q 1028 -725 1275 -790 
Q 1522 -856 1778 -856 
Q 2344 -856 2625 -561 
Q 2906 -266 2906 331 
L 2906 616 
Q 2728 306 2450 153 
Q 2172 0 1784 0 
Q 1141 0 747 490 
Q 353 981 353 1791 
Q 353 2603 747 3093 
Q 1141 3584 1784 3584 
Q 2172 3584 2450 3431 
Q 2728 3278 2906 2969 
L 2906 3500 
L 3481 3500 
L 3481 434 
z
" id="DejaVuSans-67" transform="scale(0.015625)"/>
       <path id="DejaVuSans-20" transform="scale(0.015625)"/>
       <path d="M 4122 4306 
L 4122 3641 
Q 3803 3938 3442 4084 
Q 3081 4231 2675 4231 
Q 1875 4231 1450 3742 
Q 1025 3253 1025 2328 
Q 1025 1406 1450 917 
Q 1875 428 2675 428 
Q 3081 428 3442 575 
Q 3803 722 4122 1019 
L 4122 359 
Q 3791 134 3420 21 
Q 3050 -91 2638 -91 
Q 1578 -91 968 557 
Q 359 1206 359 2328 
Q 359 3453 968 4101 
Q 1578 4750 2638 4750 
Q 3056 4750 3426 4639 
Q 3797 4528 4122 4306 
z
" id="DejaVuSans-43" transform="scale(0.015625)"/>
       <path d="M 2834 3397 
L 2834 2853 
Q 2591 2978 2328 3040 
Q 2066 3103 1784 3103 
Q 1356 3103 1142 2972 
Q 928 2841 928 2578 
Q 928 2378 1081 2264 
Q 1234 2150 1697 2047 
L 1894 2003 
Q 2506 1872 2764 1633 
Q 3022 1394 3022 966 
Q 3022 478 2636 193 
Q 2250 -91 1575 -91 
Q 1294 -91 989 -36 
Q 684 19 347 128 
L 347 722 
Q 666 556 975 473 
Q 1284 391 1588 391 
Q 1994 391 2212 530 
Q 2431 669 2431 922 
Q 2431 1156 2273 1281 
Q 2116 1406 1581 1522 
L 1381 1569 
Q 847 1681 609 1914 
Q 372 2147 372 2553 
Q 372 3047 722 3315 
Q 1072 3584 1716 3584 
Q 2034 3584 2315 3537 
Q 2597 3491 2834 3397 
z
" id="DejaVuSans-73" transform="scale(0.015625)"/>
      </defs>
      <use xlink:href="#DejaVuSans-41"/>
      <use x="62.533203" xlink:href="#DejaVuSans-76"/>
      <use x="121.712891" xlink:href="#DejaVuSans-67"/>
      <use x="185.189453" xlink:href="#DejaVuSans-20"/>
      <use x="216.976562" xlink:href="#DejaVuSans-43"/>
      <use x="286.800781" xlink:href="#DejaVuSans-61"/>
      <use x="348.080078" xlink:href="#DejaVuSans-73"/>
      <use x="400.179688" xlink:href="#DejaVuSans-65"/>
      <use x="461.703125" xlink:href="#DejaVuSans-73"/>
     </g>
    </g>
    <g id="line2d_54">
     <path d="M 618.653125 101.216562 
L 638.653125 101.216562 
" style="fill:none;stroke:#ff7f0e;stroke-linecap:square;stroke-width:1.5;"/>
    </g>
    <g id="line2d_55"/>
    <g id="text_10">
     <!-- Avg Deaths -->
     <g transform="translate(646.653125 104.716562)scale(0.1 -0.1)">
      <defs>
       <path d="M 3513 2113 
L 3513 0 
L 2938 0 
L 2938 2094 
Q 2938 2591 2744 2837 
Q 2550 3084 2163 3084 
Q 1697 3084 1428 2787 
Q 1159 2491 1159 1978 
L 1159 0 
L 581 0 
L 581 4863 
L 1159 4863 
L 1159 2956 
Q 1366 3272 1645 3428 
Q 1925 3584 2291 3584 
Q 2894 3584 3203 3211 
Q 3513 2838 3513 2113 
z
" id="DejaVuSans-68" transform="scale(0.015625)"/>
      </defs>
      <use xlink:href="#DejaVuSans-41"/>
      <use x="62.533203" xlink:href="#DejaVuSans-76"/>
      <use x="121.712891" xlink:href="#DejaVuSans-67"/>
      <use x="185.189453" xlink:href="#DejaVuSans-20"/>
      <use x="216.976562" xlink:href="#DejaVuSans-44"/>
      <use x="293.978516" xlink:href="#DejaVuSans-65"/>
      <use x="355.501953" xlink:href="#DejaVuSans-61"/>
      <use x="416.78125" xlink:href="#DejaVuSans-74"/>
      <use x="455.990234" xlink:href="#DejaVuSans-68"/>
      <use x="519.369141" xlink:href="#DejaVuSans-73"/>
     </g>
    </g>
   </g>
  </g>
 </g>
 <defs>
  <clipPath id="p68e2955192">
   <rect height="471.24" width="613.8" x="99" y="73.44"/>
  </clipPath>
 </defs>
</svg>
