<?xml version="1.0" encoding="utf-8" standalone="no"?>
<!DOCTYPE svg PUBLIC "-//W3C//DTD SVG 1.1//EN"
  "http://www.w3.org/Graphics/SVG/1.1/DTD/svg11.dtd">
<svg height="612pt" version="1.1" viewBox="0 0 792 612" width="792pt" xmlns="http://www.w3.org/2000/svg" xmlns:xlink="http://www.w3.org/1999/xlink">
 <metadata>
  <rdf:RDF xmlns:cc="http://creativecommons.org/ns#" xmlns:dc="http://purl.org/dc/elements/1.1/" xmlns:rdf="http://www.w3.org/1999/02/22-rdf-syntax-ns#">
   <cc:Work>
    <dc:type rdf:resource="http://purl.org/dc/dcmitype/StillImage"/>
    <dc:format>image/svg+xml</dc:format>
    <dc:creator>
     <cc:Agent>
      <dc:title>Matplotlib v3.4.2, https://matplotlib.org/</dc:title>
     </cc:Agent>
    </dc:creator>
   </cc:Work>
  </rdf:RDF>
 </metadata>
 <defs>
  <style type="text/css">*{stroke-linecap:butt;stroke-linejoin:round;}</style>
 </defs>
 <g id="figure_1">
  <g id="patch_1">
   <path d="M 0 612 
L 792 612 
L 792 0 
L 0 0 
z
" style="fill:#ffffff;"/>
  </g>
  <g id="axes_1">
   <g id="patch_2">
    <path d="M 99 544.68 
L 712.8 544.68 
L 712.8 73.44 
L 99 73.44 
z
" style="fill:#ffffff;"/>
   </g>
   <g id="PolyCollection_1">
    <path clip-path="url(#p68e2955192)" d="M 99 414942.840038 
L 99 414942.840038 
L 100.213043 414942.840038 
L 101.426087 414942.840038 
L 102.63913 414942.840038 
L 103.852174 414942.840038 
L 105.065217 414942.840038 
L 106.278261 414942.840038 
L 107.491304 414942.840038 
L 108.704348 414942.840038 
L 109.917391 414942.840038 
L 111.130435 414942.840038 
L 112.343478 414942.840038 
L 113.556522 414942.840038 
L 114.769565 219.65029 
L 115.982609 219.65029 
L 117.195652 219.65029 
L 118.408696 219.65029 
L 119.621739 219.65029 
L 120.834783 273.67942 
L 122.047826 337.893155 
L 123.26087 302.938407 
L 124.473913 302.938407 
L 125.686957 302.938407 
L 126.9 302.938407 
L 128.113043 302.938407 
L 129.326087 462.683445 
L 130.53913 462.683445 
L 131.752174 462.683445 
L 132.965217 462.683445 
L 134.178261 462.683445 
L 135.391304 462.683445 
L 136.604348 414942.840038 
L 137.817391 414942.840038 
L 139.030435 414942.840038 
L 140.243478 414942.840038 
L 141.456522 414942.840038 
L 142.669565 414942.840038 
L 143.882609 414942.840038 
L 145.095652 414942.840038 
L 146.308696 414942.840038 
L 147.521739 414942.840038 
L 148.734783 414942.840038 
L 149.947826 462.683445 
L 151.16087 462.683445 
L 152.373913 398.46971 
L 153.586957 398.46971 
L 154.8 398.46971 
L 156.013043 398.46971 
L 157.226087 398.46971 
L 158.43913 302.938407 
L 159.652174 302.938407 
L 160.865217 302.938407 
L 162.078261 302.938407 
L 163.291304 302.938407 
L 164.504348 302.938407 
L 165.717391 302.938407 
L 166.930435 302.938407 
L 168.143478 302.938407 
L 169.356522 462.683445 
L 170.569565 462.683445 
L 171.782609 462.683445 
L 172.995652 462.683445 
L 174.208696 462.683445 
L 175.421739 414942.840038 
L 176.634783 414942.840038 
L 177.847826 414942.840038 
L 179.06087 462.683445 
L 180.273913 398.46971 
L 181.486957 398.46971 
L 182.7 398.46971 
L 183.913043 398.46971 
L 185.126087 398.46971 
L 186.33913 398.46971 
L 187.552174 302.938407 
L 188.765217 302.938407 
L 189.978261 302.938407 
L 191.191304 302.938407 
L 192.404348 302.938407 
L 193.617391 302.938407 
L 194.830435 302.938407 
L 196.043478 302.938407 
L 197.256522 302.938407 
L 198.469565 398.46971 
L 199.682609 398.46971 
L 200.895652 398.46971 
L 202.108696 462.683445 
L 203.321739 414942.840038 
L 204.534783 414942.840038 
L 205.747826 414942.840038 
L 206.96087 414942.840038 
L 208.173913 414942.840038 
L 209.386957 414942.840038 
L 210.6 414942.840038 
L 211.813043 414942.840038 
L 213.026087 414942.840038 
L 214.23913 414942.840038 
L 215.452174 414942.840038 
L 216.665217 414942.840038 
L 217.878261 414942.840038 
L 219.091304 414942.840038 
L 220.304348 414942.840038 
L 221.517391 414942.840038 
L 222.730435 414942.840038 
L 223.943478 414942.840038 
L 225.156522 414942.840038 
L 226.369565 462.683445 
L 227.582609 462.683445 
L 228.795652 462.683445 
L 230.008696 302.938407 
L 231.221739 302.938407 
L 232.434783 302.938407 
L 233.647826 302.938407 
L 234.86087 302.938407 
L 236.073913 302.938407 
L 237.286957 302.938407 
L 238.5 302.938407 
L 239.713043 302.938407 
L 240.926087 302.938407 
L 242.13913 302.938407 
L 243.352174 302.938407 
L 244.565217 302.938407 
L 245.778261 302.938407 
L 246.991304 398.46971 
L 248.204348 398.46971 
L 249.417391 302.938407 
L 250.630435 302.938407 
L 251.843478 273.67942 
L 253.056522 273.67942 
L 254.269565 273.67942 
L 255.482609 273.67942 
L 256.695652 273.67942 
L 257.908696 273.67942 
L 259.121739 273.67942 
L 260.334783 302.938407 
L 261.547826 302.938407 
L 262.76087 302.938407 
L 263.973913 302.938407 
L 265.186957 302.938407 
L 266.4 398.46971 
L 267.613043 398.46971 
L 268.826087 398.46971 
L 270.03913 398.46971 
L 271.252174 398.46971 
L 272.465217 398.46971 
L 273.678261 398.46971 
L 274.891304 398.46971 
L 276.104348 398.46971 
L 277.317391 398.46971 
L 278.530435 398.46971 
L 279.743478 398.46971 
L 280.956522 398.46971 
L 282.169565 398.46971 
L 283.382609 398.46971 
L 284.595652 462.683445 
L 285.808696 302.938407 
L 287.021739 302.938407 
L 288.234783 462.683445 
L 289.447826 462.683445 
L 290.66087 462.683445 
L 291.873913 462.683445 
L 293.086957 462.683445 
L 294.3 398.46971 
L 295.513043 398.46971 
L 296.726087 398.46971 
L 297.93913 398.46971 
L 299.152174 398.46971 
L 300.365217 398.46971 
L 301.578261 398.46971 
L 302.791304 398.46971 
L 304.004348 398.46971 
L 305.217391 398.46971 
L 306.430435 398.46971 
L 307.643478 398.46971 
L 308.856522 398.46971 
L 310.069565 398.46971 
L 311.282609 398.46971 
L 312.495652 398.46971 
L 313.708696 398.46971 
L 314.921739 398.46971 
L 316.134783 398.46971 
L 317.347826 398.46971 
L 318.56087 398.46971 
L 319.773913 398.46971 
L 320.986957 398.46971 
L 322.2 398.46971 
L 323.413043 398.46971 
L 324.626087 398.46971 
L 325.83913 398.46971 
L 327.052174 398.46971 
L 328.265217 462.683445 
L 329.478261 398.46971 
L 330.691304 302.938407 
L 331.904348 302.938407 
L 333.117391 302.938407 
L 334.330435 302.938407 
L 335.543478 302.938407 
L 336.756522 273.67942 
L 337.969565 273.67942 
L 339.182609 273.67942 
L 340.395652 273.67942 
L 341.608696 273.67942 
L 342.821739 219.65029 
L 344.034783 219.65029 
L 345.247826 200.68178 
L 346.46087 219.65029 
L 347.673913 219.65029 
L 348.886957 219.65029 
L 350.1 219.65029 
L 351.313043 219.65029 
L 352.526087 219.65029 
L 353.73913 219.65029 
L 354.952174 219.65029 
L 356.165217 162.924884 
L 357.378261 162.924884 
L 358.591304 162.924884 
L 359.804348 178.148117 
L 361.017391 178.148117 
L 362.230435 337.893155 
L 363.443478 178.148117 
L 364.656522 178.148117 
L 365.869565 213.102865 
L 367.082609 213.102865 
L 368.295652 213.102865 
L 369.508696 178.148117 
L 370.721739 178.148117 
L 371.934783 178.148117 
L 373.147826 273.67942 
L 374.36087 273.67942 
L 375.573913 273.67942 
L 376.786957 273.67942 
L 378 273.67942 
L 379.213043 273.67942 
L 380.426087 337.893155 
L 381.63913 273.67942 
L 382.852174 273.67942 
L 384.065217 273.67942 
L 385.278261 273.67942 
L 386.491304 302.938407 
L 387.704348 302.938407 
L 388.917391 302.938407 
L 390.130435 398.46971 
L 391.343478 398.46971 
L 392.556522 398.46971 
L 393.769565 398.46971 
L 394.982609 398.46971 
L 396.195652 398.46971 
L 397.408696 398.46971 
L 398.621739 398.46971 
L 399.834783 462.683445 
L 401.047826 462.683445 
L 402.26087 462.683445 
L 403.473913 462.683445 
L 404.686957 462.683445 
L 405.9 414942.840038 
L 407.113043 337.893155 
L 408.326087 273.67942 
L 409.53913 273.67942 
L 410.752174 273.67942 
L 411.965217 273.67942 
L 413.178261 273.67942 
L 414.391304 273.67942 
L 415.604348 273.67942 
L 416.817391 273.67942 
L 418.030435 273.67942 
L 419.243478 273.67942 
L 420.456522 273.67942 
L 421.669565 273.67942 
L 422.882609 273.67942 
L 424.095652 273.67942 
L 425.308696 302.938407 
L 426.521739 302.938407 
L 427.734783 302.938407 
L 428.947826 302.938407 
L 430.16087 273.67942 
L 431.373913 273.67942 
L 432.586957 273.67942 
L 433.8 273.67942 
L 435.013043 273.67942 
L 436.226087 273.67942 
L 437.43913 302.938407 
L 438.652174 302.938407 
L 439.865217 302.938407 
L 441.078261 337.893155 
L 442.291304 337.893155 
L 443.504348 337.893155 
L 444.717391 302.938407 
L 445.930435 302.938407 
L 447.143478 462.683445 
L 448.356522 462.683445 
L 449.569565 462.683445 
L 450.782609 302.938407 
L 451.995652 302.938407 
L 453.208696 302.938407 
L 454.421739 302.938407 
L 455.634783 302.938407 
L 456.847826 302.938407 
L 458.06087 302.938407 
L 459.273913 302.938407 
L 460.486957 398.46971 
L 461.7 462.683445 
L 462.913043 462.683445 
L 464.126087 462.683445 
L 465.33913 462.683445 
L 466.552174 462.683445 
L 467.765217 462.683445 
L 468.978261 462.683445 
L 470.191304 462.683445 
L 471.404348 462.683445 
L 472.617391 462.683445 
L 473.830435 462.683445 
L 475.043478 462.683445 
L 476.256522 337.893155 
L 477.469565 337.893155 
L 478.682609 337.893155 
L 479.895652 337.893155 
L 481.108696 337.893155 
L 482.321739 337.893155 
L 483.534783 337.893155 
L 484.747826 414942.840038 
L 485.96087 414942.840038 
L 487.173913 414942.840038 
L 488.386957 462.683445 
L 489.6 462.683445 
L 490.813043 462.683445 
L 492.026087 462.683445 
L 493.23913 414942.840038 
L 494.452174 462.683445 
L 495.665217 462.683445 
L 496.878261 462.683445 
L 498.091304 462.683445 
L 499.304348 398.46971 
L 500.517391 398.46971 
L 501.730435 398.46971 
L 502.943478 398.46971 
L 504.156522 398.46971 
L 505.369565 462.683445 
L 506.582609 462.683445 
L 507.795652 462.683445 
L 509.008696 462.683445 
L 510.221739 462.683445 
L 511.434783 462.683445 
L 512.647826 462.683445 
L 513.86087 462.683445 
L 515.073913 462.683445 
L 516.286957 414942.840038 
L 517.5 462.683445 
L 518.713043 462.683445 
L 519.926087 462.683445 
L 521.13913 462.683445 
L 522.352174 462.683445 
L 523.565217 398.46971 
L 524.778261 302.938407 
L 525.991304 302.938407 
L 527.204348 302.938407 
L 528.417391 219.65029 
L 529.630435 219.65029 
L 530.843478 219.65029 
L 532.056522 219.65029 
L 533.269565 219.65029 
L 534.482609 240.85528 
L 535.695652 240.85528 
L 536.908696 240.85528 
L 538.121739 240.85528 
L 539.334783 240.85528 
L 540.547826 240.85528 
L 541.76087 398.46971 
L 542.973913 398.46971 
L 544.186957 398.46971 
L 545.4 462.683445 
L 546.613043 462.683445 
L 547.826087 462.683445 
L 549.03913 462.683445 
L 550.252174 462.683445 
L 551.465217 462.683445 
L 552.678261 414942.840038 
L 553.891304 462.683445 
L 555.104348 414942.840038 
L 556.317391 414942.840038 
L 557.530435 414942.840038 
L 558.743478 414942.840038 
L 559.956522 414942.840038 
L 561.169565 414942.840038 
L 562.382609 414942.840038 
L 563.595652 462.683445 
L 564.808696 398.46971 
L 566.021739 398.46971 
L 567.234783 398.46971 
L 568.447826 398.46971 
L 569.66087 398.46971 
L 570.873913 462.683445 
L 572.086957 462.683445 
L 573.3 462.683445 
L 574.513043 398.46971 
L 575.726087 398.46971 
L 576.93913 398.46971 
L 578.152174 398.46971 
L 579.365217 398.46971 
L 580.578261 462.683445 
L 581.791304 414942.840038 
L 583.004348 337.893155 
L 584.217391 337.893155 
L 585.430435 337.893155 
L 586.643478 337.893155 
L 587.856522 337.893155 
L 589.069565 337.893155 
L 590.282609 302.938407 
L 591.495652 462.683445 
L 592.708696 462.683445 
L 593.921739 398.46971 
L 595.134783 398.46971 
L 596.347826 398.46971 
L 597.56087 398.46971 
L 598.773913 398.46971 
L 599.986957 398.46971 
L 601.2 398.46971 
L 602.413043 398.46971 
L 603.626087 302.938407 
L 604.83913 302.938407 
L 606.052174 273.67942 
L 607.265217 273.67942 
L 608.478261 273.67942 
L 609.691304 273.67942 
L 610.904348 273.67942 
L 612.117391 273.67942 
L 613.330435 273.67942 
L 614.543478 273.67942 
L 615.756522 273.67942 
L 616.969565 273.67942 
L 618.182609 273.67942 
L 619.395652 273.67942 
L 620.608696 273.67942 
L 621.821739 273.67942 
L 623.034783 337.893155 
L 624.247826 337.893155 
L 625.46087 414942.840038 
L 626.673913 414942.840038 
L 627.886957 414942.840038 
L 629.1 414942.840038 
L 630.313043 414942.840038 
L 631.526087 414942.840038 
L 632.73913 414942.840038 
L 633.952174 414942.840038 
L 635.165217 414942.840038 
L 636.378261 414942.840038 
L 637.591304 414942.840038 
L 638.804348 414942.840038 
L 640.017391 414942.840038 
L 641.230435 414942.840038 
L 642.443478 414942.840038 
L 643.656522 414942.840038 
L 644.869565 414942.840038 
L 646.082609 414942.840038 
L 647.295652 414942.840038 
L 648.508696 414942.840038 
L 649.721739 414942.840038 
L 650.934783 414942.840038 
L 652.147826 414942.840038 
L 653.36087 414942.840038 
L 654.573913 414942.840038 
L 655.786957 414942.840038 
L 657 414942.840038 
L 658.213043 414942.840038 
L 659.426087 414942.840038 
L 660.63913 414942.840038 
L 661.852174 414942.840038 
L 663.065217 414942.840038 
L 664.278261 462.683445 
L 665.491304 462.683445 
L 666.704348 462.683445 
L 667.917391 462.683445 
L 669.130435 462.683445 
L 670.343478 462.683445 
L 671.556522 398.46971 
L 672.769565 398.46971 
L 673.982609 398.46971 
L 675.195652 398.46971 
L 676.408696 398.46971 
L 677.621739 398.46971 
L 678.834783 398.46971 
L 680.047826 398.46971 
L 681.26087 462.683445 
L 682.473913 462.683445 
L 683.686957 462.683445 
L 684.9 462.683445 
L 686.113043 302.938407 
L 687.326087 302.938407 
L 688.53913 462.683445 
L 689.752174 462.683445 
L 690.965217 462.683445 
L 692.178261 462.683445 
L 693.391304 302.938407 
L 694.604348 302.938407 
L 695.817391 273.67942 
L 697.030435 273.67942 
L 698.243478 273.67942 
L 699.456522 273.67942 
L 700.669565 116.06499 
L 701.882609 116.06499 
L 703.095652 116.06499 
L 704.308696 94.86 
L 705.521739 94.86 
L 706.734783 94.86 
L 707.947826 94.86 
L 709.16087 94.86 
L 710.373913 162.924884 
L 711.586957 162.924884 
L 712.8 119.855327 
L 712.8 414942.840038 
L 712.8 414942.840038 
L 711.586957 414942.840038 
L 710.373913 414942.840038 
L 709.16087 414942.840038 
L 707.947826 414942.840038 
L 706.734783 414942.840038 
L 705.521739 414942.840038 
L 704.308696 414942.840038 
L 703.095652 414942.840038 
L 701.882609 414942.840038 
L 700.669565 414942.840038 
L 699.456522 414942.840038 
L 698.243478 414942.840038 
L 697.030435 414942.840038 
L 695.817391 414942.840038 
L 694.604348 414942.840038 
L 693.391304 414942.840038 
L 692.178261 414942.840038 
L 690.965217 414942.840038 
L 689.752174 414942.840038 
L 688.53913 414942.840038 
L 687.326087 414942.840038 
L 686.113043 414942.840038 
L 684.9 414942.840038 
L 683.686957 414942.840038 
L 682.473913 414942.840038 
L 681.26087 414942.840038 
L 680.047826 414942.840038 
L 678.834783 414942.840038 
L 677.621739 414942.840038 
L 676.408696 414942.840038 
L 675.195652 414942.840038 
L 673.982609 414942.840038 
L 672.769565 414942.840038 
L 671.556522 414942.840038 
L 670.343478 414942.840038 
L 669.130435 414942.840038 
L 667.917391 414942.840038 
L 666.704348 414942.840038 
L 665.491304 414942.840038 
L 664.278261 414942.840038 
L 663.065217 414942.840038 
L 661.852174 414942.840038 
L 660.63913 414942.840038 
L 659.426087 414942.840038 
L 658.213043 414942.840038 
L 657 414942.840038 
L 655.786957 414942.840038 
L 654.573913 414942.840038 
L 653.36087 414942.840038 
L 652.147826 414942.840038 
L 650.934783 414942.840038 
L 649.721739 414942.840038 
L 648.508696 414942.840038 
L 647.295652 414942.840038 
L 646.082609 414942.840038 
L 644.869565 414942.840038 
L 643.656522 414942.840038 
L 642.443478 414942.840038 
L 641.230435 414942.840038 
L 640.017391 414942.840038 
L 638.804348 414942.840038 
L 637.591304 414942.840038 
L 636.378261 414942.840038 
L 635.165217 414942.840038 
L 633.952174 414942.840038 
L 632.73913 414942.840038 
L 631.526087 414942.840038 
L 630.313043 414942.840038 
L 629.1 414942.840038 
L 627.886957 414942.840038 
L 626.673913 414942.840038 
L 625.46087 414942.840038 
L 624.247826 414942.840038 
L 623.034783 414942.840038 
L 621.821739 414942.840038 
L 620.608696 414942.840038 
L 619.395652 414942.840038 
L 618.182609 414942.840038 
L 616.969565 414942.840038 
L 615.756522 414942.840038 
L 614.543478 414942.840038 
L 613.330435 414942.840038 
L 612.117391 414942.840038 
L 610.904348 414942.840038 
L 609.691304 414942.840038 
L 608.478261 414942.840038 
L 607.265217 414942.840038 
L 606.052174 414942.840038 
L 604.83913 414942.840038 
L 603.626087 414942.840038 
L 602.413043 414942.840038 
L 601.2 414942.840038 
L 599.986957 414942.840038 
L 598.773913 414942.840038 
L 597.56087 414942.840038 
L 596.347826 414942.840038 
L 595.134783 414942.840038 
L 593.921739 414942.840038 
L 592.708696 414942.840038 
L 591.495652 414942.840038 
L 590.282609 414942.840038 
L 589.069565 414942.840038 
L 587.856522 414942.840038 
L 586.643478 414942.840038 
L 585.430435 414942.840038 
L 584.217391 414942.840038 
L 583.004348 414942.840038 
L 581.791304 414942.840038 
L 580.578261 414942.840038 
L 579.365217 414942.840038 
L 578.152174 414942.840038 
L 576.93913 414942.840038 
L 575.726087 414942.840038 
L 574.513043 414942.840038 
L 573.3 414942.840038 
L 572.086957 414942.840038 
L 570.873913 414942.840038 
L 569.66087 414942.840038 
L 568.447826 414942.840038 
L 567.234783 414942.840038 
L 566.021739 414942.840038 
L 564.808696 414942.840038 
L 563.595652 414942.840038 
L 562.382609 414942.840038 
L 561.169565 414942.840038 
L 559.956522 414942.840038 
L 558.743478 414942.840038 
L 557.530435 414942.840038 
L 556.317391 414942.840038 
L 555.104348 414942.840038 
L 553.891304 414942.840038 
L 552.678261 414942.840038 
L 551.465217 414942.840038 
L 550.252174 414942.840038 
L 549.03913 414942.840038 
L 547.826087 414942.840038 
L 546.613043 414942.840038 
L 545.4 414942.840038 
L 544.186957 414942.840038 
L 542.973913 414942.840038 
L 541.76087 414942.840038 
L 540.547826 414942.840038 
L 539.334783 414942.840038 
L 538.121739 414942.840038 
L 536.908696 414942.840038 
L 535.695652 414942.840038 
L 534.482609 414942.840038 
L 533.269565 414942.840038 
L 532.056522 414942.840038 
L 530.843478 414942.840038 
L 529.630435 414942.840038 
L 528.417391 414942.840038 
L 527.204348 414942.840038 
L 525.991304 414942.840038 
L 524.778261 414942.840038 
L 523.565217 414942.840038 
L 522.352174 414942.840038 
L 521.13913 414942.840038 
L 519.926087 414942.840038 
L 518.713043 414942.840038 
L 517.5 414942.840038 
L 516.286957 414942.840038 
L 515.073913 414942.840038 
L 513.86087 414942.840038 
L 512.647826 414942.840038 
L 511.434783 414942.840038 
L 510.221739 414942.840038 
L 509.008696 414942.840038 
L 507.795652 414942.840038 
L 506.582609 414942.840038 
L 505.369565 414942.840038 
L 504.156522 414942.840038 
L 502.943478 414942.840038 
L 501.730435 414942.840038 
L 500.517391 414942.840038 
L 499.304348 414942.840038 
L 498.091304 414942.840038 
L 496.878261 414942.840038 
L 495.665217 414942.840038 
L 494.452174 414942.840038 
L 493.23913 414942.840038 
L 492.026087 414942.840038 
L 490.813043 414942.840038 
L 489.6 414942.840038 
L 488.386957 414942.840038 
L 487.173913 414942.840038 
L 485.96087 414942.840038 
L 484.747826 414942.840038 
L 483.534783 414942.840038 
L 482.321739 414942.840038 
L 481.108696 414942.840038 
L 479.895652 414942.840038 
L 478.682609 414942.840038 
L 477.469565 414942.840038 
L 476.256522 414942.840038 
L 475.043478 414942.840038 
L 473.830435 414942.840038 
L 472.617391 414942.840038 
L 471.404348 414942.840038 
L 470.191304 414942.840038 
L 468.978261 414942.840038 
L 467.765217 414942.840038 
L 466.552174 414942.840038 
L 465.33913 414942.840038 
L 464.126087 414942.840038 
L 462.913043 414942.840038 
L 461.7 414942.840038 
L 460.486957 414942.840038 
L 459.273913 414942.840038 
L 458.06087 414942.840038 
L 456.847826 414942.840038 
L 455.634783 414942.840038 
L 454.421739 414942.840038 
L 453.208696 414942.840038 
L 451.995652 414942.840038 
L 450.782609 414942.840038 
L 449.569565 414942.840038 
L 448.356522 414942.840038 
L 447.143478 414942.840038 
L 445.930435 414942.840038 
L 444.717391 414942.840038 
L 443.504348 414942.840038 
L 442.291304 414942.840038 
L 441.078261 414942.840038 
L 439.865217 414942.840038 
L 438.652174 414942.840038 
L 437.43913 414942.840038 
L 436.226087 414942.840038 
L 435.013043 414942.840038 
L 433.8 414942.840038 
L 432.586957 414942.840038 
L 431.373913 414942.840038 
L 430.16087 414942.840038 
L 428.947826 414942.840038 
L 427.734783 414942.840038 
L 426.521739 414942.840038 
L 425.308696 414942.840038 
L 424.095652 414942.840038 
L 422.882609 414942.840038 
L 421.669565 414942.840038 
L 420.456522 414942.840038 
L 419.243478 414942.840038 
L 418.030435 414942.840038 
L 416.817391 414942.840038 
L 415.604348 414942.840038 
L 414.391304 414942.840038 
L 413.178261 414942.840038 
L 411.965217 414942.840038 
L 410.752174 414942.840038 
L 409.53913 414942.840038 
L 408.326087 414942.840038 
L 407.113043 414942.840038 
L 405.9 414942.840038 
L 404.686957 414942.840038 
L 403.473913 414942.840038 
L 402.26087 414942.840038 
L 401.047826 414942.840038 
L 399.834783 414942.840038 
L 398.621739 414942.840038 
L 397.408696 414942.840038 
L 396.195652 414942.840038 
L 394.982609 414942.840038 
L 393.769565 414942.840038 
L 392.556522 414942.840038 
L 391.343478 414942.840038 
L 390.130435 414942.840038 
L 388.917391 414942.840038 
L 387.704348 414942.840038 
L 386.491304 414942.840038 
L 385.278261 414942.840038 
L 384.065217 414942.840038 
L 382.852174 414942.840038 
L 381.63913 414942.840038 
L 380.426087 414942.840038 
L 379.213043 414942.840038 
L 378 414942.840038 
L 376.786957 414942.840038 
L 375.573913 414942.840038 
L 374.36087 414942.840038 
L 373.147826 414942.840038 
L 371.934783 414942.840038 
L 370.721739 414942.840038 
L 369.508696 414942.840038 
L 368.295652 414942.840038 
L 367.082609 414942.840038 
L 365.869565 414942.840038 
L 364.656522 414942.840038 
L 363.443478 414942.840038 
L 362.230435 414942.840038 
L 361.017391 414942.840038 
L 359.804348 414942.840038 
L 358.591304 414942.840038 
L 357.378261 414942.840038 
L 356.165217 414942.840038 
L 354.952174 414942.840038 
L 353.73913 414942.840038 
L 352.526087 414942.840038 
L 351.313043 414942.840038 
L 350.1 414942.840038 
L 348.886957 414942.840038 
L 347.673913 414942.840038 
L 346.46087 414942.840038 
L 345.247826 414942.840038 
L 344.034783 414942.840038 
L 342.821739 414942.840038 
L 341.608696 414942.840038 
L 340.395652 414942.840038 
L 339.182609 414942.840038 
L 337.969565 414942.840038 
L 336.756522 414942.840038 
L 335.543478 414942.840038 
L 334.330435 414942.840038 
L 333.117391 414942.840038 
L 331.904348 414942.840038 
L 330.691304 414942.840038 
L 329.478261 414942.840038 
L 328.265217 414942.840038 
L 327.052174 414942.840038 
L 325.83913 414942.840038 
L 324.626087 414942.840038 
L 323.413043 414942.840038 
L 322.2 414942.840038 
L 320.986957 414942.840038 
L 319.773913 414942.840038 
L 318.56087 414942.840038 
L 317.347826 414942.840038 
L 316.134783 414942.840038 
L 314.921739 414942.840038 
L 313.708696 414942.840038 
L 312.495652 414942.840038 
L 311.282609 414942.840038 
L 310.069565 414942.840038 
L 308.856522 414942.840038 
L 307.643478 414942.840038 
L 306.430435 414942.840038 
L 305.217391 414942.840038 
L 304.004348 414942.840038 
L 302.791304 414942.840038 
L 301.578261 414942.840038 
L 300.365217 414942.840038 
L 299.152174 414942.840038 
L 297.93913 414942.840038 
L 296.726087 414942.840038 
L 295.513043 414942.840038 
L 294.3 414942.840038 
L 293.086957 414942.840038 
L 291.873913 414942.840038 
L 290.66087 414942.840038 
L 289.447826 414942.840038 
L 288.234783 414942.840038 
L 287.021739 414942.840038 
L 285.808696 414942.840038 
L 284.595652 414942.840038 
L 283.382609 414942.840038 
L 282.169565 414942.840038 
L 280.956522 414942.840038 
L 279.743478 414942.840038 
L 278.530435 414942.840038 
L 277.317391 414942.840038 
L 276.104348 414942.840038 
L 274.891304 414942.840038 
L 273.678261 414942.840038 
L 272.465217 414942.840038 
L 271.252174 414942.840038 
L 270.03913 414942.840038 
L 268.826087 414942.840038 
L 267.613043 414942.840038 
L 266.4 414942.840038 
L 265.186957 414942.840038 
L 263.973913 414942.840038 
L 262.76087 414942.840038 
L 261.547826 414942.840038 
L 260.334783 414942.840038 
L 259.121739 414942.840038 
L 257.908696 414942.840038 
L 256.695652 414942.840038 
L 255.482609 414942.840038 
L 254.269565 414942.840038 
L 253.056522 414942.840038 
L 251.843478 414942.840038 
L 250.630435 414942.840038 
L 249.417391 414942.840038 
L 248.204348 414942.840038 
L 246.991304 414942.840038 
L 245.778261 414942.840038 
L 244.565217 414942.840038 
L 243.352174 414942.840038 
L 242.13913 414942.840038 
L 240.926087 414942.840038 
L 239.713043 414942.840038 
L 238.5 414942.840038 
L 237.286957 414942.840038 
L 236.073913 414942.840038 
L 234.86087 414942.840038 
L 233.647826 414942.840038 
L 232.434783 414942.840038 
L 231.221739 414942.840038 
L 230.008696 414942.840038 
L 228.795652 414942.840038 
L 227.582609 414942.840038 
L 226.369565 414942.840038 
L 225.156522 414942.840038 
L 223.943478 414942.840038 
L 222.730435 414942.840038 
L 221.517391 414942.840038 
L 220.304348 414942.840038 
L 219.091304 414942.840038 
L 217.878261 414942.840038 
L 216.665217 414942.840038 
L 215.452174 414942.840038 
L 214.23913 414942.840038 
L 213.026087 414942.840038 
L 211.813043 414942.840038 
L 210.6 414942.840038 
L 209.386957 414942.840038 
L 208.173913 414942.840038 
L 206.96087 414942.840038 
L 205.747826 414942.840038 
L 204.534783 414942.840038 
L 203.321739 414942.840038 
L 202.108696 414942.840038 
L 200.895652 414942.840038 
L 199.682609 414942.840038 
L 198.469565 414942.840038 
L 197.256522 414942.840038 
L 196.043478 414942.840038 
L 194.830435 414942.840038 
L 193.617391 414942.840038 
L 192.404348 414942.840038 
L 191.191304 414942.840038 
L 189.978261 414942.840038 
L 188.765217 414942.840038 
L 187.552174 414942.840038 
L 186.33913 414942.840038 
L 185.126087 414942.840038 
L 183.913043 414942.840038 
L 182.7 414942.840038 
L 181.486957 414942.840038 
L 180.273913 414942.840038 
L 179.06087 414942.840038 
L 177.847826 414942.840038 
L 176.634783 414942.840038 
L 175.421739 414942.840038 
L 174.208696 414942.840038 
L 172.995652 414942.840038 
L 171.782609 414942.840038 
L 170.569565 414942.840038 
L 169.356522 414942.840038 
L 168.143478 414942.840038 
L 166.930435 414942.840038 
L 165.717391 414942.840038 
L 164.504348 414942.840038 
L 163.291304 414942.840038 
L 162.078261 414942.840038 
L 160.865217 414942.840038 
L 159.652174 414942.840038 
L 158.43913 414942.840038 
L 157.226087 414942.840038 
L 156.013043 414942.840038 
L 154.8 414942.840038 
L 153.586957 414942.840038 
L 152.373913 414942.840038 
L 151.16087 414942.840038 
L 149.947826 414942.840038 
L 148.734783 414942.840038 
L 147.521739 414942.840038 
L 146.308696 414942.840038 
L 145.095652 414942.840038 
L 143.882609 414942.840038 
L 142.669565 414942.840038 
L 141.456522 414942.840038 
L 140.243478 414942.840038 
L 139.030435 414942.840038 
L 137.817391 414942.840038 
L 136.604348 414942.840038 
L 135.391304 414942.840038 
L 134.178261 414942.840038 
L 132.965217 414942.840038 
L 131.752174 414942.840038 
L 130.53913 414942.840038 
L 129.326087 414942.840038 
L 128.113043 414942.840038 
L 126.9 414942.840038 
L 125.686957 414942.840038 
L 124.473913 414942.840038 
L 123.26087 414942.840038 
L 122.047826 414942.840038 
L 120.834783 414942.840038 
L 119.621739 414942.840038 
L 118.408696 414942.840038 
L 117.195652 414942.840038 
L 115.982609 414942.840038 
L 114.769565 414942.840038 
L 113.556522 414942.840038 
L 112.343478 414942.840038 
L 111.130435 414942.840038 
L 109.917391 414942.840038 
L 108.704348 414942.840038 
L 107.491304 414942.840038 
L 106.278261 414942.840038 
L 105.065217 414942.840038 
L 103.852174 414942.840038 
L 102.63913 414942.840038 
L 101.426087 414942.840038 
L 100.213043 414942.840038 
L 99 414942.840038 
z
" style="fill:#8080ff;fill-opacity:0.5;stroke:#8080ff;stroke-opacity:0.5;"/>
   </g>
   <g id="PolyCollection_2">
    <path clip-path="url(#p68e2955192)" d="M 99 414942.840038 
L 99 414942.840038 
L 100.213043 414942.840038 
L 101.426087 414942.840038 
L 102.63913 414942.840038 
L 103.852174 414942.840038 
L 105.065217 414942.840038 
L 106.278261 414942.840038 
L 107.491304 414942.840038 
L 108.704348 414942.840038 
L 109.917391 414942.840038 
L 111.130435 414942.840038 
L 112.343478 414942.840038 
L 113.556522 414942.840038 
L 114.769565 462.683445 
L 115.982609 462.683445 
L 117.195652 462.683445 
L 118.408696 462.683445 
L 119.621739 462.683445 
L 120.834783 414942.840038 
L 122.047826 414942.840038 
L 123.26087 414942.840038 
L 124.473913 414942.840038 
L 125.686957 414942.840038 
L 126.9 414942.840038 
L 128.113043 414942.840038 
L 129.326087 414942.840038 
L 130.53913 414942.840038 
L 131.752174 414942.840038 
L 132.965217 414942.840038 
L 134.178261 414942.840038 
L 135.391304 414942.840038 
L 136.604348 414942.840038 
L 137.817391 414942.840038 
L 139.030435 414942.840038 
L 140.243478 414942.840038 
L 141.456522 414942.840038 
L 142.669565 414942.840038 
L 143.882609 414942.840038 
L 145.095652 414942.840038 
L 146.308696 414942.840038 
L 147.521739 414942.840038 
L 148.734783 414942.840038 
L 149.947826 414942.840038 
L 151.16087 414942.840038 
L 152.373913 414942.840038 
L 153.586957 414942.840038 
L 154.8 414942.840038 
L 156.013043 414942.840038 
L 157.226087 414942.840038 
L 158.43913 414942.840038 
L 159.652174 414942.840038 
L 160.865217 414942.840038 
L 162.078261 414942.840038 
L 163.291304 414942.840038 
L 164.504348 414942.840038 
L 165.717391 414942.840038 
L 166.930435 414942.840038 
L 168.143478 414942.840038 
L 169.356522 414942.840038 
L 170.569565 414942.840038 
L 171.782609 414942.840038 
L 172.995652 414942.840038 
L 174.208696 414942.840038 
L 175.421739 414942.840038 
L 176.634783 414942.840038 
L 177.847826 414942.840038 
L 179.06087 414942.840038 
L 180.273913 414942.840038 
L 181.486957 414942.840038 
L 182.7 414942.840038 
L 183.913043 414942.840038 
L 185.126087 414942.840038 
L 186.33913 414942.840038 
L 187.552174 414942.840038 
L 188.765217 414942.840038 
L 189.978261 414942.840038 
L 191.191304 414942.840038 
L 192.404348 414942.840038 
L 193.617391 414942.840038 
L 194.830435 414942.840038 
L 196.043478 414942.840038 
L 197.256522 414942.840038 
L 198.469565 414942.840038 
L 199.682609 414942.840038 
L 200.895652 414942.840038 
L 202.108696 414942.840038 
L 203.321739 414942.840038 
L 204.534783 414942.840038 
L 205.747826 414942.840038 
L 206.96087 414942.840038 
L 208.173913 414942.840038 
L 209.386957 414942.840038 
L 210.6 414942.840038 
L 211.813043 414942.840038 
L 213.026087 414942.840038 
L 214.23913 414942.840038 
L 215.452174 414942.840038 
L 216.665217 414942.840038 
L 217.878261 414942.840038 
L 219.091304 414942.840038 
L 220.304348 414942.840038 
L 221.517391 414942.840038 
L 222.730435 414942.840038 
L 223.943478 414942.840038 
L 225.156522 414942.840038 
L 226.369565 414942.840038 
L 227.582609 414942.840038 
L 228.795652 414942.840038 
L 230.008696 414942.840038 
L 231.221739 414942.840038 
L 232.434783 414942.840038 
L 233.647826 414942.840038 
L 234.86087 414942.840038 
L 236.073913 414942.840038 
L 237.286957 414942.840038 
L 238.5 414942.840038 
L 239.713043 414942.840038 
L 240.926087 414942.840038 
L 242.13913 414942.840038 
L 243.352174 414942.840038 
L 244.565217 414942.840038 
L 245.778261 414942.840038 
L 246.991304 414942.840038 
L 248.204348 414942.840038 
L 249.417391 414942.840038 
L 250.630435 414942.840038 
L 251.843478 414942.840038 
L 253.056522 414942.840038 
L 254.269565 414942.840038 
L 255.482609 414942.840038 
L 256.695652 414942.840038 
L 257.908696 414942.840038 
L 259.121739 414942.840038 
L 260.334783 414942.840038 
L 261.547826 414942.840038 
L 262.76087 414942.840038 
L 263.973913 414942.840038 
L 265.186957 414942.840038 
L 266.4 414942.840038 
L 267.613043 414942.840038 
L 268.826087 414942.840038 
L 270.03913 414942.840038 
L 271.252174 414942.840038 
L 272.465217 414942.840038 
L 273.678261 414942.840038 
L 274.891304 414942.840038 
L 276.104348 414942.840038 
L 277.317391 414942.840038 
L 278.530435 414942.840038 
L 279.743478 414942.840038 
L 280.956522 414942.840038 
L 282.169565 414942.840038 
L 283.382609 414942.840038 
L 284.595652 414942.840038 
L 285.808696 414942.840038 
L 287.021739 414942.840038 
L 288.234783 414942.840038 
L 289.447826 414942.840038 
L 290.66087 414942.840038 
L 291.873913 414942.840038 
L 293.086957 414942.840038 
L 294.3 414942.840038 
L 295.513043 414942.840038 
L 296.726087 414942.840038 
L 297.93913 414942.840038 
L 299.152174 414942.840038 
L 300.365217 414942.840038 
L 301.578261 414942.840038 
L 302.791304 414942.840038 
L 304.004348 414942.840038 
L 305.217391 414942.840038 
L 306.430435 414942.840038 
L 307.643478 414942.840038 
L 308.856522 414942.840038 
L 310.069565 414942.840038 
L 311.282609 414942.840038 
L 312.495652 414942.840038 
L 313.708696 414942.840038 
L 314.921739 414942.840038 
L 316.134783 414942.840038 
L 317.347826 414942.840038 
L 318.56087 414942.840038 
L 319.773913 414942.840038 
L 320.986957 414942.840038 
L 322.2 414942.840038 
L 323.413043 414942.840038 
L 324.626087 414942.840038 
L 325.83913 414942.840038 
L 327.052174 414942.840038 
L 328.265217 414942.840038 
L 329.478261 414942.840038 
L 330.691304 414942.840038 
L 331.904348 414942.840038 
L 333.117391 414942.840038 
L 334.330435 414942.840038 
L 335.543478 414942.840038 
L 336.756522 414942.840038 
L 337.969565 414942.840038 
L 339.182609 414942.840038 
L 340.395652 414942.840038 
L 341.608696 414942.840038 
L 342.821739 414942.840038 
L 344.034783 414942.840038 
L 345.247826 414942.840038 
L 346.46087 414942.840038 
L 347.673913 414942.840038 
L 348.886957 414942.840038 
L 350.1 414942.840038 
L 351.313043 414942.840038 
L 352.526087 414942.840038 
L 353.73913 414942.840038 
L 354.952174 414942.840038 
L 356.165217 414942.840038 
L 357.378261 414942.840038 
L 358.591304 414942.840038 
L 359.804348 414942.840038 
L 361.017391 414942.840038 
L 362.230435 414942.840038 
L 363.443478 414942.840038 
L 364.656522 414942.840038 
L 365.869565 414942.840038 
L 367.082609 414942.840038 
L 368.295652 414942.840038 
L 369.508696 414942.840038 
L 370.721739 414942.840038 
L 371.934783 414942.840038 
L 373.147826 414942.840038 
L 374.36087 414942.840038 
L 375.573913 414942.840038 
L 376.786957 414942.840038 
L 378 414942.840038 
L 379.213043 414942.840038 
L 380.426087 414942.840038 
L 381.63913 414942.840038 
L 382.852174 414942.840038 
L 384.065217 414942.840038 
L 385.278261 414942.840038 
L 386.491304 414942.840038 
L 387.704348 414942.840038 
L 388.917391 414942.840038 
L 390.130435 414942.840038 
L 391.343478 414942.840038 
L 392.556522 414942.840038 
L 393.769565 414942.840038 
L 394.982609 414942.840038 
L 396.195652 414942.840038 
L 397.408696 414942.840038 
L 398.621739 414942.840038 
L 399.834783 414942.840038 
L 401.047826 414942.840038 
L 402.26087 414942.840038 
L 403.473913 414942.840038 
L 404.686957 414942.840038 
L 405.9 414942.840038 
L 407.113043 414942.840038 
L 408.326087 414942.840038 
L 409.53913 414942.840038 
L 410.752174 414942.840038 
L 411.965217 414942.840038 
L 413.178261 414942.840038 
L 414.391304 414942.840038 
L 415.604348 414942.840038 
L 416.817391 414942.840038 
L 418.030435 414942.840038 
L 419.243478 414942.840038 
L 420.456522 414942.840038 
L 421.669565 414942.840038 
L 422.882609 414942.840038 
L 424.095652 414942.840038 
L 425.308696 414942.840038 
L 426.521739 414942.840038 
L 427.734783 414942.840038 
L 428.947826 414942.840038 
L 430.16087 414942.840038 
L 431.373913 414942.840038 
L 432.586957 414942.840038 
L 433.8 414942.840038 
L 435.013043 414942.840038 
L 436.226087 414942.840038 
L 437.43913 414942.840038 
L 438.652174 414942.840038 
L 439.865217 414942.840038 
L 441.078261 414942.840038 
L 442.291304 414942.840038 
L 443.504348 414942.840038 
L 444.717391 414942.840038 
L 445.930435 414942.840038 
L 447.143478 414942.840038 
L 448.356522 414942.840038 
L 449.569565 414942.840038 
L 450.782609 414942.840038 
L 451.995652 414942.840038 
L 453.208696 414942.840038 
L 454.421739 414942.840038 
L 455.634783 414942.840038 
L 456.847826 414942.840038 
L 458.06087 414942.840038 
L 459.273913 414942.840038 
L 460.486957 414942.840038 
L 461.7 414942.840038 
L 462.913043 414942.840038 
L 464.126087 414942.840038 
L 465.33913 414942.840038 
L 466.552174 414942.840038 
L 467.765217 414942.840038 
L 468.978261 414942.840038 
L 470.191304 414942.840038 
L 471.404348 414942.840038 
L 472.617391 414942.840038 
L 473.830435 414942.840038 
L 475.043478 414942.840038 
L 476.256522 414942.840038 
L 477.469565 414942.840038 
L 478.682609 414942.840038 
L 479.895652 414942.840038 
L 481.108696 414942.840038 
L 482.321739 414942.840038 
L 483.534783 414942.840038 
L 484.747826 414942.840038 
L 485.96087 414942.840038 
L 487.173913 414942.840038 
L 488.386957 414942.840038 
L 489.6 414942.840038 
L 490.813043 414942.840038 
L 492.026087 414942.840038 
L 493.23913 414942.840038 
L 494.452174 414942.840038 
L 495.665217 414942.840038 
L 496.878261 414942.840038 
L 498.091304 414942.840038 
L 499.304348 414942.840038 
L 500.517391 414942.840038 
L 501.730435 414942.840038 
L 502.943478 414942.840038 
L 504.156522 414942.840038 
L 505.369565 414942.840038 
L 506.582609 414942.840038 
L 507.795652 414942.840038 
L 509.008696 414942.840038 
L 510.221739 414942.840038 
L 511.434783 414942.840038 
L 512.647826 414942.840038 
L 513.86087 414942.840038 
L 515.073913 414942.840038 
L 516.286957 414942.840038 
L 517.5 414942.840038 
L 518.713043 414942.840038 
L 519.926087 414942.840038 
L 521.13913 414942.840038 
L 522.352174 414942.840038 
L 523.565217 414942.840038 
L 524.778261 414942.840038 
L 525.991304 414942.840038 
L 527.204348 414942.840038 
L 528.417391 414942.840038 
L 529.630435 414942.840038 
L 530.843478 414942.840038 
L 532.056522 414942.840038 
L 533.269565 414942.840038 
L 534.482609 414942.840038 
L 535.695652 414942.840038 
L 536.908696 414942.840038 
L 538.121739 414942.840038 
L 539.334783 414942.840038 
L 540.547826 414942.840038 
L 541.76087 414942.840038 
L 542.973913 414942.840038 
L 544.186957 414942.840038 
L 545.4 414942.840038 
L 546.613043 414942.840038 
L 547.826087 414942.840038 
L 549.03913 414942.840038 
L 550.252174 414942.840038 
L 551.465217 414942.840038 
L 552.678261 414942.840038 
L 553.891304 414942.840038 
L 555.104348 414942.840038 
L 556.317391 414942.840038 
L 557.530435 414942.840038 
L 558.743478 414942.840038 
L 559.956522 414942.840038 
L 561.169565 414942.840038 
L 562.382609 414942.840038 
L 563.595652 414942.840038 
L 564.808696 414942.840038 
L 566.021739 414942.840038 
L 567.234783 414942.840038 
L 568.447826 414942.840038 
L 569.66087 414942.840038 
L 570.873913 414942.840038 
L 572.086957 414942.840038 
L 573.3 414942.840038 
L 574.513043 414942.840038 
L 575.726087 414942.840038 
L 576.93913 414942.840038 
L 578.152174 414942.840038 
L 579.365217 414942.840038 
L 580.578261 414942.840038 
L 581.791304 414942.840038 
L 583.004348 414942.840038 
L 584.217391 414942.840038 
L 585.430435 414942.840038 
L 586.643478 414942.840038 
L 587.856522 414942.840038 
L 589.069565 414942.840038 
L 590.282609 414942.840038 
L 591.495652 414942.840038 
L 592.708696 414942.840038 
L 593.921739 414942.840038 
L 595.134783 414942.840038 
L 596.347826 414942.840038 
L 597.56087 414942.840038 
L 598.773913 414942.840038 
L 599.986957 414942.840038 
L 601.2 414942.840038 
L 602.413043 414942.840038 
L 603.626087 414942.840038 
L 604.83913 414942.840038 
L 606.052174 414942.840038 
L 607.265217 414942.840038 
L 608.478261 414942.840038 
L 609.691304 414942.840038 
L 610.904348 414942.840038 
L 612.117391 414942.840038 
L 613.330435 414942.840038 
L 614.543478 414942.840038 
L 615.756522 414942.840038 
L 616.969565 414942.840038 
L 618.182609 414942.840038 
L 619.395652 414942.840038 
L 620.608696 414942.840038 
L 621.821739 414942.840038 
L 623.034783 414942.840038 
L 624.247826 414942.840038 
L 625.46087 414942.840038 
L 626.673913 414942.840038 
L 627.886957 414942.840038 
L 629.1 414942.840038 
L 630.313043 414942.840038 
L 631.526087 414942.840038 
L 632.73913 414942.840038 
L 633.952174 414942.840038 
L 635.165217 414942.840038 
L 636.378261 414942.840038 
L 637.591304 414942.840038 
L 638.804348 414942.840038 
L 640.017391 414942.840038 
L 641.230435 414942.840038 
L 642.443478 414942.840038 
L 643.656522 414942.840038 
L 644.869565 414942.840038 
L 646.082609 414942.840038 
L 647.295652 414942.840038 
L 648.508696 414942.840038 
L 649.721739 414942.840038 
L 650.934783 414942.840038 
L 652.147826 414942.840038 
L 653.36087 414942.840038 
L 654.573913 414942.840038 
L 655.786957 414942.840038 
L 657 414942.840038 
L 658.213043 414942.840038 
L 659.426087 414942.840038 
L 660.63913 414942.840038 
L 661.852174 414942.840038 
L 663.065217 414942.840038 
L 664.278261 414942.840038 
L 665.491304 414942.840038 
L 666.704348 414942.840038 
L 667.917391 414942.840038 
L 669.130435 414942.840038 
L 670.343478 414942.840038 
L 671.556522 414942.840038 
L 672.769565 414942.840038 
L 673.982609 414942.840038 
L 675.195652 414942.840038 
L 676.408696 414942.840038 
L 677.621739 414942.840038 
L 678.834783 414942.840038 
L 680.047826 414942.840038 
L 681.26087 414942.840038 
L 682.473913 414942.840038 
L 683.686957 414942.840038 
L 684.9 414942.840038 
L 686.113043 414942.840038 
L 687.326087 414942.840038 
L 688.53913 414942.840038 
L 689.752174 414942.840038 
L 690.965217 414942.840038 
L 692.178261 414942.840038 
L 693.391304 414942.840038 
L 694.604348 414942.840038 
L 695.817391 414942.840038 
L 697.030435 414942.840038 
L 698.243478 414942.840038 
L 699.456522 414942.840038 
L 700.669565 414942.840038 
L 701.882609 414942.840038 
L 703.095652 414942.840038 
L 704.308696 414942.840038 
L 705.521739 414942.840038 
L 706.734783 414942.840038 
L 707.947826 414942.840038 
L 709.16087 414942.840038 
L 710.373913 414942.840038 
L 711.586957 414942.840038 
L 712.8 414942.840038 
L 712.8 414942.840038 
L 712.8 414942.840038 
L 711.586957 414942.840038 
L 710.373913 414942.840038 
L 709.16087 414942.840038 
L 707.947826 414942.840038 
L 706.734783 414942.840038 
L 705.521739 414942.840038 
L 704.308696 414942.840038 
L 703.095652 414942.840038 
L 701.882609 414942.840038 
L 700.669565 414942.840038 
L 699.456522 414942.840038 
L 698.243478 414942.840038 
L 697.030435 414942.840038 
L 695.817391 414942.840038 
L 694.604348 414942.840038 
L 693.391304 414942.840038 
L 692.178261 414942.840038 
L 690.965217 414942.840038 
L 689.752174 414942.840038 
L 688.53913 414942.840038 
L 687.326087 414942.840038 
L 686.113043 414942.840038 
L 684.9 414942.840038 
L 683.686957 414942.840038 
L 682.473913 414942.840038 
L 681.26087 414942.840038 
L 680.047826 414942.840038 
L 678.834783 414942.840038 
L 677.621739 414942.840038 
L 676.408696 414942.840038 
L 675.195652 414942.840038 
L 673.982609 414942.840038 
L 672.769565 414942.840038 
L 671.556522 414942.840038 
L 670.343478 414942.840038 
L 669.130435 414942.840038 
L 667.917391 414942.840038 
L 666.704348 414942.840038 
L 665.491304 414942.840038 
L 664.278261 414942.840038 
L 663.065217 414942.840038 
L 661.852174 414942.840038 
L 660.63913 414942.840038 
L 659.426087 414942.840038 
L 658.213043 414942.840038 
L 657 414942.840038 
L 655.786957 414942.840038 
L 654.573913 414942.840038 
L 653.36087 414942.840038 
L 652.147826 414942.840038 
L 650.934783 414942.840038 
L 649.721739 414942.840038 
L 648.508696 414942.840038 
L 647.295652 414942.840038 
L 646.082609 414942.840038 
L 644.869565 414942.840038 
L 643.656522 414942.840038 
L 642.443478 414942.840038 
L 641.230435 414942.840038 
L 640.017391 414942.840038 
L 638.804348 414942.840038 
L 637.591304 414942.840038 
L 636.378261 414942.840038 
L 635.165217 414942.840038 
L 633.952174 414942.840038 
L 632.73913 414942.840038 
L 631.526087 414942.840038 
L 630.313043 414942.840038 
L 629.1 414942.840038 
L 627.886957 414942.840038 
L 626.673913 414942.840038 
L 625.46087 414942.840038 
L 624.247826 414942.840038 
L 623.034783 414942.840038 
L 621.821739 414942.840038 
L 620.608696 414942.840038 
L 619.395652 414942.840038 
L 618.182609 414942.840038 
L 616.969565 414942.840038 
L 615.756522 414942.840038 
L 614.543478 414942.840038 
L 613.330435 414942.840038 
L 612.117391 414942.840038 
L 610.904348 414942.840038 
L 609.691304 414942.840038 
L 608.478261 414942.840038 
L 607.265217 414942.840038 
L 606.052174 414942.840038 
L 604.83913 414942.840038 
L 603.626087 414942.840038 
L 602.413043 414942.840038 
L 601.2 414942.840038 
L 599.986957 414942.840038 
L 598.773913 414942.840038 
L 597.56087 414942.840038 
L 596.347826 414942.840038 
L 595.134783 414942.840038 
L 593.921739 414942.840038 
L 592.708696 414942.840038 
L 591.495652 414942.840038 
L 590.282609 414942.840038 
L 589.069565 414942.840038 
L 587.856522 414942.840038 
L 586.643478 414942.840038 
L 585.430435 414942.840038 
L 584.217391 414942.840038 
L 583.004348 414942.840038 
L 581.791304 414942.840038 
L 580.578261 414942.840038 
L 579.365217 414942.840038 
L 578.152174 414942.840038 
L 576.93913 414942.840038 
L 575.726087 414942.840038 
L 574.513043 414942.840038 
L 573.3 414942.840038 
L 572.086957 414942.840038 
L 570.873913 414942.840038 
L 569.66087 414942.840038 
L 568.447826 414942.840038 
L 567.234783 414942.840038 
L 566.021739 414942.840038 
L 564.808696 414942.840038 
L 563.595652 414942.840038 
L 562.382609 414942.840038 
L 561.169565 414942.840038 
L 559.956522 414942.840038 
L 558.743478 414942.840038 
L 557.530435 414942.840038 
L 556.317391 414942.840038 
L 555.104348 414942.840038 
L 553.891304 414942.840038 
L 552.678261 414942.840038 
L 551.465217 414942.840038 
L 550.252174 414942.840038 
L 549.03913 414942.840038 
L 547.826087 414942.840038 
L 546.613043 414942.840038 
L 545.4 414942.840038 
L 544.186957 414942.840038 
L 542.973913 414942.840038 
L 541.76087 414942.840038 
L 540.547826 414942.840038 
L 539.334783 414942.840038 
L 538.121739 414942.840038 
L 536.908696 414942.840038 
L 535.695652 414942.840038 
L 534.482609 414942.840038 
L 533.269565 414942.840038 
L 532.056522 414942.840038 
L 530.843478 414942.840038 
L 529.630435 414942.840038 
L 528.417391 414942.840038 
L 527.204348 414942.840038 
L 525.991304 414942.840038 
L 524.778261 414942.840038 
L 523.565217 414942.840038 
L 522.352174 414942.840038 
L 521.13913 414942.840038 
L 519.926087 414942.840038 
L 518.713043 414942.840038 
L 517.5 414942.840038 
L 516.286957 414942.840038 
L 515.073913 414942.840038 
L 513.86087 414942.840038 
L 512.647826 414942.840038 
L 511.434783 414942.840038 
L 510.221739 414942.840038 
L 509.008696 414942.840038 
L 507.795652 414942.840038 
L 506.582609 414942.840038 
L 505.369565 414942.840038 
L 504.156522 414942.840038 
L 502.943478 414942.840038 
L 501.730435 414942.840038 
L 500.517391 414942.840038 
L 499.304348 414942.840038 
L 498.091304 414942.840038 
L 496.878261 414942.840038 
L 495.665217 414942.840038 
L 494.452174 414942.840038 
L 493.23913 414942.840038 
L 492.026087 414942.840038 
L 490.813043 414942.840038 
L 489.6 414942.840038 
L 488.386957 414942.840038 
L 487.173913 414942.840038 
L 485.96087 414942.840038 
L 484.747826 414942.840038 
L 483.534783 414942.840038 
L 482.321739 414942.840038 
L 481.108696 414942.840038 
L 479.895652 414942.840038 
L 478.682609 414942.840038 
L 477.469565 414942.840038 
L 476.256522 414942.840038 
L 475.043478 414942.840038 
L 473.830435 414942.840038 
L 472.617391 414942.840038 
L 471.404348 414942.840038 
L 470.191304 414942.840038 
L 468.978261 414942.840038 
L 467.765217 414942.840038 
L 466.552174 414942.840038 
L 465.33913 414942.840038 
L 464.126087 414942.840038 
L 462.913043 414942.840038 
L 461.7 414942.840038 
L 460.486957 414942.840038 
L 459.273913 414942.840038 
L 458.06087 414942.840038 
L 456.847826 414942.840038 
L 455.634783 414942.840038 
L 454.421739 414942.840038 
L 453.208696 414942.840038 
L 451.995652 414942.840038 
L 450.782609 414942.840038 
L 449.569565 414942.840038 
L 448.356522 414942.840038 
L 447.143478 414942.840038 
L 445.930435 414942.840038 
L 444.717391 414942.840038 
L 443.504348 414942.840038 
L 442.291304 414942.840038 
L 441.078261 414942.840038 
L 439.865217 414942.840038 
L 438.652174 414942.840038 
L 437.43913 414942.840038 
L 436.226087 414942.840038 
L 435.013043 414942.840038 
L 433.8 414942.840038 
L 432.586957 414942.840038 
L 431.373913 414942.840038 
L 430.16087 414942.840038 
L 428.947826 414942.840038 
L 427.734783 414942.840038 
L 426.521739 414942.840038 
L 425.308696 414942.840038 
L 424.095652 414942.840038 
L 422.882609 414942.840038 
L 421.669565 414942.840038 
L 420.456522 414942.840038 
L 419.243478 414942.840038 
L 418.030435 414942.840038 
L 416.817391 414942.840038 
L 415.604348 414942.840038 
L 414.391304 414942.840038 
L 413.178261 414942.840038 
L 411.965217 414942.840038 
L 410.752174 414942.840038 
L 409.53913 414942.840038 
L 408.326087 414942.840038 
L 407.113043 414942.840038 
L 405.9 414942.840038 
L 404.686957 414942.840038 
L 403.473913 414942.840038 
L 402.26087 414942.840038 
L 401.047826 414942.840038 
L 399.834783 414942.840038 
L 398.621739 414942.840038 
L 397.408696 414942.840038 
L 396.195652 414942.840038 
L 394.982609 414942.840038 
L 393.769565 414942.840038 
L 392.556522 414942.840038 
L 391.343478 414942.840038 
L 390.130435 414942.840038 
L 388.917391 414942.840038 
L 387.704348 414942.840038 
L 386.491304 414942.840038 
L 385.278261 414942.840038 
L 384.065217 414942.840038 
L 382.852174 414942.840038 
L 381.63913 414942.840038 
L 380.426087 414942.840038 
L 379.213043 414942.840038 
L 378 414942.840038 
L 376.786957 414942.840038 
L 375.573913 414942.840038 
L 374.36087 414942.840038 
L 373.147826 414942.840038 
L 371.934783 414942.840038 
L 370.721739 414942.840038 
L 369.508696 414942.840038 
L 368.295652 414942.840038 
L 367.082609 414942.840038 
L 365.869565 414942.840038 
L 364.656522 414942.840038 
L 363.443478 414942.840038 
L 362.230435 414942.840038 
L 361.017391 414942.840038 
L 359.804348 414942.840038 
L 358.591304 414942.840038 
L 357.378261 414942.840038 
L 356.165217 414942.840038 
L 354.952174 414942.840038 
L 353.73913 414942.840038 
L 352.526087 414942.840038 
L 351.313043 414942.840038 
L 350.1 414942.840038 
L 348.886957 414942.840038 
L 347.673913 414942.840038 
L 346.46087 414942.840038 
L 345.247826 414942.840038 
L 344.034783 414942.840038 
L 342.821739 414942.840038 
L 341.608696 414942.840038 
L 340.395652 414942.840038 
L 339.182609 414942.840038 
L 337.969565 414942.840038 
L 336.756522 414942.840038 
L 335.543478 414942.840038 
L 334.330435 414942.840038 
L 333.117391 414942.840038 
L 331.904348 414942.840038 
L 330.691304 414942.840038 
L 329.478261 414942.840038 
L 328.265217 414942.840038 
L 327.052174 414942.840038 
L 325.83913 414942.840038 
L 324.626087 414942.840038 
L 323.413043 414942.840038 
L 322.2 414942.840038 
L 320.986957 414942.840038 
L 319.773913 414942.840038 
L 318.56087 414942.840038 
L 317.347826 414942.840038 
L 316.134783 414942.840038 
L 314.921739 414942.840038 
L 313.708696 414942.840038 
L 312.495652 414942.840038 
L 311.282609 414942.840038 
L 310.069565 414942.840038 
L 308.856522 414942.840038 
L 307.643478 414942.840038 
L 306.430435 414942.840038 
L 305.217391 414942.840038 
L 304.004348 414942.840038 
L 302.791304 414942.840038 
L 301.578261 414942.840038 
L 300.365217 414942.840038 
L 299.152174 414942.840038 
L 297.93913 414942.840038 
L 296.726087 414942.840038 
L 295.513043 414942.840038 
L 294.3 414942.840038 
L 293.086957 414942.840038 
L 291.873913 414942.840038 
L 290.66087 414942.840038 
L 289.447826 414942.840038 
L 288.234783 414942.840038 
L 287.021739 414942.840038 
L 285.808696 414942.840038 
L 284.595652 414942.840038 
L 283.382609 414942.840038 
L 282.169565 414942.840038 
L 280.956522 414942.840038 
L 279.743478 414942.840038 
L 278.530435 414942.840038 
L 277.317391 414942.840038 
L 276.104348 414942.840038 
L 274.891304 414942.840038 
L 273.678261 414942.840038 
L 272.465217 414942.840038 
L 271.252174 414942.840038 
L 270.03913 414942.840038 
L 268.826087 414942.840038 
L 267.613043 414942.840038 
L 266.4 414942.840038 
L 265.186957 414942.840038 
L 263.973913 414942.840038 
L 262.76087 414942.840038 
L 261.547826 414942.840038 
L 260.334783 414942.840038 
L 259.121739 414942.840038 
L 257.908696 414942.840038 
L 256.695652 414942.840038 
L 255.482609 414942.840038 
L 254.269565 414942.840038 
L 253.056522 414942.840038 
L 251.843478 414942.840038 
L 250.630435 414942.840038 
L 249.417391 414942.840038 
L 248.204348 414942.840038 
L 246.991304 414942.840038 
L 245.778261 414942.840038 
L 244.565217 414942.840038 
L 243.352174 414942.840038 
L 242.13913 414942.840038 
L 240.926087 414942.840038 
L 239.713043 414942.840038 
L 238.5 414942.840038 
L 237.286957 414942.840038 
L 236.073913 414942.840038 
L 234.86087 414942.840038 
L 233.647826 414942.840038 
L 232.434783 414942.840038 
L 231.221739 414942.840038 
L 230.008696 414942.840038 
L 228.795652 414942.840038 
L 227.582609 414942.840038 
L 226.369565 414942.840038 
L 225.156522 414942.840038 
L 223.943478 414942.840038 
L 222.730435 414942.840038 
L 221.517391 414942.840038 
L 220.304348 414942.840038 
L 219.091304 414942.840038 
L 217.878261 414942.840038 
L 216.665217 414942.840038 
L 215.452174 414942.840038 
L 214.23913 414942.840038 
L 213.026087 414942.840038 
L 211.813043 414942.840038 
L 210.6 414942.840038 
L 209.386957 414942.840038 
L 208.173913 414942.840038 
L 206.96087 414942.840038 
L 205.747826 414942.840038 
L 204.534783 414942.840038 
L 203.321739 414942.840038 
L 202.108696 414942.840038 
L 200.895652 414942.840038 
L 199.682609 414942.840038 
L 198.469565 414942.840038 
L 197.256522 414942.840038 
L 196.043478 414942.840038 
L 194.830435 414942.840038 
L 193.617391 414942.840038 
L 192.404348 414942.840038 
L 191.191304 414942.840038 
L 189.978261 414942.840038 
L 188.765217 414942.840038 
L 187.552174 414942.840038 
L 186.33913 414942.840038 
L 185.126087 414942.840038 
L 183.913043 414942.840038 
L 182.7 414942.840038 
L 181.486957 414942.840038 
L 180.273913 414942.840038 
L 179.06087 414942.840038 
L 177.847826 414942.840038 
L 176.634783 414942.840038 
L 175.421739 414942.840038 
L 174.208696 414942.840038 
L 172.995652 414942.840038 
L 171.782609 414942.840038 
L 170.569565 414942.840038 
L 169.356522 414942.840038 
L 168.143478 414942.840038 
L 166.930435 414942.840038 
L 165.717391 414942.840038 
L 164.504348 414942.840038 
L 163.291304 414942.840038 
L 162.078261 414942.840038 
L 160.865217 414942.840038 
L 159.652174 414942.840038 
L 158.43913 414942.840038 
L 157.226087 414942.840038 
L 156.013043 414942.840038 
L 154.8 414942.840038 
L 153.586957 414942.840038 
L 152.373913 414942.840038 
L 151.16087 414942.840038 
L 149.947826 414942.840038 
L 148.734783 414942.840038 
L 147.521739 414942.840038 
L 146.308696 414942.840038 
L 145.095652 414942.840038 
L 143.882609 414942.840038 
L 142.669565 414942.840038 
L 141.456522 414942.840038 
L 140.243478 414942.840038 
L 139.030435 414942.840038 
L 137.817391 414942.840038 
L 136.604348 414942.840038 
L 135.391304 414942.840038 
L 134.178261 414942.840038 
L 132.965217 414942.840038 
L 131.752174 414942.840038 
L 130.53913 414942.840038 
L 129.326087 414942.840038 
L 128.113043 414942.840038 
L 126.9 414942.840038 
L 125.686957 414942.840038 
L 124.473913 414942.840038 
L 123.26087 414942.840038 
L 122.047826 414942.840038 
L 120.834783 414942.840038 
L 119.621739 414942.840038 
L 118.408696 414942.840038 
L 117.195652 414942.840038 
L 115.982609 414942.840038 
L 114.769565 414942.840038 
L 113.556522 414942.840038 
L 112.343478 414942.840038 
L 111.130435 414942.840038 
L 109.917391 414942.840038 
L 108.704348 414942.840038 
L 107.491304 414942.840038 
L 106.278261 414942.840038 
L 105.065217 414942.840038 
L 103.852174 414942.840038 
L 102.63913 414942.840038 
L 101.426087 414942.840038 
L 100.213043 414942.840038 
L 99 414942.840038 
z
" style="fill:#ff8080;fill-opacity:0.5;stroke:#ff8080;stroke-opacity:0.5;"/>
   </g>
   <g id="matplotlib.axis_1">
    <g id="xtick_1">
     <g id="line2d_1">
      <path clip-path="url(#p68e2955192)" d="M 99 544.68 
L 99 73.44 
" style="fill:none;stroke:#b0b0b0;stroke-linecap:square;stroke-width:0.8;"/>
     </g>
     <g id="line2d_2">
      <defs>
       <path d="M 0 0 
L 0 3.5 
" id="m4abed1d830" style="stroke:#000000;stroke-width:0.8;"/>
      </defs>
      <g>
       <use style="stroke:#000000;stroke-width:0.8;" x="99" xlink:href="#m4abed1d830" y="544.68"/>
      </g>
     </g>
    </g>
    <g id="xtick_2">
     <g id="line2d_3">
      <path clip-path="url(#p68e2955192)" d="M 103.852174 544.68 
L 103.852174 73.44 
" style="fill:none;stroke:#b0b0b0;stroke-linecap:square;stroke-width:0.8;"/>
     </g>
     <g id="line2d_4">
      <g>
       <use style="stroke:#000000;stroke-width:0.8;" x="103.852174" xlink:href="#m4abed1d830" y="544.68"/>
      </g>
     </g>
     <g id="text_1">
      <!-- Apr -->
      <g transform="translate(95.202174 559.278437)scale(0.1 -0.1)">
       <defs>
        <path d="M 2188 4044 
L 1331 1722 
L 3047 1722 
L 2188 4044 
z
M 1831 4666 
L 2547 4666 
L 4325 0 
L 3669 0 
L 3244 1197 
L 1141 1197 
L 716 0 
L 50 0 
L 1831 4666 
z
" id="DejaVuSans-41" transform="scale(0.015625)"/>
        <path d="M 1159 525 
L 1159 -1331 
L 581 -1331 
L 581 3500 
L 1159 3500 
L 1159 2969 
Q 1341 3281 1617 3432 
Q 1894 3584 2278 3584 
Q 2916 3584 3314 3078 
Q 3713 2572 3713 1747 
Q 3713 922 3314 415 
Q 2916 -91 2278 -91 
Q 1894 -91 1617 61 
Q 1341 213 1159 525 
z
M 3116 1747 
Q 3116 2381 2855 2742 
Q 2594 3103 2138 3103 
Q 1681 3103 1420 2742 
Q 1159 2381 1159 1747 
Q 1159 1113 1420 752 
Q 1681 391 2138 391 
Q 2594 391 2855 752 
Q 3116 1113 3116 1747 
z
" id="DejaVuSans-70" transform="scale(0.015625)"/>
        <path d="M 2631 2963 
Q 2534 3019 2420 3045 
Q 2306 3072 2169 3072 
Q 1681 3072 1420 2755 
Q 1159 2438 1159 1844 
L 1159 0 
L 581 0 
L 581 3500 
L 1159 3500 
L 1159 2956 
Q 1341 3275 1631 3429 
Q 1922 3584 2338 3584 
Q 2397 3584 2469 3576 
Q 2541 3569 2628 3553 
L 2631 2963 
z
" id="DejaVuSans-72" transform="scale(0.015625)"/>
       </defs>
       <use xlink:href="#DejaVuSans-41"/>
       <use x="68.408203" xlink:href="#DejaVuSans-70"/>
       <use x="131.884766" xlink:href="#DejaVuSans-72"/>
      </g>
     </g>
    </g>
    <g id="xtick_3">
     <g id="line2d_5">
      <path clip-path="url(#p68e2955192)" d="M 214.23913 544.68 
L 214.23913 73.44 
" style="fill:none;stroke:#b0b0b0;stroke-linecap:square;stroke-width:0.8;"/>
     </g>
     <g id="line2d_6">
      <g>
       <use style="stroke:#000000;stroke-width:0.8;" x="214.23913" xlink:href="#m4abed1d830" y="544.68"/>
      </g>
     </g>
     <g id="text_2">
      <!-- Jul -->
      <g transform="translate(208.206318 559.278437)scale(0.1 -0.1)">
       <defs>
        <path d="M 628 4666 
L 1259 4666 
L 1259 325 
Q 1259 -519 939 -900 
Q 619 -1281 -91 -1281 
L -331 -1281 
L -331 -750 
L -134 -750 
Q 284 -750 456 -515 
Q 628 -281 628 325 
L 628 4666 
z
" id="DejaVuSans-4a" transform="scale(0.015625)"/>
        <path d="M 544 1381 
L 544 3500 
L 1119 3500 
L 1119 1403 
Q 1119 906 1312 657 
Q 1506 409 1894 409 
Q 2359 409 2629 706 
Q 2900 1003 2900 1516 
L 2900 3500 
L 3475 3500 
L 3475 0 
L 2900 0 
L 2900 538 
Q 2691 219 2414 64 
Q 2138 -91 1772 -91 
Q 1169 -91 856 284 
Q 544 659 544 1381 
z
M 1991 3584 
L 1991 3584 
z
" id="DejaVuSans-75" transform="scale(0.015625)"/>
        <path d="M 603 4863 
L 1178 4863 
L 1178 0 
L 603 0 
L 603 4863 
z
" id="DejaVuSans-6c" transform="scale(0.015625)"/>
       </defs>
       <use xlink:href="#DejaVuSans-4a"/>
       <use x="29.492188" xlink:href="#DejaVuSans-75"/>
       <use x="92.871094" xlink:href="#DejaVuSans-6c"/>
      </g>
     </g>
    </g>
    <g id="xtick_4">
     <g id="line2d_7">
      <path clip-path="url(#p68e2955192)" d="M 325.83913 544.68 
L 325.83913 73.44 
" style="fill:none;stroke:#b0b0b0;stroke-linecap:square;stroke-width:0.8;"/>
     </g>
     <g id="line2d_8">
      <g>
       <use style="stroke:#000000;stroke-width:0.8;" x="325.83913" xlink:href="#m4abed1d830" y="544.68"/>
      </g>
     </g>
     <g id="text_3">
      <!-- Oct -->
      <g transform="translate(317.193818 559.278437)scale(0.1 -0.1)">
       <defs>
        <path d="M 2522 4238 
Q 1834 4238 1429 3725 
Q 1025 3213 1025 2328 
Q 1025 1447 1429 934 
Q 1834 422 2522 422 
Q 3209 422 3611 934 
Q 4013 1447 4013 2328 
Q 4013 3213 3611 3725 
Q 3209 4238 2522 4238 
z
M 2522 4750 
Q 3503 4750 4090 4092 
Q 4678 3434 4678 2328 
Q 4678 1225 4090 567 
Q 3503 -91 2522 -91 
Q 1538 -91 948 565 
Q 359 1222 359 2328 
Q 359 3434 948 4092 
Q 1538 4750 2522 4750 
z
" id="DejaVuSans-4f" transform="scale(0.015625)"/>
        <path d="M 3122 3366 
L 3122 2828 
Q 2878 2963 2633 3030 
Q 2388 3097 2138 3097 
Q 1578 3097 1268 2742 
Q 959 2388 959 1747 
Q 959 1106 1268 751 
Q 1578 397 2138 397 
Q 2388 397 2633 464 
Q 2878 531 3122 666 
L 3122 134 
Q 2881 22 2623 -34 
Q 2366 -91 2075 -91 
Q 1284 -91 818 406 
Q 353 903 353 1747 
Q 353 2603 823 3093 
Q 1294 3584 2113 3584 
Q 2378 3584 2631 3529 
Q 2884 3475 3122 3366 
z
" id="DejaVuSans-63" transform="scale(0.015625)"/>
        <path d="M 1172 4494 
L 1172 3500 
L 2356 3500 
L 2356 3053 
L 1172 3053 
L 1172 1153 
Q 1172 725 1289 603 
Q 1406 481 1766 481 
L 2356 481 
L 2356 0 
L 1766 0 
Q 1100 0 847 248 
Q 594 497 594 1153 
L 594 3053 
L 172 3053 
L 172 3500 
L 594 3500 
L 594 4494 
L 1172 4494 
z
" id="DejaVuSans-74" transform="scale(0.015625)"/>
       </defs>
       <use xlink:href="#DejaVuSans-4f"/>
       <use x="78.710938" xlink:href="#DejaVuSans-63"/>
       <use x="133.691406" xlink:href="#DejaVuSans-74"/>
      </g>
     </g>
    </g>
    <g id="xtick_5">
     <g id="line2d_9">
      <path clip-path="url(#p68e2955192)" d="M 437.43913 544.68 
L 437.43913 73.44 
" style="fill:none;stroke:#b0b0b0;stroke-linecap:square;stroke-width:0.8;"/>
     </g>
     <g id="line2d_10">
      <g>
       <use style="stroke:#000000;stroke-width:0.8;" x="437.43913" xlink:href="#m4abed1d830" y="544.68"/>
      </g>
     </g>
     <g id="text_4">
      <!-- Jan -->
      <g transform="translate(429.731318 559.278437)scale(0.1 -0.1)">
       <defs>
        <path d="M 2194 1759 
Q 1497 1759 1228 1600 
Q 959 1441 959 1056 
Q 959 750 1161 570 
Q 1363 391 1709 391 
Q 2188 391 2477 730 
Q 2766 1069 2766 1631 
L 2766 1759 
L 2194 1759 
z
M 3341 1997 
L 3341 0 
L 2766 0 
L 2766 531 
Q 2569 213 2275 61 
Q 1981 -91 1556 -91 
Q 1019 -91 701 211 
Q 384 513 384 1019 
Q 384 1609 779 1909 
Q 1175 2209 1959 2209 
L 2766 2209 
L 2766 2266 
Q 2766 2663 2505 2880 
Q 2244 3097 1772 3097 
Q 1472 3097 1187 3025 
Q 903 2953 641 2809 
L 641 3341 
Q 956 3463 1253 3523 
Q 1550 3584 1831 3584 
Q 2591 3584 2966 3190 
Q 3341 2797 3341 1997 
z
" id="DejaVuSans-61" transform="scale(0.015625)"/>
        <path d="M 3513 2113 
L 3513 0 
L 2938 0 
L 2938 2094 
Q 2938 2591 2744 2837 
Q 2550 3084 2163 3084 
Q 1697 3084 1428 2787 
Q 1159 2491 1159 1978 
L 1159 0 
L 581 0 
L 581 3500 
L 1159 3500 
L 1159 2956 
Q 1366 3272 1645 3428 
Q 1925 3584 2291 3584 
Q 2894 3584 3203 3211 
Q 3513 2838 3513 2113 
z
" id="DejaVuSans-6e" transform="scale(0.015625)"/>
       </defs>
       <use xlink:href="#DejaVuSans-4a"/>
       <use x="29.492188" xlink:href="#DejaVuSans-61"/>
       <use x="90.771484" xlink:href="#DejaVuSans-6e"/>
      </g>
      <!-- 2021 -->
      <g transform="translate(424.71413 570.47625)scale(0.1 -0.1)">
       <defs>
        <path d="M 1228 531 
L 3431 531 
L 3431 0 
L 469 0 
L 469 531 
Q 828 903 1448 1529 
Q 2069 2156 2228 2338 
Q 2531 2678 2651 2914 
Q 2772 3150 2772 3378 
Q 2772 3750 2511 3984 
Q 2250 4219 1831 4219 
Q 1534 4219 1204 4116 
Q 875 4013 500 3803 
L 500 4441 
Q 881 4594 1212 4672 
Q 1544 4750 1819 4750 
Q 2544 4750 2975 4387 
Q 3406 4025 3406 3419 
Q 3406 3131 3298 2873 
Q 3191 2616 2906 2266 
Q 2828 2175 2409 1742 
Q 1991 1309 1228 531 
z
" id="DejaVuSans-32" transform="scale(0.015625)"/>
        <path d="M 2034 4250 
Q 1547 4250 1301 3770 
Q 1056 3291 1056 2328 
Q 1056 1369 1301 889 
Q 1547 409 2034 409 
Q 2525 409 2770 889 
Q 3016 1369 3016 2328 
Q 3016 3291 2770 3770 
Q 2525 4250 2034 4250 
z
M 2034 4750 
Q 2819 4750 3233 4129 
Q 3647 3509 3647 2328 
Q 3647 1150 3233 529 
Q 2819 -91 2034 -91 
Q 1250 -91 836 529 
Q 422 1150 422 2328 
Q 422 3509 836 4129 
Q 1250 4750 2034 4750 
z
" id="DejaVuSans-30" transform="scale(0.015625)"/>
        <path d="M 794 531 
L 1825 531 
L 1825 4091 
L 703 3866 
L 703 4441 
L 1819 4666 
L 2450 4666 
L 2450 531 
L 3481 531 
L 3481 0 
L 794 0 
L 794 531 
z
" id="DejaVuSans-31" transform="scale(0.015625)"/>
       </defs>
       <use xlink:href="#DejaVuSans-32"/>
       <use x="63.623047" xlink:href="#DejaVuSans-30"/>
       <use x="127.246094" xlink:href="#DejaVuSans-32"/>
       <use x="190.869141" xlink:href="#DejaVuSans-31"/>
      </g>
     </g>
    </g>
    <g id="xtick_6">
     <g id="line2d_11">
      <path clip-path="url(#p68e2955192)" d="M 546.613043 544.68 
L 546.613043 73.44 
" style="fill:none;stroke:#b0b0b0;stroke-linecap:square;stroke-width:0.8;"/>
     </g>
     <g id="line2d_12">
      <g>
       <use style="stroke:#000000;stroke-width:0.8;" x="546.613043" xlink:href="#m4abed1d830" y="544.68"/>
      </g>
     </g>
     <g id="text_5">
      <!-- Apr -->
      <g transform="translate(537.963043 559.278437)scale(0.1 -0.1)">
       <use xlink:href="#DejaVuSans-41"/>
       <use x="68.408203" xlink:href="#DejaVuSans-70"/>
       <use x="131.884766" xlink:href="#DejaVuSans-72"/>
      </g>
     </g>
    </g>
    <g id="xtick_7">
     <g id="line2d_13">
      <path clip-path="url(#p68e2955192)" d="M 657 544.68 
L 657 73.44 
" style="fill:none;stroke:#b0b0b0;stroke-linecap:square;stroke-width:0.8;"/>
     </g>
     <g id="line2d_14">
      <g>
       <use style="stroke:#000000;stroke-width:0.8;" x="657" xlink:href="#m4abed1d830" y="544.68"/>
      </g>
     </g>
     <g id="text_6">
      <!-- Jul -->
      <g transform="translate(650.967188 559.278437)scale(0.1 -0.1)">
       <use xlink:href="#DejaVuSans-4a"/>
       <use x="29.492188" xlink:href="#DejaVuSans-75"/>
       <use x="92.871094" xlink:href="#DejaVuSans-6c"/>
      </g>
     </g>
    </g>
    <g id="xtick_8">
     <g id="line2d_15">
      <path clip-path="url(#p68e2955192)" d="M 712.8 544.68 
L 712.8 73.44 
" style="fill:none;stroke:#b0b0b0;stroke-linecap:square;stroke-width:0.8;"/>
     </g>
     <g id="line2d_16">
      <g>
       <use style="stroke:#000000;stroke-width:0.8;" x="712.8" xlink:href="#m4abed1d830" y="544.68"/>
      </g>
     </g>
    </g>
    <g id="xtick_9">
     <g id="line2d_17">
      <defs>
       <path d="M 0 0 
L 0 2 
" id="mbe9820739d" style="stroke:#000000;stroke-width:0.6;"/>
      </defs>
      <g>
       <use style="stroke:#000000;stroke-width:0.6;" x="140.243478" xlink:href="#mbe9820739d" y="544.68"/>
      </g>
     </g>
    </g>
    <g id="xtick_10">
     <g id="line2d_18">
      <g>
       <use style="stroke:#000000;stroke-width:0.6;" x="177.847826" xlink:href="#mbe9820739d" y="544.68"/>
      </g>
     </g>
    </g>
    <g id="xtick_11">
     <g id="line2d_19">
      <g>
       <use style="stroke:#000000;stroke-width:0.6;" x="251.843478" xlink:href="#mbe9820739d" y="544.68"/>
      </g>
     </g>
    </g>
    <g id="xtick_12">
     <g id="line2d_20">
      <g>
       <use style="stroke:#000000;stroke-width:0.6;" x="289.447826" xlink:href="#mbe9820739d" y="544.68"/>
      </g>
     </g>
    </g>
    <g id="xtick_13">
     <g id="line2d_21">
      <g>
       <use style="stroke:#000000;stroke-width:0.6;" x="363.443478" xlink:href="#mbe9820739d" y="544.68"/>
      </g>
     </g>
    </g>
    <g id="xtick_14">
     <g id="line2d_22">
      <g>
       <use style="stroke:#000000;stroke-width:0.6;" x="399.834783" xlink:href="#mbe9820739d" y="544.68"/>
      </g>
     </g>
    </g>
    <g id="xtick_15">
     <g id="line2d_23">
      <g>
       <use style="stroke:#000000;stroke-width:0.6;" x="475.043478" xlink:href="#mbe9820739d" y="544.68"/>
      </g>
     </g>
    </g>
    <g id="xtick_16">
     <g id="line2d_24">
      <g>
       <use style="stroke:#000000;stroke-width:0.6;" x="509.008696" xlink:href="#mbe9820739d" y="544.68"/>
      </g>
     </g>
    </g>
    <g id="xtick_17">
     <g id="line2d_25">
      <g>
       <use style="stroke:#000000;stroke-width:0.6;" x="583.004348" xlink:href="#mbe9820739d" y="544.68"/>
      </g>
     </g>
    </g>
    <g id="xtick_18">
     <g id="line2d_26">
      <g>
       <use style="stroke:#000000;stroke-width:0.6;" x="620.608696" xlink:href="#mbe9820739d" y="544.68"/>
      </g>
     </g>
    </g>
    <g id="xtick_19">
     <g id="line2d_27">
      <g>
       <use style="stroke:#000000;stroke-width:0.6;" x="694.604348" xlink:href="#mbe9820739d" y="544.68"/>
      </g>
     </g>
    </g>
    <g id="text_7">
     <!-- Date -->
     <g transform="translate(393.949219 584.154375)scale(0.1 -0.1)">
      <defs>
       <path d="M 1259 4147 
L 1259 519 
L 2022 519 
Q 2988 519 3436 956 
Q 3884 1394 3884 2338 
Q 3884 3275 3436 3711 
Q 2988 4147 2022 4147 
L 1259 4147 
z
M 628 4666 
L 1925 4666 
Q 3281 4666 3915 4102 
Q 4550 3538 4550 2338 
Q 4550 1131 3912 565 
Q 3275 0 1925 0 
L 628 0 
L 628 4666 
z
" id="DejaVuSans-44" transform="scale(0.015625)"/>
       <path d="M 3597 1894 
L 3597 1613 
L 953 1613 
Q 991 1019 1311 708 
Q 1631 397 2203 397 
Q 2534 397 2845 478 
Q 3156 559 3463 722 
L 3463 178 
Q 3153 47 2828 -22 
Q 2503 -91 2169 -91 
Q 1331 -91 842 396 
Q 353 884 353 1716 
Q 353 2575 817 3079 
Q 1281 3584 2069 3584 
Q 2775 3584 3186 3129 
Q 3597 2675 3597 1894 
z
M 3022 2063 
Q 3016 2534 2758 2815 
Q 2500 3097 2075 3097 
Q 1594 3097 1305 2825 
Q 1016 2553 972 2059 
L 3022 2063 
z
" id="DejaVuSans-65" transform="scale(0.015625)"/>
      </defs>
      <use xlink:href="#DejaVuSans-44"/>
      <use x="77.001953" xlink:href="#DejaVuSans-61"/>
      <use x="138.28125" xlink:href="#DejaVuSans-74"/>
      <use x="177.490234" xlink:href="#DejaVuSans-65"/>
     </g>
    </g>
   </g>
   <g id="matplotlib.axis_2">
    <g id="ytick_1">
     <g id="line2d_28">
      <path clip-path="url(#p68e2955192)" d="M 99 398.46971 
L 712.8 398.46971 
" style="fill:none;stroke:#b0b0b0;stroke-linecap:square;stroke-width:0.8;"/>
     </g>
     <g id="line2d_29">
      <defs>
       <path d="M 0 0 
L -3.5 0 
" id="me91a084207" style="stroke:#000000;stroke-width:0.8;"/>
      </defs>
      <g>
       <use style="stroke:#000000;stroke-width:0.8;" x="99" xlink:href="#me91a084207" y="398.46971"/>
      </g>
     </g>
     <g id="text_8">
      <!-- $\mathdefault{10^{0}}$ -->
      <g transform="translate(74.4 402.268929)scale(0.1 -0.1)">
       <use transform="translate(0 0.765625)" xlink:href="#DejaVuSans-31"/>
       <use transform="translate(63.623047 0.765625)" xlink:href="#DejaVuSans-30"/>
       <use transform="translate(128.203125 39.046875)scale(0.7)" xlink:href="#DejaVuSans-30"/>
      </g>
     </g>
    </g>
    <g id="ytick_2">
     <g id="line2d_30">
      <path clip-path="url(#p68e2955192)" d="M 99 523.26 
L 712.8 523.26 
" style="fill:none;stroke:#b0b0b0;stroke-linecap:square;stroke-width:0.8;"/>
     </g>
     <g id="line2d_31">
      <defs>
       <path d="M 0 0 
L -2 0 
" id="m0cb60b688e" style="stroke:#000000;stroke-width:0.6;"/>
      </defs>
      <g>
       <use style="stroke:#000000;stroke-width:0.6;" x="99" xlink:href="#m0cb60b688e" y="523.26"/>
      </g>
     </g>
    </g>
    <g id="ytick_3">
     <g id="line2d_32">
      <path clip-path="url(#p68e2955192)" d="M 99 490.43586 
L 712.8 490.43586 
" style="fill:none;stroke:#b0b0b0;stroke-linecap:square;stroke-width:0.8;"/>
     </g>
     <g id="line2d_33">
      <g>
       <use style="stroke:#000000;stroke-width:0.6;" x="99" xlink:href="#m0cb60b688e" y="490.43586"/>
      </g>
     </g>
    </g>
    <g id="ytick_4">
     <g id="line2d_34">
      <path clip-path="url(#p68e2955192)" d="M 99 462.683445 
L 712.8 462.683445 
" style="fill:none;stroke:#b0b0b0;stroke-linecap:square;stroke-width:0.8;"/>
     </g>
     <g id="line2d_35">
      <g>
       <use style="stroke:#000000;stroke-width:0.6;" x="99" xlink:href="#m0cb60b688e" y="462.683445"/>
      </g>
     </g>
    </g>
    <g id="ytick_5">
     <g id="line2d_36">
      <path clip-path="url(#p68e2955192)" d="M 99 438.64321 
L 712.8 438.64321 
" style="fill:none;stroke:#b0b0b0;stroke-linecap:square;stroke-width:0.8;"/>
     </g>
     <g id="line2d_37">
      <g>
       <use style="stroke:#000000;stroke-width:0.6;" x="99" xlink:href="#m0cb60b688e" y="438.64321"/>
      </g>
     </g>
    </g>
    <g id="ytick_6">
     <g id="line2d_38">
      <path clip-path="url(#p68e2955192)" d="M 99 417.43822 
L 712.8 417.43822 
" style="fill:none;stroke:#b0b0b0;stroke-linecap:square;stroke-width:0.8;"/>
     </g>
     <g id="line2d_39">
      <g>
       <use style="stroke:#000000;stroke-width:0.6;" x="99" xlink:href="#m0cb60b688e" y="417.43822"/>
      </g>
     </g>
    </g>
    <g id="ytick_7">
     <g id="line2d_40">
      <path clip-path="url(#p68e2955192)" d="M 99 273.67942 
L 712.8 273.67942 
" style="fill:none;stroke:#b0b0b0;stroke-linecap:square;stroke-width:0.8;"/>
     </g>
     <g id="line2d_41">
      <g>
       <use style="stroke:#000000;stroke-width:0.6;" x="99" xlink:href="#m0cb60b688e" y="273.67942"/>
      </g>
     </g>
    </g>
    <g id="ytick_8">
     <g id="line2d_42">
      <path clip-path="url(#p68e2955192)" d="M 99 200.68178 
L 712.8 200.68178 
" style="fill:none;stroke:#b0b0b0;stroke-linecap:square;stroke-width:0.8;"/>
     </g>
     <g id="line2d_43">
      <g>
       <use style="stroke:#000000;stroke-width:0.6;" x="99" xlink:href="#m0cb60b688e" y="200.68178"/>
      </g>
     </g>
    </g>
    <g id="ytick_9">
     <g id="line2d_44">
      <path clip-path="url(#p68e2955192)" d="M 99 148.88913 
L 712.8 148.88913 
" style="fill:none;stroke:#b0b0b0;stroke-linecap:square;stroke-width:0.8;"/>
     </g>
     <g id="line2d_45">
      <g>
       <use style="stroke:#000000;stroke-width:0.6;" x="99" xlink:href="#m0cb60b688e" y="148.88913"/>
      </g>
     </g>
    </g>
    <g id="ytick_10">
     <g id="line2d_46">
      <path clip-path="url(#p68e2955192)" d="M 99 108.71563 
L 712.8 108.71563 
" style="fill:none;stroke:#b0b0b0;stroke-linecap:square;stroke-width:0.8;"/>
     </g>
     <g id="line2d_47">
      <g>
       <use style="stroke:#000000;stroke-width:0.6;" x="99" xlink:href="#m0cb60b688e" y="108.71563"/>
      </g>
     </g>
    </g>
    <g id="ytick_11">
     <g id="line2d_48">
      <path clip-path="url(#p68e2955192)" d="M 99 75.89149 
L 712.8 75.89149 
" style="fill:none;stroke:#b0b0b0;stroke-linecap:square;stroke-width:0.8;"/>
     </g>
     <g id="line2d_49">
      <g>
       <use style="stroke:#000000;stroke-width:0.6;" x="99" xlink:href="#m0cb60b688e" y="75.89149"/>
      </g>
     </g>
    </g>
   </g>
   <g id="line2d_50">
    <path clip-path="url(#p68e2955192)" d="M 262.760607 613 
L 262.76087 523.26 
L 265.186957 523.26 
L 265.187219 613 
M 267.612781 613 
L 267.613043 523.26 
L 267.613306 613 
" style="fill:none;stroke:#1f77b4;stroke-linecap:square;stroke-width:1.5;"/>
   </g>
   <g id="line2d_51">
    <path clip-path="url(#p68e2955192)" d="M 0 0 
" style="fill:none;stroke:#ff7f0e;stroke-linecap:square;stroke-width:1.5;"/>
   </g>
   <g id="patch_3">
    <path d="M 99 544.68 
L 99 73.44 
" style="fill:none;stroke:#000000;stroke-linecap:square;stroke-linejoin:miter;stroke-width:0.8;"/>
   </g>
   <g id="patch_4">
    <path d="M 712.8 544.68 
L 712.8 73.44 
" style="fill:none;stroke:#000000;stroke-linecap:square;stroke-linejoin:miter;stroke-width:0.8;"/>
   </g>
   <g id="patch_5">
    <path d="M 99 544.68 
L 712.8 544.68 
" style="fill:none;stroke:#000000;stroke-linecap:square;stroke-linejoin:miter;stroke-width:0.8;"/>
   </g>
   <g id="patch_6">
    <path d="M 99 73.44 
L 712.8 73.44 
" style="fill:none;stroke:#000000;stroke-linecap:square;stroke-linejoin:miter;stroke-width:0.8;"/>
   </g>
   <g id="legend_1">
    <g id="patch_7">
     <path d="M 616.653125 110.79625 
L 705.8 110.79625 
Q 707.8 110.79625 707.8 108.79625 
L 707.8 80.44 
Q 707.8 78.44 705.8 78.44 
L 616.653125 78.44 
Q 614.653125 78.44 614.653125 80.44 
L 614.653125 108.79625 
Q 614.653125 110.79625 616.653125 110.79625 
z
" style="fill:#ffffff;opacity:0.8;stroke:#cccccc;stroke-linejoin:miter;"/>
    </g>
    <g id="line2d_52">
     <path d="M 618.653125 86.538437 
L 638.653125 86.538437 
" style="fill:none;stroke:#1f77b4;stroke-linecap:square;stroke-width:1.5;"/>
    </g>
    <g id="line2d_53"/>
    <g id="text_9">
     <!-- Avg Cases -->
     <g transform="translate(646.653125 90.038437)scale(0.1 -0.1)">
      <defs>
       <path d="M 191 3500 
L 800 3500 
L 1894 563 
L 2988 3500 
L 3597 3500 
L 2284 0 
L 1503 0 
L 191 3500 
z
" id="DejaVuSans-76" transform="scale(0.015625)"/>
       <path d="M 2906 1791 
Q 2906 2416 2648 2759 
Q 2391 3103 1925 3103 
Q 1463 3103 1205 2759 
Q 947 2416 947 1791 
Q 947 1169 1205 825 
Q 1463 481 1925 481 
Q 2391 481 2648 825 
Q 2906 1169 2906 1791 
z
M 3481 434 
Q 3481 -459 3084 -895 
Q 2688 -1331 1869 -1331 
Q 1566 -1331 1297 -1286 
Q 1028 -1241 775 -1147 
L 775 -588 
Q 1028 -725 1275 -790 
Q 1522 -856 1778 -856 
Q 2344 -856 2625 -561 
Q 2906 -266 2906 331 
L 2906 616 
Q 2728 306 2450 153 
Q 2172 0 1784 0 
Q 1141 0 747 490 
Q 353 981 353 1791 
Q 353 2603 747 3093 
Q 1141 3584 1784 3584 
Q 2172 3584 2450 3431 
Q 2728 3278 2906 2969 
L 2906 3500 
L 3481 3500 
L 3481 434 
z
" id="DejaVuSans-67" transform="scale(0.015625)"/>
       <path id="DejaVuSans-20" transform="scale(0.015625)"/>
       <path d="M 4122 4306 
L 4122 3641 
Q 3803 3938 3442 4084 
Q 3081 4231 2675 4231 
Q 1875 4231 1450 3742 
Q 1025 3253 1025 2328 
Q 1025 1406 1450 917 
Q 1875 428 2675 428 
Q 3081 428 3442 575 
Q 3803 722 4122 1019 
L 4122 359 
Q 3791 134 3420 21 
Q 3050 -91 2638 -91 
Q 1578 -91 968 557 
Q 359 1206 359 2328 
Q 359 3453 968 4101 
Q 1578 4750 2638 4750 
Q 3056 4750 3426 4639 
Q 3797 4528 4122 4306 
z
" id="DejaVuSans-43" transform="scale(0.015625)"/>
       <path d="M 2834 3397 
L 2834 2853 
Q 2591 2978 2328 3040 
Q 2066 3103 1784 3103 
Q 1356 3103 1142 2972 
Q 928 2841 928 2578 
Q 928 2378 1081 2264 
Q 1234 2150 1697 2047 
L 1894 2003 
Q 2506 1872 2764 1633 
Q 3022 1394 3022 966 
Q 3022 478 2636 193 
Q 2250 -91 1575 -91 
Q 1294 -91 989 -36 
Q 684 19 347 128 
L 347 722 
Q 666 556 975 473 
Q 1284 391 1588 391 
Q 1994 391 2212 530 
Q 2431 669 2431 922 
Q 2431 1156 2273 1281 
Q 2116 1406 1581 1522 
L 1381 1569 
Q 847 1681 609 1914 
Q 372 2147 372 2553 
Q 372 3047 722 3315 
Q 1072 3584 1716 3584 
Q 2034 3584 2315 3537 
Q 2597 3491 2834 3397 
z
" id="DejaVuSans-73" transform="scale(0.015625)"/>
      </defs>
      <use xlink:href="#DejaVuSans-41"/>
      <use x="62.533203" xlink:href="#DejaVuSans-76"/>
      <use x="121.712891" xlink:href="#DejaVuSans-67"/>
      <use x="185.189453" xlink:href="#DejaVuSans-20"/>
      <use x="216.976562" xlink:href="#DejaVuSans-43"/>
      <use x="286.800781" xlink:href="#DejaVuSans-61"/>
      <use x="348.080078" xlink:href="#DejaVuSans-73"/>
      <use x="400.179688" xlink:href="#DejaVuSans-65"/>
      <use x="461.703125" xlink:href="#DejaVuSans-73"/>
     </g>
    </g>
    <g id="line2d_54">
     <path d="M 618.653125 101.216562 
L 638.653125 101.216562 
" style="fill:none;stroke:#ff7f0e;stroke-linecap:square;stroke-width:1.5;"/>
    </g>
    <g id="line2d_55"/>
    <g id="text_10">
     <!-- Avg Deaths -->
     <g transform="translate(646.653125 104.716562)scale(0.1 -0.1)">
      <defs>
       <path d="M 3513 2113 
L 3513 0 
L 2938 0 
L 2938 2094 
Q 2938 2591 2744 2837 
Q 2550 3084 2163 3084 
Q 1697 3084 1428 2787 
Q 1159 2491 1159 1978 
L 1159 0 
L 581 0 
L 581 4863 
L 1159 4863 
L 1159 2956 
Q 1366 3272 1645 3428 
Q 1925 3584 2291 3584 
Q 2894 3584 3203 3211 
Q 3513 2838 3513 2113 
z
" id="DejaVuSans-68" transform="scale(0.015625)"/>
      </defs>
      <use xlink:href="#DejaVuSans-41"/>
      <use x="62.533203" xlink:href="#DejaVuSans-76"/>
      <use x="121.712891" xlink:href="#DejaVuSans-67"/>
      <use x="185.189453" xlink:href="#DejaVuSans-20"/>
      <use x="216.976562" xlink:href="#DejaVuSans-44"/>
      <use x="293.978516" xlink:href="#DejaVuSans-65"/>
      <use x="355.501953" xlink:href="#DejaVuSans-61"/>
      <use x="416.78125" xlink:href="#DejaVuSans-74"/>
      <use x="455.990234" xlink:href="#DejaVuSans-68"/>
      <use x="519.369141" xlink:href="#DejaVuSans-73"/>
     </g>
    </g>
   </g>
  </g>
 </g>
 <defs>
  <clipPath id="p68e2955192">
   <rect height="471.24" width="613.8" x="99" y="73.44"/>
  </clipPath>
 </defs>
</svg>
