<?xml version="1.0" encoding="utf-8" standalone="no"?>
<!DOCTYPE svg PUBLIC "-//W3C//DTD SVG 1.1//EN"
  "http://www.w3.org/Graphics/SVG/1.1/DTD/svg11.dtd">
<svg height="612pt" version="1.1" viewBox="0 0 792 612" width="792pt" xmlns="http://www.w3.org/2000/svg" xmlns:xlink="http://www.w3.org/1999/xlink">
 <metadata>
  <rdf:RDF xmlns:cc="http://creativecommons.org/ns#" xmlns:dc="http://purl.org/dc/elements/1.1/" xmlns:rdf="http://www.w3.org/1999/02/22-rdf-syntax-ns#">
   <cc:Work>
    <dc:type rdf:resource="http://purl.org/dc/dcmitype/StillImage"/>
    <dc:format>image/svg+xml</dc:format>
    <dc:creator>
     <cc:Agent>
      <dc:title>Matplotlib v3.4.2, https://matplotlib.org/</dc:title>
     </cc:Agent>
    </dc:creator>
   </cc:Work>
  </rdf:RDF>
 </metadata>
 <defs>
  <style type="text/css">*{stroke-linecap:butt;stroke-linejoin:round;}</style>
 </defs>
 <g id="figure_1">
  <g id="patch_1">
   <path d="M 0 612 
L 792 612 
L 792 0 
L 0 0 
z
" style="fill:#ffffff;"/>
  </g>
  <g id="axes_1">
   <g id="patch_2">
    <path d="M 99 544.68 
L 712.8 544.68 
L 712.8 73.44 
L 99 73.44 
z
" style="fill:#ffffff;"/>
   </g>
   <g id="PolyCollection_1">
    <path clip-path="url(#p68e2955192)" d="M 99 414942.840038 
L 99 414942.840038 
L 100.16692 414942.840038 
L 101.33384 414942.840038 
L 102.50076 414942.840038 
L 103.667681 414942.840038 
L 104.834601 414942.840038 
L 106.001521 414942.840038 
L 107.168441 414942.840038 
L 108.335361 414942.840038 
L 109.502281 414942.840038 
L 110.669202 414942.840038 
L 111.836122 414942.840038 
L 113.003042 414942.840038 
L 114.169962 219.65029 
L 115.336882 219.65029 
L 116.503802 219.65029 
L 117.670722 219.65029 
L 118.837643 219.65029 
L 120.004563 273.67942 
L 121.171483 337.893155 
L 122.338403 302.938407 
L 123.505323 302.938407 
L 124.672243 302.938407 
L 125.839163 302.938407 
L 127.006084 302.938407 
L 128.173004 462.683445 
L 129.339924 462.683445 
L 130.506844 462.683445 
L 131.673764 462.683445 
L 132.840684 462.683445 
L 134.007605 462.683445 
L 135.174525 414942.840038 
L 136.341445 414942.840038 
L 137.508365 414942.840038 
L 138.675285 414942.840038 
L 139.842205 414942.840038 
L 141.009125 414942.840038 
L 142.176046 414942.840038 
L 143.342966 414942.840038 
L 144.509886 414942.840038 
L 145.676806 414942.840038 
L 146.843726 414942.840038 
L 148.010646 462.683445 
L 149.177567 462.683445 
L 150.344487 398.46971 
L 151.511407 398.46971 
L 152.678327 398.46971 
L 153.845247 398.46971 
L 155.012167 398.46971 
L 156.179087 302.938407 
L 157.346008 302.938407 
L 158.512928 302.938407 
L 159.679848 302.938407 
L 160.846768 302.938407 
L 162.013688 302.938407 
L 163.180608 302.938407 
L 164.347529 302.938407 
L 165.514449 302.938407 
L 166.681369 462.683445 
L 167.848289 462.683445 
L 169.015209 462.683445 
L 170.182129 462.683445 
L 171.349049 462.683445 
L 172.51597 414942.840038 
L 173.68289 414942.840038 
L 174.84981 414942.840038 
L 176.01673 462.683445 
L 177.18365 398.46971 
L 178.35057 398.46971 
L 179.51749 398.46971 
L 180.684411 398.46971 
L 181.851331 398.46971 
L 183.018251 398.46971 
L 184.185171 302.938407 
L 185.352091 302.938407 
L 186.519011 302.938407 
L 187.685932 302.938407 
L 188.852852 302.938407 
L 190.019772 302.938407 
L 191.186692 302.938407 
L 192.353612 302.938407 
L 193.520532 302.938407 
L 194.687452 398.46971 
L 195.854373 398.46971 
L 197.021293 398.46971 
L 198.188213 462.683445 
L 199.355133 414942.840038 
L 200.522053 414942.840038 
L 201.688973 414942.840038 
L 202.855894 414942.840038 
L 204.022814 414942.840038 
L 205.189734 414942.840038 
L 206.356654 414942.840038 
L 207.523574 414942.840038 
L 208.690494 414942.840038 
L 209.857414 414942.840038 
L 211.024335 414942.840038 
L 212.191255 414942.840038 
L 213.358175 414942.840038 
L 214.525095 414942.840038 
L 215.692015 414942.840038 
L 216.858935 414942.840038 
L 218.025856 414942.840038 
L 219.192776 414942.840038 
L 220.359696 414942.840038 
L 221.526616 462.683445 
L 222.693536 462.683445 
L 223.860456 462.683445 
L 225.027376 302.938407 
L 226.194297 302.938407 
L 227.361217 302.938407 
L 228.528137 302.938407 
L 229.695057 302.938407 
L 230.861977 302.938407 
L 232.028897 302.938407 
L 233.195817 302.938407 
L 234.362738 302.938407 
L 235.529658 302.938407 
L 236.696578 302.938407 
L 237.863498 302.938407 
L 239.030418 302.938407 
L 240.197338 302.938407 
L 241.364259 398.46971 
L 242.531179 398.46971 
L 243.698099 302.938407 
L 244.865019 302.938407 
L 246.031939 273.67942 
L 247.198859 273.67942 
L 248.365779 273.67942 
L 249.5327 273.67942 
L 250.69962 273.67942 
L 251.86654 273.67942 
L 253.03346 273.67942 
L 254.20038 302.938407 
L 255.3673 302.938407 
L 256.534221 302.938407 
L 257.701141 302.938407 
L 258.868061 302.938407 
L 260.034981 398.46971 
L 261.201901 398.46971 
L 262.368821 398.46971 
L 263.535741 398.46971 
L 264.702662 398.46971 
L 265.869582 398.46971 
L 267.036502 398.46971 
L 268.203422 398.46971 
L 269.370342 398.46971 
L 270.537262 398.46971 
L 271.704183 398.46971 
L 272.871103 398.46971 
L 274.038023 398.46971 
L 275.204943 398.46971 
L 276.371863 398.46971 
L 277.538783 462.683445 
L 278.705703 302.938407 
L 279.872624 302.938407 
L 281.039544 462.683445 
L 282.206464 462.683445 
L 283.373384 462.683445 
L 284.540304 462.683445 
L 285.707224 462.683445 
L 286.874144 398.46971 
L 288.041065 398.46971 
L 289.207985 398.46971 
L 290.374905 398.46971 
L 291.541825 398.46971 
L 292.708745 398.46971 
L 293.875665 398.46971 
L 295.042586 398.46971 
L 296.209506 398.46971 
L 297.376426 398.46971 
L 298.543346 398.46971 
L 299.710266 398.46971 
L 300.877186 398.46971 
L 302.044106 398.46971 
L 303.211027 398.46971 
L 304.377947 398.46971 
L 305.544867 398.46971 
L 306.711787 398.46971 
L 307.878707 398.46971 
L 309.045627 398.46971 
L 310.212548 398.46971 
L 311.379468 398.46971 
L 312.546388 398.46971 
L 313.713308 398.46971 
L 314.880228 398.46971 
L 316.047148 398.46971 
L 317.214068 398.46971 
L 318.380989 398.46971 
L 319.547909 462.683445 
L 320.714829 398.46971 
L 321.881749 302.938407 
L 323.048669 302.938407 
L 324.215589 302.938407 
L 325.38251 302.938407 
L 326.54943 302.938407 
L 327.71635 273.67942 
L 328.88327 273.67942 
L 330.05019 273.67942 
L 331.21711 273.67942 
L 332.38403 273.67942 
L 333.550951 219.65029 
L 334.717871 219.65029 
L 335.884791 200.68178 
L 337.051711 219.65029 
L 338.218631 219.65029 
L 339.385551 219.65029 
L 340.552471 219.65029 
L 341.719392 219.65029 
L 342.886312 219.65029 
L 344.053232 219.65029 
L 345.220152 219.65029 
L 346.387072 162.924884 
L 347.553992 162.924884 
L 348.720913 162.924884 
L 349.887833 178.148117 
L 351.054753 178.148117 
L 352.221673 337.893155 
L 353.388593 178.148117 
L 354.555513 178.148117 
L 355.722433 213.102865 
L 356.889354 213.102865 
L 358.056274 213.102865 
L 359.223194 178.148117 
L 360.390114 178.148117 
L 361.557034 178.148117 
L 362.723954 273.67942 
L 363.890875 273.67942 
L 365.057795 273.67942 
L 366.224715 273.67942 
L 367.391635 273.67942 
L 368.558555 273.67942 
L 369.725475 337.893155 
L 370.892395 273.67942 
L 372.059316 273.67942 
L 373.226236 273.67942 
L 374.393156 273.67942 
L 375.560076 302.938407 
L 376.726996 302.938407 
L 377.893916 302.938407 
L 379.060837 398.46971 
L 380.227757 398.46971 
L 381.394677 398.46971 
L 382.561597 398.46971 
L 383.728517 398.46971 
L 384.895437 398.46971 
L 386.062357 398.46971 
L 387.229278 398.46971 
L 388.396198 462.683445 
L 389.563118 462.683445 
L 390.730038 462.683445 
L 391.896958 462.683445 
L 393.063878 462.683445 
L 394.230798 414942.840038 
L 395.397719 337.893155 
L 396.564639 273.67942 
L 397.731559 273.67942 
L 398.898479 273.67942 
L 400.065399 273.67942 
L 401.232319 273.67942 
L 402.39924 273.67942 
L 403.56616 273.67942 
L 404.73308 273.67942 
L 405.9 273.67942 
L 407.06692 273.67942 
L 408.23384 273.67942 
L 409.40076 273.67942 
L 410.567681 273.67942 
L 411.734601 273.67942 
L 412.901521 302.938407 
L 414.068441 302.938407 
L 415.235361 302.938407 
L 416.402281 302.938407 
L 417.569202 273.67942 
L 418.736122 273.67942 
L 419.903042 273.67942 
L 421.069962 273.67942 
L 422.236882 273.67942 
L 423.403802 273.67942 
L 424.570722 302.938407 
L 425.737643 302.938407 
L 426.904563 302.938407 
L 428.071483 337.893155 
L 429.238403 337.893155 
L 430.405323 337.893155 
L 431.572243 302.938407 
L 432.739163 302.938407 
L 433.906084 462.683445 
L 435.073004 462.683445 
L 436.239924 462.683445 
L 437.406844 302.938407 
L 438.573764 302.938407 
L 439.740684 302.938407 
L 440.907605 302.938407 
L 442.074525 302.938407 
L 443.241445 302.938407 
L 444.408365 302.938407 
L 445.575285 302.938407 
L 446.742205 398.46971 
L 447.909125 462.683445 
L 449.076046 462.683445 
L 450.242966 462.683445 
L 451.409886 462.683445 
L 452.576806 462.683445 
L 453.743726 462.683445 
L 454.910646 462.683445 
L 456.077567 462.683445 
L 457.244487 462.683445 
L 458.411407 462.683445 
L 459.578327 462.683445 
L 460.745247 462.683445 
L 461.912167 337.893155 
L 463.079087 337.893155 
L 464.246008 337.893155 
L 465.412928 337.893155 
L 466.579848 337.893155 
L 467.746768 337.893155 
L 468.913688 337.893155 
L 470.080608 414942.840038 
L 471.247529 414942.840038 
L 472.414449 414942.840038 
L 473.581369 462.683445 
L 474.748289 462.683445 
L 475.915209 462.683445 
L 477.082129 462.683445 
L 478.249049 414942.840038 
L 479.41597 462.683445 
L 480.58289 462.683445 
L 481.74981 462.683445 
L 482.91673 462.683445 
L 484.08365 398.46971 
L 485.25057 398.46971 
L 486.41749 398.46971 
L 487.584411 398.46971 
L 488.751331 398.46971 
L 489.918251 462.683445 
L 491.085171 462.683445 
L 492.252091 462.683445 
L 493.419011 462.683445 
L 494.585932 462.683445 
L 495.752852 462.683445 
L 496.919772 462.683445 
L 498.086692 462.683445 
L 499.253612 462.683445 
L 500.420532 414942.840038 
L 501.587452 462.683445 
L 502.754373 462.683445 
L 503.921293 462.683445 
L 505.088213 462.683445 
L 506.255133 462.683445 
L 507.422053 398.46971 
L 508.588973 302.938407 
L 509.755894 302.938407 
L 510.922814 302.938407 
L 512.089734 219.65029 
L 513.256654 219.65029 
L 514.423574 219.65029 
L 515.590494 219.65029 
L 516.757414 219.65029 
L 517.924335 240.85528 
L 519.091255 240.85528 
L 520.258175 240.85528 
L 521.425095 240.85528 
L 522.592015 240.85528 
L 523.758935 240.85528 
L 524.925856 398.46971 
L 526.092776 398.46971 
L 527.259696 398.46971 
L 528.426616 462.683445 
L 529.593536 462.683445 
L 530.760456 462.683445 
L 531.927376 462.683445 
L 533.094297 462.683445 
L 534.261217 462.683445 
L 535.428137 414942.840038 
L 536.595057 462.683445 
L 537.761977 414942.840038 
L 538.928897 414942.840038 
L 540.095817 414942.840038 
L 541.262738 414942.840038 
L 542.429658 414942.840038 
L 543.596578 414942.840038 
L 544.763498 414942.840038 
L 545.930418 462.683445 
L 547.097338 398.46971 
L 548.264259 398.46971 
L 549.431179 398.46971 
L 550.598099 398.46971 
L 551.765019 398.46971 
L 552.931939 462.683445 
L 554.098859 462.683445 
L 555.265779 462.683445 
L 556.4327 398.46971 
L 557.59962 398.46971 
L 558.76654 398.46971 
L 559.93346 398.46971 
L 561.10038 398.46971 
L 562.2673 462.683445 
L 563.434221 414942.840038 
L 564.601141 337.893155 
L 565.768061 337.893155 
L 566.934981 337.893155 
L 568.101901 337.893155 
L 569.268821 337.893155 
L 570.435741 337.893155 
L 571.602662 302.938407 
L 572.769582 462.683445 
L 573.936502 462.683445 
L 575.103422 398.46971 
L 576.270342 398.46971 
L 577.437262 398.46971 
L 578.604183 398.46971 
L 579.771103 398.46971 
L 580.938023 398.46971 
L 582.104943 398.46971 
L 583.271863 398.46971 
L 584.438783 302.938407 
L 585.605703 302.938407 
L 586.772624 273.67942 
L 587.939544 273.67942 
L 589.106464 273.67942 
L 590.273384 273.67942 
L 591.440304 273.67942 
L 592.607224 273.67942 
L 593.774144 273.67942 
L 594.941065 273.67942 
L 596.107985 273.67942 
L 597.274905 273.67942 
L 598.441825 273.67942 
L 599.608745 273.67942 
L 600.775665 273.67942 
L 601.942586 273.67942 
L 603.109506 337.893155 
L 604.276426 337.893155 
L 605.443346 414942.840038 
L 606.610266 414942.840038 
L 607.777186 414942.840038 
L 608.944106 414942.840038 
L 610.111027 414942.840038 
L 611.277947 414942.840038 
L 612.444867 414942.840038 
L 613.611787 414942.840038 
L 614.778707 414942.840038 
L 615.945627 414942.840038 
L 617.112548 414942.840038 
L 618.279468 414942.840038 
L 619.446388 414942.840038 
L 620.613308 414942.840038 
L 621.780228 414942.840038 
L 622.947148 414942.840038 
L 624.114068 414942.840038 
L 625.280989 414942.840038 
L 626.447909 414942.840038 
L 627.614829 414942.840038 
L 628.781749 414942.840038 
L 629.948669 414942.840038 
L 631.115589 414942.840038 
L 632.28251 414942.840038 
L 633.44943 414942.840038 
L 634.61635 414942.840038 
L 635.78327 414942.840038 
L 636.95019 414942.840038 
L 638.11711 414942.840038 
L 639.28403 414942.840038 
L 640.450951 414942.840038 
L 641.617871 414942.840038 
L 642.784791 462.683445 
L 643.951711 462.683445 
L 645.118631 462.683445 
L 646.285551 462.683445 
L 647.452471 462.683445 
L 648.619392 462.683445 
L 649.786312 398.46971 
L 650.953232 398.46971 
L 652.120152 398.46971 
L 653.287072 398.46971 
L 654.453992 398.46971 
L 655.620913 398.46971 
L 656.787833 398.46971 
L 657.954753 398.46971 
L 659.121673 462.683445 
L 660.288593 462.683445 
L 661.455513 462.683445 
L 662.622433 462.683445 
L 663.789354 302.938407 
L 664.956274 302.938407 
L 666.123194 462.683445 
L 667.290114 462.683445 
L 668.457034 462.683445 
L 669.623954 462.683445 
L 670.790875 302.938407 
L 671.957795 302.938407 
L 673.124715 273.67942 
L 674.291635 273.67942 
L 675.458555 273.67942 
L 676.625475 273.67942 
L 677.792395 116.06499 
L 678.959316 116.06499 
L 680.126236 116.06499 
L 681.293156 94.86 
L 682.460076 94.86 
L 683.626996 94.86 
L 684.793916 94.86 
L 685.960837 94.86 
L 687.127757 162.924884 
L 688.294677 162.924884 
L 689.461597 119.855327 
L 690.628517 119.855327 
L 691.795437 119.855327 
L 692.962357 119.855327 
L 694.129278 148.88913 
L 695.296198 148.88913 
L 696.463118 148.88913 
L 697.630038 162.924884 
L 698.796958 162.924884 
L 699.963878 148.88913 
L 701.130798 148.88913 
L 702.297719 148.88913 
L 703.464639 148.88913 
L 704.631559 148.88913 
L 705.798479 148.88913 
L 706.965399 148.88913 
L 708.132319 148.88913 
L 709.29924 178.148117 
L 710.46616 178.148117 
L 711.63308 178.148117 
L 712.8 178.148117 
L 712.8 414942.840038 
L 712.8 414942.840038 
L 711.63308 414942.840038 
L 710.46616 414942.840038 
L 709.29924 414942.840038 
L 708.132319 414942.840038 
L 706.965399 414942.840038 
L 705.798479 414942.840038 
L 704.631559 414942.840038 
L 703.464639 414942.840038 
L 702.297719 414942.840038 
L 701.130798 414942.840038 
L 699.963878 414942.840038 
L 698.796958 414942.840038 
L 697.630038 414942.840038 
L 696.463118 414942.840038 
L 695.296198 414942.840038 
L 694.129278 414942.840038 
L 692.962357 414942.840038 
L 691.795437 414942.840038 
L 690.628517 414942.840038 
L 689.461597 414942.840038 
L 688.294677 414942.840038 
L 687.127757 414942.840038 
L 685.960837 414942.840038 
L 684.793916 414942.840038 
L 683.626996 414942.840038 
L 682.460076 414942.840038 
L 681.293156 414942.840038 
L 680.126236 414942.840038 
L 678.959316 414942.840038 
L 677.792395 414942.840038 
L 676.625475 414942.840038 
L 675.458555 414942.840038 
L 674.291635 414942.840038 
L 673.124715 414942.840038 
L 671.957795 414942.840038 
L 670.790875 414942.840038 
L 669.623954 414942.840038 
L 668.457034 414942.840038 
L 667.290114 414942.840038 
L 666.123194 414942.840038 
L 664.956274 414942.840038 
L 663.789354 414942.840038 
L 662.622433 414942.840038 
L 661.455513 414942.840038 
L 660.288593 414942.840038 
L 659.121673 414942.840038 
L 657.954753 414942.840038 
L 656.787833 414942.840038 
L 655.620913 414942.840038 
L 654.453992 414942.840038 
L 653.287072 414942.840038 
L 652.120152 414942.840038 
L 650.953232 414942.840038 
L 649.786312 414942.840038 
L 648.619392 414942.840038 
L 647.452471 414942.840038 
L 646.285551 414942.840038 
L 645.118631 414942.840038 
L 643.951711 414942.840038 
L 642.784791 414942.840038 
L 641.617871 414942.840038 
L 640.450951 414942.840038 
L 639.28403 414942.840038 
L 638.11711 414942.840038 
L 636.95019 414942.840038 
L 635.78327 414942.840038 
L 634.61635 414942.840038 
L 633.44943 414942.840038 
L 632.28251 414942.840038 
L 631.115589 414942.840038 
L 629.948669 414942.840038 
L 628.781749 414942.840038 
L 627.614829 414942.840038 
L 626.447909 414942.840038 
L 625.280989 414942.840038 
L 624.114068 414942.840038 
L 622.947148 414942.840038 
L 621.780228 414942.840038 
L 620.613308 414942.840038 
L 619.446388 414942.840038 
L 618.279468 414942.840038 
L 617.112548 414942.840038 
L 615.945627 414942.840038 
L 614.778707 414942.840038 
L 613.611787 414942.840038 
L 612.444867 414942.840038 
L 611.277947 414942.840038 
L 610.111027 414942.840038 
L 608.944106 414942.840038 
L 607.777186 414942.840038 
L 606.610266 414942.840038 
L 605.443346 414942.840038 
L 604.276426 414942.840038 
L 603.109506 414942.840038 
L 601.942586 414942.840038 
L 600.775665 414942.840038 
L 599.608745 414942.840038 
L 598.441825 414942.840038 
L 597.274905 414942.840038 
L 596.107985 414942.840038 
L 594.941065 414942.840038 
L 593.774144 414942.840038 
L 592.607224 414942.840038 
L 591.440304 414942.840038 
L 590.273384 414942.840038 
L 589.106464 414942.840038 
L 587.939544 414942.840038 
L 586.772624 414942.840038 
L 585.605703 414942.840038 
L 584.438783 414942.840038 
L 583.271863 414942.840038 
L 582.104943 414942.840038 
L 580.938023 414942.840038 
L 579.771103 414942.840038 
L 578.604183 414942.840038 
L 577.437262 414942.840038 
L 576.270342 414942.840038 
L 575.103422 414942.840038 
L 573.936502 414942.840038 
L 572.769582 414942.840038 
L 571.602662 414942.840038 
L 570.435741 414942.840038 
L 569.268821 414942.840038 
L 568.101901 414942.840038 
L 566.934981 414942.840038 
L 565.768061 414942.840038 
L 564.601141 414942.840038 
L 563.434221 414942.840038 
L 562.2673 414942.840038 
L 561.10038 414942.840038 
L 559.93346 414942.840038 
L 558.76654 414942.840038 
L 557.59962 414942.840038 
L 556.4327 414942.840038 
L 555.265779 414942.840038 
L 554.098859 414942.840038 
L 552.931939 414942.840038 
L 551.765019 414942.840038 
L 550.598099 414942.840038 
L 549.431179 414942.840038 
L 548.264259 414942.840038 
L 547.097338 414942.840038 
L 545.930418 414942.840038 
L 544.763498 414942.840038 
L 543.596578 414942.840038 
L 542.429658 414942.840038 
L 541.262738 414942.840038 
L 540.095817 414942.840038 
L 538.928897 414942.840038 
L 537.761977 414942.840038 
L 536.595057 414942.840038 
L 535.428137 414942.840038 
L 534.261217 414942.840038 
L 533.094297 414942.840038 
L 531.927376 414942.840038 
L 530.760456 414942.840038 
L 529.593536 414942.840038 
L 528.426616 414942.840038 
L 527.259696 414942.840038 
L 526.092776 414942.840038 
L 524.925856 414942.840038 
L 523.758935 414942.840038 
L 522.592015 414942.840038 
L 521.425095 414942.840038 
L 520.258175 414942.840038 
L 519.091255 414942.840038 
L 517.924335 414942.840038 
L 516.757414 414942.840038 
L 515.590494 414942.840038 
L 514.423574 414942.840038 
L 513.256654 414942.840038 
L 512.089734 414942.840038 
L 510.922814 414942.840038 
L 509.755894 414942.840038 
L 508.588973 414942.840038 
L 507.422053 414942.840038 
L 506.255133 414942.840038 
L 505.088213 414942.840038 
L 503.921293 414942.840038 
L 502.754373 414942.840038 
L 501.587452 414942.840038 
L 500.420532 414942.840038 
L 499.253612 414942.840038 
L 498.086692 414942.840038 
L 496.919772 414942.840038 
L 495.752852 414942.840038 
L 494.585932 414942.840038 
L 493.419011 414942.840038 
L 492.252091 414942.840038 
L 491.085171 414942.840038 
L 489.918251 414942.840038 
L 488.751331 414942.840038 
L 487.584411 414942.840038 
L 486.41749 414942.840038 
L 485.25057 414942.840038 
L 484.08365 414942.840038 
L 482.91673 414942.840038 
L 481.74981 414942.840038 
L 480.58289 414942.840038 
L 479.41597 414942.840038 
L 478.249049 414942.840038 
L 477.082129 414942.840038 
L 475.915209 414942.840038 
L 474.748289 414942.840038 
L 473.581369 414942.840038 
L 472.414449 414942.840038 
L 471.247529 414942.840038 
L 470.080608 414942.840038 
L 468.913688 414942.840038 
L 467.746768 414942.840038 
L 466.579848 414942.840038 
L 465.412928 414942.840038 
L 464.246008 414942.840038 
L 463.079087 414942.840038 
L 461.912167 414942.840038 
L 460.745247 414942.840038 
L 459.578327 414942.840038 
L 458.411407 414942.840038 
L 457.244487 414942.840038 
L 456.077567 414942.840038 
L 454.910646 414942.840038 
L 453.743726 414942.840038 
L 452.576806 414942.840038 
L 451.409886 414942.840038 
L 450.242966 414942.840038 
L 449.076046 414942.840038 
L 447.909125 414942.840038 
L 446.742205 414942.840038 
L 445.575285 414942.840038 
L 444.408365 414942.840038 
L 443.241445 414942.840038 
L 442.074525 414942.840038 
L 440.907605 414942.840038 
L 439.740684 414942.840038 
L 438.573764 414942.840038 
L 437.406844 414942.840038 
L 436.239924 414942.840038 
L 435.073004 414942.840038 
L 433.906084 414942.840038 
L 432.739163 414942.840038 
L 431.572243 414942.840038 
L 430.405323 414942.840038 
L 429.238403 414942.840038 
L 428.071483 414942.840038 
L 426.904563 414942.840038 
L 425.737643 414942.840038 
L 424.570722 414942.840038 
L 423.403802 414942.840038 
L 422.236882 414942.840038 
L 421.069962 414942.840038 
L 419.903042 414942.840038 
L 418.736122 414942.840038 
L 417.569202 414942.840038 
L 416.402281 414942.840038 
L 415.235361 414942.840038 
L 414.068441 414942.840038 
L 412.901521 414942.840038 
L 411.734601 414942.840038 
L 410.567681 414942.840038 
L 409.40076 414942.840038 
L 408.23384 414942.840038 
L 407.06692 414942.840038 
L 405.9 414942.840038 
L 404.73308 414942.840038 
L 403.56616 414942.840038 
L 402.39924 414942.840038 
L 401.232319 414942.840038 
L 400.065399 414942.840038 
L 398.898479 414942.840038 
L 397.731559 414942.840038 
L 396.564639 414942.840038 
L 395.397719 414942.840038 
L 394.230798 414942.840038 
L 393.063878 414942.840038 
L 391.896958 414942.840038 
L 390.730038 414942.840038 
L 389.563118 414942.840038 
L 388.396198 414942.840038 
L 387.229278 414942.840038 
L 386.062357 414942.840038 
L 384.895437 414942.840038 
L 383.728517 414942.840038 
L 382.561597 414942.840038 
L 381.394677 414942.840038 
L 380.227757 414942.840038 
L 379.060837 414942.840038 
L 377.893916 414942.840038 
L 376.726996 414942.840038 
L 375.560076 414942.840038 
L 374.393156 414942.840038 
L 373.226236 414942.840038 
L 372.059316 414942.840038 
L 370.892395 414942.840038 
L 369.725475 414942.840038 
L 368.558555 414942.840038 
L 367.391635 414942.840038 
L 366.224715 414942.840038 
L 365.057795 414942.840038 
L 363.890875 414942.840038 
L 362.723954 414942.840038 
L 361.557034 414942.840038 
L 360.390114 414942.840038 
L 359.223194 414942.840038 
L 358.056274 414942.840038 
L 356.889354 414942.840038 
L 355.722433 414942.840038 
L 354.555513 414942.840038 
L 353.388593 414942.840038 
L 352.221673 414942.840038 
L 351.054753 414942.840038 
L 349.887833 414942.840038 
L 348.720913 414942.840038 
L 347.553992 414942.840038 
L 346.387072 414942.840038 
L 345.220152 414942.840038 
L 344.053232 414942.840038 
L 342.886312 414942.840038 
L 341.719392 414942.840038 
L 340.552471 414942.840038 
L 339.385551 414942.840038 
L 338.218631 414942.840038 
L 337.051711 414942.840038 
L 335.884791 414942.840038 
L 334.717871 414942.840038 
L 333.550951 414942.840038 
L 332.38403 414942.840038 
L 331.21711 414942.840038 
L 330.05019 414942.840038 
L 328.88327 414942.840038 
L 327.71635 414942.840038 
L 326.54943 414942.840038 
L 325.38251 414942.840038 
L 324.215589 414942.840038 
L 323.048669 414942.840038 
L 321.881749 414942.840038 
L 320.714829 414942.840038 
L 319.547909 414942.840038 
L 318.380989 414942.840038 
L 317.214068 414942.840038 
L 316.047148 414942.840038 
L 314.880228 414942.840038 
L 313.713308 414942.840038 
L 312.546388 414942.840038 
L 311.379468 414942.840038 
L 310.212548 414942.840038 
L 309.045627 414942.840038 
L 307.878707 414942.840038 
L 306.711787 414942.840038 
L 305.544867 414942.840038 
L 304.377947 414942.840038 
L 303.211027 414942.840038 
L 302.044106 414942.840038 
L 300.877186 414942.840038 
L 299.710266 414942.840038 
L 298.543346 414942.840038 
L 297.376426 414942.840038 
L 296.209506 414942.840038 
L 295.042586 414942.840038 
L 293.875665 414942.840038 
L 292.708745 414942.840038 
L 291.541825 414942.840038 
L 290.374905 414942.840038 
L 289.207985 414942.840038 
L 288.041065 414942.840038 
L 286.874144 414942.840038 
L 285.707224 414942.840038 
L 284.540304 414942.840038 
L 283.373384 414942.840038 
L 282.206464 414942.840038 
L 281.039544 414942.840038 
L 279.872624 414942.840038 
L 278.705703 414942.840038 
L 277.538783 414942.840038 
L 276.371863 414942.840038 
L 275.204943 414942.840038 
L 274.038023 414942.840038 
L 272.871103 414942.840038 
L 271.704183 414942.840038 
L 270.537262 414942.840038 
L 269.370342 414942.840038 
L 268.203422 414942.840038 
L 267.036502 414942.840038 
L 265.869582 414942.840038 
L 264.702662 414942.840038 
L 263.535741 414942.840038 
L 262.368821 414942.840038 
L 261.201901 414942.840038 
L 260.034981 414942.840038 
L 258.868061 414942.840038 
L 257.701141 414942.840038 
L 256.534221 414942.840038 
L 255.3673 414942.840038 
L 254.20038 414942.840038 
L 253.03346 414942.840038 
L 251.86654 414942.840038 
L 250.69962 414942.840038 
L 249.5327 414942.840038 
L 248.365779 414942.840038 
L 247.198859 414942.840038 
L 246.031939 414942.840038 
L 244.865019 414942.840038 
L 243.698099 414942.840038 
L 242.531179 414942.840038 
L 241.364259 414942.840038 
L 240.197338 414942.840038 
L 239.030418 414942.840038 
L 237.863498 414942.840038 
L 236.696578 414942.840038 
L 235.529658 414942.840038 
L 234.362738 414942.840038 
L 233.195817 414942.840038 
L 232.028897 414942.840038 
L 230.861977 414942.840038 
L 229.695057 414942.840038 
L 228.528137 414942.840038 
L 227.361217 414942.840038 
L 226.194297 414942.840038 
L 225.027376 414942.840038 
L 223.860456 414942.840038 
L 222.693536 414942.840038 
L 221.526616 414942.840038 
L 220.359696 414942.840038 
L 219.192776 414942.840038 
L 218.025856 414942.840038 
L 216.858935 414942.840038 
L 215.692015 414942.840038 
L 214.525095 414942.840038 
L 213.358175 414942.840038 
L 212.191255 414942.840038 
L 211.024335 414942.840038 
L 209.857414 414942.840038 
L 208.690494 414942.840038 
L 207.523574 414942.840038 
L 206.356654 414942.840038 
L 205.189734 414942.840038 
L 204.022814 414942.840038 
L 202.855894 414942.840038 
L 201.688973 414942.840038 
L 200.522053 414942.840038 
L 199.355133 414942.840038 
L 198.188213 414942.840038 
L 197.021293 414942.840038 
L 195.854373 414942.840038 
L 194.687452 414942.840038 
L 193.520532 414942.840038 
L 192.353612 414942.840038 
L 191.186692 414942.840038 
L 190.019772 414942.840038 
L 188.852852 414942.840038 
L 187.685932 414942.840038 
L 186.519011 414942.840038 
L 185.352091 414942.840038 
L 184.185171 414942.840038 
L 183.018251 414942.840038 
L 181.851331 414942.840038 
L 180.684411 414942.840038 
L 179.51749 414942.840038 
L 178.35057 414942.840038 
L 177.18365 414942.840038 
L 176.01673 414942.840038 
L 174.84981 414942.840038 
L 173.68289 414942.840038 
L 172.51597 414942.840038 
L 171.349049 414942.840038 
L 170.182129 414942.840038 
L 169.015209 414942.840038 
L 167.848289 414942.840038 
L 166.681369 414942.840038 
L 165.514449 414942.840038 
L 164.347529 414942.840038 
L 163.180608 414942.840038 
L 162.013688 414942.840038 
L 160.846768 414942.840038 
L 159.679848 414942.840038 
L 158.512928 414942.840038 
L 157.346008 414942.840038 
L 156.179087 414942.840038 
L 155.012167 414942.840038 
L 153.845247 414942.840038 
L 152.678327 414942.840038 
L 151.511407 414942.840038 
L 150.344487 414942.840038 
L 149.177567 414942.840038 
L 148.010646 414942.840038 
L 146.843726 414942.840038 
L 145.676806 414942.840038 
L 144.509886 414942.840038 
L 143.342966 414942.840038 
L 142.176046 414942.840038 
L 141.009125 414942.840038 
L 139.842205 414942.840038 
L 138.675285 414942.840038 
L 137.508365 414942.840038 
L 136.341445 414942.840038 
L 135.174525 414942.840038 
L 134.007605 414942.840038 
L 132.840684 414942.840038 
L 131.673764 414942.840038 
L 130.506844 414942.840038 
L 129.339924 414942.840038 
L 128.173004 414942.840038 
L 127.006084 414942.840038 
L 125.839163 414942.840038 
L 124.672243 414942.840038 
L 123.505323 414942.840038 
L 122.338403 414942.840038 
L 121.171483 414942.840038 
L 120.004563 414942.840038 
L 118.837643 414942.840038 
L 117.670722 414942.840038 
L 116.503802 414942.840038 
L 115.336882 414942.840038 
L 114.169962 414942.840038 
L 113.003042 414942.840038 
L 111.836122 414942.840038 
L 110.669202 414942.840038 
L 109.502281 414942.840038 
L 108.335361 414942.840038 
L 107.168441 414942.840038 
L 106.001521 414942.840038 
L 104.834601 414942.840038 
L 103.667681 414942.840038 
L 102.50076 414942.840038 
L 101.33384 414942.840038 
L 100.16692 414942.840038 
L 99 414942.840038 
z
" style="fill:#8080ff;fill-opacity:0.5;stroke:#8080ff;stroke-opacity:0.5;"/>
   </g>
   <g id="PolyCollection_2">
    <path clip-path="url(#p68e2955192)" d="M 99 414942.840038 
L 99 414942.840038 
L 100.16692 414942.840038 
L 101.33384 414942.840038 
L 102.50076 414942.840038 
L 103.667681 414942.840038 
L 104.834601 414942.840038 
L 106.001521 414942.840038 
L 107.168441 414942.840038 
L 108.335361 414942.840038 
L 109.502281 414942.840038 
L 110.669202 414942.840038 
L 111.836122 414942.840038 
L 113.003042 414942.840038 
L 114.169962 462.683445 
L 115.336882 462.683445 
L 116.503802 462.683445 
L 117.670722 462.683445 
L 118.837643 462.683445 
L 120.004563 414942.840038 
L 121.171483 414942.840038 
L 122.338403 414942.840038 
L 123.505323 414942.840038 
L 124.672243 414942.840038 
L 125.839163 414942.840038 
L 127.006084 414942.840038 
L 128.173004 414942.840038 
L 129.339924 414942.840038 
L 130.506844 414942.840038 
L 131.673764 414942.840038 
L 132.840684 414942.840038 
L 134.007605 414942.840038 
L 135.174525 414942.840038 
L 136.341445 414942.840038 
L 137.508365 414942.840038 
L 138.675285 414942.840038 
L 139.842205 414942.840038 
L 141.009125 414942.840038 
L 142.176046 414942.840038 
L 143.342966 414942.840038 
L 144.509886 414942.840038 
L 145.676806 414942.840038 
L 146.843726 414942.840038 
L 148.010646 414942.840038 
L 149.177567 414942.840038 
L 150.344487 414942.840038 
L 151.511407 414942.840038 
L 152.678327 414942.840038 
L 153.845247 414942.840038 
L 155.012167 414942.840038 
L 156.179087 414942.840038 
L 157.346008 414942.840038 
L 158.512928 414942.840038 
L 159.679848 414942.840038 
L 160.846768 414942.840038 
L 162.013688 414942.840038 
L 163.180608 414942.840038 
L 164.347529 414942.840038 
L 165.514449 414942.840038 
L 166.681369 414942.840038 
L 167.848289 414942.840038 
L 169.015209 414942.840038 
L 170.182129 414942.840038 
L 171.349049 414942.840038 
L 172.51597 414942.840038 
L 173.68289 414942.840038 
L 174.84981 414942.840038 
L 176.01673 414942.840038 
L 177.18365 414942.840038 
L 178.35057 414942.840038 
L 179.51749 414942.840038 
L 180.684411 414942.840038 
L 181.851331 414942.840038 
L 183.018251 414942.840038 
L 184.185171 414942.840038 
L 185.352091 414942.840038 
L 186.519011 414942.840038 
L 187.685932 414942.840038 
L 188.852852 414942.840038 
L 190.019772 414942.840038 
L 191.186692 414942.840038 
L 192.353612 414942.840038 
L 193.520532 414942.840038 
L 194.687452 414942.840038 
L 195.854373 414942.840038 
L 197.021293 414942.840038 
L 198.188213 414942.840038 
L 199.355133 414942.840038 
L 200.522053 414942.840038 
L 201.688973 414942.840038 
L 202.855894 414942.840038 
L 204.022814 414942.840038 
L 205.189734 414942.840038 
L 206.356654 414942.840038 
L 207.523574 414942.840038 
L 208.690494 414942.840038 
L 209.857414 414942.840038 
L 211.024335 414942.840038 
L 212.191255 414942.840038 
L 213.358175 414942.840038 
L 214.525095 414942.840038 
L 215.692015 414942.840038 
L 216.858935 414942.840038 
L 218.025856 414942.840038 
L 219.192776 414942.840038 
L 220.359696 414942.840038 
L 221.526616 414942.840038 
L 222.693536 414942.840038 
L 223.860456 414942.840038 
L 225.027376 414942.840038 
L 226.194297 414942.840038 
L 227.361217 414942.840038 
L 228.528137 414942.840038 
L 229.695057 414942.840038 
L 230.861977 414942.840038 
L 232.028897 414942.840038 
L 233.195817 414942.840038 
L 234.362738 414942.840038 
L 235.529658 414942.840038 
L 236.696578 414942.840038 
L 237.863498 414942.840038 
L 239.030418 414942.840038 
L 240.197338 414942.840038 
L 241.364259 414942.840038 
L 242.531179 414942.840038 
L 243.698099 414942.840038 
L 244.865019 414942.840038 
L 246.031939 414942.840038 
L 247.198859 414942.840038 
L 248.365779 414942.840038 
L 249.5327 414942.840038 
L 250.69962 414942.840038 
L 251.86654 414942.840038 
L 253.03346 414942.840038 
L 254.20038 414942.840038 
L 255.3673 414942.840038 
L 256.534221 414942.840038 
L 257.701141 414942.840038 
L 258.868061 414942.840038 
L 260.034981 414942.840038 
L 261.201901 414942.840038 
L 262.368821 414942.840038 
L 263.535741 414942.840038 
L 264.702662 414942.840038 
L 265.869582 414942.840038 
L 267.036502 414942.840038 
L 268.203422 414942.840038 
L 269.370342 414942.840038 
L 270.537262 414942.840038 
L 271.704183 414942.840038 
L 272.871103 414942.840038 
L 274.038023 414942.840038 
L 275.204943 414942.840038 
L 276.371863 414942.840038 
L 277.538783 414942.840038 
L 278.705703 414942.840038 
L 279.872624 414942.840038 
L 281.039544 414942.840038 
L 282.206464 414942.840038 
L 283.373384 414942.840038 
L 284.540304 414942.840038 
L 285.707224 414942.840038 
L 286.874144 414942.840038 
L 288.041065 414942.840038 
L 289.207985 414942.840038 
L 290.374905 414942.840038 
L 291.541825 414942.840038 
L 292.708745 414942.840038 
L 293.875665 414942.840038 
L 295.042586 414942.840038 
L 296.209506 414942.840038 
L 297.376426 414942.840038 
L 298.543346 414942.840038 
L 299.710266 414942.840038 
L 300.877186 414942.840038 
L 302.044106 414942.840038 
L 303.211027 414942.840038 
L 304.377947 414942.840038 
L 305.544867 414942.840038 
L 306.711787 414942.840038 
L 307.878707 414942.840038 
L 309.045627 414942.840038 
L 310.212548 414942.840038 
L 311.379468 414942.840038 
L 312.546388 414942.840038 
L 313.713308 414942.840038 
L 314.880228 414942.840038 
L 316.047148 414942.840038 
L 317.214068 414942.840038 
L 318.380989 414942.840038 
L 319.547909 414942.840038 
L 320.714829 414942.840038 
L 321.881749 414942.840038 
L 323.048669 414942.840038 
L 324.215589 414942.840038 
L 325.38251 414942.840038 
L 326.54943 414942.840038 
L 327.71635 414942.840038 
L 328.88327 414942.840038 
L 330.05019 414942.840038 
L 331.21711 414942.840038 
L 332.38403 414942.840038 
L 333.550951 414942.840038 
L 334.717871 414942.840038 
L 335.884791 414942.840038 
L 337.051711 414942.840038 
L 338.218631 414942.840038 
L 339.385551 414942.840038 
L 340.552471 414942.840038 
L 341.719392 414942.840038 
L 342.886312 414942.840038 
L 344.053232 414942.840038 
L 345.220152 414942.840038 
L 346.387072 414942.840038 
L 347.553992 414942.840038 
L 348.720913 414942.840038 
L 349.887833 414942.840038 
L 351.054753 414942.840038 
L 352.221673 414942.840038 
L 353.388593 414942.840038 
L 354.555513 414942.840038 
L 355.722433 414942.840038 
L 356.889354 414942.840038 
L 358.056274 414942.840038 
L 359.223194 414942.840038 
L 360.390114 414942.840038 
L 361.557034 414942.840038 
L 362.723954 414942.840038 
L 363.890875 414942.840038 
L 365.057795 414942.840038 
L 366.224715 414942.840038 
L 367.391635 414942.840038 
L 368.558555 414942.840038 
L 369.725475 414942.840038 
L 370.892395 414942.840038 
L 372.059316 414942.840038 
L 373.226236 414942.840038 
L 374.393156 414942.840038 
L 375.560076 414942.840038 
L 376.726996 414942.840038 
L 377.893916 414942.840038 
L 379.060837 414942.840038 
L 380.227757 414942.840038 
L 381.394677 414942.840038 
L 382.561597 414942.840038 
L 383.728517 414942.840038 
L 384.895437 414942.840038 
L 386.062357 414942.840038 
L 387.229278 414942.840038 
L 388.396198 414942.840038 
L 389.563118 414942.840038 
L 390.730038 414942.840038 
L 391.896958 414942.840038 
L 393.063878 414942.840038 
L 394.230798 414942.840038 
L 395.397719 414942.840038 
L 396.564639 414942.840038 
L 397.731559 414942.840038 
L 398.898479 414942.840038 
L 400.065399 414942.840038 
L 401.232319 414942.840038 
L 402.39924 414942.840038 
L 403.56616 414942.840038 
L 404.73308 414942.840038 
L 405.9 414942.840038 
L 407.06692 414942.840038 
L 408.23384 414942.840038 
L 409.40076 414942.840038 
L 410.567681 414942.840038 
L 411.734601 414942.840038 
L 412.901521 414942.840038 
L 414.068441 414942.840038 
L 415.235361 414942.840038 
L 416.402281 414942.840038 
L 417.569202 414942.840038 
L 418.736122 414942.840038 
L 419.903042 414942.840038 
L 421.069962 414942.840038 
L 422.236882 414942.840038 
L 423.403802 414942.840038 
L 424.570722 414942.840038 
L 425.737643 414942.840038 
L 426.904563 414942.840038 
L 428.071483 414942.840038 
L 429.238403 414942.840038 
L 430.405323 414942.840038 
L 431.572243 414942.840038 
L 432.739163 414942.840038 
L 433.906084 414942.840038 
L 435.073004 414942.840038 
L 436.239924 414942.840038 
L 437.406844 414942.840038 
L 438.573764 414942.840038 
L 439.740684 414942.840038 
L 440.907605 414942.840038 
L 442.074525 414942.840038 
L 443.241445 414942.840038 
L 444.408365 414942.840038 
L 445.575285 414942.840038 
L 446.742205 414942.840038 
L 447.909125 414942.840038 
L 449.076046 414942.840038 
L 450.242966 414942.840038 
L 451.409886 414942.840038 
L 452.576806 414942.840038 
L 453.743726 414942.840038 
L 454.910646 414942.840038 
L 456.077567 414942.840038 
L 457.244487 414942.840038 
L 458.411407 414942.840038 
L 459.578327 414942.840038 
L 460.745247 414942.840038 
L 461.912167 414942.840038 
L 463.079087 414942.840038 
L 464.246008 414942.840038 
L 465.412928 414942.840038 
L 466.579848 414942.840038 
L 467.746768 414942.840038 
L 468.913688 414942.840038 
L 470.080608 414942.840038 
L 471.247529 414942.840038 
L 472.414449 414942.840038 
L 473.581369 414942.840038 
L 474.748289 414942.840038 
L 475.915209 414942.840038 
L 477.082129 414942.840038 
L 478.249049 414942.840038 
L 479.41597 414942.840038 
L 480.58289 414942.840038 
L 481.74981 414942.840038 
L 482.91673 414942.840038 
L 484.08365 414942.840038 
L 485.25057 414942.840038 
L 486.41749 414942.840038 
L 487.584411 414942.840038 
L 488.751331 414942.840038 
L 489.918251 414942.840038 
L 491.085171 414942.840038 
L 492.252091 414942.840038 
L 493.419011 414942.840038 
L 494.585932 414942.840038 
L 495.752852 414942.840038 
L 496.919772 414942.840038 
L 498.086692 414942.840038 
L 499.253612 414942.840038 
L 500.420532 414942.840038 
L 501.587452 414942.840038 
L 502.754373 414942.840038 
L 503.921293 414942.840038 
L 505.088213 414942.840038 
L 506.255133 414942.840038 
L 507.422053 414942.840038 
L 508.588973 414942.840038 
L 509.755894 414942.840038 
L 510.922814 414942.840038 
L 512.089734 414942.840038 
L 513.256654 414942.840038 
L 514.423574 414942.840038 
L 515.590494 414942.840038 
L 516.757414 414942.840038 
L 517.924335 414942.840038 
L 519.091255 414942.840038 
L 520.258175 414942.840038 
L 521.425095 414942.840038 
L 522.592015 414942.840038 
L 523.758935 414942.840038 
L 524.925856 414942.840038 
L 526.092776 414942.840038 
L 527.259696 414942.840038 
L 528.426616 414942.840038 
L 529.593536 414942.840038 
L 530.760456 414942.840038 
L 531.927376 414942.840038 
L 533.094297 414942.840038 
L 534.261217 414942.840038 
L 535.428137 414942.840038 
L 536.595057 414942.840038 
L 537.761977 414942.840038 
L 538.928897 414942.840038 
L 540.095817 414942.840038 
L 541.262738 414942.840038 
L 542.429658 414942.840038 
L 543.596578 414942.840038 
L 544.763498 414942.840038 
L 545.930418 414942.840038 
L 547.097338 414942.840038 
L 548.264259 414942.840038 
L 549.431179 414942.840038 
L 550.598099 414942.840038 
L 551.765019 414942.840038 
L 552.931939 414942.840038 
L 554.098859 414942.840038 
L 555.265779 414942.840038 
L 556.4327 414942.840038 
L 557.59962 414942.840038 
L 558.76654 414942.840038 
L 559.93346 414942.840038 
L 561.10038 414942.840038 
L 562.2673 414942.840038 
L 563.434221 414942.840038 
L 564.601141 414942.840038 
L 565.768061 414942.840038 
L 566.934981 414942.840038 
L 568.101901 414942.840038 
L 569.268821 414942.840038 
L 570.435741 414942.840038 
L 571.602662 414942.840038 
L 572.769582 414942.840038 
L 573.936502 414942.840038 
L 575.103422 414942.840038 
L 576.270342 414942.840038 
L 577.437262 414942.840038 
L 578.604183 414942.840038 
L 579.771103 414942.840038 
L 580.938023 414942.840038 
L 582.104943 414942.840038 
L 583.271863 414942.840038 
L 584.438783 414942.840038 
L 585.605703 414942.840038 
L 586.772624 414942.840038 
L 587.939544 414942.840038 
L 589.106464 414942.840038 
L 590.273384 414942.840038 
L 591.440304 414942.840038 
L 592.607224 414942.840038 
L 593.774144 414942.840038 
L 594.941065 414942.840038 
L 596.107985 414942.840038 
L 597.274905 414942.840038 
L 598.441825 414942.840038 
L 599.608745 414942.840038 
L 600.775665 414942.840038 
L 601.942586 414942.840038 
L 603.109506 414942.840038 
L 604.276426 414942.840038 
L 605.443346 414942.840038 
L 606.610266 414942.840038 
L 607.777186 414942.840038 
L 608.944106 414942.840038 
L 610.111027 414942.840038 
L 611.277947 414942.840038 
L 612.444867 414942.840038 
L 613.611787 414942.840038 
L 614.778707 414942.840038 
L 615.945627 414942.840038 
L 617.112548 414942.840038 
L 618.279468 414942.840038 
L 619.446388 414942.840038 
L 620.613308 414942.840038 
L 621.780228 414942.840038 
L 622.947148 414942.840038 
L 624.114068 414942.840038 
L 625.280989 414942.840038 
L 626.447909 414942.840038 
L 627.614829 414942.840038 
L 628.781749 414942.840038 
L 629.948669 414942.840038 
L 631.115589 414942.840038 
L 632.28251 414942.840038 
L 633.44943 414942.840038 
L 634.61635 414942.840038 
L 635.78327 414942.840038 
L 636.95019 414942.840038 
L 638.11711 414942.840038 
L 639.28403 414942.840038 
L 640.450951 414942.840038 
L 641.617871 414942.840038 
L 642.784791 414942.840038 
L 643.951711 414942.840038 
L 645.118631 414942.840038 
L 646.285551 414942.840038 
L 647.452471 414942.840038 
L 648.619392 414942.840038 
L 649.786312 414942.840038 
L 650.953232 414942.840038 
L 652.120152 414942.840038 
L 653.287072 414942.840038 
L 654.453992 414942.840038 
L 655.620913 414942.840038 
L 656.787833 414942.840038 
L 657.954753 414942.840038 
L 659.121673 414942.840038 
L 660.288593 414942.840038 
L 661.455513 414942.840038 
L 662.622433 414942.840038 
L 663.789354 414942.840038 
L 664.956274 414942.840038 
L 666.123194 414942.840038 
L 667.290114 414942.840038 
L 668.457034 414942.840038 
L 669.623954 414942.840038 
L 670.790875 414942.840038 
L 671.957795 414942.840038 
L 673.124715 414942.840038 
L 674.291635 414942.840038 
L 675.458555 414942.840038 
L 676.625475 414942.840038 
L 677.792395 414942.840038 
L 678.959316 414942.840038 
L 680.126236 414942.840038 
L 681.293156 414942.840038 
L 682.460076 414942.840038 
L 683.626996 414942.840038 
L 684.793916 414942.840038 
L 685.960837 414942.840038 
L 687.127757 414942.840038 
L 688.294677 414942.840038 
L 689.461597 414942.840038 
L 690.628517 414942.840038 
L 691.795437 414942.840038 
L 692.962357 414942.840038 
L 694.129278 414942.840038 
L 695.296198 414942.840038 
L 696.463118 414942.840038 
L 697.630038 414942.840038 
L 698.796958 414942.840038 
L 699.963878 414942.840038 
L 701.130798 414942.840038 
L 702.297719 414942.840038 
L 703.464639 414942.840038 
L 704.631559 414942.840038 
L 705.798479 414942.840038 
L 706.965399 414942.840038 
L 708.132319 414942.840038 
L 709.29924 414942.840038 
L 710.46616 414942.840038 
L 711.63308 414942.840038 
L 712.8 414942.840038 
L 712.8 414942.840038 
L 712.8 414942.840038 
L 711.63308 414942.840038 
L 710.46616 414942.840038 
L 709.29924 414942.840038 
L 708.132319 414942.840038 
L 706.965399 414942.840038 
L 705.798479 414942.840038 
L 704.631559 414942.840038 
L 703.464639 414942.840038 
L 702.297719 414942.840038 
L 701.130798 414942.840038 
L 699.963878 414942.840038 
L 698.796958 414942.840038 
L 697.630038 414942.840038 
L 696.463118 414942.840038 
L 695.296198 414942.840038 
L 694.129278 414942.840038 
L 692.962357 414942.840038 
L 691.795437 414942.840038 
L 690.628517 414942.840038 
L 689.461597 414942.840038 
L 688.294677 414942.840038 
L 687.127757 414942.840038 
L 685.960837 414942.840038 
L 684.793916 414942.840038 
L 683.626996 414942.840038 
L 682.460076 414942.840038 
L 681.293156 414942.840038 
L 680.126236 414942.840038 
L 678.959316 414942.840038 
L 677.792395 414942.840038 
L 676.625475 414942.840038 
L 675.458555 414942.840038 
L 674.291635 414942.840038 
L 673.124715 414942.840038 
L 671.957795 414942.840038 
L 670.790875 414942.840038 
L 669.623954 414942.840038 
L 668.457034 414942.840038 
L 667.290114 414942.840038 
L 666.123194 414942.840038 
L 664.956274 414942.840038 
L 663.789354 414942.840038 
L 662.622433 414942.840038 
L 661.455513 414942.840038 
L 660.288593 414942.840038 
L 659.121673 414942.840038 
L 657.954753 414942.840038 
L 656.787833 414942.840038 
L 655.620913 414942.840038 
L 654.453992 414942.840038 
L 653.287072 414942.840038 
L 652.120152 414942.840038 
L 650.953232 414942.840038 
L 649.786312 414942.840038 
L 648.619392 414942.840038 
L 647.452471 414942.840038 
L 646.285551 414942.840038 
L 645.118631 414942.840038 
L 643.951711 414942.840038 
L 642.784791 414942.840038 
L 641.617871 414942.840038 
L 640.450951 414942.840038 
L 639.28403 414942.840038 
L 638.11711 414942.840038 
L 636.95019 414942.840038 
L 635.78327 414942.840038 
L 634.61635 414942.840038 
L 633.44943 414942.840038 
L 632.28251 414942.840038 
L 631.115589 414942.840038 
L 629.948669 414942.840038 
L 628.781749 414942.840038 
L 627.614829 414942.840038 
L 626.447909 414942.840038 
L 625.280989 414942.840038 
L 624.114068 414942.840038 
L 622.947148 414942.840038 
L 621.780228 414942.840038 
L 620.613308 414942.840038 
L 619.446388 414942.840038 
L 618.279468 414942.840038 
L 617.112548 414942.840038 
L 615.945627 414942.840038 
L 614.778707 414942.840038 
L 613.611787 414942.840038 
L 612.444867 414942.840038 
L 611.277947 414942.840038 
L 610.111027 414942.840038 
L 608.944106 414942.840038 
L 607.777186 414942.840038 
L 606.610266 414942.840038 
L 605.443346 414942.840038 
L 604.276426 414942.840038 
L 603.109506 414942.840038 
L 601.942586 414942.840038 
L 600.775665 414942.840038 
L 599.608745 414942.840038 
L 598.441825 414942.840038 
L 597.274905 414942.840038 
L 596.107985 414942.840038 
L 594.941065 414942.840038 
L 593.774144 414942.840038 
L 592.607224 414942.840038 
L 591.440304 414942.840038 
L 590.273384 414942.840038 
L 589.106464 414942.840038 
L 587.939544 414942.840038 
L 586.772624 414942.840038 
L 585.605703 414942.840038 
L 584.438783 414942.840038 
L 583.271863 414942.840038 
L 582.104943 414942.840038 
L 580.938023 414942.840038 
L 579.771103 414942.840038 
L 578.604183 414942.840038 
L 577.437262 414942.840038 
L 576.270342 414942.840038 
L 575.103422 414942.840038 
L 573.936502 414942.840038 
L 572.769582 414942.840038 
L 571.602662 414942.840038 
L 570.435741 414942.840038 
L 569.268821 414942.840038 
L 568.101901 414942.840038 
L 566.934981 414942.840038 
L 565.768061 414942.840038 
L 564.601141 414942.840038 
L 563.434221 414942.840038 
L 562.2673 414942.840038 
L 561.10038 414942.840038 
L 559.93346 414942.840038 
L 558.76654 414942.840038 
L 557.59962 414942.840038 
L 556.4327 414942.840038 
L 555.265779 414942.840038 
L 554.098859 414942.840038 
L 552.931939 414942.840038 
L 551.765019 414942.840038 
L 550.598099 414942.840038 
L 549.431179 414942.840038 
L 548.264259 414942.840038 
L 547.097338 414942.840038 
L 545.930418 414942.840038 
L 544.763498 414942.840038 
L 543.596578 414942.840038 
L 542.429658 414942.840038 
L 541.262738 414942.840038 
L 540.095817 414942.840038 
L 538.928897 414942.840038 
L 537.761977 414942.840038 
L 536.595057 414942.840038 
L 535.428137 414942.840038 
L 534.261217 414942.840038 
L 533.094297 414942.840038 
L 531.927376 414942.840038 
L 530.760456 414942.840038 
L 529.593536 414942.840038 
L 528.426616 414942.840038 
L 527.259696 414942.840038 
L 526.092776 414942.840038 
L 524.925856 414942.840038 
L 523.758935 414942.840038 
L 522.592015 414942.840038 
L 521.425095 414942.840038 
L 520.258175 414942.840038 
L 519.091255 414942.840038 
L 517.924335 414942.840038 
L 516.757414 414942.840038 
L 515.590494 414942.840038 
L 514.423574 414942.840038 
L 513.256654 414942.840038 
L 512.089734 414942.840038 
L 510.922814 414942.840038 
L 509.755894 414942.840038 
L 508.588973 414942.840038 
L 507.422053 414942.840038 
L 506.255133 414942.840038 
L 505.088213 414942.840038 
L 503.921293 414942.840038 
L 502.754373 414942.840038 
L 501.587452 414942.840038 
L 500.420532 414942.840038 
L 499.253612 414942.840038 
L 498.086692 414942.840038 
L 496.919772 414942.840038 
L 495.752852 414942.840038 
L 494.585932 414942.840038 
L 493.419011 414942.840038 
L 492.252091 414942.840038 
L 491.085171 414942.840038 
L 489.918251 414942.840038 
L 488.751331 414942.840038 
L 487.584411 414942.840038 
L 486.41749 414942.840038 
L 485.25057 414942.840038 
L 484.08365 414942.840038 
L 482.91673 414942.840038 
L 481.74981 414942.840038 
L 480.58289 414942.840038 
L 479.41597 414942.840038 
L 478.249049 414942.840038 
L 477.082129 414942.840038 
L 475.915209 414942.840038 
L 474.748289 414942.840038 
L 473.581369 414942.840038 
L 472.414449 414942.840038 
L 471.247529 414942.840038 
L 470.080608 414942.840038 
L 468.913688 414942.840038 
L 467.746768 414942.840038 
L 466.579848 414942.840038 
L 465.412928 414942.840038 
L 464.246008 414942.840038 
L 463.079087 414942.840038 
L 461.912167 414942.840038 
L 460.745247 414942.840038 
L 459.578327 414942.840038 
L 458.411407 414942.840038 
L 457.244487 414942.840038 
L 456.077567 414942.840038 
L 454.910646 414942.840038 
L 453.743726 414942.840038 
L 452.576806 414942.840038 
L 451.409886 414942.840038 
L 450.242966 414942.840038 
L 449.076046 414942.840038 
L 447.909125 414942.840038 
L 446.742205 414942.840038 
L 445.575285 414942.840038 
L 444.408365 414942.840038 
L 443.241445 414942.840038 
L 442.074525 414942.840038 
L 440.907605 414942.840038 
L 439.740684 414942.840038 
L 438.573764 414942.840038 
L 437.406844 414942.840038 
L 436.239924 414942.840038 
L 435.073004 414942.840038 
L 433.906084 414942.840038 
L 432.739163 414942.840038 
L 431.572243 414942.840038 
L 430.405323 414942.840038 
L 429.238403 414942.840038 
L 428.071483 414942.840038 
L 426.904563 414942.840038 
L 425.737643 414942.840038 
L 424.570722 414942.840038 
L 423.403802 414942.840038 
L 422.236882 414942.840038 
L 421.069962 414942.840038 
L 419.903042 414942.840038 
L 418.736122 414942.840038 
L 417.569202 414942.840038 
L 416.402281 414942.840038 
L 415.235361 414942.840038 
L 414.068441 414942.840038 
L 412.901521 414942.840038 
L 411.734601 414942.840038 
L 410.567681 414942.840038 
L 409.40076 414942.840038 
L 408.23384 414942.840038 
L 407.06692 414942.840038 
L 405.9 414942.840038 
L 404.73308 414942.840038 
L 403.56616 414942.840038 
L 402.39924 414942.840038 
L 401.232319 414942.840038 
L 400.065399 414942.840038 
L 398.898479 414942.840038 
L 397.731559 414942.840038 
L 396.564639 414942.840038 
L 395.397719 414942.840038 
L 394.230798 414942.840038 
L 393.063878 414942.840038 
L 391.896958 414942.840038 
L 390.730038 414942.840038 
L 389.563118 414942.840038 
L 388.396198 414942.840038 
L 387.229278 414942.840038 
L 386.062357 414942.840038 
L 384.895437 414942.840038 
L 383.728517 414942.840038 
L 382.561597 414942.840038 
L 381.394677 414942.840038 
L 380.227757 414942.840038 
L 379.060837 414942.840038 
L 377.893916 414942.840038 
L 376.726996 414942.840038 
L 375.560076 414942.840038 
L 374.393156 414942.840038 
L 373.226236 414942.840038 
L 372.059316 414942.840038 
L 370.892395 414942.840038 
L 369.725475 414942.840038 
L 368.558555 414942.840038 
L 367.391635 414942.840038 
L 366.224715 414942.840038 
L 365.057795 414942.840038 
L 363.890875 414942.840038 
L 362.723954 414942.840038 
L 361.557034 414942.840038 
L 360.390114 414942.840038 
L 359.223194 414942.840038 
L 358.056274 414942.840038 
L 356.889354 414942.840038 
L 355.722433 414942.840038 
L 354.555513 414942.840038 
L 353.388593 414942.840038 
L 352.221673 414942.840038 
L 351.054753 414942.840038 
L 349.887833 414942.840038 
L 348.720913 414942.840038 
L 347.553992 414942.840038 
L 346.387072 414942.840038 
L 345.220152 414942.840038 
L 344.053232 414942.840038 
L 342.886312 414942.840038 
L 341.719392 414942.840038 
L 340.552471 414942.840038 
L 339.385551 414942.840038 
L 338.218631 414942.840038 
L 337.051711 414942.840038 
L 335.884791 414942.840038 
L 334.717871 414942.840038 
L 333.550951 414942.840038 
L 332.38403 414942.840038 
L 331.21711 414942.840038 
L 330.05019 414942.840038 
L 328.88327 414942.840038 
L 327.71635 414942.840038 
L 326.54943 414942.840038 
L 325.38251 414942.840038 
L 324.215589 414942.840038 
L 323.048669 414942.840038 
L 321.881749 414942.840038 
L 320.714829 414942.840038 
L 319.547909 414942.840038 
L 318.380989 414942.840038 
L 317.214068 414942.840038 
L 316.047148 414942.840038 
L 314.880228 414942.840038 
L 313.713308 414942.840038 
L 312.546388 414942.840038 
L 311.379468 414942.840038 
L 310.212548 414942.840038 
L 309.045627 414942.840038 
L 307.878707 414942.840038 
L 306.711787 414942.840038 
L 305.544867 414942.840038 
L 304.377947 414942.840038 
L 303.211027 414942.840038 
L 302.044106 414942.840038 
L 300.877186 414942.840038 
L 299.710266 414942.840038 
L 298.543346 414942.840038 
L 297.376426 414942.840038 
L 296.209506 414942.840038 
L 295.042586 414942.840038 
L 293.875665 414942.840038 
L 292.708745 414942.840038 
L 291.541825 414942.840038 
L 290.374905 414942.840038 
L 289.207985 414942.840038 
L 288.041065 414942.840038 
L 286.874144 414942.840038 
L 285.707224 414942.840038 
L 284.540304 414942.840038 
L 283.373384 414942.840038 
L 282.206464 414942.840038 
L 281.039544 414942.840038 
L 279.872624 414942.840038 
L 278.705703 414942.840038 
L 277.538783 414942.840038 
L 276.371863 414942.840038 
L 275.204943 414942.840038 
L 274.038023 414942.840038 
L 272.871103 414942.840038 
L 271.704183 414942.840038 
L 270.537262 414942.840038 
L 269.370342 414942.840038 
L 268.203422 414942.840038 
L 267.036502 414942.840038 
L 265.869582 414942.840038 
L 264.702662 414942.840038 
L 263.535741 414942.840038 
L 262.368821 414942.840038 
L 261.201901 414942.840038 
L 260.034981 414942.840038 
L 258.868061 414942.840038 
L 257.701141 414942.840038 
L 256.534221 414942.840038 
L 255.3673 414942.840038 
L 254.20038 414942.840038 
L 253.03346 414942.840038 
L 251.86654 414942.840038 
L 250.69962 414942.840038 
L 249.5327 414942.840038 
L 248.365779 414942.840038 
L 247.198859 414942.840038 
L 246.031939 414942.840038 
L 244.865019 414942.840038 
L 243.698099 414942.840038 
L 242.531179 414942.840038 
L 241.364259 414942.840038 
L 240.197338 414942.840038 
L 239.030418 414942.840038 
L 237.863498 414942.840038 
L 236.696578 414942.840038 
L 235.529658 414942.840038 
L 234.362738 414942.840038 
L 233.195817 414942.840038 
L 232.028897 414942.840038 
L 230.861977 414942.840038 
L 229.695057 414942.840038 
L 228.528137 414942.840038 
L 227.361217 414942.840038 
L 226.194297 414942.840038 
L 225.027376 414942.840038 
L 223.860456 414942.840038 
L 222.693536 414942.840038 
L 221.526616 414942.840038 
L 220.359696 414942.840038 
L 219.192776 414942.840038 
L 218.025856 414942.840038 
L 216.858935 414942.840038 
L 215.692015 414942.840038 
L 214.525095 414942.840038 
L 213.358175 414942.840038 
L 212.191255 414942.840038 
L 211.024335 414942.840038 
L 209.857414 414942.840038 
L 208.690494 414942.840038 
L 207.523574 414942.840038 
L 206.356654 414942.840038 
L 205.189734 414942.840038 
L 204.022814 414942.840038 
L 202.855894 414942.840038 
L 201.688973 414942.840038 
L 200.522053 414942.840038 
L 199.355133 414942.840038 
L 198.188213 414942.840038 
L 197.021293 414942.840038 
L 195.854373 414942.840038 
L 194.687452 414942.840038 
L 193.520532 414942.840038 
L 192.353612 414942.840038 
L 191.186692 414942.840038 
L 190.019772 414942.840038 
L 188.852852 414942.840038 
L 187.685932 414942.840038 
L 186.519011 414942.840038 
L 185.352091 414942.840038 
L 184.185171 414942.840038 
L 183.018251 414942.840038 
L 181.851331 414942.840038 
L 180.684411 414942.840038 
L 179.51749 414942.840038 
L 178.35057 414942.840038 
L 177.18365 414942.840038 
L 176.01673 414942.840038 
L 174.84981 414942.840038 
L 173.68289 414942.840038 
L 172.51597 414942.840038 
L 171.349049 414942.840038 
L 170.182129 414942.840038 
L 169.015209 414942.840038 
L 167.848289 414942.840038 
L 166.681369 414942.840038 
L 165.514449 414942.840038 
L 164.347529 414942.840038 
L 163.180608 414942.840038 
L 162.013688 414942.840038 
L 160.846768 414942.840038 
L 159.679848 414942.840038 
L 158.512928 414942.840038 
L 157.346008 414942.840038 
L 156.179087 414942.840038 
L 155.012167 414942.840038 
L 153.845247 414942.840038 
L 152.678327 414942.840038 
L 151.511407 414942.840038 
L 150.344487 414942.840038 
L 149.177567 414942.840038 
L 148.010646 414942.840038 
L 146.843726 414942.840038 
L 145.676806 414942.840038 
L 144.509886 414942.840038 
L 143.342966 414942.840038 
L 142.176046 414942.840038 
L 141.009125 414942.840038 
L 139.842205 414942.840038 
L 138.675285 414942.840038 
L 137.508365 414942.840038 
L 136.341445 414942.840038 
L 135.174525 414942.840038 
L 134.007605 414942.840038 
L 132.840684 414942.840038 
L 131.673764 414942.840038 
L 130.506844 414942.840038 
L 129.339924 414942.840038 
L 128.173004 414942.840038 
L 127.006084 414942.840038 
L 125.839163 414942.840038 
L 124.672243 414942.840038 
L 123.505323 414942.840038 
L 122.338403 414942.840038 
L 121.171483 414942.840038 
L 120.004563 414942.840038 
L 118.837643 414942.840038 
L 117.670722 414942.840038 
L 116.503802 414942.840038 
L 115.336882 414942.840038 
L 114.169962 414942.840038 
L 113.003042 414942.840038 
L 111.836122 414942.840038 
L 110.669202 414942.840038 
L 109.502281 414942.840038 
L 108.335361 414942.840038 
L 107.168441 414942.840038 
L 106.001521 414942.840038 
L 104.834601 414942.840038 
L 103.667681 414942.840038 
L 102.50076 414942.840038 
L 101.33384 414942.840038 
L 100.16692 414942.840038 
L 99 414942.840038 
z
" style="fill:#ff8080;fill-opacity:0.5;stroke:#ff8080;stroke-opacity:0.5;"/>
   </g>
   <g id="matplotlib.axis_1">
    <g id="xtick_1">
     <g id="line2d_1">
      <path clip-path="url(#p68e2955192)" d="M 99 544.68 
L 99 73.44 
" style="fill:none;stroke:#b0b0b0;stroke-linecap:square;stroke-width:0.8;"/>
     </g>
     <g id="line2d_2">
      <defs>
       <path d="M 0 0 
L 0 3.5 
" id="m4abed1d830" style="stroke:#000000;stroke-width:0.8;"/>
      </defs>
      <g>
       <use style="stroke:#000000;stroke-width:0.8;" x="99" xlink:href="#m4abed1d830" y="544.68"/>
      </g>
     </g>
    </g>
    <g id="xtick_2">
     <g id="line2d_3">
      <path clip-path="url(#p68e2955192)" d="M 103.667681 544.68 
L 103.667681 73.44 
" style="fill:none;stroke:#b0b0b0;stroke-linecap:square;stroke-width:0.8;"/>
     </g>
     <g id="line2d_4">
      <g>
       <use style="stroke:#000000;stroke-width:0.8;" x="103.667681" xlink:href="#m4abed1d830" y="544.68"/>
      </g>
     </g>
     <g id="text_1">
      <!-- Apr -->
      <g transform="translate(95.017681 559.278437)scale(0.1 -0.1)">
       <defs>
        <path d="M 2188 4044 
L 1331 1722 
L 3047 1722 
L 2188 4044 
z
M 1831 4666 
L 2547 4666 
L 4325 0 
L 3669 0 
L 3244 1197 
L 1141 1197 
L 716 0 
L 50 0 
L 1831 4666 
z
" id="DejaVuSans-41" transform="scale(0.015625)"/>
        <path d="M 1159 525 
L 1159 -1331 
L 581 -1331 
L 581 3500 
L 1159 3500 
L 1159 2969 
Q 1341 3281 1617 3432 
Q 1894 3584 2278 3584 
Q 2916 3584 3314 3078 
Q 3713 2572 3713 1747 
Q 3713 922 3314 415 
Q 2916 -91 2278 -91 
Q 1894 -91 1617 61 
Q 1341 213 1159 525 
z
M 3116 1747 
Q 3116 2381 2855 2742 
Q 2594 3103 2138 3103 
Q 1681 3103 1420 2742 
Q 1159 2381 1159 1747 
Q 1159 1113 1420 752 
Q 1681 391 2138 391 
Q 2594 391 2855 752 
Q 3116 1113 3116 1747 
z
" id="DejaVuSans-70" transform="scale(0.015625)"/>
        <path d="M 2631 2963 
Q 2534 3019 2420 3045 
Q 2306 3072 2169 3072 
Q 1681 3072 1420 2755 
Q 1159 2438 1159 1844 
L 1159 0 
L 581 0 
L 581 3500 
L 1159 3500 
L 1159 2956 
Q 1341 3275 1631 3429 
Q 1922 3584 2338 3584 
Q 2397 3584 2469 3576 
Q 2541 3569 2628 3553 
L 2631 2963 
z
" id="DejaVuSans-72" transform="scale(0.015625)"/>
       </defs>
       <use xlink:href="#DejaVuSans-41"/>
       <use x="68.408203" xlink:href="#DejaVuSans-70"/>
       <use x="131.884766" xlink:href="#DejaVuSans-72"/>
      </g>
     </g>
    </g>
    <g id="xtick_3">
     <g id="line2d_5">
      <path clip-path="url(#p68e2955192)" d="M 209.857414 544.68 
L 209.857414 73.44 
" style="fill:none;stroke:#b0b0b0;stroke-linecap:square;stroke-width:0.8;"/>
     </g>
     <g id="line2d_6">
      <g>
       <use style="stroke:#000000;stroke-width:0.8;" x="209.857414" xlink:href="#m4abed1d830" y="544.68"/>
      </g>
     </g>
     <g id="text_2">
      <!-- Jul -->
      <g transform="translate(203.824602 559.278437)scale(0.1 -0.1)">
       <defs>
        <path d="M 628 4666 
L 1259 4666 
L 1259 325 
Q 1259 -519 939 -900 
Q 619 -1281 -91 -1281 
L -331 -1281 
L -331 -750 
L -134 -750 
Q 284 -750 456 -515 
Q 628 -281 628 325 
L 628 4666 
z
" id="DejaVuSans-4a" transform="scale(0.015625)"/>
        <path d="M 544 1381 
L 544 3500 
L 1119 3500 
L 1119 1403 
Q 1119 906 1312 657 
Q 1506 409 1894 409 
Q 2359 409 2629 706 
Q 2900 1003 2900 1516 
L 2900 3500 
L 3475 3500 
L 3475 0 
L 2900 0 
L 2900 538 
Q 2691 219 2414 64 
Q 2138 -91 1772 -91 
Q 1169 -91 856 284 
Q 544 659 544 1381 
z
M 1991 3584 
L 1991 3584 
z
" id="DejaVuSans-75" transform="scale(0.015625)"/>
        <path d="M 603 4863 
L 1178 4863 
L 1178 0 
L 603 0 
L 603 4863 
z
" id="DejaVuSans-6c" transform="scale(0.015625)"/>
       </defs>
       <use xlink:href="#DejaVuSans-4a"/>
       <use x="29.492188" xlink:href="#DejaVuSans-75"/>
       <use x="92.871094" xlink:href="#DejaVuSans-6c"/>
      </g>
     </g>
    </g>
    <g id="xtick_4">
     <g id="line2d_7">
      <path clip-path="url(#p68e2955192)" d="M 317.214068 544.68 
L 317.214068 73.44 
" style="fill:none;stroke:#b0b0b0;stroke-linecap:square;stroke-width:0.8;"/>
     </g>
     <g id="line2d_8">
      <g>
       <use style="stroke:#000000;stroke-width:0.8;" x="317.214068" xlink:href="#m4abed1d830" y="544.68"/>
      </g>
     </g>
     <g id="text_3">
      <!-- Oct -->
      <g transform="translate(308.568756 559.278437)scale(0.1 -0.1)">
       <defs>
        <path d="M 2522 4238 
Q 1834 4238 1429 3725 
Q 1025 3213 1025 2328 
Q 1025 1447 1429 934 
Q 1834 422 2522 422 
Q 3209 422 3611 934 
Q 4013 1447 4013 2328 
Q 4013 3213 3611 3725 
Q 3209 4238 2522 4238 
z
M 2522 4750 
Q 3503 4750 4090 4092 
Q 4678 3434 4678 2328 
Q 4678 1225 4090 567 
Q 3503 -91 2522 -91 
Q 1538 -91 948 565 
Q 359 1222 359 2328 
Q 359 3434 948 4092 
Q 1538 4750 2522 4750 
z
" id="DejaVuSans-4f" transform="scale(0.015625)"/>
        <path d="M 3122 3366 
L 3122 2828 
Q 2878 2963 2633 3030 
Q 2388 3097 2138 3097 
Q 1578 3097 1268 2742 
Q 959 2388 959 1747 
Q 959 1106 1268 751 
Q 1578 397 2138 397 
Q 2388 397 2633 464 
Q 2878 531 3122 666 
L 3122 134 
Q 2881 22 2623 -34 
Q 2366 -91 2075 -91 
Q 1284 -91 818 406 
Q 353 903 353 1747 
Q 353 2603 823 3093 
Q 1294 3584 2113 3584 
Q 2378 3584 2631 3529 
Q 2884 3475 3122 3366 
z
" id="DejaVuSans-63" transform="scale(0.015625)"/>
        <path d="M 1172 4494 
L 1172 3500 
L 2356 3500 
L 2356 3053 
L 1172 3053 
L 1172 1153 
Q 1172 725 1289 603 
Q 1406 481 1766 481 
L 2356 481 
L 2356 0 
L 1766 0 
Q 1100 0 847 248 
Q 594 497 594 1153 
L 594 3053 
L 172 3053 
L 172 3500 
L 594 3500 
L 594 4494 
L 1172 4494 
z
" id="DejaVuSans-74" transform="scale(0.015625)"/>
       </defs>
       <use xlink:href="#DejaVuSans-4f"/>
       <use x="78.710938" xlink:href="#DejaVuSans-63"/>
       <use x="133.691406" xlink:href="#DejaVuSans-74"/>
      </g>
     </g>
    </g>
    <g id="xtick_5">
     <g id="line2d_9">
      <path clip-path="url(#p68e2955192)" d="M 424.570722 544.68 
L 424.570722 73.44 
" style="fill:none;stroke:#b0b0b0;stroke-linecap:square;stroke-width:0.8;"/>
     </g>
     <g id="line2d_10">
      <g>
       <use style="stroke:#000000;stroke-width:0.8;" x="424.570722" xlink:href="#m4abed1d830" y="544.68"/>
      </g>
     </g>
     <g id="text_4">
      <!-- Jan -->
      <g transform="translate(416.86291 559.278437)scale(0.1 -0.1)">
       <defs>
        <path d="M 2194 1759 
Q 1497 1759 1228 1600 
Q 959 1441 959 1056 
Q 959 750 1161 570 
Q 1363 391 1709 391 
Q 2188 391 2477 730 
Q 2766 1069 2766 1631 
L 2766 1759 
L 2194 1759 
z
M 3341 1997 
L 3341 0 
L 2766 0 
L 2766 531 
Q 2569 213 2275 61 
Q 1981 -91 1556 -91 
Q 1019 -91 701 211 
Q 384 513 384 1019 
Q 384 1609 779 1909 
Q 1175 2209 1959 2209 
L 2766 2209 
L 2766 2266 
Q 2766 2663 2505 2880 
Q 2244 3097 1772 3097 
Q 1472 3097 1187 3025 
Q 903 2953 641 2809 
L 641 3341 
Q 956 3463 1253 3523 
Q 1550 3584 1831 3584 
Q 2591 3584 2966 3190 
Q 3341 2797 3341 1997 
z
" id="DejaVuSans-61" transform="scale(0.015625)"/>
        <path d="M 3513 2113 
L 3513 0 
L 2938 0 
L 2938 2094 
Q 2938 2591 2744 2837 
Q 2550 3084 2163 3084 
Q 1697 3084 1428 2787 
Q 1159 2491 1159 1978 
L 1159 0 
L 581 0 
L 581 3500 
L 1159 3500 
L 1159 2956 
Q 1366 3272 1645 3428 
Q 1925 3584 2291 3584 
Q 2894 3584 3203 3211 
Q 3513 2838 3513 2113 
z
" id="DejaVuSans-6e" transform="scale(0.015625)"/>
       </defs>
       <use xlink:href="#DejaVuSans-4a"/>
       <use x="29.492188" xlink:href="#DejaVuSans-61"/>
       <use x="90.771484" xlink:href="#DejaVuSans-6e"/>
      </g>
      <!-- 2021 -->
      <g transform="translate(411.845722 570.47625)scale(0.1 -0.1)">
       <defs>
        <path d="M 1228 531 
L 3431 531 
L 3431 0 
L 469 0 
L 469 531 
Q 828 903 1448 1529 
Q 2069 2156 2228 2338 
Q 2531 2678 2651 2914 
Q 2772 3150 2772 3378 
Q 2772 3750 2511 3984 
Q 2250 4219 1831 4219 
Q 1534 4219 1204 4116 
Q 875 4013 500 3803 
L 500 4441 
Q 881 4594 1212 4672 
Q 1544 4750 1819 4750 
Q 2544 4750 2975 4387 
Q 3406 4025 3406 3419 
Q 3406 3131 3298 2873 
Q 3191 2616 2906 2266 
Q 2828 2175 2409 1742 
Q 1991 1309 1228 531 
z
" id="DejaVuSans-32" transform="scale(0.015625)"/>
        <path d="M 2034 4250 
Q 1547 4250 1301 3770 
Q 1056 3291 1056 2328 
Q 1056 1369 1301 889 
Q 1547 409 2034 409 
Q 2525 409 2770 889 
Q 3016 1369 3016 2328 
Q 3016 3291 2770 3770 
Q 2525 4250 2034 4250 
z
M 2034 4750 
Q 2819 4750 3233 4129 
Q 3647 3509 3647 2328 
Q 3647 1150 3233 529 
Q 2819 -91 2034 -91 
Q 1250 -91 836 529 
Q 422 1150 422 2328 
Q 422 3509 836 4129 
Q 1250 4750 2034 4750 
z
" id="DejaVuSans-30" transform="scale(0.015625)"/>
        <path d="M 794 531 
L 1825 531 
L 1825 4091 
L 703 3866 
L 703 4441 
L 1819 4666 
L 2450 4666 
L 2450 531 
L 3481 531 
L 3481 0 
L 794 0 
L 794 531 
z
" id="DejaVuSans-31" transform="scale(0.015625)"/>
       </defs>
       <use xlink:href="#DejaVuSans-32"/>
       <use x="63.623047" xlink:href="#DejaVuSans-30"/>
       <use x="127.246094" xlink:href="#DejaVuSans-32"/>
       <use x="190.869141" xlink:href="#DejaVuSans-31"/>
      </g>
     </g>
    </g>
    <g id="xtick_6">
     <g id="line2d_11">
      <path clip-path="url(#p68e2955192)" d="M 529.593536 544.68 
L 529.593536 73.44 
" style="fill:none;stroke:#b0b0b0;stroke-linecap:square;stroke-width:0.8;"/>
     </g>
     <g id="line2d_12">
      <g>
       <use style="stroke:#000000;stroke-width:0.8;" x="529.593536" xlink:href="#m4abed1d830" y="544.68"/>
      </g>
     </g>
     <g id="text_5">
      <!-- Apr -->
      <g transform="translate(520.943536 559.278437)scale(0.1 -0.1)">
       <use xlink:href="#DejaVuSans-41"/>
       <use x="68.408203" xlink:href="#DejaVuSans-70"/>
       <use x="131.884766" xlink:href="#DejaVuSans-72"/>
      </g>
     </g>
    </g>
    <g id="xtick_7">
     <g id="line2d_13">
      <path clip-path="url(#p68e2955192)" d="M 635.78327 544.68 
L 635.78327 73.44 
" style="fill:none;stroke:#b0b0b0;stroke-linecap:square;stroke-width:0.8;"/>
     </g>
     <g id="line2d_14">
      <g>
       <use style="stroke:#000000;stroke-width:0.8;" x="635.78327" xlink:href="#m4abed1d830" y="544.68"/>
      </g>
     </g>
     <g id="text_6">
      <!-- Jul -->
      <g transform="translate(629.750457 559.278437)scale(0.1 -0.1)">
       <use xlink:href="#DejaVuSans-4a"/>
       <use x="29.492188" xlink:href="#DejaVuSans-75"/>
       <use x="92.871094" xlink:href="#DejaVuSans-6c"/>
      </g>
     </g>
    </g>
    <g id="xtick_8">
     <g id="line2d_15">
      <path clip-path="url(#p68e2955192)" d="M 712.8 544.68 
L 712.8 73.44 
" style="fill:none;stroke:#b0b0b0;stroke-linecap:square;stroke-width:0.8;"/>
     </g>
     <g id="line2d_16">
      <g>
       <use style="stroke:#000000;stroke-width:0.8;" x="712.8" xlink:href="#m4abed1d830" y="544.68"/>
      </g>
     </g>
    </g>
    <g id="xtick_9">
     <g id="line2d_17">
      <defs>
       <path d="M 0 0 
L 0 2 
" id="mbe9820739d" style="stroke:#000000;stroke-width:0.6;"/>
      </defs>
      <g>
       <use style="stroke:#000000;stroke-width:0.6;" x="138.675285" xlink:href="#mbe9820739d" y="544.68"/>
      </g>
     </g>
    </g>
    <g id="xtick_10">
     <g id="line2d_18">
      <g>
       <use style="stroke:#000000;stroke-width:0.6;" x="174.84981" xlink:href="#mbe9820739d" y="544.68"/>
      </g>
     </g>
    </g>
    <g id="xtick_11">
     <g id="line2d_19">
      <g>
       <use style="stroke:#000000;stroke-width:0.6;" x="246.031939" xlink:href="#mbe9820739d" y="544.68"/>
      </g>
     </g>
    </g>
    <g id="xtick_12">
     <g id="line2d_20">
      <g>
       <use style="stroke:#000000;stroke-width:0.6;" x="282.206464" xlink:href="#mbe9820739d" y="544.68"/>
      </g>
     </g>
    </g>
    <g id="xtick_13">
     <g id="line2d_21">
      <g>
       <use style="stroke:#000000;stroke-width:0.6;" x="353.388593" xlink:href="#mbe9820739d" y="544.68"/>
      </g>
     </g>
    </g>
    <g id="xtick_14">
     <g id="line2d_22">
      <g>
       <use style="stroke:#000000;stroke-width:0.6;" x="388.396198" xlink:href="#mbe9820739d" y="544.68"/>
      </g>
     </g>
    </g>
    <g id="xtick_15">
     <g id="line2d_23">
      <g>
       <use style="stroke:#000000;stroke-width:0.6;" x="460.745247" xlink:href="#mbe9820739d" y="544.68"/>
      </g>
     </g>
    </g>
    <g id="xtick_16">
     <g id="line2d_24">
      <g>
       <use style="stroke:#000000;stroke-width:0.6;" x="493.419011" xlink:href="#mbe9820739d" y="544.68"/>
      </g>
     </g>
    </g>
    <g id="xtick_17">
     <g id="line2d_25">
      <g>
       <use style="stroke:#000000;stroke-width:0.6;" x="564.601141" xlink:href="#mbe9820739d" y="544.68"/>
      </g>
     </g>
    </g>
    <g id="xtick_18">
     <g id="line2d_26">
      <g>
       <use style="stroke:#000000;stroke-width:0.6;" x="600.775665" xlink:href="#mbe9820739d" y="544.68"/>
      </g>
     </g>
    </g>
    <g id="xtick_19">
     <g id="line2d_27">
      <g>
       <use style="stroke:#000000;stroke-width:0.6;" x="671.957795" xlink:href="#mbe9820739d" y="544.68"/>
      </g>
     </g>
    </g>
    <g id="xtick_20">
     <g id="line2d_28">
      <g>
       <use style="stroke:#000000;stroke-width:0.6;" x="708.132319" xlink:href="#mbe9820739d" y="544.68"/>
      </g>
     </g>
    </g>
    <g id="text_7">
     <!-- Date -->
     <g transform="translate(393.949219 584.154375)scale(0.1 -0.1)">
      <defs>
       <path d="M 1259 4147 
L 1259 519 
L 2022 519 
Q 2988 519 3436 956 
Q 3884 1394 3884 2338 
Q 3884 3275 3436 3711 
Q 2988 4147 2022 4147 
L 1259 4147 
z
M 628 4666 
L 1925 4666 
Q 3281 4666 3915 4102 
Q 4550 3538 4550 2338 
Q 4550 1131 3912 565 
Q 3275 0 1925 0 
L 628 0 
L 628 4666 
z
" id="DejaVuSans-44" transform="scale(0.015625)"/>
       <path d="M 3597 1894 
L 3597 1613 
L 953 1613 
Q 991 1019 1311 708 
Q 1631 397 2203 397 
Q 2534 397 2845 478 
Q 3156 559 3463 722 
L 3463 178 
Q 3153 47 2828 -22 
Q 2503 -91 2169 -91 
Q 1331 -91 842 396 
Q 353 884 353 1716 
Q 353 2575 817 3079 
Q 1281 3584 2069 3584 
Q 2775 3584 3186 3129 
Q 3597 2675 3597 1894 
z
M 3022 2063 
Q 3016 2534 2758 2815 
Q 2500 3097 2075 3097 
Q 1594 3097 1305 2825 
Q 1016 2553 972 2059 
L 3022 2063 
z
" id="DejaVuSans-65" transform="scale(0.015625)"/>
      </defs>
      <use xlink:href="#DejaVuSans-44"/>
      <use x="77.001953" xlink:href="#DejaVuSans-61"/>
      <use x="138.28125" xlink:href="#DejaVuSans-74"/>
      <use x="177.490234" xlink:href="#DejaVuSans-65"/>
     </g>
    </g>
   </g>
   <g id="matplotlib.axis_2">
    <g id="ytick_1">
     <g id="line2d_29">
      <path clip-path="url(#p68e2955192)" d="M 99 398.46971 
L 712.8 398.46971 
" style="fill:none;stroke:#b0b0b0;stroke-linecap:square;stroke-width:0.8;"/>
     </g>
     <g id="line2d_30">
      <defs>
       <path d="M 0 0 
L -3.5 0 
" id="me91a084207" style="stroke:#000000;stroke-width:0.8;"/>
      </defs>
      <g>
       <use style="stroke:#000000;stroke-width:0.8;" x="99" xlink:href="#me91a084207" y="398.46971"/>
      </g>
     </g>
     <g id="text_8">
      <!-- $\mathdefault{10^{0}}$ -->
      <g transform="translate(74.4 402.268929)scale(0.1 -0.1)">
       <use transform="translate(0 0.765625)" xlink:href="#DejaVuSans-31"/>
       <use transform="translate(63.623047 0.765625)" xlink:href="#DejaVuSans-30"/>
       <use transform="translate(128.203125 39.046875)scale(0.7)" xlink:href="#DejaVuSans-30"/>
      </g>
     </g>
    </g>
    <g id="ytick_2">
     <g id="line2d_31">
      <path clip-path="url(#p68e2955192)" d="M 99 523.26 
L 712.8 523.26 
" style="fill:none;stroke:#b0b0b0;stroke-linecap:square;stroke-width:0.8;"/>
     </g>
     <g id="line2d_32">
      <defs>
       <path d="M 0 0 
L -2 0 
" id="m0cb60b688e" style="stroke:#000000;stroke-width:0.6;"/>
      </defs>
      <g>
       <use style="stroke:#000000;stroke-width:0.6;" x="99" xlink:href="#m0cb60b688e" y="523.26"/>
      </g>
     </g>
    </g>
    <g id="ytick_3">
     <g id="line2d_33">
      <path clip-path="url(#p68e2955192)" d="M 99 490.43586 
L 712.8 490.43586 
" style="fill:none;stroke:#b0b0b0;stroke-linecap:square;stroke-width:0.8;"/>
     </g>
     <g id="line2d_34">
      <g>
       <use style="stroke:#000000;stroke-width:0.6;" x="99" xlink:href="#m0cb60b688e" y="490.43586"/>
      </g>
     </g>
    </g>
    <g id="ytick_4">
     <g id="line2d_35">
      <path clip-path="url(#p68e2955192)" d="M 99 462.683445 
L 712.8 462.683445 
" style="fill:none;stroke:#b0b0b0;stroke-linecap:square;stroke-width:0.8;"/>
     </g>
     <g id="line2d_36">
      <g>
       <use style="stroke:#000000;stroke-width:0.6;" x="99" xlink:href="#m0cb60b688e" y="462.683445"/>
      </g>
     </g>
    </g>
    <g id="ytick_5">
     <g id="line2d_37">
      <path clip-path="url(#p68e2955192)" d="M 99 438.64321 
L 712.8 438.64321 
" style="fill:none;stroke:#b0b0b0;stroke-linecap:square;stroke-width:0.8;"/>
     </g>
     <g id="line2d_38">
      <g>
       <use style="stroke:#000000;stroke-width:0.6;" x="99" xlink:href="#m0cb60b688e" y="438.64321"/>
      </g>
     </g>
    </g>
    <g id="ytick_6">
     <g id="line2d_39">
      <path clip-path="url(#p68e2955192)" d="M 99 417.43822 
L 712.8 417.43822 
" style="fill:none;stroke:#b0b0b0;stroke-linecap:square;stroke-width:0.8;"/>
     </g>
     <g id="line2d_40">
      <g>
       <use style="stroke:#000000;stroke-width:0.6;" x="99" xlink:href="#m0cb60b688e" y="417.43822"/>
      </g>
     </g>
    </g>
    <g id="ytick_7">
     <g id="line2d_41">
      <path clip-path="url(#p68e2955192)" d="M 99 273.67942 
L 712.8 273.67942 
" style="fill:none;stroke:#b0b0b0;stroke-linecap:square;stroke-width:0.8;"/>
     </g>
     <g id="line2d_42">
      <g>
       <use style="stroke:#000000;stroke-width:0.6;" x="99" xlink:href="#m0cb60b688e" y="273.67942"/>
      </g>
     </g>
    </g>
    <g id="ytick_8">
     <g id="line2d_43">
      <path clip-path="url(#p68e2955192)" d="M 99 200.68178 
L 712.8 200.68178 
" style="fill:none;stroke:#b0b0b0;stroke-linecap:square;stroke-width:0.8;"/>
     </g>
     <g id="line2d_44">
      <g>
       <use style="stroke:#000000;stroke-width:0.6;" x="99" xlink:href="#m0cb60b688e" y="200.68178"/>
      </g>
     </g>
    </g>
    <g id="ytick_9">
     <g id="line2d_45">
      <path clip-path="url(#p68e2955192)" d="M 99 148.88913 
L 712.8 148.88913 
" style="fill:none;stroke:#b0b0b0;stroke-linecap:square;stroke-width:0.8;"/>
     </g>
     <g id="line2d_46">
      <g>
       <use style="stroke:#000000;stroke-width:0.6;" x="99" xlink:href="#m0cb60b688e" y="148.88913"/>
      </g>
     </g>
    </g>
    <g id="ytick_10">
     <g id="line2d_47">
      <path clip-path="url(#p68e2955192)" d="M 99 108.71563 
L 712.8 108.71563 
" style="fill:none;stroke:#b0b0b0;stroke-linecap:square;stroke-width:0.8;"/>
     </g>
     <g id="line2d_48">
      <g>
       <use style="stroke:#000000;stroke-width:0.6;" x="99" xlink:href="#m0cb60b688e" y="108.71563"/>
      </g>
     </g>
    </g>
    <g id="ytick_11">
     <g id="line2d_49">
      <path clip-path="url(#p68e2955192)" d="M 99 75.89149 
L 712.8 75.89149 
" style="fill:none;stroke:#b0b0b0;stroke-linecap:square;stroke-width:0.8;"/>
     </g>
     <g id="line2d_50">
      <g>
       <use style="stroke:#000000;stroke-width:0.6;" x="99" xlink:href="#m0cb60b688e" y="75.89149"/>
      </g>
     </g>
    </g>
   </g>
   <g id="line2d_51">
    <path clip-path="url(#p68e2955192)" d="M 256.533968 613 
L 256.534221 523.26 
L 258.868061 523.26 
L 258.868314 613 
M 261.201648 613 
L 261.201901 523.26 
L 261.202154 613 
M 692.962105 613 
L 692.962357 523.26 
L 692.96261 613 
M 701.130546 613 
L 701.130798 523.26 
L 705.798479 523.26 
L 705.798732 613 
L 705.798732 613 
" style="fill:none;stroke:#1f77b4;stroke-linecap:square;stroke-width:1.5;"/>
   </g>
   <g id="line2d_52">
    <path clip-path="url(#p68e2955192)" d="M 0 0 
" style="fill:none;stroke:#ff7f0e;stroke-linecap:square;stroke-width:1.5;"/>
   </g>
   <g id="patch_3">
    <path d="M 99 544.68 
L 99 73.44 
" style="fill:none;stroke:#000000;stroke-linecap:square;stroke-linejoin:miter;stroke-width:0.8;"/>
   </g>
   <g id="patch_4">
    <path d="M 712.8 544.68 
L 712.8 73.44 
" style="fill:none;stroke:#000000;stroke-linecap:square;stroke-linejoin:miter;stroke-width:0.8;"/>
   </g>
   <g id="patch_5">
    <path d="M 99 544.68 
L 712.8 544.68 
" style="fill:none;stroke:#000000;stroke-linecap:square;stroke-linejoin:miter;stroke-width:0.8;"/>
   </g>
   <g id="patch_6">
    <path d="M 99 73.44 
L 712.8 73.44 
" style="fill:none;stroke:#000000;stroke-linecap:square;stroke-linejoin:miter;stroke-width:0.8;"/>
   </g>
   <g id="legend_1">
    <g id="patch_7">
     <path d="M 616.653125 110.79625 
L 705.8 110.79625 
Q 707.8 110.79625 707.8 108.79625 
L 707.8 80.44 
Q 707.8 78.44 705.8 78.44 
L 616.653125 78.44 
Q 614.653125 78.44 614.653125 80.44 
L 614.653125 108.79625 
Q 614.653125 110.79625 616.653125 110.79625 
z
" style="fill:#ffffff;opacity:0.8;stroke:#cccccc;stroke-linejoin:miter;"/>
    </g>
    <g id="line2d_53">
     <path d="M 618.653125 86.538437 
L 638.653125 86.538437 
" style="fill:none;stroke:#1f77b4;stroke-linecap:square;stroke-width:1.5;"/>
    </g>
    <g id="line2d_54"/>
    <g id="text_9">
     <!-- Avg Cases -->
     <g transform="translate(646.653125 90.038437)scale(0.1 -0.1)">
      <defs>
       <path d="M 191 3500 
L 800 3500 
L 1894 563 
L 2988 3500 
L 3597 3500 
L 2284 0 
L 1503 0 
L 191 3500 
z
" id="DejaVuSans-76" transform="scale(0.015625)"/>
       <path d="M 2906 1791 
Q 2906 2416 2648 2759 
Q 2391 3103 1925 3103 
Q 1463 3103 1205 2759 
Q 947 2416 947 1791 
Q 947 1169 1205 825 
Q 1463 481 1925 481 
Q 2391 481 2648 825 
Q 2906 1169 2906 1791 
z
M 3481 434 
Q 3481 -459 3084 -895 
Q 2688 -1331 1869 -1331 
Q 1566 -1331 1297 -1286 
Q 1028 -1241 775 -1147 
L 775 -588 
Q 1028 -725 1275 -790 
Q 1522 -856 1778 -856 
Q 2344 -856 2625 -561 
Q 2906 -266 2906 331 
L 2906 616 
Q 2728 306 2450 153 
Q 2172 0 1784 0 
Q 1141 0 747 490 
Q 353 981 353 1791 
Q 353 2603 747 3093 
Q 1141 3584 1784 3584 
Q 2172 3584 2450 3431 
Q 2728 3278 2906 2969 
L 2906 3500 
L 3481 3500 
L 3481 434 
z
" id="DejaVuSans-67" transform="scale(0.015625)"/>
       <path id="DejaVuSans-20" transform="scale(0.015625)"/>
       <path d="M 4122 4306 
L 4122 3641 
Q 3803 3938 3442 4084 
Q 3081 4231 2675 4231 
Q 1875 4231 1450 3742 
Q 1025 3253 1025 2328 
Q 1025 1406 1450 917 
Q 1875 428 2675 428 
Q 3081 428 3442 575 
Q 3803 722 4122 1019 
L 4122 359 
Q 3791 134 3420 21 
Q 3050 -91 2638 -91 
Q 1578 -91 968 557 
Q 359 1206 359 2328 
Q 359 3453 968 4101 
Q 1578 4750 2638 4750 
Q 3056 4750 3426 4639 
Q 3797 4528 4122 4306 
z
" id="DejaVuSans-43" transform="scale(0.015625)"/>
       <path d="M 2834 3397 
L 2834 2853 
Q 2591 2978 2328 3040 
Q 2066 3103 1784 3103 
Q 1356 3103 1142 2972 
Q 928 2841 928 2578 
Q 928 2378 1081 2264 
Q 1234 2150 1697 2047 
L 1894 2003 
Q 2506 1872 2764 1633 
Q 3022 1394 3022 966 
Q 3022 478 2636 193 
Q 2250 -91 1575 -91 
Q 1294 -91 989 -36 
Q 684 19 347 128 
L 347 722 
Q 666 556 975 473 
Q 1284 391 1588 391 
Q 1994 391 2212 530 
Q 2431 669 2431 922 
Q 2431 1156 2273 1281 
Q 2116 1406 1581 1522 
L 1381 1569 
Q 847 1681 609 1914 
Q 372 2147 372 2553 
Q 372 3047 722 3315 
Q 1072 3584 1716 3584 
Q 2034 3584 2315 3537 
Q 2597 3491 2834 3397 
z
" id="DejaVuSans-73" transform="scale(0.015625)"/>
      </defs>
      <use xlink:href="#DejaVuSans-41"/>
      <use x="62.533203" xlink:href="#DejaVuSans-76"/>
      <use x="121.712891" xlink:href="#DejaVuSans-67"/>
      <use x="185.189453" xlink:href="#DejaVuSans-20"/>
      <use x="216.976562" xlink:href="#DejaVuSans-43"/>
      <use x="286.800781" xlink:href="#DejaVuSans-61"/>
      <use x="348.080078" xlink:href="#DejaVuSans-73"/>
      <use x="400.179688" xlink:href="#DejaVuSans-65"/>
      <use x="461.703125" xlink:href="#DejaVuSans-73"/>
     </g>
    </g>
    <g id="line2d_55">
     <path d="M 618.653125 101.216562 
L 638.653125 101.216562 
" style="fill:none;stroke:#ff7f0e;stroke-linecap:square;stroke-width:1.5;"/>
    </g>
    <g id="line2d_56"/>
    <g id="text_10">
     <!-- Avg Deaths -->
     <g transform="translate(646.653125 104.716562)scale(0.1 -0.1)">
      <defs>
       <path d="M 3513 2113 
L 3513 0 
L 2938 0 
L 2938 2094 
Q 2938 2591 2744 2837 
Q 2550 3084 2163 3084 
Q 1697 3084 1428 2787 
Q 1159 2491 1159 1978 
L 1159 0 
L 581 0 
L 581 4863 
L 1159 4863 
L 1159 2956 
Q 1366 3272 1645 3428 
Q 1925 3584 2291 3584 
Q 2894 3584 3203 3211 
Q 3513 2838 3513 2113 
z
" id="DejaVuSans-68" transform="scale(0.015625)"/>
      </defs>
      <use xlink:href="#DejaVuSans-41"/>
      <use x="62.533203" xlink:href="#DejaVuSans-76"/>
      <use x="121.712891" xlink:href="#DejaVuSans-67"/>
      <use x="185.189453" xlink:href="#DejaVuSans-20"/>
      <use x="216.976562" xlink:href="#DejaVuSans-44"/>
      <use x="293.978516" xlink:href="#DejaVuSans-65"/>
      <use x="355.501953" xlink:href="#DejaVuSans-61"/>
      <use x="416.78125" xlink:href="#DejaVuSans-74"/>
      <use x="455.990234" xlink:href="#DejaVuSans-68"/>
      <use x="519.369141" xlink:href="#DejaVuSans-73"/>
     </g>
    </g>
   </g>
  </g>
 </g>
 <defs>
  <clipPath id="p68e2955192">
   <rect height="471.24" width="613.8" x="99" y="73.44"/>
  </clipPath>
 </defs>
</svg>
