<?xml version="1.0" encoding="utf-8" standalone="no"?>
<!DOCTYPE svg PUBLIC "-//W3C//DTD SVG 1.1//EN"
  "http://www.w3.org/Graphics/SVG/1.1/DTD/svg11.dtd">
<svg height="612pt" version="1.1" viewBox="0 0 792 612" width="792pt" xmlns="http://www.w3.org/2000/svg" xmlns:xlink="http://www.w3.org/1999/xlink">
 <metadata>
  <rdf:RDF xmlns:cc="http://creativecommons.org/ns#" xmlns:dc="http://purl.org/dc/elements/1.1/" xmlns:rdf="http://www.w3.org/1999/02/22-rdf-syntax-ns#">
   <cc:Work>
    <dc:type rdf:resource="http://purl.org/dc/dcmitype/StillImage"/>
    <dc:format>image/svg+xml</dc:format>
    <dc:creator>
     <cc:Agent>
      <dc:title>Matplotlib v3.4.2, https://matplotlib.org/</dc:title>
     </cc:Agent>
    </dc:creator>
   </cc:Work>
  </rdf:RDF>
 </metadata>
 <defs>
  <style type="text/css">*{stroke-linecap:butt;stroke-linejoin:round;}</style>
 </defs>
 <g id="figure_1">
  <g id="patch_1">
   <path d="M 0 612 
L 792 612 
L 792 0 
L 0 0 
z
" style="fill:#ffffff;"/>
  </g>
  <g id="axes_1">
   <g id="patch_2">
    <path d="M 99 544.68 
L 712.8 544.68 
L 712.8 73.44 
L 99 73.44 
z
" style="fill:#ffffff;"/>
   </g>
   <g id="PolyCollection_1">
    <path clip-path="url(#p68e2955192)" d="M 99 414942.840038 
L 99 414942.840038 
L 100.178119 414942.840038 
L 101.356238 414942.840038 
L 102.534357 414942.840038 
L 103.712476 414942.840038 
L 104.890595 414942.840038 
L 106.068714 414942.840038 
L 107.246833 414942.840038 
L 108.424952 414942.840038 
L 109.603071 414942.840038 
L 110.78119 414942.840038 
L 111.959309 414942.840038 
L 113.137428 414942.840038 
L 114.315547 219.65029 
L 115.493666 219.65029 
L 116.671785 219.65029 
L 117.849904 219.65029 
L 119.028023 219.65029 
L 120.206142 273.67942 
L 121.384261 337.893155 
L 122.56238 302.938407 
L 123.740499 302.938407 
L 124.918618 302.938407 
L 126.096737 302.938407 
L 127.274856 302.938407 
L 128.452975 462.683445 
L 129.631094 462.683445 
L 130.809213 462.683445 
L 131.987332 462.683445 
L 133.165451 462.683445 
L 134.34357 462.683445 
L 135.521689 414942.840038 
L 136.699808 414942.840038 
L 137.877927 414942.840038 
L 139.056046 414942.840038 
L 140.234165 414942.840038 
L 141.412284 414942.840038 
L 142.590403 414942.840038 
L 143.768522 414942.840038 
L 144.946641 414942.840038 
L 146.12476 414942.840038 
L 147.302879 414942.840038 
L 148.480998 462.683445 
L 149.659117 462.683445 
L 150.837236 398.46971 
L 152.015355 398.46971 
L 153.193474 398.46971 
L 154.371593 398.46971 
L 155.549712 398.46971 
L 156.727831 302.938407 
L 157.90595 302.938407 
L 159.084069 302.938407 
L 160.262188 302.938407 
L 161.440307 302.938407 
L 162.618426 302.938407 
L 163.796545 302.938407 
L 164.974664 302.938407 
L 166.152783 302.938407 
L 167.330902 462.683445 
L 168.509021 462.683445 
L 169.68714 462.683445 
L 170.865259 462.683445 
L 172.043378 462.683445 
L 173.221497 414942.840038 
L 174.399616 414942.840038 
L 175.577735 414942.840038 
L 176.755854 462.683445 
L 177.933973 398.46971 
L 179.112092 398.46971 
L 180.290211 398.46971 
L 181.46833 398.46971 
L 182.646449 398.46971 
L 183.824568 398.46971 
L 185.002687 302.938407 
L 186.180806 302.938407 
L 187.358925 302.938407 
L 188.537044 302.938407 
L 189.715163 302.938407 
L 190.893282 302.938407 
L 192.071401 302.938407 
L 193.24952 302.938407 
L 194.427639 302.938407 
L 195.605758 398.46971 
L 196.783877 398.46971 
L 197.961996 398.46971 
L 199.140115 462.683445 
L 200.318234 414942.840038 
L 201.496353 414942.840038 
L 202.674472 414942.840038 
L 203.852591 414942.840038 
L 205.03071 414942.840038 
L 206.208829 414942.840038 
L 207.386948 414942.840038 
L 208.565067 414942.840038 
L 209.743186 414942.840038 
L 210.921305 414942.840038 
L 212.099424 414942.840038 
L 213.277543 414942.840038 
L 214.455662 414942.840038 
L 215.633781 414942.840038 
L 216.8119 414942.840038 
L 217.990019 414942.840038 
L 219.168138 414942.840038 
L 220.346257 414942.840038 
L 221.524376 414942.840038 
L 222.702495 462.683445 
L 223.880614 462.683445 
L 225.058733 462.683445 
L 226.236852 302.938407 
L 227.414971 302.938407 
L 228.59309 302.938407 
L 229.771209 302.938407 
L 230.949328 302.938407 
L 232.127447 302.938407 
L 233.305566 302.938407 
L 234.483685 302.938407 
L 235.661804 302.938407 
L 236.839923 302.938407 
L 238.018042 302.938407 
L 239.196161 302.938407 
L 240.37428 302.938407 
L 241.552399 302.938407 
L 242.730518 398.46971 
L 243.908637 398.46971 
L 245.086756 302.938407 
L 246.264875 302.938407 
L 247.442994 273.67942 
L 248.621113 273.67942 
L 249.799232 273.67942 
L 250.977351 273.67942 
L 252.15547 273.67942 
L 253.333589 273.67942 
L 254.511708 273.67942 
L 255.689827 302.938407 
L 256.867946 302.938407 
L 258.046065 302.938407 
L 259.224184 302.938407 
L 260.402303 302.938407 
L 261.580422 398.46971 
L 262.758541 398.46971 
L 263.93666 398.46971 
L 265.114779 398.46971 
L 266.292898 398.46971 
L 267.471017 398.46971 
L 268.649136 398.46971 
L 269.827255 398.46971 
L 271.005374 398.46971 
L 272.183493 398.46971 
L 273.361612 398.46971 
L 274.539731 398.46971 
L 275.71785 398.46971 
L 276.895969 398.46971 
L 278.074088 398.46971 
L 279.252207 462.683445 
L 280.430326 302.938407 
L 281.608445 302.938407 
L 282.786564 462.683445 
L 283.964683 462.683445 
L 285.142802 462.683445 
L 286.320921 462.683445 
L 287.49904 462.683445 
L 288.677159 398.46971 
L 289.855278 398.46971 
L 291.033397 398.46971 
L 292.211516 398.46971 
L 293.389635 398.46971 
L 294.567754 398.46971 
L 295.745873 398.46971 
L 296.923992 398.46971 
L 298.102111 398.46971 
L 299.28023 398.46971 
L 300.458349 398.46971 
L 301.636468 398.46971 
L 302.814587 398.46971 
L 303.992706 398.46971 
L 305.170825 398.46971 
L 306.348944 398.46971 
L 307.527063 398.46971 
L 308.705182 398.46971 
L 309.883301 398.46971 
L 311.06142 398.46971 
L 312.239539 398.46971 
L 313.417658 398.46971 
L 314.595777 398.46971 
L 315.773896 398.46971 
L 316.952015 398.46971 
L 318.130134 398.46971 
L 319.308253 398.46971 
L 320.486372 398.46971 
L 321.664491 462.683445 
L 322.84261 398.46971 
L 324.020729 302.938407 
L 325.198848 302.938407 
L 326.376967 302.938407 
L 327.555086 302.938407 
L 328.733205 302.938407 
L 329.911324 273.67942 
L 331.089443 273.67942 
L 332.267562 273.67942 
L 333.445681 273.67942 
L 334.6238 273.67942 
L 335.801919 219.65029 
L 336.980038 219.65029 
L 338.158157 200.68178 
L 339.336276 219.65029 
L 340.514395 219.65029 
L 341.692514 219.65029 
L 342.870633 219.65029 
L 344.048752 219.65029 
L 345.226871 219.65029 
L 346.40499 219.65029 
L 347.583109 219.65029 
L 348.761228 162.924884 
L 349.939347 162.924884 
L 351.117466 162.924884 
L 352.295585 178.148117 
L 353.473704 178.148117 
L 354.651823 337.893155 
L 355.829942 178.148117 
L 357.008061 178.148117 
L 358.18618 213.102865 
L 359.364299 213.102865 
L 360.542418 213.102865 
L 361.720537 178.148117 
L 362.898656 178.148117 
L 364.076775 178.148117 
L 365.254894 273.67942 
L 366.433013 273.67942 
L 367.611132 273.67942 
L 368.789251 273.67942 
L 369.96737 273.67942 
L 371.145489 273.67942 
L 372.323608 337.893155 
L 373.501727 273.67942 
L 374.679846 273.67942 
L 375.857965 273.67942 
L 377.036084 273.67942 
L 378.214203 302.938407 
L 379.392322 302.938407 
L 380.570441 302.938407 
L 381.74856 398.46971 
L 382.926679 398.46971 
L 384.104798 398.46971 
L 385.282917 398.46971 
L 386.461036 398.46971 
L 387.639155 398.46971 
L 388.817274 398.46971 
L 389.995393 398.46971 
L 391.173512 462.683445 
L 392.351631 462.683445 
L 393.52975 462.683445 
L 394.707869 462.683445 
L 395.885988 462.683445 
L 397.064107 414942.840038 
L 398.242226 337.893155 
L 399.420345 273.67942 
L 400.598464 273.67942 
L 401.776583 273.67942 
L 402.954702 273.67942 
L 404.132821 273.67942 
L 405.31094 273.67942 
L 406.48906 273.67942 
L 407.667179 273.67942 
L 408.845298 273.67942 
L 410.023417 273.67942 
L 411.201536 273.67942 
L 412.379655 273.67942 
L 413.557774 273.67942 
L 414.735893 273.67942 
L 415.914012 302.938407 
L 417.092131 302.938407 
L 418.27025 302.938407 
L 419.448369 302.938407 
L 420.626488 273.67942 
L 421.804607 273.67942 
L 422.982726 273.67942 
L 424.160845 273.67942 
L 425.338964 273.67942 
L 426.517083 273.67942 
L 427.695202 302.938407 
L 428.873321 302.938407 
L 430.05144 302.938407 
L 431.229559 337.893155 
L 432.407678 337.893155 
L 433.585797 337.893155 
L 434.763916 302.938407 
L 435.942035 302.938407 
L 437.120154 462.683445 
L 438.298273 462.683445 
L 439.476392 462.683445 
L 440.654511 302.938407 
L 441.83263 302.938407 
L 443.010749 302.938407 
L 444.188868 302.938407 
L 445.366987 302.938407 
L 446.545106 302.938407 
L 447.723225 302.938407 
L 448.901344 302.938407 
L 450.079463 398.46971 
L 451.257582 462.683445 
L 452.435701 462.683445 
L 453.61382 462.683445 
L 454.791939 462.683445 
L 455.970058 462.683445 
L 457.148177 462.683445 
L 458.326296 462.683445 
L 459.504415 462.683445 
L 460.682534 462.683445 
L 461.860653 462.683445 
L 463.038772 462.683445 
L 464.216891 462.683445 
L 465.39501 337.893155 
L 466.573129 337.893155 
L 467.751248 337.893155 
L 468.929367 337.893155 
L 470.107486 337.893155 
L 471.285605 337.893155 
L 472.463724 337.893155 
L 473.641843 414942.840038 
L 474.819962 414942.840038 
L 475.998081 414942.840038 
L 477.1762 462.683445 
L 478.354319 462.683445 
L 479.532438 462.683445 
L 480.710557 462.683445 
L 481.888676 414942.840038 
L 483.066795 462.683445 
L 484.244914 462.683445 
L 485.423033 462.683445 
L 486.601152 462.683445 
L 487.779271 398.46971 
L 488.95739 398.46971 
L 490.135509 398.46971 
L 491.313628 398.46971 
L 492.491747 398.46971 
L 493.669866 462.683445 
L 494.847985 462.683445 
L 496.026104 462.683445 
L 497.204223 462.683445 
L 498.382342 462.683445 
L 499.560461 462.683445 
L 500.73858 462.683445 
L 501.916699 462.683445 
L 503.094818 462.683445 
L 504.272937 414942.840038 
L 505.451056 462.683445 
L 506.629175 462.683445 
L 507.807294 462.683445 
L 508.985413 462.683445 
L 510.163532 462.683445 
L 511.341651 398.46971 
L 512.51977 302.938407 
L 513.697889 302.938407 
L 514.876008 302.938407 
L 516.054127 219.65029 
L 517.232246 219.65029 
L 518.410365 219.65029 
L 519.588484 219.65029 
L 520.766603 219.65029 
L 521.944722 240.85528 
L 523.122841 240.85528 
L 524.30096 240.85528 
L 525.479079 240.85528 
L 526.657198 240.85528 
L 527.835317 240.85528 
L 529.013436 398.46971 
L 530.191555 398.46971 
L 531.369674 398.46971 
L 532.547793 462.683445 
L 533.725912 462.683445 
L 534.904031 462.683445 
L 536.08215 462.683445 
L 537.260269 462.683445 
L 538.438388 462.683445 
L 539.616507 414942.840038 
L 540.794626 462.683445 
L 541.972745 414942.840038 
L 543.150864 414942.840038 
L 544.328983 414942.840038 
L 545.507102 414942.840038 
L 546.685221 414942.840038 
L 547.86334 414942.840038 
L 549.041459 414942.840038 
L 550.219578 462.683445 
L 551.397697 398.46971 
L 552.575816 398.46971 
L 553.753935 398.46971 
L 554.932054 398.46971 
L 556.110173 398.46971 
L 557.288292 462.683445 
L 558.466411 462.683445 
L 559.64453 462.683445 
L 560.822649 398.46971 
L 562.000768 398.46971 
L 563.178887 398.46971 
L 564.357006 398.46971 
L 565.535125 398.46971 
L 566.713244 462.683445 
L 567.891363 414942.840038 
L 569.069482 337.893155 
L 570.247601 337.893155 
L 571.42572 337.893155 
L 572.603839 337.893155 
L 573.781958 337.893155 
L 574.960077 337.893155 
L 576.138196 302.938407 
L 577.316315 462.683445 
L 578.494434 462.683445 
L 579.672553 398.46971 
L 580.850672 398.46971 
L 582.028791 398.46971 
L 583.20691 398.46971 
L 584.385029 398.46971 
L 585.563148 398.46971 
L 586.741267 398.46971 
L 587.919386 398.46971 
L 589.097505 302.938407 
L 590.275624 302.938407 
L 591.453743 273.67942 
L 592.631862 273.67942 
L 593.809981 273.67942 
L 594.9881 273.67942 
L 596.166219 273.67942 
L 597.344338 273.67942 
L 598.522457 273.67942 
L 599.700576 273.67942 
L 600.878695 273.67942 
L 602.056814 273.67942 
L 603.234933 273.67942 
L 604.413052 273.67942 
L 605.591171 273.67942 
L 606.76929 273.67942 
L 607.947409 337.893155 
L 609.125528 337.893155 
L 610.303647 414942.840038 
L 611.481766 414942.840038 
L 612.659885 414942.840038 
L 613.838004 414942.840038 
L 615.016123 414942.840038 
L 616.194242 414942.840038 
L 617.372361 414942.840038 
L 618.55048 414942.840038 
L 619.728599 414942.840038 
L 620.906718 414942.840038 
L 622.084837 414942.840038 
L 623.262956 414942.840038 
L 624.441075 414942.840038 
L 625.619194 414942.840038 
L 626.797313 414942.840038 
L 627.975432 414942.840038 
L 629.153551 414942.840038 
L 630.33167 414942.840038 
L 631.509789 414942.840038 
L 632.687908 414942.840038 
L 633.866027 414942.840038 
L 635.044146 414942.840038 
L 636.222265 414942.840038 
L 637.400384 414942.840038 
L 638.578503 414942.840038 
L 639.756622 414942.840038 
L 640.934741 414942.840038 
L 642.11286 414942.840038 
L 643.290979 414942.840038 
L 644.469098 414942.840038 
L 645.647217 414942.840038 
L 646.825336 414942.840038 
L 648.003455 462.683445 
L 649.181574 462.683445 
L 650.359693 462.683445 
L 651.537812 462.683445 
L 652.715931 462.683445 
L 653.89405 462.683445 
L 655.072169 398.46971 
L 656.250288 398.46971 
L 657.428407 398.46971 
L 658.606526 398.46971 
L 659.784645 398.46971 
L 660.962764 398.46971 
L 662.140883 398.46971 
L 663.319002 398.46971 
L 664.497121 462.683445 
L 665.67524 462.683445 
L 666.853359 462.683445 
L 668.031478 462.683445 
L 669.209597 302.938407 
L 670.387716 302.938407 
L 671.565835 462.683445 
L 672.743954 462.683445 
L 673.922073 462.683445 
L 675.100192 462.683445 
L 676.278311 302.938407 
L 677.45643 302.938407 
L 678.634549 273.67942 
L 679.812668 273.67942 
L 680.990787 273.67942 
L 682.168906 273.67942 
L 683.347025 116.06499 
L 684.525144 116.06499 
L 685.703263 116.06499 
L 686.881382 94.86 
L 688.059501 94.86 
L 689.23762 94.86 
L 690.415739 94.86 
L 691.593858 94.86 
L 692.771977 162.924884 
L 693.950096 162.924884 
L 695.128215 119.855327 
L 696.306334 119.855327 
L 697.484453 119.855327 
L 698.662572 119.855327 
L 699.840691 148.88913 
L 701.01881 148.88913 
L 702.196929 148.88913 
L 703.375048 162.924884 
L 704.553167 162.924884 
L 705.731286 148.88913 
L 706.909405 148.88913 
L 708.087524 148.88913 
L 709.265643 148.88913 
L 710.443762 148.88913 
L 711.621881 148.88913 
L 712.8 148.88913 
L 712.8 414942.840038 
L 712.8 414942.840038 
L 711.621881 414942.840038 
L 710.443762 414942.840038 
L 709.265643 414942.840038 
L 708.087524 414942.840038 
L 706.909405 414942.840038 
L 705.731286 414942.840038 
L 704.553167 414942.840038 
L 703.375048 414942.840038 
L 702.196929 414942.840038 
L 701.01881 414942.840038 
L 699.840691 414942.840038 
L 698.662572 414942.840038 
L 697.484453 414942.840038 
L 696.306334 414942.840038 
L 695.128215 414942.840038 
L 693.950096 414942.840038 
L 692.771977 414942.840038 
L 691.593858 414942.840038 
L 690.415739 414942.840038 
L 689.23762 414942.840038 
L 688.059501 414942.840038 
L 686.881382 414942.840038 
L 685.703263 414942.840038 
L 684.525144 414942.840038 
L 683.347025 414942.840038 
L 682.168906 414942.840038 
L 680.990787 414942.840038 
L 679.812668 414942.840038 
L 678.634549 414942.840038 
L 677.45643 414942.840038 
L 676.278311 414942.840038 
L 675.100192 414942.840038 
L 673.922073 414942.840038 
L 672.743954 414942.840038 
L 671.565835 414942.840038 
L 670.387716 414942.840038 
L 669.209597 414942.840038 
L 668.031478 414942.840038 
L 666.853359 414942.840038 
L 665.67524 414942.840038 
L 664.497121 414942.840038 
L 663.319002 414942.840038 
L 662.140883 414942.840038 
L 660.962764 414942.840038 
L 659.784645 414942.840038 
L 658.606526 414942.840038 
L 657.428407 414942.840038 
L 656.250288 414942.840038 
L 655.072169 414942.840038 
L 653.89405 414942.840038 
L 652.715931 414942.840038 
L 651.537812 414942.840038 
L 650.359693 414942.840038 
L 649.181574 414942.840038 
L 648.003455 414942.840038 
L 646.825336 414942.840038 
L 645.647217 414942.840038 
L 644.469098 414942.840038 
L 643.290979 414942.840038 
L 642.11286 414942.840038 
L 640.934741 414942.840038 
L 639.756622 414942.840038 
L 638.578503 414942.840038 
L 637.400384 414942.840038 
L 636.222265 414942.840038 
L 635.044146 414942.840038 
L 633.866027 414942.840038 
L 632.687908 414942.840038 
L 631.509789 414942.840038 
L 630.33167 414942.840038 
L 629.153551 414942.840038 
L 627.975432 414942.840038 
L 626.797313 414942.840038 
L 625.619194 414942.840038 
L 624.441075 414942.840038 
L 623.262956 414942.840038 
L 622.084837 414942.840038 
L 620.906718 414942.840038 
L 619.728599 414942.840038 
L 618.55048 414942.840038 
L 617.372361 414942.840038 
L 616.194242 414942.840038 
L 615.016123 414942.840038 
L 613.838004 414942.840038 
L 612.659885 414942.840038 
L 611.481766 414942.840038 
L 610.303647 414942.840038 
L 609.125528 414942.840038 
L 607.947409 414942.840038 
L 606.76929 414942.840038 
L 605.591171 414942.840038 
L 604.413052 414942.840038 
L 603.234933 414942.840038 
L 602.056814 414942.840038 
L 600.878695 414942.840038 
L 599.700576 414942.840038 
L 598.522457 414942.840038 
L 597.344338 414942.840038 
L 596.166219 414942.840038 
L 594.9881 414942.840038 
L 593.809981 414942.840038 
L 592.631862 414942.840038 
L 591.453743 414942.840038 
L 590.275624 414942.840038 
L 589.097505 414942.840038 
L 587.919386 414942.840038 
L 586.741267 414942.840038 
L 585.563148 414942.840038 
L 584.385029 414942.840038 
L 583.20691 414942.840038 
L 582.028791 414942.840038 
L 580.850672 414942.840038 
L 579.672553 414942.840038 
L 578.494434 414942.840038 
L 577.316315 414942.840038 
L 576.138196 414942.840038 
L 574.960077 414942.840038 
L 573.781958 414942.840038 
L 572.603839 414942.840038 
L 571.42572 414942.840038 
L 570.247601 414942.840038 
L 569.069482 414942.840038 
L 567.891363 414942.840038 
L 566.713244 414942.840038 
L 565.535125 414942.840038 
L 564.357006 414942.840038 
L 563.178887 414942.840038 
L 562.000768 414942.840038 
L 560.822649 414942.840038 
L 559.64453 414942.840038 
L 558.466411 414942.840038 
L 557.288292 414942.840038 
L 556.110173 414942.840038 
L 554.932054 414942.840038 
L 553.753935 414942.840038 
L 552.575816 414942.840038 
L 551.397697 414942.840038 
L 550.219578 414942.840038 
L 549.041459 414942.840038 
L 547.86334 414942.840038 
L 546.685221 414942.840038 
L 545.507102 414942.840038 
L 544.328983 414942.840038 
L 543.150864 414942.840038 
L 541.972745 414942.840038 
L 540.794626 414942.840038 
L 539.616507 414942.840038 
L 538.438388 414942.840038 
L 537.260269 414942.840038 
L 536.08215 414942.840038 
L 534.904031 414942.840038 
L 533.725912 414942.840038 
L 532.547793 414942.840038 
L 531.369674 414942.840038 
L 530.191555 414942.840038 
L 529.013436 414942.840038 
L 527.835317 414942.840038 
L 526.657198 414942.840038 
L 525.479079 414942.840038 
L 524.30096 414942.840038 
L 523.122841 414942.840038 
L 521.944722 414942.840038 
L 520.766603 414942.840038 
L 519.588484 414942.840038 
L 518.410365 414942.840038 
L 517.232246 414942.840038 
L 516.054127 414942.840038 
L 514.876008 414942.840038 
L 513.697889 414942.840038 
L 512.51977 414942.840038 
L 511.341651 414942.840038 
L 510.163532 414942.840038 
L 508.985413 414942.840038 
L 507.807294 414942.840038 
L 506.629175 414942.840038 
L 505.451056 414942.840038 
L 504.272937 414942.840038 
L 503.094818 414942.840038 
L 501.916699 414942.840038 
L 500.73858 414942.840038 
L 499.560461 414942.840038 
L 498.382342 414942.840038 
L 497.204223 414942.840038 
L 496.026104 414942.840038 
L 494.847985 414942.840038 
L 493.669866 414942.840038 
L 492.491747 414942.840038 
L 491.313628 414942.840038 
L 490.135509 414942.840038 
L 488.95739 414942.840038 
L 487.779271 414942.840038 
L 486.601152 414942.840038 
L 485.423033 414942.840038 
L 484.244914 414942.840038 
L 483.066795 414942.840038 
L 481.888676 414942.840038 
L 480.710557 414942.840038 
L 479.532438 414942.840038 
L 478.354319 414942.840038 
L 477.1762 414942.840038 
L 475.998081 414942.840038 
L 474.819962 414942.840038 
L 473.641843 414942.840038 
L 472.463724 414942.840038 
L 471.285605 414942.840038 
L 470.107486 414942.840038 
L 468.929367 414942.840038 
L 467.751248 414942.840038 
L 466.573129 414942.840038 
L 465.39501 414942.840038 
L 464.216891 414942.840038 
L 463.038772 414942.840038 
L 461.860653 414942.840038 
L 460.682534 414942.840038 
L 459.504415 414942.840038 
L 458.326296 414942.840038 
L 457.148177 414942.840038 
L 455.970058 414942.840038 
L 454.791939 414942.840038 
L 453.61382 414942.840038 
L 452.435701 414942.840038 
L 451.257582 414942.840038 
L 450.079463 414942.840038 
L 448.901344 414942.840038 
L 447.723225 414942.840038 
L 446.545106 414942.840038 
L 445.366987 414942.840038 
L 444.188868 414942.840038 
L 443.010749 414942.840038 
L 441.83263 414942.840038 
L 440.654511 414942.840038 
L 439.476392 414942.840038 
L 438.298273 414942.840038 
L 437.120154 414942.840038 
L 435.942035 414942.840038 
L 434.763916 414942.840038 
L 433.585797 414942.840038 
L 432.407678 414942.840038 
L 431.229559 414942.840038 
L 430.05144 414942.840038 
L 428.873321 414942.840038 
L 427.695202 414942.840038 
L 426.517083 414942.840038 
L 425.338964 414942.840038 
L 424.160845 414942.840038 
L 422.982726 414942.840038 
L 421.804607 414942.840038 
L 420.626488 414942.840038 
L 419.448369 414942.840038 
L 418.27025 414942.840038 
L 417.092131 414942.840038 
L 415.914012 414942.840038 
L 414.735893 414942.840038 
L 413.557774 414942.840038 
L 412.379655 414942.840038 
L 411.201536 414942.840038 
L 410.023417 414942.840038 
L 408.845298 414942.840038 
L 407.667179 414942.840038 
L 406.48906 414942.840038 
L 405.31094 414942.840038 
L 404.132821 414942.840038 
L 402.954702 414942.840038 
L 401.776583 414942.840038 
L 400.598464 414942.840038 
L 399.420345 414942.840038 
L 398.242226 414942.840038 
L 397.064107 414942.840038 
L 395.885988 414942.840038 
L 394.707869 414942.840038 
L 393.52975 414942.840038 
L 392.351631 414942.840038 
L 391.173512 414942.840038 
L 389.995393 414942.840038 
L 388.817274 414942.840038 
L 387.639155 414942.840038 
L 386.461036 414942.840038 
L 385.282917 414942.840038 
L 384.104798 414942.840038 
L 382.926679 414942.840038 
L 381.74856 414942.840038 
L 380.570441 414942.840038 
L 379.392322 414942.840038 
L 378.214203 414942.840038 
L 377.036084 414942.840038 
L 375.857965 414942.840038 
L 374.679846 414942.840038 
L 373.501727 414942.840038 
L 372.323608 414942.840038 
L 371.145489 414942.840038 
L 369.96737 414942.840038 
L 368.789251 414942.840038 
L 367.611132 414942.840038 
L 366.433013 414942.840038 
L 365.254894 414942.840038 
L 364.076775 414942.840038 
L 362.898656 414942.840038 
L 361.720537 414942.840038 
L 360.542418 414942.840038 
L 359.364299 414942.840038 
L 358.18618 414942.840038 
L 357.008061 414942.840038 
L 355.829942 414942.840038 
L 354.651823 414942.840038 
L 353.473704 414942.840038 
L 352.295585 414942.840038 
L 351.117466 414942.840038 
L 349.939347 414942.840038 
L 348.761228 414942.840038 
L 347.583109 414942.840038 
L 346.40499 414942.840038 
L 345.226871 414942.840038 
L 344.048752 414942.840038 
L 342.870633 414942.840038 
L 341.692514 414942.840038 
L 340.514395 414942.840038 
L 339.336276 414942.840038 
L 338.158157 414942.840038 
L 336.980038 414942.840038 
L 335.801919 414942.840038 
L 334.6238 414942.840038 
L 333.445681 414942.840038 
L 332.267562 414942.840038 
L 331.089443 414942.840038 
L 329.911324 414942.840038 
L 328.733205 414942.840038 
L 327.555086 414942.840038 
L 326.376967 414942.840038 
L 325.198848 414942.840038 
L 324.020729 414942.840038 
L 322.84261 414942.840038 
L 321.664491 414942.840038 
L 320.486372 414942.840038 
L 319.308253 414942.840038 
L 318.130134 414942.840038 
L 316.952015 414942.840038 
L 315.773896 414942.840038 
L 314.595777 414942.840038 
L 313.417658 414942.840038 
L 312.239539 414942.840038 
L 311.06142 414942.840038 
L 309.883301 414942.840038 
L 308.705182 414942.840038 
L 307.527063 414942.840038 
L 306.348944 414942.840038 
L 305.170825 414942.840038 
L 303.992706 414942.840038 
L 302.814587 414942.840038 
L 301.636468 414942.840038 
L 300.458349 414942.840038 
L 299.28023 414942.840038 
L 298.102111 414942.840038 
L 296.923992 414942.840038 
L 295.745873 414942.840038 
L 294.567754 414942.840038 
L 293.389635 414942.840038 
L 292.211516 414942.840038 
L 291.033397 414942.840038 
L 289.855278 414942.840038 
L 288.677159 414942.840038 
L 287.49904 414942.840038 
L 286.320921 414942.840038 
L 285.142802 414942.840038 
L 283.964683 414942.840038 
L 282.786564 414942.840038 
L 281.608445 414942.840038 
L 280.430326 414942.840038 
L 279.252207 414942.840038 
L 278.074088 414942.840038 
L 276.895969 414942.840038 
L 275.71785 414942.840038 
L 274.539731 414942.840038 
L 273.361612 414942.840038 
L 272.183493 414942.840038 
L 271.005374 414942.840038 
L 269.827255 414942.840038 
L 268.649136 414942.840038 
L 267.471017 414942.840038 
L 266.292898 414942.840038 
L 265.114779 414942.840038 
L 263.93666 414942.840038 
L 262.758541 414942.840038 
L 261.580422 414942.840038 
L 260.402303 414942.840038 
L 259.224184 414942.840038 
L 258.046065 414942.840038 
L 256.867946 414942.840038 
L 255.689827 414942.840038 
L 254.511708 414942.840038 
L 253.333589 414942.840038 
L 252.15547 414942.840038 
L 250.977351 414942.840038 
L 249.799232 414942.840038 
L 248.621113 414942.840038 
L 247.442994 414942.840038 
L 246.264875 414942.840038 
L 245.086756 414942.840038 
L 243.908637 414942.840038 
L 242.730518 414942.840038 
L 241.552399 414942.840038 
L 240.37428 414942.840038 
L 239.196161 414942.840038 
L 238.018042 414942.840038 
L 236.839923 414942.840038 
L 235.661804 414942.840038 
L 234.483685 414942.840038 
L 233.305566 414942.840038 
L 232.127447 414942.840038 
L 230.949328 414942.840038 
L 229.771209 414942.840038 
L 228.59309 414942.840038 
L 227.414971 414942.840038 
L 226.236852 414942.840038 
L 225.058733 414942.840038 
L 223.880614 414942.840038 
L 222.702495 414942.840038 
L 221.524376 414942.840038 
L 220.346257 414942.840038 
L 219.168138 414942.840038 
L 217.990019 414942.840038 
L 216.8119 414942.840038 
L 215.633781 414942.840038 
L 214.455662 414942.840038 
L 213.277543 414942.840038 
L 212.099424 414942.840038 
L 210.921305 414942.840038 
L 209.743186 414942.840038 
L 208.565067 414942.840038 
L 207.386948 414942.840038 
L 206.208829 414942.840038 
L 205.03071 414942.840038 
L 203.852591 414942.840038 
L 202.674472 414942.840038 
L 201.496353 414942.840038 
L 200.318234 414942.840038 
L 199.140115 414942.840038 
L 197.961996 414942.840038 
L 196.783877 414942.840038 
L 195.605758 414942.840038 
L 194.427639 414942.840038 
L 193.24952 414942.840038 
L 192.071401 414942.840038 
L 190.893282 414942.840038 
L 189.715163 414942.840038 
L 188.537044 414942.840038 
L 187.358925 414942.840038 
L 186.180806 414942.840038 
L 185.002687 414942.840038 
L 183.824568 414942.840038 
L 182.646449 414942.840038 
L 181.46833 414942.840038 
L 180.290211 414942.840038 
L 179.112092 414942.840038 
L 177.933973 414942.840038 
L 176.755854 414942.840038 
L 175.577735 414942.840038 
L 174.399616 414942.840038 
L 173.221497 414942.840038 
L 172.043378 414942.840038 
L 170.865259 414942.840038 
L 169.68714 414942.840038 
L 168.509021 414942.840038 
L 167.330902 414942.840038 
L 166.152783 414942.840038 
L 164.974664 414942.840038 
L 163.796545 414942.840038 
L 162.618426 414942.840038 
L 161.440307 414942.840038 
L 160.262188 414942.840038 
L 159.084069 414942.840038 
L 157.90595 414942.840038 
L 156.727831 414942.840038 
L 155.549712 414942.840038 
L 154.371593 414942.840038 
L 153.193474 414942.840038 
L 152.015355 414942.840038 
L 150.837236 414942.840038 
L 149.659117 414942.840038 
L 148.480998 414942.840038 
L 147.302879 414942.840038 
L 146.12476 414942.840038 
L 144.946641 414942.840038 
L 143.768522 414942.840038 
L 142.590403 414942.840038 
L 141.412284 414942.840038 
L 140.234165 414942.840038 
L 139.056046 414942.840038 
L 137.877927 414942.840038 
L 136.699808 414942.840038 
L 135.521689 414942.840038 
L 134.34357 414942.840038 
L 133.165451 414942.840038 
L 131.987332 414942.840038 
L 130.809213 414942.840038 
L 129.631094 414942.840038 
L 128.452975 414942.840038 
L 127.274856 414942.840038 
L 126.096737 414942.840038 
L 124.918618 414942.840038 
L 123.740499 414942.840038 
L 122.56238 414942.840038 
L 121.384261 414942.840038 
L 120.206142 414942.840038 
L 119.028023 414942.840038 
L 117.849904 414942.840038 
L 116.671785 414942.840038 
L 115.493666 414942.840038 
L 114.315547 414942.840038 
L 113.137428 414942.840038 
L 111.959309 414942.840038 
L 110.78119 414942.840038 
L 109.603071 414942.840038 
L 108.424952 414942.840038 
L 107.246833 414942.840038 
L 106.068714 414942.840038 
L 104.890595 414942.840038 
L 103.712476 414942.840038 
L 102.534357 414942.840038 
L 101.356238 414942.840038 
L 100.178119 414942.840038 
L 99 414942.840038 
z
" style="fill:#8080ff;fill-opacity:0.5;stroke:#8080ff;stroke-opacity:0.5;"/>
   </g>
   <g id="PolyCollection_2">
    <path clip-path="url(#p68e2955192)" d="M 99 414942.840038 
L 99 414942.840038 
L 100.178119 414942.840038 
L 101.356238 414942.840038 
L 102.534357 414942.840038 
L 103.712476 414942.840038 
L 104.890595 414942.840038 
L 106.068714 414942.840038 
L 107.246833 414942.840038 
L 108.424952 414942.840038 
L 109.603071 414942.840038 
L 110.78119 414942.840038 
L 111.959309 414942.840038 
L 113.137428 414942.840038 
L 114.315547 462.683445 
L 115.493666 462.683445 
L 116.671785 462.683445 
L 117.849904 462.683445 
L 119.028023 462.683445 
L 120.206142 414942.840038 
L 121.384261 414942.840038 
L 122.56238 414942.840038 
L 123.740499 414942.840038 
L 124.918618 414942.840038 
L 126.096737 414942.840038 
L 127.274856 414942.840038 
L 128.452975 414942.840038 
L 129.631094 414942.840038 
L 130.809213 414942.840038 
L 131.987332 414942.840038 
L 133.165451 414942.840038 
L 134.34357 414942.840038 
L 135.521689 414942.840038 
L 136.699808 414942.840038 
L 137.877927 414942.840038 
L 139.056046 414942.840038 
L 140.234165 414942.840038 
L 141.412284 414942.840038 
L 142.590403 414942.840038 
L 143.768522 414942.840038 
L 144.946641 414942.840038 
L 146.12476 414942.840038 
L 147.302879 414942.840038 
L 148.480998 414942.840038 
L 149.659117 414942.840038 
L 150.837236 414942.840038 
L 152.015355 414942.840038 
L 153.193474 414942.840038 
L 154.371593 414942.840038 
L 155.549712 414942.840038 
L 156.727831 414942.840038 
L 157.90595 414942.840038 
L 159.084069 414942.840038 
L 160.262188 414942.840038 
L 161.440307 414942.840038 
L 162.618426 414942.840038 
L 163.796545 414942.840038 
L 164.974664 414942.840038 
L 166.152783 414942.840038 
L 167.330902 414942.840038 
L 168.509021 414942.840038 
L 169.68714 414942.840038 
L 170.865259 414942.840038 
L 172.043378 414942.840038 
L 173.221497 414942.840038 
L 174.399616 414942.840038 
L 175.577735 414942.840038 
L 176.755854 414942.840038 
L 177.933973 414942.840038 
L 179.112092 414942.840038 
L 180.290211 414942.840038 
L 181.46833 414942.840038 
L 182.646449 414942.840038 
L 183.824568 414942.840038 
L 185.002687 414942.840038 
L 186.180806 414942.840038 
L 187.358925 414942.840038 
L 188.537044 414942.840038 
L 189.715163 414942.840038 
L 190.893282 414942.840038 
L 192.071401 414942.840038 
L 193.24952 414942.840038 
L 194.427639 414942.840038 
L 195.605758 414942.840038 
L 196.783877 414942.840038 
L 197.961996 414942.840038 
L 199.140115 414942.840038 
L 200.318234 414942.840038 
L 201.496353 414942.840038 
L 202.674472 414942.840038 
L 203.852591 414942.840038 
L 205.03071 414942.840038 
L 206.208829 414942.840038 
L 207.386948 414942.840038 
L 208.565067 414942.840038 
L 209.743186 414942.840038 
L 210.921305 414942.840038 
L 212.099424 414942.840038 
L 213.277543 414942.840038 
L 214.455662 414942.840038 
L 215.633781 414942.840038 
L 216.8119 414942.840038 
L 217.990019 414942.840038 
L 219.168138 414942.840038 
L 220.346257 414942.840038 
L 221.524376 414942.840038 
L 222.702495 414942.840038 
L 223.880614 414942.840038 
L 225.058733 414942.840038 
L 226.236852 414942.840038 
L 227.414971 414942.840038 
L 228.59309 414942.840038 
L 229.771209 414942.840038 
L 230.949328 414942.840038 
L 232.127447 414942.840038 
L 233.305566 414942.840038 
L 234.483685 414942.840038 
L 235.661804 414942.840038 
L 236.839923 414942.840038 
L 238.018042 414942.840038 
L 239.196161 414942.840038 
L 240.37428 414942.840038 
L 241.552399 414942.840038 
L 242.730518 414942.840038 
L 243.908637 414942.840038 
L 245.086756 414942.840038 
L 246.264875 414942.840038 
L 247.442994 414942.840038 
L 248.621113 414942.840038 
L 249.799232 414942.840038 
L 250.977351 414942.840038 
L 252.15547 414942.840038 
L 253.333589 414942.840038 
L 254.511708 414942.840038 
L 255.689827 414942.840038 
L 256.867946 414942.840038 
L 258.046065 414942.840038 
L 259.224184 414942.840038 
L 260.402303 414942.840038 
L 261.580422 414942.840038 
L 262.758541 414942.840038 
L 263.93666 414942.840038 
L 265.114779 414942.840038 
L 266.292898 414942.840038 
L 267.471017 414942.840038 
L 268.649136 414942.840038 
L 269.827255 414942.840038 
L 271.005374 414942.840038 
L 272.183493 414942.840038 
L 273.361612 414942.840038 
L 274.539731 414942.840038 
L 275.71785 414942.840038 
L 276.895969 414942.840038 
L 278.074088 414942.840038 
L 279.252207 414942.840038 
L 280.430326 414942.840038 
L 281.608445 414942.840038 
L 282.786564 414942.840038 
L 283.964683 414942.840038 
L 285.142802 414942.840038 
L 286.320921 414942.840038 
L 287.49904 414942.840038 
L 288.677159 414942.840038 
L 289.855278 414942.840038 
L 291.033397 414942.840038 
L 292.211516 414942.840038 
L 293.389635 414942.840038 
L 294.567754 414942.840038 
L 295.745873 414942.840038 
L 296.923992 414942.840038 
L 298.102111 414942.840038 
L 299.28023 414942.840038 
L 300.458349 414942.840038 
L 301.636468 414942.840038 
L 302.814587 414942.840038 
L 303.992706 414942.840038 
L 305.170825 414942.840038 
L 306.348944 414942.840038 
L 307.527063 414942.840038 
L 308.705182 414942.840038 
L 309.883301 414942.840038 
L 311.06142 414942.840038 
L 312.239539 414942.840038 
L 313.417658 414942.840038 
L 314.595777 414942.840038 
L 315.773896 414942.840038 
L 316.952015 414942.840038 
L 318.130134 414942.840038 
L 319.308253 414942.840038 
L 320.486372 414942.840038 
L 321.664491 414942.840038 
L 322.84261 414942.840038 
L 324.020729 414942.840038 
L 325.198848 414942.840038 
L 326.376967 414942.840038 
L 327.555086 414942.840038 
L 328.733205 414942.840038 
L 329.911324 414942.840038 
L 331.089443 414942.840038 
L 332.267562 414942.840038 
L 333.445681 414942.840038 
L 334.6238 414942.840038 
L 335.801919 414942.840038 
L 336.980038 414942.840038 
L 338.158157 414942.840038 
L 339.336276 414942.840038 
L 340.514395 414942.840038 
L 341.692514 414942.840038 
L 342.870633 414942.840038 
L 344.048752 414942.840038 
L 345.226871 414942.840038 
L 346.40499 414942.840038 
L 347.583109 414942.840038 
L 348.761228 414942.840038 
L 349.939347 414942.840038 
L 351.117466 414942.840038 
L 352.295585 414942.840038 
L 353.473704 414942.840038 
L 354.651823 414942.840038 
L 355.829942 414942.840038 
L 357.008061 414942.840038 
L 358.18618 414942.840038 
L 359.364299 414942.840038 
L 360.542418 414942.840038 
L 361.720537 414942.840038 
L 362.898656 414942.840038 
L 364.076775 414942.840038 
L 365.254894 414942.840038 
L 366.433013 414942.840038 
L 367.611132 414942.840038 
L 368.789251 414942.840038 
L 369.96737 414942.840038 
L 371.145489 414942.840038 
L 372.323608 414942.840038 
L 373.501727 414942.840038 
L 374.679846 414942.840038 
L 375.857965 414942.840038 
L 377.036084 414942.840038 
L 378.214203 414942.840038 
L 379.392322 414942.840038 
L 380.570441 414942.840038 
L 381.74856 414942.840038 
L 382.926679 414942.840038 
L 384.104798 414942.840038 
L 385.282917 414942.840038 
L 386.461036 414942.840038 
L 387.639155 414942.840038 
L 388.817274 414942.840038 
L 389.995393 414942.840038 
L 391.173512 414942.840038 
L 392.351631 414942.840038 
L 393.52975 414942.840038 
L 394.707869 414942.840038 
L 395.885988 414942.840038 
L 397.064107 414942.840038 
L 398.242226 414942.840038 
L 399.420345 414942.840038 
L 400.598464 414942.840038 
L 401.776583 414942.840038 
L 402.954702 414942.840038 
L 404.132821 414942.840038 
L 405.31094 414942.840038 
L 406.48906 414942.840038 
L 407.667179 414942.840038 
L 408.845298 414942.840038 
L 410.023417 414942.840038 
L 411.201536 414942.840038 
L 412.379655 414942.840038 
L 413.557774 414942.840038 
L 414.735893 414942.840038 
L 415.914012 414942.840038 
L 417.092131 414942.840038 
L 418.27025 414942.840038 
L 419.448369 414942.840038 
L 420.626488 414942.840038 
L 421.804607 414942.840038 
L 422.982726 414942.840038 
L 424.160845 414942.840038 
L 425.338964 414942.840038 
L 426.517083 414942.840038 
L 427.695202 414942.840038 
L 428.873321 414942.840038 
L 430.05144 414942.840038 
L 431.229559 414942.840038 
L 432.407678 414942.840038 
L 433.585797 414942.840038 
L 434.763916 414942.840038 
L 435.942035 414942.840038 
L 437.120154 414942.840038 
L 438.298273 414942.840038 
L 439.476392 414942.840038 
L 440.654511 414942.840038 
L 441.83263 414942.840038 
L 443.010749 414942.840038 
L 444.188868 414942.840038 
L 445.366987 414942.840038 
L 446.545106 414942.840038 
L 447.723225 414942.840038 
L 448.901344 414942.840038 
L 450.079463 414942.840038 
L 451.257582 414942.840038 
L 452.435701 414942.840038 
L 453.61382 414942.840038 
L 454.791939 414942.840038 
L 455.970058 414942.840038 
L 457.148177 414942.840038 
L 458.326296 414942.840038 
L 459.504415 414942.840038 
L 460.682534 414942.840038 
L 461.860653 414942.840038 
L 463.038772 414942.840038 
L 464.216891 414942.840038 
L 465.39501 414942.840038 
L 466.573129 414942.840038 
L 467.751248 414942.840038 
L 468.929367 414942.840038 
L 470.107486 414942.840038 
L 471.285605 414942.840038 
L 472.463724 414942.840038 
L 473.641843 414942.840038 
L 474.819962 414942.840038 
L 475.998081 414942.840038 
L 477.1762 414942.840038 
L 478.354319 414942.840038 
L 479.532438 414942.840038 
L 480.710557 414942.840038 
L 481.888676 414942.840038 
L 483.066795 414942.840038 
L 484.244914 414942.840038 
L 485.423033 414942.840038 
L 486.601152 414942.840038 
L 487.779271 414942.840038 
L 488.95739 414942.840038 
L 490.135509 414942.840038 
L 491.313628 414942.840038 
L 492.491747 414942.840038 
L 493.669866 414942.840038 
L 494.847985 414942.840038 
L 496.026104 414942.840038 
L 497.204223 414942.840038 
L 498.382342 414942.840038 
L 499.560461 414942.840038 
L 500.73858 414942.840038 
L 501.916699 414942.840038 
L 503.094818 414942.840038 
L 504.272937 414942.840038 
L 505.451056 414942.840038 
L 506.629175 414942.840038 
L 507.807294 414942.840038 
L 508.985413 414942.840038 
L 510.163532 414942.840038 
L 511.341651 414942.840038 
L 512.51977 414942.840038 
L 513.697889 414942.840038 
L 514.876008 414942.840038 
L 516.054127 414942.840038 
L 517.232246 414942.840038 
L 518.410365 414942.840038 
L 519.588484 414942.840038 
L 520.766603 414942.840038 
L 521.944722 414942.840038 
L 523.122841 414942.840038 
L 524.30096 414942.840038 
L 525.479079 414942.840038 
L 526.657198 414942.840038 
L 527.835317 414942.840038 
L 529.013436 414942.840038 
L 530.191555 414942.840038 
L 531.369674 414942.840038 
L 532.547793 414942.840038 
L 533.725912 414942.840038 
L 534.904031 414942.840038 
L 536.08215 414942.840038 
L 537.260269 414942.840038 
L 538.438388 414942.840038 
L 539.616507 414942.840038 
L 540.794626 414942.840038 
L 541.972745 414942.840038 
L 543.150864 414942.840038 
L 544.328983 414942.840038 
L 545.507102 414942.840038 
L 546.685221 414942.840038 
L 547.86334 414942.840038 
L 549.041459 414942.840038 
L 550.219578 414942.840038 
L 551.397697 414942.840038 
L 552.575816 414942.840038 
L 553.753935 414942.840038 
L 554.932054 414942.840038 
L 556.110173 414942.840038 
L 557.288292 414942.840038 
L 558.466411 414942.840038 
L 559.64453 414942.840038 
L 560.822649 414942.840038 
L 562.000768 414942.840038 
L 563.178887 414942.840038 
L 564.357006 414942.840038 
L 565.535125 414942.840038 
L 566.713244 414942.840038 
L 567.891363 414942.840038 
L 569.069482 414942.840038 
L 570.247601 414942.840038 
L 571.42572 414942.840038 
L 572.603839 414942.840038 
L 573.781958 414942.840038 
L 574.960077 414942.840038 
L 576.138196 414942.840038 
L 577.316315 414942.840038 
L 578.494434 414942.840038 
L 579.672553 414942.840038 
L 580.850672 414942.840038 
L 582.028791 414942.840038 
L 583.20691 414942.840038 
L 584.385029 414942.840038 
L 585.563148 414942.840038 
L 586.741267 414942.840038 
L 587.919386 414942.840038 
L 589.097505 414942.840038 
L 590.275624 414942.840038 
L 591.453743 414942.840038 
L 592.631862 414942.840038 
L 593.809981 414942.840038 
L 594.9881 414942.840038 
L 596.166219 414942.840038 
L 597.344338 414942.840038 
L 598.522457 414942.840038 
L 599.700576 414942.840038 
L 600.878695 414942.840038 
L 602.056814 414942.840038 
L 603.234933 414942.840038 
L 604.413052 414942.840038 
L 605.591171 414942.840038 
L 606.76929 414942.840038 
L 607.947409 414942.840038 
L 609.125528 414942.840038 
L 610.303647 414942.840038 
L 611.481766 414942.840038 
L 612.659885 414942.840038 
L 613.838004 414942.840038 
L 615.016123 414942.840038 
L 616.194242 414942.840038 
L 617.372361 414942.840038 
L 618.55048 414942.840038 
L 619.728599 414942.840038 
L 620.906718 414942.840038 
L 622.084837 414942.840038 
L 623.262956 414942.840038 
L 624.441075 414942.840038 
L 625.619194 414942.840038 
L 626.797313 414942.840038 
L 627.975432 414942.840038 
L 629.153551 414942.840038 
L 630.33167 414942.840038 
L 631.509789 414942.840038 
L 632.687908 414942.840038 
L 633.866027 414942.840038 
L 635.044146 414942.840038 
L 636.222265 414942.840038 
L 637.400384 414942.840038 
L 638.578503 414942.840038 
L 639.756622 414942.840038 
L 640.934741 414942.840038 
L 642.11286 414942.840038 
L 643.290979 414942.840038 
L 644.469098 414942.840038 
L 645.647217 414942.840038 
L 646.825336 414942.840038 
L 648.003455 414942.840038 
L 649.181574 414942.840038 
L 650.359693 414942.840038 
L 651.537812 414942.840038 
L 652.715931 414942.840038 
L 653.89405 414942.840038 
L 655.072169 414942.840038 
L 656.250288 414942.840038 
L 657.428407 414942.840038 
L 658.606526 414942.840038 
L 659.784645 414942.840038 
L 660.962764 414942.840038 
L 662.140883 414942.840038 
L 663.319002 414942.840038 
L 664.497121 414942.840038 
L 665.67524 414942.840038 
L 666.853359 414942.840038 
L 668.031478 414942.840038 
L 669.209597 414942.840038 
L 670.387716 414942.840038 
L 671.565835 414942.840038 
L 672.743954 414942.840038 
L 673.922073 414942.840038 
L 675.100192 414942.840038 
L 676.278311 414942.840038 
L 677.45643 414942.840038 
L 678.634549 414942.840038 
L 679.812668 414942.840038 
L 680.990787 414942.840038 
L 682.168906 414942.840038 
L 683.347025 414942.840038 
L 684.525144 414942.840038 
L 685.703263 414942.840038 
L 686.881382 414942.840038 
L 688.059501 414942.840038 
L 689.23762 414942.840038 
L 690.415739 414942.840038 
L 691.593858 414942.840038 
L 692.771977 414942.840038 
L 693.950096 414942.840038 
L 695.128215 414942.840038 
L 696.306334 414942.840038 
L 697.484453 414942.840038 
L 698.662572 414942.840038 
L 699.840691 414942.840038 
L 701.01881 414942.840038 
L 702.196929 414942.840038 
L 703.375048 414942.840038 
L 704.553167 414942.840038 
L 705.731286 414942.840038 
L 706.909405 414942.840038 
L 708.087524 414942.840038 
L 709.265643 414942.840038 
L 710.443762 414942.840038 
L 711.621881 414942.840038 
L 712.8 414942.840038 
L 712.8 414942.840038 
L 712.8 414942.840038 
L 711.621881 414942.840038 
L 710.443762 414942.840038 
L 709.265643 414942.840038 
L 708.087524 414942.840038 
L 706.909405 414942.840038 
L 705.731286 414942.840038 
L 704.553167 414942.840038 
L 703.375048 414942.840038 
L 702.196929 414942.840038 
L 701.01881 414942.840038 
L 699.840691 414942.840038 
L 698.662572 414942.840038 
L 697.484453 414942.840038 
L 696.306334 414942.840038 
L 695.128215 414942.840038 
L 693.950096 414942.840038 
L 692.771977 414942.840038 
L 691.593858 414942.840038 
L 690.415739 414942.840038 
L 689.23762 414942.840038 
L 688.059501 414942.840038 
L 686.881382 414942.840038 
L 685.703263 414942.840038 
L 684.525144 414942.840038 
L 683.347025 414942.840038 
L 682.168906 414942.840038 
L 680.990787 414942.840038 
L 679.812668 414942.840038 
L 678.634549 414942.840038 
L 677.45643 414942.840038 
L 676.278311 414942.840038 
L 675.100192 414942.840038 
L 673.922073 414942.840038 
L 672.743954 414942.840038 
L 671.565835 414942.840038 
L 670.387716 414942.840038 
L 669.209597 414942.840038 
L 668.031478 414942.840038 
L 666.853359 414942.840038 
L 665.67524 414942.840038 
L 664.497121 414942.840038 
L 663.319002 414942.840038 
L 662.140883 414942.840038 
L 660.962764 414942.840038 
L 659.784645 414942.840038 
L 658.606526 414942.840038 
L 657.428407 414942.840038 
L 656.250288 414942.840038 
L 655.072169 414942.840038 
L 653.89405 414942.840038 
L 652.715931 414942.840038 
L 651.537812 414942.840038 
L 650.359693 414942.840038 
L 649.181574 414942.840038 
L 648.003455 414942.840038 
L 646.825336 414942.840038 
L 645.647217 414942.840038 
L 644.469098 414942.840038 
L 643.290979 414942.840038 
L 642.11286 414942.840038 
L 640.934741 414942.840038 
L 639.756622 414942.840038 
L 638.578503 414942.840038 
L 637.400384 414942.840038 
L 636.222265 414942.840038 
L 635.044146 414942.840038 
L 633.866027 414942.840038 
L 632.687908 414942.840038 
L 631.509789 414942.840038 
L 630.33167 414942.840038 
L 629.153551 414942.840038 
L 627.975432 414942.840038 
L 626.797313 414942.840038 
L 625.619194 414942.840038 
L 624.441075 414942.840038 
L 623.262956 414942.840038 
L 622.084837 414942.840038 
L 620.906718 414942.840038 
L 619.728599 414942.840038 
L 618.55048 414942.840038 
L 617.372361 414942.840038 
L 616.194242 414942.840038 
L 615.016123 414942.840038 
L 613.838004 414942.840038 
L 612.659885 414942.840038 
L 611.481766 414942.840038 
L 610.303647 414942.840038 
L 609.125528 414942.840038 
L 607.947409 414942.840038 
L 606.76929 414942.840038 
L 605.591171 414942.840038 
L 604.413052 414942.840038 
L 603.234933 414942.840038 
L 602.056814 414942.840038 
L 600.878695 414942.840038 
L 599.700576 414942.840038 
L 598.522457 414942.840038 
L 597.344338 414942.840038 
L 596.166219 414942.840038 
L 594.9881 414942.840038 
L 593.809981 414942.840038 
L 592.631862 414942.840038 
L 591.453743 414942.840038 
L 590.275624 414942.840038 
L 589.097505 414942.840038 
L 587.919386 414942.840038 
L 586.741267 414942.840038 
L 585.563148 414942.840038 
L 584.385029 414942.840038 
L 583.20691 414942.840038 
L 582.028791 414942.840038 
L 580.850672 414942.840038 
L 579.672553 414942.840038 
L 578.494434 414942.840038 
L 577.316315 414942.840038 
L 576.138196 414942.840038 
L 574.960077 414942.840038 
L 573.781958 414942.840038 
L 572.603839 414942.840038 
L 571.42572 414942.840038 
L 570.247601 414942.840038 
L 569.069482 414942.840038 
L 567.891363 414942.840038 
L 566.713244 414942.840038 
L 565.535125 414942.840038 
L 564.357006 414942.840038 
L 563.178887 414942.840038 
L 562.000768 414942.840038 
L 560.822649 414942.840038 
L 559.64453 414942.840038 
L 558.466411 414942.840038 
L 557.288292 414942.840038 
L 556.110173 414942.840038 
L 554.932054 414942.840038 
L 553.753935 414942.840038 
L 552.575816 414942.840038 
L 551.397697 414942.840038 
L 550.219578 414942.840038 
L 549.041459 414942.840038 
L 547.86334 414942.840038 
L 546.685221 414942.840038 
L 545.507102 414942.840038 
L 544.328983 414942.840038 
L 543.150864 414942.840038 
L 541.972745 414942.840038 
L 540.794626 414942.840038 
L 539.616507 414942.840038 
L 538.438388 414942.840038 
L 537.260269 414942.840038 
L 536.08215 414942.840038 
L 534.904031 414942.840038 
L 533.725912 414942.840038 
L 532.547793 414942.840038 
L 531.369674 414942.840038 
L 530.191555 414942.840038 
L 529.013436 414942.840038 
L 527.835317 414942.840038 
L 526.657198 414942.840038 
L 525.479079 414942.840038 
L 524.30096 414942.840038 
L 523.122841 414942.840038 
L 521.944722 414942.840038 
L 520.766603 414942.840038 
L 519.588484 414942.840038 
L 518.410365 414942.840038 
L 517.232246 414942.840038 
L 516.054127 414942.840038 
L 514.876008 414942.840038 
L 513.697889 414942.840038 
L 512.51977 414942.840038 
L 511.341651 414942.840038 
L 510.163532 414942.840038 
L 508.985413 414942.840038 
L 507.807294 414942.840038 
L 506.629175 414942.840038 
L 505.451056 414942.840038 
L 504.272937 414942.840038 
L 503.094818 414942.840038 
L 501.916699 414942.840038 
L 500.73858 414942.840038 
L 499.560461 414942.840038 
L 498.382342 414942.840038 
L 497.204223 414942.840038 
L 496.026104 414942.840038 
L 494.847985 414942.840038 
L 493.669866 414942.840038 
L 492.491747 414942.840038 
L 491.313628 414942.840038 
L 490.135509 414942.840038 
L 488.95739 414942.840038 
L 487.779271 414942.840038 
L 486.601152 414942.840038 
L 485.423033 414942.840038 
L 484.244914 414942.840038 
L 483.066795 414942.840038 
L 481.888676 414942.840038 
L 480.710557 414942.840038 
L 479.532438 414942.840038 
L 478.354319 414942.840038 
L 477.1762 414942.840038 
L 475.998081 414942.840038 
L 474.819962 414942.840038 
L 473.641843 414942.840038 
L 472.463724 414942.840038 
L 471.285605 414942.840038 
L 470.107486 414942.840038 
L 468.929367 414942.840038 
L 467.751248 414942.840038 
L 466.573129 414942.840038 
L 465.39501 414942.840038 
L 464.216891 414942.840038 
L 463.038772 414942.840038 
L 461.860653 414942.840038 
L 460.682534 414942.840038 
L 459.504415 414942.840038 
L 458.326296 414942.840038 
L 457.148177 414942.840038 
L 455.970058 414942.840038 
L 454.791939 414942.840038 
L 453.61382 414942.840038 
L 452.435701 414942.840038 
L 451.257582 414942.840038 
L 450.079463 414942.840038 
L 448.901344 414942.840038 
L 447.723225 414942.840038 
L 446.545106 414942.840038 
L 445.366987 414942.840038 
L 444.188868 414942.840038 
L 443.010749 414942.840038 
L 441.83263 414942.840038 
L 440.654511 414942.840038 
L 439.476392 414942.840038 
L 438.298273 414942.840038 
L 437.120154 414942.840038 
L 435.942035 414942.840038 
L 434.763916 414942.840038 
L 433.585797 414942.840038 
L 432.407678 414942.840038 
L 431.229559 414942.840038 
L 430.05144 414942.840038 
L 428.873321 414942.840038 
L 427.695202 414942.840038 
L 426.517083 414942.840038 
L 425.338964 414942.840038 
L 424.160845 414942.840038 
L 422.982726 414942.840038 
L 421.804607 414942.840038 
L 420.626488 414942.840038 
L 419.448369 414942.840038 
L 418.27025 414942.840038 
L 417.092131 414942.840038 
L 415.914012 414942.840038 
L 414.735893 414942.840038 
L 413.557774 414942.840038 
L 412.379655 414942.840038 
L 411.201536 414942.840038 
L 410.023417 414942.840038 
L 408.845298 414942.840038 
L 407.667179 414942.840038 
L 406.48906 414942.840038 
L 405.31094 414942.840038 
L 404.132821 414942.840038 
L 402.954702 414942.840038 
L 401.776583 414942.840038 
L 400.598464 414942.840038 
L 399.420345 414942.840038 
L 398.242226 414942.840038 
L 397.064107 414942.840038 
L 395.885988 414942.840038 
L 394.707869 414942.840038 
L 393.52975 414942.840038 
L 392.351631 414942.840038 
L 391.173512 414942.840038 
L 389.995393 414942.840038 
L 388.817274 414942.840038 
L 387.639155 414942.840038 
L 386.461036 414942.840038 
L 385.282917 414942.840038 
L 384.104798 414942.840038 
L 382.926679 414942.840038 
L 381.74856 414942.840038 
L 380.570441 414942.840038 
L 379.392322 414942.840038 
L 378.214203 414942.840038 
L 377.036084 414942.840038 
L 375.857965 414942.840038 
L 374.679846 414942.840038 
L 373.501727 414942.840038 
L 372.323608 414942.840038 
L 371.145489 414942.840038 
L 369.96737 414942.840038 
L 368.789251 414942.840038 
L 367.611132 414942.840038 
L 366.433013 414942.840038 
L 365.254894 414942.840038 
L 364.076775 414942.840038 
L 362.898656 414942.840038 
L 361.720537 414942.840038 
L 360.542418 414942.840038 
L 359.364299 414942.840038 
L 358.18618 414942.840038 
L 357.008061 414942.840038 
L 355.829942 414942.840038 
L 354.651823 414942.840038 
L 353.473704 414942.840038 
L 352.295585 414942.840038 
L 351.117466 414942.840038 
L 349.939347 414942.840038 
L 348.761228 414942.840038 
L 347.583109 414942.840038 
L 346.40499 414942.840038 
L 345.226871 414942.840038 
L 344.048752 414942.840038 
L 342.870633 414942.840038 
L 341.692514 414942.840038 
L 340.514395 414942.840038 
L 339.336276 414942.840038 
L 338.158157 414942.840038 
L 336.980038 414942.840038 
L 335.801919 414942.840038 
L 334.6238 414942.840038 
L 333.445681 414942.840038 
L 332.267562 414942.840038 
L 331.089443 414942.840038 
L 329.911324 414942.840038 
L 328.733205 414942.840038 
L 327.555086 414942.840038 
L 326.376967 414942.840038 
L 325.198848 414942.840038 
L 324.020729 414942.840038 
L 322.84261 414942.840038 
L 321.664491 414942.840038 
L 320.486372 414942.840038 
L 319.308253 414942.840038 
L 318.130134 414942.840038 
L 316.952015 414942.840038 
L 315.773896 414942.840038 
L 314.595777 414942.840038 
L 313.417658 414942.840038 
L 312.239539 414942.840038 
L 311.06142 414942.840038 
L 309.883301 414942.840038 
L 308.705182 414942.840038 
L 307.527063 414942.840038 
L 306.348944 414942.840038 
L 305.170825 414942.840038 
L 303.992706 414942.840038 
L 302.814587 414942.840038 
L 301.636468 414942.840038 
L 300.458349 414942.840038 
L 299.28023 414942.840038 
L 298.102111 414942.840038 
L 296.923992 414942.840038 
L 295.745873 414942.840038 
L 294.567754 414942.840038 
L 293.389635 414942.840038 
L 292.211516 414942.840038 
L 291.033397 414942.840038 
L 289.855278 414942.840038 
L 288.677159 414942.840038 
L 287.49904 414942.840038 
L 286.320921 414942.840038 
L 285.142802 414942.840038 
L 283.964683 414942.840038 
L 282.786564 414942.840038 
L 281.608445 414942.840038 
L 280.430326 414942.840038 
L 279.252207 414942.840038 
L 278.074088 414942.840038 
L 276.895969 414942.840038 
L 275.71785 414942.840038 
L 274.539731 414942.840038 
L 273.361612 414942.840038 
L 272.183493 414942.840038 
L 271.005374 414942.840038 
L 269.827255 414942.840038 
L 268.649136 414942.840038 
L 267.471017 414942.840038 
L 266.292898 414942.840038 
L 265.114779 414942.840038 
L 263.93666 414942.840038 
L 262.758541 414942.840038 
L 261.580422 414942.840038 
L 260.402303 414942.840038 
L 259.224184 414942.840038 
L 258.046065 414942.840038 
L 256.867946 414942.840038 
L 255.689827 414942.840038 
L 254.511708 414942.840038 
L 253.333589 414942.840038 
L 252.15547 414942.840038 
L 250.977351 414942.840038 
L 249.799232 414942.840038 
L 248.621113 414942.840038 
L 247.442994 414942.840038 
L 246.264875 414942.840038 
L 245.086756 414942.840038 
L 243.908637 414942.840038 
L 242.730518 414942.840038 
L 241.552399 414942.840038 
L 240.37428 414942.840038 
L 239.196161 414942.840038 
L 238.018042 414942.840038 
L 236.839923 414942.840038 
L 235.661804 414942.840038 
L 234.483685 414942.840038 
L 233.305566 414942.840038 
L 232.127447 414942.840038 
L 230.949328 414942.840038 
L 229.771209 414942.840038 
L 228.59309 414942.840038 
L 227.414971 414942.840038 
L 226.236852 414942.840038 
L 225.058733 414942.840038 
L 223.880614 414942.840038 
L 222.702495 414942.840038 
L 221.524376 414942.840038 
L 220.346257 414942.840038 
L 219.168138 414942.840038 
L 217.990019 414942.840038 
L 216.8119 414942.840038 
L 215.633781 414942.840038 
L 214.455662 414942.840038 
L 213.277543 414942.840038 
L 212.099424 414942.840038 
L 210.921305 414942.840038 
L 209.743186 414942.840038 
L 208.565067 414942.840038 
L 207.386948 414942.840038 
L 206.208829 414942.840038 
L 205.03071 414942.840038 
L 203.852591 414942.840038 
L 202.674472 414942.840038 
L 201.496353 414942.840038 
L 200.318234 414942.840038 
L 199.140115 414942.840038 
L 197.961996 414942.840038 
L 196.783877 414942.840038 
L 195.605758 414942.840038 
L 194.427639 414942.840038 
L 193.24952 414942.840038 
L 192.071401 414942.840038 
L 190.893282 414942.840038 
L 189.715163 414942.840038 
L 188.537044 414942.840038 
L 187.358925 414942.840038 
L 186.180806 414942.840038 
L 185.002687 414942.840038 
L 183.824568 414942.840038 
L 182.646449 414942.840038 
L 181.46833 414942.840038 
L 180.290211 414942.840038 
L 179.112092 414942.840038 
L 177.933973 414942.840038 
L 176.755854 414942.840038 
L 175.577735 414942.840038 
L 174.399616 414942.840038 
L 173.221497 414942.840038 
L 172.043378 414942.840038 
L 170.865259 414942.840038 
L 169.68714 414942.840038 
L 168.509021 414942.840038 
L 167.330902 414942.840038 
L 166.152783 414942.840038 
L 164.974664 414942.840038 
L 163.796545 414942.840038 
L 162.618426 414942.840038 
L 161.440307 414942.840038 
L 160.262188 414942.840038 
L 159.084069 414942.840038 
L 157.90595 414942.840038 
L 156.727831 414942.840038 
L 155.549712 414942.840038 
L 154.371593 414942.840038 
L 153.193474 414942.840038 
L 152.015355 414942.840038 
L 150.837236 414942.840038 
L 149.659117 414942.840038 
L 148.480998 414942.840038 
L 147.302879 414942.840038 
L 146.12476 414942.840038 
L 144.946641 414942.840038 
L 143.768522 414942.840038 
L 142.590403 414942.840038 
L 141.412284 414942.840038 
L 140.234165 414942.840038 
L 139.056046 414942.840038 
L 137.877927 414942.840038 
L 136.699808 414942.840038 
L 135.521689 414942.840038 
L 134.34357 414942.840038 
L 133.165451 414942.840038 
L 131.987332 414942.840038 
L 130.809213 414942.840038 
L 129.631094 414942.840038 
L 128.452975 414942.840038 
L 127.274856 414942.840038 
L 126.096737 414942.840038 
L 124.918618 414942.840038 
L 123.740499 414942.840038 
L 122.56238 414942.840038 
L 121.384261 414942.840038 
L 120.206142 414942.840038 
L 119.028023 414942.840038 
L 117.849904 414942.840038 
L 116.671785 414942.840038 
L 115.493666 414942.840038 
L 114.315547 414942.840038 
L 113.137428 414942.840038 
L 111.959309 414942.840038 
L 110.78119 414942.840038 
L 109.603071 414942.840038 
L 108.424952 414942.840038 
L 107.246833 414942.840038 
L 106.068714 414942.840038 
L 104.890595 414942.840038 
L 103.712476 414942.840038 
L 102.534357 414942.840038 
L 101.356238 414942.840038 
L 100.178119 414942.840038 
L 99 414942.840038 
z
" style="fill:#ff8080;fill-opacity:0.5;stroke:#ff8080;stroke-opacity:0.5;"/>
   </g>
   <g id="matplotlib.axis_1">
    <g id="xtick_1">
     <g id="line2d_1">
      <path clip-path="url(#p68e2955192)" d="M 99 544.68 
L 99 73.44 
" style="fill:none;stroke:#b0b0b0;stroke-linecap:square;stroke-width:0.8;"/>
     </g>
     <g id="line2d_2">
      <defs>
       <path d="M 0 0 
L 0 3.5 
" id="m4abed1d830" style="stroke:#000000;stroke-width:0.8;"/>
      </defs>
      <g>
       <use style="stroke:#000000;stroke-width:0.8;" x="99" xlink:href="#m4abed1d830" y="544.68"/>
      </g>
     </g>
    </g>
    <g id="xtick_2">
     <g id="line2d_3">
      <path clip-path="url(#p68e2955192)" d="M 103.712476 544.68 
L 103.712476 73.44 
" style="fill:none;stroke:#b0b0b0;stroke-linecap:square;stroke-width:0.8;"/>
     </g>
     <g id="line2d_4">
      <g>
       <use style="stroke:#000000;stroke-width:0.8;" x="103.712476" xlink:href="#m4abed1d830" y="544.68"/>
      </g>
     </g>
     <g id="text_1">
      <!-- Apr -->
      <g transform="translate(95.062476 559.278437)scale(0.1 -0.1)">
       <defs>
        <path d="M 2188 4044 
L 1331 1722 
L 3047 1722 
L 2188 4044 
z
M 1831 4666 
L 2547 4666 
L 4325 0 
L 3669 0 
L 3244 1197 
L 1141 1197 
L 716 0 
L 50 0 
L 1831 4666 
z
" id="DejaVuSans-41" transform="scale(0.015625)"/>
        <path d="M 1159 525 
L 1159 -1331 
L 581 -1331 
L 581 3500 
L 1159 3500 
L 1159 2969 
Q 1341 3281 1617 3432 
Q 1894 3584 2278 3584 
Q 2916 3584 3314 3078 
Q 3713 2572 3713 1747 
Q 3713 922 3314 415 
Q 2916 -91 2278 -91 
Q 1894 -91 1617 61 
Q 1341 213 1159 525 
z
M 3116 1747 
Q 3116 2381 2855 2742 
Q 2594 3103 2138 3103 
Q 1681 3103 1420 2742 
Q 1159 2381 1159 1747 
Q 1159 1113 1420 752 
Q 1681 391 2138 391 
Q 2594 391 2855 752 
Q 3116 1113 3116 1747 
z
" id="DejaVuSans-70" transform="scale(0.015625)"/>
        <path d="M 2631 2963 
Q 2534 3019 2420 3045 
Q 2306 3072 2169 3072 
Q 1681 3072 1420 2755 
Q 1159 2438 1159 1844 
L 1159 0 
L 581 0 
L 581 3500 
L 1159 3500 
L 1159 2956 
Q 1341 3275 1631 3429 
Q 1922 3584 2338 3584 
Q 2397 3584 2469 3576 
Q 2541 3569 2628 3553 
L 2631 2963 
z
" id="DejaVuSans-72" transform="scale(0.015625)"/>
       </defs>
       <use xlink:href="#DejaVuSans-41"/>
       <use x="68.408203" xlink:href="#DejaVuSans-70"/>
       <use x="131.884766" xlink:href="#DejaVuSans-72"/>
      </g>
     </g>
    </g>
    <g id="xtick_3">
     <g id="line2d_5">
      <path clip-path="url(#p68e2955192)" d="M 210.921305 544.68 
L 210.921305 73.44 
" style="fill:none;stroke:#b0b0b0;stroke-linecap:square;stroke-width:0.8;"/>
     </g>
     <g id="line2d_6">
      <g>
       <use style="stroke:#000000;stroke-width:0.8;" x="210.921305" xlink:href="#m4abed1d830" y="544.68"/>
      </g>
     </g>
     <g id="text_2">
      <!-- Jul -->
      <g transform="translate(204.888493 559.278437)scale(0.1 -0.1)">
       <defs>
        <path d="M 628 4666 
L 1259 4666 
L 1259 325 
Q 1259 -519 939 -900 
Q 619 -1281 -91 -1281 
L -331 -1281 
L -331 -750 
L -134 -750 
Q 284 -750 456 -515 
Q 628 -281 628 325 
L 628 4666 
z
" id="DejaVuSans-4a" transform="scale(0.015625)"/>
        <path d="M 544 1381 
L 544 3500 
L 1119 3500 
L 1119 1403 
Q 1119 906 1312 657 
Q 1506 409 1894 409 
Q 2359 409 2629 706 
Q 2900 1003 2900 1516 
L 2900 3500 
L 3475 3500 
L 3475 0 
L 2900 0 
L 2900 538 
Q 2691 219 2414 64 
Q 2138 -91 1772 -91 
Q 1169 -91 856 284 
Q 544 659 544 1381 
z
M 1991 3584 
L 1991 3584 
z
" id="DejaVuSans-75" transform="scale(0.015625)"/>
        <path d="M 603 4863 
L 1178 4863 
L 1178 0 
L 603 0 
L 603 4863 
z
" id="DejaVuSans-6c" transform="scale(0.015625)"/>
       </defs>
       <use xlink:href="#DejaVuSans-4a"/>
       <use x="29.492188" xlink:href="#DejaVuSans-75"/>
       <use x="92.871094" xlink:href="#DejaVuSans-6c"/>
      </g>
     </g>
    </g>
    <g id="xtick_4">
     <g id="line2d_7">
      <path clip-path="url(#p68e2955192)" d="M 319.308253 544.68 
L 319.308253 73.44 
" style="fill:none;stroke:#b0b0b0;stroke-linecap:square;stroke-width:0.8;"/>
     </g>
     <g id="line2d_8">
      <g>
       <use style="stroke:#000000;stroke-width:0.8;" x="319.308253" xlink:href="#m4abed1d830" y="544.68"/>
      </g>
     </g>
     <g id="text_3">
      <!-- Oct -->
      <g transform="translate(310.662941 559.278437)scale(0.1 -0.1)">
       <defs>
        <path d="M 2522 4238 
Q 1834 4238 1429 3725 
Q 1025 3213 1025 2328 
Q 1025 1447 1429 934 
Q 1834 422 2522 422 
Q 3209 422 3611 934 
Q 4013 1447 4013 2328 
Q 4013 3213 3611 3725 
Q 3209 4238 2522 4238 
z
M 2522 4750 
Q 3503 4750 4090 4092 
Q 4678 3434 4678 2328 
Q 4678 1225 4090 567 
Q 3503 -91 2522 -91 
Q 1538 -91 948 565 
Q 359 1222 359 2328 
Q 359 3434 948 4092 
Q 1538 4750 2522 4750 
z
" id="DejaVuSans-4f" transform="scale(0.015625)"/>
        <path d="M 3122 3366 
L 3122 2828 
Q 2878 2963 2633 3030 
Q 2388 3097 2138 3097 
Q 1578 3097 1268 2742 
Q 959 2388 959 1747 
Q 959 1106 1268 751 
Q 1578 397 2138 397 
Q 2388 397 2633 464 
Q 2878 531 3122 666 
L 3122 134 
Q 2881 22 2623 -34 
Q 2366 -91 2075 -91 
Q 1284 -91 818 406 
Q 353 903 353 1747 
Q 353 2603 823 3093 
Q 1294 3584 2113 3584 
Q 2378 3584 2631 3529 
Q 2884 3475 3122 3366 
z
" id="DejaVuSans-63" transform="scale(0.015625)"/>
        <path d="M 1172 4494 
L 1172 3500 
L 2356 3500 
L 2356 3053 
L 1172 3053 
L 1172 1153 
Q 1172 725 1289 603 
Q 1406 481 1766 481 
L 2356 481 
L 2356 0 
L 1766 0 
Q 1100 0 847 248 
Q 594 497 594 1153 
L 594 3053 
L 172 3053 
L 172 3500 
L 594 3500 
L 594 4494 
L 1172 4494 
z
" id="DejaVuSans-74" transform="scale(0.015625)"/>
       </defs>
       <use xlink:href="#DejaVuSans-4f"/>
       <use x="78.710938" xlink:href="#DejaVuSans-63"/>
       <use x="133.691406" xlink:href="#DejaVuSans-74"/>
      </g>
     </g>
    </g>
    <g id="xtick_5">
     <g id="line2d_9">
      <path clip-path="url(#p68e2955192)" d="M 427.695202 544.68 
L 427.695202 73.44 
" style="fill:none;stroke:#b0b0b0;stroke-linecap:square;stroke-width:0.8;"/>
     </g>
     <g id="line2d_10">
      <g>
       <use style="stroke:#000000;stroke-width:0.8;" x="427.695202" xlink:href="#m4abed1d830" y="544.68"/>
      </g>
     </g>
     <g id="text_4">
      <!-- Jan -->
      <g transform="translate(419.987389 559.278437)scale(0.1 -0.1)">
       <defs>
        <path d="M 2194 1759 
Q 1497 1759 1228 1600 
Q 959 1441 959 1056 
Q 959 750 1161 570 
Q 1363 391 1709 391 
Q 2188 391 2477 730 
Q 2766 1069 2766 1631 
L 2766 1759 
L 2194 1759 
z
M 3341 1997 
L 3341 0 
L 2766 0 
L 2766 531 
Q 2569 213 2275 61 
Q 1981 -91 1556 -91 
Q 1019 -91 701 211 
Q 384 513 384 1019 
Q 384 1609 779 1909 
Q 1175 2209 1959 2209 
L 2766 2209 
L 2766 2266 
Q 2766 2663 2505 2880 
Q 2244 3097 1772 3097 
Q 1472 3097 1187 3025 
Q 903 2953 641 2809 
L 641 3341 
Q 956 3463 1253 3523 
Q 1550 3584 1831 3584 
Q 2591 3584 2966 3190 
Q 3341 2797 3341 1997 
z
" id="DejaVuSans-61" transform="scale(0.015625)"/>
        <path d="M 3513 2113 
L 3513 0 
L 2938 0 
L 2938 2094 
Q 2938 2591 2744 2837 
Q 2550 3084 2163 3084 
Q 1697 3084 1428 2787 
Q 1159 2491 1159 1978 
L 1159 0 
L 581 0 
L 581 3500 
L 1159 3500 
L 1159 2956 
Q 1366 3272 1645 3428 
Q 1925 3584 2291 3584 
Q 2894 3584 3203 3211 
Q 3513 2838 3513 2113 
z
" id="DejaVuSans-6e" transform="scale(0.015625)"/>
       </defs>
       <use xlink:href="#DejaVuSans-4a"/>
       <use x="29.492188" xlink:href="#DejaVuSans-61"/>
       <use x="90.771484" xlink:href="#DejaVuSans-6e"/>
      </g>
      <!-- 2021 -->
      <g transform="translate(414.970202 570.47625)scale(0.1 -0.1)">
       <defs>
        <path d="M 1228 531 
L 3431 531 
L 3431 0 
L 469 0 
L 469 531 
Q 828 903 1448 1529 
Q 2069 2156 2228 2338 
Q 2531 2678 2651 2914 
Q 2772 3150 2772 3378 
Q 2772 3750 2511 3984 
Q 2250 4219 1831 4219 
Q 1534 4219 1204 4116 
Q 875 4013 500 3803 
L 500 4441 
Q 881 4594 1212 4672 
Q 1544 4750 1819 4750 
Q 2544 4750 2975 4387 
Q 3406 4025 3406 3419 
Q 3406 3131 3298 2873 
Q 3191 2616 2906 2266 
Q 2828 2175 2409 1742 
Q 1991 1309 1228 531 
z
" id="DejaVuSans-32" transform="scale(0.015625)"/>
        <path d="M 2034 4250 
Q 1547 4250 1301 3770 
Q 1056 3291 1056 2328 
Q 1056 1369 1301 889 
Q 1547 409 2034 409 
Q 2525 409 2770 889 
Q 3016 1369 3016 2328 
Q 3016 3291 2770 3770 
Q 2525 4250 2034 4250 
z
M 2034 4750 
Q 2819 4750 3233 4129 
Q 3647 3509 3647 2328 
Q 3647 1150 3233 529 
Q 2819 -91 2034 -91 
Q 1250 -91 836 529 
Q 422 1150 422 2328 
Q 422 3509 836 4129 
Q 1250 4750 2034 4750 
z
" id="DejaVuSans-30" transform="scale(0.015625)"/>
        <path d="M 794 531 
L 1825 531 
L 1825 4091 
L 703 3866 
L 703 4441 
L 1819 4666 
L 2450 4666 
L 2450 531 
L 3481 531 
L 3481 0 
L 794 0 
L 794 531 
z
" id="DejaVuSans-31" transform="scale(0.015625)"/>
       </defs>
       <use xlink:href="#DejaVuSans-32"/>
       <use x="63.623047" xlink:href="#DejaVuSans-30"/>
       <use x="127.246094" xlink:href="#DejaVuSans-32"/>
       <use x="190.869141" xlink:href="#DejaVuSans-31"/>
      </g>
     </g>
    </g>
    <g id="xtick_6">
     <g id="line2d_11">
      <path clip-path="url(#p68e2955192)" d="M 533.725912 544.68 
L 533.725912 73.44 
" style="fill:none;stroke:#b0b0b0;stroke-linecap:square;stroke-width:0.8;"/>
     </g>
     <g id="line2d_12">
      <g>
       <use style="stroke:#000000;stroke-width:0.8;" x="533.725912" xlink:href="#m4abed1d830" y="544.68"/>
      </g>
     </g>
     <g id="text_5">
      <!-- Apr -->
      <g transform="translate(525.075912 559.278437)scale(0.1 -0.1)">
       <use xlink:href="#DejaVuSans-41"/>
       <use x="68.408203" xlink:href="#DejaVuSans-70"/>
       <use x="131.884766" xlink:href="#DejaVuSans-72"/>
      </g>
     </g>
    </g>
    <g id="xtick_7">
     <g id="line2d_13">
      <path clip-path="url(#p68e2955192)" d="M 640.934741 544.68 
L 640.934741 73.44 
" style="fill:none;stroke:#b0b0b0;stroke-linecap:square;stroke-width:0.8;"/>
     </g>
     <g id="line2d_14">
      <g>
       <use style="stroke:#000000;stroke-width:0.8;" x="640.934741" xlink:href="#m4abed1d830" y="544.68"/>
      </g>
     </g>
     <g id="text_6">
      <!-- Jul -->
      <g transform="translate(634.901928 559.278437)scale(0.1 -0.1)">
       <use xlink:href="#DejaVuSans-4a"/>
       <use x="29.492188" xlink:href="#DejaVuSans-75"/>
       <use x="92.871094" xlink:href="#DejaVuSans-6c"/>
      </g>
     </g>
    </g>
    <g id="xtick_8">
     <g id="line2d_15">
      <path clip-path="url(#p68e2955192)" d="M 712.8 544.68 
L 712.8 73.44 
" style="fill:none;stroke:#b0b0b0;stroke-linecap:square;stroke-width:0.8;"/>
     </g>
     <g id="line2d_16">
      <g>
       <use style="stroke:#000000;stroke-width:0.8;" x="712.8" xlink:href="#m4abed1d830" y="544.68"/>
      </g>
     </g>
    </g>
    <g id="xtick_9">
     <g id="line2d_17">
      <defs>
       <path d="M 0 0 
L 0 2 
" id="mbe9820739d" style="stroke:#000000;stroke-width:0.6;"/>
      </defs>
      <g>
       <use style="stroke:#000000;stroke-width:0.6;" x="139.056046" xlink:href="#mbe9820739d" y="544.68"/>
      </g>
     </g>
    </g>
    <g id="xtick_10">
     <g id="line2d_18">
      <g>
       <use style="stroke:#000000;stroke-width:0.6;" x="175.577735" xlink:href="#mbe9820739d" y="544.68"/>
      </g>
     </g>
    </g>
    <g id="xtick_11">
     <g id="line2d_19">
      <g>
       <use style="stroke:#000000;stroke-width:0.6;" x="247.442994" xlink:href="#mbe9820739d" y="544.68"/>
      </g>
     </g>
    </g>
    <g id="xtick_12">
     <g id="line2d_20">
      <g>
       <use style="stroke:#000000;stroke-width:0.6;" x="283.964683" xlink:href="#mbe9820739d" y="544.68"/>
      </g>
     </g>
    </g>
    <g id="xtick_13">
     <g id="line2d_21">
      <g>
       <use style="stroke:#000000;stroke-width:0.6;" x="355.829942" xlink:href="#mbe9820739d" y="544.68"/>
      </g>
     </g>
    </g>
    <g id="xtick_14">
     <g id="line2d_22">
      <g>
       <use style="stroke:#000000;stroke-width:0.6;" x="391.173512" xlink:href="#mbe9820739d" y="544.68"/>
      </g>
     </g>
    </g>
    <g id="xtick_15">
     <g id="line2d_23">
      <g>
       <use style="stroke:#000000;stroke-width:0.6;" x="464.216891" xlink:href="#mbe9820739d" y="544.68"/>
      </g>
     </g>
    </g>
    <g id="xtick_16">
     <g id="line2d_24">
      <g>
       <use style="stroke:#000000;stroke-width:0.6;" x="497.204223" xlink:href="#mbe9820739d" y="544.68"/>
      </g>
     </g>
    </g>
    <g id="xtick_17">
     <g id="line2d_25">
      <g>
       <use style="stroke:#000000;stroke-width:0.6;" x="569.069482" xlink:href="#mbe9820739d" y="544.68"/>
      </g>
     </g>
    </g>
    <g id="xtick_18">
     <g id="line2d_26">
      <g>
       <use style="stroke:#000000;stroke-width:0.6;" x="605.591171" xlink:href="#mbe9820739d" y="544.68"/>
      </g>
     </g>
    </g>
    <g id="xtick_19">
     <g id="line2d_27">
      <g>
       <use style="stroke:#000000;stroke-width:0.6;" x="677.45643" xlink:href="#mbe9820739d" y="544.68"/>
      </g>
     </g>
    </g>
    <g id="text_7">
     <!-- Date -->
     <g transform="translate(393.949219 584.154375)scale(0.1 -0.1)">
      <defs>
       <path d="M 1259 4147 
L 1259 519 
L 2022 519 
Q 2988 519 3436 956 
Q 3884 1394 3884 2338 
Q 3884 3275 3436 3711 
Q 2988 4147 2022 4147 
L 1259 4147 
z
M 628 4666 
L 1925 4666 
Q 3281 4666 3915 4102 
Q 4550 3538 4550 2338 
Q 4550 1131 3912 565 
Q 3275 0 1925 0 
L 628 0 
L 628 4666 
z
" id="DejaVuSans-44" transform="scale(0.015625)"/>
       <path d="M 3597 1894 
L 3597 1613 
L 953 1613 
Q 991 1019 1311 708 
Q 1631 397 2203 397 
Q 2534 397 2845 478 
Q 3156 559 3463 722 
L 3463 178 
Q 3153 47 2828 -22 
Q 2503 -91 2169 -91 
Q 1331 -91 842 396 
Q 353 884 353 1716 
Q 353 2575 817 3079 
Q 1281 3584 2069 3584 
Q 2775 3584 3186 3129 
Q 3597 2675 3597 1894 
z
M 3022 2063 
Q 3016 2534 2758 2815 
Q 2500 3097 2075 3097 
Q 1594 3097 1305 2825 
Q 1016 2553 972 2059 
L 3022 2063 
z
" id="DejaVuSans-65" transform="scale(0.015625)"/>
      </defs>
      <use xlink:href="#DejaVuSans-44"/>
      <use x="77.001953" xlink:href="#DejaVuSans-61"/>
      <use x="138.28125" xlink:href="#DejaVuSans-74"/>
      <use x="177.490234" xlink:href="#DejaVuSans-65"/>
     </g>
    </g>
   </g>
   <g id="matplotlib.axis_2">
    <g id="ytick_1">
     <g id="line2d_28">
      <path clip-path="url(#p68e2955192)" d="M 99 398.46971 
L 712.8 398.46971 
" style="fill:none;stroke:#b0b0b0;stroke-linecap:square;stroke-width:0.8;"/>
     </g>
     <g id="line2d_29">
      <defs>
       <path d="M 0 0 
L -3.5 0 
" id="me91a084207" style="stroke:#000000;stroke-width:0.8;"/>
      </defs>
      <g>
       <use style="stroke:#000000;stroke-width:0.8;" x="99" xlink:href="#me91a084207" y="398.46971"/>
      </g>
     </g>
     <g id="text_8">
      <!-- $\mathdefault{10^{0}}$ -->
      <g transform="translate(74.4 402.268929)scale(0.1 -0.1)">
       <use transform="translate(0 0.765625)" xlink:href="#DejaVuSans-31"/>
       <use transform="translate(63.623047 0.765625)" xlink:href="#DejaVuSans-30"/>
       <use transform="translate(128.203125 39.046875)scale(0.7)" xlink:href="#DejaVuSans-30"/>
      </g>
     </g>
    </g>
    <g id="ytick_2">
     <g id="line2d_30">
      <path clip-path="url(#p68e2955192)" d="M 99 523.26 
L 712.8 523.26 
" style="fill:none;stroke:#b0b0b0;stroke-linecap:square;stroke-width:0.8;"/>
     </g>
     <g id="line2d_31">
      <defs>
       <path d="M 0 0 
L -2 0 
" id="m0cb60b688e" style="stroke:#000000;stroke-width:0.6;"/>
      </defs>
      <g>
       <use style="stroke:#000000;stroke-width:0.6;" x="99" xlink:href="#m0cb60b688e" y="523.26"/>
      </g>
     </g>
    </g>
    <g id="ytick_3">
     <g id="line2d_32">
      <path clip-path="url(#p68e2955192)" d="M 99 490.43586 
L 712.8 490.43586 
" style="fill:none;stroke:#b0b0b0;stroke-linecap:square;stroke-width:0.8;"/>
     </g>
     <g id="line2d_33">
      <g>
       <use style="stroke:#000000;stroke-width:0.6;" x="99" xlink:href="#m0cb60b688e" y="490.43586"/>
      </g>
     </g>
    </g>
    <g id="ytick_4">
     <g id="line2d_34">
      <path clip-path="url(#p68e2955192)" d="M 99 462.683445 
L 712.8 462.683445 
" style="fill:none;stroke:#b0b0b0;stroke-linecap:square;stroke-width:0.8;"/>
     </g>
     <g id="line2d_35">
      <g>
       <use style="stroke:#000000;stroke-width:0.6;" x="99" xlink:href="#m0cb60b688e" y="462.683445"/>
      </g>
     </g>
    </g>
    <g id="ytick_5">
     <g id="line2d_36">
      <path clip-path="url(#p68e2955192)" d="M 99 438.64321 
L 712.8 438.64321 
" style="fill:none;stroke:#b0b0b0;stroke-linecap:square;stroke-width:0.8;"/>
     </g>
     <g id="line2d_37">
      <g>
       <use style="stroke:#000000;stroke-width:0.6;" x="99" xlink:href="#m0cb60b688e" y="438.64321"/>
      </g>
     </g>
    </g>
    <g id="ytick_6">
     <g id="line2d_38">
      <path clip-path="url(#p68e2955192)" d="M 99 417.43822 
L 712.8 417.43822 
" style="fill:none;stroke:#b0b0b0;stroke-linecap:square;stroke-width:0.8;"/>
     </g>
     <g id="line2d_39">
      <g>
       <use style="stroke:#000000;stroke-width:0.6;" x="99" xlink:href="#m0cb60b688e" y="417.43822"/>
      </g>
     </g>
    </g>
    <g id="ytick_7">
     <g id="line2d_40">
      <path clip-path="url(#p68e2955192)" d="M 99 273.67942 
L 712.8 273.67942 
" style="fill:none;stroke:#b0b0b0;stroke-linecap:square;stroke-width:0.8;"/>
     </g>
     <g id="line2d_41">
      <g>
       <use style="stroke:#000000;stroke-width:0.6;" x="99" xlink:href="#m0cb60b688e" y="273.67942"/>
      </g>
     </g>
    </g>
    <g id="ytick_8">
     <g id="line2d_42">
      <path clip-path="url(#p68e2955192)" d="M 99 200.68178 
L 712.8 200.68178 
" style="fill:none;stroke:#b0b0b0;stroke-linecap:square;stroke-width:0.8;"/>
     </g>
     <g id="line2d_43">
      <g>
       <use style="stroke:#000000;stroke-width:0.6;" x="99" xlink:href="#m0cb60b688e" y="200.68178"/>
      </g>
     </g>
    </g>
    <g id="ytick_9">
     <g id="line2d_44">
      <path clip-path="url(#p68e2955192)" d="M 99 148.88913 
L 712.8 148.88913 
" style="fill:none;stroke:#b0b0b0;stroke-linecap:square;stroke-width:0.8;"/>
     </g>
     <g id="line2d_45">
      <g>
       <use style="stroke:#000000;stroke-width:0.6;" x="99" xlink:href="#m0cb60b688e" y="148.88913"/>
      </g>
     </g>
    </g>
    <g id="ytick_10">
     <g id="line2d_46">
      <path clip-path="url(#p68e2955192)" d="M 99 108.71563 
L 712.8 108.71563 
" style="fill:none;stroke:#b0b0b0;stroke-linecap:square;stroke-width:0.8;"/>
     </g>
     <g id="line2d_47">
      <g>
       <use style="stroke:#000000;stroke-width:0.6;" x="99" xlink:href="#m0cb60b688e" y="108.71563"/>
      </g>
     </g>
    </g>
    <g id="ytick_11">
     <g id="line2d_48">
      <path clip-path="url(#p68e2955192)" d="M 99 75.89149 
L 712.8 75.89149 
" style="fill:none;stroke:#b0b0b0;stroke-linecap:square;stroke-width:0.8;"/>
     </g>
     <g id="line2d_49">
      <g>
       <use style="stroke:#000000;stroke-width:0.6;" x="99" xlink:href="#m0cb60b688e" y="75.89149"/>
      </g>
     </g>
    </g>
   </g>
   <g id="line2d_50">
    <path clip-path="url(#p68e2955192)" d="M 258.04581 613 
L 258.046065 523.26 
L 260.402303 523.26 
L 260.402558 613 
M 262.758286 613 
L 262.758541 523.26 
L 262.758796 613 
M 698.662317 613 
L 698.662572 523.26 
L 698.662827 613 
M 706.90915 613 
L 706.909405 523.26 
L 711.621881 523.26 
L 711.622136 613 
L 711.622136 613 
" style="fill:none;stroke:#1f77b4;stroke-linecap:square;stroke-width:1.5;"/>
   </g>
   <g id="line2d_51">
    <path clip-path="url(#p68e2955192)" d="M 0 0 
" style="fill:none;stroke:#ff7f0e;stroke-linecap:square;stroke-width:1.5;"/>
   </g>
   <g id="patch_3">
    <path d="M 99 544.68 
L 99 73.44 
" style="fill:none;stroke:#000000;stroke-linecap:square;stroke-linejoin:miter;stroke-width:0.8;"/>
   </g>
   <g id="patch_4">
    <path d="M 712.8 544.68 
L 712.8 73.44 
" style="fill:none;stroke:#000000;stroke-linecap:square;stroke-linejoin:miter;stroke-width:0.8;"/>
   </g>
   <g id="patch_5">
    <path d="M 99 544.68 
L 712.8 544.68 
" style="fill:none;stroke:#000000;stroke-linecap:square;stroke-linejoin:miter;stroke-width:0.8;"/>
   </g>
   <g id="patch_6">
    <path d="M 99 73.44 
L 712.8 73.44 
" style="fill:none;stroke:#000000;stroke-linecap:square;stroke-linejoin:miter;stroke-width:0.8;"/>
   </g>
   <g id="legend_1">
    <g id="patch_7">
     <path d="M 616.653125 110.79625 
L 705.8 110.79625 
Q 707.8 110.79625 707.8 108.79625 
L 707.8 80.44 
Q 707.8 78.44 705.8 78.44 
L 616.653125 78.44 
Q 614.653125 78.44 614.653125 80.44 
L 614.653125 108.79625 
Q 614.653125 110.79625 616.653125 110.79625 
z
" style="fill:#ffffff;opacity:0.8;stroke:#cccccc;stroke-linejoin:miter;"/>
    </g>
    <g id="line2d_52">
     <path d="M 618.653125 86.538437 
L 638.653125 86.538437 
" style="fill:none;stroke:#1f77b4;stroke-linecap:square;stroke-width:1.5;"/>
    </g>
    <g id="line2d_53"/>
    <g id="text_9">
     <!-- Avg Cases -->
     <g transform="translate(646.653125 90.038437)scale(0.1 -0.1)">
      <defs>
       <path d="M 191 3500 
L 800 3500 
L 1894 563 
L 2988 3500 
L 3597 3500 
L 2284 0 
L 1503 0 
L 191 3500 
z
" id="DejaVuSans-76" transform="scale(0.015625)"/>
       <path d="M 2906 1791 
Q 2906 2416 2648 2759 
Q 2391 3103 1925 3103 
Q 1463 3103 1205 2759 
Q 947 2416 947 1791 
Q 947 1169 1205 825 
Q 1463 481 1925 481 
Q 2391 481 2648 825 
Q 2906 1169 2906 1791 
z
M 3481 434 
Q 3481 -459 3084 -895 
Q 2688 -1331 1869 -1331 
Q 1566 -1331 1297 -1286 
Q 1028 -1241 775 -1147 
L 775 -588 
Q 1028 -725 1275 -790 
Q 1522 -856 1778 -856 
Q 2344 -856 2625 -561 
Q 2906 -266 2906 331 
L 2906 616 
Q 2728 306 2450 153 
Q 2172 0 1784 0 
Q 1141 0 747 490 
Q 353 981 353 1791 
Q 353 2603 747 3093 
Q 1141 3584 1784 3584 
Q 2172 3584 2450 3431 
Q 2728 3278 2906 2969 
L 2906 3500 
L 3481 3500 
L 3481 434 
z
" id="DejaVuSans-67" transform="scale(0.015625)"/>
       <path id="DejaVuSans-20" transform="scale(0.015625)"/>
       <path d="M 4122 4306 
L 4122 3641 
Q 3803 3938 3442 4084 
Q 3081 4231 2675 4231 
Q 1875 4231 1450 3742 
Q 1025 3253 1025 2328 
Q 1025 1406 1450 917 
Q 1875 428 2675 428 
Q 3081 428 3442 575 
Q 3803 722 4122 1019 
L 4122 359 
Q 3791 134 3420 21 
Q 3050 -91 2638 -91 
Q 1578 -91 968 557 
Q 359 1206 359 2328 
Q 359 3453 968 4101 
Q 1578 4750 2638 4750 
Q 3056 4750 3426 4639 
Q 3797 4528 4122 4306 
z
" id="DejaVuSans-43" transform="scale(0.015625)"/>
       <path d="M 2834 3397 
L 2834 2853 
Q 2591 2978 2328 3040 
Q 2066 3103 1784 3103 
Q 1356 3103 1142 2972 
Q 928 2841 928 2578 
Q 928 2378 1081 2264 
Q 1234 2150 1697 2047 
L 1894 2003 
Q 2506 1872 2764 1633 
Q 3022 1394 3022 966 
Q 3022 478 2636 193 
Q 2250 -91 1575 -91 
Q 1294 -91 989 -36 
Q 684 19 347 128 
L 347 722 
Q 666 556 975 473 
Q 1284 391 1588 391 
Q 1994 391 2212 530 
Q 2431 669 2431 922 
Q 2431 1156 2273 1281 
Q 2116 1406 1581 1522 
L 1381 1569 
Q 847 1681 609 1914 
Q 372 2147 372 2553 
Q 372 3047 722 3315 
Q 1072 3584 1716 3584 
Q 2034 3584 2315 3537 
Q 2597 3491 2834 3397 
z
" id="DejaVuSans-73" transform="scale(0.015625)"/>
      </defs>
      <use xlink:href="#DejaVuSans-41"/>
      <use x="62.533203" xlink:href="#DejaVuSans-76"/>
      <use x="121.712891" xlink:href="#DejaVuSans-67"/>
      <use x="185.189453" xlink:href="#DejaVuSans-20"/>
      <use x="216.976562" xlink:href="#DejaVuSans-43"/>
      <use x="286.800781" xlink:href="#DejaVuSans-61"/>
      <use x="348.080078" xlink:href="#DejaVuSans-73"/>
      <use x="400.179688" xlink:href="#DejaVuSans-65"/>
      <use x="461.703125" xlink:href="#DejaVuSans-73"/>
     </g>
    </g>
    <g id="line2d_54">
     <path d="M 618.653125 101.216562 
L 638.653125 101.216562 
" style="fill:none;stroke:#ff7f0e;stroke-linecap:square;stroke-width:1.5;"/>
    </g>
    <g id="line2d_55"/>
    <g id="text_10">
     <!-- Avg Deaths -->
     <g transform="translate(646.653125 104.716562)scale(0.1 -0.1)">
      <defs>
       <path d="M 3513 2113 
L 3513 0 
L 2938 0 
L 2938 2094 
Q 2938 2591 2744 2837 
Q 2550 3084 2163 3084 
Q 1697 3084 1428 2787 
Q 1159 2491 1159 1978 
L 1159 0 
L 581 0 
L 581 4863 
L 1159 4863 
L 1159 2956 
Q 1366 3272 1645 3428 
Q 1925 3584 2291 3584 
Q 2894 3584 3203 3211 
Q 3513 2838 3513 2113 
z
" id="DejaVuSans-68" transform="scale(0.015625)"/>
      </defs>
      <use xlink:href="#DejaVuSans-41"/>
      <use x="62.533203" xlink:href="#DejaVuSans-76"/>
      <use x="121.712891" xlink:href="#DejaVuSans-67"/>
      <use x="185.189453" xlink:href="#DejaVuSans-20"/>
      <use x="216.976562" xlink:href="#DejaVuSans-44"/>
      <use x="293.978516" xlink:href="#DejaVuSans-65"/>
      <use x="355.501953" xlink:href="#DejaVuSans-61"/>
      <use x="416.78125" xlink:href="#DejaVuSans-74"/>
      <use x="455.990234" xlink:href="#DejaVuSans-68"/>
      <use x="519.369141" xlink:href="#DejaVuSans-73"/>
     </g>
    </g>
   </g>
  </g>
 </g>
 <defs>
  <clipPath id="p68e2955192">
   <rect height="471.24" width="613.8" x="99" y="73.44"/>
  </clipPath>
 </defs>
</svg>
