<?xml version="1.0" encoding="utf-8" standalone="no"?>
<!DOCTYPE svg PUBLIC "-//W3C//DTD SVG 1.1//EN"
  "http://www.w3.org/Graphics/SVG/1.1/DTD/svg11.dtd">
<svg height="612pt" version="1.1" viewBox="0 0 792 612" width="792pt" xmlns="http://www.w3.org/2000/svg" xmlns:xlink="http://www.w3.org/1999/xlink">
 <metadata>
  <rdf:RDF xmlns:cc="http://creativecommons.org/ns#" xmlns:dc="http://purl.org/dc/elements/1.1/" xmlns:rdf="http://www.w3.org/1999/02/22-rdf-syntax-ns#">
   <cc:Work>
    <dc:type rdf:resource="http://purl.org/dc/dcmitype/StillImage"/>
    <dc:format>image/svg+xml</dc:format>
    <dc:creator>
     <cc:Agent>
      <dc:title>Matplotlib v3.4.2, https://matplotlib.org/</dc:title>
     </cc:Agent>
    </dc:creator>
   </cc:Work>
  </rdf:RDF>
 </metadata>
 <defs>
  <style type="text/css">*{stroke-linecap:butt;stroke-linejoin:round;}</style>
 </defs>
 <g id="figure_1">
  <g id="patch_1">
   <path d="M 0 612 
L 792 612 
L 792 0 
L 0 0 
z
" style="fill:#ffffff;"/>
  </g>
  <g id="axes_1">
   <g id="patch_2">
    <path d="M 99 544.68 
L 712.8 544.68 
L 712.8 73.44 
L 99 73.44 
z
" style="fill:#ffffff;"/>
   </g>
   <g id="PolyCollection_1">
    <path clip-path="url(#p68e2955192)" d="M 99 159532.315455 
L 99 159532.315455 
L 100.171374 159532.315455 
L 101.342748 159532.315455 
L 102.514122 159532.315455 
L 103.685496 159532.315455 
L 104.85687 159532.315455 
L 106.028244 159532.315455 
L 107.199618 159532.315455 
L 108.370992 159532.315455 
L 109.542366 159532.315455 
L 110.71374 159532.315455 
L 111.885115 159532.315455 
L 113.056489 159532.315455 
L 114.227863 368.477265 
L 115.399237 347.150574 
L 116.570611 347.150574 
L 117.741985 283.425065 
L 118.913359 268.441246 
L 120.084733 261.544175 
L 121.256107 249.001963 
L 122.427481 246.694891 
L 123.598855 245.942678 
L 124.770229 245.942678 
L 125.941603 245.942678 
L 127.112977 234.05856 
L 128.284351 234.05856 
L 129.455725 234.05856 
L 130.627099 227.075088 
L 131.798473 209.714903 
L 132.969847 203.77821 
L 134.141221 203.77821 
L 135.312595 203.77821 
L 136.483969 203.77821 
L 137.655344 203.77821 
L 138.826718 203.77821 
L 139.998092 203.77821 
L 141.169466 203.77821 
L 142.34084 203.77821 
L 143.512214 203.77821 
L 144.683588 203.77821 
L 145.854962 203.77821 
L 147.026336 203.77821 
L 148.19771 211.965185 
L 149.369084 235.974547 
L 150.540458 235.974547 
L 151.711832 237.282047 
L 152.883206 241.359939 
L 154.05458 241.359939 
L 155.225954 258.487147 
L 156.397328 270.190138 
L 157.568702 270.190138 
L 158.740076 290.655455 
L 159.91145 290.655455 
L 161.082824 290.655455 
L 162.254198 290.655455 
L 163.425573 287.85463 
L 164.596947 304.888823 
L 165.768321 301.462788 
L 166.939695 301.462788 
L 168.111069 301.462788 
L 169.282443 301.462788 
L 170.453817 301.462788 
L 171.625191 301.462788 
L 172.796565 315.63481 
L 173.967939 315.63481 
L 175.139313 315.63481 
L 176.310687 315.63481 
L 177.482061 315.63481 
L 178.653435 315.63481 
L 179.824809 334.376592 
L 180.996183 339.980546 
L 182.167557 355.151952 
L 183.338931 355.151952 
L 184.510305 355.151952 
L 185.681679 355.151952 
L 186.853053 355.151952 
L 188.024427 355.151952 
L 189.195802 355.151952 
L 190.367176 358.886783 
L 191.53855 351.608737 
L 192.709924 351.608737 
L 193.881298 351.608737 
L 195.052672 351.608737 
L 196.224046 351.608737 
L 197.39542 351.608737 
L 198.566794 355.151952 
L 199.738168 355.151952 
L 200.909542 355.151952 
L 202.080916 355.151952 
L 203.25229 355.151952 
L 204.423664 355.151952 
L 205.595038 287.85463 
L 206.766412 274.201043 
L 207.937786 274.201043 
L 209.10916 274.201043 
L 210.280534 274.201043 
L 211.451908 274.201043 
L 212.623282 274.201043 
L 213.794656 274.201043 
L 214.966031 274.201043 
L 216.137405 274.201043 
L 217.308779 274.201043 
L 218.480153 274.201043 
L 219.651527 282.149751 
L 220.822901 282.149751 
L 221.994275 292.58782 
L 223.165649 303.727828 
L 224.337023 305.47672 
L 225.508397 305.47672 
L 226.679771 292.58782 
L 227.851145 309.113221 
L 229.022519 309.113221 
L 230.193893 309.113221 
L 231.365267 309.113221 
L 232.536641 309.113221 
L 233.708015 309.113221 
L 234.879389 309.113221 
L 236.050763 286.048578 
L 237.222137 286.048578 
L 238.393511 286.048578 
L 239.564885 287.398671 
L 240.73626 287.398671 
L 241.907634 287.398671 
L 243.079008 313.612884 
L 244.250382 290.655455 
L 245.421756 290.655455 
L 246.59313 290.655455 
L 247.764504 287.85463 
L 248.935878 287.85463 
L 250.107252 287.85463 
L 251.278626 287.85463 
L 252.45 298.198674 
L 253.621374 298.198674 
L 254.792748 298.198674 
L 255.964122 298.198674 
L 257.135496 298.198674 
L 258.30687 298.198674 
L 259.478244 298.198674 
L 260.649618 299.811453 
L 261.820992 299.811453 
L 262.992366 299.811453 
L 264.16374 305.47672 
L 265.335115 305.47672 
L 266.506489 305.47672 
L 267.677863 309.738361 
L 268.849237 309.738361 
L 270.020611 309.738361 
L 271.191985 309.738361 
L 272.363359 311.648461 
L 273.534733 315.63481 
L 274.706107 315.63481 
L 275.877481 315.63481 
L 277.048855 325.942037 
L 278.220229 328.36606 
L 279.391603 340.960386 
L 280.562977 340.960386 
L 281.734351 340.960386 
L 282.905725 328.36606 
L 284.077099 328.36606 
L 285.248473 328.36606 
L 286.419847 318.426202 
L 287.591221 318.426202 
L 288.762595 318.426202 
L 289.933969 307.271043 
L 291.105344 307.271043 
L 292.276718 307.271043 
L 293.448092 307.271043 
L 294.619466 307.271043 
L 295.79084 303.727828 
L 296.962214 303.727828 
L 298.133588 303.727828 
L 299.304962 303.727828 
L 300.476336 303.727828 
L 301.64771 303.727828 
L 302.819084 309.113221 
L 303.990458 303.727828 
L 305.161832 303.727828 
L 306.333206 305.47672 
L 307.50458 305.47672 
L 308.675954 305.47672 
L 309.847328 305.47672 
L 311.018702 305.47672 
L 312.190076 309.738361 
L 313.36145 309.738361 
L 314.532824 309.738361 
L 315.704198 309.738361 
L 316.875573 309.738361 
L 318.046947 309.738361 
L 319.218321 309.738361 
L 320.389695 313.612884 
L 321.561069 325.942037 
L 322.732443 313.612884 
L 323.903817 328.36606 
L 325.075191 328.36606 
L 326.246565 328.36606 
L 327.417939 328.36606 
L 328.589313 328.36606 
L 329.760687 328.36606 
L 330.932061 328.36606 
L 332.103435 328.36606 
L 333.274809 328.36606 
L 334.446183 328.36606 
L 335.617557 328.36606 
L 336.788931 334.376592 
L 337.960305 334.376592 
L 339.131679 343.986164 
L 340.303053 347.150574 
L 341.474427 347.150574 
L 342.645802 347.150574 
L 343.817176 334.376592 
L 344.98855 320.596356 
L 346.159924 320.596356 
L 347.331298 303.154567 
L 348.502672 303.154567 
L 349.674046 303.154567 
L 350.84542 301.462788 
L 352.016794 301.462788 
L 353.188168 301.462788 
L 354.359542 301.462788 
L 355.530916 301.462788 
L 356.70229 301.462788 
L 357.873664 301.462788 
L 359.045038 294.5758 
L 360.216412 296.105255 
L 361.387786 296.105255 
L 362.55916 296.105255 
L 363.730534 305.47672 
L 364.901908 305.47672 
L 366.073282 296.105255 
L 367.244656 289.709172 
L 368.416031 285.162956 
L 369.587405 256.715831 
L 370.758779 244.218728 
L 371.930153 244.218728 
L 373.101527 241.126962 
L 374.272901 241.126962 
L 375.444275 241.126962 
L 376.615649 241.126962 
L 377.787023 241.126962 
L 378.958397 241.126962 
L 380.129771 241.126962 
L 381.301145 241.126962 
L 382.472519 240.43271 
L 383.643893 240.43271 
L 384.815267 240.43271 
L 385.986641 240.43271 
L 387.158015 231.381598 
L 388.329389 231.381598 
L 389.500763 216.698375 
L 390.672137 210.307847 
L 391.843511 186.810427 
L 393.014885 167.443145 
L 394.18626 158.943298 
L 395.357634 158.943298 
L 396.529008 149.931932 
L 397.700382 149.931932 
L 398.871756 149.931932 
L 400.04313 145.773371 
L 401.214504 134.022541 
L 402.385878 134.022541 
L 403.557252 134.022541 
L 404.728626 134.022541 
L 405.9 134.022541 
L 407.071374 134.022541 
L 408.242748 134.022541 
L 409.414122 129.718741 
L 410.585496 129.718741 
L 411.75687 129.718741 
L 412.928244 129.718741 
L 414.099618 129.718741 
L 415.270992 120.895743 
L 416.442366 116.62399 
L 417.61374 116.62399 
L 418.785115 116.62399 
L 419.956489 116.62399 
L 421.127863 116.62399 
L 422.299237 116.62399 
L 423.470611 116.62399 
L 424.641985 116.62399 
L 425.813359 122.2555 
L 426.984733 122.2555 
L 428.156107 122.2555 
L 429.327481 122.2555 
L 430.498855 122.2555 
L 431.670229 139.088622 
L 432.841603 139.088622 
L 434.012977 139.088622 
L 435.184351 140.212729 
L 436.355725 140.212729 
L 437.527099 140.212729 
L 438.698473 140.212729 
L 439.869847 140.212729 
L 441.041221 140.37482 
L 442.212595 144.613351 
L 443.383969 135.974155 
L 444.555344 139.568144 
L 445.726718 140.051018 
L 446.898092 140.051018 
L 448.069466 140.051018 
L 449.24084 141.57525 
L 450.412214 141.57525 
L 451.583588 120.488925 
L 452.754962 120.488925 
L 453.926336 120.488925 
L 455.09771 117.04719 
L 456.269084 117.04719 
L 457.440458 100.636836 
L 458.611832 97.863223 
L 459.783206 97.863223 
L 460.95458 97.863223 
L 462.125954 97.863223 
L 463.297328 97.863223 
L 464.468702 97.863223 
L 465.640076 97.863223 
L 466.81145 97.863223 
L 467.982824 105.131526 
L 469.154198 105.131526 
L 470.325573 105.131526 
L 471.496947 105.131526 
L 472.668321 105.131526 
L 473.839695 110.148373 
L 475.011069 116.50902 
L 476.182443 116.50902 
L 477.353817 116.50902 
L 478.525191 116.50902 
L 479.696565 116.50902 
L 480.867939 116.50902 
L 482.039313 118.924838 
L 483.210687 118.924838 
L 484.382061 120.610719 
L 485.553435 120.610719 
L 486.724809 122.2139 
L 487.896183 122.2139 
L 489.067557 122.338776 
L 490.238931 119.123394 
L 491.410305 122.338776 
L 492.581679 121.716639 
L 493.753053 121.716639 
L 494.924427 121.716639 
L 496.095802 121.716639 
L 497.267176 121.716639 
L 498.43855 121.716639 
L 499.609924 120.245979 
L 500.781298 123.77005 
L 501.952672 123.77005 
L 503.124046 119.963618 
L 504.29542 119.963618 
L 505.466794 119.963618 
L 506.638168 123.77005 
L 507.809542 123.77005 
L 508.980916 123.897775 
L 510.15229 123.897775 
L 511.323664 123.897775 
L 512.495038 123.897775 
L 513.666412 123.897775 
L 514.837786 123.897775 
L 516.00916 128.843455 
L 517.180534 130.37086 
L 518.351908 130.37086 
L 519.523282 136.688405 
L 520.694656 136.688405 
L 521.866031 136.688405 
L 523.037405 136.688405 
L 524.208779 136.688405 
L 525.380153 133.042701 
L 526.551527 133.042701 
L 527.722901 133.042701 
L 528.894275 133.042701 
L 530.065649 133.042701 
L 531.237023 133.042701 
L 532.408397 133.042701 
L 533.579771 133.335196 
L 534.751145 117.472999 
L 535.922519 117.472999 
L 537.093893 117.472999 
L 538.265267 117.472999 
L 539.436641 132.172573 
L 540.608015 131.265843 
L 541.779389 126.018079 
L 542.950763 117.395383 
L 544.122137 117.395383 
L 545.293511 117.395383 
L 546.464885 117.395383 
L 547.63626 114.248921 
L 548.807634 112.74598 
L 549.979008 112.74598 
L 551.150382 111.488357 
L 552.321756 111.488357 
L 553.49313 111.488357 
L 554.664504 111.488357 
L 555.835878 98.923709 
L 557.007252 95.875035 
L 558.178626 95.875035 
L 559.35 94.86 
L 560.521374 94.86 
L 561.692748 94.86 
L 562.864122 94.86 
L 564.035496 94.86 
L 565.20687 96.67495 
L 566.378244 96.67495 
L 567.549618 96.245273 
L 568.720992 96.245273 
L 569.892366 96.245273 
L 571.06374 96.245273 
L 572.235115 98.097484 
L 573.406489 98.538875 
L 574.577863 98.538875 
L 575.749237 105.457057 
L 576.920611 105.457057 
L 578.091985 105.457057 
L 579.263359 105.457057 
L 580.434733 121.346028 
L 581.606107 121.346028 
L 582.777481 121.716639 
L 583.948855 131.78934 
L 585.120229 131.78934 
L 586.291603 131.78934 
L 587.462977 131.78934 
L 588.634351 136.483579 
L 589.805725 140.537291 
L 590.977099 140.537291 
L 592.148473 145.539803 
L 593.319847 145.539803 
L 594.491221 145.539803 
L 595.662595 157.403512 
L 596.833969 157.403512 
L 598.005344 157.403512 
L 599.176718 157.403512 
L 600.348092 157.403512 
L 601.519466 157.403512 
L 602.69084 157.403512 
L 603.862214 157.403512 
L 605.033588 160.013183 
L 606.204962 164.696941 
L 607.376336 166.331528 
L 608.54771 180.438853 
L 609.719084 180.438853 
L 610.890458 180.438853 
L 612.061832 180.438853 
L 613.233206 180.438853 
L 614.40458 184.826203 
L 615.575954 184.826203 
L 616.747328 184.826203 
L 617.918702 184.826203 
L 619.090076 187.985789 
L 620.26145 187.985789 
L 621.432824 203.238539 
L 622.604198 217.519758 
L 623.775573 222.842649 
L 624.946947 222.842649 
L 626.118321 222.842649 
L 627.289695 222.842649 
L 628.461069 230.978813 
L 629.632443 253.581879 
L 630.803817 262.8059 
L 631.975191 262.8059 
L 633.146565 266.06488 
L 634.317939 255.273659 
L 635.489313 255.273659 
L 636.660687 276.104126 
L 637.832061 294.5758 
L 639.003435 294.5758 
L 640.174809 294.5758 
L 641.346183 294.5758 
L 642.517557 294.5758 
L 643.688931 294.5758 
L 644.860305 294.5758 
L 646.031679 294.5758 
L 647.203053 294.5758 
L 648.374427 294.5758 
L 649.545802 294.5758 
L 650.717176 301.462788 
L 651.88855 313.612884 
L 653.059924 313.612884 
L 654.231298 323.600201 
L 655.402672 323.600201 
L 656.574046 323.600201 
L 657.74542 323.600201 
L 658.916794 323.600201 
L 660.088168 323.600201 
L 661.259542 325.942037 
L 662.430916 331.736365 
L 663.60229 331.736365 
L 664.773664 331.736365 
L 665.945038 331.736365 
L 667.116412 334.376592 
L 668.287786 320.596356 
L 669.45916 322.836905 
L 670.630534 322.836905 
L 671.801908 307.271043 
L 672.973282 307.271043 
L 674.144656 307.271043 
L 675.316031 296.105255 
L 676.487405 296.105255 
L 677.658779 277.665267 
L 678.830153 277.665267 
L 680.001527 267.073329 
L 681.172901 267.073329 
L 682.344275 267.073329 
L 683.515649 248.741783 
L 684.687023 248.741783 
L 685.858397 248.741783 
L 687.029771 237.945197 
L 688.201145 237.945197 
L 689.372519 237.945197 
L 690.543893 237.945197 
L 691.715267 229.194788 
L 692.886641 229.194788 
L 694.058015 216.861872 
L 695.229389 216.861872 
L 696.400763 199.193183 
L 697.572137 199.193183 
L 698.743511 199.193183 
L 699.914885 183.804328 
L 701.08626 183.804328 
L 702.257634 183.804328 
L 703.429008 168.817466 
L 704.600382 158.872558 
L 705.771756 158.872558 
L 706.94313 158.872558 
L 708.114504 136.739707 
L 709.285878 136.739707 
L 710.457252 136.739707 
L 711.628626 132.994072 
L 712.8 127.170137 
L 712.8 229.587275 
L 712.8 229.587275 
L 711.628626 229.587275 
L 710.457252 257.595812 
L 709.285878 257.595812 
L 708.114504 311.005875 
L 706.94313 311.005875 
L 705.771756 311.005875 
L 704.600382 311.005875 
L 703.429008 311.005875 
L 702.257634 311.005875 
L 701.08626 311.005875 
L 699.914885 317.016407 
L 698.743511 317.016407 
L 697.572137 317.016407 
L 696.400763 317.016407 
L 695.229389 317.016407 
L 694.058015 317.016407 
L 692.886641 317.016407 
L 691.715267 339.014411 
L 690.543893 339.014411 
L 689.372519 339.014411 
L 688.201145 339.014411 
L 687.029771 339.014411 
L 685.858397 371.48111 
L 684.687023 371.48111 
L 683.515649 371.48111 
L 682.344275 159532.315455 
L 681.172901 159532.315455 
L 680.001527 159532.315455 
L 678.830153 159532.315455 
L 677.658779 159532.315455 
L 676.487405 159532.315455 
L 675.316031 159532.315455 
L 674.144656 159532.315455 
L 672.973282 159532.315455 
L 671.801908 159532.315455 
L 670.630534 159532.315455 
L 669.45916 159532.315455 
L 668.287786 159532.315455 
L 667.116412 159532.315455 
L 665.945038 434.776229 
L 664.773664 434.776229 
L 663.60229 434.776229 
L 662.430916 434.776229 
L 661.259542 406.767692 
L 660.088168 406.767692 
L 658.916794 406.767692 
L 657.74542 406.767692 
L 656.574046 406.767692 
L 655.402672 406.767692 
L 654.231298 406.767692 
L 653.059924 406.767692 
L 651.88855 406.767692 
L 650.717176 406.767692 
L 649.545802 406.767692 
L 648.374427 406.767692 
L 647.203053 406.767692 
L 646.031679 371.48111 
L 644.860305 371.48111 
L 643.688931 371.48111 
L 642.517557 386.89532 
L 641.346183 386.89532 
L 640.174809 365.598617 
L 639.003435 352.769732 
L 637.832061 334.376592 
L 636.660687 334.376592 
L 635.489313 331.736365 
L 634.317939 331.736365 
L 633.146565 331.736365 
L 631.975191 331.736365 
L 630.803817 324.372025 
L 629.632443 324.372025 
L 628.461069 323.600201 
L 627.289695 317.016407 
L 626.118321 310.369211 
L 624.946947 275.33659 
L 623.775573 268.7875 
L 622.604198 265.400667 
L 621.432824 262.172157 
L 620.26145 251.388757 
L 619.090076 244.462388 
L 617.918702 234.691336 
L 616.747328 228.416441 
L 615.575954 224.468078 
L 614.40458 222.486579 
L 613.233206 219.361936 
L 612.061832 215.886643 
L 610.890458 213.040941 
L 609.719084 213.040941 
L 608.54771 213.040941 
L 607.376336 207.107893 
L 606.204962 207.107893 
L 605.033588 207.107893 
L 603.862214 207.107893 
L 602.69084 206.682799 
L 601.519466 206.682799 
L 600.348092 208.980809 
L 599.176718 206.682799 
L 598.005344 206.682799 
L 596.833969 206.682799 
L 595.662595 198.311598 
L 594.491221 196.095016 
L 593.319847 196.095016 
L 592.148473 189.731918 
L 590.977099 189.731918 
L 589.805725 189.731918 
L 588.634351 189.731918 
L 587.462977 189.731918 
L 586.291603 186.282712 
L 585.120229 168.572943 
L 583.948855 165.470494 
L 582.777481 165.470494 
L 581.606107 163.931955 
L 580.434733 160.590638 
L 579.263359 159.440517 
L 578.091985 160.590638 
L 576.920611 159.440517 
L 575.749237 157.472763 
L 574.577863 157.472763 
L 573.406489 153.632261 
L 572.235115 153.632261 
L 571.06374 153.632261 
L 569.892366 146.537966 
L 568.720992 146.47885 
L 567.549618 132.4614 
L 566.378244 132.4614 
L 565.20687 142.23893 
L 564.035496 142.23893 
L 562.864122 142.23893 
L 561.692748 142.23893 
L 560.521374 142.23893 
L 559.35 142.852957 
L 558.178626 142.852957 
L 557.007252 142.852957 
L 555.835878 142.852957 
L 554.664504 142.852957 
L 553.49313 153.109933 
L 552.321756 158.239138 
L 551.150382 158.239138 
L 549.979008 158.239138 
L 548.807634 160.881185 
L 547.63626 160.881185 
L 546.464885 160.881185 
L 545.293511 162.203987 
L 544.122137 167.044083 
L 542.950763 167.044083 
L 541.779389 167.044083 
L 540.608015 167.044083 
L 539.436641 167.044083 
L 538.265267 167.044083 
L 537.093893 156.920691 
L 535.922519 156.851992 
L 534.751145 166.174176 
L 533.579771 166.174176 
L 532.408397 158.099163 
L 531.237023 158.099163 
L 530.065649 166.174176 
L 528.894275 166.174176 
L 527.722901 166.252808 
L 526.551527 166.252808 
L 525.380153 166.252808 
L 524.208779 166.252808 
L 523.037405 166.252808 
L 521.866031 166.252808 
L 520.694656 167.925084 
L 519.523282 170.470118 
L 518.351908 170.470118 
L 517.180534 170.470118 
L 516.00916 170.470118 
L 514.837786 170.470118 
L 513.666412 157.196175 
L 512.495038 157.196175 
L 511.323664 157.472763 
L 510.15229 157.472763 
L 508.980916 157.472763 
L 507.809542 157.472763 
L 506.638168 153.240145 
L 505.466794 153.240145 
L 504.29542 147.430838 
L 503.124046 147.191608 
L 501.952672 147.191608 
L 500.781298 146.12521 
L 499.609924 146.12521 
L 498.43855 146.12521 
L 497.267176 146.12521 
L 496.095802 146.12521 
L 494.924427 144.786117 
L 493.753053 144.786117 
L 492.581679 144.786117 
L 491.410305 144.786117 
L 490.238931 142.127873 
L 489.067557 144.786117 
L 487.896183 144.786117 
L 486.724809 144.786117 
L 485.553435 142.127873 
L 484.382061 142.127873 
L 483.210687 142.127873 
L 482.039313 142.127873 
L 480.867939 142.127873 
L 479.696565 142.072411 
L 478.525191 138.454393 
L 477.353817 142.072411 
L 476.182443 134.071899 
L 475.011069 134.071899 
L 473.839695 134.071899 
L 472.668321 129.626082 
L 471.496947 134.071899 
L 470.325573 125.188177 
L 469.154198 134.071899 
L 467.982824 144.154744 
L 466.81145 144.154744 
L 465.640076 145.190926 
L 464.468702 145.190926 
L 463.297328 150.493288 
L 462.125954 156.032881 
L 460.95458 164.466554 
L 459.783206 171.142411 
L 458.611832 171.142411 
L 457.440458 173.199462 
L 456.269084 173.199462 
L 455.09771 178.251769 
L 453.926336 178.251769 
L 452.754962 178.251769 
L 451.583588 178.251769 
L 450.412214 178.251769 
L 449.24084 178.06482 
L 448.069466 178.06482 
L 446.898092 171.650959 
L 445.726718 178.251769 
L 444.555344 178.251769 
L 443.383969 168.654355 
L 442.212595 169.391407 
L 441.041221 167.764064 
L 439.869847 167.764064 
L 438.698473 164.160563 
L 437.527099 161.760233 
L 436.355725 162.12983 
L 435.184351 162.12983 
L 434.012977 162.12983 
L 432.841603 158.239138 
L 431.670229 158.239138 
L 430.498855 154.822143 
L 429.327481 154.822143 
L 428.156107 158.309231 
L 426.984733 169.55627 
L 425.813359 180.438853 
L 424.641985 180.438853 
L 423.470611 184.929227 
L 422.299237 185.135737 
L 421.127863 187.022647 
L 419.956489 185.135737 
L 418.785115 185.135737 
L 417.61374 185.135737 
L 416.442366 185.135737 
L 415.270992 185.135737 
L 414.099618 187.878107 
L 412.928244 187.878107 
L 411.75687 187.878107 
L 410.585496 197.194417 
L 409.414122 187.878107 
L 408.242748 187.878107 
L 407.071374 171.650959 
L 405.9 170.973723 
L 404.728626 170.973723 
L 403.557252 180.535533 
L 402.385878 197.317659 
L 401.214504 209.567459 
L 400.04313 211.056257 
L 398.871756 213.819727 
L 397.700382 228.999378 
L 396.529008 242.063621 
L 395.357634 258.786833 
L 394.18626 258.786833 
L 393.014885 258.786833 
L 391.843511 259.390135 
L 390.672137 265.070941 
L 389.500763 266.06488 
L 388.329389 266.06488 
L 387.158015 276.104126 
L 385.986641 276.104126 
L 384.815267 276.104126 
L 383.643893 276.104126 
L 382.472519 280.075194 
L 381.301145 284.288545 
L 380.129771 288.775677 
L 378.958397 295.081865 
L 377.787023 310.369211 
L 376.615649 310.369211 
L 375.444275 310.369211 
L 374.272901 310.369211 
L 373.101527 310.369211 
L 371.930153 316.322155 
L 370.758779 316.322155 
L 369.587405 316.322155 
L 368.416031 316.322155 
L 367.244656 317.016407 
L 366.073282 317.016407 
L 364.901908 324.372025 
L 363.730534 331.736365 
L 362.55916 331.736365 
L 361.387786 332.605276 
L 360.216412 332.605276 
L 359.045038 332.605276 
L 357.873664 341.954325 
L 356.70229 341.954325 
L 355.530916 353.950573 
L 354.359542 379.617273 
L 353.188168 381.366166 
L 352.016794 381.366166 
L 350.84542 381.366166 
L 349.674046 399.489646 
L 348.502672 399.489646 
L 347.331298 399.489646 
L 346.159924 399.489646 
L 344.98855 399.489646 
L 343.817176 399.489646 
L 342.645802 401.831482 
L 341.474427 401.831482 
L 340.303053 427.498182 
L 339.131679 427.498182 
L 337.960305 427.498182 
L 336.788931 427.498182 
L 335.617557 427.498182 
L 334.446183 427.498182 
L 333.274809 401.831482 
L 332.103435 401.831482 
L 330.932061 399.489646 
L 329.760687 399.489646 
L 328.589313 401.831482 
L 327.417939 401.831482 
L 326.246565 399.489646 
L 325.075191 401.831482 
L 323.903817 401.831482 
L 322.732443 401.831482 
L 321.561069 401.831482 
L 320.389695 401.831482 
L 319.218321 401.831482 
L 318.046947 401.831482 
L 316.875573 401.831482 
L 315.704198 399.489646 
L 314.532824 399.489646 
L 313.36145 367.022947 
L 312.190076 365.598617 
L 311.018702 365.598617 
L 309.847328 379.617273 
L 308.675954 379.617273 
L 307.50458 379.617273 
L 306.333206 379.617273 
L 305.161832 379.617273 
L 303.990458 379.617273 
L 302.819084 379.617273 
L 301.64771 379.617273 
L 300.476336 379.617273 
L 299.304962 379.617273 
L 298.133588 379.617273 
L 296.962214 379.617273 
L 295.79084 379.617273 
L 294.619466 379.617273 
L 293.448092 381.366166 
L 292.276718 367.022947 
L 291.105344 364.203064 
L 289.933969 364.203064 
L 288.762595 365.598617 
L 287.591221 365.598617 
L 286.419847 365.598617 
L 285.248473 365.598617 
L 284.077099 381.366166 
L 282.905725 399.489646 
L 281.734351 399.489646 
L 280.562977 401.831482 
L 279.391603 401.831482 
L 278.220229 401.831482 
L 277.048855 401.831482 
L 275.877481 401.831482 
L 274.706107 431.041397 
L 273.534733 431.041397 
L 272.363359 401.831482 
L 271.191985 401.831482 
L 270.020611 401.831482 
L 268.849237 401.831482 
L 267.677863 381.366166 
L 266.506489 379.617273 
L 265.335115 379.617273 
L 264.16374 365.598617 
L 262.992366 352.769732 
L 261.820992 352.769732 
L 260.649618 364.203064 
L 259.478244 364.203064 
L 258.30687 364.203064 
L 257.135496 365.598617 
L 255.964122 379.617273 
L 254.792748 379.617273 
L 253.621374 381.366166 
L 252.45 381.366166 
L 251.278626 381.366166 
L 250.107252 401.831482 
L 248.935878 427.498182 
L 247.764504 427.498182 
L 246.59313 427.498182 
L 245.421756 427.498182 
L 244.250382 427.498182 
L 243.079008 427.498182 
L 241.907634 427.498182 
L 240.73626 427.498182 
L 239.564885 427.498182 
L 238.393511 427.498182 
L 237.222137 427.498182 
L 236.050763 427.498182 
L 234.879389 427.498182 
L 233.708015 427.498182 
L 232.536641 427.498182 
L 231.365267 427.498182 
L 230.193893 427.498182 
L 229.022519 401.831482 
L 227.851145 401.831482 
L 226.679771 401.831482 
L 225.508397 401.831482 
L 224.337023 399.489646 
L 223.165649 399.489646 
L 221.994275 399.489646 
L 220.822901 367.022947 
L 219.651527 401.831482 
L 218.480153 401.831482 
L 217.308779 401.831482 
L 216.137405 367.022947 
L 214.966031 368.477265 
L 213.794656 365.598617 
L 212.623282 383.160489 
L 211.451908 427.498182 
L 210.280534 427.498182 
L 209.10916 427.498182 
L 207.937786 427.498182 
L 206.766412 427.498182 
L 205.595038 427.498182 
L 204.423664 427.498182 
L 203.25229 427.498182 
L 202.080916 427.498182 
L 200.909542 427.498182 
L 199.738168 427.498182 
L 198.566794 427.498182 
L 197.39542 427.498182 
L 196.224046 431.041397 
L 195.052672 431.041397 
L 193.881298 431.041397 
L 192.709924 431.041397 
L 191.53855 475.379091 
L 190.367176 475.379091 
L 189.195802 475.379091 
L 188.024427 475.379091 
L 186.853053 475.379091 
L 185.681679 475.379091 
L 184.510305 475.379091 
L 183.338931 475.379091 
L 182.167557 475.379091 
L 180.996183 475.379091 
L 179.824809 431.041397 
L 178.653435 427.498182 
L 177.482061 427.498182 
L 176.310687 431.041397 
L 175.139313 401.831482 
L 173.967939 381.366166 
L 172.796565 381.366166 
L 171.625191 379.617273 
L 170.453817 379.617273 
L 169.282443 383.160489 
L 168.111069 379.617273 
L 166.939695 383.160489 
L 165.768321 383.160489 
L 164.596947 383.160489 
L 163.425573 383.160489 
L 162.254198 383.160489 
L 161.082824 383.160489 
L 159.91145 379.617273 
L 158.740076 379.617273 
L 157.568702 379.617273 
L 156.397328 379.617273 
L 155.225954 379.617273 
L 154.05458 365.598617 
L 152.883206 342.962774 
L 151.711832 325.152571 
L 150.540458 323.600201 
L 149.369084 311.005875 
L 148.19771 286.048578 
L 147.026336 286.048578 
L 145.854962 266.735541 
L 144.683588 266.399396 
L 143.512214 259.390135 
L 142.34084 246.443242 
L 141.169466 246.443242 
L 139.998092 246.192507 
L 138.826718 248.48258 
L 137.655344 250.851185 
L 136.483969 247.967074 
L 135.312595 247.967074 
L 134.141221 250.851185 
L 132.969847 256.135344 
L 131.798473 259.390135 
L 130.627099 265.400667 
L 129.455725 268.441246 
L 128.284351 268.441246 
L 127.112977 273.083862 
L 125.941603 342.962774 
L 124.770229 365.598617 
L 123.598855 381.366166 
L 122.427481 399.489646 
L 121.256107 399.489646 
L 120.084733 399.489646 
L 118.913359 401.831482 
L 117.741985 431.041397 
L 116.570611 482.657137 
L 115.399237 159532.315455 
L 114.227863 159532.315455 
L 113.056489 159532.315455 
L 111.885115 159532.315455 
L 110.71374 159532.315455 
L 109.542366 159532.315455 
L 108.370992 159532.315455 
L 107.199618 159532.315455 
L 106.028244 159532.315455 
L 104.85687 159532.315455 
L 103.685496 159532.315455 
L 102.514122 159532.315455 
L 101.342748 159532.315455 
L 100.171374 159532.315455 
L 99 159532.315455 
z
" style="fill:#8080ff;fill-opacity:0.5;stroke:#8080ff;stroke-opacity:0.5;"/>
   </g>
   <g id="PolyCollection_2">
    <path clip-path="url(#p68e2955192)" d="M 99 159532.315455 
L 99 159532.315455 
L 100.171374 159532.315455 
L 101.342748 159532.315455 
L 102.514122 159532.315455 
L 103.685496 159532.315455 
L 104.85687 159532.315455 
L 106.028244 159532.315455 
L 107.199618 159532.315455 
L 108.370992 159532.315455 
L 109.542366 159532.315455 
L 110.71374 159532.315455 
L 111.885115 159532.315455 
L 113.056489 159532.315455 
L 114.227863 159532.315455 
L 115.399237 159532.315455 
L 116.570611 159532.315455 
L 117.741985 159532.315455 
L 118.913359 452.136413 
L 120.084733 438.724592 
L 121.256107 438.724592 
L 122.427481 438.724592 
L 123.598855 427.498182 
L 124.770229 427.498182 
L 125.941603 427.498182 
L 127.112977 427.498182 
L 128.284351 406.767692 
L 129.455725 406.767692 
L 130.627099 406.767692 
L 131.798473 399.489646 
L 132.969847 399.489646 
L 134.141221 399.489646 
L 135.312595 406.767692 
L 136.483969 406.767692 
L 137.655344 406.767692 
L 138.826718 406.767692 
L 139.998092 406.767692 
L 141.169466 406.767692 
L 142.34084 406.767692 
L 143.512214 406.767692 
L 144.683588 427.498182 
L 145.854962 406.767692 
L 147.026336 406.767692 
L 148.19771 427.498182 
L 149.369084 427.498182 
L 150.540458 427.498182 
L 151.711832 427.498182 
L 152.883206 427.498182 
L 154.05458 406.767692 
L 155.225954 406.767692 
L 156.397328 406.767692 
L 157.568702 406.767692 
L 158.740076 406.767692 
L 159.91145 406.767692 
L 161.082824 406.767692 
L 162.254198 427.498182 
L 163.425573 427.498182 
L 164.596947 427.498182 
L 165.768321 427.498182 
L 166.939695 427.498182 
L 168.111069 427.498182 
L 169.282443 427.498182 
L 170.453817 427.498182 
L 171.625191 427.498182 
L 172.796565 438.724592 
L 173.967939 438.724592 
L 175.139313 438.724592 
L 176.310687 438.724592 
L 177.482061 438.724592 
L 178.653435 475.379091 
L 179.824809 475.379091 
L 180.996183 500.017322 
L 182.167557 500.017322 
L 183.338931 500.017322 
L 184.510305 500.017322 
L 185.681679 500.017322 
L 186.853053 159532.315455 
L 188.024427 159532.315455 
L 189.195802 159532.315455 
L 190.367176 159532.315455 
L 191.53855 159532.315455 
L 192.709924 159532.315455 
L 193.881298 159532.315455 
L 195.052672 500.017322 
L 196.224046 500.017322 
L 197.39542 500.017322 
L 198.566794 159532.315455 
L 199.738168 159532.315455 
L 200.909542 159532.315455 
L 202.080916 159532.315455 
L 203.25229 159532.315455 
L 204.423664 159532.315455 
L 205.595038 159532.315455 
L 206.766412 159532.315455 
L 207.937786 159532.315455 
L 209.10916 159532.315455 
L 210.280534 159532.315455 
L 211.451908 159532.315455 
L 212.623282 159532.315455 
L 213.794656 159532.315455 
L 214.966031 159532.315455 
L 216.137405 159532.315455 
L 217.308779 159532.315455 
L 218.480153 159532.315455 
L 219.651527 159532.315455 
L 220.822901 159532.315455 
L 221.994275 159532.315455 
L 223.165649 159532.315455 
L 224.337023 159532.315455 
L 225.508397 159532.315455 
L 226.679771 159532.315455 
L 227.851145 159532.315455 
L 229.022519 159532.315455 
L 230.193893 159532.315455 
L 231.365267 159532.315455 
L 232.536641 159532.315455 
L 233.708015 159532.315455 
L 234.879389 159532.315455 
L 236.050763 159532.315455 
L 237.222137 159532.315455 
L 238.393511 159532.315455 
L 239.564885 159532.315455 
L 240.73626 159532.315455 
L 241.907634 159532.315455 
L 243.079008 159532.315455 
L 244.250382 159532.315455 
L 245.421756 159532.315455 
L 246.59313 159532.315455 
L 247.764504 159532.315455 
L 248.935878 159532.315455 
L 250.107252 159532.315455 
L 251.278626 159532.315455 
L 252.45 159532.315455 
L 253.621374 159532.315455 
L 254.792748 159532.315455 
L 255.964122 159532.315455 
L 257.135496 159532.315455 
L 258.30687 159532.315455 
L 259.478244 159532.315455 
L 260.649618 159532.315455 
L 261.820992 159532.315455 
L 262.992366 159532.315455 
L 264.16374 159532.315455 
L 265.335115 159532.315455 
L 266.506489 159532.315455 
L 267.677863 159532.315455 
L 268.849237 159532.315455 
L 270.020611 159532.315455 
L 271.191985 159532.315455 
L 272.363359 159532.315455 
L 273.534733 159532.315455 
L 274.706107 159532.315455 
L 275.877481 159532.315455 
L 277.048855 500.017322 
L 278.220229 500.017322 
L 279.391603 500.017322 
L 280.562977 500.017322 
L 281.734351 500.017322 
L 282.905725 500.017322 
L 284.077099 500.017322 
L 285.248473 159532.315455 
L 286.419847 159532.315455 
L 287.591221 159532.315455 
L 288.762595 159532.315455 
L 289.933969 159532.315455 
L 291.105344 159532.315455 
L 292.276718 159532.315455 
L 293.448092 159532.315455 
L 294.619466 159532.315455 
L 295.79084 159532.315455 
L 296.962214 159532.315455 
L 298.133588 159532.315455 
L 299.304962 159532.315455 
L 300.476336 159532.315455 
L 301.64771 159532.315455 
L 302.819084 159532.315455 
L 303.990458 159532.315455 
L 305.161832 159532.315455 
L 306.333206 159532.315455 
L 307.50458 159532.315455 
L 308.675954 159532.315455 
L 309.847328 159532.315455 
L 311.018702 159532.315455 
L 312.190076 159532.315455 
L 313.36145 159532.315455 
L 314.532824 159532.315455 
L 315.704198 159532.315455 
L 316.875573 159532.315455 
L 318.046947 159532.315455 
L 319.218321 159532.315455 
L 320.389695 159532.315455 
L 321.561069 159532.315455 
L 322.732443 159532.315455 
L 323.903817 159532.315455 
L 325.075191 159532.315455 
L 326.246565 159532.315455 
L 327.417939 159532.315455 
L 328.589313 159532.315455 
L 329.760687 159532.315455 
L 330.932061 159532.315455 
L 332.103435 159532.315455 
L 333.274809 159532.315455 
L 334.446183 159532.315455 
L 335.617557 159532.315455 
L 336.788931 159532.315455 
L 337.960305 159532.315455 
L 339.131679 159532.315455 
L 340.303053 159532.315455 
L 341.474427 159532.315455 
L 342.645802 159532.315455 
L 343.817176 159532.315455 
L 344.98855 159532.315455 
L 346.159924 159532.315455 
L 347.331298 159532.315455 
L 348.502672 159532.315455 
L 349.674046 159532.315455 
L 350.84542 159532.315455 
L 352.016794 159532.315455 
L 353.188168 159532.315455 
L 354.359542 159532.315455 
L 355.530916 159532.315455 
L 356.70229 159532.315455 
L 357.873664 159532.315455 
L 359.045038 159532.315455 
L 360.216412 159532.315455 
L 361.387786 159532.315455 
L 362.55916 159532.315455 
L 363.730534 159532.315455 
L 364.901908 159532.315455 
L 366.073282 159532.315455 
L 367.244656 159532.315455 
L 368.416031 159532.315455 
L 369.587405 159532.315455 
L 370.758779 159532.315455 
L 371.930153 159532.315455 
L 373.101527 159532.315455 
L 374.272901 159532.315455 
L 375.444275 159532.315455 
L 376.615649 159532.315455 
L 377.787023 159532.315455 
L 378.958397 159532.315455 
L 380.129771 159532.315455 
L 381.301145 159532.315455 
L 382.472519 159532.315455 
L 383.643893 159532.315455 
L 384.815267 159532.315455 
L 385.986641 159532.315455 
L 387.158015 159532.315455 
L 388.329389 159532.315455 
L 389.500763 159532.315455 
L 390.672137 159532.315455 
L 391.843511 159532.315455 
L 393.014885 159532.315455 
L 394.18626 159532.315455 
L 395.357634 159532.315455 
L 396.529008 159532.315455 
L 397.700382 159532.315455 
L 398.871756 500.017322 
L 400.04313 475.379091 
L 401.214504 475.379091 
L 402.385878 475.379091 
L 403.557252 475.379091 
L 404.728626 475.379091 
L 405.9 475.379091 
L 407.071374 475.379091 
L 408.242748 475.379091 
L 409.414122 475.379091 
L 410.585496 475.379091 
L 411.75687 475.379091 
L 412.928244 438.724592 
L 414.099618 406.767692 
L 415.270992 406.767692 
L 416.442366 406.767692 
L 417.61374 406.767692 
L 418.785115 406.767692 
L 419.956489 406.767692 
L 421.127863 406.767692 
L 422.299237 399.489646 
L 423.470611 399.489646 
L 424.641985 399.489646 
L 425.813359 385.002666 
L 426.984733 385.002666 
L 428.156107 385.002666 
L 429.327481 385.002666 
L 430.498855 379.617273 
L 431.670229 379.617273 
L 432.841603 379.617273 
L 434.012977 379.617273 
L 435.184351 379.617273 
L 436.355725 379.617273 
L 437.527099 379.617273 
L 438.698473 379.617273 
L 439.869847 368.477265 
L 441.041221 368.477265 
L 442.212595 368.477265 
L 443.383969 368.477265 
L 444.555344 364.203064 
L 445.726718 364.203064 
L 446.898092 364.203064 
L 448.069466 368.477265 
L 449.24084 368.477265 
L 450.412214 368.477265 
L 451.583588 368.477265 
L 452.754962 368.477265 
L 453.926336 368.477265 
L 455.09771 364.203064 
L 456.269084 368.477265 
L 457.440458 368.477265 
L 458.611832 368.477265 
L 459.783206 368.477265 
L 460.95458 379.617273 
L 462.125954 379.617273 
L 463.297328 379.617273 
L 464.468702 385.002666 
L 465.640076 379.617273 
L 466.81145 379.617273 
L 467.982824 379.617273 
L 469.154198 379.617273 
L 470.325573 385.002666 
L 471.496947 399.489646 
L 472.668321 406.767692 
L 473.839695 406.767692 
L 475.011069 406.767692 
L 476.182443 406.767692 
L 477.353817 406.767692 
L 478.525191 406.767692 
L 479.696565 406.767692 
L 480.867939 406.767692 
L 482.039313 438.724592 
L 483.210687 438.724592 
L 484.382061 438.724592 
L 485.553435 438.724592 
L 486.724809 438.724592 
L 487.896183 438.724592 
L 489.067557 414.903856 
L 490.238931 438.724592 
L 491.410305 438.724592 
L 492.581679 438.724592 
L 493.753053 438.724592 
L 494.924427 438.724592 
L 496.095802 406.767692 
L 497.267176 406.767692 
L 498.43855 406.767692 
L 499.609924 406.767692 
L 500.781298 406.767692 
L 501.952672 406.767692 
L 503.124046 406.767692 
L 504.29542 406.767692 
L 505.466794 438.724592 
L 506.638168 438.724592 
L 507.809542 438.724592 
L 508.980916 406.767692 
L 510.15229 406.767692 
L 511.323664 406.767692 
L 512.495038 438.724592 
L 513.666412 427.498182 
L 514.837786 427.498182 
L 516.00916 427.498182 
L 517.180534 427.498182 
L 518.351908 427.498182 
L 519.523282 427.498182 
L 520.694656 427.498182 
L 521.866031 427.498182 
L 523.037405 427.498182 
L 524.208779 427.498182 
L 525.380153 438.724592 
L 526.551527 438.724592 
L 527.722901 438.724592 
L 528.894275 427.498182 
L 530.065649 438.724592 
L 531.237023 475.379091 
L 532.408397 475.379091 
L 533.579771 438.724592 
L 534.751145 438.724592 
L 535.922519 438.724592 
L 537.093893 438.724592 
L 538.265267 427.498182 
L 539.436641 427.498182 
L 540.608015 427.498182 
L 541.779389 427.498182 
L 542.950763 427.498182 
L 544.122137 427.498182 
L 545.293511 427.498182 
L 546.464885 427.498182 
L 547.63626 427.498182 
L 548.807634 427.498182 
L 549.979008 427.498182 
L 551.150382 427.498182 
L 552.321756 427.498182 
L 553.49313 427.498182 
L 554.664504 427.498182 
L 555.835878 427.498182 
L 557.007252 427.498182 
L 558.178626 438.724592 
L 559.35 438.724592 
L 560.521374 438.724592 
L 561.692748 438.724592 
L 562.864122 475.379091 
L 564.035496 475.379091 
L 565.20687 475.379091 
L 566.378244 475.379091 
L 567.549618 475.379091 
L 568.720992 438.724592 
L 569.892366 438.724592 
L 571.06374 438.724592 
L 572.235115 406.767692 
L 573.406489 406.767692 
L 574.577863 406.767692 
L 575.749237 406.767692 
L 576.920611 406.767692 
L 578.091985 406.767692 
L 579.263359 406.767692 
L 580.434733 406.767692 
L 581.606107 406.767692 
L 582.777481 406.767692 
L 583.948855 406.767692 
L 585.120229 406.767692 
L 586.291603 406.767692 
L 587.462977 438.724592 
L 588.634351 475.379091 
L 589.805725 475.379091 
L 590.977099 475.379091 
L 592.148473 475.379091 
L 593.319847 475.379091 
L 594.491221 475.379091 
L 595.662595 475.379091 
L 596.833969 475.379091 
L 598.005344 475.379091 
L 599.176718 475.379091 
L 600.348092 475.379091 
L 601.519466 475.379091 
L 602.69084 475.379091 
L 603.862214 475.379091 
L 605.033588 475.379091 
L 606.204962 475.379091 
L 607.376336 475.379091 
L 608.54771 475.379091 
L 609.719084 475.379091 
L 610.890458 438.724592 
L 612.061832 438.724592 
L 613.233206 438.724592 
L 614.40458 438.724592 
L 615.575954 438.724592 
L 616.747328 438.724592 
L 617.918702 438.724592 
L 619.090076 475.379091 
L 620.26145 500.017322 
L 621.432824 500.017322 
L 622.604198 500.017322 
L 623.775573 500.017322 
L 624.946947 500.017322 
L 626.118321 500.017322 
L 627.289695 159532.315455 
L 628.461069 159532.315455 
L 629.632443 159532.315455 
L 630.803817 159532.315455 
L 631.975191 159532.315455 
L 633.146565 159532.315455 
L 634.317939 159532.315455 
L 635.489313 159532.315455 
L 636.660687 159532.315455 
L 637.832061 159532.315455 
L 639.003435 159532.315455 
L 640.174809 159532.315455 
L 641.346183 159532.315455 
L 642.517557 159532.315455 
L 643.688931 159532.315455 
L 644.860305 159532.315455 
L 646.031679 159532.315455 
L 647.203053 159532.315455 
L 648.374427 159532.315455 
L 649.545802 159532.315455 
L 650.717176 159532.315455 
L 651.88855 159532.315455 
L 653.059924 159532.315455 
L 654.231298 159532.315455 
L 655.402672 159532.315455 
L 656.574046 159532.315455 
L 657.74542 159532.315455 
L 658.916794 159532.315455 
L 660.088168 159532.315455 
L 661.259542 159532.315455 
L 662.430916 159532.315455 
L 663.60229 500.017322 
L 664.773664 500.017322 
L 665.945038 500.017322 
L 667.116412 500.017322 
L 668.287786 500.017322 
L 669.45916 500.017322 
L 670.630534 500.017322 
L 671.801908 500.017322 
L 672.973282 500.017322 
L 674.144656 500.017322 
L 675.316031 500.017322 
L 676.487405 500.017322 
L 677.658779 500.017322 
L 678.830153 159532.315455 
L 680.001527 159532.315455 
L 681.172901 159532.315455 
L 682.344275 159532.315455 
L 683.515649 159532.315455 
L 684.687023 159532.315455 
L 685.858397 159532.315455 
L 687.029771 159532.315455 
L 688.201145 159532.315455 
L 689.372519 159532.315455 
L 690.543893 159532.315455 
L 691.715267 159532.315455 
L 692.886641 159532.315455 
L 694.058015 159532.315455 
L 695.229389 159532.315455 
L 696.400763 500.017322 
L 697.572137 500.017322 
L 698.743511 500.017322 
L 699.914885 159532.315455 
L 701.08626 159532.315455 
L 702.257634 159532.315455 
L 703.429008 159532.315455 
L 704.600382 159532.315455 
L 705.771756 159532.315455 
L 706.94313 159532.315455 
L 708.114504 500.017322 
L 709.285878 475.379091 
L 710.457252 475.379091 
L 711.628626 475.379091 
L 712.8 475.379091 
L 712.8 159532.315455 
L 712.8 159532.315455 
L 711.628626 159532.315455 
L 710.457252 159532.315455 
L 709.285878 159532.315455 
L 708.114504 159532.315455 
L 706.94313 159532.315455 
L 705.771756 159532.315455 
L 704.600382 159532.315455 
L 703.429008 159532.315455 
L 702.257634 159532.315455 
L 701.08626 159532.315455 
L 699.914885 159532.315455 
L 698.743511 159532.315455 
L 697.572137 159532.315455 
L 696.400763 159532.315455 
L 695.229389 159532.315455 
L 694.058015 159532.315455 
L 692.886641 159532.315455 
L 691.715267 159532.315455 
L 690.543893 159532.315455 
L 689.372519 159532.315455 
L 688.201145 159532.315455 
L 687.029771 159532.315455 
L 685.858397 159532.315455 
L 684.687023 159532.315455 
L 683.515649 159532.315455 
L 682.344275 159532.315455 
L 681.172901 159532.315455 
L 680.001527 159532.315455 
L 678.830153 159532.315455 
L 677.658779 159532.315455 
L 676.487405 159532.315455 
L 675.316031 159532.315455 
L 674.144656 159532.315455 
L 672.973282 159532.315455 
L 671.801908 159532.315455 
L 670.630534 159532.315455 
L 669.45916 159532.315455 
L 668.287786 159532.315455 
L 667.116412 159532.315455 
L 665.945038 159532.315455 
L 664.773664 159532.315455 
L 663.60229 159532.315455 
L 662.430916 159532.315455 
L 661.259542 159532.315455 
L 660.088168 159532.315455 
L 658.916794 159532.315455 
L 657.74542 159532.315455 
L 656.574046 159532.315455 
L 655.402672 159532.315455 
L 654.231298 159532.315455 
L 653.059924 159532.315455 
L 651.88855 159532.315455 
L 650.717176 159532.315455 
L 649.545802 159532.315455 
L 648.374427 159532.315455 
L 647.203053 159532.315455 
L 646.031679 159532.315455 
L 644.860305 159532.315455 
L 643.688931 159532.315455 
L 642.517557 159532.315455 
L 641.346183 159532.315455 
L 640.174809 159532.315455 
L 639.003435 159532.315455 
L 637.832061 159532.315455 
L 636.660687 159532.315455 
L 635.489313 159532.315455 
L 634.317939 159532.315455 
L 633.146565 159532.315455 
L 631.975191 159532.315455 
L 630.803817 159532.315455 
L 629.632443 159532.315455 
L 628.461069 159532.315455 
L 627.289695 159532.315455 
L 626.118321 159532.315455 
L 624.946947 159532.315455 
L 623.775573 159532.315455 
L 622.604198 159532.315455 
L 621.432824 159532.315455 
L 620.26145 159532.315455 
L 619.090076 159532.315455 
L 617.918702 159532.315455 
L 616.747328 159532.315455 
L 615.575954 159532.315455 
L 614.40458 159532.315455 
L 613.233206 159532.315455 
L 612.061832 159532.315455 
L 610.890458 159532.315455 
L 609.719084 159532.315455 
L 608.54771 159532.315455 
L 607.376336 159532.315455 
L 606.204962 159532.315455 
L 605.033588 159532.315455 
L 603.862214 159532.315455 
L 602.69084 159532.315455 
L 601.519466 159532.315455 
L 600.348092 159532.315455 
L 599.176718 159532.315455 
L 598.005344 159532.315455 
L 596.833969 159532.315455 
L 595.662595 159532.315455 
L 594.491221 159532.315455 
L 593.319847 159532.315455 
L 592.148473 159532.315455 
L 590.977099 159532.315455 
L 589.805725 159532.315455 
L 588.634351 159532.315455 
L 587.462977 159532.315455 
L 586.291603 159532.315455 
L 585.120229 159532.315455 
L 583.948855 159532.315455 
L 582.777481 159532.315455 
L 581.606107 159532.315455 
L 580.434733 159532.315455 
L 579.263359 159532.315455 
L 578.091985 159532.315455 
L 576.920611 159532.315455 
L 575.749237 159532.315455 
L 574.577863 159532.315455 
L 573.406489 159532.315455 
L 572.235115 159532.315455 
L 571.06374 159532.315455 
L 569.892366 159532.315455 
L 568.720992 159532.315455 
L 567.549618 159532.315455 
L 566.378244 159532.315455 
L 565.20687 159532.315455 
L 564.035496 159532.315455 
L 562.864122 159532.315455 
L 561.692748 159532.315455 
L 560.521374 159532.315455 
L 559.35 159532.315455 
L 558.178626 159532.315455 
L 557.007252 159532.315455 
L 555.835878 159532.315455 
L 554.664504 159532.315455 
L 553.49313 159532.315455 
L 552.321756 159532.315455 
L 551.150382 159532.315455 
L 549.979008 159532.315455 
L 548.807634 159532.315455 
L 547.63626 159532.315455 
L 546.464885 159532.315455 
L 545.293511 159532.315455 
L 544.122137 159532.315455 
L 542.950763 159532.315455 
L 541.779389 159532.315455 
L 540.608015 159532.315455 
L 539.436641 159532.315455 
L 538.265267 159532.315455 
L 537.093893 159532.315455 
L 535.922519 159532.315455 
L 534.751145 159532.315455 
L 533.579771 159532.315455 
L 532.408397 159532.315455 
L 531.237023 159532.315455 
L 530.065649 159532.315455 
L 528.894275 159532.315455 
L 527.722901 159532.315455 
L 526.551527 159532.315455 
L 525.380153 482.657137 
L 524.208779 482.657137 
L 523.037405 482.657137 
L 521.866031 475.379091 
L 520.694656 482.657137 
L 519.523282 482.657137 
L 518.351908 482.657137 
L 517.180534 482.657137 
L 516.00916 482.657137 
L 514.837786 482.657137 
L 513.666412 482.657137 
L 512.495038 482.657137 
L 511.323664 482.657137 
L 510.15229 159532.315455 
L 508.980916 159532.315455 
L 507.809542 159532.315455 
L 506.638168 159532.315455 
L 505.466794 159532.315455 
L 504.29542 482.657137 
L 503.124046 482.657137 
L 501.952672 482.657137 
L 500.781298 475.379091 
L 499.609924 475.379091 
L 498.43855 475.379091 
L 497.267176 482.657137 
L 496.095802 482.657137 
L 494.924427 159532.315455 
L 493.753053 482.657137 
L 492.581679 159532.315455 
L 491.410305 159532.315455 
L 490.238931 482.657137 
L 489.067557 482.657137 
L 487.896183 482.657137 
L 486.724809 159532.315455 
L 485.553435 159532.315455 
L 484.382061 159532.315455 
L 483.210687 159532.315455 
L 482.039313 159532.315455 
L 480.867939 159532.315455 
L 479.696565 159532.315455 
L 478.525191 159532.315455 
L 477.353817 159532.315455 
L 476.182443 159532.315455 
L 475.011069 159532.315455 
L 473.839695 159532.315455 
L 472.668321 159532.315455 
L 471.496947 159532.315455 
L 470.325573 159532.315455 
L 469.154198 159532.315455 
L 467.982824 159532.315455 
L 466.81145 482.657137 
L 465.640076 159532.315455 
L 464.468702 159532.315455 
L 463.297328 482.657137 
L 462.125954 482.657137 
L 460.95458 475.379091 
L 459.783206 475.379091 
L 458.611832 475.379091 
L 457.440458 475.379091 
L 456.269084 475.379091 
L 455.09771 475.379091 
L 453.926336 475.379091 
L 452.754962 475.379091 
L 451.583588 475.379091 
L 450.412214 475.379091 
L 449.24084 475.379091 
L 448.069466 475.379091 
L 446.898092 475.379091 
L 445.726718 475.379091 
L 444.555344 475.379091 
L 443.383969 482.657137 
L 442.212595 482.657137 
L 441.041221 475.379091 
L 439.869847 475.379091 
L 438.698473 475.379091 
L 437.527099 475.379091 
L 436.355725 475.379091 
L 435.184351 475.379091 
L 434.012977 475.379091 
L 432.841603 475.379091 
L 431.670229 475.379091 
L 430.498855 475.379091 
L 429.327481 475.379091 
L 428.156107 431.041397 
L 426.984733 431.041397 
L 425.813359 475.379091 
L 424.641985 475.379091 
L 423.470611 482.657137 
L 422.299237 159532.315455 
L 421.127863 159532.315455 
L 419.956489 159532.315455 
L 418.785115 159532.315455 
L 417.61374 159532.315455 
L 416.442366 159532.315455 
L 415.270992 159532.315455 
L 414.099618 159532.315455 
L 412.928244 159532.315455 
L 411.75687 159532.315455 
L 410.585496 159532.315455 
L 409.414122 159532.315455 
L 408.242748 159532.315455 
L 407.071374 159532.315455 
L 405.9 159532.315455 
L 404.728626 159532.315455 
L 403.557252 159532.315455 
L 402.385878 159532.315455 
L 401.214504 159532.315455 
L 400.04313 159532.315455 
L 398.871756 159532.315455 
L 397.700382 159532.315455 
L 396.529008 159532.315455 
L 395.357634 159532.315455 
L 394.18626 159532.315455 
L 393.014885 159532.315455 
L 391.843511 159532.315455 
L 390.672137 159532.315455 
L 389.500763 159532.315455 
L 388.329389 159532.315455 
L 387.158015 159532.315455 
L 385.986641 159532.315455 
L 384.815267 159532.315455 
L 383.643893 159532.315455 
L 382.472519 159532.315455 
L 381.301145 159532.315455 
L 380.129771 159532.315455 
L 378.958397 159532.315455 
L 377.787023 159532.315455 
L 376.615649 159532.315455 
L 375.444275 159532.315455 
L 374.272901 159532.315455 
L 373.101527 159532.315455 
L 371.930153 159532.315455 
L 370.758779 159532.315455 
L 369.587405 159532.315455 
L 368.416031 159532.315455 
L 367.244656 159532.315455 
L 366.073282 159532.315455 
L 364.901908 159532.315455 
L 363.730534 159532.315455 
L 362.55916 159532.315455 
L 361.387786 159532.315455 
L 360.216412 159532.315455 
L 359.045038 159532.315455 
L 357.873664 159532.315455 
L 356.70229 159532.315455 
L 355.530916 159532.315455 
L 354.359542 159532.315455 
L 353.188168 159532.315455 
L 352.016794 159532.315455 
L 350.84542 159532.315455 
L 349.674046 159532.315455 
L 348.502672 159532.315455 
L 347.331298 159532.315455 
L 346.159924 159532.315455 
L 344.98855 159532.315455 
L 343.817176 159532.315455 
L 342.645802 159532.315455 
L 341.474427 159532.315455 
L 340.303053 159532.315455 
L 339.131679 159532.315455 
L 337.960305 159532.315455 
L 336.788931 159532.315455 
L 335.617557 159532.315455 
L 334.446183 159532.315455 
L 333.274809 159532.315455 
L 332.103435 159532.315455 
L 330.932061 159532.315455 
L 329.760687 159532.315455 
L 328.589313 159532.315455 
L 327.417939 159532.315455 
L 326.246565 159532.315455 
L 325.075191 159532.315455 
L 323.903817 159532.315455 
L 322.732443 159532.315455 
L 321.561069 159532.315455 
L 320.389695 159532.315455 
L 319.218321 159532.315455 
L 318.046947 159532.315455 
L 316.875573 159532.315455 
L 315.704198 159532.315455 
L 314.532824 159532.315455 
L 313.36145 159532.315455 
L 312.190076 159532.315455 
L 311.018702 159532.315455 
L 309.847328 159532.315455 
L 308.675954 159532.315455 
L 307.50458 159532.315455 
L 306.333206 159532.315455 
L 305.161832 159532.315455 
L 303.990458 159532.315455 
L 302.819084 159532.315455 
L 301.64771 159532.315455 
L 300.476336 159532.315455 
L 299.304962 159532.315455 
L 298.133588 159532.315455 
L 296.962214 159532.315455 
L 295.79084 159532.315455 
L 294.619466 159532.315455 
L 293.448092 159532.315455 
L 292.276718 159532.315455 
L 291.105344 159532.315455 
L 289.933969 159532.315455 
L 288.762595 159532.315455 
L 287.591221 159532.315455 
L 286.419847 159532.315455 
L 285.248473 159532.315455 
L 284.077099 159532.315455 
L 282.905725 159532.315455 
L 281.734351 159532.315455 
L 280.562977 159532.315455 
L 279.391603 159532.315455 
L 278.220229 159532.315455 
L 277.048855 159532.315455 
L 275.877481 159532.315455 
L 274.706107 159532.315455 
L 273.534733 159532.315455 
L 272.363359 159532.315455 
L 271.191985 159532.315455 
L 270.020611 159532.315455 
L 268.849237 159532.315455 
L 267.677863 159532.315455 
L 266.506489 159532.315455 
L 265.335115 159532.315455 
L 264.16374 159532.315455 
L 262.992366 159532.315455 
L 261.820992 159532.315455 
L 260.649618 159532.315455 
L 259.478244 159532.315455 
L 258.30687 159532.315455 
L 257.135496 159532.315455 
L 255.964122 159532.315455 
L 254.792748 159532.315455 
L 253.621374 159532.315455 
L 252.45 159532.315455 
L 251.278626 159532.315455 
L 250.107252 159532.315455 
L 248.935878 159532.315455 
L 247.764504 159532.315455 
L 246.59313 159532.315455 
L 245.421756 159532.315455 
L 244.250382 159532.315455 
L 243.079008 159532.315455 
L 241.907634 159532.315455 
L 240.73626 159532.315455 
L 239.564885 159532.315455 
L 238.393511 159532.315455 
L 237.222137 159532.315455 
L 236.050763 159532.315455 
L 234.879389 159532.315455 
L 233.708015 159532.315455 
L 232.536641 159532.315455 
L 231.365267 159532.315455 
L 230.193893 159532.315455 
L 229.022519 159532.315455 
L 227.851145 159532.315455 
L 226.679771 159532.315455 
L 225.508397 159532.315455 
L 224.337023 159532.315455 
L 223.165649 159532.315455 
L 221.994275 159532.315455 
L 220.822901 159532.315455 
L 219.651527 159532.315455 
L 218.480153 159532.315455 
L 217.308779 159532.315455 
L 216.137405 159532.315455 
L 214.966031 159532.315455 
L 213.794656 159532.315455 
L 212.623282 159532.315455 
L 211.451908 159532.315455 
L 210.280534 159532.315455 
L 209.10916 159532.315455 
L 207.937786 159532.315455 
L 206.766412 159532.315455 
L 205.595038 159532.315455 
L 204.423664 159532.315455 
L 203.25229 159532.315455 
L 202.080916 159532.315455 
L 200.909542 159532.315455 
L 199.738168 159532.315455 
L 198.566794 159532.315455 
L 197.39542 159532.315455 
L 196.224046 159532.315455 
L 195.052672 159532.315455 
L 193.881298 159532.315455 
L 192.709924 159532.315455 
L 191.53855 159532.315455 
L 190.367176 159532.315455 
L 189.195802 159532.315455 
L 188.024427 159532.315455 
L 186.853053 159532.315455 
L 185.681679 159532.315455 
L 184.510305 159532.315455 
L 183.338931 159532.315455 
L 182.167557 159532.315455 
L 180.996183 159532.315455 
L 179.824809 159532.315455 
L 178.653435 159532.315455 
L 177.482061 159532.315455 
L 176.310687 159532.315455 
L 175.139313 159532.315455 
L 173.967939 159532.315455 
L 172.796565 159532.315455 
L 171.625191 159532.315455 
L 170.453817 159532.315455 
L 169.282443 159532.315455 
L 168.111069 159532.315455 
L 166.939695 159532.315455 
L 165.768321 482.657137 
L 164.596947 159532.315455 
L 163.425573 159532.315455 
L 162.254198 159532.315455 
L 161.082824 159532.315455 
L 159.91145 159532.315455 
L 158.740076 482.657137 
L 157.568702 482.657137 
L 156.397328 475.379091 
L 155.225954 482.657137 
L 154.05458 482.657137 
L 152.883206 159532.315455 
L 151.711832 159532.315455 
L 150.540458 159532.315455 
L 149.369084 159532.315455 
L 148.19771 159532.315455 
L 147.026336 159532.315455 
L 145.854962 159532.315455 
L 144.683588 159532.315455 
L 143.512214 159532.315455 
L 142.34084 159532.315455 
L 141.169466 159532.315455 
L 139.998092 159532.315455 
L 138.826718 159532.315455 
L 137.655344 159532.315455 
L 136.483969 159532.315455 
L 135.312595 482.657137 
L 134.141221 475.379091 
L 132.969847 482.657137 
L 131.798473 159532.315455 
L 130.627099 159532.315455 
L 129.455725 159532.315455 
L 128.284351 159532.315455 
L 127.112977 159532.315455 
L 125.941603 159532.315455 
L 124.770229 159532.315455 
L 123.598855 159532.315455 
L 122.427481 159532.315455 
L 121.256107 159532.315455 
L 120.084733 159532.315455 
L 118.913359 159532.315455 
L 117.741985 159532.315455 
L 116.570611 159532.315455 
L 115.399237 159532.315455 
L 114.227863 159532.315455 
L 113.056489 159532.315455 
L 111.885115 159532.315455 
L 110.71374 159532.315455 
L 109.542366 159532.315455 
L 108.370992 159532.315455 
L 107.199618 159532.315455 
L 106.028244 159532.315455 
L 104.85687 159532.315455 
L 103.685496 159532.315455 
L 102.514122 159532.315455 
L 101.342748 159532.315455 
L 100.171374 159532.315455 
L 99 159532.315455 
z
" style="fill:#ff8080;fill-opacity:0.5;stroke:#ff8080;stroke-opacity:0.5;"/>
   </g>
   <g id="matplotlib.axis_1">
    <g id="xtick_1">
     <g id="line2d_1">
      <path clip-path="url(#p68e2955192)" d="M 99 544.68 
L 99 73.44 
" style="fill:none;stroke:#b0b0b0;stroke-linecap:square;stroke-width:0.8;"/>
     </g>
     <g id="line2d_2">
      <defs>
       <path d="M 0 0 
L 0 3.5 
" id="m4abed1d830" style="stroke:#000000;stroke-width:0.8;"/>
      </defs>
      <g>
       <use style="stroke:#000000;stroke-width:0.8;" x="99" xlink:href="#m4abed1d830" y="544.68"/>
      </g>
     </g>
    </g>
    <g id="xtick_2">
     <g id="line2d_3">
      <path clip-path="url(#p68e2955192)" d="M 128.284351 544.68 
L 128.284351 73.44 
" style="fill:none;stroke:#b0b0b0;stroke-linecap:square;stroke-width:0.8;"/>
     </g>
     <g id="line2d_4">
      <g>
       <use style="stroke:#000000;stroke-width:0.8;" x="128.284351" xlink:href="#m4abed1d830" y="544.68"/>
      </g>
     </g>
     <g id="text_1">
      <!-- Apr -->
      <g transform="translate(119.634351 559.278437)scale(0.1 -0.1)">
       <defs>
        <path d="M 2188 4044 
L 1331 1722 
L 3047 1722 
L 2188 4044 
z
M 1831 4666 
L 2547 4666 
L 4325 0 
L 3669 0 
L 3244 1197 
L 1141 1197 
L 716 0 
L 50 0 
L 1831 4666 
z
" id="DejaVuSans-41" transform="scale(0.015625)"/>
        <path d="M 1159 525 
L 1159 -1331 
L 581 -1331 
L 581 3500 
L 1159 3500 
L 1159 2969 
Q 1341 3281 1617 3432 
Q 1894 3584 2278 3584 
Q 2916 3584 3314 3078 
Q 3713 2572 3713 1747 
Q 3713 922 3314 415 
Q 2916 -91 2278 -91 
Q 1894 -91 1617 61 
Q 1341 213 1159 525 
z
M 3116 1747 
Q 3116 2381 2855 2742 
Q 2594 3103 2138 3103 
Q 1681 3103 1420 2742 
Q 1159 2381 1159 1747 
Q 1159 1113 1420 752 
Q 1681 391 2138 391 
Q 2594 391 2855 752 
Q 3116 1113 3116 1747 
z
" id="DejaVuSans-70" transform="scale(0.015625)"/>
        <path d="M 2631 2963 
Q 2534 3019 2420 3045 
Q 2306 3072 2169 3072 
Q 1681 3072 1420 2755 
Q 1159 2438 1159 1844 
L 1159 0 
L 581 0 
L 581 3500 
L 1159 3500 
L 1159 2956 
Q 1341 3275 1631 3429 
Q 1922 3584 2338 3584 
Q 2397 3584 2469 3576 
Q 2541 3569 2628 3553 
L 2631 2963 
z
" id="DejaVuSans-72" transform="scale(0.015625)"/>
       </defs>
       <use xlink:href="#DejaVuSans-41"/>
       <use x="68.408203" xlink:href="#DejaVuSans-70"/>
       <use x="131.884766" xlink:href="#DejaVuSans-72"/>
      </g>
     </g>
    </g>
    <g id="xtick_3">
     <g id="line2d_5">
      <path clip-path="url(#p68e2955192)" d="M 234.879389 544.68 
L 234.879389 73.44 
" style="fill:none;stroke:#b0b0b0;stroke-linecap:square;stroke-width:0.8;"/>
     </g>
     <g id="line2d_6">
      <g>
       <use style="stroke:#000000;stroke-width:0.8;" x="234.879389" xlink:href="#m4abed1d830" y="544.68"/>
      </g>
     </g>
     <g id="text_2">
      <!-- Jul -->
      <g transform="translate(228.846577 559.278437)scale(0.1 -0.1)">
       <defs>
        <path d="M 628 4666 
L 1259 4666 
L 1259 325 
Q 1259 -519 939 -900 
Q 619 -1281 -91 -1281 
L -331 -1281 
L -331 -750 
L -134 -750 
Q 284 -750 456 -515 
Q 628 -281 628 325 
L 628 4666 
z
" id="DejaVuSans-4a" transform="scale(0.015625)"/>
        <path d="M 544 1381 
L 544 3500 
L 1119 3500 
L 1119 1403 
Q 1119 906 1312 657 
Q 1506 409 1894 409 
Q 2359 409 2629 706 
Q 2900 1003 2900 1516 
L 2900 3500 
L 3475 3500 
L 3475 0 
L 2900 0 
L 2900 538 
Q 2691 219 2414 64 
Q 2138 -91 1772 -91 
Q 1169 -91 856 284 
Q 544 659 544 1381 
z
M 1991 3584 
L 1991 3584 
z
" id="DejaVuSans-75" transform="scale(0.015625)"/>
        <path d="M 603 4863 
L 1178 4863 
L 1178 0 
L 603 0 
L 603 4863 
z
" id="DejaVuSans-6c" transform="scale(0.015625)"/>
       </defs>
       <use xlink:href="#DejaVuSans-4a"/>
       <use x="29.492188" xlink:href="#DejaVuSans-75"/>
       <use x="92.871094" xlink:href="#DejaVuSans-6c"/>
      </g>
     </g>
    </g>
    <g id="xtick_4">
     <g id="line2d_7">
      <path clip-path="url(#p68e2955192)" d="M 342.645802 544.68 
L 342.645802 73.44 
" style="fill:none;stroke:#b0b0b0;stroke-linecap:square;stroke-width:0.8;"/>
     </g>
     <g id="line2d_8">
      <g>
       <use style="stroke:#000000;stroke-width:0.8;" x="342.645802" xlink:href="#m4abed1d830" y="544.68"/>
      </g>
     </g>
     <g id="text_3">
      <!-- Oct -->
      <g transform="translate(334.000489 559.278437)scale(0.1 -0.1)">
       <defs>
        <path d="M 2522 4238 
Q 1834 4238 1429 3725 
Q 1025 3213 1025 2328 
Q 1025 1447 1429 934 
Q 1834 422 2522 422 
Q 3209 422 3611 934 
Q 4013 1447 4013 2328 
Q 4013 3213 3611 3725 
Q 3209 4238 2522 4238 
z
M 2522 4750 
Q 3503 4750 4090 4092 
Q 4678 3434 4678 2328 
Q 4678 1225 4090 567 
Q 3503 -91 2522 -91 
Q 1538 -91 948 565 
Q 359 1222 359 2328 
Q 359 3434 948 4092 
Q 1538 4750 2522 4750 
z
" id="DejaVuSans-4f" transform="scale(0.015625)"/>
        <path d="M 3122 3366 
L 3122 2828 
Q 2878 2963 2633 3030 
Q 2388 3097 2138 3097 
Q 1578 3097 1268 2742 
Q 959 2388 959 1747 
Q 959 1106 1268 751 
Q 1578 397 2138 397 
Q 2388 397 2633 464 
Q 2878 531 3122 666 
L 3122 134 
Q 2881 22 2623 -34 
Q 2366 -91 2075 -91 
Q 1284 -91 818 406 
Q 353 903 353 1747 
Q 353 2603 823 3093 
Q 1294 3584 2113 3584 
Q 2378 3584 2631 3529 
Q 2884 3475 3122 3366 
z
" id="DejaVuSans-63" transform="scale(0.015625)"/>
        <path d="M 1172 4494 
L 1172 3500 
L 2356 3500 
L 2356 3053 
L 1172 3053 
L 1172 1153 
Q 1172 725 1289 603 
Q 1406 481 1766 481 
L 2356 481 
L 2356 0 
L 1766 0 
Q 1100 0 847 248 
Q 594 497 594 1153 
L 594 3053 
L 172 3053 
L 172 3500 
L 594 3500 
L 594 4494 
L 1172 4494 
z
" id="DejaVuSans-74" transform="scale(0.015625)"/>
       </defs>
       <use xlink:href="#DejaVuSans-4f"/>
       <use x="78.710938" xlink:href="#DejaVuSans-63"/>
       <use x="133.691406" xlink:href="#DejaVuSans-74"/>
      </g>
     </g>
    </g>
    <g id="xtick_5">
     <g id="line2d_9">
      <path clip-path="url(#p68e2955192)" d="M 450.412214 544.68 
L 450.412214 73.44 
" style="fill:none;stroke:#b0b0b0;stroke-linecap:square;stroke-width:0.8;"/>
     </g>
     <g id="line2d_10">
      <g>
       <use style="stroke:#000000;stroke-width:0.8;" x="450.412214" xlink:href="#m4abed1d830" y="544.68"/>
      </g>
     </g>
     <g id="text_4">
      <!-- Jan -->
      <g transform="translate(442.704401 559.278437)scale(0.1 -0.1)">
       <defs>
        <path d="M 2194 1759 
Q 1497 1759 1228 1600 
Q 959 1441 959 1056 
Q 959 750 1161 570 
Q 1363 391 1709 391 
Q 2188 391 2477 730 
Q 2766 1069 2766 1631 
L 2766 1759 
L 2194 1759 
z
M 3341 1997 
L 3341 0 
L 2766 0 
L 2766 531 
Q 2569 213 2275 61 
Q 1981 -91 1556 -91 
Q 1019 -91 701 211 
Q 384 513 384 1019 
Q 384 1609 779 1909 
Q 1175 2209 1959 2209 
L 2766 2209 
L 2766 2266 
Q 2766 2663 2505 2880 
Q 2244 3097 1772 3097 
Q 1472 3097 1187 3025 
Q 903 2953 641 2809 
L 641 3341 
Q 956 3463 1253 3523 
Q 1550 3584 1831 3584 
Q 2591 3584 2966 3190 
Q 3341 2797 3341 1997 
z
" id="DejaVuSans-61" transform="scale(0.015625)"/>
        <path d="M 3513 2113 
L 3513 0 
L 2938 0 
L 2938 2094 
Q 2938 2591 2744 2837 
Q 2550 3084 2163 3084 
Q 1697 3084 1428 2787 
Q 1159 2491 1159 1978 
L 1159 0 
L 581 0 
L 581 3500 
L 1159 3500 
L 1159 2956 
Q 1366 3272 1645 3428 
Q 1925 3584 2291 3584 
Q 2894 3584 3203 3211 
Q 3513 2838 3513 2113 
z
" id="DejaVuSans-6e" transform="scale(0.015625)"/>
       </defs>
       <use xlink:href="#DejaVuSans-4a"/>
       <use x="29.492188" xlink:href="#DejaVuSans-61"/>
       <use x="90.771484" xlink:href="#DejaVuSans-6e"/>
      </g>
      <!-- 2021 -->
      <g transform="translate(437.687214 570.47625)scale(0.1 -0.1)">
       <defs>
        <path d="M 1228 531 
L 3431 531 
L 3431 0 
L 469 0 
L 469 531 
Q 828 903 1448 1529 
Q 2069 2156 2228 2338 
Q 2531 2678 2651 2914 
Q 2772 3150 2772 3378 
Q 2772 3750 2511 3984 
Q 2250 4219 1831 4219 
Q 1534 4219 1204 4116 
Q 875 4013 500 3803 
L 500 4441 
Q 881 4594 1212 4672 
Q 1544 4750 1819 4750 
Q 2544 4750 2975 4387 
Q 3406 4025 3406 3419 
Q 3406 3131 3298 2873 
Q 3191 2616 2906 2266 
Q 2828 2175 2409 1742 
Q 1991 1309 1228 531 
z
" id="DejaVuSans-32" transform="scale(0.015625)"/>
        <path d="M 2034 4250 
Q 1547 4250 1301 3770 
Q 1056 3291 1056 2328 
Q 1056 1369 1301 889 
Q 1547 409 2034 409 
Q 2525 409 2770 889 
Q 3016 1369 3016 2328 
Q 3016 3291 2770 3770 
Q 2525 4250 2034 4250 
z
M 2034 4750 
Q 2819 4750 3233 4129 
Q 3647 3509 3647 2328 
Q 3647 1150 3233 529 
Q 2819 -91 2034 -91 
Q 1250 -91 836 529 
Q 422 1150 422 2328 
Q 422 3509 836 4129 
Q 1250 4750 2034 4750 
z
" id="DejaVuSans-30" transform="scale(0.015625)"/>
        <path d="M 794 531 
L 1825 531 
L 1825 4091 
L 703 3866 
L 703 4441 
L 1819 4666 
L 2450 4666 
L 2450 531 
L 3481 531 
L 3481 0 
L 794 0 
L 794 531 
z
" id="DejaVuSans-31" transform="scale(0.015625)"/>
       </defs>
       <use xlink:href="#DejaVuSans-32"/>
       <use x="63.623047" xlink:href="#DejaVuSans-30"/>
       <use x="127.246094" xlink:href="#DejaVuSans-32"/>
       <use x="190.869141" xlink:href="#DejaVuSans-31"/>
      </g>
     </g>
    </g>
    <g id="xtick_6">
     <g id="line2d_11">
      <path clip-path="url(#p68e2955192)" d="M 555.835878 544.68 
L 555.835878 73.44 
" style="fill:none;stroke:#b0b0b0;stroke-linecap:square;stroke-width:0.8;"/>
     </g>
     <g id="line2d_12">
      <g>
       <use style="stroke:#000000;stroke-width:0.8;" x="555.835878" xlink:href="#m4abed1d830" y="544.68"/>
      </g>
     </g>
     <g id="text_5">
      <!-- Apr -->
      <g transform="translate(547.185878 559.278437)scale(0.1 -0.1)">
       <use xlink:href="#DejaVuSans-41"/>
       <use x="68.408203" xlink:href="#DejaVuSans-70"/>
       <use x="131.884766" xlink:href="#DejaVuSans-72"/>
      </g>
     </g>
    </g>
    <g id="xtick_7">
     <g id="line2d_13">
      <path clip-path="url(#p68e2955192)" d="M 662.430916 544.68 
L 662.430916 73.44 
" style="fill:none;stroke:#b0b0b0;stroke-linecap:square;stroke-width:0.8;"/>
     </g>
     <g id="line2d_14">
      <g>
       <use style="stroke:#000000;stroke-width:0.8;" x="662.430916" xlink:href="#m4abed1d830" y="544.68"/>
      </g>
     </g>
     <g id="text_6">
      <!-- Jul -->
      <g transform="translate(656.398104 559.278437)scale(0.1 -0.1)">
       <use xlink:href="#DejaVuSans-4a"/>
       <use x="29.492188" xlink:href="#DejaVuSans-75"/>
       <use x="92.871094" xlink:href="#DejaVuSans-6c"/>
      </g>
     </g>
    </g>
    <g id="xtick_8">
     <g id="line2d_15">
      <path clip-path="url(#p68e2955192)" d="M 712.8 544.68 
L 712.8 73.44 
" style="fill:none;stroke:#b0b0b0;stroke-linecap:square;stroke-width:0.8;"/>
     </g>
     <g id="line2d_16">
      <g>
       <use style="stroke:#000000;stroke-width:0.8;" x="712.8" xlink:href="#m4abed1d830" y="544.68"/>
      </g>
     </g>
    </g>
    <g id="xtick_9">
     <g id="line2d_17">
      <defs>
       <path d="M 0 0 
L 0 2 
" id="mbe9820739d" style="stroke:#000000;stroke-width:0.6;"/>
      </defs>
      <g>
       <use style="stroke:#000000;stroke-width:0.6;" x="163.425573" xlink:href="#mbe9820739d" y="544.68"/>
      </g>
     </g>
    </g>
    <g id="xtick_10">
     <g id="line2d_18">
      <g>
       <use style="stroke:#000000;stroke-width:0.6;" x="199.738168" xlink:href="#mbe9820739d" y="544.68"/>
      </g>
     </g>
    </g>
    <g id="xtick_11">
     <g id="line2d_19">
      <g>
       <use style="stroke:#000000;stroke-width:0.6;" x="271.191985" xlink:href="#mbe9820739d" y="544.68"/>
      </g>
     </g>
    </g>
    <g id="xtick_12">
     <g id="line2d_20">
      <g>
       <use style="stroke:#000000;stroke-width:0.6;" x="307.50458" xlink:href="#mbe9820739d" y="544.68"/>
      </g>
     </g>
    </g>
    <g id="xtick_13">
     <g id="line2d_21">
      <g>
       <use style="stroke:#000000;stroke-width:0.6;" x="378.958397" xlink:href="#mbe9820739d" y="544.68"/>
      </g>
     </g>
    </g>
    <g id="xtick_14">
     <g id="line2d_22">
      <g>
       <use style="stroke:#000000;stroke-width:0.6;" x="414.099618" xlink:href="#mbe9820739d" y="544.68"/>
      </g>
     </g>
    </g>
    <g id="xtick_15">
     <g id="line2d_23">
      <g>
       <use style="stroke:#000000;stroke-width:0.6;" x="486.724809" xlink:href="#mbe9820739d" y="544.68"/>
      </g>
     </g>
    </g>
    <g id="xtick_16">
     <g id="line2d_24">
      <g>
       <use style="stroke:#000000;stroke-width:0.6;" x="519.523282" xlink:href="#mbe9820739d" y="544.68"/>
      </g>
     </g>
    </g>
    <g id="xtick_17">
     <g id="line2d_25">
      <g>
       <use style="stroke:#000000;stroke-width:0.6;" x="590.977099" xlink:href="#mbe9820739d" y="544.68"/>
      </g>
     </g>
    </g>
    <g id="xtick_18">
     <g id="line2d_26">
      <g>
       <use style="stroke:#000000;stroke-width:0.6;" x="627.289695" xlink:href="#mbe9820739d" y="544.68"/>
      </g>
     </g>
    </g>
    <g id="xtick_19">
     <g id="line2d_27">
      <g>
       <use style="stroke:#000000;stroke-width:0.6;" x="698.743511" xlink:href="#mbe9820739d" y="544.68"/>
      </g>
     </g>
    </g>
    <g id="text_7">
     <!-- Date -->
     <g transform="translate(393.949219 584.154375)scale(0.1 -0.1)">
      <defs>
       <path d="M 1259 4147 
L 1259 519 
L 2022 519 
Q 2988 519 3436 956 
Q 3884 1394 3884 2338 
Q 3884 3275 3436 3711 
Q 2988 4147 2022 4147 
L 1259 4147 
z
M 628 4666 
L 1925 4666 
Q 3281 4666 3915 4102 
Q 4550 3538 4550 2338 
Q 4550 1131 3912 565 
Q 3275 0 1925 0 
L 628 0 
L 628 4666 
z
" id="DejaVuSans-44" transform="scale(0.015625)"/>
       <path d="M 3597 1894 
L 3597 1613 
L 953 1613 
Q 991 1019 1311 708 
Q 1631 397 2203 397 
Q 2534 397 2845 478 
Q 3156 559 3463 722 
L 3463 178 
Q 3153 47 2828 -22 
Q 2503 -91 2169 -91 
Q 1331 -91 842 396 
Q 353 884 353 1716 
Q 353 2575 817 3079 
Q 1281 3584 2069 3584 
Q 2775 3584 3186 3129 
Q 3597 2675 3597 1894 
z
M 3022 2063 
Q 3016 2534 2758 2815 
Q 2500 3097 2075 3097 
Q 1594 3097 1305 2825 
Q 1016 2553 972 2059 
L 3022 2063 
z
" id="DejaVuSans-65" transform="scale(0.015625)"/>
      </defs>
      <use xlink:href="#DejaVuSans-44"/>
      <use x="77.001953" xlink:href="#DejaVuSans-61"/>
      <use x="138.28125" xlink:href="#DejaVuSans-74"/>
      <use x="177.490234" xlink:href="#DejaVuSans-65"/>
     </g>
    </g>
   </g>
   <g id="matplotlib.axis_2">
    <g id="ytick_1">
     <g id="line2d_28">
      <path clip-path="url(#p68e2955192)" d="M 99 475.379091 
L 712.8 475.379091 
" style="fill:none;stroke:#b0b0b0;stroke-linecap:square;stroke-width:0.8;"/>
     </g>
     <g id="line2d_29">
      <defs>
       <path d="M 0 0 
L -3.5 0 
" id="me91a084207" style="stroke:#000000;stroke-width:0.8;"/>
      </defs>
      <g>
       <use style="stroke:#000000;stroke-width:0.8;" x="99" xlink:href="#me91a084207" y="475.379091"/>
      </g>
     </g>
     <g id="text_8">
      <!-- $\mathdefault{10^{0}}$ -->
      <g transform="translate(74.4 479.17831)scale(0.1 -0.1)">
       <use transform="translate(0 0.765625)" xlink:href="#DejaVuSans-31"/>
       <use transform="translate(63.623047 0.765625)" xlink:href="#DejaVuSans-30"/>
       <use transform="translate(128.203125 39.046875)scale(0.7)" xlink:href="#DejaVuSans-30"/>
      </g>
     </g>
    </g>
    <g id="ytick_2">
     <g id="line2d_30">
      <path clip-path="url(#p68e2955192)" d="M 99 316.322155 
L 712.8 316.322155 
" style="fill:none;stroke:#b0b0b0;stroke-linecap:square;stroke-width:0.8;"/>
     </g>
     <g id="line2d_31">
      <g>
       <use style="stroke:#000000;stroke-width:0.8;" x="99" xlink:href="#me91a084207" y="316.322155"/>
      </g>
     </g>
     <g id="text_9">
      <!-- $\mathdefault{10^{1}}$ -->
      <g transform="translate(74.4 320.121374)scale(0.1 -0.1)">
       <use transform="translate(0 0.684375)" xlink:href="#DejaVuSans-31"/>
       <use transform="translate(63.623047 0.684375)" xlink:href="#DejaVuSans-30"/>
       <use transform="translate(128.203125 38.965625)scale(0.7)" xlink:href="#DejaVuSans-31"/>
      </g>
     </g>
    </g>
    <g id="ytick_3">
     <g id="line2d_32">
      <path clip-path="url(#p68e2955192)" d="M 99 157.265218 
L 712.8 157.265218 
" style="fill:none;stroke:#b0b0b0;stroke-linecap:square;stroke-width:0.8;"/>
     </g>
     <g id="line2d_33">
      <g>
       <use style="stroke:#000000;stroke-width:0.8;" x="99" xlink:href="#me91a084207" y="157.265218"/>
      </g>
     </g>
     <g id="text_10">
      <!-- $\mathdefault{10^{2}}$ -->
      <g transform="translate(74.4 161.064437)scale(0.1 -0.1)">
       <use transform="translate(0 0.765625)" xlink:href="#DejaVuSans-31"/>
       <use transform="translate(63.623047 0.765625)" xlink:href="#DejaVuSans-30"/>
       <use transform="translate(128.203125 39.046875)scale(0.7)" xlink:href="#DejaVuSans-32"/>
      </g>
     </g>
    </g>
    <g id="ytick_4">
     <g id="line2d_34">
      <path clip-path="url(#p68e2955192)" d="M 99 538.67421 
L 712.8 538.67421 
" style="fill:none;stroke:#b0b0b0;stroke-linecap:square;stroke-width:0.8;"/>
     </g>
     <g id="line2d_35">
      <defs>
       <path d="M 0 0 
L -2 0 
" id="m0cb60b688e" style="stroke:#000000;stroke-width:0.6;"/>
      </defs>
      <g>
       <use style="stroke:#000000;stroke-width:0.6;" x="99" xlink:href="#m0cb60b688e" y="538.67421"/>
      </g>
     </g>
    </g>
    <g id="ytick_5">
     <g id="line2d_36">
      <path clip-path="url(#p68e2955192)" d="M 99 523.26 
L 712.8 523.26 
" style="fill:none;stroke:#b0b0b0;stroke-linecap:square;stroke-width:0.8;"/>
     </g>
     <g id="line2d_37">
      <g>
       <use style="stroke:#000000;stroke-width:0.6;" x="99" xlink:href="#m0cb60b688e" y="523.26"/>
      </g>
     </g>
    </g>
    <g id="ytick_6">
     <g id="line2d_38">
      <path clip-path="url(#p68e2955192)" d="M 99 510.665674 
L 712.8 510.665674 
" style="fill:none;stroke:#b0b0b0;stroke-linecap:square;stroke-width:0.8;"/>
     </g>
     <g id="line2d_39">
      <g>
       <use style="stroke:#000000;stroke-width:0.6;" x="99" xlink:href="#m0cb60b688e" y="510.665674"/>
      </g>
     </g>
    </g>
    <g id="ytick_7">
     <g id="line2d_40">
      <path clip-path="url(#p68e2955192)" d="M 99 500.017322 
L 712.8 500.017322 
" style="fill:none;stroke:#b0b0b0;stroke-linecap:square;stroke-width:0.8;"/>
     </g>
     <g id="line2d_41">
      <g>
       <use style="stroke:#000000;stroke-width:0.6;" x="99" xlink:href="#m0cb60b688e" y="500.017322"/>
      </g>
     </g>
    </g>
    <g id="ytick_8">
     <g id="line2d_42">
      <path clip-path="url(#p68e2955192)" d="M 99 490.793301 
L 712.8 490.793301 
" style="fill:none;stroke:#b0b0b0;stroke-linecap:square;stroke-width:0.8;"/>
     </g>
     <g id="line2d_43">
      <g>
       <use style="stroke:#000000;stroke-width:0.6;" x="99" xlink:href="#m0cb60b688e" y="490.793301"/>
      </g>
     </g>
    </g>
    <g id="ytick_9">
     <g id="line2d_44">
      <path clip-path="url(#p68e2955192)" d="M 99 482.657137 
L 712.8 482.657137 
" style="fill:none;stroke:#b0b0b0;stroke-linecap:square;stroke-width:0.8;"/>
     </g>
     <g id="line2d_45">
      <g>
       <use style="stroke:#000000;stroke-width:0.6;" x="99" xlink:href="#m0cb60b688e" y="482.657137"/>
      </g>
     </g>
    </g>
    <g id="ytick_10">
     <g id="line2d_46">
      <path clip-path="url(#p68e2955192)" d="M 99 427.498182 
L 712.8 427.498182 
" style="fill:none;stroke:#b0b0b0;stroke-linecap:square;stroke-width:0.8;"/>
     </g>
     <g id="line2d_47">
      <g>
       <use style="stroke:#000000;stroke-width:0.6;" x="99" xlink:href="#m0cb60b688e" y="427.498182"/>
      </g>
     </g>
    </g>
    <g id="ytick_11">
     <g id="line2d_48">
      <path clip-path="url(#p68e2955192)" d="M 99 399.489646 
L 712.8 399.489646 
" style="fill:none;stroke:#b0b0b0;stroke-linecap:square;stroke-width:0.8;"/>
     </g>
     <g id="line2d_49">
      <g>
       <use style="stroke:#000000;stroke-width:0.6;" x="99" xlink:href="#m0cb60b688e" y="399.489646"/>
      </g>
     </g>
    </g>
    <g id="ytick_12">
     <g id="line2d_50">
      <path clip-path="url(#p68e2955192)" d="M 99 379.617273 
L 712.8 379.617273 
" style="fill:none;stroke:#b0b0b0;stroke-linecap:square;stroke-width:0.8;"/>
     </g>
     <g id="line2d_51">
      <g>
       <use style="stroke:#000000;stroke-width:0.6;" x="99" xlink:href="#m0cb60b688e" y="379.617273"/>
      </g>
     </g>
    </g>
    <g id="ytick_13">
     <g id="line2d_52">
      <path clip-path="url(#p68e2955192)" d="M 99 364.203064 
L 712.8 364.203064 
" style="fill:none;stroke:#b0b0b0;stroke-linecap:square;stroke-width:0.8;"/>
     </g>
     <g id="line2d_53">
      <g>
       <use style="stroke:#000000;stroke-width:0.6;" x="99" xlink:href="#m0cb60b688e" y="364.203064"/>
      </g>
     </g>
    </g>
    <g id="ytick_14">
     <g id="line2d_54">
      <path clip-path="url(#p68e2955192)" d="M 99 351.608737 
L 712.8 351.608737 
" style="fill:none;stroke:#b0b0b0;stroke-linecap:square;stroke-width:0.8;"/>
     </g>
     <g id="line2d_55">
      <g>
       <use style="stroke:#000000;stroke-width:0.6;" x="99" xlink:href="#m0cb60b688e" y="351.608737"/>
      </g>
     </g>
    </g>
    <g id="ytick_15">
     <g id="line2d_56">
      <path clip-path="url(#p68e2955192)" d="M 99 340.960386 
L 712.8 340.960386 
" style="fill:none;stroke:#b0b0b0;stroke-linecap:square;stroke-width:0.8;"/>
     </g>
     <g id="line2d_57">
      <g>
       <use style="stroke:#000000;stroke-width:0.6;" x="99" xlink:href="#m0cb60b688e" y="340.960386"/>
      </g>
     </g>
    </g>
    <g id="ytick_16">
     <g id="line2d_58">
      <path clip-path="url(#p68e2955192)" d="M 99 331.736365 
L 712.8 331.736365 
" style="fill:none;stroke:#b0b0b0;stroke-linecap:square;stroke-width:0.8;"/>
     </g>
     <g id="line2d_59">
      <g>
       <use style="stroke:#000000;stroke-width:0.6;" x="99" xlink:href="#m0cb60b688e" y="331.736365"/>
      </g>
     </g>
    </g>
    <g id="ytick_17">
     <g id="line2d_60">
      <path clip-path="url(#p68e2955192)" d="M 99 323.600201 
L 712.8 323.600201 
" style="fill:none;stroke:#b0b0b0;stroke-linecap:square;stroke-width:0.8;"/>
     </g>
     <g id="line2d_61">
      <g>
       <use style="stroke:#000000;stroke-width:0.6;" x="99" xlink:href="#m0cb60b688e" y="323.600201"/>
      </g>
     </g>
    </g>
    <g id="ytick_18">
     <g id="line2d_62">
      <path clip-path="url(#p68e2955192)" d="M 99 268.441246 
L 712.8 268.441246 
" style="fill:none;stroke:#b0b0b0;stroke-linecap:square;stroke-width:0.8;"/>
     </g>
     <g id="line2d_63">
      <g>
       <use style="stroke:#000000;stroke-width:0.6;" x="99" xlink:href="#m0cb60b688e" y="268.441246"/>
      </g>
     </g>
    </g>
    <g id="ytick_19">
     <g id="line2d_64">
      <path clip-path="url(#p68e2955192)" d="M 99 240.43271 
L 712.8 240.43271 
" style="fill:none;stroke:#b0b0b0;stroke-linecap:square;stroke-width:0.8;"/>
     </g>
     <g id="line2d_65">
      <g>
       <use style="stroke:#000000;stroke-width:0.6;" x="99" xlink:href="#m0cb60b688e" y="240.43271"/>
      </g>
     </g>
    </g>
    <g id="ytick_20">
     <g id="line2d_66">
      <path clip-path="url(#p68e2955192)" d="M 99 220.560337 
L 712.8 220.560337 
" style="fill:none;stroke:#b0b0b0;stroke-linecap:square;stroke-width:0.8;"/>
     </g>
     <g id="line2d_67">
      <g>
       <use style="stroke:#000000;stroke-width:0.6;" x="99" xlink:href="#m0cb60b688e" y="220.560337"/>
      </g>
     </g>
    </g>
    <g id="ytick_21">
     <g id="line2d_68">
      <path clip-path="url(#p68e2955192)" d="M 99 205.146127 
L 712.8 205.146127 
" style="fill:none;stroke:#b0b0b0;stroke-linecap:square;stroke-width:0.8;"/>
     </g>
     <g id="line2d_69">
      <g>
       <use style="stroke:#000000;stroke-width:0.6;" x="99" xlink:href="#m0cb60b688e" y="205.146127"/>
      </g>
     </g>
    </g>
    <g id="ytick_22">
     <g id="line2d_70">
      <path clip-path="url(#p68e2955192)" d="M 99 192.551801 
L 712.8 192.551801 
" style="fill:none;stroke:#b0b0b0;stroke-linecap:square;stroke-width:0.8;"/>
     </g>
     <g id="line2d_71">
      <g>
       <use style="stroke:#000000;stroke-width:0.6;" x="99" xlink:href="#m0cb60b688e" y="192.551801"/>
      </g>
     </g>
    </g>
    <g id="ytick_23">
     <g id="line2d_72">
      <path clip-path="url(#p68e2955192)" d="M 99 181.90345 
L 712.8 181.90345 
" style="fill:none;stroke:#b0b0b0;stroke-linecap:square;stroke-width:0.8;"/>
     </g>
     <g id="line2d_73">
      <g>
       <use style="stroke:#000000;stroke-width:0.6;" x="99" xlink:href="#m0cb60b688e" y="181.90345"/>
      </g>
     </g>
    </g>
    <g id="ytick_24">
     <g id="line2d_74">
      <path clip-path="url(#p68e2955192)" d="M 99 172.679428 
L 712.8 172.679428 
" style="fill:none;stroke:#b0b0b0;stroke-linecap:square;stroke-width:0.8;"/>
     </g>
     <g id="line2d_75">
      <g>
       <use style="stroke:#000000;stroke-width:0.6;" x="99" xlink:href="#m0cb60b688e" y="172.679428"/>
      </g>
     </g>
    </g>
    <g id="ytick_25">
     <g id="line2d_76">
      <path clip-path="url(#p68e2955192)" d="M 99 164.543265 
L 712.8 164.543265 
" style="fill:none;stroke:#b0b0b0;stroke-linecap:square;stroke-width:0.8;"/>
     </g>
     <g id="line2d_77">
      <g>
       <use style="stroke:#000000;stroke-width:0.6;" x="99" xlink:href="#m0cb60b688e" y="164.543265"/>
      </g>
     </g>
    </g>
    <g id="ytick_26">
     <g id="line2d_78">
      <path clip-path="url(#p68e2955192)" d="M 99 109.38431 
L 712.8 109.38431 
" style="fill:none;stroke:#b0b0b0;stroke-linecap:square;stroke-width:0.8;"/>
     </g>
     <g id="line2d_79">
      <g>
       <use style="stroke:#000000;stroke-width:0.6;" x="99" xlink:href="#m0cb60b688e" y="109.38431"/>
      </g>
     </g>
    </g>
    <g id="ytick_27">
     <g id="line2d_80">
      <path clip-path="url(#p68e2955192)" d="M 99 81.375773 
L 712.8 81.375773 
" style="fill:none;stroke:#b0b0b0;stroke-linecap:square;stroke-width:0.8;"/>
     </g>
     <g id="line2d_81">
      <g>
       <use style="stroke:#000000;stroke-width:0.6;" x="99" xlink:href="#m0cb60b688e" y="81.375773"/>
      </g>
     </g>
    </g>
   </g>
   <g id="line2d_82">
    <path clip-path="url(#p68e2955192)" d="M 114.226643 613 
L 114.227863 447.370555 
L 115.399237 412.083973 
L 116.570611 399.489646 
L 118.913359 399.489646 
L 120.084733 388.841295 
L 121.256107 371.48111 
L 122.427481 351.608737 
L 123.598855 295.591665 
L 124.770229 268.441246 
L 125.941603 266.735541 
L 128.284351 257.301237 
L 129.455725 257.301237 
L 131.798473 249.001963 
L 132.969847 246.443242 
L 134.141221 245.198568 
L 135.312595 241.593704 
L 136.483969 239.290906 
L 137.655344 242.774546 
L 138.826718 239.290906 
L 139.998092 237.062405 
L 142.34084 237.062405 
L 143.512214 239.290906 
L 145.854962 239.290906 
L 147.026336 249.001963 
L 148.19771 257.301237 
L 149.369084 261.857452 
L 150.540458 273.826638 
L 152.883206 316.322155 
L 154.05458 323.600201 
L 155.225954 331.736365 
L 156.397328 331.736365 
L 157.568702 336.194527 
L 158.740076 351.608737 
L 159.91145 340.960386 
L 161.082824 351.608737 
L 162.254198 371.48111 
L 165.768321 371.48111 
L 166.939695 364.203064 
L 169.282443 364.203064 
L 170.453817 351.608737 
L 171.625191 351.608737 
L 172.796565 364.203064 
L 175.139313 364.203064 
L 176.310687 371.48111 
L 177.482061 371.48111 
L 178.653435 379.617273 
L 179.824809 399.489646 
L 180.996183 412.083973 
L 182.167557 412.083973 
L 183.338931 427.498182 
L 192.709924 427.498182 
L 193.881298 412.083973 
L 204.423664 412.083973 
L 205.595038 388.841295 
L 206.766412 379.617273 
L 209.10916 379.617273 
L 210.280534 371.48111 
L 211.451908 340.960386 
L 212.623282 323.600201 
L 218.480153 323.600201 
L 219.651527 336.194527 
L 220.822901 323.600201 
L 221.994275 336.194527 
L 223.165649 336.194527 
L 224.337023 357.61927 
L 225.508397 371.48111 
L 229.022519 371.48111 
L 230.193893 388.841295 
L 231.365267 388.841295 
L 232.536641 371.48111 
L 234.879389 371.48111 
L 236.050763 364.203064 
L 239.564885 364.203064 
L 240.73626 379.617273 
L 241.907634 371.48111 
L 243.079008 412.083973 
L 245.421756 412.083973 
L 246.59313 379.617273 
L 247.764504 357.61927 
L 248.935878 364.203064 
L 250.107252 364.203064 
L 251.278626 357.61927 
L 255.964122 357.61927 
L 257.135496 346.079583 
L 260.649618 346.079583 
L 261.820992 336.194527 
L 262.992366 327.548564 
L 264.16374 336.194527 
L 266.506489 336.194527 
L 267.677863 346.079583 
L 268.849237 364.203064 
L 270.020611 364.203064 
L 271.191985 346.079583 
L 272.363359 357.61927 
L 273.534733 371.48111 
L 274.706107 379.617273 
L 275.877481 371.48111 
L 277.048855 371.48111 
L 278.220229 379.617273 
L 279.391603 379.617273 
L 280.562977 371.48111 
L 281.734351 371.48111 
L 282.905725 364.203064 
L 284.077099 364.203064 
L 285.248473 357.61927 
L 287.591221 357.61927 
L 288.762595 351.608737 
L 301.64771 351.608737 
L 302.819084 357.61927 
L 306.333206 357.61927 
L 307.50458 340.960386 
L 311.018702 340.960386 
L 312.190076 357.61927 
L 313.36145 357.61927 
L 314.532824 364.203064 
L 315.704198 364.203064 
L 316.875573 379.617273 
L 318.046947 379.617273 
L 319.218321 364.203064 
L 326.246565 364.203064 
L 327.417939 379.617273 
L 328.589313 388.841295 
L 329.760687 371.48111 
L 333.274809 371.48111 
L 334.446183 379.617273 
L 336.788931 379.617273 
L 337.960305 388.841295 
L 339.131679 399.489646 
L 342.645802 399.489646 
L 343.817176 388.841295 
L 347.331298 388.841295 
L 348.502672 379.617273 
L 349.674046 364.203064 
L 350.84542 346.079583 
L 353.188168 346.079583 
L 354.359542 336.194527 
L 355.530916 331.736365 
L 356.70229 323.600201 
L 357.873664 323.600201 
L 359.045038 316.322155 
L 360.216412 316.322155 
L 362.55916 309.738361 
L 363.730534 312.95185 
L 364.901908 312.95185 
L 366.073282 309.738361 
L 369.587405 309.738361 
L 370.758779 306.667742 
L 371.930153 306.667742 
L 373.101527 298.198674 
L 374.272901 298.198674 
L 375.444275 295.591665 
L 377.787023 286.048578 
L 378.958397 281.729825 
L 380.129771 271.984461 
L 381.301145 270.190138 
L 382.472519 261.857452 
L 383.643893 257.301237 
L 384.815267 258.786833 
L 385.986641 261.857452 
L 387.158015 261.857452 
L 388.329389 258.786833 
L 390.672137 258.786833 
L 391.843511 257.301237 
L 393.014885 247.710756 
L 395.357634 219.70222 
L 396.529008 211.660878 
L 397.700382 210.159133 
L 398.871756 202.436857 
L 401.214504 170.553797 
L 402.385878 164.928099 
L 407.071374 164.928099 
L 408.242748 167.683694 
L 409.414122 167.683694 
L 410.585496 169.309123 
L 411.75687 169.309123 
L 412.928244 174.87255 
L 414.099618 182.398631 
L 415.270992 174.87255 
L 418.785115 174.87255 
L 419.956489 173.986929 
L 421.127863 182.398631 
L 422.299237 167.683694 
L 423.470611 155.559513 
L 424.641985 148.822724 
L 426.984733 148.822724 
L 428.156107 144.097631 
L 430.498855 144.097631 
L 431.670229 148.822724 
L 432.841603 148.822724 
L 434.012977 154.22464 
L 435.184351 155.897301 
L 436.355725 157.265218 
L 438.698473 157.265218 
L 439.869847 159.369266 
L 441.041221 159.369266 
L 442.212595 162.650611 
L 443.383969 159.369266 
L 444.555344 162.650611 
L 445.726718 163.779969 
L 449.24084 163.779969 
L 450.412214 167.283243 
L 452.754962 167.283243 
L 453.926336 171.821311 
L 455.09771 167.283243 
L 456.269084 160.085102 
L 457.440458 159.014111 
L 458.611832 149.436751 
L 459.783206 149.436751 
L 460.95458 140.212729 
L 462.125954 140.212729 
L 463.297328 129.026807 
L 464.468702 129.026807 
L 465.640076 121.840619 
L 470.325573 121.840619 
L 471.496947 122.2555 
L 472.668321 122.2555 
L 473.839695 123.940402 
L 475.011069 123.940402 
L 477.353817 129.487325 
L 478.525191 129.487325 
L 479.696565 131.36073 
L 480.867939 131.36073 
L 482.039313 132.557944 
L 483.210687 134.766651 
L 484.382061 134.766651 
L 485.553435 136.791046 
L 486.724809 137.565756 
L 487.896183 137.565756 
L 489.067557 137.825935 
L 490.238931 137.306553 
L 491.410305 137.825935 
L 492.581679 137.825935 
L 493.753053 137.306553 
L 494.924427 137.048319 
L 497.267176 137.048319 
L 498.43855 137.306553 
L 500.781298 137.306553 
L 501.952672 139.141738 
L 503.124046 137.306553 
L 504.29542 137.306553 
L 505.466794 138.876565 
L 507.809542 138.876565 
L 508.980916 143.812775 
L 510.15229 143.812775 
L 511.323664 147.31112 
L 513.666412 147.31112 
L 514.837786 149.745823 
L 517.180534 149.745823 
L 518.351908 153.894913 
L 519.523282 156.577874 
L 520.694656 156.577874 
L 521.866031 153.894913 
L 523.037405 153.894913 
L 524.208779 149.745823 
L 525.380153 147.610806 
L 526.551527 147.610806 
L 527.722901 147.31112 
L 530.065649 147.31112 
L 531.237023 146.12521 
L 532.408397 146.12521 
L 533.579771 147.31112 
L 534.751145 146.12521 
L 541.779389 146.12521 
L 542.950763 144.959316 
L 544.122137 149.129055 
L 547.63626 149.129055 
L 548.807634 143.812775 
L 549.979008 137.565756 
L 551.150382 137.565756 
L 552.321756 132.316836 
L 553.49313 132.316836 
L 554.664504 127.438747 
L 557.007252 119.004192 
L 564.035496 119.004192 
L 565.20687 125.667431 
L 567.549618 125.667431 
L 568.720992 129.256682 
L 569.892366 129.256682 
L 571.06374 130.183912 
L 572.235115 130.183912 
L 573.406489 132.799897 
L 574.577863 139.943421 
L 575.749237 139.943421 
L 576.920611 143.246562 
L 578.091985 144.959316 
L 579.263359 137.825935 
L 580.434733 148.822724 
L 581.606107 158.309231 
L 582.777481 159.726257 
L 585.120229 159.726257 
L 586.291603 161.907834 
L 587.462977 165.315089 
L 592.148473 165.315089 
L 593.319847 169.721528 
L 594.491221 169.721528 
L 596.833969 191.97854 
L 598.005344 191.97854 
L 600.348092 199.829847 
L 601.519466 197.937193 
L 606.204962 197.937193 
L 607.376336 198.562334 
L 608.54771 200.472434 
L 610.890458 200.472434 
L 612.061832 204.458783 
L 613.233206 207.250175 
L 614.40458 213.976543 
L 615.575954 217.190032 
L 616.747328 218.854632 
L 617.918702 223.200565 
L 619.090076 225.945729 
L 620.26145 230.778297 
L 621.432824 238.167669 
L 622.604198 246.443242 
L 623.775573 255.846919 
L 624.946947 263.445512 
L 627.289695 270.190138 
L 628.461069 288.313619 
L 629.632443 312.95185 
L 630.803817 312.95185 
L 631.975191 319.86537 
L 633.146565 323.600201 
L 634.317939 323.600201 
L 635.489313 319.86537 
L 636.660687 327.548564 
L 639.003435 327.548564 
L 640.174809 331.736365 
L 641.346183 340.960386 
L 642.517557 340.960386 
L 643.688931 331.736365 
L 644.860305 331.736365 
L 646.031679 327.548564 
L 647.203053 340.960386 
L 650.717176 340.960386 
L 651.88855 357.61927 
L 653.059924 340.960386 
L 654.231298 351.608737 
L 655.402672 346.079583 
L 658.916794 346.079583 
L 660.088168 364.203064 
L 661.259542 379.617273 
L 662.430916 388.841295 
L 663.60229 379.617273 
L 665.945038 379.617273 
L 667.116412 388.841295 
L 668.287786 379.617273 
L 675.316031 379.617273 
L 676.487405 371.48111 
L 677.658779 351.608737 
L 678.830153 340.960386 
L 680.001527 336.194527 
L 682.344275 336.194527 
L 683.515649 316.322155 
L 684.687023 319.86537 
L 685.858397 306.667742 
L 687.029771 300.907945 
L 688.201145 283.855456 
L 694.058015 283.855456 
L 695.229389 268.441246 
L 696.400763 260.305082 
L 699.914885 260.305082 
L 702.257634 232.810136 
L 703.429008 231.786746 
L 704.600382 218.017318 
L 708.114504 218.017318 
L 710.457252 197.937193 
L 711.628626 177.59965 
L 712.8 163.779969 
L 712.8 163.779969 
" style="fill:none;stroke:#1f77b4;stroke-linecap:square;stroke-width:1.5;"/>
   </g>
   <g id="line2d_83">
    <path clip-path="url(#p68e2955192)" d="M 127.112316 613 
L 127.112977 523.26 
L 128.284351 475.379091 
L 138.826718 475.379091 
L 139.998092 523.26 
L 141.169466 475.379091 
L 170.453817 475.379091 
L 171.625191 523.26 
L 171.625852 613 
M 412.927583 613 
L 412.928244 523.26 
L 414.099618 475.379091 
L 419.956489 475.379091 
L 421.127863 447.370555 
L 422.299237 427.498182 
L 437.527099 427.498182 
L 438.698473 447.370555 
L 439.869847 427.498182 
L 441.041221 427.498182 
L 442.212595 447.370555 
L 443.383969 475.379091 
L 444.555344 447.370555 
L 445.726718 427.498182 
L 446.898092 447.370555 
L 448.069466 447.370555 
L 449.24084 427.498182 
L 450.412214 447.370555 
L 451.583588 427.498182 
L 452.754962 447.370555 
L 453.926336 427.498182 
L 455.09771 412.083973 
L 459.783206 412.083973 
L 460.95458 427.498182 
L 462.125954 447.370555 
L 463.297328 427.498182 
L 464.468702 447.370555 
L 466.81145 447.370555 
L 467.982824 475.379091 
L 469.154198 475.379091 
L 470.325573 523.26 
L 470.326234 613 
M 476.181782 613 
L 476.182443 523.26 
L 477.353817 523.26 
L 478.525191 475.379091 
L 479.696565 523.26 
L 480.867939 475.379091 
L 482.039313 523.26 
L 482.039974 613 
M 484.3814 613 
L 484.382061 523.26 
L 485.553435 475.379091 
L 528.894275 475.379091 
L 530.065649 523.26 
L 530.06631 613 
M 533.57911 613 
L 533.579771 523.26 
L 534.751145 523.26 
L 534.751806 613 
M 546.464224 613 
L 546.464885 523.26 
L 547.63626 475.379091 
L 548.807634 475.379091 
L 549.979008 523.26 
L 551.150382 475.379091 
L 552.321756 475.379091 
L 553.49313 523.26 
L 555.835878 523.26 
L 557.007252 475.379091 
L 560.521374 475.379091 
L 561.692748 523.26 
L 562.864122 523.26 
L 562.864783 613 
M 572.234453 613 
L 572.235115 523.26 
L 573.406489 523.26 
L 573.40715 613 
L 573.40715 613 
" style="fill:none;stroke:#ff7f0e;stroke-linecap:square;stroke-width:1.5;"/>
   </g>
   <g id="patch_3">
    <path d="M 99 544.68 
L 99 73.44 
" style="fill:none;stroke:#000000;stroke-linecap:square;stroke-linejoin:miter;stroke-width:0.8;"/>
   </g>
   <g id="patch_4">
    <path d="M 712.8 544.68 
L 712.8 73.44 
" style="fill:none;stroke:#000000;stroke-linecap:square;stroke-linejoin:miter;stroke-width:0.8;"/>
   </g>
   <g id="patch_5">
    <path d="M 99 544.68 
L 712.8 544.68 
" style="fill:none;stroke:#000000;stroke-linecap:square;stroke-linejoin:miter;stroke-width:0.8;"/>
   </g>
   <g id="patch_6">
    <path d="M 99 73.44 
L 712.8 73.44 
" style="fill:none;stroke:#000000;stroke-linecap:square;stroke-linejoin:miter;stroke-width:0.8;"/>
   </g>
   <g id="legend_1">
    <g id="patch_7">
     <path d="M 616.653125 110.79625 
L 705.8 110.79625 
Q 707.8 110.79625 707.8 108.79625 
L 707.8 80.44 
Q 707.8 78.44 705.8 78.44 
L 616.653125 78.44 
Q 614.653125 78.44 614.653125 80.44 
L 614.653125 108.79625 
Q 614.653125 110.79625 616.653125 110.79625 
z
" style="fill:#ffffff;opacity:0.8;stroke:#cccccc;stroke-linejoin:miter;"/>
    </g>
    <g id="line2d_84">
     <path d="M 618.653125 86.538437 
L 638.653125 86.538437 
" style="fill:none;stroke:#1f77b4;stroke-linecap:square;stroke-width:1.5;"/>
    </g>
    <g id="line2d_85"/>
    <g id="text_11">
     <!-- Avg Cases -->
     <g transform="translate(646.653125 90.038437)scale(0.1 -0.1)">
      <defs>
       <path d="M 191 3500 
L 800 3500 
L 1894 563 
L 2988 3500 
L 3597 3500 
L 2284 0 
L 1503 0 
L 191 3500 
z
" id="DejaVuSans-76" transform="scale(0.015625)"/>
       <path d="M 2906 1791 
Q 2906 2416 2648 2759 
Q 2391 3103 1925 3103 
Q 1463 3103 1205 2759 
Q 947 2416 947 1791 
Q 947 1169 1205 825 
Q 1463 481 1925 481 
Q 2391 481 2648 825 
Q 2906 1169 2906 1791 
z
M 3481 434 
Q 3481 -459 3084 -895 
Q 2688 -1331 1869 -1331 
Q 1566 -1331 1297 -1286 
Q 1028 -1241 775 -1147 
L 775 -588 
Q 1028 -725 1275 -790 
Q 1522 -856 1778 -856 
Q 2344 -856 2625 -561 
Q 2906 -266 2906 331 
L 2906 616 
Q 2728 306 2450 153 
Q 2172 0 1784 0 
Q 1141 0 747 490 
Q 353 981 353 1791 
Q 353 2603 747 3093 
Q 1141 3584 1784 3584 
Q 2172 3584 2450 3431 
Q 2728 3278 2906 2969 
L 2906 3500 
L 3481 3500 
L 3481 434 
z
" id="DejaVuSans-67" transform="scale(0.015625)"/>
       <path id="DejaVuSans-20" transform="scale(0.015625)"/>
       <path d="M 4122 4306 
L 4122 3641 
Q 3803 3938 3442 4084 
Q 3081 4231 2675 4231 
Q 1875 4231 1450 3742 
Q 1025 3253 1025 2328 
Q 1025 1406 1450 917 
Q 1875 428 2675 428 
Q 3081 428 3442 575 
Q 3803 722 4122 1019 
L 4122 359 
Q 3791 134 3420 21 
Q 3050 -91 2638 -91 
Q 1578 -91 968 557 
Q 359 1206 359 2328 
Q 359 3453 968 4101 
Q 1578 4750 2638 4750 
Q 3056 4750 3426 4639 
Q 3797 4528 4122 4306 
z
" id="DejaVuSans-43" transform="scale(0.015625)"/>
       <path d="M 2834 3397 
L 2834 2853 
Q 2591 2978 2328 3040 
Q 2066 3103 1784 3103 
Q 1356 3103 1142 2972 
Q 928 2841 928 2578 
Q 928 2378 1081 2264 
Q 1234 2150 1697 2047 
L 1894 2003 
Q 2506 1872 2764 1633 
Q 3022 1394 3022 966 
Q 3022 478 2636 193 
Q 2250 -91 1575 -91 
Q 1294 -91 989 -36 
Q 684 19 347 128 
L 347 722 
Q 666 556 975 473 
Q 1284 391 1588 391 
Q 1994 391 2212 530 
Q 2431 669 2431 922 
Q 2431 1156 2273 1281 
Q 2116 1406 1581 1522 
L 1381 1569 
Q 847 1681 609 1914 
Q 372 2147 372 2553 
Q 372 3047 722 3315 
Q 1072 3584 1716 3584 
Q 2034 3584 2315 3537 
Q 2597 3491 2834 3397 
z
" id="DejaVuSans-73" transform="scale(0.015625)"/>
      </defs>
      <use xlink:href="#DejaVuSans-41"/>
      <use x="62.533203" xlink:href="#DejaVuSans-76"/>
      <use x="121.712891" xlink:href="#DejaVuSans-67"/>
      <use x="185.189453" xlink:href="#DejaVuSans-20"/>
      <use x="216.976562" xlink:href="#DejaVuSans-43"/>
      <use x="286.800781" xlink:href="#DejaVuSans-61"/>
      <use x="348.080078" xlink:href="#DejaVuSans-73"/>
      <use x="400.179688" xlink:href="#DejaVuSans-65"/>
      <use x="461.703125" xlink:href="#DejaVuSans-73"/>
     </g>
    </g>
    <g id="line2d_86">
     <path d="M 618.653125 101.216562 
L 638.653125 101.216562 
" style="fill:none;stroke:#ff7f0e;stroke-linecap:square;stroke-width:1.5;"/>
    </g>
    <g id="line2d_87"/>
    <g id="text_12">
     <!-- Avg Deaths -->
     <g transform="translate(646.653125 104.716562)scale(0.1 -0.1)">
      <defs>
       <path d="M 3513 2113 
L 3513 0 
L 2938 0 
L 2938 2094 
Q 2938 2591 2744 2837 
Q 2550 3084 2163 3084 
Q 1697 3084 1428 2787 
Q 1159 2491 1159 1978 
L 1159 0 
L 581 0 
L 581 4863 
L 1159 4863 
L 1159 2956 
Q 1366 3272 1645 3428 
Q 1925 3584 2291 3584 
Q 2894 3584 3203 3211 
Q 3513 2838 3513 2113 
z
" id="DejaVuSans-68" transform="scale(0.015625)"/>
      </defs>
      <use xlink:href="#DejaVuSans-41"/>
      <use x="62.533203" xlink:href="#DejaVuSans-76"/>
      <use x="121.712891" xlink:href="#DejaVuSans-67"/>
      <use x="185.189453" xlink:href="#DejaVuSans-20"/>
      <use x="216.976562" xlink:href="#DejaVuSans-44"/>
      <use x="293.978516" xlink:href="#DejaVuSans-65"/>
      <use x="355.501953" xlink:href="#DejaVuSans-61"/>
      <use x="416.78125" xlink:href="#DejaVuSans-74"/>
      <use x="455.990234" xlink:href="#DejaVuSans-68"/>
      <use x="519.369141" xlink:href="#DejaVuSans-73"/>
     </g>
    </g>
   </g>
  </g>
 </g>
 <defs>
  <clipPath id="p68e2955192">
   <rect height="471.24" width="613.8" x="99" y="73.44"/>
  </clipPath>
 </defs>
</svg>
