<?xml version="1.0" encoding="utf-8" standalone="no"?>
<!DOCTYPE svg PUBLIC "-//W3C//DTD SVG 1.1//EN"
  "http://www.w3.org/Graphics/SVG/1.1/DTD/svg11.dtd">
<svg height="612pt" version="1.1" viewBox="0 0 792 612" width="792pt" xmlns="http://www.w3.org/2000/svg" xmlns:xlink="http://www.w3.org/1999/xlink">
 <metadata>
  <rdf:RDF xmlns:cc="http://creativecommons.org/ns#" xmlns:dc="http://purl.org/dc/elements/1.1/" xmlns:rdf="http://www.w3.org/1999/02/22-rdf-syntax-ns#">
   <cc:Work>
    <dc:type rdf:resource="http://purl.org/dc/dcmitype/StillImage"/>
    <dc:format>image/svg+xml</dc:format>
    <dc:creator>
     <cc:Agent>
      <dc:title>Matplotlib v3.4.2, https://matplotlib.org/</dc:title>
     </cc:Agent>
    </dc:creator>
   </cc:Work>
  </rdf:RDF>
 </metadata>
 <defs>
  <style type="text/css">*{stroke-linecap:butt;stroke-linejoin:round;}</style>
 </defs>
 <g id="figure_1">
  <g id="patch_1">
   <path d="M 0 612 
L 792 612 
L 792 0 
L 0 0 
z
" style="fill:#ffffff;"/>
  </g>
  <g id="axes_1">
   <g id="patch_2">
    <path d="M 99 544.68 
L 712.8 544.68 
L 712.8 73.44 
L 99 73.44 
z
" style="fill:#ffffff;"/>
   </g>
   <g id="PolyCollection_1">
    <path clip-path="url(#p68e2955192)" d="M 99 157662.634912 
L 99 157662.634912 
L 100.1 157662.634912 
L 101.2 157662.634912 
L 102.3 157662.634912 
L 103.4 157662.634912 
L 104.5 157662.634912 
L 105.6 157662.634912 
L 106.7 157662.634912 
L 107.8 157662.634912 
L 108.9 157662.634912 
L 110 157662.634912 
L 111.1 157662.634912 
L 112.2 157662.634912 
L 113.3 370.297251 
L 114.4 349.221327 
L 115.5 349.221327 
L 116.6 286.245122 
L 117.7 271.437488 
L 118.8 264.621515 
L 119.9 252.226779 
L 121 249.946834 
L 122.1 249.203466 
L 123.2 249.203466 
L 124.3 249.203466 
L 125.4 237.459085 
L 126.5 237.459085 
L 127.6 237.459085 
L 128.7 230.557727 
L 129.8 213.401669 
L 130.9 207.534782 
L 132 207.534782 
L 133.1 207.534782 
L 134.2 207.534782 
L 135.3 207.534782 
L 136.4 207.534782 
L 137.5 207.534782 
L 138.6 207.534782 
L 139.7 207.534782 
L 140.8 207.534782 
L 141.9 207.534782 
L 143 207.534782 
L 144.1 207.534782 
L 145.2 215.625491 
L 146.3 239.352543 
L 147.4 239.352543 
L 148.5 240.64467 
L 149.6 244.674612 
L 150.7 244.674612 
L 151.8 261.600433 
L 152.9 273.165816 
L 154 273.165816 
L 155.1 293.390495 
L 156.2 293.390495 
L 157.3 293.390495 
L 158.4 293.390495 
L 159.5 290.622603 
L 160.6 307.456503 
L 161.7 304.070752 
L 162.8 304.070752 
L 163.9 304.070752 
L 165 304.070752 
L 166.1 304.070752 
L 167.2 304.070752 
L 168.3 318.076135 
L 169.4 318.076135 
L 170.5 318.076135 
L 171.6 318.076135 
L 172.7 318.076135 
L 173.8 318.076135 
L 174.9 336.597545 
L 176 342.135606 
L 177.1 357.128622 
L 178.2 357.128622 
L 179.3 357.128622 
L 180.4 357.128622 
L 181.5 357.128622 
L 182.6 357.128622 
L 183.7 357.128622 
L 184.8 360.819538 
L 185.9 353.627069 
L 187 353.627069 
L 188.1 353.627069 
L 189.2 353.627069 
L 190.3 353.627069 
L 191.4 353.627069 
L 192.5 357.128622 
L 193.6 357.128622 
L 194.7 357.128622 
L 195.8 357.128622 
L 196.9 357.128622 
L 198 357.128622 
L 199.1 290.622603 
L 200.2 277.12956 
L 201.3 277.12956 
L 202.4 277.12956 
L 203.5 277.12956 
L 204.6 277.12956 
L 205.7 277.12956 
L 206.8 277.12956 
L 207.9 277.12956 
L 209 277.12956 
L 210.1 277.12956 
L 211.2 277.12956 
L 212.3 284.984804 
L 213.4 284.984804 
L 214.5 295.300139 
L 215.6 306.30916 
L 216.7 308.037488 
L 217.8 308.037488 
L 218.9 295.300139 
L 220 311.631229 
L 221.1 311.631229 
L 222.2 311.631229 
L 223.3 311.631229 
L 224.4 311.631229 
L 225.5 311.631229 
L 226.6 311.631229 
L 227.7 288.837788 
L 228.8 288.837788 
L 229.9 288.837788 
L 231 290.172006 
L 232.1 290.172006 
L 233.2 290.172006 
L 234.3 316.077983 
L 235.4 293.390495 
L 236.5 293.390495 
L 237.6 293.390495 
L 238.7 290.622603 
L 239.8 290.622603 
L 240.9 290.622603 
L 242 290.622603 
L 243.1 300.845019 
L 244.2 300.845019 
L 245.3 300.845019 
L 246.4 300.845019 
L 247.5 300.845019 
L 248.6 300.845019 
L 249.7 300.845019 
L 250.8 302.438834 
L 251.9 302.438834 
L 253 302.438834 
L 254.1 308.037488 
L 255.2 308.037488 
L 256.3 308.037488 
L 257.4 312.249018 
L 258.5 312.249018 
L 259.6 312.249018 
L 260.7 312.249018 
L 261.8 314.136659 
L 262.9 318.076135 
L 264 318.076135 
L 265.1 318.076135 
L 266.2 328.262166 
L 267.3 330.657686 
L 268.4 343.103925 
L 269.5 343.103925 
L 270.6 343.103925 
L 271.7 330.657686 
L 272.8 330.657686 
L 273.9 330.657686 
L 275 320.834705 
L 276.1 320.834705 
L 277.2 320.834705 
L 278.3 309.810712 
L 279.4 309.810712 
L 280.5 309.810712 
L 281.6 309.810712 
L 282.7 309.810712 
L 283.8 306.30916 
L 284.9 306.30916 
L 286 306.30916 
L 287.1 306.30916 
L 288.2 306.30916 
L 289.3 306.30916 
L 290.4 311.631229 
L 291.5 306.30916 
L 292.6 306.30916 
L 293.7 308.037488 
L 294.8 308.037488 
L 295.9 308.037488 
L 297 308.037488 
L 298.1 308.037488 
L 299.2 312.249018 
L 300.3 312.249018 
L 301.4 312.249018 
L 302.5 312.249018 
L 303.6 312.249018 
L 304.7 312.249018 
L 305.8 312.249018 
L 306.9 316.077983 
L 308 328.262166 
L 309.1 316.077983 
L 310.2 330.657686 
L 311.3 330.657686 
L 312.4 330.657686 
L 313.5 330.657686 
L 314.6 330.657686 
L 315.7 330.657686 
L 316.8 330.657686 
L 317.9 330.657686 
L 319 330.657686 
L 320.1 330.657686 
L 321.2 330.657686 
L 322.3 336.597545 
L 323.4 336.597545 
L 324.5 346.094124 
L 325.6 349.221327 
L 326.7 349.221327 
L 327.8 349.221327 
L 328.9 336.597545 
L 330 322.979342 
L 331.1 322.979342 
L 332.2 305.742639 
L 333.3 305.742639 
L 334.4 305.742639 
L 335.5 304.070752 
L 336.6 304.070752 
L 337.7 304.070752 
L 338.8 304.070752 
L 339.9 304.070752 
L 341 304.070752 
L 342.1 304.070752 
L 343.2 297.264744 
L 344.3 298.776215 
L 345.4 298.776215 
L 346.5 298.776215 
L 347.6 308.037488 
L 348.7 308.037488 
L 349.8 298.776215 
L 350.9 292.455339 
L 352 287.962579 
L 353.1 259.849945 
L 354.2 247.499787 
L 355.3 247.499787 
L 356.4 244.444375 
L 357.5 244.444375 
L 358.6 244.444375 
L 359.7 244.444375 
L 360.8 244.444375 
L 361.9 244.444375 
L 363 244.444375 
L 364.1 244.444375 
L 365.2 243.758286 
L 366.3 243.758286 
L 367.4 243.758286 
L 368.5 243.758286 
L 369.6 234.8136 
L 370.7 234.8136 
L 371.8 220.303027 
L 372.9 213.987641 
L 374 190.766511 
L 375.1 171.626956 
L 376.2 163.227053 
L 377.3 163.227053 
L 378.4 154.321646 
L 379.5 154.321646 
L 380.6 154.321646 
L 381.7 150.211982 
L 382.8 138.599322 
L 383.9 138.599322 
L 385 138.599322 
L 386.1 138.599322 
L 387.2 138.599322 
L 388.3 138.599322 
L 389.4 138.599322 
L 390.5 134.346128 
L 391.6 134.346128 
L 392.7 134.346128 
L 393.8 134.346128 
L 394.9 134.346128 
L 396 125.626874 
L 397.1 121.405349 
L 398.2 121.405349 
L 399.3 121.405349 
L 400.4 121.405349 
L 401.5 121.405349 
L 402.6 121.405349 
L 403.7 121.405349 
L 404.8 121.405349 
L 405.9 126.970642 
L 407 126.970642 
L 408.1 126.970642 
L 409.2 126.970642 
L 410.3 126.970642 
L 411.4 143.605835 
L 412.5 143.605835 
L 413.6 143.605835 
L 414.7 144.716724 
L 415.8 144.716724 
L 416.9 144.716724 
L 418 144.716724 
L 419.1 144.716724 
L 420.2 144.876909 
L 421.3 149.065603 
L 422.4 140.527989 
L 423.5 144.079718 
L 424.6 144.556915 
L 425.7 144.556915 
L 426.8 144.556915 
L 427.9 146.063224 
L 429 146.063224 
L 430.1 125.224839 
L 431.2 125.224839 
L 432.3 125.224839 
L 433.4 121.823573 
L 434.5 121.823573 
L 435.6 105.606178 
L 436.7 102.865178 
L 437.8 102.865178 
L 438.9 102.865178 
L 440 102.865178 
L 441.1 102.865178 
L 442.2 102.865178 
L 443.3 102.865178 
L 444.4 102.865178 
L 445.5 110.048017 
L 446.6 110.048017 
L 447.7 110.048017 
L 448.8 110.048017 
L 449.9 110.048017 
L 451 115.005874 
L 452.1 121.291732 
L 453.2 121.291732 
L 454.3 121.291732 
L 455.4 121.291732 
L 456.5 121.291732 
L 457.6 121.291732 
L 458.7 123.679143 
L 459.8 123.679143 
L 460.9 125.345201 
L 462 125.345201 
L 463.1 126.929531 
L 464.2 126.929531 
L 465.3 127.052939 
L 466.4 123.875364 
L 467.5 127.052939 
L 468.6 126.438117 
L 469.7 126.438117 
L 470.8 126.438117 
L 471.9 126.438117 
L 473 126.438117 
L 474.1 126.438117 
L 475.2 124.98475 
L 476.3 128.467384 
L 477.4 128.467384 
L 478.5 124.705709 
L 479.6 124.705709 
L 480.7 124.705709 
L 481.8 128.467384 
L 482.9 128.467384 
L 484 128.593607 
L 485.1 128.593607 
L 486.2 128.593607 
L 487.3 128.593607 
L 488.4 128.593607 
L 489.5 128.593607 
L 490.6 133.481134 
L 491.7 134.99058 
L 492.8 134.99058 
L 493.9 141.23384 
L 495 141.23384 
L 496.1 141.23384 
L 497.2 141.23384 
L 498.3 141.23384 
L 499.4 137.631004 
L 500.5 137.631004 
L 501.6 137.631004 
L 502.7 137.631004 
L 503.8 137.631004 
L 504.9 137.631004 
L 506 137.631004 
L 507.1 137.92006 
L 508.2 122.244375 
L 509.3 122.244375 
L 510.4 122.244375 
L 511.5 122.244375 
L 512.6 136.771107 
L 513.7 135.875039 
L 514.8 130.68898 
L 515.9 122.167672 
L 517 122.167672 
L 518.1 122.167672 
L 519.2 122.167672 
L 520.3 119.058207 
L 521.4 117.572939 
L 522.5 117.572939 
L 523.6 116.330103 
L 524.7 116.330103 
L 525.8 116.330103 
L 526.9 116.330103 
L 528 103.913194 
L 529.1 100.900368 
L 530.2 100.900368 
L 531.3 99.897267 
L 532.4 99.897267 
L 533.5 99.897267 
L 534.6 99.897267 
L 535.7 99.897267 
L 536.8 101.690876 
L 537.9 101.690876 
L 539 101.266252 
L 540.1 101.266252 
L 541.2 101.266252 
L 542.3 101.266252 
L 543.4 103.096684 
L 544.5 103.532885 
L 545.6 103.532885 
L 546.7 110.36972 
L 547.8 110.36972 
L 548.9 110.36972 
L 550 110.36972 
L 551.1 126.071864 
L 552.2 126.071864 
L 553.3 126.438117 
L 554.4 136.392381 
L 555.5 136.392381 
L 556.6 136.392381 
L 557.7 136.392381 
L 558.8 141.031423 
L 559.9 145.03747 
L 561 145.03747 
L 562.1 149.981161 
L 563.2 149.981161 
L 564.3 149.981161 
L 565.4 161.705372 
L 566.5 161.705372 
L 567.6 161.705372 
L 568.7 161.705372 
L 569.8 161.705372 
L 570.9 161.705372 
L 572 161.705372 
L 573.1 161.705372 
L 574.2 164.284358 
L 575.3 168.913043 
L 576.4 170.52841 
L 577.5 184.469856 
L 578.6 184.469856 
L 579.7 184.469856 
L 580.8 184.469856 
L 581.9 184.469856 
L 583 188.805619 
L 584.1 188.805619 
L 585.2 188.805619 
L 586.3 188.805619 
L 587.4 191.928052 
L 588.5 191.928052 
L 589.6 207.001456 
L 590.7 221.114752 
L 591.8 226.375055 
L 592.9 226.375055 
L 594 226.375055 
L 595.1 226.375055 
L 596.2 234.415551 
L 597.3 256.752843 
L 598.4 265.868405 
L 599.5 265.868405 
L 600.6 269.089064 
L 601.7 258.42473 
L 602.8 258.42473 
L 603.9 279.010266 
L 605 297.264744 
L 606.1 297.264744 
L 607.2 297.264744 
L 608.3 297.264744 
L 609.4 297.264744 
L 610.5 297.264744 
L 611.6 297.264744 
L 612.7 297.264744 
L 613.8 297.264744 
L 614.9 297.264744 
L 616 297.264744 
L 617.1 304.070752 
L 618.2 316.077983 
L 619.3 316.077983 
L 620.4 325.947866 
L 621.5 325.947866 
L 622.6 325.947866 
L 623.7 325.947866 
L 624.8 325.947866 
L 625.9 325.947866 
L 627 328.262166 
L 628.1 333.988362 
L 629.2 333.988362 
L 630.3 333.988362 
L 631.4 333.988362 
L 632.5 336.597545 
L 633.6 322.979342 
L 634.7 325.193546 
L 635.8 325.193546 
L 636.9 309.810712 
L 638 309.810712 
L 639.1 309.810712 
L 640.2 298.776215 
L 641.3 298.776215 
L 642.4 280.553051 
L 643.5 280.553051 
L 644.6 270.085656 
L 645.7 270.085656 
L 646.8 270.085656 
L 647.9 251.969658 
L 649 251.969658 
L 650.1 251.969658 
L 651.2 241.300022 
L 652.3 241.300022 
L 653.4 241.300022 
L 654.5 241.300022 
L 655.6 232.652503 
L 656.7 232.652503 
L 657.8 220.464602 
L 658.9 220.464602 
L 660 203.003667 
L 661.1 203.003667 
L 662.2 203.003667 
L 663.3 187.795759 
L 664.4 187.795759 
L 665.5 187.795759 
L 666.6 172.985117 
L 667.7 163.157145 
L 668.8 163.157145 
L 669.9 163.157145 
L 671 141.284539 
L 672.1 141.284539 
L 673.2 141.284539 
L 674.3 137.582946 
L 675.4 131.827491 
L 676.5 131.827491 
L 677.6 131.827491 
L 678.7 134.944345 
L 679.8 106.881067 
L 680.9 106.881067 
L 682 105.786854 
L 683.1 105.786854 
L 684.2 105.786854 
L 685.3 94.86 
L 686.4 101.492389 
L 687.5 101.492389 
L 688.6 101.492389 
L 689.7 101.492389 
L 690.8 101.492389 
L 691.9 99.980298 
L 693 99.980298 
L 694.1 99.980298 
L 695.2 120.839142 
L 696.3 115.839236 
L 697.4 115.839236 
L 698.5 115.839236 
L 699.6 115.839236 
L 700.7 119.499104 
L 701.8 119.499104 
L 702.9 115.839236 
L 704 115.839236 
L 705.1 115.839236 
L 706.2 115.839236 
L 707.3 114.592978 
L 708.4 114.592978 
L 709.5 114.592978 
L 710.6 114.592978 
L 711.7 114.35327 
L 712.8 112.365637 
L 712.8 136.015743 
L 712.8 136.015743 
L 711.7 137.72722 
L 710.6 137.72722 
L 709.5 135.454656 
L 708.4 137.72722 
L 707.3 140.37768 
L 706.2 140.37768 
L 705.1 140.37768 
L 704 140.37768 
L 702.9 140.37768 
L 701.8 143.816044 
L 700.7 150.734202 
L 699.6 141.031423 
L 698.5 151.026059 
L 697.4 152.62402 
L 696.3 152.62402 
L 695.2 158.760137 
L 694.1 158.760137 
L 693 158.760137 
L 691.9 164.711909 
L 690.8 182.308489 
L 689.7 182.308489 
L 688.6 182.308489 
L 687.5 182.308489 
L 686.4 182.308489 
L 685.3 174.453245 
L 684.2 157662.634912 
L 683.1 157662.634912 
L 682 157662.634912 
L 680.9 157662.634912 
L 679.8 157662.634912 
L 678.7 157662.634912 
L 677.6 233.040376 
L 676.5 233.040376 
L 675.4 233.040376 
L 674.3 233.040376 
L 673.2 260.719578 
L 672.1 260.719578 
L 671 313.501628 
L 669.9 313.501628 
L 668.8 313.501628 
L 667.7 313.501628 
L 666.6 313.501628 
L 665.5 313.501628 
L 664.4 313.501628 
L 663.3 319.441487 
L 662.2 319.441487 
L 661.1 319.441487 
L 660 319.441487 
L 658.9 319.441487 
L 657.8 319.441487 
L 656.7 319.441487 
L 655.6 341.180831 
L 654.5 341.180831 
L 653.4 341.180831 
L 652.3 341.180831 
L 651.2 341.180831 
L 650.1 373.265776 
L 649 373.265776 
L 647.9 373.265776 
L 646.8 157662.634912 
L 645.7 157662.634912 
L 644.6 157662.634912 
L 643.5 157662.634912 
L 642.4 157662.634912 
L 641.3 157662.634912 
L 640.2 157662.634912 
L 639.1 157662.634912 
L 638 157662.634912 
L 636.9 157662.634912 
L 635.8 157662.634912 
L 634.7 157662.634912 
L 633.6 157662.634912 
L 632.5 157662.634912 
L 631.4 435.81665 
L 630.3 435.81665 
L 629.2 435.81665 
L 628.1 435.81665 
L 627 408.137447 
L 625.9 408.137447 
L 624.8 408.137447 
L 623.7 408.137447 
L 622.6 408.137447 
L 621.5 408.137447 
L 620.4 408.137447 
L 619.3 408.137447 
L 618.2 408.137447 
L 617.1 408.137447 
L 616 408.137447 
L 614.9 408.137447 
L 613.8 408.137447 
L 612.7 373.265776 
L 611.6 373.265776 
L 610.5 373.265776 
L 609.4 388.49874 
L 608.3 388.49874 
L 607.2 367.452451 
L 606.1 354.774412 
L 605 336.597545 
L 603.9 336.597545 
L 602.8 333.988362 
L 601.7 333.988362 
L 600.6 333.988362 
L 599.5 333.988362 
L 598.4 326.710615 
L 597.3 326.710615 
L 596.2 325.947866 
L 595.1 319.441487 
L 594 312.87245 
L 592.9 278.251755 
L 591.8 271.779671 
L 590.7 268.432662 
L 589.6 265.242113 
L 588.5 254.585508 
L 587.4 247.740582 
L 586.3 238.08442 
L 585.2 231.883309 
L 584.1 227.981372 
L 583 226.023171 
L 581.9 222.935269 
L 580.8 219.50084 
L 579.7 216.688599 
L 578.6 216.688599 
L 577.5 216.688599 
L 576.4 210.825313 
L 575.3 210.825313 
L 574.2 210.825313 
L 573.1 210.825313 
L 572 210.405218 
L 570.9 210.405218 
L 569.8 212.676207 
L 568.7 210.405218 
L 567.6 210.405218 
L 566.5 210.405218 
L 565.4 202.132448 
L 564.3 199.941929 
L 563.2 199.941929 
L 562.1 193.65365 
L 561 193.65365 
L 559.9 193.65365 
L 558.8 193.65365 
L 557.7 193.65365 
L 556.6 190.245001 
L 555.5 172.74347 
L 554.4 169.6775 
L 553.3 169.6775 
L 552.2 168.157052 
L 551.1 164.855023 
L 550 163.718425 
L 548.9 164.855023 
L 547.8 163.718425 
L 546.7 161.773809 
L 545.6 161.773809 
L 544.5 157.978465 
L 543.4 157.978465 
L 542.3 157.978465 
L 541.2 150.967587 
L 540.1 150.909166 
L 539 137.056538 
L 537.9 137.056538 
L 536.8 146.719101 
L 535.7 146.719101 
L 534.6 146.719101 
L 533.5 146.719101 
L 532.4 146.719101 
L 531.3 147.325907 
L 530.2 147.325907 
L 529.1 147.325907 
L 528 147.325907 
L 526.9 147.325907 
L 525.8 157.462279 
L 524.7 162.531172 
L 523.6 162.531172 
L 522.5 162.531172 
L 521.4 165.142154 
L 520.3 165.142154 
L 519.2 165.142154 
L 518.1 166.449402 
L 517 171.232586 
L 515.9 171.232586 
L 514.8 171.232586 
L 513.7 171.232586 
L 512.6 171.232586 
L 511.5 171.232586 
L 510.4 161.228229 
L 509.3 161.160337 
L 508.2 170.372908 
L 507.1 170.372908 
L 506 162.392843 
L 504.9 162.392843 
L 503.8 170.372908 
L 502.7 170.372908 
L 501.6 170.450615 
L 500.5 170.450615 
L 499.4 170.450615 
L 498.3 170.450615 
L 497.2 170.450615 
L 496.1 170.450615 
L 495 172.103228 
L 493.9 174.618337 
L 492.8 174.618337 
L 491.7 174.618337 
L 490.6 174.618337 
L 489.5 174.618337 
L 488.4 161.500474 
L 487.3 161.500474 
L 486.2 161.773809 
L 485.1 161.773809 
L 484 161.773809 
L 482.9 161.773809 
L 481.8 157.59096 
L 480.7 157.59096 
L 479.6 151.849961 
L 478.5 151.613544 
L 477.4 151.613544 
L 476.3 150.559684 
L 475.2 150.559684 
L 474.1 150.559684 
L 473 150.559684 
L 471.9 150.559684 
L 470.8 149.236337 
L 469.7 149.236337 
L 468.6 149.236337 
L 467.5 149.236337 
L 466.4 146.609349 
L 465.3 149.236337 
L 464.2 149.236337 
L 463.1 149.236337 
L 462 146.609349 
L 460.9 146.609349 
L 459.8 146.609349 
L 458.7 146.609349 
L 457.6 146.609349 
L 456.5 146.55454 
L 455.4 142.979064 
L 454.3 146.55454 
L 453.2 138.648101 
L 452.1 138.648101 
L 451 138.648101 
L 449.9 134.254558 
L 448.8 138.648101 
L 447.7 129.868836 
L 446.6 138.648101 
L 445.5 148.612387 
L 444.4 148.612387 
L 443.3 149.636386 
L 442.2 149.636386 
L 441.1 154.876401 
L 440 160.350857 
L 438.9 168.685365 
L 437.8 175.282725 
L 436.7 175.282725 
L 435.6 177.315589 
L 434.5 177.315589 
L 433.4 182.308489 
L 432.3 182.308489 
L 431.2 182.308489 
L 430.1 182.308489 
L 429 182.308489 
L 427.9 182.123738 
L 426.8 182.123738 
L 425.7 175.785294 
L 424.6 182.308489 
L 423.5 182.308489 
L 422.4 172.823924 
L 421.3 173.55231 
L 420.2 171.944101 
L 419.1 171.944101 
L 418 168.382971 
L 416.9 166.010865 
L 415.8 166.376116 
L 414.7 166.376116 
L 413.6 166.376116 
L 412.5 162.531172 
L 411.4 162.531172 
L 410.3 159.154356 
L 409.2 159.154356 
L 408.1 162.600442 
L 407 173.715235 
L 405.9 184.469856 
L 404.8 184.469856 
L 403.7 188.907431 
L 402.6 189.111513 
L 401.5 190.976236 
L 400.4 189.111513 
L 399.3 189.111513 
L 398.2 189.111513 
L 397.1 189.111513 
L 396 189.111513 
L 394.9 191.821637 
L 393.8 191.821637 
L 392.7 191.821637 
L 391.6 201.028403 
L 390.5 191.821637 
L 389.4 191.821637 
L 388.3 175.785294 
L 387.2 175.11602 
L 386.1 175.11602 
L 385 184.565399 
L 383.9 201.150196 
L 382.8 213.255958 
L 381.7 214.72725 
L 380.6 217.458227 
L 379.5 232.459391 
L 378.4 245.37002 
L 377.3 261.896595 
L 376.2 261.896595 
L 375.1 261.896595 
L 374 262.492803 
L 372.9 268.106812 
L 371.8 269.089064 
L 370.7 269.089064 
L 369.6 279.010266 
L 368.5 279.010266 
L 367.4 279.010266 
L 366.3 279.010266 
L 365.2 282.93464 
L 364.1 287.09845 
L 363 291.532821 
L 361.9 297.764858 
L 360.8 312.87245 
L 359.7 312.87245 
L 358.6 312.87245 
L 357.5 312.87245 
L 356.4 312.87245 
L 355.3 318.755398 
L 354.2 318.755398 
L 353.1 318.755398 
L 352 318.755398 
L 350.9 319.441487 
L 349.8 319.441487 
L 348.7 326.710615 
L 347.6 333.988362 
L 346.5 333.988362 
L 345.4 334.847057 
L 344.3 334.847057 
L 343.2 334.847057 
L 342.1 344.086176 
L 341 344.086176 
L 339.9 355.941369 
L 338.8 381.306272 
L 337.7 383.0346 
L 336.6 383.0346 
L 335.5 383.0346 
L 334.4 400.944978 
L 333.3 400.944978 
L 332.2 400.944978 
L 331.1 400.944978 
L 330 400.944978 
L 328.9 400.944978 
L 327.8 403.259278 
L 326.7 403.259278 
L 325.6 428.624181 
L 324.5 428.624181 
L 323.4 428.624181 
L 322.3 428.624181 
L 321.2 428.624181 
L 320.1 428.624181 
L 319 403.259278 
L 317.9 403.259278 
L 316.8 400.944978 
L 315.7 400.944978 
L 314.6 403.259278 
L 313.5 403.259278 
L 312.4 400.944978 
L 311.3 403.259278 
L 310.2 403.259278 
L 309.1 403.259278 
L 308 403.259278 
L 306.9 403.259278 
L 305.8 403.259278 
L 304.7 403.259278 
L 303.6 403.259278 
L 302.5 400.944978 
L 301.4 400.944978 
L 300.3 368.860033 
L 299.2 367.452451 
L 298.1 367.452451 
L 297 381.306272 
L 295.9 381.306272 
L 294.8 381.306272 
L 293.7 381.306272 
L 292.6 381.306272 
L 291.5 381.306272 
L 290.4 381.306272 
L 289.3 381.306272 
L 288.2 381.306272 
L 287.1 381.306272 
L 286 381.306272 
L 284.9 381.306272 
L 283.8 381.306272 
L 282.7 381.306272 
L 281.6 383.0346 
L 280.5 368.860033 
L 279.4 366.073307 
L 278.3 366.073307 
L 277.2 367.452451 
L 276.1 367.452451 
L 275 367.452451 
L 273.9 367.452451 
L 272.8 383.0346 
L 271.7 400.944978 
L 270.6 400.944978 
L 269.5 403.259278 
L 268.4 403.259278 
L 267.3 403.259278 
L 266.2 403.259278 
L 265.1 403.259278 
L 264 432.125734 
L 262.9 432.125734 
L 261.8 403.259278 
L 260.7 403.259278 
L 259.6 403.259278 
L 258.5 403.259278 
L 257.4 383.0346 
L 256.3 381.306272 
L 255.2 381.306272 
L 254.1 367.452451 
L 253 354.774412 
L 251.9 354.774412 
L 250.8 366.073307 
L 249.7 366.073307 
L 248.6 366.073307 
L 247.5 367.452451 
L 246.4 381.306272 
L 245.3 381.306272 
L 244.2 383.0346 
L 243.1 383.0346 
L 242 383.0346 
L 240.9 403.259278 
L 239.8 428.624181 
L 238.7 428.624181 
L 237.6 428.624181 
L 236.5 428.624181 
L 235.4 428.624181 
L 234.3 428.624181 
L 233.2 428.624181 
L 232.1 428.624181 
L 231 428.624181 
L 229.9 428.624181 
L 228.8 428.624181 
L 227.7 428.624181 
L 226.6 428.624181 
L 225.5 428.624181 
L 224.4 428.624181 
L 223.3 428.624181 
L 222.2 428.624181 
L 221.1 403.259278 
L 220 403.259278 
L 218.9 403.259278 
L 217.8 403.259278 
L 216.7 400.944978 
L 215.6 400.944978 
L 214.5 400.944978 
L 213.4 368.860033 
L 212.3 403.259278 
L 211.2 403.259278 
L 210.1 403.259278 
L 209 368.860033 
L 207.9 370.297251 
L 206.8 367.452451 
L 205.7 384.807824 
L 204.6 428.624181 
L 203.5 428.624181 
L 202.4 428.624181 
L 201.3 428.624181 
L 200.2 428.624181 
L 199.1 428.624181 
L 198 428.624181 
L 196.9 428.624181 
L 195.8 428.624181 
L 194.7 428.624181 
L 193.6 428.624181 
L 192.5 428.624181 
L 191.4 428.624181 
L 190.3 432.125734 
L 189.2 432.125734 
L 188.1 432.125734 
L 187 432.125734 
L 185.9 475.942091 
L 184.8 475.942091 
L 183.7 475.942091 
L 182.6 475.942091 
L 181.5 475.942091 
L 180.4 475.942091 
L 179.3 475.942091 
L 178.2 475.942091 
L 177.1 475.942091 
L 176 475.942091 
L 174.9 432.125734 
L 173.8 428.624181 
L 172.7 428.624181 
L 171.6 432.125734 
L 170.5 403.259278 
L 169.4 383.0346 
L 168.3 383.0346 
L 167.2 381.306272 
L 166.1 381.306272 
L 165 384.807824 
L 163.9 381.306272 
L 162.8 384.807824 
L 161.7 384.807824 
L 160.6 384.807824 
L 159.5 384.807824 
L 158.4 384.807824 
L 157.3 384.807824 
L 156.2 381.306272 
L 155.1 381.306272 
L 154 381.306272 
L 152.9 381.306272 
L 151.8 381.306272 
L 150.7 367.452451 
L 149.6 345.082768 
L 148.5 327.481983 
L 147.4 325.947866 
L 146.3 313.501628 
L 145.2 288.837788 
L 144.1 288.837788 
L 143 269.751839 
L 141.9 269.419647 
L 140.8 262.492803 
L 139.7 249.698145 
L 138.6 249.698145 
L 137.5 249.450357 
L 136.4 251.713503 
L 135.3 254.054257 
L 134.2 251.204058 
L 133.1 251.204058 
L 132 254.054257 
L 130.9 259.276283 
L 129.8 262.492803 
L 128.7 268.432662 
L 127.6 271.437488 
L 126.5 271.437488 
L 125.4 276.025515 
L 124.3 345.082768 
L 123.2 367.452451 
L 122.1 383.0346 
L 121 400.944978 
L 119.9 400.944978 
L 118.8 400.944978 
L 117.7 403.259278 
L 116.6 432.125734 
L 115.5 483.134559 
L 114.4 157662.634912 
L 113.3 157662.634912 
L 112.2 157662.634912 
L 111.1 157662.634912 
L 110 157662.634912 
L 108.9 157662.634912 
L 107.8 157662.634912 
L 106.7 157662.634912 
L 105.6 157662.634912 
L 104.5 157662.634912 
L 103.4 157662.634912 
L 102.3 157662.634912 
L 101.2 157662.634912 
L 100.1 157662.634912 
L 99 157662.634912 
z
" style="fill:#8080ff;fill-opacity:0.5;stroke:#8080ff;stroke-opacity:0.5;"/>
   </g>
   <g id="PolyCollection_2">
    <path clip-path="url(#p68e2955192)" d="M 99 157662.634912 
L 99 157662.634912 
L 100.1 157662.634912 
L 101.2 157662.634912 
L 102.3 157662.634912 
L 103.4 157662.634912 
L 104.5 157662.634912 
L 105.6 157662.634912 
L 106.7 157662.634912 
L 107.8 157662.634912 
L 108.9 157662.634912 
L 110 157662.634912 
L 111.1 157662.634912 
L 112.2 157662.634912 
L 113.3 157662.634912 
L 114.4 157662.634912 
L 115.5 157662.634912 
L 116.6 157662.634912 
L 117.7 452.972708 
L 118.8 439.718587 
L 119.9 439.718587 
L 121 439.718587 
L 122.1 428.624181 
L 123.2 428.624181 
L 124.3 428.624181 
L 125.4 428.624181 
L 126.5 408.137447 
L 127.6 408.137447 
L 128.7 408.137447 
L 129.8 400.944978 
L 130.9 400.944978 
L 132 400.944978 
L 133.1 408.137447 
L 134.2 408.137447 
L 135.3 408.137447 
L 136.4 408.137447 
L 137.5 408.137447 
L 138.6 408.137447 
L 139.7 408.137447 
L 140.8 408.137447 
L 141.9 428.624181 
L 143 408.137447 
L 144.1 408.137447 
L 145.2 428.624181 
L 146.3 428.624181 
L 147.4 428.624181 
L 148.5 428.624181 
L 149.6 428.624181 
L 150.7 408.137447 
L 151.8 408.137447 
L 152.9 408.137447 
L 154 408.137447 
L 155.1 408.137447 
L 156.2 408.137447 
L 157.3 408.137447 
L 158.4 428.624181 
L 159.5 428.624181 
L 160.6 428.624181 
L 161.7 428.624181 
L 162.8 428.624181 
L 163.9 428.624181 
L 165 428.624181 
L 166.1 428.624181 
L 167.2 428.624181 
L 168.3 439.718587 
L 169.4 439.718587 
L 170.5 439.718587 
L 171.6 439.718587 
L 172.7 439.718587 
L 173.8 475.942091 
L 174.9 475.942091 
L 176 500.290617 
L 177.1 500.290617 
L 178.2 500.290617 
L 179.3 500.290617 
L 180.4 500.290617 
L 181.5 157662.634912 
L 182.6 157662.634912 
L 183.7 157662.634912 
L 184.8 157662.634912 
L 185.9 157662.634912 
L 187 157662.634912 
L 188.1 157662.634912 
L 189.2 500.290617 
L 190.3 500.290617 
L 191.4 500.290617 
L 192.5 157662.634912 
L 193.6 157662.634912 
L 194.7 157662.634912 
L 195.8 157662.634912 
L 196.9 157662.634912 
L 198 157662.634912 
L 199.1 157662.634912 
L 200.2 157662.634912 
L 201.3 157662.634912 
L 202.4 157662.634912 
L 203.5 157662.634912 
L 204.6 157662.634912 
L 205.7 157662.634912 
L 206.8 157662.634912 
L 207.9 157662.634912 
L 209 157662.634912 
L 210.1 157662.634912 
L 211.2 157662.634912 
L 212.3 157662.634912 
L 213.4 157662.634912 
L 214.5 157662.634912 
L 215.6 157662.634912 
L 216.7 157662.634912 
L 217.8 157662.634912 
L 218.9 157662.634912 
L 220 157662.634912 
L 221.1 157662.634912 
L 222.2 157662.634912 
L 223.3 157662.634912 
L 224.4 157662.634912 
L 225.5 157662.634912 
L 226.6 157662.634912 
L 227.7 157662.634912 
L 228.8 157662.634912 
L 229.9 157662.634912 
L 231 157662.634912 
L 232.1 157662.634912 
L 233.2 157662.634912 
L 234.3 157662.634912 
L 235.4 157662.634912 
L 236.5 157662.634912 
L 237.6 157662.634912 
L 238.7 157662.634912 
L 239.8 157662.634912 
L 240.9 157662.634912 
L 242 157662.634912 
L 243.1 157662.634912 
L 244.2 157662.634912 
L 245.3 157662.634912 
L 246.4 157662.634912 
L 247.5 157662.634912 
L 248.6 157662.634912 
L 249.7 157662.634912 
L 250.8 157662.634912 
L 251.9 157662.634912 
L 253 157662.634912 
L 254.1 157662.634912 
L 255.2 157662.634912 
L 256.3 157662.634912 
L 257.4 157662.634912 
L 258.5 157662.634912 
L 259.6 157662.634912 
L 260.7 157662.634912 
L 261.8 157662.634912 
L 262.9 157662.634912 
L 264 157662.634912 
L 265.1 157662.634912 
L 266.2 500.290617 
L 267.3 500.290617 
L 268.4 500.290617 
L 269.5 500.290617 
L 270.6 500.290617 
L 271.7 500.290617 
L 272.8 500.290617 
L 273.9 157662.634912 
L 275 157662.634912 
L 276.1 157662.634912 
L 277.2 157662.634912 
L 278.3 157662.634912 
L 279.4 157662.634912 
L 280.5 157662.634912 
L 281.6 157662.634912 
L 282.7 157662.634912 
L 283.8 157662.634912 
L 284.9 157662.634912 
L 286 157662.634912 
L 287.1 157662.634912 
L 288.2 157662.634912 
L 289.3 157662.634912 
L 290.4 157662.634912 
L 291.5 157662.634912 
L 292.6 157662.634912 
L 293.7 157662.634912 
L 294.8 157662.634912 
L 295.9 157662.634912 
L 297 157662.634912 
L 298.1 157662.634912 
L 299.2 157662.634912 
L 300.3 157662.634912 
L 301.4 157662.634912 
L 302.5 157662.634912 
L 303.6 157662.634912 
L 304.7 157662.634912 
L 305.8 157662.634912 
L 306.9 157662.634912 
L 308 157662.634912 
L 309.1 157662.634912 
L 310.2 157662.634912 
L 311.3 157662.634912 
L 312.4 157662.634912 
L 313.5 157662.634912 
L 314.6 157662.634912 
L 315.7 157662.634912 
L 316.8 157662.634912 
L 317.9 157662.634912 
L 319 157662.634912 
L 320.1 157662.634912 
L 321.2 157662.634912 
L 322.3 157662.634912 
L 323.4 157662.634912 
L 324.5 157662.634912 
L 325.6 157662.634912 
L 326.7 157662.634912 
L 327.8 157662.634912 
L 328.9 157662.634912 
L 330 157662.634912 
L 331.1 157662.634912 
L 332.2 157662.634912 
L 333.3 157662.634912 
L 334.4 157662.634912 
L 335.5 157662.634912 
L 336.6 157662.634912 
L 337.7 157662.634912 
L 338.8 157662.634912 
L 339.9 157662.634912 
L 341 157662.634912 
L 342.1 157662.634912 
L 343.2 157662.634912 
L 344.3 157662.634912 
L 345.4 157662.634912 
L 346.5 157662.634912 
L 347.6 157662.634912 
L 348.7 157662.634912 
L 349.8 157662.634912 
L 350.9 157662.634912 
L 352 157662.634912 
L 353.1 157662.634912 
L 354.2 157662.634912 
L 355.3 157662.634912 
L 356.4 157662.634912 
L 357.5 157662.634912 
L 358.6 157662.634912 
L 359.7 157662.634912 
L 360.8 157662.634912 
L 361.9 157662.634912 
L 363 157662.634912 
L 364.1 157662.634912 
L 365.2 157662.634912 
L 366.3 157662.634912 
L 367.4 157662.634912 
L 368.5 157662.634912 
L 369.6 157662.634912 
L 370.7 157662.634912 
L 371.8 157662.634912 
L 372.9 157662.634912 
L 374 157662.634912 
L 375.1 157662.634912 
L 376.2 157662.634912 
L 377.3 157662.634912 
L 378.4 157662.634912 
L 379.5 157662.634912 
L 380.6 500.290617 
L 381.7 475.942091 
L 382.8 475.942091 
L 383.9 475.942091 
L 385 475.942091 
L 386.1 475.942091 
L 387.2 475.942091 
L 388.3 475.942091 
L 389.4 475.942091 
L 390.5 475.942091 
L 391.6 475.942091 
L 392.7 475.942091 
L 393.8 439.718587 
L 394.9 408.137447 
L 396 408.137447 
L 397.1 408.137447 
L 398.2 408.137447 
L 399.3 408.137447 
L 400.4 408.137447 
L 401.5 408.137447 
L 402.6 400.944978 
L 403.7 400.944978 
L 404.8 400.944978 
L 405.9 386.628341 
L 407 386.628341 
L 408.1 386.628341 
L 409.2 386.628341 
L 410.3 381.306272 
L 411.4 381.306272 
L 412.5 381.306272 
L 413.6 381.306272 
L 414.7 381.306272 
L 415.8 381.306272 
L 416.9 381.306272 
L 418 381.306272 
L 419.1 370.297251 
L 420.2 370.297251 
L 421.3 370.297251 
L 422.4 370.297251 
L 423.5 366.073307 
L 424.6 366.073307 
L 425.7 366.073307 
L 426.8 370.297251 
L 427.9 370.297251 
L 429 370.297251 
L 430.1 370.297251 
L 431.2 370.297251 
L 432.3 370.297251 
L 433.4 366.073307 
L 434.5 370.297251 
L 435.6 370.297251 
L 436.7 370.297251 
L 437.8 370.297251 
L 438.9 381.306272 
L 440 381.306272 
L 441.1 381.306272 
L 442.2 386.628341 
L 443.3 381.306272 
L 444.4 381.306272 
L 445.5 381.306272 
L 446.6 381.306272 
L 447.7 386.628341 
L 448.8 400.944978 
L 449.9 408.137447 
L 451 408.137447 
L 452.1 408.137447 
L 453.2 408.137447 
L 454.3 408.137447 
L 455.4 408.137447 
L 456.5 408.137447 
L 457.6 408.137447 
L 458.7 439.718587 
L 459.8 439.718587 
L 460.9 439.718587 
L 462 439.718587 
L 463.1 439.718587 
L 464.2 439.718587 
L 465.3 416.177943 
L 466.4 439.718587 
L 467.5 439.718587 
L 468.6 439.718587 
L 469.7 439.718587 
L 470.8 439.718587 
L 471.9 408.137447 
L 473 408.137447 
L 474.1 408.137447 
L 475.2 408.137447 
L 476.3 408.137447 
L 477.4 408.137447 
L 478.5 408.137447 
L 479.6 408.137447 
L 480.7 439.718587 
L 481.8 439.718587 
L 482.9 439.718587 
L 484 408.137447 
L 485.1 408.137447 
L 486.2 408.137447 
L 487.3 439.718587 
L 488.4 428.624181 
L 489.5 428.624181 
L 490.6 428.624181 
L 491.7 428.624181 
L 492.8 428.624181 
L 493.9 428.624181 
L 495 428.624181 
L 496.1 428.624181 
L 497.2 428.624181 
L 498.3 428.624181 
L 499.4 439.718587 
L 500.5 439.718587 
L 501.6 439.718587 
L 502.7 428.624181 
L 503.8 439.718587 
L 504.9 475.942091 
L 506 475.942091 
L 507.1 439.718587 
L 508.2 439.718587 
L 509.3 439.718587 
L 510.4 439.718587 
L 511.5 428.624181 
L 512.6 428.624181 
L 513.7 428.624181 
L 514.8 428.624181 
L 515.9 428.624181 
L 517 428.624181 
L 518.1 428.624181 
L 519.2 428.624181 
L 520.3 428.624181 
L 521.4 428.624181 
L 522.5 428.624181 
L 523.6 428.624181 
L 524.7 428.624181 
L 525.8 428.624181 
L 526.9 428.624181 
L 528 428.624181 
L 529.1 428.624181 
L 530.2 439.718587 
L 531.3 439.718587 
L 532.4 439.718587 
L 533.5 439.718587 
L 534.6 475.942091 
L 535.7 475.942091 
L 536.8 475.942091 
L 537.9 475.942091 
L 539 475.942091 
L 540.1 439.718587 
L 541.2 439.718587 
L 542.3 439.718587 
L 543.4 408.137447 
L 544.5 408.137447 
L 545.6 408.137447 
L 546.7 408.137447 
L 547.8 408.137447 
L 548.9 408.137447 
L 550 408.137447 
L 551.1 408.137447 
L 552.2 408.137447 
L 553.3 408.137447 
L 554.4 408.137447 
L 555.5 408.137447 
L 556.6 408.137447 
L 557.7 439.718587 
L 558.8 475.942091 
L 559.9 475.942091 
L 561 475.942091 
L 562.1 475.942091 
L 563.2 475.942091 
L 564.3 475.942091 
L 565.4 475.942091 
L 566.5 475.942091 
L 567.6 475.942091 
L 568.7 475.942091 
L 569.8 475.942091 
L 570.9 475.942091 
L 572 475.942091 
L 573.1 475.942091 
L 574.2 475.942091 
L 575.3 475.942091 
L 576.4 475.942091 
L 577.5 475.942091 
L 578.6 475.942091 
L 579.7 439.718587 
L 580.8 439.718587 
L 581.9 439.718587 
L 583 439.718587 
L 584.1 439.718587 
L 585.2 439.718587 
L 586.3 439.718587 
L 587.4 475.942091 
L 588.5 500.290617 
L 589.6 500.290617 
L 590.7 500.290617 
L 591.8 500.290617 
L 592.9 500.290617 
L 594 500.290617 
L 595.1 157662.634912 
L 596.2 157662.634912 
L 597.3 157662.634912 
L 598.4 157662.634912 
L 599.5 157662.634912 
L 600.6 157662.634912 
L 601.7 157662.634912 
L 602.8 157662.634912 
L 603.9 157662.634912 
L 605 157662.634912 
L 606.1 157662.634912 
L 607.2 157662.634912 
L 608.3 157662.634912 
L 609.4 157662.634912 
L 610.5 157662.634912 
L 611.6 157662.634912 
L 612.7 157662.634912 
L 613.8 157662.634912 
L 614.9 157662.634912 
L 616 157662.634912 
L 617.1 157662.634912 
L 618.2 157662.634912 
L 619.3 157662.634912 
L 620.4 157662.634912 
L 621.5 157662.634912 
L 622.6 157662.634912 
L 623.7 157662.634912 
L 624.8 157662.634912 
L 625.9 157662.634912 
L 627 157662.634912 
L 628.1 157662.634912 
L 629.2 500.290617 
L 630.3 500.290617 
L 631.4 500.290617 
L 632.5 500.290617 
L 633.6 500.290617 
L 634.7 500.290617 
L 635.8 500.290617 
L 636.9 500.290617 
L 638 500.290617 
L 639.1 500.290617 
L 640.2 500.290617 
L 641.3 500.290617 
L 642.4 500.290617 
L 643.5 157662.634912 
L 644.6 157662.634912 
L 645.7 157662.634912 
L 646.8 157662.634912 
L 647.9 157662.634912 
L 649 157662.634912 
L 650.1 157662.634912 
L 651.2 157662.634912 
L 652.3 157662.634912 
L 653.4 157662.634912 
L 654.5 157662.634912 
L 655.6 157662.634912 
L 656.7 157662.634912 
L 657.8 157662.634912 
L 658.9 157662.634912 
L 660 500.290617 
L 661.1 500.290617 
L 662.2 500.290617 
L 663.3 157662.634912 
L 664.4 157662.634912 
L 665.5 157662.634912 
L 666.6 157662.634912 
L 667.7 157662.634912 
L 668.8 157662.634912 
L 669.9 157662.634912 
L 671 500.290617 
L 672.1 475.942091 
L 673.2 475.942091 
L 674.3 475.942091 
L 675.4 475.942091 
L 676.5 475.942091 
L 677.6 475.942091 
L 678.7 475.942091 
L 679.8 475.942091 
L 680.9 439.718587 
L 682 439.718587 
L 683.1 428.624181 
L 684.2 428.624181 
L 685.3 428.624181 
L 686.4 439.718587 
L 687.5 439.718587 
L 688.6 439.718587 
L 689.7 428.624181 
L 690.8 428.624181 
L 691.9 428.624181 
L 693 428.624181 
L 694.1 428.624181 
L 695.2 428.624181 
L 696.3 428.624181 
L 697.4 428.624181 
L 698.5 428.624181 
L 699.6 428.624181 
L 700.7 428.624181 
L 701.8 428.624181 
L 702.9 428.624181 
L 704 428.624181 
L 705.1 439.718587 
L 706.2 475.942091 
L 707.3 439.718587 
L 708.4 439.718587 
L 709.5 439.718587 
L 710.6 408.137447 
L 711.7 408.137447 
L 712.8 408.137447 
L 712.8 483.134559 
L 712.8 483.134559 
L 711.7 483.134559 
L 710.6 483.134559 
L 709.5 483.134559 
L 708.4 157662.634912 
L 707.3 157662.634912 
L 706.2 157662.634912 
L 705.1 157662.634912 
L 704 157662.634912 
L 702.9 157662.634912 
L 701.8 157662.634912 
L 700.7 157662.634912 
L 699.6 157662.634912 
L 698.5 157662.634912 
L 697.4 157662.634912 
L 696.3 157662.634912 
L 695.2 157662.634912 
L 694.1 157662.634912 
L 693 157662.634912 
L 691.9 157662.634912 
L 690.8 157662.634912 
L 689.7 157662.634912 
L 688.6 157662.634912 
L 687.5 157662.634912 
L 686.4 157662.634912 
L 685.3 157662.634912 
L 684.2 157662.634912 
L 683.1 157662.634912 
L 682 157662.634912 
L 680.9 157662.634912 
L 679.8 157662.634912 
L 678.7 157662.634912 
L 677.6 157662.634912 
L 676.5 157662.634912 
L 675.4 157662.634912 
L 674.3 157662.634912 
L 673.2 157662.634912 
L 672.1 157662.634912 
L 671 157662.634912 
L 669.9 157662.634912 
L 668.8 157662.634912 
L 667.7 157662.634912 
L 666.6 157662.634912 
L 665.5 157662.634912 
L 664.4 157662.634912 
L 663.3 157662.634912 
L 662.2 157662.634912 
L 661.1 157662.634912 
L 660 157662.634912 
L 658.9 157662.634912 
L 657.8 157662.634912 
L 656.7 157662.634912 
L 655.6 157662.634912 
L 654.5 157662.634912 
L 653.4 157662.634912 
L 652.3 157662.634912 
L 651.2 157662.634912 
L 650.1 157662.634912 
L 649 157662.634912 
L 647.9 157662.634912 
L 646.8 157662.634912 
L 645.7 157662.634912 
L 644.6 157662.634912 
L 643.5 157662.634912 
L 642.4 157662.634912 
L 641.3 157662.634912 
L 640.2 157662.634912 
L 639.1 157662.634912 
L 638 157662.634912 
L 636.9 157662.634912 
L 635.8 157662.634912 
L 634.7 157662.634912 
L 633.6 157662.634912 
L 632.5 157662.634912 
L 631.4 157662.634912 
L 630.3 157662.634912 
L 629.2 157662.634912 
L 628.1 157662.634912 
L 627 157662.634912 
L 625.9 157662.634912 
L 624.8 157662.634912 
L 623.7 157662.634912 
L 622.6 157662.634912 
L 621.5 157662.634912 
L 620.4 157662.634912 
L 619.3 157662.634912 
L 618.2 157662.634912 
L 617.1 157662.634912 
L 616 157662.634912 
L 614.9 157662.634912 
L 613.8 157662.634912 
L 612.7 157662.634912 
L 611.6 157662.634912 
L 610.5 157662.634912 
L 609.4 157662.634912 
L 608.3 157662.634912 
L 607.2 157662.634912 
L 606.1 157662.634912 
L 605 157662.634912 
L 603.9 157662.634912 
L 602.8 157662.634912 
L 601.7 157662.634912 
L 600.6 157662.634912 
L 599.5 157662.634912 
L 598.4 157662.634912 
L 597.3 157662.634912 
L 596.2 157662.634912 
L 595.1 157662.634912 
L 594 157662.634912 
L 592.9 157662.634912 
L 591.8 157662.634912 
L 590.7 157662.634912 
L 589.6 157662.634912 
L 588.5 157662.634912 
L 587.4 157662.634912 
L 586.3 157662.634912 
L 585.2 157662.634912 
L 584.1 157662.634912 
L 583 157662.634912 
L 581.9 157662.634912 
L 580.8 157662.634912 
L 579.7 157662.634912 
L 578.6 157662.634912 
L 577.5 157662.634912 
L 576.4 157662.634912 
L 575.3 157662.634912 
L 574.2 157662.634912 
L 573.1 157662.634912 
L 572 157662.634912 
L 570.9 157662.634912 
L 569.8 157662.634912 
L 568.7 157662.634912 
L 567.6 157662.634912 
L 566.5 157662.634912 
L 565.4 157662.634912 
L 564.3 157662.634912 
L 563.2 157662.634912 
L 562.1 157662.634912 
L 561 157662.634912 
L 559.9 157662.634912 
L 558.8 157662.634912 
L 557.7 157662.634912 
L 556.6 157662.634912 
L 555.5 157662.634912 
L 554.4 157662.634912 
L 553.3 157662.634912 
L 552.2 157662.634912 
L 551.1 157662.634912 
L 550 157662.634912 
L 548.9 157662.634912 
L 547.8 157662.634912 
L 546.7 157662.634912 
L 545.6 157662.634912 
L 544.5 157662.634912 
L 543.4 157662.634912 
L 542.3 157662.634912 
L 541.2 157662.634912 
L 540.1 157662.634912 
L 539 157662.634912 
L 537.9 157662.634912 
L 536.8 157662.634912 
L 535.7 157662.634912 
L 534.6 157662.634912 
L 533.5 157662.634912 
L 532.4 157662.634912 
L 531.3 157662.634912 
L 530.2 157662.634912 
L 529.1 157662.634912 
L 528 157662.634912 
L 526.9 157662.634912 
L 525.8 157662.634912 
L 524.7 157662.634912 
L 523.6 157662.634912 
L 522.5 157662.634912 
L 521.4 157662.634912 
L 520.3 157662.634912 
L 519.2 157662.634912 
L 518.1 157662.634912 
L 517 157662.634912 
L 515.9 157662.634912 
L 514.8 157662.634912 
L 513.7 157662.634912 
L 512.6 157662.634912 
L 511.5 157662.634912 
L 510.4 157662.634912 
L 509.3 157662.634912 
L 508.2 157662.634912 
L 507.1 157662.634912 
L 506 157662.634912 
L 504.9 157662.634912 
L 503.8 157662.634912 
L 502.7 157662.634912 
L 501.6 157662.634912 
L 500.5 157662.634912 
L 499.4 483.134559 
L 498.3 483.134559 
L 497.2 483.134559 
L 496.1 475.942091 
L 495 483.134559 
L 493.9 483.134559 
L 492.8 483.134559 
L 491.7 483.134559 
L 490.6 483.134559 
L 489.5 483.134559 
L 488.4 483.134559 
L 487.3 483.134559 
L 486.2 483.134559 
L 485.1 157662.634912 
L 484 157662.634912 
L 482.9 157662.634912 
L 481.8 157662.634912 
L 480.7 157662.634912 
L 479.6 483.134559 
L 478.5 483.134559 
L 477.4 483.134559 
L 476.3 475.942091 
L 475.2 475.942091 
L 474.1 475.942091 
L 473 483.134559 
L 471.9 483.134559 
L 470.8 157662.634912 
L 469.7 483.134559 
L 468.6 157662.634912 
L 467.5 157662.634912 
L 466.4 483.134559 
L 465.3 483.134559 
L 464.2 483.134559 
L 463.1 157662.634912 
L 462 157662.634912 
L 460.9 157662.634912 
L 459.8 157662.634912 
L 458.7 157662.634912 
L 457.6 157662.634912 
L 456.5 157662.634912 
L 455.4 157662.634912 
L 454.3 157662.634912 
L 453.2 157662.634912 
L 452.1 157662.634912 
L 451 157662.634912 
L 449.9 157662.634912 
L 448.8 157662.634912 
L 447.7 157662.634912 
L 446.6 157662.634912 
L 445.5 157662.634912 
L 444.4 483.134559 
L 443.3 157662.634912 
L 442.2 157662.634912 
L 441.1 483.134559 
L 440 483.134559 
L 438.9 475.942091 
L 437.8 475.942091 
L 436.7 475.942091 
L 435.6 475.942091 
L 434.5 475.942091 
L 433.4 475.942091 
L 432.3 475.942091 
L 431.2 475.942091 
L 430.1 475.942091 
L 429 475.942091 
L 427.9 475.942091 
L 426.8 475.942091 
L 425.7 475.942091 
L 424.6 475.942091 
L 423.5 475.942091 
L 422.4 483.134559 
L 421.3 483.134559 
L 420.2 475.942091 
L 419.1 475.942091 
L 418 475.942091 
L 416.9 475.942091 
L 415.8 475.942091 
L 414.7 475.942091 
L 413.6 475.942091 
L 412.5 475.942091 
L 411.4 475.942091 
L 410.3 475.942091 
L 409.2 475.942091 
L 408.1 432.125734 
L 407 432.125734 
L 405.9 475.942091 
L 404.8 475.942091 
L 403.7 483.134559 
L 402.6 157662.634912 
L 401.5 157662.634912 
L 400.4 157662.634912 
L 399.3 157662.634912 
L 398.2 157662.634912 
L 397.1 157662.634912 
L 396 157662.634912 
L 394.9 157662.634912 
L 393.8 157662.634912 
L 392.7 157662.634912 
L 391.6 157662.634912 
L 390.5 157662.634912 
L 389.4 157662.634912 
L 388.3 157662.634912 
L 387.2 157662.634912 
L 386.1 157662.634912 
L 385 157662.634912 
L 383.9 157662.634912 
L 382.8 157662.634912 
L 381.7 157662.634912 
L 380.6 157662.634912 
L 379.5 157662.634912 
L 378.4 157662.634912 
L 377.3 157662.634912 
L 376.2 157662.634912 
L 375.1 157662.634912 
L 374 157662.634912 
L 372.9 157662.634912 
L 371.8 157662.634912 
L 370.7 157662.634912 
L 369.6 157662.634912 
L 368.5 157662.634912 
L 367.4 157662.634912 
L 366.3 157662.634912 
L 365.2 157662.634912 
L 364.1 157662.634912 
L 363 157662.634912 
L 361.9 157662.634912 
L 360.8 157662.634912 
L 359.7 157662.634912 
L 358.6 157662.634912 
L 357.5 157662.634912 
L 356.4 157662.634912 
L 355.3 157662.634912 
L 354.2 157662.634912 
L 353.1 157662.634912 
L 352 157662.634912 
L 350.9 157662.634912 
L 349.8 157662.634912 
L 348.7 157662.634912 
L 347.6 157662.634912 
L 346.5 157662.634912 
L 345.4 157662.634912 
L 344.3 157662.634912 
L 343.2 157662.634912 
L 342.1 157662.634912 
L 341 157662.634912 
L 339.9 157662.634912 
L 338.8 157662.634912 
L 337.7 157662.634912 
L 336.6 157662.634912 
L 335.5 157662.634912 
L 334.4 157662.634912 
L 333.3 157662.634912 
L 332.2 157662.634912 
L 331.1 157662.634912 
L 330 157662.634912 
L 328.9 157662.634912 
L 327.8 157662.634912 
L 326.7 157662.634912 
L 325.6 157662.634912 
L 324.5 157662.634912 
L 323.4 157662.634912 
L 322.3 157662.634912 
L 321.2 157662.634912 
L 320.1 157662.634912 
L 319 157662.634912 
L 317.9 157662.634912 
L 316.8 157662.634912 
L 315.7 157662.634912 
L 314.6 157662.634912 
L 313.5 157662.634912 
L 312.4 157662.634912 
L 311.3 157662.634912 
L 310.2 157662.634912 
L 309.1 157662.634912 
L 308 157662.634912 
L 306.9 157662.634912 
L 305.8 157662.634912 
L 304.7 157662.634912 
L 303.6 157662.634912 
L 302.5 157662.634912 
L 301.4 157662.634912 
L 300.3 157662.634912 
L 299.2 157662.634912 
L 298.1 157662.634912 
L 297 157662.634912 
L 295.9 157662.634912 
L 294.8 157662.634912 
L 293.7 157662.634912 
L 292.6 157662.634912 
L 291.5 157662.634912 
L 290.4 157662.634912 
L 289.3 157662.634912 
L 288.2 157662.634912 
L 287.1 157662.634912 
L 286 157662.634912 
L 284.9 157662.634912 
L 283.8 157662.634912 
L 282.7 157662.634912 
L 281.6 157662.634912 
L 280.5 157662.634912 
L 279.4 157662.634912 
L 278.3 157662.634912 
L 277.2 157662.634912 
L 276.1 157662.634912 
L 275 157662.634912 
L 273.9 157662.634912 
L 272.8 157662.634912 
L 271.7 157662.634912 
L 270.6 157662.634912 
L 269.5 157662.634912 
L 268.4 157662.634912 
L 267.3 157662.634912 
L 266.2 157662.634912 
L 265.1 157662.634912 
L 264 157662.634912 
L 262.9 157662.634912 
L 261.8 157662.634912 
L 260.7 157662.634912 
L 259.6 157662.634912 
L 258.5 157662.634912 
L 257.4 157662.634912 
L 256.3 157662.634912 
L 255.2 157662.634912 
L 254.1 157662.634912 
L 253 157662.634912 
L 251.9 157662.634912 
L 250.8 157662.634912 
L 249.7 157662.634912 
L 248.6 157662.634912 
L 247.5 157662.634912 
L 246.4 157662.634912 
L 245.3 157662.634912 
L 244.2 157662.634912 
L 243.1 157662.634912 
L 242 157662.634912 
L 240.9 157662.634912 
L 239.8 157662.634912 
L 238.7 157662.634912 
L 237.6 157662.634912 
L 236.5 157662.634912 
L 235.4 157662.634912 
L 234.3 157662.634912 
L 233.2 157662.634912 
L 232.1 157662.634912 
L 231 157662.634912 
L 229.9 157662.634912 
L 228.8 157662.634912 
L 227.7 157662.634912 
L 226.6 157662.634912 
L 225.5 157662.634912 
L 224.4 157662.634912 
L 223.3 157662.634912 
L 222.2 157662.634912 
L 221.1 157662.634912 
L 220 157662.634912 
L 218.9 157662.634912 
L 217.8 157662.634912 
L 216.7 157662.634912 
L 215.6 157662.634912 
L 214.5 157662.634912 
L 213.4 157662.634912 
L 212.3 157662.634912 
L 211.2 157662.634912 
L 210.1 157662.634912 
L 209 157662.634912 
L 207.9 157662.634912 
L 206.8 157662.634912 
L 205.7 157662.634912 
L 204.6 157662.634912 
L 203.5 157662.634912 
L 202.4 157662.634912 
L 201.3 157662.634912 
L 200.2 157662.634912 
L 199.1 157662.634912 
L 198 157662.634912 
L 196.9 157662.634912 
L 195.8 157662.634912 
L 194.7 157662.634912 
L 193.6 157662.634912 
L 192.5 157662.634912 
L 191.4 157662.634912 
L 190.3 157662.634912 
L 189.2 157662.634912 
L 188.1 157662.634912 
L 187 157662.634912 
L 185.9 157662.634912 
L 184.8 157662.634912 
L 183.7 157662.634912 
L 182.6 157662.634912 
L 181.5 157662.634912 
L 180.4 157662.634912 
L 179.3 157662.634912 
L 178.2 157662.634912 
L 177.1 157662.634912 
L 176 157662.634912 
L 174.9 157662.634912 
L 173.8 157662.634912 
L 172.7 157662.634912 
L 171.6 157662.634912 
L 170.5 157662.634912 
L 169.4 157662.634912 
L 168.3 157662.634912 
L 167.2 157662.634912 
L 166.1 157662.634912 
L 165 157662.634912 
L 163.9 157662.634912 
L 162.8 157662.634912 
L 161.7 483.134559 
L 160.6 157662.634912 
L 159.5 157662.634912 
L 158.4 157662.634912 
L 157.3 157662.634912 
L 156.2 157662.634912 
L 155.1 483.134559 
L 154 483.134559 
L 152.9 475.942091 
L 151.8 483.134559 
L 150.7 483.134559 
L 149.6 157662.634912 
L 148.5 157662.634912 
L 147.4 157662.634912 
L 146.3 157662.634912 
L 145.2 157662.634912 
L 144.1 157662.634912 
L 143 157662.634912 
L 141.9 157662.634912 
L 140.8 157662.634912 
L 139.7 157662.634912 
L 138.6 157662.634912 
L 137.5 157662.634912 
L 136.4 157662.634912 
L 135.3 157662.634912 
L 134.2 157662.634912 
L 133.1 483.134559 
L 132 475.942091 
L 130.9 483.134559 
L 129.8 157662.634912 
L 128.7 157662.634912 
L 127.6 157662.634912 
L 126.5 157662.634912 
L 125.4 157662.634912 
L 124.3 157662.634912 
L 123.2 157662.634912 
L 122.1 157662.634912 
L 121 157662.634912 
L 119.9 157662.634912 
L 118.8 157662.634912 
L 117.7 157662.634912 
L 116.6 157662.634912 
L 115.5 157662.634912 
L 114.4 157662.634912 
L 113.3 157662.634912 
L 112.2 157662.634912 
L 111.1 157662.634912 
L 110 157662.634912 
L 108.9 157662.634912 
L 107.8 157662.634912 
L 106.7 157662.634912 
L 105.6 157662.634912 
L 104.5 157662.634912 
L 103.4 157662.634912 
L 102.3 157662.634912 
L 101.2 157662.634912 
L 100.1 157662.634912 
L 99 157662.634912 
z
" style="fill:#ff8080;fill-opacity:0.5;stroke:#ff8080;stroke-opacity:0.5;"/>
   </g>
   <g id="matplotlib.axis_1">
    <g id="xtick_1">
     <g id="line2d_1">
      <path clip-path="url(#p68e2955192)" d="M 99 544.68 
L 99 73.44 
" style="fill:none;stroke:#b0b0b0;stroke-linecap:square;stroke-width:0.8;"/>
     </g>
     <g id="line2d_2">
      <defs>
       <path d="M 0 0 
L 0 3.5 
" id="m4abed1d830" style="stroke:#000000;stroke-width:0.8;"/>
      </defs>
      <g>
       <use style="stroke:#000000;stroke-width:0.8;" x="99" xlink:href="#m4abed1d830" y="544.68"/>
      </g>
     </g>
    </g>
    <g id="xtick_2">
     <g id="line2d_3">
      <path clip-path="url(#p68e2955192)" d="M 126.5 544.68 
L 126.5 73.44 
" style="fill:none;stroke:#b0b0b0;stroke-linecap:square;stroke-width:0.8;"/>
     </g>
     <g id="line2d_4">
      <g>
       <use style="stroke:#000000;stroke-width:0.8;" x="126.5" xlink:href="#m4abed1d830" y="544.68"/>
      </g>
     </g>
     <g id="text_1">
      <!-- Apr -->
      <g transform="translate(117.85 559.278437)scale(0.1 -0.1)">
       <defs>
        <path d="M 2188 4044 
L 1331 1722 
L 3047 1722 
L 2188 4044 
z
M 1831 4666 
L 2547 4666 
L 4325 0 
L 3669 0 
L 3244 1197 
L 1141 1197 
L 716 0 
L 50 0 
L 1831 4666 
z
" id="DejaVuSans-41" transform="scale(0.015625)"/>
        <path d="M 1159 525 
L 1159 -1331 
L 581 -1331 
L 581 3500 
L 1159 3500 
L 1159 2969 
Q 1341 3281 1617 3432 
Q 1894 3584 2278 3584 
Q 2916 3584 3314 3078 
Q 3713 2572 3713 1747 
Q 3713 922 3314 415 
Q 2916 -91 2278 -91 
Q 1894 -91 1617 61 
Q 1341 213 1159 525 
z
M 3116 1747 
Q 3116 2381 2855 2742 
Q 2594 3103 2138 3103 
Q 1681 3103 1420 2742 
Q 1159 2381 1159 1747 
Q 1159 1113 1420 752 
Q 1681 391 2138 391 
Q 2594 391 2855 752 
Q 3116 1113 3116 1747 
z
" id="DejaVuSans-70" transform="scale(0.015625)"/>
        <path d="M 2631 2963 
Q 2534 3019 2420 3045 
Q 2306 3072 2169 3072 
Q 1681 3072 1420 2755 
Q 1159 2438 1159 1844 
L 1159 0 
L 581 0 
L 581 3500 
L 1159 3500 
L 1159 2956 
Q 1341 3275 1631 3429 
Q 1922 3584 2338 3584 
Q 2397 3584 2469 3576 
Q 2541 3569 2628 3553 
L 2631 2963 
z
" id="DejaVuSans-72" transform="scale(0.015625)"/>
       </defs>
       <use xlink:href="#DejaVuSans-41"/>
       <use x="68.408203" xlink:href="#DejaVuSans-70"/>
       <use x="131.884766" xlink:href="#DejaVuSans-72"/>
      </g>
     </g>
    </g>
    <g id="xtick_3">
     <g id="line2d_5">
      <path clip-path="url(#p68e2955192)" d="M 226.6 544.68 
L 226.6 73.44 
" style="fill:none;stroke:#b0b0b0;stroke-linecap:square;stroke-width:0.8;"/>
     </g>
     <g id="line2d_6">
      <g>
       <use style="stroke:#000000;stroke-width:0.8;" x="226.6" xlink:href="#m4abed1d830" y="544.68"/>
      </g>
     </g>
     <g id="text_2">
      <!-- Jul -->
      <g transform="translate(220.567187 559.278437)scale(0.1 -0.1)">
       <defs>
        <path d="M 628 4666 
L 1259 4666 
L 1259 325 
Q 1259 -519 939 -900 
Q 619 -1281 -91 -1281 
L -331 -1281 
L -331 -750 
L -134 -750 
Q 284 -750 456 -515 
Q 628 -281 628 325 
L 628 4666 
z
" id="DejaVuSans-4a" transform="scale(0.015625)"/>
        <path d="M 544 1381 
L 544 3500 
L 1119 3500 
L 1119 1403 
Q 1119 906 1312 657 
Q 1506 409 1894 409 
Q 2359 409 2629 706 
Q 2900 1003 2900 1516 
L 2900 3500 
L 3475 3500 
L 3475 0 
L 2900 0 
L 2900 538 
Q 2691 219 2414 64 
Q 2138 -91 1772 -91 
Q 1169 -91 856 284 
Q 544 659 544 1381 
z
M 1991 3584 
L 1991 3584 
z
" id="DejaVuSans-75" transform="scale(0.015625)"/>
        <path d="M 603 4863 
L 1178 4863 
L 1178 0 
L 603 0 
L 603 4863 
z
" id="DejaVuSans-6c" transform="scale(0.015625)"/>
       </defs>
       <use xlink:href="#DejaVuSans-4a"/>
       <use x="29.492188" xlink:href="#DejaVuSans-75"/>
       <use x="92.871094" xlink:href="#DejaVuSans-6c"/>
      </g>
     </g>
    </g>
    <g id="xtick_4">
     <g id="line2d_7">
      <path clip-path="url(#p68e2955192)" d="M 327.8 544.68 
L 327.8 73.44 
" style="fill:none;stroke:#b0b0b0;stroke-linecap:square;stroke-width:0.8;"/>
     </g>
     <g id="line2d_8">
      <g>
       <use style="stroke:#000000;stroke-width:0.8;" x="327.8" xlink:href="#m4abed1d830" y="544.68"/>
      </g>
     </g>
     <g id="text_3">
      <!-- Oct -->
      <g transform="translate(319.154687 559.278437)scale(0.1 -0.1)">
       <defs>
        <path d="M 2522 4238 
Q 1834 4238 1429 3725 
Q 1025 3213 1025 2328 
Q 1025 1447 1429 934 
Q 1834 422 2522 422 
Q 3209 422 3611 934 
Q 4013 1447 4013 2328 
Q 4013 3213 3611 3725 
Q 3209 4238 2522 4238 
z
M 2522 4750 
Q 3503 4750 4090 4092 
Q 4678 3434 4678 2328 
Q 4678 1225 4090 567 
Q 3503 -91 2522 -91 
Q 1538 -91 948 565 
Q 359 1222 359 2328 
Q 359 3434 948 4092 
Q 1538 4750 2522 4750 
z
" id="DejaVuSans-4f" transform="scale(0.015625)"/>
        <path d="M 3122 3366 
L 3122 2828 
Q 2878 2963 2633 3030 
Q 2388 3097 2138 3097 
Q 1578 3097 1268 2742 
Q 959 2388 959 1747 
Q 959 1106 1268 751 
Q 1578 397 2138 397 
Q 2388 397 2633 464 
Q 2878 531 3122 666 
L 3122 134 
Q 2881 22 2623 -34 
Q 2366 -91 2075 -91 
Q 1284 -91 818 406 
Q 353 903 353 1747 
Q 353 2603 823 3093 
Q 1294 3584 2113 3584 
Q 2378 3584 2631 3529 
Q 2884 3475 3122 3366 
z
" id="DejaVuSans-63" transform="scale(0.015625)"/>
        <path d="M 1172 4494 
L 1172 3500 
L 2356 3500 
L 2356 3053 
L 1172 3053 
L 1172 1153 
Q 1172 725 1289 603 
Q 1406 481 1766 481 
L 2356 481 
L 2356 0 
L 1766 0 
Q 1100 0 847 248 
Q 594 497 594 1153 
L 594 3053 
L 172 3053 
L 172 3500 
L 594 3500 
L 594 4494 
L 1172 4494 
z
" id="DejaVuSans-74" transform="scale(0.015625)"/>
       </defs>
       <use xlink:href="#DejaVuSans-4f"/>
       <use x="78.710938" xlink:href="#DejaVuSans-63"/>
       <use x="133.691406" xlink:href="#DejaVuSans-74"/>
      </g>
     </g>
    </g>
    <g id="xtick_5">
     <g id="line2d_9">
      <path clip-path="url(#p68e2955192)" d="M 429 544.68 
L 429 73.44 
" style="fill:none;stroke:#b0b0b0;stroke-linecap:square;stroke-width:0.8;"/>
     </g>
     <g id="line2d_10">
      <g>
       <use style="stroke:#000000;stroke-width:0.8;" x="429" xlink:href="#m4abed1d830" y="544.68"/>
      </g>
     </g>
     <g id="text_4">
      <!-- Jan -->
      <g transform="translate(421.292188 559.278437)scale(0.1 -0.1)">
       <defs>
        <path d="M 2194 1759 
Q 1497 1759 1228 1600 
Q 959 1441 959 1056 
Q 959 750 1161 570 
Q 1363 391 1709 391 
Q 2188 391 2477 730 
Q 2766 1069 2766 1631 
L 2766 1759 
L 2194 1759 
z
M 3341 1997 
L 3341 0 
L 2766 0 
L 2766 531 
Q 2569 213 2275 61 
Q 1981 -91 1556 -91 
Q 1019 -91 701 211 
Q 384 513 384 1019 
Q 384 1609 779 1909 
Q 1175 2209 1959 2209 
L 2766 2209 
L 2766 2266 
Q 2766 2663 2505 2880 
Q 2244 3097 1772 3097 
Q 1472 3097 1187 3025 
Q 903 2953 641 2809 
L 641 3341 
Q 956 3463 1253 3523 
Q 1550 3584 1831 3584 
Q 2591 3584 2966 3190 
Q 3341 2797 3341 1997 
z
" id="DejaVuSans-61" transform="scale(0.015625)"/>
        <path d="M 3513 2113 
L 3513 0 
L 2938 0 
L 2938 2094 
Q 2938 2591 2744 2837 
Q 2550 3084 2163 3084 
Q 1697 3084 1428 2787 
Q 1159 2491 1159 1978 
L 1159 0 
L 581 0 
L 581 3500 
L 1159 3500 
L 1159 2956 
Q 1366 3272 1645 3428 
Q 1925 3584 2291 3584 
Q 2894 3584 3203 3211 
Q 3513 2838 3513 2113 
z
" id="DejaVuSans-6e" transform="scale(0.015625)"/>
       </defs>
       <use xlink:href="#DejaVuSans-4a"/>
       <use x="29.492188" xlink:href="#DejaVuSans-61"/>
       <use x="90.771484" xlink:href="#DejaVuSans-6e"/>
      </g>
      <!-- 2021 -->
      <g transform="translate(416.275 570.47625)scale(0.1 -0.1)">
       <defs>
        <path d="M 1228 531 
L 3431 531 
L 3431 0 
L 469 0 
L 469 531 
Q 828 903 1448 1529 
Q 2069 2156 2228 2338 
Q 2531 2678 2651 2914 
Q 2772 3150 2772 3378 
Q 2772 3750 2511 3984 
Q 2250 4219 1831 4219 
Q 1534 4219 1204 4116 
Q 875 4013 500 3803 
L 500 4441 
Q 881 4594 1212 4672 
Q 1544 4750 1819 4750 
Q 2544 4750 2975 4387 
Q 3406 4025 3406 3419 
Q 3406 3131 3298 2873 
Q 3191 2616 2906 2266 
Q 2828 2175 2409 1742 
Q 1991 1309 1228 531 
z
" id="DejaVuSans-32" transform="scale(0.015625)"/>
        <path d="M 2034 4250 
Q 1547 4250 1301 3770 
Q 1056 3291 1056 2328 
Q 1056 1369 1301 889 
Q 1547 409 2034 409 
Q 2525 409 2770 889 
Q 3016 1369 3016 2328 
Q 3016 3291 2770 3770 
Q 2525 4250 2034 4250 
z
M 2034 4750 
Q 2819 4750 3233 4129 
Q 3647 3509 3647 2328 
Q 3647 1150 3233 529 
Q 2819 -91 2034 -91 
Q 1250 -91 836 529 
Q 422 1150 422 2328 
Q 422 3509 836 4129 
Q 1250 4750 2034 4750 
z
" id="DejaVuSans-30" transform="scale(0.015625)"/>
        <path d="M 794 531 
L 1825 531 
L 1825 4091 
L 703 3866 
L 703 4441 
L 1819 4666 
L 2450 4666 
L 2450 531 
L 3481 531 
L 3481 0 
L 794 0 
L 794 531 
z
" id="DejaVuSans-31" transform="scale(0.015625)"/>
       </defs>
       <use xlink:href="#DejaVuSans-32"/>
       <use x="63.623047" xlink:href="#DejaVuSans-30"/>
       <use x="127.246094" xlink:href="#DejaVuSans-32"/>
       <use x="190.869141" xlink:href="#DejaVuSans-31"/>
      </g>
     </g>
    </g>
    <g id="xtick_6">
     <g id="line2d_11">
      <path clip-path="url(#p68e2955192)" d="M 528 544.68 
L 528 73.44 
" style="fill:none;stroke:#b0b0b0;stroke-linecap:square;stroke-width:0.8;"/>
     </g>
     <g id="line2d_12">
      <g>
       <use style="stroke:#000000;stroke-width:0.8;" x="528" xlink:href="#m4abed1d830" y="544.68"/>
      </g>
     </g>
     <g id="text_5">
      <!-- Apr -->
      <g transform="translate(519.35 559.278437)scale(0.1 -0.1)">
       <use xlink:href="#DejaVuSans-41"/>
       <use x="68.408203" xlink:href="#DejaVuSans-70"/>
       <use x="131.884766" xlink:href="#DejaVuSans-72"/>
      </g>
     </g>
    </g>
    <g id="xtick_7">
     <g id="line2d_13">
      <path clip-path="url(#p68e2955192)" d="M 628.1 544.68 
L 628.1 73.44 
" style="fill:none;stroke:#b0b0b0;stroke-linecap:square;stroke-width:0.8;"/>
     </g>
     <g id="line2d_14">
      <g>
       <use style="stroke:#000000;stroke-width:0.8;" x="628.1" xlink:href="#m4abed1d830" y="544.68"/>
      </g>
     </g>
     <g id="text_6">
      <!-- Jul -->
      <g transform="translate(622.067187 559.278437)scale(0.1 -0.1)">
       <use xlink:href="#DejaVuSans-4a"/>
       <use x="29.492188" xlink:href="#DejaVuSans-75"/>
       <use x="92.871094" xlink:href="#DejaVuSans-6c"/>
      </g>
     </g>
    </g>
    <g id="xtick_8">
     <g id="line2d_15">
      <path clip-path="url(#p68e2955192)" d="M 712.8 544.68 
L 712.8 73.44 
" style="fill:none;stroke:#b0b0b0;stroke-linecap:square;stroke-width:0.8;"/>
     </g>
     <g id="line2d_16">
      <g>
       <use style="stroke:#000000;stroke-width:0.8;" x="712.8" xlink:href="#m4abed1d830" y="544.68"/>
      </g>
     </g>
    </g>
    <g id="xtick_9">
     <g id="line2d_17">
      <defs>
       <path d="M 0 0 
L 0 2 
" id="mbe9820739d" style="stroke:#000000;stroke-width:0.6;"/>
      </defs>
      <g>
       <use style="stroke:#000000;stroke-width:0.6;" x="159.5" xlink:href="#mbe9820739d" y="544.68"/>
      </g>
     </g>
    </g>
    <g id="xtick_10">
     <g id="line2d_18">
      <g>
       <use style="stroke:#000000;stroke-width:0.6;" x="193.6" xlink:href="#mbe9820739d" y="544.68"/>
      </g>
     </g>
    </g>
    <g id="xtick_11">
     <g id="line2d_19">
      <g>
       <use style="stroke:#000000;stroke-width:0.6;" x="260.7" xlink:href="#mbe9820739d" y="544.68"/>
      </g>
     </g>
    </g>
    <g id="xtick_12">
     <g id="line2d_20">
      <g>
       <use style="stroke:#000000;stroke-width:0.6;" x="294.8" xlink:href="#mbe9820739d" y="544.68"/>
      </g>
     </g>
    </g>
    <g id="xtick_13">
     <g id="line2d_21">
      <g>
       <use style="stroke:#000000;stroke-width:0.6;" x="361.9" xlink:href="#mbe9820739d" y="544.68"/>
      </g>
     </g>
    </g>
    <g id="xtick_14">
     <g id="line2d_22">
      <g>
       <use style="stroke:#000000;stroke-width:0.6;" x="394.9" xlink:href="#mbe9820739d" y="544.68"/>
      </g>
     </g>
    </g>
    <g id="xtick_15">
     <g id="line2d_23">
      <g>
       <use style="stroke:#000000;stroke-width:0.6;" x="463.1" xlink:href="#mbe9820739d" y="544.68"/>
      </g>
     </g>
    </g>
    <g id="xtick_16">
     <g id="line2d_24">
      <g>
       <use style="stroke:#000000;stroke-width:0.6;" x="493.9" xlink:href="#mbe9820739d" y="544.68"/>
      </g>
     </g>
    </g>
    <g id="xtick_17">
     <g id="line2d_25">
      <g>
       <use style="stroke:#000000;stroke-width:0.6;" x="561" xlink:href="#mbe9820739d" y="544.68"/>
      </g>
     </g>
    </g>
    <g id="xtick_18">
     <g id="line2d_26">
      <g>
       <use style="stroke:#000000;stroke-width:0.6;" x="595.1" xlink:href="#mbe9820739d" y="544.68"/>
      </g>
     </g>
    </g>
    <g id="xtick_19">
     <g id="line2d_27">
      <g>
       <use style="stroke:#000000;stroke-width:0.6;" x="662.2" xlink:href="#mbe9820739d" y="544.68"/>
      </g>
     </g>
    </g>
    <g id="xtick_20">
     <g id="line2d_28">
      <g>
       <use style="stroke:#000000;stroke-width:0.6;" x="696.3" xlink:href="#mbe9820739d" y="544.68"/>
      </g>
     </g>
    </g>
    <g id="text_7">
     <!-- Date -->
     <g transform="translate(393.949219 584.154375)scale(0.1 -0.1)">
      <defs>
       <path d="M 1259 4147 
L 1259 519 
L 2022 519 
Q 2988 519 3436 956 
Q 3884 1394 3884 2338 
Q 3884 3275 3436 3711 
Q 2988 4147 2022 4147 
L 1259 4147 
z
M 628 4666 
L 1925 4666 
Q 3281 4666 3915 4102 
Q 4550 3538 4550 2338 
Q 4550 1131 3912 565 
Q 3275 0 1925 0 
L 628 0 
L 628 4666 
z
" id="DejaVuSans-44" transform="scale(0.015625)"/>
       <path d="M 3597 1894 
L 3597 1613 
L 953 1613 
Q 991 1019 1311 708 
Q 1631 397 2203 397 
Q 2534 397 2845 478 
Q 3156 559 3463 722 
L 3463 178 
Q 3153 47 2828 -22 
Q 2503 -91 2169 -91 
Q 1331 -91 842 396 
Q 353 884 353 1716 
Q 353 2575 817 3079 
Q 1281 3584 2069 3584 
Q 2775 3584 3186 3129 
Q 3597 2675 3597 1894 
z
M 3022 2063 
Q 3016 2534 2758 2815 
Q 2500 3097 2075 3097 
Q 1594 3097 1305 2825 
Q 1016 2553 972 2059 
L 3022 2063 
z
" id="DejaVuSans-65" transform="scale(0.015625)"/>
      </defs>
      <use xlink:href="#DejaVuSans-44"/>
      <use x="77.001953" xlink:href="#DejaVuSans-61"/>
      <use x="138.28125" xlink:href="#DejaVuSans-74"/>
      <use x="177.490234" xlink:href="#DejaVuSans-65"/>
     </g>
    </g>
   </g>
   <g id="matplotlib.axis_2">
    <g id="ytick_1">
     <g id="line2d_29">
      <path clip-path="url(#p68e2955192)" d="M 99 475.942091 
L 712.8 475.942091 
" style="fill:none;stroke:#b0b0b0;stroke-linecap:square;stroke-width:0.8;"/>
     </g>
     <g id="line2d_30">
      <defs>
       <path d="M 0 0 
L -3.5 0 
" id="me91a084207" style="stroke:#000000;stroke-width:0.8;"/>
      </defs>
      <g>
       <use style="stroke:#000000;stroke-width:0.8;" x="99" xlink:href="#me91a084207" y="475.942091"/>
      </g>
     </g>
     <g id="text_8">
      <!-- $\mathdefault{10^{0}}$ -->
      <g transform="translate(74.4 479.741309)scale(0.1 -0.1)">
       <use transform="translate(0 0.765625)" xlink:href="#DejaVuSans-31"/>
       <use transform="translate(63.623047 0.765625)" xlink:href="#DejaVuSans-30"/>
       <use transform="translate(128.203125 39.046875)scale(0.7)" xlink:href="#DejaVuSans-30"/>
      </g>
     </g>
    </g>
    <g id="ytick_2">
     <g id="line2d_31">
      <path clip-path="url(#p68e2955192)" d="M 99 318.755398 
L 712.8 318.755398 
" style="fill:none;stroke:#b0b0b0;stroke-linecap:square;stroke-width:0.8;"/>
     </g>
     <g id="line2d_32">
      <g>
       <use style="stroke:#000000;stroke-width:0.8;" x="99" xlink:href="#me91a084207" y="318.755398"/>
      </g>
     </g>
     <g id="text_9">
      <!-- $\mathdefault{10^{1}}$ -->
      <g transform="translate(74.4 322.554616)scale(0.1 -0.1)">
       <use transform="translate(0 0.684375)" xlink:href="#DejaVuSans-31"/>
       <use transform="translate(63.623047 0.684375)" xlink:href="#DejaVuSans-30"/>
       <use transform="translate(128.203125 38.965625)scale(0.7)" xlink:href="#DejaVuSans-31"/>
      </g>
     </g>
    </g>
    <g id="ytick_3">
     <g id="line2d_33">
      <path clip-path="url(#p68e2955192)" d="M 99 161.568705 
L 712.8 161.568705 
" style="fill:none;stroke:#b0b0b0;stroke-linecap:square;stroke-width:0.8;"/>
     </g>
     <g id="line2d_34">
      <g>
       <use style="stroke:#000000;stroke-width:0.8;" x="99" xlink:href="#me91a084207" y="161.568705"/>
      </g>
     </g>
     <g id="text_10">
      <!-- $\mathdefault{10^{2}}$ -->
      <g transform="translate(74.4 165.367924)scale(0.1 -0.1)">
       <use transform="translate(0 0.765625)" xlink:href="#DejaVuSans-31"/>
       <use transform="translate(63.623047 0.765625)" xlink:href="#DejaVuSans-30"/>
       <use transform="translate(128.203125 39.046875)scale(0.7)" xlink:href="#DejaVuSans-32"/>
      </g>
     </g>
    </g>
    <g id="ytick_4">
     <g id="line2d_35">
      <path clip-path="url(#p68e2955192)" d="M 99 538.492964 
L 712.8 538.492964 
" style="fill:none;stroke:#b0b0b0;stroke-linecap:square;stroke-width:0.8;"/>
     </g>
     <g id="line2d_36">
      <defs>
       <path d="M 0 0 
L -2 0 
" id="m0cb60b688e" style="stroke:#000000;stroke-width:0.6;"/>
      </defs>
      <g>
       <use style="stroke:#000000;stroke-width:0.6;" x="99" xlink:href="#m0cb60b688e" y="538.492964"/>
      </g>
     </g>
    </g>
    <g id="ytick_5">
     <g id="line2d_37">
      <path clip-path="url(#p68e2955192)" d="M 99 523.26 
L 712.8 523.26 
" style="fill:none;stroke:#b0b0b0;stroke-linecap:square;stroke-width:0.8;"/>
     </g>
     <g id="line2d_38">
      <g>
       <use style="stroke:#000000;stroke-width:0.6;" x="99" xlink:href="#m0cb60b688e" y="523.26"/>
      </g>
     </g>
    </g>
    <g id="ytick_6">
     <g id="line2d_39">
      <path clip-path="url(#p68e2955192)" d="M 99 510.813762 
L 712.8 510.813762 
" style="fill:none;stroke:#b0b0b0;stroke-linecap:square;stroke-width:0.8;"/>
     </g>
     <g id="line2d_40">
      <g>
       <use style="stroke:#000000;stroke-width:0.6;" x="99" xlink:href="#m0cb60b688e" y="510.813762"/>
      </g>
     </g>
    </g>
    <g id="ytick_7">
     <g id="line2d_41">
      <path clip-path="url(#p68e2955192)" d="M 99 500.290617 
L 712.8 500.290617 
" style="fill:none;stroke:#b0b0b0;stroke-linecap:square;stroke-width:0.8;"/>
     </g>
     <g id="line2d_42">
      <g>
       <use style="stroke:#000000;stroke-width:0.6;" x="99" xlink:href="#m0cb60b688e" y="500.290617"/>
      </g>
     </g>
    </g>
    <g id="ytick_8">
     <g id="line2d_43">
      <path clip-path="url(#p68e2955192)" d="M 99 491.175055 
L 712.8 491.175055 
" style="fill:none;stroke:#b0b0b0;stroke-linecap:square;stroke-width:0.8;"/>
     </g>
     <g id="line2d_44">
      <g>
       <use style="stroke:#000000;stroke-width:0.6;" x="99" xlink:href="#m0cb60b688e" y="491.175055"/>
      </g>
     </g>
    </g>
    <g id="ytick_9">
     <g id="line2d_45">
      <path clip-path="url(#p68e2955192)" d="M 99 483.134559 
L 712.8 483.134559 
" style="fill:none;stroke:#b0b0b0;stroke-linecap:square;stroke-width:0.8;"/>
     </g>
     <g id="line2d_46">
      <g>
       <use style="stroke:#000000;stroke-width:0.6;" x="99" xlink:href="#m0cb60b688e" y="483.134559"/>
      </g>
     </g>
    </g>
    <g id="ytick_10">
     <g id="line2d_47">
      <path clip-path="url(#p68e2955192)" d="M 99 428.624181 
L 712.8 428.624181 
" style="fill:none;stroke:#b0b0b0;stroke-linecap:square;stroke-width:0.8;"/>
     </g>
     <g id="line2d_48">
      <g>
       <use style="stroke:#000000;stroke-width:0.6;" x="99" xlink:href="#m0cb60b688e" y="428.624181"/>
      </g>
     </g>
    </g>
    <g id="ytick_11">
     <g id="line2d_49">
      <path clip-path="url(#p68e2955192)" d="M 99 400.944978 
L 712.8 400.944978 
" style="fill:none;stroke:#b0b0b0;stroke-linecap:square;stroke-width:0.8;"/>
     </g>
     <g id="line2d_50">
      <g>
       <use style="stroke:#000000;stroke-width:0.6;" x="99" xlink:href="#m0cb60b688e" y="400.944978"/>
      </g>
     </g>
    </g>
    <g id="ytick_12">
     <g id="line2d_51">
      <path clip-path="url(#p68e2955192)" d="M 99 381.306272 
L 712.8 381.306272 
" style="fill:none;stroke:#b0b0b0;stroke-linecap:square;stroke-width:0.8;"/>
     </g>
     <g id="line2d_52">
      <g>
       <use style="stroke:#000000;stroke-width:0.6;" x="99" xlink:href="#m0cb60b688e" y="381.306272"/>
      </g>
     </g>
    </g>
    <g id="ytick_13">
     <g id="line2d_53">
      <path clip-path="url(#p68e2955192)" d="M 99 366.073307 
L 712.8 366.073307 
" style="fill:none;stroke:#b0b0b0;stroke-linecap:square;stroke-width:0.8;"/>
     </g>
     <g id="line2d_54">
      <g>
       <use style="stroke:#000000;stroke-width:0.6;" x="99" xlink:href="#m0cb60b688e" y="366.073307"/>
      </g>
     </g>
    </g>
    <g id="ytick_14">
     <g id="line2d_55">
      <path clip-path="url(#p68e2955192)" d="M 99 353.627069 
L 712.8 353.627069 
" style="fill:none;stroke:#b0b0b0;stroke-linecap:square;stroke-width:0.8;"/>
     </g>
     <g id="line2d_56">
      <g>
       <use style="stroke:#000000;stroke-width:0.6;" x="99" xlink:href="#m0cb60b688e" y="353.627069"/>
      </g>
     </g>
    </g>
    <g id="ytick_15">
     <g id="line2d_57">
      <path clip-path="url(#p68e2955192)" d="M 99 343.103925 
L 712.8 343.103925 
" style="fill:none;stroke:#b0b0b0;stroke-linecap:square;stroke-width:0.8;"/>
     </g>
     <g id="line2d_58">
      <g>
       <use style="stroke:#000000;stroke-width:0.6;" x="99" xlink:href="#m0cb60b688e" y="343.103925"/>
      </g>
     </g>
    </g>
    <g id="ytick_16">
     <g id="line2d_59">
      <path clip-path="url(#p68e2955192)" d="M 99 333.988362 
L 712.8 333.988362 
" style="fill:none;stroke:#b0b0b0;stroke-linecap:square;stroke-width:0.8;"/>
     </g>
     <g id="line2d_60">
      <g>
       <use style="stroke:#000000;stroke-width:0.6;" x="99" xlink:href="#m0cb60b688e" y="333.988362"/>
      </g>
     </g>
    </g>
    <g id="ytick_17">
     <g id="line2d_61">
      <path clip-path="url(#p68e2955192)" d="M 99 325.947866 
L 712.8 325.947866 
" style="fill:none;stroke:#b0b0b0;stroke-linecap:square;stroke-width:0.8;"/>
     </g>
     <g id="line2d_62">
      <g>
       <use style="stroke:#000000;stroke-width:0.6;" x="99" xlink:href="#m0cb60b688e" y="325.947866"/>
      </g>
     </g>
    </g>
    <g id="ytick_18">
     <g id="line2d_63">
      <path clip-path="url(#p68e2955192)" d="M 99 271.437488 
L 712.8 271.437488 
" style="fill:none;stroke:#b0b0b0;stroke-linecap:square;stroke-width:0.8;"/>
     </g>
     <g id="line2d_64">
      <g>
       <use style="stroke:#000000;stroke-width:0.6;" x="99" xlink:href="#m0cb60b688e" y="271.437488"/>
      </g>
     </g>
    </g>
    <g id="ytick_19">
     <g id="line2d_65">
      <path clip-path="url(#p68e2955192)" d="M 99 243.758286 
L 712.8 243.758286 
" style="fill:none;stroke:#b0b0b0;stroke-linecap:square;stroke-width:0.8;"/>
     </g>
     <g id="line2d_66">
      <g>
       <use style="stroke:#000000;stroke-width:0.6;" x="99" xlink:href="#m0cb60b688e" y="243.758286"/>
      </g>
     </g>
    </g>
    <g id="ytick_20">
     <g id="line2d_67">
      <path clip-path="url(#p68e2955192)" d="M 99 224.119579 
L 712.8 224.119579 
" style="fill:none;stroke:#b0b0b0;stroke-linecap:square;stroke-width:0.8;"/>
     </g>
     <g id="line2d_68">
      <g>
       <use style="stroke:#000000;stroke-width:0.6;" x="99" xlink:href="#m0cb60b688e" y="224.119579"/>
      </g>
     </g>
    </g>
    <g id="ytick_21">
     <g id="line2d_69">
      <path clip-path="url(#p68e2955192)" d="M 99 208.886614 
L 712.8 208.886614 
" style="fill:none;stroke:#b0b0b0;stroke-linecap:square;stroke-width:0.8;"/>
     </g>
     <g id="line2d_70">
      <g>
       <use style="stroke:#000000;stroke-width:0.6;" x="99" xlink:href="#m0cb60b688e" y="208.886614"/>
      </g>
     </g>
    </g>
    <g id="ytick_22">
     <g id="line2d_71">
      <path clip-path="url(#p68e2955192)" d="M 99 196.440376 
L 712.8 196.440376 
" style="fill:none;stroke:#b0b0b0;stroke-linecap:square;stroke-width:0.8;"/>
     </g>
     <g id="line2d_72">
      <g>
       <use style="stroke:#000000;stroke-width:0.6;" x="99" xlink:href="#m0cb60b688e" y="196.440376"/>
      </g>
     </g>
    </g>
    <g id="ytick_23">
     <g id="line2d_73">
      <path clip-path="url(#p68e2955192)" d="M 99 185.917232 
L 712.8 185.917232 
" style="fill:none;stroke:#b0b0b0;stroke-linecap:square;stroke-width:0.8;"/>
     </g>
     <g id="line2d_74">
      <g>
       <use style="stroke:#000000;stroke-width:0.6;" x="99" xlink:href="#m0cb60b688e" y="185.917232"/>
      </g>
     </g>
    </g>
    <g id="ytick_24">
     <g id="line2d_75">
      <path clip-path="url(#p68e2955192)" d="M 99 176.801669 
L 712.8 176.801669 
" style="fill:none;stroke:#b0b0b0;stroke-linecap:square;stroke-width:0.8;"/>
     </g>
     <g id="line2d_76">
      <g>
       <use style="stroke:#000000;stroke-width:0.6;" x="99" xlink:href="#m0cb60b688e" y="176.801669"/>
      </g>
     </g>
    </g>
    <g id="ytick_25">
     <g id="line2d_77">
      <path clip-path="url(#p68e2955192)" d="M 99 168.761174 
L 712.8 168.761174 
" style="fill:none;stroke:#b0b0b0;stroke-linecap:square;stroke-width:0.8;"/>
     </g>
     <g id="line2d_78">
      <g>
       <use style="stroke:#000000;stroke-width:0.6;" x="99" xlink:href="#m0cb60b688e" y="168.761174"/>
      </g>
     </g>
    </g>
    <g id="ytick_26">
     <g id="line2d_79">
      <path clip-path="url(#p68e2955192)" d="M 99 114.250795 
L 712.8 114.250795 
" style="fill:none;stroke:#b0b0b0;stroke-linecap:square;stroke-width:0.8;"/>
     </g>
     <g id="line2d_80">
      <g>
       <use style="stroke:#000000;stroke-width:0.6;" x="99" xlink:href="#m0cb60b688e" y="114.250795"/>
      </g>
     </g>
    </g>
    <g id="ytick_27">
     <g id="line2d_81">
      <path clip-path="url(#p68e2955192)" d="M 99 86.571593 
L 712.8 86.571593 
" style="fill:none;stroke:#b0b0b0;stroke-linecap:square;stroke-width:0.8;"/>
     </g>
     <g id="line2d_82">
      <g>
       <use style="stroke:#000000;stroke-width:0.6;" x="99" xlink:href="#m0cb60b688e" y="86.571593"/>
      </g>
     </g>
    </g>
   </g>
   <g id="line2d_83">
    <path clip-path="url(#p68e2955192)" d="M 113.298847 613 
L 113.3 448.262888 
L 114.4 413.391217 
L 115.5 400.944978 
L 117.7 400.944978 
L 118.8 390.421834 
L 119.9 373.265776 
L 121 353.627069 
L 122.1 298.268664 
L 123.2 271.437488 
L 124.3 269.751839 
L 126.5 260.428468 
L 127.6 260.428468 
L 129.8 252.226779 
L 130.9 249.698145 
L 132 248.468106 
L 133.1 244.905629 
L 134.2 242.629908 
L 135.3 246.072586 
L 136.4 242.629908 
L 137.5 240.42761 
L 139.7 240.42761 
L 140.8 242.629908 
L 143 242.629908 
L 144.1 252.226779 
L 145.2 260.428468 
L 146.3 264.931109 
L 147.4 276.759557 
L 149.6 318.755398 
L 150.7 325.947866 
L 151.8 333.988362 
L 152.9 333.988362 
L 154 338.394105 
L 155.1 353.627069 
L 156.2 343.103925 
L 157.3 353.627069 
L 158.4 373.265776 
L 161.7 373.265776 
L 162.8 366.073307 
L 165 366.073307 
L 166.1 353.627069 
L 167.2 353.627069 
L 168.3 366.073307 
L 170.5 366.073307 
L 171.6 373.265776 
L 172.7 373.265776 
L 173.8 381.306272 
L 174.9 400.944978 
L 176 413.391217 
L 177.1 413.391217 
L 178.2 428.624181 
L 187 428.624181 
L 188.1 413.391217 
L 198 413.391217 
L 199.1 390.421834 
L 200.2 381.306272 
L 202.4 381.306272 
L 203.5 373.265776 
L 204.6 343.103925 
L 205.7 325.947866 
L 211.2 325.947866 
L 212.3 338.394105 
L 213.4 325.947866 
L 214.5 338.394105 
L 215.6 338.394105 
L 216.7 359.566928 
L 217.8 373.265776 
L 221.1 373.265776 
L 222.2 390.421834 
L 223.3 390.421834 
L 224.4 373.265776 
L 226.6 373.265776 
L 227.7 366.073307 
L 231 366.073307 
L 232.1 381.306272 
L 233.2 373.265776 
L 234.3 413.391217 
L 236.5 413.391217 
L 237.6 381.306272 
L 238.7 359.566928 
L 239.8 366.073307 
L 240.9 366.073307 
L 242 359.566928 
L 246.4 359.566928 
L 247.5 348.162928 
L 250.8 348.162928 
L 251.9 338.394105 
L 253 329.849803 
L 254.1 338.394105 
L 256.3 338.394105 
L 257.4 348.162928 
L 258.5 366.073307 
L 259.6 366.073307 
L 260.7 348.162928 
L 261.8 359.566928 
L 262.9 373.265776 
L 264 381.306272 
L 265.1 373.265776 
L 266.2 373.265776 
L 267.3 381.306272 
L 268.4 381.306272 
L 269.5 373.265776 
L 270.6 373.265776 
L 271.7 366.073307 
L 272.8 366.073307 
L 273.9 359.566928 
L 276.1 359.566928 
L 277.2 353.627069 
L 289.3 353.627069 
L 290.4 359.566928 
L 293.7 359.566928 
L 294.8 343.103925 
L 298.1 343.103925 
L 299.2 359.566928 
L 300.3 359.566928 
L 301.4 366.073307 
L 302.5 366.073307 
L 303.6 381.306272 
L 304.7 381.306272 
L 305.8 366.073307 
L 312.4 366.073307 
L 313.5 381.306272 
L 314.6 390.421834 
L 315.7 373.265776 
L 319 373.265776 
L 320.1 381.306272 
L 322.3 381.306272 
L 323.4 390.421834 
L 324.5 400.944978 
L 327.8 400.944978 
L 328.9 390.421834 
L 332.2 390.421834 
L 333.3 381.306272 
L 334.4 366.073307 
L 335.5 348.162928 
L 337.7 348.162928 
L 338.8 338.394105 
L 339.9 333.988362 
L 341 325.947866 
L 342.1 325.947866 
L 343.2 318.755398 
L 344.3 318.755398 
L 346.5 312.249018 
L 347.6 315.424722 
L 348.7 315.424722 
L 349.8 312.249018 
L 353.1 312.249018 
L 354.2 309.214505 
L 355.3 309.214505 
L 356.4 300.845019 
L 357.5 300.845019 
L 358.6 298.268664 
L 360.8 288.837788 
L 361.9 284.569816 
L 363 274.939041 
L 364.1 273.165816 
L 365.2 264.931109 
L 366.3 260.428468 
L 367.4 261.896595 
L 368.5 264.931109 
L 369.6 264.931109 
L 370.7 261.896595 
L 372.9 261.896595 
L 374 260.428468 
L 375.1 250.950754 
L 377.3 223.271552 
L 378.4 215.324762 
L 379.5 213.840675 
L 380.6 206.2092 
L 382.8 174.701032 
L 383.9 169.141483 
L 388.3 169.141483 
L 389.4 171.864677 
L 390.5 171.864677 
L 391.6 173.470994 
L 392.7 173.470994 
L 393.8 178.969004 
L 394.9 186.406591 
L 396 178.969004 
L 399.3 178.969004 
L 400.4 178.093796 
L 401.5 186.406591 
L 402.6 171.864677 
L 403.7 159.883056 
L 404.8 153.22548 
L 407 153.22548 
L 408.1 148.555946 
L 410.3 148.555946 
L 411.4 153.22548 
L 412.5 153.22548 
L 413.6 158.563878 
L 414.7 160.216872 
L 415.8 161.568705 
L 418 161.568705 
L 419.1 163.648012 
L 420.2 163.648012 
L 421.3 166.890774 
L 422.4 163.648012 
L 423.5 166.890774 
L 424.6 168.006853 
L 427.9 168.006853 
L 429 171.468935 
L 431.2 171.468935 
L 432.3 175.953642 
L 433.4 171.468935 
L 434.5 164.355431 
L 435.6 163.297033 
L 436.7 153.832287 
L 437.8 153.832287 
L 438.9 144.716724 
L 440 144.716724 
L 441.1 133.66233 
L 442.2 133.66233 
L 443.3 126.560639 
L 447.7 126.560639 
L 448.8 126.970642 
L 449.9 126.970642 
L 451 128.635733 
L 452.1 128.635733 
L 454.3 134.117433 
L 455.4 134.117433 
L 456.5 135.96881 
L 457.6 135.96881 
L 458.7 137.151947 
L 459.8 139.334683 
L 460.9 139.334683 
L 462 141.335275 
L 463.1 142.100875 
L 464.2 142.100875 
L 465.3 142.357995 
L 466.4 141.84472 
L 467.5 142.357995 
L 468.6 142.357995 
L 469.7 141.84472 
L 470.8 141.589522 
L 473 141.589522 
L 474.1 141.84472 
L 476.3 141.84472 
L 477.4 143.658326 
L 478.5 141.84472 
L 479.6 141.84472 
L 480.7 143.396271 
L 482.9 143.396271 
L 484 148.274439 
L 485.1 148.274439 
L 486.2 151.73165 
L 488.4 151.73165 
L 489.5 154.137725 
L 491.7 154.137725 
L 492.8 158.238029 
L 493.9 160.889442 
L 495 160.889442 
L 496.1 158.238029 
L 497.2 158.238029 
L 498.3 154.137725 
L 499.4 152.027812 
L 500.5 152.027812 
L 501.6 151.73165 
L 503.8 151.73165 
L 504.9 150.559684 
L 506 150.559684 
L 507.1 151.73165 
L 508.2 150.559684 
L 514.8 150.559684 
L 515.9 149.4075 
L 517 153.528209 
L 520.3 153.528209 
L 521.4 148.274439 
L 522.5 142.100875 
L 523.6 142.100875 
L 524.7 136.913673 
L 525.8 136.913673 
L 526.9 132.092943 
L 529.1 123.757564 
L 535.7 123.757564 
L 536.8 130.342454 
L 539 130.342454 
L 540.1 133.889502 
L 541.2 133.889502 
L 542.3 134.805829 
L 543.4 134.805829 
L 544.5 137.391055 
L 545.6 144.450582 
L 546.7 144.450582 
L 547.8 147.714885 
L 548.9 149.4075 
L 550 142.357995 
L 551.1 153.22548 
L 552.2 162.600442 
L 553.3 164.000805 
L 555.5 164.000805 
L 556.6 166.156731 
L 557.7 169.523922 
L 562.1 169.523922 
L 563.2 173.878549 
L 564.3 173.878549 
L 566.5 195.873856 
L 567.6 195.873856 
L 569.8 203.632845 
L 570.9 201.762445 
L 575.3 201.762445 
L 576.4 202.380235 
L 577.5 204.267876 
L 579.7 204.267876 
L 580.8 208.207352 
L 581.9 210.965922 
L 583 217.6132 
L 584.1 220.788903 
L 585.2 222.43393 
L 586.3 226.728762 
L 587.4 229.441648 
L 588.5 234.217393 
L 589.6 241.519878 
L 590.7 249.698145 
L 591.8 258.99125 
L 592.9 266.500496 
L 595.1 273.165816 
L 596.2 291.076195 
L 597.3 315.424722 
L 598.4 315.424722 
L 599.5 322.256951 
L 600.6 325.947866 
L 601.7 325.947866 
L 602.8 322.256951 
L 603.9 329.849803 
L 606.1 329.849803 
L 607.2 333.988362 
L 608.3 343.103925 
L 609.4 343.103925 
L 610.5 333.988362 
L 611.6 333.988362 
L 612.7 329.849803 
L 613.8 343.103925 
L 617.1 343.103925 
L 618.2 359.566928 
L 619.3 343.103925 
L 620.4 353.627069 
L 621.5 348.162928 
L 624.8 348.162928 
L 625.9 366.073307 
L 627 381.306272 
L 628.1 390.421834 
L 629.2 381.306272 
L 631.4 381.306272 
L 632.5 390.421834 
L 633.6 381.306272 
L 640.2 381.306272 
L 641.3 373.265776 
L 642.4 353.627069 
L 643.5 343.103925 
L 644.6 338.394105 
L 646.8 338.394105 
L 647.9 318.755398 
L 649 322.256951 
L 650.1 309.214505 
L 651.2 303.522433 
L 652.3 286.670453 
L 657.8 286.670453 
L 658.9 271.437488 
L 660 263.396992 
L 663.3 263.396992 
L 665.5 236.225341 
L 666.6 235.213984 
L 667.7 221.606461 
L 671 221.606461 
L 673.2 201.762445 
L 674.3 181.664038 
L 675.4 168.006853 
L 677.6 168.006853 
L 678.7 184.948913 
L 679.8 168.006853 
L 680.9 166.522766 
L 682 164.711909 
L 684.2 164.711909 
L 685.3 157.59096 
L 686.4 164.711909 
L 687.5 160.889442 
L 688.6 155.062326 
L 690.8 155.062326 
L 691.9 151.143152 
L 693 144.983908 
L 695.2 144.983908 
L 696.3 138.355952 
L 697.4 138.599322 
L 698.5 136.913673 
L 699.6 135.501237 
L 700.7 136.913673 
L 701.8 136.913673 
L 702.9 135.501237 
L 704 135.501237 
L 706.2 134.117433 
L 707.3 134.117433 
L 708.4 132.092943 
L 709.5 132.092943 
L 710.6 133.43591 
L 711.7 133.43591 
L 712.8 130.993639 
L 712.8 130.993639 
" style="fill:none;stroke:#1f77b4;stroke-linecap:square;stroke-width:1.5;"/>
   </g>
   <g id="line2d_84">
    <path clip-path="url(#p68e2955192)" d="M 125.399372 613 
L 125.4 523.26 
L 126.5 475.942091 
L 136.4 475.942091 
L 137.5 523.26 
L 138.6 475.942091 
L 166.1 475.942091 
L 167.2 523.26 
L 167.200628 613 
M 393.799372 613 
L 393.8 523.26 
L 394.9 475.942091 
L 400.4 475.942091 
L 401.5 448.262888 
L 402.6 428.624181 
L 416.9 428.624181 
L 418 448.262888 
L 419.1 428.624181 
L 420.2 428.624181 
L 421.3 448.262888 
L 422.4 475.942091 
L 423.5 448.262888 
L 424.6 428.624181 
L 425.7 448.262888 
L 426.8 448.262888 
L 427.9 428.624181 
L 429 448.262888 
L 430.1 428.624181 
L 431.2 448.262888 
L 432.3 428.624181 
L 433.4 413.391217 
L 437.8 413.391217 
L 438.9 428.624181 
L 440 448.262888 
L 441.1 428.624181 
L 442.2 448.262888 
L 444.4 448.262888 
L 445.5 475.942091 
L 446.6 475.942091 
L 447.7 523.26 
L 447.700628 613 
M 453.199372 613 
L 453.2 523.26 
L 454.3 523.26 
L 455.4 475.942091 
L 456.5 523.26 
L 457.6 475.942091 
L 458.7 523.26 
L 458.700628 613 
M 460.899372 613 
L 460.9 523.26 
L 462 475.942091 
L 502.7 475.942091 
L 503.8 523.26 
L 503.800628 613 
M 507.099372 613 
L 507.1 523.26 
L 508.2 523.26 
L 508.200628 613 
M 519.199372 613 
L 519.2 523.26 
L 520.3 475.942091 
L 521.4 475.942091 
L 522.5 523.26 
L 523.6 475.942091 
L 524.7 475.942091 
L 525.8 523.26 
L 528 523.26 
L 529.1 475.942091 
L 532.4 475.942091 
L 533.5 523.26 
L 534.6 523.26 
L 534.600628 613 
M 543.399372 613 
L 543.4 523.26 
L 544.5 523.26 
L 544.500628 613 
M 695.199372 613 
L 695.2 523.26 
L 698.5 523.26 
L 699.6 475.942091 
L 712.8 475.942091 
L 712.8 475.942091 
" style="fill:none;stroke:#ff7f0e;stroke-linecap:square;stroke-width:1.5;"/>
   </g>
   <g id="patch_3">
    <path d="M 99 544.68 
L 99 73.44 
" style="fill:none;stroke:#000000;stroke-linecap:square;stroke-linejoin:miter;stroke-width:0.8;"/>
   </g>
   <g id="patch_4">
    <path d="M 712.8 544.68 
L 712.8 73.44 
" style="fill:none;stroke:#000000;stroke-linecap:square;stroke-linejoin:miter;stroke-width:0.8;"/>
   </g>
   <g id="patch_5">
    <path d="M 99 544.68 
L 712.8 544.68 
" style="fill:none;stroke:#000000;stroke-linecap:square;stroke-linejoin:miter;stroke-width:0.8;"/>
   </g>
   <g id="patch_6">
    <path d="M 99 73.44 
L 712.8 73.44 
" style="fill:none;stroke:#000000;stroke-linecap:square;stroke-linejoin:miter;stroke-width:0.8;"/>
   </g>
   <g id="legend_1">
    <g id="patch_7">
     <path d="M 616.653125 110.79625 
L 705.8 110.79625 
Q 707.8 110.79625 707.8 108.79625 
L 707.8 80.44 
Q 707.8 78.44 705.8 78.44 
L 616.653125 78.44 
Q 614.653125 78.44 614.653125 80.44 
L 614.653125 108.79625 
Q 614.653125 110.79625 616.653125 110.79625 
z
" style="fill:#ffffff;opacity:0.8;stroke:#cccccc;stroke-linejoin:miter;"/>
    </g>
    <g id="line2d_85">
     <path d="M 618.653125 86.538437 
L 638.653125 86.538437 
" style="fill:none;stroke:#1f77b4;stroke-linecap:square;stroke-width:1.5;"/>
    </g>
    <g id="line2d_86"/>
    <g id="text_11">
     <!-- Avg Cases -->
     <g transform="translate(646.653125 90.038437)scale(0.1 -0.1)">
      <defs>
       <path d="M 191 3500 
L 800 3500 
L 1894 563 
L 2988 3500 
L 3597 3500 
L 2284 0 
L 1503 0 
L 191 3500 
z
" id="DejaVuSans-76" transform="scale(0.015625)"/>
       <path d="M 2906 1791 
Q 2906 2416 2648 2759 
Q 2391 3103 1925 3103 
Q 1463 3103 1205 2759 
Q 947 2416 947 1791 
Q 947 1169 1205 825 
Q 1463 481 1925 481 
Q 2391 481 2648 825 
Q 2906 1169 2906 1791 
z
M 3481 434 
Q 3481 -459 3084 -895 
Q 2688 -1331 1869 -1331 
Q 1566 -1331 1297 -1286 
Q 1028 -1241 775 -1147 
L 775 -588 
Q 1028 -725 1275 -790 
Q 1522 -856 1778 -856 
Q 2344 -856 2625 -561 
Q 2906 -266 2906 331 
L 2906 616 
Q 2728 306 2450 153 
Q 2172 0 1784 0 
Q 1141 0 747 490 
Q 353 981 353 1791 
Q 353 2603 747 3093 
Q 1141 3584 1784 3584 
Q 2172 3584 2450 3431 
Q 2728 3278 2906 2969 
L 2906 3500 
L 3481 3500 
L 3481 434 
z
" id="DejaVuSans-67" transform="scale(0.015625)"/>
       <path id="DejaVuSans-20" transform="scale(0.015625)"/>
       <path d="M 4122 4306 
L 4122 3641 
Q 3803 3938 3442 4084 
Q 3081 4231 2675 4231 
Q 1875 4231 1450 3742 
Q 1025 3253 1025 2328 
Q 1025 1406 1450 917 
Q 1875 428 2675 428 
Q 3081 428 3442 575 
Q 3803 722 4122 1019 
L 4122 359 
Q 3791 134 3420 21 
Q 3050 -91 2638 -91 
Q 1578 -91 968 557 
Q 359 1206 359 2328 
Q 359 3453 968 4101 
Q 1578 4750 2638 4750 
Q 3056 4750 3426 4639 
Q 3797 4528 4122 4306 
z
" id="DejaVuSans-43" transform="scale(0.015625)"/>
       <path d="M 2834 3397 
L 2834 2853 
Q 2591 2978 2328 3040 
Q 2066 3103 1784 3103 
Q 1356 3103 1142 2972 
Q 928 2841 928 2578 
Q 928 2378 1081 2264 
Q 1234 2150 1697 2047 
L 1894 2003 
Q 2506 1872 2764 1633 
Q 3022 1394 3022 966 
Q 3022 478 2636 193 
Q 2250 -91 1575 -91 
Q 1294 -91 989 -36 
Q 684 19 347 128 
L 347 722 
Q 666 556 975 473 
Q 1284 391 1588 391 
Q 1994 391 2212 530 
Q 2431 669 2431 922 
Q 2431 1156 2273 1281 
Q 2116 1406 1581 1522 
L 1381 1569 
Q 847 1681 609 1914 
Q 372 2147 372 2553 
Q 372 3047 722 3315 
Q 1072 3584 1716 3584 
Q 2034 3584 2315 3537 
Q 2597 3491 2834 3397 
z
" id="DejaVuSans-73" transform="scale(0.015625)"/>
      </defs>
      <use xlink:href="#DejaVuSans-41"/>
      <use x="62.533203" xlink:href="#DejaVuSans-76"/>
      <use x="121.712891" xlink:href="#DejaVuSans-67"/>
      <use x="185.189453" xlink:href="#DejaVuSans-20"/>
      <use x="216.976562" xlink:href="#DejaVuSans-43"/>
      <use x="286.800781" xlink:href="#DejaVuSans-61"/>
      <use x="348.080078" xlink:href="#DejaVuSans-73"/>
      <use x="400.179688" xlink:href="#DejaVuSans-65"/>
      <use x="461.703125" xlink:href="#DejaVuSans-73"/>
     </g>
    </g>
    <g id="line2d_87">
     <path d="M 618.653125 101.216562 
L 638.653125 101.216562 
" style="fill:none;stroke:#ff7f0e;stroke-linecap:square;stroke-width:1.5;"/>
    </g>
    <g id="line2d_88"/>
    <g id="text_12">
     <!-- Avg Deaths -->
     <g transform="translate(646.653125 104.716562)scale(0.1 -0.1)">
      <defs>
       <path d="M 3513 2113 
L 3513 0 
L 2938 0 
L 2938 2094 
Q 2938 2591 2744 2837 
Q 2550 3084 2163 3084 
Q 1697 3084 1428 2787 
Q 1159 2491 1159 1978 
L 1159 0 
L 581 0 
L 581 4863 
L 1159 4863 
L 1159 2956 
Q 1366 3272 1645 3428 
Q 1925 3584 2291 3584 
Q 2894 3584 3203 3211 
Q 3513 2838 3513 2113 
z
" id="DejaVuSans-68" transform="scale(0.015625)"/>
      </defs>
      <use xlink:href="#DejaVuSans-41"/>
      <use x="62.533203" xlink:href="#DejaVuSans-76"/>
      <use x="121.712891" xlink:href="#DejaVuSans-67"/>
      <use x="185.189453" xlink:href="#DejaVuSans-20"/>
      <use x="216.976562" xlink:href="#DejaVuSans-44"/>
      <use x="293.978516" xlink:href="#DejaVuSans-65"/>
      <use x="355.501953" xlink:href="#DejaVuSans-61"/>
      <use x="416.78125" xlink:href="#DejaVuSans-74"/>
      <use x="455.990234" xlink:href="#DejaVuSans-68"/>
      <use x="519.369141" xlink:href="#DejaVuSans-73"/>
     </g>
    </g>
   </g>
  </g>
 </g>
 <defs>
  <clipPath id="p68e2955192">
   <rect height="471.24" width="613.8" x="99" y="73.44"/>
  </clipPath>
 </defs>
</svg>
