<?xml version="1.0" encoding="utf-8" standalone="no"?>
<!DOCTYPE svg PUBLIC "-//W3C//DTD SVG 1.1//EN"
  "http://www.w3.org/Graphics/SVG/1.1/DTD/svg11.dtd">
<svg height="612pt" version="1.1" viewBox="0 0 792 612" width="792pt" xmlns="http://www.w3.org/2000/svg" xmlns:xlink="http://www.w3.org/1999/xlink">
 <metadata>
  <rdf:RDF xmlns:cc="http://creativecommons.org/ns#" xmlns:dc="http://purl.org/dc/elements/1.1/" xmlns:rdf="http://www.w3.org/1999/02/22-rdf-syntax-ns#">
   <cc:Work>
    <dc:type rdf:resource="http://purl.org/dc/dcmitype/StillImage"/>
    <dc:format>image/svg+xml</dc:format>
    <dc:creator>
     <cc:Agent>
      <dc:title>Matplotlib v3.4.2, https://matplotlib.org/</dc:title>
     </cc:Agent>
    </dc:creator>
   </cc:Work>
  </rdf:RDF>
 </metadata>
 <defs>
  <style type="text/css">*{stroke-linecap:butt;stroke-linejoin:round;}</style>
 </defs>
 <g id="figure_1">
  <g id="patch_1">
   <path d="M 0 612 
L 792 612 
L 792 0 
L 0 0 
z
" style="fill:#ffffff;"/>
  </g>
  <g id="axes_1">
   <g id="patch_2">
    <path d="M 99 544.68 
L 712.8 544.68 
L 712.8 73.44 
L 99 73.44 
z
" style="fill:#ffffff;"/>
   </g>
   <g id="PolyCollection_1">
    <path clip-path="url(#p68e2955192)" d="M 99 157662.634912 
L 99 157662.634912 
L 100.136667 157662.634912 
L 101.273333 157662.634912 
L 102.41 157662.634912 
L 103.546667 157662.634912 
L 104.683333 157662.634912 
L 105.82 157662.634912 
L 106.956667 157662.634912 
L 108.093333 157662.634912 
L 109.23 157662.634912 
L 110.366667 157662.634912 
L 111.503333 157662.634912 
L 112.64 157662.634912 
L 113.776667 370.297251 
L 114.913333 349.221327 
L 116.05 349.221327 
L 117.186667 286.245122 
L 118.323333 271.437488 
L 119.46 264.621515 
L 120.596667 252.226779 
L 121.733333 249.946834 
L 122.87 249.203466 
L 124.006667 249.203466 
L 125.143333 249.203466 
L 126.28 237.459085 
L 127.416667 237.459085 
L 128.553333 237.459085 
L 129.69 230.557727 
L 130.826667 213.401669 
L 131.963333 207.534782 
L 133.1 207.534782 
L 134.236667 207.534782 
L 135.373333 207.534782 
L 136.51 207.534782 
L 137.646667 207.534782 
L 138.783333 207.534782 
L 139.92 207.534782 
L 141.056667 207.534782 
L 142.193333 207.534782 
L 143.33 207.534782 
L 144.466667 207.534782 
L 145.603333 207.534782 
L 146.74 215.625491 
L 147.876667 239.352543 
L 149.013333 239.352543 
L 150.15 240.64467 
L 151.286667 244.674612 
L 152.423333 244.674612 
L 153.56 261.600433 
L 154.696667 273.165816 
L 155.833333 273.165816 
L 156.97 293.390495 
L 158.106667 293.390495 
L 159.243333 293.390495 
L 160.38 293.390495 
L 161.516667 290.622603 
L 162.653333 307.456503 
L 163.79 304.070752 
L 164.926667 304.070752 
L 166.063333 304.070752 
L 167.2 304.070752 
L 168.336667 304.070752 
L 169.473333 304.070752 
L 170.61 318.076135 
L 171.746667 318.076135 
L 172.883333 318.076135 
L 174.02 318.076135 
L 175.156667 318.076135 
L 176.293333 318.076135 
L 177.43 336.597545 
L 178.566667 342.135606 
L 179.703333 357.128622 
L 180.84 357.128622 
L 181.976667 357.128622 
L 183.113333 357.128622 
L 184.25 357.128622 
L 185.386667 357.128622 
L 186.523333 357.128622 
L 187.66 360.819538 
L 188.796667 353.627069 
L 189.933333 353.627069 
L 191.07 353.627069 
L 192.206667 353.627069 
L 193.343333 353.627069 
L 194.48 353.627069 
L 195.616667 357.128622 
L 196.753333 357.128622 
L 197.89 357.128622 
L 199.026667 357.128622 
L 200.163333 357.128622 
L 201.3 357.128622 
L 202.436667 290.622603 
L 203.573333 277.12956 
L 204.71 277.12956 
L 205.846667 277.12956 
L 206.983333 277.12956 
L 208.12 277.12956 
L 209.256667 277.12956 
L 210.393333 277.12956 
L 211.53 277.12956 
L 212.666667 277.12956 
L 213.803333 277.12956 
L 214.94 277.12956 
L 216.076667 284.984804 
L 217.213333 284.984804 
L 218.35 295.300139 
L 219.486667 306.30916 
L 220.623333 308.037488 
L 221.76 308.037488 
L 222.896667 295.300139 
L 224.033333 311.631229 
L 225.17 311.631229 
L 226.306667 311.631229 
L 227.443333 311.631229 
L 228.58 311.631229 
L 229.716667 311.631229 
L 230.853333 311.631229 
L 231.99 288.837788 
L 233.126667 288.837788 
L 234.263333 288.837788 
L 235.4 290.172006 
L 236.536667 290.172006 
L 237.673333 290.172006 
L 238.81 316.077983 
L 239.946667 293.390495 
L 241.083333 293.390495 
L 242.22 293.390495 
L 243.356667 290.622603 
L 244.493333 290.622603 
L 245.63 290.622603 
L 246.766667 290.622603 
L 247.903333 300.845019 
L 249.04 300.845019 
L 250.176667 300.845019 
L 251.313333 300.845019 
L 252.45 300.845019 
L 253.586667 300.845019 
L 254.723333 300.845019 
L 255.86 302.438834 
L 256.996667 302.438834 
L 258.133333 302.438834 
L 259.27 308.037488 
L 260.406667 308.037488 
L 261.543333 308.037488 
L 262.68 312.249018 
L 263.816667 312.249018 
L 264.953333 312.249018 
L 266.09 312.249018 
L 267.226667 314.136659 
L 268.363333 318.076135 
L 269.5 318.076135 
L 270.636667 318.076135 
L 271.773333 328.262166 
L 272.91 330.657686 
L 274.046667 343.103925 
L 275.183333 343.103925 
L 276.32 343.103925 
L 277.456667 330.657686 
L 278.593333 330.657686 
L 279.73 330.657686 
L 280.866667 320.834705 
L 282.003333 320.834705 
L 283.14 320.834705 
L 284.276667 309.810712 
L 285.413333 309.810712 
L 286.55 309.810712 
L 287.686667 309.810712 
L 288.823333 309.810712 
L 289.96 306.30916 
L 291.096667 306.30916 
L 292.233333 306.30916 
L 293.37 306.30916 
L 294.506667 306.30916 
L 295.643333 306.30916 
L 296.78 311.631229 
L 297.916667 306.30916 
L 299.053333 306.30916 
L 300.19 308.037488 
L 301.326667 308.037488 
L 302.463333 308.037488 
L 303.6 308.037488 
L 304.736667 308.037488 
L 305.873333 312.249018 
L 307.01 312.249018 
L 308.146667 312.249018 
L 309.283333 312.249018 
L 310.42 312.249018 
L 311.556667 312.249018 
L 312.693333 312.249018 
L 313.83 316.077983 
L 314.966667 328.262166 
L 316.103333 316.077983 
L 317.24 330.657686 
L 318.376667 330.657686 
L 319.513333 330.657686 
L 320.65 330.657686 
L 321.786667 330.657686 
L 322.923333 330.657686 
L 324.06 330.657686 
L 325.196667 330.657686 
L 326.333333 330.657686 
L 327.47 330.657686 
L 328.606667 330.657686 
L 329.743333 336.597545 
L 330.88 336.597545 
L 332.016667 346.094124 
L 333.153333 349.221327 
L 334.29 349.221327 
L 335.426667 349.221327 
L 336.563333 336.597545 
L 337.7 322.979342 
L 338.836667 322.979342 
L 339.973333 305.742639 
L 341.11 305.742639 
L 342.246667 305.742639 
L 343.383333 304.070752 
L 344.52 304.070752 
L 345.656667 304.070752 
L 346.793333 304.070752 
L 347.93 304.070752 
L 349.066667 304.070752 
L 350.203333 304.070752 
L 351.34 297.264744 
L 352.476667 298.776215 
L 353.613333 298.776215 
L 354.75 298.776215 
L 355.886667 308.037488 
L 357.023333 308.037488 
L 358.16 298.776215 
L 359.296667 292.455339 
L 360.433333 287.962579 
L 361.57 259.849945 
L 362.706667 247.499787 
L 363.843333 247.499787 
L 364.98 244.444375 
L 366.116667 244.444375 
L 367.253333 244.444375 
L 368.39 244.444375 
L 369.526667 244.444375 
L 370.663333 244.444375 
L 371.8 244.444375 
L 372.936667 244.444375 
L 374.073333 243.758286 
L 375.21 243.758286 
L 376.346667 243.758286 
L 377.483333 243.758286 
L 378.62 234.8136 
L 379.756667 234.8136 
L 380.893333 220.303027 
L 382.03 213.987641 
L 383.166667 190.766511 
L 384.303333 171.626956 
L 385.44 163.227053 
L 386.576667 163.227053 
L 387.713333 154.321646 
L 388.85 154.321646 
L 389.986667 154.321646 
L 391.123333 150.211982 
L 392.26 138.599322 
L 393.396667 138.599322 
L 394.533333 138.599322 
L 395.67 138.599322 
L 396.806667 138.599322 
L 397.943333 138.599322 
L 399.08 138.599322 
L 400.216667 134.346128 
L 401.353333 134.346128 
L 402.49 134.346128 
L 403.626667 134.346128 
L 404.763333 134.346128 
L 405.9 125.626874 
L 407.036667 121.405349 
L 408.173333 121.405349 
L 409.31 121.405349 
L 410.446667 121.405349 
L 411.583333 121.405349 
L 412.72 121.405349 
L 413.856667 121.405349 
L 414.993333 121.405349 
L 416.13 126.970642 
L 417.266667 126.970642 
L 418.403333 126.970642 
L 419.54 126.970642 
L 420.676667 126.970642 
L 421.813333 143.605835 
L 422.95 143.605835 
L 424.086667 143.605835 
L 425.223333 144.716724 
L 426.36 144.716724 
L 427.496667 144.716724 
L 428.633333 144.716724 
L 429.77 144.716724 
L 430.906667 144.876909 
L 432.043333 149.065603 
L 433.18 140.527989 
L 434.316667 144.079718 
L 435.453333 144.556915 
L 436.59 144.556915 
L 437.726667 144.556915 
L 438.863333 146.063224 
L 440 146.063224 
L 441.136667 125.224839 
L 442.273333 125.224839 
L 443.41 125.224839 
L 444.546667 121.823573 
L 445.683333 121.823573 
L 446.82 105.606178 
L 447.956667 102.865178 
L 449.093333 102.865178 
L 450.23 102.865178 
L 451.366667 102.865178 
L 452.503333 102.865178 
L 453.64 102.865178 
L 454.776667 102.865178 
L 455.913333 102.865178 
L 457.05 110.048017 
L 458.186667 110.048017 
L 459.323333 110.048017 
L 460.46 110.048017 
L 461.596667 110.048017 
L 462.733333 115.005874 
L 463.87 121.291732 
L 465.006667 121.291732 
L 466.143333 121.291732 
L 467.28 121.291732 
L 468.416667 121.291732 
L 469.553333 121.291732 
L 470.69 123.679143 
L 471.826667 123.679143 
L 472.963333 125.345201 
L 474.1 125.345201 
L 475.236667 126.929531 
L 476.373333 126.929531 
L 477.51 127.052939 
L 478.646667 123.875364 
L 479.783333 127.052939 
L 480.92 126.438117 
L 482.056667 126.438117 
L 483.193333 126.438117 
L 484.33 126.438117 
L 485.466667 126.438117 
L 486.603333 126.438117 
L 487.74 124.98475 
L 488.876667 128.467384 
L 490.013333 128.467384 
L 491.15 124.705709 
L 492.286667 124.705709 
L 493.423333 124.705709 
L 494.56 128.467384 
L 495.696667 128.467384 
L 496.833333 128.593607 
L 497.97 128.593607 
L 499.106667 128.593607 
L 500.243333 128.593607 
L 501.38 128.593607 
L 502.516667 128.593607 
L 503.653333 133.481134 
L 504.79 134.99058 
L 505.926667 134.99058 
L 507.063333 141.23384 
L 508.2 141.23384 
L 509.336667 141.23384 
L 510.473333 141.23384 
L 511.61 141.23384 
L 512.746667 137.631004 
L 513.883333 137.631004 
L 515.02 137.631004 
L 516.156667 137.631004 
L 517.293333 137.631004 
L 518.43 137.631004 
L 519.566667 137.631004 
L 520.703333 137.92006 
L 521.84 122.244375 
L 522.976667 122.244375 
L 524.113333 122.244375 
L 525.25 122.244375 
L 526.386667 136.771107 
L 527.523333 135.875039 
L 528.66 130.68898 
L 529.796667 122.167672 
L 530.933333 122.167672 
L 532.07 122.167672 
L 533.206667 122.167672 
L 534.343333 119.058207 
L 535.48 117.572939 
L 536.616667 117.572939 
L 537.753333 116.330103 
L 538.89 116.330103 
L 540.026667 116.330103 
L 541.163333 116.330103 
L 542.3 103.913194 
L 543.436667 100.900368 
L 544.573333 100.900368 
L 545.71 99.897267 
L 546.846667 99.897267 
L 547.983333 99.897267 
L 549.12 99.897267 
L 550.256667 99.897267 
L 551.393333 101.690876 
L 552.53 101.690876 
L 553.666667 101.266252 
L 554.803333 101.266252 
L 555.94 101.266252 
L 557.076667 101.266252 
L 558.213333 103.096684 
L 559.35 103.532885 
L 560.486667 103.532885 
L 561.623333 110.36972 
L 562.76 110.36972 
L 563.896667 110.36972 
L 565.033333 110.36972 
L 566.17 126.071864 
L 567.306667 126.071864 
L 568.443333 126.438117 
L 569.58 136.392381 
L 570.716667 136.392381 
L 571.853333 136.392381 
L 572.99 136.392381 
L 574.126667 141.031423 
L 575.263333 145.03747 
L 576.4 145.03747 
L 577.536667 149.981161 
L 578.673333 149.981161 
L 579.81 149.981161 
L 580.946667 161.705372 
L 582.083333 161.705372 
L 583.22 161.705372 
L 584.356667 161.705372 
L 585.493333 161.705372 
L 586.63 161.705372 
L 587.766667 161.705372 
L 588.903333 161.705372 
L 590.04 164.284358 
L 591.176667 168.913043 
L 592.313333 170.52841 
L 593.45 184.469856 
L 594.586667 184.469856 
L 595.723333 184.469856 
L 596.86 184.469856 
L 597.996667 184.469856 
L 599.133333 188.805619 
L 600.27 188.805619 
L 601.406667 188.805619 
L 602.543333 188.805619 
L 603.68 191.928052 
L 604.816667 191.928052 
L 605.953333 207.001456 
L 607.09 221.114752 
L 608.226667 226.375055 
L 609.363333 226.375055 
L 610.5 226.375055 
L 611.636667 226.375055 
L 612.773333 234.415551 
L 613.91 256.752843 
L 615.046667 265.868405 
L 616.183333 265.868405 
L 617.32 269.089064 
L 618.456667 258.42473 
L 619.593333 258.42473 
L 620.73 279.010266 
L 621.866667 297.264744 
L 623.003333 297.264744 
L 624.14 297.264744 
L 625.276667 297.264744 
L 626.413333 297.264744 
L 627.55 297.264744 
L 628.686667 297.264744 
L 629.823333 297.264744 
L 630.96 297.264744 
L 632.096667 297.264744 
L 633.233333 297.264744 
L 634.37 304.070752 
L 635.506667 316.077983 
L 636.643333 316.077983 
L 637.78 325.947866 
L 638.916667 325.947866 
L 640.053333 325.947866 
L 641.19 325.947866 
L 642.326667 325.947866 
L 643.463333 325.947866 
L 644.6 328.262166 
L 645.736667 333.988362 
L 646.873333 333.988362 
L 648.01 333.988362 
L 649.146667 333.988362 
L 650.283333 336.597545 
L 651.42 322.979342 
L 652.556667 325.193546 
L 653.693333 325.193546 
L 654.83 309.810712 
L 655.966667 309.810712 
L 657.103333 309.810712 
L 658.24 298.776215 
L 659.376667 298.776215 
L 660.513333 280.553051 
L 661.65 280.553051 
L 662.786667 270.085656 
L 663.923333 270.085656 
L 665.06 270.085656 
L 666.196667 251.969658 
L 667.333333 251.969658 
L 668.47 251.969658 
L 669.606667 241.300022 
L 670.743333 241.300022 
L 671.88 241.300022 
L 673.016667 241.300022 
L 674.153333 232.652503 
L 675.29 232.652503 
L 676.426667 220.464602 
L 677.563333 220.464602 
L 678.7 203.003667 
L 679.836667 203.003667 
L 680.973333 203.003667 
L 682.11 187.795759 
L 683.246667 187.795759 
L 684.383333 187.795759 
L 685.52 172.985117 
L 686.656667 163.157145 
L 687.793333 163.157145 
L 688.93 163.157145 
L 690.066667 141.284539 
L 691.203333 141.284539 
L 692.34 141.284539 
L 693.476667 137.582946 
L 694.613333 131.827491 
L 695.75 131.827491 
L 696.886667 131.827491 
L 698.023333 134.944345 
L 699.16 106.881067 
L 700.296667 106.881067 
L 701.433333 105.786854 
L 702.57 105.786854 
L 703.706667 105.786854 
L 704.843333 94.86 
L 705.98 101.492389 
L 707.116667 101.492389 
L 708.253333 101.492389 
L 709.39 101.492389 
L 710.526667 101.492389 
L 711.663333 99.980298 
L 712.8 99.980298 
L 712.8 164.711909 
L 712.8 164.711909 
L 711.663333 164.711909 
L 710.526667 182.308489 
L 709.39 182.308489 
L 708.253333 182.308489 
L 707.116667 182.308489 
L 705.98 182.308489 
L 704.843333 174.453245 
L 703.706667 157662.634912 
L 702.57 157662.634912 
L 701.433333 157662.634912 
L 700.296667 157662.634912 
L 699.16 157662.634912 
L 698.023333 157662.634912 
L 696.886667 233.040376 
L 695.75 233.040376 
L 694.613333 233.040376 
L 693.476667 233.040376 
L 692.34 260.719578 
L 691.203333 260.719578 
L 690.066667 313.501628 
L 688.93 313.501628 
L 687.793333 313.501628 
L 686.656667 313.501628 
L 685.52 313.501628 
L 684.383333 313.501628 
L 683.246667 313.501628 
L 682.11 319.441487 
L 680.973333 319.441487 
L 679.836667 319.441487 
L 678.7 319.441487 
L 677.563333 319.441487 
L 676.426667 319.441487 
L 675.29 319.441487 
L 674.153333 341.180831 
L 673.016667 341.180831 
L 671.88 341.180831 
L 670.743333 341.180831 
L 669.606667 341.180831 
L 668.47 373.265776 
L 667.333333 373.265776 
L 666.196667 373.265776 
L 665.06 157662.634912 
L 663.923333 157662.634912 
L 662.786667 157662.634912 
L 661.65 157662.634912 
L 660.513333 157662.634912 
L 659.376667 157662.634912 
L 658.24 157662.634912 
L 657.103333 157662.634912 
L 655.966667 157662.634912 
L 654.83 157662.634912 
L 653.693333 157662.634912 
L 652.556667 157662.634912 
L 651.42 157662.634912 
L 650.283333 157662.634912 
L 649.146667 435.81665 
L 648.01 435.81665 
L 646.873333 435.81665 
L 645.736667 435.81665 
L 644.6 408.137447 
L 643.463333 408.137447 
L 642.326667 408.137447 
L 641.19 408.137447 
L 640.053333 408.137447 
L 638.916667 408.137447 
L 637.78 408.137447 
L 636.643333 408.137447 
L 635.506667 408.137447 
L 634.37 408.137447 
L 633.233333 408.137447 
L 632.096667 408.137447 
L 630.96 408.137447 
L 629.823333 373.265776 
L 628.686667 373.265776 
L 627.55 373.265776 
L 626.413333 388.49874 
L 625.276667 388.49874 
L 624.14 367.452451 
L 623.003333 354.774412 
L 621.866667 336.597545 
L 620.73 336.597545 
L 619.593333 333.988362 
L 618.456667 333.988362 
L 617.32 333.988362 
L 616.183333 333.988362 
L 615.046667 326.710615 
L 613.91 326.710615 
L 612.773333 325.947866 
L 611.636667 319.441487 
L 610.5 312.87245 
L 609.363333 278.251755 
L 608.226667 271.779671 
L 607.09 268.432662 
L 605.953333 265.242113 
L 604.816667 254.585508 
L 603.68 247.740582 
L 602.543333 238.08442 
L 601.406667 231.883309 
L 600.27 227.981372 
L 599.133333 226.023171 
L 597.996667 222.935269 
L 596.86 219.50084 
L 595.723333 216.688599 
L 594.586667 216.688599 
L 593.45 216.688599 
L 592.313333 210.825313 
L 591.176667 210.825313 
L 590.04 210.825313 
L 588.903333 210.825313 
L 587.766667 210.405218 
L 586.63 210.405218 
L 585.493333 212.676207 
L 584.356667 210.405218 
L 583.22 210.405218 
L 582.083333 210.405218 
L 580.946667 202.132448 
L 579.81 199.941929 
L 578.673333 199.941929 
L 577.536667 193.65365 
L 576.4 193.65365 
L 575.263333 193.65365 
L 574.126667 193.65365 
L 572.99 193.65365 
L 571.853333 190.245001 
L 570.716667 172.74347 
L 569.58 169.6775 
L 568.443333 169.6775 
L 567.306667 168.157052 
L 566.17 164.855023 
L 565.033333 163.718425 
L 563.896667 164.855023 
L 562.76 163.718425 
L 561.623333 161.773809 
L 560.486667 161.773809 
L 559.35 157.978465 
L 558.213333 157.978465 
L 557.076667 157.978465 
L 555.94 150.967587 
L 554.803333 150.909166 
L 553.666667 137.056538 
L 552.53 137.056538 
L 551.393333 146.719101 
L 550.256667 146.719101 
L 549.12 146.719101 
L 547.983333 146.719101 
L 546.846667 146.719101 
L 545.71 147.325907 
L 544.573333 147.325907 
L 543.436667 147.325907 
L 542.3 147.325907 
L 541.163333 147.325907 
L 540.026667 157.462279 
L 538.89 162.531172 
L 537.753333 162.531172 
L 536.616667 162.531172 
L 535.48 165.142154 
L 534.343333 165.142154 
L 533.206667 165.142154 
L 532.07 166.449402 
L 530.933333 171.232586 
L 529.796667 171.232586 
L 528.66 171.232586 
L 527.523333 171.232586 
L 526.386667 171.232586 
L 525.25 171.232586 
L 524.113333 161.228229 
L 522.976667 161.160337 
L 521.84 170.372908 
L 520.703333 170.372908 
L 519.566667 162.392843 
L 518.43 162.392843 
L 517.293333 170.372908 
L 516.156667 170.372908 
L 515.02 170.450615 
L 513.883333 170.450615 
L 512.746667 170.450615 
L 511.61 170.450615 
L 510.473333 170.450615 
L 509.336667 170.450615 
L 508.2 172.103228 
L 507.063333 174.618337 
L 505.926667 174.618337 
L 504.79 174.618337 
L 503.653333 174.618337 
L 502.516667 174.618337 
L 501.38 161.500474 
L 500.243333 161.500474 
L 499.106667 161.773809 
L 497.97 161.773809 
L 496.833333 161.773809 
L 495.696667 161.773809 
L 494.56 157.59096 
L 493.423333 157.59096 
L 492.286667 151.849961 
L 491.15 151.613544 
L 490.013333 151.613544 
L 488.876667 150.559684 
L 487.74 150.559684 
L 486.603333 150.559684 
L 485.466667 150.559684 
L 484.33 150.559684 
L 483.193333 149.236337 
L 482.056667 149.236337 
L 480.92 149.236337 
L 479.783333 149.236337 
L 478.646667 146.609349 
L 477.51 149.236337 
L 476.373333 149.236337 
L 475.236667 149.236337 
L 474.1 146.609349 
L 472.963333 146.609349 
L 471.826667 146.609349 
L 470.69 146.609349 
L 469.553333 146.609349 
L 468.416667 146.55454 
L 467.28 142.979064 
L 466.143333 146.55454 
L 465.006667 138.648101 
L 463.87 138.648101 
L 462.733333 138.648101 
L 461.596667 134.254558 
L 460.46 138.648101 
L 459.323333 129.868836 
L 458.186667 138.648101 
L 457.05 148.612387 
L 455.913333 148.612387 
L 454.776667 149.636386 
L 453.64 149.636386 
L 452.503333 154.876401 
L 451.366667 160.350857 
L 450.23 168.685365 
L 449.093333 175.282725 
L 447.956667 175.282725 
L 446.82 177.315589 
L 445.683333 177.315589 
L 444.546667 182.308489 
L 443.41 182.308489 
L 442.273333 182.308489 
L 441.136667 182.308489 
L 440 182.308489 
L 438.863333 182.123738 
L 437.726667 182.123738 
L 436.59 175.785294 
L 435.453333 182.308489 
L 434.316667 182.308489 
L 433.18 172.823924 
L 432.043333 173.55231 
L 430.906667 171.944101 
L 429.77 171.944101 
L 428.633333 168.382971 
L 427.496667 166.010865 
L 426.36 166.376116 
L 425.223333 166.376116 
L 424.086667 166.376116 
L 422.95 162.531172 
L 421.813333 162.531172 
L 420.676667 159.154356 
L 419.54 159.154356 
L 418.403333 162.600442 
L 417.266667 173.715235 
L 416.13 184.469856 
L 414.993333 184.469856 
L 413.856667 188.907431 
L 412.72 189.111513 
L 411.583333 190.976236 
L 410.446667 189.111513 
L 409.31 189.111513 
L 408.173333 189.111513 
L 407.036667 189.111513 
L 405.9 189.111513 
L 404.763333 191.821637 
L 403.626667 191.821637 
L 402.49 191.821637 
L 401.353333 201.028403 
L 400.216667 191.821637 
L 399.08 191.821637 
L 397.943333 175.785294 
L 396.806667 175.11602 
L 395.67 175.11602 
L 394.533333 184.565399 
L 393.396667 201.150196 
L 392.26 213.255958 
L 391.123333 214.72725 
L 389.986667 217.458227 
L 388.85 232.459391 
L 387.713333 245.37002 
L 386.576667 261.896595 
L 385.44 261.896595 
L 384.303333 261.896595 
L 383.166667 262.492803 
L 382.03 268.106812 
L 380.893333 269.089064 
L 379.756667 269.089064 
L 378.62 279.010266 
L 377.483333 279.010266 
L 376.346667 279.010266 
L 375.21 279.010266 
L 374.073333 282.93464 
L 372.936667 287.09845 
L 371.8 291.532821 
L 370.663333 297.764858 
L 369.526667 312.87245 
L 368.39 312.87245 
L 367.253333 312.87245 
L 366.116667 312.87245 
L 364.98 312.87245 
L 363.843333 318.755398 
L 362.706667 318.755398 
L 361.57 318.755398 
L 360.433333 318.755398 
L 359.296667 319.441487 
L 358.16 319.441487 
L 357.023333 326.710615 
L 355.886667 333.988362 
L 354.75 333.988362 
L 353.613333 334.847057 
L 352.476667 334.847057 
L 351.34 334.847057 
L 350.203333 344.086176 
L 349.066667 344.086176 
L 347.93 355.941369 
L 346.793333 381.306272 
L 345.656667 383.0346 
L 344.52 383.0346 
L 343.383333 383.0346 
L 342.246667 400.944978 
L 341.11 400.944978 
L 339.973333 400.944978 
L 338.836667 400.944978 
L 337.7 400.944978 
L 336.563333 400.944978 
L 335.426667 403.259278 
L 334.29 403.259278 
L 333.153333 428.624181 
L 332.016667 428.624181 
L 330.88 428.624181 
L 329.743333 428.624181 
L 328.606667 428.624181 
L 327.47 428.624181 
L 326.333333 403.259278 
L 325.196667 403.259278 
L 324.06 400.944978 
L 322.923333 400.944978 
L 321.786667 403.259278 
L 320.65 403.259278 
L 319.513333 400.944978 
L 318.376667 403.259278 
L 317.24 403.259278 
L 316.103333 403.259278 
L 314.966667 403.259278 
L 313.83 403.259278 
L 312.693333 403.259278 
L 311.556667 403.259278 
L 310.42 403.259278 
L 309.283333 400.944978 
L 308.146667 400.944978 
L 307.01 368.860033 
L 305.873333 367.452451 
L 304.736667 367.452451 
L 303.6 381.306272 
L 302.463333 381.306272 
L 301.326667 381.306272 
L 300.19 381.306272 
L 299.053333 381.306272 
L 297.916667 381.306272 
L 296.78 381.306272 
L 295.643333 381.306272 
L 294.506667 381.306272 
L 293.37 381.306272 
L 292.233333 381.306272 
L 291.096667 381.306272 
L 289.96 381.306272 
L 288.823333 381.306272 
L 287.686667 383.0346 
L 286.55 368.860033 
L 285.413333 366.073307 
L 284.276667 366.073307 
L 283.14 367.452451 
L 282.003333 367.452451 
L 280.866667 367.452451 
L 279.73 367.452451 
L 278.593333 383.0346 
L 277.456667 400.944978 
L 276.32 400.944978 
L 275.183333 403.259278 
L 274.046667 403.259278 
L 272.91 403.259278 
L 271.773333 403.259278 
L 270.636667 403.259278 
L 269.5 432.125734 
L 268.363333 432.125734 
L 267.226667 403.259278 
L 266.09 403.259278 
L 264.953333 403.259278 
L 263.816667 403.259278 
L 262.68 383.0346 
L 261.543333 381.306272 
L 260.406667 381.306272 
L 259.27 367.452451 
L 258.133333 354.774412 
L 256.996667 354.774412 
L 255.86 366.073307 
L 254.723333 366.073307 
L 253.586667 366.073307 
L 252.45 367.452451 
L 251.313333 381.306272 
L 250.176667 381.306272 
L 249.04 383.0346 
L 247.903333 383.0346 
L 246.766667 383.0346 
L 245.63 403.259278 
L 244.493333 428.624181 
L 243.356667 428.624181 
L 242.22 428.624181 
L 241.083333 428.624181 
L 239.946667 428.624181 
L 238.81 428.624181 
L 237.673333 428.624181 
L 236.536667 428.624181 
L 235.4 428.624181 
L 234.263333 428.624181 
L 233.126667 428.624181 
L 231.99 428.624181 
L 230.853333 428.624181 
L 229.716667 428.624181 
L 228.58 428.624181 
L 227.443333 428.624181 
L 226.306667 428.624181 
L 225.17 403.259278 
L 224.033333 403.259278 
L 222.896667 403.259278 
L 221.76 403.259278 
L 220.623333 400.944978 
L 219.486667 400.944978 
L 218.35 400.944978 
L 217.213333 368.860033 
L 216.076667 403.259278 
L 214.94 403.259278 
L 213.803333 403.259278 
L 212.666667 368.860033 
L 211.53 370.297251 
L 210.393333 367.452451 
L 209.256667 384.807824 
L 208.12 428.624181 
L 206.983333 428.624181 
L 205.846667 428.624181 
L 204.71 428.624181 
L 203.573333 428.624181 
L 202.436667 428.624181 
L 201.3 428.624181 
L 200.163333 428.624181 
L 199.026667 428.624181 
L 197.89 428.624181 
L 196.753333 428.624181 
L 195.616667 428.624181 
L 194.48 428.624181 
L 193.343333 432.125734 
L 192.206667 432.125734 
L 191.07 432.125734 
L 189.933333 432.125734 
L 188.796667 475.942091 
L 187.66 475.942091 
L 186.523333 475.942091 
L 185.386667 475.942091 
L 184.25 475.942091 
L 183.113333 475.942091 
L 181.976667 475.942091 
L 180.84 475.942091 
L 179.703333 475.942091 
L 178.566667 475.942091 
L 177.43 432.125734 
L 176.293333 428.624181 
L 175.156667 428.624181 
L 174.02 432.125734 
L 172.883333 403.259278 
L 171.746667 383.0346 
L 170.61 383.0346 
L 169.473333 381.306272 
L 168.336667 381.306272 
L 167.2 384.807824 
L 166.063333 381.306272 
L 164.926667 384.807824 
L 163.79 384.807824 
L 162.653333 384.807824 
L 161.516667 384.807824 
L 160.38 384.807824 
L 159.243333 384.807824 
L 158.106667 381.306272 
L 156.97 381.306272 
L 155.833333 381.306272 
L 154.696667 381.306272 
L 153.56 381.306272 
L 152.423333 367.452451 
L 151.286667 345.082768 
L 150.15 327.481983 
L 149.013333 325.947866 
L 147.876667 313.501628 
L 146.74 288.837788 
L 145.603333 288.837788 
L 144.466667 269.751839 
L 143.33 269.419647 
L 142.193333 262.492803 
L 141.056667 249.698145 
L 139.92 249.698145 
L 138.783333 249.450357 
L 137.646667 251.713503 
L 136.51 254.054257 
L 135.373333 251.204058 
L 134.236667 251.204058 
L 133.1 254.054257 
L 131.963333 259.276283 
L 130.826667 262.492803 
L 129.69 268.432662 
L 128.553333 271.437488 
L 127.416667 271.437488 
L 126.28 276.025515 
L 125.143333 345.082768 
L 124.006667 367.452451 
L 122.87 383.0346 
L 121.733333 400.944978 
L 120.596667 400.944978 
L 119.46 400.944978 
L 118.323333 403.259278 
L 117.186667 432.125734 
L 116.05 483.134559 
L 114.913333 157662.634912 
L 113.776667 157662.634912 
L 112.64 157662.634912 
L 111.503333 157662.634912 
L 110.366667 157662.634912 
L 109.23 157662.634912 
L 108.093333 157662.634912 
L 106.956667 157662.634912 
L 105.82 157662.634912 
L 104.683333 157662.634912 
L 103.546667 157662.634912 
L 102.41 157662.634912 
L 101.273333 157662.634912 
L 100.136667 157662.634912 
L 99 157662.634912 
z
" style="fill:#8080ff;fill-opacity:0.5;stroke:#8080ff;stroke-opacity:0.5;"/>
   </g>
   <g id="PolyCollection_2">
    <path clip-path="url(#p68e2955192)" d="M 99 157662.634912 
L 99 157662.634912 
L 100.136667 157662.634912 
L 101.273333 157662.634912 
L 102.41 157662.634912 
L 103.546667 157662.634912 
L 104.683333 157662.634912 
L 105.82 157662.634912 
L 106.956667 157662.634912 
L 108.093333 157662.634912 
L 109.23 157662.634912 
L 110.366667 157662.634912 
L 111.503333 157662.634912 
L 112.64 157662.634912 
L 113.776667 157662.634912 
L 114.913333 157662.634912 
L 116.05 157662.634912 
L 117.186667 157662.634912 
L 118.323333 452.972708 
L 119.46 439.718587 
L 120.596667 439.718587 
L 121.733333 439.718587 
L 122.87 428.624181 
L 124.006667 428.624181 
L 125.143333 428.624181 
L 126.28 428.624181 
L 127.416667 408.137447 
L 128.553333 408.137447 
L 129.69 408.137447 
L 130.826667 400.944978 
L 131.963333 400.944978 
L 133.1 400.944978 
L 134.236667 408.137447 
L 135.373333 408.137447 
L 136.51 408.137447 
L 137.646667 408.137447 
L 138.783333 408.137447 
L 139.92 408.137447 
L 141.056667 408.137447 
L 142.193333 408.137447 
L 143.33 428.624181 
L 144.466667 408.137447 
L 145.603333 408.137447 
L 146.74 428.624181 
L 147.876667 428.624181 
L 149.013333 428.624181 
L 150.15 428.624181 
L 151.286667 428.624181 
L 152.423333 408.137447 
L 153.56 408.137447 
L 154.696667 408.137447 
L 155.833333 408.137447 
L 156.97 408.137447 
L 158.106667 408.137447 
L 159.243333 408.137447 
L 160.38 428.624181 
L 161.516667 428.624181 
L 162.653333 428.624181 
L 163.79 428.624181 
L 164.926667 428.624181 
L 166.063333 428.624181 
L 167.2 428.624181 
L 168.336667 428.624181 
L 169.473333 428.624181 
L 170.61 439.718587 
L 171.746667 439.718587 
L 172.883333 439.718587 
L 174.02 439.718587 
L 175.156667 439.718587 
L 176.293333 475.942091 
L 177.43 475.942091 
L 178.566667 500.290617 
L 179.703333 500.290617 
L 180.84 500.290617 
L 181.976667 500.290617 
L 183.113333 500.290617 
L 184.25 157662.634912 
L 185.386667 157662.634912 
L 186.523333 157662.634912 
L 187.66 157662.634912 
L 188.796667 157662.634912 
L 189.933333 157662.634912 
L 191.07 157662.634912 
L 192.206667 500.290617 
L 193.343333 500.290617 
L 194.48 500.290617 
L 195.616667 157662.634912 
L 196.753333 157662.634912 
L 197.89 157662.634912 
L 199.026667 157662.634912 
L 200.163333 157662.634912 
L 201.3 157662.634912 
L 202.436667 157662.634912 
L 203.573333 157662.634912 
L 204.71 157662.634912 
L 205.846667 157662.634912 
L 206.983333 157662.634912 
L 208.12 157662.634912 
L 209.256667 157662.634912 
L 210.393333 157662.634912 
L 211.53 157662.634912 
L 212.666667 157662.634912 
L 213.803333 157662.634912 
L 214.94 157662.634912 
L 216.076667 157662.634912 
L 217.213333 157662.634912 
L 218.35 157662.634912 
L 219.486667 157662.634912 
L 220.623333 157662.634912 
L 221.76 157662.634912 
L 222.896667 157662.634912 
L 224.033333 157662.634912 
L 225.17 157662.634912 
L 226.306667 157662.634912 
L 227.443333 157662.634912 
L 228.58 157662.634912 
L 229.716667 157662.634912 
L 230.853333 157662.634912 
L 231.99 157662.634912 
L 233.126667 157662.634912 
L 234.263333 157662.634912 
L 235.4 157662.634912 
L 236.536667 157662.634912 
L 237.673333 157662.634912 
L 238.81 157662.634912 
L 239.946667 157662.634912 
L 241.083333 157662.634912 
L 242.22 157662.634912 
L 243.356667 157662.634912 
L 244.493333 157662.634912 
L 245.63 157662.634912 
L 246.766667 157662.634912 
L 247.903333 157662.634912 
L 249.04 157662.634912 
L 250.176667 157662.634912 
L 251.313333 157662.634912 
L 252.45 157662.634912 
L 253.586667 157662.634912 
L 254.723333 157662.634912 
L 255.86 157662.634912 
L 256.996667 157662.634912 
L 258.133333 157662.634912 
L 259.27 157662.634912 
L 260.406667 157662.634912 
L 261.543333 157662.634912 
L 262.68 157662.634912 
L 263.816667 157662.634912 
L 264.953333 157662.634912 
L 266.09 157662.634912 
L 267.226667 157662.634912 
L 268.363333 157662.634912 
L 269.5 157662.634912 
L 270.636667 157662.634912 
L 271.773333 500.290617 
L 272.91 500.290617 
L 274.046667 500.290617 
L 275.183333 500.290617 
L 276.32 500.290617 
L 277.456667 500.290617 
L 278.593333 500.290617 
L 279.73 157662.634912 
L 280.866667 157662.634912 
L 282.003333 157662.634912 
L 283.14 157662.634912 
L 284.276667 157662.634912 
L 285.413333 157662.634912 
L 286.55 157662.634912 
L 287.686667 157662.634912 
L 288.823333 157662.634912 
L 289.96 157662.634912 
L 291.096667 157662.634912 
L 292.233333 157662.634912 
L 293.37 157662.634912 
L 294.506667 157662.634912 
L 295.643333 157662.634912 
L 296.78 157662.634912 
L 297.916667 157662.634912 
L 299.053333 157662.634912 
L 300.19 157662.634912 
L 301.326667 157662.634912 
L 302.463333 157662.634912 
L 303.6 157662.634912 
L 304.736667 157662.634912 
L 305.873333 157662.634912 
L 307.01 157662.634912 
L 308.146667 157662.634912 
L 309.283333 157662.634912 
L 310.42 157662.634912 
L 311.556667 157662.634912 
L 312.693333 157662.634912 
L 313.83 157662.634912 
L 314.966667 157662.634912 
L 316.103333 157662.634912 
L 317.24 157662.634912 
L 318.376667 157662.634912 
L 319.513333 157662.634912 
L 320.65 157662.634912 
L 321.786667 157662.634912 
L 322.923333 157662.634912 
L 324.06 157662.634912 
L 325.196667 157662.634912 
L 326.333333 157662.634912 
L 327.47 157662.634912 
L 328.606667 157662.634912 
L 329.743333 157662.634912 
L 330.88 157662.634912 
L 332.016667 157662.634912 
L 333.153333 157662.634912 
L 334.29 157662.634912 
L 335.426667 157662.634912 
L 336.563333 157662.634912 
L 337.7 157662.634912 
L 338.836667 157662.634912 
L 339.973333 157662.634912 
L 341.11 157662.634912 
L 342.246667 157662.634912 
L 343.383333 157662.634912 
L 344.52 157662.634912 
L 345.656667 157662.634912 
L 346.793333 157662.634912 
L 347.93 157662.634912 
L 349.066667 157662.634912 
L 350.203333 157662.634912 
L 351.34 157662.634912 
L 352.476667 157662.634912 
L 353.613333 157662.634912 
L 354.75 157662.634912 
L 355.886667 157662.634912 
L 357.023333 157662.634912 
L 358.16 157662.634912 
L 359.296667 157662.634912 
L 360.433333 157662.634912 
L 361.57 157662.634912 
L 362.706667 157662.634912 
L 363.843333 157662.634912 
L 364.98 157662.634912 
L 366.116667 157662.634912 
L 367.253333 157662.634912 
L 368.39 157662.634912 
L 369.526667 157662.634912 
L 370.663333 157662.634912 
L 371.8 157662.634912 
L 372.936667 157662.634912 
L 374.073333 157662.634912 
L 375.21 157662.634912 
L 376.346667 157662.634912 
L 377.483333 157662.634912 
L 378.62 157662.634912 
L 379.756667 157662.634912 
L 380.893333 157662.634912 
L 382.03 157662.634912 
L 383.166667 157662.634912 
L 384.303333 157662.634912 
L 385.44 157662.634912 
L 386.576667 157662.634912 
L 387.713333 157662.634912 
L 388.85 157662.634912 
L 389.986667 500.290617 
L 391.123333 475.942091 
L 392.26 475.942091 
L 393.396667 475.942091 
L 394.533333 475.942091 
L 395.67 475.942091 
L 396.806667 475.942091 
L 397.943333 475.942091 
L 399.08 475.942091 
L 400.216667 475.942091 
L 401.353333 475.942091 
L 402.49 475.942091 
L 403.626667 439.718587 
L 404.763333 408.137447 
L 405.9 408.137447 
L 407.036667 408.137447 
L 408.173333 408.137447 
L 409.31 408.137447 
L 410.446667 408.137447 
L 411.583333 408.137447 
L 412.72 400.944978 
L 413.856667 400.944978 
L 414.993333 400.944978 
L 416.13 386.628341 
L 417.266667 386.628341 
L 418.403333 386.628341 
L 419.54 386.628341 
L 420.676667 381.306272 
L 421.813333 381.306272 
L 422.95 381.306272 
L 424.086667 381.306272 
L 425.223333 381.306272 
L 426.36 381.306272 
L 427.496667 381.306272 
L 428.633333 381.306272 
L 429.77 370.297251 
L 430.906667 370.297251 
L 432.043333 370.297251 
L 433.18 370.297251 
L 434.316667 366.073307 
L 435.453333 366.073307 
L 436.59 366.073307 
L 437.726667 370.297251 
L 438.863333 370.297251 
L 440 370.297251 
L 441.136667 370.297251 
L 442.273333 370.297251 
L 443.41 370.297251 
L 444.546667 366.073307 
L 445.683333 370.297251 
L 446.82 370.297251 
L 447.956667 370.297251 
L 449.093333 370.297251 
L 450.23 381.306272 
L 451.366667 381.306272 
L 452.503333 381.306272 
L 453.64 386.628341 
L 454.776667 381.306272 
L 455.913333 381.306272 
L 457.05 381.306272 
L 458.186667 381.306272 
L 459.323333 386.628341 
L 460.46 400.944978 
L 461.596667 408.137447 
L 462.733333 408.137447 
L 463.87 408.137447 
L 465.006667 408.137447 
L 466.143333 408.137447 
L 467.28 408.137447 
L 468.416667 408.137447 
L 469.553333 408.137447 
L 470.69 439.718587 
L 471.826667 439.718587 
L 472.963333 439.718587 
L 474.1 439.718587 
L 475.236667 439.718587 
L 476.373333 439.718587 
L 477.51 416.177943 
L 478.646667 439.718587 
L 479.783333 439.718587 
L 480.92 439.718587 
L 482.056667 439.718587 
L 483.193333 439.718587 
L 484.33 408.137447 
L 485.466667 408.137447 
L 486.603333 408.137447 
L 487.74 408.137447 
L 488.876667 408.137447 
L 490.013333 408.137447 
L 491.15 408.137447 
L 492.286667 408.137447 
L 493.423333 439.718587 
L 494.56 439.718587 
L 495.696667 439.718587 
L 496.833333 408.137447 
L 497.97 408.137447 
L 499.106667 408.137447 
L 500.243333 439.718587 
L 501.38 428.624181 
L 502.516667 428.624181 
L 503.653333 428.624181 
L 504.79 428.624181 
L 505.926667 428.624181 
L 507.063333 428.624181 
L 508.2 428.624181 
L 509.336667 428.624181 
L 510.473333 428.624181 
L 511.61 428.624181 
L 512.746667 439.718587 
L 513.883333 439.718587 
L 515.02 439.718587 
L 516.156667 428.624181 
L 517.293333 439.718587 
L 518.43 475.942091 
L 519.566667 475.942091 
L 520.703333 439.718587 
L 521.84 439.718587 
L 522.976667 439.718587 
L 524.113333 439.718587 
L 525.25 428.624181 
L 526.386667 428.624181 
L 527.523333 428.624181 
L 528.66 428.624181 
L 529.796667 428.624181 
L 530.933333 428.624181 
L 532.07 428.624181 
L 533.206667 428.624181 
L 534.343333 428.624181 
L 535.48 428.624181 
L 536.616667 428.624181 
L 537.753333 428.624181 
L 538.89 428.624181 
L 540.026667 428.624181 
L 541.163333 428.624181 
L 542.3 428.624181 
L 543.436667 428.624181 
L 544.573333 439.718587 
L 545.71 439.718587 
L 546.846667 439.718587 
L 547.983333 439.718587 
L 549.12 475.942091 
L 550.256667 475.942091 
L 551.393333 475.942091 
L 552.53 475.942091 
L 553.666667 475.942091 
L 554.803333 439.718587 
L 555.94 439.718587 
L 557.076667 439.718587 
L 558.213333 408.137447 
L 559.35 408.137447 
L 560.486667 408.137447 
L 561.623333 408.137447 
L 562.76 408.137447 
L 563.896667 408.137447 
L 565.033333 408.137447 
L 566.17 408.137447 
L 567.306667 408.137447 
L 568.443333 408.137447 
L 569.58 408.137447 
L 570.716667 408.137447 
L 571.853333 408.137447 
L 572.99 439.718587 
L 574.126667 475.942091 
L 575.263333 475.942091 
L 576.4 475.942091 
L 577.536667 475.942091 
L 578.673333 475.942091 
L 579.81 475.942091 
L 580.946667 475.942091 
L 582.083333 475.942091 
L 583.22 475.942091 
L 584.356667 475.942091 
L 585.493333 475.942091 
L 586.63 475.942091 
L 587.766667 475.942091 
L 588.903333 475.942091 
L 590.04 475.942091 
L 591.176667 475.942091 
L 592.313333 475.942091 
L 593.45 475.942091 
L 594.586667 475.942091 
L 595.723333 439.718587 
L 596.86 439.718587 
L 597.996667 439.718587 
L 599.133333 439.718587 
L 600.27 439.718587 
L 601.406667 439.718587 
L 602.543333 439.718587 
L 603.68 475.942091 
L 604.816667 500.290617 
L 605.953333 500.290617 
L 607.09 500.290617 
L 608.226667 500.290617 
L 609.363333 500.290617 
L 610.5 500.290617 
L 611.636667 157662.634912 
L 612.773333 157662.634912 
L 613.91 157662.634912 
L 615.046667 157662.634912 
L 616.183333 157662.634912 
L 617.32 157662.634912 
L 618.456667 157662.634912 
L 619.593333 157662.634912 
L 620.73 157662.634912 
L 621.866667 157662.634912 
L 623.003333 157662.634912 
L 624.14 157662.634912 
L 625.276667 157662.634912 
L 626.413333 157662.634912 
L 627.55 157662.634912 
L 628.686667 157662.634912 
L 629.823333 157662.634912 
L 630.96 157662.634912 
L 632.096667 157662.634912 
L 633.233333 157662.634912 
L 634.37 157662.634912 
L 635.506667 157662.634912 
L 636.643333 157662.634912 
L 637.78 157662.634912 
L 638.916667 157662.634912 
L 640.053333 157662.634912 
L 641.19 157662.634912 
L 642.326667 157662.634912 
L 643.463333 157662.634912 
L 644.6 157662.634912 
L 645.736667 157662.634912 
L 646.873333 500.290617 
L 648.01 500.290617 
L 649.146667 500.290617 
L 650.283333 500.290617 
L 651.42 500.290617 
L 652.556667 500.290617 
L 653.693333 500.290617 
L 654.83 500.290617 
L 655.966667 500.290617 
L 657.103333 500.290617 
L 658.24 500.290617 
L 659.376667 500.290617 
L 660.513333 500.290617 
L 661.65 157662.634912 
L 662.786667 157662.634912 
L 663.923333 157662.634912 
L 665.06 157662.634912 
L 666.196667 157662.634912 
L 667.333333 157662.634912 
L 668.47 157662.634912 
L 669.606667 157662.634912 
L 670.743333 157662.634912 
L 671.88 157662.634912 
L 673.016667 157662.634912 
L 674.153333 157662.634912 
L 675.29 157662.634912 
L 676.426667 157662.634912 
L 677.563333 157662.634912 
L 678.7 500.290617 
L 679.836667 500.290617 
L 680.973333 500.290617 
L 682.11 157662.634912 
L 683.246667 157662.634912 
L 684.383333 157662.634912 
L 685.52 157662.634912 
L 686.656667 157662.634912 
L 687.793333 157662.634912 
L 688.93 157662.634912 
L 690.066667 500.290617 
L 691.203333 475.942091 
L 692.34 475.942091 
L 693.476667 475.942091 
L 694.613333 475.942091 
L 695.75 475.942091 
L 696.886667 475.942091 
L 698.023333 475.942091 
L 699.16 475.942091 
L 700.296667 439.718587 
L 701.433333 439.718587 
L 702.57 428.624181 
L 703.706667 428.624181 
L 704.843333 428.624181 
L 705.98 439.718587 
L 707.116667 439.718587 
L 708.253333 439.718587 
L 709.39 428.624181 
L 710.526667 428.624181 
L 711.663333 428.624181 
L 712.8 428.624181 
L 712.8 157662.634912 
L 712.8 157662.634912 
L 711.663333 157662.634912 
L 710.526667 157662.634912 
L 709.39 157662.634912 
L 708.253333 157662.634912 
L 707.116667 157662.634912 
L 705.98 157662.634912 
L 704.843333 157662.634912 
L 703.706667 157662.634912 
L 702.57 157662.634912 
L 701.433333 157662.634912 
L 700.296667 157662.634912 
L 699.16 157662.634912 
L 698.023333 157662.634912 
L 696.886667 157662.634912 
L 695.75 157662.634912 
L 694.613333 157662.634912 
L 693.476667 157662.634912 
L 692.34 157662.634912 
L 691.203333 157662.634912 
L 690.066667 157662.634912 
L 688.93 157662.634912 
L 687.793333 157662.634912 
L 686.656667 157662.634912 
L 685.52 157662.634912 
L 684.383333 157662.634912 
L 683.246667 157662.634912 
L 682.11 157662.634912 
L 680.973333 157662.634912 
L 679.836667 157662.634912 
L 678.7 157662.634912 
L 677.563333 157662.634912 
L 676.426667 157662.634912 
L 675.29 157662.634912 
L 674.153333 157662.634912 
L 673.016667 157662.634912 
L 671.88 157662.634912 
L 670.743333 157662.634912 
L 669.606667 157662.634912 
L 668.47 157662.634912 
L 667.333333 157662.634912 
L 666.196667 157662.634912 
L 665.06 157662.634912 
L 663.923333 157662.634912 
L 662.786667 157662.634912 
L 661.65 157662.634912 
L 660.513333 157662.634912 
L 659.376667 157662.634912 
L 658.24 157662.634912 
L 657.103333 157662.634912 
L 655.966667 157662.634912 
L 654.83 157662.634912 
L 653.693333 157662.634912 
L 652.556667 157662.634912 
L 651.42 157662.634912 
L 650.283333 157662.634912 
L 649.146667 157662.634912 
L 648.01 157662.634912 
L 646.873333 157662.634912 
L 645.736667 157662.634912 
L 644.6 157662.634912 
L 643.463333 157662.634912 
L 642.326667 157662.634912 
L 641.19 157662.634912 
L 640.053333 157662.634912 
L 638.916667 157662.634912 
L 637.78 157662.634912 
L 636.643333 157662.634912 
L 635.506667 157662.634912 
L 634.37 157662.634912 
L 633.233333 157662.634912 
L 632.096667 157662.634912 
L 630.96 157662.634912 
L 629.823333 157662.634912 
L 628.686667 157662.634912 
L 627.55 157662.634912 
L 626.413333 157662.634912 
L 625.276667 157662.634912 
L 624.14 157662.634912 
L 623.003333 157662.634912 
L 621.866667 157662.634912 
L 620.73 157662.634912 
L 619.593333 157662.634912 
L 618.456667 157662.634912 
L 617.32 157662.634912 
L 616.183333 157662.634912 
L 615.046667 157662.634912 
L 613.91 157662.634912 
L 612.773333 157662.634912 
L 611.636667 157662.634912 
L 610.5 157662.634912 
L 609.363333 157662.634912 
L 608.226667 157662.634912 
L 607.09 157662.634912 
L 605.953333 157662.634912 
L 604.816667 157662.634912 
L 603.68 157662.634912 
L 602.543333 157662.634912 
L 601.406667 157662.634912 
L 600.27 157662.634912 
L 599.133333 157662.634912 
L 597.996667 157662.634912 
L 596.86 157662.634912 
L 595.723333 157662.634912 
L 594.586667 157662.634912 
L 593.45 157662.634912 
L 592.313333 157662.634912 
L 591.176667 157662.634912 
L 590.04 157662.634912 
L 588.903333 157662.634912 
L 587.766667 157662.634912 
L 586.63 157662.634912 
L 585.493333 157662.634912 
L 584.356667 157662.634912 
L 583.22 157662.634912 
L 582.083333 157662.634912 
L 580.946667 157662.634912 
L 579.81 157662.634912 
L 578.673333 157662.634912 
L 577.536667 157662.634912 
L 576.4 157662.634912 
L 575.263333 157662.634912 
L 574.126667 157662.634912 
L 572.99 157662.634912 
L 571.853333 157662.634912 
L 570.716667 157662.634912 
L 569.58 157662.634912 
L 568.443333 157662.634912 
L 567.306667 157662.634912 
L 566.17 157662.634912 
L 565.033333 157662.634912 
L 563.896667 157662.634912 
L 562.76 157662.634912 
L 561.623333 157662.634912 
L 560.486667 157662.634912 
L 559.35 157662.634912 
L 558.213333 157662.634912 
L 557.076667 157662.634912 
L 555.94 157662.634912 
L 554.803333 157662.634912 
L 553.666667 157662.634912 
L 552.53 157662.634912 
L 551.393333 157662.634912 
L 550.256667 157662.634912 
L 549.12 157662.634912 
L 547.983333 157662.634912 
L 546.846667 157662.634912 
L 545.71 157662.634912 
L 544.573333 157662.634912 
L 543.436667 157662.634912 
L 542.3 157662.634912 
L 541.163333 157662.634912 
L 540.026667 157662.634912 
L 538.89 157662.634912 
L 537.753333 157662.634912 
L 536.616667 157662.634912 
L 535.48 157662.634912 
L 534.343333 157662.634912 
L 533.206667 157662.634912 
L 532.07 157662.634912 
L 530.933333 157662.634912 
L 529.796667 157662.634912 
L 528.66 157662.634912 
L 527.523333 157662.634912 
L 526.386667 157662.634912 
L 525.25 157662.634912 
L 524.113333 157662.634912 
L 522.976667 157662.634912 
L 521.84 157662.634912 
L 520.703333 157662.634912 
L 519.566667 157662.634912 
L 518.43 157662.634912 
L 517.293333 157662.634912 
L 516.156667 157662.634912 
L 515.02 157662.634912 
L 513.883333 157662.634912 
L 512.746667 483.134559 
L 511.61 483.134559 
L 510.473333 483.134559 
L 509.336667 475.942091 
L 508.2 483.134559 
L 507.063333 483.134559 
L 505.926667 483.134559 
L 504.79 483.134559 
L 503.653333 483.134559 
L 502.516667 483.134559 
L 501.38 483.134559 
L 500.243333 483.134559 
L 499.106667 483.134559 
L 497.97 157662.634912 
L 496.833333 157662.634912 
L 495.696667 157662.634912 
L 494.56 157662.634912 
L 493.423333 157662.634912 
L 492.286667 483.134559 
L 491.15 483.134559 
L 490.013333 483.134559 
L 488.876667 475.942091 
L 487.74 475.942091 
L 486.603333 475.942091 
L 485.466667 483.134559 
L 484.33 483.134559 
L 483.193333 157662.634912 
L 482.056667 483.134559 
L 480.92 157662.634912 
L 479.783333 157662.634912 
L 478.646667 483.134559 
L 477.51 483.134559 
L 476.373333 483.134559 
L 475.236667 157662.634912 
L 474.1 157662.634912 
L 472.963333 157662.634912 
L 471.826667 157662.634912 
L 470.69 157662.634912 
L 469.553333 157662.634912 
L 468.416667 157662.634912 
L 467.28 157662.634912 
L 466.143333 157662.634912 
L 465.006667 157662.634912 
L 463.87 157662.634912 
L 462.733333 157662.634912 
L 461.596667 157662.634912 
L 460.46 157662.634912 
L 459.323333 157662.634912 
L 458.186667 157662.634912 
L 457.05 157662.634912 
L 455.913333 483.134559 
L 454.776667 157662.634912 
L 453.64 157662.634912 
L 452.503333 483.134559 
L 451.366667 483.134559 
L 450.23 475.942091 
L 449.093333 475.942091 
L 447.956667 475.942091 
L 446.82 475.942091 
L 445.683333 475.942091 
L 444.546667 475.942091 
L 443.41 475.942091 
L 442.273333 475.942091 
L 441.136667 475.942091 
L 440 475.942091 
L 438.863333 475.942091 
L 437.726667 475.942091 
L 436.59 475.942091 
L 435.453333 475.942091 
L 434.316667 475.942091 
L 433.18 483.134559 
L 432.043333 483.134559 
L 430.906667 475.942091 
L 429.77 475.942091 
L 428.633333 475.942091 
L 427.496667 475.942091 
L 426.36 475.942091 
L 425.223333 475.942091 
L 424.086667 475.942091 
L 422.95 475.942091 
L 421.813333 475.942091 
L 420.676667 475.942091 
L 419.54 475.942091 
L 418.403333 432.125734 
L 417.266667 432.125734 
L 416.13 475.942091 
L 414.993333 475.942091 
L 413.856667 483.134559 
L 412.72 157662.634912 
L 411.583333 157662.634912 
L 410.446667 157662.634912 
L 409.31 157662.634912 
L 408.173333 157662.634912 
L 407.036667 157662.634912 
L 405.9 157662.634912 
L 404.763333 157662.634912 
L 403.626667 157662.634912 
L 402.49 157662.634912 
L 401.353333 157662.634912 
L 400.216667 157662.634912 
L 399.08 157662.634912 
L 397.943333 157662.634912 
L 396.806667 157662.634912 
L 395.67 157662.634912 
L 394.533333 157662.634912 
L 393.396667 157662.634912 
L 392.26 157662.634912 
L 391.123333 157662.634912 
L 389.986667 157662.634912 
L 388.85 157662.634912 
L 387.713333 157662.634912 
L 386.576667 157662.634912 
L 385.44 157662.634912 
L 384.303333 157662.634912 
L 383.166667 157662.634912 
L 382.03 157662.634912 
L 380.893333 157662.634912 
L 379.756667 157662.634912 
L 378.62 157662.634912 
L 377.483333 157662.634912 
L 376.346667 157662.634912 
L 375.21 157662.634912 
L 374.073333 157662.634912 
L 372.936667 157662.634912 
L 371.8 157662.634912 
L 370.663333 157662.634912 
L 369.526667 157662.634912 
L 368.39 157662.634912 
L 367.253333 157662.634912 
L 366.116667 157662.634912 
L 364.98 157662.634912 
L 363.843333 157662.634912 
L 362.706667 157662.634912 
L 361.57 157662.634912 
L 360.433333 157662.634912 
L 359.296667 157662.634912 
L 358.16 157662.634912 
L 357.023333 157662.634912 
L 355.886667 157662.634912 
L 354.75 157662.634912 
L 353.613333 157662.634912 
L 352.476667 157662.634912 
L 351.34 157662.634912 
L 350.203333 157662.634912 
L 349.066667 157662.634912 
L 347.93 157662.634912 
L 346.793333 157662.634912 
L 345.656667 157662.634912 
L 344.52 157662.634912 
L 343.383333 157662.634912 
L 342.246667 157662.634912 
L 341.11 157662.634912 
L 339.973333 157662.634912 
L 338.836667 157662.634912 
L 337.7 157662.634912 
L 336.563333 157662.634912 
L 335.426667 157662.634912 
L 334.29 157662.634912 
L 333.153333 157662.634912 
L 332.016667 157662.634912 
L 330.88 157662.634912 
L 329.743333 157662.634912 
L 328.606667 157662.634912 
L 327.47 157662.634912 
L 326.333333 157662.634912 
L 325.196667 157662.634912 
L 324.06 157662.634912 
L 322.923333 157662.634912 
L 321.786667 157662.634912 
L 320.65 157662.634912 
L 319.513333 157662.634912 
L 318.376667 157662.634912 
L 317.24 157662.634912 
L 316.103333 157662.634912 
L 314.966667 157662.634912 
L 313.83 157662.634912 
L 312.693333 157662.634912 
L 311.556667 157662.634912 
L 310.42 157662.634912 
L 309.283333 157662.634912 
L 308.146667 157662.634912 
L 307.01 157662.634912 
L 305.873333 157662.634912 
L 304.736667 157662.634912 
L 303.6 157662.634912 
L 302.463333 157662.634912 
L 301.326667 157662.634912 
L 300.19 157662.634912 
L 299.053333 157662.634912 
L 297.916667 157662.634912 
L 296.78 157662.634912 
L 295.643333 157662.634912 
L 294.506667 157662.634912 
L 293.37 157662.634912 
L 292.233333 157662.634912 
L 291.096667 157662.634912 
L 289.96 157662.634912 
L 288.823333 157662.634912 
L 287.686667 157662.634912 
L 286.55 157662.634912 
L 285.413333 157662.634912 
L 284.276667 157662.634912 
L 283.14 157662.634912 
L 282.003333 157662.634912 
L 280.866667 157662.634912 
L 279.73 157662.634912 
L 278.593333 157662.634912 
L 277.456667 157662.634912 
L 276.32 157662.634912 
L 275.183333 157662.634912 
L 274.046667 157662.634912 
L 272.91 157662.634912 
L 271.773333 157662.634912 
L 270.636667 157662.634912 
L 269.5 157662.634912 
L 268.363333 157662.634912 
L 267.226667 157662.634912 
L 266.09 157662.634912 
L 264.953333 157662.634912 
L 263.816667 157662.634912 
L 262.68 157662.634912 
L 261.543333 157662.634912 
L 260.406667 157662.634912 
L 259.27 157662.634912 
L 258.133333 157662.634912 
L 256.996667 157662.634912 
L 255.86 157662.634912 
L 254.723333 157662.634912 
L 253.586667 157662.634912 
L 252.45 157662.634912 
L 251.313333 157662.634912 
L 250.176667 157662.634912 
L 249.04 157662.634912 
L 247.903333 157662.634912 
L 246.766667 157662.634912 
L 245.63 157662.634912 
L 244.493333 157662.634912 
L 243.356667 157662.634912 
L 242.22 157662.634912 
L 241.083333 157662.634912 
L 239.946667 157662.634912 
L 238.81 157662.634912 
L 237.673333 157662.634912 
L 236.536667 157662.634912 
L 235.4 157662.634912 
L 234.263333 157662.634912 
L 233.126667 157662.634912 
L 231.99 157662.634912 
L 230.853333 157662.634912 
L 229.716667 157662.634912 
L 228.58 157662.634912 
L 227.443333 157662.634912 
L 226.306667 157662.634912 
L 225.17 157662.634912 
L 224.033333 157662.634912 
L 222.896667 157662.634912 
L 221.76 157662.634912 
L 220.623333 157662.634912 
L 219.486667 157662.634912 
L 218.35 157662.634912 
L 217.213333 157662.634912 
L 216.076667 157662.634912 
L 214.94 157662.634912 
L 213.803333 157662.634912 
L 212.666667 157662.634912 
L 211.53 157662.634912 
L 210.393333 157662.634912 
L 209.256667 157662.634912 
L 208.12 157662.634912 
L 206.983333 157662.634912 
L 205.846667 157662.634912 
L 204.71 157662.634912 
L 203.573333 157662.634912 
L 202.436667 157662.634912 
L 201.3 157662.634912 
L 200.163333 157662.634912 
L 199.026667 157662.634912 
L 197.89 157662.634912 
L 196.753333 157662.634912 
L 195.616667 157662.634912 
L 194.48 157662.634912 
L 193.343333 157662.634912 
L 192.206667 157662.634912 
L 191.07 157662.634912 
L 189.933333 157662.634912 
L 188.796667 157662.634912 
L 187.66 157662.634912 
L 186.523333 157662.634912 
L 185.386667 157662.634912 
L 184.25 157662.634912 
L 183.113333 157662.634912 
L 181.976667 157662.634912 
L 180.84 157662.634912 
L 179.703333 157662.634912 
L 178.566667 157662.634912 
L 177.43 157662.634912 
L 176.293333 157662.634912 
L 175.156667 157662.634912 
L 174.02 157662.634912 
L 172.883333 157662.634912 
L 171.746667 157662.634912 
L 170.61 157662.634912 
L 169.473333 157662.634912 
L 168.336667 157662.634912 
L 167.2 157662.634912 
L 166.063333 157662.634912 
L 164.926667 157662.634912 
L 163.79 483.134559 
L 162.653333 157662.634912 
L 161.516667 157662.634912 
L 160.38 157662.634912 
L 159.243333 157662.634912 
L 158.106667 157662.634912 
L 156.97 483.134559 
L 155.833333 483.134559 
L 154.696667 475.942091 
L 153.56 483.134559 
L 152.423333 483.134559 
L 151.286667 157662.634912 
L 150.15 157662.634912 
L 149.013333 157662.634912 
L 147.876667 157662.634912 
L 146.74 157662.634912 
L 145.603333 157662.634912 
L 144.466667 157662.634912 
L 143.33 157662.634912 
L 142.193333 157662.634912 
L 141.056667 157662.634912 
L 139.92 157662.634912 
L 138.783333 157662.634912 
L 137.646667 157662.634912 
L 136.51 157662.634912 
L 135.373333 157662.634912 
L 134.236667 483.134559 
L 133.1 475.942091 
L 131.963333 483.134559 
L 130.826667 157662.634912 
L 129.69 157662.634912 
L 128.553333 157662.634912 
L 127.416667 157662.634912 
L 126.28 157662.634912 
L 125.143333 157662.634912 
L 124.006667 157662.634912 
L 122.87 157662.634912 
L 121.733333 157662.634912 
L 120.596667 157662.634912 
L 119.46 157662.634912 
L 118.323333 157662.634912 
L 117.186667 157662.634912 
L 116.05 157662.634912 
L 114.913333 157662.634912 
L 113.776667 157662.634912 
L 112.64 157662.634912 
L 111.503333 157662.634912 
L 110.366667 157662.634912 
L 109.23 157662.634912 
L 108.093333 157662.634912 
L 106.956667 157662.634912 
L 105.82 157662.634912 
L 104.683333 157662.634912 
L 103.546667 157662.634912 
L 102.41 157662.634912 
L 101.273333 157662.634912 
L 100.136667 157662.634912 
L 99 157662.634912 
z
" style="fill:#ff8080;fill-opacity:0.5;stroke:#ff8080;stroke-opacity:0.5;"/>
   </g>
   <g id="matplotlib.axis_1">
    <g id="xtick_1">
     <g id="line2d_1">
      <path clip-path="url(#p68e2955192)" d="M 99 544.68 
L 99 73.44 
" style="fill:none;stroke:#b0b0b0;stroke-linecap:square;stroke-width:0.8;"/>
     </g>
     <g id="line2d_2">
      <defs>
       <path d="M 0 0 
L 0 3.5 
" id="m4abed1d830" style="stroke:#000000;stroke-width:0.8;"/>
      </defs>
      <g>
       <use style="stroke:#000000;stroke-width:0.8;" x="99" xlink:href="#m4abed1d830" y="544.68"/>
      </g>
     </g>
    </g>
    <g id="xtick_2">
     <g id="line2d_3">
      <path clip-path="url(#p68e2955192)" d="M 127.416667 544.68 
L 127.416667 73.44 
" style="fill:none;stroke:#b0b0b0;stroke-linecap:square;stroke-width:0.8;"/>
     </g>
     <g id="line2d_4">
      <g>
       <use style="stroke:#000000;stroke-width:0.8;" x="127.416667" xlink:href="#m4abed1d830" y="544.68"/>
      </g>
     </g>
     <g id="text_1">
      <!-- Apr -->
      <g transform="translate(118.766667 559.278437)scale(0.1 -0.1)">
       <defs>
        <path d="M 2188 4044 
L 1331 1722 
L 3047 1722 
L 2188 4044 
z
M 1831 4666 
L 2547 4666 
L 4325 0 
L 3669 0 
L 3244 1197 
L 1141 1197 
L 716 0 
L 50 0 
L 1831 4666 
z
" id="DejaVuSans-41" transform="scale(0.015625)"/>
        <path d="M 1159 525 
L 1159 -1331 
L 581 -1331 
L 581 3500 
L 1159 3500 
L 1159 2969 
Q 1341 3281 1617 3432 
Q 1894 3584 2278 3584 
Q 2916 3584 3314 3078 
Q 3713 2572 3713 1747 
Q 3713 922 3314 415 
Q 2916 -91 2278 -91 
Q 1894 -91 1617 61 
Q 1341 213 1159 525 
z
M 3116 1747 
Q 3116 2381 2855 2742 
Q 2594 3103 2138 3103 
Q 1681 3103 1420 2742 
Q 1159 2381 1159 1747 
Q 1159 1113 1420 752 
Q 1681 391 2138 391 
Q 2594 391 2855 752 
Q 3116 1113 3116 1747 
z
" id="DejaVuSans-70" transform="scale(0.015625)"/>
        <path d="M 2631 2963 
Q 2534 3019 2420 3045 
Q 2306 3072 2169 3072 
Q 1681 3072 1420 2755 
Q 1159 2438 1159 1844 
L 1159 0 
L 581 0 
L 581 3500 
L 1159 3500 
L 1159 2956 
Q 1341 3275 1631 3429 
Q 1922 3584 2338 3584 
Q 2397 3584 2469 3576 
Q 2541 3569 2628 3553 
L 2631 2963 
z
" id="DejaVuSans-72" transform="scale(0.015625)"/>
       </defs>
       <use xlink:href="#DejaVuSans-41"/>
       <use x="68.408203" xlink:href="#DejaVuSans-70"/>
       <use x="131.884766" xlink:href="#DejaVuSans-72"/>
      </g>
     </g>
    </g>
    <g id="xtick_3">
     <g id="line2d_5">
      <path clip-path="url(#p68e2955192)" d="M 230.853333 544.68 
L 230.853333 73.44 
" style="fill:none;stroke:#b0b0b0;stroke-linecap:square;stroke-width:0.8;"/>
     </g>
     <g id="line2d_6">
      <g>
       <use style="stroke:#000000;stroke-width:0.8;" x="230.853333" xlink:href="#m4abed1d830" y="544.68"/>
      </g>
     </g>
     <g id="text_2">
      <!-- Jul -->
      <g transform="translate(224.820521 559.278437)scale(0.1 -0.1)">
       <defs>
        <path d="M 628 4666 
L 1259 4666 
L 1259 325 
Q 1259 -519 939 -900 
Q 619 -1281 -91 -1281 
L -331 -1281 
L -331 -750 
L -134 -750 
Q 284 -750 456 -515 
Q 628 -281 628 325 
L 628 4666 
z
" id="DejaVuSans-4a" transform="scale(0.015625)"/>
        <path d="M 544 1381 
L 544 3500 
L 1119 3500 
L 1119 1403 
Q 1119 906 1312 657 
Q 1506 409 1894 409 
Q 2359 409 2629 706 
Q 2900 1003 2900 1516 
L 2900 3500 
L 3475 3500 
L 3475 0 
L 2900 0 
L 2900 538 
Q 2691 219 2414 64 
Q 2138 -91 1772 -91 
Q 1169 -91 856 284 
Q 544 659 544 1381 
z
M 1991 3584 
L 1991 3584 
z
" id="DejaVuSans-75" transform="scale(0.015625)"/>
        <path d="M 603 4863 
L 1178 4863 
L 1178 0 
L 603 0 
L 603 4863 
z
" id="DejaVuSans-6c" transform="scale(0.015625)"/>
       </defs>
       <use xlink:href="#DejaVuSans-4a"/>
       <use x="29.492188" xlink:href="#DejaVuSans-75"/>
       <use x="92.871094" xlink:href="#DejaVuSans-6c"/>
      </g>
     </g>
    </g>
    <g id="xtick_4">
     <g id="line2d_7">
      <path clip-path="url(#p68e2955192)" d="M 335.426667 544.68 
L 335.426667 73.44 
" style="fill:none;stroke:#b0b0b0;stroke-linecap:square;stroke-width:0.8;"/>
     </g>
     <g id="line2d_8">
      <g>
       <use style="stroke:#000000;stroke-width:0.8;" x="335.426667" xlink:href="#m4abed1d830" y="544.68"/>
      </g>
     </g>
     <g id="text_3">
      <!-- Oct -->
      <g transform="translate(326.781354 559.278437)scale(0.1 -0.1)">
       <defs>
        <path d="M 2522 4238 
Q 1834 4238 1429 3725 
Q 1025 3213 1025 2328 
Q 1025 1447 1429 934 
Q 1834 422 2522 422 
Q 3209 422 3611 934 
Q 4013 1447 4013 2328 
Q 4013 3213 3611 3725 
Q 3209 4238 2522 4238 
z
M 2522 4750 
Q 3503 4750 4090 4092 
Q 4678 3434 4678 2328 
Q 4678 1225 4090 567 
Q 3503 -91 2522 -91 
Q 1538 -91 948 565 
Q 359 1222 359 2328 
Q 359 3434 948 4092 
Q 1538 4750 2522 4750 
z
" id="DejaVuSans-4f" transform="scale(0.015625)"/>
        <path d="M 3122 3366 
L 3122 2828 
Q 2878 2963 2633 3030 
Q 2388 3097 2138 3097 
Q 1578 3097 1268 2742 
Q 959 2388 959 1747 
Q 959 1106 1268 751 
Q 1578 397 2138 397 
Q 2388 397 2633 464 
Q 2878 531 3122 666 
L 3122 134 
Q 2881 22 2623 -34 
Q 2366 -91 2075 -91 
Q 1284 -91 818 406 
Q 353 903 353 1747 
Q 353 2603 823 3093 
Q 1294 3584 2113 3584 
Q 2378 3584 2631 3529 
Q 2884 3475 3122 3366 
z
" id="DejaVuSans-63" transform="scale(0.015625)"/>
        <path d="M 1172 4494 
L 1172 3500 
L 2356 3500 
L 2356 3053 
L 1172 3053 
L 1172 1153 
Q 1172 725 1289 603 
Q 1406 481 1766 481 
L 2356 481 
L 2356 0 
L 1766 0 
Q 1100 0 847 248 
Q 594 497 594 1153 
L 594 3053 
L 172 3053 
L 172 3500 
L 594 3500 
L 594 4494 
L 1172 4494 
z
" id="DejaVuSans-74" transform="scale(0.015625)"/>
       </defs>
       <use xlink:href="#DejaVuSans-4f"/>
       <use x="78.710938" xlink:href="#DejaVuSans-63"/>
       <use x="133.691406" xlink:href="#DejaVuSans-74"/>
      </g>
     </g>
    </g>
    <g id="xtick_5">
     <g id="line2d_9">
      <path clip-path="url(#p68e2955192)" d="M 440 544.68 
L 440 73.44 
" style="fill:none;stroke:#b0b0b0;stroke-linecap:square;stroke-width:0.8;"/>
     </g>
     <g id="line2d_10">
      <g>
       <use style="stroke:#000000;stroke-width:0.8;" x="440" xlink:href="#m4abed1d830" y="544.68"/>
      </g>
     </g>
     <g id="text_4">
      <!-- Jan -->
      <g transform="translate(432.292188 559.278437)scale(0.1 -0.1)">
       <defs>
        <path d="M 2194 1759 
Q 1497 1759 1228 1600 
Q 959 1441 959 1056 
Q 959 750 1161 570 
Q 1363 391 1709 391 
Q 2188 391 2477 730 
Q 2766 1069 2766 1631 
L 2766 1759 
L 2194 1759 
z
M 3341 1997 
L 3341 0 
L 2766 0 
L 2766 531 
Q 2569 213 2275 61 
Q 1981 -91 1556 -91 
Q 1019 -91 701 211 
Q 384 513 384 1019 
Q 384 1609 779 1909 
Q 1175 2209 1959 2209 
L 2766 2209 
L 2766 2266 
Q 2766 2663 2505 2880 
Q 2244 3097 1772 3097 
Q 1472 3097 1187 3025 
Q 903 2953 641 2809 
L 641 3341 
Q 956 3463 1253 3523 
Q 1550 3584 1831 3584 
Q 2591 3584 2966 3190 
Q 3341 2797 3341 1997 
z
" id="DejaVuSans-61" transform="scale(0.015625)"/>
        <path d="M 3513 2113 
L 3513 0 
L 2938 0 
L 2938 2094 
Q 2938 2591 2744 2837 
Q 2550 3084 2163 3084 
Q 1697 3084 1428 2787 
Q 1159 2491 1159 1978 
L 1159 0 
L 581 0 
L 581 3500 
L 1159 3500 
L 1159 2956 
Q 1366 3272 1645 3428 
Q 1925 3584 2291 3584 
Q 2894 3584 3203 3211 
Q 3513 2838 3513 2113 
z
" id="DejaVuSans-6e" transform="scale(0.015625)"/>
       </defs>
       <use xlink:href="#DejaVuSans-4a"/>
       <use x="29.492188" xlink:href="#DejaVuSans-61"/>
       <use x="90.771484" xlink:href="#DejaVuSans-6e"/>
      </g>
      <!-- 2021 -->
      <g transform="translate(427.275 570.47625)scale(0.1 -0.1)">
       <defs>
        <path d="M 1228 531 
L 3431 531 
L 3431 0 
L 469 0 
L 469 531 
Q 828 903 1448 1529 
Q 2069 2156 2228 2338 
Q 2531 2678 2651 2914 
Q 2772 3150 2772 3378 
Q 2772 3750 2511 3984 
Q 2250 4219 1831 4219 
Q 1534 4219 1204 4116 
Q 875 4013 500 3803 
L 500 4441 
Q 881 4594 1212 4672 
Q 1544 4750 1819 4750 
Q 2544 4750 2975 4387 
Q 3406 4025 3406 3419 
Q 3406 3131 3298 2873 
Q 3191 2616 2906 2266 
Q 2828 2175 2409 1742 
Q 1991 1309 1228 531 
z
" id="DejaVuSans-32" transform="scale(0.015625)"/>
        <path d="M 2034 4250 
Q 1547 4250 1301 3770 
Q 1056 3291 1056 2328 
Q 1056 1369 1301 889 
Q 1547 409 2034 409 
Q 2525 409 2770 889 
Q 3016 1369 3016 2328 
Q 3016 3291 2770 3770 
Q 2525 4250 2034 4250 
z
M 2034 4750 
Q 2819 4750 3233 4129 
Q 3647 3509 3647 2328 
Q 3647 1150 3233 529 
Q 2819 -91 2034 -91 
Q 1250 -91 836 529 
Q 422 1150 422 2328 
Q 422 3509 836 4129 
Q 1250 4750 2034 4750 
z
" id="DejaVuSans-30" transform="scale(0.015625)"/>
        <path d="M 794 531 
L 1825 531 
L 1825 4091 
L 703 3866 
L 703 4441 
L 1819 4666 
L 2450 4666 
L 2450 531 
L 3481 531 
L 3481 0 
L 794 0 
L 794 531 
z
" id="DejaVuSans-31" transform="scale(0.015625)"/>
       </defs>
       <use xlink:href="#DejaVuSans-32"/>
       <use x="63.623047" xlink:href="#DejaVuSans-30"/>
       <use x="127.246094" xlink:href="#DejaVuSans-32"/>
       <use x="190.869141" xlink:href="#DejaVuSans-31"/>
      </g>
     </g>
    </g>
    <g id="xtick_6">
     <g id="line2d_11">
      <path clip-path="url(#p68e2955192)" d="M 542.3 544.68 
L 542.3 73.44 
" style="fill:none;stroke:#b0b0b0;stroke-linecap:square;stroke-width:0.8;"/>
     </g>
     <g id="line2d_12">
      <g>
       <use style="stroke:#000000;stroke-width:0.8;" x="542.3" xlink:href="#m4abed1d830" y="544.68"/>
      </g>
     </g>
     <g id="text_5">
      <!-- Apr -->
      <g transform="translate(533.65 559.278437)scale(0.1 -0.1)">
       <use xlink:href="#DejaVuSans-41"/>
       <use x="68.408203" xlink:href="#DejaVuSans-70"/>
       <use x="131.884766" xlink:href="#DejaVuSans-72"/>
      </g>
     </g>
    </g>
    <g id="xtick_7">
     <g id="line2d_13">
      <path clip-path="url(#p68e2955192)" d="M 645.736667 544.68 
L 645.736667 73.44 
" style="fill:none;stroke:#b0b0b0;stroke-linecap:square;stroke-width:0.8;"/>
     </g>
     <g id="line2d_14">
      <g>
       <use style="stroke:#000000;stroke-width:0.8;" x="645.736667" xlink:href="#m4abed1d830" y="544.68"/>
      </g>
     </g>
     <g id="text_6">
      <!-- Jul -->
      <g transform="translate(639.703854 559.278437)scale(0.1 -0.1)">
       <use xlink:href="#DejaVuSans-4a"/>
       <use x="29.492188" xlink:href="#DejaVuSans-75"/>
       <use x="92.871094" xlink:href="#DejaVuSans-6c"/>
      </g>
     </g>
    </g>
    <g id="xtick_8">
     <g id="line2d_15">
      <path clip-path="url(#p68e2955192)" d="M 712.8 544.68 
L 712.8 73.44 
" style="fill:none;stroke:#b0b0b0;stroke-linecap:square;stroke-width:0.8;"/>
     </g>
     <g id="line2d_16">
      <g>
       <use style="stroke:#000000;stroke-width:0.8;" x="712.8" xlink:href="#m4abed1d830" y="544.68"/>
      </g>
     </g>
    </g>
    <g id="xtick_9">
     <g id="line2d_17">
      <defs>
       <path d="M 0 0 
L 0 2 
" id="mbe9820739d" style="stroke:#000000;stroke-width:0.6;"/>
      </defs>
      <g>
       <use style="stroke:#000000;stroke-width:0.6;" x="161.516667" xlink:href="#mbe9820739d" y="544.68"/>
      </g>
     </g>
    </g>
    <g id="xtick_10">
     <g id="line2d_18">
      <g>
       <use style="stroke:#000000;stroke-width:0.6;" x="196.753333" xlink:href="#mbe9820739d" y="544.68"/>
      </g>
     </g>
    </g>
    <g id="xtick_11">
     <g id="line2d_19">
      <g>
       <use style="stroke:#000000;stroke-width:0.6;" x="266.09" xlink:href="#mbe9820739d" y="544.68"/>
      </g>
     </g>
    </g>
    <g id="xtick_12">
     <g id="line2d_20">
      <g>
       <use style="stroke:#000000;stroke-width:0.6;" x="301.326667" xlink:href="#mbe9820739d" y="544.68"/>
      </g>
     </g>
    </g>
    <g id="xtick_13">
     <g id="line2d_21">
      <g>
       <use style="stroke:#000000;stroke-width:0.6;" x="370.663333" xlink:href="#mbe9820739d" y="544.68"/>
      </g>
     </g>
    </g>
    <g id="xtick_14">
     <g id="line2d_22">
      <g>
       <use style="stroke:#000000;stroke-width:0.6;" x="404.763333" xlink:href="#mbe9820739d" y="544.68"/>
      </g>
     </g>
    </g>
    <g id="xtick_15">
     <g id="line2d_23">
      <g>
       <use style="stroke:#000000;stroke-width:0.6;" x="475.236667" xlink:href="#mbe9820739d" y="544.68"/>
      </g>
     </g>
    </g>
    <g id="xtick_16">
     <g id="line2d_24">
      <g>
       <use style="stroke:#000000;stroke-width:0.6;" x="507.063333" xlink:href="#mbe9820739d" y="544.68"/>
      </g>
     </g>
    </g>
    <g id="xtick_17">
     <g id="line2d_25">
      <g>
       <use style="stroke:#000000;stroke-width:0.6;" x="576.4" xlink:href="#mbe9820739d" y="544.68"/>
      </g>
     </g>
    </g>
    <g id="xtick_18">
     <g id="line2d_26">
      <g>
       <use style="stroke:#000000;stroke-width:0.6;" x="611.636667" xlink:href="#mbe9820739d" y="544.68"/>
      </g>
     </g>
    </g>
    <g id="xtick_19">
     <g id="line2d_27">
      <g>
       <use style="stroke:#000000;stroke-width:0.6;" x="680.973333" xlink:href="#mbe9820739d" y="544.68"/>
      </g>
     </g>
    </g>
    <g id="text_7">
     <!-- Date -->
     <g transform="translate(393.949219 584.154375)scale(0.1 -0.1)">
      <defs>
       <path d="M 1259 4147 
L 1259 519 
L 2022 519 
Q 2988 519 3436 956 
Q 3884 1394 3884 2338 
Q 3884 3275 3436 3711 
Q 2988 4147 2022 4147 
L 1259 4147 
z
M 628 4666 
L 1925 4666 
Q 3281 4666 3915 4102 
Q 4550 3538 4550 2338 
Q 4550 1131 3912 565 
Q 3275 0 1925 0 
L 628 0 
L 628 4666 
z
" id="DejaVuSans-44" transform="scale(0.015625)"/>
       <path d="M 3597 1894 
L 3597 1613 
L 953 1613 
Q 991 1019 1311 708 
Q 1631 397 2203 397 
Q 2534 397 2845 478 
Q 3156 559 3463 722 
L 3463 178 
Q 3153 47 2828 -22 
Q 2503 -91 2169 -91 
Q 1331 -91 842 396 
Q 353 884 353 1716 
Q 353 2575 817 3079 
Q 1281 3584 2069 3584 
Q 2775 3584 3186 3129 
Q 3597 2675 3597 1894 
z
M 3022 2063 
Q 3016 2534 2758 2815 
Q 2500 3097 2075 3097 
Q 1594 3097 1305 2825 
Q 1016 2553 972 2059 
L 3022 2063 
z
" id="DejaVuSans-65" transform="scale(0.015625)"/>
      </defs>
      <use xlink:href="#DejaVuSans-44"/>
      <use x="77.001953" xlink:href="#DejaVuSans-61"/>
      <use x="138.28125" xlink:href="#DejaVuSans-74"/>
      <use x="177.490234" xlink:href="#DejaVuSans-65"/>
     </g>
    </g>
   </g>
   <g id="matplotlib.axis_2">
    <g id="ytick_1">
     <g id="line2d_28">
      <path clip-path="url(#p68e2955192)" d="M 99 475.942091 
L 712.8 475.942091 
" style="fill:none;stroke:#b0b0b0;stroke-linecap:square;stroke-width:0.8;"/>
     </g>
     <g id="line2d_29">
      <defs>
       <path d="M 0 0 
L -3.5 0 
" id="me91a084207" style="stroke:#000000;stroke-width:0.8;"/>
      </defs>
      <g>
       <use style="stroke:#000000;stroke-width:0.8;" x="99" xlink:href="#me91a084207" y="475.942091"/>
      </g>
     </g>
     <g id="text_8">
      <!-- $\mathdefault{10^{0}}$ -->
      <g transform="translate(74.4 479.741309)scale(0.1 -0.1)">
       <use transform="translate(0 0.765625)" xlink:href="#DejaVuSans-31"/>
       <use transform="translate(63.623047 0.765625)" xlink:href="#DejaVuSans-30"/>
       <use transform="translate(128.203125 39.046875)scale(0.7)" xlink:href="#DejaVuSans-30"/>
      </g>
     </g>
    </g>
    <g id="ytick_2">
     <g id="line2d_30">
      <path clip-path="url(#p68e2955192)" d="M 99 318.755398 
L 712.8 318.755398 
" style="fill:none;stroke:#b0b0b0;stroke-linecap:square;stroke-width:0.8;"/>
     </g>
     <g id="line2d_31">
      <g>
       <use style="stroke:#000000;stroke-width:0.8;" x="99" xlink:href="#me91a084207" y="318.755398"/>
      </g>
     </g>
     <g id="text_9">
      <!-- $\mathdefault{10^{1}}$ -->
      <g transform="translate(74.4 322.554616)scale(0.1 -0.1)">
       <use transform="translate(0 0.684375)" xlink:href="#DejaVuSans-31"/>
       <use transform="translate(63.623047 0.684375)" xlink:href="#DejaVuSans-30"/>
       <use transform="translate(128.203125 38.965625)scale(0.7)" xlink:href="#DejaVuSans-31"/>
      </g>
     </g>
    </g>
    <g id="ytick_3">
     <g id="line2d_32">
      <path clip-path="url(#p68e2955192)" d="M 99 161.568705 
L 712.8 161.568705 
" style="fill:none;stroke:#b0b0b0;stroke-linecap:square;stroke-width:0.8;"/>
     </g>
     <g id="line2d_33">
      <g>
       <use style="stroke:#000000;stroke-width:0.8;" x="99" xlink:href="#me91a084207" y="161.568705"/>
      </g>
     </g>
     <g id="text_10">
      <!-- $\mathdefault{10^{2}}$ -->
      <g transform="translate(74.4 165.367924)scale(0.1 -0.1)">
       <use transform="translate(0 0.765625)" xlink:href="#DejaVuSans-31"/>
       <use transform="translate(63.623047 0.765625)" xlink:href="#DejaVuSans-30"/>
       <use transform="translate(128.203125 39.046875)scale(0.7)" xlink:href="#DejaVuSans-32"/>
      </g>
     </g>
    </g>
    <g id="ytick_4">
     <g id="line2d_34">
      <path clip-path="url(#p68e2955192)" d="M 99 538.492964 
L 712.8 538.492964 
" style="fill:none;stroke:#b0b0b0;stroke-linecap:square;stroke-width:0.8;"/>
     </g>
     <g id="line2d_35">
      <defs>
       <path d="M 0 0 
L -2 0 
" id="m0cb60b688e" style="stroke:#000000;stroke-width:0.6;"/>
      </defs>
      <g>
       <use style="stroke:#000000;stroke-width:0.6;" x="99" xlink:href="#m0cb60b688e" y="538.492964"/>
      </g>
     </g>
    </g>
    <g id="ytick_5">
     <g id="line2d_36">
      <path clip-path="url(#p68e2955192)" d="M 99 523.26 
L 712.8 523.26 
" style="fill:none;stroke:#b0b0b0;stroke-linecap:square;stroke-width:0.8;"/>
     </g>
     <g id="line2d_37">
      <g>
       <use style="stroke:#000000;stroke-width:0.6;" x="99" xlink:href="#m0cb60b688e" y="523.26"/>
      </g>
     </g>
    </g>
    <g id="ytick_6">
     <g id="line2d_38">
      <path clip-path="url(#p68e2955192)" d="M 99 510.813762 
L 712.8 510.813762 
" style="fill:none;stroke:#b0b0b0;stroke-linecap:square;stroke-width:0.8;"/>
     </g>
     <g id="line2d_39">
      <g>
       <use style="stroke:#000000;stroke-width:0.6;" x="99" xlink:href="#m0cb60b688e" y="510.813762"/>
      </g>
     </g>
    </g>
    <g id="ytick_7">
     <g id="line2d_40">
      <path clip-path="url(#p68e2955192)" d="M 99 500.290617 
L 712.8 500.290617 
" style="fill:none;stroke:#b0b0b0;stroke-linecap:square;stroke-width:0.8;"/>
     </g>
     <g id="line2d_41">
      <g>
       <use style="stroke:#000000;stroke-width:0.6;" x="99" xlink:href="#m0cb60b688e" y="500.290617"/>
      </g>
     </g>
    </g>
    <g id="ytick_8">
     <g id="line2d_42">
      <path clip-path="url(#p68e2955192)" d="M 99 491.175055 
L 712.8 491.175055 
" style="fill:none;stroke:#b0b0b0;stroke-linecap:square;stroke-width:0.8;"/>
     </g>
     <g id="line2d_43">
      <g>
       <use style="stroke:#000000;stroke-width:0.6;" x="99" xlink:href="#m0cb60b688e" y="491.175055"/>
      </g>
     </g>
    </g>
    <g id="ytick_9">
     <g id="line2d_44">
      <path clip-path="url(#p68e2955192)" d="M 99 483.134559 
L 712.8 483.134559 
" style="fill:none;stroke:#b0b0b0;stroke-linecap:square;stroke-width:0.8;"/>
     </g>
     <g id="line2d_45">
      <g>
       <use style="stroke:#000000;stroke-width:0.6;" x="99" xlink:href="#m0cb60b688e" y="483.134559"/>
      </g>
     </g>
    </g>
    <g id="ytick_10">
     <g id="line2d_46">
      <path clip-path="url(#p68e2955192)" d="M 99 428.624181 
L 712.8 428.624181 
" style="fill:none;stroke:#b0b0b0;stroke-linecap:square;stroke-width:0.8;"/>
     </g>
     <g id="line2d_47">
      <g>
       <use style="stroke:#000000;stroke-width:0.6;" x="99" xlink:href="#m0cb60b688e" y="428.624181"/>
      </g>
     </g>
    </g>
    <g id="ytick_11">
     <g id="line2d_48">
      <path clip-path="url(#p68e2955192)" d="M 99 400.944978 
L 712.8 400.944978 
" style="fill:none;stroke:#b0b0b0;stroke-linecap:square;stroke-width:0.8;"/>
     </g>
     <g id="line2d_49">
      <g>
       <use style="stroke:#000000;stroke-width:0.6;" x="99" xlink:href="#m0cb60b688e" y="400.944978"/>
      </g>
     </g>
    </g>
    <g id="ytick_12">
     <g id="line2d_50">
      <path clip-path="url(#p68e2955192)" d="M 99 381.306272 
L 712.8 381.306272 
" style="fill:none;stroke:#b0b0b0;stroke-linecap:square;stroke-width:0.8;"/>
     </g>
     <g id="line2d_51">
      <g>
       <use style="stroke:#000000;stroke-width:0.6;" x="99" xlink:href="#m0cb60b688e" y="381.306272"/>
      </g>
     </g>
    </g>
    <g id="ytick_13">
     <g id="line2d_52">
      <path clip-path="url(#p68e2955192)" d="M 99 366.073307 
L 712.8 366.073307 
" style="fill:none;stroke:#b0b0b0;stroke-linecap:square;stroke-width:0.8;"/>
     </g>
     <g id="line2d_53">
      <g>
       <use style="stroke:#000000;stroke-width:0.6;" x="99" xlink:href="#m0cb60b688e" y="366.073307"/>
      </g>
     </g>
    </g>
    <g id="ytick_14">
     <g id="line2d_54">
      <path clip-path="url(#p68e2955192)" d="M 99 353.627069 
L 712.8 353.627069 
" style="fill:none;stroke:#b0b0b0;stroke-linecap:square;stroke-width:0.8;"/>
     </g>
     <g id="line2d_55">
      <g>
       <use style="stroke:#000000;stroke-width:0.6;" x="99" xlink:href="#m0cb60b688e" y="353.627069"/>
      </g>
     </g>
    </g>
    <g id="ytick_15">
     <g id="line2d_56">
      <path clip-path="url(#p68e2955192)" d="M 99 343.103925 
L 712.8 343.103925 
" style="fill:none;stroke:#b0b0b0;stroke-linecap:square;stroke-width:0.8;"/>
     </g>
     <g id="line2d_57">
      <g>
       <use style="stroke:#000000;stroke-width:0.6;" x="99" xlink:href="#m0cb60b688e" y="343.103925"/>
      </g>
     </g>
    </g>
    <g id="ytick_16">
     <g id="line2d_58">
      <path clip-path="url(#p68e2955192)" d="M 99 333.988362 
L 712.8 333.988362 
" style="fill:none;stroke:#b0b0b0;stroke-linecap:square;stroke-width:0.8;"/>
     </g>
     <g id="line2d_59">
      <g>
       <use style="stroke:#000000;stroke-width:0.6;" x="99" xlink:href="#m0cb60b688e" y="333.988362"/>
      </g>
     </g>
    </g>
    <g id="ytick_17">
     <g id="line2d_60">
      <path clip-path="url(#p68e2955192)" d="M 99 325.947866 
L 712.8 325.947866 
" style="fill:none;stroke:#b0b0b0;stroke-linecap:square;stroke-width:0.8;"/>
     </g>
     <g id="line2d_61">
      <g>
       <use style="stroke:#000000;stroke-width:0.6;" x="99" xlink:href="#m0cb60b688e" y="325.947866"/>
      </g>
     </g>
    </g>
    <g id="ytick_18">
     <g id="line2d_62">
      <path clip-path="url(#p68e2955192)" d="M 99 271.437488 
L 712.8 271.437488 
" style="fill:none;stroke:#b0b0b0;stroke-linecap:square;stroke-width:0.8;"/>
     </g>
     <g id="line2d_63">
      <g>
       <use style="stroke:#000000;stroke-width:0.6;" x="99" xlink:href="#m0cb60b688e" y="271.437488"/>
      </g>
     </g>
    </g>
    <g id="ytick_19">
     <g id="line2d_64">
      <path clip-path="url(#p68e2955192)" d="M 99 243.758286 
L 712.8 243.758286 
" style="fill:none;stroke:#b0b0b0;stroke-linecap:square;stroke-width:0.8;"/>
     </g>
     <g id="line2d_65">
      <g>
       <use style="stroke:#000000;stroke-width:0.6;" x="99" xlink:href="#m0cb60b688e" y="243.758286"/>
      </g>
     </g>
    </g>
    <g id="ytick_20">
     <g id="line2d_66">
      <path clip-path="url(#p68e2955192)" d="M 99 224.119579 
L 712.8 224.119579 
" style="fill:none;stroke:#b0b0b0;stroke-linecap:square;stroke-width:0.8;"/>
     </g>
     <g id="line2d_67">
      <g>
       <use style="stroke:#000000;stroke-width:0.6;" x="99" xlink:href="#m0cb60b688e" y="224.119579"/>
      </g>
     </g>
    </g>
    <g id="ytick_21">
     <g id="line2d_68">
      <path clip-path="url(#p68e2955192)" d="M 99 208.886614 
L 712.8 208.886614 
" style="fill:none;stroke:#b0b0b0;stroke-linecap:square;stroke-width:0.8;"/>
     </g>
     <g id="line2d_69">
      <g>
       <use style="stroke:#000000;stroke-width:0.6;" x="99" xlink:href="#m0cb60b688e" y="208.886614"/>
      </g>
     </g>
    </g>
    <g id="ytick_22">
     <g id="line2d_70">
      <path clip-path="url(#p68e2955192)" d="M 99 196.440376 
L 712.8 196.440376 
" style="fill:none;stroke:#b0b0b0;stroke-linecap:square;stroke-width:0.8;"/>
     </g>
     <g id="line2d_71">
      <g>
       <use style="stroke:#000000;stroke-width:0.6;" x="99" xlink:href="#m0cb60b688e" y="196.440376"/>
      </g>
     </g>
    </g>
    <g id="ytick_23">
     <g id="line2d_72">
      <path clip-path="url(#p68e2955192)" d="M 99 185.917232 
L 712.8 185.917232 
" style="fill:none;stroke:#b0b0b0;stroke-linecap:square;stroke-width:0.8;"/>
     </g>
     <g id="line2d_73">
      <g>
       <use style="stroke:#000000;stroke-width:0.6;" x="99" xlink:href="#m0cb60b688e" y="185.917232"/>
      </g>
     </g>
    </g>
    <g id="ytick_24">
     <g id="line2d_74">
      <path clip-path="url(#p68e2955192)" d="M 99 176.801669 
L 712.8 176.801669 
" style="fill:none;stroke:#b0b0b0;stroke-linecap:square;stroke-width:0.8;"/>
     </g>
     <g id="line2d_75">
      <g>
       <use style="stroke:#000000;stroke-width:0.6;" x="99" xlink:href="#m0cb60b688e" y="176.801669"/>
      </g>
     </g>
    </g>
    <g id="ytick_25">
     <g id="line2d_76">
      <path clip-path="url(#p68e2955192)" d="M 99 168.761174 
L 712.8 168.761174 
" style="fill:none;stroke:#b0b0b0;stroke-linecap:square;stroke-width:0.8;"/>
     </g>
     <g id="line2d_77">
      <g>
       <use style="stroke:#000000;stroke-width:0.6;" x="99" xlink:href="#m0cb60b688e" y="168.761174"/>
      </g>
     </g>
    </g>
    <g id="ytick_26">
     <g id="line2d_78">
      <path clip-path="url(#p68e2955192)" d="M 99 114.250795 
L 712.8 114.250795 
" style="fill:none;stroke:#b0b0b0;stroke-linecap:square;stroke-width:0.8;"/>
     </g>
     <g id="line2d_79">
      <g>
       <use style="stroke:#000000;stroke-width:0.6;" x="99" xlink:href="#m0cb60b688e" y="114.250795"/>
      </g>
     </g>
    </g>
    <g id="ytick_27">
     <g id="line2d_80">
      <path clip-path="url(#p68e2955192)" d="M 99 86.571593 
L 712.8 86.571593 
" style="fill:none;stroke:#b0b0b0;stroke-linecap:square;stroke-width:0.8;"/>
     </g>
     <g id="line2d_81">
      <g>
       <use style="stroke:#000000;stroke-width:0.6;" x="99" xlink:href="#m0cb60b688e" y="86.571593"/>
      </g>
     </g>
    </g>
   </g>
   <g id="line2d_82">
    <path clip-path="url(#p68e2955192)" d="M 113.775476 613 
L 113.776667 448.262888 
L 114.913333 413.391217 
L 116.05 400.944978 
L 118.323333 400.944978 
L 119.46 390.421834 
L 120.596667 373.265776 
L 121.733333 353.627069 
L 122.87 298.268664 
L 124.006667 271.437488 
L 125.143333 269.751839 
L 127.416667 260.428468 
L 128.553333 260.428468 
L 130.826667 252.226779 
L 131.963333 249.698145 
L 133.1 248.468106 
L 134.236667 244.905629 
L 135.373333 242.629908 
L 136.51 246.072586 
L 137.646667 242.629908 
L 138.783333 240.42761 
L 141.056667 240.42761 
L 142.193333 242.629908 
L 144.466667 242.629908 
L 145.603333 252.226779 
L 146.74 260.428468 
L 147.876667 264.931109 
L 149.013333 276.759557 
L 151.286667 318.755398 
L 152.423333 325.947866 
L 153.56 333.988362 
L 154.696667 333.988362 
L 155.833333 338.394105 
L 156.97 353.627069 
L 158.106667 343.103925 
L 159.243333 353.627069 
L 160.38 373.265776 
L 163.79 373.265776 
L 164.926667 366.073307 
L 167.2 366.073307 
L 168.336667 353.627069 
L 169.473333 353.627069 
L 170.61 366.073307 
L 172.883333 366.073307 
L 174.02 373.265776 
L 175.156667 373.265776 
L 176.293333 381.306272 
L 177.43 400.944978 
L 178.566667 413.391217 
L 179.703333 413.391217 
L 180.84 428.624181 
L 189.933333 428.624181 
L 191.07 413.391217 
L 201.3 413.391217 
L 202.436667 390.421834 
L 203.573333 381.306272 
L 205.846667 381.306272 
L 206.983333 373.265776 
L 208.12 343.103925 
L 209.256667 325.947866 
L 214.94 325.947866 
L 216.076667 338.394105 
L 217.213333 325.947866 
L 218.35 338.394105 
L 219.486667 338.394105 
L 220.623333 359.566928 
L 221.76 373.265776 
L 225.17 373.265776 
L 226.306667 390.421834 
L 227.443333 390.421834 
L 228.58 373.265776 
L 230.853333 373.265776 
L 231.99 366.073307 
L 235.4 366.073307 
L 236.536667 381.306272 
L 237.673333 373.265776 
L 238.81 413.391217 
L 241.083333 413.391217 
L 242.22 381.306272 
L 243.356667 359.566928 
L 244.493333 366.073307 
L 245.63 366.073307 
L 246.766667 359.566928 
L 251.313333 359.566928 
L 252.45 348.162928 
L 255.86 348.162928 
L 256.996667 338.394105 
L 258.133333 329.849803 
L 259.27 338.394105 
L 261.543333 338.394105 
L 262.68 348.162928 
L 263.816667 366.073307 
L 264.953333 366.073307 
L 266.09 348.162928 
L 267.226667 359.566928 
L 268.363333 373.265776 
L 269.5 381.306272 
L 270.636667 373.265776 
L 271.773333 373.265776 
L 272.91 381.306272 
L 274.046667 381.306272 
L 275.183333 373.265776 
L 276.32 373.265776 
L 277.456667 366.073307 
L 278.593333 366.073307 
L 279.73 359.566928 
L 282.003333 359.566928 
L 283.14 353.627069 
L 295.643333 353.627069 
L 296.78 359.566928 
L 300.19 359.566928 
L 301.326667 343.103925 
L 304.736667 343.103925 
L 305.873333 359.566928 
L 307.01 359.566928 
L 308.146667 366.073307 
L 309.283333 366.073307 
L 310.42 381.306272 
L 311.556667 381.306272 
L 312.693333 366.073307 
L 319.513333 366.073307 
L 320.65 381.306272 
L 321.786667 390.421834 
L 322.923333 373.265776 
L 326.333333 373.265776 
L 327.47 381.306272 
L 329.743333 381.306272 
L 330.88 390.421834 
L 332.016667 400.944978 
L 335.426667 400.944978 
L 336.563333 390.421834 
L 339.973333 390.421834 
L 341.11 381.306272 
L 342.246667 366.073307 
L 343.383333 348.162928 
L 345.656667 348.162928 
L 346.793333 338.394105 
L 347.93 333.988362 
L 349.066667 325.947866 
L 350.203333 325.947866 
L 351.34 318.755398 
L 352.476667 318.755398 
L 354.75 312.249018 
L 355.886667 315.424722 
L 357.023333 315.424722 
L 358.16 312.249018 
L 361.57 312.249018 
L 362.706667 309.214505 
L 363.843333 309.214505 
L 364.98 300.845019 
L 366.116667 300.845019 
L 367.253333 298.268664 
L 369.526667 288.837788 
L 370.663333 284.569816 
L 371.8 274.939041 
L 372.936667 273.165816 
L 374.073333 264.931109 
L 375.21 260.428468 
L 376.346667 261.896595 
L 377.483333 264.931109 
L 378.62 264.931109 
L 379.756667 261.896595 
L 382.03 261.896595 
L 383.166667 260.428468 
L 384.303333 250.950754 
L 386.576667 223.271552 
L 387.713333 215.324762 
L 388.85 213.840675 
L 389.986667 206.2092 
L 392.26 174.701032 
L 393.396667 169.141483 
L 397.943333 169.141483 
L 399.08 171.864677 
L 400.216667 171.864677 
L 401.353333 173.470994 
L 402.49 173.470994 
L 403.626667 178.969004 
L 404.763333 186.406591 
L 405.9 178.969004 
L 409.31 178.969004 
L 410.446667 178.093796 
L 411.583333 186.406591 
L 412.72 171.864677 
L 413.856667 159.883056 
L 414.993333 153.22548 
L 417.266667 153.22548 
L 418.403333 148.555946 
L 420.676667 148.555946 
L 421.813333 153.22548 
L 422.95 153.22548 
L 424.086667 158.563878 
L 425.223333 160.216872 
L 426.36 161.568705 
L 428.633333 161.568705 
L 429.77 163.648012 
L 430.906667 163.648012 
L 432.043333 166.890774 
L 433.18 163.648012 
L 434.316667 166.890774 
L 435.453333 168.006853 
L 438.863333 168.006853 
L 440 171.468935 
L 442.273333 171.468935 
L 443.41 175.953642 
L 444.546667 171.468935 
L 445.683333 164.355431 
L 446.82 163.297033 
L 447.956667 153.832287 
L 449.093333 153.832287 
L 450.23 144.716724 
L 451.366667 144.716724 
L 452.503333 133.66233 
L 453.64 133.66233 
L 454.776667 126.560639 
L 459.323333 126.560639 
L 460.46 126.970642 
L 461.596667 126.970642 
L 462.733333 128.635733 
L 463.87 128.635733 
L 466.143333 134.117433 
L 467.28 134.117433 
L 468.416667 135.96881 
L 469.553333 135.96881 
L 470.69 137.151947 
L 471.826667 139.334683 
L 472.963333 139.334683 
L 474.1 141.335275 
L 475.236667 142.100875 
L 476.373333 142.100875 
L 477.51 142.357995 
L 478.646667 141.84472 
L 479.783333 142.357995 
L 480.92 142.357995 
L 482.056667 141.84472 
L 483.193333 141.589522 
L 485.466667 141.589522 
L 486.603333 141.84472 
L 488.876667 141.84472 
L 490.013333 143.658326 
L 491.15 141.84472 
L 492.286667 141.84472 
L 493.423333 143.396271 
L 495.696667 143.396271 
L 496.833333 148.274439 
L 497.97 148.274439 
L 499.106667 151.73165 
L 501.38 151.73165 
L 502.516667 154.137725 
L 504.79 154.137725 
L 505.926667 158.238029 
L 507.063333 160.889442 
L 508.2 160.889442 
L 509.336667 158.238029 
L 510.473333 158.238029 
L 511.61 154.137725 
L 512.746667 152.027812 
L 513.883333 152.027812 
L 515.02 151.73165 
L 517.293333 151.73165 
L 518.43 150.559684 
L 519.566667 150.559684 
L 520.703333 151.73165 
L 521.84 150.559684 
L 528.66 150.559684 
L 529.796667 149.4075 
L 530.933333 153.528209 
L 534.343333 153.528209 
L 535.48 148.274439 
L 536.616667 142.100875 
L 537.753333 142.100875 
L 538.89 136.913673 
L 540.026667 136.913673 
L 541.163333 132.092943 
L 543.436667 123.757564 
L 550.256667 123.757564 
L 551.393333 130.342454 
L 553.666667 130.342454 
L 554.803333 133.889502 
L 555.94 133.889502 
L 557.076667 134.805829 
L 558.213333 134.805829 
L 559.35 137.391055 
L 560.486667 144.450582 
L 561.623333 144.450582 
L 562.76 147.714885 
L 563.896667 149.4075 
L 565.033333 142.357995 
L 566.17 153.22548 
L 567.306667 162.600442 
L 568.443333 164.000805 
L 570.716667 164.000805 
L 571.853333 166.156731 
L 572.99 169.523922 
L 577.536667 169.523922 
L 578.673333 173.878549 
L 579.81 173.878549 
L 582.083333 195.873856 
L 583.22 195.873856 
L 585.493333 203.632845 
L 586.63 201.762445 
L 591.176667 201.762445 
L 592.313333 202.380235 
L 593.45 204.267876 
L 595.723333 204.267876 
L 596.86 208.207352 
L 597.996667 210.965922 
L 599.133333 217.6132 
L 600.27 220.788903 
L 601.406667 222.43393 
L 602.543333 226.728762 
L 603.68 229.441648 
L 604.816667 234.217393 
L 605.953333 241.519878 
L 607.09 249.698145 
L 608.226667 258.99125 
L 609.363333 266.500496 
L 611.636667 273.165816 
L 612.773333 291.076195 
L 613.91 315.424722 
L 615.046667 315.424722 
L 616.183333 322.256951 
L 617.32 325.947866 
L 618.456667 325.947866 
L 619.593333 322.256951 
L 620.73 329.849803 
L 623.003333 329.849803 
L 624.14 333.988362 
L 625.276667 343.103925 
L 626.413333 343.103925 
L 627.55 333.988362 
L 628.686667 333.988362 
L 629.823333 329.849803 
L 630.96 343.103925 
L 634.37 343.103925 
L 635.506667 359.566928 
L 636.643333 343.103925 
L 637.78 353.627069 
L 638.916667 348.162928 
L 642.326667 348.162928 
L 643.463333 366.073307 
L 644.6 381.306272 
L 645.736667 390.421834 
L 646.873333 381.306272 
L 649.146667 381.306272 
L 650.283333 390.421834 
L 651.42 381.306272 
L 658.24 381.306272 
L 659.376667 373.265776 
L 660.513333 353.627069 
L 661.65 343.103925 
L 662.786667 338.394105 
L 665.06 338.394105 
L 666.196667 318.755398 
L 667.333333 322.256951 
L 668.47 309.214505 
L 669.606667 303.522433 
L 670.743333 286.670453 
L 676.426667 286.670453 
L 677.563333 271.437488 
L 678.7 263.396992 
L 682.11 263.396992 
L 684.383333 236.225341 
L 685.52 235.213984 
L 686.656667 221.606461 
L 690.066667 221.606461 
L 692.34 201.762445 
L 693.476667 181.664038 
L 694.613333 168.006853 
L 696.886667 168.006853 
L 698.023333 184.948913 
L 699.16 168.006853 
L 700.296667 166.522766 
L 701.433333 164.711909 
L 703.706667 164.711909 
L 704.843333 157.59096 
L 705.98 164.711909 
L 707.116667 160.889442 
L 708.253333 155.062326 
L 710.526667 155.062326 
L 711.663333 151.143152 
L 712.8 151.143152 
L 712.8 151.143152 
" style="fill:none;stroke:#1f77b4;stroke-linecap:square;stroke-width:1.5;"/>
   </g>
   <g id="line2d_83">
    <path clip-path="url(#p68e2955192)" d="M 126.279351 613 
L 126.28 523.26 
L 127.416667 475.942091 
L 137.646667 475.942091 
L 138.783333 523.26 
L 139.92 475.942091 
L 168.336667 475.942091 
L 169.473333 523.26 
L 169.473982 613 
M 403.626018 613 
L 403.626667 523.26 
L 404.763333 475.942091 
L 410.446667 475.942091 
L 411.583333 448.262888 
L 412.72 428.624181 
L 427.496667 428.624181 
L 428.633333 448.262888 
L 429.77 428.624181 
L 430.906667 428.624181 
L 432.043333 448.262888 
L 433.18 475.942091 
L 434.316667 448.262888 
L 435.453333 428.624181 
L 436.59 448.262888 
L 437.726667 448.262888 
L 438.863333 428.624181 
L 440 448.262888 
L 441.136667 428.624181 
L 442.273333 448.262888 
L 443.41 428.624181 
L 444.546667 413.391217 
L 449.093333 413.391217 
L 450.23 428.624181 
L 451.366667 448.262888 
L 452.503333 428.624181 
L 453.64 448.262888 
L 455.913333 448.262888 
L 457.05 475.942091 
L 458.186667 475.942091 
L 459.323333 523.26 
L 459.323982 613 
M 465.006018 613 
L 465.006667 523.26 
L 466.143333 523.26 
L 467.28 475.942091 
L 468.416667 523.26 
L 469.553333 475.942091 
L 470.69 523.26 
L 470.690649 613 
M 472.962684 613 
L 472.963333 523.26 
L 474.1 475.942091 
L 516.156667 475.942091 
L 517.293333 523.26 
L 517.293982 613 
M 520.702684 613 
L 520.703333 523.26 
L 521.84 523.26 
L 521.840649 613 
M 533.206018 613 
L 533.206667 523.26 
L 534.343333 475.942091 
L 535.48 475.942091 
L 536.616667 523.26 
L 537.753333 475.942091 
L 538.89 475.942091 
L 540.026667 523.26 
L 542.3 523.26 
L 543.436667 475.942091 
L 546.846667 475.942091 
L 547.983333 523.26 
L 549.12 523.26 
L 549.120649 613 
M 558.212684 613 
L 558.213333 523.26 
L 559.35 523.26 
L 559.350649 613 
L 559.350649 613 
" style="fill:none;stroke:#ff7f0e;stroke-linecap:square;stroke-width:1.5;"/>
   </g>
   <g id="patch_3">
    <path d="M 99 544.68 
L 99 73.44 
" style="fill:none;stroke:#000000;stroke-linecap:square;stroke-linejoin:miter;stroke-width:0.8;"/>
   </g>
   <g id="patch_4">
    <path d="M 712.8 544.68 
L 712.8 73.44 
" style="fill:none;stroke:#000000;stroke-linecap:square;stroke-linejoin:miter;stroke-width:0.8;"/>
   </g>
   <g id="patch_5">
    <path d="M 99 544.68 
L 712.8 544.68 
" style="fill:none;stroke:#000000;stroke-linecap:square;stroke-linejoin:miter;stroke-width:0.8;"/>
   </g>
   <g id="patch_6">
    <path d="M 99 73.44 
L 712.8 73.44 
" style="fill:none;stroke:#000000;stroke-linecap:square;stroke-linejoin:miter;stroke-width:0.8;"/>
   </g>
   <g id="legend_1">
    <g id="patch_7">
     <path d="M 616.653125 110.79625 
L 705.8 110.79625 
Q 707.8 110.79625 707.8 108.79625 
L 707.8 80.44 
Q 707.8 78.44 705.8 78.44 
L 616.653125 78.44 
Q 614.653125 78.44 614.653125 80.44 
L 614.653125 108.79625 
Q 614.653125 110.79625 616.653125 110.79625 
z
" style="fill:#ffffff;opacity:0.8;stroke:#cccccc;stroke-linejoin:miter;"/>
    </g>
    <g id="line2d_84">
     <path d="M 618.653125 86.538437 
L 638.653125 86.538437 
" style="fill:none;stroke:#1f77b4;stroke-linecap:square;stroke-width:1.5;"/>
    </g>
    <g id="line2d_85"/>
    <g id="text_11">
     <!-- Avg Cases -->
     <g transform="translate(646.653125 90.038437)scale(0.1 -0.1)">
      <defs>
       <path d="M 191 3500 
L 800 3500 
L 1894 563 
L 2988 3500 
L 3597 3500 
L 2284 0 
L 1503 0 
L 191 3500 
z
" id="DejaVuSans-76" transform="scale(0.015625)"/>
       <path d="M 2906 1791 
Q 2906 2416 2648 2759 
Q 2391 3103 1925 3103 
Q 1463 3103 1205 2759 
Q 947 2416 947 1791 
Q 947 1169 1205 825 
Q 1463 481 1925 481 
Q 2391 481 2648 825 
Q 2906 1169 2906 1791 
z
M 3481 434 
Q 3481 -459 3084 -895 
Q 2688 -1331 1869 -1331 
Q 1566 -1331 1297 -1286 
Q 1028 -1241 775 -1147 
L 775 -588 
Q 1028 -725 1275 -790 
Q 1522 -856 1778 -856 
Q 2344 -856 2625 -561 
Q 2906 -266 2906 331 
L 2906 616 
Q 2728 306 2450 153 
Q 2172 0 1784 0 
Q 1141 0 747 490 
Q 353 981 353 1791 
Q 353 2603 747 3093 
Q 1141 3584 1784 3584 
Q 2172 3584 2450 3431 
Q 2728 3278 2906 2969 
L 2906 3500 
L 3481 3500 
L 3481 434 
z
" id="DejaVuSans-67" transform="scale(0.015625)"/>
       <path id="DejaVuSans-20" transform="scale(0.015625)"/>
       <path d="M 4122 4306 
L 4122 3641 
Q 3803 3938 3442 4084 
Q 3081 4231 2675 4231 
Q 1875 4231 1450 3742 
Q 1025 3253 1025 2328 
Q 1025 1406 1450 917 
Q 1875 428 2675 428 
Q 3081 428 3442 575 
Q 3803 722 4122 1019 
L 4122 359 
Q 3791 134 3420 21 
Q 3050 -91 2638 -91 
Q 1578 -91 968 557 
Q 359 1206 359 2328 
Q 359 3453 968 4101 
Q 1578 4750 2638 4750 
Q 3056 4750 3426 4639 
Q 3797 4528 4122 4306 
z
" id="DejaVuSans-43" transform="scale(0.015625)"/>
       <path d="M 2834 3397 
L 2834 2853 
Q 2591 2978 2328 3040 
Q 2066 3103 1784 3103 
Q 1356 3103 1142 2972 
Q 928 2841 928 2578 
Q 928 2378 1081 2264 
Q 1234 2150 1697 2047 
L 1894 2003 
Q 2506 1872 2764 1633 
Q 3022 1394 3022 966 
Q 3022 478 2636 193 
Q 2250 -91 1575 -91 
Q 1294 -91 989 -36 
Q 684 19 347 128 
L 347 722 
Q 666 556 975 473 
Q 1284 391 1588 391 
Q 1994 391 2212 530 
Q 2431 669 2431 922 
Q 2431 1156 2273 1281 
Q 2116 1406 1581 1522 
L 1381 1569 
Q 847 1681 609 1914 
Q 372 2147 372 2553 
Q 372 3047 722 3315 
Q 1072 3584 1716 3584 
Q 2034 3584 2315 3537 
Q 2597 3491 2834 3397 
z
" id="DejaVuSans-73" transform="scale(0.015625)"/>
      </defs>
      <use xlink:href="#DejaVuSans-41"/>
      <use x="62.533203" xlink:href="#DejaVuSans-76"/>
      <use x="121.712891" xlink:href="#DejaVuSans-67"/>
      <use x="185.189453" xlink:href="#DejaVuSans-20"/>
      <use x="216.976562" xlink:href="#DejaVuSans-43"/>
      <use x="286.800781" xlink:href="#DejaVuSans-61"/>
      <use x="348.080078" xlink:href="#DejaVuSans-73"/>
      <use x="400.179688" xlink:href="#DejaVuSans-65"/>
      <use x="461.703125" xlink:href="#DejaVuSans-73"/>
     </g>
    </g>
    <g id="line2d_86">
     <path d="M 618.653125 101.216562 
L 638.653125 101.216562 
" style="fill:none;stroke:#ff7f0e;stroke-linecap:square;stroke-width:1.5;"/>
    </g>
    <g id="line2d_87"/>
    <g id="text_12">
     <!-- Avg Deaths -->
     <g transform="translate(646.653125 104.716562)scale(0.1 -0.1)">
      <defs>
       <path d="M 3513 2113 
L 3513 0 
L 2938 0 
L 2938 2094 
Q 2938 2591 2744 2837 
Q 2550 3084 2163 3084 
Q 1697 3084 1428 2787 
Q 1159 2491 1159 1978 
L 1159 0 
L 581 0 
L 581 4863 
L 1159 4863 
L 1159 2956 
Q 1366 3272 1645 3428 
Q 1925 3584 2291 3584 
Q 2894 3584 3203 3211 
Q 3513 2838 3513 2113 
z
" id="DejaVuSans-68" transform="scale(0.015625)"/>
      </defs>
      <use xlink:href="#DejaVuSans-41"/>
      <use x="62.533203" xlink:href="#DejaVuSans-76"/>
      <use x="121.712891" xlink:href="#DejaVuSans-67"/>
      <use x="185.189453" xlink:href="#DejaVuSans-20"/>
      <use x="216.976562" xlink:href="#DejaVuSans-44"/>
      <use x="293.978516" xlink:href="#DejaVuSans-65"/>
      <use x="355.501953" xlink:href="#DejaVuSans-61"/>
      <use x="416.78125" xlink:href="#DejaVuSans-74"/>
      <use x="455.990234" xlink:href="#DejaVuSans-68"/>
      <use x="519.369141" xlink:href="#DejaVuSans-73"/>
     </g>
    </g>
   </g>
  </g>
 </g>
 <defs>
  <clipPath id="p68e2955192">
   <rect height="471.24" width="613.8" x="99" y="73.44"/>
  </clipPath>
 </defs>
</svg>
