<?xml version="1.0" encoding="utf-8" standalone="no"?>
<!DOCTYPE svg PUBLIC "-//W3C//DTD SVG 1.1//EN"
  "http://www.w3.org/Graphics/SVG/1.1/DTD/svg11.dtd">
<svg height="612pt" version="1.1" viewBox="0 0 792 612" width="792pt" xmlns="http://www.w3.org/2000/svg" xmlns:xlink="http://www.w3.org/1999/xlink">
 <metadata>
  <rdf:RDF xmlns:cc="http://creativecommons.org/ns#" xmlns:dc="http://purl.org/dc/elements/1.1/" xmlns:rdf="http://www.w3.org/1999/02/22-rdf-syntax-ns#">
   <cc:Work>
    <dc:type rdf:resource="http://purl.org/dc/dcmitype/StillImage"/>
    <dc:format>image/svg+xml</dc:format>
    <dc:creator>
     <cc:Agent>
      <dc:title>Matplotlib v3.4.2, https://matplotlib.org/</dc:title>
     </cc:Agent>
    </dc:creator>
   </cc:Work>
  </rdf:RDF>
 </metadata>
 <defs>
  <style type="text/css">*{stroke-linecap:butt;stroke-linejoin:round;}</style>
 </defs>
 <g id="figure_1">
  <g id="patch_1">
   <path d="M 0 612 
L 792 612 
L 792 0 
L 0 0 
z
" style="fill:#ffffff;"/>
  </g>
  <g id="axes_1">
   <g id="patch_2">
    <path d="M 99 544.68 
L 712.8 544.68 
L 712.8 73.44 
L 99 73.44 
z
" style="fill:#ffffff;"/>
   </g>
   <g id="PolyCollection_1">
    <path clip-path="url(#p68e2955192)" d="M 99 157662.634912 
L 99 157662.634912 
L 100.14729 157662.634912 
L 101.294579 157662.634912 
L 102.441869 157662.634912 
L 103.589159 157662.634912 
L 104.736449 157662.634912 
L 105.883738 157662.634912 
L 107.031028 157662.634912 
L 108.178318 157662.634912 
L 109.325607 157662.634912 
L 110.472897 157662.634912 
L 111.620187 157662.634912 
L 112.767477 157662.634912 
L 113.914766 370.297251 
L 115.062056 349.221327 
L 116.209346 349.221327 
L 117.356636 286.245122 
L 118.503925 271.437488 
L 119.651215 264.621515 
L 120.798505 252.226779 
L 121.945794 249.946834 
L 123.093084 249.203466 
L 124.240374 249.203466 
L 125.387664 249.203466 
L 126.534953 237.459085 
L 127.682243 237.459085 
L 128.829533 237.459085 
L 129.976822 230.557727 
L 131.124112 213.401669 
L 132.271402 207.534782 
L 133.418692 207.534782 
L 134.565981 207.534782 
L 135.713271 207.534782 
L 136.860561 207.534782 
L 138.00785 207.534782 
L 139.15514 207.534782 
L 140.30243 207.534782 
L 141.44972 207.534782 
L 142.597009 207.534782 
L 143.744299 207.534782 
L 144.891589 207.534782 
L 146.038879 207.534782 
L 147.186168 215.625491 
L 148.333458 239.352543 
L 149.480748 239.352543 
L 150.628037 240.64467 
L 151.775327 244.674612 
L 152.922617 244.674612 
L 154.069907 261.600433 
L 155.217196 273.165816 
L 156.364486 273.165816 
L 157.511776 293.390495 
L 158.659065 293.390495 
L 159.806355 293.390495 
L 160.953645 293.390495 
L 162.100935 290.622603 
L 163.248224 307.456503 
L 164.395514 304.070752 
L 165.542804 304.070752 
L 166.690093 304.070752 
L 167.837383 304.070752 
L 168.984673 304.070752 
L 170.131963 304.070752 
L 171.279252 318.076135 
L 172.426542 318.076135 
L 173.573832 318.076135 
L 174.721121 318.076135 
L 175.868411 318.076135 
L 177.015701 318.076135 
L 178.162991 336.597545 
L 179.31028 342.135606 
L 180.45757 357.128622 
L 181.60486 357.128622 
L 182.75215 357.128622 
L 183.899439 357.128622 
L 185.046729 357.128622 
L 186.194019 357.128622 
L 187.341308 357.128622 
L 188.488598 360.819538 
L 189.635888 353.627069 
L 190.783178 353.627069 
L 191.930467 353.627069 
L 193.077757 353.627069 
L 194.225047 353.627069 
L 195.372336 353.627069 
L 196.519626 357.128622 
L 197.666916 357.128622 
L 198.814206 357.128622 
L 199.961495 357.128622 
L 201.108785 357.128622 
L 202.256075 357.128622 
L 203.403364 290.622603 
L 204.550654 277.12956 
L 205.697944 277.12956 
L 206.845234 277.12956 
L 207.992523 277.12956 
L 209.139813 277.12956 
L 210.287103 277.12956 
L 211.434393 277.12956 
L 212.581682 277.12956 
L 213.728972 277.12956 
L 214.876262 277.12956 
L 216.023551 277.12956 
L 217.170841 284.984804 
L 218.318131 284.984804 
L 219.465421 295.300139 
L 220.61271 306.30916 
L 221.76 308.037488 
L 222.90729 308.037488 
L 224.054579 295.300139 
L 225.201869 311.631229 
L 226.349159 311.631229 
L 227.496449 311.631229 
L 228.643738 311.631229 
L 229.791028 311.631229 
L 230.938318 311.631229 
L 232.085607 311.631229 
L 233.232897 288.837788 
L 234.380187 288.837788 
L 235.527477 288.837788 
L 236.674766 290.172006 
L 237.822056 290.172006 
L 238.969346 290.172006 
L 240.116636 316.077983 
L 241.263925 293.390495 
L 242.411215 293.390495 
L 243.558505 293.390495 
L 244.705794 290.622603 
L 245.853084 290.622603 
L 247.000374 290.622603 
L 248.147664 290.622603 
L 249.294953 300.845019 
L 250.442243 300.845019 
L 251.589533 300.845019 
L 252.736822 300.845019 
L 253.884112 300.845019 
L 255.031402 300.845019 
L 256.178692 300.845019 
L 257.325981 302.438834 
L 258.473271 302.438834 
L 259.620561 302.438834 
L 260.76785 308.037488 
L 261.91514 308.037488 
L 263.06243 308.037488 
L 264.20972 312.249018 
L 265.357009 312.249018 
L 266.504299 312.249018 
L 267.651589 312.249018 
L 268.798879 314.136659 
L 269.946168 318.076135 
L 271.093458 318.076135 
L 272.240748 318.076135 
L 273.388037 328.262166 
L 274.535327 330.657686 
L 275.682617 343.103925 
L 276.829907 343.103925 
L 277.977196 343.103925 
L 279.124486 330.657686 
L 280.271776 330.657686 
L 281.419065 330.657686 
L 282.566355 320.834705 
L 283.713645 320.834705 
L 284.860935 320.834705 
L 286.008224 309.810712 
L 287.155514 309.810712 
L 288.302804 309.810712 
L 289.450093 309.810712 
L 290.597383 309.810712 
L 291.744673 306.30916 
L 292.891963 306.30916 
L 294.039252 306.30916 
L 295.186542 306.30916 
L 296.333832 306.30916 
L 297.481121 306.30916 
L 298.628411 311.631229 
L 299.775701 306.30916 
L 300.922991 306.30916 
L 302.07028 308.037488 
L 303.21757 308.037488 
L 304.36486 308.037488 
L 305.51215 308.037488 
L 306.659439 308.037488 
L 307.806729 312.249018 
L 308.954019 312.249018 
L 310.101308 312.249018 
L 311.248598 312.249018 
L 312.395888 312.249018 
L 313.543178 312.249018 
L 314.690467 312.249018 
L 315.837757 316.077983 
L 316.985047 328.262166 
L 318.132336 316.077983 
L 319.279626 330.657686 
L 320.426916 330.657686 
L 321.574206 330.657686 
L 322.721495 330.657686 
L 323.868785 330.657686 
L 325.016075 330.657686 
L 326.163364 330.657686 
L 327.310654 330.657686 
L 328.457944 330.657686 
L 329.605234 330.657686 
L 330.752523 330.657686 
L 331.899813 336.597545 
L 333.047103 336.597545 
L 334.194393 346.094124 
L 335.341682 349.221327 
L 336.488972 349.221327 
L 337.636262 349.221327 
L 338.783551 336.597545 
L 339.930841 322.979342 
L 341.078131 322.979342 
L 342.225421 305.742639 
L 343.37271 305.742639 
L 344.52 305.742639 
L 345.66729 304.070752 
L 346.814579 304.070752 
L 347.961869 304.070752 
L 349.109159 304.070752 
L 350.256449 304.070752 
L 351.403738 304.070752 
L 352.551028 304.070752 
L 353.698318 297.264744 
L 354.845607 298.776215 
L 355.992897 298.776215 
L 357.140187 298.776215 
L 358.287477 308.037488 
L 359.434766 308.037488 
L 360.582056 298.776215 
L 361.729346 292.455339 
L 362.876636 287.962579 
L 364.023925 259.849945 
L 365.171215 247.499787 
L 366.318505 247.499787 
L 367.465794 244.444375 
L 368.613084 244.444375 
L 369.760374 244.444375 
L 370.907664 244.444375 
L 372.054953 244.444375 
L 373.202243 244.444375 
L 374.349533 244.444375 
L 375.496822 244.444375 
L 376.644112 243.758286 
L 377.791402 243.758286 
L 378.938692 243.758286 
L 380.085981 243.758286 
L 381.233271 234.8136 
L 382.380561 234.8136 
L 383.52785 220.303027 
L 384.67514 213.987641 
L 385.82243 190.766511 
L 386.96972 171.626956 
L 388.117009 163.227053 
L 389.264299 163.227053 
L 390.411589 154.321646 
L 391.558879 154.321646 
L 392.706168 154.321646 
L 393.853458 150.211982 
L 395.000748 138.599322 
L 396.148037 138.599322 
L 397.295327 138.599322 
L 398.442617 138.599322 
L 399.589907 138.599322 
L 400.737196 138.599322 
L 401.884486 138.599322 
L 403.031776 134.346128 
L 404.179065 134.346128 
L 405.326355 134.346128 
L 406.473645 134.346128 
L 407.620935 134.346128 
L 408.768224 125.626874 
L 409.915514 121.405349 
L 411.062804 121.405349 
L 412.210093 121.405349 
L 413.357383 121.405349 
L 414.504673 121.405349 
L 415.651963 121.405349 
L 416.799252 121.405349 
L 417.946542 121.405349 
L 419.093832 126.970642 
L 420.241121 126.970642 
L 421.388411 126.970642 
L 422.535701 126.970642 
L 423.682991 126.970642 
L 424.83028 143.605835 
L 425.97757 143.605835 
L 427.12486 143.605835 
L 428.27215 144.716724 
L 429.419439 144.716724 
L 430.566729 144.716724 
L 431.714019 144.716724 
L 432.861308 144.716724 
L 434.008598 144.876909 
L 435.155888 149.065603 
L 436.303178 140.527989 
L 437.450467 144.079718 
L 438.597757 144.556915 
L 439.745047 144.556915 
L 440.892336 144.556915 
L 442.039626 146.063224 
L 443.186916 146.063224 
L 444.334206 125.224839 
L 445.481495 125.224839 
L 446.628785 125.224839 
L 447.776075 121.823573 
L 448.923364 121.823573 
L 450.070654 105.606178 
L 451.217944 102.865178 
L 452.365234 102.865178 
L 453.512523 102.865178 
L 454.659813 102.865178 
L 455.807103 102.865178 
L 456.954393 102.865178 
L 458.101682 102.865178 
L 459.248972 102.865178 
L 460.396262 110.048017 
L 461.543551 110.048017 
L 462.690841 110.048017 
L 463.838131 110.048017 
L 464.985421 110.048017 
L 466.13271 115.005874 
L 467.28 121.291732 
L 468.42729 121.291732 
L 469.574579 121.291732 
L 470.721869 121.291732 
L 471.869159 121.291732 
L 473.016449 121.291732 
L 474.163738 123.679143 
L 475.311028 123.679143 
L 476.458318 125.345201 
L 477.605607 125.345201 
L 478.752897 126.929531 
L 479.900187 126.929531 
L 481.047477 127.052939 
L 482.194766 123.875364 
L 483.342056 127.052939 
L 484.489346 126.438117 
L 485.636636 126.438117 
L 486.783925 126.438117 
L 487.931215 126.438117 
L 489.078505 126.438117 
L 490.225794 126.438117 
L 491.373084 124.98475 
L 492.520374 128.467384 
L 493.667664 128.467384 
L 494.814953 124.705709 
L 495.962243 124.705709 
L 497.109533 124.705709 
L 498.256822 128.467384 
L 499.404112 128.467384 
L 500.551402 128.593607 
L 501.698692 128.593607 
L 502.845981 128.593607 
L 503.993271 128.593607 
L 505.140561 128.593607 
L 506.28785 128.593607 
L 507.43514 133.481134 
L 508.58243 134.99058 
L 509.72972 134.99058 
L 510.877009 141.23384 
L 512.024299 141.23384 
L 513.171589 141.23384 
L 514.318879 141.23384 
L 515.466168 141.23384 
L 516.613458 137.631004 
L 517.760748 137.631004 
L 518.908037 137.631004 
L 520.055327 137.631004 
L 521.202617 137.631004 
L 522.349907 137.631004 
L 523.497196 137.631004 
L 524.644486 137.92006 
L 525.791776 122.244375 
L 526.939065 122.244375 
L 528.086355 122.244375 
L 529.233645 122.244375 
L 530.380935 136.771107 
L 531.528224 135.875039 
L 532.675514 130.68898 
L 533.822804 122.167672 
L 534.970093 122.167672 
L 536.117383 122.167672 
L 537.264673 122.167672 
L 538.411963 119.058207 
L 539.559252 117.572939 
L 540.706542 117.572939 
L 541.853832 116.330103 
L 543.001121 116.330103 
L 544.148411 116.330103 
L 545.295701 116.330103 
L 546.442991 103.913194 
L 547.59028 100.900368 
L 548.73757 100.900368 
L 549.88486 99.897267 
L 551.03215 99.897267 
L 552.179439 99.897267 
L 553.326729 99.897267 
L 554.474019 99.897267 
L 555.621308 101.690876 
L 556.768598 101.690876 
L 557.915888 101.266252 
L 559.063178 101.266252 
L 560.210467 101.266252 
L 561.357757 101.266252 
L 562.505047 103.096684 
L 563.652336 103.532885 
L 564.799626 103.532885 
L 565.946916 110.36972 
L 567.094206 110.36972 
L 568.241495 110.36972 
L 569.388785 110.36972 
L 570.536075 126.071864 
L 571.683364 126.071864 
L 572.830654 126.438117 
L 573.977944 136.392381 
L 575.125234 136.392381 
L 576.272523 136.392381 
L 577.419813 136.392381 
L 578.567103 141.031423 
L 579.714393 145.03747 
L 580.861682 145.03747 
L 582.008972 149.981161 
L 583.156262 149.981161 
L 584.303551 149.981161 
L 585.450841 161.705372 
L 586.598131 161.705372 
L 587.745421 161.705372 
L 588.89271 161.705372 
L 590.04 161.705372 
L 591.18729 161.705372 
L 592.334579 161.705372 
L 593.481869 161.705372 
L 594.629159 164.284358 
L 595.776449 168.913043 
L 596.923738 170.52841 
L 598.071028 184.469856 
L 599.218318 184.469856 
L 600.365607 184.469856 
L 601.512897 184.469856 
L 602.660187 184.469856 
L 603.807477 188.805619 
L 604.954766 188.805619 
L 606.102056 188.805619 
L 607.249346 188.805619 
L 608.396636 191.928052 
L 609.543925 191.928052 
L 610.691215 207.001456 
L 611.838505 221.114752 
L 612.985794 226.375055 
L 614.133084 226.375055 
L 615.280374 226.375055 
L 616.427664 226.375055 
L 617.574953 234.415551 
L 618.722243 256.752843 
L 619.869533 265.868405 
L 621.016822 265.868405 
L 622.164112 269.089064 
L 623.311402 258.42473 
L 624.458692 258.42473 
L 625.605981 279.010266 
L 626.753271 297.264744 
L 627.900561 297.264744 
L 629.04785 297.264744 
L 630.19514 297.264744 
L 631.34243 297.264744 
L 632.48972 297.264744 
L 633.637009 297.264744 
L 634.784299 297.264744 
L 635.931589 297.264744 
L 637.078879 297.264744 
L 638.226168 297.264744 
L 639.373458 304.070752 
L 640.520748 316.077983 
L 641.668037 316.077983 
L 642.815327 325.947866 
L 643.962617 325.947866 
L 645.109907 325.947866 
L 646.257196 325.947866 
L 647.404486 325.947866 
L 648.551776 325.947866 
L 649.699065 328.262166 
L 650.846355 333.988362 
L 651.993645 333.988362 
L 653.140935 333.988362 
L 654.288224 333.988362 
L 655.435514 336.597545 
L 656.582804 322.979342 
L 657.730093 325.193546 
L 658.877383 325.193546 
L 660.024673 309.810712 
L 661.171963 309.810712 
L 662.319252 309.810712 
L 663.466542 298.776215 
L 664.613832 298.776215 
L 665.761121 280.553051 
L 666.908411 280.553051 
L 668.055701 270.085656 
L 669.202991 270.085656 
L 670.35028 270.085656 
L 671.49757 251.969658 
L 672.64486 251.969658 
L 673.79215 251.969658 
L 674.939439 241.300022 
L 676.086729 241.300022 
L 677.234019 241.300022 
L 678.381308 241.300022 
L 679.528598 232.652503 
L 680.675888 232.652503 
L 681.823178 220.464602 
L 682.970467 220.464602 
L 684.117757 203.003667 
L 685.265047 203.003667 
L 686.412336 203.003667 
L 687.559626 187.795759 
L 688.706916 187.795759 
L 689.854206 187.795759 
L 691.001495 172.985117 
L 692.148785 163.157145 
L 693.296075 163.157145 
L 694.443364 163.157145 
L 695.590654 141.284539 
L 696.737944 141.284539 
L 697.885234 141.284539 
L 699.032523 137.582946 
L 700.179813 131.827491 
L 701.327103 131.827491 
L 702.474393 131.827491 
L 703.621682 134.944345 
L 704.768972 106.881067 
L 705.916262 106.881067 
L 707.063551 105.786854 
L 708.210841 105.786854 
L 709.358131 105.786854 
L 710.505421 94.86 
L 711.65271 101.492389 
L 712.8 101.492389 
L 712.8 182.308489 
L 712.8 182.308489 
L 711.65271 182.308489 
L 710.505421 174.453245 
L 709.358131 157662.634912 
L 708.210841 157662.634912 
L 707.063551 157662.634912 
L 705.916262 157662.634912 
L 704.768972 157662.634912 
L 703.621682 157662.634912 
L 702.474393 233.040376 
L 701.327103 233.040376 
L 700.179813 233.040376 
L 699.032523 233.040376 
L 697.885234 260.719578 
L 696.737944 260.719578 
L 695.590654 313.501628 
L 694.443364 313.501628 
L 693.296075 313.501628 
L 692.148785 313.501628 
L 691.001495 313.501628 
L 689.854206 313.501628 
L 688.706916 313.501628 
L 687.559626 319.441487 
L 686.412336 319.441487 
L 685.265047 319.441487 
L 684.117757 319.441487 
L 682.970467 319.441487 
L 681.823178 319.441487 
L 680.675888 319.441487 
L 679.528598 341.180831 
L 678.381308 341.180831 
L 677.234019 341.180831 
L 676.086729 341.180831 
L 674.939439 341.180831 
L 673.79215 373.265776 
L 672.64486 373.265776 
L 671.49757 373.265776 
L 670.35028 157662.634912 
L 669.202991 157662.634912 
L 668.055701 157662.634912 
L 666.908411 157662.634912 
L 665.761121 157662.634912 
L 664.613832 157662.634912 
L 663.466542 157662.634912 
L 662.319252 157662.634912 
L 661.171963 157662.634912 
L 660.024673 157662.634912 
L 658.877383 157662.634912 
L 657.730093 157662.634912 
L 656.582804 157662.634912 
L 655.435514 157662.634912 
L 654.288224 435.81665 
L 653.140935 435.81665 
L 651.993645 435.81665 
L 650.846355 435.81665 
L 649.699065 408.137447 
L 648.551776 408.137447 
L 647.404486 408.137447 
L 646.257196 408.137447 
L 645.109907 408.137447 
L 643.962617 408.137447 
L 642.815327 408.137447 
L 641.668037 408.137447 
L 640.520748 408.137447 
L 639.373458 408.137447 
L 638.226168 408.137447 
L 637.078879 408.137447 
L 635.931589 408.137447 
L 634.784299 373.265776 
L 633.637009 373.265776 
L 632.48972 373.265776 
L 631.34243 388.49874 
L 630.19514 388.49874 
L 629.04785 367.452451 
L 627.900561 354.774412 
L 626.753271 336.597545 
L 625.605981 336.597545 
L 624.458692 333.988362 
L 623.311402 333.988362 
L 622.164112 333.988362 
L 621.016822 333.988362 
L 619.869533 326.710615 
L 618.722243 326.710615 
L 617.574953 325.947866 
L 616.427664 319.441487 
L 615.280374 312.87245 
L 614.133084 278.251755 
L 612.985794 271.779671 
L 611.838505 268.432662 
L 610.691215 265.242113 
L 609.543925 254.585508 
L 608.396636 247.740582 
L 607.249346 238.08442 
L 606.102056 231.883309 
L 604.954766 227.981372 
L 603.807477 226.023171 
L 602.660187 222.935269 
L 601.512897 219.50084 
L 600.365607 216.688599 
L 599.218318 216.688599 
L 598.071028 216.688599 
L 596.923738 210.825313 
L 595.776449 210.825313 
L 594.629159 210.825313 
L 593.481869 210.825313 
L 592.334579 210.405218 
L 591.18729 210.405218 
L 590.04 212.676207 
L 588.89271 210.405218 
L 587.745421 210.405218 
L 586.598131 210.405218 
L 585.450841 202.132448 
L 584.303551 199.941929 
L 583.156262 199.941929 
L 582.008972 193.65365 
L 580.861682 193.65365 
L 579.714393 193.65365 
L 578.567103 193.65365 
L 577.419813 193.65365 
L 576.272523 190.245001 
L 575.125234 172.74347 
L 573.977944 169.6775 
L 572.830654 169.6775 
L 571.683364 168.157052 
L 570.536075 164.855023 
L 569.388785 163.718425 
L 568.241495 164.855023 
L 567.094206 163.718425 
L 565.946916 161.773809 
L 564.799626 161.773809 
L 563.652336 157.978465 
L 562.505047 157.978465 
L 561.357757 157.978465 
L 560.210467 150.967587 
L 559.063178 150.909166 
L 557.915888 137.056538 
L 556.768598 137.056538 
L 555.621308 146.719101 
L 554.474019 146.719101 
L 553.326729 146.719101 
L 552.179439 146.719101 
L 551.03215 146.719101 
L 549.88486 147.325907 
L 548.73757 147.325907 
L 547.59028 147.325907 
L 546.442991 147.325907 
L 545.295701 147.325907 
L 544.148411 157.462279 
L 543.001121 162.531172 
L 541.853832 162.531172 
L 540.706542 162.531172 
L 539.559252 165.142154 
L 538.411963 165.142154 
L 537.264673 165.142154 
L 536.117383 166.449402 
L 534.970093 171.232586 
L 533.822804 171.232586 
L 532.675514 171.232586 
L 531.528224 171.232586 
L 530.380935 171.232586 
L 529.233645 171.232586 
L 528.086355 161.228229 
L 526.939065 161.160337 
L 525.791776 170.372908 
L 524.644486 170.372908 
L 523.497196 162.392843 
L 522.349907 162.392843 
L 521.202617 170.372908 
L 520.055327 170.372908 
L 518.908037 170.450615 
L 517.760748 170.450615 
L 516.613458 170.450615 
L 515.466168 170.450615 
L 514.318879 170.450615 
L 513.171589 170.450615 
L 512.024299 172.103228 
L 510.877009 174.618337 
L 509.72972 174.618337 
L 508.58243 174.618337 
L 507.43514 174.618337 
L 506.28785 174.618337 
L 505.140561 161.500474 
L 503.993271 161.500474 
L 502.845981 161.773809 
L 501.698692 161.773809 
L 500.551402 161.773809 
L 499.404112 161.773809 
L 498.256822 157.59096 
L 497.109533 157.59096 
L 495.962243 151.849961 
L 494.814953 151.613544 
L 493.667664 151.613544 
L 492.520374 150.559684 
L 491.373084 150.559684 
L 490.225794 150.559684 
L 489.078505 150.559684 
L 487.931215 150.559684 
L 486.783925 149.236337 
L 485.636636 149.236337 
L 484.489346 149.236337 
L 483.342056 149.236337 
L 482.194766 146.609349 
L 481.047477 149.236337 
L 479.900187 149.236337 
L 478.752897 149.236337 
L 477.605607 146.609349 
L 476.458318 146.609349 
L 475.311028 146.609349 
L 474.163738 146.609349 
L 473.016449 146.609349 
L 471.869159 146.55454 
L 470.721869 142.979064 
L 469.574579 146.55454 
L 468.42729 138.648101 
L 467.28 138.648101 
L 466.13271 138.648101 
L 464.985421 134.254558 
L 463.838131 138.648101 
L 462.690841 129.868836 
L 461.543551 138.648101 
L 460.396262 148.612387 
L 459.248972 148.612387 
L 458.101682 149.636386 
L 456.954393 149.636386 
L 455.807103 154.876401 
L 454.659813 160.350857 
L 453.512523 168.685365 
L 452.365234 175.282725 
L 451.217944 175.282725 
L 450.070654 177.315589 
L 448.923364 177.315589 
L 447.776075 182.308489 
L 446.628785 182.308489 
L 445.481495 182.308489 
L 444.334206 182.308489 
L 443.186916 182.308489 
L 442.039626 182.123738 
L 440.892336 182.123738 
L 439.745047 175.785294 
L 438.597757 182.308489 
L 437.450467 182.308489 
L 436.303178 172.823924 
L 435.155888 173.55231 
L 434.008598 171.944101 
L 432.861308 171.944101 
L 431.714019 168.382971 
L 430.566729 166.010865 
L 429.419439 166.376116 
L 428.27215 166.376116 
L 427.12486 166.376116 
L 425.97757 162.531172 
L 424.83028 162.531172 
L 423.682991 159.154356 
L 422.535701 159.154356 
L 421.388411 162.600442 
L 420.241121 173.715235 
L 419.093832 184.469856 
L 417.946542 184.469856 
L 416.799252 188.907431 
L 415.651963 189.111513 
L 414.504673 190.976236 
L 413.357383 189.111513 
L 412.210093 189.111513 
L 411.062804 189.111513 
L 409.915514 189.111513 
L 408.768224 189.111513 
L 407.620935 191.821637 
L 406.473645 191.821637 
L 405.326355 191.821637 
L 404.179065 201.028403 
L 403.031776 191.821637 
L 401.884486 191.821637 
L 400.737196 175.785294 
L 399.589907 175.11602 
L 398.442617 175.11602 
L 397.295327 184.565399 
L 396.148037 201.150196 
L 395.000748 213.255958 
L 393.853458 214.72725 
L 392.706168 217.458227 
L 391.558879 232.459391 
L 390.411589 245.37002 
L 389.264299 261.896595 
L 388.117009 261.896595 
L 386.96972 261.896595 
L 385.82243 262.492803 
L 384.67514 268.106812 
L 383.52785 269.089064 
L 382.380561 269.089064 
L 381.233271 279.010266 
L 380.085981 279.010266 
L 378.938692 279.010266 
L 377.791402 279.010266 
L 376.644112 282.93464 
L 375.496822 287.09845 
L 374.349533 291.532821 
L 373.202243 297.764858 
L 372.054953 312.87245 
L 370.907664 312.87245 
L 369.760374 312.87245 
L 368.613084 312.87245 
L 367.465794 312.87245 
L 366.318505 318.755398 
L 365.171215 318.755398 
L 364.023925 318.755398 
L 362.876636 318.755398 
L 361.729346 319.441487 
L 360.582056 319.441487 
L 359.434766 326.710615 
L 358.287477 333.988362 
L 357.140187 333.988362 
L 355.992897 334.847057 
L 354.845607 334.847057 
L 353.698318 334.847057 
L 352.551028 344.086176 
L 351.403738 344.086176 
L 350.256449 355.941369 
L 349.109159 381.306272 
L 347.961869 383.0346 
L 346.814579 383.0346 
L 345.66729 383.0346 
L 344.52 400.944978 
L 343.37271 400.944978 
L 342.225421 400.944978 
L 341.078131 400.944978 
L 339.930841 400.944978 
L 338.783551 400.944978 
L 337.636262 403.259278 
L 336.488972 403.259278 
L 335.341682 428.624181 
L 334.194393 428.624181 
L 333.047103 428.624181 
L 331.899813 428.624181 
L 330.752523 428.624181 
L 329.605234 428.624181 
L 328.457944 403.259278 
L 327.310654 403.259278 
L 326.163364 400.944978 
L 325.016075 400.944978 
L 323.868785 403.259278 
L 322.721495 403.259278 
L 321.574206 400.944978 
L 320.426916 403.259278 
L 319.279626 403.259278 
L 318.132336 403.259278 
L 316.985047 403.259278 
L 315.837757 403.259278 
L 314.690467 403.259278 
L 313.543178 403.259278 
L 312.395888 403.259278 
L 311.248598 400.944978 
L 310.101308 400.944978 
L 308.954019 368.860033 
L 307.806729 367.452451 
L 306.659439 367.452451 
L 305.51215 381.306272 
L 304.36486 381.306272 
L 303.21757 381.306272 
L 302.07028 381.306272 
L 300.922991 381.306272 
L 299.775701 381.306272 
L 298.628411 381.306272 
L 297.481121 381.306272 
L 296.333832 381.306272 
L 295.186542 381.306272 
L 294.039252 381.306272 
L 292.891963 381.306272 
L 291.744673 381.306272 
L 290.597383 381.306272 
L 289.450093 383.0346 
L 288.302804 368.860033 
L 287.155514 366.073307 
L 286.008224 366.073307 
L 284.860935 367.452451 
L 283.713645 367.452451 
L 282.566355 367.452451 
L 281.419065 367.452451 
L 280.271776 383.0346 
L 279.124486 400.944978 
L 277.977196 400.944978 
L 276.829907 403.259278 
L 275.682617 403.259278 
L 274.535327 403.259278 
L 273.388037 403.259278 
L 272.240748 403.259278 
L 271.093458 432.125734 
L 269.946168 432.125734 
L 268.798879 403.259278 
L 267.651589 403.259278 
L 266.504299 403.259278 
L 265.357009 403.259278 
L 264.20972 383.0346 
L 263.06243 381.306272 
L 261.91514 381.306272 
L 260.76785 367.452451 
L 259.620561 354.774412 
L 258.473271 354.774412 
L 257.325981 366.073307 
L 256.178692 366.073307 
L 255.031402 366.073307 
L 253.884112 367.452451 
L 252.736822 381.306272 
L 251.589533 381.306272 
L 250.442243 383.0346 
L 249.294953 383.0346 
L 248.147664 383.0346 
L 247.000374 403.259278 
L 245.853084 428.624181 
L 244.705794 428.624181 
L 243.558505 428.624181 
L 242.411215 428.624181 
L 241.263925 428.624181 
L 240.116636 428.624181 
L 238.969346 428.624181 
L 237.822056 428.624181 
L 236.674766 428.624181 
L 235.527477 428.624181 
L 234.380187 428.624181 
L 233.232897 428.624181 
L 232.085607 428.624181 
L 230.938318 428.624181 
L 229.791028 428.624181 
L 228.643738 428.624181 
L 227.496449 428.624181 
L 226.349159 403.259278 
L 225.201869 403.259278 
L 224.054579 403.259278 
L 222.90729 403.259278 
L 221.76 400.944978 
L 220.61271 400.944978 
L 219.465421 400.944978 
L 218.318131 368.860033 
L 217.170841 403.259278 
L 216.023551 403.259278 
L 214.876262 403.259278 
L 213.728972 368.860033 
L 212.581682 370.297251 
L 211.434393 367.452451 
L 210.287103 384.807824 
L 209.139813 428.624181 
L 207.992523 428.624181 
L 206.845234 428.624181 
L 205.697944 428.624181 
L 204.550654 428.624181 
L 203.403364 428.624181 
L 202.256075 428.624181 
L 201.108785 428.624181 
L 199.961495 428.624181 
L 198.814206 428.624181 
L 197.666916 428.624181 
L 196.519626 428.624181 
L 195.372336 428.624181 
L 194.225047 432.125734 
L 193.077757 432.125734 
L 191.930467 432.125734 
L 190.783178 432.125734 
L 189.635888 475.942091 
L 188.488598 475.942091 
L 187.341308 475.942091 
L 186.194019 475.942091 
L 185.046729 475.942091 
L 183.899439 475.942091 
L 182.75215 475.942091 
L 181.60486 475.942091 
L 180.45757 475.942091 
L 179.31028 475.942091 
L 178.162991 432.125734 
L 177.015701 428.624181 
L 175.868411 428.624181 
L 174.721121 432.125734 
L 173.573832 403.259278 
L 172.426542 383.0346 
L 171.279252 383.0346 
L 170.131963 381.306272 
L 168.984673 381.306272 
L 167.837383 384.807824 
L 166.690093 381.306272 
L 165.542804 384.807824 
L 164.395514 384.807824 
L 163.248224 384.807824 
L 162.100935 384.807824 
L 160.953645 384.807824 
L 159.806355 384.807824 
L 158.659065 381.306272 
L 157.511776 381.306272 
L 156.364486 381.306272 
L 155.217196 381.306272 
L 154.069907 381.306272 
L 152.922617 367.452451 
L 151.775327 345.082768 
L 150.628037 327.481983 
L 149.480748 325.947866 
L 148.333458 313.501628 
L 147.186168 288.837788 
L 146.038879 288.837788 
L 144.891589 269.751839 
L 143.744299 269.419647 
L 142.597009 262.492803 
L 141.44972 249.698145 
L 140.30243 249.698145 
L 139.15514 249.450357 
L 138.00785 251.713503 
L 136.860561 254.054257 
L 135.713271 251.204058 
L 134.565981 251.204058 
L 133.418692 254.054257 
L 132.271402 259.276283 
L 131.124112 262.492803 
L 129.976822 268.432662 
L 128.829533 271.437488 
L 127.682243 271.437488 
L 126.534953 276.025515 
L 125.387664 345.082768 
L 124.240374 367.452451 
L 123.093084 383.0346 
L 121.945794 400.944978 
L 120.798505 400.944978 
L 119.651215 400.944978 
L 118.503925 403.259278 
L 117.356636 432.125734 
L 116.209346 483.134559 
L 115.062056 157662.634912 
L 113.914766 157662.634912 
L 112.767477 157662.634912 
L 111.620187 157662.634912 
L 110.472897 157662.634912 
L 109.325607 157662.634912 
L 108.178318 157662.634912 
L 107.031028 157662.634912 
L 105.883738 157662.634912 
L 104.736449 157662.634912 
L 103.589159 157662.634912 
L 102.441869 157662.634912 
L 101.294579 157662.634912 
L 100.14729 157662.634912 
L 99 157662.634912 
z
" style="fill:#8080ff;fill-opacity:0.5;stroke:#8080ff;stroke-opacity:0.5;"/>
   </g>
   <g id="PolyCollection_2">
    <path clip-path="url(#p68e2955192)" d="M 99 157662.634912 
L 99 157662.634912 
L 100.14729 157662.634912 
L 101.294579 157662.634912 
L 102.441869 157662.634912 
L 103.589159 157662.634912 
L 104.736449 157662.634912 
L 105.883738 157662.634912 
L 107.031028 157662.634912 
L 108.178318 157662.634912 
L 109.325607 157662.634912 
L 110.472897 157662.634912 
L 111.620187 157662.634912 
L 112.767477 157662.634912 
L 113.914766 157662.634912 
L 115.062056 157662.634912 
L 116.209346 157662.634912 
L 117.356636 157662.634912 
L 118.503925 452.972708 
L 119.651215 439.718587 
L 120.798505 439.718587 
L 121.945794 439.718587 
L 123.093084 428.624181 
L 124.240374 428.624181 
L 125.387664 428.624181 
L 126.534953 428.624181 
L 127.682243 408.137447 
L 128.829533 408.137447 
L 129.976822 408.137447 
L 131.124112 400.944978 
L 132.271402 400.944978 
L 133.418692 400.944978 
L 134.565981 408.137447 
L 135.713271 408.137447 
L 136.860561 408.137447 
L 138.00785 408.137447 
L 139.15514 408.137447 
L 140.30243 408.137447 
L 141.44972 408.137447 
L 142.597009 408.137447 
L 143.744299 428.624181 
L 144.891589 408.137447 
L 146.038879 408.137447 
L 147.186168 428.624181 
L 148.333458 428.624181 
L 149.480748 428.624181 
L 150.628037 428.624181 
L 151.775327 428.624181 
L 152.922617 408.137447 
L 154.069907 408.137447 
L 155.217196 408.137447 
L 156.364486 408.137447 
L 157.511776 408.137447 
L 158.659065 408.137447 
L 159.806355 408.137447 
L 160.953645 428.624181 
L 162.100935 428.624181 
L 163.248224 428.624181 
L 164.395514 428.624181 
L 165.542804 428.624181 
L 166.690093 428.624181 
L 167.837383 428.624181 
L 168.984673 428.624181 
L 170.131963 428.624181 
L 171.279252 439.718587 
L 172.426542 439.718587 
L 173.573832 439.718587 
L 174.721121 439.718587 
L 175.868411 439.718587 
L 177.015701 475.942091 
L 178.162991 475.942091 
L 179.31028 500.290617 
L 180.45757 500.290617 
L 181.60486 500.290617 
L 182.75215 500.290617 
L 183.899439 500.290617 
L 185.046729 157662.634912 
L 186.194019 157662.634912 
L 187.341308 157662.634912 
L 188.488598 157662.634912 
L 189.635888 157662.634912 
L 190.783178 157662.634912 
L 191.930467 157662.634912 
L 193.077757 500.290617 
L 194.225047 500.290617 
L 195.372336 500.290617 
L 196.519626 157662.634912 
L 197.666916 157662.634912 
L 198.814206 157662.634912 
L 199.961495 157662.634912 
L 201.108785 157662.634912 
L 202.256075 157662.634912 
L 203.403364 157662.634912 
L 204.550654 157662.634912 
L 205.697944 157662.634912 
L 206.845234 157662.634912 
L 207.992523 157662.634912 
L 209.139813 157662.634912 
L 210.287103 157662.634912 
L 211.434393 157662.634912 
L 212.581682 157662.634912 
L 213.728972 157662.634912 
L 214.876262 157662.634912 
L 216.023551 157662.634912 
L 217.170841 157662.634912 
L 218.318131 157662.634912 
L 219.465421 157662.634912 
L 220.61271 157662.634912 
L 221.76 157662.634912 
L 222.90729 157662.634912 
L 224.054579 157662.634912 
L 225.201869 157662.634912 
L 226.349159 157662.634912 
L 227.496449 157662.634912 
L 228.643738 157662.634912 
L 229.791028 157662.634912 
L 230.938318 157662.634912 
L 232.085607 157662.634912 
L 233.232897 157662.634912 
L 234.380187 157662.634912 
L 235.527477 157662.634912 
L 236.674766 157662.634912 
L 237.822056 157662.634912 
L 238.969346 157662.634912 
L 240.116636 157662.634912 
L 241.263925 157662.634912 
L 242.411215 157662.634912 
L 243.558505 157662.634912 
L 244.705794 157662.634912 
L 245.853084 157662.634912 
L 247.000374 157662.634912 
L 248.147664 157662.634912 
L 249.294953 157662.634912 
L 250.442243 157662.634912 
L 251.589533 157662.634912 
L 252.736822 157662.634912 
L 253.884112 157662.634912 
L 255.031402 157662.634912 
L 256.178692 157662.634912 
L 257.325981 157662.634912 
L 258.473271 157662.634912 
L 259.620561 157662.634912 
L 260.76785 157662.634912 
L 261.91514 157662.634912 
L 263.06243 157662.634912 
L 264.20972 157662.634912 
L 265.357009 157662.634912 
L 266.504299 157662.634912 
L 267.651589 157662.634912 
L 268.798879 157662.634912 
L 269.946168 157662.634912 
L 271.093458 157662.634912 
L 272.240748 157662.634912 
L 273.388037 500.290617 
L 274.535327 500.290617 
L 275.682617 500.290617 
L 276.829907 500.290617 
L 277.977196 500.290617 
L 279.124486 500.290617 
L 280.271776 500.290617 
L 281.419065 157662.634912 
L 282.566355 157662.634912 
L 283.713645 157662.634912 
L 284.860935 157662.634912 
L 286.008224 157662.634912 
L 287.155514 157662.634912 
L 288.302804 157662.634912 
L 289.450093 157662.634912 
L 290.597383 157662.634912 
L 291.744673 157662.634912 
L 292.891963 157662.634912 
L 294.039252 157662.634912 
L 295.186542 157662.634912 
L 296.333832 157662.634912 
L 297.481121 157662.634912 
L 298.628411 157662.634912 
L 299.775701 157662.634912 
L 300.922991 157662.634912 
L 302.07028 157662.634912 
L 303.21757 157662.634912 
L 304.36486 157662.634912 
L 305.51215 157662.634912 
L 306.659439 157662.634912 
L 307.806729 157662.634912 
L 308.954019 157662.634912 
L 310.101308 157662.634912 
L 311.248598 157662.634912 
L 312.395888 157662.634912 
L 313.543178 157662.634912 
L 314.690467 157662.634912 
L 315.837757 157662.634912 
L 316.985047 157662.634912 
L 318.132336 157662.634912 
L 319.279626 157662.634912 
L 320.426916 157662.634912 
L 321.574206 157662.634912 
L 322.721495 157662.634912 
L 323.868785 157662.634912 
L 325.016075 157662.634912 
L 326.163364 157662.634912 
L 327.310654 157662.634912 
L 328.457944 157662.634912 
L 329.605234 157662.634912 
L 330.752523 157662.634912 
L 331.899813 157662.634912 
L 333.047103 157662.634912 
L 334.194393 157662.634912 
L 335.341682 157662.634912 
L 336.488972 157662.634912 
L 337.636262 157662.634912 
L 338.783551 157662.634912 
L 339.930841 157662.634912 
L 341.078131 157662.634912 
L 342.225421 157662.634912 
L 343.37271 157662.634912 
L 344.52 157662.634912 
L 345.66729 157662.634912 
L 346.814579 157662.634912 
L 347.961869 157662.634912 
L 349.109159 157662.634912 
L 350.256449 157662.634912 
L 351.403738 157662.634912 
L 352.551028 157662.634912 
L 353.698318 157662.634912 
L 354.845607 157662.634912 
L 355.992897 157662.634912 
L 357.140187 157662.634912 
L 358.287477 157662.634912 
L 359.434766 157662.634912 
L 360.582056 157662.634912 
L 361.729346 157662.634912 
L 362.876636 157662.634912 
L 364.023925 157662.634912 
L 365.171215 157662.634912 
L 366.318505 157662.634912 
L 367.465794 157662.634912 
L 368.613084 157662.634912 
L 369.760374 157662.634912 
L 370.907664 157662.634912 
L 372.054953 157662.634912 
L 373.202243 157662.634912 
L 374.349533 157662.634912 
L 375.496822 157662.634912 
L 376.644112 157662.634912 
L 377.791402 157662.634912 
L 378.938692 157662.634912 
L 380.085981 157662.634912 
L 381.233271 157662.634912 
L 382.380561 157662.634912 
L 383.52785 157662.634912 
L 384.67514 157662.634912 
L 385.82243 157662.634912 
L 386.96972 157662.634912 
L 388.117009 157662.634912 
L 389.264299 157662.634912 
L 390.411589 157662.634912 
L 391.558879 157662.634912 
L 392.706168 500.290617 
L 393.853458 475.942091 
L 395.000748 475.942091 
L 396.148037 475.942091 
L 397.295327 475.942091 
L 398.442617 475.942091 
L 399.589907 475.942091 
L 400.737196 475.942091 
L 401.884486 475.942091 
L 403.031776 475.942091 
L 404.179065 475.942091 
L 405.326355 475.942091 
L 406.473645 439.718587 
L 407.620935 408.137447 
L 408.768224 408.137447 
L 409.915514 408.137447 
L 411.062804 408.137447 
L 412.210093 408.137447 
L 413.357383 408.137447 
L 414.504673 408.137447 
L 415.651963 400.944978 
L 416.799252 400.944978 
L 417.946542 400.944978 
L 419.093832 386.628341 
L 420.241121 386.628341 
L 421.388411 386.628341 
L 422.535701 386.628341 
L 423.682991 381.306272 
L 424.83028 381.306272 
L 425.97757 381.306272 
L 427.12486 381.306272 
L 428.27215 381.306272 
L 429.419439 381.306272 
L 430.566729 381.306272 
L 431.714019 381.306272 
L 432.861308 370.297251 
L 434.008598 370.297251 
L 435.155888 370.297251 
L 436.303178 370.297251 
L 437.450467 366.073307 
L 438.597757 366.073307 
L 439.745047 366.073307 
L 440.892336 370.297251 
L 442.039626 370.297251 
L 443.186916 370.297251 
L 444.334206 370.297251 
L 445.481495 370.297251 
L 446.628785 370.297251 
L 447.776075 366.073307 
L 448.923364 370.297251 
L 450.070654 370.297251 
L 451.217944 370.297251 
L 452.365234 370.297251 
L 453.512523 381.306272 
L 454.659813 381.306272 
L 455.807103 381.306272 
L 456.954393 386.628341 
L 458.101682 381.306272 
L 459.248972 381.306272 
L 460.396262 381.306272 
L 461.543551 381.306272 
L 462.690841 386.628341 
L 463.838131 400.944978 
L 464.985421 408.137447 
L 466.13271 408.137447 
L 467.28 408.137447 
L 468.42729 408.137447 
L 469.574579 408.137447 
L 470.721869 408.137447 
L 471.869159 408.137447 
L 473.016449 408.137447 
L 474.163738 439.718587 
L 475.311028 439.718587 
L 476.458318 439.718587 
L 477.605607 439.718587 
L 478.752897 439.718587 
L 479.900187 439.718587 
L 481.047477 416.177943 
L 482.194766 439.718587 
L 483.342056 439.718587 
L 484.489346 439.718587 
L 485.636636 439.718587 
L 486.783925 439.718587 
L 487.931215 408.137447 
L 489.078505 408.137447 
L 490.225794 408.137447 
L 491.373084 408.137447 
L 492.520374 408.137447 
L 493.667664 408.137447 
L 494.814953 408.137447 
L 495.962243 408.137447 
L 497.109533 439.718587 
L 498.256822 439.718587 
L 499.404112 439.718587 
L 500.551402 408.137447 
L 501.698692 408.137447 
L 502.845981 408.137447 
L 503.993271 439.718587 
L 505.140561 428.624181 
L 506.28785 428.624181 
L 507.43514 428.624181 
L 508.58243 428.624181 
L 509.72972 428.624181 
L 510.877009 428.624181 
L 512.024299 428.624181 
L 513.171589 428.624181 
L 514.318879 428.624181 
L 515.466168 428.624181 
L 516.613458 439.718587 
L 517.760748 439.718587 
L 518.908037 439.718587 
L 520.055327 428.624181 
L 521.202617 439.718587 
L 522.349907 475.942091 
L 523.497196 475.942091 
L 524.644486 439.718587 
L 525.791776 439.718587 
L 526.939065 439.718587 
L 528.086355 439.718587 
L 529.233645 428.624181 
L 530.380935 428.624181 
L 531.528224 428.624181 
L 532.675514 428.624181 
L 533.822804 428.624181 
L 534.970093 428.624181 
L 536.117383 428.624181 
L 537.264673 428.624181 
L 538.411963 428.624181 
L 539.559252 428.624181 
L 540.706542 428.624181 
L 541.853832 428.624181 
L 543.001121 428.624181 
L 544.148411 428.624181 
L 545.295701 428.624181 
L 546.442991 428.624181 
L 547.59028 428.624181 
L 548.73757 439.718587 
L 549.88486 439.718587 
L 551.03215 439.718587 
L 552.179439 439.718587 
L 553.326729 475.942091 
L 554.474019 475.942091 
L 555.621308 475.942091 
L 556.768598 475.942091 
L 557.915888 475.942091 
L 559.063178 439.718587 
L 560.210467 439.718587 
L 561.357757 439.718587 
L 562.505047 408.137447 
L 563.652336 408.137447 
L 564.799626 408.137447 
L 565.946916 408.137447 
L 567.094206 408.137447 
L 568.241495 408.137447 
L 569.388785 408.137447 
L 570.536075 408.137447 
L 571.683364 408.137447 
L 572.830654 408.137447 
L 573.977944 408.137447 
L 575.125234 408.137447 
L 576.272523 408.137447 
L 577.419813 439.718587 
L 578.567103 475.942091 
L 579.714393 475.942091 
L 580.861682 475.942091 
L 582.008972 475.942091 
L 583.156262 475.942091 
L 584.303551 475.942091 
L 585.450841 475.942091 
L 586.598131 475.942091 
L 587.745421 475.942091 
L 588.89271 475.942091 
L 590.04 475.942091 
L 591.18729 475.942091 
L 592.334579 475.942091 
L 593.481869 475.942091 
L 594.629159 475.942091 
L 595.776449 475.942091 
L 596.923738 475.942091 
L 598.071028 475.942091 
L 599.218318 475.942091 
L 600.365607 439.718587 
L 601.512897 439.718587 
L 602.660187 439.718587 
L 603.807477 439.718587 
L 604.954766 439.718587 
L 606.102056 439.718587 
L 607.249346 439.718587 
L 608.396636 475.942091 
L 609.543925 500.290617 
L 610.691215 500.290617 
L 611.838505 500.290617 
L 612.985794 500.290617 
L 614.133084 500.290617 
L 615.280374 500.290617 
L 616.427664 157662.634912 
L 617.574953 157662.634912 
L 618.722243 157662.634912 
L 619.869533 157662.634912 
L 621.016822 157662.634912 
L 622.164112 157662.634912 
L 623.311402 157662.634912 
L 624.458692 157662.634912 
L 625.605981 157662.634912 
L 626.753271 157662.634912 
L 627.900561 157662.634912 
L 629.04785 157662.634912 
L 630.19514 157662.634912 
L 631.34243 157662.634912 
L 632.48972 157662.634912 
L 633.637009 157662.634912 
L 634.784299 157662.634912 
L 635.931589 157662.634912 
L 637.078879 157662.634912 
L 638.226168 157662.634912 
L 639.373458 157662.634912 
L 640.520748 157662.634912 
L 641.668037 157662.634912 
L 642.815327 157662.634912 
L 643.962617 157662.634912 
L 645.109907 157662.634912 
L 646.257196 157662.634912 
L 647.404486 157662.634912 
L 648.551776 157662.634912 
L 649.699065 157662.634912 
L 650.846355 157662.634912 
L 651.993645 500.290617 
L 653.140935 500.290617 
L 654.288224 500.290617 
L 655.435514 500.290617 
L 656.582804 500.290617 
L 657.730093 500.290617 
L 658.877383 500.290617 
L 660.024673 500.290617 
L 661.171963 500.290617 
L 662.319252 500.290617 
L 663.466542 500.290617 
L 664.613832 500.290617 
L 665.761121 500.290617 
L 666.908411 157662.634912 
L 668.055701 157662.634912 
L 669.202991 157662.634912 
L 670.35028 157662.634912 
L 671.49757 157662.634912 
L 672.64486 157662.634912 
L 673.79215 157662.634912 
L 674.939439 157662.634912 
L 676.086729 157662.634912 
L 677.234019 157662.634912 
L 678.381308 157662.634912 
L 679.528598 157662.634912 
L 680.675888 157662.634912 
L 681.823178 157662.634912 
L 682.970467 157662.634912 
L 684.117757 500.290617 
L 685.265047 500.290617 
L 686.412336 500.290617 
L 687.559626 157662.634912 
L 688.706916 157662.634912 
L 689.854206 157662.634912 
L 691.001495 157662.634912 
L 692.148785 157662.634912 
L 693.296075 157662.634912 
L 694.443364 157662.634912 
L 695.590654 500.290617 
L 696.737944 475.942091 
L 697.885234 475.942091 
L 699.032523 475.942091 
L 700.179813 475.942091 
L 701.327103 475.942091 
L 702.474393 475.942091 
L 703.621682 475.942091 
L 704.768972 475.942091 
L 705.916262 439.718587 
L 707.063551 439.718587 
L 708.210841 428.624181 
L 709.358131 428.624181 
L 710.505421 428.624181 
L 711.65271 439.718587 
L 712.8 439.718587 
L 712.8 157662.634912 
L 712.8 157662.634912 
L 711.65271 157662.634912 
L 710.505421 157662.634912 
L 709.358131 157662.634912 
L 708.210841 157662.634912 
L 707.063551 157662.634912 
L 705.916262 157662.634912 
L 704.768972 157662.634912 
L 703.621682 157662.634912 
L 702.474393 157662.634912 
L 701.327103 157662.634912 
L 700.179813 157662.634912 
L 699.032523 157662.634912 
L 697.885234 157662.634912 
L 696.737944 157662.634912 
L 695.590654 157662.634912 
L 694.443364 157662.634912 
L 693.296075 157662.634912 
L 692.148785 157662.634912 
L 691.001495 157662.634912 
L 689.854206 157662.634912 
L 688.706916 157662.634912 
L 687.559626 157662.634912 
L 686.412336 157662.634912 
L 685.265047 157662.634912 
L 684.117757 157662.634912 
L 682.970467 157662.634912 
L 681.823178 157662.634912 
L 680.675888 157662.634912 
L 679.528598 157662.634912 
L 678.381308 157662.634912 
L 677.234019 157662.634912 
L 676.086729 157662.634912 
L 674.939439 157662.634912 
L 673.79215 157662.634912 
L 672.64486 157662.634912 
L 671.49757 157662.634912 
L 670.35028 157662.634912 
L 669.202991 157662.634912 
L 668.055701 157662.634912 
L 666.908411 157662.634912 
L 665.761121 157662.634912 
L 664.613832 157662.634912 
L 663.466542 157662.634912 
L 662.319252 157662.634912 
L 661.171963 157662.634912 
L 660.024673 157662.634912 
L 658.877383 157662.634912 
L 657.730093 157662.634912 
L 656.582804 157662.634912 
L 655.435514 157662.634912 
L 654.288224 157662.634912 
L 653.140935 157662.634912 
L 651.993645 157662.634912 
L 650.846355 157662.634912 
L 649.699065 157662.634912 
L 648.551776 157662.634912 
L 647.404486 157662.634912 
L 646.257196 157662.634912 
L 645.109907 157662.634912 
L 643.962617 157662.634912 
L 642.815327 157662.634912 
L 641.668037 157662.634912 
L 640.520748 157662.634912 
L 639.373458 157662.634912 
L 638.226168 157662.634912 
L 637.078879 157662.634912 
L 635.931589 157662.634912 
L 634.784299 157662.634912 
L 633.637009 157662.634912 
L 632.48972 157662.634912 
L 631.34243 157662.634912 
L 630.19514 157662.634912 
L 629.04785 157662.634912 
L 627.900561 157662.634912 
L 626.753271 157662.634912 
L 625.605981 157662.634912 
L 624.458692 157662.634912 
L 623.311402 157662.634912 
L 622.164112 157662.634912 
L 621.016822 157662.634912 
L 619.869533 157662.634912 
L 618.722243 157662.634912 
L 617.574953 157662.634912 
L 616.427664 157662.634912 
L 615.280374 157662.634912 
L 614.133084 157662.634912 
L 612.985794 157662.634912 
L 611.838505 157662.634912 
L 610.691215 157662.634912 
L 609.543925 157662.634912 
L 608.396636 157662.634912 
L 607.249346 157662.634912 
L 606.102056 157662.634912 
L 604.954766 157662.634912 
L 603.807477 157662.634912 
L 602.660187 157662.634912 
L 601.512897 157662.634912 
L 600.365607 157662.634912 
L 599.218318 157662.634912 
L 598.071028 157662.634912 
L 596.923738 157662.634912 
L 595.776449 157662.634912 
L 594.629159 157662.634912 
L 593.481869 157662.634912 
L 592.334579 157662.634912 
L 591.18729 157662.634912 
L 590.04 157662.634912 
L 588.89271 157662.634912 
L 587.745421 157662.634912 
L 586.598131 157662.634912 
L 585.450841 157662.634912 
L 584.303551 157662.634912 
L 583.156262 157662.634912 
L 582.008972 157662.634912 
L 580.861682 157662.634912 
L 579.714393 157662.634912 
L 578.567103 157662.634912 
L 577.419813 157662.634912 
L 576.272523 157662.634912 
L 575.125234 157662.634912 
L 573.977944 157662.634912 
L 572.830654 157662.634912 
L 571.683364 157662.634912 
L 570.536075 157662.634912 
L 569.388785 157662.634912 
L 568.241495 157662.634912 
L 567.094206 157662.634912 
L 565.946916 157662.634912 
L 564.799626 157662.634912 
L 563.652336 157662.634912 
L 562.505047 157662.634912 
L 561.357757 157662.634912 
L 560.210467 157662.634912 
L 559.063178 157662.634912 
L 557.915888 157662.634912 
L 556.768598 157662.634912 
L 555.621308 157662.634912 
L 554.474019 157662.634912 
L 553.326729 157662.634912 
L 552.179439 157662.634912 
L 551.03215 157662.634912 
L 549.88486 157662.634912 
L 548.73757 157662.634912 
L 547.59028 157662.634912 
L 546.442991 157662.634912 
L 545.295701 157662.634912 
L 544.148411 157662.634912 
L 543.001121 157662.634912 
L 541.853832 157662.634912 
L 540.706542 157662.634912 
L 539.559252 157662.634912 
L 538.411963 157662.634912 
L 537.264673 157662.634912 
L 536.117383 157662.634912 
L 534.970093 157662.634912 
L 533.822804 157662.634912 
L 532.675514 157662.634912 
L 531.528224 157662.634912 
L 530.380935 157662.634912 
L 529.233645 157662.634912 
L 528.086355 157662.634912 
L 526.939065 157662.634912 
L 525.791776 157662.634912 
L 524.644486 157662.634912 
L 523.497196 157662.634912 
L 522.349907 157662.634912 
L 521.202617 157662.634912 
L 520.055327 157662.634912 
L 518.908037 157662.634912 
L 517.760748 157662.634912 
L 516.613458 483.134559 
L 515.466168 483.134559 
L 514.318879 483.134559 
L 513.171589 475.942091 
L 512.024299 483.134559 
L 510.877009 483.134559 
L 509.72972 483.134559 
L 508.58243 483.134559 
L 507.43514 483.134559 
L 506.28785 483.134559 
L 505.140561 483.134559 
L 503.993271 483.134559 
L 502.845981 483.134559 
L 501.698692 157662.634912 
L 500.551402 157662.634912 
L 499.404112 157662.634912 
L 498.256822 157662.634912 
L 497.109533 157662.634912 
L 495.962243 483.134559 
L 494.814953 483.134559 
L 493.667664 483.134559 
L 492.520374 475.942091 
L 491.373084 475.942091 
L 490.225794 475.942091 
L 489.078505 483.134559 
L 487.931215 483.134559 
L 486.783925 157662.634912 
L 485.636636 483.134559 
L 484.489346 157662.634912 
L 483.342056 157662.634912 
L 482.194766 483.134559 
L 481.047477 483.134559 
L 479.900187 483.134559 
L 478.752897 157662.634912 
L 477.605607 157662.634912 
L 476.458318 157662.634912 
L 475.311028 157662.634912 
L 474.163738 157662.634912 
L 473.016449 157662.634912 
L 471.869159 157662.634912 
L 470.721869 157662.634912 
L 469.574579 157662.634912 
L 468.42729 157662.634912 
L 467.28 157662.634912 
L 466.13271 157662.634912 
L 464.985421 157662.634912 
L 463.838131 157662.634912 
L 462.690841 157662.634912 
L 461.543551 157662.634912 
L 460.396262 157662.634912 
L 459.248972 483.134559 
L 458.101682 157662.634912 
L 456.954393 157662.634912 
L 455.807103 483.134559 
L 454.659813 483.134559 
L 453.512523 475.942091 
L 452.365234 475.942091 
L 451.217944 475.942091 
L 450.070654 475.942091 
L 448.923364 475.942091 
L 447.776075 475.942091 
L 446.628785 475.942091 
L 445.481495 475.942091 
L 444.334206 475.942091 
L 443.186916 475.942091 
L 442.039626 475.942091 
L 440.892336 475.942091 
L 439.745047 475.942091 
L 438.597757 475.942091 
L 437.450467 475.942091 
L 436.303178 483.134559 
L 435.155888 483.134559 
L 434.008598 475.942091 
L 432.861308 475.942091 
L 431.714019 475.942091 
L 430.566729 475.942091 
L 429.419439 475.942091 
L 428.27215 475.942091 
L 427.12486 475.942091 
L 425.97757 475.942091 
L 424.83028 475.942091 
L 423.682991 475.942091 
L 422.535701 475.942091 
L 421.388411 432.125734 
L 420.241121 432.125734 
L 419.093832 475.942091 
L 417.946542 475.942091 
L 416.799252 483.134559 
L 415.651963 157662.634912 
L 414.504673 157662.634912 
L 413.357383 157662.634912 
L 412.210093 157662.634912 
L 411.062804 157662.634912 
L 409.915514 157662.634912 
L 408.768224 157662.634912 
L 407.620935 157662.634912 
L 406.473645 157662.634912 
L 405.326355 157662.634912 
L 404.179065 157662.634912 
L 403.031776 157662.634912 
L 401.884486 157662.634912 
L 400.737196 157662.634912 
L 399.589907 157662.634912 
L 398.442617 157662.634912 
L 397.295327 157662.634912 
L 396.148037 157662.634912 
L 395.000748 157662.634912 
L 393.853458 157662.634912 
L 392.706168 157662.634912 
L 391.558879 157662.634912 
L 390.411589 157662.634912 
L 389.264299 157662.634912 
L 388.117009 157662.634912 
L 386.96972 157662.634912 
L 385.82243 157662.634912 
L 384.67514 157662.634912 
L 383.52785 157662.634912 
L 382.380561 157662.634912 
L 381.233271 157662.634912 
L 380.085981 157662.634912 
L 378.938692 157662.634912 
L 377.791402 157662.634912 
L 376.644112 157662.634912 
L 375.496822 157662.634912 
L 374.349533 157662.634912 
L 373.202243 157662.634912 
L 372.054953 157662.634912 
L 370.907664 157662.634912 
L 369.760374 157662.634912 
L 368.613084 157662.634912 
L 367.465794 157662.634912 
L 366.318505 157662.634912 
L 365.171215 157662.634912 
L 364.023925 157662.634912 
L 362.876636 157662.634912 
L 361.729346 157662.634912 
L 360.582056 157662.634912 
L 359.434766 157662.634912 
L 358.287477 157662.634912 
L 357.140187 157662.634912 
L 355.992897 157662.634912 
L 354.845607 157662.634912 
L 353.698318 157662.634912 
L 352.551028 157662.634912 
L 351.403738 157662.634912 
L 350.256449 157662.634912 
L 349.109159 157662.634912 
L 347.961869 157662.634912 
L 346.814579 157662.634912 
L 345.66729 157662.634912 
L 344.52 157662.634912 
L 343.37271 157662.634912 
L 342.225421 157662.634912 
L 341.078131 157662.634912 
L 339.930841 157662.634912 
L 338.783551 157662.634912 
L 337.636262 157662.634912 
L 336.488972 157662.634912 
L 335.341682 157662.634912 
L 334.194393 157662.634912 
L 333.047103 157662.634912 
L 331.899813 157662.634912 
L 330.752523 157662.634912 
L 329.605234 157662.634912 
L 328.457944 157662.634912 
L 327.310654 157662.634912 
L 326.163364 157662.634912 
L 325.016075 157662.634912 
L 323.868785 157662.634912 
L 322.721495 157662.634912 
L 321.574206 157662.634912 
L 320.426916 157662.634912 
L 319.279626 157662.634912 
L 318.132336 157662.634912 
L 316.985047 157662.634912 
L 315.837757 157662.634912 
L 314.690467 157662.634912 
L 313.543178 157662.634912 
L 312.395888 157662.634912 
L 311.248598 157662.634912 
L 310.101308 157662.634912 
L 308.954019 157662.634912 
L 307.806729 157662.634912 
L 306.659439 157662.634912 
L 305.51215 157662.634912 
L 304.36486 157662.634912 
L 303.21757 157662.634912 
L 302.07028 157662.634912 
L 300.922991 157662.634912 
L 299.775701 157662.634912 
L 298.628411 157662.634912 
L 297.481121 157662.634912 
L 296.333832 157662.634912 
L 295.186542 157662.634912 
L 294.039252 157662.634912 
L 292.891963 157662.634912 
L 291.744673 157662.634912 
L 290.597383 157662.634912 
L 289.450093 157662.634912 
L 288.302804 157662.634912 
L 287.155514 157662.634912 
L 286.008224 157662.634912 
L 284.860935 157662.634912 
L 283.713645 157662.634912 
L 282.566355 157662.634912 
L 281.419065 157662.634912 
L 280.271776 157662.634912 
L 279.124486 157662.634912 
L 277.977196 157662.634912 
L 276.829907 157662.634912 
L 275.682617 157662.634912 
L 274.535327 157662.634912 
L 273.388037 157662.634912 
L 272.240748 157662.634912 
L 271.093458 157662.634912 
L 269.946168 157662.634912 
L 268.798879 157662.634912 
L 267.651589 157662.634912 
L 266.504299 157662.634912 
L 265.357009 157662.634912 
L 264.20972 157662.634912 
L 263.06243 157662.634912 
L 261.91514 157662.634912 
L 260.76785 157662.634912 
L 259.620561 157662.634912 
L 258.473271 157662.634912 
L 257.325981 157662.634912 
L 256.178692 157662.634912 
L 255.031402 157662.634912 
L 253.884112 157662.634912 
L 252.736822 157662.634912 
L 251.589533 157662.634912 
L 250.442243 157662.634912 
L 249.294953 157662.634912 
L 248.147664 157662.634912 
L 247.000374 157662.634912 
L 245.853084 157662.634912 
L 244.705794 157662.634912 
L 243.558505 157662.634912 
L 242.411215 157662.634912 
L 241.263925 157662.634912 
L 240.116636 157662.634912 
L 238.969346 157662.634912 
L 237.822056 157662.634912 
L 236.674766 157662.634912 
L 235.527477 157662.634912 
L 234.380187 157662.634912 
L 233.232897 157662.634912 
L 232.085607 157662.634912 
L 230.938318 157662.634912 
L 229.791028 157662.634912 
L 228.643738 157662.634912 
L 227.496449 157662.634912 
L 226.349159 157662.634912 
L 225.201869 157662.634912 
L 224.054579 157662.634912 
L 222.90729 157662.634912 
L 221.76 157662.634912 
L 220.61271 157662.634912 
L 219.465421 157662.634912 
L 218.318131 157662.634912 
L 217.170841 157662.634912 
L 216.023551 157662.634912 
L 214.876262 157662.634912 
L 213.728972 157662.634912 
L 212.581682 157662.634912 
L 211.434393 157662.634912 
L 210.287103 157662.634912 
L 209.139813 157662.634912 
L 207.992523 157662.634912 
L 206.845234 157662.634912 
L 205.697944 157662.634912 
L 204.550654 157662.634912 
L 203.403364 157662.634912 
L 202.256075 157662.634912 
L 201.108785 157662.634912 
L 199.961495 157662.634912 
L 198.814206 157662.634912 
L 197.666916 157662.634912 
L 196.519626 157662.634912 
L 195.372336 157662.634912 
L 194.225047 157662.634912 
L 193.077757 157662.634912 
L 191.930467 157662.634912 
L 190.783178 157662.634912 
L 189.635888 157662.634912 
L 188.488598 157662.634912 
L 187.341308 157662.634912 
L 186.194019 157662.634912 
L 185.046729 157662.634912 
L 183.899439 157662.634912 
L 182.75215 157662.634912 
L 181.60486 157662.634912 
L 180.45757 157662.634912 
L 179.31028 157662.634912 
L 178.162991 157662.634912 
L 177.015701 157662.634912 
L 175.868411 157662.634912 
L 174.721121 157662.634912 
L 173.573832 157662.634912 
L 172.426542 157662.634912 
L 171.279252 157662.634912 
L 170.131963 157662.634912 
L 168.984673 157662.634912 
L 167.837383 157662.634912 
L 166.690093 157662.634912 
L 165.542804 157662.634912 
L 164.395514 483.134559 
L 163.248224 157662.634912 
L 162.100935 157662.634912 
L 160.953645 157662.634912 
L 159.806355 157662.634912 
L 158.659065 157662.634912 
L 157.511776 483.134559 
L 156.364486 483.134559 
L 155.217196 475.942091 
L 154.069907 483.134559 
L 152.922617 483.134559 
L 151.775327 157662.634912 
L 150.628037 157662.634912 
L 149.480748 157662.634912 
L 148.333458 157662.634912 
L 147.186168 157662.634912 
L 146.038879 157662.634912 
L 144.891589 157662.634912 
L 143.744299 157662.634912 
L 142.597009 157662.634912 
L 141.44972 157662.634912 
L 140.30243 157662.634912 
L 139.15514 157662.634912 
L 138.00785 157662.634912 
L 136.860561 157662.634912 
L 135.713271 157662.634912 
L 134.565981 483.134559 
L 133.418692 475.942091 
L 132.271402 483.134559 
L 131.124112 157662.634912 
L 129.976822 157662.634912 
L 128.829533 157662.634912 
L 127.682243 157662.634912 
L 126.534953 157662.634912 
L 125.387664 157662.634912 
L 124.240374 157662.634912 
L 123.093084 157662.634912 
L 121.945794 157662.634912 
L 120.798505 157662.634912 
L 119.651215 157662.634912 
L 118.503925 157662.634912 
L 117.356636 157662.634912 
L 116.209346 157662.634912 
L 115.062056 157662.634912 
L 113.914766 157662.634912 
L 112.767477 157662.634912 
L 111.620187 157662.634912 
L 110.472897 157662.634912 
L 109.325607 157662.634912 
L 108.178318 157662.634912 
L 107.031028 157662.634912 
L 105.883738 157662.634912 
L 104.736449 157662.634912 
L 103.589159 157662.634912 
L 102.441869 157662.634912 
L 101.294579 157662.634912 
L 100.14729 157662.634912 
L 99 157662.634912 
z
" style="fill:#ff8080;fill-opacity:0.5;stroke:#ff8080;stroke-opacity:0.5;"/>
   </g>
   <g id="matplotlib.axis_1">
    <g id="xtick_1">
     <g id="line2d_1">
      <path clip-path="url(#p68e2955192)" d="M 99 544.68 
L 99 73.44 
" style="fill:none;stroke:#b0b0b0;stroke-linecap:square;stroke-width:0.8;"/>
     </g>
     <g id="line2d_2">
      <defs>
       <path d="M 0 0 
L 0 3.5 
" id="m4abed1d830" style="stroke:#000000;stroke-width:0.8;"/>
      </defs>
      <g>
       <use style="stroke:#000000;stroke-width:0.8;" x="99" xlink:href="#m4abed1d830" y="544.68"/>
      </g>
     </g>
    </g>
    <g id="xtick_2">
     <g id="line2d_3">
      <path clip-path="url(#p68e2955192)" d="M 127.682243 544.68 
L 127.682243 73.44 
" style="fill:none;stroke:#b0b0b0;stroke-linecap:square;stroke-width:0.8;"/>
     </g>
     <g id="line2d_4">
      <g>
       <use style="stroke:#000000;stroke-width:0.8;" x="127.682243" xlink:href="#m4abed1d830" y="544.68"/>
      </g>
     </g>
     <g id="text_1">
      <!-- Apr -->
      <g transform="translate(119.032243 559.278437)scale(0.1 -0.1)">
       <defs>
        <path d="M 2188 4044 
L 1331 1722 
L 3047 1722 
L 2188 4044 
z
M 1831 4666 
L 2547 4666 
L 4325 0 
L 3669 0 
L 3244 1197 
L 1141 1197 
L 716 0 
L 50 0 
L 1831 4666 
z
" id="DejaVuSans-41" transform="scale(0.015625)"/>
        <path d="M 1159 525 
L 1159 -1331 
L 581 -1331 
L 581 3500 
L 1159 3500 
L 1159 2969 
Q 1341 3281 1617 3432 
Q 1894 3584 2278 3584 
Q 2916 3584 3314 3078 
Q 3713 2572 3713 1747 
Q 3713 922 3314 415 
Q 2916 -91 2278 -91 
Q 1894 -91 1617 61 
Q 1341 213 1159 525 
z
M 3116 1747 
Q 3116 2381 2855 2742 
Q 2594 3103 2138 3103 
Q 1681 3103 1420 2742 
Q 1159 2381 1159 1747 
Q 1159 1113 1420 752 
Q 1681 391 2138 391 
Q 2594 391 2855 752 
Q 3116 1113 3116 1747 
z
" id="DejaVuSans-70" transform="scale(0.015625)"/>
        <path d="M 2631 2963 
Q 2534 3019 2420 3045 
Q 2306 3072 2169 3072 
Q 1681 3072 1420 2755 
Q 1159 2438 1159 1844 
L 1159 0 
L 581 0 
L 581 3500 
L 1159 3500 
L 1159 2956 
Q 1341 3275 1631 3429 
Q 1922 3584 2338 3584 
Q 2397 3584 2469 3576 
Q 2541 3569 2628 3553 
L 2631 2963 
z
" id="DejaVuSans-72" transform="scale(0.015625)"/>
       </defs>
       <use xlink:href="#DejaVuSans-41"/>
       <use x="68.408203" xlink:href="#DejaVuSans-70"/>
       <use x="131.884766" xlink:href="#DejaVuSans-72"/>
      </g>
     </g>
    </g>
    <g id="xtick_3">
     <g id="line2d_5">
      <path clip-path="url(#p68e2955192)" d="M 232.085607 544.68 
L 232.085607 73.44 
" style="fill:none;stroke:#b0b0b0;stroke-linecap:square;stroke-width:0.8;"/>
     </g>
     <g id="line2d_6">
      <g>
       <use style="stroke:#000000;stroke-width:0.8;" x="232.085607" xlink:href="#m4abed1d830" y="544.68"/>
      </g>
     </g>
     <g id="text_2">
      <!-- Jul -->
      <g transform="translate(226.052795 559.278437)scale(0.1 -0.1)">
       <defs>
        <path d="M 628 4666 
L 1259 4666 
L 1259 325 
Q 1259 -519 939 -900 
Q 619 -1281 -91 -1281 
L -331 -1281 
L -331 -750 
L -134 -750 
Q 284 -750 456 -515 
Q 628 -281 628 325 
L 628 4666 
z
" id="DejaVuSans-4a" transform="scale(0.015625)"/>
        <path d="M 544 1381 
L 544 3500 
L 1119 3500 
L 1119 1403 
Q 1119 906 1312 657 
Q 1506 409 1894 409 
Q 2359 409 2629 706 
Q 2900 1003 2900 1516 
L 2900 3500 
L 3475 3500 
L 3475 0 
L 2900 0 
L 2900 538 
Q 2691 219 2414 64 
Q 2138 -91 1772 -91 
Q 1169 -91 856 284 
Q 544 659 544 1381 
z
M 1991 3584 
L 1991 3584 
z
" id="DejaVuSans-75" transform="scale(0.015625)"/>
        <path d="M 603 4863 
L 1178 4863 
L 1178 0 
L 603 0 
L 603 4863 
z
" id="DejaVuSans-6c" transform="scale(0.015625)"/>
       </defs>
       <use xlink:href="#DejaVuSans-4a"/>
       <use x="29.492188" xlink:href="#DejaVuSans-75"/>
       <use x="92.871094" xlink:href="#DejaVuSans-6c"/>
      </g>
     </g>
    </g>
    <g id="xtick_4">
     <g id="line2d_7">
      <path clip-path="url(#p68e2955192)" d="M 337.636262 544.68 
L 337.636262 73.44 
" style="fill:none;stroke:#b0b0b0;stroke-linecap:square;stroke-width:0.8;"/>
     </g>
     <g id="line2d_8">
      <g>
       <use style="stroke:#000000;stroke-width:0.8;" x="337.636262" xlink:href="#m4abed1d830" y="544.68"/>
      </g>
     </g>
     <g id="text_3">
      <!-- Oct -->
      <g transform="translate(328.990949 559.278437)scale(0.1 -0.1)">
       <defs>
        <path d="M 2522 4238 
Q 1834 4238 1429 3725 
Q 1025 3213 1025 2328 
Q 1025 1447 1429 934 
Q 1834 422 2522 422 
Q 3209 422 3611 934 
Q 4013 1447 4013 2328 
Q 4013 3213 3611 3725 
Q 3209 4238 2522 4238 
z
M 2522 4750 
Q 3503 4750 4090 4092 
Q 4678 3434 4678 2328 
Q 4678 1225 4090 567 
Q 3503 -91 2522 -91 
Q 1538 -91 948 565 
Q 359 1222 359 2328 
Q 359 3434 948 4092 
Q 1538 4750 2522 4750 
z
" id="DejaVuSans-4f" transform="scale(0.015625)"/>
        <path d="M 3122 3366 
L 3122 2828 
Q 2878 2963 2633 3030 
Q 2388 3097 2138 3097 
Q 1578 3097 1268 2742 
Q 959 2388 959 1747 
Q 959 1106 1268 751 
Q 1578 397 2138 397 
Q 2388 397 2633 464 
Q 2878 531 3122 666 
L 3122 134 
Q 2881 22 2623 -34 
Q 2366 -91 2075 -91 
Q 1284 -91 818 406 
Q 353 903 353 1747 
Q 353 2603 823 3093 
Q 1294 3584 2113 3584 
Q 2378 3584 2631 3529 
Q 2884 3475 3122 3366 
z
" id="DejaVuSans-63" transform="scale(0.015625)"/>
        <path d="M 1172 4494 
L 1172 3500 
L 2356 3500 
L 2356 3053 
L 1172 3053 
L 1172 1153 
Q 1172 725 1289 603 
Q 1406 481 1766 481 
L 2356 481 
L 2356 0 
L 1766 0 
Q 1100 0 847 248 
Q 594 497 594 1153 
L 594 3053 
L 172 3053 
L 172 3500 
L 594 3500 
L 594 4494 
L 1172 4494 
z
" id="DejaVuSans-74" transform="scale(0.015625)"/>
       </defs>
       <use xlink:href="#DejaVuSans-4f"/>
       <use x="78.710938" xlink:href="#DejaVuSans-63"/>
       <use x="133.691406" xlink:href="#DejaVuSans-74"/>
      </g>
     </g>
    </g>
    <g id="xtick_5">
     <g id="line2d_9">
      <path clip-path="url(#p68e2955192)" d="M 443.186916 544.68 
L 443.186916 73.44 
" style="fill:none;stroke:#b0b0b0;stroke-linecap:square;stroke-width:0.8;"/>
     </g>
     <g id="line2d_10">
      <g>
       <use style="stroke:#000000;stroke-width:0.8;" x="443.186916" xlink:href="#m4abed1d830" y="544.68"/>
      </g>
     </g>
     <g id="text_4">
      <!-- Jan -->
      <g transform="translate(435.479103 559.278437)scale(0.1 -0.1)">
       <defs>
        <path d="M 2194 1759 
Q 1497 1759 1228 1600 
Q 959 1441 959 1056 
Q 959 750 1161 570 
Q 1363 391 1709 391 
Q 2188 391 2477 730 
Q 2766 1069 2766 1631 
L 2766 1759 
L 2194 1759 
z
M 3341 1997 
L 3341 0 
L 2766 0 
L 2766 531 
Q 2569 213 2275 61 
Q 1981 -91 1556 -91 
Q 1019 -91 701 211 
Q 384 513 384 1019 
Q 384 1609 779 1909 
Q 1175 2209 1959 2209 
L 2766 2209 
L 2766 2266 
Q 2766 2663 2505 2880 
Q 2244 3097 1772 3097 
Q 1472 3097 1187 3025 
Q 903 2953 641 2809 
L 641 3341 
Q 956 3463 1253 3523 
Q 1550 3584 1831 3584 
Q 2591 3584 2966 3190 
Q 3341 2797 3341 1997 
z
" id="DejaVuSans-61" transform="scale(0.015625)"/>
        <path d="M 3513 2113 
L 3513 0 
L 2938 0 
L 2938 2094 
Q 2938 2591 2744 2837 
Q 2550 3084 2163 3084 
Q 1697 3084 1428 2787 
Q 1159 2491 1159 1978 
L 1159 0 
L 581 0 
L 581 3500 
L 1159 3500 
L 1159 2956 
Q 1366 3272 1645 3428 
Q 1925 3584 2291 3584 
Q 2894 3584 3203 3211 
Q 3513 2838 3513 2113 
z
" id="DejaVuSans-6e" transform="scale(0.015625)"/>
       </defs>
       <use xlink:href="#DejaVuSans-4a"/>
       <use x="29.492188" xlink:href="#DejaVuSans-61"/>
       <use x="90.771484" xlink:href="#DejaVuSans-6e"/>
      </g>
      <!-- 2021 -->
      <g transform="translate(430.461916 570.47625)scale(0.1 -0.1)">
       <defs>
        <path d="M 1228 531 
L 3431 531 
L 3431 0 
L 469 0 
L 469 531 
Q 828 903 1448 1529 
Q 2069 2156 2228 2338 
Q 2531 2678 2651 2914 
Q 2772 3150 2772 3378 
Q 2772 3750 2511 3984 
Q 2250 4219 1831 4219 
Q 1534 4219 1204 4116 
Q 875 4013 500 3803 
L 500 4441 
Q 881 4594 1212 4672 
Q 1544 4750 1819 4750 
Q 2544 4750 2975 4387 
Q 3406 4025 3406 3419 
Q 3406 3131 3298 2873 
Q 3191 2616 2906 2266 
Q 2828 2175 2409 1742 
Q 1991 1309 1228 531 
z
" id="DejaVuSans-32" transform="scale(0.015625)"/>
        <path d="M 2034 4250 
Q 1547 4250 1301 3770 
Q 1056 3291 1056 2328 
Q 1056 1369 1301 889 
Q 1547 409 2034 409 
Q 2525 409 2770 889 
Q 3016 1369 3016 2328 
Q 3016 3291 2770 3770 
Q 2525 4250 2034 4250 
z
M 2034 4750 
Q 2819 4750 3233 4129 
Q 3647 3509 3647 2328 
Q 3647 1150 3233 529 
Q 2819 -91 2034 -91 
Q 1250 -91 836 529 
Q 422 1150 422 2328 
Q 422 3509 836 4129 
Q 1250 4750 2034 4750 
z
" id="DejaVuSans-30" transform="scale(0.015625)"/>
        <path d="M 794 531 
L 1825 531 
L 1825 4091 
L 703 3866 
L 703 4441 
L 1819 4666 
L 2450 4666 
L 2450 531 
L 3481 531 
L 3481 0 
L 794 0 
L 794 531 
z
" id="DejaVuSans-31" transform="scale(0.015625)"/>
       </defs>
       <use xlink:href="#DejaVuSans-32"/>
       <use x="63.623047" xlink:href="#DejaVuSans-30"/>
       <use x="127.246094" xlink:href="#DejaVuSans-32"/>
       <use x="190.869141" xlink:href="#DejaVuSans-31"/>
      </g>
     </g>
    </g>
    <g id="xtick_6">
     <g id="line2d_11">
      <path clip-path="url(#p68e2955192)" d="M 546.442991 544.68 
L 546.442991 73.44 
" style="fill:none;stroke:#b0b0b0;stroke-linecap:square;stroke-width:0.8;"/>
     </g>
     <g id="line2d_12">
      <g>
       <use style="stroke:#000000;stroke-width:0.8;" x="546.442991" xlink:href="#m4abed1d830" y="544.68"/>
      </g>
     </g>
     <g id="text_5">
      <!-- Apr -->
      <g transform="translate(537.792991 559.278437)scale(0.1 -0.1)">
       <use xlink:href="#DejaVuSans-41"/>
       <use x="68.408203" xlink:href="#DejaVuSans-70"/>
       <use x="131.884766" xlink:href="#DejaVuSans-72"/>
      </g>
     </g>
    </g>
    <g id="xtick_7">
     <g id="line2d_13">
      <path clip-path="url(#p68e2955192)" d="M 650.846355 544.68 
L 650.846355 73.44 
" style="fill:none;stroke:#b0b0b0;stroke-linecap:square;stroke-width:0.8;"/>
     </g>
     <g id="line2d_14">
      <g>
       <use style="stroke:#000000;stroke-width:0.8;" x="650.846355" xlink:href="#m4abed1d830" y="544.68"/>
      </g>
     </g>
     <g id="text_6">
      <!-- Jul -->
      <g transform="translate(644.813543 559.278437)scale(0.1 -0.1)">
       <use xlink:href="#DejaVuSans-4a"/>
       <use x="29.492188" xlink:href="#DejaVuSans-75"/>
       <use x="92.871094" xlink:href="#DejaVuSans-6c"/>
      </g>
     </g>
    </g>
    <g id="xtick_8">
     <g id="line2d_15">
      <path clip-path="url(#p68e2955192)" d="M 712.8 544.68 
L 712.8 73.44 
" style="fill:none;stroke:#b0b0b0;stroke-linecap:square;stroke-width:0.8;"/>
     </g>
     <g id="line2d_16">
      <g>
       <use style="stroke:#000000;stroke-width:0.8;" x="712.8" xlink:href="#m4abed1d830" y="544.68"/>
      </g>
     </g>
    </g>
    <g id="xtick_9">
     <g id="line2d_17">
      <defs>
       <path d="M 0 0 
L 0 2 
" id="mbe9820739d" style="stroke:#000000;stroke-width:0.6;"/>
      </defs>
      <g>
       <use style="stroke:#000000;stroke-width:0.6;" x="162.100935" xlink:href="#mbe9820739d" y="544.68"/>
      </g>
     </g>
    </g>
    <g id="xtick_10">
     <g id="line2d_18">
      <g>
       <use style="stroke:#000000;stroke-width:0.6;" x="197.666916" xlink:href="#mbe9820739d" y="544.68"/>
      </g>
     </g>
    </g>
    <g id="xtick_11">
     <g id="line2d_19">
      <g>
       <use style="stroke:#000000;stroke-width:0.6;" x="267.651589" xlink:href="#mbe9820739d" y="544.68"/>
      </g>
     </g>
    </g>
    <g id="xtick_12">
     <g id="line2d_20">
      <g>
       <use style="stroke:#000000;stroke-width:0.6;" x="303.21757" xlink:href="#mbe9820739d" y="544.68"/>
      </g>
     </g>
    </g>
    <g id="xtick_13">
     <g id="line2d_21">
      <g>
       <use style="stroke:#000000;stroke-width:0.6;" x="373.202243" xlink:href="#mbe9820739d" y="544.68"/>
      </g>
     </g>
    </g>
    <g id="xtick_14">
     <g id="line2d_22">
      <g>
       <use style="stroke:#000000;stroke-width:0.6;" x="407.620935" xlink:href="#mbe9820739d" y="544.68"/>
      </g>
     </g>
    </g>
    <g id="xtick_15">
     <g id="line2d_23">
      <g>
       <use style="stroke:#000000;stroke-width:0.6;" x="478.752897" xlink:href="#mbe9820739d" y="544.68"/>
      </g>
     </g>
    </g>
    <g id="xtick_16">
     <g id="line2d_24">
      <g>
       <use style="stroke:#000000;stroke-width:0.6;" x="510.877009" xlink:href="#mbe9820739d" y="544.68"/>
      </g>
     </g>
    </g>
    <g id="xtick_17">
     <g id="line2d_25">
      <g>
       <use style="stroke:#000000;stroke-width:0.6;" x="580.861682" xlink:href="#mbe9820739d" y="544.68"/>
      </g>
     </g>
    </g>
    <g id="xtick_18">
     <g id="line2d_26">
      <g>
       <use style="stroke:#000000;stroke-width:0.6;" x="616.427664" xlink:href="#mbe9820739d" y="544.68"/>
      </g>
     </g>
    </g>
    <g id="xtick_19">
     <g id="line2d_27">
      <g>
       <use style="stroke:#000000;stroke-width:0.6;" x="686.412336" xlink:href="#mbe9820739d" y="544.68"/>
      </g>
     </g>
    </g>
    <g id="text_7">
     <!-- Date -->
     <g transform="translate(393.949219 584.154375)scale(0.1 -0.1)">
      <defs>
       <path d="M 1259 4147 
L 1259 519 
L 2022 519 
Q 2988 519 3436 956 
Q 3884 1394 3884 2338 
Q 3884 3275 3436 3711 
Q 2988 4147 2022 4147 
L 1259 4147 
z
M 628 4666 
L 1925 4666 
Q 3281 4666 3915 4102 
Q 4550 3538 4550 2338 
Q 4550 1131 3912 565 
Q 3275 0 1925 0 
L 628 0 
L 628 4666 
z
" id="DejaVuSans-44" transform="scale(0.015625)"/>
       <path d="M 3597 1894 
L 3597 1613 
L 953 1613 
Q 991 1019 1311 708 
Q 1631 397 2203 397 
Q 2534 397 2845 478 
Q 3156 559 3463 722 
L 3463 178 
Q 3153 47 2828 -22 
Q 2503 -91 2169 -91 
Q 1331 -91 842 396 
Q 353 884 353 1716 
Q 353 2575 817 3079 
Q 1281 3584 2069 3584 
Q 2775 3584 3186 3129 
Q 3597 2675 3597 1894 
z
M 3022 2063 
Q 3016 2534 2758 2815 
Q 2500 3097 2075 3097 
Q 1594 3097 1305 2825 
Q 1016 2553 972 2059 
L 3022 2063 
z
" id="DejaVuSans-65" transform="scale(0.015625)"/>
      </defs>
      <use xlink:href="#DejaVuSans-44"/>
      <use x="77.001953" xlink:href="#DejaVuSans-61"/>
      <use x="138.28125" xlink:href="#DejaVuSans-74"/>
      <use x="177.490234" xlink:href="#DejaVuSans-65"/>
     </g>
    </g>
   </g>
   <g id="matplotlib.axis_2">
    <g id="ytick_1">
     <g id="line2d_28">
      <path clip-path="url(#p68e2955192)" d="M 99 475.942091 
L 712.8 475.942091 
" style="fill:none;stroke:#b0b0b0;stroke-linecap:square;stroke-width:0.8;"/>
     </g>
     <g id="line2d_29">
      <defs>
       <path d="M 0 0 
L -3.5 0 
" id="me91a084207" style="stroke:#000000;stroke-width:0.8;"/>
      </defs>
      <g>
       <use style="stroke:#000000;stroke-width:0.8;" x="99" xlink:href="#me91a084207" y="475.942091"/>
      </g>
     </g>
     <g id="text_8">
      <!-- $\mathdefault{10^{0}}$ -->
      <g transform="translate(74.4 479.741309)scale(0.1 -0.1)">
       <use transform="translate(0 0.765625)" xlink:href="#DejaVuSans-31"/>
       <use transform="translate(63.623047 0.765625)" xlink:href="#DejaVuSans-30"/>
       <use transform="translate(128.203125 39.046875)scale(0.7)" xlink:href="#DejaVuSans-30"/>
      </g>
     </g>
    </g>
    <g id="ytick_2">
     <g id="line2d_30">
      <path clip-path="url(#p68e2955192)" d="M 99 318.755398 
L 712.8 318.755398 
" style="fill:none;stroke:#b0b0b0;stroke-linecap:square;stroke-width:0.8;"/>
     </g>
     <g id="line2d_31">
      <g>
       <use style="stroke:#000000;stroke-width:0.8;" x="99" xlink:href="#me91a084207" y="318.755398"/>
      </g>
     </g>
     <g id="text_9">
      <!-- $\mathdefault{10^{1}}$ -->
      <g transform="translate(74.4 322.554616)scale(0.1 -0.1)">
       <use transform="translate(0 0.684375)" xlink:href="#DejaVuSans-31"/>
       <use transform="translate(63.623047 0.684375)" xlink:href="#DejaVuSans-30"/>
       <use transform="translate(128.203125 38.965625)scale(0.7)" xlink:href="#DejaVuSans-31"/>
      </g>
     </g>
    </g>
    <g id="ytick_3">
     <g id="line2d_32">
      <path clip-path="url(#p68e2955192)" d="M 99 161.568705 
L 712.8 161.568705 
" style="fill:none;stroke:#b0b0b0;stroke-linecap:square;stroke-width:0.8;"/>
     </g>
     <g id="line2d_33">
      <g>
       <use style="stroke:#000000;stroke-width:0.8;" x="99" xlink:href="#me91a084207" y="161.568705"/>
      </g>
     </g>
     <g id="text_10">
      <!-- $\mathdefault{10^{2}}$ -->
      <g transform="translate(74.4 165.367924)scale(0.1 -0.1)">
       <use transform="translate(0 0.765625)" xlink:href="#DejaVuSans-31"/>
       <use transform="translate(63.623047 0.765625)" xlink:href="#DejaVuSans-30"/>
       <use transform="translate(128.203125 39.046875)scale(0.7)" xlink:href="#DejaVuSans-32"/>
      </g>
     </g>
    </g>
    <g id="ytick_4">
     <g id="line2d_34">
      <path clip-path="url(#p68e2955192)" d="M 99 538.492964 
L 712.8 538.492964 
" style="fill:none;stroke:#b0b0b0;stroke-linecap:square;stroke-width:0.8;"/>
     </g>
     <g id="line2d_35">
      <defs>
       <path d="M 0 0 
L -2 0 
" id="m0cb60b688e" style="stroke:#000000;stroke-width:0.6;"/>
      </defs>
      <g>
       <use style="stroke:#000000;stroke-width:0.6;" x="99" xlink:href="#m0cb60b688e" y="538.492964"/>
      </g>
     </g>
    </g>
    <g id="ytick_5">
     <g id="line2d_36">
      <path clip-path="url(#p68e2955192)" d="M 99 523.26 
L 712.8 523.26 
" style="fill:none;stroke:#b0b0b0;stroke-linecap:square;stroke-width:0.8;"/>
     </g>
     <g id="line2d_37">
      <g>
       <use style="stroke:#000000;stroke-width:0.6;" x="99" xlink:href="#m0cb60b688e" y="523.26"/>
      </g>
     </g>
    </g>
    <g id="ytick_6">
     <g id="line2d_38">
      <path clip-path="url(#p68e2955192)" d="M 99 510.813762 
L 712.8 510.813762 
" style="fill:none;stroke:#b0b0b0;stroke-linecap:square;stroke-width:0.8;"/>
     </g>
     <g id="line2d_39">
      <g>
       <use style="stroke:#000000;stroke-width:0.6;" x="99" xlink:href="#m0cb60b688e" y="510.813762"/>
      </g>
     </g>
    </g>
    <g id="ytick_7">
     <g id="line2d_40">
      <path clip-path="url(#p68e2955192)" d="M 99 500.290617 
L 712.8 500.290617 
" style="fill:none;stroke:#b0b0b0;stroke-linecap:square;stroke-width:0.8;"/>
     </g>
     <g id="line2d_41">
      <g>
       <use style="stroke:#000000;stroke-width:0.6;" x="99" xlink:href="#m0cb60b688e" y="500.290617"/>
      </g>
     </g>
    </g>
    <g id="ytick_8">
     <g id="line2d_42">
      <path clip-path="url(#p68e2955192)" d="M 99 491.175055 
L 712.8 491.175055 
" style="fill:none;stroke:#b0b0b0;stroke-linecap:square;stroke-width:0.8;"/>
     </g>
     <g id="line2d_43">
      <g>
       <use style="stroke:#000000;stroke-width:0.6;" x="99" xlink:href="#m0cb60b688e" y="491.175055"/>
      </g>
     </g>
    </g>
    <g id="ytick_9">
     <g id="line2d_44">
      <path clip-path="url(#p68e2955192)" d="M 99 483.134559 
L 712.8 483.134559 
" style="fill:none;stroke:#b0b0b0;stroke-linecap:square;stroke-width:0.8;"/>
     </g>
     <g id="line2d_45">
      <g>
       <use style="stroke:#000000;stroke-width:0.6;" x="99" xlink:href="#m0cb60b688e" y="483.134559"/>
      </g>
     </g>
    </g>
    <g id="ytick_10">
     <g id="line2d_46">
      <path clip-path="url(#p68e2955192)" d="M 99 428.624181 
L 712.8 428.624181 
" style="fill:none;stroke:#b0b0b0;stroke-linecap:square;stroke-width:0.8;"/>
     </g>
     <g id="line2d_47">
      <g>
       <use style="stroke:#000000;stroke-width:0.6;" x="99" xlink:href="#m0cb60b688e" y="428.624181"/>
      </g>
     </g>
    </g>
    <g id="ytick_11">
     <g id="line2d_48">
      <path clip-path="url(#p68e2955192)" d="M 99 400.944978 
L 712.8 400.944978 
" style="fill:none;stroke:#b0b0b0;stroke-linecap:square;stroke-width:0.8;"/>
     </g>
     <g id="line2d_49">
      <g>
       <use style="stroke:#000000;stroke-width:0.6;" x="99" xlink:href="#m0cb60b688e" y="400.944978"/>
      </g>
     </g>
    </g>
    <g id="ytick_12">
     <g id="line2d_50">
      <path clip-path="url(#p68e2955192)" d="M 99 381.306272 
L 712.8 381.306272 
" style="fill:none;stroke:#b0b0b0;stroke-linecap:square;stroke-width:0.8;"/>
     </g>
     <g id="line2d_51">
      <g>
       <use style="stroke:#000000;stroke-width:0.6;" x="99" xlink:href="#m0cb60b688e" y="381.306272"/>
      </g>
     </g>
    </g>
    <g id="ytick_13">
     <g id="line2d_52">
      <path clip-path="url(#p68e2955192)" d="M 99 366.073307 
L 712.8 366.073307 
" style="fill:none;stroke:#b0b0b0;stroke-linecap:square;stroke-width:0.8;"/>
     </g>
     <g id="line2d_53">
      <g>
       <use style="stroke:#000000;stroke-width:0.6;" x="99" xlink:href="#m0cb60b688e" y="366.073307"/>
      </g>
     </g>
    </g>
    <g id="ytick_14">
     <g id="line2d_54">
      <path clip-path="url(#p68e2955192)" d="M 99 353.627069 
L 712.8 353.627069 
" style="fill:none;stroke:#b0b0b0;stroke-linecap:square;stroke-width:0.8;"/>
     </g>
     <g id="line2d_55">
      <g>
       <use style="stroke:#000000;stroke-width:0.6;" x="99" xlink:href="#m0cb60b688e" y="353.627069"/>
      </g>
     </g>
    </g>
    <g id="ytick_15">
     <g id="line2d_56">
      <path clip-path="url(#p68e2955192)" d="M 99 343.103925 
L 712.8 343.103925 
" style="fill:none;stroke:#b0b0b0;stroke-linecap:square;stroke-width:0.8;"/>
     </g>
     <g id="line2d_57">
      <g>
       <use style="stroke:#000000;stroke-width:0.6;" x="99" xlink:href="#m0cb60b688e" y="343.103925"/>
      </g>
     </g>
    </g>
    <g id="ytick_16">
     <g id="line2d_58">
      <path clip-path="url(#p68e2955192)" d="M 99 333.988362 
L 712.8 333.988362 
" style="fill:none;stroke:#b0b0b0;stroke-linecap:square;stroke-width:0.8;"/>
     </g>
     <g id="line2d_59">
      <g>
       <use style="stroke:#000000;stroke-width:0.6;" x="99" xlink:href="#m0cb60b688e" y="333.988362"/>
      </g>
     </g>
    </g>
    <g id="ytick_17">
     <g id="line2d_60">
      <path clip-path="url(#p68e2955192)" d="M 99 325.947866 
L 712.8 325.947866 
" style="fill:none;stroke:#b0b0b0;stroke-linecap:square;stroke-width:0.8;"/>
     </g>
     <g id="line2d_61">
      <g>
       <use style="stroke:#000000;stroke-width:0.6;" x="99" xlink:href="#m0cb60b688e" y="325.947866"/>
      </g>
     </g>
    </g>
    <g id="ytick_18">
     <g id="line2d_62">
      <path clip-path="url(#p68e2955192)" d="M 99 271.437488 
L 712.8 271.437488 
" style="fill:none;stroke:#b0b0b0;stroke-linecap:square;stroke-width:0.8;"/>
     </g>
     <g id="line2d_63">
      <g>
       <use style="stroke:#000000;stroke-width:0.6;" x="99" xlink:href="#m0cb60b688e" y="271.437488"/>
      </g>
     </g>
    </g>
    <g id="ytick_19">
     <g id="line2d_64">
      <path clip-path="url(#p68e2955192)" d="M 99 243.758286 
L 712.8 243.758286 
" style="fill:none;stroke:#b0b0b0;stroke-linecap:square;stroke-width:0.8;"/>
     </g>
     <g id="line2d_65">
      <g>
       <use style="stroke:#000000;stroke-width:0.6;" x="99" xlink:href="#m0cb60b688e" y="243.758286"/>
      </g>
     </g>
    </g>
    <g id="ytick_20">
     <g id="line2d_66">
      <path clip-path="url(#p68e2955192)" d="M 99 224.119579 
L 712.8 224.119579 
" style="fill:none;stroke:#b0b0b0;stroke-linecap:square;stroke-width:0.8;"/>
     </g>
     <g id="line2d_67">
      <g>
       <use style="stroke:#000000;stroke-width:0.6;" x="99" xlink:href="#m0cb60b688e" y="224.119579"/>
      </g>
     </g>
    </g>
    <g id="ytick_21">
     <g id="line2d_68">
      <path clip-path="url(#p68e2955192)" d="M 99 208.886614 
L 712.8 208.886614 
" style="fill:none;stroke:#b0b0b0;stroke-linecap:square;stroke-width:0.8;"/>
     </g>
     <g id="line2d_69">
      <g>
       <use style="stroke:#000000;stroke-width:0.6;" x="99" xlink:href="#m0cb60b688e" y="208.886614"/>
      </g>
     </g>
    </g>
    <g id="ytick_22">
     <g id="line2d_70">
      <path clip-path="url(#p68e2955192)" d="M 99 196.440376 
L 712.8 196.440376 
" style="fill:none;stroke:#b0b0b0;stroke-linecap:square;stroke-width:0.8;"/>
     </g>
     <g id="line2d_71">
      <g>
       <use style="stroke:#000000;stroke-width:0.6;" x="99" xlink:href="#m0cb60b688e" y="196.440376"/>
      </g>
     </g>
    </g>
    <g id="ytick_23">
     <g id="line2d_72">
      <path clip-path="url(#p68e2955192)" d="M 99 185.917232 
L 712.8 185.917232 
" style="fill:none;stroke:#b0b0b0;stroke-linecap:square;stroke-width:0.8;"/>
     </g>
     <g id="line2d_73">
      <g>
       <use style="stroke:#000000;stroke-width:0.6;" x="99" xlink:href="#m0cb60b688e" y="185.917232"/>
      </g>
     </g>
    </g>
    <g id="ytick_24">
     <g id="line2d_74">
      <path clip-path="url(#p68e2955192)" d="M 99 176.801669 
L 712.8 176.801669 
" style="fill:none;stroke:#b0b0b0;stroke-linecap:square;stroke-width:0.8;"/>
     </g>
     <g id="line2d_75">
      <g>
       <use style="stroke:#000000;stroke-width:0.6;" x="99" xlink:href="#m0cb60b688e" y="176.801669"/>
      </g>
     </g>
    </g>
    <g id="ytick_25">
     <g id="line2d_76">
      <path clip-path="url(#p68e2955192)" d="M 99 168.761174 
L 712.8 168.761174 
" style="fill:none;stroke:#b0b0b0;stroke-linecap:square;stroke-width:0.8;"/>
     </g>
     <g id="line2d_77">
      <g>
       <use style="stroke:#000000;stroke-width:0.6;" x="99" xlink:href="#m0cb60b688e" y="168.761174"/>
      </g>
     </g>
    </g>
    <g id="ytick_26">
     <g id="line2d_78">
      <path clip-path="url(#p68e2955192)" d="M 99 114.250795 
L 712.8 114.250795 
" style="fill:none;stroke:#b0b0b0;stroke-linecap:square;stroke-width:0.8;"/>
     </g>
     <g id="line2d_79">
      <g>
       <use style="stroke:#000000;stroke-width:0.6;" x="99" xlink:href="#m0cb60b688e" y="114.250795"/>
      </g>
     </g>
    </g>
    <g id="ytick_27">
     <g id="line2d_80">
      <path clip-path="url(#p68e2955192)" d="M 99 86.571593 
L 712.8 86.571593 
" style="fill:none;stroke:#b0b0b0;stroke-linecap:square;stroke-width:0.8;"/>
     </g>
     <g id="line2d_81">
      <g>
       <use style="stroke:#000000;stroke-width:0.6;" x="99" xlink:href="#m0cb60b688e" y="86.571593"/>
      </g>
     </g>
    </g>
   </g>
   <g id="line2d_82">
    <path clip-path="url(#p68e2955192)" d="M 113.913564 613 
L 113.914766 448.262888 
L 115.062056 413.391217 
L 116.209346 400.944978 
L 118.503925 400.944978 
L 119.651215 390.421834 
L 120.798505 373.265776 
L 121.945794 353.627069 
L 123.093084 298.268664 
L 124.240374 271.437488 
L 125.387664 269.751839 
L 127.682243 260.428468 
L 128.829533 260.428468 
L 131.124112 252.226779 
L 132.271402 249.698145 
L 133.418692 248.468106 
L 134.565981 244.905629 
L 135.713271 242.629908 
L 136.860561 246.072586 
L 138.00785 242.629908 
L 139.15514 240.42761 
L 141.44972 240.42761 
L 142.597009 242.629908 
L 144.891589 242.629908 
L 146.038879 252.226779 
L 147.186168 260.428468 
L 148.333458 264.931109 
L 149.480748 276.759557 
L 151.775327 318.755398 
L 152.922617 325.947866 
L 154.069907 333.988362 
L 155.217196 333.988362 
L 156.364486 338.394105 
L 157.511776 353.627069 
L 158.659065 343.103925 
L 159.806355 353.627069 
L 160.953645 373.265776 
L 164.395514 373.265776 
L 165.542804 366.073307 
L 167.837383 366.073307 
L 168.984673 353.627069 
L 170.131963 353.627069 
L 171.279252 366.073307 
L 173.573832 366.073307 
L 174.721121 373.265776 
L 175.868411 373.265776 
L 177.015701 381.306272 
L 178.162991 400.944978 
L 179.31028 413.391217 
L 180.45757 413.391217 
L 181.60486 428.624181 
L 190.783178 428.624181 
L 191.930467 413.391217 
L 202.256075 413.391217 
L 203.403364 390.421834 
L 204.550654 381.306272 
L 206.845234 381.306272 
L 207.992523 373.265776 
L 209.139813 343.103925 
L 210.287103 325.947866 
L 216.023551 325.947866 
L 217.170841 338.394105 
L 218.318131 325.947866 
L 219.465421 338.394105 
L 220.61271 338.394105 
L 221.76 359.566928 
L 222.90729 373.265776 
L 226.349159 373.265776 
L 227.496449 390.421834 
L 228.643738 390.421834 
L 229.791028 373.265776 
L 232.085607 373.265776 
L 233.232897 366.073307 
L 236.674766 366.073307 
L 237.822056 381.306272 
L 238.969346 373.265776 
L 240.116636 413.391217 
L 242.411215 413.391217 
L 243.558505 381.306272 
L 244.705794 359.566928 
L 245.853084 366.073307 
L 247.000374 366.073307 
L 248.147664 359.566928 
L 252.736822 359.566928 
L 253.884112 348.162928 
L 257.325981 348.162928 
L 258.473271 338.394105 
L 259.620561 329.849803 
L 260.76785 338.394105 
L 263.06243 338.394105 
L 264.20972 348.162928 
L 265.357009 366.073307 
L 266.504299 366.073307 
L 267.651589 348.162928 
L 268.798879 359.566928 
L 269.946168 373.265776 
L 271.093458 381.306272 
L 272.240748 373.265776 
L 273.388037 373.265776 
L 274.535327 381.306272 
L 275.682617 381.306272 
L 276.829907 373.265776 
L 277.977196 373.265776 
L 279.124486 366.073307 
L 280.271776 366.073307 
L 281.419065 359.566928 
L 283.713645 359.566928 
L 284.860935 353.627069 
L 297.481121 353.627069 
L 298.628411 359.566928 
L 302.07028 359.566928 
L 303.21757 343.103925 
L 306.659439 343.103925 
L 307.806729 359.566928 
L 308.954019 359.566928 
L 310.101308 366.073307 
L 311.248598 366.073307 
L 312.395888 381.306272 
L 313.543178 381.306272 
L 314.690467 366.073307 
L 321.574206 366.073307 
L 322.721495 381.306272 
L 323.868785 390.421834 
L 325.016075 373.265776 
L 328.457944 373.265776 
L 329.605234 381.306272 
L 331.899813 381.306272 
L 333.047103 390.421834 
L 334.194393 400.944978 
L 337.636262 400.944978 
L 338.783551 390.421834 
L 342.225421 390.421834 
L 343.37271 381.306272 
L 344.52 366.073307 
L 345.66729 348.162928 
L 347.961869 348.162928 
L 349.109159 338.394105 
L 350.256449 333.988362 
L 351.403738 325.947866 
L 352.551028 325.947866 
L 353.698318 318.755398 
L 354.845607 318.755398 
L 357.140187 312.249018 
L 358.287477 315.424722 
L 359.434766 315.424722 
L 360.582056 312.249018 
L 364.023925 312.249018 
L 365.171215 309.214505 
L 366.318505 309.214505 
L 367.465794 300.845019 
L 368.613084 300.845019 
L 369.760374 298.268664 
L 372.054953 288.837788 
L 373.202243 284.569816 
L 374.349533 274.939041 
L 375.496822 273.165816 
L 376.644112 264.931109 
L 377.791402 260.428468 
L 378.938692 261.896595 
L 380.085981 264.931109 
L 381.233271 264.931109 
L 382.380561 261.896595 
L 384.67514 261.896595 
L 385.82243 260.428468 
L 386.96972 250.950754 
L 389.264299 223.271552 
L 390.411589 215.324762 
L 391.558879 213.840675 
L 392.706168 206.2092 
L 395.000748 174.701032 
L 396.148037 169.141483 
L 400.737196 169.141483 
L 401.884486 171.864677 
L 403.031776 171.864677 
L 404.179065 173.470994 
L 405.326355 173.470994 
L 406.473645 178.969004 
L 407.620935 186.406591 
L 408.768224 178.969004 
L 412.210093 178.969004 
L 413.357383 178.093796 
L 414.504673 186.406591 
L 415.651963 171.864677 
L 416.799252 159.883056 
L 417.946542 153.22548 
L 420.241121 153.22548 
L 421.388411 148.555946 
L 423.682991 148.555946 
L 424.83028 153.22548 
L 425.97757 153.22548 
L 427.12486 158.563878 
L 428.27215 160.216872 
L 429.419439 161.568705 
L 431.714019 161.568705 
L 432.861308 163.648012 
L 434.008598 163.648012 
L 435.155888 166.890774 
L 436.303178 163.648012 
L 437.450467 166.890774 
L 438.597757 168.006853 
L 442.039626 168.006853 
L 443.186916 171.468935 
L 445.481495 171.468935 
L 446.628785 175.953642 
L 447.776075 171.468935 
L 448.923364 164.355431 
L 450.070654 163.297033 
L 451.217944 153.832287 
L 452.365234 153.832287 
L 453.512523 144.716724 
L 454.659813 144.716724 
L 455.807103 133.66233 
L 456.954393 133.66233 
L 458.101682 126.560639 
L 462.690841 126.560639 
L 463.838131 126.970642 
L 464.985421 126.970642 
L 466.13271 128.635733 
L 467.28 128.635733 
L 469.574579 134.117433 
L 470.721869 134.117433 
L 471.869159 135.96881 
L 473.016449 135.96881 
L 474.163738 137.151947 
L 475.311028 139.334683 
L 476.458318 139.334683 
L 477.605607 141.335275 
L 478.752897 142.100875 
L 479.900187 142.100875 
L 481.047477 142.357995 
L 482.194766 141.84472 
L 483.342056 142.357995 
L 484.489346 142.357995 
L 485.636636 141.84472 
L 486.783925 141.589522 
L 489.078505 141.589522 
L 490.225794 141.84472 
L 492.520374 141.84472 
L 493.667664 143.658326 
L 494.814953 141.84472 
L 495.962243 141.84472 
L 497.109533 143.396271 
L 499.404112 143.396271 
L 500.551402 148.274439 
L 501.698692 148.274439 
L 502.845981 151.73165 
L 505.140561 151.73165 
L 506.28785 154.137725 
L 508.58243 154.137725 
L 509.72972 158.238029 
L 510.877009 160.889442 
L 512.024299 160.889442 
L 513.171589 158.238029 
L 514.318879 158.238029 
L 515.466168 154.137725 
L 516.613458 152.027812 
L 517.760748 152.027812 
L 518.908037 151.73165 
L 521.202617 151.73165 
L 522.349907 150.559684 
L 523.497196 150.559684 
L 524.644486 151.73165 
L 525.791776 150.559684 
L 532.675514 150.559684 
L 533.822804 149.4075 
L 534.970093 153.528209 
L 538.411963 153.528209 
L 539.559252 148.274439 
L 540.706542 142.100875 
L 541.853832 142.100875 
L 543.001121 136.913673 
L 544.148411 136.913673 
L 545.295701 132.092943 
L 547.59028 123.757564 
L 554.474019 123.757564 
L 555.621308 130.342454 
L 557.915888 130.342454 
L 559.063178 133.889502 
L 560.210467 133.889502 
L 561.357757 134.805829 
L 562.505047 134.805829 
L 563.652336 137.391055 
L 564.799626 144.450582 
L 565.946916 144.450582 
L 567.094206 147.714885 
L 568.241495 149.4075 
L 569.388785 142.357995 
L 570.536075 153.22548 
L 571.683364 162.600442 
L 572.830654 164.000805 
L 575.125234 164.000805 
L 576.272523 166.156731 
L 577.419813 169.523922 
L 582.008972 169.523922 
L 583.156262 173.878549 
L 584.303551 173.878549 
L 586.598131 195.873856 
L 587.745421 195.873856 
L 590.04 203.632845 
L 591.18729 201.762445 
L 595.776449 201.762445 
L 596.923738 202.380235 
L 598.071028 204.267876 
L 600.365607 204.267876 
L 601.512897 208.207352 
L 602.660187 210.965922 
L 603.807477 217.6132 
L 604.954766 220.788903 
L 606.102056 222.43393 
L 607.249346 226.728762 
L 608.396636 229.441648 
L 609.543925 234.217393 
L 610.691215 241.519878 
L 611.838505 249.698145 
L 612.985794 258.99125 
L 614.133084 266.500496 
L 616.427664 273.165816 
L 617.574953 291.076195 
L 618.722243 315.424722 
L 619.869533 315.424722 
L 621.016822 322.256951 
L 622.164112 325.947866 
L 623.311402 325.947866 
L 624.458692 322.256951 
L 625.605981 329.849803 
L 627.900561 329.849803 
L 629.04785 333.988362 
L 630.19514 343.103925 
L 631.34243 343.103925 
L 632.48972 333.988362 
L 633.637009 333.988362 
L 634.784299 329.849803 
L 635.931589 343.103925 
L 639.373458 343.103925 
L 640.520748 359.566928 
L 641.668037 343.103925 
L 642.815327 353.627069 
L 643.962617 348.162928 
L 647.404486 348.162928 
L 648.551776 366.073307 
L 649.699065 381.306272 
L 650.846355 390.421834 
L 651.993645 381.306272 
L 654.288224 381.306272 
L 655.435514 390.421834 
L 656.582804 381.306272 
L 663.466542 381.306272 
L 664.613832 373.265776 
L 665.761121 353.627069 
L 666.908411 343.103925 
L 668.055701 338.394105 
L 670.35028 338.394105 
L 671.49757 318.755398 
L 672.64486 322.256951 
L 673.79215 309.214505 
L 674.939439 303.522433 
L 676.086729 286.670453 
L 681.823178 286.670453 
L 682.970467 271.437488 
L 684.117757 263.396992 
L 687.559626 263.396992 
L 689.854206 236.225341 
L 691.001495 235.213984 
L 692.148785 221.606461 
L 695.590654 221.606461 
L 697.885234 201.762445 
L 699.032523 181.664038 
L 700.179813 168.006853 
L 702.474393 168.006853 
L 703.621682 184.948913 
L 704.768972 168.006853 
L 705.916262 166.522766 
L 707.063551 164.711909 
L 709.358131 164.711909 
L 710.505421 157.59096 
L 711.65271 164.711909 
L 712.8 160.889442 
L 712.8 160.889442 
" style="fill:none;stroke:#1f77b4;stroke-linecap:square;stroke-width:1.5;"/>
   </g>
   <g id="line2d_83">
    <path clip-path="url(#p68e2955192)" d="M 126.534298 613 
L 126.534953 523.26 
L 127.682243 475.942091 
L 138.00785 475.942091 
L 139.15514 523.26 
L 140.30243 475.942091 
L 168.984673 475.942091 
L 170.131963 523.26 
L 170.132618 613 
M 406.47299 613 
L 406.473645 523.26 
L 407.620935 475.942091 
L 413.357383 475.942091 
L 414.504673 448.262888 
L 415.651963 428.624181 
L 430.566729 428.624181 
L 431.714019 448.262888 
L 432.861308 428.624181 
L 434.008598 428.624181 
L 435.155888 448.262888 
L 436.303178 475.942091 
L 437.450467 448.262888 
L 438.597757 428.624181 
L 439.745047 448.262888 
L 440.892336 448.262888 
L 442.039626 428.624181 
L 443.186916 448.262888 
L 444.334206 428.624181 
L 445.481495 448.262888 
L 446.628785 428.624181 
L 447.776075 413.391217 
L 452.365234 413.391217 
L 453.512523 428.624181 
L 454.659813 448.262888 
L 455.807103 428.624181 
L 456.954393 448.262888 
L 459.248972 448.262888 
L 460.396262 475.942091 
L 461.543551 475.942091 
L 462.690841 523.26 
L 462.691496 613 
M 468.426635 613 
L 468.42729 523.26 
L 469.574579 523.26 
L 470.721869 475.942091 
L 471.869159 523.26 
L 473.016449 475.942091 
L 474.163738 523.26 
L 474.164394 613 
M 476.457663 613 
L 476.458318 523.26 
L 477.605607 475.942091 
L 520.055327 475.942091 
L 521.202617 523.26 
L 521.203272 613 
M 524.643831 613 
L 524.644486 523.26 
L 525.791776 523.26 
L 525.792431 613 
M 537.264018 613 
L 537.264673 523.26 
L 538.411963 475.942091 
L 539.559252 475.942091 
L 540.706542 523.26 
L 541.853832 475.942091 
L 543.001121 475.942091 
L 544.148411 523.26 
L 546.442991 523.26 
L 547.59028 475.942091 
L 551.03215 475.942091 
L 552.179439 523.26 
L 553.326729 523.26 
L 553.327384 613 
M 562.504392 613 
L 562.505047 523.26 
L 563.652336 523.26 
L 563.652992 613 
L 563.652992 613 
" style="fill:none;stroke:#ff7f0e;stroke-linecap:square;stroke-width:1.5;"/>
   </g>
   <g id="patch_3">
    <path d="M 99 544.68 
L 99 73.44 
" style="fill:none;stroke:#000000;stroke-linecap:square;stroke-linejoin:miter;stroke-width:0.8;"/>
   </g>
   <g id="patch_4">
    <path d="M 712.8 544.68 
L 712.8 73.44 
" style="fill:none;stroke:#000000;stroke-linecap:square;stroke-linejoin:miter;stroke-width:0.8;"/>
   </g>
   <g id="patch_5">
    <path d="M 99 544.68 
L 712.8 544.68 
" style="fill:none;stroke:#000000;stroke-linecap:square;stroke-linejoin:miter;stroke-width:0.8;"/>
   </g>
   <g id="patch_6">
    <path d="M 99 73.44 
L 712.8 73.44 
" style="fill:none;stroke:#000000;stroke-linecap:square;stroke-linejoin:miter;stroke-width:0.8;"/>
   </g>
   <g id="legend_1">
    <g id="patch_7">
     <path d="M 616.653125 110.79625 
L 705.8 110.79625 
Q 707.8 110.79625 707.8 108.79625 
L 707.8 80.44 
Q 707.8 78.44 705.8 78.44 
L 616.653125 78.44 
Q 614.653125 78.44 614.653125 80.44 
L 614.653125 108.79625 
Q 614.653125 110.79625 616.653125 110.79625 
z
" style="fill:#ffffff;opacity:0.8;stroke:#cccccc;stroke-linejoin:miter;"/>
    </g>
    <g id="line2d_84">
     <path d="M 618.653125 86.538437 
L 638.653125 86.538437 
" style="fill:none;stroke:#1f77b4;stroke-linecap:square;stroke-width:1.5;"/>
    </g>
    <g id="line2d_85"/>
    <g id="text_11">
     <!-- Avg Cases -->
     <g transform="translate(646.653125 90.038437)scale(0.1 -0.1)">
      <defs>
       <path d="M 191 3500 
L 800 3500 
L 1894 563 
L 2988 3500 
L 3597 3500 
L 2284 0 
L 1503 0 
L 191 3500 
z
" id="DejaVuSans-76" transform="scale(0.015625)"/>
       <path d="M 2906 1791 
Q 2906 2416 2648 2759 
Q 2391 3103 1925 3103 
Q 1463 3103 1205 2759 
Q 947 2416 947 1791 
Q 947 1169 1205 825 
Q 1463 481 1925 481 
Q 2391 481 2648 825 
Q 2906 1169 2906 1791 
z
M 3481 434 
Q 3481 -459 3084 -895 
Q 2688 -1331 1869 -1331 
Q 1566 -1331 1297 -1286 
Q 1028 -1241 775 -1147 
L 775 -588 
Q 1028 -725 1275 -790 
Q 1522 -856 1778 -856 
Q 2344 -856 2625 -561 
Q 2906 -266 2906 331 
L 2906 616 
Q 2728 306 2450 153 
Q 2172 0 1784 0 
Q 1141 0 747 490 
Q 353 981 353 1791 
Q 353 2603 747 3093 
Q 1141 3584 1784 3584 
Q 2172 3584 2450 3431 
Q 2728 3278 2906 2969 
L 2906 3500 
L 3481 3500 
L 3481 434 
z
" id="DejaVuSans-67" transform="scale(0.015625)"/>
       <path id="DejaVuSans-20" transform="scale(0.015625)"/>
       <path d="M 4122 4306 
L 4122 3641 
Q 3803 3938 3442 4084 
Q 3081 4231 2675 4231 
Q 1875 4231 1450 3742 
Q 1025 3253 1025 2328 
Q 1025 1406 1450 917 
Q 1875 428 2675 428 
Q 3081 428 3442 575 
Q 3803 722 4122 1019 
L 4122 359 
Q 3791 134 3420 21 
Q 3050 -91 2638 -91 
Q 1578 -91 968 557 
Q 359 1206 359 2328 
Q 359 3453 968 4101 
Q 1578 4750 2638 4750 
Q 3056 4750 3426 4639 
Q 3797 4528 4122 4306 
z
" id="DejaVuSans-43" transform="scale(0.015625)"/>
       <path d="M 2834 3397 
L 2834 2853 
Q 2591 2978 2328 3040 
Q 2066 3103 1784 3103 
Q 1356 3103 1142 2972 
Q 928 2841 928 2578 
Q 928 2378 1081 2264 
Q 1234 2150 1697 2047 
L 1894 2003 
Q 2506 1872 2764 1633 
Q 3022 1394 3022 966 
Q 3022 478 2636 193 
Q 2250 -91 1575 -91 
Q 1294 -91 989 -36 
Q 684 19 347 128 
L 347 722 
Q 666 556 975 473 
Q 1284 391 1588 391 
Q 1994 391 2212 530 
Q 2431 669 2431 922 
Q 2431 1156 2273 1281 
Q 2116 1406 1581 1522 
L 1381 1569 
Q 847 1681 609 1914 
Q 372 2147 372 2553 
Q 372 3047 722 3315 
Q 1072 3584 1716 3584 
Q 2034 3584 2315 3537 
Q 2597 3491 2834 3397 
z
" id="DejaVuSans-73" transform="scale(0.015625)"/>
      </defs>
      <use xlink:href="#DejaVuSans-41"/>
      <use x="62.533203" xlink:href="#DejaVuSans-76"/>
      <use x="121.712891" xlink:href="#DejaVuSans-67"/>
      <use x="185.189453" xlink:href="#DejaVuSans-20"/>
      <use x="216.976562" xlink:href="#DejaVuSans-43"/>
      <use x="286.800781" xlink:href="#DejaVuSans-61"/>
      <use x="348.080078" xlink:href="#DejaVuSans-73"/>
      <use x="400.179688" xlink:href="#DejaVuSans-65"/>
      <use x="461.703125" xlink:href="#DejaVuSans-73"/>
     </g>
    </g>
    <g id="line2d_86">
     <path d="M 618.653125 101.216562 
L 638.653125 101.216562 
" style="fill:none;stroke:#ff7f0e;stroke-linecap:square;stroke-width:1.5;"/>
    </g>
    <g id="line2d_87"/>
    <g id="text_12">
     <!-- Avg Deaths -->
     <g transform="translate(646.653125 104.716562)scale(0.1 -0.1)">
      <defs>
       <path d="M 3513 2113 
L 3513 0 
L 2938 0 
L 2938 2094 
Q 2938 2591 2744 2837 
Q 2550 3084 2163 3084 
Q 1697 3084 1428 2787 
Q 1159 2491 1159 1978 
L 1159 0 
L 581 0 
L 581 4863 
L 1159 4863 
L 1159 2956 
Q 1366 3272 1645 3428 
Q 1925 3584 2291 3584 
Q 2894 3584 3203 3211 
Q 3513 2838 3513 2113 
z
" id="DejaVuSans-68" transform="scale(0.015625)"/>
      </defs>
      <use xlink:href="#DejaVuSans-41"/>
      <use x="62.533203" xlink:href="#DejaVuSans-76"/>
      <use x="121.712891" xlink:href="#DejaVuSans-67"/>
      <use x="185.189453" xlink:href="#DejaVuSans-20"/>
      <use x="216.976562" xlink:href="#DejaVuSans-44"/>
      <use x="293.978516" xlink:href="#DejaVuSans-65"/>
      <use x="355.501953" xlink:href="#DejaVuSans-61"/>
      <use x="416.78125" xlink:href="#DejaVuSans-74"/>
      <use x="455.990234" xlink:href="#DejaVuSans-68"/>
      <use x="519.369141" xlink:href="#DejaVuSans-73"/>
     </g>
    </g>
   </g>
  </g>
 </g>
 <defs>
  <clipPath id="p68e2955192">
   <rect height="471.24" width="613.8" x="99" y="73.44"/>
  </clipPath>
 </defs>
</svg>
