<?xml version="1.0" encoding="utf-8" standalone="no"?>
<!DOCTYPE svg PUBLIC "-//W3C//DTD SVG 1.1//EN"
  "http://www.w3.org/Graphics/SVG/1.1/DTD/svg11.dtd">
<svg height="612pt" version="1.1" viewBox="0 0 792 612" width="792pt" xmlns="http://www.w3.org/2000/svg" xmlns:xlink="http://www.w3.org/1999/xlink">
 <metadata>
  <rdf:RDF xmlns:cc="http://creativecommons.org/ns#" xmlns:dc="http://purl.org/dc/elements/1.1/" xmlns:rdf="http://www.w3.org/1999/02/22-rdf-syntax-ns#">
   <cc:Work>
    <dc:type rdf:resource="http://purl.org/dc/dcmitype/StillImage"/>
    <dc:format>image/svg+xml</dc:format>
    <dc:creator>
     <cc:Agent>
      <dc:title>Matplotlib v3.4.2, https://matplotlib.org/</dc:title>
     </cc:Agent>
    </dc:creator>
   </cc:Work>
  </rdf:RDF>
 </metadata>
 <defs>
  <style type="text/css">*{stroke-linecap:butt;stroke-linejoin:round;}</style>
 </defs>
 <g id="figure_1">
  <g id="patch_1">
   <path d="M 0 612 
L 792 612 
L 792 0 
L 0 0 
z
" style="fill:#ffffff;"/>
  </g>
  <g id="axes_1">
   <g id="patch_2">
    <path d="M 99 544.68 
L 712.8 544.68 
L 712.8 73.44 
L 99 73.44 
z
" style="fill:#ffffff;"/>
   </g>
   <g id="PolyCollection_1">
    <path clip-path="url(#p68e2955192)" d="M 99 159532.315455 
L 99 159532.315455 
L 100.155932 159532.315455 
L 101.311864 159532.315455 
L 102.467797 159532.315455 
L 103.623729 159532.315455 
L 104.779661 159532.315455 
L 105.935593 159532.315455 
L 107.091525 159532.315455 
L 108.247458 159532.315455 
L 109.40339 159532.315455 
L 110.559322 159532.315455 
L 111.715254 159532.315455 
L 112.871186 159532.315455 
L 114.027119 368.477265 
L 115.183051 347.150574 
L 116.338983 347.150574 
L 117.494915 283.425065 
L 118.650847 268.441246 
L 119.80678 261.544175 
L 120.962712 249.001963 
L 122.118644 246.694891 
L 123.274576 245.942678 
L 124.430508 245.942678 
L 125.586441 245.942678 
L 126.742373 234.05856 
L 127.898305 234.05856 
L 129.054237 234.05856 
L 130.210169 227.075088 
L 131.366102 209.714903 
L 132.522034 203.77821 
L 133.677966 203.77821 
L 134.833898 203.77821 
L 135.989831 203.77821 
L 137.145763 203.77821 
L 138.301695 203.77821 
L 139.457627 203.77821 
L 140.613559 203.77821 
L 141.769492 203.77821 
L 142.925424 203.77821 
L 144.081356 203.77821 
L 145.237288 203.77821 
L 146.39322 203.77821 
L 147.549153 211.965185 
L 148.705085 235.974547 
L 149.861017 235.974547 
L 151.016949 237.282047 
L 152.172881 241.359939 
L 153.328814 241.359939 
L 154.484746 258.487147 
L 155.640678 270.190138 
L 156.79661 270.190138 
L 157.952542 290.655455 
L 159.108475 290.655455 
L 160.264407 290.655455 
L 161.420339 290.655455 
L 162.576271 287.85463 
L 163.732203 304.888823 
L 164.888136 301.462788 
L 166.044068 301.462788 
L 167.2 301.462788 
L 168.355932 301.462788 
L 169.511864 301.462788 
L 170.667797 301.462788 
L 171.823729 315.63481 
L 172.979661 315.63481 
L 174.135593 315.63481 
L 175.291525 315.63481 
L 176.447458 315.63481 
L 177.60339 315.63481 
L 178.759322 334.376592 
L 179.915254 339.980546 
L 181.071186 355.151952 
L 182.227119 355.151952 
L 183.383051 355.151952 
L 184.538983 355.151952 
L 185.694915 355.151952 
L 186.850847 355.151952 
L 188.00678 355.151952 
L 189.162712 358.886783 
L 190.318644 351.608737 
L 191.474576 351.608737 
L 192.630508 351.608737 
L 193.786441 351.608737 
L 194.942373 351.608737 
L 196.098305 351.608737 
L 197.254237 355.151952 
L 198.410169 355.151952 
L 199.566102 355.151952 
L 200.722034 355.151952 
L 201.877966 355.151952 
L 203.033898 355.151952 
L 204.189831 287.85463 
L 205.345763 274.201043 
L 206.501695 274.201043 
L 207.657627 274.201043 
L 208.813559 274.201043 
L 209.969492 274.201043 
L 211.125424 274.201043 
L 212.281356 274.201043 
L 213.437288 274.201043 
L 214.59322 274.201043 
L 215.749153 274.201043 
L 216.905085 274.201043 
L 218.061017 282.149751 
L 219.216949 282.149751 
L 220.372881 292.58782 
L 221.528814 303.727828 
L 222.684746 305.47672 
L 223.840678 305.47672 
L 224.99661 292.58782 
L 226.152542 309.113221 
L 227.308475 309.113221 
L 228.464407 309.113221 
L 229.620339 309.113221 
L 230.776271 309.113221 
L 231.932203 309.113221 
L 233.088136 309.113221 
L 234.244068 286.048578 
L 235.4 286.048578 
L 236.555932 286.048578 
L 237.711864 287.398671 
L 238.867797 287.398671 
L 240.023729 287.398671 
L 241.179661 313.612884 
L 242.335593 290.655455 
L 243.491525 290.655455 
L 244.647458 290.655455 
L 245.80339 287.85463 
L 246.959322 287.85463 
L 248.115254 287.85463 
L 249.271186 287.85463 
L 250.427119 298.198674 
L 251.583051 298.198674 
L 252.738983 298.198674 
L 253.894915 298.198674 
L 255.050847 298.198674 
L 256.20678 298.198674 
L 257.362712 298.198674 
L 258.518644 299.811453 
L 259.674576 299.811453 
L 260.830508 299.811453 
L 261.986441 305.47672 
L 263.142373 305.47672 
L 264.298305 305.47672 
L 265.454237 309.738361 
L 266.610169 309.738361 
L 267.766102 309.738361 
L 268.922034 309.738361 
L 270.077966 311.648461 
L 271.233898 315.63481 
L 272.389831 315.63481 
L 273.545763 315.63481 
L 274.701695 325.942037 
L 275.857627 328.36606 
L 277.013559 340.960386 
L 278.169492 340.960386 
L 279.325424 340.960386 
L 280.481356 328.36606 
L 281.637288 328.36606 
L 282.79322 328.36606 
L 283.949153 318.426202 
L 285.105085 318.426202 
L 286.261017 318.426202 
L 287.416949 307.271043 
L 288.572881 307.271043 
L 289.728814 307.271043 
L 290.884746 307.271043 
L 292.040678 307.271043 
L 293.19661 303.727828 
L 294.352542 303.727828 
L 295.508475 303.727828 
L 296.664407 303.727828 
L 297.820339 303.727828 
L 298.976271 303.727828 
L 300.132203 309.113221 
L 301.288136 303.727828 
L 302.444068 303.727828 
L 303.6 305.47672 
L 304.755932 305.47672 
L 305.911864 305.47672 
L 307.067797 305.47672 
L 308.223729 305.47672 
L 309.379661 309.738361 
L 310.535593 309.738361 
L 311.691525 309.738361 
L 312.847458 309.738361 
L 314.00339 309.738361 
L 315.159322 309.738361 
L 316.315254 309.738361 
L 317.471186 313.612884 
L 318.627119 325.942037 
L 319.783051 313.612884 
L 320.938983 328.36606 
L 322.094915 328.36606 
L 323.250847 328.36606 
L 324.40678 328.36606 
L 325.562712 328.36606 
L 326.718644 328.36606 
L 327.874576 328.36606 
L 329.030508 328.36606 
L 330.186441 328.36606 
L 331.342373 328.36606 
L 332.498305 328.36606 
L 333.654237 334.376592 
L 334.810169 334.376592 
L 335.966102 343.986164 
L 337.122034 347.150574 
L 338.277966 347.150574 
L 339.433898 347.150574 
L 340.589831 334.376592 
L 341.745763 320.596356 
L 342.901695 320.596356 
L 344.057627 303.154567 
L 345.213559 303.154567 
L 346.369492 303.154567 
L 347.525424 301.462788 
L 348.681356 301.462788 
L 349.837288 301.462788 
L 350.99322 301.462788 
L 352.149153 301.462788 
L 353.305085 301.462788 
L 354.461017 301.462788 
L 355.616949 294.5758 
L 356.772881 296.105255 
L 357.928814 296.105255 
L 359.084746 296.105255 
L 360.240678 305.47672 
L 361.39661 305.47672 
L 362.552542 296.105255 
L 363.708475 289.709172 
L 364.864407 285.162956 
L 366.020339 256.715831 
L 367.176271 244.218728 
L 368.332203 244.218728 
L 369.488136 241.126962 
L 370.644068 241.126962 
L 371.8 241.126962 
L 372.955932 241.126962 
L 374.111864 241.126962 
L 375.267797 241.126962 
L 376.423729 241.126962 
L 377.579661 241.126962 
L 378.735593 240.43271 
L 379.891525 240.43271 
L 381.047458 240.43271 
L 382.20339 240.43271 
L 383.359322 231.381598 
L 384.515254 231.381598 
L 385.671186 216.698375 
L 386.827119 210.307847 
L 387.983051 186.810427 
L 389.138983 167.443145 
L 390.294915 158.943298 
L 391.450847 158.943298 
L 392.60678 149.931932 
L 393.762712 149.931932 
L 394.918644 149.931932 
L 396.074576 145.773371 
L 397.230508 134.022541 
L 398.386441 134.022541 
L 399.542373 134.022541 
L 400.698305 134.022541 
L 401.854237 134.022541 
L 403.010169 134.022541 
L 404.166102 134.022541 
L 405.322034 129.718741 
L 406.477966 129.718741 
L 407.633898 129.718741 
L 408.789831 129.718741 
L 409.945763 129.718741 
L 411.101695 120.895743 
L 412.257627 116.62399 
L 413.413559 116.62399 
L 414.569492 116.62399 
L 415.725424 116.62399 
L 416.881356 116.62399 
L 418.037288 116.62399 
L 419.19322 116.62399 
L 420.349153 116.62399 
L 421.505085 122.2555 
L 422.661017 122.2555 
L 423.816949 122.2555 
L 424.972881 122.2555 
L 426.128814 122.2555 
L 427.284746 139.088622 
L 428.440678 139.088622 
L 429.59661 139.088622 
L 430.752542 140.212729 
L 431.908475 140.212729 
L 433.064407 140.212729 
L 434.220339 140.212729 
L 435.376271 140.212729 
L 436.532203 140.37482 
L 437.688136 144.613351 
L 438.844068 135.974155 
L 440 139.568144 
L 441.155932 140.051018 
L 442.311864 140.051018 
L 443.467797 140.051018 
L 444.623729 141.57525 
L 445.779661 141.57525 
L 446.935593 120.488925 
L 448.091525 120.488925 
L 449.247458 120.488925 
L 450.40339 117.04719 
L 451.559322 117.04719 
L 452.715254 100.636836 
L 453.871186 97.863223 
L 455.027119 97.863223 
L 456.183051 97.863223 
L 457.338983 97.863223 
L 458.494915 97.863223 
L 459.650847 97.863223 
L 460.80678 97.863223 
L 461.962712 97.863223 
L 463.118644 105.131526 
L 464.274576 105.131526 
L 465.430508 105.131526 
L 466.586441 105.131526 
L 467.742373 105.131526 
L 468.898305 110.148373 
L 470.054237 116.50902 
L 471.210169 116.50902 
L 472.366102 116.50902 
L 473.522034 116.50902 
L 474.677966 116.50902 
L 475.833898 116.50902 
L 476.989831 118.924838 
L 478.145763 118.924838 
L 479.301695 120.610719 
L 480.457627 120.610719 
L 481.613559 122.2139 
L 482.769492 122.2139 
L 483.925424 122.338776 
L 485.081356 119.123394 
L 486.237288 122.338776 
L 487.39322 121.716639 
L 488.549153 121.716639 
L 489.705085 121.716639 
L 490.861017 121.716639 
L 492.016949 121.716639 
L 493.172881 121.716639 
L 494.328814 120.245979 
L 495.484746 123.77005 
L 496.640678 123.77005 
L 497.79661 119.963618 
L 498.952542 119.963618 
L 500.108475 119.963618 
L 501.264407 123.77005 
L 502.420339 123.77005 
L 503.576271 123.897775 
L 504.732203 123.897775 
L 505.888136 123.897775 
L 507.044068 123.897775 
L 508.2 123.897775 
L 509.355932 123.897775 
L 510.511864 128.843455 
L 511.667797 130.37086 
L 512.823729 130.37086 
L 513.979661 136.688405 
L 515.135593 136.688405 
L 516.291525 136.688405 
L 517.447458 136.688405 
L 518.60339 136.688405 
L 519.759322 133.042701 
L 520.915254 133.042701 
L 522.071186 133.042701 
L 523.227119 133.042701 
L 524.383051 133.042701 
L 525.538983 133.042701 
L 526.694915 133.042701 
L 527.850847 133.335196 
L 529.00678 117.472999 
L 530.162712 117.472999 
L 531.318644 117.472999 
L 532.474576 117.472999 
L 533.630508 132.172573 
L 534.786441 131.265843 
L 535.942373 126.018079 
L 537.098305 117.395383 
L 538.254237 117.395383 
L 539.410169 117.395383 
L 540.566102 117.395383 
L 541.722034 114.248921 
L 542.877966 112.74598 
L 544.033898 112.74598 
L 545.189831 111.488357 
L 546.345763 111.488357 
L 547.501695 111.488357 
L 548.657627 111.488357 
L 549.813559 98.923709 
L 550.969492 95.875035 
L 552.125424 95.875035 
L 553.281356 94.86 
L 554.437288 94.86 
L 555.59322 94.86 
L 556.749153 94.86 
L 557.905085 94.86 
L 559.061017 96.67495 
L 560.216949 96.67495 
L 561.372881 96.245273 
L 562.528814 96.245273 
L 563.684746 96.245273 
L 564.840678 96.245273 
L 565.99661 98.097484 
L 567.152542 98.538875 
L 568.308475 98.538875 
L 569.464407 105.457057 
L 570.620339 105.457057 
L 571.776271 105.457057 
L 572.932203 105.457057 
L 574.088136 121.346028 
L 575.244068 121.346028 
L 576.4 121.716639 
L 577.555932 131.78934 
L 578.711864 131.78934 
L 579.867797 131.78934 
L 581.023729 131.78934 
L 582.179661 136.483579 
L 583.335593 140.537291 
L 584.491525 140.537291 
L 585.647458 145.539803 
L 586.80339 145.539803 
L 587.959322 145.539803 
L 589.115254 157.403512 
L 590.271186 157.403512 
L 591.427119 157.403512 
L 592.583051 157.403512 
L 593.738983 157.403512 
L 594.894915 157.403512 
L 596.050847 157.403512 
L 597.20678 157.403512 
L 598.362712 160.013183 
L 599.518644 164.696941 
L 600.674576 166.331528 
L 601.830508 180.438853 
L 602.986441 180.438853 
L 604.142373 180.438853 
L 605.298305 180.438853 
L 606.454237 180.438853 
L 607.610169 184.826203 
L 608.766102 184.826203 
L 609.922034 184.826203 
L 611.077966 184.826203 
L 612.233898 187.985789 
L 613.389831 187.985789 
L 614.545763 203.238539 
L 615.701695 217.519758 
L 616.857627 222.842649 
L 618.013559 222.842649 
L 619.169492 222.842649 
L 620.325424 222.842649 
L 621.481356 230.978813 
L 622.637288 253.581879 
L 623.79322 262.8059 
L 624.949153 262.8059 
L 626.105085 266.06488 
L 627.261017 255.273659 
L 628.416949 255.273659 
L 629.572881 276.104126 
L 630.728814 294.5758 
L 631.884746 294.5758 
L 633.040678 294.5758 
L 634.19661 294.5758 
L 635.352542 294.5758 
L 636.508475 294.5758 
L 637.664407 294.5758 
L 638.820339 294.5758 
L 639.976271 294.5758 
L 641.132203 294.5758 
L 642.288136 294.5758 
L 643.444068 301.462788 
L 644.6 313.612884 
L 645.755932 313.612884 
L 646.911864 323.600201 
L 648.067797 323.600201 
L 649.223729 323.600201 
L 650.379661 323.600201 
L 651.535593 323.600201 
L 652.691525 323.600201 
L 653.847458 325.942037 
L 655.00339 331.736365 
L 656.159322 331.736365 
L 657.315254 331.736365 
L 658.471186 331.736365 
L 659.627119 334.376592 
L 660.783051 320.596356 
L 661.938983 322.836905 
L 663.094915 322.836905 
L 664.250847 307.271043 
L 665.40678 307.271043 
L 666.562712 307.271043 
L 667.718644 296.105255 
L 668.874576 296.105255 
L 670.030508 277.665267 
L 671.186441 277.665267 
L 672.342373 267.073329 
L 673.498305 267.073329 
L 674.654237 267.073329 
L 675.810169 248.741783 
L 676.966102 248.741783 
L 678.122034 248.741783 
L 679.277966 237.945197 
L 680.433898 237.945197 
L 681.589831 237.945197 
L 682.745763 237.945197 
L 683.901695 229.194788 
L 685.057627 229.194788 
L 686.213559 216.861872 
L 687.369492 216.861872 
L 688.525424 199.193183 
L 689.681356 199.193183 
L 690.837288 199.193183 
L 691.99322 183.804328 
L 693.149153 183.804328 
L 694.305085 183.804328 
L 695.461017 168.817466 
L 696.616949 158.872558 
L 697.772881 158.872558 
L 698.928814 158.872558 
L 700.084746 136.739707 
L 701.240678 136.739707 
L 702.39661 136.739707 
L 703.552542 132.994072 
L 704.708475 127.170137 
L 705.864407 127.170137 
L 707.020339 127.170137 
L 708.176271 130.324076 
L 709.332203 101.926895 
L 710.488136 101.926895 
L 711.644068 100.819662 
L 712.8 100.819662 
L 712.8 159532.315455 
L 712.8 159532.315455 
L 711.644068 159532.315455 
L 710.488136 159532.315455 
L 709.332203 159532.315455 
L 708.176271 159532.315455 
L 707.020339 229.587275 
L 705.864407 229.587275 
L 704.708475 229.587275 
L 703.552542 229.587275 
L 702.39661 257.595812 
L 701.240678 257.595812 
L 700.084746 311.005875 
L 698.928814 311.005875 
L 697.772881 311.005875 
L 696.616949 311.005875 
L 695.461017 311.005875 
L 694.305085 311.005875 
L 693.149153 311.005875 
L 691.99322 317.016407 
L 690.837288 317.016407 
L 689.681356 317.016407 
L 688.525424 317.016407 
L 687.369492 317.016407 
L 686.213559 317.016407 
L 685.057627 317.016407 
L 683.901695 339.014411 
L 682.745763 339.014411 
L 681.589831 339.014411 
L 680.433898 339.014411 
L 679.277966 339.014411 
L 678.122034 371.48111 
L 676.966102 371.48111 
L 675.810169 371.48111 
L 674.654237 159532.315455 
L 673.498305 159532.315455 
L 672.342373 159532.315455 
L 671.186441 159532.315455 
L 670.030508 159532.315455 
L 668.874576 159532.315455 
L 667.718644 159532.315455 
L 666.562712 159532.315455 
L 665.40678 159532.315455 
L 664.250847 159532.315455 
L 663.094915 159532.315455 
L 661.938983 159532.315455 
L 660.783051 159532.315455 
L 659.627119 159532.315455 
L 658.471186 434.776229 
L 657.315254 434.776229 
L 656.159322 434.776229 
L 655.00339 434.776229 
L 653.847458 406.767692 
L 652.691525 406.767692 
L 651.535593 406.767692 
L 650.379661 406.767692 
L 649.223729 406.767692 
L 648.067797 406.767692 
L 646.911864 406.767692 
L 645.755932 406.767692 
L 644.6 406.767692 
L 643.444068 406.767692 
L 642.288136 406.767692 
L 641.132203 406.767692 
L 639.976271 406.767692 
L 638.820339 371.48111 
L 637.664407 371.48111 
L 636.508475 371.48111 
L 635.352542 386.89532 
L 634.19661 386.89532 
L 633.040678 365.598617 
L 631.884746 352.769732 
L 630.728814 334.376592 
L 629.572881 334.376592 
L 628.416949 331.736365 
L 627.261017 331.736365 
L 626.105085 331.736365 
L 624.949153 331.736365 
L 623.79322 324.372025 
L 622.637288 324.372025 
L 621.481356 323.600201 
L 620.325424 317.016407 
L 619.169492 310.369211 
L 618.013559 275.33659 
L 616.857627 268.7875 
L 615.701695 265.400667 
L 614.545763 262.172157 
L 613.389831 251.388757 
L 612.233898 244.462388 
L 611.077966 234.691336 
L 609.922034 228.416441 
L 608.766102 224.468078 
L 607.610169 222.486579 
L 606.454237 219.361936 
L 605.298305 215.886643 
L 604.142373 213.040941 
L 602.986441 213.040941 
L 601.830508 213.040941 
L 600.674576 207.107893 
L 599.518644 207.107893 
L 598.362712 207.107893 
L 597.20678 207.107893 
L 596.050847 206.682799 
L 594.894915 206.682799 
L 593.738983 208.980809 
L 592.583051 206.682799 
L 591.427119 206.682799 
L 590.271186 206.682799 
L 589.115254 198.311598 
L 587.959322 196.095016 
L 586.80339 196.095016 
L 585.647458 189.731918 
L 584.491525 189.731918 
L 583.335593 189.731918 
L 582.179661 189.731918 
L 581.023729 189.731918 
L 579.867797 186.282712 
L 578.711864 168.572943 
L 577.555932 165.470494 
L 576.4 165.470494 
L 575.244068 163.931955 
L 574.088136 160.590638 
L 572.932203 159.440517 
L 571.776271 160.590638 
L 570.620339 159.440517 
L 569.464407 157.472763 
L 568.308475 157.472763 
L 567.152542 153.632261 
L 565.99661 153.632261 
L 564.840678 153.632261 
L 563.684746 146.537966 
L 562.528814 146.47885 
L 561.372881 132.4614 
L 560.216949 132.4614 
L 559.061017 142.23893 
L 557.905085 142.23893 
L 556.749153 142.23893 
L 555.59322 142.23893 
L 554.437288 142.23893 
L 553.281356 142.852957 
L 552.125424 142.852957 
L 550.969492 142.852957 
L 549.813559 142.852957 
L 548.657627 142.852957 
L 547.501695 153.109933 
L 546.345763 158.239138 
L 545.189831 158.239138 
L 544.033898 158.239138 
L 542.877966 160.881185 
L 541.722034 160.881185 
L 540.566102 160.881185 
L 539.410169 162.203987 
L 538.254237 167.044083 
L 537.098305 167.044083 
L 535.942373 167.044083 
L 534.786441 167.044083 
L 533.630508 167.044083 
L 532.474576 167.044083 
L 531.318644 156.920691 
L 530.162712 156.851992 
L 529.00678 166.174176 
L 527.850847 166.174176 
L 526.694915 158.099163 
L 525.538983 158.099163 
L 524.383051 166.174176 
L 523.227119 166.174176 
L 522.071186 166.252808 
L 520.915254 166.252808 
L 519.759322 166.252808 
L 518.60339 166.252808 
L 517.447458 166.252808 
L 516.291525 166.252808 
L 515.135593 167.925084 
L 513.979661 170.470118 
L 512.823729 170.470118 
L 511.667797 170.470118 
L 510.511864 170.470118 
L 509.355932 170.470118 
L 508.2 157.196175 
L 507.044068 157.196175 
L 505.888136 157.472763 
L 504.732203 157.472763 
L 503.576271 157.472763 
L 502.420339 157.472763 
L 501.264407 153.240145 
L 500.108475 153.240145 
L 498.952542 147.430838 
L 497.79661 147.191608 
L 496.640678 147.191608 
L 495.484746 146.12521 
L 494.328814 146.12521 
L 493.172881 146.12521 
L 492.016949 146.12521 
L 490.861017 146.12521 
L 489.705085 144.786117 
L 488.549153 144.786117 
L 487.39322 144.786117 
L 486.237288 144.786117 
L 485.081356 142.127873 
L 483.925424 144.786117 
L 482.769492 144.786117 
L 481.613559 144.786117 
L 480.457627 142.127873 
L 479.301695 142.127873 
L 478.145763 142.127873 
L 476.989831 142.127873 
L 475.833898 142.127873 
L 474.677966 142.072411 
L 473.522034 138.454393 
L 472.366102 142.072411 
L 471.210169 134.071899 
L 470.054237 134.071899 
L 468.898305 134.071899 
L 467.742373 129.626082 
L 466.586441 134.071899 
L 465.430508 125.188177 
L 464.274576 134.071899 
L 463.118644 144.154744 
L 461.962712 144.154744 
L 460.80678 145.190926 
L 459.650847 145.190926 
L 458.494915 150.493288 
L 457.338983 156.032881 
L 456.183051 164.466554 
L 455.027119 171.142411 
L 453.871186 171.142411 
L 452.715254 173.199462 
L 451.559322 173.199462 
L 450.40339 178.251769 
L 449.247458 178.251769 
L 448.091525 178.251769 
L 446.935593 178.251769 
L 445.779661 178.251769 
L 444.623729 178.06482 
L 443.467797 178.06482 
L 442.311864 171.650959 
L 441.155932 178.251769 
L 440 178.251769 
L 438.844068 168.654355 
L 437.688136 169.391407 
L 436.532203 167.764064 
L 435.376271 167.764064 
L 434.220339 164.160563 
L 433.064407 161.760233 
L 431.908475 162.12983 
L 430.752542 162.12983 
L 429.59661 162.12983 
L 428.440678 158.239138 
L 427.284746 158.239138 
L 426.128814 154.822143 
L 424.972881 154.822143 
L 423.816949 158.309231 
L 422.661017 169.55627 
L 421.505085 180.438853 
L 420.349153 180.438853 
L 419.19322 184.929227 
L 418.037288 185.135737 
L 416.881356 187.022647 
L 415.725424 185.135737 
L 414.569492 185.135737 
L 413.413559 185.135737 
L 412.257627 185.135737 
L 411.101695 185.135737 
L 409.945763 187.878107 
L 408.789831 187.878107 
L 407.633898 187.878107 
L 406.477966 197.194417 
L 405.322034 187.878107 
L 404.166102 187.878107 
L 403.010169 171.650959 
L 401.854237 170.973723 
L 400.698305 170.973723 
L 399.542373 180.535533 
L 398.386441 197.317659 
L 397.230508 209.567459 
L 396.074576 211.056257 
L 394.918644 213.819727 
L 393.762712 228.999378 
L 392.60678 242.063621 
L 391.450847 258.786833 
L 390.294915 258.786833 
L 389.138983 258.786833 
L 387.983051 259.390135 
L 386.827119 265.070941 
L 385.671186 266.06488 
L 384.515254 266.06488 
L 383.359322 276.104126 
L 382.20339 276.104126 
L 381.047458 276.104126 
L 379.891525 276.104126 
L 378.735593 280.075194 
L 377.579661 284.288545 
L 376.423729 288.775677 
L 375.267797 295.081865 
L 374.111864 310.369211 
L 372.955932 310.369211 
L 371.8 310.369211 
L 370.644068 310.369211 
L 369.488136 310.369211 
L 368.332203 316.322155 
L 367.176271 316.322155 
L 366.020339 316.322155 
L 364.864407 316.322155 
L 363.708475 317.016407 
L 362.552542 317.016407 
L 361.39661 324.372025 
L 360.240678 331.736365 
L 359.084746 331.736365 
L 357.928814 332.605276 
L 356.772881 332.605276 
L 355.616949 332.605276 
L 354.461017 341.954325 
L 353.305085 341.954325 
L 352.149153 353.950573 
L 350.99322 379.617273 
L 349.837288 381.366166 
L 348.681356 381.366166 
L 347.525424 381.366166 
L 346.369492 399.489646 
L 345.213559 399.489646 
L 344.057627 399.489646 
L 342.901695 399.489646 
L 341.745763 399.489646 
L 340.589831 399.489646 
L 339.433898 401.831482 
L 338.277966 401.831482 
L 337.122034 427.498182 
L 335.966102 427.498182 
L 334.810169 427.498182 
L 333.654237 427.498182 
L 332.498305 427.498182 
L 331.342373 427.498182 
L 330.186441 401.831482 
L 329.030508 401.831482 
L 327.874576 399.489646 
L 326.718644 399.489646 
L 325.562712 401.831482 
L 324.40678 401.831482 
L 323.250847 399.489646 
L 322.094915 401.831482 
L 320.938983 401.831482 
L 319.783051 401.831482 
L 318.627119 401.831482 
L 317.471186 401.831482 
L 316.315254 401.831482 
L 315.159322 401.831482 
L 314.00339 401.831482 
L 312.847458 399.489646 
L 311.691525 399.489646 
L 310.535593 367.022947 
L 309.379661 365.598617 
L 308.223729 365.598617 
L 307.067797 379.617273 
L 305.911864 379.617273 
L 304.755932 379.617273 
L 303.6 379.617273 
L 302.444068 379.617273 
L 301.288136 379.617273 
L 300.132203 379.617273 
L 298.976271 379.617273 
L 297.820339 379.617273 
L 296.664407 379.617273 
L 295.508475 379.617273 
L 294.352542 379.617273 
L 293.19661 379.617273 
L 292.040678 379.617273 
L 290.884746 381.366166 
L 289.728814 367.022947 
L 288.572881 364.203064 
L 287.416949 364.203064 
L 286.261017 365.598617 
L 285.105085 365.598617 
L 283.949153 365.598617 
L 282.79322 365.598617 
L 281.637288 381.366166 
L 280.481356 399.489646 
L 279.325424 399.489646 
L 278.169492 401.831482 
L 277.013559 401.831482 
L 275.857627 401.831482 
L 274.701695 401.831482 
L 273.545763 401.831482 
L 272.389831 431.041397 
L 271.233898 431.041397 
L 270.077966 401.831482 
L 268.922034 401.831482 
L 267.766102 401.831482 
L 266.610169 401.831482 
L 265.454237 381.366166 
L 264.298305 379.617273 
L 263.142373 379.617273 
L 261.986441 365.598617 
L 260.830508 352.769732 
L 259.674576 352.769732 
L 258.518644 364.203064 
L 257.362712 364.203064 
L 256.20678 364.203064 
L 255.050847 365.598617 
L 253.894915 379.617273 
L 252.738983 379.617273 
L 251.583051 381.366166 
L 250.427119 381.366166 
L 249.271186 381.366166 
L 248.115254 401.831482 
L 246.959322 427.498182 
L 245.80339 427.498182 
L 244.647458 427.498182 
L 243.491525 427.498182 
L 242.335593 427.498182 
L 241.179661 427.498182 
L 240.023729 427.498182 
L 238.867797 427.498182 
L 237.711864 427.498182 
L 236.555932 427.498182 
L 235.4 427.498182 
L 234.244068 427.498182 
L 233.088136 427.498182 
L 231.932203 427.498182 
L 230.776271 427.498182 
L 229.620339 427.498182 
L 228.464407 427.498182 
L 227.308475 401.831482 
L 226.152542 401.831482 
L 224.99661 401.831482 
L 223.840678 401.831482 
L 222.684746 399.489646 
L 221.528814 399.489646 
L 220.372881 399.489646 
L 219.216949 367.022947 
L 218.061017 401.831482 
L 216.905085 401.831482 
L 215.749153 401.831482 
L 214.59322 367.022947 
L 213.437288 368.477265 
L 212.281356 365.598617 
L 211.125424 383.160489 
L 209.969492 427.498182 
L 208.813559 427.498182 
L 207.657627 427.498182 
L 206.501695 427.498182 
L 205.345763 427.498182 
L 204.189831 427.498182 
L 203.033898 427.498182 
L 201.877966 427.498182 
L 200.722034 427.498182 
L 199.566102 427.498182 
L 198.410169 427.498182 
L 197.254237 427.498182 
L 196.098305 427.498182 
L 194.942373 431.041397 
L 193.786441 431.041397 
L 192.630508 431.041397 
L 191.474576 431.041397 
L 190.318644 475.379091 
L 189.162712 475.379091 
L 188.00678 475.379091 
L 186.850847 475.379091 
L 185.694915 475.379091 
L 184.538983 475.379091 
L 183.383051 475.379091 
L 182.227119 475.379091 
L 181.071186 475.379091 
L 179.915254 475.379091 
L 178.759322 431.041397 
L 177.60339 427.498182 
L 176.447458 427.498182 
L 175.291525 431.041397 
L 174.135593 401.831482 
L 172.979661 381.366166 
L 171.823729 381.366166 
L 170.667797 379.617273 
L 169.511864 379.617273 
L 168.355932 383.160489 
L 167.2 379.617273 
L 166.044068 383.160489 
L 164.888136 383.160489 
L 163.732203 383.160489 
L 162.576271 383.160489 
L 161.420339 383.160489 
L 160.264407 383.160489 
L 159.108475 379.617273 
L 157.952542 379.617273 
L 156.79661 379.617273 
L 155.640678 379.617273 
L 154.484746 379.617273 
L 153.328814 365.598617 
L 152.172881 342.962774 
L 151.016949 325.152571 
L 149.861017 323.600201 
L 148.705085 311.005875 
L 147.549153 286.048578 
L 146.39322 286.048578 
L 145.237288 266.735541 
L 144.081356 266.399396 
L 142.925424 259.390135 
L 141.769492 246.443242 
L 140.613559 246.443242 
L 139.457627 246.192507 
L 138.301695 248.48258 
L 137.145763 250.851185 
L 135.989831 247.967074 
L 134.833898 247.967074 
L 133.677966 250.851185 
L 132.522034 256.135344 
L 131.366102 259.390135 
L 130.210169 265.400667 
L 129.054237 268.441246 
L 127.898305 268.441246 
L 126.742373 273.083862 
L 125.586441 342.962774 
L 124.430508 365.598617 
L 123.274576 381.366166 
L 122.118644 399.489646 
L 120.962712 399.489646 
L 119.80678 399.489646 
L 118.650847 401.831482 
L 117.494915 431.041397 
L 116.338983 482.657137 
L 115.183051 159532.315455 
L 114.027119 159532.315455 
L 112.871186 159532.315455 
L 111.715254 159532.315455 
L 110.559322 159532.315455 
L 109.40339 159532.315455 
L 108.247458 159532.315455 
L 107.091525 159532.315455 
L 105.935593 159532.315455 
L 104.779661 159532.315455 
L 103.623729 159532.315455 
L 102.467797 159532.315455 
L 101.311864 159532.315455 
L 100.155932 159532.315455 
L 99 159532.315455 
z
" style="fill:#8080ff;fill-opacity:0.5;stroke:#8080ff;stroke-opacity:0.5;"/>
   </g>
   <g id="PolyCollection_2">
    <path clip-path="url(#p68e2955192)" d="M 99 159532.315455 
L 99 159532.315455 
L 100.155932 159532.315455 
L 101.311864 159532.315455 
L 102.467797 159532.315455 
L 103.623729 159532.315455 
L 104.779661 159532.315455 
L 105.935593 159532.315455 
L 107.091525 159532.315455 
L 108.247458 159532.315455 
L 109.40339 159532.315455 
L 110.559322 159532.315455 
L 111.715254 159532.315455 
L 112.871186 159532.315455 
L 114.027119 159532.315455 
L 115.183051 159532.315455 
L 116.338983 159532.315455 
L 117.494915 159532.315455 
L 118.650847 452.136413 
L 119.80678 438.724592 
L 120.962712 438.724592 
L 122.118644 438.724592 
L 123.274576 427.498182 
L 124.430508 427.498182 
L 125.586441 427.498182 
L 126.742373 427.498182 
L 127.898305 406.767692 
L 129.054237 406.767692 
L 130.210169 406.767692 
L 131.366102 399.489646 
L 132.522034 399.489646 
L 133.677966 399.489646 
L 134.833898 406.767692 
L 135.989831 406.767692 
L 137.145763 406.767692 
L 138.301695 406.767692 
L 139.457627 406.767692 
L 140.613559 406.767692 
L 141.769492 406.767692 
L 142.925424 406.767692 
L 144.081356 427.498182 
L 145.237288 406.767692 
L 146.39322 406.767692 
L 147.549153 427.498182 
L 148.705085 427.498182 
L 149.861017 427.498182 
L 151.016949 427.498182 
L 152.172881 427.498182 
L 153.328814 406.767692 
L 154.484746 406.767692 
L 155.640678 406.767692 
L 156.79661 406.767692 
L 157.952542 406.767692 
L 159.108475 406.767692 
L 160.264407 406.767692 
L 161.420339 427.498182 
L 162.576271 427.498182 
L 163.732203 427.498182 
L 164.888136 427.498182 
L 166.044068 427.498182 
L 167.2 427.498182 
L 168.355932 427.498182 
L 169.511864 427.498182 
L 170.667797 427.498182 
L 171.823729 438.724592 
L 172.979661 438.724592 
L 174.135593 438.724592 
L 175.291525 438.724592 
L 176.447458 438.724592 
L 177.60339 475.379091 
L 178.759322 475.379091 
L 179.915254 500.017322 
L 181.071186 500.017322 
L 182.227119 500.017322 
L 183.383051 500.017322 
L 184.538983 500.017322 
L 185.694915 159532.315455 
L 186.850847 159532.315455 
L 188.00678 159532.315455 
L 189.162712 159532.315455 
L 190.318644 159532.315455 
L 191.474576 159532.315455 
L 192.630508 159532.315455 
L 193.786441 500.017322 
L 194.942373 500.017322 
L 196.098305 500.017322 
L 197.254237 159532.315455 
L 198.410169 159532.315455 
L 199.566102 159532.315455 
L 200.722034 159532.315455 
L 201.877966 159532.315455 
L 203.033898 159532.315455 
L 204.189831 159532.315455 
L 205.345763 159532.315455 
L 206.501695 159532.315455 
L 207.657627 159532.315455 
L 208.813559 159532.315455 
L 209.969492 159532.315455 
L 211.125424 159532.315455 
L 212.281356 159532.315455 
L 213.437288 159532.315455 
L 214.59322 159532.315455 
L 215.749153 159532.315455 
L 216.905085 159532.315455 
L 218.061017 159532.315455 
L 219.216949 159532.315455 
L 220.372881 159532.315455 
L 221.528814 159532.315455 
L 222.684746 159532.315455 
L 223.840678 159532.315455 
L 224.99661 159532.315455 
L 226.152542 159532.315455 
L 227.308475 159532.315455 
L 228.464407 159532.315455 
L 229.620339 159532.315455 
L 230.776271 159532.315455 
L 231.932203 159532.315455 
L 233.088136 159532.315455 
L 234.244068 159532.315455 
L 235.4 159532.315455 
L 236.555932 159532.315455 
L 237.711864 159532.315455 
L 238.867797 159532.315455 
L 240.023729 159532.315455 
L 241.179661 159532.315455 
L 242.335593 159532.315455 
L 243.491525 159532.315455 
L 244.647458 159532.315455 
L 245.80339 159532.315455 
L 246.959322 159532.315455 
L 248.115254 159532.315455 
L 249.271186 159532.315455 
L 250.427119 159532.315455 
L 251.583051 159532.315455 
L 252.738983 159532.315455 
L 253.894915 159532.315455 
L 255.050847 159532.315455 
L 256.20678 159532.315455 
L 257.362712 159532.315455 
L 258.518644 159532.315455 
L 259.674576 159532.315455 
L 260.830508 159532.315455 
L 261.986441 159532.315455 
L 263.142373 159532.315455 
L 264.298305 159532.315455 
L 265.454237 159532.315455 
L 266.610169 159532.315455 
L 267.766102 159532.315455 
L 268.922034 159532.315455 
L 270.077966 159532.315455 
L 271.233898 159532.315455 
L 272.389831 159532.315455 
L 273.545763 159532.315455 
L 274.701695 500.017322 
L 275.857627 500.017322 
L 277.013559 500.017322 
L 278.169492 500.017322 
L 279.325424 500.017322 
L 280.481356 500.017322 
L 281.637288 500.017322 
L 282.79322 159532.315455 
L 283.949153 159532.315455 
L 285.105085 159532.315455 
L 286.261017 159532.315455 
L 287.416949 159532.315455 
L 288.572881 159532.315455 
L 289.728814 159532.315455 
L 290.884746 159532.315455 
L 292.040678 159532.315455 
L 293.19661 159532.315455 
L 294.352542 159532.315455 
L 295.508475 159532.315455 
L 296.664407 159532.315455 
L 297.820339 159532.315455 
L 298.976271 159532.315455 
L 300.132203 159532.315455 
L 301.288136 159532.315455 
L 302.444068 159532.315455 
L 303.6 159532.315455 
L 304.755932 159532.315455 
L 305.911864 159532.315455 
L 307.067797 159532.315455 
L 308.223729 159532.315455 
L 309.379661 159532.315455 
L 310.535593 159532.315455 
L 311.691525 159532.315455 
L 312.847458 159532.315455 
L 314.00339 159532.315455 
L 315.159322 159532.315455 
L 316.315254 159532.315455 
L 317.471186 159532.315455 
L 318.627119 159532.315455 
L 319.783051 159532.315455 
L 320.938983 159532.315455 
L 322.094915 159532.315455 
L 323.250847 159532.315455 
L 324.40678 159532.315455 
L 325.562712 159532.315455 
L 326.718644 159532.315455 
L 327.874576 159532.315455 
L 329.030508 159532.315455 
L 330.186441 159532.315455 
L 331.342373 159532.315455 
L 332.498305 159532.315455 
L 333.654237 159532.315455 
L 334.810169 159532.315455 
L 335.966102 159532.315455 
L 337.122034 159532.315455 
L 338.277966 159532.315455 
L 339.433898 159532.315455 
L 340.589831 159532.315455 
L 341.745763 159532.315455 
L 342.901695 159532.315455 
L 344.057627 159532.315455 
L 345.213559 159532.315455 
L 346.369492 159532.315455 
L 347.525424 159532.315455 
L 348.681356 159532.315455 
L 349.837288 159532.315455 
L 350.99322 159532.315455 
L 352.149153 159532.315455 
L 353.305085 159532.315455 
L 354.461017 159532.315455 
L 355.616949 159532.315455 
L 356.772881 159532.315455 
L 357.928814 159532.315455 
L 359.084746 159532.315455 
L 360.240678 159532.315455 
L 361.39661 159532.315455 
L 362.552542 159532.315455 
L 363.708475 159532.315455 
L 364.864407 159532.315455 
L 366.020339 159532.315455 
L 367.176271 159532.315455 
L 368.332203 159532.315455 
L 369.488136 159532.315455 
L 370.644068 159532.315455 
L 371.8 159532.315455 
L 372.955932 159532.315455 
L 374.111864 159532.315455 
L 375.267797 159532.315455 
L 376.423729 159532.315455 
L 377.579661 159532.315455 
L 378.735593 159532.315455 
L 379.891525 159532.315455 
L 381.047458 159532.315455 
L 382.20339 159532.315455 
L 383.359322 159532.315455 
L 384.515254 159532.315455 
L 385.671186 159532.315455 
L 386.827119 159532.315455 
L 387.983051 159532.315455 
L 389.138983 159532.315455 
L 390.294915 159532.315455 
L 391.450847 159532.315455 
L 392.60678 159532.315455 
L 393.762712 159532.315455 
L 394.918644 500.017322 
L 396.074576 475.379091 
L 397.230508 475.379091 
L 398.386441 475.379091 
L 399.542373 475.379091 
L 400.698305 475.379091 
L 401.854237 475.379091 
L 403.010169 475.379091 
L 404.166102 475.379091 
L 405.322034 475.379091 
L 406.477966 475.379091 
L 407.633898 475.379091 
L 408.789831 438.724592 
L 409.945763 406.767692 
L 411.101695 406.767692 
L 412.257627 406.767692 
L 413.413559 406.767692 
L 414.569492 406.767692 
L 415.725424 406.767692 
L 416.881356 406.767692 
L 418.037288 399.489646 
L 419.19322 399.489646 
L 420.349153 399.489646 
L 421.505085 385.002666 
L 422.661017 385.002666 
L 423.816949 385.002666 
L 424.972881 385.002666 
L 426.128814 379.617273 
L 427.284746 379.617273 
L 428.440678 379.617273 
L 429.59661 379.617273 
L 430.752542 379.617273 
L 431.908475 379.617273 
L 433.064407 379.617273 
L 434.220339 379.617273 
L 435.376271 368.477265 
L 436.532203 368.477265 
L 437.688136 368.477265 
L 438.844068 368.477265 
L 440 364.203064 
L 441.155932 364.203064 
L 442.311864 364.203064 
L 443.467797 368.477265 
L 444.623729 368.477265 
L 445.779661 368.477265 
L 446.935593 368.477265 
L 448.091525 368.477265 
L 449.247458 368.477265 
L 450.40339 364.203064 
L 451.559322 368.477265 
L 452.715254 368.477265 
L 453.871186 368.477265 
L 455.027119 368.477265 
L 456.183051 379.617273 
L 457.338983 379.617273 
L 458.494915 379.617273 
L 459.650847 385.002666 
L 460.80678 379.617273 
L 461.962712 379.617273 
L 463.118644 379.617273 
L 464.274576 379.617273 
L 465.430508 385.002666 
L 466.586441 399.489646 
L 467.742373 406.767692 
L 468.898305 406.767692 
L 470.054237 406.767692 
L 471.210169 406.767692 
L 472.366102 406.767692 
L 473.522034 406.767692 
L 474.677966 406.767692 
L 475.833898 406.767692 
L 476.989831 438.724592 
L 478.145763 438.724592 
L 479.301695 438.724592 
L 480.457627 438.724592 
L 481.613559 438.724592 
L 482.769492 438.724592 
L 483.925424 414.903856 
L 485.081356 438.724592 
L 486.237288 438.724592 
L 487.39322 438.724592 
L 488.549153 438.724592 
L 489.705085 438.724592 
L 490.861017 406.767692 
L 492.016949 406.767692 
L 493.172881 406.767692 
L 494.328814 406.767692 
L 495.484746 406.767692 
L 496.640678 406.767692 
L 497.79661 406.767692 
L 498.952542 406.767692 
L 500.108475 438.724592 
L 501.264407 438.724592 
L 502.420339 438.724592 
L 503.576271 406.767692 
L 504.732203 406.767692 
L 505.888136 406.767692 
L 507.044068 438.724592 
L 508.2 427.498182 
L 509.355932 427.498182 
L 510.511864 427.498182 
L 511.667797 427.498182 
L 512.823729 427.498182 
L 513.979661 427.498182 
L 515.135593 427.498182 
L 516.291525 427.498182 
L 517.447458 427.498182 
L 518.60339 427.498182 
L 519.759322 438.724592 
L 520.915254 438.724592 
L 522.071186 438.724592 
L 523.227119 427.498182 
L 524.383051 438.724592 
L 525.538983 475.379091 
L 526.694915 475.379091 
L 527.850847 438.724592 
L 529.00678 438.724592 
L 530.162712 438.724592 
L 531.318644 438.724592 
L 532.474576 427.498182 
L 533.630508 427.498182 
L 534.786441 427.498182 
L 535.942373 427.498182 
L 537.098305 427.498182 
L 538.254237 427.498182 
L 539.410169 427.498182 
L 540.566102 427.498182 
L 541.722034 427.498182 
L 542.877966 427.498182 
L 544.033898 427.498182 
L 545.189831 427.498182 
L 546.345763 427.498182 
L 547.501695 427.498182 
L 548.657627 427.498182 
L 549.813559 427.498182 
L 550.969492 427.498182 
L 552.125424 438.724592 
L 553.281356 438.724592 
L 554.437288 438.724592 
L 555.59322 438.724592 
L 556.749153 475.379091 
L 557.905085 475.379091 
L 559.061017 475.379091 
L 560.216949 475.379091 
L 561.372881 475.379091 
L 562.528814 438.724592 
L 563.684746 438.724592 
L 564.840678 438.724592 
L 565.99661 406.767692 
L 567.152542 406.767692 
L 568.308475 406.767692 
L 569.464407 406.767692 
L 570.620339 406.767692 
L 571.776271 406.767692 
L 572.932203 406.767692 
L 574.088136 406.767692 
L 575.244068 406.767692 
L 576.4 406.767692 
L 577.555932 406.767692 
L 578.711864 406.767692 
L 579.867797 406.767692 
L 581.023729 438.724592 
L 582.179661 475.379091 
L 583.335593 475.379091 
L 584.491525 475.379091 
L 585.647458 475.379091 
L 586.80339 475.379091 
L 587.959322 475.379091 
L 589.115254 475.379091 
L 590.271186 475.379091 
L 591.427119 475.379091 
L 592.583051 475.379091 
L 593.738983 475.379091 
L 594.894915 475.379091 
L 596.050847 475.379091 
L 597.20678 475.379091 
L 598.362712 475.379091 
L 599.518644 475.379091 
L 600.674576 475.379091 
L 601.830508 475.379091 
L 602.986441 475.379091 
L 604.142373 438.724592 
L 605.298305 438.724592 
L 606.454237 438.724592 
L 607.610169 438.724592 
L 608.766102 438.724592 
L 609.922034 438.724592 
L 611.077966 438.724592 
L 612.233898 475.379091 
L 613.389831 500.017322 
L 614.545763 500.017322 
L 615.701695 500.017322 
L 616.857627 500.017322 
L 618.013559 500.017322 
L 619.169492 500.017322 
L 620.325424 159532.315455 
L 621.481356 159532.315455 
L 622.637288 159532.315455 
L 623.79322 159532.315455 
L 624.949153 159532.315455 
L 626.105085 159532.315455 
L 627.261017 159532.315455 
L 628.416949 159532.315455 
L 629.572881 159532.315455 
L 630.728814 159532.315455 
L 631.884746 159532.315455 
L 633.040678 159532.315455 
L 634.19661 159532.315455 
L 635.352542 159532.315455 
L 636.508475 159532.315455 
L 637.664407 159532.315455 
L 638.820339 159532.315455 
L 639.976271 159532.315455 
L 641.132203 159532.315455 
L 642.288136 159532.315455 
L 643.444068 159532.315455 
L 644.6 159532.315455 
L 645.755932 159532.315455 
L 646.911864 159532.315455 
L 648.067797 159532.315455 
L 649.223729 159532.315455 
L 650.379661 159532.315455 
L 651.535593 159532.315455 
L 652.691525 159532.315455 
L 653.847458 159532.315455 
L 655.00339 159532.315455 
L 656.159322 500.017322 
L 657.315254 500.017322 
L 658.471186 500.017322 
L 659.627119 500.017322 
L 660.783051 500.017322 
L 661.938983 500.017322 
L 663.094915 500.017322 
L 664.250847 500.017322 
L 665.40678 500.017322 
L 666.562712 500.017322 
L 667.718644 500.017322 
L 668.874576 500.017322 
L 670.030508 500.017322 
L 671.186441 159532.315455 
L 672.342373 159532.315455 
L 673.498305 159532.315455 
L 674.654237 159532.315455 
L 675.810169 159532.315455 
L 676.966102 159532.315455 
L 678.122034 159532.315455 
L 679.277966 159532.315455 
L 680.433898 159532.315455 
L 681.589831 159532.315455 
L 682.745763 159532.315455 
L 683.901695 159532.315455 
L 685.057627 159532.315455 
L 686.213559 159532.315455 
L 687.369492 159532.315455 
L 688.525424 500.017322 
L 689.681356 500.017322 
L 690.837288 500.017322 
L 691.99322 159532.315455 
L 693.149153 159532.315455 
L 694.305085 159532.315455 
L 695.461017 159532.315455 
L 696.616949 159532.315455 
L 697.772881 159532.315455 
L 698.928814 159532.315455 
L 700.084746 500.017322 
L 701.240678 475.379091 
L 702.39661 475.379091 
L 703.552542 475.379091 
L 704.708475 475.379091 
L 705.864407 475.379091 
L 707.020339 475.379091 
L 708.176271 475.379091 
L 709.332203 475.379091 
L 710.488136 438.724592 
L 711.644068 438.724592 
L 712.8 427.498182 
L 712.8 159532.315455 
L 712.8 159532.315455 
L 711.644068 159532.315455 
L 710.488136 159532.315455 
L 709.332203 159532.315455 
L 708.176271 159532.315455 
L 707.020339 159532.315455 
L 705.864407 159532.315455 
L 704.708475 159532.315455 
L 703.552542 159532.315455 
L 702.39661 159532.315455 
L 701.240678 159532.315455 
L 700.084746 159532.315455 
L 698.928814 159532.315455 
L 697.772881 159532.315455 
L 696.616949 159532.315455 
L 695.461017 159532.315455 
L 694.305085 159532.315455 
L 693.149153 159532.315455 
L 691.99322 159532.315455 
L 690.837288 159532.315455 
L 689.681356 159532.315455 
L 688.525424 159532.315455 
L 687.369492 159532.315455 
L 686.213559 159532.315455 
L 685.057627 159532.315455 
L 683.901695 159532.315455 
L 682.745763 159532.315455 
L 681.589831 159532.315455 
L 680.433898 159532.315455 
L 679.277966 159532.315455 
L 678.122034 159532.315455 
L 676.966102 159532.315455 
L 675.810169 159532.315455 
L 674.654237 159532.315455 
L 673.498305 159532.315455 
L 672.342373 159532.315455 
L 671.186441 159532.315455 
L 670.030508 159532.315455 
L 668.874576 159532.315455 
L 667.718644 159532.315455 
L 666.562712 159532.315455 
L 665.40678 159532.315455 
L 664.250847 159532.315455 
L 663.094915 159532.315455 
L 661.938983 159532.315455 
L 660.783051 159532.315455 
L 659.627119 159532.315455 
L 658.471186 159532.315455 
L 657.315254 159532.315455 
L 656.159322 159532.315455 
L 655.00339 159532.315455 
L 653.847458 159532.315455 
L 652.691525 159532.315455 
L 651.535593 159532.315455 
L 650.379661 159532.315455 
L 649.223729 159532.315455 
L 648.067797 159532.315455 
L 646.911864 159532.315455 
L 645.755932 159532.315455 
L 644.6 159532.315455 
L 643.444068 159532.315455 
L 642.288136 159532.315455 
L 641.132203 159532.315455 
L 639.976271 159532.315455 
L 638.820339 159532.315455 
L 637.664407 159532.315455 
L 636.508475 159532.315455 
L 635.352542 159532.315455 
L 634.19661 159532.315455 
L 633.040678 159532.315455 
L 631.884746 159532.315455 
L 630.728814 159532.315455 
L 629.572881 159532.315455 
L 628.416949 159532.315455 
L 627.261017 159532.315455 
L 626.105085 159532.315455 
L 624.949153 159532.315455 
L 623.79322 159532.315455 
L 622.637288 159532.315455 
L 621.481356 159532.315455 
L 620.325424 159532.315455 
L 619.169492 159532.315455 
L 618.013559 159532.315455 
L 616.857627 159532.315455 
L 615.701695 159532.315455 
L 614.545763 159532.315455 
L 613.389831 159532.315455 
L 612.233898 159532.315455 
L 611.077966 159532.315455 
L 609.922034 159532.315455 
L 608.766102 159532.315455 
L 607.610169 159532.315455 
L 606.454237 159532.315455 
L 605.298305 159532.315455 
L 604.142373 159532.315455 
L 602.986441 159532.315455 
L 601.830508 159532.315455 
L 600.674576 159532.315455 
L 599.518644 159532.315455 
L 598.362712 159532.315455 
L 597.20678 159532.315455 
L 596.050847 159532.315455 
L 594.894915 159532.315455 
L 593.738983 159532.315455 
L 592.583051 159532.315455 
L 591.427119 159532.315455 
L 590.271186 159532.315455 
L 589.115254 159532.315455 
L 587.959322 159532.315455 
L 586.80339 159532.315455 
L 585.647458 159532.315455 
L 584.491525 159532.315455 
L 583.335593 159532.315455 
L 582.179661 159532.315455 
L 581.023729 159532.315455 
L 579.867797 159532.315455 
L 578.711864 159532.315455 
L 577.555932 159532.315455 
L 576.4 159532.315455 
L 575.244068 159532.315455 
L 574.088136 159532.315455 
L 572.932203 159532.315455 
L 571.776271 159532.315455 
L 570.620339 159532.315455 
L 569.464407 159532.315455 
L 568.308475 159532.315455 
L 567.152542 159532.315455 
L 565.99661 159532.315455 
L 564.840678 159532.315455 
L 563.684746 159532.315455 
L 562.528814 159532.315455 
L 561.372881 159532.315455 
L 560.216949 159532.315455 
L 559.061017 159532.315455 
L 557.905085 159532.315455 
L 556.749153 159532.315455 
L 555.59322 159532.315455 
L 554.437288 159532.315455 
L 553.281356 159532.315455 
L 552.125424 159532.315455 
L 550.969492 159532.315455 
L 549.813559 159532.315455 
L 548.657627 159532.315455 
L 547.501695 159532.315455 
L 546.345763 159532.315455 
L 545.189831 159532.315455 
L 544.033898 159532.315455 
L 542.877966 159532.315455 
L 541.722034 159532.315455 
L 540.566102 159532.315455 
L 539.410169 159532.315455 
L 538.254237 159532.315455 
L 537.098305 159532.315455 
L 535.942373 159532.315455 
L 534.786441 159532.315455 
L 533.630508 159532.315455 
L 532.474576 159532.315455 
L 531.318644 159532.315455 
L 530.162712 159532.315455 
L 529.00678 159532.315455 
L 527.850847 159532.315455 
L 526.694915 159532.315455 
L 525.538983 159532.315455 
L 524.383051 159532.315455 
L 523.227119 159532.315455 
L 522.071186 159532.315455 
L 520.915254 159532.315455 
L 519.759322 482.657137 
L 518.60339 482.657137 
L 517.447458 482.657137 
L 516.291525 475.379091 
L 515.135593 482.657137 
L 513.979661 482.657137 
L 512.823729 482.657137 
L 511.667797 482.657137 
L 510.511864 482.657137 
L 509.355932 482.657137 
L 508.2 482.657137 
L 507.044068 482.657137 
L 505.888136 482.657137 
L 504.732203 159532.315455 
L 503.576271 159532.315455 
L 502.420339 159532.315455 
L 501.264407 159532.315455 
L 500.108475 159532.315455 
L 498.952542 482.657137 
L 497.79661 482.657137 
L 496.640678 482.657137 
L 495.484746 475.379091 
L 494.328814 475.379091 
L 493.172881 475.379091 
L 492.016949 482.657137 
L 490.861017 482.657137 
L 489.705085 159532.315455 
L 488.549153 482.657137 
L 487.39322 159532.315455 
L 486.237288 159532.315455 
L 485.081356 482.657137 
L 483.925424 482.657137 
L 482.769492 482.657137 
L 481.613559 159532.315455 
L 480.457627 159532.315455 
L 479.301695 159532.315455 
L 478.145763 159532.315455 
L 476.989831 159532.315455 
L 475.833898 159532.315455 
L 474.677966 159532.315455 
L 473.522034 159532.315455 
L 472.366102 159532.315455 
L 471.210169 159532.315455 
L 470.054237 159532.315455 
L 468.898305 159532.315455 
L 467.742373 159532.315455 
L 466.586441 159532.315455 
L 465.430508 159532.315455 
L 464.274576 159532.315455 
L 463.118644 159532.315455 
L 461.962712 482.657137 
L 460.80678 159532.315455 
L 459.650847 159532.315455 
L 458.494915 482.657137 
L 457.338983 482.657137 
L 456.183051 475.379091 
L 455.027119 475.379091 
L 453.871186 475.379091 
L 452.715254 475.379091 
L 451.559322 475.379091 
L 450.40339 475.379091 
L 449.247458 475.379091 
L 448.091525 475.379091 
L 446.935593 475.379091 
L 445.779661 475.379091 
L 444.623729 475.379091 
L 443.467797 475.379091 
L 442.311864 475.379091 
L 441.155932 475.379091 
L 440 475.379091 
L 438.844068 482.657137 
L 437.688136 482.657137 
L 436.532203 475.379091 
L 435.376271 475.379091 
L 434.220339 475.379091 
L 433.064407 475.379091 
L 431.908475 475.379091 
L 430.752542 475.379091 
L 429.59661 475.379091 
L 428.440678 475.379091 
L 427.284746 475.379091 
L 426.128814 475.379091 
L 424.972881 475.379091 
L 423.816949 431.041397 
L 422.661017 431.041397 
L 421.505085 475.379091 
L 420.349153 475.379091 
L 419.19322 482.657137 
L 418.037288 159532.315455 
L 416.881356 159532.315455 
L 415.725424 159532.315455 
L 414.569492 159532.315455 
L 413.413559 159532.315455 
L 412.257627 159532.315455 
L 411.101695 159532.315455 
L 409.945763 159532.315455 
L 408.789831 159532.315455 
L 407.633898 159532.315455 
L 406.477966 159532.315455 
L 405.322034 159532.315455 
L 404.166102 159532.315455 
L 403.010169 159532.315455 
L 401.854237 159532.315455 
L 400.698305 159532.315455 
L 399.542373 159532.315455 
L 398.386441 159532.315455 
L 397.230508 159532.315455 
L 396.074576 159532.315455 
L 394.918644 159532.315455 
L 393.762712 159532.315455 
L 392.60678 159532.315455 
L 391.450847 159532.315455 
L 390.294915 159532.315455 
L 389.138983 159532.315455 
L 387.983051 159532.315455 
L 386.827119 159532.315455 
L 385.671186 159532.315455 
L 384.515254 159532.315455 
L 383.359322 159532.315455 
L 382.20339 159532.315455 
L 381.047458 159532.315455 
L 379.891525 159532.315455 
L 378.735593 159532.315455 
L 377.579661 159532.315455 
L 376.423729 159532.315455 
L 375.267797 159532.315455 
L 374.111864 159532.315455 
L 372.955932 159532.315455 
L 371.8 159532.315455 
L 370.644068 159532.315455 
L 369.488136 159532.315455 
L 368.332203 159532.315455 
L 367.176271 159532.315455 
L 366.020339 159532.315455 
L 364.864407 159532.315455 
L 363.708475 159532.315455 
L 362.552542 159532.315455 
L 361.39661 159532.315455 
L 360.240678 159532.315455 
L 359.084746 159532.315455 
L 357.928814 159532.315455 
L 356.772881 159532.315455 
L 355.616949 159532.315455 
L 354.461017 159532.315455 
L 353.305085 159532.315455 
L 352.149153 159532.315455 
L 350.99322 159532.315455 
L 349.837288 159532.315455 
L 348.681356 159532.315455 
L 347.525424 159532.315455 
L 346.369492 159532.315455 
L 345.213559 159532.315455 
L 344.057627 159532.315455 
L 342.901695 159532.315455 
L 341.745763 159532.315455 
L 340.589831 159532.315455 
L 339.433898 159532.315455 
L 338.277966 159532.315455 
L 337.122034 159532.315455 
L 335.966102 159532.315455 
L 334.810169 159532.315455 
L 333.654237 159532.315455 
L 332.498305 159532.315455 
L 331.342373 159532.315455 
L 330.186441 159532.315455 
L 329.030508 159532.315455 
L 327.874576 159532.315455 
L 326.718644 159532.315455 
L 325.562712 159532.315455 
L 324.40678 159532.315455 
L 323.250847 159532.315455 
L 322.094915 159532.315455 
L 320.938983 159532.315455 
L 319.783051 159532.315455 
L 318.627119 159532.315455 
L 317.471186 159532.315455 
L 316.315254 159532.315455 
L 315.159322 159532.315455 
L 314.00339 159532.315455 
L 312.847458 159532.315455 
L 311.691525 159532.315455 
L 310.535593 159532.315455 
L 309.379661 159532.315455 
L 308.223729 159532.315455 
L 307.067797 159532.315455 
L 305.911864 159532.315455 
L 304.755932 159532.315455 
L 303.6 159532.315455 
L 302.444068 159532.315455 
L 301.288136 159532.315455 
L 300.132203 159532.315455 
L 298.976271 159532.315455 
L 297.820339 159532.315455 
L 296.664407 159532.315455 
L 295.508475 159532.315455 
L 294.352542 159532.315455 
L 293.19661 159532.315455 
L 292.040678 159532.315455 
L 290.884746 159532.315455 
L 289.728814 159532.315455 
L 288.572881 159532.315455 
L 287.416949 159532.315455 
L 286.261017 159532.315455 
L 285.105085 159532.315455 
L 283.949153 159532.315455 
L 282.79322 159532.315455 
L 281.637288 159532.315455 
L 280.481356 159532.315455 
L 279.325424 159532.315455 
L 278.169492 159532.315455 
L 277.013559 159532.315455 
L 275.857627 159532.315455 
L 274.701695 159532.315455 
L 273.545763 159532.315455 
L 272.389831 159532.315455 
L 271.233898 159532.315455 
L 270.077966 159532.315455 
L 268.922034 159532.315455 
L 267.766102 159532.315455 
L 266.610169 159532.315455 
L 265.454237 159532.315455 
L 264.298305 159532.315455 
L 263.142373 159532.315455 
L 261.986441 159532.315455 
L 260.830508 159532.315455 
L 259.674576 159532.315455 
L 258.518644 159532.315455 
L 257.362712 159532.315455 
L 256.20678 159532.315455 
L 255.050847 159532.315455 
L 253.894915 159532.315455 
L 252.738983 159532.315455 
L 251.583051 159532.315455 
L 250.427119 159532.315455 
L 249.271186 159532.315455 
L 248.115254 159532.315455 
L 246.959322 159532.315455 
L 245.80339 159532.315455 
L 244.647458 159532.315455 
L 243.491525 159532.315455 
L 242.335593 159532.315455 
L 241.179661 159532.315455 
L 240.023729 159532.315455 
L 238.867797 159532.315455 
L 237.711864 159532.315455 
L 236.555932 159532.315455 
L 235.4 159532.315455 
L 234.244068 159532.315455 
L 233.088136 159532.315455 
L 231.932203 159532.315455 
L 230.776271 159532.315455 
L 229.620339 159532.315455 
L 228.464407 159532.315455 
L 227.308475 159532.315455 
L 226.152542 159532.315455 
L 224.99661 159532.315455 
L 223.840678 159532.315455 
L 222.684746 159532.315455 
L 221.528814 159532.315455 
L 220.372881 159532.315455 
L 219.216949 159532.315455 
L 218.061017 159532.315455 
L 216.905085 159532.315455 
L 215.749153 159532.315455 
L 214.59322 159532.315455 
L 213.437288 159532.315455 
L 212.281356 159532.315455 
L 211.125424 159532.315455 
L 209.969492 159532.315455 
L 208.813559 159532.315455 
L 207.657627 159532.315455 
L 206.501695 159532.315455 
L 205.345763 159532.315455 
L 204.189831 159532.315455 
L 203.033898 159532.315455 
L 201.877966 159532.315455 
L 200.722034 159532.315455 
L 199.566102 159532.315455 
L 198.410169 159532.315455 
L 197.254237 159532.315455 
L 196.098305 159532.315455 
L 194.942373 159532.315455 
L 193.786441 159532.315455 
L 192.630508 159532.315455 
L 191.474576 159532.315455 
L 190.318644 159532.315455 
L 189.162712 159532.315455 
L 188.00678 159532.315455 
L 186.850847 159532.315455 
L 185.694915 159532.315455 
L 184.538983 159532.315455 
L 183.383051 159532.315455 
L 182.227119 159532.315455 
L 181.071186 159532.315455 
L 179.915254 159532.315455 
L 178.759322 159532.315455 
L 177.60339 159532.315455 
L 176.447458 159532.315455 
L 175.291525 159532.315455 
L 174.135593 159532.315455 
L 172.979661 159532.315455 
L 171.823729 159532.315455 
L 170.667797 159532.315455 
L 169.511864 159532.315455 
L 168.355932 159532.315455 
L 167.2 159532.315455 
L 166.044068 159532.315455 
L 164.888136 482.657137 
L 163.732203 159532.315455 
L 162.576271 159532.315455 
L 161.420339 159532.315455 
L 160.264407 159532.315455 
L 159.108475 159532.315455 
L 157.952542 482.657137 
L 156.79661 482.657137 
L 155.640678 475.379091 
L 154.484746 482.657137 
L 153.328814 482.657137 
L 152.172881 159532.315455 
L 151.016949 159532.315455 
L 149.861017 159532.315455 
L 148.705085 159532.315455 
L 147.549153 159532.315455 
L 146.39322 159532.315455 
L 145.237288 159532.315455 
L 144.081356 159532.315455 
L 142.925424 159532.315455 
L 141.769492 159532.315455 
L 140.613559 159532.315455 
L 139.457627 159532.315455 
L 138.301695 159532.315455 
L 137.145763 159532.315455 
L 135.989831 159532.315455 
L 134.833898 482.657137 
L 133.677966 475.379091 
L 132.522034 482.657137 
L 131.366102 159532.315455 
L 130.210169 159532.315455 
L 129.054237 159532.315455 
L 127.898305 159532.315455 
L 126.742373 159532.315455 
L 125.586441 159532.315455 
L 124.430508 159532.315455 
L 123.274576 159532.315455 
L 122.118644 159532.315455 
L 120.962712 159532.315455 
L 119.80678 159532.315455 
L 118.650847 159532.315455 
L 117.494915 159532.315455 
L 116.338983 159532.315455 
L 115.183051 159532.315455 
L 114.027119 159532.315455 
L 112.871186 159532.315455 
L 111.715254 159532.315455 
L 110.559322 159532.315455 
L 109.40339 159532.315455 
L 108.247458 159532.315455 
L 107.091525 159532.315455 
L 105.935593 159532.315455 
L 104.779661 159532.315455 
L 103.623729 159532.315455 
L 102.467797 159532.315455 
L 101.311864 159532.315455 
L 100.155932 159532.315455 
L 99 159532.315455 
z
" style="fill:#ff8080;fill-opacity:0.5;stroke:#ff8080;stroke-opacity:0.5;"/>
   </g>
   <g id="matplotlib.axis_1">
    <g id="xtick_1">
     <g id="line2d_1">
      <path clip-path="url(#p68e2955192)" d="M 99 544.68 
L 99 73.44 
" style="fill:none;stroke:#b0b0b0;stroke-linecap:square;stroke-width:0.8;"/>
     </g>
     <g id="line2d_2">
      <defs>
       <path d="M 0 0 
L 0 3.5 
" id="m4abed1d830" style="stroke:#000000;stroke-width:0.8;"/>
      </defs>
      <g>
       <use style="stroke:#000000;stroke-width:0.8;" x="99" xlink:href="#m4abed1d830" y="544.68"/>
      </g>
     </g>
    </g>
    <g id="xtick_2">
     <g id="line2d_3">
      <path clip-path="url(#p68e2955192)" d="M 127.898305 544.68 
L 127.898305 73.44 
" style="fill:none;stroke:#b0b0b0;stroke-linecap:square;stroke-width:0.8;"/>
     </g>
     <g id="line2d_4">
      <g>
       <use style="stroke:#000000;stroke-width:0.8;" x="127.898305" xlink:href="#m4abed1d830" y="544.68"/>
      </g>
     </g>
     <g id="text_1">
      <!-- Apr -->
      <g transform="translate(119.248305 559.278437)scale(0.1 -0.1)">
       <defs>
        <path d="M 2188 4044 
L 1331 1722 
L 3047 1722 
L 2188 4044 
z
M 1831 4666 
L 2547 4666 
L 4325 0 
L 3669 0 
L 3244 1197 
L 1141 1197 
L 716 0 
L 50 0 
L 1831 4666 
z
" id="DejaVuSans-41" transform="scale(0.015625)"/>
        <path d="M 1159 525 
L 1159 -1331 
L 581 -1331 
L 581 3500 
L 1159 3500 
L 1159 2969 
Q 1341 3281 1617 3432 
Q 1894 3584 2278 3584 
Q 2916 3584 3314 3078 
Q 3713 2572 3713 1747 
Q 3713 922 3314 415 
Q 2916 -91 2278 -91 
Q 1894 -91 1617 61 
Q 1341 213 1159 525 
z
M 3116 1747 
Q 3116 2381 2855 2742 
Q 2594 3103 2138 3103 
Q 1681 3103 1420 2742 
Q 1159 2381 1159 1747 
Q 1159 1113 1420 752 
Q 1681 391 2138 391 
Q 2594 391 2855 752 
Q 3116 1113 3116 1747 
z
" id="DejaVuSans-70" transform="scale(0.015625)"/>
        <path d="M 2631 2963 
Q 2534 3019 2420 3045 
Q 2306 3072 2169 3072 
Q 1681 3072 1420 2755 
Q 1159 2438 1159 1844 
L 1159 0 
L 581 0 
L 581 3500 
L 1159 3500 
L 1159 2956 
Q 1341 3275 1631 3429 
Q 1922 3584 2338 3584 
Q 2397 3584 2469 3576 
Q 2541 3569 2628 3553 
L 2631 2963 
z
" id="DejaVuSans-72" transform="scale(0.015625)"/>
       </defs>
       <use xlink:href="#DejaVuSans-41"/>
       <use x="68.408203" xlink:href="#DejaVuSans-70"/>
       <use x="131.884766" xlink:href="#DejaVuSans-72"/>
      </g>
     </g>
    </g>
    <g id="xtick_3">
     <g id="line2d_5">
      <path clip-path="url(#p68e2955192)" d="M 233.088136 544.68 
L 233.088136 73.44 
" style="fill:none;stroke:#b0b0b0;stroke-linecap:square;stroke-width:0.8;"/>
     </g>
     <g id="line2d_6">
      <g>
       <use style="stroke:#000000;stroke-width:0.8;" x="233.088136" xlink:href="#m4abed1d830" y="544.68"/>
      </g>
     </g>
     <g id="text_2">
      <!-- Jul -->
      <g transform="translate(227.055323 559.278437)scale(0.1 -0.1)">
       <defs>
        <path d="M 628 4666 
L 1259 4666 
L 1259 325 
Q 1259 -519 939 -900 
Q 619 -1281 -91 -1281 
L -331 -1281 
L -331 -750 
L -134 -750 
Q 284 -750 456 -515 
Q 628 -281 628 325 
L 628 4666 
z
" id="DejaVuSans-4a" transform="scale(0.015625)"/>
        <path d="M 544 1381 
L 544 3500 
L 1119 3500 
L 1119 1403 
Q 1119 906 1312 657 
Q 1506 409 1894 409 
Q 2359 409 2629 706 
Q 2900 1003 2900 1516 
L 2900 3500 
L 3475 3500 
L 3475 0 
L 2900 0 
L 2900 538 
Q 2691 219 2414 64 
Q 2138 -91 1772 -91 
Q 1169 -91 856 284 
Q 544 659 544 1381 
z
M 1991 3584 
L 1991 3584 
z
" id="DejaVuSans-75" transform="scale(0.015625)"/>
        <path d="M 603 4863 
L 1178 4863 
L 1178 0 
L 603 0 
L 603 4863 
z
" id="DejaVuSans-6c" transform="scale(0.015625)"/>
       </defs>
       <use xlink:href="#DejaVuSans-4a"/>
       <use x="29.492188" xlink:href="#DejaVuSans-75"/>
       <use x="92.871094" xlink:href="#DejaVuSans-6c"/>
      </g>
     </g>
    </g>
    <g id="xtick_4">
     <g id="line2d_7">
      <path clip-path="url(#p68e2955192)" d="M 339.433898 544.68 
L 339.433898 73.44 
" style="fill:none;stroke:#b0b0b0;stroke-linecap:square;stroke-width:0.8;"/>
     </g>
     <g id="line2d_8">
      <g>
       <use style="stroke:#000000;stroke-width:0.8;" x="339.433898" xlink:href="#m4abed1d830" y="544.68"/>
      </g>
     </g>
     <g id="text_3">
      <!-- Oct -->
      <g transform="translate(330.788586 559.278437)scale(0.1 -0.1)">
       <defs>
        <path d="M 2522 4238 
Q 1834 4238 1429 3725 
Q 1025 3213 1025 2328 
Q 1025 1447 1429 934 
Q 1834 422 2522 422 
Q 3209 422 3611 934 
Q 4013 1447 4013 2328 
Q 4013 3213 3611 3725 
Q 3209 4238 2522 4238 
z
M 2522 4750 
Q 3503 4750 4090 4092 
Q 4678 3434 4678 2328 
Q 4678 1225 4090 567 
Q 3503 -91 2522 -91 
Q 1538 -91 948 565 
Q 359 1222 359 2328 
Q 359 3434 948 4092 
Q 1538 4750 2522 4750 
z
" id="DejaVuSans-4f" transform="scale(0.015625)"/>
        <path d="M 3122 3366 
L 3122 2828 
Q 2878 2963 2633 3030 
Q 2388 3097 2138 3097 
Q 1578 3097 1268 2742 
Q 959 2388 959 1747 
Q 959 1106 1268 751 
Q 1578 397 2138 397 
Q 2388 397 2633 464 
Q 2878 531 3122 666 
L 3122 134 
Q 2881 22 2623 -34 
Q 2366 -91 2075 -91 
Q 1284 -91 818 406 
Q 353 903 353 1747 
Q 353 2603 823 3093 
Q 1294 3584 2113 3584 
Q 2378 3584 2631 3529 
Q 2884 3475 3122 3366 
z
" id="DejaVuSans-63" transform="scale(0.015625)"/>
        <path d="M 1172 4494 
L 1172 3500 
L 2356 3500 
L 2356 3053 
L 1172 3053 
L 1172 1153 
Q 1172 725 1289 603 
Q 1406 481 1766 481 
L 2356 481 
L 2356 0 
L 1766 0 
Q 1100 0 847 248 
Q 594 497 594 1153 
L 594 3053 
L 172 3053 
L 172 3500 
L 594 3500 
L 594 4494 
L 1172 4494 
z
" id="DejaVuSans-74" transform="scale(0.015625)"/>
       </defs>
       <use xlink:href="#DejaVuSans-4f"/>
       <use x="78.710938" xlink:href="#DejaVuSans-63"/>
       <use x="133.691406" xlink:href="#DejaVuSans-74"/>
      </g>
     </g>
    </g>
    <g id="xtick_5">
     <g id="line2d_9">
      <path clip-path="url(#p68e2955192)" d="M 445.779661 544.68 
L 445.779661 73.44 
" style="fill:none;stroke:#b0b0b0;stroke-linecap:square;stroke-width:0.8;"/>
     </g>
     <g id="line2d_10">
      <g>
       <use style="stroke:#000000;stroke-width:0.8;" x="445.779661" xlink:href="#m4abed1d830" y="544.68"/>
      </g>
     </g>
     <g id="text_4">
      <!-- Jan -->
      <g transform="translate(438.071849 559.278437)scale(0.1 -0.1)">
       <defs>
        <path d="M 2194 1759 
Q 1497 1759 1228 1600 
Q 959 1441 959 1056 
Q 959 750 1161 570 
Q 1363 391 1709 391 
Q 2188 391 2477 730 
Q 2766 1069 2766 1631 
L 2766 1759 
L 2194 1759 
z
M 3341 1997 
L 3341 0 
L 2766 0 
L 2766 531 
Q 2569 213 2275 61 
Q 1981 -91 1556 -91 
Q 1019 -91 701 211 
Q 384 513 384 1019 
Q 384 1609 779 1909 
Q 1175 2209 1959 2209 
L 2766 2209 
L 2766 2266 
Q 2766 2663 2505 2880 
Q 2244 3097 1772 3097 
Q 1472 3097 1187 3025 
Q 903 2953 641 2809 
L 641 3341 
Q 956 3463 1253 3523 
Q 1550 3584 1831 3584 
Q 2591 3584 2966 3190 
Q 3341 2797 3341 1997 
z
" id="DejaVuSans-61" transform="scale(0.015625)"/>
        <path d="M 3513 2113 
L 3513 0 
L 2938 0 
L 2938 2094 
Q 2938 2591 2744 2837 
Q 2550 3084 2163 3084 
Q 1697 3084 1428 2787 
Q 1159 2491 1159 1978 
L 1159 0 
L 581 0 
L 581 3500 
L 1159 3500 
L 1159 2956 
Q 1366 3272 1645 3428 
Q 1925 3584 2291 3584 
Q 2894 3584 3203 3211 
Q 3513 2838 3513 2113 
z
" id="DejaVuSans-6e" transform="scale(0.015625)"/>
       </defs>
       <use xlink:href="#DejaVuSans-4a"/>
       <use x="29.492188" xlink:href="#DejaVuSans-61"/>
       <use x="90.771484" xlink:href="#DejaVuSans-6e"/>
      </g>
      <!-- 2021 -->
      <g transform="translate(433.054661 570.47625)scale(0.1 -0.1)">
       <defs>
        <path d="M 1228 531 
L 3431 531 
L 3431 0 
L 469 0 
L 469 531 
Q 828 903 1448 1529 
Q 2069 2156 2228 2338 
Q 2531 2678 2651 2914 
Q 2772 3150 2772 3378 
Q 2772 3750 2511 3984 
Q 2250 4219 1831 4219 
Q 1534 4219 1204 4116 
Q 875 4013 500 3803 
L 500 4441 
Q 881 4594 1212 4672 
Q 1544 4750 1819 4750 
Q 2544 4750 2975 4387 
Q 3406 4025 3406 3419 
Q 3406 3131 3298 2873 
Q 3191 2616 2906 2266 
Q 2828 2175 2409 1742 
Q 1991 1309 1228 531 
z
" id="DejaVuSans-32" transform="scale(0.015625)"/>
        <path d="M 2034 4250 
Q 1547 4250 1301 3770 
Q 1056 3291 1056 2328 
Q 1056 1369 1301 889 
Q 1547 409 2034 409 
Q 2525 409 2770 889 
Q 3016 1369 3016 2328 
Q 3016 3291 2770 3770 
Q 2525 4250 2034 4250 
z
M 2034 4750 
Q 2819 4750 3233 4129 
Q 3647 3509 3647 2328 
Q 3647 1150 3233 529 
Q 2819 -91 2034 -91 
Q 1250 -91 836 529 
Q 422 1150 422 2328 
Q 422 3509 836 4129 
Q 1250 4750 2034 4750 
z
" id="DejaVuSans-30" transform="scale(0.015625)"/>
        <path d="M 794 531 
L 1825 531 
L 1825 4091 
L 703 3866 
L 703 4441 
L 1819 4666 
L 2450 4666 
L 2450 531 
L 3481 531 
L 3481 0 
L 794 0 
L 794 531 
z
" id="DejaVuSans-31" transform="scale(0.015625)"/>
       </defs>
       <use xlink:href="#DejaVuSans-32"/>
       <use x="63.623047" xlink:href="#DejaVuSans-30"/>
       <use x="127.246094" xlink:href="#DejaVuSans-32"/>
       <use x="190.869141" xlink:href="#DejaVuSans-31"/>
      </g>
     </g>
    </g>
    <g id="xtick_6">
     <g id="line2d_11">
      <path clip-path="url(#p68e2955192)" d="M 549.813559 544.68 
L 549.813559 73.44 
" style="fill:none;stroke:#b0b0b0;stroke-linecap:square;stroke-width:0.8;"/>
     </g>
     <g id="line2d_12">
      <g>
       <use style="stroke:#000000;stroke-width:0.8;" x="549.813559" xlink:href="#m4abed1d830" y="544.68"/>
      </g>
     </g>
     <g id="text_5">
      <!-- Apr -->
      <g transform="translate(541.163559 559.278437)scale(0.1 -0.1)">
       <use xlink:href="#DejaVuSans-41"/>
       <use x="68.408203" xlink:href="#DejaVuSans-70"/>
       <use x="131.884766" xlink:href="#DejaVuSans-72"/>
      </g>
     </g>
    </g>
    <g id="xtick_7">
     <g id="line2d_13">
      <path clip-path="url(#p68e2955192)" d="M 655.00339 544.68 
L 655.00339 73.44 
" style="fill:none;stroke:#b0b0b0;stroke-linecap:square;stroke-width:0.8;"/>
     </g>
     <g id="line2d_14">
      <g>
       <use style="stroke:#000000;stroke-width:0.8;" x="655.00339" xlink:href="#m4abed1d830" y="544.68"/>
      </g>
     </g>
     <g id="text_6">
      <!-- Jul -->
      <g transform="translate(648.970577 559.278437)scale(0.1 -0.1)">
       <use xlink:href="#DejaVuSans-4a"/>
       <use x="29.492188" xlink:href="#DejaVuSans-75"/>
       <use x="92.871094" xlink:href="#DejaVuSans-6c"/>
      </g>
     </g>
    </g>
    <g id="xtick_8">
     <g id="line2d_15">
      <path clip-path="url(#p68e2955192)" d="M 712.8 544.68 
L 712.8 73.44 
" style="fill:none;stroke:#b0b0b0;stroke-linecap:square;stroke-width:0.8;"/>
     </g>
     <g id="line2d_16">
      <g>
       <use style="stroke:#000000;stroke-width:0.8;" x="712.8" xlink:href="#m4abed1d830" y="544.68"/>
      </g>
     </g>
    </g>
    <g id="xtick_9">
     <g id="line2d_17">
      <defs>
       <path d="M 0 0 
L 0 2 
" id="mbe9820739d" style="stroke:#000000;stroke-width:0.6;"/>
      </defs>
      <g>
       <use style="stroke:#000000;stroke-width:0.6;" x="162.576271" xlink:href="#mbe9820739d" y="544.68"/>
      </g>
     </g>
    </g>
    <g id="xtick_10">
     <g id="line2d_18">
      <g>
       <use style="stroke:#000000;stroke-width:0.6;" x="198.410169" xlink:href="#mbe9820739d" y="544.68"/>
      </g>
     </g>
    </g>
    <g id="xtick_11">
     <g id="line2d_19">
      <g>
       <use style="stroke:#000000;stroke-width:0.6;" x="268.922034" xlink:href="#mbe9820739d" y="544.68"/>
      </g>
     </g>
    </g>
    <g id="xtick_12">
     <g id="line2d_20">
      <g>
       <use style="stroke:#000000;stroke-width:0.6;" x="304.755932" xlink:href="#mbe9820739d" y="544.68"/>
      </g>
     </g>
    </g>
    <g id="xtick_13">
     <g id="line2d_21">
      <g>
       <use style="stroke:#000000;stroke-width:0.6;" x="375.267797" xlink:href="#mbe9820739d" y="544.68"/>
      </g>
     </g>
    </g>
    <g id="xtick_14">
     <g id="line2d_22">
      <g>
       <use style="stroke:#000000;stroke-width:0.6;" x="409.945763" xlink:href="#mbe9820739d" y="544.68"/>
      </g>
     </g>
    </g>
    <g id="xtick_15">
     <g id="line2d_23">
      <g>
       <use style="stroke:#000000;stroke-width:0.6;" x="481.613559" xlink:href="#mbe9820739d" y="544.68"/>
      </g>
     </g>
    </g>
    <g id="xtick_16">
     <g id="line2d_24">
      <g>
       <use style="stroke:#000000;stroke-width:0.6;" x="513.979661" xlink:href="#mbe9820739d" y="544.68"/>
      </g>
     </g>
    </g>
    <g id="xtick_17">
     <g id="line2d_25">
      <g>
       <use style="stroke:#000000;stroke-width:0.6;" x="584.491525" xlink:href="#mbe9820739d" y="544.68"/>
      </g>
     </g>
    </g>
    <g id="xtick_18">
     <g id="line2d_26">
      <g>
       <use style="stroke:#000000;stroke-width:0.6;" x="620.325424" xlink:href="#mbe9820739d" y="544.68"/>
      </g>
     </g>
    </g>
    <g id="xtick_19">
     <g id="line2d_27">
      <g>
       <use style="stroke:#000000;stroke-width:0.6;" x="690.837288" xlink:href="#mbe9820739d" y="544.68"/>
      </g>
     </g>
    </g>
    <g id="text_7">
     <!-- Date -->
     <g transform="translate(393.949219 584.154375)scale(0.1 -0.1)">
      <defs>
       <path d="M 1259 4147 
L 1259 519 
L 2022 519 
Q 2988 519 3436 956 
Q 3884 1394 3884 2338 
Q 3884 3275 3436 3711 
Q 2988 4147 2022 4147 
L 1259 4147 
z
M 628 4666 
L 1925 4666 
Q 3281 4666 3915 4102 
Q 4550 3538 4550 2338 
Q 4550 1131 3912 565 
Q 3275 0 1925 0 
L 628 0 
L 628 4666 
z
" id="DejaVuSans-44" transform="scale(0.015625)"/>
       <path d="M 3597 1894 
L 3597 1613 
L 953 1613 
Q 991 1019 1311 708 
Q 1631 397 2203 397 
Q 2534 397 2845 478 
Q 3156 559 3463 722 
L 3463 178 
Q 3153 47 2828 -22 
Q 2503 -91 2169 -91 
Q 1331 -91 842 396 
Q 353 884 353 1716 
Q 353 2575 817 3079 
Q 1281 3584 2069 3584 
Q 2775 3584 3186 3129 
Q 3597 2675 3597 1894 
z
M 3022 2063 
Q 3016 2534 2758 2815 
Q 2500 3097 2075 3097 
Q 1594 3097 1305 2825 
Q 1016 2553 972 2059 
L 3022 2063 
z
" id="DejaVuSans-65" transform="scale(0.015625)"/>
      </defs>
      <use xlink:href="#DejaVuSans-44"/>
      <use x="77.001953" xlink:href="#DejaVuSans-61"/>
      <use x="138.28125" xlink:href="#DejaVuSans-74"/>
      <use x="177.490234" xlink:href="#DejaVuSans-65"/>
     </g>
    </g>
   </g>
   <g id="matplotlib.axis_2">
    <g id="ytick_1">
     <g id="line2d_28">
      <path clip-path="url(#p68e2955192)" d="M 99 475.379091 
L 712.8 475.379091 
" style="fill:none;stroke:#b0b0b0;stroke-linecap:square;stroke-width:0.8;"/>
     </g>
     <g id="line2d_29">
      <defs>
       <path d="M 0 0 
L -3.5 0 
" id="me91a084207" style="stroke:#000000;stroke-width:0.8;"/>
      </defs>
      <g>
       <use style="stroke:#000000;stroke-width:0.8;" x="99" xlink:href="#me91a084207" y="475.379091"/>
      </g>
     </g>
     <g id="text_8">
      <!-- $\mathdefault{10^{0}}$ -->
      <g transform="translate(74.4 479.17831)scale(0.1 -0.1)">
       <use transform="translate(0 0.765625)" xlink:href="#DejaVuSans-31"/>
       <use transform="translate(63.623047 0.765625)" xlink:href="#DejaVuSans-30"/>
       <use transform="translate(128.203125 39.046875)scale(0.7)" xlink:href="#DejaVuSans-30"/>
      </g>
     </g>
    </g>
    <g id="ytick_2">
     <g id="line2d_30">
      <path clip-path="url(#p68e2955192)" d="M 99 316.322155 
L 712.8 316.322155 
" style="fill:none;stroke:#b0b0b0;stroke-linecap:square;stroke-width:0.8;"/>
     </g>
     <g id="line2d_31">
      <g>
       <use style="stroke:#000000;stroke-width:0.8;" x="99" xlink:href="#me91a084207" y="316.322155"/>
      </g>
     </g>
     <g id="text_9">
      <!-- $\mathdefault{10^{1}}$ -->
      <g transform="translate(74.4 320.121374)scale(0.1 -0.1)">
       <use transform="translate(0 0.684375)" xlink:href="#DejaVuSans-31"/>
       <use transform="translate(63.623047 0.684375)" xlink:href="#DejaVuSans-30"/>
       <use transform="translate(128.203125 38.965625)scale(0.7)" xlink:href="#DejaVuSans-31"/>
      </g>
     </g>
    </g>
    <g id="ytick_3">
     <g id="line2d_32">
      <path clip-path="url(#p68e2955192)" d="M 99 157.265218 
L 712.8 157.265218 
" style="fill:none;stroke:#b0b0b0;stroke-linecap:square;stroke-width:0.8;"/>
     </g>
     <g id="line2d_33">
      <g>
       <use style="stroke:#000000;stroke-width:0.8;" x="99" xlink:href="#me91a084207" y="157.265218"/>
      </g>
     </g>
     <g id="text_10">
      <!-- $\mathdefault{10^{2}}$ -->
      <g transform="translate(74.4 161.064437)scale(0.1 -0.1)">
       <use transform="translate(0 0.765625)" xlink:href="#DejaVuSans-31"/>
       <use transform="translate(63.623047 0.765625)" xlink:href="#DejaVuSans-30"/>
       <use transform="translate(128.203125 39.046875)scale(0.7)" xlink:href="#DejaVuSans-32"/>
      </g>
     </g>
    </g>
    <g id="ytick_4">
     <g id="line2d_34">
      <path clip-path="url(#p68e2955192)" d="M 99 538.67421 
L 712.8 538.67421 
" style="fill:none;stroke:#b0b0b0;stroke-linecap:square;stroke-width:0.8;"/>
     </g>
     <g id="line2d_35">
      <defs>
       <path d="M 0 0 
L -2 0 
" id="m0cb60b688e" style="stroke:#000000;stroke-width:0.6;"/>
      </defs>
      <g>
       <use style="stroke:#000000;stroke-width:0.6;" x="99" xlink:href="#m0cb60b688e" y="538.67421"/>
      </g>
     </g>
    </g>
    <g id="ytick_5">
     <g id="line2d_36">
      <path clip-path="url(#p68e2955192)" d="M 99 523.26 
L 712.8 523.26 
" style="fill:none;stroke:#b0b0b0;stroke-linecap:square;stroke-width:0.8;"/>
     </g>
     <g id="line2d_37">
      <g>
       <use style="stroke:#000000;stroke-width:0.6;" x="99" xlink:href="#m0cb60b688e" y="523.26"/>
      </g>
     </g>
    </g>
    <g id="ytick_6">
     <g id="line2d_38">
      <path clip-path="url(#p68e2955192)" d="M 99 510.665674 
L 712.8 510.665674 
" style="fill:none;stroke:#b0b0b0;stroke-linecap:square;stroke-width:0.8;"/>
     </g>
     <g id="line2d_39">
      <g>
       <use style="stroke:#000000;stroke-width:0.6;" x="99" xlink:href="#m0cb60b688e" y="510.665674"/>
      </g>
     </g>
    </g>
    <g id="ytick_7">
     <g id="line2d_40">
      <path clip-path="url(#p68e2955192)" d="M 99 500.017322 
L 712.8 500.017322 
" style="fill:none;stroke:#b0b0b0;stroke-linecap:square;stroke-width:0.8;"/>
     </g>
     <g id="line2d_41">
      <g>
       <use style="stroke:#000000;stroke-width:0.6;" x="99" xlink:href="#m0cb60b688e" y="500.017322"/>
      </g>
     </g>
    </g>
    <g id="ytick_8">
     <g id="line2d_42">
      <path clip-path="url(#p68e2955192)" d="M 99 490.793301 
L 712.8 490.793301 
" style="fill:none;stroke:#b0b0b0;stroke-linecap:square;stroke-width:0.8;"/>
     </g>
     <g id="line2d_43">
      <g>
       <use style="stroke:#000000;stroke-width:0.6;" x="99" xlink:href="#m0cb60b688e" y="490.793301"/>
      </g>
     </g>
    </g>
    <g id="ytick_9">
     <g id="line2d_44">
      <path clip-path="url(#p68e2955192)" d="M 99 482.657137 
L 712.8 482.657137 
" style="fill:none;stroke:#b0b0b0;stroke-linecap:square;stroke-width:0.8;"/>
     </g>
     <g id="line2d_45">
      <g>
       <use style="stroke:#000000;stroke-width:0.6;" x="99" xlink:href="#m0cb60b688e" y="482.657137"/>
      </g>
     </g>
    </g>
    <g id="ytick_10">
     <g id="line2d_46">
      <path clip-path="url(#p68e2955192)" d="M 99 427.498182 
L 712.8 427.498182 
" style="fill:none;stroke:#b0b0b0;stroke-linecap:square;stroke-width:0.8;"/>
     </g>
     <g id="line2d_47">
      <g>
       <use style="stroke:#000000;stroke-width:0.6;" x="99" xlink:href="#m0cb60b688e" y="427.498182"/>
      </g>
     </g>
    </g>
    <g id="ytick_11">
     <g id="line2d_48">
      <path clip-path="url(#p68e2955192)" d="M 99 399.489646 
L 712.8 399.489646 
" style="fill:none;stroke:#b0b0b0;stroke-linecap:square;stroke-width:0.8;"/>
     </g>
     <g id="line2d_49">
      <g>
       <use style="stroke:#000000;stroke-width:0.6;" x="99" xlink:href="#m0cb60b688e" y="399.489646"/>
      </g>
     </g>
    </g>
    <g id="ytick_12">
     <g id="line2d_50">
      <path clip-path="url(#p68e2955192)" d="M 99 379.617273 
L 712.8 379.617273 
" style="fill:none;stroke:#b0b0b0;stroke-linecap:square;stroke-width:0.8;"/>
     </g>
     <g id="line2d_51">
      <g>
       <use style="stroke:#000000;stroke-width:0.6;" x="99" xlink:href="#m0cb60b688e" y="379.617273"/>
      </g>
     </g>
    </g>
    <g id="ytick_13">
     <g id="line2d_52">
      <path clip-path="url(#p68e2955192)" d="M 99 364.203064 
L 712.8 364.203064 
" style="fill:none;stroke:#b0b0b0;stroke-linecap:square;stroke-width:0.8;"/>
     </g>
     <g id="line2d_53">
      <g>
       <use style="stroke:#000000;stroke-width:0.6;" x="99" xlink:href="#m0cb60b688e" y="364.203064"/>
      </g>
     </g>
    </g>
    <g id="ytick_14">
     <g id="line2d_54">
      <path clip-path="url(#p68e2955192)" d="M 99 351.608737 
L 712.8 351.608737 
" style="fill:none;stroke:#b0b0b0;stroke-linecap:square;stroke-width:0.8;"/>
     </g>
     <g id="line2d_55">
      <g>
       <use style="stroke:#000000;stroke-width:0.6;" x="99" xlink:href="#m0cb60b688e" y="351.608737"/>
      </g>
     </g>
    </g>
    <g id="ytick_15">
     <g id="line2d_56">
      <path clip-path="url(#p68e2955192)" d="M 99 340.960386 
L 712.8 340.960386 
" style="fill:none;stroke:#b0b0b0;stroke-linecap:square;stroke-width:0.8;"/>
     </g>
     <g id="line2d_57">
      <g>
       <use style="stroke:#000000;stroke-width:0.6;" x="99" xlink:href="#m0cb60b688e" y="340.960386"/>
      </g>
     </g>
    </g>
    <g id="ytick_16">
     <g id="line2d_58">
      <path clip-path="url(#p68e2955192)" d="M 99 331.736365 
L 712.8 331.736365 
" style="fill:none;stroke:#b0b0b0;stroke-linecap:square;stroke-width:0.8;"/>
     </g>
     <g id="line2d_59">
      <g>
       <use style="stroke:#000000;stroke-width:0.6;" x="99" xlink:href="#m0cb60b688e" y="331.736365"/>
      </g>
     </g>
    </g>
    <g id="ytick_17">
     <g id="line2d_60">
      <path clip-path="url(#p68e2955192)" d="M 99 323.600201 
L 712.8 323.600201 
" style="fill:none;stroke:#b0b0b0;stroke-linecap:square;stroke-width:0.8;"/>
     </g>
     <g id="line2d_61">
      <g>
       <use style="stroke:#000000;stroke-width:0.6;" x="99" xlink:href="#m0cb60b688e" y="323.600201"/>
      </g>
     </g>
    </g>
    <g id="ytick_18">
     <g id="line2d_62">
      <path clip-path="url(#p68e2955192)" d="M 99 268.441246 
L 712.8 268.441246 
" style="fill:none;stroke:#b0b0b0;stroke-linecap:square;stroke-width:0.8;"/>
     </g>
     <g id="line2d_63">
      <g>
       <use style="stroke:#000000;stroke-width:0.6;" x="99" xlink:href="#m0cb60b688e" y="268.441246"/>
      </g>
     </g>
    </g>
    <g id="ytick_19">
     <g id="line2d_64">
      <path clip-path="url(#p68e2955192)" d="M 99 240.43271 
L 712.8 240.43271 
" style="fill:none;stroke:#b0b0b0;stroke-linecap:square;stroke-width:0.8;"/>
     </g>
     <g id="line2d_65">
      <g>
       <use style="stroke:#000000;stroke-width:0.6;" x="99" xlink:href="#m0cb60b688e" y="240.43271"/>
      </g>
     </g>
    </g>
    <g id="ytick_20">
     <g id="line2d_66">
      <path clip-path="url(#p68e2955192)" d="M 99 220.560337 
L 712.8 220.560337 
" style="fill:none;stroke:#b0b0b0;stroke-linecap:square;stroke-width:0.8;"/>
     </g>
     <g id="line2d_67">
      <g>
       <use style="stroke:#000000;stroke-width:0.6;" x="99" xlink:href="#m0cb60b688e" y="220.560337"/>
      </g>
     </g>
    </g>
    <g id="ytick_21">
     <g id="line2d_68">
      <path clip-path="url(#p68e2955192)" d="M 99 205.146127 
L 712.8 205.146127 
" style="fill:none;stroke:#b0b0b0;stroke-linecap:square;stroke-width:0.8;"/>
     </g>
     <g id="line2d_69">
      <g>
       <use style="stroke:#000000;stroke-width:0.6;" x="99" xlink:href="#m0cb60b688e" y="205.146127"/>
      </g>
     </g>
    </g>
    <g id="ytick_22">
     <g id="line2d_70">
      <path clip-path="url(#p68e2955192)" d="M 99 192.551801 
L 712.8 192.551801 
" style="fill:none;stroke:#b0b0b0;stroke-linecap:square;stroke-width:0.8;"/>
     </g>
     <g id="line2d_71">
      <g>
       <use style="stroke:#000000;stroke-width:0.6;" x="99" xlink:href="#m0cb60b688e" y="192.551801"/>
      </g>
     </g>
    </g>
    <g id="ytick_23">
     <g id="line2d_72">
      <path clip-path="url(#p68e2955192)" d="M 99 181.90345 
L 712.8 181.90345 
" style="fill:none;stroke:#b0b0b0;stroke-linecap:square;stroke-width:0.8;"/>
     </g>
     <g id="line2d_73">
      <g>
       <use style="stroke:#000000;stroke-width:0.6;" x="99" xlink:href="#m0cb60b688e" y="181.90345"/>
      </g>
     </g>
    </g>
    <g id="ytick_24">
     <g id="line2d_74">
      <path clip-path="url(#p68e2955192)" d="M 99 172.679428 
L 712.8 172.679428 
" style="fill:none;stroke:#b0b0b0;stroke-linecap:square;stroke-width:0.8;"/>
     </g>
     <g id="line2d_75">
      <g>
       <use style="stroke:#000000;stroke-width:0.6;" x="99" xlink:href="#m0cb60b688e" y="172.679428"/>
      </g>
     </g>
    </g>
    <g id="ytick_25">
     <g id="line2d_76">
      <path clip-path="url(#p68e2955192)" d="M 99 164.543265 
L 712.8 164.543265 
" style="fill:none;stroke:#b0b0b0;stroke-linecap:square;stroke-width:0.8;"/>
     </g>
     <g id="line2d_77">
      <g>
       <use style="stroke:#000000;stroke-width:0.6;" x="99" xlink:href="#m0cb60b688e" y="164.543265"/>
      </g>
     </g>
    </g>
    <g id="ytick_26">
     <g id="line2d_78">
      <path clip-path="url(#p68e2955192)" d="M 99 109.38431 
L 712.8 109.38431 
" style="fill:none;stroke:#b0b0b0;stroke-linecap:square;stroke-width:0.8;"/>
     </g>
     <g id="line2d_79">
      <g>
       <use style="stroke:#000000;stroke-width:0.6;" x="99" xlink:href="#m0cb60b688e" y="109.38431"/>
      </g>
     </g>
    </g>
    <g id="ytick_27">
     <g id="line2d_80">
      <path clip-path="url(#p68e2955192)" d="M 99 81.375773 
L 712.8 81.375773 
" style="fill:none;stroke:#b0b0b0;stroke-linecap:square;stroke-width:0.8;"/>
     </g>
     <g id="line2d_81">
      <g>
       <use style="stroke:#000000;stroke-width:0.6;" x="99" xlink:href="#m0cb60b688e" y="81.375773"/>
      </g>
     </g>
    </g>
   </g>
   <g id="line2d_82">
    <path clip-path="url(#p68e2955192)" d="M 114.025915 613 
L 114.027119 447.370555 
L 115.183051 412.083973 
L 116.338983 399.489646 
L 118.650847 399.489646 
L 119.80678 388.841295 
L 120.962712 371.48111 
L 122.118644 351.608737 
L 123.274576 295.591665 
L 124.430508 268.441246 
L 125.586441 266.735541 
L 127.898305 257.301237 
L 129.054237 257.301237 
L 131.366102 249.001963 
L 132.522034 246.443242 
L 133.677966 245.198568 
L 134.833898 241.593704 
L 135.989831 239.290906 
L 137.145763 242.774546 
L 138.301695 239.290906 
L 139.457627 237.062405 
L 141.769492 237.062405 
L 142.925424 239.290906 
L 145.237288 239.290906 
L 146.39322 249.001963 
L 147.549153 257.301237 
L 148.705085 261.857452 
L 149.861017 273.826638 
L 152.172881 316.322155 
L 153.328814 323.600201 
L 154.484746 331.736365 
L 155.640678 331.736365 
L 156.79661 336.194527 
L 157.952542 351.608737 
L 159.108475 340.960386 
L 160.264407 351.608737 
L 161.420339 371.48111 
L 164.888136 371.48111 
L 166.044068 364.203064 
L 168.355932 364.203064 
L 169.511864 351.608737 
L 170.667797 351.608737 
L 171.823729 364.203064 
L 174.135593 364.203064 
L 175.291525 371.48111 
L 176.447458 371.48111 
L 177.60339 379.617273 
L 178.759322 399.489646 
L 179.915254 412.083973 
L 181.071186 412.083973 
L 182.227119 427.498182 
L 191.474576 427.498182 
L 192.630508 412.083973 
L 203.033898 412.083973 
L 204.189831 388.841295 
L 205.345763 379.617273 
L 207.657627 379.617273 
L 208.813559 371.48111 
L 209.969492 340.960386 
L 211.125424 323.600201 
L 216.905085 323.600201 
L 218.061017 336.194527 
L 219.216949 323.600201 
L 220.372881 336.194527 
L 221.528814 336.194527 
L 222.684746 357.61927 
L 223.840678 371.48111 
L 227.308475 371.48111 
L 228.464407 388.841295 
L 229.620339 388.841295 
L 230.776271 371.48111 
L 233.088136 371.48111 
L 234.244068 364.203064 
L 237.711864 364.203064 
L 238.867797 379.617273 
L 240.023729 371.48111 
L 241.179661 412.083973 
L 243.491525 412.083973 
L 244.647458 379.617273 
L 245.80339 357.61927 
L 246.959322 364.203064 
L 248.115254 364.203064 
L 249.271186 357.61927 
L 253.894915 357.61927 
L 255.050847 346.079583 
L 258.518644 346.079583 
L 259.674576 336.194527 
L 260.830508 327.548564 
L 261.986441 336.194527 
L 264.298305 336.194527 
L 265.454237 346.079583 
L 266.610169 364.203064 
L 267.766102 364.203064 
L 268.922034 346.079583 
L 270.077966 357.61927 
L 271.233898 371.48111 
L 272.389831 379.617273 
L 273.545763 371.48111 
L 274.701695 371.48111 
L 275.857627 379.617273 
L 277.013559 379.617273 
L 278.169492 371.48111 
L 279.325424 371.48111 
L 280.481356 364.203064 
L 281.637288 364.203064 
L 282.79322 357.61927 
L 285.105085 357.61927 
L 286.261017 351.608737 
L 298.976271 351.608737 
L 300.132203 357.61927 
L 303.6 357.61927 
L 304.755932 340.960386 
L 308.223729 340.960386 
L 309.379661 357.61927 
L 310.535593 357.61927 
L 311.691525 364.203064 
L 312.847458 364.203064 
L 314.00339 379.617273 
L 315.159322 379.617273 
L 316.315254 364.203064 
L 323.250847 364.203064 
L 324.40678 379.617273 
L 325.562712 388.841295 
L 326.718644 371.48111 
L 330.186441 371.48111 
L 331.342373 379.617273 
L 333.654237 379.617273 
L 334.810169 388.841295 
L 335.966102 399.489646 
L 339.433898 399.489646 
L 340.589831 388.841295 
L 344.057627 388.841295 
L 345.213559 379.617273 
L 346.369492 364.203064 
L 347.525424 346.079583 
L 349.837288 346.079583 
L 350.99322 336.194527 
L 352.149153 331.736365 
L 353.305085 323.600201 
L 354.461017 323.600201 
L 355.616949 316.322155 
L 356.772881 316.322155 
L 359.084746 309.738361 
L 360.240678 312.95185 
L 361.39661 312.95185 
L 362.552542 309.738361 
L 366.020339 309.738361 
L 367.176271 306.667742 
L 368.332203 306.667742 
L 369.488136 298.198674 
L 370.644068 298.198674 
L 371.8 295.591665 
L 374.111864 286.048578 
L 375.267797 281.729825 
L 376.423729 271.984461 
L 377.579661 270.190138 
L 378.735593 261.857452 
L 379.891525 257.301237 
L 381.047458 258.786833 
L 382.20339 261.857452 
L 383.359322 261.857452 
L 384.515254 258.786833 
L 386.827119 258.786833 
L 387.983051 257.301237 
L 389.138983 247.710756 
L 391.450847 219.70222 
L 392.60678 211.660878 
L 393.762712 210.159133 
L 394.918644 202.436857 
L 397.230508 170.553797 
L 398.386441 164.928099 
L 403.010169 164.928099 
L 404.166102 167.683694 
L 405.322034 167.683694 
L 406.477966 169.309123 
L 407.633898 169.309123 
L 408.789831 174.87255 
L 409.945763 182.398631 
L 411.101695 174.87255 
L 414.569492 174.87255 
L 415.725424 173.986929 
L 416.881356 182.398631 
L 418.037288 167.683694 
L 419.19322 155.559513 
L 420.349153 148.822724 
L 422.661017 148.822724 
L 423.816949 144.097631 
L 426.128814 144.097631 
L 427.284746 148.822724 
L 428.440678 148.822724 
L 429.59661 154.22464 
L 430.752542 155.897301 
L 431.908475 157.265218 
L 434.220339 157.265218 
L 435.376271 159.369266 
L 436.532203 159.369266 
L 437.688136 162.650611 
L 438.844068 159.369266 
L 440 162.650611 
L 441.155932 163.779969 
L 444.623729 163.779969 
L 445.779661 167.283243 
L 448.091525 167.283243 
L 449.247458 171.821311 
L 450.40339 167.283243 
L 451.559322 160.085102 
L 452.715254 159.014111 
L 453.871186 149.436751 
L 455.027119 149.436751 
L 456.183051 140.212729 
L 457.338983 140.212729 
L 458.494915 129.026807 
L 459.650847 129.026807 
L 460.80678 121.840619 
L 465.430508 121.840619 
L 466.586441 122.2555 
L 467.742373 122.2555 
L 468.898305 123.940402 
L 470.054237 123.940402 
L 472.366102 129.487325 
L 473.522034 129.487325 
L 474.677966 131.36073 
L 475.833898 131.36073 
L 476.989831 132.557944 
L 478.145763 134.766651 
L 479.301695 134.766651 
L 480.457627 136.791046 
L 481.613559 137.565756 
L 482.769492 137.565756 
L 483.925424 137.825935 
L 485.081356 137.306553 
L 486.237288 137.825935 
L 487.39322 137.825935 
L 488.549153 137.306553 
L 489.705085 137.048319 
L 492.016949 137.048319 
L 493.172881 137.306553 
L 495.484746 137.306553 
L 496.640678 139.141738 
L 497.79661 137.306553 
L 498.952542 137.306553 
L 500.108475 138.876565 
L 502.420339 138.876565 
L 503.576271 143.812775 
L 504.732203 143.812775 
L 505.888136 147.31112 
L 508.2 147.31112 
L 509.355932 149.745823 
L 511.667797 149.745823 
L 512.823729 153.894913 
L 513.979661 156.577874 
L 515.135593 156.577874 
L 516.291525 153.894913 
L 517.447458 153.894913 
L 518.60339 149.745823 
L 519.759322 147.610806 
L 520.915254 147.610806 
L 522.071186 147.31112 
L 524.383051 147.31112 
L 525.538983 146.12521 
L 526.694915 146.12521 
L 527.850847 147.31112 
L 529.00678 146.12521 
L 535.942373 146.12521 
L 537.098305 144.959316 
L 538.254237 149.129055 
L 541.722034 149.129055 
L 542.877966 143.812775 
L 544.033898 137.565756 
L 545.189831 137.565756 
L 546.345763 132.316836 
L 547.501695 132.316836 
L 548.657627 127.438747 
L 550.969492 119.004192 
L 557.905085 119.004192 
L 559.061017 125.667431 
L 561.372881 125.667431 
L 562.528814 129.256682 
L 563.684746 129.256682 
L 564.840678 130.183912 
L 565.99661 130.183912 
L 567.152542 132.799897 
L 568.308475 139.943421 
L 569.464407 139.943421 
L 570.620339 143.246562 
L 571.776271 144.959316 
L 572.932203 137.825935 
L 574.088136 148.822724 
L 575.244068 158.309231 
L 576.4 159.726257 
L 578.711864 159.726257 
L 579.867797 161.907834 
L 581.023729 165.315089 
L 585.647458 165.315089 
L 586.80339 169.721528 
L 587.959322 169.721528 
L 590.271186 191.97854 
L 591.427119 191.97854 
L 593.738983 199.829847 
L 594.894915 197.937193 
L 599.518644 197.937193 
L 600.674576 198.562334 
L 601.830508 200.472434 
L 604.142373 200.472434 
L 605.298305 204.458783 
L 606.454237 207.250175 
L 607.610169 213.976543 
L 608.766102 217.190032 
L 609.922034 218.854632 
L 611.077966 223.200565 
L 612.233898 225.945729 
L 613.389831 230.778297 
L 614.545763 238.167669 
L 615.701695 246.443242 
L 616.857627 255.846919 
L 618.013559 263.445512 
L 620.325424 270.190138 
L 621.481356 288.313619 
L 622.637288 312.95185 
L 623.79322 312.95185 
L 624.949153 319.86537 
L 626.105085 323.600201 
L 627.261017 323.600201 
L 628.416949 319.86537 
L 629.572881 327.548564 
L 631.884746 327.548564 
L 633.040678 331.736365 
L 634.19661 340.960386 
L 635.352542 340.960386 
L 636.508475 331.736365 
L 637.664407 331.736365 
L 638.820339 327.548564 
L 639.976271 340.960386 
L 643.444068 340.960386 
L 644.6 357.61927 
L 645.755932 340.960386 
L 646.911864 351.608737 
L 648.067797 346.079583 
L 651.535593 346.079583 
L 652.691525 364.203064 
L 653.847458 379.617273 
L 655.00339 388.841295 
L 656.159322 379.617273 
L 658.471186 379.617273 
L 659.627119 388.841295 
L 660.783051 379.617273 
L 667.718644 379.617273 
L 668.874576 371.48111 
L 670.030508 351.608737 
L 671.186441 340.960386 
L 672.342373 336.194527 
L 674.654237 336.194527 
L 675.810169 316.322155 
L 676.966102 319.86537 
L 678.122034 306.667742 
L 679.277966 300.907945 
L 680.433898 283.855456 
L 686.213559 283.855456 
L 687.369492 268.441246 
L 688.525424 260.305082 
L 691.99322 260.305082 
L 694.305085 232.810136 
L 695.461017 231.786746 
L 696.616949 218.017318 
L 700.084746 218.017318 
L 702.39661 197.937193 
L 703.552542 177.59965 
L 704.708475 163.779969 
L 707.020339 163.779969 
L 708.176271 180.92361 
L 709.332203 163.779969 
L 710.488136 162.278224 
L 711.644068 160.445821 
L 712.8 160.445821 
L 712.8 160.445821 
" style="fill:none;stroke:#1f77b4;stroke-linecap:square;stroke-width:1.5;"/>
   </g>
   <g id="line2d_83">
    <path clip-path="url(#p68e2955192)" d="M 126.741721 613 
L 126.742373 523.26 
L 127.898305 475.379091 
L 138.301695 475.379091 
L 139.457627 523.26 
L 140.613559 475.379091 
L 169.511864 475.379091 
L 170.667797 523.26 
L 170.668449 613 
M 408.789178 613 
L 408.789831 523.26 
L 409.945763 475.379091 
L 415.725424 475.379091 
L 416.881356 447.370555 
L 418.037288 427.498182 
L 433.064407 427.498182 
L 434.220339 447.370555 
L 435.376271 427.498182 
L 436.532203 427.498182 
L 437.688136 447.370555 
L 438.844068 475.379091 
L 440 447.370555 
L 441.155932 427.498182 
L 442.311864 447.370555 
L 443.467797 447.370555 
L 444.623729 427.498182 
L 445.779661 447.370555 
L 446.935593 427.498182 
L 448.091525 447.370555 
L 449.247458 427.498182 
L 450.40339 412.083973 
L 455.027119 412.083973 
L 456.183051 427.498182 
L 457.338983 447.370555 
L 458.494915 427.498182 
L 459.650847 447.370555 
L 461.962712 447.370555 
L 463.118644 475.379091 
L 464.274576 475.379091 
L 465.430508 523.26 
L 465.431161 613 
M 471.209517 613 
L 471.210169 523.26 
L 472.366102 523.26 
L 473.522034 475.379091 
L 474.677966 523.26 
L 475.833898 475.379091 
L 476.989831 523.26 
L 476.990483 613 
M 479.301043 613 
L 479.301695 523.26 
L 480.457627 475.379091 
L 523.227119 475.379091 
L 524.383051 523.26 
L 524.383703 613 
M 527.850195 613 
L 527.850847 523.26 
L 529.00678 523.26 
L 529.007432 613 
M 540.565449 613 
L 540.566102 523.26 
L 541.722034 475.379091 
L 542.877966 475.379091 
L 544.033898 523.26 
L 545.189831 475.379091 
L 546.345763 475.379091 
L 547.501695 523.26 
L 549.813559 523.26 
L 550.969492 475.379091 
L 554.437288 475.379091 
L 555.59322 523.26 
L 556.749153 523.26 
L 556.749805 613 
M 565.995958 613 
L 565.99661 523.26 
L 567.152542 523.26 
L 567.153195 613 
L 567.153195 613 
" style="fill:none;stroke:#ff7f0e;stroke-linecap:square;stroke-width:1.5;"/>
   </g>
   <g id="patch_3">
    <path d="M 99 544.68 
L 99 73.44 
" style="fill:none;stroke:#000000;stroke-linecap:square;stroke-linejoin:miter;stroke-width:0.8;"/>
   </g>
   <g id="patch_4">
    <path d="M 712.8 544.68 
L 712.8 73.44 
" style="fill:none;stroke:#000000;stroke-linecap:square;stroke-linejoin:miter;stroke-width:0.8;"/>
   </g>
   <g id="patch_5">
    <path d="M 99 544.68 
L 712.8 544.68 
" style="fill:none;stroke:#000000;stroke-linecap:square;stroke-linejoin:miter;stroke-width:0.8;"/>
   </g>
   <g id="patch_6">
    <path d="M 99 73.44 
L 712.8 73.44 
" style="fill:none;stroke:#000000;stroke-linecap:square;stroke-linejoin:miter;stroke-width:0.8;"/>
   </g>
   <g id="legend_1">
    <g id="patch_7">
     <path d="M 616.653125 110.79625 
L 705.8 110.79625 
Q 707.8 110.79625 707.8 108.79625 
L 707.8 80.44 
Q 707.8 78.44 705.8 78.44 
L 616.653125 78.44 
Q 614.653125 78.44 614.653125 80.44 
L 614.653125 108.79625 
Q 614.653125 110.79625 616.653125 110.79625 
z
" style="fill:#ffffff;opacity:0.8;stroke:#cccccc;stroke-linejoin:miter;"/>
    </g>
    <g id="line2d_84">
     <path d="M 618.653125 86.538437 
L 638.653125 86.538437 
" style="fill:none;stroke:#1f77b4;stroke-linecap:square;stroke-width:1.5;"/>
    </g>
    <g id="line2d_85"/>
    <g id="text_11">
     <!-- Avg Cases -->
     <g transform="translate(646.653125 90.038437)scale(0.1 -0.1)">
      <defs>
       <path d="M 191 3500 
L 800 3500 
L 1894 563 
L 2988 3500 
L 3597 3500 
L 2284 0 
L 1503 0 
L 191 3500 
z
" id="DejaVuSans-76" transform="scale(0.015625)"/>
       <path d="M 2906 1791 
Q 2906 2416 2648 2759 
Q 2391 3103 1925 3103 
Q 1463 3103 1205 2759 
Q 947 2416 947 1791 
Q 947 1169 1205 825 
Q 1463 481 1925 481 
Q 2391 481 2648 825 
Q 2906 1169 2906 1791 
z
M 3481 434 
Q 3481 -459 3084 -895 
Q 2688 -1331 1869 -1331 
Q 1566 -1331 1297 -1286 
Q 1028 -1241 775 -1147 
L 775 -588 
Q 1028 -725 1275 -790 
Q 1522 -856 1778 -856 
Q 2344 -856 2625 -561 
Q 2906 -266 2906 331 
L 2906 616 
Q 2728 306 2450 153 
Q 2172 0 1784 0 
Q 1141 0 747 490 
Q 353 981 353 1791 
Q 353 2603 747 3093 
Q 1141 3584 1784 3584 
Q 2172 3584 2450 3431 
Q 2728 3278 2906 2969 
L 2906 3500 
L 3481 3500 
L 3481 434 
z
" id="DejaVuSans-67" transform="scale(0.015625)"/>
       <path id="DejaVuSans-20" transform="scale(0.015625)"/>
       <path d="M 4122 4306 
L 4122 3641 
Q 3803 3938 3442 4084 
Q 3081 4231 2675 4231 
Q 1875 4231 1450 3742 
Q 1025 3253 1025 2328 
Q 1025 1406 1450 917 
Q 1875 428 2675 428 
Q 3081 428 3442 575 
Q 3803 722 4122 1019 
L 4122 359 
Q 3791 134 3420 21 
Q 3050 -91 2638 -91 
Q 1578 -91 968 557 
Q 359 1206 359 2328 
Q 359 3453 968 4101 
Q 1578 4750 2638 4750 
Q 3056 4750 3426 4639 
Q 3797 4528 4122 4306 
z
" id="DejaVuSans-43" transform="scale(0.015625)"/>
       <path d="M 2834 3397 
L 2834 2853 
Q 2591 2978 2328 3040 
Q 2066 3103 1784 3103 
Q 1356 3103 1142 2972 
Q 928 2841 928 2578 
Q 928 2378 1081 2264 
Q 1234 2150 1697 2047 
L 1894 2003 
Q 2506 1872 2764 1633 
Q 3022 1394 3022 966 
Q 3022 478 2636 193 
Q 2250 -91 1575 -91 
Q 1294 -91 989 -36 
Q 684 19 347 128 
L 347 722 
Q 666 556 975 473 
Q 1284 391 1588 391 
Q 1994 391 2212 530 
Q 2431 669 2431 922 
Q 2431 1156 2273 1281 
Q 2116 1406 1581 1522 
L 1381 1569 
Q 847 1681 609 1914 
Q 372 2147 372 2553 
Q 372 3047 722 3315 
Q 1072 3584 1716 3584 
Q 2034 3584 2315 3537 
Q 2597 3491 2834 3397 
z
" id="DejaVuSans-73" transform="scale(0.015625)"/>
      </defs>
      <use xlink:href="#DejaVuSans-41"/>
      <use x="62.533203" xlink:href="#DejaVuSans-76"/>
      <use x="121.712891" xlink:href="#DejaVuSans-67"/>
      <use x="185.189453" xlink:href="#DejaVuSans-20"/>
      <use x="216.976562" xlink:href="#DejaVuSans-43"/>
      <use x="286.800781" xlink:href="#DejaVuSans-61"/>
      <use x="348.080078" xlink:href="#DejaVuSans-73"/>
      <use x="400.179688" xlink:href="#DejaVuSans-65"/>
      <use x="461.703125" xlink:href="#DejaVuSans-73"/>
     </g>
    </g>
    <g id="line2d_86">
     <path d="M 618.653125 101.216562 
L 638.653125 101.216562 
" style="fill:none;stroke:#ff7f0e;stroke-linecap:square;stroke-width:1.5;"/>
    </g>
    <g id="line2d_87"/>
    <g id="text_12">
     <!-- Avg Deaths -->
     <g transform="translate(646.653125 104.716562)scale(0.1 -0.1)">
      <defs>
       <path d="M 3513 2113 
L 3513 0 
L 2938 0 
L 2938 2094 
Q 2938 2591 2744 2837 
Q 2550 3084 2163 3084 
Q 1697 3084 1428 2787 
Q 1159 2491 1159 1978 
L 1159 0 
L 581 0 
L 581 4863 
L 1159 4863 
L 1159 2956 
Q 1366 3272 1645 3428 
Q 1925 3584 2291 3584 
Q 2894 3584 3203 3211 
Q 3513 2838 3513 2113 
z
" id="DejaVuSans-68" transform="scale(0.015625)"/>
      </defs>
      <use xlink:href="#DejaVuSans-41"/>
      <use x="62.533203" xlink:href="#DejaVuSans-76"/>
      <use x="121.712891" xlink:href="#DejaVuSans-67"/>
      <use x="185.189453" xlink:href="#DejaVuSans-20"/>
      <use x="216.976562" xlink:href="#DejaVuSans-44"/>
      <use x="293.978516" xlink:href="#DejaVuSans-65"/>
      <use x="355.501953" xlink:href="#DejaVuSans-61"/>
      <use x="416.78125" xlink:href="#DejaVuSans-74"/>
      <use x="455.990234" xlink:href="#DejaVuSans-68"/>
      <use x="519.369141" xlink:href="#DejaVuSans-73"/>
     </g>
    </g>
   </g>
  </g>
 </g>
 <defs>
  <clipPath id="p68e2955192">
   <rect height="471.24" width="613.8" x="99" y="73.44"/>
  </clipPath>
 </defs>
</svg>
