<?xml version="1.0" encoding="utf-8" standalone="no"?>
<!DOCTYPE svg PUBLIC "-//W3C//DTD SVG 1.1//EN"
  "http://www.w3.org/Graphics/SVG/1.1/DTD/svg11.dtd">
<svg height="612pt" version="1.1" viewBox="0 0 792 612" width="792pt" xmlns="http://www.w3.org/2000/svg" xmlns:xlink="http://www.w3.org/1999/xlink">
 <metadata>
  <rdf:RDF xmlns:cc="http://creativecommons.org/ns#" xmlns:dc="http://purl.org/dc/elements/1.1/" xmlns:rdf="http://www.w3.org/1999/02/22-rdf-syntax-ns#">
   <cc:Work>
    <dc:type rdf:resource="http://purl.org/dc/dcmitype/StillImage"/>
    <dc:format>image/svg+xml</dc:format>
    <dc:creator>
     <cc:Agent>
      <dc:title>Matplotlib v3.4.2, https://matplotlib.org/</dc:title>
     </cc:Agent>
    </dc:creator>
   </cc:Work>
  </rdf:RDF>
 </metadata>
 <defs>
  <style type="text/css">*{stroke-linecap:butt;stroke-linejoin:round;}</style>
 </defs>
 <g id="figure_1">
  <g id="patch_1">
   <path d="M 0 612 
L 792 612 
L 792 0 
L 0 0 
z
" style="fill:#ffffff;"/>
  </g>
  <g id="axes_1">
   <g id="patch_2">
    <path d="M 99 544.68 
L 712.8 544.68 
L 712.8 73.44 
L 99 73.44 
z
" style="fill:#ffffff;"/>
   </g>
   <g id="PolyCollection_1">
    <path clip-path="url(#p68e2955192)" d="M 99 180480.478538 
L 99 180480.478538 
L 100.14729 180480.478538 
L 101.294579 180480.478538 
L 102.441869 180480.478538 
L 103.589159 180480.478538 
L 104.736449 180480.478538 
L 105.883738 180480.478538 
L 107.031028 180480.478538 
L 108.178318 180480.478538 
L 109.325607 180480.478538 
L 110.472897 180480.478538 
L 111.620187 180480.478538 
L 112.767477 180480.478538 
L 113.914766 391.420769 
L 115.062056 391.420769 
L 116.209346 366.788375 
L 117.356636 327.702838 
L 118.503925 327.702838 
L 119.651215 327.702838 
L 120.798505 316.943879 
L 121.945794 316.943879 
L 123.093084 316.943879 
L 124.240374 327.702838 
L 125.387664 327.702838 
L 126.534953 327.702838 
L 127.682243 327.702838 
L 128.829533 327.702838 
L 129.976822 327.702838 
L 131.124112 327.702838 
L 132.271402 327.702838 
L 133.418692 360.6935 
L 134.565981 360.6935 
L 135.713271 360.6935 
L 136.860561 373.398899 
L 138.00785 373.398899 
L 139.15514 414.882334 
L 140.30243 414.882334 
L 141.44972 427.587732 
L 142.597009 427.587732 
L 143.744299 427.587732 
L 144.891589 469.071167 
L 146.038879 469.071167 
L 147.186168 427.587732 
L 148.333458 414.882334 
L 149.480748 414.882334 
L 150.628037 414.882334 
L 151.775327 391.420769 
L 152.922617 391.420769 
L 154.069907 391.420769 
L 155.217196 391.420769 
L 156.364486 391.420769 
L 157.511776 391.420769 
L 158.659065 391.420769 
L 159.806355 391.420769 
L 160.953645 391.420769 
L 162.100935 391.420769 
L 163.248224 391.420769 
L 164.395514 391.420769 
L 165.542804 391.420769 
L 166.690093 427.587732 
L 167.837383 496.955287 
L 168.984673 496.955287 
L 170.131963 496.955287 
L 171.279252 496.955287 
L 172.426542 496.955287 
L 173.573832 496.955287 
L 174.721121 496.955287 
L 175.868411 496.955287 
L 177.015701 180480.478538 
L 178.162991 180480.478538 
L 179.31028 180480.478538 
L 180.45757 180480.478538 
L 181.60486 180480.478538 
L 182.75215 180480.478538 
L 183.899439 180480.478538 
L 185.046729 180480.478538 
L 186.194019 180480.478538 
L 187.341308 180480.478538 
L 188.488598 180480.478538 
L 189.635888 180480.478538 
L 190.783178 180480.478538 
L 191.930467 496.955287 
L 193.077757 496.955287 
L 194.225047 496.955287 
L 195.372336 496.955287 
L 196.519626 496.955287 
L 197.666916 496.955287 
L 198.814206 469.071167 
L 199.961495 469.071167 
L 201.108785 469.071167 
L 202.256075 469.071167 
L 203.403364 496.955287 
L 204.550654 469.071167 
L 205.697944 469.071167 
L 206.845234 469.071167 
L 207.992523 496.955287 
L 209.139813 469.071167 
L 210.287103 469.071167 
L 211.434393 469.071167 
L 212.581682 469.071167 
L 213.728972 469.071167 
L 214.876262 427.587732 
L 216.023551 414.882334 
L 217.170841 414.882334 
L 218.318131 414.882334 
L 219.465421 414.882334 
L 220.61271 414.882334 
L 221.76 414.882334 
L 222.90729 391.420769 
L 224.054579 391.420769 
L 225.201869 341.700464 
L 226.349159 328.995065 
L 227.496449 328.995065 
L 228.643738 328.995065 
L 229.791028 328.995065 
L 230.938318 328.995065 
L 232.085607 282.322563 
L 233.232897 276.120178 
L 234.380187 264.448498 
L 235.527477 262.755046 
L 236.674766 236.450333 
L 237.822056 236.450333 
L 238.969346 220.292334 
L 240.116636 220.292334 
L 241.263925 220.292334 
L 242.411215 220.292334 
L 243.558505 220.292334 
L 244.705794 220.292334 
L 245.853084 220.292334 
L 247.000374 220.292334 
L 248.147664 215.267121 
L 249.294953 215.267121 
L 250.442243 215.267121 
L 251.589533 215.267121 
L 252.736822 219.968615 
L 253.884112 219.968615 
L 255.031402 242.243943 
L 256.178692 242.243943 
L 257.325981 242.243943 
L 258.473271 239.293481 
L 259.620561 238.062307 
L 260.76785 238.062307 
L 261.91514 234.48101 
L 263.06243 223.605455 
L 264.20972 223.605455 
L 265.357009 223.605455 
L 266.504299 223.605455 
L 267.651589 223.605455 
L 268.798879 223.605455 
L 269.946168 209.974863 
L 271.093458 190.454064 
L 272.240748 190.454064 
L 273.388037 155.078532 
L 274.535327 155.078532 
L 275.682617 155.078532 
L 276.829907 155.078532 
L 277.977196 155.078532 
L 279.124486 155.078532 
L 280.271776 155.928301 
L 281.419065 153.820951 
L 282.566355 143.451076 
L 283.713645 143.451076 
L 284.860935 143.451076 
L 286.008224 143.451076 
L 287.155514 151.904057 
L 288.302804 151.904057 
L 289.450093 173.587102 
L 290.597383 173.587102 
L 291.744673 161.230533 
L 292.891963 161.230533 
L 294.039252 161.230533 
L 295.186542 161.230533 
L 296.333832 161.230533 
L 297.481121 161.230533 
L 298.628411 178.561229 
L 299.775701 178.561229 
L 300.922991 178.561229 
L 302.07028 178.561229 
L 303.21757 187.626736 
L 304.36486 187.626736 
L 305.51215 251.828742 
L 306.659439 251.828742 
L 307.806729 251.828742 
L 308.954019 251.828742 
L 310.101308 251.828742 
L 311.248598 251.828742 
L 312.395888 251.828742 
L 313.543178 251.828742 
L 314.690467 241.38953 
L 315.837757 245.310138 
L 316.985047 248.037553 
L 318.132336 248.037553 
L 319.279626 248.037553 
L 320.426916 248.037553 
L 321.574206 248.037553 
L 322.721495 248.037553 
L 323.868785 248.037553 
L 325.016075 248.037553 
L 326.163364 248.037553 
L 327.310654 248.037553 
L 328.457944 248.037553 
L 329.605234 248.037553 
L 330.752523 274.806232 
L 331.899813 274.806232 
L 333.047103 280.901106 
L 334.194393 280.901106 
L 335.341682 283.043102 
L 336.488972 312.599542 
L 337.636262 312.599542 
L 338.783551 326.431624 
L 339.930841 427.587732 
L 341.078131 427.587732 
L 342.225421 427.587732 
L 343.37271 391.420769 
L 344.52 391.420769 
L 345.66729 427.587732 
L 346.814579 427.587732 
L 347.961869 391.420769 
L 349.109159 391.420769 
L 350.256449 391.420769 
L 351.403738 391.420769 
L 352.551028 391.420769 
L 353.698318 341.700464 
L 354.845607 341.700464 
L 355.992897 341.700464 
L 357.140187 341.700464 
L 358.287477 341.700464 
L 359.434766 341.700464 
L 360.582056 341.700464 
L 361.729346 341.700464 
L 362.876636 328.995065 
L 364.023925 305.5335 
L 365.171215 305.5335 
L 366.318505 305.5335 
L 367.465794 297.29663 
L 368.613084 297.29663 
L 369.760374 297.29663 
L 370.907664 297.29663 
L 372.054953 271.614852 
L 373.202243 271.614852 
L 374.349533 271.614852 
L 375.496822 271.614852 
L 376.644112 271.614852 
L 377.791402 271.614852 
L 378.938692 264.448498 
L 380.085981 276.120178 
L 381.233271 276.120178 
L 382.380561 276.120178 
L 383.52785 260.552704 
L 384.67514 260.552704 
L 385.82243 260.552704 
L 386.96972 260.552704 
L 388.117009 268.548656 
L 389.264299 268.548656 
L 390.411589 268.548656 
L 391.558879 264.448498 
L 392.706168 264.448498 
L 393.853458 264.448498 
L 395.000748 264.448498 
L 396.148037 255.303891 
L 397.295327 255.303891 
L 398.442617 255.303891 
L 399.589907 264.448498 
L 400.737196 245.310138 
L 401.884486 245.310138 
L 403.031776 225.662889 
L 404.179065 225.662889 
L 405.326355 225.662889 
L 406.473645 197.155834 
L 407.620935 192.246187 
L 408.768224 192.246187 
L 409.915514 189.573176 
L 411.062804 184.486637 
L 412.210093 184.486637 
L 413.357383 184.486637 
L 414.504673 184.486637 
L 415.651963 184.486637 
L 416.799252 189.573176 
L 417.946542 170.096435 
L 419.093832 170.096435 
L 420.241121 170.096435 
L 421.388411 170.096435 
L 422.535701 170.610202 
L 423.682991 170.610202 
L 424.83028 170.610202 
L 425.97757 177.615898 
L 427.12486 228.493169 
L 428.27215 228.493169 
L 429.419439 228.493169 
L 430.566729 228.493169 
L 431.714019 232.940508 
L 432.861308 207.733047 
L 434.008598 228.493169 
L 435.155888 235.656641 
L 436.303178 235.656641 
L 437.450467 235.656641 
L 438.597757 235.656641 
L 439.745047 235.656641 
L 440.892336 235.656641 
L 442.039626 241.815569 
L 443.186916 249.910169 
L 444.334206 249.910169 
L 445.481495 249.910169 
L 446.628785 249.910169 
L 447.776075 208.566213 
L 448.923364 249.910169 
L 450.070654 333.00507 
L 451.217944 356.879185 
L 452.365234 180480.478538 
L 453.512523 141.769765 
L 454.659813 141.769765 
L 455.807103 133.973738 
L 456.954393 133.973738 
L 458.101682 133.973738 
L 459.248972 133.973738 
L 460.396262 133.973738 
L 461.543551 133.973738 
L 462.690841 133.973738 
L 463.838131 223.944623 
L 464.985421 223.944623 
L 466.13271 223.944623 
L 467.28 223.944623 
L 468.42729 223.944623 
L 469.574579 224.971044 
L 470.721869 223.944623 
L 471.869159 224.971044 
L 473.016449 227.065222 
L 474.163738 227.065222 
L 475.311028 227.065222 
L 476.458318 233.706965 
L 477.605607 230.315582 
L 478.752897 230.315582 
L 479.900187 241.38953 
L 481.047477 241.38953 
L 482.194766 236.05248 
L 483.342056 234.870926 
L 484.489346 234.870926 
L 485.636636 234.870926 
L 486.783925 236.05248 
L 487.931215 236.05248 
L 489.078505 236.05248 
L 490.225794 236.05248 
L 491.373084 236.05248 
L 492.520374 236.05248 
L 493.667664 236.05248 
L 494.814953 236.05248 
L 495.962243 238.470547 
L 497.109533 234.870926 
L 498.256822 238.470547 
L 499.404112 247.576325 
L 500.551402 247.576325 
L 501.698692 247.576325 
L 502.845981 253.299218 
L 503.993271 253.299218 
L 505.140561 206.09289 
L 506.28785 206.09289 
L 507.43514 209.408353 
L 508.58243 209.408353 
L 509.72972 209.408353 
L 510.877009 196.196583 
L 512.024299 196.196583 
L 513.171589 217.739357 
L 514.318879 219.646231 
L 515.466168 219.646231 
L 516.613458 219.646231 
L 517.760748 219.646231 
L 518.908037 219.646231 
L 520.055327 219.646231 
L 521.202617 283.770344 
L 522.349907 283.770344 
L 523.497196 293.069765 
L 524.644486 293.069765 
L 525.791776 293.069765 
L 526.939065 328.995065 
L 528.086355 328.995065 
L 529.233645 328.995065 
L 530.380935 351.485463 
L 531.528224 306.504667 
L 532.675514 272.24279 
L 533.822804 272.24279 
L 534.970093 272.24279 
L 536.117383 272.24279 
L 537.264673 272.24279 
L 538.411963 272.24279 
L 539.559252 272.24279 
L 540.706542 272.24279 
L 541.853832 272.24279 
L 543.001121 201.880264 
L 544.148411 201.880264 
L 545.295701 272.24279 
L 546.442991 227.065222 
L 547.59028 227.065222 
L 548.73757 234.870926 
L 549.88486 242.243943 
L 551.03215 212.282867 
L 552.179439 212.282867 
L 553.326729 212.282867 
L 554.474019 212.282867 
L 555.621308 212.282867 
L 556.768598 212.282867 
L 557.915888 212.282867 
L 559.063178 222.931503 
L 560.210467 222.931503 
L 561.357757 222.931503 
L 562.505047 220.617399 
L 563.652336 220.617399 
L 564.799626 220.617399 
L 565.946916 220.617399 
L 567.094206 232.940508 
L 568.241495 232.940508 
L 569.388785 232.940508 
L 570.536075 237.656186 
L 571.683364 215.877889 
L 572.830654 215.877889 
L 573.977944 215.877889 
L 575.125234 215.877889 
L 576.272523 215.877889 
L 577.419813 215.877889 
L 578.567103 236.450333 
L 579.714393 236.450333 
L 580.861682 205.822845 
L 582.008972 205.822845 
L 583.156262 205.018262 
L 584.303551 205.018262 
L 585.450841 205.018262 
L 586.598131 205.018262 
L 587.745421 223.944623 
L 588.89271 223.944623 
L 590.04 223.944623 
L 591.18729 223.944623 
L 592.334579 223.944623 
L 593.481869 223.944623 
L 594.629159 223.944623 
L 595.776449 223.944623 
L 596.923738 226.011121 
L 598.071028 226.011121 
L 599.218318 226.011121 
L 600.365607 226.011121 
L 601.512897 232.181493 
L 602.660187 232.181493 
L 603.807477 188.05511 
L 604.954766 188.05511 
L 606.102056 188.05511 
L 607.249346 188.05511 
L 608.396636 186.776967 
L 609.543925 170.096435 
L 610.691215 170.096435 
L 611.838505 170.096435 
L 612.985794 170.096435 
L 614.133084 170.096435 
L 615.280374 170.096435 
L 616.427664 166.918711 
L 617.574953 166.918711 
L 618.722243 166.918711 
L 619.869533 166.918711 
L 621.016822 166.918711 
L 622.164112 166.918711 
L 623.311402 166.918711 
L 624.458692 166.918711 
L 625.605981 168.40786 
L 626.753271 168.40786 
L 627.900561 168.40786 
L 629.04785 168.40786 
L 630.19514 168.40786 
L 631.34243 176.496385 
L 632.48972 198.127001 
L 633.637009 245.758151 
L 634.784299 245.758151 
L 635.931589 245.758151 
L 637.078879 245.758151 
L 638.226168 245.758151 
L 639.373458 245.758151 
L 640.520748 240.125169 
L 641.668037 240.125169 
L 642.815327 199.110384 
L 643.962617 199.110384 
L 645.109907 199.110384 
L 646.257196 199.110384 
L 647.404486 199.110384 
L 648.551776 173.230938 
L 649.699065 173.230938 
L 650.846355 173.230938 
L 651.993645 188.05511 
L 653.140935 188.05511 
L 654.288224 188.05511 
L 655.435514 188.05511 
L 656.582804 188.05511 
L 657.730093 173.230938 
L 658.877383 174.304336 
L 660.024673 174.304336 
L 661.171963 174.304336 
L 662.319252 174.304336 
L 663.466542 153.268454 
L 664.613832 158.387385 
L 665.761121 158.387385 
L 666.908411 142.485904 
L 668.055701 142.485904 
L 669.202991 142.485904 
L 670.35028 142.485904 
L 671.49757 134.838786 
L 672.64486 134.838786 
L 673.79215 134.838786 
L 674.939439 124.182413 
L 676.086729 124.182413 
L 677.234019 124.182413 
L 678.381308 124.182413 
L 679.528598 104.272062 
L 680.675888 104.272062 
L 681.823178 104.272062 
L 682.970467 94.86 
L 684.117757 94.86 
L 685.265047 94.86 
L 686.412336 94.86 
L 687.559626 94.86 
L 688.706916 94.86 
L 689.854206 94.86 
L 691.001495 99.979421 
L 692.148785 99.979421 
L 693.296075 99.979421 
L 694.443364 99.979421 
L 695.590654 105.159617 
L 696.737944 105.159617 
L 697.885234 98.531001 
L 699.032523 105.159617 
L 700.179813 105.159617 
L 701.327103 105.159617 
L 702.474393 98.531001 
L 703.621682 98.531001 
L 704.768972 99.14847 
L 705.916262 99.14847 
L 707.063551 104.272062 
L 708.210841 104.272062 
L 709.358131 104.272062 
L 710.505421 104.272062 
L 711.65271 104.272062 
L 712.8 98.942104 
L 712.8 180480.478538 
L 712.8 180480.478538 
L 711.65271 180480.478538 
L 710.505421 180480.478538 
L 709.358131 180480.478538 
L 708.210841 180480.478538 
L 707.063551 180480.478538 
L 705.916262 180480.478538 
L 704.768972 180480.478538 
L 703.621682 180480.478538 
L 702.474393 180480.478538 
L 701.327103 180480.478538 
L 700.179813 180480.478538 
L 699.032523 180480.478538 
L 697.885234 180480.478538 
L 696.737944 180480.478538 
L 695.590654 180480.478538 
L 694.443364 180480.478538 
L 693.296075 180480.478538 
L 692.148785 180480.478538 
L 691.001495 180480.478538 
L 689.854206 180480.478538 
L 688.706916 180480.478538 
L 687.559626 180480.478538 
L 686.412336 180480.478538 
L 685.265047 180480.478538 
L 684.117757 180480.478538 
L 682.970467 180480.478538 
L 681.823178 180480.478538 
L 680.675888 180480.478538 
L 679.528598 180480.478538 
L 678.381308 180480.478538 
L 677.234019 180480.478538 
L 676.086729 180480.478538 
L 674.939439 180480.478538 
L 673.79215 180480.478538 
L 672.64486 180480.478538 
L 671.49757 180480.478538 
L 670.35028 180480.478538 
L 669.202991 180480.478538 
L 668.055701 180480.478538 
L 666.908411 180480.478538 
L 665.761121 180480.478538 
L 664.613832 180480.478538 
L 663.466542 180480.478538 
L 662.319252 180480.478538 
L 661.171963 180480.478538 
L 660.024673 180480.478538 
L 658.877383 180480.478538 
L 657.730093 180480.478538 
L 656.582804 180480.478538 
L 655.435514 180480.478538 
L 654.288224 180480.478538 
L 653.140935 180480.478538 
L 651.993645 180480.478538 
L 650.846355 180480.478538 
L 649.699065 180480.478538 
L 648.551776 180480.478538 
L 647.404486 180480.478538 
L 646.257196 180480.478538 
L 645.109907 180480.478538 
L 643.962617 180480.478538 
L 642.815327 180480.478538 
L 641.668037 180480.478538 
L 640.520748 180480.478538 
L 639.373458 180480.478538 
L 638.226168 180480.478538 
L 637.078879 180480.478538 
L 635.931589 180480.478538 
L 634.784299 180480.478538 
L 633.637009 180480.478538 
L 632.48972 180480.478538 
L 631.34243 180480.478538 
L 630.19514 180480.478538 
L 629.04785 180480.478538 
L 627.900561 180480.478538 
L 626.753271 180480.478538 
L 625.605981 180480.478538 
L 624.458692 180480.478538 
L 623.311402 180480.478538 
L 622.164112 180480.478538 
L 621.016822 180480.478538 
L 619.869533 180480.478538 
L 618.722243 180480.478538 
L 617.574953 180480.478538 
L 616.427664 180480.478538 
L 615.280374 180480.478538 
L 614.133084 180480.478538 
L 612.985794 180480.478538 
L 611.838505 180480.478538 
L 610.691215 180480.478538 
L 609.543925 180480.478538 
L 608.396636 180480.478538 
L 607.249346 180480.478538 
L 606.102056 180480.478538 
L 604.954766 180480.478538 
L 603.807477 180480.478538 
L 602.660187 180480.478538 
L 601.512897 180480.478538 
L 600.365607 180480.478538 
L 599.218318 180480.478538 
L 598.071028 180480.478538 
L 596.923738 180480.478538 
L 595.776449 180480.478538 
L 594.629159 180480.478538 
L 593.481869 180480.478538 
L 592.334579 180480.478538 
L 591.18729 180480.478538 
L 590.04 180480.478538 
L 588.89271 180480.478538 
L 587.745421 180480.478538 
L 586.598131 180480.478538 
L 585.450841 180480.478538 
L 584.303551 180480.478538 
L 583.156262 180480.478538 
L 582.008972 180480.478538 
L 580.861682 180480.478538 
L 579.714393 180480.478538 
L 578.567103 180480.478538 
L 577.419813 180480.478538 
L 576.272523 180480.478538 
L 575.125234 180480.478538 
L 573.977944 180480.478538 
L 572.830654 180480.478538 
L 571.683364 180480.478538 
L 570.536075 180480.478538 
L 569.388785 180480.478538 
L 568.241495 180480.478538 
L 567.094206 180480.478538 
L 565.946916 180480.478538 
L 564.799626 180480.478538 
L 563.652336 180480.478538 
L 562.505047 180480.478538 
L 561.357757 180480.478538 
L 560.210467 180480.478538 
L 559.063178 180480.478538 
L 557.915888 180480.478538 
L 556.768598 180480.478538 
L 555.621308 180480.478538 
L 554.474019 180480.478538 
L 553.326729 180480.478538 
L 552.179439 180480.478538 
L 551.03215 180480.478538 
L 549.88486 180480.478538 
L 548.73757 180480.478538 
L 547.59028 180480.478538 
L 546.442991 180480.478538 
L 545.295701 180480.478538 
L 544.148411 180480.478538 
L 543.001121 180480.478538 
L 541.853832 180480.478538 
L 540.706542 180480.478538 
L 539.559252 180480.478538 
L 538.411963 180480.478538 
L 537.264673 180480.478538 
L 536.117383 180480.478538 
L 534.970093 180480.478538 
L 533.822804 180480.478538 
L 532.675514 180480.478538 
L 531.528224 180480.478538 
L 530.380935 180480.478538 
L 529.233645 180480.478538 
L 528.086355 180480.478538 
L 526.939065 180480.478538 
L 525.791776 180480.478538 
L 524.644486 180480.478538 
L 523.497196 180480.478538 
L 522.349907 180480.478538 
L 521.202617 180480.478538 
L 520.055327 180480.478538 
L 518.908037 180480.478538 
L 517.760748 180480.478538 
L 516.613458 180480.478538 
L 515.466168 180480.478538 
L 514.318879 180480.478538 
L 513.171589 180480.478538 
L 512.024299 180480.478538 
L 510.877009 180480.478538 
L 509.72972 180480.478538 
L 508.58243 180480.478538 
L 507.43514 180480.478538 
L 506.28785 180480.478538 
L 505.140561 180480.478538 
L 503.993271 180480.478538 
L 502.845981 180480.478538 
L 501.698692 180480.478538 
L 500.551402 180480.478538 
L 499.404112 180480.478538 
L 498.256822 180480.478538 
L 497.109533 180480.478538 
L 495.962243 180480.478538 
L 494.814953 180480.478538 
L 493.667664 180480.478538 
L 492.520374 180480.478538 
L 491.373084 180480.478538 
L 490.225794 180480.478538 
L 489.078505 180480.478538 
L 487.931215 180480.478538 
L 486.783925 180480.478538 
L 485.636636 180480.478538 
L 484.489346 180480.478538 
L 483.342056 180480.478538 
L 482.194766 180480.478538 
L 481.047477 180480.478538 
L 479.900187 180480.478538 
L 478.752897 180480.478538 
L 477.605607 368.930371 
L 476.458318 180480.478538 
L 475.311028 368.930371 
L 474.163738 368.930371 
L 473.016449 180480.478538 
L 471.869159 180480.478538 
L 470.721869 180480.478538 
L 469.574579 180480.478538 
L 468.42729 180480.478538 
L 467.28 180480.478538 
L 466.13271 180480.478538 
L 464.985421 180480.478538 
L 463.838131 180480.478538 
L 462.690841 180480.478538 
L 461.543551 180480.478538 
L 460.396262 180480.478538 
L 459.248972 180480.478538 
L 458.101682 180480.478538 
L 456.954393 180480.478538 
L 455.807103 180480.478538 
L 454.659813 180480.478538 
L 453.512523 180480.478538 
L 452.365234 180480.478538 
L 451.217944 180480.478538 
L 450.070654 180480.478538 
L 448.923364 180480.478538 
L 447.776075 180480.478538 
L 446.628785 180480.478538 
L 445.481495 180480.478538 
L 444.334206 180480.478538 
L 443.186916 180480.478538 
L 442.039626 180480.478538 
L 440.892336 180480.478538 
L 439.745047 180480.478538 
L 438.597757 180480.478538 
L 437.450467 180480.478538 
L 436.303178 180480.478538 
L 435.155888 180480.478538 
L 434.008598 180480.478538 
L 432.861308 180480.478538 
L 431.714019 180480.478538 
L 430.566729 180480.478538 
L 429.419439 297.29663 
L 428.27215 297.29663 
L 427.12486 297.29663 
L 425.97757 297.29663 
L 424.83028 297.29663 
L 423.682991 297.29663 
L 422.535701 297.29663 
L 421.388411 282.322563 
L 420.241121 297.29663 
L 419.093832 180480.478538 
L 417.946542 180480.478538 
L 416.799252 180480.478538 
L 415.651963 180480.478538 
L 414.504673 180480.478538 
L 413.357383 180480.478538 
L 412.210093 180480.478538 
L 411.062804 368.930371 
L 409.915514 180480.478538 
L 408.768224 180480.478538 
L 407.620935 180480.478538 
L 406.473645 180480.478538 
L 405.326355 180480.478538 
L 404.179065 180480.478538 
L 403.031776 180480.478538 
L 401.884486 180480.478538 
L 400.737196 391.420769 
L 399.589907 391.420769 
L 398.442617 391.420769 
L 397.295327 391.420769 
L 396.148037 180480.478538 
L 395.000748 180480.478538 
L 393.853458 391.420769 
L 392.706168 391.420769 
L 391.558879 391.420769 
L 390.411589 391.420769 
L 389.264299 180480.478538 
L 388.117009 180480.478538 
L 386.96972 180480.478538 
L 385.82243 180480.478538 
L 384.67514 180480.478538 
L 383.52785 180480.478538 
L 382.380561 180480.478538 
L 381.233271 180480.478538 
L 380.085981 180480.478538 
L 378.938692 180480.478538 
L 377.791402 180480.478538 
L 376.644112 180480.478538 
L 375.496822 180480.478538 
L 374.349533 180480.478538 
L 373.202243 180480.478538 
L 372.054953 180480.478538 
L 370.907664 180480.478538 
L 369.760374 180480.478538 
L 368.613084 180480.478538 
L 367.465794 180480.478538 
L 366.318505 180480.478538 
L 365.171215 180480.478538 
L 364.023925 180480.478538 
L 362.876636 180480.478538 
L 361.729346 180480.478538 
L 360.582056 180480.478538 
L 359.434766 180480.478538 
L 358.287477 180480.478538 
L 357.140187 180480.478538 
L 355.992897 180480.478538 
L 354.845607 180480.478538 
L 353.698318 180480.478538 
L 352.551028 180480.478538 
L 351.403738 180480.478538 
L 350.256449 180480.478538 
L 349.109159 180480.478538 
L 347.961869 180480.478538 
L 346.814579 180480.478538 
L 345.66729 180480.478538 
L 344.52 180480.478538 
L 343.37271 180480.478538 
L 342.225421 180480.478538 
L 341.078131 180480.478538 
L 339.930841 180480.478538 
L 338.783551 180480.478538 
L 337.636262 180480.478538 
L 336.488972 180480.478538 
L 335.341682 180480.478538 
L 334.194393 180480.478538 
L 333.047103 180480.478538 
L 331.899813 180480.478538 
L 330.752523 180480.478538 
L 329.605234 180480.478538 
L 328.457944 180480.478538 
L 327.310654 180480.478538 
L 326.163364 180480.478538 
L 325.016075 180480.478538 
L 323.868785 180480.478538 
L 322.721495 180480.478538 
L 321.574206 180480.478538 
L 320.426916 180480.478538 
L 319.279626 180480.478538 
L 318.132336 180480.478538 
L 316.985047 477.308037 
L 315.837757 477.308037 
L 314.690467 469.071167 
L 313.543178 477.308037 
L 312.395888 477.308037 
L 311.248598 469.071167 
L 310.101308 469.071167 
L 308.954019 469.071167 
L 307.806729 366.788375 
L 306.659439 366.788375 
L 305.51215 366.788375 
L 304.36486 366.788375 
L 303.21757 469.071167 
L 302.07028 366.788375 
L 300.922991 366.788375 
L 299.775701 366.788375 
L 298.628411 477.308037 
L 297.481121 366.788375 
L 296.333832 366.788375 
L 295.186542 344.827999 
L 294.039252 343.248593 
L 292.891963 267.949588 
L 291.744673 266.765051 
L 290.597383 325.18075 
L 289.450093 266.765051 
L 288.302804 266.765051 
L 287.155514 266.765051 
L 286.008224 266.765051 
L 284.860935 243.981302 
L 283.713645 243.981302 
L 282.566355 243.981302 
L 281.419065 318.068761 
L 280.271776 318.068761 
L 279.124486 318.068761 
L 277.977196 318.068761 
L 276.829907 318.068761 
L 275.682617 337.231935 
L 274.535327 262.198617 
L 273.388037 262.198617 
L 272.240748 337.231935 
L 271.093458 292.25114 
L 269.946168 337.231935 
L 268.798879 337.231935 
L 267.651589 337.231935 
L 266.504299 337.231935 
L 265.357009 305.5335 
L 264.20972 337.231935 
L 263.06243 337.231935 
L 261.91514 180480.478538 
L 260.76785 180480.478538 
L 259.620561 180480.478538 
L 258.473271 180480.478538 
L 257.325981 180480.478538 
L 256.178692 337.231935 
L 255.031402 337.231935 
L 253.884112 328.995065 
L 252.736822 328.995065 
L 251.589533 328.995065 
L 250.442243 292.25114 
L 249.294953 285.245444 
L 248.147664 283.043102 
L 247.000374 283.043102 
L 245.853084 283.043102 
L 244.705794 299.946984 
L 243.558505 299.946984 
L 242.411215 328.995065 
L 241.263925 328.995065 
L 240.116636 328.995065 
L 238.969346 331.645419 
L 237.822056 331.645419 
L 236.674766 362.672795 
L 235.527477 385.834252 
L 234.380187 418.892339 
L 233.232897 477.308037 
L 232.085607 477.308037 
L 230.938318 477.308037 
L 229.791028 477.308037 
L 228.643738 180480.478538 
L 227.496449 180480.478538 
L 226.349159 180480.478538 
L 225.201869 180480.478538 
L 224.054579 180480.478538 
L 222.90729 180480.478538 
L 221.76 180480.478538 
L 220.61271 180480.478538 
L 219.465421 180480.478538 
L 218.318131 180480.478538 
L 217.170841 180480.478538 
L 216.023551 180480.478538 
L 214.876262 180480.478538 
L 213.728972 180480.478538 
L 212.581682 180480.478538 
L 211.434393 180480.478538 
L 210.287103 180480.478538 
L 209.139813 180480.478538 
L 207.992523 180480.478538 
L 206.845234 180480.478538 
L 205.697944 180480.478538 
L 204.550654 180480.478538 
L 203.403364 180480.478538 
L 202.256075 180480.478538 
L 201.108785 180480.478538 
L 199.961495 180480.478538 
L 198.814206 180480.478538 
L 197.666916 180480.478538 
L 196.519626 180480.478538 
L 195.372336 180480.478538 
L 194.225047 180480.478538 
L 193.077757 180480.478538 
L 191.930467 180480.478538 
L 190.783178 180480.478538 
L 189.635888 180480.478538 
L 188.488598 180480.478538 
L 187.341308 180480.478538 
L 186.194019 180480.478538 
L 185.046729 180480.478538 
L 183.899439 180480.478538 
L 182.75215 180480.478538 
L 181.60486 180480.478538 
L 180.45757 180480.478538 
L 179.31028 180480.478538 
L 178.162991 180480.478538 
L 177.015701 180480.478538 
L 175.868411 180480.478538 
L 174.721121 180480.478538 
L 173.573832 180480.478538 
L 172.426542 180480.478538 
L 171.279252 180480.478538 
L 170.131963 180480.478538 
L 168.984673 180480.478538 
L 167.837383 180480.478538 
L 166.690093 180480.478538 
L 165.542804 180480.478538 
L 164.395514 180480.478538 
L 163.248224 180480.478538 
L 162.100935 180480.478538 
L 160.953645 180480.478538 
L 159.806355 180480.478538 
L 158.659065 180480.478538 
L 157.511776 180480.478538 
L 156.364486 180480.478538 
L 155.217196 180480.478538 
L 154.069907 180480.478538 
L 152.922617 180480.478538 
L 151.775327 180480.478538 
L 150.628037 180480.478538 
L 149.480748 180480.478538 
L 148.333458 180480.478538 
L 147.186168 180480.478538 
L 146.038879 180480.478538 
L 144.891589 180480.478538 
L 143.744299 180480.478538 
L 142.597009 180480.478538 
L 141.44972 180480.478538 
L 140.30243 180480.478538 
L 139.15514 180480.478538 
L 138.00785 180480.478538 
L 136.860561 180480.478538 
L 135.713271 180480.478538 
L 134.565981 180480.478538 
L 133.418692 180480.478538 
L 132.271402 180480.478538 
L 131.124112 477.308037 
L 129.976822 477.308037 
L 128.829533 477.308037 
L 127.682243 180480.478538 
L 126.534953 180480.478538 
L 125.387664 180480.478538 
L 124.240374 180480.478538 
L 123.093084 180480.478538 
L 121.945794 180480.478538 
L 120.798505 180480.478538 
L 119.651215 180480.478538 
L 118.503925 180480.478538 
L 117.356636 180480.478538 
L 116.209346 180480.478538 
L 115.062056 180480.478538 
L 113.914766 180480.478538 
L 112.767477 180480.478538 
L 111.620187 180480.478538 
L 110.472897 180480.478538 
L 109.325607 180480.478538 
L 108.178318 180480.478538 
L 107.031028 180480.478538 
L 105.883738 180480.478538 
L 104.736449 180480.478538 
L 103.589159 180480.478538 
L 102.441869 180480.478538 
L 101.294579 180480.478538 
L 100.14729 180480.478538 
L 99 180480.478538 
z
" style="fill:#8080ff;fill-opacity:0.5;stroke:#8080ff;stroke-opacity:0.5;"/>
   </g>
   <g id="PolyCollection_2">
    <path clip-path="url(#p68e2955192)" d="M 99 180480.478538 
L 99 180480.478538 
L 100.14729 180480.478538 
L 101.294579 180480.478538 
L 102.441869 180480.478538 
L 103.589159 180480.478538 
L 104.736449 180480.478538 
L 105.883738 180480.478538 
L 107.031028 180480.478538 
L 108.178318 180480.478538 
L 109.325607 180480.478538 
L 110.472897 180480.478538 
L 111.620187 180480.478538 
L 112.767477 180480.478538 
L 113.914766 180480.478538 
L 115.062056 180480.478538 
L 116.209346 180480.478538 
L 117.356636 180480.478538 
L 118.503925 180480.478538 
L 119.651215 180480.478538 
L 120.798505 180480.478538 
L 121.945794 180480.478538 
L 123.093084 180480.478538 
L 124.240374 180480.478538 
L 125.387664 180480.478538 
L 126.534953 180480.478538 
L 127.682243 180480.478538 
L 128.829533 180480.478538 
L 129.976822 180480.478538 
L 131.124112 180480.478538 
L 132.271402 180480.478538 
L 133.418692 180480.478538 
L 134.565981 180480.478538 
L 135.713271 180480.478538 
L 136.860561 496.955287 
L 138.00785 469.071167 
L 139.15514 469.071167 
L 140.30243 469.071167 
L 141.44972 496.955287 
L 142.597009 496.955287 
L 143.744299 496.955287 
L 144.891589 496.955287 
L 146.038879 496.955287 
L 147.186168 469.071167 
L 148.333458 469.071167 
L 149.480748 469.071167 
L 150.628037 469.071167 
L 151.775327 469.071167 
L 152.922617 496.955287 
L 154.069907 180480.478538 
L 155.217196 180480.478538 
L 156.364486 180480.478538 
L 157.511776 180480.478538 
L 158.659065 180480.478538 
L 159.806355 180480.478538 
L 160.953645 180480.478538 
L 162.100935 180480.478538 
L 163.248224 180480.478538 
L 164.395514 180480.478538 
L 165.542804 496.955287 
L 166.690093 496.955287 
L 167.837383 496.955287 
L 168.984673 496.955287 
L 170.131963 496.955287 
L 171.279252 496.955287 
L 172.426542 496.955287 
L 173.573832 496.955287 
L 174.721121 496.955287 
L 175.868411 496.955287 
L 177.015701 496.955287 
L 178.162991 496.955287 
L 179.31028 496.955287 
L 180.45757 180480.478538 
L 181.60486 180480.478538 
L 182.75215 180480.478538 
L 183.899439 180480.478538 
L 185.046729 180480.478538 
L 186.194019 180480.478538 
L 187.341308 180480.478538 
L 188.488598 180480.478538 
L 189.635888 180480.478538 
L 190.783178 180480.478538 
L 191.930467 180480.478538 
L 193.077757 180480.478538 
L 194.225047 180480.478538 
L 195.372336 180480.478538 
L 196.519626 180480.478538 
L 197.666916 180480.478538 
L 198.814206 180480.478538 
L 199.961495 180480.478538 
L 201.108785 180480.478538 
L 202.256075 180480.478538 
L 203.403364 180480.478538 
L 204.550654 180480.478538 
L 205.697944 180480.478538 
L 206.845234 180480.478538 
L 207.992523 180480.478538 
L 209.139813 180480.478538 
L 210.287103 180480.478538 
L 211.434393 180480.478538 
L 212.581682 180480.478538 
L 213.728972 180480.478538 
L 214.876262 180480.478538 
L 216.023551 180480.478538 
L 217.170841 180480.478538 
L 218.318131 180480.478538 
L 219.465421 180480.478538 
L 220.61271 180480.478538 
L 221.76 180480.478538 
L 222.90729 180480.478538 
L 224.054579 180480.478538 
L 225.201869 180480.478538 
L 226.349159 180480.478538 
L 227.496449 180480.478538 
L 228.643738 180480.478538 
L 229.791028 180480.478538 
L 230.938318 180480.478538 
L 232.085607 180480.478538 
L 233.232897 180480.478538 
L 234.380187 180480.478538 
L 235.527477 180480.478538 
L 236.674766 180480.478538 
L 237.822056 180480.478538 
L 238.969346 180480.478538 
L 240.116636 180480.478538 
L 241.263925 180480.478538 
L 242.411215 180480.478538 
L 243.558505 180480.478538 
L 244.705794 180480.478538 
L 245.853084 180480.478538 
L 247.000374 180480.478538 
L 248.147664 180480.478538 
L 249.294953 180480.478538 
L 250.442243 180480.478538 
L 251.589533 180480.478538 
L 252.736822 180480.478538 
L 253.884112 180480.478538 
L 255.031402 180480.478538 
L 256.178692 496.955287 
L 257.325981 496.955287 
L 258.473271 496.955287 
L 259.620561 496.955287 
L 260.76785 496.955287 
L 261.91514 496.955287 
L 263.06243 496.955287 
L 264.20972 496.955287 
L 265.357009 496.955287 
L 266.504299 496.955287 
L 267.651589 496.955287 
L 268.798879 496.955287 
L 269.946168 496.955287 
L 271.093458 496.955287 
L 272.240748 180480.478538 
L 273.388037 180480.478538 
L 274.535327 180480.478538 
L 275.682617 180480.478538 
L 276.829907 180480.478538 
L 277.977196 180480.478538 
L 279.124486 180480.478538 
L 280.271776 180480.478538 
L 281.419065 180480.478538 
L 282.566355 180480.478538 
L 283.713645 180480.478538 
L 284.860935 496.955287 
L 286.008224 469.071167 
L 287.155514 469.071167 
L 288.302804 469.071167 
L 289.450093 469.071167 
L 290.597383 469.071167 
L 291.744673 469.071167 
L 292.891963 469.071167 
L 294.039252 469.071167 
L 295.186542 469.071167 
L 296.333832 469.071167 
L 297.481121 469.071167 
L 298.628411 469.071167 
L 299.775701 469.071167 
L 300.922991 469.071167 
L 302.07028 469.071167 
L 303.21757 469.071167 
L 304.36486 469.071167 
L 305.51215 469.071167 
L 306.659439 469.071167 
L 307.806729 469.071167 
L 308.954019 469.071167 
L 310.101308 469.071167 
L 311.248598 469.071167 
L 312.395888 469.071167 
L 313.543178 469.071167 
L 314.690467 469.071167 
L 315.837757 469.071167 
L 316.985047 496.955287 
L 318.132336 496.955287 
L 319.279626 180480.478538 
L 320.426916 180480.478538 
L 321.574206 180480.478538 
L 322.721495 180480.478538 
L 323.868785 180480.478538 
L 325.016075 180480.478538 
L 326.163364 180480.478538 
L 327.310654 180480.478538 
L 328.457944 180480.478538 
L 329.605234 180480.478538 
L 330.752523 180480.478538 
L 331.899813 180480.478538 
L 333.047103 180480.478538 
L 334.194393 180480.478538 
L 335.341682 180480.478538 
L 336.488972 180480.478538 
L 337.636262 180480.478538 
L 338.783551 180480.478538 
L 339.930841 180480.478538 
L 341.078131 180480.478538 
L 342.225421 180480.478538 
L 343.37271 180480.478538 
L 344.52 180480.478538 
L 345.66729 180480.478538 
L 346.814579 180480.478538 
L 347.961869 180480.478538 
L 349.109159 180480.478538 
L 350.256449 180480.478538 
L 351.403738 180480.478538 
L 352.551028 180480.478538 
L 353.698318 180480.478538 
L 354.845607 180480.478538 
L 355.992897 180480.478538 
L 357.140187 180480.478538 
L 358.287477 180480.478538 
L 359.434766 180480.478538 
L 360.582056 180480.478538 
L 361.729346 180480.478538 
L 362.876636 180480.478538 
L 364.023925 180480.478538 
L 365.171215 180480.478538 
L 366.318505 180480.478538 
L 367.465794 180480.478538 
L 368.613084 496.955287 
L 369.760374 496.955287 
L 370.907664 496.955287 
L 372.054953 496.955287 
L 373.202243 496.955287 
L 374.349533 496.955287 
L 375.496822 496.955287 
L 376.644112 496.955287 
L 377.791402 496.955287 
L 378.938692 496.955287 
L 380.085981 496.955287 
L 381.233271 496.955287 
L 382.380561 496.955287 
L 383.52785 180480.478538 
L 384.67514 180480.478538 
L 385.82243 180480.478538 
L 386.96972 180480.478538 
L 388.117009 180480.478538 
L 389.264299 180480.478538 
L 390.411589 180480.478538 
L 391.558879 180480.478538 
L 392.706168 180480.478538 
L 393.853458 180480.478538 
L 395.000748 180480.478538 
L 396.148037 180480.478538 
L 397.295327 180480.478538 
L 398.442617 180480.478538 
L 399.589907 180480.478538 
L 400.737196 180480.478538 
L 401.884486 180480.478538 
L 403.031776 180480.478538 
L 404.179065 180480.478538 
L 405.326355 180480.478538 
L 406.473645 180480.478538 
L 407.620935 180480.478538 
L 408.768224 180480.478538 
L 409.915514 180480.478538 
L 411.062804 180480.478538 
L 412.210093 180480.478538 
L 413.357383 180480.478538 
L 414.504673 180480.478538 
L 415.651963 180480.478538 
L 416.799252 180480.478538 
L 417.946542 180480.478538 
L 419.093832 180480.478538 
L 420.241121 180480.478538 
L 421.388411 180480.478538 
L 422.535701 180480.478538 
L 423.682991 180480.478538 
L 424.83028 180480.478538 
L 425.97757 180480.478538 
L 427.12486 180480.478538 
L 428.27215 180480.478538 
L 429.419439 180480.478538 
L 430.566729 180480.478538 
L 431.714019 180480.478538 
L 432.861308 180480.478538 
L 434.008598 180480.478538 
L 435.155888 180480.478538 
L 436.303178 180480.478538 
L 437.450467 180480.478538 
L 438.597757 180480.478538 
L 439.745047 180480.478538 
L 440.892336 180480.478538 
L 442.039626 180480.478538 
L 443.186916 180480.478538 
L 444.334206 180480.478538 
L 445.481495 180480.478538 
L 446.628785 180480.478538 
L 447.776075 180480.478538 
L 448.923364 180480.478538 
L 450.070654 180480.478538 
L 451.217944 180480.478538 
L 452.365234 180480.478538 
L 453.512523 180480.478538 
L 454.659813 180480.478538 
L 455.807103 180480.478538 
L 456.954393 180480.478538 
L 458.101682 180480.478538 
L 459.248972 180480.478538 
L 460.396262 180480.478538 
L 461.543551 180480.478538 
L 462.690841 180480.478538 
L 463.838131 180480.478538 
L 464.985421 180480.478538 
L 466.13271 180480.478538 
L 467.28 180480.478538 
L 468.42729 180480.478538 
L 469.574579 180480.478538 
L 470.721869 180480.478538 
L 471.869159 180480.478538 
L 473.016449 180480.478538 
L 474.163738 180480.478538 
L 475.311028 180480.478538 
L 476.458318 180480.478538 
L 477.605607 180480.478538 
L 478.752897 180480.478538 
L 479.900187 180480.478538 
L 481.047477 180480.478538 
L 482.194766 180480.478538 
L 483.342056 180480.478538 
L 484.489346 180480.478538 
L 485.636636 180480.478538 
L 486.783925 180480.478538 
L 487.931215 180480.478538 
L 489.078505 180480.478538 
L 490.225794 180480.478538 
L 491.373084 180480.478538 
L 492.520374 180480.478538 
L 493.667664 180480.478538 
L 494.814953 180480.478538 
L 495.962243 180480.478538 
L 497.109533 180480.478538 
L 498.256822 180480.478538 
L 499.404112 180480.478538 
L 500.551402 180480.478538 
L 501.698692 180480.478538 
L 502.845981 180480.478538 
L 503.993271 180480.478538 
L 505.140561 180480.478538 
L 506.28785 180480.478538 
L 507.43514 180480.478538 
L 508.58243 180480.478538 
L 509.72972 180480.478538 
L 510.877009 180480.478538 
L 512.024299 180480.478538 
L 513.171589 180480.478538 
L 514.318879 180480.478538 
L 515.466168 180480.478538 
L 516.613458 180480.478538 
L 517.760748 180480.478538 
L 518.908037 180480.478538 
L 520.055327 180480.478538 
L 521.202617 180480.478538 
L 522.349907 180480.478538 
L 523.497196 180480.478538 
L 524.644486 180480.478538 
L 525.791776 180480.478538 
L 526.939065 180480.478538 
L 528.086355 180480.478538 
L 529.233645 180480.478538 
L 530.380935 180480.478538 
L 531.528224 180480.478538 
L 532.675514 180480.478538 
L 533.822804 180480.478538 
L 534.970093 180480.478538 
L 536.117383 180480.478538 
L 537.264673 180480.478538 
L 538.411963 180480.478538 
L 539.559252 180480.478538 
L 540.706542 180480.478538 
L 541.853832 180480.478538 
L 543.001121 180480.478538 
L 544.148411 180480.478538 
L 545.295701 180480.478538 
L 546.442991 180480.478538 
L 547.59028 180480.478538 
L 548.73757 180480.478538 
L 549.88486 180480.478538 
L 551.03215 180480.478538 
L 552.179439 180480.478538 
L 553.326729 180480.478538 
L 554.474019 180480.478538 
L 555.621308 180480.478538 
L 556.768598 180480.478538 
L 557.915888 180480.478538 
L 559.063178 180480.478538 
L 560.210467 180480.478538 
L 561.357757 180480.478538 
L 562.505047 180480.478538 
L 563.652336 180480.478538 
L 564.799626 180480.478538 
L 565.946916 180480.478538 
L 567.094206 180480.478538 
L 568.241495 180480.478538 
L 569.388785 180480.478538 
L 570.536075 180480.478538 
L 571.683364 180480.478538 
L 572.830654 180480.478538 
L 573.977944 180480.478538 
L 575.125234 180480.478538 
L 576.272523 180480.478538 
L 577.419813 180480.478538 
L 578.567103 180480.478538 
L 579.714393 180480.478538 
L 580.861682 180480.478538 
L 582.008972 180480.478538 
L 583.156262 180480.478538 
L 584.303551 180480.478538 
L 585.450841 180480.478538 
L 586.598131 180480.478538 
L 587.745421 180480.478538 
L 588.89271 180480.478538 
L 590.04 180480.478538 
L 591.18729 180480.478538 
L 592.334579 180480.478538 
L 593.481869 180480.478538 
L 594.629159 180480.478538 
L 595.776449 180480.478538 
L 596.923738 180480.478538 
L 598.071028 180480.478538 
L 599.218318 180480.478538 
L 600.365607 180480.478538 
L 601.512897 180480.478538 
L 602.660187 180480.478538 
L 603.807477 180480.478538 
L 604.954766 180480.478538 
L 606.102056 180480.478538 
L 607.249346 180480.478538 
L 608.396636 180480.478538 
L 609.543925 180480.478538 
L 610.691215 180480.478538 
L 611.838505 180480.478538 
L 612.985794 180480.478538 
L 614.133084 180480.478538 
L 615.280374 180480.478538 
L 616.427664 180480.478538 
L 617.574953 180480.478538 
L 618.722243 180480.478538 
L 619.869533 180480.478538 
L 621.016822 180480.478538 
L 622.164112 180480.478538 
L 623.311402 180480.478538 
L 624.458692 496.955287 
L 625.605981 496.955287 
L 626.753271 496.955287 
L 627.900561 496.955287 
L 629.04785 496.955287 
L 630.19514 496.955287 
L 631.34243 496.955287 
L 632.48972 496.955287 
L 633.637009 496.955287 
L 634.784299 496.955287 
L 635.931589 496.955287 
L 637.078879 496.955287 
L 638.226168 496.955287 
L 639.373458 496.955287 
L 640.520748 180480.478538 
L 641.668037 180480.478538 
L 642.815327 180480.478538 
L 643.962617 180480.478538 
L 645.109907 180480.478538 
L 646.257196 180480.478538 
L 647.404486 180480.478538 
L 648.551776 180480.478538 
L 649.699065 180480.478538 
L 650.846355 180480.478538 
L 651.993645 180480.478538 
L 653.140935 180480.478538 
L 654.288224 180480.478538 
L 655.435514 180480.478538 
L 656.582804 180480.478538 
L 657.730093 180480.478538 
L 658.877383 180480.478538 
L 660.024673 180480.478538 
L 661.171963 180480.478538 
L 662.319252 180480.478538 
L 663.466542 180480.478538 
L 664.613832 180480.478538 
L 665.761121 180480.478538 
L 666.908411 180480.478538 
L 668.055701 180480.478538 
L 669.202991 180480.478538 
L 670.35028 180480.478538 
L 671.49757 180480.478538 
L 672.64486 180480.478538 
L 673.79215 180480.478538 
L 674.939439 496.955287 
L 676.086729 496.955287 
L 677.234019 496.955287 
L 678.381308 496.955287 
L 679.528598 469.071167 
L 680.675888 427.587732 
L 681.823178 427.587732 
L 682.970467 469.071167 
L 684.117757 469.071167 
L 685.265047 469.071167 
L 686.412336 469.071167 
L 687.559626 469.071167 
L 688.706916 469.071167 
L 689.854206 469.071167 
L 691.001495 469.071167 
L 692.148785 469.071167 
L 693.296075 469.071167 
L 694.443364 469.071167 
L 695.590654 469.071167 
L 696.737944 496.955287 
L 697.885234 496.955287 
L 699.032523 496.955287 
L 700.179813 496.955287 
L 701.327103 496.955287 
L 702.474393 469.071167 
L 703.621682 469.071167 
L 704.768972 400.628806 
L 705.916262 400.628806 
L 707.063551 400.628806 
L 708.210841 391.420769 
L 709.358131 391.420769 
L 710.505421 391.420769 
L 711.65271 391.420769 
L 712.8 391.420769 
L 712.8 180480.478538 
L 712.8 180480.478538 
L 711.65271 180480.478538 
L 710.505421 180480.478538 
L 709.358131 180480.478538 
L 708.210841 180480.478538 
L 707.063551 180480.478538 
L 705.916262 180480.478538 
L 704.768972 180480.478538 
L 703.621682 180480.478538 
L 702.474393 180480.478538 
L 701.327103 180480.478538 
L 700.179813 180480.478538 
L 699.032523 180480.478538 
L 697.885234 180480.478538 
L 696.737944 180480.478538 
L 695.590654 180480.478538 
L 694.443364 180480.478538 
L 693.296075 180480.478538 
L 692.148785 180480.478538 
L 691.001495 180480.478538 
L 689.854206 180480.478538 
L 688.706916 180480.478538 
L 687.559626 180480.478538 
L 686.412336 180480.478538 
L 685.265047 180480.478538 
L 684.117757 180480.478538 
L 682.970467 180480.478538 
L 681.823178 180480.478538 
L 680.675888 180480.478538 
L 679.528598 180480.478538 
L 678.381308 180480.478538 
L 677.234019 180480.478538 
L 676.086729 180480.478538 
L 674.939439 180480.478538 
L 673.79215 180480.478538 
L 672.64486 180480.478538 
L 671.49757 180480.478538 
L 670.35028 180480.478538 
L 669.202991 180480.478538 
L 668.055701 180480.478538 
L 666.908411 180480.478538 
L 665.761121 180480.478538 
L 664.613832 180480.478538 
L 663.466542 180480.478538 
L 662.319252 180480.478538 
L 661.171963 180480.478538 
L 660.024673 180480.478538 
L 658.877383 180480.478538 
L 657.730093 180480.478538 
L 656.582804 180480.478538 
L 655.435514 180480.478538 
L 654.288224 180480.478538 
L 653.140935 180480.478538 
L 651.993645 180480.478538 
L 650.846355 180480.478538 
L 649.699065 180480.478538 
L 648.551776 180480.478538 
L 647.404486 180480.478538 
L 646.257196 180480.478538 
L 645.109907 180480.478538 
L 643.962617 180480.478538 
L 642.815327 180480.478538 
L 641.668037 180480.478538 
L 640.520748 180480.478538 
L 639.373458 180480.478538 
L 638.226168 180480.478538 
L 637.078879 180480.478538 
L 635.931589 180480.478538 
L 634.784299 180480.478538 
L 633.637009 180480.478538 
L 632.48972 180480.478538 
L 631.34243 180480.478538 
L 630.19514 180480.478538 
L 629.04785 180480.478538 
L 627.900561 180480.478538 
L 626.753271 180480.478538 
L 625.605981 180480.478538 
L 624.458692 180480.478538 
L 623.311402 180480.478538 
L 622.164112 180480.478538 
L 621.016822 180480.478538 
L 619.869533 180480.478538 
L 618.722243 180480.478538 
L 617.574953 180480.478538 
L 616.427664 180480.478538 
L 615.280374 180480.478538 
L 614.133084 180480.478538 
L 612.985794 180480.478538 
L 611.838505 180480.478538 
L 610.691215 180480.478538 
L 609.543925 180480.478538 
L 608.396636 180480.478538 
L 607.249346 180480.478538 
L 606.102056 180480.478538 
L 604.954766 180480.478538 
L 603.807477 180480.478538 
L 602.660187 180480.478538 
L 601.512897 180480.478538 
L 600.365607 180480.478538 
L 599.218318 180480.478538 
L 598.071028 180480.478538 
L 596.923738 180480.478538 
L 595.776449 180480.478538 
L 594.629159 180480.478538 
L 593.481869 180480.478538 
L 592.334579 180480.478538 
L 591.18729 180480.478538 
L 590.04 180480.478538 
L 588.89271 180480.478538 
L 587.745421 180480.478538 
L 586.598131 180480.478538 
L 585.450841 180480.478538 
L 584.303551 180480.478538 
L 583.156262 180480.478538 
L 582.008972 180480.478538 
L 580.861682 180480.478538 
L 579.714393 180480.478538 
L 578.567103 180480.478538 
L 577.419813 180480.478538 
L 576.272523 180480.478538 
L 575.125234 180480.478538 
L 573.977944 180480.478538 
L 572.830654 180480.478538 
L 571.683364 180480.478538 
L 570.536075 180480.478538 
L 569.388785 180480.478538 
L 568.241495 180480.478538 
L 567.094206 180480.478538 
L 565.946916 180480.478538 
L 564.799626 180480.478538 
L 563.652336 180480.478538 
L 562.505047 180480.478538 
L 561.357757 180480.478538 
L 560.210467 180480.478538 
L 559.063178 180480.478538 
L 557.915888 180480.478538 
L 556.768598 180480.478538 
L 555.621308 180480.478538 
L 554.474019 180480.478538 
L 553.326729 180480.478538 
L 552.179439 180480.478538 
L 551.03215 180480.478538 
L 549.88486 180480.478538 
L 548.73757 180480.478538 
L 547.59028 180480.478538 
L 546.442991 180480.478538 
L 545.295701 180480.478538 
L 544.148411 180480.478538 
L 543.001121 180480.478538 
L 541.853832 180480.478538 
L 540.706542 180480.478538 
L 539.559252 180480.478538 
L 538.411963 180480.478538 
L 537.264673 180480.478538 
L 536.117383 180480.478538 
L 534.970093 180480.478538 
L 533.822804 180480.478538 
L 532.675514 180480.478538 
L 531.528224 180480.478538 
L 530.380935 180480.478538 
L 529.233645 180480.478538 
L 528.086355 180480.478538 
L 526.939065 180480.478538 
L 525.791776 180480.478538 
L 524.644486 180480.478538 
L 523.497196 180480.478538 
L 522.349907 180480.478538 
L 521.202617 180480.478538 
L 520.055327 180480.478538 
L 518.908037 180480.478538 
L 517.760748 180480.478538 
L 516.613458 180480.478538 
L 515.466168 180480.478538 
L 514.318879 180480.478538 
L 513.171589 180480.478538 
L 512.024299 180480.478538 
L 510.877009 180480.478538 
L 509.72972 180480.478538 
L 508.58243 180480.478538 
L 507.43514 180480.478538 
L 506.28785 180480.478538 
L 505.140561 180480.478538 
L 503.993271 180480.478538 
L 502.845981 180480.478538 
L 501.698692 180480.478538 
L 500.551402 180480.478538 
L 499.404112 180480.478538 
L 498.256822 180480.478538 
L 497.109533 180480.478538 
L 495.962243 180480.478538 
L 494.814953 180480.478538 
L 493.667664 180480.478538 
L 492.520374 180480.478538 
L 491.373084 180480.478538 
L 490.225794 180480.478538 
L 489.078505 180480.478538 
L 487.931215 180480.478538 
L 486.783925 180480.478538 
L 485.636636 180480.478538 
L 484.489346 180480.478538 
L 483.342056 180480.478538 
L 482.194766 180480.478538 
L 481.047477 180480.478538 
L 479.900187 180480.478538 
L 478.752897 180480.478538 
L 477.605607 180480.478538 
L 476.458318 180480.478538 
L 475.311028 180480.478538 
L 474.163738 180480.478538 
L 473.016449 180480.478538 
L 471.869159 180480.478538 
L 470.721869 180480.478538 
L 469.574579 180480.478538 
L 468.42729 180480.478538 
L 467.28 180480.478538 
L 466.13271 180480.478538 
L 464.985421 180480.478538 
L 463.838131 180480.478538 
L 462.690841 180480.478538 
L 461.543551 180480.478538 
L 460.396262 180480.478538 
L 459.248972 180480.478538 
L 458.101682 180480.478538 
L 456.954393 180480.478538 
L 455.807103 180480.478538 
L 454.659813 180480.478538 
L 453.512523 180480.478538 
L 452.365234 180480.478538 
L 451.217944 180480.478538 
L 450.070654 180480.478538 
L 448.923364 180480.478538 
L 447.776075 180480.478538 
L 446.628785 180480.478538 
L 445.481495 180480.478538 
L 444.334206 180480.478538 
L 443.186916 180480.478538 
L 442.039626 180480.478538 
L 440.892336 180480.478538 
L 439.745047 180480.478538 
L 438.597757 180480.478538 
L 437.450467 180480.478538 
L 436.303178 180480.478538 
L 435.155888 180480.478538 
L 434.008598 180480.478538 
L 432.861308 180480.478538 
L 431.714019 180480.478538 
L 430.566729 180480.478538 
L 429.419439 180480.478538 
L 428.27215 180480.478538 
L 427.12486 180480.478538 
L 425.97757 180480.478538 
L 424.83028 180480.478538 
L 423.682991 180480.478538 
L 422.535701 180480.478538 
L 421.388411 180480.478538 
L 420.241121 180480.478538 
L 419.093832 180480.478538 
L 417.946542 180480.478538 
L 416.799252 180480.478538 
L 415.651963 180480.478538 
L 414.504673 180480.478538 
L 413.357383 180480.478538 
L 412.210093 180480.478538 
L 411.062804 180480.478538 
L 409.915514 180480.478538 
L 408.768224 180480.478538 
L 407.620935 180480.478538 
L 406.473645 180480.478538 
L 405.326355 180480.478538 
L 404.179065 180480.478538 
L 403.031776 180480.478538 
L 401.884486 180480.478538 
L 400.737196 180480.478538 
L 399.589907 180480.478538 
L 398.442617 180480.478538 
L 397.295327 180480.478538 
L 396.148037 180480.478538 
L 395.000748 180480.478538 
L 393.853458 180480.478538 
L 392.706168 180480.478538 
L 391.558879 180480.478538 
L 390.411589 180480.478538 
L 389.264299 180480.478538 
L 388.117009 180480.478538 
L 386.96972 180480.478538 
L 385.82243 180480.478538 
L 384.67514 180480.478538 
L 383.52785 180480.478538 
L 382.380561 180480.478538 
L 381.233271 180480.478538 
L 380.085981 180480.478538 
L 378.938692 180480.478538 
L 377.791402 180480.478538 
L 376.644112 180480.478538 
L 375.496822 180480.478538 
L 374.349533 180480.478538 
L 373.202243 180480.478538 
L 372.054953 180480.478538 
L 370.907664 180480.478538 
L 369.760374 180480.478538 
L 368.613084 180480.478538 
L 367.465794 180480.478538 
L 366.318505 180480.478538 
L 365.171215 180480.478538 
L 364.023925 180480.478538 
L 362.876636 180480.478538 
L 361.729346 180480.478538 
L 360.582056 180480.478538 
L 359.434766 180480.478538 
L 358.287477 180480.478538 
L 357.140187 180480.478538 
L 355.992897 180480.478538 
L 354.845607 180480.478538 
L 353.698318 180480.478538 
L 352.551028 180480.478538 
L 351.403738 180480.478538 
L 350.256449 180480.478538 
L 349.109159 180480.478538 
L 347.961869 180480.478538 
L 346.814579 180480.478538 
L 345.66729 180480.478538 
L 344.52 180480.478538 
L 343.37271 180480.478538 
L 342.225421 180480.478538 
L 341.078131 180480.478538 
L 339.930841 180480.478538 
L 338.783551 180480.478538 
L 337.636262 180480.478538 
L 336.488972 180480.478538 
L 335.341682 180480.478538 
L 334.194393 180480.478538 
L 333.047103 180480.478538 
L 331.899813 180480.478538 
L 330.752523 180480.478538 
L 329.605234 180480.478538 
L 328.457944 180480.478538 
L 327.310654 180480.478538 
L 326.163364 180480.478538 
L 325.016075 180480.478538 
L 323.868785 180480.478538 
L 322.721495 180480.478538 
L 321.574206 180480.478538 
L 320.426916 180480.478538 
L 319.279626 180480.478538 
L 318.132336 180480.478538 
L 316.985047 180480.478538 
L 315.837757 180480.478538 
L 314.690467 180480.478538 
L 313.543178 180480.478538 
L 312.395888 180480.478538 
L 311.248598 180480.478538 
L 310.101308 180480.478538 
L 308.954019 180480.478538 
L 307.806729 180480.478538 
L 306.659439 180480.478538 
L 305.51215 180480.478538 
L 304.36486 180480.478538 
L 303.21757 180480.478538 
L 302.07028 180480.478538 
L 300.922991 180480.478538 
L 299.775701 180480.478538 
L 298.628411 180480.478538 
L 297.481121 180480.478538 
L 296.333832 180480.478538 
L 295.186542 180480.478538 
L 294.039252 180480.478538 
L 292.891963 180480.478538 
L 291.744673 180480.478538 
L 290.597383 180480.478538 
L 289.450093 180480.478538 
L 288.302804 180480.478538 
L 287.155514 180480.478538 
L 286.008224 180480.478538 
L 284.860935 180480.478538 
L 283.713645 180480.478538 
L 282.566355 180480.478538 
L 281.419065 180480.478538 
L 280.271776 180480.478538 
L 279.124486 180480.478538 
L 277.977196 180480.478538 
L 276.829907 180480.478538 
L 275.682617 180480.478538 
L 274.535327 180480.478538 
L 273.388037 180480.478538 
L 272.240748 180480.478538 
L 271.093458 180480.478538 
L 269.946168 180480.478538 
L 268.798879 180480.478538 
L 267.651589 180480.478538 
L 266.504299 180480.478538 
L 265.357009 180480.478538 
L 264.20972 180480.478538 
L 263.06243 180480.478538 
L 261.91514 180480.478538 
L 260.76785 180480.478538 
L 259.620561 180480.478538 
L 258.473271 180480.478538 
L 257.325981 180480.478538 
L 256.178692 180480.478538 
L 255.031402 180480.478538 
L 253.884112 180480.478538 
L 252.736822 180480.478538 
L 251.589533 180480.478538 
L 250.442243 180480.478538 
L 249.294953 180480.478538 
L 248.147664 180480.478538 
L 247.000374 180480.478538 
L 245.853084 180480.478538 
L 244.705794 180480.478538 
L 243.558505 180480.478538 
L 242.411215 180480.478538 
L 241.263925 180480.478538 
L 240.116636 180480.478538 
L 238.969346 180480.478538 
L 237.822056 180480.478538 
L 236.674766 180480.478538 
L 235.527477 180480.478538 
L 234.380187 180480.478538 
L 233.232897 180480.478538 
L 232.085607 180480.478538 
L 230.938318 180480.478538 
L 229.791028 180480.478538 
L 228.643738 180480.478538 
L 227.496449 180480.478538 
L 226.349159 180480.478538 
L 225.201869 180480.478538 
L 224.054579 180480.478538 
L 222.90729 180480.478538 
L 221.76 180480.478538 
L 220.61271 180480.478538 
L 219.465421 180480.478538 
L 218.318131 180480.478538 
L 217.170841 180480.478538 
L 216.023551 180480.478538 
L 214.876262 180480.478538 
L 213.728972 180480.478538 
L 212.581682 180480.478538 
L 211.434393 180480.478538 
L 210.287103 180480.478538 
L 209.139813 180480.478538 
L 207.992523 180480.478538 
L 206.845234 180480.478538 
L 205.697944 180480.478538 
L 204.550654 180480.478538 
L 203.403364 180480.478538 
L 202.256075 180480.478538 
L 201.108785 180480.478538 
L 199.961495 180480.478538 
L 198.814206 180480.478538 
L 197.666916 180480.478538 
L 196.519626 180480.478538 
L 195.372336 180480.478538 
L 194.225047 180480.478538 
L 193.077757 180480.478538 
L 191.930467 180480.478538 
L 190.783178 180480.478538 
L 189.635888 180480.478538 
L 188.488598 180480.478538 
L 187.341308 180480.478538 
L 186.194019 180480.478538 
L 185.046729 180480.478538 
L 183.899439 180480.478538 
L 182.75215 180480.478538 
L 181.60486 180480.478538 
L 180.45757 180480.478538 
L 179.31028 180480.478538 
L 178.162991 180480.478538 
L 177.015701 180480.478538 
L 175.868411 180480.478538 
L 174.721121 180480.478538 
L 173.573832 180480.478538 
L 172.426542 180480.478538 
L 171.279252 180480.478538 
L 170.131963 180480.478538 
L 168.984673 180480.478538 
L 167.837383 180480.478538 
L 166.690093 180480.478538 
L 165.542804 180480.478538 
L 164.395514 180480.478538 
L 163.248224 180480.478538 
L 162.100935 180480.478538 
L 160.953645 180480.478538 
L 159.806355 180480.478538 
L 158.659065 180480.478538 
L 157.511776 180480.478538 
L 156.364486 180480.478538 
L 155.217196 180480.478538 
L 154.069907 180480.478538 
L 152.922617 180480.478538 
L 151.775327 180480.478538 
L 150.628037 180480.478538 
L 149.480748 180480.478538 
L 148.333458 180480.478538 
L 147.186168 180480.478538 
L 146.038879 180480.478538 
L 144.891589 180480.478538 
L 143.744299 180480.478538 
L 142.597009 180480.478538 
L 141.44972 180480.478538 
L 140.30243 180480.478538 
L 139.15514 180480.478538 
L 138.00785 180480.478538 
L 136.860561 180480.478538 
L 135.713271 180480.478538 
L 134.565981 180480.478538 
L 133.418692 180480.478538 
L 132.271402 180480.478538 
L 131.124112 180480.478538 
L 129.976822 180480.478538 
L 128.829533 180480.478538 
L 127.682243 180480.478538 
L 126.534953 180480.478538 
L 125.387664 180480.478538 
L 124.240374 180480.478538 
L 123.093084 180480.478538 
L 121.945794 180480.478538 
L 120.798505 180480.478538 
L 119.651215 180480.478538 
L 118.503925 180480.478538 
L 117.356636 180480.478538 
L 116.209346 180480.478538 
L 115.062056 180480.478538 
L 113.914766 180480.478538 
L 112.767477 180480.478538 
L 111.620187 180480.478538 
L 110.472897 180480.478538 
L 109.325607 180480.478538 
L 108.178318 180480.478538 
L 107.031028 180480.478538 
L 105.883738 180480.478538 
L 104.736449 180480.478538 
L 103.589159 180480.478538 
L 102.441869 180480.478538 
L 101.294579 180480.478538 
L 100.14729 180480.478538 
L 99 180480.478538 
z
" style="fill:#ff8080;fill-opacity:0.5;stroke:#ff8080;stroke-opacity:0.5;"/>
   </g>
   <g id="matplotlib.axis_1">
    <g id="xtick_1">
     <g id="line2d_1">
      <path clip-path="url(#p68e2955192)" d="M 99 544.68 
L 99 73.44 
" style="fill:none;stroke:#b0b0b0;stroke-linecap:square;stroke-width:0.8;"/>
     </g>
     <g id="line2d_2">
      <defs>
       <path d="M 0 0 
L 0 3.5 
" id="m4abed1d830" style="stroke:#000000;stroke-width:0.8;"/>
      </defs>
      <g>
       <use style="stroke:#000000;stroke-width:0.8;" x="99" xlink:href="#m4abed1d830" y="544.68"/>
      </g>
     </g>
    </g>
    <g id="xtick_2">
     <g id="line2d_3">
      <path clip-path="url(#p68e2955192)" d="M 119.651215 544.68 
L 119.651215 73.44 
" style="fill:none;stroke:#b0b0b0;stroke-linecap:square;stroke-width:0.8;"/>
     </g>
     <g id="line2d_4">
      <g>
       <use style="stroke:#000000;stroke-width:0.8;" x="119.651215" xlink:href="#m4abed1d830" y="544.68"/>
      </g>
     </g>
     <g id="text_1">
      <!-- Apr -->
      <g transform="translate(111.001215 559.278437)scale(0.1 -0.1)">
       <defs>
        <path d="M 2188 4044 
L 1331 1722 
L 3047 1722 
L 2188 4044 
z
M 1831 4666 
L 2547 4666 
L 4325 0 
L 3669 0 
L 3244 1197 
L 1141 1197 
L 716 0 
L 50 0 
L 1831 4666 
z
" id="DejaVuSans-41" transform="scale(0.015625)"/>
        <path d="M 1159 525 
L 1159 -1331 
L 581 -1331 
L 581 3500 
L 1159 3500 
L 1159 2969 
Q 1341 3281 1617 3432 
Q 1894 3584 2278 3584 
Q 2916 3584 3314 3078 
Q 3713 2572 3713 1747 
Q 3713 922 3314 415 
Q 2916 -91 2278 -91 
Q 1894 -91 1617 61 
Q 1341 213 1159 525 
z
M 3116 1747 
Q 3116 2381 2855 2742 
Q 2594 3103 2138 3103 
Q 1681 3103 1420 2742 
Q 1159 2381 1159 1747 
Q 1159 1113 1420 752 
Q 1681 391 2138 391 
Q 2594 391 2855 752 
Q 3116 1113 3116 1747 
z
" id="DejaVuSans-70" transform="scale(0.015625)"/>
        <path d="M 2631 2963 
Q 2534 3019 2420 3045 
Q 2306 3072 2169 3072 
Q 1681 3072 1420 2755 
Q 1159 2438 1159 1844 
L 1159 0 
L 581 0 
L 581 3500 
L 1159 3500 
L 1159 2956 
Q 1341 3275 1631 3429 
Q 1922 3584 2338 3584 
Q 2397 3584 2469 3576 
Q 2541 3569 2628 3553 
L 2631 2963 
z
" id="DejaVuSans-72" transform="scale(0.015625)"/>
       </defs>
       <use xlink:href="#DejaVuSans-41"/>
       <use x="68.408203" xlink:href="#DejaVuSans-70"/>
       <use x="131.884766" xlink:href="#DejaVuSans-72"/>
      </g>
     </g>
    </g>
    <g id="xtick_3">
     <g id="line2d_5">
      <path clip-path="url(#p68e2955192)" d="M 224.054579 544.68 
L 224.054579 73.44 
" style="fill:none;stroke:#b0b0b0;stroke-linecap:square;stroke-width:0.8;"/>
     </g>
     <g id="line2d_6">
      <g>
       <use style="stroke:#000000;stroke-width:0.8;" x="224.054579" xlink:href="#m4abed1d830" y="544.68"/>
      </g>
     </g>
     <g id="text_2">
      <!-- Jul -->
      <g transform="translate(218.021767 559.278437)scale(0.1 -0.1)">
       <defs>
        <path d="M 628 4666 
L 1259 4666 
L 1259 325 
Q 1259 -519 939 -900 
Q 619 -1281 -91 -1281 
L -331 -1281 
L -331 -750 
L -134 -750 
Q 284 -750 456 -515 
Q 628 -281 628 325 
L 628 4666 
z
" id="DejaVuSans-4a" transform="scale(0.015625)"/>
        <path d="M 544 1381 
L 544 3500 
L 1119 3500 
L 1119 1403 
Q 1119 906 1312 657 
Q 1506 409 1894 409 
Q 2359 409 2629 706 
Q 2900 1003 2900 1516 
L 2900 3500 
L 3475 3500 
L 3475 0 
L 2900 0 
L 2900 538 
Q 2691 219 2414 64 
Q 2138 -91 1772 -91 
Q 1169 -91 856 284 
Q 544 659 544 1381 
z
M 1991 3584 
L 1991 3584 
z
" id="DejaVuSans-75" transform="scale(0.015625)"/>
        <path d="M 603 4863 
L 1178 4863 
L 1178 0 
L 603 0 
L 603 4863 
z
" id="DejaVuSans-6c" transform="scale(0.015625)"/>
       </defs>
       <use xlink:href="#DejaVuSans-4a"/>
       <use x="29.492188" xlink:href="#DejaVuSans-75"/>
       <use x="92.871094" xlink:href="#DejaVuSans-6c"/>
      </g>
     </g>
    </g>
    <g id="xtick_4">
     <g id="line2d_7">
      <path clip-path="url(#p68e2955192)" d="M 329.605234 544.68 
L 329.605234 73.44 
" style="fill:none;stroke:#b0b0b0;stroke-linecap:square;stroke-width:0.8;"/>
     </g>
     <g id="line2d_8">
      <g>
       <use style="stroke:#000000;stroke-width:0.8;" x="329.605234" xlink:href="#m4abed1d830" y="544.68"/>
      </g>
     </g>
     <g id="text_3">
      <!-- Oct -->
      <g transform="translate(320.959921 559.278437)scale(0.1 -0.1)">
       <defs>
        <path d="M 2522 4238 
Q 1834 4238 1429 3725 
Q 1025 3213 1025 2328 
Q 1025 1447 1429 934 
Q 1834 422 2522 422 
Q 3209 422 3611 934 
Q 4013 1447 4013 2328 
Q 4013 3213 3611 3725 
Q 3209 4238 2522 4238 
z
M 2522 4750 
Q 3503 4750 4090 4092 
Q 4678 3434 4678 2328 
Q 4678 1225 4090 567 
Q 3503 -91 2522 -91 
Q 1538 -91 948 565 
Q 359 1222 359 2328 
Q 359 3434 948 4092 
Q 1538 4750 2522 4750 
z
" id="DejaVuSans-4f" transform="scale(0.015625)"/>
        <path d="M 3122 3366 
L 3122 2828 
Q 2878 2963 2633 3030 
Q 2388 3097 2138 3097 
Q 1578 3097 1268 2742 
Q 959 2388 959 1747 
Q 959 1106 1268 751 
Q 1578 397 2138 397 
Q 2388 397 2633 464 
Q 2878 531 3122 666 
L 3122 134 
Q 2881 22 2623 -34 
Q 2366 -91 2075 -91 
Q 1284 -91 818 406 
Q 353 903 353 1747 
Q 353 2603 823 3093 
Q 1294 3584 2113 3584 
Q 2378 3584 2631 3529 
Q 2884 3475 3122 3366 
z
" id="DejaVuSans-63" transform="scale(0.015625)"/>
        <path d="M 1172 4494 
L 1172 3500 
L 2356 3500 
L 2356 3053 
L 1172 3053 
L 1172 1153 
Q 1172 725 1289 603 
Q 1406 481 1766 481 
L 2356 481 
L 2356 0 
L 1766 0 
Q 1100 0 847 248 
Q 594 497 594 1153 
L 594 3053 
L 172 3053 
L 172 3500 
L 594 3500 
L 594 4494 
L 1172 4494 
z
" id="DejaVuSans-74" transform="scale(0.015625)"/>
       </defs>
       <use xlink:href="#DejaVuSans-4f"/>
       <use x="78.710938" xlink:href="#DejaVuSans-63"/>
       <use x="133.691406" xlink:href="#DejaVuSans-74"/>
      </g>
     </g>
    </g>
    <g id="xtick_5">
     <g id="line2d_9">
      <path clip-path="url(#p68e2955192)" d="M 435.155888 544.68 
L 435.155888 73.44 
" style="fill:none;stroke:#b0b0b0;stroke-linecap:square;stroke-width:0.8;"/>
     </g>
     <g id="line2d_10">
      <g>
       <use style="stroke:#000000;stroke-width:0.8;" x="435.155888" xlink:href="#m4abed1d830" y="544.68"/>
      </g>
     </g>
     <g id="text_4">
      <!-- Jan -->
      <g transform="translate(427.448075 559.278437)scale(0.1 -0.1)">
       <defs>
        <path d="M 2194 1759 
Q 1497 1759 1228 1600 
Q 959 1441 959 1056 
Q 959 750 1161 570 
Q 1363 391 1709 391 
Q 2188 391 2477 730 
Q 2766 1069 2766 1631 
L 2766 1759 
L 2194 1759 
z
M 3341 1997 
L 3341 0 
L 2766 0 
L 2766 531 
Q 2569 213 2275 61 
Q 1981 -91 1556 -91 
Q 1019 -91 701 211 
Q 384 513 384 1019 
Q 384 1609 779 1909 
Q 1175 2209 1959 2209 
L 2766 2209 
L 2766 2266 
Q 2766 2663 2505 2880 
Q 2244 3097 1772 3097 
Q 1472 3097 1187 3025 
Q 903 2953 641 2809 
L 641 3341 
Q 956 3463 1253 3523 
Q 1550 3584 1831 3584 
Q 2591 3584 2966 3190 
Q 3341 2797 3341 1997 
z
" id="DejaVuSans-61" transform="scale(0.015625)"/>
        <path d="M 3513 2113 
L 3513 0 
L 2938 0 
L 2938 2094 
Q 2938 2591 2744 2837 
Q 2550 3084 2163 3084 
Q 1697 3084 1428 2787 
Q 1159 2491 1159 1978 
L 1159 0 
L 581 0 
L 581 3500 
L 1159 3500 
L 1159 2956 
Q 1366 3272 1645 3428 
Q 1925 3584 2291 3584 
Q 2894 3584 3203 3211 
Q 3513 2838 3513 2113 
z
" id="DejaVuSans-6e" transform="scale(0.015625)"/>
       </defs>
       <use xlink:href="#DejaVuSans-4a"/>
       <use x="29.492188" xlink:href="#DejaVuSans-61"/>
       <use x="90.771484" xlink:href="#DejaVuSans-6e"/>
      </g>
      <!-- 2021 -->
      <g transform="translate(422.430888 570.47625)scale(0.1 -0.1)">
       <defs>
        <path d="M 1228 531 
L 3431 531 
L 3431 0 
L 469 0 
L 469 531 
Q 828 903 1448 1529 
Q 2069 2156 2228 2338 
Q 2531 2678 2651 2914 
Q 2772 3150 2772 3378 
Q 2772 3750 2511 3984 
Q 2250 4219 1831 4219 
Q 1534 4219 1204 4116 
Q 875 4013 500 3803 
L 500 4441 
Q 881 4594 1212 4672 
Q 1544 4750 1819 4750 
Q 2544 4750 2975 4387 
Q 3406 4025 3406 3419 
Q 3406 3131 3298 2873 
Q 3191 2616 2906 2266 
Q 2828 2175 2409 1742 
Q 1991 1309 1228 531 
z
" id="DejaVuSans-32" transform="scale(0.015625)"/>
        <path d="M 2034 4250 
Q 1547 4250 1301 3770 
Q 1056 3291 1056 2328 
Q 1056 1369 1301 889 
Q 1547 409 2034 409 
Q 2525 409 2770 889 
Q 3016 1369 3016 2328 
Q 3016 3291 2770 3770 
Q 2525 4250 2034 4250 
z
M 2034 4750 
Q 2819 4750 3233 4129 
Q 3647 3509 3647 2328 
Q 3647 1150 3233 529 
Q 2819 -91 2034 -91 
Q 1250 -91 836 529 
Q 422 1150 422 2328 
Q 422 3509 836 4129 
Q 1250 4750 2034 4750 
z
" id="DejaVuSans-30" transform="scale(0.015625)"/>
        <path d="M 794 531 
L 1825 531 
L 1825 4091 
L 703 3866 
L 703 4441 
L 1819 4666 
L 2450 4666 
L 2450 531 
L 3481 531 
L 3481 0 
L 794 0 
L 794 531 
z
" id="DejaVuSans-31" transform="scale(0.015625)"/>
       </defs>
       <use xlink:href="#DejaVuSans-32"/>
       <use x="63.623047" xlink:href="#DejaVuSans-30"/>
       <use x="127.246094" xlink:href="#DejaVuSans-32"/>
       <use x="190.869141" xlink:href="#DejaVuSans-31"/>
      </g>
     </g>
    </g>
    <g id="xtick_6">
     <g id="line2d_11">
      <path clip-path="url(#p68e2955192)" d="M 538.411963 544.68 
L 538.411963 73.44 
" style="fill:none;stroke:#b0b0b0;stroke-linecap:square;stroke-width:0.8;"/>
     </g>
     <g id="line2d_12">
      <g>
       <use style="stroke:#000000;stroke-width:0.8;" x="538.411963" xlink:href="#m4abed1d830" y="544.68"/>
      </g>
     </g>
     <g id="text_5">
      <!-- Apr -->
      <g transform="translate(529.761963 559.278437)scale(0.1 -0.1)">
       <use xlink:href="#DejaVuSans-41"/>
       <use x="68.408203" xlink:href="#DejaVuSans-70"/>
       <use x="131.884766" xlink:href="#DejaVuSans-72"/>
      </g>
     </g>
    </g>
    <g id="xtick_7">
     <g id="line2d_13">
      <path clip-path="url(#p68e2955192)" d="M 642.815327 544.68 
L 642.815327 73.44 
" style="fill:none;stroke:#b0b0b0;stroke-linecap:square;stroke-width:0.8;"/>
     </g>
     <g id="line2d_14">
      <g>
       <use style="stroke:#000000;stroke-width:0.8;" x="642.815327" xlink:href="#m4abed1d830" y="544.68"/>
      </g>
     </g>
     <g id="text_6">
      <!-- Jul -->
      <g transform="translate(636.782515 559.278437)scale(0.1 -0.1)">
       <use xlink:href="#DejaVuSans-4a"/>
       <use x="29.492188" xlink:href="#DejaVuSans-75"/>
       <use x="92.871094" xlink:href="#DejaVuSans-6c"/>
      </g>
     </g>
    </g>
    <g id="xtick_8">
     <g id="line2d_15">
      <path clip-path="url(#p68e2955192)" d="M 712.8 544.68 
L 712.8 73.44 
" style="fill:none;stroke:#b0b0b0;stroke-linecap:square;stroke-width:0.8;"/>
     </g>
     <g id="line2d_16">
      <g>
       <use style="stroke:#000000;stroke-width:0.8;" x="712.8" xlink:href="#m4abed1d830" y="544.68"/>
      </g>
     </g>
    </g>
    <g id="xtick_9">
     <g id="line2d_17">
      <defs>
       <path d="M 0 0 
L 0 2 
" id="mbe9820739d" style="stroke:#000000;stroke-width:0.6;"/>
      </defs>
      <g>
       <use style="stroke:#000000;stroke-width:0.6;" x="154.069907" xlink:href="#mbe9820739d" y="544.68"/>
      </g>
     </g>
    </g>
    <g id="xtick_10">
     <g id="line2d_18">
      <g>
       <use style="stroke:#000000;stroke-width:0.6;" x="189.635888" xlink:href="#mbe9820739d" y="544.68"/>
      </g>
     </g>
    </g>
    <g id="xtick_11">
     <g id="line2d_19">
      <g>
       <use style="stroke:#000000;stroke-width:0.6;" x="259.620561" xlink:href="#mbe9820739d" y="544.68"/>
      </g>
     </g>
    </g>
    <g id="xtick_12">
     <g id="line2d_20">
      <g>
       <use style="stroke:#000000;stroke-width:0.6;" x="295.186542" xlink:href="#mbe9820739d" y="544.68"/>
      </g>
     </g>
    </g>
    <g id="xtick_13">
     <g id="line2d_21">
      <g>
       <use style="stroke:#000000;stroke-width:0.6;" x="365.171215" xlink:href="#mbe9820739d" y="544.68"/>
      </g>
     </g>
    </g>
    <g id="xtick_14">
     <g id="line2d_22">
      <g>
       <use style="stroke:#000000;stroke-width:0.6;" x="399.589907" xlink:href="#mbe9820739d" y="544.68"/>
      </g>
     </g>
    </g>
    <g id="xtick_15">
     <g id="line2d_23">
      <g>
       <use style="stroke:#000000;stroke-width:0.6;" x="470.721869" xlink:href="#mbe9820739d" y="544.68"/>
      </g>
     </g>
    </g>
    <g id="xtick_16">
     <g id="line2d_24">
      <g>
       <use style="stroke:#000000;stroke-width:0.6;" x="502.845981" xlink:href="#mbe9820739d" y="544.68"/>
      </g>
     </g>
    </g>
    <g id="xtick_17">
     <g id="line2d_25">
      <g>
       <use style="stroke:#000000;stroke-width:0.6;" x="572.830654" xlink:href="#mbe9820739d" y="544.68"/>
      </g>
     </g>
    </g>
    <g id="xtick_18">
     <g id="line2d_26">
      <g>
       <use style="stroke:#000000;stroke-width:0.6;" x="608.396636" xlink:href="#mbe9820739d" y="544.68"/>
      </g>
     </g>
    </g>
    <g id="xtick_19">
     <g id="line2d_27">
      <g>
       <use style="stroke:#000000;stroke-width:0.6;" x="678.381308" xlink:href="#mbe9820739d" y="544.68"/>
      </g>
     </g>
    </g>
    <g id="text_7">
     <!-- Date -->
     <g transform="translate(393.949219 584.154375)scale(0.1 -0.1)">
      <defs>
       <path d="M 1259 4147 
L 1259 519 
L 2022 519 
Q 2988 519 3436 956 
Q 3884 1394 3884 2338 
Q 3884 3275 3436 3711 
Q 2988 4147 2022 4147 
L 1259 4147 
z
M 628 4666 
L 1925 4666 
Q 3281 4666 3915 4102 
Q 4550 3538 4550 2338 
Q 4550 1131 3912 565 
Q 3275 0 1925 0 
L 628 0 
L 628 4666 
z
" id="DejaVuSans-44" transform="scale(0.015625)"/>
       <path d="M 3597 1894 
L 3597 1613 
L 953 1613 
Q 991 1019 1311 708 
Q 1631 397 2203 397 
Q 2534 397 2845 478 
Q 3156 559 3463 722 
L 3463 178 
Q 3153 47 2828 -22 
Q 2503 -91 2169 -91 
Q 1331 -91 842 396 
Q 353 884 353 1716 
Q 353 2575 817 3079 
Q 1281 3584 2069 3584 
Q 2775 3584 3186 3129 
Q 3597 2675 3597 1894 
z
M 3022 2063 
Q 3016 2534 2758 2815 
Q 2500 3097 2075 3097 
Q 1594 3097 1305 2825 
Q 1016 2553 972 2059 
L 3022 2063 
z
" id="DejaVuSans-65" transform="scale(0.015625)"/>
      </defs>
      <use xlink:href="#DejaVuSans-44"/>
      <use x="77.001953" xlink:href="#DejaVuSans-61"/>
      <use x="138.28125" xlink:href="#DejaVuSans-74"/>
      <use x="177.490234" xlink:href="#DejaVuSans-65"/>
     </g>
    </g>
   </g>
   <g id="matplotlib.axis_2">
    <g id="ytick_1">
     <g id="line2d_28">
      <path clip-path="url(#p68e2955192)" d="M 99 469.071167 
L 712.8 469.071167 
" style="fill:none;stroke:#b0b0b0;stroke-linecap:square;stroke-width:0.8;"/>
     </g>
     <g id="line2d_29">
      <defs>
       <path d="M 0 0 
L -3.5 0 
" id="me91a084207" style="stroke:#000000;stroke-width:0.8;"/>
      </defs>
      <g>
       <use style="stroke:#000000;stroke-width:0.8;" x="99" xlink:href="#me91a084207" y="469.071167"/>
      </g>
     </g>
     <g id="text_8">
      <!-- $\mathdefault{10^{0}}$ -->
      <g transform="translate(74.4 472.870386)scale(0.1 -0.1)">
       <use transform="translate(0 0.765625)" xlink:href="#DejaVuSans-31"/>
       <use transform="translate(63.623047 0.765625)" xlink:href="#DejaVuSans-30"/>
       <use transform="translate(128.203125 39.046875)scale(0.7)" xlink:href="#DejaVuSans-30"/>
      </g>
     </g>
    </g>
    <g id="ytick_2">
     <g id="line2d_30">
      <path clip-path="url(#p68e2955192)" d="M 99 289.059759 
L 712.8 289.059759 
" style="fill:none;stroke:#b0b0b0;stroke-linecap:square;stroke-width:0.8;"/>
     </g>
     <g id="line2d_31">
      <g>
       <use style="stroke:#000000;stroke-width:0.8;" x="99" xlink:href="#me91a084207" y="289.059759"/>
      </g>
     </g>
     <g id="text_9">
      <!-- $\mathdefault{10^{1}}$ -->
      <g transform="translate(74.4 292.858978)scale(0.1 -0.1)">
       <use transform="translate(0 0.684375)" xlink:href="#DejaVuSans-31"/>
       <use transform="translate(63.623047 0.684375)" xlink:href="#DejaVuSans-30"/>
       <use transform="translate(128.203125 38.965625)scale(0.7)" xlink:href="#DejaVuSans-31"/>
      </g>
     </g>
    </g>
    <g id="ytick_3">
     <g id="line2d_32">
      <path clip-path="url(#p68e2955192)" d="M 99 109.048352 
L 712.8 109.048352 
" style="fill:none;stroke:#b0b0b0;stroke-linecap:square;stroke-width:0.8;"/>
     </g>
     <g id="line2d_33">
      <g>
       <use style="stroke:#000000;stroke-width:0.8;" x="99" xlink:href="#me91a084207" y="109.048352"/>
      </g>
     </g>
     <g id="text_10">
      <!-- $\mathdefault{10^{2}}$ -->
      <g transform="translate(74.4 112.847571)scale(0.1 -0.1)">
       <use transform="translate(0 0.765625)" xlink:href="#DejaVuSans-31"/>
       <use transform="translate(63.623047 0.765625)" xlink:href="#DejaVuSans-30"/>
       <use transform="translate(128.203125 39.046875)scale(0.7)" xlink:href="#DejaVuSans-32"/>
      </g>
     </g>
    </g>
    <g id="ytick_4">
     <g id="line2d_34">
      <path clip-path="url(#p68e2955192)" d="M 99 540.704908 
L 712.8 540.704908 
" style="fill:none;stroke:#b0b0b0;stroke-linecap:square;stroke-width:0.8;"/>
     </g>
     <g id="line2d_35">
      <defs>
       <path d="M 0 0 
L -2 0 
" id="m0cb60b688e" style="stroke:#000000;stroke-width:0.6;"/>
      </defs>
      <g>
       <use style="stroke:#000000;stroke-width:0.6;" x="99" xlink:href="#m0cb60b688e" y="540.704908"/>
      </g>
     </g>
    </g>
    <g id="ytick_5">
     <g id="line2d_36">
      <path clip-path="url(#p68e2955192)" d="M 99 523.26 
L 712.8 523.26 
" style="fill:none;stroke:#b0b0b0;stroke-linecap:square;stroke-width:0.8;"/>
     </g>
     <g id="line2d_37">
      <g>
       <use style="stroke:#000000;stroke-width:0.6;" x="99" xlink:href="#m0cb60b688e" y="523.26"/>
      </g>
     </g>
    </g>
    <g id="ytick_6">
     <g id="line2d_38">
      <path clip-path="url(#p68e2955192)" d="M 99 509.006472 
L 712.8 509.006472 
" style="fill:none;stroke:#b0b0b0;stroke-linecap:square;stroke-width:0.8;"/>
     </g>
     <g id="line2d_39">
      <g>
       <use style="stroke:#000000;stroke-width:0.6;" x="99" xlink:href="#m0cb60b688e" y="509.006472"/>
      </g>
     </g>
    </g>
    <g id="ytick_7">
     <g id="line2d_40">
      <path clip-path="url(#p68e2955192)" d="M 99 496.955287 
L 712.8 496.955287 
" style="fill:none;stroke:#b0b0b0;stroke-linecap:square;stroke-width:0.8;"/>
     </g>
     <g id="line2d_41">
      <g>
       <use style="stroke:#000000;stroke-width:0.6;" x="99" xlink:href="#m0cb60b688e" y="496.955287"/>
      </g>
     </g>
    </g>
    <g id="ytick_8">
     <g id="line2d_42">
      <path clip-path="url(#p68e2955192)" d="M 99 486.516075 
L 712.8 486.516075 
" style="fill:none;stroke:#b0b0b0;stroke-linecap:square;stroke-width:0.8;"/>
     </g>
     <g id="line2d_43">
      <g>
       <use style="stroke:#000000;stroke-width:0.6;" x="99" xlink:href="#m0cb60b688e" y="486.516075"/>
      </g>
     </g>
    </g>
    <g id="ytick_9">
     <g id="line2d_44">
      <path clip-path="url(#p68e2955192)" d="M 99 477.308037 
L 712.8 477.308037 
" style="fill:none;stroke:#b0b0b0;stroke-linecap:square;stroke-width:0.8;"/>
     </g>
     <g id="line2d_45">
      <g>
       <use style="stroke:#000000;stroke-width:0.6;" x="99" xlink:href="#m0cb60b688e" y="477.308037"/>
      </g>
     </g>
    </g>
    <g id="ytick_10">
     <g id="line2d_46">
      <path clip-path="url(#p68e2955192)" d="M 99 414.882334 
L 712.8 414.882334 
" style="fill:none;stroke:#b0b0b0;stroke-linecap:square;stroke-width:0.8;"/>
     </g>
     <g id="line2d_47">
      <g>
       <use style="stroke:#000000;stroke-width:0.6;" x="99" xlink:href="#m0cb60b688e" y="414.882334"/>
      </g>
     </g>
    </g>
    <g id="ytick_11">
     <g id="line2d_48">
      <path clip-path="url(#p68e2955192)" d="M 99 383.183898 
L 712.8 383.183898 
" style="fill:none;stroke:#b0b0b0;stroke-linecap:square;stroke-width:0.8;"/>
     </g>
     <g id="line2d_49">
      <g>
       <use style="stroke:#000000;stroke-width:0.6;" x="99" xlink:href="#m0cb60b688e" y="383.183898"/>
      </g>
     </g>
    </g>
    <g id="ytick_12">
     <g id="line2d_50">
      <path clip-path="url(#p68e2955192)" d="M 99 360.6935 
L 712.8 360.6935 
" style="fill:none;stroke:#b0b0b0;stroke-linecap:square;stroke-width:0.8;"/>
     </g>
     <g id="line2d_51">
      <g>
       <use style="stroke:#000000;stroke-width:0.6;" x="99" xlink:href="#m0cb60b688e" y="360.6935"/>
      </g>
     </g>
    </g>
    <g id="ytick_13">
     <g id="line2d_52">
      <path clip-path="url(#p68e2955192)" d="M 99 343.248593 
L 712.8 343.248593 
" style="fill:none;stroke:#b0b0b0;stroke-linecap:square;stroke-width:0.8;"/>
     </g>
     <g id="line2d_53">
      <g>
       <use style="stroke:#000000;stroke-width:0.6;" x="99" xlink:href="#m0cb60b688e" y="343.248593"/>
      </g>
     </g>
    </g>
    <g id="ytick_14">
     <g id="line2d_54">
      <path clip-path="url(#p68e2955192)" d="M 99 328.995065 
L 712.8 328.995065 
" style="fill:none;stroke:#b0b0b0;stroke-linecap:square;stroke-width:0.8;"/>
     </g>
     <g id="line2d_55">
      <g>
       <use style="stroke:#000000;stroke-width:0.6;" x="99" xlink:href="#m0cb60b688e" y="328.995065"/>
      </g>
     </g>
    </g>
    <g id="ytick_15">
     <g id="line2d_56">
      <path clip-path="url(#p68e2955192)" d="M 99 316.943879 
L 712.8 316.943879 
" style="fill:none;stroke:#b0b0b0;stroke-linecap:square;stroke-width:0.8;"/>
     </g>
     <g id="line2d_57">
      <g>
       <use style="stroke:#000000;stroke-width:0.6;" x="99" xlink:href="#m0cb60b688e" y="316.943879"/>
      </g>
     </g>
    </g>
    <g id="ytick_16">
     <g id="line2d_58">
      <path clip-path="url(#p68e2955192)" d="M 99 306.504667 
L 712.8 306.504667 
" style="fill:none;stroke:#b0b0b0;stroke-linecap:square;stroke-width:0.8;"/>
     </g>
     <g id="line2d_59">
      <g>
       <use style="stroke:#000000;stroke-width:0.6;" x="99" xlink:href="#m0cb60b688e" y="306.504667"/>
      </g>
     </g>
    </g>
    <g id="ytick_17">
     <g id="line2d_60">
      <path clip-path="url(#p68e2955192)" d="M 99 297.29663 
L 712.8 297.29663 
" style="fill:none;stroke:#b0b0b0;stroke-linecap:square;stroke-width:0.8;"/>
     </g>
     <g id="line2d_61">
      <g>
       <use style="stroke:#000000;stroke-width:0.6;" x="99" xlink:href="#m0cb60b688e" y="297.29663"/>
      </g>
     </g>
    </g>
    <g id="ytick_18">
     <g id="line2d_62">
      <path clip-path="url(#p68e2955192)" d="M 99 234.870926 
L 712.8 234.870926 
" style="fill:none;stroke:#b0b0b0;stroke-linecap:square;stroke-width:0.8;"/>
     </g>
     <g id="line2d_63">
      <g>
       <use style="stroke:#000000;stroke-width:0.6;" x="99" xlink:href="#m0cb60b688e" y="234.870926"/>
      </g>
     </g>
    </g>
    <g id="ytick_19">
     <g id="line2d_64">
      <path clip-path="url(#p68e2955192)" d="M 99 203.172491 
L 712.8 203.172491 
" style="fill:none;stroke:#b0b0b0;stroke-linecap:square;stroke-width:0.8;"/>
     </g>
     <g id="line2d_65">
      <g>
       <use style="stroke:#000000;stroke-width:0.6;" x="99" xlink:href="#m0cb60b688e" y="203.172491"/>
      </g>
     </g>
    </g>
    <g id="ytick_20">
     <g id="line2d_66">
      <path clip-path="url(#p68e2955192)" d="M 99 180.682093 
L 712.8 180.682093 
" style="fill:none;stroke:#b0b0b0;stroke-linecap:square;stroke-width:0.8;"/>
     </g>
     <g id="line2d_67">
      <g>
       <use style="stroke:#000000;stroke-width:0.6;" x="99" xlink:href="#m0cb60b688e" y="180.682093"/>
      </g>
     </g>
    </g>
    <g id="ytick_21">
     <g id="line2d_68">
      <path clip-path="url(#p68e2955192)" d="M 99 163.237185 
L 712.8 163.237185 
" style="fill:none;stroke:#b0b0b0;stroke-linecap:square;stroke-width:0.8;"/>
     </g>
     <g id="line2d_69">
      <g>
       <use style="stroke:#000000;stroke-width:0.6;" x="99" xlink:href="#m0cb60b688e" y="163.237185"/>
      </g>
     </g>
    </g>
    <g id="ytick_22">
     <g id="line2d_70">
      <path clip-path="url(#p68e2955192)" d="M 99 148.983658 
L 712.8 148.983658 
" style="fill:none;stroke:#b0b0b0;stroke-linecap:square;stroke-width:0.8;"/>
     </g>
     <g id="line2d_71">
      <g>
       <use style="stroke:#000000;stroke-width:0.6;" x="99" xlink:href="#m0cb60b688e" y="148.983658"/>
      </g>
     </g>
    </g>
    <g id="ytick_23">
     <g id="line2d_72">
      <path clip-path="url(#p68e2955192)" d="M 99 136.932472 
L 712.8 136.932472 
" style="fill:none;stroke:#b0b0b0;stroke-linecap:square;stroke-width:0.8;"/>
     </g>
     <g id="line2d_73">
      <g>
       <use style="stroke:#000000;stroke-width:0.6;" x="99" xlink:href="#m0cb60b688e" y="136.932472"/>
      </g>
     </g>
    </g>
    <g id="ytick_24">
     <g id="line2d_74">
      <path clip-path="url(#p68e2955192)" d="M 99 126.49326 
L 712.8 126.49326 
" style="fill:none;stroke:#b0b0b0;stroke-linecap:square;stroke-width:0.8;"/>
     </g>
     <g id="line2d_75">
      <g>
       <use style="stroke:#000000;stroke-width:0.6;" x="99" xlink:href="#m0cb60b688e" y="126.49326"/>
      </g>
     </g>
    </g>
    <g id="ytick_25">
     <g id="line2d_76">
      <path clip-path="url(#p68e2955192)" d="M 99 117.285222 
L 712.8 117.285222 
" style="fill:none;stroke:#b0b0b0;stroke-linecap:square;stroke-width:0.8;"/>
     </g>
     <g id="line2d_77">
      <g>
       <use style="stroke:#000000;stroke-width:0.6;" x="99" xlink:href="#m0cb60b688e" y="117.285222"/>
      </g>
     </g>
    </g>
   </g>
   <g id="line2d_78">
    <path clip-path="url(#p68e2955192)" d="M 123.092512 613 
L 123.093084 523.26 
L 123.093656 613 
M 125.387091 613 
L 125.387664 523.26 
L 126.534953 469.071167 
L 127.682243 469.071167 
L 128.829533 437.372731 
L 129.976822 469.071167 
L 135.713271 469.071167 
L 136.860561 523.26 
L 138.00785 523.26 
L 138.008423 613 
M 151.774755 613 
L 151.775327 523.26 
L 152.922617 523.26 
L 152.923189 613 
M 222.906718 613 
L 222.90729 523.26 
L 224.054579 469.071167 
L 225.201869 437.372731 
L 226.349159 414.882334 
L 227.496449 437.372731 
L 228.643738 437.372731 
L 229.791028 414.882334 
L 230.938318 414.882334 
L 232.085607 397.437426 
L 234.380187 343.248593 
L 235.527477 328.995065 
L 236.674766 328.995065 
L 237.822056 311.550157 
L 238.969346 289.059759 
L 240.116636 289.059759 
L 241.263925 274.806232 
L 242.411215 271.614852 
L 243.558505 262.755046 
L 249.294953 262.755046 
L 250.442243 271.614852 
L 251.589533 281.608604 
L 252.736822 285.245444 
L 253.884112 285.245444 
L 255.031402 293.069765 
L 256.178692 289.059759 
L 257.325981 293.069765 
L 261.91514 293.069765 
L 263.06243 289.059759 
L 264.20972 289.059759 
L 265.357009 274.806232 
L 267.651589 274.806232 
L 268.798879 260.011678 
L 269.946168 249.910169 
L 271.093458 240.965801 
L 272.240748 240.965801 
L 273.388037 234.870926 
L 280.271776 234.870926 
L 281.419065 220.617399 
L 282.566355 204.486437 
L 284.860935 204.486437 
L 286.008224 211.409361 
L 289.450093 211.409361 
L 290.597383 229.217044 
L 291.744673 208.566213 
L 294.039252 208.566213 
L 295.186542 238.880931 
L 296.333832 293.069765 
L 297.481121 335.797437 
L 298.628411 343.248593 
L 299.775701 335.797437 
L 302.07028 335.797437 
L 303.21757 343.248593 
L 304.36486 335.797437 
L 305.51215 343.248593 
L 307.806729 343.248593 
L 308.954019 351.485463 
L 310.101308 360.6935 
L 311.248598 343.248593 
L 313.543178 343.248593 
L 314.690467 328.995065 
L 315.837757 343.248593 
L 316.985047 343.248593 
L 318.132336 397.437426 
L 319.279626 343.248593 
L 320.426916 343.248593 
L 321.574206 371.132712 
L 322.721495 328.995065 
L 326.163364 328.995065 
L 327.310654 371.132712 
L 329.605234 371.132712 
L 330.752523 523.26 
L 331.899813 469.071167 
L 333.047103 523.26 
L 334.194393 523.26 
L 334.194965 613 
M 337.63569 613 
L 337.636262 523.26 
L 337.636834 613 
M 351.403166 613 
L 351.403738 523.26 
L 351.40431 613 
M 354.845035 613 
L 354.845607 523.26 
L 354.84618 613 
M 358.286905 613 
L 358.287477 523.26 
L 359.434766 523.26 
L 360.582056 437.372731 
L 361.729346 469.071167 
L 362.876636 414.882334 
L 367.465794 414.882334 
L 368.613084 397.437426 
L 369.760374 414.882334 
L 375.496822 414.882334 
L 376.644112 469.071167 
L 384.67514 469.071167 
L 385.82243 360.6935 
L 386.96972 316.943879 
L 388.117009 316.943879 
L 389.264299 306.504667 
L 390.411589 306.504667 
L 391.558879 301.765158 
L 393.853458 301.765158 
L 395.000748 316.943879 
L 396.148037 311.550157 
L 398.442617 311.550157 
L 399.589907 328.995065 
L 400.737196 328.995065 
L 401.884486 343.248593 
L 403.031776 343.248593 
L 404.179065 371.132712 
L 405.326355 437.372731 
L 406.473645 414.882334 
L 407.620935 414.882334 
L 409.915514 274.806232 
L 411.062804 240.965801 
L 412.210093 274.806232 
L 413.357383 274.806232 
L 414.504673 247.576325 
L 415.651963 236.850221 
L 416.799252 247.576325 
L 417.946542 236.850221 
L 421.388411 236.850221 
L 422.535701 247.576325 
L 423.682991 260.011678 
L 425.97757 260.011678 
L 427.12486 271.614852 
L 429.419439 271.614852 
L 431.714019 285.245444 
L 432.861308 278.133456 
L 434.008598 278.133456 
L 435.155888 285.245444 
L 436.303178 301.765158 
L 437.450467 335.797437 
L 438.597757 335.797437 
L 439.745047 397.437426 
L 439.74642 613 
M 462.689175 613 
L 462.690841 351.485463 
L 464.985421 351.485463 
L 466.13271 289.059759 
L 467.28 271.614852 
L 468.42729 271.614852 
L 469.574579 289.059759 
L 470.721869 271.614852 
L 471.869159 289.059759 
L 473.016449 316.943879 
L 474.163738 293.069765 
L 475.311028 297.29663 
L 476.458318 316.943879 
L 477.605607 297.29663 
L 478.752897 316.943879 
L 486.783925 316.943879 
L 489.078505 328.995065 
L 490.225794 328.995065 
L 491.373084 306.504667 
L 492.520374 306.504667 
L 493.667664 437.372731 
L 494.814953 371.132712 
L 495.962243 371.132712 
L 497.109533 316.943879 
L 498.256822 316.943879 
L 499.404112 371.132712 
L 500.551402 316.943879 
L 501.698692 316.943879 
L 502.845981 371.132712 
L 503.993271 371.132712 
L 505.140561 316.943879 
L 506.28785 322.737489 
L 509.72972 322.737489 
L 510.877009 293.069765 
L 512.024299 351.485463 
L 513.171589 351.485463 
L 514.318879 383.183898 
L 515.466168 328.995065 
L 516.613458 383.183898 
L 520.055327 383.183898 
L 520.056791 613 
M 586.596758 613 
L 586.598131 397.437426 
L 588.89271 397.437426 
L 588.894084 613 
M 594.627786 613 
L 594.629159 397.437426 
L 595.776449 397.437426 
L 595.777822 613 
M 623.309593 613 
L 623.311402 328.995065 
L 625.605981 328.995065 
L 626.753271 274.806232 
L 631.34243 274.806232 
L 632.48972 297.29663 
L 633.637009 335.797437 
L 638.226168 335.797437 
L 639.373458 351.485463 
L 640.520748 351.485463 
L 641.668037 414.882334 
L 642.815327 414.882334 
L 642.816589 613 
M 657.728375 613 
L 657.730093 343.248593 
L 662.319252 343.248593 
L 663.466542 271.614852 
L 664.613832 271.614852 
L 665.761121 343.248593 
L 666.908411 271.614852 
L 668.055701 343.248593 
L 671.49757 343.248593 
L 671.499288 613 
M 681.821196 613 
L 681.823178 301.765158 
L 682.970467 301.765158 
L 684.117757 225.662889 
L 687.559626 225.662889 
L 688.706916 200.609049 
L 691.001495 200.609049 
L 692.148785 174.12441 
L 695.590654 174.12441 
L 696.737944 179.710926 
L 697.885234 158.681841 
L 699.032523 188.918963 
L 700.179813 293.069765 
L 701.327103 293.069765 
L 702.474393 188.918963 
L 703.621682 257.361324 
L 705.916262 257.361324 
L 707.063551 335.797437 
L 710.505421 335.797437 
L 710.507186 613 
M 712.798235 613 
L 712.8 335.797437 
L 712.8 335.797437 
" style="fill:none;stroke:#1f77b4;stroke-linecap:square;stroke-width:1.5;"/>
   </g>
   <g id="line2d_79">
    <path clip-path="url(#p68e2955192)" d="M 0 0 
" style="fill:none;stroke:#ff7f0e;stroke-linecap:square;stroke-width:1.5;"/>
   </g>
   <g id="patch_3">
    <path d="M 99 544.68 
L 99 73.44 
" style="fill:none;stroke:#000000;stroke-linecap:square;stroke-linejoin:miter;stroke-width:0.8;"/>
   </g>
   <g id="patch_4">
    <path d="M 712.8 544.68 
L 712.8 73.44 
" style="fill:none;stroke:#000000;stroke-linecap:square;stroke-linejoin:miter;stroke-width:0.8;"/>
   </g>
   <g id="patch_5">
    <path d="M 99 544.68 
L 712.8 544.68 
" style="fill:none;stroke:#000000;stroke-linecap:square;stroke-linejoin:miter;stroke-width:0.8;"/>
   </g>
   <g id="patch_6">
    <path d="M 99 73.44 
L 712.8 73.44 
" style="fill:none;stroke:#000000;stroke-linecap:square;stroke-linejoin:miter;stroke-width:0.8;"/>
   </g>
   <g id="legend_1">
    <g id="patch_7">
     <path d="M 616.653125 110.79625 
L 705.8 110.79625 
Q 707.8 110.79625 707.8 108.79625 
L 707.8 80.44 
Q 707.8 78.44 705.8 78.44 
L 616.653125 78.44 
Q 614.653125 78.44 614.653125 80.44 
L 614.653125 108.79625 
Q 614.653125 110.79625 616.653125 110.79625 
z
" style="fill:#ffffff;opacity:0.8;stroke:#cccccc;stroke-linejoin:miter;"/>
    </g>
    <g id="line2d_80">
     <path d="M 618.653125 86.538437 
L 638.653125 86.538437 
" style="fill:none;stroke:#1f77b4;stroke-linecap:square;stroke-width:1.5;"/>
    </g>
    <g id="line2d_81"/>
    <g id="text_11">
     <!-- Avg Cases -->
     <g transform="translate(646.653125 90.038437)scale(0.1 -0.1)">
      <defs>
       <path d="M 191 3500 
L 800 3500 
L 1894 563 
L 2988 3500 
L 3597 3500 
L 2284 0 
L 1503 0 
L 191 3500 
z
" id="DejaVuSans-76" transform="scale(0.015625)"/>
       <path d="M 2906 1791 
Q 2906 2416 2648 2759 
Q 2391 3103 1925 3103 
Q 1463 3103 1205 2759 
Q 947 2416 947 1791 
Q 947 1169 1205 825 
Q 1463 481 1925 481 
Q 2391 481 2648 825 
Q 2906 1169 2906 1791 
z
M 3481 434 
Q 3481 -459 3084 -895 
Q 2688 -1331 1869 -1331 
Q 1566 -1331 1297 -1286 
Q 1028 -1241 775 -1147 
L 775 -588 
Q 1028 -725 1275 -790 
Q 1522 -856 1778 -856 
Q 2344 -856 2625 -561 
Q 2906 -266 2906 331 
L 2906 616 
Q 2728 306 2450 153 
Q 2172 0 1784 0 
Q 1141 0 747 490 
Q 353 981 353 1791 
Q 353 2603 747 3093 
Q 1141 3584 1784 3584 
Q 2172 3584 2450 3431 
Q 2728 3278 2906 2969 
L 2906 3500 
L 3481 3500 
L 3481 434 
z
" id="DejaVuSans-67" transform="scale(0.015625)"/>
       <path id="DejaVuSans-20" transform="scale(0.015625)"/>
       <path d="M 4122 4306 
L 4122 3641 
Q 3803 3938 3442 4084 
Q 3081 4231 2675 4231 
Q 1875 4231 1450 3742 
Q 1025 3253 1025 2328 
Q 1025 1406 1450 917 
Q 1875 428 2675 428 
Q 3081 428 3442 575 
Q 3803 722 4122 1019 
L 4122 359 
Q 3791 134 3420 21 
Q 3050 -91 2638 -91 
Q 1578 -91 968 557 
Q 359 1206 359 2328 
Q 359 3453 968 4101 
Q 1578 4750 2638 4750 
Q 3056 4750 3426 4639 
Q 3797 4528 4122 4306 
z
" id="DejaVuSans-43" transform="scale(0.015625)"/>
       <path d="M 2834 3397 
L 2834 2853 
Q 2591 2978 2328 3040 
Q 2066 3103 1784 3103 
Q 1356 3103 1142 2972 
Q 928 2841 928 2578 
Q 928 2378 1081 2264 
Q 1234 2150 1697 2047 
L 1894 2003 
Q 2506 1872 2764 1633 
Q 3022 1394 3022 966 
Q 3022 478 2636 193 
Q 2250 -91 1575 -91 
Q 1294 -91 989 -36 
Q 684 19 347 128 
L 347 722 
Q 666 556 975 473 
Q 1284 391 1588 391 
Q 1994 391 2212 530 
Q 2431 669 2431 922 
Q 2431 1156 2273 1281 
Q 2116 1406 1581 1522 
L 1381 1569 
Q 847 1681 609 1914 
Q 372 2147 372 2553 
Q 372 3047 722 3315 
Q 1072 3584 1716 3584 
Q 2034 3584 2315 3537 
Q 2597 3491 2834 3397 
z
" id="DejaVuSans-73" transform="scale(0.015625)"/>
      </defs>
      <use xlink:href="#DejaVuSans-41"/>
      <use x="62.533203" xlink:href="#DejaVuSans-76"/>
      <use x="121.712891" xlink:href="#DejaVuSans-67"/>
      <use x="185.189453" xlink:href="#DejaVuSans-20"/>
      <use x="216.976562" xlink:href="#DejaVuSans-43"/>
      <use x="286.800781" xlink:href="#DejaVuSans-61"/>
      <use x="348.080078" xlink:href="#DejaVuSans-73"/>
      <use x="400.179688" xlink:href="#DejaVuSans-65"/>
      <use x="461.703125" xlink:href="#DejaVuSans-73"/>
     </g>
    </g>
    <g id="line2d_82">
     <path d="M 618.653125 101.216562 
L 638.653125 101.216562 
" style="fill:none;stroke:#ff7f0e;stroke-linecap:square;stroke-width:1.5;"/>
    </g>
    <g id="line2d_83"/>
    <g id="text_12">
     <!-- Avg Deaths -->
     <g transform="translate(646.653125 104.716562)scale(0.1 -0.1)">
      <defs>
       <path d="M 3513 2113 
L 3513 0 
L 2938 0 
L 2938 2094 
Q 2938 2591 2744 2837 
Q 2550 3084 2163 3084 
Q 1697 3084 1428 2787 
Q 1159 2491 1159 1978 
L 1159 0 
L 581 0 
L 581 4863 
L 1159 4863 
L 1159 2956 
Q 1366 3272 1645 3428 
Q 1925 3584 2291 3584 
Q 2894 3584 3203 3211 
Q 3513 2838 3513 2113 
z
" id="DejaVuSans-68" transform="scale(0.015625)"/>
      </defs>
      <use xlink:href="#DejaVuSans-41"/>
      <use x="62.533203" xlink:href="#DejaVuSans-76"/>
      <use x="121.712891" xlink:href="#DejaVuSans-67"/>
      <use x="185.189453" xlink:href="#DejaVuSans-20"/>
      <use x="216.976562" xlink:href="#DejaVuSans-44"/>
      <use x="293.978516" xlink:href="#DejaVuSans-65"/>
      <use x="355.501953" xlink:href="#DejaVuSans-61"/>
      <use x="416.78125" xlink:href="#DejaVuSans-74"/>
      <use x="455.990234" xlink:href="#DejaVuSans-68"/>
      <use x="519.369141" xlink:href="#DejaVuSans-73"/>
     </g>
    </g>
   </g>
  </g>
 </g>
 <defs>
  <clipPath id="p68e2955192">
   <rect height="471.24" width="613.8" x="99" y="73.44"/>
  </clipPath>
 </defs>
</svg>
