<?xml version="1.0" encoding="utf-8" standalone="no"?>
<!DOCTYPE svg PUBLIC "-//W3C//DTD SVG 1.1//EN"
  "http://www.w3.org/Graphics/SVG/1.1/DTD/svg11.dtd">
<svg height="612pt" version="1.1" viewBox="0 0 792 612" width="792pt" xmlns="http://www.w3.org/2000/svg" xmlns:xlink="http://www.w3.org/1999/xlink">
 <metadata>
  <rdf:RDF xmlns:cc="http://creativecommons.org/ns#" xmlns:dc="http://purl.org/dc/elements/1.1/" xmlns:rdf="http://www.w3.org/1999/02/22-rdf-syntax-ns#">
   <cc:Work>
    <dc:type rdf:resource="http://purl.org/dc/dcmitype/StillImage"/>
    <dc:format>image/svg+xml</dc:format>
    <dc:creator>
     <cc:Agent>
      <dc:title>Matplotlib v3.4.2, https://matplotlib.org/</dc:title>
     </cc:Agent>
    </dc:creator>
   </cc:Work>
  </rdf:RDF>
 </metadata>
 <defs>
  <style type="text/css">*{stroke-linecap:butt;stroke-linejoin:round;}</style>
 </defs>
 <g id="figure_1">
  <g id="patch_1">
   <path d="M 0 612 
L 792 612 
L 792 0 
L 0 0 
z
" style="fill:#ffffff;"/>
  </g>
  <g id="axes_1">
   <g id="patch_2">
    <path d="M 99 544.68 
L 712.8 544.68 
L 712.8 73.44 
L 99 73.44 
z
" style="fill:#ffffff;"/>
   </g>
   <g id="PolyCollection_1">
    <path clip-path="url(#p68e2955192)" d="M 99 180480.478538 
L 99 180480.478538 
L 100.153759 180480.478538 
L 101.307519 180480.478538 
L 102.461278 180480.478538 
L 103.615038 180480.478538 
L 104.768797 180480.478538 
L 105.922556 180480.478538 
L 107.076316 180480.478538 
L 108.230075 180480.478538 
L 109.383835 180480.478538 
L 110.537594 180480.478538 
L 111.691353 180480.478538 
L 112.845113 180480.478538 
L 113.998872 391.420769 
L 115.152632 391.420769 
L 116.306391 366.788375 
L 117.46015 327.702838 
L 118.61391 327.702838 
L 119.767669 327.702838 
L 120.921429 316.943879 
L 122.075188 316.943879 
L 123.228947 316.943879 
L 124.382707 327.702838 
L 125.536466 327.702838 
L 126.690226 327.702838 
L 127.843985 327.702838 
L 128.997744 327.702838 
L 130.151504 327.702838 
L 131.305263 327.702838 
L 132.459023 327.702838 
L 133.612782 360.6935 
L 134.766541 360.6935 
L 135.920301 360.6935 
L 137.07406 373.398899 
L 138.22782 373.398899 
L 139.381579 414.882334 
L 140.535338 414.882334 
L 141.689098 427.587732 
L 142.842857 427.587732 
L 143.996617 427.587732 
L 145.150376 469.071167 
L 146.304135 469.071167 
L 147.457895 427.587732 
L 148.611654 414.882334 
L 149.765414 414.882334 
L 150.919173 414.882334 
L 152.072932 391.420769 
L 153.226692 391.420769 
L 154.380451 391.420769 
L 155.534211 391.420769 
L 156.68797 391.420769 
L 157.841729 391.420769 
L 158.995489 391.420769 
L 160.149248 391.420769 
L 161.303008 391.420769 
L 162.456767 391.420769 
L 163.610526 391.420769 
L 164.764286 391.420769 
L 165.918045 391.420769 
L 167.071805 427.587732 
L 168.225564 496.955287 
L 169.379323 496.955287 
L 170.533083 496.955287 
L 171.686842 496.955287 
L 172.840602 496.955287 
L 173.994361 496.955287 
L 175.14812 496.955287 
L 176.30188 496.955287 
L 177.455639 180480.478538 
L 178.609398 180480.478538 
L 179.763158 180480.478538 
L 180.916917 180480.478538 
L 182.070677 180480.478538 
L 183.224436 180480.478538 
L 184.378195 180480.478538 
L 185.531955 180480.478538 
L 186.685714 180480.478538 
L 187.839474 180480.478538 
L 188.993233 180480.478538 
L 190.146992 180480.478538 
L 191.300752 180480.478538 
L 192.454511 496.955287 
L 193.608271 496.955287 
L 194.76203 496.955287 
L 195.915789 496.955287 
L 197.069549 496.955287 
L 198.223308 496.955287 
L 199.377068 469.071167 
L 200.530827 469.071167 
L 201.684586 469.071167 
L 202.838346 469.071167 
L 203.992105 496.955287 
L 205.145865 469.071167 
L 206.299624 469.071167 
L 207.453383 469.071167 
L 208.607143 496.955287 
L 209.760902 469.071167 
L 210.914662 469.071167 
L 212.068421 469.071167 
L 213.22218 469.071167 
L 214.37594 469.071167 
L 215.529699 427.587732 
L 216.683459 414.882334 
L 217.837218 414.882334 
L 218.990977 414.882334 
L 220.144737 414.882334 
L 221.298496 414.882334 
L 222.452256 414.882334 
L 223.606015 391.420769 
L 224.759774 391.420769 
L 225.913534 341.700464 
L 227.067293 328.995065 
L 228.221053 328.995065 
L 229.374812 328.995065 
L 230.528571 328.995065 
L 231.682331 328.995065 
L 232.83609 282.322563 
L 233.98985 276.120178 
L 235.143609 264.448498 
L 236.297368 262.755046 
L 237.451128 236.450333 
L 238.604887 236.450333 
L 239.758647 220.292334 
L 240.912406 220.292334 
L 242.066165 220.292334 
L 243.219925 220.292334 
L 244.373684 220.292334 
L 245.527444 220.292334 
L 246.681203 220.292334 
L 247.834962 220.292334 
L 248.988722 215.267121 
L 250.142481 215.267121 
L 251.296241 215.267121 
L 252.45 215.267121 
L 253.603759 219.968615 
L 254.757519 219.968615 
L 255.911278 242.243943 
L 257.065038 242.243943 
L 258.218797 242.243943 
L 259.372556 239.293481 
L 260.526316 238.062307 
L 261.680075 238.062307 
L 262.833835 234.48101 
L 263.987594 223.605455 
L 265.141353 223.605455 
L 266.295113 223.605455 
L 267.448872 223.605455 
L 268.602632 223.605455 
L 269.756391 223.605455 
L 270.91015 209.974863 
L 272.06391 190.454064 
L 273.217669 190.454064 
L 274.371429 155.078532 
L 275.525188 155.078532 
L 276.678947 155.078532 
L 277.832707 155.078532 
L 278.986466 155.078532 
L 280.140226 155.078532 
L 281.293985 155.928301 
L 282.447744 153.820951 
L 283.601504 143.451076 
L 284.755263 143.451076 
L 285.909023 143.451076 
L 287.062782 143.451076 
L 288.216541 151.904057 
L 289.370301 151.904057 
L 290.52406 173.587102 
L 291.67782 173.587102 
L 292.831579 161.230533 
L 293.985338 161.230533 
L 295.139098 161.230533 
L 296.292857 161.230533 
L 297.446617 161.230533 
L 298.600376 161.230533 
L 299.754135 178.561229 
L 300.907895 178.561229 
L 302.061654 178.561229 
L 303.215414 178.561229 
L 304.369173 187.626736 
L 305.522932 187.626736 
L 306.676692 251.828742 
L 307.830451 251.828742 
L 308.984211 251.828742 
L 310.13797 251.828742 
L 311.291729 251.828742 
L 312.445489 251.828742 
L 313.599248 251.828742 
L 314.753008 251.828742 
L 315.906767 241.38953 
L 317.060526 245.310138 
L 318.214286 248.037553 
L 319.368045 248.037553 
L 320.521805 248.037553 
L 321.675564 248.037553 
L 322.829323 248.037553 
L 323.983083 248.037553 
L 325.136842 248.037553 
L 326.290602 248.037553 
L 327.444361 248.037553 
L 328.59812 248.037553 
L 329.75188 248.037553 
L 330.905639 248.037553 
L 332.059398 274.806232 
L 333.213158 274.806232 
L 334.366917 280.901106 
L 335.520677 280.901106 
L 336.674436 283.043102 
L 337.828195 312.599542 
L 338.981955 312.599542 
L 340.135714 326.431624 
L 341.289474 427.587732 
L 342.443233 427.587732 
L 343.596992 427.587732 
L 344.750752 391.420769 
L 345.904511 391.420769 
L 347.058271 427.587732 
L 348.21203 427.587732 
L 349.365789 391.420769 
L 350.519549 391.420769 
L 351.673308 391.420769 
L 352.827068 391.420769 
L 353.980827 391.420769 
L 355.134586 341.700464 
L 356.288346 341.700464 
L 357.442105 341.700464 
L 358.595865 341.700464 
L 359.749624 341.700464 
L 360.903383 341.700464 
L 362.057143 341.700464 
L 363.210902 341.700464 
L 364.364662 328.995065 
L 365.518421 305.5335 
L 366.67218 305.5335 
L 367.82594 305.5335 
L 368.979699 297.29663 
L 370.133459 297.29663 
L 371.287218 297.29663 
L 372.440977 297.29663 
L 373.594737 271.614852 
L 374.748496 271.614852 
L 375.902256 271.614852 
L 377.056015 271.614852 
L 378.209774 271.614852 
L 379.363534 271.614852 
L 380.517293 264.448498 
L 381.671053 276.120178 
L 382.824812 276.120178 
L 383.978571 276.120178 
L 385.132331 260.552704 
L 386.28609 260.552704 
L 387.43985 260.552704 
L 388.593609 260.552704 
L 389.747368 268.548656 
L 390.901128 268.548656 
L 392.054887 268.548656 
L 393.208647 264.448498 
L 394.362406 264.448498 
L 395.516165 264.448498 
L 396.669925 264.448498 
L 397.823684 255.303891 
L 398.977444 255.303891 
L 400.131203 255.303891 
L 401.284962 264.448498 
L 402.438722 245.310138 
L 403.592481 245.310138 
L 404.746241 225.662889 
L 405.9 225.662889 
L 407.053759 225.662889 
L 408.207519 197.155834 
L 409.361278 192.246187 
L 410.515038 192.246187 
L 411.668797 189.573176 
L 412.822556 184.486637 
L 413.976316 184.486637 
L 415.130075 184.486637 
L 416.283835 184.486637 
L 417.437594 184.486637 
L 418.591353 189.573176 
L 419.745113 170.096435 
L 420.898872 170.096435 
L 422.052632 170.096435 
L 423.206391 170.096435 
L 424.36015 170.610202 
L 425.51391 170.610202 
L 426.667669 170.610202 
L 427.821429 177.615898 
L 428.975188 228.493169 
L 430.128947 228.493169 
L 431.282707 228.493169 
L 432.436466 228.493169 
L 433.590226 232.940508 
L 434.743985 207.733047 
L 435.897744 228.493169 
L 437.051504 235.656641 
L 438.205263 235.656641 
L 439.359023 235.656641 
L 440.512782 235.656641 
L 441.666541 235.656641 
L 442.820301 235.656641 
L 443.97406 241.815569 
L 445.12782 249.910169 
L 446.281579 249.910169 
L 447.435338 249.910169 
L 448.589098 249.910169 
L 449.742857 208.566213 
L 450.896617 249.910169 
L 452.050376 333.00507 
L 453.204135 356.879185 
L 454.357895 180480.478538 
L 455.511654 141.769765 
L 456.665414 141.769765 
L 457.819173 133.973738 
L 458.972932 133.973738 
L 460.126692 133.973738 
L 461.280451 133.973738 
L 462.434211 133.973738 
L 463.58797 133.973738 
L 464.741729 133.973738 
L 465.895489 223.944623 
L 467.049248 223.944623 
L 468.203008 223.944623 
L 469.356767 223.944623 
L 470.510526 223.944623 
L 471.664286 224.971044 
L 472.818045 223.944623 
L 473.971805 224.971044 
L 475.125564 227.065222 
L 476.279323 227.065222 
L 477.433083 227.065222 
L 478.586842 233.706965 
L 479.740602 230.315582 
L 480.894361 230.315582 
L 482.04812 241.38953 
L 483.20188 241.38953 
L 484.355639 236.05248 
L 485.509398 234.870926 
L 486.663158 234.870926 
L 487.816917 234.870926 
L 488.970677 236.05248 
L 490.124436 236.05248 
L 491.278195 236.05248 
L 492.431955 236.05248 
L 493.585714 236.05248 
L 494.739474 236.05248 
L 495.893233 236.05248 
L 497.046992 236.05248 
L 498.200752 238.470547 
L 499.354511 234.870926 
L 500.508271 238.470547 
L 501.66203 247.576325 
L 502.815789 247.576325 
L 503.969549 247.576325 
L 505.123308 253.299218 
L 506.277068 253.299218 
L 507.430827 206.09289 
L 508.584586 206.09289 
L 509.738346 209.408353 
L 510.892105 209.408353 
L 512.045865 209.408353 
L 513.199624 196.196583 
L 514.353383 196.196583 
L 515.507143 217.739357 
L 516.660902 219.646231 
L 517.814662 219.646231 
L 518.968421 219.646231 
L 520.12218 219.646231 
L 521.27594 219.646231 
L 522.429699 219.646231 
L 523.583459 283.770344 
L 524.737218 283.770344 
L 525.890977 293.069765 
L 527.044737 293.069765 
L 528.198496 293.069765 
L 529.352256 328.995065 
L 530.506015 328.995065 
L 531.659774 328.995065 
L 532.813534 351.485463 
L 533.967293 306.504667 
L 535.121053 272.24279 
L 536.274812 272.24279 
L 537.428571 272.24279 
L 538.582331 272.24279 
L 539.73609 272.24279 
L 540.88985 272.24279 
L 542.043609 272.24279 
L 543.197368 272.24279 
L 544.351128 272.24279 
L 545.504887 201.880264 
L 546.658647 201.880264 
L 547.812406 272.24279 
L 548.966165 227.065222 
L 550.119925 227.065222 
L 551.273684 234.870926 
L 552.427444 242.243943 
L 553.581203 212.282867 
L 554.734962 212.282867 
L 555.888722 212.282867 
L 557.042481 212.282867 
L 558.196241 212.282867 
L 559.35 212.282867 
L 560.503759 212.282867 
L 561.657519 222.931503 
L 562.811278 222.931503 
L 563.965038 222.931503 
L 565.118797 220.617399 
L 566.272556 220.617399 
L 567.426316 220.617399 
L 568.580075 220.617399 
L 569.733835 232.940508 
L 570.887594 232.940508 
L 572.041353 232.940508 
L 573.195113 237.656186 
L 574.348872 215.877889 
L 575.502632 215.877889 
L 576.656391 215.877889 
L 577.81015 215.877889 
L 578.96391 215.877889 
L 580.117669 215.877889 
L 581.271429 236.450333 
L 582.425188 236.450333 
L 583.578947 205.822845 
L 584.732707 205.822845 
L 585.886466 205.018262 
L 587.040226 205.018262 
L 588.193985 205.018262 
L 589.347744 205.018262 
L 590.501504 223.944623 
L 591.655263 223.944623 
L 592.809023 223.944623 
L 593.962782 223.944623 
L 595.116541 223.944623 
L 596.270301 223.944623 
L 597.42406 223.944623 
L 598.57782 223.944623 
L 599.731579 226.011121 
L 600.885338 226.011121 
L 602.039098 226.011121 
L 603.192857 226.011121 
L 604.346617 232.181493 
L 605.500376 232.181493 
L 606.654135 188.05511 
L 607.807895 188.05511 
L 608.961654 188.05511 
L 610.115414 188.05511 
L 611.269173 186.776967 
L 612.422932 170.096435 
L 613.576692 170.096435 
L 614.730451 170.096435 
L 615.884211 170.096435 
L 617.03797 170.096435 
L 618.191729 170.096435 
L 619.345489 166.918711 
L 620.499248 166.918711 
L 621.653008 166.918711 
L 622.806767 166.918711 
L 623.960526 166.918711 
L 625.114286 166.918711 
L 626.268045 166.918711 
L 627.421805 166.918711 
L 628.575564 168.40786 
L 629.729323 168.40786 
L 630.883083 168.40786 
L 632.036842 168.40786 
L 633.190602 168.40786 
L 634.344361 176.496385 
L 635.49812 198.127001 
L 636.65188 245.758151 
L 637.805639 245.758151 
L 638.959398 245.758151 
L 640.113158 245.758151 
L 641.266917 245.758151 
L 642.420677 245.758151 
L 643.574436 240.125169 
L 644.728195 240.125169 
L 645.881955 199.110384 
L 647.035714 199.110384 
L 648.189474 199.110384 
L 649.343233 199.110384 
L 650.496992 199.110384 
L 651.650752 173.230938 
L 652.804511 173.230938 
L 653.958271 173.230938 
L 655.11203 188.05511 
L 656.265789 188.05511 
L 657.419549 188.05511 
L 658.573308 188.05511 
L 659.727068 188.05511 
L 660.880827 173.230938 
L 662.034586 174.304336 
L 663.188346 174.304336 
L 664.342105 174.304336 
L 665.495865 174.304336 
L 666.649624 153.268454 
L 667.803383 158.387385 
L 668.957143 158.387385 
L 670.110902 142.485904 
L 671.264662 142.485904 
L 672.418421 142.485904 
L 673.57218 142.485904 
L 674.72594 134.838786 
L 675.879699 134.838786 
L 677.033459 134.838786 
L 678.187218 124.182413 
L 679.340977 124.182413 
L 680.494737 124.182413 
L 681.648496 124.182413 
L 682.802256 104.272062 
L 683.956015 104.272062 
L 685.109774 104.272062 
L 686.263534 94.86 
L 687.417293 94.86 
L 688.571053 94.86 
L 689.724812 94.86 
L 690.878571 94.86 
L 692.032331 94.86 
L 693.18609 94.86 
L 694.33985 99.979421 
L 695.493609 99.979421 
L 696.647368 99.979421 
L 697.801128 99.979421 
L 698.954887 105.159617 
L 700.108647 105.159617 
L 701.262406 98.531001 
L 702.416165 105.159617 
L 703.569925 105.159617 
L 704.723684 105.159617 
L 705.877444 98.531001 
L 707.031203 98.531001 
L 708.184962 99.14847 
L 709.338722 99.14847 
L 710.492481 104.272062 
L 711.646241 104.272062 
L 712.8 104.272062 
L 712.8 180480.478538 
L 712.8 180480.478538 
L 711.646241 180480.478538 
L 710.492481 180480.478538 
L 709.338722 180480.478538 
L 708.184962 180480.478538 
L 707.031203 180480.478538 
L 705.877444 180480.478538 
L 704.723684 180480.478538 
L 703.569925 180480.478538 
L 702.416165 180480.478538 
L 701.262406 180480.478538 
L 700.108647 180480.478538 
L 698.954887 180480.478538 
L 697.801128 180480.478538 
L 696.647368 180480.478538 
L 695.493609 180480.478538 
L 694.33985 180480.478538 
L 693.18609 180480.478538 
L 692.032331 180480.478538 
L 690.878571 180480.478538 
L 689.724812 180480.478538 
L 688.571053 180480.478538 
L 687.417293 180480.478538 
L 686.263534 180480.478538 
L 685.109774 180480.478538 
L 683.956015 180480.478538 
L 682.802256 180480.478538 
L 681.648496 180480.478538 
L 680.494737 180480.478538 
L 679.340977 180480.478538 
L 678.187218 180480.478538 
L 677.033459 180480.478538 
L 675.879699 180480.478538 
L 674.72594 180480.478538 
L 673.57218 180480.478538 
L 672.418421 180480.478538 
L 671.264662 180480.478538 
L 670.110902 180480.478538 
L 668.957143 180480.478538 
L 667.803383 180480.478538 
L 666.649624 180480.478538 
L 665.495865 180480.478538 
L 664.342105 180480.478538 
L 663.188346 180480.478538 
L 662.034586 180480.478538 
L 660.880827 180480.478538 
L 659.727068 180480.478538 
L 658.573308 180480.478538 
L 657.419549 180480.478538 
L 656.265789 180480.478538 
L 655.11203 180480.478538 
L 653.958271 180480.478538 
L 652.804511 180480.478538 
L 651.650752 180480.478538 
L 650.496992 180480.478538 
L 649.343233 180480.478538 
L 648.189474 180480.478538 
L 647.035714 180480.478538 
L 645.881955 180480.478538 
L 644.728195 180480.478538 
L 643.574436 180480.478538 
L 642.420677 180480.478538 
L 641.266917 180480.478538 
L 640.113158 180480.478538 
L 638.959398 180480.478538 
L 637.805639 180480.478538 
L 636.65188 180480.478538 
L 635.49812 180480.478538 
L 634.344361 180480.478538 
L 633.190602 180480.478538 
L 632.036842 180480.478538 
L 630.883083 180480.478538 
L 629.729323 180480.478538 
L 628.575564 180480.478538 
L 627.421805 180480.478538 
L 626.268045 180480.478538 
L 625.114286 180480.478538 
L 623.960526 180480.478538 
L 622.806767 180480.478538 
L 621.653008 180480.478538 
L 620.499248 180480.478538 
L 619.345489 180480.478538 
L 618.191729 180480.478538 
L 617.03797 180480.478538 
L 615.884211 180480.478538 
L 614.730451 180480.478538 
L 613.576692 180480.478538 
L 612.422932 180480.478538 
L 611.269173 180480.478538 
L 610.115414 180480.478538 
L 608.961654 180480.478538 
L 607.807895 180480.478538 
L 606.654135 180480.478538 
L 605.500376 180480.478538 
L 604.346617 180480.478538 
L 603.192857 180480.478538 
L 602.039098 180480.478538 
L 600.885338 180480.478538 
L 599.731579 180480.478538 
L 598.57782 180480.478538 
L 597.42406 180480.478538 
L 596.270301 180480.478538 
L 595.116541 180480.478538 
L 593.962782 180480.478538 
L 592.809023 180480.478538 
L 591.655263 180480.478538 
L 590.501504 180480.478538 
L 589.347744 180480.478538 
L 588.193985 180480.478538 
L 587.040226 180480.478538 
L 585.886466 180480.478538 
L 584.732707 180480.478538 
L 583.578947 180480.478538 
L 582.425188 180480.478538 
L 581.271429 180480.478538 
L 580.117669 180480.478538 
L 578.96391 180480.478538 
L 577.81015 180480.478538 
L 576.656391 180480.478538 
L 575.502632 180480.478538 
L 574.348872 180480.478538 
L 573.195113 180480.478538 
L 572.041353 180480.478538 
L 570.887594 180480.478538 
L 569.733835 180480.478538 
L 568.580075 180480.478538 
L 567.426316 180480.478538 
L 566.272556 180480.478538 
L 565.118797 180480.478538 
L 563.965038 180480.478538 
L 562.811278 180480.478538 
L 561.657519 180480.478538 
L 560.503759 180480.478538 
L 559.35 180480.478538 
L 558.196241 180480.478538 
L 557.042481 180480.478538 
L 555.888722 180480.478538 
L 554.734962 180480.478538 
L 553.581203 180480.478538 
L 552.427444 180480.478538 
L 551.273684 180480.478538 
L 550.119925 180480.478538 
L 548.966165 180480.478538 
L 547.812406 180480.478538 
L 546.658647 180480.478538 
L 545.504887 180480.478538 
L 544.351128 180480.478538 
L 543.197368 180480.478538 
L 542.043609 180480.478538 
L 540.88985 180480.478538 
L 539.73609 180480.478538 
L 538.582331 180480.478538 
L 537.428571 180480.478538 
L 536.274812 180480.478538 
L 535.121053 180480.478538 
L 533.967293 180480.478538 
L 532.813534 180480.478538 
L 531.659774 180480.478538 
L 530.506015 180480.478538 
L 529.352256 180480.478538 
L 528.198496 180480.478538 
L 527.044737 180480.478538 
L 525.890977 180480.478538 
L 524.737218 180480.478538 
L 523.583459 180480.478538 
L 522.429699 180480.478538 
L 521.27594 180480.478538 
L 520.12218 180480.478538 
L 518.968421 180480.478538 
L 517.814662 180480.478538 
L 516.660902 180480.478538 
L 515.507143 180480.478538 
L 514.353383 180480.478538 
L 513.199624 180480.478538 
L 512.045865 180480.478538 
L 510.892105 180480.478538 
L 509.738346 180480.478538 
L 508.584586 180480.478538 
L 507.430827 180480.478538 
L 506.277068 180480.478538 
L 505.123308 180480.478538 
L 503.969549 180480.478538 
L 502.815789 180480.478538 
L 501.66203 180480.478538 
L 500.508271 180480.478538 
L 499.354511 180480.478538 
L 498.200752 180480.478538 
L 497.046992 180480.478538 
L 495.893233 180480.478538 
L 494.739474 180480.478538 
L 493.585714 180480.478538 
L 492.431955 180480.478538 
L 491.278195 180480.478538 
L 490.124436 180480.478538 
L 488.970677 180480.478538 
L 487.816917 180480.478538 
L 486.663158 180480.478538 
L 485.509398 180480.478538 
L 484.355639 180480.478538 
L 483.20188 180480.478538 
L 482.04812 180480.478538 
L 480.894361 180480.478538 
L 479.740602 368.930371 
L 478.586842 180480.478538 
L 477.433083 368.930371 
L 476.279323 368.930371 
L 475.125564 180480.478538 
L 473.971805 180480.478538 
L 472.818045 180480.478538 
L 471.664286 180480.478538 
L 470.510526 180480.478538 
L 469.356767 180480.478538 
L 468.203008 180480.478538 
L 467.049248 180480.478538 
L 465.895489 180480.478538 
L 464.741729 180480.478538 
L 463.58797 180480.478538 
L 462.434211 180480.478538 
L 461.280451 180480.478538 
L 460.126692 180480.478538 
L 458.972932 180480.478538 
L 457.819173 180480.478538 
L 456.665414 180480.478538 
L 455.511654 180480.478538 
L 454.357895 180480.478538 
L 453.204135 180480.478538 
L 452.050376 180480.478538 
L 450.896617 180480.478538 
L 449.742857 180480.478538 
L 448.589098 180480.478538 
L 447.435338 180480.478538 
L 446.281579 180480.478538 
L 445.12782 180480.478538 
L 443.97406 180480.478538 
L 442.820301 180480.478538 
L 441.666541 180480.478538 
L 440.512782 180480.478538 
L 439.359023 180480.478538 
L 438.205263 180480.478538 
L 437.051504 180480.478538 
L 435.897744 180480.478538 
L 434.743985 180480.478538 
L 433.590226 180480.478538 
L 432.436466 180480.478538 
L 431.282707 297.29663 
L 430.128947 297.29663 
L 428.975188 297.29663 
L 427.821429 297.29663 
L 426.667669 297.29663 
L 425.51391 297.29663 
L 424.36015 297.29663 
L 423.206391 282.322563 
L 422.052632 297.29663 
L 420.898872 180480.478538 
L 419.745113 180480.478538 
L 418.591353 180480.478538 
L 417.437594 180480.478538 
L 416.283835 180480.478538 
L 415.130075 180480.478538 
L 413.976316 180480.478538 
L 412.822556 368.930371 
L 411.668797 180480.478538 
L 410.515038 180480.478538 
L 409.361278 180480.478538 
L 408.207519 180480.478538 
L 407.053759 180480.478538 
L 405.9 180480.478538 
L 404.746241 180480.478538 
L 403.592481 180480.478538 
L 402.438722 391.420769 
L 401.284962 391.420769 
L 400.131203 391.420769 
L 398.977444 391.420769 
L 397.823684 180480.478538 
L 396.669925 180480.478538 
L 395.516165 391.420769 
L 394.362406 391.420769 
L 393.208647 391.420769 
L 392.054887 391.420769 
L 390.901128 180480.478538 
L 389.747368 180480.478538 
L 388.593609 180480.478538 
L 387.43985 180480.478538 
L 386.28609 180480.478538 
L 385.132331 180480.478538 
L 383.978571 180480.478538 
L 382.824812 180480.478538 
L 381.671053 180480.478538 
L 380.517293 180480.478538 
L 379.363534 180480.478538 
L 378.209774 180480.478538 
L 377.056015 180480.478538 
L 375.902256 180480.478538 
L 374.748496 180480.478538 
L 373.594737 180480.478538 
L 372.440977 180480.478538 
L 371.287218 180480.478538 
L 370.133459 180480.478538 
L 368.979699 180480.478538 
L 367.82594 180480.478538 
L 366.67218 180480.478538 
L 365.518421 180480.478538 
L 364.364662 180480.478538 
L 363.210902 180480.478538 
L 362.057143 180480.478538 
L 360.903383 180480.478538 
L 359.749624 180480.478538 
L 358.595865 180480.478538 
L 357.442105 180480.478538 
L 356.288346 180480.478538 
L 355.134586 180480.478538 
L 353.980827 180480.478538 
L 352.827068 180480.478538 
L 351.673308 180480.478538 
L 350.519549 180480.478538 
L 349.365789 180480.478538 
L 348.21203 180480.478538 
L 347.058271 180480.478538 
L 345.904511 180480.478538 
L 344.750752 180480.478538 
L 343.596992 180480.478538 
L 342.443233 180480.478538 
L 341.289474 180480.478538 
L 340.135714 180480.478538 
L 338.981955 180480.478538 
L 337.828195 180480.478538 
L 336.674436 180480.478538 
L 335.520677 180480.478538 
L 334.366917 180480.478538 
L 333.213158 180480.478538 
L 332.059398 180480.478538 
L 330.905639 180480.478538 
L 329.75188 180480.478538 
L 328.59812 180480.478538 
L 327.444361 180480.478538 
L 326.290602 180480.478538 
L 325.136842 180480.478538 
L 323.983083 180480.478538 
L 322.829323 180480.478538 
L 321.675564 180480.478538 
L 320.521805 180480.478538 
L 319.368045 180480.478538 
L 318.214286 477.308037 
L 317.060526 477.308037 
L 315.906767 469.071167 
L 314.753008 477.308037 
L 313.599248 477.308037 
L 312.445489 469.071167 
L 311.291729 469.071167 
L 310.13797 469.071167 
L 308.984211 366.788375 
L 307.830451 366.788375 
L 306.676692 366.788375 
L 305.522932 366.788375 
L 304.369173 469.071167 
L 303.215414 366.788375 
L 302.061654 366.788375 
L 300.907895 366.788375 
L 299.754135 477.308037 
L 298.600376 366.788375 
L 297.446617 366.788375 
L 296.292857 344.827999 
L 295.139098 343.248593 
L 293.985338 267.949588 
L 292.831579 266.765051 
L 291.67782 325.18075 
L 290.52406 266.765051 
L 289.370301 266.765051 
L 288.216541 266.765051 
L 287.062782 266.765051 
L 285.909023 243.981302 
L 284.755263 243.981302 
L 283.601504 243.981302 
L 282.447744 318.068761 
L 281.293985 318.068761 
L 280.140226 318.068761 
L 278.986466 318.068761 
L 277.832707 318.068761 
L 276.678947 337.231935 
L 275.525188 262.198617 
L 274.371429 262.198617 
L 273.217669 337.231935 
L 272.06391 292.25114 
L 270.91015 337.231935 
L 269.756391 337.231935 
L 268.602632 337.231935 
L 267.448872 337.231935 
L 266.295113 305.5335 
L 265.141353 337.231935 
L 263.987594 337.231935 
L 262.833835 180480.478538 
L 261.680075 180480.478538 
L 260.526316 180480.478538 
L 259.372556 180480.478538 
L 258.218797 180480.478538 
L 257.065038 337.231935 
L 255.911278 337.231935 
L 254.757519 328.995065 
L 253.603759 328.995065 
L 252.45 328.995065 
L 251.296241 292.25114 
L 250.142481 285.245444 
L 248.988722 283.043102 
L 247.834962 283.043102 
L 246.681203 283.043102 
L 245.527444 299.946984 
L 244.373684 299.946984 
L 243.219925 328.995065 
L 242.066165 328.995065 
L 240.912406 328.995065 
L 239.758647 331.645419 
L 238.604887 331.645419 
L 237.451128 362.672795 
L 236.297368 385.834252 
L 235.143609 418.892339 
L 233.98985 477.308037 
L 232.83609 477.308037 
L 231.682331 477.308037 
L 230.528571 477.308037 
L 229.374812 180480.478538 
L 228.221053 180480.478538 
L 227.067293 180480.478538 
L 225.913534 180480.478538 
L 224.759774 180480.478538 
L 223.606015 180480.478538 
L 222.452256 180480.478538 
L 221.298496 180480.478538 
L 220.144737 180480.478538 
L 218.990977 180480.478538 
L 217.837218 180480.478538 
L 216.683459 180480.478538 
L 215.529699 180480.478538 
L 214.37594 180480.478538 
L 213.22218 180480.478538 
L 212.068421 180480.478538 
L 210.914662 180480.478538 
L 209.760902 180480.478538 
L 208.607143 180480.478538 
L 207.453383 180480.478538 
L 206.299624 180480.478538 
L 205.145865 180480.478538 
L 203.992105 180480.478538 
L 202.838346 180480.478538 
L 201.684586 180480.478538 
L 200.530827 180480.478538 
L 199.377068 180480.478538 
L 198.223308 180480.478538 
L 197.069549 180480.478538 
L 195.915789 180480.478538 
L 194.76203 180480.478538 
L 193.608271 180480.478538 
L 192.454511 180480.478538 
L 191.300752 180480.478538 
L 190.146992 180480.478538 
L 188.993233 180480.478538 
L 187.839474 180480.478538 
L 186.685714 180480.478538 
L 185.531955 180480.478538 
L 184.378195 180480.478538 
L 183.224436 180480.478538 
L 182.070677 180480.478538 
L 180.916917 180480.478538 
L 179.763158 180480.478538 
L 178.609398 180480.478538 
L 177.455639 180480.478538 
L 176.30188 180480.478538 
L 175.14812 180480.478538 
L 173.994361 180480.478538 
L 172.840602 180480.478538 
L 171.686842 180480.478538 
L 170.533083 180480.478538 
L 169.379323 180480.478538 
L 168.225564 180480.478538 
L 167.071805 180480.478538 
L 165.918045 180480.478538 
L 164.764286 180480.478538 
L 163.610526 180480.478538 
L 162.456767 180480.478538 
L 161.303008 180480.478538 
L 160.149248 180480.478538 
L 158.995489 180480.478538 
L 157.841729 180480.478538 
L 156.68797 180480.478538 
L 155.534211 180480.478538 
L 154.380451 180480.478538 
L 153.226692 180480.478538 
L 152.072932 180480.478538 
L 150.919173 180480.478538 
L 149.765414 180480.478538 
L 148.611654 180480.478538 
L 147.457895 180480.478538 
L 146.304135 180480.478538 
L 145.150376 180480.478538 
L 143.996617 180480.478538 
L 142.842857 180480.478538 
L 141.689098 180480.478538 
L 140.535338 180480.478538 
L 139.381579 180480.478538 
L 138.22782 180480.478538 
L 137.07406 180480.478538 
L 135.920301 180480.478538 
L 134.766541 180480.478538 
L 133.612782 180480.478538 
L 132.459023 180480.478538 
L 131.305263 477.308037 
L 130.151504 477.308037 
L 128.997744 477.308037 
L 127.843985 180480.478538 
L 126.690226 180480.478538 
L 125.536466 180480.478538 
L 124.382707 180480.478538 
L 123.228947 180480.478538 
L 122.075188 180480.478538 
L 120.921429 180480.478538 
L 119.767669 180480.478538 
L 118.61391 180480.478538 
L 117.46015 180480.478538 
L 116.306391 180480.478538 
L 115.152632 180480.478538 
L 113.998872 180480.478538 
L 112.845113 180480.478538 
L 111.691353 180480.478538 
L 110.537594 180480.478538 
L 109.383835 180480.478538 
L 108.230075 180480.478538 
L 107.076316 180480.478538 
L 105.922556 180480.478538 
L 104.768797 180480.478538 
L 103.615038 180480.478538 
L 102.461278 180480.478538 
L 101.307519 180480.478538 
L 100.153759 180480.478538 
L 99 180480.478538 
z
" style="fill:#8080ff;fill-opacity:0.5;stroke:#8080ff;stroke-opacity:0.5;"/>
   </g>
   <g id="PolyCollection_2">
    <path clip-path="url(#p68e2955192)" d="M 99 180480.478538 
L 99 180480.478538 
L 100.153759 180480.478538 
L 101.307519 180480.478538 
L 102.461278 180480.478538 
L 103.615038 180480.478538 
L 104.768797 180480.478538 
L 105.922556 180480.478538 
L 107.076316 180480.478538 
L 108.230075 180480.478538 
L 109.383835 180480.478538 
L 110.537594 180480.478538 
L 111.691353 180480.478538 
L 112.845113 180480.478538 
L 113.998872 180480.478538 
L 115.152632 180480.478538 
L 116.306391 180480.478538 
L 117.46015 180480.478538 
L 118.61391 180480.478538 
L 119.767669 180480.478538 
L 120.921429 180480.478538 
L 122.075188 180480.478538 
L 123.228947 180480.478538 
L 124.382707 180480.478538 
L 125.536466 180480.478538 
L 126.690226 180480.478538 
L 127.843985 180480.478538 
L 128.997744 180480.478538 
L 130.151504 180480.478538 
L 131.305263 180480.478538 
L 132.459023 180480.478538 
L 133.612782 180480.478538 
L 134.766541 180480.478538 
L 135.920301 180480.478538 
L 137.07406 496.955287 
L 138.22782 469.071167 
L 139.381579 469.071167 
L 140.535338 469.071167 
L 141.689098 496.955287 
L 142.842857 496.955287 
L 143.996617 496.955287 
L 145.150376 496.955287 
L 146.304135 496.955287 
L 147.457895 469.071167 
L 148.611654 469.071167 
L 149.765414 469.071167 
L 150.919173 469.071167 
L 152.072932 469.071167 
L 153.226692 496.955287 
L 154.380451 180480.478538 
L 155.534211 180480.478538 
L 156.68797 180480.478538 
L 157.841729 180480.478538 
L 158.995489 180480.478538 
L 160.149248 180480.478538 
L 161.303008 180480.478538 
L 162.456767 180480.478538 
L 163.610526 180480.478538 
L 164.764286 180480.478538 
L 165.918045 496.955287 
L 167.071805 496.955287 
L 168.225564 496.955287 
L 169.379323 496.955287 
L 170.533083 496.955287 
L 171.686842 496.955287 
L 172.840602 496.955287 
L 173.994361 496.955287 
L 175.14812 496.955287 
L 176.30188 496.955287 
L 177.455639 496.955287 
L 178.609398 496.955287 
L 179.763158 496.955287 
L 180.916917 180480.478538 
L 182.070677 180480.478538 
L 183.224436 180480.478538 
L 184.378195 180480.478538 
L 185.531955 180480.478538 
L 186.685714 180480.478538 
L 187.839474 180480.478538 
L 188.993233 180480.478538 
L 190.146992 180480.478538 
L 191.300752 180480.478538 
L 192.454511 180480.478538 
L 193.608271 180480.478538 
L 194.76203 180480.478538 
L 195.915789 180480.478538 
L 197.069549 180480.478538 
L 198.223308 180480.478538 
L 199.377068 180480.478538 
L 200.530827 180480.478538 
L 201.684586 180480.478538 
L 202.838346 180480.478538 
L 203.992105 180480.478538 
L 205.145865 180480.478538 
L 206.299624 180480.478538 
L 207.453383 180480.478538 
L 208.607143 180480.478538 
L 209.760902 180480.478538 
L 210.914662 180480.478538 
L 212.068421 180480.478538 
L 213.22218 180480.478538 
L 214.37594 180480.478538 
L 215.529699 180480.478538 
L 216.683459 180480.478538 
L 217.837218 180480.478538 
L 218.990977 180480.478538 
L 220.144737 180480.478538 
L 221.298496 180480.478538 
L 222.452256 180480.478538 
L 223.606015 180480.478538 
L 224.759774 180480.478538 
L 225.913534 180480.478538 
L 227.067293 180480.478538 
L 228.221053 180480.478538 
L 229.374812 180480.478538 
L 230.528571 180480.478538 
L 231.682331 180480.478538 
L 232.83609 180480.478538 
L 233.98985 180480.478538 
L 235.143609 180480.478538 
L 236.297368 180480.478538 
L 237.451128 180480.478538 
L 238.604887 180480.478538 
L 239.758647 180480.478538 
L 240.912406 180480.478538 
L 242.066165 180480.478538 
L 243.219925 180480.478538 
L 244.373684 180480.478538 
L 245.527444 180480.478538 
L 246.681203 180480.478538 
L 247.834962 180480.478538 
L 248.988722 180480.478538 
L 250.142481 180480.478538 
L 251.296241 180480.478538 
L 252.45 180480.478538 
L 253.603759 180480.478538 
L 254.757519 180480.478538 
L 255.911278 180480.478538 
L 257.065038 496.955287 
L 258.218797 496.955287 
L 259.372556 496.955287 
L 260.526316 496.955287 
L 261.680075 496.955287 
L 262.833835 496.955287 
L 263.987594 496.955287 
L 265.141353 496.955287 
L 266.295113 496.955287 
L 267.448872 496.955287 
L 268.602632 496.955287 
L 269.756391 496.955287 
L 270.91015 496.955287 
L 272.06391 496.955287 
L 273.217669 180480.478538 
L 274.371429 180480.478538 
L 275.525188 180480.478538 
L 276.678947 180480.478538 
L 277.832707 180480.478538 
L 278.986466 180480.478538 
L 280.140226 180480.478538 
L 281.293985 180480.478538 
L 282.447744 180480.478538 
L 283.601504 180480.478538 
L 284.755263 180480.478538 
L 285.909023 496.955287 
L 287.062782 469.071167 
L 288.216541 469.071167 
L 289.370301 469.071167 
L 290.52406 469.071167 
L 291.67782 469.071167 
L 292.831579 469.071167 
L 293.985338 469.071167 
L 295.139098 469.071167 
L 296.292857 469.071167 
L 297.446617 469.071167 
L 298.600376 469.071167 
L 299.754135 469.071167 
L 300.907895 469.071167 
L 302.061654 469.071167 
L 303.215414 469.071167 
L 304.369173 469.071167 
L 305.522932 469.071167 
L 306.676692 469.071167 
L 307.830451 469.071167 
L 308.984211 469.071167 
L 310.13797 469.071167 
L 311.291729 469.071167 
L 312.445489 469.071167 
L 313.599248 469.071167 
L 314.753008 469.071167 
L 315.906767 469.071167 
L 317.060526 469.071167 
L 318.214286 496.955287 
L 319.368045 496.955287 
L 320.521805 180480.478538 
L 321.675564 180480.478538 
L 322.829323 180480.478538 
L 323.983083 180480.478538 
L 325.136842 180480.478538 
L 326.290602 180480.478538 
L 327.444361 180480.478538 
L 328.59812 180480.478538 
L 329.75188 180480.478538 
L 330.905639 180480.478538 
L 332.059398 180480.478538 
L 333.213158 180480.478538 
L 334.366917 180480.478538 
L 335.520677 180480.478538 
L 336.674436 180480.478538 
L 337.828195 180480.478538 
L 338.981955 180480.478538 
L 340.135714 180480.478538 
L 341.289474 180480.478538 
L 342.443233 180480.478538 
L 343.596992 180480.478538 
L 344.750752 180480.478538 
L 345.904511 180480.478538 
L 347.058271 180480.478538 
L 348.21203 180480.478538 
L 349.365789 180480.478538 
L 350.519549 180480.478538 
L 351.673308 180480.478538 
L 352.827068 180480.478538 
L 353.980827 180480.478538 
L 355.134586 180480.478538 
L 356.288346 180480.478538 
L 357.442105 180480.478538 
L 358.595865 180480.478538 
L 359.749624 180480.478538 
L 360.903383 180480.478538 
L 362.057143 180480.478538 
L 363.210902 180480.478538 
L 364.364662 180480.478538 
L 365.518421 180480.478538 
L 366.67218 180480.478538 
L 367.82594 180480.478538 
L 368.979699 180480.478538 
L 370.133459 496.955287 
L 371.287218 496.955287 
L 372.440977 496.955287 
L 373.594737 496.955287 
L 374.748496 496.955287 
L 375.902256 496.955287 
L 377.056015 496.955287 
L 378.209774 496.955287 
L 379.363534 496.955287 
L 380.517293 496.955287 
L 381.671053 496.955287 
L 382.824812 496.955287 
L 383.978571 496.955287 
L 385.132331 180480.478538 
L 386.28609 180480.478538 
L 387.43985 180480.478538 
L 388.593609 180480.478538 
L 389.747368 180480.478538 
L 390.901128 180480.478538 
L 392.054887 180480.478538 
L 393.208647 180480.478538 
L 394.362406 180480.478538 
L 395.516165 180480.478538 
L 396.669925 180480.478538 
L 397.823684 180480.478538 
L 398.977444 180480.478538 
L 400.131203 180480.478538 
L 401.284962 180480.478538 
L 402.438722 180480.478538 
L 403.592481 180480.478538 
L 404.746241 180480.478538 
L 405.9 180480.478538 
L 407.053759 180480.478538 
L 408.207519 180480.478538 
L 409.361278 180480.478538 
L 410.515038 180480.478538 
L 411.668797 180480.478538 
L 412.822556 180480.478538 
L 413.976316 180480.478538 
L 415.130075 180480.478538 
L 416.283835 180480.478538 
L 417.437594 180480.478538 
L 418.591353 180480.478538 
L 419.745113 180480.478538 
L 420.898872 180480.478538 
L 422.052632 180480.478538 
L 423.206391 180480.478538 
L 424.36015 180480.478538 
L 425.51391 180480.478538 
L 426.667669 180480.478538 
L 427.821429 180480.478538 
L 428.975188 180480.478538 
L 430.128947 180480.478538 
L 431.282707 180480.478538 
L 432.436466 180480.478538 
L 433.590226 180480.478538 
L 434.743985 180480.478538 
L 435.897744 180480.478538 
L 437.051504 180480.478538 
L 438.205263 180480.478538 
L 439.359023 180480.478538 
L 440.512782 180480.478538 
L 441.666541 180480.478538 
L 442.820301 180480.478538 
L 443.97406 180480.478538 
L 445.12782 180480.478538 
L 446.281579 180480.478538 
L 447.435338 180480.478538 
L 448.589098 180480.478538 
L 449.742857 180480.478538 
L 450.896617 180480.478538 
L 452.050376 180480.478538 
L 453.204135 180480.478538 
L 454.357895 180480.478538 
L 455.511654 180480.478538 
L 456.665414 180480.478538 
L 457.819173 180480.478538 
L 458.972932 180480.478538 
L 460.126692 180480.478538 
L 461.280451 180480.478538 
L 462.434211 180480.478538 
L 463.58797 180480.478538 
L 464.741729 180480.478538 
L 465.895489 180480.478538 
L 467.049248 180480.478538 
L 468.203008 180480.478538 
L 469.356767 180480.478538 
L 470.510526 180480.478538 
L 471.664286 180480.478538 
L 472.818045 180480.478538 
L 473.971805 180480.478538 
L 475.125564 180480.478538 
L 476.279323 180480.478538 
L 477.433083 180480.478538 
L 478.586842 180480.478538 
L 479.740602 180480.478538 
L 480.894361 180480.478538 
L 482.04812 180480.478538 
L 483.20188 180480.478538 
L 484.355639 180480.478538 
L 485.509398 180480.478538 
L 486.663158 180480.478538 
L 487.816917 180480.478538 
L 488.970677 180480.478538 
L 490.124436 180480.478538 
L 491.278195 180480.478538 
L 492.431955 180480.478538 
L 493.585714 180480.478538 
L 494.739474 180480.478538 
L 495.893233 180480.478538 
L 497.046992 180480.478538 
L 498.200752 180480.478538 
L 499.354511 180480.478538 
L 500.508271 180480.478538 
L 501.66203 180480.478538 
L 502.815789 180480.478538 
L 503.969549 180480.478538 
L 505.123308 180480.478538 
L 506.277068 180480.478538 
L 507.430827 180480.478538 
L 508.584586 180480.478538 
L 509.738346 180480.478538 
L 510.892105 180480.478538 
L 512.045865 180480.478538 
L 513.199624 180480.478538 
L 514.353383 180480.478538 
L 515.507143 180480.478538 
L 516.660902 180480.478538 
L 517.814662 180480.478538 
L 518.968421 180480.478538 
L 520.12218 180480.478538 
L 521.27594 180480.478538 
L 522.429699 180480.478538 
L 523.583459 180480.478538 
L 524.737218 180480.478538 
L 525.890977 180480.478538 
L 527.044737 180480.478538 
L 528.198496 180480.478538 
L 529.352256 180480.478538 
L 530.506015 180480.478538 
L 531.659774 180480.478538 
L 532.813534 180480.478538 
L 533.967293 180480.478538 
L 535.121053 180480.478538 
L 536.274812 180480.478538 
L 537.428571 180480.478538 
L 538.582331 180480.478538 
L 539.73609 180480.478538 
L 540.88985 180480.478538 
L 542.043609 180480.478538 
L 543.197368 180480.478538 
L 544.351128 180480.478538 
L 545.504887 180480.478538 
L 546.658647 180480.478538 
L 547.812406 180480.478538 
L 548.966165 180480.478538 
L 550.119925 180480.478538 
L 551.273684 180480.478538 
L 552.427444 180480.478538 
L 553.581203 180480.478538 
L 554.734962 180480.478538 
L 555.888722 180480.478538 
L 557.042481 180480.478538 
L 558.196241 180480.478538 
L 559.35 180480.478538 
L 560.503759 180480.478538 
L 561.657519 180480.478538 
L 562.811278 180480.478538 
L 563.965038 180480.478538 
L 565.118797 180480.478538 
L 566.272556 180480.478538 
L 567.426316 180480.478538 
L 568.580075 180480.478538 
L 569.733835 180480.478538 
L 570.887594 180480.478538 
L 572.041353 180480.478538 
L 573.195113 180480.478538 
L 574.348872 180480.478538 
L 575.502632 180480.478538 
L 576.656391 180480.478538 
L 577.81015 180480.478538 
L 578.96391 180480.478538 
L 580.117669 180480.478538 
L 581.271429 180480.478538 
L 582.425188 180480.478538 
L 583.578947 180480.478538 
L 584.732707 180480.478538 
L 585.886466 180480.478538 
L 587.040226 180480.478538 
L 588.193985 180480.478538 
L 589.347744 180480.478538 
L 590.501504 180480.478538 
L 591.655263 180480.478538 
L 592.809023 180480.478538 
L 593.962782 180480.478538 
L 595.116541 180480.478538 
L 596.270301 180480.478538 
L 597.42406 180480.478538 
L 598.57782 180480.478538 
L 599.731579 180480.478538 
L 600.885338 180480.478538 
L 602.039098 180480.478538 
L 603.192857 180480.478538 
L 604.346617 180480.478538 
L 605.500376 180480.478538 
L 606.654135 180480.478538 
L 607.807895 180480.478538 
L 608.961654 180480.478538 
L 610.115414 180480.478538 
L 611.269173 180480.478538 
L 612.422932 180480.478538 
L 613.576692 180480.478538 
L 614.730451 180480.478538 
L 615.884211 180480.478538 
L 617.03797 180480.478538 
L 618.191729 180480.478538 
L 619.345489 180480.478538 
L 620.499248 180480.478538 
L 621.653008 180480.478538 
L 622.806767 180480.478538 
L 623.960526 180480.478538 
L 625.114286 180480.478538 
L 626.268045 180480.478538 
L 627.421805 496.955287 
L 628.575564 496.955287 
L 629.729323 496.955287 
L 630.883083 496.955287 
L 632.036842 496.955287 
L 633.190602 496.955287 
L 634.344361 496.955287 
L 635.49812 496.955287 
L 636.65188 496.955287 
L 637.805639 496.955287 
L 638.959398 496.955287 
L 640.113158 496.955287 
L 641.266917 496.955287 
L 642.420677 496.955287 
L 643.574436 180480.478538 
L 644.728195 180480.478538 
L 645.881955 180480.478538 
L 647.035714 180480.478538 
L 648.189474 180480.478538 
L 649.343233 180480.478538 
L 650.496992 180480.478538 
L 651.650752 180480.478538 
L 652.804511 180480.478538 
L 653.958271 180480.478538 
L 655.11203 180480.478538 
L 656.265789 180480.478538 
L 657.419549 180480.478538 
L 658.573308 180480.478538 
L 659.727068 180480.478538 
L 660.880827 180480.478538 
L 662.034586 180480.478538 
L 663.188346 180480.478538 
L 664.342105 180480.478538 
L 665.495865 180480.478538 
L 666.649624 180480.478538 
L 667.803383 180480.478538 
L 668.957143 180480.478538 
L 670.110902 180480.478538 
L 671.264662 180480.478538 
L 672.418421 180480.478538 
L 673.57218 180480.478538 
L 674.72594 180480.478538 
L 675.879699 180480.478538 
L 677.033459 180480.478538 
L 678.187218 496.955287 
L 679.340977 496.955287 
L 680.494737 496.955287 
L 681.648496 496.955287 
L 682.802256 469.071167 
L 683.956015 427.587732 
L 685.109774 427.587732 
L 686.263534 469.071167 
L 687.417293 469.071167 
L 688.571053 469.071167 
L 689.724812 469.071167 
L 690.878571 469.071167 
L 692.032331 469.071167 
L 693.18609 469.071167 
L 694.33985 469.071167 
L 695.493609 469.071167 
L 696.647368 469.071167 
L 697.801128 469.071167 
L 698.954887 469.071167 
L 700.108647 496.955287 
L 701.262406 496.955287 
L 702.416165 496.955287 
L 703.569925 496.955287 
L 704.723684 496.955287 
L 705.877444 469.071167 
L 707.031203 469.071167 
L 708.184962 400.628806 
L 709.338722 400.628806 
L 710.492481 400.628806 
L 711.646241 391.420769 
L 712.8 391.420769 
L 712.8 180480.478538 
L 712.8 180480.478538 
L 711.646241 180480.478538 
L 710.492481 180480.478538 
L 709.338722 180480.478538 
L 708.184962 180480.478538 
L 707.031203 180480.478538 
L 705.877444 180480.478538 
L 704.723684 180480.478538 
L 703.569925 180480.478538 
L 702.416165 180480.478538 
L 701.262406 180480.478538 
L 700.108647 180480.478538 
L 698.954887 180480.478538 
L 697.801128 180480.478538 
L 696.647368 180480.478538 
L 695.493609 180480.478538 
L 694.33985 180480.478538 
L 693.18609 180480.478538 
L 692.032331 180480.478538 
L 690.878571 180480.478538 
L 689.724812 180480.478538 
L 688.571053 180480.478538 
L 687.417293 180480.478538 
L 686.263534 180480.478538 
L 685.109774 180480.478538 
L 683.956015 180480.478538 
L 682.802256 180480.478538 
L 681.648496 180480.478538 
L 680.494737 180480.478538 
L 679.340977 180480.478538 
L 678.187218 180480.478538 
L 677.033459 180480.478538 
L 675.879699 180480.478538 
L 674.72594 180480.478538 
L 673.57218 180480.478538 
L 672.418421 180480.478538 
L 671.264662 180480.478538 
L 670.110902 180480.478538 
L 668.957143 180480.478538 
L 667.803383 180480.478538 
L 666.649624 180480.478538 
L 665.495865 180480.478538 
L 664.342105 180480.478538 
L 663.188346 180480.478538 
L 662.034586 180480.478538 
L 660.880827 180480.478538 
L 659.727068 180480.478538 
L 658.573308 180480.478538 
L 657.419549 180480.478538 
L 656.265789 180480.478538 
L 655.11203 180480.478538 
L 653.958271 180480.478538 
L 652.804511 180480.478538 
L 651.650752 180480.478538 
L 650.496992 180480.478538 
L 649.343233 180480.478538 
L 648.189474 180480.478538 
L 647.035714 180480.478538 
L 645.881955 180480.478538 
L 644.728195 180480.478538 
L 643.574436 180480.478538 
L 642.420677 180480.478538 
L 641.266917 180480.478538 
L 640.113158 180480.478538 
L 638.959398 180480.478538 
L 637.805639 180480.478538 
L 636.65188 180480.478538 
L 635.49812 180480.478538 
L 634.344361 180480.478538 
L 633.190602 180480.478538 
L 632.036842 180480.478538 
L 630.883083 180480.478538 
L 629.729323 180480.478538 
L 628.575564 180480.478538 
L 627.421805 180480.478538 
L 626.268045 180480.478538 
L 625.114286 180480.478538 
L 623.960526 180480.478538 
L 622.806767 180480.478538 
L 621.653008 180480.478538 
L 620.499248 180480.478538 
L 619.345489 180480.478538 
L 618.191729 180480.478538 
L 617.03797 180480.478538 
L 615.884211 180480.478538 
L 614.730451 180480.478538 
L 613.576692 180480.478538 
L 612.422932 180480.478538 
L 611.269173 180480.478538 
L 610.115414 180480.478538 
L 608.961654 180480.478538 
L 607.807895 180480.478538 
L 606.654135 180480.478538 
L 605.500376 180480.478538 
L 604.346617 180480.478538 
L 603.192857 180480.478538 
L 602.039098 180480.478538 
L 600.885338 180480.478538 
L 599.731579 180480.478538 
L 598.57782 180480.478538 
L 597.42406 180480.478538 
L 596.270301 180480.478538 
L 595.116541 180480.478538 
L 593.962782 180480.478538 
L 592.809023 180480.478538 
L 591.655263 180480.478538 
L 590.501504 180480.478538 
L 589.347744 180480.478538 
L 588.193985 180480.478538 
L 587.040226 180480.478538 
L 585.886466 180480.478538 
L 584.732707 180480.478538 
L 583.578947 180480.478538 
L 582.425188 180480.478538 
L 581.271429 180480.478538 
L 580.117669 180480.478538 
L 578.96391 180480.478538 
L 577.81015 180480.478538 
L 576.656391 180480.478538 
L 575.502632 180480.478538 
L 574.348872 180480.478538 
L 573.195113 180480.478538 
L 572.041353 180480.478538 
L 570.887594 180480.478538 
L 569.733835 180480.478538 
L 568.580075 180480.478538 
L 567.426316 180480.478538 
L 566.272556 180480.478538 
L 565.118797 180480.478538 
L 563.965038 180480.478538 
L 562.811278 180480.478538 
L 561.657519 180480.478538 
L 560.503759 180480.478538 
L 559.35 180480.478538 
L 558.196241 180480.478538 
L 557.042481 180480.478538 
L 555.888722 180480.478538 
L 554.734962 180480.478538 
L 553.581203 180480.478538 
L 552.427444 180480.478538 
L 551.273684 180480.478538 
L 550.119925 180480.478538 
L 548.966165 180480.478538 
L 547.812406 180480.478538 
L 546.658647 180480.478538 
L 545.504887 180480.478538 
L 544.351128 180480.478538 
L 543.197368 180480.478538 
L 542.043609 180480.478538 
L 540.88985 180480.478538 
L 539.73609 180480.478538 
L 538.582331 180480.478538 
L 537.428571 180480.478538 
L 536.274812 180480.478538 
L 535.121053 180480.478538 
L 533.967293 180480.478538 
L 532.813534 180480.478538 
L 531.659774 180480.478538 
L 530.506015 180480.478538 
L 529.352256 180480.478538 
L 528.198496 180480.478538 
L 527.044737 180480.478538 
L 525.890977 180480.478538 
L 524.737218 180480.478538 
L 523.583459 180480.478538 
L 522.429699 180480.478538 
L 521.27594 180480.478538 
L 520.12218 180480.478538 
L 518.968421 180480.478538 
L 517.814662 180480.478538 
L 516.660902 180480.478538 
L 515.507143 180480.478538 
L 514.353383 180480.478538 
L 513.199624 180480.478538 
L 512.045865 180480.478538 
L 510.892105 180480.478538 
L 509.738346 180480.478538 
L 508.584586 180480.478538 
L 507.430827 180480.478538 
L 506.277068 180480.478538 
L 505.123308 180480.478538 
L 503.969549 180480.478538 
L 502.815789 180480.478538 
L 501.66203 180480.478538 
L 500.508271 180480.478538 
L 499.354511 180480.478538 
L 498.200752 180480.478538 
L 497.046992 180480.478538 
L 495.893233 180480.478538 
L 494.739474 180480.478538 
L 493.585714 180480.478538 
L 492.431955 180480.478538 
L 491.278195 180480.478538 
L 490.124436 180480.478538 
L 488.970677 180480.478538 
L 487.816917 180480.478538 
L 486.663158 180480.478538 
L 485.509398 180480.478538 
L 484.355639 180480.478538 
L 483.20188 180480.478538 
L 482.04812 180480.478538 
L 480.894361 180480.478538 
L 479.740602 180480.478538 
L 478.586842 180480.478538 
L 477.433083 180480.478538 
L 476.279323 180480.478538 
L 475.125564 180480.478538 
L 473.971805 180480.478538 
L 472.818045 180480.478538 
L 471.664286 180480.478538 
L 470.510526 180480.478538 
L 469.356767 180480.478538 
L 468.203008 180480.478538 
L 467.049248 180480.478538 
L 465.895489 180480.478538 
L 464.741729 180480.478538 
L 463.58797 180480.478538 
L 462.434211 180480.478538 
L 461.280451 180480.478538 
L 460.126692 180480.478538 
L 458.972932 180480.478538 
L 457.819173 180480.478538 
L 456.665414 180480.478538 
L 455.511654 180480.478538 
L 454.357895 180480.478538 
L 453.204135 180480.478538 
L 452.050376 180480.478538 
L 450.896617 180480.478538 
L 449.742857 180480.478538 
L 448.589098 180480.478538 
L 447.435338 180480.478538 
L 446.281579 180480.478538 
L 445.12782 180480.478538 
L 443.97406 180480.478538 
L 442.820301 180480.478538 
L 441.666541 180480.478538 
L 440.512782 180480.478538 
L 439.359023 180480.478538 
L 438.205263 180480.478538 
L 437.051504 180480.478538 
L 435.897744 180480.478538 
L 434.743985 180480.478538 
L 433.590226 180480.478538 
L 432.436466 180480.478538 
L 431.282707 180480.478538 
L 430.128947 180480.478538 
L 428.975188 180480.478538 
L 427.821429 180480.478538 
L 426.667669 180480.478538 
L 425.51391 180480.478538 
L 424.36015 180480.478538 
L 423.206391 180480.478538 
L 422.052632 180480.478538 
L 420.898872 180480.478538 
L 419.745113 180480.478538 
L 418.591353 180480.478538 
L 417.437594 180480.478538 
L 416.283835 180480.478538 
L 415.130075 180480.478538 
L 413.976316 180480.478538 
L 412.822556 180480.478538 
L 411.668797 180480.478538 
L 410.515038 180480.478538 
L 409.361278 180480.478538 
L 408.207519 180480.478538 
L 407.053759 180480.478538 
L 405.9 180480.478538 
L 404.746241 180480.478538 
L 403.592481 180480.478538 
L 402.438722 180480.478538 
L 401.284962 180480.478538 
L 400.131203 180480.478538 
L 398.977444 180480.478538 
L 397.823684 180480.478538 
L 396.669925 180480.478538 
L 395.516165 180480.478538 
L 394.362406 180480.478538 
L 393.208647 180480.478538 
L 392.054887 180480.478538 
L 390.901128 180480.478538 
L 389.747368 180480.478538 
L 388.593609 180480.478538 
L 387.43985 180480.478538 
L 386.28609 180480.478538 
L 385.132331 180480.478538 
L 383.978571 180480.478538 
L 382.824812 180480.478538 
L 381.671053 180480.478538 
L 380.517293 180480.478538 
L 379.363534 180480.478538 
L 378.209774 180480.478538 
L 377.056015 180480.478538 
L 375.902256 180480.478538 
L 374.748496 180480.478538 
L 373.594737 180480.478538 
L 372.440977 180480.478538 
L 371.287218 180480.478538 
L 370.133459 180480.478538 
L 368.979699 180480.478538 
L 367.82594 180480.478538 
L 366.67218 180480.478538 
L 365.518421 180480.478538 
L 364.364662 180480.478538 
L 363.210902 180480.478538 
L 362.057143 180480.478538 
L 360.903383 180480.478538 
L 359.749624 180480.478538 
L 358.595865 180480.478538 
L 357.442105 180480.478538 
L 356.288346 180480.478538 
L 355.134586 180480.478538 
L 353.980827 180480.478538 
L 352.827068 180480.478538 
L 351.673308 180480.478538 
L 350.519549 180480.478538 
L 349.365789 180480.478538 
L 348.21203 180480.478538 
L 347.058271 180480.478538 
L 345.904511 180480.478538 
L 344.750752 180480.478538 
L 343.596992 180480.478538 
L 342.443233 180480.478538 
L 341.289474 180480.478538 
L 340.135714 180480.478538 
L 338.981955 180480.478538 
L 337.828195 180480.478538 
L 336.674436 180480.478538 
L 335.520677 180480.478538 
L 334.366917 180480.478538 
L 333.213158 180480.478538 
L 332.059398 180480.478538 
L 330.905639 180480.478538 
L 329.75188 180480.478538 
L 328.59812 180480.478538 
L 327.444361 180480.478538 
L 326.290602 180480.478538 
L 325.136842 180480.478538 
L 323.983083 180480.478538 
L 322.829323 180480.478538 
L 321.675564 180480.478538 
L 320.521805 180480.478538 
L 319.368045 180480.478538 
L 318.214286 180480.478538 
L 317.060526 180480.478538 
L 315.906767 180480.478538 
L 314.753008 180480.478538 
L 313.599248 180480.478538 
L 312.445489 180480.478538 
L 311.291729 180480.478538 
L 310.13797 180480.478538 
L 308.984211 180480.478538 
L 307.830451 180480.478538 
L 306.676692 180480.478538 
L 305.522932 180480.478538 
L 304.369173 180480.478538 
L 303.215414 180480.478538 
L 302.061654 180480.478538 
L 300.907895 180480.478538 
L 299.754135 180480.478538 
L 298.600376 180480.478538 
L 297.446617 180480.478538 
L 296.292857 180480.478538 
L 295.139098 180480.478538 
L 293.985338 180480.478538 
L 292.831579 180480.478538 
L 291.67782 180480.478538 
L 290.52406 180480.478538 
L 289.370301 180480.478538 
L 288.216541 180480.478538 
L 287.062782 180480.478538 
L 285.909023 180480.478538 
L 284.755263 180480.478538 
L 283.601504 180480.478538 
L 282.447744 180480.478538 
L 281.293985 180480.478538 
L 280.140226 180480.478538 
L 278.986466 180480.478538 
L 277.832707 180480.478538 
L 276.678947 180480.478538 
L 275.525188 180480.478538 
L 274.371429 180480.478538 
L 273.217669 180480.478538 
L 272.06391 180480.478538 
L 270.91015 180480.478538 
L 269.756391 180480.478538 
L 268.602632 180480.478538 
L 267.448872 180480.478538 
L 266.295113 180480.478538 
L 265.141353 180480.478538 
L 263.987594 180480.478538 
L 262.833835 180480.478538 
L 261.680075 180480.478538 
L 260.526316 180480.478538 
L 259.372556 180480.478538 
L 258.218797 180480.478538 
L 257.065038 180480.478538 
L 255.911278 180480.478538 
L 254.757519 180480.478538 
L 253.603759 180480.478538 
L 252.45 180480.478538 
L 251.296241 180480.478538 
L 250.142481 180480.478538 
L 248.988722 180480.478538 
L 247.834962 180480.478538 
L 246.681203 180480.478538 
L 245.527444 180480.478538 
L 244.373684 180480.478538 
L 243.219925 180480.478538 
L 242.066165 180480.478538 
L 240.912406 180480.478538 
L 239.758647 180480.478538 
L 238.604887 180480.478538 
L 237.451128 180480.478538 
L 236.297368 180480.478538 
L 235.143609 180480.478538 
L 233.98985 180480.478538 
L 232.83609 180480.478538 
L 231.682331 180480.478538 
L 230.528571 180480.478538 
L 229.374812 180480.478538 
L 228.221053 180480.478538 
L 227.067293 180480.478538 
L 225.913534 180480.478538 
L 224.759774 180480.478538 
L 223.606015 180480.478538 
L 222.452256 180480.478538 
L 221.298496 180480.478538 
L 220.144737 180480.478538 
L 218.990977 180480.478538 
L 217.837218 180480.478538 
L 216.683459 180480.478538 
L 215.529699 180480.478538 
L 214.37594 180480.478538 
L 213.22218 180480.478538 
L 212.068421 180480.478538 
L 210.914662 180480.478538 
L 209.760902 180480.478538 
L 208.607143 180480.478538 
L 207.453383 180480.478538 
L 206.299624 180480.478538 
L 205.145865 180480.478538 
L 203.992105 180480.478538 
L 202.838346 180480.478538 
L 201.684586 180480.478538 
L 200.530827 180480.478538 
L 199.377068 180480.478538 
L 198.223308 180480.478538 
L 197.069549 180480.478538 
L 195.915789 180480.478538 
L 194.76203 180480.478538 
L 193.608271 180480.478538 
L 192.454511 180480.478538 
L 191.300752 180480.478538 
L 190.146992 180480.478538 
L 188.993233 180480.478538 
L 187.839474 180480.478538 
L 186.685714 180480.478538 
L 185.531955 180480.478538 
L 184.378195 180480.478538 
L 183.224436 180480.478538 
L 182.070677 180480.478538 
L 180.916917 180480.478538 
L 179.763158 180480.478538 
L 178.609398 180480.478538 
L 177.455639 180480.478538 
L 176.30188 180480.478538 
L 175.14812 180480.478538 
L 173.994361 180480.478538 
L 172.840602 180480.478538 
L 171.686842 180480.478538 
L 170.533083 180480.478538 
L 169.379323 180480.478538 
L 168.225564 180480.478538 
L 167.071805 180480.478538 
L 165.918045 180480.478538 
L 164.764286 180480.478538 
L 163.610526 180480.478538 
L 162.456767 180480.478538 
L 161.303008 180480.478538 
L 160.149248 180480.478538 
L 158.995489 180480.478538 
L 157.841729 180480.478538 
L 156.68797 180480.478538 
L 155.534211 180480.478538 
L 154.380451 180480.478538 
L 153.226692 180480.478538 
L 152.072932 180480.478538 
L 150.919173 180480.478538 
L 149.765414 180480.478538 
L 148.611654 180480.478538 
L 147.457895 180480.478538 
L 146.304135 180480.478538 
L 145.150376 180480.478538 
L 143.996617 180480.478538 
L 142.842857 180480.478538 
L 141.689098 180480.478538 
L 140.535338 180480.478538 
L 139.381579 180480.478538 
L 138.22782 180480.478538 
L 137.07406 180480.478538 
L 135.920301 180480.478538 
L 134.766541 180480.478538 
L 133.612782 180480.478538 
L 132.459023 180480.478538 
L 131.305263 180480.478538 
L 130.151504 180480.478538 
L 128.997744 180480.478538 
L 127.843985 180480.478538 
L 126.690226 180480.478538 
L 125.536466 180480.478538 
L 124.382707 180480.478538 
L 123.228947 180480.478538 
L 122.075188 180480.478538 
L 120.921429 180480.478538 
L 119.767669 180480.478538 
L 118.61391 180480.478538 
L 117.46015 180480.478538 
L 116.306391 180480.478538 
L 115.152632 180480.478538 
L 113.998872 180480.478538 
L 112.845113 180480.478538 
L 111.691353 180480.478538 
L 110.537594 180480.478538 
L 109.383835 180480.478538 
L 108.230075 180480.478538 
L 107.076316 180480.478538 
L 105.922556 180480.478538 
L 104.768797 180480.478538 
L 103.615038 180480.478538 
L 102.461278 180480.478538 
L 101.307519 180480.478538 
L 100.153759 180480.478538 
L 99 180480.478538 
z
" style="fill:#ff8080;fill-opacity:0.5;stroke:#ff8080;stroke-opacity:0.5;"/>
   </g>
   <g id="matplotlib.axis_1">
    <g id="xtick_1">
     <g id="line2d_1">
      <path clip-path="url(#p68e2955192)" d="M 99 544.68 
L 99 73.44 
" style="fill:none;stroke:#b0b0b0;stroke-linecap:square;stroke-width:0.8;"/>
     </g>
     <g id="line2d_2">
      <defs>
       <path d="M 0 0 
L 0 3.5 
" id="m4abed1d830" style="stroke:#000000;stroke-width:0.8;"/>
      </defs>
      <g>
       <use style="stroke:#000000;stroke-width:0.8;" x="99" xlink:href="#m4abed1d830" y="544.68"/>
      </g>
     </g>
    </g>
    <g id="xtick_2">
     <g id="line2d_3">
      <path clip-path="url(#p68e2955192)" d="M 119.767669 544.68 
L 119.767669 73.44 
" style="fill:none;stroke:#b0b0b0;stroke-linecap:square;stroke-width:0.8;"/>
     </g>
     <g id="line2d_4">
      <g>
       <use style="stroke:#000000;stroke-width:0.8;" x="119.767669" xlink:href="#m4abed1d830" y="544.68"/>
      </g>
     </g>
     <g id="text_1">
      <!-- Apr -->
      <g transform="translate(111.117669 559.278437)scale(0.1 -0.1)">
       <defs>
        <path d="M 2188 4044 
L 1331 1722 
L 3047 1722 
L 2188 4044 
z
M 1831 4666 
L 2547 4666 
L 4325 0 
L 3669 0 
L 3244 1197 
L 1141 1197 
L 716 0 
L 50 0 
L 1831 4666 
z
" id="DejaVuSans-41" transform="scale(0.015625)"/>
        <path d="M 1159 525 
L 1159 -1331 
L 581 -1331 
L 581 3500 
L 1159 3500 
L 1159 2969 
Q 1341 3281 1617 3432 
Q 1894 3584 2278 3584 
Q 2916 3584 3314 3078 
Q 3713 2572 3713 1747 
Q 3713 922 3314 415 
Q 2916 -91 2278 -91 
Q 1894 -91 1617 61 
Q 1341 213 1159 525 
z
M 3116 1747 
Q 3116 2381 2855 2742 
Q 2594 3103 2138 3103 
Q 1681 3103 1420 2742 
Q 1159 2381 1159 1747 
Q 1159 1113 1420 752 
Q 1681 391 2138 391 
Q 2594 391 2855 752 
Q 3116 1113 3116 1747 
z
" id="DejaVuSans-70" transform="scale(0.015625)"/>
        <path d="M 2631 2963 
Q 2534 3019 2420 3045 
Q 2306 3072 2169 3072 
Q 1681 3072 1420 2755 
Q 1159 2438 1159 1844 
L 1159 0 
L 581 0 
L 581 3500 
L 1159 3500 
L 1159 2956 
Q 1341 3275 1631 3429 
Q 1922 3584 2338 3584 
Q 2397 3584 2469 3576 
Q 2541 3569 2628 3553 
L 2631 2963 
z
" id="DejaVuSans-72" transform="scale(0.015625)"/>
       </defs>
       <use xlink:href="#DejaVuSans-41"/>
       <use x="68.408203" xlink:href="#DejaVuSans-70"/>
       <use x="131.884766" xlink:href="#DejaVuSans-72"/>
      </g>
     </g>
    </g>
    <g id="xtick_3">
     <g id="line2d_5">
      <path clip-path="url(#p68e2955192)" d="M 224.759774 544.68 
L 224.759774 73.44 
" style="fill:none;stroke:#b0b0b0;stroke-linecap:square;stroke-width:0.8;"/>
     </g>
     <g id="line2d_6">
      <g>
       <use style="stroke:#000000;stroke-width:0.8;" x="224.759774" xlink:href="#m4abed1d830" y="544.68"/>
      </g>
     </g>
     <g id="text_2">
      <!-- Jul -->
      <g transform="translate(218.726962 559.278437)scale(0.1 -0.1)">
       <defs>
        <path d="M 628 4666 
L 1259 4666 
L 1259 325 
Q 1259 -519 939 -900 
Q 619 -1281 -91 -1281 
L -331 -1281 
L -331 -750 
L -134 -750 
Q 284 -750 456 -515 
Q 628 -281 628 325 
L 628 4666 
z
" id="DejaVuSans-4a" transform="scale(0.015625)"/>
        <path d="M 544 1381 
L 544 3500 
L 1119 3500 
L 1119 1403 
Q 1119 906 1312 657 
Q 1506 409 1894 409 
Q 2359 409 2629 706 
Q 2900 1003 2900 1516 
L 2900 3500 
L 3475 3500 
L 3475 0 
L 2900 0 
L 2900 538 
Q 2691 219 2414 64 
Q 2138 -91 1772 -91 
Q 1169 -91 856 284 
Q 544 659 544 1381 
z
M 1991 3584 
L 1991 3584 
z
" id="DejaVuSans-75" transform="scale(0.015625)"/>
        <path d="M 603 4863 
L 1178 4863 
L 1178 0 
L 603 0 
L 603 4863 
z
" id="DejaVuSans-6c" transform="scale(0.015625)"/>
       </defs>
       <use xlink:href="#DejaVuSans-4a"/>
       <use x="29.492188" xlink:href="#DejaVuSans-75"/>
       <use x="92.871094" xlink:href="#DejaVuSans-6c"/>
      </g>
     </g>
    </g>
    <g id="xtick_4">
     <g id="line2d_7">
      <path clip-path="url(#p68e2955192)" d="M 330.905639 544.68 
L 330.905639 73.44 
" style="fill:none;stroke:#b0b0b0;stroke-linecap:square;stroke-width:0.8;"/>
     </g>
     <g id="line2d_8">
      <g>
       <use style="stroke:#000000;stroke-width:0.8;" x="330.905639" xlink:href="#m4abed1d830" y="544.68"/>
      </g>
     </g>
     <g id="text_3">
      <!-- Oct -->
      <g transform="translate(322.260327 559.278437)scale(0.1 -0.1)">
       <defs>
        <path d="M 2522 4238 
Q 1834 4238 1429 3725 
Q 1025 3213 1025 2328 
Q 1025 1447 1429 934 
Q 1834 422 2522 422 
Q 3209 422 3611 934 
Q 4013 1447 4013 2328 
Q 4013 3213 3611 3725 
Q 3209 4238 2522 4238 
z
M 2522 4750 
Q 3503 4750 4090 4092 
Q 4678 3434 4678 2328 
Q 4678 1225 4090 567 
Q 3503 -91 2522 -91 
Q 1538 -91 948 565 
Q 359 1222 359 2328 
Q 359 3434 948 4092 
Q 1538 4750 2522 4750 
z
" id="DejaVuSans-4f" transform="scale(0.015625)"/>
        <path d="M 3122 3366 
L 3122 2828 
Q 2878 2963 2633 3030 
Q 2388 3097 2138 3097 
Q 1578 3097 1268 2742 
Q 959 2388 959 1747 
Q 959 1106 1268 751 
Q 1578 397 2138 397 
Q 2388 397 2633 464 
Q 2878 531 3122 666 
L 3122 134 
Q 2881 22 2623 -34 
Q 2366 -91 2075 -91 
Q 1284 -91 818 406 
Q 353 903 353 1747 
Q 353 2603 823 3093 
Q 1294 3584 2113 3584 
Q 2378 3584 2631 3529 
Q 2884 3475 3122 3366 
z
" id="DejaVuSans-63" transform="scale(0.015625)"/>
        <path d="M 1172 4494 
L 1172 3500 
L 2356 3500 
L 2356 3053 
L 1172 3053 
L 1172 1153 
Q 1172 725 1289 603 
Q 1406 481 1766 481 
L 2356 481 
L 2356 0 
L 1766 0 
Q 1100 0 847 248 
Q 594 497 594 1153 
L 594 3053 
L 172 3053 
L 172 3500 
L 594 3500 
L 594 4494 
L 1172 4494 
z
" id="DejaVuSans-74" transform="scale(0.015625)"/>
       </defs>
       <use xlink:href="#DejaVuSans-4f"/>
       <use x="78.710938" xlink:href="#DejaVuSans-63"/>
       <use x="133.691406" xlink:href="#DejaVuSans-74"/>
      </g>
     </g>
    </g>
    <g id="xtick_5">
     <g id="line2d_9">
      <path clip-path="url(#p68e2955192)" d="M 437.051504 544.68 
L 437.051504 73.44 
" style="fill:none;stroke:#b0b0b0;stroke-linecap:square;stroke-width:0.8;"/>
     </g>
     <g id="line2d_10">
      <g>
       <use style="stroke:#000000;stroke-width:0.8;" x="437.051504" xlink:href="#m4abed1d830" y="544.68"/>
      </g>
     </g>
     <g id="text_4">
      <!-- Jan -->
      <g transform="translate(429.343691 559.278437)scale(0.1 -0.1)">
       <defs>
        <path d="M 2194 1759 
Q 1497 1759 1228 1600 
Q 959 1441 959 1056 
Q 959 750 1161 570 
Q 1363 391 1709 391 
Q 2188 391 2477 730 
Q 2766 1069 2766 1631 
L 2766 1759 
L 2194 1759 
z
M 3341 1997 
L 3341 0 
L 2766 0 
L 2766 531 
Q 2569 213 2275 61 
Q 1981 -91 1556 -91 
Q 1019 -91 701 211 
Q 384 513 384 1019 
Q 384 1609 779 1909 
Q 1175 2209 1959 2209 
L 2766 2209 
L 2766 2266 
Q 2766 2663 2505 2880 
Q 2244 3097 1772 3097 
Q 1472 3097 1187 3025 
Q 903 2953 641 2809 
L 641 3341 
Q 956 3463 1253 3523 
Q 1550 3584 1831 3584 
Q 2591 3584 2966 3190 
Q 3341 2797 3341 1997 
z
" id="DejaVuSans-61" transform="scale(0.015625)"/>
        <path d="M 3513 2113 
L 3513 0 
L 2938 0 
L 2938 2094 
Q 2938 2591 2744 2837 
Q 2550 3084 2163 3084 
Q 1697 3084 1428 2787 
Q 1159 2491 1159 1978 
L 1159 0 
L 581 0 
L 581 3500 
L 1159 3500 
L 1159 2956 
Q 1366 3272 1645 3428 
Q 1925 3584 2291 3584 
Q 2894 3584 3203 3211 
Q 3513 2838 3513 2113 
z
" id="DejaVuSans-6e" transform="scale(0.015625)"/>
       </defs>
       <use xlink:href="#DejaVuSans-4a"/>
       <use x="29.492188" xlink:href="#DejaVuSans-61"/>
       <use x="90.771484" xlink:href="#DejaVuSans-6e"/>
      </g>
      <!-- 2021 -->
      <g transform="translate(424.326504 570.47625)scale(0.1 -0.1)">
       <defs>
        <path d="M 1228 531 
L 3431 531 
L 3431 0 
L 469 0 
L 469 531 
Q 828 903 1448 1529 
Q 2069 2156 2228 2338 
Q 2531 2678 2651 2914 
Q 2772 3150 2772 3378 
Q 2772 3750 2511 3984 
Q 2250 4219 1831 4219 
Q 1534 4219 1204 4116 
Q 875 4013 500 3803 
L 500 4441 
Q 881 4594 1212 4672 
Q 1544 4750 1819 4750 
Q 2544 4750 2975 4387 
Q 3406 4025 3406 3419 
Q 3406 3131 3298 2873 
Q 3191 2616 2906 2266 
Q 2828 2175 2409 1742 
Q 1991 1309 1228 531 
z
" id="DejaVuSans-32" transform="scale(0.015625)"/>
        <path d="M 2034 4250 
Q 1547 4250 1301 3770 
Q 1056 3291 1056 2328 
Q 1056 1369 1301 889 
Q 1547 409 2034 409 
Q 2525 409 2770 889 
Q 3016 1369 3016 2328 
Q 3016 3291 2770 3770 
Q 2525 4250 2034 4250 
z
M 2034 4750 
Q 2819 4750 3233 4129 
Q 3647 3509 3647 2328 
Q 3647 1150 3233 529 
Q 2819 -91 2034 -91 
Q 1250 -91 836 529 
Q 422 1150 422 2328 
Q 422 3509 836 4129 
Q 1250 4750 2034 4750 
z
" id="DejaVuSans-30" transform="scale(0.015625)"/>
        <path d="M 794 531 
L 1825 531 
L 1825 4091 
L 703 3866 
L 703 4441 
L 1819 4666 
L 2450 4666 
L 2450 531 
L 3481 531 
L 3481 0 
L 794 0 
L 794 531 
z
" id="DejaVuSans-31" transform="scale(0.015625)"/>
       </defs>
       <use xlink:href="#DejaVuSans-32"/>
       <use x="63.623047" xlink:href="#DejaVuSans-30"/>
       <use x="127.246094" xlink:href="#DejaVuSans-32"/>
       <use x="190.869141" xlink:href="#DejaVuSans-31"/>
      </g>
     </g>
    </g>
    <g id="xtick_6">
     <g id="line2d_11">
      <path clip-path="url(#p68e2955192)" d="M 540.88985 544.68 
L 540.88985 73.44 
" style="fill:none;stroke:#b0b0b0;stroke-linecap:square;stroke-width:0.8;"/>
     </g>
     <g id="line2d_12">
      <g>
       <use style="stroke:#000000;stroke-width:0.8;" x="540.88985" xlink:href="#m4abed1d830" y="544.68"/>
      </g>
     </g>
     <g id="text_5">
      <!-- Apr -->
      <g transform="translate(532.23985 559.278437)scale(0.1 -0.1)">
       <use xlink:href="#DejaVuSans-41"/>
       <use x="68.408203" xlink:href="#DejaVuSans-70"/>
       <use x="131.884766" xlink:href="#DejaVuSans-72"/>
      </g>
     </g>
    </g>
    <g id="xtick_7">
     <g id="line2d_13">
      <path clip-path="url(#p68e2955192)" d="M 645.881955 544.68 
L 645.881955 73.44 
" style="fill:none;stroke:#b0b0b0;stroke-linecap:square;stroke-width:0.8;"/>
     </g>
     <g id="line2d_14">
      <g>
       <use style="stroke:#000000;stroke-width:0.8;" x="645.881955" xlink:href="#m4abed1d830" y="544.68"/>
      </g>
     </g>
     <g id="text_6">
      <!-- Jul -->
      <g transform="translate(639.849142 559.278437)scale(0.1 -0.1)">
       <use xlink:href="#DejaVuSans-4a"/>
       <use x="29.492188" xlink:href="#DejaVuSans-75"/>
       <use x="92.871094" xlink:href="#DejaVuSans-6c"/>
      </g>
     </g>
    </g>
    <g id="xtick_8">
     <g id="line2d_15">
      <path clip-path="url(#p68e2955192)" d="M 712.8 544.68 
L 712.8 73.44 
" style="fill:none;stroke:#b0b0b0;stroke-linecap:square;stroke-width:0.8;"/>
     </g>
     <g id="line2d_16">
      <g>
       <use style="stroke:#000000;stroke-width:0.8;" x="712.8" xlink:href="#m4abed1d830" y="544.68"/>
      </g>
     </g>
    </g>
    <g id="xtick_9">
     <g id="line2d_17">
      <defs>
       <path d="M 0 0 
L 0 2 
" id="mbe9820739d" style="stroke:#000000;stroke-width:0.6;"/>
      </defs>
      <g>
       <use style="stroke:#000000;stroke-width:0.6;" x="154.380451" xlink:href="#mbe9820739d" y="544.68"/>
      </g>
     </g>
    </g>
    <g id="xtick_10">
     <g id="line2d_18">
      <g>
       <use style="stroke:#000000;stroke-width:0.6;" x="190.146992" xlink:href="#mbe9820739d" y="544.68"/>
      </g>
     </g>
    </g>
    <g id="xtick_11">
     <g id="line2d_19">
      <g>
       <use style="stroke:#000000;stroke-width:0.6;" x="260.526316" xlink:href="#mbe9820739d" y="544.68"/>
      </g>
     </g>
    </g>
    <g id="xtick_12">
     <g id="line2d_20">
      <g>
       <use style="stroke:#000000;stroke-width:0.6;" x="296.292857" xlink:href="#mbe9820739d" y="544.68"/>
      </g>
     </g>
    </g>
    <g id="xtick_13">
     <g id="line2d_21">
      <g>
       <use style="stroke:#000000;stroke-width:0.6;" x="366.67218" xlink:href="#mbe9820739d" y="544.68"/>
      </g>
     </g>
    </g>
    <g id="xtick_14">
     <g id="line2d_22">
      <g>
       <use style="stroke:#000000;stroke-width:0.6;" x="401.284962" xlink:href="#mbe9820739d" y="544.68"/>
      </g>
     </g>
    </g>
    <g id="xtick_15">
     <g id="line2d_23">
      <g>
       <use style="stroke:#000000;stroke-width:0.6;" x="472.818045" xlink:href="#mbe9820739d" y="544.68"/>
      </g>
     </g>
    </g>
    <g id="xtick_16">
     <g id="line2d_24">
      <g>
       <use style="stroke:#000000;stroke-width:0.6;" x="505.123308" xlink:href="#mbe9820739d" y="544.68"/>
      </g>
     </g>
    </g>
    <g id="xtick_17">
     <g id="line2d_25">
      <g>
       <use style="stroke:#000000;stroke-width:0.6;" x="575.502632" xlink:href="#mbe9820739d" y="544.68"/>
      </g>
     </g>
    </g>
    <g id="xtick_18">
     <g id="line2d_26">
      <g>
       <use style="stroke:#000000;stroke-width:0.6;" x="611.269173" xlink:href="#mbe9820739d" y="544.68"/>
      </g>
     </g>
    </g>
    <g id="xtick_19">
     <g id="line2d_27">
      <g>
       <use style="stroke:#000000;stroke-width:0.6;" x="681.648496" xlink:href="#mbe9820739d" y="544.68"/>
      </g>
     </g>
    </g>
    <g id="text_7">
     <!-- Date -->
     <g transform="translate(393.949219 584.154375)scale(0.1 -0.1)">
      <defs>
       <path d="M 1259 4147 
L 1259 519 
L 2022 519 
Q 2988 519 3436 956 
Q 3884 1394 3884 2338 
Q 3884 3275 3436 3711 
Q 2988 4147 2022 4147 
L 1259 4147 
z
M 628 4666 
L 1925 4666 
Q 3281 4666 3915 4102 
Q 4550 3538 4550 2338 
Q 4550 1131 3912 565 
Q 3275 0 1925 0 
L 628 0 
L 628 4666 
z
" id="DejaVuSans-44" transform="scale(0.015625)"/>
       <path d="M 3597 1894 
L 3597 1613 
L 953 1613 
Q 991 1019 1311 708 
Q 1631 397 2203 397 
Q 2534 397 2845 478 
Q 3156 559 3463 722 
L 3463 178 
Q 3153 47 2828 -22 
Q 2503 -91 2169 -91 
Q 1331 -91 842 396 
Q 353 884 353 1716 
Q 353 2575 817 3079 
Q 1281 3584 2069 3584 
Q 2775 3584 3186 3129 
Q 3597 2675 3597 1894 
z
M 3022 2063 
Q 3016 2534 2758 2815 
Q 2500 3097 2075 3097 
Q 1594 3097 1305 2825 
Q 1016 2553 972 2059 
L 3022 2063 
z
" id="DejaVuSans-65" transform="scale(0.015625)"/>
      </defs>
      <use xlink:href="#DejaVuSans-44"/>
      <use x="77.001953" xlink:href="#DejaVuSans-61"/>
      <use x="138.28125" xlink:href="#DejaVuSans-74"/>
      <use x="177.490234" xlink:href="#DejaVuSans-65"/>
     </g>
    </g>
   </g>
   <g id="matplotlib.axis_2">
    <g id="ytick_1">
     <g id="line2d_28">
      <path clip-path="url(#p68e2955192)" d="M 99 469.071167 
L 712.8 469.071167 
" style="fill:none;stroke:#b0b0b0;stroke-linecap:square;stroke-width:0.8;"/>
     </g>
     <g id="line2d_29">
      <defs>
       <path d="M 0 0 
L -3.5 0 
" id="me91a084207" style="stroke:#000000;stroke-width:0.8;"/>
      </defs>
      <g>
       <use style="stroke:#000000;stroke-width:0.8;" x="99" xlink:href="#me91a084207" y="469.071167"/>
      </g>
     </g>
     <g id="text_8">
      <!-- $\mathdefault{10^{0}}$ -->
      <g transform="translate(74.4 472.870386)scale(0.1 -0.1)">
       <use transform="translate(0 0.765625)" xlink:href="#DejaVuSans-31"/>
       <use transform="translate(63.623047 0.765625)" xlink:href="#DejaVuSans-30"/>
       <use transform="translate(128.203125 39.046875)scale(0.7)" xlink:href="#DejaVuSans-30"/>
      </g>
     </g>
    </g>
    <g id="ytick_2">
     <g id="line2d_30">
      <path clip-path="url(#p68e2955192)" d="M 99 289.059759 
L 712.8 289.059759 
" style="fill:none;stroke:#b0b0b0;stroke-linecap:square;stroke-width:0.8;"/>
     </g>
     <g id="line2d_31">
      <g>
       <use style="stroke:#000000;stroke-width:0.8;" x="99" xlink:href="#me91a084207" y="289.059759"/>
      </g>
     </g>
     <g id="text_9">
      <!-- $\mathdefault{10^{1}}$ -->
      <g transform="translate(74.4 292.858978)scale(0.1 -0.1)">
       <use transform="translate(0 0.684375)" xlink:href="#DejaVuSans-31"/>
       <use transform="translate(63.623047 0.684375)" xlink:href="#DejaVuSans-30"/>
       <use transform="translate(128.203125 38.965625)scale(0.7)" xlink:href="#DejaVuSans-31"/>
      </g>
     </g>
    </g>
    <g id="ytick_3">
     <g id="line2d_32">
      <path clip-path="url(#p68e2955192)" d="M 99 109.048352 
L 712.8 109.048352 
" style="fill:none;stroke:#b0b0b0;stroke-linecap:square;stroke-width:0.8;"/>
     </g>
     <g id="line2d_33">
      <g>
       <use style="stroke:#000000;stroke-width:0.8;" x="99" xlink:href="#me91a084207" y="109.048352"/>
      </g>
     </g>
     <g id="text_10">
      <!-- $\mathdefault{10^{2}}$ -->
      <g transform="translate(74.4 112.847571)scale(0.1 -0.1)">
       <use transform="translate(0 0.765625)" xlink:href="#DejaVuSans-31"/>
       <use transform="translate(63.623047 0.765625)" xlink:href="#DejaVuSans-30"/>
       <use transform="translate(128.203125 39.046875)scale(0.7)" xlink:href="#DejaVuSans-32"/>
      </g>
     </g>
    </g>
    <g id="ytick_4">
     <g id="line2d_34">
      <path clip-path="url(#p68e2955192)" d="M 99 540.704908 
L 712.8 540.704908 
" style="fill:none;stroke:#b0b0b0;stroke-linecap:square;stroke-width:0.8;"/>
     </g>
     <g id="line2d_35">
      <defs>
       <path d="M 0 0 
L -2 0 
" id="m0cb60b688e" style="stroke:#000000;stroke-width:0.6;"/>
      </defs>
      <g>
       <use style="stroke:#000000;stroke-width:0.6;" x="99" xlink:href="#m0cb60b688e" y="540.704908"/>
      </g>
     </g>
    </g>
    <g id="ytick_5">
     <g id="line2d_36">
      <path clip-path="url(#p68e2955192)" d="M 99 523.26 
L 712.8 523.26 
" style="fill:none;stroke:#b0b0b0;stroke-linecap:square;stroke-width:0.8;"/>
     </g>
     <g id="line2d_37">
      <g>
       <use style="stroke:#000000;stroke-width:0.6;" x="99" xlink:href="#m0cb60b688e" y="523.26"/>
      </g>
     </g>
    </g>
    <g id="ytick_6">
     <g id="line2d_38">
      <path clip-path="url(#p68e2955192)" d="M 99 509.006472 
L 712.8 509.006472 
" style="fill:none;stroke:#b0b0b0;stroke-linecap:square;stroke-width:0.8;"/>
     </g>
     <g id="line2d_39">
      <g>
       <use style="stroke:#000000;stroke-width:0.6;" x="99" xlink:href="#m0cb60b688e" y="509.006472"/>
      </g>
     </g>
    </g>
    <g id="ytick_7">
     <g id="line2d_40">
      <path clip-path="url(#p68e2955192)" d="M 99 496.955287 
L 712.8 496.955287 
" style="fill:none;stroke:#b0b0b0;stroke-linecap:square;stroke-width:0.8;"/>
     </g>
     <g id="line2d_41">
      <g>
       <use style="stroke:#000000;stroke-width:0.6;" x="99" xlink:href="#m0cb60b688e" y="496.955287"/>
      </g>
     </g>
    </g>
    <g id="ytick_8">
     <g id="line2d_42">
      <path clip-path="url(#p68e2955192)" d="M 99 486.516075 
L 712.8 486.516075 
" style="fill:none;stroke:#b0b0b0;stroke-linecap:square;stroke-width:0.8;"/>
     </g>
     <g id="line2d_43">
      <g>
       <use style="stroke:#000000;stroke-width:0.6;" x="99" xlink:href="#m0cb60b688e" y="486.516075"/>
      </g>
     </g>
    </g>
    <g id="ytick_9">
     <g id="line2d_44">
      <path clip-path="url(#p68e2955192)" d="M 99 477.308037 
L 712.8 477.308037 
" style="fill:none;stroke:#b0b0b0;stroke-linecap:square;stroke-width:0.8;"/>
     </g>
     <g id="line2d_45">
      <g>
       <use style="stroke:#000000;stroke-width:0.6;" x="99" xlink:href="#m0cb60b688e" y="477.308037"/>
      </g>
     </g>
    </g>
    <g id="ytick_10">
     <g id="line2d_46">
      <path clip-path="url(#p68e2955192)" d="M 99 414.882334 
L 712.8 414.882334 
" style="fill:none;stroke:#b0b0b0;stroke-linecap:square;stroke-width:0.8;"/>
     </g>
     <g id="line2d_47">
      <g>
       <use style="stroke:#000000;stroke-width:0.6;" x="99" xlink:href="#m0cb60b688e" y="414.882334"/>
      </g>
     </g>
    </g>
    <g id="ytick_11">
     <g id="line2d_48">
      <path clip-path="url(#p68e2955192)" d="M 99 383.183898 
L 712.8 383.183898 
" style="fill:none;stroke:#b0b0b0;stroke-linecap:square;stroke-width:0.8;"/>
     </g>
     <g id="line2d_49">
      <g>
       <use style="stroke:#000000;stroke-width:0.6;" x="99" xlink:href="#m0cb60b688e" y="383.183898"/>
      </g>
     </g>
    </g>
    <g id="ytick_12">
     <g id="line2d_50">
      <path clip-path="url(#p68e2955192)" d="M 99 360.6935 
L 712.8 360.6935 
" style="fill:none;stroke:#b0b0b0;stroke-linecap:square;stroke-width:0.8;"/>
     </g>
     <g id="line2d_51">
      <g>
       <use style="stroke:#000000;stroke-width:0.6;" x="99" xlink:href="#m0cb60b688e" y="360.6935"/>
      </g>
     </g>
    </g>
    <g id="ytick_13">
     <g id="line2d_52">
      <path clip-path="url(#p68e2955192)" d="M 99 343.248593 
L 712.8 343.248593 
" style="fill:none;stroke:#b0b0b0;stroke-linecap:square;stroke-width:0.8;"/>
     </g>
     <g id="line2d_53">
      <g>
       <use style="stroke:#000000;stroke-width:0.6;" x="99" xlink:href="#m0cb60b688e" y="343.248593"/>
      </g>
     </g>
    </g>
    <g id="ytick_14">
     <g id="line2d_54">
      <path clip-path="url(#p68e2955192)" d="M 99 328.995065 
L 712.8 328.995065 
" style="fill:none;stroke:#b0b0b0;stroke-linecap:square;stroke-width:0.8;"/>
     </g>
     <g id="line2d_55">
      <g>
       <use style="stroke:#000000;stroke-width:0.6;" x="99" xlink:href="#m0cb60b688e" y="328.995065"/>
      </g>
     </g>
    </g>
    <g id="ytick_15">
     <g id="line2d_56">
      <path clip-path="url(#p68e2955192)" d="M 99 316.943879 
L 712.8 316.943879 
" style="fill:none;stroke:#b0b0b0;stroke-linecap:square;stroke-width:0.8;"/>
     </g>
     <g id="line2d_57">
      <g>
       <use style="stroke:#000000;stroke-width:0.6;" x="99" xlink:href="#m0cb60b688e" y="316.943879"/>
      </g>
     </g>
    </g>
    <g id="ytick_16">
     <g id="line2d_58">
      <path clip-path="url(#p68e2955192)" d="M 99 306.504667 
L 712.8 306.504667 
" style="fill:none;stroke:#b0b0b0;stroke-linecap:square;stroke-width:0.8;"/>
     </g>
     <g id="line2d_59">
      <g>
       <use style="stroke:#000000;stroke-width:0.6;" x="99" xlink:href="#m0cb60b688e" y="306.504667"/>
      </g>
     </g>
    </g>
    <g id="ytick_17">
     <g id="line2d_60">
      <path clip-path="url(#p68e2955192)" d="M 99 297.29663 
L 712.8 297.29663 
" style="fill:none;stroke:#b0b0b0;stroke-linecap:square;stroke-width:0.8;"/>
     </g>
     <g id="line2d_61">
      <g>
       <use style="stroke:#000000;stroke-width:0.6;" x="99" xlink:href="#m0cb60b688e" y="297.29663"/>
      </g>
     </g>
    </g>
    <g id="ytick_18">
     <g id="line2d_62">
      <path clip-path="url(#p68e2955192)" d="M 99 234.870926 
L 712.8 234.870926 
" style="fill:none;stroke:#b0b0b0;stroke-linecap:square;stroke-width:0.8;"/>
     </g>
     <g id="line2d_63">
      <g>
       <use style="stroke:#000000;stroke-width:0.6;" x="99" xlink:href="#m0cb60b688e" y="234.870926"/>
      </g>
     </g>
    </g>
    <g id="ytick_19">
     <g id="line2d_64">
      <path clip-path="url(#p68e2955192)" d="M 99 203.172491 
L 712.8 203.172491 
" style="fill:none;stroke:#b0b0b0;stroke-linecap:square;stroke-width:0.8;"/>
     </g>
     <g id="line2d_65">
      <g>
       <use style="stroke:#000000;stroke-width:0.6;" x="99" xlink:href="#m0cb60b688e" y="203.172491"/>
      </g>
     </g>
    </g>
    <g id="ytick_20">
     <g id="line2d_66">
      <path clip-path="url(#p68e2955192)" d="M 99 180.682093 
L 712.8 180.682093 
" style="fill:none;stroke:#b0b0b0;stroke-linecap:square;stroke-width:0.8;"/>
     </g>
     <g id="line2d_67">
      <g>
       <use style="stroke:#000000;stroke-width:0.6;" x="99" xlink:href="#m0cb60b688e" y="180.682093"/>
      </g>
     </g>
    </g>
    <g id="ytick_21">
     <g id="line2d_68">
      <path clip-path="url(#p68e2955192)" d="M 99 163.237185 
L 712.8 163.237185 
" style="fill:none;stroke:#b0b0b0;stroke-linecap:square;stroke-width:0.8;"/>
     </g>
     <g id="line2d_69">
      <g>
       <use style="stroke:#000000;stroke-width:0.6;" x="99" xlink:href="#m0cb60b688e" y="163.237185"/>
      </g>
     </g>
    </g>
    <g id="ytick_22">
     <g id="line2d_70">
      <path clip-path="url(#p68e2955192)" d="M 99 148.983658 
L 712.8 148.983658 
" style="fill:none;stroke:#b0b0b0;stroke-linecap:square;stroke-width:0.8;"/>
     </g>
     <g id="line2d_71">
      <g>
       <use style="stroke:#000000;stroke-width:0.6;" x="99" xlink:href="#m0cb60b688e" y="148.983658"/>
      </g>
     </g>
    </g>
    <g id="ytick_23">
     <g id="line2d_72">
      <path clip-path="url(#p68e2955192)" d="M 99 136.932472 
L 712.8 136.932472 
" style="fill:none;stroke:#b0b0b0;stroke-linecap:square;stroke-width:0.8;"/>
     </g>
     <g id="line2d_73">
      <g>
       <use style="stroke:#000000;stroke-width:0.6;" x="99" xlink:href="#m0cb60b688e" y="136.932472"/>
      </g>
     </g>
    </g>
    <g id="ytick_24">
     <g id="line2d_74">
      <path clip-path="url(#p68e2955192)" d="M 99 126.49326 
L 712.8 126.49326 
" style="fill:none;stroke:#b0b0b0;stroke-linecap:square;stroke-width:0.8;"/>
     </g>
     <g id="line2d_75">
      <g>
       <use style="stroke:#000000;stroke-width:0.6;" x="99" xlink:href="#m0cb60b688e" y="126.49326"/>
      </g>
     </g>
    </g>
    <g id="ytick_25">
     <g id="line2d_76">
      <path clip-path="url(#p68e2955192)" d="M 99 117.285222 
L 712.8 117.285222 
" style="fill:none;stroke:#b0b0b0;stroke-linecap:square;stroke-width:0.8;"/>
     </g>
     <g id="line2d_77">
      <g>
       <use style="stroke:#000000;stroke-width:0.6;" x="99" xlink:href="#m0cb60b688e" y="117.285222"/>
      </g>
     </g>
    </g>
   </g>
   <g id="line2d_78">
    <path clip-path="url(#p68e2955192)" d="M 123.228372 613 
L 123.228947 523.26 
L 123.229523 613 
M 125.535891 613 
L 125.536466 523.26 
L 126.690226 469.071167 
L 127.843985 469.071167 
L 128.997744 437.372731 
L 130.151504 469.071167 
L 135.920301 469.071167 
L 137.07406 523.26 
L 138.22782 523.26 
L 138.228395 613 
M 152.072357 613 
L 152.072932 523.26 
L 153.226692 523.26 
L 153.227267 613 
M 223.60544 613 
L 223.606015 523.26 
L 224.759774 469.071167 
L 225.913534 437.372731 
L 227.067293 414.882334 
L 228.221053 437.372731 
L 229.374812 437.372731 
L 230.528571 414.882334 
L 231.682331 414.882334 
L 232.83609 397.437426 
L 235.143609 343.248593 
L 236.297368 328.995065 
L 237.451128 328.995065 
L 238.604887 311.550157 
L 239.758647 289.059759 
L 240.912406 289.059759 
L 242.066165 274.806232 
L 243.219925 271.614852 
L 244.373684 262.755046 
L 250.142481 262.755046 
L 251.296241 271.614852 
L 252.45 281.608604 
L 253.603759 285.245444 
L 254.757519 285.245444 
L 255.911278 293.069765 
L 257.065038 289.059759 
L 258.218797 293.069765 
L 262.833835 293.069765 
L 263.987594 289.059759 
L 265.141353 289.059759 
L 266.295113 274.806232 
L 268.602632 274.806232 
L 269.756391 260.011678 
L 270.91015 249.910169 
L 272.06391 240.965801 
L 273.217669 240.965801 
L 274.371429 234.870926 
L 281.293985 234.870926 
L 282.447744 220.617399 
L 283.601504 204.486437 
L 285.909023 204.486437 
L 287.062782 211.409361 
L 290.52406 211.409361 
L 291.67782 229.217044 
L 292.831579 208.566213 
L 295.139098 208.566213 
L 296.292857 238.880931 
L 297.446617 293.069765 
L 298.600376 335.797437 
L 299.754135 343.248593 
L 300.907895 335.797437 
L 303.215414 335.797437 
L 304.369173 343.248593 
L 305.522932 335.797437 
L 306.676692 343.248593 
L 308.984211 343.248593 
L 310.13797 351.485463 
L 311.291729 360.6935 
L 312.445489 343.248593 
L 314.753008 343.248593 
L 315.906767 328.995065 
L 317.060526 343.248593 
L 318.214286 343.248593 
L 319.368045 397.437426 
L 320.521805 343.248593 
L 321.675564 343.248593 
L 322.829323 371.132712 
L 323.983083 328.995065 
L 327.444361 328.995065 
L 328.59812 371.132712 
L 330.905639 371.132712 
L 332.059398 523.26 
L 333.213158 469.071167 
L 334.366917 523.26 
L 335.520677 523.26 
L 335.521252 613 
M 338.98138 613 
L 338.981955 523.26 
L 338.98253 613 
M 352.826492 613 
L 352.827068 523.26 
L 352.827643 613 
M 356.287771 613 
L 356.288346 523.26 
L 356.288921 613 
M 359.749049 613 
L 359.749624 523.26 
L 360.903383 523.26 
L 362.057143 437.372731 
L 363.210902 469.071167 
L 364.364662 414.882334 
L 368.979699 414.882334 
L 370.133459 397.437426 
L 371.287218 414.882334 
L 377.056015 414.882334 
L 378.209774 469.071167 
L 386.28609 469.071167 
L 387.43985 360.6935 
L 388.593609 316.943879 
L 389.747368 316.943879 
L 390.901128 306.504667 
L 392.054887 306.504667 
L 393.208647 301.765158 
L 395.516165 301.765158 
L 396.669925 316.943879 
L 397.823684 311.550157 
L 400.131203 311.550157 
L 401.284962 328.995065 
L 402.438722 328.995065 
L 403.592481 343.248593 
L 404.746241 343.248593 
L 405.9 371.132712 
L 407.053759 437.372731 
L 408.207519 414.882334 
L 409.361278 414.882334 
L 411.668797 274.806232 
L 412.822556 240.965801 
L 413.976316 274.806232 
L 415.130075 274.806232 
L 416.283835 247.576325 
L 417.437594 236.850221 
L 418.591353 247.576325 
L 419.745113 236.850221 
L 423.206391 236.850221 
L 424.36015 247.576325 
L 425.51391 260.011678 
L 427.821429 260.011678 
L 428.975188 271.614852 
L 431.282707 271.614852 
L 433.590226 285.245444 
L 434.743985 278.133456 
L 435.897744 278.133456 
L 437.051504 285.245444 
L 438.205263 301.765158 
L 439.359023 335.797437 
L 440.512782 335.797437 
L 441.666541 397.437426 
L 441.667922 613 
M 464.740054 613 
L 464.741729 351.485463 
L 467.049248 351.485463 
L 468.203008 289.059759 
L 469.356767 271.614852 
L 470.510526 271.614852 
L 471.664286 289.059759 
L 472.818045 271.614852 
L 473.971805 289.059759 
L 475.125564 316.943879 
L 476.279323 293.069765 
L 477.433083 297.29663 
L 478.586842 316.943879 
L 479.740602 297.29663 
L 480.894361 316.943879 
L 488.970677 316.943879 
L 491.278195 328.995065 
L 492.431955 328.995065 
L 493.585714 306.504667 
L 494.739474 306.504667 
L 495.893233 437.372731 
L 497.046992 371.132712 
L 498.200752 371.132712 
L 499.354511 316.943879 
L 500.508271 316.943879 
L 501.66203 371.132712 
L 502.815789 316.943879 
L 503.969549 316.943879 
L 505.123308 371.132712 
L 506.277068 371.132712 
L 507.430827 316.943879 
L 508.584586 322.737489 
L 512.045865 322.737489 
L 513.199624 293.069765 
L 514.353383 351.485463 
L 515.507143 351.485463 
L 516.660902 383.183898 
L 517.814662 328.995065 
L 518.968421 383.183898 
L 522.429699 383.183898 
L 522.431172 613 
M 589.346363 613 
L 589.347744 397.437426 
L 591.655263 397.437426 
L 591.656644 613 
M 597.422679 613 
L 597.42406 397.437426 
L 598.57782 397.437426 
L 598.579201 613 
M 626.266226 613 
L 626.268045 328.995065 
L 628.575564 328.995065 
L 629.729323 274.806232 
L 634.344361 274.806232 
L 635.49812 297.29663 
L 636.65188 335.797437 
L 641.266917 335.797437 
L 642.420677 351.485463 
L 643.574436 351.485463 
L 644.728195 414.882334 
L 645.881955 414.882334 
L 645.883224 613 
M 660.879099 613 
L 660.880827 343.248593 
L 665.495865 343.248593 
L 666.649624 271.614852 
L 667.803383 271.614852 
L 668.957143 343.248593 
L 670.110902 271.614852 
L 671.264662 343.248593 
L 674.72594 343.248593 
L 674.727668 613 
M 685.107781 613 
L 685.109774 301.765158 
L 686.263534 301.765158 
L 687.417293 225.662889 
L 690.878571 225.662889 
L 692.032331 200.609049 
L 694.33985 200.609049 
L 695.493609 174.12441 
L 698.954887 174.12441 
L 700.108647 179.710926 
L 701.262406 158.681841 
L 702.416165 188.918963 
L 703.569925 293.069765 
L 704.723684 293.069765 
L 705.877444 188.918963 
L 707.031203 257.361324 
L 709.338722 257.361324 
L 710.492481 335.797437 
L 712.8 335.797437 
L 712.8 335.797437 
" style="fill:none;stroke:#1f77b4;stroke-linecap:square;stroke-width:1.5;"/>
   </g>
   <g id="line2d_79">
    <path clip-path="url(#p68e2955192)" d="M 0 0 
" style="fill:none;stroke:#ff7f0e;stroke-linecap:square;stroke-width:1.5;"/>
   </g>
   <g id="patch_3">
    <path d="M 99 544.68 
L 99 73.44 
" style="fill:none;stroke:#000000;stroke-linecap:square;stroke-linejoin:miter;stroke-width:0.8;"/>
   </g>
   <g id="patch_4">
    <path d="M 712.8 544.68 
L 712.8 73.44 
" style="fill:none;stroke:#000000;stroke-linecap:square;stroke-linejoin:miter;stroke-width:0.8;"/>
   </g>
   <g id="patch_5">
    <path d="M 99 544.68 
L 712.8 544.68 
" style="fill:none;stroke:#000000;stroke-linecap:square;stroke-linejoin:miter;stroke-width:0.8;"/>
   </g>
   <g id="patch_6">
    <path d="M 99 73.44 
L 712.8 73.44 
" style="fill:none;stroke:#000000;stroke-linecap:square;stroke-linejoin:miter;stroke-width:0.8;"/>
   </g>
   <g id="legend_1">
    <g id="patch_7">
     <path d="M 616.653125 110.79625 
L 705.8 110.79625 
Q 707.8 110.79625 707.8 108.79625 
L 707.8 80.44 
Q 707.8 78.44 705.8 78.44 
L 616.653125 78.44 
Q 614.653125 78.44 614.653125 80.44 
L 614.653125 108.79625 
Q 614.653125 110.79625 616.653125 110.79625 
z
" style="fill:#ffffff;opacity:0.8;stroke:#cccccc;stroke-linejoin:miter;"/>
    </g>
    <g id="line2d_80">
     <path d="M 618.653125 86.538437 
L 638.653125 86.538437 
" style="fill:none;stroke:#1f77b4;stroke-linecap:square;stroke-width:1.5;"/>
    </g>
    <g id="line2d_81"/>
    <g id="text_11">
     <!-- Avg Cases -->
     <g transform="translate(646.653125 90.038437)scale(0.1 -0.1)">
      <defs>
       <path d="M 191 3500 
L 800 3500 
L 1894 563 
L 2988 3500 
L 3597 3500 
L 2284 0 
L 1503 0 
L 191 3500 
z
" id="DejaVuSans-76" transform="scale(0.015625)"/>
       <path d="M 2906 1791 
Q 2906 2416 2648 2759 
Q 2391 3103 1925 3103 
Q 1463 3103 1205 2759 
Q 947 2416 947 1791 
Q 947 1169 1205 825 
Q 1463 481 1925 481 
Q 2391 481 2648 825 
Q 2906 1169 2906 1791 
z
M 3481 434 
Q 3481 -459 3084 -895 
Q 2688 -1331 1869 -1331 
Q 1566 -1331 1297 -1286 
Q 1028 -1241 775 -1147 
L 775 -588 
Q 1028 -725 1275 -790 
Q 1522 -856 1778 -856 
Q 2344 -856 2625 -561 
Q 2906 -266 2906 331 
L 2906 616 
Q 2728 306 2450 153 
Q 2172 0 1784 0 
Q 1141 0 747 490 
Q 353 981 353 1791 
Q 353 2603 747 3093 
Q 1141 3584 1784 3584 
Q 2172 3584 2450 3431 
Q 2728 3278 2906 2969 
L 2906 3500 
L 3481 3500 
L 3481 434 
z
" id="DejaVuSans-67" transform="scale(0.015625)"/>
       <path id="DejaVuSans-20" transform="scale(0.015625)"/>
       <path d="M 4122 4306 
L 4122 3641 
Q 3803 3938 3442 4084 
Q 3081 4231 2675 4231 
Q 1875 4231 1450 3742 
Q 1025 3253 1025 2328 
Q 1025 1406 1450 917 
Q 1875 428 2675 428 
Q 3081 428 3442 575 
Q 3803 722 4122 1019 
L 4122 359 
Q 3791 134 3420 21 
Q 3050 -91 2638 -91 
Q 1578 -91 968 557 
Q 359 1206 359 2328 
Q 359 3453 968 4101 
Q 1578 4750 2638 4750 
Q 3056 4750 3426 4639 
Q 3797 4528 4122 4306 
z
" id="DejaVuSans-43" transform="scale(0.015625)"/>
       <path d="M 2834 3397 
L 2834 2853 
Q 2591 2978 2328 3040 
Q 2066 3103 1784 3103 
Q 1356 3103 1142 2972 
Q 928 2841 928 2578 
Q 928 2378 1081 2264 
Q 1234 2150 1697 2047 
L 1894 2003 
Q 2506 1872 2764 1633 
Q 3022 1394 3022 966 
Q 3022 478 2636 193 
Q 2250 -91 1575 -91 
Q 1294 -91 989 -36 
Q 684 19 347 128 
L 347 722 
Q 666 556 975 473 
Q 1284 391 1588 391 
Q 1994 391 2212 530 
Q 2431 669 2431 922 
Q 2431 1156 2273 1281 
Q 2116 1406 1581 1522 
L 1381 1569 
Q 847 1681 609 1914 
Q 372 2147 372 2553 
Q 372 3047 722 3315 
Q 1072 3584 1716 3584 
Q 2034 3584 2315 3537 
Q 2597 3491 2834 3397 
z
" id="DejaVuSans-73" transform="scale(0.015625)"/>
      </defs>
      <use xlink:href="#DejaVuSans-41"/>
      <use x="62.533203" xlink:href="#DejaVuSans-76"/>
      <use x="121.712891" xlink:href="#DejaVuSans-67"/>
      <use x="185.189453" xlink:href="#DejaVuSans-20"/>
      <use x="216.976562" xlink:href="#DejaVuSans-43"/>
      <use x="286.800781" xlink:href="#DejaVuSans-61"/>
      <use x="348.080078" xlink:href="#DejaVuSans-73"/>
      <use x="400.179688" xlink:href="#DejaVuSans-65"/>
      <use x="461.703125" xlink:href="#DejaVuSans-73"/>
     </g>
    </g>
    <g id="line2d_82">
     <path d="M 618.653125 101.216562 
L 638.653125 101.216562 
" style="fill:none;stroke:#ff7f0e;stroke-linecap:square;stroke-width:1.5;"/>
    </g>
    <g id="line2d_83"/>
    <g id="text_12">
     <!-- Avg Deaths -->
     <g transform="translate(646.653125 104.716562)scale(0.1 -0.1)">
      <defs>
       <path d="M 3513 2113 
L 3513 0 
L 2938 0 
L 2938 2094 
Q 2938 2591 2744 2837 
Q 2550 3084 2163 3084 
Q 1697 3084 1428 2787 
Q 1159 2491 1159 1978 
L 1159 0 
L 581 0 
L 581 4863 
L 1159 4863 
L 1159 2956 
Q 1366 3272 1645 3428 
Q 1925 3584 2291 3584 
Q 2894 3584 3203 3211 
Q 3513 2838 3513 2113 
z
" id="DejaVuSans-68" transform="scale(0.015625)"/>
      </defs>
      <use xlink:href="#DejaVuSans-41"/>
      <use x="62.533203" xlink:href="#DejaVuSans-76"/>
      <use x="121.712891" xlink:href="#DejaVuSans-67"/>
      <use x="185.189453" xlink:href="#DejaVuSans-20"/>
      <use x="216.976562" xlink:href="#DejaVuSans-44"/>
      <use x="293.978516" xlink:href="#DejaVuSans-65"/>
      <use x="355.501953" xlink:href="#DejaVuSans-61"/>
      <use x="416.78125" xlink:href="#DejaVuSans-74"/>
      <use x="455.990234" xlink:href="#DejaVuSans-68"/>
      <use x="519.369141" xlink:href="#DejaVuSans-73"/>
     </g>
    </g>
   </g>
  </g>
 </g>
 <defs>
  <clipPath id="p68e2955192">
   <rect height="471.24" width="613.8" x="99" y="73.44"/>
  </clipPath>
 </defs>
</svg>
