<?xml version="1.0" encoding="utf-8" standalone="no"?>
<!DOCTYPE svg PUBLIC "-//W3C//DTD SVG 1.1//EN"
  "http://www.w3.org/Graphics/SVG/1.1/DTD/svg11.dtd">
<svg height="612pt" version="1.1" viewBox="0 0 792 612" width="792pt" xmlns="http://www.w3.org/2000/svg" xmlns:xlink="http://www.w3.org/1999/xlink">
 <metadata>
  <rdf:RDF xmlns:cc="http://creativecommons.org/ns#" xmlns:dc="http://purl.org/dc/elements/1.1/" xmlns:rdf="http://www.w3.org/1999/02/22-rdf-syntax-ns#">
   <cc:Work>
    <dc:type rdf:resource="http://purl.org/dc/dcmitype/StillImage"/>
    <dc:format>image/svg+xml</dc:format>
    <dc:creator>
     <cc:Agent>
      <dc:title>Matplotlib v3.4.2, https://matplotlib.org/</dc:title>
     </cc:Agent>
    </dc:creator>
   </cc:Work>
  </rdf:RDF>
 </metadata>
 <defs>
  <style type="text/css">*{stroke-linecap:butt;stroke-linejoin:round;}</style>
 </defs>
 <g id="figure_1">
  <g id="patch_1">
   <path d="M 0 612 
L 792 612 
L 792 0 
L 0 0 
z
" style="fill:#ffffff;"/>
  </g>
  <g id="axes_1">
   <g id="patch_2">
    <path d="M 99 544.68 
L 712.8 544.68 
L 712.8 73.44 
L 99 73.44 
z
" style="fill:#ffffff;"/>
   </g>
   <g id="PolyCollection_1">
    <path clip-path="url(#p68e2955192)" d="M 99 180480.478538 
L 99 180480.478538 
L 100.145149 180480.478538 
L 101.290299 180480.478538 
L 102.435448 180480.478538 
L 103.580597 180480.478538 
L 104.725746 180480.478538 
L 105.870896 180480.478538 
L 107.016045 180480.478538 
L 108.161194 180480.478538 
L 109.306343 180480.478538 
L 110.451493 180480.478538 
L 111.596642 180480.478538 
L 112.741791 180480.478538 
L 113.88694 391.420769 
L 115.03209 391.420769 
L 116.177239 366.788375 
L 117.322388 327.702838 
L 118.467537 327.702838 
L 119.612687 327.702838 
L 120.757836 316.943879 
L 121.902985 316.943879 
L 123.048134 316.943879 
L 124.193284 327.702838 
L 125.338433 327.702838 
L 126.483582 327.702838 
L 127.628731 327.702838 
L 128.773881 327.702838 
L 129.91903 327.702838 
L 131.064179 327.702838 
L 132.209328 327.702838 
L 133.354478 360.6935 
L 134.499627 360.6935 
L 135.644776 360.6935 
L 136.789925 373.398899 
L 137.935075 373.398899 
L 139.080224 414.882334 
L 140.225373 414.882334 
L 141.370522 427.587732 
L 142.515672 427.587732 
L 143.660821 427.587732 
L 144.80597 469.071167 
L 145.951119 469.071167 
L 147.096269 427.587732 
L 148.241418 414.882334 
L 149.386567 414.882334 
L 150.531716 414.882334 
L 151.676866 391.420769 
L 152.822015 391.420769 
L 153.967164 391.420769 
L 155.112313 391.420769 
L 156.257463 391.420769 
L 157.402612 391.420769 
L 158.547761 391.420769 
L 159.69291 391.420769 
L 160.83806 391.420769 
L 161.983209 391.420769 
L 163.128358 391.420769 
L 164.273507 391.420769 
L 165.418657 391.420769 
L 166.563806 427.587732 
L 167.708955 496.955287 
L 168.854104 496.955287 
L 169.999254 496.955287 
L 171.144403 496.955287 
L 172.289552 496.955287 
L 173.434701 496.955287 
L 174.579851 496.955287 
L 175.725 496.955287 
L 176.870149 180480.478538 
L 178.015299 180480.478538 
L 179.160448 180480.478538 
L 180.305597 180480.478538 
L 181.450746 180480.478538 
L 182.595896 180480.478538 
L 183.741045 180480.478538 
L 184.886194 180480.478538 
L 186.031343 180480.478538 
L 187.176493 180480.478538 
L 188.321642 180480.478538 
L 189.466791 180480.478538 
L 190.61194 180480.478538 
L 191.75709 496.955287 
L 192.902239 496.955287 
L 194.047388 496.955287 
L 195.192537 496.955287 
L 196.337687 496.955287 
L 197.482836 496.955287 
L 198.627985 469.071167 
L 199.773134 469.071167 
L 200.918284 469.071167 
L 202.063433 469.071167 
L 203.208582 496.955287 
L 204.353731 469.071167 
L 205.498881 469.071167 
L 206.64403 469.071167 
L 207.789179 496.955287 
L 208.934328 469.071167 
L 210.079478 469.071167 
L 211.224627 469.071167 
L 212.369776 469.071167 
L 213.514925 469.071167 
L 214.660075 427.587732 
L 215.805224 414.882334 
L 216.950373 414.882334 
L 218.095522 414.882334 
L 219.240672 414.882334 
L 220.385821 414.882334 
L 221.53097 414.882334 
L 222.676119 391.420769 
L 223.821269 391.420769 
L 224.966418 341.700464 
L 226.111567 328.995065 
L 227.256716 328.995065 
L 228.401866 328.995065 
L 229.547015 328.995065 
L 230.692164 328.995065 
L 231.837313 282.322563 
L 232.982463 276.120178 
L 234.127612 264.448498 
L 235.272761 262.755046 
L 236.41791 236.450333 
L 237.56306 236.450333 
L 238.708209 220.292334 
L 239.853358 220.292334 
L 240.998507 220.292334 
L 242.143657 220.292334 
L 243.288806 220.292334 
L 244.433955 220.292334 
L 245.579104 220.292334 
L 246.724254 220.292334 
L 247.869403 215.267121 
L 249.014552 215.267121 
L 250.159701 215.267121 
L 251.304851 215.267121 
L 252.45 219.968615 
L 253.595149 219.968615 
L 254.740299 242.243943 
L 255.885448 242.243943 
L 257.030597 242.243943 
L 258.175746 239.293481 
L 259.320896 238.062307 
L 260.466045 238.062307 
L 261.611194 234.48101 
L 262.756343 223.605455 
L 263.901493 223.605455 
L 265.046642 223.605455 
L 266.191791 223.605455 
L 267.33694 223.605455 
L 268.48209 223.605455 
L 269.627239 209.974863 
L 270.772388 190.454064 
L 271.917537 190.454064 
L 273.062687 155.078532 
L 274.207836 155.078532 
L 275.352985 155.078532 
L 276.498134 155.078532 
L 277.643284 155.078532 
L 278.788433 155.078532 
L 279.933582 155.928301 
L 281.078731 153.820951 
L 282.223881 143.451076 
L 283.36903 143.451076 
L 284.514179 143.451076 
L 285.659328 143.451076 
L 286.804478 151.904057 
L 287.949627 151.904057 
L 289.094776 173.587102 
L 290.239925 173.587102 
L 291.385075 161.230533 
L 292.530224 161.230533 
L 293.675373 161.230533 
L 294.820522 161.230533 
L 295.965672 161.230533 
L 297.110821 161.230533 
L 298.25597 178.561229 
L 299.401119 178.561229 
L 300.546269 178.561229 
L 301.691418 178.561229 
L 302.836567 187.626736 
L 303.981716 187.626736 
L 305.126866 251.828742 
L 306.272015 251.828742 
L 307.417164 251.828742 
L 308.562313 251.828742 
L 309.707463 251.828742 
L 310.852612 251.828742 
L 311.997761 251.828742 
L 313.14291 251.828742 
L 314.28806 241.38953 
L 315.433209 245.310138 
L 316.578358 248.037553 
L 317.723507 248.037553 
L 318.868657 248.037553 
L 320.013806 248.037553 
L 321.158955 248.037553 
L 322.304104 248.037553 
L 323.449254 248.037553 
L 324.594403 248.037553 
L 325.739552 248.037553 
L 326.884701 248.037553 
L 328.029851 248.037553 
L 329.175 248.037553 
L 330.320149 274.806232 
L 331.465299 274.806232 
L 332.610448 280.901106 
L 333.755597 280.901106 
L 334.900746 283.043102 
L 336.045896 312.599542 
L 337.191045 312.599542 
L 338.336194 326.431624 
L 339.481343 427.587732 
L 340.626493 427.587732 
L 341.771642 427.587732 
L 342.916791 391.420769 
L 344.06194 391.420769 
L 345.20709 427.587732 
L 346.352239 427.587732 
L 347.497388 391.420769 
L 348.642537 391.420769 
L 349.787687 391.420769 
L 350.932836 391.420769 
L 352.077985 391.420769 
L 353.223134 341.700464 
L 354.368284 341.700464 
L 355.513433 341.700464 
L 356.658582 341.700464 
L 357.803731 341.700464 
L 358.948881 341.700464 
L 360.09403 341.700464 
L 361.239179 341.700464 
L 362.384328 328.995065 
L 363.529478 305.5335 
L 364.674627 305.5335 
L 365.819776 305.5335 
L 366.964925 297.29663 
L 368.110075 297.29663 
L 369.255224 297.29663 
L 370.400373 297.29663 
L 371.545522 271.614852 
L 372.690672 271.614852 
L 373.835821 271.614852 
L 374.98097 271.614852 
L 376.126119 271.614852 
L 377.271269 271.614852 
L 378.416418 264.448498 
L 379.561567 276.120178 
L 380.706716 276.120178 
L 381.851866 276.120178 
L 382.997015 260.552704 
L 384.142164 260.552704 
L 385.287313 260.552704 
L 386.432463 260.552704 
L 387.577612 268.548656 
L 388.722761 268.548656 
L 389.86791 268.548656 
L 391.01306 264.448498 
L 392.158209 264.448498 
L 393.303358 264.448498 
L 394.448507 264.448498 
L 395.593657 255.303891 
L 396.738806 255.303891 
L 397.883955 255.303891 
L 399.029104 264.448498 
L 400.174254 245.310138 
L 401.319403 245.310138 
L 402.464552 225.662889 
L 403.609701 225.662889 
L 404.754851 225.662889 
L 405.9 197.155834 
L 407.045149 192.246187 
L 408.190299 192.246187 
L 409.335448 189.573176 
L 410.480597 184.486637 
L 411.625746 184.486637 
L 412.770896 184.486637 
L 413.916045 184.486637 
L 415.061194 184.486637 
L 416.206343 189.573176 
L 417.351493 170.096435 
L 418.496642 170.096435 
L 419.641791 170.096435 
L 420.78694 170.096435 
L 421.93209 170.610202 
L 423.077239 170.610202 
L 424.222388 170.610202 
L 425.367537 177.615898 
L 426.512687 228.493169 
L 427.657836 228.493169 
L 428.802985 228.493169 
L 429.948134 228.493169 
L 431.093284 232.940508 
L 432.238433 207.733047 
L 433.383582 228.493169 
L 434.528731 235.656641 
L 435.673881 235.656641 
L 436.81903 235.656641 
L 437.964179 235.656641 
L 439.109328 235.656641 
L 440.254478 235.656641 
L 441.399627 241.815569 
L 442.544776 249.910169 
L 443.689925 249.910169 
L 444.835075 249.910169 
L 445.980224 249.910169 
L 447.125373 208.566213 
L 448.270522 249.910169 
L 449.415672 333.00507 
L 450.560821 356.879185 
L 451.70597 180480.478538 
L 452.851119 141.769765 
L 453.996269 141.769765 
L 455.141418 133.973738 
L 456.286567 133.973738 
L 457.431716 133.973738 
L 458.576866 133.973738 
L 459.722015 133.973738 
L 460.867164 133.973738 
L 462.012313 133.973738 
L 463.157463 223.944623 
L 464.302612 223.944623 
L 465.447761 223.944623 
L 466.59291 223.944623 
L 467.73806 223.944623 
L 468.883209 224.971044 
L 470.028358 223.944623 
L 471.173507 224.971044 
L 472.318657 227.065222 
L 473.463806 227.065222 
L 474.608955 227.065222 
L 475.754104 233.706965 
L 476.899254 230.315582 
L 478.044403 230.315582 
L 479.189552 241.38953 
L 480.334701 241.38953 
L 481.479851 236.05248 
L 482.625 234.870926 
L 483.770149 234.870926 
L 484.915299 234.870926 
L 486.060448 236.05248 
L 487.205597 236.05248 
L 488.350746 236.05248 
L 489.495896 236.05248 
L 490.641045 236.05248 
L 491.786194 236.05248 
L 492.931343 236.05248 
L 494.076493 236.05248 
L 495.221642 238.470547 
L 496.366791 234.870926 
L 497.51194 238.470547 
L 498.65709 247.576325 
L 499.802239 247.576325 
L 500.947388 247.576325 
L 502.092537 253.299218 
L 503.237687 253.299218 
L 504.382836 206.09289 
L 505.527985 206.09289 
L 506.673134 209.408353 
L 507.818284 209.408353 
L 508.963433 209.408353 
L 510.108582 196.196583 
L 511.253731 196.196583 
L 512.398881 217.739357 
L 513.54403 219.646231 
L 514.689179 219.646231 
L 515.834328 219.646231 
L 516.979478 219.646231 
L 518.124627 219.646231 
L 519.269776 219.646231 
L 520.414925 283.770344 
L 521.560075 283.770344 
L 522.705224 293.069765 
L 523.850373 293.069765 
L 524.995522 293.069765 
L 526.140672 328.995065 
L 527.285821 328.995065 
L 528.43097 328.995065 
L 529.576119 351.485463 
L 530.721269 306.504667 
L 531.866418 272.24279 
L 533.011567 272.24279 
L 534.156716 272.24279 
L 535.301866 272.24279 
L 536.447015 272.24279 
L 537.592164 272.24279 
L 538.737313 272.24279 
L 539.882463 272.24279 
L 541.027612 272.24279 
L 542.172761 201.880264 
L 543.31791 201.880264 
L 544.46306 272.24279 
L 545.608209 227.065222 
L 546.753358 227.065222 
L 547.898507 234.870926 
L 549.043657 242.243943 
L 550.188806 212.282867 
L 551.333955 212.282867 
L 552.479104 212.282867 
L 553.624254 212.282867 
L 554.769403 212.282867 
L 555.914552 212.282867 
L 557.059701 212.282867 
L 558.204851 222.931503 
L 559.35 222.931503 
L 560.495149 222.931503 
L 561.640299 220.617399 
L 562.785448 220.617399 
L 563.930597 220.617399 
L 565.075746 220.617399 
L 566.220896 232.940508 
L 567.366045 232.940508 
L 568.511194 232.940508 
L 569.656343 237.656186 
L 570.801493 215.877889 
L 571.946642 215.877889 
L 573.091791 215.877889 
L 574.23694 215.877889 
L 575.38209 215.877889 
L 576.527239 215.877889 
L 577.672388 236.450333 
L 578.817537 236.450333 
L 579.962687 205.822845 
L 581.107836 205.822845 
L 582.252985 205.018262 
L 583.398134 205.018262 
L 584.543284 205.018262 
L 585.688433 205.018262 
L 586.833582 223.944623 
L 587.978731 223.944623 
L 589.123881 223.944623 
L 590.26903 223.944623 
L 591.414179 223.944623 
L 592.559328 223.944623 
L 593.704478 223.944623 
L 594.849627 223.944623 
L 595.994776 226.011121 
L 597.139925 226.011121 
L 598.285075 226.011121 
L 599.430224 226.011121 
L 600.575373 232.181493 
L 601.720522 232.181493 
L 602.865672 188.05511 
L 604.010821 188.05511 
L 605.15597 188.05511 
L 606.301119 188.05511 
L 607.446269 186.776967 
L 608.591418 170.096435 
L 609.736567 170.096435 
L 610.881716 170.096435 
L 612.026866 170.096435 
L 613.172015 170.096435 
L 614.317164 170.096435 
L 615.462313 166.918711 
L 616.607463 166.918711 
L 617.752612 166.918711 
L 618.897761 166.918711 
L 620.04291 166.918711 
L 621.18806 166.918711 
L 622.333209 166.918711 
L 623.478358 166.918711 
L 624.623507 168.40786 
L 625.768657 168.40786 
L 626.913806 168.40786 
L 628.058955 168.40786 
L 629.204104 168.40786 
L 630.349254 176.496385 
L 631.494403 198.127001 
L 632.639552 245.758151 
L 633.784701 245.758151 
L 634.929851 245.758151 
L 636.075 245.758151 
L 637.220149 245.758151 
L 638.365299 245.758151 
L 639.510448 240.125169 
L 640.655597 240.125169 
L 641.800746 199.110384 
L 642.945896 199.110384 
L 644.091045 199.110384 
L 645.236194 199.110384 
L 646.381343 199.110384 
L 647.526493 173.230938 
L 648.671642 173.230938 
L 649.816791 173.230938 
L 650.96194 188.05511 
L 652.10709 188.05511 
L 653.252239 188.05511 
L 654.397388 188.05511 
L 655.542537 188.05511 
L 656.687687 173.230938 
L 657.832836 174.304336 
L 658.977985 174.304336 
L 660.123134 174.304336 
L 661.268284 174.304336 
L 662.413433 153.268454 
L 663.558582 158.387385 
L 664.703731 158.387385 
L 665.848881 142.485904 
L 666.99403 142.485904 
L 668.139179 142.485904 
L 669.284328 142.485904 
L 670.429478 134.838786 
L 671.574627 134.838786 
L 672.719776 134.838786 
L 673.864925 124.182413 
L 675.010075 124.182413 
L 676.155224 124.182413 
L 677.300373 124.182413 
L 678.445522 104.272062 
L 679.590672 104.272062 
L 680.735821 104.272062 
L 681.88097 94.86 
L 683.026119 94.86 
L 684.171269 94.86 
L 685.316418 94.86 
L 686.461567 94.86 
L 687.606716 94.86 
L 688.751866 94.86 
L 689.897015 99.979421 
L 691.042164 99.979421 
L 692.187313 99.979421 
L 693.332463 99.979421 
L 694.477612 105.159617 
L 695.622761 105.159617 
L 696.76791 98.531001 
L 697.91306 105.159617 
L 699.058209 105.159617 
L 700.203358 105.159617 
L 701.348507 98.531001 
L 702.493657 98.531001 
L 703.638806 99.14847 
L 704.783955 99.14847 
L 705.929104 104.272062 
L 707.074254 104.272062 
L 708.219403 104.272062 
L 709.364552 104.272062 
L 710.509701 104.272062 
L 711.654851 98.942104 
L 712.8 111.833612 
L 712.8 180480.478538 
L 712.8 180480.478538 
L 711.654851 180480.478538 
L 710.509701 180480.478538 
L 709.364552 180480.478538 
L 708.219403 180480.478538 
L 707.074254 180480.478538 
L 705.929104 180480.478538 
L 704.783955 180480.478538 
L 703.638806 180480.478538 
L 702.493657 180480.478538 
L 701.348507 180480.478538 
L 700.203358 180480.478538 
L 699.058209 180480.478538 
L 697.91306 180480.478538 
L 696.76791 180480.478538 
L 695.622761 180480.478538 
L 694.477612 180480.478538 
L 693.332463 180480.478538 
L 692.187313 180480.478538 
L 691.042164 180480.478538 
L 689.897015 180480.478538 
L 688.751866 180480.478538 
L 687.606716 180480.478538 
L 686.461567 180480.478538 
L 685.316418 180480.478538 
L 684.171269 180480.478538 
L 683.026119 180480.478538 
L 681.88097 180480.478538 
L 680.735821 180480.478538 
L 679.590672 180480.478538 
L 678.445522 180480.478538 
L 677.300373 180480.478538 
L 676.155224 180480.478538 
L 675.010075 180480.478538 
L 673.864925 180480.478538 
L 672.719776 180480.478538 
L 671.574627 180480.478538 
L 670.429478 180480.478538 
L 669.284328 180480.478538 
L 668.139179 180480.478538 
L 666.99403 180480.478538 
L 665.848881 180480.478538 
L 664.703731 180480.478538 
L 663.558582 180480.478538 
L 662.413433 180480.478538 
L 661.268284 180480.478538 
L 660.123134 180480.478538 
L 658.977985 180480.478538 
L 657.832836 180480.478538 
L 656.687687 180480.478538 
L 655.542537 180480.478538 
L 654.397388 180480.478538 
L 653.252239 180480.478538 
L 652.10709 180480.478538 
L 650.96194 180480.478538 
L 649.816791 180480.478538 
L 648.671642 180480.478538 
L 647.526493 180480.478538 
L 646.381343 180480.478538 
L 645.236194 180480.478538 
L 644.091045 180480.478538 
L 642.945896 180480.478538 
L 641.800746 180480.478538 
L 640.655597 180480.478538 
L 639.510448 180480.478538 
L 638.365299 180480.478538 
L 637.220149 180480.478538 
L 636.075 180480.478538 
L 634.929851 180480.478538 
L 633.784701 180480.478538 
L 632.639552 180480.478538 
L 631.494403 180480.478538 
L 630.349254 180480.478538 
L 629.204104 180480.478538 
L 628.058955 180480.478538 
L 626.913806 180480.478538 
L 625.768657 180480.478538 
L 624.623507 180480.478538 
L 623.478358 180480.478538 
L 622.333209 180480.478538 
L 621.18806 180480.478538 
L 620.04291 180480.478538 
L 618.897761 180480.478538 
L 617.752612 180480.478538 
L 616.607463 180480.478538 
L 615.462313 180480.478538 
L 614.317164 180480.478538 
L 613.172015 180480.478538 
L 612.026866 180480.478538 
L 610.881716 180480.478538 
L 609.736567 180480.478538 
L 608.591418 180480.478538 
L 607.446269 180480.478538 
L 606.301119 180480.478538 
L 605.15597 180480.478538 
L 604.010821 180480.478538 
L 602.865672 180480.478538 
L 601.720522 180480.478538 
L 600.575373 180480.478538 
L 599.430224 180480.478538 
L 598.285075 180480.478538 
L 597.139925 180480.478538 
L 595.994776 180480.478538 
L 594.849627 180480.478538 
L 593.704478 180480.478538 
L 592.559328 180480.478538 
L 591.414179 180480.478538 
L 590.26903 180480.478538 
L 589.123881 180480.478538 
L 587.978731 180480.478538 
L 586.833582 180480.478538 
L 585.688433 180480.478538 
L 584.543284 180480.478538 
L 583.398134 180480.478538 
L 582.252985 180480.478538 
L 581.107836 180480.478538 
L 579.962687 180480.478538 
L 578.817537 180480.478538 
L 577.672388 180480.478538 
L 576.527239 180480.478538 
L 575.38209 180480.478538 
L 574.23694 180480.478538 
L 573.091791 180480.478538 
L 571.946642 180480.478538 
L 570.801493 180480.478538 
L 569.656343 180480.478538 
L 568.511194 180480.478538 
L 567.366045 180480.478538 
L 566.220896 180480.478538 
L 565.075746 180480.478538 
L 563.930597 180480.478538 
L 562.785448 180480.478538 
L 561.640299 180480.478538 
L 560.495149 180480.478538 
L 559.35 180480.478538 
L 558.204851 180480.478538 
L 557.059701 180480.478538 
L 555.914552 180480.478538 
L 554.769403 180480.478538 
L 553.624254 180480.478538 
L 552.479104 180480.478538 
L 551.333955 180480.478538 
L 550.188806 180480.478538 
L 549.043657 180480.478538 
L 547.898507 180480.478538 
L 546.753358 180480.478538 
L 545.608209 180480.478538 
L 544.46306 180480.478538 
L 543.31791 180480.478538 
L 542.172761 180480.478538 
L 541.027612 180480.478538 
L 539.882463 180480.478538 
L 538.737313 180480.478538 
L 537.592164 180480.478538 
L 536.447015 180480.478538 
L 535.301866 180480.478538 
L 534.156716 180480.478538 
L 533.011567 180480.478538 
L 531.866418 180480.478538 
L 530.721269 180480.478538 
L 529.576119 180480.478538 
L 528.43097 180480.478538 
L 527.285821 180480.478538 
L 526.140672 180480.478538 
L 524.995522 180480.478538 
L 523.850373 180480.478538 
L 522.705224 180480.478538 
L 521.560075 180480.478538 
L 520.414925 180480.478538 
L 519.269776 180480.478538 
L 518.124627 180480.478538 
L 516.979478 180480.478538 
L 515.834328 180480.478538 
L 514.689179 180480.478538 
L 513.54403 180480.478538 
L 512.398881 180480.478538 
L 511.253731 180480.478538 
L 510.108582 180480.478538 
L 508.963433 180480.478538 
L 507.818284 180480.478538 
L 506.673134 180480.478538 
L 505.527985 180480.478538 
L 504.382836 180480.478538 
L 503.237687 180480.478538 
L 502.092537 180480.478538 
L 500.947388 180480.478538 
L 499.802239 180480.478538 
L 498.65709 180480.478538 
L 497.51194 180480.478538 
L 496.366791 180480.478538 
L 495.221642 180480.478538 
L 494.076493 180480.478538 
L 492.931343 180480.478538 
L 491.786194 180480.478538 
L 490.641045 180480.478538 
L 489.495896 180480.478538 
L 488.350746 180480.478538 
L 487.205597 180480.478538 
L 486.060448 180480.478538 
L 484.915299 180480.478538 
L 483.770149 180480.478538 
L 482.625 180480.478538 
L 481.479851 180480.478538 
L 480.334701 180480.478538 
L 479.189552 180480.478538 
L 478.044403 180480.478538 
L 476.899254 368.930371 
L 475.754104 180480.478538 
L 474.608955 368.930371 
L 473.463806 368.930371 
L 472.318657 180480.478538 
L 471.173507 180480.478538 
L 470.028358 180480.478538 
L 468.883209 180480.478538 
L 467.73806 180480.478538 
L 466.59291 180480.478538 
L 465.447761 180480.478538 
L 464.302612 180480.478538 
L 463.157463 180480.478538 
L 462.012313 180480.478538 
L 460.867164 180480.478538 
L 459.722015 180480.478538 
L 458.576866 180480.478538 
L 457.431716 180480.478538 
L 456.286567 180480.478538 
L 455.141418 180480.478538 
L 453.996269 180480.478538 
L 452.851119 180480.478538 
L 451.70597 180480.478538 
L 450.560821 180480.478538 
L 449.415672 180480.478538 
L 448.270522 180480.478538 
L 447.125373 180480.478538 
L 445.980224 180480.478538 
L 444.835075 180480.478538 
L 443.689925 180480.478538 
L 442.544776 180480.478538 
L 441.399627 180480.478538 
L 440.254478 180480.478538 
L 439.109328 180480.478538 
L 437.964179 180480.478538 
L 436.81903 180480.478538 
L 435.673881 180480.478538 
L 434.528731 180480.478538 
L 433.383582 180480.478538 
L 432.238433 180480.478538 
L 431.093284 180480.478538 
L 429.948134 180480.478538 
L 428.802985 297.29663 
L 427.657836 297.29663 
L 426.512687 297.29663 
L 425.367537 297.29663 
L 424.222388 297.29663 
L 423.077239 297.29663 
L 421.93209 297.29663 
L 420.78694 282.322563 
L 419.641791 297.29663 
L 418.496642 180480.478538 
L 417.351493 180480.478538 
L 416.206343 180480.478538 
L 415.061194 180480.478538 
L 413.916045 180480.478538 
L 412.770896 180480.478538 
L 411.625746 180480.478538 
L 410.480597 368.930371 
L 409.335448 180480.478538 
L 408.190299 180480.478538 
L 407.045149 180480.478538 
L 405.9 180480.478538 
L 404.754851 180480.478538 
L 403.609701 180480.478538 
L 402.464552 180480.478538 
L 401.319403 180480.478538 
L 400.174254 391.420769 
L 399.029104 391.420769 
L 397.883955 391.420769 
L 396.738806 391.420769 
L 395.593657 180480.478538 
L 394.448507 180480.478538 
L 393.303358 391.420769 
L 392.158209 391.420769 
L 391.01306 391.420769 
L 389.86791 391.420769 
L 388.722761 180480.478538 
L 387.577612 180480.478538 
L 386.432463 180480.478538 
L 385.287313 180480.478538 
L 384.142164 180480.478538 
L 382.997015 180480.478538 
L 381.851866 180480.478538 
L 380.706716 180480.478538 
L 379.561567 180480.478538 
L 378.416418 180480.478538 
L 377.271269 180480.478538 
L 376.126119 180480.478538 
L 374.98097 180480.478538 
L 373.835821 180480.478538 
L 372.690672 180480.478538 
L 371.545522 180480.478538 
L 370.400373 180480.478538 
L 369.255224 180480.478538 
L 368.110075 180480.478538 
L 366.964925 180480.478538 
L 365.819776 180480.478538 
L 364.674627 180480.478538 
L 363.529478 180480.478538 
L 362.384328 180480.478538 
L 361.239179 180480.478538 
L 360.09403 180480.478538 
L 358.948881 180480.478538 
L 357.803731 180480.478538 
L 356.658582 180480.478538 
L 355.513433 180480.478538 
L 354.368284 180480.478538 
L 353.223134 180480.478538 
L 352.077985 180480.478538 
L 350.932836 180480.478538 
L 349.787687 180480.478538 
L 348.642537 180480.478538 
L 347.497388 180480.478538 
L 346.352239 180480.478538 
L 345.20709 180480.478538 
L 344.06194 180480.478538 
L 342.916791 180480.478538 
L 341.771642 180480.478538 
L 340.626493 180480.478538 
L 339.481343 180480.478538 
L 338.336194 180480.478538 
L 337.191045 180480.478538 
L 336.045896 180480.478538 
L 334.900746 180480.478538 
L 333.755597 180480.478538 
L 332.610448 180480.478538 
L 331.465299 180480.478538 
L 330.320149 180480.478538 
L 329.175 180480.478538 
L 328.029851 180480.478538 
L 326.884701 180480.478538 
L 325.739552 180480.478538 
L 324.594403 180480.478538 
L 323.449254 180480.478538 
L 322.304104 180480.478538 
L 321.158955 180480.478538 
L 320.013806 180480.478538 
L 318.868657 180480.478538 
L 317.723507 180480.478538 
L 316.578358 477.308037 
L 315.433209 477.308037 
L 314.28806 469.071167 
L 313.14291 477.308037 
L 311.997761 477.308037 
L 310.852612 469.071167 
L 309.707463 469.071167 
L 308.562313 469.071167 
L 307.417164 366.788375 
L 306.272015 366.788375 
L 305.126866 366.788375 
L 303.981716 366.788375 
L 302.836567 469.071167 
L 301.691418 366.788375 
L 300.546269 366.788375 
L 299.401119 366.788375 
L 298.25597 477.308037 
L 297.110821 366.788375 
L 295.965672 366.788375 
L 294.820522 344.827999 
L 293.675373 343.248593 
L 292.530224 267.949588 
L 291.385075 266.765051 
L 290.239925 325.18075 
L 289.094776 266.765051 
L 287.949627 266.765051 
L 286.804478 266.765051 
L 285.659328 266.765051 
L 284.514179 243.981302 
L 283.36903 243.981302 
L 282.223881 243.981302 
L 281.078731 318.068761 
L 279.933582 318.068761 
L 278.788433 318.068761 
L 277.643284 318.068761 
L 276.498134 318.068761 
L 275.352985 337.231935 
L 274.207836 262.198617 
L 273.062687 262.198617 
L 271.917537 337.231935 
L 270.772388 292.25114 
L 269.627239 337.231935 
L 268.48209 337.231935 
L 267.33694 337.231935 
L 266.191791 337.231935 
L 265.046642 305.5335 
L 263.901493 337.231935 
L 262.756343 337.231935 
L 261.611194 180480.478538 
L 260.466045 180480.478538 
L 259.320896 180480.478538 
L 258.175746 180480.478538 
L 257.030597 180480.478538 
L 255.885448 337.231935 
L 254.740299 337.231935 
L 253.595149 328.995065 
L 252.45 328.995065 
L 251.304851 328.995065 
L 250.159701 292.25114 
L 249.014552 285.245444 
L 247.869403 283.043102 
L 246.724254 283.043102 
L 245.579104 283.043102 
L 244.433955 299.946984 
L 243.288806 299.946984 
L 242.143657 328.995065 
L 240.998507 328.995065 
L 239.853358 328.995065 
L 238.708209 331.645419 
L 237.56306 331.645419 
L 236.41791 362.672795 
L 235.272761 385.834252 
L 234.127612 418.892339 
L 232.982463 477.308037 
L 231.837313 477.308037 
L 230.692164 477.308037 
L 229.547015 477.308037 
L 228.401866 180480.478538 
L 227.256716 180480.478538 
L 226.111567 180480.478538 
L 224.966418 180480.478538 
L 223.821269 180480.478538 
L 222.676119 180480.478538 
L 221.53097 180480.478538 
L 220.385821 180480.478538 
L 219.240672 180480.478538 
L 218.095522 180480.478538 
L 216.950373 180480.478538 
L 215.805224 180480.478538 
L 214.660075 180480.478538 
L 213.514925 180480.478538 
L 212.369776 180480.478538 
L 211.224627 180480.478538 
L 210.079478 180480.478538 
L 208.934328 180480.478538 
L 207.789179 180480.478538 
L 206.64403 180480.478538 
L 205.498881 180480.478538 
L 204.353731 180480.478538 
L 203.208582 180480.478538 
L 202.063433 180480.478538 
L 200.918284 180480.478538 
L 199.773134 180480.478538 
L 198.627985 180480.478538 
L 197.482836 180480.478538 
L 196.337687 180480.478538 
L 195.192537 180480.478538 
L 194.047388 180480.478538 
L 192.902239 180480.478538 
L 191.75709 180480.478538 
L 190.61194 180480.478538 
L 189.466791 180480.478538 
L 188.321642 180480.478538 
L 187.176493 180480.478538 
L 186.031343 180480.478538 
L 184.886194 180480.478538 
L 183.741045 180480.478538 
L 182.595896 180480.478538 
L 181.450746 180480.478538 
L 180.305597 180480.478538 
L 179.160448 180480.478538 
L 178.015299 180480.478538 
L 176.870149 180480.478538 
L 175.725 180480.478538 
L 174.579851 180480.478538 
L 173.434701 180480.478538 
L 172.289552 180480.478538 
L 171.144403 180480.478538 
L 169.999254 180480.478538 
L 168.854104 180480.478538 
L 167.708955 180480.478538 
L 166.563806 180480.478538 
L 165.418657 180480.478538 
L 164.273507 180480.478538 
L 163.128358 180480.478538 
L 161.983209 180480.478538 
L 160.83806 180480.478538 
L 159.69291 180480.478538 
L 158.547761 180480.478538 
L 157.402612 180480.478538 
L 156.257463 180480.478538 
L 155.112313 180480.478538 
L 153.967164 180480.478538 
L 152.822015 180480.478538 
L 151.676866 180480.478538 
L 150.531716 180480.478538 
L 149.386567 180480.478538 
L 148.241418 180480.478538 
L 147.096269 180480.478538 
L 145.951119 180480.478538 
L 144.80597 180480.478538 
L 143.660821 180480.478538 
L 142.515672 180480.478538 
L 141.370522 180480.478538 
L 140.225373 180480.478538 
L 139.080224 180480.478538 
L 137.935075 180480.478538 
L 136.789925 180480.478538 
L 135.644776 180480.478538 
L 134.499627 180480.478538 
L 133.354478 180480.478538 
L 132.209328 180480.478538 
L 131.064179 477.308037 
L 129.91903 477.308037 
L 128.773881 477.308037 
L 127.628731 180480.478538 
L 126.483582 180480.478538 
L 125.338433 180480.478538 
L 124.193284 180480.478538 
L 123.048134 180480.478538 
L 121.902985 180480.478538 
L 120.757836 180480.478538 
L 119.612687 180480.478538 
L 118.467537 180480.478538 
L 117.322388 180480.478538 
L 116.177239 180480.478538 
L 115.03209 180480.478538 
L 113.88694 180480.478538 
L 112.741791 180480.478538 
L 111.596642 180480.478538 
L 110.451493 180480.478538 
L 109.306343 180480.478538 
L 108.161194 180480.478538 
L 107.016045 180480.478538 
L 105.870896 180480.478538 
L 104.725746 180480.478538 
L 103.580597 180480.478538 
L 102.435448 180480.478538 
L 101.290299 180480.478538 
L 100.145149 180480.478538 
L 99 180480.478538 
z
" style="fill:#8080ff;fill-opacity:0.5;stroke:#8080ff;stroke-opacity:0.5;"/>
   </g>
   <g id="PolyCollection_2">
    <path clip-path="url(#p68e2955192)" d="M 99 180480.478538 
L 99 180480.478538 
L 100.145149 180480.478538 
L 101.290299 180480.478538 
L 102.435448 180480.478538 
L 103.580597 180480.478538 
L 104.725746 180480.478538 
L 105.870896 180480.478538 
L 107.016045 180480.478538 
L 108.161194 180480.478538 
L 109.306343 180480.478538 
L 110.451493 180480.478538 
L 111.596642 180480.478538 
L 112.741791 180480.478538 
L 113.88694 180480.478538 
L 115.03209 180480.478538 
L 116.177239 180480.478538 
L 117.322388 180480.478538 
L 118.467537 180480.478538 
L 119.612687 180480.478538 
L 120.757836 180480.478538 
L 121.902985 180480.478538 
L 123.048134 180480.478538 
L 124.193284 180480.478538 
L 125.338433 180480.478538 
L 126.483582 180480.478538 
L 127.628731 180480.478538 
L 128.773881 180480.478538 
L 129.91903 180480.478538 
L 131.064179 180480.478538 
L 132.209328 180480.478538 
L 133.354478 180480.478538 
L 134.499627 180480.478538 
L 135.644776 180480.478538 
L 136.789925 496.955287 
L 137.935075 469.071167 
L 139.080224 469.071167 
L 140.225373 469.071167 
L 141.370522 496.955287 
L 142.515672 496.955287 
L 143.660821 496.955287 
L 144.80597 496.955287 
L 145.951119 496.955287 
L 147.096269 469.071167 
L 148.241418 469.071167 
L 149.386567 469.071167 
L 150.531716 469.071167 
L 151.676866 469.071167 
L 152.822015 496.955287 
L 153.967164 180480.478538 
L 155.112313 180480.478538 
L 156.257463 180480.478538 
L 157.402612 180480.478538 
L 158.547761 180480.478538 
L 159.69291 180480.478538 
L 160.83806 180480.478538 
L 161.983209 180480.478538 
L 163.128358 180480.478538 
L 164.273507 180480.478538 
L 165.418657 496.955287 
L 166.563806 496.955287 
L 167.708955 496.955287 
L 168.854104 496.955287 
L 169.999254 496.955287 
L 171.144403 496.955287 
L 172.289552 496.955287 
L 173.434701 496.955287 
L 174.579851 496.955287 
L 175.725 496.955287 
L 176.870149 496.955287 
L 178.015299 496.955287 
L 179.160448 496.955287 
L 180.305597 180480.478538 
L 181.450746 180480.478538 
L 182.595896 180480.478538 
L 183.741045 180480.478538 
L 184.886194 180480.478538 
L 186.031343 180480.478538 
L 187.176493 180480.478538 
L 188.321642 180480.478538 
L 189.466791 180480.478538 
L 190.61194 180480.478538 
L 191.75709 180480.478538 
L 192.902239 180480.478538 
L 194.047388 180480.478538 
L 195.192537 180480.478538 
L 196.337687 180480.478538 
L 197.482836 180480.478538 
L 198.627985 180480.478538 
L 199.773134 180480.478538 
L 200.918284 180480.478538 
L 202.063433 180480.478538 
L 203.208582 180480.478538 
L 204.353731 180480.478538 
L 205.498881 180480.478538 
L 206.64403 180480.478538 
L 207.789179 180480.478538 
L 208.934328 180480.478538 
L 210.079478 180480.478538 
L 211.224627 180480.478538 
L 212.369776 180480.478538 
L 213.514925 180480.478538 
L 214.660075 180480.478538 
L 215.805224 180480.478538 
L 216.950373 180480.478538 
L 218.095522 180480.478538 
L 219.240672 180480.478538 
L 220.385821 180480.478538 
L 221.53097 180480.478538 
L 222.676119 180480.478538 
L 223.821269 180480.478538 
L 224.966418 180480.478538 
L 226.111567 180480.478538 
L 227.256716 180480.478538 
L 228.401866 180480.478538 
L 229.547015 180480.478538 
L 230.692164 180480.478538 
L 231.837313 180480.478538 
L 232.982463 180480.478538 
L 234.127612 180480.478538 
L 235.272761 180480.478538 
L 236.41791 180480.478538 
L 237.56306 180480.478538 
L 238.708209 180480.478538 
L 239.853358 180480.478538 
L 240.998507 180480.478538 
L 242.143657 180480.478538 
L 243.288806 180480.478538 
L 244.433955 180480.478538 
L 245.579104 180480.478538 
L 246.724254 180480.478538 
L 247.869403 180480.478538 
L 249.014552 180480.478538 
L 250.159701 180480.478538 
L 251.304851 180480.478538 
L 252.45 180480.478538 
L 253.595149 180480.478538 
L 254.740299 180480.478538 
L 255.885448 496.955287 
L 257.030597 496.955287 
L 258.175746 496.955287 
L 259.320896 496.955287 
L 260.466045 496.955287 
L 261.611194 496.955287 
L 262.756343 496.955287 
L 263.901493 496.955287 
L 265.046642 496.955287 
L 266.191791 496.955287 
L 267.33694 496.955287 
L 268.48209 496.955287 
L 269.627239 496.955287 
L 270.772388 496.955287 
L 271.917537 180480.478538 
L 273.062687 180480.478538 
L 274.207836 180480.478538 
L 275.352985 180480.478538 
L 276.498134 180480.478538 
L 277.643284 180480.478538 
L 278.788433 180480.478538 
L 279.933582 180480.478538 
L 281.078731 180480.478538 
L 282.223881 180480.478538 
L 283.36903 180480.478538 
L 284.514179 496.955287 
L 285.659328 469.071167 
L 286.804478 469.071167 
L 287.949627 469.071167 
L 289.094776 469.071167 
L 290.239925 469.071167 
L 291.385075 469.071167 
L 292.530224 469.071167 
L 293.675373 469.071167 
L 294.820522 469.071167 
L 295.965672 469.071167 
L 297.110821 469.071167 
L 298.25597 469.071167 
L 299.401119 469.071167 
L 300.546269 469.071167 
L 301.691418 469.071167 
L 302.836567 469.071167 
L 303.981716 469.071167 
L 305.126866 469.071167 
L 306.272015 469.071167 
L 307.417164 469.071167 
L 308.562313 469.071167 
L 309.707463 469.071167 
L 310.852612 469.071167 
L 311.997761 469.071167 
L 313.14291 469.071167 
L 314.28806 469.071167 
L 315.433209 469.071167 
L 316.578358 496.955287 
L 317.723507 496.955287 
L 318.868657 180480.478538 
L 320.013806 180480.478538 
L 321.158955 180480.478538 
L 322.304104 180480.478538 
L 323.449254 180480.478538 
L 324.594403 180480.478538 
L 325.739552 180480.478538 
L 326.884701 180480.478538 
L 328.029851 180480.478538 
L 329.175 180480.478538 
L 330.320149 180480.478538 
L 331.465299 180480.478538 
L 332.610448 180480.478538 
L 333.755597 180480.478538 
L 334.900746 180480.478538 
L 336.045896 180480.478538 
L 337.191045 180480.478538 
L 338.336194 180480.478538 
L 339.481343 180480.478538 
L 340.626493 180480.478538 
L 341.771642 180480.478538 
L 342.916791 180480.478538 
L 344.06194 180480.478538 
L 345.20709 180480.478538 
L 346.352239 180480.478538 
L 347.497388 180480.478538 
L 348.642537 180480.478538 
L 349.787687 180480.478538 
L 350.932836 180480.478538 
L 352.077985 180480.478538 
L 353.223134 180480.478538 
L 354.368284 180480.478538 
L 355.513433 180480.478538 
L 356.658582 180480.478538 
L 357.803731 180480.478538 
L 358.948881 180480.478538 
L 360.09403 180480.478538 
L 361.239179 180480.478538 
L 362.384328 180480.478538 
L 363.529478 180480.478538 
L 364.674627 180480.478538 
L 365.819776 180480.478538 
L 366.964925 180480.478538 
L 368.110075 496.955287 
L 369.255224 496.955287 
L 370.400373 496.955287 
L 371.545522 496.955287 
L 372.690672 496.955287 
L 373.835821 496.955287 
L 374.98097 496.955287 
L 376.126119 496.955287 
L 377.271269 496.955287 
L 378.416418 496.955287 
L 379.561567 496.955287 
L 380.706716 496.955287 
L 381.851866 496.955287 
L 382.997015 180480.478538 
L 384.142164 180480.478538 
L 385.287313 180480.478538 
L 386.432463 180480.478538 
L 387.577612 180480.478538 
L 388.722761 180480.478538 
L 389.86791 180480.478538 
L 391.01306 180480.478538 
L 392.158209 180480.478538 
L 393.303358 180480.478538 
L 394.448507 180480.478538 
L 395.593657 180480.478538 
L 396.738806 180480.478538 
L 397.883955 180480.478538 
L 399.029104 180480.478538 
L 400.174254 180480.478538 
L 401.319403 180480.478538 
L 402.464552 180480.478538 
L 403.609701 180480.478538 
L 404.754851 180480.478538 
L 405.9 180480.478538 
L 407.045149 180480.478538 
L 408.190299 180480.478538 
L 409.335448 180480.478538 
L 410.480597 180480.478538 
L 411.625746 180480.478538 
L 412.770896 180480.478538 
L 413.916045 180480.478538 
L 415.061194 180480.478538 
L 416.206343 180480.478538 
L 417.351493 180480.478538 
L 418.496642 180480.478538 
L 419.641791 180480.478538 
L 420.78694 180480.478538 
L 421.93209 180480.478538 
L 423.077239 180480.478538 
L 424.222388 180480.478538 
L 425.367537 180480.478538 
L 426.512687 180480.478538 
L 427.657836 180480.478538 
L 428.802985 180480.478538 
L 429.948134 180480.478538 
L 431.093284 180480.478538 
L 432.238433 180480.478538 
L 433.383582 180480.478538 
L 434.528731 180480.478538 
L 435.673881 180480.478538 
L 436.81903 180480.478538 
L 437.964179 180480.478538 
L 439.109328 180480.478538 
L 440.254478 180480.478538 
L 441.399627 180480.478538 
L 442.544776 180480.478538 
L 443.689925 180480.478538 
L 444.835075 180480.478538 
L 445.980224 180480.478538 
L 447.125373 180480.478538 
L 448.270522 180480.478538 
L 449.415672 180480.478538 
L 450.560821 180480.478538 
L 451.70597 180480.478538 
L 452.851119 180480.478538 
L 453.996269 180480.478538 
L 455.141418 180480.478538 
L 456.286567 180480.478538 
L 457.431716 180480.478538 
L 458.576866 180480.478538 
L 459.722015 180480.478538 
L 460.867164 180480.478538 
L 462.012313 180480.478538 
L 463.157463 180480.478538 
L 464.302612 180480.478538 
L 465.447761 180480.478538 
L 466.59291 180480.478538 
L 467.73806 180480.478538 
L 468.883209 180480.478538 
L 470.028358 180480.478538 
L 471.173507 180480.478538 
L 472.318657 180480.478538 
L 473.463806 180480.478538 
L 474.608955 180480.478538 
L 475.754104 180480.478538 
L 476.899254 180480.478538 
L 478.044403 180480.478538 
L 479.189552 180480.478538 
L 480.334701 180480.478538 
L 481.479851 180480.478538 
L 482.625 180480.478538 
L 483.770149 180480.478538 
L 484.915299 180480.478538 
L 486.060448 180480.478538 
L 487.205597 180480.478538 
L 488.350746 180480.478538 
L 489.495896 180480.478538 
L 490.641045 180480.478538 
L 491.786194 180480.478538 
L 492.931343 180480.478538 
L 494.076493 180480.478538 
L 495.221642 180480.478538 
L 496.366791 180480.478538 
L 497.51194 180480.478538 
L 498.65709 180480.478538 
L 499.802239 180480.478538 
L 500.947388 180480.478538 
L 502.092537 180480.478538 
L 503.237687 180480.478538 
L 504.382836 180480.478538 
L 505.527985 180480.478538 
L 506.673134 180480.478538 
L 507.818284 180480.478538 
L 508.963433 180480.478538 
L 510.108582 180480.478538 
L 511.253731 180480.478538 
L 512.398881 180480.478538 
L 513.54403 180480.478538 
L 514.689179 180480.478538 
L 515.834328 180480.478538 
L 516.979478 180480.478538 
L 518.124627 180480.478538 
L 519.269776 180480.478538 
L 520.414925 180480.478538 
L 521.560075 180480.478538 
L 522.705224 180480.478538 
L 523.850373 180480.478538 
L 524.995522 180480.478538 
L 526.140672 180480.478538 
L 527.285821 180480.478538 
L 528.43097 180480.478538 
L 529.576119 180480.478538 
L 530.721269 180480.478538 
L 531.866418 180480.478538 
L 533.011567 180480.478538 
L 534.156716 180480.478538 
L 535.301866 180480.478538 
L 536.447015 180480.478538 
L 537.592164 180480.478538 
L 538.737313 180480.478538 
L 539.882463 180480.478538 
L 541.027612 180480.478538 
L 542.172761 180480.478538 
L 543.31791 180480.478538 
L 544.46306 180480.478538 
L 545.608209 180480.478538 
L 546.753358 180480.478538 
L 547.898507 180480.478538 
L 549.043657 180480.478538 
L 550.188806 180480.478538 
L 551.333955 180480.478538 
L 552.479104 180480.478538 
L 553.624254 180480.478538 
L 554.769403 180480.478538 
L 555.914552 180480.478538 
L 557.059701 180480.478538 
L 558.204851 180480.478538 
L 559.35 180480.478538 
L 560.495149 180480.478538 
L 561.640299 180480.478538 
L 562.785448 180480.478538 
L 563.930597 180480.478538 
L 565.075746 180480.478538 
L 566.220896 180480.478538 
L 567.366045 180480.478538 
L 568.511194 180480.478538 
L 569.656343 180480.478538 
L 570.801493 180480.478538 
L 571.946642 180480.478538 
L 573.091791 180480.478538 
L 574.23694 180480.478538 
L 575.38209 180480.478538 
L 576.527239 180480.478538 
L 577.672388 180480.478538 
L 578.817537 180480.478538 
L 579.962687 180480.478538 
L 581.107836 180480.478538 
L 582.252985 180480.478538 
L 583.398134 180480.478538 
L 584.543284 180480.478538 
L 585.688433 180480.478538 
L 586.833582 180480.478538 
L 587.978731 180480.478538 
L 589.123881 180480.478538 
L 590.26903 180480.478538 
L 591.414179 180480.478538 
L 592.559328 180480.478538 
L 593.704478 180480.478538 
L 594.849627 180480.478538 
L 595.994776 180480.478538 
L 597.139925 180480.478538 
L 598.285075 180480.478538 
L 599.430224 180480.478538 
L 600.575373 180480.478538 
L 601.720522 180480.478538 
L 602.865672 180480.478538 
L 604.010821 180480.478538 
L 605.15597 180480.478538 
L 606.301119 180480.478538 
L 607.446269 180480.478538 
L 608.591418 180480.478538 
L 609.736567 180480.478538 
L 610.881716 180480.478538 
L 612.026866 180480.478538 
L 613.172015 180480.478538 
L 614.317164 180480.478538 
L 615.462313 180480.478538 
L 616.607463 180480.478538 
L 617.752612 180480.478538 
L 618.897761 180480.478538 
L 620.04291 180480.478538 
L 621.18806 180480.478538 
L 622.333209 180480.478538 
L 623.478358 496.955287 
L 624.623507 496.955287 
L 625.768657 496.955287 
L 626.913806 496.955287 
L 628.058955 496.955287 
L 629.204104 496.955287 
L 630.349254 496.955287 
L 631.494403 496.955287 
L 632.639552 496.955287 
L 633.784701 496.955287 
L 634.929851 496.955287 
L 636.075 496.955287 
L 637.220149 496.955287 
L 638.365299 496.955287 
L 639.510448 180480.478538 
L 640.655597 180480.478538 
L 641.800746 180480.478538 
L 642.945896 180480.478538 
L 644.091045 180480.478538 
L 645.236194 180480.478538 
L 646.381343 180480.478538 
L 647.526493 180480.478538 
L 648.671642 180480.478538 
L 649.816791 180480.478538 
L 650.96194 180480.478538 
L 652.10709 180480.478538 
L 653.252239 180480.478538 
L 654.397388 180480.478538 
L 655.542537 180480.478538 
L 656.687687 180480.478538 
L 657.832836 180480.478538 
L 658.977985 180480.478538 
L 660.123134 180480.478538 
L 661.268284 180480.478538 
L 662.413433 180480.478538 
L 663.558582 180480.478538 
L 664.703731 180480.478538 
L 665.848881 180480.478538 
L 666.99403 180480.478538 
L 668.139179 180480.478538 
L 669.284328 180480.478538 
L 670.429478 180480.478538 
L 671.574627 180480.478538 
L 672.719776 180480.478538 
L 673.864925 496.955287 
L 675.010075 496.955287 
L 676.155224 496.955287 
L 677.300373 496.955287 
L 678.445522 469.071167 
L 679.590672 427.587732 
L 680.735821 427.587732 
L 681.88097 469.071167 
L 683.026119 469.071167 
L 684.171269 469.071167 
L 685.316418 469.071167 
L 686.461567 469.071167 
L 687.606716 469.071167 
L 688.751866 469.071167 
L 689.897015 469.071167 
L 691.042164 469.071167 
L 692.187313 469.071167 
L 693.332463 469.071167 
L 694.477612 469.071167 
L 695.622761 496.955287 
L 696.76791 496.955287 
L 697.91306 496.955287 
L 699.058209 496.955287 
L 700.203358 496.955287 
L 701.348507 469.071167 
L 702.493657 469.071167 
L 703.638806 400.628806 
L 704.783955 400.628806 
L 705.929104 400.628806 
L 707.074254 391.420769 
L 708.219403 391.420769 
L 709.364552 391.420769 
L 710.509701 391.420769 
L 711.654851 391.420769 
L 712.8 391.420769 
L 712.8 180480.478538 
L 712.8 180480.478538 
L 711.654851 180480.478538 
L 710.509701 180480.478538 
L 709.364552 180480.478538 
L 708.219403 180480.478538 
L 707.074254 180480.478538 
L 705.929104 180480.478538 
L 704.783955 180480.478538 
L 703.638806 180480.478538 
L 702.493657 180480.478538 
L 701.348507 180480.478538 
L 700.203358 180480.478538 
L 699.058209 180480.478538 
L 697.91306 180480.478538 
L 696.76791 180480.478538 
L 695.622761 180480.478538 
L 694.477612 180480.478538 
L 693.332463 180480.478538 
L 692.187313 180480.478538 
L 691.042164 180480.478538 
L 689.897015 180480.478538 
L 688.751866 180480.478538 
L 687.606716 180480.478538 
L 686.461567 180480.478538 
L 685.316418 180480.478538 
L 684.171269 180480.478538 
L 683.026119 180480.478538 
L 681.88097 180480.478538 
L 680.735821 180480.478538 
L 679.590672 180480.478538 
L 678.445522 180480.478538 
L 677.300373 180480.478538 
L 676.155224 180480.478538 
L 675.010075 180480.478538 
L 673.864925 180480.478538 
L 672.719776 180480.478538 
L 671.574627 180480.478538 
L 670.429478 180480.478538 
L 669.284328 180480.478538 
L 668.139179 180480.478538 
L 666.99403 180480.478538 
L 665.848881 180480.478538 
L 664.703731 180480.478538 
L 663.558582 180480.478538 
L 662.413433 180480.478538 
L 661.268284 180480.478538 
L 660.123134 180480.478538 
L 658.977985 180480.478538 
L 657.832836 180480.478538 
L 656.687687 180480.478538 
L 655.542537 180480.478538 
L 654.397388 180480.478538 
L 653.252239 180480.478538 
L 652.10709 180480.478538 
L 650.96194 180480.478538 
L 649.816791 180480.478538 
L 648.671642 180480.478538 
L 647.526493 180480.478538 
L 646.381343 180480.478538 
L 645.236194 180480.478538 
L 644.091045 180480.478538 
L 642.945896 180480.478538 
L 641.800746 180480.478538 
L 640.655597 180480.478538 
L 639.510448 180480.478538 
L 638.365299 180480.478538 
L 637.220149 180480.478538 
L 636.075 180480.478538 
L 634.929851 180480.478538 
L 633.784701 180480.478538 
L 632.639552 180480.478538 
L 631.494403 180480.478538 
L 630.349254 180480.478538 
L 629.204104 180480.478538 
L 628.058955 180480.478538 
L 626.913806 180480.478538 
L 625.768657 180480.478538 
L 624.623507 180480.478538 
L 623.478358 180480.478538 
L 622.333209 180480.478538 
L 621.18806 180480.478538 
L 620.04291 180480.478538 
L 618.897761 180480.478538 
L 617.752612 180480.478538 
L 616.607463 180480.478538 
L 615.462313 180480.478538 
L 614.317164 180480.478538 
L 613.172015 180480.478538 
L 612.026866 180480.478538 
L 610.881716 180480.478538 
L 609.736567 180480.478538 
L 608.591418 180480.478538 
L 607.446269 180480.478538 
L 606.301119 180480.478538 
L 605.15597 180480.478538 
L 604.010821 180480.478538 
L 602.865672 180480.478538 
L 601.720522 180480.478538 
L 600.575373 180480.478538 
L 599.430224 180480.478538 
L 598.285075 180480.478538 
L 597.139925 180480.478538 
L 595.994776 180480.478538 
L 594.849627 180480.478538 
L 593.704478 180480.478538 
L 592.559328 180480.478538 
L 591.414179 180480.478538 
L 590.26903 180480.478538 
L 589.123881 180480.478538 
L 587.978731 180480.478538 
L 586.833582 180480.478538 
L 585.688433 180480.478538 
L 584.543284 180480.478538 
L 583.398134 180480.478538 
L 582.252985 180480.478538 
L 581.107836 180480.478538 
L 579.962687 180480.478538 
L 578.817537 180480.478538 
L 577.672388 180480.478538 
L 576.527239 180480.478538 
L 575.38209 180480.478538 
L 574.23694 180480.478538 
L 573.091791 180480.478538 
L 571.946642 180480.478538 
L 570.801493 180480.478538 
L 569.656343 180480.478538 
L 568.511194 180480.478538 
L 567.366045 180480.478538 
L 566.220896 180480.478538 
L 565.075746 180480.478538 
L 563.930597 180480.478538 
L 562.785448 180480.478538 
L 561.640299 180480.478538 
L 560.495149 180480.478538 
L 559.35 180480.478538 
L 558.204851 180480.478538 
L 557.059701 180480.478538 
L 555.914552 180480.478538 
L 554.769403 180480.478538 
L 553.624254 180480.478538 
L 552.479104 180480.478538 
L 551.333955 180480.478538 
L 550.188806 180480.478538 
L 549.043657 180480.478538 
L 547.898507 180480.478538 
L 546.753358 180480.478538 
L 545.608209 180480.478538 
L 544.46306 180480.478538 
L 543.31791 180480.478538 
L 542.172761 180480.478538 
L 541.027612 180480.478538 
L 539.882463 180480.478538 
L 538.737313 180480.478538 
L 537.592164 180480.478538 
L 536.447015 180480.478538 
L 535.301866 180480.478538 
L 534.156716 180480.478538 
L 533.011567 180480.478538 
L 531.866418 180480.478538 
L 530.721269 180480.478538 
L 529.576119 180480.478538 
L 528.43097 180480.478538 
L 527.285821 180480.478538 
L 526.140672 180480.478538 
L 524.995522 180480.478538 
L 523.850373 180480.478538 
L 522.705224 180480.478538 
L 521.560075 180480.478538 
L 520.414925 180480.478538 
L 519.269776 180480.478538 
L 518.124627 180480.478538 
L 516.979478 180480.478538 
L 515.834328 180480.478538 
L 514.689179 180480.478538 
L 513.54403 180480.478538 
L 512.398881 180480.478538 
L 511.253731 180480.478538 
L 510.108582 180480.478538 
L 508.963433 180480.478538 
L 507.818284 180480.478538 
L 506.673134 180480.478538 
L 505.527985 180480.478538 
L 504.382836 180480.478538 
L 503.237687 180480.478538 
L 502.092537 180480.478538 
L 500.947388 180480.478538 
L 499.802239 180480.478538 
L 498.65709 180480.478538 
L 497.51194 180480.478538 
L 496.366791 180480.478538 
L 495.221642 180480.478538 
L 494.076493 180480.478538 
L 492.931343 180480.478538 
L 491.786194 180480.478538 
L 490.641045 180480.478538 
L 489.495896 180480.478538 
L 488.350746 180480.478538 
L 487.205597 180480.478538 
L 486.060448 180480.478538 
L 484.915299 180480.478538 
L 483.770149 180480.478538 
L 482.625 180480.478538 
L 481.479851 180480.478538 
L 480.334701 180480.478538 
L 479.189552 180480.478538 
L 478.044403 180480.478538 
L 476.899254 180480.478538 
L 475.754104 180480.478538 
L 474.608955 180480.478538 
L 473.463806 180480.478538 
L 472.318657 180480.478538 
L 471.173507 180480.478538 
L 470.028358 180480.478538 
L 468.883209 180480.478538 
L 467.73806 180480.478538 
L 466.59291 180480.478538 
L 465.447761 180480.478538 
L 464.302612 180480.478538 
L 463.157463 180480.478538 
L 462.012313 180480.478538 
L 460.867164 180480.478538 
L 459.722015 180480.478538 
L 458.576866 180480.478538 
L 457.431716 180480.478538 
L 456.286567 180480.478538 
L 455.141418 180480.478538 
L 453.996269 180480.478538 
L 452.851119 180480.478538 
L 451.70597 180480.478538 
L 450.560821 180480.478538 
L 449.415672 180480.478538 
L 448.270522 180480.478538 
L 447.125373 180480.478538 
L 445.980224 180480.478538 
L 444.835075 180480.478538 
L 443.689925 180480.478538 
L 442.544776 180480.478538 
L 441.399627 180480.478538 
L 440.254478 180480.478538 
L 439.109328 180480.478538 
L 437.964179 180480.478538 
L 436.81903 180480.478538 
L 435.673881 180480.478538 
L 434.528731 180480.478538 
L 433.383582 180480.478538 
L 432.238433 180480.478538 
L 431.093284 180480.478538 
L 429.948134 180480.478538 
L 428.802985 180480.478538 
L 427.657836 180480.478538 
L 426.512687 180480.478538 
L 425.367537 180480.478538 
L 424.222388 180480.478538 
L 423.077239 180480.478538 
L 421.93209 180480.478538 
L 420.78694 180480.478538 
L 419.641791 180480.478538 
L 418.496642 180480.478538 
L 417.351493 180480.478538 
L 416.206343 180480.478538 
L 415.061194 180480.478538 
L 413.916045 180480.478538 
L 412.770896 180480.478538 
L 411.625746 180480.478538 
L 410.480597 180480.478538 
L 409.335448 180480.478538 
L 408.190299 180480.478538 
L 407.045149 180480.478538 
L 405.9 180480.478538 
L 404.754851 180480.478538 
L 403.609701 180480.478538 
L 402.464552 180480.478538 
L 401.319403 180480.478538 
L 400.174254 180480.478538 
L 399.029104 180480.478538 
L 397.883955 180480.478538 
L 396.738806 180480.478538 
L 395.593657 180480.478538 
L 394.448507 180480.478538 
L 393.303358 180480.478538 
L 392.158209 180480.478538 
L 391.01306 180480.478538 
L 389.86791 180480.478538 
L 388.722761 180480.478538 
L 387.577612 180480.478538 
L 386.432463 180480.478538 
L 385.287313 180480.478538 
L 384.142164 180480.478538 
L 382.997015 180480.478538 
L 381.851866 180480.478538 
L 380.706716 180480.478538 
L 379.561567 180480.478538 
L 378.416418 180480.478538 
L 377.271269 180480.478538 
L 376.126119 180480.478538 
L 374.98097 180480.478538 
L 373.835821 180480.478538 
L 372.690672 180480.478538 
L 371.545522 180480.478538 
L 370.400373 180480.478538 
L 369.255224 180480.478538 
L 368.110075 180480.478538 
L 366.964925 180480.478538 
L 365.819776 180480.478538 
L 364.674627 180480.478538 
L 363.529478 180480.478538 
L 362.384328 180480.478538 
L 361.239179 180480.478538 
L 360.09403 180480.478538 
L 358.948881 180480.478538 
L 357.803731 180480.478538 
L 356.658582 180480.478538 
L 355.513433 180480.478538 
L 354.368284 180480.478538 
L 353.223134 180480.478538 
L 352.077985 180480.478538 
L 350.932836 180480.478538 
L 349.787687 180480.478538 
L 348.642537 180480.478538 
L 347.497388 180480.478538 
L 346.352239 180480.478538 
L 345.20709 180480.478538 
L 344.06194 180480.478538 
L 342.916791 180480.478538 
L 341.771642 180480.478538 
L 340.626493 180480.478538 
L 339.481343 180480.478538 
L 338.336194 180480.478538 
L 337.191045 180480.478538 
L 336.045896 180480.478538 
L 334.900746 180480.478538 
L 333.755597 180480.478538 
L 332.610448 180480.478538 
L 331.465299 180480.478538 
L 330.320149 180480.478538 
L 329.175 180480.478538 
L 328.029851 180480.478538 
L 326.884701 180480.478538 
L 325.739552 180480.478538 
L 324.594403 180480.478538 
L 323.449254 180480.478538 
L 322.304104 180480.478538 
L 321.158955 180480.478538 
L 320.013806 180480.478538 
L 318.868657 180480.478538 
L 317.723507 180480.478538 
L 316.578358 180480.478538 
L 315.433209 180480.478538 
L 314.28806 180480.478538 
L 313.14291 180480.478538 
L 311.997761 180480.478538 
L 310.852612 180480.478538 
L 309.707463 180480.478538 
L 308.562313 180480.478538 
L 307.417164 180480.478538 
L 306.272015 180480.478538 
L 305.126866 180480.478538 
L 303.981716 180480.478538 
L 302.836567 180480.478538 
L 301.691418 180480.478538 
L 300.546269 180480.478538 
L 299.401119 180480.478538 
L 298.25597 180480.478538 
L 297.110821 180480.478538 
L 295.965672 180480.478538 
L 294.820522 180480.478538 
L 293.675373 180480.478538 
L 292.530224 180480.478538 
L 291.385075 180480.478538 
L 290.239925 180480.478538 
L 289.094776 180480.478538 
L 287.949627 180480.478538 
L 286.804478 180480.478538 
L 285.659328 180480.478538 
L 284.514179 180480.478538 
L 283.36903 180480.478538 
L 282.223881 180480.478538 
L 281.078731 180480.478538 
L 279.933582 180480.478538 
L 278.788433 180480.478538 
L 277.643284 180480.478538 
L 276.498134 180480.478538 
L 275.352985 180480.478538 
L 274.207836 180480.478538 
L 273.062687 180480.478538 
L 271.917537 180480.478538 
L 270.772388 180480.478538 
L 269.627239 180480.478538 
L 268.48209 180480.478538 
L 267.33694 180480.478538 
L 266.191791 180480.478538 
L 265.046642 180480.478538 
L 263.901493 180480.478538 
L 262.756343 180480.478538 
L 261.611194 180480.478538 
L 260.466045 180480.478538 
L 259.320896 180480.478538 
L 258.175746 180480.478538 
L 257.030597 180480.478538 
L 255.885448 180480.478538 
L 254.740299 180480.478538 
L 253.595149 180480.478538 
L 252.45 180480.478538 
L 251.304851 180480.478538 
L 250.159701 180480.478538 
L 249.014552 180480.478538 
L 247.869403 180480.478538 
L 246.724254 180480.478538 
L 245.579104 180480.478538 
L 244.433955 180480.478538 
L 243.288806 180480.478538 
L 242.143657 180480.478538 
L 240.998507 180480.478538 
L 239.853358 180480.478538 
L 238.708209 180480.478538 
L 237.56306 180480.478538 
L 236.41791 180480.478538 
L 235.272761 180480.478538 
L 234.127612 180480.478538 
L 232.982463 180480.478538 
L 231.837313 180480.478538 
L 230.692164 180480.478538 
L 229.547015 180480.478538 
L 228.401866 180480.478538 
L 227.256716 180480.478538 
L 226.111567 180480.478538 
L 224.966418 180480.478538 
L 223.821269 180480.478538 
L 222.676119 180480.478538 
L 221.53097 180480.478538 
L 220.385821 180480.478538 
L 219.240672 180480.478538 
L 218.095522 180480.478538 
L 216.950373 180480.478538 
L 215.805224 180480.478538 
L 214.660075 180480.478538 
L 213.514925 180480.478538 
L 212.369776 180480.478538 
L 211.224627 180480.478538 
L 210.079478 180480.478538 
L 208.934328 180480.478538 
L 207.789179 180480.478538 
L 206.64403 180480.478538 
L 205.498881 180480.478538 
L 204.353731 180480.478538 
L 203.208582 180480.478538 
L 202.063433 180480.478538 
L 200.918284 180480.478538 
L 199.773134 180480.478538 
L 198.627985 180480.478538 
L 197.482836 180480.478538 
L 196.337687 180480.478538 
L 195.192537 180480.478538 
L 194.047388 180480.478538 
L 192.902239 180480.478538 
L 191.75709 180480.478538 
L 190.61194 180480.478538 
L 189.466791 180480.478538 
L 188.321642 180480.478538 
L 187.176493 180480.478538 
L 186.031343 180480.478538 
L 184.886194 180480.478538 
L 183.741045 180480.478538 
L 182.595896 180480.478538 
L 181.450746 180480.478538 
L 180.305597 180480.478538 
L 179.160448 180480.478538 
L 178.015299 180480.478538 
L 176.870149 180480.478538 
L 175.725 180480.478538 
L 174.579851 180480.478538 
L 173.434701 180480.478538 
L 172.289552 180480.478538 
L 171.144403 180480.478538 
L 169.999254 180480.478538 
L 168.854104 180480.478538 
L 167.708955 180480.478538 
L 166.563806 180480.478538 
L 165.418657 180480.478538 
L 164.273507 180480.478538 
L 163.128358 180480.478538 
L 161.983209 180480.478538 
L 160.83806 180480.478538 
L 159.69291 180480.478538 
L 158.547761 180480.478538 
L 157.402612 180480.478538 
L 156.257463 180480.478538 
L 155.112313 180480.478538 
L 153.967164 180480.478538 
L 152.822015 180480.478538 
L 151.676866 180480.478538 
L 150.531716 180480.478538 
L 149.386567 180480.478538 
L 148.241418 180480.478538 
L 147.096269 180480.478538 
L 145.951119 180480.478538 
L 144.80597 180480.478538 
L 143.660821 180480.478538 
L 142.515672 180480.478538 
L 141.370522 180480.478538 
L 140.225373 180480.478538 
L 139.080224 180480.478538 
L 137.935075 180480.478538 
L 136.789925 180480.478538 
L 135.644776 180480.478538 
L 134.499627 180480.478538 
L 133.354478 180480.478538 
L 132.209328 180480.478538 
L 131.064179 180480.478538 
L 129.91903 180480.478538 
L 128.773881 180480.478538 
L 127.628731 180480.478538 
L 126.483582 180480.478538 
L 125.338433 180480.478538 
L 124.193284 180480.478538 
L 123.048134 180480.478538 
L 121.902985 180480.478538 
L 120.757836 180480.478538 
L 119.612687 180480.478538 
L 118.467537 180480.478538 
L 117.322388 180480.478538 
L 116.177239 180480.478538 
L 115.03209 180480.478538 
L 113.88694 180480.478538 
L 112.741791 180480.478538 
L 111.596642 180480.478538 
L 110.451493 180480.478538 
L 109.306343 180480.478538 
L 108.161194 180480.478538 
L 107.016045 180480.478538 
L 105.870896 180480.478538 
L 104.725746 180480.478538 
L 103.580597 180480.478538 
L 102.435448 180480.478538 
L 101.290299 180480.478538 
L 100.145149 180480.478538 
L 99 180480.478538 
z
" style="fill:#ff8080;fill-opacity:0.5;stroke:#ff8080;stroke-opacity:0.5;"/>
   </g>
   <g id="matplotlib.axis_1">
    <g id="xtick_1">
     <g id="line2d_1">
      <path clip-path="url(#p68e2955192)" d="M 99 544.68 
L 99 73.44 
" style="fill:none;stroke:#b0b0b0;stroke-linecap:square;stroke-width:0.8;"/>
     </g>
     <g id="line2d_2">
      <defs>
       <path d="M 0 0 
L 0 3.5 
" id="m4abed1d830" style="stroke:#000000;stroke-width:0.8;"/>
      </defs>
      <g>
       <use style="stroke:#000000;stroke-width:0.8;" x="99" xlink:href="#m4abed1d830" y="544.68"/>
      </g>
     </g>
    </g>
    <g id="xtick_2">
     <g id="line2d_3">
      <path clip-path="url(#p68e2955192)" d="M 119.612687 544.68 
L 119.612687 73.44 
" style="fill:none;stroke:#b0b0b0;stroke-linecap:square;stroke-width:0.8;"/>
     </g>
     <g id="line2d_4">
      <g>
       <use style="stroke:#000000;stroke-width:0.8;" x="119.612687" xlink:href="#m4abed1d830" y="544.68"/>
      </g>
     </g>
     <g id="text_1">
      <!-- Apr -->
      <g transform="translate(110.962687 559.278437)scale(0.1 -0.1)">
       <defs>
        <path d="M 2188 4044 
L 1331 1722 
L 3047 1722 
L 2188 4044 
z
M 1831 4666 
L 2547 4666 
L 4325 0 
L 3669 0 
L 3244 1197 
L 1141 1197 
L 716 0 
L 50 0 
L 1831 4666 
z
" id="DejaVuSans-41" transform="scale(0.015625)"/>
        <path d="M 1159 525 
L 1159 -1331 
L 581 -1331 
L 581 3500 
L 1159 3500 
L 1159 2969 
Q 1341 3281 1617 3432 
Q 1894 3584 2278 3584 
Q 2916 3584 3314 3078 
Q 3713 2572 3713 1747 
Q 3713 922 3314 415 
Q 2916 -91 2278 -91 
Q 1894 -91 1617 61 
Q 1341 213 1159 525 
z
M 3116 1747 
Q 3116 2381 2855 2742 
Q 2594 3103 2138 3103 
Q 1681 3103 1420 2742 
Q 1159 2381 1159 1747 
Q 1159 1113 1420 752 
Q 1681 391 2138 391 
Q 2594 391 2855 752 
Q 3116 1113 3116 1747 
z
" id="DejaVuSans-70" transform="scale(0.015625)"/>
        <path d="M 2631 2963 
Q 2534 3019 2420 3045 
Q 2306 3072 2169 3072 
Q 1681 3072 1420 2755 
Q 1159 2438 1159 1844 
L 1159 0 
L 581 0 
L 581 3500 
L 1159 3500 
L 1159 2956 
Q 1341 3275 1631 3429 
Q 1922 3584 2338 3584 
Q 2397 3584 2469 3576 
Q 2541 3569 2628 3553 
L 2631 2963 
z
" id="DejaVuSans-72" transform="scale(0.015625)"/>
       </defs>
       <use xlink:href="#DejaVuSans-41"/>
       <use x="68.408203" xlink:href="#DejaVuSans-70"/>
       <use x="131.884766" xlink:href="#DejaVuSans-72"/>
      </g>
     </g>
    </g>
    <g id="xtick_3">
     <g id="line2d_5">
      <path clip-path="url(#p68e2955192)" d="M 223.821269 544.68 
L 223.821269 73.44 
" style="fill:none;stroke:#b0b0b0;stroke-linecap:square;stroke-width:0.8;"/>
     </g>
     <g id="line2d_6">
      <g>
       <use style="stroke:#000000;stroke-width:0.8;" x="223.821269" xlink:href="#m4abed1d830" y="544.68"/>
      </g>
     </g>
     <g id="text_2">
      <!-- Jul -->
      <g transform="translate(217.788456 559.278437)scale(0.1 -0.1)">
       <defs>
        <path d="M 628 4666 
L 1259 4666 
L 1259 325 
Q 1259 -519 939 -900 
Q 619 -1281 -91 -1281 
L -331 -1281 
L -331 -750 
L -134 -750 
Q 284 -750 456 -515 
Q 628 -281 628 325 
L 628 4666 
z
" id="DejaVuSans-4a" transform="scale(0.015625)"/>
        <path d="M 544 1381 
L 544 3500 
L 1119 3500 
L 1119 1403 
Q 1119 906 1312 657 
Q 1506 409 1894 409 
Q 2359 409 2629 706 
Q 2900 1003 2900 1516 
L 2900 3500 
L 3475 3500 
L 3475 0 
L 2900 0 
L 2900 538 
Q 2691 219 2414 64 
Q 2138 -91 1772 -91 
Q 1169 -91 856 284 
Q 544 659 544 1381 
z
M 1991 3584 
L 1991 3584 
z
" id="DejaVuSans-75" transform="scale(0.015625)"/>
        <path d="M 603 4863 
L 1178 4863 
L 1178 0 
L 603 0 
L 603 4863 
z
" id="DejaVuSans-6c" transform="scale(0.015625)"/>
       </defs>
       <use xlink:href="#DejaVuSans-4a"/>
       <use x="29.492188" xlink:href="#DejaVuSans-75"/>
       <use x="92.871094" xlink:href="#DejaVuSans-6c"/>
      </g>
     </g>
    </g>
    <g id="xtick_4">
     <g id="line2d_7">
      <path clip-path="url(#p68e2955192)" d="M 329.175 544.68 
L 329.175 73.44 
" style="fill:none;stroke:#b0b0b0;stroke-linecap:square;stroke-width:0.8;"/>
     </g>
     <g id="line2d_8">
      <g>
       <use style="stroke:#000000;stroke-width:0.8;" x="329.175" xlink:href="#m4abed1d830" y="544.68"/>
      </g>
     </g>
     <g id="text_3">
      <!-- Oct -->
      <g transform="translate(320.529687 559.278437)scale(0.1 -0.1)">
       <defs>
        <path d="M 2522 4238 
Q 1834 4238 1429 3725 
Q 1025 3213 1025 2328 
Q 1025 1447 1429 934 
Q 1834 422 2522 422 
Q 3209 422 3611 934 
Q 4013 1447 4013 2328 
Q 4013 3213 3611 3725 
Q 3209 4238 2522 4238 
z
M 2522 4750 
Q 3503 4750 4090 4092 
Q 4678 3434 4678 2328 
Q 4678 1225 4090 567 
Q 3503 -91 2522 -91 
Q 1538 -91 948 565 
Q 359 1222 359 2328 
Q 359 3434 948 4092 
Q 1538 4750 2522 4750 
z
" id="DejaVuSans-4f" transform="scale(0.015625)"/>
        <path d="M 3122 3366 
L 3122 2828 
Q 2878 2963 2633 3030 
Q 2388 3097 2138 3097 
Q 1578 3097 1268 2742 
Q 959 2388 959 1747 
Q 959 1106 1268 751 
Q 1578 397 2138 397 
Q 2388 397 2633 464 
Q 2878 531 3122 666 
L 3122 134 
Q 2881 22 2623 -34 
Q 2366 -91 2075 -91 
Q 1284 -91 818 406 
Q 353 903 353 1747 
Q 353 2603 823 3093 
Q 1294 3584 2113 3584 
Q 2378 3584 2631 3529 
Q 2884 3475 3122 3366 
z
" id="DejaVuSans-63" transform="scale(0.015625)"/>
        <path d="M 1172 4494 
L 1172 3500 
L 2356 3500 
L 2356 3053 
L 1172 3053 
L 1172 1153 
Q 1172 725 1289 603 
Q 1406 481 1766 481 
L 2356 481 
L 2356 0 
L 1766 0 
Q 1100 0 847 248 
Q 594 497 594 1153 
L 594 3053 
L 172 3053 
L 172 3500 
L 594 3500 
L 594 4494 
L 1172 4494 
z
" id="DejaVuSans-74" transform="scale(0.015625)"/>
       </defs>
       <use xlink:href="#DejaVuSans-4f"/>
       <use x="78.710938" xlink:href="#DejaVuSans-63"/>
       <use x="133.691406" xlink:href="#DejaVuSans-74"/>
      </g>
     </g>
    </g>
    <g id="xtick_5">
     <g id="line2d_9">
      <path clip-path="url(#p68e2955192)" d="M 434.528731 544.68 
L 434.528731 73.44 
" style="fill:none;stroke:#b0b0b0;stroke-linecap:square;stroke-width:0.8;"/>
     </g>
     <g id="line2d_10">
      <g>
       <use style="stroke:#000000;stroke-width:0.8;" x="434.528731" xlink:href="#m4abed1d830" y="544.68"/>
      </g>
     </g>
     <g id="text_4">
      <!-- Jan -->
      <g transform="translate(426.820919 559.278437)scale(0.1 -0.1)">
       <defs>
        <path d="M 2194 1759 
Q 1497 1759 1228 1600 
Q 959 1441 959 1056 
Q 959 750 1161 570 
Q 1363 391 1709 391 
Q 2188 391 2477 730 
Q 2766 1069 2766 1631 
L 2766 1759 
L 2194 1759 
z
M 3341 1997 
L 3341 0 
L 2766 0 
L 2766 531 
Q 2569 213 2275 61 
Q 1981 -91 1556 -91 
Q 1019 -91 701 211 
Q 384 513 384 1019 
Q 384 1609 779 1909 
Q 1175 2209 1959 2209 
L 2766 2209 
L 2766 2266 
Q 2766 2663 2505 2880 
Q 2244 3097 1772 3097 
Q 1472 3097 1187 3025 
Q 903 2953 641 2809 
L 641 3341 
Q 956 3463 1253 3523 
Q 1550 3584 1831 3584 
Q 2591 3584 2966 3190 
Q 3341 2797 3341 1997 
z
" id="DejaVuSans-61" transform="scale(0.015625)"/>
        <path d="M 3513 2113 
L 3513 0 
L 2938 0 
L 2938 2094 
Q 2938 2591 2744 2837 
Q 2550 3084 2163 3084 
Q 1697 3084 1428 2787 
Q 1159 2491 1159 1978 
L 1159 0 
L 581 0 
L 581 3500 
L 1159 3500 
L 1159 2956 
Q 1366 3272 1645 3428 
Q 1925 3584 2291 3584 
Q 2894 3584 3203 3211 
Q 3513 2838 3513 2113 
z
" id="DejaVuSans-6e" transform="scale(0.015625)"/>
       </defs>
       <use xlink:href="#DejaVuSans-4a"/>
       <use x="29.492188" xlink:href="#DejaVuSans-61"/>
       <use x="90.771484" xlink:href="#DejaVuSans-6e"/>
      </g>
      <!-- 2021 -->
      <g transform="translate(421.803731 570.47625)scale(0.1 -0.1)">
       <defs>
        <path d="M 1228 531 
L 3431 531 
L 3431 0 
L 469 0 
L 469 531 
Q 828 903 1448 1529 
Q 2069 2156 2228 2338 
Q 2531 2678 2651 2914 
Q 2772 3150 2772 3378 
Q 2772 3750 2511 3984 
Q 2250 4219 1831 4219 
Q 1534 4219 1204 4116 
Q 875 4013 500 3803 
L 500 4441 
Q 881 4594 1212 4672 
Q 1544 4750 1819 4750 
Q 2544 4750 2975 4387 
Q 3406 4025 3406 3419 
Q 3406 3131 3298 2873 
Q 3191 2616 2906 2266 
Q 2828 2175 2409 1742 
Q 1991 1309 1228 531 
z
" id="DejaVuSans-32" transform="scale(0.015625)"/>
        <path d="M 2034 4250 
Q 1547 4250 1301 3770 
Q 1056 3291 1056 2328 
Q 1056 1369 1301 889 
Q 1547 409 2034 409 
Q 2525 409 2770 889 
Q 3016 1369 3016 2328 
Q 3016 3291 2770 3770 
Q 2525 4250 2034 4250 
z
M 2034 4750 
Q 2819 4750 3233 4129 
Q 3647 3509 3647 2328 
Q 3647 1150 3233 529 
Q 2819 -91 2034 -91 
Q 1250 -91 836 529 
Q 422 1150 422 2328 
Q 422 3509 836 4129 
Q 1250 4750 2034 4750 
z
" id="DejaVuSans-30" transform="scale(0.015625)"/>
        <path d="M 794 531 
L 1825 531 
L 1825 4091 
L 703 3866 
L 703 4441 
L 1819 4666 
L 2450 4666 
L 2450 531 
L 3481 531 
L 3481 0 
L 794 0 
L 794 531 
z
" id="DejaVuSans-31" transform="scale(0.015625)"/>
       </defs>
       <use xlink:href="#DejaVuSans-32"/>
       <use x="63.623047" xlink:href="#DejaVuSans-30"/>
       <use x="127.246094" xlink:href="#DejaVuSans-32"/>
       <use x="190.869141" xlink:href="#DejaVuSans-31"/>
      </g>
     </g>
    </g>
    <g id="xtick_6">
     <g id="line2d_11">
      <path clip-path="url(#p68e2955192)" d="M 537.592164 544.68 
L 537.592164 73.44 
" style="fill:none;stroke:#b0b0b0;stroke-linecap:square;stroke-width:0.8;"/>
     </g>
     <g id="line2d_12">
      <g>
       <use style="stroke:#000000;stroke-width:0.8;" x="537.592164" xlink:href="#m4abed1d830" y="544.68"/>
      </g>
     </g>
     <g id="text_5">
      <!-- Apr -->
      <g transform="translate(528.942164 559.278437)scale(0.1 -0.1)">
       <use xlink:href="#DejaVuSans-41"/>
       <use x="68.408203" xlink:href="#DejaVuSans-70"/>
       <use x="131.884766" xlink:href="#DejaVuSans-72"/>
      </g>
     </g>
    </g>
    <g id="xtick_7">
     <g id="line2d_13">
      <path clip-path="url(#p68e2955192)" d="M 641.800746 544.68 
L 641.800746 73.44 
" style="fill:none;stroke:#b0b0b0;stroke-linecap:square;stroke-width:0.8;"/>
     </g>
     <g id="line2d_14">
      <g>
       <use style="stroke:#000000;stroke-width:0.8;" x="641.800746" xlink:href="#m4abed1d830" y="544.68"/>
      </g>
     </g>
     <g id="text_6">
      <!-- Jul -->
      <g transform="translate(635.767934 559.278437)scale(0.1 -0.1)">
       <use xlink:href="#DejaVuSans-4a"/>
       <use x="29.492188" xlink:href="#DejaVuSans-75"/>
       <use x="92.871094" xlink:href="#DejaVuSans-6c"/>
      </g>
     </g>
    </g>
    <g id="xtick_8">
     <g id="line2d_15">
      <path clip-path="url(#p68e2955192)" d="M 712.8 544.68 
L 712.8 73.44 
" style="fill:none;stroke:#b0b0b0;stroke-linecap:square;stroke-width:0.8;"/>
     </g>
     <g id="line2d_16">
      <g>
       <use style="stroke:#000000;stroke-width:0.8;" x="712.8" xlink:href="#m4abed1d830" y="544.68"/>
      </g>
     </g>
    </g>
    <g id="xtick_9">
     <g id="line2d_17">
      <defs>
       <path d="M 0 0 
L 0 2 
" id="mbe9820739d" style="stroke:#000000;stroke-width:0.6;"/>
      </defs>
      <g>
       <use style="stroke:#000000;stroke-width:0.6;" x="153.967164" xlink:href="#mbe9820739d" y="544.68"/>
      </g>
     </g>
    </g>
    <g id="xtick_10">
     <g id="line2d_18">
      <g>
       <use style="stroke:#000000;stroke-width:0.6;" x="189.466791" xlink:href="#mbe9820739d" y="544.68"/>
      </g>
     </g>
    </g>
    <g id="xtick_11">
     <g id="line2d_19">
      <g>
       <use style="stroke:#000000;stroke-width:0.6;" x="259.320896" xlink:href="#mbe9820739d" y="544.68"/>
      </g>
     </g>
    </g>
    <g id="xtick_12">
     <g id="line2d_20">
      <g>
       <use style="stroke:#000000;stroke-width:0.6;" x="294.820522" xlink:href="#mbe9820739d" y="544.68"/>
      </g>
     </g>
    </g>
    <g id="xtick_13">
     <g id="line2d_21">
      <g>
       <use style="stroke:#000000;stroke-width:0.6;" x="364.674627" xlink:href="#mbe9820739d" y="544.68"/>
      </g>
     </g>
    </g>
    <g id="xtick_14">
     <g id="line2d_22">
      <g>
       <use style="stroke:#000000;stroke-width:0.6;" x="399.029104" xlink:href="#mbe9820739d" y="544.68"/>
      </g>
     </g>
    </g>
    <g id="xtick_15">
     <g id="line2d_23">
      <g>
       <use style="stroke:#000000;stroke-width:0.6;" x="470.028358" xlink:href="#mbe9820739d" y="544.68"/>
      </g>
     </g>
    </g>
    <g id="xtick_16">
     <g id="line2d_24">
      <g>
       <use style="stroke:#000000;stroke-width:0.6;" x="502.092537" xlink:href="#mbe9820739d" y="544.68"/>
      </g>
     </g>
    </g>
    <g id="xtick_17">
     <g id="line2d_25">
      <g>
       <use style="stroke:#000000;stroke-width:0.6;" x="571.946642" xlink:href="#mbe9820739d" y="544.68"/>
      </g>
     </g>
    </g>
    <g id="xtick_18">
     <g id="line2d_26">
      <g>
       <use style="stroke:#000000;stroke-width:0.6;" x="607.446269" xlink:href="#mbe9820739d" y="544.68"/>
      </g>
     </g>
    </g>
    <g id="xtick_19">
     <g id="line2d_27">
      <g>
       <use style="stroke:#000000;stroke-width:0.6;" x="677.300373" xlink:href="#mbe9820739d" y="544.68"/>
      </g>
     </g>
    </g>
    <g id="text_7">
     <!-- Date -->
     <g transform="translate(393.949219 584.154375)scale(0.1 -0.1)">
      <defs>
       <path d="M 1259 4147 
L 1259 519 
L 2022 519 
Q 2988 519 3436 956 
Q 3884 1394 3884 2338 
Q 3884 3275 3436 3711 
Q 2988 4147 2022 4147 
L 1259 4147 
z
M 628 4666 
L 1925 4666 
Q 3281 4666 3915 4102 
Q 4550 3538 4550 2338 
Q 4550 1131 3912 565 
Q 3275 0 1925 0 
L 628 0 
L 628 4666 
z
" id="DejaVuSans-44" transform="scale(0.015625)"/>
       <path d="M 3597 1894 
L 3597 1613 
L 953 1613 
Q 991 1019 1311 708 
Q 1631 397 2203 397 
Q 2534 397 2845 478 
Q 3156 559 3463 722 
L 3463 178 
Q 3153 47 2828 -22 
Q 2503 -91 2169 -91 
Q 1331 -91 842 396 
Q 353 884 353 1716 
Q 353 2575 817 3079 
Q 1281 3584 2069 3584 
Q 2775 3584 3186 3129 
Q 3597 2675 3597 1894 
z
M 3022 2063 
Q 3016 2534 2758 2815 
Q 2500 3097 2075 3097 
Q 1594 3097 1305 2825 
Q 1016 2553 972 2059 
L 3022 2063 
z
" id="DejaVuSans-65" transform="scale(0.015625)"/>
      </defs>
      <use xlink:href="#DejaVuSans-44"/>
      <use x="77.001953" xlink:href="#DejaVuSans-61"/>
      <use x="138.28125" xlink:href="#DejaVuSans-74"/>
      <use x="177.490234" xlink:href="#DejaVuSans-65"/>
     </g>
    </g>
   </g>
   <g id="matplotlib.axis_2">
    <g id="ytick_1">
     <g id="line2d_28">
      <path clip-path="url(#p68e2955192)" d="M 99 469.071167 
L 712.8 469.071167 
" style="fill:none;stroke:#b0b0b0;stroke-linecap:square;stroke-width:0.8;"/>
     </g>
     <g id="line2d_29">
      <defs>
       <path d="M 0 0 
L -3.5 0 
" id="me91a084207" style="stroke:#000000;stroke-width:0.8;"/>
      </defs>
      <g>
       <use style="stroke:#000000;stroke-width:0.8;" x="99" xlink:href="#me91a084207" y="469.071167"/>
      </g>
     </g>
     <g id="text_8">
      <!-- $\mathdefault{10^{0}}$ -->
      <g transform="translate(74.4 472.870386)scale(0.1 -0.1)">
       <use transform="translate(0 0.765625)" xlink:href="#DejaVuSans-31"/>
       <use transform="translate(63.623047 0.765625)" xlink:href="#DejaVuSans-30"/>
       <use transform="translate(128.203125 39.046875)scale(0.7)" xlink:href="#DejaVuSans-30"/>
      </g>
     </g>
    </g>
    <g id="ytick_2">
     <g id="line2d_30">
      <path clip-path="url(#p68e2955192)" d="M 99 289.059759 
L 712.8 289.059759 
" style="fill:none;stroke:#b0b0b0;stroke-linecap:square;stroke-width:0.8;"/>
     </g>
     <g id="line2d_31">
      <g>
       <use style="stroke:#000000;stroke-width:0.8;" x="99" xlink:href="#me91a084207" y="289.059759"/>
      </g>
     </g>
     <g id="text_9">
      <!-- $\mathdefault{10^{1}}$ -->
      <g transform="translate(74.4 292.858978)scale(0.1 -0.1)">
       <use transform="translate(0 0.684375)" xlink:href="#DejaVuSans-31"/>
       <use transform="translate(63.623047 0.684375)" xlink:href="#DejaVuSans-30"/>
       <use transform="translate(128.203125 38.965625)scale(0.7)" xlink:href="#DejaVuSans-31"/>
      </g>
     </g>
    </g>
    <g id="ytick_3">
     <g id="line2d_32">
      <path clip-path="url(#p68e2955192)" d="M 99 109.048352 
L 712.8 109.048352 
" style="fill:none;stroke:#b0b0b0;stroke-linecap:square;stroke-width:0.8;"/>
     </g>
     <g id="line2d_33">
      <g>
       <use style="stroke:#000000;stroke-width:0.8;" x="99" xlink:href="#me91a084207" y="109.048352"/>
      </g>
     </g>
     <g id="text_10">
      <!-- $\mathdefault{10^{2}}$ -->
      <g transform="translate(74.4 112.847571)scale(0.1 -0.1)">
       <use transform="translate(0 0.765625)" xlink:href="#DejaVuSans-31"/>
       <use transform="translate(63.623047 0.765625)" xlink:href="#DejaVuSans-30"/>
       <use transform="translate(128.203125 39.046875)scale(0.7)" xlink:href="#DejaVuSans-32"/>
      </g>
     </g>
    </g>
    <g id="ytick_4">
     <g id="line2d_34">
      <path clip-path="url(#p68e2955192)" d="M 99 540.704908 
L 712.8 540.704908 
" style="fill:none;stroke:#b0b0b0;stroke-linecap:square;stroke-width:0.8;"/>
     </g>
     <g id="line2d_35">
      <defs>
       <path d="M 0 0 
L -2 0 
" id="m0cb60b688e" style="stroke:#000000;stroke-width:0.6;"/>
      </defs>
      <g>
       <use style="stroke:#000000;stroke-width:0.6;" x="99" xlink:href="#m0cb60b688e" y="540.704908"/>
      </g>
     </g>
    </g>
    <g id="ytick_5">
     <g id="line2d_36">
      <path clip-path="url(#p68e2955192)" d="M 99 523.26 
L 712.8 523.26 
" style="fill:none;stroke:#b0b0b0;stroke-linecap:square;stroke-width:0.8;"/>
     </g>
     <g id="line2d_37">
      <g>
       <use style="stroke:#000000;stroke-width:0.6;" x="99" xlink:href="#m0cb60b688e" y="523.26"/>
      </g>
     </g>
    </g>
    <g id="ytick_6">
     <g id="line2d_38">
      <path clip-path="url(#p68e2955192)" d="M 99 509.006472 
L 712.8 509.006472 
" style="fill:none;stroke:#b0b0b0;stroke-linecap:square;stroke-width:0.8;"/>
     </g>
     <g id="line2d_39">
      <g>
       <use style="stroke:#000000;stroke-width:0.6;" x="99" xlink:href="#m0cb60b688e" y="509.006472"/>
      </g>
     </g>
    </g>
    <g id="ytick_7">
     <g id="line2d_40">
      <path clip-path="url(#p68e2955192)" d="M 99 496.955287 
L 712.8 496.955287 
" style="fill:none;stroke:#b0b0b0;stroke-linecap:square;stroke-width:0.8;"/>
     </g>
     <g id="line2d_41">
      <g>
       <use style="stroke:#000000;stroke-width:0.6;" x="99" xlink:href="#m0cb60b688e" y="496.955287"/>
      </g>
     </g>
    </g>
    <g id="ytick_8">
     <g id="line2d_42">
      <path clip-path="url(#p68e2955192)" d="M 99 486.516075 
L 712.8 486.516075 
" style="fill:none;stroke:#b0b0b0;stroke-linecap:square;stroke-width:0.8;"/>
     </g>
     <g id="line2d_43">
      <g>
       <use style="stroke:#000000;stroke-width:0.6;" x="99" xlink:href="#m0cb60b688e" y="486.516075"/>
      </g>
     </g>
    </g>
    <g id="ytick_9">
     <g id="line2d_44">
      <path clip-path="url(#p68e2955192)" d="M 99 477.308037 
L 712.8 477.308037 
" style="fill:none;stroke:#b0b0b0;stroke-linecap:square;stroke-width:0.8;"/>
     </g>
     <g id="line2d_45">
      <g>
       <use style="stroke:#000000;stroke-width:0.6;" x="99" xlink:href="#m0cb60b688e" y="477.308037"/>
      </g>
     </g>
    </g>
    <g id="ytick_10">
     <g id="line2d_46">
      <path clip-path="url(#p68e2955192)" d="M 99 414.882334 
L 712.8 414.882334 
" style="fill:none;stroke:#b0b0b0;stroke-linecap:square;stroke-width:0.8;"/>
     </g>
     <g id="line2d_47">
      <g>
       <use style="stroke:#000000;stroke-width:0.6;" x="99" xlink:href="#m0cb60b688e" y="414.882334"/>
      </g>
     </g>
    </g>
    <g id="ytick_11">
     <g id="line2d_48">
      <path clip-path="url(#p68e2955192)" d="M 99 383.183898 
L 712.8 383.183898 
" style="fill:none;stroke:#b0b0b0;stroke-linecap:square;stroke-width:0.8;"/>
     </g>
     <g id="line2d_49">
      <g>
       <use style="stroke:#000000;stroke-width:0.6;" x="99" xlink:href="#m0cb60b688e" y="383.183898"/>
      </g>
     </g>
    </g>
    <g id="ytick_12">
     <g id="line2d_50">
      <path clip-path="url(#p68e2955192)" d="M 99 360.6935 
L 712.8 360.6935 
" style="fill:none;stroke:#b0b0b0;stroke-linecap:square;stroke-width:0.8;"/>
     </g>
     <g id="line2d_51">
      <g>
       <use style="stroke:#000000;stroke-width:0.6;" x="99" xlink:href="#m0cb60b688e" y="360.6935"/>
      </g>
     </g>
    </g>
    <g id="ytick_13">
     <g id="line2d_52">
      <path clip-path="url(#p68e2955192)" d="M 99 343.248593 
L 712.8 343.248593 
" style="fill:none;stroke:#b0b0b0;stroke-linecap:square;stroke-width:0.8;"/>
     </g>
     <g id="line2d_53">
      <g>
       <use style="stroke:#000000;stroke-width:0.6;" x="99" xlink:href="#m0cb60b688e" y="343.248593"/>
      </g>
     </g>
    </g>
    <g id="ytick_14">
     <g id="line2d_54">
      <path clip-path="url(#p68e2955192)" d="M 99 328.995065 
L 712.8 328.995065 
" style="fill:none;stroke:#b0b0b0;stroke-linecap:square;stroke-width:0.8;"/>
     </g>
     <g id="line2d_55">
      <g>
       <use style="stroke:#000000;stroke-width:0.6;" x="99" xlink:href="#m0cb60b688e" y="328.995065"/>
      </g>
     </g>
    </g>
    <g id="ytick_15">
     <g id="line2d_56">
      <path clip-path="url(#p68e2955192)" d="M 99 316.943879 
L 712.8 316.943879 
" style="fill:none;stroke:#b0b0b0;stroke-linecap:square;stroke-width:0.8;"/>
     </g>
     <g id="line2d_57">
      <g>
       <use style="stroke:#000000;stroke-width:0.6;" x="99" xlink:href="#m0cb60b688e" y="316.943879"/>
      </g>
     </g>
    </g>
    <g id="ytick_16">
     <g id="line2d_58">
      <path clip-path="url(#p68e2955192)" d="M 99 306.504667 
L 712.8 306.504667 
" style="fill:none;stroke:#b0b0b0;stroke-linecap:square;stroke-width:0.8;"/>
     </g>
     <g id="line2d_59">
      <g>
       <use style="stroke:#000000;stroke-width:0.6;" x="99" xlink:href="#m0cb60b688e" y="306.504667"/>
      </g>
     </g>
    </g>
    <g id="ytick_17">
     <g id="line2d_60">
      <path clip-path="url(#p68e2955192)" d="M 99 297.29663 
L 712.8 297.29663 
" style="fill:none;stroke:#b0b0b0;stroke-linecap:square;stroke-width:0.8;"/>
     </g>
     <g id="line2d_61">
      <g>
       <use style="stroke:#000000;stroke-width:0.6;" x="99" xlink:href="#m0cb60b688e" y="297.29663"/>
      </g>
     </g>
    </g>
    <g id="ytick_18">
     <g id="line2d_62">
      <path clip-path="url(#p68e2955192)" d="M 99 234.870926 
L 712.8 234.870926 
" style="fill:none;stroke:#b0b0b0;stroke-linecap:square;stroke-width:0.8;"/>
     </g>
     <g id="line2d_63">
      <g>
       <use style="stroke:#000000;stroke-width:0.6;" x="99" xlink:href="#m0cb60b688e" y="234.870926"/>
      </g>
     </g>
    </g>
    <g id="ytick_19">
     <g id="line2d_64">
      <path clip-path="url(#p68e2955192)" d="M 99 203.172491 
L 712.8 203.172491 
" style="fill:none;stroke:#b0b0b0;stroke-linecap:square;stroke-width:0.8;"/>
     </g>
     <g id="line2d_65">
      <g>
       <use style="stroke:#000000;stroke-width:0.6;" x="99" xlink:href="#m0cb60b688e" y="203.172491"/>
      </g>
     </g>
    </g>
    <g id="ytick_20">
     <g id="line2d_66">
      <path clip-path="url(#p68e2955192)" d="M 99 180.682093 
L 712.8 180.682093 
" style="fill:none;stroke:#b0b0b0;stroke-linecap:square;stroke-width:0.8;"/>
     </g>
     <g id="line2d_67">
      <g>
       <use style="stroke:#000000;stroke-width:0.6;" x="99" xlink:href="#m0cb60b688e" y="180.682093"/>
      </g>
     </g>
    </g>
    <g id="ytick_21">
     <g id="line2d_68">
      <path clip-path="url(#p68e2955192)" d="M 99 163.237185 
L 712.8 163.237185 
" style="fill:none;stroke:#b0b0b0;stroke-linecap:square;stroke-width:0.8;"/>
     </g>
     <g id="line2d_69">
      <g>
       <use style="stroke:#000000;stroke-width:0.6;" x="99" xlink:href="#m0cb60b688e" y="163.237185"/>
      </g>
     </g>
    </g>
    <g id="ytick_22">
     <g id="line2d_70">
      <path clip-path="url(#p68e2955192)" d="M 99 148.983658 
L 712.8 148.983658 
" style="fill:none;stroke:#b0b0b0;stroke-linecap:square;stroke-width:0.8;"/>
     </g>
     <g id="line2d_71">
      <g>
       <use style="stroke:#000000;stroke-width:0.6;" x="99" xlink:href="#m0cb60b688e" y="148.983658"/>
      </g>
     </g>
    </g>
    <g id="ytick_23">
     <g id="line2d_72">
      <path clip-path="url(#p68e2955192)" d="M 99 136.932472 
L 712.8 136.932472 
" style="fill:none;stroke:#b0b0b0;stroke-linecap:square;stroke-width:0.8;"/>
     </g>
     <g id="line2d_73">
      <g>
       <use style="stroke:#000000;stroke-width:0.6;" x="99" xlink:href="#m0cb60b688e" y="136.932472"/>
      </g>
     </g>
    </g>
    <g id="ytick_24">
     <g id="line2d_74">
      <path clip-path="url(#p68e2955192)" d="M 99 126.49326 
L 712.8 126.49326 
" style="fill:none;stroke:#b0b0b0;stroke-linecap:square;stroke-width:0.8;"/>
     </g>
     <g id="line2d_75">
      <g>
       <use style="stroke:#000000;stroke-width:0.6;" x="99" xlink:href="#m0cb60b688e" y="126.49326"/>
      </g>
     </g>
    </g>
    <g id="ytick_25">
     <g id="line2d_76">
      <path clip-path="url(#p68e2955192)" d="M 99 117.285222 
L 712.8 117.285222 
" style="fill:none;stroke:#b0b0b0;stroke-linecap:square;stroke-width:0.8;"/>
     </g>
     <g id="line2d_77">
      <g>
       <use style="stroke:#000000;stroke-width:0.6;" x="99" xlink:href="#m0cb60b688e" y="117.285222"/>
      </g>
     </g>
    </g>
   </g>
   <g id="line2d_78">
    <path clip-path="url(#p68e2955192)" d="M 123.047563 613 
L 123.048134 523.26 
L 123.048705 613 
M 125.337862 613 
L 125.338433 523.26 
L 126.483582 469.071167 
L 127.628731 469.071167 
L 128.773881 437.372731 
L 129.91903 469.071167 
L 135.644776 469.071167 
L 136.789925 523.26 
L 137.935075 523.26 
L 137.935646 613 
M 151.676295 613 
L 151.676866 523.26 
L 152.822015 523.26 
L 152.822586 613 
M 222.675548 613 
L 222.676119 523.26 
L 223.821269 469.071167 
L 224.966418 437.372731 
L 226.111567 414.882334 
L 227.256716 437.372731 
L 228.401866 437.372731 
L 229.547015 414.882334 
L 230.692164 414.882334 
L 231.837313 397.437426 
L 234.127612 343.248593 
L 235.272761 328.995065 
L 236.41791 328.995065 
L 237.56306 311.550157 
L 238.708209 289.059759 
L 239.853358 289.059759 
L 240.998507 274.806232 
L 242.143657 271.614852 
L 243.288806 262.755046 
L 249.014552 262.755046 
L 250.159701 271.614852 
L 251.304851 281.608604 
L 252.45 285.245444 
L 253.595149 285.245444 
L 254.740299 293.069765 
L 255.885448 289.059759 
L 257.030597 293.069765 
L 261.611194 293.069765 
L 262.756343 289.059759 
L 263.901493 289.059759 
L 265.046642 274.806232 
L 267.33694 274.806232 
L 268.48209 260.011678 
L 269.627239 249.910169 
L 270.772388 240.965801 
L 271.917537 240.965801 
L 273.062687 234.870926 
L 279.933582 234.870926 
L 281.078731 220.617399 
L 282.223881 204.486437 
L 284.514179 204.486437 
L 285.659328 211.409361 
L 289.094776 211.409361 
L 290.239925 229.217044 
L 291.385075 208.566213 
L 293.675373 208.566213 
L 294.820522 238.880931 
L 295.965672 293.069765 
L 297.110821 335.797437 
L 298.25597 343.248593 
L 299.401119 335.797437 
L 301.691418 335.797437 
L 302.836567 343.248593 
L 303.981716 335.797437 
L 305.126866 343.248593 
L 307.417164 343.248593 
L 308.562313 351.485463 
L 309.707463 360.6935 
L 310.852612 343.248593 
L 313.14291 343.248593 
L 314.28806 328.995065 
L 315.433209 343.248593 
L 316.578358 343.248593 
L 317.723507 397.437426 
L 318.868657 343.248593 
L 320.013806 343.248593 
L 321.158955 371.132712 
L 322.304104 328.995065 
L 325.739552 328.995065 
L 326.884701 371.132712 
L 329.175 371.132712 
L 330.320149 523.26 
L 331.465299 469.071167 
L 332.610448 523.26 
L 333.755597 523.26 
L 333.756168 613 
M 337.190474 613 
L 337.191045 523.26 
L 337.191616 613 
M 350.932265 613 
L 350.932836 523.26 
L 350.933407 613 
M 354.367713 613 
L 354.368284 523.26 
L 354.368855 613 
M 357.80316 613 
L 357.803731 523.26 
L 358.948881 523.26 
L 360.09403 437.372731 
L 361.239179 469.071167 
L 362.384328 414.882334 
L 366.964925 414.882334 
L 368.110075 397.437426 
L 369.255224 414.882334 
L 374.98097 414.882334 
L 376.126119 469.071167 
L 384.142164 469.071167 
L 385.287313 360.6935 
L 386.432463 316.943879 
L 387.577612 316.943879 
L 388.722761 306.504667 
L 389.86791 306.504667 
L 391.01306 301.765158 
L 393.303358 301.765158 
L 394.448507 316.943879 
L 395.593657 311.550157 
L 397.883955 311.550157 
L 399.029104 328.995065 
L 400.174254 328.995065 
L 401.319403 343.248593 
L 402.464552 343.248593 
L 403.609701 371.132712 
L 404.754851 437.372731 
L 405.9 414.882334 
L 407.045149 414.882334 
L 409.335448 274.806232 
L 410.480597 240.965801 
L 411.625746 274.806232 
L 412.770896 274.806232 
L 413.916045 247.576325 
L 415.061194 236.850221 
L 416.206343 247.576325 
L 417.351493 236.850221 
L 420.78694 236.850221 
L 421.93209 247.576325 
L 423.077239 260.011678 
L 425.367537 260.011678 
L 426.512687 271.614852 
L 428.802985 271.614852 
L 431.093284 285.245444 
L 432.238433 278.133456 
L 433.383582 278.133456 
L 434.528731 285.245444 
L 435.673881 301.765158 
L 436.81903 335.797437 
L 437.964179 335.797437 
L 439.109328 397.437426 
L 439.110699 613 
M 462.010651 613 
L 462.012313 351.485463 
L 464.302612 351.485463 
L 465.447761 289.059759 
L 466.59291 271.614852 
L 467.73806 271.614852 
L 468.883209 289.059759 
L 470.028358 271.614852 
L 471.173507 289.059759 
L 472.318657 316.943879 
L 473.463806 293.069765 
L 474.608955 297.29663 
L 475.754104 316.943879 
L 476.899254 297.29663 
L 478.044403 316.943879 
L 486.060448 316.943879 
L 488.350746 328.995065 
L 489.495896 328.995065 
L 490.641045 306.504667 
L 491.786194 306.504667 
L 492.931343 437.372731 
L 494.076493 371.132712 
L 495.221642 371.132712 
L 496.366791 316.943879 
L 497.51194 316.943879 
L 498.65709 371.132712 
L 499.802239 316.943879 
L 500.947388 316.943879 
L 502.092537 371.132712 
L 503.237687 371.132712 
L 504.382836 316.943879 
L 505.527985 322.737489 
L 508.963433 322.737489 
L 510.108582 293.069765 
L 511.253731 351.485463 
L 512.398881 351.485463 
L 513.54403 383.183898 
L 514.689179 328.995065 
L 515.834328 383.183898 
L 519.269776 383.183898 
L 519.271237 613 
M 585.687062 613 
L 585.688433 397.437426 
L 587.978731 397.437426 
L 587.980102 613 
M 593.703107 613 
L 593.704478 397.437426 
L 594.849627 397.437426 
L 594.850998 613 
M 622.331404 613 
L 622.333209 328.995065 
L 624.623507 328.995065 
L 625.768657 274.806232 
L 630.349254 274.806232 
L 631.494403 297.29663 
L 632.639552 335.797437 
L 637.220149 335.797437 
L 638.365299 351.485463 
L 639.510448 351.485463 
L 640.655597 414.882334 
L 641.800746 414.882334 
L 641.802006 613 
M 656.685972 613 
L 656.687687 343.248593 
L 661.268284 343.248593 
L 662.413433 271.614852 
L 663.558582 271.614852 
L 664.703731 343.248593 
L 665.848881 271.614852 
L 666.99403 343.248593 
L 670.429478 343.248593 
L 670.431192 613 
M 680.733843 613 
L 680.735821 301.765158 
L 681.88097 301.765158 
L 683.026119 225.662889 
L 686.461567 225.662889 
L 687.606716 200.609049 
L 689.897015 200.609049 
L 691.042164 174.12441 
L 694.477612 174.12441 
L 695.622761 179.710926 
L 696.76791 158.681841 
L 697.91306 188.918963 
L 699.058209 293.069765 
L 700.203358 293.069765 
L 701.348507 188.918963 
L 702.493657 257.361324 
L 704.783955 257.361324 
L 705.929104 335.797437 
L 709.364552 335.797437 
L 709.366314 613 
M 711.653089 613 
L 711.654851 335.797437 
L 711.656613 613 
" style="fill:none;stroke:#1f77b4;stroke-linecap:square;stroke-width:1.5;"/>
   </g>
   <g id="line2d_79">
    <path clip-path="url(#p68e2955192)" d="M 0 0 
" style="fill:none;stroke:#ff7f0e;stroke-linecap:square;stroke-width:1.5;"/>
   </g>
   <g id="patch_3">
    <path d="M 99 544.68 
L 99 73.44 
" style="fill:none;stroke:#000000;stroke-linecap:square;stroke-linejoin:miter;stroke-width:0.8;"/>
   </g>
   <g id="patch_4">
    <path d="M 712.8 544.68 
L 712.8 73.44 
" style="fill:none;stroke:#000000;stroke-linecap:square;stroke-linejoin:miter;stroke-width:0.8;"/>
   </g>
   <g id="patch_5">
    <path d="M 99 544.68 
L 712.8 544.68 
" style="fill:none;stroke:#000000;stroke-linecap:square;stroke-linejoin:miter;stroke-width:0.8;"/>
   </g>
   <g id="patch_6">
    <path d="M 99 73.44 
L 712.8 73.44 
" style="fill:none;stroke:#000000;stroke-linecap:square;stroke-linejoin:miter;stroke-width:0.8;"/>
   </g>
   <g id="legend_1">
    <g id="patch_7">
     <path d="M 616.653125 110.79625 
L 705.8 110.79625 
Q 707.8 110.79625 707.8 108.79625 
L 707.8 80.44 
Q 707.8 78.44 705.8 78.44 
L 616.653125 78.44 
Q 614.653125 78.44 614.653125 80.44 
L 614.653125 108.79625 
Q 614.653125 110.79625 616.653125 110.79625 
z
" style="fill:#ffffff;opacity:0.8;stroke:#cccccc;stroke-linejoin:miter;"/>
    </g>
    <g id="line2d_80">
     <path d="M 618.653125 86.538437 
L 638.653125 86.538437 
" style="fill:none;stroke:#1f77b4;stroke-linecap:square;stroke-width:1.5;"/>
    </g>
    <g id="line2d_81"/>
    <g id="text_11">
     <!-- Avg Cases -->
     <g transform="translate(646.653125 90.038437)scale(0.1 -0.1)">
      <defs>
       <path d="M 191 3500 
L 800 3500 
L 1894 563 
L 2988 3500 
L 3597 3500 
L 2284 0 
L 1503 0 
L 191 3500 
z
" id="DejaVuSans-76" transform="scale(0.015625)"/>
       <path d="M 2906 1791 
Q 2906 2416 2648 2759 
Q 2391 3103 1925 3103 
Q 1463 3103 1205 2759 
Q 947 2416 947 1791 
Q 947 1169 1205 825 
Q 1463 481 1925 481 
Q 2391 481 2648 825 
Q 2906 1169 2906 1791 
z
M 3481 434 
Q 3481 -459 3084 -895 
Q 2688 -1331 1869 -1331 
Q 1566 -1331 1297 -1286 
Q 1028 -1241 775 -1147 
L 775 -588 
Q 1028 -725 1275 -790 
Q 1522 -856 1778 -856 
Q 2344 -856 2625 -561 
Q 2906 -266 2906 331 
L 2906 616 
Q 2728 306 2450 153 
Q 2172 0 1784 0 
Q 1141 0 747 490 
Q 353 981 353 1791 
Q 353 2603 747 3093 
Q 1141 3584 1784 3584 
Q 2172 3584 2450 3431 
Q 2728 3278 2906 2969 
L 2906 3500 
L 3481 3500 
L 3481 434 
z
" id="DejaVuSans-67" transform="scale(0.015625)"/>
       <path id="DejaVuSans-20" transform="scale(0.015625)"/>
       <path d="M 4122 4306 
L 4122 3641 
Q 3803 3938 3442 4084 
Q 3081 4231 2675 4231 
Q 1875 4231 1450 3742 
Q 1025 3253 1025 2328 
Q 1025 1406 1450 917 
Q 1875 428 2675 428 
Q 3081 428 3442 575 
Q 3803 722 4122 1019 
L 4122 359 
Q 3791 134 3420 21 
Q 3050 -91 2638 -91 
Q 1578 -91 968 557 
Q 359 1206 359 2328 
Q 359 3453 968 4101 
Q 1578 4750 2638 4750 
Q 3056 4750 3426 4639 
Q 3797 4528 4122 4306 
z
" id="DejaVuSans-43" transform="scale(0.015625)"/>
       <path d="M 2834 3397 
L 2834 2853 
Q 2591 2978 2328 3040 
Q 2066 3103 1784 3103 
Q 1356 3103 1142 2972 
Q 928 2841 928 2578 
Q 928 2378 1081 2264 
Q 1234 2150 1697 2047 
L 1894 2003 
Q 2506 1872 2764 1633 
Q 3022 1394 3022 966 
Q 3022 478 2636 193 
Q 2250 -91 1575 -91 
Q 1294 -91 989 -36 
Q 684 19 347 128 
L 347 722 
Q 666 556 975 473 
Q 1284 391 1588 391 
Q 1994 391 2212 530 
Q 2431 669 2431 922 
Q 2431 1156 2273 1281 
Q 2116 1406 1581 1522 
L 1381 1569 
Q 847 1681 609 1914 
Q 372 2147 372 2553 
Q 372 3047 722 3315 
Q 1072 3584 1716 3584 
Q 2034 3584 2315 3537 
Q 2597 3491 2834 3397 
z
" id="DejaVuSans-73" transform="scale(0.015625)"/>
      </defs>
      <use xlink:href="#DejaVuSans-41"/>
      <use x="62.533203" xlink:href="#DejaVuSans-76"/>
      <use x="121.712891" xlink:href="#DejaVuSans-67"/>
      <use x="185.189453" xlink:href="#DejaVuSans-20"/>
      <use x="216.976562" xlink:href="#DejaVuSans-43"/>
      <use x="286.800781" xlink:href="#DejaVuSans-61"/>
      <use x="348.080078" xlink:href="#DejaVuSans-73"/>
      <use x="400.179688" xlink:href="#DejaVuSans-65"/>
      <use x="461.703125" xlink:href="#DejaVuSans-73"/>
     </g>
    </g>
    <g id="line2d_82">
     <path d="M 618.653125 101.216562 
L 638.653125 101.216562 
" style="fill:none;stroke:#ff7f0e;stroke-linecap:square;stroke-width:1.5;"/>
    </g>
    <g id="line2d_83"/>
    <g id="text_12">
     <!-- Avg Deaths -->
     <g transform="translate(646.653125 104.716562)scale(0.1 -0.1)">
      <defs>
       <path d="M 3513 2113 
L 3513 0 
L 2938 0 
L 2938 2094 
Q 2938 2591 2744 2837 
Q 2550 3084 2163 3084 
Q 1697 3084 1428 2787 
Q 1159 2491 1159 1978 
L 1159 0 
L 581 0 
L 581 4863 
L 1159 4863 
L 1159 2956 
Q 1366 3272 1645 3428 
Q 1925 3584 2291 3584 
Q 2894 3584 3203 3211 
Q 3513 2838 3513 2113 
z
" id="DejaVuSans-68" transform="scale(0.015625)"/>
      </defs>
      <use xlink:href="#DejaVuSans-41"/>
      <use x="62.533203" xlink:href="#DejaVuSans-76"/>
      <use x="121.712891" xlink:href="#DejaVuSans-67"/>
      <use x="185.189453" xlink:href="#DejaVuSans-20"/>
      <use x="216.976562" xlink:href="#DejaVuSans-44"/>
      <use x="293.978516" xlink:href="#DejaVuSans-65"/>
      <use x="355.501953" xlink:href="#DejaVuSans-61"/>
      <use x="416.78125" xlink:href="#DejaVuSans-74"/>
      <use x="455.990234" xlink:href="#DejaVuSans-68"/>
      <use x="519.369141" xlink:href="#DejaVuSans-73"/>
     </g>
    </g>
   </g>
  </g>
 </g>
 <defs>
  <clipPath id="p68e2955192">
   <rect height="471.24" width="613.8" x="99" y="73.44"/>
  </clipPath>
 </defs>
</svg>
