<?xml version="1.0" encoding="utf-8" standalone="no"?>
<!DOCTYPE svg PUBLIC "-//W3C//DTD SVG 1.1//EN"
  "http://www.w3.org/Graphics/SVG/1.1/DTD/svg11.dtd">
<svg height="612pt" version="1.1" viewBox="0 0 792 612" width="792pt" xmlns="http://www.w3.org/2000/svg" xmlns:xlink="http://www.w3.org/1999/xlink">
 <metadata>
  <rdf:RDF xmlns:cc="http://creativecommons.org/ns#" xmlns:dc="http://purl.org/dc/elements/1.1/" xmlns:rdf="http://www.w3.org/1999/02/22-rdf-syntax-ns#">
   <cc:Work>
    <dc:type rdf:resource="http://purl.org/dc/dcmitype/StillImage"/>
    <dc:date>2021-08-06T12:54:24.748084</dc:date>
    <dc:format>image/svg+xml</dc:format>
    <dc:creator>
     <cc:Agent>
      <dc:title>Matplotlib v3.4.2, https://matplotlib.org/</dc:title>
     </cc:Agent>
    </dc:creator>
   </cc:Work>
  </rdf:RDF>
 </metadata>
 <defs>
  <style type="text/css">*{stroke-linecap:butt;stroke-linejoin:round;}</style>
 </defs>
 <g id="figure_1">
  <g id="patch_1">
   <path d="M 0 612 
L 792 612 
L 792 0 
L 0 0 
z
" style="fill:#ffffff;"/>
  </g>
  <g id="axes_1">
   <g id="patch_2">
    <path d="M 99 544.68 
L 712.8 544.68 
L 712.8 73.44 
L 99 73.44 
z
" style="fill:#ffffff;"/>
   </g>
   <g id="PolyCollection_1">
    <path clip-path="url(#p68e2955192)" d="M 99 180480.478538 
L 99 180480.478538 
L 100.205894 180480.478538 
L 101.411788 180480.478538 
L 102.617682 180480.478538 
L 103.823576 180480.478538 
L 105.02947 180480.478538 
L 106.235363 180480.478538 
L 107.441257 180480.478538 
L 108.647151 180480.478538 
L 109.853045 180480.478538 
L 111.058939 180480.478538 
L 112.264833 180480.478538 
L 113.470727 180480.478538 
L 114.676621 391.420769 
L 115.882515 391.420769 
L 117.088409 366.788375 
L 118.294303 327.702838 
L 119.500196 327.702838 
L 120.70609 327.702838 
L 121.911984 316.943879 
L 123.117878 316.943879 
L 124.323772 316.943879 
L 125.529666 327.702838 
L 126.73556 327.702838 
L 127.941454 327.702838 
L 129.147348 327.702838 
L 130.353242 327.702838 
L 131.559136 327.702838 
L 132.765029 327.702838 
L 133.970923 327.702838 
L 135.176817 360.6935 
L 136.382711 360.6935 
L 137.588605 360.6935 
L 138.794499 373.398899 
L 140.000393 373.398899 
L 141.206287 414.882334 
L 142.412181 414.882334 
L 143.618075 427.587732 
L 144.823969 427.587732 
L 146.029862 427.587732 
L 147.235756 469.071167 
L 148.44165 469.071167 
L 149.647544 427.587732 
L 150.853438 414.882334 
L 152.059332 414.882334 
L 153.265226 414.882334 
L 154.47112 391.420769 
L 155.677014 391.420769 
L 156.882908 391.420769 
L 158.088802 391.420769 
L 159.294695 391.420769 
L 160.500589 391.420769 
L 161.706483 391.420769 
L 162.912377 391.420769 
L 164.118271 391.420769 
L 165.324165 391.420769 
L 166.530059 391.420769 
L 167.735953 391.420769 
L 168.941847 391.420769 
L 170.147741 427.587732 
L 171.353635 496.955287 
L 172.559528 496.955287 
L 173.765422 496.955287 
L 174.971316 496.955287 
L 176.17721 496.955287 
L 177.383104 496.955287 
L 178.588998 496.955287 
L 179.794892 496.955287 
L 181.000786 180480.478538 
L 182.20668 180480.478538 
L 183.412574 180480.478538 
L 184.618468 180480.478538 
L 185.824361 180480.478538 
L 187.030255 180480.478538 
L 188.236149 180480.478538 
L 189.442043 180480.478538 
L 190.647937 180480.478538 
L 191.853831 180480.478538 
L 193.059725 180480.478538 
L 194.265619 180480.478538 
L 195.471513 180480.478538 
L 196.677407 496.955287 
L 197.883301 496.955287 
L 199.089194 496.955287 
L 200.295088 496.955287 
L 201.500982 496.955287 
L 202.706876 496.955287 
L 203.91277 469.071167 
L 205.118664 469.071167 
L 206.324558 469.071167 
L 207.530452 469.071167 
L 208.736346 496.955287 
L 209.94224 469.071167 
L 211.148134 469.071167 
L 212.354028 469.071167 
L 213.559921 496.955287 
L 214.765815 469.071167 
L 215.971709 469.071167 
L 217.177603 469.071167 
L 218.383497 469.071167 
L 219.589391 469.071167 
L 220.795285 427.587732 
L 222.001179 414.882334 
L 223.207073 414.882334 
L 224.412967 414.882334 
L 225.618861 414.882334 
L 226.824754 414.882334 
L 228.030648 414.882334 
L 229.236542 391.420769 
L 230.442436 391.420769 
L 231.64833 341.700464 
L 232.854224 328.995065 
L 234.060118 328.995065 
L 235.266012 328.995065 
L 236.471906 328.995065 
L 237.6778 328.995065 
L 238.883694 282.322563 
L 240.089587 276.120178 
L 241.295481 264.448498 
L 242.501375 262.755046 
L 243.707269 236.450333 
L 244.913163 236.450333 
L 246.119057 220.292334 
L 247.324951 220.292334 
L 248.530845 220.292334 
L 249.736739 220.292334 
L 250.942633 220.292334 
L 252.148527 220.292334 
L 253.35442 220.292334 
L 254.560314 220.292334 
L 255.766208 215.267121 
L 256.972102 215.267121 
L 258.177996 215.267121 
L 259.38389 215.267121 
L 260.589784 219.968615 
L 261.795678 219.968615 
L 263.001572 242.243943 
L 264.207466 242.243943 
L 265.41336 242.243943 
L 266.619253 239.293481 
L 267.825147 238.062307 
L 269.031041 238.062307 
L 270.236935 234.48101 
L 271.442829 223.605455 
L 272.648723 223.605455 
L 273.854617 223.605455 
L 275.060511 223.605455 
L 276.266405 223.605455 
L 277.472299 223.605455 
L 278.678193 209.974863 
L 279.884086 190.454064 
L 281.08998 190.454064 
L 282.295874 155.078532 
L 283.501768 155.078532 
L 284.707662 155.078532 
L 285.913556 155.078532 
L 287.11945 155.078532 
L 288.325344 155.078532 
L 289.531238 155.928301 
L 290.737132 153.820951 
L 291.943026 143.451076 
L 293.148919 143.451076 
L 294.354813 143.451076 
L 295.560707 143.451076 
L 296.766601 151.904057 
L 297.972495 151.904057 
L 299.178389 173.587102 
L 300.384283 173.587102 
L 301.590177 161.230533 
L 302.796071 161.230533 
L 304.001965 161.230533 
L 305.207859 161.230533 
L 306.413752 161.230533 
L 307.619646 161.230533 
L 308.82554 178.561229 
L 310.031434 178.561229 
L 311.237328 178.561229 
L 312.443222 178.561229 
L 313.649116 187.626736 
L 314.85501 187.626736 
L 316.060904 251.828742 
L 317.266798 251.828742 
L 318.472692 251.828742 
L 319.678585 251.828742 
L 320.884479 251.828742 
L 322.090373 251.828742 
L 323.296267 251.828742 
L 324.502161 251.828742 
L 325.708055 241.38953 
L 326.913949 245.310138 
L 328.119843 248.037553 
L 329.325737 248.037553 
L 330.531631 248.037553 
L 331.737525 248.037553 
L 332.943418 248.037553 
L 334.149312 248.037553 
L 335.355206 248.037553 
L 336.5611 248.037553 
L 337.766994 248.037553 
L 338.972888 248.037553 
L 340.178782 248.037553 
L 341.384676 248.037553 
L 342.59057 274.806232 
L 343.796464 274.806232 
L 345.002358 280.901106 
L 346.208251 280.901106 
L 347.414145 283.043102 
L 348.620039 312.599542 
L 349.825933 312.599542 
L 351.031827 326.431624 
L 352.237721 427.587732 
L 353.443615 427.587732 
L 354.649509 427.587732 
L 355.855403 391.420769 
L 357.061297 391.420769 
L 358.267191 427.587732 
L 359.473084 427.587732 
L 360.678978 391.420769 
L 361.884872 391.420769 
L 363.090766 391.420769 
L 364.29666 391.420769 
L 365.502554 391.420769 
L 366.708448 341.700464 
L 367.914342 341.700464 
L 369.120236 341.700464 
L 370.32613 341.700464 
L 371.532024 341.700464 
L 372.737917 341.700464 
L 373.943811 341.700464 
L 375.149705 341.700464 
L 376.355599 328.995065 
L 377.561493 305.5335 
L 378.767387 305.5335 
L 379.973281 305.5335 
L 381.179175 297.29663 
L 382.385069 297.29663 
L 383.590963 297.29663 
L 384.796857 297.29663 
L 386.00275 271.614852 
L 387.208644 271.614852 
L 388.414538 271.614852 
L 389.620432 271.614852 
L 390.826326 271.614852 
L 392.03222 271.614852 
L 393.238114 264.448498 
L 394.444008 276.120178 
L 395.649902 276.120178 
L 396.855796 276.120178 
L 398.06169 260.552704 
L 399.267583 260.552704 
L 400.473477 260.552704 
L 401.679371 260.552704 
L 402.885265 268.548656 
L 404.091159 268.548656 
L 405.297053 268.548656 
L 406.502947 264.448498 
L 407.708841 264.448498 
L 408.914735 264.448498 
L 410.120629 264.448498 
L 411.326523 255.303891 
L 412.532417 255.303891 
L 413.73831 255.303891 
L 414.944204 264.448498 
L 416.150098 245.310138 
L 417.355992 245.310138 
L 418.561886 225.662889 
L 419.76778 225.662889 
L 420.973674 225.662889 
L 422.179568 197.155834 
L 423.385462 192.246187 
L 424.591356 192.246187 
L 425.79725 189.573176 
L 427.003143 184.486637 
L 428.209037 184.486637 
L 429.414931 184.486637 
L 430.620825 184.486637 
L 431.826719 184.486637 
L 433.032613 189.573176 
L 434.238507 170.096435 
L 435.444401 170.096435 
L 436.650295 170.096435 
L 437.856189 170.096435 
L 439.062083 170.610202 
L 440.267976 170.610202 
L 441.47387 170.610202 
L 442.679764 177.615898 
L 443.885658 228.493169 
L 445.091552 228.493169 
L 446.297446 228.493169 
L 447.50334 228.493169 
L 448.709234 232.940508 
L 449.915128 207.733047 
L 451.121022 228.493169 
L 452.326916 235.656641 
L 453.532809 235.656641 
L 454.738703 235.656641 
L 455.944597 235.656641 
L 457.150491 235.656641 
L 458.356385 235.656641 
L 459.562279 241.815569 
L 460.768173 249.910169 
L 461.974067 249.910169 
L 463.179961 249.910169 
L 464.385855 249.910169 
L 465.591749 208.566213 
L 466.797642 249.910169 
L 468.003536 333.00507 
L 469.20943 356.879185 
L 470.415324 180480.478538 
L 471.621218 141.769765 
L 472.827112 141.769765 
L 474.033006 133.973738 
L 475.2389 133.973738 
L 476.444794 133.973738 
L 477.650688 133.973738 
L 478.856582 133.973738 
L 480.062475 133.973738 
L 481.268369 133.973738 
L 482.474263 223.944623 
L 483.680157 223.944623 
L 484.886051 223.944623 
L 486.091945 223.944623 
L 487.297839 223.944623 
L 488.503733 224.971044 
L 489.709627 223.944623 
L 490.915521 224.971044 
L 492.121415 227.065222 
L 493.327308 227.065222 
L 494.533202 227.065222 
L 495.739096 233.706965 
L 496.94499 230.315582 
L 498.150884 230.315582 
L 499.356778 241.38953 
L 500.562672 241.38953 
L 501.768566 236.05248 
L 502.97446 234.870926 
L 504.180354 234.870926 
L 505.386248 234.870926 
L 506.592141 236.05248 
L 507.798035 236.05248 
L 509.003929 236.05248 
L 510.209823 236.05248 
L 511.415717 236.05248 
L 512.621611 236.05248 
L 513.827505 236.05248 
L 515.033399 236.05248 
L 516.239293 238.470547 
L 517.445187 234.870926 
L 518.651081 238.470547 
L 519.856974 247.576325 
L 521.062868 247.576325 
L 522.268762 247.576325 
L 523.474656 253.299218 
L 524.68055 253.299218 
L 525.886444 206.09289 
L 527.092338 206.09289 
L 528.298232 209.408353 
L 529.504126 209.408353 
L 530.71002 209.408353 
L 531.915914 196.196583 
L 533.121807 196.196583 
L 534.327701 217.739357 
L 535.533595 219.646231 
L 536.739489 219.646231 
L 537.945383 219.646231 
L 539.151277 219.646231 
L 540.357171 219.646231 
L 541.563065 219.646231 
L 542.768959 283.770344 
L 543.974853 283.770344 
L 545.180747 293.069765 
L 546.38664 293.069765 
L 547.592534 293.069765 
L 548.798428 328.995065 
L 550.004322 328.995065 
L 551.210216 328.995065 
L 552.41611 351.485463 
L 553.622004 306.504667 
L 554.827898 272.24279 
L 556.033792 272.24279 
L 557.239686 272.24279 
L 558.44558 272.24279 
L 559.651473 272.24279 
L 560.857367 272.24279 
L 562.063261 272.24279 
L 563.269155 272.24279 
L 564.475049 272.24279 
L 565.680943 201.880264 
L 566.886837 201.880264 
L 568.092731 272.24279 
L 569.298625 227.065222 
L 570.504519 227.065222 
L 571.710413 234.870926 
L 572.916306 242.243943 
L 574.1222 212.282867 
L 575.328094 212.282867 
L 576.533988 212.282867 
L 577.739882 212.282867 
L 578.945776 212.282867 
L 580.15167 212.282867 
L 581.357564 212.282867 
L 582.563458 222.931503 
L 583.769352 222.931503 
L 584.975246 222.931503 
L 586.181139 220.617399 
L 587.387033 220.617399 
L 588.592927 220.617399 
L 589.798821 220.617399 
L 591.004715 232.940508 
L 592.210609 232.940508 
L 593.416503 232.940508 
L 594.622397 237.656186 
L 595.828291 215.877889 
L 597.034185 215.877889 
L 598.240079 215.877889 
L 599.445972 215.877889 
L 600.651866 215.877889 
L 601.85776 215.877889 
L 603.063654 236.450333 
L 604.269548 236.450333 
L 605.475442 205.822845 
L 606.681336 205.822845 
L 607.88723 205.018262 
L 609.093124 205.018262 
L 610.299018 205.018262 
L 611.504912 205.018262 
L 612.710806 223.944623 
L 613.916699 223.944623 
L 615.122593 223.944623 
L 616.328487 223.944623 
L 617.534381 223.944623 
L 618.740275 223.944623 
L 619.946169 223.944623 
L 621.152063 223.944623 
L 622.357957 226.011121 
L 623.563851 226.011121 
L 624.769745 226.011121 
L 625.975639 226.011121 
L 627.181532 232.181493 
L 628.387426 232.181493 
L 629.59332 188.05511 
L 630.799214 188.05511 
L 632.005108 188.05511 
L 633.211002 188.05511 
L 634.416896 186.776967 
L 635.62279 170.096435 
L 636.828684 170.096435 
L 638.034578 170.096435 
L 639.240472 170.096435 
L 640.446365 170.096435 
L 641.652259 170.096435 
L 642.858153 166.918711 
L 644.064047 166.918711 
L 645.269941 166.918711 
L 646.475835 166.918711 
L 647.681729 166.918711 
L 648.887623 166.918711 
L 650.093517 166.918711 
L 651.299411 166.918711 
L 652.505305 168.40786 
L 653.711198 168.40786 
L 654.917092 168.40786 
L 656.122986 168.40786 
L 657.32888 168.40786 
L 658.534774 176.496385 
L 659.740668 198.127001 
L 660.946562 245.758151 
L 662.152456 245.758151 
L 663.35835 245.758151 
L 664.564244 245.758151 
L 665.770138 245.758151 
L 666.976031 245.758151 
L 668.181925 240.125169 
L 669.387819 240.125169 
L 670.593713 199.110384 
L 671.799607 199.110384 
L 673.005501 199.110384 
L 674.211395 199.110384 
L 675.417289 199.110384 
L 676.623183 173.230938 
L 677.829077 173.230938 
L 679.034971 173.230938 
L 680.240864 188.05511 
L 681.446758 188.05511 
L 682.652652 188.05511 
L 683.858546 188.05511 
L 685.06444 188.05511 
L 686.270334 173.230938 
L 687.476228 174.304336 
L 688.682122 174.304336 
L 689.888016 174.304336 
L 691.09391 174.304336 
L 692.299804 153.268454 
L 693.505697 158.387385 
L 694.711591 158.387385 
L 695.917485 142.485904 
L 697.123379 142.485904 
L 698.329273 142.485904 
L 699.535167 142.485904 
L 700.741061 134.838786 
L 701.946955 134.838786 
L 703.152849 134.838786 
L 704.358743 124.182413 
L 705.564637 124.182413 
L 706.77053 124.182413 
L 707.976424 124.182413 
L 709.182318 104.272062 
L 710.388212 104.272062 
L 711.594106 104.272062 
L 712.8 94.86 
L 712.8 180480.478538 
L 712.8 180480.478538 
L 711.594106 180480.478538 
L 710.388212 180480.478538 
L 709.182318 180480.478538 
L 707.976424 180480.478538 
L 706.77053 180480.478538 
L 705.564637 180480.478538 
L 704.358743 180480.478538 
L 703.152849 180480.478538 
L 701.946955 180480.478538 
L 700.741061 180480.478538 
L 699.535167 180480.478538 
L 698.329273 180480.478538 
L 697.123379 180480.478538 
L 695.917485 180480.478538 
L 694.711591 180480.478538 
L 693.505697 180480.478538 
L 692.299804 180480.478538 
L 691.09391 180480.478538 
L 689.888016 180480.478538 
L 688.682122 180480.478538 
L 687.476228 180480.478538 
L 686.270334 180480.478538 
L 685.06444 180480.478538 
L 683.858546 180480.478538 
L 682.652652 180480.478538 
L 681.446758 180480.478538 
L 680.240864 180480.478538 
L 679.034971 180480.478538 
L 677.829077 180480.478538 
L 676.623183 180480.478538 
L 675.417289 180480.478538 
L 674.211395 180480.478538 
L 673.005501 180480.478538 
L 671.799607 180480.478538 
L 670.593713 180480.478538 
L 669.387819 180480.478538 
L 668.181925 180480.478538 
L 666.976031 180480.478538 
L 665.770138 180480.478538 
L 664.564244 180480.478538 
L 663.35835 180480.478538 
L 662.152456 180480.478538 
L 660.946562 180480.478538 
L 659.740668 180480.478538 
L 658.534774 180480.478538 
L 657.32888 180480.478538 
L 656.122986 180480.478538 
L 654.917092 180480.478538 
L 653.711198 180480.478538 
L 652.505305 180480.478538 
L 651.299411 180480.478538 
L 650.093517 180480.478538 
L 648.887623 180480.478538 
L 647.681729 180480.478538 
L 646.475835 180480.478538 
L 645.269941 180480.478538 
L 644.064047 180480.478538 
L 642.858153 180480.478538 
L 641.652259 180480.478538 
L 640.446365 180480.478538 
L 639.240472 180480.478538 
L 638.034578 180480.478538 
L 636.828684 180480.478538 
L 635.62279 180480.478538 
L 634.416896 180480.478538 
L 633.211002 180480.478538 
L 632.005108 180480.478538 
L 630.799214 180480.478538 
L 629.59332 180480.478538 
L 628.387426 180480.478538 
L 627.181532 180480.478538 
L 625.975639 180480.478538 
L 624.769745 180480.478538 
L 623.563851 180480.478538 
L 622.357957 180480.478538 
L 621.152063 180480.478538 
L 619.946169 180480.478538 
L 618.740275 180480.478538 
L 617.534381 180480.478538 
L 616.328487 180480.478538 
L 615.122593 180480.478538 
L 613.916699 180480.478538 
L 612.710806 180480.478538 
L 611.504912 180480.478538 
L 610.299018 180480.478538 
L 609.093124 180480.478538 
L 607.88723 180480.478538 
L 606.681336 180480.478538 
L 605.475442 180480.478538 
L 604.269548 180480.478538 
L 603.063654 180480.478538 
L 601.85776 180480.478538 
L 600.651866 180480.478538 
L 599.445972 180480.478538 
L 598.240079 180480.478538 
L 597.034185 180480.478538 
L 595.828291 180480.478538 
L 594.622397 180480.478538 
L 593.416503 180480.478538 
L 592.210609 180480.478538 
L 591.004715 180480.478538 
L 589.798821 180480.478538 
L 588.592927 180480.478538 
L 587.387033 180480.478538 
L 586.181139 180480.478538 
L 584.975246 180480.478538 
L 583.769352 180480.478538 
L 582.563458 180480.478538 
L 581.357564 180480.478538 
L 580.15167 180480.478538 
L 578.945776 180480.478538 
L 577.739882 180480.478538 
L 576.533988 180480.478538 
L 575.328094 180480.478538 
L 574.1222 180480.478538 
L 572.916306 180480.478538 
L 571.710413 180480.478538 
L 570.504519 180480.478538 
L 569.298625 180480.478538 
L 568.092731 180480.478538 
L 566.886837 180480.478538 
L 565.680943 180480.478538 
L 564.475049 180480.478538 
L 563.269155 180480.478538 
L 562.063261 180480.478538 
L 560.857367 180480.478538 
L 559.651473 180480.478538 
L 558.44558 180480.478538 
L 557.239686 180480.478538 
L 556.033792 180480.478538 
L 554.827898 180480.478538 
L 553.622004 180480.478538 
L 552.41611 180480.478538 
L 551.210216 180480.478538 
L 550.004322 180480.478538 
L 548.798428 180480.478538 
L 547.592534 180480.478538 
L 546.38664 180480.478538 
L 545.180747 180480.478538 
L 543.974853 180480.478538 
L 542.768959 180480.478538 
L 541.563065 180480.478538 
L 540.357171 180480.478538 
L 539.151277 180480.478538 
L 537.945383 180480.478538 
L 536.739489 180480.478538 
L 535.533595 180480.478538 
L 534.327701 180480.478538 
L 533.121807 180480.478538 
L 531.915914 180480.478538 
L 530.71002 180480.478538 
L 529.504126 180480.478538 
L 528.298232 180480.478538 
L 527.092338 180480.478538 
L 525.886444 180480.478538 
L 524.68055 180480.478538 
L 523.474656 180480.478538 
L 522.268762 180480.478538 
L 521.062868 180480.478538 
L 519.856974 180480.478538 
L 518.651081 180480.478538 
L 517.445187 180480.478538 
L 516.239293 180480.478538 
L 515.033399 180480.478538 
L 513.827505 180480.478538 
L 512.621611 180480.478538 
L 511.415717 180480.478538 
L 510.209823 180480.478538 
L 509.003929 180480.478538 
L 507.798035 180480.478538 
L 506.592141 180480.478538 
L 505.386248 180480.478538 
L 504.180354 180480.478538 
L 502.97446 180480.478538 
L 501.768566 180480.478538 
L 500.562672 180480.478538 
L 499.356778 180480.478538 
L 498.150884 180480.478538 
L 496.94499 368.930371 
L 495.739096 180480.478538 
L 494.533202 368.930371 
L 493.327308 368.930371 
L 492.121415 180480.478538 
L 490.915521 180480.478538 
L 489.709627 180480.478538 
L 488.503733 180480.478538 
L 487.297839 180480.478538 
L 486.091945 180480.478538 
L 484.886051 180480.478538 
L 483.680157 180480.478538 
L 482.474263 180480.478538 
L 481.268369 180480.478538 
L 480.062475 180480.478538 
L 478.856582 180480.478538 
L 477.650688 180480.478538 
L 476.444794 180480.478538 
L 475.2389 180480.478538 
L 474.033006 180480.478538 
L 472.827112 180480.478538 
L 471.621218 180480.478538 
L 470.415324 180480.478538 
L 469.20943 180480.478538 
L 468.003536 180480.478538 
L 466.797642 180480.478538 
L 465.591749 180480.478538 
L 464.385855 180480.478538 
L 463.179961 180480.478538 
L 461.974067 180480.478538 
L 460.768173 180480.478538 
L 459.562279 180480.478538 
L 458.356385 180480.478538 
L 457.150491 180480.478538 
L 455.944597 180480.478538 
L 454.738703 180480.478538 
L 453.532809 180480.478538 
L 452.326916 180480.478538 
L 451.121022 180480.478538 
L 449.915128 180480.478538 
L 448.709234 180480.478538 
L 447.50334 180480.478538 
L 446.297446 297.29663 
L 445.091552 297.29663 
L 443.885658 297.29663 
L 442.679764 297.29663 
L 441.47387 297.29663 
L 440.267976 297.29663 
L 439.062083 297.29663 
L 437.856189 282.322563 
L 436.650295 297.29663 
L 435.444401 180480.478538 
L 434.238507 180480.478538 
L 433.032613 180480.478538 
L 431.826719 180480.478538 
L 430.620825 180480.478538 
L 429.414931 180480.478538 
L 428.209037 180480.478538 
L 427.003143 368.930371 
L 425.79725 180480.478538 
L 424.591356 180480.478538 
L 423.385462 180480.478538 
L 422.179568 180480.478538 
L 420.973674 180480.478538 
L 419.76778 180480.478538 
L 418.561886 180480.478538 
L 417.355992 180480.478538 
L 416.150098 391.420769 
L 414.944204 391.420769 
L 413.73831 391.420769 
L 412.532417 391.420769 
L 411.326523 180480.478538 
L 410.120629 180480.478538 
L 408.914735 391.420769 
L 407.708841 391.420769 
L 406.502947 391.420769 
L 405.297053 391.420769 
L 404.091159 180480.478538 
L 402.885265 180480.478538 
L 401.679371 180480.478538 
L 400.473477 180480.478538 
L 399.267583 180480.478538 
L 398.06169 180480.478538 
L 396.855796 180480.478538 
L 395.649902 180480.478538 
L 394.444008 180480.478538 
L 393.238114 180480.478538 
L 392.03222 180480.478538 
L 390.826326 180480.478538 
L 389.620432 180480.478538 
L 388.414538 180480.478538 
L 387.208644 180480.478538 
L 386.00275 180480.478538 
L 384.796857 180480.478538 
L 383.590963 180480.478538 
L 382.385069 180480.478538 
L 381.179175 180480.478538 
L 379.973281 180480.478538 
L 378.767387 180480.478538 
L 377.561493 180480.478538 
L 376.355599 180480.478538 
L 375.149705 180480.478538 
L 373.943811 180480.478538 
L 372.737917 180480.478538 
L 371.532024 180480.478538 
L 370.32613 180480.478538 
L 369.120236 180480.478538 
L 367.914342 180480.478538 
L 366.708448 180480.478538 
L 365.502554 180480.478538 
L 364.29666 180480.478538 
L 363.090766 180480.478538 
L 361.884872 180480.478538 
L 360.678978 180480.478538 
L 359.473084 180480.478538 
L 358.267191 180480.478538 
L 357.061297 180480.478538 
L 355.855403 180480.478538 
L 354.649509 180480.478538 
L 353.443615 180480.478538 
L 352.237721 180480.478538 
L 351.031827 180480.478538 
L 349.825933 180480.478538 
L 348.620039 180480.478538 
L 347.414145 180480.478538 
L 346.208251 180480.478538 
L 345.002358 180480.478538 
L 343.796464 180480.478538 
L 342.59057 180480.478538 
L 341.384676 180480.478538 
L 340.178782 180480.478538 
L 338.972888 180480.478538 
L 337.766994 180480.478538 
L 336.5611 180480.478538 
L 335.355206 180480.478538 
L 334.149312 180480.478538 
L 332.943418 180480.478538 
L 331.737525 180480.478538 
L 330.531631 180480.478538 
L 329.325737 180480.478538 
L 328.119843 477.308037 
L 326.913949 477.308037 
L 325.708055 469.071167 
L 324.502161 477.308037 
L 323.296267 477.308037 
L 322.090373 469.071167 
L 320.884479 469.071167 
L 319.678585 469.071167 
L 318.472692 366.788375 
L 317.266798 366.788375 
L 316.060904 366.788375 
L 314.85501 366.788375 
L 313.649116 469.071167 
L 312.443222 366.788375 
L 311.237328 366.788375 
L 310.031434 366.788375 
L 308.82554 477.308037 
L 307.619646 366.788375 
L 306.413752 366.788375 
L 305.207859 344.827999 
L 304.001965 343.248593 
L 302.796071 267.949588 
L 301.590177 266.765051 
L 300.384283 325.18075 
L 299.178389 266.765051 
L 297.972495 266.765051 
L 296.766601 266.765051 
L 295.560707 266.765051 
L 294.354813 243.981302 
L 293.148919 243.981302 
L 291.943026 243.981302 
L 290.737132 318.068761 
L 289.531238 318.068761 
L 288.325344 318.068761 
L 287.11945 318.068761 
L 285.913556 318.068761 
L 284.707662 337.231935 
L 283.501768 262.198617 
L 282.295874 262.198617 
L 281.08998 337.231935 
L 279.884086 292.25114 
L 278.678193 337.231935 
L 277.472299 337.231935 
L 276.266405 337.231935 
L 275.060511 337.231935 
L 273.854617 305.5335 
L 272.648723 337.231935 
L 271.442829 337.231935 
L 270.236935 180480.478538 
L 269.031041 180480.478538 
L 267.825147 180480.478538 
L 266.619253 180480.478538 
L 265.41336 180480.478538 
L 264.207466 337.231935 
L 263.001572 337.231935 
L 261.795678 328.995065 
L 260.589784 328.995065 
L 259.38389 328.995065 
L 258.177996 292.25114 
L 256.972102 285.245444 
L 255.766208 283.043102 
L 254.560314 283.043102 
L 253.35442 283.043102 
L 252.148527 299.946984 
L 250.942633 299.946984 
L 249.736739 328.995065 
L 248.530845 328.995065 
L 247.324951 328.995065 
L 246.119057 331.645419 
L 244.913163 331.645419 
L 243.707269 362.672795 
L 242.501375 385.834252 
L 241.295481 418.892339 
L 240.089587 477.308037 
L 238.883694 477.308037 
L 237.6778 477.308037 
L 236.471906 477.308037 
L 235.266012 180480.478538 
L 234.060118 180480.478538 
L 232.854224 180480.478538 
L 231.64833 180480.478538 
L 230.442436 180480.478538 
L 229.236542 180480.478538 
L 228.030648 180480.478538 
L 226.824754 180480.478538 
L 225.618861 180480.478538 
L 224.412967 180480.478538 
L 223.207073 180480.478538 
L 222.001179 180480.478538 
L 220.795285 180480.478538 
L 219.589391 180480.478538 
L 218.383497 180480.478538 
L 217.177603 180480.478538 
L 215.971709 180480.478538 
L 214.765815 180480.478538 
L 213.559921 180480.478538 
L 212.354028 180480.478538 
L 211.148134 180480.478538 
L 209.94224 180480.478538 
L 208.736346 180480.478538 
L 207.530452 180480.478538 
L 206.324558 180480.478538 
L 205.118664 180480.478538 
L 203.91277 180480.478538 
L 202.706876 180480.478538 
L 201.500982 180480.478538 
L 200.295088 180480.478538 
L 199.089194 180480.478538 
L 197.883301 180480.478538 
L 196.677407 180480.478538 
L 195.471513 180480.478538 
L 194.265619 180480.478538 
L 193.059725 180480.478538 
L 191.853831 180480.478538 
L 190.647937 180480.478538 
L 189.442043 180480.478538 
L 188.236149 180480.478538 
L 187.030255 180480.478538 
L 185.824361 180480.478538 
L 184.618468 180480.478538 
L 183.412574 180480.478538 
L 182.20668 180480.478538 
L 181.000786 180480.478538 
L 179.794892 180480.478538 
L 178.588998 180480.478538 
L 177.383104 180480.478538 
L 176.17721 180480.478538 
L 174.971316 180480.478538 
L 173.765422 180480.478538 
L 172.559528 180480.478538 
L 171.353635 180480.478538 
L 170.147741 180480.478538 
L 168.941847 180480.478538 
L 167.735953 180480.478538 
L 166.530059 180480.478538 
L 165.324165 180480.478538 
L 164.118271 180480.478538 
L 162.912377 180480.478538 
L 161.706483 180480.478538 
L 160.500589 180480.478538 
L 159.294695 180480.478538 
L 158.088802 180480.478538 
L 156.882908 180480.478538 
L 155.677014 180480.478538 
L 154.47112 180480.478538 
L 153.265226 180480.478538 
L 152.059332 180480.478538 
L 150.853438 180480.478538 
L 149.647544 180480.478538 
L 148.44165 180480.478538 
L 147.235756 180480.478538 
L 146.029862 180480.478538 
L 144.823969 180480.478538 
L 143.618075 180480.478538 
L 142.412181 180480.478538 
L 141.206287 180480.478538 
L 140.000393 180480.478538 
L 138.794499 180480.478538 
L 137.588605 180480.478538 
L 136.382711 180480.478538 
L 135.176817 180480.478538 
L 133.970923 180480.478538 
L 132.765029 477.308037 
L 131.559136 477.308037 
L 130.353242 477.308037 
L 129.147348 180480.478538 
L 127.941454 180480.478538 
L 126.73556 180480.478538 
L 125.529666 180480.478538 
L 124.323772 180480.478538 
L 123.117878 180480.478538 
L 121.911984 180480.478538 
L 120.70609 180480.478538 
L 119.500196 180480.478538 
L 118.294303 180480.478538 
L 117.088409 180480.478538 
L 115.882515 180480.478538 
L 114.676621 180480.478538 
L 113.470727 180480.478538 
L 112.264833 180480.478538 
L 111.058939 180480.478538 
L 109.853045 180480.478538 
L 108.647151 180480.478538 
L 107.441257 180480.478538 
L 106.235363 180480.478538 
L 105.02947 180480.478538 
L 103.823576 180480.478538 
L 102.617682 180480.478538 
L 101.411788 180480.478538 
L 100.205894 180480.478538 
L 99 180480.478538 
z
" style="fill:#8080ff;fill-opacity:0.5;stroke:#8080ff;stroke-opacity:0.5;"/>
   </g>
   <g id="PolyCollection_2">
    <path clip-path="url(#p68e2955192)" d="M 99 180480.478538 
L 99 180480.478538 
L 100.205894 180480.478538 
L 101.411788 180480.478538 
L 102.617682 180480.478538 
L 103.823576 180480.478538 
L 105.02947 180480.478538 
L 106.235363 180480.478538 
L 107.441257 180480.478538 
L 108.647151 180480.478538 
L 109.853045 180480.478538 
L 111.058939 180480.478538 
L 112.264833 180480.478538 
L 113.470727 180480.478538 
L 114.676621 180480.478538 
L 115.882515 180480.478538 
L 117.088409 180480.478538 
L 118.294303 180480.478538 
L 119.500196 180480.478538 
L 120.70609 180480.478538 
L 121.911984 180480.478538 
L 123.117878 180480.478538 
L 124.323772 180480.478538 
L 125.529666 180480.478538 
L 126.73556 180480.478538 
L 127.941454 180480.478538 
L 129.147348 180480.478538 
L 130.353242 180480.478538 
L 131.559136 180480.478538 
L 132.765029 180480.478538 
L 133.970923 180480.478538 
L 135.176817 180480.478538 
L 136.382711 180480.478538 
L 137.588605 180480.478538 
L 138.794499 496.955287 
L 140.000393 469.071167 
L 141.206287 469.071167 
L 142.412181 469.071167 
L 143.618075 496.955287 
L 144.823969 496.955287 
L 146.029862 496.955287 
L 147.235756 496.955287 
L 148.44165 496.955287 
L 149.647544 469.071167 
L 150.853438 469.071167 
L 152.059332 469.071167 
L 153.265226 469.071167 
L 154.47112 469.071167 
L 155.677014 496.955287 
L 156.882908 180480.478538 
L 158.088802 180480.478538 
L 159.294695 180480.478538 
L 160.500589 180480.478538 
L 161.706483 180480.478538 
L 162.912377 180480.478538 
L 164.118271 180480.478538 
L 165.324165 180480.478538 
L 166.530059 180480.478538 
L 167.735953 180480.478538 
L 168.941847 496.955287 
L 170.147741 496.955287 
L 171.353635 496.955287 
L 172.559528 496.955287 
L 173.765422 496.955287 
L 174.971316 496.955287 
L 176.17721 496.955287 
L 177.383104 496.955287 
L 178.588998 496.955287 
L 179.794892 496.955287 
L 181.000786 496.955287 
L 182.20668 496.955287 
L 183.412574 496.955287 
L 184.618468 180480.478538 
L 185.824361 180480.478538 
L 187.030255 180480.478538 
L 188.236149 180480.478538 
L 189.442043 180480.478538 
L 190.647937 180480.478538 
L 191.853831 180480.478538 
L 193.059725 180480.478538 
L 194.265619 180480.478538 
L 195.471513 180480.478538 
L 196.677407 180480.478538 
L 197.883301 180480.478538 
L 199.089194 180480.478538 
L 200.295088 180480.478538 
L 201.500982 180480.478538 
L 202.706876 180480.478538 
L 203.91277 180480.478538 
L 205.118664 180480.478538 
L 206.324558 180480.478538 
L 207.530452 180480.478538 
L 208.736346 180480.478538 
L 209.94224 180480.478538 
L 211.148134 180480.478538 
L 212.354028 180480.478538 
L 213.559921 180480.478538 
L 214.765815 180480.478538 
L 215.971709 180480.478538 
L 217.177603 180480.478538 
L 218.383497 180480.478538 
L 219.589391 180480.478538 
L 220.795285 180480.478538 
L 222.001179 180480.478538 
L 223.207073 180480.478538 
L 224.412967 180480.478538 
L 225.618861 180480.478538 
L 226.824754 180480.478538 
L 228.030648 180480.478538 
L 229.236542 180480.478538 
L 230.442436 180480.478538 
L 231.64833 180480.478538 
L 232.854224 180480.478538 
L 234.060118 180480.478538 
L 235.266012 180480.478538 
L 236.471906 180480.478538 
L 237.6778 180480.478538 
L 238.883694 180480.478538 
L 240.089587 180480.478538 
L 241.295481 180480.478538 
L 242.501375 180480.478538 
L 243.707269 180480.478538 
L 244.913163 180480.478538 
L 246.119057 180480.478538 
L 247.324951 180480.478538 
L 248.530845 180480.478538 
L 249.736739 180480.478538 
L 250.942633 180480.478538 
L 252.148527 180480.478538 
L 253.35442 180480.478538 
L 254.560314 180480.478538 
L 255.766208 180480.478538 
L 256.972102 180480.478538 
L 258.177996 180480.478538 
L 259.38389 180480.478538 
L 260.589784 180480.478538 
L 261.795678 180480.478538 
L 263.001572 180480.478538 
L 264.207466 496.955287 
L 265.41336 496.955287 
L 266.619253 496.955287 
L 267.825147 496.955287 
L 269.031041 496.955287 
L 270.236935 496.955287 
L 271.442829 496.955287 
L 272.648723 496.955287 
L 273.854617 496.955287 
L 275.060511 496.955287 
L 276.266405 496.955287 
L 277.472299 496.955287 
L 278.678193 496.955287 
L 279.884086 496.955287 
L 281.08998 180480.478538 
L 282.295874 180480.478538 
L 283.501768 180480.478538 
L 284.707662 180480.478538 
L 285.913556 180480.478538 
L 287.11945 180480.478538 
L 288.325344 180480.478538 
L 289.531238 180480.478538 
L 290.737132 180480.478538 
L 291.943026 180480.478538 
L 293.148919 180480.478538 
L 294.354813 496.955287 
L 295.560707 469.071167 
L 296.766601 469.071167 
L 297.972495 469.071167 
L 299.178389 469.071167 
L 300.384283 469.071167 
L 301.590177 469.071167 
L 302.796071 469.071167 
L 304.001965 469.071167 
L 305.207859 469.071167 
L 306.413752 469.071167 
L 307.619646 469.071167 
L 308.82554 469.071167 
L 310.031434 469.071167 
L 311.237328 469.071167 
L 312.443222 469.071167 
L 313.649116 469.071167 
L 314.85501 469.071167 
L 316.060904 469.071167 
L 317.266798 469.071167 
L 318.472692 469.071167 
L 319.678585 469.071167 
L 320.884479 469.071167 
L 322.090373 469.071167 
L 323.296267 469.071167 
L 324.502161 469.071167 
L 325.708055 469.071167 
L 326.913949 469.071167 
L 328.119843 496.955287 
L 329.325737 496.955287 
L 330.531631 180480.478538 
L 331.737525 180480.478538 
L 332.943418 180480.478538 
L 334.149312 180480.478538 
L 335.355206 180480.478538 
L 336.5611 180480.478538 
L 337.766994 180480.478538 
L 338.972888 180480.478538 
L 340.178782 180480.478538 
L 341.384676 180480.478538 
L 342.59057 180480.478538 
L 343.796464 180480.478538 
L 345.002358 180480.478538 
L 346.208251 180480.478538 
L 347.414145 180480.478538 
L 348.620039 180480.478538 
L 349.825933 180480.478538 
L 351.031827 180480.478538 
L 352.237721 180480.478538 
L 353.443615 180480.478538 
L 354.649509 180480.478538 
L 355.855403 180480.478538 
L 357.061297 180480.478538 
L 358.267191 180480.478538 
L 359.473084 180480.478538 
L 360.678978 180480.478538 
L 361.884872 180480.478538 
L 363.090766 180480.478538 
L 364.29666 180480.478538 
L 365.502554 180480.478538 
L 366.708448 180480.478538 
L 367.914342 180480.478538 
L 369.120236 180480.478538 
L 370.32613 180480.478538 
L 371.532024 180480.478538 
L 372.737917 180480.478538 
L 373.943811 180480.478538 
L 375.149705 180480.478538 
L 376.355599 180480.478538 
L 377.561493 180480.478538 
L 378.767387 180480.478538 
L 379.973281 180480.478538 
L 381.179175 180480.478538 
L 382.385069 496.955287 
L 383.590963 496.955287 
L 384.796857 496.955287 
L 386.00275 496.955287 
L 387.208644 496.955287 
L 388.414538 496.955287 
L 389.620432 496.955287 
L 390.826326 496.955287 
L 392.03222 496.955287 
L 393.238114 496.955287 
L 394.444008 496.955287 
L 395.649902 496.955287 
L 396.855796 496.955287 
L 398.06169 180480.478538 
L 399.267583 180480.478538 
L 400.473477 180480.478538 
L 401.679371 180480.478538 
L 402.885265 180480.478538 
L 404.091159 180480.478538 
L 405.297053 180480.478538 
L 406.502947 180480.478538 
L 407.708841 180480.478538 
L 408.914735 180480.478538 
L 410.120629 180480.478538 
L 411.326523 180480.478538 
L 412.532417 180480.478538 
L 413.73831 180480.478538 
L 414.944204 180480.478538 
L 416.150098 180480.478538 
L 417.355992 180480.478538 
L 418.561886 180480.478538 
L 419.76778 180480.478538 
L 420.973674 180480.478538 
L 422.179568 180480.478538 
L 423.385462 180480.478538 
L 424.591356 180480.478538 
L 425.79725 180480.478538 
L 427.003143 180480.478538 
L 428.209037 180480.478538 
L 429.414931 180480.478538 
L 430.620825 180480.478538 
L 431.826719 180480.478538 
L 433.032613 180480.478538 
L 434.238507 180480.478538 
L 435.444401 180480.478538 
L 436.650295 180480.478538 
L 437.856189 180480.478538 
L 439.062083 180480.478538 
L 440.267976 180480.478538 
L 441.47387 180480.478538 
L 442.679764 180480.478538 
L 443.885658 180480.478538 
L 445.091552 180480.478538 
L 446.297446 180480.478538 
L 447.50334 180480.478538 
L 448.709234 180480.478538 
L 449.915128 180480.478538 
L 451.121022 180480.478538 
L 452.326916 180480.478538 
L 453.532809 180480.478538 
L 454.738703 180480.478538 
L 455.944597 180480.478538 
L 457.150491 180480.478538 
L 458.356385 180480.478538 
L 459.562279 180480.478538 
L 460.768173 180480.478538 
L 461.974067 180480.478538 
L 463.179961 180480.478538 
L 464.385855 180480.478538 
L 465.591749 180480.478538 
L 466.797642 180480.478538 
L 468.003536 180480.478538 
L 469.20943 180480.478538 
L 470.415324 180480.478538 
L 471.621218 180480.478538 
L 472.827112 180480.478538 
L 474.033006 180480.478538 
L 475.2389 180480.478538 
L 476.444794 180480.478538 
L 477.650688 180480.478538 
L 478.856582 180480.478538 
L 480.062475 180480.478538 
L 481.268369 180480.478538 
L 482.474263 180480.478538 
L 483.680157 180480.478538 
L 484.886051 180480.478538 
L 486.091945 180480.478538 
L 487.297839 180480.478538 
L 488.503733 180480.478538 
L 489.709627 180480.478538 
L 490.915521 180480.478538 
L 492.121415 180480.478538 
L 493.327308 180480.478538 
L 494.533202 180480.478538 
L 495.739096 180480.478538 
L 496.94499 180480.478538 
L 498.150884 180480.478538 
L 499.356778 180480.478538 
L 500.562672 180480.478538 
L 501.768566 180480.478538 
L 502.97446 180480.478538 
L 504.180354 180480.478538 
L 505.386248 180480.478538 
L 506.592141 180480.478538 
L 507.798035 180480.478538 
L 509.003929 180480.478538 
L 510.209823 180480.478538 
L 511.415717 180480.478538 
L 512.621611 180480.478538 
L 513.827505 180480.478538 
L 515.033399 180480.478538 
L 516.239293 180480.478538 
L 517.445187 180480.478538 
L 518.651081 180480.478538 
L 519.856974 180480.478538 
L 521.062868 180480.478538 
L 522.268762 180480.478538 
L 523.474656 180480.478538 
L 524.68055 180480.478538 
L 525.886444 180480.478538 
L 527.092338 180480.478538 
L 528.298232 180480.478538 
L 529.504126 180480.478538 
L 530.71002 180480.478538 
L 531.915914 180480.478538 
L 533.121807 180480.478538 
L 534.327701 180480.478538 
L 535.533595 180480.478538 
L 536.739489 180480.478538 
L 537.945383 180480.478538 
L 539.151277 180480.478538 
L 540.357171 180480.478538 
L 541.563065 180480.478538 
L 542.768959 180480.478538 
L 543.974853 180480.478538 
L 545.180747 180480.478538 
L 546.38664 180480.478538 
L 547.592534 180480.478538 
L 548.798428 180480.478538 
L 550.004322 180480.478538 
L 551.210216 180480.478538 
L 552.41611 180480.478538 
L 553.622004 180480.478538 
L 554.827898 180480.478538 
L 556.033792 180480.478538 
L 557.239686 180480.478538 
L 558.44558 180480.478538 
L 559.651473 180480.478538 
L 560.857367 180480.478538 
L 562.063261 180480.478538 
L 563.269155 180480.478538 
L 564.475049 180480.478538 
L 565.680943 180480.478538 
L 566.886837 180480.478538 
L 568.092731 180480.478538 
L 569.298625 180480.478538 
L 570.504519 180480.478538 
L 571.710413 180480.478538 
L 572.916306 180480.478538 
L 574.1222 180480.478538 
L 575.328094 180480.478538 
L 576.533988 180480.478538 
L 577.739882 180480.478538 
L 578.945776 180480.478538 
L 580.15167 180480.478538 
L 581.357564 180480.478538 
L 582.563458 180480.478538 
L 583.769352 180480.478538 
L 584.975246 180480.478538 
L 586.181139 180480.478538 
L 587.387033 180480.478538 
L 588.592927 180480.478538 
L 589.798821 180480.478538 
L 591.004715 180480.478538 
L 592.210609 180480.478538 
L 593.416503 180480.478538 
L 594.622397 180480.478538 
L 595.828291 180480.478538 
L 597.034185 180480.478538 
L 598.240079 180480.478538 
L 599.445972 180480.478538 
L 600.651866 180480.478538 
L 601.85776 180480.478538 
L 603.063654 180480.478538 
L 604.269548 180480.478538 
L 605.475442 180480.478538 
L 606.681336 180480.478538 
L 607.88723 180480.478538 
L 609.093124 180480.478538 
L 610.299018 180480.478538 
L 611.504912 180480.478538 
L 612.710806 180480.478538 
L 613.916699 180480.478538 
L 615.122593 180480.478538 
L 616.328487 180480.478538 
L 617.534381 180480.478538 
L 618.740275 180480.478538 
L 619.946169 180480.478538 
L 621.152063 180480.478538 
L 622.357957 180480.478538 
L 623.563851 180480.478538 
L 624.769745 180480.478538 
L 625.975639 180480.478538 
L 627.181532 180480.478538 
L 628.387426 180480.478538 
L 629.59332 180480.478538 
L 630.799214 180480.478538 
L 632.005108 180480.478538 
L 633.211002 180480.478538 
L 634.416896 180480.478538 
L 635.62279 180480.478538 
L 636.828684 180480.478538 
L 638.034578 180480.478538 
L 639.240472 180480.478538 
L 640.446365 180480.478538 
L 641.652259 180480.478538 
L 642.858153 180480.478538 
L 644.064047 180480.478538 
L 645.269941 180480.478538 
L 646.475835 180480.478538 
L 647.681729 180480.478538 
L 648.887623 180480.478538 
L 650.093517 180480.478538 
L 651.299411 496.955287 
L 652.505305 496.955287 
L 653.711198 496.955287 
L 654.917092 496.955287 
L 656.122986 496.955287 
L 657.32888 496.955287 
L 658.534774 496.955287 
L 659.740668 496.955287 
L 660.946562 496.955287 
L 662.152456 496.955287 
L 663.35835 496.955287 
L 664.564244 496.955287 
L 665.770138 496.955287 
L 666.976031 496.955287 
L 668.181925 180480.478538 
L 669.387819 180480.478538 
L 670.593713 180480.478538 
L 671.799607 180480.478538 
L 673.005501 180480.478538 
L 674.211395 180480.478538 
L 675.417289 180480.478538 
L 676.623183 180480.478538 
L 677.829077 180480.478538 
L 679.034971 180480.478538 
L 680.240864 180480.478538 
L 681.446758 180480.478538 
L 682.652652 180480.478538 
L 683.858546 180480.478538 
L 685.06444 180480.478538 
L 686.270334 180480.478538 
L 687.476228 180480.478538 
L 688.682122 180480.478538 
L 689.888016 180480.478538 
L 691.09391 180480.478538 
L 692.299804 180480.478538 
L 693.505697 180480.478538 
L 694.711591 180480.478538 
L 695.917485 180480.478538 
L 697.123379 180480.478538 
L 698.329273 180480.478538 
L 699.535167 180480.478538 
L 700.741061 180480.478538 
L 701.946955 180480.478538 
L 703.152849 180480.478538 
L 704.358743 496.955287 
L 705.564637 496.955287 
L 706.77053 496.955287 
L 707.976424 496.955287 
L 709.182318 469.071167 
L 710.388212 427.587732 
L 711.594106 427.587732 
L 712.8 469.071167 
L 712.8 180480.478538 
L 712.8 180480.478538 
L 711.594106 180480.478538 
L 710.388212 180480.478538 
L 709.182318 180480.478538 
L 707.976424 180480.478538 
L 706.77053 180480.478538 
L 705.564637 180480.478538 
L 704.358743 180480.478538 
L 703.152849 180480.478538 
L 701.946955 180480.478538 
L 700.741061 180480.478538 
L 699.535167 180480.478538 
L 698.329273 180480.478538 
L 697.123379 180480.478538 
L 695.917485 180480.478538 
L 694.711591 180480.478538 
L 693.505697 180480.478538 
L 692.299804 180480.478538 
L 691.09391 180480.478538 
L 689.888016 180480.478538 
L 688.682122 180480.478538 
L 687.476228 180480.478538 
L 686.270334 180480.478538 
L 685.06444 180480.478538 
L 683.858546 180480.478538 
L 682.652652 180480.478538 
L 681.446758 180480.478538 
L 680.240864 180480.478538 
L 679.034971 180480.478538 
L 677.829077 180480.478538 
L 676.623183 180480.478538 
L 675.417289 180480.478538 
L 674.211395 180480.478538 
L 673.005501 180480.478538 
L 671.799607 180480.478538 
L 670.593713 180480.478538 
L 669.387819 180480.478538 
L 668.181925 180480.478538 
L 666.976031 180480.478538 
L 665.770138 180480.478538 
L 664.564244 180480.478538 
L 663.35835 180480.478538 
L 662.152456 180480.478538 
L 660.946562 180480.478538 
L 659.740668 180480.478538 
L 658.534774 180480.478538 
L 657.32888 180480.478538 
L 656.122986 180480.478538 
L 654.917092 180480.478538 
L 653.711198 180480.478538 
L 652.505305 180480.478538 
L 651.299411 180480.478538 
L 650.093517 180480.478538 
L 648.887623 180480.478538 
L 647.681729 180480.478538 
L 646.475835 180480.478538 
L 645.269941 180480.478538 
L 644.064047 180480.478538 
L 642.858153 180480.478538 
L 641.652259 180480.478538 
L 640.446365 180480.478538 
L 639.240472 180480.478538 
L 638.034578 180480.478538 
L 636.828684 180480.478538 
L 635.62279 180480.478538 
L 634.416896 180480.478538 
L 633.211002 180480.478538 
L 632.005108 180480.478538 
L 630.799214 180480.478538 
L 629.59332 180480.478538 
L 628.387426 180480.478538 
L 627.181532 180480.478538 
L 625.975639 180480.478538 
L 624.769745 180480.478538 
L 623.563851 180480.478538 
L 622.357957 180480.478538 
L 621.152063 180480.478538 
L 619.946169 180480.478538 
L 618.740275 180480.478538 
L 617.534381 180480.478538 
L 616.328487 180480.478538 
L 615.122593 180480.478538 
L 613.916699 180480.478538 
L 612.710806 180480.478538 
L 611.504912 180480.478538 
L 610.299018 180480.478538 
L 609.093124 180480.478538 
L 607.88723 180480.478538 
L 606.681336 180480.478538 
L 605.475442 180480.478538 
L 604.269548 180480.478538 
L 603.063654 180480.478538 
L 601.85776 180480.478538 
L 600.651866 180480.478538 
L 599.445972 180480.478538 
L 598.240079 180480.478538 
L 597.034185 180480.478538 
L 595.828291 180480.478538 
L 594.622397 180480.478538 
L 593.416503 180480.478538 
L 592.210609 180480.478538 
L 591.004715 180480.478538 
L 589.798821 180480.478538 
L 588.592927 180480.478538 
L 587.387033 180480.478538 
L 586.181139 180480.478538 
L 584.975246 180480.478538 
L 583.769352 180480.478538 
L 582.563458 180480.478538 
L 581.357564 180480.478538 
L 580.15167 180480.478538 
L 578.945776 180480.478538 
L 577.739882 180480.478538 
L 576.533988 180480.478538 
L 575.328094 180480.478538 
L 574.1222 180480.478538 
L 572.916306 180480.478538 
L 571.710413 180480.478538 
L 570.504519 180480.478538 
L 569.298625 180480.478538 
L 568.092731 180480.478538 
L 566.886837 180480.478538 
L 565.680943 180480.478538 
L 564.475049 180480.478538 
L 563.269155 180480.478538 
L 562.063261 180480.478538 
L 560.857367 180480.478538 
L 559.651473 180480.478538 
L 558.44558 180480.478538 
L 557.239686 180480.478538 
L 556.033792 180480.478538 
L 554.827898 180480.478538 
L 553.622004 180480.478538 
L 552.41611 180480.478538 
L 551.210216 180480.478538 
L 550.004322 180480.478538 
L 548.798428 180480.478538 
L 547.592534 180480.478538 
L 546.38664 180480.478538 
L 545.180747 180480.478538 
L 543.974853 180480.478538 
L 542.768959 180480.478538 
L 541.563065 180480.478538 
L 540.357171 180480.478538 
L 539.151277 180480.478538 
L 537.945383 180480.478538 
L 536.739489 180480.478538 
L 535.533595 180480.478538 
L 534.327701 180480.478538 
L 533.121807 180480.478538 
L 531.915914 180480.478538 
L 530.71002 180480.478538 
L 529.504126 180480.478538 
L 528.298232 180480.478538 
L 527.092338 180480.478538 
L 525.886444 180480.478538 
L 524.68055 180480.478538 
L 523.474656 180480.478538 
L 522.268762 180480.478538 
L 521.062868 180480.478538 
L 519.856974 180480.478538 
L 518.651081 180480.478538 
L 517.445187 180480.478538 
L 516.239293 180480.478538 
L 515.033399 180480.478538 
L 513.827505 180480.478538 
L 512.621611 180480.478538 
L 511.415717 180480.478538 
L 510.209823 180480.478538 
L 509.003929 180480.478538 
L 507.798035 180480.478538 
L 506.592141 180480.478538 
L 505.386248 180480.478538 
L 504.180354 180480.478538 
L 502.97446 180480.478538 
L 501.768566 180480.478538 
L 500.562672 180480.478538 
L 499.356778 180480.478538 
L 498.150884 180480.478538 
L 496.94499 180480.478538 
L 495.739096 180480.478538 
L 494.533202 180480.478538 
L 493.327308 180480.478538 
L 492.121415 180480.478538 
L 490.915521 180480.478538 
L 489.709627 180480.478538 
L 488.503733 180480.478538 
L 487.297839 180480.478538 
L 486.091945 180480.478538 
L 484.886051 180480.478538 
L 483.680157 180480.478538 
L 482.474263 180480.478538 
L 481.268369 180480.478538 
L 480.062475 180480.478538 
L 478.856582 180480.478538 
L 477.650688 180480.478538 
L 476.444794 180480.478538 
L 475.2389 180480.478538 
L 474.033006 180480.478538 
L 472.827112 180480.478538 
L 471.621218 180480.478538 
L 470.415324 180480.478538 
L 469.20943 180480.478538 
L 468.003536 180480.478538 
L 466.797642 180480.478538 
L 465.591749 180480.478538 
L 464.385855 180480.478538 
L 463.179961 180480.478538 
L 461.974067 180480.478538 
L 460.768173 180480.478538 
L 459.562279 180480.478538 
L 458.356385 180480.478538 
L 457.150491 180480.478538 
L 455.944597 180480.478538 
L 454.738703 180480.478538 
L 453.532809 180480.478538 
L 452.326916 180480.478538 
L 451.121022 180480.478538 
L 449.915128 180480.478538 
L 448.709234 180480.478538 
L 447.50334 180480.478538 
L 446.297446 180480.478538 
L 445.091552 180480.478538 
L 443.885658 180480.478538 
L 442.679764 180480.478538 
L 441.47387 180480.478538 
L 440.267976 180480.478538 
L 439.062083 180480.478538 
L 437.856189 180480.478538 
L 436.650295 180480.478538 
L 435.444401 180480.478538 
L 434.238507 180480.478538 
L 433.032613 180480.478538 
L 431.826719 180480.478538 
L 430.620825 180480.478538 
L 429.414931 180480.478538 
L 428.209037 180480.478538 
L 427.003143 180480.478538 
L 425.79725 180480.478538 
L 424.591356 180480.478538 
L 423.385462 180480.478538 
L 422.179568 180480.478538 
L 420.973674 180480.478538 
L 419.76778 180480.478538 
L 418.561886 180480.478538 
L 417.355992 180480.478538 
L 416.150098 180480.478538 
L 414.944204 180480.478538 
L 413.73831 180480.478538 
L 412.532417 180480.478538 
L 411.326523 180480.478538 
L 410.120629 180480.478538 
L 408.914735 180480.478538 
L 407.708841 180480.478538 
L 406.502947 180480.478538 
L 405.297053 180480.478538 
L 404.091159 180480.478538 
L 402.885265 180480.478538 
L 401.679371 180480.478538 
L 400.473477 180480.478538 
L 399.267583 180480.478538 
L 398.06169 180480.478538 
L 396.855796 180480.478538 
L 395.649902 180480.478538 
L 394.444008 180480.478538 
L 393.238114 180480.478538 
L 392.03222 180480.478538 
L 390.826326 180480.478538 
L 389.620432 180480.478538 
L 388.414538 180480.478538 
L 387.208644 180480.478538 
L 386.00275 180480.478538 
L 384.796857 180480.478538 
L 383.590963 180480.478538 
L 382.385069 180480.478538 
L 381.179175 180480.478538 
L 379.973281 180480.478538 
L 378.767387 180480.478538 
L 377.561493 180480.478538 
L 376.355599 180480.478538 
L 375.149705 180480.478538 
L 373.943811 180480.478538 
L 372.737917 180480.478538 
L 371.532024 180480.478538 
L 370.32613 180480.478538 
L 369.120236 180480.478538 
L 367.914342 180480.478538 
L 366.708448 180480.478538 
L 365.502554 180480.478538 
L 364.29666 180480.478538 
L 363.090766 180480.478538 
L 361.884872 180480.478538 
L 360.678978 180480.478538 
L 359.473084 180480.478538 
L 358.267191 180480.478538 
L 357.061297 180480.478538 
L 355.855403 180480.478538 
L 354.649509 180480.478538 
L 353.443615 180480.478538 
L 352.237721 180480.478538 
L 351.031827 180480.478538 
L 349.825933 180480.478538 
L 348.620039 180480.478538 
L 347.414145 180480.478538 
L 346.208251 180480.478538 
L 345.002358 180480.478538 
L 343.796464 180480.478538 
L 342.59057 180480.478538 
L 341.384676 180480.478538 
L 340.178782 180480.478538 
L 338.972888 180480.478538 
L 337.766994 180480.478538 
L 336.5611 180480.478538 
L 335.355206 180480.478538 
L 334.149312 180480.478538 
L 332.943418 180480.478538 
L 331.737525 180480.478538 
L 330.531631 180480.478538 
L 329.325737 180480.478538 
L 328.119843 180480.478538 
L 326.913949 180480.478538 
L 325.708055 180480.478538 
L 324.502161 180480.478538 
L 323.296267 180480.478538 
L 322.090373 180480.478538 
L 320.884479 180480.478538 
L 319.678585 180480.478538 
L 318.472692 180480.478538 
L 317.266798 180480.478538 
L 316.060904 180480.478538 
L 314.85501 180480.478538 
L 313.649116 180480.478538 
L 312.443222 180480.478538 
L 311.237328 180480.478538 
L 310.031434 180480.478538 
L 308.82554 180480.478538 
L 307.619646 180480.478538 
L 306.413752 180480.478538 
L 305.207859 180480.478538 
L 304.001965 180480.478538 
L 302.796071 180480.478538 
L 301.590177 180480.478538 
L 300.384283 180480.478538 
L 299.178389 180480.478538 
L 297.972495 180480.478538 
L 296.766601 180480.478538 
L 295.560707 180480.478538 
L 294.354813 180480.478538 
L 293.148919 180480.478538 
L 291.943026 180480.478538 
L 290.737132 180480.478538 
L 289.531238 180480.478538 
L 288.325344 180480.478538 
L 287.11945 180480.478538 
L 285.913556 180480.478538 
L 284.707662 180480.478538 
L 283.501768 180480.478538 
L 282.295874 180480.478538 
L 281.08998 180480.478538 
L 279.884086 180480.478538 
L 278.678193 180480.478538 
L 277.472299 180480.478538 
L 276.266405 180480.478538 
L 275.060511 180480.478538 
L 273.854617 180480.478538 
L 272.648723 180480.478538 
L 271.442829 180480.478538 
L 270.236935 180480.478538 
L 269.031041 180480.478538 
L 267.825147 180480.478538 
L 266.619253 180480.478538 
L 265.41336 180480.478538 
L 264.207466 180480.478538 
L 263.001572 180480.478538 
L 261.795678 180480.478538 
L 260.589784 180480.478538 
L 259.38389 180480.478538 
L 258.177996 180480.478538 
L 256.972102 180480.478538 
L 255.766208 180480.478538 
L 254.560314 180480.478538 
L 253.35442 180480.478538 
L 252.148527 180480.478538 
L 250.942633 180480.478538 
L 249.736739 180480.478538 
L 248.530845 180480.478538 
L 247.324951 180480.478538 
L 246.119057 180480.478538 
L 244.913163 180480.478538 
L 243.707269 180480.478538 
L 242.501375 180480.478538 
L 241.295481 180480.478538 
L 240.089587 180480.478538 
L 238.883694 180480.478538 
L 237.6778 180480.478538 
L 236.471906 180480.478538 
L 235.266012 180480.478538 
L 234.060118 180480.478538 
L 232.854224 180480.478538 
L 231.64833 180480.478538 
L 230.442436 180480.478538 
L 229.236542 180480.478538 
L 228.030648 180480.478538 
L 226.824754 180480.478538 
L 225.618861 180480.478538 
L 224.412967 180480.478538 
L 223.207073 180480.478538 
L 222.001179 180480.478538 
L 220.795285 180480.478538 
L 219.589391 180480.478538 
L 218.383497 180480.478538 
L 217.177603 180480.478538 
L 215.971709 180480.478538 
L 214.765815 180480.478538 
L 213.559921 180480.478538 
L 212.354028 180480.478538 
L 211.148134 180480.478538 
L 209.94224 180480.478538 
L 208.736346 180480.478538 
L 207.530452 180480.478538 
L 206.324558 180480.478538 
L 205.118664 180480.478538 
L 203.91277 180480.478538 
L 202.706876 180480.478538 
L 201.500982 180480.478538 
L 200.295088 180480.478538 
L 199.089194 180480.478538 
L 197.883301 180480.478538 
L 196.677407 180480.478538 
L 195.471513 180480.478538 
L 194.265619 180480.478538 
L 193.059725 180480.478538 
L 191.853831 180480.478538 
L 190.647937 180480.478538 
L 189.442043 180480.478538 
L 188.236149 180480.478538 
L 187.030255 180480.478538 
L 185.824361 180480.478538 
L 184.618468 180480.478538 
L 183.412574 180480.478538 
L 182.20668 180480.478538 
L 181.000786 180480.478538 
L 179.794892 180480.478538 
L 178.588998 180480.478538 
L 177.383104 180480.478538 
L 176.17721 180480.478538 
L 174.971316 180480.478538 
L 173.765422 180480.478538 
L 172.559528 180480.478538 
L 171.353635 180480.478538 
L 170.147741 180480.478538 
L 168.941847 180480.478538 
L 167.735953 180480.478538 
L 166.530059 180480.478538 
L 165.324165 180480.478538 
L 164.118271 180480.478538 
L 162.912377 180480.478538 
L 161.706483 180480.478538 
L 160.500589 180480.478538 
L 159.294695 180480.478538 
L 158.088802 180480.478538 
L 156.882908 180480.478538 
L 155.677014 180480.478538 
L 154.47112 180480.478538 
L 153.265226 180480.478538 
L 152.059332 180480.478538 
L 150.853438 180480.478538 
L 149.647544 180480.478538 
L 148.44165 180480.478538 
L 147.235756 180480.478538 
L 146.029862 180480.478538 
L 144.823969 180480.478538 
L 143.618075 180480.478538 
L 142.412181 180480.478538 
L 141.206287 180480.478538 
L 140.000393 180480.478538 
L 138.794499 180480.478538 
L 137.588605 180480.478538 
L 136.382711 180480.478538 
L 135.176817 180480.478538 
L 133.970923 180480.478538 
L 132.765029 180480.478538 
L 131.559136 180480.478538 
L 130.353242 180480.478538 
L 129.147348 180480.478538 
L 127.941454 180480.478538 
L 126.73556 180480.478538 
L 125.529666 180480.478538 
L 124.323772 180480.478538 
L 123.117878 180480.478538 
L 121.911984 180480.478538 
L 120.70609 180480.478538 
L 119.500196 180480.478538 
L 118.294303 180480.478538 
L 117.088409 180480.478538 
L 115.882515 180480.478538 
L 114.676621 180480.478538 
L 113.470727 180480.478538 
L 112.264833 180480.478538 
L 111.058939 180480.478538 
L 109.853045 180480.478538 
L 108.647151 180480.478538 
L 107.441257 180480.478538 
L 106.235363 180480.478538 
L 105.02947 180480.478538 
L 103.823576 180480.478538 
L 102.617682 180480.478538 
L 101.411788 180480.478538 
L 100.205894 180480.478538 
L 99 180480.478538 
z
" style="fill:#ff8080;fill-opacity:0.5;stroke:#ff8080;stroke-opacity:0.5;"/>
   </g>
   <g id="matplotlib.axis_1">
    <g id="xtick_1">
     <g id="line2d_1">
      <path clip-path="url(#p68e2955192)" d="M 99 544.68 
L 99 73.44 
" style="fill:none;stroke:#b0b0b0;stroke-linecap:square;stroke-width:0.8;"/>
     </g>
     <g id="line2d_2">
      <defs>
       <path d="M 0 0 
L 0 3.5 
" id="m4abed1d830" style="stroke:#000000;stroke-width:0.8;"/>
      </defs>
      <g>
       <use style="stroke:#000000;stroke-width:0.8;" x="99" xlink:href="#m4abed1d830" y="544.68"/>
      </g>
     </g>
    </g>
    <g id="xtick_2">
     <g id="line2d_3">
      <path clip-path="url(#p68e2955192)" d="M 120.70609 544.68 
L 120.70609 73.44 
" style="fill:none;stroke:#b0b0b0;stroke-linecap:square;stroke-width:0.8;"/>
     </g>
     <g id="line2d_4">
      <g>
       <use style="stroke:#000000;stroke-width:0.8;" x="120.70609" xlink:href="#m4abed1d830" y="544.68"/>
      </g>
     </g>
     <g id="text_1">
      <!-- Apr -->
      <g transform="translate(112.05609 559.278437)scale(0.1 -0.1)">
       <defs>
        <path d="M 2188 4044 
L 1331 1722 
L 3047 1722 
L 2188 4044 
z
M 1831 4666 
L 2547 4666 
L 4325 0 
L 3669 0 
L 3244 1197 
L 1141 1197 
L 716 0 
L 50 0 
L 1831 4666 
z
" id="DejaVuSans-41" transform="scale(0.015625)"/>
        <path d="M 1159 525 
L 1159 -1331 
L 581 -1331 
L 581 3500 
L 1159 3500 
L 1159 2969 
Q 1341 3281 1617 3432 
Q 1894 3584 2278 3584 
Q 2916 3584 3314 3078 
Q 3713 2572 3713 1747 
Q 3713 922 3314 415 
Q 2916 -91 2278 -91 
Q 1894 -91 1617 61 
Q 1341 213 1159 525 
z
M 3116 1747 
Q 3116 2381 2855 2742 
Q 2594 3103 2138 3103 
Q 1681 3103 1420 2742 
Q 1159 2381 1159 1747 
Q 1159 1113 1420 752 
Q 1681 391 2138 391 
Q 2594 391 2855 752 
Q 3116 1113 3116 1747 
z
" id="DejaVuSans-70" transform="scale(0.015625)"/>
        <path d="M 2631 2963 
Q 2534 3019 2420 3045 
Q 2306 3072 2169 3072 
Q 1681 3072 1420 2755 
Q 1159 2438 1159 1844 
L 1159 0 
L 581 0 
L 581 3500 
L 1159 3500 
L 1159 2956 
Q 1341 3275 1631 3429 
Q 1922 3584 2338 3584 
Q 2397 3584 2469 3576 
Q 2541 3569 2628 3553 
L 2631 2963 
z
" id="DejaVuSans-72" transform="scale(0.015625)"/>
       </defs>
       <use xlink:href="#DejaVuSans-41"/>
       <use x="68.408203" xlink:href="#DejaVuSans-70"/>
       <use x="131.884766" xlink:href="#DejaVuSans-72"/>
      </g>
     </g>
    </g>
    <g id="xtick_3">
     <g id="line2d_5">
      <path clip-path="url(#p68e2955192)" d="M 230.442436 544.68 
L 230.442436 73.44 
" style="fill:none;stroke:#b0b0b0;stroke-linecap:square;stroke-width:0.8;"/>
     </g>
     <g id="line2d_6">
      <g>
       <use style="stroke:#000000;stroke-width:0.8;" x="230.442436" xlink:href="#m4abed1d830" y="544.68"/>
      </g>
     </g>
     <g id="text_2">
      <!-- Jul -->
      <g transform="translate(224.409624 559.278437)scale(0.1 -0.1)">
       <defs>
        <path d="M 628 4666 
L 1259 4666 
L 1259 325 
Q 1259 -519 939 -900 
Q 619 -1281 -91 -1281 
L -331 -1281 
L -331 -750 
L -134 -750 
Q 284 -750 456 -515 
Q 628 -281 628 325 
L 628 4666 
z
" id="DejaVuSans-4a" transform="scale(0.015625)"/>
        <path d="M 544 1381 
L 544 3500 
L 1119 3500 
L 1119 1403 
Q 1119 906 1312 657 
Q 1506 409 1894 409 
Q 2359 409 2629 706 
Q 2900 1003 2900 1516 
L 2900 3500 
L 3475 3500 
L 3475 0 
L 2900 0 
L 2900 538 
Q 2691 219 2414 64 
Q 2138 -91 1772 -91 
Q 1169 -91 856 284 
Q 544 659 544 1381 
z
M 1991 3584 
L 1991 3584 
z
" id="DejaVuSans-75" transform="scale(0.015625)"/>
        <path d="M 603 4863 
L 1178 4863 
L 1178 0 
L 603 0 
L 603 4863 
z
" id="DejaVuSans-6c" transform="scale(0.015625)"/>
       </defs>
       <use xlink:href="#DejaVuSans-4a"/>
       <use x="29.492188" xlink:href="#DejaVuSans-75"/>
       <use x="92.871094" xlink:href="#DejaVuSans-6c"/>
      </g>
     </g>
    </g>
    <g id="xtick_4">
     <g id="line2d_7">
      <path clip-path="url(#p68e2955192)" d="M 341.384676 544.68 
L 341.384676 73.44 
" style="fill:none;stroke:#b0b0b0;stroke-linecap:square;stroke-width:0.8;"/>
     </g>
     <g id="line2d_8">
      <g>
       <use style="stroke:#000000;stroke-width:0.8;" x="341.384676" xlink:href="#m4abed1d830" y="544.68"/>
      </g>
     </g>
     <g id="text_3">
      <!-- Oct -->
      <g transform="translate(332.739363 559.278437)scale(0.1 -0.1)">
       <defs>
        <path d="M 2522 4238 
Q 1834 4238 1429 3725 
Q 1025 3213 1025 2328 
Q 1025 1447 1429 934 
Q 1834 422 2522 422 
Q 3209 422 3611 934 
Q 4013 1447 4013 2328 
Q 4013 3213 3611 3725 
Q 3209 4238 2522 4238 
z
M 2522 4750 
Q 3503 4750 4090 4092 
Q 4678 3434 4678 2328 
Q 4678 1225 4090 567 
Q 3503 -91 2522 -91 
Q 1538 -91 948 565 
Q 359 1222 359 2328 
Q 359 3434 948 4092 
Q 1538 4750 2522 4750 
z
" id="DejaVuSans-4f" transform="scale(0.015625)"/>
        <path d="M 3122 3366 
L 3122 2828 
Q 2878 2963 2633 3030 
Q 2388 3097 2138 3097 
Q 1578 3097 1268 2742 
Q 959 2388 959 1747 
Q 959 1106 1268 751 
Q 1578 397 2138 397 
Q 2388 397 2633 464 
Q 2878 531 3122 666 
L 3122 134 
Q 2881 22 2623 -34 
Q 2366 -91 2075 -91 
Q 1284 -91 818 406 
Q 353 903 353 1747 
Q 353 2603 823 3093 
Q 1294 3584 2113 3584 
Q 2378 3584 2631 3529 
Q 2884 3475 3122 3366 
z
" id="DejaVuSans-63" transform="scale(0.015625)"/>
        <path d="M 1172 4494 
L 1172 3500 
L 2356 3500 
L 2356 3053 
L 1172 3053 
L 1172 1153 
Q 1172 725 1289 603 
Q 1406 481 1766 481 
L 2356 481 
L 2356 0 
L 1766 0 
Q 1100 0 847 248 
Q 594 497 594 1153 
L 594 3053 
L 172 3053 
L 172 3500 
L 594 3500 
L 594 4494 
L 1172 4494 
z
" id="DejaVuSans-74" transform="scale(0.015625)"/>
       </defs>
       <use xlink:href="#DejaVuSans-4f"/>
       <use x="78.710938" xlink:href="#DejaVuSans-63"/>
       <use x="133.691406" xlink:href="#DejaVuSans-74"/>
      </g>
     </g>
    </g>
    <g id="xtick_5">
     <g id="line2d_9">
      <path clip-path="url(#p68e2955192)" d="M 452.326916 544.68 
L 452.326916 73.44 
" style="fill:none;stroke:#b0b0b0;stroke-linecap:square;stroke-width:0.8;"/>
     </g>
     <g id="line2d_10">
      <g>
       <use style="stroke:#000000;stroke-width:0.8;" x="452.326916" xlink:href="#m4abed1d830" y="544.68"/>
      </g>
     </g>
     <g id="text_4">
      <!-- Jan -->
      <g transform="translate(444.619103 559.278437)scale(0.1 -0.1)">
       <defs>
        <path d="M 2194 1759 
Q 1497 1759 1228 1600 
Q 959 1441 959 1056 
Q 959 750 1161 570 
Q 1363 391 1709 391 
Q 2188 391 2477 730 
Q 2766 1069 2766 1631 
L 2766 1759 
L 2194 1759 
z
M 3341 1997 
L 3341 0 
L 2766 0 
L 2766 531 
Q 2569 213 2275 61 
Q 1981 -91 1556 -91 
Q 1019 -91 701 211 
Q 384 513 384 1019 
Q 384 1609 779 1909 
Q 1175 2209 1959 2209 
L 2766 2209 
L 2766 2266 
Q 2766 2663 2505 2880 
Q 2244 3097 1772 3097 
Q 1472 3097 1187 3025 
Q 903 2953 641 2809 
L 641 3341 
Q 956 3463 1253 3523 
Q 1550 3584 1831 3584 
Q 2591 3584 2966 3190 
Q 3341 2797 3341 1997 
z
" id="DejaVuSans-61" transform="scale(0.015625)"/>
        <path d="M 3513 2113 
L 3513 0 
L 2938 0 
L 2938 2094 
Q 2938 2591 2744 2837 
Q 2550 3084 2163 3084 
Q 1697 3084 1428 2787 
Q 1159 2491 1159 1978 
L 1159 0 
L 581 0 
L 581 3500 
L 1159 3500 
L 1159 2956 
Q 1366 3272 1645 3428 
Q 1925 3584 2291 3584 
Q 2894 3584 3203 3211 
Q 3513 2838 3513 2113 
z
" id="DejaVuSans-6e" transform="scale(0.015625)"/>
       </defs>
       <use xlink:href="#DejaVuSans-4a"/>
       <use x="29.492188" xlink:href="#DejaVuSans-61"/>
       <use x="90.771484" xlink:href="#DejaVuSans-6e"/>
      </g>
      <!-- 2021 -->
      <g transform="translate(439.601916 570.47625)scale(0.1 -0.1)">
       <defs>
        <path d="M 1228 531 
L 3431 531 
L 3431 0 
L 469 0 
L 469 531 
Q 828 903 1448 1529 
Q 2069 2156 2228 2338 
Q 2531 2678 2651 2914 
Q 2772 3150 2772 3378 
Q 2772 3750 2511 3984 
Q 2250 4219 1831 4219 
Q 1534 4219 1204 4116 
Q 875 4013 500 3803 
L 500 4441 
Q 881 4594 1212 4672 
Q 1544 4750 1819 4750 
Q 2544 4750 2975 4387 
Q 3406 4025 3406 3419 
Q 3406 3131 3298 2873 
Q 3191 2616 2906 2266 
Q 2828 2175 2409 1742 
Q 1991 1309 1228 531 
z
" id="DejaVuSans-32" transform="scale(0.015625)"/>
        <path d="M 2034 4250 
Q 1547 4250 1301 3770 
Q 1056 3291 1056 2328 
Q 1056 1369 1301 889 
Q 1547 409 2034 409 
Q 2525 409 2770 889 
Q 3016 1369 3016 2328 
Q 3016 3291 2770 3770 
Q 2525 4250 2034 4250 
z
M 2034 4750 
Q 2819 4750 3233 4129 
Q 3647 3509 3647 2328 
Q 3647 1150 3233 529 
Q 2819 -91 2034 -91 
Q 1250 -91 836 529 
Q 422 1150 422 2328 
Q 422 3509 836 4129 
Q 1250 4750 2034 4750 
z
" id="DejaVuSans-30" transform="scale(0.015625)"/>
        <path d="M 794 531 
L 1825 531 
L 1825 4091 
L 703 3866 
L 703 4441 
L 1819 4666 
L 2450 4666 
L 2450 531 
L 3481 531 
L 3481 0 
L 794 0 
L 794 531 
z
" id="DejaVuSans-31" transform="scale(0.015625)"/>
       </defs>
       <use xlink:href="#DejaVuSans-32"/>
       <use x="63.623047" xlink:href="#DejaVuSans-30"/>
       <use x="127.246094" xlink:href="#DejaVuSans-32"/>
       <use x="190.869141" xlink:href="#DejaVuSans-31"/>
      </g>
     </g>
    </g>
    <g id="xtick_6">
     <g id="line2d_11">
      <path clip-path="url(#p68e2955192)" d="M 560.857367 544.68 
L 560.857367 73.44 
" style="fill:none;stroke:#b0b0b0;stroke-linecap:square;stroke-width:0.8;"/>
     </g>
     <g id="line2d_12">
      <g>
       <use style="stroke:#000000;stroke-width:0.8;" x="560.857367" xlink:href="#m4abed1d830" y="544.68"/>
      </g>
     </g>
     <g id="text_5">
      <!-- Apr -->
      <g transform="translate(552.207367 559.278437)scale(0.1 -0.1)">
       <use xlink:href="#DejaVuSans-41"/>
       <use x="68.408203" xlink:href="#DejaVuSans-70"/>
       <use x="131.884766" xlink:href="#DejaVuSans-72"/>
      </g>
     </g>
    </g>
    <g id="xtick_7">
     <g id="line2d_13">
      <path clip-path="url(#p68e2955192)" d="M 670.593713 544.68 
L 670.593713 73.44 
" style="fill:none;stroke:#b0b0b0;stroke-linecap:square;stroke-width:0.8;"/>
     </g>
     <g id="line2d_14">
      <g>
       <use style="stroke:#000000;stroke-width:0.8;" x="670.593713" xlink:href="#m4abed1d830" y="544.68"/>
      </g>
     </g>
     <g id="text_6">
      <!-- Jul -->
      <g transform="translate(664.560901 559.278437)scale(0.1 -0.1)">
       <use xlink:href="#DejaVuSans-4a"/>
       <use x="29.492188" xlink:href="#DejaVuSans-75"/>
       <use x="92.871094" xlink:href="#DejaVuSans-6c"/>
      </g>
     </g>
    </g>
    <g id="xtick_8">
     <g id="line2d_15">
      <path clip-path="url(#p68e2955192)" d="M 712.8 544.68 
L 712.8 73.44 
" style="fill:none;stroke:#b0b0b0;stroke-linecap:square;stroke-width:0.8;"/>
     </g>
     <g id="line2d_16">
      <g>
       <use style="stroke:#000000;stroke-width:0.8;" x="712.8" xlink:href="#m4abed1d830" y="544.68"/>
      </g>
     </g>
    </g>
    <g id="xtick_9">
     <g id="line2d_17">
      <defs>
       <path d="M 0 0 
L 0 2 
" id="mbe9820739d" style="stroke:#000000;stroke-width:0.6;"/>
      </defs>
      <g>
       <use style="stroke:#000000;stroke-width:0.6;" x="156.882908" xlink:href="#mbe9820739d" y="544.68"/>
      </g>
     </g>
    </g>
    <g id="xtick_10">
     <g id="line2d_18">
      <g>
       <use style="stroke:#000000;stroke-width:0.6;" x="194.265619" xlink:href="#mbe9820739d" y="544.68"/>
      </g>
     </g>
    </g>
    <g id="xtick_11">
     <g id="line2d_19">
      <g>
       <use style="stroke:#000000;stroke-width:0.6;" x="267.825147" xlink:href="#mbe9820739d" y="544.68"/>
      </g>
     </g>
    </g>
    <g id="xtick_12">
     <g id="line2d_20">
      <g>
       <use style="stroke:#000000;stroke-width:0.6;" x="305.207859" xlink:href="#mbe9820739d" y="544.68"/>
      </g>
     </g>
    </g>
    <g id="xtick_13">
     <g id="line2d_21">
      <g>
       <use style="stroke:#000000;stroke-width:0.6;" x="378.767387" xlink:href="#mbe9820739d" y="544.68"/>
      </g>
     </g>
    </g>
    <g id="xtick_14">
     <g id="line2d_22">
      <g>
       <use style="stroke:#000000;stroke-width:0.6;" x="414.944204" xlink:href="#mbe9820739d" y="544.68"/>
      </g>
     </g>
    </g>
    <g id="xtick_15">
     <g id="line2d_23">
      <g>
       <use style="stroke:#000000;stroke-width:0.6;" x="489.709627" xlink:href="#mbe9820739d" y="544.68"/>
      </g>
     </g>
    </g>
    <g id="xtick_16">
     <g id="line2d_24">
      <g>
       <use style="stroke:#000000;stroke-width:0.6;" x="523.474656" xlink:href="#mbe9820739d" y="544.68"/>
      </g>
     </g>
    </g>
    <g id="xtick_17">
     <g id="line2d_25">
      <g>
       <use style="stroke:#000000;stroke-width:0.6;" x="597.034185" xlink:href="#mbe9820739d" y="544.68"/>
      </g>
     </g>
    </g>
    <g id="xtick_18">
     <g id="line2d_26">
      <g>
       <use style="stroke:#000000;stroke-width:0.6;" x="634.416896" xlink:href="#mbe9820739d" y="544.68"/>
      </g>
     </g>
    </g>
    <g id="xtick_19">
     <g id="line2d_27">
      <g>
       <use style="stroke:#000000;stroke-width:0.6;" x="707.976424" xlink:href="#mbe9820739d" y="544.68"/>
      </g>
     </g>
    </g>
    <g id="text_7">
     <!-- Date -->
     <g transform="translate(393.949219 584.154375)scale(0.1 -0.1)">
      <defs>
       <path d="M 1259 4147 
L 1259 519 
L 2022 519 
Q 2988 519 3436 956 
Q 3884 1394 3884 2338 
Q 3884 3275 3436 3711 
Q 2988 4147 2022 4147 
L 1259 4147 
z
M 628 4666 
L 1925 4666 
Q 3281 4666 3915 4102 
Q 4550 3538 4550 2338 
Q 4550 1131 3912 565 
Q 3275 0 1925 0 
L 628 0 
L 628 4666 
z
" id="DejaVuSans-44" transform="scale(0.015625)"/>
       <path d="M 3597 1894 
L 3597 1613 
L 953 1613 
Q 991 1019 1311 708 
Q 1631 397 2203 397 
Q 2534 397 2845 478 
Q 3156 559 3463 722 
L 3463 178 
Q 3153 47 2828 -22 
Q 2503 -91 2169 -91 
Q 1331 -91 842 396 
Q 353 884 353 1716 
Q 353 2575 817 3079 
Q 1281 3584 2069 3584 
Q 2775 3584 3186 3129 
Q 3597 2675 3597 1894 
z
M 3022 2063 
Q 3016 2534 2758 2815 
Q 2500 3097 2075 3097 
Q 1594 3097 1305 2825 
Q 1016 2553 972 2059 
L 3022 2063 
z
" id="DejaVuSans-65" transform="scale(0.015625)"/>
      </defs>
      <use xlink:href="#DejaVuSans-44"/>
      <use x="77.001953" xlink:href="#DejaVuSans-61"/>
      <use x="138.28125" xlink:href="#DejaVuSans-74"/>
      <use x="177.490234" xlink:href="#DejaVuSans-65"/>
     </g>
    </g>
   </g>
   <g id="matplotlib.axis_2">
    <g id="ytick_1">
     <g id="line2d_28">
      <path clip-path="url(#p68e2955192)" d="M 99 469.071167 
L 712.8 469.071167 
" style="fill:none;stroke:#b0b0b0;stroke-linecap:square;stroke-width:0.8;"/>
     </g>
     <g id="line2d_29">
      <defs>
       <path d="M 0 0 
L -3.5 0 
" id="me91a084207" style="stroke:#000000;stroke-width:0.8;"/>
      </defs>
      <g>
       <use style="stroke:#000000;stroke-width:0.8;" x="99" xlink:href="#me91a084207" y="469.071167"/>
      </g>
     </g>
     <g id="text_8">
      <!-- $\mathdefault{10^{0}}$ -->
      <g transform="translate(74.4 472.870386)scale(0.1 -0.1)">
       <use transform="translate(0 0.765625)" xlink:href="#DejaVuSans-31"/>
       <use transform="translate(63.623047 0.765625)" xlink:href="#DejaVuSans-30"/>
       <use transform="translate(128.203125 39.046875)scale(0.7)" xlink:href="#DejaVuSans-30"/>
      </g>
     </g>
    </g>
    <g id="ytick_2">
     <g id="line2d_30">
      <path clip-path="url(#p68e2955192)" d="M 99 289.059759 
L 712.8 289.059759 
" style="fill:none;stroke:#b0b0b0;stroke-linecap:square;stroke-width:0.8;"/>
     </g>
     <g id="line2d_31">
      <g>
       <use style="stroke:#000000;stroke-width:0.8;" x="99" xlink:href="#me91a084207" y="289.059759"/>
      </g>
     </g>
     <g id="text_9">
      <!-- $\mathdefault{10^{1}}$ -->
      <g transform="translate(74.4 292.858978)scale(0.1 -0.1)">
       <use transform="translate(0 0.684375)" xlink:href="#DejaVuSans-31"/>
       <use transform="translate(63.623047 0.684375)" xlink:href="#DejaVuSans-30"/>
       <use transform="translate(128.203125 38.965625)scale(0.7)" xlink:href="#DejaVuSans-31"/>
      </g>
     </g>
    </g>
    <g id="ytick_3">
     <g id="line2d_32">
      <path clip-path="url(#p68e2955192)" d="M 99 109.048352 
L 712.8 109.048352 
" style="fill:none;stroke:#b0b0b0;stroke-linecap:square;stroke-width:0.8;"/>
     </g>
     <g id="line2d_33">
      <g>
       <use style="stroke:#000000;stroke-width:0.8;" x="99" xlink:href="#me91a084207" y="109.048352"/>
      </g>
     </g>
     <g id="text_10">
      <!-- $\mathdefault{10^{2}}$ -->
      <g transform="translate(74.4 112.847571)scale(0.1 -0.1)">
       <use transform="translate(0 0.765625)" xlink:href="#DejaVuSans-31"/>
       <use transform="translate(63.623047 0.765625)" xlink:href="#DejaVuSans-30"/>
       <use transform="translate(128.203125 39.046875)scale(0.7)" xlink:href="#DejaVuSans-32"/>
      </g>
     </g>
    </g>
    <g id="ytick_4">
     <g id="line2d_34">
      <path clip-path="url(#p68e2955192)" d="M 99 540.704908 
L 712.8 540.704908 
" style="fill:none;stroke:#b0b0b0;stroke-linecap:square;stroke-width:0.8;"/>
     </g>
     <g id="line2d_35">
      <defs>
       <path d="M 0 0 
L -2 0 
" id="m0cb60b688e" style="stroke:#000000;stroke-width:0.6;"/>
      </defs>
      <g>
       <use style="stroke:#000000;stroke-width:0.6;" x="99" xlink:href="#m0cb60b688e" y="540.704908"/>
      </g>
     </g>
    </g>
    <g id="ytick_5">
     <g id="line2d_36">
      <path clip-path="url(#p68e2955192)" d="M 99 523.26 
L 712.8 523.26 
" style="fill:none;stroke:#b0b0b0;stroke-linecap:square;stroke-width:0.8;"/>
     </g>
     <g id="line2d_37">
      <g>
       <use style="stroke:#000000;stroke-width:0.6;" x="99" xlink:href="#m0cb60b688e" y="523.26"/>
      </g>
     </g>
    </g>
    <g id="ytick_6">
     <g id="line2d_38">
      <path clip-path="url(#p68e2955192)" d="M 99 509.006472 
L 712.8 509.006472 
" style="fill:none;stroke:#b0b0b0;stroke-linecap:square;stroke-width:0.8;"/>
     </g>
     <g id="line2d_39">
      <g>
       <use style="stroke:#000000;stroke-width:0.6;" x="99" xlink:href="#m0cb60b688e" y="509.006472"/>
      </g>
     </g>
    </g>
    <g id="ytick_7">
     <g id="line2d_40">
      <path clip-path="url(#p68e2955192)" d="M 99 496.955287 
L 712.8 496.955287 
" style="fill:none;stroke:#b0b0b0;stroke-linecap:square;stroke-width:0.8;"/>
     </g>
     <g id="line2d_41">
      <g>
       <use style="stroke:#000000;stroke-width:0.6;" x="99" xlink:href="#m0cb60b688e" y="496.955287"/>
      </g>
     </g>
    </g>
    <g id="ytick_8">
     <g id="line2d_42">
      <path clip-path="url(#p68e2955192)" d="M 99 486.516075 
L 712.8 486.516075 
" style="fill:none;stroke:#b0b0b0;stroke-linecap:square;stroke-width:0.8;"/>
     </g>
     <g id="line2d_43">
      <g>
       <use style="stroke:#000000;stroke-width:0.6;" x="99" xlink:href="#m0cb60b688e" y="486.516075"/>
      </g>
     </g>
    </g>
    <g id="ytick_9">
     <g id="line2d_44">
      <path clip-path="url(#p68e2955192)" d="M 99 477.308037 
L 712.8 477.308037 
" style="fill:none;stroke:#b0b0b0;stroke-linecap:square;stroke-width:0.8;"/>
     </g>
     <g id="line2d_45">
      <g>
       <use style="stroke:#000000;stroke-width:0.6;" x="99" xlink:href="#m0cb60b688e" y="477.308037"/>
      </g>
     </g>
    </g>
    <g id="ytick_10">
     <g id="line2d_46">
      <path clip-path="url(#p68e2955192)" d="M 99 414.882334 
L 712.8 414.882334 
" style="fill:none;stroke:#b0b0b0;stroke-linecap:square;stroke-width:0.8;"/>
     </g>
     <g id="line2d_47">
      <g>
       <use style="stroke:#000000;stroke-width:0.6;" x="99" xlink:href="#m0cb60b688e" y="414.882334"/>
      </g>
     </g>
    </g>
    <g id="ytick_11">
     <g id="line2d_48">
      <path clip-path="url(#p68e2955192)" d="M 99 383.183898 
L 712.8 383.183898 
" style="fill:none;stroke:#b0b0b0;stroke-linecap:square;stroke-width:0.8;"/>
     </g>
     <g id="line2d_49">
      <g>
       <use style="stroke:#000000;stroke-width:0.6;" x="99" xlink:href="#m0cb60b688e" y="383.183898"/>
      </g>
     </g>
    </g>
    <g id="ytick_12">
     <g id="line2d_50">
      <path clip-path="url(#p68e2955192)" d="M 99 360.6935 
L 712.8 360.6935 
" style="fill:none;stroke:#b0b0b0;stroke-linecap:square;stroke-width:0.8;"/>
     </g>
     <g id="line2d_51">
      <g>
       <use style="stroke:#000000;stroke-width:0.6;" x="99" xlink:href="#m0cb60b688e" y="360.6935"/>
      </g>
     </g>
    </g>
    <g id="ytick_13">
     <g id="line2d_52">
      <path clip-path="url(#p68e2955192)" d="M 99 343.248593 
L 712.8 343.248593 
" style="fill:none;stroke:#b0b0b0;stroke-linecap:square;stroke-width:0.8;"/>
     </g>
     <g id="line2d_53">
      <g>
       <use style="stroke:#000000;stroke-width:0.6;" x="99" xlink:href="#m0cb60b688e" y="343.248593"/>
      </g>
     </g>
    </g>
    <g id="ytick_14">
     <g id="line2d_54">
      <path clip-path="url(#p68e2955192)" d="M 99 328.995065 
L 712.8 328.995065 
" style="fill:none;stroke:#b0b0b0;stroke-linecap:square;stroke-width:0.8;"/>
     </g>
     <g id="line2d_55">
      <g>
       <use style="stroke:#000000;stroke-width:0.6;" x="99" xlink:href="#m0cb60b688e" y="328.995065"/>
      </g>
     </g>
    </g>
    <g id="ytick_15">
     <g id="line2d_56">
      <path clip-path="url(#p68e2955192)" d="M 99 316.943879 
L 712.8 316.943879 
" style="fill:none;stroke:#b0b0b0;stroke-linecap:square;stroke-width:0.8;"/>
     </g>
     <g id="line2d_57">
      <g>
       <use style="stroke:#000000;stroke-width:0.6;" x="99" xlink:href="#m0cb60b688e" y="316.943879"/>
      </g>
     </g>
    </g>
    <g id="ytick_16">
     <g id="line2d_58">
      <path clip-path="url(#p68e2955192)" d="M 99 306.504667 
L 712.8 306.504667 
" style="fill:none;stroke:#b0b0b0;stroke-linecap:square;stroke-width:0.8;"/>
     </g>
     <g id="line2d_59">
      <g>
       <use style="stroke:#000000;stroke-width:0.6;" x="99" xlink:href="#m0cb60b688e" y="306.504667"/>
      </g>
     </g>
    </g>
    <g id="ytick_17">
     <g id="line2d_60">
      <path clip-path="url(#p68e2955192)" d="M 99 297.29663 
L 712.8 297.29663 
" style="fill:none;stroke:#b0b0b0;stroke-linecap:square;stroke-width:0.8;"/>
     </g>
     <g id="line2d_61">
      <g>
       <use style="stroke:#000000;stroke-width:0.6;" x="99" xlink:href="#m0cb60b688e" y="297.29663"/>
      </g>
     </g>
    </g>
    <g id="ytick_18">
     <g id="line2d_62">
      <path clip-path="url(#p68e2955192)" d="M 99 234.870926 
L 712.8 234.870926 
" style="fill:none;stroke:#b0b0b0;stroke-linecap:square;stroke-width:0.8;"/>
     </g>
     <g id="line2d_63">
      <g>
       <use style="stroke:#000000;stroke-width:0.6;" x="99" xlink:href="#m0cb60b688e" y="234.870926"/>
      </g>
     </g>
    </g>
    <g id="ytick_19">
     <g id="line2d_64">
      <path clip-path="url(#p68e2955192)" d="M 99 203.172491 
L 712.8 203.172491 
" style="fill:none;stroke:#b0b0b0;stroke-linecap:square;stroke-width:0.8;"/>
     </g>
     <g id="line2d_65">
      <g>
       <use style="stroke:#000000;stroke-width:0.6;" x="99" xlink:href="#m0cb60b688e" y="203.172491"/>
      </g>
     </g>
    </g>
    <g id="ytick_20">
     <g id="line2d_66">
      <path clip-path="url(#p68e2955192)" d="M 99 180.682093 
L 712.8 180.682093 
" style="fill:none;stroke:#b0b0b0;stroke-linecap:square;stroke-width:0.8;"/>
     </g>
     <g id="line2d_67">
      <g>
       <use style="stroke:#000000;stroke-width:0.6;" x="99" xlink:href="#m0cb60b688e" y="180.682093"/>
      </g>
     </g>
    </g>
    <g id="ytick_21">
     <g id="line2d_68">
      <path clip-path="url(#p68e2955192)" d="M 99 163.237185 
L 712.8 163.237185 
" style="fill:none;stroke:#b0b0b0;stroke-linecap:square;stroke-width:0.8;"/>
     </g>
     <g id="line2d_69">
      <g>
       <use style="stroke:#000000;stroke-width:0.6;" x="99" xlink:href="#m0cb60b688e" y="163.237185"/>
      </g>
     </g>
    </g>
    <g id="ytick_22">
     <g id="line2d_70">
      <path clip-path="url(#p68e2955192)" d="M 99 148.983658 
L 712.8 148.983658 
" style="fill:none;stroke:#b0b0b0;stroke-linecap:square;stroke-width:0.8;"/>
     </g>
     <g id="line2d_71">
      <g>
       <use style="stroke:#000000;stroke-width:0.6;" x="99" xlink:href="#m0cb60b688e" y="148.983658"/>
      </g>
     </g>
    </g>
    <g id="ytick_23">
     <g id="line2d_72">
      <path clip-path="url(#p68e2955192)" d="M 99 136.932472 
L 712.8 136.932472 
" style="fill:none;stroke:#b0b0b0;stroke-linecap:square;stroke-width:0.8;"/>
     </g>
     <g id="line2d_73">
      <g>
       <use style="stroke:#000000;stroke-width:0.6;" x="99" xlink:href="#m0cb60b688e" y="136.932472"/>
      </g>
     </g>
    </g>
    <g id="ytick_24">
     <g id="line2d_74">
      <path clip-path="url(#p68e2955192)" d="M 99 126.49326 
L 712.8 126.49326 
" style="fill:none;stroke:#b0b0b0;stroke-linecap:square;stroke-width:0.8;"/>
     </g>
     <g id="line2d_75">
      <g>
       <use style="stroke:#000000;stroke-width:0.6;" x="99" xlink:href="#m0cb60b688e" y="126.49326"/>
      </g>
     </g>
    </g>
    <g id="ytick_25">
     <g id="line2d_76">
      <path clip-path="url(#p68e2955192)" d="M 99 117.285222 
L 712.8 117.285222 
" style="fill:none;stroke:#b0b0b0;stroke-linecap:square;stroke-width:0.8;"/>
     </g>
     <g id="line2d_77">
      <g>
       <use style="stroke:#000000;stroke-width:0.6;" x="99" xlink:href="#m0cb60b688e" y="117.285222"/>
      </g>
     </g>
    </g>
   </g>
   <g id="line2d_78">
    <path clip-path="url(#p68e2955192)" d="M 124.323171 613 
L 124.323772 523.26 
L 124.324373 613 
M 126.734959 613 
L 126.73556 523.26 
L 127.941454 469.071167 
L 129.147348 469.071167 
L 130.353242 437.372731 
L 131.559136 469.071167 
L 137.588605 469.071167 
L 138.794499 523.26 
L 140.000393 523.26 
L 140.000994 613 
M 154.470518 613 
L 154.47112 523.26 
L 155.677014 523.26 
L 155.677615 613 
M 229.235941 613 
L 229.236542 523.26 
L 230.442436 469.071167 
L 231.64833 437.372731 
L 232.854224 414.882334 
L 234.060118 437.372731 
L 235.266012 437.372731 
L 236.471906 414.882334 
L 237.6778 414.882334 
L 238.883694 397.437426 
L 241.295481 343.248593 
L 242.501375 328.995065 
L 243.707269 328.995065 
L 244.913163 311.550157 
L 246.119057 289.059759 
L 247.324951 289.059759 
L 248.530845 274.806232 
L 249.736739 271.614852 
L 250.942633 262.755046 
L 256.972102 262.755046 
L 258.177996 271.614852 
L 259.38389 281.608604 
L 260.589784 285.245444 
L 261.795678 285.245444 
L 263.001572 293.069765 
L 264.207466 289.059759 
L 265.41336 293.069765 
L 270.236935 293.069765 
L 271.442829 289.059759 
L 272.648723 289.059759 
L 273.854617 274.806232 
L 276.266405 274.806232 
L 277.472299 260.011678 
L 278.678193 249.910169 
L 279.884086 240.965801 
L 281.08998 240.965801 
L 282.295874 234.870926 
L 289.531238 234.870926 
L 290.737132 220.617399 
L 291.943026 204.486437 
L 294.354813 204.486437 
L 295.560707 211.409361 
L 299.178389 211.409361 
L 300.384283 229.217044 
L 301.590177 208.566213 
L 304.001965 208.566213 
L 305.207859 238.880931 
L 306.413752 293.069765 
L 307.619646 335.797437 
L 308.82554 343.248593 
L 310.031434 335.797437 
L 312.443222 335.797437 
L 313.649116 343.248593 
L 314.85501 335.797437 
L 316.060904 343.248593 
L 318.472692 343.248593 
L 319.678585 351.485463 
L 320.884479 360.6935 
L 322.090373 343.248593 
L 324.502161 343.248593 
L 325.708055 328.995065 
L 326.913949 343.248593 
L 328.119843 343.248593 
L 329.325737 397.437426 
L 330.531631 343.248593 
L 331.737525 343.248593 
L 332.943418 371.132712 
L 334.149312 328.995065 
L 337.766994 328.995065 
L 338.972888 371.132712 
L 341.384676 371.132712 
L 342.59057 523.26 
L 343.796464 469.071167 
L 345.002358 523.26 
L 346.208251 523.26 
L 346.208853 613 
M 349.825332 613 
L 349.825933 523.26 
L 349.826535 613 
M 364.296059 613 
L 364.29666 523.26 
L 364.297261 613 
M 367.91374 613 
L 367.914342 523.26 
L 367.914943 613 
M 371.531422 613 
L 371.532024 523.26 
L 372.737917 523.26 
L 373.943811 437.372731 
L 375.149705 469.071167 
L 376.355599 414.882334 
L 381.179175 414.882334 
L 382.385069 397.437426 
L 383.590963 414.882334 
L 389.620432 414.882334 
L 390.826326 469.071167 
L 399.267583 469.071167 
L 400.473477 360.6935 
L 401.679371 316.943879 
L 402.885265 316.943879 
L 404.091159 306.504667 
L 405.297053 306.504667 
L 406.502947 301.765158 
L 408.914735 301.765158 
L 410.120629 316.943879 
L 411.326523 311.550157 
L 413.73831 311.550157 
L 414.944204 328.995065 
L 416.150098 328.995065 
L 417.355992 343.248593 
L 418.561886 343.248593 
L 419.76778 371.132712 
L 420.973674 437.372731 
L 422.179568 414.882334 
L 423.385462 414.882334 
L 425.79725 274.806232 
L 427.003143 240.965801 
L 428.209037 274.806232 
L 429.414931 274.806232 
L 430.620825 247.576325 
L 431.826719 236.850221 
L 433.032613 247.576325 
L 434.238507 236.850221 
L 437.856189 236.850221 
L 439.062083 247.576325 
L 440.267976 260.011678 
L 442.679764 260.011678 
L 443.885658 271.614852 
L 446.297446 271.614852 
L 448.709234 285.245444 
L 449.915128 278.133456 
L 451.121022 278.133456 
L 452.326916 285.245444 
L 453.532809 301.765158 
L 454.738703 335.797437 
L 455.944597 335.797437 
L 457.150491 397.437426 
L 457.151935 613 
M 481.266619 613 
L 481.268369 351.485463 
L 483.680157 351.485463 
L 484.886051 289.059759 
L 486.091945 271.614852 
L 487.297839 271.614852 
L 488.503733 289.059759 
L 489.709627 271.614852 
L 490.915521 289.059759 
L 492.121415 316.943879 
L 493.327308 293.069765 
L 494.533202 297.29663 
L 495.739096 316.943879 
L 496.94499 297.29663 
L 498.150884 316.943879 
L 506.592141 316.943879 
L 509.003929 328.995065 
L 510.209823 328.995065 
L 511.415717 306.504667 
L 512.621611 306.504667 
L 513.827505 437.372731 
L 515.033399 371.132712 
L 516.239293 371.132712 
L 517.445187 316.943879 
L 518.651081 316.943879 
L 519.856974 371.132712 
L 521.062868 316.943879 
L 522.268762 316.943879 
L 523.474656 371.132712 
L 524.68055 371.132712 
L 525.886444 316.943879 
L 527.092338 322.737489 
L 530.71002 322.737489 
L 531.915914 293.069765 
L 533.121807 351.485463 
L 534.327701 351.485463 
L 535.533595 383.183898 
L 536.739489 328.995065 
L 537.945383 383.183898 
L 541.563065 383.183898 
L 541.564604 613 
M 611.503468 613 
L 611.504912 397.437426 
L 613.916699 397.437426 
L 613.918143 613 
M 619.944725 613 
L 619.946169 397.437426 
L 621.152063 397.437426 
L 621.153506 613 
M 650.091616 613 
L 650.093517 328.995065 
L 652.505305 328.995065 
L 653.711198 274.806232 
L 658.534774 274.806232 
L 659.740668 297.29663 
L 660.946562 335.797437 
L 665.770138 335.797437 
L 666.976031 351.485463 
L 668.181925 351.485463 
L 669.387819 414.882334 
L 670.593713 414.882334 
L 670.59504 613 
M 686.268528 613 
L 686.270334 343.248593 
L 691.09391 343.248593 
L 692.299804 271.614852 
L 693.505697 271.614852 
L 694.711591 343.248593 
L 695.917485 271.614852 
L 697.123379 343.248593 
L 700.741061 343.248593 
L 700.742867 613 
M 711.592023 613 
L 711.594106 301.765158 
L 712.8 301.765158 
L 712.8 301.765158 
" style="fill:none;stroke:#1f77b4;stroke-linecap:square;stroke-width:1.5;"/>
   </g>
   <g id="line2d_79">
    <path clip-path="url(#p68e2955192)" d="M 0 0 
" style="fill:none;stroke:#ff7f0e;stroke-linecap:square;stroke-width:1.5;"/>
   </g>
   <g id="patch_3">
    <path d="M 99 544.68 
L 99 73.44 
" style="fill:none;stroke:#000000;stroke-linecap:square;stroke-linejoin:miter;stroke-width:0.8;"/>
   </g>
   <g id="patch_4">
    <path d="M 712.8 544.68 
L 712.8 73.44 
" style="fill:none;stroke:#000000;stroke-linecap:square;stroke-linejoin:miter;stroke-width:0.8;"/>
   </g>
   <g id="patch_5">
    <path d="M 99 544.68 
L 712.8 544.68 
" style="fill:none;stroke:#000000;stroke-linecap:square;stroke-linejoin:miter;stroke-width:0.8;"/>
   </g>
   <g id="patch_6">
    <path d="M 99 73.44 
L 712.8 73.44 
" style="fill:none;stroke:#000000;stroke-linecap:square;stroke-linejoin:miter;stroke-width:0.8;"/>
   </g>
   <g id="legend_1">
    <g id="patch_7">
     <path d="M 616.653125 110.79625 
L 705.8 110.79625 
Q 707.8 110.79625 707.8 108.79625 
L 707.8 80.44 
Q 707.8 78.44 705.8 78.44 
L 616.653125 78.44 
Q 614.653125 78.44 614.653125 80.44 
L 614.653125 108.79625 
Q 614.653125 110.79625 616.653125 110.79625 
z
" style="fill:#ffffff;opacity:0.8;stroke:#cccccc;stroke-linejoin:miter;"/>
    </g>
    <g id="line2d_80">
     <path d="M 618.653125 86.538437 
L 638.653125 86.538437 
" style="fill:none;stroke:#1f77b4;stroke-linecap:square;stroke-width:1.5;"/>
    </g>
    <g id="line2d_81"/>
    <g id="text_11">
     <!-- Avg Cases -->
     <g transform="translate(646.653125 90.038437)scale(0.1 -0.1)">
      <defs>
       <path d="M 191 3500 
L 800 3500 
L 1894 563 
L 2988 3500 
L 3597 3500 
L 2284 0 
L 1503 0 
L 191 3500 
z
" id="DejaVuSans-76" transform="scale(0.015625)"/>
       <path d="M 2906 1791 
Q 2906 2416 2648 2759 
Q 2391 3103 1925 3103 
Q 1463 3103 1205 2759 
Q 947 2416 947 1791 
Q 947 1169 1205 825 
Q 1463 481 1925 481 
Q 2391 481 2648 825 
Q 2906 1169 2906 1791 
z
M 3481 434 
Q 3481 -459 3084 -895 
Q 2688 -1331 1869 -1331 
Q 1566 -1331 1297 -1286 
Q 1028 -1241 775 -1147 
L 775 -588 
Q 1028 -725 1275 -790 
Q 1522 -856 1778 -856 
Q 2344 -856 2625 -561 
Q 2906 -266 2906 331 
L 2906 616 
Q 2728 306 2450 153 
Q 2172 0 1784 0 
Q 1141 0 747 490 
Q 353 981 353 1791 
Q 353 2603 747 3093 
Q 1141 3584 1784 3584 
Q 2172 3584 2450 3431 
Q 2728 3278 2906 2969 
L 2906 3500 
L 3481 3500 
L 3481 434 
z
" id="DejaVuSans-67" transform="scale(0.015625)"/>
       <path id="DejaVuSans-20" transform="scale(0.015625)"/>
       <path d="M 4122 4306 
L 4122 3641 
Q 3803 3938 3442 4084 
Q 3081 4231 2675 4231 
Q 1875 4231 1450 3742 
Q 1025 3253 1025 2328 
Q 1025 1406 1450 917 
Q 1875 428 2675 428 
Q 3081 428 3442 575 
Q 3803 722 4122 1019 
L 4122 359 
Q 3791 134 3420 21 
Q 3050 -91 2638 -91 
Q 1578 -91 968 557 
Q 359 1206 359 2328 
Q 359 3453 968 4101 
Q 1578 4750 2638 4750 
Q 3056 4750 3426 4639 
Q 3797 4528 4122 4306 
z
" id="DejaVuSans-43" transform="scale(0.015625)"/>
       <path d="M 2834 3397 
L 2834 2853 
Q 2591 2978 2328 3040 
Q 2066 3103 1784 3103 
Q 1356 3103 1142 2972 
Q 928 2841 928 2578 
Q 928 2378 1081 2264 
Q 1234 2150 1697 2047 
L 1894 2003 
Q 2506 1872 2764 1633 
Q 3022 1394 3022 966 
Q 3022 478 2636 193 
Q 2250 -91 1575 -91 
Q 1294 -91 989 -36 
Q 684 19 347 128 
L 347 722 
Q 666 556 975 473 
Q 1284 391 1588 391 
Q 1994 391 2212 530 
Q 2431 669 2431 922 
Q 2431 1156 2273 1281 
Q 2116 1406 1581 1522 
L 1381 1569 
Q 847 1681 609 1914 
Q 372 2147 372 2553 
Q 372 3047 722 3315 
Q 1072 3584 1716 3584 
Q 2034 3584 2315 3537 
Q 2597 3491 2834 3397 
z
" id="DejaVuSans-73" transform="scale(0.015625)"/>
      </defs>
      <use xlink:href="#DejaVuSans-41"/>
      <use x="62.533203" xlink:href="#DejaVuSans-76"/>
      <use x="121.712891" xlink:href="#DejaVuSans-67"/>
      <use x="185.189453" xlink:href="#DejaVuSans-20"/>
      <use x="216.976562" xlink:href="#DejaVuSans-43"/>
      <use x="286.800781" xlink:href="#DejaVuSans-61"/>
      <use x="348.080078" xlink:href="#DejaVuSans-73"/>
      <use x="400.179688" xlink:href="#DejaVuSans-65"/>
      <use x="461.703125" xlink:href="#DejaVuSans-73"/>
     </g>
    </g>
    <g id="line2d_82">
     <path d="M 618.653125 101.216562 
L 638.653125 101.216562 
" style="fill:none;stroke:#ff7f0e;stroke-linecap:square;stroke-width:1.5;"/>
    </g>
    <g id="line2d_83"/>
    <g id="text_12">
     <!-- Avg Deaths -->
     <g transform="translate(646.653125 104.716562)scale(0.1 -0.1)">
      <defs>
       <path d="M 3513 2113 
L 3513 0 
L 2938 0 
L 2938 2094 
Q 2938 2591 2744 2837 
Q 2550 3084 2163 3084 
Q 1697 3084 1428 2787 
Q 1159 2491 1159 1978 
L 1159 0 
L 581 0 
L 581 4863 
L 1159 4863 
L 1159 2956 
Q 1366 3272 1645 3428 
Q 1925 3584 2291 3584 
Q 2894 3584 3203 3211 
Q 3513 2838 3513 2113 
z
" id="DejaVuSans-68" transform="scale(0.015625)"/>
      </defs>
      <use xlink:href="#DejaVuSans-41"/>
      <use x="62.533203" xlink:href="#DejaVuSans-76"/>
      <use x="121.712891" xlink:href="#DejaVuSans-67"/>
      <use x="185.189453" xlink:href="#DejaVuSans-20"/>
      <use x="216.976562" xlink:href="#DejaVuSans-44"/>
      <use x="293.978516" xlink:href="#DejaVuSans-65"/>
      <use x="355.501953" xlink:href="#DejaVuSans-61"/>
      <use x="416.78125" xlink:href="#DejaVuSans-74"/>
      <use x="455.990234" xlink:href="#DejaVuSans-68"/>
      <use x="519.369141" xlink:href="#DejaVuSans-73"/>
     </g>
    </g>
   </g>
  </g>
 </g>
 <defs>
  <clipPath id="p68e2955192">
   <rect height="471.24" width="613.8" x="99" y="73.44"/>
  </clipPath>
 </defs>
</svg>
