<?xml version="1.0" encoding="utf-8" standalone="no"?>
<!DOCTYPE svg PUBLIC "-//W3C//DTD SVG 1.1//EN"
  "http://www.w3.org/Graphics/SVG/1.1/DTD/svg11.dtd">
<svg height="612pt" version="1.1" viewBox="0 0 792 612" width="792pt" xmlns="http://www.w3.org/2000/svg" xmlns:xlink="http://www.w3.org/1999/xlink">
 <metadata>
  <rdf:RDF xmlns:cc="http://creativecommons.org/ns#" xmlns:dc="http://purl.org/dc/elements/1.1/" xmlns:rdf="http://www.w3.org/1999/02/22-rdf-syntax-ns#">
   <cc:Work>
    <dc:type rdf:resource="http://purl.org/dc/dcmitype/StillImage"/>
    <dc:format>image/svg+xml</dc:format>
    <dc:creator>
     <cc:Agent>
      <dc:title>Matplotlib v3.4.2, https://matplotlib.org/</dc:title>
     </cc:Agent>
    </dc:creator>
   </cc:Work>
  </rdf:RDF>
 </metadata>
 <defs>
  <style type="text/css">*{stroke-linecap:butt;stroke-linejoin:round;}</style>
 </defs>
 <g id="figure_1">
  <g id="patch_1">
   <path d="M 0 612 
L 792 612 
L 792 0 
L 0 0 
z
" style="fill:#ffffff;"/>
  </g>
  <g id="axes_1">
   <g id="patch_2">
    <path d="M 99 544.68 
L 712.8 544.68 
L 712.8 73.44 
L 99 73.44 
z
" style="fill:#ffffff;"/>
   </g>
   <g id="PolyCollection_1">
    <path clip-path="url(#p68e2955192)" d="M 99 180480.478538 
L 99 180480.478538 
L 100.065625 180480.478538 
L 101.13125 180480.478538 
L 102.196875 180480.478538 
L 103.2625 180480.478538 
L 104.328125 180480.478538 
L 105.39375 180480.478538 
L 106.459375 180480.478538 
L 107.525 180480.478538 
L 108.590625 180480.478538 
L 109.65625 180480.478538 
L 110.721875 180480.478538 
L 111.7875 180480.478538 
L 112.853125 391.420769 
L 113.91875 391.420769 
L 114.984375 366.788375 
L 116.05 327.702838 
L 117.115625 327.702838 
L 118.18125 327.702838 
L 119.246875 316.943879 
L 120.3125 316.943879 
L 121.378125 316.943879 
L 122.44375 327.702838 
L 123.509375 327.702838 
L 124.575 327.702838 
L 125.640625 327.702838 
L 126.70625 327.702838 
L 127.771875 327.702838 
L 128.8375 327.702838 
L 129.903125 327.702838 
L 130.96875 360.6935 
L 132.034375 360.6935 
L 133.1 360.6935 
L 134.165625 373.398899 
L 135.23125 373.398899 
L 136.296875 414.882334 
L 137.3625 414.882334 
L 138.428125 427.587732 
L 139.49375 427.587732 
L 140.559375 427.587732 
L 141.625 469.071167 
L 142.690625 469.071167 
L 143.75625 427.587732 
L 144.821875 414.882334 
L 145.8875 414.882334 
L 146.953125 414.882334 
L 148.01875 391.420769 
L 149.084375 391.420769 
L 150.15 391.420769 
L 151.215625 391.420769 
L 152.28125 391.420769 
L 153.346875 391.420769 
L 154.4125 391.420769 
L 155.478125 391.420769 
L 156.54375 391.420769 
L 157.609375 391.420769 
L 158.675 391.420769 
L 159.740625 391.420769 
L 160.80625 391.420769 
L 161.871875 427.587732 
L 162.9375 496.955287 
L 164.003125 496.955287 
L 165.06875 496.955287 
L 166.134375 496.955287 
L 167.2 496.955287 
L 168.265625 496.955287 
L 169.33125 496.955287 
L 170.396875 496.955287 
L 171.4625 180480.478538 
L 172.528125 180480.478538 
L 173.59375 180480.478538 
L 174.659375 180480.478538 
L 175.725 180480.478538 
L 176.790625 180480.478538 
L 177.85625 180480.478538 
L 178.921875 180480.478538 
L 179.9875 180480.478538 
L 181.053125 180480.478538 
L 182.11875 180480.478538 
L 183.184375 180480.478538 
L 184.25 180480.478538 
L 185.315625 496.955287 
L 186.38125 496.955287 
L 187.446875 496.955287 
L 188.5125 496.955287 
L 189.578125 496.955287 
L 190.64375 496.955287 
L 191.709375 469.071167 
L 192.775 469.071167 
L 193.840625 469.071167 
L 194.90625 469.071167 
L 195.971875 496.955287 
L 197.0375 469.071167 
L 198.103125 469.071167 
L 199.16875 469.071167 
L 200.234375 496.955287 
L 201.3 469.071167 
L 202.365625 469.071167 
L 203.43125 469.071167 
L 204.496875 469.071167 
L 205.5625 469.071167 
L 206.628125 427.587732 
L 207.69375 414.882334 
L 208.759375 414.882334 
L 209.825 414.882334 
L 210.890625 414.882334 
L 211.95625 414.882334 
L 213.021875 414.882334 
L 214.0875 391.420769 
L 215.153125 391.420769 
L 216.21875 341.700464 
L 217.284375 328.995065 
L 218.35 328.995065 
L 219.415625 328.995065 
L 220.48125 328.995065 
L 221.546875 328.995065 
L 222.6125 282.322563 
L 223.678125 276.120178 
L 224.74375 264.448498 
L 225.809375 262.755046 
L 226.875 236.450333 
L 227.940625 236.450333 
L 229.00625 220.292334 
L 230.071875 220.292334 
L 231.1375 220.292334 
L 232.203125 220.292334 
L 233.26875 220.292334 
L 234.334375 220.292334 
L 235.4 220.292334 
L 236.465625 220.292334 
L 237.53125 215.267121 
L 238.596875 215.267121 
L 239.6625 215.267121 
L 240.728125 215.267121 
L 241.79375 219.968615 
L 242.859375 219.968615 
L 243.925 242.243943 
L 244.990625 242.243943 
L 246.05625 242.243943 
L 247.121875 239.293481 
L 248.1875 238.062307 
L 249.253125 238.062307 
L 250.31875 234.48101 
L 251.384375 223.605455 
L 252.45 223.605455 
L 253.515625 223.605455 
L 254.58125 223.605455 
L 255.646875 223.605455 
L 256.7125 223.605455 
L 257.778125 209.974863 
L 258.84375 190.454064 
L 259.909375 190.454064 
L 260.975 155.078532 
L 262.040625 155.078532 
L 263.10625 155.078532 
L 264.171875 155.078532 
L 265.2375 155.078532 
L 266.303125 155.078532 
L 267.36875 155.928301 
L 268.434375 153.820951 
L 269.5 143.451076 
L 270.565625 143.451076 
L 271.63125 143.451076 
L 272.696875 143.451076 
L 273.7625 151.904057 
L 274.828125 151.904057 
L 275.89375 173.587102 
L 276.959375 173.587102 
L 278.025 161.230533 
L 279.090625 161.230533 
L 280.15625 161.230533 
L 281.221875 161.230533 
L 282.2875 161.230533 
L 283.353125 161.230533 
L 284.41875 178.561229 
L 285.484375 178.561229 
L 286.55 178.561229 
L 287.615625 178.561229 
L 288.68125 187.626736 
L 289.746875 187.626736 
L 290.8125 251.828742 
L 291.878125 251.828742 
L 292.94375 251.828742 
L 294.009375 251.828742 
L 295.075 251.828742 
L 296.140625 251.828742 
L 297.20625 251.828742 
L 298.271875 251.828742 
L 299.3375 241.38953 
L 300.403125 245.310138 
L 301.46875 248.037553 
L 302.534375 248.037553 
L 303.6 248.037553 
L 304.665625 248.037553 
L 305.73125 248.037553 
L 306.796875 248.037553 
L 307.8625 248.037553 
L 308.928125 248.037553 
L 309.99375 248.037553 
L 311.059375 248.037553 
L 312.125 248.037553 
L 313.190625 248.037553 
L 314.25625 274.806232 
L 315.321875 274.806232 
L 316.3875 280.901106 
L 317.453125 280.901106 
L 318.51875 283.043102 
L 319.584375 312.599542 
L 320.65 312.599542 
L 321.715625 326.431624 
L 322.78125 427.587732 
L 323.846875 427.587732 
L 324.9125 427.587732 
L 325.978125 391.420769 
L 327.04375 391.420769 
L 328.109375 427.587732 
L 329.175 427.587732 
L 330.240625 391.420769 
L 331.30625 391.420769 
L 332.371875 391.420769 
L 333.4375 391.420769 
L 334.503125 391.420769 
L 335.56875 341.700464 
L 336.634375 341.700464 
L 337.7 341.700464 
L 338.765625 341.700464 
L 339.83125 341.700464 
L 340.896875 341.700464 
L 341.9625 341.700464 
L 343.028125 341.700464 
L 344.09375 328.995065 
L 345.159375 305.5335 
L 346.225 305.5335 
L 347.290625 305.5335 
L 348.35625 297.29663 
L 349.421875 297.29663 
L 350.4875 297.29663 
L 351.553125 297.29663 
L 352.61875 271.614852 
L 353.684375 271.614852 
L 354.75 271.614852 
L 355.815625 271.614852 
L 356.88125 271.614852 
L 357.946875 271.614852 
L 359.0125 264.448498 
L 360.078125 276.120178 
L 361.14375 276.120178 
L 362.209375 276.120178 
L 363.275 260.552704 
L 364.340625 260.552704 
L 365.40625 260.552704 
L 366.471875 260.552704 
L 367.5375 268.548656 
L 368.603125 268.548656 
L 369.66875 268.548656 
L 370.734375 264.448498 
L 371.8 264.448498 
L 372.865625 264.448498 
L 373.93125 264.448498 
L 374.996875 255.303891 
L 376.0625 255.303891 
L 377.128125 255.303891 
L 378.19375 264.448498 
L 379.259375 245.310138 
L 380.325 245.310138 
L 381.390625 225.662889 
L 382.45625 225.662889 
L 383.521875 225.662889 
L 384.5875 197.155834 
L 385.653125 192.246187 
L 386.71875 192.246187 
L 387.784375 189.573176 
L 388.85 184.486637 
L 389.915625 184.486637 
L 390.98125 184.486637 
L 392.046875 184.486637 
L 393.1125 184.486637 
L 394.178125 189.573176 
L 395.24375 170.096435 
L 396.309375 170.096435 
L 397.375 170.096435 
L 398.440625 170.096435 
L 399.50625 170.610202 
L 400.571875 170.610202 
L 401.6375 170.610202 
L 402.703125 177.615898 
L 403.76875 228.493169 
L 404.834375 228.493169 
L 405.9 228.493169 
L 406.965625 228.493169 
L 408.03125 232.940508 
L 409.096875 207.733047 
L 410.1625 228.493169 
L 411.228125 235.656641 
L 412.29375 235.656641 
L 413.359375 235.656641 
L 414.425 235.656641 
L 415.490625 235.656641 
L 416.55625 235.656641 
L 417.621875 241.815569 
L 418.6875 249.910169 
L 419.753125 249.910169 
L 420.81875 249.910169 
L 421.884375 249.910169 
L 422.95 208.566213 
L 424.015625 249.910169 
L 425.08125 333.00507 
L 426.146875 356.879185 
L 427.2125 180480.478538 
L 428.278125 141.769765 
L 429.34375 141.769765 
L 430.409375 133.973738 
L 431.475 133.973738 
L 432.540625 133.973738 
L 433.60625 133.973738 
L 434.671875 133.973738 
L 435.7375 133.973738 
L 436.803125 133.973738 
L 437.86875 223.944623 
L 438.934375 223.944623 
L 440 223.944623 
L 441.065625 223.944623 
L 442.13125 223.944623 
L 443.196875 224.971044 
L 444.2625 223.944623 
L 445.328125 224.971044 
L 446.39375 227.065222 
L 447.459375 227.065222 
L 448.525 227.065222 
L 449.590625 233.706965 
L 450.65625 230.315582 
L 451.721875 230.315582 
L 452.7875 241.38953 
L 453.853125 241.38953 
L 454.91875 236.05248 
L 455.984375 234.870926 
L 457.05 234.870926 
L 458.115625 234.870926 
L 459.18125 236.05248 
L 460.246875 236.05248 
L 461.3125 236.05248 
L 462.378125 236.05248 
L 463.44375 236.05248 
L 464.509375 236.05248 
L 465.575 236.05248 
L 466.640625 236.05248 
L 467.70625 238.470547 
L 468.771875 234.870926 
L 469.8375 238.470547 
L 470.903125 247.576325 
L 471.96875 247.576325 
L 473.034375 247.576325 
L 474.1 253.299218 
L 475.165625 253.299218 
L 476.23125 206.09289 
L 477.296875 206.09289 
L 478.3625 209.408353 
L 479.428125 209.408353 
L 480.49375 209.408353 
L 481.559375 196.196583 
L 482.625 196.196583 
L 483.690625 217.739357 
L 484.75625 219.646231 
L 485.821875 219.646231 
L 486.8875 219.646231 
L 487.953125 219.646231 
L 489.01875 219.646231 
L 490.084375 219.646231 
L 491.15 283.770344 
L 492.215625 283.770344 
L 493.28125 293.069765 
L 494.346875 293.069765 
L 495.4125 293.069765 
L 496.478125 328.995065 
L 497.54375 328.995065 
L 498.609375 328.995065 
L 499.675 351.485463 
L 500.740625 306.504667 
L 501.80625 272.24279 
L 502.871875 272.24279 
L 503.9375 272.24279 
L 505.003125 272.24279 
L 506.06875 272.24279 
L 507.134375 272.24279 
L 508.2 272.24279 
L 509.265625 272.24279 
L 510.33125 272.24279 
L 511.396875 201.880264 
L 512.4625 201.880264 
L 513.528125 272.24279 
L 514.59375 227.065222 
L 515.659375 227.065222 
L 516.725 234.870926 
L 517.790625 242.243943 
L 518.85625 212.282867 
L 519.921875 212.282867 
L 520.9875 212.282867 
L 522.053125 212.282867 
L 523.11875 212.282867 
L 524.184375 212.282867 
L 525.25 212.282867 
L 526.315625 222.931503 
L 527.38125 222.931503 
L 528.446875 222.931503 
L 529.5125 220.617399 
L 530.578125 220.617399 
L 531.64375 220.617399 
L 532.709375 220.617399 
L 533.775 232.940508 
L 534.840625 232.940508 
L 535.90625 232.940508 
L 536.971875 237.656186 
L 538.0375 215.877889 
L 539.103125 215.877889 
L 540.16875 215.877889 
L 541.234375 215.877889 
L 542.3 215.877889 
L 543.365625 215.877889 
L 544.43125 236.450333 
L 545.496875 236.450333 
L 546.5625 205.822845 
L 547.628125 205.822845 
L 548.69375 205.018262 
L 549.759375 205.018262 
L 550.825 205.018262 
L 551.890625 205.018262 
L 552.95625 223.944623 
L 554.021875 223.944623 
L 555.0875 223.944623 
L 556.153125 223.944623 
L 557.21875 223.944623 
L 558.284375 223.944623 
L 559.35 223.944623 
L 560.415625 223.944623 
L 561.48125 226.011121 
L 562.546875 226.011121 
L 563.6125 226.011121 
L 564.678125 226.011121 
L 565.74375 232.181493 
L 566.809375 232.181493 
L 567.875 188.05511 
L 568.940625 188.05511 
L 570.00625 188.05511 
L 571.071875 188.05511 
L 572.1375 186.776967 
L 573.203125 170.096435 
L 574.26875 170.096435 
L 575.334375 170.096435 
L 576.4 170.096435 
L 577.465625 170.096435 
L 578.53125 170.096435 
L 579.596875 166.918711 
L 580.6625 166.918711 
L 581.728125 166.918711 
L 582.79375 166.918711 
L 583.859375 166.918711 
L 584.925 166.918711 
L 585.990625 166.918711 
L 587.05625 166.918711 
L 588.121875 168.40786 
L 589.1875 168.40786 
L 590.253125 168.40786 
L 591.31875 168.40786 
L 592.384375 168.40786 
L 593.45 176.496385 
L 594.515625 198.127001 
L 595.58125 245.758151 
L 596.646875 245.758151 
L 597.7125 245.758151 
L 598.778125 245.758151 
L 599.84375 245.758151 
L 600.909375 245.758151 
L 601.975 240.125169 
L 603.040625 240.125169 
L 604.10625 199.110384 
L 605.171875 199.110384 
L 606.2375 199.110384 
L 607.303125 199.110384 
L 608.36875 199.110384 
L 609.434375 173.230938 
L 610.5 173.230938 
L 611.565625 173.230938 
L 612.63125 188.05511 
L 613.696875 188.05511 
L 614.7625 188.05511 
L 615.828125 188.05511 
L 616.89375 188.05511 
L 617.959375 173.230938 
L 619.025 174.304336 
L 620.090625 174.304336 
L 621.15625 174.304336 
L 622.221875 174.304336 
L 623.2875 153.268454 
L 624.353125 158.387385 
L 625.41875 158.387385 
L 626.484375 142.485904 
L 627.55 142.485904 
L 628.615625 142.485904 
L 629.68125 142.485904 
L 630.746875 134.838786 
L 631.8125 134.838786 
L 632.878125 134.838786 
L 633.94375 124.182413 
L 635.009375 124.182413 
L 636.075 124.182413 
L 637.140625 124.182413 
L 638.20625 104.272062 
L 639.271875 104.272062 
L 640.3375 104.272062 
L 641.403125 94.86 
L 642.46875 94.86 
L 643.534375 94.86 
L 644.6 94.86 
L 645.665625 94.86 
L 646.73125 94.86 
L 647.796875 94.86 
L 648.8625 99.979421 
L 649.928125 99.979421 
L 650.99375 99.979421 
L 652.059375 99.979421 
L 653.125 105.159617 
L 654.190625 105.159617 
L 655.25625 98.531001 
L 656.321875 105.159617 
L 657.3875 105.159617 
L 658.453125 105.159617 
L 659.51875 98.531001 
L 660.584375 98.531001 
L 661.65 99.14847 
L 662.715625 99.14847 
L 663.78125 104.272062 
L 664.846875 104.272062 
L 665.9125 104.272062 
L 666.978125 104.272062 
L 668.04375 104.272062 
L 669.109375 98.942104 
L 670.175 111.833612 
L 671.240625 111.833612 
L 672.30625 111.833612 
L 673.371875 111.833612 
L 674.4375 128.372391 
L 675.503125 128.372391 
L 676.56875 112.566154 
L 677.634375 112.566154 
L 678.7 112.566154 
L 679.765625 111.590949 
L 680.83125 111.590949 
L 681.896875 111.590949 
L 682.9625 104.41929 
L 684.028125 109.913074 
L 685.09375 109.913074 
L 686.159375 109.913074 
L 687.225 109.913074 
L 688.290625 109.913074 
L 689.35625 109.913074 
L 690.421875 109.913074 
L 691.4875 127.674813 
L 692.553125 127.674813 
L 693.61875 127.674813 
L 694.684375 133.011864 
L 695.75 133.011864 
L 696.815625 133.011864 
L 697.88125 133.011864 
L 698.946875 133.011864 
L 700.0125 133.011864 
L 701.078125 140.240275 
L 702.14375 140.240275 
L 703.209375 140.240275 
L 704.275 140.240275 
L 705.340625 140.240275 
L 706.40625 140.240275 
L 707.471875 146.420216 
L 708.5375 146.420216 
L 709.603125 146.420216 
L 710.66875 146.420216 
L 711.734375 146.420216 
L 712.8 161.078288 
L 712.8 180480.478538 
L 712.8 180480.478538 
L 711.734375 180480.478538 
L 710.66875 180480.478538 
L 709.603125 180480.478538 
L 708.5375 180480.478538 
L 707.471875 180480.478538 
L 706.40625 180480.478538 
L 705.340625 180480.478538 
L 704.275 180480.478538 
L 703.209375 180480.478538 
L 702.14375 180480.478538 
L 701.078125 180480.478538 
L 700.0125 180480.478538 
L 698.946875 180480.478538 
L 697.88125 180480.478538 
L 696.815625 180480.478538 
L 695.75 180480.478538 
L 694.684375 180480.478538 
L 693.61875 180480.478538 
L 692.553125 180480.478538 
L 691.4875 180480.478538 
L 690.421875 180480.478538 
L 689.35625 180480.478538 
L 688.290625 180480.478538 
L 687.225 180480.478538 
L 686.159375 180480.478538 
L 685.09375 180480.478538 
L 684.028125 180480.478538 
L 682.9625 180480.478538 
L 681.896875 180480.478538 
L 680.83125 180480.478538 
L 679.765625 180480.478538 
L 678.7 180480.478538 
L 677.634375 180480.478538 
L 676.56875 180480.478538 
L 675.503125 180480.478538 
L 674.4375 180480.478538 
L 673.371875 180480.478538 
L 672.30625 180480.478538 
L 671.240625 180480.478538 
L 670.175 180480.478538 
L 669.109375 180480.478538 
L 668.04375 180480.478538 
L 666.978125 180480.478538 
L 665.9125 180480.478538 
L 664.846875 180480.478538 
L 663.78125 180480.478538 
L 662.715625 180480.478538 
L 661.65 180480.478538 
L 660.584375 180480.478538 
L 659.51875 180480.478538 
L 658.453125 180480.478538 
L 657.3875 180480.478538 
L 656.321875 180480.478538 
L 655.25625 180480.478538 
L 654.190625 180480.478538 
L 653.125 180480.478538 
L 652.059375 180480.478538 
L 650.99375 180480.478538 
L 649.928125 180480.478538 
L 648.8625 180480.478538 
L 647.796875 180480.478538 
L 646.73125 180480.478538 
L 645.665625 180480.478538 
L 644.6 180480.478538 
L 643.534375 180480.478538 
L 642.46875 180480.478538 
L 641.403125 180480.478538 
L 640.3375 180480.478538 
L 639.271875 180480.478538 
L 638.20625 180480.478538 
L 637.140625 180480.478538 
L 636.075 180480.478538 
L 635.009375 180480.478538 
L 633.94375 180480.478538 
L 632.878125 180480.478538 
L 631.8125 180480.478538 
L 630.746875 180480.478538 
L 629.68125 180480.478538 
L 628.615625 180480.478538 
L 627.55 180480.478538 
L 626.484375 180480.478538 
L 625.41875 180480.478538 
L 624.353125 180480.478538 
L 623.2875 180480.478538 
L 622.221875 180480.478538 
L 621.15625 180480.478538 
L 620.090625 180480.478538 
L 619.025 180480.478538 
L 617.959375 180480.478538 
L 616.89375 180480.478538 
L 615.828125 180480.478538 
L 614.7625 180480.478538 
L 613.696875 180480.478538 
L 612.63125 180480.478538 
L 611.565625 180480.478538 
L 610.5 180480.478538 
L 609.434375 180480.478538 
L 608.36875 180480.478538 
L 607.303125 180480.478538 
L 606.2375 180480.478538 
L 605.171875 180480.478538 
L 604.10625 180480.478538 
L 603.040625 180480.478538 
L 601.975 180480.478538 
L 600.909375 180480.478538 
L 599.84375 180480.478538 
L 598.778125 180480.478538 
L 597.7125 180480.478538 
L 596.646875 180480.478538 
L 595.58125 180480.478538 
L 594.515625 180480.478538 
L 593.45 180480.478538 
L 592.384375 180480.478538 
L 591.31875 180480.478538 
L 590.253125 180480.478538 
L 589.1875 180480.478538 
L 588.121875 180480.478538 
L 587.05625 180480.478538 
L 585.990625 180480.478538 
L 584.925 180480.478538 
L 583.859375 180480.478538 
L 582.79375 180480.478538 
L 581.728125 180480.478538 
L 580.6625 180480.478538 
L 579.596875 180480.478538 
L 578.53125 180480.478538 
L 577.465625 180480.478538 
L 576.4 180480.478538 
L 575.334375 180480.478538 
L 574.26875 180480.478538 
L 573.203125 180480.478538 
L 572.1375 180480.478538 
L 571.071875 180480.478538 
L 570.00625 180480.478538 
L 568.940625 180480.478538 
L 567.875 180480.478538 
L 566.809375 180480.478538 
L 565.74375 180480.478538 
L 564.678125 180480.478538 
L 563.6125 180480.478538 
L 562.546875 180480.478538 
L 561.48125 180480.478538 
L 560.415625 180480.478538 
L 559.35 180480.478538 
L 558.284375 180480.478538 
L 557.21875 180480.478538 
L 556.153125 180480.478538 
L 555.0875 180480.478538 
L 554.021875 180480.478538 
L 552.95625 180480.478538 
L 551.890625 180480.478538 
L 550.825 180480.478538 
L 549.759375 180480.478538 
L 548.69375 180480.478538 
L 547.628125 180480.478538 
L 546.5625 180480.478538 
L 545.496875 180480.478538 
L 544.43125 180480.478538 
L 543.365625 180480.478538 
L 542.3 180480.478538 
L 541.234375 180480.478538 
L 540.16875 180480.478538 
L 539.103125 180480.478538 
L 538.0375 180480.478538 
L 536.971875 180480.478538 
L 535.90625 180480.478538 
L 534.840625 180480.478538 
L 533.775 180480.478538 
L 532.709375 180480.478538 
L 531.64375 180480.478538 
L 530.578125 180480.478538 
L 529.5125 180480.478538 
L 528.446875 180480.478538 
L 527.38125 180480.478538 
L 526.315625 180480.478538 
L 525.25 180480.478538 
L 524.184375 180480.478538 
L 523.11875 180480.478538 
L 522.053125 180480.478538 
L 520.9875 180480.478538 
L 519.921875 180480.478538 
L 518.85625 180480.478538 
L 517.790625 180480.478538 
L 516.725 180480.478538 
L 515.659375 180480.478538 
L 514.59375 180480.478538 
L 513.528125 180480.478538 
L 512.4625 180480.478538 
L 511.396875 180480.478538 
L 510.33125 180480.478538 
L 509.265625 180480.478538 
L 508.2 180480.478538 
L 507.134375 180480.478538 
L 506.06875 180480.478538 
L 505.003125 180480.478538 
L 503.9375 180480.478538 
L 502.871875 180480.478538 
L 501.80625 180480.478538 
L 500.740625 180480.478538 
L 499.675 180480.478538 
L 498.609375 180480.478538 
L 497.54375 180480.478538 
L 496.478125 180480.478538 
L 495.4125 180480.478538 
L 494.346875 180480.478538 
L 493.28125 180480.478538 
L 492.215625 180480.478538 
L 491.15 180480.478538 
L 490.084375 180480.478538 
L 489.01875 180480.478538 
L 487.953125 180480.478538 
L 486.8875 180480.478538 
L 485.821875 180480.478538 
L 484.75625 180480.478538 
L 483.690625 180480.478538 
L 482.625 180480.478538 
L 481.559375 180480.478538 
L 480.49375 180480.478538 
L 479.428125 180480.478538 
L 478.3625 180480.478538 
L 477.296875 180480.478538 
L 476.23125 180480.478538 
L 475.165625 180480.478538 
L 474.1 180480.478538 
L 473.034375 180480.478538 
L 471.96875 180480.478538 
L 470.903125 180480.478538 
L 469.8375 180480.478538 
L 468.771875 180480.478538 
L 467.70625 180480.478538 
L 466.640625 180480.478538 
L 465.575 180480.478538 
L 464.509375 180480.478538 
L 463.44375 180480.478538 
L 462.378125 180480.478538 
L 461.3125 180480.478538 
L 460.246875 180480.478538 
L 459.18125 180480.478538 
L 458.115625 180480.478538 
L 457.05 180480.478538 
L 455.984375 180480.478538 
L 454.91875 180480.478538 
L 453.853125 180480.478538 
L 452.7875 180480.478538 
L 451.721875 180480.478538 
L 450.65625 368.930371 
L 449.590625 180480.478538 
L 448.525 368.930371 
L 447.459375 368.930371 
L 446.39375 180480.478538 
L 445.328125 180480.478538 
L 444.2625 180480.478538 
L 443.196875 180480.478538 
L 442.13125 180480.478538 
L 441.065625 180480.478538 
L 440 180480.478538 
L 438.934375 180480.478538 
L 437.86875 180480.478538 
L 436.803125 180480.478538 
L 435.7375 180480.478538 
L 434.671875 180480.478538 
L 433.60625 180480.478538 
L 432.540625 180480.478538 
L 431.475 180480.478538 
L 430.409375 180480.478538 
L 429.34375 180480.478538 
L 428.278125 180480.478538 
L 427.2125 180480.478538 
L 426.146875 180480.478538 
L 425.08125 180480.478538 
L 424.015625 180480.478538 
L 422.95 180480.478538 
L 421.884375 180480.478538 
L 420.81875 180480.478538 
L 419.753125 180480.478538 
L 418.6875 180480.478538 
L 417.621875 180480.478538 
L 416.55625 180480.478538 
L 415.490625 180480.478538 
L 414.425 180480.478538 
L 413.359375 180480.478538 
L 412.29375 180480.478538 
L 411.228125 180480.478538 
L 410.1625 180480.478538 
L 409.096875 180480.478538 
L 408.03125 180480.478538 
L 406.965625 180480.478538 
L 405.9 297.29663 
L 404.834375 297.29663 
L 403.76875 297.29663 
L 402.703125 297.29663 
L 401.6375 297.29663 
L 400.571875 297.29663 
L 399.50625 297.29663 
L 398.440625 282.322563 
L 397.375 297.29663 
L 396.309375 180480.478538 
L 395.24375 180480.478538 
L 394.178125 180480.478538 
L 393.1125 180480.478538 
L 392.046875 180480.478538 
L 390.98125 180480.478538 
L 389.915625 180480.478538 
L 388.85 368.930371 
L 387.784375 180480.478538 
L 386.71875 180480.478538 
L 385.653125 180480.478538 
L 384.5875 180480.478538 
L 383.521875 180480.478538 
L 382.45625 180480.478538 
L 381.390625 180480.478538 
L 380.325 180480.478538 
L 379.259375 391.420769 
L 378.19375 391.420769 
L 377.128125 391.420769 
L 376.0625 391.420769 
L 374.996875 180480.478538 
L 373.93125 180480.478538 
L 372.865625 391.420769 
L 371.8 391.420769 
L 370.734375 391.420769 
L 369.66875 391.420769 
L 368.603125 180480.478538 
L 367.5375 180480.478538 
L 366.471875 180480.478538 
L 365.40625 180480.478538 
L 364.340625 180480.478538 
L 363.275 180480.478538 
L 362.209375 180480.478538 
L 361.14375 180480.478538 
L 360.078125 180480.478538 
L 359.0125 180480.478538 
L 357.946875 180480.478538 
L 356.88125 180480.478538 
L 355.815625 180480.478538 
L 354.75 180480.478538 
L 353.684375 180480.478538 
L 352.61875 180480.478538 
L 351.553125 180480.478538 
L 350.4875 180480.478538 
L 349.421875 180480.478538 
L 348.35625 180480.478538 
L 347.290625 180480.478538 
L 346.225 180480.478538 
L 345.159375 180480.478538 
L 344.09375 180480.478538 
L 343.028125 180480.478538 
L 341.9625 180480.478538 
L 340.896875 180480.478538 
L 339.83125 180480.478538 
L 338.765625 180480.478538 
L 337.7 180480.478538 
L 336.634375 180480.478538 
L 335.56875 180480.478538 
L 334.503125 180480.478538 
L 333.4375 180480.478538 
L 332.371875 180480.478538 
L 331.30625 180480.478538 
L 330.240625 180480.478538 
L 329.175 180480.478538 
L 328.109375 180480.478538 
L 327.04375 180480.478538 
L 325.978125 180480.478538 
L 324.9125 180480.478538 
L 323.846875 180480.478538 
L 322.78125 180480.478538 
L 321.715625 180480.478538 
L 320.65 180480.478538 
L 319.584375 180480.478538 
L 318.51875 180480.478538 
L 317.453125 180480.478538 
L 316.3875 180480.478538 
L 315.321875 180480.478538 
L 314.25625 180480.478538 
L 313.190625 180480.478538 
L 312.125 180480.478538 
L 311.059375 180480.478538 
L 309.99375 180480.478538 
L 308.928125 180480.478538 
L 307.8625 180480.478538 
L 306.796875 180480.478538 
L 305.73125 180480.478538 
L 304.665625 180480.478538 
L 303.6 180480.478538 
L 302.534375 180480.478538 
L 301.46875 477.308037 
L 300.403125 477.308037 
L 299.3375 469.071167 
L 298.271875 477.308037 
L 297.20625 477.308037 
L 296.140625 469.071167 
L 295.075 469.071167 
L 294.009375 469.071167 
L 292.94375 366.788375 
L 291.878125 366.788375 
L 290.8125 366.788375 
L 289.746875 366.788375 
L 288.68125 469.071167 
L 287.615625 366.788375 
L 286.55 366.788375 
L 285.484375 366.788375 
L 284.41875 477.308037 
L 283.353125 366.788375 
L 282.2875 366.788375 
L 281.221875 344.827999 
L 280.15625 343.248593 
L 279.090625 267.949588 
L 278.025 266.765051 
L 276.959375 325.18075 
L 275.89375 266.765051 
L 274.828125 266.765051 
L 273.7625 266.765051 
L 272.696875 266.765051 
L 271.63125 243.981302 
L 270.565625 243.981302 
L 269.5 243.981302 
L 268.434375 318.068761 
L 267.36875 318.068761 
L 266.303125 318.068761 
L 265.2375 318.068761 
L 264.171875 318.068761 
L 263.10625 337.231935 
L 262.040625 262.198617 
L 260.975 262.198617 
L 259.909375 337.231935 
L 258.84375 292.25114 
L 257.778125 337.231935 
L 256.7125 337.231935 
L 255.646875 337.231935 
L 254.58125 337.231935 
L 253.515625 305.5335 
L 252.45 337.231935 
L 251.384375 337.231935 
L 250.31875 180480.478538 
L 249.253125 180480.478538 
L 248.1875 180480.478538 
L 247.121875 180480.478538 
L 246.05625 180480.478538 
L 244.990625 337.231935 
L 243.925 337.231935 
L 242.859375 328.995065 
L 241.79375 328.995065 
L 240.728125 328.995065 
L 239.6625 292.25114 
L 238.596875 285.245444 
L 237.53125 283.043102 
L 236.465625 283.043102 
L 235.4 283.043102 
L 234.334375 299.946984 
L 233.26875 299.946984 
L 232.203125 328.995065 
L 231.1375 328.995065 
L 230.071875 328.995065 
L 229.00625 331.645419 
L 227.940625 331.645419 
L 226.875 362.672795 
L 225.809375 385.834252 
L 224.74375 418.892339 
L 223.678125 477.308037 
L 222.6125 477.308037 
L 221.546875 477.308037 
L 220.48125 477.308037 
L 219.415625 180480.478538 
L 218.35 180480.478538 
L 217.284375 180480.478538 
L 216.21875 180480.478538 
L 215.153125 180480.478538 
L 214.0875 180480.478538 
L 213.021875 180480.478538 
L 211.95625 180480.478538 
L 210.890625 180480.478538 
L 209.825 180480.478538 
L 208.759375 180480.478538 
L 207.69375 180480.478538 
L 206.628125 180480.478538 
L 205.5625 180480.478538 
L 204.496875 180480.478538 
L 203.43125 180480.478538 
L 202.365625 180480.478538 
L 201.3 180480.478538 
L 200.234375 180480.478538 
L 199.16875 180480.478538 
L 198.103125 180480.478538 
L 197.0375 180480.478538 
L 195.971875 180480.478538 
L 194.90625 180480.478538 
L 193.840625 180480.478538 
L 192.775 180480.478538 
L 191.709375 180480.478538 
L 190.64375 180480.478538 
L 189.578125 180480.478538 
L 188.5125 180480.478538 
L 187.446875 180480.478538 
L 186.38125 180480.478538 
L 185.315625 180480.478538 
L 184.25 180480.478538 
L 183.184375 180480.478538 
L 182.11875 180480.478538 
L 181.053125 180480.478538 
L 179.9875 180480.478538 
L 178.921875 180480.478538 
L 177.85625 180480.478538 
L 176.790625 180480.478538 
L 175.725 180480.478538 
L 174.659375 180480.478538 
L 173.59375 180480.478538 
L 172.528125 180480.478538 
L 171.4625 180480.478538 
L 170.396875 180480.478538 
L 169.33125 180480.478538 
L 168.265625 180480.478538 
L 167.2 180480.478538 
L 166.134375 180480.478538 
L 165.06875 180480.478538 
L 164.003125 180480.478538 
L 162.9375 180480.478538 
L 161.871875 180480.478538 
L 160.80625 180480.478538 
L 159.740625 180480.478538 
L 158.675 180480.478538 
L 157.609375 180480.478538 
L 156.54375 180480.478538 
L 155.478125 180480.478538 
L 154.4125 180480.478538 
L 153.346875 180480.478538 
L 152.28125 180480.478538 
L 151.215625 180480.478538 
L 150.15 180480.478538 
L 149.084375 180480.478538 
L 148.01875 180480.478538 
L 146.953125 180480.478538 
L 145.8875 180480.478538 
L 144.821875 180480.478538 
L 143.75625 180480.478538 
L 142.690625 180480.478538 
L 141.625 180480.478538 
L 140.559375 180480.478538 
L 139.49375 180480.478538 
L 138.428125 180480.478538 
L 137.3625 180480.478538 
L 136.296875 180480.478538 
L 135.23125 180480.478538 
L 134.165625 180480.478538 
L 133.1 180480.478538 
L 132.034375 180480.478538 
L 130.96875 180480.478538 
L 129.903125 180480.478538 
L 128.8375 477.308037 
L 127.771875 477.308037 
L 126.70625 477.308037 
L 125.640625 180480.478538 
L 124.575 180480.478538 
L 123.509375 180480.478538 
L 122.44375 180480.478538 
L 121.378125 180480.478538 
L 120.3125 180480.478538 
L 119.246875 180480.478538 
L 118.18125 180480.478538 
L 117.115625 180480.478538 
L 116.05 180480.478538 
L 114.984375 180480.478538 
L 113.91875 180480.478538 
L 112.853125 180480.478538 
L 111.7875 180480.478538 
L 110.721875 180480.478538 
L 109.65625 180480.478538 
L 108.590625 180480.478538 
L 107.525 180480.478538 
L 106.459375 180480.478538 
L 105.39375 180480.478538 
L 104.328125 180480.478538 
L 103.2625 180480.478538 
L 102.196875 180480.478538 
L 101.13125 180480.478538 
L 100.065625 180480.478538 
L 99 180480.478538 
z
" style="fill:#8080ff;fill-opacity:0.5;stroke:#8080ff;stroke-opacity:0.5;"/>
   </g>
   <g id="PolyCollection_2">
    <path clip-path="url(#p68e2955192)" d="M 99 180480.478538 
L 99 180480.478538 
L 100.065625 180480.478538 
L 101.13125 180480.478538 
L 102.196875 180480.478538 
L 103.2625 180480.478538 
L 104.328125 180480.478538 
L 105.39375 180480.478538 
L 106.459375 180480.478538 
L 107.525 180480.478538 
L 108.590625 180480.478538 
L 109.65625 180480.478538 
L 110.721875 180480.478538 
L 111.7875 180480.478538 
L 112.853125 180480.478538 
L 113.91875 180480.478538 
L 114.984375 180480.478538 
L 116.05 180480.478538 
L 117.115625 180480.478538 
L 118.18125 180480.478538 
L 119.246875 180480.478538 
L 120.3125 180480.478538 
L 121.378125 180480.478538 
L 122.44375 180480.478538 
L 123.509375 180480.478538 
L 124.575 180480.478538 
L 125.640625 180480.478538 
L 126.70625 180480.478538 
L 127.771875 180480.478538 
L 128.8375 180480.478538 
L 129.903125 180480.478538 
L 130.96875 180480.478538 
L 132.034375 180480.478538 
L 133.1 180480.478538 
L 134.165625 496.955287 
L 135.23125 469.071167 
L 136.296875 469.071167 
L 137.3625 469.071167 
L 138.428125 496.955287 
L 139.49375 496.955287 
L 140.559375 496.955287 
L 141.625 496.955287 
L 142.690625 496.955287 
L 143.75625 469.071167 
L 144.821875 469.071167 
L 145.8875 469.071167 
L 146.953125 469.071167 
L 148.01875 469.071167 
L 149.084375 496.955287 
L 150.15 180480.478538 
L 151.215625 180480.478538 
L 152.28125 180480.478538 
L 153.346875 180480.478538 
L 154.4125 180480.478538 
L 155.478125 180480.478538 
L 156.54375 180480.478538 
L 157.609375 180480.478538 
L 158.675 180480.478538 
L 159.740625 180480.478538 
L 160.80625 496.955287 
L 161.871875 496.955287 
L 162.9375 496.955287 
L 164.003125 496.955287 
L 165.06875 496.955287 
L 166.134375 496.955287 
L 167.2 496.955287 
L 168.265625 496.955287 
L 169.33125 496.955287 
L 170.396875 496.955287 
L 171.4625 496.955287 
L 172.528125 496.955287 
L 173.59375 496.955287 
L 174.659375 180480.478538 
L 175.725 180480.478538 
L 176.790625 180480.478538 
L 177.85625 180480.478538 
L 178.921875 180480.478538 
L 179.9875 180480.478538 
L 181.053125 180480.478538 
L 182.11875 180480.478538 
L 183.184375 180480.478538 
L 184.25 180480.478538 
L 185.315625 180480.478538 
L 186.38125 180480.478538 
L 187.446875 180480.478538 
L 188.5125 180480.478538 
L 189.578125 180480.478538 
L 190.64375 180480.478538 
L 191.709375 180480.478538 
L 192.775 180480.478538 
L 193.840625 180480.478538 
L 194.90625 180480.478538 
L 195.971875 180480.478538 
L 197.0375 180480.478538 
L 198.103125 180480.478538 
L 199.16875 180480.478538 
L 200.234375 180480.478538 
L 201.3 180480.478538 
L 202.365625 180480.478538 
L 203.43125 180480.478538 
L 204.496875 180480.478538 
L 205.5625 180480.478538 
L 206.628125 180480.478538 
L 207.69375 180480.478538 
L 208.759375 180480.478538 
L 209.825 180480.478538 
L 210.890625 180480.478538 
L 211.95625 180480.478538 
L 213.021875 180480.478538 
L 214.0875 180480.478538 
L 215.153125 180480.478538 
L 216.21875 180480.478538 
L 217.284375 180480.478538 
L 218.35 180480.478538 
L 219.415625 180480.478538 
L 220.48125 180480.478538 
L 221.546875 180480.478538 
L 222.6125 180480.478538 
L 223.678125 180480.478538 
L 224.74375 180480.478538 
L 225.809375 180480.478538 
L 226.875 180480.478538 
L 227.940625 180480.478538 
L 229.00625 180480.478538 
L 230.071875 180480.478538 
L 231.1375 180480.478538 
L 232.203125 180480.478538 
L 233.26875 180480.478538 
L 234.334375 180480.478538 
L 235.4 180480.478538 
L 236.465625 180480.478538 
L 237.53125 180480.478538 
L 238.596875 180480.478538 
L 239.6625 180480.478538 
L 240.728125 180480.478538 
L 241.79375 180480.478538 
L 242.859375 180480.478538 
L 243.925 180480.478538 
L 244.990625 496.955287 
L 246.05625 496.955287 
L 247.121875 496.955287 
L 248.1875 496.955287 
L 249.253125 496.955287 
L 250.31875 496.955287 
L 251.384375 496.955287 
L 252.45 496.955287 
L 253.515625 496.955287 
L 254.58125 496.955287 
L 255.646875 496.955287 
L 256.7125 496.955287 
L 257.778125 496.955287 
L 258.84375 496.955287 
L 259.909375 180480.478538 
L 260.975 180480.478538 
L 262.040625 180480.478538 
L 263.10625 180480.478538 
L 264.171875 180480.478538 
L 265.2375 180480.478538 
L 266.303125 180480.478538 
L 267.36875 180480.478538 
L 268.434375 180480.478538 
L 269.5 180480.478538 
L 270.565625 180480.478538 
L 271.63125 496.955287 
L 272.696875 469.071167 
L 273.7625 469.071167 
L 274.828125 469.071167 
L 275.89375 469.071167 
L 276.959375 469.071167 
L 278.025 469.071167 
L 279.090625 469.071167 
L 280.15625 469.071167 
L 281.221875 469.071167 
L 282.2875 469.071167 
L 283.353125 469.071167 
L 284.41875 469.071167 
L 285.484375 469.071167 
L 286.55 469.071167 
L 287.615625 469.071167 
L 288.68125 469.071167 
L 289.746875 469.071167 
L 290.8125 469.071167 
L 291.878125 469.071167 
L 292.94375 469.071167 
L 294.009375 469.071167 
L 295.075 469.071167 
L 296.140625 469.071167 
L 297.20625 469.071167 
L 298.271875 469.071167 
L 299.3375 469.071167 
L 300.403125 469.071167 
L 301.46875 496.955287 
L 302.534375 496.955287 
L 303.6 180480.478538 
L 304.665625 180480.478538 
L 305.73125 180480.478538 
L 306.796875 180480.478538 
L 307.8625 180480.478538 
L 308.928125 180480.478538 
L 309.99375 180480.478538 
L 311.059375 180480.478538 
L 312.125 180480.478538 
L 313.190625 180480.478538 
L 314.25625 180480.478538 
L 315.321875 180480.478538 
L 316.3875 180480.478538 
L 317.453125 180480.478538 
L 318.51875 180480.478538 
L 319.584375 180480.478538 
L 320.65 180480.478538 
L 321.715625 180480.478538 
L 322.78125 180480.478538 
L 323.846875 180480.478538 
L 324.9125 180480.478538 
L 325.978125 180480.478538 
L 327.04375 180480.478538 
L 328.109375 180480.478538 
L 329.175 180480.478538 
L 330.240625 180480.478538 
L 331.30625 180480.478538 
L 332.371875 180480.478538 
L 333.4375 180480.478538 
L 334.503125 180480.478538 
L 335.56875 180480.478538 
L 336.634375 180480.478538 
L 337.7 180480.478538 
L 338.765625 180480.478538 
L 339.83125 180480.478538 
L 340.896875 180480.478538 
L 341.9625 180480.478538 
L 343.028125 180480.478538 
L 344.09375 180480.478538 
L 345.159375 180480.478538 
L 346.225 180480.478538 
L 347.290625 180480.478538 
L 348.35625 180480.478538 
L 349.421875 496.955287 
L 350.4875 496.955287 
L 351.553125 496.955287 
L 352.61875 496.955287 
L 353.684375 496.955287 
L 354.75 496.955287 
L 355.815625 496.955287 
L 356.88125 496.955287 
L 357.946875 496.955287 
L 359.0125 496.955287 
L 360.078125 496.955287 
L 361.14375 496.955287 
L 362.209375 496.955287 
L 363.275 180480.478538 
L 364.340625 180480.478538 
L 365.40625 180480.478538 
L 366.471875 180480.478538 
L 367.5375 180480.478538 
L 368.603125 180480.478538 
L 369.66875 180480.478538 
L 370.734375 180480.478538 
L 371.8 180480.478538 
L 372.865625 180480.478538 
L 373.93125 180480.478538 
L 374.996875 180480.478538 
L 376.0625 180480.478538 
L 377.128125 180480.478538 
L 378.19375 180480.478538 
L 379.259375 180480.478538 
L 380.325 180480.478538 
L 381.390625 180480.478538 
L 382.45625 180480.478538 
L 383.521875 180480.478538 
L 384.5875 180480.478538 
L 385.653125 180480.478538 
L 386.71875 180480.478538 
L 387.784375 180480.478538 
L 388.85 180480.478538 
L 389.915625 180480.478538 
L 390.98125 180480.478538 
L 392.046875 180480.478538 
L 393.1125 180480.478538 
L 394.178125 180480.478538 
L 395.24375 180480.478538 
L 396.309375 180480.478538 
L 397.375 180480.478538 
L 398.440625 180480.478538 
L 399.50625 180480.478538 
L 400.571875 180480.478538 
L 401.6375 180480.478538 
L 402.703125 180480.478538 
L 403.76875 180480.478538 
L 404.834375 180480.478538 
L 405.9 180480.478538 
L 406.965625 180480.478538 
L 408.03125 180480.478538 
L 409.096875 180480.478538 
L 410.1625 180480.478538 
L 411.228125 180480.478538 
L 412.29375 180480.478538 
L 413.359375 180480.478538 
L 414.425 180480.478538 
L 415.490625 180480.478538 
L 416.55625 180480.478538 
L 417.621875 180480.478538 
L 418.6875 180480.478538 
L 419.753125 180480.478538 
L 420.81875 180480.478538 
L 421.884375 180480.478538 
L 422.95 180480.478538 
L 424.015625 180480.478538 
L 425.08125 180480.478538 
L 426.146875 180480.478538 
L 427.2125 180480.478538 
L 428.278125 180480.478538 
L 429.34375 180480.478538 
L 430.409375 180480.478538 
L 431.475 180480.478538 
L 432.540625 180480.478538 
L 433.60625 180480.478538 
L 434.671875 180480.478538 
L 435.7375 180480.478538 
L 436.803125 180480.478538 
L 437.86875 180480.478538 
L 438.934375 180480.478538 
L 440 180480.478538 
L 441.065625 180480.478538 
L 442.13125 180480.478538 
L 443.196875 180480.478538 
L 444.2625 180480.478538 
L 445.328125 180480.478538 
L 446.39375 180480.478538 
L 447.459375 180480.478538 
L 448.525 180480.478538 
L 449.590625 180480.478538 
L 450.65625 180480.478538 
L 451.721875 180480.478538 
L 452.7875 180480.478538 
L 453.853125 180480.478538 
L 454.91875 180480.478538 
L 455.984375 180480.478538 
L 457.05 180480.478538 
L 458.115625 180480.478538 
L 459.18125 180480.478538 
L 460.246875 180480.478538 
L 461.3125 180480.478538 
L 462.378125 180480.478538 
L 463.44375 180480.478538 
L 464.509375 180480.478538 
L 465.575 180480.478538 
L 466.640625 180480.478538 
L 467.70625 180480.478538 
L 468.771875 180480.478538 
L 469.8375 180480.478538 
L 470.903125 180480.478538 
L 471.96875 180480.478538 
L 473.034375 180480.478538 
L 474.1 180480.478538 
L 475.165625 180480.478538 
L 476.23125 180480.478538 
L 477.296875 180480.478538 
L 478.3625 180480.478538 
L 479.428125 180480.478538 
L 480.49375 180480.478538 
L 481.559375 180480.478538 
L 482.625 180480.478538 
L 483.690625 180480.478538 
L 484.75625 180480.478538 
L 485.821875 180480.478538 
L 486.8875 180480.478538 
L 487.953125 180480.478538 
L 489.01875 180480.478538 
L 490.084375 180480.478538 
L 491.15 180480.478538 
L 492.215625 180480.478538 
L 493.28125 180480.478538 
L 494.346875 180480.478538 
L 495.4125 180480.478538 
L 496.478125 180480.478538 
L 497.54375 180480.478538 
L 498.609375 180480.478538 
L 499.675 180480.478538 
L 500.740625 180480.478538 
L 501.80625 180480.478538 
L 502.871875 180480.478538 
L 503.9375 180480.478538 
L 505.003125 180480.478538 
L 506.06875 180480.478538 
L 507.134375 180480.478538 
L 508.2 180480.478538 
L 509.265625 180480.478538 
L 510.33125 180480.478538 
L 511.396875 180480.478538 
L 512.4625 180480.478538 
L 513.528125 180480.478538 
L 514.59375 180480.478538 
L 515.659375 180480.478538 
L 516.725 180480.478538 
L 517.790625 180480.478538 
L 518.85625 180480.478538 
L 519.921875 180480.478538 
L 520.9875 180480.478538 
L 522.053125 180480.478538 
L 523.11875 180480.478538 
L 524.184375 180480.478538 
L 525.25 180480.478538 
L 526.315625 180480.478538 
L 527.38125 180480.478538 
L 528.446875 180480.478538 
L 529.5125 180480.478538 
L 530.578125 180480.478538 
L 531.64375 180480.478538 
L 532.709375 180480.478538 
L 533.775 180480.478538 
L 534.840625 180480.478538 
L 535.90625 180480.478538 
L 536.971875 180480.478538 
L 538.0375 180480.478538 
L 539.103125 180480.478538 
L 540.16875 180480.478538 
L 541.234375 180480.478538 
L 542.3 180480.478538 
L 543.365625 180480.478538 
L 544.43125 180480.478538 
L 545.496875 180480.478538 
L 546.5625 180480.478538 
L 547.628125 180480.478538 
L 548.69375 180480.478538 
L 549.759375 180480.478538 
L 550.825 180480.478538 
L 551.890625 180480.478538 
L 552.95625 180480.478538 
L 554.021875 180480.478538 
L 555.0875 180480.478538 
L 556.153125 180480.478538 
L 557.21875 180480.478538 
L 558.284375 180480.478538 
L 559.35 180480.478538 
L 560.415625 180480.478538 
L 561.48125 180480.478538 
L 562.546875 180480.478538 
L 563.6125 180480.478538 
L 564.678125 180480.478538 
L 565.74375 180480.478538 
L 566.809375 180480.478538 
L 567.875 180480.478538 
L 568.940625 180480.478538 
L 570.00625 180480.478538 
L 571.071875 180480.478538 
L 572.1375 180480.478538 
L 573.203125 180480.478538 
L 574.26875 180480.478538 
L 575.334375 180480.478538 
L 576.4 180480.478538 
L 577.465625 180480.478538 
L 578.53125 180480.478538 
L 579.596875 180480.478538 
L 580.6625 180480.478538 
L 581.728125 180480.478538 
L 582.79375 180480.478538 
L 583.859375 180480.478538 
L 584.925 180480.478538 
L 585.990625 180480.478538 
L 587.05625 496.955287 
L 588.121875 496.955287 
L 589.1875 496.955287 
L 590.253125 496.955287 
L 591.31875 496.955287 
L 592.384375 496.955287 
L 593.45 496.955287 
L 594.515625 496.955287 
L 595.58125 496.955287 
L 596.646875 496.955287 
L 597.7125 496.955287 
L 598.778125 496.955287 
L 599.84375 496.955287 
L 600.909375 496.955287 
L 601.975 180480.478538 
L 603.040625 180480.478538 
L 604.10625 180480.478538 
L 605.171875 180480.478538 
L 606.2375 180480.478538 
L 607.303125 180480.478538 
L 608.36875 180480.478538 
L 609.434375 180480.478538 
L 610.5 180480.478538 
L 611.565625 180480.478538 
L 612.63125 180480.478538 
L 613.696875 180480.478538 
L 614.7625 180480.478538 
L 615.828125 180480.478538 
L 616.89375 180480.478538 
L 617.959375 180480.478538 
L 619.025 180480.478538 
L 620.090625 180480.478538 
L 621.15625 180480.478538 
L 622.221875 180480.478538 
L 623.2875 180480.478538 
L 624.353125 180480.478538 
L 625.41875 180480.478538 
L 626.484375 180480.478538 
L 627.55 180480.478538 
L 628.615625 180480.478538 
L 629.68125 180480.478538 
L 630.746875 180480.478538 
L 631.8125 180480.478538 
L 632.878125 180480.478538 
L 633.94375 496.955287 
L 635.009375 496.955287 
L 636.075 496.955287 
L 637.140625 496.955287 
L 638.20625 469.071167 
L 639.271875 427.587732 
L 640.3375 427.587732 
L 641.403125 469.071167 
L 642.46875 469.071167 
L 643.534375 469.071167 
L 644.6 469.071167 
L 645.665625 469.071167 
L 646.73125 469.071167 
L 647.796875 469.071167 
L 648.8625 469.071167 
L 649.928125 469.071167 
L 650.99375 469.071167 
L 652.059375 469.071167 
L 653.125 469.071167 
L 654.190625 496.955287 
L 655.25625 496.955287 
L 656.321875 496.955287 
L 657.3875 496.955287 
L 658.453125 496.955287 
L 659.51875 469.071167 
L 660.584375 469.071167 
L 661.65 400.628806 
L 662.715625 400.628806 
L 663.78125 400.628806 
L 664.846875 391.420769 
L 665.9125 391.420769 
L 666.978125 391.420769 
L 668.04375 391.420769 
L 669.109375 391.420769 
L 670.175 391.420769 
L 671.240625 414.882334 
L 672.30625 414.882334 
L 673.371875 414.882334 
L 674.4375 414.882334 
L 675.503125 414.882334 
L 676.56875 414.882334 
L 677.634375 414.882334 
L 678.7 414.882334 
L 679.765625 427.587732 
L 680.83125 427.587732 
L 681.896875 427.587732 
L 682.9625 391.420769 
L 684.028125 391.420769 
L 685.09375 400.628806 
L 686.159375 400.628806 
L 687.225 400.628806 
L 688.290625 400.628806 
L 689.35625 400.628806 
L 690.421875 400.628806 
L 691.4875 469.071167 
L 692.553125 427.587732 
L 693.61875 427.587732 
L 694.684375 427.587732 
L 695.75 427.587732 
L 696.815625 427.587732 
L 697.88125 469.071167 
L 698.946875 469.071167 
L 700.0125 469.071167 
L 701.078125 469.071167 
L 702.14375 469.071167 
L 703.209375 469.071167 
L 704.275 469.071167 
L 705.340625 469.071167 
L 706.40625 469.071167 
L 707.471875 469.071167 
L 708.5375 469.071167 
L 709.603125 469.071167 
L 710.66875 469.071167 
L 711.734375 469.071167 
L 712.8 469.071167 
L 712.8 180480.478538 
L 712.8 180480.478538 
L 711.734375 180480.478538 
L 710.66875 180480.478538 
L 709.603125 180480.478538 
L 708.5375 180480.478538 
L 707.471875 180480.478538 
L 706.40625 180480.478538 
L 705.340625 180480.478538 
L 704.275 180480.478538 
L 703.209375 180480.478538 
L 702.14375 180480.478538 
L 701.078125 180480.478538 
L 700.0125 180480.478538 
L 698.946875 180480.478538 
L 697.88125 180480.478538 
L 696.815625 180480.478538 
L 695.75 180480.478538 
L 694.684375 180480.478538 
L 693.61875 180480.478538 
L 692.553125 180480.478538 
L 691.4875 180480.478538 
L 690.421875 180480.478538 
L 689.35625 180480.478538 
L 688.290625 180480.478538 
L 687.225 180480.478538 
L 686.159375 180480.478538 
L 685.09375 180480.478538 
L 684.028125 180480.478538 
L 682.9625 180480.478538 
L 681.896875 180480.478538 
L 680.83125 180480.478538 
L 679.765625 180480.478538 
L 678.7 180480.478538 
L 677.634375 180480.478538 
L 676.56875 180480.478538 
L 675.503125 180480.478538 
L 674.4375 180480.478538 
L 673.371875 180480.478538 
L 672.30625 180480.478538 
L 671.240625 180480.478538 
L 670.175 180480.478538 
L 669.109375 180480.478538 
L 668.04375 180480.478538 
L 666.978125 180480.478538 
L 665.9125 180480.478538 
L 664.846875 180480.478538 
L 663.78125 180480.478538 
L 662.715625 180480.478538 
L 661.65 180480.478538 
L 660.584375 180480.478538 
L 659.51875 180480.478538 
L 658.453125 180480.478538 
L 657.3875 180480.478538 
L 656.321875 180480.478538 
L 655.25625 180480.478538 
L 654.190625 180480.478538 
L 653.125 180480.478538 
L 652.059375 180480.478538 
L 650.99375 180480.478538 
L 649.928125 180480.478538 
L 648.8625 180480.478538 
L 647.796875 180480.478538 
L 646.73125 180480.478538 
L 645.665625 180480.478538 
L 644.6 180480.478538 
L 643.534375 180480.478538 
L 642.46875 180480.478538 
L 641.403125 180480.478538 
L 640.3375 180480.478538 
L 639.271875 180480.478538 
L 638.20625 180480.478538 
L 637.140625 180480.478538 
L 636.075 180480.478538 
L 635.009375 180480.478538 
L 633.94375 180480.478538 
L 632.878125 180480.478538 
L 631.8125 180480.478538 
L 630.746875 180480.478538 
L 629.68125 180480.478538 
L 628.615625 180480.478538 
L 627.55 180480.478538 
L 626.484375 180480.478538 
L 625.41875 180480.478538 
L 624.353125 180480.478538 
L 623.2875 180480.478538 
L 622.221875 180480.478538 
L 621.15625 180480.478538 
L 620.090625 180480.478538 
L 619.025 180480.478538 
L 617.959375 180480.478538 
L 616.89375 180480.478538 
L 615.828125 180480.478538 
L 614.7625 180480.478538 
L 613.696875 180480.478538 
L 612.63125 180480.478538 
L 611.565625 180480.478538 
L 610.5 180480.478538 
L 609.434375 180480.478538 
L 608.36875 180480.478538 
L 607.303125 180480.478538 
L 606.2375 180480.478538 
L 605.171875 180480.478538 
L 604.10625 180480.478538 
L 603.040625 180480.478538 
L 601.975 180480.478538 
L 600.909375 180480.478538 
L 599.84375 180480.478538 
L 598.778125 180480.478538 
L 597.7125 180480.478538 
L 596.646875 180480.478538 
L 595.58125 180480.478538 
L 594.515625 180480.478538 
L 593.45 180480.478538 
L 592.384375 180480.478538 
L 591.31875 180480.478538 
L 590.253125 180480.478538 
L 589.1875 180480.478538 
L 588.121875 180480.478538 
L 587.05625 180480.478538 
L 585.990625 180480.478538 
L 584.925 180480.478538 
L 583.859375 180480.478538 
L 582.79375 180480.478538 
L 581.728125 180480.478538 
L 580.6625 180480.478538 
L 579.596875 180480.478538 
L 578.53125 180480.478538 
L 577.465625 180480.478538 
L 576.4 180480.478538 
L 575.334375 180480.478538 
L 574.26875 180480.478538 
L 573.203125 180480.478538 
L 572.1375 180480.478538 
L 571.071875 180480.478538 
L 570.00625 180480.478538 
L 568.940625 180480.478538 
L 567.875 180480.478538 
L 566.809375 180480.478538 
L 565.74375 180480.478538 
L 564.678125 180480.478538 
L 563.6125 180480.478538 
L 562.546875 180480.478538 
L 561.48125 180480.478538 
L 560.415625 180480.478538 
L 559.35 180480.478538 
L 558.284375 180480.478538 
L 557.21875 180480.478538 
L 556.153125 180480.478538 
L 555.0875 180480.478538 
L 554.021875 180480.478538 
L 552.95625 180480.478538 
L 551.890625 180480.478538 
L 550.825 180480.478538 
L 549.759375 180480.478538 
L 548.69375 180480.478538 
L 547.628125 180480.478538 
L 546.5625 180480.478538 
L 545.496875 180480.478538 
L 544.43125 180480.478538 
L 543.365625 180480.478538 
L 542.3 180480.478538 
L 541.234375 180480.478538 
L 540.16875 180480.478538 
L 539.103125 180480.478538 
L 538.0375 180480.478538 
L 536.971875 180480.478538 
L 535.90625 180480.478538 
L 534.840625 180480.478538 
L 533.775 180480.478538 
L 532.709375 180480.478538 
L 531.64375 180480.478538 
L 530.578125 180480.478538 
L 529.5125 180480.478538 
L 528.446875 180480.478538 
L 527.38125 180480.478538 
L 526.315625 180480.478538 
L 525.25 180480.478538 
L 524.184375 180480.478538 
L 523.11875 180480.478538 
L 522.053125 180480.478538 
L 520.9875 180480.478538 
L 519.921875 180480.478538 
L 518.85625 180480.478538 
L 517.790625 180480.478538 
L 516.725 180480.478538 
L 515.659375 180480.478538 
L 514.59375 180480.478538 
L 513.528125 180480.478538 
L 512.4625 180480.478538 
L 511.396875 180480.478538 
L 510.33125 180480.478538 
L 509.265625 180480.478538 
L 508.2 180480.478538 
L 507.134375 180480.478538 
L 506.06875 180480.478538 
L 505.003125 180480.478538 
L 503.9375 180480.478538 
L 502.871875 180480.478538 
L 501.80625 180480.478538 
L 500.740625 180480.478538 
L 499.675 180480.478538 
L 498.609375 180480.478538 
L 497.54375 180480.478538 
L 496.478125 180480.478538 
L 495.4125 180480.478538 
L 494.346875 180480.478538 
L 493.28125 180480.478538 
L 492.215625 180480.478538 
L 491.15 180480.478538 
L 490.084375 180480.478538 
L 489.01875 180480.478538 
L 487.953125 180480.478538 
L 486.8875 180480.478538 
L 485.821875 180480.478538 
L 484.75625 180480.478538 
L 483.690625 180480.478538 
L 482.625 180480.478538 
L 481.559375 180480.478538 
L 480.49375 180480.478538 
L 479.428125 180480.478538 
L 478.3625 180480.478538 
L 477.296875 180480.478538 
L 476.23125 180480.478538 
L 475.165625 180480.478538 
L 474.1 180480.478538 
L 473.034375 180480.478538 
L 471.96875 180480.478538 
L 470.903125 180480.478538 
L 469.8375 180480.478538 
L 468.771875 180480.478538 
L 467.70625 180480.478538 
L 466.640625 180480.478538 
L 465.575 180480.478538 
L 464.509375 180480.478538 
L 463.44375 180480.478538 
L 462.378125 180480.478538 
L 461.3125 180480.478538 
L 460.246875 180480.478538 
L 459.18125 180480.478538 
L 458.115625 180480.478538 
L 457.05 180480.478538 
L 455.984375 180480.478538 
L 454.91875 180480.478538 
L 453.853125 180480.478538 
L 452.7875 180480.478538 
L 451.721875 180480.478538 
L 450.65625 180480.478538 
L 449.590625 180480.478538 
L 448.525 180480.478538 
L 447.459375 180480.478538 
L 446.39375 180480.478538 
L 445.328125 180480.478538 
L 444.2625 180480.478538 
L 443.196875 180480.478538 
L 442.13125 180480.478538 
L 441.065625 180480.478538 
L 440 180480.478538 
L 438.934375 180480.478538 
L 437.86875 180480.478538 
L 436.803125 180480.478538 
L 435.7375 180480.478538 
L 434.671875 180480.478538 
L 433.60625 180480.478538 
L 432.540625 180480.478538 
L 431.475 180480.478538 
L 430.409375 180480.478538 
L 429.34375 180480.478538 
L 428.278125 180480.478538 
L 427.2125 180480.478538 
L 426.146875 180480.478538 
L 425.08125 180480.478538 
L 424.015625 180480.478538 
L 422.95 180480.478538 
L 421.884375 180480.478538 
L 420.81875 180480.478538 
L 419.753125 180480.478538 
L 418.6875 180480.478538 
L 417.621875 180480.478538 
L 416.55625 180480.478538 
L 415.490625 180480.478538 
L 414.425 180480.478538 
L 413.359375 180480.478538 
L 412.29375 180480.478538 
L 411.228125 180480.478538 
L 410.1625 180480.478538 
L 409.096875 180480.478538 
L 408.03125 180480.478538 
L 406.965625 180480.478538 
L 405.9 180480.478538 
L 404.834375 180480.478538 
L 403.76875 180480.478538 
L 402.703125 180480.478538 
L 401.6375 180480.478538 
L 400.571875 180480.478538 
L 399.50625 180480.478538 
L 398.440625 180480.478538 
L 397.375 180480.478538 
L 396.309375 180480.478538 
L 395.24375 180480.478538 
L 394.178125 180480.478538 
L 393.1125 180480.478538 
L 392.046875 180480.478538 
L 390.98125 180480.478538 
L 389.915625 180480.478538 
L 388.85 180480.478538 
L 387.784375 180480.478538 
L 386.71875 180480.478538 
L 385.653125 180480.478538 
L 384.5875 180480.478538 
L 383.521875 180480.478538 
L 382.45625 180480.478538 
L 381.390625 180480.478538 
L 380.325 180480.478538 
L 379.259375 180480.478538 
L 378.19375 180480.478538 
L 377.128125 180480.478538 
L 376.0625 180480.478538 
L 374.996875 180480.478538 
L 373.93125 180480.478538 
L 372.865625 180480.478538 
L 371.8 180480.478538 
L 370.734375 180480.478538 
L 369.66875 180480.478538 
L 368.603125 180480.478538 
L 367.5375 180480.478538 
L 366.471875 180480.478538 
L 365.40625 180480.478538 
L 364.340625 180480.478538 
L 363.275 180480.478538 
L 362.209375 180480.478538 
L 361.14375 180480.478538 
L 360.078125 180480.478538 
L 359.0125 180480.478538 
L 357.946875 180480.478538 
L 356.88125 180480.478538 
L 355.815625 180480.478538 
L 354.75 180480.478538 
L 353.684375 180480.478538 
L 352.61875 180480.478538 
L 351.553125 180480.478538 
L 350.4875 180480.478538 
L 349.421875 180480.478538 
L 348.35625 180480.478538 
L 347.290625 180480.478538 
L 346.225 180480.478538 
L 345.159375 180480.478538 
L 344.09375 180480.478538 
L 343.028125 180480.478538 
L 341.9625 180480.478538 
L 340.896875 180480.478538 
L 339.83125 180480.478538 
L 338.765625 180480.478538 
L 337.7 180480.478538 
L 336.634375 180480.478538 
L 335.56875 180480.478538 
L 334.503125 180480.478538 
L 333.4375 180480.478538 
L 332.371875 180480.478538 
L 331.30625 180480.478538 
L 330.240625 180480.478538 
L 329.175 180480.478538 
L 328.109375 180480.478538 
L 327.04375 180480.478538 
L 325.978125 180480.478538 
L 324.9125 180480.478538 
L 323.846875 180480.478538 
L 322.78125 180480.478538 
L 321.715625 180480.478538 
L 320.65 180480.478538 
L 319.584375 180480.478538 
L 318.51875 180480.478538 
L 317.453125 180480.478538 
L 316.3875 180480.478538 
L 315.321875 180480.478538 
L 314.25625 180480.478538 
L 313.190625 180480.478538 
L 312.125 180480.478538 
L 311.059375 180480.478538 
L 309.99375 180480.478538 
L 308.928125 180480.478538 
L 307.8625 180480.478538 
L 306.796875 180480.478538 
L 305.73125 180480.478538 
L 304.665625 180480.478538 
L 303.6 180480.478538 
L 302.534375 180480.478538 
L 301.46875 180480.478538 
L 300.403125 180480.478538 
L 299.3375 180480.478538 
L 298.271875 180480.478538 
L 297.20625 180480.478538 
L 296.140625 180480.478538 
L 295.075 180480.478538 
L 294.009375 180480.478538 
L 292.94375 180480.478538 
L 291.878125 180480.478538 
L 290.8125 180480.478538 
L 289.746875 180480.478538 
L 288.68125 180480.478538 
L 287.615625 180480.478538 
L 286.55 180480.478538 
L 285.484375 180480.478538 
L 284.41875 180480.478538 
L 283.353125 180480.478538 
L 282.2875 180480.478538 
L 281.221875 180480.478538 
L 280.15625 180480.478538 
L 279.090625 180480.478538 
L 278.025 180480.478538 
L 276.959375 180480.478538 
L 275.89375 180480.478538 
L 274.828125 180480.478538 
L 273.7625 180480.478538 
L 272.696875 180480.478538 
L 271.63125 180480.478538 
L 270.565625 180480.478538 
L 269.5 180480.478538 
L 268.434375 180480.478538 
L 267.36875 180480.478538 
L 266.303125 180480.478538 
L 265.2375 180480.478538 
L 264.171875 180480.478538 
L 263.10625 180480.478538 
L 262.040625 180480.478538 
L 260.975 180480.478538 
L 259.909375 180480.478538 
L 258.84375 180480.478538 
L 257.778125 180480.478538 
L 256.7125 180480.478538 
L 255.646875 180480.478538 
L 254.58125 180480.478538 
L 253.515625 180480.478538 
L 252.45 180480.478538 
L 251.384375 180480.478538 
L 250.31875 180480.478538 
L 249.253125 180480.478538 
L 248.1875 180480.478538 
L 247.121875 180480.478538 
L 246.05625 180480.478538 
L 244.990625 180480.478538 
L 243.925 180480.478538 
L 242.859375 180480.478538 
L 241.79375 180480.478538 
L 240.728125 180480.478538 
L 239.6625 180480.478538 
L 238.596875 180480.478538 
L 237.53125 180480.478538 
L 236.465625 180480.478538 
L 235.4 180480.478538 
L 234.334375 180480.478538 
L 233.26875 180480.478538 
L 232.203125 180480.478538 
L 231.1375 180480.478538 
L 230.071875 180480.478538 
L 229.00625 180480.478538 
L 227.940625 180480.478538 
L 226.875 180480.478538 
L 225.809375 180480.478538 
L 224.74375 180480.478538 
L 223.678125 180480.478538 
L 222.6125 180480.478538 
L 221.546875 180480.478538 
L 220.48125 180480.478538 
L 219.415625 180480.478538 
L 218.35 180480.478538 
L 217.284375 180480.478538 
L 216.21875 180480.478538 
L 215.153125 180480.478538 
L 214.0875 180480.478538 
L 213.021875 180480.478538 
L 211.95625 180480.478538 
L 210.890625 180480.478538 
L 209.825 180480.478538 
L 208.759375 180480.478538 
L 207.69375 180480.478538 
L 206.628125 180480.478538 
L 205.5625 180480.478538 
L 204.496875 180480.478538 
L 203.43125 180480.478538 
L 202.365625 180480.478538 
L 201.3 180480.478538 
L 200.234375 180480.478538 
L 199.16875 180480.478538 
L 198.103125 180480.478538 
L 197.0375 180480.478538 
L 195.971875 180480.478538 
L 194.90625 180480.478538 
L 193.840625 180480.478538 
L 192.775 180480.478538 
L 191.709375 180480.478538 
L 190.64375 180480.478538 
L 189.578125 180480.478538 
L 188.5125 180480.478538 
L 187.446875 180480.478538 
L 186.38125 180480.478538 
L 185.315625 180480.478538 
L 184.25 180480.478538 
L 183.184375 180480.478538 
L 182.11875 180480.478538 
L 181.053125 180480.478538 
L 179.9875 180480.478538 
L 178.921875 180480.478538 
L 177.85625 180480.478538 
L 176.790625 180480.478538 
L 175.725 180480.478538 
L 174.659375 180480.478538 
L 173.59375 180480.478538 
L 172.528125 180480.478538 
L 171.4625 180480.478538 
L 170.396875 180480.478538 
L 169.33125 180480.478538 
L 168.265625 180480.478538 
L 167.2 180480.478538 
L 166.134375 180480.478538 
L 165.06875 180480.478538 
L 164.003125 180480.478538 
L 162.9375 180480.478538 
L 161.871875 180480.478538 
L 160.80625 180480.478538 
L 159.740625 180480.478538 
L 158.675 180480.478538 
L 157.609375 180480.478538 
L 156.54375 180480.478538 
L 155.478125 180480.478538 
L 154.4125 180480.478538 
L 153.346875 180480.478538 
L 152.28125 180480.478538 
L 151.215625 180480.478538 
L 150.15 180480.478538 
L 149.084375 180480.478538 
L 148.01875 180480.478538 
L 146.953125 180480.478538 
L 145.8875 180480.478538 
L 144.821875 180480.478538 
L 143.75625 180480.478538 
L 142.690625 180480.478538 
L 141.625 180480.478538 
L 140.559375 180480.478538 
L 139.49375 180480.478538 
L 138.428125 180480.478538 
L 137.3625 180480.478538 
L 136.296875 180480.478538 
L 135.23125 180480.478538 
L 134.165625 180480.478538 
L 133.1 180480.478538 
L 132.034375 180480.478538 
L 130.96875 180480.478538 
L 129.903125 180480.478538 
L 128.8375 180480.478538 
L 127.771875 180480.478538 
L 126.70625 180480.478538 
L 125.640625 180480.478538 
L 124.575 180480.478538 
L 123.509375 180480.478538 
L 122.44375 180480.478538 
L 121.378125 180480.478538 
L 120.3125 180480.478538 
L 119.246875 180480.478538 
L 118.18125 180480.478538 
L 117.115625 180480.478538 
L 116.05 180480.478538 
L 114.984375 180480.478538 
L 113.91875 180480.478538 
L 112.853125 180480.478538 
L 111.7875 180480.478538 
L 110.721875 180480.478538 
L 109.65625 180480.478538 
L 108.590625 180480.478538 
L 107.525 180480.478538 
L 106.459375 180480.478538 
L 105.39375 180480.478538 
L 104.328125 180480.478538 
L 103.2625 180480.478538 
L 102.196875 180480.478538 
L 101.13125 180480.478538 
L 100.065625 180480.478538 
L 99 180480.478538 
z
" style="fill:#ff8080;fill-opacity:0.5;stroke:#ff8080;stroke-opacity:0.5;"/>
   </g>
   <g id="matplotlib.axis_1">
    <g id="xtick_1">
     <g id="line2d_1">
      <path clip-path="url(#p68e2955192)" d="M 99 544.68 
L 99 73.44 
" style="fill:none;stroke:#b0b0b0;stroke-linecap:square;stroke-width:0.8;"/>
     </g>
     <g id="line2d_2">
      <defs>
       <path d="M 0 0 
L 0 3.5 
" id="m4abed1d830" style="stroke:#000000;stroke-width:0.8;"/>
      </defs>
      <g>
       <use style="stroke:#000000;stroke-width:0.8;" x="99" xlink:href="#m4abed1d830" y="544.68"/>
      </g>
     </g>
    </g>
    <g id="xtick_2">
     <g id="line2d_3">
      <path clip-path="url(#p68e2955192)" d="M 118.18125 544.68 
L 118.18125 73.44 
" style="fill:none;stroke:#b0b0b0;stroke-linecap:square;stroke-width:0.8;"/>
     </g>
     <g id="line2d_4">
      <g>
       <use style="stroke:#000000;stroke-width:0.8;" x="118.18125" xlink:href="#m4abed1d830" y="544.68"/>
      </g>
     </g>
     <g id="text_1">
      <!-- Apr -->
      <g transform="translate(109.53125 559.278437)scale(0.1 -0.1)">
       <defs>
        <path d="M 2188 4044 
L 1331 1722 
L 3047 1722 
L 2188 4044 
z
M 1831 4666 
L 2547 4666 
L 4325 0 
L 3669 0 
L 3244 1197 
L 1141 1197 
L 716 0 
L 50 0 
L 1831 4666 
z
" id="DejaVuSans-41" transform="scale(0.015625)"/>
        <path d="M 1159 525 
L 1159 -1331 
L 581 -1331 
L 581 3500 
L 1159 3500 
L 1159 2969 
Q 1341 3281 1617 3432 
Q 1894 3584 2278 3584 
Q 2916 3584 3314 3078 
Q 3713 2572 3713 1747 
Q 3713 922 3314 415 
Q 2916 -91 2278 -91 
Q 1894 -91 1617 61 
Q 1341 213 1159 525 
z
M 3116 1747 
Q 3116 2381 2855 2742 
Q 2594 3103 2138 3103 
Q 1681 3103 1420 2742 
Q 1159 2381 1159 1747 
Q 1159 1113 1420 752 
Q 1681 391 2138 391 
Q 2594 391 2855 752 
Q 3116 1113 3116 1747 
z
" id="DejaVuSans-70" transform="scale(0.015625)"/>
        <path d="M 2631 2963 
Q 2534 3019 2420 3045 
Q 2306 3072 2169 3072 
Q 1681 3072 1420 2755 
Q 1159 2438 1159 1844 
L 1159 0 
L 581 0 
L 581 3500 
L 1159 3500 
L 1159 2956 
Q 1341 3275 1631 3429 
Q 1922 3584 2338 3584 
Q 2397 3584 2469 3576 
Q 2541 3569 2628 3553 
L 2631 2963 
z
" id="DejaVuSans-72" transform="scale(0.015625)"/>
       </defs>
       <use xlink:href="#DejaVuSans-41"/>
       <use x="68.408203" xlink:href="#DejaVuSans-70"/>
       <use x="131.884766" xlink:href="#DejaVuSans-72"/>
      </g>
     </g>
    </g>
    <g id="xtick_3">
     <g id="line2d_5">
      <path clip-path="url(#p68e2955192)" d="M 215.153125 544.68 
L 215.153125 73.44 
" style="fill:none;stroke:#b0b0b0;stroke-linecap:square;stroke-width:0.8;"/>
     </g>
     <g id="line2d_6">
      <g>
       <use style="stroke:#000000;stroke-width:0.8;" x="215.153125" xlink:href="#m4abed1d830" y="544.68"/>
      </g>
     </g>
     <g id="text_2">
      <!-- Jul -->
      <g transform="translate(209.120313 559.278437)scale(0.1 -0.1)">
       <defs>
        <path d="M 628 4666 
L 1259 4666 
L 1259 325 
Q 1259 -519 939 -900 
Q 619 -1281 -91 -1281 
L -331 -1281 
L -331 -750 
L -134 -750 
Q 284 -750 456 -515 
Q 628 -281 628 325 
L 628 4666 
z
" id="DejaVuSans-4a" transform="scale(0.015625)"/>
        <path d="M 544 1381 
L 544 3500 
L 1119 3500 
L 1119 1403 
Q 1119 906 1312 657 
Q 1506 409 1894 409 
Q 2359 409 2629 706 
Q 2900 1003 2900 1516 
L 2900 3500 
L 3475 3500 
L 3475 0 
L 2900 0 
L 2900 538 
Q 2691 219 2414 64 
Q 2138 -91 1772 -91 
Q 1169 -91 856 284 
Q 544 659 544 1381 
z
M 1991 3584 
L 1991 3584 
z
" id="DejaVuSans-75" transform="scale(0.015625)"/>
        <path d="M 603 4863 
L 1178 4863 
L 1178 0 
L 603 0 
L 603 4863 
z
" id="DejaVuSans-6c" transform="scale(0.015625)"/>
       </defs>
       <use xlink:href="#DejaVuSans-4a"/>
       <use x="29.492188" xlink:href="#DejaVuSans-75"/>
       <use x="92.871094" xlink:href="#DejaVuSans-6c"/>
      </g>
     </g>
    </g>
    <g id="xtick_4">
     <g id="line2d_7">
      <path clip-path="url(#p68e2955192)" d="M 313.190625 544.68 
L 313.190625 73.44 
" style="fill:none;stroke:#b0b0b0;stroke-linecap:square;stroke-width:0.8;"/>
     </g>
     <g id="line2d_8">
      <g>
       <use style="stroke:#000000;stroke-width:0.8;" x="313.190625" xlink:href="#m4abed1d830" y="544.68"/>
      </g>
     </g>
     <g id="text_3">
      <!-- Oct -->
      <g transform="translate(304.545312 559.278437)scale(0.1 -0.1)">
       <defs>
        <path d="M 2522 4238 
Q 1834 4238 1429 3725 
Q 1025 3213 1025 2328 
Q 1025 1447 1429 934 
Q 1834 422 2522 422 
Q 3209 422 3611 934 
Q 4013 1447 4013 2328 
Q 4013 3213 3611 3725 
Q 3209 4238 2522 4238 
z
M 2522 4750 
Q 3503 4750 4090 4092 
Q 4678 3434 4678 2328 
Q 4678 1225 4090 567 
Q 3503 -91 2522 -91 
Q 1538 -91 948 565 
Q 359 1222 359 2328 
Q 359 3434 948 4092 
Q 1538 4750 2522 4750 
z
" id="DejaVuSans-4f" transform="scale(0.015625)"/>
        <path d="M 3122 3366 
L 3122 2828 
Q 2878 2963 2633 3030 
Q 2388 3097 2138 3097 
Q 1578 3097 1268 2742 
Q 959 2388 959 1747 
Q 959 1106 1268 751 
Q 1578 397 2138 397 
Q 2388 397 2633 464 
Q 2878 531 3122 666 
L 3122 134 
Q 2881 22 2623 -34 
Q 2366 -91 2075 -91 
Q 1284 -91 818 406 
Q 353 903 353 1747 
Q 353 2603 823 3093 
Q 1294 3584 2113 3584 
Q 2378 3584 2631 3529 
Q 2884 3475 3122 3366 
z
" id="DejaVuSans-63" transform="scale(0.015625)"/>
        <path d="M 1172 4494 
L 1172 3500 
L 2356 3500 
L 2356 3053 
L 1172 3053 
L 1172 1153 
Q 1172 725 1289 603 
Q 1406 481 1766 481 
L 2356 481 
L 2356 0 
L 1766 0 
Q 1100 0 847 248 
Q 594 497 594 1153 
L 594 3053 
L 172 3053 
L 172 3500 
L 594 3500 
L 594 4494 
L 1172 4494 
z
" id="DejaVuSans-74" transform="scale(0.015625)"/>
       </defs>
       <use xlink:href="#DejaVuSans-4f"/>
       <use x="78.710938" xlink:href="#DejaVuSans-63"/>
       <use x="133.691406" xlink:href="#DejaVuSans-74"/>
      </g>
     </g>
    </g>
    <g id="xtick_5">
     <g id="line2d_9">
      <path clip-path="url(#p68e2955192)" d="M 411.228125 544.68 
L 411.228125 73.44 
" style="fill:none;stroke:#b0b0b0;stroke-linecap:square;stroke-width:0.8;"/>
     </g>
     <g id="line2d_10">
      <g>
       <use style="stroke:#000000;stroke-width:0.8;" x="411.228125" xlink:href="#m4abed1d830" y="544.68"/>
      </g>
     </g>
     <g id="text_4">
      <!-- Jan -->
      <g transform="translate(403.520313 559.278437)scale(0.1 -0.1)">
       <defs>
        <path d="M 2194 1759 
Q 1497 1759 1228 1600 
Q 959 1441 959 1056 
Q 959 750 1161 570 
Q 1363 391 1709 391 
Q 2188 391 2477 730 
Q 2766 1069 2766 1631 
L 2766 1759 
L 2194 1759 
z
M 3341 1997 
L 3341 0 
L 2766 0 
L 2766 531 
Q 2569 213 2275 61 
Q 1981 -91 1556 -91 
Q 1019 -91 701 211 
Q 384 513 384 1019 
Q 384 1609 779 1909 
Q 1175 2209 1959 2209 
L 2766 2209 
L 2766 2266 
Q 2766 2663 2505 2880 
Q 2244 3097 1772 3097 
Q 1472 3097 1187 3025 
Q 903 2953 641 2809 
L 641 3341 
Q 956 3463 1253 3523 
Q 1550 3584 1831 3584 
Q 2591 3584 2966 3190 
Q 3341 2797 3341 1997 
z
" id="DejaVuSans-61" transform="scale(0.015625)"/>
        <path d="M 3513 2113 
L 3513 0 
L 2938 0 
L 2938 2094 
Q 2938 2591 2744 2837 
Q 2550 3084 2163 3084 
Q 1697 3084 1428 2787 
Q 1159 2491 1159 1978 
L 1159 0 
L 581 0 
L 581 3500 
L 1159 3500 
L 1159 2956 
Q 1366 3272 1645 3428 
Q 1925 3584 2291 3584 
Q 2894 3584 3203 3211 
Q 3513 2838 3513 2113 
z
" id="DejaVuSans-6e" transform="scale(0.015625)"/>
       </defs>
       <use xlink:href="#DejaVuSans-4a"/>
       <use x="29.492188" xlink:href="#DejaVuSans-61"/>
       <use x="90.771484" xlink:href="#DejaVuSans-6e"/>
      </g>
      <!-- 2021 -->
      <g transform="translate(398.503125 570.47625)scale(0.1 -0.1)">
       <defs>
        <path d="M 1228 531 
L 3431 531 
L 3431 0 
L 469 0 
L 469 531 
Q 828 903 1448 1529 
Q 2069 2156 2228 2338 
Q 2531 2678 2651 2914 
Q 2772 3150 2772 3378 
Q 2772 3750 2511 3984 
Q 2250 4219 1831 4219 
Q 1534 4219 1204 4116 
Q 875 4013 500 3803 
L 500 4441 
Q 881 4594 1212 4672 
Q 1544 4750 1819 4750 
Q 2544 4750 2975 4387 
Q 3406 4025 3406 3419 
Q 3406 3131 3298 2873 
Q 3191 2616 2906 2266 
Q 2828 2175 2409 1742 
Q 1991 1309 1228 531 
z
" id="DejaVuSans-32" transform="scale(0.015625)"/>
        <path d="M 2034 4250 
Q 1547 4250 1301 3770 
Q 1056 3291 1056 2328 
Q 1056 1369 1301 889 
Q 1547 409 2034 409 
Q 2525 409 2770 889 
Q 3016 1369 3016 2328 
Q 3016 3291 2770 3770 
Q 2525 4250 2034 4250 
z
M 2034 4750 
Q 2819 4750 3233 4129 
Q 3647 3509 3647 2328 
Q 3647 1150 3233 529 
Q 2819 -91 2034 -91 
Q 1250 -91 836 529 
Q 422 1150 422 2328 
Q 422 3509 836 4129 
Q 1250 4750 2034 4750 
z
" id="DejaVuSans-30" transform="scale(0.015625)"/>
        <path d="M 794 531 
L 1825 531 
L 1825 4091 
L 703 3866 
L 703 4441 
L 1819 4666 
L 2450 4666 
L 2450 531 
L 3481 531 
L 3481 0 
L 794 0 
L 794 531 
z
" id="DejaVuSans-31" transform="scale(0.015625)"/>
       </defs>
       <use xlink:href="#DejaVuSans-32"/>
       <use x="63.623047" xlink:href="#DejaVuSans-30"/>
       <use x="127.246094" xlink:href="#DejaVuSans-32"/>
       <use x="190.869141" xlink:href="#DejaVuSans-31"/>
      </g>
     </g>
    </g>
    <g id="xtick_6">
     <g id="line2d_11">
      <path clip-path="url(#p68e2955192)" d="M 507.134375 544.68 
L 507.134375 73.44 
" style="fill:none;stroke:#b0b0b0;stroke-linecap:square;stroke-width:0.8;"/>
     </g>
     <g id="line2d_12">
      <g>
       <use style="stroke:#000000;stroke-width:0.8;" x="507.134375" xlink:href="#m4abed1d830" y="544.68"/>
      </g>
     </g>
     <g id="text_5">
      <!-- Apr -->
      <g transform="translate(498.484375 559.278437)scale(0.1 -0.1)">
       <use xlink:href="#DejaVuSans-41"/>
       <use x="68.408203" xlink:href="#DejaVuSans-70"/>
       <use x="131.884766" xlink:href="#DejaVuSans-72"/>
      </g>
     </g>
    </g>
    <g id="xtick_7">
     <g id="line2d_13">
      <path clip-path="url(#p68e2955192)" d="M 604.10625 544.68 
L 604.10625 73.44 
" style="fill:none;stroke:#b0b0b0;stroke-linecap:square;stroke-width:0.8;"/>
     </g>
     <g id="line2d_14">
      <g>
       <use style="stroke:#000000;stroke-width:0.8;" x="604.10625" xlink:href="#m4abed1d830" y="544.68"/>
      </g>
     </g>
     <g id="text_6">
      <!-- Jul -->
      <g transform="translate(598.073438 559.278437)scale(0.1 -0.1)">
       <use xlink:href="#DejaVuSans-4a"/>
       <use x="29.492188" xlink:href="#DejaVuSans-75"/>
       <use x="92.871094" xlink:href="#DejaVuSans-6c"/>
      </g>
     </g>
    </g>
    <g id="xtick_8">
     <g id="line2d_15">
      <path clip-path="url(#p68e2955192)" d="M 702.14375 544.68 
L 702.14375 73.44 
" style="fill:none;stroke:#b0b0b0;stroke-linecap:square;stroke-width:0.8;"/>
     </g>
     <g id="line2d_16">
      <g>
       <use style="stroke:#000000;stroke-width:0.8;" x="702.14375" xlink:href="#m4abed1d830" y="544.68"/>
      </g>
     </g>
     <g id="text_7">
      <!-- Oct -->
      <g transform="translate(693.498437 559.278437)scale(0.1 -0.1)">
       <use xlink:href="#DejaVuSans-4f"/>
       <use x="78.710938" xlink:href="#DejaVuSans-63"/>
       <use x="133.691406" xlink:href="#DejaVuSans-74"/>
      </g>
     </g>
    </g>
    <g id="xtick_9">
     <g id="line2d_17">
      <path clip-path="url(#p68e2955192)" d="M 712.8 544.68 
L 712.8 73.44 
" style="fill:none;stroke:#b0b0b0;stroke-linecap:square;stroke-width:0.8;"/>
     </g>
     <g id="line2d_18">
      <g>
       <use style="stroke:#000000;stroke-width:0.8;" x="712.8" xlink:href="#m4abed1d830" y="544.68"/>
      </g>
     </g>
    </g>
    <g id="xtick_10">
     <g id="line2d_19">
      <defs>
       <path d="M 0 0 
L 0 2 
" id="mbe9820739d" style="stroke:#000000;stroke-width:0.6;"/>
      </defs>
      <g>
       <use style="stroke:#000000;stroke-width:0.6;" x="150.15" xlink:href="#mbe9820739d" y="544.68"/>
      </g>
     </g>
    </g>
    <g id="xtick_11">
     <g id="line2d_20">
      <g>
       <use style="stroke:#000000;stroke-width:0.6;" x="183.184375" xlink:href="#mbe9820739d" y="544.68"/>
      </g>
     </g>
    </g>
    <g id="xtick_12">
     <g id="line2d_21">
      <g>
       <use style="stroke:#000000;stroke-width:0.6;" x="248.1875" xlink:href="#mbe9820739d" y="544.68"/>
      </g>
     </g>
    </g>
    <g id="xtick_13">
     <g id="line2d_22">
      <g>
       <use style="stroke:#000000;stroke-width:0.6;" x="281.221875" xlink:href="#mbe9820739d" y="544.68"/>
      </g>
     </g>
    </g>
    <g id="xtick_14">
     <g id="line2d_23">
      <g>
       <use style="stroke:#000000;stroke-width:0.6;" x="346.225" xlink:href="#mbe9820739d" y="544.68"/>
      </g>
     </g>
    </g>
    <g id="xtick_15">
     <g id="line2d_24">
      <g>
       <use style="stroke:#000000;stroke-width:0.6;" x="378.19375" xlink:href="#mbe9820739d" y="544.68"/>
      </g>
     </g>
    </g>
    <g id="xtick_16">
     <g id="line2d_25">
      <g>
       <use style="stroke:#000000;stroke-width:0.6;" x="444.2625" xlink:href="#mbe9820739d" y="544.68"/>
      </g>
     </g>
    </g>
    <g id="xtick_17">
     <g id="line2d_26">
      <g>
       <use style="stroke:#000000;stroke-width:0.6;" x="474.1" xlink:href="#mbe9820739d" y="544.68"/>
      </g>
     </g>
    </g>
    <g id="xtick_18">
     <g id="line2d_27">
      <g>
       <use style="stroke:#000000;stroke-width:0.6;" x="539.103125" xlink:href="#mbe9820739d" y="544.68"/>
      </g>
     </g>
    </g>
    <g id="xtick_19">
     <g id="line2d_28">
      <g>
       <use style="stroke:#000000;stroke-width:0.6;" x="572.1375" xlink:href="#mbe9820739d" y="544.68"/>
      </g>
     </g>
    </g>
    <g id="xtick_20">
     <g id="line2d_29">
      <g>
       <use style="stroke:#000000;stroke-width:0.6;" x="637.140625" xlink:href="#mbe9820739d" y="544.68"/>
      </g>
     </g>
    </g>
    <g id="xtick_21">
     <g id="line2d_30">
      <g>
       <use style="stroke:#000000;stroke-width:0.6;" x="670.175" xlink:href="#mbe9820739d" y="544.68"/>
      </g>
     </g>
    </g>
    <g id="text_8">
     <!-- Date -->
     <g transform="translate(393.949219 584.154375)scale(0.1 -0.1)">
      <defs>
       <path d="M 1259 4147 
L 1259 519 
L 2022 519 
Q 2988 519 3436 956 
Q 3884 1394 3884 2338 
Q 3884 3275 3436 3711 
Q 2988 4147 2022 4147 
L 1259 4147 
z
M 628 4666 
L 1925 4666 
Q 3281 4666 3915 4102 
Q 4550 3538 4550 2338 
Q 4550 1131 3912 565 
Q 3275 0 1925 0 
L 628 0 
L 628 4666 
z
" id="DejaVuSans-44" transform="scale(0.015625)"/>
       <path d="M 3597 1894 
L 3597 1613 
L 953 1613 
Q 991 1019 1311 708 
Q 1631 397 2203 397 
Q 2534 397 2845 478 
Q 3156 559 3463 722 
L 3463 178 
Q 3153 47 2828 -22 
Q 2503 -91 2169 -91 
Q 1331 -91 842 396 
Q 353 884 353 1716 
Q 353 2575 817 3079 
Q 1281 3584 2069 3584 
Q 2775 3584 3186 3129 
Q 3597 2675 3597 1894 
z
M 3022 2063 
Q 3016 2534 2758 2815 
Q 2500 3097 2075 3097 
Q 1594 3097 1305 2825 
Q 1016 2553 972 2059 
L 3022 2063 
z
" id="DejaVuSans-65" transform="scale(0.015625)"/>
      </defs>
      <use xlink:href="#DejaVuSans-44"/>
      <use x="77.001953" xlink:href="#DejaVuSans-61"/>
      <use x="138.28125" xlink:href="#DejaVuSans-74"/>
      <use x="177.490234" xlink:href="#DejaVuSans-65"/>
     </g>
    </g>
   </g>
   <g id="matplotlib.axis_2">
    <g id="ytick_1">
     <g id="line2d_31">
      <path clip-path="url(#p68e2955192)" d="M 99 469.071167 
L 712.8 469.071167 
" style="fill:none;stroke:#b0b0b0;stroke-linecap:square;stroke-width:0.8;"/>
     </g>
     <g id="line2d_32">
      <defs>
       <path d="M 0 0 
L -3.5 0 
" id="me91a084207" style="stroke:#000000;stroke-width:0.8;"/>
      </defs>
      <g>
       <use style="stroke:#000000;stroke-width:0.8;" x="99" xlink:href="#me91a084207" y="469.071167"/>
      </g>
     </g>
     <g id="text_9">
      <!-- $\mathdefault{10^{0}}$ -->
      <g transform="translate(74.4 472.870386)scale(0.1 -0.1)">
       <use transform="translate(0 0.765625)" xlink:href="#DejaVuSans-31"/>
       <use transform="translate(63.623047 0.765625)" xlink:href="#DejaVuSans-30"/>
       <use transform="translate(128.203125 39.046875)scale(0.7)" xlink:href="#DejaVuSans-30"/>
      </g>
     </g>
    </g>
    <g id="ytick_2">
     <g id="line2d_33">
      <path clip-path="url(#p68e2955192)" d="M 99 289.059759 
L 712.8 289.059759 
" style="fill:none;stroke:#b0b0b0;stroke-linecap:square;stroke-width:0.8;"/>
     </g>
     <g id="line2d_34">
      <g>
       <use style="stroke:#000000;stroke-width:0.8;" x="99" xlink:href="#me91a084207" y="289.059759"/>
      </g>
     </g>
     <g id="text_10">
      <!-- $\mathdefault{10^{1}}$ -->
      <g transform="translate(74.4 292.858978)scale(0.1 -0.1)">
       <use transform="translate(0 0.684375)" xlink:href="#DejaVuSans-31"/>
       <use transform="translate(63.623047 0.684375)" xlink:href="#DejaVuSans-30"/>
       <use transform="translate(128.203125 38.965625)scale(0.7)" xlink:href="#DejaVuSans-31"/>
      </g>
     </g>
    </g>
    <g id="ytick_3">
     <g id="line2d_35">
      <path clip-path="url(#p68e2955192)" d="M 99 109.048352 
L 712.8 109.048352 
" style="fill:none;stroke:#b0b0b0;stroke-linecap:square;stroke-width:0.8;"/>
     </g>
     <g id="line2d_36">
      <g>
       <use style="stroke:#000000;stroke-width:0.8;" x="99" xlink:href="#me91a084207" y="109.048352"/>
      </g>
     </g>
     <g id="text_11">
      <!-- $\mathdefault{10^{2}}$ -->
      <g transform="translate(74.4 112.847571)scale(0.1 -0.1)">
       <use transform="translate(0 0.765625)" xlink:href="#DejaVuSans-31"/>
       <use transform="translate(63.623047 0.765625)" xlink:href="#DejaVuSans-30"/>
       <use transform="translate(128.203125 39.046875)scale(0.7)" xlink:href="#DejaVuSans-32"/>
      </g>
     </g>
    </g>
    <g id="ytick_4">
     <g id="line2d_37">
      <path clip-path="url(#p68e2955192)" d="M 99 540.704908 
L 712.8 540.704908 
" style="fill:none;stroke:#b0b0b0;stroke-linecap:square;stroke-width:0.8;"/>
     </g>
     <g id="line2d_38">
      <defs>
       <path d="M 0 0 
L -2 0 
" id="m0cb60b688e" style="stroke:#000000;stroke-width:0.6;"/>
      </defs>
      <g>
       <use style="stroke:#000000;stroke-width:0.6;" x="99" xlink:href="#m0cb60b688e" y="540.704908"/>
      </g>
     </g>
    </g>
    <g id="ytick_5">
     <g id="line2d_39">
      <path clip-path="url(#p68e2955192)" d="M 99 523.26 
L 712.8 523.26 
" style="fill:none;stroke:#b0b0b0;stroke-linecap:square;stroke-width:0.8;"/>
     </g>
     <g id="line2d_40">
      <g>
       <use style="stroke:#000000;stroke-width:0.6;" x="99" xlink:href="#m0cb60b688e" y="523.26"/>
      </g>
     </g>
    </g>
    <g id="ytick_6">
     <g id="line2d_41">
      <path clip-path="url(#p68e2955192)" d="M 99 509.006472 
L 712.8 509.006472 
" style="fill:none;stroke:#b0b0b0;stroke-linecap:square;stroke-width:0.8;"/>
     </g>
     <g id="line2d_42">
      <g>
       <use style="stroke:#000000;stroke-width:0.6;" x="99" xlink:href="#m0cb60b688e" y="509.006472"/>
      </g>
     </g>
    </g>
    <g id="ytick_7">
     <g id="line2d_43">
      <path clip-path="url(#p68e2955192)" d="M 99 496.955287 
L 712.8 496.955287 
" style="fill:none;stroke:#b0b0b0;stroke-linecap:square;stroke-width:0.8;"/>
     </g>
     <g id="line2d_44">
      <g>
       <use style="stroke:#000000;stroke-width:0.6;" x="99" xlink:href="#m0cb60b688e" y="496.955287"/>
      </g>
     </g>
    </g>
    <g id="ytick_8">
     <g id="line2d_45">
      <path clip-path="url(#p68e2955192)" d="M 99 486.516075 
L 712.8 486.516075 
" style="fill:none;stroke:#b0b0b0;stroke-linecap:square;stroke-width:0.8;"/>
     </g>
     <g id="line2d_46">
      <g>
       <use style="stroke:#000000;stroke-width:0.6;" x="99" xlink:href="#m0cb60b688e" y="486.516075"/>
      </g>
     </g>
    </g>
    <g id="ytick_9">
     <g id="line2d_47">
      <path clip-path="url(#p68e2955192)" d="M 99 477.308037 
L 712.8 477.308037 
" style="fill:none;stroke:#b0b0b0;stroke-linecap:square;stroke-width:0.8;"/>
     </g>
     <g id="line2d_48">
      <g>
       <use style="stroke:#000000;stroke-width:0.6;" x="99" xlink:href="#m0cb60b688e" y="477.308037"/>
      </g>
     </g>
    </g>
    <g id="ytick_10">
     <g id="line2d_49">
      <path clip-path="url(#p68e2955192)" d="M 99 414.882334 
L 712.8 414.882334 
" style="fill:none;stroke:#b0b0b0;stroke-linecap:square;stroke-width:0.8;"/>
     </g>
     <g id="line2d_50">
      <g>
       <use style="stroke:#000000;stroke-width:0.6;" x="99" xlink:href="#m0cb60b688e" y="414.882334"/>
      </g>
     </g>
    </g>
    <g id="ytick_11">
     <g id="line2d_51">
      <path clip-path="url(#p68e2955192)" d="M 99 383.183898 
L 712.8 383.183898 
" style="fill:none;stroke:#b0b0b0;stroke-linecap:square;stroke-width:0.8;"/>
     </g>
     <g id="line2d_52">
      <g>
       <use style="stroke:#000000;stroke-width:0.6;" x="99" xlink:href="#m0cb60b688e" y="383.183898"/>
      </g>
     </g>
    </g>
    <g id="ytick_12">
     <g id="line2d_53">
      <path clip-path="url(#p68e2955192)" d="M 99 360.6935 
L 712.8 360.6935 
" style="fill:none;stroke:#b0b0b0;stroke-linecap:square;stroke-width:0.8;"/>
     </g>
     <g id="line2d_54">
      <g>
       <use style="stroke:#000000;stroke-width:0.6;" x="99" xlink:href="#m0cb60b688e" y="360.6935"/>
      </g>
     </g>
    </g>
    <g id="ytick_13">
     <g id="line2d_55">
      <path clip-path="url(#p68e2955192)" d="M 99 343.248593 
L 712.8 343.248593 
" style="fill:none;stroke:#b0b0b0;stroke-linecap:square;stroke-width:0.8;"/>
     </g>
     <g id="line2d_56">
      <g>
       <use style="stroke:#000000;stroke-width:0.6;" x="99" xlink:href="#m0cb60b688e" y="343.248593"/>
      </g>
     </g>
    </g>
    <g id="ytick_14">
     <g id="line2d_57">
      <path clip-path="url(#p68e2955192)" d="M 99 328.995065 
L 712.8 328.995065 
" style="fill:none;stroke:#b0b0b0;stroke-linecap:square;stroke-width:0.8;"/>
     </g>
     <g id="line2d_58">
      <g>
       <use style="stroke:#000000;stroke-width:0.6;" x="99" xlink:href="#m0cb60b688e" y="328.995065"/>
      </g>
     </g>
    </g>
    <g id="ytick_15">
     <g id="line2d_59">
      <path clip-path="url(#p68e2955192)" d="M 99 316.943879 
L 712.8 316.943879 
" style="fill:none;stroke:#b0b0b0;stroke-linecap:square;stroke-width:0.8;"/>
     </g>
     <g id="line2d_60">
      <g>
       <use style="stroke:#000000;stroke-width:0.6;" x="99" xlink:href="#m0cb60b688e" y="316.943879"/>
      </g>
     </g>
    </g>
    <g id="ytick_16">
     <g id="line2d_61">
      <path clip-path="url(#p68e2955192)" d="M 99 306.504667 
L 712.8 306.504667 
" style="fill:none;stroke:#b0b0b0;stroke-linecap:square;stroke-width:0.8;"/>
     </g>
     <g id="line2d_62">
      <g>
       <use style="stroke:#000000;stroke-width:0.6;" x="99" xlink:href="#m0cb60b688e" y="306.504667"/>
      </g>
     </g>
    </g>
    <g id="ytick_17">
     <g id="line2d_63">
      <path clip-path="url(#p68e2955192)" d="M 99 297.29663 
L 712.8 297.29663 
" style="fill:none;stroke:#b0b0b0;stroke-linecap:square;stroke-width:0.8;"/>
     </g>
     <g id="line2d_64">
      <g>
       <use style="stroke:#000000;stroke-width:0.6;" x="99" xlink:href="#m0cb60b688e" y="297.29663"/>
      </g>
     </g>
    </g>
    <g id="ytick_18">
     <g id="line2d_65">
      <path clip-path="url(#p68e2955192)" d="M 99 234.870926 
L 712.8 234.870926 
" style="fill:none;stroke:#b0b0b0;stroke-linecap:square;stroke-width:0.8;"/>
     </g>
     <g id="line2d_66">
      <g>
       <use style="stroke:#000000;stroke-width:0.6;" x="99" xlink:href="#m0cb60b688e" y="234.870926"/>
      </g>
     </g>
    </g>
    <g id="ytick_19">
     <g id="line2d_67">
      <path clip-path="url(#p68e2955192)" d="M 99 203.172491 
L 712.8 203.172491 
" style="fill:none;stroke:#b0b0b0;stroke-linecap:square;stroke-width:0.8;"/>
     </g>
     <g id="line2d_68">
      <g>
       <use style="stroke:#000000;stroke-width:0.6;" x="99" xlink:href="#m0cb60b688e" y="203.172491"/>
      </g>
     </g>
    </g>
    <g id="ytick_20">
     <g id="line2d_69">
      <path clip-path="url(#p68e2955192)" d="M 99 180.682093 
L 712.8 180.682093 
" style="fill:none;stroke:#b0b0b0;stroke-linecap:square;stroke-width:0.8;"/>
     </g>
     <g id="line2d_70">
      <g>
       <use style="stroke:#000000;stroke-width:0.6;" x="99" xlink:href="#m0cb60b688e" y="180.682093"/>
      </g>
     </g>
    </g>
    <g id="ytick_21">
     <g id="line2d_71">
      <path clip-path="url(#p68e2955192)" d="M 99 163.237185 
L 712.8 163.237185 
" style="fill:none;stroke:#b0b0b0;stroke-linecap:square;stroke-width:0.8;"/>
     </g>
     <g id="line2d_72">
      <g>
       <use style="stroke:#000000;stroke-width:0.6;" x="99" xlink:href="#m0cb60b688e" y="163.237185"/>
      </g>
     </g>
    </g>
    <g id="ytick_22">
     <g id="line2d_73">
      <path clip-path="url(#p68e2955192)" d="M 99 148.983658 
L 712.8 148.983658 
" style="fill:none;stroke:#b0b0b0;stroke-linecap:square;stroke-width:0.8;"/>
     </g>
     <g id="line2d_74">
      <g>
       <use style="stroke:#000000;stroke-width:0.6;" x="99" xlink:href="#m0cb60b688e" y="148.983658"/>
      </g>
     </g>
    </g>
    <g id="ytick_23">
     <g id="line2d_75">
      <path clip-path="url(#p68e2955192)" d="M 99 136.932472 
L 712.8 136.932472 
" style="fill:none;stroke:#b0b0b0;stroke-linecap:square;stroke-width:0.8;"/>
     </g>
     <g id="line2d_76">
      <g>
       <use style="stroke:#000000;stroke-width:0.6;" x="99" xlink:href="#m0cb60b688e" y="136.932472"/>
      </g>
     </g>
    </g>
    <g id="ytick_24">
     <g id="line2d_77">
      <path clip-path="url(#p68e2955192)" d="M 99 126.49326 
L 712.8 126.49326 
" style="fill:none;stroke:#b0b0b0;stroke-linecap:square;stroke-width:0.8;"/>
     </g>
     <g id="line2d_78">
      <g>
       <use style="stroke:#000000;stroke-width:0.6;" x="99" xlink:href="#m0cb60b688e" y="126.49326"/>
      </g>
     </g>
    </g>
    <g id="ytick_25">
     <g id="line2d_79">
      <path clip-path="url(#p68e2955192)" d="M 99 117.285222 
L 712.8 117.285222 
" style="fill:none;stroke:#b0b0b0;stroke-linecap:square;stroke-width:0.8;"/>
     </g>
     <g id="line2d_80">
      <g>
       <use style="stroke:#000000;stroke-width:0.6;" x="99" xlink:href="#m0cb60b688e" y="117.285222"/>
      </g>
     </g>
    </g>
   </g>
   <g id="line2d_81">
    <path clip-path="url(#p68e2955192)" d="M 121.377594 613 
L 121.378125 523.26 
L 121.378656 613 
M 123.508844 613 
L 123.509375 523.26 
L 124.575 469.071167 
L 125.640625 469.071167 
L 126.70625 437.372731 
L 127.771875 469.071167 
L 133.1 469.071167 
L 134.165625 523.26 
L 135.23125 523.26 
L 135.231781 613 
M 148.018219 613 
L 148.01875 523.26 
L 149.084375 523.26 
L 149.084906 613 
M 214.086969 613 
L 214.0875 523.26 
L 215.153125 469.071167 
L 216.21875 437.372731 
L 217.284375 414.882334 
L 218.35 437.372731 
L 219.415625 437.372731 
L 220.48125 414.882334 
L 221.546875 414.882334 
L 222.6125 397.437426 
L 224.74375 343.248593 
L 225.809375 328.995065 
L 226.875 328.995065 
L 227.940625 311.550157 
L 229.00625 289.059759 
L 230.071875 289.059759 
L 231.1375 274.806232 
L 232.203125 271.614852 
L 233.26875 262.755046 
L 238.596875 262.755046 
L 239.6625 271.614852 
L 240.728125 281.608604 
L 241.79375 285.245444 
L 242.859375 285.245444 
L 243.925 293.069765 
L 244.990625 289.059759 
L 246.05625 293.069765 
L 250.31875 293.069765 
L 251.384375 289.059759 
L 252.45 289.059759 
L 253.515625 274.806232 
L 255.646875 274.806232 
L 256.7125 260.011678 
L 257.778125 249.910169 
L 258.84375 240.965801 
L 259.909375 240.965801 
L 260.975 234.870926 
L 267.36875 234.870926 
L 268.434375 220.617399 
L 269.5 204.486437 
L 271.63125 204.486437 
L 272.696875 211.409361 
L 275.89375 211.409361 
L 276.959375 229.217044 
L 278.025 208.566213 
L 280.15625 208.566213 
L 281.221875 238.880931 
L 282.2875 293.069765 
L 283.353125 335.797437 
L 284.41875 343.248593 
L 285.484375 335.797437 
L 287.615625 335.797437 
L 288.68125 343.248593 
L 289.746875 335.797437 
L 290.8125 343.248593 
L 292.94375 343.248593 
L 294.009375 351.485463 
L 295.075 360.6935 
L 296.140625 343.248593 
L 298.271875 343.248593 
L 299.3375 328.995065 
L 300.403125 343.248593 
L 301.46875 343.248593 
L 302.534375 397.437426 
L 303.6 343.248593 
L 304.665625 343.248593 
L 305.73125 371.132712 
L 306.796875 328.995065 
L 309.99375 328.995065 
L 311.059375 371.132712 
L 313.190625 371.132712 
L 314.25625 523.26 
L 315.321875 469.071167 
L 316.3875 523.26 
L 317.453125 523.26 
L 317.453656 613 
M 320.649469 613 
L 320.65 523.26 
L 320.650531 613 
M 333.436969 613 
L 333.4375 523.26 
L 333.438031 613 
M 336.633844 613 
L 336.634375 523.26 
L 336.634906 613 
M 339.830719 613 
L 339.83125 523.26 
L 340.896875 523.26 
L 341.9625 437.372731 
L 343.028125 469.071167 
L 344.09375 414.882334 
L 348.35625 414.882334 
L 349.421875 397.437426 
L 350.4875 414.882334 
L 355.815625 414.882334 
L 356.88125 469.071167 
L 364.340625 469.071167 
L 365.40625 360.6935 
L 366.471875 316.943879 
L 367.5375 316.943879 
L 368.603125 306.504667 
L 369.66875 306.504667 
L 370.734375 301.765158 
L 372.865625 301.765158 
L 373.93125 316.943879 
L 374.996875 311.550157 
L 377.128125 311.550157 
L 378.19375 328.995065 
L 379.259375 328.995065 
L 380.325 343.248593 
L 381.390625 343.248593 
L 382.45625 371.132712 
L 383.521875 437.372731 
L 384.5875 414.882334 
L 385.653125 414.882334 
L 387.784375 274.806232 
L 388.85 240.965801 
L 389.915625 274.806232 
L 390.98125 274.806232 
L 392.046875 247.576325 
L 393.1125 236.850221 
L 394.178125 247.576325 
L 395.24375 236.850221 
L 398.440625 236.850221 
L 399.50625 247.576325 
L 400.571875 260.011678 
L 402.703125 260.011678 
L 403.76875 271.614852 
L 405.9 271.614852 
L 408.03125 285.245444 
L 409.096875 278.133456 
L 410.1625 278.133456 
L 411.228125 285.245444 
L 412.29375 301.765158 
L 413.359375 335.797437 
L 414.425 335.797437 
L 415.490625 397.437426 
L 415.491901 613 
M 436.801578 613 
L 436.803125 351.485463 
L 438.934375 351.485463 
L 440 289.059759 
L 441.065625 271.614852 
L 442.13125 271.614852 
L 443.196875 289.059759 
L 444.2625 271.614852 
L 445.328125 289.059759 
L 446.39375 316.943879 
L 447.459375 293.069765 
L 448.525 297.29663 
L 449.590625 316.943879 
L 450.65625 297.29663 
L 451.721875 316.943879 
L 459.18125 316.943879 
L 461.3125 328.995065 
L 462.378125 328.995065 
L 463.44375 306.504667 
L 464.509375 306.504667 
L 465.575 437.372731 
L 466.640625 371.132712 
L 467.70625 371.132712 
L 468.771875 316.943879 
L 469.8375 316.943879 
L 470.903125 371.132712 
L 471.96875 316.943879 
L 473.034375 316.943879 
L 474.1 371.132712 
L 475.165625 371.132712 
L 476.23125 316.943879 
L 477.296875 322.737489 
L 480.49375 322.737489 
L 481.559375 293.069765 
L 482.625 351.485463 
L 483.690625 351.485463 
L 484.75625 383.183898 
L 485.821875 328.995065 
L 486.8875 383.183898 
L 490.084375 383.183898 
L 490.085735 613 
M 551.889349 613 
L 551.890625 397.437426 
L 554.021875 397.437426 
L 554.023151 613 
M 559.348724 613 
L 559.35 397.437426 
L 560.415625 397.437426 
L 560.416901 613 
M 585.988945 613 
L 585.990625 328.995065 
L 588.121875 328.995065 
L 589.1875 274.806232 
L 593.45 274.806232 
L 594.515625 297.29663 
L 595.58125 335.797437 
L 599.84375 335.797437 
L 600.909375 351.485463 
L 601.975 351.485463 
L 603.040625 414.882334 
L 604.10625 414.882334 
L 604.107422 613 
M 617.957779 613 
L 617.959375 343.248593 
L 622.221875 343.248593 
L 623.2875 271.614852 
L 624.353125 271.614852 
L 625.41875 343.248593 
L 626.484375 271.614852 
L 627.55 343.248593 
L 630.746875 343.248593 
L 630.748471 613 
M 640.335659 613 
L 640.3375 301.765158 
L 641.403125 301.765158 
L 642.46875 225.662889 
L 645.665625 225.662889 
L 646.73125 200.609049 
L 648.8625 200.609049 
L 649.928125 174.12441 
L 653.125 174.12441 
L 654.190625 179.710926 
L 655.25625 158.681841 
L 656.321875 188.918963 
L 657.3875 293.069765 
L 658.453125 293.069765 
L 659.51875 188.918963 
L 660.584375 257.361324 
L 662.715625 257.361324 
L 663.78125 335.797437 
L 666.978125 335.797437 
L 666.979765 613 
M 669.107735 613 
L 669.109375 335.797437 
L 673.371875 335.797437 
L 673.373515 613 
M 682.960446 613 
L 682.9625 265.598194 
L 684.028125 351.485463 
L 684.029672 613 
M 687.223453 613 
L 687.225 351.485463 
L 689.35625 351.485463 
L 690.421875 262.755046 
L 693.61875 262.755046 
L 694.684375 351.485463 
L 697.88125 351.485463 
L 697.882797 613 
M 700.010608 613 
L 700.0125 293.069765 
L 700.014392 613 
M 709.601578 613 
L 709.603125 351.485463 
L 712.8 351.485463 
L 712.8 351.485463 
" style="fill:none;stroke:#1f77b4;stroke-linecap:square;stroke-width:1.5;"/>
   </g>
   <g id="line2d_82">
    <path clip-path="url(#p68e2955192)" d="M 0 0 
" style="fill:none;stroke:#ff7f0e;stroke-linecap:square;stroke-width:1.5;"/>
   </g>
   <g id="patch_3">
    <path d="M 99 544.68 
L 99 73.44 
" style="fill:none;stroke:#000000;stroke-linecap:square;stroke-linejoin:miter;stroke-width:0.8;"/>
   </g>
   <g id="patch_4">
    <path d="M 712.8 544.68 
L 712.8 73.44 
" style="fill:none;stroke:#000000;stroke-linecap:square;stroke-linejoin:miter;stroke-width:0.8;"/>
   </g>
   <g id="patch_5">
    <path d="M 99 544.68 
L 712.8 544.68 
" style="fill:none;stroke:#000000;stroke-linecap:square;stroke-linejoin:miter;stroke-width:0.8;"/>
   </g>
   <g id="patch_6">
    <path d="M 99 73.44 
L 712.8 73.44 
" style="fill:none;stroke:#000000;stroke-linecap:square;stroke-linejoin:miter;stroke-width:0.8;"/>
   </g>
   <g id="legend_1">
    <g id="patch_7">
     <path d="M 616.653125 110.79625 
L 705.8 110.79625 
Q 707.8 110.79625 707.8 108.79625 
L 707.8 80.44 
Q 707.8 78.44 705.8 78.44 
L 616.653125 78.44 
Q 614.653125 78.44 614.653125 80.44 
L 614.653125 108.79625 
Q 614.653125 110.79625 616.653125 110.79625 
z
" style="fill:#ffffff;opacity:0.8;stroke:#cccccc;stroke-linejoin:miter;"/>
    </g>
    <g id="line2d_83">
     <path d="M 618.653125 86.538437 
L 638.653125 86.538437 
" style="fill:none;stroke:#1f77b4;stroke-linecap:square;stroke-width:1.5;"/>
    </g>
    <g id="line2d_84"/>
    <g id="text_12">
     <!-- Avg Cases -->
     <g transform="translate(646.653125 90.038437)scale(0.1 -0.1)">
      <defs>
       <path d="M 191 3500 
L 800 3500 
L 1894 563 
L 2988 3500 
L 3597 3500 
L 2284 0 
L 1503 0 
L 191 3500 
z
" id="DejaVuSans-76" transform="scale(0.015625)"/>
       <path d="M 2906 1791 
Q 2906 2416 2648 2759 
Q 2391 3103 1925 3103 
Q 1463 3103 1205 2759 
Q 947 2416 947 1791 
Q 947 1169 1205 825 
Q 1463 481 1925 481 
Q 2391 481 2648 825 
Q 2906 1169 2906 1791 
z
M 3481 434 
Q 3481 -459 3084 -895 
Q 2688 -1331 1869 -1331 
Q 1566 -1331 1297 -1286 
Q 1028 -1241 775 -1147 
L 775 -588 
Q 1028 -725 1275 -790 
Q 1522 -856 1778 -856 
Q 2344 -856 2625 -561 
Q 2906 -266 2906 331 
L 2906 616 
Q 2728 306 2450 153 
Q 2172 0 1784 0 
Q 1141 0 747 490 
Q 353 981 353 1791 
Q 353 2603 747 3093 
Q 1141 3584 1784 3584 
Q 2172 3584 2450 3431 
Q 2728 3278 2906 2969 
L 2906 3500 
L 3481 3500 
L 3481 434 
z
" id="DejaVuSans-67" transform="scale(0.015625)"/>
       <path id="DejaVuSans-20" transform="scale(0.015625)"/>
       <path d="M 4122 4306 
L 4122 3641 
Q 3803 3938 3442 4084 
Q 3081 4231 2675 4231 
Q 1875 4231 1450 3742 
Q 1025 3253 1025 2328 
Q 1025 1406 1450 917 
Q 1875 428 2675 428 
Q 3081 428 3442 575 
Q 3803 722 4122 1019 
L 4122 359 
Q 3791 134 3420 21 
Q 3050 -91 2638 -91 
Q 1578 -91 968 557 
Q 359 1206 359 2328 
Q 359 3453 968 4101 
Q 1578 4750 2638 4750 
Q 3056 4750 3426 4639 
Q 3797 4528 4122 4306 
z
" id="DejaVuSans-43" transform="scale(0.015625)"/>
       <path d="M 2834 3397 
L 2834 2853 
Q 2591 2978 2328 3040 
Q 2066 3103 1784 3103 
Q 1356 3103 1142 2972 
Q 928 2841 928 2578 
Q 928 2378 1081 2264 
Q 1234 2150 1697 2047 
L 1894 2003 
Q 2506 1872 2764 1633 
Q 3022 1394 3022 966 
Q 3022 478 2636 193 
Q 2250 -91 1575 -91 
Q 1294 -91 989 -36 
Q 684 19 347 128 
L 347 722 
Q 666 556 975 473 
Q 1284 391 1588 391 
Q 1994 391 2212 530 
Q 2431 669 2431 922 
Q 2431 1156 2273 1281 
Q 2116 1406 1581 1522 
L 1381 1569 
Q 847 1681 609 1914 
Q 372 2147 372 2553 
Q 372 3047 722 3315 
Q 1072 3584 1716 3584 
Q 2034 3584 2315 3537 
Q 2597 3491 2834 3397 
z
" id="DejaVuSans-73" transform="scale(0.015625)"/>
      </defs>
      <use xlink:href="#DejaVuSans-41"/>
      <use x="62.533203" xlink:href="#DejaVuSans-76"/>
      <use x="121.712891" xlink:href="#DejaVuSans-67"/>
      <use x="185.189453" xlink:href="#DejaVuSans-20"/>
      <use x="216.976562" xlink:href="#DejaVuSans-43"/>
      <use x="286.800781" xlink:href="#DejaVuSans-61"/>
      <use x="348.080078" xlink:href="#DejaVuSans-73"/>
      <use x="400.179688" xlink:href="#DejaVuSans-65"/>
      <use x="461.703125" xlink:href="#DejaVuSans-73"/>
     </g>
    </g>
    <g id="line2d_85">
     <path d="M 618.653125 101.216562 
L 638.653125 101.216562 
" style="fill:none;stroke:#ff7f0e;stroke-linecap:square;stroke-width:1.5;"/>
    </g>
    <g id="line2d_86"/>
    <g id="text_13">
     <!-- Avg Deaths -->
     <g transform="translate(646.653125 104.716562)scale(0.1 -0.1)">
      <defs>
       <path d="M 3513 2113 
L 3513 0 
L 2938 0 
L 2938 2094 
Q 2938 2591 2744 2837 
Q 2550 3084 2163 3084 
Q 1697 3084 1428 2787 
Q 1159 2491 1159 1978 
L 1159 0 
L 581 0 
L 581 4863 
L 1159 4863 
L 1159 2956 
Q 1366 3272 1645 3428 
Q 1925 3584 2291 3584 
Q 2894 3584 3203 3211 
Q 3513 2838 3513 2113 
z
" id="DejaVuSans-68" transform="scale(0.015625)"/>
      </defs>
      <use xlink:href="#DejaVuSans-41"/>
      <use x="62.533203" xlink:href="#DejaVuSans-76"/>
      <use x="121.712891" xlink:href="#DejaVuSans-67"/>
      <use x="185.189453" xlink:href="#DejaVuSans-20"/>
      <use x="216.976562" xlink:href="#DejaVuSans-44"/>
      <use x="293.978516" xlink:href="#DejaVuSans-65"/>
      <use x="355.501953" xlink:href="#DejaVuSans-61"/>
      <use x="416.78125" xlink:href="#DejaVuSans-74"/>
      <use x="455.990234" xlink:href="#DejaVuSans-68"/>
      <use x="519.369141" xlink:href="#DejaVuSans-73"/>
     </g>
    </g>
   </g>
  </g>
 </g>
 <defs>
  <clipPath id="p68e2955192">
   <rect height="471.24" width="613.8" x="99" y="73.44"/>
  </clipPath>
 </defs>
</svg>
