<?xml version="1.0" encoding="utf-8" standalone="no"?>
<!DOCTYPE svg PUBLIC "-//W3C//DTD SVG 1.1//EN"
  "http://www.w3.org/Graphics/SVG/1.1/DTD/svg11.dtd">
<svg height="612pt" version="1.1" viewBox="0 0 792 612" width="792pt" xmlns="http://www.w3.org/2000/svg" xmlns:xlink="http://www.w3.org/1999/xlink">
 <metadata>
  <rdf:RDF xmlns:cc="http://creativecommons.org/ns#" xmlns:dc="http://purl.org/dc/elements/1.1/" xmlns:rdf="http://www.w3.org/1999/02/22-rdf-syntax-ns#">
   <cc:Work>
    <dc:type rdf:resource="http://purl.org/dc/dcmitype/StillImage"/>
    <dc:format>image/svg+xml</dc:format>
    <dc:creator>
     <cc:Agent>
      <dc:title>Matplotlib v3.4.2, https://matplotlib.org/</dc:title>
     </cc:Agent>
    </dc:creator>
   </cc:Work>
  </rdf:RDF>
 </metadata>
 <defs>
  <style type="text/css">*{stroke-linecap:butt;stroke-linejoin:round;}</style>
 </defs>
 <g id="figure_1">
  <g id="patch_1">
   <path d="M 0 612 
L 792 612 
L 792 0 
L 0 0 
z
" style="fill:#ffffff;"/>
  </g>
  <g id="axes_1">
   <g id="patch_2">
    <path d="M 99 544.68 
L 712.8 544.68 
L 712.8 73.44 
L 99 73.44 
z
" style="fill:#ffffff;"/>
   </g>
   <g id="PolyCollection_1">
    <path clip-path="url(#p68e2955192)" d="M 99 180480.478538 
L 99 180480.478538 
L 100.189535 180480.478538 
L 101.37907 180480.478538 
L 102.568605 180480.478538 
L 103.75814 180480.478538 
L 104.947674 180480.478538 
L 106.137209 180480.478538 
L 107.326744 180480.478538 
L 108.516279 180480.478538 
L 109.705814 180480.478538 
L 110.895349 180480.478538 
L 112.084884 180480.478538 
L 113.274419 180480.478538 
L 114.463953 391.420769 
L 115.653488 391.420769 
L 116.843023 366.788375 
L 118.032558 327.702838 
L 119.222093 327.702838 
L 120.411628 327.702838 
L 121.601163 316.943879 
L 122.790698 316.943879 
L 123.980233 316.943879 
L 125.169767 327.702838 
L 126.359302 327.702838 
L 127.548837 327.702838 
L 128.738372 327.702838 
L 129.927907 327.702838 
L 131.117442 327.702838 
L 132.306977 327.702838 
L 133.496512 327.702838 
L 134.686047 360.6935 
L 135.875581 360.6935 
L 137.065116 360.6935 
L 138.254651 373.398899 
L 139.444186 373.398899 
L 140.633721 414.882334 
L 141.823256 414.882334 
L 143.012791 427.587732 
L 144.202326 427.587732 
L 145.39186 427.587732 
L 146.581395 469.071167 
L 147.77093 469.071167 
L 148.960465 427.587732 
L 150.15 414.882334 
L 151.339535 414.882334 
L 152.52907 414.882334 
L 153.718605 391.420769 
L 154.90814 391.420769 
L 156.097674 391.420769 
L 157.287209 391.420769 
L 158.476744 391.420769 
L 159.666279 391.420769 
L 160.855814 391.420769 
L 162.045349 391.420769 
L 163.234884 391.420769 
L 164.424419 391.420769 
L 165.613953 391.420769 
L 166.803488 391.420769 
L 167.993023 391.420769 
L 169.182558 427.587732 
L 170.372093 496.955287 
L 171.561628 496.955287 
L 172.751163 496.955287 
L 173.940698 496.955287 
L 175.130233 496.955287 
L 176.319767 496.955287 
L 177.509302 496.955287 
L 178.698837 496.955287 
L 179.888372 180480.478538 
L 181.077907 180480.478538 
L 182.267442 180480.478538 
L 183.456977 180480.478538 
L 184.646512 180480.478538 
L 185.836047 180480.478538 
L 187.025581 180480.478538 
L 188.215116 180480.478538 
L 189.404651 180480.478538 
L 190.594186 180480.478538 
L 191.783721 180480.478538 
L 192.973256 180480.478538 
L 194.162791 180480.478538 
L 195.352326 496.955287 
L 196.54186 496.955287 
L 197.731395 496.955287 
L 198.92093 496.955287 
L 200.110465 496.955287 
L 201.3 496.955287 
L 202.489535 469.071167 
L 203.67907 469.071167 
L 204.868605 469.071167 
L 206.05814 469.071167 
L 207.247674 496.955287 
L 208.437209 469.071167 
L 209.626744 469.071167 
L 210.816279 469.071167 
L 212.005814 496.955287 
L 213.195349 469.071167 
L 214.384884 469.071167 
L 215.574419 469.071167 
L 216.763953 469.071167 
L 217.953488 469.071167 
L 219.143023 427.587732 
L 220.332558 414.882334 
L 221.522093 414.882334 
L 222.711628 414.882334 
L 223.901163 414.882334 
L 225.090698 414.882334 
L 226.280233 414.882334 
L 227.469767 391.420769 
L 228.659302 391.420769 
L 229.848837 341.700464 
L 231.038372 328.995065 
L 232.227907 328.995065 
L 233.417442 328.995065 
L 234.606977 328.995065 
L 235.796512 328.995065 
L 236.986047 282.322563 
L 238.175581 276.120178 
L 239.365116 264.448498 
L 240.554651 262.755046 
L 241.744186 236.450333 
L 242.933721 236.450333 
L 244.123256 220.292334 
L 245.312791 220.292334 
L 246.502326 220.292334 
L 247.69186 220.292334 
L 248.881395 220.292334 
L 250.07093 220.292334 
L 251.260465 220.292334 
L 252.45 220.292334 
L 253.639535 215.267121 
L 254.82907 215.267121 
L 256.018605 215.267121 
L 257.20814 215.267121 
L 258.397674 219.968615 
L 259.587209 219.968615 
L 260.776744 242.243943 
L 261.966279 242.243943 
L 263.155814 242.243943 
L 264.345349 239.293481 
L 265.534884 238.062307 
L 266.724419 238.062307 
L 267.913953 234.48101 
L 269.103488 223.605455 
L 270.293023 223.605455 
L 271.482558 223.605455 
L 272.672093 223.605455 
L 273.861628 223.605455 
L 275.051163 223.605455 
L 276.240698 209.974863 
L 277.430233 190.454064 
L 278.619767 190.454064 
L 279.809302 155.078532 
L 280.998837 155.078532 
L 282.188372 155.078532 
L 283.377907 155.078532 
L 284.567442 155.078532 
L 285.756977 155.078532 
L 286.946512 155.928301 
L 288.136047 153.820951 
L 289.325581 143.451076 
L 290.515116 143.451076 
L 291.704651 143.451076 
L 292.894186 143.451076 
L 294.083721 151.904057 
L 295.273256 151.904057 
L 296.462791 173.587102 
L 297.652326 173.587102 
L 298.84186 161.230533 
L 300.031395 161.230533 
L 301.22093 161.230533 
L 302.410465 161.230533 
L 303.6 161.230533 
L 304.789535 161.230533 
L 305.97907 178.561229 
L 307.168605 178.561229 
L 308.35814 178.561229 
L 309.547674 178.561229 
L 310.737209 187.626736 
L 311.926744 187.626736 
L 313.116279 251.828742 
L 314.305814 251.828742 
L 315.495349 251.828742 
L 316.684884 251.828742 
L 317.874419 251.828742 
L 319.063953 251.828742 
L 320.253488 251.828742 
L 321.443023 251.828742 
L 322.632558 241.38953 
L 323.822093 245.310138 
L 325.011628 248.037553 
L 326.201163 248.037553 
L 327.390698 248.037553 
L 328.580233 248.037553 
L 329.769767 248.037553 
L 330.959302 248.037553 
L 332.148837 248.037553 
L 333.338372 248.037553 
L 334.527907 248.037553 
L 335.717442 248.037553 
L 336.906977 248.037553 
L 338.096512 248.037553 
L 339.286047 274.806232 
L 340.475581 274.806232 
L 341.665116 280.901106 
L 342.854651 280.901106 
L 344.044186 283.043102 
L 345.233721 312.599542 
L 346.423256 312.599542 
L 347.612791 326.431624 
L 348.802326 427.587732 
L 349.99186 427.587732 
L 351.181395 427.587732 
L 352.37093 391.420769 
L 353.560465 391.420769 
L 354.75 427.587732 
L 355.939535 427.587732 
L 357.12907 391.420769 
L 358.318605 391.420769 
L 359.50814 391.420769 
L 360.697674 391.420769 
L 361.887209 391.420769 
L 363.076744 341.700464 
L 364.266279 341.700464 
L 365.455814 341.700464 
L 366.645349 341.700464 
L 367.834884 341.700464 
L 369.024419 341.700464 
L 370.213953 341.700464 
L 371.403488 341.700464 
L 372.593023 328.995065 
L 373.782558 305.5335 
L 374.972093 305.5335 
L 376.161628 305.5335 
L 377.351163 297.29663 
L 378.540698 297.29663 
L 379.730233 297.29663 
L 380.919767 297.29663 
L 382.109302 271.614852 
L 383.298837 271.614852 
L 384.488372 271.614852 
L 385.677907 271.614852 
L 386.867442 271.614852 
L 388.056977 271.614852 
L 389.246512 264.448498 
L 390.436047 276.120178 
L 391.625581 276.120178 
L 392.815116 276.120178 
L 394.004651 260.552704 
L 395.194186 260.552704 
L 396.383721 260.552704 
L 397.573256 260.552704 
L 398.762791 268.548656 
L 399.952326 268.548656 
L 401.14186 268.548656 
L 402.331395 264.448498 
L 403.52093 264.448498 
L 404.710465 264.448498 
L 405.9 264.448498 
L 407.089535 255.303891 
L 408.27907 255.303891 
L 409.468605 255.303891 
L 410.65814 264.448498 
L 411.847674 245.310138 
L 413.037209 245.310138 
L 414.226744 225.662889 
L 415.416279 225.662889 
L 416.605814 225.662889 
L 417.795349 197.155834 
L 418.984884 192.246187 
L 420.174419 192.246187 
L 421.363953 189.573176 
L 422.553488 184.486637 
L 423.743023 184.486637 
L 424.932558 184.486637 
L 426.122093 184.486637 
L 427.311628 184.486637 
L 428.501163 189.573176 
L 429.690698 170.096435 
L 430.880233 170.096435 
L 432.069767 170.096435 
L 433.259302 170.096435 
L 434.448837 170.610202 
L 435.638372 170.610202 
L 436.827907 170.610202 
L 438.017442 177.615898 
L 439.206977 228.493169 
L 440.396512 228.493169 
L 441.586047 228.493169 
L 442.775581 228.493169 
L 443.965116 232.940508 
L 445.154651 207.733047 
L 446.344186 228.493169 
L 447.533721 235.656641 
L 448.723256 235.656641 
L 449.912791 235.656641 
L 451.102326 235.656641 
L 452.29186 235.656641 
L 453.481395 235.656641 
L 454.67093 241.815569 
L 455.860465 249.910169 
L 457.05 249.910169 
L 458.239535 249.910169 
L 459.42907 249.910169 
L 460.618605 208.566213 
L 461.80814 249.910169 
L 462.997674 333.00507 
L 464.187209 356.879185 
L 465.376744 180480.478538 
L 466.566279 141.769765 
L 467.755814 141.769765 
L 468.945349 133.973738 
L 470.134884 133.973738 
L 471.324419 133.973738 
L 472.513953 133.973738 
L 473.703488 133.973738 
L 474.893023 133.973738 
L 476.082558 133.973738 
L 477.272093 223.944623 
L 478.461628 223.944623 
L 479.651163 223.944623 
L 480.840698 223.944623 
L 482.030233 223.944623 
L 483.219767 224.971044 
L 484.409302 223.944623 
L 485.598837 224.971044 
L 486.788372 227.065222 
L 487.977907 227.065222 
L 489.167442 227.065222 
L 490.356977 233.706965 
L 491.546512 230.315582 
L 492.736047 230.315582 
L 493.925581 241.38953 
L 495.115116 241.38953 
L 496.304651 236.05248 
L 497.494186 234.870926 
L 498.683721 234.870926 
L 499.873256 234.870926 
L 501.062791 236.05248 
L 502.252326 236.05248 
L 503.44186 236.05248 
L 504.631395 236.05248 
L 505.82093 236.05248 
L 507.010465 236.05248 
L 508.2 236.05248 
L 509.389535 236.05248 
L 510.57907 238.470547 
L 511.768605 234.870926 
L 512.95814 238.470547 
L 514.147674 247.576325 
L 515.337209 247.576325 
L 516.526744 247.576325 
L 517.716279 253.299218 
L 518.905814 253.299218 
L 520.095349 206.09289 
L 521.284884 206.09289 
L 522.474419 209.408353 
L 523.663953 209.408353 
L 524.853488 209.408353 
L 526.043023 196.196583 
L 527.232558 196.196583 
L 528.422093 217.739357 
L 529.611628 219.646231 
L 530.801163 219.646231 
L 531.990698 219.646231 
L 533.180233 219.646231 
L 534.369767 219.646231 
L 535.559302 219.646231 
L 536.748837 283.770344 
L 537.938372 283.770344 
L 539.127907 293.069765 
L 540.317442 293.069765 
L 541.506977 293.069765 
L 542.696512 328.995065 
L 543.886047 328.995065 
L 545.075581 328.995065 
L 546.265116 351.485463 
L 547.454651 306.504667 
L 548.644186 272.24279 
L 549.833721 272.24279 
L 551.023256 272.24279 
L 552.212791 272.24279 
L 553.402326 272.24279 
L 554.59186 272.24279 
L 555.781395 272.24279 
L 556.97093 272.24279 
L 558.160465 272.24279 
L 559.35 201.880264 
L 560.539535 201.880264 
L 561.72907 272.24279 
L 562.918605 227.065222 
L 564.10814 227.065222 
L 565.297674 234.870926 
L 566.487209 242.243943 
L 567.676744 212.282867 
L 568.866279 212.282867 
L 570.055814 212.282867 
L 571.245349 212.282867 
L 572.434884 212.282867 
L 573.624419 212.282867 
L 574.813953 212.282867 
L 576.003488 222.931503 
L 577.193023 222.931503 
L 578.382558 222.931503 
L 579.572093 220.617399 
L 580.761628 220.617399 
L 581.951163 220.617399 
L 583.140698 220.617399 
L 584.330233 232.940508 
L 585.519767 232.940508 
L 586.709302 232.940508 
L 587.898837 237.656186 
L 589.088372 215.877889 
L 590.277907 215.877889 
L 591.467442 215.877889 
L 592.656977 215.877889 
L 593.846512 215.877889 
L 595.036047 215.877889 
L 596.225581 236.450333 
L 597.415116 236.450333 
L 598.604651 205.822845 
L 599.794186 205.822845 
L 600.983721 205.018262 
L 602.173256 205.018262 
L 603.362791 205.018262 
L 604.552326 205.018262 
L 605.74186 223.944623 
L 606.931395 223.944623 
L 608.12093 223.944623 
L 609.310465 223.944623 
L 610.5 223.944623 
L 611.689535 223.944623 
L 612.87907 223.944623 
L 614.068605 223.944623 
L 615.25814 226.011121 
L 616.447674 226.011121 
L 617.637209 226.011121 
L 618.826744 226.011121 
L 620.016279 232.181493 
L 621.205814 232.181493 
L 622.395349 188.05511 
L 623.584884 188.05511 
L 624.774419 188.05511 
L 625.963953 188.05511 
L 627.153488 186.776967 
L 628.343023 170.096435 
L 629.532558 170.096435 
L 630.722093 170.096435 
L 631.911628 170.096435 
L 633.101163 170.096435 
L 634.290698 170.096435 
L 635.480233 166.918711 
L 636.669767 166.918711 
L 637.859302 166.918711 
L 639.048837 166.918711 
L 640.238372 166.918711 
L 641.427907 166.918711 
L 642.617442 166.918711 
L 643.806977 166.918711 
L 644.996512 168.40786 
L 646.186047 168.40786 
L 647.375581 168.40786 
L 648.565116 168.40786 
L 649.754651 168.40786 
L 650.944186 176.496385 
L 652.133721 198.127001 
L 653.323256 245.758151 
L 654.512791 245.758151 
L 655.702326 245.758151 
L 656.89186 245.758151 
L 658.081395 245.758151 
L 659.27093 245.758151 
L 660.460465 240.125169 
L 661.65 240.125169 
L 662.839535 199.110384 
L 664.02907 199.110384 
L 665.218605 199.110384 
L 666.40814 199.110384 
L 667.597674 199.110384 
L 668.787209 173.230938 
L 669.976744 173.230938 
L 671.166279 173.230938 
L 672.355814 188.05511 
L 673.545349 188.05511 
L 674.734884 188.05511 
L 675.924419 188.05511 
L 677.113953 188.05511 
L 678.303488 173.230938 
L 679.493023 174.304336 
L 680.682558 174.304336 
L 681.872093 174.304336 
L 683.061628 174.304336 
L 684.251163 153.268454 
L 685.440698 158.387385 
L 686.630233 158.387385 
L 687.819767 142.485904 
L 689.009302 142.485904 
L 690.198837 142.485904 
L 691.388372 142.485904 
L 692.577907 134.838786 
L 693.767442 134.838786 
L 694.956977 134.838786 
L 696.146512 124.182413 
L 697.336047 124.182413 
L 698.525581 124.182413 
L 699.715116 124.182413 
L 700.904651 104.272062 
L 702.094186 104.272062 
L 703.283721 104.272062 
L 704.473256 94.86 
L 705.662791 94.86 
L 706.852326 94.86 
L 708.04186 94.86 
L 709.231395 94.86 
L 710.42093 94.86 
L 711.610465 94.86 
L 712.8 99.979421 
L 712.8 180480.478538 
L 712.8 180480.478538 
L 711.610465 180480.478538 
L 710.42093 180480.478538 
L 709.231395 180480.478538 
L 708.04186 180480.478538 
L 706.852326 180480.478538 
L 705.662791 180480.478538 
L 704.473256 180480.478538 
L 703.283721 180480.478538 
L 702.094186 180480.478538 
L 700.904651 180480.478538 
L 699.715116 180480.478538 
L 698.525581 180480.478538 
L 697.336047 180480.478538 
L 696.146512 180480.478538 
L 694.956977 180480.478538 
L 693.767442 180480.478538 
L 692.577907 180480.478538 
L 691.388372 180480.478538 
L 690.198837 180480.478538 
L 689.009302 180480.478538 
L 687.819767 180480.478538 
L 686.630233 180480.478538 
L 685.440698 180480.478538 
L 684.251163 180480.478538 
L 683.061628 180480.478538 
L 681.872093 180480.478538 
L 680.682558 180480.478538 
L 679.493023 180480.478538 
L 678.303488 180480.478538 
L 677.113953 180480.478538 
L 675.924419 180480.478538 
L 674.734884 180480.478538 
L 673.545349 180480.478538 
L 672.355814 180480.478538 
L 671.166279 180480.478538 
L 669.976744 180480.478538 
L 668.787209 180480.478538 
L 667.597674 180480.478538 
L 666.40814 180480.478538 
L 665.218605 180480.478538 
L 664.02907 180480.478538 
L 662.839535 180480.478538 
L 661.65 180480.478538 
L 660.460465 180480.478538 
L 659.27093 180480.478538 
L 658.081395 180480.478538 
L 656.89186 180480.478538 
L 655.702326 180480.478538 
L 654.512791 180480.478538 
L 653.323256 180480.478538 
L 652.133721 180480.478538 
L 650.944186 180480.478538 
L 649.754651 180480.478538 
L 648.565116 180480.478538 
L 647.375581 180480.478538 
L 646.186047 180480.478538 
L 644.996512 180480.478538 
L 643.806977 180480.478538 
L 642.617442 180480.478538 
L 641.427907 180480.478538 
L 640.238372 180480.478538 
L 639.048837 180480.478538 
L 637.859302 180480.478538 
L 636.669767 180480.478538 
L 635.480233 180480.478538 
L 634.290698 180480.478538 
L 633.101163 180480.478538 
L 631.911628 180480.478538 
L 630.722093 180480.478538 
L 629.532558 180480.478538 
L 628.343023 180480.478538 
L 627.153488 180480.478538 
L 625.963953 180480.478538 
L 624.774419 180480.478538 
L 623.584884 180480.478538 
L 622.395349 180480.478538 
L 621.205814 180480.478538 
L 620.016279 180480.478538 
L 618.826744 180480.478538 
L 617.637209 180480.478538 
L 616.447674 180480.478538 
L 615.25814 180480.478538 
L 614.068605 180480.478538 
L 612.87907 180480.478538 
L 611.689535 180480.478538 
L 610.5 180480.478538 
L 609.310465 180480.478538 
L 608.12093 180480.478538 
L 606.931395 180480.478538 
L 605.74186 180480.478538 
L 604.552326 180480.478538 
L 603.362791 180480.478538 
L 602.173256 180480.478538 
L 600.983721 180480.478538 
L 599.794186 180480.478538 
L 598.604651 180480.478538 
L 597.415116 180480.478538 
L 596.225581 180480.478538 
L 595.036047 180480.478538 
L 593.846512 180480.478538 
L 592.656977 180480.478538 
L 591.467442 180480.478538 
L 590.277907 180480.478538 
L 589.088372 180480.478538 
L 587.898837 180480.478538 
L 586.709302 180480.478538 
L 585.519767 180480.478538 
L 584.330233 180480.478538 
L 583.140698 180480.478538 
L 581.951163 180480.478538 
L 580.761628 180480.478538 
L 579.572093 180480.478538 
L 578.382558 180480.478538 
L 577.193023 180480.478538 
L 576.003488 180480.478538 
L 574.813953 180480.478538 
L 573.624419 180480.478538 
L 572.434884 180480.478538 
L 571.245349 180480.478538 
L 570.055814 180480.478538 
L 568.866279 180480.478538 
L 567.676744 180480.478538 
L 566.487209 180480.478538 
L 565.297674 180480.478538 
L 564.10814 180480.478538 
L 562.918605 180480.478538 
L 561.72907 180480.478538 
L 560.539535 180480.478538 
L 559.35 180480.478538 
L 558.160465 180480.478538 
L 556.97093 180480.478538 
L 555.781395 180480.478538 
L 554.59186 180480.478538 
L 553.402326 180480.478538 
L 552.212791 180480.478538 
L 551.023256 180480.478538 
L 549.833721 180480.478538 
L 548.644186 180480.478538 
L 547.454651 180480.478538 
L 546.265116 180480.478538 
L 545.075581 180480.478538 
L 543.886047 180480.478538 
L 542.696512 180480.478538 
L 541.506977 180480.478538 
L 540.317442 180480.478538 
L 539.127907 180480.478538 
L 537.938372 180480.478538 
L 536.748837 180480.478538 
L 535.559302 180480.478538 
L 534.369767 180480.478538 
L 533.180233 180480.478538 
L 531.990698 180480.478538 
L 530.801163 180480.478538 
L 529.611628 180480.478538 
L 528.422093 180480.478538 
L 527.232558 180480.478538 
L 526.043023 180480.478538 
L 524.853488 180480.478538 
L 523.663953 180480.478538 
L 522.474419 180480.478538 
L 521.284884 180480.478538 
L 520.095349 180480.478538 
L 518.905814 180480.478538 
L 517.716279 180480.478538 
L 516.526744 180480.478538 
L 515.337209 180480.478538 
L 514.147674 180480.478538 
L 512.95814 180480.478538 
L 511.768605 180480.478538 
L 510.57907 180480.478538 
L 509.389535 180480.478538 
L 508.2 180480.478538 
L 507.010465 180480.478538 
L 505.82093 180480.478538 
L 504.631395 180480.478538 
L 503.44186 180480.478538 
L 502.252326 180480.478538 
L 501.062791 180480.478538 
L 499.873256 180480.478538 
L 498.683721 180480.478538 
L 497.494186 180480.478538 
L 496.304651 180480.478538 
L 495.115116 180480.478538 
L 493.925581 180480.478538 
L 492.736047 180480.478538 
L 491.546512 368.930371 
L 490.356977 180480.478538 
L 489.167442 368.930371 
L 487.977907 368.930371 
L 486.788372 180480.478538 
L 485.598837 180480.478538 
L 484.409302 180480.478538 
L 483.219767 180480.478538 
L 482.030233 180480.478538 
L 480.840698 180480.478538 
L 479.651163 180480.478538 
L 478.461628 180480.478538 
L 477.272093 180480.478538 
L 476.082558 180480.478538 
L 474.893023 180480.478538 
L 473.703488 180480.478538 
L 472.513953 180480.478538 
L 471.324419 180480.478538 
L 470.134884 180480.478538 
L 468.945349 180480.478538 
L 467.755814 180480.478538 
L 466.566279 180480.478538 
L 465.376744 180480.478538 
L 464.187209 180480.478538 
L 462.997674 180480.478538 
L 461.80814 180480.478538 
L 460.618605 180480.478538 
L 459.42907 180480.478538 
L 458.239535 180480.478538 
L 457.05 180480.478538 
L 455.860465 180480.478538 
L 454.67093 180480.478538 
L 453.481395 180480.478538 
L 452.29186 180480.478538 
L 451.102326 180480.478538 
L 449.912791 180480.478538 
L 448.723256 180480.478538 
L 447.533721 180480.478538 
L 446.344186 180480.478538 
L 445.154651 180480.478538 
L 443.965116 180480.478538 
L 442.775581 180480.478538 
L 441.586047 297.29663 
L 440.396512 297.29663 
L 439.206977 297.29663 
L 438.017442 297.29663 
L 436.827907 297.29663 
L 435.638372 297.29663 
L 434.448837 297.29663 
L 433.259302 282.322563 
L 432.069767 297.29663 
L 430.880233 180480.478538 
L 429.690698 180480.478538 
L 428.501163 180480.478538 
L 427.311628 180480.478538 
L 426.122093 180480.478538 
L 424.932558 180480.478538 
L 423.743023 180480.478538 
L 422.553488 368.930371 
L 421.363953 180480.478538 
L 420.174419 180480.478538 
L 418.984884 180480.478538 
L 417.795349 180480.478538 
L 416.605814 180480.478538 
L 415.416279 180480.478538 
L 414.226744 180480.478538 
L 413.037209 180480.478538 
L 411.847674 391.420769 
L 410.65814 391.420769 
L 409.468605 391.420769 
L 408.27907 391.420769 
L 407.089535 180480.478538 
L 405.9 180480.478538 
L 404.710465 391.420769 
L 403.52093 391.420769 
L 402.331395 391.420769 
L 401.14186 391.420769 
L 399.952326 180480.478538 
L 398.762791 180480.478538 
L 397.573256 180480.478538 
L 396.383721 180480.478538 
L 395.194186 180480.478538 
L 394.004651 180480.478538 
L 392.815116 180480.478538 
L 391.625581 180480.478538 
L 390.436047 180480.478538 
L 389.246512 180480.478538 
L 388.056977 180480.478538 
L 386.867442 180480.478538 
L 385.677907 180480.478538 
L 384.488372 180480.478538 
L 383.298837 180480.478538 
L 382.109302 180480.478538 
L 380.919767 180480.478538 
L 379.730233 180480.478538 
L 378.540698 180480.478538 
L 377.351163 180480.478538 
L 376.161628 180480.478538 
L 374.972093 180480.478538 
L 373.782558 180480.478538 
L 372.593023 180480.478538 
L 371.403488 180480.478538 
L 370.213953 180480.478538 
L 369.024419 180480.478538 
L 367.834884 180480.478538 
L 366.645349 180480.478538 
L 365.455814 180480.478538 
L 364.266279 180480.478538 
L 363.076744 180480.478538 
L 361.887209 180480.478538 
L 360.697674 180480.478538 
L 359.50814 180480.478538 
L 358.318605 180480.478538 
L 357.12907 180480.478538 
L 355.939535 180480.478538 
L 354.75 180480.478538 
L 353.560465 180480.478538 
L 352.37093 180480.478538 
L 351.181395 180480.478538 
L 349.99186 180480.478538 
L 348.802326 180480.478538 
L 347.612791 180480.478538 
L 346.423256 180480.478538 
L 345.233721 180480.478538 
L 344.044186 180480.478538 
L 342.854651 180480.478538 
L 341.665116 180480.478538 
L 340.475581 180480.478538 
L 339.286047 180480.478538 
L 338.096512 180480.478538 
L 336.906977 180480.478538 
L 335.717442 180480.478538 
L 334.527907 180480.478538 
L 333.338372 180480.478538 
L 332.148837 180480.478538 
L 330.959302 180480.478538 
L 329.769767 180480.478538 
L 328.580233 180480.478538 
L 327.390698 180480.478538 
L 326.201163 180480.478538 
L 325.011628 477.308037 
L 323.822093 477.308037 
L 322.632558 469.071167 
L 321.443023 477.308037 
L 320.253488 477.308037 
L 319.063953 469.071167 
L 317.874419 469.071167 
L 316.684884 469.071167 
L 315.495349 366.788375 
L 314.305814 366.788375 
L 313.116279 366.788375 
L 311.926744 366.788375 
L 310.737209 469.071167 
L 309.547674 366.788375 
L 308.35814 366.788375 
L 307.168605 366.788375 
L 305.97907 477.308037 
L 304.789535 366.788375 
L 303.6 366.788375 
L 302.410465 344.827999 
L 301.22093 343.248593 
L 300.031395 267.949588 
L 298.84186 266.765051 
L 297.652326 325.18075 
L 296.462791 266.765051 
L 295.273256 266.765051 
L 294.083721 266.765051 
L 292.894186 266.765051 
L 291.704651 243.981302 
L 290.515116 243.981302 
L 289.325581 243.981302 
L 288.136047 318.068761 
L 286.946512 318.068761 
L 285.756977 318.068761 
L 284.567442 318.068761 
L 283.377907 318.068761 
L 282.188372 337.231935 
L 280.998837 262.198617 
L 279.809302 262.198617 
L 278.619767 337.231935 
L 277.430233 292.25114 
L 276.240698 337.231935 
L 275.051163 337.231935 
L 273.861628 337.231935 
L 272.672093 337.231935 
L 271.482558 305.5335 
L 270.293023 337.231935 
L 269.103488 337.231935 
L 267.913953 180480.478538 
L 266.724419 180480.478538 
L 265.534884 180480.478538 
L 264.345349 180480.478538 
L 263.155814 180480.478538 
L 261.966279 337.231935 
L 260.776744 337.231935 
L 259.587209 328.995065 
L 258.397674 328.995065 
L 257.20814 328.995065 
L 256.018605 292.25114 
L 254.82907 285.245444 
L 253.639535 283.043102 
L 252.45 283.043102 
L 251.260465 283.043102 
L 250.07093 299.946984 
L 248.881395 299.946984 
L 247.69186 328.995065 
L 246.502326 328.995065 
L 245.312791 328.995065 
L 244.123256 331.645419 
L 242.933721 331.645419 
L 241.744186 362.672795 
L 240.554651 385.834252 
L 239.365116 418.892339 
L 238.175581 477.308037 
L 236.986047 477.308037 
L 235.796512 477.308037 
L 234.606977 477.308037 
L 233.417442 180480.478538 
L 232.227907 180480.478538 
L 231.038372 180480.478538 
L 229.848837 180480.478538 
L 228.659302 180480.478538 
L 227.469767 180480.478538 
L 226.280233 180480.478538 
L 225.090698 180480.478538 
L 223.901163 180480.478538 
L 222.711628 180480.478538 
L 221.522093 180480.478538 
L 220.332558 180480.478538 
L 219.143023 180480.478538 
L 217.953488 180480.478538 
L 216.763953 180480.478538 
L 215.574419 180480.478538 
L 214.384884 180480.478538 
L 213.195349 180480.478538 
L 212.005814 180480.478538 
L 210.816279 180480.478538 
L 209.626744 180480.478538 
L 208.437209 180480.478538 
L 207.247674 180480.478538 
L 206.05814 180480.478538 
L 204.868605 180480.478538 
L 203.67907 180480.478538 
L 202.489535 180480.478538 
L 201.3 180480.478538 
L 200.110465 180480.478538 
L 198.92093 180480.478538 
L 197.731395 180480.478538 
L 196.54186 180480.478538 
L 195.352326 180480.478538 
L 194.162791 180480.478538 
L 192.973256 180480.478538 
L 191.783721 180480.478538 
L 190.594186 180480.478538 
L 189.404651 180480.478538 
L 188.215116 180480.478538 
L 187.025581 180480.478538 
L 185.836047 180480.478538 
L 184.646512 180480.478538 
L 183.456977 180480.478538 
L 182.267442 180480.478538 
L 181.077907 180480.478538 
L 179.888372 180480.478538 
L 178.698837 180480.478538 
L 177.509302 180480.478538 
L 176.319767 180480.478538 
L 175.130233 180480.478538 
L 173.940698 180480.478538 
L 172.751163 180480.478538 
L 171.561628 180480.478538 
L 170.372093 180480.478538 
L 169.182558 180480.478538 
L 167.993023 180480.478538 
L 166.803488 180480.478538 
L 165.613953 180480.478538 
L 164.424419 180480.478538 
L 163.234884 180480.478538 
L 162.045349 180480.478538 
L 160.855814 180480.478538 
L 159.666279 180480.478538 
L 158.476744 180480.478538 
L 157.287209 180480.478538 
L 156.097674 180480.478538 
L 154.90814 180480.478538 
L 153.718605 180480.478538 
L 152.52907 180480.478538 
L 151.339535 180480.478538 
L 150.15 180480.478538 
L 148.960465 180480.478538 
L 147.77093 180480.478538 
L 146.581395 180480.478538 
L 145.39186 180480.478538 
L 144.202326 180480.478538 
L 143.012791 180480.478538 
L 141.823256 180480.478538 
L 140.633721 180480.478538 
L 139.444186 180480.478538 
L 138.254651 180480.478538 
L 137.065116 180480.478538 
L 135.875581 180480.478538 
L 134.686047 180480.478538 
L 133.496512 180480.478538 
L 132.306977 477.308037 
L 131.117442 477.308037 
L 129.927907 477.308037 
L 128.738372 180480.478538 
L 127.548837 180480.478538 
L 126.359302 180480.478538 
L 125.169767 180480.478538 
L 123.980233 180480.478538 
L 122.790698 180480.478538 
L 121.601163 180480.478538 
L 120.411628 180480.478538 
L 119.222093 180480.478538 
L 118.032558 180480.478538 
L 116.843023 180480.478538 
L 115.653488 180480.478538 
L 114.463953 180480.478538 
L 113.274419 180480.478538 
L 112.084884 180480.478538 
L 110.895349 180480.478538 
L 109.705814 180480.478538 
L 108.516279 180480.478538 
L 107.326744 180480.478538 
L 106.137209 180480.478538 
L 104.947674 180480.478538 
L 103.75814 180480.478538 
L 102.568605 180480.478538 
L 101.37907 180480.478538 
L 100.189535 180480.478538 
L 99 180480.478538 
z
" style="fill:#8080ff;fill-opacity:0.5;stroke:#8080ff;stroke-opacity:0.5;"/>
   </g>
   <g id="PolyCollection_2">
    <path clip-path="url(#p68e2955192)" d="M 99 180480.478538 
L 99 180480.478538 
L 100.189535 180480.478538 
L 101.37907 180480.478538 
L 102.568605 180480.478538 
L 103.75814 180480.478538 
L 104.947674 180480.478538 
L 106.137209 180480.478538 
L 107.326744 180480.478538 
L 108.516279 180480.478538 
L 109.705814 180480.478538 
L 110.895349 180480.478538 
L 112.084884 180480.478538 
L 113.274419 180480.478538 
L 114.463953 180480.478538 
L 115.653488 180480.478538 
L 116.843023 180480.478538 
L 118.032558 180480.478538 
L 119.222093 180480.478538 
L 120.411628 180480.478538 
L 121.601163 180480.478538 
L 122.790698 180480.478538 
L 123.980233 180480.478538 
L 125.169767 180480.478538 
L 126.359302 180480.478538 
L 127.548837 180480.478538 
L 128.738372 180480.478538 
L 129.927907 180480.478538 
L 131.117442 180480.478538 
L 132.306977 180480.478538 
L 133.496512 180480.478538 
L 134.686047 180480.478538 
L 135.875581 180480.478538 
L 137.065116 180480.478538 
L 138.254651 496.955287 
L 139.444186 469.071167 
L 140.633721 469.071167 
L 141.823256 469.071167 
L 143.012791 496.955287 
L 144.202326 496.955287 
L 145.39186 496.955287 
L 146.581395 496.955287 
L 147.77093 496.955287 
L 148.960465 469.071167 
L 150.15 469.071167 
L 151.339535 469.071167 
L 152.52907 469.071167 
L 153.718605 469.071167 
L 154.90814 496.955287 
L 156.097674 180480.478538 
L 157.287209 180480.478538 
L 158.476744 180480.478538 
L 159.666279 180480.478538 
L 160.855814 180480.478538 
L 162.045349 180480.478538 
L 163.234884 180480.478538 
L 164.424419 180480.478538 
L 165.613953 180480.478538 
L 166.803488 180480.478538 
L 167.993023 496.955287 
L 169.182558 496.955287 
L 170.372093 496.955287 
L 171.561628 496.955287 
L 172.751163 496.955287 
L 173.940698 496.955287 
L 175.130233 496.955287 
L 176.319767 496.955287 
L 177.509302 496.955287 
L 178.698837 496.955287 
L 179.888372 496.955287 
L 181.077907 496.955287 
L 182.267442 496.955287 
L 183.456977 180480.478538 
L 184.646512 180480.478538 
L 185.836047 180480.478538 
L 187.025581 180480.478538 
L 188.215116 180480.478538 
L 189.404651 180480.478538 
L 190.594186 180480.478538 
L 191.783721 180480.478538 
L 192.973256 180480.478538 
L 194.162791 180480.478538 
L 195.352326 180480.478538 
L 196.54186 180480.478538 
L 197.731395 180480.478538 
L 198.92093 180480.478538 
L 200.110465 180480.478538 
L 201.3 180480.478538 
L 202.489535 180480.478538 
L 203.67907 180480.478538 
L 204.868605 180480.478538 
L 206.05814 180480.478538 
L 207.247674 180480.478538 
L 208.437209 180480.478538 
L 209.626744 180480.478538 
L 210.816279 180480.478538 
L 212.005814 180480.478538 
L 213.195349 180480.478538 
L 214.384884 180480.478538 
L 215.574419 180480.478538 
L 216.763953 180480.478538 
L 217.953488 180480.478538 
L 219.143023 180480.478538 
L 220.332558 180480.478538 
L 221.522093 180480.478538 
L 222.711628 180480.478538 
L 223.901163 180480.478538 
L 225.090698 180480.478538 
L 226.280233 180480.478538 
L 227.469767 180480.478538 
L 228.659302 180480.478538 
L 229.848837 180480.478538 
L 231.038372 180480.478538 
L 232.227907 180480.478538 
L 233.417442 180480.478538 
L 234.606977 180480.478538 
L 235.796512 180480.478538 
L 236.986047 180480.478538 
L 238.175581 180480.478538 
L 239.365116 180480.478538 
L 240.554651 180480.478538 
L 241.744186 180480.478538 
L 242.933721 180480.478538 
L 244.123256 180480.478538 
L 245.312791 180480.478538 
L 246.502326 180480.478538 
L 247.69186 180480.478538 
L 248.881395 180480.478538 
L 250.07093 180480.478538 
L 251.260465 180480.478538 
L 252.45 180480.478538 
L 253.639535 180480.478538 
L 254.82907 180480.478538 
L 256.018605 180480.478538 
L 257.20814 180480.478538 
L 258.397674 180480.478538 
L 259.587209 180480.478538 
L 260.776744 180480.478538 
L 261.966279 496.955287 
L 263.155814 496.955287 
L 264.345349 496.955287 
L 265.534884 496.955287 
L 266.724419 496.955287 
L 267.913953 496.955287 
L 269.103488 496.955287 
L 270.293023 496.955287 
L 271.482558 496.955287 
L 272.672093 496.955287 
L 273.861628 496.955287 
L 275.051163 496.955287 
L 276.240698 496.955287 
L 277.430233 496.955287 
L 278.619767 180480.478538 
L 279.809302 180480.478538 
L 280.998837 180480.478538 
L 282.188372 180480.478538 
L 283.377907 180480.478538 
L 284.567442 180480.478538 
L 285.756977 180480.478538 
L 286.946512 180480.478538 
L 288.136047 180480.478538 
L 289.325581 180480.478538 
L 290.515116 180480.478538 
L 291.704651 496.955287 
L 292.894186 469.071167 
L 294.083721 469.071167 
L 295.273256 469.071167 
L 296.462791 469.071167 
L 297.652326 469.071167 
L 298.84186 469.071167 
L 300.031395 469.071167 
L 301.22093 469.071167 
L 302.410465 469.071167 
L 303.6 469.071167 
L 304.789535 469.071167 
L 305.97907 469.071167 
L 307.168605 469.071167 
L 308.35814 469.071167 
L 309.547674 469.071167 
L 310.737209 469.071167 
L 311.926744 469.071167 
L 313.116279 469.071167 
L 314.305814 469.071167 
L 315.495349 469.071167 
L 316.684884 469.071167 
L 317.874419 469.071167 
L 319.063953 469.071167 
L 320.253488 469.071167 
L 321.443023 469.071167 
L 322.632558 469.071167 
L 323.822093 469.071167 
L 325.011628 496.955287 
L 326.201163 496.955287 
L 327.390698 180480.478538 
L 328.580233 180480.478538 
L 329.769767 180480.478538 
L 330.959302 180480.478538 
L 332.148837 180480.478538 
L 333.338372 180480.478538 
L 334.527907 180480.478538 
L 335.717442 180480.478538 
L 336.906977 180480.478538 
L 338.096512 180480.478538 
L 339.286047 180480.478538 
L 340.475581 180480.478538 
L 341.665116 180480.478538 
L 342.854651 180480.478538 
L 344.044186 180480.478538 
L 345.233721 180480.478538 
L 346.423256 180480.478538 
L 347.612791 180480.478538 
L 348.802326 180480.478538 
L 349.99186 180480.478538 
L 351.181395 180480.478538 
L 352.37093 180480.478538 
L 353.560465 180480.478538 
L 354.75 180480.478538 
L 355.939535 180480.478538 
L 357.12907 180480.478538 
L 358.318605 180480.478538 
L 359.50814 180480.478538 
L 360.697674 180480.478538 
L 361.887209 180480.478538 
L 363.076744 180480.478538 
L 364.266279 180480.478538 
L 365.455814 180480.478538 
L 366.645349 180480.478538 
L 367.834884 180480.478538 
L 369.024419 180480.478538 
L 370.213953 180480.478538 
L 371.403488 180480.478538 
L 372.593023 180480.478538 
L 373.782558 180480.478538 
L 374.972093 180480.478538 
L 376.161628 180480.478538 
L 377.351163 180480.478538 
L 378.540698 496.955287 
L 379.730233 496.955287 
L 380.919767 496.955287 
L 382.109302 496.955287 
L 383.298837 496.955287 
L 384.488372 496.955287 
L 385.677907 496.955287 
L 386.867442 496.955287 
L 388.056977 496.955287 
L 389.246512 496.955287 
L 390.436047 496.955287 
L 391.625581 496.955287 
L 392.815116 496.955287 
L 394.004651 180480.478538 
L 395.194186 180480.478538 
L 396.383721 180480.478538 
L 397.573256 180480.478538 
L 398.762791 180480.478538 
L 399.952326 180480.478538 
L 401.14186 180480.478538 
L 402.331395 180480.478538 
L 403.52093 180480.478538 
L 404.710465 180480.478538 
L 405.9 180480.478538 
L 407.089535 180480.478538 
L 408.27907 180480.478538 
L 409.468605 180480.478538 
L 410.65814 180480.478538 
L 411.847674 180480.478538 
L 413.037209 180480.478538 
L 414.226744 180480.478538 
L 415.416279 180480.478538 
L 416.605814 180480.478538 
L 417.795349 180480.478538 
L 418.984884 180480.478538 
L 420.174419 180480.478538 
L 421.363953 180480.478538 
L 422.553488 180480.478538 
L 423.743023 180480.478538 
L 424.932558 180480.478538 
L 426.122093 180480.478538 
L 427.311628 180480.478538 
L 428.501163 180480.478538 
L 429.690698 180480.478538 
L 430.880233 180480.478538 
L 432.069767 180480.478538 
L 433.259302 180480.478538 
L 434.448837 180480.478538 
L 435.638372 180480.478538 
L 436.827907 180480.478538 
L 438.017442 180480.478538 
L 439.206977 180480.478538 
L 440.396512 180480.478538 
L 441.586047 180480.478538 
L 442.775581 180480.478538 
L 443.965116 180480.478538 
L 445.154651 180480.478538 
L 446.344186 180480.478538 
L 447.533721 180480.478538 
L 448.723256 180480.478538 
L 449.912791 180480.478538 
L 451.102326 180480.478538 
L 452.29186 180480.478538 
L 453.481395 180480.478538 
L 454.67093 180480.478538 
L 455.860465 180480.478538 
L 457.05 180480.478538 
L 458.239535 180480.478538 
L 459.42907 180480.478538 
L 460.618605 180480.478538 
L 461.80814 180480.478538 
L 462.997674 180480.478538 
L 464.187209 180480.478538 
L 465.376744 180480.478538 
L 466.566279 180480.478538 
L 467.755814 180480.478538 
L 468.945349 180480.478538 
L 470.134884 180480.478538 
L 471.324419 180480.478538 
L 472.513953 180480.478538 
L 473.703488 180480.478538 
L 474.893023 180480.478538 
L 476.082558 180480.478538 
L 477.272093 180480.478538 
L 478.461628 180480.478538 
L 479.651163 180480.478538 
L 480.840698 180480.478538 
L 482.030233 180480.478538 
L 483.219767 180480.478538 
L 484.409302 180480.478538 
L 485.598837 180480.478538 
L 486.788372 180480.478538 
L 487.977907 180480.478538 
L 489.167442 180480.478538 
L 490.356977 180480.478538 
L 491.546512 180480.478538 
L 492.736047 180480.478538 
L 493.925581 180480.478538 
L 495.115116 180480.478538 
L 496.304651 180480.478538 
L 497.494186 180480.478538 
L 498.683721 180480.478538 
L 499.873256 180480.478538 
L 501.062791 180480.478538 
L 502.252326 180480.478538 
L 503.44186 180480.478538 
L 504.631395 180480.478538 
L 505.82093 180480.478538 
L 507.010465 180480.478538 
L 508.2 180480.478538 
L 509.389535 180480.478538 
L 510.57907 180480.478538 
L 511.768605 180480.478538 
L 512.95814 180480.478538 
L 514.147674 180480.478538 
L 515.337209 180480.478538 
L 516.526744 180480.478538 
L 517.716279 180480.478538 
L 518.905814 180480.478538 
L 520.095349 180480.478538 
L 521.284884 180480.478538 
L 522.474419 180480.478538 
L 523.663953 180480.478538 
L 524.853488 180480.478538 
L 526.043023 180480.478538 
L 527.232558 180480.478538 
L 528.422093 180480.478538 
L 529.611628 180480.478538 
L 530.801163 180480.478538 
L 531.990698 180480.478538 
L 533.180233 180480.478538 
L 534.369767 180480.478538 
L 535.559302 180480.478538 
L 536.748837 180480.478538 
L 537.938372 180480.478538 
L 539.127907 180480.478538 
L 540.317442 180480.478538 
L 541.506977 180480.478538 
L 542.696512 180480.478538 
L 543.886047 180480.478538 
L 545.075581 180480.478538 
L 546.265116 180480.478538 
L 547.454651 180480.478538 
L 548.644186 180480.478538 
L 549.833721 180480.478538 
L 551.023256 180480.478538 
L 552.212791 180480.478538 
L 553.402326 180480.478538 
L 554.59186 180480.478538 
L 555.781395 180480.478538 
L 556.97093 180480.478538 
L 558.160465 180480.478538 
L 559.35 180480.478538 
L 560.539535 180480.478538 
L 561.72907 180480.478538 
L 562.918605 180480.478538 
L 564.10814 180480.478538 
L 565.297674 180480.478538 
L 566.487209 180480.478538 
L 567.676744 180480.478538 
L 568.866279 180480.478538 
L 570.055814 180480.478538 
L 571.245349 180480.478538 
L 572.434884 180480.478538 
L 573.624419 180480.478538 
L 574.813953 180480.478538 
L 576.003488 180480.478538 
L 577.193023 180480.478538 
L 578.382558 180480.478538 
L 579.572093 180480.478538 
L 580.761628 180480.478538 
L 581.951163 180480.478538 
L 583.140698 180480.478538 
L 584.330233 180480.478538 
L 585.519767 180480.478538 
L 586.709302 180480.478538 
L 587.898837 180480.478538 
L 589.088372 180480.478538 
L 590.277907 180480.478538 
L 591.467442 180480.478538 
L 592.656977 180480.478538 
L 593.846512 180480.478538 
L 595.036047 180480.478538 
L 596.225581 180480.478538 
L 597.415116 180480.478538 
L 598.604651 180480.478538 
L 599.794186 180480.478538 
L 600.983721 180480.478538 
L 602.173256 180480.478538 
L 603.362791 180480.478538 
L 604.552326 180480.478538 
L 605.74186 180480.478538 
L 606.931395 180480.478538 
L 608.12093 180480.478538 
L 609.310465 180480.478538 
L 610.5 180480.478538 
L 611.689535 180480.478538 
L 612.87907 180480.478538 
L 614.068605 180480.478538 
L 615.25814 180480.478538 
L 616.447674 180480.478538 
L 617.637209 180480.478538 
L 618.826744 180480.478538 
L 620.016279 180480.478538 
L 621.205814 180480.478538 
L 622.395349 180480.478538 
L 623.584884 180480.478538 
L 624.774419 180480.478538 
L 625.963953 180480.478538 
L 627.153488 180480.478538 
L 628.343023 180480.478538 
L 629.532558 180480.478538 
L 630.722093 180480.478538 
L 631.911628 180480.478538 
L 633.101163 180480.478538 
L 634.290698 180480.478538 
L 635.480233 180480.478538 
L 636.669767 180480.478538 
L 637.859302 180480.478538 
L 639.048837 180480.478538 
L 640.238372 180480.478538 
L 641.427907 180480.478538 
L 642.617442 180480.478538 
L 643.806977 496.955287 
L 644.996512 496.955287 
L 646.186047 496.955287 
L 647.375581 496.955287 
L 648.565116 496.955287 
L 649.754651 496.955287 
L 650.944186 496.955287 
L 652.133721 496.955287 
L 653.323256 496.955287 
L 654.512791 496.955287 
L 655.702326 496.955287 
L 656.89186 496.955287 
L 658.081395 496.955287 
L 659.27093 496.955287 
L 660.460465 180480.478538 
L 661.65 180480.478538 
L 662.839535 180480.478538 
L 664.02907 180480.478538 
L 665.218605 180480.478538 
L 666.40814 180480.478538 
L 667.597674 180480.478538 
L 668.787209 180480.478538 
L 669.976744 180480.478538 
L 671.166279 180480.478538 
L 672.355814 180480.478538 
L 673.545349 180480.478538 
L 674.734884 180480.478538 
L 675.924419 180480.478538 
L 677.113953 180480.478538 
L 678.303488 180480.478538 
L 679.493023 180480.478538 
L 680.682558 180480.478538 
L 681.872093 180480.478538 
L 683.061628 180480.478538 
L 684.251163 180480.478538 
L 685.440698 180480.478538 
L 686.630233 180480.478538 
L 687.819767 180480.478538 
L 689.009302 180480.478538 
L 690.198837 180480.478538 
L 691.388372 180480.478538 
L 692.577907 180480.478538 
L 693.767442 180480.478538 
L 694.956977 180480.478538 
L 696.146512 496.955287 
L 697.336047 496.955287 
L 698.525581 496.955287 
L 699.715116 496.955287 
L 700.904651 469.071167 
L 702.094186 427.587732 
L 703.283721 427.587732 
L 704.473256 469.071167 
L 705.662791 469.071167 
L 706.852326 469.071167 
L 708.04186 469.071167 
L 709.231395 469.071167 
L 710.42093 469.071167 
L 711.610465 469.071167 
L 712.8 469.071167 
L 712.8 180480.478538 
L 712.8 180480.478538 
L 711.610465 180480.478538 
L 710.42093 180480.478538 
L 709.231395 180480.478538 
L 708.04186 180480.478538 
L 706.852326 180480.478538 
L 705.662791 180480.478538 
L 704.473256 180480.478538 
L 703.283721 180480.478538 
L 702.094186 180480.478538 
L 700.904651 180480.478538 
L 699.715116 180480.478538 
L 698.525581 180480.478538 
L 697.336047 180480.478538 
L 696.146512 180480.478538 
L 694.956977 180480.478538 
L 693.767442 180480.478538 
L 692.577907 180480.478538 
L 691.388372 180480.478538 
L 690.198837 180480.478538 
L 689.009302 180480.478538 
L 687.819767 180480.478538 
L 686.630233 180480.478538 
L 685.440698 180480.478538 
L 684.251163 180480.478538 
L 683.061628 180480.478538 
L 681.872093 180480.478538 
L 680.682558 180480.478538 
L 679.493023 180480.478538 
L 678.303488 180480.478538 
L 677.113953 180480.478538 
L 675.924419 180480.478538 
L 674.734884 180480.478538 
L 673.545349 180480.478538 
L 672.355814 180480.478538 
L 671.166279 180480.478538 
L 669.976744 180480.478538 
L 668.787209 180480.478538 
L 667.597674 180480.478538 
L 666.40814 180480.478538 
L 665.218605 180480.478538 
L 664.02907 180480.478538 
L 662.839535 180480.478538 
L 661.65 180480.478538 
L 660.460465 180480.478538 
L 659.27093 180480.478538 
L 658.081395 180480.478538 
L 656.89186 180480.478538 
L 655.702326 180480.478538 
L 654.512791 180480.478538 
L 653.323256 180480.478538 
L 652.133721 180480.478538 
L 650.944186 180480.478538 
L 649.754651 180480.478538 
L 648.565116 180480.478538 
L 647.375581 180480.478538 
L 646.186047 180480.478538 
L 644.996512 180480.478538 
L 643.806977 180480.478538 
L 642.617442 180480.478538 
L 641.427907 180480.478538 
L 640.238372 180480.478538 
L 639.048837 180480.478538 
L 637.859302 180480.478538 
L 636.669767 180480.478538 
L 635.480233 180480.478538 
L 634.290698 180480.478538 
L 633.101163 180480.478538 
L 631.911628 180480.478538 
L 630.722093 180480.478538 
L 629.532558 180480.478538 
L 628.343023 180480.478538 
L 627.153488 180480.478538 
L 625.963953 180480.478538 
L 624.774419 180480.478538 
L 623.584884 180480.478538 
L 622.395349 180480.478538 
L 621.205814 180480.478538 
L 620.016279 180480.478538 
L 618.826744 180480.478538 
L 617.637209 180480.478538 
L 616.447674 180480.478538 
L 615.25814 180480.478538 
L 614.068605 180480.478538 
L 612.87907 180480.478538 
L 611.689535 180480.478538 
L 610.5 180480.478538 
L 609.310465 180480.478538 
L 608.12093 180480.478538 
L 606.931395 180480.478538 
L 605.74186 180480.478538 
L 604.552326 180480.478538 
L 603.362791 180480.478538 
L 602.173256 180480.478538 
L 600.983721 180480.478538 
L 599.794186 180480.478538 
L 598.604651 180480.478538 
L 597.415116 180480.478538 
L 596.225581 180480.478538 
L 595.036047 180480.478538 
L 593.846512 180480.478538 
L 592.656977 180480.478538 
L 591.467442 180480.478538 
L 590.277907 180480.478538 
L 589.088372 180480.478538 
L 587.898837 180480.478538 
L 586.709302 180480.478538 
L 585.519767 180480.478538 
L 584.330233 180480.478538 
L 583.140698 180480.478538 
L 581.951163 180480.478538 
L 580.761628 180480.478538 
L 579.572093 180480.478538 
L 578.382558 180480.478538 
L 577.193023 180480.478538 
L 576.003488 180480.478538 
L 574.813953 180480.478538 
L 573.624419 180480.478538 
L 572.434884 180480.478538 
L 571.245349 180480.478538 
L 570.055814 180480.478538 
L 568.866279 180480.478538 
L 567.676744 180480.478538 
L 566.487209 180480.478538 
L 565.297674 180480.478538 
L 564.10814 180480.478538 
L 562.918605 180480.478538 
L 561.72907 180480.478538 
L 560.539535 180480.478538 
L 559.35 180480.478538 
L 558.160465 180480.478538 
L 556.97093 180480.478538 
L 555.781395 180480.478538 
L 554.59186 180480.478538 
L 553.402326 180480.478538 
L 552.212791 180480.478538 
L 551.023256 180480.478538 
L 549.833721 180480.478538 
L 548.644186 180480.478538 
L 547.454651 180480.478538 
L 546.265116 180480.478538 
L 545.075581 180480.478538 
L 543.886047 180480.478538 
L 542.696512 180480.478538 
L 541.506977 180480.478538 
L 540.317442 180480.478538 
L 539.127907 180480.478538 
L 537.938372 180480.478538 
L 536.748837 180480.478538 
L 535.559302 180480.478538 
L 534.369767 180480.478538 
L 533.180233 180480.478538 
L 531.990698 180480.478538 
L 530.801163 180480.478538 
L 529.611628 180480.478538 
L 528.422093 180480.478538 
L 527.232558 180480.478538 
L 526.043023 180480.478538 
L 524.853488 180480.478538 
L 523.663953 180480.478538 
L 522.474419 180480.478538 
L 521.284884 180480.478538 
L 520.095349 180480.478538 
L 518.905814 180480.478538 
L 517.716279 180480.478538 
L 516.526744 180480.478538 
L 515.337209 180480.478538 
L 514.147674 180480.478538 
L 512.95814 180480.478538 
L 511.768605 180480.478538 
L 510.57907 180480.478538 
L 509.389535 180480.478538 
L 508.2 180480.478538 
L 507.010465 180480.478538 
L 505.82093 180480.478538 
L 504.631395 180480.478538 
L 503.44186 180480.478538 
L 502.252326 180480.478538 
L 501.062791 180480.478538 
L 499.873256 180480.478538 
L 498.683721 180480.478538 
L 497.494186 180480.478538 
L 496.304651 180480.478538 
L 495.115116 180480.478538 
L 493.925581 180480.478538 
L 492.736047 180480.478538 
L 491.546512 180480.478538 
L 490.356977 180480.478538 
L 489.167442 180480.478538 
L 487.977907 180480.478538 
L 486.788372 180480.478538 
L 485.598837 180480.478538 
L 484.409302 180480.478538 
L 483.219767 180480.478538 
L 482.030233 180480.478538 
L 480.840698 180480.478538 
L 479.651163 180480.478538 
L 478.461628 180480.478538 
L 477.272093 180480.478538 
L 476.082558 180480.478538 
L 474.893023 180480.478538 
L 473.703488 180480.478538 
L 472.513953 180480.478538 
L 471.324419 180480.478538 
L 470.134884 180480.478538 
L 468.945349 180480.478538 
L 467.755814 180480.478538 
L 466.566279 180480.478538 
L 465.376744 180480.478538 
L 464.187209 180480.478538 
L 462.997674 180480.478538 
L 461.80814 180480.478538 
L 460.618605 180480.478538 
L 459.42907 180480.478538 
L 458.239535 180480.478538 
L 457.05 180480.478538 
L 455.860465 180480.478538 
L 454.67093 180480.478538 
L 453.481395 180480.478538 
L 452.29186 180480.478538 
L 451.102326 180480.478538 
L 449.912791 180480.478538 
L 448.723256 180480.478538 
L 447.533721 180480.478538 
L 446.344186 180480.478538 
L 445.154651 180480.478538 
L 443.965116 180480.478538 
L 442.775581 180480.478538 
L 441.586047 180480.478538 
L 440.396512 180480.478538 
L 439.206977 180480.478538 
L 438.017442 180480.478538 
L 436.827907 180480.478538 
L 435.638372 180480.478538 
L 434.448837 180480.478538 
L 433.259302 180480.478538 
L 432.069767 180480.478538 
L 430.880233 180480.478538 
L 429.690698 180480.478538 
L 428.501163 180480.478538 
L 427.311628 180480.478538 
L 426.122093 180480.478538 
L 424.932558 180480.478538 
L 423.743023 180480.478538 
L 422.553488 180480.478538 
L 421.363953 180480.478538 
L 420.174419 180480.478538 
L 418.984884 180480.478538 
L 417.795349 180480.478538 
L 416.605814 180480.478538 
L 415.416279 180480.478538 
L 414.226744 180480.478538 
L 413.037209 180480.478538 
L 411.847674 180480.478538 
L 410.65814 180480.478538 
L 409.468605 180480.478538 
L 408.27907 180480.478538 
L 407.089535 180480.478538 
L 405.9 180480.478538 
L 404.710465 180480.478538 
L 403.52093 180480.478538 
L 402.331395 180480.478538 
L 401.14186 180480.478538 
L 399.952326 180480.478538 
L 398.762791 180480.478538 
L 397.573256 180480.478538 
L 396.383721 180480.478538 
L 395.194186 180480.478538 
L 394.004651 180480.478538 
L 392.815116 180480.478538 
L 391.625581 180480.478538 
L 390.436047 180480.478538 
L 389.246512 180480.478538 
L 388.056977 180480.478538 
L 386.867442 180480.478538 
L 385.677907 180480.478538 
L 384.488372 180480.478538 
L 383.298837 180480.478538 
L 382.109302 180480.478538 
L 380.919767 180480.478538 
L 379.730233 180480.478538 
L 378.540698 180480.478538 
L 377.351163 180480.478538 
L 376.161628 180480.478538 
L 374.972093 180480.478538 
L 373.782558 180480.478538 
L 372.593023 180480.478538 
L 371.403488 180480.478538 
L 370.213953 180480.478538 
L 369.024419 180480.478538 
L 367.834884 180480.478538 
L 366.645349 180480.478538 
L 365.455814 180480.478538 
L 364.266279 180480.478538 
L 363.076744 180480.478538 
L 361.887209 180480.478538 
L 360.697674 180480.478538 
L 359.50814 180480.478538 
L 358.318605 180480.478538 
L 357.12907 180480.478538 
L 355.939535 180480.478538 
L 354.75 180480.478538 
L 353.560465 180480.478538 
L 352.37093 180480.478538 
L 351.181395 180480.478538 
L 349.99186 180480.478538 
L 348.802326 180480.478538 
L 347.612791 180480.478538 
L 346.423256 180480.478538 
L 345.233721 180480.478538 
L 344.044186 180480.478538 
L 342.854651 180480.478538 
L 341.665116 180480.478538 
L 340.475581 180480.478538 
L 339.286047 180480.478538 
L 338.096512 180480.478538 
L 336.906977 180480.478538 
L 335.717442 180480.478538 
L 334.527907 180480.478538 
L 333.338372 180480.478538 
L 332.148837 180480.478538 
L 330.959302 180480.478538 
L 329.769767 180480.478538 
L 328.580233 180480.478538 
L 327.390698 180480.478538 
L 326.201163 180480.478538 
L 325.011628 180480.478538 
L 323.822093 180480.478538 
L 322.632558 180480.478538 
L 321.443023 180480.478538 
L 320.253488 180480.478538 
L 319.063953 180480.478538 
L 317.874419 180480.478538 
L 316.684884 180480.478538 
L 315.495349 180480.478538 
L 314.305814 180480.478538 
L 313.116279 180480.478538 
L 311.926744 180480.478538 
L 310.737209 180480.478538 
L 309.547674 180480.478538 
L 308.35814 180480.478538 
L 307.168605 180480.478538 
L 305.97907 180480.478538 
L 304.789535 180480.478538 
L 303.6 180480.478538 
L 302.410465 180480.478538 
L 301.22093 180480.478538 
L 300.031395 180480.478538 
L 298.84186 180480.478538 
L 297.652326 180480.478538 
L 296.462791 180480.478538 
L 295.273256 180480.478538 
L 294.083721 180480.478538 
L 292.894186 180480.478538 
L 291.704651 180480.478538 
L 290.515116 180480.478538 
L 289.325581 180480.478538 
L 288.136047 180480.478538 
L 286.946512 180480.478538 
L 285.756977 180480.478538 
L 284.567442 180480.478538 
L 283.377907 180480.478538 
L 282.188372 180480.478538 
L 280.998837 180480.478538 
L 279.809302 180480.478538 
L 278.619767 180480.478538 
L 277.430233 180480.478538 
L 276.240698 180480.478538 
L 275.051163 180480.478538 
L 273.861628 180480.478538 
L 272.672093 180480.478538 
L 271.482558 180480.478538 
L 270.293023 180480.478538 
L 269.103488 180480.478538 
L 267.913953 180480.478538 
L 266.724419 180480.478538 
L 265.534884 180480.478538 
L 264.345349 180480.478538 
L 263.155814 180480.478538 
L 261.966279 180480.478538 
L 260.776744 180480.478538 
L 259.587209 180480.478538 
L 258.397674 180480.478538 
L 257.20814 180480.478538 
L 256.018605 180480.478538 
L 254.82907 180480.478538 
L 253.639535 180480.478538 
L 252.45 180480.478538 
L 251.260465 180480.478538 
L 250.07093 180480.478538 
L 248.881395 180480.478538 
L 247.69186 180480.478538 
L 246.502326 180480.478538 
L 245.312791 180480.478538 
L 244.123256 180480.478538 
L 242.933721 180480.478538 
L 241.744186 180480.478538 
L 240.554651 180480.478538 
L 239.365116 180480.478538 
L 238.175581 180480.478538 
L 236.986047 180480.478538 
L 235.796512 180480.478538 
L 234.606977 180480.478538 
L 233.417442 180480.478538 
L 232.227907 180480.478538 
L 231.038372 180480.478538 
L 229.848837 180480.478538 
L 228.659302 180480.478538 
L 227.469767 180480.478538 
L 226.280233 180480.478538 
L 225.090698 180480.478538 
L 223.901163 180480.478538 
L 222.711628 180480.478538 
L 221.522093 180480.478538 
L 220.332558 180480.478538 
L 219.143023 180480.478538 
L 217.953488 180480.478538 
L 216.763953 180480.478538 
L 215.574419 180480.478538 
L 214.384884 180480.478538 
L 213.195349 180480.478538 
L 212.005814 180480.478538 
L 210.816279 180480.478538 
L 209.626744 180480.478538 
L 208.437209 180480.478538 
L 207.247674 180480.478538 
L 206.05814 180480.478538 
L 204.868605 180480.478538 
L 203.67907 180480.478538 
L 202.489535 180480.478538 
L 201.3 180480.478538 
L 200.110465 180480.478538 
L 198.92093 180480.478538 
L 197.731395 180480.478538 
L 196.54186 180480.478538 
L 195.352326 180480.478538 
L 194.162791 180480.478538 
L 192.973256 180480.478538 
L 191.783721 180480.478538 
L 190.594186 180480.478538 
L 189.404651 180480.478538 
L 188.215116 180480.478538 
L 187.025581 180480.478538 
L 185.836047 180480.478538 
L 184.646512 180480.478538 
L 183.456977 180480.478538 
L 182.267442 180480.478538 
L 181.077907 180480.478538 
L 179.888372 180480.478538 
L 178.698837 180480.478538 
L 177.509302 180480.478538 
L 176.319767 180480.478538 
L 175.130233 180480.478538 
L 173.940698 180480.478538 
L 172.751163 180480.478538 
L 171.561628 180480.478538 
L 170.372093 180480.478538 
L 169.182558 180480.478538 
L 167.993023 180480.478538 
L 166.803488 180480.478538 
L 165.613953 180480.478538 
L 164.424419 180480.478538 
L 163.234884 180480.478538 
L 162.045349 180480.478538 
L 160.855814 180480.478538 
L 159.666279 180480.478538 
L 158.476744 180480.478538 
L 157.287209 180480.478538 
L 156.097674 180480.478538 
L 154.90814 180480.478538 
L 153.718605 180480.478538 
L 152.52907 180480.478538 
L 151.339535 180480.478538 
L 150.15 180480.478538 
L 148.960465 180480.478538 
L 147.77093 180480.478538 
L 146.581395 180480.478538 
L 145.39186 180480.478538 
L 144.202326 180480.478538 
L 143.012791 180480.478538 
L 141.823256 180480.478538 
L 140.633721 180480.478538 
L 139.444186 180480.478538 
L 138.254651 180480.478538 
L 137.065116 180480.478538 
L 135.875581 180480.478538 
L 134.686047 180480.478538 
L 133.496512 180480.478538 
L 132.306977 180480.478538 
L 131.117442 180480.478538 
L 129.927907 180480.478538 
L 128.738372 180480.478538 
L 127.548837 180480.478538 
L 126.359302 180480.478538 
L 125.169767 180480.478538 
L 123.980233 180480.478538 
L 122.790698 180480.478538 
L 121.601163 180480.478538 
L 120.411628 180480.478538 
L 119.222093 180480.478538 
L 118.032558 180480.478538 
L 116.843023 180480.478538 
L 115.653488 180480.478538 
L 114.463953 180480.478538 
L 113.274419 180480.478538 
L 112.084884 180480.478538 
L 110.895349 180480.478538 
L 109.705814 180480.478538 
L 108.516279 180480.478538 
L 107.326744 180480.478538 
L 106.137209 180480.478538 
L 104.947674 180480.478538 
L 103.75814 180480.478538 
L 102.568605 180480.478538 
L 101.37907 180480.478538 
L 100.189535 180480.478538 
L 99 180480.478538 
z
" style="fill:#ff8080;fill-opacity:0.5;stroke:#ff8080;stroke-opacity:0.5;"/>
   </g>
   <g id="matplotlib.axis_1">
    <g id="xtick_1">
     <g id="line2d_1">
      <path clip-path="url(#p68e2955192)" d="M 99 544.68 
L 99 73.44 
" style="fill:none;stroke:#b0b0b0;stroke-linecap:square;stroke-width:0.8;"/>
     </g>
     <g id="line2d_2">
      <defs>
       <path d="M 0 0 
L 0 3.5 
" id="m4abed1d830" style="stroke:#000000;stroke-width:0.8;"/>
      </defs>
      <g>
       <use style="stroke:#000000;stroke-width:0.8;" x="99" xlink:href="#m4abed1d830" y="544.68"/>
      </g>
     </g>
    </g>
    <g id="xtick_2">
     <g id="line2d_3">
      <path clip-path="url(#p68e2955192)" d="M 120.411628 544.68 
L 120.411628 73.44 
" style="fill:none;stroke:#b0b0b0;stroke-linecap:square;stroke-width:0.8;"/>
     </g>
     <g id="line2d_4">
      <g>
       <use style="stroke:#000000;stroke-width:0.8;" x="120.411628" xlink:href="#m4abed1d830" y="544.68"/>
      </g>
     </g>
     <g id="text_1">
      <!-- Apr -->
      <g transform="translate(111.761628 559.278437)scale(0.1 -0.1)">
       <defs>
        <path d="M 2188 4044 
L 1331 1722 
L 3047 1722 
L 2188 4044 
z
M 1831 4666 
L 2547 4666 
L 4325 0 
L 3669 0 
L 3244 1197 
L 1141 1197 
L 716 0 
L 50 0 
L 1831 4666 
z
" id="DejaVuSans-41" transform="scale(0.015625)"/>
        <path d="M 1159 525 
L 1159 -1331 
L 581 -1331 
L 581 3500 
L 1159 3500 
L 1159 2969 
Q 1341 3281 1617 3432 
Q 1894 3584 2278 3584 
Q 2916 3584 3314 3078 
Q 3713 2572 3713 1747 
Q 3713 922 3314 415 
Q 2916 -91 2278 -91 
Q 1894 -91 1617 61 
Q 1341 213 1159 525 
z
M 3116 1747 
Q 3116 2381 2855 2742 
Q 2594 3103 2138 3103 
Q 1681 3103 1420 2742 
Q 1159 2381 1159 1747 
Q 1159 1113 1420 752 
Q 1681 391 2138 391 
Q 2594 391 2855 752 
Q 3116 1113 3116 1747 
z
" id="DejaVuSans-70" transform="scale(0.015625)"/>
        <path d="M 2631 2963 
Q 2534 3019 2420 3045 
Q 2306 3072 2169 3072 
Q 1681 3072 1420 2755 
Q 1159 2438 1159 1844 
L 1159 0 
L 581 0 
L 581 3500 
L 1159 3500 
L 1159 2956 
Q 1341 3275 1631 3429 
Q 1922 3584 2338 3584 
Q 2397 3584 2469 3576 
Q 2541 3569 2628 3553 
L 2631 2963 
z
" id="DejaVuSans-72" transform="scale(0.015625)"/>
       </defs>
       <use xlink:href="#DejaVuSans-41"/>
       <use x="68.408203" xlink:href="#DejaVuSans-70"/>
       <use x="131.884766" xlink:href="#DejaVuSans-72"/>
      </g>
     </g>
    </g>
    <g id="xtick_3">
     <g id="line2d_5">
      <path clip-path="url(#p68e2955192)" d="M 228.659302 544.68 
L 228.659302 73.44 
" style="fill:none;stroke:#b0b0b0;stroke-linecap:square;stroke-width:0.8;"/>
     </g>
     <g id="line2d_6">
      <g>
       <use style="stroke:#000000;stroke-width:0.8;" x="228.659302" xlink:href="#m4abed1d830" y="544.68"/>
      </g>
     </g>
     <g id="text_2">
      <!-- Jul -->
      <g transform="translate(222.62649 559.278437)scale(0.1 -0.1)">
       <defs>
        <path d="M 628 4666 
L 1259 4666 
L 1259 325 
Q 1259 -519 939 -900 
Q 619 -1281 -91 -1281 
L -331 -1281 
L -331 -750 
L -134 -750 
Q 284 -750 456 -515 
Q 628 -281 628 325 
L 628 4666 
z
" id="DejaVuSans-4a" transform="scale(0.015625)"/>
        <path d="M 544 1381 
L 544 3500 
L 1119 3500 
L 1119 1403 
Q 1119 906 1312 657 
Q 1506 409 1894 409 
Q 2359 409 2629 706 
Q 2900 1003 2900 1516 
L 2900 3500 
L 3475 3500 
L 3475 0 
L 2900 0 
L 2900 538 
Q 2691 219 2414 64 
Q 2138 -91 1772 -91 
Q 1169 -91 856 284 
Q 544 659 544 1381 
z
M 1991 3584 
L 1991 3584 
z
" id="DejaVuSans-75" transform="scale(0.015625)"/>
        <path d="M 603 4863 
L 1178 4863 
L 1178 0 
L 603 0 
L 603 4863 
z
" id="DejaVuSans-6c" transform="scale(0.015625)"/>
       </defs>
       <use xlink:href="#DejaVuSans-4a"/>
       <use x="29.492188" xlink:href="#DejaVuSans-75"/>
       <use x="92.871094" xlink:href="#DejaVuSans-6c"/>
      </g>
     </g>
    </g>
    <g id="xtick_4">
     <g id="line2d_7">
      <path clip-path="url(#p68e2955192)" d="M 338.096512 544.68 
L 338.096512 73.44 
" style="fill:none;stroke:#b0b0b0;stroke-linecap:square;stroke-width:0.8;"/>
     </g>
     <g id="line2d_8">
      <g>
       <use style="stroke:#000000;stroke-width:0.8;" x="338.096512" xlink:href="#m4abed1d830" y="544.68"/>
      </g>
     </g>
     <g id="text_3">
      <!-- Oct -->
      <g transform="translate(329.451199 559.278437)scale(0.1 -0.1)">
       <defs>
        <path d="M 2522 4238 
Q 1834 4238 1429 3725 
Q 1025 3213 1025 2328 
Q 1025 1447 1429 934 
Q 1834 422 2522 422 
Q 3209 422 3611 934 
Q 4013 1447 4013 2328 
Q 4013 3213 3611 3725 
Q 3209 4238 2522 4238 
z
M 2522 4750 
Q 3503 4750 4090 4092 
Q 4678 3434 4678 2328 
Q 4678 1225 4090 567 
Q 3503 -91 2522 -91 
Q 1538 -91 948 565 
Q 359 1222 359 2328 
Q 359 3434 948 4092 
Q 1538 4750 2522 4750 
z
" id="DejaVuSans-4f" transform="scale(0.015625)"/>
        <path d="M 3122 3366 
L 3122 2828 
Q 2878 2963 2633 3030 
Q 2388 3097 2138 3097 
Q 1578 3097 1268 2742 
Q 959 2388 959 1747 
Q 959 1106 1268 751 
Q 1578 397 2138 397 
Q 2388 397 2633 464 
Q 2878 531 3122 666 
L 3122 134 
Q 2881 22 2623 -34 
Q 2366 -91 2075 -91 
Q 1284 -91 818 406 
Q 353 903 353 1747 
Q 353 2603 823 3093 
Q 1294 3584 2113 3584 
Q 2378 3584 2631 3529 
Q 2884 3475 3122 3366 
z
" id="DejaVuSans-63" transform="scale(0.015625)"/>
        <path d="M 1172 4494 
L 1172 3500 
L 2356 3500 
L 2356 3053 
L 1172 3053 
L 1172 1153 
Q 1172 725 1289 603 
Q 1406 481 1766 481 
L 2356 481 
L 2356 0 
L 1766 0 
Q 1100 0 847 248 
Q 594 497 594 1153 
L 594 3053 
L 172 3053 
L 172 3500 
L 594 3500 
L 594 4494 
L 1172 4494 
z
" id="DejaVuSans-74" transform="scale(0.015625)"/>
       </defs>
       <use xlink:href="#DejaVuSans-4f"/>
       <use x="78.710938" xlink:href="#DejaVuSans-63"/>
       <use x="133.691406" xlink:href="#DejaVuSans-74"/>
      </g>
     </g>
    </g>
    <g id="xtick_5">
     <g id="line2d_9">
      <path clip-path="url(#p68e2955192)" d="M 447.533721 544.68 
L 447.533721 73.44 
" style="fill:none;stroke:#b0b0b0;stroke-linecap:square;stroke-width:0.8;"/>
     </g>
     <g id="line2d_10">
      <g>
       <use style="stroke:#000000;stroke-width:0.8;" x="447.533721" xlink:href="#m4abed1d830" y="544.68"/>
      </g>
     </g>
     <g id="text_4">
      <!-- Jan -->
      <g transform="translate(439.825908 559.278437)scale(0.1 -0.1)">
       <defs>
        <path d="M 2194 1759 
Q 1497 1759 1228 1600 
Q 959 1441 959 1056 
Q 959 750 1161 570 
Q 1363 391 1709 391 
Q 2188 391 2477 730 
Q 2766 1069 2766 1631 
L 2766 1759 
L 2194 1759 
z
M 3341 1997 
L 3341 0 
L 2766 0 
L 2766 531 
Q 2569 213 2275 61 
Q 1981 -91 1556 -91 
Q 1019 -91 701 211 
Q 384 513 384 1019 
Q 384 1609 779 1909 
Q 1175 2209 1959 2209 
L 2766 2209 
L 2766 2266 
Q 2766 2663 2505 2880 
Q 2244 3097 1772 3097 
Q 1472 3097 1187 3025 
Q 903 2953 641 2809 
L 641 3341 
Q 956 3463 1253 3523 
Q 1550 3584 1831 3584 
Q 2591 3584 2966 3190 
Q 3341 2797 3341 1997 
z
" id="DejaVuSans-61" transform="scale(0.015625)"/>
        <path d="M 3513 2113 
L 3513 0 
L 2938 0 
L 2938 2094 
Q 2938 2591 2744 2837 
Q 2550 3084 2163 3084 
Q 1697 3084 1428 2787 
Q 1159 2491 1159 1978 
L 1159 0 
L 581 0 
L 581 3500 
L 1159 3500 
L 1159 2956 
Q 1366 3272 1645 3428 
Q 1925 3584 2291 3584 
Q 2894 3584 3203 3211 
Q 3513 2838 3513 2113 
z
" id="DejaVuSans-6e" transform="scale(0.015625)"/>
       </defs>
       <use xlink:href="#DejaVuSans-4a"/>
       <use x="29.492188" xlink:href="#DejaVuSans-61"/>
       <use x="90.771484" xlink:href="#DejaVuSans-6e"/>
      </g>
      <!-- 2021 -->
      <g transform="translate(434.808721 570.47625)scale(0.1 -0.1)">
       <defs>
        <path d="M 1228 531 
L 3431 531 
L 3431 0 
L 469 0 
L 469 531 
Q 828 903 1448 1529 
Q 2069 2156 2228 2338 
Q 2531 2678 2651 2914 
Q 2772 3150 2772 3378 
Q 2772 3750 2511 3984 
Q 2250 4219 1831 4219 
Q 1534 4219 1204 4116 
Q 875 4013 500 3803 
L 500 4441 
Q 881 4594 1212 4672 
Q 1544 4750 1819 4750 
Q 2544 4750 2975 4387 
Q 3406 4025 3406 3419 
Q 3406 3131 3298 2873 
Q 3191 2616 2906 2266 
Q 2828 2175 2409 1742 
Q 1991 1309 1228 531 
z
" id="DejaVuSans-32" transform="scale(0.015625)"/>
        <path d="M 2034 4250 
Q 1547 4250 1301 3770 
Q 1056 3291 1056 2328 
Q 1056 1369 1301 889 
Q 1547 409 2034 409 
Q 2525 409 2770 889 
Q 3016 1369 3016 2328 
Q 3016 3291 2770 3770 
Q 2525 4250 2034 4250 
z
M 2034 4750 
Q 2819 4750 3233 4129 
Q 3647 3509 3647 2328 
Q 3647 1150 3233 529 
Q 2819 -91 2034 -91 
Q 1250 -91 836 529 
Q 422 1150 422 2328 
Q 422 3509 836 4129 
Q 1250 4750 2034 4750 
z
" id="DejaVuSans-30" transform="scale(0.015625)"/>
        <path d="M 794 531 
L 1825 531 
L 1825 4091 
L 703 3866 
L 703 4441 
L 1819 4666 
L 2450 4666 
L 2450 531 
L 3481 531 
L 3481 0 
L 794 0 
L 794 531 
z
" id="DejaVuSans-31" transform="scale(0.015625)"/>
       </defs>
       <use xlink:href="#DejaVuSans-32"/>
       <use x="63.623047" xlink:href="#DejaVuSans-30"/>
       <use x="127.246094" xlink:href="#DejaVuSans-32"/>
       <use x="190.869141" xlink:href="#DejaVuSans-31"/>
      </g>
     </g>
    </g>
    <g id="xtick_6">
     <g id="line2d_11">
      <path clip-path="url(#p68e2955192)" d="M 554.59186 544.68 
L 554.59186 73.44 
" style="fill:none;stroke:#b0b0b0;stroke-linecap:square;stroke-width:0.8;"/>
     </g>
     <g id="line2d_12">
      <g>
       <use style="stroke:#000000;stroke-width:0.8;" x="554.59186" xlink:href="#m4abed1d830" y="544.68"/>
      </g>
     </g>
     <g id="text_5">
      <!-- Apr -->
      <g transform="translate(545.94186 559.278437)scale(0.1 -0.1)">
       <use xlink:href="#DejaVuSans-41"/>
       <use x="68.408203" xlink:href="#DejaVuSans-70"/>
       <use x="131.884766" xlink:href="#DejaVuSans-72"/>
      </g>
     </g>
    </g>
    <g id="xtick_7">
     <g id="line2d_13">
      <path clip-path="url(#p68e2955192)" d="M 662.839535 544.68 
L 662.839535 73.44 
" style="fill:none;stroke:#b0b0b0;stroke-linecap:square;stroke-width:0.8;"/>
     </g>
     <g id="line2d_14">
      <g>
       <use style="stroke:#000000;stroke-width:0.8;" x="662.839535" xlink:href="#m4abed1d830" y="544.68"/>
      </g>
     </g>
     <g id="text_6">
      <!-- Jul -->
      <g transform="translate(656.806722 559.278437)scale(0.1 -0.1)">
       <use xlink:href="#DejaVuSans-4a"/>
       <use x="29.492188" xlink:href="#DejaVuSans-75"/>
       <use x="92.871094" xlink:href="#DejaVuSans-6c"/>
      </g>
     </g>
    </g>
    <g id="xtick_8">
     <g id="line2d_15">
      <path clip-path="url(#p68e2955192)" d="M 712.8 544.68 
L 712.8 73.44 
" style="fill:none;stroke:#b0b0b0;stroke-linecap:square;stroke-width:0.8;"/>
     </g>
     <g id="line2d_16">
      <g>
       <use style="stroke:#000000;stroke-width:0.8;" x="712.8" xlink:href="#m4abed1d830" y="544.68"/>
      </g>
     </g>
    </g>
    <g id="xtick_9">
     <g id="line2d_17">
      <defs>
       <path d="M 0 0 
L 0 2 
" id="mbe9820739d" style="stroke:#000000;stroke-width:0.6;"/>
      </defs>
      <g>
       <use style="stroke:#000000;stroke-width:0.6;" x="156.097674" xlink:href="#mbe9820739d" y="544.68"/>
      </g>
     </g>
    </g>
    <g id="xtick_10">
     <g id="line2d_18">
      <g>
       <use style="stroke:#000000;stroke-width:0.6;" x="192.973256" xlink:href="#mbe9820739d" y="544.68"/>
      </g>
     </g>
    </g>
    <g id="xtick_11">
     <g id="line2d_19">
      <g>
       <use style="stroke:#000000;stroke-width:0.6;" x="265.534884" xlink:href="#mbe9820739d" y="544.68"/>
      </g>
     </g>
    </g>
    <g id="xtick_12">
     <g id="line2d_20">
      <g>
       <use style="stroke:#000000;stroke-width:0.6;" x="302.410465" xlink:href="#mbe9820739d" y="544.68"/>
      </g>
     </g>
    </g>
    <g id="xtick_13">
     <g id="line2d_21">
      <g>
       <use style="stroke:#000000;stroke-width:0.6;" x="374.972093" xlink:href="#mbe9820739d" y="544.68"/>
      </g>
     </g>
    </g>
    <g id="xtick_14">
     <g id="line2d_22">
      <g>
       <use style="stroke:#000000;stroke-width:0.6;" x="410.65814" xlink:href="#mbe9820739d" y="544.68"/>
      </g>
     </g>
    </g>
    <g id="xtick_15">
     <g id="line2d_23">
      <g>
       <use style="stroke:#000000;stroke-width:0.6;" x="484.409302" xlink:href="#mbe9820739d" y="544.68"/>
      </g>
     </g>
    </g>
    <g id="xtick_16">
     <g id="line2d_24">
      <g>
       <use style="stroke:#000000;stroke-width:0.6;" x="517.716279" xlink:href="#mbe9820739d" y="544.68"/>
      </g>
     </g>
    </g>
    <g id="xtick_17">
     <g id="line2d_25">
      <g>
       <use style="stroke:#000000;stroke-width:0.6;" x="590.277907" xlink:href="#mbe9820739d" y="544.68"/>
      </g>
     </g>
    </g>
    <g id="xtick_18">
     <g id="line2d_26">
      <g>
       <use style="stroke:#000000;stroke-width:0.6;" x="627.153488" xlink:href="#mbe9820739d" y="544.68"/>
      </g>
     </g>
    </g>
    <g id="xtick_19">
     <g id="line2d_27">
      <g>
       <use style="stroke:#000000;stroke-width:0.6;" x="699.715116" xlink:href="#mbe9820739d" y="544.68"/>
      </g>
     </g>
    </g>
    <g id="text_7">
     <!-- Date -->
     <g transform="translate(393.949219 584.154375)scale(0.1 -0.1)">
      <defs>
       <path d="M 1259 4147 
L 1259 519 
L 2022 519 
Q 2988 519 3436 956 
Q 3884 1394 3884 2338 
Q 3884 3275 3436 3711 
Q 2988 4147 2022 4147 
L 1259 4147 
z
M 628 4666 
L 1925 4666 
Q 3281 4666 3915 4102 
Q 4550 3538 4550 2338 
Q 4550 1131 3912 565 
Q 3275 0 1925 0 
L 628 0 
L 628 4666 
z
" id="DejaVuSans-44" transform="scale(0.015625)"/>
       <path d="M 3597 1894 
L 3597 1613 
L 953 1613 
Q 991 1019 1311 708 
Q 1631 397 2203 397 
Q 2534 397 2845 478 
Q 3156 559 3463 722 
L 3463 178 
Q 3153 47 2828 -22 
Q 2503 -91 2169 -91 
Q 1331 -91 842 396 
Q 353 884 353 1716 
Q 353 2575 817 3079 
Q 1281 3584 2069 3584 
Q 2775 3584 3186 3129 
Q 3597 2675 3597 1894 
z
M 3022 2063 
Q 3016 2534 2758 2815 
Q 2500 3097 2075 3097 
Q 1594 3097 1305 2825 
Q 1016 2553 972 2059 
L 3022 2063 
z
" id="DejaVuSans-65" transform="scale(0.015625)"/>
      </defs>
      <use xlink:href="#DejaVuSans-44"/>
      <use x="77.001953" xlink:href="#DejaVuSans-61"/>
      <use x="138.28125" xlink:href="#DejaVuSans-74"/>
      <use x="177.490234" xlink:href="#DejaVuSans-65"/>
     </g>
    </g>
   </g>
   <g id="matplotlib.axis_2">
    <g id="ytick_1">
     <g id="line2d_28">
      <path clip-path="url(#p68e2955192)" d="M 99 469.071167 
L 712.8 469.071167 
" style="fill:none;stroke:#b0b0b0;stroke-linecap:square;stroke-width:0.8;"/>
     </g>
     <g id="line2d_29">
      <defs>
       <path d="M 0 0 
L -3.5 0 
" id="me91a084207" style="stroke:#000000;stroke-width:0.8;"/>
      </defs>
      <g>
       <use style="stroke:#000000;stroke-width:0.8;" x="99" xlink:href="#me91a084207" y="469.071167"/>
      </g>
     </g>
     <g id="text_8">
      <!-- $\mathdefault{10^{0}}$ -->
      <g transform="translate(74.4 472.870386)scale(0.1 -0.1)">
       <use transform="translate(0 0.765625)" xlink:href="#DejaVuSans-31"/>
       <use transform="translate(63.623047 0.765625)" xlink:href="#DejaVuSans-30"/>
       <use transform="translate(128.203125 39.046875)scale(0.7)" xlink:href="#DejaVuSans-30"/>
      </g>
     </g>
    </g>
    <g id="ytick_2">
     <g id="line2d_30">
      <path clip-path="url(#p68e2955192)" d="M 99 289.059759 
L 712.8 289.059759 
" style="fill:none;stroke:#b0b0b0;stroke-linecap:square;stroke-width:0.8;"/>
     </g>
     <g id="line2d_31">
      <g>
       <use style="stroke:#000000;stroke-width:0.8;" x="99" xlink:href="#me91a084207" y="289.059759"/>
      </g>
     </g>
     <g id="text_9">
      <!-- $\mathdefault{10^{1}}$ -->
      <g transform="translate(74.4 292.858978)scale(0.1 -0.1)">
       <use transform="translate(0 0.684375)" xlink:href="#DejaVuSans-31"/>
       <use transform="translate(63.623047 0.684375)" xlink:href="#DejaVuSans-30"/>
       <use transform="translate(128.203125 38.965625)scale(0.7)" xlink:href="#DejaVuSans-31"/>
      </g>
     </g>
    </g>
    <g id="ytick_3">
     <g id="line2d_32">
      <path clip-path="url(#p68e2955192)" d="M 99 109.048352 
L 712.8 109.048352 
" style="fill:none;stroke:#b0b0b0;stroke-linecap:square;stroke-width:0.8;"/>
     </g>
     <g id="line2d_33">
      <g>
       <use style="stroke:#000000;stroke-width:0.8;" x="99" xlink:href="#me91a084207" y="109.048352"/>
      </g>
     </g>
     <g id="text_10">
      <!-- $\mathdefault{10^{2}}$ -->
      <g transform="translate(74.4 112.847571)scale(0.1 -0.1)">
       <use transform="translate(0 0.765625)" xlink:href="#DejaVuSans-31"/>
       <use transform="translate(63.623047 0.765625)" xlink:href="#DejaVuSans-30"/>
       <use transform="translate(128.203125 39.046875)scale(0.7)" xlink:href="#DejaVuSans-32"/>
      </g>
     </g>
    </g>
    <g id="ytick_4">
     <g id="line2d_34">
      <path clip-path="url(#p68e2955192)" d="M 99 540.704908 
L 712.8 540.704908 
" style="fill:none;stroke:#b0b0b0;stroke-linecap:square;stroke-width:0.8;"/>
     </g>
     <g id="line2d_35">
      <defs>
       <path d="M 0 0 
L -2 0 
" id="m0cb60b688e" style="stroke:#000000;stroke-width:0.6;"/>
      </defs>
      <g>
       <use style="stroke:#000000;stroke-width:0.6;" x="99" xlink:href="#m0cb60b688e" y="540.704908"/>
      </g>
     </g>
    </g>
    <g id="ytick_5">
     <g id="line2d_36">
      <path clip-path="url(#p68e2955192)" d="M 99 523.26 
L 712.8 523.26 
" style="fill:none;stroke:#b0b0b0;stroke-linecap:square;stroke-width:0.8;"/>
     </g>
     <g id="line2d_37">
      <g>
       <use style="stroke:#000000;stroke-width:0.6;" x="99" xlink:href="#m0cb60b688e" y="523.26"/>
      </g>
     </g>
    </g>
    <g id="ytick_6">
     <g id="line2d_38">
      <path clip-path="url(#p68e2955192)" d="M 99 509.006472 
L 712.8 509.006472 
" style="fill:none;stroke:#b0b0b0;stroke-linecap:square;stroke-width:0.8;"/>
     </g>
     <g id="line2d_39">
      <g>
       <use style="stroke:#000000;stroke-width:0.6;" x="99" xlink:href="#m0cb60b688e" y="509.006472"/>
      </g>
     </g>
    </g>
    <g id="ytick_7">
     <g id="line2d_40">
      <path clip-path="url(#p68e2955192)" d="M 99 496.955287 
L 712.8 496.955287 
" style="fill:none;stroke:#b0b0b0;stroke-linecap:square;stroke-width:0.8;"/>
     </g>
     <g id="line2d_41">
      <g>
       <use style="stroke:#000000;stroke-width:0.6;" x="99" xlink:href="#m0cb60b688e" y="496.955287"/>
      </g>
     </g>
    </g>
    <g id="ytick_8">
     <g id="line2d_42">
      <path clip-path="url(#p68e2955192)" d="M 99 486.516075 
L 712.8 486.516075 
" style="fill:none;stroke:#b0b0b0;stroke-linecap:square;stroke-width:0.8;"/>
     </g>
     <g id="line2d_43">
      <g>
       <use style="stroke:#000000;stroke-width:0.6;" x="99" xlink:href="#m0cb60b688e" y="486.516075"/>
      </g>
     </g>
    </g>
    <g id="ytick_9">
     <g id="line2d_44">
      <path clip-path="url(#p68e2955192)" d="M 99 477.308037 
L 712.8 477.308037 
" style="fill:none;stroke:#b0b0b0;stroke-linecap:square;stroke-width:0.8;"/>
     </g>
     <g id="line2d_45">
      <g>
       <use style="stroke:#000000;stroke-width:0.6;" x="99" xlink:href="#m0cb60b688e" y="477.308037"/>
      </g>
     </g>
    </g>
    <g id="ytick_10">
     <g id="line2d_46">
      <path clip-path="url(#p68e2955192)" d="M 99 414.882334 
L 712.8 414.882334 
" style="fill:none;stroke:#b0b0b0;stroke-linecap:square;stroke-width:0.8;"/>
     </g>
     <g id="line2d_47">
      <g>
       <use style="stroke:#000000;stroke-width:0.6;" x="99" xlink:href="#m0cb60b688e" y="414.882334"/>
      </g>
     </g>
    </g>
    <g id="ytick_11">
     <g id="line2d_48">
      <path clip-path="url(#p68e2955192)" d="M 99 383.183898 
L 712.8 383.183898 
" style="fill:none;stroke:#b0b0b0;stroke-linecap:square;stroke-width:0.8;"/>
     </g>
     <g id="line2d_49">
      <g>
       <use style="stroke:#000000;stroke-width:0.6;" x="99" xlink:href="#m0cb60b688e" y="383.183898"/>
      </g>
     </g>
    </g>
    <g id="ytick_12">
     <g id="line2d_50">
      <path clip-path="url(#p68e2955192)" d="M 99 360.6935 
L 712.8 360.6935 
" style="fill:none;stroke:#b0b0b0;stroke-linecap:square;stroke-width:0.8;"/>
     </g>
     <g id="line2d_51">
      <g>
       <use style="stroke:#000000;stroke-width:0.6;" x="99" xlink:href="#m0cb60b688e" y="360.6935"/>
      </g>
     </g>
    </g>
    <g id="ytick_13">
     <g id="line2d_52">
      <path clip-path="url(#p68e2955192)" d="M 99 343.248593 
L 712.8 343.248593 
" style="fill:none;stroke:#b0b0b0;stroke-linecap:square;stroke-width:0.8;"/>
     </g>
     <g id="line2d_53">
      <g>
       <use style="stroke:#000000;stroke-width:0.6;" x="99" xlink:href="#m0cb60b688e" y="343.248593"/>
      </g>
     </g>
    </g>
    <g id="ytick_14">
     <g id="line2d_54">
      <path clip-path="url(#p68e2955192)" d="M 99 328.995065 
L 712.8 328.995065 
" style="fill:none;stroke:#b0b0b0;stroke-linecap:square;stroke-width:0.8;"/>
     </g>
     <g id="line2d_55">
      <g>
       <use style="stroke:#000000;stroke-width:0.6;" x="99" xlink:href="#m0cb60b688e" y="328.995065"/>
      </g>
     </g>
    </g>
    <g id="ytick_15">
     <g id="line2d_56">
      <path clip-path="url(#p68e2955192)" d="M 99 316.943879 
L 712.8 316.943879 
" style="fill:none;stroke:#b0b0b0;stroke-linecap:square;stroke-width:0.8;"/>
     </g>
     <g id="line2d_57">
      <g>
       <use style="stroke:#000000;stroke-width:0.6;" x="99" xlink:href="#m0cb60b688e" y="316.943879"/>
      </g>
     </g>
    </g>
    <g id="ytick_16">
     <g id="line2d_58">
      <path clip-path="url(#p68e2955192)" d="M 99 306.504667 
L 712.8 306.504667 
" style="fill:none;stroke:#b0b0b0;stroke-linecap:square;stroke-width:0.8;"/>
     </g>
     <g id="line2d_59">
      <g>
       <use style="stroke:#000000;stroke-width:0.6;" x="99" xlink:href="#m0cb60b688e" y="306.504667"/>
      </g>
     </g>
    </g>
    <g id="ytick_17">
     <g id="line2d_60">
      <path clip-path="url(#p68e2955192)" d="M 99 297.29663 
L 712.8 297.29663 
" style="fill:none;stroke:#b0b0b0;stroke-linecap:square;stroke-width:0.8;"/>
     </g>
     <g id="line2d_61">
      <g>
       <use style="stroke:#000000;stroke-width:0.6;" x="99" xlink:href="#m0cb60b688e" y="297.29663"/>
      </g>
     </g>
    </g>
    <g id="ytick_18">
     <g id="line2d_62">
      <path clip-path="url(#p68e2955192)" d="M 99 234.870926 
L 712.8 234.870926 
" style="fill:none;stroke:#b0b0b0;stroke-linecap:square;stroke-width:0.8;"/>
     </g>
     <g id="line2d_63">
      <g>
       <use style="stroke:#000000;stroke-width:0.6;" x="99" xlink:href="#m0cb60b688e" y="234.870926"/>
      </g>
     </g>
    </g>
    <g id="ytick_19">
     <g id="line2d_64">
      <path clip-path="url(#p68e2955192)" d="M 99 203.172491 
L 712.8 203.172491 
" style="fill:none;stroke:#b0b0b0;stroke-linecap:square;stroke-width:0.8;"/>
     </g>
     <g id="line2d_65">
      <g>
       <use style="stroke:#000000;stroke-width:0.6;" x="99" xlink:href="#m0cb60b688e" y="203.172491"/>
      </g>
     </g>
    </g>
    <g id="ytick_20">
     <g id="line2d_66">
      <path clip-path="url(#p68e2955192)" d="M 99 180.682093 
L 712.8 180.682093 
" style="fill:none;stroke:#b0b0b0;stroke-linecap:square;stroke-width:0.8;"/>
     </g>
     <g id="line2d_67">
      <g>
       <use style="stroke:#000000;stroke-width:0.6;" x="99" xlink:href="#m0cb60b688e" y="180.682093"/>
      </g>
     </g>
    </g>
    <g id="ytick_21">
     <g id="line2d_68">
      <path clip-path="url(#p68e2955192)" d="M 99 163.237185 
L 712.8 163.237185 
" style="fill:none;stroke:#b0b0b0;stroke-linecap:square;stroke-width:0.8;"/>
     </g>
     <g id="line2d_69">
      <g>
       <use style="stroke:#000000;stroke-width:0.6;" x="99" xlink:href="#m0cb60b688e" y="163.237185"/>
      </g>
     </g>
    </g>
    <g id="ytick_22">
     <g id="line2d_70">
      <path clip-path="url(#p68e2955192)" d="M 99 148.983658 
L 712.8 148.983658 
" style="fill:none;stroke:#b0b0b0;stroke-linecap:square;stroke-width:0.8;"/>
     </g>
     <g id="line2d_71">
      <g>
       <use style="stroke:#000000;stroke-width:0.6;" x="99" xlink:href="#m0cb60b688e" y="148.983658"/>
      </g>
     </g>
    </g>
    <g id="ytick_23">
     <g id="line2d_72">
      <path clip-path="url(#p68e2955192)" d="M 99 136.932472 
L 712.8 136.932472 
" style="fill:none;stroke:#b0b0b0;stroke-linecap:square;stroke-width:0.8;"/>
     </g>
     <g id="line2d_73">
      <g>
       <use style="stroke:#000000;stroke-width:0.6;" x="99" xlink:href="#m0cb60b688e" y="136.932472"/>
      </g>
     </g>
    </g>
    <g id="ytick_24">
     <g id="line2d_74">
      <path clip-path="url(#p68e2955192)" d="M 99 126.49326 
L 712.8 126.49326 
" style="fill:none;stroke:#b0b0b0;stroke-linecap:square;stroke-width:0.8;"/>
     </g>
     <g id="line2d_75">
      <g>
       <use style="stroke:#000000;stroke-width:0.6;" x="99" xlink:href="#m0cb60b688e" y="126.49326"/>
      </g>
     </g>
    </g>
    <g id="ytick_25">
     <g id="line2d_76">
      <path clip-path="url(#p68e2955192)" d="M 99 117.285222 
L 712.8 117.285222 
" style="fill:none;stroke:#b0b0b0;stroke-linecap:square;stroke-width:0.8;"/>
     </g>
     <g id="line2d_77">
      <g>
       <use style="stroke:#000000;stroke-width:0.6;" x="99" xlink:href="#m0cb60b688e" y="117.285222"/>
      </g>
     </g>
    </g>
   </g>
   <g id="line2d_78">
    <path clip-path="url(#p68e2955192)" d="M 123.979639 613 
L 123.980233 523.26 
L 123.980826 613 
M 126.358709 613 
L 126.359302 523.26 
L 127.548837 469.071167 
L 128.738372 469.071167 
L 129.927907 437.372731 
L 131.117442 469.071167 
L 137.065116 469.071167 
L 138.254651 523.26 
L 139.444186 523.26 
L 139.444779 613 
M 153.718011 613 
L 153.718605 523.26 
L 154.90814 523.26 
L 154.908733 613 
M 227.469174 613 
L 227.469767 523.26 
L 228.659302 469.071167 
L 229.848837 437.372731 
L 231.038372 414.882334 
L 232.227907 437.372731 
L 233.417442 437.372731 
L 234.606977 414.882334 
L 235.796512 414.882334 
L 236.986047 397.437426 
L 239.365116 343.248593 
L 240.554651 328.995065 
L 241.744186 328.995065 
L 242.933721 311.550157 
L 244.123256 289.059759 
L 245.312791 289.059759 
L 246.502326 274.806232 
L 247.69186 271.614852 
L 248.881395 262.755046 
L 254.82907 262.755046 
L 256.018605 271.614852 
L 257.20814 281.608604 
L 258.397674 285.245444 
L 259.587209 285.245444 
L 260.776744 293.069765 
L 261.966279 289.059759 
L 263.155814 293.069765 
L 267.913953 293.069765 
L 269.103488 289.059759 
L 270.293023 289.059759 
L 271.482558 274.806232 
L 273.861628 274.806232 
L 275.051163 260.011678 
L 276.240698 249.910169 
L 277.430233 240.965801 
L 278.619767 240.965801 
L 279.809302 234.870926 
L 286.946512 234.870926 
L 288.136047 220.617399 
L 289.325581 204.486437 
L 291.704651 204.486437 
L 292.894186 211.409361 
L 296.462791 211.409361 
L 297.652326 229.217044 
L 298.84186 208.566213 
L 301.22093 208.566213 
L 302.410465 238.880931 
L 303.6 293.069765 
L 304.789535 335.797437 
L 305.97907 343.248593 
L 307.168605 335.797437 
L 309.547674 335.797437 
L 310.737209 343.248593 
L 311.926744 335.797437 
L 313.116279 343.248593 
L 315.495349 343.248593 
L 316.684884 351.485463 
L 317.874419 360.6935 
L 319.063953 343.248593 
L 321.443023 343.248593 
L 322.632558 328.995065 
L 323.822093 343.248593 
L 325.011628 343.248593 
L 326.201163 397.437426 
L 327.390698 343.248593 
L 328.580233 343.248593 
L 329.769767 371.132712 
L 330.959302 328.995065 
L 334.527907 328.995065 
L 335.717442 371.132712 
L 338.096512 371.132712 
L 339.286047 523.26 
L 340.475581 469.071167 
L 341.665116 523.26 
L 342.854651 523.26 
L 342.855244 613 
M 346.422663 613 
L 346.423256 523.26 
L 346.423849 613 
M 360.697081 613 
L 360.697674 523.26 
L 360.698268 613 
M 364.265686 613 
L 364.266279 523.26 
L 364.266872 613 
M 367.834291 613 
L 367.834884 523.26 
L 369.024419 523.26 
L 370.213953 437.372731 
L 371.403488 469.071167 
L 372.593023 414.882334 
L 377.351163 414.882334 
L 378.540698 397.437426 
L 379.730233 414.882334 
L 385.677907 414.882334 
L 386.867442 469.071167 
L 395.194186 469.071167 
L 396.383721 360.6935 
L 397.573256 316.943879 
L 398.762791 316.943879 
L 399.952326 306.504667 
L 401.14186 306.504667 
L 402.331395 301.765158 
L 404.710465 301.765158 
L 405.9 316.943879 
L 407.089535 311.550157 
L 409.468605 311.550157 
L 410.65814 328.995065 
L 411.847674 328.995065 
L 413.037209 343.248593 
L 414.226744 343.248593 
L 415.416279 371.132712 
L 416.605814 437.372731 
L 417.795349 414.882334 
L 418.984884 414.882334 
L 421.363953 274.806232 
L 422.553488 240.965801 
L 423.743023 274.806232 
L 424.932558 274.806232 
L 426.122093 247.576325 
L 427.311628 236.850221 
L 428.501163 247.576325 
L 429.690698 236.850221 
L 433.259302 236.850221 
L 434.448837 247.576325 
L 435.638372 260.011678 
L 438.017442 260.011678 
L 439.206977 271.614852 
L 441.586047 271.614852 
L 443.965116 285.245444 
L 445.154651 278.133456 
L 446.344186 278.133456 
L 447.533721 285.245444 
L 448.723256 301.765158 
L 449.912791 335.797437 
L 451.102326 335.797437 
L 452.29186 397.437426 
L 452.293284 613 
M 476.080831 613 
L 476.082558 351.485463 
L 478.461628 351.485463 
L 479.651163 289.059759 
L 480.840698 271.614852 
L 482.030233 271.614852 
L 483.219767 289.059759 
L 484.409302 271.614852 
L 485.598837 289.059759 
L 486.788372 316.943879 
L 487.977907 293.069765 
L 489.167442 297.29663 
L 490.356977 316.943879 
L 491.546512 297.29663 
L 492.736047 316.943879 
L 501.062791 316.943879 
L 503.44186 328.995065 
L 504.631395 328.995065 
L 505.82093 306.504667 
L 507.010465 306.504667 
L 508.2 437.372731 
L 509.389535 371.132712 
L 510.57907 371.132712 
L 511.768605 316.943879 
L 512.95814 316.943879 
L 514.147674 371.132712 
L 515.337209 316.943879 
L 516.526744 316.943879 
L 517.716279 371.132712 
L 518.905814 371.132712 
L 520.095349 316.943879 
L 521.284884 322.737489 
L 524.853488 322.737489 
L 526.043023 293.069765 
L 527.232558 351.485463 
L 528.422093 351.485463 
L 529.611628 383.183898 
L 530.801163 328.995065 
L 531.990698 383.183898 
L 535.559302 383.183898 
L 535.56082 613 
M 604.550902 613 
L 604.552326 397.437426 
L 606.931395 397.437426 
L 606.932819 613 
M 612.877646 613 
L 612.87907 397.437426 
L 614.068605 397.437426 
L 614.070029 613 
M 642.615567 613 
L 642.617442 328.995065 
L 644.996512 328.995065 
L 646.186047 274.806232 
L 650.944186 274.806232 
L 652.133721 297.29663 
L 653.323256 335.797437 
L 658.081395 335.797437 
L 659.27093 351.485463 
L 660.460465 351.485463 
L 661.65 414.882334 
L 662.839535 414.882334 
L 662.840844 613 
M 678.301707 613 
L 678.303488 343.248593 
L 683.061628 343.248593 
L 684.251163 271.614852 
L 685.440698 271.614852 
L 686.630233 343.248593 
L 687.819767 271.614852 
L 689.009302 343.248593 
L 692.577907 343.248593 
L 692.579688 613 
M 703.281666 613 
L 703.283721 301.765158 
L 704.473256 301.765158 
L 705.662791 225.662889 
L 709.231395 225.662889 
L 710.42093 200.609049 
L 712.8 200.609049 
L 712.8 200.609049 
" style="fill:none;stroke:#1f77b4;stroke-linecap:square;stroke-width:1.5;"/>
   </g>
   <g id="line2d_79">
    <path clip-path="url(#p68e2955192)" d="M 0 0 
" style="fill:none;stroke:#ff7f0e;stroke-linecap:square;stroke-width:1.5;"/>
   </g>
   <g id="patch_3">
    <path d="M 99 544.68 
L 99 73.44 
" style="fill:none;stroke:#000000;stroke-linecap:square;stroke-linejoin:miter;stroke-width:0.8;"/>
   </g>
   <g id="patch_4">
    <path d="M 712.8 544.68 
L 712.8 73.44 
" style="fill:none;stroke:#000000;stroke-linecap:square;stroke-linejoin:miter;stroke-width:0.8;"/>
   </g>
   <g id="patch_5">
    <path d="M 99 544.68 
L 712.8 544.68 
" style="fill:none;stroke:#000000;stroke-linecap:square;stroke-linejoin:miter;stroke-width:0.8;"/>
   </g>
   <g id="patch_6">
    <path d="M 99 73.44 
L 712.8 73.44 
" style="fill:none;stroke:#000000;stroke-linecap:square;stroke-linejoin:miter;stroke-width:0.8;"/>
   </g>
   <g id="legend_1">
    <g id="patch_7">
     <path d="M 616.653125 110.79625 
L 705.8 110.79625 
Q 707.8 110.79625 707.8 108.79625 
L 707.8 80.44 
Q 707.8 78.44 705.8 78.44 
L 616.653125 78.44 
Q 614.653125 78.44 614.653125 80.44 
L 614.653125 108.79625 
Q 614.653125 110.79625 616.653125 110.79625 
z
" style="fill:#ffffff;opacity:0.8;stroke:#cccccc;stroke-linejoin:miter;"/>
    </g>
    <g id="line2d_80">
     <path d="M 618.653125 86.538437 
L 638.653125 86.538437 
" style="fill:none;stroke:#1f77b4;stroke-linecap:square;stroke-width:1.5;"/>
    </g>
    <g id="line2d_81"/>
    <g id="text_11">
     <!-- Avg Cases -->
     <g transform="translate(646.653125 90.038437)scale(0.1 -0.1)">
      <defs>
       <path d="M 191 3500 
L 800 3500 
L 1894 563 
L 2988 3500 
L 3597 3500 
L 2284 0 
L 1503 0 
L 191 3500 
z
" id="DejaVuSans-76" transform="scale(0.015625)"/>
       <path d="M 2906 1791 
Q 2906 2416 2648 2759 
Q 2391 3103 1925 3103 
Q 1463 3103 1205 2759 
Q 947 2416 947 1791 
Q 947 1169 1205 825 
Q 1463 481 1925 481 
Q 2391 481 2648 825 
Q 2906 1169 2906 1791 
z
M 3481 434 
Q 3481 -459 3084 -895 
Q 2688 -1331 1869 -1331 
Q 1566 -1331 1297 -1286 
Q 1028 -1241 775 -1147 
L 775 -588 
Q 1028 -725 1275 -790 
Q 1522 -856 1778 -856 
Q 2344 -856 2625 -561 
Q 2906 -266 2906 331 
L 2906 616 
Q 2728 306 2450 153 
Q 2172 0 1784 0 
Q 1141 0 747 490 
Q 353 981 353 1791 
Q 353 2603 747 3093 
Q 1141 3584 1784 3584 
Q 2172 3584 2450 3431 
Q 2728 3278 2906 2969 
L 2906 3500 
L 3481 3500 
L 3481 434 
z
" id="DejaVuSans-67" transform="scale(0.015625)"/>
       <path id="DejaVuSans-20" transform="scale(0.015625)"/>
       <path d="M 4122 4306 
L 4122 3641 
Q 3803 3938 3442 4084 
Q 3081 4231 2675 4231 
Q 1875 4231 1450 3742 
Q 1025 3253 1025 2328 
Q 1025 1406 1450 917 
Q 1875 428 2675 428 
Q 3081 428 3442 575 
Q 3803 722 4122 1019 
L 4122 359 
Q 3791 134 3420 21 
Q 3050 -91 2638 -91 
Q 1578 -91 968 557 
Q 359 1206 359 2328 
Q 359 3453 968 4101 
Q 1578 4750 2638 4750 
Q 3056 4750 3426 4639 
Q 3797 4528 4122 4306 
z
" id="DejaVuSans-43" transform="scale(0.015625)"/>
       <path d="M 2834 3397 
L 2834 2853 
Q 2591 2978 2328 3040 
Q 2066 3103 1784 3103 
Q 1356 3103 1142 2972 
Q 928 2841 928 2578 
Q 928 2378 1081 2264 
Q 1234 2150 1697 2047 
L 1894 2003 
Q 2506 1872 2764 1633 
Q 3022 1394 3022 966 
Q 3022 478 2636 193 
Q 2250 -91 1575 -91 
Q 1294 -91 989 -36 
Q 684 19 347 128 
L 347 722 
Q 666 556 975 473 
Q 1284 391 1588 391 
Q 1994 391 2212 530 
Q 2431 669 2431 922 
Q 2431 1156 2273 1281 
Q 2116 1406 1581 1522 
L 1381 1569 
Q 847 1681 609 1914 
Q 372 2147 372 2553 
Q 372 3047 722 3315 
Q 1072 3584 1716 3584 
Q 2034 3584 2315 3537 
Q 2597 3491 2834 3397 
z
" id="DejaVuSans-73" transform="scale(0.015625)"/>
      </defs>
      <use xlink:href="#DejaVuSans-41"/>
      <use x="62.533203" xlink:href="#DejaVuSans-76"/>
      <use x="121.712891" xlink:href="#DejaVuSans-67"/>
      <use x="185.189453" xlink:href="#DejaVuSans-20"/>
      <use x="216.976562" xlink:href="#DejaVuSans-43"/>
      <use x="286.800781" xlink:href="#DejaVuSans-61"/>
      <use x="348.080078" xlink:href="#DejaVuSans-73"/>
      <use x="400.179688" xlink:href="#DejaVuSans-65"/>
      <use x="461.703125" xlink:href="#DejaVuSans-73"/>
     </g>
    </g>
    <g id="line2d_82">
     <path d="M 618.653125 101.216562 
L 638.653125 101.216562 
" style="fill:none;stroke:#ff7f0e;stroke-linecap:square;stroke-width:1.5;"/>
    </g>
    <g id="line2d_83"/>
    <g id="text_12">
     <!-- Avg Deaths -->
     <g transform="translate(646.653125 104.716562)scale(0.1 -0.1)">
      <defs>
       <path d="M 3513 2113 
L 3513 0 
L 2938 0 
L 2938 2094 
Q 2938 2591 2744 2837 
Q 2550 3084 2163 3084 
Q 1697 3084 1428 2787 
Q 1159 2491 1159 1978 
L 1159 0 
L 581 0 
L 581 4863 
L 1159 4863 
L 1159 2956 
Q 1366 3272 1645 3428 
Q 1925 3584 2291 3584 
Q 2894 3584 3203 3211 
Q 3513 2838 3513 2113 
z
" id="DejaVuSans-68" transform="scale(0.015625)"/>
      </defs>
      <use xlink:href="#DejaVuSans-41"/>
      <use x="62.533203" xlink:href="#DejaVuSans-76"/>
      <use x="121.712891" xlink:href="#DejaVuSans-67"/>
      <use x="185.189453" xlink:href="#DejaVuSans-20"/>
      <use x="216.976562" xlink:href="#DejaVuSans-44"/>
      <use x="293.978516" xlink:href="#DejaVuSans-65"/>
      <use x="355.501953" xlink:href="#DejaVuSans-61"/>
      <use x="416.78125" xlink:href="#DejaVuSans-74"/>
      <use x="455.990234" xlink:href="#DejaVuSans-68"/>
      <use x="519.369141" xlink:href="#DejaVuSans-73"/>
     </g>
    </g>
   </g>
  </g>
 </g>
 <defs>
  <clipPath id="p68e2955192">
   <rect height="471.24" width="613.8" x="99" y="73.44"/>
  </clipPath>
 </defs>
</svg>
