<?xml version="1.0" encoding="utf-8" standalone="no"?>
<!DOCTYPE svg PUBLIC "-//W3C//DTD SVG 1.1//EN"
  "http://www.w3.org/Graphics/SVG/1.1/DTD/svg11.dtd">
<svg height="612pt" version="1.1" viewBox="0 0 792 612" width="792pt" xmlns="http://www.w3.org/2000/svg" xmlns:xlink="http://www.w3.org/1999/xlink">
 <metadata>
  <rdf:RDF xmlns:cc="http://creativecommons.org/ns#" xmlns:dc="http://purl.org/dc/elements/1.1/" xmlns:rdf="http://www.w3.org/1999/02/22-rdf-syntax-ns#">
   <cc:Work>
    <dc:type rdf:resource="http://purl.org/dc/dcmitype/StillImage"/>
    <dc:format>image/svg+xml</dc:format>
    <dc:creator>
     <cc:Agent>
      <dc:title>Matplotlib v3.4.2, https://matplotlib.org/</dc:title>
     </cc:Agent>
    </dc:creator>
   </cc:Work>
  </rdf:RDF>
 </metadata>
 <defs>
  <style type="text/css">*{stroke-linecap:butt;stroke-linejoin:round;}</style>
 </defs>
 <g id="figure_1">
  <g id="patch_1">
   <path d="M 0 612 
L 792 612 
L 792 0 
L 0 0 
z
" style="fill:#ffffff;"/>
  </g>
  <g id="axes_1">
   <g id="patch_2">
    <path d="M 99 544.68 
L 712.8 544.68 
L 712.8 73.44 
L 99 73.44 
z
" style="fill:#ffffff;"/>
   </g>
   <g id="PolyCollection_1">
    <path clip-path="url(#p68e2955192)" d="M 99 180480.478538 
L 99 180480.478538 
L 100.1625 180480.478538 
L 101.325 180480.478538 
L 102.4875 180480.478538 
L 103.65 180480.478538 
L 104.8125 180480.478538 
L 105.975 180480.478538 
L 107.1375 180480.478538 
L 108.3 180480.478538 
L 109.4625 180480.478538 
L 110.625 180480.478538 
L 111.7875 180480.478538 
L 112.95 180480.478538 
L 114.1125 391.420769 
L 115.275 391.420769 
L 116.4375 366.788375 
L 117.6 327.702838 
L 118.7625 327.702838 
L 119.925 327.702838 
L 121.0875 316.943879 
L 122.25 316.943879 
L 123.4125 316.943879 
L 124.575 327.702838 
L 125.7375 327.702838 
L 126.9 327.702838 
L 128.0625 327.702838 
L 129.225 327.702838 
L 130.3875 327.702838 
L 131.55 327.702838 
L 132.7125 327.702838 
L 133.875 360.6935 
L 135.0375 360.6935 
L 136.2 360.6935 
L 137.3625 373.398899 
L 138.525 373.398899 
L 139.6875 414.882334 
L 140.85 414.882334 
L 142.0125 427.587732 
L 143.175 427.587732 
L 144.3375 427.587732 
L 145.5 469.071167 
L 146.6625 469.071167 
L 147.825 427.587732 
L 148.9875 414.882334 
L 150.15 414.882334 
L 151.3125 414.882334 
L 152.475 391.420769 
L 153.6375 391.420769 
L 154.8 391.420769 
L 155.9625 391.420769 
L 157.125 391.420769 
L 158.2875 391.420769 
L 159.45 391.420769 
L 160.6125 391.420769 
L 161.775 391.420769 
L 162.9375 391.420769 
L 164.1 391.420769 
L 165.2625 391.420769 
L 166.425 391.420769 
L 167.5875 427.587732 
L 168.75 496.955287 
L 169.9125 496.955287 
L 171.075 496.955287 
L 172.2375 496.955287 
L 173.4 496.955287 
L 174.5625 496.955287 
L 175.725 496.955287 
L 176.8875 496.955287 
L 178.05 180480.478538 
L 179.2125 180480.478538 
L 180.375 180480.478538 
L 181.5375 180480.478538 
L 182.7 180480.478538 
L 183.8625 180480.478538 
L 185.025 180480.478538 
L 186.1875 180480.478538 
L 187.35 180480.478538 
L 188.5125 180480.478538 
L 189.675 180480.478538 
L 190.8375 180480.478538 
L 192 180480.478538 
L 193.1625 496.955287 
L 194.325 496.955287 
L 195.4875 496.955287 
L 196.65 496.955287 
L 197.8125 496.955287 
L 198.975 496.955287 
L 200.1375 469.071167 
L 201.3 469.071167 
L 202.4625 469.071167 
L 203.625 469.071167 
L 204.7875 496.955287 
L 205.95 469.071167 
L 207.1125 469.071167 
L 208.275 469.071167 
L 209.4375 496.955287 
L 210.6 469.071167 
L 211.7625 469.071167 
L 212.925 469.071167 
L 214.0875 469.071167 
L 215.25 469.071167 
L 216.4125 427.587732 
L 217.575 414.882334 
L 218.7375 414.882334 
L 219.9 414.882334 
L 221.0625 414.882334 
L 222.225 414.882334 
L 223.3875 414.882334 
L 224.55 391.420769 
L 225.7125 391.420769 
L 226.875 341.700464 
L 228.0375 328.995065 
L 229.2 328.995065 
L 230.3625 328.995065 
L 231.525 328.995065 
L 232.6875 328.995065 
L 233.85 282.322563 
L 235.0125 276.120178 
L 236.175 264.448498 
L 237.3375 262.755046 
L 238.5 236.450333 
L 239.6625 236.450333 
L 240.825 220.292334 
L 241.9875 220.292334 
L 243.15 220.292334 
L 244.3125 220.292334 
L 245.475 220.292334 
L 246.6375 220.292334 
L 247.8 220.292334 
L 248.9625 220.292334 
L 250.125 215.267121 
L 251.2875 215.267121 
L 252.45 215.267121 
L 253.6125 215.267121 
L 254.775 219.968615 
L 255.9375 219.968615 
L 257.1 242.243943 
L 258.2625 242.243943 
L 259.425 242.243943 
L 260.5875 239.293481 
L 261.75 238.062307 
L 262.9125 238.062307 
L 264.075 234.48101 
L 265.2375 223.605455 
L 266.4 223.605455 
L 267.5625 223.605455 
L 268.725 223.605455 
L 269.8875 223.605455 
L 271.05 223.605455 
L 272.2125 209.974863 
L 273.375 190.454064 
L 274.5375 190.454064 
L 275.7 155.078532 
L 276.8625 155.078532 
L 278.025 155.078532 
L 279.1875 155.078532 
L 280.35 155.078532 
L 281.5125 155.078532 
L 282.675 155.928301 
L 283.8375 153.820951 
L 285 143.451076 
L 286.1625 143.451076 
L 287.325 143.451076 
L 288.4875 143.451076 
L 289.65 151.904057 
L 290.8125 151.904057 
L 291.975 173.587102 
L 293.1375 173.587102 
L 294.3 161.230533 
L 295.4625 161.230533 
L 296.625 161.230533 
L 297.7875 161.230533 
L 298.95 161.230533 
L 300.1125 161.230533 
L 301.275 178.561229 
L 302.4375 178.561229 
L 303.6 178.561229 
L 304.7625 178.561229 
L 305.925 187.626736 
L 307.0875 187.626736 
L 308.25 251.828742 
L 309.4125 251.828742 
L 310.575 251.828742 
L 311.7375 251.828742 
L 312.9 251.828742 
L 314.0625 251.828742 
L 315.225 251.828742 
L 316.3875 251.828742 
L 317.55 241.38953 
L 318.7125 245.310138 
L 319.875 248.037553 
L 321.0375 248.037553 
L 322.2 248.037553 
L 323.3625 248.037553 
L 324.525 248.037553 
L 325.6875 248.037553 
L 326.85 248.037553 
L 328.0125 248.037553 
L 329.175 248.037553 
L 330.3375 248.037553 
L 331.5 248.037553 
L 332.6625 248.037553 
L 333.825 274.806232 
L 334.9875 274.806232 
L 336.15 280.901106 
L 337.3125 280.901106 
L 338.475 283.043102 
L 339.6375 312.599542 
L 340.8 312.599542 
L 341.9625 326.431624 
L 343.125 427.587732 
L 344.2875 427.587732 
L 345.45 427.587732 
L 346.6125 391.420769 
L 347.775 391.420769 
L 348.9375 427.587732 
L 350.1 427.587732 
L 351.2625 391.420769 
L 352.425 391.420769 
L 353.5875 391.420769 
L 354.75 391.420769 
L 355.9125 391.420769 
L 357.075 341.700464 
L 358.2375 341.700464 
L 359.4 341.700464 
L 360.5625 341.700464 
L 361.725 341.700464 
L 362.8875 341.700464 
L 364.05 341.700464 
L 365.2125 341.700464 
L 366.375 328.995065 
L 367.5375 305.5335 
L 368.7 305.5335 
L 369.8625 305.5335 
L 371.025 297.29663 
L 372.1875 297.29663 
L 373.35 297.29663 
L 374.5125 297.29663 
L 375.675 271.614852 
L 376.8375 271.614852 
L 378 271.614852 
L 379.1625 271.614852 
L 380.325 271.614852 
L 381.4875 271.614852 
L 382.65 264.448498 
L 383.8125 276.120178 
L 384.975 276.120178 
L 386.1375 276.120178 
L 387.3 260.552704 
L 388.4625 260.552704 
L 389.625 260.552704 
L 390.7875 260.552704 
L 391.95 268.548656 
L 393.1125 268.548656 
L 394.275 268.548656 
L 395.4375 264.448498 
L 396.6 264.448498 
L 397.7625 264.448498 
L 398.925 264.448498 
L 400.0875 255.303891 
L 401.25 255.303891 
L 402.4125 255.303891 
L 403.575 264.448498 
L 404.7375 245.310138 
L 405.9 245.310138 
L 407.0625 225.662889 
L 408.225 225.662889 
L 409.3875 225.662889 
L 410.55 197.155834 
L 411.7125 192.246187 
L 412.875 192.246187 
L 414.0375 189.573176 
L 415.2 184.486637 
L 416.3625 184.486637 
L 417.525 184.486637 
L 418.6875 184.486637 
L 419.85 184.486637 
L 421.0125 189.573176 
L 422.175 170.096435 
L 423.3375 170.096435 
L 424.5 170.096435 
L 425.6625 170.096435 
L 426.825 170.610202 
L 427.9875 170.610202 
L 429.15 170.610202 
L 430.3125 177.615898 
L 431.475 228.493169 
L 432.6375 228.493169 
L 433.8 228.493169 
L 434.9625 228.493169 
L 436.125 232.940508 
L 437.2875 207.733047 
L 438.45 228.493169 
L 439.6125 235.656641 
L 440.775 235.656641 
L 441.9375 235.656641 
L 443.1 235.656641 
L 444.2625 235.656641 
L 445.425 235.656641 
L 446.5875 241.815569 
L 447.75 249.910169 
L 448.9125 249.910169 
L 450.075 249.910169 
L 451.2375 249.910169 
L 452.4 208.566213 
L 453.5625 249.910169 
L 454.725 333.00507 
L 455.8875 356.879185 
L 457.05 180480.478538 
L 458.2125 141.769765 
L 459.375 141.769765 
L 460.5375 133.973738 
L 461.7 133.973738 
L 462.8625 133.973738 
L 464.025 133.973738 
L 465.1875 133.973738 
L 466.35 133.973738 
L 467.5125 133.973738 
L 468.675 223.944623 
L 469.8375 223.944623 
L 471 223.944623 
L 472.1625 223.944623 
L 473.325 223.944623 
L 474.4875 224.971044 
L 475.65 223.944623 
L 476.8125 224.971044 
L 477.975 227.065222 
L 479.1375 227.065222 
L 480.3 227.065222 
L 481.4625 233.706965 
L 482.625 230.315582 
L 483.7875 230.315582 
L 484.95 241.38953 
L 486.1125 241.38953 
L 487.275 236.05248 
L 488.4375 234.870926 
L 489.6 234.870926 
L 490.7625 234.870926 
L 491.925 236.05248 
L 493.0875 236.05248 
L 494.25 236.05248 
L 495.4125 236.05248 
L 496.575 236.05248 
L 497.7375 236.05248 
L 498.9 236.05248 
L 500.0625 236.05248 
L 501.225 238.470547 
L 502.3875 234.870926 
L 503.55 238.470547 
L 504.7125 247.576325 
L 505.875 247.576325 
L 507.0375 247.576325 
L 508.2 253.299218 
L 509.3625 253.299218 
L 510.525 206.09289 
L 511.6875 206.09289 
L 512.85 209.408353 
L 514.0125 209.408353 
L 515.175 209.408353 
L 516.3375 196.196583 
L 517.5 196.196583 
L 518.6625 217.739357 
L 519.825 219.646231 
L 520.9875 219.646231 
L 522.15 219.646231 
L 523.3125 219.646231 
L 524.475 219.646231 
L 525.6375 219.646231 
L 526.8 283.770344 
L 527.9625 283.770344 
L 529.125 293.069765 
L 530.2875 293.069765 
L 531.45 293.069765 
L 532.6125 328.995065 
L 533.775 328.995065 
L 534.9375 328.995065 
L 536.1 351.485463 
L 537.2625 306.504667 
L 538.425 272.24279 
L 539.5875 272.24279 
L 540.75 272.24279 
L 541.9125 272.24279 
L 543.075 272.24279 
L 544.2375 272.24279 
L 545.4 272.24279 
L 546.5625 272.24279 
L 547.725 272.24279 
L 548.8875 201.880264 
L 550.05 201.880264 
L 551.2125 272.24279 
L 552.375 227.065222 
L 553.5375 227.065222 
L 554.7 234.870926 
L 555.8625 242.243943 
L 557.025 212.282867 
L 558.1875 212.282867 
L 559.35 212.282867 
L 560.5125 212.282867 
L 561.675 212.282867 
L 562.8375 212.282867 
L 564 212.282867 
L 565.1625 222.931503 
L 566.325 222.931503 
L 567.4875 222.931503 
L 568.65 220.617399 
L 569.8125 220.617399 
L 570.975 220.617399 
L 572.1375 220.617399 
L 573.3 232.940508 
L 574.4625 232.940508 
L 575.625 232.940508 
L 576.7875 237.656186 
L 577.95 215.877889 
L 579.1125 215.877889 
L 580.275 215.877889 
L 581.4375 215.877889 
L 582.6 215.877889 
L 583.7625 215.877889 
L 584.925 236.450333 
L 586.0875 236.450333 
L 587.25 205.822845 
L 588.4125 205.822845 
L 589.575 205.018262 
L 590.7375 205.018262 
L 591.9 205.018262 
L 593.0625 205.018262 
L 594.225 223.944623 
L 595.3875 223.944623 
L 596.55 223.944623 
L 597.7125 223.944623 
L 598.875 223.944623 
L 600.0375 223.944623 
L 601.2 223.944623 
L 602.3625 223.944623 
L 603.525 226.011121 
L 604.6875 226.011121 
L 605.85 226.011121 
L 607.0125 226.011121 
L 608.175 232.181493 
L 609.3375 232.181493 
L 610.5 188.05511 
L 611.6625 188.05511 
L 612.825 188.05511 
L 613.9875 188.05511 
L 615.15 186.776967 
L 616.3125 170.096435 
L 617.475 170.096435 
L 618.6375 170.096435 
L 619.8 170.096435 
L 620.9625 170.096435 
L 622.125 170.096435 
L 623.2875 166.918711 
L 624.45 166.918711 
L 625.6125 166.918711 
L 626.775 166.918711 
L 627.9375 166.918711 
L 629.1 166.918711 
L 630.2625 166.918711 
L 631.425 166.918711 
L 632.5875 168.40786 
L 633.75 168.40786 
L 634.9125 168.40786 
L 636.075 168.40786 
L 637.2375 168.40786 
L 638.4 176.496385 
L 639.5625 198.127001 
L 640.725 245.758151 
L 641.8875 245.758151 
L 643.05 245.758151 
L 644.2125 245.758151 
L 645.375 245.758151 
L 646.5375 245.758151 
L 647.7 240.125169 
L 648.8625 240.125169 
L 650.025 199.110384 
L 651.1875 199.110384 
L 652.35 199.110384 
L 653.5125 199.110384 
L 654.675 199.110384 
L 655.8375 173.230938 
L 657 173.230938 
L 658.1625 173.230938 
L 659.325 188.05511 
L 660.4875 188.05511 
L 661.65 188.05511 
L 662.8125 188.05511 
L 663.975 188.05511 
L 665.1375 173.230938 
L 666.3 174.304336 
L 667.4625 174.304336 
L 668.625 174.304336 
L 669.7875 174.304336 
L 670.95 153.268454 
L 672.1125 158.387385 
L 673.275 158.387385 
L 674.4375 142.485904 
L 675.6 142.485904 
L 676.7625 142.485904 
L 677.925 142.485904 
L 679.0875 134.838786 
L 680.25 134.838786 
L 681.4125 134.838786 
L 682.575 124.182413 
L 683.7375 124.182413 
L 684.9 124.182413 
L 686.0625 124.182413 
L 687.225 104.272062 
L 688.3875 104.272062 
L 689.55 104.272062 
L 690.7125 94.86 
L 691.875 94.86 
L 693.0375 94.86 
L 694.2 94.86 
L 695.3625 94.86 
L 696.525 94.86 
L 697.6875 94.86 
L 698.85 99.979421 
L 700.0125 99.979421 
L 701.175 99.979421 
L 702.3375 99.979421 
L 703.5 105.159617 
L 704.6625 105.159617 
L 705.825 98.531001 
L 706.9875 105.159617 
L 708.15 105.159617 
L 709.3125 105.159617 
L 710.475 98.531001 
L 711.6375 98.531001 
L 712.8 99.14847 
L 712.8 180480.478538 
L 712.8 180480.478538 
L 711.6375 180480.478538 
L 710.475 180480.478538 
L 709.3125 180480.478538 
L 708.15 180480.478538 
L 706.9875 180480.478538 
L 705.825 180480.478538 
L 704.6625 180480.478538 
L 703.5 180480.478538 
L 702.3375 180480.478538 
L 701.175 180480.478538 
L 700.0125 180480.478538 
L 698.85 180480.478538 
L 697.6875 180480.478538 
L 696.525 180480.478538 
L 695.3625 180480.478538 
L 694.2 180480.478538 
L 693.0375 180480.478538 
L 691.875 180480.478538 
L 690.7125 180480.478538 
L 689.55 180480.478538 
L 688.3875 180480.478538 
L 687.225 180480.478538 
L 686.0625 180480.478538 
L 684.9 180480.478538 
L 683.7375 180480.478538 
L 682.575 180480.478538 
L 681.4125 180480.478538 
L 680.25 180480.478538 
L 679.0875 180480.478538 
L 677.925 180480.478538 
L 676.7625 180480.478538 
L 675.6 180480.478538 
L 674.4375 180480.478538 
L 673.275 180480.478538 
L 672.1125 180480.478538 
L 670.95 180480.478538 
L 669.7875 180480.478538 
L 668.625 180480.478538 
L 667.4625 180480.478538 
L 666.3 180480.478538 
L 665.1375 180480.478538 
L 663.975 180480.478538 
L 662.8125 180480.478538 
L 661.65 180480.478538 
L 660.4875 180480.478538 
L 659.325 180480.478538 
L 658.1625 180480.478538 
L 657 180480.478538 
L 655.8375 180480.478538 
L 654.675 180480.478538 
L 653.5125 180480.478538 
L 652.35 180480.478538 
L 651.1875 180480.478538 
L 650.025 180480.478538 
L 648.8625 180480.478538 
L 647.7 180480.478538 
L 646.5375 180480.478538 
L 645.375 180480.478538 
L 644.2125 180480.478538 
L 643.05 180480.478538 
L 641.8875 180480.478538 
L 640.725 180480.478538 
L 639.5625 180480.478538 
L 638.4 180480.478538 
L 637.2375 180480.478538 
L 636.075 180480.478538 
L 634.9125 180480.478538 
L 633.75 180480.478538 
L 632.5875 180480.478538 
L 631.425 180480.478538 
L 630.2625 180480.478538 
L 629.1 180480.478538 
L 627.9375 180480.478538 
L 626.775 180480.478538 
L 625.6125 180480.478538 
L 624.45 180480.478538 
L 623.2875 180480.478538 
L 622.125 180480.478538 
L 620.9625 180480.478538 
L 619.8 180480.478538 
L 618.6375 180480.478538 
L 617.475 180480.478538 
L 616.3125 180480.478538 
L 615.15 180480.478538 
L 613.9875 180480.478538 
L 612.825 180480.478538 
L 611.6625 180480.478538 
L 610.5 180480.478538 
L 609.3375 180480.478538 
L 608.175 180480.478538 
L 607.0125 180480.478538 
L 605.85 180480.478538 
L 604.6875 180480.478538 
L 603.525 180480.478538 
L 602.3625 180480.478538 
L 601.2 180480.478538 
L 600.0375 180480.478538 
L 598.875 180480.478538 
L 597.7125 180480.478538 
L 596.55 180480.478538 
L 595.3875 180480.478538 
L 594.225 180480.478538 
L 593.0625 180480.478538 
L 591.9 180480.478538 
L 590.7375 180480.478538 
L 589.575 180480.478538 
L 588.4125 180480.478538 
L 587.25 180480.478538 
L 586.0875 180480.478538 
L 584.925 180480.478538 
L 583.7625 180480.478538 
L 582.6 180480.478538 
L 581.4375 180480.478538 
L 580.275 180480.478538 
L 579.1125 180480.478538 
L 577.95 180480.478538 
L 576.7875 180480.478538 
L 575.625 180480.478538 
L 574.4625 180480.478538 
L 573.3 180480.478538 
L 572.1375 180480.478538 
L 570.975 180480.478538 
L 569.8125 180480.478538 
L 568.65 180480.478538 
L 567.4875 180480.478538 
L 566.325 180480.478538 
L 565.1625 180480.478538 
L 564 180480.478538 
L 562.8375 180480.478538 
L 561.675 180480.478538 
L 560.5125 180480.478538 
L 559.35 180480.478538 
L 558.1875 180480.478538 
L 557.025 180480.478538 
L 555.8625 180480.478538 
L 554.7 180480.478538 
L 553.5375 180480.478538 
L 552.375 180480.478538 
L 551.2125 180480.478538 
L 550.05 180480.478538 
L 548.8875 180480.478538 
L 547.725 180480.478538 
L 546.5625 180480.478538 
L 545.4 180480.478538 
L 544.2375 180480.478538 
L 543.075 180480.478538 
L 541.9125 180480.478538 
L 540.75 180480.478538 
L 539.5875 180480.478538 
L 538.425 180480.478538 
L 537.2625 180480.478538 
L 536.1 180480.478538 
L 534.9375 180480.478538 
L 533.775 180480.478538 
L 532.6125 180480.478538 
L 531.45 180480.478538 
L 530.2875 180480.478538 
L 529.125 180480.478538 
L 527.9625 180480.478538 
L 526.8 180480.478538 
L 525.6375 180480.478538 
L 524.475 180480.478538 
L 523.3125 180480.478538 
L 522.15 180480.478538 
L 520.9875 180480.478538 
L 519.825 180480.478538 
L 518.6625 180480.478538 
L 517.5 180480.478538 
L 516.3375 180480.478538 
L 515.175 180480.478538 
L 514.0125 180480.478538 
L 512.85 180480.478538 
L 511.6875 180480.478538 
L 510.525 180480.478538 
L 509.3625 180480.478538 
L 508.2 180480.478538 
L 507.0375 180480.478538 
L 505.875 180480.478538 
L 504.7125 180480.478538 
L 503.55 180480.478538 
L 502.3875 180480.478538 
L 501.225 180480.478538 
L 500.0625 180480.478538 
L 498.9 180480.478538 
L 497.7375 180480.478538 
L 496.575 180480.478538 
L 495.4125 180480.478538 
L 494.25 180480.478538 
L 493.0875 180480.478538 
L 491.925 180480.478538 
L 490.7625 180480.478538 
L 489.6 180480.478538 
L 488.4375 180480.478538 
L 487.275 180480.478538 
L 486.1125 180480.478538 
L 484.95 180480.478538 
L 483.7875 180480.478538 
L 482.625 368.930371 
L 481.4625 180480.478538 
L 480.3 368.930371 
L 479.1375 368.930371 
L 477.975 180480.478538 
L 476.8125 180480.478538 
L 475.65 180480.478538 
L 474.4875 180480.478538 
L 473.325 180480.478538 
L 472.1625 180480.478538 
L 471 180480.478538 
L 469.8375 180480.478538 
L 468.675 180480.478538 
L 467.5125 180480.478538 
L 466.35 180480.478538 
L 465.1875 180480.478538 
L 464.025 180480.478538 
L 462.8625 180480.478538 
L 461.7 180480.478538 
L 460.5375 180480.478538 
L 459.375 180480.478538 
L 458.2125 180480.478538 
L 457.05 180480.478538 
L 455.8875 180480.478538 
L 454.725 180480.478538 
L 453.5625 180480.478538 
L 452.4 180480.478538 
L 451.2375 180480.478538 
L 450.075 180480.478538 
L 448.9125 180480.478538 
L 447.75 180480.478538 
L 446.5875 180480.478538 
L 445.425 180480.478538 
L 444.2625 180480.478538 
L 443.1 180480.478538 
L 441.9375 180480.478538 
L 440.775 180480.478538 
L 439.6125 180480.478538 
L 438.45 180480.478538 
L 437.2875 180480.478538 
L 436.125 180480.478538 
L 434.9625 180480.478538 
L 433.8 297.29663 
L 432.6375 297.29663 
L 431.475 297.29663 
L 430.3125 297.29663 
L 429.15 297.29663 
L 427.9875 297.29663 
L 426.825 297.29663 
L 425.6625 282.322563 
L 424.5 297.29663 
L 423.3375 180480.478538 
L 422.175 180480.478538 
L 421.0125 180480.478538 
L 419.85 180480.478538 
L 418.6875 180480.478538 
L 417.525 180480.478538 
L 416.3625 180480.478538 
L 415.2 368.930371 
L 414.0375 180480.478538 
L 412.875 180480.478538 
L 411.7125 180480.478538 
L 410.55 180480.478538 
L 409.3875 180480.478538 
L 408.225 180480.478538 
L 407.0625 180480.478538 
L 405.9 180480.478538 
L 404.7375 391.420769 
L 403.575 391.420769 
L 402.4125 391.420769 
L 401.25 391.420769 
L 400.0875 180480.478538 
L 398.925 180480.478538 
L 397.7625 391.420769 
L 396.6 391.420769 
L 395.4375 391.420769 
L 394.275 391.420769 
L 393.1125 180480.478538 
L 391.95 180480.478538 
L 390.7875 180480.478538 
L 389.625 180480.478538 
L 388.4625 180480.478538 
L 387.3 180480.478538 
L 386.1375 180480.478538 
L 384.975 180480.478538 
L 383.8125 180480.478538 
L 382.65 180480.478538 
L 381.4875 180480.478538 
L 380.325 180480.478538 
L 379.1625 180480.478538 
L 378 180480.478538 
L 376.8375 180480.478538 
L 375.675 180480.478538 
L 374.5125 180480.478538 
L 373.35 180480.478538 
L 372.1875 180480.478538 
L 371.025 180480.478538 
L 369.8625 180480.478538 
L 368.7 180480.478538 
L 367.5375 180480.478538 
L 366.375 180480.478538 
L 365.2125 180480.478538 
L 364.05 180480.478538 
L 362.8875 180480.478538 
L 361.725 180480.478538 
L 360.5625 180480.478538 
L 359.4 180480.478538 
L 358.2375 180480.478538 
L 357.075 180480.478538 
L 355.9125 180480.478538 
L 354.75 180480.478538 
L 353.5875 180480.478538 
L 352.425 180480.478538 
L 351.2625 180480.478538 
L 350.1 180480.478538 
L 348.9375 180480.478538 
L 347.775 180480.478538 
L 346.6125 180480.478538 
L 345.45 180480.478538 
L 344.2875 180480.478538 
L 343.125 180480.478538 
L 341.9625 180480.478538 
L 340.8 180480.478538 
L 339.6375 180480.478538 
L 338.475 180480.478538 
L 337.3125 180480.478538 
L 336.15 180480.478538 
L 334.9875 180480.478538 
L 333.825 180480.478538 
L 332.6625 180480.478538 
L 331.5 180480.478538 
L 330.3375 180480.478538 
L 329.175 180480.478538 
L 328.0125 180480.478538 
L 326.85 180480.478538 
L 325.6875 180480.478538 
L 324.525 180480.478538 
L 323.3625 180480.478538 
L 322.2 180480.478538 
L 321.0375 180480.478538 
L 319.875 477.308037 
L 318.7125 477.308037 
L 317.55 469.071167 
L 316.3875 477.308037 
L 315.225 477.308037 
L 314.0625 469.071167 
L 312.9 469.071167 
L 311.7375 469.071167 
L 310.575 366.788375 
L 309.4125 366.788375 
L 308.25 366.788375 
L 307.0875 366.788375 
L 305.925 469.071167 
L 304.7625 366.788375 
L 303.6 366.788375 
L 302.4375 366.788375 
L 301.275 477.308037 
L 300.1125 366.788375 
L 298.95 366.788375 
L 297.7875 344.827999 
L 296.625 343.248593 
L 295.4625 267.949588 
L 294.3 266.765051 
L 293.1375 325.18075 
L 291.975 266.765051 
L 290.8125 266.765051 
L 289.65 266.765051 
L 288.4875 266.765051 
L 287.325 243.981302 
L 286.1625 243.981302 
L 285 243.981302 
L 283.8375 318.068761 
L 282.675 318.068761 
L 281.5125 318.068761 
L 280.35 318.068761 
L 279.1875 318.068761 
L 278.025 337.231935 
L 276.8625 262.198617 
L 275.7 262.198617 
L 274.5375 337.231935 
L 273.375 292.25114 
L 272.2125 337.231935 
L 271.05 337.231935 
L 269.8875 337.231935 
L 268.725 337.231935 
L 267.5625 305.5335 
L 266.4 337.231935 
L 265.2375 337.231935 
L 264.075 180480.478538 
L 262.9125 180480.478538 
L 261.75 180480.478538 
L 260.5875 180480.478538 
L 259.425 180480.478538 
L 258.2625 337.231935 
L 257.1 337.231935 
L 255.9375 328.995065 
L 254.775 328.995065 
L 253.6125 328.995065 
L 252.45 292.25114 
L 251.2875 285.245444 
L 250.125 283.043102 
L 248.9625 283.043102 
L 247.8 283.043102 
L 246.6375 299.946984 
L 245.475 299.946984 
L 244.3125 328.995065 
L 243.15 328.995065 
L 241.9875 328.995065 
L 240.825 331.645419 
L 239.6625 331.645419 
L 238.5 362.672795 
L 237.3375 385.834252 
L 236.175 418.892339 
L 235.0125 477.308037 
L 233.85 477.308037 
L 232.6875 477.308037 
L 231.525 477.308037 
L 230.3625 180480.478538 
L 229.2 180480.478538 
L 228.0375 180480.478538 
L 226.875 180480.478538 
L 225.7125 180480.478538 
L 224.55 180480.478538 
L 223.3875 180480.478538 
L 222.225 180480.478538 
L 221.0625 180480.478538 
L 219.9 180480.478538 
L 218.7375 180480.478538 
L 217.575 180480.478538 
L 216.4125 180480.478538 
L 215.25 180480.478538 
L 214.0875 180480.478538 
L 212.925 180480.478538 
L 211.7625 180480.478538 
L 210.6 180480.478538 
L 209.4375 180480.478538 
L 208.275 180480.478538 
L 207.1125 180480.478538 
L 205.95 180480.478538 
L 204.7875 180480.478538 
L 203.625 180480.478538 
L 202.4625 180480.478538 
L 201.3 180480.478538 
L 200.1375 180480.478538 
L 198.975 180480.478538 
L 197.8125 180480.478538 
L 196.65 180480.478538 
L 195.4875 180480.478538 
L 194.325 180480.478538 
L 193.1625 180480.478538 
L 192 180480.478538 
L 190.8375 180480.478538 
L 189.675 180480.478538 
L 188.5125 180480.478538 
L 187.35 180480.478538 
L 186.1875 180480.478538 
L 185.025 180480.478538 
L 183.8625 180480.478538 
L 182.7 180480.478538 
L 181.5375 180480.478538 
L 180.375 180480.478538 
L 179.2125 180480.478538 
L 178.05 180480.478538 
L 176.8875 180480.478538 
L 175.725 180480.478538 
L 174.5625 180480.478538 
L 173.4 180480.478538 
L 172.2375 180480.478538 
L 171.075 180480.478538 
L 169.9125 180480.478538 
L 168.75 180480.478538 
L 167.5875 180480.478538 
L 166.425 180480.478538 
L 165.2625 180480.478538 
L 164.1 180480.478538 
L 162.9375 180480.478538 
L 161.775 180480.478538 
L 160.6125 180480.478538 
L 159.45 180480.478538 
L 158.2875 180480.478538 
L 157.125 180480.478538 
L 155.9625 180480.478538 
L 154.8 180480.478538 
L 153.6375 180480.478538 
L 152.475 180480.478538 
L 151.3125 180480.478538 
L 150.15 180480.478538 
L 148.9875 180480.478538 
L 147.825 180480.478538 
L 146.6625 180480.478538 
L 145.5 180480.478538 
L 144.3375 180480.478538 
L 143.175 180480.478538 
L 142.0125 180480.478538 
L 140.85 180480.478538 
L 139.6875 180480.478538 
L 138.525 180480.478538 
L 137.3625 180480.478538 
L 136.2 180480.478538 
L 135.0375 180480.478538 
L 133.875 180480.478538 
L 132.7125 180480.478538 
L 131.55 477.308037 
L 130.3875 477.308037 
L 129.225 477.308037 
L 128.0625 180480.478538 
L 126.9 180480.478538 
L 125.7375 180480.478538 
L 124.575 180480.478538 
L 123.4125 180480.478538 
L 122.25 180480.478538 
L 121.0875 180480.478538 
L 119.925 180480.478538 
L 118.7625 180480.478538 
L 117.6 180480.478538 
L 116.4375 180480.478538 
L 115.275 180480.478538 
L 114.1125 180480.478538 
L 112.95 180480.478538 
L 111.7875 180480.478538 
L 110.625 180480.478538 
L 109.4625 180480.478538 
L 108.3 180480.478538 
L 107.1375 180480.478538 
L 105.975 180480.478538 
L 104.8125 180480.478538 
L 103.65 180480.478538 
L 102.4875 180480.478538 
L 101.325 180480.478538 
L 100.1625 180480.478538 
L 99 180480.478538 
z
" style="fill:#8080ff;fill-opacity:0.5;stroke:#8080ff;stroke-opacity:0.5;"/>
   </g>
   <g id="PolyCollection_2">
    <path clip-path="url(#p68e2955192)" d="M 99 180480.478538 
L 99 180480.478538 
L 100.1625 180480.478538 
L 101.325 180480.478538 
L 102.4875 180480.478538 
L 103.65 180480.478538 
L 104.8125 180480.478538 
L 105.975 180480.478538 
L 107.1375 180480.478538 
L 108.3 180480.478538 
L 109.4625 180480.478538 
L 110.625 180480.478538 
L 111.7875 180480.478538 
L 112.95 180480.478538 
L 114.1125 180480.478538 
L 115.275 180480.478538 
L 116.4375 180480.478538 
L 117.6 180480.478538 
L 118.7625 180480.478538 
L 119.925 180480.478538 
L 121.0875 180480.478538 
L 122.25 180480.478538 
L 123.4125 180480.478538 
L 124.575 180480.478538 
L 125.7375 180480.478538 
L 126.9 180480.478538 
L 128.0625 180480.478538 
L 129.225 180480.478538 
L 130.3875 180480.478538 
L 131.55 180480.478538 
L 132.7125 180480.478538 
L 133.875 180480.478538 
L 135.0375 180480.478538 
L 136.2 180480.478538 
L 137.3625 496.955287 
L 138.525 469.071167 
L 139.6875 469.071167 
L 140.85 469.071167 
L 142.0125 496.955287 
L 143.175 496.955287 
L 144.3375 496.955287 
L 145.5 496.955287 
L 146.6625 496.955287 
L 147.825 469.071167 
L 148.9875 469.071167 
L 150.15 469.071167 
L 151.3125 469.071167 
L 152.475 469.071167 
L 153.6375 496.955287 
L 154.8 180480.478538 
L 155.9625 180480.478538 
L 157.125 180480.478538 
L 158.2875 180480.478538 
L 159.45 180480.478538 
L 160.6125 180480.478538 
L 161.775 180480.478538 
L 162.9375 180480.478538 
L 164.1 180480.478538 
L 165.2625 180480.478538 
L 166.425 496.955287 
L 167.5875 496.955287 
L 168.75 496.955287 
L 169.9125 496.955287 
L 171.075 496.955287 
L 172.2375 496.955287 
L 173.4 496.955287 
L 174.5625 496.955287 
L 175.725 496.955287 
L 176.8875 496.955287 
L 178.05 496.955287 
L 179.2125 496.955287 
L 180.375 496.955287 
L 181.5375 180480.478538 
L 182.7 180480.478538 
L 183.8625 180480.478538 
L 185.025 180480.478538 
L 186.1875 180480.478538 
L 187.35 180480.478538 
L 188.5125 180480.478538 
L 189.675 180480.478538 
L 190.8375 180480.478538 
L 192 180480.478538 
L 193.1625 180480.478538 
L 194.325 180480.478538 
L 195.4875 180480.478538 
L 196.65 180480.478538 
L 197.8125 180480.478538 
L 198.975 180480.478538 
L 200.1375 180480.478538 
L 201.3 180480.478538 
L 202.4625 180480.478538 
L 203.625 180480.478538 
L 204.7875 180480.478538 
L 205.95 180480.478538 
L 207.1125 180480.478538 
L 208.275 180480.478538 
L 209.4375 180480.478538 
L 210.6 180480.478538 
L 211.7625 180480.478538 
L 212.925 180480.478538 
L 214.0875 180480.478538 
L 215.25 180480.478538 
L 216.4125 180480.478538 
L 217.575 180480.478538 
L 218.7375 180480.478538 
L 219.9 180480.478538 
L 221.0625 180480.478538 
L 222.225 180480.478538 
L 223.3875 180480.478538 
L 224.55 180480.478538 
L 225.7125 180480.478538 
L 226.875 180480.478538 
L 228.0375 180480.478538 
L 229.2 180480.478538 
L 230.3625 180480.478538 
L 231.525 180480.478538 
L 232.6875 180480.478538 
L 233.85 180480.478538 
L 235.0125 180480.478538 
L 236.175 180480.478538 
L 237.3375 180480.478538 
L 238.5 180480.478538 
L 239.6625 180480.478538 
L 240.825 180480.478538 
L 241.9875 180480.478538 
L 243.15 180480.478538 
L 244.3125 180480.478538 
L 245.475 180480.478538 
L 246.6375 180480.478538 
L 247.8 180480.478538 
L 248.9625 180480.478538 
L 250.125 180480.478538 
L 251.2875 180480.478538 
L 252.45 180480.478538 
L 253.6125 180480.478538 
L 254.775 180480.478538 
L 255.9375 180480.478538 
L 257.1 180480.478538 
L 258.2625 496.955287 
L 259.425 496.955287 
L 260.5875 496.955287 
L 261.75 496.955287 
L 262.9125 496.955287 
L 264.075 496.955287 
L 265.2375 496.955287 
L 266.4 496.955287 
L 267.5625 496.955287 
L 268.725 496.955287 
L 269.8875 496.955287 
L 271.05 496.955287 
L 272.2125 496.955287 
L 273.375 496.955287 
L 274.5375 180480.478538 
L 275.7 180480.478538 
L 276.8625 180480.478538 
L 278.025 180480.478538 
L 279.1875 180480.478538 
L 280.35 180480.478538 
L 281.5125 180480.478538 
L 282.675 180480.478538 
L 283.8375 180480.478538 
L 285 180480.478538 
L 286.1625 180480.478538 
L 287.325 496.955287 
L 288.4875 469.071167 
L 289.65 469.071167 
L 290.8125 469.071167 
L 291.975 469.071167 
L 293.1375 469.071167 
L 294.3 469.071167 
L 295.4625 469.071167 
L 296.625 469.071167 
L 297.7875 469.071167 
L 298.95 469.071167 
L 300.1125 469.071167 
L 301.275 469.071167 
L 302.4375 469.071167 
L 303.6 469.071167 
L 304.7625 469.071167 
L 305.925 469.071167 
L 307.0875 469.071167 
L 308.25 469.071167 
L 309.4125 469.071167 
L 310.575 469.071167 
L 311.7375 469.071167 
L 312.9 469.071167 
L 314.0625 469.071167 
L 315.225 469.071167 
L 316.3875 469.071167 
L 317.55 469.071167 
L 318.7125 469.071167 
L 319.875 496.955287 
L 321.0375 496.955287 
L 322.2 180480.478538 
L 323.3625 180480.478538 
L 324.525 180480.478538 
L 325.6875 180480.478538 
L 326.85 180480.478538 
L 328.0125 180480.478538 
L 329.175 180480.478538 
L 330.3375 180480.478538 
L 331.5 180480.478538 
L 332.6625 180480.478538 
L 333.825 180480.478538 
L 334.9875 180480.478538 
L 336.15 180480.478538 
L 337.3125 180480.478538 
L 338.475 180480.478538 
L 339.6375 180480.478538 
L 340.8 180480.478538 
L 341.9625 180480.478538 
L 343.125 180480.478538 
L 344.2875 180480.478538 
L 345.45 180480.478538 
L 346.6125 180480.478538 
L 347.775 180480.478538 
L 348.9375 180480.478538 
L 350.1 180480.478538 
L 351.2625 180480.478538 
L 352.425 180480.478538 
L 353.5875 180480.478538 
L 354.75 180480.478538 
L 355.9125 180480.478538 
L 357.075 180480.478538 
L 358.2375 180480.478538 
L 359.4 180480.478538 
L 360.5625 180480.478538 
L 361.725 180480.478538 
L 362.8875 180480.478538 
L 364.05 180480.478538 
L 365.2125 180480.478538 
L 366.375 180480.478538 
L 367.5375 180480.478538 
L 368.7 180480.478538 
L 369.8625 180480.478538 
L 371.025 180480.478538 
L 372.1875 496.955287 
L 373.35 496.955287 
L 374.5125 496.955287 
L 375.675 496.955287 
L 376.8375 496.955287 
L 378 496.955287 
L 379.1625 496.955287 
L 380.325 496.955287 
L 381.4875 496.955287 
L 382.65 496.955287 
L 383.8125 496.955287 
L 384.975 496.955287 
L 386.1375 496.955287 
L 387.3 180480.478538 
L 388.4625 180480.478538 
L 389.625 180480.478538 
L 390.7875 180480.478538 
L 391.95 180480.478538 
L 393.1125 180480.478538 
L 394.275 180480.478538 
L 395.4375 180480.478538 
L 396.6 180480.478538 
L 397.7625 180480.478538 
L 398.925 180480.478538 
L 400.0875 180480.478538 
L 401.25 180480.478538 
L 402.4125 180480.478538 
L 403.575 180480.478538 
L 404.7375 180480.478538 
L 405.9 180480.478538 
L 407.0625 180480.478538 
L 408.225 180480.478538 
L 409.3875 180480.478538 
L 410.55 180480.478538 
L 411.7125 180480.478538 
L 412.875 180480.478538 
L 414.0375 180480.478538 
L 415.2 180480.478538 
L 416.3625 180480.478538 
L 417.525 180480.478538 
L 418.6875 180480.478538 
L 419.85 180480.478538 
L 421.0125 180480.478538 
L 422.175 180480.478538 
L 423.3375 180480.478538 
L 424.5 180480.478538 
L 425.6625 180480.478538 
L 426.825 180480.478538 
L 427.9875 180480.478538 
L 429.15 180480.478538 
L 430.3125 180480.478538 
L 431.475 180480.478538 
L 432.6375 180480.478538 
L 433.8 180480.478538 
L 434.9625 180480.478538 
L 436.125 180480.478538 
L 437.2875 180480.478538 
L 438.45 180480.478538 
L 439.6125 180480.478538 
L 440.775 180480.478538 
L 441.9375 180480.478538 
L 443.1 180480.478538 
L 444.2625 180480.478538 
L 445.425 180480.478538 
L 446.5875 180480.478538 
L 447.75 180480.478538 
L 448.9125 180480.478538 
L 450.075 180480.478538 
L 451.2375 180480.478538 
L 452.4 180480.478538 
L 453.5625 180480.478538 
L 454.725 180480.478538 
L 455.8875 180480.478538 
L 457.05 180480.478538 
L 458.2125 180480.478538 
L 459.375 180480.478538 
L 460.5375 180480.478538 
L 461.7 180480.478538 
L 462.8625 180480.478538 
L 464.025 180480.478538 
L 465.1875 180480.478538 
L 466.35 180480.478538 
L 467.5125 180480.478538 
L 468.675 180480.478538 
L 469.8375 180480.478538 
L 471 180480.478538 
L 472.1625 180480.478538 
L 473.325 180480.478538 
L 474.4875 180480.478538 
L 475.65 180480.478538 
L 476.8125 180480.478538 
L 477.975 180480.478538 
L 479.1375 180480.478538 
L 480.3 180480.478538 
L 481.4625 180480.478538 
L 482.625 180480.478538 
L 483.7875 180480.478538 
L 484.95 180480.478538 
L 486.1125 180480.478538 
L 487.275 180480.478538 
L 488.4375 180480.478538 
L 489.6 180480.478538 
L 490.7625 180480.478538 
L 491.925 180480.478538 
L 493.0875 180480.478538 
L 494.25 180480.478538 
L 495.4125 180480.478538 
L 496.575 180480.478538 
L 497.7375 180480.478538 
L 498.9 180480.478538 
L 500.0625 180480.478538 
L 501.225 180480.478538 
L 502.3875 180480.478538 
L 503.55 180480.478538 
L 504.7125 180480.478538 
L 505.875 180480.478538 
L 507.0375 180480.478538 
L 508.2 180480.478538 
L 509.3625 180480.478538 
L 510.525 180480.478538 
L 511.6875 180480.478538 
L 512.85 180480.478538 
L 514.0125 180480.478538 
L 515.175 180480.478538 
L 516.3375 180480.478538 
L 517.5 180480.478538 
L 518.6625 180480.478538 
L 519.825 180480.478538 
L 520.9875 180480.478538 
L 522.15 180480.478538 
L 523.3125 180480.478538 
L 524.475 180480.478538 
L 525.6375 180480.478538 
L 526.8 180480.478538 
L 527.9625 180480.478538 
L 529.125 180480.478538 
L 530.2875 180480.478538 
L 531.45 180480.478538 
L 532.6125 180480.478538 
L 533.775 180480.478538 
L 534.9375 180480.478538 
L 536.1 180480.478538 
L 537.2625 180480.478538 
L 538.425 180480.478538 
L 539.5875 180480.478538 
L 540.75 180480.478538 
L 541.9125 180480.478538 
L 543.075 180480.478538 
L 544.2375 180480.478538 
L 545.4 180480.478538 
L 546.5625 180480.478538 
L 547.725 180480.478538 
L 548.8875 180480.478538 
L 550.05 180480.478538 
L 551.2125 180480.478538 
L 552.375 180480.478538 
L 553.5375 180480.478538 
L 554.7 180480.478538 
L 555.8625 180480.478538 
L 557.025 180480.478538 
L 558.1875 180480.478538 
L 559.35 180480.478538 
L 560.5125 180480.478538 
L 561.675 180480.478538 
L 562.8375 180480.478538 
L 564 180480.478538 
L 565.1625 180480.478538 
L 566.325 180480.478538 
L 567.4875 180480.478538 
L 568.65 180480.478538 
L 569.8125 180480.478538 
L 570.975 180480.478538 
L 572.1375 180480.478538 
L 573.3 180480.478538 
L 574.4625 180480.478538 
L 575.625 180480.478538 
L 576.7875 180480.478538 
L 577.95 180480.478538 
L 579.1125 180480.478538 
L 580.275 180480.478538 
L 581.4375 180480.478538 
L 582.6 180480.478538 
L 583.7625 180480.478538 
L 584.925 180480.478538 
L 586.0875 180480.478538 
L 587.25 180480.478538 
L 588.4125 180480.478538 
L 589.575 180480.478538 
L 590.7375 180480.478538 
L 591.9 180480.478538 
L 593.0625 180480.478538 
L 594.225 180480.478538 
L 595.3875 180480.478538 
L 596.55 180480.478538 
L 597.7125 180480.478538 
L 598.875 180480.478538 
L 600.0375 180480.478538 
L 601.2 180480.478538 
L 602.3625 180480.478538 
L 603.525 180480.478538 
L 604.6875 180480.478538 
L 605.85 180480.478538 
L 607.0125 180480.478538 
L 608.175 180480.478538 
L 609.3375 180480.478538 
L 610.5 180480.478538 
L 611.6625 180480.478538 
L 612.825 180480.478538 
L 613.9875 180480.478538 
L 615.15 180480.478538 
L 616.3125 180480.478538 
L 617.475 180480.478538 
L 618.6375 180480.478538 
L 619.8 180480.478538 
L 620.9625 180480.478538 
L 622.125 180480.478538 
L 623.2875 180480.478538 
L 624.45 180480.478538 
L 625.6125 180480.478538 
L 626.775 180480.478538 
L 627.9375 180480.478538 
L 629.1 180480.478538 
L 630.2625 180480.478538 
L 631.425 496.955287 
L 632.5875 496.955287 
L 633.75 496.955287 
L 634.9125 496.955287 
L 636.075 496.955287 
L 637.2375 496.955287 
L 638.4 496.955287 
L 639.5625 496.955287 
L 640.725 496.955287 
L 641.8875 496.955287 
L 643.05 496.955287 
L 644.2125 496.955287 
L 645.375 496.955287 
L 646.5375 496.955287 
L 647.7 180480.478538 
L 648.8625 180480.478538 
L 650.025 180480.478538 
L 651.1875 180480.478538 
L 652.35 180480.478538 
L 653.5125 180480.478538 
L 654.675 180480.478538 
L 655.8375 180480.478538 
L 657 180480.478538 
L 658.1625 180480.478538 
L 659.325 180480.478538 
L 660.4875 180480.478538 
L 661.65 180480.478538 
L 662.8125 180480.478538 
L 663.975 180480.478538 
L 665.1375 180480.478538 
L 666.3 180480.478538 
L 667.4625 180480.478538 
L 668.625 180480.478538 
L 669.7875 180480.478538 
L 670.95 180480.478538 
L 672.1125 180480.478538 
L 673.275 180480.478538 
L 674.4375 180480.478538 
L 675.6 180480.478538 
L 676.7625 180480.478538 
L 677.925 180480.478538 
L 679.0875 180480.478538 
L 680.25 180480.478538 
L 681.4125 180480.478538 
L 682.575 496.955287 
L 683.7375 496.955287 
L 684.9 496.955287 
L 686.0625 496.955287 
L 687.225 469.071167 
L 688.3875 427.587732 
L 689.55 427.587732 
L 690.7125 469.071167 
L 691.875 469.071167 
L 693.0375 469.071167 
L 694.2 469.071167 
L 695.3625 469.071167 
L 696.525 469.071167 
L 697.6875 469.071167 
L 698.85 469.071167 
L 700.0125 469.071167 
L 701.175 469.071167 
L 702.3375 469.071167 
L 703.5 469.071167 
L 704.6625 496.955287 
L 705.825 496.955287 
L 706.9875 496.955287 
L 708.15 496.955287 
L 709.3125 496.955287 
L 710.475 469.071167 
L 711.6375 469.071167 
L 712.8 400.628806 
L 712.8 180480.478538 
L 712.8 180480.478538 
L 711.6375 180480.478538 
L 710.475 180480.478538 
L 709.3125 180480.478538 
L 708.15 180480.478538 
L 706.9875 180480.478538 
L 705.825 180480.478538 
L 704.6625 180480.478538 
L 703.5 180480.478538 
L 702.3375 180480.478538 
L 701.175 180480.478538 
L 700.0125 180480.478538 
L 698.85 180480.478538 
L 697.6875 180480.478538 
L 696.525 180480.478538 
L 695.3625 180480.478538 
L 694.2 180480.478538 
L 693.0375 180480.478538 
L 691.875 180480.478538 
L 690.7125 180480.478538 
L 689.55 180480.478538 
L 688.3875 180480.478538 
L 687.225 180480.478538 
L 686.0625 180480.478538 
L 684.9 180480.478538 
L 683.7375 180480.478538 
L 682.575 180480.478538 
L 681.4125 180480.478538 
L 680.25 180480.478538 
L 679.0875 180480.478538 
L 677.925 180480.478538 
L 676.7625 180480.478538 
L 675.6 180480.478538 
L 674.4375 180480.478538 
L 673.275 180480.478538 
L 672.1125 180480.478538 
L 670.95 180480.478538 
L 669.7875 180480.478538 
L 668.625 180480.478538 
L 667.4625 180480.478538 
L 666.3 180480.478538 
L 665.1375 180480.478538 
L 663.975 180480.478538 
L 662.8125 180480.478538 
L 661.65 180480.478538 
L 660.4875 180480.478538 
L 659.325 180480.478538 
L 658.1625 180480.478538 
L 657 180480.478538 
L 655.8375 180480.478538 
L 654.675 180480.478538 
L 653.5125 180480.478538 
L 652.35 180480.478538 
L 651.1875 180480.478538 
L 650.025 180480.478538 
L 648.8625 180480.478538 
L 647.7 180480.478538 
L 646.5375 180480.478538 
L 645.375 180480.478538 
L 644.2125 180480.478538 
L 643.05 180480.478538 
L 641.8875 180480.478538 
L 640.725 180480.478538 
L 639.5625 180480.478538 
L 638.4 180480.478538 
L 637.2375 180480.478538 
L 636.075 180480.478538 
L 634.9125 180480.478538 
L 633.75 180480.478538 
L 632.5875 180480.478538 
L 631.425 180480.478538 
L 630.2625 180480.478538 
L 629.1 180480.478538 
L 627.9375 180480.478538 
L 626.775 180480.478538 
L 625.6125 180480.478538 
L 624.45 180480.478538 
L 623.2875 180480.478538 
L 622.125 180480.478538 
L 620.9625 180480.478538 
L 619.8 180480.478538 
L 618.6375 180480.478538 
L 617.475 180480.478538 
L 616.3125 180480.478538 
L 615.15 180480.478538 
L 613.9875 180480.478538 
L 612.825 180480.478538 
L 611.6625 180480.478538 
L 610.5 180480.478538 
L 609.3375 180480.478538 
L 608.175 180480.478538 
L 607.0125 180480.478538 
L 605.85 180480.478538 
L 604.6875 180480.478538 
L 603.525 180480.478538 
L 602.3625 180480.478538 
L 601.2 180480.478538 
L 600.0375 180480.478538 
L 598.875 180480.478538 
L 597.7125 180480.478538 
L 596.55 180480.478538 
L 595.3875 180480.478538 
L 594.225 180480.478538 
L 593.0625 180480.478538 
L 591.9 180480.478538 
L 590.7375 180480.478538 
L 589.575 180480.478538 
L 588.4125 180480.478538 
L 587.25 180480.478538 
L 586.0875 180480.478538 
L 584.925 180480.478538 
L 583.7625 180480.478538 
L 582.6 180480.478538 
L 581.4375 180480.478538 
L 580.275 180480.478538 
L 579.1125 180480.478538 
L 577.95 180480.478538 
L 576.7875 180480.478538 
L 575.625 180480.478538 
L 574.4625 180480.478538 
L 573.3 180480.478538 
L 572.1375 180480.478538 
L 570.975 180480.478538 
L 569.8125 180480.478538 
L 568.65 180480.478538 
L 567.4875 180480.478538 
L 566.325 180480.478538 
L 565.1625 180480.478538 
L 564 180480.478538 
L 562.8375 180480.478538 
L 561.675 180480.478538 
L 560.5125 180480.478538 
L 559.35 180480.478538 
L 558.1875 180480.478538 
L 557.025 180480.478538 
L 555.8625 180480.478538 
L 554.7 180480.478538 
L 553.5375 180480.478538 
L 552.375 180480.478538 
L 551.2125 180480.478538 
L 550.05 180480.478538 
L 548.8875 180480.478538 
L 547.725 180480.478538 
L 546.5625 180480.478538 
L 545.4 180480.478538 
L 544.2375 180480.478538 
L 543.075 180480.478538 
L 541.9125 180480.478538 
L 540.75 180480.478538 
L 539.5875 180480.478538 
L 538.425 180480.478538 
L 537.2625 180480.478538 
L 536.1 180480.478538 
L 534.9375 180480.478538 
L 533.775 180480.478538 
L 532.6125 180480.478538 
L 531.45 180480.478538 
L 530.2875 180480.478538 
L 529.125 180480.478538 
L 527.9625 180480.478538 
L 526.8 180480.478538 
L 525.6375 180480.478538 
L 524.475 180480.478538 
L 523.3125 180480.478538 
L 522.15 180480.478538 
L 520.9875 180480.478538 
L 519.825 180480.478538 
L 518.6625 180480.478538 
L 517.5 180480.478538 
L 516.3375 180480.478538 
L 515.175 180480.478538 
L 514.0125 180480.478538 
L 512.85 180480.478538 
L 511.6875 180480.478538 
L 510.525 180480.478538 
L 509.3625 180480.478538 
L 508.2 180480.478538 
L 507.0375 180480.478538 
L 505.875 180480.478538 
L 504.7125 180480.478538 
L 503.55 180480.478538 
L 502.3875 180480.478538 
L 501.225 180480.478538 
L 500.0625 180480.478538 
L 498.9 180480.478538 
L 497.7375 180480.478538 
L 496.575 180480.478538 
L 495.4125 180480.478538 
L 494.25 180480.478538 
L 493.0875 180480.478538 
L 491.925 180480.478538 
L 490.7625 180480.478538 
L 489.6 180480.478538 
L 488.4375 180480.478538 
L 487.275 180480.478538 
L 486.1125 180480.478538 
L 484.95 180480.478538 
L 483.7875 180480.478538 
L 482.625 180480.478538 
L 481.4625 180480.478538 
L 480.3 180480.478538 
L 479.1375 180480.478538 
L 477.975 180480.478538 
L 476.8125 180480.478538 
L 475.65 180480.478538 
L 474.4875 180480.478538 
L 473.325 180480.478538 
L 472.1625 180480.478538 
L 471 180480.478538 
L 469.8375 180480.478538 
L 468.675 180480.478538 
L 467.5125 180480.478538 
L 466.35 180480.478538 
L 465.1875 180480.478538 
L 464.025 180480.478538 
L 462.8625 180480.478538 
L 461.7 180480.478538 
L 460.5375 180480.478538 
L 459.375 180480.478538 
L 458.2125 180480.478538 
L 457.05 180480.478538 
L 455.8875 180480.478538 
L 454.725 180480.478538 
L 453.5625 180480.478538 
L 452.4 180480.478538 
L 451.2375 180480.478538 
L 450.075 180480.478538 
L 448.9125 180480.478538 
L 447.75 180480.478538 
L 446.5875 180480.478538 
L 445.425 180480.478538 
L 444.2625 180480.478538 
L 443.1 180480.478538 
L 441.9375 180480.478538 
L 440.775 180480.478538 
L 439.6125 180480.478538 
L 438.45 180480.478538 
L 437.2875 180480.478538 
L 436.125 180480.478538 
L 434.9625 180480.478538 
L 433.8 180480.478538 
L 432.6375 180480.478538 
L 431.475 180480.478538 
L 430.3125 180480.478538 
L 429.15 180480.478538 
L 427.9875 180480.478538 
L 426.825 180480.478538 
L 425.6625 180480.478538 
L 424.5 180480.478538 
L 423.3375 180480.478538 
L 422.175 180480.478538 
L 421.0125 180480.478538 
L 419.85 180480.478538 
L 418.6875 180480.478538 
L 417.525 180480.478538 
L 416.3625 180480.478538 
L 415.2 180480.478538 
L 414.0375 180480.478538 
L 412.875 180480.478538 
L 411.7125 180480.478538 
L 410.55 180480.478538 
L 409.3875 180480.478538 
L 408.225 180480.478538 
L 407.0625 180480.478538 
L 405.9 180480.478538 
L 404.7375 180480.478538 
L 403.575 180480.478538 
L 402.4125 180480.478538 
L 401.25 180480.478538 
L 400.0875 180480.478538 
L 398.925 180480.478538 
L 397.7625 180480.478538 
L 396.6 180480.478538 
L 395.4375 180480.478538 
L 394.275 180480.478538 
L 393.1125 180480.478538 
L 391.95 180480.478538 
L 390.7875 180480.478538 
L 389.625 180480.478538 
L 388.4625 180480.478538 
L 387.3 180480.478538 
L 386.1375 180480.478538 
L 384.975 180480.478538 
L 383.8125 180480.478538 
L 382.65 180480.478538 
L 381.4875 180480.478538 
L 380.325 180480.478538 
L 379.1625 180480.478538 
L 378 180480.478538 
L 376.8375 180480.478538 
L 375.675 180480.478538 
L 374.5125 180480.478538 
L 373.35 180480.478538 
L 372.1875 180480.478538 
L 371.025 180480.478538 
L 369.8625 180480.478538 
L 368.7 180480.478538 
L 367.5375 180480.478538 
L 366.375 180480.478538 
L 365.2125 180480.478538 
L 364.05 180480.478538 
L 362.8875 180480.478538 
L 361.725 180480.478538 
L 360.5625 180480.478538 
L 359.4 180480.478538 
L 358.2375 180480.478538 
L 357.075 180480.478538 
L 355.9125 180480.478538 
L 354.75 180480.478538 
L 353.5875 180480.478538 
L 352.425 180480.478538 
L 351.2625 180480.478538 
L 350.1 180480.478538 
L 348.9375 180480.478538 
L 347.775 180480.478538 
L 346.6125 180480.478538 
L 345.45 180480.478538 
L 344.2875 180480.478538 
L 343.125 180480.478538 
L 341.9625 180480.478538 
L 340.8 180480.478538 
L 339.6375 180480.478538 
L 338.475 180480.478538 
L 337.3125 180480.478538 
L 336.15 180480.478538 
L 334.9875 180480.478538 
L 333.825 180480.478538 
L 332.6625 180480.478538 
L 331.5 180480.478538 
L 330.3375 180480.478538 
L 329.175 180480.478538 
L 328.0125 180480.478538 
L 326.85 180480.478538 
L 325.6875 180480.478538 
L 324.525 180480.478538 
L 323.3625 180480.478538 
L 322.2 180480.478538 
L 321.0375 180480.478538 
L 319.875 180480.478538 
L 318.7125 180480.478538 
L 317.55 180480.478538 
L 316.3875 180480.478538 
L 315.225 180480.478538 
L 314.0625 180480.478538 
L 312.9 180480.478538 
L 311.7375 180480.478538 
L 310.575 180480.478538 
L 309.4125 180480.478538 
L 308.25 180480.478538 
L 307.0875 180480.478538 
L 305.925 180480.478538 
L 304.7625 180480.478538 
L 303.6 180480.478538 
L 302.4375 180480.478538 
L 301.275 180480.478538 
L 300.1125 180480.478538 
L 298.95 180480.478538 
L 297.7875 180480.478538 
L 296.625 180480.478538 
L 295.4625 180480.478538 
L 294.3 180480.478538 
L 293.1375 180480.478538 
L 291.975 180480.478538 
L 290.8125 180480.478538 
L 289.65 180480.478538 
L 288.4875 180480.478538 
L 287.325 180480.478538 
L 286.1625 180480.478538 
L 285 180480.478538 
L 283.8375 180480.478538 
L 282.675 180480.478538 
L 281.5125 180480.478538 
L 280.35 180480.478538 
L 279.1875 180480.478538 
L 278.025 180480.478538 
L 276.8625 180480.478538 
L 275.7 180480.478538 
L 274.5375 180480.478538 
L 273.375 180480.478538 
L 272.2125 180480.478538 
L 271.05 180480.478538 
L 269.8875 180480.478538 
L 268.725 180480.478538 
L 267.5625 180480.478538 
L 266.4 180480.478538 
L 265.2375 180480.478538 
L 264.075 180480.478538 
L 262.9125 180480.478538 
L 261.75 180480.478538 
L 260.5875 180480.478538 
L 259.425 180480.478538 
L 258.2625 180480.478538 
L 257.1 180480.478538 
L 255.9375 180480.478538 
L 254.775 180480.478538 
L 253.6125 180480.478538 
L 252.45 180480.478538 
L 251.2875 180480.478538 
L 250.125 180480.478538 
L 248.9625 180480.478538 
L 247.8 180480.478538 
L 246.6375 180480.478538 
L 245.475 180480.478538 
L 244.3125 180480.478538 
L 243.15 180480.478538 
L 241.9875 180480.478538 
L 240.825 180480.478538 
L 239.6625 180480.478538 
L 238.5 180480.478538 
L 237.3375 180480.478538 
L 236.175 180480.478538 
L 235.0125 180480.478538 
L 233.85 180480.478538 
L 232.6875 180480.478538 
L 231.525 180480.478538 
L 230.3625 180480.478538 
L 229.2 180480.478538 
L 228.0375 180480.478538 
L 226.875 180480.478538 
L 225.7125 180480.478538 
L 224.55 180480.478538 
L 223.3875 180480.478538 
L 222.225 180480.478538 
L 221.0625 180480.478538 
L 219.9 180480.478538 
L 218.7375 180480.478538 
L 217.575 180480.478538 
L 216.4125 180480.478538 
L 215.25 180480.478538 
L 214.0875 180480.478538 
L 212.925 180480.478538 
L 211.7625 180480.478538 
L 210.6 180480.478538 
L 209.4375 180480.478538 
L 208.275 180480.478538 
L 207.1125 180480.478538 
L 205.95 180480.478538 
L 204.7875 180480.478538 
L 203.625 180480.478538 
L 202.4625 180480.478538 
L 201.3 180480.478538 
L 200.1375 180480.478538 
L 198.975 180480.478538 
L 197.8125 180480.478538 
L 196.65 180480.478538 
L 195.4875 180480.478538 
L 194.325 180480.478538 
L 193.1625 180480.478538 
L 192 180480.478538 
L 190.8375 180480.478538 
L 189.675 180480.478538 
L 188.5125 180480.478538 
L 187.35 180480.478538 
L 186.1875 180480.478538 
L 185.025 180480.478538 
L 183.8625 180480.478538 
L 182.7 180480.478538 
L 181.5375 180480.478538 
L 180.375 180480.478538 
L 179.2125 180480.478538 
L 178.05 180480.478538 
L 176.8875 180480.478538 
L 175.725 180480.478538 
L 174.5625 180480.478538 
L 173.4 180480.478538 
L 172.2375 180480.478538 
L 171.075 180480.478538 
L 169.9125 180480.478538 
L 168.75 180480.478538 
L 167.5875 180480.478538 
L 166.425 180480.478538 
L 165.2625 180480.478538 
L 164.1 180480.478538 
L 162.9375 180480.478538 
L 161.775 180480.478538 
L 160.6125 180480.478538 
L 159.45 180480.478538 
L 158.2875 180480.478538 
L 157.125 180480.478538 
L 155.9625 180480.478538 
L 154.8 180480.478538 
L 153.6375 180480.478538 
L 152.475 180480.478538 
L 151.3125 180480.478538 
L 150.15 180480.478538 
L 148.9875 180480.478538 
L 147.825 180480.478538 
L 146.6625 180480.478538 
L 145.5 180480.478538 
L 144.3375 180480.478538 
L 143.175 180480.478538 
L 142.0125 180480.478538 
L 140.85 180480.478538 
L 139.6875 180480.478538 
L 138.525 180480.478538 
L 137.3625 180480.478538 
L 136.2 180480.478538 
L 135.0375 180480.478538 
L 133.875 180480.478538 
L 132.7125 180480.478538 
L 131.55 180480.478538 
L 130.3875 180480.478538 
L 129.225 180480.478538 
L 128.0625 180480.478538 
L 126.9 180480.478538 
L 125.7375 180480.478538 
L 124.575 180480.478538 
L 123.4125 180480.478538 
L 122.25 180480.478538 
L 121.0875 180480.478538 
L 119.925 180480.478538 
L 118.7625 180480.478538 
L 117.6 180480.478538 
L 116.4375 180480.478538 
L 115.275 180480.478538 
L 114.1125 180480.478538 
L 112.95 180480.478538 
L 111.7875 180480.478538 
L 110.625 180480.478538 
L 109.4625 180480.478538 
L 108.3 180480.478538 
L 107.1375 180480.478538 
L 105.975 180480.478538 
L 104.8125 180480.478538 
L 103.65 180480.478538 
L 102.4875 180480.478538 
L 101.325 180480.478538 
L 100.1625 180480.478538 
L 99 180480.478538 
z
" style="fill:#ff8080;fill-opacity:0.5;stroke:#ff8080;stroke-opacity:0.5;"/>
   </g>
   <g id="matplotlib.axis_1">
    <g id="xtick_1">
     <g id="line2d_1">
      <path clip-path="url(#p68e2955192)" d="M 99 544.68 
L 99 73.44 
" style="fill:none;stroke:#b0b0b0;stroke-linecap:square;stroke-width:0.8;"/>
     </g>
     <g id="line2d_2">
      <defs>
       <path d="M 0 0 
L 0 3.5 
" id="m4abed1d830" style="stroke:#000000;stroke-width:0.8;"/>
      </defs>
      <g>
       <use style="stroke:#000000;stroke-width:0.8;" x="99" xlink:href="#m4abed1d830" y="544.68"/>
      </g>
     </g>
    </g>
    <g id="xtick_2">
     <g id="line2d_3">
      <path clip-path="url(#p68e2955192)" d="M 119.925 544.68 
L 119.925 73.44 
" style="fill:none;stroke:#b0b0b0;stroke-linecap:square;stroke-width:0.8;"/>
     </g>
     <g id="line2d_4">
      <g>
       <use style="stroke:#000000;stroke-width:0.8;" x="119.925" xlink:href="#m4abed1d830" y="544.68"/>
      </g>
     </g>
     <g id="text_1">
      <!-- Apr -->
      <g transform="translate(111.275 559.278437)scale(0.1 -0.1)">
       <defs>
        <path d="M 2188 4044 
L 1331 1722 
L 3047 1722 
L 2188 4044 
z
M 1831 4666 
L 2547 4666 
L 4325 0 
L 3669 0 
L 3244 1197 
L 1141 1197 
L 716 0 
L 50 0 
L 1831 4666 
z
" id="DejaVuSans-41" transform="scale(0.015625)"/>
        <path d="M 1159 525 
L 1159 -1331 
L 581 -1331 
L 581 3500 
L 1159 3500 
L 1159 2969 
Q 1341 3281 1617 3432 
Q 1894 3584 2278 3584 
Q 2916 3584 3314 3078 
Q 3713 2572 3713 1747 
Q 3713 922 3314 415 
Q 2916 -91 2278 -91 
Q 1894 -91 1617 61 
Q 1341 213 1159 525 
z
M 3116 1747 
Q 3116 2381 2855 2742 
Q 2594 3103 2138 3103 
Q 1681 3103 1420 2742 
Q 1159 2381 1159 1747 
Q 1159 1113 1420 752 
Q 1681 391 2138 391 
Q 2594 391 2855 752 
Q 3116 1113 3116 1747 
z
" id="DejaVuSans-70" transform="scale(0.015625)"/>
        <path d="M 2631 2963 
Q 2534 3019 2420 3045 
Q 2306 3072 2169 3072 
Q 1681 3072 1420 2755 
Q 1159 2438 1159 1844 
L 1159 0 
L 581 0 
L 581 3500 
L 1159 3500 
L 1159 2956 
Q 1341 3275 1631 3429 
Q 1922 3584 2338 3584 
Q 2397 3584 2469 3576 
Q 2541 3569 2628 3553 
L 2631 2963 
z
" id="DejaVuSans-72" transform="scale(0.015625)"/>
       </defs>
       <use xlink:href="#DejaVuSans-41"/>
       <use x="68.408203" xlink:href="#DejaVuSans-70"/>
       <use x="131.884766" xlink:href="#DejaVuSans-72"/>
      </g>
     </g>
    </g>
    <g id="xtick_3">
     <g id="line2d_5">
      <path clip-path="url(#p68e2955192)" d="M 225.7125 544.68 
L 225.7125 73.44 
" style="fill:none;stroke:#b0b0b0;stroke-linecap:square;stroke-width:0.8;"/>
     </g>
     <g id="line2d_6">
      <g>
       <use style="stroke:#000000;stroke-width:0.8;" x="225.7125" xlink:href="#m4abed1d830" y="544.68"/>
      </g>
     </g>
     <g id="text_2">
      <!-- Jul -->
      <g transform="translate(219.679687 559.278437)scale(0.1 -0.1)">
       <defs>
        <path d="M 628 4666 
L 1259 4666 
L 1259 325 
Q 1259 -519 939 -900 
Q 619 -1281 -91 -1281 
L -331 -1281 
L -331 -750 
L -134 -750 
Q 284 -750 456 -515 
Q 628 -281 628 325 
L 628 4666 
z
" id="DejaVuSans-4a" transform="scale(0.015625)"/>
        <path d="M 544 1381 
L 544 3500 
L 1119 3500 
L 1119 1403 
Q 1119 906 1312 657 
Q 1506 409 1894 409 
Q 2359 409 2629 706 
Q 2900 1003 2900 1516 
L 2900 3500 
L 3475 3500 
L 3475 0 
L 2900 0 
L 2900 538 
Q 2691 219 2414 64 
Q 2138 -91 1772 -91 
Q 1169 -91 856 284 
Q 544 659 544 1381 
z
M 1991 3584 
L 1991 3584 
z
" id="DejaVuSans-75" transform="scale(0.015625)"/>
        <path d="M 603 4863 
L 1178 4863 
L 1178 0 
L 603 0 
L 603 4863 
z
" id="DejaVuSans-6c" transform="scale(0.015625)"/>
       </defs>
       <use xlink:href="#DejaVuSans-4a"/>
       <use x="29.492188" xlink:href="#DejaVuSans-75"/>
       <use x="92.871094" xlink:href="#DejaVuSans-6c"/>
      </g>
     </g>
    </g>
    <g id="xtick_4">
     <g id="line2d_7">
      <path clip-path="url(#p68e2955192)" d="M 332.6625 544.68 
L 332.6625 73.44 
" style="fill:none;stroke:#b0b0b0;stroke-linecap:square;stroke-width:0.8;"/>
     </g>
     <g id="line2d_8">
      <g>
       <use style="stroke:#000000;stroke-width:0.8;" x="332.6625" xlink:href="#m4abed1d830" y="544.68"/>
      </g>
     </g>
     <g id="text_3">
      <!-- Oct -->
      <g transform="translate(324.017187 559.278437)scale(0.1 -0.1)">
       <defs>
        <path d="M 2522 4238 
Q 1834 4238 1429 3725 
Q 1025 3213 1025 2328 
Q 1025 1447 1429 934 
Q 1834 422 2522 422 
Q 3209 422 3611 934 
Q 4013 1447 4013 2328 
Q 4013 3213 3611 3725 
Q 3209 4238 2522 4238 
z
M 2522 4750 
Q 3503 4750 4090 4092 
Q 4678 3434 4678 2328 
Q 4678 1225 4090 567 
Q 3503 -91 2522 -91 
Q 1538 -91 948 565 
Q 359 1222 359 2328 
Q 359 3434 948 4092 
Q 1538 4750 2522 4750 
z
" id="DejaVuSans-4f" transform="scale(0.015625)"/>
        <path d="M 3122 3366 
L 3122 2828 
Q 2878 2963 2633 3030 
Q 2388 3097 2138 3097 
Q 1578 3097 1268 2742 
Q 959 2388 959 1747 
Q 959 1106 1268 751 
Q 1578 397 2138 397 
Q 2388 397 2633 464 
Q 2878 531 3122 666 
L 3122 134 
Q 2881 22 2623 -34 
Q 2366 -91 2075 -91 
Q 1284 -91 818 406 
Q 353 903 353 1747 
Q 353 2603 823 3093 
Q 1294 3584 2113 3584 
Q 2378 3584 2631 3529 
Q 2884 3475 3122 3366 
z
" id="DejaVuSans-63" transform="scale(0.015625)"/>
        <path d="M 1172 4494 
L 1172 3500 
L 2356 3500 
L 2356 3053 
L 1172 3053 
L 1172 1153 
Q 1172 725 1289 603 
Q 1406 481 1766 481 
L 2356 481 
L 2356 0 
L 1766 0 
Q 1100 0 847 248 
Q 594 497 594 1153 
L 594 3053 
L 172 3053 
L 172 3500 
L 594 3500 
L 594 4494 
L 1172 4494 
z
" id="DejaVuSans-74" transform="scale(0.015625)"/>
       </defs>
       <use xlink:href="#DejaVuSans-4f"/>
       <use x="78.710938" xlink:href="#DejaVuSans-63"/>
       <use x="133.691406" xlink:href="#DejaVuSans-74"/>
      </g>
     </g>
    </g>
    <g id="xtick_5">
     <g id="line2d_9">
      <path clip-path="url(#p68e2955192)" d="M 439.6125 544.68 
L 439.6125 73.44 
" style="fill:none;stroke:#b0b0b0;stroke-linecap:square;stroke-width:0.8;"/>
     </g>
     <g id="line2d_10">
      <g>
       <use style="stroke:#000000;stroke-width:0.8;" x="439.6125" xlink:href="#m4abed1d830" y="544.68"/>
      </g>
     </g>
     <g id="text_4">
      <!-- Jan -->
      <g transform="translate(431.904687 559.278437)scale(0.1 -0.1)">
       <defs>
        <path d="M 2194 1759 
Q 1497 1759 1228 1600 
Q 959 1441 959 1056 
Q 959 750 1161 570 
Q 1363 391 1709 391 
Q 2188 391 2477 730 
Q 2766 1069 2766 1631 
L 2766 1759 
L 2194 1759 
z
M 3341 1997 
L 3341 0 
L 2766 0 
L 2766 531 
Q 2569 213 2275 61 
Q 1981 -91 1556 -91 
Q 1019 -91 701 211 
Q 384 513 384 1019 
Q 384 1609 779 1909 
Q 1175 2209 1959 2209 
L 2766 2209 
L 2766 2266 
Q 2766 2663 2505 2880 
Q 2244 3097 1772 3097 
Q 1472 3097 1187 3025 
Q 903 2953 641 2809 
L 641 3341 
Q 956 3463 1253 3523 
Q 1550 3584 1831 3584 
Q 2591 3584 2966 3190 
Q 3341 2797 3341 1997 
z
" id="DejaVuSans-61" transform="scale(0.015625)"/>
        <path d="M 3513 2113 
L 3513 0 
L 2938 0 
L 2938 2094 
Q 2938 2591 2744 2837 
Q 2550 3084 2163 3084 
Q 1697 3084 1428 2787 
Q 1159 2491 1159 1978 
L 1159 0 
L 581 0 
L 581 3500 
L 1159 3500 
L 1159 2956 
Q 1366 3272 1645 3428 
Q 1925 3584 2291 3584 
Q 2894 3584 3203 3211 
Q 3513 2838 3513 2113 
z
" id="DejaVuSans-6e" transform="scale(0.015625)"/>
       </defs>
       <use xlink:href="#DejaVuSans-4a"/>
       <use x="29.492188" xlink:href="#DejaVuSans-61"/>
       <use x="90.771484" xlink:href="#DejaVuSans-6e"/>
      </g>
      <!-- 2021 -->
      <g transform="translate(426.8875 570.47625)scale(0.1 -0.1)">
       <defs>
        <path d="M 1228 531 
L 3431 531 
L 3431 0 
L 469 0 
L 469 531 
Q 828 903 1448 1529 
Q 2069 2156 2228 2338 
Q 2531 2678 2651 2914 
Q 2772 3150 2772 3378 
Q 2772 3750 2511 3984 
Q 2250 4219 1831 4219 
Q 1534 4219 1204 4116 
Q 875 4013 500 3803 
L 500 4441 
Q 881 4594 1212 4672 
Q 1544 4750 1819 4750 
Q 2544 4750 2975 4387 
Q 3406 4025 3406 3419 
Q 3406 3131 3298 2873 
Q 3191 2616 2906 2266 
Q 2828 2175 2409 1742 
Q 1991 1309 1228 531 
z
" id="DejaVuSans-32" transform="scale(0.015625)"/>
        <path d="M 2034 4250 
Q 1547 4250 1301 3770 
Q 1056 3291 1056 2328 
Q 1056 1369 1301 889 
Q 1547 409 2034 409 
Q 2525 409 2770 889 
Q 3016 1369 3016 2328 
Q 3016 3291 2770 3770 
Q 2525 4250 2034 4250 
z
M 2034 4750 
Q 2819 4750 3233 4129 
Q 3647 3509 3647 2328 
Q 3647 1150 3233 529 
Q 2819 -91 2034 -91 
Q 1250 -91 836 529 
Q 422 1150 422 2328 
Q 422 3509 836 4129 
Q 1250 4750 2034 4750 
z
" id="DejaVuSans-30" transform="scale(0.015625)"/>
        <path d="M 794 531 
L 1825 531 
L 1825 4091 
L 703 3866 
L 703 4441 
L 1819 4666 
L 2450 4666 
L 2450 531 
L 3481 531 
L 3481 0 
L 794 0 
L 794 531 
z
" id="DejaVuSans-31" transform="scale(0.015625)"/>
       </defs>
       <use xlink:href="#DejaVuSans-32"/>
       <use x="63.623047" xlink:href="#DejaVuSans-30"/>
       <use x="127.246094" xlink:href="#DejaVuSans-32"/>
       <use x="190.869141" xlink:href="#DejaVuSans-31"/>
      </g>
     </g>
    </g>
    <g id="xtick_6">
     <g id="line2d_11">
      <path clip-path="url(#p68e2955192)" d="M 544.2375 544.68 
L 544.2375 73.44 
" style="fill:none;stroke:#b0b0b0;stroke-linecap:square;stroke-width:0.8;"/>
     </g>
     <g id="line2d_12">
      <g>
       <use style="stroke:#000000;stroke-width:0.8;" x="544.2375" xlink:href="#m4abed1d830" y="544.68"/>
      </g>
     </g>
     <g id="text_5">
      <!-- Apr -->
      <g transform="translate(535.5875 559.278437)scale(0.1 -0.1)">
       <use xlink:href="#DejaVuSans-41"/>
       <use x="68.408203" xlink:href="#DejaVuSans-70"/>
       <use x="131.884766" xlink:href="#DejaVuSans-72"/>
      </g>
     </g>
    </g>
    <g id="xtick_7">
     <g id="line2d_13">
      <path clip-path="url(#p68e2955192)" d="M 650.025 544.68 
L 650.025 73.44 
" style="fill:none;stroke:#b0b0b0;stroke-linecap:square;stroke-width:0.8;"/>
     </g>
     <g id="line2d_14">
      <g>
       <use style="stroke:#000000;stroke-width:0.8;" x="650.025" xlink:href="#m4abed1d830" y="544.68"/>
      </g>
     </g>
     <g id="text_6">
      <!-- Jul -->
      <g transform="translate(643.992187 559.278437)scale(0.1 -0.1)">
       <use xlink:href="#DejaVuSans-4a"/>
       <use x="29.492188" xlink:href="#DejaVuSans-75"/>
       <use x="92.871094" xlink:href="#DejaVuSans-6c"/>
      </g>
     </g>
    </g>
    <g id="xtick_8">
     <g id="line2d_15">
      <path clip-path="url(#p68e2955192)" d="M 712.8 544.68 
L 712.8 73.44 
" style="fill:none;stroke:#b0b0b0;stroke-linecap:square;stroke-width:0.8;"/>
     </g>
     <g id="line2d_16">
      <g>
       <use style="stroke:#000000;stroke-width:0.8;" x="712.8" xlink:href="#m4abed1d830" y="544.68"/>
      </g>
     </g>
    </g>
    <g id="xtick_9">
     <g id="line2d_17">
      <defs>
       <path d="M 0 0 
L 0 2 
" id="mbe9820739d" style="stroke:#000000;stroke-width:0.6;"/>
      </defs>
      <g>
       <use style="stroke:#000000;stroke-width:0.6;" x="154.8" xlink:href="#mbe9820739d" y="544.68"/>
      </g>
     </g>
    </g>
    <g id="xtick_10">
     <g id="line2d_18">
      <g>
       <use style="stroke:#000000;stroke-width:0.6;" x="190.8375" xlink:href="#mbe9820739d" y="544.68"/>
      </g>
     </g>
    </g>
    <g id="xtick_11">
     <g id="line2d_19">
      <g>
       <use style="stroke:#000000;stroke-width:0.6;" x="261.75" xlink:href="#mbe9820739d" y="544.68"/>
      </g>
     </g>
    </g>
    <g id="xtick_12">
     <g id="line2d_20">
      <g>
       <use style="stroke:#000000;stroke-width:0.6;" x="297.7875" xlink:href="#mbe9820739d" y="544.68"/>
      </g>
     </g>
    </g>
    <g id="xtick_13">
     <g id="line2d_21">
      <g>
       <use style="stroke:#000000;stroke-width:0.6;" x="368.7" xlink:href="#mbe9820739d" y="544.68"/>
      </g>
     </g>
    </g>
    <g id="xtick_14">
     <g id="line2d_22">
      <g>
       <use style="stroke:#000000;stroke-width:0.6;" x="403.575" xlink:href="#mbe9820739d" y="544.68"/>
      </g>
     </g>
    </g>
    <g id="xtick_15">
     <g id="line2d_23">
      <g>
       <use style="stroke:#000000;stroke-width:0.6;" x="475.65" xlink:href="#mbe9820739d" y="544.68"/>
      </g>
     </g>
    </g>
    <g id="xtick_16">
     <g id="line2d_24">
      <g>
       <use style="stroke:#000000;stroke-width:0.6;" x="508.2" xlink:href="#mbe9820739d" y="544.68"/>
      </g>
     </g>
    </g>
    <g id="xtick_17">
     <g id="line2d_25">
      <g>
       <use style="stroke:#000000;stroke-width:0.6;" x="579.1125" xlink:href="#mbe9820739d" y="544.68"/>
      </g>
     </g>
    </g>
    <g id="xtick_18">
     <g id="line2d_26">
      <g>
       <use style="stroke:#000000;stroke-width:0.6;" x="615.15" xlink:href="#mbe9820739d" y="544.68"/>
      </g>
     </g>
    </g>
    <g id="xtick_19">
     <g id="line2d_27">
      <g>
       <use style="stroke:#000000;stroke-width:0.6;" x="686.0625" xlink:href="#mbe9820739d" y="544.68"/>
      </g>
     </g>
    </g>
    <g id="text_7">
     <!-- Date -->
     <g transform="translate(393.949219 584.154375)scale(0.1 -0.1)">
      <defs>
       <path d="M 1259 4147 
L 1259 519 
L 2022 519 
Q 2988 519 3436 956 
Q 3884 1394 3884 2338 
Q 3884 3275 3436 3711 
Q 2988 4147 2022 4147 
L 1259 4147 
z
M 628 4666 
L 1925 4666 
Q 3281 4666 3915 4102 
Q 4550 3538 4550 2338 
Q 4550 1131 3912 565 
Q 3275 0 1925 0 
L 628 0 
L 628 4666 
z
" id="DejaVuSans-44" transform="scale(0.015625)"/>
       <path d="M 3597 1894 
L 3597 1613 
L 953 1613 
Q 991 1019 1311 708 
Q 1631 397 2203 397 
Q 2534 397 2845 478 
Q 3156 559 3463 722 
L 3463 178 
Q 3153 47 2828 -22 
Q 2503 -91 2169 -91 
Q 1331 -91 842 396 
Q 353 884 353 1716 
Q 353 2575 817 3079 
Q 1281 3584 2069 3584 
Q 2775 3584 3186 3129 
Q 3597 2675 3597 1894 
z
M 3022 2063 
Q 3016 2534 2758 2815 
Q 2500 3097 2075 3097 
Q 1594 3097 1305 2825 
Q 1016 2553 972 2059 
L 3022 2063 
z
" id="DejaVuSans-65" transform="scale(0.015625)"/>
      </defs>
      <use xlink:href="#DejaVuSans-44"/>
      <use x="77.001953" xlink:href="#DejaVuSans-61"/>
      <use x="138.28125" xlink:href="#DejaVuSans-74"/>
      <use x="177.490234" xlink:href="#DejaVuSans-65"/>
     </g>
    </g>
   </g>
   <g id="matplotlib.axis_2">
    <g id="ytick_1">
     <g id="line2d_28">
      <path clip-path="url(#p68e2955192)" d="M 99 469.071167 
L 712.8 469.071167 
" style="fill:none;stroke:#b0b0b0;stroke-linecap:square;stroke-width:0.8;"/>
     </g>
     <g id="line2d_29">
      <defs>
       <path d="M 0 0 
L -3.5 0 
" id="me91a084207" style="stroke:#000000;stroke-width:0.8;"/>
      </defs>
      <g>
       <use style="stroke:#000000;stroke-width:0.8;" x="99" xlink:href="#me91a084207" y="469.071167"/>
      </g>
     </g>
     <g id="text_8">
      <!-- $\mathdefault{10^{0}}$ -->
      <g transform="translate(74.4 472.870386)scale(0.1 -0.1)">
       <use transform="translate(0 0.765625)" xlink:href="#DejaVuSans-31"/>
       <use transform="translate(63.623047 0.765625)" xlink:href="#DejaVuSans-30"/>
       <use transform="translate(128.203125 39.046875)scale(0.7)" xlink:href="#DejaVuSans-30"/>
      </g>
     </g>
    </g>
    <g id="ytick_2">
     <g id="line2d_30">
      <path clip-path="url(#p68e2955192)" d="M 99 289.059759 
L 712.8 289.059759 
" style="fill:none;stroke:#b0b0b0;stroke-linecap:square;stroke-width:0.8;"/>
     </g>
     <g id="line2d_31">
      <g>
       <use style="stroke:#000000;stroke-width:0.8;" x="99" xlink:href="#me91a084207" y="289.059759"/>
      </g>
     </g>
     <g id="text_9">
      <!-- $\mathdefault{10^{1}}$ -->
      <g transform="translate(74.4 292.858978)scale(0.1 -0.1)">
       <use transform="translate(0 0.684375)" xlink:href="#DejaVuSans-31"/>
       <use transform="translate(63.623047 0.684375)" xlink:href="#DejaVuSans-30"/>
       <use transform="translate(128.203125 38.965625)scale(0.7)" xlink:href="#DejaVuSans-31"/>
      </g>
     </g>
    </g>
    <g id="ytick_3">
     <g id="line2d_32">
      <path clip-path="url(#p68e2955192)" d="M 99 109.048352 
L 712.8 109.048352 
" style="fill:none;stroke:#b0b0b0;stroke-linecap:square;stroke-width:0.8;"/>
     </g>
     <g id="line2d_33">
      <g>
       <use style="stroke:#000000;stroke-width:0.8;" x="99" xlink:href="#me91a084207" y="109.048352"/>
      </g>
     </g>
     <g id="text_10">
      <!-- $\mathdefault{10^{2}}$ -->
      <g transform="translate(74.4 112.847571)scale(0.1 -0.1)">
       <use transform="translate(0 0.765625)" xlink:href="#DejaVuSans-31"/>
       <use transform="translate(63.623047 0.765625)" xlink:href="#DejaVuSans-30"/>
       <use transform="translate(128.203125 39.046875)scale(0.7)" xlink:href="#DejaVuSans-32"/>
      </g>
     </g>
    </g>
    <g id="ytick_4">
     <g id="line2d_34">
      <path clip-path="url(#p68e2955192)" d="M 99 540.704908 
L 712.8 540.704908 
" style="fill:none;stroke:#b0b0b0;stroke-linecap:square;stroke-width:0.8;"/>
     </g>
     <g id="line2d_35">
      <defs>
       <path d="M 0 0 
L -2 0 
" id="m0cb60b688e" style="stroke:#000000;stroke-width:0.6;"/>
      </defs>
      <g>
       <use style="stroke:#000000;stroke-width:0.6;" x="99" xlink:href="#m0cb60b688e" y="540.704908"/>
      </g>
     </g>
    </g>
    <g id="ytick_5">
     <g id="line2d_36">
      <path clip-path="url(#p68e2955192)" d="M 99 523.26 
L 712.8 523.26 
" style="fill:none;stroke:#b0b0b0;stroke-linecap:square;stroke-width:0.8;"/>
     </g>
     <g id="line2d_37">
      <g>
       <use style="stroke:#000000;stroke-width:0.6;" x="99" xlink:href="#m0cb60b688e" y="523.26"/>
      </g>
     </g>
    </g>
    <g id="ytick_6">
     <g id="line2d_38">
      <path clip-path="url(#p68e2955192)" d="M 99 509.006472 
L 712.8 509.006472 
" style="fill:none;stroke:#b0b0b0;stroke-linecap:square;stroke-width:0.8;"/>
     </g>
     <g id="line2d_39">
      <g>
       <use style="stroke:#000000;stroke-width:0.6;" x="99" xlink:href="#m0cb60b688e" y="509.006472"/>
      </g>
     </g>
    </g>
    <g id="ytick_7">
     <g id="line2d_40">
      <path clip-path="url(#p68e2955192)" d="M 99 496.955287 
L 712.8 496.955287 
" style="fill:none;stroke:#b0b0b0;stroke-linecap:square;stroke-width:0.8;"/>
     </g>
     <g id="line2d_41">
      <g>
       <use style="stroke:#000000;stroke-width:0.6;" x="99" xlink:href="#m0cb60b688e" y="496.955287"/>
      </g>
     </g>
    </g>
    <g id="ytick_8">
     <g id="line2d_42">
      <path clip-path="url(#p68e2955192)" d="M 99 486.516075 
L 712.8 486.516075 
" style="fill:none;stroke:#b0b0b0;stroke-linecap:square;stroke-width:0.8;"/>
     </g>
     <g id="line2d_43">
      <g>
       <use style="stroke:#000000;stroke-width:0.6;" x="99" xlink:href="#m0cb60b688e" y="486.516075"/>
      </g>
     </g>
    </g>
    <g id="ytick_9">
     <g id="line2d_44">
      <path clip-path="url(#p68e2955192)" d="M 99 477.308037 
L 712.8 477.308037 
" style="fill:none;stroke:#b0b0b0;stroke-linecap:square;stroke-width:0.8;"/>
     </g>
     <g id="line2d_45">
      <g>
       <use style="stroke:#000000;stroke-width:0.6;" x="99" xlink:href="#m0cb60b688e" y="477.308037"/>
      </g>
     </g>
    </g>
    <g id="ytick_10">
     <g id="line2d_46">
      <path clip-path="url(#p68e2955192)" d="M 99 414.882334 
L 712.8 414.882334 
" style="fill:none;stroke:#b0b0b0;stroke-linecap:square;stroke-width:0.8;"/>
     </g>
     <g id="line2d_47">
      <g>
       <use style="stroke:#000000;stroke-width:0.6;" x="99" xlink:href="#m0cb60b688e" y="414.882334"/>
      </g>
     </g>
    </g>
    <g id="ytick_11">
     <g id="line2d_48">
      <path clip-path="url(#p68e2955192)" d="M 99 383.183898 
L 712.8 383.183898 
" style="fill:none;stroke:#b0b0b0;stroke-linecap:square;stroke-width:0.8;"/>
     </g>
     <g id="line2d_49">
      <g>
       <use style="stroke:#000000;stroke-width:0.6;" x="99" xlink:href="#m0cb60b688e" y="383.183898"/>
      </g>
     </g>
    </g>
    <g id="ytick_12">
     <g id="line2d_50">
      <path clip-path="url(#p68e2955192)" d="M 99 360.6935 
L 712.8 360.6935 
" style="fill:none;stroke:#b0b0b0;stroke-linecap:square;stroke-width:0.8;"/>
     </g>
     <g id="line2d_51">
      <g>
       <use style="stroke:#000000;stroke-width:0.6;" x="99" xlink:href="#m0cb60b688e" y="360.6935"/>
      </g>
     </g>
    </g>
    <g id="ytick_13">
     <g id="line2d_52">
      <path clip-path="url(#p68e2955192)" d="M 99 343.248593 
L 712.8 343.248593 
" style="fill:none;stroke:#b0b0b0;stroke-linecap:square;stroke-width:0.8;"/>
     </g>
     <g id="line2d_53">
      <g>
       <use style="stroke:#000000;stroke-width:0.6;" x="99" xlink:href="#m0cb60b688e" y="343.248593"/>
      </g>
     </g>
    </g>
    <g id="ytick_14">
     <g id="line2d_54">
      <path clip-path="url(#p68e2955192)" d="M 99 328.995065 
L 712.8 328.995065 
" style="fill:none;stroke:#b0b0b0;stroke-linecap:square;stroke-width:0.8;"/>
     </g>
     <g id="line2d_55">
      <g>
       <use style="stroke:#000000;stroke-width:0.6;" x="99" xlink:href="#m0cb60b688e" y="328.995065"/>
      </g>
     </g>
    </g>
    <g id="ytick_15">
     <g id="line2d_56">
      <path clip-path="url(#p68e2955192)" d="M 99 316.943879 
L 712.8 316.943879 
" style="fill:none;stroke:#b0b0b0;stroke-linecap:square;stroke-width:0.8;"/>
     </g>
     <g id="line2d_57">
      <g>
       <use style="stroke:#000000;stroke-width:0.6;" x="99" xlink:href="#m0cb60b688e" y="316.943879"/>
      </g>
     </g>
    </g>
    <g id="ytick_16">
     <g id="line2d_58">
      <path clip-path="url(#p68e2955192)" d="M 99 306.504667 
L 712.8 306.504667 
" style="fill:none;stroke:#b0b0b0;stroke-linecap:square;stroke-width:0.8;"/>
     </g>
     <g id="line2d_59">
      <g>
       <use style="stroke:#000000;stroke-width:0.6;" x="99" xlink:href="#m0cb60b688e" y="306.504667"/>
      </g>
     </g>
    </g>
    <g id="ytick_17">
     <g id="line2d_60">
      <path clip-path="url(#p68e2955192)" d="M 99 297.29663 
L 712.8 297.29663 
" style="fill:none;stroke:#b0b0b0;stroke-linecap:square;stroke-width:0.8;"/>
     </g>
     <g id="line2d_61">
      <g>
       <use style="stroke:#000000;stroke-width:0.6;" x="99" xlink:href="#m0cb60b688e" y="297.29663"/>
      </g>
     </g>
    </g>
    <g id="ytick_18">
     <g id="line2d_62">
      <path clip-path="url(#p68e2955192)" d="M 99 234.870926 
L 712.8 234.870926 
" style="fill:none;stroke:#b0b0b0;stroke-linecap:square;stroke-width:0.8;"/>
     </g>
     <g id="line2d_63">
      <g>
       <use style="stroke:#000000;stroke-width:0.6;" x="99" xlink:href="#m0cb60b688e" y="234.870926"/>
      </g>
     </g>
    </g>
    <g id="ytick_19">
     <g id="line2d_64">
      <path clip-path="url(#p68e2955192)" d="M 99 203.172491 
L 712.8 203.172491 
" style="fill:none;stroke:#b0b0b0;stroke-linecap:square;stroke-width:0.8;"/>
     </g>
     <g id="line2d_65">
      <g>
       <use style="stroke:#000000;stroke-width:0.6;" x="99" xlink:href="#m0cb60b688e" y="203.172491"/>
      </g>
     </g>
    </g>
    <g id="ytick_20">
     <g id="line2d_66">
      <path clip-path="url(#p68e2955192)" d="M 99 180.682093 
L 712.8 180.682093 
" style="fill:none;stroke:#b0b0b0;stroke-linecap:square;stroke-width:0.8;"/>
     </g>
     <g id="line2d_67">
      <g>
       <use style="stroke:#000000;stroke-width:0.6;" x="99" xlink:href="#m0cb60b688e" y="180.682093"/>
      </g>
     </g>
    </g>
    <g id="ytick_21">
     <g id="line2d_68">
      <path clip-path="url(#p68e2955192)" d="M 99 163.237185 
L 712.8 163.237185 
" style="fill:none;stroke:#b0b0b0;stroke-linecap:square;stroke-width:0.8;"/>
     </g>
     <g id="line2d_69">
      <g>
       <use style="stroke:#000000;stroke-width:0.6;" x="99" xlink:href="#m0cb60b688e" y="163.237185"/>
      </g>
     </g>
    </g>
    <g id="ytick_22">
     <g id="line2d_70">
      <path clip-path="url(#p68e2955192)" d="M 99 148.983658 
L 712.8 148.983658 
" style="fill:none;stroke:#b0b0b0;stroke-linecap:square;stroke-width:0.8;"/>
     </g>
     <g id="line2d_71">
      <g>
       <use style="stroke:#000000;stroke-width:0.6;" x="99" xlink:href="#m0cb60b688e" y="148.983658"/>
      </g>
     </g>
    </g>
    <g id="ytick_23">
     <g id="line2d_72">
      <path clip-path="url(#p68e2955192)" d="M 99 136.932472 
L 712.8 136.932472 
" style="fill:none;stroke:#b0b0b0;stroke-linecap:square;stroke-width:0.8;"/>
     </g>
     <g id="line2d_73">
      <g>
       <use style="stroke:#000000;stroke-width:0.6;" x="99" xlink:href="#m0cb60b688e" y="136.932472"/>
      </g>
     </g>
    </g>
    <g id="ytick_24">
     <g id="line2d_74">
      <path clip-path="url(#p68e2955192)" d="M 99 126.49326 
L 712.8 126.49326 
" style="fill:none;stroke:#b0b0b0;stroke-linecap:square;stroke-width:0.8;"/>
     </g>
     <g id="line2d_75">
      <g>
       <use style="stroke:#000000;stroke-width:0.6;" x="99" xlink:href="#m0cb60b688e" y="126.49326"/>
      </g>
     </g>
    </g>
    <g id="ytick_25">
     <g id="line2d_76">
      <path clip-path="url(#p68e2955192)" d="M 99 117.285222 
L 712.8 117.285222 
" style="fill:none;stroke:#b0b0b0;stroke-linecap:square;stroke-width:0.8;"/>
     </g>
     <g id="line2d_77">
      <g>
       <use style="stroke:#000000;stroke-width:0.6;" x="99" xlink:href="#m0cb60b688e" y="117.285222"/>
      </g>
     </g>
    </g>
   </g>
   <g id="line2d_78">
    <path clip-path="url(#p68e2955192)" d="M 123.41192 613 
L 123.4125 523.26 
L 123.41308 613 
M 125.73692 613 
L 125.7375 523.26 
L 126.9 469.071167 
L 128.0625 469.071167 
L 129.225 437.372731 
L 130.3875 469.071167 
L 136.2 469.071167 
L 137.3625 523.26 
L 138.525 523.26 
L 138.52558 613 
M 152.47442 613 
L 152.475 523.26 
L 153.6375 523.26 
L 153.63808 613 
M 224.54942 613 
L 224.55 523.26 
L 225.7125 469.071167 
L 226.875 437.372731 
L 228.0375 414.882334 
L 229.2 437.372731 
L 230.3625 437.372731 
L 231.525 414.882334 
L 232.6875 414.882334 
L 233.85 397.437426 
L 236.175 343.248593 
L 237.3375 328.995065 
L 238.5 328.995065 
L 239.6625 311.550157 
L 240.825 289.059759 
L 241.9875 289.059759 
L 243.15 274.806232 
L 244.3125 271.614852 
L 245.475 262.755046 
L 251.2875 262.755046 
L 252.45 271.614852 
L 253.6125 281.608604 
L 254.775 285.245444 
L 255.9375 285.245444 
L 257.1 293.069765 
L 258.2625 289.059759 
L 259.425 293.069765 
L 264.075 293.069765 
L 265.2375 289.059759 
L 266.4 289.059759 
L 267.5625 274.806232 
L 269.8875 274.806232 
L 271.05 260.011678 
L 272.2125 249.910169 
L 273.375 240.965801 
L 274.5375 240.965801 
L 275.7 234.870926 
L 282.675 234.870926 
L 283.8375 220.617399 
L 285 204.486437 
L 287.325 204.486437 
L 288.4875 211.409361 
L 291.975 211.409361 
L 293.1375 229.217044 
L 294.3 208.566213 
L 296.625 208.566213 
L 297.7875 238.880931 
L 298.95 293.069765 
L 300.1125 335.797437 
L 301.275 343.248593 
L 302.4375 335.797437 
L 304.7625 335.797437 
L 305.925 343.248593 
L 307.0875 335.797437 
L 308.25 343.248593 
L 310.575 343.248593 
L 311.7375 351.485463 
L 312.9 360.6935 
L 314.0625 343.248593 
L 316.3875 343.248593 
L 317.55 328.995065 
L 318.7125 343.248593 
L 319.875 343.248593 
L 321.0375 397.437426 
L 322.2 343.248593 
L 323.3625 343.248593 
L 324.525 371.132712 
L 325.6875 328.995065 
L 329.175 328.995065 
L 330.3375 371.132712 
L 332.6625 371.132712 
L 333.825 523.26 
L 334.9875 469.071167 
L 336.15 523.26 
L 337.3125 523.26 
L 337.31308 613 
M 340.79942 613 
L 340.8 523.26 
L 340.80058 613 
M 354.74942 613 
L 354.75 523.26 
L 354.75058 613 
M 358.23692 613 
L 358.2375 523.26 
L 358.23808 613 
M 361.72442 613 
L 361.725 523.26 
L 362.8875 523.26 
L 364.05 437.372731 
L 365.2125 469.071167 
L 366.375 414.882334 
L 371.025 414.882334 
L 372.1875 397.437426 
L 373.35 414.882334 
L 379.1625 414.882334 
L 380.325 469.071167 
L 388.4625 469.071167 
L 389.625 360.6935 
L 390.7875 316.943879 
L 391.95 316.943879 
L 393.1125 306.504667 
L 394.275 306.504667 
L 395.4375 301.765158 
L 397.7625 301.765158 
L 398.925 316.943879 
L 400.0875 311.550157 
L 402.4125 311.550157 
L 403.575 328.995065 
L 404.7375 328.995065 
L 405.9 343.248593 
L 407.0625 343.248593 
L 408.225 371.132712 
L 409.3875 437.372731 
L 410.55 414.882334 
L 411.7125 414.882334 
L 414.0375 274.806232 
L 415.2 240.965801 
L 416.3625 274.806232 
L 417.525 274.806232 
L 418.6875 247.576325 
L 419.85 236.850221 
L 421.0125 247.576325 
L 422.175 236.850221 
L 425.6625 236.850221 
L 426.825 247.576325 
L 427.9875 260.011678 
L 430.3125 260.011678 
L 431.475 271.614852 
L 433.8 271.614852 
L 436.125 285.245444 
L 437.2875 278.133456 
L 438.45 278.133456 
L 439.6125 285.245444 
L 440.775 301.765158 
L 441.9375 335.797437 
L 443.1 335.797437 
L 444.2625 397.437426 
L 444.263892 613 
M 467.510812 613 
L 467.5125 351.485463 
L 469.8375 351.485463 
L 471 289.059759 
L 472.1625 271.614852 
L 473.325 271.614852 
L 474.4875 289.059759 
L 475.65 271.614852 
L 476.8125 289.059759 
L 477.975 316.943879 
L 479.1375 293.069765 
L 480.3 297.29663 
L 481.4625 316.943879 
L 482.625 297.29663 
L 483.7875 316.943879 
L 491.925 316.943879 
L 494.25 328.995065 
L 495.4125 328.995065 
L 496.575 306.504667 
L 497.7375 306.504667 
L 498.9 437.372731 
L 500.0625 371.132712 
L 501.225 371.132712 
L 502.3875 316.943879 
L 503.55 316.943879 
L 504.7125 371.132712 
L 505.875 316.943879 
L 507.0375 316.943879 
L 508.2 371.132712 
L 509.3625 371.132712 
L 510.525 316.943879 
L 511.6875 322.737489 
L 515.175 322.737489 
L 516.3375 293.069765 
L 517.5 351.485463 
L 518.6625 351.485463 
L 519.825 383.183898 
L 520.9875 328.995065 
L 522.15 383.183898 
L 525.6375 383.183898 
L 525.638983 613 
M 593.061108 613 
L 593.0625 397.437426 
L 595.3875 397.437426 
L 595.388892 613 
M 601.198608 613 
L 601.2 397.437426 
L 602.3625 397.437426 
L 602.363892 613 
M 630.260667 613 
L 630.2625 328.995065 
L 632.5875 328.995065 
L 633.75 274.806232 
L 638.4 274.806232 
L 639.5625 297.29663 
L 640.725 335.797437 
L 645.375 335.797437 
L 646.5375 351.485463 
L 647.7 351.485463 
L 648.8625 414.882334 
L 650.025 414.882334 
L 650.026279 613 
M 665.135759 613 
L 665.1375 343.248593 
L 669.7875 343.248593 
L 670.95 271.614852 
L 672.1125 271.614852 
L 673.275 343.248593 
L 674.4375 271.614852 
L 675.6 343.248593 
L 679.0875 343.248593 
L 679.089241 613 
M 689.547992 613 
L 689.55 301.765158 
L 690.7125 301.765158 
L 691.875 225.662889 
L 695.3625 225.662889 
L 696.525 200.609049 
L 698.85 200.609049 
L 700.0125 174.12441 
L 703.5 174.12441 
L 704.6625 179.710926 
L 705.825 158.681841 
L 706.9875 188.918963 
L 708.15 293.069765 
L 709.3125 293.069765 
L 710.475 188.918963 
L 711.6375 257.361324 
L 712.8 257.361324 
L 712.8 257.361324 
" style="fill:none;stroke:#1f77b4;stroke-linecap:square;stroke-width:1.5;"/>
   </g>
   <g id="line2d_79">
    <path clip-path="url(#p68e2955192)" d="M 0 0 
" style="fill:none;stroke:#ff7f0e;stroke-linecap:square;stroke-width:1.5;"/>
   </g>
   <g id="patch_3">
    <path d="M 99 544.68 
L 99 73.44 
" style="fill:none;stroke:#000000;stroke-linecap:square;stroke-linejoin:miter;stroke-width:0.8;"/>
   </g>
   <g id="patch_4">
    <path d="M 712.8 544.68 
L 712.8 73.44 
" style="fill:none;stroke:#000000;stroke-linecap:square;stroke-linejoin:miter;stroke-width:0.8;"/>
   </g>
   <g id="patch_5">
    <path d="M 99 544.68 
L 712.8 544.68 
" style="fill:none;stroke:#000000;stroke-linecap:square;stroke-linejoin:miter;stroke-width:0.8;"/>
   </g>
   <g id="patch_6">
    <path d="M 99 73.44 
L 712.8 73.44 
" style="fill:none;stroke:#000000;stroke-linecap:square;stroke-linejoin:miter;stroke-width:0.8;"/>
   </g>
   <g id="legend_1">
    <g id="patch_7">
     <path d="M 616.653125 110.79625 
L 705.8 110.79625 
Q 707.8 110.79625 707.8 108.79625 
L 707.8 80.44 
Q 707.8 78.44 705.8 78.44 
L 616.653125 78.44 
Q 614.653125 78.44 614.653125 80.44 
L 614.653125 108.79625 
Q 614.653125 110.79625 616.653125 110.79625 
z
" style="fill:#ffffff;opacity:0.8;stroke:#cccccc;stroke-linejoin:miter;"/>
    </g>
    <g id="line2d_80">
     <path d="M 618.653125 86.538437 
L 638.653125 86.538437 
" style="fill:none;stroke:#1f77b4;stroke-linecap:square;stroke-width:1.5;"/>
    </g>
    <g id="line2d_81"/>
    <g id="text_11">
     <!-- Avg Cases -->
     <g transform="translate(646.653125 90.038437)scale(0.1 -0.1)">
      <defs>
       <path d="M 191 3500 
L 800 3500 
L 1894 563 
L 2988 3500 
L 3597 3500 
L 2284 0 
L 1503 0 
L 191 3500 
z
" id="DejaVuSans-76" transform="scale(0.015625)"/>
       <path d="M 2906 1791 
Q 2906 2416 2648 2759 
Q 2391 3103 1925 3103 
Q 1463 3103 1205 2759 
Q 947 2416 947 1791 
Q 947 1169 1205 825 
Q 1463 481 1925 481 
Q 2391 481 2648 825 
Q 2906 1169 2906 1791 
z
M 3481 434 
Q 3481 -459 3084 -895 
Q 2688 -1331 1869 -1331 
Q 1566 -1331 1297 -1286 
Q 1028 -1241 775 -1147 
L 775 -588 
Q 1028 -725 1275 -790 
Q 1522 -856 1778 -856 
Q 2344 -856 2625 -561 
Q 2906 -266 2906 331 
L 2906 616 
Q 2728 306 2450 153 
Q 2172 0 1784 0 
Q 1141 0 747 490 
Q 353 981 353 1791 
Q 353 2603 747 3093 
Q 1141 3584 1784 3584 
Q 2172 3584 2450 3431 
Q 2728 3278 2906 2969 
L 2906 3500 
L 3481 3500 
L 3481 434 
z
" id="DejaVuSans-67" transform="scale(0.015625)"/>
       <path id="DejaVuSans-20" transform="scale(0.015625)"/>
       <path d="M 4122 4306 
L 4122 3641 
Q 3803 3938 3442 4084 
Q 3081 4231 2675 4231 
Q 1875 4231 1450 3742 
Q 1025 3253 1025 2328 
Q 1025 1406 1450 917 
Q 1875 428 2675 428 
Q 3081 428 3442 575 
Q 3803 722 4122 1019 
L 4122 359 
Q 3791 134 3420 21 
Q 3050 -91 2638 -91 
Q 1578 -91 968 557 
Q 359 1206 359 2328 
Q 359 3453 968 4101 
Q 1578 4750 2638 4750 
Q 3056 4750 3426 4639 
Q 3797 4528 4122 4306 
z
" id="DejaVuSans-43" transform="scale(0.015625)"/>
       <path d="M 2834 3397 
L 2834 2853 
Q 2591 2978 2328 3040 
Q 2066 3103 1784 3103 
Q 1356 3103 1142 2972 
Q 928 2841 928 2578 
Q 928 2378 1081 2264 
Q 1234 2150 1697 2047 
L 1894 2003 
Q 2506 1872 2764 1633 
Q 3022 1394 3022 966 
Q 3022 478 2636 193 
Q 2250 -91 1575 -91 
Q 1294 -91 989 -36 
Q 684 19 347 128 
L 347 722 
Q 666 556 975 473 
Q 1284 391 1588 391 
Q 1994 391 2212 530 
Q 2431 669 2431 922 
Q 2431 1156 2273 1281 
Q 2116 1406 1581 1522 
L 1381 1569 
Q 847 1681 609 1914 
Q 372 2147 372 2553 
Q 372 3047 722 3315 
Q 1072 3584 1716 3584 
Q 2034 3584 2315 3537 
Q 2597 3491 2834 3397 
z
" id="DejaVuSans-73" transform="scale(0.015625)"/>
      </defs>
      <use xlink:href="#DejaVuSans-41"/>
      <use x="62.533203" xlink:href="#DejaVuSans-76"/>
      <use x="121.712891" xlink:href="#DejaVuSans-67"/>
      <use x="185.189453" xlink:href="#DejaVuSans-20"/>
      <use x="216.976562" xlink:href="#DejaVuSans-43"/>
      <use x="286.800781" xlink:href="#DejaVuSans-61"/>
      <use x="348.080078" xlink:href="#DejaVuSans-73"/>
      <use x="400.179688" xlink:href="#DejaVuSans-65"/>
      <use x="461.703125" xlink:href="#DejaVuSans-73"/>
     </g>
    </g>
    <g id="line2d_82">
     <path d="M 618.653125 101.216562 
L 638.653125 101.216562 
" style="fill:none;stroke:#ff7f0e;stroke-linecap:square;stroke-width:1.5;"/>
    </g>
    <g id="line2d_83"/>
    <g id="text_12">
     <!-- Avg Deaths -->
     <g transform="translate(646.653125 104.716562)scale(0.1 -0.1)">
      <defs>
       <path d="M 3513 2113 
L 3513 0 
L 2938 0 
L 2938 2094 
Q 2938 2591 2744 2837 
Q 2550 3084 2163 3084 
Q 1697 3084 1428 2787 
Q 1159 2491 1159 1978 
L 1159 0 
L 581 0 
L 581 4863 
L 1159 4863 
L 1159 2956 
Q 1366 3272 1645 3428 
Q 1925 3584 2291 3584 
Q 2894 3584 3203 3211 
Q 3513 2838 3513 2113 
z
" id="DejaVuSans-68" transform="scale(0.015625)"/>
      </defs>
      <use xlink:href="#DejaVuSans-41"/>
      <use x="62.533203" xlink:href="#DejaVuSans-76"/>
      <use x="121.712891" xlink:href="#DejaVuSans-67"/>
      <use x="185.189453" xlink:href="#DejaVuSans-20"/>
      <use x="216.976562" xlink:href="#DejaVuSans-44"/>
      <use x="293.978516" xlink:href="#DejaVuSans-65"/>
      <use x="355.501953" xlink:href="#DejaVuSans-61"/>
      <use x="416.78125" xlink:href="#DejaVuSans-74"/>
      <use x="455.990234" xlink:href="#DejaVuSans-68"/>
      <use x="519.369141" xlink:href="#DejaVuSans-73"/>
     </g>
    </g>
   </g>
  </g>
 </g>
 <defs>
  <clipPath id="p68e2955192">
   <rect height="471.24" width="613.8" x="99" y="73.44"/>
  </clipPath>
 </defs>
</svg>
