<?xml version="1.0" encoding="utf-8" standalone="no"?>
<!DOCTYPE svg PUBLIC "-//W3C//DTD SVG 1.1//EN"
  "http://www.w3.org/Graphics/SVG/1.1/DTD/svg11.dtd">
<svg height="612pt" version="1.1" viewBox="0 0 792 612" width="792pt" xmlns="http://www.w3.org/2000/svg" xmlns:xlink="http://www.w3.org/1999/xlink">
 <metadata>
  <rdf:RDF xmlns:cc="http://creativecommons.org/ns#" xmlns:dc="http://purl.org/dc/elements/1.1/" xmlns:rdf="http://www.w3.org/1999/02/22-rdf-syntax-ns#">
   <cc:Work>
    <dc:type rdf:resource="http://purl.org/dc/dcmitype/StillImage"/>
    <dc:format>image/svg+xml</dc:format>
    <dc:creator>
     <cc:Agent>
      <dc:title>Matplotlib v3.4.2, https://matplotlib.org/</dc:title>
     </cc:Agent>
    </dc:creator>
   </cc:Work>
  </rdf:RDF>
 </metadata>
 <defs>
  <style type="text/css">*{stroke-linecap:butt;stroke-linejoin:round;}</style>
 </defs>
 <g id="figure_1">
  <g id="patch_1">
   <path d="M 0 612 
L 792 612 
L 792 0 
L 0 0 
z
" style="fill:#ffffff;"/>
  </g>
  <g id="axes_1">
   <g id="patch_2">
    <path d="M 99 544.68 
L 712.8 544.68 
L 712.8 73.44 
L 99 73.44 
z
" style="fill:#ffffff;"/>
   </g>
   <g id="PolyCollection_1">
    <path clip-path="url(#p68e2955192)" d="M 99 180480.478538 
L 99 180480.478538 
L 100.164706 180480.478538 
L 101.329412 180480.478538 
L 102.494118 180480.478538 
L 103.658824 180480.478538 
L 104.823529 180480.478538 
L 105.988235 180480.478538 
L 107.152941 180480.478538 
L 108.317647 180480.478538 
L 109.482353 180480.478538 
L 110.647059 180480.478538 
L 111.811765 180480.478538 
L 112.976471 180480.478538 
L 114.141176 391.420769 
L 115.305882 391.420769 
L 116.470588 366.788375 
L 117.635294 327.702838 
L 118.8 327.702838 
L 119.964706 327.702838 
L 121.129412 316.943879 
L 122.294118 316.943879 
L 123.458824 316.943879 
L 124.623529 327.702838 
L 125.788235 327.702838 
L 126.952941 327.702838 
L 128.117647 327.702838 
L 129.282353 327.702838 
L 130.447059 327.702838 
L 131.611765 327.702838 
L 132.776471 327.702838 
L 133.941176 360.6935 
L 135.105882 360.6935 
L 136.270588 360.6935 
L 137.435294 373.398899 
L 138.6 373.398899 
L 139.764706 414.882334 
L 140.929412 414.882334 
L 142.094118 427.587732 
L 143.258824 427.587732 
L 144.423529 427.587732 
L 145.588235 469.071167 
L 146.752941 469.071167 
L 147.917647 427.587732 
L 149.082353 414.882334 
L 150.247059 414.882334 
L 151.411765 414.882334 
L 152.576471 391.420769 
L 153.741176 391.420769 
L 154.905882 391.420769 
L 156.070588 391.420769 
L 157.235294 391.420769 
L 158.4 391.420769 
L 159.564706 391.420769 
L 160.729412 391.420769 
L 161.894118 391.420769 
L 163.058824 391.420769 
L 164.223529 391.420769 
L 165.388235 391.420769 
L 166.552941 391.420769 
L 167.717647 427.587732 
L 168.882353 496.955287 
L 170.047059 496.955287 
L 171.211765 496.955287 
L 172.376471 496.955287 
L 173.541176 496.955287 
L 174.705882 496.955287 
L 175.870588 496.955287 
L 177.035294 496.955287 
L 178.2 180480.478538 
L 179.364706 180480.478538 
L 180.529412 180480.478538 
L 181.694118 180480.478538 
L 182.858824 180480.478538 
L 184.023529 180480.478538 
L 185.188235 180480.478538 
L 186.352941 180480.478538 
L 187.517647 180480.478538 
L 188.682353 180480.478538 
L 189.847059 180480.478538 
L 191.011765 180480.478538 
L 192.176471 180480.478538 
L 193.341176 496.955287 
L 194.505882 496.955287 
L 195.670588 496.955287 
L 196.835294 496.955287 
L 198 496.955287 
L 199.164706 496.955287 
L 200.329412 469.071167 
L 201.494118 469.071167 
L 202.658824 469.071167 
L 203.823529 469.071167 
L 204.988235 496.955287 
L 206.152941 469.071167 
L 207.317647 469.071167 
L 208.482353 469.071167 
L 209.647059 496.955287 
L 210.811765 469.071167 
L 211.976471 469.071167 
L 213.141176 469.071167 
L 214.305882 469.071167 
L 215.470588 469.071167 
L 216.635294 427.587732 
L 217.8 414.882334 
L 218.964706 414.882334 
L 220.129412 414.882334 
L 221.294118 414.882334 
L 222.458824 414.882334 
L 223.623529 414.882334 
L 224.788235 391.420769 
L 225.952941 391.420769 
L 227.117647 341.700464 
L 228.282353 328.995065 
L 229.447059 328.995065 
L 230.611765 328.995065 
L 231.776471 328.995065 
L 232.941176 328.995065 
L 234.105882 282.322563 
L 235.270588 276.120178 
L 236.435294 264.448498 
L 237.6 262.755046 
L 238.764706 236.450333 
L 239.929412 236.450333 
L 241.094118 220.292334 
L 242.258824 220.292334 
L 243.423529 220.292334 
L 244.588235 220.292334 
L 245.752941 220.292334 
L 246.917647 220.292334 
L 248.082353 220.292334 
L 249.247059 220.292334 
L 250.411765 215.267121 
L 251.576471 215.267121 
L 252.741176 215.267121 
L 253.905882 215.267121 
L 255.070588 219.968615 
L 256.235294 219.968615 
L 257.4 242.243943 
L 258.564706 242.243943 
L 259.729412 242.243943 
L 260.894118 239.293481 
L 262.058824 238.062307 
L 263.223529 238.062307 
L 264.388235 234.48101 
L 265.552941 223.605455 
L 266.717647 223.605455 
L 267.882353 223.605455 
L 269.047059 223.605455 
L 270.211765 223.605455 
L 271.376471 223.605455 
L 272.541176 209.974863 
L 273.705882 190.454064 
L 274.870588 190.454064 
L 276.035294 155.078532 
L 277.2 155.078532 
L 278.364706 155.078532 
L 279.529412 155.078532 
L 280.694118 155.078532 
L 281.858824 155.078532 
L 283.023529 155.928301 
L 284.188235 153.820951 
L 285.352941 143.451076 
L 286.517647 143.451076 
L 287.682353 143.451076 
L 288.847059 143.451076 
L 290.011765 151.904057 
L 291.176471 151.904057 
L 292.341176 173.587102 
L 293.505882 173.587102 
L 294.670588 161.230533 
L 295.835294 161.230533 
L 297 161.230533 
L 298.164706 161.230533 
L 299.329412 161.230533 
L 300.494118 161.230533 
L 301.658824 178.561229 
L 302.823529 178.561229 
L 303.988235 178.561229 
L 305.152941 178.561229 
L 306.317647 187.626736 
L 307.482353 187.626736 
L 308.647059 251.828742 
L 309.811765 251.828742 
L 310.976471 251.828742 
L 312.141176 251.828742 
L 313.305882 251.828742 
L 314.470588 251.828742 
L 315.635294 251.828742 
L 316.8 251.828742 
L 317.964706 241.38953 
L 319.129412 245.310138 
L 320.294118 248.037553 
L 321.458824 248.037553 
L 322.623529 248.037553 
L 323.788235 248.037553 
L 324.952941 248.037553 
L 326.117647 248.037553 
L 327.282353 248.037553 
L 328.447059 248.037553 
L 329.611765 248.037553 
L 330.776471 248.037553 
L 331.941176 248.037553 
L 333.105882 248.037553 
L 334.270588 274.806232 
L 335.435294 274.806232 
L 336.6 280.901106 
L 337.764706 280.901106 
L 338.929412 283.043102 
L 340.094118 312.599542 
L 341.258824 312.599542 
L 342.423529 326.431624 
L 343.588235 427.587732 
L 344.752941 427.587732 
L 345.917647 427.587732 
L 347.082353 391.420769 
L 348.247059 391.420769 
L 349.411765 427.587732 
L 350.576471 427.587732 
L 351.741176 391.420769 
L 352.905882 391.420769 
L 354.070588 391.420769 
L 355.235294 391.420769 
L 356.4 391.420769 
L 357.564706 341.700464 
L 358.729412 341.700464 
L 359.894118 341.700464 
L 361.058824 341.700464 
L 362.223529 341.700464 
L 363.388235 341.700464 
L 364.552941 341.700464 
L 365.717647 341.700464 
L 366.882353 328.995065 
L 368.047059 305.5335 
L 369.211765 305.5335 
L 370.376471 305.5335 
L 371.541176 297.29663 
L 372.705882 297.29663 
L 373.870588 297.29663 
L 375.035294 297.29663 
L 376.2 271.614852 
L 377.364706 271.614852 
L 378.529412 271.614852 
L 379.694118 271.614852 
L 380.858824 271.614852 
L 382.023529 271.614852 
L 383.188235 264.448498 
L 384.352941 276.120178 
L 385.517647 276.120178 
L 386.682353 276.120178 
L 387.847059 260.552704 
L 389.011765 260.552704 
L 390.176471 260.552704 
L 391.341176 260.552704 
L 392.505882 268.548656 
L 393.670588 268.548656 
L 394.835294 268.548656 
L 396 264.448498 
L 397.164706 264.448498 
L 398.329412 264.448498 
L 399.494118 264.448498 
L 400.658824 255.303891 
L 401.823529 255.303891 
L 402.988235 255.303891 
L 404.152941 264.448498 
L 405.317647 245.310138 
L 406.482353 245.310138 
L 407.647059 225.662889 
L 408.811765 225.662889 
L 409.976471 225.662889 
L 411.141176 197.155834 
L 412.305882 192.246187 
L 413.470588 192.246187 
L 414.635294 189.573176 
L 415.8 184.486637 
L 416.964706 184.486637 
L 418.129412 184.486637 
L 419.294118 184.486637 
L 420.458824 184.486637 
L 421.623529 189.573176 
L 422.788235 170.096435 
L 423.952941 170.096435 
L 425.117647 170.096435 
L 426.282353 170.096435 
L 427.447059 170.610202 
L 428.611765 170.610202 
L 429.776471 170.610202 
L 430.941176 177.615898 
L 432.105882 228.493169 
L 433.270588 228.493169 
L 434.435294 228.493169 
L 435.6 228.493169 
L 436.764706 232.940508 
L 437.929412 207.733047 
L 439.094118 228.493169 
L 440.258824 235.656641 
L 441.423529 235.656641 
L 442.588235 235.656641 
L 443.752941 235.656641 
L 444.917647 235.656641 
L 446.082353 235.656641 
L 447.247059 241.815569 
L 448.411765 249.910169 
L 449.576471 249.910169 
L 450.741176 249.910169 
L 451.905882 249.910169 
L 453.070588 208.566213 
L 454.235294 249.910169 
L 455.4 333.00507 
L 456.564706 356.879185 
L 457.729412 180480.478538 
L 458.894118 141.769765 
L 460.058824 141.769765 
L 461.223529 133.973738 
L 462.388235 133.973738 
L 463.552941 133.973738 
L 464.717647 133.973738 
L 465.882353 133.973738 
L 467.047059 133.973738 
L 468.211765 133.973738 
L 469.376471 223.944623 
L 470.541176 223.944623 
L 471.705882 223.944623 
L 472.870588 223.944623 
L 474.035294 223.944623 
L 475.2 224.971044 
L 476.364706 223.944623 
L 477.529412 224.971044 
L 478.694118 227.065222 
L 479.858824 227.065222 
L 481.023529 227.065222 
L 482.188235 233.706965 
L 483.352941 230.315582 
L 484.517647 230.315582 
L 485.682353 241.38953 
L 486.847059 241.38953 
L 488.011765 236.05248 
L 489.176471 234.870926 
L 490.341176 234.870926 
L 491.505882 234.870926 
L 492.670588 236.05248 
L 493.835294 236.05248 
L 495 236.05248 
L 496.164706 236.05248 
L 497.329412 236.05248 
L 498.494118 236.05248 
L 499.658824 236.05248 
L 500.823529 236.05248 
L 501.988235 238.470547 
L 503.152941 234.870926 
L 504.317647 238.470547 
L 505.482353 247.576325 
L 506.647059 247.576325 
L 507.811765 247.576325 
L 508.976471 253.299218 
L 510.141176 253.299218 
L 511.305882 206.09289 
L 512.470588 206.09289 
L 513.635294 209.408353 
L 514.8 209.408353 
L 515.964706 209.408353 
L 517.129412 196.196583 
L 518.294118 196.196583 
L 519.458824 217.739357 
L 520.623529 219.646231 
L 521.788235 219.646231 
L 522.952941 219.646231 
L 524.117647 219.646231 
L 525.282353 219.646231 
L 526.447059 219.646231 
L 527.611765 283.770344 
L 528.776471 283.770344 
L 529.941176 293.069765 
L 531.105882 293.069765 
L 532.270588 293.069765 
L 533.435294 328.995065 
L 534.6 328.995065 
L 535.764706 328.995065 
L 536.929412 351.485463 
L 538.094118 306.504667 
L 539.258824 272.24279 
L 540.423529 272.24279 
L 541.588235 272.24279 
L 542.752941 272.24279 
L 543.917647 272.24279 
L 545.082353 272.24279 
L 546.247059 272.24279 
L 547.411765 272.24279 
L 548.576471 272.24279 
L 549.741176 201.880264 
L 550.905882 201.880264 
L 552.070588 272.24279 
L 553.235294 227.065222 
L 554.4 227.065222 
L 555.564706 234.870926 
L 556.729412 242.243943 
L 557.894118 212.282867 
L 559.058824 212.282867 
L 560.223529 212.282867 
L 561.388235 212.282867 
L 562.552941 212.282867 
L 563.717647 212.282867 
L 564.882353 212.282867 
L 566.047059 222.931503 
L 567.211765 222.931503 
L 568.376471 222.931503 
L 569.541176 220.617399 
L 570.705882 220.617399 
L 571.870588 220.617399 
L 573.035294 220.617399 
L 574.2 232.940508 
L 575.364706 232.940508 
L 576.529412 232.940508 
L 577.694118 237.656186 
L 578.858824 215.877889 
L 580.023529 215.877889 
L 581.188235 215.877889 
L 582.352941 215.877889 
L 583.517647 215.877889 
L 584.682353 215.877889 
L 585.847059 236.450333 
L 587.011765 236.450333 
L 588.176471 205.822845 
L 589.341176 205.822845 
L 590.505882 205.018262 
L 591.670588 205.018262 
L 592.835294 205.018262 
L 594 205.018262 
L 595.164706 223.944623 
L 596.329412 223.944623 
L 597.494118 223.944623 
L 598.658824 223.944623 
L 599.823529 223.944623 
L 600.988235 223.944623 
L 602.152941 223.944623 
L 603.317647 223.944623 
L 604.482353 226.011121 
L 605.647059 226.011121 
L 606.811765 226.011121 
L 607.976471 226.011121 
L 609.141176 232.181493 
L 610.305882 232.181493 
L 611.470588 188.05511 
L 612.635294 188.05511 
L 613.8 188.05511 
L 614.964706 188.05511 
L 616.129412 186.776967 
L 617.294118 170.096435 
L 618.458824 170.096435 
L 619.623529 170.096435 
L 620.788235 170.096435 
L 621.952941 170.096435 
L 623.117647 170.096435 
L 624.282353 166.918711 
L 625.447059 166.918711 
L 626.611765 166.918711 
L 627.776471 166.918711 
L 628.941176 166.918711 
L 630.105882 166.918711 
L 631.270588 166.918711 
L 632.435294 166.918711 
L 633.6 168.40786 
L 634.764706 168.40786 
L 635.929412 168.40786 
L 637.094118 168.40786 
L 638.258824 168.40786 
L 639.423529 176.496385 
L 640.588235 198.127001 
L 641.752941 245.758151 
L 642.917647 245.758151 
L 644.082353 245.758151 
L 645.247059 245.758151 
L 646.411765 245.758151 
L 647.576471 245.758151 
L 648.741176 240.125169 
L 649.905882 240.125169 
L 651.070588 199.110384 
L 652.235294 199.110384 
L 653.4 199.110384 
L 654.564706 199.110384 
L 655.729412 199.110384 
L 656.894118 173.230938 
L 658.058824 173.230938 
L 659.223529 173.230938 
L 660.388235 188.05511 
L 661.552941 188.05511 
L 662.717647 188.05511 
L 663.882353 188.05511 
L 665.047059 188.05511 
L 666.211765 173.230938 
L 667.376471 174.304336 
L 668.541176 174.304336 
L 669.705882 174.304336 
L 670.870588 174.304336 
L 672.035294 153.268454 
L 673.2 158.387385 
L 674.364706 158.387385 
L 675.529412 142.485904 
L 676.694118 142.485904 
L 677.858824 142.485904 
L 679.023529 142.485904 
L 680.188235 134.838786 
L 681.352941 134.838786 
L 682.517647 134.838786 
L 683.682353 124.182413 
L 684.847059 124.182413 
L 686.011765 124.182413 
L 687.176471 124.182413 
L 688.341176 104.272062 
L 689.505882 104.272062 
L 690.670588 104.272062 
L 691.835294 94.86 
L 693 94.86 
L 694.164706 94.86 
L 695.329412 94.86 
L 696.494118 94.86 
L 697.658824 94.86 
L 698.823529 94.86 
L 699.988235 99.979421 
L 701.152941 99.979421 
L 702.317647 99.979421 
L 703.482353 99.979421 
L 704.647059 105.159617 
L 705.811765 105.159617 
L 706.976471 98.531001 
L 708.141176 105.159617 
L 709.305882 105.159617 
L 710.470588 105.159617 
L 711.635294 98.531001 
L 712.8 98.531001 
L 712.8 180480.478538 
L 712.8 180480.478538 
L 711.635294 180480.478538 
L 710.470588 180480.478538 
L 709.305882 180480.478538 
L 708.141176 180480.478538 
L 706.976471 180480.478538 
L 705.811765 180480.478538 
L 704.647059 180480.478538 
L 703.482353 180480.478538 
L 702.317647 180480.478538 
L 701.152941 180480.478538 
L 699.988235 180480.478538 
L 698.823529 180480.478538 
L 697.658824 180480.478538 
L 696.494118 180480.478538 
L 695.329412 180480.478538 
L 694.164706 180480.478538 
L 693 180480.478538 
L 691.835294 180480.478538 
L 690.670588 180480.478538 
L 689.505882 180480.478538 
L 688.341176 180480.478538 
L 687.176471 180480.478538 
L 686.011765 180480.478538 
L 684.847059 180480.478538 
L 683.682353 180480.478538 
L 682.517647 180480.478538 
L 681.352941 180480.478538 
L 680.188235 180480.478538 
L 679.023529 180480.478538 
L 677.858824 180480.478538 
L 676.694118 180480.478538 
L 675.529412 180480.478538 
L 674.364706 180480.478538 
L 673.2 180480.478538 
L 672.035294 180480.478538 
L 670.870588 180480.478538 
L 669.705882 180480.478538 
L 668.541176 180480.478538 
L 667.376471 180480.478538 
L 666.211765 180480.478538 
L 665.047059 180480.478538 
L 663.882353 180480.478538 
L 662.717647 180480.478538 
L 661.552941 180480.478538 
L 660.388235 180480.478538 
L 659.223529 180480.478538 
L 658.058824 180480.478538 
L 656.894118 180480.478538 
L 655.729412 180480.478538 
L 654.564706 180480.478538 
L 653.4 180480.478538 
L 652.235294 180480.478538 
L 651.070588 180480.478538 
L 649.905882 180480.478538 
L 648.741176 180480.478538 
L 647.576471 180480.478538 
L 646.411765 180480.478538 
L 645.247059 180480.478538 
L 644.082353 180480.478538 
L 642.917647 180480.478538 
L 641.752941 180480.478538 
L 640.588235 180480.478538 
L 639.423529 180480.478538 
L 638.258824 180480.478538 
L 637.094118 180480.478538 
L 635.929412 180480.478538 
L 634.764706 180480.478538 
L 633.6 180480.478538 
L 632.435294 180480.478538 
L 631.270588 180480.478538 
L 630.105882 180480.478538 
L 628.941176 180480.478538 
L 627.776471 180480.478538 
L 626.611765 180480.478538 
L 625.447059 180480.478538 
L 624.282353 180480.478538 
L 623.117647 180480.478538 
L 621.952941 180480.478538 
L 620.788235 180480.478538 
L 619.623529 180480.478538 
L 618.458824 180480.478538 
L 617.294118 180480.478538 
L 616.129412 180480.478538 
L 614.964706 180480.478538 
L 613.8 180480.478538 
L 612.635294 180480.478538 
L 611.470588 180480.478538 
L 610.305882 180480.478538 
L 609.141176 180480.478538 
L 607.976471 180480.478538 
L 606.811765 180480.478538 
L 605.647059 180480.478538 
L 604.482353 180480.478538 
L 603.317647 180480.478538 
L 602.152941 180480.478538 
L 600.988235 180480.478538 
L 599.823529 180480.478538 
L 598.658824 180480.478538 
L 597.494118 180480.478538 
L 596.329412 180480.478538 
L 595.164706 180480.478538 
L 594 180480.478538 
L 592.835294 180480.478538 
L 591.670588 180480.478538 
L 590.505882 180480.478538 
L 589.341176 180480.478538 
L 588.176471 180480.478538 
L 587.011765 180480.478538 
L 585.847059 180480.478538 
L 584.682353 180480.478538 
L 583.517647 180480.478538 
L 582.352941 180480.478538 
L 581.188235 180480.478538 
L 580.023529 180480.478538 
L 578.858824 180480.478538 
L 577.694118 180480.478538 
L 576.529412 180480.478538 
L 575.364706 180480.478538 
L 574.2 180480.478538 
L 573.035294 180480.478538 
L 571.870588 180480.478538 
L 570.705882 180480.478538 
L 569.541176 180480.478538 
L 568.376471 180480.478538 
L 567.211765 180480.478538 
L 566.047059 180480.478538 
L 564.882353 180480.478538 
L 563.717647 180480.478538 
L 562.552941 180480.478538 
L 561.388235 180480.478538 
L 560.223529 180480.478538 
L 559.058824 180480.478538 
L 557.894118 180480.478538 
L 556.729412 180480.478538 
L 555.564706 180480.478538 
L 554.4 180480.478538 
L 553.235294 180480.478538 
L 552.070588 180480.478538 
L 550.905882 180480.478538 
L 549.741176 180480.478538 
L 548.576471 180480.478538 
L 547.411765 180480.478538 
L 546.247059 180480.478538 
L 545.082353 180480.478538 
L 543.917647 180480.478538 
L 542.752941 180480.478538 
L 541.588235 180480.478538 
L 540.423529 180480.478538 
L 539.258824 180480.478538 
L 538.094118 180480.478538 
L 536.929412 180480.478538 
L 535.764706 180480.478538 
L 534.6 180480.478538 
L 533.435294 180480.478538 
L 532.270588 180480.478538 
L 531.105882 180480.478538 
L 529.941176 180480.478538 
L 528.776471 180480.478538 
L 527.611765 180480.478538 
L 526.447059 180480.478538 
L 525.282353 180480.478538 
L 524.117647 180480.478538 
L 522.952941 180480.478538 
L 521.788235 180480.478538 
L 520.623529 180480.478538 
L 519.458824 180480.478538 
L 518.294118 180480.478538 
L 517.129412 180480.478538 
L 515.964706 180480.478538 
L 514.8 180480.478538 
L 513.635294 180480.478538 
L 512.470588 180480.478538 
L 511.305882 180480.478538 
L 510.141176 180480.478538 
L 508.976471 180480.478538 
L 507.811765 180480.478538 
L 506.647059 180480.478538 
L 505.482353 180480.478538 
L 504.317647 180480.478538 
L 503.152941 180480.478538 
L 501.988235 180480.478538 
L 500.823529 180480.478538 
L 499.658824 180480.478538 
L 498.494118 180480.478538 
L 497.329412 180480.478538 
L 496.164706 180480.478538 
L 495 180480.478538 
L 493.835294 180480.478538 
L 492.670588 180480.478538 
L 491.505882 180480.478538 
L 490.341176 180480.478538 
L 489.176471 180480.478538 
L 488.011765 180480.478538 
L 486.847059 180480.478538 
L 485.682353 180480.478538 
L 484.517647 180480.478538 
L 483.352941 368.930371 
L 482.188235 180480.478538 
L 481.023529 368.930371 
L 479.858824 368.930371 
L 478.694118 180480.478538 
L 477.529412 180480.478538 
L 476.364706 180480.478538 
L 475.2 180480.478538 
L 474.035294 180480.478538 
L 472.870588 180480.478538 
L 471.705882 180480.478538 
L 470.541176 180480.478538 
L 469.376471 180480.478538 
L 468.211765 180480.478538 
L 467.047059 180480.478538 
L 465.882353 180480.478538 
L 464.717647 180480.478538 
L 463.552941 180480.478538 
L 462.388235 180480.478538 
L 461.223529 180480.478538 
L 460.058824 180480.478538 
L 458.894118 180480.478538 
L 457.729412 180480.478538 
L 456.564706 180480.478538 
L 455.4 180480.478538 
L 454.235294 180480.478538 
L 453.070588 180480.478538 
L 451.905882 180480.478538 
L 450.741176 180480.478538 
L 449.576471 180480.478538 
L 448.411765 180480.478538 
L 447.247059 180480.478538 
L 446.082353 180480.478538 
L 444.917647 180480.478538 
L 443.752941 180480.478538 
L 442.588235 180480.478538 
L 441.423529 180480.478538 
L 440.258824 180480.478538 
L 439.094118 180480.478538 
L 437.929412 180480.478538 
L 436.764706 180480.478538 
L 435.6 180480.478538 
L 434.435294 297.29663 
L 433.270588 297.29663 
L 432.105882 297.29663 
L 430.941176 297.29663 
L 429.776471 297.29663 
L 428.611765 297.29663 
L 427.447059 297.29663 
L 426.282353 282.322563 
L 425.117647 297.29663 
L 423.952941 180480.478538 
L 422.788235 180480.478538 
L 421.623529 180480.478538 
L 420.458824 180480.478538 
L 419.294118 180480.478538 
L 418.129412 180480.478538 
L 416.964706 180480.478538 
L 415.8 368.930371 
L 414.635294 180480.478538 
L 413.470588 180480.478538 
L 412.305882 180480.478538 
L 411.141176 180480.478538 
L 409.976471 180480.478538 
L 408.811765 180480.478538 
L 407.647059 180480.478538 
L 406.482353 180480.478538 
L 405.317647 391.420769 
L 404.152941 391.420769 
L 402.988235 391.420769 
L 401.823529 391.420769 
L 400.658824 180480.478538 
L 399.494118 180480.478538 
L 398.329412 391.420769 
L 397.164706 391.420769 
L 396 391.420769 
L 394.835294 391.420769 
L 393.670588 180480.478538 
L 392.505882 180480.478538 
L 391.341176 180480.478538 
L 390.176471 180480.478538 
L 389.011765 180480.478538 
L 387.847059 180480.478538 
L 386.682353 180480.478538 
L 385.517647 180480.478538 
L 384.352941 180480.478538 
L 383.188235 180480.478538 
L 382.023529 180480.478538 
L 380.858824 180480.478538 
L 379.694118 180480.478538 
L 378.529412 180480.478538 
L 377.364706 180480.478538 
L 376.2 180480.478538 
L 375.035294 180480.478538 
L 373.870588 180480.478538 
L 372.705882 180480.478538 
L 371.541176 180480.478538 
L 370.376471 180480.478538 
L 369.211765 180480.478538 
L 368.047059 180480.478538 
L 366.882353 180480.478538 
L 365.717647 180480.478538 
L 364.552941 180480.478538 
L 363.388235 180480.478538 
L 362.223529 180480.478538 
L 361.058824 180480.478538 
L 359.894118 180480.478538 
L 358.729412 180480.478538 
L 357.564706 180480.478538 
L 356.4 180480.478538 
L 355.235294 180480.478538 
L 354.070588 180480.478538 
L 352.905882 180480.478538 
L 351.741176 180480.478538 
L 350.576471 180480.478538 
L 349.411765 180480.478538 
L 348.247059 180480.478538 
L 347.082353 180480.478538 
L 345.917647 180480.478538 
L 344.752941 180480.478538 
L 343.588235 180480.478538 
L 342.423529 180480.478538 
L 341.258824 180480.478538 
L 340.094118 180480.478538 
L 338.929412 180480.478538 
L 337.764706 180480.478538 
L 336.6 180480.478538 
L 335.435294 180480.478538 
L 334.270588 180480.478538 
L 333.105882 180480.478538 
L 331.941176 180480.478538 
L 330.776471 180480.478538 
L 329.611765 180480.478538 
L 328.447059 180480.478538 
L 327.282353 180480.478538 
L 326.117647 180480.478538 
L 324.952941 180480.478538 
L 323.788235 180480.478538 
L 322.623529 180480.478538 
L 321.458824 180480.478538 
L 320.294118 477.308037 
L 319.129412 477.308037 
L 317.964706 469.071167 
L 316.8 477.308037 
L 315.635294 477.308037 
L 314.470588 469.071167 
L 313.305882 469.071167 
L 312.141176 469.071167 
L 310.976471 366.788375 
L 309.811765 366.788375 
L 308.647059 366.788375 
L 307.482353 366.788375 
L 306.317647 469.071167 
L 305.152941 366.788375 
L 303.988235 366.788375 
L 302.823529 366.788375 
L 301.658824 477.308037 
L 300.494118 366.788375 
L 299.329412 366.788375 
L 298.164706 344.827999 
L 297 343.248593 
L 295.835294 267.949588 
L 294.670588 266.765051 
L 293.505882 325.18075 
L 292.341176 266.765051 
L 291.176471 266.765051 
L 290.011765 266.765051 
L 288.847059 266.765051 
L 287.682353 243.981302 
L 286.517647 243.981302 
L 285.352941 243.981302 
L 284.188235 318.068761 
L 283.023529 318.068761 
L 281.858824 318.068761 
L 280.694118 318.068761 
L 279.529412 318.068761 
L 278.364706 337.231935 
L 277.2 262.198617 
L 276.035294 262.198617 
L 274.870588 337.231935 
L 273.705882 292.25114 
L 272.541176 337.231935 
L 271.376471 337.231935 
L 270.211765 337.231935 
L 269.047059 337.231935 
L 267.882353 305.5335 
L 266.717647 337.231935 
L 265.552941 337.231935 
L 264.388235 180480.478538 
L 263.223529 180480.478538 
L 262.058824 180480.478538 
L 260.894118 180480.478538 
L 259.729412 180480.478538 
L 258.564706 337.231935 
L 257.4 337.231935 
L 256.235294 328.995065 
L 255.070588 328.995065 
L 253.905882 328.995065 
L 252.741176 292.25114 
L 251.576471 285.245444 
L 250.411765 283.043102 
L 249.247059 283.043102 
L 248.082353 283.043102 
L 246.917647 299.946984 
L 245.752941 299.946984 
L 244.588235 328.995065 
L 243.423529 328.995065 
L 242.258824 328.995065 
L 241.094118 331.645419 
L 239.929412 331.645419 
L 238.764706 362.672795 
L 237.6 385.834252 
L 236.435294 418.892339 
L 235.270588 477.308037 
L 234.105882 477.308037 
L 232.941176 477.308037 
L 231.776471 477.308037 
L 230.611765 180480.478538 
L 229.447059 180480.478538 
L 228.282353 180480.478538 
L 227.117647 180480.478538 
L 225.952941 180480.478538 
L 224.788235 180480.478538 
L 223.623529 180480.478538 
L 222.458824 180480.478538 
L 221.294118 180480.478538 
L 220.129412 180480.478538 
L 218.964706 180480.478538 
L 217.8 180480.478538 
L 216.635294 180480.478538 
L 215.470588 180480.478538 
L 214.305882 180480.478538 
L 213.141176 180480.478538 
L 211.976471 180480.478538 
L 210.811765 180480.478538 
L 209.647059 180480.478538 
L 208.482353 180480.478538 
L 207.317647 180480.478538 
L 206.152941 180480.478538 
L 204.988235 180480.478538 
L 203.823529 180480.478538 
L 202.658824 180480.478538 
L 201.494118 180480.478538 
L 200.329412 180480.478538 
L 199.164706 180480.478538 
L 198 180480.478538 
L 196.835294 180480.478538 
L 195.670588 180480.478538 
L 194.505882 180480.478538 
L 193.341176 180480.478538 
L 192.176471 180480.478538 
L 191.011765 180480.478538 
L 189.847059 180480.478538 
L 188.682353 180480.478538 
L 187.517647 180480.478538 
L 186.352941 180480.478538 
L 185.188235 180480.478538 
L 184.023529 180480.478538 
L 182.858824 180480.478538 
L 181.694118 180480.478538 
L 180.529412 180480.478538 
L 179.364706 180480.478538 
L 178.2 180480.478538 
L 177.035294 180480.478538 
L 175.870588 180480.478538 
L 174.705882 180480.478538 
L 173.541176 180480.478538 
L 172.376471 180480.478538 
L 171.211765 180480.478538 
L 170.047059 180480.478538 
L 168.882353 180480.478538 
L 167.717647 180480.478538 
L 166.552941 180480.478538 
L 165.388235 180480.478538 
L 164.223529 180480.478538 
L 163.058824 180480.478538 
L 161.894118 180480.478538 
L 160.729412 180480.478538 
L 159.564706 180480.478538 
L 158.4 180480.478538 
L 157.235294 180480.478538 
L 156.070588 180480.478538 
L 154.905882 180480.478538 
L 153.741176 180480.478538 
L 152.576471 180480.478538 
L 151.411765 180480.478538 
L 150.247059 180480.478538 
L 149.082353 180480.478538 
L 147.917647 180480.478538 
L 146.752941 180480.478538 
L 145.588235 180480.478538 
L 144.423529 180480.478538 
L 143.258824 180480.478538 
L 142.094118 180480.478538 
L 140.929412 180480.478538 
L 139.764706 180480.478538 
L 138.6 180480.478538 
L 137.435294 180480.478538 
L 136.270588 180480.478538 
L 135.105882 180480.478538 
L 133.941176 180480.478538 
L 132.776471 180480.478538 
L 131.611765 477.308037 
L 130.447059 477.308037 
L 129.282353 477.308037 
L 128.117647 180480.478538 
L 126.952941 180480.478538 
L 125.788235 180480.478538 
L 124.623529 180480.478538 
L 123.458824 180480.478538 
L 122.294118 180480.478538 
L 121.129412 180480.478538 
L 119.964706 180480.478538 
L 118.8 180480.478538 
L 117.635294 180480.478538 
L 116.470588 180480.478538 
L 115.305882 180480.478538 
L 114.141176 180480.478538 
L 112.976471 180480.478538 
L 111.811765 180480.478538 
L 110.647059 180480.478538 
L 109.482353 180480.478538 
L 108.317647 180480.478538 
L 107.152941 180480.478538 
L 105.988235 180480.478538 
L 104.823529 180480.478538 
L 103.658824 180480.478538 
L 102.494118 180480.478538 
L 101.329412 180480.478538 
L 100.164706 180480.478538 
L 99 180480.478538 
z
" style="fill:#8080ff;fill-opacity:0.5;stroke:#8080ff;stroke-opacity:0.5;"/>
   </g>
   <g id="PolyCollection_2">
    <path clip-path="url(#p68e2955192)" d="M 99 180480.478538 
L 99 180480.478538 
L 100.164706 180480.478538 
L 101.329412 180480.478538 
L 102.494118 180480.478538 
L 103.658824 180480.478538 
L 104.823529 180480.478538 
L 105.988235 180480.478538 
L 107.152941 180480.478538 
L 108.317647 180480.478538 
L 109.482353 180480.478538 
L 110.647059 180480.478538 
L 111.811765 180480.478538 
L 112.976471 180480.478538 
L 114.141176 180480.478538 
L 115.305882 180480.478538 
L 116.470588 180480.478538 
L 117.635294 180480.478538 
L 118.8 180480.478538 
L 119.964706 180480.478538 
L 121.129412 180480.478538 
L 122.294118 180480.478538 
L 123.458824 180480.478538 
L 124.623529 180480.478538 
L 125.788235 180480.478538 
L 126.952941 180480.478538 
L 128.117647 180480.478538 
L 129.282353 180480.478538 
L 130.447059 180480.478538 
L 131.611765 180480.478538 
L 132.776471 180480.478538 
L 133.941176 180480.478538 
L 135.105882 180480.478538 
L 136.270588 180480.478538 
L 137.435294 496.955287 
L 138.6 469.071167 
L 139.764706 469.071167 
L 140.929412 469.071167 
L 142.094118 496.955287 
L 143.258824 496.955287 
L 144.423529 496.955287 
L 145.588235 496.955287 
L 146.752941 496.955287 
L 147.917647 469.071167 
L 149.082353 469.071167 
L 150.247059 469.071167 
L 151.411765 469.071167 
L 152.576471 469.071167 
L 153.741176 496.955287 
L 154.905882 180480.478538 
L 156.070588 180480.478538 
L 157.235294 180480.478538 
L 158.4 180480.478538 
L 159.564706 180480.478538 
L 160.729412 180480.478538 
L 161.894118 180480.478538 
L 163.058824 180480.478538 
L 164.223529 180480.478538 
L 165.388235 180480.478538 
L 166.552941 496.955287 
L 167.717647 496.955287 
L 168.882353 496.955287 
L 170.047059 496.955287 
L 171.211765 496.955287 
L 172.376471 496.955287 
L 173.541176 496.955287 
L 174.705882 496.955287 
L 175.870588 496.955287 
L 177.035294 496.955287 
L 178.2 496.955287 
L 179.364706 496.955287 
L 180.529412 496.955287 
L 181.694118 180480.478538 
L 182.858824 180480.478538 
L 184.023529 180480.478538 
L 185.188235 180480.478538 
L 186.352941 180480.478538 
L 187.517647 180480.478538 
L 188.682353 180480.478538 
L 189.847059 180480.478538 
L 191.011765 180480.478538 
L 192.176471 180480.478538 
L 193.341176 180480.478538 
L 194.505882 180480.478538 
L 195.670588 180480.478538 
L 196.835294 180480.478538 
L 198 180480.478538 
L 199.164706 180480.478538 
L 200.329412 180480.478538 
L 201.494118 180480.478538 
L 202.658824 180480.478538 
L 203.823529 180480.478538 
L 204.988235 180480.478538 
L 206.152941 180480.478538 
L 207.317647 180480.478538 
L 208.482353 180480.478538 
L 209.647059 180480.478538 
L 210.811765 180480.478538 
L 211.976471 180480.478538 
L 213.141176 180480.478538 
L 214.305882 180480.478538 
L 215.470588 180480.478538 
L 216.635294 180480.478538 
L 217.8 180480.478538 
L 218.964706 180480.478538 
L 220.129412 180480.478538 
L 221.294118 180480.478538 
L 222.458824 180480.478538 
L 223.623529 180480.478538 
L 224.788235 180480.478538 
L 225.952941 180480.478538 
L 227.117647 180480.478538 
L 228.282353 180480.478538 
L 229.447059 180480.478538 
L 230.611765 180480.478538 
L 231.776471 180480.478538 
L 232.941176 180480.478538 
L 234.105882 180480.478538 
L 235.270588 180480.478538 
L 236.435294 180480.478538 
L 237.6 180480.478538 
L 238.764706 180480.478538 
L 239.929412 180480.478538 
L 241.094118 180480.478538 
L 242.258824 180480.478538 
L 243.423529 180480.478538 
L 244.588235 180480.478538 
L 245.752941 180480.478538 
L 246.917647 180480.478538 
L 248.082353 180480.478538 
L 249.247059 180480.478538 
L 250.411765 180480.478538 
L 251.576471 180480.478538 
L 252.741176 180480.478538 
L 253.905882 180480.478538 
L 255.070588 180480.478538 
L 256.235294 180480.478538 
L 257.4 180480.478538 
L 258.564706 496.955287 
L 259.729412 496.955287 
L 260.894118 496.955287 
L 262.058824 496.955287 
L 263.223529 496.955287 
L 264.388235 496.955287 
L 265.552941 496.955287 
L 266.717647 496.955287 
L 267.882353 496.955287 
L 269.047059 496.955287 
L 270.211765 496.955287 
L 271.376471 496.955287 
L 272.541176 496.955287 
L 273.705882 496.955287 
L 274.870588 180480.478538 
L 276.035294 180480.478538 
L 277.2 180480.478538 
L 278.364706 180480.478538 
L 279.529412 180480.478538 
L 280.694118 180480.478538 
L 281.858824 180480.478538 
L 283.023529 180480.478538 
L 284.188235 180480.478538 
L 285.352941 180480.478538 
L 286.517647 180480.478538 
L 287.682353 496.955287 
L 288.847059 469.071167 
L 290.011765 469.071167 
L 291.176471 469.071167 
L 292.341176 469.071167 
L 293.505882 469.071167 
L 294.670588 469.071167 
L 295.835294 469.071167 
L 297 469.071167 
L 298.164706 469.071167 
L 299.329412 469.071167 
L 300.494118 469.071167 
L 301.658824 469.071167 
L 302.823529 469.071167 
L 303.988235 469.071167 
L 305.152941 469.071167 
L 306.317647 469.071167 
L 307.482353 469.071167 
L 308.647059 469.071167 
L 309.811765 469.071167 
L 310.976471 469.071167 
L 312.141176 469.071167 
L 313.305882 469.071167 
L 314.470588 469.071167 
L 315.635294 469.071167 
L 316.8 469.071167 
L 317.964706 469.071167 
L 319.129412 469.071167 
L 320.294118 496.955287 
L 321.458824 496.955287 
L 322.623529 180480.478538 
L 323.788235 180480.478538 
L 324.952941 180480.478538 
L 326.117647 180480.478538 
L 327.282353 180480.478538 
L 328.447059 180480.478538 
L 329.611765 180480.478538 
L 330.776471 180480.478538 
L 331.941176 180480.478538 
L 333.105882 180480.478538 
L 334.270588 180480.478538 
L 335.435294 180480.478538 
L 336.6 180480.478538 
L 337.764706 180480.478538 
L 338.929412 180480.478538 
L 340.094118 180480.478538 
L 341.258824 180480.478538 
L 342.423529 180480.478538 
L 343.588235 180480.478538 
L 344.752941 180480.478538 
L 345.917647 180480.478538 
L 347.082353 180480.478538 
L 348.247059 180480.478538 
L 349.411765 180480.478538 
L 350.576471 180480.478538 
L 351.741176 180480.478538 
L 352.905882 180480.478538 
L 354.070588 180480.478538 
L 355.235294 180480.478538 
L 356.4 180480.478538 
L 357.564706 180480.478538 
L 358.729412 180480.478538 
L 359.894118 180480.478538 
L 361.058824 180480.478538 
L 362.223529 180480.478538 
L 363.388235 180480.478538 
L 364.552941 180480.478538 
L 365.717647 180480.478538 
L 366.882353 180480.478538 
L 368.047059 180480.478538 
L 369.211765 180480.478538 
L 370.376471 180480.478538 
L 371.541176 180480.478538 
L 372.705882 496.955287 
L 373.870588 496.955287 
L 375.035294 496.955287 
L 376.2 496.955287 
L 377.364706 496.955287 
L 378.529412 496.955287 
L 379.694118 496.955287 
L 380.858824 496.955287 
L 382.023529 496.955287 
L 383.188235 496.955287 
L 384.352941 496.955287 
L 385.517647 496.955287 
L 386.682353 496.955287 
L 387.847059 180480.478538 
L 389.011765 180480.478538 
L 390.176471 180480.478538 
L 391.341176 180480.478538 
L 392.505882 180480.478538 
L 393.670588 180480.478538 
L 394.835294 180480.478538 
L 396 180480.478538 
L 397.164706 180480.478538 
L 398.329412 180480.478538 
L 399.494118 180480.478538 
L 400.658824 180480.478538 
L 401.823529 180480.478538 
L 402.988235 180480.478538 
L 404.152941 180480.478538 
L 405.317647 180480.478538 
L 406.482353 180480.478538 
L 407.647059 180480.478538 
L 408.811765 180480.478538 
L 409.976471 180480.478538 
L 411.141176 180480.478538 
L 412.305882 180480.478538 
L 413.470588 180480.478538 
L 414.635294 180480.478538 
L 415.8 180480.478538 
L 416.964706 180480.478538 
L 418.129412 180480.478538 
L 419.294118 180480.478538 
L 420.458824 180480.478538 
L 421.623529 180480.478538 
L 422.788235 180480.478538 
L 423.952941 180480.478538 
L 425.117647 180480.478538 
L 426.282353 180480.478538 
L 427.447059 180480.478538 
L 428.611765 180480.478538 
L 429.776471 180480.478538 
L 430.941176 180480.478538 
L 432.105882 180480.478538 
L 433.270588 180480.478538 
L 434.435294 180480.478538 
L 435.6 180480.478538 
L 436.764706 180480.478538 
L 437.929412 180480.478538 
L 439.094118 180480.478538 
L 440.258824 180480.478538 
L 441.423529 180480.478538 
L 442.588235 180480.478538 
L 443.752941 180480.478538 
L 444.917647 180480.478538 
L 446.082353 180480.478538 
L 447.247059 180480.478538 
L 448.411765 180480.478538 
L 449.576471 180480.478538 
L 450.741176 180480.478538 
L 451.905882 180480.478538 
L 453.070588 180480.478538 
L 454.235294 180480.478538 
L 455.4 180480.478538 
L 456.564706 180480.478538 
L 457.729412 180480.478538 
L 458.894118 180480.478538 
L 460.058824 180480.478538 
L 461.223529 180480.478538 
L 462.388235 180480.478538 
L 463.552941 180480.478538 
L 464.717647 180480.478538 
L 465.882353 180480.478538 
L 467.047059 180480.478538 
L 468.211765 180480.478538 
L 469.376471 180480.478538 
L 470.541176 180480.478538 
L 471.705882 180480.478538 
L 472.870588 180480.478538 
L 474.035294 180480.478538 
L 475.2 180480.478538 
L 476.364706 180480.478538 
L 477.529412 180480.478538 
L 478.694118 180480.478538 
L 479.858824 180480.478538 
L 481.023529 180480.478538 
L 482.188235 180480.478538 
L 483.352941 180480.478538 
L 484.517647 180480.478538 
L 485.682353 180480.478538 
L 486.847059 180480.478538 
L 488.011765 180480.478538 
L 489.176471 180480.478538 
L 490.341176 180480.478538 
L 491.505882 180480.478538 
L 492.670588 180480.478538 
L 493.835294 180480.478538 
L 495 180480.478538 
L 496.164706 180480.478538 
L 497.329412 180480.478538 
L 498.494118 180480.478538 
L 499.658824 180480.478538 
L 500.823529 180480.478538 
L 501.988235 180480.478538 
L 503.152941 180480.478538 
L 504.317647 180480.478538 
L 505.482353 180480.478538 
L 506.647059 180480.478538 
L 507.811765 180480.478538 
L 508.976471 180480.478538 
L 510.141176 180480.478538 
L 511.305882 180480.478538 
L 512.470588 180480.478538 
L 513.635294 180480.478538 
L 514.8 180480.478538 
L 515.964706 180480.478538 
L 517.129412 180480.478538 
L 518.294118 180480.478538 
L 519.458824 180480.478538 
L 520.623529 180480.478538 
L 521.788235 180480.478538 
L 522.952941 180480.478538 
L 524.117647 180480.478538 
L 525.282353 180480.478538 
L 526.447059 180480.478538 
L 527.611765 180480.478538 
L 528.776471 180480.478538 
L 529.941176 180480.478538 
L 531.105882 180480.478538 
L 532.270588 180480.478538 
L 533.435294 180480.478538 
L 534.6 180480.478538 
L 535.764706 180480.478538 
L 536.929412 180480.478538 
L 538.094118 180480.478538 
L 539.258824 180480.478538 
L 540.423529 180480.478538 
L 541.588235 180480.478538 
L 542.752941 180480.478538 
L 543.917647 180480.478538 
L 545.082353 180480.478538 
L 546.247059 180480.478538 
L 547.411765 180480.478538 
L 548.576471 180480.478538 
L 549.741176 180480.478538 
L 550.905882 180480.478538 
L 552.070588 180480.478538 
L 553.235294 180480.478538 
L 554.4 180480.478538 
L 555.564706 180480.478538 
L 556.729412 180480.478538 
L 557.894118 180480.478538 
L 559.058824 180480.478538 
L 560.223529 180480.478538 
L 561.388235 180480.478538 
L 562.552941 180480.478538 
L 563.717647 180480.478538 
L 564.882353 180480.478538 
L 566.047059 180480.478538 
L 567.211765 180480.478538 
L 568.376471 180480.478538 
L 569.541176 180480.478538 
L 570.705882 180480.478538 
L 571.870588 180480.478538 
L 573.035294 180480.478538 
L 574.2 180480.478538 
L 575.364706 180480.478538 
L 576.529412 180480.478538 
L 577.694118 180480.478538 
L 578.858824 180480.478538 
L 580.023529 180480.478538 
L 581.188235 180480.478538 
L 582.352941 180480.478538 
L 583.517647 180480.478538 
L 584.682353 180480.478538 
L 585.847059 180480.478538 
L 587.011765 180480.478538 
L 588.176471 180480.478538 
L 589.341176 180480.478538 
L 590.505882 180480.478538 
L 591.670588 180480.478538 
L 592.835294 180480.478538 
L 594 180480.478538 
L 595.164706 180480.478538 
L 596.329412 180480.478538 
L 597.494118 180480.478538 
L 598.658824 180480.478538 
L 599.823529 180480.478538 
L 600.988235 180480.478538 
L 602.152941 180480.478538 
L 603.317647 180480.478538 
L 604.482353 180480.478538 
L 605.647059 180480.478538 
L 606.811765 180480.478538 
L 607.976471 180480.478538 
L 609.141176 180480.478538 
L 610.305882 180480.478538 
L 611.470588 180480.478538 
L 612.635294 180480.478538 
L 613.8 180480.478538 
L 614.964706 180480.478538 
L 616.129412 180480.478538 
L 617.294118 180480.478538 
L 618.458824 180480.478538 
L 619.623529 180480.478538 
L 620.788235 180480.478538 
L 621.952941 180480.478538 
L 623.117647 180480.478538 
L 624.282353 180480.478538 
L 625.447059 180480.478538 
L 626.611765 180480.478538 
L 627.776471 180480.478538 
L 628.941176 180480.478538 
L 630.105882 180480.478538 
L 631.270588 180480.478538 
L 632.435294 496.955287 
L 633.6 496.955287 
L 634.764706 496.955287 
L 635.929412 496.955287 
L 637.094118 496.955287 
L 638.258824 496.955287 
L 639.423529 496.955287 
L 640.588235 496.955287 
L 641.752941 496.955287 
L 642.917647 496.955287 
L 644.082353 496.955287 
L 645.247059 496.955287 
L 646.411765 496.955287 
L 647.576471 496.955287 
L 648.741176 180480.478538 
L 649.905882 180480.478538 
L 651.070588 180480.478538 
L 652.235294 180480.478538 
L 653.4 180480.478538 
L 654.564706 180480.478538 
L 655.729412 180480.478538 
L 656.894118 180480.478538 
L 658.058824 180480.478538 
L 659.223529 180480.478538 
L 660.388235 180480.478538 
L 661.552941 180480.478538 
L 662.717647 180480.478538 
L 663.882353 180480.478538 
L 665.047059 180480.478538 
L 666.211765 180480.478538 
L 667.376471 180480.478538 
L 668.541176 180480.478538 
L 669.705882 180480.478538 
L 670.870588 180480.478538 
L 672.035294 180480.478538 
L 673.2 180480.478538 
L 674.364706 180480.478538 
L 675.529412 180480.478538 
L 676.694118 180480.478538 
L 677.858824 180480.478538 
L 679.023529 180480.478538 
L 680.188235 180480.478538 
L 681.352941 180480.478538 
L 682.517647 180480.478538 
L 683.682353 496.955287 
L 684.847059 496.955287 
L 686.011765 496.955287 
L 687.176471 496.955287 
L 688.341176 469.071167 
L 689.505882 427.587732 
L 690.670588 427.587732 
L 691.835294 469.071167 
L 693 469.071167 
L 694.164706 469.071167 
L 695.329412 469.071167 
L 696.494118 469.071167 
L 697.658824 469.071167 
L 698.823529 469.071167 
L 699.988235 469.071167 
L 701.152941 469.071167 
L 702.317647 469.071167 
L 703.482353 469.071167 
L 704.647059 469.071167 
L 705.811765 496.955287 
L 706.976471 496.955287 
L 708.141176 496.955287 
L 709.305882 496.955287 
L 710.470588 496.955287 
L 711.635294 469.071167 
L 712.8 469.071167 
L 712.8 180480.478538 
L 712.8 180480.478538 
L 711.635294 180480.478538 
L 710.470588 180480.478538 
L 709.305882 180480.478538 
L 708.141176 180480.478538 
L 706.976471 180480.478538 
L 705.811765 180480.478538 
L 704.647059 180480.478538 
L 703.482353 180480.478538 
L 702.317647 180480.478538 
L 701.152941 180480.478538 
L 699.988235 180480.478538 
L 698.823529 180480.478538 
L 697.658824 180480.478538 
L 696.494118 180480.478538 
L 695.329412 180480.478538 
L 694.164706 180480.478538 
L 693 180480.478538 
L 691.835294 180480.478538 
L 690.670588 180480.478538 
L 689.505882 180480.478538 
L 688.341176 180480.478538 
L 687.176471 180480.478538 
L 686.011765 180480.478538 
L 684.847059 180480.478538 
L 683.682353 180480.478538 
L 682.517647 180480.478538 
L 681.352941 180480.478538 
L 680.188235 180480.478538 
L 679.023529 180480.478538 
L 677.858824 180480.478538 
L 676.694118 180480.478538 
L 675.529412 180480.478538 
L 674.364706 180480.478538 
L 673.2 180480.478538 
L 672.035294 180480.478538 
L 670.870588 180480.478538 
L 669.705882 180480.478538 
L 668.541176 180480.478538 
L 667.376471 180480.478538 
L 666.211765 180480.478538 
L 665.047059 180480.478538 
L 663.882353 180480.478538 
L 662.717647 180480.478538 
L 661.552941 180480.478538 
L 660.388235 180480.478538 
L 659.223529 180480.478538 
L 658.058824 180480.478538 
L 656.894118 180480.478538 
L 655.729412 180480.478538 
L 654.564706 180480.478538 
L 653.4 180480.478538 
L 652.235294 180480.478538 
L 651.070588 180480.478538 
L 649.905882 180480.478538 
L 648.741176 180480.478538 
L 647.576471 180480.478538 
L 646.411765 180480.478538 
L 645.247059 180480.478538 
L 644.082353 180480.478538 
L 642.917647 180480.478538 
L 641.752941 180480.478538 
L 640.588235 180480.478538 
L 639.423529 180480.478538 
L 638.258824 180480.478538 
L 637.094118 180480.478538 
L 635.929412 180480.478538 
L 634.764706 180480.478538 
L 633.6 180480.478538 
L 632.435294 180480.478538 
L 631.270588 180480.478538 
L 630.105882 180480.478538 
L 628.941176 180480.478538 
L 627.776471 180480.478538 
L 626.611765 180480.478538 
L 625.447059 180480.478538 
L 624.282353 180480.478538 
L 623.117647 180480.478538 
L 621.952941 180480.478538 
L 620.788235 180480.478538 
L 619.623529 180480.478538 
L 618.458824 180480.478538 
L 617.294118 180480.478538 
L 616.129412 180480.478538 
L 614.964706 180480.478538 
L 613.8 180480.478538 
L 612.635294 180480.478538 
L 611.470588 180480.478538 
L 610.305882 180480.478538 
L 609.141176 180480.478538 
L 607.976471 180480.478538 
L 606.811765 180480.478538 
L 605.647059 180480.478538 
L 604.482353 180480.478538 
L 603.317647 180480.478538 
L 602.152941 180480.478538 
L 600.988235 180480.478538 
L 599.823529 180480.478538 
L 598.658824 180480.478538 
L 597.494118 180480.478538 
L 596.329412 180480.478538 
L 595.164706 180480.478538 
L 594 180480.478538 
L 592.835294 180480.478538 
L 591.670588 180480.478538 
L 590.505882 180480.478538 
L 589.341176 180480.478538 
L 588.176471 180480.478538 
L 587.011765 180480.478538 
L 585.847059 180480.478538 
L 584.682353 180480.478538 
L 583.517647 180480.478538 
L 582.352941 180480.478538 
L 581.188235 180480.478538 
L 580.023529 180480.478538 
L 578.858824 180480.478538 
L 577.694118 180480.478538 
L 576.529412 180480.478538 
L 575.364706 180480.478538 
L 574.2 180480.478538 
L 573.035294 180480.478538 
L 571.870588 180480.478538 
L 570.705882 180480.478538 
L 569.541176 180480.478538 
L 568.376471 180480.478538 
L 567.211765 180480.478538 
L 566.047059 180480.478538 
L 564.882353 180480.478538 
L 563.717647 180480.478538 
L 562.552941 180480.478538 
L 561.388235 180480.478538 
L 560.223529 180480.478538 
L 559.058824 180480.478538 
L 557.894118 180480.478538 
L 556.729412 180480.478538 
L 555.564706 180480.478538 
L 554.4 180480.478538 
L 553.235294 180480.478538 
L 552.070588 180480.478538 
L 550.905882 180480.478538 
L 549.741176 180480.478538 
L 548.576471 180480.478538 
L 547.411765 180480.478538 
L 546.247059 180480.478538 
L 545.082353 180480.478538 
L 543.917647 180480.478538 
L 542.752941 180480.478538 
L 541.588235 180480.478538 
L 540.423529 180480.478538 
L 539.258824 180480.478538 
L 538.094118 180480.478538 
L 536.929412 180480.478538 
L 535.764706 180480.478538 
L 534.6 180480.478538 
L 533.435294 180480.478538 
L 532.270588 180480.478538 
L 531.105882 180480.478538 
L 529.941176 180480.478538 
L 528.776471 180480.478538 
L 527.611765 180480.478538 
L 526.447059 180480.478538 
L 525.282353 180480.478538 
L 524.117647 180480.478538 
L 522.952941 180480.478538 
L 521.788235 180480.478538 
L 520.623529 180480.478538 
L 519.458824 180480.478538 
L 518.294118 180480.478538 
L 517.129412 180480.478538 
L 515.964706 180480.478538 
L 514.8 180480.478538 
L 513.635294 180480.478538 
L 512.470588 180480.478538 
L 511.305882 180480.478538 
L 510.141176 180480.478538 
L 508.976471 180480.478538 
L 507.811765 180480.478538 
L 506.647059 180480.478538 
L 505.482353 180480.478538 
L 504.317647 180480.478538 
L 503.152941 180480.478538 
L 501.988235 180480.478538 
L 500.823529 180480.478538 
L 499.658824 180480.478538 
L 498.494118 180480.478538 
L 497.329412 180480.478538 
L 496.164706 180480.478538 
L 495 180480.478538 
L 493.835294 180480.478538 
L 492.670588 180480.478538 
L 491.505882 180480.478538 
L 490.341176 180480.478538 
L 489.176471 180480.478538 
L 488.011765 180480.478538 
L 486.847059 180480.478538 
L 485.682353 180480.478538 
L 484.517647 180480.478538 
L 483.352941 180480.478538 
L 482.188235 180480.478538 
L 481.023529 180480.478538 
L 479.858824 180480.478538 
L 478.694118 180480.478538 
L 477.529412 180480.478538 
L 476.364706 180480.478538 
L 475.2 180480.478538 
L 474.035294 180480.478538 
L 472.870588 180480.478538 
L 471.705882 180480.478538 
L 470.541176 180480.478538 
L 469.376471 180480.478538 
L 468.211765 180480.478538 
L 467.047059 180480.478538 
L 465.882353 180480.478538 
L 464.717647 180480.478538 
L 463.552941 180480.478538 
L 462.388235 180480.478538 
L 461.223529 180480.478538 
L 460.058824 180480.478538 
L 458.894118 180480.478538 
L 457.729412 180480.478538 
L 456.564706 180480.478538 
L 455.4 180480.478538 
L 454.235294 180480.478538 
L 453.070588 180480.478538 
L 451.905882 180480.478538 
L 450.741176 180480.478538 
L 449.576471 180480.478538 
L 448.411765 180480.478538 
L 447.247059 180480.478538 
L 446.082353 180480.478538 
L 444.917647 180480.478538 
L 443.752941 180480.478538 
L 442.588235 180480.478538 
L 441.423529 180480.478538 
L 440.258824 180480.478538 
L 439.094118 180480.478538 
L 437.929412 180480.478538 
L 436.764706 180480.478538 
L 435.6 180480.478538 
L 434.435294 180480.478538 
L 433.270588 180480.478538 
L 432.105882 180480.478538 
L 430.941176 180480.478538 
L 429.776471 180480.478538 
L 428.611765 180480.478538 
L 427.447059 180480.478538 
L 426.282353 180480.478538 
L 425.117647 180480.478538 
L 423.952941 180480.478538 
L 422.788235 180480.478538 
L 421.623529 180480.478538 
L 420.458824 180480.478538 
L 419.294118 180480.478538 
L 418.129412 180480.478538 
L 416.964706 180480.478538 
L 415.8 180480.478538 
L 414.635294 180480.478538 
L 413.470588 180480.478538 
L 412.305882 180480.478538 
L 411.141176 180480.478538 
L 409.976471 180480.478538 
L 408.811765 180480.478538 
L 407.647059 180480.478538 
L 406.482353 180480.478538 
L 405.317647 180480.478538 
L 404.152941 180480.478538 
L 402.988235 180480.478538 
L 401.823529 180480.478538 
L 400.658824 180480.478538 
L 399.494118 180480.478538 
L 398.329412 180480.478538 
L 397.164706 180480.478538 
L 396 180480.478538 
L 394.835294 180480.478538 
L 393.670588 180480.478538 
L 392.505882 180480.478538 
L 391.341176 180480.478538 
L 390.176471 180480.478538 
L 389.011765 180480.478538 
L 387.847059 180480.478538 
L 386.682353 180480.478538 
L 385.517647 180480.478538 
L 384.352941 180480.478538 
L 383.188235 180480.478538 
L 382.023529 180480.478538 
L 380.858824 180480.478538 
L 379.694118 180480.478538 
L 378.529412 180480.478538 
L 377.364706 180480.478538 
L 376.2 180480.478538 
L 375.035294 180480.478538 
L 373.870588 180480.478538 
L 372.705882 180480.478538 
L 371.541176 180480.478538 
L 370.376471 180480.478538 
L 369.211765 180480.478538 
L 368.047059 180480.478538 
L 366.882353 180480.478538 
L 365.717647 180480.478538 
L 364.552941 180480.478538 
L 363.388235 180480.478538 
L 362.223529 180480.478538 
L 361.058824 180480.478538 
L 359.894118 180480.478538 
L 358.729412 180480.478538 
L 357.564706 180480.478538 
L 356.4 180480.478538 
L 355.235294 180480.478538 
L 354.070588 180480.478538 
L 352.905882 180480.478538 
L 351.741176 180480.478538 
L 350.576471 180480.478538 
L 349.411765 180480.478538 
L 348.247059 180480.478538 
L 347.082353 180480.478538 
L 345.917647 180480.478538 
L 344.752941 180480.478538 
L 343.588235 180480.478538 
L 342.423529 180480.478538 
L 341.258824 180480.478538 
L 340.094118 180480.478538 
L 338.929412 180480.478538 
L 337.764706 180480.478538 
L 336.6 180480.478538 
L 335.435294 180480.478538 
L 334.270588 180480.478538 
L 333.105882 180480.478538 
L 331.941176 180480.478538 
L 330.776471 180480.478538 
L 329.611765 180480.478538 
L 328.447059 180480.478538 
L 327.282353 180480.478538 
L 326.117647 180480.478538 
L 324.952941 180480.478538 
L 323.788235 180480.478538 
L 322.623529 180480.478538 
L 321.458824 180480.478538 
L 320.294118 180480.478538 
L 319.129412 180480.478538 
L 317.964706 180480.478538 
L 316.8 180480.478538 
L 315.635294 180480.478538 
L 314.470588 180480.478538 
L 313.305882 180480.478538 
L 312.141176 180480.478538 
L 310.976471 180480.478538 
L 309.811765 180480.478538 
L 308.647059 180480.478538 
L 307.482353 180480.478538 
L 306.317647 180480.478538 
L 305.152941 180480.478538 
L 303.988235 180480.478538 
L 302.823529 180480.478538 
L 301.658824 180480.478538 
L 300.494118 180480.478538 
L 299.329412 180480.478538 
L 298.164706 180480.478538 
L 297 180480.478538 
L 295.835294 180480.478538 
L 294.670588 180480.478538 
L 293.505882 180480.478538 
L 292.341176 180480.478538 
L 291.176471 180480.478538 
L 290.011765 180480.478538 
L 288.847059 180480.478538 
L 287.682353 180480.478538 
L 286.517647 180480.478538 
L 285.352941 180480.478538 
L 284.188235 180480.478538 
L 283.023529 180480.478538 
L 281.858824 180480.478538 
L 280.694118 180480.478538 
L 279.529412 180480.478538 
L 278.364706 180480.478538 
L 277.2 180480.478538 
L 276.035294 180480.478538 
L 274.870588 180480.478538 
L 273.705882 180480.478538 
L 272.541176 180480.478538 
L 271.376471 180480.478538 
L 270.211765 180480.478538 
L 269.047059 180480.478538 
L 267.882353 180480.478538 
L 266.717647 180480.478538 
L 265.552941 180480.478538 
L 264.388235 180480.478538 
L 263.223529 180480.478538 
L 262.058824 180480.478538 
L 260.894118 180480.478538 
L 259.729412 180480.478538 
L 258.564706 180480.478538 
L 257.4 180480.478538 
L 256.235294 180480.478538 
L 255.070588 180480.478538 
L 253.905882 180480.478538 
L 252.741176 180480.478538 
L 251.576471 180480.478538 
L 250.411765 180480.478538 
L 249.247059 180480.478538 
L 248.082353 180480.478538 
L 246.917647 180480.478538 
L 245.752941 180480.478538 
L 244.588235 180480.478538 
L 243.423529 180480.478538 
L 242.258824 180480.478538 
L 241.094118 180480.478538 
L 239.929412 180480.478538 
L 238.764706 180480.478538 
L 237.6 180480.478538 
L 236.435294 180480.478538 
L 235.270588 180480.478538 
L 234.105882 180480.478538 
L 232.941176 180480.478538 
L 231.776471 180480.478538 
L 230.611765 180480.478538 
L 229.447059 180480.478538 
L 228.282353 180480.478538 
L 227.117647 180480.478538 
L 225.952941 180480.478538 
L 224.788235 180480.478538 
L 223.623529 180480.478538 
L 222.458824 180480.478538 
L 221.294118 180480.478538 
L 220.129412 180480.478538 
L 218.964706 180480.478538 
L 217.8 180480.478538 
L 216.635294 180480.478538 
L 215.470588 180480.478538 
L 214.305882 180480.478538 
L 213.141176 180480.478538 
L 211.976471 180480.478538 
L 210.811765 180480.478538 
L 209.647059 180480.478538 
L 208.482353 180480.478538 
L 207.317647 180480.478538 
L 206.152941 180480.478538 
L 204.988235 180480.478538 
L 203.823529 180480.478538 
L 202.658824 180480.478538 
L 201.494118 180480.478538 
L 200.329412 180480.478538 
L 199.164706 180480.478538 
L 198 180480.478538 
L 196.835294 180480.478538 
L 195.670588 180480.478538 
L 194.505882 180480.478538 
L 193.341176 180480.478538 
L 192.176471 180480.478538 
L 191.011765 180480.478538 
L 189.847059 180480.478538 
L 188.682353 180480.478538 
L 187.517647 180480.478538 
L 186.352941 180480.478538 
L 185.188235 180480.478538 
L 184.023529 180480.478538 
L 182.858824 180480.478538 
L 181.694118 180480.478538 
L 180.529412 180480.478538 
L 179.364706 180480.478538 
L 178.2 180480.478538 
L 177.035294 180480.478538 
L 175.870588 180480.478538 
L 174.705882 180480.478538 
L 173.541176 180480.478538 
L 172.376471 180480.478538 
L 171.211765 180480.478538 
L 170.047059 180480.478538 
L 168.882353 180480.478538 
L 167.717647 180480.478538 
L 166.552941 180480.478538 
L 165.388235 180480.478538 
L 164.223529 180480.478538 
L 163.058824 180480.478538 
L 161.894118 180480.478538 
L 160.729412 180480.478538 
L 159.564706 180480.478538 
L 158.4 180480.478538 
L 157.235294 180480.478538 
L 156.070588 180480.478538 
L 154.905882 180480.478538 
L 153.741176 180480.478538 
L 152.576471 180480.478538 
L 151.411765 180480.478538 
L 150.247059 180480.478538 
L 149.082353 180480.478538 
L 147.917647 180480.478538 
L 146.752941 180480.478538 
L 145.588235 180480.478538 
L 144.423529 180480.478538 
L 143.258824 180480.478538 
L 142.094118 180480.478538 
L 140.929412 180480.478538 
L 139.764706 180480.478538 
L 138.6 180480.478538 
L 137.435294 180480.478538 
L 136.270588 180480.478538 
L 135.105882 180480.478538 
L 133.941176 180480.478538 
L 132.776471 180480.478538 
L 131.611765 180480.478538 
L 130.447059 180480.478538 
L 129.282353 180480.478538 
L 128.117647 180480.478538 
L 126.952941 180480.478538 
L 125.788235 180480.478538 
L 124.623529 180480.478538 
L 123.458824 180480.478538 
L 122.294118 180480.478538 
L 121.129412 180480.478538 
L 119.964706 180480.478538 
L 118.8 180480.478538 
L 117.635294 180480.478538 
L 116.470588 180480.478538 
L 115.305882 180480.478538 
L 114.141176 180480.478538 
L 112.976471 180480.478538 
L 111.811765 180480.478538 
L 110.647059 180480.478538 
L 109.482353 180480.478538 
L 108.317647 180480.478538 
L 107.152941 180480.478538 
L 105.988235 180480.478538 
L 104.823529 180480.478538 
L 103.658824 180480.478538 
L 102.494118 180480.478538 
L 101.329412 180480.478538 
L 100.164706 180480.478538 
L 99 180480.478538 
z
" style="fill:#ff8080;fill-opacity:0.5;stroke:#ff8080;stroke-opacity:0.5;"/>
   </g>
   <g id="matplotlib.axis_1">
    <g id="xtick_1">
     <g id="line2d_1">
      <path clip-path="url(#p68e2955192)" d="M 99 544.68 
L 99 73.44 
" style="fill:none;stroke:#b0b0b0;stroke-linecap:square;stroke-width:0.8;"/>
     </g>
     <g id="line2d_2">
      <defs>
       <path d="M 0 0 
L 0 3.5 
" id="m4abed1d830" style="stroke:#000000;stroke-width:0.8;"/>
      </defs>
      <g>
       <use style="stroke:#000000;stroke-width:0.8;" x="99" xlink:href="#m4abed1d830" y="544.68"/>
      </g>
     </g>
    </g>
    <g id="xtick_2">
     <g id="line2d_3">
      <path clip-path="url(#p68e2955192)" d="M 119.964706 544.68 
L 119.964706 73.44 
" style="fill:none;stroke:#b0b0b0;stroke-linecap:square;stroke-width:0.8;"/>
     </g>
     <g id="line2d_4">
      <g>
       <use style="stroke:#000000;stroke-width:0.8;" x="119.964706" xlink:href="#m4abed1d830" y="544.68"/>
      </g>
     </g>
     <g id="text_1">
      <!-- Apr -->
      <g transform="translate(111.314706 559.278437)scale(0.1 -0.1)">
       <defs>
        <path d="M 2188 4044 
L 1331 1722 
L 3047 1722 
L 2188 4044 
z
M 1831 4666 
L 2547 4666 
L 4325 0 
L 3669 0 
L 3244 1197 
L 1141 1197 
L 716 0 
L 50 0 
L 1831 4666 
z
" id="DejaVuSans-41" transform="scale(0.015625)"/>
        <path d="M 1159 525 
L 1159 -1331 
L 581 -1331 
L 581 3500 
L 1159 3500 
L 1159 2969 
Q 1341 3281 1617 3432 
Q 1894 3584 2278 3584 
Q 2916 3584 3314 3078 
Q 3713 2572 3713 1747 
Q 3713 922 3314 415 
Q 2916 -91 2278 -91 
Q 1894 -91 1617 61 
Q 1341 213 1159 525 
z
M 3116 1747 
Q 3116 2381 2855 2742 
Q 2594 3103 2138 3103 
Q 1681 3103 1420 2742 
Q 1159 2381 1159 1747 
Q 1159 1113 1420 752 
Q 1681 391 2138 391 
Q 2594 391 2855 752 
Q 3116 1113 3116 1747 
z
" id="DejaVuSans-70" transform="scale(0.015625)"/>
        <path d="M 2631 2963 
Q 2534 3019 2420 3045 
Q 2306 3072 2169 3072 
Q 1681 3072 1420 2755 
Q 1159 2438 1159 1844 
L 1159 0 
L 581 0 
L 581 3500 
L 1159 3500 
L 1159 2956 
Q 1341 3275 1631 3429 
Q 1922 3584 2338 3584 
Q 2397 3584 2469 3576 
Q 2541 3569 2628 3553 
L 2631 2963 
z
" id="DejaVuSans-72" transform="scale(0.015625)"/>
       </defs>
       <use xlink:href="#DejaVuSans-41"/>
       <use x="68.408203" xlink:href="#DejaVuSans-70"/>
       <use x="131.884766" xlink:href="#DejaVuSans-72"/>
      </g>
     </g>
    </g>
    <g id="xtick_3">
     <g id="line2d_5">
      <path clip-path="url(#p68e2955192)" d="M 225.952941 544.68 
L 225.952941 73.44 
" style="fill:none;stroke:#b0b0b0;stroke-linecap:square;stroke-width:0.8;"/>
     </g>
     <g id="line2d_6">
      <g>
       <use style="stroke:#000000;stroke-width:0.8;" x="225.952941" xlink:href="#m4abed1d830" y="544.68"/>
      </g>
     </g>
     <g id="text_2">
      <!-- Jul -->
      <g transform="translate(219.920129 559.278437)scale(0.1 -0.1)">
       <defs>
        <path d="M 628 4666 
L 1259 4666 
L 1259 325 
Q 1259 -519 939 -900 
Q 619 -1281 -91 -1281 
L -331 -1281 
L -331 -750 
L -134 -750 
Q 284 -750 456 -515 
Q 628 -281 628 325 
L 628 4666 
z
" id="DejaVuSans-4a" transform="scale(0.015625)"/>
        <path d="M 544 1381 
L 544 3500 
L 1119 3500 
L 1119 1403 
Q 1119 906 1312 657 
Q 1506 409 1894 409 
Q 2359 409 2629 706 
Q 2900 1003 2900 1516 
L 2900 3500 
L 3475 3500 
L 3475 0 
L 2900 0 
L 2900 538 
Q 2691 219 2414 64 
Q 2138 -91 1772 -91 
Q 1169 -91 856 284 
Q 544 659 544 1381 
z
M 1991 3584 
L 1991 3584 
z
" id="DejaVuSans-75" transform="scale(0.015625)"/>
        <path d="M 603 4863 
L 1178 4863 
L 1178 0 
L 603 0 
L 603 4863 
z
" id="DejaVuSans-6c" transform="scale(0.015625)"/>
       </defs>
       <use xlink:href="#DejaVuSans-4a"/>
       <use x="29.492188" xlink:href="#DejaVuSans-75"/>
       <use x="92.871094" xlink:href="#DejaVuSans-6c"/>
      </g>
     </g>
    </g>
    <g id="xtick_4">
     <g id="line2d_7">
      <path clip-path="url(#p68e2955192)" d="M 333.105882 544.68 
L 333.105882 73.44 
" style="fill:none;stroke:#b0b0b0;stroke-linecap:square;stroke-width:0.8;"/>
     </g>
     <g id="line2d_8">
      <g>
       <use style="stroke:#000000;stroke-width:0.8;" x="333.105882" xlink:href="#m4abed1d830" y="544.68"/>
      </g>
     </g>
     <g id="text_3">
      <!-- Oct -->
      <g transform="translate(324.46057 559.278437)scale(0.1 -0.1)">
       <defs>
        <path d="M 2522 4238 
Q 1834 4238 1429 3725 
Q 1025 3213 1025 2328 
Q 1025 1447 1429 934 
Q 1834 422 2522 422 
Q 3209 422 3611 934 
Q 4013 1447 4013 2328 
Q 4013 3213 3611 3725 
Q 3209 4238 2522 4238 
z
M 2522 4750 
Q 3503 4750 4090 4092 
Q 4678 3434 4678 2328 
Q 4678 1225 4090 567 
Q 3503 -91 2522 -91 
Q 1538 -91 948 565 
Q 359 1222 359 2328 
Q 359 3434 948 4092 
Q 1538 4750 2522 4750 
z
" id="DejaVuSans-4f" transform="scale(0.015625)"/>
        <path d="M 3122 3366 
L 3122 2828 
Q 2878 2963 2633 3030 
Q 2388 3097 2138 3097 
Q 1578 3097 1268 2742 
Q 959 2388 959 1747 
Q 959 1106 1268 751 
Q 1578 397 2138 397 
Q 2388 397 2633 464 
Q 2878 531 3122 666 
L 3122 134 
Q 2881 22 2623 -34 
Q 2366 -91 2075 -91 
Q 1284 -91 818 406 
Q 353 903 353 1747 
Q 353 2603 823 3093 
Q 1294 3584 2113 3584 
Q 2378 3584 2631 3529 
Q 2884 3475 3122 3366 
z
" id="DejaVuSans-63" transform="scale(0.015625)"/>
        <path d="M 1172 4494 
L 1172 3500 
L 2356 3500 
L 2356 3053 
L 1172 3053 
L 1172 1153 
Q 1172 725 1289 603 
Q 1406 481 1766 481 
L 2356 481 
L 2356 0 
L 1766 0 
Q 1100 0 847 248 
Q 594 497 594 1153 
L 594 3053 
L 172 3053 
L 172 3500 
L 594 3500 
L 594 4494 
L 1172 4494 
z
" id="DejaVuSans-74" transform="scale(0.015625)"/>
       </defs>
       <use xlink:href="#DejaVuSans-4f"/>
       <use x="78.710938" xlink:href="#DejaVuSans-63"/>
       <use x="133.691406" xlink:href="#DejaVuSans-74"/>
      </g>
     </g>
    </g>
    <g id="xtick_5">
     <g id="line2d_9">
      <path clip-path="url(#p68e2955192)" d="M 440.258824 544.68 
L 440.258824 73.44 
" style="fill:none;stroke:#b0b0b0;stroke-linecap:square;stroke-width:0.8;"/>
     </g>
     <g id="line2d_10">
      <g>
       <use style="stroke:#000000;stroke-width:0.8;" x="440.258824" xlink:href="#m4abed1d830" y="544.68"/>
      </g>
     </g>
     <g id="text_4">
      <!-- Jan -->
      <g transform="translate(432.551011 559.278437)scale(0.1 -0.1)">
       <defs>
        <path d="M 2194 1759 
Q 1497 1759 1228 1600 
Q 959 1441 959 1056 
Q 959 750 1161 570 
Q 1363 391 1709 391 
Q 2188 391 2477 730 
Q 2766 1069 2766 1631 
L 2766 1759 
L 2194 1759 
z
M 3341 1997 
L 3341 0 
L 2766 0 
L 2766 531 
Q 2569 213 2275 61 
Q 1981 -91 1556 -91 
Q 1019 -91 701 211 
Q 384 513 384 1019 
Q 384 1609 779 1909 
Q 1175 2209 1959 2209 
L 2766 2209 
L 2766 2266 
Q 2766 2663 2505 2880 
Q 2244 3097 1772 3097 
Q 1472 3097 1187 3025 
Q 903 2953 641 2809 
L 641 3341 
Q 956 3463 1253 3523 
Q 1550 3584 1831 3584 
Q 2591 3584 2966 3190 
Q 3341 2797 3341 1997 
z
" id="DejaVuSans-61" transform="scale(0.015625)"/>
        <path d="M 3513 2113 
L 3513 0 
L 2938 0 
L 2938 2094 
Q 2938 2591 2744 2837 
Q 2550 3084 2163 3084 
Q 1697 3084 1428 2787 
Q 1159 2491 1159 1978 
L 1159 0 
L 581 0 
L 581 3500 
L 1159 3500 
L 1159 2956 
Q 1366 3272 1645 3428 
Q 1925 3584 2291 3584 
Q 2894 3584 3203 3211 
Q 3513 2838 3513 2113 
z
" id="DejaVuSans-6e" transform="scale(0.015625)"/>
       </defs>
       <use xlink:href="#DejaVuSans-4a"/>
       <use x="29.492188" xlink:href="#DejaVuSans-61"/>
       <use x="90.771484" xlink:href="#DejaVuSans-6e"/>
      </g>
      <!-- 2021 -->
      <g transform="translate(427.533824 570.47625)scale(0.1 -0.1)">
       <defs>
        <path d="M 1228 531 
L 3431 531 
L 3431 0 
L 469 0 
L 469 531 
Q 828 903 1448 1529 
Q 2069 2156 2228 2338 
Q 2531 2678 2651 2914 
Q 2772 3150 2772 3378 
Q 2772 3750 2511 3984 
Q 2250 4219 1831 4219 
Q 1534 4219 1204 4116 
Q 875 4013 500 3803 
L 500 4441 
Q 881 4594 1212 4672 
Q 1544 4750 1819 4750 
Q 2544 4750 2975 4387 
Q 3406 4025 3406 3419 
Q 3406 3131 3298 2873 
Q 3191 2616 2906 2266 
Q 2828 2175 2409 1742 
Q 1991 1309 1228 531 
z
" id="DejaVuSans-32" transform="scale(0.015625)"/>
        <path d="M 2034 4250 
Q 1547 4250 1301 3770 
Q 1056 3291 1056 2328 
Q 1056 1369 1301 889 
Q 1547 409 2034 409 
Q 2525 409 2770 889 
Q 3016 1369 3016 2328 
Q 3016 3291 2770 3770 
Q 2525 4250 2034 4250 
z
M 2034 4750 
Q 2819 4750 3233 4129 
Q 3647 3509 3647 2328 
Q 3647 1150 3233 529 
Q 2819 -91 2034 -91 
Q 1250 -91 836 529 
Q 422 1150 422 2328 
Q 422 3509 836 4129 
Q 1250 4750 2034 4750 
z
" id="DejaVuSans-30" transform="scale(0.015625)"/>
        <path d="M 794 531 
L 1825 531 
L 1825 4091 
L 703 3866 
L 703 4441 
L 1819 4666 
L 2450 4666 
L 2450 531 
L 3481 531 
L 3481 0 
L 794 0 
L 794 531 
z
" id="DejaVuSans-31" transform="scale(0.015625)"/>
       </defs>
       <use xlink:href="#DejaVuSans-32"/>
       <use x="63.623047" xlink:href="#DejaVuSans-30"/>
       <use x="127.246094" xlink:href="#DejaVuSans-32"/>
       <use x="190.869141" xlink:href="#DejaVuSans-31"/>
      </g>
     </g>
    </g>
    <g id="xtick_6">
     <g id="line2d_11">
      <path clip-path="url(#p68e2955192)" d="M 545.082353 544.68 
L 545.082353 73.44 
" style="fill:none;stroke:#b0b0b0;stroke-linecap:square;stroke-width:0.8;"/>
     </g>
     <g id="line2d_12">
      <g>
       <use style="stroke:#000000;stroke-width:0.8;" x="545.082353" xlink:href="#m4abed1d830" y="544.68"/>
      </g>
     </g>
     <g id="text_5">
      <!-- Apr -->
      <g transform="translate(536.432353 559.278437)scale(0.1 -0.1)">
       <use xlink:href="#DejaVuSans-41"/>
       <use x="68.408203" xlink:href="#DejaVuSans-70"/>
       <use x="131.884766" xlink:href="#DejaVuSans-72"/>
      </g>
     </g>
    </g>
    <g id="xtick_7">
     <g id="line2d_13">
      <path clip-path="url(#p68e2955192)" d="M 651.070588 544.68 
L 651.070588 73.44 
" style="fill:none;stroke:#b0b0b0;stroke-linecap:square;stroke-width:0.8;"/>
     </g>
     <g id="line2d_14">
      <g>
       <use style="stroke:#000000;stroke-width:0.8;" x="651.070588" xlink:href="#m4abed1d830" y="544.68"/>
      </g>
     </g>
     <g id="text_6">
      <!-- Jul -->
      <g transform="translate(645.037776 559.278437)scale(0.1 -0.1)">
       <use xlink:href="#DejaVuSans-4a"/>
       <use x="29.492188" xlink:href="#DejaVuSans-75"/>
       <use x="92.871094" xlink:href="#DejaVuSans-6c"/>
      </g>
     </g>
    </g>
    <g id="xtick_8">
     <g id="line2d_15">
      <path clip-path="url(#p68e2955192)" d="M 712.8 544.68 
L 712.8 73.44 
" style="fill:none;stroke:#b0b0b0;stroke-linecap:square;stroke-width:0.8;"/>
     </g>
     <g id="line2d_16">
      <g>
       <use style="stroke:#000000;stroke-width:0.8;" x="712.8" xlink:href="#m4abed1d830" y="544.68"/>
      </g>
     </g>
    </g>
    <g id="xtick_9">
     <g id="line2d_17">
      <defs>
       <path d="M 0 0 
L 0 2 
" id="mbe9820739d" style="stroke:#000000;stroke-width:0.6;"/>
      </defs>
      <g>
       <use style="stroke:#000000;stroke-width:0.6;" x="154.905882" xlink:href="#mbe9820739d" y="544.68"/>
      </g>
     </g>
    </g>
    <g id="xtick_10">
     <g id="line2d_18">
      <g>
       <use style="stroke:#000000;stroke-width:0.6;" x="191.011765" xlink:href="#mbe9820739d" y="544.68"/>
      </g>
     </g>
    </g>
    <g id="xtick_11">
     <g id="line2d_19">
      <g>
       <use style="stroke:#000000;stroke-width:0.6;" x="262.058824" xlink:href="#mbe9820739d" y="544.68"/>
      </g>
     </g>
    </g>
    <g id="xtick_12">
     <g id="line2d_20">
      <g>
       <use style="stroke:#000000;stroke-width:0.6;" x="298.164706" xlink:href="#mbe9820739d" y="544.68"/>
      </g>
     </g>
    </g>
    <g id="xtick_13">
     <g id="line2d_21">
      <g>
       <use style="stroke:#000000;stroke-width:0.6;" x="369.211765" xlink:href="#mbe9820739d" y="544.68"/>
      </g>
     </g>
    </g>
    <g id="xtick_14">
     <g id="line2d_22">
      <g>
       <use style="stroke:#000000;stroke-width:0.6;" x="404.152941" xlink:href="#mbe9820739d" y="544.68"/>
      </g>
     </g>
    </g>
    <g id="xtick_15">
     <g id="line2d_23">
      <g>
       <use style="stroke:#000000;stroke-width:0.6;" x="476.364706" xlink:href="#mbe9820739d" y="544.68"/>
      </g>
     </g>
    </g>
    <g id="xtick_16">
     <g id="line2d_24">
      <g>
       <use style="stroke:#000000;stroke-width:0.6;" x="508.976471" xlink:href="#mbe9820739d" y="544.68"/>
      </g>
     </g>
    </g>
    <g id="xtick_17">
     <g id="line2d_25">
      <g>
       <use style="stroke:#000000;stroke-width:0.6;" x="580.023529" xlink:href="#mbe9820739d" y="544.68"/>
      </g>
     </g>
    </g>
    <g id="xtick_18">
     <g id="line2d_26">
      <g>
       <use style="stroke:#000000;stroke-width:0.6;" x="616.129412" xlink:href="#mbe9820739d" y="544.68"/>
      </g>
     </g>
    </g>
    <g id="xtick_19">
     <g id="line2d_27">
      <g>
       <use style="stroke:#000000;stroke-width:0.6;" x="687.176471" xlink:href="#mbe9820739d" y="544.68"/>
      </g>
     </g>
    </g>
    <g id="text_7">
     <!-- Date -->
     <g transform="translate(393.949219 584.154375)scale(0.1 -0.1)">
      <defs>
       <path d="M 1259 4147 
L 1259 519 
L 2022 519 
Q 2988 519 3436 956 
Q 3884 1394 3884 2338 
Q 3884 3275 3436 3711 
Q 2988 4147 2022 4147 
L 1259 4147 
z
M 628 4666 
L 1925 4666 
Q 3281 4666 3915 4102 
Q 4550 3538 4550 2338 
Q 4550 1131 3912 565 
Q 3275 0 1925 0 
L 628 0 
L 628 4666 
z
" id="DejaVuSans-44" transform="scale(0.015625)"/>
       <path d="M 3597 1894 
L 3597 1613 
L 953 1613 
Q 991 1019 1311 708 
Q 1631 397 2203 397 
Q 2534 397 2845 478 
Q 3156 559 3463 722 
L 3463 178 
Q 3153 47 2828 -22 
Q 2503 -91 2169 -91 
Q 1331 -91 842 396 
Q 353 884 353 1716 
Q 353 2575 817 3079 
Q 1281 3584 2069 3584 
Q 2775 3584 3186 3129 
Q 3597 2675 3597 1894 
z
M 3022 2063 
Q 3016 2534 2758 2815 
Q 2500 3097 2075 3097 
Q 1594 3097 1305 2825 
Q 1016 2553 972 2059 
L 3022 2063 
z
" id="DejaVuSans-65" transform="scale(0.015625)"/>
      </defs>
      <use xlink:href="#DejaVuSans-44"/>
      <use x="77.001953" xlink:href="#DejaVuSans-61"/>
      <use x="138.28125" xlink:href="#DejaVuSans-74"/>
      <use x="177.490234" xlink:href="#DejaVuSans-65"/>
     </g>
    </g>
   </g>
   <g id="matplotlib.axis_2">
    <g id="ytick_1">
     <g id="line2d_28">
      <path clip-path="url(#p68e2955192)" d="M 99 469.071167 
L 712.8 469.071167 
" style="fill:none;stroke:#b0b0b0;stroke-linecap:square;stroke-width:0.8;"/>
     </g>
     <g id="line2d_29">
      <defs>
       <path d="M 0 0 
L -3.5 0 
" id="me91a084207" style="stroke:#000000;stroke-width:0.8;"/>
      </defs>
      <g>
       <use style="stroke:#000000;stroke-width:0.8;" x="99" xlink:href="#me91a084207" y="469.071167"/>
      </g>
     </g>
     <g id="text_8">
      <!-- $\mathdefault{10^{0}}$ -->
      <g transform="translate(74.4 472.870386)scale(0.1 -0.1)">
       <use transform="translate(0 0.765625)" xlink:href="#DejaVuSans-31"/>
       <use transform="translate(63.623047 0.765625)" xlink:href="#DejaVuSans-30"/>
       <use transform="translate(128.203125 39.046875)scale(0.7)" xlink:href="#DejaVuSans-30"/>
      </g>
     </g>
    </g>
    <g id="ytick_2">
     <g id="line2d_30">
      <path clip-path="url(#p68e2955192)" d="M 99 289.059759 
L 712.8 289.059759 
" style="fill:none;stroke:#b0b0b0;stroke-linecap:square;stroke-width:0.8;"/>
     </g>
     <g id="line2d_31">
      <g>
       <use style="stroke:#000000;stroke-width:0.8;" x="99" xlink:href="#me91a084207" y="289.059759"/>
      </g>
     </g>
     <g id="text_9">
      <!-- $\mathdefault{10^{1}}$ -->
      <g transform="translate(74.4 292.858978)scale(0.1 -0.1)">
       <use transform="translate(0 0.684375)" xlink:href="#DejaVuSans-31"/>
       <use transform="translate(63.623047 0.684375)" xlink:href="#DejaVuSans-30"/>
       <use transform="translate(128.203125 38.965625)scale(0.7)" xlink:href="#DejaVuSans-31"/>
      </g>
     </g>
    </g>
    <g id="ytick_3">
     <g id="line2d_32">
      <path clip-path="url(#p68e2955192)" d="M 99 109.048352 
L 712.8 109.048352 
" style="fill:none;stroke:#b0b0b0;stroke-linecap:square;stroke-width:0.8;"/>
     </g>
     <g id="line2d_33">
      <g>
       <use style="stroke:#000000;stroke-width:0.8;" x="99" xlink:href="#me91a084207" y="109.048352"/>
      </g>
     </g>
     <g id="text_10">
      <!-- $\mathdefault{10^{2}}$ -->
      <g transform="translate(74.4 112.847571)scale(0.1 -0.1)">
       <use transform="translate(0 0.765625)" xlink:href="#DejaVuSans-31"/>
       <use transform="translate(63.623047 0.765625)" xlink:href="#DejaVuSans-30"/>
       <use transform="translate(128.203125 39.046875)scale(0.7)" xlink:href="#DejaVuSans-32"/>
      </g>
     </g>
    </g>
    <g id="ytick_4">
     <g id="line2d_34">
      <path clip-path="url(#p68e2955192)" d="M 99 540.704908 
L 712.8 540.704908 
" style="fill:none;stroke:#b0b0b0;stroke-linecap:square;stroke-width:0.8;"/>
     </g>
     <g id="line2d_35">
      <defs>
       <path d="M 0 0 
L -2 0 
" id="m0cb60b688e" style="stroke:#000000;stroke-width:0.6;"/>
      </defs>
      <g>
       <use style="stroke:#000000;stroke-width:0.6;" x="99" xlink:href="#m0cb60b688e" y="540.704908"/>
      </g>
     </g>
    </g>
    <g id="ytick_5">
     <g id="line2d_36">
      <path clip-path="url(#p68e2955192)" d="M 99 523.26 
L 712.8 523.26 
" style="fill:none;stroke:#b0b0b0;stroke-linecap:square;stroke-width:0.8;"/>
     </g>
     <g id="line2d_37">
      <g>
       <use style="stroke:#000000;stroke-width:0.6;" x="99" xlink:href="#m0cb60b688e" y="523.26"/>
      </g>
     </g>
    </g>
    <g id="ytick_6">
     <g id="line2d_38">
      <path clip-path="url(#p68e2955192)" d="M 99 509.006472 
L 712.8 509.006472 
" style="fill:none;stroke:#b0b0b0;stroke-linecap:square;stroke-width:0.8;"/>
     </g>
     <g id="line2d_39">
      <g>
       <use style="stroke:#000000;stroke-width:0.6;" x="99" xlink:href="#m0cb60b688e" y="509.006472"/>
      </g>
     </g>
    </g>
    <g id="ytick_7">
     <g id="line2d_40">
      <path clip-path="url(#p68e2955192)" d="M 99 496.955287 
L 712.8 496.955287 
" style="fill:none;stroke:#b0b0b0;stroke-linecap:square;stroke-width:0.8;"/>
     </g>
     <g id="line2d_41">
      <g>
       <use style="stroke:#000000;stroke-width:0.6;" x="99" xlink:href="#m0cb60b688e" y="496.955287"/>
      </g>
     </g>
    </g>
    <g id="ytick_8">
     <g id="line2d_42">
      <path clip-path="url(#p68e2955192)" d="M 99 486.516075 
L 712.8 486.516075 
" style="fill:none;stroke:#b0b0b0;stroke-linecap:square;stroke-width:0.8;"/>
     </g>
     <g id="line2d_43">
      <g>
       <use style="stroke:#000000;stroke-width:0.6;" x="99" xlink:href="#m0cb60b688e" y="486.516075"/>
      </g>
     </g>
    </g>
    <g id="ytick_9">
     <g id="line2d_44">
      <path clip-path="url(#p68e2955192)" d="M 99 477.308037 
L 712.8 477.308037 
" style="fill:none;stroke:#b0b0b0;stroke-linecap:square;stroke-width:0.8;"/>
     </g>
     <g id="line2d_45">
      <g>
       <use style="stroke:#000000;stroke-width:0.6;" x="99" xlink:href="#m0cb60b688e" y="477.308037"/>
      </g>
     </g>
    </g>
    <g id="ytick_10">
     <g id="line2d_46">
      <path clip-path="url(#p68e2955192)" d="M 99 414.882334 
L 712.8 414.882334 
" style="fill:none;stroke:#b0b0b0;stroke-linecap:square;stroke-width:0.8;"/>
     </g>
     <g id="line2d_47">
      <g>
       <use style="stroke:#000000;stroke-width:0.6;" x="99" xlink:href="#m0cb60b688e" y="414.882334"/>
      </g>
     </g>
    </g>
    <g id="ytick_11">
     <g id="line2d_48">
      <path clip-path="url(#p68e2955192)" d="M 99 383.183898 
L 712.8 383.183898 
" style="fill:none;stroke:#b0b0b0;stroke-linecap:square;stroke-width:0.8;"/>
     </g>
     <g id="line2d_49">
      <g>
       <use style="stroke:#000000;stroke-width:0.6;" x="99" xlink:href="#m0cb60b688e" y="383.183898"/>
      </g>
     </g>
    </g>
    <g id="ytick_12">
     <g id="line2d_50">
      <path clip-path="url(#p68e2955192)" d="M 99 360.6935 
L 712.8 360.6935 
" style="fill:none;stroke:#b0b0b0;stroke-linecap:square;stroke-width:0.8;"/>
     </g>
     <g id="line2d_51">
      <g>
       <use style="stroke:#000000;stroke-width:0.6;" x="99" xlink:href="#m0cb60b688e" y="360.6935"/>
      </g>
     </g>
    </g>
    <g id="ytick_13">
     <g id="line2d_52">
      <path clip-path="url(#p68e2955192)" d="M 99 343.248593 
L 712.8 343.248593 
" style="fill:none;stroke:#b0b0b0;stroke-linecap:square;stroke-width:0.8;"/>
     </g>
     <g id="line2d_53">
      <g>
       <use style="stroke:#000000;stroke-width:0.6;" x="99" xlink:href="#m0cb60b688e" y="343.248593"/>
      </g>
     </g>
    </g>
    <g id="ytick_14">
     <g id="line2d_54">
      <path clip-path="url(#p68e2955192)" d="M 99 328.995065 
L 712.8 328.995065 
" style="fill:none;stroke:#b0b0b0;stroke-linecap:square;stroke-width:0.8;"/>
     </g>
     <g id="line2d_55">
      <g>
       <use style="stroke:#000000;stroke-width:0.6;" x="99" xlink:href="#m0cb60b688e" y="328.995065"/>
      </g>
     </g>
    </g>
    <g id="ytick_15">
     <g id="line2d_56">
      <path clip-path="url(#p68e2955192)" d="M 99 316.943879 
L 712.8 316.943879 
" style="fill:none;stroke:#b0b0b0;stroke-linecap:square;stroke-width:0.8;"/>
     </g>
     <g id="line2d_57">
      <g>
       <use style="stroke:#000000;stroke-width:0.6;" x="99" xlink:href="#m0cb60b688e" y="316.943879"/>
      </g>
     </g>
    </g>
    <g id="ytick_16">
     <g id="line2d_58">
      <path clip-path="url(#p68e2955192)" d="M 99 306.504667 
L 712.8 306.504667 
" style="fill:none;stroke:#b0b0b0;stroke-linecap:square;stroke-width:0.8;"/>
     </g>
     <g id="line2d_59">
      <g>
       <use style="stroke:#000000;stroke-width:0.6;" x="99" xlink:href="#m0cb60b688e" y="306.504667"/>
      </g>
     </g>
    </g>
    <g id="ytick_17">
     <g id="line2d_60">
      <path clip-path="url(#p68e2955192)" d="M 99 297.29663 
L 712.8 297.29663 
" style="fill:none;stroke:#b0b0b0;stroke-linecap:square;stroke-width:0.8;"/>
     </g>
     <g id="line2d_61">
      <g>
       <use style="stroke:#000000;stroke-width:0.6;" x="99" xlink:href="#m0cb60b688e" y="297.29663"/>
      </g>
     </g>
    </g>
    <g id="ytick_18">
     <g id="line2d_62">
      <path clip-path="url(#p68e2955192)" d="M 99 234.870926 
L 712.8 234.870926 
" style="fill:none;stroke:#b0b0b0;stroke-linecap:square;stroke-width:0.8;"/>
     </g>
     <g id="line2d_63">
      <g>
       <use style="stroke:#000000;stroke-width:0.6;" x="99" xlink:href="#m0cb60b688e" y="234.870926"/>
      </g>
     </g>
    </g>
    <g id="ytick_19">
     <g id="line2d_64">
      <path clip-path="url(#p68e2955192)" d="M 99 203.172491 
L 712.8 203.172491 
" style="fill:none;stroke:#b0b0b0;stroke-linecap:square;stroke-width:0.8;"/>
     </g>
     <g id="line2d_65">
      <g>
       <use style="stroke:#000000;stroke-width:0.6;" x="99" xlink:href="#m0cb60b688e" y="203.172491"/>
      </g>
     </g>
    </g>
    <g id="ytick_20">
     <g id="line2d_66">
      <path clip-path="url(#p68e2955192)" d="M 99 180.682093 
L 712.8 180.682093 
" style="fill:none;stroke:#b0b0b0;stroke-linecap:square;stroke-width:0.8;"/>
     </g>
     <g id="line2d_67">
      <g>
       <use style="stroke:#000000;stroke-width:0.6;" x="99" xlink:href="#m0cb60b688e" y="180.682093"/>
      </g>
     </g>
    </g>
    <g id="ytick_21">
     <g id="line2d_68">
      <path clip-path="url(#p68e2955192)" d="M 99 163.237185 
L 712.8 163.237185 
" style="fill:none;stroke:#b0b0b0;stroke-linecap:square;stroke-width:0.8;"/>
     </g>
     <g id="line2d_69">
      <g>
       <use style="stroke:#000000;stroke-width:0.6;" x="99" xlink:href="#m0cb60b688e" y="163.237185"/>
      </g>
     </g>
    </g>
    <g id="ytick_22">
     <g id="line2d_70">
      <path clip-path="url(#p68e2955192)" d="M 99 148.983658 
L 712.8 148.983658 
" style="fill:none;stroke:#b0b0b0;stroke-linecap:square;stroke-width:0.8;"/>
     </g>
     <g id="line2d_71">
      <g>
       <use style="stroke:#000000;stroke-width:0.6;" x="99" xlink:href="#m0cb60b688e" y="148.983658"/>
      </g>
     </g>
    </g>
    <g id="ytick_23">
     <g id="line2d_72">
      <path clip-path="url(#p68e2955192)" d="M 99 136.932472 
L 712.8 136.932472 
" style="fill:none;stroke:#b0b0b0;stroke-linecap:square;stroke-width:0.8;"/>
     </g>
     <g id="line2d_73">
      <g>
       <use style="stroke:#000000;stroke-width:0.6;" x="99" xlink:href="#m0cb60b688e" y="136.932472"/>
      </g>
     </g>
    </g>
    <g id="ytick_24">
     <g id="line2d_74">
      <path clip-path="url(#p68e2955192)" d="M 99 126.49326 
L 712.8 126.49326 
" style="fill:none;stroke:#b0b0b0;stroke-linecap:square;stroke-width:0.8;"/>
     </g>
     <g id="line2d_75">
      <g>
       <use style="stroke:#000000;stroke-width:0.6;" x="99" xlink:href="#m0cb60b688e" y="126.49326"/>
      </g>
     </g>
    </g>
    <g id="ytick_25">
     <g id="line2d_76">
      <path clip-path="url(#p68e2955192)" d="M 99 117.285222 
L 712.8 117.285222 
" style="fill:none;stroke:#b0b0b0;stroke-linecap:square;stroke-width:0.8;"/>
     </g>
     <g id="line2d_77">
      <g>
       <use style="stroke:#000000;stroke-width:0.6;" x="99" xlink:href="#m0cb60b688e" y="117.285222"/>
      </g>
     </g>
    </g>
   </g>
   <g id="line2d_78">
    <path clip-path="url(#p68e2955192)" d="M 123.458243 613 
L 123.458824 523.26 
L 123.459404 613 
M 125.787654 613 
L 125.788235 523.26 
L 126.952941 469.071167 
L 128.117647 469.071167 
L 129.282353 437.372731 
L 130.447059 469.071167 
L 136.270588 469.071167 
L 137.435294 523.26 
L 138.6 523.26 
L 138.600581 613 
M 152.57589 613 
L 152.576471 523.26 
L 153.741176 523.26 
L 153.741757 613 
M 224.787654 613 
L 224.788235 523.26 
L 225.952941 469.071167 
L 227.117647 437.372731 
L 228.282353 414.882334 
L 229.447059 437.372731 
L 230.611765 437.372731 
L 231.776471 414.882334 
L 232.941176 414.882334 
L 234.105882 397.437426 
L 236.435294 343.248593 
L 237.6 328.995065 
L 238.764706 328.995065 
L 239.929412 311.550157 
L 241.094118 289.059759 
L 242.258824 289.059759 
L 243.423529 274.806232 
L 244.588235 271.614852 
L 245.752941 262.755046 
L 251.576471 262.755046 
L 252.741176 271.614852 
L 253.905882 281.608604 
L 255.070588 285.245444 
L 256.235294 285.245444 
L 257.4 293.069765 
L 258.564706 289.059759 
L 259.729412 293.069765 
L 264.388235 293.069765 
L 265.552941 289.059759 
L 266.717647 289.059759 
L 267.882353 274.806232 
L 270.211765 274.806232 
L 271.376471 260.011678 
L 272.541176 249.910169 
L 273.705882 240.965801 
L 274.870588 240.965801 
L 276.035294 234.870926 
L 283.023529 234.870926 
L 284.188235 220.617399 
L 285.352941 204.486437 
L 287.682353 204.486437 
L 288.847059 211.409361 
L 292.341176 211.409361 
L 293.505882 229.217044 
L 294.670588 208.566213 
L 297 208.566213 
L 298.164706 238.880931 
L 299.329412 293.069765 
L 300.494118 335.797437 
L 301.658824 343.248593 
L 302.823529 335.797437 
L 305.152941 335.797437 
L 306.317647 343.248593 
L 307.482353 335.797437 
L 308.647059 343.248593 
L 310.976471 343.248593 
L 312.141176 351.485463 
L 313.305882 360.6935 
L 314.470588 343.248593 
L 316.8 343.248593 
L 317.964706 328.995065 
L 319.129412 343.248593 
L 320.294118 343.248593 
L 321.458824 397.437426 
L 322.623529 343.248593 
L 323.788235 343.248593 
L 324.952941 371.132712 
L 326.117647 328.995065 
L 329.611765 328.995065 
L 330.776471 371.132712 
L 333.105882 371.132712 
L 334.270588 523.26 
L 335.435294 469.071167 
L 336.6 523.26 
L 337.764706 523.26 
L 337.765287 613 
M 341.258243 613 
L 341.258824 523.26 
L 341.259404 613 
M 355.234713 613 
L 355.235294 523.26 
L 355.235875 613 
M 358.728831 613 
L 358.729412 523.26 
L 358.729993 613 
M 362.222949 613 
L 362.223529 523.26 
L 363.388235 523.26 
L 364.552941 437.372731 
L 365.717647 469.071167 
L 366.882353 414.882334 
L 371.541176 414.882334 
L 372.705882 397.437426 
L 373.870588 414.882334 
L 379.694118 414.882334 
L 380.858824 469.071167 
L 389.011765 469.071167 
L 390.176471 360.6935 
L 391.341176 316.943879 
L 392.505882 316.943879 
L 393.670588 306.504667 
L 394.835294 306.504667 
L 396 301.765158 
L 398.329412 301.765158 
L 399.494118 316.943879 
L 400.658824 311.550157 
L 402.988235 311.550157 
L 404.152941 328.995065 
L 405.317647 328.995065 
L 406.482353 343.248593 
L 407.647059 343.248593 
L 408.811765 371.132712 
L 409.976471 437.372731 
L 411.141176 414.882334 
L 412.305882 414.882334 
L 414.635294 274.806232 
L 415.8 240.965801 
L 416.964706 274.806232 
L 418.129412 274.806232 
L 419.294118 247.576325 
L 420.458824 236.850221 
L 421.623529 247.576325 
L 422.788235 236.850221 
L 426.282353 236.850221 
L 427.447059 247.576325 
L 428.611765 260.011678 
L 430.941176 260.011678 
L 432.105882 271.614852 
L 434.435294 271.614852 
L 436.764706 285.245444 
L 437.929412 278.133456 
L 439.094118 278.133456 
L 440.258824 285.245444 
L 441.423529 301.765158 
L 442.588235 335.797437 
L 443.752941 335.797437 
L 444.917647 397.437426 
L 444.919041 613 
M 468.210074 613 
L 468.211765 351.485463 
L 470.541176 351.485463 
L 471.705882 289.059759 
L 472.870588 271.614852 
L 474.035294 271.614852 
L 475.2 289.059759 
L 476.364706 271.614852 
L 477.529412 289.059759 
L 478.694118 316.943879 
L 479.858824 293.069765 
L 481.023529 297.29663 
L 482.188235 316.943879 
L 483.352941 297.29663 
L 484.517647 316.943879 
L 492.670588 316.943879 
L 495 328.995065 
L 496.164706 328.995065 
L 497.329412 306.504667 
L 498.494118 306.504667 
L 499.658824 437.372731 
L 500.823529 371.132712 
L 501.988235 371.132712 
L 503.152941 316.943879 
L 504.317647 316.943879 
L 505.482353 371.132712 
L 506.647059 316.943879 
L 507.811765 316.943879 
L 508.976471 371.132712 
L 510.141176 371.132712 
L 511.305882 316.943879 
L 512.470588 322.737489 
L 515.964706 322.737489 
L 517.129412 293.069765 
L 518.294118 351.485463 
L 519.458824 351.485463 
L 520.623529 383.183898 
L 521.788235 328.995065 
L 522.952941 383.183898 
L 526.447059 383.183898 
L 526.448545 613 
M 593.998606 613 
L 594 397.437426 
L 596.329412 397.437426 
L 596.330806 613 
M 602.151547 613 
L 602.152941 397.437426 
L 603.317647 397.437426 
L 603.319041 613 
M 631.268752 613 
L 631.270588 328.995065 
L 633.6 328.995065 
L 634.764706 274.806232 
L 639.423529 274.806232 
L 640.588235 297.29663 
L 641.752941 335.797437 
L 646.411765 335.797437 
L 647.576471 351.485463 
L 648.741176 351.485463 
L 649.905882 414.882334 
L 651.070588 414.882334 
L 651.07187 613 
M 666.210021 613 
L 666.211765 343.248593 
L 670.870588 343.248593 
L 672.035294 271.614852 
L 673.2 271.614852 
L 674.364706 343.248593 
L 675.529412 271.614852 
L 676.694118 343.248593 
L 680.188235 343.248593 
L 680.189979 613 
M 690.668576 613 
L 690.670588 301.765158 
L 691.835294 301.765158 
L 693 225.662889 
L 696.494118 225.662889 
L 697.658824 200.609049 
L 699.988235 200.609049 
L 701.152941 174.12441 
L 704.647059 174.12441 
L 705.811765 179.710926 
L 706.976471 158.681841 
L 708.141176 188.918963 
L 709.305882 293.069765 
L 710.470588 293.069765 
L 711.635294 188.918963 
L 712.8 293.069765 
L 712.8 293.069765 
" style="fill:none;stroke:#1f77b4;stroke-linecap:square;stroke-width:1.5;"/>
   </g>
   <g id="line2d_79">
    <path clip-path="url(#p68e2955192)" d="M 0 0 
" style="fill:none;stroke:#ff7f0e;stroke-linecap:square;stroke-width:1.5;"/>
   </g>
   <g id="patch_3">
    <path d="M 99 544.68 
L 99 73.44 
" style="fill:none;stroke:#000000;stroke-linecap:square;stroke-linejoin:miter;stroke-width:0.8;"/>
   </g>
   <g id="patch_4">
    <path d="M 712.8 544.68 
L 712.8 73.44 
" style="fill:none;stroke:#000000;stroke-linecap:square;stroke-linejoin:miter;stroke-width:0.8;"/>
   </g>
   <g id="patch_5">
    <path d="M 99 544.68 
L 712.8 544.68 
" style="fill:none;stroke:#000000;stroke-linecap:square;stroke-linejoin:miter;stroke-width:0.8;"/>
   </g>
   <g id="patch_6">
    <path d="M 99 73.44 
L 712.8 73.44 
" style="fill:none;stroke:#000000;stroke-linecap:square;stroke-linejoin:miter;stroke-width:0.8;"/>
   </g>
   <g id="legend_1">
    <g id="patch_7">
     <path d="M 616.653125 110.79625 
L 705.8 110.79625 
Q 707.8 110.79625 707.8 108.79625 
L 707.8 80.44 
Q 707.8 78.44 705.8 78.44 
L 616.653125 78.44 
Q 614.653125 78.44 614.653125 80.44 
L 614.653125 108.79625 
Q 614.653125 110.79625 616.653125 110.79625 
z
" style="fill:#ffffff;opacity:0.8;stroke:#cccccc;stroke-linejoin:miter;"/>
    </g>
    <g id="line2d_80">
     <path d="M 618.653125 86.538437 
L 638.653125 86.538437 
" style="fill:none;stroke:#1f77b4;stroke-linecap:square;stroke-width:1.5;"/>
    </g>
    <g id="line2d_81"/>
    <g id="text_11">
     <!-- Avg Cases -->
     <g transform="translate(646.653125 90.038437)scale(0.1 -0.1)">
      <defs>
       <path d="M 191 3500 
L 800 3500 
L 1894 563 
L 2988 3500 
L 3597 3500 
L 2284 0 
L 1503 0 
L 191 3500 
z
" id="DejaVuSans-76" transform="scale(0.015625)"/>
       <path d="M 2906 1791 
Q 2906 2416 2648 2759 
Q 2391 3103 1925 3103 
Q 1463 3103 1205 2759 
Q 947 2416 947 1791 
Q 947 1169 1205 825 
Q 1463 481 1925 481 
Q 2391 481 2648 825 
Q 2906 1169 2906 1791 
z
M 3481 434 
Q 3481 -459 3084 -895 
Q 2688 -1331 1869 -1331 
Q 1566 -1331 1297 -1286 
Q 1028 -1241 775 -1147 
L 775 -588 
Q 1028 -725 1275 -790 
Q 1522 -856 1778 -856 
Q 2344 -856 2625 -561 
Q 2906 -266 2906 331 
L 2906 616 
Q 2728 306 2450 153 
Q 2172 0 1784 0 
Q 1141 0 747 490 
Q 353 981 353 1791 
Q 353 2603 747 3093 
Q 1141 3584 1784 3584 
Q 2172 3584 2450 3431 
Q 2728 3278 2906 2969 
L 2906 3500 
L 3481 3500 
L 3481 434 
z
" id="DejaVuSans-67" transform="scale(0.015625)"/>
       <path id="DejaVuSans-20" transform="scale(0.015625)"/>
       <path d="M 4122 4306 
L 4122 3641 
Q 3803 3938 3442 4084 
Q 3081 4231 2675 4231 
Q 1875 4231 1450 3742 
Q 1025 3253 1025 2328 
Q 1025 1406 1450 917 
Q 1875 428 2675 428 
Q 3081 428 3442 575 
Q 3803 722 4122 1019 
L 4122 359 
Q 3791 134 3420 21 
Q 3050 -91 2638 -91 
Q 1578 -91 968 557 
Q 359 1206 359 2328 
Q 359 3453 968 4101 
Q 1578 4750 2638 4750 
Q 3056 4750 3426 4639 
Q 3797 4528 4122 4306 
z
" id="DejaVuSans-43" transform="scale(0.015625)"/>
       <path d="M 2834 3397 
L 2834 2853 
Q 2591 2978 2328 3040 
Q 2066 3103 1784 3103 
Q 1356 3103 1142 2972 
Q 928 2841 928 2578 
Q 928 2378 1081 2264 
Q 1234 2150 1697 2047 
L 1894 2003 
Q 2506 1872 2764 1633 
Q 3022 1394 3022 966 
Q 3022 478 2636 193 
Q 2250 -91 1575 -91 
Q 1294 -91 989 -36 
Q 684 19 347 128 
L 347 722 
Q 666 556 975 473 
Q 1284 391 1588 391 
Q 1994 391 2212 530 
Q 2431 669 2431 922 
Q 2431 1156 2273 1281 
Q 2116 1406 1581 1522 
L 1381 1569 
Q 847 1681 609 1914 
Q 372 2147 372 2553 
Q 372 3047 722 3315 
Q 1072 3584 1716 3584 
Q 2034 3584 2315 3537 
Q 2597 3491 2834 3397 
z
" id="DejaVuSans-73" transform="scale(0.015625)"/>
      </defs>
      <use xlink:href="#DejaVuSans-41"/>
      <use x="62.533203" xlink:href="#DejaVuSans-76"/>
      <use x="121.712891" xlink:href="#DejaVuSans-67"/>
      <use x="185.189453" xlink:href="#DejaVuSans-20"/>
      <use x="216.976562" xlink:href="#DejaVuSans-43"/>
      <use x="286.800781" xlink:href="#DejaVuSans-61"/>
      <use x="348.080078" xlink:href="#DejaVuSans-73"/>
      <use x="400.179688" xlink:href="#DejaVuSans-65"/>
      <use x="461.703125" xlink:href="#DejaVuSans-73"/>
     </g>
    </g>
    <g id="line2d_82">
     <path d="M 618.653125 101.216562 
L 638.653125 101.216562 
" style="fill:none;stroke:#ff7f0e;stroke-linecap:square;stroke-width:1.5;"/>
    </g>
    <g id="line2d_83"/>
    <g id="text_12">
     <!-- Avg Deaths -->
     <g transform="translate(646.653125 104.716562)scale(0.1 -0.1)">
      <defs>
       <path d="M 3513 2113 
L 3513 0 
L 2938 0 
L 2938 2094 
Q 2938 2591 2744 2837 
Q 2550 3084 2163 3084 
Q 1697 3084 1428 2787 
Q 1159 2491 1159 1978 
L 1159 0 
L 581 0 
L 581 4863 
L 1159 4863 
L 1159 2956 
Q 1366 3272 1645 3428 
Q 1925 3584 2291 3584 
Q 2894 3584 3203 3211 
Q 3513 2838 3513 2113 
z
" id="DejaVuSans-68" transform="scale(0.015625)"/>
      </defs>
      <use xlink:href="#DejaVuSans-41"/>
      <use x="62.533203" xlink:href="#DejaVuSans-76"/>
      <use x="121.712891" xlink:href="#DejaVuSans-67"/>
      <use x="185.189453" xlink:href="#DejaVuSans-20"/>
      <use x="216.976562" xlink:href="#DejaVuSans-44"/>
      <use x="293.978516" xlink:href="#DejaVuSans-65"/>
      <use x="355.501953" xlink:href="#DejaVuSans-61"/>
      <use x="416.78125" xlink:href="#DejaVuSans-74"/>
      <use x="455.990234" xlink:href="#DejaVuSans-68"/>
      <use x="519.369141" xlink:href="#DejaVuSans-73"/>
     </g>
    </g>
   </g>
  </g>
 </g>
 <defs>
  <clipPath id="p68e2955192">
   <rect height="471.24" width="613.8" x="99" y="73.44"/>
  </clipPath>
 </defs>
</svg>
