<?xml version="1.0" encoding="utf-8" standalone="no"?>
<!DOCTYPE svg PUBLIC "-//W3C//DTD SVG 1.1//EN"
  "http://www.w3.org/Graphics/SVG/1.1/DTD/svg11.dtd">
<svg height="612pt" version="1.1" viewBox="0 0 792 612" width="792pt" xmlns="http://www.w3.org/2000/svg" xmlns:xlink="http://www.w3.org/1999/xlink">
 <metadata>
  <rdf:RDF xmlns:cc="http://creativecommons.org/ns#" xmlns:dc="http://purl.org/dc/elements/1.1/" xmlns:rdf="http://www.w3.org/1999/02/22-rdf-syntax-ns#">
   <cc:Work>
    <dc:type rdf:resource="http://purl.org/dc/dcmitype/StillImage"/>
    <dc:format>image/svg+xml</dc:format>
    <dc:creator>
     <cc:Agent>
      <dc:title>Matplotlib v3.4.2, https://matplotlib.org/</dc:title>
     </cc:Agent>
    </dc:creator>
   </cc:Work>
  </rdf:RDF>
 </metadata>
 <defs>
  <style type="text/css">*{stroke-linecap:butt;stroke-linejoin:round;}</style>
 </defs>
 <g id="figure_1">
  <g id="patch_1">
   <path d="M 0 612 
L 792 612 
L 792 0 
L 0 0 
z
" style="fill:#ffffff;"/>
  </g>
  <g id="axes_1">
   <g id="patch_2">
    <path d="M 99 544.68 
L 712.8 544.68 
L 712.8 73.44 
L 99 73.44 
z
" style="fill:#ffffff;"/>
   </g>
   <g id="PolyCollection_1">
    <path clip-path="url(#p68e2955192)" d="M 99 180480.478538 
L 99 180480.478538 
L 100.173614 180480.478538 
L 101.347228 180480.478538 
L 102.520841 180480.478538 
L 103.694455 180480.478538 
L 104.868069 180480.478538 
L 106.041683 180480.478538 
L 107.215296 180480.478538 
L 108.38891 180480.478538 
L 109.562524 180480.478538 
L 110.736138 180480.478538 
L 111.909751 180480.478538 
L 113.083365 180480.478538 
L 114.256979 391.420769 
L 115.430593 391.420769 
L 116.604207 366.788375 
L 117.77782 327.702838 
L 118.951434 327.702838 
L 120.125048 327.702838 
L 121.298662 316.943879 
L 122.472275 316.943879 
L 123.645889 316.943879 
L 124.819503 327.702838 
L 125.993117 327.702838 
L 127.16673 327.702838 
L 128.340344 327.702838 
L 129.513958 327.702838 
L 130.687572 327.702838 
L 131.861185 327.702838 
L 133.034799 327.702838 
L 134.208413 360.6935 
L 135.382027 360.6935 
L 136.555641 360.6935 
L 137.729254 373.398899 
L 138.902868 373.398899 
L 140.076482 414.882334 
L 141.250096 414.882334 
L 142.423709 427.587732 
L 143.597323 427.587732 
L 144.770937 427.587732 
L 145.944551 469.071167 
L 147.118164 469.071167 
L 148.291778 427.587732 
L 149.465392 414.882334 
L 150.639006 414.882334 
L 151.81262 414.882334 
L 152.986233 391.420769 
L 154.159847 391.420769 
L 155.333461 391.420769 
L 156.507075 391.420769 
L 157.680688 391.420769 
L 158.854302 391.420769 
L 160.027916 391.420769 
L 161.20153 391.420769 
L 162.375143 391.420769 
L 163.548757 391.420769 
L 164.722371 391.420769 
L 165.895985 391.420769 
L 167.069598 391.420769 
L 168.243212 427.587732 
L 169.416826 496.955287 
L 170.59044 496.955287 
L 171.764054 496.955287 
L 172.937667 496.955287 
L 174.111281 496.955287 
L 175.284895 496.955287 
L 176.458509 496.955287 
L 177.632122 496.955287 
L 178.805736 180480.478538 
L 179.97935 180480.478538 
L 181.152964 180480.478538 
L 182.326577 180480.478538 
L 183.500191 180480.478538 
L 184.673805 180480.478538 
L 185.847419 180480.478538 
L 187.021033 180480.478538 
L 188.194646 180480.478538 
L 189.36826 180480.478538 
L 190.541874 180480.478538 
L 191.715488 180480.478538 
L 192.889101 180480.478538 
L 194.062715 496.955287 
L 195.236329 496.955287 
L 196.409943 496.955287 
L 197.583556 496.955287 
L 198.75717 496.955287 
L 199.930784 496.955287 
L 201.104398 469.071167 
L 202.278011 469.071167 
L 203.451625 469.071167 
L 204.625239 469.071167 
L 205.798853 496.955287 
L 206.972467 469.071167 
L 208.14608 469.071167 
L 209.319694 469.071167 
L 210.493308 496.955287 
L 211.666922 469.071167 
L 212.840535 469.071167 
L 214.014149 469.071167 
L 215.187763 469.071167 
L 216.361377 469.071167 
L 217.53499 427.587732 
L 218.708604 414.882334 
L 219.882218 414.882334 
L 221.055832 414.882334 
L 222.229446 414.882334 
L 223.403059 414.882334 
L 224.576673 414.882334 
L 225.750287 391.420769 
L 226.923901 391.420769 
L 228.097514 341.700464 
L 229.271128 328.995065 
L 230.444742 328.995065 
L 231.618356 328.995065 
L 232.791969 328.995065 
L 233.965583 328.995065 
L 235.139197 282.322563 
L 236.312811 276.120178 
L 237.486424 264.448498 
L 238.660038 262.755046 
L 239.833652 236.450333 
L 241.007266 236.450333 
L 242.18088 220.292334 
L 243.354493 220.292334 
L 244.528107 220.292334 
L 245.701721 220.292334 
L 246.875335 220.292334 
L 248.048948 220.292334 
L 249.222562 220.292334 
L 250.396176 220.292334 
L 251.56979 215.267121 
L 252.743403 215.267121 
L 253.917017 215.267121 
L 255.090631 215.267121 
L 256.264245 219.968615 
L 257.437859 219.968615 
L 258.611472 242.243943 
L 259.785086 242.243943 
L 260.9587 242.243943 
L 262.132314 239.293481 
L 263.305927 238.062307 
L 264.479541 238.062307 
L 265.653155 234.48101 
L 266.826769 223.605455 
L 268.000382 223.605455 
L 269.173996 223.605455 
L 270.34761 223.605455 
L 271.521224 223.605455 
L 272.694837 223.605455 
L 273.868451 209.974863 
L 275.042065 190.454064 
L 276.215679 190.454064 
L 277.389293 155.078532 
L 278.562906 155.078532 
L 279.73652 155.078532 
L 280.910134 155.078532 
L 282.083748 155.078532 
L 283.257361 155.078532 
L 284.430975 155.928301 
L 285.604589 153.820951 
L 286.778203 143.451076 
L 287.951816 143.451076 
L 289.12543 143.451076 
L 290.299044 143.451076 
L 291.472658 151.904057 
L 292.646272 151.904057 
L 293.819885 173.587102 
L 294.993499 173.587102 
L 296.167113 161.230533 
L 297.340727 161.230533 
L 298.51434 161.230533 
L 299.687954 161.230533 
L 300.861568 161.230533 
L 302.035182 161.230533 
L 303.208795 178.561229 
L 304.382409 178.561229 
L 305.556023 178.561229 
L 306.729637 178.561229 
L 307.90325 187.626736 
L 309.076864 187.626736 
L 310.250478 251.828742 
L 311.424092 251.828742 
L 312.597706 251.828742 
L 313.771319 251.828742 
L 314.944933 251.828742 
L 316.118547 251.828742 
L 317.292161 251.828742 
L 318.465774 251.828742 
L 319.639388 241.38953 
L 320.813002 245.310138 
L 321.986616 248.037553 
L 323.160229 248.037553 
L 324.333843 248.037553 
L 325.507457 248.037553 
L 326.681071 248.037553 
L 327.854685 248.037553 
L 329.028298 248.037553 
L 330.201912 248.037553 
L 331.375526 248.037553 
L 332.54914 248.037553 
L 333.722753 248.037553 
L 334.896367 248.037553 
L 336.069981 274.806232 
L 337.243595 274.806232 
L 338.417208 280.901106 
L 339.590822 280.901106 
L 340.764436 283.043102 
L 341.93805 312.599542 
L 343.111663 312.599542 
L 344.285277 326.431624 
L 345.458891 427.587732 
L 346.632505 427.587732 
L 347.806119 427.587732 
L 348.979732 391.420769 
L 350.153346 391.420769 
L 351.32696 427.587732 
L 352.500574 427.587732 
L 353.674187 391.420769 
L 354.847801 391.420769 
L 356.021415 391.420769 
L 357.195029 391.420769 
L 358.368642 391.420769 
L 359.542256 341.700464 
L 360.71587 341.700464 
L 361.889484 341.700464 
L 363.063098 341.700464 
L 364.236711 341.700464 
L 365.410325 341.700464 
L 366.583939 341.700464 
L 367.757553 341.700464 
L 368.931166 328.995065 
L 370.10478 305.5335 
L 371.278394 305.5335 
L 372.452008 305.5335 
L 373.625621 297.29663 
L 374.799235 297.29663 
L 375.972849 297.29663 
L 377.146463 297.29663 
L 378.320076 271.614852 
L 379.49369 271.614852 
L 380.667304 271.614852 
L 381.840918 271.614852 
L 383.014532 271.614852 
L 384.188145 271.614852 
L 385.361759 264.448498 
L 386.535373 276.120178 
L 387.708987 276.120178 
L 388.8826 276.120178 
L 390.056214 260.552704 
L 391.229828 260.552704 
L 392.403442 260.552704 
L 393.577055 260.552704 
L 394.750669 268.548656 
L 395.924283 268.548656 
L 397.097897 268.548656 
L 398.271511 264.448498 
L 399.445124 264.448498 
L 400.618738 264.448498 
L 401.792352 264.448498 
L 402.965966 255.303891 
L 404.139579 255.303891 
L 405.313193 255.303891 
L 406.486807 264.448498 
L 407.660421 245.310138 
L 408.834034 245.310138 
L 410.007648 225.662889 
L 411.181262 225.662889 
L 412.354876 225.662889 
L 413.528489 197.155834 
L 414.702103 192.246187 
L 415.875717 192.246187 
L 417.049331 189.573176 
L 418.222945 184.486637 
L 419.396558 184.486637 
L 420.570172 184.486637 
L 421.743786 184.486637 
L 422.9174 184.486637 
L 424.091013 189.573176 
L 425.264627 170.096435 
L 426.438241 170.096435 
L 427.611855 170.096435 
L 428.785468 170.096435 
L 429.959082 170.610202 
L 431.132696 170.610202 
L 432.30631 170.610202 
L 433.479924 177.615898 
L 434.653537 228.493169 
L 435.827151 228.493169 
L 437.000765 228.493169 
L 438.174379 228.493169 
L 439.347992 232.940508 
L 440.521606 207.733047 
L 441.69522 228.493169 
L 442.868834 235.656641 
L 444.042447 235.656641 
L 445.216061 235.656641 
L 446.389675 235.656641 
L 447.563289 235.656641 
L 448.736902 235.656641 
L 449.910516 241.815569 
L 451.08413 249.910169 
L 452.257744 249.910169 
L 453.431358 249.910169 
L 454.604971 249.910169 
L 455.778585 208.566213 
L 456.952199 249.910169 
L 458.125813 333.00507 
L 459.299426 356.879185 
L 460.47304 180480.478538 
L 461.646654 141.769765 
L 462.820268 141.769765 
L 463.993881 133.973738 
L 465.167495 133.973738 
L 466.341109 133.973738 
L 467.514723 133.973738 
L 468.688337 133.973738 
L 469.86195 133.973738 
L 471.035564 133.973738 
L 472.209178 223.944623 
L 473.382792 223.944623 
L 474.556405 223.944623 
L 475.730019 223.944623 
L 476.903633 223.944623 
L 478.077247 224.971044 
L 479.25086 223.944623 
L 480.424474 224.971044 
L 481.598088 227.065222 
L 482.771702 227.065222 
L 483.945315 227.065222 
L 485.118929 233.706965 
L 486.292543 230.315582 
L 487.466157 230.315582 
L 488.639771 241.38953 
L 489.813384 241.38953 
L 490.986998 236.05248 
L 492.160612 234.870926 
L 493.334226 234.870926 
L 494.507839 234.870926 
L 495.681453 236.05248 
L 496.855067 236.05248 
L 498.028681 236.05248 
L 499.202294 236.05248 
L 500.375908 236.05248 
L 501.549522 236.05248 
L 502.723136 236.05248 
L 503.89675 236.05248 
L 505.070363 238.470547 
L 506.243977 234.870926 
L 507.417591 238.470547 
L 508.591205 247.576325 
L 509.764818 247.576325 
L 510.938432 247.576325 
L 512.112046 253.299218 
L 513.28566 253.299218 
L 514.459273 206.09289 
L 515.632887 206.09289 
L 516.806501 209.408353 
L 517.980115 209.408353 
L 519.153728 209.408353 
L 520.327342 196.196583 
L 521.500956 196.196583 
L 522.67457 217.739357 
L 523.848184 219.646231 
L 525.021797 219.646231 
L 526.195411 219.646231 
L 527.369025 219.646231 
L 528.542639 219.646231 
L 529.716252 219.646231 
L 530.889866 283.770344 
L 532.06348 283.770344 
L 533.237094 293.069765 
L 534.410707 293.069765 
L 535.584321 293.069765 
L 536.757935 328.995065 
L 537.931549 328.995065 
L 539.105163 328.995065 
L 540.278776 351.485463 
L 541.45239 306.504667 
L 542.626004 272.24279 
L 543.799618 272.24279 
L 544.973231 272.24279 
L 546.146845 272.24279 
L 547.320459 272.24279 
L 548.494073 272.24279 
L 549.667686 272.24279 
L 550.8413 272.24279 
L 552.014914 272.24279 
L 553.188528 201.880264 
L 554.362141 201.880264 
L 555.535755 272.24279 
L 556.709369 227.065222 
L 557.882983 227.065222 
L 559.056597 234.870926 
L 560.23021 242.243943 
L 561.403824 212.282867 
L 562.577438 212.282867 
L 563.751052 212.282867 
L 564.924665 212.282867 
L 566.098279 212.282867 
L 567.271893 212.282867 
L 568.445507 212.282867 
L 569.61912 222.931503 
L 570.792734 222.931503 
L 571.966348 222.931503 
L 573.139962 220.617399 
L 574.313576 220.617399 
L 575.487189 220.617399 
L 576.660803 220.617399 
L 577.834417 232.940508 
L 579.008031 232.940508 
L 580.181644 232.940508 
L 581.355258 237.656186 
L 582.528872 215.877889 
L 583.702486 215.877889 
L 584.876099 215.877889 
L 586.049713 215.877889 
L 587.223327 215.877889 
L 588.396941 215.877889 
L 589.570554 236.450333 
L 590.744168 236.450333 
L 591.917782 205.822845 
L 593.091396 205.822845 
L 594.26501 205.018262 
L 595.438623 205.018262 
L 596.612237 205.018262 
L 597.785851 205.018262 
L 598.959465 223.944623 
L 600.133078 223.944623 
L 601.306692 223.944623 
L 602.480306 223.944623 
L 603.65392 223.944623 
L 604.827533 223.944623 
L 606.001147 223.944623 
L 607.174761 223.944623 
L 608.348375 226.011121 
L 609.521989 226.011121 
L 610.695602 226.011121 
L 611.869216 226.011121 
L 613.04283 232.181493 
L 614.216444 232.181493 
L 615.390057 188.05511 
L 616.563671 188.05511 
L 617.737285 188.05511 
L 618.910899 188.05511 
L 620.084512 186.776967 
L 621.258126 170.096435 
L 622.43174 170.096435 
L 623.605354 170.096435 
L 624.778967 170.096435 
L 625.952581 170.096435 
L 627.126195 170.096435 
L 628.299809 166.918711 
L 629.473423 166.918711 
L 630.647036 166.918711 
L 631.82065 166.918711 
L 632.994264 166.918711 
L 634.167878 166.918711 
L 635.341491 166.918711 
L 636.515105 166.918711 
L 637.688719 168.40786 
L 638.862333 168.40786 
L 640.035946 168.40786 
L 641.20956 168.40786 
L 642.383174 168.40786 
L 643.556788 176.496385 
L 644.730402 198.127001 
L 645.904015 245.758151 
L 647.077629 245.758151 
L 648.251243 245.758151 
L 649.424857 245.758151 
L 650.59847 245.758151 
L 651.772084 245.758151 
L 652.945698 240.125169 
L 654.119312 240.125169 
L 655.292925 199.110384 
L 656.466539 199.110384 
L 657.640153 199.110384 
L 658.813767 199.110384 
L 659.98738 199.110384 
L 661.160994 173.230938 
L 662.334608 173.230938 
L 663.508222 173.230938 
L 664.681836 188.05511 
L 665.855449 188.05511 
L 667.029063 188.05511 
L 668.202677 188.05511 
L 669.376291 188.05511 
L 670.549904 173.230938 
L 671.723518 174.304336 
L 672.897132 174.304336 
L 674.070746 174.304336 
L 675.244359 174.304336 
L 676.417973 153.268454 
L 677.591587 158.387385 
L 678.765201 158.387385 
L 679.938815 142.485904 
L 681.112428 142.485904 
L 682.286042 142.485904 
L 683.459656 142.485904 
L 684.63327 134.838786 
L 685.806883 134.838786 
L 686.980497 134.838786 
L 688.154111 124.182413 
L 689.327725 124.182413 
L 690.501338 124.182413 
L 691.674952 124.182413 
L 692.848566 104.272062 
L 694.02218 104.272062 
L 695.195793 104.272062 
L 696.369407 94.86 
L 697.543021 94.86 
L 698.716635 94.86 
L 699.890249 94.86 
L 701.063862 94.86 
L 702.237476 94.86 
L 703.41109 94.86 
L 704.584704 99.979421 
L 705.758317 99.979421 
L 706.931931 99.979421 
L 708.105545 99.979421 
L 709.279159 105.159617 
L 710.452772 105.159617 
L 711.626386 98.531001 
L 712.8 105.159617 
L 712.8 180480.478538 
L 712.8 180480.478538 
L 711.626386 180480.478538 
L 710.452772 180480.478538 
L 709.279159 180480.478538 
L 708.105545 180480.478538 
L 706.931931 180480.478538 
L 705.758317 180480.478538 
L 704.584704 180480.478538 
L 703.41109 180480.478538 
L 702.237476 180480.478538 
L 701.063862 180480.478538 
L 699.890249 180480.478538 
L 698.716635 180480.478538 
L 697.543021 180480.478538 
L 696.369407 180480.478538 
L 695.195793 180480.478538 
L 694.02218 180480.478538 
L 692.848566 180480.478538 
L 691.674952 180480.478538 
L 690.501338 180480.478538 
L 689.327725 180480.478538 
L 688.154111 180480.478538 
L 686.980497 180480.478538 
L 685.806883 180480.478538 
L 684.63327 180480.478538 
L 683.459656 180480.478538 
L 682.286042 180480.478538 
L 681.112428 180480.478538 
L 679.938815 180480.478538 
L 678.765201 180480.478538 
L 677.591587 180480.478538 
L 676.417973 180480.478538 
L 675.244359 180480.478538 
L 674.070746 180480.478538 
L 672.897132 180480.478538 
L 671.723518 180480.478538 
L 670.549904 180480.478538 
L 669.376291 180480.478538 
L 668.202677 180480.478538 
L 667.029063 180480.478538 
L 665.855449 180480.478538 
L 664.681836 180480.478538 
L 663.508222 180480.478538 
L 662.334608 180480.478538 
L 661.160994 180480.478538 
L 659.98738 180480.478538 
L 658.813767 180480.478538 
L 657.640153 180480.478538 
L 656.466539 180480.478538 
L 655.292925 180480.478538 
L 654.119312 180480.478538 
L 652.945698 180480.478538 
L 651.772084 180480.478538 
L 650.59847 180480.478538 
L 649.424857 180480.478538 
L 648.251243 180480.478538 
L 647.077629 180480.478538 
L 645.904015 180480.478538 
L 644.730402 180480.478538 
L 643.556788 180480.478538 
L 642.383174 180480.478538 
L 641.20956 180480.478538 
L 640.035946 180480.478538 
L 638.862333 180480.478538 
L 637.688719 180480.478538 
L 636.515105 180480.478538 
L 635.341491 180480.478538 
L 634.167878 180480.478538 
L 632.994264 180480.478538 
L 631.82065 180480.478538 
L 630.647036 180480.478538 
L 629.473423 180480.478538 
L 628.299809 180480.478538 
L 627.126195 180480.478538 
L 625.952581 180480.478538 
L 624.778967 180480.478538 
L 623.605354 180480.478538 
L 622.43174 180480.478538 
L 621.258126 180480.478538 
L 620.084512 180480.478538 
L 618.910899 180480.478538 
L 617.737285 180480.478538 
L 616.563671 180480.478538 
L 615.390057 180480.478538 
L 614.216444 180480.478538 
L 613.04283 180480.478538 
L 611.869216 180480.478538 
L 610.695602 180480.478538 
L 609.521989 180480.478538 
L 608.348375 180480.478538 
L 607.174761 180480.478538 
L 606.001147 180480.478538 
L 604.827533 180480.478538 
L 603.65392 180480.478538 
L 602.480306 180480.478538 
L 601.306692 180480.478538 
L 600.133078 180480.478538 
L 598.959465 180480.478538 
L 597.785851 180480.478538 
L 596.612237 180480.478538 
L 595.438623 180480.478538 
L 594.26501 180480.478538 
L 593.091396 180480.478538 
L 591.917782 180480.478538 
L 590.744168 180480.478538 
L 589.570554 180480.478538 
L 588.396941 180480.478538 
L 587.223327 180480.478538 
L 586.049713 180480.478538 
L 584.876099 180480.478538 
L 583.702486 180480.478538 
L 582.528872 180480.478538 
L 581.355258 180480.478538 
L 580.181644 180480.478538 
L 579.008031 180480.478538 
L 577.834417 180480.478538 
L 576.660803 180480.478538 
L 575.487189 180480.478538 
L 574.313576 180480.478538 
L 573.139962 180480.478538 
L 571.966348 180480.478538 
L 570.792734 180480.478538 
L 569.61912 180480.478538 
L 568.445507 180480.478538 
L 567.271893 180480.478538 
L 566.098279 180480.478538 
L 564.924665 180480.478538 
L 563.751052 180480.478538 
L 562.577438 180480.478538 
L 561.403824 180480.478538 
L 560.23021 180480.478538 
L 559.056597 180480.478538 
L 557.882983 180480.478538 
L 556.709369 180480.478538 
L 555.535755 180480.478538 
L 554.362141 180480.478538 
L 553.188528 180480.478538 
L 552.014914 180480.478538 
L 550.8413 180480.478538 
L 549.667686 180480.478538 
L 548.494073 180480.478538 
L 547.320459 180480.478538 
L 546.146845 180480.478538 
L 544.973231 180480.478538 
L 543.799618 180480.478538 
L 542.626004 180480.478538 
L 541.45239 180480.478538 
L 540.278776 180480.478538 
L 539.105163 180480.478538 
L 537.931549 180480.478538 
L 536.757935 180480.478538 
L 535.584321 180480.478538 
L 534.410707 180480.478538 
L 533.237094 180480.478538 
L 532.06348 180480.478538 
L 530.889866 180480.478538 
L 529.716252 180480.478538 
L 528.542639 180480.478538 
L 527.369025 180480.478538 
L 526.195411 180480.478538 
L 525.021797 180480.478538 
L 523.848184 180480.478538 
L 522.67457 180480.478538 
L 521.500956 180480.478538 
L 520.327342 180480.478538 
L 519.153728 180480.478538 
L 517.980115 180480.478538 
L 516.806501 180480.478538 
L 515.632887 180480.478538 
L 514.459273 180480.478538 
L 513.28566 180480.478538 
L 512.112046 180480.478538 
L 510.938432 180480.478538 
L 509.764818 180480.478538 
L 508.591205 180480.478538 
L 507.417591 180480.478538 
L 506.243977 180480.478538 
L 505.070363 180480.478538 
L 503.89675 180480.478538 
L 502.723136 180480.478538 
L 501.549522 180480.478538 
L 500.375908 180480.478538 
L 499.202294 180480.478538 
L 498.028681 180480.478538 
L 496.855067 180480.478538 
L 495.681453 180480.478538 
L 494.507839 180480.478538 
L 493.334226 180480.478538 
L 492.160612 180480.478538 
L 490.986998 180480.478538 
L 489.813384 180480.478538 
L 488.639771 180480.478538 
L 487.466157 180480.478538 
L 486.292543 368.930371 
L 485.118929 180480.478538 
L 483.945315 368.930371 
L 482.771702 368.930371 
L 481.598088 180480.478538 
L 480.424474 180480.478538 
L 479.25086 180480.478538 
L 478.077247 180480.478538 
L 476.903633 180480.478538 
L 475.730019 180480.478538 
L 474.556405 180480.478538 
L 473.382792 180480.478538 
L 472.209178 180480.478538 
L 471.035564 180480.478538 
L 469.86195 180480.478538 
L 468.688337 180480.478538 
L 467.514723 180480.478538 
L 466.341109 180480.478538 
L 465.167495 180480.478538 
L 463.993881 180480.478538 
L 462.820268 180480.478538 
L 461.646654 180480.478538 
L 460.47304 180480.478538 
L 459.299426 180480.478538 
L 458.125813 180480.478538 
L 456.952199 180480.478538 
L 455.778585 180480.478538 
L 454.604971 180480.478538 
L 453.431358 180480.478538 
L 452.257744 180480.478538 
L 451.08413 180480.478538 
L 449.910516 180480.478538 
L 448.736902 180480.478538 
L 447.563289 180480.478538 
L 446.389675 180480.478538 
L 445.216061 180480.478538 
L 444.042447 180480.478538 
L 442.868834 180480.478538 
L 441.69522 180480.478538 
L 440.521606 180480.478538 
L 439.347992 180480.478538 
L 438.174379 180480.478538 
L 437.000765 297.29663 
L 435.827151 297.29663 
L 434.653537 297.29663 
L 433.479924 297.29663 
L 432.30631 297.29663 
L 431.132696 297.29663 
L 429.959082 297.29663 
L 428.785468 282.322563 
L 427.611855 297.29663 
L 426.438241 180480.478538 
L 425.264627 180480.478538 
L 424.091013 180480.478538 
L 422.9174 180480.478538 
L 421.743786 180480.478538 
L 420.570172 180480.478538 
L 419.396558 180480.478538 
L 418.222945 368.930371 
L 417.049331 180480.478538 
L 415.875717 180480.478538 
L 414.702103 180480.478538 
L 413.528489 180480.478538 
L 412.354876 180480.478538 
L 411.181262 180480.478538 
L 410.007648 180480.478538 
L 408.834034 180480.478538 
L 407.660421 391.420769 
L 406.486807 391.420769 
L 405.313193 391.420769 
L 404.139579 391.420769 
L 402.965966 180480.478538 
L 401.792352 180480.478538 
L 400.618738 391.420769 
L 399.445124 391.420769 
L 398.271511 391.420769 
L 397.097897 391.420769 
L 395.924283 180480.478538 
L 394.750669 180480.478538 
L 393.577055 180480.478538 
L 392.403442 180480.478538 
L 391.229828 180480.478538 
L 390.056214 180480.478538 
L 388.8826 180480.478538 
L 387.708987 180480.478538 
L 386.535373 180480.478538 
L 385.361759 180480.478538 
L 384.188145 180480.478538 
L 383.014532 180480.478538 
L 381.840918 180480.478538 
L 380.667304 180480.478538 
L 379.49369 180480.478538 
L 378.320076 180480.478538 
L 377.146463 180480.478538 
L 375.972849 180480.478538 
L 374.799235 180480.478538 
L 373.625621 180480.478538 
L 372.452008 180480.478538 
L 371.278394 180480.478538 
L 370.10478 180480.478538 
L 368.931166 180480.478538 
L 367.757553 180480.478538 
L 366.583939 180480.478538 
L 365.410325 180480.478538 
L 364.236711 180480.478538 
L 363.063098 180480.478538 
L 361.889484 180480.478538 
L 360.71587 180480.478538 
L 359.542256 180480.478538 
L 358.368642 180480.478538 
L 357.195029 180480.478538 
L 356.021415 180480.478538 
L 354.847801 180480.478538 
L 353.674187 180480.478538 
L 352.500574 180480.478538 
L 351.32696 180480.478538 
L 350.153346 180480.478538 
L 348.979732 180480.478538 
L 347.806119 180480.478538 
L 346.632505 180480.478538 
L 345.458891 180480.478538 
L 344.285277 180480.478538 
L 343.111663 180480.478538 
L 341.93805 180480.478538 
L 340.764436 180480.478538 
L 339.590822 180480.478538 
L 338.417208 180480.478538 
L 337.243595 180480.478538 
L 336.069981 180480.478538 
L 334.896367 180480.478538 
L 333.722753 180480.478538 
L 332.54914 180480.478538 
L 331.375526 180480.478538 
L 330.201912 180480.478538 
L 329.028298 180480.478538 
L 327.854685 180480.478538 
L 326.681071 180480.478538 
L 325.507457 180480.478538 
L 324.333843 180480.478538 
L 323.160229 180480.478538 
L 321.986616 477.308037 
L 320.813002 477.308037 
L 319.639388 469.071167 
L 318.465774 477.308037 
L 317.292161 477.308037 
L 316.118547 469.071167 
L 314.944933 469.071167 
L 313.771319 469.071167 
L 312.597706 366.788375 
L 311.424092 366.788375 
L 310.250478 366.788375 
L 309.076864 366.788375 
L 307.90325 469.071167 
L 306.729637 366.788375 
L 305.556023 366.788375 
L 304.382409 366.788375 
L 303.208795 477.308037 
L 302.035182 366.788375 
L 300.861568 366.788375 
L 299.687954 344.827999 
L 298.51434 343.248593 
L 297.340727 267.949588 
L 296.167113 266.765051 
L 294.993499 325.18075 
L 293.819885 266.765051 
L 292.646272 266.765051 
L 291.472658 266.765051 
L 290.299044 266.765051 
L 289.12543 243.981302 
L 287.951816 243.981302 
L 286.778203 243.981302 
L 285.604589 318.068761 
L 284.430975 318.068761 
L 283.257361 318.068761 
L 282.083748 318.068761 
L 280.910134 318.068761 
L 279.73652 337.231935 
L 278.562906 262.198617 
L 277.389293 262.198617 
L 276.215679 337.231935 
L 275.042065 292.25114 
L 273.868451 337.231935 
L 272.694837 337.231935 
L 271.521224 337.231935 
L 270.34761 337.231935 
L 269.173996 305.5335 
L 268.000382 337.231935 
L 266.826769 337.231935 
L 265.653155 180480.478538 
L 264.479541 180480.478538 
L 263.305927 180480.478538 
L 262.132314 180480.478538 
L 260.9587 180480.478538 
L 259.785086 337.231935 
L 258.611472 337.231935 
L 257.437859 328.995065 
L 256.264245 328.995065 
L 255.090631 328.995065 
L 253.917017 292.25114 
L 252.743403 285.245444 
L 251.56979 283.043102 
L 250.396176 283.043102 
L 249.222562 283.043102 
L 248.048948 299.946984 
L 246.875335 299.946984 
L 245.701721 328.995065 
L 244.528107 328.995065 
L 243.354493 328.995065 
L 242.18088 331.645419 
L 241.007266 331.645419 
L 239.833652 362.672795 
L 238.660038 385.834252 
L 237.486424 418.892339 
L 236.312811 477.308037 
L 235.139197 477.308037 
L 233.965583 477.308037 
L 232.791969 477.308037 
L 231.618356 180480.478538 
L 230.444742 180480.478538 
L 229.271128 180480.478538 
L 228.097514 180480.478538 
L 226.923901 180480.478538 
L 225.750287 180480.478538 
L 224.576673 180480.478538 
L 223.403059 180480.478538 
L 222.229446 180480.478538 
L 221.055832 180480.478538 
L 219.882218 180480.478538 
L 218.708604 180480.478538 
L 217.53499 180480.478538 
L 216.361377 180480.478538 
L 215.187763 180480.478538 
L 214.014149 180480.478538 
L 212.840535 180480.478538 
L 211.666922 180480.478538 
L 210.493308 180480.478538 
L 209.319694 180480.478538 
L 208.14608 180480.478538 
L 206.972467 180480.478538 
L 205.798853 180480.478538 
L 204.625239 180480.478538 
L 203.451625 180480.478538 
L 202.278011 180480.478538 
L 201.104398 180480.478538 
L 199.930784 180480.478538 
L 198.75717 180480.478538 
L 197.583556 180480.478538 
L 196.409943 180480.478538 
L 195.236329 180480.478538 
L 194.062715 180480.478538 
L 192.889101 180480.478538 
L 191.715488 180480.478538 
L 190.541874 180480.478538 
L 189.36826 180480.478538 
L 188.194646 180480.478538 
L 187.021033 180480.478538 
L 185.847419 180480.478538 
L 184.673805 180480.478538 
L 183.500191 180480.478538 
L 182.326577 180480.478538 
L 181.152964 180480.478538 
L 179.97935 180480.478538 
L 178.805736 180480.478538 
L 177.632122 180480.478538 
L 176.458509 180480.478538 
L 175.284895 180480.478538 
L 174.111281 180480.478538 
L 172.937667 180480.478538 
L 171.764054 180480.478538 
L 170.59044 180480.478538 
L 169.416826 180480.478538 
L 168.243212 180480.478538 
L 167.069598 180480.478538 
L 165.895985 180480.478538 
L 164.722371 180480.478538 
L 163.548757 180480.478538 
L 162.375143 180480.478538 
L 161.20153 180480.478538 
L 160.027916 180480.478538 
L 158.854302 180480.478538 
L 157.680688 180480.478538 
L 156.507075 180480.478538 
L 155.333461 180480.478538 
L 154.159847 180480.478538 
L 152.986233 180480.478538 
L 151.81262 180480.478538 
L 150.639006 180480.478538 
L 149.465392 180480.478538 
L 148.291778 180480.478538 
L 147.118164 180480.478538 
L 145.944551 180480.478538 
L 144.770937 180480.478538 
L 143.597323 180480.478538 
L 142.423709 180480.478538 
L 141.250096 180480.478538 
L 140.076482 180480.478538 
L 138.902868 180480.478538 
L 137.729254 180480.478538 
L 136.555641 180480.478538 
L 135.382027 180480.478538 
L 134.208413 180480.478538 
L 133.034799 180480.478538 
L 131.861185 477.308037 
L 130.687572 477.308037 
L 129.513958 477.308037 
L 128.340344 180480.478538 
L 127.16673 180480.478538 
L 125.993117 180480.478538 
L 124.819503 180480.478538 
L 123.645889 180480.478538 
L 122.472275 180480.478538 
L 121.298662 180480.478538 
L 120.125048 180480.478538 
L 118.951434 180480.478538 
L 117.77782 180480.478538 
L 116.604207 180480.478538 
L 115.430593 180480.478538 
L 114.256979 180480.478538 
L 113.083365 180480.478538 
L 111.909751 180480.478538 
L 110.736138 180480.478538 
L 109.562524 180480.478538 
L 108.38891 180480.478538 
L 107.215296 180480.478538 
L 106.041683 180480.478538 
L 104.868069 180480.478538 
L 103.694455 180480.478538 
L 102.520841 180480.478538 
L 101.347228 180480.478538 
L 100.173614 180480.478538 
L 99 180480.478538 
z
" style="fill:#8080ff;fill-opacity:0.5;stroke:#8080ff;stroke-opacity:0.5;"/>
   </g>
   <g id="PolyCollection_2">
    <path clip-path="url(#p68e2955192)" d="M 99 180480.478538 
L 99 180480.478538 
L 100.173614 180480.478538 
L 101.347228 180480.478538 
L 102.520841 180480.478538 
L 103.694455 180480.478538 
L 104.868069 180480.478538 
L 106.041683 180480.478538 
L 107.215296 180480.478538 
L 108.38891 180480.478538 
L 109.562524 180480.478538 
L 110.736138 180480.478538 
L 111.909751 180480.478538 
L 113.083365 180480.478538 
L 114.256979 180480.478538 
L 115.430593 180480.478538 
L 116.604207 180480.478538 
L 117.77782 180480.478538 
L 118.951434 180480.478538 
L 120.125048 180480.478538 
L 121.298662 180480.478538 
L 122.472275 180480.478538 
L 123.645889 180480.478538 
L 124.819503 180480.478538 
L 125.993117 180480.478538 
L 127.16673 180480.478538 
L 128.340344 180480.478538 
L 129.513958 180480.478538 
L 130.687572 180480.478538 
L 131.861185 180480.478538 
L 133.034799 180480.478538 
L 134.208413 180480.478538 
L 135.382027 180480.478538 
L 136.555641 180480.478538 
L 137.729254 496.955287 
L 138.902868 469.071167 
L 140.076482 469.071167 
L 141.250096 469.071167 
L 142.423709 496.955287 
L 143.597323 496.955287 
L 144.770937 496.955287 
L 145.944551 496.955287 
L 147.118164 496.955287 
L 148.291778 469.071167 
L 149.465392 469.071167 
L 150.639006 469.071167 
L 151.81262 469.071167 
L 152.986233 469.071167 
L 154.159847 496.955287 
L 155.333461 180480.478538 
L 156.507075 180480.478538 
L 157.680688 180480.478538 
L 158.854302 180480.478538 
L 160.027916 180480.478538 
L 161.20153 180480.478538 
L 162.375143 180480.478538 
L 163.548757 180480.478538 
L 164.722371 180480.478538 
L 165.895985 180480.478538 
L 167.069598 496.955287 
L 168.243212 496.955287 
L 169.416826 496.955287 
L 170.59044 496.955287 
L 171.764054 496.955287 
L 172.937667 496.955287 
L 174.111281 496.955287 
L 175.284895 496.955287 
L 176.458509 496.955287 
L 177.632122 496.955287 
L 178.805736 496.955287 
L 179.97935 496.955287 
L 181.152964 496.955287 
L 182.326577 180480.478538 
L 183.500191 180480.478538 
L 184.673805 180480.478538 
L 185.847419 180480.478538 
L 187.021033 180480.478538 
L 188.194646 180480.478538 
L 189.36826 180480.478538 
L 190.541874 180480.478538 
L 191.715488 180480.478538 
L 192.889101 180480.478538 
L 194.062715 180480.478538 
L 195.236329 180480.478538 
L 196.409943 180480.478538 
L 197.583556 180480.478538 
L 198.75717 180480.478538 
L 199.930784 180480.478538 
L 201.104398 180480.478538 
L 202.278011 180480.478538 
L 203.451625 180480.478538 
L 204.625239 180480.478538 
L 205.798853 180480.478538 
L 206.972467 180480.478538 
L 208.14608 180480.478538 
L 209.319694 180480.478538 
L 210.493308 180480.478538 
L 211.666922 180480.478538 
L 212.840535 180480.478538 
L 214.014149 180480.478538 
L 215.187763 180480.478538 
L 216.361377 180480.478538 
L 217.53499 180480.478538 
L 218.708604 180480.478538 
L 219.882218 180480.478538 
L 221.055832 180480.478538 
L 222.229446 180480.478538 
L 223.403059 180480.478538 
L 224.576673 180480.478538 
L 225.750287 180480.478538 
L 226.923901 180480.478538 
L 228.097514 180480.478538 
L 229.271128 180480.478538 
L 230.444742 180480.478538 
L 231.618356 180480.478538 
L 232.791969 180480.478538 
L 233.965583 180480.478538 
L 235.139197 180480.478538 
L 236.312811 180480.478538 
L 237.486424 180480.478538 
L 238.660038 180480.478538 
L 239.833652 180480.478538 
L 241.007266 180480.478538 
L 242.18088 180480.478538 
L 243.354493 180480.478538 
L 244.528107 180480.478538 
L 245.701721 180480.478538 
L 246.875335 180480.478538 
L 248.048948 180480.478538 
L 249.222562 180480.478538 
L 250.396176 180480.478538 
L 251.56979 180480.478538 
L 252.743403 180480.478538 
L 253.917017 180480.478538 
L 255.090631 180480.478538 
L 256.264245 180480.478538 
L 257.437859 180480.478538 
L 258.611472 180480.478538 
L 259.785086 496.955287 
L 260.9587 496.955287 
L 262.132314 496.955287 
L 263.305927 496.955287 
L 264.479541 496.955287 
L 265.653155 496.955287 
L 266.826769 496.955287 
L 268.000382 496.955287 
L 269.173996 496.955287 
L 270.34761 496.955287 
L 271.521224 496.955287 
L 272.694837 496.955287 
L 273.868451 496.955287 
L 275.042065 496.955287 
L 276.215679 180480.478538 
L 277.389293 180480.478538 
L 278.562906 180480.478538 
L 279.73652 180480.478538 
L 280.910134 180480.478538 
L 282.083748 180480.478538 
L 283.257361 180480.478538 
L 284.430975 180480.478538 
L 285.604589 180480.478538 
L 286.778203 180480.478538 
L 287.951816 180480.478538 
L 289.12543 496.955287 
L 290.299044 469.071167 
L 291.472658 469.071167 
L 292.646272 469.071167 
L 293.819885 469.071167 
L 294.993499 469.071167 
L 296.167113 469.071167 
L 297.340727 469.071167 
L 298.51434 469.071167 
L 299.687954 469.071167 
L 300.861568 469.071167 
L 302.035182 469.071167 
L 303.208795 469.071167 
L 304.382409 469.071167 
L 305.556023 469.071167 
L 306.729637 469.071167 
L 307.90325 469.071167 
L 309.076864 469.071167 
L 310.250478 469.071167 
L 311.424092 469.071167 
L 312.597706 469.071167 
L 313.771319 469.071167 
L 314.944933 469.071167 
L 316.118547 469.071167 
L 317.292161 469.071167 
L 318.465774 469.071167 
L 319.639388 469.071167 
L 320.813002 469.071167 
L 321.986616 496.955287 
L 323.160229 496.955287 
L 324.333843 180480.478538 
L 325.507457 180480.478538 
L 326.681071 180480.478538 
L 327.854685 180480.478538 
L 329.028298 180480.478538 
L 330.201912 180480.478538 
L 331.375526 180480.478538 
L 332.54914 180480.478538 
L 333.722753 180480.478538 
L 334.896367 180480.478538 
L 336.069981 180480.478538 
L 337.243595 180480.478538 
L 338.417208 180480.478538 
L 339.590822 180480.478538 
L 340.764436 180480.478538 
L 341.93805 180480.478538 
L 343.111663 180480.478538 
L 344.285277 180480.478538 
L 345.458891 180480.478538 
L 346.632505 180480.478538 
L 347.806119 180480.478538 
L 348.979732 180480.478538 
L 350.153346 180480.478538 
L 351.32696 180480.478538 
L 352.500574 180480.478538 
L 353.674187 180480.478538 
L 354.847801 180480.478538 
L 356.021415 180480.478538 
L 357.195029 180480.478538 
L 358.368642 180480.478538 
L 359.542256 180480.478538 
L 360.71587 180480.478538 
L 361.889484 180480.478538 
L 363.063098 180480.478538 
L 364.236711 180480.478538 
L 365.410325 180480.478538 
L 366.583939 180480.478538 
L 367.757553 180480.478538 
L 368.931166 180480.478538 
L 370.10478 180480.478538 
L 371.278394 180480.478538 
L 372.452008 180480.478538 
L 373.625621 180480.478538 
L 374.799235 496.955287 
L 375.972849 496.955287 
L 377.146463 496.955287 
L 378.320076 496.955287 
L 379.49369 496.955287 
L 380.667304 496.955287 
L 381.840918 496.955287 
L 383.014532 496.955287 
L 384.188145 496.955287 
L 385.361759 496.955287 
L 386.535373 496.955287 
L 387.708987 496.955287 
L 388.8826 496.955287 
L 390.056214 180480.478538 
L 391.229828 180480.478538 
L 392.403442 180480.478538 
L 393.577055 180480.478538 
L 394.750669 180480.478538 
L 395.924283 180480.478538 
L 397.097897 180480.478538 
L 398.271511 180480.478538 
L 399.445124 180480.478538 
L 400.618738 180480.478538 
L 401.792352 180480.478538 
L 402.965966 180480.478538 
L 404.139579 180480.478538 
L 405.313193 180480.478538 
L 406.486807 180480.478538 
L 407.660421 180480.478538 
L 408.834034 180480.478538 
L 410.007648 180480.478538 
L 411.181262 180480.478538 
L 412.354876 180480.478538 
L 413.528489 180480.478538 
L 414.702103 180480.478538 
L 415.875717 180480.478538 
L 417.049331 180480.478538 
L 418.222945 180480.478538 
L 419.396558 180480.478538 
L 420.570172 180480.478538 
L 421.743786 180480.478538 
L 422.9174 180480.478538 
L 424.091013 180480.478538 
L 425.264627 180480.478538 
L 426.438241 180480.478538 
L 427.611855 180480.478538 
L 428.785468 180480.478538 
L 429.959082 180480.478538 
L 431.132696 180480.478538 
L 432.30631 180480.478538 
L 433.479924 180480.478538 
L 434.653537 180480.478538 
L 435.827151 180480.478538 
L 437.000765 180480.478538 
L 438.174379 180480.478538 
L 439.347992 180480.478538 
L 440.521606 180480.478538 
L 441.69522 180480.478538 
L 442.868834 180480.478538 
L 444.042447 180480.478538 
L 445.216061 180480.478538 
L 446.389675 180480.478538 
L 447.563289 180480.478538 
L 448.736902 180480.478538 
L 449.910516 180480.478538 
L 451.08413 180480.478538 
L 452.257744 180480.478538 
L 453.431358 180480.478538 
L 454.604971 180480.478538 
L 455.778585 180480.478538 
L 456.952199 180480.478538 
L 458.125813 180480.478538 
L 459.299426 180480.478538 
L 460.47304 180480.478538 
L 461.646654 180480.478538 
L 462.820268 180480.478538 
L 463.993881 180480.478538 
L 465.167495 180480.478538 
L 466.341109 180480.478538 
L 467.514723 180480.478538 
L 468.688337 180480.478538 
L 469.86195 180480.478538 
L 471.035564 180480.478538 
L 472.209178 180480.478538 
L 473.382792 180480.478538 
L 474.556405 180480.478538 
L 475.730019 180480.478538 
L 476.903633 180480.478538 
L 478.077247 180480.478538 
L 479.25086 180480.478538 
L 480.424474 180480.478538 
L 481.598088 180480.478538 
L 482.771702 180480.478538 
L 483.945315 180480.478538 
L 485.118929 180480.478538 
L 486.292543 180480.478538 
L 487.466157 180480.478538 
L 488.639771 180480.478538 
L 489.813384 180480.478538 
L 490.986998 180480.478538 
L 492.160612 180480.478538 
L 493.334226 180480.478538 
L 494.507839 180480.478538 
L 495.681453 180480.478538 
L 496.855067 180480.478538 
L 498.028681 180480.478538 
L 499.202294 180480.478538 
L 500.375908 180480.478538 
L 501.549522 180480.478538 
L 502.723136 180480.478538 
L 503.89675 180480.478538 
L 505.070363 180480.478538 
L 506.243977 180480.478538 
L 507.417591 180480.478538 
L 508.591205 180480.478538 
L 509.764818 180480.478538 
L 510.938432 180480.478538 
L 512.112046 180480.478538 
L 513.28566 180480.478538 
L 514.459273 180480.478538 
L 515.632887 180480.478538 
L 516.806501 180480.478538 
L 517.980115 180480.478538 
L 519.153728 180480.478538 
L 520.327342 180480.478538 
L 521.500956 180480.478538 
L 522.67457 180480.478538 
L 523.848184 180480.478538 
L 525.021797 180480.478538 
L 526.195411 180480.478538 
L 527.369025 180480.478538 
L 528.542639 180480.478538 
L 529.716252 180480.478538 
L 530.889866 180480.478538 
L 532.06348 180480.478538 
L 533.237094 180480.478538 
L 534.410707 180480.478538 
L 535.584321 180480.478538 
L 536.757935 180480.478538 
L 537.931549 180480.478538 
L 539.105163 180480.478538 
L 540.278776 180480.478538 
L 541.45239 180480.478538 
L 542.626004 180480.478538 
L 543.799618 180480.478538 
L 544.973231 180480.478538 
L 546.146845 180480.478538 
L 547.320459 180480.478538 
L 548.494073 180480.478538 
L 549.667686 180480.478538 
L 550.8413 180480.478538 
L 552.014914 180480.478538 
L 553.188528 180480.478538 
L 554.362141 180480.478538 
L 555.535755 180480.478538 
L 556.709369 180480.478538 
L 557.882983 180480.478538 
L 559.056597 180480.478538 
L 560.23021 180480.478538 
L 561.403824 180480.478538 
L 562.577438 180480.478538 
L 563.751052 180480.478538 
L 564.924665 180480.478538 
L 566.098279 180480.478538 
L 567.271893 180480.478538 
L 568.445507 180480.478538 
L 569.61912 180480.478538 
L 570.792734 180480.478538 
L 571.966348 180480.478538 
L 573.139962 180480.478538 
L 574.313576 180480.478538 
L 575.487189 180480.478538 
L 576.660803 180480.478538 
L 577.834417 180480.478538 
L 579.008031 180480.478538 
L 580.181644 180480.478538 
L 581.355258 180480.478538 
L 582.528872 180480.478538 
L 583.702486 180480.478538 
L 584.876099 180480.478538 
L 586.049713 180480.478538 
L 587.223327 180480.478538 
L 588.396941 180480.478538 
L 589.570554 180480.478538 
L 590.744168 180480.478538 
L 591.917782 180480.478538 
L 593.091396 180480.478538 
L 594.26501 180480.478538 
L 595.438623 180480.478538 
L 596.612237 180480.478538 
L 597.785851 180480.478538 
L 598.959465 180480.478538 
L 600.133078 180480.478538 
L 601.306692 180480.478538 
L 602.480306 180480.478538 
L 603.65392 180480.478538 
L 604.827533 180480.478538 
L 606.001147 180480.478538 
L 607.174761 180480.478538 
L 608.348375 180480.478538 
L 609.521989 180480.478538 
L 610.695602 180480.478538 
L 611.869216 180480.478538 
L 613.04283 180480.478538 
L 614.216444 180480.478538 
L 615.390057 180480.478538 
L 616.563671 180480.478538 
L 617.737285 180480.478538 
L 618.910899 180480.478538 
L 620.084512 180480.478538 
L 621.258126 180480.478538 
L 622.43174 180480.478538 
L 623.605354 180480.478538 
L 624.778967 180480.478538 
L 625.952581 180480.478538 
L 627.126195 180480.478538 
L 628.299809 180480.478538 
L 629.473423 180480.478538 
L 630.647036 180480.478538 
L 631.82065 180480.478538 
L 632.994264 180480.478538 
L 634.167878 180480.478538 
L 635.341491 180480.478538 
L 636.515105 496.955287 
L 637.688719 496.955287 
L 638.862333 496.955287 
L 640.035946 496.955287 
L 641.20956 496.955287 
L 642.383174 496.955287 
L 643.556788 496.955287 
L 644.730402 496.955287 
L 645.904015 496.955287 
L 647.077629 496.955287 
L 648.251243 496.955287 
L 649.424857 496.955287 
L 650.59847 496.955287 
L 651.772084 496.955287 
L 652.945698 180480.478538 
L 654.119312 180480.478538 
L 655.292925 180480.478538 
L 656.466539 180480.478538 
L 657.640153 180480.478538 
L 658.813767 180480.478538 
L 659.98738 180480.478538 
L 661.160994 180480.478538 
L 662.334608 180480.478538 
L 663.508222 180480.478538 
L 664.681836 180480.478538 
L 665.855449 180480.478538 
L 667.029063 180480.478538 
L 668.202677 180480.478538 
L 669.376291 180480.478538 
L 670.549904 180480.478538 
L 671.723518 180480.478538 
L 672.897132 180480.478538 
L 674.070746 180480.478538 
L 675.244359 180480.478538 
L 676.417973 180480.478538 
L 677.591587 180480.478538 
L 678.765201 180480.478538 
L 679.938815 180480.478538 
L 681.112428 180480.478538 
L 682.286042 180480.478538 
L 683.459656 180480.478538 
L 684.63327 180480.478538 
L 685.806883 180480.478538 
L 686.980497 180480.478538 
L 688.154111 496.955287 
L 689.327725 496.955287 
L 690.501338 496.955287 
L 691.674952 496.955287 
L 692.848566 469.071167 
L 694.02218 427.587732 
L 695.195793 427.587732 
L 696.369407 469.071167 
L 697.543021 469.071167 
L 698.716635 469.071167 
L 699.890249 469.071167 
L 701.063862 469.071167 
L 702.237476 469.071167 
L 703.41109 469.071167 
L 704.584704 469.071167 
L 705.758317 469.071167 
L 706.931931 469.071167 
L 708.105545 469.071167 
L 709.279159 469.071167 
L 710.452772 496.955287 
L 711.626386 496.955287 
L 712.8 496.955287 
L 712.8 180480.478538 
L 712.8 180480.478538 
L 711.626386 180480.478538 
L 710.452772 180480.478538 
L 709.279159 180480.478538 
L 708.105545 180480.478538 
L 706.931931 180480.478538 
L 705.758317 180480.478538 
L 704.584704 180480.478538 
L 703.41109 180480.478538 
L 702.237476 180480.478538 
L 701.063862 180480.478538 
L 699.890249 180480.478538 
L 698.716635 180480.478538 
L 697.543021 180480.478538 
L 696.369407 180480.478538 
L 695.195793 180480.478538 
L 694.02218 180480.478538 
L 692.848566 180480.478538 
L 691.674952 180480.478538 
L 690.501338 180480.478538 
L 689.327725 180480.478538 
L 688.154111 180480.478538 
L 686.980497 180480.478538 
L 685.806883 180480.478538 
L 684.63327 180480.478538 
L 683.459656 180480.478538 
L 682.286042 180480.478538 
L 681.112428 180480.478538 
L 679.938815 180480.478538 
L 678.765201 180480.478538 
L 677.591587 180480.478538 
L 676.417973 180480.478538 
L 675.244359 180480.478538 
L 674.070746 180480.478538 
L 672.897132 180480.478538 
L 671.723518 180480.478538 
L 670.549904 180480.478538 
L 669.376291 180480.478538 
L 668.202677 180480.478538 
L 667.029063 180480.478538 
L 665.855449 180480.478538 
L 664.681836 180480.478538 
L 663.508222 180480.478538 
L 662.334608 180480.478538 
L 661.160994 180480.478538 
L 659.98738 180480.478538 
L 658.813767 180480.478538 
L 657.640153 180480.478538 
L 656.466539 180480.478538 
L 655.292925 180480.478538 
L 654.119312 180480.478538 
L 652.945698 180480.478538 
L 651.772084 180480.478538 
L 650.59847 180480.478538 
L 649.424857 180480.478538 
L 648.251243 180480.478538 
L 647.077629 180480.478538 
L 645.904015 180480.478538 
L 644.730402 180480.478538 
L 643.556788 180480.478538 
L 642.383174 180480.478538 
L 641.20956 180480.478538 
L 640.035946 180480.478538 
L 638.862333 180480.478538 
L 637.688719 180480.478538 
L 636.515105 180480.478538 
L 635.341491 180480.478538 
L 634.167878 180480.478538 
L 632.994264 180480.478538 
L 631.82065 180480.478538 
L 630.647036 180480.478538 
L 629.473423 180480.478538 
L 628.299809 180480.478538 
L 627.126195 180480.478538 
L 625.952581 180480.478538 
L 624.778967 180480.478538 
L 623.605354 180480.478538 
L 622.43174 180480.478538 
L 621.258126 180480.478538 
L 620.084512 180480.478538 
L 618.910899 180480.478538 
L 617.737285 180480.478538 
L 616.563671 180480.478538 
L 615.390057 180480.478538 
L 614.216444 180480.478538 
L 613.04283 180480.478538 
L 611.869216 180480.478538 
L 610.695602 180480.478538 
L 609.521989 180480.478538 
L 608.348375 180480.478538 
L 607.174761 180480.478538 
L 606.001147 180480.478538 
L 604.827533 180480.478538 
L 603.65392 180480.478538 
L 602.480306 180480.478538 
L 601.306692 180480.478538 
L 600.133078 180480.478538 
L 598.959465 180480.478538 
L 597.785851 180480.478538 
L 596.612237 180480.478538 
L 595.438623 180480.478538 
L 594.26501 180480.478538 
L 593.091396 180480.478538 
L 591.917782 180480.478538 
L 590.744168 180480.478538 
L 589.570554 180480.478538 
L 588.396941 180480.478538 
L 587.223327 180480.478538 
L 586.049713 180480.478538 
L 584.876099 180480.478538 
L 583.702486 180480.478538 
L 582.528872 180480.478538 
L 581.355258 180480.478538 
L 580.181644 180480.478538 
L 579.008031 180480.478538 
L 577.834417 180480.478538 
L 576.660803 180480.478538 
L 575.487189 180480.478538 
L 574.313576 180480.478538 
L 573.139962 180480.478538 
L 571.966348 180480.478538 
L 570.792734 180480.478538 
L 569.61912 180480.478538 
L 568.445507 180480.478538 
L 567.271893 180480.478538 
L 566.098279 180480.478538 
L 564.924665 180480.478538 
L 563.751052 180480.478538 
L 562.577438 180480.478538 
L 561.403824 180480.478538 
L 560.23021 180480.478538 
L 559.056597 180480.478538 
L 557.882983 180480.478538 
L 556.709369 180480.478538 
L 555.535755 180480.478538 
L 554.362141 180480.478538 
L 553.188528 180480.478538 
L 552.014914 180480.478538 
L 550.8413 180480.478538 
L 549.667686 180480.478538 
L 548.494073 180480.478538 
L 547.320459 180480.478538 
L 546.146845 180480.478538 
L 544.973231 180480.478538 
L 543.799618 180480.478538 
L 542.626004 180480.478538 
L 541.45239 180480.478538 
L 540.278776 180480.478538 
L 539.105163 180480.478538 
L 537.931549 180480.478538 
L 536.757935 180480.478538 
L 535.584321 180480.478538 
L 534.410707 180480.478538 
L 533.237094 180480.478538 
L 532.06348 180480.478538 
L 530.889866 180480.478538 
L 529.716252 180480.478538 
L 528.542639 180480.478538 
L 527.369025 180480.478538 
L 526.195411 180480.478538 
L 525.021797 180480.478538 
L 523.848184 180480.478538 
L 522.67457 180480.478538 
L 521.500956 180480.478538 
L 520.327342 180480.478538 
L 519.153728 180480.478538 
L 517.980115 180480.478538 
L 516.806501 180480.478538 
L 515.632887 180480.478538 
L 514.459273 180480.478538 
L 513.28566 180480.478538 
L 512.112046 180480.478538 
L 510.938432 180480.478538 
L 509.764818 180480.478538 
L 508.591205 180480.478538 
L 507.417591 180480.478538 
L 506.243977 180480.478538 
L 505.070363 180480.478538 
L 503.89675 180480.478538 
L 502.723136 180480.478538 
L 501.549522 180480.478538 
L 500.375908 180480.478538 
L 499.202294 180480.478538 
L 498.028681 180480.478538 
L 496.855067 180480.478538 
L 495.681453 180480.478538 
L 494.507839 180480.478538 
L 493.334226 180480.478538 
L 492.160612 180480.478538 
L 490.986998 180480.478538 
L 489.813384 180480.478538 
L 488.639771 180480.478538 
L 487.466157 180480.478538 
L 486.292543 180480.478538 
L 485.118929 180480.478538 
L 483.945315 180480.478538 
L 482.771702 180480.478538 
L 481.598088 180480.478538 
L 480.424474 180480.478538 
L 479.25086 180480.478538 
L 478.077247 180480.478538 
L 476.903633 180480.478538 
L 475.730019 180480.478538 
L 474.556405 180480.478538 
L 473.382792 180480.478538 
L 472.209178 180480.478538 
L 471.035564 180480.478538 
L 469.86195 180480.478538 
L 468.688337 180480.478538 
L 467.514723 180480.478538 
L 466.341109 180480.478538 
L 465.167495 180480.478538 
L 463.993881 180480.478538 
L 462.820268 180480.478538 
L 461.646654 180480.478538 
L 460.47304 180480.478538 
L 459.299426 180480.478538 
L 458.125813 180480.478538 
L 456.952199 180480.478538 
L 455.778585 180480.478538 
L 454.604971 180480.478538 
L 453.431358 180480.478538 
L 452.257744 180480.478538 
L 451.08413 180480.478538 
L 449.910516 180480.478538 
L 448.736902 180480.478538 
L 447.563289 180480.478538 
L 446.389675 180480.478538 
L 445.216061 180480.478538 
L 444.042447 180480.478538 
L 442.868834 180480.478538 
L 441.69522 180480.478538 
L 440.521606 180480.478538 
L 439.347992 180480.478538 
L 438.174379 180480.478538 
L 437.000765 180480.478538 
L 435.827151 180480.478538 
L 434.653537 180480.478538 
L 433.479924 180480.478538 
L 432.30631 180480.478538 
L 431.132696 180480.478538 
L 429.959082 180480.478538 
L 428.785468 180480.478538 
L 427.611855 180480.478538 
L 426.438241 180480.478538 
L 425.264627 180480.478538 
L 424.091013 180480.478538 
L 422.9174 180480.478538 
L 421.743786 180480.478538 
L 420.570172 180480.478538 
L 419.396558 180480.478538 
L 418.222945 180480.478538 
L 417.049331 180480.478538 
L 415.875717 180480.478538 
L 414.702103 180480.478538 
L 413.528489 180480.478538 
L 412.354876 180480.478538 
L 411.181262 180480.478538 
L 410.007648 180480.478538 
L 408.834034 180480.478538 
L 407.660421 180480.478538 
L 406.486807 180480.478538 
L 405.313193 180480.478538 
L 404.139579 180480.478538 
L 402.965966 180480.478538 
L 401.792352 180480.478538 
L 400.618738 180480.478538 
L 399.445124 180480.478538 
L 398.271511 180480.478538 
L 397.097897 180480.478538 
L 395.924283 180480.478538 
L 394.750669 180480.478538 
L 393.577055 180480.478538 
L 392.403442 180480.478538 
L 391.229828 180480.478538 
L 390.056214 180480.478538 
L 388.8826 180480.478538 
L 387.708987 180480.478538 
L 386.535373 180480.478538 
L 385.361759 180480.478538 
L 384.188145 180480.478538 
L 383.014532 180480.478538 
L 381.840918 180480.478538 
L 380.667304 180480.478538 
L 379.49369 180480.478538 
L 378.320076 180480.478538 
L 377.146463 180480.478538 
L 375.972849 180480.478538 
L 374.799235 180480.478538 
L 373.625621 180480.478538 
L 372.452008 180480.478538 
L 371.278394 180480.478538 
L 370.10478 180480.478538 
L 368.931166 180480.478538 
L 367.757553 180480.478538 
L 366.583939 180480.478538 
L 365.410325 180480.478538 
L 364.236711 180480.478538 
L 363.063098 180480.478538 
L 361.889484 180480.478538 
L 360.71587 180480.478538 
L 359.542256 180480.478538 
L 358.368642 180480.478538 
L 357.195029 180480.478538 
L 356.021415 180480.478538 
L 354.847801 180480.478538 
L 353.674187 180480.478538 
L 352.500574 180480.478538 
L 351.32696 180480.478538 
L 350.153346 180480.478538 
L 348.979732 180480.478538 
L 347.806119 180480.478538 
L 346.632505 180480.478538 
L 345.458891 180480.478538 
L 344.285277 180480.478538 
L 343.111663 180480.478538 
L 341.93805 180480.478538 
L 340.764436 180480.478538 
L 339.590822 180480.478538 
L 338.417208 180480.478538 
L 337.243595 180480.478538 
L 336.069981 180480.478538 
L 334.896367 180480.478538 
L 333.722753 180480.478538 
L 332.54914 180480.478538 
L 331.375526 180480.478538 
L 330.201912 180480.478538 
L 329.028298 180480.478538 
L 327.854685 180480.478538 
L 326.681071 180480.478538 
L 325.507457 180480.478538 
L 324.333843 180480.478538 
L 323.160229 180480.478538 
L 321.986616 180480.478538 
L 320.813002 180480.478538 
L 319.639388 180480.478538 
L 318.465774 180480.478538 
L 317.292161 180480.478538 
L 316.118547 180480.478538 
L 314.944933 180480.478538 
L 313.771319 180480.478538 
L 312.597706 180480.478538 
L 311.424092 180480.478538 
L 310.250478 180480.478538 
L 309.076864 180480.478538 
L 307.90325 180480.478538 
L 306.729637 180480.478538 
L 305.556023 180480.478538 
L 304.382409 180480.478538 
L 303.208795 180480.478538 
L 302.035182 180480.478538 
L 300.861568 180480.478538 
L 299.687954 180480.478538 
L 298.51434 180480.478538 
L 297.340727 180480.478538 
L 296.167113 180480.478538 
L 294.993499 180480.478538 
L 293.819885 180480.478538 
L 292.646272 180480.478538 
L 291.472658 180480.478538 
L 290.299044 180480.478538 
L 289.12543 180480.478538 
L 287.951816 180480.478538 
L 286.778203 180480.478538 
L 285.604589 180480.478538 
L 284.430975 180480.478538 
L 283.257361 180480.478538 
L 282.083748 180480.478538 
L 280.910134 180480.478538 
L 279.73652 180480.478538 
L 278.562906 180480.478538 
L 277.389293 180480.478538 
L 276.215679 180480.478538 
L 275.042065 180480.478538 
L 273.868451 180480.478538 
L 272.694837 180480.478538 
L 271.521224 180480.478538 
L 270.34761 180480.478538 
L 269.173996 180480.478538 
L 268.000382 180480.478538 
L 266.826769 180480.478538 
L 265.653155 180480.478538 
L 264.479541 180480.478538 
L 263.305927 180480.478538 
L 262.132314 180480.478538 
L 260.9587 180480.478538 
L 259.785086 180480.478538 
L 258.611472 180480.478538 
L 257.437859 180480.478538 
L 256.264245 180480.478538 
L 255.090631 180480.478538 
L 253.917017 180480.478538 
L 252.743403 180480.478538 
L 251.56979 180480.478538 
L 250.396176 180480.478538 
L 249.222562 180480.478538 
L 248.048948 180480.478538 
L 246.875335 180480.478538 
L 245.701721 180480.478538 
L 244.528107 180480.478538 
L 243.354493 180480.478538 
L 242.18088 180480.478538 
L 241.007266 180480.478538 
L 239.833652 180480.478538 
L 238.660038 180480.478538 
L 237.486424 180480.478538 
L 236.312811 180480.478538 
L 235.139197 180480.478538 
L 233.965583 180480.478538 
L 232.791969 180480.478538 
L 231.618356 180480.478538 
L 230.444742 180480.478538 
L 229.271128 180480.478538 
L 228.097514 180480.478538 
L 226.923901 180480.478538 
L 225.750287 180480.478538 
L 224.576673 180480.478538 
L 223.403059 180480.478538 
L 222.229446 180480.478538 
L 221.055832 180480.478538 
L 219.882218 180480.478538 
L 218.708604 180480.478538 
L 217.53499 180480.478538 
L 216.361377 180480.478538 
L 215.187763 180480.478538 
L 214.014149 180480.478538 
L 212.840535 180480.478538 
L 211.666922 180480.478538 
L 210.493308 180480.478538 
L 209.319694 180480.478538 
L 208.14608 180480.478538 
L 206.972467 180480.478538 
L 205.798853 180480.478538 
L 204.625239 180480.478538 
L 203.451625 180480.478538 
L 202.278011 180480.478538 
L 201.104398 180480.478538 
L 199.930784 180480.478538 
L 198.75717 180480.478538 
L 197.583556 180480.478538 
L 196.409943 180480.478538 
L 195.236329 180480.478538 
L 194.062715 180480.478538 
L 192.889101 180480.478538 
L 191.715488 180480.478538 
L 190.541874 180480.478538 
L 189.36826 180480.478538 
L 188.194646 180480.478538 
L 187.021033 180480.478538 
L 185.847419 180480.478538 
L 184.673805 180480.478538 
L 183.500191 180480.478538 
L 182.326577 180480.478538 
L 181.152964 180480.478538 
L 179.97935 180480.478538 
L 178.805736 180480.478538 
L 177.632122 180480.478538 
L 176.458509 180480.478538 
L 175.284895 180480.478538 
L 174.111281 180480.478538 
L 172.937667 180480.478538 
L 171.764054 180480.478538 
L 170.59044 180480.478538 
L 169.416826 180480.478538 
L 168.243212 180480.478538 
L 167.069598 180480.478538 
L 165.895985 180480.478538 
L 164.722371 180480.478538 
L 163.548757 180480.478538 
L 162.375143 180480.478538 
L 161.20153 180480.478538 
L 160.027916 180480.478538 
L 158.854302 180480.478538 
L 157.680688 180480.478538 
L 156.507075 180480.478538 
L 155.333461 180480.478538 
L 154.159847 180480.478538 
L 152.986233 180480.478538 
L 151.81262 180480.478538 
L 150.639006 180480.478538 
L 149.465392 180480.478538 
L 148.291778 180480.478538 
L 147.118164 180480.478538 
L 145.944551 180480.478538 
L 144.770937 180480.478538 
L 143.597323 180480.478538 
L 142.423709 180480.478538 
L 141.250096 180480.478538 
L 140.076482 180480.478538 
L 138.902868 180480.478538 
L 137.729254 180480.478538 
L 136.555641 180480.478538 
L 135.382027 180480.478538 
L 134.208413 180480.478538 
L 133.034799 180480.478538 
L 131.861185 180480.478538 
L 130.687572 180480.478538 
L 129.513958 180480.478538 
L 128.340344 180480.478538 
L 127.16673 180480.478538 
L 125.993117 180480.478538 
L 124.819503 180480.478538 
L 123.645889 180480.478538 
L 122.472275 180480.478538 
L 121.298662 180480.478538 
L 120.125048 180480.478538 
L 118.951434 180480.478538 
L 117.77782 180480.478538 
L 116.604207 180480.478538 
L 115.430593 180480.478538 
L 114.256979 180480.478538 
L 113.083365 180480.478538 
L 111.909751 180480.478538 
L 110.736138 180480.478538 
L 109.562524 180480.478538 
L 108.38891 180480.478538 
L 107.215296 180480.478538 
L 106.041683 180480.478538 
L 104.868069 180480.478538 
L 103.694455 180480.478538 
L 102.520841 180480.478538 
L 101.347228 180480.478538 
L 100.173614 180480.478538 
L 99 180480.478538 
z
" style="fill:#ff8080;fill-opacity:0.5;stroke:#ff8080;stroke-opacity:0.5;"/>
   </g>
   <g id="matplotlib.axis_1">
    <g id="xtick_1">
     <g id="line2d_1">
      <path clip-path="url(#p68e2955192)" d="M 99 544.68 
L 99 73.44 
" style="fill:none;stroke:#b0b0b0;stroke-linecap:square;stroke-width:0.8;"/>
     </g>
     <g id="line2d_2">
      <defs>
       <path d="M 0 0 
L 0 3.5 
" id="m4abed1d830" style="stroke:#000000;stroke-width:0.8;"/>
      </defs>
      <g>
       <use style="stroke:#000000;stroke-width:0.8;" x="99" xlink:href="#m4abed1d830" y="544.68"/>
      </g>
     </g>
    </g>
    <g id="xtick_2">
     <g id="line2d_3">
      <path clip-path="url(#p68e2955192)" d="M 120.125048 544.68 
L 120.125048 73.44 
" style="fill:none;stroke:#b0b0b0;stroke-linecap:square;stroke-width:0.8;"/>
     </g>
     <g id="line2d_4">
      <g>
       <use style="stroke:#000000;stroke-width:0.8;" x="120.125048" xlink:href="#m4abed1d830" y="544.68"/>
      </g>
     </g>
     <g id="text_1">
      <!-- Apr -->
      <g transform="translate(111.475048 559.278437)scale(0.1 -0.1)">
       <defs>
        <path d="M 2188 4044 
L 1331 1722 
L 3047 1722 
L 2188 4044 
z
M 1831 4666 
L 2547 4666 
L 4325 0 
L 3669 0 
L 3244 1197 
L 1141 1197 
L 716 0 
L 50 0 
L 1831 4666 
z
" id="DejaVuSans-41" transform="scale(0.015625)"/>
        <path d="M 1159 525 
L 1159 -1331 
L 581 -1331 
L 581 3500 
L 1159 3500 
L 1159 2969 
Q 1341 3281 1617 3432 
Q 1894 3584 2278 3584 
Q 2916 3584 3314 3078 
Q 3713 2572 3713 1747 
Q 3713 922 3314 415 
Q 2916 -91 2278 -91 
Q 1894 -91 1617 61 
Q 1341 213 1159 525 
z
M 3116 1747 
Q 3116 2381 2855 2742 
Q 2594 3103 2138 3103 
Q 1681 3103 1420 2742 
Q 1159 2381 1159 1747 
Q 1159 1113 1420 752 
Q 1681 391 2138 391 
Q 2594 391 2855 752 
Q 3116 1113 3116 1747 
z
" id="DejaVuSans-70" transform="scale(0.015625)"/>
        <path d="M 2631 2963 
Q 2534 3019 2420 3045 
Q 2306 3072 2169 3072 
Q 1681 3072 1420 2755 
Q 1159 2438 1159 1844 
L 1159 0 
L 581 0 
L 581 3500 
L 1159 3500 
L 1159 2956 
Q 1341 3275 1631 3429 
Q 1922 3584 2338 3584 
Q 2397 3584 2469 3576 
Q 2541 3569 2628 3553 
L 2631 2963 
z
" id="DejaVuSans-72" transform="scale(0.015625)"/>
       </defs>
       <use xlink:href="#DejaVuSans-41"/>
       <use x="68.408203" xlink:href="#DejaVuSans-70"/>
       <use x="131.884766" xlink:href="#DejaVuSans-72"/>
      </g>
     </g>
    </g>
    <g id="xtick_3">
     <g id="line2d_5">
      <path clip-path="url(#p68e2955192)" d="M 226.923901 544.68 
L 226.923901 73.44 
" style="fill:none;stroke:#b0b0b0;stroke-linecap:square;stroke-width:0.8;"/>
     </g>
     <g id="line2d_6">
      <g>
       <use style="stroke:#000000;stroke-width:0.8;" x="226.923901" xlink:href="#m4abed1d830" y="544.68"/>
      </g>
     </g>
     <g id="text_2">
      <!-- Jul -->
      <g transform="translate(220.891088 559.278437)scale(0.1 -0.1)">
       <defs>
        <path d="M 628 4666 
L 1259 4666 
L 1259 325 
Q 1259 -519 939 -900 
Q 619 -1281 -91 -1281 
L -331 -1281 
L -331 -750 
L -134 -750 
Q 284 -750 456 -515 
Q 628 -281 628 325 
L 628 4666 
z
" id="DejaVuSans-4a" transform="scale(0.015625)"/>
        <path d="M 544 1381 
L 544 3500 
L 1119 3500 
L 1119 1403 
Q 1119 906 1312 657 
Q 1506 409 1894 409 
Q 2359 409 2629 706 
Q 2900 1003 2900 1516 
L 2900 3500 
L 3475 3500 
L 3475 0 
L 2900 0 
L 2900 538 
Q 2691 219 2414 64 
Q 2138 -91 1772 -91 
Q 1169 -91 856 284 
Q 544 659 544 1381 
z
M 1991 3584 
L 1991 3584 
z
" id="DejaVuSans-75" transform="scale(0.015625)"/>
        <path d="M 603 4863 
L 1178 4863 
L 1178 0 
L 603 0 
L 603 4863 
z
" id="DejaVuSans-6c" transform="scale(0.015625)"/>
       </defs>
       <use xlink:href="#DejaVuSans-4a"/>
       <use x="29.492188" xlink:href="#DejaVuSans-75"/>
       <use x="92.871094" xlink:href="#DejaVuSans-6c"/>
      </g>
     </g>
    </g>
    <g id="xtick_4">
     <g id="line2d_7">
      <path clip-path="url(#p68e2955192)" d="M 334.896367 544.68 
L 334.896367 73.44 
" style="fill:none;stroke:#b0b0b0;stroke-linecap:square;stroke-width:0.8;"/>
     </g>
     <g id="line2d_8">
      <g>
       <use style="stroke:#000000;stroke-width:0.8;" x="334.896367" xlink:href="#m4abed1d830" y="544.68"/>
      </g>
     </g>
     <g id="text_3">
      <!-- Oct -->
      <g transform="translate(326.251055 559.278437)scale(0.1 -0.1)">
       <defs>
        <path d="M 2522 4238 
Q 1834 4238 1429 3725 
Q 1025 3213 1025 2328 
Q 1025 1447 1429 934 
Q 1834 422 2522 422 
Q 3209 422 3611 934 
Q 4013 1447 4013 2328 
Q 4013 3213 3611 3725 
Q 3209 4238 2522 4238 
z
M 2522 4750 
Q 3503 4750 4090 4092 
Q 4678 3434 4678 2328 
Q 4678 1225 4090 567 
Q 3503 -91 2522 -91 
Q 1538 -91 948 565 
Q 359 1222 359 2328 
Q 359 3434 948 4092 
Q 1538 4750 2522 4750 
z
" id="DejaVuSans-4f" transform="scale(0.015625)"/>
        <path d="M 3122 3366 
L 3122 2828 
Q 2878 2963 2633 3030 
Q 2388 3097 2138 3097 
Q 1578 3097 1268 2742 
Q 959 2388 959 1747 
Q 959 1106 1268 751 
Q 1578 397 2138 397 
Q 2388 397 2633 464 
Q 2878 531 3122 666 
L 3122 134 
Q 2881 22 2623 -34 
Q 2366 -91 2075 -91 
Q 1284 -91 818 406 
Q 353 903 353 1747 
Q 353 2603 823 3093 
Q 1294 3584 2113 3584 
Q 2378 3584 2631 3529 
Q 2884 3475 3122 3366 
z
" id="DejaVuSans-63" transform="scale(0.015625)"/>
        <path d="M 1172 4494 
L 1172 3500 
L 2356 3500 
L 2356 3053 
L 1172 3053 
L 1172 1153 
Q 1172 725 1289 603 
Q 1406 481 1766 481 
L 2356 481 
L 2356 0 
L 1766 0 
Q 1100 0 847 248 
Q 594 497 594 1153 
L 594 3053 
L 172 3053 
L 172 3500 
L 594 3500 
L 594 4494 
L 1172 4494 
z
" id="DejaVuSans-74" transform="scale(0.015625)"/>
       </defs>
       <use xlink:href="#DejaVuSans-4f"/>
       <use x="78.710938" xlink:href="#DejaVuSans-63"/>
       <use x="133.691406" xlink:href="#DejaVuSans-74"/>
      </g>
     </g>
    </g>
    <g id="xtick_5">
     <g id="line2d_9">
      <path clip-path="url(#p68e2955192)" d="M 442.868834 544.68 
L 442.868834 73.44 
" style="fill:none;stroke:#b0b0b0;stroke-linecap:square;stroke-width:0.8;"/>
     </g>
     <g id="line2d_10">
      <g>
       <use style="stroke:#000000;stroke-width:0.8;" x="442.868834" xlink:href="#m4abed1d830" y="544.68"/>
      </g>
     </g>
     <g id="text_4">
      <!-- Jan -->
      <g transform="translate(435.161021 559.278437)scale(0.1 -0.1)">
       <defs>
        <path d="M 2194 1759 
Q 1497 1759 1228 1600 
Q 959 1441 959 1056 
Q 959 750 1161 570 
Q 1363 391 1709 391 
Q 2188 391 2477 730 
Q 2766 1069 2766 1631 
L 2766 1759 
L 2194 1759 
z
M 3341 1997 
L 3341 0 
L 2766 0 
L 2766 531 
Q 2569 213 2275 61 
Q 1981 -91 1556 -91 
Q 1019 -91 701 211 
Q 384 513 384 1019 
Q 384 1609 779 1909 
Q 1175 2209 1959 2209 
L 2766 2209 
L 2766 2266 
Q 2766 2663 2505 2880 
Q 2244 3097 1772 3097 
Q 1472 3097 1187 3025 
Q 903 2953 641 2809 
L 641 3341 
Q 956 3463 1253 3523 
Q 1550 3584 1831 3584 
Q 2591 3584 2966 3190 
Q 3341 2797 3341 1997 
z
" id="DejaVuSans-61" transform="scale(0.015625)"/>
        <path d="M 3513 2113 
L 3513 0 
L 2938 0 
L 2938 2094 
Q 2938 2591 2744 2837 
Q 2550 3084 2163 3084 
Q 1697 3084 1428 2787 
Q 1159 2491 1159 1978 
L 1159 0 
L 581 0 
L 581 3500 
L 1159 3500 
L 1159 2956 
Q 1366 3272 1645 3428 
Q 1925 3584 2291 3584 
Q 2894 3584 3203 3211 
Q 3513 2838 3513 2113 
z
" id="DejaVuSans-6e" transform="scale(0.015625)"/>
       </defs>
       <use xlink:href="#DejaVuSans-4a"/>
       <use x="29.492188" xlink:href="#DejaVuSans-61"/>
       <use x="90.771484" xlink:href="#DejaVuSans-6e"/>
      </g>
      <!-- 2021 -->
      <g transform="translate(430.143834 570.47625)scale(0.1 -0.1)">
       <defs>
        <path d="M 1228 531 
L 3431 531 
L 3431 0 
L 469 0 
L 469 531 
Q 828 903 1448 1529 
Q 2069 2156 2228 2338 
Q 2531 2678 2651 2914 
Q 2772 3150 2772 3378 
Q 2772 3750 2511 3984 
Q 2250 4219 1831 4219 
Q 1534 4219 1204 4116 
Q 875 4013 500 3803 
L 500 4441 
Q 881 4594 1212 4672 
Q 1544 4750 1819 4750 
Q 2544 4750 2975 4387 
Q 3406 4025 3406 3419 
Q 3406 3131 3298 2873 
Q 3191 2616 2906 2266 
Q 2828 2175 2409 1742 
Q 1991 1309 1228 531 
z
" id="DejaVuSans-32" transform="scale(0.015625)"/>
        <path d="M 2034 4250 
Q 1547 4250 1301 3770 
Q 1056 3291 1056 2328 
Q 1056 1369 1301 889 
Q 1547 409 2034 409 
Q 2525 409 2770 889 
Q 3016 1369 3016 2328 
Q 3016 3291 2770 3770 
Q 2525 4250 2034 4250 
z
M 2034 4750 
Q 2819 4750 3233 4129 
Q 3647 3509 3647 2328 
Q 3647 1150 3233 529 
Q 2819 -91 2034 -91 
Q 1250 -91 836 529 
Q 422 1150 422 2328 
Q 422 3509 836 4129 
Q 1250 4750 2034 4750 
z
" id="DejaVuSans-30" transform="scale(0.015625)"/>
        <path d="M 794 531 
L 1825 531 
L 1825 4091 
L 703 3866 
L 703 4441 
L 1819 4666 
L 2450 4666 
L 2450 531 
L 3481 531 
L 3481 0 
L 794 0 
L 794 531 
z
" id="DejaVuSans-31" transform="scale(0.015625)"/>
       </defs>
       <use xlink:href="#DejaVuSans-32"/>
       <use x="63.623047" xlink:href="#DejaVuSans-30"/>
       <use x="127.246094" xlink:href="#DejaVuSans-32"/>
       <use x="190.869141" xlink:href="#DejaVuSans-31"/>
      </g>
     </g>
    </g>
    <g id="xtick_6">
     <g id="line2d_11">
      <path clip-path="url(#p68e2955192)" d="M 548.494073 544.68 
L 548.494073 73.44 
" style="fill:none;stroke:#b0b0b0;stroke-linecap:square;stroke-width:0.8;"/>
     </g>
     <g id="line2d_12">
      <g>
       <use style="stroke:#000000;stroke-width:0.8;" x="548.494073" xlink:href="#m4abed1d830" y="544.68"/>
      </g>
     </g>
     <g id="text_5">
      <!-- Apr -->
      <g transform="translate(539.844073 559.278437)scale(0.1 -0.1)">
       <use xlink:href="#DejaVuSans-41"/>
       <use x="68.408203" xlink:href="#DejaVuSans-70"/>
       <use x="131.884766" xlink:href="#DejaVuSans-72"/>
      </g>
     </g>
    </g>
    <g id="xtick_7">
     <g id="line2d_13">
      <path clip-path="url(#p68e2955192)" d="M 655.292925 544.68 
L 655.292925 73.44 
" style="fill:none;stroke:#b0b0b0;stroke-linecap:square;stroke-width:0.8;"/>
     </g>
     <g id="line2d_14">
      <g>
       <use style="stroke:#000000;stroke-width:0.8;" x="655.292925" xlink:href="#m4abed1d830" y="544.68"/>
      </g>
     </g>
     <g id="text_6">
      <!-- Jul -->
      <g transform="translate(649.260113 559.278437)scale(0.1 -0.1)">
       <use xlink:href="#DejaVuSans-4a"/>
       <use x="29.492188" xlink:href="#DejaVuSans-75"/>
       <use x="92.871094" xlink:href="#DejaVuSans-6c"/>
      </g>
     </g>
    </g>
    <g id="xtick_8">
     <g id="line2d_15">
      <path clip-path="url(#p68e2955192)" d="M 712.8 544.68 
L 712.8 73.44 
" style="fill:none;stroke:#b0b0b0;stroke-linecap:square;stroke-width:0.8;"/>
     </g>
     <g id="line2d_16">
      <g>
       <use style="stroke:#000000;stroke-width:0.8;" x="712.8" xlink:href="#m4abed1d830" y="544.68"/>
      </g>
     </g>
    </g>
    <g id="xtick_9">
     <g id="line2d_17">
      <defs>
       <path d="M 0 0 
L 0 2 
" id="mbe9820739d" style="stroke:#000000;stroke-width:0.6;"/>
      </defs>
      <g>
       <use style="stroke:#000000;stroke-width:0.6;" x="155.333461" xlink:href="#mbe9820739d" y="544.68"/>
      </g>
     </g>
    </g>
    <g id="xtick_10">
     <g id="line2d_18">
      <g>
       <use style="stroke:#000000;stroke-width:0.6;" x="191.715488" xlink:href="#mbe9820739d" y="544.68"/>
      </g>
     </g>
    </g>
    <g id="xtick_11">
     <g id="line2d_19">
      <g>
       <use style="stroke:#000000;stroke-width:0.6;" x="263.305927" xlink:href="#mbe9820739d" y="544.68"/>
      </g>
     </g>
    </g>
    <g id="xtick_12">
     <g id="line2d_20">
      <g>
       <use style="stroke:#000000;stroke-width:0.6;" x="299.687954" xlink:href="#mbe9820739d" y="544.68"/>
      </g>
     </g>
    </g>
    <g id="xtick_13">
     <g id="line2d_21">
      <g>
       <use style="stroke:#000000;stroke-width:0.6;" x="371.278394" xlink:href="#mbe9820739d" y="544.68"/>
      </g>
     </g>
    </g>
    <g id="xtick_14">
     <g id="line2d_22">
      <g>
       <use style="stroke:#000000;stroke-width:0.6;" x="406.486807" xlink:href="#mbe9820739d" y="544.68"/>
      </g>
     </g>
    </g>
    <g id="xtick_15">
     <g id="line2d_23">
      <g>
       <use style="stroke:#000000;stroke-width:0.6;" x="479.25086" xlink:href="#mbe9820739d" y="544.68"/>
      </g>
     </g>
    </g>
    <g id="xtick_16">
     <g id="line2d_24">
      <g>
       <use style="stroke:#000000;stroke-width:0.6;" x="512.112046" xlink:href="#mbe9820739d" y="544.68"/>
      </g>
     </g>
    </g>
    <g id="xtick_17">
     <g id="line2d_25">
      <g>
       <use style="stroke:#000000;stroke-width:0.6;" x="583.702486" xlink:href="#mbe9820739d" y="544.68"/>
      </g>
     </g>
    </g>
    <g id="xtick_18">
     <g id="line2d_26">
      <g>
       <use style="stroke:#000000;stroke-width:0.6;" x="620.084512" xlink:href="#mbe9820739d" y="544.68"/>
      </g>
     </g>
    </g>
    <g id="xtick_19">
     <g id="line2d_27">
      <g>
       <use style="stroke:#000000;stroke-width:0.6;" x="691.674952" xlink:href="#mbe9820739d" y="544.68"/>
      </g>
     </g>
    </g>
    <g id="text_7">
     <!-- Date -->
     <g transform="translate(393.949219 584.154375)scale(0.1 -0.1)">
      <defs>
       <path d="M 1259 4147 
L 1259 519 
L 2022 519 
Q 2988 519 3436 956 
Q 3884 1394 3884 2338 
Q 3884 3275 3436 3711 
Q 2988 4147 2022 4147 
L 1259 4147 
z
M 628 4666 
L 1925 4666 
Q 3281 4666 3915 4102 
Q 4550 3538 4550 2338 
Q 4550 1131 3912 565 
Q 3275 0 1925 0 
L 628 0 
L 628 4666 
z
" id="DejaVuSans-44" transform="scale(0.015625)"/>
       <path d="M 3597 1894 
L 3597 1613 
L 953 1613 
Q 991 1019 1311 708 
Q 1631 397 2203 397 
Q 2534 397 2845 478 
Q 3156 559 3463 722 
L 3463 178 
Q 3153 47 2828 -22 
Q 2503 -91 2169 -91 
Q 1331 -91 842 396 
Q 353 884 353 1716 
Q 353 2575 817 3079 
Q 1281 3584 2069 3584 
Q 2775 3584 3186 3129 
Q 3597 2675 3597 1894 
z
M 3022 2063 
Q 3016 2534 2758 2815 
Q 2500 3097 2075 3097 
Q 1594 3097 1305 2825 
Q 1016 2553 972 2059 
L 3022 2063 
z
" id="DejaVuSans-65" transform="scale(0.015625)"/>
      </defs>
      <use xlink:href="#DejaVuSans-44"/>
      <use x="77.001953" xlink:href="#DejaVuSans-61"/>
      <use x="138.28125" xlink:href="#DejaVuSans-74"/>
      <use x="177.490234" xlink:href="#DejaVuSans-65"/>
     </g>
    </g>
   </g>
   <g id="matplotlib.axis_2">
    <g id="ytick_1">
     <g id="line2d_28">
      <path clip-path="url(#p68e2955192)" d="M 99 469.071167 
L 712.8 469.071167 
" style="fill:none;stroke:#b0b0b0;stroke-linecap:square;stroke-width:0.8;"/>
     </g>
     <g id="line2d_29">
      <defs>
       <path d="M 0 0 
L -3.5 0 
" id="me91a084207" style="stroke:#000000;stroke-width:0.8;"/>
      </defs>
      <g>
       <use style="stroke:#000000;stroke-width:0.8;" x="99" xlink:href="#me91a084207" y="469.071167"/>
      </g>
     </g>
     <g id="text_8">
      <!-- $\mathdefault{10^{0}}$ -->
      <g transform="translate(74.4 472.870386)scale(0.1 -0.1)">
       <use transform="translate(0 0.765625)" xlink:href="#DejaVuSans-31"/>
       <use transform="translate(63.623047 0.765625)" xlink:href="#DejaVuSans-30"/>
       <use transform="translate(128.203125 39.046875)scale(0.7)" xlink:href="#DejaVuSans-30"/>
      </g>
     </g>
    </g>
    <g id="ytick_2">
     <g id="line2d_30">
      <path clip-path="url(#p68e2955192)" d="M 99 289.059759 
L 712.8 289.059759 
" style="fill:none;stroke:#b0b0b0;stroke-linecap:square;stroke-width:0.8;"/>
     </g>
     <g id="line2d_31">
      <g>
       <use style="stroke:#000000;stroke-width:0.8;" x="99" xlink:href="#me91a084207" y="289.059759"/>
      </g>
     </g>
     <g id="text_9">
      <!-- $\mathdefault{10^{1}}$ -->
      <g transform="translate(74.4 292.858978)scale(0.1 -0.1)">
       <use transform="translate(0 0.684375)" xlink:href="#DejaVuSans-31"/>
       <use transform="translate(63.623047 0.684375)" xlink:href="#DejaVuSans-30"/>
       <use transform="translate(128.203125 38.965625)scale(0.7)" xlink:href="#DejaVuSans-31"/>
      </g>
     </g>
    </g>
    <g id="ytick_3">
     <g id="line2d_32">
      <path clip-path="url(#p68e2955192)" d="M 99 109.048352 
L 712.8 109.048352 
" style="fill:none;stroke:#b0b0b0;stroke-linecap:square;stroke-width:0.8;"/>
     </g>
     <g id="line2d_33">
      <g>
       <use style="stroke:#000000;stroke-width:0.8;" x="99" xlink:href="#me91a084207" y="109.048352"/>
      </g>
     </g>
     <g id="text_10">
      <!-- $\mathdefault{10^{2}}$ -->
      <g transform="translate(74.4 112.847571)scale(0.1 -0.1)">
       <use transform="translate(0 0.765625)" xlink:href="#DejaVuSans-31"/>
       <use transform="translate(63.623047 0.765625)" xlink:href="#DejaVuSans-30"/>
       <use transform="translate(128.203125 39.046875)scale(0.7)" xlink:href="#DejaVuSans-32"/>
      </g>
     </g>
    </g>
    <g id="ytick_4">
     <g id="line2d_34">
      <path clip-path="url(#p68e2955192)" d="M 99 540.704908 
L 712.8 540.704908 
" style="fill:none;stroke:#b0b0b0;stroke-linecap:square;stroke-width:0.8;"/>
     </g>
     <g id="line2d_35">
      <defs>
       <path d="M 0 0 
L -2 0 
" id="m0cb60b688e" style="stroke:#000000;stroke-width:0.6;"/>
      </defs>
      <g>
       <use style="stroke:#000000;stroke-width:0.6;" x="99" xlink:href="#m0cb60b688e" y="540.704908"/>
      </g>
     </g>
    </g>
    <g id="ytick_5">
     <g id="line2d_36">
      <path clip-path="url(#p68e2955192)" d="M 99 523.26 
L 712.8 523.26 
" style="fill:none;stroke:#b0b0b0;stroke-linecap:square;stroke-width:0.8;"/>
     </g>
     <g id="line2d_37">
      <g>
       <use style="stroke:#000000;stroke-width:0.6;" x="99" xlink:href="#m0cb60b688e" y="523.26"/>
      </g>
     </g>
    </g>
    <g id="ytick_6">
     <g id="line2d_38">
      <path clip-path="url(#p68e2955192)" d="M 99 509.006472 
L 712.8 509.006472 
" style="fill:none;stroke:#b0b0b0;stroke-linecap:square;stroke-width:0.8;"/>
     </g>
     <g id="line2d_39">
      <g>
       <use style="stroke:#000000;stroke-width:0.6;" x="99" xlink:href="#m0cb60b688e" y="509.006472"/>
      </g>
     </g>
    </g>
    <g id="ytick_7">
     <g id="line2d_40">
      <path clip-path="url(#p68e2955192)" d="M 99 496.955287 
L 712.8 496.955287 
" style="fill:none;stroke:#b0b0b0;stroke-linecap:square;stroke-width:0.8;"/>
     </g>
     <g id="line2d_41">
      <g>
       <use style="stroke:#000000;stroke-width:0.6;" x="99" xlink:href="#m0cb60b688e" y="496.955287"/>
      </g>
     </g>
    </g>
    <g id="ytick_8">
     <g id="line2d_42">
      <path clip-path="url(#p68e2955192)" d="M 99 486.516075 
L 712.8 486.516075 
" style="fill:none;stroke:#b0b0b0;stroke-linecap:square;stroke-width:0.8;"/>
     </g>
     <g id="line2d_43">
      <g>
       <use style="stroke:#000000;stroke-width:0.6;" x="99" xlink:href="#m0cb60b688e" y="486.516075"/>
      </g>
     </g>
    </g>
    <g id="ytick_9">
     <g id="line2d_44">
      <path clip-path="url(#p68e2955192)" d="M 99 477.308037 
L 712.8 477.308037 
" style="fill:none;stroke:#b0b0b0;stroke-linecap:square;stroke-width:0.8;"/>
     </g>
     <g id="line2d_45">
      <g>
       <use style="stroke:#000000;stroke-width:0.6;" x="99" xlink:href="#m0cb60b688e" y="477.308037"/>
      </g>
     </g>
    </g>
    <g id="ytick_10">
     <g id="line2d_46">
      <path clip-path="url(#p68e2955192)" d="M 99 414.882334 
L 712.8 414.882334 
" style="fill:none;stroke:#b0b0b0;stroke-linecap:square;stroke-width:0.8;"/>
     </g>
     <g id="line2d_47">
      <g>
       <use style="stroke:#000000;stroke-width:0.6;" x="99" xlink:href="#m0cb60b688e" y="414.882334"/>
      </g>
     </g>
    </g>
    <g id="ytick_11">
     <g id="line2d_48">
      <path clip-path="url(#p68e2955192)" d="M 99 383.183898 
L 712.8 383.183898 
" style="fill:none;stroke:#b0b0b0;stroke-linecap:square;stroke-width:0.8;"/>
     </g>
     <g id="line2d_49">
      <g>
       <use style="stroke:#000000;stroke-width:0.6;" x="99" xlink:href="#m0cb60b688e" y="383.183898"/>
      </g>
     </g>
    </g>
    <g id="ytick_12">
     <g id="line2d_50">
      <path clip-path="url(#p68e2955192)" d="M 99 360.6935 
L 712.8 360.6935 
" style="fill:none;stroke:#b0b0b0;stroke-linecap:square;stroke-width:0.8;"/>
     </g>
     <g id="line2d_51">
      <g>
       <use style="stroke:#000000;stroke-width:0.6;" x="99" xlink:href="#m0cb60b688e" y="360.6935"/>
      </g>
     </g>
    </g>
    <g id="ytick_13">
     <g id="line2d_52">
      <path clip-path="url(#p68e2955192)" d="M 99 343.248593 
L 712.8 343.248593 
" style="fill:none;stroke:#b0b0b0;stroke-linecap:square;stroke-width:0.8;"/>
     </g>
     <g id="line2d_53">
      <g>
       <use style="stroke:#000000;stroke-width:0.6;" x="99" xlink:href="#m0cb60b688e" y="343.248593"/>
      </g>
     </g>
    </g>
    <g id="ytick_14">
     <g id="line2d_54">
      <path clip-path="url(#p68e2955192)" d="M 99 328.995065 
L 712.8 328.995065 
" style="fill:none;stroke:#b0b0b0;stroke-linecap:square;stroke-width:0.8;"/>
     </g>
     <g id="line2d_55">
      <g>
       <use style="stroke:#000000;stroke-width:0.6;" x="99" xlink:href="#m0cb60b688e" y="328.995065"/>
      </g>
     </g>
    </g>
    <g id="ytick_15">
     <g id="line2d_56">
      <path clip-path="url(#p68e2955192)" d="M 99 316.943879 
L 712.8 316.943879 
" style="fill:none;stroke:#b0b0b0;stroke-linecap:square;stroke-width:0.8;"/>
     </g>
     <g id="line2d_57">
      <g>
       <use style="stroke:#000000;stroke-width:0.6;" x="99" xlink:href="#m0cb60b688e" y="316.943879"/>
      </g>
     </g>
    </g>
    <g id="ytick_16">
     <g id="line2d_58">
      <path clip-path="url(#p68e2955192)" d="M 99 306.504667 
L 712.8 306.504667 
" style="fill:none;stroke:#b0b0b0;stroke-linecap:square;stroke-width:0.8;"/>
     </g>
     <g id="line2d_59">
      <g>
       <use style="stroke:#000000;stroke-width:0.6;" x="99" xlink:href="#m0cb60b688e" y="306.504667"/>
      </g>
     </g>
    </g>
    <g id="ytick_17">
     <g id="line2d_60">
      <path clip-path="url(#p68e2955192)" d="M 99 297.29663 
L 712.8 297.29663 
" style="fill:none;stroke:#b0b0b0;stroke-linecap:square;stroke-width:0.8;"/>
     </g>
     <g id="line2d_61">
      <g>
       <use style="stroke:#000000;stroke-width:0.6;" x="99" xlink:href="#m0cb60b688e" y="297.29663"/>
      </g>
     </g>
    </g>
    <g id="ytick_18">
     <g id="line2d_62">
      <path clip-path="url(#p68e2955192)" d="M 99 234.870926 
L 712.8 234.870926 
" style="fill:none;stroke:#b0b0b0;stroke-linecap:square;stroke-width:0.8;"/>
     </g>
     <g id="line2d_63">
      <g>
       <use style="stroke:#000000;stroke-width:0.6;" x="99" xlink:href="#m0cb60b688e" y="234.870926"/>
      </g>
     </g>
    </g>
    <g id="ytick_19">
     <g id="line2d_64">
      <path clip-path="url(#p68e2955192)" d="M 99 203.172491 
L 712.8 203.172491 
" style="fill:none;stroke:#b0b0b0;stroke-linecap:square;stroke-width:0.8;"/>
     </g>
     <g id="line2d_65">
      <g>
       <use style="stroke:#000000;stroke-width:0.6;" x="99" xlink:href="#m0cb60b688e" y="203.172491"/>
      </g>
     </g>
    </g>
    <g id="ytick_20">
     <g id="line2d_66">
      <path clip-path="url(#p68e2955192)" d="M 99 180.682093 
L 712.8 180.682093 
" style="fill:none;stroke:#b0b0b0;stroke-linecap:square;stroke-width:0.8;"/>
     </g>
     <g id="line2d_67">
      <g>
       <use style="stroke:#000000;stroke-width:0.6;" x="99" xlink:href="#m0cb60b688e" y="180.682093"/>
      </g>
     </g>
    </g>
    <g id="ytick_21">
     <g id="line2d_68">
      <path clip-path="url(#p68e2955192)" d="M 99 163.237185 
L 712.8 163.237185 
" style="fill:none;stroke:#b0b0b0;stroke-linecap:square;stroke-width:0.8;"/>
     </g>
     <g id="line2d_69">
      <g>
       <use style="stroke:#000000;stroke-width:0.6;" x="99" xlink:href="#m0cb60b688e" y="163.237185"/>
      </g>
     </g>
    </g>
    <g id="ytick_22">
     <g id="line2d_70">
      <path clip-path="url(#p68e2955192)" d="M 99 148.983658 
L 712.8 148.983658 
" style="fill:none;stroke:#b0b0b0;stroke-linecap:square;stroke-width:0.8;"/>
     </g>
     <g id="line2d_71">
      <g>
       <use style="stroke:#000000;stroke-width:0.6;" x="99" xlink:href="#m0cb60b688e" y="148.983658"/>
      </g>
     </g>
    </g>
    <g id="ytick_23">
     <g id="line2d_72">
      <path clip-path="url(#p68e2955192)" d="M 99 136.932472 
L 712.8 136.932472 
" style="fill:none;stroke:#b0b0b0;stroke-linecap:square;stroke-width:0.8;"/>
     </g>
     <g id="line2d_73">
      <g>
       <use style="stroke:#000000;stroke-width:0.6;" x="99" xlink:href="#m0cb60b688e" y="136.932472"/>
      </g>
     </g>
    </g>
    <g id="ytick_24">
     <g id="line2d_74">
      <path clip-path="url(#p68e2955192)" d="M 99 126.49326 
L 712.8 126.49326 
" style="fill:none;stroke:#b0b0b0;stroke-linecap:square;stroke-width:0.8;"/>
     </g>
     <g id="line2d_75">
      <g>
       <use style="stroke:#000000;stroke-width:0.6;" x="99" xlink:href="#m0cb60b688e" y="126.49326"/>
      </g>
     </g>
    </g>
    <g id="ytick_25">
     <g id="line2d_76">
      <path clip-path="url(#p68e2955192)" d="M 99 117.285222 
L 712.8 117.285222 
" style="fill:none;stroke:#b0b0b0;stroke-linecap:square;stroke-width:0.8;"/>
     </g>
     <g id="line2d_77">
      <g>
       <use style="stroke:#000000;stroke-width:0.6;" x="99" xlink:href="#m0cb60b688e" y="117.285222"/>
      </g>
     </g>
    </g>
   </g>
   <g id="line2d_78">
    <path clip-path="url(#p68e2955192)" d="M 123.645304 613 
L 123.645889 523.26 
L 123.646474 613 
M 125.992531 613 
L 125.993117 523.26 
L 127.16673 469.071167 
L 128.340344 469.071167 
L 129.513958 437.372731 
L 130.687572 469.071167 
L 136.555641 469.071167 
L 137.729254 523.26 
L 138.902868 523.26 
L 138.903453 613 
M 152.985648 613 
L 152.986233 523.26 
L 154.159847 523.26 
L 154.160432 613 
M 225.749702 613 
L 225.750287 523.26 
L 226.923901 469.071167 
L 228.097514 437.372731 
L 229.271128 414.882334 
L 230.444742 437.372731 
L 231.618356 437.372731 
L 232.791969 414.882334 
L 233.965583 414.882334 
L 235.139197 397.437426 
L 237.486424 343.248593 
L 238.660038 328.995065 
L 239.833652 328.995065 
L 241.007266 311.550157 
L 242.18088 289.059759 
L 243.354493 289.059759 
L 244.528107 274.806232 
L 245.701721 271.614852 
L 246.875335 262.755046 
L 252.743403 262.755046 
L 253.917017 271.614852 
L 255.090631 281.608604 
L 256.264245 285.245444 
L 257.437859 285.245444 
L 258.611472 293.069765 
L 259.785086 289.059759 
L 260.9587 293.069765 
L 265.653155 293.069765 
L 266.826769 289.059759 
L 268.000382 289.059759 
L 269.173996 274.806232 
L 271.521224 274.806232 
L 272.694837 260.011678 
L 273.868451 249.910169 
L 275.042065 240.965801 
L 276.215679 240.965801 
L 277.389293 234.870926 
L 284.430975 234.870926 
L 285.604589 220.617399 
L 286.778203 204.486437 
L 289.12543 204.486437 
L 290.299044 211.409361 
L 293.819885 211.409361 
L 294.993499 229.217044 
L 296.167113 208.566213 
L 298.51434 208.566213 
L 299.687954 238.880931 
L 300.861568 293.069765 
L 302.035182 335.797437 
L 303.208795 343.248593 
L 304.382409 335.797437 
L 306.729637 335.797437 
L 307.90325 343.248593 
L 309.076864 335.797437 
L 310.250478 343.248593 
L 312.597706 343.248593 
L 313.771319 351.485463 
L 314.944933 360.6935 
L 316.118547 343.248593 
L 318.465774 343.248593 
L 319.639388 328.995065 
L 320.813002 343.248593 
L 321.986616 343.248593 
L 323.160229 397.437426 
L 324.333843 343.248593 
L 325.507457 343.248593 
L 326.681071 371.132712 
L 327.854685 328.995065 
L 331.375526 328.995065 
L 332.54914 371.132712 
L 334.896367 371.132712 
L 336.069981 523.26 
L 337.243595 469.071167 
L 338.417208 523.26 
L 339.590822 523.26 
L 339.591407 613 
M 343.111078 613 
L 343.111663 523.26 
L 343.112249 613 
M 357.194443 613 
L 357.195029 523.26 
L 357.195614 613 
M 360.715285 613 
L 360.71587 523.26 
L 360.716455 613 
M 364.236126 613 
L 364.236711 523.26 
L 365.410325 523.26 
L 366.583939 437.372731 
L 367.757553 469.071167 
L 368.931166 414.882334 
L 373.625621 414.882334 
L 374.799235 397.437426 
L 375.972849 414.882334 
L 381.840918 414.882334 
L 383.014532 469.071167 
L 391.229828 469.071167 
L 392.403442 360.6935 
L 393.577055 316.943879 
L 394.750669 316.943879 
L 395.924283 306.504667 
L 397.097897 306.504667 
L 398.271511 301.765158 
L 400.618738 301.765158 
L 401.792352 316.943879 
L 402.965966 311.550157 
L 405.313193 311.550157 
L 406.486807 328.995065 
L 407.660421 328.995065 
L 408.834034 343.248593 
L 410.007648 343.248593 
L 411.181262 371.132712 
L 412.354876 437.372731 
L 413.528489 414.882334 
L 414.702103 414.882334 
L 417.049331 274.806232 
L 418.222945 240.965801 
L 419.396558 274.806232 
L 420.570172 274.806232 
L 421.743786 247.576325 
L 422.9174 236.850221 
L 424.091013 247.576325 
L 425.264627 236.850221 
L 428.785468 236.850221 
L 429.959082 247.576325 
L 431.132696 260.011678 
L 433.479924 260.011678 
L 434.653537 271.614852 
L 437.000765 271.614852 
L 439.347992 285.245444 
L 440.521606 278.133456 
L 441.69522 278.133456 
L 442.868834 285.245444 
L 444.042447 301.765158 
L 445.216061 335.797437 
L 446.389675 335.797437 
L 447.563289 397.437426 
L 447.564694 613 
M 471.03386 613 
L 471.035564 351.485463 
L 473.382792 351.485463 
L 474.556405 289.059759 
L 475.730019 271.614852 
L 476.903633 271.614852 
L 478.077247 289.059759 
L 479.25086 271.614852 
L 480.424474 289.059759 
L 481.598088 316.943879 
L 482.771702 293.069765 
L 483.945315 297.29663 
L 485.118929 316.943879 
L 486.292543 297.29663 
L 487.466157 316.943879 
L 495.681453 316.943879 
L 498.028681 328.995065 
L 499.202294 328.995065 
L 500.375908 306.504667 
L 501.549522 306.504667 
L 502.723136 437.372731 
L 503.89675 371.132712 
L 505.070363 371.132712 
L 506.243977 316.943879 
L 507.417591 316.943879 
L 508.591205 371.132712 
L 509.764818 316.943879 
L 510.938432 316.943879 
L 512.112046 371.132712 
L 513.28566 371.132712 
L 514.459273 316.943879 
L 515.632887 322.737489 
L 519.153728 322.737489 
L 520.327342 293.069765 
L 521.500956 351.485463 
L 522.67457 351.485463 
L 523.848184 383.183898 
L 525.021797 328.995065 
L 526.195411 383.183898 
L 529.716252 383.183898 
L 529.71775 613 
M 597.784446 613 
L 597.785851 397.437426 
L 600.133078 397.437426 
L 600.134483 613 
M 605.999742 613 
L 606.001147 397.437426 
L 607.174761 397.437426 
L 607.176166 613 
M 635.339641 613 
L 635.341491 328.995065 
L 637.688719 328.995065 
L 638.862333 274.806232 
L 643.556788 274.806232 
L 644.730402 297.29663 
L 645.904015 335.797437 
L 650.59847 335.797437 
L 651.772084 351.485463 
L 652.945698 351.485463 
L 654.119312 414.882334 
L 655.292925 414.882334 
L 655.294217 613 
M 670.548147 613 
L 670.549904 343.248593 
L 675.244359 343.248593 
L 676.417973 271.614852 
L 677.591587 271.614852 
L 678.765201 343.248593 
L 679.938815 271.614852 
L 681.112428 343.248593 
L 684.63327 343.248593 
L 684.635027 613 
M 695.193766 613 
L 695.195793 301.765158 
L 696.369407 301.765158 
L 697.543021 225.662889 
L 701.063862 225.662889 
L 702.237476 200.609049 
L 704.584704 200.609049 
L 705.758317 174.12441 
L 709.279159 174.12441 
L 710.452772 179.710926 
L 711.626386 158.681841 
L 712.8 188.918963 
L 712.8 188.918963 
" style="fill:none;stroke:#1f77b4;stroke-linecap:square;stroke-width:1.5;"/>
   </g>
   <g id="line2d_79">
    <path clip-path="url(#p68e2955192)" d="M 0 0 
" style="fill:none;stroke:#ff7f0e;stroke-linecap:square;stroke-width:1.5;"/>
   </g>
   <g id="patch_3">
    <path d="M 99 544.68 
L 99 73.44 
" style="fill:none;stroke:#000000;stroke-linecap:square;stroke-linejoin:miter;stroke-width:0.8;"/>
   </g>
   <g id="patch_4">
    <path d="M 712.8 544.68 
L 712.8 73.44 
" style="fill:none;stroke:#000000;stroke-linecap:square;stroke-linejoin:miter;stroke-width:0.8;"/>
   </g>
   <g id="patch_5">
    <path d="M 99 544.68 
L 712.8 544.68 
" style="fill:none;stroke:#000000;stroke-linecap:square;stroke-linejoin:miter;stroke-width:0.8;"/>
   </g>
   <g id="patch_6">
    <path d="M 99 73.44 
L 712.8 73.44 
" style="fill:none;stroke:#000000;stroke-linecap:square;stroke-linejoin:miter;stroke-width:0.8;"/>
   </g>
   <g id="legend_1">
    <g id="patch_7">
     <path d="M 616.653125 110.79625 
L 705.8 110.79625 
Q 707.8 110.79625 707.8 108.79625 
L 707.8 80.44 
Q 707.8 78.44 705.8 78.44 
L 616.653125 78.44 
Q 614.653125 78.44 614.653125 80.44 
L 614.653125 108.79625 
Q 614.653125 110.79625 616.653125 110.79625 
z
" style="fill:#ffffff;opacity:0.8;stroke:#cccccc;stroke-linejoin:miter;"/>
    </g>
    <g id="line2d_80">
     <path d="M 618.653125 86.538437 
L 638.653125 86.538437 
" style="fill:none;stroke:#1f77b4;stroke-linecap:square;stroke-width:1.5;"/>
    </g>
    <g id="line2d_81"/>
    <g id="text_11">
     <!-- Avg Cases -->
     <g transform="translate(646.653125 90.038437)scale(0.1 -0.1)">
      <defs>
       <path d="M 191 3500 
L 800 3500 
L 1894 563 
L 2988 3500 
L 3597 3500 
L 2284 0 
L 1503 0 
L 191 3500 
z
" id="DejaVuSans-76" transform="scale(0.015625)"/>
       <path d="M 2906 1791 
Q 2906 2416 2648 2759 
Q 2391 3103 1925 3103 
Q 1463 3103 1205 2759 
Q 947 2416 947 1791 
Q 947 1169 1205 825 
Q 1463 481 1925 481 
Q 2391 481 2648 825 
Q 2906 1169 2906 1791 
z
M 3481 434 
Q 3481 -459 3084 -895 
Q 2688 -1331 1869 -1331 
Q 1566 -1331 1297 -1286 
Q 1028 -1241 775 -1147 
L 775 -588 
Q 1028 -725 1275 -790 
Q 1522 -856 1778 -856 
Q 2344 -856 2625 -561 
Q 2906 -266 2906 331 
L 2906 616 
Q 2728 306 2450 153 
Q 2172 0 1784 0 
Q 1141 0 747 490 
Q 353 981 353 1791 
Q 353 2603 747 3093 
Q 1141 3584 1784 3584 
Q 2172 3584 2450 3431 
Q 2728 3278 2906 2969 
L 2906 3500 
L 3481 3500 
L 3481 434 
z
" id="DejaVuSans-67" transform="scale(0.015625)"/>
       <path id="DejaVuSans-20" transform="scale(0.015625)"/>
       <path d="M 4122 4306 
L 4122 3641 
Q 3803 3938 3442 4084 
Q 3081 4231 2675 4231 
Q 1875 4231 1450 3742 
Q 1025 3253 1025 2328 
Q 1025 1406 1450 917 
Q 1875 428 2675 428 
Q 3081 428 3442 575 
Q 3803 722 4122 1019 
L 4122 359 
Q 3791 134 3420 21 
Q 3050 -91 2638 -91 
Q 1578 -91 968 557 
Q 359 1206 359 2328 
Q 359 3453 968 4101 
Q 1578 4750 2638 4750 
Q 3056 4750 3426 4639 
Q 3797 4528 4122 4306 
z
" id="DejaVuSans-43" transform="scale(0.015625)"/>
       <path d="M 2834 3397 
L 2834 2853 
Q 2591 2978 2328 3040 
Q 2066 3103 1784 3103 
Q 1356 3103 1142 2972 
Q 928 2841 928 2578 
Q 928 2378 1081 2264 
Q 1234 2150 1697 2047 
L 1894 2003 
Q 2506 1872 2764 1633 
Q 3022 1394 3022 966 
Q 3022 478 2636 193 
Q 2250 -91 1575 -91 
Q 1294 -91 989 -36 
Q 684 19 347 128 
L 347 722 
Q 666 556 975 473 
Q 1284 391 1588 391 
Q 1994 391 2212 530 
Q 2431 669 2431 922 
Q 2431 1156 2273 1281 
Q 2116 1406 1581 1522 
L 1381 1569 
Q 847 1681 609 1914 
Q 372 2147 372 2553 
Q 372 3047 722 3315 
Q 1072 3584 1716 3584 
Q 2034 3584 2315 3537 
Q 2597 3491 2834 3397 
z
" id="DejaVuSans-73" transform="scale(0.015625)"/>
      </defs>
      <use xlink:href="#DejaVuSans-41"/>
      <use x="62.533203" xlink:href="#DejaVuSans-76"/>
      <use x="121.712891" xlink:href="#DejaVuSans-67"/>
      <use x="185.189453" xlink:href="#DejaVuSans-20"/>
      <use x="216.976562" xlink:href="#DejaVuSans-43"/>
      <use x="286.800781" xlink:href="#DejaVuSans-61"/>
      <use x="348.080078" xlink:href="#DejaVuSans-73"/>
      <use x="400.179688" xlink:href="#DejaVuSans-65"/>
      <use x="461.703125" xlink:href="#DejaVuSans-73"/>
     </g>
    </g>
    <g id="line2d_82">
     <path d="M 618.653125 101.216562 
L 638.653125 101.216562 
" style="fill:none;stroke:#ff7f0e;stroke-linecap:square;stroke-width:1.5;"/>
    </g>
    <g id="line2d_83"/>
    <g id="text_12">
     <!-- Avg Deaths -->
     <g transform="translate(646.653125 104.716562)scale(0.1 -0.1)">
      <defs>
       <path d="M 3513 2113 
L 3513 0 
L 2938 0 
L 2938 2094 
Q 2938 2591 2744 2837 
Q 2550 3084 2163 3084 
Q 1697 3084 1428 2787 
Q 1159 2491 1159 1978 
L 1159 0 
L 581 0 
L 581 4863 
L 1159 4863 
L 1159 2956 
Q 1366 3272 1645 3428 
Q 1925 3584 2291 3584 
Q 2894 3584 3203 3211 
Q 3513 2838 3513 2113 
z
" id="DejaVuSans-68" transform="scale(0.015625)"/>
      </defs>
      <use xlink:href="#DejaVuSans-41"/>
      <use x="62.533203" xlink:href="#DejaVuSans-76"/>
      <use x="121.712891" xlink:href="#DejaVuSans-67"/>
      <use x="185.189453" xlink:href="#DejaVuSans-20"/>
      <use x="216.976562" xlink:href="#DejaVuSans-44"/>
      <use x="293.978516" xlink:href="#DejaVuSans-65"/>
      <use x="355.501953" xlink:href="#DejaVuSans-61"/>
      <use x="416.78125" xlink:href="#DejaVuSans-74"/>
      <use x="455.990234" xlink:href="#DejaVuSans-68"/>
      <use x="519.369141" xlink:href="#DejaVuSans-73"/>
     </g>
    </g>
   </g>
  </g>
 </g>
 <defs>
  <clipPath id="p68e2955192">
   <rect height="471.24" width="613.8" x="99" y="73.44"/>
  </clipPath>
 </defs>
</svg>
