<?xml version="1.0" encoding="utf-8" standalone="no"?>
<!DOCTYPE svg PUBLIC "-//W3C//DTD SVG 1.1//EN"
  "http://www.w3.org/Graphics/SVG/1.1/DTD/svg11.dtd">
<svg height="612pt" version="1.1" viewBox="0 0 792 612" width="792pt" xmlns="http://www.w3.org/2000/svg" xmlns:xlink="http://www.w3.org/1999/xlink">
 <metadata>
  <rdf:RDF xmlns:cc="http://creativecommons.org/ns#" xmlns:dc="http://purl.org/dc/elements/1.1/" xmlns:rdf="http://www.w3.org/1999/02/22-rdf-syntax-ns#">
   <cc:Work>
    <dc:type rdf:resource="http://purl.org/dc/dcmitype/StillImage"/>
    <dc:format>image/svg+xml</dc:format>
    <dc:creator>
     <cc:Agent>
      <dc:title>Matplotlib v3.4.2, https://matplotlib.org/</dc:title>
     </cc:Agent>
    </dc:creator>
   </cc:Work>
  </rdf:RDF>
 </metadata>
 <defs>
  <style type="text/css">*{stroke-linecap:butt;stroke-linejoin:round;}</style>
 </defs>
 <g id="figure_1">
  <g id="patch_1">
   <path d="M 0 612 
L 792 612 
L 792 0 
L 0 0 
z
" style="fill:#ffffff;"/>
  </g>
  <g id="axes_1">
   <g id="patch_2">
    <path d="M 99 544.68 
L 712.8 544.68 
L 712.8 73.44 
L 99 73.44 
z
" style="fill:#ffffff;"/>
   </g>
   <g id="PolyCollection_1">
    <path clip-path="url(#p68e2955192)" d="M 99 126541.091253 
L 99 126541.091253 
L 100.194163 126541.091253 
L 101.388327 126541.091253 
L 102.58249 126541.091253 
L 103.776654 126541.091253 
L 104.970817 126541.091253 
L 106.164981 126541.091253 
L 107.359144 126541.091253 
L 108.553307 126541.091253 
L 109.747471 126541.091253 
L 110.941634 126541.091253 
L 112.135798 126541.091253 
L 113.329961 126541.091253 
L 114.524125 383.689786 
L 115.718288 368.802685 
L 116.912451 368.802685 
L 118.106615 353.544429 
L 119.300778 350.66243 
L 120.494942 350.66243 
L 121.689105 350.66243 
L 122.883268 332.847074 
L 124.077432 327.999189 
L 125.271595 327.999189 
L 126.465759 327.999189 
L 127.659922 319.163931 
L 128.854086 319.163931 
L 130.048249 319.163931 
L 131.242412 319.163931 
L 132.436576 319.163931 
L 133.630739 311.102196 
L 134.824903 311.102196 
L 136.019066 310.424926 
L 137.21323 310.424926 
L 138.407393 310.424926 
L 139.601556 314.378536 
L 140.79572 314.378536 
L 141.989883 314.378536 
L 143.184047 314.378536 
L 144.37821 315.106866 
L 145.572374 315.106866 
L 146.766537 315.106866 
L 147.9607 315.106866 
L 149.154864 315.106866 
L 150.349027 320.22698 
L 151.543191 319.427764 
L 152.737354 322.138483 
L 153.931518 322.138483 
L 155.125681 322.138483 
L 156.319844 322.138483 
L 157.514008 322.978581 
L 158.708171 322.978581 
L 159.902335 322.978581 
L 161.096498 322.978581 
L 162.290661 322.978581 
L 163.484825 322.978581 
L 164.678988 322.978581 
L 165.873152 312.482404 
L 167.067315 312.482404 
L 168.261479 313.89831 
L 169.455642 313.89831 
L 170.649805 328.935029 
L 171.843969 334.563369 
L 173.038132 339.295145 
L 174.232296 339.295145 
L 175.426459 344.894434 
L 176.620623 339.295145 
L 177.814786 316.093295 
L 179.008949 316.093295 
L 180.203113 316.093295 
L 181.397276 316.093295 
L 182.59144 339.295145 
L 183.785603 338.166335 
L 184.979767 338.166335 
L 186.17393 338.166335 
L 187.368093 338.166335 
L 188.562257 316.093295 
L 189.75642 316.093295 
L 190.950584 316.093295 
L 192.144747 315.351811 
L 193.338911 315.351811 
L 194.533074 334.563369 
L 195.727237 334.563369 
L 196.921401 334.563369 
L 198.115564 334.563369 
L 199.309728 334.563369 
L 200.503891 334.563369 
L 201.698054 334.563369 
L 202.892218 334.563369 
L 204.086381 334.563369 
L 205.280545 339.295145 
L 206.474708 339.295145 
L 207.668872 339.295145 
L 208.863035 339.295145 
L 210.057198 331.842544 
L 211.251362 317.351863 
L 212.445525 317.351863 
L 213.639689 316.593255 
L 214.833852 316.593255 
L 216.028016 310.424926 
L 217.222179 303.28324 
L 218.416342 300.969713 
L 219.610506 300.969713 
L 220.804669 300.969713 
L 221.998833 299.66397 
L 223.192996 299.66397 
L 224.38716 299.66397 
L 225.581323 295.409766 
L 226.775486 284.331037 
L 227.96965 284.331037 
L 229.163813 284.331037 
L 230.357977 284.331037 
L 231.55214 282.684436 
L 232.746304 282.684436 
L 233.940467 282.684436 
L 235.13463 282.684436 
L 236.328794 282.684436 
L 237.522957 282.684436 
L 238.717121 281.085919 
L 239.911284 281.085919 
L 241.105447 281.085919 
L 242.299611 283.638925 
L 243.493774 288.078232 
L 244.687938 283.638925 
L 245.882101 283.638925 
L 247.076265 282.012706 
L 248.270428 275.832339 
L 249.464591 275.832339 
L 250.658755 275.832339 
L 251.852918 275.121351 
L 253.047082 275.121351 
L 254.241245 275.121351 
L 255.435409 272.590654 
L 256.629572 270.712224 
L 257.823735 270.387325 
L 259.017899 264.360791 
L 260.212062 262.366378 
L 261.406226 262.366378 
L 262.600389 262.366378 
L 263.794553 262.366378 
L 264.988716 260.803433 
L 266.182879 260.803433 
L 267.377043 260.803433 
L 268.571206 260.803433 
L 269.76537 260.803433 
L 270.959533 260.803433 
L 272.153696 262.366378 
L 273.34786 262.366378 
L 274.542023 262.366378 
L 275.736187 263.023142 
L 276.93035 266.8339 
L 278.124514 266.8339 
L 279.318677 266.8339 
L 280.51284 267.444449 
L 281.707004 279.788576 
L 282.901167 279.788576 
L 284.095331 281.481194 
L 285.289494 279.788576 
L 286.483658 278.898388 
L 287.677821 266.430618 
L 288.871984 266.130094 
L 290.066148 266.130094 
L 291.260311 258.932377 
L 292.454475 258.932377 
L 293.648638 258.932377 
L 294.842802 258.932377 
L 296.036965 258.932377 
L 297.231128 258.932377 
L 298.425292 258.932377 
L 299.619455 258.932377 
L 300.813619 258.932377 
L 302.007782 262.928835 
L 303.201946 262.928835 
L 304.396109 266.732801 
L 305.590272 266.732801 
L 306.784436 266.732801 
L 307.978599 272.815944 
L 309.172763 272.815944 
L 310.366926 272.815944 
L 311.561089 272.815944 
L 312.755253 272.815944 
L 313.949416 272.815944 
L 315.14358 271.148444 
L 316.337743 271.809362 
L 317.531907 271.809362 
L 318.72607 260.71287 
L 319.920233 260.71287 
L 321.114397 260.71287 
L 322.30856 260.71287 
L 323.502724 260.71287 
L 324.696887 253.357425 
L 325.891051 244.400971 
L 327.085214 237.588401 
L 328.279377 237.588401 
L 329.473541 236.705867 
L 330.667704 236.705867 
L 331.861868 236.705867 
L 333.056031 224.094357 
L 334.250195 217.343243 
L 335.444358 217.343243 
L 336.638521 217.343243 
L 337.832685 211.776404 
L 339.026848 211.776404 
L 340.221012 211.776404 
L 341.415175 211.776404 
L 342.609339 211.776404 
L 343.803502 211.776404 
L 344.997665 210.135562 
L 346.191829 210.135562 
L 347.385992 210.135562 
L 348.580156 210.135562 
L 349.774319 211.739401 
L 350.968482 206.487997 
L 352.162646 199.375573 
L 353.356809 199.375573 
L 354.550973 200.448461 
L 355.745136 197.376183 
L 356.9393 197.376183 
L 358.133463 193.371986 
L 359.327626 192.976712 
L 360.52179 186.660082 
L 361.715953 186.660082 
L 362.910117 186.660082 
L 364.10428 178.201003 
L 365.298444 178.201003 
L 366.492607 175.140937 
L 367.68677 175.140937 
L 368.880934 170.840691 
L 370.075097 170.840691 
L 371.269261 170.840691 
L 372.463424 158.025089 
L 373.657588 157.734663 
L 374.851751 157.281368 
L 376.045914 156.426273 
L 377.240078 152.968897 
L 378.434241 152.968897 
L 379.628405 152.968897 
L 380.822568 151.892234 
L 382.016732 150.909347 
L 383.210895 150.909347 
L 384.405058 150.909347 
L 385.599222 145.059829 
L 386.793385 145.059829 
L 387.987549 130.27652 
L 389.181712 125.96528 
L 390.375875 112.24303 
L 391.570039 112.24303 
L 392.764202 103.324551 
L 393.958366 103.324551 
L 395.152529 103.324551 
L 396.346693 103.324551 
L 397.540856 103.324551 
L 398.735019 97.443841 
L 399.929183 97.443841 
L 401.123346 97.443841 
L 402.31751 97.443841 
L 403.511673 97.443841 
L 404.705837 97.443841 
L 405.9 94.86 
L 407.094163 96.552396 
L 408.288327 96.552396 
L 409.48249 98.550874 
L 410.676654 97.82576 
L 411.870817 97.82576 
L 413.064981 97.82576 
L 414.259144 97.82576 
L 415.453307 107.343535 
L 416.647471 107.343535 
L 417.841634 107.343535 
L 419.035798 109.770069 
L 420.229961 109.770069 
L 421.424125 109.770069 
L 422.618288 118.560567 
L 423.812451 118.560567 
L 425.006615 120.622005 
L 426.200778 120.622005 
L 427.394942 127.317472 
L 428.589105 127.317472 
L 429.783268 127.317472 
L 430.977432 129.45576 
L 432.171595 129.45576 
L 433.365759 132.214911 
L 434.559922 132.44907 
L 435.754086 131.90425 
L 436.948249 131.90425 
L 438.142412 131.90425 
L 439.336576 140.838872 
L 440.530739 141.882061 
L 441.724903 141.882061 
L 442.919066 141.882061 
L 444.11323 150.243705 
L 445.307393 147.993015 
L 446.501556 147.993015 
L 447.69572 145.378085 
L 448.889883 145.378085 
L 450.084047 145.378085 
L 451.27821 145.378085 
L 452.472374 147.993015 
L 453.666537 147.993015 
L 454.8607 147.993015 
L 456.054864 150.982454 
L 457.249027 150.982454 
L 458.443191 150.982454 
L 459.637354 150.982454 
L 460.831518 147.202166 
L 462.025681 151.239102 
L 463.219844 151.239102 
L 464.414008 151.239102 
L 465.608171 141.102901 
L 466.802335 141.102901 
L 467.996498 141.102901 
L 469.190661 141.102901 
L 470.384825 141.102901 
L 471.578988 141.102901 
L 472.773152 141.102901 
L 473.967315 141.102901 
L 475.161479 141.102901 
L 476.355642 141.102901 
L 477.549805 143.188196 
L 478.743969 143.188196 
L 479.938132 143.188196 
L 481.132296 158.428705 
L 482.326459 166.853767 
L 483.520623 166.853767 
L 484.714786 171.174666 
L 485.908949 171.174666 
L 487.103113 171.174666 
L 488.297276 171.174666 
L 489.49144 175.292797 
L 490.685603 175.292797 
L 491.879767 175.292797 
L 493.07393 183.7445 
L 494.268093 183.7445 
L 495.462257 183.7445 
L 496.65642 191.653732 
L 497.850584 191.653732 
L 499.044747 191.653732 
L 500.238911 195.364904 
L 501.433074 195.364904 
L 502.627237 202.879252 
L 503.821401 202.879252 
L 505.015564 207.780183 
L 506.209728 207.780183 
L 507.403891 202.879252 
L 508.598054 203.163152 
L 509.792218 213.889511 
L 510.986381 209.03315 
L 512.180545 209.03315 
L 513.374708 209.03315 
L 514.568872 214.781591 
L 515.763035 214.781591 
L 516.957198 214.781591 
L 518.151362 196.529152 
L 519.345525 196.529152 
L 520.539689 196.529152 
L 521.733852 196.529152 
L 522.928016 196.529152 
L 524.122179 210.713354 
L 525.316342 210.713354 
L 526.510506 210.713354 
L 527.704669 215.887595 
L 528.898833 215.887595 
L 530.092996 216.732012 
L 531.28716 212.747356 
L 532.481323 212.747356 
L 533.675486 212.747356 
L 534.86965 220.246288 
L 536.063813 235.837335 
L 537.257977 235.837335 
L 538.45214 235.837335 
L 539.646304 220.246288 
L 540.840467 220.246288 
L 542.03463 220.246288 
L 543.228794 220.246288 
L 544.422957 219.730224 
L 545.617121 219.730224 
L 546.811284 219.730224 
L 548.005447 216.813117 
L 549.199611 216.813117 
L 550.393774 216.813117 
L 551.587938 216.813117 
L 552.782101 213.966509 
L 553.976265 213.966509 
L 555.170428 213.966509 
L 556.364591 215.3318 
L 557.558755 215.3318 
L 558.752918 215.3318 
L 559.947082 215.3318 
L 561.141245 215.3318 
L 562.335409 215.3318 
L 563.529572 215.3318 
L 564.723735 225.741311 
L 565.917899 225.455434 
L 567.112062 225.455434 
L 568.306226 223.770829 
L 569.500389 234.084882 
L 570.694553 234.084882 
L 571.888716 234.084882 
L 573.082879 234.084882 
L 574.277043 234.084882 
L 575.471206 234.084882 
L 576.66537 234.084882 
L 577.859533 234.084882 
L 579.053696 234.084882 
L 580.24786 234.084882 
L 581.442023 228.836757 
L 582.636187 228.836757 
L 583.83035 228.836757 
L 585.024514 229.908728 
L 586.218677 229.908728 
L 587.41284 229.908728 
L 588.607004 229.908728 
L 589.801167 229.908728 
L 590.995331 229.908728 
L 592.189494 225.789103 
L 593.383658 225.789103 
L 594.577821 225.789103 
L 595.771984 225.789103 
L 596.966148 225.789103 
L 598.160311 223.129454 
L 599.354475 223.129454 
L 600.548638 223.129454 
L 601.742802 223.129454 
L 602.936965 223.129454 
L 604.131128 223.129454 
L 605.325292 223.129454 
L 606.519455 217.384236 
L 607.713619 217.384236 
L 608.907782 219.901706 
L 610.101946 219.007363 
L 611.296109 219.007363 
L 612.490272 219.007363 
L 613.684436 219.007363 
L 614.878599 219.007363 
L 616.072763 219.007363 
L 617.266926 219.007363 
L 618.461089 213.851053 
L 619.655253 213.851053 
L 620.849416 213.851053 
L 622.04358 213.851053 
L 623.237743 214.314345 
L 624.431907 214.314345 
L 625.62607 214.314345 
L 626.820233 214.314345 
L 628.014397 214.314345 
L 629.20856 214.314345 
L 630.402724 214.314345 
L 631.596887 220.854576 
L 632.791051 197.804664 
L 633.985214 197.804664 
L 635.179377 219.303857 
L 636.373541 219.303857 
L 637.567704 219.303857 
L 638.761868 219.303857 
L 639.956031 215.569307 
L 641.150195 215.569307 
L 642.344358 215.569307 
L 643.538521 215.569307 
L 644.732685 215.569307 
L 645.926848 215.569307 
L 647.121012 215.569307 
L 648.315175 214.391943 
L 649.509339 224.606652 
L 650.703502 224.606652 
L 651.897665 225.598186 
L 653.091829 225.598186 
L 654.285992 225.598186 
L 655.480156 225.598186 
L 656.674319 225.598186 
L 657.868482 225.598186 
L 659.062646 225.598186 
L 660.256809 225.598186 
L 661.450973 225.455434 
L 662.645136 225.455434 
L 663.8393 225.455434 
L 665.033463 219.176591 
L 666.227626 219.176591 
L 667.42179 219.176591 
L 668.615953 219.176591 
L 669.810117 219.176591 
L 671.00428 219.176591 
L 672.198444 219.176591 
L 673.392607 232.332882 
L 674.58677 216.853714 
L 675.780934 216.853714 
L 676.975097 214.005048 
L 678.169261 214.005048 
L 679.363424 214.005048 
L 680.557588 214.005048 
L 681.751751 207.883508 
L 682.945914 207.883508 
L 684.140078 207.883508 
L 685.334241 207.883508 
L 686.528405 207.883508 
L 687.722568 207.883508 
L 688.916732 207.883508 
L 690.110895 200.478566 
L 691.305058 207.574115 
L 692.499222 205.853165 
L 693.693385 205.35713 
L 694.887549 205.35713 
L 696.081712 205.35713 
L 697.275875 205.35713 
L 698.470039 202.222487 
L 699.664202 200.478566 
L 700.858366 200.478566 
L 702.052529 196.417199 
L 703.246693 196.417199 
L 704.440856 196.417199 
L 705.635019 196.417199 
L 706.829183 174.462734 
L 708.023346 172.422985 
L 709.21751 171.777438 
L 710.411673 171.777438 
L 711.605837 171.563936 
L 712.8 171.563936 
L 712.8 126541.091253 
L 712.8 126541.091253 
L 711.605837 126541.091253 
L 710.411673 126541.091253 
L 709.21751 126541.091253 
L 708.023346 126541.091253 
L 706.829183 126541.091253 
L 705.635019 126541.091253 
L 704.440856 126541.091253 
L 703.246693 126541.091253 
L 702.052529 126541.091253 
L 700.858366 126541.091253 
L 699.664202 260.083089 
L 698.470039 260.083089 
L 697.275875 260.083089 
L 696.081712 260.083089 
L 694.887549 260.083089 
L 693.693385 260.083089 
L 692.499222 260.083089 
L 691.305058 260.083089 
L 690.110895 260.083089 
L 688.916732 126541.091253 
L 687.722568 126541.091253 
L 686.528405 126541.091253 
L 685.334241 126541.091253 
L 684.140078 126541.091253 
L 682.945914 126541.091253 
L 681.751751 126541.091253 
L 680.557588 126541.091253 
L 679.363424 126541.091253 
L 678.169261 126541.091253 
L 676.975097 126541.091253 
L 675.780934 126541.091253 
L 674.58677 126541.091253 
L 673.392607 126541.091253 
L 672.198444 264.264153 
L 671.00428 264.264153 
L 669.810117 264.264153 
L 668.615953 264.264153 
L 667.42179 262.553223 
L 666.227626 270.712224 
L 665.033463 270.712224 
L 663.8393 270.712224 
L 662.645136 270.712224 
L 661.450973 270.712224 
L 660.256809 270.712224 
L 659.062646 270.712224 
L 657.868482 270.712224 
L 656.674319 270.712224 
L 655.480156 270.712224 
L 654.285992 270.712224 
L 653.091829 270.712224 
L 651.897665 270.712224 
L 650.703502 270.712224 
L 649.509339 260.083089 
L 648.315175 259.283873 
L 647.121012 126541.091253 
L 645.926848 126541.091253 
L 644.732685 126541.091253 
L 643.538521 126541.091253 
L 642.344358 126541.091253 
L 641.150195 126541.091253 
L 639.956031 126541.091253 
L 638.761868 126541.091253 
L 637.567704 126541.091253 
L 636.373541 126541.091253 
L 635.179377 126541.091253 
L 633.985214 126541.091253 
L 632.791051 126541.091253 
L 631.596887 126541.091253 
L 630.402724 270.712224 
L 629.20856 270.712224 
L 628.014397 270.712224 
L 626.820233 270.712224 
L 625.62607 270.712224 
L 624.431907 270.712224 
L 623.237743 270.712224 
L 622.04358 270.712224 
L 620.849416 270.712224 
L 619.655253 270.712224 
L 618.461089 270.712224 
L 617.266926 270.712224 
L 616.072763 268.791138 
L 614.878599 268.791138 
L 613.684436 268.791138 
L 612.490272 268.791138 
L 611.296109 268.791138 
L 610.101946 268.791138 
L 608.907782 268.791138 
L 607.713619 258.496157 
L 606.519455 262.553223 
L 605.325292 262.553223 
L 604.131128 262.553223 
L 602.936965 262.553223 
L 601.742802 262.553223 
L 600.548638 262.553223 
L 599.354475 265.140097 
L 598.160311 265.140097 
L 596.966148 265.140097 
L 595.771984 265.140097 
L 594.577821 265.140097 
L 593.383658 265.140097 
L 592.189494 265.140097 
L 590.995331 269.743255 
L 589.801167 269.743255 
L 588.607004 269.743255 
L 587.41284 269.743255 
L 586.218677 269.743255 
L 585.024514 269.743255 
L 583.83035 269.743255 
L 582.636187 269.743255 
L 581.442023 269.743255 
L 580.24786 269.743255 
L 579.053696 269.743255 
L 577.859533 269.743255 
L 576.66537 269.743255 
L 575.471206 269.743255 
L 574.277043 268.791138 
L 573.082879 281.481194 
L 571.888716 281.481194 
L 570.694553 281.481194 
L 569.500389 281.481194 
L 568.306226 281.481194 
L 567.112062 299.66397 
L 565.917899 299.66397 
L 564.723735 299.66397 
L 563.529572 299.66397 
L 562.335409 299.66397 
L 561.141245 299.66397 
L 559.947082 299.66397 
L 558.752918 304.881757 
L 557.558755 304.881757 
L 556.364591 314.863011 
L 555.170428 314.863011 
L 553.976265 314.863011 
L 552.782101 314.863011 
L 551.587938 314.863011 
L 550.393774 314.863011 
L 549.199611 314.863011 
L 548.005447 314.863011 
L 546.811284 314.863011 
L 545.617121 314.863011 
L 544.422957 314.863011 
L 543.228794 314.863011 
L 542.03463 314.863011 
L 540.840467 314.863011 
L 539.646304 286.461474 
L 538.45214 286.461474 
L 537.257977 278.396134 
L 536.063813 278.396134 
L 534.86965 278.396134 
L 533.675486 278.396134 
L 532.481323 278.146724 
L 531.28716 278.146724 
L 530.092996 278.146724 
L 528.898833 278.146724 
L 527.704669 278.146724 
L 526.510506 278.146724 
L 525.316342 278.146724 
L 524.122179 278.146724 
L 522.928016 278.146724 
L 521.733852 278.146724 
L 520.539689 278.146724 
L 519.345525 278.146724 
L 518.151362 278.146724 
L 516.957198 278.146724 
L 515.763035 278.146724 
L 514.568872 275.95174 
L 513.374708 275.95174 
L 512.180545 282.684436 
L 510.986381 278.396134 
L 509.792218 278.396134 
L 508.598054 278.396134 
L 507.403891 278.396134 
L 506.209728 278.396134 
L 505.015564 275.95174 
L 503.821401 275.95174 
L 502.627237 275.95174 
L 501.433074 275.95174 
L 500.238911 275.95174 
L 499.044747 260.803433 
L 497.850584 252.650009 
L 496.65642 252.650009 
L 495.462257 240.137979 
L 494.268093 240.137979 
L 493.07393 240.137979 
L 491.879767 240.137979 
L 490.685603 240.137979 
L 489.49144 214.97746 
L 488.297276 210.243434 
L 487.103113 210.243434 
L 485.908949 207.814603 
L 484.714786 207.814603 
L 483.520623 206.286727 
L 482.326459 206.286727 
L 481.132296 195.750242 
L 479.938132 193.2663 
L 478.743969 195.888523 
L 477.549805 195.888523 
L 476.355642 193.2663 
L 475.161479 193.2663 
L 473.967315 191.705016 
L 472.773152 191.016707 
L 471.578988 191.016707 
L 470.384825 191.016707 
L 469.190661 191.016707 
L 467.996498 192.142878 
L 466.802335 192.142878 
L 465.608171 193.796783 
L 464.414008 193.796783 
L 463.219844 193.796783 
L 462.025681 193.796783 
L 460.831518 190.512371 
L 459.637354 193.796783 
L 458.443191 209.920452 
L 457.249027 209.920452 
L 456.054864 209.920452 
L 454.8607 209.920452 
L 453.666537 209.920452 
L 452.472374 222.540546 
L 451.27821 204.313709 
L 450.084047 204.313709 
L 448.889883 204.313709 
L 447.69572 204.313709 
L 446.501556 204.313709 
L 445.307393 185.548464 
L 444.11323 204.313709 
L 442.919066 185.548464 
L 441.724903 180.997467 
L 440.530739 180.997467 
L 439.336576 176.972055 
L 438.142412 176.972055 
L 436.948249 175.216814 
L 435.754086 175.216814 
L 434.559922 175.216814 
L 433.365759 167.328322 
L 432.171595 161.252215 
L 430.977432 156.412807 
L 429.783268 156.412807 
L 428.589105 156.412807 
L 427.394942 156.412807 
L 426.200778 156.412807 
L 425.006615 156.412807 
L 423.812451 147.487387 
L 422.618288 146.46747 
L 421.424125 146.46747 
L 420.229961 142.400782 
L 419.035798 142.400782 
L 417.841634 142.400782 
L 416.647471 142.400782 
L 415.453307 142.400782 
L 414.259144 139.202178 
L 413.064981 139.202178 
L 411.870817 134.702355 
L 410.676654 134.593787 
L 409.48249 134.593787 
L 408.288327 127.428372 
L 407.094163 134.593787 
L 405.9 127.428372 
L 404.705837 127.428372 
L 403.511673 127.428372 
L 402.31751 127.428372 
L 401.123346 127.428372 
L 399.929183 134.593787 
L 398.735019 142.057875 
L 397.540856 150.945888 
L 396.346693 151.830283 
L 395.152529 153.989819 
L 393.958366 154.768201 
L 392.764202 154.768201 
L 391.570039 162.381637 
L 390.375875 162.381637 
L 389.181712 163.244263 
L 387.987549 163.244263 
L 386.793385 166.38329 
L 385.599222 166.38329 
L 384.405058 166.38329 
L 383.210895 168.980067 
L 382.016732 170.057732 
L 380.822568 178.643798 
L 379.628405 178.643798 
L 378.434241 179.029116 
L 377.240078 181.399774 
L 376.045914 181.399774 
L 374.851751 186.683482 
L 373.657588 191.347035 
L 372.463424 191.910633 
L 371.269261 193.134479 
L 370.075097 195.9994 
L 368.880934 198.613581 
L 367.68677 198.613581 
L 366.492607 198.613581 
L 365.298444 206.994433 
L 364.10428 209.03315 
L 362.910117 211.004553 
L 361.715953 214.469651 
L 360.52179 214.469651 
L 359.327626 215.490023 
L 358.133463 216.934999 
L 356.9393 218.502794 
L 355.745136 219.346344 
L 354.550973 220.203096 
L 353.356809 220.203096 
L 352.162646 220.203096 
L 350.968482 221.161273 
L 349.774319 221.161273 
L 348.580156 221.161273 
L 347.385992 223.03844 
L 346.191829 227.58738 
L 344.997665 239.458671 
L 343.803502 250.505862 
L 342.609339 250.505862 
L 341.415175 250.505862 
L 340.221012 250.505862 
L 339.026848 250.505862 
L 337.832685 253.199429 
L 336.638521 272.590654 
L 335.444358 272.590654 
L 334.250195 272.590654 
L 333.056031 273.61184 
L 331.861868 273.61184 
L 330.667704 273.61184 
L 329.473541 275.713198 
L 328.279377 277.282631 
L 327.085214 277.282631 
L 325.891051 277.282631 
L 324.696887 294.731797 
L 323.502724 294.731797 
L 322.30856 303.28324 
L 321.114397 307.37061 
L 319.920233 307.37061 
L 318.72607 311.787951 
L 317.531907 311.787951 
L 316.337743 311.787951 
L 315.14358 311.787951 
L 313.949416 311.787951 
L 312.755253 311.329828 
L 311.561089 311.329828 
L 310.366926 311.329828 
L 309.172763 311.329828 
L 307.978599 311.329828 
L 306.784436 311.329828 
L 305.590272 301.921829 
L 304.396109 297.673011 
L 303.201946 297.673011 
L 302.007782 289.898189 
L 300.813619 289.898189 
L 299.619455 294.228773 
L 298.425292 297.673011 
L 297.231128 297.673011 
L 296.036965 297.673011 
L 294.842802 297.673011 
L 293.648638 297.673011 
L 292.454475 297.673011 
L 291.260311 297.673011 
L 290.066148 297.673011 
L 288.871984 294.228773 
L 287.677821 294.228773 
L 286.483658 294.228773 
L 285.289494 294.228773 
L 284.095331 294.228773 
L 282.901167 291.303995 
L 281.707004 289.284789 
L 280.51284 287.780702 
L 279.318677 285.032011 
L 278.124514 285.173289 
L 276.93035 284.750543 
L 275.736187 284.750543 
L 274.542023 284.750543 
L 273.34786 283.501546 
L 272.153696 283.364511 
L 270.959533 282.146395 
L 269.76537 282.146395 
L 268.571206 283.501546 
L 267.377043 282.28041 
L 266.182879 282.28041 
L 264.988716 282.28041 
L 263.794553 282.28041 
L 262.600389 282.28041 
L 261.406226 282.28041 
L 260.212062 282.28041 
L 259.017899 285.456944 
L 257.823735 292.261664 
L 256.629572 293.07272 
L 255.435409 293.07272 
L 254.241245 293.07272 
L 253.047082 293.07272 
L 251.852918 301.158816 
L 250.658755 301.158816 
L 249.464591 301.158816 
L 248.270428 303.086667 
L 247.076265 303.086667 
L 245.882101 303.086667 
L 244.687938 303.086667 
L 243.493774 305.288787 
L 242.299611 303.086667 
L 241.105447 303.086667 
L 239.911284 303.086667 
L 238.717121 305.288787 
L 237.522957 305.288787 
L 236.328794 309.314435 
L 235.13463 309.314435 
L 233.940467 309.314435 
L 232.746304 309.314435 
L 231.55214 309.314435 
L 230.357977 311.329828 
L 229.163813 312.482404 
L 227.96965 324.408044 
L 226.775486 324.408044 
L 225.581323 327.079078 
L 224.38716 327.079078 
L 223.192996 329.56793 
L 221.998833 359.257652 
L 220.804669 359.257652 
L 219.610506 359.257652 
L 218.416342 359.257652 
L 217.222179 359.257652 
L 216.028016 359.257652 
L 214.833852 360.363656 
L 213.639689 372.859751 
L 212.445525 379.571655 
L 211.251362 387.222969 
L 210.057198 387.222969 
L 208.863035 387.222969 
L 207.668872 387.222969 
L 206.474708 387.222969 
L 205.280545 387.222969 
L 204.086381 387.222969 
L 202.892218 388.14308 
L 201.698054 388.14308 
L 200.503891 399.439036 
L 199.309728 399.439036 
L 198.115564 380.370871 
L 196.921401 378.783939 
L 195.727237 378.783939 
L 194.533074 360.925151 
L 193.338911 359.257652 
L 192.144747 359.257652 
L 190.950584 359.257652 
L 189.75642 359.257652 
L 188.562257 359.257652 
L 187.368093 360.925151 
L 186.17393 359.807861 
L 184.979767 365.025648 
L 183.785603 365.025648 
L 182.59144 365.025648 
L 181.397276 365.025648 
L 180.203113 365.637334 
L 179.008949 365.637334 
L 177.814786 372.162349 
L 176.620623 372.162349 
L 175.426459 378.783939 
L 174.232296 378.783939 
L 173.038132 378.783939 
L 171.843969 372.162349 
L 170.649805 371.473719 
L 169.455642 371.473719 
L 168.261479 372.162349 
L 167.067315 372.162349 
L 165.873152 372.162349 
L 164.678988 378.783939 
L 163.484825 378.783939 
L 162.290661 379.571655 
L 161.096498 379.571655 
L 159.902335 379.571655 
L 158.708171 372.859751 
L 157.514008 388.14308 
L 156.319844 388.14308 
L 155.125681 398.310226 
L 153.931518 398.310226 
L 152.737354 398.310226 
L 151.543191 388.14308 
L 150.349027 388.14308 
L 149.154864 373.566152 
L 147.9607 365.637334 
L 146.766537 371.473719 
L 145.572374 365.637334 
L 144.37821 365.637334 
L 143.184047 365.637334 
L 141.989883 365.025648 
L 140.79572 355.044394 
L 139.601556 355.044394 
L 138.407393 345.743216 
L 137.21323 345.743216 
L 136.019066 355.044394 
L 134.824903 355.044394 
L 133.630739 355.044394 
L 132.436576 365.637334 
L 131.242412 355.553657 
L 130.048249 355.044394 
L 128.854086 365.637334 
L 127.659922 372.162349 
L 126.465759 382.005181 
L 125.271595 410.806321 
L 124.077432 427.02549 
L 122.883268 447.366859 
L 121.689105 447.366859 
L 120.494942 447.366859 
L 119.300778 447.366859 
L 118.106615 447.366859 
L 116.912451 450.174928 
L 115.718288 485.31343 
L 114.524125 485.31343 
L 113.329961 126541.091253 
L 112.135798 126541.091253 
L 110.941634 126541.091253 
L 109.747471 126541.091253 
L 108.553307 126541.091253 
L 107.359144 126541.091253 
L 106.164981 126541.091253 
L 104.970817 126541.091253 
L 103.776654 126541.091253 
L 102.58249 126541.091253 
L 101.388327 126541.091253 
L 100.194163 126541.091253 
L 99 126541.091253 
z
" style="fill:#8080ff;fill-opacity:0.5;stroke:#8080ff;stroke-opacity:0.5;"/>
   </g>
   <g id="PolyCollection_2">
    <path clip-path="url(#p68e2955192)" d="M 99 126541.091253 
L 99 126541.091253 
L 100.194163 126541.091253 
L 101.388327 126541.091253 
L 102.58249 126541.091253 
L 103.776654 126541.091253 
L 104.970817 126541.091253 
L 106.164981 126541.091253 
L 107.359144 126541.091253 
L 108.553307 126541.091253 
L 109.747471 126541.091253 
L 110.941634 126541.091253 
L 112.135798 126541.091253 
L 113.329961 126541.091253 
L 114.524125 126541.091253 
L 115.718288 126541.091253 
L 116.912451 126541.091253 
L 118.106615 126541.091253 
L 119.300778 126541.091253 
L 120.494942 126541.091253 
L 121.689105 126541.091253 
L 122.883268 126541.091253 
L 124.077432 126541.091253 
L 125.271595 126541.091253 
L 126.465759 126541.091253 
L 127.659922 126541.091253 
L 128.854086 126541.091253 
L 130.048249 126541.091253 
L 131.242412 126541.091253 
L 132.436576 126541.091253 
L 133.630739 126541.091253 
L 134.824903 126541.091253 
L 136.019066 126541.091253 
L 137.21323 126541.091253 
L 138.407393 126541.091253 
L 139.601556 126541.091253 
L 140.79572 504.839717 
L 141.989883 504.839717 
L 143.184047 504.839717 
L 144.37821 504.839717 
L 145.572374 504.839717 
L 146.766537 504.839717 
L 147.9607 485.31343 
L 149.154864 485.31343 
L 150.349027 485.31343 
L 151.543191 485.31343 
L 152.737354 485.31343 
L 153.931518 485.31343 
L 155.125681 485.31343 
L 156.319844 485.31343 
L 157.514008 504.839717 
L 158.708171 504.839717 
L 159.902335 504.839717 
L 161.096498 504.839717 
L 162.290661 504.839717 
L 163.484825 504.839717 
L 164.678988 126541.091253 
L 165.873152 126541.091253 
L 167.067315 126541.091253 
L 168.261479 126541.091253 
L 169.455642 126541.091253 
L 170.649805 126541.091253 
L 171.843969 126541.091253 
L 173.038132 126541.091253 
L 174.232296 126541.091253 
L 175.426459 126541.091253 
L 176.620623 126541.091253 
L 177.814786 126541.091253 
L 179.008949 126541.091253 
L 180.203113 504.839717 
L 181.397276 504.839717 
L 182.59144 485.31343 
L 183.785603 485.31343 
L 184.979767 485.31343 
L 186.17393 485.31343 
L 187.368093 485.31343 
L 188.562257 485.31343 
L 189.75642 485.31343 
L 190.950584 485.31343 
L 192.144747 485.31343 
L 193.338911 485.31343 
L 194.533074 485.31343 
L 195.727237 485.31343 
L 196.921401 485.31343 
L 198.115564 485.31343 
L 199.309728 485.31343 
L 200.503891 485.31343 
L 201.698054 485.31343 
L 202.892218 485.31343 
L 204.086381 485.31343 
L 205.280545 485.31343 
L 206.474708 485.31343 
L 207.668872 485.31343 
L 208.863035 485.31343 
L 210.057198 485.31343 
L 211.251362 504.839717 
L 212.445525 504.839717 
L 213.639689 126541.091253 
L 214.833852 126541.091253 
L 216.028016 126541.091253 
L 217.222179 126541.091253 
L 218.416342 504.839717 
L 219.610506 504.839717 
L 220.804669 504.839717 
L 221.998833 504.839717 
L 223.192996 504.839717 
L 224.38716 126541.091253 
L 225.581323 126541.091253 
L 226.775486 126541.091253 
L 227.96965 126541.091253 
L 229.163813 126541.091253 
L 230.357977 126541.091253 
L 231.55214 126541.091253 
L 232.746304 126541.091253 
L 233.940467 126541.091253 
L 235.13463 126541.091253 
L 236.328794 126541.091253 
L 237.522957 126541.091253 
L 238.717121 126541.091253 
L 239.911284 126541.091253 
L 241.105447 126541.091253 
L 242.299611 126541.091253 
L 243.493774 126541.091253 
L 244.687938 126541.091253 
L 245.882101 126541.091253 
L 247.076265 126541.091253 
L 248.270428 504.839717 
L 249.464591 504.839717 
L 250.658755 485.31343 
L 251.852918 485.31343 
L 253.047082 485.31343 
L 254.241245 485.31343 
L 255.435409 485.31343 
L 256.629572 485.31343 
L 257.823735 485.31343 
L 259.017899 485.31343 
L 260.212062 485.31343 
L 261.406226 485.31343 
L 262.600389 485.31343 
L 263.794553 485.31343 
L 264.988716 485.31343 
L 266.182879 485.31343 
L 267.377043 504.839717 
L 268.571206 504.839717 
L 269.76537 504.839717 
L 270.959533 504.839717 
L 272.153696 485.31343 
L 273.34786 504.839717 
L 274.542023 504.839717 
L 275.736187 504.839717 
L 276.93035 485.31343 
L 278.124514 485.31343 
L 279.318677 485.31343 
L 280.51284 485.31343 
L 281.707004 485.31343 
L 282.901167 485.31343 
L 284.095331 485.31343 
L 285.289494 485.31343 
L 286.483658 485.31343 
L 287.677821 485.31343 
L 288.871984 485.31343 
L 290.066148 485.31343 
L 291.260311 485.31343 
L 292.454475 485.31343 
L 293.648638 437.385606 
L 294.842802 437.385606 
L 296.036965 437.385606 
L 297.231128 437.385606 
L 298.425292 437.385606 
L 299.619455 437.385606 
L 300.813619 437.385606 
L 302.007782 437.385606 
L 303.201946 437.385606 
L 304.396109 437.385606 
L 305.590272 504.839717 
L 306.784436 444.695826 
L 307.978599 444.695826 
L 309.172763 444.695826 
L 310.366926 504.839717 
L 311.561089 504.839717 
L 312.755253 504.839717 
L 313.949416 504.839717 
L 315.14358 504.839717 
L 316.337743 504.839717 
L 317.531907 504.839717 
L 318.72607 504.839717 
L 319.920233 504.839717 
L 321.114397 504.839717 
L 322.30856 423.374449 
L 323.502724 504.839717 
L 324.696887 504.839717 
L 325.891051 437.385606 
L 327.085214 444.695826 
L 328.279377 444.695826 
L 329.473541 444.695826 
L 330.667704 444.695826 
L 331.861868 444.695826 
L 333.056031 437.385606 
L 334.250195 437.385606 
L 335.444358 437.385606 
L 336.638521 437.385606 
L 337.832685 437.385606 
L 339.026848 504.839717 
L 340.221012 504.839717 
L 341.415175 504.839717 
L 342.609339 504.839717 
L 343.803502 504.839717 
L 344.997665 504.839717 
L 346.191829 504.839717 
L 347.385992 504.839717 
L 348.580156 504.839717 
L 349.774319 126541.091253 
L 350.968482 504.839717 
L 352.162646 504.839717 
L 353.356809 504.839717 
L 354.550973 504.839717 
L 355.745136 504.839717 
L 356.9393 437.385606 
L 358.133463 437.385606 
L 359.327626 504.839717 
L 360.52179 504.839717 
L 361.715953 504.839717 
L 362.910117 504.839717 
L 364.10428 504.839717 
L 365.298444 437.385606 
L 366.492607 437.385606 
L 367.68677 413.688319 
L 368.880934 413.688319 
L 370.075097 413.688319 
L 371.269261 413.688319 
L 372.463424 386.318067 
L 373.657588 386.318067 
L 374.851751 386.318067 
L 376.045914 368.802685 
L 377.240078 368.802685 
L 378.434241 368.802685 
L 379.628405 368.802685 
L 380.822568 368.802685 
L 382.016732 368.802685 
L 383.210895 360.925151 
L 384.405058 360.925151 
L 385.599222 360.925151 
L 386.793385 360.925151 
L 387.987549 360.925151 
L 389.181712 360.925151 
L 390.375875 352.084467 
L 391.570039 352.084467 
L 392.764202 353.544429 
L 393.958366 353.544429 
L 395.152529 346.172593 
L 396.346693 346.172593 
L 397.540856 346.172593 
L 398.735019 346.172593 
L 399.929183 347.481309 
L 401.123346 334.215778 
L 402.31751 334.215778 
L 403.511673 334.215778 
L 404.705837 334.215778 
L 405.9 321.861291 
L 407.094163 321.861291 
L 408.288327 321.861291 
L 409.48249 321.861291 
L 410.676654 321.861291 
L 411.870817 325.283988 
L 413.064981 325.283988 
L 414.259144 325.283988 
L 415.453307 323.545895 
L 416.647471 323.545895 
L 417.841634 314.378536 
L 419.035798 314.378536 
L 420.229961 314.378536 
L 421.424125 314.378536 
L 422.618288 319.692875 
L 423.812451 319.692875 
L 425.006615 316.593255 
L 426.200778 316.593255 
L 427.394942 314.378536 
L 428.589105 314.378536 
L 429.783268 314.378536 
L 430.977432 314.378536 
L 432.171595 314.378536 
L 433.365759 314.378536 
L 434.559922 314.378536 
L 435.754086 314.378536 
L 436.948249 314.378536 
L 438.142412 314.378536 
L 439.336576 318.379975 
L 440.530739 316.093295 
L 441.724903 316.093295 
L 442.919066 316.093295 
L 444.11323 328.621302 
L 445.307393 328.621302 
L 446.501556 328.621302 
L 447.69572 314.378536 
L 448.889883 314.378536 
L 450.084047 314.378536 
L 451.27821 300.969713 
L 452.472374 300.969713 
L 453.666537 300.969713 
L 454.8607 300.969713 
L 456.054864 300.969713 
L 457.249027 298.750003 
L 458.443191 298.750003 
L 459.637354 298.750003 
L 460.831518 298.750003 
L 462.025681 298.750003 
L 463.219844 298.750003 
L 464.414008 307.583213 
L 465.608171 297.495555 
L 466.802335 297.495555 
L 467.996498 307.583213 
L 469.190661 307.583213 
L 470.384825 307.583213 
L 471.578988 307.583213 
L 472.773152 307.583213 
L 473.967315 304.679371 
L 475.161479 304.679371 
L 476.355642 322.417086 
L 477.549805 307.158829 
L 478.743969 307.158829 
L 479.938132 307.158829 
L 481.132296 307.158829 
L 482.326459 311.787951 
L 483.520623 311.787951 
L 484.714786 311.787951 
L 485.908949 311.787951 
L 487.103113 311.787951 
L 488.297276 311.787951 
L 489.49144 311.787951 
L 490.685603 311.787951 
L 491.879767 311.787951 
L 493.07393 311.787951 
L 494.268093 328.621302 
L 495.462257 328.621302 
L 496.65642 328.621302 
L 497.850584 328.621302 
L 499.044747 333.186055 
L 500.238911 333.186055 
L 501.433074 333.186055 
L 502.627237 333.186055 
L 503.821401 333.186055 
L 505.015564 333.186055 
L 506.209728 333.186055 
L 507.403891 356.586618 
L 508.598054 356.586618 
L 509.792218 356.586618 
L 510.986381 356.586618 
L 512.180545 356.586618 
L 513.374708 356.586618 
L 514.568872 356.586618 
L 515.763035 384.551935 
L 516.957198 384.551935 
L 518.151362 384.551935 
L 519.345525 384.551935 
L 520.539689 384.551935 
L 521.733852 384.551935 
L 522.928016 384.551935 
L 524.122179 384.551935 
L 525.316342 384.551935 
L 526.510506 384.551935 
L 527.704669 384.551935 
L 528.898833 384.551935 
L 530.092996 384.551935 
L 531.28716 384.551935 
L 532.481323 384.551935 
L 533.675486 384.551935 
L 534.86965 384.551935 
L 536.063813 384.551935 
L 537.257977 384.551935 
L 538.45214 384.551935 
L 539.646304 384.551935 
L 540.840467 466.893147 
L 542.03463 466.893147 
L 543.228794 466.893147 
L 544.422957 466.893147 
L 545.617121 466.893147 
L 546.811284 466.893147 
L 548.005447 466.893147 
L 549.199611 466.893147 
L 550.393774 466.893147 
L 551.587938 466.893147 
L 552.782101 466.893147 
L 553.976265 466.893147 
L 555.170428 466.893147 
L 556.364591 466.893147 
L 557.558755 126541.091253 
L 558.752918 466.893147 
L 559.947082 466.893147 
L 561.141245 466.893147 
L 562.335409 466.893147 
L 563.529572 466.893147 
L 564.723735 466.893147 
L 565.917899 504.839717 
L 567.112062 504.839717 
L 568.306226 504.839717 
L 569.500389 504.839717 
L 570.694553 504.839717 
L 571.888716 504.839717 
L 573.082879 504.839717 
L 574.277043 456.264012 
L 575.471206 504.839717 
L 576.66537 504.839717 
L 577.859533 504.839717 
L 579.053696 504.839717 
L 580.24786 504.839717 
L 581.442023 504.839717 
L 582.636187 466.893147 
L 583.83035 466.893147 
L 585.024514 466.893147 
L 586.218677 466.893147 
L 587.41284 466.893147 
L 588.607004 466.893147 
L 589.801167 466.893147 
L 590.995331 466.893147 
L 592.189494 466.893147 
L 593.383658 466.893147 
L 594.577821 466.893147 
L 595.771984 466.893147 
L 596.966148 466.893147 
L 598.160311 466.893147 
L 599.354475 466.893147 
L 600.548638 466.893147 
L 601.742802 466.893147 
L 602.936965 466.893147 
L 604.131128 466.893147 
L 605.325292 466.893147 
L 606.519455 466.893147 
L 607.713619 466.893147 
L 608.907782 466.893147 
L 610.101946 466.893147 
L 611.296109 466.893147 
L 612.490272 466.893147 
L 613.684436 466.893147 
L 614.878599 466.893147 
L 616.072763 504.839717 
L 617.266926 504.839717 
L 618.461089 504.839717 
L 619.655253 504.839717 
L 620.849416 504.839717 
L 622.04358 504.839717 
L 623.237743 504.839717 
L 624.431907 504.839717 
L 625.62607 504.839717 
L 626.820233 504.839717 
L 628.014397 504.839717 
L 629.20856 504.839717 
L 630.402724 504.839717 
L 631.596887 504.839717 
L 632.791051 504.839717 
L 633.985214 504.839717 
L 635.179377 504.839717 
L 636.373541 504.839717 
L 637.567704 504.839717 
L 638.761868 504.839717 
L 639.956031 504.839717 
L 641.150195 504.839717 
L 642.344358 504.839717 
L 643.538521 504.839717 
L 644.732685 504.839717 
L 645.926848 504.839717 
L 647.121012 504.839717 
L 648.315175 504.839717 
L 649.509339 416.730509 
L 650.703502 416.730509 
L 651.897665 416.730509 
L 653.091829 416.730509 
L 654.285992 416.730509 
L 655.480156 416.730509 
L 656.674319 416.730509 
L 657.868482 126541.091253 
L 659.062646 406.749256 
L 660.256809 406.749256 
L 661.450973 406.749256 
L 662.645136 406.749256 
L 663.8393 406.749256 
L 665.033463 406.749256 
L 666.227626 406.749256 
L 667.42179 406.749256 
L 668.615953 406.749256 
L 669.810117 406.749256 
L 671.00428 406.749256 
L 672.198444 406.749256 
L 673.392607 406.749256 
L 674.58677 392.990965 
L 675.780934 428.946576 
L 676.975097 428.946576 
L 678.169261 428.946576 
L 679.363424 428.946576 
L 680.557588 428.946576 
L 681.751751 428.946576 
L 682.945914 428.946576 
L 684.140078 428.946576 
L 685.334241 428.946576 
L 686.528405 428.946576 
L 687.722568 428.946576 
L 688.916732 428.946576 
L 690.110895 428.946576 
L 691.305058 406.749256 
L 692.499222 406.749256 
L 693.693385 406.749256 
L 694.887549 406.749256 
L 696.081712 406.749256 
L 697.275875 406.749256 
L 698.470039 406.749256 
L 699.664202 406.749256 
L 700.858366 406.749256 
L 702.052529 406.749256 
L 703.246693 406.749256 
L 704.440856 406.749256 
L 705.635019 406.749256 
L 706.829183 406.749256 
L 708.023346 378.783939 
L 709.21751 378.783939 
L 710.411673 378.783939 
L 711.605837 378.783939 
L 712.8 378.783939 
L 712.8 126541.091253 
L 712.8 126541.091253 
L 711.605837 126541.091253 
L 710.411673 126541.091253 
L 709.21751 126541.091253 
L 708.023346 126541.091253 
L 706.829183 126541.091253 
L 705.635019 126541.091253 
L 704.440856 126541.091253 
L 703.246693 126541.091253 
L 702.052529 126541.091253 
L 700.858366 126541.091253 
L 699.664202 126541.091253 
L 698.470039 126541.091253 
L 697.275875 126541.091253 
L 696.081712 126541.091253 
L 694.887549 126541.091253 
L 693.693385 126541.091253 
L 692.499222 126541.091253 
L 691.305058 126541.091253 
L 690.110895 126541.091253 
L 688.916732 126541.091253 
L 687.722568 126541.091253 
L 686.528405 126541.091253 
L 685.334241 126541.091253 
L 684.140078 126541.091253 
L 682.945914 126541.091253 
L 681.751751 126541.091253 
L 680.557588 126541.091253 
L 679.363424 126541.091253 
L 678.169261 126541.091253 
L 676.975097 126541.091253 
L 675.780934 126541.091253 
L 674.58677 126541.091253 
L 673.392607 126541.091253 
L 672.198444 126541.091253 
L 671.00428 126541.091253 
L 669.810117 126541.091253 
L 668.615953 126541.091253 
L 667.42179 126541.091253 
L 666.227626 126541.091253 
L 665.033463 126541.091253 
L 663.8393 126541.091253 
L 662.645136 126541.091253 
L 661.450973 126541.091253 
L 660.256809 126541.091253 
L 659.062646 126541.091253 
L 657.868482 126541.091253 
L 656.674319 126541.091253 
L 655.480156 126541.091253 
L 654.285992 126541.091253 
L 653.091829 126541.091253 
L 651.897665 126541.091253 
L 650.703502 126541.091253 
L 649.509339 126541.091253 
L 648.315175 126541.091253 
L 647.121012 126541.091253 
L 645.926848 126541.091253 
L 644.732685 126541.091253 
L 643.538521 126541.091253 
L 642.344358 126541.091253 
L 641.150195 126541.091253 
L 639.956031 126541.091253 
L 638.761868 126541.091253 
L 637.567704 126541.091253 
L 636.373541 126541.091253 
L 635.179377 126541.091253 
L 633.985214 126541.091253 
L 632.791051 126541.091253 
L 631.596887 126541.091253 
L 630.402724 126541.091253 
L 629.20856 126541.091253 
L 628.014397 126541.091253 
L 626.820233 126541.091253 
L 625.62607 126541.091253 
L 624.431907 126541.091253 
L 623.237743 126541.091253 
L 622.04358 126541.091253 
L 620.849416 126541.091253 
L 619.655253 126541.091253 
L 618.461089 126541.091253 
L 617.266926 126541.091253 
L 616.072763 126541.091253 
L 614.878599 126541.091253 
L 613.684436 126541.091253 
L 612.490272 126541.091253 
L 611.296109 126541.091253 
L 610.101946 126541.091253 
L 608.907782 126541.091253 
L 607.713619 126541.091253 
L 606.519455 126541.091253 
L 605.325292 126541.091253 
L 604.131128 126541.091253 
L 602.936965 126541.091253 
L 601.742802 126541.091253 
L 600.548638 126541.091253 
L 599.354475 126541.091253 
L 598.160311 126541.091253 
L 596.966148 126541.091253 
L 595.771984 126541.091253 
L 594.577821 126541.091253 
L 593.383658 126541.091253 
L 592.189494 126541.091253 
L 590.995331 126541.091253 
L 589.801167 126541.091253 
L 588.607004 126541.091253 
L 587.41284 126541.091253 
L 586.218677 126541.091253 
L 585.024514 126541.091253 
L 583.83035 126541.091253 
L 582.636187 126541.091253 
L 581.442023 126541.091253 
L 580.24786 126541.091253 
L 579.053696 126541.091253 
L 577.859533 126541.091253 
L 576.66537 126541.091253 
L 575.471206 126541.091253 
L 574.277043 126541.091253 
L 573.082879 126541.091253 
L 571.888716 126541.091253 
L 570.694553 126541.091253 
L 569.500389 126541.091253 
L 568.306226 126541.091253 
L 567.112062 126541.091253 
L 565.917899 126541.091253 
L 564.723735 126541.091253 
L 563.529572 126541.091253 
L 562.335409 126541.091253 
L 561.141245 126541.091253 
L 559.947082 126541.091253 
L 558.752918 126541.091253 
L 557.558755 126541.091253 
L 556.364591 126541.091253 
L 555.170428 126541.091253 
L 553.976265 126541.091253 
L 552.782101 126541.091253 
L 551.587938 126541.091253 
L 550.393774 126541.091253 
L 549.199611 126541.091253 
L 548.005447 126541.091253 
L 546.811284 126541.091253 
L 545.617121 126541.091253 
L 544.422957 126541.091253 
L 543.228794 126541.091253 
L 542.03463 126541.091253 
L 540.840467 126541.091253 
L 539.646304 126541.091253 
L 538.45214 126541.091253 
L 537.257977 126541.091253 
L 536.063813 126541.091253 
L 534.86965 126541.091253 
L 533.675486 126541.091253 
L 532.481323 126541.091253 
L 531.28716 126541.091253 
L 530.092996 126541.091253 
L 528.898833 126541.091253 
L 527.704669 126541.091253 
L 526.510506 126541.091253 
L 525.316342 126541.091253 
L 524.122179 126541.091253 
L 522.928016 126541.091253 
L 521.733852 126541.091253 
L 520.539689 126541.091253 
L 519.345525 126541.091253 
L 518.151362 126541.091253 
L 516.957198 126541.091253 
L 515.763035 126541.091253 
L 514.568872 126541.091253 
L 513.374708 126541.091253 
L 512.180545 126541.091253 
L 510.986381 126541.091253 
L 509.792218 126541.091253 
L 508.598054 126541.091253 
L 507.403891 126541.091253 
L 506.209728 126541.091253 
L 505.015564 126541.091253 
L 503.821401 126541.091253 
L 502.627237 126541.091253 
L 501.433074 126541.091253 
L 500.238911 126541.091253 
L 499.044747 126541.091253 
L 497.850584 126541.091253 
L 496.65642 126541.091253 
L 495.462257 126541.091253 
L 494.268093 126541.091253 
L 493.07393 126541.091253 
L 491.879767 126541.091253 
L 490.685603 126541.091253 
L 489.49144 126541.091253 
L 488.297276 126541.091253 
L 487.103113 126541.091253 
L 485.908949 126541.091253 
L 484.714786 126541.091253 
L 483.520623 126541.091253 
L 482.326459 126541.091253 
L 481.132296 126541.091253 
L 479.938132 126541.091253 
L 478.743969 126541.091253 
L 477.549805 126541.091253 
L 476.355642 126541.091253 
L 475.161479 126541.091253 
L 473.967315 126541.091253 
L 472.773152 126541.091253 
L 471.578988 126541.091253 
L 470.384825 126541.091253 
L 469.190661 126541.091253 
L 467.996498 126541.091253 
L 466.802335 126541.091253 
L 465.608171 126541.091253 
L 464.414008 126541.091253 
L 463.219844 126541.091253 
L 462.025681 126541.091253 
L 460.831518 126541.091253 
L 459.637354 126541.091253 
L 458.443191 126541.091253 
L 457.249027 126541.091253 
L 456.054864 126541.091253 
L 454.8607 126541.091253 
L 453.666537 126541.091253 
L 452.472374 126541.091253 
L 451.27821 126541.091253 
L 450.084047 126541.091253 
L 448.889883 126541.091253 
L 447.69572 126541.091253 
L 446.501556 126541.091253 
L 445.307393 126541.091253 
L 444.11323 126541.091253 
L 442.919066 126541.091253 
L 441.724903 126541.091253 
L 440.530739 126541.091253 
L 439.336576 126541.091253 
L 438.142412 126541.091253 
L 436.948249 126541.091253 
L 435.754086 126541.091253 
L 434.559922 126541.091253 
L 433.365759 126541.091253 
L 432.171595 126541.091253 
L 430.977432 126541.091253 
L 429.783268 126541.091253 
L 428.589105 126541.091253 
L 427.394942 126541.091253 
L 426.200778 126541.091253 
L 425.006615 126541.091253 
L 423.812451 126541.091253 
L 422.618288 126541.091253 
L 421.424125 126541.091253 
L 420.229961 126541.091253 
L 419.035798 126541.091253 
L 417.841634 126541.091253 
L 416.647471 126541.091253 
L 415.453307 126541.091253 
L 414.259144 126541.091253 
L 413.064981 126541.091253 
L 411.870817 126541.091253 
L 410.676654 126541.091253 
L 409.48249 126541.091253 
L 408.288327 126541.091253 
L 407.094163 126541.091253 
L 405.9 126541.091253 
L 404.705837 126541.091253 
L 403.511673 126541.091253 
L 402.31751 126541.091253 
L 401.123346 126541.091253 
L 399.929183 126541.091253 
L 398.735019 126541.091253 
L 397.540856 126541.091253 
L 396.346693 126541.091253 
L 395.152529 126541.091253 
L 393.958366 126541.091253 
L 392.764202 126541.091253 
L 391.570039 126541.091253 
L 390.375875 126541.091253 
L 389.181712 126541.091253 
L 387.987549 126541.091253 
L 386.793385 126541.091253 
L 385.599222 126541.091253 
L 384.405058 126541.091253 
L 383.210895 126541.091253 
L 382.016732 126541.091253 
L 380.822568 126541.091253 
L 379.628405 126541.091253 
L 378.434241 126541.091253 
L 377.240078 126541.091253 
L 376.045914 126541.091253 
L 374.851751 126541.091253 
L 373.657588 126541.091253 
L 372.463424 126541.091253 
L 371.269261 126541.091253 
L 370.075097 126541.091253 
L 368.880934 126541.091253 
L 367.68677 126541.091253 
L 366.492607 126541.091253 
L 365.298444 126541.091253 
L 364.10428 126541.091253 
L 362.910117 126541.091253 
L 361.715953 126541.091253 
L 360.52179 126541.091253 
L 359.327626 126541.091253 
L 358.133463 126541.091253 
L 356.9393 126541.091253 
L 355.745136 126541.091253 
L 354.550973 126541.091253 
L 353.356809 126541.091253 
L 352.162646 126541.091253 
L 350.968482 126541.091253 
L 349.774319 126541.091253 
L 348.580156 126541.091253 
L 347.385992 126541.091253 
L 346.191829 126541.091253 
L 344.997665 126541.091253 
L 343.803502 126541.091253 
L 342.609339 126541.091253 
L 341.415175 126541.091253 
L 340.221012 126541.091253 
L 339.026848 126541.091253 
L 337.832685 126541.091253 
L 336.638521 126541.091253 
L 335.444358 126541.091253 
L 334.250195 126541.091253 
L 333.056031 126541.091253 
L 331.861868 126541.091253 
L 330.667704 126541.091253 
L 329.473541 126541.091253 
L 328.279377 126541.091253 
L 327.085214 126541.091253 
L 325.891051 126541.091253 
L 324.696887 126541.091253 
L 323.502724 126541.091253 
L 322.30856 126541.091253 
L 321.114397 126541.091253 
L 319.920233 126541.091253 
L 318.72607 126541.091253 
L 317.531907 126541.091253 
L 316.337743 126541.091253 
L 315.14358 126541.091253 
L 313.949416 126541.091253 
L 312.755253 126541.091253 
L 311.561089 126541.091253 
L 310.366926 126541.091253 
L 309.172763 126541.091253 
L 307.978599 126541.091253 
L 306.784436 126541.091253 
L 305.590272 126541.091253 
L 304.396109 126541.091253 
L 303.201946 126541.091253 
L 302.007782 126541.091253 
L 300.813619 126541.091253 
L 299.619455 126541.091253 
L 298.425292 126541.091253 
L 297.231128 126541.091253 
L 296.036965 126541.091253 
L 294.842802 126541.091253 
L 293.648638 126541.091253 
L 292.454475 126541.091253 
L 291.260311 126541.091253 
L 290.066148 126541.091253 
L 288.871984 126541.091253 
L 287.677821 126541.091253 
L 286.483658 126541.091253 
L 285.289494 126541.091253 
L 284.095331 126541.091253 
L 282.901167 126541.091253 
L 281.707004 126541.091253 
L 280.51284 126541.091253 
L 279.318677 126541.091253 
L 278.124514 126541.091253 
L 276.93035 126541.091253 
L 275.736187 126541.091253 
L 274.542023 126541.091253 
L 273.34786 126541.091253 
L 272.153696 126541.091253 
L 270.959533 126541.091253 
L 269.76537 126541.091253 
L 268.571206 126541.091253 
L 267.377043 126541.091253 
L 266.182879 126541.091253 
L 264.988716 126541.091253 
L 263.794553 126541.091253 
L 262.600389 126541.091253 
L 261.406226 126541.091253 
L 260.212062 126541.091253 
L 259.017899 126541.091253 
L 257.823735 126541.091253 
L 256.629572 126541.091253 
L 255.435409 126541.091253 
L 254.241245 126541.091253 
L 253.047082 126541.091253 
L 251.852918 126541.091253 
L 250.658755 126541.091253 
L 249.464591 126541.091253 
L 248.270428 126541.091253 
L 247.076265 126541.091253 
L 245.882101 126541.091253 
L 244.687938 126541.091253 
L 243.493774 126541.091253 
L 242.299611 126541.091253 
L 241.105447 126541.091253 
L 239.911284 126541.091253 
L 238.717121 126541.091253 
L 237.522957 126541.091253 
L 236.328794 126541.091253 
L 235.13463 126541.091253 
L 233.940467 126541.091253 
L 232.746304 126541.091253 
L 231.55214 126541.091253 
L 230.357977 126541.091253 
L 229.163813 126541.091253 
L 227.96965 126541.091253 
L 226.775486 126541.091253 
L 225.581323 126541.091253 
L 224.38716 126541.091253 
L 223.192996 126541.091253 
L 221.998833 126541.091253 
L 220.804669 126541.091253 
L 219.610506 126541.091253 
L 218.416342 126541.091253 
L 217.222179 126541.091253 
L 216.028016 126541.091253 
L 214.833852 126541.091253 
L 213.639689 126541.091253 
L 212.445525 126541.091253 
L 211.251362 126541.091253 
L 210.057198 126541.091253 
L 208.863035 126541.091253 
L 207.668872 126541.091253 
L 206.474708 126541.091253 
L 205.280545 126541.091253 
L 204.086381 126541.091253 
L 202.892218 126541.091253 
L 201.698054 126541.091253 
L 200.503891 126541.091253 
L 199.309728 126541.091253 
L 198.115564 126541.091253 
L 196.921401 126541.091253 
L 195.727237 126541.091253 
L 194.533074 126541.091253 
L 193.338911 126541.091253 
L 192.144747 126541.091253 
L 190.950584 126541.091253 
L 189.75642 126541.091253 
L 188.562257 126541.091253 
L 187.368093 126541.091253 
L 186.17393 126541.091253 
L 184.979767 126541.091253 
L 183.785603 126541.091253 
L 182.59144 126541.091253 
L 181.397276 126541.091253 
L 180.203113 126541.091253 
L 179.008949 126541.091253 
L 177.814786 126541.091253 
L 176.620623 126541.091253 
L 175.426459 126541.091253 
L 174.232296 126541.091253 
L 173.038132 126541.091253 
L 171.843969 126541.091253 
L 170.649805 126541.091253 
L 169.455642 126541.091253 
L 168.261479 126541.091253 
L 167.067315 126541.091253 
L 165.873152 126541.091253 
L 164.678988 126541.091253 
L 163.484825 126541.091253 
L 162.290661 126541.091253 
L 161.096498 126541.091253 
L 159.902335 126541.091253 
L 158.708171 126541.091253 
L 157.514008 126541.091253 
L 156.319844 126541.091253 
L 155.125681 126541.091253 
L 153.931518 126541.091253 
L 152.737354 126541.091253 
L 151.543191 126541.091253 
L 150.349027 126541.091253 
L 149.154864 126541.091253 
L 147.9607 126541.091253 
L 146.766537 126541.091253 
L 145.572374 126541.091253 
L 144.37821 126541.091253 
L 143.184047 126541.091253 
L 141.989883 126541.091253 
L 140.79572 126541.091253 
L 139.601556 126541.091253 
L 138.407393 126541.091253 
L 137.21323 126541.091253 
L 136.019066 126541.091253 
L 134.824903 126541.091253 
L 133.630739 126541.091253 
L 132.436576 126541.091253 
L 131.242412 126541.091253 
L 130.048249 126541.091253 
L 128.854086 126541.091253 
L 127.659922 126541.091253 
L 126.465759 126541.091253 
L 125.271595 126541.091253 
L 124.077432 126541.091253 
L 122.883268 126541.091253 
L 121.689105 126541.091253 
L 120.494942 126541.091253 
L 119.300778 126541.091253 
L 118.106615 126541.091253 
L 116.912451 126541.091253 
L 115.718288 126541.091253 
L 114.524125 126541.091253 
L 113.329961 126541.091253 
L 112.135798 126541.091253 
L 110.941634 126541.091253 
L 109.747471 126541.091253 
L 108.553307 126541.091253 
L 107.359144 126541.091253 
L 106.164981 126541.091253 
L 104.970817 126541.091253 
L 103.776654 126541.091253 
L 102.58249 126541.091253 
L 101.388327 126541.091253 
L 100.194163 126541.091253 
L 99 126541.091253 
z
" style="fill:#ff8080;fill-opacity:0.5;stroke:#ff8080;stroke-opacity:0.5;"/>
   </g>
   <g id="matplotlib.axis_1">
    <g id="xtick_1">
     <g id="line2d_1">
      <path clip-path="url(#p68e2955192)" d="M 99 544.68 
L 99 73.44 
" style="fill:none;stroke:#b0b0b0;stroke-linecap:square;stroke-width:0.8;"/>
     </g>
     <g id="line2d_2">
      <defs>
       <path d="M 0 0 
L 0 3.5 
" id="m4abed1d830" style="stroke:#000000;stroke-width:0.8;"/>
      </defs>
      <g>
       <use style="stroke:#000000;stroke-width:0.8;" x="99" xlink:href="#m4abed1d830" y="544.68"/>
      </g>
     </g>
    </g>
    <g id="xtick_2">
     <g id="line2d_3">
      <path clip-path="url(#p68e2955192)" d="M 124.077432 544.68 
L 124.077432 73.44 
" style="fill:none;stroke:#b0b0b0;stroke-linecap:square;stroke-width:0.8;"/>
     </g>
     <g id="line2d_4">
      <g>
       <use style="stroke:#000000;stroke-width:0.8;" x="124.077432" xlink:href="#m4abed1d830" y="544.68"/>
      </g>
     </g>
     <g id="text_1">
      <!-- Apr -->
      <g transform="translate(115.427432 559.278437)scale(0.1 -0.1)">
       <defs>
        <path d="M 2188 4044 
L 1331 1722 
L 3047 1722 
L 2188 4044 
z
M 1831 4666 
L 2547 4666 
L 4325 0 
L 3669 0 
L 3244 1197 
L 1141 1197 
L 716 0 
L 50 0 
L 1831 4666 
z
" id="DejaVuSans-41" transform="scale(0.015625)"/>
        <path d="M 1159 525 
L 1159 -1331 
L 581 -1331 
L 581 3500 
L 1159 3500 
L 1159 2969 
Q 1341 3281 1617 3432 
Q 1894 3584 2278 3584 
Q 2916 3584 3314 3078 
Q 3713 2572 3713 1747 
Q 3713 922 3314 415 
Q 2916 -91 2278 -91 
Q 1894 -91 1617 61 
Q 1341 213 1159 525 
z
M 3116 1747 
Q 3116 2381 2855 2742 
Q 2594 3103 2138 3103 
Q 1681 3103 1420 2742 
Q 1159 2381 1159 1747 
Q 1159 1113 1420 752 
Q 1681 391 2138 391 
Q 2594 391 2855 752 
Q 3116 1113 3116 1747 
z
" id="DejaVuSans-70" transform="scale(0.015625)"/>
        <path d="M 2631 2963 
Q 2534 3019 2420 3045 
Q 2306 3072 2169 3072 
Q 1681 3072 1420 2755 
Q 1159 2438 1159 1844 
L 1159 0 
L 581 0 
L 581 3500 
L 1159 3500 
L 1159 2956 
Q 1341 3275 1631 3429 
Q 1922 3584 2338 3584 
Q 2397 3584 2469 3576 
Q 2541 3569 2628 3553 
L 2631 2963 
z
" id="DejaVuSans-72" transform="scale(0.015625)"/>
       </defs>
       <use xlink:href="#DejaVuSans-41"/>
       <use x="68.408203" xlink:href="#DejaVuSans-70"/>
       <use x="131.884766" xlink:href="#DejaVuSans-72"/>
      </g>
     </g>
    </g>
    <g id="xtick_3">
     <g id="line2d_5">
      <path clip-path="url(#p68e2955192)" d="M 232.746304 544.68 
L 232.746304 73.44 
" style="fill:none;stroke:#b0b0b0;stroke-linecap:square;stroke-width:0.8;"/>
     </g>
     <g id="line2d_6">
      <g>
       <use style="stroke:#000000;stroke-width:0.8;" x="232.746304" xlink:href="#m4abed1d830" y="544.68"/>
      </g>
     </g>
     <g id="text_2">
      <!-- Jul -->
      <g transform="translate(226.713491 559.278437)scale(0.1 -0.1)">
       <defs>
        <path d="M 628 4666 
L 1259 4666 
L 1259 325 
Q 1259 -519 939 -900 
Q 619 -1281 -91 -1281 
L -331 -1281 
L -331 -750 
L -134 -750 
Q 284 -750 456 -515 
Q 628 -281 628 325 
L 628 4666 
z
" id="DejaVuSans-4a" transform="scale(0.015625)"/>
        <path d="M 544 1381 
L 544 3500 
L 1119 3500 
L 1119 1403 
Q 1119 906 1312 657 
Q 1506 409 1894 409 
Q 2359 409 2629 706 
Q 2900 1003 2900 1516 
L 2900 3500 
L 3475 3500 
L 3475 0 
L 2900 0 
L 2900 538 
Q 2691 219 2414 64 
Q 2138 -91 1772 -91 
Q 1169 -91 856 284 
Q 544 659 544 1381 
z
M 1991 3584 
L 1991 3584 
z
" id="DejaVuSans-75" transform="scale(0.015625)"/>
        <path d="M 603 4863 
L 1178 4863 
L 1178 0 
L 603 0 
L 603 4863 
z
" id="DejaVuSans-6c" transform="scale(0.015625)"/>
       </defs>
       <use xlink:href="#DejaVuSans-4a"/>
       <use x="29.492188" xlink:href="#DejaVuSans-75"/>
       <use x="92.871094" xlink:href="#DejaVuSans-6c"/>
      </g>
     </g>
    </g>
    <g id="xtick_4">
     <g id="line2d_7">
      <path clip-path="url(#p68e2955192)" d="M 342.609339 544.68 
L 342.609339 73.44 
" style="fill:none;stroke:#b0b0b0;stroke-linecap:square;stroke-width:0.8;"/>
     </g>
     <g id="line2d_8">
      <g>
       <use style="stroke:#000000;stroke-width:0.8;" x="342.609339" xlink:href="#m4abed1d830" y="544.68"/>
      </g>
     </g>
     <g id="text_3">
      <!-- Oct -->
      <g transform="translate(333.964026 559.278437)scale(0.1 -0.1)">
       <defs>
        <path d="M 2522 4238 
Q 1834 4238 1429 3725 
Q 1025 3213 1025 2328 
Q 1025 1447 1429 934 
Q 1834 422 2522 422 
Q 3209 422 3611 934 
Q 4013 1447 4013 2328 
Q 4013 3213 3611 3725 
Q 3209 4238 2522 4238 
z
M 2522 4750 
Q 3503 4750 4090 4092 
Q 4678 3434 4678 2328 
Q 4678 1225 4090 567 
Q 3503 -91 2522 -91 
Q 1538 -91 948 565 
Q 359 1222 359 2328 
Q 359 3434 948 4092 
Q 1538 4750 2522 4750 
z
" id="DejaVuSans-4f" transform="scale(0.015625)"/>
        <path d="M 3122 3366 
L 3122 2828 
Q 2878 2963 2633 3030 
Q 2388 3097 2138 3097 
Q 1578 3097 1268 2742 
Q 959 2388 959 1747 
Q 959 1106 1268 751 
Q 1578 397 2138 397 
Q 2388 397 2633 464 
Q 2878 531 3122 666 
L 3122 134 
Q 2881 22 2623 -34 
Q 2366 -91 2075 -91 
Q 1284 -91 818 406 
Q 353 903 353 1747 
Q 353 2603 823 3093 
Q 1294 3584 2113 3584 
Q 2378 3584 2631 3529 
Q 2884 3475 3122 3366 
z
" id="DejaVuSans-63" transform="scale(0.015625)"/>
        <path d="M 1172 4494 
L 1172 3500 
L 2356 3500 
L 2356 3053 
L 1172 3053 
L 1172 1153 
Q 1172 725 1289 603 
Q 1406 481 1766 481 
L 2356 481 
L 2356 0 
L 1766 0 
Q 1100 0 847 248 
Q 594 497 594 1153 
L 594 3053 
L 172 3053 
L 172 3500 
L 594 3500 
L 594 4494 
L 1172 4494 
z
" id="DejaVuSans-74" transform="scale(0.015625)"/>
       </defs>
       <use xlink:href="#DejaVuSans-4f"/>
       <use x="78.710938" xlink:href="#DejaVuSans-63"/>
       <use x="133.691406" xlink:href="#DejaVuSans-74"/>
      </g>
     </g>
    </g>
    <g id="xtick_5">
     <g id="line2d_9">
      <path clip-path="url(#p68e2955192)" d="M 452.472374 544.68 
L 452.472374 73.44 
" style="fill:none;stroke:#b0b0b0;stroke-linecap:square;stroke-width:0.8;"/>
     </g>
     <g id="line2d_10">
      <g>
       <use style="stroke:#000000;stroke-width:0.8;" x="452.472374" xlink:href="#m4abed1d830" y="544.68"/>
      </g>
     </g>
     <g id="text_4">
      <!-- Jan -->
      <g transform="translate(444.764561 559.278437)scale(0.1 -0.1)">
       <defs>
        <path d="M 2194 1759 
Q 1497 1759 1228 1600 
Q 959 1441 959 1056 
Q 959 750 1161 570 
Q 1363 391 1709 391 
Q 2188 391 2477 730 
Q 2766 1069 2766 1631 
L 2766 1759 
L 2194 1759 
z
M 3341 1997 
L 3341 0 
L 2766 0 
L 2766 531 
Q 2569 213 2275 61 
Q 1981 -91 1556 -91 
Q 1019 -91 701 211 
Q 384 513 384 1019 
Q 384 1609 779 1909 
Q 1175 2209 1959 2209 
L 2766 2209 
L 2766 2266 
Q 2766 2663 2505 2880 
Q 2244 3097 1772 3097 
Q 1472 3097 1187 3025 
Q 903 2953 641 2809 
L 641 3341 
Q 956 3463 1253 3523 
Q 1550 3584 1831 3584 
Q 2591 3584 2966 3190 
Q 3341 2797 3341 1997 
z
" id="DejaVuSans-61" transform="scale(0.015625)"/>
        <path d="M 3513 2113 
L 3513 0 
L 2938 0 
L 2938 2094 
Q 2938 2591 2744 2837 
Q 2550 3084 2163 3084 
Q 1697 3084 1428 2787 
Q 1159 2491 1159 1978 
L 1159 0 
L 581 0 
L 581 3500 
L 1159 3500 
L 1159 2956 
Q 1366 3272 1645 3428 
Q 1925 3584 2291 3584 
Q 2894 3584 3203 3211 
Q 3513 2838 3513 2113 
z
" id="DejaVuSans-6e" transform="scale(0.015625)"/>
       </defs>
       <use xlink:href="#DejaVuSans-4a"/>
       <use x="29.492188" xlink:href="#DejaVuSans-61"/>
       <use x="90.771484" xlink:href="#DejaVuSans-6e"/>
      </g>
      <!-- 2021 -->
      <g transform="translate(439.747374 570.47625)scale(0.1 -0.1)">
       <defs>
        <path d="M 1228 531 
L 3431 531 
L 3431 0 
L 469 0 
L 469 531 
Q 828 903 1448 1529 
Q 2069 2156 2228 2338 
Q 2531 2678 2651 2914 
Q 2772 3150 2772 3378 
Q 2772 3750 2511 3984 
Q 2250 4219 1831 4219 
Q 1534 4219 1204 4116 
Q 875 4013 500 3803 
L 500 4441 
Q 881 4594 1212 4672 
Q 1544 4750 1819 4750 
Q 2544 4750 2975 4387 
Q 3406 4025 3406 3419 
Q 3406 3131 3298 2873 
Q 3191 2616 2906 2266 
Q 2828 2175 2409 1742 
Q 1991 1309 1228 531 
z
" id="DejaVuSans-32" transform="scale(0.015625)"/>
        <path d="M 2034 4250 
Q 1547 4250 1301 3770 
Q 1056 3291 1056 2328 
Q 1056 1369 1301 889 
Q 1547 409 2034 409 
Q 2525 409 2770 889 
Q 3016 1369 3016 2328 
Q 3016 3291 2770 3770 
Q 2525 4250 2034 4250 
z
M 2034 4750 
Q 2819 4750 3233 4129 
Q 3647 3509 3647 2328 
Q 3647 1150 3233 529 
Q 2819 -91 2034 -91 
Q 1250 -91 836 529 
Q 422 1150 422 2328 
Q 422 3509 836 4129 
Q 1250 4750 2034 4750 
z
" id="DejaVuSans-30" transform="scale(0.015625)"/>
        <path d="M 794 531 
L 1825 531 
L 1825 4091 
L 703 3866 
L 703 4441 
L 1819 4666 
L 2450 4666 
L 2450 531 
L 3481 531 
L 3481 0 
L 794 0 
L 794 531 
z
" id="DejaVuSans-31" transform="scale(0.015625)"/>
       </defs>
       <use xlink:href="#DejaVuSans-32"/>
       <use x="63.623047" xlink:href="#DejaVuSans-30"/>
       <use x="127.246094" xlink:href="#DejaVuSans-32"/>
       <use x="190.869141" xlink:href="#DejaVuSans-31"/>
      </g>
     </g>
    </g>
    <g id="xtick_6">
     <g id="line2d_11">
      <path clip-path="url(#p68e2955192)" d="M 559.947082 544.68 
L 559.947082 73.44 
" style="fill:none;stroke:#b0b0b0;stroke-linecap:square;stroke-width:0.8;"/>
     </g>
     <g id="line2d_12">
      <g>
       <use style="stroke:#000000;stroke-width:0.8;" x="559.947082" xlink:href="#m4abed1d830" y="544.68"/>
      </g>
     </g>
     <g id="text_5">
      <!-- Apr -->
      <g transform="translate(551.297082 559.278437)scale(0.1 -0.1)">
       <use xlink:href="#DejaVuSans-41"/>
       <use x="68.408203" xlink:href="#DejaVuSans-70"/>
       <use x="131.884766" xlink:href="#DejaVuSans-72"/>
      </g>
     </g>
    </g>
    <g id="xtick_7">
     <g id="line2d_13">
      <path clip-path="url(#p68e2955192)" d="M 668.615953 544.68 
L 668.615953 73.44 
" style="fill:none;stroke:#b0b0b0;stroke-linecap:square;stroke-width:0.8;"/>
     </g>
     <g id="line2d_14">
      <g>
       <use style="stroke:#000000;stroke-width:0.8;" x="668.615953" xlink:href="#m4abed1d830" y="544.68"/>
      </g>
     </g>
     <g id="text_6">
      <!-- Jul -->
      <g transform="translate(662.583141 559.278437)scale(0.1 -0.1)">
       <use xlink:href="#DejaVuSans-4a"/>
       <use x="29.492188" xlink:href="#DejaVuSans-75"/>
       <use x="92.871094" xlink:href="#DejaVuSans-6c"/>
      </g>
     </g>
    </g>
    <g id="xtick_8">
     <g id="line2d_15">
      <path clip-path="url(#p68e2955192)" d="M 712.8 544.68 
L 712.8 73.44 
" style="fill:none;stroke:#b0b0b0;stroke-linecap:square;stroke-width:0.8;"/>
     </g>
     <g id="line2d_16">
      <g>
       <use style="stroke:#000000;stroke-width:0.8;" x="712.8" xlink:href="#m4abed1d830" y="544.68"/>
      </g>
     </g>
    </g>
    <g id="xtick_9">
     <g id="line2d_17">
      <defs>
       <path d="M 0 0 
L 0 2 
" id="mbe9820739d" style="stroke:#000000;stroke-width:0.6;"/>
      </defs>
      <g>
       <use style="stroke:#000000;stroke-width:0.6;" x="159.902335" xlink:href="#mbe9820739d" y="544.68"/>
      </g>
     </g>
    </g>
    <g id="xtick_10">
     <g id="line2d_18">
      <g>
       <use style="stroke:#000000;stroke-width:0.6;" x="196.921401" xlink:href="#mbe9820739d" y="544.68"/>
      </g>
     </g>
    </g>
    <g id="xtick_11">
     <g id="line2d_19">
      <g>
       <use style="stroke:#000000;stroke-width:0.6;" x="269.76537" xlink:href="#mbe9820739d" y="544.68"/>
      </g>
     </g>
    </g>
    <g id="xtick_12">
     <g id="line2d_20">
      <g>
       <use style="stroke:#000000;stroke-width:0.6;" x="306.784436" xlink:href="#mbe9820739d" y="544.68"/>
      </g>
     </g>
    </g>
    <g id="xtick_13">
     <g id="line2d_21">
      <g>
       <use style="stroke:#000000;stroke-width:0.6;" x="379.628405" xlink:href="#mbe9820739d" y="544.68"/>
      </g>
     </g>
    </g>
    <g id="xtick_14">
     <g id="line2d_22">
      <g>
       <use style="stroke:#000000;stroke-width:0.6;" x="415.453307" xlink:href="#mbe9820739d" y="544.68"/>
      </g>
     </g>
    </g>
    <g id="xtick_15">
     <g id="line2d_23">
      <g>
       <use style="stroke:#000000;stroke-width:0.6;" x="489.49144" xlink:href="#mbe9820739d" y="544.68"/>
      </g>
     </g>
    </g>
    <g id="xtick_16">
     <g id="line2d_24">
      <g>
       <use style="stroke:#000000;stroke-width:0.6;" x="522.928016" xlink:href="#mbe9820739d" y="544.68"/>
      </g>
     </g>
    </g>
    <g id="xtick_17">
     <g id="line2d_25">
      <g>
       <use style="stroke:#000000;stroke-width:0.6;" x="595.771984" xlink:href="#mbe9820739d" y="544.68"/>
      </g>
     </g>
    </g>
    <g id="xtick_18">
     <g id="line2d_26">
      <g>
       <use style="stroke:#000000;stroke-width:0.6;" x="632.791051" xlink:href="#mbe9820739d" y="544.68"/>
      </g>
     </g>
    </g>
    <g id="xtick_19">
     <g id="line2d_27">
      <g>
       <use style="stroke:#000000;stroke-width:0.6;" x="705.635019" xlink:href="#mbe9820739d" y="544.68"/>
      </g>
     </g>
    </g>
    <g id="text_7">
     <!-- Date -->
     <g transform="translate(393.949219 584.154375)scale(0.1 -0.1)">
      <defs>
       <path d="M 1259 4147 
L 1259 519 
L 2022 519 
Q 2988 519 3436 956 
Q 3884 1394 3884 2338 
Q 3884 3275 3436 3711 
Q 2988 4147 2022 4147 
L 1259 4147 
z
M 628 4666 
L 1925 4666 
Q 3281 4666 3915 4102 
Q 4550 3538 4550 2338 
Q 4550 1131 3912 565 
Q 3275 0 1925 0 
L 628 0 
L 628 4666 
z
" id="DejaVuSans-44" transform="scale(0.015625)"/>
       <path d="M 3597 1894 
L 3597 1613 
L 953 1613 
Q 991 1019 1311 708 
Q 1631 397 2203 397 
Q 2534 397 2845 478 
Q 3156 559 3463 722 
L 3463 178 
Q 3153 47 2828 -22 
Q 2503 -91 2169 -91 
Q 1331 -91 842 396 
Q 353 884 353 1716 
Q 353 2575 817 3079 
Q 1281 3584 2069 3584 
Q 2775 3584 3186 3129 
Q 3597 2675 3597 1894 
z
M 3022 2063 
Q 3016 2534 2758 2815 
Q 2500 3097 2075 3097 
Q 1594 3097 1305 2825 
Q 1016 2553 972 2059 
L 3022 2063 
z
" id="DejaVuSans-65" transform="scale(0.015625)"/>
      </defs>
      <use xlink:href="#DejaVuSans-44"/>
      <use x="77.001953" xlink:href="#DejaVuSans-61"/>
      <use x="138.28125" xlink:href="#DejaVuSans-74"/>
      <use x="177.490234" xlink:href="#DejaVuSans-65"/>
     </g>
    </g>
   </g>
   <g id="matplotlib.axis_2">
    <g id="ytick_1">
     <g id="line2d_28">
      <path clip-path="url(#p68e2955192)" d="M 99 485.31343 
L 712.8 485.31343 
" style="fill:none;stroke:#b0b0b0;stroke-linecap:square;stroke-width:0.8;"/>
     </g>
     <g id="line2d_29">
      <defs>
       <path d="M 0 0 
L -3.5 0 
" id="me91a084207" style="stroke:#000000;stroke-width:0.8;"/>
      </defs>
      <g>
       <use style="stroke:#000000;stroke-width:0.8;" x="99" xlink:href="#me91a084207" y="485.31343"/>
      </g>
     </g>
     <g id="text_8">
      <!-- $\mathdefault{10^{0}}$ -->
      <g transform="translate(74.4 489.112648)scale(0.1 -0.1)">
       <use transform="translate(0 0.765625)" xlink:href="#DejaVuSans-31"/>
       <use transform="translate(63.623047 0.765625)" xlink:href="#DejaVuSans-30"/>
       <use transform="translate(128.203125 39.046875)scale(0.7)" xlink:href="#DejaVuSans-30"/>
      </g>
     </g>
    </g>
    <g id="ytick_2">
     <g id="line2d_30">
      <path clip-path="url(#p68e2955192)" d="M 99 359.257652 
L 712.8 359.257652 
" style="fill:none;stroke:#b0b0b0;stroke-linecap:square;stroke-width:0.8;"/>
     </g>
     <g id="line2d_31">
      <g>
       <use style="stroke:#000000;stroke-width:0.8;" x="99" xlink:href="#me91a084207" y="359.257652"/>
      </g>
     </g>
     <g id="text_9">
      <!-- $\mathdefault{10^{1}}$ -->
      <g transform="translate(74.4 363.056871)scale(0.1 -0.1)">
       <use transform="translate(0 0.684375)" xlink:href="#DejaVuSans-31"/>
       <use transform="translate(63.623047 0.684375)" xlink:href="#DejaVuSans-30"/>
       <use transform="translate(128.203125 38.965625)scale(0.7)" xlink:href="#DejaVuSans-31"/>
      </g>
     </g>
    </g>
    <g id="ytick_3">
     <g id="line2d_32">
      <path clip-path="url(#p68e2955192)" d="M 99 233.201874 
L 712.8 233.201874 
" style="fill:none;stroke:#b0b0b0;stroke-linecap:square;stroke-width:0.8;"/>
     </g>
     <g id="line2d_33">
      <g>
       <use style="stroke:#000000;stroke-width:0.8;" x="99" xlink:href="#me91a084207" y="233.201874"/>
      </g>
     </g>
     <g id="text_10">
      <!-- $\mathdefault{10^{2}}$ -->
      <g transform="translate(74.4 237.001093)scale(0.1 -0.1)">
       <use transform="translate(0 0.765625)" xlink:href="#DejaVuSans-31"/>
       <use transform="translate(63.623047 0.765625)" xlink:href="#DejaVuSans-30"/>
       <use transform="translate(128.203125 39.046875)scale(0.7)" xlink:href="#DejaVuSans-32"/>
      </g>
     </g>
    </g>
    <g id="ytick_4">
     <g id="line2d_34">
      <path clip-path="url(#p68e2955192)" d="M 99 107.146096 
L 712.8 107.146096 
" style="fill:none;stroke:#b0b0b0;stroke-linecap:square;stroke-width:0.8;"/>
     </g>
     <g id="line2d_35">
      <g>
       <use style="stroke:#000000;stroke-width:0.8;" x="99" xlink:href="#me91a084207" y="107.146096"/>
      </g>
     </g>
     <g id="text_11">
      <!-- $\mathdefault{10^{3}}$ -->
      <g transform="translate(74.4 110.945315)scale(0.1 -0.1)">
       <defs>
        <path d="M 2597 2516 
Q 3050 2419 3304 2112 
Q 3559 1806 3559 1356 
Q 3559 666 3084 287 
Q 2609 -91 1734 -91 
Q 1441 -91 1130 -33 
Q 819 25 488 141 
L 488 750 
Q 750 597 1062 519 
Q 1375 441 1716 441 
Q 2309 441 2620 675 
Q 2931 909 2931 1356 
Q 2931 1769 2642 2001 
Q 2353 2234 1838 2234 
L 1294 2234 
L 1294 2753 
L 1863 2753 
Q 2328 2753 2575 2939 
Q 2822 3125 2822 3475 
Q 2822 3834 2567 4026 
Q 2313 4219 1838 4219 
Q 1578 4219 1281 4162 
Q 984 4106 628 3988 
L 628 4550 
Q 988 4650 1302 4700 
Q 1616 4750 1894 4750 
Q 2613 4750 3031 4423 
Q 3450 4097 3450 3541 
Q 3450 3153 3228 2886 
Q 3006 2619 2597 2516 
z
" id="DejaVuSans-33" transform="scale(0.015625)"/>
       </defs>
       <use transform="translate(0 0.765625)" xlink:href="#DejaVuSans-31"/>
       <use transform="translate(63.623047 0.765625)" xlink:href="#DejaVuSans-30"/>
       <use transform="translate(128.203125 39.046875)scale(0.7)" xlink:href="#DejaVuSans-33"/>
      </g>
     </g>
    </g>
    <g id="ytick_5">
     <g id="line2d_36">
      <path clip-path="url(#p68e2955192)" d="M 99 535.476067 
L 712.8 535.476067 
" style="fill:none;stroke:#b0b0b0;stroke-linecap:square;stroke-width:0.8;"/>
     </g>
     <g id="line2d_37">
      <defs>
       <path d="M 0 0 
L -2 0 
" id="m0cb60b688e" style="stroke:#000000;stroke-width:0.6;"/>
      </defs>
      <g>
       <use style="stroke:#000000;stroke-width:0.6;" x="99" xlink:href="#m0cb60b688e" y="535.476067"/>
      </g>
     </g>
    </g>
    <g id="ytick_6">
     <g id="line2d_38">
      <path clip-path="url(#p68e2955192)" d="M 99 523.26 
L 712.8 523.26 
" style="fill:none;stroke:#b0b0b0;stroke-linecap:square;stroke-width:0.8;"/>
     </g>
     <g id="line2d_39">
      <g>
       <use style="stroke:#000000;stroke-width:0.6;" x="99" xlink:href="#m0cb60b688e" y="523.26"/>
      </g>
     </g>
    </g>
    <g id="ytick_7">
     <g id="line2d_40">
      <path clip-path="url(#p68e2955192)" d="M 99 513.278746 
L 712.8 513.278746 
" style="fill:none;stroke:#b0b0b0;stroke-linecap:square;stroke-width:0.8;"/>
     </g>
     <g id="line2d_41">
      <g>
       <use style="stroke:#000000;stroke-width:0.6;" x="99" xlink:href="#m0cb60b688e" y="513.278746"/>
      </g>
     </g>
    </g>
    <g id="ytick_8">
     <g id="line2d_42">
      <path clip-path="url(#p68e2955192)" d="M 99 504.839717 
L 712.8 504.839717 
" style="fill:none;stroke:#b0b0b0;stroke-linecap:square;stroke-width:0.8;"/>
     </g>
     <g id="line2d_43">
      <g>
       <use style="stroke:#000000;stroke-width:0.6;" x="99" xlink:href="#m0cb60b688e" y="504.839717"/>
      </g>
     </g>
    </g>
    <g id="ytick_9">
     <g id="line2d_44">
      <path clip-path="url(#p68e2955192)" d="M 99 497.529497 
L 712.8 497.529497 
" style="fill:none;stroke:#b0b0b0;stroke-linecap:square;stroke-width:0.8;"/>
     </g>
     <g id="line2d_45">
      <g>
       <use style="stroke:#000000;stroke-width:0.6;" x="99" xlink:href="#m0cb60b688e" y="497.529497"/>
      </g>
     </g>
    </g>
    <g id="ytick_10">
     <g id="line2d_46">
      <path clip-path="url(#p68e2955192)" d="M 99 491.081426 
L 712.8 491.081426 
" style="fill:none;stroke:#b0b0b0;stroke-linecap:square;stroke-width:0.8;"/>
     </g>
     <g id="line2d_47">
      <g>
       <use style="stroke:#000000;stroke-width:0.6;" x="99" xlink:href="#m0cb60b688e" y="491.081426"/>
      </g>
     </g>
    </g>
    <g id="ytick_11">
     <g id="line2d_48">
      <path clip-path="url(#p68e2955192)" d="M 99 447.366859 
L 712.8 447.366859 
" style="fill:none;stroke:#b0b0b0;stroke-linecap:square;stroke-width:0.8;"/>
     </g>
     <g id="line2d_49">
      <g>
       <use style="stroke:#000000;stroke-width:0.6;" x="99" xlink:href="#m0cb60b688e" y="447.366859"/>
      </g>
     </g>
    </g>
    <g id="ytick_12">
     <g id="line2d_50">
      <path clip-path="url(#p68e2955192)" d="M 99 425.169539 
L 712.8 425.169539 
" style="fill:none;stroke:#b0b0b0;stroke-linecap:square;stroke-width:0.8;"/>
     </g>
     <g id="line2d_51">
      <g>
       <use style="stroke:#000000;stroke-width:0.6;" x="99" xlink:href="#m0cb60b688e" y="425.169539"/>
      </g>
     </g>
    </g>
    <g id="ytick_13">
     <g id="line2d_52">
      <path clip-path="url(#p68e2955192)" d="M 99 409.420289 
L 712.8 409.420289 
" style="fill:none;stroke:#b0b0b0;stroke-linecap:square;stroke-width:0.8;"/>
     </g>
     <g id="line2d_53">
      <g>
       <use style="stroke:#000000;stroke-width:0.6;" x="99" xlink:href="#m0cb60b688e" y="409.420289"/>
      </g>
     </g>
    </g>
    <g id="ytick_14">
     <g id="line2d_54">
      <path clip-path="url(#p68e2955192)" d="M 99 397.204222 
L 712.8 397.204222 
" style="fill:none;stroke:#b0b0b0;stroke-linecap:square;stroke-width:0.8;"/>
     </g>
     <g id="line2d_55">
      <g>
       <use style="stroke:#000000;stroke-width:0.6;" x="99" xlink:href="#m0cb60b688e" y="397.204222"/>
      </g>
     </g>
    </g>
    <g id="ytick_15">
     <g id="line2d_56">
      <path clip-path="url(#p68e2955192)" d="M 99 387.222969 
L 712.8 387.222969 
" style="fill:none;stroke:#b0b0b0;stroke-linecap:square;stroke-width:0.8;"/>
     </g>
     <g id="line2d_57">
      <g>
       <use style="stroke:#000000;stroke-width:0.6;" x="99" xlink:href="#m0cb60b688e" y="387.222969"/>
      </g>
     </g>
    </g>
    <g id="ytick_16">
     <g id="line2d_58">
      <path clip-path="url(#p68e2955192)" d="M 99 378.783939 
L 712.8 378.783939 
" style="fill:none;stroke:#b0b0b0;stroke-linecap:square;stroke-width:0.8;"/>
     </g>
     <g id="line2d_59">
      <g>
       <use style="stroke:#000000;stroke-width:0.6;" x="99" xlink:href="#m0cb60b688e" y="378.783939"/>
      </g>
     </g>
    </g>
    <g id="ytick_17">
     <g id="line2d_60">
      <path clip-path="url(#p68e2955192)" d="M 99 371.473719 
L 712.8 371.473719 
" style="fill:none;stroke:#b0b0b0;stroke-linecap:square;stroke-width:0.8;"/>
     </g>
     <g id="line2d_61">
      <g>
       <use style="stroke:#000000;stroke-width:0.6;" x="99" xlink:href="#m0cb60b688e" y="371.473719"/>
      </g>
     </g>
    </g>
    <g id="ytick_18">
     <g id="line2d_62">
      <path clip-path="url(#p68e2955192)" d="M 99 365.025648 
L 712.8 365.025648 
" style="fill:none;stroke:#b0b0b0;stroke-linecap:square;stroke-width:0.8;"/>
     </g>
     <g id="line2d_63">
      <g>
       <use style="stroke:#000000;stroke-width:0.6;" x="99" xlink:href="#m0cb60b688e" y="365.025648"/>
      </g>
     </g>
    </g>
    <g id="ytick_19">
     <g id="line2d_64">
      <path clip-path="url(#p68e2955192)" d="M 99 321.311082 
L 712.8 321.311082 
" style="fill:none;stroke:#b0b0b0;stroke-linecap:square;stroke-width:0.8;"/>
     </g>
     <g id="line2d_65">
      <g>
       <use style="stroke:#000000;stroke-width:0.6;" x="99" xlink:href="#m0cb60b688e" y="321.311082"/>
      </g>
     </g>
    </g>
    <g id="ytick_20">
     <g id="line2d_66">
      <path clip-path="url(#p68e2955192)" d="M 99 299.113761 
L 712.8 299.113761 
" style="fill:none;stroke:#b0b0b0;stroke-linecap:square;stroke-width:0.8;"/>
     </g>
     <g id="line2d_67">
      <g>
       <use style="stroke:#000000;stroke-width:0.6;" x="99" xlink:href="#m0cb60b688e" y="299.113761"/>
      </g>
     </g>
    </g>
    <g id="ytick_21">
     <g id="line2d_68">
      <path clip-path="url(#p68e2955192)" d="M 99 283.364511 
L 712.8 283.364511 
" style="fill:none;stroke:#b0b0b0;stroke-linecap:square;stroke-width:0.8;"/>
     </g>
     <g id="line2d_69">
      <g>
       <use style="stroke:#000000;stroke-width:0.6;" x="99" xlink:href="#m0cb60b688e" y="283.364511"/>
      </g>
     </g>
    </g>
    <g id="ytick_22">
     <g id="line2d_70">
      <path clip-path="url(#p68e2955192)" d="M 99 271.148444 
L 712.8 271.148444 
" style="fill:none;stroke:#b0b0b0;stroke-linecap:square;stroke-width:0.8;"/>
     </g>
     <g id="line2d_71">
      <g>
       <use style="stroke:#000000;stroke-width:0.6;" x="99" xlink:href="#m0cb60b688e" y="271.148444"/>
      </g>
     </g>
    </g>
    <g id="ytick_23">
     <g id="line2d_72">
      <path clip-path="url(#p68e2955192)" d="M 99 261.167191 
L 712.8 261.167191 
" style="fill:none;stroke:#b0b0b0;stroke-linecap:square;stroke-width:0.8;"/>
     </g>
     <g id="line2d_73">
      <g>
       <use style="stroke:#000000;stroke-width:0.6;" x="99" xlink:href="#m0cb60b688e" y="261.167191"/>
      </g>
     </g>
    </g>
    <g id="ytick_24">
     <g id="line2d_74">
      <path clip-path="url(#p68e2955192)" d="M 99 252.728161 
L 712.8 252.728161 
" style="fill:none;stroke:#b0b0b0;stroke-linecap:square;stroke-width:0.8;"/>
     </g>
     <g id="line2d_75">
      <g>
       <use style="stroke:#000000;stroke-width:0.6;" x="99" xlink:href="#m0cb60b688e" y="252.728161"/>
      </g>
     </g>
    </g>
    <g id="ytick_25">
     <g id="line2d_76">
      <path clip-path="url(#p68e2955192)" d="M 99 245.417941 
L 712.8 245.417941 
" style="fill:none;stroke:#b0b0b0;stroke-linecap:square;stroke-width:0.8;"/>
     </g>
     <g id="line2d_77">
      <g>
       <use style="stroke:#000000;stroke-width:0.6;" x="99" xlink:href="#m0cb60b688e" y="245.417941"/>
      </g>
     </g>
    </g>
    <g id="ytick_26">
     <g id="line2d_78">
      <path clip-path="url(#p68e2955192)" d="M 99 238.96987 
L 712.8 238.96987 
" style="fill:none;stroke:#b0b0b0;stroke-linecap:square;stroke-width:0.8;"/>
     </g>
     <g id="line2d_79">
      <g>
       <use style="stroke:#000000;stroke-width:0.6;" x="99" xlink:href="#m0cb60b688e" y="238.96987"/>
      </g>
     </g>
    </g>
    <g id="ytick_27">
     <g id="line2d_80">
      <path clip-path="url(#p68e2955192)" d="M 99 195.255304 
L 712.8 195.255304 
" style="fill:none;stroke:#b0b0b0;stroke-linecap:square;stroke-width:0.8;"/>
     </g>
     <g id="line2d_81">
      <g>
       <use style="stroke:#000000;stroke-width:0.6;" x="99" xlink:href="#m0cb60b688e" y="195.255304"/>
      </g>
     </g>
    </g>
    <g id="ytick_28">
     <g id="line2d_82">
      <path clip-path="url(#p68e2955192)" d="M 99 173.057983 
L 712.8 173.057983 
" style="fill:none;stroke:#b0b0b0;stroke-linecap:square;stroke-width:0.8;"/>
     </g>
     <g id="line2d_83">
      <g>
       <use style="stroke:#000000;stroke-width:0.6;" x="99" xlink:href="#m0cb60b688e" y="173.057983"/>
      </g>
     </g>
    </g>
    <g id="ytick_29">
     <g id="line2d_84">
      <path clip-path="url(#p68e2955192)" d="M 99 157.308734 
L 712.8 157.308734 
" style="fill:none;stroke:#b0b0b0;stroke-linecap:square;stroke-width:0.8;"/>
     </g>
     <g id="line2d_85">
      <g>
       <use style="stroke:#000000;stroke-width:0.6;" x="99" xlink:href="#m0cb60b688e" y="157.308734"/>
      </g>
     </g>
    </g>
    <g id="ytick_30">
     <g id="line2d_86">
      <path clip-path="url(#p68e2955192)" d="M 99 145.092667 
L 712.8 145.092667 
" style="fill:none;stroke:#b0b0b0;stroke-linecap:square;stroke-width:0.8;"/>
     </g>
     <g id="line2d_87">
      <g>
       <use style="stroke:#000000;stroke-width:0.6;" x="99" xlink:href="#m0cb60b688e" y="145.092667"/>
      </g>
     </g>
    </g>
    <g id="ytick_31">
     <g id="line2d_88">
      <path clip-path="url(#p68e2955192)" d="M 99 135.111413 
L 712.8 135.111413 
" style="fill:none;stroke:#b0b0b0;stroke-linecap:square;stroke-width:0.8;"/>
     </g>
     <g id="line2d_89">
      <g>
       <use style="stroke:#000000;stroke-width:0.6;" x="99" xlink:href="#m0cb60b688e" y="135.111413"/>
      </g>
     </g>
    </g>
    <g id="ytick_32">
     <g id="line2d_90">
      <path clip-path="url(#p68e2955192)" d="M 99 126.672383 
L 712.8 126.672383 
" style="fill:none;stroke:#b0b0b0;stroke-linecap:square;stroke-width:0.8;"/>
     </g>
     <g id="line2d_91">
      <g>
       <use style="stroke:#000000;stroke-width:0.6;" x="99" xlink:href="#m0cb60b688e" y="126.672383"/>
      </g>
     </g>
    </g>
    <g id="ytick_33">
     <g id="line2d_92">
      <path clip-path="url(#p68e2955192)" d="M 99 119.362163 
L 712.8 119.362163 
" style="fill:none;stroke:#b0b0b0;stroke-linecap:square;stroke-width:0.8;"/>
     </g>
     <g id="line2d_93">
      <g>
       <use style="stroke:#000000;stroke-width:0.6;" x="99" xlink:href="#m0cb60b688e" y="119.362163"/>
      </g>
     </g>
    </g>
    <g id="ytick_34">
     <g id="line2d_94">
      <path clip-path="url(#p68e2955192)" d="M 99 112.914092 
L 712.8 112.914092 
" style="fill:none;stroke:#b0b0b0;stroke-linecap:square;stroke-width:0.8;"/>
     </g>
     <g id="line2d_95">
      <g>
       <use style="stroke:#000000;stroke-width:0.6;" x="99" xlink:href="#m0cb60b688e" y="112.914092"/>
      </g>
     </g>
    </g>
   </g>
   <g id="line2d_96">
    <path clip-path="url(#p68e2955192)" d="M 114.522556 613 
L 114.524125 447.366859 
L 116.912451 447.366859 
L 119.300778 402.972218 
L 121.689105 402.972218 
L 122.883268 391.986435 
L 124.077432 375.006902 
L 125.271595 368.154804 
L 126.465759 359.257652 
L 127.659922 351.606338 
L 128.854086 351.606338 
L 130.048249 347.041585 
L 131.242412 347.041585 
L 132.436576 349.276398 
L 133.630739 344.894434 
L 134.824903 344.894434 
L 136.019066 338.916283 
L 137.21323 331.842544 
L 138.407393 331.842544 
L 139.601556 338.916283 
L 140.79572 338.916283 
L 141.989883 344.894434 
L 144.37821 354.039865 
L 145.572374 356.586618 
L 146.766537 362.06572 
L 147.9607 356.586618 
L 149.154864 356.586618 
L 150.349027 362.06572 
L 151.543191 362.06572 
L 152.737354 368.154804 
L 153.931518 368.154804 
L 155.125681 365.025648 
L 156.319844 356.586618 
L 157.514008 365.025648 
L 158.708171 356.586618 
L 159.902335 356.586618 
L 161.096498 351.606338 
L 162.290661 356.586618 
L 163.484825 351.606338 
L 164.678988 365.025648 
L 165.873152 351.606338 
L 167.067315 351.606338 
L 168.261479 362.06572 
L 169.455642 362.06572 
L 170.649805 365.025648 
L 171.843969 365.025648 
L 173.038132 368.154804 
L 174.232296 365.025648 
L 177.814786 365.025648 
L 179.008949 362.06572 
L 180.203113 356.586618 
L 181.397276 354.039865 
L 182.59144 356.586618 
L 183.785603 351.606338 
L 187.368093 351.606338 
L 188.562257 347.041585 
L 189.75642 347.041585 
L 190.950584 351.606338 
L 193.338911 351.606338 
L 194.533074 356.586618 
L 195.727237 359.257652 
L 196.921401 359.257652 
L 198.115564 368.154804 
L 199.309728 378.783939 
L 205.280545 378.783939 
L 206.474708 375.006902 
L 210.057198 375.006902 
L 211.251362 365.025648 
L 212.445525 359.257652 
L 214.833852 359.257652 
L 216.028016 354.039865 
L 217.222179 347.041585 
L 218.416342 335.265242 
L 219.610506 335.265242 
L 220.804669 327.079078 
L 221.998833 325.579112 
L 223.192996 318.640048 
L 224.38716 312.482404 
L 225.581323 312.482404 
L 226.775486 310.201018 
L 227.96965 310.201018 
L 229.163813 309.095015 
L 230.357977 305.905064 
L 231.55214 301.921829 
L 233.940467 301.921829 
L 235.13463 299.113761 
L 238.717121 299.113761 
L 239.911284 294.731797 
L 242.299611 294.731797 
L 243.493774 298.208859 
L 244.687938 294.731797 
L 245.882101 294.731797 
L 247.076265 293.895974 
L 248.270428 293.895974 
L 249.464591 292.261664 
L 250.658755 292.261664 
L 251.852918 290.674731 
L 253.047082 286.897694 
L 255.435409 286.897694 
L 256.629572 283.364511 
L 259.017899 280.693478 
L 260.212062 276.311514 
L 261.406226 280.693478 
L 262.600389 280.693478 
L 263.794553 278.146724 
L 266.182879 278.146724 
L 267.377043 273.956513 
L 270.959533 273.956513 
L 272.153696 278.146724 
L 273.34786 280.693478 
L 274.542023 282.684436 
L 275.736187 283.364511 
L 276.93035 283.364511 
L 278.124514 284.053141 
L 279.318677 284.053141 
L 280.51284 284.750543 
L 281.707004 284.750543 
L 282.901167 286.17258 
L 284.095331 288.377388 
L 288.871984 288.377388 
L 290.066148 289.132507 
L 291.260311 289.132507 
L 292.454475 286.897694 
L 294.842802 286.897694 
L 296.036965 287.632542 
L 298.425292 287.632542 
L 299.619455 282.012706 
L 300.813619 282.012706 
L 303.201946 286.17258 
L 305.590272 289.132507 
L 307.978599 289.132507 
L 309.172763 293.07272 
L 311.561089 293.07272 
L 312.755253 300.033872 
L 313.949416 300.033872 
L 315.14358 295.580578 
L 318.72607 295.580578 
L 319.920233 291.462448 
L 321.114397 284.750543 
L 322.30856 276.311514 
L 323.502724 275.713198 
L 325.891051 273.383258 
L 328.279377 273.383258 
L 329.473541 272.815944 
L 330.667704 263.975259 
L 331.861868 263.975259 
L 333.056031 253.914027 
L 334.250195 250.807075 
L 335.444358 245.761173 
L 336.638521 245.761173 
L 337.832685 239.889981 
L 339.026848 237.174781 
L 341.415175 237.174781 
L 343.803502 224.140732 
L 344.997665 221.425531 
L 346.191829 219.261402 
L 347.385992 219.261402 
L 348.580156 217.589659 
L 349.774319 218.838656 
L 350.968482 218.838656 
L 352.162646 217.589659 
L 354.550973 217.589659 
L 355.745136 215.967457 
L 356.9393 214.781591 
L 358.133463 212.484247 
L 359.327626 209.741838 
L 360.52179 207.814603 
L 361.715953 207.814603 
L 362.910117 202.098278 
L 364.10428 197.490117 
L 365.298444 196.501143 
L 367.68677 192.324197 
L 368.880934 192.324197 
L 370.075097 191.551309 
L 371.269261 188.685712 
L 372.463424 183.478961 
L 373.657588 179.746091 
L 374.851751 177.129088 
L 376.045914 175.292797 
L 377.240078 172.332869 
L 378.434241 172.332869 
L 379.628405 168.59186 
L 380.822568 167.098713 
L 382.016732 164.540802 
L 383.210895 158.275259 
L 384.405058 157.997363 
L 386.793385 157.997363 
L 387.987549 153.989819 
L 389.181712 153.989819 
L 390.375875 152.779576 
L 391.570039 152.779576 
L 392.764202 151.104517 
L 393.958366 151.104517 
L 395.152529 145.53239 
L 396.346693 137.298725 
L 397.540856 130.226425 
L 398.735019 126.711501 
L 399.929183 126.16638 
L 401.123346 121.63263 
L 403.511673 121.63263 
L 404.705837 120.016155 
L 405.9 116.560939 
L 407.094163 120.016155 
L 408.288327 118.547081 
L 409.48249 120.713113 
L 413.064981 120.713113 
L 414.259144 118.749717 
L 415.453307 120.713113 
L 416.647471 124.337555 
L 417.841634 131.878441 
L 419.035798 133.759608 
L 420.229961 133.759608 
L 421.424125 138.353396 
L 423.812451 138.353396 
L 425.006615 141.902716 
L 428.589105 141.902716 
L 429.783268 145.642875 
L 430.977432 148.305615 
L 432.171595 152.84261 
L 434.559922 158.275259 
L 436.948249 158.275259 
L 438.142412 160.988099 
L 439.336576 160.988099 
L 440.530739 170.648264 
L 441.724903 175.483215 
L 442.919066 176.058478 
L 444.11323 178.421953 
L 445.307393 176.058478 
L 446.501556 178.421953 
L 447.69572 178.421953 
L 448.889883 182.278118 
L 450.084047 185.27405 
L 451.27821 185.27405 
L 452.472374 191.423548 
L 453.666537 191.423548 
L 454.8607 185.27405 
L 456.054864 185.27405 
L 457.249027 183.589446 
L 458.443191 183.589446 
L 459.637354 177.424743 
L 460.831518 174.913935 
L 462.025681 177.424743 
L 464.414008 177.424743 
L 465.608171 174.913935 
L 466.802335 174.913935 
L 467.996498 170.998636 
L 470.384825 170.998636 
L 471.578988 171.617234 
L 472.773152 171.617234 
L 473.967315 175.578674 
L 475.161479 183.589446 
L 476.355642 181.740868 
L 477.549805 191.168919 
L 478.743969 191.168919 
L 479.938132 181.740868 
L 481.132296 191.168919 
L 482.326459 192.324197 
L 483.520623 192.324197 
L 484.714786 193.903499 
L 485.908949 193.108153 
L 487.103113 193.108153 
L 488.297276 193.903499 
L 489.49144 200.118398 
L 490.685603 206.960524 
L 491.879767 207.642718 
L 493.07393 207.642718 
L 494.268093 210.099651 
L 495.462257 210.099651 
L 496.65642 220.332774 
L 499.044747 220.332774 
L 500.238911 239.274859 
L 501.433074 229.754298 
L 502.627237 230.011924 
L 503.821401 230.011924 
L 505.015564 240.200154 
L 506.209728 260.71287 
L 507.403891 247.156034 
L 508.598054 249.317315 
L 509.792218 256.36572 
L 512.180545 256.36572 
L 513.374708 238.96987 
L 522.928016 238.96987 
L 524.122179 246.106571 
L 525.316342 246.106571 
L 526.510506 250.430817 
L 528.898833 250.430817 
L 530.092996 258.932377 
L 531.28716 258.932377 
L 532.481323 253.515877 
L 534.86965 253.515877 
L 536.063813 258.932377 
L 539.646304 258.932377 
L 540.840467 261.167191 
L 542.03463 261.167191 
L 543.228794 275.121351 
L 549.199611 275.121351 
L 550.393774 261.167191 
L 551.587938 280.693478 
L 552.782101 270.064343 
L 556.364591 270.064343 
L 557.558755 263.497131 
L 558.752918 263.497131 
L 559.947082 251.567439 
L 561.141245 258.063386 
L 564.723735 258.063386 
L 565.917899 255.949404 
L 567.112062 255.949404 
L 568.306226 247.867022 
L 569.500389 250.807075 
L 573.082879 250.807075 
L 574.277043 247.867022 
L 576.66537 250.057128 
L 582.636187 250.057128 
L 583.83035 254.71912 
L 585.024514 254.71912 
L 586.218677 252.728161 
L 589.801167 252.728161 
L 590.995331 257.207972 
L 592.189494 252.338513 
L 593.383658 254.71912 
L 594.577821 251.567439 
L 599.354475 251.567439 
L 600.548638 251.185937 
L 607.713619 251.185937 
L 608.907782 251.951619 
L 610.101946 251.185937 
L 611.296109 249.685971 
L 614.878599 249.685971 
L 616.072763 247.510374 
L 618.461089 247.510374 
L 619.655253 252.338513 
L 623.237743 252.338513 
L 624.431907 251.567439 
L 625.62607 246.803973 
L 626.820233 246.803973 
L 628.014397 245.417941 
L 630.402724 245.417941 
L 631.596887 251.567439 
L 635.179377 251.567439 
L 636.373541 247.867022 
L 639.956031 247.867022 
L 641.150195 248.587366 
L 642.344358 248.587366 
L 643.538521 251.951619 
L 647.121012 251.951619 
L 648.315175 248.587366 
L 649.509339 251.951619 
L 650.703502 251.951619 
L 651.897665 253.120602 
L 653.091829 255.12615 
L 665.033463 255.12615 
L 666.227626 253.914027 
L 667.42179 251.567439 
L 668.615953 251.567439 
L 669.810117 250.430817 
L 672.198444 250.430817 
L 673.392607 251.567439 
L 674.58677 251.567439 
L 676.975097 236.881239 
L 684.140078 236.881239 
L 685.334241 235.722565 
L 688.916732 235.722565 
L 690.110895 235.152296 
L 691.305058 235.152296 
L 692.499222 233.752083 
L 693.693385 233.752083 
L 694.887549 231.318557 
L 698.470039 231.318557 
L 699.664202 224.606652 
L 700.858366 224.606652 
L 702.052529 222.992989 
L 703.246693 214.97746 
L 706.829183 214.97746 
L 709.21751 206.622589 
L 710.411673 203.512153 
L 711.605837 199.22821 
L 712.8 199.22821 
L 712.8 199.22821 
" style="fill:none;stroke:#1f77b4;stroke-linecap:square;stroke-width:1.5;"/>
   </g>
   <g id="line2d_97">
    <path clip-path="url(#p68e2955192)" d="M 192.143897 613 
L 192.144747 523.26 
L 193.338911 523.26 
L 194.533074 485.31343 
L 195.727237 523.26 
L 198.115564 523.26 
L 198.116415 613 
L 198.116415 613 
" style="fill:none;stroke:#ff7f0e;stroke-linecap:square;stroke-width:1.5;"/>
   </g>
   <g id="patch_3">
    <path d="M 99 544.68 
L 99 73.44 
" style="fill:none;stroke:#000000;stroke-linecap:square;stroke-linejoin:miter;stroke-width:0.8;"/>
   </g>
   <g id="patch_4">
    <path d="M 712.8 544.68 
L 712.8 73.44 
" style="fill:none;stroke:#000000;stroke-linecap:square;stroke-linejoin:miter;stroke-width:0.8;"/>
   </g>
   <g id="patch_5">
    <path d="M 99 544.68 
L 712.8 544.68 
" style="fill:none;stroke:#000000;stroke-linecap:square;stroke-linejoin:miter;stroke-width:0.8;"/>
   </g>
   <g id="patch_6">
    <path d="M 99 73.44 
L 712.8 73.44 
" style="fill:none;stroke:#000000;stroke-linecap:square;stroke-linejoin:miter;stroke-width:0.8;"/>
   </g>
   <g id="legend_1">
    <g id="patch_7">
     <path d="M 616.653125 110.79625 
L 705.8 110.79625 
Q 707.8 110.79625 707.8 108.79625 
L 707.8 80.44 
Q 707.8 78.44 705.8 78.44 
L 616.653125 78.44 
Q 614.653125 78.44 614.653125 80.44 
L 614.653125 108.79625 
Q 614.653125 110.79625 616.653125 110.79625 
z
" style="fill:#ffffff;opacity:0.8;stroke:#cccccc;stroke-linejoin:miter;"/>
    </g>
    <g id="line2d_98">
     <path d="M 618.653125 86.538437 
L 638.653125 86.538437 
" style="fill:none;stroke:#1f77b4;stroke-linecap:square;stroke-width:1.5;"/>
    </g>
    <g id="line2d_99"/>
    <g id="text_12">
     <!-- Avg Cases -->
     <g transform="translate(646.653125 90.038437)scale(0.1 -0.1)">
      <defs>
       <path d="M 191 3500 
L 800 3500 
L 1894 563 
L 2988 3500 
L 3597 3500 
L 2284 0 
L 1503 0 
L 191 3500 
z
" id="DejaVuSans-76" transform="scale(0.015625)"/>
       <path d="M 2906 1791 
Q 2906 2416 2648 2759 
Q 2391 3103 1925 3103 
Q 1463 3103 1205 2759 
Q 947 2416 947 1791 
Q 947 1169 1205 825 
Q 1463 481 1925 481 
Q 2391 481 2648 825 
Q 2906 1169 2906 1791 
z
M 3481 434 
Q 3481 -459 3084 -895 
Q 2688 -1331 1869 -1331 
Q 1566 -1331 1297 -1286 
Q 1028 -1241 775 -1147 
L 775 -588 
Q 1028 -725 1275 -790 
Q 1522 -856 1778 -856 
Q 2344 -856 2625 -561 
Q 2906 -266 2906 331 
L 2906 616 
Q 2728 306 2450 153 
Q 2172 0 1784 0 
Q 1141 0 747 490 
Q 353 981 353 1791 
Q 353 2603 747 3093 
Q 1141 3584 1784 3584 
Q 2172 3584 2450 3431 
Q 2728 3278 2906 2969 
L 2906 3500 
L 3481 3500 
L 3481 434 
z
" id="DejaVuSans-67" transform="scale(0.015625)"/>
       <path id="DejaVuSans-20" transform="scale(0.015625)"/>
       <path d="M 4122 4306 
L 4122 3641 
Q 3803 3938 3442 4084 
Q 3081 4231 2675 4231 
Q 1875 4231 1450 3742 
Q 1025 3253 1025 2328 
Q 1025 1406 1450 917 
Q 1875 428 2675 428 
Q 3081 428 3442 575 
Q 3803 722 4122 1019 
L 4122 359 
Q 3791 134 3420 21 
Q 3050 -91 2638 -91 
Q 1578 -91 968 557 
Q 359 1206 359 2328 
Q 359 3453 968 4101 
Q 1578 4750 2638 4750 
Q 3056 4750 3426 4639 
Q 3797 4528 4122 4306 
z
" id="DejaVuSans-43" transform="scale(0.015625)"/>
       <path d="M 2834 3397 
L 2834 2853 
Q 2591 2978 2328 3040 
Q 2066 3103 1784 3103 
Q 1356 3103 1142 2972 
Q 928 2841 928 2578 
Q 928 2378 1081 2264 
Q 1234 2150 1697 2047 
L 1894 2003 
Q 2506 1872 2764 1633 
Q 3022 1394 3022 966 
Q 3022 478 2636 193 
Q 2250 -91 1575 -91 
Q 1294 -91 989 -36 
Q 684 19 347 128 
L 347 722 
Q 666 556 975 473 
Q 1284 391 1588 391 
Q 1994 391 2212 530 
Q 2431 669 2431 922 
Q 2431 1156 2273 1281 
Q 2116 1406 1581 1522 
L 1381 1569 
Q 847 1681 609 1914 
Q 372 2147 372 2553 
Q 372 3047 722 3315 
Q 1072 3584 1716 3584 
Q 2034 3584 2315 3537 
Q 2597 3491 2834 3397 
z
" id="DejaVuSans-73" transform="scale(0.015625)"/>
      </defs>
      <use xlink:href="#DejaVuSans-41"/>
      <use x="62.533203" xlink:href="#DejaVuSans-76"/>
      <use x="121.712891" xlink:href="#DejaVuSans-67"/>
      <use x="185.189453" xlink:href="#DejaVuSans-20"/>
      <use x="216.976562" xlink:href="#DejaVuSans-43"/>
      <use x="286.800781" xlink:href="#DejaVuSans-61"/>
      <use x="348.080078" xlink:href="#DejaVuSans-73"/>
      <use x="400.179688" xlink:href="#DejaVuSans-65"/>
      <use x="461.703125" xlink:href="#DejaVuSans-73"/>
     </g>
    </g>
    <g id="line2d_100">
     <path d="M 618.653125 101.216562 
L 638.653125 101.216562 
" style="fill:none;stroke:#ff7f0e;stroke-linecap:square;stroke-width:1.5;"/>
    </g>
    <g id="line2d_101"/>
    <g id="text_13">
     <!-- Avg Deaths -->
     <g transform="translate(646.653125 104.716562)scale(0.1 -0.1)">
      <defs>
       <path d="M 3513 2113 
L 3513 0 
L 2938 0 
L 2938 2094 
Q 2938 2591 2744 2837 
Q 2550 3084 2163 3084 
Q 1697 3084 1428 2787 
Q 1159 2491 1159 1978 
L 1159 0 
L 581 0 
L 581 4863 
L 1159 4863 
L 1159 2956 
Q 1366 3272 1645 3428 
Q 1925 3584 2291 3584 
Q 2894 3584 3203 3211 
Q 3513 2838 3513 2113 
z
" id="DejaVuSans-68" transform="scale(0.015625)"/>
      </defs>
      <use xlink:href="#DejaVuSans-41"/>
      <use x="62.533203" xlink:href="#DejaVuSans-76"/>
      <use x="121.712891" xlink:href="#DejaVuSans-67"/>
      <use x="185.189453" xlink:href="#DejaVuSans-20"/>
      <use x="216.976562" xlink:href="#DejaVuSans-44"/>
      <use x="293.978516" xlink:href="#DejaVuSans-65"/>
      <use x="355.501953" xlink:href="#DejaVuSans-61"/>
      <use x="416.78125" xlink:href="#DejaVuSans-74"/>
      <use x="455.990234" xlink:href="#DejaVuSans-68"/>
      <use x="519.369141" xlink:href="#DejaVuSans-73"/>
     </g>
    </g>
   </g>
  </g>
 </g>
 <defs>
  <clipPath id="p68e2955192">
   <rect height="471.24" width="613.8" x="99" y="73.44"/>
  </clipPath>
 </defs>
</svg>
