<?xml version="1.0" encoding="utf-8" standalone="no"?>
<!DOCTYPE svg PUBLIC "-//W3C//DTD SVG 1.1//EN"
  "http://www.w3.org/Graphics/SVG/1.1/DTD/svg11.dtd">
<svg height="612pt" version="1.1" viewBox="0 0 792 612" width="792pt" xmlns="http://www.w3.org/2000/svg" xmlns:xlink="http://www.w3.org/1999/xlink">
 <metadata>
  <rdf:RDF xmlns:cc="http://creativecommons.org/ns#" xmlns:dc="http://purl.org/dc/elements/1.1/" xmlns:rdf="http://www.w3.org/1999/02/22-rdf-syntax-ns#">
   <cc:Work>
    <dc:type rdf:resource="http://purl.org/dc/dcmitype/StillImage"/>
    <dc:format>image/svg+xml</dc:format>
    <dc:creator>
     <cc:Agent>
      <dc:title>Matplotlib v3.4.2, https://matplotlib.org/</dc:title>
     </cc:Agent>
    </dc:creator>
   </cc:Work>
  </rdf:RDF>
 </metadata>
 <defs>
  <style type="text/css">*{stroke-linecap:butt;stroke-linejoin:round;}</style>
 </defs>
 <g id="figure_1">
  <g id="patch_1">
   <path d="M 0 612 
L 792 612 
L 792 0 
L 0 0 
z
" style="fill:#ffffff;"/>
  </g>
  <g id="axes_1">
   <g id="patch_2">
    <path d="M 99 544.68 
L 712.8 544.68 
L 712.8 73.44 
L 99 73.44 
z
" style="fill:#ffffff;"/>
   </g>
   <g id="PolyCollection_1">
    <path clip-path="url(#p68e2955192)" d="M 99 126541.091253 
L 99 126541.091253 
L 100.180385 126541.091253 
L 101.360769 126541.091253 
L 102.541154 126541.091253 
L 103.721538 126541.091253 
L 104.901923 126541.091253 
L 106.082308 126541.091253 
L 107.262692 126541.091253 
L 108.443077 126541.091253 
L 109.623462 126541.091253 
L 110.803846 126541.091253 
L 111.984231 126541.091253 
L 113.164615 126541.091253 
L 114.345 383.689786 
L 115.525385 368.802685 
L 116.705769 368.802685 
L 117.886154 353.544429 
L 119.066538 350.66243 
L 120.246923 350.66243 
L 121.427308 350.66243 
L 122.607692 332.847074 
L 123.788077 327.999189 
L 124.968462 327.999189 
L 126.148846 327.999189 
L 127.329231 319.163931 
L 128.509615 319.163931 
L 129.69 319.163931 
L 130.870385 319.163931 
L 132.050769 319.163931 
L 133.231154 311.102196 
L 134.411538 311.102196 
L 135.591923 310.424926 
L 136.772308 310.424926 
L 137.952692 310.424926 
L 139.133077 314.378536 
L 140.313462 314.378536 
L 141.493846 314.378536 
L 142.674231 314.378536 
L 143.854615 315.106866 
L 145.035 315.106866 
L 146.215385 315.106866 
L 147.395769 315.106866 
L 148.576154 315.106866 
L 149.756538 320.22698 
L 150.936923 319.427764 
L 152.117308 322.138483 
L 153.297692 322.138483 
L 154.478077 322.138483 
L 155.658462 322.138483 
L 156.838846 322.978581 
L 158.019231 322.978581 
L 159.199615 322.978581 
L 160.38 322.978581 
L 161.560385 322.978581 
L 162.740769 322.978581 
L 163.921154 322.978581 
L 165.101538 312.482404 
L 166.281923 312.482404 
L 167.462308 313.89831 
L 168.642692 313.89831 
L 169.823077 328.935029 
L 171.003462 334.563369 
L 172.183846 339.295145 
L 173.364231 339.295145 
L 174.544615 344.894434 
L 175.725 339.295145 
L 176.905385 316.093295 
L 178.085769 316.093295 
L 179.266154 316.093295 
L 180.446538 316.093295 
L 181.626923 339.295145 
L 182.807308 338.166335 
L 183.987692 338.166335 
L 185.168077 338.166335 
L 186.348462 338.166335 
L 187.528846 316.093295 
L 188.709231 316.093295 
L 189.889615 316.093295 
L 191.07 315.351811 
L 192.250385 315.351811 
L 193.430769 334.563369 
L 194.611154 334.563369 
L 195.791538 334.563369 
L 196.971923 334.563369 
L 198.152308 334.563369 
L 199.332692 334.563369 
L 200.513077 334.563369 
L 201.693462 334.563369 
L 202.873846 334.563369 
L 204.054231 339.295145 
L 205.234615 339.295145 
L 206.415 339.295145 
L 207.595385 339.295145 
L 208.775769 331.842544 
L 209.956154 317.351863 
L 211.136538 317.351863 
L 212.316923 316.593255 
L 213.497308 316.593255 
L 214.677692 310.424926 
L 215.858077 303.28324 
L 217.038462 300.969713 
L 218.218846 300.969713 
L 219.399231 300.969713 
L 220.579615 299.66397 
L 221.76 299.66397 
L 222.940385 299.66397 
L 224.120769 295.409766 
L 225.301154 284.331037 
L 226.481538 284.331037 
L 227.661923 284.331037 
L 228.842308 284.331037 
L 230.022692 282.684436 
L 231.203077 282.684436 
L 232.383462 282.684436 
L 233.563846 282.684436 
L 234.744231 282.684436 
L 235.924615 282.684436 
L 237.105 281.085919 
L 238.285385 281.085919 
L 239.465769 281.085919 
L 240.646154 283.638925 
L 241.826538 288.078232 
L 243.006923 283.638925 
L 244.187308 283.638925 
L 245.367692 282.012706 
L 246.548077 275.832339 
L 247.728462 275.832339 
L 248.908846 275.832339 
L 250.089231 275.121351 
L 251.269615 275.121351 
L 252.45 275.121351 
L 253.630385 272.590654 
L 254.810769 270.712224 
L 255.991154 270.387325 
L 257.171538 264.360791 
L 258.351923 262.366378 
L 259.532308 262.366378 
L 260.712692 262.366378 
L 261.893077 262.366378 
L 263.073462 260.803433 
L 264.253846 260.803433 
L 265.434231 260.803433 
L 266.614615 260.803433 
L 267.795 260.803433 
L 268.975385 260.803433 
L 270.155769 262.366378 
L 271.336154 262.366378 
L 272.516538 262.366378 
L 273.696923 263.023142 
L 274.877308 266.8339 
L 276.057692 266.8339 
L 277.238077 266.8339 
L 278.418462 267.444449 
L 279.598846 279.788576 
L 280.779231 279.788576 
L 281.959615 281.481194 
L 283.14 279.788576 
L 284.320385 278.898388 
L 285.500769 266.430618 
L 286.681154 266.130094 
L 287.861538 266.130094 
L 289.041923 258.932377 
L 290.222308 258.932377 
L 291.402692 258.932377 
L 292.583077 258.932377 
L 293.763462 258.932377 
L 294.943846 258.932377 
L 296.124231 258.932377 
L 297.304615 258.932377 
L 298.485 258.932377 
L 299.665385 262.928835 
L 300.845769 262.928835 
L 302.026154 266.732801 
L 303.206538 266.732801 
L 304.386923 266.732801 
L 305.567308 272.815944 
L 306.747692 272.815944 
L 307.928077 272.815944 
L 309.108462 272.815944 
L 310.288846 272.815944 
L 311.469231 272.815944 
L 312.649615 271.148444 
L 313.83 271.809362 
L 315.010385 271.809362 
L 316.190769 260.71287 
L 317.371154 260.71287 
L 318.551538 260.71287 
L 319.731923 260.71287 
L 320.912308 260.71287 
L 322.092692 253.357425 
L 323.273077 244.400971 
L 324.453462 237.588401 
L 325.633846 237.588401 
L 326.814231 236.705867 
L 327.994615 236.705867 
L 329.175 236.705867 
L 330.355385 224.094357 
L 331.535769 217.343243 
L 332.716154 217.343243 
L 333.896538 217.343243 
L 335.076923 211.776404 
L 336.257308 211.776404 
L 337.437692 211.776404 
L 338.618077 211.776404 
L 339.798462 211.776404 
L 340.978846 211.776404 
L 342.159231 210.135562 
L 343.339615 210.135562 
L 344.52 210.135562 
L 345.700385 210.135562 
L 346.880769 211.739401 
L 348.061154 206.487997 
L 349.241538 199.375573 
L 350.421923 199.375573 
L 351.602308 200.448461 
L 352.782692 197.376183 
L 353.963077 197.376183 
L 355.143462 193.371986 
L 356.323846 192.976712 
L 357.504231 186.660082 
L 358.684615 186.660082 
L 359.865 186.660082 
L 361.045385 178.201003 
L 362.225769 178.201003 
L 363.406154 175.140937 
L 364.586538 175.140937 
L 365.766923 170.840691 
L 366.947308 170.840691 
L 368.127692 170.840691 
L 369.308077 158.025089 
L 370.488462 157.734663 
L 371.668846 157.281368 
L 372.849231 156.426273 
L 374.029615 152.968897 
L 375.21 152.968897 
L 376.390385 152.968897 
L 377.570769 151.892234 
L 378.751154 150.909347 
L 379.931538 150.909347 
L 381.111923 150.909347 
L 382.292308 145.059829 
L 383.472692 145.059829 
L 384.653077 130.27652 
L 385.833462 125.96528 
L 387.013846 112.24303 
L 388.194231 112.24303 
L 389.374615 103.324551 
L 390.555 103.324551 
L 391.735385 103.324551 
L 392.915769 103.324551 
L 394.096154 103.324551 
L 395.276538 97.443841 
L 396.456923 97.443841 
L 397.637308 97.443841 
L 398.817692 97.443841 
L 399.998077 97.443841 
L 401.178462 97.443841 
L 402.358846 94.86 
L 403.539231 96.552396 
L 404.719615 96.552396 
L 405.9 98.550874 
L 407.080385 97.82576 
L 408.260769 97.82576 
L 409.441154 97.82576 
L 410.621538 97.82576 
L 411.801923 107.343535 
L 412.982308 107.343535 
L 414.162692 107.343535 
L 415.343077 109.770069 
L 416.523462 109.770069 
L 417.703846 109.770069 
L 418.884231 118.560567 
L 420.064615 118.560567 
L 421.245 120.622005 
L 422.425385 120.622005 
L 423.605769 127.317472 
L 424.786154 127.317472 
L 425.966538 127.317472 
L 427.146923 129.45576 
L 428.327308 129.45576 
L 429.507692 132.214911 
L 430.688077 132.44907 
L 431.868462 131.90425 
L 433.048846 131.90425 
L 434.229231 131.90425 
L 435.409615 140.838872 
L 436.59 141.882061 
L 437.770385 141.882061 
L 438.950769 141.882061 
L 440.131154 150.243705 
L 441.311538 147.993015 
L 442.491923 147.993015 
L 443.672308 145.378085 
L 444.852692 145.378085 
L 446.033077 145.378085 
L 447.213462 145.378085 
L 448.393846 147.993015 
L 449.574231 147.993015 
L 450.754615 147.993015 
L 451.935 150.982454 
L 453.115385 150.982454 
L 454.295769 150.982454 
L 455.476154 150.982454 
L 456.656538 147.202166 
L 457.836923 151.239102 
L 459.017308 151.239102 
L 460.197692 151.239102 
L 461.378077 141.102901 
L 462.558462 141.102901 
L 463.738846 141.102901 
L 464.919231 141.102901 
L 466.099615 141.102901 
L 467.28 141.102901 
L 468.460385 141.102901 
L 469.640769 141.102901 
L 470.821154 141.102901 
L 472.001538 141.102901 
L 473.181923 143.188196 
L 474.362308 143.188196 
L 475.542692 143.188196 
L 476.723077 158.428705 
L 477.903462 166.853767 
L 479.083846 166.853767 
L 480.264231 171.174666 
L 481.444615 171.174666 
L 482.625 171.174666 
L 483.805385 171.174666 
L 484.985769 175.292797 
L 486.166154 175.292797 
L 487.346538 175.292797 
L 488.526923 183.7445 
L 489.707308 183.7445 
L 490.887692 183.7445 
L 492.068077 191.653732 
L 493.248462 191.653732 
L 494.428846 191.653732 
L 495.609231 195.364904 
L 496.789615 195.364904 
L 497.97 202.879252 
L 499.150385 202.879252 
L 500.330769 207.780183 
L 501.511154 207.780183 
L 502.691538 202.879252 
L 503.871923 203.163152 
L 505.052308 213.889511 
L 506.232692 209.03315 
L 507.413077 209.03315 
L 508.593462 209.03315 
L 509.773846 214.781591 
L 510.954231 214.781591 
L 512.134615 214.781591 
L 513.315 196.529152 
L 514.495385 196.529152 
L 515.675769 196.529152 
L 516.856154 196.529152 
L 518.036538 196.529152 
L 519.216923 210.713354 
L 520.397308 210.713354 
L 521.577692 210.713354 
L 522.758077 215.887595 
L 523.938462 215.887595 
L 525.118846 216.732012 
L 526.299231 212.747356 
L 527.479615 212.747356 
L 528.66 212.747356 
L 529.840385 220.246288 
L 531.020769 235.837335 
L 532.201154 235.837335 
L 533.381538 235.837335 
L 534.561923 220.246288 
L 535.742308 220.246288 
L 536.922692 220.246288 
L 538.103077 220.246288 
L 539.283462 219.730224 
L 540.463846 219.730224 
L 541.644231 219.730224 
L 542.824615 216.813117 
L 544.005 216.813117 
L 545.185385 216.813117 
L 546.365769 216.813117 
L 547.546154 213.966509 
L 548.726538 213.966509 
L 549.906923 213.966509 
L 551.087308 215.3318 
L 552.267692 215.3318 
L 553.448077 215.3318 
L 554.628462 215.3318 
L 555.808846 215.3318 
L 556.989231 215.3318 
L 558.169615 215.3318 
L 559.35 225.741311 
L 560.530385 225.455434 
L 561.710769 225.455434 
L 562.891154 223.770829 
L 564.071538 234.084882 
L 565.251923 234.084882 
L 566.432308 234.084882 
L 567.612692 234.084882 
L 568.793077 234.084882 
L 569.973462 234.084882 
L 571.153846 234.084882 
L 572.334231 234.084882 
L 573.514615 234.084882 
L 574.695 234.084882 
L 575.875385 228.836757 
L 577.055769 228.836757 
L 578.236154 228.836757 
L 579.416538 229.908728 
L 580.596923 229.908728 
L 581.777308 229.908728 
L 582.957692 229.908728 
L 584.138077 229.908728 
L 585.318462 229.908728 
L 586.498846 225.789103 
L 587.679231 225.789103 
L 588.859615 225.789103 
L 590.04 225.789103 
L 591.220385 225.789103 
L 592.400769 223.129454 
L 593.581154 223.129454 
L 594.761538 223.129454 
L 595.941923 223.129454 
L 597.122308 223.129454 
L 598.302692 223.129454 
L 599.483077 223.129454 
L 600.663462 217.384236 
L 601.843846 217.384236 
L 603.024231 219.901706 
L 604.204615 219.007363 
L 605.385 219.007363 
L 606.565385 219.007363 
L 607.745769 219.007363 
L 608.926154 219.007363 
L 610.106538 219.007363 
L 611.286923 219.007363 
L 612.467308 213.851053 
L 613.647692 213.851053 
L 614.828077 213.851053 
L 616.008462 213.851053 
L 617.188846 214.314345 
L 618.369231 214.314345 
L 619.549615 214.314345 
L 620.73 214.314345 
L 621.910385 214.314345 
L 623.090769 214.314345 
L 624.271154 214.314345 
L 625.451538 220.854576 
L 626.631923 197.804664 
L 627.812308 197.804664 
L 628.992692 219.303857 
L 630.173077 219.303857 
L 631.353462 219.303857 
L 632.533846 219.303857 
L 633.714231 215.569307 
L 634.894615 215.569307 
L 636.075 215.569307 
L 637.255385 215.569307 
L 638.435769 215.569307 
L 639.616154 215.569307 
L 640.796538 215.569307 
L 641.976923 214.391943 
L 643.157308 224.606652 
L 644.337692 224.606652 
L 645.518077 225.598186 
L 646.698462 225.598186 
L 647.878846 225.598186 
L 649.059231 225.598186 
L 650.239615 225.598186 
L 651.42 225.598186 
L 652.600385 225.598186 
L 653.780769 225.598186 
L 654.961154 225.455434 
L 656.141538 225.455434 
L 657.321923 225.455434 
L 658.502308 219.176591 
L 659.682692 219.176591 
L 660.863077 219.176591 
L 662.043462 219.176591 
L 663.223846 219.176591 
L 664.404231 219.176591 
L 665.584615 219.176591 
L 666.765 232.332882 
L 667.945385 216.853714 
L 669.125769 216.853714 
L 670.306154 214.005048 
L 671.486538 214.005048 
L 672.666923 214.005048 
L 673.847308 214.005048 
L 675.027692 207.883508 
L 676.208077 207.883508 
L 677.388462 207.883508 
L 678.568846 207.883508 
L 679.749231 207.883508 
L 680.929615 207.883508 
L 682.11 207.883508 
L 683.290385 200.478566 
L 684.470769 207.574115 
L 685.651154 205.853165 
L 686.831538 205.35713 
L 688.011923 205.35713 
L 689.192308 205.35713 
L 690.372692 205.35713 
L 691.553077 202.222487 
L 692.733462 200.478566 
L 693.913846 200.478566 
L 695.094231 196.417199 
L 696.274615 196.417199 
L 697.455 196.417199 
L 698.635385 196.417199 
L 699.815769 174.462734 
L 700.996154 172.422985 
L 702.176538 171.777438 
L 703.356923 171.777438 
L 704.537308 171.563936 
L 705.717692 171.563936 
L 706.898077 171.563936 
L 708.078462 166.593694 
L 709.258846 166.593694 
L 710.439231 166.593694 
L 711.619615 162.396655 
L 712.8 162.396655 
L 712.8 191.730676 
L 712.8 191.730676 
L 711.619615 209.280149 
L 710.439231 209.280149 
L 709.258846 126541.091253 
L 708.078462 126541.091253 
L 706.898077 126541.091253 
L 705.717692 126541.091253 
L 704.537308 126541.091253 
L 703.356923 126541.091253 
L 702.176538 126541.091253 
L 700.996154 126541.091253 
L 699.815769 126541.091253 
L 698.635385 126541.091253 
L 697.455 126541.091253 
L 696.274615 126541.091253 
L 695.094231 126541.091253 
L 693.913846 126541.091253 
L 692.733462 260.083089 
L 691.553077 260.083089 
L 690.372692 260.083089 
L 689.192308 260.083089 
L 688.011923 260.083089 
L 686.831538 260.083089 
L 685.651154 260.083089 
L 684.470769 260.083089 
L 683.290385 260.083089 
L 682.11 126541.091253 
L 680.929615 126541.091253 
L 679.749231 126541.091253 
L 678.568846 126541.091253 
L 677.388462 126541.091253 
L 676.208077 126541.091253 
L 675.027692 126541.091253 
L 673.847308 126541.091253 
L 672.666923 126541.091253 
L 671.486538 126541.091253 
L 670.306154 126541.091253 
L 669.125769 126541.091253 
L 667.945385 126541.091253 
L 666.765 126541.091253 
L 665.584615 264.264153 
L 664.404231 264.264153 
L 663.223846 264.264153 
L 662.043462 264.264153 
L 660.863077 262.553223 
L 659.682692 270.712224 
L 658.502308 270.712224 
L 657.321923 270.712224 
L 656.141538 270.712224 
L 654.961154 270.712224 
L 653.780769 270.712224 
L 652.600385 270.712224 
L 651.42 270.712224 
L 650.239615 270.712224 
L 649.059231 270.712224 
L 647.878846 270.712224 
L 646.698462 270.712224 
L 645.518077 270.712224 
L 644.337692 270.712224 
L 643.157308 260.083089 
L 641.976923 259.283873 
L 640.796538 126541.091253 
L 639.616154 126541.091253 
L 638.435769 126541.091253 
L 637.255385 126541.091253 
L 636.075 126541.091253 
L 634.894615 126541.091253 
L 633.714231 126541.091253 
L 632.533846 126541.091253 
L 631.353462 126541.091253 
L 630.173077 126541.091253 
L 628.992692 126541.091253 
L 627.812308 126541.091253 
L 626.631923 126541.091253 
L 625.451538 126541.091253 
L 624.271154 270.712224 
L 623.090769 270.712224 
L 621.910385 270.712224 
L 620.73 270.712224 
L 619.549615 270.712224 
L 618.369231 270.712224 
L 617.188846 270.712224 
L 616.008462 270.712224 
L 614.828077 270.712224 
L 613.647692 270.712224 
L 612.467308 270.712224 
L 611.286923 270.712224 
L 610.106538 268.791138 
L 608.926154 268.791138 
L 607.745769 268.791138 
L 606.565385 268.791138 
L 605.385 268.791138 
L 604.204615 268.791138 
L 603.024231 268.791138 
L 601.843846 258.496157 
L 600.663462 262.553223 
L 599.483077 262.553223 
L 598.302692 262.553223 
L 597.122308 262.553223 
L 595.941923 262.553223 
L 594.761538 262.553223 
L 593.581154 265.140097 
L 592.400769 265.140097 
L 591.220385 265.140097 
L 590.04 265.140097 
L 588.859615 265.140097 
L 587.679231 265.140097 
L 586.498846 265.140097 
L 585.318462 269.743255 
L 584.138077 269.743255 
L 582.957692 269.743255 
L 581.777308 269.743255 
L 580.596923 269.743255 
L 579.416538 269.743255 
L 578.236154 269.743255 
L 577.055769 269.743255 
L 575.875385 269.743255 
L 574.695 269.743255 
L 573.514615 269.743255 
L 572.334231 269.743255 
L 571.153846 269.743255 
L 569.973462 269.743255 
L 568.793077 268.791138 
L 567.612692 281.481194 
L 566.432308 281.481194 
L 565.251923 281.481194 
L 564.071538 281.481194 
L 562.891154 281.481194 
L 561.710769 299.66397 
L 560.530385 299.66397 
L 559.35 299.66397 
L 558.169615 299.66397 
L 556.989231 299.66397 
L 555.808846 299.66397 
L 554.628462 299.66397 
L 553.448077 304.881757 
L 552.267692 304.881757 
L 551.087308 314.863011 
L 549.906923 314.863011 
L 548.726538 314.863011 
L 547.546154 314.863011 
L 546.365769 314.863011 
L 545.185385 314.863011 
L 544.005 314.863011 
L 542.824615 314.863011 
L 541.644231 314.863011 
L 540.463846 314.863011 
L 539.283462 314.863011 
L 538.103077 314.863011 
L 536.922692 314.863011 
L 535.742308 314.863011 
L 534.561923 286.461474 
L 533.381538 286.461474 
L 532.201154 278.396134 
L 531.020769 278.396134 
L 529.840385 278.396134 
L 528.66 278.396134 
L 527.479615 278.146724 
L 526.299231 278.146724 
L 525.118846 278.146724 
L 523.938462 278.146724 
L 522.758077 278.146724 
L 521.577692 278.146724 
L 520.397308 278.146724 
L 519.216923 278.146724 
L 518.036538 278.146724 
L 516.856154 278.146724 
L 515.675769 278.146724 
L 514.495385 278.146724 
L 513.315 278.146724 
L 512.134615 278.146724 
L 510.954231 278.146724 
L 509.773846 275.95174 
L 508.593462 275.95174 
L 507.413077 282.684436 
L 506.232692 278.396134 
L 505.052308 278.396134 
L 503.871923 278.396134 
L 502.691538 278.396134 
L 501.511154 278.396134 
L 500.330769 275.95174 
L 499.150385 275.95174 
L 497.97 275.95174 
L 496.789615 275.95174 
L 495.609231 275.95174 
L 494.428846 260.803433 
L 493.248462 252.650009 
L 492.068077 252.650009 
L 490.887692 240.137979 
L 489.707308 240.137979 
L 488.526923 240.137979 
L 487.346538 240.137979 
L 486.166154 240.137979 
L 484.985769 214.97746 
L 483.805385 210.243434 
L 482.625 210.243434 
L 481.444615 207.814603 
L 480.264231 207.814603 
L 479.083846 206.286727 
L 477.903462 206.286727 
L 476.723077 195.750242 
L 475.542692 193.2663 
L 474.362308 195.888523 
L 473.181923 195.888523 
L 472.001538 193.2663 
L 470.821154 193.2663 
L 469.640769 191.705016 
L 468.460385 191.016707 
L 467.28 191.016707 
L 466.099615 191.016707 
L 464.919231 191.016707 
L 463.738846 192.142878 
L 462.558462 192.142878 
L 461.378077 193.796783 
L 460.197692 193.796783 
L 459.017308 193.796783 
L 457.836923 193.796783 
L 456.656538 190.512371 
L 455.476154 193.796783 
L 454.295769 209.920452 
L 453.115385 209.920452 
L 451.935 209.920452 
L 450.754615 209.920452 
L 449.574231 209.920452 
L 448.393846 222.540546 
L 447.213462 204.313709 
L 446.033077 204.313709 
L 444.852692 204.313709 
L 443.672308 204.313709 
L 442.491923 204.313709 
L 441.311538 185.548464 
L 440.131154 204.313709 
L 438.950769 185.548464 
L 437.770385 180.997467 
L 436.59 180.997467 
L 435.409615 176.972055 
L 434.229231 176.972055 
L 433.048846 175.216814 
L 431.868462 175.216814 
L 430.688077 175.216814 
L 429.507692 167.328322 
L 428.327308 161.252215 
L 427.146923 156.412807 
L 425.966538 156.412807 
L 424.786154 156.412807 
L 423.605769 156.412807 
L 422.425385 156.412807 
L 421.245 156.412807 
L 420.064615 147.487387 
L 418.884231 146.46747 
L 417.703846 146.46747 
L 416.523462 142.400782 
L 415.343077 142.400782 
L 414.162692 142.400782 
L 412.982308 142.400782 
L 411.801923 142.400782 
L 410.621538 139.202178 
L 409.441154 139.202178 
L 408.260769 134.702355 
L 407.080385 134.593787 
L 405.9 134.593787 
L 404.719615 127.428372 
L 403.539231 134.593787 
L 402.358846 127.428372 
L 401.178462 127.428372 
L 399.998077 127.428372 
L 398.817692 127.428372 
L 397.637308 127.428372 
L 396.456923 134.593787 
L 395.276538 142.057875 
L 394.096154 150.945888 
L 392.915769 151.830283 
L 391.735385 153.989819 
L 390.555 154.768201 
L 389.374615 154.768201 
L 388.194231 162.381637 
L 387.013846 162.381637 
L 385.833462 163.244263 
L 384.653077 163.244263 
L 383.472692 166.38329 
L 382.292308 166.38329 
L 381.111923 166.38329 
L 379.931538 168.980067 
L 378.751154 170.057732 
L 377.570769 178.643798 
L 376.390385 178.643798 
L 375.21 179.029116 
L 374.029615 181.399774 
L 372.849231 181.399774 
L 371.668846 186.683482 
L 370.488462 191.347035 
L 369.308077 191.910633 
L 368.127692 193.134479 
L 366.947308 195.9994 
L 365.766923 198.613581 
L 364.586538 198.613581 
L 363.406154 198.613581 
L 362.225769 206.994433 
L 361.045385 209.03315 
L 359.865 211.004553 
L 358.684615 214.469651 
L 357.504231 214.469651 
L 356.323846 215.490023 
L 355.143462 216.934999 
L 353.963077 218.502794 
L 352.782692 219.346344 
L 351.602308 220.203096 
L 350.421923 220.203096 
L 349.241538 220.203096 
L 348.061154 221.161273 
L 346.880769 221.161273 
L 345.700385 221.161273 
L 344.52 223.03844 
L 343.339615 227.58738 
L 342.159231 239.458671 
L 340.978846 250.505862 
L 339.798462 250.505862 
L 338.618077 250.505862 
L 337.437692 250.505862 
L 336.257308 250.505862 
L 335.076923 253.199429 
L 333.896538 272.590654 
L 332.716154 272.590654 
L 331.535769 272.590654 
L 330.355385 273.61184 
L 329.175 273.61184 
L 327.994615 273.61184 
L 326.814231 275.713198 
L 325.633846 277.282631 
L 324.453462 277.282631 
L 323.273077 277.282631 
L 322.092692 294.731797 
L 320.912308 294.731797 
L 319.731923 303.28324 
L 318.551538 307.37061 
L 317.371154 307.37061 
L 316.190769 311.787951 
L 315.010385 311.787951 
L 313.83 311.787951 
L 312.649615 311.787951 
L 311.469231 311.787951 
L 310.288846 311.329828 
L 309.108462 311.329828 
L 307.928077 311.329828 
L 306.747692 311.329828 
L 305.567308 311.329828 
L 304.386923 311.329828 
L 303.206538 301.921829 
L 302.026154 297.673011 
L 300.845769 297.673011 
L 299.665385 289.898189 
L 298.485 289.898189 
L 297.304615 294.228773 
L 296.124231 297.673011 
L 294.943846 297.673011 
L 293.763462 297.673011 
L 292.583077 297.673011 
L 291.402692 297.673011 
L 290.222308 297.673011 
L 289.041923 297.673011 
L 287.861538 297.673011 
L 286.681154 294.228773 
L 285.500769 294.228773 
L 284.320385 294.228773 
L 283.14 294.228773 
L 281.959615 294.228773 
L 280.779231 291.303995 
L 279.598846 289.284789 
L 278.418462 287.780702 
L 277.238077 285.032011 
L 276.057692 285.173289 
L 274.877308 284.750543 
L 273.696923 284.750543 
L 272.516538 284.750543 
L 271.336154 283.501546 
L 270.155769 283.364511 
L 268.975385 282.146395 
L 267.795 282.146395 
L 266.614615 283.501546 
L 265.434231 282.28041 
L 264.253846 282.28041 
L 263.073462 282.28041 
L 261.893077 282.28041 
L 260.712692 282.28041 
L 259.532308 282.28041 
L 258.351923 282.28041 
L 257.171538 285.456944 
L 255.991154 292.261664 
L 254.810769 293.07272 
L 253.630385 293.07272 
L 252.45 293.07272 
L 251.269615 293.07272 
L 250.089231 301.158816 
L 248.908846 301.158816 
L 247.728462 301.158816 
L 246.548077 303.086667 
L 245.367692 303.086667 
L 244.187308 303.086667 
L 243.006923 303.086667 
L 241.826538 305.288787 
L 240.646154 303.086667 
L 239.465769 303.086667 
L 238.285385 303.086667 
L 237.105 305.288787 
L 235.924615 305.288787 
L 234.744231 309.314435 
L 233.563846 309.314435 
L 232.383462 309.314435 
L 231.203077 309.314435 
L 230.022692 309.314435 
L 228.842308 311.329828 
L 227.661923 312.482404 
L 226.481538 324.408044 
L 225.301154 324.408044 
L 224.120769 327.079078 
L 222.940385 327.079078 
L 221.76 329.56793 
L 220.579615 359.257652 
L 219.399231 359.257652 
L 218.218846 359.257652 
L 217.038462 359.257652 
L 215.858077 359.257652 
L 214.677692 359.257652 
L 213.497308 360.363656 
L 212.316923 372.859751 
L 211.136538 379.571655 
L 209.956154 387.222969 
L 208.775769 387.222969 
L 207.595385 387.222969 
L 206.415 387.222969 
L 205.234615 387.222969 
L 204.054231 387.222969 
L 202.873846 387.222969 
L 201.693462 388.14308 
L 200.513077 388.14308 
L 199.332692 399.439036 
L 198.152308 399.439036 
L 196.971923 380.370871 
L 195.791538 378.783939 
L 194.611154 378.783939 
L 193.430769 360.925151 
L 192.250385 359.257652 
L 191.07 359.257652 
L 189.889615 359.257652 
L 188.709231 359.257652 
L 187.528846 359.257652 
L 186.348462 360.925151 
L 185.168077 359.807861 
L 183.987692 365.025648 
L 182.807308 365.025648 
L 181.626923 365.025648 
L 180.446538 365.025648 
L 179.266154 365.637334 
L 178.085769 365.637334 
L 176.905385 372.162349 
L 175.725 372.162349 
L 174.544615 378.783939 
L 173.364231 378.783939 
L 172.183846 378.783939 
L 171.003462 372.162349 
L 169.823077 371.473719 
L 168.642692 371.473719 
L 167.462308 372.162349 
L 166.281923 372.162349 
L 165.101538 372.162349 
L 163.921154 378.783939 
L 162.740769 378.783939 
L 161.560385 379.571655 
L 160.38 379.571655 
L 159.199615 379.571655 
L 158.019231 372.859751 
L 156.838846 388.14308 
L 155.658462 388.14308 
L 154.478077 398.310226 
L 153.297692 398.310226 
L 152.117308 398.310226 
L 150.936923 388.14308 
L 149.756538 388.14308 
L 148.576154 373.566152 
L 147.395769 365.637334 
L 146.215385 371.473719 
L 145.035 365.637334 
L 143.854615 365.637334 
L 142.674231 365.637334 
L 141.493846 365.025648 
L 140.313462 355.044394 
L 139.133077 355.044394 
L 137.952692 345.743216 
L 136.772308 345.743216 
L 135.591923 355.044394 
L 134.411538 355.044394 
L 133.231154 355.044394 
L 132.050769 365.637334 
L 130.870385 355.553657 
L 129.69 355.044394 
L 128.509615 365.637334 
L 127.329231 372.162349 
L 126.148846 382.005181 
L 124.968462 410.806321 
L 123.788077 427.02549 
L 122.607692 447.366859 
L 121.427308 447.366859 
L 120.246923 447.366859 
L 119.066538 447.366859 
L 117.886154 447.366859 
L 116.705769 450.174928 
L 115.525385 485.31343 
L 114.345 485.31343 
L 113.164615 126541.091253 
L 111.984231 126541.091253 
L 110.803846 126541.091253 
L 109.623462 126541.091253 
L 108.443077 126541.091253 
L 107.262692 126541.091253 
L 106.082308 126541.091253 
L 104.901923 126541.091253 
L 103.721538 126541.091253 
L 102.541154 126541.091253 
L 101.360769 126541.091253 
L 100.180385 126541.091253 
L 99 126541.091253 
z
" style="fill:#8080ff;fill-opacity:0.5;stroke:#8080ff;stroke-opacity:0.5;"/>
   </g>
   <g id="PolyCollection_2">
    <path clip-path="url(#p68e2955192)" d="M 99 126541.091253 
L 99 126541.091253 
L 100.180385 126541.091253 
L 101.360769 126541.091253 
L 102.541154 126541.091253 
L 103.721538 126541.091253 
L 104.901923 126541.091253 
L 106.082308 126541.091253 
L 107.262692 126541.091253 
L 108.443077 126541.091253 
L 109.623462 126541.091253 
L 110.803846 126541.091253 
L 111.984231 126541.091253 
L 113.164615 126541.091253 
L 114.345 126541.091253 
L 115.525385 126541.091253 
L 116.705769 126541.091253 
L 117.886154 126541.091253 
L 119.066538 126541.091253 
L 120.246923 126541.091253 
L 121.427308 126541.091253 
L 122.607692 126541.091253 
L 123.788077 126541.091253 
L 124.968462 126541.091253 
L 126.148846 126541.091253 
L 127.329231 126541.091253 
L 128.509615 126541.091253 
L 129.69 126541.091253 
L 130.870385 126541.091253 
L 132.050769 126541.091253 
L 133.231154 126541.091253 
L 134.411538 126541.091253 
L 135.591923 126541.091253 
L 136.772308 126541.091253 
L 137.952692 126541.091253 
L 139.133077 126541.091253 
L 140.313462 504.839717 
L 141.493846 504.839717 
L 142.674231 504.839717 
L 143.854615 504.839717 
L 145.035 504.839717 
L 146.215385 504.839717 
L 147.395769 485.31343 
L 148.576154 485.31343 
L 149.756538 485.31343 
L 150.936923 485.31343 
L 152.117308 485.31343 
L 153.297692 485.31343 
L 154.478077 485.31343 
L 155.658462 485.31343 
L 156.838846 504.839717 
L 158.019231 504.839717 
L 159.199615 504.839717 
L 160.38 504.839717 
L 161.560385 504.839717 
L 162.740769 504.839717 
L 163.921154 126541.091253 
L 165.101538 126541.091253 
L 166.281923 126541.091253 
L 167.462308 126541.091253 
L 168.642692 126541.091253 
L 169.823077 126541.091253 
L 171.003462 126541.091253 
L 172.183846 126541.091253 
L 173.364231 126541.091253 
L 174.544615 126541.091253 
L 175.725 126541.091253 
L 176.905385 126541.091253 
L 178.085769 126541.091253 
L 179.266154 504.839717 
L 180.446538 504.839717 
L 181.626923 485.31343 
L 182.807308 485.31343 
L 183.987692 485.31343 
L 185.168077 485.31343 
L 186.348462 485.31343 
L 187.528846 485.31343 
L 188.709231 485.31343 
L 189.889615 485.31343 
L 191.07 485.31343 
L 192.250385 485.31343 
L 193.430769 485.31343 
L 194.611154 485.31343 
L 195.791538 485.31343 
L 196.971923 485.31343 
L 198.152308 485.31343 
L 199.332692 485.31343 
L 200.513077 485.31343 
L 201.693462 485.31343 
L 202.873846 485.31343 
L 204.054231 485.31343 
L 205.234615 485.31343 
L 206.415 485.31343 
L 207.595385 485.31343 
L 208.775769 485.31343 
L 209.956154 504.839717 
L 211.136538 504.839717 
L 212.316923 126541.091253 
L 213.497308 126541.091253 
L 214.677692 126541.091253 
L 215.858077 126541.091253 
L 217.038462 504.839717 
L 218.218846 504.839717 
L 219.399231 504.839717 
L 220.579615 504.839717 
L 221.76 504.839717 
L 222.940385 126541.091253 
L 224.120769 126541.091253 
L 225.301154 126541.091253 
L 226.481538 126541.091253 
L 227.661923 126541.091253 
L 228.842308 126541.091253 
L 230.022692 126541.091253 
L 231.203077 126541.091253 
L 232.383462 126541.091253 
L 233.563846 126541.091253 
L 234.744231 126541.091253 
L 235.924615 126541.091253 
L 237.105 126541.091253 
L 238.285385 126541.091253 
L 239.465769 126541.091253 
L 240.646154 126541.091253 
L 241.826538 126541.091253 
L 243.006923 126541.091253 
L 244.187308 126541.091253 
L 245.367692 126541.091253 
L 246.548077 504.839717 
L 247.728462 504.839717 
L 248.908846 485.31343 
L 250.089231 485.31343 
L 251.269615 485.31343 
L 252.45 485.31343 
L 253.630385 485.31343 
L 254.810769 485.31343 
L 255.991154 485.31343 
L 257.171538 485.31343 
L 258.351923 485.31343 
L 259.532308 485.31343 
L 260.712692 485.31343 
L 261.893077 485.31343 
L 263.073462 485.31343 
L 264.253846 485.31343 
L 265.434231 504.839717 
L 266.614615 504.839717 
L 267.795 504.839717 
L 268.975385 504.839717 
L 270.155769 485.31343 
L 271.336154 504.839717 
L 272.516538 504.839717 
L 273.696923 504.839717 
L 274.877308 485.31343 
L 276.057692 485.31343 
L 277.238077 485.31343 
L 278.418462 485.31343 
L 279.598846 485.31343 
L 280.779231 485.31343 
L 281.959615 485.31343 
L 283.14 485.31343 
L 284.320385 485.31343 
L 285.500769 485.31343 
L 286.681154 485.31343 
L 287.861538 485.31343 
L 289.041923 485.31343 
L 290.222308 485.31343 
L 291.402692 437.385606 
L 292.583077 437.385606 
L 293.763462 437.385606 
L 294.943846 437.385606 
L 296.124231 437.385606 
L 297.304615 437.385606 
L 298.485 437.385606 
L 299.665385 437.385606 
L 300.845769 437.385606 
L 302.026154 437.385606 
L 303.206538 504.839717 
L 304.386923 444.695826 
L 305.567308 444.695826 
L 306.747692 444.695826 
L 307.928077 504.839717 
L 309.108462 504.839717 
L 310.288846 504.839717 
L 311.469231 504.839717 
L 312.649615 504.839717 
L 313.83 504.839717 
L 315.010385 504.839717 
L 316.190769 504.839717 
L 317.371154 504.839717 
L 318.551538 504.839717 
L 319.731923 423.374449 
L 320.912308 504.839717 
L 322.092692 504.839717 
L 323.273077 437.385606 
L 324.453462 444.695826 
L 325.633846 444.695826 
L 326.814231 444.695826 
L 327.994615 444.695826 
L 329.175 444.695826 
L 330.355385 437.385606 
L 331.535769 437.385606 
L 332.716154 437.385606 
L 333.896538 437.385606 
L 335.076923 437.385606 
L 336.257308 504.839717 
L 337.437692 504.839717 
L 338.618077 504.839717 
L 339.798462 504.839717 
L 340.978846 504.839717 
L 342.159231 504.839717 
L 343.339615 504.839717 
L 344.52 504.839717 
L 345.700385 504.839717 
L 346.880769 126541.091253 
L 348.061154 504.839717 
L 349.241538 504.839717 
L 350.421923 504.839717 
L 351.602308 504.839717 
L 352.782692 504.839717 
L 353.963077 437.385606 
L 355.143462 437.385606 
L 356.323846 504.839717 
L 357.504231 504.839717 
L 358.684615 504.839717 
L 359.865 504.839717 
L 361.045385 504.839717 
L 362.225769 437.385606 
L 363.406154 437.385606 
L 364.586538 413.688319 
L 365.766923 413.688319 
L 366.947308 413.688319 
L 368.127692 413.688319 
L 369.308077 386.318067 
L 370.488462 386.318067 
L 371.668846 386.318067 
L 372.849231 368.802685 
L 374.029615 368.802685 
L 375.21 368.802685 
L 376.390385 368.802685 
L 377.570769 368.802685 
L 378.751154 368.802685 
L 379.931538 360.925151 
L 381.111923 360.925151 
L 382.292308 360.925151 
L 383.472692 360.925151 
L 384.653077 360.925151 
L 385.833462 360.925151 
L 387.013846 352.084467 
L 388.194231 352.084467 
L 389.374615 353.544429 
L 390.555 353.544429 
L 391.735385 346.172593 
L 392.915769 346.172593 
L 394.096154 346.172593 
L 395.276538 346.172593 
L 396.456923 347.481309 
L 397.637308 334.215778 
L 398.817692 334.215778 
L 399.998077 334.215778 
L 401.178462 334.215778 
L 402.358846 321.861291 
L 403.539231 321.861291 
L 404.719615 321.861291 
L 405.9 321.861291 
L 407.080385 321.861291 
L 408.260769 325.283988 
L 409.441154 325.283988 
L 410.621538 325.283988 
L 411.801923 323.545895 
L 412.982308 323.545895 
L 414.162692 314.378536 
L 415.343077 314.378536 
L 416.523462 314.378536 
L 417.703846 314.378536 
L 418.884231 319.692875 
L 420.064615 319.692875 
L 421.245 316.593255 
L 422.425385 316.593255 
L 423.605769 314.378536 
L 424.786154 314.378536 
L 425.966538 314.378536 
L 427.146923 314.378536 
L 428.327308 314.378536 
L 429.507692 314.378536 
L 430.688077 314.378536 
L 431.868462 314.378536 
L 433.048846 314.378536 
L 434.229231 314.378536 
L 435.409615 318.379975 
L 436.59 316.093295 
L 437.770385 316.093295 
L 438.950769 316.093295 
L 440.131154 328.621302 
L 441.311538 328.621302 
L 442.491923 328.621302 
L 443.672308 314.378536 
L 444.852692 314.378536 
L 446.033077 314.378536 
L 447.213462 300.969713 
L 448.393846 300.969713 
L 449.574231 300.969713 
L 450.754615 300.969713 
L 451.935 300.969713 
L 453.115385 298.750003 
L 454.295769 298.750003 
L 455.476154 298.750003 
L 456.656538 298.750003 
L 457.836923 298.750003 
L 459.017308 298.750003 
L 460.197692 307.583213 
L 461.378077 297.495555 
L 462.558462 297.495555 
L 463.738846 307.583213 
L 464.919231 307.583213 
L 466.099615 307.583213 
L 467.28 307.583213 
L 468.460385 307.583213 
L 469.640769 304.679371 
L 470.821154 304.679371 
L 472.001538 322.417086 
L 473.181923 307.158829 
L 474.362308 307.158829 
L 475.542692 307.158829 
L 476.723077 307.158829 
L 477.903462 311.787951 
L 479.083846 311.787951 
L 480.264231 311.787951 
L 481.444615 311.787951 
L 482.625 311.787951 
L 483.805385 311.787951 
L 484.985769 311.787951 
L 486.166154 311.787951 
L 487.346538 311.787951 
L 488.526923 311.787951 
L 489.707308 328.621302 
L 490.887692 328.621302 
L 492.068077 328.621302 
L 493.248462 328.621302 
L 494.428846 333.186055 
L 495.609231 333.186055 
L 496.789615 333.186055 
L 497.97 333.186055 
L 499.150385 333.186055 
L 500.330769 333.186055 
L 501.511154 333.186055 
L 502.691538 356.586618 
L 503.871923 356.586618 
L 505.052308 356.586618 
L 506.232692 356.586618 
L 507.413077 356.586618 
L 508.593462 356.586618 
L 509.773846 356.586618 
L 510.954231 384.551935 
L 512.134615 384.551935 
L 513.315 384.551935 
L 514.495385 384.551935 
L 515.675769 384.551935 
L 516.856154 384.551935 
L 518.036538 384.551935 
L 519.216923 384.551935 
L 520.397308 384.551935 
L 521.577692 384.551935 
L 522.758077 384.551935 
L 523.938462 384.551935 
L 525.118846 384.551935 
L 526.299231 384.551935 
L 527.479615 384.551935 
L 528.66 384.551935 
L 529.840385 384.551935 
L 531.020769 384.551935 
L 532.201154 384.551935 
L 533.381538 384.551935 
L 534.561923 384.551935 
L 535.742308 466.893147 
L 536.922692 466.893147 
L 538.103077 466.893147 
L 539.283462 466.893147 
L 540.463846 466.893147 
L 541.644231 466.893147 
L 542.824615 466.893147 
L 544.005 466.893147 
L 545.185385 466.893147 
L 546.365769 466.893147 
L 547.546154 466.893147 
L 548.726538 466.893147 
L 549.906923 466.893147 
L 551.087308 466.893147 
L 552.267692 126541.091253 
L 553.448077 466.893147 
L 554.628462 466.893147 
L 555.808846 466.893147 
L 556.989231 466.893147 
L 558.169615 466.893147 
L 559.35 466.893147 
L 560.530385 504.839717 
L 561.710769 504.839717 
L 562.891154 504.839717 
L 564.071538 504.839717 
L 565.251923 504.839717 
L 566.432308 504.839717 
L 567.612692 504.839717 
L 568.793077 456.264012 
L 569.973462 504.839717 
L 571.153846 504.839717 
L 572.334231 504.839717 
L 573.514615 504.839717 
L 574.695 504.839717 
L 575.875385 504.839717 
L 577.055769 466.893147 
L 578.236154 466.893147 
L 579.416538 466.893147 
L 580.596923 466.893147 
L 581.777308 466.893147 
L 582.957692 466.893147 
L 584.138077 466.893147 
L 585.318462 466.893147 
L 586.498846 466.893147 
L 587.679231 466.893147 
L 588.859615 466.893147 
L 590.04 466.893147 
L 591.220385 466.893147 
L 592.400769 466.893147 
L 593.581154 466.893147 
L 594.761538 466.893147 
L 595.941923 466.893147 
L 597.122308 466.893147 
L 598.302692 466.893147 
L 599.483077 466.893147 
L 600.663462 466.893147 
L 601.843846 466.893147 
L 603.024231 466.893147 
L 604.204615 466.893147 
L 605.385 466.893147 
L 606.565385 466.893147 
L 607.745769 466.893147 
L 608.926154 466.893147 
L 610.106538 504.839717 
L 611.286923 504.839717 
L 612.467308 504.839717 
L 613.647692 504.839717 
L 614.828077 504.839717 
L 616.008462 504.839717 
L 617.188846 504.839717 
L 618.369231 504.839717 
L 619.549615 504.839717 
L 620.73 504.839717 
L 621.910385 504.839717 
L 623.090769 504.839717 
L 624.271154 504.839717 
L 625.451538 504.839717 
L 626.631923 504.839717 
L 627.812308 504.839717 
L 628.992692 504.839717 
L 630.173077 504.839717 
L 631.353462 504.839717 
L 632.533846 504.839717 
L 633.714231 504.839717 
L 634.894615 504.839717 
L 636.075 504.839717 
L 637.255385 504.839717 
L 638.435769 504.839717 
L 639.616154 504.839717 
L 640.796538 504.839717 
L 641.976923 504.839717 
L 643.157308 416.730509 
L 644.337692 416.730509 
L 645.518077 416.730509 
L 646.698462 416.730509 
L 647.878846 416.730509 
L 649.059231 416.730509 
L 650.239615 416.730509 
L 651.42 126541.091253 
L 652.600385 406.749256 
L 653.780769 406.749256 
L 654.961154 406.749256 
L 656.141538 406.749256 
L 657.321923 406.749256 
L 658.502308 406.749256 
L 659.682692 406.749256 
L 660.863077 406.749256 
L 662.043462 406.749256 
L 663.223846 406.749256 
L 664.404231 406.749256 
L 665.584615 406.749256 
L 666.765 406.749256 
L 667.945385 392.990965 
L 669.125769 428.946576 
L 670.306154 428.946576 
L 671.486538 428.946576 
L 672.666923 428.946576 
L 673.847308 428.946576 
L 675.027692 428.946576 
L 676.208077 428.946576 
L 677.388462 428.946576 
L 678.568846 428.946576 
L 679.749231 428.946576 
L 680.929615 428.946576 
L 682.11 428.946576 
L 683.290385 428.946576 
L 684.470769 406.749256 
L 685.651154 406.749256 
L 686.831538 406.749256 
L 688.011923 406.749256 
L 689.192308 406.749256 
L 690.372692 406.749256 
L 691.553077 406.749256 
L 692.733462 406.749256 
L 693.913846 406.749256 
L 695.094231 406.749256 
L 696.274615 406.749256 
L 697.455 406.749256 
L 698.635385 406.749256 
L 699.815769 406.749256 
L 700.996154 378.783939 
L 702.176538 378.783939 
L 703.356923 378.783939 
L 704.537308 378.783939 
L 705.717692 378.783939 
L 706.898077 378.783939 
L 708.078462 378.783939 
L 709.258846 398.310226 
L 710.439231 398.310226 
L 711.619615 398.310226 
L 712.8 398.310226 
L 712.8 126541.091253 
L 712.8 126541.091253 
L 711.619615 126541.091253 
L 710.439231 126541.091253 
L 709.258846 126541.091253 
L 708.078462 126541.091253 
L 706.898077 126541.091253 
L 705.717692 126541.091253 
L 704.537308 126541.091253 
L 703.356923 126541.091253 
L 702.176538 126541.091253 
L 700.996154 126541.091253 
L 699.815769 126541.091253 
L 698.635385 126541.091253 
L 697.455 126541.091253 
L 696.274615 126541.091253 
L 695.094231 126541.091253 
L 693.913846 126541.091253 
L 692.733462 126541.091253 
L 691.553077 126541.091253 
L 690.372692 126541.091253 
L 689.192308 126541.091253 
L 688.011923 126541.091253 
L 686.831538 126541.091253 
L 685.651154 126541.091253 
L 684.470769 126541.091253 
L 683.290385 126541.091253 
L 682.11 126541.091253 
L 680.929615 126541.091253 
L 679.749231 126541.091253 
L 678.568846 126541.091253 
L 677.388462 126541.091253 
L 676.208077 126541.091253 
L 675.027692 126541.091253 
L 673.847308 126541.091253 
L 672.666923 126541.091253 
L 671.486538 126541.091253 
L 670.306154 126541.091253 
L 669.125769 126541.091253 
L 667.945385 126541.091253 
L 666.765 126541.091253 
L 665.584615 126541.091253 
L 664.404231 126541.091253 
L 663.223846 126541.091253 
L 662.043462 126541.091253 
L 660.863077 126541.091253 
L 659.682692 126541.091253 
L 658.502308 126541.091253 
L 657.321923 126541.091253 
L 656.141538 126541.091253 
L 654.961154 126541.091253 
L 653.780769 126541.091253 
L 652.600385 126541.091253 
L 651.42 126541.091253 
L 650.239615 126541.091253 
L 649.059231 126541.091253 
L 647.878846 126541.091253 
L 646.698462 126541.091253 
L 645.518077 126541.091253 
L 644.337692 126541.091253 
L 643.157308 126541.091253 
L 641.976923 126541.091253 
L 640.796538 126541.091253 
L 639.616154 126541.091253 
L 638.435769 126541.091253 
L 637.255385 126541.091253 
L 636.075 126541.091253 
L 634.894615 126541.091253 
L 633.714231 126541.091253 
L 632.533846 126541.091253 
L 631.353462 126541.091253 
L 630.173077 126541.091253 
L 628.992692 126541.091253 
L 627.812308 126541.091253 
L 626.631923 126541.091253 
L 625.451538 126541.091253 
L 624.271154 126541.091253 
L 623.090769 126541.091253 
L 621.910385 126541.091253 
L 620.73 126541.091253 
L 619.549615 126541.091253 
L 618.369231 126541.091253 
L 617.188846 126541.091253 
L 616.008462 126541.091253 
L 614.828077 126541.091253 
L 613.647692 126541.091253 
L 612.467308 126541.091253 
L 611.286923 126541.091253 
L 610.106538 126541.091253 
L 608.926154 126541.091253 
L 607.745769 126541.091253 
L 606.565385 126541.091253 
L 605.385 126541.091253 
L 604.204615 126541.091253 
L 603.024231 126541.091253 
L 601.843846 126541.091253 
L 600.663462 126541.091253 
L 599.483077 126541.091253 
L 598.302692 126541.091253 
L 597.122308 126541.091253 
L 595.941923 126541.091253 
L 594.761538 126541.091253 
L 593.581154 126541.091253 
L 592.400769 126541.091253 
L 591.220385 126541.091253 
L 590.04 126541.091253 
L 588.859615 126541.091253 
L 587.679231 126541.091253 
L 586.498846 126541.091253 
L 585.318462 126541.091253 
L 584.138077 126541.091253 
L 582.957692 126541.091253 
L 581.777308 126541.091253 
L 580.596923 126541.091253 
L 579.416538 126541.091253 
L 578.236154 126541.091253 
L 577.055769 126541.091253 
L 575.875385 126541.091253 
L 574.695 126541.091253 
L 573.514615 126541.091253 
L 572.334231 126541.091253 
L 571.153846 126541.091253 
L 569.973462 126541.091253 
L 568.793077 126541.091253 
L 567.612692 126541.091253 
L 566.432308 126541.091253 
L 565.251923 126541.091253 
L 564.071538 126541.091253 
L 562.891154 126541.091253 
L 561.710769 126541.091253 
L 560.530385 126541.091253 
L 559.35 126541.091253 
L 558.169615 126541.091253 
L 556.989231 126541.091253 
L 555.808846 126541.091253 
L 554.628462 126541.091253 
L 553.448077 126541.091253 
L 552.267692 126541.091253 
L 551.087308 126541.091253 
L 549.906923 126541.091253 
L 548.726538 126541.091253 
L 547.546154 126541.091253 
L 546.365769 126541.091253 
L 545.185385 126541.091253 
L 544.005 126541.091253 
L 542.824615 126541.091253 
L 541.644231 126541.091253 
L 540.463846 126541.091253 
L 539.283462 126541.091253 
L 538.103077 126541.091253 
L 536.922692 126541.091253 
L 535.742308 126541.091253 
L 534.561923 126541.091253 
L 533.381538 126541.091253 
L 532.201154 126541.091253 
L 531.020769 126541.091253 
L 529.840385 126541.091253 
L 528.66 126541.091253 
L 527.479615 126541.091253 
L 526.299231 126541.091253 
L 525.118846 126541.091253 
L 523.938462 126541.091253 
L 522.758077 126541.091253 
L 521.577692 126541.091253 
L 520.397308 126541.091253 
L 519.216923 126541.091253 
L 518.036538 126541.091253 
L 516.856154 126541.091253 
L 515.675769 126541.091253 
L 514.495385 126541.091253 
L 513.315 126541.091253 
L 512.134615 126541.091253 
L 510.954231 126541.091253 
L 509.773846 126541.091253 
L 508.593462 126541.091253 
L 507.413077 126541.091253 
L 506.232692 126541.091253 
L 505.052308 126541.091253 
L 503.871923 126541.091253 
L 502.691538 126541.091253 
L 501.511154 126541.091253 
L 500.330769 126541.091253 
L 499.150385 126541.091253 
L 497.97 126541.091253 
L 496.789615 126541.091253 
L 495.609231 126541.091253 
L 494.428846 126541.091253 
L 493.248462 126541.091253 
L 492.068077 126541.091253 
L 490.887692 126541.091253 
L 489.707308 126541.091253 
L 488.526923 126541.091253 
L 487.346538 126541.091253 
L 486.166154 126541.091253 
L 484.985769 126541.091253 
L 483.805385 126541.091253 
L 482.625 126541.091253 
L 481.444615 126541.091253 
L 480.264231 126541.091253 
L 479.083846 126541.091253 
L 477.903462 126541.091253 
L 476.723077 126541.091253 
L 475.542692 126541.091253 
L 474.362308 126541.091253 
L 473.181923 126541.091253 
L 472.001538 126541.091253 
L 470.821154 126541.091253 
L 469.640769 126541.091253 
L 468.460385 126541.091253 
L 467.28 126541.091253 
L 466.099615 126541.091253 
L 464.919231 126541.091253 
L 463.738846 126541.091253 
L 462.558462 126541.091253 
L 461.378077 126541.091253 
L 460.197692 126541.091253 
L 459.017308 126541.091253 
L 457.836923 126541.091253 
L 456.656538 126541.091253 
L 455.476154 126541.091253 
L 454.295769 126541.091253 
L 453.115385 126541.091253 
L 451.935 126541.091253 
L 450.754615 126541.091253 
L 449.574231 126541.091253 
L 448.393846 126541.091253 
L 447.213462 126541.091253 
L 446.033077 126541.091253 
L 444.852692 126541.091253 
L 443.672308 126541.091253 
L 442.491923 126541.091253 
L 441.311538 126541.091253 
L 440.131154 126541.091253 
L 438.950769 126541.091253 
L 437.770385 126541.091253 
L 436.59 126541.091253 
L 435.409615 126541.091253 
L 434.229231 126541.091253 
L 433.048846 126541.091253 
L 431.868462 126541.091253 
L 430.688077 126541.091253 
L 429.507692 126541.091253 
L 428.327308 126541.091253 
L 427.146923 126541.091253 
L 425.966538 126541.091253 
L 424.786154 126541.091253 
L 423.605769 126541.091253 
L 422.425385 126541.091253 
L 421.245 126541.091253 
L 420.064615 126541.091253 
L 418.884231 126541.091253 
L 417.703846 126541.091253 
L 416.523462 126541.091253 
L 415.343077 126541.091253 
L 414.162692 126541.091253 
L 412.982308 126541.091253 
L 411.801923 126541.091253 
L 410.621538 126541.091253 
L 409.441154 126541.091253 
L 408.260769 126541.091253 
L 407.080385 126541.091253 
L 405.9 126541.091253 
L 404.719615 126541.091253 
L 403.539231 126541.091253 
L 402.358846 126541.091253 
L 401.178462 126541.091253 
L 399.998077 126541.091253 
L 398.817692 126541.091253 
L 397.637308 126541.091253 
L 396.456923 126541.091253 
L 395.276538 126541.091253 
L 394.096154 126541.091253 
L 392.915769 126541.091253 
L 391.735385 126541.091253 
L 390.555 126541.091253 
L 389.374615 126541.091253 
L 388.194231 126541.091253 
L 387.013846 126541.091253 
L 385.833462 126541.091253 
L 384.653077 126541.091253 
L 383.472692 126541.091253 
L 382.292308 126541.091253 
L 381.111923 126541.091253 
L 379.931538 126541.091253 
L 378.751154 126541.091253 
L 377.570769 126541.091253 
L 376.390385 126541.091253 
L 375.21 126541.091253 
L 374.029615 126541.091253 
L 372.849231 126541.091253 
L 371.668846 126541.091253 
L 370.488462 126541.091253 
L 369.308077 126541.091253 
L 368.127692 126541.091253 
L 366.947308 126541.091253 
L 365.766923 126541.091253 
L 364.586538 126541.091253 
L 363.406154 126541.091253 
L 362.225769 126541.091253 
L 361.045385 126541.091253 
L 359.865 126541.091253 
L 358.684615 126541.091253 
L 357.504231 126541.091253 
L 356.323846 126541.091253 
L 355.143462 126541.091253 
L 353.963077 126541.091253 
L 352.782692 126541.091253 
L 351.602308 126541.091253 
L 350.421923 126541.091253 
L 349.241538 126541.091253 
L 348.061154 126541.091253 
L 346.880769 126541.091253 
L 345.700385 126541.091253 
L 344.52 126541.091253 
L 343.339615 126541.091253 
L 342.159231 126541.091253 
L 340.978846 126541.091253 
L 339.798462 126541.091253 
L 338.618077 126541.091253 
L 337.437692 126541.091253 
L 336.257308 126541.091253 
L 335.076923 126541.091253 
L 333.896538 126541.091253 
L 332.716154 126541.091253 
L 331.535769 126541.091253 
L 330.355385 126541.091253 
L 329.175 126541.091253 
L 327.994615 126541.091253 
L 326.814231 126541.091253 
L 325.633846 126541.091253 
L 324.453462 126541.091253 
L 323.273077 126541.091253 
L 322.092692 126541.091253 
L 320.912308 126541.091253 
L 319.731923 126541.091253 
L 318.551538 126541.091253 
L 317.371154 126541.091253 
L 316.190769 126541.091253 
L 315.010385 126541.091253 
L 313.83 126541.091253 
L 312.649615 126541.091253 
L 311.469231 126541.091253 
L 310.288846 126541.091253 
L 309.108462 126541.091253 
L 307.928077 126541.091253 
L 306.747692 126541.091253 
L 305.567308 126541.091253 
L 304.386923 126541.091253 
L 303.206538 126541.091253 
L 302.026154 126541.091253 
L 300.845769 126541.091253 
L 299.665385 126541.091253 
L 298.485 126541.091253 
L 297.304615 126541.091253 
L 296.124231 126541.091253 
L 294.943846 126541.091253 
L 293.763462 126541.091253 
L 292.583077 126541.091253 
L 291.402692 126541.091253 
L 290.222308 126541.091253 
L 289.041923 126541.091253 
L 287.861538 126541.091253 
L 286.681154 126541.091253 
L 285.500769 126541.091253 
L 284.320385 126541.091253 
L 283.14 126541.091253 
L 281.959615 126541.091253 
L 280.779231 126541.091253 
L 279.598846 126541.091253 
L 278.418462 126541.091253 
L 277.238077 126541.091253 
L 276.057692 126541.091253 
L 274.877308 126541.091253 
L 273.696923 126541.091253 
L 272.516538 126541.091253 
L 271.336154 126541.091253 
L 270.155769 126541.091253 
L 268.975385 126541.091253 
L 267.795 126541.091253 
L 266.614615 126541.091253 
L 265.434231 126541.091253 
L 264.253846 126541.091253 
L 263.073462 126541.091253 
L 261.893077 126541.091253 
L 260.712692 126541.091253 
L 259.532308 126541.091253 
L 258.351923 126541.091253 
L 257.171538 126541.091253 
L 255.991154 126541.091253 
L 254.810769 126541.091253 
L 253.630385 126541.091253 
L 252.45 126541.091253 
L 251.269615 126541.091253 
L 250.089231 126541.091253 
L 248.908846 126541.091253 
L 247.728462 126541.091253 
L 246.548077 126541.091253 
L 245.367692 126541.091253 
L 244.187308 126541.091253 
L 243.006923 126541.091253 
L 241.826538 126541.091253 
L 240.646154 126541.091253 
L 239.465769 126541.091253 
L 238.285385 126541.091253 
L 237.105 126541.091253 
L 235.924615 126541.091253 
L 234.744231 126541.091253 
L 233.563846 126541.091253 
L 232.383462 126541.091253 
L 231.203077 126541.091253 
L 230.022692 126541.091253 
L 228.842308 126541.091253 
L 227.661923 126541.091253 
L 226.481538 126541.091253 
L 225.301154 126541.091253 
L 224.120769 126541.091253 
L 222.940385 126541.091253 
L 221.76 126541.091253 
L 220.579615 126541.091253 
L 219.399231 126541.091253 
L 218.218846 126541.091253 
L 217.038462 126541.091253 
L 215.858077 126541.091253 
L 214.677692 126541.091253 
L 213.497308 126541.091253 
L 212.316923 126541.091253 
L 211.136538 126541.091253 
L 209.956154 126541.091253 
L 208.775769 126541.091253 
L 207.595385 126541.091253 
L 206.415 126541.091253 
L 205.234615 126541.091253 
L 204.054231 126541.091253 
L 202.873846 126541.091253 
L 201.693462 126541.091253 
L 200.513077 126541.091253 
L 199.332692 126541.091253 
L 198.152308 126541.091253 
L 196.971923 126541.091253 
L 195.791538 126541.091253 
L 194.611154 126541.091253 
L 193.430769 126541.091253 
L 192.250385 126541.091253 
L 191.07 126541.091253 
L 189.889615 126541.091253 
L 188.709231 126541.091253 
L 187.528846 126541.091253 
L 186.348462 126541.091253 
L 185.168077 126541.091253 
L 183.987692 126541.091253 
L 182.807308 126541.091253 
L 181.626923 126541.091253 
L 180.446538 126541.091253 
L 179.266154 126541.091253 
L 178.085769 126541.091253 
L 176.905385 126541.091253 
L 175.725 126541.091253 
L 174.544615 126541.091253 
L 173.364231 126541.091253 
L 172.183846 126541.091253 
L 171.003462 126541.091253 
L 169.823077 126541.091253 
L 168.642692 126541.091253 
L 167.462308 126541.091253 
L 166.281923 126541.091253 
L 165.101538 126541.091253 
L 163.921154 126541.091253 
L 162.740769 126541.091253 
L 161.560385 126541.091253 
L 160.38 126541.091253 
L 159.199615 126541.091253 
L 158.019231 126541.091253 
L 156.838846 126541.091253 
L 155.658462 126541.091253 
L 154.478077 126541.091253 
L 153.297692 126541.091253 
L 152.117308 126541.091253 
L 150.936923 126541.091253 
L 149.756538 126541.091253 
L 148.576154 126541.091253 
L 147.395769 126541.091253 
L 146.215385 126541.091253 
L 145.035 126541.091253 
L 143.854615 126541.091253 
L 142.674231 126541.091253 
L 141.493846 126541.091253 
L 140.313462 126541.091253 
L 139.133077 126541.091253 
L 137.952692 126541.091253 
L 136.772308 126541.091253 
L 135.591923 126541.091253 
L 134.411538 126541.091253 
L 133.231154 126541.091253 
L 132.050769 126541.091253 
L 130.870385 126541.091253 
L 129.69 126541.091253 
L 128.509615 126541.091253 
L 127.329231 126541.091253 
L 126.148846 126541.091253 
L 124.968462 126541.091253 
L 123.788077 126541.091253 
L 122.607692 126541.091253 
L 121.427308 126541.091253 
L 120.246923 126541.091253 
L 119.066538 126541.091253 
L 117.886154 126541.091253 
L 116.705769 126541.091253 
L 115.525385 126541.091253 
L 114.345 126541.091253 
L 113.164615 126541.091253 
L 111.984231 126541.091253 
L 110.803846 126541.091253 
L 109.623462 126541.091253 
L 108.443077 126541.091253 
L 107.262692 126541.091253 
L 106.082308 126541.091253 
L 104.901923 126541.091253 
L 103.721538 126541.091253 
L 102.541154 126541.091253 
L 101.360769 126541.091253 
L 100.180385 126541.091253 
L 99 126541.091253 
z
" style="fill:#ff8080;fill-opacity:0.5;stroke:#ff8080;stroke-opacity:0.5;"/>
   </g>
   <g id="matplotlib.axis_1">
    <g id="xtick_1">
     <g id="line2d_1">
      <path clip-path="url(#p68e2955192)" d="M 99 544.68 
L 99 73.44 
" style="fill:none;stroke:#b0b0b0;stroke-linecap:square;stroke-width:0.8;"/>
     </g>
     <g id="line2d_2">
      <defs>
       <path d="M 0 0 
L 0 3.5 
" id="m4abed1d830" style="stroke:#000000;stroke-width:0.8;"/>
      </defs>
      <g>
       <use style="stroke:#000000;stroke-width:0.8;" x="99" xlink:href="#m4abed1d830" y="544.68"/>
      </g>
     </g>
    </g>
    <g id="xtick_2">
     <g id="line2d_3">
      <path clip-path="url(#p68e2955192)" d="M 123.788077 544.68 
L 123.788077 73.44 
" style="fill:none;stroke:#b0b0b0;stroke-linecap:square;stroke-width:0.8;"/>
     </g>
     <g id="line2d_4">
      <g>
       <use style="stroke:#000000;stroke-width:0.8;" x="123.788077" xlink:href="#m4abed1d830" y="544.68"/>
      </g>
     </g>
     <g id="text_1">
      <!-- Apr -->
      <g transform="translate(115.138077 559.278437)scale(0.1 -0.1)">
       <defs>
        <path d="M 2188 4044 
L 1331 1722 
L 3047 1722 
L 2188 4044 
z
M 1831 4666 
L 2547 4666 
L 4325 0 
L 3669 0 
L 3244 1197 
L 1141 1197 
L 716 0 
L 50 0 
L 1831 4666 
z
" id="DejaVuSans-41" transform="scale(0.015625)"/>
        <path d="M 1159 525 
L 1159 -1331 
L 581 -1331 
L 581 3500 
L 1159 3500 
L 1159 2969 
Q 1341 3281 1617 3432 
Q 1894 3584 2278 3584 
Q 2916 3584 3314 3078 
Q 3713 2572 3713 1747 
Q 3713 922 3314 415 
Q 2916 -91 2278 -91 
Q 1894 -91 1617 61 
Q 1341 213 1159 525 
z
M 3116 1747 
Q 3116 2381 2855 2742 
Q 2594 3103 2138 3103 
Q 1681 3103 1420 2742 
Q 1159 2381 1159 1747 
Q 1159 1113 1420 752 
Q 1681 391 2138 391 
Q 2594 391 2855 752 
Q 3116 1113 3116 1747 
z
" id="DejaVuSans-70" transform="scale(0.015625)"/>
        <path d="M 2631 2963 
Q 2534 3019 2420 3045 
Q 2306 3072 2169 3072 
Q 1681 3072 1420 2755 
Q 1159 2438 1159 1844 
L 1159 0 
L 581 0 
L 581 3500 
L 1159 3500 
L 1159 2956 
Q 1341 3275 1631 3429 
Q 1922 3584 2338 3584 
Q 2397 3584 2469 3576 
Q 2541 3569 2628 3553 
L 2631 2963 
z
" id="DejaVuSans-72" transform="scale(0.015625)"/>
       </defs>
       <use xlink:href="#DejaVuSans-41"/>
       <use x="68.408203" xlink:href="#DejaVuSans-70"/>
       <use x="131.884766" xlink:href="#DejaVuSans-72"/>
      </g>
     </g>
    </g>
    <g id="xtick_3">
     <g id="line2d_5">
      <path clip-path="url(#p68e2955192)" d="M 231.203077 544.68 
L 231.203077 73.44 
" style="fill:none;stroke:#b0b0b0;stroke-linecap:square;stroke-width:0.8;"/>
     </g>
     <g id="line2d_6">
      <g>
       <use style="stroke:#000000;stroke-width:0.8;" x="231.203077" xlink:href="#m4abed1d830" y="544.68"/>
      </g>
     </g>
     <g id="text_2">
      <!-- Jul -->
      <g transform="translate(225.170264 559.278437)scale(0.1 -0.1)">
       <defs>
        <path d="M 628 4666 
L 1259 4666 
L 1259 325 
Q 1259 -519 939 -900 
Q 619 -1281 -91 -1281 
L -331 -1281 
L -331 -750 
L -134 -750 
Q 284 -750 456 -515 
Q 628 -281 628 325 
L 628 4666 
z
" id="DejaVuSans-4a" transform="scale(0.015625)"/>
        <path d="M 544 1381 
L 544 3500 
L 1119 3500 
L 1119 1403 
Q 1119 906 1312 657 
Q 1506 409 1894 409 
Q 2359 409 2629 706 
Q 2900 1003 2900 1516 
L 2900 3500 
L 3475 3500 
L 3475 0 
L 2900 0 
L 2900 538 
Q 2691 219 2414 64 
Q 2138 -91 1772 -91 
Q 1169 -91 856 284 
Q 544 659 544 1381 
z
M 1991 3584 
L 1991 3584 
z
" id="DejaVuSans-75" transform="scale(0.015625)"/>
        <path d="M 603 4863 
L 1178 4863 
L 1178 0 
L 603 0 
L 603 4863 
z
" id="DejaVuSans-6c" transform="scale(0.015625)"/>
       </defs>
       <use xlink:href="#DejaVuSans-4a"/>
       <use x="29.492188" xlink:href="#DejaVuSans-75"/>
       <use x="92.871094" xlink:href="#DejaVuSans-6c"/>
      </g>
     </g>
    </g>
    <g id="xtick_4">
     <g id="line2d_7">
      <path clip-path="url(#p68e2955192)" d="M 339.798462 544.68 
L 339.798462 73.44 
" style="fill:none;stroke:#b0b0b0;stroke-linecap:square;stroke-width:0.8;"/>
     </g>
     <g id="line2d_8">
      <g>
       <use style="stroke:#000000;stroke-width:0.8;" x="339.798462" xlink:href="#m4abed1d830" y="544.68"/>
      </g>
     </g>
     <g id="text_3">
      <!-- Oct -->
      <g transform="translate(331.153149 559.278437)scale(0.1 -0.1)">
       <defs>
        <path d="M 2522 4238 
Q 1834 4238 1429 3725 
Q 1025 3213 1025 2328 
Q 1025 1447 1429 934 
Q 1834 422 2522 422 
Q 3209 422 3611 934 
Q 4013 1447 4013 2328 
Q 4013 3213 3611 3725 
Q 3209 4238 2522 4238 
z
M 2522 4750 
Q 3503 4750 4090 4092 
Q 4678 3434 4678 2328 
Q 4678 1225 4090 567 
Q 3503 -91 2522 -91 
Q 1538 -91 948 565 
Q 359 1222 359 2328 
Q 359 3434 948 4092 
Q 1538 4750 2522 4750 
z
" id="DejaVuSans-4f" transform="scale(0.015625)"/>
        <path d="M 3122 3366 
L 3122 2828 
Q 2878 2963 2633 3030 
Q 2388 3097 2138 3097 
Q 1578 3097 1268 2742 
Q 959 2388 959 1747 
Q 959 1106 1268 751 
Q 1578 397 2138 397 
Q 2388 397 2633 464 
Q 2878 531 3122 666 
L 3122 134 
Q 2881 22 2623 -34 
Q 2366 -91 2075 -91 
Q 1284 -91 818 406 
Q 353 903 353 1747 
Q 353 2603 823 3093 
Q 1294 3584 2113 3584 
Q 2378 3584 2631 3529 
Q 2884 3475 3122 3366 
z
" id="DejaVuSans-63" transform="scale(0.015625)"/>
        <path d="M 1172 4494 
L 1172 3500 
L 2356 3500 
L 2356 3053 
L 1172 3053 
L 1172 1153 
Q 1172 725 1289 603 
Q 1406 481 1766 481 
L 2356 481 
L 2356 0 
L 1766 0 
Q 1100 0 847 248 
Q 594 497 594 1153 
L 594 3053 
L 172 3053 
L 172 3500 
L 594 3500 
L 594 4494 
L 1172 4494 
z
" id="DejaVuSans-74" transform="scale(0.015625)"/>
       </defs>
       <use xlink:href="#DejaVuSans-4f"/>
       <use x="78.710938" xlink:href="#DejaVuSans-63"/>
       <use x="133.691406" xlink:href="#DejaVuSans-74"/>
      </g>
     </g>
    </g>
    <g id="xtick_5">
     <g id="line2d_9">
      <path clip-path="url(#p68e2955192)" d="M 448.393846 544.68 
L 448.393846 73.44 
" style="fill:none;stroke:#b0b0b0;stroke-linecap:square;stroke-width:0.8;"/>
     </g>
     <g id="line2d_10">
      <g>
       <use style="stroke:#000000;stroke-width:0.8;" x="448.393846" xlink:href="#m4abed1d830" y="544.68"/>
      </g>
     </g>
     <g id="text_4">
      <!-- Jan -->
      <g transform="translate(440.686034 559.278437)scale(0.1 -0.1)">
       <defs>
        <path d="M 2194 1759 
Q 1497 1759 1228 1600 
Q 959 1441 959 1056 
Q 959 750 1161 570 
Q 1363 391 1709 391 
Q 2188 391 2477 730 
Q 2766 1069 2766 1631 
L 2766 1759 
L 2194 1759 
z
M 3341 1997 
L 3341 0 
L 2766 0 
L 2766 531 
Q 2569 213 2275 61 
Q 1981 -91 1556 -91 
Q 1019 -91 701 211 
Q 384 513 384 1019 
Q 384 1609 779 1909 
Q 1175 2209 1959 2209 
L 2766 2209 
L 2766 2266 
Q 2766 2663 2505 2880 
Q 2244 3097 1772 3097 
Q 1472 3097 1187 3025 
Q 903 2953 641 2809 
L 641 3341 
Q 956 3463 1253 3523 
Q 1550 3584 1831 3584 
Q 2591 3584 2966 3190 
Q 3341 2797 3341 1997 
z
" id="DejaVuSans-61" transform="scale(0.015625)"/>
        <path d="M 3513 2113 
L 3513 0 
L 2938 0 
L 2938 2094 
Q 2938 2591 2744 2837 
Q 2550 3084 2163 3084 
Q 1697 3084 1428 2787 
Q 1159 2491 1159 1978 
L 1159 0 
L 581 0 
L 581 3500 
L 1159 3500 
L 1159 2956 
Q 1366 3272 1645 3428 
Q 1925 3584 2291 3584 
Q 2894 3584 3203 3211 
Q 3513 2838 3513 2113 
z
" id="DejaVuSans-6e" transform="scale(0.015625)"/>
       </defs>
       <use xlink:href="#DejaVuSans-4a"/>
       <use x="29.492188" xlink:href="#DejaVuSans-61"/>
       <use x="90.771484" xlink:href="#DejaVuSans-6e"/>
      </g>
      <!-- 2021 -->
      <g transform="translate(435.668846 570.47625)scale(0.1 -0.1)">
       <defs>
        <path d="M 1228 531 
L 3431 531 
L 3431 0 
L 469 0 
L 469 531 
Q 828 903 1448 1529 
Q 2069 2156 2228 2338 
Q 2531 2678 2651 2914 
Q 2772 3150 2772 3378 
Q 2772 3750 2511 3984 
Q 2250 4219 1831 4219 
Q 1534 4219 1204 4116 
Q 875 4013 500 3803 
L 500 4441 
Q 881 4594 1212 4672 
Q 1544 4750 1819 4750 
Q 2544 4750 2975 4387 
Q 3406 4025 3406 3419 
Q 3406 3131 3298 2873 
Q 3191 2616 2906 2266 
Q 2828 2175 2409 1742 
Q 1991 1309 1228 531 
z
" id="DejaVuSans-32" transform="scale(0.015625)"/>
        <path d="M 2034 4250 
Q 1547 4250 1301 3770 
Q 1056 3291 1056 2328 
Q 1056 1369 1301 889 
Q 1547 409 2034 409 
Q 2525 409 2770 889 
Q 3016 1369 3016 2328 
Q 3016 3291 2770 3770 
Q 2525 4250 2034 4250 
z
M 2034 4750 
Q 2819 4750 3233 4129 
Q 3647 3509 3647 2328 
Q 3647 1150 3233 529 
Q 2819 -91 2034 -91 
Q 1250 -91 836 529 
Q 422 1150 422 2328 
Q 422 3509 836 4129 
Q 1250 4750 2034 4750 
z
" id="DejaVuSans-30" transform="scale(0.015625)"/>
        <path d="M 794 531 
L 1825 531 
L 1825 4091 
L 703 3866 
L 703 4441 
L 1819 4666 
L 2450 4666 
L 2450 531 
L 3481 531 
L 3481 0 
L 794 0 
L 794 531 
z
" id="DejaVuSans-31" transform="scale(0.015625)"/>
       </defs>
       <use xlink:href="#DejaVuSans-32"/>
       <use x="63.623047" xlink:href="#DejaVuSans-30"/>
       <use x="127.246094" xlink:href="#DejaVuSans-32"/>
       <use x="190.869141" xlink:href="#DejaVuSans-31"/>
      </g>
     </g>
    </g>
    <g id="xtick_6">
     <g id="line2d_11">
      <path clip-path="url(#p68e2955192)" d="M 554.628462 544.68 
L 554.628462 73.44 
" style="fill:none;stroke:#b0b0b0;stroke-linecap:square;stroke-width:0.8;"/>
     </g>
     <g id="line2d_12">
      <g>
       <use style="stroke:#000000;stroke-width:0.8;" x="554.628462" xlink:href="#m4abed1d830" y="544.68"/>
      </g>
     </g>
     <g id="text_5">
      <!-- Apr -->
      <g transform="translate(545.978462 559.278437)scale(0.1 -0.1)">
       <use xlink:href="#DejaVuSans-41"/>
       <use x="68.408203" xlink:href="#DejaVuSans-70"/>
       <use x="131.884766" xlink:href="#DejaVuSans-72"/>
      </g>
     </g>
    </g>
    <g id="xtick_7">
     <g id="line2d_13">
      <path clip-path="url(#p68e2955192)" d="M 662.043462 544.68 
L 662.043462 73.44 
" style="fill:none;stroke:#b0b0b0;stroke-linecap:square;stroke-width:0.8;"/>
     </g>
     <g id="line2d_14">
      <g>
       <use style="stroke:#000000;stroke-width:0.8;" x="662.043462" xlink:href="#m4abed1d830" y="544.68"/>
      </g>
     </g>
     <g id="text_6">
      <!-- Jul -->
      <g transform="translate(656.010649 559.278437)scale(0.1 -0.1)">
       <use xlink:href="#DejaVuSans-4a"/>
       <use x="29.492188" xlink:href="#DejaVuSans-75"/>
       <use x="92.871094" xlink:href="#DejaVuSans-6c"/>
      </g>
     </g>
    </g>
    <g id="xtick_8">
     <g id="line2d_15">
      <path clip-path="url(#p68e2955192)" d="M 712.8 544.68 
L 712.8 73.44 
" style="fill:none;stroke:#b0b0b0;stroke-linecap:square;stroke-width:0.8;"/>
     </g>
     <g id="line2d_16">
      <g>
       <use style="stroke:#000000;stroke-width:0.8;" x="712.8" xlink:href="#m4abed1d830" y="544.68"/>
      </g>
     </g>
    </g>
    <g id="xtick_9">
     <g id="line2d_17">
      <defs>
       <path d="M 0 0 
L 0 2 
" id="mbe9820739d" style="stroke:#000000;stroke-width:0.6;"/>
      </defs>
      <g>
       <use style="stroke:#000000;stroke-width:0.6;" x="159.199615" xlink:href="#mbe9820739d" y="544.68"/>
      </g>
     </g>
    </g>
    <g id="xtick_10">
     <g id="line2d_18">
      <g>
       <use style="stroke:#000000;stroke-width:0.6;" x="195.791538" xlink:href="#mbe9820739d" y="544.68"/>
      </g>
     </g>
    </g>
    <g id="xtick_11">
     <g id="line2d_19">
      <g>
       <use style="stroke:#000000;stroke-width:0.6;" x="267.795" xlink:href="#mbe9820739d" y="544.68"/>
      </g>
     </g>
    </g>
    <g id="xtick_12">
     <g id="line2d_20">
      <g>
       <use style="stroke:#000000;stroke-width:0.6;" x="304.386923" xlink:href="#mbe9820739d" y="544.68"/>
      </g>
     </g>
    </g>
    <g id="xtick_13">
     <g id="line2d_21">
      <g>
       <use style="stroke:#000000;stroke-width:0.6;" x="376.390385" xlink:href="#mbe9820739d" y="544.68"/>
      </g>
     </g>
    </g>
    <g id="xtick_14">
     <g id="line2d_22">
      <g>
       <use style="stroke:#000000;stroke-width:0.6;" x="411.801923" xlink:href="#mbe9820739d" y="544.68"/>
      </g>
     </g>
    </g>
    <g id="xtick_15">
     <g id="line2d_23">
      <g>
       <use style="stroke:#000000;stroke-width:0.6;" x="484.985769" xlink:href="#mbe9820739d" y="544.68"/>
      </g>
     </g>
    </g>
    <g id="xtick_16">
     <g id="line2d_24">
      <g>
       <use style="stroke:#000000;stroke-width:0.6;" x="518.036538" xlink:href="#mbe9820739d" y="544.68"/>
      </g>
     </g>
    </g>
    <g id="xtick_17">
     <g id="line2d_25">
      <g>
       <use style="stroke:#000000;stroke-width:0.6;" x="590.04" xlink:href="#mbe9820739d" y="544.68"/>
      </g>
     </g>
    </g>
    <g id="xtick_18">
     <g id="line2d_26">
      <g>
       <use style="stroke:#000000;stroke-width:0.6;" x="626.631923" xlink:href="#mbe9820739d" y="544.68"/>
      </g>
     </g>
    </g>
    <g id="xtick_19">
     <g id="line2d_27">
      <g>
       <use style="stroke:#000000;stroke-width:0.6;" x="698.635385" xlink:href="#mbe9820739d" y="544.68"/>
      </g>
     </g>
    </g>
    <g id="text_7">
     <!-- Date -->
     <g transform="translate(393.949219 584.154375)scale(0.1 -0.1)">
      <defs>
       <path d="M 1259 4147 
L 1259 519 
L 2022 519 
Q 2988 519 3436 956 
Q 3884 1394 3884 2338 
Q 3884 3275 3436 3711 
Q 2988 4147 2022 4147 
L 1259 4147 
z
M 628 4666 
L 1925 4666 
Q 3281 4666 3915 4102 
Q 4550 3538 4550 2338 
Q 4550 1131 3912 565 
Q 3275 0 1925 0 
L 628 0 
L 628 4666 
z
" id="DejaVuSans-44" transform="scale(0.015625)"/>
       <path d="M 3597 1894 
L 3597 1613 
L 953 1613 
Q 991 1019 1311 708 
Q 1631 397 2203 397 
Q 2534 397 2845 478 
Q 3156 559 3463 722 
L 3463 178 
Q 3153 47 2828 -22 
Q 2503 -91 2169 -91 
Q 1331 -91 842 396 
Q 353 884 353 1716 
Q 353 2575 817 3079 
Q 1281 3584 2069 3584 
Q 2775 3584 3186 3129 
Q 3597 2675 3597 1894 
z
M 3022 2063 
Q 3016 2534 2758 2815 
Q 2500 3097 2075 3097 
Q 1594 3097 1305 2825 
Q 1016 2553 972 2059 
L 3022 2063 
z
" id="DejaVuSans-65" transform="scale(0.015625)"/>
      </defs>
      <use xlink:href="#DejaVuSans-44"/>
      <use x="77.001953" xlink:href="#DejaVuSans-61"/>
      <use x="138.28125" xlink:href="#DejaVuSans-74"/>
      <use x="177.490234" xlink:href="#DejaVuSans-65"/>
     </g>
    </g>
   </g>
   <g id="matplotlib.axis_2">
    <g id="ytick_1">
     <g id="line2d_28">
      <path clip-path="url(#p68e2955192)" d="M 99 485.31343 
L 712.8 485.31343 
" style="fill:none;stroke:#b0b0b0;stroke-linecap:square;stroke-width:0.8;"/>
     </g>
     <g id="line2d_29">
      <defs>
       <path d="M 0 0 
L -3.5 0 
" id="me91a084207" style="stroke:#000000;stroke-width:0.8;"/>
      </defs>
      <g>
       <use style="stroke:#000000;stroke-width:0.8;" x="99" xlink:href="#me91a084207" y="485.31343"/>
      </g>
     </g>
     <g id="text_8">
      <!-- $\mathdefault{10^{0}}$ -->
      <g transform="translate(74.4 489.112648)scale(0.1 -0.1)">
       <use transform="translate(0 0.765625)" xlink:href="#DejaVuSans-31"/>
       <use transform="translate(63.623047 0.765625)" xlink:href="#DejaVuSans-30"/>
       <use transform="translate(128.203125 39.046875)scale(0.7)" xlink:href="#DejaVuSans-30"/>
      </g>
     </g>
    </g>
    <g id="ytick_2">
     <g id="line2d_30">
      <path clip-path="url(#p68e2955192)" d="M 99 359.257652 
L 712.8 359.257652 
" style="fill:none;stroke:#b0b0b0;stroke-linecap:square;stroke-width:0.8;"/>
     </g>
     <g id="line2d_31">
      <g>
       <use style="stroke:#000000;stroke-width:0.8;" x="99" xlink:href="#me91a084207" y="359.257652"/>
      </g>
     </g>
     <g id="text_9">
      <!-- $\mathdefault{10^{1}}$ -->
      <g transform="translate(74.4 363.056871)scale(0.1 -0.1)">
       <use transform="translate(0 0.684375)" xlink:href="#DejaVuSans-31"/>
       <use transform="translate(63.623047 0.684375)" xlink:href="#DejaVuSans-30"/>
       <use transform="translate(128.203125 38.965625)scale(0.7)" xlink:href="#DejaVuSans-31"/>
      </g>
     </g>
    </g>
    <g id="ytick_3">
     <g id="line2d_32">
      <path clip-path="url(#p68e2955192)" d="M 99 233.201874 
L 712.8 233.201874 
" style="fill:none;stroke:#b0b0b0;stroke-linecap:square;stroke-width:0.8;"/>
     </g>
     <g id="line2d_33">
      <g>
       <use style="stroke:#000000;stroke-width:0.8;" x="99" xlink:href="#me91a084207" y="233.201874"/>
      </g>
     </g>
     <g id="text_10">
      <!-- $\mathdefault{10^{2}}$ -->
      <g transform="translate(74.4 237.001093)scale(0.1 -0.1)">
       <use transform="translate(0 0.765625)" xlink:href="#DejaVuSans-31"/>
       <use transform="translate(63.623047 0.765625)" xlink:href="#DejaVuSans-30"/>
       <use transform="translate(128.203125 39.046875)scale(0.7)" xlink:href="#DejaVuSans-32"/>
      </g>
     </g>
    </g>
    <g id="ytick_4">
     <g id="line2d_34">
      <path clip-path="url(#p68e2955192)" d="M 99 107.146096 
L 712.8 107.146096 
" style="fill:none;stroke:#b0b0b0;stroke-linecap:square;stroke-width:0.8;"/>
     </g>
     <g id="line2d_35">
      <g>
       <use style="stroke:#000000;stroke-width:0.8;" x="99" xlink:href="#me91a084207" y="107.146096"/>
      </g>
     </g>
     <g id="text_11">
      <!-- $\mathdefault{10^{3}}$ -->
      <g transform="translate(74.4 110.945315)scale(0.1 -0.1)">
       <defs>
        <path d="M 2597 2516 
Q 3050 2419 3304 2112 
Q 3559 1806 3559 1356 
Q 3559 666 3084 287 
Q 2609 -91 1734 -91 
Q 1441 -91 1130 -33 
Q 819 25 488 141 
L 488 750 
Q 750 597 1062 519 
Q 1375 441 1716 441 
Q 2309 441 2620 675 
Q 2931 909 2931 1356 
Q 2931 1769 2642 2001 
Q 2353 2234 1838 2234 
L 1294 2234 
L 1294 2753 
L 1863 2753 
Q 2328 2753 2575 2939 
Q 2822 3125 2822 3475 
Q 2822 3834 2567 4026 
Q 2313 4219 1838 4219 
Q 1578 4219 1281 4162 
Q 984 4106 628 3988 
L 628 4550 
Q 988 4650 1302 4700 
Q 1616 4750 1894 4750 
Q 2613 4750 3031 4423 
Q 3450 4097 3450 3541 
Q 3450 3153 3228 2886 
Q 3006 2619 2597 2516 
z
" id="DejaVuSans-33" transform="scale(0.015625)"/>
       </defs>
       <use transform="translate(0 0.765625)" xlink:href="#DejaVuSans-31"/>
       <use transform="translate(63.623047 0.765625)" xlink:href="#DejaVuSans-30"/>
       <use transform="translate(128.203125 39.046875)scale(0.7)" xlink:href="#DejaVuSans-33"/>
      </g>
     </g>
    </g>
    <g id="ytick_5">
     <g id="line2d_36">
      <path clip-path="url(#p68e2955192)" d="M 99 535.476067 
L 712.8 535.476067 
" style="fill:none;stroke:#b0b0b0;stroke-linecap:square;stroke-width:0.8;"/>
     </g>
     <g id="line2d_37">
      <defs>
       <path d="M 0 0 
L -2 0 
" id="m0cb60b688e" style="stroke:#000000;stroke-width:0.6;"/>
      </defs>
      <g>
       <use style="stroke:#000000;stroke-width:0.6;" x="99" xlink:href="#m0cb60b688e" y="535.476067"/>
      </g>
     </g>
    </g>
    <g id="ytick_6">
     <g id="line2d_38">
      <path clip-path="url(#p68e2955192)" d="M 99 523.26 
L 712.8 523.26 
" style="fill:none;stroke:#b0b0b0;stroke-linecap:square;stroke-width:0.8;"/>
     </g>
     <g id="line2d_39">
      <g>
       <use style="stroke:#000000;stroke-width:0.6;" x="99" xlink:href="#m0cb60b688e" y="523.26"/>
      </g>
     </g>
    </g>
    <g id="ytick_7">
     <g id="line2d_40">
      <path clip-path="url(#p68e2955192)" d="M 99 513.278746 
L 712.8 513.278746 
" style="fill:none;stroke:#b0b0b0;stroke-linecap:square;stroke-width:0.8;"/>
     </g>
     <g id="line2d_41">
      <g>
       <use style="stroke:#000000;stroke-width:0.6;" x="99" xlink:href="#m0cb60b688e" y="513.278746"/>
      </g>
     </g>
    </g>
    <g id="ytick_8">
     <g id="line2d_42">
      <path clip-path="url(#p68e2955192)" d="M 99 504.839717 
L 712.8 504.839717 
" style="fill:none;stroke:#b0b0b0;stroke-linecap:square;stroke-width:0.8;"/>
     </g>
     <g id="line2d_43">
      <g>
       <use style="stroke:#000000;stroke-width:0.6;" x="99" xlink:href="#m0cb60b688e" y="504.839717"/>
      </g>
     </g>
    </g>
    <g id="ytick_9">
     <g id="line2d_44">
      <path clip-path="url(#p68e2955192)" d="M 99 497.529497 
L 712.8 497.529497 
" style="fill:none;stroke:#b0b0b0;stroke-linecap:square;stroke-width:0.8;"/>
     </g>
     <g id="line2d_45">
      <g>
       <use style="stroke:#000000;stroke-width:0.6;" x="99" xlink:href="#m0cb60b688e" y="497.529497"/>
      </g>
     </g>
    </g>
    <g id="ytick_10">
     <g id="line2d_46">
      <path clip-path="url(#p68e2955192)" d="M 99 491.081426 
L 712.8 491.081426 
" style="fill:none;stroke:#b0b0b0;stroke-linecap:square;stroke-width:0.8;"/>
     </g>
     <g id="line2d_47">
      <g>
       <use style="stroke:#000000;stroke-width:0.6;" x="99" xlink:href="#m0cb60b688e" y="491.081426"/>
      </g>
     </g>
    </g>
    <g id="ytick_11">
     <g id="line2d_48">
      <path clip-path="url(#p68e2955192)" d="M 99 447.366859 
L 712.8 447.366859 
" style="fill:none;stroke:#b0b0b0;stroke-linecap:square;stroke-width:0.8;"/>
     </g>
     <g id="line2d_49">
      <g>
       <use style="stroke:#000000;stroke-width:0.6;" x="99" xlink:href="#m0cb60b688e" y="447.366859"/>
      </g>
     </g>
    </g>
    <g id="ytick_12">
     <g id="line2d_50">
      <path clip-path="url(#p68e2955192)" d="M 99 425.169539 
L 712.8 425.169539 
" style="fill:none;stroke:#b0b0b0;stroke-linecap:square;stroke-width:0.8;"/>
     </g>
     <g id="line2d_51">
      <g>
       <use style="stroke:#000000;stroke-width:0.6;" x="99" xlink:href="#m0cb60b688e" y="425.169539"/>
      </g>
     </g>
    </g>
    <g id="ytick_13">
     <g id="line2d_52">
      <path clip-path="url(#p68e2955192)" d="M 99 409.420289 
L 712.8 409.420289 
" style="fill:none;stroke:#b0b0b0;stroke-linecap:square;stroke-width:0.8;"/>
     </g>
     <g id="line2d_53">
      <g>
       <use style="stroke:#000000;stroke-width:0.6;" x="99" xlink:href="#m0cb60b688e" y="409.420289"/>
      </g>
     </g>
    </g>
    <g id="ytick_14">
     <g id="line2d_54">
      <path clip-path="url(#p68e2955192)" d="M 99 397.204222 
L 712.8 397.204222 
" style="fill:none;stroke:#b0b0b0;stroke-linecap:square;stroke-width:0.8;"/>
     </g>
     <g id="line2d_55">
      <g>
       <use style="stroke:#000000;stroke-width:0.6;" x="99" xlink:href="#m0cb60b688e" y="397.204222"/>
      </g>
     </g>
    </g>
    <g id="ytick_15">
     <g id="line2d_56">
      <path clip-path="url(#p68e2955192)" d="M 99 387.222969 
L 712.8 387.222969 
" style="fill:none;stroke:#b0b0b0;stroke-linecap:square;stroke-width:0.8;"/>
     </g>
     <g id="line2d_57">
      <g>
       <use style="stroke:#000000;stroke-width:0.6;" x="99" xlink:href="#m0cb60b688e" y="387.222969"/>
      </g>
     </g>
    </g>
    <g id="ytick_16">
     <g id="line2d_58">
      <path clip-path="url(#p68e2955192)" d="M 99 378.783939 
L 712.8 378.783939 
" style="fill:none;stroke:#b0b0b0;stroke-linecap:square;stroke-width:0.8;"/>
     </g>
     <g id="line2d_59">
      <g>
       <use style="stroke:#000000;stroke-width:0.6;" x="99" xlink:href="#m0cb60b688e" y="378.783939"/>
      </g>
     </g>
    </g>
    <g id="ytick_17">
     <g id="line2d_60">
      <path clip-path="url(#p68e2955192)" d="M 99 371.473719 
L 712.8 371.473719 
" style="fill:none;stroke:#b0b0b0;stroke-linecap:square;stroke-width:0.8;"/>
     </g>
     <g id="line2d_61">
      <g>
       <use style="stroke:#000000;stroke-width:0.6;" x="99" xlink:href="#m0cb60b688e" y="371.473719"/>
      </g>
     </g>
    </g>
    <g id="ytick_18">
     <g id="line2d_62">
      <path clip-path="url(#p68e2955192)" d="M 99 365.025648 
L 712.8 365.025648 
" style="fill:none;stroke:#b0b0b0;stroke-linecap:square;stroke-width:0.8;"/>
     </g>
     <g id="line2d_63">
      <g>
       <use style="stroke:#000000;stroke-width:0.6;" x="99" xlink:href="#m0cb60b688e" y="365.025648"/>
      </g>
     </g>
    </g>
    <g id="ytick_19">
     <g id="line2d_64">
      <path clip-path="url(#p68e2955192)" d="M 99 321.311082 
L 712.8 321.311082 
" style="fill:none;stroke:#b0b0b0;stroke-linecap:square;stroke-width:0.8;"/>
     </g>
     <g id="line2d_65">
      <g>
       <use style="stroke:#000000;stroke-width:0.6;" x="99" xlink:href="#m0cb60b688e" y="321.311082"/>
      </g>
     </g>
    </g>
    <g id="ytick_20">
     <g id="line2d_66">
      <path clip-path="url(#p68e2955192)" d="M 99 299.113761 
L 712.8 299.113761 
" style="fill:none;stroke:#b0b0b0;stroke-linecap:square;stroke-width:0.8;"/>
     </g>
     <g id="line2d_67">
      <g>
       <use style="stroke:#000000;stroke-width:0.6;" x="99" xlink:href="#m0cb60b688e" y="299.113761"/>
      </g>
     </g>
    </g>
    <g id="ytick_21">
     <g id="line2d_68">
      <path clip-path="url(#p68e2955192)" d="M 99 283.364511 
L 712.8 283.364511 
" style="fill:none;stroke:#b0b0b0;stroke-linecap:square;stroke-width:0.8;"/>
     </g>
     <g id="line2d_69">
      <g>
       <use style="stroke:#000000;stroke-width:0.6;" x="99" xlink:href="#m0cb60b688e" y="283.364511"/>
      </g>
     </g>
    </g>
    <g id="ytick_22">
     <g id="line2d_70">
      <path clip-path="url(#p68e2955192)" d="M 99 271.148444 
L 712.8 271.148444 
" style="fill:none;stroke:#b0b0b0;stroke-linecap:square;stroke-width:0.8;"/>
     </g>
     <g id="line2d_71">
      <g>
       <use style="stroke:#000000;stroke-width:0.6;" x="99" xlink:href="#m0cb60b688e" y="271.148444"/>
      </g>
     </g>
    </g>
    <g id="ytick_23">
     <g id="line2d_72">
      <path clip-path="url(#p68e2955192)" d="M 99 261.167191 
L 712.8 261.167191 
" style="fill:none;stroke:#b0b0b0;stroke-linecap:square;stroke-width:0.8;"/>
     </g>
     <g id="line2d_73">
      <g>
       <use style="stroke:#000000;stroke-width:0.6;" x="99" xlink:href="#m0cb60b688e" y="261.167191"/>
      </g>
     </g>
    </g>
    <g id="ytick_24">
     <g id="line2d_74">
      <path clip-path="url(#p68e2955192)" d="M 99 252.728161 
L 712.8 252.728161 
" style="fill:none;stroke:#b0b0b0;stroke-linecap:square;stroke-width:0.8;"/>
     </g>
     <g id="line2d_75">
      <g>
       <use style="stroke:#000000;stroke-width:0.6;" x="99" xlink:href="#m0cb60b688e" y="252.728161"/>
      </g>
     </g>
    </g>
    <g id="ytick_25">
     <g id="line2d_76">
      <path clip-path="url(#p68e2955192)" d="M 99 245.417941 
L 712.8 245.417941 
" style="fill:none;stroke:#b0b0b0;stroke-linecap:square;stroke-width:0.8;"/>
     </g>
     <g id="line2d_77">
      <g>
       <use style="stroke:#000000;stroke-width:0.6;" x="99" xlink:href="#m0cb60b688e" y="245.417941"/>
      </g>
     </g>
    </g>
    <g id="ytick_26">
     <g id="line2d_78">
      <path clip-path="url(#p68e2955192)" d="M 99 238.96987 
L 712.8 238.96987 
" style="fill:none;stroke:#b0b0b0;stroke-linecap:square;stroke-width:0.8;"/>
     </g>
     <g id="line2d_79">
      <g>
       <use style="stroke:#000000;stroke-width:0.6;" x="99" xlink:href="#m0cb60b688e" y="238.96987"/>
      </g>
     </g>
    </g>
    <g id="ytick_27">
     <g id="line2d_80">
      <path clip-path="url(#p68e2955192)" d="M 99 195.255304 
L 712.8 195.255304 
" style="fill:none;stroke:#b0b0b0;stroke-linecap:square;stroke-width:0.8;"/>
     </g>
     <g id="line2d_81">
      <g>
       <use style="stroke:#000000;stroke-width:0.6;" x="99" xlink:href="#m0cb60b688e" y="195.255304"/>
      </g>
     </g>
    </g>
    <g id="ytick_28">
     <g id="line2d_82">
      <path clip-path="url(#p68e2955192)" d="M 99 173.057983 
L 712.8 173.057983 
" style="fill:none;stroke:#b0b0b0;stroke-linecap:square;stroke-width:0.8;"/>
     </g>
     <g id="line2d_83">
      <g>
       <use style="stroke:#000000;stroke-width:0.6;" x="99" xlink:href="#m0cb60b688e" y="173.057983"/>
      </g>
     </g>
    </g>
    <g id="ytick_29">
     <g id="line2d_84">
      <path clip-path="url(#p68e2955192)" d="M 99 157.308734 
L 712.8 157.308734 
" style="fill:none;stroke:#b0b0b0;stroke-linecap:square;stroke-width:0.8;"/>
     </g>
     <g id="line2d_85">
      <g>
       <use style="stroke:#000000;stroke-width:0.6;" x="99" xlink:href="#m0cb60b688e" y="157.308734"/>
      </g>
     </g>
    </g>
    <g id="ytick_30">
     <g id="line2d_86">
      <path clip-path="url(#p68e2955192)" d="M 99 145.092667 
L 712.8 145.092667 
" style="fill:none;stroke:#b0b0b0;stroke-linecap:square;stroke-width:0.8;"/>
     </g>
     <g id="line2d_87">
      <g>
       <use style="stroke:#000000;stroke-width:0.6;" x="99" xlink:href="#m0cb60b688e" y="145.092667"/>
      </g>
     </g>
    </g>
    <g id="ytick_31">
     <g id="line2d_88">
      <path clip-path="url(#p68e2955192)" d="M 99 135.111413 
L 712.8 135.111413 
" style="fill:none;stroke:#b0b0b0;stroke-linecap:square;stroke-width:0.8;"/>
     </g>
     <g id="line2d_89">
      <g>
       <use style="stroke:#000000;stroke-width:0.6;" x="99" xlink:href="#m0cb60b688e" y="135.111413"/>
      </g>
     </g>
    </g>
    <g id="ytick_32">
     <g id="line2d_90">
      <path clip-path="url(#p68e2955192)" d="M 99 126.672383 
L 712.8 126.672383 
" style="fill:none;stroke:#b0b0b0;stroke-linecap:square;stroke-width:0.8;"/>
     </g>
     <g id="line2d_91">
      <g>
       <use style="stroke:#000000;stroke-width:0.6;" x="99" xlink:href="#m0cb60b688e" y="126.672383"/>
      </g>
     </g>
    </g>
    <g id="ytick_33">
     <g id="line2d_92">
      <path clip-path="url(#p68e2955192)" d="M 99 119.362163 
L 712.8 119.362163 
" style="fill:none;stroke:#b0b0b0;stroke-linecap:square;stroke-width:0.8;"/>
     </g>
     <g id="line2d_93">
      <g>
       <use style="stroke:#000000;stroke-width:0.6;" x="99" xlink:href="#m0cb60b688e" y="119.362163"/>
      </g>
     </g>
    </g>
    <g id="ytick_34">
     <g id="line2d_94">
      <path clip-path="url(#p68e2955192)" d="M 99 112.914092 
L 712.8 112.914092 
" style="fill:none;stroke:#b0b0b0;stroke-linecap:square;stroke-width:0.8;"/>
     </g>
     <g id="line2d_95">
      <g>
       <use style="stroke:#000000;stroke-width:0.6;" x="99" xlink:href="#m0cb60b688e" y="112.914092"/>
      </g>
     </g>
    </g>
   </g>
   <g id="line2d_96">
    <path clip-path="url(#p68e2955192)" d="M 114.343449 613 
L 114.345 447.366859 
L 116.705769 447.366859 
L 119.066538 402.972218 
L 121.427308 402.972218 
L 122.607692 391.986435 
L 123.788077 375.006902 
L 124.968462 368.154804 
L 126.148846 359.257652 
L 127.329231 351.606338 
L 128.509615 351.606338 
L 129.69 347.041585 
L 130.870385 347.041585 
L 132.050769 349.276398 
L 133.231154 344.894434 
L 134.411538 344.894434 
L 135.591923 338.916283 
L 136.772308 331.842544 
L 137.952692 331.842544 
L 139.133077 338.916283 
L 140.313462 338.916283 
L 141.493846 344.894434 
L 143.854615 354.039865 
L 145.035 356.586618 
L 146.215385 362.06572 
L 147.395769 356.586618 
L 148.576154 356.586618 
L 149.756538 362.06572 
L 150.936923 362.06572 
L 152.117308 368.154804 
L 153.297692 368.154804 
L 154.478077 365.025648 
L 155.658462 356.586618 
L 156.838846 365.025648 
L 158.019231 356.586618 
L 159.199615 356.586618 
L 160.38 351.606338 
L 161.560385 356.586618 
L 162.740769 351.606338 
L 163.921154 365.025648 
L 165.101538 351.606338 
L 166.281923 351.606338 
L 167.462308 362.06572 
L 168.642692 362.06572 
L 169.823077 365.025648 
L 171.003462 365.025648 
L 172.183846 368.154804 
L 173.364231 365.025648 
L 176.905385 365.025648 
L 178.085769 362.06572 
L 179.266154 356.586618 
L 180.446538 354.039865 
L 181.626923 356.586618 
L 182.807308 351.606338 
L 186.348462 351.606338 
L 187.528846 347.041585 
L 188.709231 347.041585 
L 189.889615 351.606338 
L 192.250385 351.606338 
L 193.430769 356.586618 
L 194.611154 359.257652 
L 195.791538 359.257652 
L 196.971923 368.154804 
L 198.152308 378.783939 
L 204.054231 378.783939 
L 205.234615 375.006902 
L 208.775769 375.006902 
L 209.956154 365.025648 
L 211.136538 359.257652 
L 213.497308 359.257652 
L 214.677692 354.039865 
L 215.858077 347.041585 
L 217.038462 335.265242 
L 218.218846 335.265242 
L 219.399231 327.079078 
L 220.579615 325.579112 
L 221.76 318.640048 
L 222.940385 312.482404 
L 224.120769 312.482404 
L 225.301154 310.201018 
L 226.481538 310.201018 
L 227.661923 309.095015 
L 228.842308 305.905064 
L 230.022692 301.921829 
L 232.383462 301.921829 
L 233.563846 299.113761 
L 237.105 299.113761 
L 238.285385 294.731797 
L 240.646154 294.731797 
L 241.826538 298.208859 
L 243.006923 294.731797 
L 244.187308 294.731797 
L 245.367692 293.895974 
L 246.548077 293.895974 
L 247.728462 292.261664 
L 248.908846 292.261664 
L 250.089231 290.674731 
L 251.269615 286.897694 
L 253.630385 286.897694 
L 254.810769 283.364511 
L 257.171538 280.693478 
L 258.351923 276.311514 
L 259.532308 280.693478 
L 260.712692 280.693478 
L 261.893077 278.146724 
L 264.253846 278.146724 
L 265.434231 273.956513 
L 268.975385 273.956513 
L 270.155769 278.146724 
L 271.336154 280.693478 
L 272.516538 282.684436 
L 273.696923 283.364511 
L 274.877308 283.364511 
L 276.057692 284.053141 
L 277.238077 284.053141 
L 278.418462 284.750543 
L 279.598846 284.750543 
L 280.779231 286.17258 
L 281.959615 288.377388 
L 286.681154 288.377388 
L 287.861538 289.132507 
L 289.041923 289.132507 
L 290.222308 286.897694 
L 292.583077 286.897694 
L 293.763462 287.632542 
L 296.124231 287.632542 
L 297.304615 282.012706 
L 298.485 282.012706 
L 300.845769 286.17258 
L 303.206538 289.132507 
L 305.567308 289.132507 
L 306.747692 293.07272 
L 309.108462 293.07272 
L 310.288846 300.033872 
L 311.469231 300.033872 
L 312.649615 295.580578 
L 316.190769 295.580578 
L 317.371154 291.462448 
L 318.551538 284.750543 
L 319.731923 276.311514 
L 320.912308 275.713198 
L 323.273077 273.383258 
L 325.633846 273.383258 
L 326.814231 272.815944 
L 327.994615 263.975259 
L 329.175 263.975259 
L 330.355385 253.914027 
L 331.535769 250.807075 
L 332.716154 245.761173 
L 333.896538 245.761173 
L 335.076923 239.889981 
L 336.257308 237.174781 
L 338.618077 237.174781 
L 340.978846 224.140732 
L 342.159231 221.425531 
L 343.339615 219.261402 
L 344.52 219.261402 
L 345.700385 217.589659 
L 346.880769 218.838656 
L 348.061154 218.838656 
L 349.241538 217.589659 
L 351.602308 217.589659 
L 352.782692 215.967457 
L 353.963077 214.781591 
L 355.143462 212.484247 
L 356.323846 209.741838 
L 357.504231 207.814603 
L 358.684615 207.814603 
L 359.865 202.098278 
L 361.045385 197.490117 
L 362.225769 196.501143 
L 364.586538 192.324197 
L 365.766923 192.324197 
L 366.947308 191.551309 
L 368.127692 188.685712 
L 369.308077 183.478961 
L 370.488462 179.746091 
L 371.668846 177.129088 
L 372.849231 175.292797 
L 374.029615 172.332869 
L 375.21 172.332869 
L 376.390385 168.59186 
L 377.570769 167.098713 
L 378.751154 164.540802 
L 379.931538 158.275259 
L 381.111923 157.997363 
L 383.472692 157.997363 
L 384.653077 153.989819 
L 385.833462 153.989819 
L 387.013846 152.779576 
L 388.194231 152.779576 
L 389.374615 151.104517 
L 390.555 151.104517 
L 391.735385 145.53239 
L 392.915769 137.298725 
L 394.096154 130.226425 
L 395.276538 126.711501 
L 396.456923 126.16638 
L 397.637308 121.63263 
L 399.998077 121.63263 
L 401.178462 120.016155 
L 402.358846 116.560939 
L 403.539231 120.016155 
L 404.719615 118.547081 
L 405.9 120.713113 
L 409.441154 120.713113 
L 410.621538 118.749717 
L 411.801923 120.713113 
L 412.982308 124.337555 
L 414.162692 131.878441 
L 415.343077 133.759608 
L 416.523462 133.759608 
L 417.703846 138.353396 
L 420.064615 138.353396 
L 421.245 141.902716 
L 424.786154 141.902716 
L 425.966538 145.642875 
L 427.146923 148.305615 
L 428.327308 152.84261 
L 430.688077 158.275259 
L 433.048846 158.275259 
L 434.229231 160.988099 
L 435.409615 160.988099 
L 436.59 170.648264 
L 437.770385 175.483215 
L 438.950769 176.058478 
L 440.131154 178.421953 
L 441.311538 176.058478 
L 442.491923 178.421953 
L 443.672308 178.421953 
L 444.852692 182.278118 
L 446.033077 185.27405 
L 447.213462 185.27405 
L 448.393846 191.423548 
L 449.574231 191.423548 
L 450.754615 185.27405 
L 451.935 185.27405 
L 453.115385 183.589446 
L 454.295769 183.589446 
L 455.476154 177.424743 
L 456.656538 174.913935 
L 457.836923 177.424743 
L 460.197692 177.424743 
L 461.378077 174.913935 
L 462.558462 174.913935 
L 463.738846 170.998636 
L 466.099615 170.998636 
L 467.28 171.617234 
L 468.460385 171.617234 
L 469.640769 175.578674 
L 470.821154 183.589446 
L 472.001538 181.740868 
L 473.181923 191.168919 
L 474.362308 191.168919 
L 475.542692 181.740868 
L 476.723077 191.168919 
L 477.903462 192.324197 
L 479.083846 192.324197 
L 480.264231 193.903499 
L 481.444615 193.108153 
L 482.625 193.108153 
L 483.805385 193.903499 
L 484.985769 200.118398 
L 486.166154 206.960524 
L 487.346538 207.642718 
L 488.526923 207.642718 
L 489.707308 210.099651 
L 490.887692 210.099651 
L 492.068077 220.332774 
L 494.428846 220.332774 
L 495.609231 239.274859 
L 496.789615 229.754298 
L 497.97 230.011924 
L 499.150385 230.011924 
L 500.330769 240.200154 
L 501.511154 260.71287 
L 502.691538 247.156034 
L 503.871923 249.317315 
L 505.052308 256.36572 
L 507.413077 256.36572 
L 508.593462 238.96987 
L 518.036538 238.96987 
L 519.216923 246.106571 
L 520.397308 246.106571 
L 521.577692 250.430817 
L 523.938462 250.430817 
L 525.118846 258.932377 
L 526.299231 258.932377 
L 527.479615 253.515877 
L 529.840385 253.515877 
L 531.020769 258.932377 
L 534.561923 258.932377 
L 535.742308 261.167191 
L 536.922692 261.167191 
L 538.103077 275.121351 
L 544.005 275.121351 
L 545.185385 261.167191 
L 546.365769 280.693478 
L 547.546154 270.064343 
L 551.087308 270.064343 
L 552.267692 263.497131 
L 553.448077 263.497131 
L 554.628462 251.567439 
L 555.808846 258.063386 
L 559.35 258.063386 
L 560.530385 255.949404 
L 561.710769 255.949404 
L 562.891154 247.867022 
L 564.071538 250.807075 
L 567.612692 250.807075 
L 568.793077 247.867022 
L 571.153846 250.057128 
L 577.055769 250.057128 
L 578.236154 254.71912 
L 579.416538 254.71912 
L 580.596923 252.728161 
L 584.138077 252.728161 
L 585.318462 257.207972 
L 586.498846 252.338513 
L 587.679231 254.71912 
L 588.859615 251.567439 
L 593.581154 251.567439 
L 594.761538 251.185937 
L 601.843846 251.185937 
L 603.024231 251.951619 
L 604.204615 251.185937 
L 605.385 249.685971 
L 608.926154 249.685971 
L 610.106538 247.510374 
L 612.467308 247.510374 
L 613.647692 252.338513 
L 617.188846 252.338513 
L 618.369231 251.567439 
L 619.549615 246.803973 
L 620.73 246.803973 
L 621.910385 245.417941 
L 624.271154 245.417941 
L 625.451538 251.567439 
L 628.992692 251.567439 
L 630.173077 247.867022 
L 633.714231 247.867022 
L 634.894615 248.587366 
L 636.075 248.587366 
L 637.255385 251.951619 
L 640.796538 251.951619 
L 641.976923 248.587366 
L 643.157308 251.951619 
L 644.337692 251.951619 
L 645.518077 253.120602 
L 646.698462 255.12615 
L 658.502308 255.12615 
L 659.682692 253.914027 
L 660.863077 251.567439 
L 662.043462 251.567439 
L 663.223846 250.430817 
L 665.584615 250.430817 
L 666.765 251.567439 
L 667.945385 251.567439 
L 670.306154 236.881239 
L 677.388462 236.881239 
L 678.568846 235.722565 
L 682.11 235.722565 
L 683.290385 235.152296 
L 684.470769 235.152296 
L 685.651154 233.752083 
L 686.831538 233.752083 
L 688.011923 231.318557 
L 691.553077 231.318557 
L 692.733462 224.606652 
L 693.913846 224.606652 
L 695.094231 222.992989 
L 696.274615 214.97746 
L 699.815769 214.97746 
L 702.176538 206.622589 
L 703.356923 203.512153 
L 704.537308 199.22821 
L 706.898077 199.22821 
L 708.078462 194.037187 
L 709.258846 184.81973 
L 710.439231 183.478961 
L 711.619615 183.478961 
L 712.8 182.820692 
L 712.8 182.820692 
" style="fill:none;stroke:#1f77b4;stroke-linecap:square;stroke-width:1.5;"/>
   </g>
   <g id="line2d_97">
    <path clip-path="url(#p68e2955192)" d="M 191.069159 613 
L 191.07 523.26 
L 192.250385 523.26 
L 193.430769 485.31343 
L 194.611154 523.26 
L 196.971923 523.26 
L 196.972764 613 
L 196.972764 613 
" style="fill:none;stroke:#ff7f0e;stroke-linecap:square;stroke-width:1.5;"/>
   </g>
   <g id="patch_3">
    <path d="M 99 544.68 
L 99 73.44 
" style="fill:none;stroke:#000000;stroke-linecap:square;stroke-linejoin:miter;stroke-width:0.8;"/>
   </g>
   <g id="patch_4">
    <path d="M 712.8 544.68 
L 712.8 73.44 
" style="fill:none;stroke:#000000;stroke-linecap:square;stroke-linejoin:miter;stroke-width:0.8;"/>
   </g>
   <g id="patch_5">
    <path d="M 99 544.68 
L 712.8 544.68 
" style="fill:none;stroke:#000000;stroke-linecap:square;stroke-linejoin:miter;stroke-width:0.8;"/>
   </g>
   <g id="patch_6">
    <path d="M 99 73.44 
L 712.8 73.44 
" style="fill:none;stroke:#000000;stroke-linecap:square;stroke-linejoin:miter;stroke-width:0.8;"/>
   </g>
   <g id="legend_1">
    <g id="patch_7">
     <path d="M 616.653125 110.79625 
L 705.8 110.79625 
Q 707.8 110.79625 707.8 108.79625 
L 707.8 80.44 
Q 707.8 78.44 705.8 78.44 
L 616.653125 78.44 
Q 614.653125 78.44 614.653125 80.44 
L 614.653125 108.79625 
Q 614.653125 110.79625 616.653125 110.79625 
z
" style="fill:#ffffff;opacity:0.8;stroke:#cccccc;stroke-linejoin:miter;"/>
    </g>
    <g id="line2d_98">
     <path d="M 618.653125 86.538437 
L 638.653125 86.538437 
" style="fill:none;stroke:#1f77b4;stroke-linecap:square;stroke-width:1.5;"/>
    </g>
    <g id="line2d_99"/>
    <g id="text_12">
     <!-- Avg Cases -->
     <g transform="translate(646.653125 90.038437)scale(0.1 -0.1)">
      <defs>
       <path d="M 191 3500 
L 800 3500 
L 1894 563 
L 2988 3500 
L 3597 3500 
L 2284 0 
L 1503 0 
L 191 3500 
z
" id="DejaVuSans-76" transform="scale(0.015625)"/>
       <path d="M 2906 1791 
Q 2906 2416 2648 2759 
Q 2391 3103 1925 3103 
Q 1463 3103 1205 2759 
Q 947 2416 947 1791 
Q 947 1169 1205 825 
Q 1463 481 1925 481 
Q 2391 481 2648 825 
Q 2906 1169 2906 1791 
z
M 3481 434 
Q 3481 -459 3084 -895 
Q 2688 -1331 1869 -1331 
Q 1566 -1331 1297 -1286 
Q 1028 -1241 775 -1147 
L 775 -588 
Q 1028 -725 1275 -790 
Q 1522 -856 1778 -856 
Q 2344 -856 2625 -561 
Q 2906 -266 2906 331 
L 2906 616 
Q 2728 306 2450 153 
Q 2172 0 1784 0 
Q 1141 0 747 490 
Q 353 981 353 1791 
Q 353 2603 747 3093 
Q 1141 3584 1784 3584 
Q 2172 3584 2450 3431 
Q 2728 3278 2906 2969 
L 2906 3500 
L 3481 3500 
L 3481 434 
z
" id="DejaVuSans-67" transform="scale(0.015625)"/>
       <path id="DejaVuSans-20" transform="scale(0.015625)"/>
       <path d="M 4122 4306 
L 4122 3641 
Q 3803 3938 3442 4084 
Q 3081 4231 2675 4231 
Q 1875 4231 1450 3742 
Q 1025 3253 1025 2328 
Q 1025 1406 1450 917 
Q 1875 428 2675 428 
Q 3081 428 3442 575 
Q 3803 722 4122 1019 
L 4122 359 
Q 3791 134 3420 21 
Q 3050 -91 2638 -91 
Q 1578 -91 968 557 
Q 359 1206 359 2328 
Q 359 3453 968 4101 
Q 1578 4750 2638 4750 
Q 3056 4750 3426 4639 
Q 3797 4528 4122 4306 
z
" id="DejaVuSans-43" transform="scale(0.015625)"/>
       <path d="M 2834 3397 
L 2834 2853 
Q 2591 2978 2328 3040 
Q 2066 3103 1784 3103 
Q 1356 3103 1142 2972 
Q 928 2841 928 2578 
Q 928 2378 1081 2264 
Q 1234 2150 1697 2047 
L 1894 2003 
Q 2506 1872 2764 1633 
Q 3022 1394 3022 966 
Q 3022 478 2636 193 
Q 2250 -91 1575 -91 
Q 1294 -91 989 -36 
Q 684 19 347 128 
L 347 722 
Q 666 556 975 473 
Q 1284 391 1588 391 
Q 1994 391 2212 530 
Q 2431 669 2431 922 
Q 2431 1156 2273 1281 
Q 2116 1406 1581 1522 
L 1381 1569 
Q 847 1681 609 1914 
Q 372 2147 372 2553 
Q 372 3047 722 3315 
Q 1072 3584 1716 3584 
Q 2034 3584 2315 3537 
Q 2597 3491 2834 3397 
z
" id="DejaVuSans-73" transform="scale(0.015625)"/>
      </defs>
      <use xlink:href="#DejaVuSans-41"/>
      <use x="62.533203" xlink:href="#DejaVuSans-76"/>
      <use x="121.712891" xlink:href="#DejaVuSans-67"/>
      <use x="185.189453" xlink:href="#DejaVuSans-20"/>
      <use x="216.976562" xlink:href="#DejaVuSans-43"/>
      <use x="286.800781" xlink:href="#DejaVuSans-61"/>
      <use x="348.080078" xlink:href="#DejaVuSans-73"/>
      <use x="400.179688" xlink:href="#DejaVuSans-65"/>
      <use x="461.703125" xlink:href="#DejaVuSans-73"/>
     </g>
    </g>
    <g id="line2d_100">
     <path d="M 618.653125 101.216562 
L 638.653125 101.216562 
" style="fill:none;stroke:#ff7f0e;stroke-linecap:square;stroke-width:1.5;"/>
    </g>
    <g id="line2d_101"/>
    <g id="text_13">
     <!-- Avg Deaths -->
     <g transform="translate(646.653125 104.716562)scale(0.1 -0.1)">
      <defs>
       <path d="M 3513 2113 
L 3513 0 
L 2938 0 
L 2938 2094 
Q 2938 2591 2744 2837 
Q 2550 3084 2163 3084 
Q 1697 3084 1428 2787 
Q 1159 2491 1159 1978 
L 1159 0 
L 581 0 
L 581 4863 
L 1159 4863 
L 1159 2956 
Q 1366 3272 1645 3428 
Q 1925 3584 2291 3584 
Q 2894 3584 3203 3211 
Q 3513 2838 3513 2113 
z
" id="DejaVuSans-68" transform="scale(0.015625)"/>
      </defs>
      <use xlink:href="#DejaVuSans-41"/>
      <use x="62.533203" xlink:href="#DejaVuSans-76"/>
      <use x="121.712891" xlink:href="#DejaVuSans-67"/>
      <use x="185.189453" xlink:href="#DejaVuSans-20"/>
      <use x="216.976562" xlink:href="#DejaVuSans-44"/>
      <use x="293.978516" xlink:href="#DejaVuSans-65"/>
      <use x="355.501953" xlink:href="#DejaVuSans-61"/>
      <use x="416.78125" xlink:href="#DejaVuSans-74"/>
      <use x="455.990234" xlink:href="#DejaVuSans-68"/>
      <use x="519.369141" xlink:href="#DejaVuSans-73"/>
     </g>
    </g>
   </g>
  </g>
 </g>
 <defs>
  <clipPath id="p68e2955192">
   <rect height="471.24" width="613.8" x="99" y="73.44"/>
  </clipPath>
 </defs>
</svg>
